<?xml version="1.0" encoding="UTF-8" standalone="no"?>
<!-- Created with Inkscape (http://www.inkscape.org/) -->

<svg
   width="78mm"
   height="62mm"
   viewBox="0 0 78 62"
   version="1.1"
   id="svg5"
   inkscape:version="1.1.2 (0a00cf5339, 2022-02-04)"
   sodipodi:docname="conlang flag 4.svg"
   xmlns:inkscape="http://www.inkscape.org/namespaces/inkscape"
   xmlns:sodipodi="http://sodipodi.sourceforge.net/DTD/sodipodi-0.dtd"
   xmlns="http://www.w3.org/2000/svg"
   xmlns:svg="http://www.w3.org/2000/svg">
  <sodipodi:namedview
     id="namedview7"
     pagecolor="#ffffff"
     bordercolor="#666666"
     borderopacity="1.0"
     inkscape:pageshadow="2"
     inkscape:pageopacity="0.0"
     inkscape:pagecheckerboard="0"
     inkscape:document-units="mm"
     showgrid="false"
     fit-margin-top="0"
     fit-margin-left="0"
     fit-margin-right="0"
     fit-margin-bottom="0"
     inkscape:zoom="1.28"
     inkscape:cx="101.95313"
     inkscape:cy="68.75"
     inkscape:window-width="1366"
     inkscape:window-height="699"
     inkscape:window-x="0"
     inkscape:window-y="0"
     inkscape:window-maximized="1"
     inkscape:current-layer="layer2" />
  <defs
     id="defs2">
    <path
       d="m 12.563038,0 44.873924,0 c 4.368442,0 5.952545,0.45484549 7.549582,1.3089503 C 66.583581,2.163055 67.836945,3.416419 68.69105,5.013456 69.545154,6.6104931 70,8.1945956 70,12.563038 v 28.873924 c 0,4.368442 -0.454846,5.952545 -1.30895,7.549582 -0.854105,1.597037 -2.107469,2.850401 -3.704506,3.704506 C 63.389507,53.545155 61.805404,54 57.436962,54 H 12.563038 C 8.1945956,54 6.6104931,53.545155 5.013456,52.69105 3.416419,51.836945 2.163055,50.583581 1.3089503,48.986544 0.45484549,47.389507 0,45.805404 0,41.436962 L 0,12.563038 C 0,8.1945956 0.45484549,6.6104931 1.3089503,5.013456 2.163055,3.416419 3.416419,2.163055 5.013456,1.3089503 6.6104931,0.45484549 8.1945956,0 12.563038,0 Z"
       id="path-1" />
  </defs>
  <g
     inkscape:label="Layer 1"
     inkscape:groupmode="layer"
     id="layer1"
     transform="translate(-125.54492,-123.4331)" />
  <g
     inkscape:groupmode="layer"
     id="layer2"
     inkscape:label="Layer 2"
     transform="translate(-125.54492,-123.4331)">
    <g
       id="g7892">
      <g
         id="g7881">
        <path
           d="m 186.98188,125.4331 h -44.87392 c -4.93484,0 -6.69622,0.58451 -8.49278,1.54532 -1.95073,1.04327 -3.48167,2.57421 -4.52494,4.52494 -0.96081,1.79656 -1.54532,3.55794 -1.54532,8.49278 v 28.87392 c 0,4.93484 0.58451,6.69622 1.54532,8.49278 1.04327,1.95073 2.57421,3.48167 4.52494,4.52494 1.79656,0.96081 3.55794,1.54532 8.49278,1.54532 h 44.87392 c 4.93484,0 6.69622,-0.58451 8.49278,-1.54532 1.95073,-1.04327 3.48167,-2.57421 4.52494,-4.52494 0.96081,-1.79656 1.54532,-3.55794 1.54532,-8.49278 v -28.87392 c 0,-4.93484 -0.58451,-6.69622 -1.54532,-8.49278 -1.04327,-1.95073 -2.57421,-3.48167 -4.52494,-4.52494 -1.79656,-0.96081 -3.55794,-1.54532 -8.49278,-1.54532 z"
           id="path2306"
           stroke="#ffffff"
           stroke-width="4"
           fill="#eeeeee"
           fill-rule="nonzero"
           style="fill:#ff4b4b;fill-opacity:1" />
        <g
           id="g7110">
          <g
             id="g7102">
            <path
               d="m 199.2565,173.4331 c -0.21983,1.27872 -0.56286,2.13078 -1.02053,2.98654 -0.85411,1.59704 -2.10747,2.8504 -3.70451,3.70451 -1.59703,0.8541 -3.18114,1.30895 -7.54958,1.30895 h -44.87392 c -4.36844,0 -5.95255,-0.45485 -7.54958,-1.30895 -1.59704,-0.85411 -2.85041,-2.10747 -3.70451,-3.70451 -0.45767,-0.85576 -0.8007,-1.70782 -1.02054,-2.98654 z"
               id="path2308"
               fill="#ff4b4b"
               fill-rule="nonzero"
               style="fill:#47a600;fill-opacity:1;stroke:none;stroke-width:1" />
            <path
               d="m 142.10796,127.4331 h 44.87392 c 4.36844,0 5.95255,0.45485 7.54958,1.30895 1.59704,0.8541 2.8504,2.10747 3.70451,3.70451 0.45767,0.85576 0.8007,1.70782 1.02053,2.98654 h -69.42317 c 0.21984,-1.27872 0.56287,-2.13078 1.02054,-2.98654 0.8541,-1.59704 2.10747,-2.85041 3.70451,-3.70451 1.59703,-0.8541 3.18114,-1.30895 7.54958,-1.30895 z"
               id="path2312"
               fill="#ff4b4b"
               fill-rule="nonzero"
               style="fill:#ffc800;fill-opacity:1;stroke:none;stroke-width:1" />
            <path
               d="m 170.85958,148.04541 c -0.47887,-0.12197 -0.90084,-0.18295 -1.2659,-0.18295 -3.62887,0 -6.57064,2.94177 -6.57064,6.57064 0,3.62887 2.94177,6.57064 6.57064,6.57064 0.36505,0 0.787,-0.061 1.26585,-0.18294 v -3e-5 c 0.29306,-0.0746 0.59114,0.10243 0.66578,0.39549 0.0561,0.22022 -0.0297,0.4522 -0.21552,0.58298 -1.3214,0.92981 -2.98854,1.39472 -5.00143,1.39472 -4.83849,0 -8.76086,-3.92237 -8.76086,-8.76086 0,-4.83849 3.92237,-8.76086 8.76086,-8.76086 2.01291,0 3.68007,0.46492 5.00147,1.39475 h 1e-5 c 0.24731,0.17403 0.30672,0.51559 0.13269,0.76291 -0.13077,0.18585 -0.36274,0.2716 -0.58295,0.21551 z"
               id="path1922"
               fill="#ffffff"
               fill-rule="nonzero"
               style="stroke:none;stroke-width:0.547553" />
            <path
               d="m 199.54526,169.8678 c 0,0.15811 -8.9e-4,0.31176 -0.003,0.46116 h -69.99468 c -0.002,-0.1494 -0.003,-0.30305 -0.003,-0.46116 v -4.45316 h 70 z"
               id="path3768"
               fill="#ff4b4b"
               style="fill:#eeeeee;fill-opacity:1;fill-rule:evenodd;stroke:none;stroke-width:0.905015" />
            <path
               d="m 199.54526,142.9904 c 0,0.15811 -8.9e-4,0.31176 -0.003,0.46116 h -69.99468 c -0.002,-0.1494 -0.003,-0.30305 -0.003,-0.46116 v -4.45316 h 70 z"
               id="path3770"
               fill="#ff4b4b"
               style="fill:#eeeeee;fill-opacity:1;fill-rule:evenodd;stroke:none;stroke-width:0.905015" />
          </g>
        </g>
      </g>
    </g>
  </g>
</svg>
