<?xml version="1.0" encoding="UTF-8" standalone="no"?>
<!-- Created with Inkscape (http://www.inkscape.org/) -->

<svg
   width="78mm"
   height="62mm"
   viewBox="0 0 78 62"
   version="1.1"
   id="svg23792"
   inkscape:version="1.1.2 (0a00cf5339, 2022-02-04)"
   sodipodi:docname="conlang flag 2.svg"
   xmlns:inkscape="http://www.inkscape.org/namespaces/inkscape"
   xmlns:sodipodi="http://sodipodi.sourceforge.net/DTD/sodipodi-0.dtd"
   xmlns="http://www.w3.org/2000/svg"
   xmlns:svg="http://www.w3.org/2000/svg">
  <sodipodi:namedview
     id="namedview23794"
     pagecolor="#ffffff"
     bordercolor="#666666"
     borderopacity="1.0"
     inkscape:pageshadow="2"
     inkscape:pageopacity="0.0"
     inkscape:pagecheckerboard="0"
     inkscape:document-units="mm"
     showgrid="false"
     fit-margin-top="0"
     fit-margin-left="0"
     fit-margin-right="0"
     fit-margin-bottom="0"
     inkscape:zoom="1.4142136"
     inkscape:cx="175.71603"
     inkscape:cy="152.73506"
     inkscape:window-width="1366"
     inkscape:window-height="699"
     inkscape:window-x="0"
     inkscape:window-y="0"
     inkscape:window-maximized="1"
     inkscape:current-layer="layer1" />
  <defs
     id="defs23789">
    <path
       d="m 12.563038,0 44.873924,0 c 4.368442,0 5.952545,0.45484549 7.549582,1.3089503 C 66.583581,2.163055 67.836945,3.416419 68.69105,5.013456 69.545154,6.6104931 70,8.1945956 70,12.563038 v 28.873924 c 0,4.368442 -0.454846,5.952545 -1.30895,7.549582 -0.854105,1.597037 -2.107469,2.850401 -3.704506,3.704506 C 63.389507,53.545155 61.805404,54 57.436962,54 H 12.563038 C 8.1945956,54 6.6104931,53.545155 5.013456,52.69105 3.416419,51.836945 2.163055,50.583581 1.3089503,48.986544 0.45484549,47.389507 0,45.805404 0,41.436962 L 0,12.563038 C 0,8.1945956 0.45484549,6.6104931 1.3089503,5.013456 2.163055,3.416419 3.416419,2.163055 5.013456,1.3089503 6.6104931,0.45484549 8.1945956,0 12.563038,0 Z"
       id="path-1" />
  </defs>
  <g
     inkscape:label="Layer 1"
     inkscape:groupmode="layer"
     id="layer1"
     transform="translate(-53.245627,-198.12275)">
    <g
       id="g30080">
      <path
         d="M 114.68259,200.12275 H 69.808664 c -4.934836,0 -6.696218,0.58451 -8.492779,1.54532 -1.950729,1.04327 -3.481673,2.57421 -4.524934,4.52494 -0.960811,1.79656 -1.545324,3.55794 -1.545324,8.49278 v 28.87392 c 0,4.93484 0.584513,6.69622 1.545324,8.49278 1.043261,1.95073 2.574205,3.48167 4.524934,4.52494 1.796561,0.96081 3.557943,1.54532 8.492779,1.54532 h 44.873926 c 4.93484,0 6.69622,-0.58451 8.49278,-1.54532 1.95073,-1.04327 3.48167,-2.57421 4.52493,-4.52494 0.96081,-1.79656 1.54533,-3.55794 1.54533,-8.49278 v -28.87392 c 0,-4.93484 -0.58452,-6.69622 -1.54533,-8.49278 -1.04326,-1.95073 -2.5742,-3.48167 -4.52493,-4.52494 -1.79656,-0.96081 -3.55794,-1.54532 -8.49278,-1.54532 z"
         id="path24857"
         stroke="#ffffff"
         stroke-width="4"
         fill="#eeeeee"
         style="fill:#eeeeef;fill-opacity:1;fill-rule:evenodd" />
      <path
         d="m 61.368794,203.97118 c 0.867722,-0.63682 1.956279,-1.11422 3.216383,-1.47658 2.038177,-0.58611 4.002072,-1.04045 9.497853,-1.04045 h 36.32521 c 5.49577,0 7.45827,0.45922 9.49785,1.04045 1.17375,0.33449 2.32239,0.8284 3.21137,1.47658 l -30.878032,52.15251 z"
         id="path27127"
         fill="#1cb0f6"
         style="fill:#ff4b4b;fill-opacity:1;fill-rule:nonzero;stroke:none;stroke-width:1"
         sodipodi:nodetypes="cssssccc" />
    </g>
    <path
       d="M 75.304903,227.51672 H 109.17775 L 92.240065,256.12369 Z"
       id="path27994"
       fill="#1cb0f6"
       style="fill-rule:nonzero;stroke:none;stroke-width:0.554232"
       sodipodi:nodetypes="cccc" />
    <path
       style="opacity:0.98;fill:#78c800;fill-opacity:1;stroke-width:15.1181;stroke-linecap:round;stroke-linejoin:round;stroke-miterlimit:4;stroke-dasharray:none;paint-order:stroke fill markers"
       id="path28823"
       sodipodi:type="arc"
       sodipodi:cx="92.245628"
       sodipodi:cy="227.53522"
       sodipodi:rx="10.748948"
       sodipodi:ry="10.748948"
       sodipodi:start="3.1435823"
       sodipodi:end="3.14353"
       sodipodi:open="true"
       sodipodi:arc-type="arc"
       d="M 81.496702,227.51383 A 10.748948,10.748948 0 0 1 92.266874,216.78629 10.748948,10.748948 0 0 1 102.99456,227.55632 10.748948,10.748948 0 0 1 92.224663,238.28414 10.748948,10.748948 0 0 1 81.4967,227.51439" />
  </g>
</svg>
