<?xml version="1.0" encoding="utf-8"?>
<!-- Generator: Adobe Illustrator 24.0.0, SVG Export Plug-In . SVG Version: 6.00 Build 0)  -->
<svg version="1.1"
	 id="svg2227" xmlns:inkscape="http://www.inkscape.org/namespaces/inkscape" xmlns:sodipodi="http://sodipodi.sourceforge.net/DTD/sodipodi-0.dtd" xmlns:svg="http://www.w3.org/2000/svg"
	 xmlns="http://www.w3.org/2000/svg" xmlns:xlink="http://www.w3.org/1999/xlink" x="0px" y="0px" viewBox="0 0 78 62"
	 style="enable-background:new 0 0 78 62;" xml:space="preserve">
<style type="text/css">
	.st0{fill:#FFFFFF;}
	.st1{fill:#EEEEEE;}
	.st2{fill:#4C4C4C;}
	.st3{fill:#1CB0F6;}
	.st4{fill:#1254A9;}
	.st5{fill:#FF4B4B;}
	.st6{fill:#9069CD;}
	.st7{fill:#FFAADE;}
	.st8{fill:#FFC800;}
	.st9{fill:#FF9600;}
	.st10{fill:#FFCE8E;}
	.st11{fill:#78C800;}
	.st12{fill:#1254A9;stroke:#FFFFFF;stroke-width:4;}
	.st13{fill:#FFFFFF;stroke:#000000;}
</style>
<sodipodi:namedview  bordercolor="#000000" borderopacity="0.25" id="namedview176" inkscape:current-layer="de-6" inkscape:cx="14.808844" inkscape:cy="-2.3329001" inkscape:deskcolor="#d1d1d1" inkscape:pagecheckerboard="0" inkscape:pageopacity="0.0" inkscape:showpageshadow="2" inkscape:window-height="991" inkscape:window-maximized="1" inkscape:window-width="1920" inkscape:window-x="-9" inkscape:window-y="-9" inkscape:zoom="4.9294867" pagecolor="#ffffff" showgrid="false">
	</sodipodi:namedview>
<defs>
	
		<inkscape:path-effect  apply_no_radius="true" apply_with_radius="true" chamfer_steps="1" effect="fillet_chamfer" flexible="false" hide_knots="false" id="path-effect1612" is_visible="true" lpeversion="1" method="auto" mode="F" nodesatellites_param="F,0,0,1,0,6,0,1 @ F,0,0,1,0,6,0,1 @ F,0,0,1,0,6,0,1 | F,0,0,1,0,6,0,1 @ F,0,0,1,0,6,0,1 | F,0,0,1,0,6,0,1 @ F,0,0,1,0,6,0,1 | F,0,0,1,0,6,0,1 @ F,0,0,1,0,6,0,1 | F,0,0,1,0,6,0,1 @ F,0,0,1,0,6,0,1 | F,0,0,1,0,6,0,1 @ F,0,0,1,0,6,0,1 @ F,0,0,1,0,6,0,1 | F,0,0,1,0,6,0,1 @ F,0,0,1,0,6,0,1 @ F,0,0,1,0,6,0,1 | F,0,0,1,0,6,0,1 @ F,0,0,1,0,6,0,1 | F,0,0,1,0,6,0,1 @ F,0,0,1,0,6,0,1 | F,0,0,1,0,6,0,1 @ F,0,0,1,0,6,0,1 | F,0,0,1,0,6,0,1 @ F,0,0,1,0,6,0,1 | F,0,0,1,0,6,0,1 @ F,0,0,1,0,6,0,1 @ F,0,0,1,0,6,0,1" only_selected="false" radius="6" unit="px" use_knot_distance="true">
		</inkscape:path-effect>
</defs>
<g id="palette">
	<ellipse id="white" class="st0" cx="-80.2" cy="-10" rx="19.8" ry="20"/>
	<ellipse id="gray" class="st1" cx="-80.2" cy="-60" rx="19.8" ry="20"/>
	<ellipse id="black" class="st2" cx="-80.2" cy="-110" rx="19.8" ry="20"/>
	<ellipse id="lightblue" class="st3" cx="-30.2" cy="-60" rx="19.8" ry="20"/>
	<ellipse id="darkblue" class="st4" cx="-30.2" cy="-110" rx="19.8" ry="20"/>
	<ellipse id="red" class="st5" cx="19.8" cy="-60" rx="19.8" ry="20"/>
	<ellipse id="red-6" class="st6" cx="-30.2" cy="-160" rx="19.8" ry="20"/>
	<ellipse id="red-6-8" class="st7" cx="19.8" cy="-110" rx="19.8" ry="20"/>
	<ellipse id="yellow" class="st8" cx="69.8" cy="-60" rx="19.8" ry="20"/>
	<ellipse id="orange" class="st9" cx="69.8" cy="-110" rx="19.8" ry="20"/>
	<ellipse id="brown" class="st10" cx="69.8" cy="-160" rx="19.8" ry="20"/>
	<ellipse id="green" class="st11" cx="119.8" cy="-60" rx="19.8" ry="20"/>
</g>
<g id="de-6" transform="translate(-114.52786,-0.9849714)">
	<g id="Group" transform="translate(118.52786,4.9849714)">
		<path id="Rectangle-3" class="st12" d="M57.4-2H12.6c-5,0-6.7,0.6-8.5,1.5c-2,1-3.5,2.6-4.5,4.5S-2,7.6-2,12.6v28.9
			c0,4.9,0.6,6.7,1.5,8.5c1,2,2.6,3.5,4.5,4.5c1.8,1,3.6,1.5,8.5,1.5h44.9c4.9,0,6.7-0.6,8.5-1.5c2-1,3.5-2.6,4.5-4.5
			c1-1.8,1.5-3.6,1.5-8.5V12.6c0-4.9-0.6-6.7-1.5-8.5c-1-2-2.6-3.5-4.5-4.5C64.1-1.4,62.4-2,57.4-2z"/>
	</g>
</g>
<path id="path1553" class="st13" d="M-81.4-51.9L-81.4-51.9L-81.4-51.9z"/>
<path id="path1559" class="st13" d="M-75.1-47.5L-75.1-47.5L-75.1-47.5z"/>
<path id="path1561" class="st13" d="M-72.9-46.6L-72.9-46.6L-72.9-46.6z"/>
<rect x="24.4" y="17.5" class="st0" width="29.2" height="27.1"/>
<path class="st4" d="M23.9,16.8c10.1,0,20.2,0,30.3,0c0,9.5,0,18.9,0,28.4c-10.1,0-20.2,0-30.3,0C23.9,35.7,23.9,26.3,23.9,16.8
	 M26.4,27.5c-0.3,1-1.5,1.8-1.5,2.9c0,0.5,0.2,1.1,0.6,1.5c0.8,1.1,2.2,1.8,3.6,1.8c1.1,0,2.2-0.3,3.3,0c-0.3,0.5-0.8,0.8-1.3,1.1
	c-1.3,0.7-2.6,1.7-3,3.1c-0.5,1.4,0.2,3.3,1.7,3.6c1.1,0.2,2.1,1,2.7,1.9c0.6,1,2,1.3,3.1,0.9s1.9-1.4,2.3-2.5
	c0.5-1.1,0.7-2.2,1-3.3c0.5,0.3,0.7,1,0.8,1.5c0.3,1.5,0.9,3,2.1,3.8c1.2,0.9,3.2,0.8,4-0.5c0.5-0.9,1.5-1.6,2.6-1.9
	c1.5-0.3,2.2-2.1,1.7-3.5c-0.5-1.4-1.7-2.4-3-3.2c-0.5-0.3-1.1-0.6-1.3-1.1c1.2-0.3,2.4,0.1,3.7,0c1.4-0.1,2.8-1,3.5-2.2
	c0.2-0.3,0.3-0.7,0.3-1.1c0-0.7-0.7-1.3-1.1-1.9c-0.5-0.7-0.7-1.6-0.6-2.5c0.2-1.4-1.3-2.7-2.8-2.8c-1.5-0.1-2.8,0.8-4,1.7
	c-0.5,0.4-1,0.9-1.6,1.1c-0.1-0.5,0.2-1.1,0.4-1.6c0.6-1.4,1.1-2.9,0.6-4.3c-0.5-1.4-2.2-2.5-3.6-1.9c-1,0.5-2.2,0.4-3.2,0
	c-0.9-0.4-2.1-0.1-2.8,0.7c-0.7,0.8-0.9,1.8-0.9,2.9c0.1,1,0.5,2,0.9,2.9c0.2,0.4,0.4,0.9,0.2,1.4c-1.2-0.5-2-1.6-3.1-2.2
	c-1.2-0.7-2.7-0.7-3.9-0.1c-0.4,0.2-0.7,0.4-0.9,0.7C26.2,25.2,26.7,26.5,26.4,27.5z"/>
<path class="st4" d="M34,33.2c-1.1,0-2.1-0.1-3.2-0.4c-0.8-0.2-1.6-0.6-1.8-1.4c-0.2-0.9,0.6-1.7,0.9-2.6c0.2-0.5,0.2-1,0.3-1.5
	c0.1-0.5,0.3-1.1,0.7-1.3c0.5-0.3,1.2-0.2,1.8,0c1.1,0.3,2.2,0.9,3.1,1.6c-0.3-0.9-0.5-1.9-0.5-2.9c-0.1-0.8,0.1-1.8,0.8-2.3
	c1-0.6,2.3,0.4,3.5,0c0.8-0.2,1.9-0.4,2.5,0.2c0.4,0.3,0.5,0.9,0.5,1.3c0.1,1.2-0.2,2.4-0.6,3.6c0.8-0.6,1.8-1.1,2.7-1.4
	c0.7-0.3,1.6-0.5,2.2,0c1,0.7,0.4,2.4,1.1,3.4c0.5,0.7,1,1.6,0.6,2.3c-0.3,0.6-1,0.9-1.6,1.1c-1,0.3-2.1,0.4-3.2,0.4
	c0.8,0.6,1.5,1.3,2.1,2c0.6,0.7,1.1,1.5,0.7,2.3c-0.4,0.9-1.6,1-2.4,1.6c-0.7,0.5-1.2,1.6-2.1,1.7c-0.9,0.1-1.6-0.7-2.1-1.4
	c-0.5-0.8-0.9-1.7-1.3-2.6c-0.3,1.1-0.9,2.1-1.5,3c-0.4,0.5-0.9,1-1.5,1c-0.5,0-1-0.3-1.4-0.7c-0.4-0.4-0.7-0.8-1.1-1.1
	c-0.8-0.6-2-0.7-2.4-1.6c-0.3-0.7,0.1-1.5,0.6-2.1C32.3,34.5,33.1,33.8,34,33.2 M41.5,32.8c-0.2-0.5,0.2-1,0.7-1.4
	c0.4-0.3,1-0.6,1.2-1.1c0-0.1,0.1-0.2,0-0.2c0-0.2-0.3-0.2-0.4-0.3c-0.6-0.1-1.3-0.2-1.9-0.2c-0.5,0-0.9-0.6-1.1-1.1
	c-0.2-0.5-0.3-1.1-0.7-1.4c-0.1-0.1-0.1-0.1-0.2-0.1c-0.2,0-0.3,0.2-0.4,0.3c-0.3,0.6-0.6,1.1-0.8,1.7c-0.2,0.5-0.8,0.7-1.3,0.7
	c-0.5,0-1.1-0.1-1.6,0.2c-0.1,0-0.2,0.1-0.2,0.2c-0.1,0.2,0.1,0.4,0.2,0.6c0.4,0.4,0.9,0.8,1.4,1.2c0.4,0.3,0.4,1,0.2,1.5
	c-0.2,0.5-0.4,1-0.3,1.5c0,0.1,0,0.2,0.1,0.2c0.1,0.2,0.4,0.1,0.6,0c0.6-0.3,1.1-0.6,1.6-0.9c0.4-0.3,1.1-0.1,1.5,0.2
	c0.4,0.3,0.9,0.7,1.4,0.8c0.1,0,0.2,0,0.2,0c0.2-0.1,0.2-0.3,0.2-0.5C41.8,34.1,41.6,33.4,41.5,32.8z"/>
</svg>
