<?xml version="1.0" encoding="UTF-8" standalone="no"?>
<!-- Generator: Adobe Illustrator 16.0.0, SVG Export Plug-In . SVG Version: 6.00 Build 0)  -->

<svg
   version="1.1"
   x="0px"
   y="0px"
   width="557.39709"
   height="443.05923"
   viewBox="0 0 557.39709 443.05923"
   enable-background="new 0 0 612 792"
   xml:space="preserve"
   id="svg17"
   sodipodi:docname="flag_czsy.svg"
   inkscape:version="1.1.2 (0a00cf5339, 2022-02-04)"
   xmlns:inkscape="http://www.inkscape.org/namespaces/inkscape"
   xmlns:sodipodi="http://sodipodi.sourceforge.net/DTD/sodipodi-0.dtd"
   xmlns:xlink="http://www.w3.org/1999/xlink"
   xmlns="http://www.w3.org/2000/svg"
   xmlns:svg="http://www.w3.org/2000/svg"
   xmlns:vectornator="http://vectornator.io"><defs
   id="defs21">
	
<inkscape:path-effect
   effect="fillet_chamfer"
   id="path-effect25702"
   is_visible="true"
   lpeversion="1"
   satellites_param="F,0,0,1,0,0,0,1 @ F,0,0,1,0,0,0,1 @ F,0,0,1,0,25,0,1 @ F,0,0,1,0,25,0,1"
   unit="px"
   method="auto"
   mode="F"
   radius="0"
   chamfer_steps="1"
   flexible="false"
   use_knot_distance="true"
   apply_no_radius="true"
   apply_with_radius="true"
   only_selected="false"
   hide_knots="false" /><inkscape:path-effect
   effect="fillet_chamfer"
   id="path-effect26251"
   is_visible="true"
   lpeversion="1"
   satellites_param="F,0,0,1,0,0,0,1 @ F,0,0,1,0,0,0,1 @ F,0,0,1,0,25,0,1 @ F,0,0,1,0,25,0,1"
   unit="px"
   method="auto"
   mode="F"
   radius="0"
   chamfer_steps="1"
   flexible="false"
   use_knot_distance="true"
   apply_no_radius="true"
   apply_with_radius="true"
   only_selected="false"
   hide_knots="false" /><inkscape:path-effect
   effect="fillet_chamfer"
   id="path-effect6872"
   is_visible="true"
   lpeversion="1"
   satellites_param="F,0,0,1,0,40,0,1 @ F,0,0,1,0,130,0,1 @ F,0,0,1,0,130,0,1 @ F,0,0,1,0,40,0,1"
   unit="px"
   method="auto"
   mode="F"
   radius="130"
   chamfer_steps="1"
   flexible="false"
   use_knot_distance="true"
   apply_no_radius="true"
   apply_with_radius="true"
   only_selected="false"
   hide_knots="false" /><inkscape:path-effect
   effect="fillet_chamfer"
   id="path-effect25784"
   is_visible="true"
   lpeversion="1"
   satellites_param="F,0,0,1,0,15,0,1 @ F,0,0,1,0,15,0,1 @ F,0,0,1,0,15,0,1 @ F,0,0,1,0,15,0,1"
   unit="px"
   method="auto"
   mode="F"
   radius="15"
   chamfer_steps="1"
   flexible="false"
   use_knot_distance="true"
   apply_no_radius="true"
   apply_with_radius="true"
   only_selected="false"
   hide_knots="false" /><inkscape:path-effect
   effect="fillet_chamfer"
   id="path-effect14058"
   is_visible="true"
   lpeversion="1"
   satellites_param="F,0,0,1,0,0,0,1 @ F,0,0,1,0,0,0,1 @ F,0,0,1,0,20,0,1 @ F,0,0,1,0,0,0,1 @ F,0,0,1,0,0,0,1 @ F,0,0,1,0,20,0,1 @ F,0,0,1,0,20,0,1 | F,0,0,1,0,20,0,1 @ F,0,0,1,0,15,0,1 @ F,0,0,1,0,15,0,1 @ F,0,0,1,0,20,0,1 | F,0,0,1,0,20,0,1 @ F,0,0,1,0,15,0,1 @ F,0,0,1,0,15,0,1 @ F,0,0,1,0,20,0,1 | F,0,0,1,0,20,0,1 @ F,0,0,1,0,20,0,1 @ F,0,0,1,0,0,0,1 @ F,0,0,1,0,0,0,1 @ F,0,0,1,0,0,0,1 @ F,0,0,1,0,0,0,1 @ F,0,0,1,0,0,0,1"
   unit="px"
   method="auto"
   mode="F"
   radius="20"
   chamfer_steps="1"
   flexible="false"
   use_knot_distance="true"
   apply_no_radius="true"
   apply_with_radius="true"
   only_selected="false"
   hide_knots="false" /><inkscape:path-effect
   effect="fillet_chamfer"
   id="path-effect19086"
   is_visible="true"
   lpeversion="1"
   satellites_param="F,0,0,1,0,50,0,1 @ F,0,0,1,0,0,0,1 @ F,0,0,1,0,0,0,1 @ F,0,0,1,0,0,0,1"
   unit="px"
   method="auto"
   mode="F"
   radius="0"
   chamfer_steps="1"
   flexible="false"
   use_knot_distance="true"
   apply_no_radius="true"
   apply_with_radius="true"
   only_selected="false"
   hide_knots="false" /><inkscape:path-effect
   effect="fillet_chamfer"
   id="path-effect19084"
   is_visible="true"
   lpeversion="1"
   satellites_param="F,0,0,1,0,0,0,1 @ F,0,0,1,0,0,0,1 @ F,0,0,1,0,0,0,1 @ F,0,0,1,0,25,0,1"
   unit="px"
   method="auto"
   mode="F"
   radius="0"
   chamfer_steps="1"
   flexible="false"
   use_knot_distance="true"
   apply_no_radius="true"
   apply_with_radius="true"
   only_selected="false"
   hide_knots="false" /><inkscape:path-effect
   effect="fillet_chamfer"
   id="path-effect26271"
   is_visible="true"
   lpeversion="1"
   satellites_param="F,0,0,1,0,15,0,1 @ F,0,0,1,0,15,0,1 @ F,0,0,1,0,15,0,1 @ F,0,0,1,0,15,0,1"
   unit="px"
   method="auto"
   mode="F"
   radius="15"
   chamfer_steps="1"
   flexible="false"
   use_knot_distance="true"
   apply_no_radius="true"
   apply_with_radius="true"
   only_selected="false"
   hide_knots="false" /><inkscape:path-effect
   effect="fillet_chamfer"
   id="path-effect26235"
   is_visible="true"
   lpeversion="1"
   satellites_param="F,0,0,1,0,50,0,1 @ F,0,0,1,0,0,0,1 @ F,0,0,1,0,0,0,1 @ F,0,0,1,0,0,0,1"
   unit="px"
   method="auto"
   mode="F"
   radius="0"
   chamfer_steps="1"
   flexible="false"
   use_knot_distance="true"
   apply_no_radius="true"
   apply_with_radius="true"
   only_selected="false"
   hide_knots="false" /><inkscape:path-effect
   effect="fillet_chamfer"
   id="path-effect26239"
   is_visible="true"
   lpeversion="1"
   satellites_param="F,0,0,1,0,0,0,1 @ F,0,0,1,0,0,0,1 @ F,0,0,1,0,0,0,1 @ F,0,0,1,0,25,0,1"
   unit="px"
   method="auto"
   mode="F"
   radius="0"
   chamfer_steps="1"
   flexible="false"
   use_knot_distance="true"
   apply_no_radius="true"
   apply_with_radius="true"
   only_selected="false"
   hide_knots="false" />
	

		<defs
   id="defs6">
			<rect
   id="SVGID_1_"
   y="161.229"
   width="612"
   height="469.543"
   x="0" />
		</defs>
		<clipPath
   id="SVGID_2_">
			<use
   xlink:href="#SVGID_1_"
   overflow="visible"
   id="use8"
   x="0"
   y="0"
   width="100%"
   height="100%" />
		</clipPath>
		
	
			
		</defs><sodipodi:namedview
   id="namedview19"
   pagecolor="#ffffff"
   bordercolor="#666666"
   borderopacity="1.0"
   inkscape:pageshadow="2"
   inkscape:pageopacity="0.0"
   inkscape:pagecheckerboard="0"
   showgrid="false"
   inkscape:zoom="0.82852916"
   inkscape:cx="290.27343"
   inkscape:cy="193.1133"
   inkscape:window-width="1366"
   inkscape:window-height="699"
   inkscape:window-x="0"
   inkscape:window-y="0"
   inkscape:window-maximized="1"
   inkscape:current-layer="layer3"
   fit-margin-top="0"
   fit-margin-left="0"
   fit-margin-right="0"
   fit-margin-bottom="0" />


<g
   inkscape:label="Layer 1"
   id="layer1"
   transform="matrix(3.7795276,0,0,3.7795276,-955.01329,-62.2369)">M 61.436962,2 H 16.563038 C 11.628201,2 9.866819,2.5845126 8.070258,3.5453238 6.119529,4.5885853 4.5885853,6.119529 3.5453238,8.070258 2.5845126,9.866819 2,11.628201 2,16.563038 v 28.873924 c 0,4.934837 0.5845126,6.696219 1.5453238,8.49278 1.0432615,1.950729 2.5742052,3.481673 4.5249342,4.524934 C 9.866819,59.415487 11.628201,60 16.563038,60 h 44.873924 c 4.934837,0 6.696219,-0.584513 8.49278,-1.545324 1.950729,-1.043261 3.481673,-2.574205 4.524934,-4.524934 C 75.415487,52.133181 76,50.371799 76,45.436962 V 16.563038 C 76,11.628201 75.415487,9.866819 74.454676,8.070258 73.411415,6.119529 71.880471,4.5885853 69.929742,3.5453238 68.133181,2.5845126 66.371799,2 61.436962,2 Z
</g><path
   id="M 61.436962,2 H 16.563038 C 11.628201,2 9.866819,2.5845126 8.070258,3.5453238 6.119529,4.5885853 4.5885853,6.119529 3.5453238,8.070258 2.5845126,9.866819 2,11.628201 2,16.563038 v 28.873924 c 0,4.934837 0.5845126,6.696219 1.5453238,8.49278 1.0432615,1.950729 2.5742052,3.481673 4.5249342,4.524934 C 9.866819,59.415487 11.628201,60 16.563038,60 h 44.873924 c 4.934837,0 6.696219,-0.584513 8.49278,-1.545324 1.950729,-1.043261 3.481673,-2.574205 4.524934,-4.524934 C 75.415487,52.133181 76,50.371799 76,45.436962 V 16.563038 C 76,11.628201 75.415487,9.866819 74.454676,8.070258 73.411415,6.119529 71.880471,4.5885853 69.929742,3.5453238 68.133181,2.5845126 66.371799,2 61.436962,2 Z"
   dd="M 61.436962,2 H 16.563038 C 11.628201,2 9.866819,2.5845126 8.070258,3.5453238 6.119529,4.5885853 4.5885853,6.119529 3.5453238,8.070258 2.5845126,9.866819 2,11.628201 2,16.563038 v 28.873924 c 0,4.934837 0.5845126,6.696219 1.5453238,8.49278 1.0432615,1.950729 2.5742052,3.481673 4.5249342,4.524934 C 9.866819,59.415487 11.628201,60 16.563038,60 h 44.873924 c 4.934837,0 6.696219,-0.584513 8.49278,-1.545324 1.950729,-1.043261 3.481673,-2.574205 4.524934,-4.524934 C 75.415487,52.133181 76,50.371799 76,45.436962 V 16.563038 C 76,11.628201 75.415487,9.866819 74.454676,8.070258 73.411415,6.119529 71.880471,4.5885853 69.929742,3.5453238 68.133181,2.5845126 66.371799,2 61.436962,2 Z"
   d=""
   style="stroke-width:3.77953" /><g
   transform="matrix(6.9141722,0,0,6.64126,-753.4165,417.87758)"
   id="g5399"
   style="display:none"><path
     style="opacity:1;fill:#ff4b4b;fill-opacity:1;fill-rule:evenodd;stroke:none;stroke-width:1px;stroke-linecap:butt;stroke-linejoin:miter;stroke-opacity:1"
     d="m 59.003717,22.52897 c 0,0 0.08922,14.156275 0.20393,17.74191 0.114707,3.585635 2.255699,9.952164 10.060541,9.78863 7.804842,-0.163534 10.473139,-6.871422 10.468401,-9.992564 -0.0047,-3.121142 0,-17.605948 0,-17.605948 z"
     id="path5358" /><path
     style="fill:#ffffff;fill-opacity:1;fill-rule:evenodd;stroke:none;stroke-width:0.7;stroke-linecap:butt;stroke-linejoin:miter;stroke-miterlimit:4;stroke-dasharray:none;stroke-opacity:1"
     d="m 62.734375,749.59766 c -4.676366,0.37074 -2.694223,13.18372 -2.363281,18.99023 2.333231,-0.7886 3.269667,-3.32691 4.664062,-5.28906 l -2.644531,6.15429 c 2.444618,-0.31672 3.280327,-1.12337 4.470703,-3.2207 1.578769,2.47541 -0.458395,5.69882 -1.203125,8.31446 1.28178,0.77691 2.703702,0.76953 4.039063,0.76953 1.335361,0 2.563923,0.007 3.845703,-0.76953 -0.74473,-2.61563 -2.781894,-5.83905 -1.203125,-8.31446 1.190376,2.09733 2.026085,2.90397 4.470703,3.2207 l -2.644531,-6.15429 c 1.394395,1.96215 2.330831,4.50045 4.664062,5.28906 0.341617,-5.99382 2.44371,-19.45312 -2.835937,-18.98633 1.218952,2.46005 -0.217825,4.06114 -2.308594,6.29688 -1.521046,-1.16167 -2.315883,-2.36486 -1.537109,-3.6543 l 2.210937,-0.76953 c 1.344271,-1.33038 0.833719,-1.28032 0.529297,-1.63281 -4.226208,-0.99605 -4.671722,1.52682 -5.28711,3.89258 -0.615388,-2.36576 -1.062854,-4.88863 -5.289062,-3.89258 -0.280389,0.47265 -0.814974,0.30243 0.529297,1.63281 l 2.210937,0.76953 c 0.778774,1.28944 -0.01606,2.49263 -1.537109,3.6543 -2.090769,-2.23574 -3.527546,-3.83682 -2.308594,-6.29688 -0.164989,-0.0146 -0.321805,-0.0159 -0.472656,-0.004 z"
     id="path5360"
     transform="translate(0,-726)" /><path
     style="fill:#ffc800;fill-opacity:1;fill-rule:evenodd;stroke:none;stroke-width:1px;stroke-linecap:butt;stroke-linejoin:miter;stroke-opacity:1"
     d="M 69.404297,735.24023 68.009786,744.43257 64,739.25 l 0.135973,5.16602 -3.671129,-3.43164 3.280666,7.5953 h 4.111328 3.194902 4.316816 l 3.246678,-7.39223 -3.858065,3.62053 0.322909,-5.35491 -3.805856,5.09956 z"
     transform="translate(0,-726)"
     id="path5378" /></g><g
   id="layer1-2"
   inkscape:label="Layer 1"
   transform="matrix(7.1461161,0,0,7.1461161,-473.87269,394.43428)" /><path
   style="display:inline;fill:#1cb0f6;fill-opacity:1;fill-rule:nonzero;stroke:#ffffff;stroke-width:28.5845"
   id="path183"
   d="M 439.03569,14.29225 H 118.36143 c -35.264926,0 -47.851956,4.17699 -60.690406,11.04306 C 43.730877,32.79058 32.790581,43.73088 25.335312,57.67102 18.469271,70.50945 14.29225,83.09649 14.29225,118.36141 v 206.33638 c 0,35.2649 4.177021,47.852 11.043062,60.69039 7.455269,13.9401 18.395565,24.8804 32.335712,32.3357 12.83845,6.8661 25.42548,11.0431 60.690406,11.0431 h 320.67426 c 35.26492,0 47.85199,-4.177 60.69041,-11.0431 13.94014,-7.4553 24.88044,-18.3956 32.33571,-32.3357 6.86608,-12.83839 11.04306,-25.42549 11.04306,-60.69039 V 118.36141 c 0,-35.26492 -4.17698,-47.85196 -11.04306,-60.69039 C 524.60654,43.73088 513.66624,32.79058 499.7261,25.33531 486.88768,18.46924 474.30061,14.29225 439.03569,14.29225 Z" /><g
   id="layer2"
   inkscape:label="Layer 2"
   transform="matrix(3.7795276,0,0,3.7795276,-955.01329,-62.2369)" /><g
   inkscape:groupmode="layer"
   id="layer3"
   inkscape:label="Layer 1"
   transform="translate(-14.158176,-617.05172)"><rect
     x="61.665199"
     y="680.86652"
     fill="#ffff33"
     width="343.50687"
     height="315.42969"
     id="rect2"
     style="fill:#ffc800;fill-opacity:1;stroke-width:0.877412" /><path
     vectornator:layerName="path"
     fill="#37abf8"
     d="m 43.658577,878.61501 c 0,-0.15311 0,-0.30539 0.07653,-0.53423 0.127036,-0.41615 0.221509,-0.75492 0.222324,-1.09533 0.10836,-29.2743 0.228018,-58.5486 0.304575,-87.8237 0.04075,-15.62539 -0.109901,-31.2516 0.04637,-46.87537 0.11401,-11.36783 -0.741086,-22.75686 0.581466,-34.10189 0.337963,-2.89347 0.530158,-5.84395 1.266344,-8.64214 1.684939,-6.40505 3.764037,-12.68957 7.578566,-18.22976 3.801501,-5.51982 7.050036,-11.4851 12.499828,-15.68484 3.349517,-2.58156 6.628998,-5.27388 10.129184,-7.63556 6.053236,-4.08491 12.700151,-6.7984 19.844661,-8.49556 6.071965,-1.44225 12.187905,-1.95531 18.369815,-2.05384 5.41152,-0.0863 10.82466,-0.0504 16.23698,-0.0115 10.69681,0.0782 21.39442,0.28341 32.09121,0.28504 102.30328,0.0228 204.60737,0.0163 306.90818,0.006 4.9351,0 9.87022,-0.084 14.7361,0.92921 3.27378,0.68163 6.65751,1.08556 9.77575,2.21102 4.50103,1.62385 8.93612,3.5523 13.15947,5.80078 3.16465,1.68494 5.97994,4.04336 8.89947,6.16971 1.89017,1.37465 3.86663,2.69882 5.49132,4.35608 2.09131,2.1361 3.89352,4.56049 5.77554,6.89855 4.78852,5.95145 8.03787,12.71645 10.80755,19.79988 2.82181,7.22187 3.55149,14.76052 3.55475,22.32116 0.0122,55.79194 -0.1466,111.58387 -0.2321,167.375 -0.003,3.11335 0.28747,6.2267 0.272,9.34086 -0.0245,5.1493 -0.22558,10.29858 -0.272,15.44787 -0.0514,5.76821 -0.0122,11.53805 -0.0122,17.30625 0,8.36444 -0.0277,16.72968 0.0154,25.0933 0.0154,3.31775 0.29318,6.6339 0.25653,9.95165 -0.0277,2.46103 -0.34285,4.92289 -0.58715,7.38067 -0.26549,2.67522 -0.351,5.40256 -0.95608,8.00774 -1.49926,6.45633 -3.91225,12.60156 -7.03375,18.4553 -2.78515,5.22914 -6.32768,9.91984 -10.48751,14.11874 -2.07013,2.0889 -4.22577,4.1354 -6.55977,5.9197 -3.16792,2.422 -6.35293,4.9408 -9.87428,6.7487 -4.4587,2.2885 -9.2293,3.9978 -13.92906,5.7903 -5.28609,2.0164 -10.90609,2.5538 -16.46418,2.5775 -18.12879,0.077 -36.25674,-0.1548 -54.38308,-0.2223 -3.57347,-0.012 -7.14287,0.2686 -10.71634,0.2655 -3.67445,0 -7.34485,-0.2509 -11.01849,-0.2591 -2.85926,-0.011 -5.72016,0.2778 -8.57535,0.2622 -5.5068,-0.03 -11.01278,-0.2507 -16.51957,-0.2622 -4.08002,-0.013 -8.16085,0.2558 -12.24003,0.2591 -3.67446,0.011 -7.34811,-0.2655 -11.01931,-0.2591 -4.18261,0 -8.36523,0.2655 -12.54705,0.2591 -4.69161,0 -9.3824,-0.238 -14.07401,-0.2591 -2.90894,-0.015 -5.81952,0.2811 -8.72928,0.2655 -11.71556,-0.061 -23.43034,-0.2687 -35.14511,-0.2752 -58.07381,-0.03 -116.14681,-0.011 -174.22061,-0.04 -2.10435,0 -4.2657,-0.1433 -6.3,-0.6343 -3.67201,-0.8894 -7.274804,-2.0743 -10.894691,-3.1712 -4.360155,-1.3218 -8.485766,-3.2183 -12.298665,-5.6746 -3.687491,-2.3722 -7.402669,-4.7975 -10.688668,-7.6747 -2.971645,-2.6051 -5.36753,-5.8602 -8.041121,-8.8107 -5.293429,-5.83577 -8.208891,-13.01847 -11.037214,-20.16305 -2.770496,-6.99624 -3.528674,-14.4722 -3.711906,-21.9677 -0.0652,-2.65078 0.24512,-5.31053 0.25653,-7.96458 0.0088,-2.0457 -0.268753,-4.08977 -0.270383,-6.13466 -0.02115,-22.39447 -0.01145,-44.78895 -0.0261,-67.18422 8.15e-4,-0.487 -0.18975,-0.97481 -0.291546,-1.46261 M 353.64346,735.5336 c -1.86656,-3.78846 -3.19805,-7.82044 -5.75845,-11.29373 -2.2835,-3.09706 -4.12072,-6.50522 -7.01583,-9.156 -2.25255,-2.062 -4.59958,-3.54253 -7.84242,-3.25505 -2.13854,0.18974 -4.3113,-0.0432 -6.46205,0.0578 -2.26152,0.10584 -4.51489,0.5546 -6.77152,0.55379 -4.91149,-0.001 -9.59983,1.09533 -14.2605,2.47081 -5.55728,1.64095 -10.76113,4.08734 -15.69136,7.07527 -1.99358,1.20853 -3.64675,2.96677 -5.53204,4.36993 -3.65084,2.71513 -6.39365,6.17376 -8.57699,10.12023 -0.18567,0.3347 -0.46825,0.61729 -0.63765,0.95852 -1.65399,3.33974 -3.2575,6.70962 -3.28111,10.54288 -0.01,1.5351 0.32901,3.07833 0.2549,4.60609 -0.12868,2.64347 1.27613,4.54502 3.05309,6.05324 4.10118,3.47983 8.71624,3.43585 13.33129,1.14176 2.75666,-1.37059 5.32193,-3.11905 8.02648,-4.6004 0.68081,-0.37298 1.56521,-0.37379 2.35598,-0.54481 -0.0546,0.49757 -0.14658,0.99598 -0.1588,1.49437 -0.10337,4.15331 -1.96101,7.83183 -3.30962,11.61541 -0.71909,2.01803 -2.1361,3.83082 -3.44154,5.58497 -2.00254,2.69315 -3.97415,5.47748 -7.29191,6.78456 -1.7061,0.67267 -3.4961,1.19957 -5.08576,2.08561 -2.95943,1.64828 -6.19657,1.47483 -9.36529,1.70367 -1.57175,0.11319 -3.17444,-0.12623 -4.75595,-0.27934 -1.54976,-0.15066 -3.12637,-0.2549 -4.62483,-0.63846 -1.5864,-0.40556 -3.071,-1.19388 -4.64355,-1.67028 -1.23297,-0.3738 -2.70129,-0.23046 -3.76974,-0.83718 -2.90488,-1.65074 -5.67375,-3.54659 -8.45402,-5.40825 -1.14501,-0.76714 -1.91459,-1.76556 -1.78999,-3.34138 0.20196,-2.54573 0.10669,-5.11753 0.36077,-7.65592 0.4023,-4.02463 0.97479,-8.033 1.5025,-12.04378 0.48864,-3.7111 1.18493,-7.40429 1.46507,-11.13005 0.1979,-2.63288 -0.10026,-5.30971 -0.26223,-7.96131 -0.12623,-2.0563 -2.00661,-4.84309 -4.45869,-5.50761 -1.63934,-0.44466 -3.26563,-0.95527 -4.85122,-1.55953 -0.29563,-0.1124 -0.62219,-0.89906 -0.50574,-1.21831 0.93653,-2.5612 1.91378,-5.11101 2.99853,-7.61194 1.4048,-3.23715 3.06856,-6.36759 4.34387,-9.65278 1.1613,-2.99038 -1.05869,-5.88548 -4.25918,-5.90421 -0.25408,-8.2e-4 -0.52038,0.0489 -0.76143,-0.008 -2.9008,-0.66941 -5.68759,-0.16938 -8.52406,0.55134 -1.87713,0.47642 -4.09304,1.09533 -5.7853,0.53178 -4.44649,-1.48134 -8.93613,-1.44144 -13.46649,-1.36081 -2.86089,0.0514 -4.85123,1.69553 -5.02551,3.95296 -0.17507,2.27537 0.28178,4.4522 1.1898,6.52885 1.52696,3.49039 3.08404,6.96859 4.63949,10.44678 1.08068,2.41544 0.18324,4.46114 -2.10514,4.69894 -2.20371,0.22965 -4.40822,0.52445 -6.61844,0.58961 -3.08402,0.0911 -5.92455,0.78098 -8.80418,1.99765 -5.87653,2.48221 -9.84171,9.47525 -8.1584,16.30051 0.7199,2.92035 2.12144,4.02301 5.13219,4.02301 3.51238,0 7.02641,-0.0693 10.53554,0.0269 2.00663,0.0553 4.01244,0.33144 6.00683,0.59611 2.57178,0.34205 4.589,2.49118 4.31211,5.16801 -0.15148,1.46018 -0.0367,2.94968 -0.0236,4.42613 0.007,0.89419 0.0667,1.78755 0.0748,2.68174 0.0261,2.82017 -0.16531,5.66234 0.13111,8.45401 0.18487,1.74032 -0.46663,4.71278 -2.25418,5.96855 -2.80144,1.96916 -6.06301,2.01802 -9.17555,2.54247 -3.0197,0.50898 -6.13387,0.44791 -9.20161,0.68977 -1.15723,0.0911 -2.30794,0.29807 -3.45213,0.50655 -1.69716,0.31027 -3.39105,0.97887 -5.07762,0.95119 -5.87165,-0.0978 -11.75794,0.52609 -17.62061,-0.5155 -3.71518,-0.66046 -7.21129,-1.86004 -10.25786,-3.97496 -3.02784,-2.10272 -5.83581,-4.55643 -8.16654,-7.46944 -3.9668,-4.95546 -6.1249,-10.55266 -5.82765,-16.96422 0.0333,-0.72316 0.46012,-1.4276 0.70444,-2.14099 0.42103,0.29562 0.83716,0.59694 1.26552,0.88034 0.0717,0.0473 0.22151,-0.0277 0.29481,0.0179 2.78515,1.75742 5.56705,3.52136 8.34815,5.28529 4.76897,3.02459 9.63566,5.58254 15.60991,5.13626 3.65002,-0.27281 7.9776,-3.45865 8.51265,-7.11601 0.36809,-2.51477 0.40719,-5.10693 0.29969,-7.65185 -0.0652,-1.53754 -0.52771,-3.11579 -1.09452,-4.56538 -2.28757,-5.85778 -5.96447,-10.78637 -10.31405,-15.28498 -2.37633,-2.4586 -5.18023,-4.24207 -8.09568,-5.92294 -1.60676,-0.92676 -3.07997,-2.16787 -4.78445,-2.8267 -4.08327,-1.58068 -8.19585,-3.18745 -12.43304,-4.23636 -3.43747,-0.8502 -7.06388,-1.12384 -10.62106,-1.24599 -3.16222,-0.10837 -6.36108,0.20359 -9.51189,0.5896 -2.46348,0.30214 -5.05074,0.13438 -7.33995,1.42434 -0.17916,0.10101 -0.51469,0.084 -0.70362,-0.0179 -1.08394,-0.58227 -2.03593,-0.13355 -2.79411,0.52201 -2.29817,1.98789 -4.68428,3.91633 -6.72103,6.15504 -2.42684,2.66952 -4.656597,5.54508 -6.735696,8.49799 -2.638574,3.74613 -5.154981,7.58915 -7.503636,11.52177 -1.762298,2.95047 -3.329154,6.04183 -4.705444,9.19183 -1.65644,3.78848 -2.926859,7.74551 -4.530363,11.55923 -2.735479,6.50603 -4.661475,13.17657 -4.014862,20.30315 0.296426,3.26645 1.171882,6.4311 4.474168,8.16003 1.548939,0.81193 3.078331,1.6605 4.624011,2.47895 1.759866,0.93246 2.008246,1.97486 0.96992,3.68016 -0.411262,0.6751 -0.855085,1.44715 -0.91128,2.20206 -0.201149,2.69884 -0.465826,5.42455 -0.285843,8.11198 0.206842,3.09869 2.135282,5.5019 4.318625,7.50446 1.217477,1.11731 3.005026,1.5872 4.411454,2.53351 0.857535,0.5774 2.01151,1.4561 2.090497,2.2892 0.146584,1.53429 -0.418597,3.13208 -0.653132,4.70872 -0.468256,3.14511 -1.059505,6.24298 -0.509797,9.49559 0.570071,3.37314 0.96423,6.67543 3.053912,9.60392 1.714256,2.40321 3.203745,4.87321 6.115126,6.07441 1.86003,0.76715 3.68911,1.05298 5.69003,0.80622 1.97649,-0.24349 3.98391,-0.28747 5.97832,-0.29155 0.4023,-8.1e-4 0.9691,0.48783 1.16862,0.8942 0.2655,0.5391 0.26305,1.21585 0.34204,1.83885 0.40149,3.14348 2.16135,5.47666 4.59959,7.2805 3.51077,2.59622 7.61438,3.47657 11.876,3.32916 2.58157,-0.0895 3.78196,1.2859 4.16878,3.2404 0.50492,2.54817 1.67355,4.71848 2.79413,6.95474 1.70693,3.40571 6.50521,5.01004 10.02494,3.63537 2.94477,-1.15071 5.23723,-3.19559 7.67954,-5.03364 1.81443,-1.3657 3.45213,-2.96921 5.13789,-4.50023 0.34935,-0.31842 0.4764,-0.90477 0.84776,-1.1727 3.17116,-2.29409 5.30646,-5.51739 7.63394,-8.54685 2.44149,-3.17769 4.68591,-6.50522 7.05167,-9.74237 0.60751,-0.83146 1.3209,-1.59046 2.05058,-2.31769 0.0969,-0.0962 0.83229,0.16857 0.84858,0.31271 0.35345,3.22819 0.78914,6.45717 0.91047,9.69594 0.10433,2.80063 -0.12622,5.61674 -0.29316,8.42145 -0.031,0.522 -0.37381,1.09613 -0.72888,1.51228 -1.02774,1.20609 -2.12633,2.35355 -3.21189,3.50996 -1.95857,2.08479 -3.74856,4.37806 -5.93922,6.1819 -2.67034,2.19881 -4.5833,4.71685 -5.01736,8.1527 -0.20522,1.62549 -0.98865,2.54003 -2.46105,2.95129 -2.64915,0.73946 -5.31542,1.41946 -7.96783,2.14832 -4.29419,1.17921 -8.64621,2.19473 -12.85652,3.62396 -3.46841,1.17759 -6.56221,1.03099 -9.66498,-0.93163 -2.92931,-1.8519 -5.94657,-3.56697 -8.94589,-5.30566 -4.67777,-2.70942 -9.39381,-5.35206 -14.05121,-8.09405 -2.31689,-1.36409 -4.32025,-2.45453 -6.89368,-0.0888 -1.951232,1.79408 -2.529441,4.17856 -0.86894,6.26987 2.14588,2.70127 5.34555,3.82186 8.03055,5.69898 1.8014,1.25985 3.92283,2.05629 5.86838,3.12149 0.38031,0.20849 0.60997,0.69386 0.90883,1.05055 -0.44627,0.15229 -0.90477,0.46013 -1.33638,0.42674 -1.75335,-0.13682 -3.49692,-0.53586 -5.2462,-0.54889 -3.06204,-0.022 -6.12898,0.11074 -9.186944,0.2891 -2.49362,0.14577 -4.878112,1.54405 -4.707089,5.21363 0.113203,2.42275 2.05792,4.19971 4.759203,4.24858 1.43573,0.0261 2.86659,0.23779 4.30234,0.28015 1.74683,0.0514 3.49691,0.0514 5.24294,8e-4 1.79162,-0.0514 3.57997,-0.22475 5.37161,-0.26711 0.36565,-0.009 0.73945,0.32819 1.10917,0.50572 -0.26305,0.23861 -0.49432,0.53342 -0.79483,0.70689 -4.06534,2.3454 -8.11442,4.72254 -12.22782,6.98081 -1.52613,0.83719 -2.6744,1.92274 -3.140226,3.56695 -0.518761,1.83315 0.386006,3.39676 1.443886,4.74536 1.33313,1.70041 4.28197,1.76719 6.43356,0.47966 3.33648,-1.99683 6.74546,-3.87315 10.09416,-5.85209 4.82923,-2.85274 9.65928,-5.7055 14.42989,-8.65353 1.85596,-1.14745 3.53927,-1.72403 5.39523,-0.0823 0.51875,0.4593 1.23214,0.69628 1.84617,1.05216 4.84471,2.80472 9.66093,5.66073 14.54555,8.39458 1.6719,0.93571 3.23875,2.30956 5.54994,1.03181 1.42598,-0.78913 2.80714,-1.49113 3.10277,-3.09381 0.39253,-2.1304 -0.0301,-4.27057 -2.00499,-5.50109 -3.46028,-2.15483 -7.05166,-4.09793 -10.57709,-6.14934 -0.49269,-0.28665 -0.92268,-0.68081 -1.3828,-1.0253 0.52771,-0.2663 1.02936,-0.62788 1.58802,-0.78424 5.20548,-1.45041 10.45983,-2.73874 15.61155,-4.35771 1.86981,-0.58717 3.38698,-0.52853 5.0483,0.35344 1.32581,0.70443 2.69395,1.59373 4.12562,1.78592 4.60774,0.62055 8.82538,-0.30214 12.34346,-3.68341 4.08409,-3.92691 8.28383,-7.73331 12.46075,-11.56167 1.04809,-0.96096 2.1931,-1.81524 3.30717,-2.7021 0.17428,-0.13925 0.41451,-0.19625 0.62462,-0.29154 0.0448,0.25409 0.12623,0.50735 0.12786,0.76144 0.011,1.84945 0.083,3.70377 -0.0138,5.54833 -0.12541,2.41463 -0.25815,4.84064 -0.62381,7.22594 -0.47885,3.12637 -0.99516,6.27393 -1.87305,9.30259 -0.52527,1.81198 -1.49438,3.66713 -2.75829,5.05237 -2.19473,2.40648 -5.33414,3.43911 -8.35385,4.43101 -3.8186,1.25413 -7.72677,2.23139 -11.57388,3.40327 -3.93669,1.19958 -7.75854,2.64427 -9.90198,6.54919 -1.81279,3.30392 -1.88119,6.84971 0.89256,9.12751 1.77371,1.4561 3.97008,2.11004 6.20634,2.29327 3.05065,0.25166 6.12492,0.37217 9.18452,0.31435 5.71282,-0.10669 11.23673,0.84125 16.56274,2.81122 2.80958,1.03833 5.4229,2.67603 5.86755,5.94574 0.53831,3.96437 0.65964,7.98656 0.97318,11.98269 0.23372,2.98388 0.69548,5.88793 2.42927,8.46298 2.05141,3.04495 5.02144,4.72175 8.35385,5.96448 2.27618,0.84858 4.47092,1.30951 6.86436,0.31108 5.17127,-2.15564 8.40678,-5.60045 8.60549,-11.27825 0.14741,-4.23312 0.22965,-8.46705 0.30783,-12.70098 0.0424,-2.32259 1.26228,-4.20787 2.52945,-5.91561 0.83066,-1.11894 2.33725,-1.82012 3.65654,-2.4757 3.91469,-1.94635 8.22355,-2.51478 12.47295,-3.01725 4.15738,-0.49108 8.37746,-0.43895 12.56578,-0.68325 3.04169,-0.17755 5.26086,-1.8071 5.99217,-4.4188 1.06112,-3.78684 0.11238,-7.31226 -2.37391,-10.32708 -1.78266,-2.16216 -4.35852,-2.50828 -6.99058,-3.04168 -5.10938,-1.03507 -10.12022,-2.55633 -15.16853,-3.88783 -3.54416,-0.93408 -6.12572,-3.15162 -7.10215,-6.60782 -0.96503,-3.41304 -1.51148,-6.98489 -1.85189,-10.52416 -0.35995,-3.75019 -0.27607,-7.54518 -0.33797,-11.32061 -0.004,-0.31841 0.27608,-0.79563 0.55216,-0.92269 0.29969,-0.13844 0.85265,-0.088 1.1108,0.11483 0.6686,0.52365 1.18737,1.23622 1.8527,1.76475 1.63608,1.30137 3.33405,2.52294 4.98234,3.80965 3.34952,2.61413 6.5378,5.46771 10.06078,7.82124 4.04255,2.69884 8.49392,3.58488 12.99985,0.89908 2.09456,-1.24845 4.24207,-1.54326 6.54756,-0.90396 0.95363,0.26385 1.87551,0.64661 2.83076,0.90151 4.63054,1.23784 9.26839,2.44964 13.90217,3.67608 0.21419,0.0562 0.41534,0.16206 0.62219,0.24512 -0.16287,0.22233 -0.27688,0.53016 -0.49433,0.65476 -3.62152,2.06282 -7.27317,4.07431 -10.88166,6.16074 -1.55383,0.89907 -2.76236,2.19555 -3.16383,3.99287 -0.35671,1.60106 0.57657,2.73223 1.58964,3.89433 1.48543,1.70612 3.23388,2.062 5.43187,1.03589 1.8804,-0.87708 3.72251,-1.84781 5.53124,-2.8666 4.37807,-2.46592 8.72683,-4.9864 13.08861,-7.48246 1.30951,-0.7484 2.55633,-1.12872 4.05885,-0.23698 4.11665,2.43986 8.3229,4.72825 12.46561,7.12577 4.31537,2.49768 8.58758,5.06948 12.89562,7.5802 3.53601,2.06035 6.82363,0.0863 8.01425,-2.78762 0.79238,-1.91132 -0.50411,-4.58492 -2.82669,-5.99867 -2.83077,-1.72322 -5.75356,-3.29739 -8.656,-4.9009 -1.19548,-0.66127 -2.46184,-1.19306 -3.65,-1.86655 -0.30133,-0.17182 -0.45118,-0.64743 -0.61242,-1.00982 -0.0472,-0.10583 0.1099,-0.43814 0.17021,-0.43733 1.7794,0.0236 3.55963,0.0448 5.3374,0.13357 2.18171,0.10914 4.36016,0.38275 6.53943,0.38519 1.34045,10e-4 2.67684,-0.4878 4.02382,-0.54562 2.32015,-0.10101 4.74535,-2.36087 4.67939,-4.52792 -0.0659,-2.17845 -2.38938,-4.79504 -4.64845,-4.71278 -4.72826,0.1702 -9.46547,0.0553 -14.19942,0.0448 -0.43732,-8e-4 -0.88605,-0.0514 -1.30625,-0.1653 -0.22967,-0.0619 -0.50573,-0.27282 -0.57821,-0.47968 -0.0432,-0.12459 0.22638,-0.43975 0.42266,-0.55376 3.81698,-2.20939 7.57449,-4.53525 11.49732,-6.5378 1.87143,-0.95608 2.95049,-2.17845 3.48391,-4.15167 0.61973,-2.29084 -0.73376,-5.01085 -2.9562,-5.83499 -2.1312,-0.79076 -3.83243,0.19218 -5.53366,1.1727 -3.70133,2.13527 -7.36193,4.33979 -11.06489,6.47101 -3.24203,1.86655 -6.52396,3.66631 -9.78064,5.50843 -1.77533,1.0033 -3.44398,2.27209 -5.32438,2.99282 -2.62716,1.00656 -5.20466,-0.0766 -7.7675,-0.79727 -6.02311,-1.69391 -12.05598,-3.36499 -18.11491,-4.92534 -3.51077,-0.90314 -3.79091,-1.18165 -4.11585,-4.76817 -0.084,-0.93244 -0.64011,-1.88526 -1.17841,-2.69719 -0.75737,-1.13768 -1.61326,-2.24035 -2.57994,-3.20456 -3.62233,-3.61175 -7.31715,-7.14858 -10.95251,-10.74647 -0.38194,-0.37788 -0.74352,-0.95527 -0.78424,-1.46669 -0.26548,-3.26972 -0.44138,-6.54677 -0.63928,-9.82299 -0.0245,-0.40555 0.0111,-0.81436 -0.005,-1.22155 -0.0977,-2.45208 -0.23209,-4.90334 -0.27119,-7.35625 -0.006,-0.39253 0.53179,-1.15885 0.60507,-1.1336 0.62951,0.21825 1.32744,0.46419 1.77127,0.92757 0.39172,0.408 0.3567,1.21016 0.72806,1.65644 2.87229,3.44806 5.78775,6.86109 8.70972,10.26843 2.60763,3.04007 5.23724,6.06058 7.86197,9.08597 0.78262,0.90152 1.55871,1.81198 2.38693,2.66953 0.29806,0.30945 0.81193,0.41369 1.10266,0.72641 1.11243,1.19388 2.04734,2.58563 3.28029,3.62804 3.19316,2.70127 6.69253,5.0312 10.90122,5.67781 2.01231,0.30946 4.27302,-0.0432 5.65337,-1.89423 1.33069,-1.78267 2.40241,-3.75997 3.56697,-5.66479 0.11727,-0.19056 0.0911,-0.46989 0.12541,-0.70932 0.408,-2.78352 0.81437,-5.56706 1.22319,-8.34977 0.10101,-0.68733 -0.0237,-1.66296 0.37543,-1.98707 0.53748,-0.43569 1.49925,-0.54726 2.25174,-0.48211 2.12959,0.18568 4.11502,1.49601 6.42541,0.33226 1.28019,-0.64498 3.01399,-0.39253 4.29094,-1.0424 1.94553,-0.99108 3.86908,-2.20939 5.42373,-3.72005 1.09451,-1.06438 1.79813,-2.70454 2.23708,-4.21602 0.42021,-1.44307 0.24676,-3.05391 0.38194,-4.58656 0.11971,-1.35837 1.08474,-2.54409 1.90563,-2.37062 2.8047,0.59367 5.60371,1.21421 8.40433,1.8258 2.23058,0.48783 6.4018,-1.27449 7.70969,-3.18012 1.73869,-2.53433 2.38938,-5.25515 1.84537,-8.31231 -0.43651,-2.43986 -0.52771,-4.94814 -1.0595,-7.36112 -0.61241,-2.76561 -1.56115,-5.4563 -2.32911,-8.18935 -0.85754,-3.0482 -0.77203,-3.21189 2.00009,-4.73151 0.12706,-0.07 0.21012,-0.22883 0.33798,-0.28748 2.85601,-1.28589 4.77059,-3.47167 5.89118,-6.33827 0.35995,-0.92268 0.56435,-1.95368 0.60752,-2.94558 0.0888,-2.15158 0.19218,-4.32677 -0.0333,-6.45799 -0.1409,-1.31604 -0.91292,-2.55714 -1.34371,-3.85199 -0.32902,-0.99842 -0.20442,-1.96671 0.63846,-2.6801 0.46093,-0.39008 1.07171,-0.59938 1.54812,-0.974 3.42933,-2.69964 5.61918,-6.0793 6.29184,-10.50705 0.48864,-3.21759 -0.71501,-6.43437 0.25328,-9.60635 0.0163,-0.0473 0.01,-0.10176 0.003,-0.15228 -0.40636,-2.93582 -0.72967,-5.88712 -1.24842,-8.8042 -0.43081,-2.42928 -0.27526,-5.01247 -1.77208,-7.20965 -0.24431,-0.35914 -0.0179,-1.03019 -0.0367,-1.55628 -0.0179,-0.49432 0.0496,-1.03262 -0.12134,-1.47645 -2.02373,-5.31786 -4.08491,-10.62351 -6.28941,-16.08552 M 287.98161,878.768 c -0.17754,-0.12703 -0.3567,-0.25489 -0.53423,-0.38193 -0.0749,0.17835 -0.15066,0.35669 -0.2256,0.53422 0.20198,0 0.40476,0 0.75983,-0.15229 z"
     id="path11"
     style="fill:#1cb0f6;fill-opacity:1;stroke-width:0.814374" /></g></svg>
