<?xml version="1.0" encoding="UTF-8" standalone="no"?>
<!-- Created with Inkscape (http://www.inkscape.org/) -->

<svg
   width="78mm"
   height="62mm"
   viewBox="0 0 78 62"
   version="1.1"
   id="svg5"
   inkscape:version="1.1.2 (0a00cf5339, 2022-02-04)"
   sodipodi:docname="flag32.svg"
   xmlns:inkscape="http://www.inkscape.org/namespaces/inkscape"
   xmlns:sodipodi="http://sodipodi.sourceforge.net/DTD/sodipodi-0.dtd"
   xmlns="http://www.w3.org/2000/svg"
   xmlns:svg="http://www.w3.org/2000/svg">
  <sodipodi:namedview
     id="namedview7"
     pagecolor="#ffffff"
     bordercolor="#666666"
     borderopacity="1.0"
     inkscape:pageshadow="2"
     inkscape:pageopacity="0.0"
     inkscape:pagecheckerboard="0"
     inkscape:document-units="mm"
     showgrid="false"
     fit-margin-top="0"
     fit-margin-left="0"
     fit-margin-right="0"
     fit-margin-bottom="0"
     inkscape:zoom="0.35355339"
     inkscape:cx="-63.63961"
     inkscape:cy="67.882251"
     inkscape:window-width="1366"
     inkscape:window-height="699"
     inkscape:window-x="0"
     inkscape:window-y="0"
     inkscape:window-maximized="1"
     inkscape:current-layer="layer1" />
  <defs
     id="defs2">
    <path
       d="m 12.563038,0 44.873924,0 c 4.368442,0 5.952545,0.45484549 7.549582,1.3089503 C 66.583581,2.163055 67.836945,3.416419 68.69105,5.013456 69.545154,6.6104931 70,8.1945956 70,12.563038 v 28.873924 c 0,4.368442 -0.454846,5.952545 -1.30895,7.549582 -0.854105,1.597037 -2.107469,2.850401 -3.704506,3.704506 C 63.389507,53.545155 61.805404,54 57.436962,54 H 12.563038 C 8.1945956,54 6.6104931,53.545155 5.013456,52.69105 3.416419,51.836945 2.163055,50.583581 1.3089503,48.986544 0.45484549,47.389507 0,45.805404 0,41.436962 L 0,12.563038 C 0,8.1945956 0.45484549,6.6104931 1.3089503,5.013456 2.163055,3.416419 3.416419,2.163055 5.013456,1.3089503 6.6104931,0.45484549 8.1945956,0 12.563038,0 Z"
       id="path-1" />
  </defs>
  <g
     inkscape:groupmode="layer"
     id="layer2"
     inkscape:label="Layer 2"
     transform="translate(-43.967789,-155.26397)" />
  <g
     inkscape:label="Layer 1"
     inkscape:groupmode="layer"
     id="layer1"
     transform="translate(-43.967789,-155.26397)">
    <path
       d="M 105.40475,157.26397 H 60.530826 c -4.934836,0 -6.696218,0.58451 -8.492779,1.54532 -1.950729,1.04327 -3.481673,2.57421 -4.524934,4.52494 -0.960811,1.79656 -1.545324,3.55794 -1.545324,8.49278 v 28.87392 c 0,4.93484 0.584513,6.69622 1.545324,8.49278 1.043261,1.95073 2.574205,3.48167 4.524934,4.52494 1.796561,0.96081 3.557943,1.54532 8.492779,1.54532 h 44.873924 c 4.93484,0 6.69622,-0.58451 8.49278,-1.54532 1.95073,-1.04327 3.48167,-2.57421 4.52494,-4.52494 0.96081,-1.79656 1.54532,-3.55794 1.54532,-8.49278 v -28.87392 c 0,-4.93484 -0.58451,-6.69622 -1.54532,-8.49278 -1.04327,-1.95073 -2.57421,-3.48167 -4.52494,-4.52494 -1.79656,-0.96081 -3.55794,-1.54532 -8.49278,-1.54532 z"
       id="path2800"
       stroke="#ffffff"
       stroke-width="4"
       fill="#eeeeee"
       style="fill:#eeeeeb;fill-opacity:1;fill-rule:evenodd" />
    <path
       d="m 117.98223,197.02612 v 4.96033 c 0,0.17611 -8.8e-4,0.34726 -0.003,0.51367 H 47.984898 c -0.0018,-0.16641 -0.0027,-0.33756 -0.0027,-0.51367 v -4.96033 z"
       id="path2961"
       fill="#1cb0f6"
       style="fill-rule:nonzero;stroke:none;stroke-width:0.955161" />
    <path
       d="m 116.89479,207.78799 c -0.10649,0.22627 -0.0551,0.12208 -0.22724,0.44388 -0.8541,1.59703 -2.08679,2.85143 -3.68383,3.70553 -1.59704,0.85411 -3.22248,1.32476 -7.59092,1.32445 l -44.873714,-0.003 c -4.368442,-3e-4 -5.951765,-0.53071 -7.549582,-1.38336 -1.600535,-0.8541 -2.891496,-2.05992 -3.70905,-3.65696 -0.166267,-0.32479 -0.04488,-0.0693 -0.217222,-0.42988 z"
       id="path2963"
       fill="#1cb0f6"
       style="fill-rule:nonzero;stroke:none;stroke-width:1"
       sodipodi:nodetypes="csssssscc" />
    <path
       d="m 117.98223,186.44272 v 4.96033 c 0,0.17611 -8.8e-4,0.34726 -0.003,0.51367 H 47.984898 c -0.0018,-0.16641 -0.0027,-0.33756 -0.0027,-0.51367 v -4.96033 z"
       id="path9047"
       fill="#1cb0f6"
       style="fill-rule:nonzero;stroke:none;stroke-width:0.955161" />
    <path
       d="m 117.98223,175.85932 v 4.96033 c 0,0.17611 -8.8e-4,0.34726 -0.003,0.51367 H 47.984898 c -0.0018,-0.16641 -0.0027,-0.33756 -0.0027,-0.51367 v -4.96033 z"
       id="path9049"
       fill="#1cb0f6"
       style="fill-rule:nonzero;stroke:none;stroke-width:0.955161" />
    <path
       d="m 116.9239,164.74675 c 0.65883,1.365 0.9921,3.03683 1.05833,4.96033 0.006,0.17601 -8.8e-4,0.34726 -0.003,0.51367 H 47.984898 c -0.0018,-0.16641 -0.0066,-0.3376 -0.0027,-0.51367 0.06673,-2.99975 0.547047,-3.88517 1.058333,-4.96033 z"
       id="path9051"
       fill="#1cb0f6"
       style="fill-rule:nonzero;stroke:none;stroke-width:0.955161"
       sodipodi:nodetypes="csccscc" />
    <g
       id="g34046"
       transform="translate(-0.03082388,-0.26458089)">
      <path
         style="fill:#ff4c4c;fill-opacity:1;stroke:none;stroke-width:0.264583px;stroke-linecap:butt;stroke-linejoin:miter;stroke-opacity:1"
         d="m 87.950843,165.77844 c 2.83841,5.7223 2.23149,10.07009 -2.11995,15.28994 -1.53677,1.48821 5.02297,6.01412 6.91698,8.37352 0.96744,1.06648 5.8971,3.34724 3.66797,-2.49244 -2.03792,-4.03994 -1.62297,-6.83481 0.12325,-8.19802 3.468007,-2.5483 4.008677,-4.2942 3.728137,-5.815 -2.983756,4.68018 -7.213572,2.27774 -2.045357,-1.63355 0.783157,-0.61173 6.165977,-0.26546 1.369827,6.59003 -4.395237,3.12511 -3.476565,6.00695 -2.019347,8.77371 0.552923,1.03479 0.93084,1.88602 0.64367,3.89969 3.811717,-1.07234 0.982827,-8.771 -2.42983,-11.96026 -3.1784,-4.69657 -4.49217,-8.78788 -0.95403,-11.88995 6.077607,-4.03715 10.164497,2.30335 9.546637,5.86296 -1.87275,1.84491 -3.97471,-3.51597 -6.418197,-5.39543 -3.01209,-0.29911 -5.20038,3.44405 -2.18825,8.41333 3.808267,5.66144 8.922647,9.94985 3.967247,16.33058 -3.521477,1.89569 -4.266077,0.38693 -5.686487,-0.39113 l -0.44214,0.0917 c 2.533091,10.21589 9.522227,8.49071 1.21461,18.04864 -2.70893,1.57054 -5.38778,0.82065 -7.26101,0.74464 -1.59352,-4.75307 6.258091,-1.38975 5.2182,-7.48172 -2.3218,-1.2967 -3.488363,-2.40918 -6.128067,-7.57447 -7.958131,-3.39767 -13.024754,12.86881 -15.441023,13.30552 -2.012876,0.003 0.35423,0.10744 -6.94311,-0.99756 -1.610009,-4.22086 2.342136,-2.59174 3.98384,-2.77887 5.867403,-8.17313 -0.665818,-13.17547 13.35408,-15.19772 1.95373,-0.80197 -1.91795,-1.73564 -4.65148,-5.0598 -0.79141,-1.2366 -8.48275,4.32051 -12.754,4.89537 -4.37064,0.0401 -2.39655,-5.40514 -0.66523,-4.84403 4.08141,3.15658 9.418521,-3.61113 8.811521,-4.77825 -8.104,-9.70515 -7.590581,-21.28673 -1.586861,-14.67878 -2.383078,5.81632 6.366187,12.47521 7.8713,9.0362 -1.18543,-5.16289 2.03533,-1.4013 1.85365,-4.38265 0.15687,-2.81922 -2.76251,0.70078 -2.78398,-3.16061 0.2,-1.85803 9.96935,-1.90096 10.24743,-0.94559 z"
         id="path11023"
         sodipodi:nodetypes="ccccccccccccccccccccccccccccccccccc" />
      <rect
         style="opacity:0.98;fill:#ffc800;fill-opacity:1;stroke:none;stroke-width:7.37294;stroke-linejoin:round;stroke-miterlimit:3.3;paint-order:stroke fill markers"
         id="rect28510"
         width="1.7528206"
         height="3.2748973"
         x="83.177826"
         y="162.39056"
         rx="1.7945875"
         ry="2.0722265" />
      <rect
         style="opacity:0.98;fill:#ffc800;fill-opacity:1;stroke:none;stroke-width:7.37294;stroke-linejoin:round;stroke-miterlimit:3.3;paint-order:stroke fill markers"
         id="rect28724"
         width="1.7528206"
         height="3.2748973"
         x="80.065796"
         y="162.55431"
         rx="1.7945875"
         ry="2.0722265" />
      <rect
         style="opacity:0.98;fill:#ffc800;fill-opacity:1;stroke:none;stroke-width:7.37294;stroke-linejoin:round;stroke-miterlimit:3.3;paint-order:stroke fill markers"
         id="rect28726"
         width="1.7528206"
         height="3.2748973"
         x="86.289856"
         y="162.55431"
         rx="1.7945875"
         ry="2.0722265" />
      <rect
         style="opacity:0.98;fill:#ffc800;fill-opacity:1;stroke:none;stroke-width:12.1369;stroke-linejoin:round;stroke-miterlimit:3.3;paint-order:stroke fill markers"
         id="rect28728"
         width="2.023998"
         height="7.6852503"
         x="164.2836"
         y="-87.896858"
         rx="2.0722265"
         ry="4.8629251"
         transform="rotate(90)" />
    </g>
  </g>
</svg>
