<?xml version="1.0" encoding="UTF-8" standalone="no"?>
<!-- Created with Inkscape (http://www.inkscape.org/) -->

<svg
   width="78mm"
   height="62mm"
   viewBox="0 0 78 62"
   version="1.1"
   id="svg12083"
   inkscape:version="1.1.2 (0a00cf5339, 2022-02-04)"
   sodipodi:docname="Flag28.svg"
   xmlns:inkscape="http://www.inkscape.org/namespaces/inkscape"
   xmlns:sodipodi="http://sodipodi.sourceforge.net/DTD/sodipodi-0.dtd"
   xmlns="http://www.w3.org/2000/svg"
   xmlns:svg="http://www.w3.org/2000/svg">
  <sodipodi:namedview
     id="namedview12085"
     pagecolor="#ffffff"
     bordercolor="#666666"
     borderopacity="1.0"
     inkscape:pageshadow="2"
     inkscape:pageopacity="0.0"
     inkscape:pagecheckerboard="0"
     inkscape:document-units="mm"
     showgrid="false"
     fit-margin-top="0"
     fit-margin-left="0"
     fit-margin-right="0"
     fit-margin-bottom="0"
     inkscape:zoom="1.6534231"
     inkscape:cx="158.76154"
     inkscape:cy="116.72753"
     inkscape:window-width="1366"
     inkscape:window-height="699"
     inkscape:window-x="0"
     inkscape:window-y="0"
     inkscape:window-maximized="1"
     inkscape:current-layer="layer1" />
  <defs
     id="defs12080">
    <path
       d="m 12.563038,0 44.873924,0 c 4.368442,0 5.952545,0.45484549 7.549582,1.3089503 C 66.583581,2.163055 67.836945,3.416419 68.69105,5.013456 69.545154,6.6104931 70,8.1945956 70,12.563038 v 28.873924 c 0,4.368442 -0.454846,5.952545 -1.30895,7.549582 -0.854105,1.597037 -2.107469,2.850401 -3.704506,3.704506 C 63.389507,53.545155 61.805404,54 57.436962,54 H 12.563038 C 8.1945956,54 6.6104931,53.545155 5.013456,52.69105 3.416419,51.836945 2.163055,50.583581 1.3089503,48.986544 0.45484549,47.389507 0,45.805404 0,41.436962 L 0,12.563038 C 0,8.1945956 0.45484549,6.6104931 1.3089503,5.013456 2.163055,3.416419 3.416419,2.163055 5.013456,1.3089503 6.6104931,0.45484549 8.1945956,0 12.563038,0 Z"
       id="path-1" />
    <filter
       id="filter0_d_191_434"
       x="15.9126"
       y="4.875"
       width="46.1748"
       height="41.4502"
       filterUnits="userSpaceOnUse"
       color-interpolation-filters="sRGB">
      <feFlood
         flood-opacity="0"
         result="BackgroundImageFix"
         id="feFlood987" />
      <feColorMatrix
         in="SourceAlpha"
         type="matrix"
         values="0 0 0 0 0 0 0 0 0 0 0 0 0 0 0 0 0 0 127 0"
         result="hardAlpha"
         id="feColorMatrix989" />
      <feOffset
         id="feOffset991" />
      <feGaussianBlur
         stdDeviation="8"
         id="feGaussianBlur993" />
      <feComposite
         in2="hardAlpha"
         operator="out"
         id="feComposite995" />
      <feColorMatrix
         type="matrix"
         values="0 0 0 0 0 0 0 0 0 0 0 0 0 0 0 0 0 0 0.25 0"
         id="feColorMatrix997" />
      <feBlend
         mode="normal"
         in2="BackgroundImageFix"
         result="effect1_dropShadow_191_434"
         id="feBlend999" />
      <feBlend
         mode="normal"
         in="SourceGraphic"
         in2="effect1_dropShadow_191_434"
         result="shape"
         id="feBlend1001" />
    </filter>
    <filter
       id="filter1_d_191_434"
       x="12.9126"
       y="15.3252"
       width="52.1748"
       height="47.4502"
       filterUnits="userSpaceOnUse"
       color-interpolation-filters="sRGB">
      <feFlood
         flood-opacity="0"
         result="BackgroundImageFix"
         id="feFlood1004" />
      <feColorMatrix
         in="SourceAlpha"
         type="matrix"
         values="0 0 0 0 0 0 0 0 0 0 0 0 0 0 0 0 0 0 127 0"
         result="hardAlpha"
         id="feColorMatrix1006" />
      <feOffset
         dy="4"
         id="feOffset1008" />
      <feGaussianBlur
         stdDeviation="9.5"
         id="feGaussianBlur1010" />
      <feComposite
         in2="hardAlpha"
         operator="out"
         id="feComposite1012" />
      <feColorMatrix
         type="matrix"
         values="0 0 0 0 0 0 0 0 0 0 0 0 0 0 0 0 0 0 0.25 0"
         id="feColorMatrix1014" />
      <feBlend
         mode="normal"
         in2="BackgroundImageFix"
         result="effect1_dropShadow_191_434"
         id="feBlend1016" />
      <feBlend
         mode="normal"
         in="SourceGraphic"
         in2="effect1_dropShadow_191_434"
         result="shape"
         id="feBlend1018" />
    </filter>
    <filter
       id="filter2_d_191_434"
       x="21.9126"
       y="1.75"
       width="36.1748"
       height="29.4248"
       filterUnits="userSpaceOnUse"
       color-interpolation-filters="sRGB">
      <feFlood
         flood-opacity="0"
         result="BackgroundImageFix"
         id="feFlood1021" />
      <feColorMatrix
         in="SourceAlpha"
         type="matrix"
         values="0 0 0 0 0 0 0 0 0 0 0 0 0 0 0 0 0 0 127 0"
         result="hardAlpha"
         id="feColorMatrix1023" />
      <feOffset
         dx="1"
         dy="2"
         id="feOffset1025" />
      <feGaussianBlur
         stdDeviation="5.5"
         id="feGaussianBlur1027" />
      <feComposite
         in2="hardAlpha"
         operator="out"
         id="feComposite1029" />
      <feColorMatrix
         type="matrix"
         values="0 0 0 0 0 0 0 0 0 0 0 0 0 0 0 0 0 0 0.25 0"
         id="feColorMatrix1031" />
      <feBlend
         mode="normal"
         in2="BackgroundImageFix"
         result="effect1_dropShadow_191_434"
         id="feBlend1033" />
      <feBlend
         mode="normal"
         in="SourceGraphic"
         in2="effect1_dropShadow_191_434"
         result="shape"
         id="feBlend1035" />
    </filter>
    <filter
       id="filter3_d_191_434"
       x="-13.1343"
       y="-10.3877"
       width="111.109"
       height="109.627"
       filterUnits="userSpaceOnUse"
       color-interpolation-filters="sRGB">
      <feFlood
         flood-opacity="0"
         result="BackgroundImageFix"
         id="feFlood1038" />
      <feColorMatrix
         in="SourceAlpha"
         type="matrix"
         values="0 0 0 0 0 0 0 0 0 0 0 0 0 0 0 0 0 0 127 0"
         result="hardAlpha"
         id="feColorMatrix1040" />
      <feOffset
         dy="4"
         id="feOffset1042" />
      <feGaussianBlur
         stdDeviation="21"
         id="feGaussianBlur1044" />
      <feComposite
         in2="hardAlpha"
         operator="out"
         id="feComposite1046" />
      <feColorMatrix
         type="matrix"
         values="0 0 0 0 0 0 0 0 0 0 0 0 0 0 0 0 0 0 0.25 0"
         id="feColorMatrix1048" />
      <feBlend
         mode="normal"
         in2="BackgroundImageFix"
         result="effect1_dropShadow_191_434"
         id="feBlend1050" />
      <feBlend
         mode="normal"
         in="SourceGraphic"
         in2="effect1_dropShadow_191_434"
         result="shape"
         id="feBlend1052" />
    </filter>
    <filter
       id="filter4_d_191_434"
       x="0.865723"
       y="3.6123"
       width="83.1094"
       height="81.627"
       filterUnits="userSpaceOnUse"
       color-interpolation-filters="sRGB">
      <feFlood
         flood-opacity="0"
         result="BackgroundImageFix"
         id="feFlood1055" />
      <feColorMatrix
         in="SourceAlpha"
         type="matrix"
         values="0 0 0 0 0 0 0 0 0 0 0 0 0 0 0 0 0 0 127 0"
         result="hardAlpha"
         id="feColorMatrix1057" />
      <feOffset
         dy="4"
         id="feOffset1059" />
      <feGaussianBlur
         stdDeviation="14"
         id="feGaussianBlur1061" />
      <feComposite
         in2="hardAlpha"
         operator="out"
         id="feComposite1063" />
      <feColorMatrix
         type="matrix"
         values="0 0 0 0 0 0 0 0 0 0 0 0 0 0 0 0 0 0 0.25 0"
         id="feColorMatrix1065" />
      <feBlend
         mode="normal"
         in2="BackgroundImageFix"
         result="effect1_dropShadow_191_434"
         id="feBlend1067" />
      <feBlend
         mode="normal"
         in="SourceGraphic"
         in2="effect1_dropShadow_191_434"
         result="shape"
         id="feBlend1069" />
    </filter>
    <clipPath
       id="clip0_191_434">
      <rect
         width="78"
         height="62"
         fill="white"
         id="rect1072" />
    </clipPath>
    <path
       d="M12.5630375,-1.41439589e-15 L57.4369625,-1.03967437e-15 C61.8054044,6.04080748e-16 63.3895069,0.454845494 64.986544,1.30895025 C66.583581,2.163055 67.836945,3.41641901 68.6910498,5.01345604 C69.5451545,6.61049308 70,8.19459564 70,12.5630375 L70,41.4369625 C70,45.8054044 69.5451545,47.3895069 68.6910498,48.986544 C67.836945,50.583581 66.583581,51.836945 64.986544,52.6910498 C63.3895069,53.5451545 61.8054044,54 57.4369625,54 L12.5630375,54 C8.19459564,54 6.61049308,53.5451545 5.01345604,52.6910498 C3.41641901,51.836945 2.163055,50.583581 1.30895025,48.986544 C0.454845494,47.3895069 -8.57188171e-16,45.8054044 1.47529378e-15,41.4369625 L1.24520864e-15,12.5630375 C-7.23502079e-16,8.19459564 0.454845494,6.61049308 1.30895025,5.01345604 C2.163055,3.41641901 3.41641901,2.163055 5.01345604,1.30895025 C6.61049308,0.454845494 8.19459564,8.21804743e-16 12.5630375,-1.41439589e-15 Z"
       id="path-1-5" />
  </defs>
  <g
     inkscape:label="Layer 1"
     inkscape:groupmode="layer"
     id="layer1"
     transform="translate(-53.6505,-117.07312)">
    <g
       inkscape:label="Layer 1"
       id="layer1-3"
       transform="translate(-73.332588,-26.846681)" />
    <g
       id="g919">
      <path
         d="M 115.08746,119.07312 H 70.213538 c -4.934837,0 -6.696219,0.58451 -8.49278,1.54532 -1.950729,1.04327 -3.481673,2.57421 -4.524934,4.52494 -0.960811,1.79656 -1.545324,3.55794 -1.545324,8.49278 v 28.87392 c 0,4.93484 0.584513,6.69622 1.545324,8.49278 1.043261,1.95073 2.574205,3.48167 4.524934,4.52494 1.796561,0.96081 3.557943,1.54532 8.49278,1.54532 h 44.873922 c 4.93484,0 6.69622,-0.58451 8.49278,-1.54532 1.95073,-1.04327 3.48168,-2.57421 4.52494,-4.52494 0.96081,-1.79656 1.54532,-3.55794 1.54532,-8.49278 v -28.87392 c 0,-4.93484 -0.58451,-6.69622 -1.54532,-8.49278 -1.04326,-1.95073 -2.57421,-3.48167 -4.52494,-4.52494 -1.79656,-0.96081 -3.55794,-1.54532 -8.49278,-1.54532 z"
         id="path2774"
         stroke="#ffffff"
         stroke-width="4"
         fill="#eeeeee"
         style="fill:#1cb0f6;fill-opacity:1;fill-rule:nonzero" />
      <path
         d="m 81.2755,121.07312 v 54 H 70.213538 c -4.368442,0 -5.952545,-0.45485 -7.549582,-1.30895 -1.597037,-0.85411 -2.850401,-2.10747 -3.704506,-3.70451 -0.854105,-1.59703 -1.30895,-3.18114 -1.30895,-7.54958 v -28.87392 c 0,-4.36844 0.454845,-5.95255 1.30895,-7.54958 0.854105,-1.59704 2.107469,-2.8504 3.704506,-3.70451 1.597037,-0.8541 3.18114,-1.30895 7.549582,-1.30895 z"
         id="path2776"
         fill="#1cb0f6"
         style="fill:#ff4b4b;fill-opacity:1;fill-rule:nonzero;stroke:none;stroke-width:1" />
      <path
         d="m 104.0255,121.07312 h 11.06196 c 4.36844,0 5.95255,0.45485 7.54958,1.30895 1.59704,0.85411 2.85041,2.10747 3.70451,3.70451 0.8541,1.59703 1.30895,3.18114 1.30895,7.54958 v 28.87392 c 0,4.36844 -0.45485,5.95255 -1.30895,7.54958 -0.8541,1.59704 -2.10747,2.8504 -3.70451,3.70451 -1.59703,0.8541 -3.18114,1.30895 -7.54958,1.30895 H 104.0255 Z"
         id="path2778"
         fill="#ff4b4b"
         style="fill-rule:nonzero;stroke:none;stroke-width:1" />
      <g
         id="g903">
        <path
           d="m 69.259557,133.8503 -1.723275,0.90599 c -0.525144,0.27608 -1.174669,0.0742 -1.450753,-0.45094 -0.109939,-0.20913 -0.147876,-0.44867 -0.107938,-0.68153 l 0.329116,-1.91887 c 0.02432,-0.14177 -0.02269,-0.28644 -0.125692,-0.38682 l -1.394158,-1.35898 c -0.42485,-0.41414 -0.433544,-1.09427 -0.01942,-1.51911 0.164907,-0.16918 0.380986,-0.27928 0.614783,-0.31323 l 1.92668,-0.27997 c 0.14235,-0.0205 0.265405,-0.11009 0.329066,-0.23911 l 0.861637,-1.74585 c 0.262571,-0.53205 0.906724,-0.75048 1.438752,-0.48791 0.211856,0.10459 0.383339,0.27604 0.487896,0.48791 l 0.861636,1.74585 c 0.06366,0.12902 0.186717,0.21839 0.329065,0.23911 l 1.926679,0.27997 c 0.58713,0.0853 0.993932,0.63043 0.908618,1.21755 -0.03396,0.23377 -0.14407,0.44989 -0.313249,0.61479 l -1.394158,1.35898 c -0.103006,0.10038 -0.15001,0.24505 -0.125693,0.38682 l 0.329119,1.91887 c 0.100292,0.58476 -0.292442,1.14011 -0.877199,1.24042 -0.232855,0.0398 -0.472381,0 -0.681496,-0.10795 L 69.6663,133.8503 c -0.12732,-0.0669 -0.279426,-0.0669 -0.406746,0 z"
           id="path3015"
           fill="#ffc300"
           style="fill-rule:nonzero;stroke:none;stroke-width:0.437041" />
        <g
           id="g891">
          <g
             id="g17249"
             transform="matrix(1.6572758,0,0,1.4905929,73.96084,14.814192)">
            <g
               id="g14890">
              <rect
                 style="opacity:0.98;fill:#ffc800;fill-opacity:1;stroke-width:4.41801;stroke-linecap:square;paint-order:markers fill stroke"
                 id="rect14408"
                 width="2.0712166"
                 height="14.506954"
                 x="-8.2475214"
                 y="88.000771"
                 ry="1.0356083" />
              <rect
                 style="opacity:0.98;fill:#ffc800;fill-opacity:1;stroke-width:4.41801;stroke-linecap:square;paint-order:markers fill stroke"
                 id="rect14598"
                 width="2.0712166"
                 height="14.506954"
                 x="0.74831229"
                 y="88.000771"
                 ry="1.0356083" />
            </g>
          </g>
          <rect
             style="opacity:0.98;fill:#ffc800;fill-opacity:1;stroke-width:4.06295;stroke-linecap:square;paint-order:markers fill stroke"
             id="rect17355"
             width="9.6907215"
             height="5.7900333"
             x="64.617638"
             y="145.03905"
             ry="2.1483011" />
          <rect
             style="opacity:0.98;fill:#ffc800;fill-opacity:1;stroke-width:3.89717;stroke-linecap:square;paint-order:markers fill stroke"
             id="rect17357"
             width="3.6929808"
             height="13.97904"
             x="67.616508"
             y="136.85004"
             ry="1.8464904" />
          <rect
             style="opacity:0.98;fill:#ffc800;fill-opacity:1;stroke-width:4.12805;stroke-linecap:square;paint-order:markers fill stroke"
             id="rect3330"
             width="9.6907215"
             height="5.9770646"
             x="64.617638"
             y="162.50342"
             ry="2.2176962" />
          <path
             style="opacity:0.98;fill:#ffc800;fill-opacity:1;stroke:none;stroke-width:15.4318;stroke-linecap:square;paint-order:markers fill stroke"
             id="path3892"
             sodipodi:type="arc"
             sodipodi:cx="69.462997"
             sodipodi:cy="156.7995"
             sodipodi:rx="4.9187093"
             sodipodi:ry="4.9187093"
             sodipodi:start="3.1543161"
             sodipodi:end="3.14353"
             sodipodi:open="true"
             sodipodi:arc-type="arc"
             d="m 64.544686,156.73692 a 4.9187093,4.9187093 0 0 1 4.96763,-4.85588 4.9187093,4.9187093 0 0 1 4.869259,4.95452 4.9187093,4.9187093 0 0 1 -4.94137,4.8826 4.9187093,4.9187093 0 0 1 -4.895908,-4.92819" />
        </g>
      </g>
    </g>
  </g>
</svg>
