<?xml version="1.0" encoding="UTF-8" standalone="no"?>
<!-- Created with Inkscape (http://www.inkscape.org/) -->

<svg
   width="120in"
   height="63in"
   viewBox="0 0 3048.0001 1600.2"
   version="1.1"
   id="svg5"
   inkscape:version="1.1.2 (0a00cf5339, 2022-02-04)"
   sodipodi:docname="social_image.svg"
   inkscape:export-filename="/home/richard/Dropbox/unofficial-duolingo-stories/packages/client/stories-app/public/social.png"
   inkscape:export-xdpi="256.95001"
   inkscape:export-ydpi="256.95001"
   xmlns:inkscape="http://www.inkscape.org/namespaces/inkscape"
   xmlns:sodipodi="http://sodipodi.sourceforge.net/DTD/sodipodi-0.dtd"
   xmlns="http://www.w3.org/2000/svg"
   xmlns:svg="http://www.w3.org/2000/svg">
  <sodipodi:namedview
     id="namedview7"
     pagecolor="#ffffff"
     bordercolor="#999999"
     borderopacity="1"
     inkscape:pageshadow="0"
     inkscape:pageopacity="0"
     inkscape:pagecheckerboard="0"
     inkscape:document-units="mm"
     showgrid="false"
     units="in"
     width="120in"
     inkscape:zoom="0.04"
     inkscape:cx="4325"
     inkscape:cy="6175"
     inkscape:window-width="1488"
     inkscape:window-height="991"
     inkscape:window-x="26"
     inkscape:window-y="23"
     inkscape:window-maximized="0"
     inkscape:current-layer="layer1" />
  <defs
     id="defs2" />
  <g
     inkscape:label="Layer 1"
     inkscape:groupmode="layer"
     id="layer1">
    <g
       id="g872"
       transform="matrix(102.03169,0,0,102.03169,-157435.68,-35423.308)">
      <path
         style="fill:#e7f6fd;stroke-width:0.0237605"
         d="m 1549.5124,354.67588 c -0.052,-0.0864 -0.107,-0.13883 -0.202,-0.19216 l -0.1307,-0.0734 -1.0811,-0.0119 c -0.7595,-0.008 -1.0952,-0.0201 -1.1286,-0.0395 -0.073,-0.0423 -0.1725,-0.15527 -0.1989,-0.22529 -0.015,-0.0398 -0.026,-0.84602 -0.029,-2.19837 -0.01,-2.34393 -0.014,-2.19868 0.1364,-2.34086 0.096,-0.0911 0.1757,-0.11437 0.3898,-0.11437 h 0.1885 v 1.02944 1.02944 l 0.055,0.0517 c 0.098,0.0919 0.173,0.0685 0.407,-0.12655 0.1822,-0.15187 0.2178,-0.17272 0.2495,-0.14605 0.02,0.0171 0.1148,0.0971 0.2098,0.17769 0.1892,0.16035 0.2657,0.18158 0.3651,0.10117 l 0.056,-0.0454 0.01,-1.03883 0.01,-1.03884 0.2336,0.0112 c 0.1961,0.009 0.2579,0.0227 0.3854,0.0829 0.083,0.0394 0.1998,0.11461 0.2584,0.16714 l 0.1067,0.0955 0.1072,-0.0954 c 0.059,-0.0525 0.1767,-0.12865 0.2616,-0.1693 l 0.1544,-0.0739 1.0693,-0.007 c 0.588,-0.004 1.1042,-8e-4 1.1469,0.007 0.043,0.008 0.1155,0.0475 0.1616,0.088 0.171,0.15015 0.1601,-0.0163 0.1546,2.35549 0,1.35235 -0.014,2.15856 -0.029,2.19837 -0.026,0.07 -0.1261,0.18294 -0.1989,0.22529 -0.033,0.0194 -0.3691,0.0312 -1.1286,0.0395 l -1.0811,0.0119 -0.1249,0.0692 c -0.1232,0.0683 -0.2233,0.17369 -0.266,0.28017 -0.014,0.0339 -0.022,-0.84345 -0.023,-2.3142 v -2.36879 l -0.056,-0.0655 c -0.073,-0.0847 -0.2048,-0.0905 -0.2828,-0.0125 l -0.053,0.0529 -0.012,2.37153 -0.012,2.37153 z"
         id="path886" />
      <path
         style="fill:#bae6fb;stroke-width:0.0237605"
         d="m 1549.6472,354.9034 -0.063,-0.0653 0.012,-2.39322 0.012,-2.39322 0.053,-0.0529 c 0.071,-0.0712 0.203,-0.0712 0.2743,0 l 0.053,0.0529 0.012,2.39322 0.012,2.39322 -0.064,0.0653 c -0.046,0.0478 -0.087,0.0653 -0.1503,0.0653 -0.063,0 -0.1039,-0.0176 -0.1503,-0.0653 z m -0.221,-0.33265 c -0.03,-0.0377 -0.029,-0.0385 0.01,-0.009 0.039,0.031 0.052,0.0505 0.033,0.0505 -0.01,0 -0.024,-0.0187 -0.042,-0.0416 z m 0.6921,0.0326 c 0,-0.005 0.019,-0.0236 0.042,-0.0416 0.038,-0.0296 0.038,-0.0287 0.01,0.009 -0.031,0.0396 -0.051,0.0522 -0.051,0.0326 z"
         id="path884" />
      <path
         style="fill:#96d9fa;stroke-width:0.0237605"
         d="m 1549.5671,355.78262 c 0.1347,-0.004 0.3485,-0.004 0.4752,5e-5 0.1267,0.004 0.017,0.008 -0.2448,0.008 -0.2614,-2e-5 -0.365,-0.004 -0.2304,-0.008 z m -1.9615,-1.37817 c 0.2712,-0.004 0.7149,-0.004 0.9861,0 0.2711,0.004 0.049,0.007 -0.4931,0.007 -0.5423,0 -0.7642,-0.003 -0.493,-0.007 z m 3.3978,0 c 0.2711,-0.004 0.7149,-0.004 0.986,0 0.2712,0.004 0.049,0.007 -0.493,0.007 -0.5423,0 -0.7642,-0.003 -0.493,-0.007 z m -4.2715,-2.28697 c 0,-1.052 0,-1.48236 0.01,-0.95636 0,0.52599 0,1.38672 0,1.91272 0,0.526 -0.01,0.0956 -0.01,-0.95636 z m 6.1302,0 c 0,-1.052 0,-1.48236 0.01,-0.95636 0,0.52599 0,1.38672 0,1.91272 0,0.526 -0.01,0.0956 -0.01,-0.95636 z"
         id="path882" />
      <path
         style="fill:#efa1a3;stroke-width:0.0237605"
         d="m 1548.4758,351.57692 c -0.03,-0.0377 -0.029,-0.0385 0.01,-0.009 0.023,0.0179 0.042,0.0367 0.042,0.0416 0,0.0196 -0.019,0.007 -0.05,-0.0326 z m 0.2406,0.0326 c 0,-0.005 0.019,-0.0236 0.042,-0.0416 0.038,-0.0295 0.039,-0.0287 0.01,0.009 -0.031,0.0396 -0.051,0.0522 -0.051,0.0326 z m -0.9267,-0.0475 c 0,-0.005 0.019,-0.0236 0.042,-0.0416 0.038,-0.0295 0.039,-0.0287 0.01,0.009 -0.031,0.0396 -0.051,0.0522 -0.051,0.0326 z m 0.5324,-0.11577 -0.045,-0.0535 0.053,0.0453 c 0.05,0.0425 0.064,0.0617 0.045,0.0617 0,0 -0.029,-0.0241 -0.053,-0.0535 z m 0.4765,-0.96824 c 0,-0.56847 0,-0.80103 0.01,-0.51679 0,0.28423 0,0.74935 0,1.03358 0,0.28424 -0.01,0.0517 -0.01,-0.51679 z m -0.8663,0.96521 c 0,-0.005 0.019,-0.0236 0.042,-0.0416 0.038,-0.0296 0.038,-0.0287 0.01,0.009 -0.031,0.0396 -0.051,0.0522 -0.051,0.0326 z m 0.2346,-0.12765 c -0.03,-0.0377 -0.029,-0.0385 0.01,-0.009 0.039,0.031 0.052,0.0505 0.033,0.0505 -0.01,0 -0.024,-0.0187 -0.042,-0.0416 z m -0.686,-1.91575 c 0,-0.005 0.019,-0.0236 0.042,-0.0416 0.038,-0.0296 0.039,-0.0287 0.01,0.009 -0.031,0.0396 -0.051,0.0522 -0.051,0.0326 z m 0.3623,-0.0801 c 0.1536,-0.004 0.4048,-0.004 0.5584,0 0.1535,0.004 0.028,0.008 -0.2792,0.008 -0.3071,0 -0.4327,-0.003 -0.2792,-0.008 z"
         id="path880" />
      <path
         style="fill:#45bdf6;stroke-width:0.0237605"
         d="m 1546.4072,355.35644 c 0.017,-0.007 0.038,-0.006 0.045,0.002 0.01,0.008 -0.01,0.0135 -0.031,0.0125 -0.028,-0.001 -0.033,-0.007 -0.014,-0.0143 z m 6.748,0 c 0.017,-0.007 0.038,-0.006 0.045,0.002 0.01,0.008 -0.01,0.0135 -0.031,0.0125 -0.028,-0.001 -0.033,-0.007 -0.014,-0.0143 z m -3.374,-0.38017 c 0.017,-0.007 0.038,-0.006 0.045,0.002 0.01,0.008 -0.01,0.0135 -0.031,0.0125 -0.028,-10e-4 -0.033,-0.007 -0.014,-0.0143 z m -3.8571,-2.24102 c 0,-1.18268 0,-1.6665 0.01,-1.07516 0,0.59134 0,1.55898 0,2.15032 0,0.59134 -0.01,0.10752 -0.01,-1.07516 z m 7.7459,0.0119 c 0,-1.17615 0,-1.65382 0.01,-1.06149 0,0.59232 0,1.55463 0,2.13845 0,0.58382 -0.01,0.0992 -0.01,-1.07696 z m -7.3816,-2.52297 c 0.017,-0.007 0.038,-0.006 0.045,0.002 0.01,0.008 -0.01,0.0135 -0.031,0.0125 -0.028,-10e-4 -0.033,-0.007 -0.014,-0.0144 z m 6.9856,0 c 0.017,-0.007 0.038,-0.006 0.045,0.002 0.01,0.008 -0.01,0.0135 -0.031,0.0125 -0.028,-10e-4 -0.033,-0.007 -0.014,-0.0144 z"
         id="path878" />
      <path
         style="fill:#1baff5;stroke-width:0.0237605"
         d="m 1549.1506,355.72686 c -0.107,-0.053 -0.1872,-0.15879 -0.2112,-0.27856 l -0.015,-0.0734 -1.2863,-0.007 c -1.2805,-0.007 -1.2868,-0.007 -1.3952,-0.0607 -0.126,-0.0621 -0.187,-0.12259 -0.2568,-0.25487 -0.05,-0.0943 -0.05,-0.10374 -0.05,-2.29977 0,-2.14979 0,-2.2074 0.047,-2.29719 0.087,-0.17066 0.2443,-0.23699 0.5643,-0.23807 l 0.1718,-5.9e-4 0.01,1.95805 0.01,1.95805 0.073,0.0913 c 0.04,0.0502 0.1197,0.11535 0.1773,0.14476 0.1036,0.053 0.114,0.0535 1.117,0.0535 1.1299,0 1.1575,0.003 1.3173,0.15848 0.048,0.0463 0.111,0.13915 0.1408,0.20638 0.069,0.15623 0.1114,0.18955 0.24,0.18955 0.1283,0 0.1682,-0.0315 0.2369,-0.18688 0.03,-0.0668 0.094,-0.16011 0.1422,-0.20733 0.1616,-0.15697 0.1876,-0.16014 1.3181,-0.16073 0.9326,-4.8e-4 1.0189,-0.004 1.1066,-0.0444 0.115,-0.0531 0.1874,-0.12831 0.2364,-0.24572 0.032,-0.077 0.037,-0.32815 0.037,-2.0015 v -1.91349 l 0.1723,5.9e-4 c 0.321,0.001 0.4777,0.0673 0.5652,0.23878 0.046,0.091 0.047,0.13604 0.041,2.32136 l -0.01,2.22857 -0.084,0.11712 c -0.054,0.0749 -0.1264,0.13885 -0.2013,0.17743 l -0.1171,0.0603 -1.287,0.007 -1.2869,0.007 -0.015,0.0734 c -0.024,0.12073 -0.1052,0.22687 -0.2131,0.27909 -0.094,0.0454 -0.1439,0.0492 -0.6465,0.0492 -0.5051,-2e-5 -0.5523,-0.004 -0.6454,-0.0497 z"
         id="path876" />
      <path
         style="fill:#f14747;stroke-width:0.0237605"
         d="m 1547.5275,351.59882 -0.059,-0.0474 -0.01,-1.04347 c -0.01,-1.02948 -0.01,-1.04432 0.043,-1.10698 l 0.05,-0.0635 h 0.5685 c 0.5378,0 0.5711,0.003 0.6163,0.0478 0.047,0.0466 0.048,0.0734 0.042,1.10825 l -0.01,1.06048 -0.063,0.0472 c -0.089,0.0667 -0.1434,0.0449 -0.3683,-0.14851 -0.1067,-0.0918 -0.2016,-0.16685 -0.2109,-0.16685 -0.01,0 -0.1061,0.075 -0.215,0.16673 -0.2233,0.18803 -0.3025,0.21769 -0.3908,0.14623 z"
         id="path874" />
    </g>
    <text
       xml:space="preserve"
       style="font-style:normal;font-weight:normal;font-size:309.604px;line-height:1.25;font-family:sans-serif;fill:#000000;fill-opacity:1;stroke:none;stroke-width:1.61252"
       x="1276.2661"
       y="701.27795"
       id="text2149"><tspan
         sodipodi:role="line"
         id="tspan2147"
         style="font-style:normal;font-variant:normal;font-weight:normal;font-stretch:normal;font-size:309.604px;font-family:Nunito;-inkscape-font-specification:Nunito;fill:#000000;fill-opacity:1;stroke-width:1.61252"
         x="1276.2661"
         y="701.27795">Duostories</tspan></text>
    <text
       xml:space="preserve"
       style="font-style:normal;font-weight:normal;font-size:204.777px;line-height:1.25;font-family:sans-serif;fill:#78c800;fill-opacity:1;stroke:none;stroke-width:1.06655"
       x="422.61246"
       y="1256.6654"
       id="text2149-3"><tspan
         sodipodi:role="line"
         id="tspan2147-6"
         style="font-style:normal;font-variant:normal;font-weight:normal;font-stretch:normal;font-size:204.777px;font-family:Nunito;-inkscape-font-specification:Nunito;fill:#000000;fill-opacity:1;stroke-width:1.06655"
         x="422.61246"
         y="1256.6654">stories for all languages</tspan></text>
  </g>
</svg>
