<svg xmlns="http://www.w3.org/2000/svg" xml:space="preserve" width="78" height="62"><ellipse cx="-80.15" cy="-10" rx="19.85" ry="20" style="display:inline;opacity:1;fill:#fff;fill-opacity:1;fill-rule:nonzero;stroke:none;stroke-width:6.00702;stroke-linecap:round;stroke-linejoin:round;stroke-miterlimit:4;stroke-dasharray:none;stroke-dashoffset:0;stroke-opacity:1"/><ellipse cx="-80.15" cy="-60" rx="19.85" ry="20" style="opacity:1;fill:#eee;fill-opacity:1;fill-rule:nonzero;stroke:none;stroke-width:6.00702;stroke-linecap:round;stroke-linejoin:round;stroke-miterlimit:4;stroke-dasharray:none;stroke-dashoffset:0;stroke-opacity:1"/><ellipse cx="-80.15" cy="-110" rx="19.85" ry="20" style="display:inline;opacity:1;fill:#4c4c4c;fill-opacity:1;fill-rule:nonzero;stroke:none;stroke-width:6.00702;stroke-linecap:round;stroke-linejoin:round;stroke-miterlimit:4;stroke-dasharray:none;stroke-dashoffset:0;stroke-opacity:1"/><ellipse cx="-30.15" cy="-60" rx="19.85" ry="20" style="display:inline;opacity:1;fill:#1cb0f6;fill-opacity:1;fill-rule:nonzero;stroke:none;stroke-width:6.00702;stroke-linecap:round;stroke-linejoin:round;stroke-miterlimit:4;stroke-dasharray:none;stroke-dashoffset:0;stroke-opacity:1"/><ellipse cx="-30.15" cy="-110" rx="19.85" ry="20" style="display:inline;opacity:1;fill:#1254a9;fill-opacity:1;fill-rule:nonzero;stroke:none;stroke-width:6.00702;stroke-linecap:round;stroke-linejoin:round;stroke-miterlimit:4;stroke-dasharray:none;stroke-dashoffset:0;stroke-opacity:1"/><ellipse cx="19.85" cy="-60" rx="19.85" ry="20" style="display:inline;opacity:1;fill:#ff4b4b;fill-opacity:1;fill-rule:nonzero;stroke:none;stroke-width:6.00702;stroke-linecap:round;stroke-linejoin:round;stroke-miterlimit:4;stroke-dasharray:none;stroke-dashoffset:0;stroke-opacity:1"/><ellipse cx="-30.15" cy="-160" rx="19.85" ry="20" style="display:inline;fill:#9069cd;fill-opacity:1;fill-rule:nonzero;stroke:none;stroke-width:6.00702;stroke-linecap:round;stroke-linejoin:round;stroke-miterlimit:4;stroke-dasharray:none;stroke-dashoffset:0;stroke-opacity:1"/><ellipse cx="19.85" cy="-110" rx="19.85" ry="20" style="display:inline;fill:#ffaade;fill-opacity:1;fill-rule:nonzero;stroke:none;stroke-width:6.00702;stroke-linecap:round;stroke-linejoin:round;stroke-miterlimit:4;stroke-dasharray:none;stroke-dashoffset:0;stroke-opacity:1"/><ellipse cx="69.85" cy="-60" rx="19.85" ry="20" style="display:inline;opacity:1;fill:#ffc800;fill-opacity:1;fill-rule:nonzero;stroke:none;stroke-width:6.00702;stroke-linecap:round;stroke-linejoin:round;stroke-miterlimit:4;stroke-dasharray:none;stroke-dashoffset:0;stroke-opacity:1"/><ellipse cx="69.85" cy="-110" rx="19.85" ry="20" style="display:inline;opacity:1;fill:#ff9600;fill-opacity:1;fill-rule:nonzero;stroke:none;stroke-width:6.00702;stroke-linecap:round;stroke-linejoin:round;stroke-miterlimit:4;stroke-dasharray:none;stroke-dashoffset:0;stroke-opacity:1"/><ellipse cx="69.85" cy="-160" rx="19.85" ry="20" style="display:inline;opacity:1;fill:#ffce8e;fill-opacity:1;fill-rule:nonzero;stroke:none;stroke-width:6.00702;stroke-linecap:round;stroke-linejoin:round;stroke-miterlimit:4;stroke-dasharray:none;stroke-dashoffset:0;stroke-opacity:1"/><ellipse cx="119.85" cy="-60" rx="19.85" ry="20" style="display:inline;opacity:1;fill:#78c800;fill-opacity:1;fill-rule:nonzero;stroke:none;stroke-width:6.00702;stroke-linecap:round;stroke-linejoin:round;stroke-miterlimit:4;stroke-dasharray:none;stroke-dashoffset:0;stroke-opacity:1"/><g style="fill:none;stroke:none;stroke-width:1"><path fill="#7ac70c" stroke="#fff" stroke-width="4" d="M57.437-2H12.563C7.628-2 5.867-1.415 4.07-.455A10.9 10.9 0 0 0-.455 4.07C-1.415 5.867-2 7.628-2 12.563v28.874c0 4.935.585 6.696 1.545 8.493a10.9 10.9 0 0 0 4.525 4.525C5.867 55.415 7.628 56 12.563 56h44.874c4.935 0 6.696-.585 8.493-1.545a10.9 10.9 0 0 0 4.525-4.525c.96-1.797 1.545-3.558 1.545-8.493V12.563c0-4.935-.585-6.696-1.545-8.493A10.9 10.9 0 0 0 65.93-.455C64.133-1.415 62.372-2 57.437-2Z" style="fill:#ff4b4b;fill-opacity:1" transform="translate(4 4)"/><path fill="#eee" d="M12.563 0H35v27a4 4 0 0 1-4 4H0V12.563c0-4.368.455-5.953 1.309-7.55A8.9 8.9 0 0 1 5.013 1.31C6.61.455 8.195 0 12.563 0" style="fill:#1cb0f6;fill-opacity:1" transform="translate(4 4)"/><g transform="translate(-103.113 -11.954)scale(.125)"><path d="M988.837 189.115q1.02-.219 2.046-.406c3.26-.59 8.64-.79 11.933-.44q.8.085 1.596.19c3.284.431 5.24-1.543 4.433-4.756-14.403-57.304-10.613-51.376-24.275 1.15-.834 3.206 1.029 4.96 4.267 4.262m-29.994 12.091a63.8 63.8 0 0 1 13.505-7.543c3.066-1.253 3.756-3.907 1.43-6.267-40.39-40.976-36.002-42.251-21.175 11.784.876 3.195 3.566 3.98 6.24 2.026m63.047-8.063a63.8 63.8 0 0 1 13.095 7.56c2.652 1.986 5.333 1.225 6.22-1.968 15.287-55.009 17.79-50.936-20.706-11.947-2.327 2.358-1.654 5.05 1.391 6.355m-83.058 34.043a63.8 63.8 0 0 1 7.537-13.502c1.953-2.675 1.17-5.386-2.02-6.281-56.172-15.749-51.017-17.516-11.775 21.21 2.357 2.327 5.006 1.64 6.258-1.427m108.961-13.674a63.8 63.8 0 0 1 7.56 13.095c1.305 3.044 4.009 3.727 6.374 1.406 40.753-39.994 40.866-35.209-11.961-20.698-3.195.877-3.958 3.545-1.973 6.197M930.016 239.39c-56.818 14.65-54.459 10.31.01 24.543 3.204.837 4.956-1.025 4.256-4.263a64 64 0 0 1-.409-2.057c-.592-3.26-.592-8.63.001-11.89q.187-1.027.408-2.048c.7-3.237-1.057-5.113-4.266-4.285m130.022 4.695q.105.796.19 1.596c.35 3.294.15 8.673-.443 11.932a64 64 0 0 1-.41 2.057c-.699 3.238 1.053 5.097 4.258 4.255 55.51-14.59 55.821-9.9 1.142-24.208-3.205-.839-5.169 1.084-4.737 4.368m-127.472 30.634c-40.962 40.381-42.265 36.006 11.775 21.175 3.194-.876 3.981-3.567 2.028-6.242a63.8 63.8 0 0 1-7.537-13.502c-1.252-3.067-3.906-3.757-6.266-1.431m122.268 1.43a63.8 63.8 0 0 1-7.543 13.504c-1.955 2.675-1.173 5.385 2.017 6.28 56.17 15.742 51.038 17.527 11.786-21.21-2.358-2.327-5.007-1.64-6.26 1.426m-102.27 27.999c-15.749 56.171-17.516 51.017 21.21 11.775 2.327-2.358 1.64-5.006-1.427-6.258a63.8 63.8 0 0 1-13.502-7.537c-2.676-1.953-5.387-1.171-6.281 2.02m82.249-2.02a63.8 63.8 0 0 1-13.503 7.537c-3.067 1.252-3.757 3.905-1.43 6.265 40.38 40.963 36.005 42.265 21.175-11.774-.877-3.195-3.567-3.981-6.242-2.028m-50.271 16.352c14.66 56.81 10.318 54.468 24.543-.008.837-3.205-1.026-4.956-4.264-4.257q-1.02.22-2.047.408c-3.26.593-8.631.594-11.89 0a64 64 0 0 1-2.058-.408c-3.237-.7-5.112 1.057-4.284 4.265" style="fill:#eee;fill-opacity:1"/><circle cx="996.905" cy="251.631" r="54" fill="#fff" style="fill:#eee;fill-opacity:1;stroke:#000;stroke-width:0;stroke-dasharray:none;stroke-opacity:.0588235"/></g></g></svg>