<svg xmlns="http://www.w3.org/2000/svg" width="78" height="62">
<rect x="4" y="4" width="70" height="54" fill="#eee"/>
<path d="M 16.56,2 C 11.63,2 9.87,2.58 8.07,3.55 Q 7.675,3.762 7.3,4 6.7,4.383 6.162,4.834 L 74,31 6.162,57.166 A 11,11 0 0 0 8.07,58.45 c 1.8,0.97 3.56,1.55 8.49,1.55 h 44.88 c 4.93,0 6.69,-0.58 8.49,-1.55 1.95,-1.04 3.48,-2.57 4.52,-4.52 C 75.42,52.13 76,50.37 76,45.44 V 16.56 C 76,11.63 75.42,9.87 74.45,8.07 A 10.83,10.83 0 0 0 69.93,3.55 C 68.13,2.58 66.37,2 61.44,2 Z" fill="#1cb0f6"/>
<path d="m 21.108,23.5 a 7.5,7.5 0 0 1 0,7.5 A 7.5,7.5 0 0 1 27.6,27.256 7.5,7.5 0 0 0 21.108,23.5 m 0,0 a 7.5,7.5 0 0 0 -6.492,3.756 7.5,7.5 0 0 1 6.492,3.744 7.5,7.5 0 0 1 0,-7.5 m 0,7.5 a 7.5,7.5 0 0 1 6.492,3.744 7.5,7.5 0 0 0 0,-7.488 A 7.5,7.5 0 0 1 21.108,31 m 0,0 a 7.5,7.5 0 0 1 0,7.5 A 7.5,7.5 0 0 0 27.6,34.744 7.5,7.5 0 0 1 21.108,31 m 0,0 a 7.5,7.5 0 0 1 -6.492,3.744 7.5,7.5 0 0 0 6.492,3.756 7.5,7.5 0 0 1 0,-7.5 m 0,0 a 7.5,7.5 0 0 1 -6.492,-3.744 7.5,7.5 0 0 0 0,7.488 A 7.5,7.5 0 0 1 21.108,31" style="fill:#1cb0f6;fill-opacity:1;stroke-width:0.12"/>
<path d="M 20.64672,16.0258 A 7.5,7.5 0 0 0 14.616,19.756 7.5,7.5 0 0 1 21.108,23.5 7.5,7.5 0 0 1 27.6,19.756 7.5,7.5 0 0 0 20.64672,16.0258 M 27.6,19.756 a 7.5,7.5 0 0 1 0,7.5 A 7.5,7.5 0 0 1 34.092,31 7.5,7.5 0 0 0 27.6,19.756 M 34.092,31 a 7.5,7.5 0 0 1 -6.492,3.744 7.5,7.5 0 0 1 0,7.5 A 7.5,7.5 0 0 0 34.092,31 M 27.6,42.244 a 7.5,7.5 0 0 1 -6.492,-3.744 7.5,7.5 0 0 1 -6.492,3.744 7.5,7.5 0 0 0 12.984,0 m -12.984,0 a 7.5,7.5 0 0 1 0,-7.5 A 7.5,7.5 0 0 1 8.124,31 7.5,7.5 0 0 0 14.616,42.244 M 8.124,31 a 7.5,7.5 0 0 1 6.492,-3.744 7.5,7.5 0 0 1 0,-7.5 A 7.5,7.5 0 0 0 8.124,31" style="fill:#78c800;fill-opacity:1;stroke-width:0.12"/>
<rect x="2" y="2" width="74" height="58" rx="10" fill="none" stroke="#fff" stroke-width="4"/>
</svg>