<svg xmlns="http://www.w3.org/2000/svg" width="78mm" height="62mm" viewBox="0 0 78 62"><g transform="translate(-53.65 -117.073)"><path fill="#eee" stroke="#fff" stroke-width="4" d="M115.087 119.073H70.214c-4.935 0-6.697.585-8.493 1.545a10.9 10.9 0 0 0-4.525 4.525c-.961 1.797-1.545 3.558-1.545 8.493v28.874c0 4.935.584 6.696 1.545 8.493a10.9 10.9 0 0 0 4.525 4.525c1.796.96 3.558 1.545 8.493 1.545h44.873c4.935 0 6.697-.584 8.493-1.545a10.9 10.9 0 0 0 4.525-4.525c.961-1.797 1.546-3.558 1.546-8.493v-28.874c0-4.935-.585-6.696-1.546-8.493a10.9 10.9 0 0 0-4.525-4.525c-1.796-.96-3.558-1.545-8.493-1.545z" style="fill-rule:nonzero;fill:#1cb0f6;fill-opacity:1"/><path fill="#1cb0f6" d="M81.276 121.073v54H70.214c-4.369 0-5.953-.455-7.55-1.309a8.9 8.9 0 0 1-3.705-3.704c-.854-1.597-1.309-3.181-1.309-7.55v-28.874c0-4.368.455-5.952 1.31-7.55a8.9 8.9 0 0 1 3.704-3.704c1.597-.854 3.181-1.309 7.55-1.309z" style="fill-rule:nonzero;stroke:none;stroke-width:1;fill:#ff4b4b;fill-opacity:1"/><path fill="#ff4b4b" d="M104.026 121.073h11.061c4.369 0 5.953.455 7.55 1.31a8.9 8.9 0 0 1 3.705 3.704c.854 1.597 1.308 3.18 1.308 7.55v28.873c0 4.369-.454 5.953-1.308 7.55a8.9 8.9 0 0 1-3.705 3.704c-1.597.854-3.181 1.31-7.55 1.31h-11.062Z" style="fill-rule:nonzero;stroke:none;stroke-width:1"/><g transform="translate(73.96 -1.063)scale(1.65728)"><rect width="2.071" height="14.507" x="-8.248" y="88.001" ry="1.036" style="opacity:.98;fill:#ffc800;fill-opacity:1;stroke-width:4.41801;stroke-linecap:square;paint-order:markers fill stroke"/><rect width="2.071" height="14.507" x=".748" y="88.001" ry="1.036" style="opacity:.98;fill:#ffc800;fill-opacity:1;stroke-width:4.41801;stroke-linecap:square;paint-order:markers fill stroke"/></g><path d="M-5.734 95.216a3.02 3.02 0 0 1 3.05-2.981 3.02 3.02 0 0 1 2.99 3.041 3.02 3.02 0 0 1-3.034 2.998 3.02 3.02 0 0 1-3.006-3.026" style="opacity:.98;fill:#ffc800;fill-opacity:1;stroke-width:16.698;stroke-linecap:square;paint-order:markers fill stroke" transform="translate(73.96 -1.063)scale(1.65728)"/><rect width="9.691" height="6.846" x="64.618" y="162.503" ry="1.036" style="opacity:.98;fill:#ffc800;fill-opacity:1;stroke-width:4.41801;stroke-linecap:square;paint-order:markers fill stroke"/><rect width="9.691" height="6.846" x="64.618" y="143.983" ry="1.036" style="opacity:.98;fill:#ffc800;fill-opacity:1;stroke-width:4.41801;stroke-linecap:square;paint-order:markers fill stroke"/><rect width="3.693" height="17.39" x="67.617" y="133.439" ry="1.559" style="opacity:.98;fill:#ffc800;fill-opacity:1;stroke-width:4.34669;stroke-linecap:square;paint-order:markers fill stroke"/><path d="m385.093 556.855-2.568-1.333-2.555 1.359.475-2.855-2.082-2.01 2.862-.43 1.268-2.6 1.293 2.588 2.866.402-2.062 2.03z" style="fill:#ffc800;fill-opacity:1;stroke:#ffc800;stroke-width:.978898;stroke-linejoin:round;stroke-miterlimit:4;stroke-dasharray:none;stroke-opacity:1" transform="translate(-302.35 -409.44)scale(.97204)"/></g></svg>