<svg xmlns="http://www.w3.org/2000/svg" width="78" height="62">
<rect x="2" y="2" width="74" height="58" rx="10" fill="#eeeeee"/>
<path fill="#1cb0f6" d="m 74,40 v 5.437 c 0,4.368 -0.455,5.953 -1.309,7.55 a 8.9,8.9 0 0 1 -3.704,3.704 C 67.39,57.545 65.805,58 61.437,58 H 16.563 C 12.195,58 10.61,57.545 9.013,56.691 A 8.9,8.9 0 0 1 5.309,52.987 C 4.455,51.39 4,49.805 4,45.437 V 40 Z" />
<path fill="#ff4b4b" d="m 16.563,4 h 44.874 c 4.368,0 5.953,0.455 7.55,1.309 a 8.9,8.9 0 0 1 3.704,3.704 C 73.545,10.61 74,12.195 74,16.563 V 22 H 4 V 16.563 C 4,12.195 4.455,10.61 5.309,9.013 A 8.9,8.9 0 0 1 9.013,5.31 C 10.61,4.455 12.195,4 16.563,4" />
<path style="fill:#1cb0f6;fill-opacity:1;fill-rule:nonzero;stroke:none;stroke-width:0.6266" d="M 25.137484 10.001973 A 0.6266 0.6266 0 0 0 24.496179 10.576099 L 24.14633 14.765507 C 24.090307 15.035993 24.13004 15.327505 24.279655 15.586646 L 26.855725 20.047872 C 27.179256 20.608244 27.890604 20.799284 28.450977 20.475753 L 31.983577 18.436084 C 32.54395 18.112553 32.734989 17.400688 32.411458 16.840316 L 29.835388 12.379089 C 29.686246 12.120767 29.45481 11.940579 29.193567 11.85354 L 29.19305 11.85354 L 25.388114 10.060885 L 25.387598 10.061401 A 0.6266 0.6266 0 0 0 25.137484 10.001973 z " />
<path style="fill:#1cb0f6;fill-opacity:1;fill-rule:nonzero;stroke:none;stroke-width:0.6266" d="M 39.031209 6.0089355 A 0.6266 0.6266 0 0 0 38.516512 6.2781698 L 36.118726 9.7317057 C 36.118401 9.7320699 36.118016 9.7323746 36.117692 9.7327393 C 35.934772 9.9387843 35.82417 10.210455 35.82417 10.508919 L 35.82417 15.66106 C 35.82417 16.308122 36.344995 16.828947 36.992057 16.828947 L 41.071395 16.828947 C 41.718457 16.828947 42.239282 16.308122 42.239282 15.66106 L 42.239282 10.508919 C 42.239282 10.211394 42.128686 9.940614 41.946794 9.7348063 C 41.946223 9.7341608 41.945815 9.7333835 41.945243 9.7327393 L 39.546423 6.2781698 L 39.545907 6.2781698 A 0.6266 0.6266 0 0 0 39.031209 6.0089355 z " />
<path style="fill:#1254a9;fill-opacity:1;fill-rule:nonzero;stroke:none;stroke-width:0.6266" d="M 31.813562 7.0559001 A 0.6266 0.6266 0 0 0 31.215666 7.4708618 L 29.792497 11.42876 C 29.669139 11.675126 29.632567 11.96574 29.709814 12.254032 L 31.043066 17.230473 C 31.210538 17.855487 31.848456 18.223734 32.47347 18.056262 L 36.413798 17.000513 C 37.038812 16.833041 37.407059 16.195123 37.239587 15.570109 L 35.906335 10.593669 C 35.829088 10.305377 35.651623 10.072006 35.421611 9.9203247 C 35.421289 9.9201127 35.420899 9.9200196 35.420577 9.9198079 L 32.210437 7.2042114 L 32.20992 7.2042114 A 0.6266 0.6266 0 0 0 31.813562 7.0559001 z " />
<path style="fill:#1cb0f6;fill-opacity:1;fill-rule:nonzero;stroke:none;stroke-width:0.6266" d="M 52.860856 9.8986206 A 0.6266 0.6266 0 0 0 52.610742 9.9580485 L 48.805806 11.750704 L 48.80529 11.750704 C 48.544041 11.837742 48.312613 12.01741 48.163468 12.275736 L 45.587398 16.73748 C 45.263867 17.297852 45.45439 18.009717 46.014762 18.333248 L 49.54788 20.372917 C 50.108252 20.696448 50.8196 20.505408 51.143132 19.945036 L 53.719202 15.483293 C 53.868817 15.224152 53.90855 14.93264 53.852527 14.662154 L 53.502677 10.473263 L 53.502161 10.472746 A 0.6266 0.6266 0 0 0 52.860856 9.8986206 z " />
<path style="fill:#1254a9;fill-opacity:1;fill-rule:nonzero;stroke:none;stroke-width:0.6266" d="M 46.183744 6.9535807 A 0.6266 0.6266 0 0 0 45.787903 7.1018921 L 42.577763 9.8169718 C 42.577441 9.8171835 42.577051 9.8172766 42.576729 9.8174886 C 42.346721 9.9691699 42.169251 10.203061 42.092004 10.491349 L 40.758752 15.46779 C 40.59128 16.092804 40.959528 16.730721 41.584542 16.898193 L 45.52487 17.953943 C 46.149884 18.121415 46.787801 17.753168 46.955273 17.128153 L 48.288525 12.151713 C 48.365773 11.863421 48.3292 11.57229 48.205843 11.325924 L 48.205326 11.32489 L 46.782674 7.3680257 L 46.782157 7.3680257 A 0.6266 0.6266 0 0 0 46.183744 6.9535807 z " />
<path d="m 30.707,21.481 h 16.218 c 1.92,0 3.475,1.427 3.475,3.187 v 12.701 c 0,5.868 -5.186,11.154 -11.584,11.154 -6.398,0 -11.584,-5.286 -11.584,-11.154 V 24.668 c 0,-1.76 1.556,-3.187 3.475,-3.187 z" style="fill:#fffffb;fill-opacity:1;fill-rule:evenodd;stroke:#ff4b4b;stroke-width:1.63018;stroke-miterlimit:4;stroke-dasharray:none;stroke-opacity:1" />
<rect width="4.664" height="5.2940001" x="36.428001" y="22.126999" rx="0.537" ry="0.493" style="opacity:0.98;fill:#ff4b4b;fill-opacity:1;stroke:none;stroke-width:1.6922;stroke-linejoin:round;stroke-miterlimit:4;stroke-dasharray:none;stroke-opacity:1;paint-order:stroke fill markers" />
<rect width="4.664" height="5.2940001" x="45.928001" y="22.237" rx="0.537" ry="0.493" style="opacity:0.98;fill:#ff4b4b;fill-opacity:1;stroke:none;stroke-width:1.6922;stroke-linejoin:round;stroke-miterlimit:4;stroke-dasharray:none;stroke-opacity:1;paint-order:stroke fill markers" />
<rect width="4.664" height="5.2940001" x="27.143" y="22.105003" rx="0.537" ry="0.493" style="opacity:0.98;fill:#ff4b4b;fill-opacity:1;stroke:none;stroke-width:1.6922;stroke-linejoin:round;stroke-miterlimit:4;stroke-dasharray:none;stroke-opacity:1;paint-order:stroke fill markers" />
<rect width="4.6644311" height="5.2932949" x="41.259876" y="27.399012" rx="0.53698868" ry="0.49249578" style="opacity:0.98;fill:#ff4b4b;fill-opacity:1;stroke:none;stroke-width:1.69221;stroke-linejoin:round;stroke-miterlimit:4;stroke-dasharray:none;stroke-opacity:1;paint-order:stroke fill markers" />
<rect width="4.6644311" height="5.2932949" x="31.70841" y="27.399012" rx="0.53698868" ry="0.49249578" style="opacity:0.98;fill:#ff4b4b;fill-opacity:1;stroke:none;stroke-width:1.69221;stroke-linejoin:round;stroke-miterlimit:4;stroke-dasharray:none;stroke-opacity:1;paint-order:stroke fill markers" />
<rect width="4.6644311" height="5.2932949" x="36.484154" y="32.561192" rx="0.53698868" ry="0.49249578" style="opacity:0.98;fill:#ff4b4b;fill-opacity:1;stroke:none;stroke-width:1.69221;stroke-linejoin:round;stroke-miterlimit:4;stroke-dasharray:none;stroke-opacity:1;paint-order:stroke fill markers" />
<rect width="4.6644311" height="5.2932949" x="46.035622" y="32.561192" rx="0.53698868" ry="0.49249578" style="opacity:0.98;fill:#ff4b4b;fill-opacity:1;stroke:none;stroke-width:1.69221;stroke-linejoin:round;stroke-miterlimit:4;stroke-dasharray:none;stroke-opacity:1;paint-order:stroke fill markers" />
<rect width="4.6644311" height="5.2932949" x="26.932665" y="32.561192" rx="0.53698868" ry="0.49249578" style="opacity:0.98;fill:#ff4b4b;fill-opacity:1;stroke:none;stroke-width:1.69221;stroke-linejoin:round;stroke-miterlimit:4;stroke-dasharray:none;stroke-opacity:1;paint-order:stroke fill markers" />
<rect width="4.6644311" height="5.2932949" x="41.259876" y="37.671013" rx="0.53698868" ry="0.49249578" style="opacity:0.98;fill:#ff4b4b;fill-opacity:1;stroke:none;stroke-width:1.69221;stroke-linejoin:round;stroke-miterlimit:4;stroke-dasharray:none;stroke-opacity:1;paint-order:stroke fill markers" />
<rect width="4.6644311" height="5.2932949" x="31.70841" y="37.671013" rx="0.53698868" ry="0.49249578" style="opacity:0.98;fill:#ff4b4b;fill-opacity:1;stroke:none;stroke-width:1.69221;stroke-linejoin:round;stroke-miterlimit:4;stroke-dasharray:none;stroke-opacity:1;paint-order:stroke fill markers" />
<rect width="4.664" height="5.2940001" x="36.484001" y="42.780006" rx="0.537" ry="0.493" style="opacity:0.98;fill:#ff4b4b;fill-opacity:1;stroke:none;stroke-width:1.6922;stroke-linejoin:round;stroke-miterlimit:4;stroke-dasharray:none;stroke-opacity:1;paint-order:stroke fill markers" />
<path d="m 28.261,42.907 c 4.405,0 3.633,-0.563 3.633,3.736 m 0,0 -3.462,-1.897 m 17.63,1.703 c 0,-4.406 -0.563,-3.633 3.736,-3.633 m 0,0 -1.897,3.461" style="fill:#ff4b4b;fill-opacity:1;stroke:none;stroke-width:0.228164px;stroke-linecap:butt;stroke-linejoin:miter;stroke-opacity:1" />
<rect x="2" y="2" width="74" height="58" rx="10" fill="none" stroke="#fff" stroke-width="4"/>
</svg>
