<svg xmlns="http://www.w3.org/2000/svg" width="78" height="62"><g style="fill:none;fill-rule:evenodd;stroke:none;stroke-width:1"><path d="M57.437-2H12.563C7.628-2 5.867-1.415 4.07-.455A10.9 10.9 0 0 0-.455 4.07C-1.415 5.867-2 7.628-2 12.563v28.874c0 4.935.585 6.696 1.545 8.493a10.9 10.9 0 0 0 4.525 4.525C5.867 55.415 7.628 56 12.563 56h44.874c4.935 0 6.696-.585 8.493-1.545a10.9 10.9 0 0 0 4.525-4.525c.96-1.797 1.545-3.558 1.545-8.493V12.563c0-4.935-.585-6.696-1.545-8.493A10.9 10.9 0 0 0 65.93-.455C64.133-1.415 62.372-2 57.437-2Z" style="fill:#1cb0f6;fill-opacity:1;fill-rule:nonzero;stroke:#fff;stroke-width:4" transform="translate(4 4)"/><path d="M70 34H29v20H15V34H0V20h15V0h14v20h41z" style="fill:#fff;fill-rule:nonzero" transform="translate(4 4)"/><path d="M26 54h-8V31H0v-8h18V0h8v23h44v8H26z" style="fill:#ff4b4b;fill-opacity:1" transform="translate(4 4)"/></g></svg>