<svg xmlns="http://www.w3.org/2000/svg" width="78" height="62">
<rect x="2" y="2" width="74" height="58" rx="10" fill="#ff4b4b"/>
<path d="M42 28c0-8 4-10 4-10s-6 0-6-4c0 4-6 4-6 4s4 2 4 10m0 0c-8 0-10-4-10-4s0 6-4 6c4 0 4 6 4 6s2-4 10-4m0 0c0 8-4 10-4 10s6 0 6 4c0-4 6-4 6-4s-4-2-4-10m0 0c8 0 10 4 10 4s0-6 4-6c-4 0-4-6-4-6s-2 4-10 4" fill="none" stroke="#ffc800" stroke-width="2" stroke-linecap="round" stroke-linejoin="round"/>
<rect x="2" y="2" width="74" height="58" rx="10" fill="none" stroke="#fff" stroke-width="4"/>
</svg>
