<svg xmlns="http://www.w3.org/2000/svg" width="78mm" height="62mm" viewBox="0 0 78 62"><g fill="none"><path fill="#eee" stroke="#fff" stroke-width="4" d="M16.563 60h44.874c4.935 0 6.696-.585 8.493-1.545a10.9 10.9 0 0 0 4.525-4.525c.96-1.797 1.545-3.558 1.545-8.493V16.563c0-4.935-.585-6.696-1.545-8.493a10.9 10.9 0 0 0-4.525-4.525C68.133 2.585 66.372 2 61.437 2H16.563c-4.935 0-6.696.585-8.493 1.545A10.9 10.9 0 0 0 3.545 8.07C2.585 9.867 2 11.628 2 16.563v28.874c0 4.935.585 6.696 1.545 8.493a10.9 10.9 0 0 0 4.525 4.525c1.797.96 3.558 1.545 8.493 1.545Z"/><path fill="#7ac70c" d="M4 22v-5.437c0-4.368.455-5.953 1.309-7.55A8.9 8.9 0 0 1 9.013 5.31C10.61 4.455 12.195 4 16.563 4h44.874c4.368 0 5.953.455 7.55 1.309a8.9 8.9 0 0 1 3.704 3.704C73.545 10.61 74 12.195 74 16.563V22Z"/><path fill="#ff4b4b" d="M61.437 58H16.563c-4.368 0-5.953-.455-7.55-1.309a8.9 8.9 0 0 1-3.704-3.704C4.455 51.39 4 49.805 4 45.437V40h70v5.437c0 4.368-.455 5.953-1.309 7.55a8.9 8.9 0 0 1-3.704 3.704C67.39 57.545 65.805 58 61.437 58"/></g><g transform="translate(-135.176 -220.625)scale(1.61423)"><path d="M104.224 155.56a3.693 3.693 0 0 1 3.73-3.646 3.693 3.693 0 0 1 3.655 3.72 3.693 3.693 0 0 1-3.71 3.666 3.693 3.693 0 0 1-3.676-3.7" style="opacity:.98;fill:#ff4b4b;fill-opacity:1;stroke-width:49.0243;stroke-linecap:square;paint-order:markers fill stroke"/><path d="M105.27 154.783a2.646 3.453 0 0 1 2.673-3.41 2.646 3.453 0 0 1 2.62 3.479 2.646 3.453 0 0 1-2.659 3.428 2.646 3.453 0 0 1-2.634-3.46" style="opacity:.98;fill:#eeeeeb;fill-opacity:1;stroke-width:49.0243;stroke-linecap:square;paint-order:markers fill stroke"/><rect width="1.378" height="8.884" x="107.228" y="151.424" ry=".548" style="opacity:.98;fill:#ff4b4b;fill-opacity:1;stroke-width:12.5791;stroke-linecap:square;paint-order:markers fill stroke"/><path d="M111.33 152.726c2.83 2.627 2.864 5.793 0 7.66.938-3.104.882-4.477 0-7.66zm-6.86 7.659c-2.83-2.627-2.864-5.792 0-7.66-.938 3.104-.881 4.477 0 7.66z" style="fill:#ff4b4b;fill-opacity:1;stroke:#000;stroke-width:0;stroke-linecap:butt;stroke-linejoin:miter;stroke-miterlimit:4;stroke-dasharray:none;stroke-opacity:1"/></g></svg>