<svg xmlns="http://www.w3.org/2000/svg" width="78" height="62" viewBox="0 0 78 62">
  <path
    fill="#ff4b4b"
    stroke="#fff"
    stroke-width="4"
    d="M61.437 2H16.563c-4.935 0-6.696.585-8.493 1.545A10.9 10.9 0 0 0 3.545 8.07C2.585 9.867 2 11.628 2 16.563v28.874c0 4.935.585 6.696 1.545 8.493a10.9 10.9 0 0 0 4.525 4.525C9.867 59.415 11.628 60 16.563 60h44.874c4.935 0 6.696-.585 8.493-1.545a10.9 10.9 0 0 0 4.525-4.525C75.415 52.133 76 50.372 76 45.437V16.563c0-4.935-.585-6.696-1.545-8.493A10.9 10.9 0 0 0 69.93 3.545C68.133 2.585 66.372 2 61.437 2Z"
  />
  <path fill="#ffc300" d="M4 4h35v54H16.563c-4.368 0-5.953-.455-7.55-1.309A8.9 8.9 0 0 1 5.31 52.987C4.455 51.39 4 49.805 4 45.437z"/>
  <path
    fill="#ffc300"
    stroke="#ff4b4b"
    stroke-linejoin="round"
    stroke-width="1.8"
    d="M30 23c2-2.6 5.4-4.2 9-4.2s7 1.6 9 4.2v8.4c0 6.1-4.9 11-11 11s-11-4.9-11-11Z"
  />
  <path
    fill="#ff4b4b"
    stroke="#ffc300"
    stroke-linejoin="round"
    stroke-width="1.8"
    d="M31 22h4v-3.5a2 2 0 0 1 4 0V22h2.5v-3.5a2 2 0 0 1 4 0V22h4v7.5H31Z"
  />
  <g fill="none" stroke="#7ac70c" stroke-linecap="round" stroke-width="2.2">
    <path d="M22 28c6 1 11 3.6 14 8"/>
    <path d="M25 23c-3-2-4.3-5.1-3-8 3.4.8 5.1 4 4.3 7.1"/>
    <path d="M21 31c3.8-.4 6.6 1.3 8 4.5-3.6 1.2-6.9 0-8-4.5"/>
    <path d="M56 28c-6 1-11 3.6-14 8"/>
    <path d="M53 23c3-2 4.3-5.1 3-8-3.4.8-5.1 4-4.3 7.1"/>
    <path d="M57 31c-3.8-.4-6.6 1.3-8 4.5 3.6 1.2 6.9 0 8-4.5"/>
  </g>
</svg>
