<svg xmlns="http://www.w3.org/2000/svg" width="78" height="62">
<rect x="4" y="4" width="70" height="54" fill="#ffc800"/>
<rect x="4" y="31" width="70" height="27" fill="#1cb0f6"/>
<path d="m 30.114,15.734 c -2.259,0 -4.077,2.35 -4.077,3.961 0,4.864 0.033,8.624 0,14.592 -0.033,5.968 6.635,11.917 12.95,11.98 6.423,-0.05 12.89,-6.765 12.949,-11.98 0.06,-5.215 0,-9.728 0,-14.592 0,-1.612 -1.818,-3.96 -4.076,-3.96 z"           style="fill:#1cb0f6;fill-opacity:1;stroke:#ffc800;stroke-width:1.566;stroke-miterlimit:4;stroke-dasharray:none;stroke-opacity:1"/>
<path d="m 39.962,23.004 c -2.708,0.885 -2.143,2.106 -2.895,2.959 -3.107,0.9 -4.335,-1.38 -3.861,-2.562 4.1,3.525 3.14,-3.438 -2.343,-2.17 -1.816,1.505 -4.648,7.918 0.537,4.53 -3.625,5.537 -0.179,6.394 1.524,3.812 -0.646,7.27 3.28,0.493 3.162,0.833 0,0 0.407,-0.003 0.127,2.65 -0.575,0.907 -0.954,0.656 -2.041,0.431 -0.813,0.076 -1.107,0.954 -1.13,1.628 0.496,-0.516 1.305,-0.963 1.865,-1.046 -0.748,0.62 -0.318,1.753 -0.123,2.487 0.815,-0.56 0.185,-1.808 1.413,-2.033 0.407,0.243 0.268,0.673 0.875,1.467 0.991,-1.615 -0.542,-2.312 -0.492,-2.17 0.208,-0.87 0.79,0.006 1.317,-1.661 2.41,3.836 -2.646,6.41 -2.496,6.835 -0.06,0.482 4.08,-1.049 1.88,0.509 0.412,0.331 1.26,-0.002 1.332,0.135 0.541,2.863 0.767,1.902 1.208,0.007 0.598,0.08 1.408,0.191 1.376,-0.126 -2.457,-1.766 1.219,-0.03 1.822,-0.633 -1.596,-2.78 -3.554,-1.132 -2.583,-6.679 0.562,1.948 0.814,0.429 1.578,1.741 -0.95,-0.137 -1.069,1.095 -0.836,1.836 0.47,-0.522 0.882,-1.197 1.378,-1.454 0.446,-0.053 0.348,1.691 1.013,2.13 0.236,-0.742 0.693,-1.67 -0.205,-2.093 0.463,0.097 1.208,-0.2 1.96,0.19 -1.047,-2.117 -1.98,-0.559 -3.107,-1.57 -0.61,-4.404 0.45,-4.249 -0.059,-2.751 1.679,2.23 4.092,5.327 3.255,-0.761 5.178,3.04 2.787,-0.665 1.764,-3.853 3.8,3.51 2.332,-3.353 0.56,-4.658 -5.732,-0.385 -5.662,5.426 -2.606,2.593 -0.303,5.162 -6.633,1.52 -4.03,1.009 2.147,-3.521 -0.648,-4.22 -2.67,-3.957 -0.889,0.932 -1.658,0.726 -1.588,1.678 0.567,-0.086 1.396,-0.428 1.499,-0.313 -0.042,1.064 -1.408,1.027 -1.893,0.659 -0.175,1.68 2.524,0.265 3.514,0.371 z"           style="fill:#ffc800;fill-opacity:1;stroke:#ffc800;stroke-width:0.203646px;stroke-linecap:butt;stroke-linejoin:miter;stroke-opacity:1"/>
<rect x="2" y="2" width="74" height="58" rx="10" fill="none" stroke="#fff" stroke-width="4"/>
</svg>
