<svg xmlns="http://www.w3.org/2000/svg" width="78mm" height="62mm" viewBox="0 0 78 62"><path stroke="#fff" stroke-width="4" d="M151.354 170.014H106.48c-4.935 0-6.696.585-8.493 1.546a10.9 10.9 0 0 0-4.525 4.525c-.96 1.796-1.545 3.557-1.545 8.492v28.874c0 4.935.585 6.696 1.545 8.493a10.9 10.9 0 0 0 4.525 4.525c1.797.96 3.558 1.545 8.493 1.545h44.874c4.935 0 6.696-.584 8.493-1.545a10.9 10.9 0 0 0 4.525-4.525c.96-1.797 1.545-3.558 1.545-8.493v-28.874c0-4.935-.584-6.696-1.545-8.492a10.9 10.9 0 0 0-4.525-4.525c-1.797-.961-3.558-1.546-8.493-1.546z" style="fill:none" transform="translate(-89.917 -168.014)"/><path fill="#ff4b4b" d="M93.917 187.694c0-5.488 0-8.233 1.068-10.329a9.8 9.8 0 0 1 4.283-4.283c2.096-1.068 4.84-1.068 10.33-1.068h38.64c5.488 0 8.232 0 10.328 1.068a9.8 9.8 0 0 1 4.283 4.283c1.068 2.096 1.068 4.84 1.068 10.33v22.64c0 5.488 0 8.232-1.068 10.328a9.8 9.8 0 0 1-4.283 4.283c-2.096 1.068-4.84 1.068-10.329 1.068h-38.64c-5.488 0-8.233 0-10.329-1.068a9.8 9.8 0 0 1-4.283-4.283c-1.068-2.096-1.068-4.84-1.068-10.329z" style="fill:#4b4b4b;fill-opacity:1" transform="translate(-89.917 -168.014)"/><path fill="#1cb0f6" d="M163.917 199.014v11.32c0 5.489 0 8.233-1.068 10.33a9.8 9.8 0 0 1-4.283 4.282c-2.096 1.068-4.84 1.068-10.329 1.068h-38.64c-5.488 0-8.233 0-10.329-1.068a9.8 9.8 0 0 1-4.283-4.283c-1.068-2.096-1.068-4.84-1.068-10.329v-11.32z" style="fill:#ff4b4b;fill-opacity:1" transform="translate(-89.917 -168.014)"/><path fill="#ffc800" d="M70 38.571H0V15.43h70z" style="fill:#eee;fill-opacity:.933333;fill-rule:evenodd;stroke:none;stroke-width:1" transform="matrix(1 0 0 .18274 4 26.318)"/><g fill="#ffd900" style="fill:#1cb0f6;fill-opacity:1"><path d="M94.057 216.843c-.11-1.29-.133-2.849-.139-4.805l20.432-15.318 2.356 3.143z" style="fill:#1cb0f6;fill-opacity:1" transform="translate(-89.917 -168.014)"/><path fill-rule="evenodd" d="M93.919 185.867c.006-1.957.032-3.511.148-4.798l24.185 18.131-2.356 3.143z" clip-rule="evenodd" style="fill:#1cb0f6;fill-opacity:1" transform="translate(-89.917 -168.014)"/></g><path fill="#eee" d="M102.567 225.824c1.574.174 3.56.189 6.244.19l22.929-17.19-2.356-3.142-26.861 20.137h.044z" style="fill:#1cb0f6;fill-opacity:1" transform="translate(-89.917 -168.014)"/><path fill="#eee" d="M163.917 188.897v20.235h-43.554v-20.235z" style="fill:#1cb0f6;fill-opacity:1" transform="translate(-89.917 -168.014)"/><path fill="#eee" d="M97.918 173.914q.638-.469 1.35-.832c2.01-1.024 4.617-1.066 9.669-1.068l.01.001 23.55 17.643-10.288 13.73-26.437-19.806c-.255-3.57-.254-5.642.463-7.25a7.8 7.8 0 0 1 1.683-2.418" style="fill:#1cb0f6;fill-opacity:1" transform="translate(-89.917 -168.014)"/><path fill="#47a600" d="M163.917 192.801v12.305h-43.554v-12.305z" style="fill:#eeeee0;fill-opacity:1" transform="translate(-89.917 -168.014)"/><path fill="#47a600" fill-rule="evenodd" d="M94.985 177.365c-.516 1.013-.782 2.176-.92 3.728l28.725 21.52 7.351-9.812-27.503-20.604c-1.375.146-2.437.41-3.37.885a9.8 9.8 0 0 0-4.283 4.283" clip-rule="evenodd" style="fill:#eeeee0;fill-opacity:1" transform="translate(-89.917 -168.014)"/><path fill="#47a600" fill-rule="evenodd" d="M102.5 225.817c-1.308-.15-2.33-.411-3.232-.871a9.8 9.8 0 0 1-4.283-4.283c-.528-1.036-.795-2.231-.93-3.839l28.735-21.528 7.351 9.812z" clip-rule="evenodd" style="fill:#eeeee0;fill-opacity:1" transform="translate(-89.917 -168.014)"/></svg>