<svg xmlns="http://www.w3.org/2000/svg" width="78mm" height="62mm" viewBox="0 0 78 62"><path fill="#1cb0f6" stroke="#fff" stroke-width="4" d="M172.772 29.575h-44.874c-4.935 0-6.696.585-8.493 1.546a10.9 10.9 0 0 0-4.525 4.525c-.96 1.796-1.545 3.558-1.545 8.492v28.874c0 4.935.584 6.697 1.545 8.493a10.9 10.9 0 0 0 4.525 4.525c1.797.96 3.558 1.545 8.493 1.545h44.874c4.935 0 6.696-.584 8.492-1.545a10.9 10.9 0 0 0 4.525-4.525c.961-1.796 1.546-3.558 1.546-8.493V44.138c0-4.934-.585-6.696-1.546-8.492a10.9 10.9 0 0 0-4.525-4.525c-1.796-.961-3.557-1.546-8.492-1.546z" style="fill:#eeeeeb;fill-opacity:1;fill-rule:nonzero" transform="translate(-111.335 -27.575)"/><path fill="#4b4b4b" d="M185.257 74.322a9 9 0 0 1 .059 2.648 8.9 8.9 0 0 1-2.075 4.81c-.925 1.095-1.934 1.954-4.326 3.064l-63.38-41.685a9.1 9.1 0 0 1-.114-2.954 8.9 8.9 0 0 1 2.075-4.81c.893-1.057 1.865-1.895 4.086-2.951z" style="fill:#1cb0f6;fill-opacity:1;fill-rule:nonzero;stroke:none;stroke-width:1" transform="translate(-111.335 -27.575)"/><path fill="#ff4b4b" d="M144.762 48.048h11.145a2.39 2.39 0 0 1 2.388 2.388v10.706a7.96 7.96 0 1 1-15.92 0V50.436a2.39 2.39 0 0 1 2.387-2.388" style="fill-rule:evenodd;stroke:none;stroke-width:1.36463;fill:#1254a9;fill-opacity:1" transform="translate(-111.335 -27.575)"/></svg>