<svg xmlns="http://www.w3.org/2000/svg" width="78" height="62">
<rect x="4" y="4" width="70" height="54" fill="#ff4b4b"/>
<path d="M4 6v50a1.023 1.023 27.081 0 0 1.621.829L38.38 33.171a1.5 1.5 91.019 0 0 .042-2.399L5.58 5.228A.978.978 153.937 0 0 4 6Z" style="fill:#ffc800"/>
<path d="M4 6v50a.782.782 21.355 0 0 1.357.53l21.146-22.908a2.48 2.48 91.054 0 0 .06-3.298L5.303 5.52A.74.74 159.7 0 0 4 6Z" style="fill:#4c4c4c"/>
<path d="m8.514 32.978-1.84-.69a1.035 1.035 0 0 1-.587-1.39c.094-.221.26-.41.47-.535l1.736-1.031a.46.46 0 0 0 .225-.352l.17-1.952A1.146 1.146 0 0 1 9.88 26c.242.011.47.1.65.253l1.475 1.26c.11.093.26.125.404.087l1.945-.516c.593-.158 1.186.18 1.324.755.055.228.03.471-.07.691l-.823 1.81a.43.43 0 0 0 .024.406l1.032 1.633c.315.497.147 1.166-.374 1.493a1.15 1.15 0 0 1-.691.175l-1.985-.141a.47.47 0 0 0-.389.163l-1.308 1.526c-.398.464-1.094.54-1.554.168a1.02 1.02 0 0 1-.358-.584l-.403-1.897a.42.42 0 0 0-.265-.305" style="fill:#eee"/>
<rect x="2" y="2" width="74" height="58" rx="10" fill="none" stroke="#fff" stroke-width="4"/>
</svg>
