<svg xmlns="http://www.w3.org/2000/svg" width="78" height="62" viewBox="0 0 78 62">
  <path
    fill="#6075ff"
    stroke="#fff"
    stroke-width="4"
    d="M61.437 2H16.563c-4.935 0-6.696.585-8.493 1.545A10.9 10.9 0 0 0 3.545 8.07C2.585 9.867 2 11.628 2 16.563v28.874c0 4.935.585 6.696 1.545 8.493a10.9 10.9 0 0 0 4.525 4.525C9.867 59.415 11.628 60 16.563 60h44.874c4.935 0 6.696-.585 8.493-1.545a10.9 10.9 0 0 0 4.525-4.525C75.415 52.133 76 50.372 76 45.437V16.563c0-4.935-.585-6.696-1.545-8.493A10.9 10.9 0 0 0 69.93 3.545C68.133 2.585 66.372 2 61.437 2Z"
  />
  <path fill="#b1bbff" d="M4 18 33 31 4 44z"/>
  <path fill="#b1bbff" d="M74 18 45 31 74 44z"/>
  <path fill="#b1bbff" d="M10 10 34 26 31 31 7 17z"/>
  <path fill="#b1bbff" d="M68 10 44 26 47 31 71 17z"/>
  <path fill="#b1bbff" d="M10 52 34 36 31 31 7 45z"/>
  <path fill="#b1bbff" d="M68 52 44 36 47 31 71 45z"/>
  <circle cx="39" cy="31" r="13.5" fill="#b1bbff"/>
  <path
    fill="none"
    stroke="#fff"
    stroke-linecap="round"
    stroke-linejoin="round"
    stroke-width="2.4"
    d="M43.5 22.5c4.8 3 7 8.4 5.4 13-1.7 4.8-6.7 8.3-12.2 8.2-5.2-.1-10-3.5-11.9-8.2-2-5 .1-10.8 5.2-14 5-3.1 11.8-3 16.5.3"
  />
</svg>
