<svg xmlns="http://www.w3.org/2000/svg" width="78mm" height="62mm" viewBox="0 0 78 62"><g transform="translate(-43.968 -155.264)"><path fill="#eee" stroke="#fff" stroke-width="4" d="M105.405 157.264H60.53c-4.935 0-6.696.584-8.493 1.545a10.9 10.9 0 0 0-4.525 4.525c-.96 1.797-1.545 3.558-1.545 8.493v28.874c0 4.935.584 6.696 1.545 8.493a10.9 10.9 0 0 0 4.525 4.525c1.797.96 3.558 1.545 8.493 1.545h44.874c4.935 0 6.696-.585 8.493-1.545a10.9 10.9 0 0 0 4.524-4.525c.961-1.797 1.546-3.558 1.546-8.493v-28.874c0-4.935-.585-6.696-1.546-8.493a10.9 10.9 0 0 0-4.524-4.525c-1.797-.96-3.558-1.545-8.493-1.545z" style="fill:#eeeeeb;fill-opacity:1;fill-rule:evenodd"/><g fill="#1cb0f6"><path d="M117.982 197.026v4.96q0 .265-.003.514H47.985l-.003-.514v-4.96z" style="fill-rule:nonzero;stroke:none;stroke-width:.955161"/><path d="M116.895 207.788c-.107.226-.055.122-.227.444-.855 1.597-2.087 2.851-3.684 3.705s-3.223 1.325-7.591 1.325l-44.874-.003c-4.368 0-5.952-.53-7.55-1.384-1.6-.854-2.891-2.06-3.709-3.656-.166-.325-.044-.07-.217-.43z" style="fill-rule:nonzero;stroke:none;stroke-width:1"/><path d="M117.982 175.595v4.96q0 .264-.003.514H47.985l-.003-.514v-4.96zm0 10.848v4.96q0 .264-.003.514H47.985l-.003-.514v-4.96zm-1.058-21.696c.659 1.365.992 3.037 1.058 4.96.006.176 0 .347-.003.514H47.985c-.002-.167-.007-.338-.003-.514.067-3 .547-3.885 1.059-4.96z" style="fill-rule:nonzero;stroke:none;stroke-width:.955161"/></g><path d="M87.92 165.514c2.838 5.722 2.76 9.012-1.59 14.231-1.538 1.489 4.493 7.073 6.387 9.432.967 1.067 5.897 3.348 3.668-2.492-1.617-3.956-1.374-6.785.123-8.198 3.468-2.548 3.863-4.185 3.582-5.706-5.161-6.004 6.289-2.116 0 4.847-4.293 3.449-2.906 5.254-2.02 8.245 1.146 3.31.335 3.9.335 3.9 2.173-2.626.58-8.367-3.179-11.432-4.211-4.153-3.963-8.787-.425-11.89 6.078-4.037 10.165 2.304 9.547 5.863-2.18 2.149-.962-4.87-5.78-5.195-2.71.017-6.274 3.077-3.868 7.41 3.983 5.06 9.61 10.721 5.009 17.134-2.908 2.248-4.274.484-5.6.759.194 8.035 7.57 8.906.686 17.173-.237.54-4.84.278-7.261.288-1.554-5.8 6.258-1.116 5.218-7.208-2.322-1.297-3.488-2.41-6.128-7.574-15.204-.686-7.445 14.346-13.324 12.776 0 0-1.435.072-7.473.06-2.285-7.674 6.502-.003 5.572-7.54-.726-4.83.696-8.175 10.179-10.965 1.953-.802-.86-1.206-3.593-4.53-2.692-2.692-4.848 4.366-13.813 4.366-4.856-.169-2.907-6.475-.665-4.844 4.081 3.156 9.418-3.612 8.811-4.779-8.104-9.705-6.751-19.699-.747-13.09-2.383 5.815 5.527 10.887 7.032 7.448-1.186-5.163 2.035-1.402 1.854-4.383.156-2.82-2.763.7-2.784-3.16.2-1.859 9.969-1.901 10.247-.946" style="fill:#ff4b4b;fill-opacity:1;stroke:none;stroke-width:.264583px;stroke-linecap:butt;stroke-linejoin:miter;stroke-opacity:1"/><rect width="1.753" height="3.275" x="83.147" y="162.126" rx="1.795" ry="2.072" style="opacity:.98;fill:#ffc800;fill-opacity:1;stroke:none;stroke-width:7.37294;stroke-linejoin:round;stroke-miterlimit:3.3;paint-order:stroke fill markers"/><rect width="1.753" height="3.275" x="80.035" y="162.29" rx="1.795" ry="2.072" style="opacity:.98;fill:#ffc800;fill-opacity:1;stroke:none;stroke-width:7.37294;stroke-linejoin:round;stroke-miterlimit:3.3;paint-order:stroke fill markers"/><rect width="1.753" height="3.275" x="86.259" y="162.29" rx="1.795" ry="2.072" style="opacity:.98;fill:#ffc800;fill-opacity:1;stroke:none;stroke-width:7.37294;stroke-linejoin:round;stroke-miterlimit:3.3;paint-order:stroke fill markers"/><rect width="2.024" height="7.685" x="164.019" y="-87.866" rx="2.072" ry="4.863" style="opacity:.98;fill:#ffc800;fill-opacity:1;stroke:none;stroke-width:12.1369;stroke-linejoin:round;stroke-miterlimit:3.3;paint-order:stroke fill markers" transform="rotate(90)"/></g></svg>