<svg xmlns="http://www.w3.org/2000/svg" width="78" height="62">
<rect x="4" y="4" width="35" height="54" fill="#ff4b4b"/>
<rect x="39" y="4" width="35" height="54" fill="#eee"/>
<path d="m 33.586627,42.293885 1.622425,-7.382954 A 0.64301286,0.643 23.602388 0 0 34.446511,34.14346 l -7.058612,1.51151 a 0.43700874,0.437 23.602388 0 1 -0.327315,-0.79449 l 6.104434,-3.90358 a 0.64301286,0.643 23.602388 0 0 0.0035,-1.082102 L 26.7677,25.73172 a 0.36300726,0.363 23.602388 0 1 0.275253,-0.660004 l 7.472875,1.644282 a 0.64301286,0.643 23.602388 0 0 0.766954,-0.763836 l -1.611569,-7.526703 a 0.350007,0.35 23.602388 0 1 0.636203,-0.262229 l 4.162867,6.507903 a 0.64301286,0.643 23.602388 0 0 1.0812,0.0031 l 4.126964,-6.373866 a 0.36900738,0.369 23.602388 0 1 0.669181,0.279262 l -1.636366,7.44234 a 0.64301286,0.643 23.602388 0 0 0.762941,0.766555 l 7.361603,-1.575565 a 0.3800076,0.38 23.602388 0 1 0.284832,0.6919 L 44.755296,29.976 a 0.64301286,0.643 23.602388 0 0 -0.0031,1.081186 l 6.323035,4.093816 a 0.3800076,0.38 23.602388 0 1 -0.288065,0.689327 l -7.381761,-1.623026 a 0.64301286,0.643 23.602388 0 0 -0.767471,0.762519 l 1.60204,7.481071 a 0.35900718,0.359 23.602388 0 1 -0.65292,0.268021 l -4.137021,-6.467147 a 0.64301286,0.643 23.602388 0 0 -1.0812,-0.0031 l -4.092463,6.322372 a 0.3800076,0.38 23.602388 0 1 -0.690657,-0.287554 z" fill="#ffc800" />
<rect x="2" y="2" width="74" height="58" rx="10" fill="none" stroke="#fff" stroke-width="4"/>
</svg>
