<svg xmlns="http://www.w3.org/2000/svg" id="svg5" width="78" height="62"><style id="style1" type="text/css">.st0{fill:#1254a9;stroke:#fff;stroke-width:4}.st1{fill:#fff430}</style><path id="path1" d="M61.3 2.1H16.5c-4.9 0-6.7.6-8.5 1.5-2 1-3.5 2.6-4.5 4.5-1 1.8-1.5 3.6-1.5 8.5v28.9c0 4.9.6 6.7 1.5 8.5 1 2 2.6 3.5 4.5 4.5 1.8 1 3.6 1.5 8.5 1.5h44.9c4.9 0 6.7-.6 8.5-1.5 2-1 3.5-2.6 4.5-4.5 1-1.8 1.5-3.6 1.5-8.5V16.6c0-4.9-.6-6.7-1.5-8.5-1-2-2.6-3.5-4.5-4.5-1.9-.9-3.6-1.5-8.6-1.5" class="st0" style="stroke:none"/><path id="path2" d="m16.427 3.427 22.492.241-.02 27.432h-35V16.7C3.9 5.317 7.324 3.33 16.428 3.427z" class="st1"/><path id="path3085_1_" d="M61.3 58.1H38.9v-27h35v14.4c0 10.953-.881 12.6-12.6 12.6" class="st1"/><path id="path13255_2_" d="M34.896 20.75v-1.7c0-.6-.5-1.1-1.1-1.1-.6.1-1 .6-.9 1.1v3.1c0 .6.5 1.1 1.1 1.1h9.9c.6 0 1.1-.5 1.1-1.1v-3.1c0-.6-.5-1.1-1.1-1.1-.6.1-1 .6-.9 1.1v1.7h-3v-1.7c0-.6-.5-1.1-1.1-1.1-.6.1-1 .6-.9 1.1v1.7z" style="fill:#fff;stroke:#fff"/><path id="rect6254_1_" stroke-width=".144" d="M31.826 34.903v-8.105c0-.737.603-1.344 1.336-1.344h11.506c.732 0 1.336.607 1.336 1.344v8.105" style="fill:#eee"/><path id="path3" stroke-width=".409" d="M38.517 31.307h.532c.204 0 .368.164.368.368v3.845a.367.367 0 0 1-.368.368h-.532a.367.367 0 0 1-.368-.368v-3.845c0-.204.164-.368.368-.368" style="opacity:.98;fill:#4b4b4b"/><path id="path4" stroke-width=".358" d="M39.113 26.367c-.444.002-.938.207-1.4.568-.892-.139-1.66.071-1.987.631-.242.398-.201.913.069 1.432-.914.298-1.537.877-1.537 1.54-.036 1.004 1.325 1.757 2.937 1.757.73 0 1.398-.162 1.914-.428q.324.033.664.033c2.114 0 3.834-1.039 3.834-2.293 0-1.15-1.415-2.118-3.28-2.271-.101-.355-.298-.64-.589-.809a1.2 1.2 0 0 0-.625-.16" style="opacity:.98;fill:#78c800"/><path id="rect6254-4_1_" d="M45.996 34.85v2.3c0 3.9-3.2 7.1-7.1 7.1s-7.1-3.2-7.1-7.1v-2.3" style="fill:#cd7900"/><path id="path5" fill="none" stroke="#fff" stroke-width="4" d="M61.3 2H16.5c-4.9 0-6.7.6-8.5 1.5-2 1-3.5 2.6-4.5 4.5-1 1.8-1.5 3.6-1.5 8.5v28.9c0 4.9.6 6.7 1.5 8.5 1 2 2.6 3.5 4.5 4.5 1.8 1 3.6 1.5 8.5 1.5h44.9c4.9 0 6.7-.6 8.5-1.5 2-1 3.5-2.6 4.5-4.5 1-1.8 1.5-3.6 1.5-8.5V16.5c0-4.9-.6-6.7-1.5-8.5-1-2-2.6-3.5-4.5-4.5C68 2.6 66.3 2 61.3 2z" class="st0" style="fill:none"/></svg>