<svg xmlns="http://www.w3.org/2000/svg" width="78" height="62"><path d="M61.437 2H16.563c-4.935 0-6.696.585-8.493 1.545A10.9 10.9 0 0 0 3.545 8.07C2.585 9.867 2 11.628 2 16.563v28.874c0 4.935.585 6.696 1.545 8.493a10.9 10.9 0 0 0 4.525 4.525c1.797.96 3.558 1.545 8.493 1.545h44.874c4.935 0 6.696-.585 8.493-1.545a10.9 10.9 0 0 0 4.525-4.525c.96-1.797 1.545-3.558 1.545-8.493V16.563c0-4.935-.585-6.696-1.545-8.493a10.9 10.9 0 0 0-4.525-4.525C68.133 2.585 66.372 2 61.437 2Z" style="display:inline;fill:#1cb0f6;fill-opacity:1;fill-rule:nonzero;stroke:#fff;stroke-width:4"/><path d="M74 40v5.437c0 4.368-.455 5.953-1.309 7.55a8.9 8.9 0 0 1-3.704 3.704C67.39 57.545 65.805 58 61.437 58H16.563c-4.368 0-5.953-.455-7.55-1.309a8.9 8.9 0 0 1-3.704-3.704C4.455 51.39 4 49.805 4 45.437V40Z" style="display:inline;fill:#eee;fill-opacity:1;fill-rule:nonzero;stroke:none;stroke-width:1"/><path d="M16.563 4h44.874c4.368 0 5.953.455 7.55 1.309a8.9 8.9 0 0 1 3.704 3.704C73.545 10.61 74 12.195 74 16.563V22H4v-5.437c0-4.368.455-5.953 1.309-7.55A8.9 8.9 0 0 1 9.013 5.31C10.61 4.455 12.195 4 16.563 4" style="display:inline;fill:#ff4b4b;fill-rule:nonzero;stroke:none;stroke-width:1"/><g style="opacity:1"><path d="M18.856 24v16.45a10.6 10.6 0 0 0 10.597 10.597A10.6 10.6 0 0 0 40.051 40.45V24H29.453Z" style="fill:#ff4b4b;fill-opacity:1;stroke:none;stroke-width:14.3426;stroke-linejoin:round;stroke-miterlimit:4;stroke-dasharray:none;stroke-opacity:1;stop-color:#000" transform="translate(-2 -2)"/><path d="m25.287 41.117 1.118 1.119-3.657 3.657a.79.79 0 0 1-1.118 0 .79.79 0 0 1 0-1.118zm8.333 0-1.118 1.119 3.657 3.657a.79.79 0 0 0 1.118 0 .79.79 0 0 0 0-1.118z" style="display:inline;fill:#ffc800;fill-opacity:1;stroke:none;stroke-width:1.29573;stroke-linejoin:round;stroke-miterlimit:4;stroke-dasharray:none;stroke-opacity:1;stop-color:#000" transform="translate(-2 -2)"/><path d="M21.703 24.822a1.58 1.58 0 0 0-1.582 1.582v17.083a4.75 4.75 0 0 0 4.11-2.373l-.593 2.211 1.1.295a1.58 1.58 0 0 0 1.937-1.119l.564-2.105v7.606a2.214 2.214 0 0 0 2.214 2.214 2.214 2.214 0 0 0 2.215-2.214v-7.606l.564 2.105a1.58 1.58 0 0 0 1.937 1.119l1.1-.295-.593-2.21a4.75 4.75 0 0 0 4.11 2.372V26.404a1.58 1.58 0 0 0-1.582-1.582 1.51 1.51 0 0 0-1.434 1.582v2.568a2.373 2.373 0 0 1-2.362 2.177 1.58 1.58 0 0 1-1.582-1.581v-1.582l1.582-3.164h-.791a3.163 3.163 0 0 0-3.164 3.164 3.163 3.163 0 0 0-3.163-3.164h-.79l1.58 3.164v1.582a1.58 1.58 0 0 1-1.58 1.581 2.373 2.373 0 0 1-2.363-2.177v-2.568a1.51 1.51 0 0 0-1.434-1.582" style="display:inline;fill:#eee;fill-opacity:1;stroke-width:1.99638;stroke-linejoin:round;stop-color:#000" transform="translate(-2 -2)"/><path d="m23.074 22.867-2.381-4.8a2.55 2.55 0 0 1 2.284-3.684h12.805a2.55 2.55 0 0 1 2.284 3.684l-2.382 4.8A2.04 2.04 0 0 1 33.857 24h-8.955a2.04 2.04 0 0 1-1.828-1.133" style="display:inline;fill:#ffc800;fill-opacity:1;stroke:none;stroke-width:.0318464px;stroke-linecap:butt;stroke-linejoin:miter;stroke-opacity:1" transform="translate(-2 -2)"/><path d="M29.38 11.39c1.084 0 1.957.874 1.957 1.958v3.67a1.953 1.953 0 0 1-1.958 1.959 1.953 1.953 0 0 1-1.957-1.958v-3.67c0-1.085.873-1.959 1.957-1.959" style="display:inline;fill:#ffc800;stroke-width:2.00275;stroke-linejoin:round;stop-color:#000" transform="translate(-2 -2)"/><path d="m25.333 45.756 1.007 1.006a.475.475 0 0 1 0 .671l-1.007 1.007a.475.475 0 0 1-.67 0l-1.007-1.007a.475.475 0 0 1 0-.67l1.006-1.007a.475.475 0 0 1 .671 0" style="display:inline;fill:#ffc800;fill-opacity:1;stroke:none;stroke-width:1.29274;stroke-linejoin:round;stroke-miterlimit:4;stroke-dasharray:none;stroke-opacity:1;stop-color:#000" transform="translate(-2 -2)"/><path d="M22.977 15.937a1 1 0 0 0-.99.886c-.036.342.252.864.407 1.177l1.026 2.066c.124.25.452.454.731.454h.961a.495.495 0 0 0 .48-.614l-.83-3.354a.81.81 0 0 0-.785-.615zm3.088.615.87 3.507a.606.606 0 0 0 .588.46h.75a.475.475 0 0 0 .475-.474V16.57a.633.633 0 0 0-.632-.633h-1.57a.495.495 0 0 0-.48.615m3.949.018v3.475a.475.475 0 0 0 .474.475h.751a.606.606 0 0 0 .589-.461l.868-3.507a.495.495 0 0 0-.48-.615h-1.57a.633.633 0 0 0-.632.633M34 16.552l-.83 3.354a.495.495 0 0 0 .48.614h.957c.28 0 .607-.203.732-.454l1.349-2.719a1 1 0 0 0-.187-1.102 1 1 0 0 0-.778-.308h-.939a.81.81 0 0 0-.784.615" style="display:inline;fill:#ff4b4b;fill-opacity:1;stroke:none;stroke-width:0;stroke-linecap:butt;stroke-linejoin:miter;stroke-miterlimit:4;stroke-dasharray:none;stroke-opacity:1" transform="translate(-2 -2)"/><path d="m25.5 24.822 1.185 2.373h-2.768v-.79a1.58 1.58 0 0 1 1.582-1.583" style="display:inline;fill:#ffc800;stroke-width:.699621;stroke-linejoin:round;stop-color:#000" transform="translate(-2 -2)"/><path d="M24.708 27.195h1.977l.396.79h-1.582a.79.79 0 0 1-.79-.79" style="display:inline;fill:#ffc800;stroke-width:.494709;stroke-linejoin:round;stop-color:#000" transform="translate(-2 -2)"/><path d="m33.574 45.756-1.007 1.006a.475.475 0 0 0 0 .671l1.007 1.007a.475.475 0 0 0 .67 0l1.007-1.007a.475.475 0 0 0 0-.67l-1.006-1.007a.475.475 0 0 0-.671 0" style="display:inline;fill:#ffc800;fill-opacity:1;stroke:none;stroke-width:1.29274;stroke-linejoin:round;stroke-miterlimit:4;stroke-dasharray:none;stroke-opacity:1;stop-color:#000" transform="translate(-2 -2)"/><path d="m33.408 24.822-1.187 2.373h2.768v-.79a1.58 1.58 0 0 0-1.581-1.583" style="display:inline;fill:#ffc800;stroke-width:.699621;stroke-linejoin:round;stop-color:#000" transform="translate(-2 -2)"/><path d="M34.199 27.195H32.22l-.395.79h1.582a.79.79 0 0 0 .79-.79" style="display:inline;fill:#ffc800;stroke-width:.494709;stroke-linejoin:round;stop-color:#000" transform="translate(-2 -2)"/></g></svg>