<svg xmlns="http://www.w3.org/2000/svg" width="78" height="62"><path d="M61.437 2H16.563c-4.935 0-6.696.585-8.493 1.545A10.9 10.9 0 0 0 3.545 8.07C2.585 9.867 2 11.628 2 16.563v28.874c0 4.935.585 6.696 1.545 8.493a10.9 10.9 0 0 0 4.525 4.525c1.797.96 3.558 1.545 8.493 1.545h44.874c4.935 0 6.696-.585 8.493-1.545a10.9 10.9 0 0 0 4.525-4.525c.96-1.797 1.545-3.558 1.545-8.493V16.563c0-4.935-.585-6.696-1.545-8.493a10.9 10.9 0 0 0-4.525-4.525C68.133 2.585 66.372 2 61.437 2Z" style="fill:#fff;fill-opacity:1;fill-rule:nonzero;stroke:#fff;stroke-width:4"/><path d="M74 40v5.437c0 4.368-.455 5.953-1.309 7.55a8.9 8.9 0 0 1-3.704 3.704C67.39 57.545 65.805 58 61.437 58H16.563c-4.368 0-5.953-.455-7.55-1.309a8.9 8.9 0 0 1-3.704-3.704C4.455 51.39 4 49.805 4 45.437V40Z" style="fill:#78c800;fill-opacity:1;fill-rule:nonzero;stroke:none;stroke-width:1"/><path d="M16.563 4h44.874c4.368 0 5.953.455 7.55 1.309a8.9 8.9 0 0 1 3.704 3.704C73.545 10.61 74 12.195 74 16.563V22H4v-5.437c0-4.368.455-5.953 1.309-7.55A8.9 8.9 0 0 1 9.013 5.31C10.61 4.455 12.195 4 16.563 4" style="fill:#1cb0f6;fill-opacity:1;fill-rule:nonzero;stroke:none;stroke-width:1"/><path d="M4 19.653h70V22H4zM4 40h70v2.347H4z" style="fill:#ff4b4b;fill-opacity:1;fill-rule:nonzero;stroke:none;stroke-width:1.33849;stroke-linejoin:round;stroke-miterlimit:4;stroke-dasharray:none;stroke-dashoffset:17.5748;stroke-opacity:1"/><path d="M20.128 8.301a3 3 0 0 0-.743-.107 3.86 3.86 0 1 0 0 7.719q.321 0 .743-.108a.322.322 0 0 1 .265.575q-1.165.82-2.938.82a5.146 5.146 0 1 1 0-10.293q1.773 0 2.938.82a.322.322 0 0 1-.265.574m5.387 7.923-.542.504a.448.448 0 0 1-.751-.287l-.07-.751a.32.32 0 0 0-.162-.25l-.652-.37a.452.452 0 0 1 .044-.807l.679-.293a.32.32 0 0 0 .188-.234l.143-.732a.448.448 0 0 1 .777-.208l.49.562c.07.08.175.12.28.109l.734-.086a.452.452 0 0 1 .442.678l-.38.645a.32.32 0 0 0-.015.297l.315.687a.448.448 0 0 1-.507.623l-.722-.165a.32.32 0 0 0-.29.078m6.076.087-.542.504a.448.448 0 0 1-.751-.286l-.07-.752a.32.32 0 0 0-.162-.25l-.652-.369a.452.452 0 0 1 .044-.808l.679-.293a.32.32 0 0 0 .188-.233l.143-.732a.448.448 0 0 1 .777-.208l.49.562c.07.08.175.12.28.108l.734-.086a.452.452 0 0 1 .442.678l-.38.646a.32.32 0 0 0-.015.297l.315.686a.448.448 0 0 1-.507.624l-.722-.166a.32.32 0 0 0-.29.078" style="fill:#fff;fill-rule:nonzero;stroke-width:.321638"/></svg>