<svg xmlns="http://www.w3.org/2000/svg" width="78" height="62">
<rect x="4" y="4" width="70" height="54" fill="#ff4b4b"/>
<path fill="#ffc300" d="m 41,10 a 2,2 0 1 1 -4,0 2,2 0 0 1 4,0 m 0,42 a 2,2 0 1 1 -4,0 2,2 0 0 1 4,0 M 30.232,11.814 a 2,2 0 1 1 -3.464,2 2,2 0 0 1 3.464,-2 m 21,36.373 a 2,2 0 1 1 -3.464,2 2,2 0 0 1 3.464,-2 M 21.814,18.768 a 2,2 0 1 1 -2,3.464 2,2 0 0 1 2,-3.464 m 36.373,21 a 2,2 0 1 1 -2,3.464 2,2 0 0 1 2,-3.464 M 18,29 a 2,2 0 1 1 0,4 2,2 0 0 1 0,-4 m 42,0 a 2,2 0 1 1 0,4 2,2 0 0 1 0,-4 M 22.546,40.5 a 2.000389,2.000389 0 1 0 -3.465,2 2.000389,2.000389 0 0 0 3.465,-2 m 36.373,-21 a 2.000389,2.000389 0 1 0 -3.465,2 2.000389,2.000389 0 0 0 3.465,-2 M 29.5,47.455 a 2,2 0 1 0 -2,3.464 2,2 0 0 0 2,-3.464 m 21,-36.374 a 2.000389,2.000389 0 1 0 -2,3.465 2.000389,2.000389 0 0 0 2,-3.465"/>
<path fill="#ffc800" d="m 32.510688,33.68338 -7.65851,-7.25714 c -0.665863,-0.631394 5.65e-4,-2.237555 0.917834,-2.212075 l 10.546608,0.296524 7.25714,-7.658509 c 0.631394,-0.665865 2.237555,5.64e-4 2.212074,0.917833 l -0.296523,10.546608 7.65851,7.25714 c 0.665863,0.631394 -5.64e-4,2.237555 -0.917834,2.212075 l -10.546608,-0.296524 -7.25714,7.658516 c -0.631394,0.66586 -2.237555,-5.7e-4 -2.212075,-0.91784 z" style="stroke:#ff4b4b;stroke-width:1.5"   />
<path fill="#ffc800" d="M 32.513925,28.308804 32.230114,17.761848 c -0.02437,-0.9173 1.582591,-1.581792 2.21318,-0.915167 l 7.247904,7.667252 10.546956,-0.283811 c 0.917302,-0.02438 1.581792,1.582589 0.915167,2.21318 l -7.667251,7.247902 0.283812,10.546944 c 0.02438,0.9173 -1.582588,1.58179 -2.213179,0.91517 l -7.247905,-7.667241 -10.546953,0.283805 c -0.9173,0.02437 -1.581792,-1.582589 -0.915168,-2.213178 z" style="stroke:#ff4b4b;stroke-width:1.5"/>
<path fill="#ffc800" d="m 31.977772,31.000002 -4.30416,-9.632915 c -0.374059,-0.837922 0.855551,-2.067532 1.693472,-1.693472 L 39,23.977774 48.632916,19.673615 c 0.837922,-0.37406 2.067532,0.85555 1.693472,1.693472 l -4.304159,9.632915 4.304159,9.632916 c 0.37406,0.83792 -0.85555,2.06753 -1.693472,1.69347 l -9.632915,-4.304157 -9.632914,4.304157 c -0.837922,0.37406 -2.067532,-0.85555 -1.693472,-1.69347 z" style="stroke:#ff4b4b;stroke-width:1.5"/>
<path fill="#ffc800" d="m 34.034534,35.965464 -9.855,-3.768 c -0.857,-0.328 -0.857,-2.066931 0,-2.394931 l 9.855,-3.768 3.768,-9.855 c 0.328001,-0.857 2.066931,-0.857 2.394931,0 l 3.768,9.855 9.855001,3.768 c 0.857,0.328 0.857,2.066931 0,2.394931 l -9.855001,3.768 -3.768,9.855004 c -0.328,0.857 -2.06693,0.857 -2.394931,0 z" style="stroke:#ff4b4b;stroke-width:1.5"/>
<rect x="2" y="2" width="74" height="58" rx="10" fill="none" stroke="#fff" stroke-width="4"/>
</svg>