<svg xmlns="http://www.w3.org/2000/svg" width="78" height="62" viewBox="0 0 78 62">
  <path
    fill="#eee"
    stroke="#fff"
    stroke-width="4"
    d="M61.437 2H16.563c-4.935 0-6.696.585-8.493 1.545A10.9 10.9 0 0 0 3.545 8.07C2.585 9.867 2 11.628 2 16.563v28.874c0 4.935.585 6.696 1.545 8.493a10.9 10.9 0 0 0 4.525 4.525C9.867 59.415 11.628 60 16.563 60h44.874c4.935 0 6.696-.585 8.493-1.545a10.9 10.9 0 0 0 4.525-4.525C75.415 52.133 76 50.372 76 45.437V16.563c0-4.935-.585-6.696-1.545-8.493A10.9 10.9 0 0 0 69.93 3.545C68.133 2.585 66.372 2 61.437 2Z"
  />
  <path fill="#1cb0f6" d="M7 10h13l51 34H58z"/>
  <path fill="#1254a9" d="M34 20.5h10a3.4 3.4 0 0 1 3.4 3.4v8.4a8.4 8.4 0 1 1-16.8 0v-8.4a3.4 3.4 0 0 1 3.4-3.4"/>
</svg>
