<svg xmlns="http://www.w3.org/2000/svg" xml:space="preserve" id="svg2227" x="0" y="0" viewBox="0 0 78 62"><style>.st2{fill-rule:evenodd;clip-rule:evenodd;fill:#eee}</style><g id="uk"><g id="g3146" transform="translate(6 6)"><path id="path3142" d="M55.4-4H10.6c-5 0-6.7.6-8.5 1.5C.1-1.5-1.4.1-2.4 2S-4 5.6-4 10.6v28.9c0 4.9.6 6.7 1.5 8.5 1 2 2.6 3.5 4.5 4.5 1.8 1 3.6 1.5 8.5 1.5h44.9c4.9 0 6.7-.6 8.5-1.5 2-1 3.5-2.6 4.5-4.5 1-1.8 1.5-3.6 1.5-8.5V10.6c0-4.9-.6-6.7-1.5-8.5-1-2-2.6-3.5-4.5-4.5-1.8-1-3.5-1.6-8.5-1.6z" style="fill:#1cb0f6;stroke:#fff;stroke-width:4"/><path id="path3144" d="M68 25v14.4c0 4.4-.5 6-1.3 7.5-.9 1.6-2.1 2.9-3.7 3.7-1.6.9-3.2 1.3-7.5 1.3H10.6c-4.4 0-6-.5-7.5-1.3-1.6-.9-2.9-2.1-3.7-3.7-.9-1.5-1.4-3.1-1.4-7.5V25z" style="fill:#ff4b4b"/></g></g><path id="Rectangle" d="m5 30.5 32.6-6.3c.8-.2 1.9-.2 2.8 0L73 30.5c1.1.2 1.3.6.5.9-.1.1-.3.1-.5.1l-32.6 6.3c-.8.2-1.9.2-2.8 0L5 31.5c-1.1-.2-1.3-.6-.5-.9.1 0 .3 0 .5-.1" class="st2"/><path id="Rectangle_1_" d="M38.3 57.3 32 32.1c-.2-.6-.2-1.5 0-2.1l6.3-25.2c.2-.8.6-1 .9-.4.1.1.1.2.1.4L45.6 30c.2.6.2 1.5 0 2.1l-6.3 25.2c-.2.8-.6 1-.9.4 0-.2 0-.3-.1-.4" class="st2"/></svg>