<svg xmlns="http://www.w3.org/2000/svg" width="78" height="62">
<rect x="4" y="4" width="70" height="54" fill="#6075ff"/>
<path d="m 74.812348,27.555445 -28.493109,1.977342 v 2.482609 l 28.493109,2.41945 z" style="fill:#b1bbff;fill-opacity:1;stroke:#b1bbff;stroke-width:0.283153px;stroke-linecap:butt;stroke-linejoin:miter;stroke-opacity:1" id="path2" />
<path d="M 3.1876512,34.439705 31.68076,32.457504 V 29.970037 L 3.1876512,27.555445 Z" style="fill:#b1bbff;fill-opacity:1;stroke:#b1bbff;stroke-width:0.283153px;stroke-linecap:butt;stroke-linejoin:miter;stroke-opacity:1" id="path3" />
<path d="M 3.2076219,45.487555 29.968278,36.489922 31.486046,38.491555 4.525684,53.756437 C 2.8581357,50.462491 3.2325852,48.990415 3.2076219,45.487555 Z M 74.417927,10.692168 53.448756,23.061486 49.229959,21.103578 61.087527,3.1374584 c 8.986786,-0.573283 11.982382,2.8858508 13.3304,7.5547096 z" style="fill:#b1bbff;fill-opacity:1;stroke:#b1bbff;stroke-width:0.284586px;stroke-linecap:butt;stroke-linejoin:miter;stroke-opacity:1" id="path4" />
<path d="M 27.846398,30.970854 A 14.144206,13.76366 0 0 1 42.010574,17.231486 14.144206,13.76366 0 0 1 56.134808,31.009721 14.144206,13.76366 0 0 1 41.980618,44.758805 14.144206,13.76366 0 0 1 27.846398,30.995146" style="opacity:0.98;fill:#b1bbff;fill-opacity:1;stroke:none;stroke-width:74.4572;stroke-miterlimit:3.3" id="path5" />
<path d="m 41.985058,31.198933 c 0.543379,0.866071 1.866732,0.824053 2.639826,0.262952 1.220978,-0.889635 1.112891,-2.583539 0.119182,-3.576003 -1.377047,-1.379808 -3.78025,-1.209334 -5.177054,0.05447 -1.799548,1.628727 -1.543421,4.344712 0.223296,5.897481 2.17565,1.913271 5.710092,1.602766 7.712736,-0.372504 2.390208,-2.354619 1.981071,-6.11315 -0.562683,-8.217735 -2.965586,-2.453386 -7.644769,-2.001478 -10.250838,0.687902 -2.983285,3.07787 -2.420064,7.884416 0.906034,10.541239 3.751089,2.995107 9.578776,2.401605 12.78652,-1.005937 3.577237,-3.799094 2.860403,-9.658514 -1.246965,-12.862105 -4.53901,-3.539467 -11.517216,-2.800127 -15.325292,1.322747 -4.174281,4.519095 -3.300071,11.431198 1.587898,15.182972 a 11.440372,12.500886 89.444712 0 0 8.508994,2.624844" style="fill:none;fill-rule:evenodd;stroke:#fffff0;stroke-width:1.72506;stroke-linecap:round;stroke-linejoin:round;stroke-miterlimit:4;stroke-dasharray:none;stroke-opacity:1;paint-order:stroke fill markers" id="path6" />
<path d="M 3.2076219,16.13836 29.968278,25.126278 31.486046,23.124645 4.5306766,7.8694761 C 2.8581357,11.168285 3.2225998,12.645218 3.2076219,16.143218 Z" style="fill:#b1bbff;fill-opacity:1;stroke:#b1bbff;stroke-width:0.284478px;stroke-linecap:butt;stroke-linejoin:miter;stroke-opacity:1" id="path7" />
<path d="M 74.417927,51.225248 53.448756,38.851071 49.229959,40.813838 61.087527,58.775097 c 8.986786,0.578146 11.982382,-2.880989 13.3304,-7.549849 z" style="fill:#b1bbff;fill-opacity:1;stroke:#b1bbff;stroke-width:0.284584px;stroke-linecap:butt;stroke-linejoin:miter;stroke-opacity:1" id="path8" />
<rect x="2" y="2" width="74" height="58" rx="10" fill="none" stroke="#fff" stroke-width="4"/>
</svg>
