<svg xmlns="http://www.w3.org/2000/svg" width="78" height="62"><rect width="71.044" height="54.994" x="3.478" y="3.503" ry="3.881" style="fill:#4c4c4c;fill-opacity:1;fill-rule:evenodd;stroke:none;stroke-width:.16088755;stroke-opacity:1"/><path d="M3.122 31.398v12.555h.025c-.007.17-.027.337-.027.508v2.21c0 6.498 5.455 11.727 12.23 11.727h47.698c6.776 0 12.23-5.23 12.23-11.726V44.46c0-.171-.019-.338-.026-.508h.028V31.398Z" style="fill:#ffc800;fill-opacity:1;fill-rule:evenodd;stroke-width:.11076645"/><path d="M61.437 2H16.563c-4.935 0-6.696.585-8.493 1.545A10.9 10.9 0 0 0 3.545 8.07C2.585 9.867 2 11.628 2 16.563v28.874c0 4.935.585 6.696 1.545 8.493a10.9 10.9 0 0 0 4.525 4.525c1.797.96 3.558 1.545 8.493 1.545h44.874c4.935 0 6.696-.585 8.493-1.545a10.9 10.9 0 0 0 4.525-4.525c.96-1.797 1.545-3.558 1.545-8.493V16.563c0-4.935-.585-6.696-1.545-8.493a10.9 10.9 0 0 0-4.525-4.525C68.133 2.585 66.372 2 61.437 2Z" style="fill:none;fill-opacity:1;fill-rule:nonzero;stroke:#fff;stroke-width:4"/></svg>