<svg xmlns="http://www.w3.org/2000/svg" width="78" height="62">
<rect x="4" y="4" width="70" height="54" fill="#1cb0f6"/>
<path fill="#eee" d="M 38.835938 13.888672 C 38.521976 13.881815 38.196875 14.346094 38 15.199219 L 34.699219 30.5 C 34.66806 30.624633 34.647579 30.759366 34.632812 30.900391 L 31.400391 30.900391 C 31.000391 30.900391 30.600781 30.999219 30.300781 31.199219 C 29.300781 31.799219 28.999609 33 29.599609 34 L 31.189453 36.480469 L 19.300781 46.699219 C 19.100781 46.899219 18.799219 47.100781 18.699219 47.300781 C 18.199219 48.100781 18.799609 48.4 20.099609 48 L 35.400391 43.300781 C 35.448359 43.291188 35.494712 43.279012 35.541016 43.267578 L 37.099609 45.699219 C 37.299609 45.899219 37.499219 46.200391 37.699219 46.400391 C 38.799219 47.000391 40.099219 46.699219 40.699219 45.699219 L 42.382812 43.095703 L 42.384766 43.095703 C 42.390035 43.097343 42.395124 43.097989 42.400391 43.099609 L 57.800781 48 C 58.100781 48.1 58.399219 48.199609 58.699219 48.099609 C 59.699219 48.199609 59.599609 47.499609 58.599609 46.599609 L 46.71875 36.388672 L 48.199219 34.099609 C 48.399219 33.799609 48.5 33.4 48.5 33 C 48.5 31.8 47.600391 30.900391 46.400391 30.900391 L 43.189453 30.900391 C 43.16705 30.72922 43.13684 30.561725 43.099609 30.400391 L 39.800781 15.099609 C 39.700781 14.699609 39.600781 14.400781 39.300781 14.300781 C 39.163281 14.025781 39.000394 13.892264 38.835938 13.888672 z " />
<rect x="2" y="2" width="74" height="58" rx="10" fill="none" stroke="#fff" stroke-width="4"/>
</svg>