<svg xmlns="http://www.w3.org/2000/svg" width="78" height="62">
<rect x="4" y="4" width="70" height="54" fill="#ffc800"/>
<path fill="#1cb0f6" d="M 19.554688 4 L 39 31.001953 L 39 4 L 19.554688 4 z M 39 31.001953 L 74 13 L 74 4 L 58.445312 4 L 39 31.001953 z M 39 31.001953 L 74 49.003906 L 74 31.001953 L 39 31.001953 z M 39 31.001953 L 39 58.003906 L 58.445312 58.003906 L 39 31.001953 z M 39 31.001953 L 4 49.003906 L 4 58.003906 L 19.554688 58.003906 L 39 31.001953 z M 39 31.001953 L 4 13 L 4 31.001953 L 39 31.001953 z " />
<path d="m 46.56185,20.50132 v 10.50084 c 0,6.50052 -3.24075,10.50084 -7.56175,10.50084 -4.321,0 -7.56175,-4.00032 -7.56175,-10.50084 V 20.50132 Z" fill="#ff4b4b"/>
<rect x="2" y="2" width="74" height="58" rx="10" fill="none" stroke="#fff" stroke-width="4"/>
</svg>
