<svg xmlns="http://www.w3.org/2000/svg" width="78" height="62"><g style="display:inline"><path d="M18.476 4.12c-4.93 0-6.69.58-8.49 1.55a10.83 10.83 0 0 0-4.52 4.52c-.97 1.8-1.55 3.56-1.55 8.49v28.88c0 4.93.58 6.69 1.55 8.49 1.04 1.95 2.57 3.48 4.52 4.52 1.8.97 3.56 1.55 8.49 1.55h44.88c4.93 0 6.69-.58 8.49-1.55 1.95-1.04 3.48-2.57 4.52-4.52.97-1.8 1.55-3.56 1.55-8.49V18.68c0-4.93-.58-6.69-1.55-8.49a10.83 10.83 0 0 0-4.52-4.52c-1.8-.97-3.56-1.55-8.49-1.55z" style="display:inline;fill:#eee;fill-opacity:1" transform="translate(-1.916 -2.12)"/></g><g style="display:inline"><path d="M18.476 4.12c-4.93 0-6.69.58-8.49 1.55q-.395.212-.77.45-.6.383-1.138.834L75.916 33.12 8.078 59.286a11 11 0 0 0 1.908 1.284c1.8.97 3.56 1.55 8.49 1.55h44.88c4.93 0 6.69-.58 8.49-1.55 1.95-1.04 3.48-2.57 4.52-4.52.97-1.8 1.55-3.56 1.55-8.49V18.68c0-4.93-.58-6.69-1.55-8.49a10.83 10.83 0 0 0-4.52-4.52c-1.8-.97-3.56-1.55-8.49-1.55z" style="display:inline;fill:#1cb0f6;fill-opacity:1" transform="translate(-1.916 -2.12)"/></g><g style="display:inline"><path d="M150 162.5a62.5 62.5 0 0 1 0 62.5 62.5 62.5 0 0 1 54.1-31.2 62.5 62.5 0 0 0-54.1-31.3m0 0a62.5 62.5 0 0 0-54.1 31.3A62.5 62.5 0 0 1 150 225a62.5 62.5 0 0 1 0-62.5m0 62.5a62.5 62.5 0 0 1 54.1 31.2 62.5 62.5 0 0 0 0-62.4A62.5 62.5 0 0 1 150 225m0 0a62.5 62.5 0 0 1 0 62.5 62.5 62.5 0 0 0 54.1-31.3A62.5 62.5 0 0 1 150 225m0 0a62.5 62.5 0 0 1-54.1 31.2 62.5 62.5 0 0 0 54.1 31.3 62.5 62.5 0 0 1 0-62.5m0 0a62.5 62.5 0 0 1-54.1-31.2 62.5 62.5 0 0 0 0 62.4A62.5 62.5 0 0 1 150 225" style="fill:#1cb0f6;fill-opacity:1" transform="matrix(.12 0 0 .12 3.108 4)"/><path d="M146.156 100.215A62.5 62.5 0 0 0 95.9 131.3a62.5 62.5 0 0 1 54.1 31.2 62.5 62.5 0 0 1 54.1-31.2 62.5 62.5 0 0 0-57.944-31.085M204.1 131.3a62.5 62.5 0 0 1 0 62.5 62.5 62.5 0 0 1 54.1 31.2 62.5 62.5 0 0 0-54.1-93.7m54.1 93.7a62.5 62.5 0 0 1-54.1 31.2 62.5 62.5 0 0 1 0 62.5 62.5 62.5 0 0 0 54.1-93.7m-54.1 93.7a62.5 62.5 0 0 1-54.1-31.2 62.5 62.5 0 0 1-54.1 31.2 62.5 62.5 0 0 0 108.2 0m-108.2 0a62.5 62.5 0 0 1 0-62.5A62.5 62.5 0 0 1 41.8 225a62.5 62.5 0 0 0 54.1 93.7M41.8 225a62.5 62.5 0 0 1 54.1-31.2 62.5 62.5 0 0 1 0-62.5A62.5 62.5 0 0 0 41.8 225" style="fill:#78c800;fill-opacity:1" transform="matrix(.12 0 0 .12 3.108 4)"/></g><g style="display:inline"><path fill="none" d="M27.56 52c-4.93 0-6.69.58-8.49 1.55a10.83 10.83 0 0 0-4.52 4.52c-.97 1.8-1.55 3.56-1.55 8.49v28.88c0 4.93.58 6.69 1.55 8.49 1.04 1.95 2.57 3.48 4.52 4.52 1.8.97 3.56 1.55 8.49 1.55h44.88c4.93 0 6.69-.58 8.49-1.55 1.95-1.04 3.48-2.57 4.52-4.52.97-1.8 1.55-3.56 1.55-8.49V66.56c0-4.93-.58-6.69-1.55-8.49a10.83 10.83 0 0 0-4.52-4.52c-1.8-.97-3.56-1.55-8.49-1.55z" style="fill-opacity:0;stroke:#fff;stroke-width:4;stroke-opacity:1" transform="translate(-11 -50)"/></g></svg>