<svg xmlns="http://www.w3.org/2000/svg" width="293.435" height="233.274" viewBox="0 0 77.638 61.72"><g transform="translate(-108.49 -133.947)"><path fill="#1254a9" stroke="#fff" stroke-width="4" d="M124.987 193.667c-.275 0-.54 0-.795-.01l-.731-.015-.991-.042q-.338-.02-.648-.044l-.556-.051c-1.305-.137-2.27-.36-3.099-.652-3.72-1.823-5.135-3.357-6.14-5.234-.821-1.79-1.027-2.51-1.192-3.407-.182-1.25-.197-1.416-.215-1.61l-.047-.588-.037-.645-.035-1.042-.012-1.152v-28.741l.005-.785.027-1.075.031-.656c.032-.549.075-1.042.128-1.49.335-2.038.572-2.743.843-3.39 1.59-3.099 3.118-4.545 5.01-5.557 2.704-1.046 3.594-1.245 4.447-1.348l.19-.022.095-.01.568-.052.625-.043 1.002-.043.746-.016h45.824l.765.01 1.043.035.94.059.573.053c.993.103 1.787.258 2.474.453 4.383 2.025 5.767 3.569 6.764 5.433 1.06 2.53 1.247 3.466 1.38 4.732l.053.573.058.926q.016.34.027.709l.015.726.005.782v28.73q0 .414-.005.796l-.015.732-.042.99q-.02.338-.044.648l-.052.556c-.136 1.306-.36 2.27-.651 3.1-1.824 3.72-3.358 5.135-5.235 6.138-2.53 1.06-3.466 1.248-4.732 1.38l-.573.054-.926.058q-.34.016-.709.027l-.732.015z" style="stroke:#fff;stroke-width:4;stroke-miterlimit:4;stroke-dasharray:none;stroke-opacity:1;fill:#4d74a7;fill-opacity:1"/><path fill="#78c800" d="M147.293 191.686v-53.741l22.327-.033c4.35-.006 5.927.453 7.518 1.303a8.87 8.87 0 0 1 3.689 3.69c.85 1.59 1.303 3.167 1.303 7.517v28.753c0 4.35-.453 5.928-1.303 7.518a8.87 8.87 0 0 1-3.69 3.69c-1.59.85-3.167 1.303-7.517 1.303z" style="fill:#ff4b4b;fill-opacity:1;fill-rule:nonzero;stroke:none;stroke-width:.995811"/><path d="m181.99 151.707-27.628 12.158v2.502l27.618-5.925Z" style="fill:#1254a9;fill-opacity:1;stroke:#1254a9;stroke-width:.281504px;stroke-linecap:butt;stroke-linejoin:miter;stroke-opacity:1"/><path d="m112.62 160.974 27.514 5.304v-2.502l-27.513-12.067zm3.978-20.988 21.829 20.55 1.495-2.005-10.397-20.45c-3.827-.044-11.029-.39-12.927 1.905z" style="fill:#ff4b4b;fill-opacity:1;stroke:#ff4b4b;stroke-width:.281504px;stroke-linecap:butt;stroke-linejoin:miter;stroke-opacity:1"/><path d="m178.533 140.31-22.565 20.35-1.55-1.974 10.405-20.69c4.126-.104 11.345-.348 13.71 2.315z" style="fill:#1254a9;fill-opacity:1;stroke:#1254a9;stroke-width:.28293px;stroke-linecap:butt;stroke-linejoin:miter;stroke-opacity:1"/><circle cx="147.308" cy="164.807" r="8.755" style="fill:#ffc800;fill-opacity:1;stroke:#ffc800;stroke-width:2.43918;stroke-miterlimit:4;stroke-dasharray:none;stroke-opacity:1"/><path d="m112.632 170.306 27.37-2.13v2.646l-27.334 10.403c-.074-1.775-.036-10.919-.036-10.919z" style="fill:#ff4b4b;fill-opacity:1;stroke:#ff4b4b;stroke-width:.289511px;stroke-linecap:butt;stroke-linejoin:miter;stroke-opacity:1"/><path d="m181.99 169.698-27.628-1.716v2.501l27.618 10.597Z" style="fill:#1254a9;fill-opacity:1;stroke:#1254a9;stroke-width:.281504px;stroke-linecap:butt;stroke-linejoin:miter;stroke-opacity:1"/><path fill="#ffc800" d="m150.91 165.205 31.204 15.973c-.062 1.024-.15 3.542-1.154 5.292-.902 1.57-1.96 2.945-3.558 3.799s-3.087 1.419-7.456 1.419h-44.874c-4.368 0-5.703-.344-7.55-1.326-1.598-.85-2.914-2.13-3.71-3.652 0 0-1.47-2.157-1.47-5.482l31.894-16.023c3.096-1.788 3.548-1.805 6.674 0" style="fill:#eeeee0;fill-opacity:1;fill-rule:nonzero;stroke:none;stroke-width:1"/><path d="M144.711 184.036a2.517 2.517 0 0 1 2.522-2.512 2.517 2.517 0 0 1 2.512 2.522 2.517 2.517 0 0 1-2.522 2.512 2.517 2.517 0 0 1-2.512-2.522" style="opacity:.98;fill:#ff9600;fill-opacity:1;stroke:#ffc800;stroke-width:3.457;stroke-linejoin:round;stroke-miterlimit:3.3;stroke-dasharray:none;stroke-opacity:1;paint-order:stroke fill markers"/><rect width="7.436" height="6.997" x="143.51" y="169.507" rx="1.267" ry="2.934" style="opacity:.98;fill:#ff4b4b;fill-opacity:1;stroke:none;stroke-width:3.64045;stroke-linejoin:round;stroke-miterlimit:3.3;stroke-dasharray:none;stroke-opacity:1;paint-order:stroke fill markers"/><path fill="#1254a9" d="M137.95 175.764c-.275-1.155-1.595-1.582-2.655-1.048l-12.681 6.382c-1.06.534-1.504 1.848-.74 2.757a9.248 9.248 0 0 0 16.076-8.091m36.802 8.177c.77-.902.337-2.22-.718-2.762l-12.63-6.485c-1.055-.542-2.379-.126-2.663 1.027a9.248 9.248 0 0 0 16.011 8.22" style="fill:#78c800;fill-opacity:1;stroke-width:2.22067" transform="translate(-1.089)"/><g transform="translate(12.761 14.277)scale(.91337)"><path fill="#1254a9" stroke="#fff" stroke-width="4" d="M124.987 193.667c-.275 0-.54 0-.795-.01l-.731-.015-.991-.042q-.338-.02-.648-.044l-.556-.051c-1.305-.137-2.27-.36-3.099-.652-3.72-1.823-5.135-3.357-6.14-5.234-.821-1.79-1.027-2.51-1.192-3.407-.182-1.25-.197-1.416-.215-1.61l-.047-.588-.037-.645-.035-1.042-.012-1.152v-28.741l.005-.785.027-1.075.031-.656c.032-.549.075-1.042.128-1.49.335-2.038.572-2.743.843-3.39 1.59-3.099 3.118-4.545 5.01-5.557 2.704-1.046 3.594-1.245 4.447-1.348l.19-.022.095-.01.568-.052.625-.043 1.002-.043.746-.016h45.824l.765.01 1.043.035.94.059.573.053c.993.103 1.787.258 2.474.453 4.383 2.025 5.767 3.569 6.764 5.433 1.06 2.53 1.247 3.466 1.38 4.732l.053.573.058.926q.016.34.027.709l.015.726.005.782v28.73q0 .414-.005.796l-.015.732-.042.99q-.02.338-.044.648l-.052.556c-.136 1.306-.36 2.27-.651 3.1-1.824 3.72-3.358 5.135-5.235 6.138-2.53 1.06-3.466 1.248-4.732 1.38l-.573.054-.926.058q-.34.016-.709.027l-.732.015z" style="stroke:#ffc800;stroke-width:4;stroke-miterlimit:4;stroke-dasharray:none;stroke-opacity:1"/><path fill="#78c800" d="M147.293 191.686v-53.741l22.327-.033c4.35-.006 5.927.453 7.518 1.303a8.87 8.87 0 0 1 3.689 3.69c.85 1.59 1.303 3.167 1.303 7.517v28.753c0 4.35-.453 5.928-1.303 7.518a8.87 8.87 0 0 1-3.69 3.69c-1.59.85-3.167 1.303-7.517 1.303z" style="fill:#ff4b4b;fill-opacity:1;fill-rule:nonzero;stroke:none;stroke-width:.995811"/><path d="m181.99 151.707-27.628 12.158v2.502l27.618-5.925Z" style="fill:#1254a9;fill-opacity:1;stroke:#1254a9;stroke-width:.281504px;stroke-linecap:butt;stroke-linejoin:miter;stroke-opacity:1"/><path d="m112.62 160.974 27.514 5.304v-2.502l-27.513-12.067zm3.978-20.988 21.829 20.55 1.495-2.005-10.397-20.45c-3.827-.044-11.029-.39-12.927 1.905z" style="fill:#ff4b4b;fill-opacity:1;stroke:#ff4b4b;stroke-width:.281504px;stroke-linecap:butt;stroke-linejoin:miter;stroke-opacity:1"/><path d="m178.533 140.31-22.565 20.35-1.55-1.974 10.405-20.69c4.126-.104 11.345-.348 13.71 2.315z" style="fill:#1254a9;fill-opacity:1;stroke:#1254a9;stroke-width:.28293px;stroke-linecap:butt;stroke-linejoin:miter;stroke-opacity:1"/><circle cx="147.308" cy="164.807" r="8.755" style="fill:#ffc800;fill-opacity:1;stroke:#ffc800;stroke-width:2.43918;stroke-miterlimit:4;stroke-dasharray:none;stroke-opacity:1"/><path d="m112.632 170.306 27.37-2.13v2.646l-27.334 10.403c-.074-1.775-.036-10.919-.036-10.919z" style="fill:#ff4b4b;fill-opacity:1;stroke:#ff4b4b;stroke-width:.289511px;stroke-linecap:butt;stroke-linejoin:miter;stroke-opacity:1"/><path d="m181.99 169.698-27.628-1.716v2.501l27.618 10.597Z" style="fill:#1254a9;fill-opacity:1;stroke:#1254a9;stroke-width:.281504px;stroke-linecap:butt;stroke-linejoin:miter;stroke-opacity:1"/><path fill="#ffc800" d="m150.91 165.205 31.204 15.973c-.062 1.024-.15 3.542-1.154 5.292-.902 1.57-1.96 2.945-3.558 3.799s-3.087 1.419-7.456 1.419h-44.874c-4.368 0-5.703-.344-7.55-1.326-1.598-.85-2.914-2.13-3.71-3.652 0 0-1.47-2.157-1.47-5.482l31.894-16.023c3.096-1.788 3.548-1.805 6.674 0" style="fill:#eeeee0;fill-opacity:1;fill-rule:nonzero;stroke:none;stroke-width:1"/><path d="M144.711 184.036a2.517 2.517 0 0 1 2.522-2.512 2.517 2.517 0 0 1 2.512 2.522 2.517 2.517 0 0 1-2.522 2.512 2.517 2.517 0 0 1-2.512-2.522" style="opacity:.98;fill:#ff9600;fill-opacity:1;stroke:#ffc800;stroke-width:3.457;stroke-linejoin:round;stroke-miterlimit:3.3;stroke-dasharray:none;stroke-opacity:1;paint-order:stroke fill markers"/><rect width="7.436" height="6.997" x="143.51" y="169.507" rx="1.267" ry="2.934" style="opacity:.98;fill:#ff4b4b;fill-opacity:1;stroke:none;stroke-width:3.64045;stroke-linejoin:round;stroke-miterlimit:3.3;stroke-dasharray:none;stroke-opacity:1;paint-order:stroke fill markers"/><path fill="#1254a9" d="M137.95 175.764c-.275-1.155-1.595-1.582-2.655-1.048l-12.681 6.382c-1.06.534-1.504 1.848-.74 2.757a9.248 9.248 0 0 0 16.076-8.091m36.802 8.177c.77-.902.337-2.22-.718-2.762l-12.63-6.485c-1.055-.542-2.379-.126-2.663 1.027a9.248 9.248 0 0 0 16.011 8.22" style="fill:#78c800;fill-opacity:1;stroke-width:2.22067" transform="translate(-1.089)"/></g></g></svg>