<svg xmlns="http://www.w3.org/2000/svg" xml:space="preserve" id="svg5" x="0" y="0" viewBox="0 0 221.1 175.7"><style>.st1{fill:#1cb0f6}.st2{fill:#4c4c4c}</style><g id="layer1" transform="translate(-2 -200)"><path id="path2787" d="M176.1 205.6H48.9c-14 0-19 1.7-24.1 4.4-5.5 3-9.9 7.3-12.8 12.8-2.7 5.1-4.4 10.1-4.4 24.1v81.8c0 14 1.7 19 4.4 24.1 3 5.5 7.3 9.9 12.8 12.8 5.1 2.7 10.1 4.4 24.1 4.4h127.2c14 0 19-1.7 24.1-4.4 5.5-3 9.9-7.3 12.8-12.8 2.7-5.1 4.4-10.1 4.4-24.1v-81.8c0-14-1.7-19-4.4-24.1-3-5.5-7.3-9.9-12.8-12.8-5.2-2.7-10.2-4.4-24.1-4.4z" style="fill:#ff9600;stroke:#fff;stroke-width:11.3386;stroke-miterlimit:11.3386"/></g><g id="ru"><g id="g2884" transform="translate(6 6)"><path id="path2880" d="M203.8 107.4v15.4c0 12.4-1.3 16.9-3.7 21.4s-6 8.1-10.5 10.5-9 3.7-21.4 3.7H41c-12.4 0-16.9-1.3-21.4-3.7s-8.1-6-10.5-10.5-3.7-9-3.7-21.4v-15.4z" class="st1"/><path id="path2882" d="M41 5.3h127.2c12.4 0 16.9 1.3 21.4 3.7s8.1 6 10.5 10.5 3.7 9 3.7 21.4v15.4H5.3V41c0-12.4 1.3-16.9 3.7-21.4S15 11.5 19.5 9 28.6 5.3 41 5.3" class="st1"/></g></g><g id="ko"><g id="g2851" transform="translate(6 6)"><path id="path2845" d="M103.5 60.7c2 0 3.7 1.6 3.7 3.7 0 2-1.7 3.7-3.7 3.7l-35 .2c-2 0-3.7-1.6-3.7-3.7 0-2 1.7-3.7 3.7-3.7z" class="st2"/></g></g><g id="ko_1_"><g id="g2851_1_" transform="translate(6 6)"><path id="path2845_1_" d="M140.7 95.5c2 0 3.7 1.6 3.7 3.7 0 2-1.7 3.7-3.7 3.7l-35 .2c-2 0-3.7-1.6-3.7-3.7 0-2 1.7-3.7 3.7-3.7z" class="st2"/></g></g><g id="ko_2_"><g id="g2851_2_" transform="translate(6 6)"><path id="path2845_2_" d="M100.8 64.3c0-2 1.6-3.7 3.7-3.7 2 0 3.7 1.7 3.7 3.7l.2 35c0 2-1.6 3.7-3.7 3.7-2 0-3.7-1.7-3.7-3.7z" class="st2"/></g></g></svg>