<svg xmlns="http://www.w3.org/2000/svg" width="78" height="62"><path fill="#eee" stroke="#fff" stroke-width="4" d="M61.437 2H16.563c-4.935 0-6.696.585-8.493 1.545A10.9 10.9 0 0 0 3.545 8.07C2.585 9.867 2 11.628 2 16.563v28.874c0 4.935.585 6.696 1.545 8.493a10.9 10.9 0 0 0 4.525 4.525c1.797.96 3.558 1.545 8.493 1.545h44.874c4.935 0 6.696-.585 8.493-1.545a10.9 10.9 0 0 0 4.525-4.525c.96-1.797 1.545-3.558 1.545-8.493V16.563c0-4.935-.585-6.696-1.545-8.493a10.9 10.9 0 0 0-4.525-4.525C68.133 2.585 66.372 2 61.437 2Z" style="fill:#eee;fill-opacity:1;fill-rule:nonzero"/><g paint-order="fill markers stroke"><circle cx="39" cy="30.952" r="20.661" fill="#e00" style="fill:#ff4b4b;fill-opacity:1;stroke-width:3.78;stroke:none;stroke-dasharray:none"/><ellipse cx="39" cy="26.838" fill="#fff" rx="14.128" ry="14.44" style="fill:#eee;fill-opacity:1;stroke-width:3.77951;stroke:none"/><ellipse cx="39" cy="23.654" fill="#e00" rx="9.284" ry="9.269" style="fill:#ff4b4b;fill-opacity:1;stroke-width:3.78;stroke:none;stroke-dasharray:none"/></g></svg>