<svg xmlns="http://www.w3.org/2000/svg" width="78" height="62">
<rect x="4" y="4" width="70" height="54" fill="#1cb0f6"/>
<circle cx="39" cy="31" r="17" fill="#eee"/>
<path d="M49.096 29.576c-3.378 1.913-1.666.846-3.952 2.297-.744.619-1.365.927-1.811 1.452-1.066.825-.79 2.222-1.416 3.476-.073.17-.35.482-.592.702-1.042.945-2.491.578-2.94-.763-.825-2.477-2.627-3.53-4.94-4.316-3.28-1.115-2.278-.834-5.46-2.222-.77-.335-.942-.439-2.45-1.284-1.387-.832-1.286-1.145-.965-1.217-.614-.254.9.366 1.08.465 2.741 1.214 2.72 1.34 6.453 2.52 1.772.56 4.464 1.63 5.893 2.294.331.154 1.588.85 2.044.794 1.207-.143 1.756-1.041 2.825-1.687 2.669-1.411 3.036-1.95 5.106-2.935 3.512-1.672 3.134-1.738 4.408-2.235.248-.097.977-.467 1.252-.308.016.31-.312.458-.544.583-.815.636-.432.402-2.899 1.729z" fill="#1cb0f6"/>
<rect x="2" y="2" width="74" height="58" rx="10" fill="none" stroke="#fff" stroke-width="4"/>
</svg>
