<svg xmlns="http://www.w3.org/2000/svg" width="78" height="62">
<rect x="4" y="4" width="70" height="54" fill="#ff4b4b"/>
<rect x="4" y="4" width="70" height="8" fill="#ffc800"/>
<rect x="4" y="50" width="70" height="8" fill="#47a600"/>
<path fill="#fff" d="m 45.315,24.612 a 5.2,5.2 0 0 0 -1.266,-0.183 6.571,6.571 0 1 0 0,13.142 q 0.548,0 1.266,-0.183 a 0.548,0.548 0 0 1 0.45,0.978 q -1.983,1.395 -5.002,1.395 a 8.761,8.761 0 1 1 0,-17.522 q 3.02,0 5.002,1.395 a 0.548,0.548 0 0 1 -0.45,0.978"/>
<rect x="4" y="15" width="70" height="5" fill="#eee"/>
<rect x="4" y="42" width="70" height="5" fill="#eee"/>
<rect x="2" y="2" width="74" height="58" rx="10" fill="none" stroke="#fff" stroke-width="4"/>
</svg>