<svg xmlns="http://www.w3.org/2000/svg" width="78" height="62">
<rect x="4" y="4" width="70" height="54" fill="#ff4b4b"/>
<rect x="4" y="4" width="35" height="31" fill="#1cb0f6"/>
<path d="m 20.491625,11.685375 q 0.1275,-0.02738 0.25575,-0.05075 c 0.4075,-0.07375 1.08,-0.09875 1.491625,-0.055 q 0.1,0.01062 0.1995,0.02375 c 0.4105,0.05387 0.655,-0.192875 0.554125,-0.5945 -1.800375,-7.163 -1.326625,-6.422 -3.034375,0.14375 -0.10425,0.40075 0.128625,0.62 0.533375,0.53275 m -3.74925,1.511375 A 7.975,7.975 0 0 1 18.4305,12.253875 C 18.81375,12.09725 18.9,11.7655 18.60925,11.4705 13.5605,6.3485 14.109,6.189125 15.962375,12.9435 c 0.1095,0.399375 0.44575,0.4975 0.78,0.25325 m 7.880875,-1.007875 a 7.975,7.975 0 0 1 1.636875,0.945 c 0.3315,0.24825 0.666625,0.153125 0.7775,-0.246 1.910875,-6.876125 2.22375,-6.367 -2.58825,-1.493375 -0.290875,0.29475 -0.20675,0.63125 0.173875,0.794375 M 14.241,16.44425 a 7.975,7.975 0 0 1 0.942125,-1.68775 c 0.244125,-0.334375 0.14625,-0.67325 -0.2525,-0.785125 -7.0215,-1.968625 -6.377125,-2.1895 -1.471875,2.65125 0.294625,0.290875 0.62575,0.205 0.78225,-0.178375 M 27.861125,14.735 a 7.975,7.975 0 0 1 0.945,1.636875 c 0.163125,0.3805 0.501125,0.465875 0.79675,0.17575 C 34.697,11.548375 34.711125,12.1465 28.10775,13.960375 27.708375,14.07 27.613,14.4035 27.861125,14.735 M 13.139,17.96975 c -7.10225,1.83125 -6.807375,1.28875 0.0013,3.067875 0.4005,0.104625 0.6195,-0.128125 0.532,-0.532875 a 8,8 0 0 1 -0.05113,-0.257125 c -0.074,-0.4075 -0.074,-1.07875 1.25e-4,-1.48625 q 0.02337,-0.128375 0.051,-0.256 C 13.75975,18.10075 13.540125,17.86625 13.139,17.96975 m 16.25275,0.586875 q 0.01313,0.0995 0.02375,0.1995 c 0.04375,0.41175 0.01875,1.084125 -0.05538,1.4915 a 8,8 0 0 1 -0.05125,0.257125 c -0.08738,0.40475 0.131625,0.637125 0.53225,0.531875 6.93875,-1.82375 6.977625,-1.2375 0.14275,-3.026 -0.400625,-0.104875 -0.646125,0.1355 -0.592125,0.546 m -15.934,3.82925 c -5.12025,5.047625 -5.283125,4.50075 1.471875,2.646875 0.39925,-0.1095 0.497625,-0.445875 0.2535,-0.78025 A 7.975,7.975 0 0 1 14.241,22.56475 c -0.1565,-0.383375 -0.48825,-0.469625 -0.78325,-0.178875 m 15.2835,0.17875 a 7.975,7.975 0 0 1 -0.942875,1.688 C 27.554,24.587 27.65175,24.92575 28.0505,25.037625 c 7.02125,1.96775 6.37975,2.190875 1.47325,-2.65125 -0.29475,-0.290875 -0.625875,-0.205 -0.7825,0.17825 M 15.9575,26.0645 c -1.968625,7.021375 -2.1895,6.377125 2.65125,1.471875 0.290875,-0.29475 0.205,-0.62575 -0.178375,-0.78225 A 7.975,7.975 0 0 1 16.742625,25.812 C 16.408125,25.567875 16.06925,25.665625 15.9575,26.0645 M 26.238625,25.812 a 7.975,7.975 0 0 1 -1.687875,0.942125 c -0.383375,0.1565 -0.469625,0.488125 -0.17875,0.783125 5.0475,5.120375 4.500625,5.283125 2.646875,-1.47175 C 26.90925,25.666125 26.573,25.567875 26.238625,25.812 m -6.283875,2.044 c 1.8325,7.10125 1.28975,6.8085 3.067875,-0.001 0.104625,-0.400625 -0.12825,-0.6195 -0.533,-0.532125 q -0.1275,0.0275 -0.255875,0.051 c -0.4075,0.07412 -1.078875,0.07425 -1.48625,0 a 8,8 0 0 1 -0.25725,-0.051 c -0.404625,-0.0875 -0.639,0.132125 -0.5355,0.533125" style="fill:#eeeeee;fill-opacity:1;stroke:none;stroke-width:0.125" />
<circle cx="21.500128" cy="19.499874" r="6.75" style="fill:#eeeeee;fill-opacity:1;stroke:#000000;stroke-width:0;stroke-dasharray:none;stroke-opacity:0.0588235" />
<rect x="2" y="2" width="74" height="58" rx="10" fill="none" stroke="#fff" stroke-width="4"/>
</svg>
