<svg xmlns="http://www.w3.org/2000/svg" width="78" height="62">
<rect x="4" y="4" width="70" height="54" fill="#eee"/>
<path fill="#ff4c4c" stroke="#ff4c4c" stroke-width="0.6" d="m 37.335232,16.593526 c -1.612275,0 -2.015278,0 -2.015278,-0.605952 1.813645,0 1.612011,-0.962628 1.410642,-1.616578 -0.201634,-0.65395 -2.216912,-0.605952 -2.418281,-0.605952 -0.201369,0 -0.201633,-0.404144 0,-1.148523 0.403003,-1.552668 2.418281,-1.47815 3.627289,-1.47815 1.209008,0 1.813909,0 2.619914,0.808288 0.604637,0.808024 0.403003,1.616313 -0.403002,3.63677 -0.30364,0.761086 -0.593009,1.659273 -0.593009,3.473415 0,1.007975 1.226714,0.806433 3.680142,0.806433 2.453428,0 3.475601,-1.814142 3.475601,-2.822116 0,-1.007975 -0.817897,-1.814408 -1.022173,-2.015949 -0.204541,-0.201542 -1.635795,-0.604626 -0.613357,-1.209517 1.022173,-0.604625 2.453163,-1.007974 4.088694,-0.806433 1.635795,0.201542 3.680142,2.01595 3.680142,4.434982 v 16.338947 c 0,1.007709 -0.613357,0.806167 -1.226714,0.201542 -0.490739,-0.483966 -4.157139,-3.964806 -5.928765,-5.644499 -1.840071,-2.015949 -2.862245,-2.015949 -2.862245,-0.201807 v 3.830356 c 0,1.209517 1.022174,2.01595 1.635531,2.620575 0.490474,0.483966 1.051242,2.889474 2.277956,4.031898 0.340901,0.201542 1.063135,0.725816 1.226714,1.209517 0.16358,0.483965 -0.06818,0.60489 -0.20454,0.60489 h -3.066521 c -0.20454,0 -0.408816,-1.007974 0.613357,-1.814407 -0.654318,-0.645199 -1.801224,-3.628549 -3.300394,-5.039872 -1.226714,-1.209517 -1.635531,-0.403084 -1.635531,0.201807 v 3.830091 c 0,1.007974 0.613357,1.411058 1.226714,2.015949 0.613357,0.604625 0.817633,1.209516 0,1.209516 h -5.683792 c -0.806005,0 -0.604372,-0.606217 0,-1.212168 0.604636,-0.606217 1.209273,-1.010361 1.209273,-2.020457 v -3.838843 c 0,-0.606216 -0.403003,-1.41424 -1.612276,-0.202072 -1.477765,1.414241 -2.982484,4.404486 -3.627289,5.051011 1.007639,0.808289 0.806006,1.818385 0.604372,1.818385 h -3.022653 c -0.13451,0 -0.362834,-0.121191 -0.201633,-0.605952 0.161201,-0.484761 0.873393,-1.010361 1.209272,-1.212433 1.209009,-1.144811 2.136047,-3.555888 2.61965,-4.040915 0.604637,-0.605951 1.612276,-1.41424 1.612276,-2.626409 v -3.838842 c 0,-1.818385 -1.007639,-1.818385 -2.821284,0.202072 -1.746521,1.683671 -5.360597,5.172201 -5.8442,5.657228 -0.604637,0.605951 -1.209273,0.808023 -1.209273,-0.202073 V 17.401814 c 0,-2.424601 2.015278,-4.242986 3.627553,-4.445058 1.612011,-0.202073 3.022653,0.202072 4.030292,0.808288 1.007639,0.606217 -0.403003,1.010362 -0.604372,1.212169 -0.201633,0.202072 -1.007639,1.010361 -1.007639,2.020457 0,1.010361 1.007639,2.828481 3.42592,2.828481 2.418281,0 3.627289,0.202072 3.627289,-0.808024 0,-1.818385 0.201634,-2.424601 -0.604372,-2.424601 z" id="path2" />
<path fill="#58cc02" d="m 25.180141,43.036349 a 5.285282,5.3037334 0 0 1 4.620129,-2.727975 h 18.092577 a 5.285282,5.3037334 0 0 1 4.620129,2.727975 l 3.775013,6.818745 H 21.405128 Z" id="path3" style="stroke-width:0.264725" />
<path fill="#1cb0f6" d="m 4.0331987,47.338207 c 6.4797553,-3.754247 8.2994783,-3.815771 14.8854683,0 4.892585,2.834581 9.330901,2.931639 14.39103,0 6.2842,-3.641013 10.203501,-3.779175 16.726596,0 5.369318,3.110905 8.982601,3.234217 14.564916,0 4.585246,-2.65664 7.522806,-4.035876 9.280162,-2.651866 2.65e-4,1.293315 0.0148,3.77944 -0.07294,3.71553 -2.395026,-1.387457 -5.989018,1.023355 -9.286769,3.18224 -5.308273,3.07537 -9.211454,3.005361 -14.39843,0 -6.177173,-3.578694 -10.583513,-3.485614 -16.600014,0 -5.360333,3.105601 -9.669952,3.128938 -15.070717,0 -6.119564,-3.545281 -7.827503,-3.471824 -13.8199553,0 -0.5972369,-1.990756 -0.4558556,-2.912015 -0.599351,-4.245904" id="path5" style="stroke-width:0.264725" />
<rect x="2" y="2" width="74" height="58" rx="10" fill="none" stroke="#fff" stroke-width="4"/>
</svg>