<svg xmlns="http://www.w3.org/2000/svg" width="78" height="62" viewBox="0 0 78 62">
  <path
    fill="#1cb0f6"
    stroke="#fff"
    stroke-width="4"
    d="M61.437 2H16.563c-4.935 0-6.696.585-8.493 1.545A10.9 10.9 0 0 0 3.545 8.07C2.585 9.867 2 11.628 2 16.563v28.874c0 4.935.585 6.696 1.545 8.493a10.9 10.9 0 0 0 4.525 4.525C9.867 59.415 11.628 60 16.563 60h44.874c4.935 0 6.696-.585 8.493-1.545a10.9 10.9 0 0 0 4.525-4.525C75.415 52.133 76 50.372 76 45.437V16.563c0-4.935-.585-6.696-1.545-8.493A10.9 10.9 0 0 0 69.93 3.545C68.133 2.585 66.372 2 61.437 2Z"
  />
  <line x1="39" x2="39" y1="4" y2="58" stroke="#fff" stroke-width="8"/>
  <line x1="4" x2="74" y1="31" y2="31" stroke="#fff" stroke-width="8"/>
  <line x1="7" x2="71" y1="7" y2="55" stroke="#fff" stroke-width="8"/>
  <line x1="7" x2="71" y1="55" y2="7" stroke="#fff" stroke-width="8"/>
  <line x1="39" x2="39" y1="4" y2="58" stroke="#78c800" stroke-width="4"/>
  <line x1="4" x2="74" y1="31" y2="31" stroke="#78c800" stroke-width="4"/>
  <line x1="7" x2="71" y1="7" y2="55" stroke="#78c800" stroke-width="4"/>
  <line x1="7" x2="71" y1="55" y2="7" stroke="#78c800" stroke-width="4"/>
  <rect x="28.5" y="17.5" width="21" height="27" rx="4.5" fill="#fff"/>
  <path fill="#1cb0f6" d="M33 26a6 6 0 0 1 12 0v2H33z"/>
  <rect x="33" y="27.5" width="12" height="8.5" rx="1.8" fill="#1cb0f6"/>
  <rect x="34.5" y="29" width="9" height="5.5" rx="1.1" fill="#fff"/>
</svg>
