<?xml version="1.0" encoding="UTF-8" standalone="no"?><!DOCTYPE svg PUBLIC "-//W3C//DTD SVG 1.1//EN" "http://www.w3.org/Graphics/SVG/1.1/DTD/svg11.dtd"><svg width="100%" height="100%" viewBox="0 0 558 444" version="1.1" xmlns="http://www.w3.org/2000/svg" xmlns:xlink="http://www.w3.org/1999/xlink" xml:space="preserve" xmlns:serif="http://www.serif.com/" style="fill-rule:evenodd;clip-rule:evenodd;"><path d="M439.036,14.292l-320.676,0c-35.264,0 -47.852,4.177 -60.69,11.043c-13.94,7.456 -24.88,18.396 -32.336,32.336c-6.866,12.838 -11.043,25.425 -11.043,60.69l0,206.337c0,35.265 4.177,47.852 11.043,60.69c7.456,13.94 18.396,24.88 32.336,32.336c12.838,6.866 25.426,11.043 60.69,11.043l320.675,0c35.265,0 47.852,-4.177 60.69,-11.043c13.94,-7.455 24.88,-18.396 32.336,-32.336c6.866,-12.838 11.043,-25.425 11.043,-60.69l0,-206.338c0,-35.265 -4.177,-47.852 -11.043,-60.69c-7.455,-13.94 -18.396,-24.88 -32.336,-32.336c-12.838,-6.866 -25.425,-11.043 -60.69,-11.043l0.001,0.001Z" style="fill:#1cb0f6;fill-rule:nonzero;stroke:#fff;stroke-width:28.58px;"/><path d="M273.824,261.716c-0.355,0.152 -0.558,0.152 -0.76,0.152l0.225,-0.534l0.535,0.382Zm65.661,-143.235c2.151,5.34 4.247,10.702 6.29,16.085c0.172,0.444 0.104,0.983 0.122,1.477c0.018,0.526 -0.208,1.197 0.036,1.556c1.497,2.197 1.342,4.78 1.772,7.21c0.519,2.917 0.842,5.868 1.249,8.804c0.01,0.05 0.009,0.102 -0.003,0.152c-0.968,3.172 0.235,6.389 -0.253,9.607c-0.673,4.427 -2.863,7.807 -6.292,10.507c-0.477,0.374 -1.088,0.584 -1.548,0.974c-0.843,0.713 -0.968,1.681 -0.639,2.68c0.431,1.295 1.203,2.536 1.344,3.852c0.225,2.131 0.122,4.306 0.033,6.458c-0.043,1.008 -0.248,2.002 -0.607,2.945c-1.121,2.867 -3.036,5.053 -5.892,6.339c-0.128,0.058 -0.21,0.218 -0.338,0.288c-2.772,1.519 -2.857,1.682 -2,4.73c0.769,2.734 1.717,5.424 2.329,8.19c0.532,2.413 0.623,4.921 1.06,7.361c0.544,3.057 -0.107,5.778 -1.845,8.313c-1.308,1.905 -5.48,3.667 -7.71,3.18c-2.801,-0.612 -5.6,-1.233 -8.404,-1.826c-0.821,-0.174 -1.786,1.012 -1.906,2.37c-0.135,1.533 0.038,3.144 -0.382,4.587c-0.439,1.511 -1.143,3.152 -2.237,4.216c-1.554,1.51 -3.478,2.729 -5.424,3.72c-1.277,0.65 -3.011,0.397 -4.291,1.042c-2.31,1.164 -4.295,-0.146 -6.425,-0.332c-0.752,-0.065 -1.714,0.047 -2.252,0.482c-0.399,0.324 -0.275,1.3 -0.375,1.987l-1.223,8.35c-0.035,0.239 -0.009,0.519 -0.126,0.709c-1.164,1.905 -2.237,3.883 -3.567,5.665c-1.38,1.851 -3.641,2.204 -5.653,1.894c-4.209,-0.647 -7.708,-2.977 -10.902,-5.677c-1.232,-1.043 -2.167,-2.435 -3.28,-3.628c-0.29,-0.313 -0.804,-0.417 -1.102,-0.726c-0.829,-0.858 -1.605,-1.769 -2.387,-2.67c-2.625,-3.026 -5.255,-6.046 -7.862,-9.086c-2.928,-3.402 -5.831,-6.825 -8.71,-10.269c-0.371,-0.446 -0.336,-1.248 -0.729,-1.656c-0.443,-0.464 -1.14,-0.71 -1.77,-0.928c-0.074,-0.025 -0.611,0.741 -0.605,1.134c0.039,2.453 0.173,4.904 0.271,7.356c0.016,0.407 -0.02,0.816 0.004,1.222c0.199,3.276 0.375,6.553 0.64,9.823c0.041,0.511 0.402,1.088 0.784,1.466c3.636,3.598 7.33,7.135 10.953,10.747c0.966,0.964 1.822,2.067 2.58,3.204c0.538,0.812 1.094,1.765 1.178,2.698c0.326,3.586 0.606,3.865 4.116,4.768c6.059,1.56 12.092,3.231 18.115,4.925c2.563,0.721 5.14,1.804 7.767,0.797c1.881,-0.72 3.549,-1.989 5.325,-2.993c3.256,-1.842 6.538,-3.641 9.78,-5.508c3.703,-2.131 7.364,-4.336 11.065,-6.471c1.702,-0.98 3.403,-1.963 5.534,-1.173c2.222,0.825 3.576,3.545 2.956,5.835c-0.534,1.974 -1.612,3.196 -3.484,4.152c-3.923,2.003 -7.68,4.328 -11.497,6.538c-0.196,0.113 -0.466,0.429 -0.423,0.553c0.073,0.207 0.348,0.418 0.578,0.48c0.426,0.113 0.865,0.168 1.306,0.166c4.735,0.01 9.472,0.125 14.2,-0.045c2.259,-0.083 4.583,2.534 4.649,4.713c0.066,2.167 -2.36,4.427 -4.68,4.527c-1.347,0.058 -2.683,0.547 -4.023,0.546c-2.18,-0.002 -4.358,-0.276 -6.54,-0.385c-1.778,-0.089 -3.558,-0.11 -5.338,-0.134c-0.06,-0.001 -0.217,0.332 -0.17,0.437c0.162,0.363 0.311,0.839 0.613,1.01c1.188,0.674 2.454,1.206 3.65,1.867c2.902,1.603 5.825,3.178 8.656,4.9c2.322,1.415 3.619,4.088 2.826,6c-1.19,2.873 -4.478,4.847 -8.014,2.787c-4.308,-2.51 -8.58,-5.082 -12.895,-7.58c-4.143,-2.398 -8.349,-4.686 -12.466,-7.126c-1.503,-0.892 -2.749,-0.511 -4.059,0.237c-4.362,2.496 -8.71,5.017 -13.088,7.483c-1.807,1.025 -3.652,1.981 -5.532,2.866c-2.198,1.026 -3.946,0.67 -5.431,-1.036c-1.014,-1.162 -1.947,-2.293 -1.59,-3.894c0.401,-1.797 1.61,-3.093 3.164,-3.993c3.608,-2.086 7.26,-4.098 10.881,-6.161c0.218,-0.124 0.332,-0.432 0.495,-0.654c-0.207,-0.083 -0.408,-0.189 -0.623,-0.245c-4.633,-1.227 -9.272,-2.439 -13.902,-3.677c-0.955,-0.254 -1.877,-0.637 -2.831,-0.901c-2.305,-0.639 -4.453,-0.345 -6.547,0.904c-4.506,2.686 -8.957,1.8 -13,-0.9c-3.523,-2.353 -6.711,-5.206 -10.061,-7.82c-1.648,-1.287 -3.346,-2.509 -4.982,-3.81c-0.665,-0.529 -1.184,-1.241 -1.853,-1.765c-0.258,-0.203 -0.811,-0.253 -1.111,-0.115c-0.276,0.127 -0.556,0.605 -0.552,0.923c0.062,3.775 -0.022,7.571 0.338,11.321c0.341,3.539 0.887,7.111 1.852,10.524c0.977,3.456 3.558,5.674 7.102,6.608c5.049,1.331 10.059,2.852 15.169,3.887c2.632,0.534 5.208,0.88 6.99,3.042c2.487,3.015 3.435,6.54 2.374,10.327c-0.731,2.612 -2.95,4.241 -5.992,4.419c-4.188,0.244 -8.408,0.193 -12.566,0.683c-4.249,0.503 -8.558,1.071 -12.473,3.018c-1.319,0.655 -2.826,1.356 -3.656,2.475c-1.267,1.708 -2.487,3.593 -2.53,5.916c-0.077,4.234 -0.16,8.468 -0.307,12.701c-0.199,5.678 -3.435,9.122 -8.606,11.278c-2.394,0.999 -4.588,0.538 -6.864,-0.311c-3.333,-1.243 -6.303,-2.92 -8.354,-5.965c-1.734,-2.575 -2.196,-5.479 -2.429,-8.462c-0.314,-3.997 -0.435,-8.019 -0.974,-11.983c-0.444,-3.27 -3.057,-4.908 -5.867,-5.946c-5.295,-1.971 -10.914,-2.924 -16.563,-2.811c-3.059,0.058 -6.134,-0.063 -9.184,-0.314c-2.237,-0.184 -4.433,-0.838 -6.207,-2.294c-2.773,-2.277 -2.705,-5.823 -0.892,-9.127c2.143,-3.905 5.965,-5.349 9.902,-6.549c3.847,-1.172 7.755,-2.15 11.574,-3.404c3.019,-0.991 6.159,-2.024 8.353,-4.431c1.264,-1.385 2.233,-3.24 2.759,-5.052c0.878,-3.029 1.393,-6.176 1.873,-9.303c0.365,-2.385 0.498,-4.811 0.624,-7.226c0.096,-1.844 0.024,-3.698 0.013,-5.548c-0.001,-0.254 -0.083,-0.507 -0.127,-0.761c-0.211,0.095 -0.451,0.151 -0.625,0.291c-1.114,0.887 -2.259,1.742 -3.308,2.702c-4.176,3.829 -8.376,7.635 -12.46,11.562c-3.518,3.381 -7.736,4.303 -12.343,3.683c-1.432,-0.192 -2.8,-1.081 -4.126,-1.786c-1.661,-0.882 -3.178,-0.94 -5.048,-0.353c-5.152,1.618 -10.406,2.908 -15.612,4.358c-0.558,0.156 -1.06,0.518 -1.588,0.784c0.46,0.345 0.89,0.739 1.383,1.025c3.525,2.052 7.117,3.995 10.577,6.15c1.975,1.231 2.397,3.371 2.005,5.501c-0.296,1.603 -1.677,2.304 -3.103,3.093c-2.311,1.279 -3.878,-0.096 -5.55,-1.031c-4.885,-2.735 -9.701,-5.59 -14.545,-8.395c-0.614,-0.356 -1.327,-0.592 -1.847,-1.052c-1.855,-1.642 -3.539,-1.065 -5.395,0.082c-4.77,2.948 -9.6,5.801 -14.43,8.654c-3.348,1.979 -6.757,3.855 -10.094,5.852c-2.151,1.287 -5.1,1.22 -6.433,-0.48c-1.058,-1.348 -1.963,-2.912 -1.444,-4.745c0.466,-1.644 1.614,-2.73 3.14,-3.568c4.113,-2.257 8.162,-4.635 12.228,-6.98c0.3,-0.173 0.532,-0.468 0.795,-0.707c-0.37,-0.177 -0.744,-0.515 -1.11,-0.506c-1.791,0.043 -3.58,0.217 -5.371,0.267c-1.747,0.051 -3.496,0.051 -5.243,0c-1.436,-0.043 -2.867,-0.254 -4.302,-0.28c-2.702,-0.049 -4.646,-1.826 -4.76,-4.249c-0.171,-3.67 2.214,-5.068 4.707,-5.213c3.058,-0.179 6.125,-0.312 9.187,-0.29c1.75,0.013 3.493,0.412 5.247,0.549c0.431,0.033 0.89,-0.274 1.336,-0.427c-0.298,-0.356 -0.528,-0.842 -0.908,-1.05c-1.946,-1.065 -4.068,-1.862 -5.87,-3.122c-2.684,-1.877 -5.884,-2.998 -8.03,-5.698c-1.661,-2.092 -1.082,-4.476 0.869,-6.27c2.574,-2.366 4.577,-1.276 6.894,0.088c4.657,2.742 9.373,5.385 14.051,8.094c2.999,1.739 6.016,3.454 8.946,5.306c3.103,1.962 6.197,2.109 9.665,0.932c4.21,-1.43 8.562,-2.445 12.856,-3.624c2.653,-0.729 5.319,-1.409 7.969,-2.149c1.472,-0.411 2.255,-1.325 2.46,-2.951c0.434,-3.436 2.347,-5.953 5.017,-8.153c2.191,-1.803 3.981,-4.097 5.94,-6.181c1.085,-1.157 2.184,-2.304 3.211,-3.51c0.356,-0.417 0.699,-0.991 0.73,-1.513c0.167,-2.804 0.397,-5.621 0.293,-8.421c-0.121,-3.239 -0.557,-6.468 -0.91,-9.696c-0.017,-0.144 -0.752,-0.409 -0.85,-0.313c-0.729,0.728 -1.442,1.486 -2.05,2.318c-2.366,3.237 -4.61,6.565 -7.051,9.742c-2.328,3.03 -4.464,6.253 -7.634,8.547c-0.372,0.268 -0.498,0.854 -0.848,1.173c-1.686,1.53 -3.324,3.134 -5.138,4.5c-2.442,1.838 -4.735,3.883 -7.68,5.034c-3.519,1.374 -8.318,-0.23 -10.025,-3.636c-1.12,-2.236 -2.289,-4.406 -2.794,-6.954c-0.386,-1.955 -1.587,-3.33 -4.168,-3.24c-4.262,0.147 -8.366,-0.734 -11.876,-3.33c-2.439,-1.804 -4.199,-4.137 -4.6,-7.281c-0.079,-0.623 -0.077,-1.299 -0.342,-1.838c-0.199,-0.407 -0.766,-0.895 -1.169,-0.895c-1.994,0.005 -4.002,0.048 -5.978,0.292c-2,0.247 -3.83,-0.039 -5.69,-0.806c-2.911,-1.201 -4.401,-3.671 -6.115,-6.075c-2.09,-2.928 -2.484,-6.23 -3.054,-9.604c-0.55,-3.252 0.041,-6.35 0.51,-9.495c0.234,-1.577 0.799,-3.175 0.652,-4.708c-0.078,-0.834 -1.232,-1.713 -2.09,-2.29c-1.406,-0.946 -3.194,-1.416 -4.411,-2.534c-2.183,-2.002 -4.112,-4.405 -4.319,-7.504c-0.18,-2.687 0.085,-5.413 0.287,-8.112c0.055,-0.755 0.5,-1.527 0.91,-2.202c1.039,-1.705 0.79,-2.748 -0.97,-3.68c-1.545,-0.819 -3.074,-1.667 -4.624,-2.479c-3.302,-1.73 -4.177,-4.894 -4.474,-8.16c-0.646,-7.127 1.28,-13.797 4.016,-20.303c1.603,-3.814 2.873,-7.771 4.53,-11.56c1.374,-3.159 2.945,-6.229 4.705,-9.191c2.356,-3.933 4.859,-7.777 7.504,-11.522c2.079,-2.953 4.308,-5.828 6.736,-8.498c2.036,-2.239 4.422,-4.167 6.72,-6.155c0.759,-0.656 1.711,-1.105 2.794,-0.522c0.189,0.102 0.524,0.118 0.704,0.018c2.29,-1.29 4.877,-1.123 7.34,-1.424c3.151,-0.387 6.35,-0.699 9.512,-0.59c3.557,0.122 7.183,0.396 10.621,1.246c4.237,1.049 8.35,2.656 12.433,4.236c1.704,0.659 3.178,1.9 4.784,2.827c2.916,1.681 5.72,3.464 8.096,5.923c4.35,4.498 8.027,9.427 10.314,15.285c0.567,1.449 1.03,3.028 1.095,4.565c0.107,2.545 0.068,5.137 -0.3,7.652c-0.535,3.657 -4.863,6.843 -8.513,7.116c-5.974,0.446 -10.84,-2.112 -15.61,-5.136c-2.781,-1.765 -5.563,-3.527 -8.348,-5.286c-0.073,-0.045 -0.223,0.03 -0.295,-0.017c-0.428,-0.284 -0.844,-0.585 -1.265,-0.88c-0.244,0.713 -0.671,1.417 -0.704,2.14c-0.298,6.412 1.86,12.009 5.827,16.964c2.331,2.913 5.139,5.367 8.167,7.47c3.046,2.115 6.542,3.315 10.258,3.975c5.862,1.041 11.749,0.417 17.62,0.515c1.687,0.028 3.381,-0.641 5.078,-0.951c1.144,-0.208 2.295,-0.416 3.452,-0.506c3.068,-0.242 6.182,-0.181 9.202,-0.69c3.112,-0.525 6.374,-0.573 9.175,-2.543c1.788,-1.256 2.439,-4.228 2.254,-5.968c-0.296,-2.792 -0.105,-5.634 -0.131,-8.454c-0.008,-0.894 -0.068,-1.788 -0.075,-2.682c-0.013,-1.476 -0.128,-2.966 0.024,-4.426c0.277,-2.677 -1.74,-4.826 -4.312,-5.168c-1.995,-0.265 -4,-0.541 -6.007,-0.596c-3.509,-0.097 -7.023,-0.027 -10.536,-0.027c-3.01,0 -4.412,-1.103 -5.132,-4.024c-1.683,-6.824 2.282,-13.817 8.159,-16.3c2.879,-1.217 5.72,-1.907 8.804,-1.997c2.21,-0.066 4.415,-0.36 6.618,-0.59c2.289,-0.238 3.186,-2.283 2.106,-4.699c-1.556,-3.478 -3.113,-6.956 -4.64,-10.446c-0.908,-2.077 -1.365,-4.254 -1.19,-6.53c0.174,-2.257 2.165,-3.902 5.026,-3.952c4.53,-0.081 9.02,-0.121 13.466,1.36c1.692,0.564 3.908,-0.055 5.785,-0.531c2.837,-0.722 5.624,-1.222 8.525,-0.552c0.241,0.058 0.507,0.008 0.761,0.008c3.2,0.019 5.42,2.914 4.259,5.904c-1.275,3.286 -2.939,6.416 -4.344,9.653c-1.084,2.502 -2.062,5.051 -2.998,7.612c-0.117,0.319 0.21,1.106 0.505,1.218c1.59,0.601 3.21,1.121 4.852,1.56c2.452,0.664 4.332,3.451 4.458,5.508c0.163,2.651 0.461,5.328 0.263,7.961c-0.281,3.726 -0.977,7.419 -1.465,11.13c-0.528,4.011 -1.101,8.019 -1.503,12.044c-0.254,2.538 -0.159,5.11 -0.361,7.656c-0.124,1.575 0.645,2.574 1.79,3.341c2.781,1.862 5.549,3.758 8.454,5.408c1.069,0.607 2.537,0.464 3.77,0.838c1.573,0.476 3.057,1.264 4.644,1.67c1.498,0.383 3.074,0.488 4.624,0.638c1.582,0.153 3.185,0.393 4.756,0.28c3.169,-0.229 6.406,-0.056 9.366,-1.704c1.589,-0.886 3.379,-1.413 5.085,-2.086c3.318,-1.307 5.29,-4.091 7.293,-6.784c1.305,-1.755 2.722,-3.567 3.44,-5.585c1.35,-3.784 3.207,-7.462 3.31,-11.616c0.013,-0.498 0.105,-0.996 0.159,-1.494c-0.79,0.171 -1.675,0.172 -2.356,0.545c-2.704,1.481 -5.27,3.23 -8.027,4.6c-4.614,2.294 -9.23,2.338 -13.33,-1.142c-1.777,-1.508 -3.182,-3.409 -3.054,-6.053c0.075,-1.528 -0.264,-3.071 -0.254,-4.606c0.023,-3.833 1.627,-7.203 3.281,-10.542c0.169,-0.342 0.452,-0.625 0.637,-0.96c2.184,-3.946 4.927,-7.404 8.577,-10.12c1.886,-1.403 3.539,-3.161 5.532,-4.37c4.931,-2.987 10.134,-5.434 15.692,-7.075c4.66,-1.375 9.349,-2.471 14.26,-2.471c2.257,0.001 4.51,-0.448 6.772,-0.553c2.15,-0.101 4.323,0.132 6.462,-0.058c3.242,-0.288 5.59,1.193 7.842,3.255c2.896,2.651 4.733,6.059 7.016,9.156c2.56,3.474 3.892,7.504 5.758,11.293Z" style="fill:#ffc800;"/></svg>