<svg xmlns="http://www.w3.org/2000/svg" width="78" height="62"><g style="fill:none;stroke:none;stroke-width:1"><path fill="#1cb0f6" stroke="#fff" stroke-width="4" d="M57.437-2H12.563C7.628-2 5.867-1.415 4.07-.455A10.9 10.9 0 0 0-.455 4.07C-1.415 5.867-2 7.628-2 12.563v28.874c0 4.935.585 6.696 1.545 8.493a10.9 10.9 0 0 0 4.525 4.525C5.867 55.415 7.628 56 12.563 56h44.874c4.935 0 6.696-.585 8.493-1.545a10.9 10.9 0 0 0 4.525-4.525c.96-1.797 1.545-3.558 1.545-8.493V12.563c0-4.935-.585-6.696-1.545-8.493A10.9 10.9 0 0 0 65.93-.455C64.133-1.415 62.372-2 57.437-2Z" style="fill:#7ac70c;fill-opacity:1" transform="matrix(1 0 0 -1 4 58)"/><path fill="#ffc300" d="M70 14.92v26.517c0 4.368-.455 5.953-1.309 7.55a8.9 8.9 0 0 1-3.704 3.704C63.39 53.545 61.805 54 57.437 54H12.563c-4.368 0-5.953-.455-7.55-1.309a8.9 8.9 0 0 1-3.704-3.704C.455 47.39 0 45.805 0 41.437V14.921Z" style="fill:#eee;fill-opacity:1" transform="matrix(1 0 0 -1 4 58)"/></g><g transform="translate(-4.085 -2.085)"><path fill="#ffc800" d="M41.998 12.792c.254-2.525 1.858-2.525 2.112 0l.587 5.836h-3.286zM56.16 24.78c2.526.255 2.526 1.858 0 2.112l-5.835.588v-3.287zm-26.15 2.174c-2.525-.254-2.525-1.857 0-2.111l5.835-.588v3.287zm14.162 11.989c-.254 2.525-1.857 2.525-2.112 0l-.587-5.836h3.286zM48.681 14c1.483-2.06 2.872-1.258 1.83 1.056l-2.41 5.348-2.846-1.643zm6.271 17.464c2.06 1.482 1.258 2.87-1.056 1.829l-5.347-2.41 1.643-2.846zM31.218 20.271c-2.06-1.483-1.258-2.871 1.056-1.829l5.347 2.41-1.643 2.846zm6.271 17.463c-1.483 2.06-2.871 1.258-1.829-1.056l2.41-5.347 2.845 1.643zm16.376-19.346c2.314-1.042 3.116.346 1.056 1.83l-4.76 3.426-1.643-2.846zm-3.301 18.259c1.043 2.314-.346 3.116-1.829 1.056l-3.426-4.76 2.846-1.643zm-14.958-21.56c-1.042-2.314.346-3.115 1.829-1.056l3.426 4.76-2.846 1.644zm-3.301 18.259C29.991 34.39 29.19 33 31.25 31.517l4.76-3.426 1.644 2.846z" style="fill:#ff4b4b;fill-opacity:1;stroke-width:1.67426"/><circle cx="43.054" cy="25.855" r="7.15" style="fill:#ff4b4b;fill-opacity:1;stroke:#ffc800;stroke-width:.806;stroke-linecap:round;stroke-miterlimit:4;stroke-dasharray:none;stroke-dashoffset:8.88189;stroke-opacity:1"/></g></svg>