<svg xmlns="http://www.w3.org/2000/svg" width="78" height="62">
<style>
.st3{fill-rule:evenodd;clip-rule:evenodd}.st3,.st5{fill:#ff4b4b}
</style>
<rect x="4" y="4" width="70" height="54" fill="#ff4b4b"/>
<rect x="4" y="40" width="70" height="18" fill="#7ac70c"/>
<rect x="4" y="4" width="19" height="54" fill="#eee"/>
<path d="M12.7 43 5.6 31.5c-.2-.3-.2-.7 0-1L12.7 19c.1-.2.4-.4.6-.4s.4.1.5.3l7.1 11.5c.2.3.2.7 0 1l-7 11.4c-.1.2-.4.4-.6.4-.3.1-.4 0-.6-.2" fill="#ff4b4b"/>
<path d="m12.9 39.6-5-8.2c-.1-.2-.1-.5 0-.7l5-8.2c.1-.2.3-.3.4-.3.2 0 .3.1.4.2l5 8.2c.1.2.1.5 0 .7l-4.9 8.2c-.1.2-.3.3-.4.3-.3 0-.4-.1-.5-.2"  fill="#eee"/>
<path d="m17.8 11.7-2.2-2.5c-.1-.1-.1-.2 0-.2l2.1-2.5c0-.1.1-.1.2-.1s.1 0 .2.1L20.2 9c.1.1.1.2 0 .2l-2.1 2.5c0 .1-.1.1-.2.1 0 0-.1 0-.1-.1" fill="#ff4b4b"/>
<path d="M8.4 11.7 6.3 9.3c-.1-.1-.1-.2 0-.2l2.1-2.5c0-.1.1-.1.2-.1s.1 0 .2.1l2.1 2.5c.1.1.1.2 0 .2l-2.1 2.5c0 .1-.1.1-.2.1z" fill="#ff4b4b"/>
<path d="m17.8 55.4-2.2-2.5c-.1-.1-.1-.2 0-.2l2.1-2.5c0-.1.1-.1.2-.1s.1 0 .2.1l2.1 2.5c.1.1.1.2 0 .2l-2.1 2.5c0 .1-.1.1-.2.1 0 0-.1 0-.1-.1" fill="#ff4b4b"/>
<path d="m8.4 55.4-2.2-2.5c-.1-.1-.1-.2 0-.2l2.1-2.5c0-.1.1-.1.2-.1s.1 0 .2.1l2.1 2.5c.1.1.1.2 0 .2l-2.1 2.5c0 .1-.1.1-.2.1z" fill="#ff4b4b"/>
<circle cx="13.3" cy="31" r="2.3" fill="#ff4b4b"/>
<circle cx="11" cy="13.4" fill="#ff4b4b" r="1.5"/>
<circle cx="6.6" cy="13.4" fill="#ff4b4b" r="1.5"/>
<circle cx="19.9" cy="13.4" fill="#ff4b4b" r="1.5"/>
<circle cx="15.6" cy="13.4" fill="#ff4b4b" r="1.5"/>
<circle cx="11" cy="49" fill="#ff4b4b" r="1.5"/>
<circle cx="6.6" cy="49" fill="#ff4b4b" r="1.5"/>
<circle cx="19.9" cy="49" fill="#ff4b4b" r="1.5"/>
<circle cx="15.6" cy="49" fill="#ff4b4b" r="1.5"/>
<path d="M8 20.6c-.6.3-1.3 0-1.3-.6v-.5c0-.5.2-1 .5-1.5.4-.4.8-.8 1.4-1 .5-.3 1.1-.4 1.7-.4s1.2.1 1.7.4 1 .6 1.3 1.1.5 1 .6 1.5v.5c0 .6-.8.8-1.3.5l-2.3-1.1z" fill="#ff4b4b"/>
<path id="path3570_1_" d="M14 20.6c-.6.3-1.3 0-1.3-.6v-.5c.1-.5.3-1.1.6-1.5s.8-.8 1.3-1.1 1.1-.4 1.7-.4 1.2.1 1.7.4 1 .6 1.3 1.1.5 1 .6 1.5v.5c0 .6-.8.8-1.3.5l-2.3-1.1z" fill="#ff4b4b"/>
<path id="path3570_3_" d="M18.6 41.4c.6-.3 1.3 0 1.3.6v.5c-.1.5-.3 1.1-.6 1.5s-.8.8-1.3 1c-.5.3-1.1.4-1.7.4s-1.2-.1-1.7-.4-1-.6-1.3-1.1-.5-1-.6-1.5v-.5c0-.6.8-.8 1.3-.5l2.3 1.1z" fill="#ff4b4b"/>
<path id="path3570_2_" d="M12.6 41.4c.6-.3 1.3 0 1.3.6v.5c-.1.5-.3 1.1-.6 1.5s-.8.8-1.3 1c-.5.3-1.1.4-1.7.4s-1.2-.1-1.7-.4-1-.6-1.3-1.1-.5-1-.6-1.5v-.5c0-.6.8-.8 1.3-.5l2.3 1.1z" fill="#ff4b4b"/>
<rect x="2" y="2" width="74" height="58" rx="10" fill="none" stroke="#fff" stroke-width="4"/>
</svg>
