<svg xmlns="http://www.w3.org/2000/svg" xml:space="preserve" width="82" height="65.872" viewBox="0 0 82 65.872"><path d="M56.437-3H11.563c-4.935 0-6.696.585-8.493 1.545A10.9 10.9 0 0 0-1.455 3.07C-2.415 4.867-3 6.628-3 11.563v28.874c0 4.935.585 6.696 1.545 8.493a10.9 10.9 0 0 0 4.525 4.525C4.867 54.415 6.628 55 11.563 55h44.874c4.935 0 6.696-.585 8.493-1.545a10.9 10.9 0 0 0 4.525-4.525c.96-1.797 1.545-3.558 1.545-8.493V11.563c0-4.935-.585-6.696-1.545-8.493a10.9 10.9 0 0 0-4.525-4.525C63.133-2.415 61.372-3 56.437-3z" style="fill:#58cc02;stroke:#fff;stroke-width:4" transform="translate(6 6)"/><path d="M69 35v5.437c0 4.368-.455 5.953-1.309 7.55a8.9 8.9 0 0 1-3.704 3.704C62.39 52.545 60.805 53 56.437 53H11.563c-4.368 0-5.953-.455-7.55-1.309A8.9 8.9 0 0 1 .31 47.987C-.545 46.39-1 44.805-1 40.437V35z" style="fill:#ffc800" transform="translate(6 6)"/><path d="M11.563-1h44.874c4.368 0 5.953.455 7.55 1.309s2.85 2.107 3.704 3.704S69 7.195 69 11.563V17H-1v-5.437c0-4.368.455-5.953 1.309-7.55S2.416 1.163 4.013.31 7.195-1 11.563-1" style="fill:#1cb0f6" transform="translate(6 6)"/><path d="M24 20c8.837 8.837 23.163 8.837 32 0h0M24 44c8.837-8.837 23.163-8.837 32 0h0M40 16v30" style="fill:none;stroke:#ff4b4b;stroke-width:3;stroke-linecap:round;stroke-linejoin:round;stroke-miterlimit:10"/></svg>