<svg xmlns="http://www.w3.org/2000/svg" width="78" height="62">
<rect x="4" y="4" width="70" height="54" fill="#1cb0f6"/>
<rect x="4" y="4" width="23.3" height="54" fill="#ff4b4b"/>
<rect x="50.6" y="4" width="23.3" height="54" fill="#ff4b4b"/>
<rect width="3.4" height="24" x="6.64" y="27.7" ry="1.7" fill="#ffc800"/>
<rect width="3.4" height="24" x="21.55" y="27.7" ry="1.7" fill="#ffc800" />
<path d="m 10.807156,39.663572 a 5.0049856,5.0049856 0 0 1 5.054704,-4.940351 5.0049856,5.0049856 0 0 1 4.955268,5.039788 5.0049856,5.0049856 0 0 1 -5.028188,4.968526 5.0049856,5.0049856 0 0 1 -4.981784,-5.01493" fill="#ffc800"/>
<rect width="9.7" height="6.85" x="11" y="45.4" ry="1" fill="#ffc800" />
<rect width="9.7" height="6.85" x="11" y="27" ry="1" fill="#ffc800"/>
<rect width="3.7" height="17.4" x="14" y="16.3" ry="1.5" fill="#ffc800"/>
<path d="m 18.3258,14.772334 -2.496199,-1.295729 -2.483562,1.321002 0.461719,-2.775174 -2.023787,-1.9538 2.781978,-0.4179776 1.232547,-2.527304 1.256847,2.5156396 2.785867,0.39076 -2.004346,1.973241 z" fill="#ffc800" />
<rect x="2" y="2" width="74" height="58" rx="10" fill="none" stroke="#fff" stroke-width="4"/>
</svg>