<svg xmlns="http://www.w3.org/2000/svg" width="78" height="62"><path d="M16.56 2c-4.93 0-6.69.58-8.49 1.55a10.83 10.83 0 0 0-4.52 4.52C2.58 9.87 2 11.63 2 16.56v28.88c0 4.93.58 6.69 1.55 8.49 1.04 1.95 2.57 3.48 4.52 4.52 1.8.97 3.56 1.55 8.49 1.55h44.88c4.93 0 6.69-.58 8.49-1.55 1.95-1.04 3.48-2.57 4.52-4.52.97-1.8 1.55-3.56 1.55-8.49V16.56c0-4.93-.58-6.69-1.55-8.49a10.83 10.83 0 0 0-4.52-4.52C68.13 2.58 66.37 2 61.44 2z" style="fill:#ffc300;fill-opacity:1"/><path fill="none" d="M16.56 2c-4.93 0-6.69.58-8.49 1.55a10.83 10.83 0 0 0-4.52 4.52C2.58 9.87 2 11.63 2 16.56v28.88c0 4.93.58 6.69 1.55 8.49 1.04 1.95 2.57 3.48 4.52 4.52 1.8.97 3.56 1.55 8.49 1.55h44.88c4.93 0 6.69-.58 8.49-1.55 1.95-1.04 3.48-2.57 4.52-4.52.97-1.8 1.55-3.56 1.55-8.49V16.56c0-4.93-.58-6.69-1.55-8.49a10.83 10.83 0 0 0-4.52-4.52C68.13 2.58 66.37 2 61.44 2z" style="fill-opacity:0;stroke:#fff;stroke-width:4;stroke-opacity:1"/><g transform="translate(1.916 2.12)"><circle cx="37.084" cy="28.88" r="15.803" fill="none" stroke="#000" stroke-width="3.951" style="stroke:#4b4b4b;stroke-opacity:1"/><path d="M21.478 30.855q7.507-13.828 15.606-1.975t15.606-1.976" style="fill:none;stroke:#4b4b4b;stroke-width:3.55575;stroke-opacity:1"/></g></svg>