<svg xmlns="http://www.w3.org/2000/svg" width="78mm" height="62mm" viewBox="0 0 78 62"><path fill="#eee" stroke="#fff" stroke-width="4" d="M186.982 125.433h-44.874c-4.935 0-6.696.585-8.493 1.545a10.9 10.9 0 0 0-4.525 4.525c-.96 1.797-1.545 3.558-1.545 8.493v28.874c0 4.935.584 6.696 1.545 8.493a10.9 10.9 0 0 0 4.525 4.525c1.797.96 3.558 1.545 8.493 1.545h44.874c4.935 0 6.696-.584 8.493-1.545a10.9 10.9 0 0 0 4.525-4.525c.96-1.797 1.545-3.558 1.545-8.493v-28.874c0-4.935-.585-6.696-1.545-8.493a10.9 10.9 0 0 0-4.525-4.525c-1.797-.96-3.558-1.545-8.493-1.545z" style="fill:#ff4b4b;fill-opacity:1" transform="translate(-125.545 -123.433)"/><path fill="#ff4b4b" d="M199.257 173.433c-.22 1.279-.563 2.13-1.021 2.987a8.9 8.9 0 0 1-3.705 3.704c-1.597.854-3.18 1.31-7.55 1.31h-44.873c-4.368 0-5.953-.456-7.55-1.31a8.9 8.9 0 0 1-3.704-3.704c-.458-.856-.8-1.708-1.02-2.987z" style="fill:#47a600;fill-opacity:1;stroke:none;stroke-width:1" transform="translate(-125.545 -123.433)"/><path fill="#ff4b4b" d="M142.108 127.433h44.874c4.368 0 5.952.455 7.55 1.309a8.9 8.9 0 0 1 3.704 3.705c.458.855.8 1.707 1.02 2.986h-69.423c.22-1.279.563-2.13 1.02-2.986a8.9 8.9 0 0 1 3.705-3.705c1.597-.854 3.182-1.309 7.55-1.309" style="fill:#ffc800;fill-opacity:1;stroke:none;stroke-width:1" transform="translate(-125.545 -123.433)"/><path fill="#fff" d="M170.86 148.045a5.2 5.2 0 0 0-1.266-.183 6.57 6.57 0 1 0 0 13.142q.548 0 1.266-.183a.548.548 0 0 1 .45.978q-1.983 1.395-5.002 1.395a8.76 8.76 0 1 1 0-17.522q3.02 0 5.002 1.395a.548.548 0 0 1-.45.978" style="stroke:none;stroke-width:.547553" transform="translate(-125.545 -123.433)"/><path fill="#ff4b4b" d="M199.545 169.868q0 .237-.003.461h-69.994q-.003-.224-.003-.461v-4.453h70zm0-26.878q0 .238-.003.462h-69.994q-.003-.224-.003-.462v-4.453h70z" style="fill:#eee;fill-opacity:1;fill-rule:evenodd;stroke:none;stroke-width:.905015" transform="translate(-125.545 -123.433)"/></svg>