<svg xmlns="http://www.w3.org/2000/svg" width="78" height="62"><g style="fill:none;fill-rule:evenodd;stroke:none;stroke-width:1"><path d="M63.437 4H18.563c-4.935 0-6.696.585-8.493 1.545a10.9 10.9 0 0 0-4.525 4.525C4.585 11.867 4 13.628 4 18.563v28.874c0 4.935.585 6.696 1.545 8.493a10.9 10.9 0 0 0 4.525 4.525c1.797.96 3.558 1.545 8.493 1.545h44.874c4.935 0 6.696-.585 8.493-1.545a10.9 10.9 0 0 0 4.525-4.525c.96-1.797 1.545-3.558 1.545-8.493V18.563c0-4.935-.585-6.696-1.545-8.493a10.9 10.9 0 0 0-4.525-4.525C70.133 4.585 68.372 4 63.437 4Z" style="fill:#4b4b4b;fill-opacity:1;fill-rule:nonzero;stroke:#fff;stroke-width:4" transform="translate(-2 -2)"/><path d="M76 42v5.437c0 4.368-.455 5.953-1.309 7.55a8.9 8.9 0 0 1-3.704 3.704C69.39 59.545 67.805 60 63.437 60H18.563c-4.368 0-5.953-.455-7.55-1.309a8.9 8.9 0 0 1-3.704-3.704C6.455 53.39 6 51.805 6 47.437V42Z" style="fill:#eee;fill-opacity:1;fill-rule:nonzero" transform="translate(-2 -2)"/><path d="M18.563 6h44.874c4.368 0 5.953.455 7.55 1.309a8.9 8.9 0 0 1 3.704 3.704C75.545 12.61 76 14.195 76 18.563V24H6v-5.437c0-4.368.455-5.953 1.309-7.55a8.9 8.9 0 0 1 3.704-3.704C12.61 6.455 14.195 6 18.563 6" style="fill:#1cb0f6;fill-opacity:1;fill-rule:nonzero" transform="translate(-2 -2)"/></g></svg>