<svg xmlns="http://www.w3.org/2000/svg" width="78" height="62">
<rect x="4" y="4" width="70" height="54" fill="#1254a9"/>
<path fill="#eee" d="M26.314 11c.17 0 .337.054.476.154l23.724 17.125a4.79 4.79 0 0 1 1.986 3.883v6.268a.814.814 0 0 1-1.29.66L34.345 26.916c.13.329.203.688.203 1.063v11.207c0 .45-.364.814-.814.814h-3.71a4.525 4.525 0 0 1-4.524-4.526v-5.843c0-2.5 2.025-4.525 4.524-4.525h1.652q.084 0 .167.004l-4.357-3.144a4.79 4.79 0 0 1-1.986-3.884v-6.268c0-.45.364-.814.814-.814m18.781-1.76-2.674 3.802a5.054 5.054 0 0 0 1.249 7.059l5.447 3.797a.567.567 0 0 0 .788-.138l2.674-3.802a5.054 5.054 0 0 0-1.249-7.059l-5.447-3.797a.567.567 0 0 0-.788.138M44.583 45c1.059 0 1.917.897 1.917 2.003s-.858 2.003-1.917 2.003h-3.002l.39 2.542c.177 1.154-.575 2.24-1.68 2.425a2 2 0 0 1-.32.027c-1.119 0-2.026-.948-2.026-2.117q0-.168.026-.335l.39-2.543h-2.944c-1.059 0-1.917-.896-1.917-2.002S34.358 45 35.417 45Z"/>
<rect x="2" y="2" width="74" height="58" rx="10" fill="none" stroke="#fff" stroke-width="4"/>
</svg>
