<svg xmlns="http://www.w3.org/2000/svg" width="78" height="62">
<rect x="4" y="4" width="70" height="54" fill="#eee"/>
<path d="M44,4V26H74V36H44V58H34V36H4V26H34V4" fill="#ff4b4b"/>
<path d="m 20.727272,22.000032 h -1.401844 c -0.700923,0 -1.301714,-0.6 -1.301714,-1.300001 v -2.700005 h -2.703557 c -0.700922,0 -1.301712,-0.6 -1.301712,-1.300002 v -1.400001 c 0,-0.700001 0.60079,-1.300002 1.301712,-1.300002 h 2.703557 v -2.700004 c 0,-0.700002 0.600791,-1.300002 1.301714,-1.300002 h 1.401844 c 0.700922,0 1.301712,0.6 1.301712,1.300002 v 2.700004 h 2.703558 c 0.700922,0 1.301713,0.600001 1.301713,1.300002 v 1.400001 c 0,0.700002 -0.600791,1.300002 -1.301713,1.300002 h -2.703558 v 2.700005 c 0,0.700001 -0.60079,1.300001 -1.301712,1.300001 m 38.050064,0 h -1.401844 c -0.700922,0 -1.301712,-0.6 -1.301712,-1.300001 v -2.700005 h -2.703558 c -0.700922,0 -1.301713,-0.6 -1.301713,-1.300002 v -1.400001 c 0,-0.700001 0.600791,-1.300002 1.301713,-1.300002 h 2.703558 v -2.700004 c 0,-0.700002 0.60079,-1.300002 1.301712,-1.300002 h 1.401844 c 0.700922,0 1.301713,0.6 1.301713,1.300002 v 2.700004 h 2.703558 c 0.700922,0 1.301712,0.600001 1.301712,1.300002 v 1.400001 c 0,0.700002 -0.60079,1.300002 -1.301712,1.300002 h -2.703558 v 2.700005 c 0,0.700001 -0.600791,1.300001 -1.301713,1.300001 m 0,30.000045 h -1.401844 c -0.700922,0 -1.301712,-0.6 -1.301712,-1.300002 v -2.700003 h -2.703558 c -0.700922,0 -1.301713,-0.600002 -1.301713,-1.300002 v -1.400002 c 0,-0.700002 0.600791,-1.300002 1.301713,-1.300002 h 2.703558 v -2.700005 c 0,-0.700001 0.60079,-1.300001 1.301712,-1.300001 h 1.401844 c 0.700922,0 1.301713,0.6 1.301713,1.300001 v 2.700005 h 2.703558 c 0.700922,0 1.301712,0.6 1.301712,1.300002 v 1.400002 c 0,0.7 -0.60079,1.300002 -1.301712,1.300002 h -2.703558 v 2.700003 c 0,0.700002 -0.600791,1.300002 -1.301713,1.300002 m -38.050064,0 h -1.401844 c -0.700923,0 -1.301714,-0.6 -1.301714,-1.300002 v -2.700003 h -2.703557 c -0.700922,0 -1.301712,-0.600002 -1.301712,-1.300002 v -1.400002 c 0,-0.700002 0.60079,-1.300002 1.301712,-1.300002 h 2.703557 v -2.700005 c 0,-0.700001 0.600791,-1.300001 1.301714,-1.300001 h 1.401844 c 0.700922,0 1.301712,0.6 1.301712,1.300001 v 2.700005 h 2.703558 c 0.700922,0 1.301713,0.6 1.301713,1.300002 v 1.400002 c 0,0.7 -0.600791,1.300002 -1.301713,1.300002 h -2.703558 v 2.700003 c 0,0.700002 -0.60079,1.300002 -1.301712,1.300002" fill="#ff4b4b"/>
<rect x="2" y="2" width="74" height="58" rx="10" fill="none" stroke="#fff" stroke-width="4"/>
</svg>