<svg xmlns="http://www.w3.org/2000/svg" width="78" height="62">
<rect x="4" y="4" width="70" height="54" fill="#ff4b4b"/>
<rect x="10" y="10" width="58" height="42" rx="5" fill="#ffc800"/>
<rect x="18" y="18" width="42" height="26" rx="3" fill="#eee"/>
<path d="m 35.648871,29.72734 h 7.533099 l 0.0075,5.865419 c 0.07433,4.639933 -7.737501,4.668735 -7.549823,-0.02602 z" fill="#ffc800"/>
<path d="m 38.728819,32.23034 c -0.501711,-0.241567 -1.46797,-0.828759 0.05482,-1.422455 0.376284,-0.139366 1.492126,-0.170026 1.863764,0.04367 0.713545,0.572327 -0.279657,2.132289 -0.597408,3.484132 -0.0055,0.621569 1.185525,1.542308 1.458678,0.155159 -0.443177,-0.623427 -0.548164,-1.694681 -0.209045,-1.951113 1.263568,0.01022 0.892859,-0.235992 1.411295,0.157948 0.281515,0.554673 -1.189242,0.397655 -0.962542,0.752571 0.742346,1.580403 0.306601,2.359919 -1.133497,2.228915 -0.904008,0.544454 -0.04459,0.618782 0.08641,0.888222 -0.350269,0.471983 -1.040585,0.776729 -1.017358,1.432675 -0.879853,0.347484 -1.519999,-0.213694 -1.037799,-0.536092 0.569535,0.03902 1.065672,-0.356775 0.78973,-0.6002 -0.392078,-0.350271 -0.447823,-0.687535 -0.136577,-1.009004 -1.05638,-0.185821 -1.416869,0.492424 -1.534864,1.195754 -1.163226,0.156089 -2.151783,-0.822256 -0.167237,-1.0759 0.01208,-0.583475 0.313106,-0.8269 1.003422,-1.082403 -0.262934,-1.43825 -0.03345,-1.284019 -1.284008,-0.668954 -0.668949,1.357418 -1.811735,-0.235991 -0.894718,-0.493353 2.288359,-0.09105 1.777358,-0.350271 0.648508,-1.325828 -1.854473,-0.07154 0.01951,-1.849841 0.262004,-0.33076 0.343765,0.836191 1.70396,0.441323 1.396429,0.156089" fill="#ff4b4b" />
<path d="m 36.069408,21.845373 a 2.9924851,2.9925076 0 0 1 2.992485,-2.993254 2.9924851,2.9925076 0 0 1 2.992485,2.993254 2.9924851,2.9925076 0 0 1 -2.992485,2.992507 2.9924851,2.9925076 0 0 1 -2.992485,-2.992507 h 2.992485 z" fill="#ffc800"/>
<path d="m 30.21568,38.006256 c 0.909752,6.412303 17.714051,5.026041 17.699136,-0.04474" style="fill:none;stroke:#ffc800;stroke-width:0.8"/>
<path d="m 48.087819,38.485743 c -2.109579,-1.976859 -2.166998,-1.535403 0.156596,-2.960442 0.788203,1.092455 0.19239,2.091698 -0.156596,2.960442 M 37.12979,24.181661 c -1.164779,2.031296 -3.034989,1.846361 -4.243765,0.902301 -0.835183,-1.419073 -2.741932,-1.464561 -2.260956,1.109607 -0.05891,2.477227 -0.689771,5.187112 -1.296769,7.88805 1.020115,-0.05816 1.867228,-0.829222 2.847074,0.622662 1.053671,-0.782988 1.49065,-5.586809 0.560019,-8.335472 3.659885,1.797145 5.063288,0.111855 6.439101,-1.61743 1.215487,1.727794 3.012618,2.462312 6.275792,1.472764 -0.60849,0.841899 -0.872467,5.718053 0.397456,8.237785 0.814302,-0.347498 1.519732,-1.785214 2.823958,-0.731535 -0.677093,-2.46455 -1.251281,-5.243786 -1.172237,-7.708336 0.48545,-1.078287 -0.547342,-3.375053 -2.39369,-1.126757 -0.847112,0.926908 -2.04172,1.290066 -4.093135,-0.736756 z M 29.672813,35.59838 c 2.23411,1.64353 2.502561,0.995514 0.437724,2.774016 -0.953747,-0.950026 -0.642792,-1.86053 -0.437724,-2.774016" fill="#ff4b4b"/>
<path d="m 29.74962,33.915327 c -0.06935,0.750178 -0.02461,1.486932 0.17673,2.207282 m 18.159977,-0.208051 c 0.07009,-0.749432 -0.0276,-1.923915 0.222219,-2.421299" style="fill:none;stroke:#ffc800;stroke-width:0.8" />
<rect x="2" y="2" width="74" height="58" rx="10" fill="none" stroke="#fff" stroke-width="4"/>
</svg>
