<svg xmlns="http://www.w3.org/2000/svg" width="78" height="62">
<rect x="2" y="2" width="74" height="58" rx="10" fill="#ff4b4b"/>
<rect width="13.767112" height="2.8245723" x="23.692844" y="-26.851501" ry="1.4122862" style="fill:#eeeeee;fill-opacity:1;fill-rule:nonzero;stroke:none;stroke-width:1.39692;stroke-linecap:round;stroke-linejoin:round;stroke-miterlimit:4;stroke-dasharray:none;stroke-opacity:1;paint-order:stroke fill markers;stop-color:#000000" transform="rotate(90)" id="rect1" />
<rect width="13.767112" height="2.8245723" x="24.025543" y="-53.973637" ry="1.4122862" style="fill:#eeeeee;fill-opacity:1;fill-rule:nonzero;stroke:none;stroke-width:1.39699;stroke-linecap:round;stroke-linejoin:round;stroke-miterlimit:4;stroke-dasharray:none;stroke-opacity:1;paint-order:stroke fill markers;stop-color:#000000" transform="rotate(90)" id="rect2" />
<rect width="17.469883" height="2.0625525" x="29.865124" y="16.875175" ry="1.0313926" style="display:inline;fill:#eeeeee;fill-opacity:1;fill-rule:nonzero;stroke:none;stroke-width:1.42967;stroke-linejoin:round;stroke-miterlimit:4;stroke-dasharray:none;stroke-opacity:1;paint-order:stroke markers fill;stop-color:#000000" id="rect3" />
<rect width="10.734399" height="2.063251" x="33.345551" y="14.08087" ry="1.0316255" style="display:inline;fill:#eeeeee;fill-opacity:1;fill-rule:nonzero;stroke:none;stroke-width:1.42908;stroke-linejoin:round;stroke-miterlimit:4;stroke-dasharray:none;stroke-opacity:1;paint-order:stroke markers fill;stop-color:#000000" id="rect4" />
<rect width="4.5227613" height="4.5227613" x="36.45137" y="8.8934069" ry="2.2613807" style="display:inline;fill:#eeeeee;fill-opacity:1;fill-rule:nonzero;stroke:none;stroke-width:1.29785;stroke-linejoin:round;stroke-miterlimit:4;stroke-dasharray:none;stroke-opacity:1;paint-order:stroke markers fill;stop-color:#000000" id="rect5" />
<path d="m 39.810961,41.136417 a 19.32406,19.32406 0 0 1 0.983665,-1.575028 c 0.262388,-0.377634 0.11804,-0.672384 -0.34178,-0.672384 h -8.222038 a 1.327074,1.327074 0 0 0 -1.330101,1.330101 1.327074,1.327074 0 0 0 1.330101,1.329868 h 6.885651 c 0.259362,0 0.567615,-0.186256 0.694502,-0.412557" style="display:inline;fill:#eeeeee;fill-opacity:1;fill-rule:nonzero;stroke:none;stroke-width:1.39699;stroke-linecap:round;stroke-linejoin:round;stroke-miterlimit:4;stroke-dasharray:none;stroke-opacity:1;paint-order:stroke fill markers;stop-color:#000000" id="path5" />
<path d="m 34.494309,45.705207 a 1.3584862,1.3584862 0 1 0 0,2.716972 h 1.275987 a 59.99939,59.99939 0 0 0 1.904981,-0.053 0.41999573,0.41999573 0 0 0 0.393996,-0.399995 c 0.024,-0.599994 0.066,-1.253988 0.121999,-1.864982 a 0.35699637,0.35699637 0 0 0 -0.361997,-0.398995 z m -1.128988,-3.380966 c -0.751993,0 -1.356986,0.606994 -1.356986,1.359986 0,0.751992 0.604993,1.356986 1.356986,1.356986 h 4.485954 a 0.6499934,0.6499934 0 0 0 0.597994,-0.476995 c 0.139999,-0.547994 0.323997,-1.091989 0.559994,-1.652983 0.137999,-0.326997 -0.025,-0.586994 -0.379996,-0.586994 z" style="display:inline;fill:#eeeeee;fill-opacity:1;fill-rule:nonzero;stroke:none;stroke-width:1.35909;stroke-linecap:round;stroke-linejoin:round;stroke-miterlimit:4;stroke-dasharray:none;stroke-opacity:1;paint-order:stroke markers fill;stop-color:#000000" id="path6" />
<path d="m 33.176988,52.464041 c -0.360172,-0.132707 -0.789725,-0.528036 -0.961546,-0.884716 -0.21955,-0.455862 -0.20558,-1.067247 0.03446,-1.506345 0.199294,-0.364364 0.410927,-0.568547 0.805557,-0.777386 0.247721,-0.130845 0.351093,-0.137364 2.726322,-0.175779 1.523574,-0.02445 2.531918,-0.06542 2.634126,-0.107098 0.329207,-0.133638 0.365527,-0.265414 0.366226,-1.323349 0.0012,-2.123784 0.320826,-3.494395 1.253503,-5.370924 0.81906,-1.648366 1.91378,-3.244114 2.812465,-4.099495 1.382253,-1.315433 1.699819,-1.687945 2.409454,-2.824805 0.773428,-1.239766 1.086339,-2.018549 1.312174,-3.267861 0.129914,-0.718716 0.128051,-2.274652 -0.0042,-3.143769 -0.254705,-1.677701 -1.119398,-3.389626 -2.311902,-4.577241 -1.480736,-1.474682 -3.311166,-2.217378 -5.466148,-2.217378 -1.018122,0 -1.76012,0.154593 -2.648794,0.436771 -1.786427,0.567382 -3.208259,1.731482 -3.919757,3.301387 -1.341043,2.960074 -0.762718,6.217924 1.578985,7.988986 1.058866,0.800901 2.219473,1.229289 3.483686,1.223469 1.359669,-0.0063 2.443446,-0.45074 3.377287,-1.385279 0.870048,-0.870747 1.296574,-1.846728 1.353615,-3.096506 0.05774,-1.268869 -0.330371,-2.293277 -1.118001,-3.076716 -0.652595,-0.649335 -1.341975,-0.952467 -2.271625,-0.953864 -1.254201,-0.0019 -2.172211,0.546429 -2.646931,1.550581 -0.178107,0.376703 -0.224671,0.584378 -0.225137,1.011138 0.01513,0.55155 0.07124,0.854449 0.36157,1.171783 0.184626,0.201855 0.25843,0.189748 0.183928,-0.078 -0.08777,-0.316868 -0.09988,-0.990882 0.0582,-1.413218 0.36576,-0.977611 1.169222,-1.523341 2.349153,-1.520547 0.502892,9.31e-4 0.770867,0.08801 1.062358,0.223042 0.458655,0.212797 0.656552,0.430484 0.945249,0.8768 0.389275,0.602538 0.589966,1.267937 0.596019,2.083739 0.0058,0.810213 -0.196267,1.379691 -0.569012,1.948703 -1.344768,2.052541 -4.209851,2.478136 -6.231893,1.019985 -0.928486,-0.669824 -1.739631,-1.852316 -2.067441,-3.078114 -0.204882,-0.765977 -0.203252,-2.066743 0.01816,-2.91025 0.201855,-0.768306 0.678204,-1.750108 1.119166,-2.291181 1.257228,-1.542898 3.716738,-2.499323 5.832141,-2.273953 2.581275,0.275426 4.641266,1.675373 5.725043,3.976565 0.462148,0.980638 0.813008,2.166158 0.764581,3.683678 -0.03446,1.077026 -0.261224,2.068839 -0.559466,2.813863 -0.672384,1.774321 -1.845099,3.278804 -3.518842,4.296926 -0.47146,0.286834 -1.329868,0.469365 -1.882349,0.469365 h -2.797566 l -2.758451,4.66e-4 c -0.552249,0 -1.414847,-0.17252 -1.894689,-0.445618 -0.828839,-0.471693 -1.549883,-1.048388 -2.061621,-1.577355 -1.377829,-1.368982 -2.221103,-2.968455 -2.669747,-4.973501 -0.117807,-0.525941 -0.203485,-0.708471 -0.203485,-1.893991 0,-1.195531 0.09662,-1.601336 0.220015,-2.171978 0.375539,-2.481162 2.003649,-5.227973 4.600523,-6.958757 0.459354,-0.306158 1.304956,-0.514066 1.857205,-0.514066 h 8.802692 c 0.552249,0 1.406698,0.190447 1.877693,0.478212 2.669514,1.630439 4.347681,4.343257 5.126697,6.778089 0.0894,0.305925 0.166233,0.855613 0.213263,1.216484 0.41861,3.199413 -0.128284,6.076369 -1.665827,8.762414 -0.765513,1.337318 -1.326143,2.13007 -3.431767,4.13465 -1.353849,1.288659 -1.992474,2.757986 -2.433901,4.526719 -0.134104,0.53665 -0.164836,0.850492 -0.209538,2.129372 -0.05844,1.677701 0.130613,3.113269 -0.845369,4.119284 -0.711731,0.733383 -1.951032,0.6803 -2.983588,0.706842 -0.906136,0.02328 -1.290056,0.01932 -2.80455,0.03329 -2.079315,0.01909 -2.475808,0.0084 -2.698384,-0.0738" style="color:#000000;fill:#eeeeee;fill-opacity:1;fill-rule:nonzero;stroke:none;stroke-width:1.39699;stroke-linecap:round;stroke-linejoin:round;stroke-opacity:1;-inkscape-stroke:none;paint-order:stroke markers fill" id="path7" />
<rect x="2" y="2" width="74" height="58" rx="10" fill="none" stroke="#fff" stroke-width="4"/>
</svg>
