<svg xmlns="http://www.w3.org/2000/svg" width="78" height="62"><ellipse cx="-80.15" cy="-10" rx="19.85" ry="20" style="display:inline;opacity:1;fill:#fff;fill-opacity:1;fill-rule:nonzero;stroke:none;stroke-width:6.00702;stroke-linecap:round;stroke-linejoin:round;stroke-miterlimit:4;stroke-dasharray:none;stroke-dashoffset:0;stroke-opacity:1"/><ellipse cx="-80.15" cy="-60" rx="19.85" ry="20" style="opacity:1;fill:#eee;fill-opacity:1;fill-rule:nonzero;stroke:none;stroke-width:6.00702;stroke-linecap:round;stroke-linejoin:round;stroke-miterlimit:4;stroke-dasharray:none;stroke-dashoffset:0;stroke-opacity:1"/><ellipse cx="-80.15" cy="-110" rx="19.85" ry="20" style="display:inline;opacity:1;fill:#4c4c4c;fill-opacity:1;fill-rule:nonzero;stroke:none;stroke-width:6.00702;stroke-linecap:round;stroke-linejoin:round;stroke-miterlimit:4;stroke-dasharray:none;stroke-dashoffset:0;stroke-opacity:1"/><ellipse cx="-30.15" cy="-60" rx="19.85" ry="20" style="display:inline;opacity:1;fill:#1cb0f6;fill-opacity:1;fill-rule:nonzero;stroke:none;stroke-width:6.00702;stroke-linecap:round;stroke-linejoin:round;stroke-miterlimit:4;stroke-dasharray:none;stroke-dashoffset:0;stroke-opacity:1"/><ellipse cx="-30.15" cy="-110" rx="19.85" ry="20" style="display:inline;opacity:1;fill:#1254a9;fill-opacity:1;fill-rule:nonzero;stroke:none;stroke-width:6.00702;stroke-linecap:round;stroke-linejoin:round;stroke-miterlimit:4;stroke-dasharray:none;stroke-dashoffset:0;stroke-opacity:1"/><ellipse cx="19.85" cy="-60" rx="19.85" ry="20" style="display:inline;opacity:1;fill:#ff4b4b;fill-opacity:1;fill-rule:nonzero;stroke:none;stroke-width:6.00702;stroke-linecap:round;stroke-linejoin:round;stroke-miterlimit:4;stroke-dasharray:none;stroke-dashoffset:0;stroke-opacity:1"/><ellipse cx="69.85" cy="-60" rx="19.85" ry="20" style="display:inline;opacity:1;fill:#ffc800;fill-opacity:1;fill-rule:nonzero;stroke:none;stroke-width:6.00702;stroke-linecap:round;stroke-linejoin:round;stroke-miterlimit:4;stroke-dasharray:none;stroke-dashoffset:0;stroke-opacity:1"/><ellipse cx="69.85" cy="-110" rx="19.85" ry="20" style="display:inline;opacity:1;fill:#ff9600;fill-opacity:1;fill-rule:nonzero;stroke:none;stroke-width:6.00702;stroke-linecap:round;stroke-linejoin:round;stroke-miterlimit:4;stroke-dasharray:none;stroke-dashoffset:0;stroke-opacity:1"/><ellipse cx="69.85" cy="-160" rx="19.85" ry="20" style="display:inline;opacity:1;fill:#ffce8e;fill-opacity:1;fill-rule:nonzero;stroke:none;stroke-width:6.00702;stroke-linecap:round;stroke-linejoin:round;stroke-miterlimit:4;stroke-dasharray:none;stroke-dashoffset:0;stroke-opacity:1"/><ellipse cx="119.85" cy="-60" rx="19.85" ry="20" style="display:inline;opacity:1;fill:#78c800;fill-opacity:1;fill-rule:nonzero;stroke:none;stroke-width:6.00702;stroke-linecap:round;stroke-linejoin:round;stroke-miterlimit:4;stroke-dasharray:none;stroke-dashoffset:0;stroke-opacity:1"/><path d="M61.437 2H16.563c-4.935 0-6.696.585-8.493 1.545A10.9 10.9 0 0 0 3.545 8.07C2.585 9.867 2 11.628 2 16.563v28.874c0 4.935.585 6.696 1.545 8.493a10.9 10.9 0 0 0 4.525 4.525c1.797.96 3.558 1.545 8.493 1.545h44.874c4.935 0 6.696-.585 8.493-1.545a10.9 10.9 0 0 0 4.525-4.525c.96-1.797 1.545-3.558 1.545-8.493V16.563c0-4.935-.585-6.696-1.545-8.493a10.9 10.9 0 0 0-4.525-4.525C68.133 2.585 66.372 2 61.437 2" style="fill:#1254a9;fill-rule:nonzero;stroke:none;stroke-width:6.00702;font-variation-settings:normal;opacity:1;vector-effect:none;fill-opacity:1;stroke-linecap:round;stroke-linejoin:round;stroke-miterlimit:4;stroke-dasharray:none;stroke-dashoffset:0;stroke-opacity:1;-inkscape-stroke:none;stop-color:#000;stop-opacity:1"/><rect width="75.715" height="14.777" x=".761" y="23.724" ry="0" style="font-variation-settings:normal;opacity:1;vector-effect:none;fill:#1cb0f6;fill-opacity:1;stroke:none;stroke-width:4.59641;stroke-linecap:round;stroke-linejoin:round;stroke-miterlimit:4;stroke-dasharray:none;stroke-dashoffset:0;stroke-opacity:1;-inkscape-stroke:none;stop-color:#000;stop-opacity:1"/><path d="M4.795 6.215a11 11 0 0 0-1.25 1.855C2.585 9.867 2 11.628 2 16.563v28.875c0 4.934.584 6.695 1.545 8.492q.385.717.855 1.357L33.947 34.68a8.261 5.039 0 0 0 .004-.002c3.044-2.125 3.044-6.002 0-8.127a8.261 5.039 0 0 0-.004-.002z" style="color:#000;fill:#4c4c4c;stroke-width:12.9025;stroke-linecap:round;stroke-linejoin:round;-inkscape-stroke:none"/><path d="M15.907 22.23a.98.98 0 0 0-.883.62l-1.6 4.06-4.34.483a.975.975 0 0 0-.51 1.72l3.37 2.778-.883 4.275a.975.975 0 0 0 1.479 1.018l3.68-2.346 3.794 2.16a.975.975 0 0 0 1.426-1.092l-1.092-4.226 3.225-2.94a.975.975 0 0 0-.596-1.693l-4.36-.268-1.798-3.976a.98.98 0 0 0-.912-.573" style="color:#000;fill:#fff;fill-opacity:1;stroke:none;stroke-width:1.949;stroke-linecap:round;stroke-linejoin:round;stroke-dasharray:none"/><path d="M61.437 2H16.563c-4.935 0-6.696.585-8.493 1.545A10.9 10.9 0 0 0 3.545 8.07C2.585 9.867 2 11.628 2 16.563v28.874c0 4.935.585 6.696 1.545 8.493a10.9 10.9 0 0 0 4.525 4.525c1.797.96 3.558 1.545 8.493 1.545h44.874c4.935 0 6.696-.585 8.493-1.545a10.9 10.9 0 0 0 4.525-4.525c.96-1.797 1.545-3.558 1.545-8.493V16.563c0-4.935-.585-6.696-1.545-8.493a10.9 10.9 0 0 0-4.525-4.525C68.133 2.585 66.372 2 61.437 2Z" style="fill:none;fill-rule:nonzero;stroke:#fff;stroke-width:4"/></svg>