<svg xmlns="http://www.w3.org/2000/svg" xml:space="preserve" id="svg2128" width="78" height="62" x="0" y="0" viewBox="0 0 78 62"><style>.st2{fill:#eee}</style><title id="title2121">eo</title><path id="border" d="M61.437 2H16.563c-4.935 0-6.696.585-8.493 1.545A10.9 10.9 0 0 0 3.545 8.07C2.585 9.867 2 11.628 2 16.563v28.874c0 4.935.585 6.696 1.545 8.493a10.9 10.9 0 0 0 4.525 4.525c1.797.96 3.558 1.545 8.493 1.545h44.874c4.935 0 6.696-.585 8.493-1.545a10.9 10.9 0 0 0 4.525-4.525c.96-1.797 1.545-3.558 1.545-8.493V16.563c0-4.935-.585-6.696-1.545-8.493a10.9 10.9 0 0 0-4.525-4.525C68.133 2.585 66.372 2 61.437 2z" style="fill:none;stroke:#fff;stroke-width:4"/><g id="cs_3_"><g id="g3174_3_" transform="translate(6 6)"><path id="path3168_3_" d="M55.35-3.95h-44.8c-4.9 0-6.7.6-8.5 1.5-2 1-3.5 2.6-4.5 4.5-1 1.8-1.5 3.6-1.5 8.5v28.9c0 4.9.6 6.7 1.5 8.5 1 2 2.6 3.5 4.5 4.5 1.8 1 3.6 1.5 8.5 1.5h44.9c4.9 0 6.7-.6 8.5-1.5 2-1 3.5-2.6 4.5-4.5 1-1.8 1.5-3.6 1.5-8.5v-28.9c0-4.9-.6-6.7-1.5-8.5-1-2-2.6-3.5-4.5-4.5-1.9-.9-3.6-1.5-8.6-1.5z" style="fill:#1cb0f6;stroke:#fff;stroke-width:4"/><path id="path3172_5_" d="M1.155 49.468c-.8-.7-1.4-1.5-2-2.5-.9-1.6-1.3-3.2-1.3-7.5v-28.9c0-4.4.5-6 1.3-7.5.5-1 1.2-1.8 2-2.5l34.7 24.4z" class="st2"/></g></g><path d="M18.138 21.248c-5.385 0-9.751 4.366-9.751 9.752s4.366 9.752 9.751 9.752c5.386 0 9.752-4.366 9.752-9.752s-4.366-9.752-9.752-9.752m0 15.603a5.851 5.851 0 1 1 0-11.702 5.851 5.851 0 0 1 0 11.702" style="fill:#ffc800"/><path d="M12.646 29.05H23.63c-.806-2.268-2.949-3.9-5.493-3.9s-4.686 1.632-5.492 3.9" class="st2"/><path d="M12.287 31c0 .688.14 1.338.359 1.95H23.63c.218-.612.358-1.262.358-1.95s-.14-1.338-.358-1.95H12.646a5.8 5.8 0 0 0-.359 1.95" style="fill:#1cb0f6"/><path d="M23.631 32.95H12.646c.806 2.268 2.948 3.9 5.492 3.9s4.687-1.632 5.493-3.9" style="fill:#ff4b4b"/></svg>