<svg xmlns="http://www.w3.org/2000/svg" width="78" height="62">
<rect x="4" y="4" width="70" height="54" fill="#eee"/>
<path d="m73.922 46.747a9 9 0 0 1 .059 2.648 8.9 8.9 0 0 1-2.075 4.81C70.981 55.3 69.972 56.159 67.58 57.269L4.2 15.584a9.1 9.1 0 0 1-.114-2.954A8.9 8.9 0 0 1 6.161 7.82c.893-1.057 1.865-1.895 4.086-2.951Z" fill="#1cb0f6"/>
<path d="m33.427 20.473h11.145a2.39 2.39 0 0 1 2.388 2.388v10.706a7.96 7.96 0 1 1-15.92 0V22.861a2.39 2.39 0 0 1 2.387-2.388" fill="#1254a9"/>
<rect x="2" y="2" width="74" height="58" rx="10" fill="none" stroke="#fff" stroke-width="4"/>
</svg>
