<svg xmlns="http://www.w3.org/2000/svg" width="78" height="62">
<rect x="4" y="4" width="70" height="54" fill="#1cb0f6" />
<path d="m 38.319016,36.624679 c -0.04968,0.02127 -0.07808,0.02127 -0.106351,0.02127 l 0.03149,-0.07473 z m 9.188411,-20.043905 c 0.301005,0.747265 0.594313,1.497608 0.880205,2.25089 0.02407,0.06213 0.01456,0.137559 0.01708,0.206687 0.0025,0.07361 -0.02911,0.167505 0.005,0.217742 0.209487,0.307442 0.187796,0.6689 0.247969,1.008948 0.07263,0.408197 0.117827,0.821151 0.174782,1.232006 0.0014,0.007 0.0012,0.01427 -4.2e-4,0.02127 -0.13546,0.44388 0.03288,0.894058 -0.03541,1.344376 -0.09418,0.619502 -0.400639,1.092489 -0.880484,1.47032 -0.06675,0.05234 -0.152251,0.08172 -0.216623,0.136299 -0.117967,0.09978 -0.135459,0.235234 -0.08942,0.375032 0.06032,0.181219 0.168345,0.35488 0.188076,0.539038 0.03149,0.298206 0.01708,0.60257 0.0046,0.903715 -0.006,0.141056 -0.03471,0.280153 -0.08494,0.412114 -0.15687,0.4012 -0.42485,0.707103 -0.82451,0.887062 -0.01791,0.0081 -0.02939,0.03051 -0.04729,0.0403 -0.387905,0.212565 -0.3998,0.235375 -0.279875,0.661903 0.107612,0.382589 0.240273,0.75902 0.325914,1.146086 0.07445,0.337668 0.08718,0.688631 0.148334,1.030078 0.07612,0.427788 -0.01497,0.808557 -0.258184,1.163298 -0.183039,0.266581 -0.766856,0.513149 -1.078915,0.445001 -0.391965,-0.08564 -0.783649,-0.172544 -1.176032,-0.255526 -0.114888,-0.02435 -0.249927,0.141616 -0.26672,0.331651 -0.01889,0.214523 0.0054,0.439962 -0.05346,0.641892 -0.06143,0.211445 -0.159948,0.441081 -0.313039,0.589975 -0.217462,0.211306 -0.486701,0.381889 -0.759019,0.520567 -0.1787,0.09096 -0.421351,0.05555 -0.600471,0.145814 -0.323254,0.162887 -0.601029,-0.02043 -0.899095,-0.04646 -0.105235,-0.0091 -0.239852,0.0066 -0.315138,0.06745 -0.05584,0.04534 -0.03848,0.181918 -0.05248,0.278054 l -0.171144,1.168476 c -0.0049,0.03345 -0.0012,0.07263 -0.01763,0.09922 -0.162887,0.266581 -0.313039,0.543376 -0.499156,0.792745 -0.193113,0.259023 -0.509511,0.308422 -0.791064,0.265041 -0.588996,-0.09054 -1.078635,-0.416594 -1.525595,-0.794424 -0.172403,-0.145954 -0.303244,-0.340748 -0.458994,-0.507693 -0.04058,-0.0438 -0.112509,-0.05835 -0.154211,-0.101594 -0.116007,-0.120066 -0.224599,-0.247548 -0.334029,-0.373632 -0.367335,-0.42345 -0.73537,-0.84606 -1.100186,-1.271469 -0.409735,-0.476067 -0.815973,-0.955072 -1.218852,-1.437015 -0.05192,-0.06241 -0.04702,-0.174642 -0.102014,-0.231736 -0.06199,-0.06493 -0.159529,-0.09936 -0.247689,-0.129863 -0.0104,-0.0035 -0.0855,0.103694 -0.08467,0.158689 0.0055,0.343266 0.02421,0.686252 0.03792,1.029378 0.0022,0.05696 -0.0028,0.114189 5.59e-4,0.171003 0.02784,0.458435 0.05248,0.917009 0.08956,1.374603 0.0057,0.07151 0.05625,0.152253 0.10971,0.205149 0.508812,0.503493 1.02574,0.998452 1.532732,1.503905 0.135179,0.134899 0.254966,0.28925 0.361038,0.448358 0.07529,0.11363 0.15309,0.246989 0.164846,0.377551 0.04562,0.501816 0.0848,0.540858 0.57598,0.667221 0.84788,0.218301 1.69212,0.452137 2.534961,0.68919 0.35866,0.100895 0.719277,0.252447 1.086893,0.111531 0.263221,-0.100756 0.496636,-0.278335 0.745164,-0.418832 0.455636,-0.257764 0.91491,-0.509511 1.368586,-0.770775 0.518186,-0.298206 1.030496,-0.606767 1.548403,-0.905533 0.238173,-0.137139 0.476206,-0.274697 0.774413,-0.164147 0.31094,0.115449 0.500414,0.496078 0.413654,0.816534 -0.07473,0.276236 -0.225578,0.447239 -0.487541,0.581019 -0.548974,0.280294 -1.074717,0.605649 -1.608858,0.91491 -0.02742,0.01581 -0.06521,0.06003 -0.05919,0.07738 0.01019,0.02897 0.0487,0.05849 0.08089,0.06717 0.05962,0.01581 0.121045,0.02351 0.182757,0.02323 0.662603,0.0014 1.325485,0.01749 1.987107,-0.0063 0.316119,-0.01161 0.641333,0.354601 0.650568,0.659525 0.0092,0.303243 -0.330252,0.619501 -0.654906,0.633495 -0.188494,0.0081 -0.375451,0.07655 -0.562966,0.07641 -0.305063,-2.68e-4 -0.609847,-0.03862 -0.915189,-0.05388 -0.248808,-0.01246 -0.497896,-0.01539 -0.746985,-0.01875 -0.0084,-1.34e-4 -0.03036,0.04646 -0.02379,0.06115 0.02267,0.0508 0.04351,0.117408 0.08578,0.141336 0.166245,0.09432 0.343405,0.168764 0.51077,0.261264 0.406097,0.224319 0.815134,0.44472 1.211296,0.685692 0.324934,0.198011 0.506432,0.572064 0.395462,0.839623 -0.166525,0.402039 -0.626639,0.678275 -1.121456,0.390005 -0.602849,-0.351242 -1.200661,-0.711161 -1.80449,-1.060725 -0.579759,-0.335569 -1.168335,-0.655745 -1.744455,-0.997192 -0.210326,-0.124823 -0.384688,-0.07151 -0.568005,0.03317 -0.610406,0.349283 -1.218852,0.702065 -1.831497,1.047149 -0.252866,0.143436 -0.51105,0.277216 -0.774132,0.401061 -0.307582,0.143575 -0.552192,0.09376 -0.759998,-0.144975 -0.141897,-0.162607 -0.272458,-0.320876 -0.222501,-0.544915 0.05611,-0.251469 0.225299,-0.432827 0.442761,-0.55877 0.504894,-0.291909 1.015944,-0.573463 1.522656,-0.862153 0.0305,-0.01735 0.04646,-0.06045 0.06927,-0.09152 -0.02897,-0.01161 -0.0571,-0.02645 -0.08718,-0.03429 -0.648329,-0.171703 -1.297497,-0.341307 -1.945406,-0.514549 -0.133641,-0.03554 -0.262662,-0.08914 -0.396162,-0.126083 -0.322555,-0.08942 -0.623141,-0.04828 -0.916168,0.126503 -0.630557,0.375872 -1.253417,0.251886 -1.819183,-0.125944 -0.492998,-0.329272 -0.939118,-0.728512 -1.407908,-1.094309 -0.230616,-0.180098 -0.468228,-0.351101 -0.697166,-0.53316 -0.09305,-0.07403 -0.165685,-0.173663 -0.259303,-0.246989 -0.0361,-0.02841 -0.11349,-0.0354 -0.155471,-0.01609 -0.03862,0.01777 -0.07781,0.08466 -0.07724,0.129161 0.0087,0.528264 -0.0031,1.059465 0.04729,1.58423 0.04772,0.495237 0.124124,0.995093 0.259163,1.472699 0.136718,0.483623 0.497897,0.794003 0.993834,0.924705 0.706542,0.186256 1.407628,0.399101 2.122706,0.543937 0.368315,0.07473 0.728792,0.123144 0.97816,0.425689 0.348024,0.421909 0.480684,0.915189 0.332211,1.445131 -0.102299,0.365515 -0.412814,0.593473 -0.838503,0.618382 -0.586057,0.03414 -1.176592,0.02701 -1.75845,0.09558 -0.594593,0.07039 -1.197582,0.149873 -1.745435,0.422331 -0.184578,0.09166 -0.395463,0.189755 -0.511611,0.346344 -0.1773,0.239012 -0.348023,0.502795 -0.35404,0.827868 -0.01073,0.592495 -0.02239,1.184989 -0.04296,1.777343 -0.02784,0.794563 -0.480683,1.276508 -1.204299,1.578211 -0.335009,0.139798 -0.642031,0.07529 -0.960529,-0.04352 -0.466409,-0.173941 -0.882023,-0.408616 -1.169033,-0.834725 -0.242652,-0.360339 -0.307303,-0.766716 -0.339909,-1.184148 -0.04394,-0.55933 -0.06087,-1.122156 -0.136297,-1.676868 -0.06214,-0.457594 -0.427788,-0.686811 -0.821012,-0.832066 -0.740967,-0.275817 -1.527274,-0.409178 -2.317778,-0.393364 -0.428068,0.0081 -0.858374,-0.0088 -1.285183,-0.04394 -0.31304,-0.02575 -0.620341,-0.117268 -0.86859,-0.321016 -0.388045,-0.318637 -0.37853,-0.814855 -0.124823,-1.277207 0.299885,-0.546455 0.834725,-0.748524 1.385657,-0.916449 0.538338,-0.164006 1.085212,-0.300865 1.619632,-0.476346 0.42247,-0.138678 0.861873,-0.283233 1.168895,-0.620061 0.17688,-0.193814 0.31248,-0.453397 0.386086,-0.706964 0.122865,-0.42387 0.194932,-0.864253 0.262103,-1.301836 0.05107,-0.33375 0.06969,-0.673237 0.08732,-1.011186 0.01344,-0.258044 0.0034,-0.517488 0.0019,-0.776371 -1.39e-4,-0.03554 -0.01161,-0.07095 -0.01778,-0.106492 -0.02953,0.0133 -0.06311,0.02113 -0.08746,0.04072 -0.15589,0.124125 -0.316118,0.243772 -0.462913,0.378111 -0.584376,0.53582 -1.172112,1.06842 -1.743615,1.617954 -0.492299,0.473128 -1.082554,0.60215 -1.727245,0.515389 -0.20039,-0.02687 -0.391823,-0.151272 -0.57738,-0.249928 -0.232436,-0.123425 -0.444721,-0.131541 -0.706403,-0.0494 -0.720956,0.226419 -1.456185,0.406937 -2.184698,0.609847 -0.07808,0.02183 -0.148333,0.07249 -0.22222,0.10971 0.06437,0.04828 0.124544,0.103414 0.193533,0.143436 0.493279,0.287152 0.995932,0.55905 1.480115,0.860614 0.276375,0.172263 0.33543,0.471728 0.280574,0.769795 -0.04142,0.224319 -0.234675,0.322414 -0.434225,0.432825 -0.323395,0.17898 -0.542676,-0.01343 -0.776651,-0.144275 -0.683593,-0.382728 -1.35753,-0.782248 -2.035385,-1.174773 -0.08592,-0.04982 -0.185697,-0.08284 -0.258464,-0.147214 -0.259584,-0.229777 -0.495238,-0.149033 -0.754961,0.01148 -0.6675,0.412535 -1.343396,0.811776 -2.019293,1.211017 -0.468509,0.276936 -0.945555,0.539459 -1.412525,0.818912 -0.301005,0.1801 -0.713679,0.170725 -0.900215,-0.06717 -0.148053,-0.188636 -0.274697,-0.407498 -0.202069,-0.664003 0.06521,-0.230056 0.225858,-0.382028 0.439402,-0.499295 0.575562,-0.315839 1.142167,-0.648609 1.711151,-0.976762 0.04198,-0.02421 0.07445,-0.06549 0.11125,-0.09894 -0.05177,-0.02477 -0.104117,-0.07207 -0.15533,-0.07081 -0.250628,0.006 -0.500975,0.03037 -0.751602,0.03736 -0.24447,0.0071 -0.48922,0.0071 -0.733691,0 -0.200949,-0.006 -0.401199,-0.03554 -0.60201,-0.03918 -0.378109,-0.0069 -0.650147,-0.255526 -0.6661,-0.594593 -0.02393,-0.513569 0.309821,-0.709202 0.658684,-0.729492 0.427928,-0.02505 0.857115,-0.04366 1.285603,-0.04058 0.24489,0.0018 0.4888,0.05766 0.73425,0.07683 0.06032,0.0046 0.124543,-0.03834 0.186956,-0.05975 -0.0417,-0.04982 -0.07389,-0.117828 -0.127064,-0.146934 -0.272317,-0.149033 -0.569264,-0.260564 -0.82143,-0.436884 -0.375591,-0.262663 -0.82339,-0.419533 -1.123695,-0.797363 -0.232436,-0.292748 -0.151413,-0.626359 0.121606,-0.877406 0.360198,-0.331092 0.640491,-0.178559 0.964725,0.01232 0.651688,0.383706 1.311631,0.753561 1.966257,1.132651 0.419672,0.24335 0.841862,0.483342 1.251877,0.742506 0.434225,0.274558 0.867191,0.295128 1.352493,0.130422 0.589135,-0.200111 1.198142,-0.342147 1.799031,-0.507133 0.371254,-0.102014 0.744326,-0.197171 1.115159,-0.300725 0.205987,-0.05751 0.315558,-0.185417 0.344246,-0.412954 0.06073,-0.480825 0.328432,-0.833047 0.702064,-1.140908 0.306602,-0.252307 0.557089,-0.573323 0.831227,-0.864952 0.151831,-0.161907 0.305622,-0.322416 0.449337,-0.49118 0.04981,-0.05835 0.09782,-0.138677 0.102157,-0.211725 0.02337,-0.392383 0.05555,-0.786586 0.04101,-1.178411 -0.01693,-0.453256 -0.07795,-0.905114 -0.127342,-1.356831 -0.0024,-0.02015 -0.105235,-0.05723 -0.118948,-0.0438 -0.102014,0.101874 -0.201789,0.207947 -0.28687,0.324374 -0.331092,0.452976 -0.64511,0.918687 -0.986697,1.363268 -0.325774,0.424011 -0.624679,0.875028 -1.06828,1.196044 -0.05206,0.0375 -0.06969,0.119506 -0.118666,0.164146 -0.235935,0.214104 -0.465152,0.438563 -0.718998,0.629717 -0.341726,0.257205 -0.662602,0.543377 -1.074717,0.704444 -0.492438,0.192275 -1.163997,-0.03219 -1.40287,-0.508811 -0.156729,-0.3129 -0.320315,-0.616564 -0.390984,-0.973123 -0.05402,-0.273578 -0.22208,-0.465992 -0.583257,-0.453397 -0.596412,0.02057 -1.170714,-0.102714 -1.661894,-0.465992 -0.341307,-0.252445 -0.587596,-0.57892 -0.64371,-1.018882 -0.01105,-0.08718 -0.01073,-0.181778 -0.04786,-0.257205 -0.02784,-0.05695 -0.107195,-0.125244 -0.163585,-0.125244 -0.279035,6.7e-4 -0.560029,0.0067 -0.836545,0.04086 -0.279874,0.03456 -0.535959,-0.0055 -0.796242,-0.112791 -0.407357,-0.168064 -0.615864,-0.513709 -0.855716,-0.850117 -0.292468,-0.409737 -0.347603,-0.871809 -0.427368,-1.343957 -0.07696,-0.455077 0.0057,-0.888602 0.07137,-1.328704 0.03275,-0.220682 0.11181,-0.444301 0.09124,-0.658824 -0.01095,-0.116708 -0.172402,-0.239714 -0.292468,-0.320456 -0.196752,-0.132381 -0.44696,-0.198152 -0.617263,-0.354602 -0.305483,-0.280154 -0.5754213,-0.616423 -0.6043882,-1.050088 -0.025192,-0.376011 0.011895,-0.75748 0.040164,-1.135172 0.00767,-0.105652 0.069967,-0.213683 0.1273427,-0.308141 C 9.8348396,24.97407 9.7999943,24.828115 9.5537053,24.697695 9.3375025,24.583086 9.1235385,24.464419 8.9066358,24.35079 8.4445635,24.108698 8.3221188,23.665937 8.2805574,23.208903 c -0.090404,-0.997334 0.1791198,-1.930715 0.5619881,-2.841146 0.2243188,-0.53372 0.4020389,-1.087451 0.6339152,-1.617673 0.1922731,-0.442062 0.4121144,-0.87167 0.6584033,-1.286164 0.329693,-0.550373 0.679954,-1.088292 1.050089,-1.612356 0.290929,-0.413234 0.602848,-0.815554 0.942616,-1.189187 0.284912,-0.313319 0.618802,-0.583118 0.940377,-0.861313 0.106209,-0.0918 0.239433,-0.154631 0.390984,-0.07305 0.02645,0.01427 0.07333,0.01651 0.09852,0.0025 0.320456,-0.180519 0.682473,-0.157149 1.027138,-0.199271 0.440942,-0.05415 0.888601,-0.09782 1.331082,-0.08256 0.497756,0.01707 1.005169,0.05542 1.486273,0.174362 0.592913,0.146794 1.168474,0.371673 1.739838,0.592774 0.238452,0.09222 0.444719,0.265881 0.669459,0.395603 0.408056,0.235233 0.80044,0.484742 1.13293,0.828847 0.608727,0.629437 1.123275,1.319189 1.443312,2.13894 0.07934,0.20277 0.144135,0.423731 0.15323,0.638814 0.01497,0.35614 0.0095,0.718857 -0.04198,1.0708 -0.07486,0.51175 -0.680513,0.95759 -1.191284,0.995793 -0.835985,0.06241 -1.516918,-0.295548 -2.184419,-0.718718 -0.389165,-0.246989 -0.77847,-0.493558 -1.168195,-0.739708 -0.01019,-0.0063 -0.0312,0.0042 -0.04128,-0.0024 -0.05989,-0.03974 -0.118107,-0.08186 -0.17702,-0.123146 -0.03415,0.09978 -0.0939,0.198291 -0.09852,0.299466 -0.0417,0.897278 0.260284,1.680506 0.815414,2.373895 0.326193,0.407637 0.719137,0.751043 1.142867,1.045331 0.426248,0.295967 0.915468,0.463892 1.435475,0.556251 0.820311,0.145675 1.64412,0.05835 2.465692,0.07207 0.236073,0.0039 0.473127,-0.0897 0.7106,-0.133081 0.160089,-0.02911 0.321156,-0.05821 0.483064,-0.07081 0.429326,-0.03386 0.86509,-0.02533 1.2877,-0.09656 0.435485,-0.07347 0.891959,-0.08018 1.283924,-0.355861 0.250208,-0.175761 0.341307,-0.591654 0.315417,-0.835145 -0.04142,-0.390705 -0.0147,-0.788406 -0.01834,-1.183029 -0.0011,-0.125104 -0.0095,-0.250208 -0.01051,-0.375311 -0.0019,-0.206547 -0.01791,-0.415055 0.0034,-0.619363 0.03876,-0.374612 -0.24349,-0.675337 -0.603408,-0.723195 -0.279175,-0.03708 -0.559749,-0.07571 -0.840602,-0.0834 -0.49104,-0.01357 -0.982779,-0.0038 -1.474378,-0.0038 -0.42121,0 -0.617402,-0.15435 -0.718157,-0.563106 -0.235515,-0.954933 0.319336,-1.933514 1.141747,-2.280978 0.402879,-0.170303 0.800439,-0.266859 1.232006,-0.279454 0.309261,-0.0092 0.617822,-0.05038 0.926104,-0.08256 0.320316,-0.03331 0.445839,-0.319476 0.294707,-0.657564 -0.217742,-0.486702 -0.435623,-0.973404 -0.649308,-1.461784 -0.127062,-0.29065 -0.191014,-0.595293 -0.166525,-0.91379 0.02435,-0.315839 0.302964,-0.546035 0.703324,-0.553032 0.633915,-0.01134 1.262233,-0.01693 1.884393,0.190314 0.236774,0.07892 0.546874,-0.0077 0.809537,-0.07431 0.397001,-0.101035 0.787006,-0.171004 1.192963,-0.07725 0.03372,0.0081 0.07095,0.0011 0.106494,0.0011 0.447799,0.0027 0.758459,0.407777 0.595991,0.826189 -0.178419,0.459833 -0.411274,0.897837 -0.607886,1.350814 -0.151691,0.350123 -0.28855,0.706822 -0.419531,1.065201 -0.01638,0.04464 0.02939,0.15477 0.07067,0.170444 0.222501,0.0841 0.449199,0.15687 0.678975,0.218301 0.343126,0.09292 0.606208,0.482925 0.62384,0.770775 0.02282,0.370973 0.06451,0.745586 0.0368,1.11404 -0.03932,0.521406 -0.136718,1.038194 -0.205008,1.557501 -0.07389,0.561288 -0.15407,1.122157 -0.210325,1.685403 -0.03554,0.355161 -0.02225,0.71508 -0.05051,1.071361 -0.01735,0.2204 0.09026,0.360198 0.250487,0.467529 0.389165,0.260563 0.776511,0.525885 1.183028,0.75678 0.149592,0.08494 0.355021,0.06493 0.527563,0.117268 0.220121,0.06661 0.427787,0.17688 0.649867,0.233696 0.209627,0.05359 0.430167,0.06829 0.64707,0.08928 0.22138,0.02141 0.4457,0.055 0.665541,0.03918 0.443461,-0.03205 0.896438,-0.0078 1.310651,-0.238452 0.22236,-0.123984 0.472847,-0.197731 0.71158,-0.291909 0.464312,-0.182898 0.740268,-0.572484 1.020562,-0.949334 0.182617,-0.245591 0.380909,-0.499156 0.481383,-0.78155 0.188915,-0.529522 0.448779,-1.044211 0.463192,-1.62551 0.0019,-0.06969 0.01469,-0.139377 0.02224,-0.209066 -0.110551,0.02393 -0.234395,0.02407 -0.329692,0.07626 -0.37839,0.207247 -0.737469,0.451997 -1.123276,0.643711 -0.645669,0.321016 -1.291619,0.327174 -1.865361,-0.159808 -0.248668,-0.211026 -0.445281,-0.477046 -0.427368,-0.84704 0.01051,-0.213823 -0.03694,-0.429747 -0.03554,-0.644551 0.0032,-0.536378 0.227678,-1.007967 0.459134,-1.475217 0.02365,-0.04786 0.06325,-0.08746 0.08914,-0.13434 0.305623,-0.552193 0.68947,-1.036096 1.200241,-1.416164 0.263921,-0.196333 0.495237,-0.442342 0.774132,-0.611526 0.690029,-0.417992 1.418122,-0.760419 2.195893,-0.990056 0.652107,-0.192413 1.308272,-0.345785 1.995503,-0.345785 0.315839,1.35e-4 0.631117,-0.06269 0.947655,-0.07738 0.300865,-0.01413 0.604947,0.01847 0.904273,-0.0081 0.453676,-0.0403 0.782249,0.166945 1.097387,0.455495 0.405258,0.370974 0.662323,0.84788 0.981799,1.281265 0.358239,0.486142 0.544635,1.050089 0.805757,1.580311 z" style="fill:#ffc800;stroke-width:0.139937" id="path2" />
<rect x="2" y="2" width="74" height="58" rx="10" fill="none" stroke="#fff" stroke-width="4"/>
</svg>
