<svg xmlns="http://www.w3.org/2000/svg" width="78" height="62" fill="none" viewBox="0 0 78 62"><g clip-path="url(#a)"><g clip-path="url(#b)"><path fill="#ff4b4b" stroke="#fff" stroke-width="4" d="M61.3 2H16.5c-4.9 0-6.7.6-8.5 1.5-2 1-3.5 2.6-4.5 4.5-1 1.8-1.5 3.6-1.5 8.5v28.9c0 4.9.6 6.7 1.5 8.5 1 2 2.6 3.5 4.5 4.5 1.8 1 3.6 1.5 8.5 1.5h44.9c4.9 0 6.7-.6 8.5-1.5 2-1 3.5-2.6 4.5-4.5 1-1.8 1.5-3.6 1.5-8.5V16.5c0-4.9-.6-6.7-1.5-8.5-1-2-2.6-3.5-4.5-4.5C68 2.6 66.3 2 61.3 2Z"/><mask id="c" width="44.423" height="44.423" x="15.527" y="8.68" fill="#000" maskUnits="userSpaceOnUse"><path fill="#fff" d="M15.527 8.68H59.95v44.423H15.527z"/><path fill-rule="evenodd" d="m38 39.832-4.708 4.974c-.63.667-1.75.203-1.726-.714l.189-6.847-6.847.189c-.917.025-1.38-1.095-.714-1.726L29.168 31l-4.974-4.708c-.667-.63-.203-1.75.714-1.726l6.847.189-.189-6.847c-.025-.917 1.095-1.38 1.726-.714L38 22.168l4.708-4.974c.63-.667 1.75-.203 1.726.714l-.189 6.847 6.847-.189c.917-.025 1.38 1.095.714 1.726L46.832 31l4.974 4.708c.667.63.203 1.75-.714 1.726l-6.847-.189.189 6.847c.025.917-1.095 1.38-1.726.714z" clip-rule="evenodd"/></mask><path fill="#ffc800" fill-rule="evenodd" d="m38 39.832-4.708 4.974c-.63.667-1.75.203-1.726-.714l.189-6.847-6.847.189c-.917.025-1.38-1.095-.714-1.726L29.168 31l-4.974-4.708c-.667-.63-.203-1.75.714-1.726l6.847.189-.189-6.847c-.025-.917 1.095-1.38 1.726-.714L38 22.168l4.708-4.974c.63-.667 1.75-.203 1.726.714l-.189 6.847 6.847-.189c.917-.025 1.38 1.095.714 1.726L46.832 31l4.974 4.708c.667.63.203 1.75-.714 1.726l-6.847-.189.189 6.847c.025.917-1.095 1.38-1.726.714z" clip-rule="evenodd"/><path fill="#ff4b4b" d="m38 39.832 1.09-1.03a1.5 1.5 0 0 0-2.18 0zm-4.708 4.974-1.09-1.03zm-1.726-.714-1.5-.042zm.189-6.847 1.499.042a1.5 1.5 0 0 0-1.54-1.541zm-6.847.189.042 1.5zm-.714-1.726-1.031-1.09zM29.168 31l1.03 1.09a1.5 1.5 0 0 0 0-2.18zm-4.974-4.708 1.03-1.09zm.714-1.726.042-1.5zm6.847.189-.042 1.499a1.5 1.5 0 0 0 1.541-1.54zm-.189-6.847-1.5.042zm1.726-.714 1.09-1.031zM38 22.168l-1.09 1.03a1.5 1.5 0 0 0 2.18 0zm4.708-4.974 1.09 1.03zm1.726.714 1.5.042zm-.189 6.847-1.499-.042a1.5 1.5 0 0 0 1.54 1.541zm6.847-.189.04 1.5zm.714 1.726 1.032 1.09zM46.832 31l-1.03-1.09a1.5 1.5 0 0 0 0 2.18zm4.974 4.708-1.03 1.09zm-.714 1.726-.042 1.5zm-6.847-.189.042-1.499a1.5 1.5 0 0 0-1.541 1.54zm.189 6.847-1.5.04zm-1.726.714 1.09-1.03zm-5.797-6.005-4.708 4.974 2.179 2.063 4.707-4.975zm-4.708 4.974a.5.5 0 0 1 .863.358l-3-.083c-.062 2.294 2.739 3.454 4.316 1.788zm.863.358.188-6.846-2.999-.083-.188 6.846zm-1.353-8.387-6.846.188.083 3 6.846-.19zm-6.846.188a.5.5 0 0 1 .358.863l-2.062-2.179c-1.667 1.577-.507 4.378 1.787 4.315zm.358.863 4.974-4.708-2.062-2.178-4.974 4.707zm4.974-6.886-4.974-4.708-2.062 2.179 4.974 4.707zm-4.974-4.708a.5.5 0 0 1-.358.863l.083-3c-2.294-.062-3.454 2.739-1.787 4.316zm-.358.863 6.846.188.083-2.999-6.846-.188zm8.387-1.353-.188-6.846-3 .083.19 6.846zm-.188-6.846a.5.5 0 0 1-.863.358l2.179-2.062c-1.577-1.667-4.378-.507-4.315 1.787zm-.863.358 4.708 4.974 2.178-2.062-4.707-4.974zm6.886 4.974 4.708-4.974-2.179-2.062-4.707 4.974zm4.708-4.974a.5.5 0 0 1-.863-.358l3 .083c.062-2.294-2.739-3.454-4.316-1.787zm-.863-.358-.188 6.846 2.999.083.188-6.846zm1.353 8.387 6.846-.188-.083-3-6.846.19zm6.846-.188a.5.5 0 0 1-.358-.863l2.063 2.179c1.666-1.577.506-4.378-1.788-4.315zm-.358-.863-4.974 4.708 2.062 2.178 4.974-4.707zm-4.974 6.886 4.974 4.708 2.063-2.179-4.975-4.707zm4.974 4.708a.5.5 0 0 1 .358-.863l-.083 3c2.294.062 3.454-2.739 1.788-4.316zm.358-.863-6.846-.188-.083 2.999 6.846.188zm-8.387 1.353.188 6.846 3-.083-.19-6.846zm.188 6.846a.5.5 0 0 1 .863-.358l-2.179 2.063c1.577 1.666 4.378.506 4.315-1.788zm.863-.358-4.708-4.974-2.178 2.062 4.707 4.974z" mask="url(#c)"/><mask id="d" width="48.083" height="48.083" x="13.676" y="6.958" fill="#000" maskUnits="userSpaceOnUse"><path fill="#fff" d="M13.676 6.958h48.083v48.083H13.676z"/><path fill-rule="evenodd" d="m38 37.65-9.633 4.304c-.838.374-1.695-.483-1.32-1.321L31.35 31l-4.304-9.633c-.374-.838.483-1.695 1.321-1.32L38 24.35l9.633-4.304c.838-.374 1.695.483 1.32 1.321L44.65 31l4.304 9.633c.374.838-.483 1.695-1.321 1.32z" clip-rule="evenodd"/></mask><path fill="#ffc800" fill-rule="evenodd" d="m38 37.65-9.633 4.304c-.838.374-1.695-.483-1.32-1.321L31.35 31l-4.304-9.633c-.374-.838.483-1.695 1.321-1.32L38 24.35l9.633-4.304c.838-.374 1.695.483 1.32 1.321L44.65 31l4.304 9.633c.374.838-.483 1.695-1.321 1.32z" clip-rule="evenodd"/><path fill="#ff4b4b" d="m38 37.65.612-1.37a1.5 1.5 0 0 0-1.224 0zm-9.633 4.304.612 1.37zm-1.32-1.321-1.37-.612zM31.35 31l1.37.612a1.5 1.5 0 0 0 0-1.224zm-4.304-9.633-1.37.612zm1.321-1.32.612-1.37zM38 24.35l-.612 1.37a1.5 1.5 0 0 0 1.224 0zm9.633-4.304.612 1.37zm1.32 1.321 1.37.612zM44.65 31l-1.37-.612a1.5 1.5 0 0 0 0 1.224zm4.304 9.633-1.37.612zm-1.321 1.32.612-1.369zM37.388 36.28l-9.633 4.304 1.224 2.74 9.633-4.305zm-9.633 4.304a.5.5 0 0 1 .66.66l-2.738-1.223c-.936 2.095 1.207 4.238 3.302 3.302zm.66.66 4.305-9.632-2.74-1.224-4.303 9.633zm4.305-10.856-4.304-9.633-2.74 1.224 4.305 9.633zm-4.304-9.633a.5.5 0 0 1-.66.66l1.223-2.738c-2.095-.936-4.238 1.207-3.302 3.302zm-.66.66 9.632 4.305 1.224-2.74-9.633-4.303zm10.856 4.305 9.633-4.304-1.224-2.74-9.633 4.305zm9.633-4.304a.5.5 0 0 1-.66-.66l2.738 1.223c.936-2.095-1.207-4.238-3.302-3.302zm-.66-.66-4.305 9.632 2.74 1.224 4.303-9.633zM43.28 31.611l4.304 9.633 2.74-1.224-4.305-9.633zm4.304 9.633a.5.5 0 0 1 .66-.66l-1.223 2.738c2.095.936 4.238-1.207 3.302-3.302zm.66-.66-9.632-4.305-1.224 2.74 9.633 4.303z" mask="url(#d)"/><mask id="e" width="34" height="34" x="20.8" y="13.8" fill="#000" maskUnits="userSpaceOnUse"><path fill="#fff" d="M20.8 13.8h34v34h-34z"/><path fill-rule="evenodd" d="m33.298 35.702-9.855-3.768c-.857-.328-.857-1.54 0-1.868l9.855-3.768 3.768-9.855c.328-.857 1.54-.857 1.868 0l3.768 9.855 9.855 3.768c.857.328.857 1.54 0 1.868l-9.855 3.768-3.768 9.855c-.328.857-1.54.857-1.868 0z" clip-rule="evenodd"/></mask><path fill="#ffc800" fill-rule="evenodd" d="m33.298 35.702-9.855-3.768c-.857-.328-.857-1.54 0-1.868l9.855-3.768 3.768-9.855c.328-.857 1.54-.857 1.868 0l3.768 9.855 9.855 3.768c.857.328.857 1.54 0 1.868l-9.855 3.768-3.768 9.855c-.328.857-1.54.857-1.868 0z" clip-rule="evenodd"/><path fill="#ff4b4b" d="m33.298 35.702 1.4-.536a1.5 1.5 0 0 0-.864-.865zm-9.855-3.768-.536 1.401zm0-1.868-.536-1.401zm9.855-3.768.536 1.4a1.5 1.5 0 0 0 .865-.864zm3.768-9.855-1.401-.536zm1.868 0 1.401-.536zm3.768 9.855-1.401.536a1.5 1.5 0 0 0 .865.865zm9.855 3.768-.536 1.401zm0 1.868.536 1.401zm-9.855 3.768-.536-1.401a1.5 1.5 0 0 0-.865.865zm-3.768 9.855-1.401-.536zm-1.868 0 1.401-.536zm-3.232-11.256-9.855-3.768-1.072 2.802 9.855 3.768zm-9.855-3.768a.5.5 0 0 1 0 .934l-1.072-2.802c-2.143.82-2.143 3.85 0 4.67zm0 .934 9.855-3.768-1.072-2.802-9.855 3.768zm10.72-4.633 3.768-9.855-2.802-1.072-3.768 9.855zm3.768-9.855a.5.5 0 0 1-.934 0l2.802-1.072c-.82-2.143-3.85-2.143-4.67 0zm-.934 0 3.768 9.855 2.802-1.072-3.768-9.855zm4.633 10.72 9.855 3.768 1.072-2.802-9.855-3.768zm9.855 3.768a.5.5 0 0 1 0-.934l1.072 2.802c2.143-.82 2.143-3.85 0-4.67zm0-.934-9.855 3.768 1.072 2.802 9.855-3.768zm-10.72 4.633-3.768 9.855 2.802 1.072 3.768-9.855zm-3.768 9.855a.5.5 0 0 1 .934 0l-2.802 1.072c.82 2.143 3.85 2.143 4.67 0zm.934 0-3.768-9.855-2.802 1.072 3.768 9.855z" mask="url(#e)"/><path fill="#ffc300" fill-rule="evenodd" d="M40 10a2 2 0 1 1-4 0 2 2 0 0 1 4 0m0 42a2 2 0 1 1-4 0 2 2 0 0 1 4 0M29.232 11.814a2 2 0 1 1-3.464 2 2 2 0 0 1 3.464-2m21 36.373a2 2 0 1 1-3.464 2 2 2 0 0 1 3.464-2M20.814 18.768a2 2 0 1 1-2 3.464 2 2 0 0 1 2-3.464m36.373 21a2 2 0 1 1-2 3.464 2 2 0 0 1 2-3.464M17 29a2 2 0 1 1 0 4 2 2 0 0 1 0-4m42 0a2 2 0 1 1 0 4 2 2 0 0 1 0-4M21.546 40.5a2 2 0 1 0-3.465 2 2 2 0 0 0 3.465-2m36.373-21a2 2 0 1 0-3.465 2 2 2 0 0 0 3.465-2M28.5 47.455a2 2 0 1 0-2 3.464 2 2 0 0 0 2-3.464m21-36.374a2 2 0 1 0-2 3.465 2 2 0 0 0 2-3.465" clip-rule="evenodd"/></g></g><defs><clipPath id="a"><path fill="#fff" d="M0 0h78v62H0z"/></clipPath><clipPath id="b"><path fill="#fff" d="M0 0h78v62H0z"/></clipPath></defs></svg>