<svg xmlns="http://www.w3.org/2000/svg" width="78" height="62">
<rect x="2" y="2" width="74" height="58" rx="10" fill="#1254a9"/>
<path d="M37.653 19.67c.324-1.435 2.37-1.435 2.694 0l.75 3.319a1.38 1.38 0 0 0 2.085.864l2.876-1.817c1.245-.786 2.692.66 1.906 1.906l-1.817 2.876a1.38 1.38 0 0 0 .864 2.085l3.318.75c1.436.324 1.436 2.37 0 2.694l-3.318.75a1.38 1.38 0 0 0-.864 2.085l1.817 2.876c.786 1.245-.661 2.692-1.906 1.906l-2.876-1.817a1.38 1.38 0 0 0-2.085.864l-.75 3.318c-.324 1.436-2.37 1.436-2.694 0l-.75-3.318a1.38 1.38 0 0 0-2.085-.864l-2.876 1.817c-1.245.786-2.692-.66-1.906-1.906l1.817-2.876a1.38 1.38 0 0 0-.864-2.085l-3.318-.75c-1.436-.324-1.436-2.37 0-2.694l3.318-.75a1.38 1.38 0 0 0 .864-2.085l-1.817-2.876c-.786-1.245.66-2.692 1.906-1.906l2.876 1.817c.807.51 1.875.067 2.085-.864z" fill="#eee"/>
<rect x="2" y="2" width="74" height="58" rx="10" fill="none" stroke="#fff" stroke-width="4"/>
</svg>
