<svg xmlns="http://www.w3.org/2000/svg" xml:space="preserve" id="svg3624" width="82" height="66" x="0" y="0" viewBox="0 0 82 66"><style>.st1{fill:#ff4b4b}</style><g id="sv"><g id="Group-10" transform="translate(6 6)"><path id="path2929" d="M57.4-2H12.6c-5 0-6.7.6-8.5 1.5C2.1.5.6 2.1-.4 4S-2 7.6-2 12.6v28.9c0 4.9.6 6.7 1.5 8.5 1 2 2.6 3.5 4.5 4.5 1.8 1 3.6 1.5 8.5 1.5h44.9c4.9 0 6.7-.6 8.5-1.5 2-1 3.5-2.6 4.5-4.5 1-1.8 1.5-3.6 1.5-8.5V12.6c0-4.9-.6-6.7-1.5-8.5-1-2-2.6-3.5-4.5-4.5-1.8-1-3.5-1.6-8.5-1.6z" style="fill:#eee;stroke:#fff;stroke-width:4"/><path id="Combined-Shape" d="M40 0v22h30v10H40v22H30V32H0V22h30V0z" class="st1"/></g></g><path d="M22.7 24h-1.4c-.7 0-1.3-.6-1.3-1.3V20h-2.7c-.7 0-1.3-.6-1.3-1.3v-1.4c0-.7.6-1.3 1.3-1.3H20v-2.7c0-.7.6-1.3 1.3-1.3h1.4c.7 0 1.3.6 1.3 1.3V16h2.7c.7 0 1.3.6 1.3 1.3v1.4c0 .7-.6 1.3-1.3 1.3H24v2.7c0 .7-.6 1.3-1.3 1.3m38 0h-1.4c-.7 0-1.3-.6-1.3-1.3V20h-2.7c-.7 0-1.3-.6-1.3-1.3v-1.4c0-.7.6-1.3 1.3-1.3H58v-2.7c0-.7.6-1.3 1.3-1.3h1.4c.7 0 1.3.6 1.3 1.3V16h2.7c.7 0 1.3.6 1.3 1.3v1.4c0 .7-.6 1.3-1.3 1.3H62v2.7c0 .7-.6 1.3-1.3 1.3m0 30h-1.4c-.7 0-1.3-.6-1.3-1.3V50h-2.7c-.7 0-1.3-.6-1.3-1.3v-1.4c0-.7.6-1.3 1.3-1.3H58v-2.7c0-.7.6-1.3 1.3-1.3h1.4c.7 0 1.3.6 1.3 1.3V46h2.7c.7 0 1.3.6 1.3 1.3v1.4c0 .7-.6 1.3-1.3 1.3H62v2.7c0 .7-.6 1.3-1.3 1.3m-38 0h-1.4c-.7 0-1.3-.6-1.3-1.3V50h-2.7c-.7 0-1.3-.6-1.3-1.3v-1.4c0-.7.6-1.3 1.3-1.3H20v-2.7c0-.7.6-1.3 1.3-1.3h1.4c.7 0 1.3.6 1.3 1.3V46h2.7c.7 0 1.3.6 1.3 1.3v1.4c0 .7-.6 1.3-1.3 1.3H24v2.7c0 .7-.6 1.3-1.3 1.3" class="st1"/></svg>