<svg xmlns="http://www.w3.org/2000/svg" width="78" height="62">
<rect x="4" y="4" width="70" height="54" fill="#eee"/>
<path d="m 4.038,47.231 c 6.487,-3.747 8.309,-3.808 14.903,0 4.898,2.827 9.342,2.924 14.408,0 6.292,-3.634 10.216,-3.771 16.747,0 5.376,3.103 8.993,3.226 14.583,0 4.59,-2.651 7.532,-4.028 9.291,-2.647 0,1.29 0.015,3.771 -0.073,3.708 -2.398,-1.385 -5.996,1.02 -9.298,3.175 -5.315,3.068 -9.222,2.998 -14.416,0 -6.184,-3.571 -10.596,-3.478 -16.62,0 -5.367,3.098 -9.682,3.121 -15.089,0 -6.127,-3.538 -7.837,-3.464 -13.836,0 C 4.039,49.48 4.181,48.561 4.038,47.23" style="fill:#1cb0f6;fill-opacity:1;stroke:none;stroke-width:0.234631px;stroke-linecap:butt;stroke-linejoin:miter;stroke-opacity:1" />
<path d="m 18.94,38.763 c 4.9,2.829 9.343,2.925 14.41,0 6.291,-3.632 10.215,-3.77 16.746,0 5.376,3.104 8.993,3.227 14.583,0 4.59,-2.65 7.556,-4.026 9.316,-2.645 v 3.707 c -2.398,-1.385 -6.094,1.02 -9.396,3.175 -5.315,3.068 -9.222,2.998 -14.416,0 -6.184,-3.57 -10.596,-3.478 -16.62,0 -5.367,3.098 -9.682,3.122 -15.089,0 -6.127,-3.538 -8.476,-3.464 -14.476,0 l 10e-4,-4.237 c 6.886,-3.16 9.18,-3.282 14.941,0" style="fill:#1cb0f6;fill-opacity:1;stroke:none;stroke-width:0.234631px;stroke-linecap:butt;stroke-linejoin:miter;stroke-opacity:1" />
<path d="m 55.211581,32.889645 c -1.286653,-0.282571 -2.32169,-0.724949 -5.684766,-2.427521 -3.381597,-1.712362 -4.576705,-2.144421 -6.639106,-2.400799 -2.638921,-0.327815 -4.888645,0.288392 -9.329884,2.556372 -3.111461,1.588803 -4.150996,1.960538 -6.203343,2.219826 -2.471177,0.311675 -5.227043,-0.367766 -8.320512,-2.051289 -4.017647,-2.186489 -5.302977,-2.692101 -7.14366,-2.810104 -1.815019,-0.116415 -3.6742225,0.44714 -6.4070693,1.941488 L 4.0852,30.682255 l 2.646e-4,-8.35332 c 0,-5.161956 0.055033,-8.808133 0.1434023,-9.54393 C 4.6619844,9.1790442 6.5889205,6.4504306 9.6966772,5.0412776 10.96137,4.4676681 12.176321,4.2501834 14.86657,4.1157767 c 3.138978,-0.1568959 45.200848,-0.1545147 48.351995,0.00265 2.789203,0.1394337 4.036433,0.3958117 5.499825,1.1313441 2.474352,1.243526 4.222168,3.5255285 4.855572,6.3396012 0.249764,1.108855 0.273311,1.751255 0.325169,8.860255 0.04657,6.401513 0.02646,7.640277 -0.121707,7.517247 -0.09763,-0.08096 -0.457194,-0.217749 -0.799032,-0.304002 -1.349887,-0.339721 -3.338999,0.32755 -6.988616,2.344972 -3.689832,2.039647 -4.76879,2.514833 -6.539094,2.880483 -1.175794,0.242884 -3.137125,0.243413 -4.239101,0.0013" style="opacity:0.98;fill:#ffc800;fill-opacity:1;stroke:none;stroke-width:6.48242;stroke-linecap:round;paint-order:stroke fill markers" />
<path d="m 4,30.297 c 6.488,-3.746 8.347,-3.807 14.94,0 4.9,2.828 9.343,2.925 14.41,0 6.291,-3.633 10.215,-3.77 16.746,0 5.376,3.103 8.993,3.227 14.583,0 4.59,-2.65 7.532,-4.027 9.291,-2.646 0,1.29 0.015,3.77 -0.073,3.707 -2.398,-1.384 -5.996,1.021 -9.298,3.175 -5.315,3.068 -9.222,2.999 -14.416,0 -6.184,-3.57 -10.596,-3.478 -16.62,0 -5.367,3.099 -9.682,3.122 -15.089,0 -6.127,-3.537 -8.473,-3.464 -14.473,0 z" style="fill:#1cb0f6;fill-opacity:1;stroke:none;stroke-width:0.234631px;stroke-linecap:butt;stroke-linejoin:miter;stroke-opacity:1" />
<circle cx="16.707996" cy="11.824999" r="4.1989999" style="opacity:0.98;fill:#4b4b4b;fill-opacity:1;stroke:none;stroke-width:24.5002;stroke-linecap:round;paint-order:stroke fill markers" />
<circle cx="16.741001" cy="20.199999" r="4.1989999" style="opacity:0.98;fill:#eeeeeb;fill-opacity:1;stroke:none;stroke-width:24.5002;stroke-linecap:round;paint-order:stroke fill markers" />
<path d="m 18.927717,23.981813 v -0.176739 l 0.23971,-0.161923 c 0.132025,-0.0889 0.381524,-0.303473 0.554824,-0.477038 0.568847,-0.568847 0.922326,-1.207014 1.128169,-2.034884 0.09816,-0.395812 0.120649,-1.16283 0.04657,-1.605472 -0.110594,-0.660921 -0.397928,-1.340362 -0.783686,-1.85206 -0.235476,-0.312733 -0.706957,-0.76543 -0.980268,-0.94164 l -0.204785,-0.131761 v -1.19061 l 0.206372,-0.131761 c 0.277809,-0.177004 0.86941,-0.769663 1.073666,-1.075782 0.360622,-0.539743 0.585515,-1.101447 0.688701,-1.718183 0.08652,-0.518312 0.05424,-1.209659 -0.08123,-1.737496 C 20.57367,9.8019129 19.927301,8.8721788 19.147848,8.3467229 L 18.929834,8.199881 c -0.32464,-0.1746228 -0.604565,-0.3262271 -0.964923,-0.4011032 0.0061,0 1.144573,0.098688 1.340362,0.1534564 1.288505,0.3619454 2.496048,1.068374 3.503569,2.0491718 0.738707,0.719129 1.227122,1.389045 1.673733,2.294967 0.302679,0.614355 0.457723,1.019956 0.59848,1.56552 0.18256,0.709074 0.236005,1.116792 0.253732,1.944663 0.02434,1.126317 -0.08202,1.871374 -0.408776,2.860639 -0.177269,0.536568 -0.614091,1.438786 -0.929205,1.918205 -1.075518,1.636956 -2.731789,2.885245 -4.556332,3.433719 -0.552973,0.166156 -0.512757,0.169067 -0.512757,-0.03731" style="opacity:0.98;fill:#eeeeeb;fill-opacity:1;stroke:none;stroke-width:1.62061;stroke-linecap:round;paint-order:stroke fill markers" />
<path d="m 18.515237,16.38387 c -0.354537,-0.172771 -0.703783,-0.280455 -1.125258,-0.347129 -0.160336,-0.0254 -0.219073,-0.04339 -0.148959,-0.04577 0.314586,-0.01085 0.980004,-0.211135 1.397247,-0.420682 l 0.223305,-0.111917 v 0.546093 c 0,0.300298 -0.0037,0.545035 -0.0082,0.543447 -0.0045,-0.0016 -0.156632,-0.07514 -0.338134,-0.164039" style="opacity:0.98;fill:#eeeeeb;fill-opacity:1;stroke:none;stroke-width:1.62061;stroke-linecap:round;paint-order:stroke fill markers" />
<path d="m 18.899937,16.595534 c -0.03889,-0.02434 -0.04657,-0.03148 -0.04445,-0.04233 0.0056,-0.03175 0.0064,-1.097213 7.94e-4,-1.097213 -0.01402,0 -0.0045,-0.01614 0.01588,-0.02778 0.02117,-0.01191 0.152133,-0.09366 0.184147,-0.114828 0.0087,-0.0058 0.01588,-0.0079 0.01588,-0.005 0,0.0032 -0.03281,0.02646 -0.07276,0.05186 l -0.07302,0.04604 v 1.194579 l 0.01587,0.01217 c 0.03016,0.02249 0.0045,0.01191 -0.04233,-0.01746 m -1.973238,7.801935 a 4.259738,4.259738 0 0 0 1.540385,-0.367767 5.2916,5.2916 0 0 0 0.337604,-0.171183 l 0.05133,-0.02937 v 0.359829 l -0.04524,0.01005 c -0.370412,0.08281 -0.786332,0.145519 -1.164946,0.175416 -0.218807,0.01746 -0.302679,0.02117 -0.53207,0.02302 -0.126998,0.0011 -0.211135,0.0011 -0.187058,0" style="opacity:0.98;fill:#eeeeeb;fill-opacity:1;stroke:none;stroke-width:0.286485;stroke-linecap:round;paint-order:stroke fill markers" />
<path d="m 18.854693,24.189773 c 0.0016,-0.0013 0.0019,-0.01111 0.0019,-0.181237 0,-0.159806 -2.64e-4,-0.179914 -0.0016,-0.17965 h -0.0016 c 0,-5.29e-4 0.01164,-0.0079 0.02593,-0.01614 0.05027,-0.0299 0.114828,-0.07011 0.164305,-0.102657 l 0.02566,-0.01693 v 0.01534 l -0.0071,0.0053 -0.07064,0.04762 -0.0635,0.04286 -7.94e-4,0.133878 c -7.93e-4,0.138904 -5.29e-4,0.148165 0.0034,0.165098 0.0093,0.03889 0.04127,0.0463 0.122765,0.02805 l 0.01482,-0.0029 q 0.0011,2.64e-4 7.94e-4,0.0053 l -2.64e-4,0.0053 -0.02937,0.0077 c -0.05159,0.01323 -0.183618,0.04498 -0.185999,0.04471 q -5.3e-4,0 0.0011,-0.0013 z" style="opacity:0.98;fill:#eeeeeb;fill-opacity:1;stroke:none;stroke-width:0.0506438;stroke-linecap:round;paint-order:stroke fill markers" />
<path d="M 14.190413,23.869896 C 11.454655,22.894654 9.3983396,20.518197 8.8017117,17.642477 8.0352235,13.947088 10.154509,10.437963 13.403552,8.4824525 14.627234,7.7458618 16.111263,7.6315632 15.645867,7.7852842 L 14.875939,8.0490704 14.553152,8.234541 c -2.315604,1.3308374 -2.66141,4.605015 -0.78104,6.547826 0.597157,0.465131 1.720299,1.051441 2.378309,1.208601 0,0.05159 -0.394224,0.120649 -0.481535,0.143667 a 4.603692,4.603692 0 0 0 -0.713573,0.260876 4.2404237,4.2404237 0 0 0 -2.011337,5.677887 c 0.325169,0.681029 1.047472,1.469213 1.627167,1.774538 0.448728,0.236799 0.253732,0.248176 -0.38073,0.02196" style="opacity:0.98;fill:#4b4b4b;fill-opacity:1;stroke:none;stroke-width:4.58377;stroke-linecap:round;paint-order:stroke fill markers" />
<circle cx="16.707996" cy="11.824999" r="1.278" style="opacity:0.98;fill:#eeeeeb;fill-opacity:1;stroke:none;stroke-width:7.45828;stroke-linecap:round;paint-order:stroke fill markers" />
<circle cx="16.741001" cy="20.199999" r="1.278" style="opacity:0.98;fill:#4b4b4b;fill-opacity:1;stroke:none;stroke-width:7.45828;stroke-linecap:round;paint-order:stroke fill markers" />
<rect x="2" y="2" width="74" height="58" rx="10" fill="none" stroke="#fff" stroke-width="4"/>
</svg>
