<svg xmlns="http://www.w3.org/2000/svg" width="78" height="62" viewBox="0 0 78 62"><g style="display:inline;fill:#7ac70c;fill-opacity:1"><path d="M45.293-17.885H-2.905c-5.3 0-7.193.628-9.122 1.66a11.7 11.7 0 0 0-4.86 4.86c-1.032 1.93-1.66 3.821-1.66 9.122V28.77c0 5.3.628 7.192 1.66 9.121a11.7 11.7 0 0 0 4.86 4.86c1.93 1.033 3.821 1.66 9.122 1.66h48.198c5.3 0 7.192-.627 9.121-1.66a11.7 11.7 0 0 0 4.86-4.86c1.032-1.93 1.66-3.821 1.66-9.121V-2.243c0-5.3-.628-7.192-1.66-9.122a11.7 11.7 0 0 0-4.86-4.86c-1.93-1.032-3.821-1.66-9.121-1.66z" style="fill:#ff4b4b;stroke:#fff;stroke-width:4.2963;stroke-opacity:1" transform="translate(19.268 18.651)scale(.93103)"/><path d="M-6.732-15.737A9.646 9.646 0 0 0-16.4-6.07v38.667a9.646 9.646 0 0 0 9.667 9.666h27.926v-58h-9.667z" style="fill:#ffc300;stroke-width:1.07407" transform="translate(19.268 18.651)scale(.93103)"/><g style="display:inline;stroke:#4b4b4b;stroke-opacity:1"><path d="M247.001 197.108v-60.252c0-5.523 4.477-10 10-10h85.994c5.523 0 10 4.477 10 10v60.252" style="fill:#ffc300;fill-opacity:1;stroke:#ff4b4b;stroke-width:6;stroke-linejoin:round;stroke-miterlimit:4;stroke-dasharray:none;stroke-opacity:1;paint-order:normal;stop-color:#000" transform="matrix(.13373 0 0 .13451 -1.12 3.811)"/><path d="M352.995 197.108v17.256c0 29.27-23.728 52.997-52.997 52.997-29.27 0-52.997-23.728-52.997-52.997v-17.256" style="fill:#ff4b4b;fill-opacity:1;stroke:#ffc300;stroke-width:6;stroke-linejoin:round;stroke-miterlimit:4;stroke-dasharray:none;stroke-opacity:1;paint-order:normal;stop-color:#000" transform="matrix(.13373 0 0 .13451 -1.12 3.811)"/></g><path d="M16.84-7.254v1.824H15.8v-1.824a1.233 1.233 0 0 0-1.233-1.233 1.113 1.113 0 0 0-.979 1.233v5.51a1.233 1.233 0 0 0 1.233 1.232h12.753a1.233 1.233 0 0 0 1.232-1.232v-5.51a1.233 1.233 0 0 0-1.232-1.233 1.113 1.113 0 0 0-.98 1.233v1.824h-1.04v-1.824a1.233 1.233 0 0 0-1.232-1.233 1.113 1.113 0 0 0-.979 1.233v1.824h-1.04v-1.824a1.233 1.233 0 0 0-1.233-1.233 1.113 1.113 0 0 0-.978 1.233v1.824h-1.04v-1.824a1.233 1.233 0 0 0-1.233-1.233 1.113 1.113 0 0 0-.979 1.233z" style="display:inline;fill:#ffc300;fill-opacity:1;stroke:#ff4b4b;stroke-width:.788902;stroke-linejoin:round;stroke-miterlimit:4;stroke-dasharray:none;stroke-opacity:1;paint-order:normal;stop-color:#000" transform="translate(19.268 18.651)scale(.93103)"/><g style="fill:#7ac70c;fill-opacity:1"><path stroke="#ffd300" stroke-linecap="round" stroke-linejoin="round" stroke-width="2.645" d="M12.04 26.888a14.58 14.58 0 0 0 8.957 3.058q5.822.777 9.759 5.881" style="fill:none;fill-opacity:1;stroke:#7ac70c;stroke-opacity:1" transform="translate(19.268 18.651)scale(.93103)"/><path fill="#ffd300" d="m6.795 19.488-.355-.46A6.45 6.45 0 0 1 7.606 9.98l.46-.354.354.46a6.45 6.45 0 0 1-1.165 9.048z" style="fill:#7ac70c;fill-opacity:1" transform="translate(19.268 18.651)scale(.93103)"/><path fill="#ffd300" d="M3.9 21.946h.775a6.45 6.45 0 0 1 6.451 6.451v.775h-.774a6.45 6.45 0 0 1-6.451-6.452z" style="fill:#7ac70c;fill-opacity:1" transform="rotate(162 15.152 34.648)scale(.93103)"/><path fill="#ffd300" d="M8.065 19.29h.774a6.45 6.45 0 0 1 6.451 6.452v.774h-.774a6.45 6.45 0 0 1-6.451-6.451z" style="fill:#7ac70c;fill-opacity:1" transform="rotate(118 4.03 42.97)scale(-.93103 .93103)"/></g><g style="display:inline;fill:#7ac70c;fill-opacity:1"><g style="fill:#7ac70c;fill-opacity:1"><path stroke="#ffd300" stroke-linecap="round" stroke-linejoin="round" stroke-width="2.645" d="M12.04 26.888a14.58 14.58 0 0 0 8.957 3.058q5.822.777 9.759 5.881" style="fill:none;fill-opacity:1;stroke:#7ac70c;stroke-opacity:1" transform="matrix(-.93103 0 0 .93103 58.732 18.651)"/><path fill="#ffd300" d="m6.795 19.488-.355-.46A6.45 6.45 0 0 1 7.606 9.98l.46-.354.354.46a6.45 6.45 0 0 1-1.165 9.048z" style="fill:#7ac70c;fill-opacity:1" transform="matrix(-.93103 0 0 .93103 58.732 18.651)"/><path fill="#ffd300" d="M3.9 21.946h.775a6.45 6.45 0 0 1 6.451 6.451v.775h-.774a6.45 6.45 0 0 1-6.451-6.452z" style="fill:#7ac70c;fill-opacity:1" transform="rotate(198 23.848 28.47)scale(-.93103 .93103)"/><path fill="#ffd300" d="M8.065 19.29h.774a6.45 6.45 0 0 1 6.451 6.452v.774h-.774a6.45 6.45 0 0 1-6.451-6.451z" style="fill:#7ac70c;fill-opacity:1" transform="rotate(242 34.97 19.537)scale(.93103)"/></g></g></g></svg>