<svg xmlns="http://www.w3.org/2000/svg" width="78" height="62" y="1518" viewBox="0 0 78 62"><title>eo</title><path d="M61.437 2H16.563c-4.935 0-6.696.585-8.493 1.545A10.9 10.9 0 0 0 3.545 8.07C2.585 9.867 2 11.628 2 16.563v28.874c0 4.935.585 6.696 1.545 8.493a10.9 10.9 0 0 0 4.525 4.525c1.797.96 3.558 1.545 8.493 1.545h44.874c4.935 0 6.696-.585 8.493-1.545a10.9 10.9 0 0 0 4.525-4.525c.96-1.797 1.545-3.558 1.545-8.493V16.563c0-4.935-.585-6.696-1.545-8.493a10.9 10.9 0 0 0-4.525-4.525C68.133 2.585 66.372 2 61.437 2" style="fill:#ff4b4b;fill-rule:nonzero;stroke:none;stroke-width:4"/><path d="M4 6v50a1.023 1.023 27.081 0 0 1.621.829L38.38 33.171a1.5 1.5 91.019 0 0 .042-2.399L5.58 5.228A.978.978 153.937 0 0 4 6Z" style="fill:#ffc800;fill-opacity:1;stroke:#cbcbcb;stroke-width:0;stroke-dasharray:none;paint-order:markers stroke fill"/><path d="M4 6v50a.782.782 21.355 0 0 1.357.53l21.146-22.908a2.48 2.48 91.054 0 0 .06-3.298L5.303 5.52A.74.74 159.7 0 0 4 6Z" style="fill:#4c4c4c;fill-opacity:1;stroke:#cbcbcb;stroke-width:0;stroke-dasharray:none;paint-order:markers stroke fill"/><path d="M61.437 2H16.563c-4.935 0-6.696.585-8.493 1.545A10.9 10.9 0 0 0 3.545 8.07C2.585 9.867 2 11.628 2 16.563v28.874c0 4.935.585 6.696 1.545 8.493a10.9 10.9 0 0 0 4.525 4.525c1.797.96 3.558 1.545 8.493 1.545h44.874c4.935 0 6.696-.585 8.493-1.545a10.9 10.9 0 0 0 4.525-4.525c.96-1.797 1.545-3.558 1.545-8.493V16.563c0-4.935-.585-6.696-1.545-8.493a10.9 10.9 0 0 0-4.525-4.525C68.133 2.585 66.372 2 61.437 2Z" style="fill:none;fill-rule:nonzero;stroke:#fff;stroke-width:4;stroke-dasharray:none"/><path fill="#7ac70c" d="m8.514 32.978-1.84-.69a1.035 1.035 0 0 1-.587-1.39c.094-.221.26-.41.47-.535l1.736-1.031a.46.46 0 0 0 .225-.352l.17-1.952A1.146 1.146 0 0 1 9.88 26c.242.011.47.1.65.253l1.475 1.26c.11.093.26.125.404.087l1.945-.516c.593-.158 1.186.18 1.324.755.055.228.03.471-.07.691l-.823 1.81a.43.43 0 0 0 .024.406l1.032 1.633c.315.497.147 1.166-.374 1.493a1.15 1.15 0 0 1-.691.175l-1.985-.141a.47.47 0 0 0-.389.163l-1.308 1.526c-.398.464-1.094.54-1.554.168a1.02 1.02 0 0 1-.358-.584l-.403-1.897a.42.42 0 0 0-.265-.305" style="fill:#eee;fill-opacity:1;stroke-width:.511518"/></svg>