<svg xmlns="http://www.w3.org/2000/svg" width="78" height="62">
<rect x="4" y="4" width="70" height="54" fill="#ff4b4b"/>
<rect x="4" y="4" width="34" height="54" fill="#ffc300"/>
<path d="m 31.911444,30.323997 v -8.104496 c 0,-0.742899 0.598709,-1.3451 1.3373,-1.3451 h 11.499977 c 0.738591,0 1.3373,0.602201 1.3373,1.3451 v 8.104496" style="fill:#ffc300;stroke:#ff4b4b;stroke-width:0.8"/>
<path d="m 46.086021,30.323997 v 2.321105 c 0,3.937107 -3.173145,7.128626 -7.087288,7.128626 -3.914278,0 -7.087289,-3.191653 -7.087289,-7.128626 v -2.321105" style="fill:#ff4b4b;stroke:#ffc300;stroke-width:0.8"/>
<path d="m 34.946545,11.897308 v 1.698199 h -0.968271 v -1.698199 a 1.14796,1.14796 0 0 0 -1.14796,-1.14796 1.0362364,1.0362364 0 0 0 -0.911478,1.14796 v 5.129976 a 1.14796,1.14796 0 0 0 1.14796,1.147029 h 11.873425 a 1.14796,1.14796 0 0 0 1.147029,-1.147029 v -5.129976 a 1.14796,1.14796 0 0 0 -1.147029,-1.14796 1.0362364,1.0362364 0 0 0 -0.912409,1.14796 v 1.698199 h -0.968271 v -1.698199 a 1.14796,1.14796 0 0 0 -1.147029,-1.14796 1.0362364,1.0362364 0 0 0 -0.911479,1.14796 v 1.698199 h -0.968271 v -1.698199 a 1.14796,1.14796 0 0 0 -1.14796,-1.14796 1.0362364,1.0362364 0 0 0 -0.910547,1.14796 v 1.698199 h -0.968271 v -1.698199 a 1.14796,1.14796 0 0 0 -1.14796,-1.14796 1.0362364,1.0362364 0 0 0 -0.911479,1.14796 z" style="fill:#ffc300;stroke:#ff4b4b;stroke-width:0.8"/>
<path stroke-linecap="round" stroke-width="2.5" d="m 30.477601,43.684535 a 13.574417,13.574417 0 0 0 8.339236,2.847089 q 5.420457,0.723411 9.085922,5.475388" style="fill:none;stroke:#7ac70c"/>
<path d="m 25.594349,36.794913 -0.330516,-0.428274 a 6.0051435,6.0051435 0 0 1 1.085581,-8.42396 l 0.428274,-0.329584 0.329585,0.428274 a 6.0051435,6.0051435 0 0 1 -1.08465,8.423959 z" style="fill:#7ac70c;stroke-width:1"/>
<path d="m 30.501973,44.607675 -0.686234,0.22297 a 6.0051435,6.0051435 0 0 1 -7.568095,-3.856137 l -0.222971,-0.686233 0.685348,-0.222683 a 6.0051435,6.0051435 0 0 1 7.568383,3.857023 z" style="fill:#7ac70c;stroke-width:1"/>
<path d="m 31.530018,44.523568 0.338309,-0.636267 a 6.0051435,6.0051435 0 0 0 -2.48419,-8.123167 l -0.636267,-0.33831 -0.338309,0.636268 a 6.0051435,6.0051435 0 0 0 2.483368,8.12273 z" style="fill:#7ac70c;stroke-width:1"/>
<path stroke-linecap="round" stroke-width="2.5" d="m 47.522399,43.684535 a 13.574417,13.574417 0 0 1 -8.339236,2.847089 q -5.420457,0.723411 -9.085922,5.475388" style="fill:none;stroke:#7ac70c;stroke-opacity:1"/>
<path d="m 52.405651,36.794913 0.330516,-0.428274 a 6.0051435,6.0051435 0 0 0 -1.085581,-8.42396 l -0.428274,-0.329584 -0.329585,0.428274 a 6.0051435,6.0051435 0 0 0 1.08465,8.423959 z" style="fill:#7ac70c;stroke-width:1"/>
<path d="m 47.498338,44.60571 0.686234,0.22297 a 6.0051435,6.0051435 0 0 0 7.568095,-3.856137 L 55.975638,40.28631 55.29029,40.063627 a 6.0051435,6.0051435 0 0 0 -7.568383,3.857023 z" style="fill:#7ac70c;stroke-width:1"/>
<path d="M 46.469483,44.524397 46.131174,43.88813 a 6.0051435,6.0051435 0 0 1 2.48419,-8.123167 l 0.636267,-0.33831 0.338309,0.636268 a 6.0051435,6.0051435 0 0 1 -2.483368,8.12273 z" style="fill:#7ac70c;stroke-width:1"/>
<rect x="2" y="2" width="74" height="58" rx="10" fill="none" stroke="#fff" stroke-width="4"/>
</svg>