<svg xmlns="http://www.w3.org/2000/svg" width="78" height="62"><path d="M61.437 2H16.563c-4.935 0-6.696.585-8.493 1.545A10.9 10.9 0 0 0 3.545 8.07C2.585 9.867 2 11.628 2 16.563v28.874c0 4.935.585 6.696 1.545 8.493a10.9 10.9 0 0 0 4.525 4.525c1.797.96 3.558 1.545 8.493 1.545h44.874c4.935 0 6.696-.585 8.493-1.545a10.9 10.9 0 0 0 4.525-4.525c.96-1.797 1.545-3.558 1.545-8.493V16.563c0-4.935-.585-6.696-1.545-8.493a10.9 10.9 0 0 0-4.525-4.525C68.133 2.585 66.372 2 61.437 2" style="fill:#ff4b4b;fill-rule:nonzero;stroke:none;stroke-width:4"/><path d="M61.437 2H16.563c-4.935 0-6.696.585-8.493 1.545A10.9 10.9 0 0 0 3.545 8.07C2.585 9.867 2 11.628 2 16.563v28.874c0 4.935.585 6.696 1.545 8.493a10.9 10.9 0 0 0 4.525 4.525c1.797.96 3.558 1.545 8.493 1.545h44.874c4.935 0 6.696-.585 8.493-1.545a10.9 10.9 0 0 0 4.525-4.525c.96-1.797 1.545-3.558 1.545-8.493V16.563c0-4.935-.585-6.696-1.545-8.493a10.9 10.9 0 0 0-4.525-4.525C68.133 2.585 66.372 2 61.437 2Z" style="fill:none;fill-rule:nonzero;stroke:#fff;stroke-width:4"/><path d="M63.218 31A24.22 24.22 0 0 1 39 55.218 24.22 24.22 0 0 1 14.782 31 24.22 24.22 0 0 1 39 6.782 24.22 24.22 0 0 1 63.218 31" style="fill:none;stroke:#ffc800;stroke-width:7.35825;stroke-linecap:round;stroke-linejoin:round;stroke-miterlimit:4;stroke-dasharray:none;stroke-opacity:1;stop-color:#000" transform="translate(7.199 5.722)scale(.81541)"/><g style="stroke:#ffc800;stroke-width:19.041;stroke-miterlimit:4;stroke-dasharray:none;stroke-opacity:1"><path d="M447.301 185.882c-38.46-19.47-82.481-29.768-127.355-29.79-44.433.219-87.976 10.51-126.058 29.79" style="fill:none;fill-opacity:1;stroke:#ffc800;stroke-width:19.041;stroke-linecap:round;stroke-linejoin:round;stroke-miterlimit:4;stroke-dasharray:none;stroke-opacity:1;paint-order:normal;stop-color:#000" transform="translate(5.326 8.247)scale(.10504)"/><g style="stroke:#ffc800;stroke-width:12.6389;stroke-miterlimit:4;stroke-dasharray:none;stroke-opacity:1"><path d="m319.963 256.37 8.5 8.5v12.043h-17V264.87Z" style="opacity:1;fill:#ffc800;fill-opacity:1;stroke:#ffc800;stroke-width:12.6389;stroke-linecap:round;stroke-linejoin:round;stroke-miterlimit:4;stroke-dasharray:none;stroke-opacity:1;paint-order:normal;stop-color:#000" transform="translate(-11.7 -2.034)scale(.15824)"/><path d="M319.963 256.37V143.448" style="fill:none;stroke:#ffc800;stroke-width:12.6389;stroke-linecap:butt;stroke-linejoin:miter;stroke-miterlimit:4;stroke-dasharray:none;stroke-opacity:1" transform="translate(-11.7 -2.034)scale(.15824)"/><path d="m319.963 132.925 7.341 12.877-7.341 7.342-7.341-7.341z" style="opacity:1;fill:#ffc800;fill-opacity:1;stroke:#ffc800;stroke-width:12.6389;stroke-linecap:round;stroke-linejoin:round;stroke-miterlimit:4;stroke-dasharray:none;stroke-opacity:1;stop-color:#000" transform="translate(-11.7 -2.034)scale(.15824)"/></g></g><g style="display:inline;fill:#ffc800;fill-opacity:1"><path d="m396.665 180-26.426 33.799c-3.401 4.35-10.539 9.106-16.049 9.195l-.525.006a25 25 0 0 0-25 25 25 25 0 0 0 25 25h30a7.5 7.5 0 0 0 7.5-7.5 7.5 7.5 0 0 0-7.5-7.5h-10c22.091 0 40-17.908 40-40v-38z" style="fill:#ffc800;fill-opacity:1;stroke-width:1.55316;stroke-linecap:round;stroke-linejoin:round;paint-order:stroke markers fill;stop-color:#000" transform="translate(6.838 10.987)scale(.10478)"/><path d="M396.665 228v37.5a7.5 7.5 0 0 0 7.5 7.5h3.994a7.5 7.5 0 0 0 7.5-7.5 7.5 7.5 0 0 0-7.5-7.5h-.494v-30z" style="fill:#ffc800;fill-opacity:1;stroke-width:1.397;stroke-linecap:round;stroke-linejoin:round;paint-order:stroke markers fill;stop-color:#000" transform="translate(6.838 10.987)scale(.10478)"/><path d="M400.415 170a3.75 3.75 45 0 1 3.75 3.75V180h-7.5v-6.25a3.75 3.75 135 0 1 3.75-3.75" style="fill:#ffc800;fill-opacity:1;stroke-width:2.04304;stroke-linecap:round;stroke-linejoin:round;paint-order:stroke markers fill;stop-color:#000" transform="translate(6.838 10.987)scale(.10478)"/><path d="M425.021-173.876h10.053a7.5 7.5 45 0 1 7.5 7.5v12.5a5 5 135 0 1-5 5h-22.5l-7.5-7.5v-.053a17.447 17.447 135 0 1 17.447-17.447" style="fill:#ffc800;fill-opacity:1;stroke-width:1.47196;stroke-linecap:round;stroke-linejoin:round;paint-order:stroke markers fill;stop-color:#000" transform="rotate(45 -9.844 13.748)scale(.10478)"/><path d="M207.678 180v35c0 31.48 25.52 57 57 57h23.201c12.814 0 23.202-10.387 23.201-23.201a23.2 23.2 0 0 0-23.2-23.201v-5.793a5.81 5.81 0 0 0-5.81-5.809h-5.792v11.594a5.81 5.81 0 0 0 5.808 5.808 5.81 5.81 0 0 0-5.808 5.809v11.594h5.793a5.81 5.81 0 0 0 5.808-5.809V237.2a11.6 11.6 0 0 1 11.6 11.6c0 6.406-5.193 11.6-11.6 11.6-13.218 0-18.719-7.118-23.2-11.6-4.483-4.482-14-21.122-14-33.799a35 35 0 0 0-35-35z" style="fill:#ffc800;fill-opacity:1;stroke:none;stroke-width:1.36695;stroke-linecap:round;stroke-linejoin:round;stroke-opacity:1;paint-order:stroke markers fill;stop-color:#000" transform="translate(3.991 11.092)scale(.10478)"/><path d="M31.631 318.714H66.5a20 20 45 0 1 20 20H11.631a20 20 135 0 1 20-20" style="opacity:1;fill:#ffc800;fill-opacity:1;stroke:none;stroke-width:1.397;stroke-linecap:round;stroke-linejoin:round;stroke-opacity:1;paint-order:stroke markers fill;stop-color:#000" transform="rotate(-36.674 18.729 -.475)scale(.10478)"/></g><path fill="#ff4b4b" d="M20.5 27.437V28H4v-6h16.5z" style="fill:#ffc800;fill-opacity:1;stroke-width:.485504;stroke:none"/><path fill="#ff4b4b" d="M20.5 39.437V40H4v-6h16.5z" style="fill:#ffc800;fill-opacity:1;stroke-width:.485503;stroke:none"/><path fill="#ff4b4b" d="M74 27.437V28H57.5v-6H74Z" style="fill:#ffc800;fill-opacity:1;stroke-width:.485504;stroke:none"/><path fill="#ff4b4b" d="M74 39.437V40H57.5v-6H74Z" style="fill:#ffc800;fill-opacity:1;stroke-width:.485503;stroke:none"/></svg>