<svg xmlns="http://www.w3.org/2000/svg" width="78" height="62">
<rect x="4" y="4" width="70" height="54" fill="#eee"/>
<rect x="4" y="9.4" width="70" height="5.4" fill="#1cb0f6"/>
<rect x="4" y="20.2" width="70" height="5.4" fill="#1cb0f6"/>
<rect x="4" y="31" width="70" height="5.4" fill="#1cb0f6"/>
<rect x="4" y="41.8" width="70" height="5.4" fill="#1cb0f6"/>
<rect x="4" y="52.6" width="70" height="5.4" fill="#1cb0f6"/>
<path d="m 43.952,10.25 c 2.838,5.722 2.76,9.012 -1.59,14.231 -1.538,1.489 4.493,7.073 6.387,9.432 0.967,1.067 5.897,3.348 3.668,-2.492 -1.617,-3.956 -1.374,-6.785 0.123,-8.198 3.468,-2.548 3.863,-4.185 3.582,-5.706 -5.161,-6.004 6.289,-2.116 0,4.847 -4.293,3.449 -2.906,5.254 -2.02,8.245 1.146,3.31 0.335,3.9 0.335,3.9 2.173,-2.626 0.58,-8.367 -3.179,-11.432 -4.211,-4.153 -3.963,-8.787 -0.425,-11.89 6.078,-4.037 10.165,2.304 9.547,5.863 -2.18,2.149 -0.962,-4.87 -5.78,-5.195 -2.71,0.017 -6.274,3.077 -3.868,7.41 3.983,5.06 9.61,10.721 5.009,17.134 -2.908,2.248 -4.274,0.484 -5.6,0.759 0.194,8.035 7.57,8.906 0.686,17.173 -0.237,0.54 -4.84,0.278 -7.261,0.288 -1.554,-5.8 6.258,-1.116 5.218,-7.208 -2.322,-1.297 -3.488,-2.41 -6.128,-7.574 -15.204,-0.686 -7.445,14.346 -13.324,12.776 0,0 -1.435,0.072 -7.473,0.06 -2.285,-7.674 6.502,-0.003 5.572,-7.54 -0.726,-4.83 0.696,-8.175 10.179,-10.965 1.953,-0.802 -0.86,-1.206 -3.593,-4.53 -2.692,-2.692 -4.848,4.366 -13.813,4.366 -4.856,-0.169 -2.907,-6.475 -0.665,-4.844 4.081,3.156 9.418,-3.612 8.811,-4.779 -8.104,-9.705 -6.751,-19.699 -0.747,-13.09 -2.383,5.815 5.527,10.887 7.032,7.448 -1.186,-5.163 2.035,-1.402 1.854,-4.383 0.156,-2.82 -2.763,0.7 -2.784,-3.16 0.2,-1.859 9.969,-1.901 10.247,-0.946" fill="#ff4b4b" />
<path fill="#ffc800" d="m 40.054688,6.8613281 c -0.608643,0 -0.943174,1.0497563 -0.863282,1.9199219 -0.507625,0.030484 -0.97657,0.086624 -1.384765,0.1640625 0.08523,-0.9257261 -0.277495,-1.9199219 -0.863282,-1.9199219 -0.736909,0 -0.730468,2.7006687 -0.730468,2.7421875 0,0.5606479 1.713052,1.0117189 3.841797,1.0117189 2.128744,0 3.84375,-0.451071 3.84375,-1.0117189 0,-0.041514 0.0064,-2.7421875 -0.730469,-2.7421875 -0.585787,0 -0.948519,0.9942137 -0.863281,1.9199219 C 41.896493,8.8678737 41.427548,8.811734 40.919922,8.78125 41.000128,7.9076582 40.662276,6.8613281 40.054688,6.8613281 Z" />
<rect x="2" y="2" width="74" height="58" rx="10" fill="none" stroke="#fff" stroke-width="4"/>
</svg>