<svg xmlns="http://www.w3.org/2000/svg" xmlns:vectornator="http://vectornator.io" xml:space="preserve" width="557.397" height="443.059" viewBox="0 0 557.397 443.059"><g transform="translate(-955.013 -62.237)scale(3.77953)">M 61.436962,2 H 16.563038 C 11.628201,2 9.866819,2.5845126 8.070258,3.5453238 6.119529,4.5885853 4.5885853,6.119529 3.5453238,8.070258 2.5845126,9.866819 2,11.628201 2,16.563038 v 28.873924 c 0,4.934837 0.5845126,6.696219 1.5453238,8.49278 1.0432615,1.950729 2.5742052,3.481673 4.5249342,4.524934 C 9.866819,59.415487 11.628201,60 16.563038,60 h 44.873924 c 4.934837,0 6.696219,-0.584513 8.49278,-1.545324 1.950729,-1.043261 3.481673,-2.574205 4.524934,-4.524934 C 75.415487,52.133181 76,50.371799 76,45.436962 V 16.563038 C 76,11.628201 75.415487,9.866819 74.454676,8.070258 73.411415,6.119529 71.880471,4.5885853 69.929742,3.5453238 68.133181,2.5845126 66.371799,2 61.436962,2 Z</g><path d="M439.036 14.292H118.36c-35.264 0-47.852 4.177-60.69 11.043-13.94 7.456-24.88 18.396-32.336 32.336-6.866 12.838-11.043 25.425-11.043 60.69v206.337c0 35.265 4.177 47.852 11.043 60.69 7.456 13.94 18.396 24.88 32.336 32.336 12.838 6.866 25.426 11.043 60.69 11.043h320.675c35.265 0 47.852-4.177 60.69-11.043 13.94-7.455 24.88-18.396 32.336-32.336 6.866-12.838 11.043-25.425 11.043-60.69V118.36c0-35.265-4.177-47.852-11.043-60.69-7.455-13.94-18.396-24.88-32.336-32.336-12.838-6.866-25.425-11.043-60.69-11.043Z" style="display:inline;fill:#1cb0f6;fill-opacity:1;fill-rule:nonzero;stroke:#fff;stroke-width:28.5845"/><path fill="#ff3" d="M61.665 680.867h343.507v315.43H61.665z" style="fill:#ffc800;fill-opacity:1;stroke-width:.877412" transform="translate(-14.158 -617.052)"/><path vectornator:layerName="path" fill="#37abf8" d="M43.659 878.615c0-.153 0-.305.076-.534.127-.416.222-.755.222-1.096.109-29.274.228-58.548.305-87.823.04-15.626-.11-31.252.046-46.876.114-11.367-.74-22.756.582-34.102.338-2.893.53-5.843 1.266-8.642 1.685-6.405 3.764-12.69 7.579-18.23 3.801-5.52 7.05-11.485 12.5-15.684 3.35-2.582 6.629-5.274 10.129-7.636 6.053-4.085 12.7-6.798 19.844-8.495 6.072-1.443 12.188-1.956 18.37-2.054 5.412-.087 10.825-.05 16.237-.012 10.697.078 21.395.284 32.091.285 102.304.023 204.608.017 306.909.006 4.935 0 9.87-.084 14.736.93 3.273.681 6.657 1.085 9.775 2.21 4.501 1.624 8.937 3.553 13.16 5.801 3.165 1.685 5.98 4.044 8.9 6.17 1.89 1.375 3.866 2.699 5.49 4.356 2.092 2.136 3.894 4.56 5.776 6.899 4.789 5.951 8.038 12.716 10.808 19.8 2.822 7.221 3.551 14.76 3.555 22.32.012 55.793-.147 111.585-.233 167.376-.003 3.113.288 6.226.272 9.34-.024 5.15-.225 10.3-.272 15.448-.05 5.769-.012 11.539-.012 17.307 0 8.364-.027 16.73.016 25.093.015 3.318.293 6.634.256 9.952-.028 2.46-.343 4.923-.587 7.38-.265 2.676-.351 5.403-.956 8.008-1.5 6.456-3.912 12.602-7.034 18.455-2.785 5.23-6.327 9.92-10.487 14.12-2.07 2.088-4.226 4.134-6.56 5.919-3.168 2.422-6.353 4.94-9.874 6.748-4.46 2.289-9.23 3.998-13.93 5.79-5.286 2.017-10.906 2.555-16.464 2.578-18.128.077-36.256-.155-54.383-.222-3.573-.012-7.143.269-10.716.266-3.674 0-7.345-.251-11.019-.26-2.859-.01-5.72.278-8.575.263-5.507-.03-11.013-.251-16.52-.263-4.08-.013-8.16.256-12.24.26-3.674.01-7.348-.266-11.019-.26-4.182 0-8.365.266-12.547.26-4.691 0-9.382-.239-14.074-.26-2.909-.015-5.82.281-8.73.266-11.715-.061-23.43-.269-35.144-.275-58.074-.03-116.147-.011-174.22-.04-2.105 0-4.267-.144-6.3-.635-3.673-.889-7.276-2.074-10.896-3.17a48.8 48.8 0 0 1-12.298-5.675c-3.688-2.373-7.403-4.798-10.689-7.675-2.971-2.605-5.367-5.86-8.041-8.81-5.293-5.837-8.209-13.02-11.037-20.164-2.77-6.996-3.529-14.472-3.712-21.968-.065-2.65.245-5.31.256-7.964.01-2.046-.268-4.09-.27-6.135-.021-22.394-.011-44.789-.026-67.184 0-.487-.19-.975-.292-1.463m309.985-143.08c-1.866-3.789-3.198-7.82-5.758-11.294-2.283-3.097-4.12-6.505-7.016-9.156-2.252-2.062-4.6-3.543-7.842-3.255-2.139.19-4.312-.043-6.462.058-2.262.105-4.515.554-6.772.553-4.911 0-9.6 1.096-14.26 2.471-5.558 1.641-10.761 4.088-15.692 7.075-1.993 1.209-3.646 2.967-5.532 4.37-3.65 2.716-6.393 6.174-8.577 10.12-.185.335-.468.618-.637.96-1.654 3.339-3.258 6.709-3.281 10.542-.01 1.535.329 3.078.254 4.606-.128 2.644 1.277 4.545 3.054 6.053 4.1 3.48 8.716 3.436 13.33 1.142 2.757-1.37 5.323-3.119 8.027-4.6.681-.373 1.566-.374 2.356-.545-.054.498-.146.996-.159 1.494-.103 4.154-1.96 7.832-3.31 11.616-.718 2.018-2.135 3.83-3.44 5.585-2.003 2.693-3.975 5.477-7.293 6.784-1.706.673-3.496 1.2-5.085 2.086-2.96 1.648-6.197 1.475-9.366 1.704-1.571.113-3.174-.127-4.756-.28-1.55-.15-3.126-.255-4.624-.638-1.587-.406-3.071-1.194-4.644-1.67-1.233-.374-2.701-.231-3.77-.838-2.905-1.65-5.673-3.546-8.454-5.408-1.145-.767-1.914-1.766-1.79-3.341.202-2.546.107-5.118.361-7.656.402-4.025.975-8.033 1.503-12.044.488-3.711 1.184-7.404 1.465-11.13.198-2.633-.1-5.31-.263-7.961-.126-2.057-2.006-4.844-4.458-5.508a51 51 0 0 1-4.852-1.56c-.295-.112-.622-.899-.505-1.218.936-2.561 1.914-5.11 2.998-7.612 1.405-3.237 3.069-6.367 4.344-9.653 1.161-2.99-1.059-5.885-4.259-5.904-.254 0-.52.05-.761-.008-2.901-.67-5.688-.17-8.525.552-1.877.476-4.093 1.095-5.785.531-4.446-1.481-8.936-1.441-13.466-1.36-2.861.05-4.852 1.695-5.026 3.952-.175 2.276.282 4.453 1.19 6.53 1.527 3.49 3.084 6.968 4.64 10.446 1.08 2.416.183 4.461-2.106 4.699-2.203.23-4.408.524-6.618.59-3.084.09-5.925.78-8.804 1.997-5.877 2.483-9.842 9.476-8.159 16.3.72 2.921 2.122 4.024 5.132 4.024 3.513 0 7.027-.07 10.536.027 2.007.055 4.012.331 6.007.596 2.572.342 4.589 2.491 4.312 5.168-.152 1.46-.037 2.95-.024 4.426.007.894.067 1.788.075 2.682.026 2.82-.165 5.662.131 8.454.185 1.74-.466 4.712-2.254 5.968-2.801 1.97-6.063 2.018-9.175 2.543-3.02.509-6.134.448-9.202.69-1.157.09-2.308.298-3.452.506-1.697.31-3.391.979-5.078.951-5.871-.098-11.758.526-17.62-.515-3.716-.66-7.212-1.86-10.258-3.975-3.028-2.103-5.836-4.557-8.167-7.47-3.967-4.955-6.125-10.552-5.827-16.964.033-.723.46-1.427.704-2.14.421.295.837.596 1.265.88.072.047.222-.028.295.017q4.177 2.639 8.348 5.286c4.77 3.024 9.636 5.582 15.61 5.136 3.65-.273 7.978-3.459 8.513-7.116.368-2.515.407-5.107.3-7.652-.065-1.537-.528-3.116-1.095-4.565-2.287-5.858-5.964-10.787-10.314-15.285-2.376-2.459-5.18-4.242-8.096-5.923-1.606-.927-3.08-2.168-4.784-2.827-4.083-1.58-8.196-3.187-12.433-4.236-3.438-.85-7.064-1.124-10.621-1.246-3.162-.109-6.361.203-9.512.59-2.463.301-5.05.134-7.34 1.424-.18.1-.515.084-.704-.018-1.083-.583-2.035-.134-2.794.522-2.298 1.988-4.684 3.916-6.72 6.155-2.428 2.67-4.657 5.545-6.736 8.498a183 183 0 0 0-7.504 11.522 82 82 0 0 0-4.705 9.191c-1.657 3.789-2.927 7.746-4.53 11.56-2.736 6.506-4.662 13.176-4.016 20.303.297 3.266 1.172 6.43 4.474 8.16 1.55.812 3.079 1.66 4.624 2.479 1.76.932 2.009 1.975.97 3.68-.41.675-.855 1.447-.91 2.202-.202 2.699-.467 5.425-.287 8.112.207 3.099 2.136 5.502 4.319 7.504 1.217 1.118 3.005 1.588 4.411 2.534.858.577 2.012 1.456 2.09 2.29.147 1.533-.418 3.131-.652 4.708-.469 3.145-1.06 6.243-.51 9.495.57 3.374.964 6.676 3.054 9.604 1.714 2.404 3.204 4.874 6.115 6.075 1.86.767 3.69 1.053 5.69.806 1.976-.244 3.984-.287 5.978-.292.403 0 .97.488 1.169.895.265.539.263 1.215.342 1.838.401 3.144 2.161 5.477 4.6 7.281 3.51 2.596 7.614 3.477 11.876 3.33 2.581-.09 3.782 1.285 4.168 3.24.505 2.548 1.674 4.718 2.794 6.954 1.707 3.406 6.506 5.01 10.025 3.636 2.945-1.151 5.238-3.196 7.68-5.034 1.814-1.366 3.452-2.97 5.138-4.5.35-.319.476-.905.848-1.173 3.17-2.294 5.306-5.517 7.634-8.547 2.441-3.177 4.685-6.505 7.051-9.742.608-.832 1.321-1.59 2.05-2.318.098-.096.833.169.85.313.353 3.228.789 6.457.91 9.696.104 2.8-.126 5.617-.293 8.421-.031.522-.374 1.096-.73 1.513-1.027 1.206-2.126 2.353-3.211 3.51-1.959 2.084-3.749 4.378-5.94 6.181-2.67 2.2-4.583 4.717-5.017 8.153-.205 1.626-.988 2.54-2.46 2.951-2.65.74-5.316 1.42-7.969 2.149-4.294 1.179-8.646 2.194-12.856 3.624-3.468 1.177-6.562 1.03-9.665-.932-2.93-1.852-5.947-3.567-8.946-5.306-4.678-2.709-9.394-5.352-14.051-8.094-2.317-1.364-4.32-2.454-6.894-.088-1.951 1.794-2.53 4.178-.869 6.27 2.146 2.7 5.346 3.821 8.03 5.698 1.802 1.26 3.924 2.057 5.87 3.122.38.208.61.694.908 1.05-.446.153-.905.46-1.336.427-1.754-.137-3.497-.536-5.247-.549-3.062-.022-6.129.111-9.187.29-2.493.145-4.878 1.543-4.707 5.213.114 2.423 2.058 4.2 4.76 4.249 1.435.026 2.866.237 4.302.28a90 90 0 0 0 5.243 0c1.791-.05 3.58-.224 5.371-.267.366-.009.74.329 1.11.506-.263.239-.495.534-.795.707-4.066 2.345-8.115 4.723-12.228 6.98-1.526.838-2.674 1.924-3.14 3.568-.519 1.833.386 3.397 1.444 4.745 1.333 1.7 4.282 1.767 6.433.48 3.337-1.997 6.746-3.873 10.094-5.852 4.83-2.853 9.66-5.706 14.43-8.654 1.856-1.147 3.54-1.724 5.395-.082.52.46 1.233.696 1.847 1.052 4.844 2.805 9.66 5.66 14.545 8.395 1.672.935 3.239 2.31 5.55 1.031 1.426-.789 2.807-1.49 3.103-3.093.392-2.13-.03-4.27-2.005-5.501-3.46-2.155-7.052-4.098-10.577-6.15-.493-.286-.923-.68-1.383-1.025.528-.266 1.03-.628 1.588-.784 5.206-1.45 10.46-2.74 15.612-4.358 1.87-.587 3.387-.529 5.048.353 1.326.705 2.694 1.594 4.126 1.786 4.607.62 8.825-.302 12.343-3.683 4.084-3.927 8.284-7.733 12.46-11.562 1.049-.96 2.194-1.815 3.308-2.702.174-.14.414-.196.625-.291.044.254.126.507.127.761.011 1.85.083 3.704-.013 5.548-.126 2.415-.259 4.841-.624 7.226-.48 3.127-.995 6.274-1.873 9.303-.526 1.812-1.495 3.667-2.759 5.052-2.194 2.407-5.334 3.44-8.353 4.431-3.819 1.254-7.727 2.232-11.574 3.404-3.937 1.2-7.759 2.644-9.902 6.549-1.813 3.304-1.881 6.85.892 9.127 1.774 1.456 3.97 2.11 6.207 2.294 3.05.251 6.125.372 9.184.314a44.9 44.9 0 0 1 16.563 2.811c2.81 1.038 5.423 2.676 5.867 5.946.539 3.964.66 7.986.974 11.983.233 2.983.695 5.887 2.429 8.462 2.051 3.045 5.021 4.722 8.354 5.965 2.276.849 4.47 1.31 6.864.311 5.171-2.156 8.407-5.6 8.606-11.278.147-4.233.23-8.467.307-12.701.043-2.323 1.263-4.208 2.53-5.916.83-1.119 2.337-1.82 3.656-2.475 3.915-1.947 8.224-2.515 12.473-3.018 4.158-.49 8.378-.439 12.566-.683 3.042-.178 5.261-1.807 5.992-4.419 1.061-3.787.113-7.312-2.374-10.327-1.782-2.162-4.358-2.508-6.99-3.042-5.11-1.035-10.12-2.556-15.169-3.887-3.544-.934-6.125-3.152-7.102-6.608-.965-3.413-1.511-6.985-1.852-10.524-.36-3.75-.276-7.546-.338-11.321-.004-.318.276-.796.552-.923.3-.138.853-.088 1.111.115.669.524 1.188 1.236 1.853 1.765 1.636 1.301 3.334 2.523 4.982 3.81 3.35 2.614 6.538 5.467 10.061 7.82 4.043 2.7 8.494 3.586 13 .9 2.094-1.249 4.242-1.543 6.547-.904.954.264 1.876.647 2.831.901 4.63 1.238 9.269 2.45 13.902 3.677.215.056.416.162.623.245-.163.222-.277.53-.495.654-3.621 2.063-7.273 4.075-10.881 6.161-1.554.9-2.763 2.196-3.164 3.993-.357 1.601.576 2.732 1.59 3.894 1.485 1.706 3.233 2.062 5.431 1.036a82 82 0 0 0 5.532-2.866c4.378-2.466 8.726-4.987 13.088-7.483 1.31-.748 2.556-1.129 4.059-.237 4.117 2.44 8.323 4.728 12.466 7.126 4.315 2.498 8.587 5.07 12.895 7.58 3.536 2.06 6.824.086 8.014-2.787.793-1.912-.504-4.585-2.826-6-2.831-1.722-5.754-3.297-8.656-4.9-1.196-.661-2.462-1.193-3.65-1.867-.302-.171-.451-.647-.613-1.01-.047-.105.11-.438.17-.437 1.78.024 3.56.045 5.338.134 2.182.109 4.36.383 6.54.385 1.34.001 2.676-.488 4.023-.546 2.32-.1 4.746-2.36 4.68-4.527-.066-2.179-2.39-4.796-4.649-4.713-4.728.17-9.465.055-14.2.045a5 5 0 0 1-1.306-.166c-.23-.062-.505-.273-.578-.48-.043-.124.227-.44.423-.553 3.817-2.21 7.574-4.535 11.497-6.538 1.872-.956 2.95-2.178 3.484-4.152.62-2.29-.734-5.01-2.956-5.835-2.131-.79-3.832.193-5.534 1.173-3.701 2.135-7.362 4.34-11.065 6.471-3.242 1.867-6.524 3.666-9.78 5.508-1.776 1.004-3.444 2.273-5.325 2.993-2.627 1.007-5.204-.076-7.767-.797-6.023-1.694-12.056-3.365-18.115-4.925-3.51-.903-3.79-1.182-4.116-4.768-.084-.933-.64-1.886-1.178-2.698-.758-1.137-1.614-2.24-2.58-3.204-3.623-3.612-7.317-7.149-10.953-10.747-.382-.378-.743-.955-.784-1.466-.265-3.27-.441-6.547-.64-9.823-.024-.406.012-.815-.004-1.222-.098-2.452-.232-4.903-.271-7.356-.006-.393.531-1.159.605-1.134.63.218 1.327.464 1.77.928.393.408.358 1.21.729 1.656a941 941 0 0 0 8.71 10.269c2.607 3.04 5.237 6.06 7.862 9.086.782.901 1.558 1.812 2.387 2.67.298.309.812.413 1.102.726 1.113 1.193 2.048 2.585 3.28 3.628 3.194 2.7 6.693 5.03 10.902 5.677 2.012.31 4.273-.043 5.653-1.894 1.33-1.782 2.403-3.76 3.567-5.665.117-.19.091-.47.126-.709q.61-4.175 1.223-8.35c.1-.687-.024-1.663.375-1.987.538-.435 1.5-.547 2.252-.482 2.13.186 4.115 1.496 6.425.332 1.28-.645 3.014-.392 4.291-1.042 1.946-.991 3.87-2.21 5.424-3.72 1.094-1.064 1.798-2.705 2.237-4.216.42-1.443.247-3.054.382-4.587.12-1.358 1.085-2.544 1.906-2.37 2.804.593 5.603 1.214 8.404 1.826 2.23.487 6.402-1.275 7.71-3.18 1.738-2.535 2.389-5.256 1.845-8.313-.437-2.44-.528-4.948-1.06-7.361-.612-2.766-1.56-5.456-2.329-8.19-.857-3.048-.772-3.211 2-4.73.128-.07.21-.23.338-.288 2.856-1.286 4.771-3.472 5.892-6.339a9.4 9.4 0 0 0 .607-2.945c.089-2.152.192-4.327-.033-6.458-.141-1.316-.913-2.557-1.344-3.852-.329-.999-.204-1.967.639-2.68.46-.39 1.071-.6 1.548-.974 3.429-2.7 5.619-6.08 6.292-10.507.488-3.218-.715-6.435.253-9.607a.34.34 0 0 0 .003-.152c-.407-2.936-.73-5.887-1.249-8.804-.43-2.43-.275-5.013-1.772-7.21-.244-.359-.018-1.03-.036-1.556-.018-.494.05-1.033-.122-1.477a858 858 0 0 0-6.29-16.085m-65.661 143.235-.535-.382-.225.534c.202 0 .405 0 .76-.152" style="fill:#1cb0f6;fill-opacity:1;stroke-width:.814374" transform="translate(-14.158 -617.052)"/></svg>