<svg xmlns="http://www.w3.org/2000/svg" width="78" height="62">
<rect x="2" y="2" width="74" height="58" rx="10" fill="#ff4b4b"/>
<path id="a" d="m 35.56017,30.46684 c -6.809,-5.27439 -3.56851,-15.49339 4.20068,-17.31785 1.7677,-0.41503 1.5741,0.49049 1.28744,2.22134 -0.2618,1.5807 1.52097,4.2691 1.12717,5.99962 a 6.05,6.05 0 0 1 -0.35442,1.07459 c -0.71335,1.63581 -3.69864,3.0305 -4.51396,4.62165 -0.36256,0.70774 -0.51788,1.48379 -0.45276,2.2418 0.15158,1.76396 0.14256,2.27172 -1.29415,1.15885" style="fill:#eee" />
<use href="#a" transform="rotate(71.999999,38.415,32.11992)" />
<use href="#a" transform="rotate(144,38.415,32.119922)"/>
<use href="#a" transform="rotate(-144,38.415,32.119922)" />
<use href="#a" transform="rotate(-71.999999,38.415003,32.119922)" />
<rect x="2" y="2" width="74" height="58" rx="10" fill="none" stroke="#fff" stroke-width="4"/>
</svg>
