<svg xmlns="http://www.w3.org/2000/svg" xml:space="preserve" width="78" height="62" viewBox="0 0 78 62"><path d="M61.35 2.05h-44.8c-4.9 0-6.7.6-8.5 1.5-2 1-3.5 2.6-4.5 4.5-1 1.8-1.5 3.6-1.5 8.5v28.9c0 4.9.6 6.7 1.5 8.5 1 2 2.6 3.5 4.5 4.5 1.8 1 3.6 1.5 8.5 1.5h44.9c4.9 0 6.7-.6 8.5-1.5 2-1 3.5-2.6 4.5-4.5 1-1.8 1.5-3.6 1.5-8.5v-28.9c0-4.9-.6-6.7-1.5-8.5-1-2-2.6-3.5-4.5-4.5-1.9-.9-3.6-1.5-8.6-1.5z" style="fill:#ff4b4b;stroke:#fff;stroke-width:4"/><path d="M60.85 47.95h-43.5c-1.8 0-3.2-1.4-3.2-3.2v-27.5c0-1.8 1.4-3.2 3.2-3.2h43.5c1.8 0 3.2 1.4 3.2 3.2v27.4c0 1.9-1.4 3.3-3.2 3.3" style="fill:#7ac70c"/><path d="M45.25 25.25c-.5-.1-.8-.2-1.2-.2-3.3 0-6 2.7-6 6s2.7 6 6 6c.4 0 .7-.1 1.2-.2.3-.1.6.1.6.4.1.2-.1.4-.2.6-1.2.9-2.8 1.3-4.6 1.3-4.4 0-8-3.6-8-8s3.6-8 8-8c1.9 0 3.4.4 4.6 1.3.3.2.3.5.1.7-.1.1-.3.1-.5.1" style="fill:#fff"/></svg>