<svg xmlns="http://www.w3.org/2000/svg" width="78" height="62"><path d="M61.437 2H16.563c-4.935 0-6.696.585-8.493 1.545A10.9 10.9 0 0 0 3.545 8.07C2.585 9.867 2 11.628 2 16.563v28.874c0 4.935.585 6.696 1.545 8.493a10.9 10.9 0 0 0 4.525 4.525c1.797.96 3.558 1.545 8.493 1.545h44.874c4.935 0 6.696-.585 8.493-1.545a10.9 10.9 0 0 0 4.525-4.525c.96-1.797 1.545-3.558 1.545-8.493V16.563c0-4.935-.585-6.696-1.545-8.493a10.9 10.9 0 0 0-4.525-4.525C68.133 2.585 66.372 2 61.437 2Z" style="fill:#1254a9;fill-opacity:1;fill-rule:nonzero;stroke:#fff;stroke-width:4"/><path d="M37.653 19.67c.324-1.435 2.37-1.435 2.694 0l.75 3.319a1.38 1.38 0 0 0 2.085.864l2.876-1.817c1.245-.786 2.692.66 1.906 1.906l-1.817 2.876a1.38 1.38 0 0 0 .864 2.085l3.318.75c1.436.324 1.436 2.37 0 2.694l-3.318.75a1.38 1.38 0 0 0-.864 2.085l1.817 2.876c.786 1.245-.661 2.692-1.906 1.906l-2.876-1.817a1.38 1.38 0 0 0-2.085.864l-.75 3.318c-.324 1.436-2.37 1.436-2.694 0l-.75-3.318a1.38 1.38 0 0 0-2.085-.864l-2.876 1.817c-1.245.786-2.692-.66-1.906-1.906l1.817-2.876a1.38 1.38 0 0 0-.864-2.085l-3.318-.75c-1.436-.324-1.436-2.37 0-2.694l3.318-.75a1.38 1.38 0 0 0 .864-2.085l-1.817-2.876c-.786-1.245.66-2.692 1.906-1.906l2.876 1.817c.807.51 1.875.067 2.085-.864z" style="fill:#eee;fill-opacity:1;stroke-width:1.42623"/></svg>