<svg xmlns="http://www.w3.org/2000/svg" width="78" height="62">
<rect x="4" y="4" width="70" height="54" fill="#1254a9"/>
<path style="fill:#eee" d="M 42.291016 12.5 C 42.191634 12.504888 42.092768 12.515051 41.994141 12.529297 C 41.56264 12.591577 40.918449 12.912077 40.5 13.037109 C 39.489947 13.338693 38.394447 13.288893 37.380859 13.015625 C 36.958757 12.901815 36.300602 12.615076 35.869141 12.552734 C 35.717276 12.530824 35.408539 12.511481 35.183594 12.525391 L 34.40625 12.660156 C 33.965448 12.785198 33.550782 12.988329 33.181641 13.259766 C 32.830347 13.518924 32.361647 14.062341 32.134766 14.435547 C 31.636925 15.254568 31.414815 16.182366 31.347656 17.183594 C 31.318306 17.620004 31.359526 18.329548 31.447266 18.757812 C 31.633863 19.668722 31.961443 20.567893 32.322266 21.419922 C 32.492824 21.822667 32.412046 22.54897 32.152344 22.394531 L 32.150391 22.394531 L 32.148438 22.392578 C 32.118691 22.382848 32.041737 22.404581 31.984375 22.408203 C 31.72007 22.125669 31.410542 21.839057 31.164062 21.650391 C 29.886073 20.672577 28.493861 19.689789 26.943359 19.46875 C 26.510945 19.40706 25.79698 19.432337 25.371094 19.529297 C 23.764286 19.894865 22.270781 21.173087 22 22.742188 C 21.92594 23.172013 22.031894 23.883651 22.021484 24.320312 C 21.996204 25.374101 21.610251 26.401825 21.037109 27.28125 C 20.798475 27.647661 20.321675 28.183088 20.128906 28.574219 C 20.061206 28.711683 19.948827 28.998706 19.892578 29.216797 L 19.779297 30 C 19.761997 30.45772 19.826727 30.914778 19.970703 31.349609 C 20.108671 31.763786 20.480614 32.377905 20.765625 32.708984 C 21.39092 33.435459 22.205354 33.933318 23.136719 34.306641 C 23.542759 34.469295 24.229511 34.650242 24.664062 34.699219 C 25.587899 34.803284 26.54501 34.76743 27.466797 34.6875 C 27.90254 34.64967 28.568903 34.951102 28.341797 35.150391 L 28.339844 35.152344 L 28.337891 35.154297 C 28.319264 35.17968 28.315178 35.258505 28.300781 35.314453 C 27.950598 35.478492 27.583569 35.685207 27.328125 35.861328 C 26.003329 36.774658 24.638812 37.795012 23.949219 39.201172 C 23.756848 39.593506 23.558992 40.279764 23.519531 40.714844 C 23.370824 42.356058 24.124433 44.171616 25.533203 44.914062 C 25.918945 45.117284 26.628866 45.23607 27.041016 45.380859 C 28.03561 45.730461 28.893525 46.415391 29.552734 47.232422 C 29.827401 47.572589 30.191573 48.191889 30.503906 48.496094 C 30.614013 48.603189 30.850952 48.799034 31.041016 48.919922 L 31.751953 49.267578 C 32.181668 49.425196 32.636048 49.504561 33.09375 49.501953 C 33.530099 49.498753 34.227868 49.336772 34.630859 49.167969 C 35.51492 48.798067 36.241845 48.176937 36.884766 47.40625 C 37.164892 47.070508 37.5477 46.472245 37.728516 46.074219 C 38.112876 45.227788 38.375242 44.305657 38.583984 43.404297 C 38.682724 42.977995 39.175565 42.439268 39.294922 42.716797 C 39.295288 42.717635 39.298331 42.721812 39.298828 42.722656 C 39.317537 42.748184 39.390604 42.775703 39.439453 42.806641 C 39.487393 43.190166 39.569706 43.603161 39.658203 43.900391 C 40.117367 45.442588 40.664659 47.054433 41.789062 48.144531 C 42.102699 48.448639 42.696049 48.849524 43.097656 49.021484 C 44.612574 49.67015 46.57174 49.514536 47.712891 48.404297 C 48.025488 48.100201 48.357818 47.462237 48.623047 47.115234 C 49.262846 46.277518 50.179557 45.673425 51.160156 45.298828 C 51.568522 45.142762 52.270295 44.988369 52.65625 44.785156 C 52.791941 44.713646 53.050952 44.547731 53.224609 44.404297 L 53.775391 43.837891 C 54.058626 43.477575 54.27492 43.069493 54.414062 42.632812 C 54.545888 42.216772 54.606238 41.501943 54.570312 41.066406 C 54.491732 40.111313 54.123988 39.228404 53.589844 38.378906 C 53.356985 38.008749 52.908765 37.459129 52.585938 37.164062 C 51.899661 36.5368 51.103227 36.002572 50.310547 35.525391 C 49.935785 35.299858 49.576133 34.6663 49.876953 34.638672 L 49.878906 34.638672 L 49.880859 34.638672 C 49.910797 34.628881 49.961148 34.565986 50.005859 34.529297 C 50.385246 34.602167 50.805244 34.650491 51.115234 34.658203 C 52.723836 34.698073 54.426338 34.675795 55.810547 33.943359 C 56.196804 33.739045 56.761159 33.297308 57.048828 32.96875 C 58.133833 31.728421 58.590086 29.817181 57.886719 28.388672 C 57.69409 27.997387 57.189622 27.484579 56.941406 27.125 C 56.342494 26.257692 56.051277 25.198934 55.998047 24.150391 C 55.975847 23.71399 56.044713 22.999942 55.970703 22.570312 C 55.944773 22.419068 55.868033 22.121615 55.785156 21.912109 L 55.416016 21.212891 C 55.160529 20.832137 54.839084 20.500098 54.466797 20.232422 C 54.111699 19.978541 53.452539 19.700054 53.027344 19.599609 C 52.094658 19.37936 51.140952 19.455538 50.167969 19.701172 C 49.744059 19.808156 49.083404 20.065399 48.703125 20.28125 C 47.894657 20.74012 47.140229 21.332966 46.441406 21.939453 C 46.110874 22.226118 45.396264 22.372876 45.462891 22.078125 L 45.462891 22.076172 L 45.462891 22.074219 C 45.462962 22.04288 45.41958 21.97548 45.398438 21.921875 C 45.585352 21.583223 45.761946 21.199098 45.865234 20.90625 C 46.400252 19.388666 46.903634 17.763531 46.634766 16.220703 C 46.559856 15.790369 46.315577 15.117177 46.091797 14.742188 C 45.352996 13.503875 43.977934 12.56316 42.589844 12.5 C 42.490294 12.4955 42.390397 12.495112 42.291016 12.5 z M 41.285156 18.152344 C 41.353936 18.14909 41.42333 18.149128 41.492188 18.152344 C 42.456139 18.196205 43.410772 18.849046 43.923828 19.708984 C 44.079161 19.969533 44.250714 20.437485 44.302734 20.736328 C 44.489483 21.807841 44.139014 22.936391 43.767578 23.990234 C 43.695886 24.193357 43.573091 24.460278 43.443359 24.695312 C 43.458063 24.732595 43.488201 24.778854 43.488281 24.800781 L 43.488281 24.802734 L 43.488281 24.804688 C 43.442013 25.009376 43.938537 24.90607 44.167969 24.707031 C 44.653263 24.28586 45.176741 23.875335 45.738281 23.556641 C 46.002364 23.406744 46.461373 23.228626 46.755859 23.154297 C 47.431542 22.983718 48.092501 22.930929 48.740234 23.083984 C 49.035509 23.153737 49.495696 23.347097 49.742188 23.523438 C 50.000422 23.70888 50.223331 23.939072 50.400391 24.203125 L 50.65625 24.689453 C 50.713699 24.834978 50.767112 25.041349 50.785156 25.146484 C 50.836656 25.444804 50.789237 25.94098 50.804688 26.244141 C 50.841617 26.972191 51.043073 27.706297 51.458984 28.308594 C 51.631461 28.558267 51.981499 28.915879 52.115234 29.1875 C 52.603684 30.17952 52.286679 31.505847 51.533203 32.367188 C 51.333467 32.595457 50.941958 32.901119 50.673828 33.042969 C 49.712468 33.551643 48.52916 33.568599 47.412109 33.541016 C 47.196943 33.535626 46.906181 33.501845 46.642578 33.451172 C 46.611789 33.476655 46.577464 33.520489 46.556641 33.527344 L 46.554688 33.527344 L 46.552734 33.527344 C 46.343866 33.546634 46.595218 33.985958 46.855469 34.142578 C 47.405941 34.473954 47.956978 34.845547 48.433594 35.28125 C 48.657641 35.486088 48.971106 35.867947 49.132812 36.125 C 49.503746 36.714929 49.757965 37.327079 49.8125 37.990234 C 49.837447 38.29269 49.794636 38.789102 49.703125 39.078125 C 49.607269 39.380935 49.457719 39.664131 49.261719 39.914062 L 48.878906 40.308594 C 48.758277 40.408097 48.576652 40.522607 48.482422 40.572266 C 48.214398 40.713385 47.728901 40.821308 47.445312 40.929688 C 46.764202 41.189754 46.127898 41.609658 45.683594 42.191406 C 45.499442 42.432485 45.267828 42.874654 45.050781 43.085938 C 44.258211 43.856972 42.89773 43.966088 41.845703 43.515625 C 41.566844 43.396313 41.155303 43.117436 40.9375 42.90625 C 40.156733 42.149099 39.775895 41.029955 39.457031 39.958984 C 39.395609 39.752679 39.337978 39.465556 39.304688 39.199219 C 39.270733 39.177635 39.219874 39.158459 39.207031 39.140625 L 39.205078 39.138672 L 39.205078 39.136719 C 39.122191 38.94399 38.77944 39.319331 38.710938 39.615234 C 38.565873 40.241214 38.384104 40.880951 38.117188 41.46875 C 37.991656 41.745261 37.725712 42.159215 37.53125 42.392578 C 37.084847 42.927639 36.580694 43.360205 35.966797 43.617188 C 35.686908 43.734307 35.201562 43.847379 34.898438 43.849609 C 34.580607 43.850986 34.265043 43.795397 33.966797 43.685547 L 33.472656 43.443359 C 33.340668 43.359409 33.175968 43.224797 33.099609 43.150391 C 32.882607 42.939172 32.63009 42.509698 32.439453 42.273438 C 31.98146 41.706124 31.385899 41.229142 30.695312 40.986328 C 30.409202 40.885746 29.916349 40.803341 29.648438 40.662109 C 28.670264 40.146592 28.146731 38.885826 28.25 37.746094 C 28.277438 37.44406 28.415203 36.967662 28.548828 36.695312 C 29.027573 35.718744 29.974535 35.011211 30.894531 34.376953 C 31.071853 34.254786 31.32734 34.109941 31.570312 33.996094 C 31.580365 33.957477 31.580967 33.9024 31.59375 33.884766 L 31.595703 33.884766 L 31.597656 33.882812 C 31.755369 33.744417 31.294785 33.534278 30.992188 33.560547 C 30.352058 33.61605 29.686615 33.640696 29.044922 33.568359 C 28.743288 33.534418 28.266243 33.409864 27.984375 33.296875 C 27.337524 33.037762 26.771985 32.691926 26.337891 32.1875 C 26.139967 31.957584 25.880967 31.529809 25.785156 31.242188 C 25.685242 30.940138 25.640216 30.622601 25.652344 30.304688 L 25.730469 29.761719 C 25.76953 29.610267 25.847414 29.411902 25.894531 29.316406 C 26.028398 29.044788 26.359638 28.672316 26.525391 28.417969 C 26.92351 27.807223 27.191431 27.093126 27.208984 26.361328 C 27.21632 26.058056 27.143883 25.564115 27.195312 25.265625 C 27.38325 24.176007 28.419317 23.28707 29.535156 23.033203 C 29.830945 22.965974 30.326666 22.949344 30.626953 22.992188 C 31.703725 23.145792 32.671101 23.828776 33.558594 24.507812 C 33.729448 24.638586 33.943545 24.837417 34.126953 25.033203 C 34.167757 25.030478 34.221037 25.014683 34.242188 25.021484 L 34.244141 25.021484 L 34.246094 25.023438 C 34.426439 25.130687 34.481724 24.627341 34.363281 24.347656 C 34.112605 23.756004 33.883453 23.130518 33.753906 22.498047 C 33.693047 22.200502 33.665272 21.709278 33.685547 21.40625 C 33.732185 20.710952 33.886804 20.064824 34.232422 19.496094 C 34.390048 19.236785 34.715064 18.859763 34.958984 18.679688 C 35.215088 18.491432 35.502826 18.350479 35.808594 18.263672 L 36.349609 18.169922 C 36.505682 18.160192 36.72071 18.174241 36.826172 18.189453 C 37.125832 18.232851 37.581873 18.430731 37.875 18.509766 C 38.57888 18.699534 39.33959 18.734824 40.041016 18.525391 C 40.33171 18.438528 40.780459 18.215231 41.080078 18.171875 C 41.148325 18.162174 41.216377 18.155597 41.285156 18.152344 z M 38.951172 25 C 38.494352 25.018968 38.060312 25.291547 37.84375 25.748047 L 36.810547 27.925781 A 0.53 0.53 0 0 1 36.414062 28.224609 L 34.103516 28.574219 C 33.822516 28.616219 33.563234 28.754844 33.365234 28.964844 A 1.38 1.38 0 0 0 33.388672 30.859375 L 35.0625 32.556641 A 0.56 0.56 0 0 1 35.212891 33.037109 L 34.818359 35.433594 A 1.4 1.4 0 0 0 34.947266 36.283203 C 35.277266 36.938203 36.0575 37.190703 36.6875 36.845703 L 38.755859 35.714844 L 38.755859 35.716797 A 0.51 0.51 0 0 1 39.244141 35.716797 L 41.3125 36.845703 C 41.5635 36.982703 41.848906 37.030469 42.128906 36.980469 C 42.830906 36.855469 43.301641 36.163594 43.181641 35.433594 L 42.787109 33.037109 A 0.56 0.56 0 0 1 42.9375 32.556641 L 44.611328 30.859375 A 1.36 1.36 0 0 0 44.986328 30.09375 C 45.089328 29.36075 44.601484 28.680219 43.896484 28.574219 L 41.583984 28.224609 A 0.53 0.53 0 0 1 41.189453 27.925781 L 40.15625 25.748047 C 40.03025 25.483047 39.825313 25.269672 39.570312 25.138672 C 39.370937 25.036484 39.158817 24.991378 38.951172 25 z " />
<rect x="2" y="2" width="74" height="58" rx="10" fill="none" stroke="#fff" stroke-width="4"/>
</svg>