<svg xmlns="http://www.w3.org/2000/svg" xml:space="preserve" width="78" height="62"><path d="M61.437 2H16.563c-4.935 0-6.696.585-8.493 1.545A10.9 10.9 0 0 0 3.545 8.07C2.585 9.867 2 11.628 2 16.563v28.874c0 4.935.585 6.696 1.545 8.493a10.9 10.9 0 0 0 4.525 4.525c1.797.96 3.558 1.545 8.493 1.545h44.874c4.935 0 6.696-.585 8.493-1.545a10.9 10.9 0 0 0 4.525-4.525c.96-1.797 1.545-3.558 1.545-8.493V16.563c0-4.935-.585-6.696-1.545-8.493a10.9 10.9 0 0 0-4.525-4.525C68.133 2.585 66.372 2 61.437 2" style="fill:#ff4b4b;fill-opacity:1;fill-rule:nonzero;stroke:none;stroke-width:4"/><path d="M74 40v5.437c0 4.368-.455 5.953-1.309 7.55a8.9 8.9 0 0 1-3.704 3.704C67.39 57.545 65.805 58 61.437 58H16.563c-4.368 0-5.953-.455-7.55-1.309a8.9 8.9 0 0 1-3.704-3.704C4.455 51.39 4 49.805 4 45.437V40Z" style="fill:#78c800;fill-opacity:1;fill-rule:nonzero"/><path d="M16.563 4h44.874c4.368 0 5.953.455 7.55 1.309a8.9 8.9 0 0 1 3.704 3.704C73.545 10.61 74 12.195 74 16.563V22H4v-5.437c0-4.368.455-5.953 1.309-7.55A8.9 8.9 0 0 1 9.013 5.31C10.61 4.455 12.195 4 16.563 4" style="fill:#1cb0f6;fill-opacity:1;fill-rule:nonzero"/><path d="M61.437 2H16.563c-4.935 0-6.696.585-8.493 1.545A10.9 10.9 0 0 0 3.545 8.07C2.585 9.867 2 11.628 2 16.563v28.874c0 4.935.585 6.696 1.545 8.493a10.9 10.9 0 0 0 4.525 4.525c1.797.96 3.558 1.545 8.493 1.545h44.874c4.935 0 6.696-.585 8.493-1.545a10.9 10.9 0 0 0 4.525-4.525c.96-1.797 1.545-3.558 1.545-8.493V16.563c0-4.935-.585-6.696-1.545-8.493a10.9 10.9 0 0 0-4.525-4.525C68.133 2.585 66.372 2 61.437 2Z" style="fill:none;fill-rule:nonzero;stroke:#fff;stroke-width:4"/><path fill="#fff" d="M112.657 24.38q-1.311-.334-2.312-.334c-6.627 0-12 5.373-12 12s5.373 12 12 12q1 0 2.312-.334a1 1 0 0 1 .822 1.787q-3.62 2.547-9.134 2.547c-8.836 0-16-7.163-16-16s7.164-16 16-16q5.515 0 9.135 2.547a1 1 0 0 1-.823 1.787" style="fill:#eee;fill-opacity:1" transform="translate(-15.769 12.752)scale(.50625)"/><path fill="#ffc800" d="M118.381 28.403c.228-1.007 1.662-1.007 1.89 0l.525 2.326a.97.97 0 0 0 1.462.606l2.017-1.274c.873-.55 1.887.464 1.336 1.336l-1.274 2.017a.97.97 0 0 0 .606 1.462l2.327.526c1.006.227 1.006 1.662 0 1.889l-2.327.526a.97.97 0 0 0-.606 1.461l1.274 2.017c.551.873-.463 1.887-1.336 1.336l-2.017-1.273a.97.97 0 0 0-1.462.605l-.525 2.327c-.228 1.007-1.662 1.007-1.89 0l-.525-2.327a.968.968 0 0 0-1.462-.605l-2.017 1.273c-.873.551-1.887-.463-1.336-1.336l1.274-2.017a.968.968 0 0 0-.606-1.461l-2.326-.526c-1.007-.227-1.007-1.662 0-1.89l2.326-.525a.968.968 0 0 0 .606-1.462l-1.274-2.017c-.551-.872.463-1.887 1.336-1.336l2.017 1.274a.968.968 0 0 0 1.462-.606z" style="fill:#eee;fill-opacity:1" transform="translate(-15.769 12.752)scale(.50625)"/></svg>