<svg xmlns="http://www.w3.org/2000/svg" width="78" height="62">
<rect x="4" y="4" width="70" height="54" fill="#1cb0f6"/>
<rect x="4" y="31" width="70" height="27" fill="#ff4b4b"/>
<path d="m5 30.5 32.6-6.3c.8-.2 1.9-.2 2.8 0L73 30.5c1.1.2 1.3.6.5.9-.1.1-.3.1-.5.1l-32.6 6.3c-.8.2-1.9.2-2.8 0L5 31.5c-1.1-.2-1.3-.6-.5-.9.1 0 .3 0 .5-.1" fill="#eee" />
<path d="M38.3 57.3 32 32.1c-.2-.6-.2-1.5 0-2.1l6.3-25.2c.2-.8.6-1 .9-.4.1.1.1.2.1.4L45.6 30c.2.6.2 1.5 0 2.1l-6.3 25.2c-.2.8-.6 1-.9.4 0-.2 0-.3-.1-.4" fill="#eee" />
<rect x="2" y="2" width="74" height="58" rx="10" fill="none" stroke="#fff" stroke-width="4"/>
</svg>