<svg xmlns="http://www.w3.org/2000/svg" width="78" height="62">
<rect x="4" y="4" width="70" height="54" fill="#1254a9"/>
<rect width="74" height="14" x="4" y="23.5" fill="#1cb0f6"/>
<path d="M4.795 6.215a11 11 0 0 0-1.25 1.855C2.585 9.867 2 11.628 2 16.563v28.875c0 4.934.584 6.695 1.545 8.492q.385.717.855 1.357L33.947 34.68a8.261 5.039 0 0 0 .004-.002c3.044-2.125 3.044-6.002 0-8.127a8.261 5.039 0 0 0-.004-.002z" fill="#4c4c4c"/>
<path d="M15.907 22.23a.98.98 0 0 0-.883.62l-1.6 4.06-4.34.483a.975.975 0 0 0-.51 1.72l3.37 2.778-.883 4.275a.975.975 0 0 0 1.479 1.018l3.68-2.346 3.794 2.16a.975.975 0 0 0 1.426-1.092l-1.092-4.226 3.225-2.94a.975.975 0 0 0-.596-1.693l-4.36-.268-1.798-3.976a.98.98 0 0 0-.912-.573" fill="#fff"/>
<rect x="2" y="2" width="74" height="58" rx="10" fill="none" stroke="#fff" stroke-width="4"/>
</svg>