<svg xmlns="http://www.w3.org/2000/svg" width="78" height="62"><ellipse cx="-80.15" cy="-10" rx="19.85" ry="20" style="display:inline;opacity:1;fill:#fff;fill-opacity:1;fill-rule:nonzero;stroke:none;stroke-width:6.00702;stroke-linecap:round;stroke-linejoin:round;stroke-miterlimit:4;stroke-dasharray:none;stroke-dashoffset:0;stroke-opacity:1"/><ellipse cx="-80.15" cy="-60" rx="19.85" ry="20" style="opacity:1;fill:#eee;fill-opacity:1;fill-rule:nonzero;stroke:none;stroke-width:6.00702;stroke-linecap:round;stroke-linejoin:round;stroke-miterlimit:4;stroke-dasharray:none;stroke-dashoffset:0;stroke-opacity:1"/><ellipse cx="-80.15" cy="-110" rx="19.85" ry="20" style="display:inline;opacity:1;fill:#4c4c4c;fill-opacity:1;fill-rule:nonzero;stroke:none;stroke-width:6.00702;stroke-linecap:round;stroke-linejoin:round;stroke-miterlimit:4;stroke-dasharray:none;stroke-dashoffset:0;stroke-opacity:1"/><ellipse cx="-30.15" cy="-60" rx="19.85" ry="20" style="display:inline;opacity:1;fill:#1cb0f6;fill-opacity:1;fill-rule:nonzero;stroke:none;stroke-width:6.00702;stroke-linecap:round;stroke-linejoin:round;stroke-miterlimit:4;stroke-dasharray:none;stroke-dashoffset:0;stroke-opacity:1"/><ellipse cx="-30.15" cy="-110" rx="19.85" ry="20" style="display:inline;opacity:1;fill:#1254a9;fill-opacity:1;fill-rule:nonzero;stroke:none;stroke-width:6.00702;stroke-linecap:round;stroke-linejoin:round;stroke-miterlimit:4;stroke-dasharray:none;stroke-dashoffset:0;stroke-opacity:1"/><ellipse cx="19.85" cy="-60" rx="19.85" ry="20" style="display:inline;opacity:1;fill:#ff4b4b;fill-opacity:1;fill-rule:nonzero;stroke:none;stroke-width:6.00702;stroke-linecap:round;stroke-linejoin:round;stroke-miterlimit:4;stroke-dasharray:none;stroke-dashoffset:0;stroke-opacity:1"/><ellipse cx="69.85" cy="-60" rx="19.85" ry="20" style="display:inline;opacity:1;fill:#ffc800;fill-opacity:1;fill-rule:nonzero;stroke:none;stroke-width:6.00702;stroke-linecap:round;stroke-linejoin:round;stroke-miterlimit:4;stroke-dasharray:none;stroke-dashoffset:0;stroke-opacity:1"/><ellipse cx="69.85" cy="-110" rx="19.85" ry="20" style="display:inline;opacity:1;fill:#ff9600;fill-opacity:1;fill-rule:nonzero;stroke:none;stroke-width:6.00702;stroke-linecap:round;stroke-linejoin:round;stroke-miterlimit:4;stroke-dasharray:none;stroke-dashoffset:0;stroke-opacity:1"/><ellipse cx="69.85" cy="-160" rx="19.85" ry="20" style="display:inline;opacity:1;fill:#ffce8e;fill-opacity:1;fill-rule:nonzero;stroke:none;stroke-width:6.00702;stroke-linecap:round;stroke-linejoin:round;stroke-miterlimit:4;stroke-dasharray:none;stroke-dashoffset:0;stroke-opacity:1"/><ellipse cx="119.85" cy="-60" rx="19.85" ry="20" style="display:inline;opacity:1;fill:#78c800;fill-opacity:1;fill-rule:nonzero;stroke:none;stroke-width:6.00702;stroke-linecap:round;stroke-linejoin:round;stroke-miterlimit:4;stroke-dasharray:none;stroke-dashoffset:0;stroke-opacity:1"/><path d="M61.437 2H16.563c-4.935 0-6.696.585-8.493 1.545A10.9 10.9 0 0 0 3.545 8.07C2.585 9.867 2 11.628 2 16.563v28.874c0 4.935.585 6.696 1.545 8.493a10.9 10.9 0 0 0 4.525 4.525c1.797.96 3.558 1.545 8.493 1.545h44.874c4.935 0 6.696-.585 8.493-1.545a10.9 10.9 0 0 0 4.525-4.525c.96-1.797 1.545-3.558 1.545-8.493V16.563c0-4.935-.585-6.696-1.545-8.493a10.9 10.9 0 0 0-4.525-4.525C68.133 2.585 66.372 2 61.437 2" style="fill:#ff4b4b;fill-rule:nonzero;stroke:none;stroke-width:4"/><path d="M74 40v5.437c0 4.368-.455 5.953-1.309 7.55a8.9 8.9 0 0 1-3.704 3.704C67.39 57.545 65.805 58 61.437 58H16.563c-4.368 0-5.953-.455-7.55-1.309a8.9 8.9 0 0 1-3.704-3.704C4.455 51.39 4 49.805 4 45.437V40Z" style="fill:#ffc800;fill-rule:nonzero"/><path d="M16.563 4h44.874c4.368 0 5.953.455 7.55 1.309a8.9 8.9 0 0 1 3.704 3.704C73.545 10.61 74 12.195 74 16.563V22H4v-5.437c0-4.368.455-5.953 1.309-7.55A8.9 8.9 0 0 1 9.013 5.31C10.61 4.455 12.195 4 16.563 4" style="fill:#4c4c4c;fill-rule:nonzero"/><path d="M61.437 2H16.563c-4.935 0-6.696.585-8.493 1.545A10.9 10.9 0 0 0 3.545 8.07C2.585 9.867 2 11.628 2 16.563v28.874c0 4.935.585 6.696 1.545 8.493a10.9 10.9 0 0 0 4.525 4.525c1.797.96 3.558 1.545 8.493 1.545h44.874c4.935 0 6.696-.585 8.493-1.545a10.9 10.9 0 0 0 4.525-4.525c.96-1.797 1.545-3.558 1.545-8.493V16.563c0-4.935-.585-6.696-1.545-8.493a10.9 10.9 0 0 0-4.525-4.525C68.133 2.585 66.372 2 61.437 2Z" style="fill:none;fill-rule:nonzero;stroke:#fff;stroke-width:4"/></svg>