<svg xmlns="http://www.w3.org/2000/svg" width="78" height="62"><rect width="78" height="61.858" y=".142" ry="13.559" style="fill:#fff;fill-rule:evenodd;stroke:none;stroke-width:.178789"/><rect width="72.13" height="57.485" x="3.124" y="2.803" ry="12.027" style="fill:#1cb0f6;fill-opacity:1;fill-rule:evenodd;stroke:none;stroke-width:.158588;stroke-opacity:1"/><path d="m1.511 38.159 28.393 22.005 22.464 1.41L.998 23.397.27 38.43Zm75.062-14.042L48.087 2.232 25.617.917l51.53 37.96.666-15.036Z" style="fill:#eee;fill-opacity:1;fill-rule:nonzero;stroke:none;stroke-width:.321531px;stroke-linecap:butt;stroke-linejoin:miter;stroke-opacity:1"/><path d="m3.443 12.072 62.51 46.608c5.281-1.572 10.142-1.092 8.7-8.669L13.106 3.897C7.2 3.64 3.253 7.484 3.442 12.072" style="fill:#eee;fill-opacity:1;fill-rule:nonzero;stroke:none;stroke-width:.195715px;stroke-linecap:butt;stroke-linejoin:miter;stroke-opacity:1"/><g style="fill:none;fill-rule:nonzero;stroke:none;stroke-width:1" transform="translate(-34.845 -171.439)scale(.81676)"><ellipse cx="-98.067" cy="229.146" rx="5.317" ry="2.659" style="fill:#ff4b4b;fill-opacity:1;stroke:none;stroke-width:.176962;stroke-opacity:1" transform="rotate(-48.46)"/><ellipse cx="-110.795" cy="216.089" rx="5.317" ry="2.659" style="fill:#ff4b4b;fill-opacity:1;stroke:none;stroke-width:.176962;stroke-opacity:1" transform="rotate(-51.678)"/><ellipse cx="215.007" cy="122.694" rx="5.317" ry="3.409" style="fill:#ff4b4b;fill-opacity:1;stroke:none;stroke-width:.20132;stroke-opacity:1" transform="rotate(36.067)"/></g><g style="fill:none;fill-rule:nonzero;stroke:none;stroke-width:1" transform="translate(-18.331 -159.447)scale(.81676)"><ellipse cx="-98.067" cy="229.146" rx="5.317" ry="2.659" style="fill:#ff4b4b;fill-opacity:1;stroke:none;stroke-width:.176962;stroke-opacity:1" transform="rotate(-48.46)"/><ellipse cx="-110.795" cy="216.089" rx="5.317" ry="2.659" style="fill:#ff4b4b;fill-opacity:1;stroke:none;stroke-width:.176962;stroke-opacity:1" transform="rotate(-51.678)"/><ellipse cx="215.007" cy="122.694" rx="5.317" ry="3.409" style="fill:#ff4b4b;fill-opacity:1;stroke:none;stroke-width:.20132;stroke-opacity:1" transform="rotate(36.067)"/></g><g style="fill:none;fill-rule:nonzero;stroke:none;stroke-width:1" transform="translate(-69.788 -170.08)scale(.81676)"><ellipse cx="-98.067" cy="229.146" rx="5.317" ry="2.659" style="fill:#ff4b4b;fill-opacity:1;stroke:none;stroke-width:.176962;stroke-opacity:1" transform="rotate(-48.46)"/><ellipse cx="-110.795" cy="216.089" rx="5.317" ry="2.659" style="fill:#ff4b4b;fill-opacity:1;stroke:none;stroke-width:.176962;stroke-opacity:1" transform="rotate(-51.678)"/><ellipse cx="215.007" cy="122.694" rx="5.317" ry="3.409" style="fill:#ff4b4b;fill-opacity:1;stroke:none;stroke-width:.20132;stroke-opacity:1" transform="rotate(36.067)"/></g><g style="fill:none;fill-rule:nonzero;stroke:none;stroke-width:1" transform="translate(-45.296 -151.267)scale(.81676)"><ellipse cx="-98.067" cy="229.146" rx="5.317" ry="2.659" style="fill:#ff4b4b;fill-opacity:1;stroke:none;stroke-width:.176962;stroke-opacity:1" transform="rotate(-48.46)"/><ellipse cx="-110.795" cy="216.089" rx="5.317" ry="2.659" style="fill:#ff4b4b;fill-opacity:1;stroke:none;stroke-width:.176962;stroke-opacity:1" transform="rotate(-51.678)"/><ellipse cx="215.007" cy="122.694" rx="5.317" ry="3.409" style="fill:#ff4b4b;fill-opacity:1;stroke:none;stroke-width:.20132;stroke-opacity:1" transform="rotate(36.067)"/></g><g style="fill:none;fill-rule:nonzero;stroke:none;stroke-width:1" transform="translate(-22.098 -134.298)scale(.81676)"><ellipse cx="-98.067" cy="229.146" rx="5.317" ry="2.659" style="fill:#ff4b4b;fill-opacity:1;stroke:none;stroke-width:.176962;stroke-opacity:1" transform="rotate(-48.46)"/><ellipse cx="-110.795" cy="216.089" rx="5.317" ry="2.659" style="fill:#ff4b4b;fill-opacity:1;stroke:none;stroke-width:.176962;stroke-opacity:1" transform="rotate(-51.678)"/><ellipse cx="215.007" cy="122.694" rx="5.317" ry="3.409" style="fill:#ff4b4b;fill-opacity:1;stroke:none;stroke-width:.20132;stroke-opacity:1" transform="rotate(36.067)"/></g><g style="fill:none;fill-rule:nonzero;stroke:none;stroke-width:1" transform="translate(-71.715 -143.556)scale(.81676)"><ellipse cx="-98.067" cy="229.146" rx="5.317" ry="2.659" style="fill:#ff4b4b;fill-opacity:1;stroke:none;stroke-width:.176962;stroke-opacity:1" transform="rotate(-48.46)"/><ellipse cx="-110.795" cy="216.089" rx="5.317" ry="2.659" style="fill:#ff4b4b;fill-opacity:1;stroke:none;stroke-width:.176962;stroke-opacity:1" transform="rotate(-51.678)"/><ellipse cx="215.007" cy="122.694" rx="5.317" ry="3.409" style="fill:#ff4b4b;fill-opacity:1;stroke:none;stroke-width:.20132;stroke-opacity:1" transform="rotate(36.067)"/></g><g style="fill:none;fill-rule:nonzero;stroke:none;stroke-width:1" transform="translate(-55.633 -131.133)scale(.81676)"><ellipse cx="-98.067" cy="229.146" rx="5.317" ry="2.659" style="fill:#ff4b4b;fill-opacity:1;stroke:none;stroke-width:.176962;stroke-opacity:1" transform="rotate(-48.46)"/><ellipse cx="-110.795" cy="216.089" rx="5.317" ry="2.659" style="fill:#ff4b4b;fill-opacity:1;stroke:none;stroke-width:.176962;stroke-opacity:1" transform="rotate(-51.678)"/><ellipse cx="215.007" cy="122.694" rx="5.317" ry="3.409" style="fill:#ff4b4b;fill-opacity:1;stroke:none;stroke-width:.20132;stroke-opacity:1" transform="rotate(36.067)"/></g><path d="M61.437 2H16.563c-4.935 0-6.696.585-8.493 1.545A10.9 10.9 0 0 0 3.545 8.07C2.585 9.867 2 11.628 2 16.563v28.874c0 4.935.585 6.696 1.545 8.493a10.9 10.9 0 0 0 4.525 4.525c1.797.96 3.558 1.545 8.493 1.545h44.874c4.935 0 6.696-.585 8.493-1.545a10.9 10.9 0 0 0 4.525-4.525c.96-1.797 1.545-3.558 1.545-8.493V16.563c0-4.935-.585-6.696-1.545-8.493a10.9 10.9 0 0 0-4.525-4.525C68.133 2.585 66.372 2 61.437 2Z" style="fill:none;fill-opacity:1;fill-rule:nonzero;stroke:#fff;stroke-width:4"/></svg>