<svg xmlns="http://www.w3.org/2000/svg" width="78" height="62">
<rect x="4" y="4" width="70" height="18" fill="#ff4b4b"/>
<rect x="4" y="22" width="70" height="18" fill="#1cb0f6"/>
<rect x="4" y="40" width="70" height="18" fill="#eee"/>
<path d="M 16.856,22 V 38.45 A 10.6,10.6 0 0 0 27.453,49.047 10.6,10.6 0 0 0 38.051,38.45 V 22 H 27.453 Z" fill="#ff4b4b"/>
<path d="m 23.287,39.117 1.118,1.119 -3.657,3.657 a 0.79,0.79 0 0 1 -1.118,0 0.79,0.79 0 0 1 0,-1.118 z m 8.333,0 -1.118,1.119 3.657,3.657 a 0.79,0.79 0 0 0 1.118,0 0.79,0.79 0 0 0 0,-1.118 z" fill="#ffc800"/>
<path d="m 19.703,22.822 a 1.58,1.58 0 0 0 -1.582,1.582 v 17.083 a 4.75,4.75 0 0 0 4.11,-2.373 l -0.593,2.211 1.1,0.295 a 1.58,1.58 0 0 0 1.937,-1.119 l 0.564,-2.105 v 7.606 a 2.214,2.214 0 0 0 2.214,2.214 2.214,2.214 0 0 0 2.215,-2.214 v -7.606 l 0.564,2.105 a 1.58,1.58 0 0 0 1.937,1.119 l 1.1,-0.295 -0.593,-2.21 a 4.75,4.75 0 0 0 4.11,2.372 V 24.404 a 1.58,1.58 0 0 0 -1.582,-1.582 1.51,1.51 0 0 0 -1.434,1.582 v 2.568 a 2.373,2.373 0 0 1 -2.362,2.177 1.58,1.58 0 0 1 -1.582,-1.581 v -1.582 l 1.582,-3.164 H 30.617 A 3.163,3.163 0 0 0 27.453,25.986 3.163,3.163 0 0 0 24.29,22.822 H 23.5 l 1.58,3.164 v 1.582 a 1.58,1.58 0 0 1 -1.58,1.581 2.373,2.373 0 0 1 -2.363,-2.177 v -2.568 a 1.51,1.51 0 0 0 -1.434,-1.582" fill="#eee"/>
<path fill="#ffc800" d="M 27.378906 9.390625 C 26.294906 9.390625 25.421875 10.264609 25.421875 11.349609 L 25.421875 12.382812 L 20.976562 12.382812 A 2.55 2.55 0 0 0 18.693359 16.066406 L 21.074219 20.867188 A 2.04 2.04 0 0 0 22.902344 22 L 31.857422 22 A 2.04 2.04 0 0 0 33.683594 20.867188 L 36.066406 16.066406 A 2.55 2.55 0 0 0 33.78125 12.382812 L 29.337891 12.382812 L 29.337891 11.347656 C 29.337891 10.263656 28.464859 9.390625 27.380859 9.390625 L 27.378906 9.390625 z M 20.976562 13.9375 L 21.976562 13.9375 A 0.81 0.81 0 0 1 22.761719 14.552734 L 23.591797 17.90625 A 0.495 0.495 0 0 1 23.111328 18.519531 L 22.150391 18.519531 C 21.871391 18.519531 21.543922 18.316406 21.419922 18.066406 L 20.394531 16 C 20.239531 15.687 19.950328 15.164266 19.986328 14.822266 A 1 1 0 0 1 20.976562 13.9375 z M 24.546875 13.9375 L 26.115234 13.9375 A 0.633 0.633 0 0 1 26.748047 14.570312 L 26.748047 18.044922 A 0.475 0.475 0 0 1 26.273438 18.519531 L 25.523438 18.519531 A 0.606 0.606 0 0 1 24.935547 18.058594 L 24.064453 14.552734 L 24.066406 14.552734 A 0.495 0.495 0 0 1 24.546875 13.9375 z M 28.646484 13.9375 L 30.216797 13.9375 A 0.495 0.495 0 0 1 30.697266 14.552734 L 29.828125 18.058594 A 0.606 0.606 0 0 1 29.240234 18.519531 L 28.488281 18.519531 A 0.475 0.475 0 0 1 28.015625 18.044922 L 28.015625 14.570312 A 0.633 0.633 0 0 1 28.646484 13.9375 z M 32.783203 13.9375 L 33.722656 13.9375 A 1 1 0 0 1 34.501953 14.244141 A 1 1 0 0 1 34.6875 15.347656 L 33.339844 18.066406 C 33.214844 18.317406 32.887422 18.519531 32.607422 18.519531 L 31.650391 18.519531 A 0.495 0.495 0 0 1 31.169922 17.90625 L 32 14.552734 A 0.81 0.81 0 0 1 32.783203 13.9375 z " />
<path d="m 23.333,43.756 1.007,1.006 a 0.475,0.475 0 0 1 0,0.671 l -1.007,1.007 a 0.475,0.475 0 0 1 -0.67,0 l -1.007,-1.007 a 0.475,0.475 0 0 1 0,-0.67 l 1.006,-1.007 a 0.475,0.475 0 0 1 0.671,0" fill="#ffc800"/>
<path d="m 31.574,43.756 -1.007,1.006 a 0.475,0.475 0 0 0 0,0.671 l 1.007,1.007 a 0.475,0.475 0 0 0 0.67,0 l 1.007,-1.007 a 0.475,0.475 0 0 0 0,-0.67 l -1.006,-1.007 a 0.475,0.475 0 0 0 -0.671,0" fill="#ffc800"/>
<path fill="#ffc800" d="m 23.498047,22.822266 c -0.873434,-4.4e-5 -1.581201,0.708598 -1.580078,1.582031 v 0.791015 h 0.791015 c 5.16e-4,0.435573 0.35349,0.788547 0.789063,0.789063 h 1.582031 C 24.553029,24.930517 24.026606,23.876346 23.5,22.822266 Z"   />
<path fill="#ffc800" d="m 31.408203,22.822266 c -0.527303,1.054384 -1.054686,2.108726 -1.583984,3.162109 h 1.582031 c 0.436336,5.61e-4 0.790499,-0.352727 0.791016,-0.789063 h 0.791015 v -0.791015 c 0.0011,-0.873433 -0.706644,-1.582075 -1.580078,-1.582031 z"   />
<rect x="2" y="2" width="74" height="58" rx="10" fill="none" stroke="#fff" stroke-width="4"/>
</svg>