<svg xmlns="http://www.w3.org/2000/svg" xml:space="preserve" width="78" height="62"><ellipse cx="-80.15" cy="-10" rx="19.85" ry="20" style="display:inline;opacity:1;fill:#fff;fill-opacity:1;fill-rule:nonzero;stroke:none;stroke-width:6.00702;stroke-linecap:round;stroke-linejoin:round;stroke-miterlimit:4;stroke-dasharray:none;stroke-dashoffset:0;stroke-opacity:1"/><ellipse cx="-80.15" cy="-60" rx="19.85" ry="20" style="opacity:1;fill:#eee;fill-opacity:1;fill-rule:nonzero;stroke:none;stroke-width:6.00702;stroke-linecap:round;stroke-linejoin:round;stroke-miterlimit:4;stroke-dasharray:none;stroke-dashoffset:0;stroke-opacity:1"/><ellipse cx="-80.15" cy="-110" rx="19.85" ry="20" style="display:inline;opacity:1;fill:#4c4c4c;fill-opacity:1;fill-rule:nonzero;stroke:none;stroke-width:6.00702;stroke-linecap:round;stroke-linejoin:round;stroke-miterlimit:4;stroke-dasharray:none;stroke-dashoffset:0;stroke-opacity:1"/><ellipse cx="-30.15" cy="-60" rx="19.85" ry="20" style="display:inline;opacity:1;fill:#1cb0f6;fill-opacity:1;fill-rule:nonzero;stroke:none;stroke-width:6.00702;stroke-linecap:round;stroke-linejoin:round;stroke-miterlimit:4;stroke-dasharray:none;stroke-dashoffset:0;stroke-opacity:1"/><ellipse cx="-30.15" cy="-110" rx="19.85" ry="20" style="display:inline;opacity:1;fill:#1254a9;fill-opacity:1;fill-rule:nonzero;stroke:none;stroke-width:6.00702;stroke-linecap:round;stroke-linejoin:round;stroke-miterlimit:4;stroke-dasharray:none;stroke-dashoffset:0;stroke-opacity:1"/><ellipse cx="19.85" cy="-60" rx="19.85" ry="20" style="display:inline;opacity:1;fill:#ff4b4b;fill-opacity:1;fill-rule:nonzero;stroke:none;stroke-width:6.00702;stroke-linecap:round;stroke-linejoin:round;stroke-miterlimit:4;stroke-dasharray:none;stroke-dashoffset:0;stroke-opacity:1"/><ellipse cx="69.85" cy="-60" rx="19.85" ry="20" style="display:inline;opacity:1;fill:#ffc800;fill-opacity:1;fill-rule:nonzero;stroke:none;stroke-width:6.00702;stroke-linecap:round;stroke-linejoin:round;stroke-miterlimit:4;stroke-dasharray:none;stroke-dashoffset:0;stroke-opacity:1"/><ellipse cx="69.85" cy="-110" rx="19.85" ry="20" style="display:inline;opacity:1;fill:#ff9600;fill-opacity:1;fill-rule:nonzero;stroke:none;stroke-width:6.00702;stroke-linecap:round;stroke-linejoin:round;stroke-miterlimit:4;stroke-dasharray:none;stroke-dashoffset:0;stroke-opacity:1"/><ellipse cx="69.85" cy="-160" rx="19.85" ry="20" style="display:inline;opacity:1;fill:#ffce8e;fill-opacity:1;fill-rule:nonzero;stroke:none;stroke-width:6.00702;stroke-linecap:round;stroke-linejoin:round;stroke-miterlimit:4;stroke-dasharray:none;stroke-dashoffset:0;stroke-opacity:1"/><ellipse cx="119.85" cy="-60" rx="19.85" ry="20" style="display:inline;opacity:1;fill:#78c800;fill-opacity:1;fill-rule:nonzero;stroke:none;stroke-width:6.00702;stroke-linecap:round;stroke-linejoin:round;stroke-miterlimit:4;stroke-dasharray:none;stroke-dashoffset:0;stroke-opacity:1"/><path d="M61.437 2H16.563c-4.935 0-6.696.585-8.493 1.545A10.9 10.9 0 0 0 3.545 8.07C2.585 9.867 2 11.628 2 16.563v28.874c0 4.935.585 6.696 1.545 8.493a10.9 10.9 0 0 0 4.525 4.525c1.797.96 3.558 1.545 8.493 1.545h44.874c4.935 0 6.696-.585 8.493-1.545a10.9 10.9 0 0 0 4.525-4.525c.96-1.797 1.545-3.558 1.545-8.493V16.563c0-4.935-.585-6.696-1.545-8.493a10.9 10.9 0 0 0-4.525-4.525C68.133 2.585 66.372 2 61.437 2" style="fill:#ffc800;fill-opacity:1;fill-rule:nonzero;stroke:none;stroke-width:4"/><path fill="#91008c" d="M165.062 200.038c5.504-44.944 31.99-83.857 69.98-107.791 42.984-27.082 133.93-27.082 176.915 0 38.013 23.95 64.51 62.896 69.991 107.876 1.163 9.544 1.163 25.21-.002 34.754a142 142 0 0 1-2.466 14.19c-2.245 9.912 2.985 18.551 13.056 19.973 52.488 7.409 112.245 21.87 154.464 38.656V0H0v307.696c41.255-16.403 99.257-30.587 150.859-38.138 12.054-1.764 18.286-12.12 15.903-24.055a142 142 0 0 1-1.697-10.541c-1.177-9.59-1.177-25.334-.003-34.924" style="fill:#9069cd;fill-opacity:1" transform="matrix(.1082 0 0 .135 4 4)"/><path d="M353.065 163.375h-57.281a5.78 5.78 146.417 0 0-5.325 3.535l-.987 2.345a3.256 3.256 54.13 0 0 3.26 4.509l61.758-4.94a1.954 1.954 121.946 0 0 1.662-2.665l-.37-.934a2.92 2.92 34.233 0 0-2.717-1.85m-78.937 20.4-1.448 3.44a3.805 3.805 53.737 0 0 3.862 5.264l90.93-8.533a3.156 3.156 120.426 0 0 2.592-4.415l-1.52-3.448a5.93 5.93 30.82 0 0-5.902-3.522l-82.088 6.567a7.63 7.63 144.13 0 0-6.426 4.646m-17.854 16.283a7.567 7.567 54.855 0 0 7.6 10.796l116.879-11.327a3.29 3.29 120.18 0 0 2.687-4.62l-1.43-3.197a6.95 6.95 30.267 0 0-6.99-4.079l-116.602 10.942a2.66 2.66 145.298 0 0-2.144 1.485m-21.69 21.436-4.48 10.472a2.2 2.2 53.721 0 0 2.243 3.055l165.14-16.514a4.023 4.023 119.165 0 0 3.216-5.763l-2.558-5.255a8.03 8.03 29.253 0 0-7.994-4.477L239.947 217.57a6.52 6.52 143.808 0 0-5.364 3.925m-23.093 23.44-3.213 6.977a3.968 3.968 54.616 0 0 3.985 5.61l203.65-19.582a5.49 5.49 121.81 0 0 4.604-7.422l-1.518-3.977a7.8 7.8 31.7 0 0-8.063-4.98l-193.85 19.384a6.92 6.92 144.507 0 0-5.595 3.99m-25.494 23.901-3.124 6.783a5.183 5.183 54.934 0 0 5.147 7.333l246.274-20.934a6.55 6.55 121.395 0 0 5.503-9.017l-1.682-4.092a12.21 12.21 31.078 0 0-12.461-7.51l-232.502 22.356a8.8 8.8 144.617 0 0-7.155 5.081M647 392.481v-67.379a.45.45 0 0 0-.275-.392c-46.652-16.94-116.709-31.12-165.473-36.256-6.628-.699-13.884-6.186-16.187-12.44a16.905 16.905 32.482 0 0-17.153-10.92c-151.786 11.05-278.867 22.992-284.569 23.617C114.602 294.064 45.89 308.104 0 324.813V335.3A64.7 64.7 45 0 0 64.7 400h574.781a7.52 7.52 135 0 0 7.519-7.519" style="fill:#4c4c4c;fill-opacity:1" transform="matrix(.1082 0 0 .135 4 4)"/><path d="M61.437 2H16.563c-4.935 0-6.696.585-8.493 1.545A10.9 10.9 0 0 0 3.545 8.07C2.585 9.867 2 11.628 2 16.563v28.874c0 4.935.585 6.696 1.545 8.493a10.9 10.9 0 0 0 4.525 4.525c1.797.96 3.558 1.545 8.493 1.545h44.874c4.935 0 6.696-.585 8.493-1.545a10.9 10.9 0 0 0 4.525-4.525c.96-1.797 1.545-3.558 1.545-8.493V16.563c0-4.935-.585-6.696-1.545-8.493a10.9 10.9 0 0 0-4.525-4.525C68.133 2.585 66.372 2 61.437 2Z" style="fill:none;fill-rule:nonzero;stroke:#fff;stroke-width:4"/></svg>