<svg xmlns="http://www.w3.org/2000/svg" viewBox="0 0 78 62"><style>.st3{fill-rule:evenodd;clip-rule:evenodd}.st3,.st5{fill:#ff4b4b}</style><g id="hu"><path d="M55.4-4H10.6c-5 0-6.7.6-8.5 1.5C.1-1.5-1.4.1-2.4 2S-4 5.6-4 10.6v28.9c0 4.9.6 6.7 1.5 8.5 1 2 2.6 3.5 4.5 4.5 1.8 1 3.6 1.5 8.5 1.5h44.9c4.9 0 6.7-.6 8.5-1.5 2-1 3.5-2.6 4.5-4.5 1-1.8 1.5-3.6 1.5-8.5V10.6c0-4.9-.6-6.7-1.5-8.5-1-2-2.6-3.5-4.5-4.5-1.8-1-3.5-1.6-8.5-1.6z" style="fill:#ff4b4b;stroke:#fff;stroke-width:4" transform="translate(6 6)"/><path d="M68 34v5.4c0 4.4-.5 6-1.3 7.5-.9 1.6-2.1 2.9-3.7 3.7-1.6.9-3.2 1.3-7.5 1.3H10.6c-4.4 0-6-.5-7.5-1.3-1.6-.9-2.9-2.1-3.7-3.7-.9-1.5-1.4-3.1-1.4-7.5V34z" style="fill:#7ac70c" transform="translate(6 6)"/></g><path d="M22.6 4v54h-6c-4.4 0-6-.5-7.5-1.3-1.6-.9-2.9-2.1-3.7-3.7-.9-1.6-1.4-3.2-1.4-7.6V16.6c0-4.4.5-6 1.3-7.5S7.4 6.2 9 5.3 12.2 4 16.6 4z" style="fill:#eee"/><path id="Rectangle" d="M12.7 43 5.6 31.5c-.2-.3-.2-.7 0-1L12.7 19c.1-.2.4-.4.6-.4s.4.1.5.3l7.1 11.5c.2.3.2.7 0 1l-7 11.4c-.1.2-.4.4-.6.4-.3.1-.4 0-.6-.2" class="st3"/><path id="Rectangle_1_" d="m12.9 39.6-5-8.2c-.1-.2-.1-.5 0-.7l5-8.2c.1-.2.3-.3.4-.3.2 0 .3.1.4.2l5 8.2c.1.2.1.5 0 .7l-4.9 8.2c-.1.2-.3.3-.4.3-.3 0-.4-.1-.5-.2" style="fill-rule:evenodd;clip-rule:evenodd;fill:#eee"/><path id="Rectangle_2_" d="m17.8 11.7-2.2-2.5c-.1-.1-.1-.2 0-.2l2.1-2.5c0-.1.1-.1.2-.1s.1 0 .2.1L20.2 9c.1.1.1.2 0 .2l-2.1 2.5c0 .1-.1.1-.2.1 0 0-.1 0-.1-.1" class="st3"/><path id="Rectangle_3_" d="M8.4 11.7 6.3 9.3c-.1-.1-.1-.2 0-.2l2.1-2.5c0-.1.1-.1.2-.1s.1 0 .2.1l2.1 2.5c.1.1.1.2 0 .2l-2.1 2.5c0 .1-.1.1-.2.1z" class="st3"/><path id="Rectangle_5_" d="m17.8 55.4-2.2-2.5c-.1-.1-.1-.2 0-.2l2.1-2.5c0-.1.1-.1.2-.1s.1 0 .2.1l2.1 2.5c.1.1.1.2 0 .2l-2.1 2.5c0 .1-.1.1-.2.1 0 0-.1 0-.1-.1" class="st3"/><path id="Rectangle_4_" d="m8.4 55.4-2.2-2.5c-.1-.1-.1-.2 0-.2l2.1-2.5c0-.1.1-.1.2-.1s.1 0 .2.1l2.1 2.5c.1.1.1.2 0 .2l-2.1 2.5c0 .1-.1.1-.2.1z" class="st3"/><circle cx="13.3" cy="31" r="2.3" class="st3"/><ellipse id="circle3313_2_" cx="11" cy="13.4" class="st3" rx="1.6" ry="1.5"/><ellipse id="circle3313_1_" cx="6.6" cy="13.4" class="st3" rx="1.6" ry="1.5"/><ellipse id="circle3313_4_" cx="19.9" cy="13.4" class="st3" rx="1.6" ry="1.5"/><ellipse id="circle3313_3_" cx="15.6" cy="13.4" class="st3" rx="1.6" ry="1.5"/><ellipse id="circle3313_8_" cx="11" cy="49" class="st3" rx="1.6" ry="1.5"/><ellipse id="circle3313_7_" cx="6.6" cy="49" class="st3" rx="1.6" ry="1.5"/><ellipse id="circle3313_6_" cx="19.9" cy="49" class="st3" rx="1.6" ry="1.5"/><ellipse id="circle3313_5_" cx="15.6" cy="49" class="st3" rx="1.6" ry="1.5"/><path d="M8 20.6c-.6.3-1.3 0-1.3-.6v-.5c0-.5.2-1 .5-1.5.4-.4.8-.8 1.4-1 .5-.3 1.1-.4 1.7-.4s1.2.1 1.7.4 1 .6 1.3 1.1.5 1 .6 1.5v.5c0 .6-.8.8-1.3.5l-2.3-1.1z" class="st5"/><path id="path3570_1_" d="M14 20.6c-.6.3-1.3 0-1.3-.6v-.5c.1-.5.3-1.1.6-1.5s.8-.8 1.3-1.1 1.1-.4 1.7-.4 1.2.1 1.7.4 1 .6 1.3 1.1.5 1 .6 1.5v.5c0 .6-.8.8-1.3.5l-2.3-1.1z" class="st5"/><path id="path3570_3_" d="M18.6 41.4c.6-.3 1.3 0 1.3.6v.5c-.1.5-.3 1.1-.6 1.5s-.8.8-1.3 1c-.5.3-1.1.4-1.7.4s-1.2-.1-1.7-.4-1-.6-1.3-1.1-.5-1-.6-1.5v-.5c0-.6.8-.8 1.3-.5l2.3 1.1z" class="st5"/><path id="path3570_2_" d="M12.6 41.4c.6-.3 1.3 0 1.3.6v.5c-.1.5-.3 1.1-.6 1.5s-.8.8-1.3 1c-.5.3-1.1.4-1.7.4s-1.2-.1-1.7-.4-1-.6-1.3-1.1-.5-1-.6-1.5v-.5c0-.6.8-.8 1.3-.5l2.3 1.1z" class="st5"/></svg>