<svg xmlns="http://www.w3.org/2000/svg" viewBox="0 0 78 62"><path d="M61.5 2.1h-45c-4.9 0-6.7.6-8.5 1.5S4.5 6.2 3.5 8.1C2.5 9.9 2 11.7 2 16.6v28.9c0 4.9.6 6.7 1.5 8.5 1 2 2.6 3.5 4.5 4.5 1.8 1 3.6 1.5 8.5 1.5h44.9c4.9 0 6.7-.6 8.5-1.5s3.5-2.6 4.5-4.5c1-1.8 1.5-3.6 1.5-8.5V16.6c0-4.9-.6-6.7-1.5-8.5-1-2-2.6-3.5-4.5-4.5-1.8-.9-3.5-1.5-8.5-1.5Z" style="fill:#eee;stroke:#fff;stroke-width:4px"/><path d="M39 4.1h22.4c4.4 0 6 .5 7.5 1.3 1.6.9 2.9 2.1 3.7 3.7.9 1.6 1.3 3.2 1.3 7.5v28.9c0 4.4-.5 6-1.3 7.5-.9 1.6-2.1 2.9-3.7 3.7-1.6.9-3.2 1.3-7.5 1.3H39z" style="fill:#ff4b4b"/><path d="M20 13.8h-1.6v-1.6c0-1.3-1.1-2.4-2.4-2.4s-2.4 1.1-2.4 2.4v1.6H12c-1.3 0-2.4 1.1-2.4 2.4s1.1 2.4 2.4 2.4h1.6v1.6c0 1.3 1.1 2.4 2.4 2.4s2.4-1.1 2.4-2.4v-1.6H20c1.3 0 2.4-1.1 2.4-2.4s-1-2.4-2.4-2.4Z" style="fill:#fff;stroke:#ff4b4b;stroke-linejoin:round;stroke-width:2px"/></svg>