<svg xmlns="http://www.w3.org/2000/svg" width="78" height="62">
<rect x="4" y="4" width="70" height="18" fill="#78c800"/>
<rect x="4" y="22" width="70" height="18" fill="#eee"/>
<rect x="4" y="40" width="70" height="18" fill="#ff4b4b"/>
<path d="m 39.183,44.337 -1.469,-7.415 a 0.643,0.643 0 0 0 -1.006,-0.398 l -5.863,4.211 a 0.437,0.437 0 0 1 -0.618,-0.597 l 4.031,-6.021 a 0.643,0.643 0 0 0 -0.43,-0.993 L 26.304,31.89 a 0.363,0.363 0 0 1 -0.012,-0.715 l 7.506,-1.485 a 0.643,0.643 0 0 0 0.397,-1.007 l -4.49,-6.252 a 0.35,0.35 0 0 1 0.478,-0.495 l 6.42,4.297 a 0.643,0.643 0 0 0 0.992,-0.43 l 1.23,-7.493 a 0.369,0.369 0 0 1 0.725,-0.012 l 1.48,7.475 a 0.643,0.643 0 0 0 1.006,0.397 l 6.115,-4.391 a 0.38,0.38 0 0 1 0.538,0.52 l -4.203,6.279 a 0.643,0.643 0 0 0 0.43,0.992 l 7.433,1.22 a 0.38,0.38 0 0 1 0.012,0.747 l -7.414,1.468 a 0.643,0.643 0 0 0 -0.398,1.006 l 4.463,6.214 a 0.359,0.359 0 0 1 -0.491,0.507 l -6.38,-4.27 a 0.643,0.643 0 0 0 -0.992,0.43 l -1.219,7.432 a 0.38,0.38 0 0 1 -0.748,0.013 z" fill="#ffc800"/>
<rect x="2" y="2" width="74" height="58" rx="10" fill="none" stroke="#fff" stroke-width="4"/>
</svg>
