<svg xmlns="http://www.w3.org/2000/svg" width="78" height="62">
<rect fill="#4b4b4b" width="70" height="54" x="4" y="4" />
<rect fill="#e4e4e4" width="70" height="4" x="4" y="29" />
<rect fill="#ff4b4b" width="70" height="26" x="4" y="32" />
<path fill="#1cb0f6" d="M 4,4 V 17.660156 L 21.400391,31 4,44.339844 V 58 H 19.382812 L 41.425781,41.099609 H 74 V 20.900391 H 41.425781 L 19.382812,4 Z" />
<path fill="#eee" d="m 4,4 v 8.605469 a 6.0999999,6.0999999 0 0 0 0.2890625,0.236328 L 27.974609,31 4.2890625,49.158203 A 6.0999999,6.0999999 0 0 0 4,49.394531 V 58 h 8.808594 L 40.070312,37.099609 H 74 V 24.900391 H 40.068359 L 12.808594,4 Z" />
<rect x="2" y="2" width="74" height="58" rx="10" fill="none" stroke="#fff" stroke-width="4"/>
</svg>