<svg xmlns="http://www.w3.org/2000/svg" width="78" height="62"><rect width="69.706" height="53.926" x="4.073" y="3.915" ry="7.191" style="fill:#1cb0f6;fill-opacity:1;stroke:none;stroke-width:.5189;stroke-linecap:round;stroke-linejoin:round;-inkscape-stroke:none;stop-color:#000"/><path d="M4.071 12.638h70.216v36.481H4.071z" style="fill:#ffc800;fill-opacity:1;stroke:none;stroke-width:.57605;stroke-linecap:round;stroke-linejoin:round;stroke-dasharray:none;stop-color:#000"/><ellipse cx="39.179" cy="30.878" rx="10.167" ry="10.611" style="font-variation-settings:normal;vector-effect:none;fill:#1cb0f6;fill-opacity:1;stroke:none;stroke-width:.631017;stroke-linecap:round;stroke-linejoin:round;stroke-miterlimit:4;stroke-dasharray:none;stroke-dashoffset:0;stroke-opacity:1;-inkscape-stroke:none;stop-color:#000"/><path d="M35.099 4.01h8.162v53.832h-8.162z" style="fill:#ff4b4b;fill-opacity:1;stroke-width:2.10466;stroke-linecap:round;stroke-linejoin:round;stop-color:#000"/><path d="M61.437 2H16.563c-4.935 0-6.696.585-8.493 1.545A10.9 10.9 0 0 0 3.545 8.07C2.585 9.867 2 11.628 2 16.563v28.874c0 4.935.585 6.696 1.545 8.493a10.9 10.9 0 0 0 4.525 4.525c1.797.96 3.558 1.545 8.493 1.545h44.874c4.935 0 6.696-.585 8.493-1.545a10.9 10.9 0 0 0 4.525-4.525c.96-1.797 1.545-3.558 1.545-8.493V16.563c0-4.935-.585-6.696-1.545-8.493a10.9 10.9 0 0 0-4.525-4.525C68.133 2.585 66.372 2 61.437 2Z" style="fill:none;fill-rule:nonzero;stroke:#fff;stroke-width:4"/></svg>