<svg xmlns="http://www.w3.org/2000/svg" width="78mm" height="234.331" viewBox="0 0 78 62"><path fill="#eee" stroke="#fff" stroke-width="4" d="M156.13 118.76h-44.873c-4.935 0-6.696.584-8.493 1.544a10.9 10.9 0 0 0-4.525 4.525c-.96 1.797-1.545 3.558-1.545 8.493v28.874c0 4.935.584 6.696 1.545 8.493a10.9 10.9 0 0 0 4.525 4.525c1.797.96 3.558 1.545 8.493 1.545h44.874c4.935 0 6.696-.584 8.493-1.545a10.9 10.9 0 0 0 4.525-4.525c.96-1.797 1.545-3.558 1.545-8.493v-28.874c0-4.935-.585-6.696-1.545-8.493a10.9 10.9 0 0 0-4.525-4.525c-1.797-.96-3.558-1.545-8.493-1.545z" style="fill-rule:nonzero" transform="translate(-94.694 -116.76)"/><path d="M116.368 171.3c6.487-3.747 8.309-3.808 14.903 0 4.898 2.827 9.342 2.924 14.408 0 6.292-3.634 10.216-3.771 16.747 0 5.376 3.103 8.993 3.226 14.583 0 4.59-2.651 7.532-4.028 9.291-2.647 0 1.29.015 3.771-.073 3.708-2.398-1.385-5.996 1.02-9.298 3.175-5.315 3.068-9.222 2.998-14.416 0-6.184-3.571-10.596-3.478-16.62 0-5.367 3.098-9.682 3.121-15.089 0-6.127-3.538-7.837-3.464-13.836 0-.599-1.987-.457-2.906-.6-4.237" style="fill:#1cb0f6;fill-opacity:1;stroke:none;stroke-width:.234631px;stroke-linecap:butt;stroke-linejoin:miter;stroke-opacity:1" transform="translate(-112.33 -124.069)"/><path d="M131.27 162.832c4.9 2.829 9.343 2.925 14.41 0 6.291-3.632 10.215-3.77 16.746 0 5.376 3.104 8.993 3.227 14.583 0 4.59-2.65 7.556-4.026 9.316-2.645v3.707c-2.398-1.385-6.094 1.02-9.396 3.175-5.315 3.068-9.222 2.998-14.416 0-6.184-3.57-10.596-3.478-16.62 0-5.367 3.098-9.682 3.122-15.089 0-6.127-3.538-8.476-3.464-14.476 0l.001-4.237c6.886-3.16 9.18-3.282 14.941 0" style="fill:#1cb0f6;fill-opacity:1;stroke:none;stroke-width:.234631px;stroke-linecap:butt;stroke-linejoin:miter;stroke-opacity:1" transform="translate(-112.33 -124.069)"/><path d="M633.236 593.237c-4.863-1.068-8.775-2.74-21.486-9.175-12.781-6.472-17.298-8.105-25.093-9.074-9.974-1.239-18.477 1.09-35.263 9.662-11.76 6.005-15.689 7.41-23.446 8.39-9.34 1.178-19.756-1.39-31.448-7.753-15.185-8.264-20.043-10.175-27-10.621-6.86-.44-13.887 1.69-24.216 7.338l-5.284 2.89.001-31.572c0-19.51.208-33.291.542-36.072 1.637-13.629 8.92-23.942 20.666-29.268 4.78-2.168 9.372-2.99 19.54-3.498 11.864-.593 170.84-.584 182.75.01 10.542.527 15.256 1.496 20.787 4.276 9.352 4.7 15.958 13.325 18.352 23.961.944 4.191 1.033 6.619 1.229 33.488.176 24.195.1 28.877-.46 28.412-.369-.306-1.728-.823-3.02-1.149-5.102-1.284-12.62 1.238-26.414 8.863-13.946 7.709-18.024 9.505-24.715 10.887-4.444.918-11.857.92-16.022.005" style="opacity:.98;fill:#ffc800;fill-opacity:1;stroke:none;stroke-width:24.5008;stroke-linecap:round;paint-order:stroke fill markers" transform="translate(-112.33 -124.069)scale(.26458)"/><path d="M116.33 154.366c6.488-3.746 8.347-3.807 14.94 0 4.9 2.828 9.343 2.925 14.41 0 6.291-3.633 10.215-3.77 16.746 0 5.376 3.103 8.993 3.227 14.583 0 4.59-2.65 7.532-4.027 9.291-2.646 0 1.29.015 3.77-.073 3.707-2.398-1.384-5.996 1.021-9.298 3.175-5.315 3.068-9.222 2.999-14.416 0-6.184-3.57-10.596-3.478-16.62 0-5.367 3.099-9.682 3.122-15.089 0-6.127-3.537-8.473-3.464-14.473 0z" style="fill:#1cb0f6;fill-opacity:1;stroke:none;stroke-width:.234631px;stroke-linecap:butt;stroke-linejoin:miter;stroke-opacity:1" transform="translate(-112.33 -124.069)"/><g transform="translate(-93.618 -53.497)"><circle cx="110.326" cy="65.322" r="4.199" style="opacity:.98;fill:#4b4b4b;fill-opacity:1;stroke:none;stroke-width:24.5002;stroke-linecap:round;paint-order:stroke fill markers"/><circle cx="110.359" cy="73.697" r="4.199" style="opacity:.98;fill:#eeeeeb;fill-opacity:1;stroke:none;stroke-width:24.5002;stroke-linecap:round;paint-order:stroke fill markers"/><path d="M425.375 292.837v-.668l.906-.612c.499-.336 1.442-1.147 2.097-1.803 2.15-2.15 3.486-4.562 4.264-7.691.371-1.496.456-4.395.176-6.068-.418-2.498-1.504-5.066-2.962-7-.89-1.182-2.672-2.893-3.705-3.559l-.774-.498v-4.5l.78-.498c1.05-.669 3.286-2.909 4.058-4.066 1.363-2.04 2.213-4.163 2.603-6.494.327-1.959.205-4.572-.307-6.567-.915-3.57-3.358-7.084-6.304-9.07l-.824-.555c-1.227-.66-2.285-1.233-3.647-1.516.023 0 4.326.373 5.066.58 4.87 1.368 9.434 4.038 13.242 7.745 2.792 2.718 4.638 5.25 6.326 8.674 1.144 2.322 1.73 3.855 2.262 5.917.69 2.68.892 4.221.959 7.35.092 4.257-.31 7.073-1.545 10.812-.67 2.028-2.321 5.438-3.512 7.25-4.065 6.187-10.325 10.905-17.221 12.978-2.09.628-1.938.639-1.938-.141" style="opacity:.98;fill:#eeeeeb;fill-opacity:1;stroke:none;stroke-width:6.1252;stroke-linecap:round;paint-order:stroke fill markers" transform="scale(.26458)"/><path d="M423.816 264.12c-1.34-.653-2.66-1.06-4.253-1.312-.606-.096-.828-.164-.563-.173 1.189-.041 3.704-.798 5.281-1.59l.844-.423v2.064c0 1.135-.014 2.06-.031 2.054s-.592-.284-1.278-.62" style="opacity:.98;fill:#eeeeeb;fill-opacity:1;stroke:none;stroke-width:6.1252;stroke-linecap:round;paint-order:stroke fill markers" transform="scale(.26458)"/><path d="M425.27 264.92c-.147-.092-.176-.119-.168-.16.021-.12.024-4.147.003-4.147-.053 0-.017-.061.06-.105.08-.045.575-.354.696-.434.033-.022.06-.03.06-.019 0 .012-.124.1-.275.196l-.276.174v4.515l.06.046c.114.085.017.045-.16-.066m-7.458 29.488a16.1 16.1 0 0 0 5.822-1.39 20 20 0 0 0 1.276-.647l.194-.111v1.36l-.171.038c-1.4.313-2.972.55-4.403.663-.827.066-1.144.08-2.011.087-.48.004-.798.004-.707 0" style="opacity:.98;fill:#eeeeeb;fill-opacity:1;stroke:none;stroke-width:1.08279;stroke-linecap:round;paint-order:stroke fill markers" transform="scale(.26458)"/><path d="M425.099 293.623c.006-.005.007-.042.007-.685 0-.604-.001-.68-.006-.679h-.006c0-.002.044-.03.098-.061.19-.113.434-.265.621-.388l.097-.064v.058l-.027.02-.267.18-.24.162-.003.506c-.003.525-.002.56.013.624.035.147.156.175.464.106l.056-.011q.004.001.003.02l-.001.02-.111.029c-.195.05-.694.17-.703.169q-.002 0 .004-.005z" style="opacity:.98;fill:#eeeeeb;fill-opacity:1;stroke:none;stroke-width:.191412;stroke-linecap:round;paint-order:stroke fill markers" transform="scale(.26458)"/><path d="M407.47 292.414c-10.34-3.686-18.112-12.668-20.367-23.537-2.897-13.967 5.113-27.23 17.393-34.621 4.625-2.784 10.234-3.216 8.475-2.635l-2.91.997-1.22.701c-8.752 5.03-10.059 17.405-2.952 24.748 2.257 1.758 6.502 3.974 8.989 4.568 0 .195-1.49.456-1.82.543a17.4 17.4 0 0 0-2.697.986 16.027 16.027 0 0 0-7.602 21.46c1.229 2.574 3.959 5.553 6.15 6.707 1.696.895.959.938-1.439.083" style="opacity:.98;fill:#4b4b4b;fill-opacity:1;stroke:none;stroke-width:17.3247;stroke-linecap:round;paint-order:stroke fill markers" transform="scale(.26458)"/><circle cx="110.326" cy="65.322" r="1.278" style="opacity:.98;fill:#eeeeeb;fill-opacity:1;stroke:none;stroke-width:7.45828;stroke-linecap:round;paint-order:stroke fill markers"/><circle cx="110.359" cy="73.697" r="1.278" style="opacity:.98;fill:#4b4b4b;fill-opacity:1;stroke:none;stroke-width:7.45828;stroke-linecap:round;paint-order:stroke fill markers"/></g></svg>