<svg xmlns="http://www.w3.org/2000/svg" width="78" height="62">
<rect x="2" y="2" width="74" height="58" rx="10" fill="#1cb0f6"/>
<path d="m4 4 70 54s-3.49-2.128-5.087-1.274c-1.597.854-3.181 1.309-7.55 1.309H16.489c-4.368 0-9.636.011-11.233-.843S2.83 52.596 2.83 52.596l1.096-7.124Z" fill="#ff4b4b"/>
<path d="m4 58 70-54-.06 41.469 1.096 7.124s-.965 3.25-2.562 4.104-6.729 1.335-11.097 1.335H16.503c-4.369 0-5.953-.455-7.55-1.309C7.356 55.869 3.866 57.997 3.866 57.997Z" fill="#ce82ff"/>
<path d="m4 58 35-27 35 27Z" fill="#1cb0f6"/>
<circle cx="39.493" cy="31.033" r="17" fill="#eee"/>
<rect x="2" y="2" width="74" height="58" rx="10" fill="none" stroke="#fff" stroke-width="4"/>
</svg>
