<svg xmlns="http://www.w3.org/2000/svg" width="78" height="62">
<rect x="4" y="4" width="70" height="18" fill="#1cb0f6"/>
<rect x="4" y="22" width="70" height="18" fill="#ff4b4b"/>
<rect x="4" y="40" width="70" height="18" fill="#78c800"/>
<path d="M41.255 25.093q-.664-.169-1.17-.169a6.075 6.075 0 0 0 0 12.15q.507 0 1.17-.169a.506.506 0 0 1 .416.905q-1.832 1.29-4.623 1.29a8.1 8.1 0 0 1 0-16.2q2.791 0 4.624 1.29a.506.506 0 0 1-.417.905" fill="#eee"/>
<path d="M44.152 27.129c.115-.51.841-.51.956 0l.266 1.177a.49.49 0 0 0 .74.307l1.021-.645c.442-.278.956.235.677.677l-.645 1.02a.49.49 0 0 0 .307.74l1.178.267c.51.115.51.841 0 .956l-1.178.266a.49.49 0 0 0-.307.74l.645 1.021c.279.442-.235.956-.677.677l-1.02-.644a.49.49 0 0 0-.741.306l-.266 1.178c-.115.51-.841.51-.956 0l-.266-1.178a.49.49 0 0 0-.74-.306l-1.02.644c-.443.279-.956-.235-.678-.677l.645-1.02a.49.49 0 0 0-.307-.74l-1.177-.267c-.51-.115-.51-.841 0-.956l1.177-.266a.49.49 0 0 0 .307-.74l-.645-1.021c-.278-.442.235-.956.677-.677l1.02.645a.49.49 0 0 0 .74-.307z" fill="#eee"/>
<rect x="2" y="2" width="74" height="58" rx="10" fill="none" stroke="#fff" stroke-width="4"/>
</svg>
