<svg xmlns="http://www.w3.org/2000/svg" width="78" height="62">
<rect x="4" y="4" width="70" height="54" fill="#1cb0f6"/>
<rect width="6.5716872" height="50.18536" x="35.680916" y="5.5727496" ry="0" style="opacity:0.98;fill:#78c800;fill-opacity:1;stroke:#eeeeef;stroke-width:3.30809;stroke-linecap:square;stroke-linejoin:miter;stroke-miterlimit:4;stroke-dasharray:none;stroke-opacity:1;paint-order:markers fill stroke" id="rect1" />
<rect width="6.5031567" height="66.603607" x="27.413849" y="-72.26667" ry="0" style="opacity:0.98;fill:#78c800;fill-opacity:1;stroke:#eeeeef;stroke-width:3.31786;stroke-linecap:square;stroke-linejoin:miter;stroke-miterlimit:4;stroke-dasharray:none;stroke-opacity:1;paint-order:markers fill stroke" transform="rotate(90)" id="rect2" />
<path d="M 11.307257,6.1309919 70.787515,52.117921 c -0.390166,0.682301 -1.872342,3.030372 -5.492506,3.343498 L 6.6222504,10.065618 C 7.097694,8.80041 9.2568117,6.5300594 11.307257,6.1309919 Z" style="fill:#78c800;fill-opacity:1;stroke:#eeeee0;stroke-width:3.44832;stroke-linecap:butt;stroke-linejoin:miter;stroke-miterlimit:4;stroke-dasharray:none;stroke-opacity:1" id="path2" />
<path d="M 6.0592648,49.955184 67.205085,6.3081061 c 0,0 3.506963,1.2211168 4.483509,4.7604129 L 10.519379,54.924845 C 9.2349262,54.540724 6.4796173,52.555849 6.0592648,49.955184 Z" style="fill:#78c800;fill-opacity:1;stroke:#eeeee0;stroke-width:3.44832;stroke-linecap:butt;stroke-linejoin:miter;stroke-miterlimit:4;stroke-dasharray:none;stroke-opacity:1" id="path3" />
<rect width="34.612293" height="21.182714" x="21.660608" y="20.079678" ry="4.4756842" style="opacity:0.98;fill:#eeeee0;fill-opacity:1;stroke:none;stroke-width:3.31786;stroke-linecap:square;stroke-linejoin:miter;stroke-miterlimit:4;stroke-dasharray:none;stroke-dashoffset:0;stroke-opacity:1;paint-order:markers fill stroke" id="rect3" />
<path d="m 42.914446,31.208812 a 3.9469365,4.6923142 0 0 1 -3.970332,4.631306 3.9469365,4.6923142 0 0 1 -3.921277,-4.691417 h 3.946181 z" style="opacity:0.98;fill:#1cb0f6;fill-opacity:1;stroke:none;stroke-width:13.74;stroke-linecap:square;stroke-linejoin:miter;stroke-miterlimit:4;stroke-dasharray:none;stroke-dashoffset:0;stroke-opacity:1;paint-order:markers fill stroke" id="path4" />
<rect width="7.8908548" height="5.8748131" x="35.018311" y="25.501776" ry="0.25928849" style="opacity:0.98;fill:#1cb0f6;fill-opacity:1;stroke:none;stroke-width:3.61616;stroke-linecap:square;stroke-linejoin:miter;stroke-miterlimit:4;stroke-dasharray:none;stroke-dashoffset:0;stroke-opacity:1;paint-order:markers fill stroke" id="rect4" />
<rect width="6.8101635" height="4.7566757" x="35.561672" y="27.244957" ry="0.85717314" style="opacity:0.98;fill:#eeeeef;fill-opacity:1;stroke:none;stroke-width:4.73992;stroke-linecap:square;stroke-linejoin:miter;stroke-miterlimit:4;stroke-dasharray:none;stroke-dashoffset:0;stroke-opacity:1;paint-order:markers fill stroke" id="rect5" />
<rect x="2" y="2" width="74" height="58" rx="10" fill="none" stroke="#fff" stroke-width="4"/>
</svg>
