<svg xmlns="http://www.w3.org/2000/svg" width="78" height="62">
<rect x="4" y="4" width="70" height="18" fill="#7ac70c"/>
<rect x="4" y="22" width="70" height="18" fill="#eee" />
<rect x="4" y="40" width="70" height="18" fill="#ff4b4b" />
<path d="m 33.065508,30.484619 a 5.9613514,5.9613514 0 0 1 6.021077,-5.885483 5.9613514,5.9613514 0 0 1 5.900011,6.004936 5.9613514,5.9613514 0 0 1 -5.988793,5.917767 5.9613514,5.9613514 0 0 1 -5.93391,-5.972651" style="fill:#ff4b4b"/>
<path d="m 34.753992,29.230362 a 4.2712526,5.5739362 0 0 1 4.314837,-5.504524 4.2712526,5.5739362 0 0 1 4.229282,5.615906 4.2712526,5.5739362 0 0 1 -4.292237,5.53358 4.2712526,5.5739362 0 0 1 -4.251882,-5.585235" style="fill:#eee"/>
<rect width="2.2" height="14.3" x="38" y="23.8" ry="0.88" fill="#ff4b4b"/>
<path d="m 44.536226,25.909891 c 4.568271,4.240582 4.623155,9.351234 0,12.365002 1.514148,-5.01057 1.423751,-7.226908 0,-12.365002 z M 33.462608,38.273279 c -4.568271,-4.240583 -4.623155,-9.349621 0,-12.365002 -1.514148,5.01057 -1.422137,7.226907 0,12.365002 z" style="fill:#ff4b4b"/>
<rect x="2" y="2" width="74" height="58" rx="10" fill="none" stroke="#fff" stroke-width="4"/>
</svg>
