<svg xmlns="http://www.w3.org/2000/svg" width="78mm" height="62mm" viewBox="0 0 78 62"><path fill="#ff4b4b" stroke="#fff" stroke-width="4" d="M63.437 202H18.563c-4.935 0-6.696.585-8.493 1.545a10.9 10.9 0 0 0-4.525 4.525C4.585 209.867 4 211.628 4 216.563v28.874c0 4.935.585 6.696 1.545 8.493a10.9 10.9 0 0 0 4.525 4.525c1.797.96 3.558 1.545 8.493 1.545h44.874c4.935 0 6.696-.585 8.493-1.545a10.9 10.9 0 0 0 4.525-4.525c.96-1.797 1.545-3.558 1.545-8.493v-28.874c0-4.935-.585-6.696-1.545-8.493a10.9 10.9 0 0 0-4.525-4.525c-1.797-.96-3.558-1.545-8.493-1.545Z" style="fill:#fffffb;fill-opacity:1;fill-rule:nonzero" transform="translate(-2 -200)"/><path fill="#ffc800" d="M76 240v5.437c0 4.368-.455 5.953-1.309 7.55a8.9 8.9 0 0 1-3.704 3.704c-1.597.854-3.182 1.309-7.55 1.309H18.563c-4.368 0-5.953-.455-7.55-1.309a8.9 8.9 0 0 1-3.704-3.704C6.455 251.39 6 249.805 6 245.437V240Z" style="fill:#78c800;fill-opacity:1;fill-rule:nonzero;stroke:none;stroke-width:1" transform="translate(-2 -200)"/><path fill="#4c4c4c" d="M18.563 204h44.874c4.368 0 5.953.455 7.55 1.309a8.9 8.9 0 0 1 3.704 3.704c.854 1.597 1.309 3.182 1.309 7.55V222H6v-5.437c0-4.368.455-5.953 1.309-7.55a8.9 8.9 0 0 1 3.704-3.704c1.597-.854 3.182-1.309 7.55-1.309" style="fill:#78c800;fill-opacity:1;fill-rule:nonzero;stroke:none;stroke-width:1" transform="translate(-2 -200)"/><g transform="translate(-6.496 6.202)scale(.40899)"><rect width="5.526" height="20.278" x="107.89" y="59.272" rx="1.64" ry="1.64" style="opacity:.98;fill:#4b4b4b;fill-opacity:1;stroke-width:4.465;stroke-linecap:round;stroke-linejoin:round;paint-order:stroke fill markers"/><path d="M96.743 56.326a18.73 11.576 0 0 1 18.767-11.553 18.73 11.576 0 0 1 18.694 11.6 18.73 11.576 0 0 1-18.767 11.552 18.73 11.576 0 0 1-18.694-11.598" style="opacity:.98;fill:#78c800;fill-opacity:1;stroke-width:16.8756;stroke-linecap:round;stroke-linejoin:round;paint-order:stroke fill markers" transform="translate(13.802 6.817)scale(.87593)"/><path d="M88.276 61.076a14.48 8.949 0 0 1 14.508-8.931 14.48 8.949 0 0 1 14.451 8.966 14.48 8.949 0 0 1-14.507 8.931 14.48 8.949 0 0 1-14.452-8.966" style="opacity:.98;fill:#78c800;fill-opacity:1;stroke-width:16.8756;stroke-linecap:round;stroke-linejoin:round;paint-order:stroke fill markers" transform="translate(13.802 6.817)scale(.87593)"/><path d="M105.67-8.007a14.48 8.949 0 0 1 14.508-8.931 14.48 8.949 0 0 1 14.451 8.966A14.48 8.949 0 0 1 120.122.96a14.48 8.949 0 0 1-14.452-8.966" style="opacity:.98;fill:#78c800;fill-opacity:1;stroke-width:16.8756;stroke-linecap:round;stroke-linejoin:round;paint-order:stroke fill markers" transform="rotate(30 -5.82 29.163)scale(.87593)"/><path d="M-22.469-120.168a14.48 8.949 0 0 1 14.508-8.93 14.48 8.949 0 0 1 14.45 8.966 14.48 8.949 0 0 1-14.507 8.931 14.48 8.949 0 0 1-14.45-8.966" style="opacity:.98;fill:#78c800;fill-opacity:1;stroke-width:16.8756;stroke-linecap:round;stroke-linejoin:round;paint-order:stroke fill markers" transform="rotate(120 4.933 7.393)scale(.87593)"/></g></svg>