<svg xmlns="http://www.w3.org/2000/svg" width="78" height="62">
<rect x="4" y="4" width="70" height="54" fill="#eee"/>
<path d="m 53.194,18.127 a 4.085,4.085 0 1 1 -8.17,0 4.085,4.085 0 0 1 8.17,0" fill="#ff4b4b" />
<path d="m 37.557,31.293 c -6.096,0.6 -13.154,4.704 -17.161,9.13 -0.598,0.66 0.117,1.655 0.933,1.3 5.508,-2.393 10.847,-3.131 10.847,-3.131 1.68,-1.374 4.178,-4.168 5.38,-7.299 m 9.625,0.23 c 0.047,1.736 -1.451,5.215 -2.291,6.265 0.63,-0.01 1.68,0.129 1.68,0.129 0.773,-1.356 1.76,-4.009 1.799,-6.07 0,0 -0.377,-0.2 -1.188,-0.325 m 6.568,2.295 c 0,0 0.387,0.89 0.387,2.557 0,1.652 -0.468,2.556 -0.468,2.556 1.41,0.224 4.292,1.028 6.772,1.92 0.819,0.295 1.472,-0.728 0.857,-1.344 -2.087,-2.089 -5.166,-4.633 -7.548,-5.69" fill="#58cc02" />
<path d="m 41.458,44.045 c -0.795,0.546 -0.327,1.795 0.63,1.68 9.572,-1.151 11.66,-6.312 11.66,-9.362 0,-3.214 -1.884,-5.98 -3.47,-7.74 -0.595,-0.66 -1.684,-0.185 -1.603,0.701 0.041,0.445 0.067,0.938 0.067,1.473 0,6.924 -4.132,11.083 -7.284,13.248" fill="#1cb0f6" />
<path d="M29.463 14.649c-4.313 0-7.854 1.254-10.598 2.972a.59.59 0 0 0-.405.55c0 .325.276.59.617.59a.62.62 0 0 0 .356-.121l-.014.024c2.52-1.41 5.462-2.364 8.708-2.364 6.073 0 10.806 4.181 10.806 10.023 0 8.546-9.068 17.097-18.305 17.183l-.012-.002c-.255 0-.462.202-.462.45s.207.451.462.451a.5.5 0 0 1-.137-.027c1.721.748 4.43 1.58 7.994 1.58 9.927 0 18.513-7.26 18.513-16.173 0-8.026-7.174-15.136-17.523-15.136m-8.498 29.018c-.007-.008-.01-.019-.018-.026.007.007.01.018.018.026m.078.114" fill="#1cb0f6" />
<rect x="2" y="2" width="74" height="58" rx="10" fill="none" stroke="#fff" stroke-width="4" id="rect3" />
</svg>