<svg xmlns="http://www.w3.org/2000/svg" xml:space="preserve" id="svg2227" width="78" height="62" x="0" y="0" viewBox="0 0 78 62"><style id="style1" type="text/css">.st3{fill:#a56644}</style><g id="g1"><g id="gn_1_"><g id="g3315_1_" transform="translate(6 6)"><path id="path3305_1_" d="M55.35-3.95h-44.8c-4.9 0-6.7.6-8.5 1.5-2 1-3.5 2.6-4.5 4.5-1 1.8-1.5 3.6-1.5 8.5v28.9c0 4.9.6 6.7 1.5 8.5 1 2 2.6 3.5 4.5 4.5 1.8 1 3.6 1.5 8.5 1.5h44.9c4.9 0 6.7-.6 8.5-1.5 2-1 3.5-2.6 4.5-4.5 1-1.8 1.5-3.6 1.5-8.5v-28.9c0-4.9-.6-6.7-1.5-8.5-1-2-2.6-3.5-4.5-4.5-1.9-.9-3.6-1.5-8.6-1.5z" style="stroke:#fff;stroke-width:4;fill:#ffc800;fill-opacity:1"/></g></g><path id="path2940_11_" d="M56.95 58.05v-54h4.5c4.4 0 6 .5 7.5 1.3s2.9 2.1 3.7 3.7c.9 1.6 1.3 3.2 1.3 7.5v28.9c0 4.4-.5 6-1.3 7.5-.9 1.6-2.1 2.9-3.7 3.7-1.6.9-3.2 1.3-7.5 1.3z" style="fill:#1254a9;fill-opacity:1"/><path id="path2942_6_" d="M21.15 58.05h-4.6c-4.4 0-6-.5-7.5-1.3-1.6-.9-2.9-2.1-3.7-3.7-.9-1.6-1.3-3.2-1.3-7.5v-28.9c0-4.4.5-6 1.3-7.5.9-1.6 2.1-2.9 3.7-3.7 1.6-.9 3.2-1.3 7.5-1.3h4.6Z" style="fill:#1254a9;fill-opacity:1"/></g><path id="rect1" d="M44.897-10.009a.7.7 0 0 0-.091.34l-.003 3.108a.68.68 0 0 0 .68.679l2.327-.001.975.975v.859h-1.19a.68.68 0 0 0-.68.68l-.002 1.705A.94.94 0 0 0 47.19-1l3.053 3.054a.68.68 0 0 0 .961-.961l-2.367-2.367q1.245-.004 2.492 0l1.599 1.6-.003 2.154a.94.94 0 0 0 .276.666l1.205 1.204-2.247 2.247-2.692-2.691a.94.94 0 0 0-.666-.277h-3.916c-.035-1.537-.066-3.075-.102-4.612a.68.68 0 0 0-1.36.031q.048 2.291.103 4.581h-.68a.68.68 0 0 0-.68.68v.68l-4.58-.104a.68.68 0 0 0-.03 1.359q2.306.053 4.61.103v3.518a.68.68 0 0 0 .679.68l6.344.002.002 1.935a.68.68 0 0 0 .68.68h2.45l-.035 1.515a.64.64 0 0 0 .661.664c2.239-.05 1.651-.102 3.89-.152a.68.68 0 0 0 .662-.693v-.003a.677.677 0 0 0-.693-.663c-1.99.045-1.154.091-3.145.137l.05-2.196 1.394-1.394-.035 1.515a.64.64 0 0 0 .662.665c2.238-.05 1.65-.102 3.889-.152a.677.677 0 0 0 .663-.694v-.002a.677.677 0 0 0-.694-.663c-1.99.045-1.154.09-3.144.137l.05-2.196L64.14 1.34l2.196-.05c-.046 1.99-.092 1.154-.137 3.145a.677.677 0 0 0 .663.693h.003a.677.677 0 0 0 .693-.663c.05-2.238.101-1.65.152-3.889a.64.64 0 0 0-.664-.661l-1.515.034 1.393-1.393 2.196-.05c-.045 1.99-.092 1.154-.137 3.145a.677.677 0 0 0 .663.693h.003a.68.68 0 0 0 .693-.663c.05-2.238.102-1.65.152-3.889a.64.64 0 0 0-.664-.661l-1.515.034v-2.45a.68.68 0 0 0-.68-.68h-1.934l-.003-6.345a.68.68 0 0 0-.68-.68l-3.517.001q-.051-2.306-.104-4.61a.68.68 0 0 0-1.359.03l.104 4.58h-.68a.68.68 0 0 0-.68.68v.68q-2.29-.054-4.58-.104a.68.68 0 0 0-.032 1.36l4.613.102v3.914c0 .216.124.514.276.666l2.692 2.694L59.504-.75 58.3-1.953a.94.94 0 0 0-.665-.276l-2.155.003-1.599-1.6-.001-2.492 2.368 2.368a.68.68 0 0 0 .961-.961l-3.053-3.054a.94.94 0 0 0-.666-.276l-1.705.002a.68.68 0 0 0-.68.679v1.19h-.859l-.975-.975.001-2.327a.68.68 0 0 0-.68-.68l-3.107.004a.68.68 0 0 0-.588.34M34.318 2.288a.68.68 0 0 0-.21.476v.002a.677.677 0 0 0 .663.694l6.715.151a.64.64 0 0 0 .664-.661l-.152-6.718a.677.677 0 0 0-.693-.662h-.003a.68.68 0 0 0-.664.694q.066 2.987.137 5.973l-5.973-.136a.67.67 0 0 0-.484.187m16.616-16.615a.68.68 0 0 0-.21.475v.003a.677.677 0 0 0 .663.693l6.717.152c.375.008.67-.29.662-.664l-.152-6.715a.677.677 0 0 0-.693-.663h-.003a.677.677 0 0 0-.663.693l.137 5.973q-2.986-.07-5.973-.136a.68.68 0 0 0-.485.189" style="fill:#ff4b4b;fill-opacity:1" transform="rotate(45)"/><g id="g2"><circle id="circle1" cx="39" cy="17" r="6.75" class="st3" style="fill:#ff4b4b;fill-opacity:1;stroke-width:.751969"/><path id="circle18" d="M42.375 17A3.375 3.375 0 0 1 39 20.375 3.375 3.375 0 0 1 35.625 17 3.375 3.375 0 0 1 39 13.625 3.375 3.375 0 0 1 42.375 17Z" class="st3" style="fill:none;stroke:#ffc800;stroke-width:1.36"/></g></svg>