<svg xmlns="http://www.w3.org/2000/svg" width="78" height="62"><path d="M61.437 60H16.563c-4.935 0-6.696-.585-8.493-1.545a10.9 10.9 0 0 1-4.525-4.525C2.585 52.133 2 50.372 2 45.437V16.563c0-4.935.585-6.696 1.545-8.493A10.9 10.9 0 0 1 8.07 3.545C9.867 2.585 11.628 2 16.563 2h44.874c4.935 0 6.696.585 8.493 1.545a10.9 10.9 0 0 1 4.525 4.525C75.415 9.867 76 11.628 76 16.563v28.874c0 4.935-.585 6.696-1.545 8.493a10.9 10.9 0 0 1-4.525 4.525c-1.797.96-3.558 1.545-8.493 1.545Z" style="fill:#1cb0f6;fill-rule:nonzero;stroke:#fff;stroke-width:4"/><path d="M74 31V16.563c0-4.368-.455-5.953-1.309-7.55a8.9 8.9 0 0 0-3.704-3.704C67.39 4.455 65.805 4 61.437 4H16.563c-4.368 0-5.953.455-7.55 1.309A8.9 8.9 0 0 0 5.31 9.013C4.455 10.61 4 12.195 4 16.563V31Z" style="fill:#ffc300;fill-rule:nonzero;stroke:none;stroke-width:1"/><circle cx="41" cy="35" r="14.005" style="fill:#ffc300;fill-opacity:1;stroke:#1cb0f6;stroke-width:2.66667;stroke-linecap:round;stroke-linejoin:round;stroke-miterlimit:4;stroke-dasharray:none;stroke-dashoffset:0;stroke-opacity:1"/><path d="M48.475 34.903a7.475 7.475 0 0 1-7.447 7.474 7.475 7.475 0 0 1-7.503-7.418" style="opacity:1;fill:none;fill-opacity:1;stroke:#1cb0f6;stroke-width:2.66667;stroke-linecap:round;stroke-linejoin:round;stroke-miterlimit:4;stroke-dasharray:none;stroke-dashoffset:0;stroke-opacity:1"/><path d="M41 10.18v6.276m12.955-3.06-3.137 5.434m-23.002-5.117 3.138 5.434" style="fill:#1cb0f6;fill-opacity:1;stroke:#1cb0f6;stroke-width:2.66667;stroke-linecap:round;stroke-linejoin:miter;stroke-miterlimit:4;stroke-dasharray:none;stroke-opacity:1"/></svg>