<svg xmlns="http://www.w3.org/2000/svg" width="78" height="62">
<rect x="4" y="4" width="70" height="54" fill="#ff4b4b"/>
<rect x="14" y="14" width="50" height="34" rx="3" fill="#7ac70c"/>
<path d="M45.25 25.25c-.5-.1-.8-.2-1.2-.2-3.3 0-6 2.7-6 6s2.7 6 6 6c.4 0 .7-.1 1.2-.2.3-.1.6.1.6.4.1.2-.1.4-.2.6-1.2.9-2.8 1.3-4.6 1.3-4.4 0-8-3.6-8-8s3.6-8 8-8c1.9 0 3.4.4 4.6 1.3.3.2.3.5.1.7-.1.1-.3.1-.5.1" fill="#fff"/>
<rect x="2" y="2" width="74" height="58" rx="10" fill="none" stroke="#fff" stroke-width="4"/>
</svg>
