<svg xmlns="http://www.w3.org/2000/svg" width="78" height="62"><g style="fill:none;fill-rule:evenodd;stroke:none;stroke-width:1"><g style="fill-rule:nonzero"><path d="M57.437-2H12.563C7.628-2 5.867-1.415 4.07-.455A10.9 10.9 0 0 0-.455 4.07C-1.415 5.867-2 7.628-2 12.563v28.874c0 4.935.585 6.696 1.545 8.493a10.9 10.9 0 0 0 4.525 4.525C5.867 55.415 7.628 56 12.563 56h44.874c4.935 0 6.696-.585 8.493-1.545a10.9 10.9 0 0 0 4.525-4.525c.96-1.797 1.545-3.558 1.545-8.493V12.563c0-4.935-.585-6.696-1.545-8.493A10.9 10.9 0 0 0 65.93-.455C64.133-1.415 62.372-2 57.437-2Z" style="fill:#ff4b4b;fill-opacity:1;stroke:#fff;stroke-width:4" transform="translate(4 4)"/><path d="M-.017.003h8.744v53.98H-.017z" style="opacity:1;fill:#ffc300;fill-opacity:1;stroke:none;stroke-width:7.72678;stroke-linecap:round;stroke-linejoin:round;stroke-miterlimit:4;stroke-dasharray:none;stroke-dashoffset:0;stroke-opacity:1" transform="translate(4 4)"/><path d="M17.472.003h8.744v53.98h-8.744zm17.488 0h8.744v53.98H34.96zm17.489 0h8.744v53.98h-8.744z" style="opacity:1;fill:#ffc300;fill-opacity:1;fill-rule:nonzero;stroke:none;stroke-width:7.72678;stroke-linecap:round;stroke-linejoin:round;stroke-miterlimit:4;stroke-dasharray:none;stroke-dashoffset:0;stroke-opacity:1" transform="translate(4 4)"/><path d="M57.437-2H12.563C7.628-2 5.867-1.415 4.07-.455A10.9 10.9 0 0 0-.455 4.07C-1.415 5.867-2 7.628-2 12.563v28.874c0 4.935.585 6.696 1.545 8.493a10.9 10.9 0 0 0 4.525 4.525C5.867 55.415 7.628 56 12.563 56h44.874c4.935 0 6.696-.585 8.493-1.545a10.9 10.9 0 0 0 4.525-4.525c.96-1.797 1.545-3.558 1.545-8.493V12.563c0-4.935-.585-6.696-1.545-8.493A10.9 10.9 0 0 0 65.93-.455C64.133-1.415 62.372-2 57.437-2Z" style="fill:none;fill-opacity:1;fill-rule:nonzero;stroke:#fff;stroke-width:4" transform="translate(4 4)"/></g></g></svg>