<svg xmlns="http://www.w3.org/2000/svg" width="78" height="62"><path d="M63.437 4H18.563c-4.935 0-6.696.585-8.493 1.545a10.9 10.9 0 0 0-4.525 4.525C4.585 11.867 4 13.628 4 18.563v28.874c0 4.935.585 6.696 1.545 8.493a10.9 10.9 0 0 0 4.525 4.525c1.797.96 3.558 1.545 8.493 1.545h44.874c4.935 0 6.696-.585 8.493-1.545a10.9 10.9 0 0 0 4.525-4.525c.96-1.797 1.545-3.558 1.545-8.493V18.563c0-4.935-.585-6.696-1.545-8.493a10.9 10.9 0 0 0-4.525-4.525C70.133 4.585 68.372 4 63.437 4Z" style="fill:#ff4b4b;fill-opacity:1;fill-rule:nonzero;stroke:#fff;stroke-width:4" transform="translate(-2 -2)"/><g stroke="none" style="display:inline;fill:#eee;fill-opacity:1;fill-rule:nonzero;stroke:#ff4b4b;stroke-width:1;stroke-opacity:1" transform="translate(34.366 25.92)scale(.23282)"><rect width="59.132" height="12.132" x="-9.566" y="32.276" ry="6.066" style="fill:#eee;fill-opacity:1;stroke:none;stroke-width:6;stroke-linecap:round;stroke-linejoin:round;stroke-miterlimit:4;stroke-dasharray:none;stroke-opacity:1;paint-order:stroke fill markers;stop-color:#000" transform="rotate(90)"/><rect width="59.132" height="12.132" x="-8.137" y="-84.218" ry="6.066" style="fill:#eee;fill-opacity:1;stroke:none;stroke-width:6.00028;stroke-linecap:round;stroke-linejoin:round;stroke-miterlimit:4;stroke-dasharray:none;stroke-opacity:1;paint-order:stroke fill markers;stop-color:#000" transform="rotate(90)"/><rect width="75.036" height="8.859" x="-19.332" y="-38.849" ry="4.43" style="display:inline;fill:#eee;fill-opacity:1;stroke:none;stroke-width:6.14067;stroke-linejoin:round;stroke-miterlimit:4;stroke-dasharray:none;stroke-opacity:1;paint-order:stroke markers fill;stop-color:#000"/><rect width="46.106" height="8.862" x="-4.383" y="-50.851" ry="4.431" style="display:inline;fill:#eee;fill-opacity:1;stroke:none;stroke-width:6.13812;stroke-linejoin:round;stroke-miterlimit:4;stroke-dasharray:none;stroke-opacity:1;paint-order:stroke markers fill;stop-color:#000"/><rect width="19.426" height="19.426" x="8.957" y="-73.132" ry="9.713" style="display:inline;fill:#eee;fill-opacity:1;stroke:none;stroke-width:5.57449;stroke-linejoin:round;stroke-miterlimit:4;stroke-dasharray:none;stroke-opacity:1;paint-order:stroke markers fill;stop-color:#000"/><path d="M23.387 65.357a83 83 0 0 1 4.225-6.765c1.127-1.622.507-2.888-1.468-2.888H-9.171a5.7 5.7 0 0 0-5.713 5.713 5.7 5.7 0 0 0 5.713 5.712h29.575c1.114 0 2.438-.8 2.983-1.772" style="display:inline;fill:#eee;fill-opacity:1;fill-rule:nonzero;stroke:none;stroke-width:6.00028;stroke-linecap:round;stroke-linejoin:round;stroke-miterlimit:4;stroke-dasharray:none;stroke-opacity:1;paint-order:stroke fill markers;stop-color:#000"/><path d="M36.494 47.705a1.358 1.358 0 1 0 0 2.717h1.276a60 60 0 0 0 1.905-.053.42.42 0 0 0 .394-.4c.024-.6.066-1.254.122-1.865a.357.357 0 0 0-.362-.399zm-1.129-3.381c-.752 0-1.357.607-1.357 1.36 0 .752.605 1.357 1.357 1.357h4.486a.65.65 0 0 0 .598-.477c.14-.548.324-1.092.56-1.653.138-.327-.025-.587-.38-.587z" style="display:inline;fill:#eee;fill-opacity:1;fill-rule:nonzero;stroke:none;stroke-width:1.3591;stroke-linecap:round;stroke-linejoin:round;stroke-miterlimit:4;stroke-dasharray:none;stroke-opacity:1;paint-order:stroke markers fill;stop-color:#000" transform="translate(-156.195 -119.918)scale(4.29512)"/><path d="M-5.107 114.011c-1.547-.57-3.392-2.268-4.13-3.8-.943-1.958-.883-4.584.148-6.47.856-1.565 1.765-2.442 3.46-3.339 1.064-.562 1.508-.59 11.71-.755 6.544-.105 10.875-.281 11.314-.46 1.414-.574 1.57-1.14 1.573-5.684.005-9.122 1.378-15.009 5.384-23.069 3.518-7.08 8.22-13.934 12.08-17.608 5.937-5.65 7.301-7.25 10.349-12.133 3.322-5.325 4.666-8.67 5.636-14.036.558-3.087.55-9.77-.018-13.503-1.094-7.206-4.808-14.559-9.93-19.66-6.36-6.334-14.222-9.524-23.478-9.524-4.373 0-7.56.664-11.377 1.876C-.059-11.717-6.166-6.717-9.222.026c-5.76 12.714-3.276 26.707 6.782 34.314 4.548 3.44 9.533 5.28 14.963 5.255 5.84-.027 10.495-1.936 14.506-5.95 3.737-3.74 5.569-7.932 5.814-13.3.248-5.45-1.419-9.85-4.802-13.215-2.803-2.789-5.764-4.091-9.757-4.097-5.387-.008-9.33 2.347-11.369 6.66-.765 1.618-.965 2.51-.967 4.343.065 2.369.306 3.67 1.553 5.033.793.867 1.11.815.79-.335-.377-1.361-.429-4.256.25-6.07 1.571-4.199 5.022-6.543 10.09-6.531 2.16.004 3.311.378 4.563.958 1.97.914 2.82 1.849 4.06 3.766 1.672 2.588 2.534 5.446 2.56 8.95.025 3.48-.843 5.926-2.444 8.37C21.594 36.993 9.288 38.821.603 32.558c-3.988-2.877-7.472-7.956-8.88-13.221-.88-3.29-.873-8.877.078-12.5.867-3.3 2.913-7.517 4.807-9.841 5.4-6.627 15.964-10.735 25.05-9.767 11.087 1.183 19.935 7.196 24.59 17.08 1.985 4.212 3.492 9.304 3.284 15.822-.148 4.626-1.122 8.886-2.403 12.086-2.888 7.621-7.925 14.083-15.114 18.456-2.025 1.232-5.712 2.016-8.085 2.016H11.914l-11.848.002c-2.372 0-6.077-.741-8.138-1.914-3.56-2.026-6.657-4.503-8.855-6.775-5.918-5.88-9.54-12.75-11.467-21.362-.506-2.259-.874-3.043-.874-8.135 0-5.135.415-6.878.945-9.329 1.613-10.657 8.606-22.455 19.76-29.889 1.973-1.315 5.605-2.208 7.977-2.208h37.809c2.372 0 6.042.818 8.065 2.054 11.466 7.003 18.674 18.655 22.02 29.113.384 1.314.714 3.675.916 5.225 1.798 13.742-.551 26.099-7.155 37.636-3.288 5.744-5.696 9.149-14.74 17.759-5.815 5.535-8.558 11.846-10.454 19.443-.576 2.305-.708 3.653-.9 9.146-.251 7.206.561 13.372-3.631 17.693-3.057 3.15-8.38 2.922-12.815 3.036-3.892.1-5.541.083-12.046.143-8.931.082-10.634.036-11.59-.317" style="color:#000;fill:#eee;fill-opacity:1;fill-rule:nonzero;stroke:none;stroke-width:6.00028;stroke-linecap:round;stroke-linejoin:round;-inkscape-stroke:none;paint-order:stroke markers fill"/></g></svg>