<svg xmlns="http://www.w3.org/2000/svg" width="78" height="62" fill="none" viewBox="0 0 78 62"><g clip-path="url(#a)"><path fill="#ff4b4b" d="M61.3 2.1H16.5c-4.9 0-6.7.6-8.5 1.5-2 1-3.5 2.6-4.5 4.5-1 1.8-1.5 3.6-1.5 8.5v28.9c0 4.9.6 6.7 1.5 8.5 1 2 2.6 3.5 4.5 4.5 1.8 1 3.6 1.5 8.5 1.5h44.9c4.9 0 6.7-.6 8.5-1.5 2-1 3.5-2.6 4.5-4.5 1-1.8 1.5-3.6 1.5-8.5V16.6c0-4.9-.6-6.7-1.5-8.5-1-2-2.6-3.5-4.5-4.5-1.9-.9-3.6-1.5-8.6-1.5"/><path fill="#1cb0f6" d="m16.427 3.427 22.492.241-.02 27.432h-35V16.7C3.9 5.317 7.325 3.33 16.428 3.427M61.3 58.1H38.9v-27h35v14.4c0 10.953-.881 12.6-12.6 12.6"/><path stroke="#fff" stroke-width="4" d="M61.3 2H16.5c-4.9 0-6.7.6-8.5 1.5-2 1-3.5 2.6-4.5 4.5-1 1.8-1.5 3.6-1.5 8.5v28.9c0 4.9.6 6.7 1.5 8.5 1 2 2.6 3.5 4.5 4.5 1.8 1 3.6 1.5 8.5 1.5h44.9c4.9 0 6.7-.6 8.5-1.5 2-1 3.5-2.6 4.5-4.5 1-1.8 1.5-3.6 1.5-8.5V16.5c0-4.9-.6-6.7-1.5-8.5-1-2-2.6-3.5-4.5-4.5C68 2.6 66.3 2 61.3 2Z"/><path fill="#fff" d="M17.09 15.307a.75.75 0 1 0 1.3-.746zm.233-5.782.746-.075-.034-.338-.277-.198zm2.502 3.329.53-.531a.75.75 0 0 0-.808-.166zm.418-1.248v-.75h-.75v.75zm2.92 3.744-.671.336zm4.587 9.154-.711-.238zM26.5 27v.75h.4l.223-.333zm-2.503 0h-.75v.75h.75zm1.252-2.08.415.624zm-2.086-3.745h.75v-.685l-.682-.062zm-4.17 4.993v.75h.81l-.063-.808zm-3.754 0-.723.202.153.548h.57zm6.256-7.49.114.742 1.284-.197-.813-1.014zm-6.256 0-.197.724.263.072.247-.114zm0-1.664-.335.672zm3.23-2.317a.75.75 0 1 0-1.456-.358zm7.197 5.728a.75.75 0 1 0 0 1.5zm2.502-5.075-.468-.586zm3.337-2.08.53.53zm-3.23-3.24a.75.75 0 1 0-.213 1.486zm-9.883 4.531-.08-.14-1.308.735.086.15zm-.08-.14c-.806-1.434-1.562-3.18-1.777-4.27a2 2 0 0 1-.053-.558c.012-.125.035-.016-.104.086-.158.116-.273.045-.15.082.116.036.33.139.66.375l.871-1.222c-.386-.275-.752-.483-1.093-.587-.335-.103-.786-.143-1.175.143-.371.271-.475.689-.502.982-.03.311.009.654.075.989.26 1.323 1.107 3.233 1.94 4.715zM16.577 9.6c.175 1.747.662 2.867 1.358 3.497.725.658 1.575.69 2.168.453l-.556-1.393c-.101.04-.335.073-.605-.17-.298-.272-.714-.955-.873-2.537zm2.719 3.785a.9.9 0 0 0 .76.262c.381-.055.594-.329.692-.513.183-.343.244-.86.244-1.529h-1.5c0 .31-.016.524-.037.667-.022.151-.045.183-.03.156a.56.56 0 0 1 .418-.266c.28-.04.459.108.512.16zm.947-1.03c.341 0 .662-.026.937-.11.28-.087.599-.262.776-.615.168-.336.128-.676.07-.909a3.5 3.5 0 0 0-.279-.7l-1.34.672q.069.14.111.242.042.104.053.15c.008.034.005.036.005.014 0-.025.007-.078.039-.142a.4.4 0 0 1 .11-.134c.03-.022.042-.021.014-.013a1 1 0 0 1-.166.03q-.127.015-.33.015zm1.504-2.334a1.4 1.4 0 0 0-.314-.432.9.9 0 0 0-.373-.198.83.83 0 0 0-.509.036.9.9 0 0 0-.302.202 1 1 0 0 0-.137.17c-.056.087-.102.18-.123.222l-.037.071c.003-.003.02-.028.051-.06a.6.6 0 0 1 .21-.137.67.67 0 0 1 .405-.028c.13.032.216.095.258.131.07.062.077.102.037.023l-1.34.672c.064.13.162.3.313.433a.9.9 0 0 0 .373.197.83.83 0 0 0 .51-.035.9.9 0 0 0 .301-.202c.062-.063.107-.126.137-.171.056-.086.102-.18.123-.222l.037-.07a.6.6 0 0 1-.26.198.67.67 0 0 1-.406.027.6.6 0 0 1-.258-.132c-.07-.061-.076-.102-.037-.023zm-.834 0c-.055-.11-.115-.222-.156-.302a3 3 0 0 1-.096-.197c-.02-.05-.016-.05-.012-.019.005.04.008.14-.049.254a.43.43 0 0 1-.164.183c-.02.01-.005-.002.078-.019.169-.035.47-.062.98-.062v-1.5c-.533 0-.962.026-1.288.094-.286.06-.73.2-.947.632-.214.428-.053.847.018 1.015.077.185.22.444.295.593zm.58-.162c1.047 0 1.438.118 1.637.267.183.137.346.407.556 1.246l1.455-.365c-.207-.825-.461-1.595-1.112-2.082-.636-.476-1.496-.566-2.535-.566zm2.193 1.513c.126.501-.114 1.078-.549 1.837-.187.327-.432.726-.584 1.074-.141.324-.328.87-.061 1.403l1.34-.672c.06.117-.024.143.096-.131.109-.25.281-.527.51-.928.4-.698.994-1.785.703-2.948zm-1.194 4.314c.15.3.388.595.614.853.227.26.51.558.753.824.533.585.943 1.1 1.094 1.553l1.423-.475c-.266-.795-.898-1.528-1.408-2.088-.28-.306-.516-.553-.733-.8-.217-.25-.344-.423-.402-.539zm2.461 3.23c.123.368.356.857.598 1.353.253.517.532 1.073.787 1.633.256.561.471 1.093.6 1.544.138.49.128.739.1.82l1.424.475c.18-.543.067-1.177-.081-1.703-.16-.562-.413-1.175-.678-1.758-.266-.584-.56-1.172-.804-1.67-.253-.518-.437-.913-.523-1.17zm2.086 5.35c-.304.91-.904 1.928-1.164 2.317l1.247.834c.297-.444.976-1.588 1.34-2.676zm-.54 1.984h-2.503v1.5H26.5zm-1.753.75c0-.21.16-.952.917-1.456l-.83-1.249c-1.246.828-1.587 2.083-1.587 2.705zm.917-1.456c.23-.153.483-.388.579-.745.1-.374-.021-.697-.15-.91a2.5 2.5 0 0 0-.441-.519c-.153-.142-.331-.291-.493-.428-.344-.29-.661-.567-.898-.877-.23-.3-.348-.585-.348-.89h-1.5c0 .735.299 1.334.656 1.801.35.457.789.83 1.122 1.113.177.149.318.267.435.376.12.113.168.175.182.198.009.014-.057-.09-.014-.252.038-.143.122-.17.04-.116zm-2.433-5.116c-.905-.082-2.242.108-3.324.986-1.124.912-1.844 2.458-1.662 4.811l1.495-.115c-.152-1.973.449-2.993 1.112-3.53.703-.572 1.619-.715 2.243-.658zm-4.239 4.99h-3.753v1.5h3.753zm-3.031.548a.57.57 0 0 1 .044-.433c.043-.066.214-.28.902-.28v-1.5c-1.02 0-1.76.342-2.163.969-.374.58-.343 1.235-.228 1.648zm.946-.712a1.1 1.1 0 0 0 .996-.615c.142-.267.196-.584.23-.828.078-.58.087-1.102.234-1.739.137-.592.375-1.148.83-1.601.45-.45 1.178-.862 2.412-1.051l-.228-1.483c-1.477.227-2.522.751-3.244 1.472-.719.717-1.055 1.565-1.231 2.325-.166.715-.208 1.494-.26 1.876q-.023.16-.044.248c-.016.063-.026.083-.024.078a.4.4 0 0 1 .328-.182zm5.173-7.045a15 15 0 0 1-.501-.667c-.14-.196-.284-.398-.424-.57-.301-.364-.693-.709-1.323-.757-.529-.041-1.13.142-1.838.42-.735.29-1.722.742-3.07 1.362l.628 1.363c1.364-.628 2.306-1.06 2.992-1.33.713-.28 1.024-.331 1.173-.32.047.004.099-.003.28.217.1.122.208.273.363.49.149.207.328.454.55.73zm-6.645-.254c-.553-.15-.962-.29-1.256-.414-.304-.128-.445-.224-.497-.27-.06-.053.092.052.066.3-.023.227-.172.305-.127.276a1 1 0 0 1 .243-.096 2.7 2.7 0 0 1 .884-.088c.135.011.175.032.156.023l.67-1.343a2 2 0 0 0-.7-.175 4 4 0 0 0-.706.009c-.439.043-.99.163-1.378.42-.19.127-.489.388-.534.82-.046.452.213.785.434.98.424.373 1.206.694 2.352 1.005zm-.531-.27c.464.232.935.143 1.286-.013.348-.155.664-.41.93-.679a5.7 5.7 0 0 0 1.244-1.95l-1.411-.51a4.3 4.3 0 0 1-.902 1.407c-.192.195-.357.31-.472.361-.111.05-.085.003-.006.042zm3.46-2.642q.062-.172.105-.346l-1.456-.358a2 2 0 0 1-.06.195zm7.302 6.882c2.13 0 3.935-.315 5.027-.859.515-.257 1.076-.668 1.218-1.308.162-.726-.287-1.302-.79-1.68l-.9 1.201c.33.247.195.294.226.153.012-.055 0 .08-.424.292-.785.392-2.317.701-4.357.701zm5.454-3.847c-.476-.356-1.025-.642-1.499-.881-.504-.255-.898-.447-1.183-.644-.315-.218-.246-.274-.243-.173.002.087-.053-.05.441-.444l-.936-1.172c-.548.438-1.02.978-1.005 1.65.015.686.528 1.123.89 1.374.393.27.912.521 1.36.747.477.242.918.476 1.277.744zm-2.484-2.142c.295-.235.824-.5 1.516-.871.626-.337 1.376-.759 1.883-1.264l-1.06-1.062c-.327.326-.882.654-1.533 1.004-.586.315-1.308.675-1.742 1.02zm3.399-2.135c.407-.406.752-.918.713-1.515-.04-.63-.48-1.039-.89-1.287-.419-.254-.964-.44-1.551-.589-.598-.15-1.29-.273-2.033-.38l-.212 1.486c.717.102 1.352.216 1.878.349.536.135.912.278 1.14.417.24.145.177.193.171.1-.004-.06.035.047-.276.357zM50.09 42.307a.75.75 0 1 0 1.3-.746zm.233-5.782.746-.075-.034-.338-.277-.198zm2.502 3.329.53-.531a.75.75 0 0 0-.807-.166zm.417-1.248v-.75h-.75v.75zm2.92 3.744-.67.336zm4.588 9.154-.711-.238zM59.5 54v.75h.4l.224-.333zm-2.503 0h-.75v.75h.75zm1.252-2.08.415.624zm-2.086-3.745h.75v-.685l-.682-.062zm-4.17 4.993v.75h.81l-.063-.808zm-3.754 0-.723.202.154.548h.569zm6.256-7.49.114.742 1.284-.197-.813-1.014zm-6.257 0-.196.724.263.072.247-.114zm0-1.664-.334.671zm3.231-2.317a.75.75 0 1 0-1.456-.358zm7.197 5.728a.75.75 0 1 0 0 1.5zm2.502-5.075-.468-.586zm3.337-2.08.53.53zm-3.23-3.24a.75.75 0 1 0-.212 1.486zm-9.883 4.531-.08-.14-1.307.735.085.15zm-.08-.14c-.806-1.434-1.562-3.18-1.777-4.27a2 2 0 0 1-.053-.558c.012-.125.035-.016-.104.086-.158.116-.273.045-.15.082.116.036.33.139.66.375l.871-1.222c-.386-.275-.752-.483-1.093-.587-.335-.102-.786-.143-1.175.142-.371.272-.475.69-.502.983-.03.311.009.654.075.989.26 1.323 1.107 3.233 1.94 4.715zM49.577 36.6c.175 1.747.662 2.867 1.358 3.497.725.658 1.575.69 2.168.453l-.556-1.393c-.101.04-.335.073-.605-.17-.298-.272-.714-.955-.873-2.537zm2.719 3.785a.9.9 0 0 0 .76.262c.381-.055.594-.329.692-.513.183-.343.245-.86.245-1.529h-1.5c0 .31-.017.524-.038.667-.023.151-.045.183-.03.156a.56.56 0 0 1 .419-.266.6.6 0 0 1 .511.16zm.947-1.03c.341 0 .662-.026.936-.11.282-.087.6-.262.777-.615.168-.336.128-.676.07-.909a3.5 3.5 0 0 0-.279-.7l-1.34.672q.069.14.111.242.042.103.053.15c.008.034.005.036.005.014 0-.025.007-.078.039-.142a.4.4 0 0 1 .11-.134c.03-.022.042-.021.014-.013a1 1 0 0 1-.166.03q-.127.015-.33.015zm1.504-2.334a1.4 1.4 0 0 0-.314-.432.9.9 0 0 0-.373-.198.83.83 0 0 0-.509.036.9.9 0 0 0-.302.202 1 1 0 0 0-.137.17c-.056.087-.102.18-.123.222l-.036.071c.002-.003.018-.028.05-.06a.6.6 0 0 1 .21-.137.67.67 0 0 1 .405-.028c.13.032.216.095.258.131.07.062.077.102.037.023l-1.34.672c.064.13.162.3.313.433a.9.9 0 0 0 .373.197.83.83 0 0 0 .51-.035.9.9 0 0 0 .301-.202c.062-.063.107-.126.137-.171.056-.086.102-.18.123-.222l.037-.07a.6.6 0 0 1-.26.198.67.67 0 0 1-.406.027.6.6 0 0 1-.258-.132c-.07-.061-.076-.102-.037-.023zm-.834 0c-.055-.11-.115-.222-.156-.302a3 3 0 0 1-.096-.197c-.02-.05-.016-.05-.011-.019.005.04.008.14-.05.254a.43.43 0 0 1-.164.183c-.02.01-.005-.002.078-.019.169-.035.47-.062.98-.062v-1.5c-.533 0-.962.026-1.288.094-.286.06-.73.2-.947.632-.214.428-.053.846.018 1.015.077.185.22.444.295.593zm.58-.162c1.047 0 1.438.118 1.637.267.183.137.346.407.556 1.246l1.455-.365c-.207-.825-.461-1.595-1.112-2.082-.636-.476-1.496-.566-2.535-.566zm2.193 1.513c.126.501-.114 1.078-.549 1.837-.187.327-.432.725-.584 1.074-.141.324-.328.87-.061 1.403l1.34-.672c.06.117-.024.143.096-.131.109-.25.281-.528.51-.928.4-.698.994-1.785.703-2.948zm-1.194 4.314c.15.3.388.595.614.853.227.26.51.558.753.825.533.584.943 1.1 1.094 1.552l1.423-.475c-.266-.795-.898-1.528-1.408-2.088-.28-.306-.516-.553-.733-.8-.217-.25-.344-.423-.402-.539zm2.461 3.23c.123.368.356.857.598 1.353.252.517.532 1.073.787 1.633.256.561.471 1.093.6 1.544.137.49.128.739.1.82l1.424.475c.18-.542.067-1.178-.081-1.703-.16-.562-.413-1.175-.678-1.758-.266-.584-.56-1.172-.804-1.67-.253-.518-.437-.913-.523-1.17zm2.086 5.35c-.304.91-.904 1.928-1.164 2.317l1.248.834c.296-.444.975-1.588 1.339-2.676zm-.54 1.984h-2.503v1.5H59.5zm-1.753.75c0-.21.16-.952.917-1.456l-.83-1.249c-1.246.828-1.587 2.083-1.587 2.705zm.917-1.456c.23-.153.483-.388.579-.745.1-.374-.021-.697-.15-.91a2.5 2.5 0 0 0-.441-.519c-.153-.142-.331-.291-.493-.428-.344-.29-.661-.567-.898-.877-.23-.3-.348-.585-.348-.89h-1.5c0 .735.299 1.334.656 1.801.35.458.789.83 1.122 1.113.177.149.318.267.435.376.12.113.168.175.182.198.009.014-.057-.09-.014-.252.038-.143.122-.17.04-.116zm-2.433-5.116c-.905-.082-2.241.108-3.324.986-1.124.912-1.844 2.458-1.663 4.811l1.496-.115c-.152-1.973.449-2.993 1.112-3.53.703-.572 1.619-.715 2.243-.658zm-4.239 4.99h-3.754v1.5h3.754zm-3.031.548a.57.57 0 0 1 .044-.433c.043-.066.214-.28.902-.28v-1.5c-1.02 0-1.76.342-2.163.969-.374.58-.343 1.235-.228 1.648zm.946-.712c.21 0 .425-.055.616-.184.184-.124.303-.285.38-.431.142-.267.196-.584.23-.828.078-.58.087-1.102.234-1.739.137-.592.375-1.148.83-1.601.45-.45 1.178-.862 2.412-1.051l-.228-1.483c-1.477.227-2.522.751-3.244 1.472-.719.717-1.055 1.565-1.231 2.325-.166.715-.208 1.494-.26 1.876q-.023.16-.044.248c-.016.063-.026.083-.024.078a.4.4 0 0 1 .328-.182zm5.173-7.045a15 15 0 0 1-.501-.667c-.14-.196-.284-.398-.424-.57-.301-.364-.693-.709-1.323-.757-.529-.041-1.13.142-1.838.42-.735.29-1.722.742-3.07 1.362l.628 1.363c1.364-.628 2.306-1.06 2.991-1.33.714-.28 1.025-.331 1.174-.32.047.004.099-.003.28.217.1.122.208.273.363.49.149.207.328.454.55.73zm-6.645-.254c-.553-.15-.962-.29-1.256-.414-.303-.128-.445-.224-.497-.27-.06-.053.092.052.066.3-.023.227-.172.305-.127.276a1 1 0 0 1 .243-.096 2.7 2.7 0 0 1 .884-.088c.135.011.175.032.156.023l.67-1.343a2 2 0 0 0-.7-.175 4 4 0 0 0-.706.009c-.439.043-.99.163-1.378.42-.19.127-.489.388-.534.82-.047.452.213.785.434.98.424.373 1.206.694 2.352 1.005zm-.531-.27c.464.232.935.143 1.286-.013.348-.155.664-.41.93-.679a5.7 5.7 0 0 0 1.244-1.95l-1.411-.51a4.3 4.3 0 0 1-.901 1.407c-.193.195-.358.31-.473.361-.111.05-.085.003-.006.042zm3.46-2.642q.062-.171.105-.346l-1.456-.358a2 2 0 0 1-.06.195zm7.302 6.882c2.13 0 3.935-.315 5.027-.859.515-.257 1.076-.668 1.218-1.308.162-.726-.286-1.303-.79-1.68l-.9 1.201c.33.247.195.294.226.153.012-.055 0 .08-.424.292-.785.392-2.317.701-4.357.701zm5.454-3.847c-.475-.356-1.025-.642-1.499-.881-.504-.255-.898-.447-1.183-.644-.315-.218-.246-.274-.243-.173.002.087-.053-.05.441-.444l-.936-1.172c-.548.438-1.02.978-1.005 1.65.015.686.528 1.123.89 1.374.393.27.912.521 1.36.747.477.242.918.476 1.276.744zm-2.484-2.142c.295-.235.824-.5 1.516-.871.626-.337 1.376-.759 1.883-1.264l-1.06-1.062c-.327.327-.882.654-1.533 1.004-.586.315-1.308.675-1.742 1.02zm3.399-2.135c.407-.407.752-.918.713-1.515-.04-.63-.48-1.039-.89-1.287-.419-.254-.964-.44-1.551-.589-.598-.15-1.29-.273-2.033-.38l-.212 1.486c.717.102 1.352.216 1.878.349.536.135.912.278 1.14.417.24.145.177.193.171.1-.004-.06.035.047-.276.357z"/><path fill="#ffc800" d="M15.055 38.5c.5-1 2.5-2.5 7-2.5s7 1.5 7 2.5c0 1.414-1.5 2.5-2.5 3.5h-.174c-.826 2.789-.826 9.03-.826 9.5h-7c0-.64-.184-5.57-.905-9.5h-.095c-1-.833-2.9-2.7-2.5-3.5"/><path fill="#ffc800" d="m15.055 38.5.67.335zm2.5 3.5-.48.576.208.174h.271zm9 0v.75h.31l.22-.22zm-9-.5v-.75a.75.75 0 0 0-.736.897zm1 10h-.75c0 .414.335.75.75.75zm7 0v.75a.75.75 0 0 0 .75-.75zm1-10 .694.284a.75.75 0 0 0-.694-1.034zm-4.5-6.25c-4.609 0-6.981 1.534-7.671 2.915l1.341.67c.31-.62 1.938-2.085 6.33-2.085zm-7.671 2.915c-.26.519-.09 1.066.07 1.414.176.386.453.778.745 1.134.59.72 1.353 1.428 1.875 1.863l.96-1.152c-.477-.398-1.164-1.04-1.674-1.662-.258-.314-.444-.591-.542-.807-.116-.252-.033-.239-.093-.12zm3.17 4.585h.096v-1.5h-.095zm.096 0h8.732v-1.5H17.65zm8.732 0h.172v-1.5h-.172zm.703-.22c.24-.239.5-.476.796-.754.285-.268.588-.562.864-.878.54-.618 1.06-1.417 1.06-2.398h-1.5c0 .433-.23.884-.69 1.412-.225.258-.484.51-.762.772-.267.252-.568.525-.829.786zm2.72-4.03c0-.557-.334-1.024-.703-1.364-.387-.357-.922-.68-1.569-.952-1.298-.547-3.151-.934-5.478-.934v1.5c2.172 0 3.82.363 4.896.816.54.228.912.467 1.134.673.241.222.22.318.22.261zm-12.986 3.147q.048.24.094.488l1.475-.27a32 32 0 0 0-.098-.512zm.094.488c.71 3.873.892 8.754.892 9.365h1.5c0-.668-.186-5.646-.917-9.635zm1.642 10.115h7v-1.5h-7zm7.75-.75c0-.23 0-1.893.102-3.84.104-1.975.309-4.149.694-5.447l-1.438-.426c-.443 1.49-.651 3.832-.754 5.793-.104 1.988-.104 3.681-.104 3.92zm.796-9.287q.073-.246.148-.43l-1.389-.567q-.108.268-.197.57zm-.546-1.463h-9v1.5h9zm22.5-28.25c.5-1 2.5-2.5 7-2.5s7 1.5 7 2.5c0 1.414-1.5 2.5-2.5 3.5h-.173c-.828 2.789-.828 9.03-.828 9.5h-7c0-.64-.183-5.57-.904-9.5h-.096c-1-.833-2.9-2.7-2.5-3.5"/><path fill="#ffc800" d="m49.055 12.5.67.335zm2.5 3.5-.48.576.208.174h.271zm9 0v.75h.31l.22-.22zm-9-.5v-.75a.75.75 0 0 0-.736.897zm1 10h-.75c0 .414.335.75.75.75zm7 0v.75a.75.75 0 0 0 .75-.75zm1-10 .694.284a.75.75 0 0 0-.695-1.034zm-4.5-6.25c-4.609 0-6.981 1.534-7.671 2.915l1.341.67c.31-.62 1.938-2.085 6.33-2.085zm-7.671 2.915c-.26.519-.09 1.066.07 1.414.176.386.453.778.745 1.134.59.72 1.353 1.428 1.875 1.863l.96-1.152c-.477-.398-1.164-1.04-1.675-1.662-.257-.314-.443-.591-.541-.807-.116-.252-.033-.239-.093-.12zm3.17 4.585h.096v-1.5h-.096zm.096 0h8.732v-1.5H51.65zm8.732 0h.172v-1.5h-.172zm.703-.22c.24-.239.5-.476.796-.754.285-.268.588-.562.864-.878.54-.618 1.06-1.417 1.06-2.398h-1.5c0 .433-.23.884-.69 1.412-.225.258-.484.51-.762.772-.267.252-.568.525-.829.786zm2.72-4.03c0-.557-.334-1.024-.703-1.364-.387-.357-.922-.68-1.569-.952-1.298-.547-3.151-.934-5.479-.934v1.5c2.173 0 3.82.363 4.897.816.54.228.912.467 1.134.673.241.222.22.318.22.261zm-12.986 3.147q.048.24.093.488l1.476-.27a32 32 0 0 0-.098-.512zm.093.488c.71 3.873.892 8.754.892 9.365h1.5c0-.668-.185-5.646-.916-9.635zm1.642 10.115h7v-1.5h-7zm7.75-.75c0-.23 0-1.893.103-3.84.104-1.975.309-4.149.694-5.447l-1.438-.426c-.443 1.49-.651 3.832-.754 5.793-.105 1.988-.105 3.681-.105 3.92zm.796-9.287q.074-.246.149-.43l-1.389-.567q-.108.268-.197.57zm-.546-1.463h-9v1.5h9z"/></g><defs><clipPath id="a"><path fill="#fff" d="M0 0h78v62H0z"/></clipPath></defs></svg>