<svg xmlns="http://www.w3.org/2000/svg" xml:space="preserve" id="svg44" width="78" height="62" x="0" y="0" viewBox="0 0 78 62"><style>.st1{fill:#fff}</style><g id="ambassador_00000173131853745160604720000006894276118607360942_"><g id="Group-5-Copy_00000164504509542275684310000001652946317551685545_" transform="translate(6 6)"><path id="path3322_00000062160251816369627330000013059808981669313669_" d="M49.5-3.9h-31c-4.9 0-6.7.6-8.5 1.5-2 1-3.5 2.6-4.5 4.5C4.5 3.9 4 5.7 4 10.6v28.9c0 4.9.6 6.7 1.5 8.5 1 2 2.6 3.5 4.5 4.5 1.8 1 3.6 1.5 8.5 1.5h31c4.9 0 6.7-.6 8.5-1.5 2-1 3.5-2.6 4.5-4.5 1-1.8 1.5-3.6 1.5-8.5V10.7c0-4.9-.6-6.7-1.5-8.5-1-2-2.6-3.5-4.5-4.5-1.8-1-3.6-1.6-8.5-1.6z" style="fill:#ff4b4b;stroke:#fff;stroke-width:4"/></g></g><path d="M51.667 34.667H28.333A2.333 2.333 0 0 1 26 32.333v-4.666a2.333 2.333 0 0 1 2.333-2.334h23.334A2.333 2.333 0 0 1 54 27.667v4.666a2.333 2.333 0 0 1-2.333 2.334" class="st1"/><path d="M42.333 44h-4.666a2.333 2.333 0 0 1-2.334-2.333V18.333A2.333 2.333 0 0 1 37.667 16h4.666a2.333 2.333 0 0 1 2.334 2.333v23.334A2.333 2.333 0 0 1 42.333 44" class="st1"/></svg>