<svg xmlns="http://www.w3.org/2000/svg" width="78" height="62">
<rect x="4" y="4" width="70" height="54" fill="#ff4b4b"/>
<path d="M 58.747589,30.99971 A 19.74923,19.74923 0 0 1 38.99999,50.747309 19.74923,19.74923 0 0 1 19.252391,30.99971 19.74923,19.74923 0 0 1 38.99999,11.252111 19.74923,19.74923 0 0 1 58.747589,30.99971" style="fill:none;stroke:#ffc800;stroke-width:5.99999;stroke-linecap:round;stroke-linejoin:round;stroke-miterlimit:4;stroke-dasharray:none;stroke-opacity:1;stop-color:#000000" />
<path d="m 52.310497,27.772045 c -4.039838,-2.045129 -8.663804,-3.12683 -13.377369,-3.129141 -4.667242,0.023 -9.240999,1.10397 -13.241132,3.129141" style="fill:none;fill-opacity:1;stroke:#ffc800;stroke-width:2.00007;stroke-linecap:round;stroke-linejoin:round;stroke-miterlimit:4;stroke-dasharray:none;stroke-opacity:1;paint-order:normal;stop-color:#000000" />
<path d="m 38.930945,38.533989 1.34504,1.34504 v 1.905684 h -2.69008 v -1.905684 z" style="fill:#ffc800;fill-opacity:1;stroke:#ffc800;stroke-width:1.99998;stroke-linecap:round;stroke-linejoin:round;stroke-miterlimit:4;stroke-dasharray:none;stroke-opacity:1;paint-order:normal;stop-color:#000000" />
<path d="M 38.930945,38.533989 V 20.665212" style="fill:none;stroke:#ffc800;stroke-width:1.99998;stroke-linecap:butt;stroke-linejoin:miter;stroke-miterlimit:4;stroke-dasharray:none;stroke-opacity:1" />
<path d="m 38.930945,19.000052 1.16164,2.037656 -1.16164,1.161799 -1.16164,-1.16164 z" style="fill:#ffc800;fill-opacity:1;stroke:#ffc800;stroke-width:1.99998;stroke-linecap:round;stroke-linejoin:round;stroke-miterlimit:4;stroke-dasharray:none;stroke-opacity:1;stop-color:#000000" />
<path d="m 48.400559,29.8474 -2.768917,3.541459 c -0.356356,0.455793 -1.104276,0.954127 -1.681614,0.963452 l -0.05501,6.29e-4 a 2.6195,2.6195 0 0 0 -2.6195,2.6195 2.6195,2.6195 0 0 0 2.6195,2.6195 h 3.1434 a 0.78585,0.78585 0 0 0 0.78585,-0.78585 0.78585,0.78585 0 0 0 -0.78585,-0.78585 h -1.0478 c 2.314695,0 4.1912,-1.8764 4.1912,-4.1912 V 29.8474 Z" style="fill:#ffc800;fill-opacity:1;stroke-width:0.16274;stroke-linecap:round;stroke-linejoin:round;paint-order:stroke markers fill;stop-color:#000000" />
<path d="m 48.400559,34.87684 v 3.92925 a 0.78585,0.78585 0 0 0 0.78585,0.78585 H 49.6049 a 0.78585,0.78585 0 0 0 0.78585,-0.78585 0.78585,0.78585 0 0 0 -0.78585,-0.78585 h -0.05176 v -3.1434 z" style="fill:#ffc800;fill-opacity:1;stroke-width:0.146378;stroke-linecap:round;stroke-linejoin:round;paint-order:stroke markers fill;stop-color:#000000" />
<path d="m 48.793484,28.7996 a 0.392925,0.392925 0 0 1 0.392925,0.392925 V 29.8474 h -0.78585 V 29.192525 A 0.392925,0.392925 0 0 1 48.793484,28.7996" style="fill:#ffc800;fill-opacity:1;stroke-width:0.21407;stroke-linecap:round;stroke-linejoin:round;paint-order:stroke markers fill;stop-color:#000000" />
<path d="m 51.210731,29.594951 0.744834,0.744834 a 0.78585002,0.78585002 0 0 1 0,1.111359 l -0.926134,0.926133 a 0.52390001,0.52390001 0 0 1 -0.740906,0 l -1.66704,-1.667039 v -1.11136 l 0.0039,-0.0039 a 1.8280967,1.8280967 0 0 1 2.585319,0" style="fill:#ffc800;fill-opacity:1;stroke-width:0.154232;stroke-linecap:round;stroke-linejoin:round;paint-order:stroke markers fill;stop-color:#000000" />
<path d="m 25.751501,29.9524 v 3.6673 c 0,3.298474 2.673985,5.97246 5.97246,5.97246 h 2.431001 c 1.342651,0 2.431105,-1.08835 2.431,-2.431001 a 2.430896,2.430896 0 0 0 -2.430896,-2.431001 v -0.60699 a 0.6087718,0.6087718 0 0 0 -0.608771,-0.608667 h -0.606886 v 1.214819 a 0.6087718,0.6087718 0 0 0 0.608562,0.608562 0.6087718,0.6087718 0 0 0 -0.608562,0.608667 v 1.21482 h 0.60699 a 0.6087718,0.6087718 0 0 0 0.608563,-0.608667 v -0.606886 a 1.215448,1.215448 0 0 1 1.215448,1.215448 c 0,0.671221 -0.544123,1.215448 -1.215448,1.215448 -1.384982,0 -1.961377,-0.745824 -2.430896,-1.215448 -0.469729,-0.469624 -1.46692,-2.213163 -1.46692,-3.541459 a 3.6673,3.6673 0 0 0 -3.6673,-3.6673 z" style="fill:#ffc800;fill-opacity:1;stroke:none;stroke-width:0.143229;stroke-linecap:round;stroke-linejoin:round;stroke-opacity:1;paint-order:stroke markers fill;stop-color:#000000" />
<path d="m 26.594836,35.896811 2.930337,-2.182138 a 2.0956,2.0956 0 0 1 2.93239,0.429149 l -6.291875,4.685379 a 2.0956,2.0956 0 0 1 0.429148,-2.93239" style="fill:#ffc800;fill-opacity:1;stroke:none;stroke-width:0.146378;stroke-linecap:round;stroke-linejoin:round;stroke-opacity:1;paint-order:stroke markers fill;stop-color:#000000" />
<path d="M20.5 27.437V28H4v-6h16.5z" style="fill:#ffc800;fill-opacity:1;stroke-width:.485504;stroke:none" />
<path d="M20.5 39.437V40H4v-6h16.5z" style="fill:#ffc800;fill-opacity:1;stroke-width:.485503;stroke:none" />
<path d="M74 27.437V28H57.5v-6H74Z" style="fill:#ffc800;fill-opacity:1;stroke-width:.485504;stroke:none" />
<path d="M74 39.437V40H57.5v-6H74Z" style="fill:#ffc800;fill-opacity:1;stroke-width:.485503;stroke:none" />
<rect x="2" y="2" width="74" height="58" rx="10" fill="none" stroke="#fff" stroke-width="4"/>
</svg>
