<svg xmlns="http://www.w3.org/2000/svg" xml:space="preserve" width="78" height="62" viewBox="0 0 78 62"><path d="M61.35 2.05h-44.8c-4.9 0-6.7.6-8.5 1.5-2 1-3.5 2.6-4.5 4.5-1 1.8-1.5 3.6-1.5 8.5v28.9c0 4.9.6 6.7 1.5 8.5 1 2 2.6 3.5 4.5 4.5 1.8 1 3.6 1.5 8.5 1.5h44.9c4.9 0 6.7-.6 8.5-1.5 2-1 3.5-2.6 4.5-4.5 1-1.8 1.5-3.6 1.5-8.5v-28.9c0-4.9-.6-6.7-1.5-8.5-1-2-2.6-3.5-4.5-4.5-1.9-.9-3.6-1.5-8.6-1.5z" style="fill:#ff4b4b;stroke:#fff;stroke-width:4"/><path d="M42 28c0-8 4-10 4-10s-6 0-6-4c0 4-6 4-6 4s4 2 4 10m0 0c-8 0-10-4-10-4s0 6-4 6c4 0 4 6 4 6s2-4 10-4m0 0c0 8-4 10-4 10s6 0 6 4c0-4 6-4 6-4s-4-2-4-10m0 0c8 0 10 4 10 4s0-6 4-6c-4 0-4-6-4-6s-2 4-10 4" style="fill:none;stroke:#ffc800;stroke-width:2;stroke-linecap:round;stroke-linejoin:round;stroke-miterlimit:10"/></svg>