<svg xmlns="http://www.w3.org/2000/svg" xml:space="preserve" width="82" height="65.9" viewBox="0 0 82 65.9"><path d="M56.4-3H11.6c-5 0-6.7.6-8.5 1.5-2 1-3.5 2.6-4.5 4.5S-3 6.6-3 11.6v28.9c0 4.9.6 6.7 1.5 8.5 1 2 2.6 3.5 4.5 4.5 1.8 1 3.6 1.5 8.5 1.5h44.9c4.9 0 6.7-.6 8.5-1.5 2-1 3.5-2.6 4.5-4.5 1-1.8 1.5-3.6 1.5-8.5V11.6c0-4.9-.6-6.7-1.5-8.5-1-2-2.6-3.5-4.5-4.5-1.8-1-3.5-1.6-8.5-1.6z" style="fill:#ffc800;stroke:#fff;stroke-width:4" transform="translate(6 6)"/><path d="M-1 40.4V11.6c0-4.4.5-6 1.3-7.5C1.2 2.4 2.4 1.2 4 .3S7.2-1 11.6-1H34v54H11.6c-4.4 0-6-.5-7.5-1.3-1.6-.9-2.9-2.1-3.7-3.7-.9-1.6-1.4-3.2-1.4-7.6" style="fill:#1cb0f6" transform="translate(6 6)"/><path d="M28 20.8c6.6 6.5 17.4 6.5 24 0h0M28 38.4c6.6-6.5 17.4-6.5 24 0h0M40 17.9v22" style="fill:none;stroke:#ff4b4b;stroke-width:3;stroke-linecap:round;stroke-linejoin:round;stroke-miterlimit:10"/><path d="M40 47.9c-9.8 0-18.8-5.5-23.2-14.3l-.8-1.7" style="fill:none;stroke:#ffc800;stroke-width:3;stroke-linecap:round;stroke-linejoin:round;stroke-miterlimit:10"/><path d="m64 31.9-.8 1.7C58.8 42.3 49.8 47.9 40 47.9h1" style="fill:none;stroke:#1cb0f6;stroke-width:3;stroke-linecap:round;stroke-linejoin:bevel;stroke-miterlimit:10"/></svg>