<svg xmlns="http://www.w3.org/2000/svg" width="78" height="62"><rect width="71.044" height="54.994" x="3.478" y="3.503" ry="3.881" style="fill:#ffc800;fill-opacity:1;fill-rule:evenodd;stroke:none;stroke-width:.16088755;stroke-opacity:1"/><path d="M3.122 31.398v12.555h.025c-.007.17-.027.337-.027.508v2.21c0 6.498 5.455 11.727 12.23 11.727h47.698c6.776 0 12.23-5.23 12.23-11.726V44.46c0-.171-.019-.338-.026-.508h.028V31.398Z" style="fill:#1cb0f6;fill-opacity:1;fill-rule:evenodd;stroke-width:.11076645"/><path d="M-88.357-110.424c-2.259 0-4.077 2.35-4.077 3.961 0 4.864.033 8.624 0 14.592s6.635 11.917 12.95 11.98c6.423-.05 12.89-6.765 12.949-11.98.06-5.215 0-9.728 0-14.592 0-1.612-1.818-3.96-4.076-3.96z" style="fill:#1cb0f6;fill-opacity:1;stroke:#ffc800;stroke-width:1.566;stroke-miterlimit:4;stroke-dasharray:none;stroke-opacity:1" transform="translate(118.471 126.158)"/><path d="M-78.509-103.154c-2.708.885-2.143 2.106-2.895 2.959-3.107.9-4.335-1.38-3.861-2.562 4.1 3.525 3.14-3.438-2.343-2.17-1.816 1.505-4.648 7.918.537 4.53-3.625 5.537-.179 6.394 1.524 3.812-.646 7.27 3.28.493 3.162.833 0 0 .407-.003.127 2.65-.575.907-.954.656-2.041.431-.813.076-1.107.954-1.13 1.628.496-.516 1.305-.963 1.865-1.046-.748.62-.318 1.753-.123 2.487.815-.56.185-1.808 1.413-2.033.407.243.268.673.875 1.467.991-1.615-.542-2.312-.492-2.17.208-.87.79.006 1.317-1.661 2.41 3.836-2.646 6.41-2.496 6.835-.06.482 4.08-1.049 1.88.509.412.331 1.26-.002 1.332.135.541 2.863.767 1.902 1.208.007.598.08 1.408.191 1.376-.126-2.457-1.766 1.219-.03 1.822-.633-1.596-2.78-3.554-1.132-2.583-6.679.562 1.948.814.429 1.578 1.741-.95-.137-1.069 1.095-.836 1.836.47-.522.882-1.197 1.378-1.454.446-.053.348 1.691 1.013 2.13.236-.742.693-1.67-.205-2.093.463.097 1.208-.2 1.96.19-1.047-2.117-1.98-.559-3.107-1.57-.61-4.404.45-4.249-.059-2.751 1.679 2.23 4.092 5.327 3.255-.761 5.178 3.04 2.787-.665 1.764-3.853 3.8 3.51 2.332-3.353.56-4.658-5.732-.385-5.662 5.426-2.606 2.593-.303 5.162-6.633 1.52-4.03 1.009 2.147-3.521-.648-4.22-2.67-3.957-.889.932-1.658.726-1.588 1.678.567-.086 1.396-.428 1.499-.313-.042 1.064-1.408 1.027-1.893.659-.175 1.68 2.524.265 3.514.371z" style="fill:#ffc800;fill-opacity:1;stroke:#ffc800;stroke-width:.203646px;stroke-linecap:butt;stroke-linejoin:miter;stroke-opacity:1" transform="translate(118.471 126.158)"/><path d="M61.437 2H16.563c-4.935 0-6.696.585-8.493 1.545A10.9 10.9 0 0 0 3.545 8.07C2.585 9.867 2 11.628 2 16.563v28.874c0 4.935.585 6.696 1.545 8.493a10.9 10.9 0 0 0 4.525 4.525c1.797.96 3.558 1.545 8.493 1.545h44.874c4.935 0 6.696-.585 8.493-1.545a10.9 10.9 0 0 0 4.525-4.525c.96-1.797 1.545-3.558 1.545-8.493V16.563c0-4.935-.585-6.696-1.545-8.493a10.9 10.9 0 0 0-4.525-4.525C68.133 2.585 66.372 2 61.437 2Z" style="fill:none;fill-opacity:1;fill-rule:nonzero;stroke:#fff;stroke-width:4"/></svg>