<svg xmlns="http://www.w3.org/2000/svg" width="557.397" height="443.059" viewBox="0 0 147.478 117.226"><g transform="translate(-262.862 -54.441)">M 61.436962,2 H 16.563038 C 11.628201,2 9.866819,2.5845126 8.070258,3.5453238 6.119529,4.5885853 4.5885853,6.119529 3.5453238,8.070258 2.5845126,9.866819 2,11.628201 2,16.563038 v 28.873924 c 0,4.934837 0.5845126,6.696219 1.5453238,8.49278 1.0432615,1.950729 2.5742052,3.481673 4.5249342,4.524934 C 9.866819,59.415487 11.628201,60 16.563038,60 h 44.873924 c 4.934837,0 6.696219,-0.584513 8.49278,-1.545324 1.950729,-1.043261 3.481673,-2.574205 4.524934,-4.524934 C 75.415487,52.133181 76,50.371799 76,45.436962 V 16.563038 C 76,11.628201 75.415487,9.866819 74.454676,8.070258 73.411415,6.119529 71.880471,4.5885853 69.929742,3.5453238 68.133181,2.5845126 66.371799,2 61.436962,2 Z</g><path d="M116.162 3.781H31.316c-9.33 0-12.66 1.106-16.057 2.922-3.689 1.973-6.583 4.867-8.556 8.556-1.816 3.397-2.922 6.727-2.922 16.057V85.91c0 9.33 1.106 12.66 2.922 16.057 1.973 3.689 4.867 6.583 8.556 8.556 3.397 1.816 6.727 2.922 16.057 2.922h84.846c9.33 0 12.66-1.106 16.057-2.922 3.689-1.973 6.583-4.867 8.556-8.556 1.816-3.397 2.921-6.727 2.921-16.057V31.316c0-9.33-1.105-12.66-2.921-16.057-1.973-3.689-4.867-6.583-8.556-8.556-3.397-1.816-6.727-2.922-16.057-2.922z" style="display:inline;fill:#1cb0f6;fill-opacity:1;fill-rule:nonzero;stroke:#fff;stroke-width:7.56297"/><path d="M47.535 33.29c-6.05 0-5.013 5.41-4.08 5.461 1.349.118 5.775-.615 5.775 1.218l.033 5.353c0 1.584-2.349 2.812-4.086 2.79-4.608-1.09-3.321-2.241-8.494-2.241-4.4 0-3.844-8.31-.682-13.866 6.668-11.718-1.096-11.851-1.096-11.851-12.73-2.846-14.99 6.13-16.061 12.995-1.673 8.552-7.073 28.418 6.403 29.47 5.569 0 4.624 4.059 3.649 3.93-.68.013-.983.44-.983.984 2.41 4.174 4.13 2.948 15.884 2.948l-4.21 4.209a2.7 2.7 0 0 0-.782 2.092l-7.211 1.932-7.177-4.144a1.18 1.18 0 0 0-1.18 2.043l3.789 2.187H22.65a1.18 1.18 0 0 0 0 2.359h4.376l-3.79 2.188a1.18 1.18 0 0 0 1.18 2.042l7.01-4.047 5.111 2.95a1.18 1.18 0 1 0 1.18-2.043l-3.235-1.867 5.538-1.484a3.145 3.145 0 0 0 4.331-.078l4.324-3.892v2.961c-.583 4.785-.654 4.746-6.833 6.402-2.687.72-3.167 4.263 0 4.263 10.725 0 6.861 2.744 8.339 7.044.339.986 2.169 2.015 3.211 2.015 1.043 0 2.569-.994 2.78-2.015.779-3.754-2.331-7.044 7.908-7.044 2.496 0 2.115-3.773 0-4.263-5.768-1.338-6.533-.677-6.834-6.402V75.36l4.324 3.46a3.145 3.145 0 0 0 4.331.078l5.538 1.484-3.234 1.867a1.18 1.18 0 1 0 1.179 2.043l5.11-2.95 7.012 4.047a1.18 1.18 0 0 0 1.179-2.043l-3.79-2.187h4.376a1.18 1.18 0 1 0 0-2.359h-4.375l3.789-2.187a1.18 1.18 0 0 0-1.18-2.043l-7.177 4.144-7.21-1.932a2.7 2.7 0 0 0-.784-2.092l-4.208-4.21c11.411 0 14.457.763 15.451-2.947.147-.523-.44-.983-.983-.983-.826 0-1.904-3.931 4.081-3.931 14.543.01 9.512-21.501 8.866-29.82-1.347-7.634-3.776-14.91-14.832-12.75-7.452 1.457-4.32 7.24-2.535 12.478 1.62 4.753 1.458 13.297-2.935 13.297-5.036.066-5.665 2.462-8.494 2.288-8.924 0 .537-14.937-5-14.872-3.466.4 6.715-8.47-3.172-5.822-10.535-2.822-.242 6.302-4.175 5.872z" style="fill:#ffc800;fill-opacity:1;stroke-width:9.90823;stroke-linejoin:round;stop-color:#000"/></svg>