<?xml version="1.0" encoding="UTF-8" standalone="no"?>
<svg
   viewBox="0 0 512 512"
   version="1.1"
   id="svg3"
   sodipodi:docname="discord.svg"
   width="512"
   height="512"
   inkscape:version="1.3 (1:1.3+202307231459+0e150ed6c4)"
   xmlns:inkscape="http://www.inkscape.org/namespaces/inkscape"
   xmlns:sodipodi="http://sodipodi.sourceforge.net/DTD/sodipodi-0.dtd"
   xmlns="http://www.w3.org/2000/svg"
   xmlns:svg="http://www.w3.org/2000/svg">
  <sodipodi:namedview
     id="namedview3"
     pagecolor="#ffffff"
     bordercolor="#999999"
     borderopacity="1"
     inkscape:showpageshadow="0"
     inkscape:pageopacity="0"
     inkscape:pagecheckerboard="0"
     inkscape:deskcolor="#d1d1d1"
     inkscape:zoom="0.70710678"
     inkscape:cx="200.11122"
     inkscape:cy="331.63308"
     inkscape:window-width="1452"
     inkscape:window-height="991"
     inkscape:window-x="26"
     inkscape:window-y="23"
     inkscape:window-maximized="0"
     inkscape:current-layer="svg3" />
  <defs
     id="defs1">
    <style
       id="style1">.cls-1{fill:none;}</style>
  </defs>
  <title
     id="title1" />
  <circle
     style="fill:#000000;fill-opacity:1;stroke:none;stroke-width:446.843;stroke-linecap:round"
     id="path4"
     cx="256"
     cy="256"
     r="256" />
  <g
     id="g4"
     transform="translate(614.40164,464.3641)">
    <g
       id="Discord"
       transform="matrix(20.181781,0,0,20.181781,-763.44998,-615.64955)">
      <path
         class="cls-1"
         d="m 22.26,14.39 -0.19,0.22 a 9.16,9.16 0 0 1 3.42,1.74 11.22,11.22 0 0 0 -4.13,-1.35 11.59,11.59 0 0 0 -2.77,0 h -0.24 a 10.36,10.36 0 0 0 -3.11,0.86 c -0.51,0.24 -0.81,0.4 -0.81,0.4 A 9.27,9.27 0 0 1 18,14.56 l -0.14,-0.17 a 6.77,6.77 0 0 0 -3.85,1.44 18.34,18.34 0 0 0 -2,8 5,5 0 0 0 4.19,2.08 l 0.91,-1.14 a 4.27,4.27 0 0 1 -2.4,-1.62 c 0,0 0.14,0.1 0.39,0.24 h 0.05 l 0.13,0.07 a 7.31,7.31 0 0 0 1,0.46 11.3,11.3 0 0 0 2,0.59 9.61,9.61 0 0 0 3.56,0 8.85,8.85 0 0 0 2,-0.59 7.92,7.92 0 0 0 1.58,-0.81 A 4.32,4.32 0 0 1 23,24.8 c 0.41,0.52 0.9,1.11 0.9,1.11 a 5,5 0 0 0 4.2,-2.08 18.41,18.41 0 0 0 -2,-8 6.81,6.81 0 0 0 -3.84,-1.44 z m -4.74,8.16 a 1.53,1.53 0 1 1 1.4,-1.55 1.47,1.47 0 0 1 -1.4,1.55 z m 5,0 a 1.53,1.53 0 0 1 0,-3 1.53,1.53 0 0 1 0,3 z"
         id="path1" />
      <path
         d="m 23.89,25.91 c 0,0 -0.49,-0.59 -0.9,-1.11 0.993212,-0.23343 1.871753,-0.810857 2.48,-1.63 -0.494642,0.328368 -1.024638,0.600075 -1.58,0.81 -0.641087,0.274793 -1.312413,0.472834 -2,0.59 -1.17631,0.221717 -2.38369,0.221717 -3.56,0 -0.683426,-0.134604 -1.352943,-0.332112 -2,-0.59 -0.34442,-0.127983 -0.678701,-0.281753 -1,-0.46 L 15.2,23.45 h -0.05 c -0.25,-0.14 -0.39,-0.24 -0.39,-0.24 0.586901,0.803046 1.435736,1.37601 2.4,1.62 l -0.91,1.14 c -1.654878,0.04305 -3.223784,-0.73579 -4.19,-2.08 0.05074,-2.783913 0.734698,-5.519727 2,-8 1.103078,-0.867411 2.448441,-1.370612 3.85,-1.44 l 0.14,0.17 c -1.320024,0.324758 -2.552468,0.935859 -3.61,1.79 0,0 0.3,-0.16 0.81,-0.4 0.985388,-0.447338 2.034779,-0.737523 3.11,-0.86 h 0.24 c 0.920013,-0.110735 1.849987,-0.110735 2.77,0 1.448705,0.164184 2.851523,0.609145 4.13,1.31 -1.004369,-0.81495 -2.16994,-1.40796 -3.42,-1.74 l 0.19,-0.22 c 1.404482,0.06995 2.752869,0.57298 3.86,1.44 1.263,2.481135 1.946819,5.21641 2,8 -1.000375,1.317697 -2.587787,2.055244 -4.24,1.97 z"
         id="path2"
         sodipodi:nodetypes="cccccccccccccccccccccccccccc"
         style="fill:#ffffff;fill-opacity:1" />
      <ellipse
         cx="22.52"
         cy="21.030001"
         rx="1.4"
         ry="1.52"
         id="ellipse2" />
      <path
         d="m 17.52,19.51 a 1.53,1.53 0 1 0 1.4,1.49 1.46,1.46 0 0 0 -1.4,-1.49 z"
         id="path3"
         style="fill:#000000;fill-opacity:1" />
    </g>
  </g>
</svg>
