<?xml version="1.0" encoding="UTF-8" standalone="no"?>
<svg
   x="0"
   y="1518"
   width="78.000008"
   height="62"
   viewBox="0 0 78.000008 62"
   version="1.1"
   id="svg2128"
   xmlns="http://www.w3.org/2000/svg"
>
  <title
     id="title2121">eo</title>
  <path
     d="M 61.436962,2 H 16.563038 C 11.628201,2 9.866819,2.584513 8.070258,3.545324 6.119529,4.588585 4.5885853,6.119529 3.5453238,8.070258 2.5845126,9.866819 2,11.628201 2,16.563038 v 28.87392 c 0,4.93484 0.5845126,6.69622 1.5453238,8.49278 1.0432615,1.95073 2.5742052,3.48168 4.5249342,4.52494 1.796561,0.96081 3.557943,1.54532 8.49278,1.54532 h 44.873924 c 4.934837,0 6.696219,-0.58451 8.49278,-1.54532 1.950729,-1.04326 3.481673,-2.57421 4.524934,-4.52494 C 75.415487,52.133178 76,50.371798 76,45.436958 V 16.563038 C 76,11.628201 75.415487,9.866819 74.454676,8.070258 73.411415,6.119529 71.880471,4.588585 69.929742,3.545324 68.133181,2.584513 66.371799,2 61.436962,2 Z"
     id="path54"
     style="fill:#ff4b4b;fill-rule:nonzero;stroke:none;stroke-width:4" />
  <path
     style="fill:#ffc800;fill-opacity:1;stroke:#cbcbcb;stroke-width:0;stroke-dasharray:none;paint-order:markers stroke fill"
     d="m 4.0000005,6.000001 v 49.999997 a 1.0226226,1.0226226 27.081173 0 0 1.6213584,0.829019 L 38.378642,33.170979 a 1.4992594,1.4992594 91.018664 0 0 0.04265,-2.398862 L 5.578705,5.2278822 A 0.97816767,0.97816767 153.93749 0 0 4.0000005,6.000001 Z"
     id="path1103"/>
  <path
     style="fill:#4c4c4c;fill-opacity:1;stroke:#cbcbcb;stroke-width:0;stroke-dasharray:none;paint-order:markers stroke fill"
     d="m 4.0000006,6 v 49.999998 a 0.78196765,0.78196765 21.354695 0 0 1.3565602,0.530393 L 26.502892,33.621866 a 2.4812121,2.4812121 91.054047 0 0 0.06067,-3.297709 L 5.3015834,5.5185132 A 0.73984818,0.73984818 159.69935 0 0 4.0000006,6 Z"
     id="path1103-5"/>
  <path
     style="fill:none;fill-rule:nonzero;stroke:#ffffff;stroke-width:4;stroke-dasharray:none"
     d="M 61.436966,2 H 16.563038 C 11.628201,2 9.866819,2.584513 8.070258,3.545324 6.119529,4.588586 4.588585,6.119529 3.545324,8.070259 2.584513,9.86682 2,11.628202 2,16.563038 v 28.87392 c 0,4.93484 0.584513,6.69622 1.545324,8.49278 1.043261,1.95073 2.574205,3.48168 4.524934,4.52494 1.796561,0.96081 3.557943,1.54532 8.49278,1.54532 h 44.873928 c 4.93484,0 6.69622,-0.58451 8.49278,-1.54532 1.95073,-1.04326 3.48167,-2.57421 4.52493,-4.52494 0.96081,-1.79656 1.54533,-3.55794 1.54533,-8.49278 v -28.87392 c 0,-4.934836 -0.58452,-6.696218 -1.54533,-8.492779 -1.04326,-1.95073 -2.5742,-3.481673 -4.52493,-4.524935 C 68.133186,2.584513 66.371806,2 61.436966,2 Z"
     id="border"/>
  <path
     d="m 8.513878,32.977648 -1.8401429,-0.68988 c -0.5607607,-0.21023 -0.823416,-0.83229 -0.5866649,-1.3894 0.094277,-0.22184 0.259534,-0.40991 0.4701866,-0.53507 l 1.7359652,-1.03145 c 0.128252,-0.0762 0.212381,-0.20787 0.224963,-0.35207 l 0.17025,-1.95189 c 0.05188,-0.59481 0.585584,-1.05448 1.192059,-1.02669 0.241504,0.0111 0.46946,0.0999 0.64858,0.25275 l 1.47609,1.25966 c 0.109037,0.0931 0.260055,0.12586 0.403784,0.0877 l 1.945367,-0.51645 c 0.592823,-0.15738 1.185329,0.18059 1.323396,0.75487 0.05497,0.22869 0.03061,0.47165 -0.06935,0.69128 l -0.823688,1.80995 c -0.06086,0.13372 -0.05166,0.28566 0.02459,0.40629 l 1.032052,1.63271 c 0.314501,0.49754 0.146988,1.16608 -0.374155,1.49322 -0.207532,0.13026 -0.450538,0.1916 -0.691434,0.17448 l -1.985163,-0.14104 c -0.146662,-0.0104 -0.291984,0.0507 -0.388587,0.16339 l -1.307521,1.52552 c -0.398451,0.46487 -1.094477,0.54009 -1.55463,0.16799 -0.183236,-0.14817 -0.30912,-0.35318 -0.357986,-0.58345 l -0.403204,-1.89711 c -0.02979,-0.14016 -0.128799,-0.25433 -0.264753,-0.3053 z"
     id="Star"
     fill="#7ac70c"
     style="fill:#eeeeee;fill-opacity:1;stroke-width:0.511518" />
</svg>
