<?xml version="1.0" encoding="UTF-8" standalone="no"?>
<!-- Created with Inkscape (http://www.inkscape.org/) -->

<svg
   width="77.638138mm"
   height="61.720306mm"
   viewBox="0 0 77.638138 61.720306"
   version="1.1"
   id="svg5518"
   inkscape:version="1.1.2 (0a00cf5339, 2022-02-04)"
   sodipodi:docname="flagtibet.svg"
   xmlns:inkscape="http://www.inkscape.org/namespaces/inkscape"
   xmlns:sodipodi="http://sodipodi.sourceforge.net/DTD/sodipodi-0.dtd"
   xmlns="http://www.w3.org/2000/svg"
   xmlns:svg="http://www.w3.org/2000/svg">
  <sodipodi:namedview
     id="namedview5520"
     pagecolor="#ffffff"
     bordercolor="#666666"
     borderopacity="1.0"
     inkscape:pageshadow="2"
     inkscape:pageopacity="0.0"
     inkscape:pagecheckerboard="0"
     inkscape:document-units="mm"
     showgrid="false"
     inkscape:zoom="1.4142136"
     inkscape:cx="135.41094"
     inkscape:cy="123.74368"
     inkscape:window-width="1314"
     inkscape:window-height="679"
     inkscape:window-x="26"
     inkscape:window-y="23"
     inkscape:window-maximized="0"
     inkscape:current-layer="layer5"
     fit-margin-top="0"
     fit-margin-left="0"
     fit-margin-right="0"
     fit-margin-bottom="0" />
  <defs
     id="defs5515">
    <linearGradient
       id="linearGradient2708"
       inkscape:swatch="solid">
      <stop
         style="stop-color:#ffffff;stop-opacity:1;"
         offset="0"
         id="stop2706" />
    </linearGradient>
    <path
       d="m 12.563038,0 44.873924,0 c 4.368442,0 5.952545,0.45484549 7.549582,1.3089503 C 66.583581,2.163055 67.836945,3.416419 68.69105,5.013456 69.545154,6.6104931 70,8.1945956 70,12.563038 v 28.873924 c 0,4.368442 -0.454846,5.952545 -1.30895,7.549582 -0.854105,1.597037 -2.107469,2.850401 -3.704506,3.704506 C 63.389507,53.545155 61.805404,54 57.436962,54 H 12.563038 C 8.1945956,54 6.6104931,53.545155 5.013456,52.69105 3.416419,51.836945 2.163055,50.583581 1.3089503,48.986544 0.45484549,47.389507 0,45.805404 0,41.436962 L 0,12.563038 C 0,8.1945956 0.45484549,6.6104931 1.3089503,5.013456 2.163055,3.416419 3.416419,2.163055 5.013456,1.3089503 6.6104931,0.45484549 8.1945956,0 12.563038,0 Z"
       id="path-1" />
    <path
       d="m 12.563038,0 44.873924,0 c 4.368442,0 5.952545,0.45484549 7.549582,1.3089503 C 66.583581,2.163055 67.836945,3.416419 68.69105,5.013456 69.545154,6.6104931 70,8.1945956 70,12.563038 v 28.873924 c 0,4.368442 -0.454846,5.952545 -1.30895,7.549582 -0.854105,1.597037 -2.107469,2.850401 -3.704506,3.704506 C 63.389507,53.545155 61.805404,54 57.436962,54 H 12.563038 C 8.1945956,54 6.6104931,53.545155 5.013456,52.69105 3.416419,51.836945 2.163055,50.583581 1.3089503,48.986544 0.45484549,47.389507 0,45.805404 0,41.436962 L 0,12.563038 C 0,8.1945956 0.45484549,6.6104931 1.3089503,5.013456 2.163055,3.416419 3.416419,2.163055 5.013456,1.3089503 6.6104931,0.45484549 8.1945956,0 12.563038,0 Z"
       id="path-1-1" />
    <filter
       id="filter0_d_191_434"
       x="15.9126"
       y="4.875"
       width="46.174801"
       height="41.450199"
       filterUnits="userSpaceOnUse"
       color-interpolation-filters="sRGB">
      <feFlood
         flood-opacity="0"
         result="BackgroundImageFix"
         id="feFlood987" />
      <feColorMatrix
         in="SourceAlpha"
         type="matrix"
         values="0 0 0 0 0 0 0 0 0 0 0 0 0 0 0 0 0 0 127 0"
         result="hardAlpha"
         id="feColorMatrix989" />
      <feOffset
         id="feOffset991" />
      <feGaussianBlur
         stdDeviation="8"
         id="feGaussianBlur993" />
      <feComposite
         in2="hardAlpha"
         operator="out"
         id="feComposite995" />
      <feColorMatrix
         type="matrix"
         values="0 0 0 0 0 0 0 0 0 0 0 0 0 0 0 0 0 0 0.25 0"
         id="feColorMatrix997" />
      <feBlend
         mode="normal"
         in2="BackgroundImageFix"
         result="effect1_dropShadow_191_434"
         id="feBlend999" />
      <feBlend
         mode="normal"
         in="SourceGraphic"
         in2="effect1_dropShadow_191_434"
         result="shape"
         id="feBlend1001" />
    </filter>
    <filter
       id="filter1_d_191_434"
       x="12.9126"
       y="15.3252"
       width="52.174801"
       height="47.450199"
       filterUnits="userSpaceOnUse"
       color-interpolation-filters="sRGB">
      <feFlood
         flood-opacity="0"
         result="BackgroundImageFix"
         id="feFlood1004" />
      <feColorMatrix
         in="SourceAlpha"
         type="matrix"
         values="0 0 0 0 0 0 0 0 0 0 0 0 0 0 0 0 0 0 127 0"
         result="hardAlpha"
         id="feColorMatrix1006" />
      <feOffset
         dy="4"
         id="feOffset1008" />
      <feGaussianBlur
         stdDeviation="9.5"
         id="feGaussianBlur1010" />
      <feComposite
         in2="hardAlpha"
         operator="out"
         id="feComposite1012" />
      <feColorMatrix
         type="matrix"
         values="0 0 0 0 0 0 0 0 0 0 0 0 0 0 0 0 0 0 0.25 0"
         id="feColorMatrix1014" />
      <feBlend
         mode="normal"
         in2="BackgroundImageFix"
         result="effect1_dropShadow_191_434"
         id="feBlend1016" />
      <feBlend
         mode="normal"
         in="SourceGraphic"
         in2="effect1_dropShadow_191_434"
         result="shape"
         id="feBlend1018" />
    </filter>
    <filter
       id="filter2_d_191_434"
       x="21.9126"
       y="1.75"
       width="36.174801"
       height="29.424801"
       filterUnits="userSpaceOnUse"
       color-interpolation-filters="sRGB">
      <feFlood
         flood-opacity="0"
         result="BackgroundImageFix"
         id="feFlood1021" />
      <feColorMatrix
         in="SourceAlpha"
         type="matrix"
         values="0 0 0 0 0 0 0 0 0 0 0 0 0 0 0 0 0 0 127 0"
         result="hardAlpha"
         id="feColorMatrix1023" />
      <feOffset
         dx="1"
         dy="2"
         id="feOffset1025" />
      <feGaussianBlur
         stdDeviation="5.5"
         id="feGaussianBlur1027" />
      <feComposite
         in2="hardAlpha"
         operator="out"
         id="feComposite1029" />
      <feColorMatrix
         type="matrix"
         values="0 0 0 0 0 0 0 0 0 0 0 0 0 0 0 0 0 0 0.25 0"
         id="feColorMatrix1031" />
      <feBlend
         mode="normal"
         in2="BackgroundImageFix"
         result="effect1_dropShadow_191_434"
         id="feBlend1033" />
      <feBlend
         mode="normal"
         in="SourceGraphic"
         in2="effect1_dropShadow_191_434"
         result="shape"
         id="feBlend1035" />
    </filter>
    <filter
       id="filter3_d_191_434"
       x="-13.1343"
       y="-10.3877"
       width="111.109"
       height="109.627"
       filterUnits="userSpaceOnUse"
       color-interpolation-filters="sRGB">
      <feFlood
         flood-opacity="0"
         result="BackgroundImageFix"
         id="feFlood1038" />
      <feColorMatrix
         in="SourceAlpha"
         type="matrix"
         values="0 0 0 0 0 0 0 0 0 0 0 0 0 0 0 0 0 0 127 0"
         result="hardAlpha"
         id="feColorMatrix1040" />
      <feOffset
         dy="4"
         id="feOffset1042" />
      <feGaussianBlur
         stdDeviation="21"
         id="feGaussianBlur1044" />
      <feComposite
         in2="hardAlpha"
         operator="out"
         id="feComposite1046" />
      <feColorMatrix
         type="matrix"
         values="0 0 0 0 0 0 0 0 0 0 0 0 0 0 0 0 0 0 0.25 0"
         id="feColorMatrix1048" />
      <feBlend
         mode="normal"
         in2="BackgroundImageFix"
         result="effect1_dropShadow_191_434"
         id="feBlend1050" />
      <feBlend
         mode="normal"
         in="SourceGraphic"
         in2="effect1_dropShadow_191_434"
         result="shape"
         id="feBlend1052" />
    </filter>
    <filter
       id="filter4_d_191_434"
       x="0.86572301"
       y="3.6122999"
       width="83.109398"
       height="81.626999"
       filterUnits="userSpaceOnUse"
       color-interpolation-filters="sRGB">
      <feFlood
         flood-opacity="0"
         result="BackgroundImageFix"
         id="feFlood1055" />
      <feColorMatrix
         in="SourceAlpha"
         type="matrix"
         values="0 0 0 0 0 0 0 0 0 0 0 0 0 0 0 0 0 0 127 0"
         result="hardAlpha"
         id="feColorMatrix1057" />
      <feOffset
         dy="4"
         id="feOffset1059" />
      <feGaussianBlur
         stdDeviation="14"
         id="feGaussianBlur1061" />
      <feComposite
         in2="hardAlpha"
         operator="out"
         id="feComposite1063" />
      <feColorMatrix
         type="matrix"
         values="0 0 0 0 0 0 0 0 0 0 0 0 0 0 0 0 0 0 0.25 0"
         id="feColorMatrix1065" />
      <feBlend
         mode="normal"
         in2="BackgroundImageFix"
         result="effect1_dropShadow_191_434"
         id="feBlend1067" />
      <feBlend
         mode="normal"
         in="SourceGraphic"
         in2="effect1_dropShadow_191_434"
         result="shape"
         id="feBlend1069" />
    </filter>
    <clipPath
       id="clip0_191_434">
      <rect
         width="78"
         height="62"
         fill="#ffffff"
         id="rect1072"
         x="0"
         y="0" />
    </clipPath>
  </defs>
  <g
     inkscape:label="Layer 1"
     inkscape:groupmode="layer"
     id="layer1"
     transform="translate(-108.48929,-133.94666)" />
  <g
     inkscape:groupmode="layer"
     id="layer3"
     inkscape:label="Layer 3"
     transform="translate(-108.48929,-133.94666)" />
  <g
     inkscape:groupmode="layer"
     id="layer4"
     inkscape:label="Layer 4"
     transform="translate(-108.48929,-133.94666)" />
  <g
     inkscape:groupmode="layer"
     id="layer2"
     inkscape:label="Layer 2"
     transform="translate(-108.48929,-133.94666)" />
  <g
     inkscape:groupmode="layer"
     id="layer5"
     inkscape:label="Layer 5"
     transform="translate(-108.48929,-133.94666)">
    <path
       d="m 124.98749,193.66696 c -0.27556,0 -0.54036,0 -0.79507,-0.01 v 0 l -0.73186,-0.015 -0.99102,-0.042 c -0.22502,-0.013 -0.44063,-0.028 -0.64759,-0.044 v 0 l -0.55609,-0.051 c -1.30506,-0.1365 -2.26955,-0.36 -3.09883,-0.6516 -3.72088,-1.8238 -5.13549,-3.3578 -6.1391,-5.2343 -0.82236,-1.7907 -1.02755,-2.5093 -1.19272,-3.4069 -0.1827,-1.2504 -0.19748,-1.4157 -0.21542,-1.6106 v 0 l -0.0469,-0.5875 -0.0371,-0.6454 -0.035,-1.0412 -0.0115,-1.1522 v -28.7413 l 0.005,-0.7853 0.027,-1.0749 0.0311,-0.656 c 0.0313,-0.5484 0.0742,-1.0414 0.12764,-1.4899 0.33495,-2.0379 0.57185,-2.7428 0.84336,-3.3898 1.59013,-3.0988 3.11769,-4.545 5.01009,-5.5571 2.70317,-1.0456 3.59376,-1.2453 4.44666,-1.3483 l 0.18963,-0.022 v 0 l 0.0957,-0.01 0.56792,-0.052 0.62496,-0.043 1.00196,-0.043 0.74543,-0.016 h 45.82454 l 0.76476,0.01 1.04289,0.035 0.93971,0.059 0.57324,0.053 c 0.99298,0.1038 1.78675,0.2579 2.47386,0.4532 4.38367,2.0249 5.76727,3.5688 6.76411,5.4327 1.05926,2.5301 1.24765,3.4665 1.38018,4.7321 v 0 l 0.0528,0.5733 0.0581,0.9257 c 0.0109,0.2267 0.0199,0.4629 0.0271,0.7092 v 0 l 0.0154,0.7263 0.005,0.7814 v 28.7313 c 0,0.2755 -0.002,0.5403 -0.005,0.7951 v 0 l -0.0155,0.7318 -0.0422,0.991 c -0.0128,0.2251 -0.0276,0.4407 -0.0442,0.6476 v 0 l -0.0512,0.5561 c -0.13649,1.3051 -0.36001,2.2696 -0.65159,3.0988 -1.82384,3.7209 -3.35781,5.1355 -5.23439,6.1391 -2.53009,1.0593 -3.46652,1.2477 -4.73207,1.3802 v 0 l -0.5733,0.053 -0.92567,0.058 c -0.22677,0.011 -0.46292,0.02 -0.70919,0.027 v 0 l -0.73201,0.015 z"
       id="path7322"
       stroke="#ffffff"
       stroke-width="4"
       fill="#1254a9"
       fill-rule="nonzero"
       style="stroke:#ffffff;stroke-width:4;stroke-miterlimit:4;stroke-dasharray:none;stroke-opacity:1;fill:#4d74a7;fill-opacity:1" />
    <path
       d="m 147.29331,191.68566 v -53.74071 l 22.32657,-0.0331 c 4.35014,-0.006 5.92761,0.45294 7.51794,1.30347 1.59035,0.85053 2.83847,2.09864 3.68899,3.68898 0.85053,1.59034 1.30348,3.16782 1.30348,7.51796 v 28.75296 c 0,4.35014 -0.45295,5.92762 -1.30348,7.51796 -0.85052,1.59035 -2.09864,2.83847 -3.68899,3.68899 -1.59033,0.85052 -3.1678,1.30346 -7.51794,1.30346 z"
       id="path2812"
       fill="#78c800"
       style="fill:#ff4b4b;fill-opacity:1;fill-rule:nonzero;stroke:none;stroke-width:0.995811"
       sodipodi:nodetypes="ccssssssssc" />
    <path
       style="fill:#1254a9;fill-opacity:1;stroke:#1254a9;stroke-width:0.281504px;stroke-linecap:butt;stroke-linejoin:miter;stroke-opacity:1"
       d="m 181.99062,151.70661 -27.62833,12.15851 v 2.5014 L 181.98,160.44204 Z"
       id="path3855"
       sodipodi:nodetypes="ccccc"
       inkscape:transform-center-x="27.753976"
       inkscape:transform-center-y="-9.3075409" />
    <path
       style="fill:#ff4b4b;fill-opacity:1;stroke:#ff4b4b;stroke-width:0.281504px;stroke-linecap:butt;stroke-linejoin:miter;stroke-opacity:1"
       d="m 112.62028,160.97369 27.51384,5.30397 v -2.50135 l -27.51345,-12.06718 z"
       id="path3872"
       sodipodi:nodetypes="ccccc"
       inkscape:transform-center-x="-27.753974"
       inkscape:transform-center-y="9.3075391" />
    <path
       style="fill:#ff4b4b;fill-opacity:1;stroke:#ff4b4b;stroke-width:0.281504px;stroke-linecap:butt;stroke-linejoin:miter;stroke-opacity:1"
       d="m 116.59787,139.9862 21.82871,20.55045 1.495,-2.00545 -10.3966,-20.44982 c -3.82698,-0.0447 -11.02891,-0.39035 -12.92711,1.90482 z"
       id="path3876"
       sodipodi:nodetypes="ccccc"
       inkscape:transform-center-x="-15.206857"
       inkscape:transform-center-y="22.271694" />
    <path
       style="fill:#1254a9;fill-opacity:1;stroke:#1254a9;stroke-width:0.28293px;stroke-linecap:butt;stroke-linejoin:miter;stroke-opacity:1"
       d="m 178.53297,140.31075 -22.56481,20.34982 -1.55038,-1.97426 10.40509,-20.69009 c 4.12642,-0.10461 11.34496,-0.3481 13.7101,2.31453 z"
       id="path4879"
       sodipodi:nodetypes="ccccc"
       inkscape:transform-center-x="0.29697943"
       inkscape:transform-center-y="0.43758871" />
    <circle
       style="fill:#ffc800;fill-opacity:1;stroke:#ffc800;stroke-width:2.43918;stroke-miterlimit:4;stroke-dasharray:none;stroke-opacity:1"
       id="path2809"
       cx="147.30836"
       cy="164.80681"
       r="8.7545805" />
    <path
       style="fill:#ff4b4b;fill-opacity:1;stroke:#ff4b4b;stroke-width:0.289511px;stroke-linecap:butt;stroke-linejoin:miter;stroke-opacity:1"
       d="m 112.63198,170.30635 27.37018,-2.12967 v 2.64567 l -27.33465,10.40251 c -0.0738,-1.77516 -0.0355,-10.91851 -0.0355,-10.91851 z"
       id="path25114"
       sodipodi:nodetypes="cccccc"
       inkscape:transform-center-x="-0.21832224"
       inkscape:transform-center-y="-1.0271527" />
    <path
       style="fill:#1254a9;fill-opacity:1;stroke:#1254a9;stroke-width:0.281504px;stroke-linecap:butt;stroke-linejoin:miter;stroke-opacity:1"
       d="m 181.99062,169.69831 -27.62833,-1.71675 v 2.5014 L 181.98,181.07958 Z"
       id="path27900"
       sodipodi:nodetypes="ccccc"
       inkscape:transform-center-x="27.753976"
       inkscape:transform-center-y="-9.3075409" />
    <path
       d="m 150.90972,165.20456 31.20388,15.97298 c -0.0614,1.02449 -0.14902,3.54238 -1.15396,5.29259 -0.9018,1.57061 -1.96043,2.9445 -3.55747,3.79861 -1.59703,0.8541 -3.0876,1.41903 -7.45604,1.41903 h -44.87392 c -4.36844,0 -5.70307,-0.3435 -7.54958,-1.32549 -1.59903,-0.85038 -2.91425,-2.12943 -3.71036,-3.65189 0,0 -1.4694,-2.15766 -1.46972,-5.48261 l 31.89323,-16.02322 c 3.09608,-1.78752 3.54811,-1.8047 6.67394,0 z"
       id="path2789"
       fill="#ffc800"
       style="fill:#eeeee0;fill-opacity:1;fill-rule:nonzero;stroke:none;stroke-width:1"
       sodipodi:nodetypes="ccssssssccc" />
    <path
       style="opacity:0.98;fill:#ff9600;fill-opacity:1;stroke:#ffc800;stroke-width:3.457;stroke-linejoin:round;stroke-miterlimit:3.3;stroke-dasharray:none;stroke-opacity:1;paint-order:stroke fill markers"
       id="path29417"
       sodipodi:type="arc"
       sodipodi:cx="147.22807"
       sodipodi:cy="184.04106"
       sodipodi:rx="2.5170381"
       sodipodi:ry="2.5170381"
       sodipodi:start="3.1435823"
       sodipodi:end="3.14353"
       sodipodi:open="true"
       sodipodi:arc-type="arc"
       d="m 144.71104,184.03605 a 2.5170381,2.5170381 0 0 1 2.52201,-2.51202 2.5170381,2.5170381 0 0 1 2.51206,2.52197 2.5170381,2.5170381 0 0 1 -2.52195,2.51209 2.5170381,2.5170381 0 0 1 -2.51212,-2.5219" />
    <rect
       style="opacity:0.98;fill:#ff4b4b;fill-opacity:1;stroke:none;stroke-width:3.64045;stroke-linejoin:round;stroke-miterlimit:3.3;stroke-dasharray:none;stroke-opacity:1;paint-order:stroke fill markers"
       id="rect30621"
       width="7.4363155"
       height="6.9966521"
       x="143.50992"
       y="169.50699"
       rx="1.2669486"
       ry="2.9340861" />
    <g
       id="g31434"
       transform="translate(-1.0889115)">
      <path
         d="m 137.9502,175.76375 c -0.27503,-1.15453 -1.59495,-1.58151 -2.65505,-1.04797 l -12.68135,6.38255 c -1.06009,0.53356 -1.50351,1.84807 -0.74012,2.75679 1.0946,1.303 2.53751,2.29005 4.17965,2.83262 2.32868,0.7694 4.86768,0.58228 7.05858,-0.52038 2.19088,-1.1027 3.85384,-3.03044 4.62324,-5.35913 0.54257,-1.64216 0.60946,-3.38909 0.21505,-5.04449 z"
         fill="#1254a9"
         id="path31319"
         style="fill:#78c800;fill-opacity:1;stroke-width:2.22067" />
      <path
         d="m 174.75201,183.94116 c 0.77069,-0.90255 0.33736,-2.22063 -0.71792,-2.76262 l -12.62959,-6.48437 c -1.05577,-0.54206 -2.37911,-0.12568 -2.66341,1.02659 -0.40769,1.65219 -0.35486,3.3996 0.17448,5.04606 0.75065,2.33478 2.39804,4.27582 4.57998,5.39613 2.18196,1.12025 4.71939,1.32779 7.05418,0.57712 1.64647,-0.52934 3.09727,-1.50475 4.20229,-2.79892 z"
         fill="#1254a9"
         id="path31430"
         style="fill:#78c800;fill-opacity:1;stroke-width:2.22067" />
    </g>
    <g
       id="g7091"
       transform="matrix(0.91337223,0,0,0.91337223,12.760999,14.276851)">
      <path
         d="m 124.98749,193.66696 c -0.27556,0 -0.54036,0 -0.79507,-0.01 v 0 l -0.73186,-0.015 -0.99102,-0.042 c -0.22502,-0.013 -0.44063,-0.028 -0.64759,-0.044 v 0 l -0.55609,-0.051 c -1.30506,-0.1365 -2.26955,-0.36 -3.09883,-0.6516 -3.72088,-1.8238 -5.13549,-3.3578 -6.1391,-5.2343 -0.82236,-1.7907 -1.02755,-2.5093 -1.19272,-3.4069 -0.1827,-1.2504 -0.19748,-1.4157 -0.21542,-1.6106 v 0 l -0.0469,-0.5875 -0.0371,-0.6454 -0.035,-1.0412 -0.0115,-1.1522 v -28.7413 l 0.005,-0.7853 0.027,-1.0749 0.0311,-0.656 c 0.0313,-0.5484 0.0742,-1.0414 0.12764,-1.4899 0.33495,-2.0379 0.57185,-2.7428 0.84336,-3.3898 1.59013,-3.0988 3.11769,-4.545 5.01009,-5.5571 2.70317,-1.0456 3.59376,-1.2453 4.44666,-1.3483 l 0.18963,-0.022 v 0 l 0.0957,-0.01 0.56792,-0.052 0.62496,-0.043 1.00196,-0.043 0.74543,-0.016 h 45.82454 l 0.76476,0.01 1.04289,0.035 0.93971,0.059 0.57324,0.053 c 0.99298,0.1038 1.78675,0.2579 2.47386,0.4532 4.38367,2.0249 5.76727,3.5688 6.76411,5.4327 1.05926,2.5301 1.24765,3.4665 1.38018,4.7321 v 0 l 0.0528,0.5733 0.0581,0.9257 c 0.0109,0.2267 0.0199,0.4629 0.0271,0.7092 v 0 l 0.0154,0.7263 0.005,0.7814 v 28.7313 c 0,0.2755 -0.002,0.5403 -0.005,0.7951 v 0 l -0.0155,0.7318 -0.0422,0.991 c -0.0128,0.2251 -0.0276,0.4407 -0.0442,0.6476 v 0 l -0.0512,0.5561 c -0.13649,1.3051 -0.36001,2.2696 -0.65159,3.0988 -1.82384,3.7209 -3.35781,5.1355 -5.23439,6.1391 -2.53009,1.0593 -3.46652,1.2477 -4.73207,1.3802 v 0 l -0.5733,0.053 -0.92567,0.058 c -0.22677,0.011 -0.46292,0.02 -0.70919,0.027 v 0 l -0.73201,0.015 z"
         id="path7046"
         stroke="#ffffff"
         stroke-width="4"
         fill="#1254a9"
         fill-rule="nonzero"
         style="stroke:#ffc800;stroke-width:4;stroke-miterlimit:4;stroke-dasharray:none;stroke-opacity:1" />
      <path
         d="m 147.29331,191.68566 v -53.74071 l 22.32657,-0.0331 c 4.35014,-0.006 5.92761,0.45294 7.51794,1.30347 1.59035,0.85053 2.83847,2.09864 3.68899,3.68898 0.85053,1.59034 1.30348,3.16782 1.30348,7.51796 v 28.75296 c 0,4.35014 -0.45295,5.92762 -1.30348,7.51796 -0.85052,1.59035 -2.09864,2.83847 -3.68899,3.68899 -1.59033,0.85052 -3.1678,1.30346 -7.51794,1.30346 z"
         id="path7048"
         fill="#78c800"
         style="fill:#ff4b4b;fill-opacity:1;fill-rule:nonzero;stroke:none;stroke-width:0.995811"
         sodipodi:nodetypes="ccssssssssc" />
      <path
         style="fill:#1254a9;fill-opacity:1;stroke:#1254a9;stroke-width:0.281504px;stroke-linecap:butt;stroke-linejoin:miter;stroke-opacity:1"
         d="m 181.99062,151.70661 -27.62833,12.15851 v 2.5014 L 181.98,160.44204 Z"
         id="path7050"
         sodipodi:nodetypes="ccccc"
         inkscape:transform-center-x="27.753976"
         inkscape:transform-center-y="-9.3075409" />
      <path
         style="fill:#ff4b4b;fill-opacity:1;stroke:#ff4b4b;stroke-width:0.281504px;stroke-linecap:butt;stroke-linejoin:miter;stroke-opacity:1"
         d="m 112.62028,160.97369 27.51384,5.30397 v -2.50135 l -27.51345,-12.06718 z"
         id="path7052"
         sodipodi:nodetypes="ccccc"
         inkscape:transform-center-x="-27.753974"
         inkscape:transform-center-y="9.3075391" />
      <path
         style="fill:#ff4b4b;fill-opacity:1;stroke:#ff4b4b;stroke-width:0.281504px;stroke-linecap:butt;stroke-linejoin:miter;stroke-opacity:1"
         d="m 116.59787,139.9862 21.82871,20.55045 1.495,-2.00545 -10.3966,-20.44982 c -3.82698,-0.0447 -11.02891,-0.39035 -12.92711,1.90482 z"
         id="path7054"
         sodipodi:nodetypes="ccccc"
         inkscape:transform-center-x="-15.206857"
         inkscape:transform-center-y="22.271694" />
      <path
         style="fill:#1254a9;fill-opacity:1;stroke:#1254a9;stroke-width:0.28293px;stroke-linecap:butt;stroke-linejoin:miter;stroke-opacity:1"
         d="m 178.53297,140.31075 -22.56481,20.34982 -1.55038,-1.97426 10.40509,-20.69009 c 4.12642,-0.10461 11.34496,-0.3481 13.7101,2.31453 z"
         id="path7056"
         sodipodi:nodetypes="ccccc"
         inkscape:transform-center-x="0.29697943"
         inkscape:transform-center-y="0.43758871" />
      <circle
         style="fill:#ffc800;fill-opacity:1;stroke:#ffc800;stroke-width:2.43918;stroke-miterlimit:4;stroke-dasharray:none;stroke-opacity:1"
         id="circle7058"
         cx="147.30836"
         cy="164.80681"
         r="8.7545805" />
      <path
         style="fill:#ff4b4b;fill-opacity:1;stroke:#ff4b4b;stroke-width:0.289511px;stroke-linecap:butt;stroke-linejoin:miter;stroke-opacity:1"
         d="m 112.63198,170.30635 27.37018,-2.12967 v 2.64567 l -27.33465,10.40251 c -0.0738,-1.77516 -0.0355,-10.91851 -0.0355,-10.91851 z"
         id="path7060"
         sodipodi:nodetypes="cccccc"
         inkscape:transform-center-x="-0.21832224"
         inkscape:transform-center-y="-1.0271527" />
      <path
         style="fill:#1254a9;fill-opacity:1;stroke:#1254a9;stroke-width:0.281504px;stroke-linecap:butt;stroke-linejoin:miter;stroke-opacity:1"
         d="m 181.99062,169.69831 -27.62833,-1.71675 v 2.5014 L 181.98,181.07958 Z"
         id="path7062"
         sodipodi:nodetypes="ccccc"
         inkscape:transform-center-x="27.753976"
         inkscape:transform-center-y="-9.3075409" />
      <path
         d="m 150.90972,165.20456 31.20388,15.97298 c -0.0614,1.02449 -0.14902,3.54238 -1.15396,5.29259 -0.9018,1.57061 -1.96043,2.9445 -3.55747,3.79861 -1.59703,0.8541 -3.0876,1.41903 -7.45604,1.41903 h -44.87392 c -4.36844,0 -5.70307,-0.3435 -7.54958,-1.32549 -1.59903,-0.85038 -2.91425,-2.12943 -3.71036,-3.65189 0,0 -1.4694,-2.15766 -1.46972,-5.48261 l 31.89323,-16.02322 c 3.09608,-1.78752 3.54811,-1.8047 6.67394,0 z"
         id="path7064"
         fill="#ffc800"
         style="fill:#eeeee0;fill-opacity:1;fill-rule:nonzero;stroke:none;stroke-width:1"
         sodipodi:nodetypes="ccssssssccc" />
      <path
         style="opacity:0.98;fill:#ff9600;fill-opacity:1;stroke:#ffc800;stroke-width:3.457;stroke-linejoin:round;stroke-miterlimit:3.3;stroke-dasharray:none;stroke-opacity:1;paint-order:stroke fill markers"
         id="path7066"
         sodipodi:type="arc"
         sodipodi:cx="147.22807"
         sodipodi:cy="184.04106"
         sodipodi:rx="2.5170381"
         sodipodi:ry="2.5170381"
         sodipodi:start="3.1435823"
         sodipodi:end="3.14353"
         sodipodi:open="true"
         sodipodi:arc-type="arc"
         d="m 144.71104,184.03605 a 2.5170381,2.5170381 0 0 1 2.52201,-2.51202 2.5170381,2.5170381 0 0 1 2.51206,2.52197 2.5170381,2.5170381 0 0 1 -2.52195,2.51209 2.5170381,2.5170381 0 0 1 -2.51212,-2.5219" />
      <rect
         style="opacity:0.98;fill:#ff4b4b;fill-opacity:1;stroke:none;stroke-width:3.64045;stroke-linejoin:round;stroke-miterlimit:3.3;stroke-dasharray:none;stroke-opacity:1;paint-order:stroke fill markers"
         id="rect7068"
         width="7.4363155"
         height="6.9966521"
         x="143.50992"
         y="169.50699"
         rx="1.2669486"
         ry="2.9340861" />
      <g
         id="g7074"
         transform="translate(-1.0889115)">
        <path
           d="m 137.9502,175.76375 c -0.27503,-1.15453 -1.59495,-1.58151 -2.65505,-1.04797 l -12.68135,6.38255 c -1.06009,0.53356 -1.50351,1.84807 -0.74012,2.75679 1.0946,1.303 2.53751,2.29005 4.17965,2.83262 2.32868,0.7694 4.86768,0.58228 7.05858,-0.52038 2.19088,-1.1027 3.85384,-3.03044 4.62324,-5.35913 0.54257,-1.64216 0.60946,-3.38909 0.21505,-5.04449 z"
           fill="#1254a9"
           id="path7070"
           style="fill:#78c800;fill-opacity:1;stroke-width:2.22067" />
        <path
           d="m 174.75201,183.94116 c 0.77069,-0.90255 0.33736,-2.22063 -0.71792,-2.76262 l -12.62959,-6.48437 c -1.05577,-0.54206 -2.37911,-0.12568 -2.66341,1.02659 -0.40769,1.65219 -0.35486,3.3996 0.17448,5.04606 0.75065,2.33478 2.39804,4.27582 4.57998,5.39613 2.18196,1.12025 4.71939,1.32779 7.05418,0.57712 1.64647,-0.52934 3.09727,-1.50475 4.20229,-2.79892 z"
           fill="#1254a9"
           id="path7072"
           style="fill:#78c800;fill-opacity:1;stroke-width:2.22067" />
      </g>
    </g>
  </g>
</svg>
