<?xml version="1.0" encoding="UTF-8" standalone="no"?>
<svg height="62" width="78" version="1.1" id="svg2227" xml:space="preserve" xmlns="http://www.w3.org/2000/svg"><defs id="defs21"/>
    <g id="palette"><ellipse ry="20" rx="19.849623" cy="-10" cx="-80.150375" id="white" style="display:inline;opacity:1;fill:#ffffff;fill-opacity:1;fill-rule:nonzero;stroke:none;stroke-width:6.00702;stroke-linecap:round;stroke-linejoin:round;stroke-miterlimit:4;stroke-dasharray:none;stroke-dashoffset:0;stroke-opacity:1"/>
        <ellipse ry="20" rx="19.849623" cy="-60" cx="-80.150375" id="gray"
                 style="opacity:1;fill:#eeeeee;fill-opacity:1;fill-rule:nonzero;stroke:none;stroke-width:6.00702;stroke-linecap:round;stroke-linejoin:round;stroke-miterlimit:4;stroke-dasharray:none;stroke-dashoffset:0;stroke-opacity:1"/>
        <ellipse ry="20" rx="19.849623" cy="-110" cx="-80.150375" id="black"
                 style="display:inline;opacity:1;fill:#4c4c4c;fill-opacity:1;fill-rule:nonzero;stroke:none;stroke-width:6.00702;stroke-linecap:round;stroke-linejoin:round;stroke-miterlimit:4;stroke-dasharray:none;stroke-dashoffset:0;stroke-opacity:1"/>
        <ellipse ry="20" rx="19.849623" cy="-60" cx="-30.150375" id="lightblue"
                 style="display:inline;opacity:1;fill:#1cb0f6;fill-opacity:1;fill-rule:nonzero;stroke:none;stroke-width:6.00702;stroke-linecap:round;stroke-linejoin:round;stroke-miterlimit:4;stroke-dasharray:none;stroke-dashoffset:0;stroke-opacity:1"/>
        <ellipse ry="20" rx="19.849623" cy="-110" cx="-30.150375" id="darkblue"
                 style="display:inline;opacity:1;fill:#1254a9;fill-opacity:1;fill-rule:nonzero;stroke:none;stroke-width:6.00702;stroke-linecap:round;stroke-linejoin:round;stroke-miterlimit:4;stroke-dasharray:none;stroke-dashoffset:0;stroke-opacity:1"/>
        <ellipse ry="20" rx="19.849623" cy="-60" cx="19.849623" id="red"
                 style="display:inline;opacity:1;fill:#ff4b4b;fill-opacity:1;fill-rule:nonzero;stroke:none;stroke-width:6.00702;stroke-linecap:round;stroke-linejoin:round;stroke-miterlimit:4;stroke-dasharray:none;stroke-dashoffset:0;stroke-opacity:1"/>
        <ellipse ry="20" rx="19.849623" cy="-60" cx="69.849625" id="yellow"
                 style="display:inline;opacity:1;fill:#ffc800;fill-opacity:1;fill-rule:nonzero;stroke:none;stroke-width:6.00702;stroke-linecap:round;stroke-linejoin:round;stroke-miterlimit:4;stroke-dasharray:none;stroke-dashoffset:0;stroke-opacity:1"/>
        <ellipse ry="20" rx="19.849623" cy="-110" cx="69.849625" id="orange"
                 style="display:inline;opacity:1;fill:#ff9600;fill-opacity:1;fill-rule:nonzero;stroke:none;stroke-width:6.00702;stroke-linecap:round;stroke-linejoin:round;stroke-miterlimit:4;stroke-dasharray:none;stroke-dashoffset:0;stroke-opacity:1"/>
        <ellipse ry="20" rx="19.849623" cy="-160" cx="69.849625" id="brown"
                 style="display:inline;opacity:1;fill:#ffce8e;fill-opacity:1;fill-rule:nonzero;stroke:none;stroke-width:6.00702;stroke-linecap:round;stroke-linejoin:round;stroke-miterlimit:4;stroke-dasharray:none;stroke-dashoffset:0;stroke-opacity:1"/>
        <ellipse ry="20" rx="19.849623" cy="-60" cx="119.84962" id="green"
                 style="display:inline;opacity:1;fill:#78c800;fill-opacity:1;fill-rule:nonzero;stroke:none;stroke-width:6.00702;stroke-linecap:round;stroke-linejoin:round;stroke-miterlimit:4;stroke-dasharray:none;stroke-dashoffset:0;stroke-opacity:1"/></g>
    <g id="de-6"><path d="M 61.436962,2 H 16.563038 C 11.628201,2 9.866819,2.5845126 8.070258,3.5453238 6.119529,4.5885853 4.5885853,6.119529 3.5453238,8.070258 2.5845126,9.866819 2,11.628201 2,16.563038 v 28.873924 c 0,4.934837 0.5845126,6.696219 1.5453238,8.49278 1.0432615,1.950729 2.5742052,3.481673 4.5249342,4.524934 C 9.866819,59.415487 11.628201,60 16.563038,60 h 44.873924 c 4.934837,0 6.696219,-0.584513 8.49278,-1.545324 1.950729,-1.043261 3.481673,-2.574205 4.524934,-4.524934 C 75.415487,52.133181 76,50.371799 76,45.436962 V 16.563038 C 76,11.628201 75.415487,9.866819 74.454676,8.070258 73.411415,6.119529 71.880471,4.5885853 69.929742,3.5453238 68.133181,2.5845126 66.371799,2 61.436962,2 Z" id="path54-6" style="fill:#ffc800;fill-opacity:1;fill-rule:nonzero;stroke:none;stroke-width:4"/>
        <g id="g244" transform="matrix(0.10819165,0,0,0.135,4,4)"><path fill="#91008c" d="m 165.06209,200.03785 c 5.50349,-44.94391 31.99044,-83.85649 69.97901,-107.79088 42.98472,-27.082171 133.93093,-27.082072 176.91593,-3.07e-4 38.01329,23.949447 64.51056,62.896127 69.99122,107.876147 1.16293,9.54413 1.16282,25.21037 -0.002,34.75419 -0.58634,4.80226 -1.41251,9.53563 -2.46648,14.18939 -2.24501,9.91275 2.98511,18.55198 13.05575,19.97344 C 545.0236,276.44851 604.78067,290.91022 647,307.696 V 0 H 0 v 307.696 c 41.255459,-16.40344 99.257018,-30.58694 150.85892,-38.13811 12.05387,-1.7639 18.28636,-12.11947 15.90262,-24.0545 -0.69368,-3.47316 -1.26094,-6.98842 -1.69693,-10.54143 -1.17676,-9.58995 -1.17687,-25.33384 -0.003,-34.92411 z" id="path231" style="fill:#9069cd;fill-opacity:1"/>
            <path d="m 353.06464,163.375 -57.28064,0 a 5.777273,5.777273 146.41659 0 0 -5.32456,3.53541 l -0.98707,2.34435 a 3.2560129,3.2560129 54.129662 0 0 3.26051,4.50914 l 61.75736,-4.94052 a 1.9535239,1.9535239 121.94557 0 0 1.66137,-2.66438 l -0.36874,-0.93444 a 2.9222108,2.9222108 34.232501 0 0 -2.71823,-1.84956 z m -78.9363,20.39941 -1.44857,3.44023 a 3.804635,3.804635 53.736663 0 0 3.86194,5.26446 l 90.92943,-8.53305 a 3.156048,3.156048 120.42622 0 0 2.59308,-4.41517 l -1.51994,-3.44837 a 5.9333182,5.9333182 30.819858 0 0 -5.90246,-3.52135 l -82.08755,6.56683 a 7.6327688,7.6327688 144.13031 0 0 -6.42593,4.64642 z M 256.2743,200.0579 a 7.5666926,7.5666926 54.855397 0 0 7.6004,10.7964 l 116.87835,-11.32774 a 3.2909563,3.2909563 120.17937 0 0 2.6865,-4.6197 l -1.43027,-3.19657 a 6.9466784,6.9466784 30.266718 0 0 -6.98993,-4.07915 l -116.6011,10.94211 a 2.6610016,2.6610016 145.29793 0 0 -2.14395,1.48465 z m -21.69116,21.43599 -4.47822,10.47237 a 2.2006649,2.2006649 53.720991 0 0 2.2424,3.05501 l 165.139,-16.514 a 4.022548,4.022548 119.16544 0 0 3.21646,-5.76333 l -2.5581,-5.25454 a 8.0293576,8.0293576 29.252939 0 0 -7.99384,-4.4773 L 239.947,217.56936 a 6.5174808,6.5174808 143.80849 0 0 -5.36386,3.92453 z m -23.09213,23.44048 -3.21262,6.97697 a 3.9683429,3.9683429 54.615841 0 0 3.98441,5.60989 l 203.65069,-19.58254 a 5.4896298,5.4896298 121.80968 0 0 4.6034,-7.42172 l -1.51789,-3.97743 a 7.7995441,7.7995441 31.700721 0 0 -8.06301,-4.97995 l -193.84933,19.38445 a 6.9181971,6.9181971 144.50688 0 0 -5.59565,3.99033 z m -25.49403,23.90061 -3.12385,6.78327 a 5.1832036,5.1832036 54.934327 0 0 5.14695,7.3327 l 246.2744,-20.93348 a 6.549703,6.549703 121.39473 0 0 5.50286,-9.017 l -1.68278,-4.09244 a 12.209334,12.209334 31.077849 0 0 -12.46055,-7.51012 L 193.15179,263.7536 a 8.8048496,8.8048496 144.61745 0 0 -7.15481,5.08138 z M 647,392.481 l 0,-67.37886 c 0,-0.16134 -0.1229,-0.3369 -0.27456,-0.39197 -46.652,-16.94029 -116.70911,-31.11924 -165.4739,-36.2565 -6.62787,-0.69823 -13.88318,-6.18544 -16.18702,-12.43932 A 16.904699,16.904699 32.482161 0 0 447.91247,265.0948 C 296.12638,276.14416 169.045,288.08558 163.343,288.711 114.602,294.064 45.89,308.104 0,324.813 V 335.3 A 64.7,64.7 45 0 0 64.7,400 H 639.481 A 7.519,7.519 135 0 0 647,392.481 Z"
                  id="path233" style="fill:#4c4c4c;fill-opacity:1"/></g>
        <path style="fill:none;fill-rule:nonzero;stroke:#ffffff;stroke-width:4"
              d="M 61.436966,2 H 16.563038 C 11.628201,2 9.866819,2.584513 8.070258,3.545324 6.119529,4.588586 4.588585,6.119529 3.545324,8.070259 2.584513,9.86682 2,11.628202 2,16.563039 v 28.873923 c 0,4.934837 0.584513,6.696219 1.545324,8.49278 1.043261,1.950729 2.574205,3.481673 4.524934,4.524934 C 9.866819,59.415487 11.628201,60 16.563038,60 h 44.873928 c 4.93484,0 6.69622,-0.584513 8.49278,-1.545324 1.95073,-1.043261 3.48167,-2.574205 4.52493,-4.524934 0.96081,-1.796561 1.54533,-3.557943 1.54533,-8.49278 V 16.563039 c 0,-4.934837 -0.58452,-6.696219 -1.54533,-8.49278 -1.04326,-1.95073 -2.5742,-3.481673 -4.52493,-4.524935 C 68.133186,2.584513 66.371806,2 61.436966,2 Z"
              id="border-6"/></g>
</svg>