<?xml version="1.0" encoding="UTF-8" standalone="no"?>
<svg
   height="62"
   width="78"
   version="1.1"
   id="svg5"
   xmlns="http://www.w3.org/2000/svg">
  <style
     type="text/css"
     id="style1">.st0{fill:#1254A9;stroke:#FFFFFF;stroke-width:4;}.st1{fill:#FFF430;}&#10;	.st2{fill:#FFFFFF;stroke:#FFFFFF;}&#10;	.st3{fill:#EEEEEE;}&#10;	.st4{opacity:0.98;fill:#4B4B4B;enable-background:new    ;}&#10;	.st5{opacity:0.98;fill:#78C800;enable-background:new    ;}&#10;	.st6{fill:#CD7900;}</style>
  <path
     class="st0"
     d="m61.3 2.1h-44.8c-4.9 0-6.7 0.6-8.5 1.5-2 1-3.5 2.6-4.5 4.5-1 1.8-1.5 3.6-1.5 8.5v28.9c0 4.9 0.6 6.7 1.5 8.5 1 2 2.6 3.5 4.5 4.5 1.8 1 3.6 1.5 8.5 1.5h44.9c4.9 0 6.7-0.6 8.5-1.5 2-1 3.5-2.6 4.5-4.5 1-1.8 1.5-3.6 1.5-8.5v-28.9c0-4.9-0.6-6.7-1.5-8.5-1-2-2.6-3.5-4.5-4.5-1.9-0.9-3.6-1.5-8.6-1.5z"
     id="path1"
     style="stroke:none" />
  <path
     class="st1"
     d="m16.427 3.4266 22.492 0.24161-0.019127 27.432h-35v-14.4c0-11.383 3.4236-13.371 12.527-13.273z"
     id="path2" />
  <path
     id="path3085_1_"
     class="st1"
     d="m61.3 58.1h-22.4v-27h35v14.4c0 10.953-0.88132 12.6-12.6 12.6z" />
  <path
     id="path13255_2_"
     class="st2"
     d="m34.896 20.75v-1.7c0-0.6-0.5-1.1-1.1-1.1-0.6 0.1-1 0.6-0.9 1.1v3.1c0 0.6 0.5 1.1 1.1 1.1h9.9c0.6 0 1.1-0.5 1.1-1.1v-3.1c0-0.6-0.5-1.1-1.1-1.1-0.6 0.1-1 0.6-0.9 1.1v1.7h-3v-1.7c0-0.6-0.5-1.1-1.1-1.1-0.6 0.1-1 0.6-0.9 1.1v1.7h-3.1z" />
  <path
     id="rect6254_1_"
     class="st3"
     d="m31.826 34.903v-8.1052c0-0.73684 0.60329-1.3437 1.3359-1.3437h11.506c0.73257 0 1.3359 0.60681 1.3359 1.3437v8.1052"
     stroke-width=".14406" />
  <path
     class="st4"
     d="m38.517 31.307h0.53168c0.20449 0 0.36809 0.1636 0.36809 0.36809v3.8445c0 0.20449-0.1636 0.36809-0.36809 0.36809h-0.53168c-0.20449 0-0.36809-0.1636-0.36809-0.36809v-3.8445c0-0.20449 0.1636-0.36809 0.36809-0.36809z"
     stroke-width=".40899"
     id="path3" />
  <path
     class="st5"
     d="m39.113 26.367c-0.44374 0.001688-0.93794 0.20658-1.4004 0.56836-0.89174-0.13936-1.6596 0.070678-1.9863 0.63086-0.24227 0.39804-0.20128 0.91263 0.06836 1.4316-0.91316 0.29816-1.5371 0.87703-1.5371 1.541-0.035859 1.003 1.3254 1.7559 2.9375 1.7559 0.72902 0 1.3983-0.16171 1.9141-0.42773 0.21598 0.022199 0.43733 0.033203 0.66406 0.033203 2.1136 0 3.834-1.0391 3.834-2.293 0-1.1495-1.4151-2.1182-3.2793-2.2715-0.10232-0.3546-0.29915-0.63902-0.58984-0.80859-0.18808-0.10971-0.3998-0.16101-0.625-0.16016z"
     stroke-width=".35824"
     id="path4" />
  <path
     id="rect6254-4_1_"
     class="st6"
     d="m45.996 34.85v2.3c0 3.9-3.2 7.1-7.1 7.1s-7.1-3.2-7.1-7.1v-2.3" />
  <path
     class="st0"
     d="m61.3 2h-44.8c-4.9 0-6.7 0.6-8.5 1.5-2 1-3.5 2.6-4.5 4.5-1 1.8-1.5 3.6-1.5 8.5v28.9c0 4.9 0.6 6.7 1.5 8.5 1 2 2.6 3.5 4.5 4.5 1.8 1 3.6 1.5 8.5 1.5h44.9c4.9 0 6.7-0.6 8.5-1.5 2-1 3.5-2.6 4.5-4.5 1-1.8 1.5-3.6 1.5-8.5v-28.9c0-4.9-0.6-6.7-1.5-8.5-1-2-2.6-3.5-4.5-4.5-1.9-0.9-3.6-1.5-8.6-1.5z"
     fill="none"
     stroke="#fff"
     stroke-width="4"
     id="path5"
     style="fill:none" />
</svg>
