<?xml version="1.0" encoding="UTF-8" standalone="no"?>
<!-- Generator: Adobe Illustrator 24.0.0, SVG Export Plug-In . SVG Version: 6.00 Build 0)  -->

<svg
        version="1.1"
        id="svg44"
        x="0px"
        y="0px"
        viewBox="0 0 78 62"
        xml:space="preserve"
        sodipodi:docname="flag_alga.svg"
        width="78"
        height="62"
        inkscape:version="1.3 (1:1.3+202307231459+0e150ed6c4)"
        xmlns:inkscape="http://www.inkscape.org/namespaces/inkscape"
        xmlns:sodipodi="http://sodipodi.sourceforge.net/DTD/sodipodi-0.dtd"
        xmlns="http://www.w3.org/2000/svg"
        xmlns:svg="http://www.w3.org/2000/svg"><defs
   id="defs1">&#10;	&#10;</defs>
    <sodipodi:namedview
            id="namedview1"
            pagecolor="#ffffff"
            bordercolor="#999999"
            borderopacity="1"
            inkscape:showpageshadow="0"
            inkscape:pageopacity="0"
            inkscape:pagecheckerboard="0"
            inkscape:deskcolor="#d1d1d1"
            inkscape:zoom="5.4120865"
            inkscape:cx="26.145184"
            inkscape:cy="43.606103"
            inkscape:window-width="1850"
            inkscape:window-height="1016"
            inkscape:window-x="0"
            inkscape:window-y="0"
            inkscape:window-maximized="1"
            inkscape:current-layer="svg44"/>&#10;<style
            type="text/css"
            id="style1">&#10;	.st0{fill:#EEEEEE;stroke:#FFFFFF;stroke-width:4;}&#10;	.st1{fill:#FF9600;stroke:#FF9600;}&#10;	.st2{fill:#FFC300;}&#10;	.st3{fill:#FF4B4B;}&#10;</style>&#10;<g
            id="g3089"
            transform="translate(6,6)">&#10;		<path
            id="path3083"
            class="st0"
            d="M 55.299999,-3.9000001 H 10.5 c -4.9000001,0 -6.7,0.6000001 -8.5,1.5 -2,1 -3.5,2.5999999 -4.5,4.5 C -3.5,3.9000001 -4,5.6999998 -4,10.6 v 28.9 c 0,4.900002 0.5999999,6.700001 1.5,8.5 1,2 2.5999999,3.5 4.5,4.5 1.8,1 3.5999999,1.5 8.5,1.5 h 44.900002 c 4.900001,0 6.7,-0.599998 8.5,-1.5 2,-1 3.5,-2.599998 4.5,-4.5 1,-1.799999 1.5,-3.599998 1.5,-8.5 V 10.6 c 0,-4.8999997 -0.599999,-6.6999994 -1.5,-8.4999996 -1,-2 -2.599999,-3.5 -4.5,-4.5 C 62,-3.3 60.299999,-3.9000001 55.299999,-3.9000001 Z"/>&#10;	</g>&#10;<path
            id="path13255_2_"
            class="st1"
            d="m 34.957638,20.576065 v -1.700001 c 0,-0.6 -0.5,-1.1 -1.099999,-1.1 -0.599998,0.1 -1,0.6 -0.900001,1.1 v 3.100001 c 0,0.6 0.5,1.1 1.099998,1.1 h 9.899998 c 0.599998,0 1.099998,-0.5 1.099998,-1.1 v -3.100001 c 0,-0.6 -0.5,-1.1 -1.099998,-1.1 -0.599999,0.1 -1,0.6 -0.900002,1.1 v 1.700001 h -3 v -1.700001 c 0,-0.6 -0.5,-1.1 -1.099998,-1.1 -0.599999,0.1 -1,0.6 -0.900002,1.1 v 1.700001 z"/>&#10;<g
            id="g29514"
            transform="matrix(0.14364096,0,0,0.14447881,-21.898448,-15.939728)">&#10;	<path
            id="rect6254_1_"
            class="st2"
            d="m 374.62106,351.01065 v -56.09711 c 0,-5.14196 4.16837,-9.31033 9.31034,-9.31033 h 40.0314 l -9e-5,65.40744"/>&#10;
        <path
                id="rect6254-4_2_"
                class="st3"
                d="m 423.96301,416.41806 h -3.9e-4 c -27.25061,0 -49.34156,-22.09094 -49.34156,-49.34149 v -16.06592 h 49.34165"/>&#10;</g>&#10;<g
            id="g29514_1_"
            transform="matrix(0.14364096,0,0,0.14447881,-21.898448,-15.939728)">&#10;	<path
            id="rect6254_2_"
            class="st3"
            d="m 423.96271,351.01065 9e-5,-65.40744 h 40.0314 c 5.14197,0 9.31037,4.16837 9.31037,9.31033 v 56.09711"/>&#10;
        <path
                id="rect6254-4_3_"
                class="st2"
                d="m 423.96271,351.01065 h 49.34186 l 9e-5,16.06592 c 0,27.25055 -22.09095,49.34149 -49.34156,49.34149 h -3.9e-4"/>&#10;</g>&#10;</svg>
