<?xml version="1.0" encoding="utf-8"?>
<!-- Generator: Adobe Illustrator 24.0.0, SVG Export Plug-In . SVG Version: 6.00 Build 0)  -->
<svg version="1.1" id="Layer_1" xmlns="http://www.w3.org/2000/svg" xmlns:xlink="http://www.w3.org/1999/xlink" x="0px" y="0px"
	 viewBox="0 0 100 70" style="enable-background:new 0 0 100 70;" xml:space="preserve">
<style type="text/css">
	.st0{fill-rule:evenodd;clip-rule:evenodd;fill:#EEEEEE;stroke:#FFFFFF;stroke-width:4;}
	.st1{fill-rule:evenodd;clip-rule:evenodd;fill:#FF4B4B;}
	.st2{fill-rule:evenodd;clip-rule:evenodd;fill:#1CB0F6;}
	.st3{fill:#FFC800;}
</style>
<g>
	<g id="en_2_">
		<g id="Group_2_" transform="translate(6.000000, 6.000000)">
			<path id="Rectangle-3_2_" class="st0" d="M65.5-2.4H20.6c-4.9,0-6.7,0.6-8.5,1.5c-2,1-3.5,2.6-4.5,4.5c-1,1.8-1.5,3.6-1.5,8.5V41
				c0,4.9,0.6,6.7,1.5,8.5c1,2,2.6,3.5,4.5,4.5c1.8,1,3.6,1.5,8.5,1.5h44.9c4.9,0,6.7-0.6,8.5-1.5c2-1,3.5-2.6,4.5-4.5
				c1-1.8,1.5-3.6,1.5-8.5V12.1c0-4.9-0.6-6.7-1.5-8.5c-1-2-2.6-3.5-4.5-4.5C72.1-1.8,70.4-2.4,65.5-2.4z"/>
			<path id="Path_2_" class="st1" d="M20.6-0.4h44.9c4.4,0,6,0.5,7.5,1.3c1.6,0.9,2.9,2.1,3.7,3.7c0.2,0.3,0.3,0.6,0.5,1H8.9
				c0.1-0.3,0.3-0.7,0.5-1c0.9-1.6,2.1-2.9,3.7-3.7C14.6,0.1,16.2-0.4,20.6-0.4z"/>
			<path id="path2739_2_" class="st1" d="M78,11.6c0,0.2,0,0.4,0,0.6v5.4H8v-5.4c0-0.2,0-0.4,0-0.6H78z"/>
			<polygon id="polygon2741_2_" class="st1" points="78,23.6 78,29.6 8,29.6 8,23.6 			"/>
			<path id="path2743_2_" class="st1" d="M78,41.1c0,0.2,0,0.4,0,0.6H8c0-0.2,0-0.4,0-0.6v-5.5h70V41.1z"/>
			<path id="path2745_2_" class="st1" d="M77.2,47.6c-0.1,0.3-0.3,0.7-0.5,1c-0.9,1.6-2.1,2.9-3.7,3.7c-1.6,0.9-3.2,1.3-7.5,1.3
				H20.6c-4.4,0-6-0.5-7.5-1.3c-1.6-0.9-2.9-2.1-3.7-3.7c-0.2-0.3-0.3-0.6-0.5-1H77.2z"/>
			<path id="path2747_2_" class="st2" d="M20.6-0.4H43v24H8V12.2c0-4.4,0.5-6,1.3-7.5C10.2,3.1,11.4,1.8,13,1
				C14.6,0.1,16.2-0.4,20.6-0.4z"/>
		</g>
	</g>
	<g id="tr_2_">
		<g id="g2909_2_" transform="translate(6.000000, 6.000000)">
			<path id="path2906_2_" class="st3" d="M27.5,4.1c-0.6-0.1-1.1-0.2-1.6-0.2c-4.5,0-8.2,3.5-8.2,7.7c0,4.3,3.7,7.7,8.2,7.7
				c0.5,0,1-0.1,1.6-0.2l0,0c0.4-0.1,0.7,0.1,0.8,0.5c0.1,0.3,0,0.5-0.3,0.7c-1.6,1.1-3.7,1.6-6.2,1.6c-6,0-10.9-4.6-10.9-10.3
				S15.8,1.3,21.8,1.3c2.5,0,4.6,0.5,6.2,1.6l0,0c0.3,0.2,0.4,0.6,0.2,0.9C28.1,4.1,27.8,4.2,27.5,4.1z"/>
		</g>
	</g>
	<path class="st3" d="M33.7,12.4c0.1-0.2,0.3-0.3,0.5-0.4c0.2-0.1,0.3-0.1,0.5-0.1s0.4,0.1,0.6,0.2c0.2,0.1,0.4,0.2,0.6,0.4
		c0.2,0.1,0.3,0.2,0.5,0.4c0.1,0.1,0.2,0.2,0.3,0.2c0.1,0.1,0.3,0.2,0.4,0.4c0.1,0.1,0.1,0.1,0.2,0.2c0.1,0.1,0.3,0.3,0.4,0.4l0,0
		l0,0c0-0.1,0-0.2,0-0.3s0-0.3,0-0.4c0-0.1,0-0.2,0-0.3c0-0.2,0-0.3,0.1-0.4c0-0.1,0-0.2,0-0.2c0-0.1,0-0.2,0-0.3s0-0.2,0-0.2
		c0-0.1,0-0.3,0.1-0.4c0-0.1,0.1-0.2,0.1-0.4c0.1-0.2,0.1-0.3,0.2-0.5c0.2-0.2,0.4-0.4,0.7-0.4c0.1,0,0.3,0,0.4,0
		c0.2,0,0.4,0.2,0.6,0.4c0.1,0.2,0.2,0.3,0.3,0.6c0,0.2,0.1,0.3,0.1,0.5s0,0.3,0.1,0.5c0,0.1,0,0.3,0,0.4c0,0.1,0,0.2,0,0.4
		c0,0.1,0,0.2,0,0.3c0,0.2,0,0.3,0,0.5s0,0.3,0,0.5l0,0l0,0c0.1-0.1,0.1-0.1,0.2-0.2c0.1-0.1,0.1-0.1,0.2-0.2
		c0.1-0.1,0.2-0.2,0.3-0.3s0.2-0.2,0.3-0.3s0.2-0.2,0.4-0.3c0.1-0.1,0.3-0.2,0.4-0.3c0.1-0.1,0.3-0.2,0.4-0.3
		c0.1-0.1,0.3-0.2,0.4-0.2c0.1,0,0.2,0,0.3-0.1c0.2,0,0.4,0,0.5,0.1c0.2,0.1,0.3,0.2,0.4,0.3c0.1,0.1,0.1,0.2,0.2,0.3
		c0.1,0.1,0.1,0.3,0,0.5c0,0.2-0.1,0.4-0.2,0.6c-0.1,0.2-0.3,0.4-0.4,0.6c-0.1,0.2-0.3,0.3-0.4,0.5c-0.1,0.2-0.3,0.3-0.4,0.5
		c-0.1,0.1-0.2,0.2-0.3,0.4c-0.1,0.1-0.2,0.2-0.3,0.4l0,0l0,0c0.1,0,0.3,0,0.4,0c0.1,0,0.3,0,0.4,0c0.1,0,0.2,0,0.4,0
		c0.1,0,0.3,0,0.4,0c0.2,0,0.3,0,0.5,0.1c0.1,0,0.3,0,0.4,0.1c0.1,0,0.3,0.1,0.4,0.1c0.1,0,0.3,0.1,0.4,0.1c0.3,0.1,0.5,0.3,0.6,0.6
		c0,0.1,0.1,0.2,0.1,0.3s0,0.3,0,0.4c0,0.1-0.1,0.2-0.2,0.3c-0.1,0.2-0.3,0.3-0.5,0.4c-0.1,0.1-0.3,0.1-0.4,0.1
		c-0.2,0-0.4,0.1-0.6,0.1c-0.1,0-0.2,0-0.3,0c-0.2,0-0.3,0-0.5,0.1c-0.1,0-0.1,0-0.2,0c-0.2,0-0.3,0-0.5,0c-0.1,0-0.2,0-0.3,0
		c-0.2,0-0.4,0-0.5,0l0,0l0,0c0.1,0.1,0.2,0.3,0.3,0.4c0.1,0.1,0.2,0.2,0.3,0.3s0.2,0.3,0.4,0.4c0.1,0.1,0.2,0.3,0.3,0.4
		c0.1,0.2,0.3,0.4,0.4,0.6c0.1,0.2,0.2,0.3,0.2,0.5c0,0.1,0,0.2,0.1,0.3c0,0.2,0,0.4-0.1,0.5c-0.1,0.2-0.2,0.3-0.3,0.4
		c-0.1,0.1-0.2,0.1-0.3,0.2c-0.2,0.1-0.3,0.1-0.5,0c-0.3,0-0.5-0.1-0.7-0.3c-0.2-0.1-0.3-0.2-0.5-0.3c-0.1-0.1-0.3-0.2-0.4-0.3
		c-0.2-0.1-0.3-0.3-0.5-0.4c-0.1-0.1-0.2-0.2-0.3-0.3c-0.2-0.1-0.3-0.3-0.5-0.4l0,0v0.1c0,0.2,0,0.3,0,0.5c0,0.1,0,0.2,0,0.4
		c0,0.1,0,0.2,0,0.4c0,0.1,0,0.2,0,0.2c0,0.1,0,0.2,0,0.3s0,0.2,0,0.3s0,0.1,0,0.2c0,0.1,0,0.2-0.1,0.4c0,0.2-0.1,0.4-0.2,0.6
		c-0.2,0.3-0.4,0.5-0.7,0.6c-0.1,0-0.2,0.1-0.4,0c-0.2,0-0.4-0.1-0.6-0.2c-0.2-0.2-0.4-0.5-0.5-0.8c0-0.1-0.1-0.3-0.1-0.4
		c0-0.1,0-0.2,0-0.3s0-0.2-0.1-0.4v-0.1c0-0.1,0-0.3,0-0.4v-0.1c0-0.1,0-0.3,0-0.4c0-0.1,0-0.3,0-0.4c0-0.1,0-0.1,0-0.2
		c0-0.1,0-0.1,0-0.2l0,0l0,0l-0.1,0.1c-0.1,0.1-0.2,0.2-0.3,0.3s-0.3,0.2-0.4,0.3c-0.1,0.1-0.2,0.2-0.4,0.3
		c-0.1,0.1-0.3,0.2-0.4,0.3c-0.1,0.1-0.3,0.2-0.4,0.3c-0.1,0.1-0.2,0.1-0.3,0.2c-0.1,0.1-0.2,0.1-0.3,0.2c-0.1,0-0.2,0-0.3,0.1
		c-0.1,0-0.1,0-0.2,0c-0.2,0-0.4-0.1-0.6-0.2c-0.2-0.1-0.3-0.2-0.4-0.4c-0.1-0.2-0.1-0.4-0.1-0.6c0-0.3,0.1-0.5,0.3-0.7
		c0.1-0.2,0.2-0.4,0.4-0.5c0.1-0.2,0.2-0.3,0.4-0.4c0.1-0.2,0.3-0.3,0.4-0.5c0.1-0.1,0.2-0.2,0.3-0.4c0.1-0.1,0.2-0.2,0.3-0.4
		c0,0,0,0,0.1-0.1l0,0l0,0c-0.1,0-0.2,0-0.4,0c-0.1,0-0.3,0-0.4,0c-0.1,0-0.1,0-0.2,0c-0.1,0-0.3,0-0.4,0c-0.1,0-0.2,0-0.2,0
		c-0.1,0-0.2,0-0.3,0s-0.2,0-0.3,0s-0.1,0-0.2,0c-0.1,0-0.2,0-0.4-0.1c-0.2,0-0.4-0.1-0.6-0.2c-0.3-0.2-0.5-0.4-0.6-0.7
		c0-0.1-0.1-0.2,0-0.4c0-0.2,0.1-0.4,0.2-0.6c0.2-0.2,0.4-0.4,0.7-0.4c0.1,0,0.3-0.1,0.4-0.1c0.1,0,0.3,0,0.4-0.1
		c0.2,0,0.3,0,0.5-0.1c0.1,0,0.2,0,0.3,0s0.3,0,0.4,0c0.1,0,0.2,0,0.3,0c0.2,0,0.3,0,0.5,0c0.1,0,0.1,0,0.2,0l0,0l0,0
		c-0.1-0.1-0.2-0.2-0.3-0.3s-0.2-0.2-0.3-0.4c-0.1-0.1-0.2-0.2-0.3-0.4c-0.1-0.1-0.1-0.2-0.2-0.3c-0.1-0.1-0.2-0.3-0.3-0.4
		c-0.1-0.1-0.1-0.2-0.2-0.3c-0.1-0.2-0.2-0.3-0.3-0.5c-0.1-0.1-0.1-0.3-0.1-0.4c0-0.1,0-0.2,0-0.3C33.5,12.7,33.6,12.6,33.7,12.4z"
		/>
</g>
</svg>
