<?xml version="1.0" encoding="UTF-8" standalone="no"?>
<svg
   height="62"
   width="78"
   version="1.1"
   id="svg2227"
   xmlns="http://www.w3.org/2000/svg">
  <g
     id="ml"
     transform="translate(-2,-2)">
    <path
       d="M 63.436962,4 H 18.563038 C 13.628201,4 11.866819,4.5845126 10.070258,5.5453238 8.119529,6.5885853 6.588585,8.119529 5.545324,10.070258 4.584513,11.866819 4,13.628201 4,18.563038 v 28.873924 c 0,4.934837 0.584513,6.696219 1.545324,8.49278 1.043261,1.950729 2.574205,3.481673 4.524934,4.524934 C 11.866819,61.415487 13.628201,62 18.563038,62 h 44.873924 c 4.934837,0 6.696219,-0.584513 8.49278,-1.545324 1.950729,-1.043261 3.481673,-2.574205 4.524934,-4.524934 C 77.415487,54.133181 78,52.371799 78,47.436962 V 18.563038 C 78,13.628201 77.415487,11.866819 76.454676,10.070258 75.411415,8.119529 73.880471,6.5885853 71.929742,5.5453238 70.133181,4.5845126 68.371799,4 63.436962,4 Z"
       id="path1846"
       style="fill:#ff4b4b;fill-opacity:1;fill-rule:nonzero;stroke:#ffffff;stroke-width:4" />
    <g
       id="g887"
       transform="matrix(0.23282261,0,0,0.23282261,36.365615,27.919597)"
       style="display:inline;fill:#eeeeee;fill-opacity:1;fill-rule:nonzero;stroke:#ff4b4b;stroke-width:1;stroke-opacity:1">
      <rect
         style="fill:#eeeeee;fill-opacity:1;stroke:none;stroke-width:6;stroke-linecap:round;stroke-linejoin:round;stroke-miterlimit:4;stroke-dasharray:none;stroke-opacity:1;paint-order:stroke fill markers;stop-color:#000000"
         id="rect9573-4-7"
         width="59.131901"
         height="12.131903"
         x="-9.5659189"
         y="32.275848"
         ry="6.0659523"
         transform="rotate(90)" />
      <rect
         style="fill:#eeeeee;fill-opacity:1;stroke:none;stroke-width:6.00028;stroke-linecap:round;stroke-linejoin:round;stroke-miterlimit:4;stroke-dasharray:none;stroke-opacity:1;paint-order:stroke fill markers;stop-color:#000000"
         id="rect11566"
         width="59.131901"
         height="12.131903"
         x="-8.1373529"
         y="-84.218201"
         ry="6.0659523"
         transform="rotate(90)" />
      <path
         id="path1191"
         style="color:#000000;display:none;fill:#eeeeee;fill-opacity:1;fill-rule:evenodd;stroke:#ff4b4b;stroke-width:6;stroke-linecap:round;stroke-linejoin:round;stroke-miterlimit:4;stroke-dasharray:none;stroke-opacity:1;paint-order:stroke markers fill"
         d="M 19.1091,-32.685225 C 10.15628,-32.886202 1.07634,-30.661554 -7.13309,-25.620772 -28.04016,-12.78333 -36.19852,15.40504 -22.71121,36.82454 -11.10813,55.25167 14.03522,62.39804 32.98801,50.06282 48.92725,39.68892 55.06247,16.625353 43.83957,0.14670349 34.68617,-13.293247 15.673257,-17.136307 1.3592684,-7.4167704 -9.0904339,-0.32117627 -13.090692,16.90777 -3.8120418,28.37337 -0.41755184,32.56793 3.93728,35.24465 9.19113,36.05306 14.44499,36.86147 20.58592,35.46916 24.99777,31.1097 27.94702,28.19547 29.773843,24.330279 29.82004,20.4222 29.87391,15.864977 28.171423,10.520752 24.492945,7.8300309 21.708479,5.7932587 17.461714,5.7870807 14.187542,6.8740442 11.984304,7.6054776 10.046342,9.4573718 9.0144283,11.536892 7.8091163,13.965847 7.38494,17.41494 8.33176,19.6429 8.04101,19.40262 7.68101,19.20091 7.46652,18.93587 4.14615,14.83289 6.4797882,7.7533815 10.869461,5.0979597 16.654517,1.598436 25.007859,2.4314306 29.656082,9.006195 c 5.88023,8.317399 3.424303,21.154801 -5.798807,27.157581 -11.5222,7.49909 -25.9773556,1.675179 -32.1667532,-8.282472 C -16.465526,14.759661 -11.295884,-3.2410041 -0.54707795,-10.176152 15.88097,-20.775557 37.087527,-16.661588 47.225226,-0.37258872 49.503434,3.287978 50.950725,7.3165377 51.877355,10.702448 c 1.58486,8.35561 1.308616,16.424858 -1.985424,24.263178 -3.890887,7.393374 -7.358951,12.475385 -12.936163,16.977569 -4.80862,4.49657 -8.905994,10.92032 -11.973464,16.74549 -3.4211,6.49673 -5.931124,13.590925 -6.091954,21.378045 -0.058,2.80593 -5.48e-4,4.043713 -0.0547,6.33789 -0.01696,0.718404 -0.08391,1.547546 -0.5664,2.08008 -0.497903,0.54954 -1.341149,0.714979 -2.078611,0.792778 -1.325939,0.13988 -2.704591,0.140815 -4.058109,0.175972 -4.9184465,0.127753 -9.84029,0.11535 -14.75977,0.12695 -4.1421365,0.0097 -7.492131,3.37544 -7.48241,7.51758 0.0097,4.14214 3.3754397,7.49214 7.51758,7.48242 4.98254,-0.012 9.9648,-0.055 14.94531,-0.12695 2.10095,-0.031 4.73634,-0.0269 7.77344,-0.71875 3.11099,-0.7087 6.56297,-2.15982 9.33008,-5.25782 3.05165,-3.4166 3.9882,-7.35463 4.30664,-10.61523 0.30994,-3.1737 0.0858,-5.6815 0.12304,-7.48437 0.10289,-4.98141 1.652951,-10.136767 3.881291,-14.682071 C 39.942995,71.258168 43.27131,67.23454 46.77707,63.9222 54.54218,57.78289 60.67922,49.71839 64.51535,40.59017 69.02663,29.85539 69.608462,19.896205 68.423215,9.528085 67.726876,3.436757 64.64263,-3.45519 62.06802,-7.7321 55.03044,-19.42279 43.70148,-27.560664 31.14615,-30.943038 27.22261,-32.000029 23.17857,-32.593872 19.1091,-32.685225 Z" />
      <rect
         style="display:inline;fill:#eeeeee;fill-opacity:1;stroke:none;stroke-width:6.14067;stroke-linejoin:round;stroke-miterlimit:4;stroke-dasharray:none;stroke-opacity:1;paint-order:stroke markers fill;stop-color:#000000"
         id="rect1064-8-6"
         width="75.035965"
         height="8.8593311"
         x="-19.331879"
         y="-38.849274"
         ry="4.4296656" />
      <rect
         style="display:inline;fill:#eeeeee;fill-opacity:1;stroke:none;stroke-width:6.13812;stroke-linejoin:round;stroke-miterlimit:4;stroke-dasharray:none;stroke-opacity:1;paint-order:stroke markers fill;stop-color:#000000"
         id="rect1064-8-6-2"
         width="46.105782"
         height="8.8618813"
         x="-4.3826909"
         y="-50.850548"
         ry="4.4309406" />
      <rect
         style="display:inline;fill:#eeeeee;fill-opacity:1;stroke:none;stroke-width:5.57449;stroke-linejoin:round;stroke-miterlimit:4;stroke-dasharray:none;stroke-opacity:1;paint-order:stroke markers fill;stop-color:#000000"
         id="rect11732"
         width="19.425508"
         height="19.42551"
         x="8.9574432"
         y="-73.132362"
         ry="9.7127552" />
      <path
         style="display:inline;fill:#eeeeee;fill-opacity:1;fill-rule:nonzero;stroke:none;stroke-width:6.00028;stroke-linecap:round;stroke-linejoin:round;stroke-miterlimit:4;stroke-dasharray:none;stroke-opacity:1;paint-order:stroke fill markers;stop-color:#000000"
         d="m 23.386917,65.357212 c 1.259333,-2.247663 2.676623,-4.535446 4.224996,-6.76498 1.126598,-1.622211 0.507062,-2.888553 -1.468178,-2.888553 H -9.170702 c -3.163988,0 -5.712839,2.54885 -5.712839,5.712839 0,3.163988 2.548851,5.712838 5.712839,5.712838 h 29.574675 c 1.114463,0 2.438216,-0.79991 2.982944,-1.772144 z"
         id="path30275" />
      <path
         style="display:inline;fill:#eeeeee;fill-opacity:1;fill-rule:nonzero;stroke:none;stroke-width:1.3591;stroke-linecap:round;stroke-linejoin:round;stroke-miterlimit:4;stroke-dasharray:none;stroke-opacity:1;paint-order:stroke markers fill;stop-color:#000000"
         d="m 36.494141,47.705078 c -0.752424,0 -1.359375,0.604999 -1.359375,1.357422 0,0.752423 0.606951,1.359375 1.359375,1.359375 h 1.27539 c 0.644944,-0.0068 1.281944,-0.0269 1.905459,-0.05332 0.2108,-0.0089 0.38602,-0.187983 0.394307,-0.39881 0.02365,-0.601671 0.06602,-1.255066 0.121956,-1.865456 0.02022,-0.220612 -0.140389,-0.399206 -0.361938,-0.399206 z"
         transform="matrix(4.2951155,0,0,4.2951155,-156.19452,-119.91789)"
         id="path42871" />
      <path
         style="display:inline;fill:#eeeeee;fill-opacity:1;fill-rule:nonzero;stroke:none;stroke-width:1.3591;stroke-linecap:round;stroke-linejoin:round;stroke-miterlimit:4;stroke-dasharray:none;stroke-opacity:1;paint-order:stroke markers fill;stop-color:#000000"
         d="m 35.365234,44.324219 c -0.752136,0 -1.357421,0.607239 -1.357422,1.359375 0,0.752136 0.605286,1.357422 1.357422,1.357422 h 4.485572 c 0.270088,0 0.531779,-0.214885 0.598206,-0.476652 0.139112,-0.548194 0.32421,-1.092216 0.560305,-1.653483 0.137603,-0.327122 -0.02552,-0.586662 -0.3804,-0.586662 z"
         transform="matrix(4.2951155,0,0,4.2951155,-156.19452,-119.91789)"
         id="rect9573-4-1" />
      <path
         style="color:#000000;fill:#eeeeee;fill-opacity:1;fill-rule:nonzero;stroke:none;stroke-width:6.00028;stroke-linecap:round;stroke-linejoin:round;-inkscape-stroke:none;paint-order:stroke markers fill"
         d="m -5.1073195,114.01103 c -1.5468042,-0.57054 -3.3919944,-2.26827 -4.1291909,-3.79921 -0.9432116,-1.95878 -0.8833116,-4.58498 0.1475802,-6.47035 0.855892,-1.56533 1.7653182,-2.44289 3.4606476,-3.33936 1.0630926,-0.562155 1.5075855,-0.590816 11.7086094,-0.755053 6.5447082,-0.105359 10.8757732,-0.28133 11.3147002,-0.459663 1.414025,-0.574553 1.570449,-1.139872 1.572845,-5.684354 0.0047,-9.122447 1.378518,-15.008765 5.383644,-23.069061 3.518327,-7.080631 8.220387,-13.934059 12.080433,-17.607692 5.937044,-5.650337 7.301138,-7.249696 10.348742,-12.133629 3.322611,-5.324637 4.666115,-8.670365 5.636308,-14.036119 0.558125,-3.086771 0.54938,-9.770396 -0.01761,-13.502843 C 51.304642,5.948262 47.590565,-1.4050186 42.469671,-6.5054296 36.109382,-12.840283 28.246984,-16.029784 18.991315,-16.029784 c -4.373733,0 -7.560013,0.663415 -11.3768632,1.875849 -7.67305629,2.437366 -13.780586,7.4366531 -16.8362901,14.18049982 C -14.982507,12.740201 -12.497856,26.733125 -2.4399626,34.339585 2.1081352,37.779165 7.093158,39.619511 12.522996,39.594831 18.362489,39.568201 23.017518,37.658683 27.028864,33.644159 30.7657,29.904355 32.59776,25.71325 32.842551,20.344476 33.090981,14.895898 31.424133,10.495153 28.041145,7.1297839 25.23823,4.3414679 22.276563,3.0388711 18.283845,3.0329782 12.897414,3.025247 8.9535701,5.379752 6.9150138,9.6926922 6.1499764,11.311268 5.9498455,12.203806 5.9480673,14.036025 c 0.064942,2.368803 0.3061988,3.670159 1.5526757,5.033338 0.7928697,0.86712 1.109643,0.815011 0.7906792,-0.335577 -0.3773259,-1.361075 -0.429168,-4.2553 0.2497609,-6.069961 1.5709689,-4.1987971 5.0213289,-6.5423452 10.0889089,-6.5312767 2.161568,0.00472 3.312122,0.3783567 4.56356,0.9587127 1.969551,0.9133735 2.82034,1.8483815 4.059412,3.765472 1.672647,2.587906 2.534797,5.446529 2.560632,8.950832 0.02577,3.479799 -0.842903,5.92561 -2.443543,8.368912 C 21.593966,36.993554 9.2883056,38.822011 0.60295497,32.558564 -3.3852488,29.682473 -6.8685273,24.603216 -8.2769558,19.337786 -9.1567157,16.04878 -9.1503547,10.461492 -8.198527,6.8383302 c 0.8668746,-3.2997139 2.9127798,-7.51771486 4.806522,-9.8415828 5.4004163,-6.6270153 15.96378,-10.7350054 25.049406,-9.7662764 11.087604,1.182187 19.935512,7.1958473 24.591439,17.0788222 1.984485,4.2123959 3.491241,9.3043108 3.282692,15.8232058 -0.147967,4.625109 -1.121717,8.885425 -2.402967,12.085853 -2.887142,7.620712 -7.924462,14.082172 -15.113102,18.455605 -2.025439,1.232238 -5.712938,2.01596 -8.085066,2.01596 H 11.914386 l -11.84823886,0.0016 C -2.3059807,52.691789 -6.0110547,51.950925 -8.0715505,50.778186 -11.63169,48.751914 -14.728679,46.275213 -16.926928,44.003492 -22.84497,38.122199 -26.467285,31.253296 -28.39419,22.64073 c -0.505342,-2.258694 -0.874194,-3.042853 -0.874228,-8.134949 -3e-5,-5.1349433 0.41508,-6.8776864 0.945291,-9.3284535 1.612897,-10.6575861 8.605676,-22.4555125 19.7596612,-29.8891165 1.9731976,-1.315044 5.6051172,-2.20826 7.97724502,-2.20826 H 18.318275 37.22277 c 2.372128,0 6.041806,0.817841 8.065347,2.053821 11.465519,7.003169 18.67356,18.6550395 22.020151,29.1131003 0.384155,1.3145502 0.713341,3.6752616 0.916122,5.225532 1.797484,13.7417707 -0.551738,26.0981737 -7.155267,37.6351717 -3.288079,5.744683 -5.696154,9.149143 -14.74068,17.75941 -5.814431,5.535262 -8.556961,11.845989 -10.453533,19.443155 -0.575499,2.305305 -0.708024,3.652541 -0.89969,9.146208 -0.251393,7.206131 0.560821,13.371981 -3.631691,17.692911 -3.05674,3.15037 -8.379832,2.92224 -12.814083,3.03572 -3.892546,0.0996 -5.541422,0.0829 -12.0464564,0.1429 -8.9310442,0.0824 -10.6340532,0.0357 -11.5903091,-0.31689 z"
         id="path42721" />
    </g>
  </g>
</svg>
