<?xml version="1.0" encoding="UTF-8" standalone="no"?>
<svg
   height="70"
   width="0.85416669in"
   version="1.1"
   id="svg2227"
   sodipodi:docname="flag_shet.svg"
   inkscape:version="1.1.2 (0a00cf5339, 2022-02-04)"
   xmlns:inkscape="http://www.inkscape.org/namespaces/inkscape"
   xmlns:sodipodi="http://sodipodi.sourceforge.net/DTD/sodipodi-0.dtd"
   xmlns="http://www.w3.org/2000/svg"
   xmlns:svg="http://www.w3.org/2000/svg">
  <sodipodi:namedview
     id="namedview12"
     pagecolor="#505050"
     bordercolor="#eeeeee"
     borderopacity="1"
     inkscape:pageshadow="0"
     inkscape:pageopacity="0"
     inkscape:pagecheckerboard="0"
     inkscape:document-units="in"
     showgrid="false"
     inkscape:zoom="11.171429"
     inkscape:cx="40.997442"
     inkscape:cy="42.116368"
     inkscape:window-width="1846"
     inkscape:window-height="1016"
     inkscape:window-x="0"
     inkscape:window-y="0"
     inkscape:window-maximized="1"
     inkscape:current-layer="g273" />
  <metadata
     id="metadata2233" />
  <defs
     id="defs2231" />
  <svg
     x="0"
     y="0"
     width="82"
     height="66"
     viewBox="0 0 82 66"
     version="1.1"
     id="svg1855">
    <title
       id="title1844">cs</title>
  </svg>
  <g
     id="no-copy"
     style="opacity:1;fill:none;fill-rule:evenodd;stroke:none;stroke-width:1">
    <g
       id="g273"
       transform="translate(6,6)"
       style="">
      <path
         d="M 57.436962,-2 H 12.563038 C 7.6282012,-2 5.8668192,-1.4154874 4.0702583,-0.45467615 2.119529,0.58858529 0.58858529,2.119529 -0.45467615,4.0702583 -1.4154874,5.8668192 -2,7.6282012 -2,12.563038 v 28.873924 c 0,4.934837 0.5845126,6.696219 1.54532385,8.49278 C 0.58858529,51.880471 2.119529,53.411415 4.0702583,54.454676 5.8668192,55.415487 7.6282012,56 12.563038,56 h 44.873924 c 4.934837,0 6.696219,-0.584513 8.49278,-1.545324 1.950729,-1.043261 3.481673,-2.574205 4.524934,-4.524934 C 71.415487,48.133181 72,46.371799 72,41.436962 V 12.563038 C 72,7.6282012 71.415487,5.8668192 70.454676,4.0702583 69.411415,2.119529 67.880471,0.58858529 65.929742,-0.45467615 64.133181,-1.4154874 62.371799,-2 57.436962,-2 Z"
         id="path267"
         style="fill:#1cb0f6;fill-opacity:1;fill-rule:nonzero;stroke:#ffffff;stroke-width:4" />
      <polygon
         id="polygon269"
         points="15,1.5573241e-15 29,0 29,20 70,20 70,34 29,34 29,54 15,54 15,34 0,34 1.4828929e-15,20 15,20 "
         style="fill:#ffffff;fill-rule:nonzero" />
    </g>
  </g>
</svg>
