<?xml version="1.0" encoding="utf-8"?>
<!-- Generator: Adobe Illustrator 24.0.0, SVG Export Plug-In . SVG Version: 6.00 Build 0)  -->
<svg version="1.1"
	 id="svg2227" xmlns:inkscape="http://www.inkscape.org/namespaces/inkscape" xmlns:sodipodi="http://sodipodi.sourceforge.net/DTD/sodipodi-0.dtd" xmlns:svg="http://www.w3.org/2000/svg"
	 xmlns="http://www.w3.org/2000/svg" xmlns:xlink="http://www.w3.org/1999/xlink" x="0px" y="0px" viewBox="0 0 78 62"
	 style="enable-background:new 0 0 78 62;" xml:space="preserve">
<style type="text/css">
	.st0{fill:#EEEEEE;stroke:#FFFFFF;stroke-width:4;}
	.st1{fill:#4C4C4C;}
	.st2{fill:#B72424;}
</style>
<sodipodi:namedview  bordercolor="#000000" borderopacity="0.25" id="namedview176" inkscape:current-layer="de-6" inkscape:cx="14.808844" inkscape:cy="-2.3329001" inkscape:deskcolor="#d1d1d1" inkscape:pagecheckerboard="0" inkscape:pageopacity="0.0" inkscape:showpageshadow="2" inkscape:window-height="991" inkscape:window-maximized="1" inkscape:window-width="1920" inkscape:window-x="-9" inkscape:window-y="-9" inkscape:zoom="4.9294867" pagecolor="#ffffff" showgrid="false">
	</sodipodi:namedview>
<defs>
	
		<inkscape:path-effect  apply_no_radius="true" apply_with_radius="true" chamfer_steps="1" effect="fillet_chamfer" flexible="false" hide_knots="false" id="path-effect1612" is_visible="true" lpeversion="1" method="auto" mode="F" nodesatellites_param="F,0,0,1,0,6,0,1 @ F,0,0,1,0,6,0,1 @ F,0,0,1,0,6,0,1 | F,0,0,1,0,6,0,1 @ F,0,0,1,0,6,0,1 | F,0,0,1,0,6,0,1 @ F,0,0,1,0,6,0,1 | F,0,0,1,0,6,0,1 @ F,0,0,1,0,6,0,1 | F,0,0,1,0,6,0,1 @ F,0,0,1,0,6,0,1 | F,0,0,1,0,6,0,1 @ F,0,0,1,0,6,0,1 @ F,0,0,1,0,6,0,1 | F,0,0,1,0,6,0,1 @ F,0,0,1,0,6,0,1 @ F,0,0,1,0,6,0,1 | F,0,0,1,0,6,0,1 @ F,0,0,1,0,6,0,1 | F,0,0,1,0,6,0,1 @ F,0,0,1,0,6,0,1 | F,0,0,1,0,6,0,1 @ F,0,0,1,0,6,0,1 | F,0,0,1,0,6,0,1 @ F,0,0,1,0,6,0,1 | F,0,0,1,0,6,0,1 @ F,0,0,1,0,6,0,1 @ F,0,0,1,0,6,0,1" only_selected="false" radius="6" unit="px" use_knot_distance="true">
		</inkscape:path-effect>
</defs>
<g id="fr_1_">
	<g id="g2780_1_" transform="translate(6.000000, 6.000000)">
		<path id="path2774_1_" class="st0" d="M55.437-4H10.563C5.6282-4,3.8668-3.4155,2.0703-2.4547
			C0.1195-1.4114-1.4114,0.1195-2.4547,2.0703C-3.4155,3.8668-4,5.6282-4,10.563V39.437c0,4.9348,0.5845,6.6962,1.5453,8.4928
			c1.0433,1.9507,2.5742,3.4817,4.5249,4.5249C3.8668,53.4155,5.6282,54,10.563,54H55.437c4.9348,0,6.6962-0.5845,8.4928-1.5453
			c1.9507-1.0433,3.4817-2.5742,4.5249-4.5249C69.4155,46.1332,70,44.3718,70,39.437V10.563c0-4.9348-0.5845-6.6962-1.5453-8.4928
			c-1.0433-1.9507-2.5742-3.4817-4.5249-4.5249C62.1332-3.4155,60.3718-4,55.437-4z"/>
		<path id="path2776_1_" class="st1" d="M21.625-2v54H10.563c-4.3684,0-5.9525-0.4548-7.5496-1.3089
			c-1.597-0.8541-2.8504-2.1075-3.7045-3.7045C-1.5452,45.3895-2,43.8054-2,39.437V10.563c0-4.3684,0.4548-5.9525,1.309-7.5496
			S1.4164,0.1631,3.0135-0.691S6.1946-2,10.563-2H21.625z"/>
		<path id="path2778_1_" class="st2" d="M44.375-2h11.062c4.3684,0,5.9525,0.4548,7.5496,1.309
			c1.597,0.8541,2.8504,2.1075,3.7045,3.7045S68,6.1946,68,10.563V39.437c0,4.3684-0.4548,5.9525-1.309,7.5496
			c-0.8541,1.597-2.1075,2.8504-3.7045,3.7045C61.3895,51.5452,59.8054,52,55.437,52H44.375V-2z"/>
	</g>
</g>
</svg>
