<?xml version="1.0" encoding="UTF-8" standalone="no"?>
<svg
   height="62"
   width="78.000008"
   version="1.1"
   id="svg2227"
   sodipodi:docname="flag_lb.svg"
   inkscape:version="1.3.2 (091e20ef0f, 2023-11-25)"
   inkscape:export-filename="flag_lb.png"
   inkscape:export-xdpi="96"
   inkscape:export-ydpi="96"
   xmlns:inkscape="http://www.inkscape.org/namespaces/inkscape"
   xmlns:sodipodi="http://sodipodi.sourceforge.net/DTD/sodipodi-0.dtd"
   xmlns="http://www.w3.org/2000/svg"
   xmlns:svg="http://www.w3.org/2000/svg">
  <defs
     id="defs1">
    <inkscape:path-effect
       effect="fillet_chamfer"
       id="path-effect5"
       is_visible="true"
       lpeversion="1"
       nodesatellites_param="F,0,0,1,0,3,0,1 @ F,0,0,1,0,3,0,1 @ F,0,0,1,0,3,0,1"
       radius="3"
       unit="px"
       method="auto"
       mode="F"
       chamfer_steps="1"
       flexible="false"
       use_knot_distance="true"
       apply_no_radius="true"
       apply_with_radius="true"
       only_selected="false"
       hide_knots="false" />
    <inkscape:path-effect
       effect="fillet_chamfer"
       id="path-effect4"
       is_visible="true"
       lpeversion="1"
       nodesatellites_param="F,0,0,1,0,3,0,1 @ F,0,0,1,0,3,0,1 @ F,0,0,1,0,3,0,1"
       radius="3"
       unit="px"
       method="auto"
       mode="F"
       chamfer_steps="1"
       flexible="false"
       use_knot_distance="true"
       apply_no_radius="true"
       apply_with_radius="true"
       only_selected="false"
       hide_knots="false" />
    <inkscape:path-effect
       effect="fillet_chamfer"
       id="path-effect5-2"
       is_visible="true"
       lpeversion="1"
       nodesatellites_param="F,0,0,1,0,3,0,1 @ F,0,0,1,0,3,0,1 @ F,0,0,1,0,3,0,1"
       radius="3"
       unit="px"
       method="auto"
       mode="F"
       chamfer_steps="1"
       flexible="false"
       use_knot_distance="true"
       apply_no_radius="true"
       apply_with_radius="true"
       only_selected="false"
       hide_knots="false" />
  </defs>
  <sodipodi:namedview
     id="namedview1"
     pagecolor="#505050"
     bordercolor="#ffffff"
     borderopacity="1"
     inkscape:showpageshadow="0"
     inkscape:pageopacity="0"
     inkscape:pagecheckerboard="1"
     inkscape:deskcolor="#505050"
     inkscape:zoom="9.0783387"
     inkscape:cx="31.66879"
     inkscape:cy="35.689349"
     inkscape:window-width="1920"
     inkscape:window-height="994"
     inkscape:window-x="0"
     inkscape:window-y="0"
     inkscape:window-maximized="1"
     inkscape:current-layer="svg2227" />
  <g
     id="de"
     inkscape:label="lb">
    <path
       d="M 61.436962,2 H 16.563038 C 11.628201,2 9.866819,2.5845126 8.070258,3.5453238 6.119529,4.5885853 4.5885853,6.119529 3.5453238,8.070258 2.5845126,9.866819 2,11.628201 2,16.563038 v 28.873924 c 0,4.934837 0.5845126,6.696219 1.5453238,8.49278 1.0432615,1.950729 2.5742052,3.481673 4.5249342,4.524934 C 9.866819,59.415487 11.628201,60 16.563038,60 h 44.873924 c 4.934837,0 6.696219,-0.584513 8.49278,-1.545324 1.950729,-1.043261 3.481673,-2.574205 4.524934,-4.524934 C 75.415487,52.133181 76,50.371799 76,45.436962 V 16.563038 C 76,11.628201 75.415487,9.866819 74.454676,8.070258 73.411415,6.119529 71.880471,4.5885853 69.929742,3.5453238 68.133181,2.5845126 66.371799,2 61.436962,2 Z"
       id="path54"
       style="fill:#eeeeee;fill-opacity:1;fill-rule:nonzero;stroke:none;stroke-width:4"
       inkscape:label="bg" />
    <path
       sodipodi:type="star"
       style="fill:#78c800;fill-opacity:1;stroke:none;stroke-width:4.636;stroke-linecap:square"
       id="path4"
       inkscape:flatsided="true"
       sodipodi:sides="3"
       sodipodi:cx="37.991375"
       sodipodi:cy="29.393049"
       sodipodi:r1="12.86089"
       sodipodi:r2="6.4304447"
       sodipodi:arg1="0.52359878"
       sodipodi:arg2="1.5707963"
       inkscape:rounded="0"
       inkscape:randomized="0"
       inkscape:transform-center-y="-4.0283456"
       transform="matrix(1.2528984,0,0,1.2528984,-8.5993291,-5.3831994)"
       inkscape:transform-center-x="-1.9453538e-06"
       inkscape:path-effect="#path-effect5-2"
       d="m 46.129233,35.823494 -16.275716,0 a 1.7320508,1.7320508 60 0 1 -1.5,-2.598076 l 8.137858,-14.095183 a 1.7320508,1.7320508 2.5219889e-7 0 1 3,0 l 8.137858,14.095183 a 1.7320508,1.7320508 120 0 1 -1.5,2.598076 z"
       inkscape:label="tree" />
    <rect
       style="fill:#78c800;fill-opacity:1;stroke:none;stroke-width:7.13826;stroke-linecap:square"
       id="rect4"
       width="9"
       height="12"
       x="34.500004"
       y="33.5"
       inkscape:label="trunk" />
    <path
       style="fill:#ff4b4b;fill-opacity:1;fill-rule:nonzero"
       d="m 74,44.5 v 0.936962 c 0,0 -0.454846,5.952545 -1.30895,7.549582 -0.854105,1.597037 -2.107469,2.850401 -3.704506,3.704506 C 67.389507,57.545155 65.805404,58 61.436962,58 H 16.563038 C 12.194596,58 10.610493,57.545155 9.013456,56.69105 7.416419,55.836945 6.163055,54.583581 5.3089503,52.986544 4.4548455,51.389507 4,49.805404 4,45.436962 V 44.5 Z"
       id="path56"
       sodipodi:nodetypes="csssssssscc"
       inkscape:label="lineBottom" />
    <path
       style="fill:#ff4b4b;fill-opacity:1;fill-rule:nonzero"
       d="m 16.563038,4 h 44.873924 c 4.368442,0 5.952545,0.4548455 7.549582,1.3089503 C 70.583581,6.163055 71.836945,7.416419 72.69105,9.013456 73.545154,10.610493 74,12.194596 74,16.563038 V 17.5 H 4 V 16.563038 C 4,12.194596 4.4548455,10.610493 5.3089503,9.013456 6.163055,7.416419 7.416419,6.163055 9.013456,5.3089503 10.610493,4.4548455 12.194596,4 16.563038,4 Z"
       id="path58"
       sodipodi:nodetypes="sssssccssss"
       inkscape:label="lineTop" />
    <path
       style="display:inline;fill:none;fill-rule:nonzero;stroke:#ffffff;stroke-width:4"
       d="M 61.436966,2 H 16.563038 C 11.628201,2 9.866819,2.584513 8.070258,3.545324 6.119529,4.588586 4.588585,6.119529 3.545324,8.070259 2.584513,9.86682 2,11.628202 2,16.563039 v 28.873923 c 0,4.934837 0.584513,6.696219 1.545324,8.49278 1.043261,1.950729 2.574205,3.481673 4.524934,4.524934 C 9.866819,59.415487 11.628201,60 16.563038,60 h 44.873928 c 4.93484,0 6.69622,-0.584513 8.49278,-1.545324 1.95073,-1.043261 3.48167,-2.574205 4.52493,-4.524934 0.96081,-1.796561 1.54533,-3.557943 1.54533,-8.49278 V 16.563039 c 0,-4.934837 -0.58452,-6.696219 -1.54533,-8.49278 -1.04326,-1.95073 -2.5742,-3.481673 -4.52493,-4.524935 C 68.133186,2.584513 66.371806,2 61.436966,2 Z"
       id="border" />
  </g>
</svg>
