<?xml version="1.0" encoding="UTF-8" standalone="no"?>
<svg
   height="62"
   width="78"
   version="1.1"
   id="svg2227"
   xmlns="http://www.w3.org/2000/svg">
  <defs
     id="defs17" />
  <g
     id="ta">
    <rect
       style="fill:#ff4b4b;fill-opacity:1;fill-rule:evenodd;stroke:none;stroke-width:0.158588"
       id="rect903"
       width="71.619476"
       height="56.932735"
       x="3.0921667"
       y="2.4448202"
       ry="12.026536" />
    <circle
       style="fill:#ffc300;fill-opacity:1;fill-rule:nonzero;stroke:#ffc300;stroke-width:0.216101;stroke-opacity:1"
       id="path1073"
       r="20.661976"
       cy="30.715727"
       cx="38.915764" />
    <circle
       style="fill:#ff4b4b;fill-opacity:1;fill-rule:nonzero;stroke:none;stroke-width:0.173129"
       id="circle1155"
       r="16.553335"
       cy="30.60663"
       cx="39.043633" />
    <rect
       style="fill:#ffc300;fill-opacity:1;fill-rule:nonzero;stroke:#ffc300;stroke-width:0.116995;stroke-opacity:1"
       id="rect1226"
       width="17.257347"
       height="2.3624413"
       x="3.6706908"
       y="26.383036" />
    <rect
       style="fill:#ffc300;fill-opacity:1;fill-rule:nonzero;stroke:none;stroke-width:0.116625"
       id="rect1308"
       width="17.148302"
       height="2.3624413"
       x="3.7797341"
       y="30.272802" />
    <rect
       style="fill:#ffc300;fill-opacity:1;fill-rule:nonzero;stroke:none;stroke-width:0.115674"
       id="rect1310"
       width="16.869911"
       height="2.3624413"
       x="57.289089"
       y="26.383036" />
    <rect
       style="fill:#ffc300;fill-opacity:1;fill-rule:nonzero;stroke:none;stroke-width:0.115957"
       id="rect1312"
       width="16.952635"
       height="2.3624413"
       x="57.289089"
       y="30.272802" />
    <path
       style="fill:#ffc300;fill-opacity:1;fill-rule:nonzero;stroke:#ffc300;stroke-width:0.209296px;stroke-linecap:butt;stroke-linejoin:miter;stroke-opacity:1"
       d="m 27.725907,26.913547 c 10.261944,-7.469114 16.508369,-3.808294 22.953896,0 v 2.696193 c -6.84564,-5.517254 -14.173107,-7.742714 -22.98304,0 z"
       id="path2203" />
    <path
       id="rect3408"
       style="fill:#ffc300;fill-opacity:1;fill-rule:nonzero;stroke:#ffc300;stroke-width:0.243697;stroke-opacity:1"
       d="M 39.166016 14.738281 L 36.207031 18.919922 L 37.765625 18.919922 L 37.765625 39.394531 L 40.212891 39.394531 L 40.212891 18.919922 L 41.792969 18.919922 L 39.166016 14.738281 z " />
    <path
       id="path7715"
       style="fill:#ffc300;fill-opacity:1;fill-rule:nonzero;stroke:#ffc300;stroke-width:0.242935px;stroke-linecap:butt;stroke-linejoin:miter;stroke-opacity:1"
       d="m 26.789064,30.253906 c -0.233707,1.699086 -0.659655,1.860535 -1.378906,0.03906 0.05091,1.919589 0.19145,3.088257 1.171875,4.824219 -0.406298,1.396766 -0.777317,2.764409 -0.189453,3.353515 0.427485,0.05343 1.030308,-0.1327 1.210938,-0.609375 2.744396,2.761728 8.310296,2.745027 9.36914,-0.228516 0.05129,-1.037178 0.398261,-0.989805 -2.55664,-2.675781 -1.051406,-2.910694 -0.400677,0.02103 -0.601563,1.007813 -2.414255,2.323525 1.466446,-0.570355 1.763672,1.77539 -2.698118,1.862315 -3.559597,-0.570652 -4.839844,-3.183593 l 0.658203,1.265625 c 0.384524,-0.778974 1.987466,-1.174039 0.957032,-2.398435 l -2.296875,-0.177734 0.07422,0.142578 C 29.350582,32.009179 28.35265,30.752885 26.789066,30.253906 Z" />
    <path
       style="fill:#ffc300;fill-opacity:1;fill-rule:nonzero;stroke:none;stroke-width:1.04679"
       d="m 48.036408,30.650622 c -1.333974,1.060051 -2.630918,3.872005 -3.499443,3.954241 -3.886962,0.498324 -4.035671,3.78329 -2.351609,4.927461 -0.03257,0.855226 3.374551,0.241714 5.093199,0.306908 0.127122,-0.357384 0.04208,-0.826345 -0.96316,-0.695832 1.005932,-0.08531 1.164175,-0.472289 0.69134,-0.799766 -1.735047,-0.105244 -2.5559,0.703148 -3.047005,0.731223 0.177623,-0.614779 1.855771,-1.505543 2.628992,-1.774484 0.426712,0.263906 0.853414,-0.109127 1.280127,1.141753 0.09473,0.02606 0.03653,1.006842 -0.02156,1.202477 -0.118978,0.399873 1.877927,0.177953 1.878419,0.175378 0.08469,-0.162587 0.284653,-0.234302 -0.01497,-0.699578 -0.34276,-0.485166 -1.168393,0.725246 -0.668667,-2.718278 0.264816,-0.204878 0.368626,-1.58825 0.414151,-3.398188 1.15333,0.269046 1.299535,-0.144865 1.818229,-0.99963 -0.137046,-0.826994 -0.734427,-1.772495 -2.433635,-1.879811 -0.82109,-0.447942 -0.791299,-0.445524 -0.804363,0.526126 z"
       id="path11621" />
    <path
       d="M 61.436962,2.0000053 H 16.563038 c -4.934837,0 -6.6962187,0.584513 -8.4927797,1.5453235 -1.950729,1.043262 -3.481673,2.574205 -4.524934,4.5249355 -0.960811,1.796561 -1.545324,3.5579417 -1.545324,8.4927777 v 28.873925 c 0,4.934837 0.584513,6.696219 1.545324,8.49278 1.043261,1.950729 2.574205,3.481673 4.524934,4.524934 1.796561,0.960811 3.5579427,1.545324 8.4927797,1.545324 h 44.873924 c 4.934837,0 6.696219,-0.584513 8.492778,-1.545324 1.95073,-1.043261 3.48168,-2.574205 4.52494,-4.524934 C 75.41549,52.133186 76,50.371804 76,45.436967 V 16.563042 C 76,11.628206 75.41549,9.8668253 74.45468,8.0702643 73.41142,6.1195338 71.88047,4.5885908 69.92974,3.5453288 68.133181,2.5845183 66.371799,2.0000053 61.436962,2.0000053 Z"
       id="path1846-3"
       style="fill:none;fill-opacity:1;fill-rule:nonzero;stroke:#ffffff;stroke-width:4" />
  </g>
</svg>
