<?xml version="1.0" encoding="UTF-8" standalone="no"?>
<!-- Created with Inkscape (http://www.inkscape.org/) -->

<svg
   width="78mm"
   height="62mm"
   viewBox="0 0 78 62"
   version="1.1"
   id="svg5"
   inkscape:version="1.1.2 (0a00cf5339, 2022-02-04)"
   sodipodi:docname="flag32.svg"
   xmlns:inkscape="http://www.inkscape.org/namespaces/inkscape"
   xmlns:sodipodi="http://sodipodi.sourceforge.net/DTD/sodipodi-0.dtd"
   xmlns="http://www.w3.org/2000/svg"
   xmlns:svg="http://www.w3.org/2000/svg">
  <sodipodi:namedview
     id="namedview7"
     pagecolor="#ffffff"
     bordercolor="#666666"
     borderopacity="1.0"
     inkscape:pageshadow="2"
     inkscape:pageopacity="0.0"
     inkscape:pagecheckerboard="0"
     inkscape:document-units="mm"
     showgrid="false"
     fit-margin-top="0"
     fit-margin-left="0"
     fit-margin-right="0"
     fit-margin-bottom="0"
     inkscape:zoom="1.28"
     inkscape:cx="449.60938"
     inkscape:cy="179.6875"
     inkscape:window-width="1366"
     inkscape:window-height="699"
     inkscape:window-x="0"
     inkscape:window-y="0"
     inkscape:window-maximized="1"
     inkscape:current-layer="layer1" />
  <defs
     id="defs2">
    <path
       d="m 12.563038,0 44.873924,0 c 4.368442,0 5.952545,0.45484549 7.549582,1.3089503 C 66.583581,2.163055 67.836945,3.416419 68.69105,5.013456 69.545154,6.6104931 70,8.1945956 70,12.563038 v 28.873924 c 0,4.368442 -0.454846,5.952545 -1.30895,7.549582 -0.854105,1.597037 -2.107469,2.850401 -3.704506,3.704506 C 63.389507,53.545155 61.805404,54 57.436962,54 H 12.563038 C 8.1945956,54 6.6104931,53.545155 5.013456,52.69105 3.416419,51.836945 2.163055,50.583581 1.3089503,48.986544 0.45484549,47.389507 0,45.805404 0,41.436962 L 0,12.563038 C 0,8.1945956 0.45484549,6.6104931 1.3089503,5.013456 2.163055,3.416419 3.416419,2.163055 5.013456,1.3089503 6.6104931,0.45484549 8.1945956,0 12.563038,0 Z"
       id="path-1" />
    <path
       d="M12.5630375,-1.41439589e-15 L57.4369625,-1.03967437e-15 C61.8054044,6.04080748e-16 63.3895069,0.454845494 64.986544,1.30895025 C66.583581,2.163055 67.836945,3.41641901 68.6910498,5.01345604 C69.5451545,6.61049308 70,8.19459564 70,12.5630375 L70,41.4369625 C70,45.8054044 69.5451545,47.3895069 68.6910498,48.986544 C67.836945,50.583581 66.583581,51.836945 64.986544,52.6910498 C63.3895069,53.5451545 61.8054044,54 57.4369625,54 L12.5630375,54 C8.19459564,54 6.61049308,53.5451545 5.01345604,52.6910498 C3.41641901,51.836945 2.163055,50.583581 1.30895025,48.986544 C0.454845494,47.3895069 -8.57188171e-16,45.8054044 1.47529378e-15,41.4369625 L1.24520864e-15,12.5630375 C-7.23502079e-16,8.19459564 0.454845494,6.61049308 1.30895025,5.01345604 C2.163055,3.41641901 3.41641901,2.163055 5.01345604,1.30895025 C6.61049308,0.454845494 8.19459564,8.21804743e-16 12.5630375,-1.41439589e-15 Z"
       id="path-1-3" />
  </defs>
  <g
     inkscape:groupmode="layer"
     id="layer2"
     inkscape:label="Layer 2"
     transform="translate(-43.967789,-155.26397)" />
  <g
     inkscape:label="Layer 1"
     inkscape:groupmode="layer"
     id="layer1"
     transform="translate(-43.967789,-155.26397)">
    <g
       id="g13316">
      <path
         d="M 105.40475,157.26397 H 60.530826 c -4.934836,0 -6.696218,0.58451 -8.492779,1.54532 -1.950729,1.04327 -3.481673,2.57421 -4.524934,4.52494 -0.960811,1.79656 -1.545324,3.55794 -1.545324,8.49278 v 28.87392 c 0,4.93484 0.584513,6.69622 1.545324,8.49278 1.043261,1.95073 2.574205,3.48167 4.524934,4.52494 1.796561,0.96081 3.557943,1.54532 8.492779,1.54532 h 44.873924 c 4.93484,0 6.69622,-0.58451 8.49278,-1.54532 1.95073,-1.04327 3.48167,-2.57421 4.52494,-4.52494 0.96081,-1.79656 1.54532,-3.55794 1.54532,-8.49278 v -28.87392 c 0,-4.93484 -0.58451,-6.69622 -1.54532,-8.49278 -1.04327,-1.95073 -2.57421,-3.48167 -4.52494,-4.52494 -1.79656,-0.96081 -3.55794,-1.54532 -8.49278,-1.54532 z"
         id="path2800"
         stroke="#ffffff"
         stroke-width="4"
         fill="#eeeeee"
         style="fill:#eeeeeb;fill-opacity:1;fill-rule:evenodd" />
      <g
         id="g13306">
        <path
           d="m 117.98223,197.02612 v 4.96033 c 0,0.17611 -8.8e-4,0.34726 -0.003,0.51367 H 47.984898 c -0.0018,-0.16641 -0.0027,-0.33756 -0.0027,-0.51367 v -4.96033 z"
           id="path2961"
           fill="#1cb0f6"
           style="fill-rule:nonzero;stroke:none;stroke-width:0.955161" />
        <path
           d="m 116.89479,207.78799 c -0.10649,0.22627 -0.0551,0.12208 -0.22724,0.44388 -0.8541,1.59703 -2.08679,2.85143 -3.68383,3.70553 -1.59704,0.85411 -3.22248,1.32476 -7.59092,1.32445 l -44.873714,-0.003 c -4.368442,-3e-4 -5.951765,-0.53071 -7.549582,-1.38336 -1.600535,-0.8541 -2.891496,-2.05992 -3.70905,-3.65696 -0.166267,-0.32479 -0.04488,-0.0693 -0.217222,-0.42988 z"
           id="path2963"
           fill="#1cb0f6"
           style="fill-rule:nonzero;stroke:none;stroke-width:1"
           sodipodi:nodetypes="csssssscc" />
        <path
           d="m 117.98223,175.59474 v 4.96033 c 0,0.1761 -8.8e-4,0.34726 -0.003,0.51366 H 47.984898 c -0.0018,-0.16641 -0.0027,-0.33756 -0.0027,-0.51366 v -4.96033 z"
           id="path9049"
           fill="#1cb0f6"
           style="fill-rule:nonzero;stroke:none;stroke-width:0.955161" />
        <g
           id="g837">
          <path
             d="m 117.98223,186.44272 v 4.96033 c 0,0.17611 -8.8e-4,0.34726 -0.003,0.51367 H 47.984898 c -0.0018,-0.16641 -0.0027,-0.33756 -0.0027,-0.51367 v -4.96033 z"
             id="path9047"
             fill="#1cb0f6"
             style="fill-rule:nonzero;stroke:none;stroke-width:0.955161" />
          <path
             d="m 116.9239,164.74675 c 0.65883,1.365 0.9921,3.03683 1.05833,4.96033 0.006,0.17601 -8.8e-4,0.34726 -0.003,0.51367 H 47.984898 c -0.0018,-0.16641 -0.0066,-0.3376 -0.0027,-0.51367 0.06673,-2.99975 0.547047,-3.88517 1.058333,-4.96033 z"
             id="path9051"
             fill="#1cb0f6"
             style="fill-rule:nonzero;stroke:none;stroke-width:0.955161"
             sodipodi:nodetypes="csccscc" />
        </g>
      </g>
    </g>
    <path
       style="fill:#ff4b4b;fill-opacity:1;stroke:none;stroke-width:0.264583px;stroke-linecap:butt;stroke-linejoin:miter;stroke-opacity:1"
       d="m 87.920019,165.51386 c 2.83841,5.7223 2.760657,9.01176 -1.590783,14.23161 -1.53677,1.48821 4.493803,7.07245 6.387813,9.43185 0.96744,1.06648 5.8971,3.34724 3.66797,-2.49244 -1.616647,-3.95552 -1.374366,-6.78499 0.12325,-8.19802 3.468007,-2.5483 3.862521,-4.18458 3.581981,-5.70538 -5.161639,-6.00478 6.28834,-2.11624 -2.1e-4,4.84686 -4.292963,3.4482 -2.905965,5.25334 -2.019344,8.24454 1.145338,3.31086 0.334128,3.89969 0.334128,3.89969 2.173096,-2.62511 0.58016,-8.36659 -3.178622,-11.43109 -4.211183,-4.15373 -3.963003,-8.78788 -0.424863,-11.88995 6.077611,-4.03715 10.164501,2.30335 9.546641,5.86296 -2.18087,2.14845 -0.96219,-4.871 -5.779412,-5.19513 -2.710974,0.0171 -6.274444,3.07634 -3.868451,7.40913 3.982688,5.06016 9.609503,10.72155 5.008659,17.13448 -2.908171,2.24781 -4.273834,0.48397 -5.59946,0.7589 0.193545,8.03535 7.569984,8.90609 0.685443,17.17301 -0.236745,0.54019 -4.840673,0.27765 -7.26101,0.28859 -1.554064,-5.79985 6.258091,-1.11637 5.2182,-7.20834 -2.3218,-1.2967 -3.488363,-2.40918 -6.128067,-7.57447 -15.203873,-0.68588 -7.444449,14.34655 -13.324356,12.77635 0,0 -1.434146,0.0717 -7.472277,0.0608 -2.285356,-7.67518 6.50187,-0.004 5.57134,-7.54138 -0.725177,-4.83021 0.696009,-8.17486 10.17908,-10.96438 1.95373,-0.80197 -0.859617,-1.20647 -3.593147,-4.53063 -2.691592,-2.6916 -4.847327,4.3662 -13.812333,4.3662 -4.855761,-0.16836 -2.907086,-6.47466 -0.66523,-4.84403 4.08141,3.15658 9.418521,-3.61113 8.811521,-4.77825 -8.104,-9.70515 -6.751492,-19.69923 -0.747772,-13.09128 -2.383078,5.81632 5.527098,10.88771 7.032211,7.4487 -1.18543,-5.16289 2.03533,-1.4013 1.85365,-4.38265 0.15687,-2.81922 -2.76251,0.70078 -2.78398,-3.16061 0.2,-1.85803 9.96935,-1.90096 10.24743,-0.94559 z"
       id="path11023"
       sodipodi:nodetypes="cccccccccccccccccccccccccccccccccc" />
    <rect
       style="opacity:0.98;fill:#ffc800;fill-opacity:1;stroke:none;stroke-width:7.37294;stroke-linejoin:round;stroke-miterlimit:3.3;paint-order:stroke fill markers"
       id="rect28510"
       width="1.7528206"
       height="3.2748973"
       x="83.147003"
       y="162.12598"
       rx="1.7945875"
       ry="2.0722265" />
    <rect
       style="opacity:0.98;fill:#ffc800;fill-opacity:1;stroke:none;stroke-width:7.37294;stroke-linejoin:round;stroke-miterlimit:3.3;paint-order:stroke fill markers"
       id="rect28724"
       width="1.7528206"
       height="3.2748973"
       x="80.034973"
       y="162.28972"
       rx="1.7945875"
       ry="2.0722265" />
    <rect
       style="opacity:0.98;fill:#ffc800;fill-opacity:1;stroke:none;stroke-width:7.37294;stroke-linejoin:round;stroke-miterlimit:3.3;paint-order:stroke fill markers"
       id="rect28726"
       width="1.7528206"
       height="3.2748973"
       x="86.259033"
       y="162.28972"
       rx="1.7945875"
       ry="2.0722265" />
    <rect
       style="opacity:0.98;fill:#ffc800;fill-opacity:1;stroke:none;stroke-width:12.1369;stroke-linejoin:round;stroke-miterlimit:3.3;paint-order:stroke fill markers"
       id="rect28728"
       width="2.023998"
       height="7.6852503"
       x="164.01901"
       y="-87.866035"
       rx="2.0722265"
       ry="4.8629251"
       transform="rotate(90)" />
  </g>
</svg>
