<?xml version="1.0" encoding="UTF-8" standalone="no"?>
<!-- Generator: Adobe Illustrator 24.0.0, SVG Export Plug-In . SVG Version: 6.00 Build 0)  -->

<svg
   version="1.1"
   id="svg2227"
   x="0px"
   y="0px"
   viewBox="0 0 78 62"
   style="enable-background:new 0 0 78 62;"
   xml:space="preserve"
   sodipodi:docname="flag_suji.svg"
   inkscape:version="1.2.1 (9c6d41e410, 2022-07-14)"
   xmlns:inkscape="http://www.inkscape.org/namespaces/inkscape"
   xmlns:sodipodi="http://sodipodi.sourceforge.net/DTD/sodipodi-0.dtd"
   xmlns="http://www.w3.org/2000/svg"
   xmlns:svg="http://www.w3.org/2000/svg">
<style
   type="text/css"
   id="style5697">
	.st0{fill:#FFFFFF;}
	.st1{fill:#EEEEEE;}
	.st2{fill:#4C4C4C;}
	.st3{fill:#1CB0F6;}
	.st4{fill:#1254A9;}
	.st5{fill:#FF4B4B;}
	.st6{fill:#9069CD;}
	.st7{fill:#FFAADE;}
	.st8{fill:#FFC800;}
	.st9{fill:#FF9600;}
	.st10{fill:#FFCE8E;}
	.st11{fill:#78C800;}
	.st12{fill:#1254A9;stroke:#FFFFFF;stroke-width:4;}
	.st13{fill:#FFFFFF;stroke:#000000;}
</style>
<sodipodi:namedview
   bordercolor="#000000"
   borderopacity="0.25"
   id="namedview176"
   inkscape:current-layer="svg2227"
   inkscape:cx="67"
   inkscape:cy="24.125"
   inkscape:deskcolor="#d1d1d1"
   inkscape:pagecheckerboard="0"
   inkscape:pageopacity="0.0"
   inkscape:showpageshadow="2"
   inkscape:window-height="991"
   inkscape:window-maximized="1"
   inkscape:window-width="1920"
   inkscape:window-x="-9"
   inkscape:window-y="-9"
   inkscape:zoom="4"
   pagecolor="#ffffff"
   showgrid="false">
	</sodipodi:namedview>
<defs
   id="defs5701"><inkscape:path-effect
   effect="fillet_chamfer"
   id="path-effect8448"
   is_visible="true"
   lpeversion="1"
   nodesatellites_param="F,0,0,1,0,0,0,1 @ F,0,0,1,0,0,0,1 @ F,0,0,1,0,0,0,1 @ F,0,0,1,0,0,0,1 @ F,0,0,1,0,0,0,1 @ F,0,0,1,0,0,0,1 @ F,0,0,1,0,0,0,1 @ F,0,0,1,0,0,0,1 @ F,0,0,1,0,0,0,1 @ F,0,0,1,0,0,0,1 @ F,0,0,1,0,0,0,1 @ F,0,0,1,0,0,0,1 @ F,0,0,1,0,0,0,1 @ F,0,0,1,0,0,0,1 @ F,0,0,1,0,0,0,1 @ F,0,0,1,0,0,0,1 @ F,0,0,1,0,0,0,1 @ F,0,0,1,0,0,0,1 @ F,0,0,1,0,0,0,1 @ F,0,0,1,0,0,0,1 @ F,0,0,1,0,0,0,1 @ F,0,0,1,0,0,0,1 @ F,0,0,1,0,0,0,1 @ F,0,0,1,0,0,0,1 @ F,0,0,1,0,0,0,1 @ F,0,0,1,0,0,0,1 @ F,0,0,1,0,0,0,1 @ F,0,0,1,0,0,0,1 @ F,0,0,1,0,0,0,1 @ F,0,0,1,0,0,0,1 @ F,0,0,1,0,0,0,1 @ F,0,0,1,0,0,0,1 @ F,0,0,1,0,0,0,1 @ F,0,0,1,0,0,0,1 @ F,0,0,1,0,0,0,1 @ F,0,0,1,0,0,0,1 @ F,0,0,1,0,0,0,1 @ F,0,0,1,0,0,0,1 @ F,0,0,1,0,0,0,1 @ F,0,0,1,0,0,0,1 @ F,0,0,1,0,0,0,1 @ F,0,0,1,0,0,0,1 @ F,0,0,1,0,0,0,1 @ F,0,0,1,0,0,0,1 @ F,0,0,1,0,0,0,1 @ F,0,0,1,0,0,0,1 @ F,0,0,1,0,0,0,1 @ F,0,0,1,0,0,0,1 @ F,0,0,1,0,0,0,1 @ F,0,0,1,0,0,0,1 @ F,0,0,1,0,0,0,1 @ F,0,0,1,0,0,0,1 @ F,0,0,1,0,0,0,1 @ F,0,0,1,0,0,0,1 @ F,0,0,1,0,0,0,1 @ F,0,0,1,0,0,0,1 @ F,0,0,1,0,0,0,1 @ F,0,0,1,0,0,0,1 @ F,0,0,1,0,0,0,1 @ F,0,0,1,0,0,0,1 @ F,0,0,1,0,0,0,1 @ F,0,0,1,0,0,0,1 @ F,0,0,1,0,0,0,1 @ F,0,0,1,0,0,0,1 @ F,0,0,1,0,0,0,1 @ F,0,0,1,0,0,0,1 @ F,0,0,1,0,0,0,1 @ F,0,0,1,0,0,0,1 @ F,0,0,1,0,0,0,1 @ F,0,0,1,0,0,0,1 @ F,0,0,1,0,0,0,1 @ F,0,0,1,0,0,0,1 @ F,0,0,1,0,0,0,1 @ F,0,0,1,0,0,0,1 @ F,0,0,1,0,0,0,1 @ F,0,0,1,0,0,0,1 @ F,0,0,1,0,0,0,1 @ F,0,0,1,0,0,0,1 @ F,0,0,1,0,0,0,1 @ F,0,0,1,0,0,0,1 @ F,0,0,1,0,0,0,1 | F,0,0,1,0,0,0,1 @ F,0,0,1,0,0,0,1 @ F,0,0,1,0,0,0,1 @ F,0,0,1,0,0,0,1 @ F,0,0,1,0,0,0,1"
   unit="px"
   method="auto"
   mode="F"
   radius="0"
   chamfer_steps="1"
   flexible="false"
   use_knot_distance="true"
   apply_no_radius="true"
   apply_with_radius="true"
   only_selected="false"
   hide_knots="false" /><inkscape:path-effect
   effect="fillet_chamfer"
   id="path-effect8015"
   is_visible="true"
   lpeversion="1"
   nodesatellites_param="F,0,0,1,0,5,0,1 @ F,0,0,1,0,5,0,1 @ F,0,0,1,0,5,0,1 @ F,0,0,1,0,5,0,1 @ F,0,0,1,0,5,0,1 @ F,0,0,1,0,5,0,1 @ F,0,0,1,0,5,0,1 @ F,0,0,1,0,5,0,1 @ F,0,0,1,0,5,0,1 @ F,0,0,1,0,5,0,1 @ F,0,0,1,0,5,0,1 @ F,0,0,1,0,5,0,1 @ F,0,0,1,0,5,0,1 @ F,0,0,1,0,5,0,1"
   unit="px"
   method="auto"
   mode="F"
   radius="5"
   chamfer_steps="1"
   flexible="false"
   use_knot_distance="true"
   apply_no_radius="true"
   apply_with_radius="true"
   only_selected="false"
   hide_knots="false" /><inkscape:path-effect
   effect="fillet_chamfer"
   id="path-effect8005"
   is_visible="true"
   lpeversion="1"
   nodesatellites_param="F,0,0,1,0,5,0,1 @ F,0,0,1,0,5,0,1 @ F,0,0,1,0,5,0,1 @ F,0,0,1,0,5,0,1 @ F,0,0,1,0,5,0,1 @ F,0,0,1,0,5,0,1 @ F,0,0,1,0,5,0,1 @ F,0,0,1,0,5,0,1 @ F,0,0,1,0,5,0,1 @ F,0,0,1,0,5,0,1 @ F,0,0,1,0,5,0,1 @ F,0,0,1,0,5,0,1 @ F,0,0,1,0,5,0,1 @ F,0,0,1,0,5,0,1"
   unit="px"
   method="auto"
   mode="F"
   radius="5"
   chamfer_steps="1"
   flexible="false"
   use_knot_distance="true"
   apply_no_radius="true"
   apply_with_radius="true"
   only_selected="false"
   hide_knots="false" /><inkscape:path-effect
   effect="fillet_chamfer"
   id="path-effect7995"
   is_visible="true"
   lpeversion="1"
   nodesatellites_param="F,0,0,1,0,5,0,1 @ F,0,0,1,0,5,0,1 @ F,0,0,1,0,5,0,1 @ F,0,0,1,0,5,0,1 @ F,0,0,1,0,5,0,1 @ F,0,0,1,0,5,0,1 @ F,0,0,1,0,5,0,1 @ F,0,0,1,0,5,0,1 @ F,0,0,1,0,5,0,1 @ F,0,0,1,0,5,0,1 @ F,0,0,1,0,5,0,1 @ F,0,0,1,0,5,0,1 @ F,0,0,1,0,5,0,1 @ F,0,0,1,0,5,0,1"
   unit="px"
   method="auto"
   mode="F"
   radius="5"
   chamfer_steps="1"
   flexible="false"
   use_knot_distance="true"
   apply_no_radius="true"
   apply_with_radius="true"
   only_selected="false"
   hide_knots="false" /><inkscape:path-effect
   effect="fillet_chamfer"
   id="path-effect7985"
   is_visible="true"
   lpeversion="1"
   nodesatellites_param="F,0,0,1,0,5,0,1 @ F,0,0,1,0,5,0,1 @ F,0,0,1,0,5,0,1 @ F,0,0,1,0,5,0,1 @ F,0,0,1,0,5,0,1 @ F,0,0,1,0,5,0,1 @ F,0,0,1,0,5,0,1 @ F,0,0,1,0,5,0,1 @ F,0,0,1,0,5,0,1 @ F,0,0,1,0,5,0,1 @ F,0,0,1,0,5,0,1 @ F,0,0,1,0,5,0,1 @ F,0,0,1,0,5,0,1 @ F,0,0,1,0,5,0,1"
   unit="px"
   method="auto"
   mode="F"
   radius="5"
   chamfer_steps="1"
   flexible="false"
   use_knot_distance="true"
   apply_no_radius="true"
   apply_with_radius="true"
   only_selected="false"
   hide_knots="false" /><inkscape:path-effect
   effect="fillet_chamfer"
   id="path-effect7580"
   is_visible="true"
   lpeversion="1"
   nodesatellites_param="F,0,0,1,0,5,0,1 @ F,0,0,1,0,5,0,1 @ F,0,0,1,0,5,0,1 @ F,0,0,1,0,5,0,1 @ F,0,0,1,0,5,0,1 @ F,0,0,1,0,5,0,1 @ F,0,0,1,0,5,0,1 @ F,0,0,1,0,5,0,1 @ F,0,0,1,0,5,0,1 @ F,0,0,1,0,5,0,1 @ F,0,0,1,0,5,0,1 @ F,0,0,1,0,5,0,1 @ F,0,0,1,0,5,0,1 @ F,0,0,1,0,5,0,1"
   unit="px"
   method="auto"
   mode="F"
   radius="5"
   chamfer_steps="1"
   flexible="false"
   use_knot_distance="true"
   apply_no_radius="true"
   apply_with_radius="true"
   only_selected="false"
   hide_knots="false" />

		<inkscape:path-effect
   apply_no_radius="true"
   apply_with_radius="true"
   chamfer_steps="1"
   effect="fillet_chamfer"
   flexible="false"
   hide_knots="false"
   id="path-effect1612"
   is_visible="true"
   lpeversion="1"
   method="auto"
   mode="F"
   nodesatellites_param="F,0,0,1,0,6,0,1 @ F,0,0,1,0,6,0,1 @ F,0,0,1,0,6,0,1 | F,0,0,1,0,6,0,1 @ F,0,0,1,0,6,0,1 | F,0,0,1,0,6,0,1 @ F,0,0,1,0,6,0,1 | F,0,0,1,0,6,0,1 @ F,0,0,1,0,6,0,1 | F,0,0,1,0,6,0,1 @ F,0,0,1,0,6,0,1 | F,0,0,1,0,6,0,1 @ F,0,0,1,0,6,0,1 @ F,0,0,1,0,6,0,1 | F,0,0,1,0,6,0,1 @ F,0,0,1,0,6,0,1 @ F,0,0,1,0,6,0,1 | F,0,0,1,0,6,0,1 @ F,0,0,1,0,6,0,1 | F,0,0,1,0,6,0,1 @ F,0,0,1,0,6,0,1 | F,0,0,1,0,6,0,1 @ F,0,0,1,0,6,0,1 | F,0,0,1,0,6,0,1 @ F,0,0,1,0,6,0,1 | F,0,0,1,0,6,0,1 @ F,0,0,1,0,6,0,1 @ F,0,0,1,0,6,0,1"
   only_selected="false"
   radius="6"
   unit="px"
   use_knot_distance="true">
		</inkscape:path-effect>
<inkscape:path-effect
   effect="fillet_chamfer"
   id="path-effect2087"
   is_visible="true"
   lpeversion="1"
   nodesatellites_param="F,0,0,1,0,144.77952,0,1 @ F,0,0,1,0,0,0,1 @ F,0,0,1,0,0,0,1"
   unit="px"
   method="auto"
   mode="F"
   radius="0"
   chamfer_steps="1"
   flexible="false"
   use_knot_distance="true"
   apply_no_radius="true"
   apply_with_radius="true"
   only_selected="false"
   hide_knots="false" /><inkscape:path-effect
   effect="fillet_chamfer"
   id="path-effect7129"
   is_visible="true"
   lpeversion="1"
   nodesatellites_param="F,0,0,1,0,30,0,1 @ F,0,0,1,0,30,0,1 @ F,0,0,1,0,30,0,1 @ F,0,0,1,0,30,0,1"
   unit="px"
   method="auto"
   mode="F"
   radius="25"
   chamfer_steps="1"
   flexible="false"
   use_knot_distance="true"
   apply_no_radius="true"
   apply_with_radius="true"
   only_selected="false"
   hide_knots="false" /><inkscape:path-effect
   effect="fillet_chamfer"
   id="path-effect7131"
   is_visible="true"
   lpeversion="1"
   nodesatellites_param="F,0,0,1,0,30,0,1 @ F,0,0,1,0,30,0,1 @ F,0,0,1,0,30,0,1 @ F,0,0,1,0,30,0,1"
   unit="px"
   method="auto"
   mode="F"
   radius="25"
   chamfer_steps="1"
   flexible="false"
   use_knot_distance="true"
   apply_no_radius="true"
   apply_with_radius="true"
   only_selected="false"
   hide_knots="false" /><inkscape:path-effect
   effect="fillet_chamfer"
   id="path-effect7133"
   is_visible="true"
   lpeversion="1"
   nodesatellites_param="F,0,0,1,0,30,0,1 @ F,0,0,1,0,30,0,1 @ F,0,0,1,0,30,0,1 @ F,0,0,1,0,30,0,1"
   unit="px"
   method="auto"
   mode="F"
   radius="25"
   chamfer_steps="1"
   flexible="false"
   use_knot_distance="true"
   apply_no_radius="true"
   apply_with_radius="true"
   only_selected="false"
   hide_knots="false" /><inkscape:path-effect
   effect="fillet_chamfer"
   id="path-effect7135"
   is_visible="true"
   lpeversion="1"
   nodesatellites_param="F,0,0,1,0,30,0,1 @ F,0,0,1,0,30,0,1 @ F,0,0,1,0,30,0,1 @ F,0,0,1,0,30,0,1"
   unit="px"
   method="auto"
   mode="F"
   radius="25"
   chamfer_steps="1"
   flexible="false"
   use_knot_distance="true"
   apply_no_radius="true"
   apply_with_radius="true"
   only_selected="false"
   hide_knots="false" /><inkscape:path-effect
   effect="fillet_chamfer"
   id="path-effect7137"
   is_visible="true"
   lpeversion="1"
   nodesatellites_param="F,0,0,1,0,30,0,1 @ F,0,0,1,0,30,0,1 @ F,0,0,1,0,30,0,1 @ F,0,0,1,0,30,0,1"
   unit="px"
   method="auto"
   mode="F"
   radius="25"
   chamfer_steps="1"
   flexible="false"
   use_knot_distance="true"
   apply_no_radius="true"
   apply_with_radius="true"
   only_selected="false"
   hide_knots="false" /><inkscape:path-effect
   effect="fillet_chamfer"
   id="path-effect7985-4"
   is_visible="true"
   lpeversion="1"
   nodesatellites_param="F,0,0,1,0,5,0,1 @ F,0,0,1,0,5,0,1 @ F,0,0,1,0,5,0,1 @ F,0,0,1,0,5,0,1 @ F,0,0,1,0,5,0,1 @ F,0,0,1,0,5,0,1 @ F,0,0,1,0,5,0,1 @ F,0,0,1,0,5,0,1 @ F,0,0,1,0,5,0,1 @ F,0,0,1,0,5,0,1 @ F,0,0,1,0,5,0,1 @ F,0,0,1,0,5,0,1 @ F,0,0,1,0,5,0,1 @ F,0,0,1,0,5,0,1"
   unit="px"
   method="auto"
   mode="F"
   radius="5"
   chamfer_steps="1"
   flexible="false"
   use_knot_distance="true"
   apply_no_radius="true"
   apply_with_radius="true"
   only_selected="false"
   hide_knots="false" /><inkscape:path-effect
   effect="fillet_chamfer"
   id="path-effect7995-0"
   is_visible="true"
   lpeversion="1"
   nodesatellites_param="F,0,0,1,0,5,0,1 @ F,0,0,1,0,5,0,1 @ F,0,0,1,0,5,0,1 @ F,0,0,1,0,5,0,1 @ F,0,0,1,0,5,0,1 @ F,0,0,1,0,5,0,1 @ F,0,0,1,0,5,0,1 @ F,0,0,1,0,5,0,1 @ F,0,0,1,0,5,0,1 @ F,0,0,1,0,5,0,1 @ F,0,0,1,0,5,0,1 @ F,0,0,1,0,5,0,1 @ F,0,0,1,0,5,0,1 @ F,0,0,1,0,5,0,1"
   unit="px"
   method="auto"
   mode="F"
   radius="5"
   chamfer_steps="1"
   flexible="false"
   use_knot_distance="true"
   apply_no_radius="true"
   apply_with_radius="true"
   only_selected="false"
   hide_knots="false" /><inkscape:path-effect
   effect="fillet_chamfer"
   id="path-effect8005-0"
   is_visible="true"
   lpeversion="1"
   nodesatellites_param="F,0,0,1,0,5,0,1 @ F,0,0,1,0,5,0,1 @ F,0,0,1,0,5,0,1 @ F,0,0,1,0,5,0,1 @ F,0,0,1,0,5,0,1 @ F,0,0,1,0,5,0,1 @ F,0,0,1,0,5,0,1 @ F,0,0,1,0,5,0,1 @ F,0,0,1,0,5,0,1 @ F,0,0,1,0,5,0,1 @ F,0,0,1,0,5,0,1 @ F,0,0,1,0,5,0,1 @ F,0,0,1,0,5,0,1 @ F,0,0,1,0,5,0,1"
   unit="px"
   method="auto"
   mode="F"
   radius="5"
   chamfer_steps="1"
   flexible="false"
   use_knot_distance="true"
   apply_no_radius="true"
   apply_with_radius="true"
   only_selected="false"
   hide_knots="false" /><inkscape:path-effect
   effect="fillet_chamfer"
   id="path-effect7580-0"
   is_visible="true"
   lpeversion="1"
   nodesatellites_param="F,0,0,1,0,5,0,1 @ F,0,0,1,0,5,0,1 @ F,0,0,1,0,5,0,1 @ F,0,0,1,0,5,0,1 @ F,0,0,1,0,5,0,1 @ F,0,0,1,0,5,0,1 @ F,0,0,1,0,5,0,1 @ F,0,0,1,0,5,0,1 @ F,0,0,1,0,5,0,1 @ F,0,0,1,0,5,0,1 @ F,0,0,1,0,5,0,1 @ F,0,0,1,0,5,0,1 @ F,0,0,1,0,5,0,1 @ F,0,0,1,0,5,0,1"
   unit="px"
   method="auto"
   mode="F"
   radius="5"
   chamfer_steps="1"
   flexible="false"
   use_knot_distance="true"
   apply_no_radius="true"
   apply_with_radius="true"
   only_selected="false"
   hide_knots="false" /><inkscape:path-effect
   effect="fillet_chamfer"
   id="path-effect8015-7"
   is_visible="true"
   lpeversion="1"
   nodesatellites_param="F,0,0,1,0,5,0,1 @ F,0,0,1,0,5,0,1 @ F,0,0,1,0,5,0,1 @ F,0,0,1,0,5,0,1 @ F,0,0,1,0,5,0,1 @ F,0,0,1,0,5,0,1 @ F,0,0,1,0,5,0,1 @ F,0,0,1,0,5,0,1 @ F,0,0,1,0,5,0,1 @ F,0,0,1,0,5,0,1 @ F,0,0,1,0,5,0,1 @ F,0,0,1,0,5,0,1 @ F,0,0,1,0,5,0,1 @ F,0,0,1,0,5,0,1"
   unit="px"
   method="auto"
   mode="F"
   radius="5"
   chamfer_steps="1"
   flexible="false"
   use_knot_distance="true"
   apply_no_radius="true"
   apply_with_radius="true"
   only_selected="false"
   hide_knots="false" /></defs>
<g
   id="palette">
	<ellipse
   id="white"
   class="st0"
   cx="-80.2"
   cy="-10"
   rx="19.8"
   ry="20" />
	<ellipse
   id="gray"
   class="st1"
   cx="-80.2"
   cy="-60"
   rx="19.8"
   ry="20" />
	<ellipse
   id="black"
   class="st2"
   cx="-80.2"
   cy="-110"
   rx="19.8"
   ry="20" />
	<ellipse
   id="lightblue"
   class="st3"
   cx="-30.2"
   cy="-60"
   rx="19.8"
   ry="20" />
	<ellipse
   id="darkblue"
   class="st4"
   cx="-30.2"
   cy="-110"
   rx="19.8"
   ry="20" />
	<ellipse
   id="red"
   class="st5"
   cx="19.8"
   cy="-60"
   rx="19.8"
   ry="20" />
	<ellipse
   id="red-6"
   class="st6"
   cx="-30.2"
   cy="-160"
   rx="19.8"
   ry="20" />
	<ellipse
   id="red-6-8"
   class="st7"
   cx="19.8"
   cy="-110"
   rx="19.8"
   ry="20" />
	<ellipse
   id="yellow"
   class="st8"
   cx="69.8"
   cy="-60"
   rx="19.8"
   ry="20" />
	<ellipse
   id="orange"
   class="st9"
   cx="69.8"
   cy="-110"
   rx="19.8"
   ry="20" />
	<ellipse
   id="brown"
   class="st10"
   cx="69.8"
   cy="-160"
   rx="19.8"
   ry="20" />
	<ellipse
   id="green"
   class="st11"
   cx="119.8"
   cy="-60"
   rx="19.8"
   ry="20" />
</g>

<g
   id="de-6"
   transform="translate(-114.52786,-0.9849714)"
   style="enable-background:new 0 0 78 62">
	<g
   id="Group"
   transform="translate(118.52786,4.9849714)">
		<path
   id="Rectangle-3"
   class="st12"
   d="M57.4-2H12.6c-5,0-6.7,0.6-8.5,1.5c-2,1-3.5,2.6-4.5,4.5S-2,7.6-2,12.6v28.9    c0,4.9,0.6,6.7,1.5,8.5c1,2,2.6,3.5,4.5,4.5c1.8,1,3.6,1.5,8.5,1.5h44.9c4.9,0,6.7-0.6,8.5-1.5c2-1,3.5-2.6,4.5-4.5    c1-1.8,1.5-3.6,1.5-8.5V12.6c0-4.9-0.6-6.7-1.5-8.5c-1-2-2.6-3.5-4.5-4.5C64.1-1.4,62.4-2,57.4-2z" />
	</g>
</g>





<path
   id="path7977-9"
   style="enable-background:new 0 0 78 62;fill:#eeeeee;fill-opacity:1;stroke:#000000;stroke-width:0;stroke-linejoin:bevel;stroke-opacity:0;paint-order:markers stroke fill"
   d="m 315.28977,243.43006 c -0.44675,1.17087 -0.78429,2.39185 -1.00388,3.62901 -0.48116,2.71086 0.16516,7.20563 0.0857,9.96224 -0.19174,6.65184 -2.65909,13.12074 -6.30474,18.65545 -1.5182,2.30489 -4.53954,5.68187 -5.76806,8.14561 -0.43213,0.86661 -1.15997,2.68021 -1.52131,4.05543 l -0.73129,4.9267 c -0.12044,2.85171 0.26443,5.76658 1.16967,8.52827 0.85837,2.61874 3.18666,6.50425 4.9755,8.60366 3.92395,4.60521 9.0461,7.77485 14.91494,10.15958 2.55773,1.0393 6.89258,2.19752 9.63403,2.51986 5.82949,0.68543 11.86867,0.50203 17.69078,0.0258 2.75215,-0.22514 6.94572,1.69703 5.50594,2.94836 -0.13899,0.12079 -0.15223,0.65914 -0.25063,1.03397 -2.21662,1.0253 -4.54845,2.31277 -6.16701,3.41696 -8.39193,5.725 -17.03985,12.12493 -21.43511,20.98172 -1.2259,2.47029 -2.48789,6.80021 -2.75016,9.54498 -0.98955,10.35646 3.71511,21.84075 12.58516,26.56991 2.42949,1.29531 6.90562,2.06852 9.50276,2.99593 6.26702,2.23788 11.66329,6.5861 15.80054,11.76363 1.72293,2.15615 3.98905,6.07468 5.95257,8.00441 0.69066,0.67878 2.1878,1.92038 3.38406,2.68901 l 4.47068,2.22983 c 2.67492,0.99576 5.56309,1.53236 8.46935,1.52484 2.75582,-0.007 7.17342,-1.02111 9.72286,-2.07365 5.59238,-2.3088 10.19052,-6.20568 14.27211,-11.05036 1.77882,-2.11138 4.2238,-5.87083 5.37751,-8.37849 2.45329,-5.33237 4.13305,-11.14013 5.47921,-16.82446 0.63634,-2.68702 3.7622,-6.08474 4.50736,-4.32874 0.072,0.16959 0.57597,0.36123 0.90227,0.57072 0.29039,2.42396 0.80275,5.03401 1.35242,6.9135 2.85156,9.75033 6.26562,19.95108 13.33072,26.86812 1.97056,1.92926 5.69367,4.47529 8.22306,5.57289 9.54379,4.14144 21.92103,3.21791 29.15972,-3.75662 1.98266,-1.91031 4.09917,-5.93102 5.78375,-8.11446 4.06497,-5.26874 9.87001,-9.05579 16.07261,-11.39061 2.58303,-0.97232 7.01649,-1.9287 9.45854,-3.1998 0.85898,-0.44711 2.50349,-1.48038 3.60416,-2.38057 l 3.49173,-3.57341 c 1.77362,-2.23629 3.17083,-4.81312 4.06176,-7.57946 0.84481,-2.62314 1.2546,-7.12573 1.0414,-9.87565 -0.46767,-6.03213 -2.75174,-11.62058 -6.09802,-16.99948 -1.45836,-2.34422 -4.28594,-5.82323 -6.31435,-7.69539 -4.31327,-3.981 -9.32112,-7.37785 -14.31125,-10.41467 -2.35888,-1.43553 -4.61394,-5.45699 -2.71362,-5.62305 0.18399,-0.0161 0.52384,-0.44181 0.82475,-0.68851 2.39419,0.47234 5.03346,0.79633 6.98972,0.85433 10.15429,0.30103 20.8993,0.21165 29.66104,-4.37017 2.44377,-1.27794 6.0225,-4.0417 7.84801,-6.10811 6.88794,-7.79691 9.83474,-19.84885 5.43845,-28.8885 -1.20413,-2.47595 -4.36927,-5.73153 -5.92528,-8.00838 -3.75473,-5.49415 -5.56127,-12.18493 -5.8651,-18.80546 -0.12653,-2.75707 0.33728,-7.27024 -0.11697,-9.98555 -0.15978,-0.95511 -0.64173,-2.83622 -1.15773,-4.1612 l -2.30482,-4.4232 c -1.57876,-2.37787 -3.60374,-4.51248 -5.95938,-6.21465 -2.23369,-1.61406 -6.39938,-3.39116 -9.08059,-4.03817 -5.88141,-1.41925 -11.90212,-0.96411 -18.05182,0.55622 -2.68013,0.66258 -6.8629,2.262 -9.27024,3.6126 -5.11904,2.87197 -9.89826,6.58798 -14.32849,10.39545 -2.0942,1.79981 -6.60334,2.70212 -6.17404,0.8435 0.0416,-0.17996 -0.25878,-0.62689 -0.40042,-0.98931 1.18888,-2.13088 2.30974,-4.55268 2.96932,-6.39501 3.42414,-9.56429 6.66165,-19.81314 5.0116,-29.5619 -0.46023,-2.71907 -1.98941,-6.97801 -3.39057,-9.35274 -5.28681,-8.96019 -15.84093,-15.47915 -25.79668,-14.09144 -2.72686,0.38009 -6.80068,2.3884 -9.44693,3.16467 -6.38552,1.87318 -13.30906,1.52218 -19.69945,-0.23471 -2.66123,-0.73165 -6.80328,-2.55761 -9.52606,-2.96467 -0.95774,-0.14318 -2.89347,-0.27228 -4.31305,-0.19097 l -4.92244,0.82838 c -2.74935,0.76669 -5.41018,2.03449 -7.75698,3.74884 -2.22531,1.62559 -5.19972,5.02591 -6.64359,7.37596 -3.16725,5.15498 -4.59835,11.02336 -5.05279,17.34188 -0.19805,2.75372 0.0363,7.22284 0.57692,9.92971 1.14953,5.75599 3.20991,11.45139 5.46202,16.84136 1.06458,2.54787 0.5288,7.12301 -1.1062,6.14038 -0.15791,-0.0949 -0.67714,0.0547 -1.06427,0.077 -1.66012,-1.79137 -3.61363,-3.61103 -5.164,-4.80921 -8.03805,-6.21208 -16.78275,-12.44725 -26.56427,-13.89049 -2.7282,-0.40254 -7.24671,-0.27136 -9.93818,0.32739 -8.88595,1.9768 -17.24769,8.35712 -20.37493,16.55322 z m 80.18283,22.65368 52.35524,0.20399 15.9709,49.85454 -42.48016,30.60007 -42.2272,-30.94572 z"
   transform="matrix(0.04967972,0.15040773,-0.15040773,0.04967972,63.5401,-47.015555)"
   inkscape:label="flower"
   inkscape:path-effect="#path-effect8448"
   inkscape:original-d="M 315.28977 243.43006 C 314.84302 244.60093 314.50548 245.82191 314.28589 247.05907 C 313.80473 249.76993 314.45105 254.2647 314.37159 257.02131 C 314.17985 263.67315 311.7125 270.14205 308.06685 275.67676 C 306.54865 277.98165 303.52731 281.35863 302.29879 283.82237 C 301.86666 284.68898 301.13882 286.50258 300.77748 287.8778 L 300.04619 292.8045 C 299.92575 295.65621 300.31062 298.57108 301.21586 301.33277 C 302.07423 303.95151 304.40252 307.83702 306.19136 309.93643 C 310.11531 314.54164 315.23746 317.71128 321.1063 320.09601 C 323.66403 321.13531 327.99888 322.29353 330.74033 322.61587 C 336.56982 323.3013 342.609 323.1179 348.43111 322.64162 C 351.18326 322.41648 355.37683 324.33865 353.93705 325.58998 C 353.79806 325.71077 353.78482 326.24912 353.68642 326.62395 C 351.4698 327.64925 349.13797 328.93672 347.51941 330.04091 C 339.12748 335.76591 330.47956 342.16584 326.0843 351.02263 C 324.8584 353.49292 323.59641 357.82284 323.33414 360.56761 C 322.34459 370.92407 327.04925 382.40836 335.9193 387.13752 C 338.34879 388.43283 342.82492 389.20604 345.42206 390.13345 C 351.68908 392.37133 357.08535 396.71955 361.2226 401.89708 C 362.94553 404.05323 365.21165 407.97176 367.17517 409.90149 C 367.86583 410.58027 369.36297 411.82187 370.55923 412.5905 L 375.02991 414.82033 C 377.70483 415.81609 380.593 416.35269 383.49926 416.34517 C 386.25508 416.33804 390.67268 415.32406 393.22212 414.27152 C 398.8145 411.96272 403.41264 408.06584 407.49423 403.22116 C 409.27305 401.10978 411.71803 397.35033 412.87174 394.84267 C 415.32503 389.5103 417.00479 383.70254 418.35095 378.01821 C 418.98729 375.33119 422.11315 371.93347 422.85831 373.68947 C 422.93027 373.85906 423.43428 374.0507 423.76058 374.26019 C 424.05097 376.68415 424.56333 379.2942 425.113 381.17369 C 427.96456 390.92402 431.37862 401.12477 438.44372 408.04181 C 440.41428 409.97107 444.13739 412.5171 446.66678 413.6147 C 456.21057 417.75614 468.58781 416.83261 475.8265 409.85808 C 477.80916 407.94777 479.92567 403.92706 481.61025 401.74362 C 485.67522 396.47488 491.48026 392.68783 497.68286 390.35301 C 500.26589 389.38069 504.69935 388.42431 507.1414 387.15321 C 508.00038 386.7061 509.64489 385.67283 510.74556 384.77264 L 514.23729 381.19923 C 516.01091 378.96294 517.40812 376.38611 518.29905 373.61977 C 519.14386 370.99663 519.55365 366.49404 519.34045 363.74412 C 518.87278 357.71199 516.58871 352.12354 513.24243 346.74464 C 511.78407 344.40042 508.95649 340.92141 506.92808 339.04925 C 502.61481 335.06825 497.60696 331.6714 492.61683 328.63458 C 490.25795 327.19905 488.00289 323.17759 489.90321 323.01153 C 490.0872 322.99546 490.42705 322.56972 490.72796 322.32302 C 493.12215 322.79536 495.76142 323.11935 497.71768 323.17735 C 507.87197 323.47838 518.61698 323.389 527.37872 318.80718 C 529.82249 317.52924 533.40122 314.76548 535.22673 312.69907 C 542.11467 304.90216 545.06147 292.85022 540.66518 283.81057 C 539.46105 281.33462 536.29591 278.07904 534.7399 275.80219 C 530.98517 270.30804 529.17863 263.61726 528.8748 256.99673 C 528.74827 254.23966 529.21208 249.72649 528.75783 247.01118 C 528.59805 246.05607 528.1161 244.17496 527.6001 242.84998 L 525.29528 238.42678 C 523.71652 236.04891 521.69154 233.9143 519.3359 232.21213 C 517.10221 230.59807 512.93652 228.82097 510.25531 228.17396 C 504.3739 226.75471 498.35319 227.20985 492.20349 228.73018 C 489.52336 229.39276 485.34059 230.99218 482.93325 232.34278 C 477.81421 235.21475 473.03499 238.93076 468.60476 242.73823 C 466.51056 244.53804 462.00142 245.44035 462.43072 243.58173 C 462.47229 243.40177 462.17194 242.95484 462.0303 242.59242 C 463.21918 240.46154 464.34004 238.03974 464.99962 236.19741 C 468.42376 226.63312 471.66127 216.38427 470.01122 206.63551 C 469.55099 203.91644 468.02181 199.6575 466.62065 197.28277 C 461.33384 188.32258 450.77972 181.80362 440.82397 183.19133 C 438.09711 183.57142 434.02329 185.57973 431.37704 186.356 C 424.99152 188.22918 418.06798 187.87818 411.67759 186.12129 C 409.01636 185.38964 404.87431 183.56368 402.15153 183.15662 C 401.19379 183.01344 399.25806 182.88434 397.83848 182.96565 L 392.91604 183.79403 C 390.16669 184.56072 387.50586 185.82852 385.15906 187.54287 C 382.93375 189.16846 379.95934 192.56878 378.51547 194.91883 C 375.34822 200.07381 373.91712 205.94219 373.46268 212.26071 C 373.26463 215.01443 373.49901 219.48355 374.0396 222.19042 C 375.18913 227.94641 377.24951 233.64181 379.50162 239.03178 C 380.5662 241.57965 380.03042 246.15479 378.39542 245.17216 C 378.23751 245.07725 377.71828 245.22683 377.33115 245.24915 C 375.67103 243.45778 373.71752 241.63812 372.16715 240.43994 C 364.1291 234.22786 355.3844 227.99269 345.60288 226.54945 C 342.87468 226.14691 338.35617 226.27809 335.6647 226.87684 C 326.77875 228.85364 318.41701 235.23396 315.28977 243.43006 z M 395.4726 266.08374 L 447.82784 266.28773 L 463.79874 316.14227 L 421.31858 346.74234 L 379.09138 315.79662 L 395.4726 266.08374 z " /><path
   id="path7977"
   style="enable-background:new 0 0 78 62;fill:#1254a9;fill-opacity:1;stroke:#000000;stroke-width:0;stroke-linejoin:bevel;stroke-opacity:0;paint-order:markers stroke fill"
   d="M 315.28389 243.43545 C 314.83714 244.60632 314.49706 245.81139 314.27747 247.04855 C 313.79631 249.75941 314.44595 254.26931 314.36649 257.02592 C 314.17475 263.67775 311.70146 270.14418 308.05582 275.67888 C 306.53762 277.98377 303.52889 281.35558 302.30037 283.81931 C 301.86824 284.68593 301.13433 286.50219 300.77299 287.87741 L 300.0397 292.81488 C 299.91926 295.66658 300.30317 298.57335 301.20841 301.33504 C 302.06679 303.95378 304.39537 307.83523 306.18421 309.93464 C 310.10816 314.53986 315.24499 317.71694 321.11383 320.10167 C 323.67156 321.14097 327.99192 322.3022 330.73336 322.62453 C 336.56285 323.30996 342.61495 323.11421 348.43706 322.63793 C 351.1892 322.41278 355.3762 324.325 353.93642 325.57632 C 353.79521 325.69904 353.7796 326.24902 353.68102 326.63261 C 351.46786 327.65764 349.14068 328.93873 347.52522 330.0408 C 339.13328 335.76581 330.47851 342.16918 326.08325 351.02597 C 324.85735 353.49626 323.58661 357.82277 323.32435 360.56754 C 322.3348 370.924 327.05363 382.40155 335.92368 387.13071 C 338.35317 388.42602 342.82387 389.20938 345.42101 390.13679 C 351.68802 392.37467 357.08804 396.72413 361.22529 401.90166 C 362.94822 404.05781 365.21856 407.97929 367.18208 409.90902 C 367.87274 410.5878 369.36208 411.8263 370.55833 412.59493 L 375.02261 414.81745 C 377.69752 415.81321 380.58772 416.35152 383.49399 416.344 C 386.2498 416.33687 390.68065 415.32051 393.2301 414.26798 C 398.82248 411.95917 403.41937 408.06292 407.50096 403.21824 C 409.27978 401.10686 411.71461 397.3451 412.86832 394.83744 C 415.32162 389.50507 417.00682 383.69027 418.35297 378.00594 C 418.98931 375.31892 422.11601 371.94226 422.86117 373.69826 C 422.93299 373.86752 423.43578 374.04815 423.76107 374.25729 C 424.05165 376.68046 424.5725 379.29804 425.12193 381.17669 C 427.97348 390.92702 431.38128 401.11843 438.44638 408.03547 C 440.41694 409.96473 444.13554 412.51342 446.66493 413.61103 C 456.20872 417.75247 468.58517 416.82815 475.82386 409.85363 C 477.80653 407.94331 479.92288 403.92464 481.60746 401.7412 C 485.67243 396.47245 491.4884 392.69005 497.691 390.35523 C 500.27403 389.38291 504.70126 388.42811 507.1433 387.15701 C 508.00229 386.7099 509.63524 385.6723 510.73591 384.77211 L 514.23543 381.19711 C 516.00906 378.96082 517.41704 376.38911 518.30797 373.62277 C 519.15278 370.99963 519.56099 366.48769 519.34779 363.73777 C 518.88012 357.70564 516.58358 352.12034 513.2373 346.74144 C 511.77894 344.39723 508.96167 340.92162 506.93326 339.04946 C 502.61998 335.06845 497.61636 331.67612 492.62622 328.6393 C 490.26735 327.20377 488.00416 323.17547 489.90448 323.00941 C 490.08888 322.9933 490.42634 322.57545 490.728 322.32776 C 493.12193 322.79994 495.76491 323.12098 497.72083 323.17896 C 507.87512 323.47999 518.62168 323.38437 527.38341 318.80255 C 529.82718 317.52461 533.40764 314.76662 535.23315 312.70021 C 542.12109 304.9033 545.05868 292.8478 540.66239 283.80815 C 539.45826 281.3322 536.30091 278.07192 534.7449 275.79506 C 530.99017 270.30092 529.18035 263.61061 528.87652 256.99009 C 528.74999 254.23302 529.20246 249.73376 528.74821 247.01845 C 528.58843 246.06334 528.11861 244.16909 527.6026 242.84412 L 525.28841 238.4147 C 523.70965 236.03683 521.6866 233.92312 519.33096 232.22094 C 517.09727 230.60689 512.93311 228.82198 510.25191 228.17498 C 504.37049 226.75572 498.36256 227.20366 492.21286 228.72398 C 489.53272 229.38657 485.34314 231.00347 482.9358 232.35407 C 477.81676 235.22604 473.03718 238.92271 468.60695 242.73018 C 466.51275 244.53 462.00365 245.4479 462.43295 243.58928 C 462.47441 243.40982 462.17237 242.95772 462.03159 242.59654 C 463.2206 240.46554 464.34159 238.05247 465.00124 236.20995 C 468.42539 226.64567 471.65193 216.38281 470.00188 206.63405 C 469.54166 203.91497 468.01983 199.66365 466.61866 197.28893 C 461.33185 188.32873 450.78617 181.811 440.83042 183.19871 C 438.10355 183.57881 434.01864 185.58138 431.37239 186.35765 C 424.98687 188.23082 418.07643 187.87635 411.68604 186.11946 C 409.02481 185.38782 404.87793 183.56546 402.15515 183.1584 C 401.19741 183.01522 399.26199 182.88673 397.84241 182.96804 L 392.91481 183.79005 C 390.16546 184.55673 387.51771 185.81951 385.17092 187.53386 C 382.94561 189.15946 379.96455 192.57991 378.52067 194.92995 C 375.35342 200.08494 373.92417 205.94146 373.46973 212.25998 C 373.27168 215.0137 373.50091 219.48424 374.0415 222.19111 C 375.19104 227.94709 377.24251 233.63644 379.49461 239.02641 C 380.5592 241.57428 380.03466 246.1547 378.39966 245.17206 C 378.24172 245.07713 377.71467 245.22563 377.32743 245.24798 C 375.66805 243.45839 373.71419 241.63583 372.16546 240.43892 C 364.12741 234.22684 355.38441 227.98496 345.60289 226.54172 C 342.87469 226.13918 338.34577 226.28458 335.65429 226.88333 C 326.76835 228.86013 318.41113 235.23935 315.28389 243.43545 z M 395.48664 266.07441 L 447.82896 266.29076 L 463.8047 316.14637 L 421.32768 346.75112 L 379.09798 315.80509 L 395.48664 266.07441 z "
   transform="matrix(0.03449981,0.10444982,-0.10444982,0.03449981,56.041743,-23.177476)"
   inkscape:label="overlay" /><path
   d="m 38.755891,35.715295 -2.067699,1.13046 c -0.630104,0.344493 -1.409446,0.09256 -1.74071,-0.5627 -0.131912,-0.260929 -0.177431,-0.559802 -0.129511,-0.850351 l 0.394895,-2.394353 c 0.02918,-0.176902 -0.02722,-0.357407 -0.150813,-0.482689 l -1.672804,-1.69569 c -0.509764,-0.516738 -0.520195,-1.365384 -0.02329,-1.895502 0.197867,-0.211097 0.457132,-0.348474 0.737658,-0.390864 l 2.311759,-0.349331 c 0.170799,-0.02581 0.318449,-0.137368 0.394833,-0.298319 l 1.03385,-2.178454 c 0.315052,-0.663854 1.087947,-0.936416 1.726311,-0.608784 0.2542,0.130464 0.459954,0.344434 0.585409,0.608784 l 1.03385,2.178454 c 0.07638,0.160951 0.224034,0.272509 0.394833,0.298319 l 2.311759,0.349331 c 0.704476,0.106454 1.192583,0.786646 1.090217,1.519253 -0.04076,0.291728 -0.172866,0.561345 -0.375856,0.767113 l -1.672804,1.69569 c -0.123592,0.125282 -0.17999,0.305787 -0.150813,0.482689 l 0.394895,2.394353 c 0.120339,0.729646 -0.350891,1.42259 -1.05252,1.547734 -0.279393,0.04983 -0.566791,0.0025 -0.817701,-0.134683 l -2.067699,-1.13046 c -0.152768,-0.08352 -0.335274,-0.08352 -0.488042,0 z"
   id="path5070"
   fill="#7ac70c"
   style="stroke-width:0.617028;fill:#eeeeee;fill-opacity:1" /></svg>
