<?xml version="1.0" encoding="UTF-8" standalone="no"?>
<!-- Created with Inkscape (http://www.inkscape.org/) -->

<svg
   width="78mm"
   height="62mm"
   viewBox="0 0 78 62"
   version="1.1"
   id="svg1983"
   inkscape:version="1.1.2 (0a00cf5339, 2022-02-04)"
   sodipodi:docname="flag_gl.svg"
   xmlns:inkscape="http://www.inkscape.org/namespaces/inkscape"
   xmlns:sodipodi="http://sodipodi.sourceforge.net/DTD/sodipodi-0.dtd"
   xmlns="http://www.w3.org/2000/svg"
   xmlns:svg="http://www.w3.org/2000/svg">
  <sodipodi:namedview
     id="namedview1985"
     pagecolor="#ffffff"
     bordercolor="#666666"
     borderopacity="1.0"
     inkscape:pageshadow="2"
     inkscape:pageopacity="0.0"
     inkscape:pagecheckerboard="0"
     inkscape:document-units="mm"
     showgrid="false"
     fit-margin-top="0"
     fit-margin-left="0"
     fit-margin-right="0"
     fit-margin-bottom="0"
     inkscape:zoom="1.1691467"
     inkscape:cx="172.34792"
     inkscape:cy="133.43065"
     inkscape:window-width="1366"
     inkscape:window-height="699"
     inkscape:window-x="0"
     inkscape:window-y="0"
     inkscape:window-maximized="1"
     inkscape:current-layer="layer1" />
  <defs
     id="defs1980">
    <path
       d="m 12.563038,0 44.873924,0 c 4.368442,0 5.952545,0.45484549 7.549582,1.3089503 C 66.583581,2.163055 67.836945,3.416419 68.69105,5.013456 69.545154,6.6104931 70,8.1945956 70,12.563038 v 28.873924 c 0,4.368442 -0.454846,5.952545 -1.30895,7.549582 -0.854105,1.597037 -2.107469,2.850401 -3.704506,3.704506 C 63.389507,53.545155 61.805404,54 57.436962,54 H 12.563038 C 8.1945956,54 6.6104931,53.545155 5.013456,52.69105 3.416419,51.836945 2.163055,50.583581 1.3089503,48.986544 0.45484549,47.389507 0,45.805404 0,41.436962 L 0,12.563038 C 0,8.1945956 0.45484549,6.6104931 1.3089503,5.013456 2.163055,3.416419 3.416419,2.163055 5.013456,1.3089503 6.6104931,0.45484549 8.1945956,0 12.563038,0 Z"
       id="path-1" />
  </defs>
  <g
     inkscape:label="Layer 1"
     inkscape:groupmode="layer"
     id="layer1"
     transform="translate(-111.33473,-27.575389)">
    <path
       d="m 172.77169,29.575389 h -44.87392 c -4.93484,0 -6.69622,0.584513 -8.49278,1.545324 -1.95073,1.043261 -3.48167,2.574205 -4.52494,4.524934 -0.96081,1.796561 -1.54532,3.557943 -1.54532,8.49278 v 28.873924 c 0,4.934837 0.58451,6.696219 1.54532,8.49278 1.04327,1.950729 2.57421,3.481673 4.52494,4.524934 1.79656,0.960811 3.55794,1.545324 8.49278,1.545324 h 44.87392 c 4.93484,0 6.69622,-0.584513 8.49278,-1.545324 1.95073,-1.043261 3.48168,-2.574205 4.52494,-4.524934 0.96081,-1.796561 1.54532,-3.557943 1.54532,-8.49278 V 44.138427 c 0,-4.934837 -0.58451,-6.696219 -1.54532,-8.49278 -1.04326,-1.950729 -2.57421,-3.481673 -4.52494,-4.524934 -1.79656,-0.960811 -3.55794,-1.545324 -8.49278,-1.545324 z"
       id="path3068"
       stroke="#ffffff"
       stroke-width="4"
       fill="#1cb0f6"
       style="fill:#eeeeeb;fill-opacity:1;fill-rule:nonzero" />
    <path
       d="m 185.25697,74.32244 c 0.16917,1.018069 0.15306,1.815637 0.0587,2.647263 -0.20411,1.799548 -0.90616,3.427113 -2.07498,4.810529 -0.92466,1.094381 -1.93405,1.953578 -4.32529,3.063305 l -63.3805,-41.684964 c -0.22675,-1.168047 -0.21749,-2.040147 -0.11384,-2.953308 0.2041,-1.799549 0.90613,-3.427123 2.07499,-4.810529 0.89319,-1.057158 1.86545,-1.894853 4.08601,-2.950914 z"
       id="path3074"
       fill="#4b4b4b"
       style="fill:#1cb0f6;fill-opacity:1;fill-rule:nonzero;stroke:none;stroke-width:1" />
    <path
       d="m 144.76247,48.048222 h 11.14451 c 1.31891,0 2.3881,1.069192 2.3881,2.388107 v 10.705862 c 0,4.396382 -3.56397,7.960365 -7.96036,7.960365 -4.39638,0 -7.96035,-3.563983 -7.96035,-7.960365 V 50.436329 c 0,-1.318915 1.06919,-2.388107 2.3881,-2.388107 z"
       id="Rectangle-15"
       fill="#ff4b4b"
       style="fill-rule:evenodd;stroke:none;stroke-width:1.36463;fill:#1254a9;fill-opacity:1" />
  </g>
</svg>
