<?xml version="1.0" encoding="UTF-8" standalone="no"?>
<svg
   height="62"
   width="78"
   version="1.1"
   xmlns="http://www.w3.org/2000/svg">
  <g id="bn">
    <path
       d="M 61.436964,2 H 16.563038 C 11.628202,2 9.86682,2.5845126 8.070259,3.5453238 6.11953,4.5885852 4.5885862,6.119529 3.5453248,8.070258 2.5845136,9.866819 2.000001,11.628201 2.000001,16.563037 v 28.873926 c 0,4.934836 0.5845126,6.696218 1.5453238,8.492779 C 4.5885862,55.880471 6.11953,57.411415 8.070259,58.454676 9.86682,59.415487 11.628202,60 16.563038,60 h 44.873926 c 4.934836,0 6.696218,-0.584513 8.492779,-1.545324 1.950729,-1.043261 3.481673,-2.574205 4.524934,-4.524934 0.960811,-1.796561 1.545324,-3.557943 1.545324,-8.492779 V 16.563037 c 0,-4.934836 -0.584513,-6.696218 -1.545324,-8.492779 C 73.411416,6.119529 71.880472,4.5885852 69.929743,3.5453238 68.133182,2.5845126 66.3718,2 61.436964,2 Z"
       id="path67"
       style="fill:#78c800;fill-opacity:1;fill-rule:evenodd;stroke:#ffffff;stroke-width:4" />
    <circle
       id="Oval-19"
       cx="33"
       cy="31"
       r="14"
       style="fill:#ff4b4b;fill-rule:nonzero;stroke:none;stroke-width:1" />
  </g>
</svg>
