<?xml version="1.0" encoding="utf-8"?>
<!-- Generator: Adobe Illustrator 28.1.0, SVG Export Plug-In . SVG Version: 6.00 Build 0)  -->
<svg version="1.1"
	 id="svg3624" xmlns:inkscape="http://www.inkscape.org/namespaces/inkscape" xmlns:svg="http://www.w3.org/2000/svg" xmlns:sodipodi="http://sodipodi.sourceforge.net/DTD/sodipodi-0.dtd" inkscape:version="1.1.2 (0a00cf5339, 2022-02-04)"
	 xmlns="http://www.w3.org/2000/svg" xmlns:xlink="http://www.w3.org/1999/xlink" x="0px" y="0px" width="82px"
	 height="65.8723373px" viewBox="0 0 82 65.8723373" style="enable-background:new 0 0 82 65.8723373;" xml:space="preserve">
<style type="text/css">
	.st0{fill:#58CC02;stroke:#FFFFFF;stroke-width:4;}
	.st1{fill:#FFC800;}
	.st2{fill:#1CB0F6;}
	.st3{fill:none;stroke:#FF4B4B;stroke-width:3;stroke-linecap:round;stroke-linejoin:round;stroke-miterlimit:10;}
</style>
<sodipodi:namedview  bordercolor="#666666" borderopacity="1.0" id="namedview3628" inkscape:current-layer="svg3626" inkscape:cx="232.28458" inkscape:cy="1646.1446" inkscape:pagecheckerboard="0" inkscape:pageopacity="0.0" inkscape:pageshadow="2" inkscape:window-height="699" inkscape:window-maximized="1" inkscape:window-width="1366" inkscape:window-x="0" inkscape:window-y="0" inkscape:zoom="1.4142136" pagecolor="#ffffff" showgrid="false">
	</sodipodi:namedview>
<g id="ru">
	<g id="g2884" transform="translate(6.000000, 6.000000)">
		<path id="path2878" class="st0" d="M56.4369621-3H11.5630379C6.628201-3,4.8668194-2.4154873,3.0702581-1.4546762
			C1.119529-0.4114147-0.4114147,1.119529-1.4546762,3.0702581C-2.4154873,4.8668194-3,6.628201-3,11.5630379v28.8739243
			c0,4.9348373,0.5845127,6.6962204,1.5453238,8.4927788c1.0432614,1.9507294,2.5742052,3.4816742,4.5249343,4.5249367
			C4.8668194,54.4154892,6.628201,55,11.5630379,55h44.8739243c4.9348373,0,6.6962166-0.5845108,8.4927788-1.5453224
			c1.9507294-1.0432625,3.4816742-2.5742073,4.5249329-4.5249367C70.4154892,47.1331825,71,45.3717995,71,40.4369621V11.5630379
			c0-4.9348369-0.5845108-6.6962185-1.5453262-8.4927797c-1.0432587-1.9507291-2.5742035-3.4816728-4.5249329-4.5249343
			C63.1331787-2.4154873,61.3717995-3,56.4369621-3z"/>
		<path id="path2880" class="st1" d="M69,35v5.4369621c0,4.3684425-0.4548492,5.9525452-1.3089523,7.5495834
			c-0.8541031,1.5970345-2.1074677,2.850399-3.7045059,3.7045059C62.3895073,52.5451546,60.8054047,53,56.4369621,53H11.5630379
			c-4.3684425,0-5.9525447-0.4548454-7.549582-1.3089485C2.416419,50.8369446,1.1630549,49.58358,0.3089503,47.9865456
			C-0.5451545,46.3895073-1,44.8054047-1,40.4369621V35H69z"/>
		<path id="path2882" class="st2" d="M11.5630379-1h44.8739243c4.3684425,0,5.9525452,0.4548455,7.5495796,1.3089503
			c1.5970383,0.8541046,2.8504028,2.1074686,3.7045059,3.7045054S69,7.1945953,69,11.5630379V17H-1v-5.4369621
			c0-4.3684425,0.4548455-5.9525447,1.3089503-7.549582S2.416419,1.1630549,4.0134559,0.3089503S7.1945953-1,11.5630379-1z"/>
	</g>
</g>
<path class="st3" d="M24,20l0.0000153,0.0000153c8.8365479,8.8365479,23.1634216,8.8365479,31.9999695,0L56,20"/>
<path class="st3" d="M24,44l0.0000153-0.0000153c8.8365479-8.8365479,23.1634216-8.8365479,31.9999695,0L56,44"/>
<line class="st3" x1="40" y1="16" x2="40" y2="46"/>
</svg>
