<?xml version="1.0" encoding="utf-8"?>
<!-- Generator: Adobe Illustrator 24.0.0, SVG Export Plug-In . SVG Version: 6.00 Build 0)  -->
<svg version="1.1"
	 id="svg2227" xmlns:inkscape="http://www.inkscape.org/namespaces/inkscape" xmlns:sodipodi="http://sodipodi.sourceforge.net/DTD/sodipodi-0.dtd" xmlns:svg="http://www.w3.org/2000/svg"
	 xmlns="http://www.w3.org/2000/svg" xmlns:xlink="http://www.w3.org/1999/xlink" x="0px" y="0px" viewBox="0 0 78 62"
	 style="enable-background:new 0 0 78 62;" xml:space="preserve">
<style type="text/css">
	.st0{fill:#FFFFFF;}
	.st1{fill:#EEEEEE;}
	.st2{fill:#4C4C4C;}
	.st3{fill:#1CB0F6;}
	.st4{fill:#1254A9;}
	.st5{fill:#FF4B4B;}
	.st6{fill:#9069CD;}
	.st7{fill:#FFAADE;}
	.st8{fill:#FFC800;}
	.st9{fill:#FF9600;}
	.st10{fill:#FFCE8E;}
	.st11{fill:#78C800;}
	.st12{fill:#FF4B4B;stroke:#FFFFFF;stroke-width:4;}
	.st13{fill:#FFFFFF;stroke:#000000;}
</style>
<sodipodi:namedview  bordercolor="#000000" borderopacity="0.25" id="namedview176" inkscape:current-layer="de-6" inkscape:cx="14.808844" inkscape:cy="-2.3329001" inkscape:deskcolor="#d1d1d1" inkscape:pagecheckerboard="0" inkscape:pageopacity="0.0" inkscape:showpageshadow="2" inkscape:window-height="991" inkscape:window-maximized="1" inkscape:window-width="1920" inkscape:window-x="-9" inkscape:window-y="-9" inkscape:zoom="4.9294867" pagecolor="#ffffff" showgrid="false">
	</sodipodi:namedview>
<defs>
	
		<inkscape:path-effect  apply_no_radius="true" apply_with_radius="true" chamfer_steps="1" effect="fillet_chamfer" flexible="false" hide_knots="false" id="path-effect1612" is_visible="true" lpeversion="1" method="auto" mode="F" nodesatellites_param="F,0,0,1,0,6,0,1 @ F,0,0,1,0,6,0,1 @ F,0,0,1,0,6,0,1 | F,0,0,1,0,6,0,1 @ F,0,0,1,0,6,0,1 | F,0,0,1,0,6,0,1 @ F,0,0,1,0,6,0,1 | F,0,0,1,0,6,0,1 @ F,0,0,1,0,6,0,1 | F,0,0,1,0,6,0,1 @ F,0,0,1,0,6,0,1 | F,0,0,1,0,6,0,1 @ F,0,0,1,0,6,0,1 @ F,0,0,1,0,6,0,1 | F,0,0,1,0,6,0,1 @ F,0,0,1,0,6,0,1 @ F,0,0,1,0,6,0,1 | F,0,0,1,0,6,0,1 @ F,0,0,1,0,6,0,1 | F,0,0,1,0,6,0,1 @ F,0,0,1,0,6,0,1 | F,0,0,1,0,6,0,1 @ F,0,0,1,0,6,0,1 | F,0,0,1,0,6,0,1 @ F,0,0,1,0,6,0,1 | F,0,0,1,0,6,0,1 @ F,0,0,1,0,6,0,1 @ F,0,0,1,0,6,0,1" only_selected="false" radius="6" unit="px" use_knot_distance="true">
		</inkscape:path-effect>
</defs>
<g id="palette">
	<ellipse id="white" class="st0" cx="-80.2" cy="-10" rx="19.8" ry="20"/>
	<ellipse id="gray" class="st1" cx="-80.2" cy="-60" rx="19.8" ry="20"/>
	<ellipse id="black" class="st2" cx="-80.2" cy="-110" rx="19.8" ry="20"/>
	<ellipse id="lightblue" class="st3" cx="-30.2" cy="-60" rx="19.8" ry="20"/>
	<ellipse id="darkblue" class="st4" cx="-30.2" cy="-110" rx="19.8" ry="20"/>
	<ellipse id="red" class="st5" cx="19.8" cy="-60" rx="19.8" ry="20"/>
	<ellipse id="red-6" class="st6" cx="-30.2" cy="-160" rx="19.8" ry="20"/>
	<ellipse id="red-6-8" class="st7" cx="19.8" cy="-110" rx="19.8" ry="20"/>
	<ellipse id="yellow" class="st8" cx="69.8" cy="-60" rx="19.8" ry="20"/>
	<ellipse id="orange" class="st9" cx="69.8" cy="-110" rx="19.8" ry="20"/>
	<ellipse id="brown" class="st10" cx="69.8" cy="-160" rx="19.8" ry="20"/>
	<ellipse id="green" class="st11" cx="119.8" cy="-60" rx="19.8" ry="20"/>
</g>
<g id="de-6" transform="translate(-114.52786,-0.9849714)">
	<g id="Group" transform="translate(118.52786,4.9849714)">
		<path id="Rectangle-3" class="st12" d="M57.4-2H12.6C7.6-2,5.9-1.4,4.1-0.5c-2,1-3.5,2.6-4.5,4.5C-1.4,5.9-2,7.6-2,12.6v28.9
			c0,4.9,0.6,6.7,1.5,8.5c1,2,2.6,3.5,4.5,4.5c1.8,1,3.6,1.5,8.5,1.5h44.9c4.9,0,6.7-0.6,8.5-1.5c2-1,3.5-2.6,4.5-4.5
			c1-1.8,1.5-3.6,1.5-8.5V12.6c0-4.9-0.6-6.7-1.5-8.5c-1-2-2.6-3.5-4.5-4.5C64.1-1.4,62.4-2,57.4-2z"/>
		<path id="Path" class="st4" d="M12.6,0H35v27c0,2.2-1.8,4-4,4H0V12.6c0-4.4,0.5-6,1.3-7.5S3.4,2.2,5,1.3S8.2,0,12.6,0z"/>
		<g id="g886" transform="matrix(0.125,0,0,0.125,-107.11317,-15.953885)">
			
				<path id="path882" inkscape:original-d="m 983.03969,190.65239 c 4.4815,-1.41699 9.10597,-2.33402 13.78907,-2.73437 4.53964,0.0521 9.06074,0.58902 13.48634,1.60156 -16.69707,-65.65038 -11.30073,-58.51202 -27.27541,1.13281 z m -28.86718,14.31641 c 6.88864,-6.10505 15.01763,-10.64595 23.82812,-13.31055 -46.39335,-46.5942 -40.38974,-48.49807 -23.82812,13.31055 z m 62.09959,-13.92578 c 8.6515,2.77751 16.6093,7.37237 23.3399,13.47656 17.2325,-63.11069 20.9438,-57.76015 -23.3399,-13.47656 z m -79.44334,41.79687 c 2.6617,-8.80965 7.19924,-16.93857 13.30078,-23.82812 -64.3704,-17.77994 -57.73698,-20.60807 -13.30078,23.82812 z m 107.14844,-23.95508 c 6.1042,6.73062 10.6991,14.68838 13.4766,23.33985 46.4917,-46.03684 47.0101,-39.53934 -13.4766,-23.33985 z m -108.1543,28.99414 c -64.80956,17.01429 -61.9454,10.98846 0,27.58789 -1.42101,-4.48428 -2.34133,-9.11206 -2.74414,-13.79882 0.40352,-4.68347 1.32383,-9.30795 2.74414,-13.78907 z m 123.1543,0.30274 c 1.0126,4.42559 1.5495,8.94668 1.6016,13.48633 -0.4028,4.68677 -1.3232,9.31455 -2.7442,13.79882 63.2499,-17.01385 63.5449,-10.57112 1.1426,-27.28515 z m -122.14844,32.31445 c -46.57824,46.38362 -48.51458,40.39474 13.30078,23.82813 -6.10154,-6.88955 -10.63908,-15.01848 -13.30078,-23.82813 z m 120.00984,0 c -2.6646,8.8105 -7.2055,16.9395 -13.3106,23.82813 64.3665,17.77122 57.7601,20.62147 13.3106,-23.82813 z m -102.66609,27.87109 c -17.77993,64.37039 -20.60808,57.73699 23.82812,13.30079 -8.80965,-2.66171 -16.93857,-7.19925 -23.82812,-13.30079 z m 85.31249,0 c -6.8895,6.10154 -15.0185,10.63908 -23.8281,13.30079 46.3836,46.57824 40.3948,48.51456 23.8281,-13.30079 z m -56.45507,14.30664 c 17.02637,64.79978 10.99757,61.95519 27.58797,0 -4.4811,1.42031 -9.1056,2.34063 -13.78914,2.74415 -4.68677,-0.40281 -9.31455,-1.32313 -13.79883,-2.74415 z" inkscape:path-effect="#path-effect1612" sodipodi:nodetypes="cccccccccccccccccccccccccccccccccccccccc" class="st1" d="
				M988.8,189.1c0.7-0.1,1.4-0.3,2-0.4c3.3-0.6,8.6-0.8,11.9-0.4c0.5,0.1,1.1,0.1,1.6,0.2c3.3,0.4,5.2-1.5,4.4-4.8
				c-14.4-57.3-10.6-51.4-24.3,1.2C983.7,188.1,985.6,189.8,988.8,189.1z M958.8,201.2c4.2-3.1,8.7-5.6,13.5-7.5
				c3.1-1.3,3.8-3.9,1.4-6.3c-40.4-41-36-42.3-21.2,11.8C953.5,202.4,956.2,203.2,958.8,201.2z M1021.9,193.1c4.6,2,9,4.5,13.1,7.6
				c2.7,2,5.3,1.2,6.2-2c15.3-55,17.8-50.9-20.7-11.9C1018.2,189.1,1018.8,191.8,1021.9,193.1z M938.8,227.2c2-4.8,4.5-9.3,7.5-13.5
				c2-2.7,1.2-5.4-2-6.3c-56.2-15.7-51-17.5-11.8,21.2C934.9,230.9,937.6,230.3,938.8,227.2z M1047.8,213.5c3,4,5.6,8.4,7.6,13.1
				c1.3,3,4,3.7,6.4,1.4c40.8-40,40.9-35.2-12-20.7C1046.6,208.2,1045.8,210.9,1047.8,213.5z M930,239.4
				c-56.8,14.6-54.5,10.3,0,24.5c3.2,0.8,5-1,4.3-4.3c-0.1-0.7-0.3-1.4-0.4-2.1c-0.6-3.3-0.6-8.6,0-11.9c0.1-0.7,0.3-1.4,0.4-2
				C935,240.4,933.2,238.6,930,239.4z M1060,244.1c0.1,0.5,0.1,1.1,0.2,1.6c0.3,3.3,0.1,8.7-0.4,11.9c-0.1,0.7-0.3,1.4-0.4,2.1
				c-0.7,3.2,1.1,5.1,4.3,4.3c55.5-14.6,55.8-9.9,1.1-24.2C1061.6,238.9,1059.6,240.8,1060,244.1L1060,244.1z M932.6,274.7
				c-41,40.4-42.3,36,11.8,21.2c3.2-0.9,4-3.6,2-6.2c-3.1-4.2-5.6-8.7-7.5-13.5C937.6,273.1,934.9,272.4,932.6,274.7z M1054.8,276.1
				c-2,4.8-4.5,9.3-7.5,13.5c-2,2.7-1.2,5.4,2,6.3c56.2,15.7,51,17.5,11.8-21.2C1058.7,272.4,1056.1,273.1,1054.8,276.1
				L1054.8,276.1z M952.6,304.1c-15.7,56.2-17.5,51,21.2,11.8c2.3-2.4,1.6-5-1.4-6.3c-4.8-2-9.3-4.5-13.5-7.5
				C956.2,300.2,953.5,301,952.6,304.1z M1034.8,302.1c-4.2,3.1-8.7,5.6-13.5,7.5c-3.1,1.3-3.8,3.9-1.4,6.3
				c40.4,41,36,42.3,21.2-11.8C1040.2,301,1037.5,300.2,1034.8,302.1z M984.5,318.5c14.7,56.8,10.3,54.5,24.5,0c0.8-3.2-1-5-4.3-4.3
				c-0.7,0.1-1.4,0.3-2,0.4c-3.3,0.6-8.6,0.6-11.9,0c-0.7-0.1-1.4-0.3-2.1-0.4C985.6,313.5,983.7,315.3,984.5,318.5z"/>
			<circle id="circle884-5" class="st1" cx="996.9" cy="251.6" r="54"/>
		</g>
	</g>
</g>
<polygon id="path1553" class="st13" points="-81.4,-51.9 -81.4,-51.9 -81.4,-51.9 -81.4,-51.9 "/>
<polygon id="path1555" class="st13" points="21.5,18.8 21.5,18.8 21.5,18.8 21.5,18.8 "/>
<polygon id="path1557" class="st13" points="21.5,18.8 21.5,18.8 21.5,18.8 21.5,18.8 "/>
<polygon id="path1559" class="st13" points="-75.1,-47.5 -75.1,-47.5 -75.1,-47.5 -75.1,-47.5 "/>
<polygon id="path1561" class="st13" points="-72.9,-46.6 -72.9,-46.6 -72.9,-46.6 -72.9,-46.6 "/>
</svg>
