<?xml version="1.0" encoding="UTF-8" standalone="no"?>
<svg
   height="62"
   width="78"
   version="1.1"
   xmlns="http://www.w3.org/2000/svg">
  <g id="arc">
      <rect
         style="fill:#1cb0f6;fill-opacity:1;stroke:none;stroke-width:0.5189;stroke-linecap:round;stroke-linejoin:round;-inkscape-stroke:none;stop-color:#000000"
         id="rect236"
         width="69.706306"
         height="53.925732"
         x="4.0734692"
         y="3.9154253"
         ry="7.190846" />
      <rect
         style="fill:#ffc800;fill-opacity:1;stroke:none;stroke-width:0.57605;stroke-linecap:round;stroke-linejoin:round;stroke-dasharray:none;stop-color:#000000"
         id="rect956"
         width="70.216377"
         height="36.480602"
         x="4.0712199"
         y="12.637993" />
      <ellipse
         style="font-variation-settings:normal;vector-effect:none;fill:#1cb0f6;fill-opacity:1;stroke:none;stroke-width:0.631017;stroke-linecap:round;stroke-linejoin:round;stroke-miterlimit:4;stroke-dasharray:none;stroke-dashoffset:0;stroke-opacity:1;-inkscape-stroke:none;stop-color:#000000"
         id="path956"
         cx="39.179424"
         cy="30.878296"
         rx="10.16704"
         ry="10.610562" />
      <rect
         style="fill:#ff4b4b;fill-opacity:1;stroke-width:2.10466;stroke-linecap:round;stroke-linejoin:round;stop-color:#000000"
         id="rect1168"
         width="8.1617842"
         height="53.831505"
         x="35.098511"
         y="4.0098329" />
      <path
         style="fill:none;fill-rule:nonzero;stroke:#ffffff;stroke-width:4"
         d="M 61.436962,1.9999954 H 16.563039 c -4.934836,0 -6.6962181,0.5845128 -8.4927787,1.5453237 C 6.1195315,4.588581 4.5885875,6.1195239 3.5453266,8.0702537 2.5845158,9.8668146 2.0000028,11.628196 2.0000028,16.563033 v 28.873921 c 0,4.934835 0.584513,6.696218 1.5453238,8.492778 1.0432609,1.95073 2.5742049,3.481673 4.5249337,4.524934 1.7965606,0.960811 3.5579427,1.545323 8.4927787,1.545323 h 44.873923 c 4.93484,0 6.696219,-0.584512 8.492778,-1.545323 1.950733,-1.043261 3.481671,-2.574204 4.524932,-4.524934 0.960809,-1.79656 1.54533,-3.557943 1.54533,-8.492778 V 16.563033 c 0,-4.934837 -0.584521,-6.6962184 -1.54533,-8.4927793 C 73.411411,6.1195239 71.880473,4.588581 69.92974,3.5453191 68.133181,2.5845082 66.371802,1.9999954 61.436962,1.9999954 Z"
         id="border" />
    </g>
</svg>
