<?xml version="1.0" encoding="UTF-8" standalone="no"?>
<!-- Created with Inkscape (http://www.inkscape.org/) -->

<svg
   width="78mm"
   height="62mm"
   viewBox="0 0 78 62"
   version="1.1"
   id="svg19697"
   inkscape:version="1.1.2 (0a00cf5339, 2022-02-04)"
   sodipodi:docname="Conlang flag 1.svg"
   xmlns:inkscape="http://www.inkscape.org/namespaces/inkscape"
   xmlns:sodipodi="http://sodipodi.sourceforge.net/DTD/sodipodi-0.dtd"
   xmlns="http://www.w3.org/2000/svg"
   xmlns:svg="http://www.w3.org/2000/svg">
  <sodipodi:namedview
     id="namedview19699"
     pagecolor="#ffffff"
     bordercolor="#666666"
     borderopacity="1.0"
     inkscape:pageshadow="2"
     inkscape:pageopacity="0.0"
     inkscape:pagecheckerboard="0"
     inkscape:document-units="mm"
     showgrid="false"
     fit-margin-top="0"
     fit-margin-left="0"
     fit-margin-right="0"
     fit-margin-bottom="0"
     inkscape:zoom="0.20667789"
     inkscape:cx="568.5175"
     inkscape:cy="319.33749"
     inkscape:window-width="1366"
     inkscape:window-height="699"
     inkscape:window-x="0"
     inkscape:window-y="0"
     inkscape:window-maximized="1"
     inkscape:current-layer="layer1" />
  <defs
     id="defs19694">
    <path
       d="m 12.563038,0 44.873924,0 c 4.368442,0 5.952545,0.45484549 7.549582,1.3089503 C 66.583581,2.163055 67.836945,3.416419 68.69105,5.013456 69.545154,6.6104931 70,8.1945956 70,12.563038 v 28.873924 c 0,4.368442 -0.454846,5.952545 -1.30895,7.549582 -0.854105,1.597037 -2.107469,2.850401 -3.704506,3.704506 C 63.389507,53.545155 61.805404,54 57.436962,54 H 12.563038 C 8.1945956,54 6.6104931,53.545155 5.013456,52.69105 3.416419,51.836945 2.163055,50.583581 1.3089503,48.986544 0.45484549,47.389507 0,45.805404 0,41.436962 L 0,12.563038 C 0,8.1945956 0.45484549,6.6104931 1.3089503,5.013456 2.163055,3.416419 3.416419,2.163055 5.013456,1.3089503 6.6104931,0.45484549 8.1945956,0 12.563038,0 Z"
       id="path-1" />
  </defs>
  <g
     inkscape:label="Layer 1"
     inkscape:groupmode="layer"
     id="layer1"
     transform="translate(-2,-200)">
    <g
       id="g8116">
      <g
         id="g8102">
        <g
           id="g8089">
          <path
             d="M 63.436962,202 H 18.563038 c -4.934837,0 -6.696219,0.58451 -8.49278,1.54532 -1.950729,1.04327 -3.4816727,2.57421 -4.5249342,4.52494 C 4.5845126,209.86682 4,211.6282 4,216.56304 v 28.87392 c 0,4.93484 0.5845126,6.69622 1.5453238,8.49278 1.0432615,1.95073 2.5742052,3.48167 4.5249342,4.52494 1.796561,0.96081 3.557943,1.54532 8.49278,1.54532 h 44.873924 c 4.934837,0 6.696219,-0.58451 8.49278,-1.54532 1.950729,-1.04327 3.481673,-2.57421 4.524934,-4.52494 C 77.415487,252.13318 78,250.3718 78,245.43696 v -28.87392 c 0,-4.93484 -0.584513,-6.69622 -1.545324,-8.49278 -1.043261,-1.95073 -2.574205,-3.48167 -4.524934,-4.52494 C 70.133181,202.58451 68.371799,202 63.436962,202 Z"
             id="path20749"
             stroke="#ffffff"
             stroke-width="4"
             fill="#ff4b4b"
             style="fill:#fffffb;fill-opacity:1;fill-rule:nonzero" />
          <path
             d="m 76,240 v 5.43696 c 0,4.36844 -0.454846,5.95255 -1.30895,7.54958 -0.854105,1.59704 -2.107469,2.85041 -3.704506,3.70451 C 69.389507,257.54516 67.805404,258 63.436962,258 H 18.563038 c -4.368442,0 -5.952545,-0.45484 -7.549582,-1.30895 -1.597037,-0.8541 -2.850401,-2.10747 -3.7045057,-3.70451 C 6.4548455,251.38951 6,249.8054 6,245.43696 V 240 Z"
             id="path20751"
             fill="#ffc800"
             style="fill:#78c800;fill-opacity:1;fill-rule:nonzero;stroke:none;stroke-width:1" />
          <path
             d="m 18.563038,204 h 44.873924 c 4.368442,0 5.952545,0.45485 7.549582,1.30895 1.597037,0.8541 2.850401,2.10747 3.704506,3.70451 C 75.545154,210.61049 76,212.1946 76,216.56304 V 222 H 6 v -5.43696 c 0,-4.36844 0.4548455,-5.95255 1.3089503,-7.54958 0.8541047,-1.59704 2.1074687,-2.85041 3.7045057,-3.70451 C 12.610493,204.45485 14.194596,204 18.563038,204 Z"
             id="path20753"
             fill="#4c4c4c"
             style="fill:#78c800;fill-opacity:1;fill-rule:nonzero;stroke:none;stroke-width:1" />
          <g
             id="g23676"
             transform="matrix(0.4089871,0,0,0.4089871,-4.4957616,206.20202)">
            <rect
               style="opacity:0.98;fill:#4b4b4b;fill-opacity:1;stroke-width:4.465;stroke-linecap:round;stroke-linejoin:round;paint-order:stroke fill markers"
               id="rect23330"
               width="5.5255666"
               height="20.278145"
               x="107.89019"
               y="59.271812"
               rx="1.6401561"
               ry="1.6401561" />
            <g
               id="g22940"
               transform="matrix(0.87592857,0,0,0.87592857,13.801717,6.8167309)">
              <path
                 style="opacity:0.98;fill:#78c800;fill-opacity:1;stroke-width:16.8756;stroke-linecap:round;stroke-linejoin:round;paint-order:stroke fill markers"
                 id="path22848"
                 sodipodi:type="arc"
                 sodipodi:cx="115.47341"
                 sodipodi:cy="56.349415"
                 sodipodi:rx="18.730383"
                 sodipodi:ry="11.576014"
                 sodipodi:start="3.1435823"
                 sodipodi:end="3.14353"
                 sodipodi:open="true"
                 sodipodi:arc-type="arc"
                 d="M 96.743066,56.326383 A 18.730383,11.576014 0 0 1 115.51043,44.773424 18.730383,11.576014 0 0 1 134.20376,56.372144 18.730383,11.576014 0 0 1 115.43688,67.925406 18.730383,11.576014 0 0 1 96.743064,56.326988" />
              <path
                 style="opacity:0.98;fill:#78c800;fill-opacity:1;stroke-width:16.8756;stroke-linecap:round;stroke-linejoin:round;paint-order:stroke fill markers"
                 id="path22930"
                 sodipodi:type="arc"
                 sodipodi:cx="102.75581"
                 sodipodi:cy="61.093315"
                 sodipodi:rx="14.479436"
                 sodipodi:ry="8.9487839"
                 sodipodi:start="3.1435823"
                 sodipodi:end="3.14353"
                 sodipodi:open="true"
                 sodipodi:arc-type="arc"
                 d="m 88.276406,61.07551 a 14.479436,8.9487839 0 0 1 14.508024,-8.930961 14.479436,8.9487839 0 0 1 14.45079,8.966337 14.479436,8.9487839 0 0 1 -14.50765,8.931196 14.479436,8.9487839 0 0 1 -14.451165,-8.966104" />
              <path
                 style="opacity:0.98;fill:#78c800;fill-opacity:1;stroke-width:16.8756;stroke-linecap:round;stroke-linejoin:round;paint-order:stroke fill markers"
                 id="path22932"
                 sodipodi:type="arc"
                 sodipodi:cx="120.14976"
                 sodipodi:cy="-7.98946"
                 sodipodi:rx="14.479436"
                 sodipodi:ry="8.9487839"
                 sodipodi:start="3.1435823"
                 sodipodi:end="3.14353"
                 sodipodi:open="true"
                 sodipodi:arc-type="arc"
                 d="m 105.67035,-8.0072649 a 14.479436,8.9487839 0 0 1 14.50803,-8.9309611 14.479436,8.9487839 0 0 1 14.45079,8.9663369 14.479436,8.9487839 0 0 1 -14.50765,8.93119596 14.479436,8.9487839 0 0 1 -14.45117,-8.96610376"
                 transform="rotate(30)" />
              <path
                 style="opacity:0.98;fill:#78c800;fill-opacity:1;stroke-width:16.8756;stroke-linecap:round;stroke-linejoin:round;paint-order:stroke fill markers"
                 id="path22934"
                 sodipodi:type="arc"
                 sodipodi:cx="-7.98946"
                 sodipodi:cy="-120.14976"
                 sodipodi:rx="14.479436"
                 sodipodi:ry="8.9487839"
                 sodipodi:start="3.1435823"
                 sodipodi:end="3.14353"
                 sodipodi:open="true"
                 sodipodi:arc-type="arc"
                 d="m -22.468867,-120.16756 a 14.479436,8.9487839 0 0 1 14.5080266,-8.93096 14.479436,8.9487839 0 0 1 14.4507884,8.96633 14.479436,8.9487839 0 0 1 -14.507649,8.9312 14.479436,8.9487839 0 0 1 -14.451168,-8.9661"
                 transform="rotate(120)" />
            </g>
          </g>
        </g>
      </g>
    </g>
  </g>
</svg>
