<?xml version="1.0" encoding="UTF-8" standalone="no"?>
<svg
   height="62"
   width="78"
   version="1.1"
   id="svg2227"
   xmlns="http://www.w3.org/2000/svg">
  <g
     id="sq">
    <path
      style="display:inline;fill:#ff4b4b;fill-opacity:1;fill-rule:nonzero;stroke:#ffffff;stroke-width:4"
      id="path183"
      d="M 61.436962,2 H 16.563038 C 11.628201,2 9.866819,2.5845126 8.070258,3.5453238 6.119529,4.5885853 4.5885853,6.119529 3.5453238,8.070258 2.5845126,9.866819 2,11.628201 2,16.563038 v 28.873924 c 0,4.934837 0.5845126,6.696219 1.5453238,8.49278 1.0432615,1.950729 2.5742052,3.481673 4.5249342,4.524934 C 9.866819,59.415487 11.628201,60 16.563038,60 h 44.873924 c 4.934837,0 6.696219,-0.584513 8.49278,-1.545324 1.950729,-1.043261 3.481673,-2.574205 4.524934,-4.524934 C 75.415487,52.133181 76,50.371799 76,45.436962 V 16.563038 C 76,11.628201 75.415487,9.866819 74.454676,8.070258 73.411415,6.119529 71.880471,4.5885853 69.929742,3.5453238 68.133181,2.5845126 66.371799,2 61.436962,2 Z" />
    <path
      id="rect1002-1"
      style="fill:#4b4b4b;fill-opacity:1;stroke-width:6.42081;stroke-linejoin:round;stop-color:#000000"
      d="m 30.848012,9.166276 a 1.0189988,1.0189979 0 0 0 -1.018997,1.018998 h -1.528497 a 1.5284983,1.5284969 0 0 0 -1.528497,1.528497 1.5284983,1.5284969 0 0 0 1.528497,1.528497 h 1.528497 2.037796 v 3.056994 h 1.99e-4 v -3.056994 a 3.0569967,3.0569938 0 0 1 0.319631,0.01672 3.0569967,3.0569938 0 0 1 0.316049,0.05016 3.0569967,3.0569938 0 0 1 0.309081,0.08279 3.0569967,3.0569938 0 0 1 0.298536,0.11463 3.0569967,3.0569938 0 0 1 0.2852,0.145287 3.0569967,3.0569938 0 0 1 0.268282,0.174147 3.0569967,3.0569938 0 0 1 0.24878,0.20141 3.0569967,3.0569938 0 0 1 0.226289,0.226289 3.0569967,3.0569938 0 0 1 0.20141,0.24878 3.0569967,3.0569938 0 0 1 0.174147,0.268282 3.0569967,3.0569938 0 0 1 0.145286,0.2852 3.0569967,3.0569938 0 0 1 0.114643,0.298536 3.0569967,3.0569938 0 0 1 0.08279,0.309081 3.0569967,3.0569938 0 0 1 0.05016,0.316048 3.0569967,3.0569938 0 0 1 0.01672,0.319632 v 1.528497 c 0,0.844165 -0.68433,1.528497 -1.528497,1.528497 -0.844166,0 -1.528497,-0.684332 -1.528497,-1.528497 0,-0.844165 -0.68433,-1.528497 -1.528497,-1.528497 H 26.772031 19.76642 c -0.351736,0 -0.636874,0.285138 -0.636874,0.636874 0,1.055206 0.855414,1.91062 1.910621,1.91062 h 5.731864 V 21.39425 H 19.76642 c -0.351736,0 -0.636874,0.285138 -0.636874,0.636873 0,1.055207 0.855414,1.910621 1.910621,1.910621 h 5.731864 v 2.547495 H 19.76642 c -0.351736,0 -0.636874,0.285139 -0.636874,0.636874 0,1.055206 0.855414,1.91062 1.910621,1.91062 h 5.731864 v 2.547496 H 19.76642 c -0.351736,0 -0.636874,0.285138 -0.636874,0.636874 0,1.055206 0.855414,1.910621 1.910621,1.910621 h 5.731864 6.288729 l -2.727411,2.727411 a 1.7473119,1.7473103 0 0 0 -0.507311,1.355745 l -4.672861,1.252054 -4.651168,-2.685418 a 0.76424917,0.76424844 0 0 0 -0.381925,-0.102292 0.76424917,0.76424844 0 0 0 -0.197828,0.02607 0.76424917,0.76424844 0 0 0 -0.464123,0.356052 0.76424917,0.76424844 0 0 0 0.279627,1.044073 l 2.455149,1.417443 h -2.834884 a 0.76424917,0.76424844 0 0 0 -0.764248,0.764248 0.76424917,0.76424844 0 0 0 0.764248,0.764249 h 2.835282 l -2.455547,1.417642 a 0.76424917,0.76424844 0 0 0 -0.279627,1.043875 0.76424917,0.76424844 0 0 0 1.043876,0.279826 l 4.543298,-2.622924 3.311943,1.912013 A 0.76424917,0.76424844 0 0 0 29.401326,42.801974 0.76424917,0.76424844 0 0 0 29.1215,41.758098 l -2.096322,-1.210269 3.588983,-0.961678 a 2.0379978,2.0379958 0 0 0 2.80682,-0.05035 l 2.52202,-2.52202 v 1.918583 l -4.148435,4.148437 a 2.5474973,2.5474948 0 0 0 0,3.602713 l 5.404072,5.404073 a 2.5474973,2.5474948 0 0 0 1.801357,0.746137 2.5474948,2.5474948 0 0 0 1.801358,-0.746137 l 5.404072,-5.404073 a 2.5474948,2.5474948 0 0 0 0,-3.602713 l -4.148436,-4.148437 v -1.918583 l 2.522021,2.52202 a 2.0379958,2.0379958 0 0 0 2.80682,0.05035 l 3.588983,0.961678 -2.096309,1.21026 a 0.76424844,0.76424844 0 0 0 -0.279826,1.043875 0.76424844,0.76424844 0 0 0 1.044073,0.279826 l 3.311943,-1.912014 4.543298,2.622924 a 0.76424844,0.76424844 0 0 0 1.043876,-0.279825 0.76424844,0.76424844 0 0 0 -0.279628,-1.043876 l -2.455546,-1.417641 h 2.835281 a 0.76424844,0.76424844 0 0 0 0.764249,-0.764249 0.76424844,0.76424844 0 0 0 -0.764249,-0.764248 h -2.834884 l 2.455148,-1.417443 a 0.76424844,0.76424844 0 0 0 0.279629,-1.044073 0.76424844,0.76424844 0 0 0 -0.464123,-0.356053 0.76424844,0.76424844 0 0 0 -0.197829,-0.02607 0.76424844,0.76424844 0 0 0 -0.381925,0.102293 l -4.651167,2.685413 -4.672861,-1.252054 a 1.7473103,1.7473103 0 0 0 -0.507311,-1.355746 l -2.727411,-2.72741 h 6.288729 5.731864 c 1.055207,0 1.910621,-0.855415 1.910621,-1.910622 0,-0.351735 -0.285138,-0.636873 -0.636874,-0.636873 H 51.22797 v -2.547496 h 5.731864 c 1.055207,0 1.910621,-0.855414 1.910621,-1.91062 0,-0.351736 -0.285138,-0.636874 -0.636874,-0.636874 H 51.22797 v -2.547496 h 5.731864 c 1.055207,0 1.910621,-0.855414 1.910621,-1.91062 0,-0.351735 -0.285138,-0.636874 -0.636874,-0.636874 H 51.22797 v -2.547495 h 5.731864 c 1.055207,0 1.910621,-0.855414 1.910621,-1.91062 0,-0.351736 -0.285138,-0.636874 -0.636874,-0.636874 H 51.22797 47.661478 c -0.844165,0 -1.528497,0.684332 -1.528497,1.528497 0,0.844165 -0.684331,1.528497 -1.528497,1.528497 -0.844165,0 -1.528497,-0.684332 -1.528497,-1.528497 v -1.528497 a 3.0569938,3.0569938 0 0 1 0.01672,-0.319632 3.0569938,3.0569938 0 0 1 0.05016,-0.316048 3.0569938,3.0569938 0 0 1 0.0828,-0.309082 3.0569938,3.0569938 0 0 1 0.114643,-0.298535 3.0569938,3.0569938 0 0 1 0.145286,-0.2852 3.0569938,3.0569938 0 0 1 0.174146,-0.268282 3.0569938,3.0569938 0 0 1 0.201411,-0.24878 3.0569938,3.0569938 0 0 1 0.226289,-0.226289 3.0569938,3.0569938 0 0 1 0.248779,-0.201411 3.0569938,3.0569938 0 0 1 0.268282,-0.174146 3.0569938,3.0569938 0 0 1 0.285201,-0.145287 3.0569938,3.0569938 0 0 1 0.298536,-0.11463 3.0569938,3.0569938 0 0 1 0.30908,-0.08279 3.0569938,3.0569938 0 0 1 0.316049,-0.05016 3.0569938,3.0569938 0 0 1 0.319632,-0.01672 v 3.056994 h 2.02e-4 v -3.056998 h 2.037793 1.528497 A 1.5284969,1.5284969 0 0 0 51.227977,11.713771 1.5284969,1.5284969 0 0 0 49.69948,10.185274 H 48.170976 A 1.0189979,1.0189979 0 0 0 47.151979,9.166276 H 46.13318 46.132981 A 7.1329854,7.1329854 0 0 0 38.999994,16.299262 7.1329922,7.1329854 0 0 0 31.86701,9.166276 h -2.03e-4 z" />
  </g>
</svg>
