<?xml version="1.0" encoding="utf-8"?>
<!-- Generator: Adobe Illustrator 24.0.0, SVG Export Plug-In . SVG Version: 6.00 Build 0)  -->
<svg version="1.1"
	 id="svg5" inkscape:version="1.1.2 (0a00cf5339, 2022-02-04)" sodipodi:docname="flag_tin.svg" xmlns:inkscape="http://www.inkscape.org/namespaces/inkscape" xmlns:sodipodi="http://sodipodi.sourceforge.net/DTD/sodipodi-0.dtd" xmlns:svg="http://www.w3.org/2000/svg"
	 xmlns="http://www.w3.org/2000/svg" xmlns:xlink="http://www.w3.org/1999/xlink" x="0px" y="0px" viewBox="0 0 221.1 175.7"
	 style="enable-background:new 0 0 221.1 175.7;" xml:space="preserve">
<style type="text/css">
	.st0{fill:#FF9600;stroke:#FFFFFF;stroke-width:11.3386;stroke-miterlimit:11.3386;}
	.st1{fill:#1CB0F6;}
	.st2{fill:#4C4C4C;}
</style>
<sodipodi:namedview  bordercolor="#666666" borderopacity="1.0" fit-margin-bottom="0" fit-margin-left="0" fit-margin-right="0" fit-margin-top="0" id="namedview7" inkscape:current-layer="layer1" inkscape:cx="113.0987" inkscape:cy="142.73418" inkscape:document-units="mm" inkscape:pagecheckerboard="0" inkscape:pageopacity="0.0" inkscape:pageshadow="2" inkscape:window-height="699" inkscape:window-maximized="1" inkscape:window-width="1366" inkscape:window-x="0" inkscape:window-y="0" inkscape:zoom="0.82671156" pagecolor="#ffffff" showgrid="false">
	</sodipodi:namedview>
<g>
	<g id="layer1" transform="translate(-2,-200)" inkscape:groupmode="layer" inkscape:label="Layer 1">
		<path id="path2787" class="st0" d="M176.1,205.6H48.9c-14,0-19,1.7-24.1,4.4c-5.5,3-9.9,7.3-12.8,12.8c-2.7,5.1-4.4,10.1-4.4,24.1
			v81.8c0,14,1.7,19,4.4,24.1c3,5.5,7.3,9.9,12.8,12.8c5.1,2.7,10.1,4.4,24.1,4.4h127.2c14,0,19-1.7,24.1-4.4
			c5.5-3,9.9-7.3,12.8-12.8c2.7-5.1,4.4-10.1,4.4-24.1v-81.8c0-14-1.7-19-4.4-24.1c-3-5.5-7.3-9.9-12.8-12.8
			C195,207.3,190,205.6,176.1,205.6z"/>
	</g>
	<g id="ru">
		<g id="g2884" transform="translate(6.000000, 6.000000)">
			<path id="path2880" class="st1" d="M203.8,107.4v15.4c0,12.4-1.3,16.9-3.7,21.4c-2.4,4.5-6,8.1-10.5,10.5s-9,3.7-21.4,3.7H41
				c-12.4,0-16.9-1.3-21.4-3.7s-8.1-6-10.5-10.5c-2.4-4.5-3.7-9-3.7-21.4v-15.4H203.8z"/>
			<path id="path2882" class="st1" d="M41,5.3h127.2c12.4,0,16.9,1.3,21.4,3.7s8.1,6,10.5,10.5s3.7,9,3.7,21.4v15.4H5.3V41
				c0-12.4,1.3-16.9,3.7-21.4S15,11.5,19.5,9S28.6,5.3,41,5.3z"/>
		</g>
	</g>
	<g>
		<g id="ko">
			<g id="g2851" transform="translate(6.000000, 6.000000)">
				<path id="path2845" class="st2" d="M103.5,60.7c2,0,3.7,1.6,3.7,3.7c0,2-1.7,3.7-3.7,3.7l-35,0.2c-2,0-3.7-1.6-3.7-3.7
					c0-2,1.7-3.7,3.7-3.7L103.5,60.7z"/>
			</g>
		</g>
		<g id="ko_1_">
			<g id="g2851_1_" transform="translate(6.000000, 6.000000)">
				<path id="path2845_1_" class="st2" d="M140.7,95.5c2,0,3.7,1.6,3.7,3.7c0,2-1.7,3.7-3.7,3.7l-35,0.2c-2,0-3.7-1.6-3.7-3.7
					c0-2,1.7-3.7,3.7-3.7L140.7,95.5z"/>
			</g>
		</g>
		<g id="ko_2_">
			<g id="g2851_2_" transform="translate(6.000000, 6.000000)">
				<path id="path2845_2_" class="st2" d="M100.8,64.3c0-2,1.6-3.7,3.7-3.7c2,0,3.7,1.7,3.7,3.7l0.2,35c0,2-1.6,3.7-3.7,3.7
					c-2,0-3.7-1.7-3.7-3.7L100.8,64.3z"/>
			</g>
		</g>
	</g>
</g>
</svg>
