<?xml version="1.0" encoding="UTF-8" standalone="no"?>
<!-- Created with Inkscape (http://www.inkscape.org/) -->

<svg
   width="78mm"
   height="62.000061mm"
   viewBox="0 0 78 62.000061"
   version="1.1"
   id="svg64128"
   inkscape:version="1.1.2 (0a00cf5339, 2022-02-04)"
   sodipodi:docname="Conlang flag 3.svg"
   xmlns:inkscape="http://www.inkscape.org/namespaces/inkscape"
   xmlns:sodipodi="http://sodipodi.sourceforge.net/DTD/sodipodi-0.dtd"
   xmlns="http://www.w3.org/2000/svg"
   xmlns:svg="http://www.w3.org/2000/svg">
  <sodipodi:namedview
     id="namedview64130"
     pagecolor="#ffffff"
     bordercolor="#666666"
     borderopacity="1.0"
     inkscape:pageshadow="2"
     inkscape:pageopacity="0.0"
     inkscape:pagecheckerboard="0"
     inkscape:document-units="mm"
     showgrid="false"
     inkscape:zoom="1"
     inkscape:cx="536.5"
     inkscape:cy="117"
     inkscape:window-width="1366"
     inkscape:window-height="699"
     inkscape:window-x="0"
     inkscape:window-y="0"
     inkscape:window-maximized="1"
     inkscape:current-layer="layer1"
     fit-margin-top="0"
     fit-margin-left="0"
     fit-margin-right="0"
     fit-margin-bottom="0" />
  <defs
     id="defs64125">
    <path
       d="m 12.563038,0 44.873924,0 c 4.368442,0 5.952545,0.45484549 7.549582,1.3089503 C 66.583581,2.163055 67.836945,3.416419 68.69105,5.013456 69.545154,6.6104931 70,8.1945956 70,12.563038 v 28.873924 c 0,4.368442 -0.454846,5.952545 -1.30895,7.549582 -0.854105,1.597037 -2.107469,2.850401 -3.704506,3.704506 C 63.389507,53.545155 61.805404,54 57.436962,54 H 12.563038 C 8.1945956,54 6.6104931,53.545155 5.013456,52.69105 3.416419,51.836945 2.163055,50.583581 1.3089503,48.986544 0.45484549,47.389507 0,45.805404 0,41.436962 L 0,12.563038 C 0,8.1945956 0.45484549,6.6104931 1.3089503,5.013456 2.163055,3.416419 3.416419,2.163055 5.013456,1.3089503 6.6104931,0.45484549 8.1945956,0 12.563038,0 Z"
       id="path-1" />
  </defs>
  <g
     inkscape:label="Layer 1"
     inkscape:groupmode="layer"
     id="layer1"
     transform="translate(-94.693851,-116.75908)">
    <g
       id="g90721">
      <path
         d="m 156.13081,118.75908 h -44.87392 c -4.93484,0 -6.69622,0.58451 -8.49278,1.54533 -1.95073,1.04327 -3.481679,2.57422 -4.524939,4.52496 -0.96081,1.79657 -1.54532,3.55796 -1.54532,8.49281 v 28.87392 c 0,4.93484 0.58451,6.69622 1.54532,8.49278 1.04326,1.95073 2.574209,3.48168 4.524939,4.52494 1.79656,0.96081 3.55794,1.54532 8.49278,1.54532 h 44.87392 c 4.93484,0 6.69622,-0.58451 8.49278,-1.54532 1.95073,-1.04326 3.48167,-2.57421 4.52493,-4.52494 0.96081,-1.79656 1.54533,-3.55794 1.54533,-8.49278 v -28.87392 c 0,-4.93485 -0.58452,-6.69624 -1.54533,-8.49281 -1.04326,-1.95074 -2.5742,-3.48169 -4.52493,-4.52496 -1.79656,-0.96082 -3.55794,-1.54533 -8.49278,-1.54533 z"
         id="path65332"
         stroke="#ffffff"
         stroke-width="4"
         fill="#eeeeee"
         style="fill-rule:nonzero"
         sodipodi:nodetypes="sssssssssssssssss" />
      <g
         id="g90622"
         transform="translate(-17.635299,-7.3096127)">
        <path
           style="fill:#1cb0f6;fill-opacity:1;stroke:none;stroke-width:0.234631px;stroke-linecap:butt;stroke-linejoin:miter;stroke-opacity:1"
           d="m 116.36751,171.29913 c 6.48765,-3.74565 8.30945,-3.80693 14.90325,0 4.89869,2.82826 9.34235,2.92495 14.40851,0 6.29193,-3.63264 10.216,-3.77061 16.74688,0 5.37589,3.10377 8.99332,3.2269 14.58247,0 4.59091,-2.65056 7.532,-4.0267 9.2915,-2.64583 6e-5,1.29035 0.0147,3.77095 -0.0731,3.70726 -2.39789,-1.38442 -5.99631,1.02103 -9.29802,3.175 -5.31457,3.06837 -9.22248,2.99839 -14.41584,0 -6.18458,-3.57067 -10.59632,-3.47777 -16.61999,0 -5.36675,3.0985 -9.68179,3.1218 -15.08891,0 -6.12697,-3.53741 -7.83683,-3.46399 -13.83664,0 -0.59823,-1.98621 -0.45648,-2.90564 -0.60007,-4.23643 z"
           id="path72484"
           sodipodi:nodetypes="ccccccccccccc" />
        <path
           style="fill:#1cb0f6;fill-opacity:1;stroke:none;stroke-width:0.234631px;stroke-linecap:butt;stroke-linejoin:miter;stroke-opacity:1"
           d="m 131.27076,162.83241 c 4.89869,2.82826 9.34235,2.92495 14.40851,0 6.29193,-3.63264 10.216,-3.77061 16.74688,0 5.37589,3.10377 8.99332,3.2269 14.58247,0 4.59091,-2.65056 7.5568,-4.0267 9.3163,-2.64583 6e-5,1.29035 2.9e-4,3.70726 2.9e-4,3.70726 -2.39789,-1.38442 -6.0945,1.02103 -9.39621,3.175 -5.31457,3.06837 -9.22248,2.99839 -14.41584,0 -6.18458,-3.57067 -10.59632,-3.47777 -16.61999,0 -5.36675,3.0985 -9.68179,3.1218 -15.08891,0 -6.12697,-3.53741 -8.47637,-3.46399 -14.47618,0 l 0.001,-4.23643 c 6.88543,-3.15984 9.18025,-3.28198 14.94121,0 z"
           id="path79325"
           sodipodi:nodetypes="ccccccccccccc" />
        <path
           style="opacity:0.98;fill:#ffc800;fill-opacity:1;stroke:none;stroke-width:24.5008;stroke-linecap:round;paint-order:stroke fill markers"
           d="m 633.23613,593.23733 c -4.86266,-1.06851 -8.77553,-2.73945 -21.48613,-9.17533 -12.78149,-6.47178 -17.29791,-8.1049 -25.09303,-9.07356 -9.9737,-1.23938 -18.4773,1.09044 -35.2628,9.66132 -11.76019,6.00489 -15.68897,7.41074 -23.44639,8.3899 -9.33903,1.17879 -19.75569,-1.38907 -31.44778,-7.75233 -15.18503,-8.26425 -20.04313,-10.17534 -27,-10.62132 -6.86065,-0.43982 -13.88716,1.68942 -24.21615,7.33822 L 440,584.89391 l 10e-4,-31.57196 c 8.7e-4,-19.51024 0.20792,-33.29113 0.54198,-36.07195 1.63718,-13.62879 8.91911,-23.94163 20.66625,-29.26804 4.78057,-2.16761 9.37147,-2.9894 19.54036,-3.49779 11.86385,-0.59313 170.83993,-0.58408 182.75,0.0104 10.54125,0.52616 15.255,1.49567 20.7862,4.27525 9.35186,4.69957 15.95809,13.3247 18.35263,23.96128 0.94356,4.19133 1.03261,6.61873 1.22856,33.48775 0.17645,24.19473 0.10069,28.87709 -0.45971,28.412 -0.36904,-0.30627 -1.72826,-0.82309 -3.02048,-1.14847 -5.10224,-1.28476 -12.61959,1.23748 -26.41343,8.8623 -13.94598,7.70891 -18.0248,9.50572 -24.71551,10.88773 -4.44378,0.91788 -11.85694,0.92016 -16.02213,0.005 z"
           id="path83870"
           transform="scale(0.26458333)" />
        <path
           style="fill:#1cb0f6;fill-opacity:1;stroke:none;stroke-width:0.234631px;stroke-linecap:butt;stroke-linejoin:miter;stroke-opacity:1"
           d="m 116.3303,154.36569 c 6.48765,-3.74565 8.34666,-3.80693 14.94046,0 4.89869,2.82826 9.34235,2.92495 14.40851,0 6.29193,-3.63264 10.216,-3.77061 16.74688,0 5.37589,3.10377 8.99332,3.2269 14.58247,0 4.59091,-2.65056 7.532,-4.0267 9.2915,-2.64583 6e-5,1.29035 0.0147,3.77095 -0.0731,3.70726 -2.39789,-1.38442 -5.99631,1.02103 -9.29802,3.175 -5.31457,3.06837 -9.22248,2.99839 -14.41584,0 -6.18458,-3.57067 -10.59632,-3.47777 -16.61999,0 -5.36675,3.0985 -9.68179,3.1218 -15.08891,0 -6.12697,-3.53741 -8.47348,-3.46399 -14.47329,0 z"
           id="path79327"
           sodipodi:nodetypes="cccccccccccccc" />
        <g
           id="g85617"
           transform="translate(18.711114,70.571252)">
          <circle
             style="opacity:0.98;fill:#4b4b4b;fill-opacity:1;stroke:none;stroke-width:24.5002;stroke-linecap:round;paint-order:stroke fill markers"
             id="circle84137"
             cx="110.3256"
             cy="65.321877"
             r="4.1989999" />
          <circle
             style="opacity:0.98;fill:#eeeeeb;fill-opacity:1;stroke:none;stroke-width:24.5002;stroke-linecap:round;paint-order:stroke fill markers"
             id="circle84247"
             cx="110.35867"
             cy="73.697319"
             r="4.1989999" />
          <path
             style="opacity:0.98;fill:#eeeeeb;fill-opacity:1;stroke:none;stroke-width:6.1252;stroke-linecap:round;paint-order:stroke fill markers"
             d="m 425.375,292.83694 v -0.66781 l 0.90625,-0.61164 c 0.49844,-0.33639 1.44199,-1.14789 2.09678,-1.80331 2.14903,-2.15111 3.48576,-4.56268 4.26349,-7.69168 0.3718,-1.49586 0.45602,-4.39421 0.17629,-6.06712 -0.41772,-2.49812 -1.50425,-5.06621 -2.96192,-7.00068 -0.89037,-1.18161 -2.67223,-2.89313 -3.70469,-3.55843 l -0.77401,-0.49877 v -2.25 -2.25 l 0.78015,-0.49713 c 1.05009,-0.66912 3.28561,-2.90926 4.05799,-4.06636 1.36222,-2.04076 2.21262,-4.16289 2.60248,-6.49439 0.32751,-1.95866 0.20559,-4.57163 -0.30642,-6.56712 -0.91577,-3.56912 -3.35844,-7.0831 -6.30439,-9.06937 l -0.82408,-0.55563 c -1.22643,-0.65877 -2.28531,-1.23292 -3.64679,-1.51563 0.0224,0 4.32612,0.37318 5.0663,0.58102 4.86877,1.36712 9.43389,4.03689 13.24123,7.74369 2.79227,2.71854 4.63883,5.25064 6.32607,8.67464 1.14423,2.32203 1.73022,3.85494 2.26186,5.91685 0.69081,2.67922 0.89206,4.22094 0.95936,7.34943 0.0916,4.25734 -0.31082,7.07344 -1.54507,10.8125 -0.66951,2.02821 -2.32112,5.43811 -3.51159,7.25 -4.06529,6.18734 -10.32533,10.90461 -17.22179,12.97755 -2.0898,0.62815 -1.9375,0.6392 -1.9375,-0.14061 z"
             id="path84340"
             transform="scale(0.26458333)"
             sodipodi:nodetypes="scsssssscccsssssccsssssssss" />
          <path
             style="opacity:0.98;fill:#eeeeeb;fill-opacity:1;stroke:none;stroke-width:6.1252;stroke-linecap:round;paint-order:stroke fill markers"
             d="m 423.81617,264.12094 c -1.33942,-0.65388 -2.65934,-1.06138 -4.25367,-1.31324 -0.60523,-0.0956 -0.82729,-0.16392 -0.5625,-0.17304 1.18856,-0.041 3.70385,-0.79795 5.28125,-1.58944 l 0.84375,-0.42336 v 2.06407 c 0,1.13524 -0.0141,2.05943 -0.0312,2.05376 -0.0172,-0.006 -0.5921,-0.28411 -1.27758,-0.61875 z"
             id="path84379"
             transform="scale(0.26458333)" />
          <path
             style="opacity:0.98;fill:#eeeeeb;fill-opacity:1;stroke:none;stroke-width:1.08279;stroke-linecap:round;paint-order:stroke fill markers"
             d="m 425.26949,264.92001 c -0.14669,-0.0918 -0.17528,-0.11897 -0.16796,-0.15932 0.0218,-0.11994 0.0246,-4.14765 0.003,-4.14765 -0.0521,0 -0.0169,-0.0614 0.0601,-0.10478 0.081,-0.0456 0.57558,-0.35423 0.69606,-0.43439 0.0334,-0.0222 0.0608,-0.0306 0.0608,-0.0186 0,0.012 -0.1241,0.10016 -0.27578,0.19589 l -0.27577,0.17406 -4.4e-4,2.25758 -4.4e-4,2.25759 0.0608,0.0453 c 0.11396,0.085 0.017,0.0453 -0.1602,-0.0657 z"
             id="path84418"
             transform="scale(0.26458333)" />
          <path
             style="opacity:0.98;fill:#eeeeeb;fill-opacity:1;stroke:none;stroke-width:1.08279;stroke-linecap:round;paint-order:stroke fill markers"
             d="m 417.81172,294.4079 c 2.05082,-0.10451 3.98442,-0.56624 5.82258,-1.39038 0.33753,-0.15133 1.00116,-0.48735 1.27611,-0.64614 l 0.19335,-0.11166 v 0.67978 0.67977 l -0.17125,0.0383 c -1.4004,0.3133 -2.97184,0.5501 -4.40285,0.66346 -0.82696,0.0655 -1.14398,0.0793 -2.01083,0.0873 -0.48006,0.004 -0.79826,0.004 -0.70711,-4.1e-4 z"
             id="path84457"
             transform="scale(0.26458333)" />
          <path
             style="opacity:0.98;fill:#eeeeeb;fill-opacity:1;stroke:none;stroke-width:0.191412;stroke-linecap:round;paint-order:stroke fill markers"
             d="m 425.09863,293.62347 c 0.006,-0.005 0.007,-0.0422 0.007,-0.68584 0,-0.60342 -6.7e-4,-0.6804 -0.006,-0.6784 -0.003,10e-4 -0.006,9.6e-4 -0.006,-6e-4 0,-0.002 0.0444,-0.029 0.0986,-0.061 0.19052,-0.11241 0.43406,-0.26435 0.6211,-0.38749 l 0.0967,-0.0637 v 0.029 0.029 l -0.0269,0.0187 c -0.0148,0.0103 -0.1349,0.0915 -0.26694,0.18063 l -0.24008,0.16197 -0.003,0.50627 c -0.003,0.52484 -0.002,0.56055 0.0132,0.62442 0.0346,0.14656 0.15566,0.17416 0.46366,0.10569 0.0285,-0.006 0.0536,-0.0115 0.0559,-0.0115 0.003,0 0.004,0.008 0.003,0.0205 l -10e-4,0.0205 -0.11133,0.0282 c -0.19472,0.0494 -0.69358,0.16933 -0.7025,0.1689 -0.001,-7e-5 5e-4,-0.002 0.004,-0.005 z"
             id="path84496"
             transform="scale(0.26458333)" />
          <path
             style="opacity:0.98;fill:#4b4b4b;fill-opacity:1;stroke:none;stroke-width:17.3247;stroke-linecap:round;paint-order:stroke fill markers"
             d="m 407.47028,292.41401 c -10.34002,-3.68553 -18.11256,-12.66763 -20.3671,-23.53666 -2.89714,-13.96694 5.11237,-27.23093 17.39328,-34.62183 4.62487,-2.78334 10.23311,-3.2151 8.47449,-2.63482 l -2.90978,0.99686 -1.22086,0.70163 c -8.75173,5.02963 -10.05827,17.4045 -2.95099,24.74764 2.25665,1.75842 6.50176,3.9738 8.98837,4.56823 0,0.19445 -1.48987,0.45637 -1.81887,0.54326 -0.31942,0.0844 -1.53113,0.43293 -2.69785,0.98535 -8.03032,3.80217 -11.47083,13.35347 -7.60224,21.45939 1.22907,2.57527 3.95928,5.55361 6.14946,6.70833 1.69719,0.8948 0.95963,0.93718 -1.43791,0.0826 z"
             id="path84535"
             transform="scale(0.26458333)"
             sodipodi:nodetypes="sssscsccssssss" />
          <circle
             style="opacity:0.98;fill:#eeeeeb;fill-opacity:1;stroke:none;stroke-width:7.45828;stroke-linecap:round;paint-order:stroke fill markers"
             id="circle85359"
             cx="110.3256"
             cy="65.321877"
             r="1.278248" />
          <circle
             style="opacity:0.98;fill:#4b4b4b;fill-opacity:1;stroke:none;stroke-width:7.45828;stroke-linecap:round;paint-order:stroke fill markers"
             id="circle85497"
             cx="110.35867"
             cy="73.697319"
             r="1.278248" />
        </g>
      </g>
    </g>
  </g>
</svg>
