<?xml version="1.0" encoding="UTF-8" standalone="no"?>
<svg
   height="70"
   width="0.85416669in"
   version="1.1"
   id="svg2227"
   sodipodi:docname="duoSrb3.svg"
   inkscape:version="1.1.1 (3bf5ae0d25, 2021-09-20)"
   inkscape:export-filename="D:\OneDrive - 1CLICK IT LLC\Pictures\flags\duoSrb3.png"
   inkscape:export-xdpi="256.95001"
   inkscape:export-ydpi="256.95001"
   xmlns:inkscape="http://www.inkscape.org/namespaces/inkscape"
   xmlns:sodipodi="http://sodipodi.sourceforge.net/DTD/sodipodi-0.dtd"
   xmlns="http://www.w3.org/2000/svg"
   xmlns:svg="http://www.w3.org/2000/svg">
  <sodipodi:namedview
     id="namedview17"
     pagecolor="#505050"
     bordercolor="#ffffff"
     borderopacity="1"
     inkscape:pageshadow="0"
     inkscape:pageopacity="0"
     inkscape:pagecheckerboard="1"
     inkscape:document-units="in"
     showgrid="false"
     inkscape:zoom="4.7285714"
     inkscape:cx="33.413897"
     inkscape:cy="53.081571"
     inkscape:window-width="1368"
     inkscape:window-height="890"
     inkscape:window-x="-6"
     inkscape:window-y="-6"
     inkscape:window-maximized="1"
     inkscape:current-layer="svg2227" />
  <metadata
     id="metadata2233" />
  <defs
     id="defs2231">
    <inkscape:path-effect
       effect="fillet_chamfer"
       id="path-effect25702"
       is_visible="true"
       lpeversion="1"
       satellites_param="F,0,0,1,0,0,0,1 @ F,0,0,1,0,0,0,1 @ F,0,0,1,0,25,0,1 @ F,0,0,1,0,25,0,1"
       unit="px"
       method="auto"
       mode="F"
       radius="0"
       chamfer_steps="1"
       flexible="false"
       use_knot_distance="true"
       apply_no_radius="true"
       apply_with_radius="true"
       only_selected="false"
       hide_knots="false" />
    <inkscape:path-effect
       effect="fillet_chamfer"
       id="path-effect26251"
       is_visible="true"
       lpeversion="1"
       satellites_param="F,0,0,1,0,0,0,1 @ F,0,0,1,0,0,0,1 @ F,0,0,1,0,25,0,1 @ F,0,0,1,0,25,0,1"
       unit="px"
       method="auto"
       mode="F"
       radius="0"
       chamfer_steps="1"
       flexible="false"
       use_knot_distance="true"
       apply_no_radius="true"
       apply_with_radius="true"
       only_selected="false"
       hide_knots="false" />
    <inkscape:path-effect
       effect="fillet_chamfer"
       id="path-effect6872"
       is_visible="true"
       lpeversion="1"
       satellites_param="F,0,0,1,0,40,0,1 @ F,0,0,1,0,130,0,1 @ F,0,0,1,0,130,0,1 @ F,0,0,1,0,40,0,1"
       unit="px"
       method="auto"
       mode="F"
       radius="130"
       chamfer_steps="1"
       flexible="false"
       use_knot_distance="true"
       apply_no_radius="true"
       apply_with_radius="true"
       only_selected="false"
       hide_knots="false" />
    <inkscape:path-effect
       effect="fillet_chamfer"
       id="path-effect25784"
       is_visible="true"
       lpeversion="1"
       satellites_param="F,0,0,1,0,15,0,1 @ F,0,0,1,0,15,0,1 @ F,0,0,1,0,15,0,1 @ F,0,0,1,0,15,0,1"
       unit="px"
       method="auto"
       mode="F"
       radius="15"
       chamfer_steps="1"
       flexible="false"
       use_knot_distance="true"
       apply_no_radius="true"
       apply_with_radius="true"
       only_selected="false"
       hide_knots="false" />
    <inkscape:path-effect
       effect="fillet_chamfer"
       id="path-effect14058"
       is_visible="true"
       lpeversion="1"
       satellites_param="F,0,0,1,0,0,0,1 @ F,0,0,1,0,0,0,1 @ F,0,0,1,0,20,0,1 @ F,0,0,1,0,0,0,1 @ F,0,0,1,0,0,0,1 @ F,0,0,1,0,20,0,1 @ F,0,0,1,0,20,0,1 | F,0,0,1,0,20,0,1 @ F,0,0,1,0,15,0,1 @ F,0,0,1,0,15,0,1 @ F,0,0,1,0,20,0,1 | F,0,0,1,0,20,0,1 @ F,0,0,1,0,15,0,1 @ F,0,0,1,0,15,0,1 @ F,0,0,1,0,20,0,1 | F,0,0,1,0,20,0,1 @ F,0,0,1,0,20,0,1 @ F,0,0,1,0,0,0,1 @ F,0,0,1,0,0,0,1 @ F,0,0,1,0,0,0,1 @ F,0,0,1,0,0,0,1 @ F,0,0,1,0,0,0,1"
       unit="px"
       method="auto"
       mode="F"
       radius="20"
       chamfer_steps="1"
       flexible="false"
       use_knot_distance="true"
       apply_no_radius="true"
       apply_with_radius="true"
       only_selected="false"
       hide_knots="false" />
    <inkscape:path-effect
       effect="fillet_chamfer"
       id="path-effect19086"
       is_visible="true"
       lpeversion="1"
       satellites_param="F,0,0,1,0,50,0,1 @ F,0,0,1,0,0,0,1 @ F,0,0,1,0,0,0,1 @ F,0,0,1,0,0,0,1"
       unit="px"
       method="auto"
       mode="F"
       radius="0"
       chamfer_steps="1"
       flexible="false"
       use_knot_distance="true"
       apply_no_radius="true"
       apply_with_radius="true"
       only_selected="false"
       hide_knots="false" />
    <inkscape:path-effect
       effect="fillet_chamfer"
       id="path-effect19084"
       is_visible="true"
       lpeversion="1"
       satellites_param="F,0,0,1,0,0,0,1 @ F,0,0,1,0,0,0,1 @ F,0,0,1,0,0,0,1 @ F,0,0,1,0,25,0,1"
       unit="px"
       method="auto"
       mode="F"
       radius="0"
       chamfer_steps="1"
       flexible="false"
       use_knot_distance="true"
       apply_no_radius="true"
       apply_with_radius="true"
       only_selected="false"
       hide_knots="false" />
    <inkscape:path-effect
       effect="fillet_chamfer"
       id="path-effect26271"
       is_visible="true"
       lpeversion="1"
       satellites_param="F,0,0,1,0,15,0,1 @ F,0,0,1,0,15,0,1 @ F,0,0,1,0,15,0,1 @ F,0,0,1,0,15,0,1"
       unit="px"
       method="auto"
       mode="F"
       radius="15"
       chamfer_steps="1"
       flexible="false"
       use_knot_distance="true"
       apply_no_radius="true"
       apply_with_radius="true"
       only_selected="false"
       hide_knots="false" />
    <inkscape:path-effect
       effect="fillet_chamfer"
       id="path-effect26235"
       is_visible="true"
       lpeversion="1"
       satellites_param="F,0,0,1,0,50,0,1 @ F,0,0,1,0,0,0,1 @ F,0,0,1,0,0,0,1 @ F,0,0,1,0,0,0,1"
       unit="px"
       method="auto"
       mode="F"
       radius="0"
       chamfer_steps="1"
       flexible="false"
       use_knot_distance="true"
       apply_no_radius="true"
       apply_with_radius="true"
       only_selected="false"
       hide_knots="false" />
    <inkscape:path-effect
       effect="fillet_chamfer"
       id="path-effect26239"
       is_visible="true"
       lpeversion="1"
       satellites_param="F,0,0,1,0,0,0,1 @ F,0,0,1,0,0,0,1 @ F,0,0,1,0,0,0,1 @ F,0,0,1,0,25,0,1"
       unit="px"
       method="auto"
       mode="F"
       radius="0"
       chamfer_steps="1"
       flexible="false"
       use_knot_distance="true"
       apply_no_radius="true"
       apply_with_radius="true"
       only_selected="false"
       hide_knots="false" />
  </defs>
  <path
     style="display:inline;fill:#1cb0f6;fill-opacity:1;fill-rule:nonzero;stroke:#ffffff;stroke-width:4"
     id="path183"
     d="M 63.436962,4 H 18.563038 C 13.628201,4 11.866819,4.5845126 10.070258,5.5453238 8.119529,6.5885853 6.5885853,8.119529 5.5453238,10.070258 4.5845126,11.866819 4,13.628201 4,18.563038 v 28.873924 c 0,4.934837 0.5845126,6.696219 1.5453238,8.49278 1.0432615,1.950729 2.5742052,3.481673 4.5249342,4.524934 C 11.866819,61.415487 13.628201,62 18.563038,62 h 44.873924 c 4.934837,0 6.696219,-0.584513 8.49278,-1.545324 1.950729,-1.043261 3.481673,-2.574205 4.524934,-4.524934 C 77.415487,54.133181 78,52.371799 78,47.436962 V 18.563038 C 78,13.628201 77.415487,11.866819 76.454676,10.070258 75.411415,8.119529 73.880471,6.5885853 71.929742,5.5453238 70.133181,4.5845126 68.371799,4 63.436962,4 Z" />
  <path
     style="display:inline;fill:#eeeeee;fill-opacity:1;fill-rule:nonzero;stroke:none;stroke-width:1"
     id="path185"
     d="m 76,42 v 5.436962 c 0,4.368442 -0.454846,5.952545 -1.30895,7.549582 -0.854105,1.597037 -2.107469,2.850401 -3.704506,3.704506 C 69.389507,59.545155 67.805404,60 63.436962,60 H 18.563038 C 14.194596,60 12.610493,59.545155 11.013456,58.69105 9.416419,57.836945 8.163055,56.583581 7.3089503,54.986544 6.4548455,53.389507 6,51.805404 6,47.436962 V 42 Z" />
  <path
     style="display:inline;fill:#ff4b4b;fill-rule:nonzero;stroke:none;stroke-width:1"
     id="path187"
     d="m 18.563038,6 h 44.873924 c 4.368442,0 5.952545,0.4548455 7.549582,1.3089503 C 72.583581,8.163055 73.836945,9.416419 74.69105,11.013456 75.545154,12.610493 76,14.194596 76,18.563038 V 24 H 6 V 18.563038 C 6,14.194596 6.4548455,12.610493 7.3089503,11.013456 8.163055,9.416419 9.416419,8.163055 11.013456,7.3089503 12.610493,6.4548455 14.194596,6 18.563038,6 Z" />
  <g
     transform="matrix(0.96754265,0,0,0.92935236,-39.118284,3.28056)"
     id="g5399"
     style="display:none">
    <path
       style="opacity:1;fill:#ff4b4b;fill-opacity:1;fill-rule:evenodd;stroke:none;stroke-width:1px;stroke-linecap:butt;stroke-linejoin:miter;stroke-opacity:1"
       d="m 59.003717,22.52897 c 0,0 0.08922,14.156275 0.20393,17.74191 0.114707,3.585635 2.255699,9.952164 10.060541,9.78863 7.804842,-0.163534 10.473139,-6.871422 10.468401,-9.992564 -0.0047,-3.121142 0,-17.605948 0,-17.605948 z"
       id="path5358" />
    <path
       style="fill:#ffffff;fill-opacity:1;fill-rule:evenodd;stroke:none;stroke-width:0.7;stroke-linecap:butt;stroke-linejoin:miter;stroke-miterlimit:4;stroke-dasharray:none;stroke-opacity:1"
       d="m 62.734375,749.59766 c -4.676366,0.37074 -2.694223,13.18372 -2.363281,18.99023 2.333231,-0.7886 3.269667,-3.32691 4.664062,-5.28906 l -2.644531,6.15429 c 2.444618,-0.31672 3.280327,-1.12337 4.470703,-3.2207 1.578769,2.47541 -0.458395,5.69882 -1.203125,8.31446 1.28178,0.77691 2.703702,0.76953 4.039063,0.76953 1.335361,0 2.563923,0.007 3.845703,-0.76953 -0.74473,-2.61563 -2.781894,-5.83905 -1.203125,-8.31446 1.190376,2.09733 2.026085,2.90397 4.470703,3.2207 l -2.644531,-6.15429 c 1.394395,1.96215 2.330831,4.50045 4.664062,5.28906 0.341617,-5.99382 2.44371,-19.45312 -2.835937,-18.98633 1.218952,2.46005 -0.217825,4.06114 -2.308594,6.29688 -1.521046,-1.16167 -2.315883,-2.36486 -1.537109,-3.6543 l 2.210937,-0.76953 c 1.344271,-1.33038 0.833719,-1.28032 0.529297,-1.63281 -4.226208,-0.99605 -4.671722,1.52682 -5.28711,3.89258 -0.615388,-2.36576 -1.062854,-4.88863 -5.289062,-3.89258 -0.280389,0.47265 -0.814974,0.30243 0.529297,1.63281 l 2.210937,0.76953 c 0.778774,1.28944 -0.01606,2.49263 -1.537109,3.6543 -2.090769,-2.23574 -3.527546,-3.83682 -2.308594,-6.29688 -0.164989,-0.0146 -0.321805,-0.0159 -0.472656,-0.004 z"
       id="path5360"
       transform="translate(0,-726)" />
    <path
       style="fill:#ffc800;fill-opacity:1;fill-rule:evenodd;stroke:none;stroke-width:1px;stroke-linecap:butt;stroke-linejoin:miter;stroke-opacity:1"
       d="M 69.404297,735.24023 68.009786,744.43257 64,739.25 l 0.135973,5.16602 -3.671129,-3.43164 3.280666,7.5953 h 4.111328 3.194902 4.316816 l 3.246678,-7.39223 -3.858065,3.62053 0.322909,-5.35491 -3.805856,5.09956 z"
       transform="translate(0,-726)"
       id="path5378" />
  </g>
  <g
     inkscape:groupmode="layer"
     id="layer1"
     inkscape:label="Layer 1"
     style="opacity:1">
    <path
       id="rect32714"
       style="fill:#ff4b4b;fill-opacity:1;stroke:none;stroke-width:14.3426;stroke-linejoin:round;stroke-miterlimit:4;stroke-dasharray:none;stroke-opacity:1;stop-color:#000000"
       d="M 18.855886,23.999999 V 40.449913 A 10.597541,10.597541 0 0 0 29.453426,51.047454 10.597541,10.597541 0 0 0 40.050967,40.449913 V 23.999999 H 29.453426 Z" />
    <path
       id="rect25091"
       d="m 25.286769,41.117429 1.118444,1.118443 -3.657248,3.657249 a 0.7908611,0.7908611 0 0 1 -1.118447,0 0.79085917,0.79085917 0 0 1 3e-6,-1.118444 z"
       style="display:inline;fill:#ffc800;fill-opacity:1;stroke:none;stroke-width:1.29573;stroke-linejoin:round;stroke-miterlimit:4;stroke-dasharray:none;stroke-opacity:1;stop-color:#000000" />
    <path
       id="rect25091-0"
       d="m 33.620081,41.117428 -1.118444,1.118444 3.657249,3.657248 a 0.7908611,0.7908611 0 0 0 1.118446,0 0.79085917,0.79085917 0 0 0 -2e-6,-1.118444 z"
       style="display:inline;fill:#ffc800;fill-opacity:1;stroke:none;stroke-width:1.29573;stroke-linejoin:round;stroke-miterlimit:4;stroke-dasharray:none;stroke-opacity:1;stop-color:#000000" />
    <path
       id="rect19512"
       style="display:inline;fill:#eeeeee;fill-opacity:1;stroke-width:1.99638;stroke-linejoin:round;stop-color:#000000"
       d="m 21.702986,24.822495 a 1.5817225,1.5817225 0 0 0 -1.581722,1.581722 v 12.337436 4.745167 a 4.7451675,4.7451675 0 0 0 4.109451,-2.372584 l -0.592405,2.210891 1.099297,0.294532 a 1.5817225,1.5817225 0 0 0 1.937178,-1.118388 l 0.56423,-2.105668 v 7.606418 a 2.2144115,2.2144115 0 0 0 2.214411,2.214411 2.2144115,2.2144115 0 0 0 2.214412,-2.214411 v -7.606418 l 0.564229,2.105668 a 1.5817225,1.5817225 0 0 0 1.93718,1.118388 l 1.099297,-0.294532 -0.592406,-2.210891 a 4.7451675,4.7451675 0 0 0 4.109451,2.372584 V 38.741653 26.404217 a 1.5817225,1.5817225 0 0 0 -1.581722,-1.581722 1.5095365,1.5095365 0 0 0 -1.433746,1.581722 v 2.567457 A 2.3725838,2.3725838 0 0 1 33.407733,31.149385 1.5817225,1.5817225 0 0 1 31.82601,29.567662 V 27.98594 l 1.581723,-3.163445 H 32.616871 A 3.163445,3.163445 0 0 0 29.453426,27.98594 3.163445,3.163445 0 0 0 26.289981,24.822495 H 25.49912 l 1.581723,3.163445 v 1.581722 a 1.5817225,1.5817225 0 0 1 -1.581723,1.581723 2.3725838,2.3725838 0 0 1 -2.362389,-2.177711 v -2.567457 a 1.5095369,1.5095369 0 0 0 -1.433745,-1.581722 z" />
    <path
       style="display:inline;fill:#ffc800;fill-opacity:1;stroke:none;stroke-width:0.0318464px;stroke-linecap:butt;stroke-linejoin:miter;stroke-opacity:1"
       d="m 23.074313,22.866509 -2.381712,-4.799543 a 2.5502262,2.5502262 0 0 1 2.28442,-3.68384 h 12.804643 a 2.5502287,2.5502287 0 0 1 2.284423,3.683842 l -2.381706,4.799541 a 2.0405385,2.0405385 0 0 1 -1.827857,1.13349 h -8.954353 a 2.0405404,2.0405404 0 0 1 -1.827858,-1.13349 z"
       id="path5913"
       sodipodi:nodetypes="ccccc" />
    <path
       id="rect15514"
       style="display:inline;fill:#ffc800;stroke-width:2.00275;stroke-linejoin:round;stop-color:#000000"
       d="m 29.379339,11.390469 c 1.084564,0 1.957698,0.873133 1.957698,1.957698 v 3.670708 c 0,1.084565 -0.873134,1.957698 -1.957698,1.957698 -1.084565,0 -1.957698,-0.873133 -1.957698,-1.957698 v -3.670708 c 0,-1.084565 0.873133,-1.957698 1.957698,-1.957698 z" />
    <path
       id="rect25297"
       d="m 25.333214,45.755719 1.006602,1.006602 a 0.47451666,0.47451666 0 0 1 0,0.671067 l -1.006602,1.006602 a 0.47451666,0.47451666 0 0 1 -0.671068,0 l -1.006602,-1.006602 a 0.47451666,0.47451666 0 0 1 0,-0.671067 l 1.006602,-1.006602 a 0.47451666,0.47451666 0 0 1 0.671068,0 z"
       style="display:inline;fill:#ffc800;fill-opacity:1;stroke:none;stroke-width:1.29274;stroke-linejoin:round;stroke-miterlimit:4;stroke-dasharray:none;stroke-opacity:1;stop-color:#000000" />
    <path
       id="path9173"
       style="display:inline;fill:#ff4b4b;fill-opacity:1;stroke:none;stroke-width:0;stroke-linecap:butt;stroke-linejoin:miter;stroke-miterlimit:4;stroke-dasharray:none;stroke-opacity:1"
       d="m 22.977014,15.937477 c -0.399084,-0.004 -0.785167,0.257215 -0.926481,0.631083 -0.03269,0.08167 -0.0534,0.167351 -0.06266,0.25424 -0.03645,0.342031 0.251192,0.86381 0.406541,1.176802 0.341913,0.688875 0.683788,1.377772 1.025666,2.066665 0.124266,0.250401 0.451636,0.453386 0.731176,0.453386 h 0.960958 a 0.49507898,0.49507898 0 0 0 0.480553,-0.614125 l -0.830861,-3.353925 a 0.80854848,0.80854848 0 0 0 -0.784825,-0.614126 z m 3.088456,0.614126 0.868895,3.507456 a 0.60641137,0.60641137 0 0 0 0.588618,0.460594 h 0.750701 a 0.47451675,0.47451675 0 0 0 0.474517,-0.474517 v -3.47497 a 0.632689,0.632689 0 0 0 -0.632689,-0.632689 h -1.569489 a 0.49507898,0.49507898 0 0 0 -0.480553,0.614126 z m 3.948109,0.01856 v 3.47497 a 0.47451675,0.47451675 0 0 0 0.474516,0.474517 h 0.750886 a 0.60633997,0.60633997 0 0 0 0.588566,-0.460607 l 0.868462,-3.507426 a 0.49513729,0.49513729 0 0 0 -0.480623,-0.614143 h -1.569118 a 0.632689,0.632689 0 0 0 -0.632689,0.632689 z m 3.985991,-0.01855 -0.830444,3.35389 a 0.49513741,0.49513741 0 0 0 0.480623,0.614143 h 0.957746 c 0.279537,0 0.606881,-0.202999 0.731176,-0.453386 0.449874,-0.906268 0.899782,-1.812511 1.348912,-2.719141 0.168634,-0.360042 0.09328,-0.817766 -0.186162,-1.101645 -0.198624,-0.209883 -0.490458,-0.322261 -0.778255,-0.308004 h -0.938841 a 0.80845307,0.80845307 0 0 0 -0.784755,0.61415 z" />
    <path
       id="rect17558"
       style="display:inline;fill:#ffc800;stroke-width:0.699621;stroke-linejoin:round;stop-color:#000000"
       d="m 25.49912,24.822495 1.186292,2.372583 h -2.768014 v -0.790861 a 1.5817225,1.5817225 0 0 1 1.581722,-1.581722 z"
       sodipodi:nodetypes="ccccc" />
    <path
       id="rect17750"
       style="display:inline;fill:#ffc800;stroke-width:0.494709;stroke-linejoin:round;stop-color:#000000"
       d="m 24.708259,27.195078 h 1.977153 l 0.395431,0.790862 H 25.49912 a 0.79086125,0.79086125 0 0 1 -0.790861,-0.790862 z"
       sodipodi:nodetypes="ccccc" />
    <path
       id="rect25297-8"
       d="m 33.573638,45.755717 -1.006602,1.006602 a 0.47451666,0.47451666 0 0 0 0,0.671068 l 1.006602,1.006602 a 0.47451666,0.47451666 0 0 0 0.671067,0 l 1.006602,-1.006602 a 0.47451666,0.47451666 0 0 0 0,-0.671068 l -1.006602,-1.006602 a 0.47451666,0.47451666 0 0 0 -0.671067,0 z"
       style="display:inline;fill:#ffc800;fill-opacity:1;stroke:none;stroke-width:1.29274;stroke-linejoin:round;stroke-miterlimit:4;stroke-dasharray:none;stroke-opacity:1;stop-color:#000000" />
    <path
       id="rect17558-5"
       style="display:inline;fill:#ffc800;stroke-width:0.699621;stroke-linejoin:round;stop-color:#000000"
       d="m 33.407733,24.822495 -1.186292,2.372583 h 2.768014 v -0.790861 a 1.5817225,1.5817225 0 0 0 -1.581722,-1.581722 z"
       sodipodi:nodetypes="ccccc" />
    <path
       id="rect17750-1"
       style="display:inline;fill:#ffc800;stroke-width:0.494709;stroke-linejoin:round;stop-color:#000000"
       d="M 34.198594,27.195078 H 32.221441 L 31.82601,27.98594 h 1.581723 a 0.79086125,0.79086125 0 0 0 0.790861,-0.790862 z"
       sodipodi:nodetypes="ccccc" />
  </g>
</svg>
