<?xml version="1.0" encoding="UTF-8" standalone="no"?>
<svg
   height="62"
   width="78"
   version="1.1"
   id="svg2227"
   xmlns="http://www.w3.org/2000/svg">
  <metadata
     id="metadata2233" />
  <g
     id="inte"
     style="opacity:1;fill:none;fill-rule:evenodd;stroke:none;stroke-width:1"
     transform="translate(-1.9999988,-2)">
    <path
       d="M 63.436963,4 H 18.563037 C 13.628201,4 11.866819,4.5845126 10.070258,5.5453238 8.119529,6.5885852 6.5885852,8.119529 5.5453238,10.070258 4.5845126,11.866819 4,13.628201 4,18.563037 v 28.873926 c 0,4.934836 0.5845126,6.696218 1.5453238,8.492779 1.0432614,1.950729 2.5742052,3.481673 4.5249342,4.524934 C 11.866819,61.415487 13.628201,62 18.563037,62 h 44.873926 c 4.934836,0 6.696218,-0.584513 8.492779,-1.545324 1.950729,-1.043261 3.481673,-2.574205 4.524934,-4.524934 C 77.415487,54.133181 78,52.371799 78,47.436963 V 18.563037 C 78,13.628201 77.415487,11.866819 76.454676,10.070258 75.411415,8.119529 73.880471,6.5885852 71.929742,5.5453238 70.133181,4.5845126 68.371799,4 63.436963,4 Z"
       id="path67"
       style="fill:#1cb0f6;fill-opacity:1;stroke:#ffffff;stroke-width:4" />
    <path
       style="fill:#ffc300;fill-opacity:1;fill-rule:nonzero;stroke:none;stroke-width:1"
       id="path185"
       d="m 76.042201,60.01358 c 0,0 -3.490279,-2.127646 -5.087316,-1.273539 -1.597037,0.854105 -3.18114,1.30895 -7.549582,1.30895 H 18.531379 c -4.368442,0 -9.5001632,-0.48074 -11.0972002,-1.334845 C 5.8371426,57.860039 4.8723009,54.609642 4.8723009,54.609642 L 5.9683418,47.485951 5.9079294,6.017138 Z"
       />
    <path
       style="fill:#eeeeee;fill-opacity:1;fill-rule:nonzero;stroke:none;stroke-width:1"
       id="path185-7"
       d="m 5.907932,60.01358 c 0,0 3.490279,-2.127646 5.087316,-1.273539 1.597037,0.854105 3.18114,1.30895 7.549582,1.30895 h 44.873924 c 4.368442,0 9.500163,-0.48074 11.0972,-1.334845 1.597036,-0.854107 2.561878,-4.104504 2.561878,-4.104504 l -1.096041,-7.123691 0.06041,-41.468813 z"
       />
    <path
       style="fill:#ff4b4b;fill-opacity:1;stroke:none;stroke-width:1px;stroke-linecap:butt;stroke-linejoin:miter;stroke-opacity:1"
       d="M 5.9079294,60.01358 40.978804,33.013477 76.042201,60.01358 H 5.9079294"
       id="path2871"
       />
    <path
       d="M 63.436963,4 H 18.563037 C 13.628201,4 11.866819,4.584513 10.070258,5.545324 8.1195288,6.588585 6.588585,8.119529 5.5453236,10.070258 4.5845124,11.866819 3.9999998,13.628201 3.9999998,18.563037 v 28.873926 c 0,4.934836 0.5845126,6.696218 1.5453238,8.492779 1.0432614,1.950729 2.5742052,3.481673 4.5249344,4.524934 C 11.866819,61.415487 13.628201,62 18.563037,62 h 44.873926 c 4.934836,0 6.696218,-0.584513 8.492779,-1.545324 1.950729,-1.043261 3.481673,-2.574205 4.524934,-4.524934 C 77.415487,54.133181 78,52.371799 78,47.436963 V 18.563037 C 78,13.628201 77.415487,11.866819 76.454676,10.070258 75.411415,8.119529 73.880471,6.588585 71.929742,5.545324 70.133181,4.584513 68.371799,4 63.436963,4 Z"
       id="path67-3"
       style="fill:none;fill-opacity:1;fill-rule:evenodd;stroke:#ffffff;stroke-width:4" />
  </g>
</svg>
