<?xml version="1.0" encoding="UTF-8" standalone="no"?>
<svg
   height="62"
   width="78.000008"
   version="1.1"
   id="svg2227"
   sodipodi:docname="flag_ryu.svg"
   inkscape:version="1.4-beta (f21c272752, 2024-04-22, custom)"
   inkscape:export-filename="flag_ryu.png"
   inkscape:export-xdpi="192"
   inkscape:export-ydpi="192"
   xmlns:inkscape="http://www.inkscape.org/namespaces/inkscape"
   xmlns:sodipodi="http://sodipodi.sourceforge.net/DTD/sodipodi-0.dtd"
   xmlns="http://www.w3.org/2000/svg"
   xmlns:svg="http://www.w3.org/2000/svg">
  <defs
     id="defs1" />
  <sodipodi:namedview
     id="namedview1"
     pagecolor="#505050"
     bordercolor="#ffffff"
     borderopacity="1"
     inkscape:showpageshadow="0"
     inkscape:pageopacity="0"
     inkscape:pagecheckerboard="1"
     inkscape:deskcolor="#505050"
     inkscape:zoom="6.9260196"
     inkscape:cx="45.986009"
     inkscape:cy="15.232414"
     inkscape:window-width="1920"
     inkscape:window-height="1000"
     inkscape:window-x="0"
     inkscape:window-y="0"
     inkscape:window-maximized="1"
     inkscape:current-layer="g2" />
  <g
     id="g2"
     inkscape:label="ryu">
    <path
       d="M 61.436966,2 H 16.563042 C 11.628205,2 9.866823,2.5845126 8.0702621,3.5453239 6.1195328,4.5885853 4.5885891,6.119529 3.5453277,8.0702583 2.5845164,9.8668192 2.0000038,11.628201 2.0000038,16.563038 v 28.873924 c 0,4.934837 0.5845126,6.696219 1.5453239,8.49278 1.0432614,1.950729 2.5742051,3.481673 4.5249344,4.524934 C 9.866823,59.415487 11.628205,60 16.563042,60 h 44.873924 c 4.934837,0 6.696219,-0.584513 8.49278,-1.545324 1.950729,-1.043261 3.481673,-2.574205 4.524934,-4.524934 0.960811,-1.796561 1.545324,-3.557943 1.545324,-8.49278 V 16.563038 c 0,-4.934837 -0.584513,-6.6962188 -1.545324,-8.4927797 C 73.411419,6.119529 71.880475,4.5885853 69.929746,3.5453239 68.133185,2.5845126 66.371803,2 61.436966,2 Z"
       id="path81"
       stroke="#ffffff"
       stroke-width="4"
       fill="#eeeeee"
       style="fill:#eeeeee;fill-opacity:1;fill-rule:nonzero" />
    <g
       id="g3">
      <circle
         cx="38.999798"
         cy="30.95154"
         r="20.661493"
         fill="#ee0000"
         paint-order="fill markers stroke"
         id="circle1"
         style="fill:#ff4b4b;fill-opacity:1;stroke-width:3.78;stroke:none;stroke-dasharray:none" />
      <ellipse
         cx="38.999798"
         cy="26.838322"
         fill="#ffffff"
         paint-order="fill markers stroke"
         rx="14.128305"
         ry="14.440467"
         id="ellipse1"
         style="fill:#eeeeee;fill-opacity:1;stroke-width:3.77951;stroke:none" />
      <ellipse
         cx="39.000206"
         cy="23.653778"
         fill="#ee0000"
         paint-order="fill markers stroke"
         rx="9.2838326"
         ry="9.2694378"
         id="ellipse2"
         style="fill:#ff4b4b;fill-opacity:1;stroke-width:3.78;stroke:none;stroke-dasharray:none"
         inkscape:label="ellipse2-1" />
    </g>
  </g>
</svg>
