<?xml version="1.0" encoding="UTF-8" standalone="no"?>
<svg
   height="62"
   width="78.000008"
   version="1.1"
   id="svg2227"
   sodipodi:docname="flag_template.svg"
   inkscape:version="1.2.1 (9c6d41e410, 2022-07-14)"
   xmlns:inkscape="http://www.inkscape.org/namespaces/inkscape"
   xmlns:sodipodi="http://sodipodi.sourceforge.net/DTD/sodipodi-0.dtd"
   xmlns="http://www.w3.org/2000/svg"
   xmlns:svg="http://www.w3.org/2000/svg">
  <defs
     id="defs21">
    <inkscape:path-effect
       effect="fillet_chamfer"
       id="path-effect2679"
       is_visible="true"
       lpeversion="1"
       nodesatellites_param="F,0,0,1,0,0,0,1 @ F,0,0,1,0,1.7122209,0,1 @ F,0,0,1,0,0,0,1 @ F,0,0,1,0,1.7233552,0,1 @ F,0,0,1,0,0,0,1 @ F,0,0,1,0,1.7741333,0,1 @ F,0,0,1,0,0,0,1 @ F,0,0,1,0,1.5298165,0,1 @ F,0,0,1,0,0,0,1 @ IF,0,0,1,0,0,0,1 @ F,0,0,1,0,0,0,1 @ IF,0,0,1,0,1.240675,0,1 @ F,0,0,1,0,0,0,1 @ F,0,0,1,0,1.7708123,0,1 @ F,0,0,1,0,0,0,1 @ F,0,0,1,0,2.0093563,0,1"
       unit="px"
       method="auto"
       mode="F"
       radius="0"
       chamfer_steps="1"
       flexible="false"
       use_knot_distance="true"
       apply_no_radius="true"
       apply_with_radius="true"
       only_selected="false"
       hide_knots="false" />
  </defs>
  <sodipodi:namedview
     id="namedview19"
     pagecolor="#ffffff"
     bordercolor="#000000"
     borderopacity="0.25"
     inkscape:showpageshadow="2"
     inkscape:pageopacity="0.0"
     inkscape:pagecheckerboard="0"
     inkscape:deskcolor="#d1d1d1"
     showgrid="false"
     inkscape:zoom="8"
     inkscape:cx="-12.125"
     inkscape:cy="33.0625"
     inkscape:window-width="1920"
     inkscape:window-height="991"
     inkscape:window-x="-9"
     inkscape:window-y="-9"
     inkscape:window-maximized="1"
     inkscape:current-layer="de" />
  <g
     id="palette">
    <ellipse
       ry="20"
       rx="19.849623"
       cy="-10"
       cx="-80.150375"
       id="white"
       style="display:inline;opacity:1;fill:#ffffff;fill-opacity:1;fill-rule:nonzero;stroke:none;stroke-width:6.00702;stroke-linecap:round;stroke-linejoin:round;stroke-miterlimit:4;stroke-dasharray:none;stroke-dashoffset:0;stroke-opacity:1" />
    <ellipse
       ry="20"
       rx="19.849623"
       cy="-60"
       cx="-80.150375"
       id="gray"
       style="opacity:1;fill:#eeeeee;fill-opacity:1;fill-rule:nonzero;stroke:none;stroke-width:6.00702;stroke-linecap:round;stroke-linejoin:round;stroke-miterlimit:4;stroke-dasharray:none;stroke-dashoffset:0;stroke-opacity:1" />
    <ellipse
       ry="20"
       rx="19.849623"
       cy="-110"
       cx="-80.150375"
       id="black"
       style="display:inline;opacity:1;fill:#4c4c4c;fill-opacity:1;fill-rule:nonzero;stroke:none;stroke-width:6.00702;stroke-linecap:round;stroke-linejoin:round;stroke-miterlimit:4;stroke-dasharray:none;stroke-dashoffset:0;stroke-opacity:1" />
    <ellipse
       ry="20"
       rx="19.849623"
       cy="-60"
       cx="-30.150375"
       id="lightblue"
       style="display:inline;opacity:1;fill:#1cb0f6;fill-opacity:1;fill-rule:nonzero;stroke:none;stroke-width:6.00702;stroke-linecap:round;stroke-linejoin:round;stroke-miterlimit:4;stroke-dasharray:none;stroke-dashoffset:0;stroke-opacity:1" />
    <ellipse
       ry="20"
       rx="19.849623"
       cy="-110"
       cx="-30.150375"
       id="darkblue"
       style="display:inline;opacity:1;fill:#1254a9;fill-opacity:1;fill-rule:nonzero;stroke:none;stroke-width:6.00702;stroke-linecap:round;stroke-linejoin:round;stroke-miterlimit:4;stroke-dasharray:none;stroke-dashoffset:0;stroke-opacity:1" />
    <ellipse
       ry="20"
       rx="19.849623"
       cy="-60"
       cx="19.849623"
       id="red"
       style="display:inline;opacity:1;fill:#ff4b4b;fill-opacity:1;fill-rule:nonzero;stroke:none;stroke-width:6.00702;stroke-linecap:round;stroke-linejoin:round;stroke-miterlimit:4;stroke-dasharray:none;stroke-dashoffset:0;stroke-opacity:1" />
    <ellipse
       ry="20"
       rx="19.849623"
       cy="-160"
       cx="-30.150377"
       id="red-6"
       style="display:inline;fill:#9069cd;fill-opacity:1;fill-rule:nonzero;stroke:none;stroke-width:6.00702;stroke-linecap:round;stroke-linejoin:round;stroke-miterlimit:4;stroke-dasharray:none;stroke-dashoffset:0;stroke-opacity:1"
       inkscape:label="purple" />
    <ellipse
       ry="20"
       rx="19.849623"
       cy="-110"
       cx="19.849623"
       id="red-6-8"
       style="display:inline;fill:#ffaade;fill-opacity:1;fill-rule:nonzero;stroke:none;stroke-width:6.00702;stroke-linecap:round;stroke-linejoin:round;stroke-miterlimit:4;stroke-dasharray:none;stroke-dashoffset:0;stroke-opacity:1"
       inkscape:label="pink" />
    <ellipse
       ry="20"
       rx="19.849623"
       cy="-60"
       cx="69.849625"
       id="yellow"
       style="display:inline;opacity:1;fill:#ffc800;fill-opacity:1;fill-rule:nonzero;stroke:none;stroke-width:6.00702;stroke-linecap:round;stroke-linejoin:round;stroke-miterlimit:4;stroke-dasharray:none;stroke-dashoffset:0;stroke-opacity:1" />
    <ellipse
       ry="20"
       rx="19.849623"
       cy="-110"
       cx="69.849625"
       id="orange"
       style="display:inline;opacity:1;fill:#ff9600;fill-opacity:1;fill-rule:nonzero;stroke:none;stroke-width:6.00702;stroke-linecap:round;stroke-linejoin:round;stroke-miterlimit:4;stroke-dasharray:none;stroke-dashoffset:0;stroke-opacity:1" />
    <ellipse
       ry="20"
       rx="19.849623"
       cy="-160"
       cx="69.849625"
       id="brown"
       style="display:inline;opacity:1;fill:#ffce8e;fill-opacity:1;fill-rule:nonzero;stroke:none;stroke-width:6.00702;stroke-linecap:round;stroke-linejoin:round;stroke-miterlimit:4;stroke-dasharray:none;stroke-dashoffset:0;stroke-opacity:1" />
    <ellipse
       ry="20"
       rx="19.849623"
       cy="-60"
       cx="119.84962"
       id="green"
       style="display:inline;opacity:1;fill:#78c800;fill-opacity:1;fill-rule:nonzero;stroke:none;stroke-width:6.00702;stroke-linecap:round;stroke-linejoin:round;stroke-miterlimit:4;stroke-dasharray:none;stroke-dashoffset:0;stroke-opacity:1" />
  </g>
  <g
     id="de">
    <path
       d="M 62.189713,1.4278852 H 17.315789 c -4.934837,0 -6.696219,0.5845126 -8.4927798,1.5453238 C 6.8722802,4.0164705 5.3413365,5.5474142 4.298075,7.4981432 3.3372638,9.2947042 2.7527512,11.056086 2.7527512,15.990923 v 28.873924 c 0,4.934837 0.5845126,6.696219 1.5453238,8.49278 1.0432615,1.950729 2.5742052,3.481673 4.5249342,4.524934 1.7965608,0.960811 3.5579428,1.545324 8.4927798,1.545324 h 44.873924 c 4.934837,0 6.696219,-0.584513 8.49278,-1.545324 1.950729,-1.043261 3.481673,-2.574205 4.524934,-4.524934 0.960811,-1.796561 1.545324,-3.557943 1.545324,-8.49278 V 15.990923 c 0,-4.934837 -0.584513,-6.6962188 -1.545324,-8.4927798 C 74.164166,5.5474142 72.633222,4.0164705 70.682493,2.973209 68.885932,2.0123978 67.12455,1.4278852 62.189713,1.4278852 Z"
       id="path54"
       style="fill:#1cb0f6;fill-opacity:1;fill-rule:nonzero;stroke:none;stroke-width:4" />
    <path
       style="fill:none;fill-rule:nonzero;stroke:#ffffff;stroke-width:4"
       d="M 61.436966,2 H 16.563038 C 11.628201,2 9.866819,2.584513 8.070258,3.545324 6.119529,4.588586 4.588585,6.119529 3.545324,8.070259 2.584513,9.86682 2,11.628202 2,16.563039 v 28.873923 c 0,4.934837 0.584513,6.696219 1.545324,8.49278 1.043261,1.950729 2.574205,3.481673 4.524934,4.524934 C 9.866819,59.415487 11.628201,60 16.563038,60 h 44.873928 c 4.93484,0 6.69622,-0.584513 8.49278,-1.545324 1.95073,-1.043261 3.48167,-2.574205 4.52493,-4.524934 0.96081,-1.796561 1.54533,-3.557943 1.54533,-8.49278 V 16.563039 c 0,-4.934837 -0.58452,-6.696219 -1.54533,-8.49278 -1.04326,-1.95073 -2.5742,-3.481673 -4.52493,-4.524935 C 68.133186,2.584513 66.371806,2 61.436966,2 Z"
       id="border" />
    <circle
       style="fill:#eeeeee;fill-opacity:1;stroke:#000000;stroke-width:0;stroke-linejoin:bevel;paint-order:markers stroke fill"
       id="path908"
       cx="39.000004"
       cy="31"
       r="17" />
    <path
       fill="#09bcff"
       opacity="1"
       stroke="none"
       d="m 49.096185,29.57643 c -3.378127,1.912666 -1.666439,0.845321 -3.952097,2.297067 -0.744221,0.618385 -1.365469,0.926914 -1.8113,1.451771 -1.065408,0.825151 -0.789403,2.221576 -1.415575,3.475558 -0.07365,0.169234 -0.349683,0.482033 -0.591975,0.701778 -1.042105,0.945123 -2.491695,0.578854 -2.939457,-0.763061 -0.826211,-2.476109 -2.627612,-3.529774 -4.940251,-4.31574 -3.279727,-1.11463 -2.278791,-0.834078 -5.461199,-2.221556 -0.770028,-0.335719 -0.94145,-0.438754 -2.449108,-1.284456 -1.386985,-0.832283 -1.286154,-1.14473 -0.964958,-1.216541 -0.614002,-0.254127 0.899308,0.366026 1.0806,0.464767 2.74018,1.213903 2.718434,1.339907 6.452482,2.519693 1.771181,0.559611 4.463468,1.629817 5.892325,2.293823 0.331456,0.154031 1.588507,0.850251 2.044559,0.794438 1.206662,-0.142755 1.755391,-1.04104 2.825029,-1.686553 2.668284,-1.411411 3.035341,-1.949863 5.105949,-2.935395 3.512201,-1.671678 3.133328,-1.7382 4.407354,-2.234719 0.248907,-0.09701 0.977186,-0.467093 1.252707,-0.308166 0.01588,0.30936 -0.312387,0.458333 -0.544388,0.582422 -0.814977,0.636611 -0.431598,0.402569 -2.898699,1.729314 z"
       id="path147"
       sodipodi:nodetypes="ccccsssscccssccsscccc"
       style="stroke-width:0.18004;fill:#1cb0f6;fill-opacity:1" />
  </g>
</svg>
