<?xml version="1.0" encoding="UTF-8" standalone="no"?>
<!-- Created with Inkscape (http://www.inkscape.org/) -->

<svg
   width="104.59944mm"
   height="83.14315mm"
   viewBox="0 0 104.59944 83.14315"
   version="1.1"
   id="svg5"
   inkscape:version="1.1.2 (0a00cf5339, 2022-02-04)"
   sodipodi:docname="Flag25.svg"
   xmlns:inkscape="http://www.inkscape.org/namespaces/inkscape"
   xmlns:sodipodi="http://sodipodi.sourceforge.net/DTD/sodipodi-0.dtd"
   xmlns="http://www.w3.org/2000/svg"
   xmlns:svg="http://www.w3.org/2000/svg">
  <sodipodi:namedview
     id="namedview7"
     pagecolor="#ffffff"
     bordercolor="#666666"
     borderopacity="1.0"
     inkscape:pageshadow="2"
     inkscape:pageopacity="0.0"
     inkscape:pagecheckerboard="0"
     inkscape:document-units="mm"
     showgrid="false"
     objecttolerance="20"
     fit-margin-top="0"
     fit-margin-left="0"
     fit-margin-right="0"
     fit-margin-bottom="0"
     inkscape:zoom="0.5"
     inkscape:cx="69"
     inkscape:cy="158"
     inkscape:window-width="1366"
     inkscape:window-height="699"
     inkscape:window-x="0"
     inkscape:window-y="0"
     inkscape:window-maximized="1"
     inkscape:current-layer="layer1" />
  <defs
     id="defs2" />
  <g
     inkscape:label="Layer 1"
     inkscape:groupmode="layer"
     id="layer1"
     transform="translate(-94.975433,-73.558934)">
    <path
       d="m 177.36354,76.240969 h -60.17677 c -6.61771,0 -8.97975,0.783839 -11.38897,2.072303 -2.61597,1.399045 -4.66899,3.452064 -6.068024,6.068029 -1.288466,2.40922 -2.072308,4.771263 -2.072308,11.388976 v 38.720463 c 0,6.61771 0.783842,8.97976 2.072308,11.38898 1.399034,2.61596 3.452054,4.66899 6.068024,6.06803 2.40922,1.28846 4.77126,2.0723 11.38897,2.0723 h 60.17677 c 6.61771,0 8.97975,-0.78384 11.38898,-2.0723 2.61596,-1.39904 4.66898,-3.45207 6.06802,-6.06803 1.28846,-2.40922 2.0723,-4.77127 2.0723,-11.38898 V 95.770277 c 0,-6.617713 -0.78384,-8.979756 -2.0723,-11.388976 -1.39904,-2.615965 -3.45206,-4.668984 -6.06802,-6.068029 -2.40923,-1.288464 -4.77127,-2.072303 -11.38898,-2.072303 z"
       id="path2938"
       stroke="#ffffff"
       stroke-width="5.36407"
       fill="#eeeeee"
       style="fill:#ff4b4b;fill-opacity:1;fill-rule:nonzero" />
    <path
       d="m 170.4382,87.673731 h -46.32609 c -5.09454,0 -6.91292,0.553407 -8.76761,1.463087 -2.01387,0.987754 -3.59435,2.437225 -4.67138,4.284148 -0.9919,1.700957 -1.59533,3.368606 -1.59533,8.040844 v 27.33739 c 0,4.67225 0.60343,6.3399 1.59533,8.04085 1.07703,1.84693 2.65751,3.29641 4.67138,4.28415 1.85469,0.90968 3.67307,1.46309 8.76761,1.46309 h 46.32609 c 5.09454,0 6.91292,-0.55341 8.76762,-1.46309 2.01386,-0.98774 3.59434,-2.43722 4.67137,-4.28415 0.9919,-1.70095 1.59533,-3.3686 1.59533,-8.04085 v -27.33739 c 0,-4.672238 -0.60343,-6.339887 -1.59533,-8.040844 -1.07703,-1.846923 -2.65751,-3.296394 -4.67137,-4.284148 -1.8547,-0.90968 -3.67308,-1.463087 -8.76762,-1.463087 z"
       id="path6598"
       stroke="#ffffff"
       stroke-width="3.95458"
       fill="#eeeeee"
       style="fill:#ffc800;fill-opacity:1;fill-rule:nonzero;stroke:none" />
    <path
       d="M 164.17041,96.774978 H 130.3799 c -3.71596,0 -5.0423,0.369967 -6.39511,0.978109 -1.46893,0.660338 -2.62174,1.629345 -3.40733,2.864063 -0.7235,1.13713 -1.16364,2.25199 -1.16364,5.37549 v 18.27573 c 0,3.12351 0.44014,4.23837 1.16364,5.3755 0.78559,1.23472 1.9384,2.20372 3.40733,2.86407 1.35281,0.60814 2.67915,0.9781 6.39511,0.9781 h 33.79051 c 3.71596,0 5.0423,-0.36996 6.39512,-0.9781 1.46892,-0.66035 2.62173,-1.62935 3.40732,-2.86407 0.7235,-1.13713 1.16364,-2.25199 1.16364,-5.3755 v -18.27573 c 0,-3.1235 -0.44014,-4.23836 -1.16364,-5.37549 -0.78559,-1.234718 -1.9384,-2.203725 -3.40732,-2.864063 -1.35282,-0.608142 -2.67916,-0.978109 -6.39512,-0.978109 z"
       id="path6708"
       stroke="#ffffff"
       stroke-width="2.7615"
       fill="#eeeeee"
       style="fill:#eeeee6;fill-opacity:1;fill-rule:nonzero;stroke:none" />
    <g
       id="g14989"
       transform="matrix(1.2459428,0,0,1.2459428,-16.935844,-66.227517)">
      <path
         style="fill:#ffc800;fill-opacity:1;stroke:none;stroke-width:0.264583px;stroke-linecap:butt;stroke-linejoin:miter;stroke-opacity:1"
         d="m 128.18944,144.18854 h 8.1084 l 0.008,6.31341 c 0.0801,4.99382 -8.32748,5.02518 -8.12579,-0.0283 z"
         id="path7492"
         sodipodi:nodetypes="ccccc" />
      <path
         style="fill:#ff4b4b;fill-opacity:1;stroke:none;stroke-width:0.065;stroke-linecap:butt;stroke-linejoin:miter;stroke-miterlimit:4;stroke-dasharray:none;stroke-opacity:1"
         d="m 131.50497,146.88251 c -0.53988,-0.25951 -1.57964,-0.89191 0.0587,-1.5306 0.40583,-0.14991 1.6062,-0.18258 2.00649,0.0467 0.76741,0.61687 -0.30129,2.29577 -0.64298,3.7495 -0.006,0.66961 1.27577,1.66106 1.57066,0.16757 -0.4777,-0.67071 -0.59141,-1.82336 -0.22582,-2.09894 1.36028,0.0105 0.96119,-0.25454 1.51864,0.16885 0.30312,0.59774 -1.28029,0.42824 -1.03589,0.8098 0.79878,1.70189 0.32944,2.54013 -1.21991,2.39917 -0.9732,0.58619 -0.0482,0.66682 0.0928,0.95623 -0.37664,0.50836 -1.11969,0.8367 -1.09425,1.54261 -0.94702,0.37329 -1.63629,-0.23035 -1.11692,-0.57707 0.61229,0.0416 1.14606,-0.38458 0.84889,-0.64595 -0.42178,-0.37753 -0.48144,-0.74021 -0.14612,-1.08668 -1.13714,-0.19902 -1.52491,0.53108 -1.65201,1.28693 -1.25187,0.1682 -2.31611,-0.88511 -0.17996,-1.15729 0.0125,-0.62789 0.33659,-0.89087 1.07891,-1.16534 -0.2822,-1.54817 -0.0353,-1.38194 -1.38138,-0.71925 -0.71888,1.46025 -1.95064,-0.25486 -0.96266,-0.53195 2.46289,-0.098 1.91315,-0.37651 0.6977,-1.4265 -1.99626,-0.0771 0.0216,-1.99161 0.28164,-0.35591 0.37101,0.89917 1.83453,0.47498 1.50342,0.1681 z"
         id="path8690"
         sodipodi:nodetypes="cccccccccccccccccccccc" />
    </g>
    <path
       style="opacity:0.98;fill:#ffc800;fill-opacity:1;stroke:none;stroke-width:1.4"
       id="path6888"
       sodipodi:type="arc"
       sodipodi:cx="147.35796"
       sodipodi:cy="102.85384"
       sodipodi:rx="4.0134497"
       sodipodi:ry="4.0134497"
       sodipodi:start="3.1416522"
       sodipodi:end="3.1415927"
       sodipodi:arc-type="slice"
       d="m 143.34451,102.8536 a 4.0134497,4.0134497 0 0 1 4.01363,-4.013206 4.0134497,4.0134497 0 0 1 4.01327,4.013566 4.0134497,4.0134497 0 0 1 -4.01351,4.01333 4.0134497,4.0134497 0 0 1 -4.01339,-4.01345 h 4.01345 z" />
    <g
       id="g21388">
      <path
         style="fill:none;stroke:#ffc800;stroke-width:1.07774;stroke-linecap:butt;stroke-linejoin:miter;stroke-miterlimit:4;stroke-dasharray:none;stroke-opacity:1"
         d="m 135.4954,124.52574 c 1.21932,8.59906 23.75504,6.73993 23.73446,-0.0602"
         id="path18458"
         sodipodi:nodetypes="cc" />
      <g
         id="g21379">
        <path
           style="fill:#ff4b4b;fill-opacity:1;stroke:none;stroke-width:0.329655px;stroke-linecap:butt;stroke-linejoin:miter;stroke-opacity:1"
           d="m 159.462,125.16865 c -2.82902,-2.65083 -2.90632,-2.05862 0.20994,-3.96905 1.05728,1.46407 0.25832,2.80435 -0.20994,3.96905 z"
           id="path18328"
           sodipodi:nodetypes="ccc" />
        <path
           style="fill:#ff4b4b;fill-opacity:1;stroke:none;stroke-width:0.329655px;stroke-linecap:butt;stroke-linejoin:miter;stroke-opacity:1"
           d="m 144.76707,105.98723 c -1.56221,2.72345 -4.06981,2.47559 -5.69117,1.21063 -1.12021,-1.90434 -3.67715,-1.96447 -3.03169,1.48671 -0.0791,3.32254 -0.92506,6.95686 -1.73871,10.57804 1.36707,-0.0781 2.50367,-1.11144 3.81718,0.83547 1.41293,-1.04964 1.99884,-7.49182 0.75177,-11.17813 4.90794,2.41033 6.78985,0.14964 8.63456,-2.16849 1.6301,2.31617 4.04009,3.30108 8.41646,1.975 -0.81634,1.12816 -1.17112,7.66738 0.53302,11.04638 1.09126,-0.46549 2.03746,-2.39356 3.78632,-0.98079 -0.90797,-3.305 -1.67756,-7.03216 -1.57151,-10.33717 0.65097,-1.44601 -0.73408,-4.52603 -3.21061,-1.51129 -1.13584,1.24365 -2.73727,1.73021 -5.48864,-0.98761 z"
           id="path15024"
           sodipodi:nodetypes="cccccccccccccc" />
        <path
           style="fill:#ff4b4b;fill-opacity:1;stroke:none;stroke-width:0.329655px;stroke-linecap:butt;stroke-linejoin:miter;stroke-opacity:1"
           d="m 134.76726,121.2974 c 2.99578,2.20365 3.35592,1.33473 0.58671,3.72053 -1.27854,-1.2754 -0.86193,-2.49578 -0.58671,-3.72053 z"
           id="path17676"
           sodipodi:nodetypes="ccc" />
        <path
           style="fill:none;stroke:#ffc800;stroke-width:1.078;stroke-linecap:butt;stroke-linejoin:miter;stroke-miterlimit:4;stroke-dasharray:none;stroke-opacity:1"
           d="m 134.86994,119.04021 c -0.0933,1.00536 -0.0325,1.99407 0.23754,2.96018"
           id="path19744"
           sodipodi:nodetypes="cc" />
        <path
           style="fill:none;stroke:#ffc800;stroke-width:1.078;stroke-linecap:butt;stroke-linejoin:miter;stroke-miterlimit:4;stroke-dasharray:none;stroke-opacity:1"
           d="m 159.46095,121.72139 c 0.0933,-1.00536 -0.0378,-2.581 0.29664,-3.24752"
           id="path20285"
           sodipodi:nodetypes="cc" />
      </g>
    </g>
  </g>
</svg>
