<?xml version="1.0" encoding="UTF-8" standalone="no"?>
<svg
   height="62"
   width="78"
   version="1.1"
   id="svg2227"
   xmlns="http://www.w3.org/2000/svg">
  <g
     style="fill:none;fill-rule:evenodd;stroke:none;stroke-width:1"
     id="ptpt"
     transform="translate(-2,-2)">
    <path
       d="M 63.436962,4 H 18.563038 C 13.628201,4 11.866819,4.5845126 10.070258,5.5453238 8.119529,6.5885853 6.5885853,8.119529 5.5453238,10.070258 4.5845126,11.866819 4,13.628201 4,18.563038 v 28.873924 c 0,4.934837 0.5845126,6.696219 1.5453238,8.49278 1.0432615,1.950729 2.5742052,3.481673 4.5249342,4.524934 C 11.866819,61.415487 13.628201,62 18.563038,62 h 44.873924 c 4.934837,0 6.696219,-0.584513 8.49278,-1.545324 1.950729,-1.043261 3.481673,-2.574205 4.524934,-4.524934 C 77.415487,54.133181 78,52.371799 78,47.436962 V 18.563038 C 78,13.628201 77.415487,11.866819 76.454676,10.070258 75.411415,8.119529 73.880471,6.5885853 71.929742,5.5453238 70.133181,4.5845126 68.371799,4 63.436962,4 Z"
       id="path183"
       style="fill:#78c800;fill-opacity:1;fill-rule:nonzero;stroke:#ffffff;stroke-width:4" />
    <path
       d="m 76,42 v 5.436962 C 76.101503,52.085976 74.906865,56.539437 70.986544,58.69105 69.389507,59.545155 67.805219,59.959847 63.436962,60 L 34.067909,60.29661 V 5.5978294 c 0,0 33.334996,0.064092 31.52494,0.00312 -2.269817,-0.076458 7.519501,-1.156391 8.924101,2.980079 l 1.779661,5.2410046 z"
       id="path185"
       style="fill:#ff4b4b;fill-opacity:1;fill-rule:nonzero"/>
    <path
       d="M 63.436962,4 H 18.563038 C 13.628201,4 11.866819,4.5845126 10.070258,5.5453238 8.119529,6.5885853 6.588585,8.119529 5.545324,10.070258 4.584512,11.866819 4,13.628201 4,18.563038 v 28.873924 c 0,4.934837 0.584512,6.696219 1.545324,8.49278 1.043261,1.950729 2.574205,3.481673 4.524934,4.524934 C 11.866819,61.415487 13.628201,62 18.563038,62 h 44.873924 c 4.934837,0 6.696219,-0.584513 8.49278,-1.545324 1.950729,-1.043261 3.481673,-2.574205 4.524934,-4.524934 0.960807,-1.796561 1.545327,-3.557943 1.545327,-8.49278 V 18.563038 c 0,-4.934837 -0.58452,-6.696219 -1.545327,-8.49278 C 75.411415,8.119529 73.880471,6.5885853 71.929742,5.5453238 70.133181,4.5845126 68.371799,4 63.436962,4 Z"
       id="path183-6"
       style="opacity:1;fill:none;fill-opacity:1;fill-rule:nonzero;stroke:#ffffff;stroke-width:4" />
    <circle
       style="opacity:1;fill:#ffc300;fill-opacity:1;stroke:#ffc300;stroke-width:6.53333;stroke-linecap:round;stroke-linejoin:round;stroke-miterlimit:4;stroke-dasharray:none;stroke-dashoffset:0;stroke-opacity:1"
       id="path4787"
       cx="34.258476"
       cy="32.709194"
       r="11.419492" />
    <path
       style="opacity:1;fill:#ff4b4b;fill-opacity:1;stroke:#ff4b4b;stroke-width:3.81461;stroke-linecap:round;stroke-linejoin:round;stroke-miterlimit:4;stroke-dasharray:none;stroke-dashoffset:0;stroke-opacity:1"
       d="m 29.638141,25.821254 h 9.092027 l 0.148305,9.689062 c 0.07009,5.569571 -9.300506,5.327175 -9.092027,0 z"
       id="rect4789" />
  </g>
</svg>
