<?xml version="1.0" encoding="UTF-8" standalone="no"?>
<svg
   height="62"
   width="78"
   version="1.1"
   id="svg2227"
   xmlns="http://www.w3.org/2000/svg">
  <defs
     id="defs10" />
  <g
     id="szl">
    <path
       d="M 61.436962,2 H 16.563038 C 11.628201,2 9.8668192,2.5845126 8.0702583,3.5453239 6.119529,4.5885853 4.5885853,6.119529 3.5453239,8.0702583 2.5845126,9.8668192 2,11.628201 2,16.563038 v 28.873924 c 0,4.934837 0.5845126,6.696219 1.5453239,8.49278 1.0432614,1.950729 2.5742051,3.481673 4.5249344,4.524934 C 9.8668192,59.415487 11.628201,60 16.563038,60 h 44.873924 c 4.934837,0 6.696219,-0.584513 8.49278,-1.545324 1.950729,-1.043261 3.481673,-2.574205 4.524934,-4.524934 C 75.415487,52.133181 76,50.371799 76,45.436962 V 16.563038 C 76,11.628201 75.415487,9.8668192 74.454676,8.0702583 73.411415,6.119529 71.880471,4.5885853 69.929742,3.5453239 68.133181,2.5845126 66.371799,2 61.436962,2 Z"
       id="path409"
       stroke="#ffffff"
       stroke-width="4"
       fill="#1cb0f6"
       style="fill-rule:evenodd" />
    <path
       d="m 74,31 v 14.436962 c 0,4.368442 -0.454846,5.952545 -1.30895,7.549582 -0.854105,1.597037 -2.107469,2.850401 -3.704506,3.704506 C 67.389507,57.545155 65.805404,58 61.436962,58 H 16.563038 C 12.194596,58 10.610493,57.545155 9.013456,56.69105 7.416419,55.836945 6.163055,54.583581 5.3089503,52.986544 4.4548455,51.389507 4,49.805404 4,45.436962 V 31 Z"
       id="path411"
       fill="#ffc300"
       style="fill-rule:evenodd;stroke:none;stroke-width:1" />
  </g>
</svg>
