<?xml version="1.0" encoding="UTF-8" standalone="no"?>
<svg
   height="62"
   width="78.000008"
   version="1.1"
   id="svg2227"
   sodipodi:docname="tamil_4.svg"
   inkscape:version="1.1.1 (3bf5ae0d25, 2021-09-20)"
   inkscape:export-filename="D:\OneDrive - 1CLICK IT LLC\Pictures\flags\tamil_4.png"
   inkscape:export-xdpi="256.95001"
   inkscape:export-ydpi="256.95001"
   xmlns:inkscape="http://www.inkscape.org/namespaces/inkscape"
   xmlns:sodipodi="http://sodipodi.sourceforge.net/DTD/sodipodi-0.dtd"
   xmlns="http://www.w3.org/2000/svg"
   xmlns:svg="http://www.w3.org/2000/svg">
  <defs
     id="defs21">
    <inkscape:path-effect
       effect="fillet_chamfer"
       id="path-effect23339"
       is_visible="true"
       lpeversion="1"
       satellites_param="C,0,0,1,0,8.5,0,1 @ C,0,0,1,0,8.5,0,1 @ F,0,0,1,0,0,0,1 @ F,0,0,1,0,0,0,1"
       unit="px"
       method="auto"
       mode="F"
       radius="0"
       chamfer_steps="1"
       flexible="false"
       use_knot_distance="true"
       apply_no_radius="true"
       apply_with_radius="true"
       only_selected="false"
       hide_knots="false" />
    <inkscape:path-effect
       effect="fillet_chamfer"
       id="path-effect8509"
       is_visible="true"
       lpeversion="1"
       satellites_param="F,0,0,1,0,3.75,0,1 @ F,0,0,1,0,3.75,0,1 @ F,0,0,1,0,0,0,1 @ F,0,0,1,0,0,0,1"
       unit="px"
       method="auto"
       mode="F"
       radius="0"
       chamfer_steps="1"
       flexible="false"
       use_knot_distance="true"
       apply_no_radius="true"
       apply_with_radius="true"
       only_selected="false"
       hide_knots="false" />
    <inkscape:path-effect
       effect="fillet_chamfer"
       id="path-effect6710"
       is_visible="true"
       lpeversion="1"
       satellites_param="F,0,0,1,0,17.44713,0,1 @ F,0,0,1,0,7.5,0,1 @ F,0,0,1,0,5,0,1 @ C,0,0,1,0,7.5,0,1"
       unit="px"
       method="auto"
       mode="F"
       radius="0"
       chamfer_steps="1"
       flexible="false"
       use_knot_distance="true"
       apply_no_radius="true"
       apply_with_radius="true"
       only_selected="false"
       hide_knots="false" />
    <inkscape:path-effect
       effect="fillet_chamfer"
       id="path-effect15891"
       is_visible="true"
       lpeversion="1"
       satellites_param="F,0,0,1,0,20,0,1 @ F,0,0,1,0,20,0,1 @ F,0,0,1,0,0,0,1 @ F,0,0,1,0,0,0,1"
       unit="px"
       method="auto"
       mode="F"
       radius="0"
       chamfer_steps="1"
       flexible="false"
       use_knot_distance="true"
       apply_no_radius="true"
       apply_with_radius="true"
       only_selected="false"
       hide_knots="false" />
  </defs>
  <sodipodi:namedview
     id="namedview19"
     pagecolor="#505050"
     bordercolor="#ffffff"
     borderopacity="1"
     inkscape:pageshadow="0"
     inkscape:pageopacity="0"
     inkscape:pagecheckerboard="1"
     showgrid="false"
     showguides="false"
     inkscape:zoom="11.313708"
     inkscape:cx="37.034718"
     inkscape:cy="41.277358"
     inkscape:window-width="1368"
     inkscape:window-height="890"
     inkscape:window-x="-6"
     inkscape:window-y="-6"
     inkscape:window-maximized="1"
     inkscape:current-layer="g12886" />
  <g
     id="de">
    <path
       d="M 61.436962,2 H 16.563038 C 11.628201,2 9.866819,2.5845126 8.070258,3.5453238 6.119529,4.5885853 4.5885853,6.119529 3.5453238,8.070258 2.5845126,9.866819 2,11.628201 2,16.563038 v 28.873924 c 0,4.934837 0.5845126,6.696219 1.5453238,8.49278 1.0432615,1.950729 2.5742052,3.481673 4.5249342,4.524934 C 9.866819,59.415487 11.628201,60 16.563038,60 h 44.873924 c 4.934837,0 6.696219,-0.584513 8.49278,-1.545324 1.950729,-1.043261 3.481673,-2.574205 4.524934,-4.524934 C 75.415487,52.133181 76,50.371799 76,45.436962 V 16.563038 C 76,11.628201 75.415487,9.866819 74.454676,8.070258 73.411415,6.119529 71.880471,4.5885853 69.929742,3.5453238 68.133181,2.5845126 66.371799,2 61.436962,2 Z"
       id="path54"
       style="fill:#ff4b4b;fill-rule:nonzero;stroke:none;stroke-width:4" />
    <path
       style="fill:none;fill-rule:nonzero;stroke:#ffffff;stroke-width:4"
       d="M 61.436966,2 H 16.563038 C 11.628201,2 9.866819,2.584513 8.070258,3.545324 6.119529,4.588586 4.588585,6.119529 3.545324,8.070259 2.584513,9.86682 2,11.628202 2,16.563039 v 28.873923 c 0,4.934837 0.584513,6.696219 1.545324,8.49278 1.043261,1.950729 2.574205,3.481673 4.524934,4.524934 C 9.866819,59.415487 11.628201,60 16.563038,60 h 44.873928 c 4.93484,0 6.69622,-0.584513 8.49278,-1.545324 1.95073,-1.043261 3.48167,-2.574205 4.52493,-4.524934 0.96081,-1.796561 1.54533,-3.557943 1.54533,-8.49278 V 16.563039 c 0,-4.934837 -0.58452,-6.696219 -1.54533,-8.49278 -1.04326,-1.95073 -2.5742,-3.481673 -4.52493,-4.524935 C 68.133186,2.584513 66.371806,2 61.436966,2 Z"
       id="border" />
  </g>
  <g
     id="g12886"
     transform="matrix(0.81541141,0,0,0.81541141,7.1989556,5.7222463)">
    <path
       id="path24780"
       style="fill:none;stroke:#ffc800;stroke-width:7.35825;stroke-linecap:round;stroke-linejoin:round;stroke-miterlimit:4;stroke-dasharray:none;stroke-opacity:1;stop-color:#000000"
       d="M 63.218437,31 A 24.218433,24.218433 0 0 1 39.000004,55.218433 24.218433,24.218433 0 0 1 14.781571,31 24.218433,24.218433 0 0 1 39.000004,6.781567 24.218433,24.218433 0 0 1 63.218437,31 Z" />
    <g
       id="g24569"
       transform="matrix(0.12881397,0,0,0.12881397,-2.2970767,2.9273619)"
       style="stroke:#ffc800;stroke-width:19.041;stroke-miterlimit:4;stroke-dasharray:none;stroke-opacity:1">
      <g
         id="g24561"
         style="stroke:#ffc800;stroke-width:19.041;stroke-miterlimit:4;stroke-dasharray:none;stroke-opacity:1"
         transform="translate(0,1.3096514)">
        <path
           id="path18605"
           style="fill:none;fill-opacity:1;stroke:#ffc800;stroke-width:19.041;stroke-linecap:round;stroke-linejoin:round;stroke-miterlimit:4;stroke-dasharray:none;stroke-opacity:1;paint-order:normal;stop-color:#000000"
           d="m 447.30102,185.88218 c -38.4594,-19.47095 -82.48138,-29.7686 -127.35504,-29.79101 -44.4329,0.21944 -87.97603,10.50994 -126.05755,29.79101"
           sodipodi:nodetypes="ccc" />
        <g
           id="g13627"
           transform="matrix(1.5065398,0,0,1.5065398,-162.09568,-97.881317)"
           style="stroke:#ffc800;stroke-width:12.6389;stroke-miterlimit:4;stroke-dasharray:none;stroke-opacity:1">
          <path
             style="opacity:1;fill:#ffc800;fill-opacity:1;stroke:#ffc800;stroke-width:12.6389;stroke-linecap:round;stroke-linejoin:round;stroke-miterlimit:4;stroke-dasharray:none;stroke-opacity:1;paint-order:normal;stop-color:#000000"
             id="rect20574"
             width="17"
             height="20.543076"
             x="311.46301"
             y="256.37"
             sodipodi:type="rect"
             inkscape:path-effect="#path-effect23339"
             d="m 319.96301,256.37 8.5,8.5 v 12.04307 h -17 V 264.87 Z" />
          <path
             style="fill:none;stroke:#ffc800;stroke-width:12.6389;stroke-linecap:butt;stroke-linejoin:miter;stroke-miterlimit:4;stroke-dasharray:none;stroke-opacity:1"
             d="M 319.96301,256.37 V 143.44828"
             id="path23767" />
          <path
             id="rect23871"
             style="opacity:1;fill:#ffc800;fill-opacity:1;stroke:#ffc800;stroke-width:12.6389;stroke-linecap:round;stroke-linejoin:round;stroke-miterlimit:4;stroke-dasharray:none;stroke-opacity:1;stop-color:#000000"
             d="m 319.96302,132.92459 7.3413,12.87786 -7.3413,7.34187 -7.3413,-7.34129 z"
             sodipodi:nodetypes="ccccc" />
        </g>
      </g>
    </g>
    <g
       id="g24577"
       transform="matrix(0.12849962,0,0,0.12849962,-2.1916898,5.8898846)"
       style="display:inline;fill:#ffc800;fill-opacity:1">
      <g
         id="g13530"
         transform="translate(13.615511,4.4136737)">
        <path
           id="rect4551"
           style="fill:#ffc800;fill-opacity:1;stroke-width:1.55316;stroke-linecap:round;stroke-linejoin:round;paint-order:stroke markers fill;stop-color:#000000"
           d="m 396.66502,180 -26.42578,33.79883 c -3.40162,4.35096 -10.53913,9.10656 -16.04883,9.19531 -0.17524,0.003 -0.35007,0.005 -0.52539,0.006 a 25,25 0 0 0 -25,25 25,25 0 0 0 25,25 h 30 a 7.5,7.5 0 0 0 7.5,-7.5 7.5,7.5 0 0 0 -7.5,-7.5 h -10 c 22.09139,0 40,-17.90861 40,-40 v -38 z" />
        <path
           id="rect5138-6"
           style="fill:#ffc800;fill-opacity:1;stroke-width:1.397;stroke-linecap:round;stroke-linejoin:round;paint-order:stroke markers fill;stop-color:#000000"
           d="m 396.66502,228 v 30 7.5 a 7.5,7.5 0 0 0 7.5,7.5 h 3.99414 a 7.5,7.5 0 0 0 7.5,-7.5 7.5,7.5 0 0 0 -7.5,-7.5 h -0.49414 v -30 z" />
        <path
           id="rect6406"
           d="m 400.41504,170 a 3.75,3.75 45 0 1 3.75,3.75 V 180 h -7.5 v -6.25 a 3.75,3.75 135 0 1 3.75,-3.75 z"
           style="fill:#ffc800;fill-opacity:1;stroke-width:2.04304;stroke-linecap:round;stroke-linejoin:round;paint-order:stroke markers fill;stop-color:#000000" />
        <path
           id="rect6510"
           transform="rotate(45)"
           d="m 425.0212,-173.87569 h 10.05287 a 7.5,7.5 45 0 1 7.5,7.5 v 12.5 a 5,5 135 0 1 -5,5 h -22.5 l -7.5,-7.5 v -0.0529 a 17.44713,17.44713 135 0 1 17.44713,-17.44713 z"
           style="fill:#ffc800;fill-opacity:1;stroke-width:1.47196;stroke-linecap:round;stroke-linejoin:round;paint-order:stroke markers fill;stop-color:#000000" />
      </g>
      <g
         id="g13534"
         transform="translate(-13.558768,5.4138138)">
        <path
           id="rect8819"
           style="fill:#ffc800;fill-opacity:1;stroke:none;stroke-width:1.36695;stroke-linecap:round;stroke-linejoin:round;stroke-opacity:1;paint-order:stroke markers fill;stop-color:#000000"
           d="m 207.67816,180 v 35 c 0,31.48023 25.51977,57 57,57 h 23.20117 c 12.81369,9e-5 23.20126,-10.38748 23.20117,-23.20117 a 23.201,23.201 0 0 0 -23.20117,-23.20117 v -5.79297 a 5.808,5.808 0 0 0 -5.80859,-5.8086 h -5.79297 v 11.59375 a 5.808,5.808 0 0 0 5.80859,5.8086 5.808,5.808 0 0 0 -5.80859,5.80859 v 11.59375 h 5.79297 a 5.808,5.808 0 0 0 5.80859,-5.80859 v -5.79297 a 11.6,11.6 0 0 1 11.59961,11.59961 c -2.2e-4,6.4062 -5.19341,11.59939 -11.59961,11.59961 -13.21849,4.5e-4 -18.71916,-7.1176 -23.20117,-11.59961 -4.48201,-4.48201 -13.99996,-21.12181 -14,-33.79883 a 35,35 0 0 0 -35,-35 z" />
        <path
           id="rect15790"
           transform="rotate(-36.674309)"
           d="m 31.63144,318.71365 h 34.867851 a 19.999985,19.999985 44.999956 0 1 20,19.99997 H 11.63144 a 19.999985,19.999985 135.00004 0 1 20,-19.99997 z"
           style="opacity:1;fill:#ffc800;fill-opacity:1;stroke:none;stroke-width:1.397;stroke-linecap:round;stroke-linejoin:round;stroke-opacity:1;paint-order:stroke markers fill;stop-color:#000000" />
      </g>
    </g>
  </g>
  <path
     d="m 20.5,27.436962 c 0,0.193037 -2.13e-4,0.380636 -6.39e-4,0.563038 H 4.0006363 C 4.000212,27.817598 4,27.629999 4,27.436962 V 22 h 16.5 z"
     id="path10-2-4"
     fill="#ff4b4b"
     style="fill:#ffc800;fill-opacity:1;stroke-width:0.485504;stroke:none" />
  <path
     d="m 20.5,39.436962 c 0,0.193037 -2.08e-4,0.380636 -6.35e-4,0.563038 H 4.0006364 C 4.0002122,39.817598 4,39.629999 4,39.436962 V 34 h 16.5 z"
     id="path10-2-4-9"
     fill="#ff4b4b"
     style="fill:#ffc800;fill-opacity:1;stroke-width:0.485503;stroke:none" />
  <path
     d="M 74,27.436962 C 74,27.629999 73.999787,27.817598 73.999361,28 H 57.500637 C 57.500212,27.817598 57.5,27.629999 57.5,27.436962 V 22 H 74 Z"
     id="path13014"
     fill="#ff4b4b"
     style="fill:#ffc800;fill-opacity:1;stroke-width:0.485504;stroke:none" />
  <path
     d="M 74,39.436962 C 74,39.629999 73.999792,39.817598 73.999365,40 H 57.500637 C 57.500213,39.817598 57.5,39.629999 57.5,39.436962 V 34 H 74 Z"
     id="path13016"
     fill="#ff4b4b"
     style="fill:#ffc800;fill-opacity:1;stroke-width:0.485503;stroke:none" />
</svg>
