<svg width="78" height="62" viewBox="0 0 78 62" fill="none" xmlns="http://www.w3.org/2000/svg">
<g clip-path="url(#clip0_8_71)">
<path d="M61.3 2.10001H16.5C11.6 2.10001 9.8 2.70001 8 3.60001C6 4.60001 4.5 6.20001 3.5 8.10001C2.5 9.90001 2 11.7 2 16.6V45.5C2 50.4 2.6 52.2 3.5 54C4.5 56 6.1 57.5 8 58.5C9.8 59.5 11.6 60 16.5 60H61.4C66.3 60 68.1 59.4 69.9 58.5C71.9 57.5 73.4 55.9 74.4 54C75.4 52.2 75.9 50.4 75.9 45.5V16.6C75.9 11.7 75.3 9.90001 74.4 8.10001C73.4 6.10001 71.8 4.60001 69.9 3.60001C68 2.70001 66.3 2.10001 61.3 2.10001Z" fill="#FF4B4B"/>
<path d="M16.427 3.42661L38.919 3.66822L38.8999 31.1002H3.89987V16.7002C3.89987 5.31722 7.3236 3.32861 16.427 3.42661Z" fill="#1CB0F6"/>
<path d="M61.3 58.1H38.9V31.1H73.9V45.5C73.9 56.453 73.0187 58.1 61.3 58.1Z" fill="#1CB0F6"/>
<path d="M61.3 2H16.5C11.6 2 9.8 2.6 8 3.5C6 4.5 4.5 6.1 3.5 8C2.5 9.8 2 11.6 2 16.5V45.4C2 50.3 2.6 52.1 3.5 53.9C4.5 55.9 6.1 57.4 8 58.4C9.8 59.4 11.6 59.9 16.5 59.9H61.4C66.3 59.9 68.1 59.3 69.9 58.4C71.9 57.4 73.4 55.8 74.4 53.9C75.4 52.1 75.9 50.3 75.9 45.4V16.5C75.9 11.6 75.3 9.8 74.4 8C73.4 6 71.8 4.5 69.9 3.5C68 2.6 66.3 2 61.3 2Z" stroke="white" stroke-width="4"/>
<path d="M17.0892 15.3068C17.2951 15.6663 17.7534 15.7907 18.1128 15.5848C18.4722 15.3789 18.5967 14.9207 18.3908 14.5612L17.0892 15.3068ZM17.3229 9.52516L18.0692 9.45035L18.0352 9.1118L17.7581 8.91435L17.3229 9.52516ZM19.8254 12.8537L20.3551 12.3227C20.1431 12.1112 19.8256 12.0461 19.5475 12.1571L19.8254 12.8537ZM20.2425 11.6055V10.8555H19.4925V11.6055H20.2425ZM23.1622 15.3501L22.4917 15.6862L22.4917 15.6862L23.1622 15.3501ZM27.7502 24.5036L27.0388 24.2659L27.7502 24.5036ZM26.4989 27V27.75H26.8997L27.1225 27.4167L26.4989 27ZM23.9964 27H23.2464V27.75H23.9964V27ZM25.2476 24.9197L25.6629 25.5442H25.663L25.2476 24.9197ZM23.1622 21.1751H23.9122V20.49L23.2299 20.4281L23.1622 21.1751ZM18.9913 26.1679V26.9179H19.8013L19.739 26.1102L18.9913 26.1679ZM15.2375 26.1679L14.5152 26.3699L14.6685 26.9179H15.2375V26.1679ZM21.4938 18.6786L21.6076 19.42L22.8917 19.2229L22.0789 18.2094L21.4938 18.6786ZM15.2375 18.6786L15.0406 19.4023L15.3036 19.4739L15.5511 19.3599L15.2375 18.6786ZM15.2375 17.0144L14.9027 17.6855H14.9027L15.2375 17.0144ZM18.4684 14.6968C18.5671 14.2945 18.3211 13.8883 17.9188 13.7896C17.5165 13.6908 17.1104 13.9369 17.0116 14.3392L18.4684 14.6968ZM25.6647 20.4251C25.2505 20.4251 24.9147 20.7608 24.9147 21.1751C24.9147 21.5893 25.2505 21.9251 25.6647 21.9251V20.4251ZM28.1673 15.3501L27.6994 14.7639L28.1673 15.3501ZM31.504 13.2698L32.0337 13.8007L31.504 13.2698ZM28.2731 10.0309C27.863 9.97243 27.4832 10.2575 27.4248 10.6676C27.3663 11.0776 27.6514 11.4574 28.0615 11.5159L28.2731 10.0309ZM18.3908 14.5612C18.3642 14.5149 18.3376 14.468 18.3111 14.4208L17.0035 15.1559C17.0321 15.2066 17.0606 15.2569 17.0892 15.3068L18.3908 14.5612ZM18.3111 14.4208C17.5047 12.9866 16.749 11.2414 16.5344 10.1511C16.4814 9.8819 16.4713 9.699 16.4813 9.59259C16.4929 9.46848 16.5162 9.57684 16.3768 9.67905C16.2193 9.79457 16.1042 9.72414 16.2262 9.76147C16.3431 9.79722 16.5564 9.89989 16.8877 10.136L17.7581 8.91435C17.3716 8.63894 17.0057 8.43133 16.665 8.3271C16.3295 8.22445 15.8785 8.18434 15.4896 8.46954C15.119 8.74144 15.0154 9.15886 14.9879 9.45228C14.9586 9.76338 14.9968 10.1064 15.0626 10.4408C15.3232 11.7645 16.1703 13.6738 17.0035 15.1559L18.3111 14.4208ZM16.5766 9.59997C16.7517 11.3466 17.2394 12.4666 17.9348 13.0972C18.6597 13.7546 19.5098 13.7872 20.1034 13.5503L19.5475 12.1571C19.446 12.1976 19.2117 12.2302 18.9424 11.9861C18.6438 11.7152 18.2277 11.0323 18.0692 9.45035L16.5766 9.59997ZM19.2958 13.3847C19.4185 13.5071 19.6844 13.6997 20.0551 13.6469C20.4373 13.5924 20.6497 13.318 20.7479 13.1338C20.9308 12.7909 20.9925 12.2742 20.9925 11.6055H19.4925C19.4925 11.9152 19.4762 12.1292 19.455 12.2716C19.4325 12.4234 19.41 12.4548 19.4243 12.428C19.4357 12.4067 19.5524 12.2034 19.8435 12.1619C20.1229 12.1221 20.3019 12.2696 20.3551 12.3227L19.2958 13.3847ZM20.2425 12.3555C20.5841 12.3555 20.9052 12.3287 21.1795 12.2445C21.4608 12.1581 21.7788 11.9827 21.9558 11.6295C22.124 11.2938 22.0842 10.9539 22.0258 10.7211C21.9661 10.4828 21.8575 10.2412 21.7472 10.0212L20.4062 10.6934C20.4533 10.7872 20.4903 10.867 20.5184 10.9354C20.5469 11.0045 20.5627 11.0533 20.5708 11.0857C20.5792 11.119 20.5757 11.1206 20.5762 11.0991C20.5769 11.0742 20.583 11.0207 20.6148 10.9574C20.6476 10.892 20.6918 10.8476 20.7259 10.8229C20.7556 10.8014 20.7673 10.8019 20.7393 10.8105C20.7117 10.819 20.6595 10.831 20.5732 10.8404C20.488 10.8498 20.3793 10.8555 20.2425 10.8555V12.3555ZM21.7472 10.0212C21.6825 9.89218 21.5846 9.72194 21.433 9.58887C21.3505 9.51646 21.2268 9.43249 21.0602 9.39141C20.8821 9.34749 20.7051 9.36522 20.5511 9.42666C20.4093 9.48325 20.3101 9.56717 20.2492 9.6288C20.1872 9.69149 20.1421 9.7542 20.1122 9.79988C20.056 9.88564 20.0099 9.97977 19.9891 10.0212C19.9578 10.0838 19.9517 10.0937 19.9525 10.0924C19.9548 10.089 19.9713 10.0637 20.0035 10.0311C20.0348 9.99949 20.103 9.93833 20.2122 9.89474C20.3336 9.8463 20.4764 9.83182 20.6182 9.8668C20.7486 9.89894 20.8341 9.96179 20.8758 9.99844C20.9459 10.06 20.9526 10.1002 20.913 10.0212L19.5721 10.6934C19.6367 10.8224 19.7347 10.9926 19.8862 11.1257C19.9687 11.1981 20.0925 11.2821 20.2591 11.3232C20.4372 11.3671 20.6141 11.3494 20.7681 11.2879C20.91 11.2313 21.0092 11.1474 21.0701 11.0858C21.1321 11.0231 21.1771 10.9604 21.2071 10.9147C21.2633 10.8289 21.3093 10.7348 21.3301 10.6934C21.3615 10.6308 21.3676 10.6209 21.3667 10.6222C21.3645 10.6256 21.348 10.6509 21.3157 10.6835C21.2845 10.7151 21.2163 10.7763 21.107 10.8198C20.9856 10.8683 20.8429 10.8828 20.701 10.8478C20.5707 10.8156 20.4852 10.7528 20.4435 10.7161C20.3733 10.6546 20.3666 10.6144 20.4062 10.6934L21.7472 10.0212ZM20.913 10.0212C20.8579 9.91121 20.7983 9.79939 20.7567 9.71919C20.7104 9.62998 20.6805 9.56917 20.6609 9.52214C20.6401 9.47228 20.6455 9.47205 20.6495 9.50342C20.6545 9.54323 20.6575 9.64289 20.6002 9.75721C20.5428 9.8717 20.4629 9.92508 20.4363 9.93989C20.4165 9.95092 20.4312 9.93848 20.514 9.92109C20.6828 9.88563 20.9842 9.85908 21.4938 9.85908V8.35908C20.9607 8.35908 20.5322 8.38455 20.2057 8.45311C19.9199 8.51313 19.4761 8.65238 19.2592 9.08507C19.0447 9.51316 19.2063 9.93151 19.2768 10.1003C19.3541 10.2854 19.4973 10.5442 19.5721 10.6934L20.913 10.0212ZM21.4938 9.85908C22.5403 9.85908 22.9314 9.97711 23.13 10.1257C23.313 10.2626 23.4756 10.5325 23.6859 11.3717L25.141 11.0071C24.9342 10.1821 24.6797 9.41178 24.0286 8.92462C23.393 8.44909 22.5328 8.35908 21.4938 8.35908V9.85908ZM23.6859 11.3717C23.8116 11.8732 23.5717 12.4502 23.137 13.209C22.9496 13.5363 22.7049 13.9345 22.5528 14.2833C22.4119 14.6068 22.2247 15.1534 22.4917 15.6862L23.8327 15.014C23.8912 15.1307 23.8082 15.1573 23.9279 14.8826C24.0366 14.6334 24.209 14.3555 24.4386 13.9546C24.8381 13.2572 25.4324 12.1699 25.141 11.0071L23.6859 11.3717ZM22.4917 15.6862C22.6419 15.9859 22.8799 16.2808 23.1058 16.5393C23.3326 16.7988 23.6167 17.0975 23.8591 17.3635C24.3917 17.948 24.8021 18.4635 24.9534 18.9163L26.3761 18.4409C26.1103 17.6456 25.4779 16.9129 24.9678 16.3532C24.6889 16.0471 24.4516 15.7997 24.2352 15.5522C24.0179 15.3035 23.891 15.1304 23.8327 15.014L22.4917 15.6862ZM24.9534 18.9163C25.0764 19.2844 25.3091 19.7731 25.5513 20.269C25.8035 20.7855 26.0826 21.3421 26.3378 21.9021C26.5936 22.4634 26.8095 22.9946 26.9372 23.4464C27.0755 23.9354 27.066 24.1846 27.0388 24.2659L28.4615 24.7413C28.6429 24.1985 28.5291 23.5635 28.3806 23.0383C28.2217 22.476 27.9684 21.863 27.7028 21.2801C27.4366 20.6959 27.1421 20.1083 26.8991 19.6107C26.646 19.0924 26.4616 18.697 26.3761 18.4409L24.9534 18.9163ZM27.0388 24.2659C26.7349 25.1754 26.1352 26.1944 25.8753 26.5833L27.1225 27.4167C27.4187 26.9735 28.0981 25.8289 28.4615 24.7413L27.0388 24.2659ZM26.4989 26.25H23.9964V27.75H26.4989V26.25ZM24.7464 27C24.7464 26.7901 24.9058 26.0477 25.6629 25.5442L24.8323 24.2952C23.5874 25.123 23.2464 26.3778 23.2464 27H24.7464ZM25.663 25.5442C25.8929 25.3912 26.1463 25.1556 26.2417 24.7992C26.342 24.425 26.2205 24.1025 26.0924 23.8895C25.9691 23.6846 25.7982 23.5089 25.6505 23.3704C25.4982 23.2277 25.3199 23.079 25.1579 22.9423C24.8139 22.652 24.4968 22.3751 24.2598 22.0652C24.0308 21.7657 23.9122 21.48 23.9122 21.1751H22.4122C22.4122 21.9103 22.7107 22.5087 23.0682 22.9763C23.4178 23.4335 23.8566 23.8068 24.1904 24.0886C24.3673 24.2379 24.5082 24.3557 24.6248 24.465C24.7459 24.5784 24.7933 24.64 24.807 24.6626C24.8157 24.6772 24.7496 24.5724 24.7928 24.4111C24.8312 24.2677 24.9152 24.2401 24.8323 24.2952L25.663 25.5442ZM23.2299 20.4281C22.3253 20.3461 20.9885 20.5358 19.9056 21.4143C18.7816 22.3262 18.062 23.8717 18.2435 26.2255L19.739 26.1102C19.5869 24.137 20.188 23.1167 20.8506 22.5792C21.5542 22.0084 22.4697 21.8653 23.0944 21.922L23.2299 20.4281ZM18.9913 25.4179H15.2375V26.9179H18.9913V25.4179ZM15.9597 25.9658C15.9199 25.8236 15.9316 25.646 16.004 25.5335C16.0466 25.4672 16.2176 25.2536 16.9058 25.2536V23.7536C15.8869 23.7536 15.1461 24.0947 14.7425 24.7219C14.3687 25.3029 14.3998 25.9574 14.5152 26.3699L15.9597 25.9658ZM16.9058 25.2536C17.1164 25.2536 17.3306 25.1985 17.522 25.07C17.7062 24.9464 17.8251 24.7845 17.9023 24.639C18.044 24.3721 18.0983 24.055 18.1313 23.8111C18.2099 23.2311 18.2191 22.7091 18.3664 22.0722C18.5034 21.4802 18.7407 20.9241 19.1951 20.4708C19.6458 20.0212 20.374 19.6093 21.6076 19.42L21.38 17.9373C19.9026 18.1641 18.8581 18.6883 18.1357 19.4089C17.417 20.1258 17.0809 20.9739 16.905 21.7341C16.7395 22.4495 16.6966 23.2277 16.6449 23.6098C16.6304 23.7169 16.6158 23.7976 16.6009 23.8583C16.5854 23.9212 16.5747 23.9408 16.5773 23.9358C16.5812 23.9285 16.6113 23.8747 16.686 23.8246C16.7678 23.7697 16.8516 23.7536 16.9058 23.7536V25.2536ZM22.0789 18.2094C21.8836 17.9659 21.7238 17.7454 21.5778 17.5419C21.4377 17.3464 21.2943 17.1436 21.1537 16.9729C20.8528 16.6079 20.4614 16.263 19.8307 16.2146C19.3022 16.174 18.7005 16.3567 17.9932 16.635C17.2584 16.9242 16.2712 17.377 14.9238 17.9974L15.5511 19.3599C16.9148 18.7321 17.8566 18.3008 18.5425 18.0308C19.256 17.7501 19.5667 17.6987 19.7159 17.7102C19.7631 17.7138 19.8148 17.7069 19.9962 17.927C20.0966 18.0488 20.2042 18.2003 20.3589 18.4161C20.5079 18.6238 20.687 18.8714 20.9087 19.1479L22.0789 18.2094ZM15.4343 17.9549C14.8808 17.8044 14.4718 17.665 14.1778 17.5408C13.8745 17.4127 13.7328 17.317 13.6806 17.2709C13.6207 17.2181 13.7729 17.3233 13.7473 17.571C13.7238 17.7982 13.5752 17.8764 13.6195 17.8469C13.6463 17.8291 13.7234 17.7904 13.8633 17.7512C13.9956 17.7142 14.1523 17.6856 14.3136 17.6698C14.4754 17.6539 14.6262 17.6524 14.7468 17.6626C14.8821 17.674 14.9225 17.6954 14.9027 17.6855L15.5722 16.3432C15.3439 16.2293 15.0845 16.1857 14.8728 16.1679C14.6463 16.1488 14.4028 16.1538 14.1671 16.1769C13.7284 16.22 13.177 16.3397 12.7888 16.5979C12.5985 16.7245 12.3 16.9846 12.2553 17.4167C12.2085 17.8691 12.4683 18.2019 12.6886 18.3961C13.1128 18.77 13.8953 19.0908 15.0406 19.4023L15.4343 17.9549ZM14.9027 17.6855C15.3666 17.9169 15.838 17.8277 16.1887 17.6716C16.5369 17.5165 16.853 17.2618 17.1183 16.993C17.6489 16.4551 18.1217 15.7107 18.3628 15.0429L16.9518 14.5337C16.7879 14.988 16.4359 15.5488 16.0505 15.9395C15.8577 16.1349 15.6929 16.2503 15.5785 16.3013C15.4665 16.3512 15.4935 16.304 15.5722 16.3432L14.9027 17.6855ZM18.3628 15.0429C18.404 14.9286 18.44 14.8126 18.4684 14.6968L17.0116 14.3392C16.9975 14.3969 16.9777 14.462 16.9518 14.5337L18.3628 15.0429ZM25.6647 21.9251C27.7953 21.9251 29.6003 21.6104 30.6917 21.0661C31.2072 20.809 31.7676 20.3985 31.9102 19.7584C32.072 19.0321 31.6235 18.4555 31.1191 18.0781L30.2205 19.2792C30.5503 19.5259 30.4146 19.5734 30.4461 19.4322C30.4584 19.3772 30.4453 19.5128 30.0222 19.7238C29.2367 20.1156 27.7051 20.4251 25.6647 20.4251V21.9251ZM31.1191 18.0781C30.6435 17.7223 30.0939 17.4363 29.6201 17.1967C29.1163 16.942 28.7222 16.7502 28.4371 16.5533C28.1216 16.3354 28.1914 16.2788 28.1937 16.3801C28.1956 16.4666 28.141 16.3306 28.6351 15.9363L27.6994 14.7639C27.1508 15.2017 26.6791 15.7418 26.6941 16.4135C26.7094 17.0999 27.2223 17.5373 27.5847 17.7875C27.9773 18.0587 28.4956 18.309 28.9433 18.5353C29.4209 18.7768 29.862 19.0109 30.2205 19.2792L31.1191 18.0781ZM28.6351 15.9363C28.9297 15.7012 29.4592 15.4365 30.151 15.0647C30.7772 14.7281 31.527 14.3062 32.0337 13.8007L30.9743 12.7388C30.6468 13.0655 30.0924 13.3932 29.4408 13.7434C28.8549 14.0584 28.1332 14.4178 27.6994 14.7639L28.6351 15.9363ZM32.0337 13.8007C32.4409 13.3945 32.7859 12.8831 32.7471 12.2856C32.7062 11.6563 32.2666 11.2473 31.8574 10.9993C31.4382 10.7452 30.8929 10.5585 30.3056 10.4104C29.7079 10.2597 29.0159 10.1367 28.2731 10.0309L28.0615 11.5159C28.7784 11.618 29.4128 11.7322 29.9388 11.8649C30.475 12.0001 30.8506 12.1431 31.0799 12.2821C31.3194 12.4272 31.2562 12.4748 31.2502 12.3828C31.2463 12.3227 31.2847 12.4292 30.9743 12.7388L32.0337 13.8007Z" fill="white"/>
<path d="M50.0892 42.3068C50.2951 42.6663 50.7534 42.7907 51.1128 42.5848C51.4722 42.3789 51.5967 41.9207 51.3908 41.5612L50.0892 42.3068ZM50.3229 36.5252L51.0692 36.4504L51.0352 36.1118L50.7581 35.9144L50.3229 36.5252ZM52.8254 39.8537L53.3551 39.3227C53.1431 39.1112 52.8256 39.0461 52.5475 39.1571L52.8254 39.8537ZM53.2425 38.6055V37.8555H52.4925V38.6055H53.2425ZM56.1622 42.3501L55.4917 42.6862L55.4917 42.6862L56.1622 42.3501ZM60.7502 51.5036L60.0388 51.2659L60.7502 51.5036ZM59.4989 54V54.75H59.8997L60.1225 54.4167L59.4989 54ZM56.9964 54H56.2464V54.75H56.9964V54ZM58.2476 51.9197L58.6629 52.5442H58.663L58.2476 51.9197ZM56.1622 48.1751H56.9122V47.49L56.2299 47.4281L56.1622 48.1751ZM51.9913 53.1679V53.9179H52.8013L52.739 53.1102L51.9913 53.1679ZM48.2375 53.1679L47.5152 53.3699L47.6685 53.9179H48.2375V53.1679ZM54.4938 45.6786L54.6076 46.42L55.8917 46.2229L55.0789 45.2094L54.4938 45.6786ZM48.2375 45.6786L48.0406 46.4023L48.3036 46.4739L48.5511 46.3599L48.2375 45.6786ZM48.2375 44.0144L47.9027 44.6855H47.9027L48.2375 44.0144ZM51.4684 41.6968C51.5671 41.2945 51.3211 40.8883 50.9188 40.7896C50.5165 40.6908 50.1104 40.9369 50.0116 41.3392L51.4684 41.6968ZM58.6647 47.4251C58.2505 47.4251 57.9147 47.7608 57.9147 48.1751C57.9147 48.5893 58.2505 48.9251 58.6647 48.9251V47.4251ZM61.1673 42.3501L60.6994 41.7639L61.1673 42.3501ZM64.504 40.2698L65.0337 40.8007L64.504 40.2698ZM61.2731 37.0309C60.863 36.9724 60.4832 37.2575 60.4248 37.6676C60.3663 38.0776 60.6514 38.4574 61.0615 38.5159L61.2731 37.0309ZM51.3908 41.5612C51.3642 41.5149 51.3376 41.468 51.3111 41.4208L50.0035 42.1559C50.0321 42.2066 50.0606 42.2569 50.0892 42.3068L51.3908 41.5612ZM51.3111 41.4208C50.5047 39.9866 49.749 38.2414 49.5344 37.1511C49.4814 36.8819 49.4713 36.699 49.4813 36.5926C49.4929 36.4685 49.5162 36.5768 49.3768 36.6791C49.2193 36.7946 49.1042 36.7241 49.2262 36.7615C49.3431 36.7972 49.5564 36.8999 49.8877 37.136L50.7581 35.9144C50.3716 35.6389 50.0057 35.4313 49.665 35.3271C49.3295 35.2245 48.8785 35.1843 48.4896 35.4695C48.119 35.7414 48.0154 36.1589 47.9879 36.4523C47.9586 36.7634 47.9968 37.1064 48.0626 37.4408C48.3232 38.7645 49.1703 40.6738 50.0035 42.1559L51.3111 41.4208ZM49.5766 36.6C49.7517 38.3466 50.2394 39.4666 50.9348 40.0972C51.6597 40.7546 52.5098 40.7872 53.1034 40.5503L52.5475 39.1571C52.446 39.1976 52.2117 39.2302 51.9424 38.9861C51.6438 38.7152 51.2277 38.0323 51.0692 36.4504L49.5766 36.6ZM52.2958 40.3847C52.4185 40.5071 52.6844 40.6997 53.0551 40.6469C53.4373 40.5924 53.6497 40.318 53.7479 40.1338C53.9308 39.7909 53.9925 39.2742 53.9925 38.6055H52.4925C52.4925 38.9152 52.4762 39.1292 52.455 39.2716C52.4325 39.4234 52.41 39.4548 52.4243 39.428C52.4357 39.4067 52.5524 39.2034 52.8435 39.1619C53.1229 39.1221 53.3019 39.2696 53.3551 39.3227L52.2958 40.3847ZM53.2425 39.3555C53.5841 39.3555 53.9052 39.3287 54.1795 39.2445C54.4608 39.1581 54.7788 38.9827 54.9558 38.6295C55.124 38.2938 55.0842 37.9539 55.0258 37.7211C54.9661 37.4828 54.8575 37.2412 54.7472 37.0212L53.4062 37.6934C53.4533 37.7872 53.4903 37.867 53.5184 37.9354C53.5469 38.0045 53.5627 38.0533 53.5708 38.0857C53.5792 38.119 53.5757 38.1206 53.5762 38.0991C53.5769 38.0742 53.583 38.0207 53.6148 37.9574C53.6476 37.892 53.6918 37.8476 53.7259 37.8229C53.7556 37.8014 53.7673 37.8019 53.7393 37.8105C53.7117 37.819 53.6595 37.831 53.5732 37.8404C53.488 37.8498 53.3793 37.8555 53.2425 37.8555V39.3555ZM54.7472 37.0212C54.6825 36.8922 54.5846 36.7219 54.433 36.5889C54.3505 36.5165 54.2268 36.4325 54.0602 36.3914C53.8821 36.3475 53.7051 36.3652 53.5511 36.4267C53.4093 36.4833 53.3101 36.5672 53.2492 36.6288C53.1872 36.6915 53.1421 36.7542 53.1122 36.7999C53.056 36.8856 53.0099 36.9798 52.9891 37.0212C52.9578 37.0838 52.9517 37.0937 52.9525 37.0924C52.9548 37.089 52.9713 37.0637 53.0035 37.0311C53.0348 36.9995 53.103 36.9383 53.2122 36.8947C53.3336 36.8463 53.4764 36.8318 53.6182 36.8668C53.7486 36.8989 53.8341 36.9618 53.8758 36.9984C53.9459 37.06 53.9526 37.1002 53.913 37.0212L52.5721 37.6934C52.6367 37.8224 52.7347 37.9926 52.8862 38.1257C52.9687 38.1981 53.0925 38.2821 53.2591 38.3232C53.4372 38.3671 53.6141 38.3494 53.7681 38.2879C53.91 38.2313 54.0092 38.1474 54.0701 38.0858C54.1321 38.0231 54.1771 37.9604 54.2071 37.9147C54.2633 37.8289 54.3093 37.7348 54.3301 37.6934C54.3615 37.6308 54.3676 37.6209 54.3667 37.6222C54.3645 37.6256 54.348 37.6509 54.3157 37.6835C54.2845 37.7151 54.2163 37.7763 54.107 37.8198C53.9856 37.8683 53.8429 37.8828 53.701 37.8478C53.5707 37.8156 53.4852 37.7528 53.4435 37.7161C53.3733 37.6546 53.3666 37.6144 53.4062 37.6934L54.7472 37.0212ZM53.913 37.0212C53.8579 36.9112 53.7983 36.7994 53.7567 36.7192C53.7104 36.63 53.6805 36.5692 53.6609 36.5221C53.6401 36.4723 53.6455 36.472 53.6495 36.5034C53.6545 36.5432 53.6575 36.6429 53.6002 36.7572C53.5428 36.8717 53.4629 36.9251 53.4363 36.9399C53.4165 36.9509 53.4312 36.9385 53.514 36.9211C53.6828 36.8856 53.9842 36.8591 54.4938 36.8591V35.3591C53.9607 35.3591 53.5322 35.3845 53.2057 35.4531C52.9199 35.5131 52.4761 35.6524 52.2592 36.0851C52.0447 36.5132 52.2063 36.9315 52.2768 37.1003C52.3541 37.2854 52.4973 37.5442 52.5721 37.6934L53.913 37.0212ZM54.4938 36.8591C55.5403 36.8591 55.9314 36.9771 56.13 37.1257C56.313 37.2626 56.4756 37.5325 56.6859 38.3717L58.141 38.0071C57.9342 37.1821 57.6797 36.4118 57.0286 35.9246C56.393 35.4491 55.5328 35.3591 54.4938 35.3591V36.8591ZM56.6859 38.3717C56.8116 38.8732 56.5717 39.4502 56.137 40.209C55.9496 40.5363 55.7049 40.9345 55.5528 41.2833C55.4119 41.6068 55.2247 42.1534 55.4917 42.6862L56.8327 42.014C56.8912 42.1307 56.8082 42.1573 56.9279 41.8826C57.0366 41.6334 57.209 41.3555 57.4386 40.9546C57.8381 40.2572 58.4324 39.1699 58.141 38.0071L56.6859 38.3717ZM55.4917 42.6862C55.6419 42.9859 55.8799 43.2808 56.1058 43.5393C56.3326 43.7988 56.6167 44.0975 56.8591 44.3635C57.3917 44.948 57.8021 45.4635 57.9534 45.9163L59.3761 45.4409C59.1103 44.6456 58.4779 43.9129 57.9678 43.3532C57.6889 43.0471 57.4516 42.7997 57.2352 42.5522C57.0179 42.3035 56.891 42.1304 56.8327 42.014L55.4917 42.6862ZM57.9534 45.9163C58.0764 46.2844 58.3091 46.7731 58.5513 47.269C58.8035 47.7855 59.0826 48.3421 59.3378 48.9021C59.5936 49.4634 59.8095 49.9946 59.9372 50.4464C60.0755 50.9354 60.066 51.1846 60.0388 51.2659L61.4615 51.7413C61.6429 51.1985 61.5291 50.5635 61.3806 50.0383C61.2217 49.476 60.9684 48.863 60.7028 48.2801C60.4366 47.6959 60.1421 47.1083 59.8991 46.6107C59.646 46.0924 59.4616 45.697 59.3761 45.4409L57.9534 45.9163ZM60.0388 51.2659C59.7349 52.1754 59.1352 53.1944 58.8753 53.5833L60.1225 54.4167C60.4187 53.9735 61.0981 52.8289 61.4615 51.7413L60.0388 51.2659ZM59.4989 53.25H56.9964V54.75H59.4989V53.25ZM57.7464 54C57.7464 53.7901 57.9058 53.0477 58.6629 52.5442L57.8323 51.2952C56.5874 52.123 56.2464 53.3778 56.2464 54H57.7464ZM58.663 52.5442C58.8929 52.3912 59.1463 52.1556 59.2417 51.7992C59.342 51.425 59.2205 51.1025 59.0924 50.8895C58.9691 50.6846 58.7982 50.5089 58.6505 50.3704C58.4982 50.2277 58.3199 50.079 58.1579 49.9423C57.8139 49.652 57.4968 49.3751 57.2598 49.0652C57.0308 48.7657 56.9122 48.48 56.9122 48.1751H55.4122C55.4122 48.9103 55.7107 49.5087 56.0682 49.9763C56.4178 50.4335 56.8566 50.8068 57.1904 51.0886C57.3673 51.2379 57.5082 51.3557 57.6248 51.465C57.7459 51.5784 57.7933 51.64 57.807 51.6626C57.8157 51.6772 57.7496 51.5724 57.7928 51.4111C57.8312 51.2677 57.9152 51.2401 57.8323 51.2952L58.663 52.5442ZM56.2299 47.4281C55.3253 47.3461 53.9885 47.5358 52.9056 48.4143C51.7816 49.3262 51.062 50.8717 51.2435 53.2255L52.739 53.1102C52.5869 51.137 53.188 50.1167 53.8506 49.5792C54.5542 49.0084 55.4697 48.8653 56.0944 48.922L56.2299 47.4281ZM51.9913 52.4179H48.2375V53.9179H51.9913V52.4179ZM48.9597 52.9658C48.9199 52.8236 48.9316 52.646 49.004 52.5335C49.0466 52.4672 49.2176 52.2536 49.9058 52.2536V50.7536C48.8869 50.7536 48.1461 51.0947 47.7425 51.7219C47.3687 52.3029 47.3998 52.9574 47.5152 53.3699L48.9597 52.9658ZM49.9058 52.2536C50.1164 52.2536 50.3306 52.1985 50.522 52.07C50.7062 51.9464 50.8251 51.7845 50.9023 51.639C51.044 51.3721 51.0983 51.055 51.1313 50.8111C51.2099 50.2311 51.2191 49.7091 51.3664 49.0722C51.5034 48.4802 51.7407 47.9241 52.1951 47.4708C52.6458 47.0212 53.374 46.6093 54.6076 46.42L54.38 44.9373C52.9026 45.1641 51.8581 45.6883 51.1357 46.4089C50.417 47.1258 50.0809 47.9739 49.905 48.7341C49.7395 49.4495 49.6966 50.2277 49.6449 50.6098C49.6304 50.7169 49.6158 50.7976 49.6009 50.8583C49.5854 50.9212 49.5747 50.9408 49.5773 50.9358C49.5812 50.9285 49.6113 50.8747 49.686 50.8246C49.7678 50.7697 49.8516 50.7536 49.9058 50.7536V52.2536ZM55.0789 45.2094C54.8836 44.9659 54.7238 44.7454 54.5778 44.5419C54.4377 44.3464 54.2943 44.1436 54.1537 43.9729C53.8528 43.6079 53.4614 43.263 52.8307 43.2146C52.3022 43.174 51.7005 43.3567 50.9932 43.635C50.2584 43.9242 49.2712 44.377 47.9238 44.9974L48.5511 46.3599C49.9148 45.7321 50.8566 45.3008 51.5425 45.0308C52.256 44.7501 52.5667 44.6987 52.7159 44.7102C52.7631 44.7138 52.8148 44.7069 52.9962 44.927C53.0966 45.0488 53.2042 45.2003 53.3589 45.4161C53.5079 45.6238 53.687 45.8714 53.9087 46.1479L55.0789 45.2094ZM48.4343 44.9549C47.8808 44.8044 47.4718 44.665 47.1778 44.5408C46.8745 44.4127 46.7328 44.317 46.6806 44.2709C46.6207 44.2181 46.7729 44.3233 46.7473 44.571C46.7238 44.7982 46.5752 44.8764 46.6195 44.8469C46.6463 44.8291 46.7234 44.7904 46.8633 44.7512C46.9956 44.7142 47.1523 44.6856 47.3136 44.6698C47.4754 44.6539 47.6262 44.6524 47.7468 44.6626C47.8821 44.674 47.9225 44.6954 47.9027 44.6855L48.5722 43.3432C48.3439 43.2293 48.0845 43.1857 47.8728 43.1679C47.6463 43.1488 47.4028 43.1538 47.1671 43.1769C46.7284 43.22 46.177 43.3397 45.7888 43.5979C45.5985 43.7245 45.3 43.9846 45.2553 44.4167C45.2085 44.8691 45.4683 45.2019 45.6886 45.3961C46.1128 45.77 46.8953 46.0908 48.0406 46.4023L48.4343 44.9549ZM47.9027 44.6855C48.3666 44.9169 48.838 44.8277 49.1887 44.6716C49.5369 44.5165 49.853 44.2618 50.1183 43.993C50.6489 43.4551 51.1217 42.7107 51.3628 42.0429L49.9518 41.5337C49.7879 41.988 49.4359 42.5488 49.0505 42.9395C48.8577 43.1349 48.6929 43.2503 48.5785 43.3013C48.4665 43.3512 48.4935 43.304 48.5722 43.3432L47.9027 44.6855ZM51.3628 42.0429C51.404 41.9286 51.44 41.8126 51.4684 41.6968L50.0116 41.3392C49.9975 41.3969 49.9777 41.462 49.9518 41.5337L51.3628 42.0429ZM58.6647 48.9251C60.7953 48.9251 62.6003 48.6104 63.6917 48.0661C64.2072 47.809 64.7676 47.3985 64.9102 46.7584C65.072 46.0321 64.6235 45.4555 64.1191 45.0781L63.2205 46.2792C63.5503 46.5259 63.4146 46.5734 63.4461 46.4322C63.4584 46.3772 63.4453 46.5128 63.0222 46.7238C62.2367 47.1156 60.7051 47.4251 58.6647 47.4251V48.9251ZM64.1191 45.0781C63.6435 44.7223 63.0939 44.4363 62.6201 44.1967C62.1163 43.942 61.7222 43.7502 61.4371 43.5533C61.1216 43.3354 61.1914 43.2788 61.1937 43.3801C61.1956 43.4666 61.141 43.3306 61.6351 42.9363L60.6994 41.7639C60.1508 42.2017 59.6791 42.7418 59.6941 43.4135C59.7094 44.0999 60.2223 44.5373 60.5847 44.7875C60.9773 45.0587 61.4956 45.309 61.9433 45.5353C62.4209 45.7768 62.862 46.0109 63.2205 46.2792L64.1191 45.0781ZM61.6351 42.9363C61.9297 42.7012 62.4592 42.4365 63.151 42.0647C63.7772 41.7281 64.527 41.3062 65.0337 40.8007L63.9743 39.7388C63.6468 40.0655 63.0924 40.3932 62.4408 40.7434C61.8549 41.0584 61.1332 41.4178 60.6994 41.7639L61.6351 42.9363ZM65.0337 40.8007C65.4409 40.3945 65.7859 39.8831 65.7471 39.2856C65.7062 38.6563 65.2666 38.2473 64.8574 37.9993C64.4382 37.7452 63.8929 37.5585 63.3056 37.4104C62.7079 37.2597 62.0159 37.1367 61.2731 37.0309L61.0615 38.5159C61.7784 38.618 62.4128 38.7322 62.9388 38.8649C63.475 39.0001 63.8506 39.1431 64.0799 39.2821C64.3194 39.4272 64.2562 39.4748 64.2502 39.3828C64.2463 39.3227 64.2847 39.4292 63.9743 39.7388L65.0337 40.8007Z" fill="white"/>
<path d="M15.0545 38.5C15.5545 37.5 17.5545 36 22.0545 36C26.5545 36 29.0545 37.5 29.0545 38.5C29.0545 39.9142 27.5545 41 26.5545 42H26.3815C25.5545 44.7886 25.5545 51.0307 25.5545 51.5H18.5545C18.5545 50.8608 18.3706 45.9309 17.6502 42H17.5545C16.5545 41.1667 14.6545 39.3 15.0545 38.5Z" fill="#FFC800"/>
<path d="M15.0545 38.5L15.7253 38.8354L15.0545 38.5ZM17.5545 42L17.0744 42.5762L17.283 42.75H17.5545V42ZM26.5545 42V42.75H26.8652L27.0848 42.5303L26.5545 42ZM17.5545 41.5V40.75C17.3298 40.75 17.1169 40.8507 16.9745 41.0245C16.832 41.1983 16.775 41.4268 16.8191 41.6471L17.5545 41.5ZM18.5545 51.5H17.8045C17.8045 51.9142 18.1403 52.25 18.5545 52.25V51.5ZM25.5545 51.5V52.25C25.9687 52.25 26.3045 51.9142 26.3045 51.5H25.5545ZM26.5545 41.5L27.2488 41.7836C27.3433 41.5523 27.3164 41.2892 27.1771 41.0818C27.0378 40.8744 26.8043 40.75 26.5545 40.75V41.5ZM22.0545 35.25C17.4464 35.25 15.0739 36.7842 14.3837 38.1646L15.7253 38.8354C16.0351 38.2158 17.6626 36.75 22.0545 36.75V35.25ZM14.3837 38.1646C14.124 38.684 14.2942 39.2305 14.4537 39.5792C14.6301 39.9647 14.9073 40.3566 15.1995 40.713C15.7892 41.4323 16.552 42.1408 17.0744 42.5762L18.0346 41.4238C17.557 41.0258 16.8698 40.3844 16.3595 39.762C16.1017 39.4476 15.9164 39.1707 15.8177 38.9551C15.7023 38.7028 15.785 38.716 15.7253 38.8354L14.3837 38.1646ZM17.5545 42.75H17.6502V41.25H17.5545V42.75ZM17.6502 42.75H26.3815V41.25H17.6502V42.75ZM26.3815 42.75H26.5545V41.25H26.3815V42.75ZM27.0848 42.5303C27.3241 42.2911 27.5859 42.0538 27.8808 41.7765C28.1659 41.5083 28.4694 41.214 28.7447 40.8983C29.2842 40.2798 29.8045 39.4809 29.8045 38.5H28.3045C28.3045 38.9333 28.0748 39.3844 27.6143 39.9123C27.3896 40.1699 27.1306 40.4229 26.8532 40.6838C26.5856 40.9355 26.2849 41.2089 26.0242 41.4697L27.0848 42.5303ZM29.8045 38.5C29.8045 37.9433 29.4705 37.4763 29.1023 37.1364C28.715 36.779 28.1796 36.456 27.533 36.1838C26.2347 35.6371 24.3819 35.25 22.0545 35.25V36.75C24.2271 36.75 25.8743 37.1129 26.951 37.5662C27.4919 37.794 27.8627 38.0335 28.0849 38.2386C28.326 38.4612 28.3045 38.5567 28.3045 38.5H29.8045ZM16.8191 41.6471C16.8511 41.8074 16.8823 41.9703 16.9125 42.1352L18.3879 41.8648C18.3563 41.6924 18.3237 41.5217 18.2899 41.3529L16.8191 41.6471ZM16.9125 42.1352C17.6222 46.0076 17.8045 50.8894 17.8045 51.5H19.3045C19.3045 50.8321 19.1191 45.8542 18.3879 41.8648L16.9125 42.1352ZM18.5545 52.25H25.5545V50.75H18.5545V52.25ZM26.3045 51.5C26.3045 51.2697 26.3045 49.6072 26.4068 47.6591C26.5105 45.6853 26.7156 43.5114 27.1005 42.2132L25.6625 41.7868C25.2204 43.2773 25.012 45.6186 24.9089 47.5804C24.8045 49.5678 24.8045 51.261 24.8045 51.5H26.3045ZM27.1005 42.2132C27.1492 42.0493 27.1988 41.906 27.2488 41.7836L25.8602 41.2164C25.7875 41.3944 25.722 41.5861 25.6625 41.7868L27.1005 42.2132ZM26.5545 40.75H17.5545V42.25H26.5545V40.75Z" fill="#FFC800"/>
<path d="M49.0545 12.5C49.5545 11.5 51.5545 10 56.0545 10C60.5545 10 63.0545 11.5 63.0545 12.5C63.0545 13.9142 61.5545 15 60.5545 16H60.3815C59.5545 18.7886 59.5545 25.0307 59.5545 25.5H52.5545C52.5545 24.8608 52.3706 19.9309 51.6502 16H51.5545C50.5545 15.1667 48.6545 13.3 49.0545 12.5Z" fill="#FFC800"/>
<path d="M49.0545 12.5L49.7253 12.8354L49.0545 12.5ZM51.5545 16L51.0744 16.5762L51.283 16.75H51.5545V16ZM60.5545 16V16.75H60.8652L61.0848 16.5303L60.5545 16ZM51.5545 15.5V14.75C51.3298 14.75 51.1169 14.8507 50.9745 15.0245C50.832 15.1983 50.775 15.4268 50.8191 15.6471L51.5545 15.5ZM52.5545 25.5H51.8045C51.8045 25.9142 52.1403 26.25 52.5545 26.25V25.5ZM59.5545 25.5V26.25C59.9687 26.25 60.3045 25.9142 60.3045 25.5H59.5545ZM60.5545 15.5L61.2488 15.7836C61.3433 15.5523 61.3164 15.2892 61.1771 15.0818C61.0378 14.8744 60.8043 14.75 60.5545 14.75V15.5ZM56.0545 9.25C51.4464 9.25 49.0739 10.7842 48.3837 12.1646L49.7253 12.8354C50.0351 12.2158 51.6626 10.75 56.0545 10.75V9.25ZM48.3837 12.1646C48.124 12.684 48.2942 13.2305 48.4537 13.5792C48.6301 13.9647 48.9073 14.3566 49.1995 14.713C49.7892 15.4323 50.552 16.1408 51.0744 16.5762L52.0346 15.4238C51.557 15.0258 50.8698 14.3844 50.3595 13.762C50.1017 13.4476 49.9164 13.1707 49.8177 12.9551C49.7023 12.7028 49.785 12.716 49.7253 12.8354L48.3837 12.1646ZM51.5545 16.75H51.6502V15.25H51.5545V16.75ZM51.6502 16.75H60.3815V15.25H51.6502V16.75ZM60.3815 16.75H60.5545V15.25H60.3815V16.75ZM61.0848 16.5303C61.3241 16.2911 61.5859 16.0538 61.8808 15.7765C62.1659 15.5083 62.4694 15.214 62.7447 14.8983C63.2842 14.2798 63.8045 13.4809 63.8045 12.5H62.3045C62.3045 12.9333 62.0748 13.3844 61.6143 13.9123C61.3896 14.1699 61.1306 14.4229 60.8532 14.6838C60.5856 14.9355 60.2849 15.2089 60.0242 15.4697L61.0848 16.5303ZM63.8045 12.5C63.8045 11.9433 63.4705 11.4763 63.1023 11.1364C62.715 10.779 62.1796 10.456 61.533 10.1838C60.2347 9.6371 58.3819 9.25 56.0545 9.25V10.75C58.2271 10.75 59.8743 11.1129 60.951 11.5662C61.4919 11.794 61.8627 12.0335 62.0849 12.2386C62.326 12.4612 62.3045 12.5567 62.3045 12.5H63.8045ZM50.8191 15.6471C50.8511 15.8074 50.8823 15.9703 50.9125 16.1352L52.3879 15.8648C52.3563 15.6924 52.3237 15.5217 52.2899 15.3529L50.8191 15.6471ZM50.9125 16.1352C51.6222 20.0076 51.8045 24.8894 51.8045 25.5H53.3045C53.3045 24.8321 53.1191 19.8542 52.3879 15.8648L50.9125 16.1352ZM52.5545 26.25H59.5545V24.75H52.5545V26.25ZM60.3045 25.5C60.3045 25.2697 60.3045 23.6072 60.4068 21.6591C60.5105 19.6853 60.7156 17.5114 61.1005 16.2132L59.6625 15.7868C59.2204 17.2773 59.012 19.6186 58.9089 21.5804C58.8045 23.5678 58.8045 25.261 58.8045 25.5H60.3045ZM61.1005 16.2132C61.1492 16.0493 61.1988 15.906 61.2488 15.7836L59.8602 15.2164C59.7875 15.3944 59.722 15.5861 59.6625 15.7868L61.1005 16.2132ZM60.5545 14.75H51.5545V16.25H60.5545V14.75Z" fill="#FFC800"/>
</g>
<defs>
<clipPath id="clip0_8_71">
<rect width="78" height="62" fill="white"/>
</clipPath>
</defs>
</svg>
