<?xml version="1.0" encoding="UTF-8" standalone="no"?>
<svg
   x="0"
   y="1518"
   width="82"
   height="66"
   viewBox="0 0 82 66"
   version="1.1"
   id="svg2128"
   sodipodi:docname="eo.svg"
   inkscape:export-filename="..\OneDrive\Pictures\Duolingo flags\eo.svg"
   inkscape:export-xdpi="96"
   inkscape:export-ydpi="96"
   xmlns:inkscape="http://www.inkscape.org/namespaces/inkscape"
   xmlns:sodipodi="http://sodipodi.sourceforge.net/DTD/sodipodi-0.dtd"
   xmlns="http://www.w3.org/2000/svg"
   xmlns:svg="http://www.w3.org/2000/svg">
  <defs
     id="defs2132">
    <inkscape:path-effect
       effect="fillet_chamfer"
       id="path-effect2104"
       is_visible="true"
       lpeversion="1"
       nodesatellites_param="F,0,0,1,0,2,0,1 @ F,0,0,1,0,2,0,1 @ F,0,0,1,0,2,0,1"
       unit="px"
       method="auto"
       mode="F"
       radius="2"
       chamfer_steps="1"
       flexible="false"
       use_knot_distance="true"
       apply_no_radius="true"
       apply_with_radius="true"
       only_selected="false"
       hide_knots="false" />
    <inkscape:path-effect
       effect="fillet_chamfer"
       id="path-effect2106"
       is_visible="true"
       lpeversion="1"
       nodesatellites_param="F,0,0,1,0,2,0,1 @ F,0,0,1,0,2,0,1 @ F,0,0,1,0,2.2072127,0,1"
       unit="px"
       method="auto"
       mode="F"
       radius="2"
       chamfer_steps="1"
       flexible="false"
       use_knot_distance="true"
       apply_no_radius="true"
       apply_with_radius="true"
       only_selected="false"
       hide_knots="false" />
  </defs>
  <sodipodi:namedview
     id="namedview2130"
     pagecolor="#ffffff"
     bordercolor="#000000"
     borderopacity="0.25"
     inkscape:showpageshadow="2"
     inkscape:pageopacity="0.0"
     inkscape:pagecheckerboard="0"
     inkscape:deskcolor="#d1d1d1"
     showgrid="false" />
  <title
     id="title2121">eo</title>
  <path
     d="M 63.436962,4 H 18.563038 C 13.628201,4 11.866819,4.584513 10.070258,5.545324 8.119529,6.588585 6.5885853,8.119529 5.5453238,10.070258 4.5845126,11.866819 4,13.628201 4,18.563038 v 28.87392 c 0,4.93484 0.5845126,6.69622 1.5453238,8.49278 1.0432615,1.95073 2.5742052,3.48168 4.5249342,4.52494 1.796561,0.96081 3.557943,1.54532 8.49278,1.54532 h 44.873924 c 4.934837,0 6.696219,-0.58451 8.49278,-1.54532 1.950729,-1.04326 3.481673,-2.57421 4.524934,-4.52494 C 77.415487,54.133178 78,52.371798 78,47.436958 V 18.563038 C 78,13.628201 77.415487,11.866819 76.454676,10.070258 75.411415,8.119529 73.880471,6.588585 71.929742,5.545324 70.133181,4.584513 68.371799,4 63.436962,4 Z"
     id="path54"
     style="fill:#ff4b4b;fill-rule:nonzero;stroke:none;stroke-width:4" />
  <path
     style="fill:#ffc800;fill-opacity:1;stroke:#cbcbcb;stroke-width:0;stroke-dasharray:none;paint-order:markers stroke fill"
     d="m 6.0000005,8.000001 v 49.999997 a 1.0226226,1.0226226 27.081173 0 0 1.6213584,0.829019 L 40.378642,35.170979 a 1.4992594,1.4992594 91.018664 0 0 0.04265,-2.398862 L 7.578705,7.2278822 A 0.97816767,0.97816767 153.93749 0 0 6.0000005,8.000001 Z"
     id="path1103"
     inkscape:path-effect="#path-effect2104"
     inkscape:original-d="M 6.0000005,6.000001 V 59.999998 L 42,33.999998 Z"
     sodipodi:nodetypes="cccc" />
  <path
     style="fill:#4c4c4c;fill-opacity:1;stroke:#cbcbcb;stroke-width:0;stroke-dasharray:none;paint-order:markers stroke fill"
     d="m 6.0000006,8 v 49.999998 a 0.78196765,0.78196765 21.354695 0 0 1.3565602,0.530393 L 28.502892,35.621866 a 2.4812121,2.4812121 91.054047 0 0 0.06067,-3.297709 L 7.3015834,7.5185132 A 0.73984818,0.73984818 159.69935 0 0 6.0000006,8 Z"
     id="path1103-5"
     inkscape:path-effect="#path-effect2106"
     inkscape:original-d="M 6.0000006,6 V 59.999998 L 30,33.999998 Z"
     sodipodi:nodetypes="cccc" />
  <path
     style="fill:none;fill-rule:nonzero;stroke:#ffffff;stroke-width:4"
     d="M 63.436966,4 H 18.563038 C 13.628201,4 11.866819,4.584513 10.070258,5.545324 8.119529,6.588586 6.588585,8.119529 5.545324,10.070259 4.584513,11.86682 4,13.628202 4,18.563038 v 28.87392 c 0,4.93484 0.584513,6.69622 1.545324,8.49278 1.043261,1.95073 2.574205,3.48168 4.524934,4.52494 1.796561,0.96081 3.557943,1.54532 8.49278,1.54532 h 44.873928 c 4.93484,0 6.69622,-0.58451 8.49278,-1.54532 1.95073,-1.04326 3.48167,-2.57421 4.52493,-4.52494 0.96081,-1.79656 1.54533,-3.55794 1.54533,-8.49278 v -28.87392 c 0,-4.934836 -0.58452,-6.696218 -1.54533,-8.492779 -1.04326,-1.95073 -2.5742,-3.481673 -4.52493,-4.524935 C 70.133186,4.584513 68.371806,4 63.436966,4 Z"
     id="border"
     inkscape:label="border" />
  <path
     d="m 10.513878,34.977648 -1.8401429,-0.68988 c -0.5607607,-0.21023 -0.823416,-0.83229 -0.5866649,-1.3894 0.094277,-0.22184 0.259534,-0.40991 0.4701866,-0.53507 l 1.7359652,-1.03145 c 0.128252,-0.0762 0.212381,-0.20787 0.224963,-0.35207 l 0.17025,-1.95189 c 0.05188,-0.59481 0.585584,-1.05448 1.192059,-1.02669 0.241504,0.0111 0.46946,0.0999 0.64858,0.25275 l 1.47609,1.25966 c 0.109037,0.0931 0.260055,0.12586 0.403784,0.0877 l 1.945367,-0.51645 c 0.592823,-0.15738 1.185329,0.18059 1.323396,0.75487 0.05497,0.22869 0.03061,0.47165 -0.06935,0.69128 l -0.823688,1.80995 c -0.06086,0.13372 -0.05166,0.28566 0.02459,0.40629 l 1.032052,1.63271 c 0.314501,0.49754 0.146988,1.16608 -0.374155,1.49322 -0.207532,0.13026 -0.450538,0.1916 -0.691434,0.17448 l -1.985163,-0.14104 c -0.146662,-0.0104 -0.291984,0.0507 -0.388587,0.16339 l -1.307521,1.52552 c -0.398451,0.46487 -1.094477,0.54009 -1.55463,0.16799 -0.183236,-0.14817 -0.30912,-0.35318 -0.357986,-0.58345 l -0.403204,-1.89711 c -0.02979,-0.14016 -0.128799,-0.25433 -0.264753,-0.3053 z"
     id="Star"
     fill="#7ac70c"
     style="fill:#eeeeee;fill-opacity:1;stroke-width:0.511518" />
</svg>
