<?xml version="1.0" encoding="UTF-8" standalone="no"?>
<svg
   x="0"
   y="1518"
   width="78.000008"
   height="62"
   viewBox="0 0 78.000008 62"
   version="1.1"
   id="svg2128"
   xml:space="preserve"
   xmlns="http://www.w3.org/2000/svg">
    <g
     id="g540"
     transform="translate(-2,-2)"><path
       d="M 63.43696,4 H 18.56304 C 13.6282,4 11.86682,4.58451 10.07026,5.54532 8.11953,6.58858 6.58859,8.11953 5.54532,10.07026 4.58451,11.86682 4,13.6282 4,18.56304 v 28.87392 c 0,4.93484 0.58451,6.69622 1.54532,8.49278 1.04327,1.95073 2.57421,3.48168 4.52494,4.52494 C 11.86682,61.41549 13.6282,62 18.56304,62 h 44.87392 c 4.93484,0 6.69622,-0.58451 8.49278,-1.54532 1.95073,-1.04326 3.48167,-2.57421 4.52494,-4.52494 C 77.41549,54.13318 78,52.3718 78,47.43696 V 18.56304 C 78,13.6282 77.41549,11.86682 76.45468,10.07026 75.41141,8.11953 73.88047,6.58858 71.92974,5.54532 70.13318,4.58451 68.3718,4 63.43696,4 Z"
       id="path54-6"
       style="fill:#1cb0f6;fill-opacity:1;fill-rule:nonzero;stroke:none;stroke-width:4" /><path
       style="fill:#eeeeee;fill-opacity:1;stroke:#cbcbcb;stroke-width:0;stroke-dasharray:none;paint-order:markers stroke fill"
       d="m 16.58775,4.47736 v 58.07853 a 0.94106755,0.94106755 25.198569 0 0 1.540963,0.725075 l 33.044804,-27.33982 a 1.7173538,1.7173538 91.049063 0 0 0.04771,-2.605411 L 18.081003,3.8078465 A 0.8967179,0.8967179 155.85049 0 0 16.58775,4.47736 Z"
       id="path1103-2" /><rect
       style="fill:#eeeeee;fill-opacity:1;stroke:#cbcbcb;stroke-width:0;paint-order:markers stroke fill"
       id="rect2625-4"
       width="7.8348393"
       height="55.525162"
       x="10.219355"
       y="4.7690382" /><rect
       style="fill:#ffc800;fill-opacity:1;stroke:#cbcbcb;stroke-width:0;paint-order:markers stroke fill"
       id="rect2625-3-5"
       width="6.1316137"
       height="53.481289"
       x="6.9832249"
       y="6.1316175" /><path
       style="fill:#ffc800;fill-opacity:1;stroke:#cbcbcb;stroke-width:0;stroke-dasharray:none;paint-order:markers stroke fill"
       d="m 13.01954,6.80458 v 53.06509 a 0.87209708,0.87209708 23.559538 0 0 1.465539,0.639046 L 40.989372,35.895847 A 2.127128,2.127128 91.060555 0 0 41.04607,32.8331 L 14.433703,6.2188437 A 0.82838555,0.82838555 157.50102 0 0 13.01954,6.80458 Z"
       id="path1103-5-4" /><path
       style="fill:#78c800;fill-opacity:1;stroke:#cbcbcb;stroke-width:0;stroke-dasharray:none;paint-order:markers stroke fill"
       d="m 6.04276,9.69105 v 48.37049 a 0.81313288,0.81313288 22.125009 0 0 1.3955814,0.567397 L 29.066378,36.42715 a 2.3511945,2.3511945 91.05916 0 0 0.05949,-3.21791 L 7.384434,9.1742597 A 0.77036648,0.77036648 158.93415 0 0 6.04276,9.69105 Z"
       id="path1103-5-8-0" /><path
       style="fill:none;fill-rule:nonzero;stroke:#ffffff;stroke-width:4;stroke-dasharray:none"
       d="M 63.43697,4 H 18.56304 C 13.6282,4 11.86682,4.58451 10.07026,5.54532 8.11953,6.58859 6.58858,8.11953 5.54532,10.07026 4.58451,11.86682 4,13.6282 4,18.56304 v 28.87392 c 0,4.93484 0.58451,6.69622 1.54532,8.49278 1.04326,1.95073 2.57421,3.48168 4.52494,4.52494 C 11.86682,61.41549 13.6282,62 18.56304,62 h 44.87393 c 4.93484,0 6.69622,-0.58451 8.49278,-1.54532 1.95073,-1.04326 3.48167,-2.57421 4.52493,-4.52494 0.96081,-1.79656 1.54533,-3.55794 1.54533,-8.49278 V 18.56304 c 0,-4.93484 -0.58452,-6.69622 -1.54533,-8.49278 C 75.41142,8.11953 73.88048,6.58859 71.92975,5.54532 70.13319,4.58451 68.37181,4 63.43697,4 Z"
       id="border-0" /><circle
       style="fill:#000000;fill-opacity:0;stroke:#eeeeee;stroke-width:1;stroke-dasharray:none;stroke-opacity:1;paint-order:markers stroke fill"
       id="path4920"
       cx="15"
       cy="34.500004"
       r="6" /><path
       style="fill:#000000;fill-opacity:0;stroke:#eeeeee;stroke-width:1.00003;stroke-dasharray:none;stroke-opacity:1;paint-order:markers stroke fill"
       d="m 15.000089,28.744333 c 0,0 -2.997331,3.305383 -3.000073,6.097912 -0.0025,2.545014 3.000073,5.143723 3.000073,5.143723 0,0 3.056519,-2.659543 3.000073,-5.143723 -0.06502,-2.861522 -3.000073,-6.097912 -3.000073,-6.097912 z"
       id="path5082" /><path
       style="fill:#000000;fill-opacity:0;stroke:#eeeeee;stroke-width:1.30772;stroke-dasharray:none;stroke-opacity:1;paint-order:markers stroke fill"
       d="m 15.016524,35.473541 c 2.001252,-3e-4 3.883959,-0.627869 4.94153,-0.980392 1.05757,-0.352524 1.05757,-0.352524 0.0586,-0.01585 -0.998976,0.336671 -2.998938,1.01069 -5.000127,1.010993 -2.001189,3.02e-4 -3.998427,-0.672799 -4.999662,-1.010232 -1.001235,-0.337432 -1.001235,-0.337432 0.05044,0.01313 1.051673,0.350558 2.947973,0.982658 4.949225,0.982358 z"
       id="path5206" /></g></svg>
