<?xml version="1.0" encoding="UTF-8" standalone="no"?>
<svg
   xmlns:dc="http://purl.org/dc/elements/1.1/"
   xmlns:cc="http://creativecommons.org/ns#"
   xmlns:rdf="http://www.w3.org/1999/02/22-rdf-syntax-ns#"
   xmlns:svg="http://www.w3.org/2000/svg"
   xmlns="http://www.w3.org/2000/svg"
   xmlns:sodipodi="http://sodipodi.sourceforge.net/DTD/sodipodi-0.dtd"
   xmlns:inkscape="http://www.inkscape.org/namespaces/inkscape"
   height="70"
   width="0.85416669in"
   version="1.1"
   id="svg2227"
   sodipodi:docname="flag_sr.svg"
   inkscape:version="0.92.5 (2060ec1f9f, 2020-04-08)">
  <sodipodi:namedview
     pagecolor="#ffffff"
     bordercolor="#666666"
     borderopacity="1"
     objecttolerance="10"
     gridtolerance="10"
     guidetolerance="10"
     inkscape:pageopacity="0"
     inkscape:pageshadow="2"
     inkscape:window-width="1848"
     inkscape:window-height="1016"
     id="namedview17"
     showgrid="false"
     inkscape:zoom="6.7428571"
     inkscape:cx="29.568282"
     inkscape:cy="11.082724"
     inkscape:window-x="72"
     inkscape:window-y="27"
     inkscape:window-maximized="1"
     inkscape:current-layer="g848" />
  <metadata
     id="metadata2233">
    <rdf:RDF>
      <cc:Work
         rdf:about="">
        <dc:format>image/svg+xml</dc:format>
        <dc:type
           rdf:resource="http://purl.org/dc/dcmitype/StillImage" />
        <dc:title></dc:title>
      </cc:Work>
    </rdf:RDF>
  </metadata>
  <defs
     id="defs2231" />
  <svg
     x="0"
     y="0"
     width="82"
     height="66"
     viewBox="0 0 82 66"
     version="1.1"
     id="svg1855">
    <title
       id="title1844">cs</title>
  </svg>
  <g
     id="g848"
     transform="translate(26.181094,-51.003186)"
     style="opacity:1">
    <g
       style="fill:none;fill-rule:evenodd;stroke:none;stroke-width:1"
       id="nl"
       transform="translate(-26.181094,51.003186)">
      <g
         style="fill-rule:nonzero"
         transform="translate(6,6)"
         id="g189">
        <path
           style="fill:#ffffff;fill-opacity:1;stroke:#ffffff;stroke-width:4"
           id="path183"
           d="M 57.436962,-2 H 12.563038 C 7.6282012,-2 5.8668192,-1.4154874 4.0702583,-0.45467615 2.119529,0.58858529 0.58858529,2.119529 -0.45467615,4.0702583 -1.4154874,5.8668192 -2,7.6282012 -2,12.563038 v 28.873924 c 0,4.934837 0.5845126,6.696219 1.54532385,8.49278 C 0.58858529,51.880471 2.119529,53.411415 4.0702583,54.454676 5.8668192,55.415487 7.6282012,56 12.563038,56 h 44.873924 c 4.934837,0 6.696219,-0.584513 8.49278,-1.545324 1.950729,-1.043261 3.481673,-2.574205 4.524934,-4.524934 C 71.415487,48.133181 72,46.371799 72,41.436962 V 12.563038 C 72,7.6282012 71.415487,5.8668192 70.454676,4.0702583 69.411415,2.119529 67.880471,0.58858529 65.929742,-0.45467615 64.133181,-1.4154874 62.371799,-2 57.436962,-2 Z" />
        <path
           style="fill:#78c800;fill-opacity:1"
           id="path185"
           d="m 70,36 v 5.436962 c 0,4.368442 -0.454846,5.952545 -1.30895,7.549582 -0.854105,1.597037 -2.107469,2.850401 -3.704506,3.704506 C 63.389507,53.545155 61.805404,54 57.436962,54 H 12.563038 C 8.1945956,54 6.6104931,53.545155 5.013456,52.69105 3.416419,51.836945 2.163055,50.583581 1.3089503,48.986544 0.45484549,47.389507 0,45.805404 0,41.436962 V 36 Z" />
        <path
           style="fill:#1cb0f6;fill-opacity:1"
           id="path187"
           d="m 12.563038,0 h 44.873924 c 4.368442,0 5.952545,0.45484549 7.549582,1.3089503 C 66.583581,2.163055 67.836945,3.416419 68.69105,5.013456 69.545154,6.6104931 70,8.1945956 70,12.563038 V 18 H 0 V 12.563038 C 0,8.1945956 0.45484549,6.6104931 1.3089503,5.013456 2.163055,3.416419 3.416419,2.163055 5.013456,1.3089503 6.6104931,0.45484549 8.1945956,0 12.563038,0 Z" />
        <rect
           style="opacity:1;fill:#ff4b4b;fill-opacity:1;stroke:none;stroke-width:1.33849466;stroke-linejoin:round;stroke-miterlimit:4;stroke-dasharray:none;stroke-dashoffset:17.5748024;stroke-opacity:1"
           id="rect5093"
           width="70"
           height="2.3474576"
           x="-5.5511151e-16"
           y="15.652542" />
        <rect
           style="opacity:1;fill:#ff4b4b;fill-opacity:1;fill-rule:nonzero;stroke:none;stroke-width:1.33849466;stroke-linejoin:round;stroke-miterlimit:4;stroke-dasharray:none;stroke-dashoffset:17.5748024;stroke-opacity:1"
           id="rect5093-5"
           width="70"
           height="2.3474576"
           x="3.8146973e-06"
           y="36" />
      </g>
    </g>
    <path
       inkscape:connector-curvature="0"
       style="fill:#ffffff;fill-rule:nonzero;stroke-width:0.32163814"
       d="m -4.0528325,61.30417 c -0.2812942,-0.07165 -0.5291617,-0.107469 -0.743602,-0.107469 -2.1316301,0 -3.8596578,1.728027 -3.8596578,3.859658 0,2.131629 1.7280277,3.859658 3.8596578,3.859658 0.2144333,0 0.462291,-0.03582 0.7435734,-0.107462 l -4.4e-6,-1.6e-5 c 0.1721492,-0.04385 0.3472468,0.06016 0.3910924,0.232314 0.032946,0.129359 -0.017427,0.265626 -0.126601,0.342445 -0.7762017,0.54618 -1.755498,0.819271 -2.9378893,0.819271 -2.8421735,0 -5.1462106,-2.304037 -5.1462106,-5.14621 0,-2.842174 2.3040371,-5.146211 5.1462106,-5.146211 1.182404,0 2.1617085,0.273096 2.9379142,0.819288 l 2.1e-6,-3e-6 c 0.1452762,0.102227 0.1801752,0.302867 0.077949,0.448143 -0.076818,0.109167 -0.2130792,0.159542 -0.3424344,0.126594 z"
       id="path173" />
    <path
       inkscape:connector-curvature="0"
       style="fill:#ffffff;fill-rule:nonzero;stroke-width:0.32163814"
       d="m 1.334025,69.226751 -0.54172912,0.504154 c -0.1811966,0.168629 -0.4647867,0.158441 -0.6334159,-0.02276 -0.067376,-0.0724 -0.1089167,-0.165054 -0.1181419,-0.263525 l -0.07042,-0.751691 c -0.00981,-0.10473 -0.070215,-0.198044 -0.161746,-0.249878 l -0.6515287,-0.36895 C -1.0601158,67.951128 -1.1364678,67.675395 -1.0134946,67.458237 c 0.048533,-0.08571 0.12373998,-0.153207 0.21417338,-0.192229 l 0.6789673,-0.292978 c 0.097433,-0.04205 0.1678582,-0.129438 0.1882269,-0.233581 l 0.1431595,-0.731972 c 0.047468,-0.242703 0.2826982,-0.400973 0.5254021,-0.353505 0.097704,0.01911 0.1862536,0.07024 0.2516554,0.145293 l 0.48996522,0.562327 c 0.069711,0.08001 0.174399,0.12048 0.2797994,0.108174 l 0.734493,-0.08575 c 0.2478762,-0.02894 0.4722812,0.14854 0.5012235,0.396418 0.011423,0.09783 -0.00943,0.196709 -0.059389,0.281593 L 2.5544164,67.70731 c -0.053347,0.09065 -0.059006,0.201668 -0.015139,0.297272 l 0.3148595,0.686195 c 0.1032278,0.224972 0.00454,0.491029 -0.2204371,0.594258 -0.089891,0.04124 -0.1909049,0.05159 -0.2872902,0.02945 L 1.6251817,69.148744 c -0.1039854,-0.0239 -0.2130528,0.0053 -0.2911587,0.07801 z"
       id="Star-2" />
    <path
       inkscape:connector-curvature="0"
       style="opacity:1;fill:#ffffff;fill-rule:nonzero;stroke-width:0.32163814"
       d="m 7.41108,69.314283 -0.541729,0.504154 c -0.181197,0.168629 -0.464787,0.158441 -0.633416,-0.02276 -0.06738,-0.0724 -0.108917,-0.165054 -0.118142,-0.263525 l -0.07042,-0.751691 c -0.0098,-0.10473 -0.07022,-0.198044 -0.161746,-0.249878 L 5.234098,68.161633 C 5.016939,68.03866 4.940587,67.762927 5.06356,67.545769 5.11209,67.460059 5.1873,67.392562 5.277734,67.35354 l 0.678967,-0.292978 c 0.09743,-0.04205 0.167858,-0.129438 0.188227,-0.233581 l 0.143159,-0.731972 c 0.04747,-0.242703 0.282699,-0.400973 0.525402,-0.353505 0.0977,0.01911 0.186254,0.07024 0.251656,0.145293 l 0.489965,0.562327 c 0.06971,0.08001 0.174399,0.12048 0.279799,0.108174 l 0.734493,-0.08575 c 0.247877,-0.02894 0.472282,0.14854 0.501224,0.396418 0.01142,0.09783 -0.0094,0.196709 -0.05939,0.281593 L 8.63147,67.794842 c -0.05335,0.09065 -0.05901,0.201668 -0.01514,0.297272 l 0.31486,0.686195 c 0.103227,0.224972 0.0045,0.491029 -0.220437,0.594258 -0.08989,0.04124 -0.190905,0.05159 -0.287291,0.02945 L 7.702234,69.236276 c -0.103985,-0.0239 -0.213052,0.0053 -0.291158,0.07801 z"
       id="Star-2-6" />
  </g>
</svg>
