<?xml version="1.0" encoding="UTF-8" standalone="no"?>
<!-- Created with Inkscape (http://www.inkscape.org/) -->
<svg
   width="78mm"
   height="62mm"
   viewBox="0 0 78 62"
   version="1.1"
   id="svg10740"
   inkscape:version="1.1.2 (0a00cf5339, 2022-02-04)"
   sodipodi:docname="Croatiaflag.svg"
   xmlns:inkscape="http://www.inkscape.org/namespaces/inkscape"
   xmlns:sodipodi="http://sodipodi.sourceforge.net/DTD/sodipodi-0.dtd"
   xmlns="http://www.w3.org/2000/svg"
   xmlns:svg="http://www.w3.org/2000/svg">
  <sodipodi:namedview
     id="namedview10742"
     pagecolor="#ffffff"
     bordercolor="#666666"
     borderopacity="1.0"
     inkscape:pageshadow="2"
     inkscape:pageopacity="0.0"
     inkscape:pagecheckerboard="0"
     inkscape:document-units="mm"
     showgrid="false"
     inkscape:zoom="1.28"
     inkscape:cx="152.73438"
     inkscape:cy="135.15625"
     inkscape:window-width="1366"
     inkscape:window-height="699"
     inkscape:window-x="0"
     inkscape:window-y="0"
     inkscape:window-maximized="1"
     inkscape:current-layer="layer1"
     fit-margin-top="0"
     fit-margin-left="0"
     fit-margin-right="0"
     fit-margin-bottom="0" />
  <defs
     id="defs10737">
    <linearGradient
       id="linearGradient15831"
       inkscape:swatch="solid">
      <stop
         style="stop-color:#fffffb;stop-opacity:1;"
         offset="0"
         id="stop15829" />
    </linearGradient>
    <path
       d="m 12.563038,0 44.873924,0 c 4.368442,0 5.952545,0.45484549 7.549582,1.3089503 C 66.583581,2.163055 67.836945,3.416419 68.69105,5.013456 69.545154,6.6104931 70,8.1945956 70,12.563038 v 28.873924 c 0,4.368442 -0.454846,5.952545 -1.30895,7.549582 -0.854105,1.597037 -2.107469,2.850401 -3.704506,3.704506 C 63.389507,53.545155 61.805404,54 57.436962,54 H 12.563038 C 8.1945956,54 6.6104931,53.545155 5.013456,52.69105 3.416419,51.836945 2.163055,50.583581 1.3089503,48.986544 0.45484549,47.389507 0,45.805404 0,41.436962 L 0,12.563038 C 0,8.1945956 0.45484549,6.6104931 1.3089503,5.013456 2.163055,3.416419 3.416419,2.163055 5.013456,1.3089503 6.6104931,0.45484549 8.1945956,0 12.563038,0 Z"
       id="path-1" />
  </defs>
  <g
     inkscape:label="Layer 1"
     inkscape:groupmode="layer"
     id="layer1"
     transform="translate(-106.64965,-98.583124)">
    <g
       id="nl"
       stroke="none"
       stroke-width="1"
       fill="none"
       fill-rule="evenodd"
       transform="translate(104.64965,96.583124)">
      <g
         id="g11915"
         transform="translate(6,6)"
         fill-rule="nonzero">
        <path
           d="M 57.436962,-2 H 12.563038 C 7.6282012,-2 5.8668192,-1.4154874 4.0702583,-0.45467615 2.119529,0.58858529 0.58858529,2.119529 -0.45467615,4.0702583 -1.4154874,5.8668192 -2,7.6282012 -2,12.563038 v 28.873924 c 0,4.934837 0.5845126,6.696219 1.54532385,8.49278 C 0.58858529,51.880471 2.119529,53.411415 4.0702583,54.454676 5.8668192,55.415487 7.6282012,56 12.563038,56 h 44.873924 c 4.934837,0 6.696219,-0.584513 8.49278,-1.545324 1.950729,-1.043261 3.481673,-2.574205 4.524934,-4.524934 C 71.415487,48.133181 72,46.371799 72,41.436962 V 12.563038 C 72,7.6282012 71.415487,5.8668192 70.454676,4.0702583 69.411415,2.119529 67.880471,0.58858529 65.929742,-0.45467615 64.133181,-1.4154874 62.371799,-2 57.436962,-2 Z"
           id="path11909"
           stroke="#ffffff"
           stroke-width="4"
           fill="#eeeeee" />
        <path
           d="m 70,36 v 5.436962 c 0,4.368442 -0.454846,5.952545 -1.30895,7.549582 -0.854105,1.597037 -2.107469,2.850401 -3.704506,3.704506 C 63.389507,53.545155 61.805404,54 57.436962,54 H 12.563038 C 8.1945956,54 6.6104931,53.545155 5.013456,52.69105 3.416419,51.836945 2.163055,50.583581 1.3089503,48.986544 0.45484549,47.389507 0,45.805404 0,41.436962 V 36 Z"
           id="path11911"
           fill="#1cb0f6" />
        <path
           d="m 12.563038,0 h 44.873924 c 4.368442,0 5.952545,0.45484549 7.549582,1.3089503 C 66.583581,2.163055 67.836945,3.416419 68.69105,5.013456 69.545154,6.6104931 70,8.1945956 70,12.563038 V 18 H 0 V 12.563038 C 0,8.1945956 0.45484549,6.6104931 1.3089503,5.013456 2.163055,3.416419 3.416419,2.163055 5.013456,1.3089503 6.6104931,0.45484549 8.1945956,0 12.563038,0 Z"
           id="path11913"
           fill="#ff4b4b" />
      </g>
    </g>
  </g>
  <g
     inkscape:groupmode="layer"
     id="layer2"
     inkscape:label="Layer 2"
     transform="translate(-106.64965,-98.583124)">
    <g
       id="g23113"
       transform="matrix(1.4773144,0,0,1.4773144,-104.09619,-84.524126)">
      <g
         id="g22646"
         transform="matrix(0.3673275,-0.21207663,0.21207663,0.3673275,-217.59649,-467.75915)"
         style="fill:#1cb0f6;fill-opacity:1">
        <path
           d="m 65.099179,1666.9835 3.962576,5.7065 c 0.315006,0.4536 0.202621,1.0767 -0.25102,1.3917 -0.255413,0.1774 -0.578798,0.2258 -0.874974,0.1311 l -3.65797,-1.1698 v 0 l -3.657971,1.1698 c -0.526039,0.1682 -1.088855,-0.1218 -1.257084,-0.6479 -0.09472,-0.2961 -0.04627,-0.6195 0.13109,-0.8749 l 3.962576,-5.7065 c 0.315006,-0.4537 0.938117,-0.5661 1.391757,-0.2511 0.09797,0.068 0.182987,0.1531 0.25102,0.2511 z"
           id="path12115"
           fill="#ff4b4b"
           style="fill:#1cb0f6;fill-opacity:1;fill-rule:nonzero;stroke:none;stroke-width:1" />
        <rect
           id="rect12123"
           fill="#ff4b4b"
           x="59.158924"
           y="1671.8721"
           width="10.237816"
           height="11.94997"
           style="fill:#1cb0f6;fill-opacity:1;fill-rule:nonzero;stroke:none;stroke-width:1.27719"
           rx="1.8636328"
           ry="1.8636328" />
      </g>
      <g
         id="g22802"
         transform="matrix(0.42415325,0,0,0.42415325,141.81232,-578.85259)"
         style="fill:#1cb0f6;fill-opacity:1">
        <path
           d="m 65.099179,1666.9835 3.962576,5.7065 c 0.315006,0.4536 0.202621,1.0767 -0.25102,1.3917 -0.255413,0.1774 -0.578798,0.2258 -0.874974,0.1311 l -3.65797,-1.1698 v 0 l -3.657971,1.1698 c -0.526039,0.1682 -1.088855,-0.1218 -1.257084,-0.6479 -0.09472,-0.2961 -0.04627,-0.6195 0.13109,-0.8749 l 3.962576,-5.7065 c 0.315006,-0.4537 0.938117,-0.5661 1.391757,-0.2511 0.09797,0.068 0.182987,0.1531 0.25102,0.2511 z"
           id="path22798"
           fill="#ff4b4b"
           style="fill:#1cb0f6;fill-opacity:1;fill-rule:nonzero;stroke:none;stroke-width:1" />
        <rect
           id="rect22800"
           fill="#ff4b4b"
           x="59.158924"
           y="1671.8721"
           width="10.237816"
           height="11.94997"
           style="fill:#1cb0f6;fill-opacity:1;fill-rule:nonzero;stroke:none;stroke-width:1.27719"
           rx="1.8636328"
           ry="1.8636328" />
      </g>
      <g
         id="g22796"
         transform="matrix(0.4097006,-0.10977894,0.10977894,0.4097006,-45.210169,-546.98688)"
         style="fill:#1254a9;fill-opacity:1">
        <path
           d="m 65.099179,1666.9835 3.962576,5.7065 c 0.315006,0.4536 0.202621,1.0767 -0.25102,1.3917 -0.255413,0.1774 -0.578798,0.2258 -0.874974,0.1311 l -3.65797,-1.1698 v 0 l -3.657971,1.1698 c -0.526039,0.1682 -1.088855,-0.1218 -1.257084,-0.6479 -0.09472,-0.2961 -0.04627,-0.6195 0.13109,-0.8749 l 3.962576,-5.7065 c 0.315006,-0.4537 0.938117,-0.5661 1.391757,-0.2511 0.09797,0.068 0.182987,0.1531 0.25102,0.2511 z"
           id="path22792"
           fill="#ff4b4b"
           style="fill:#1254a9;fill-opacity:1;fill-rule:nonzero;stroke:none;stroke-width:1" />
        <rect
           id="rect22794"
           fill="#ff4b4b"
           x="59.158924"
           y="1671.8721"
           width="10.237816"
           height="11.94997"
           style="fill:#1254a9;fill-opacity:1;fill-rule:nonzero;stroke:none;stroke-width:1.27719"
           rx="1.8636328"
           ry="1.8636328" />
      </g>
      <g
         id="g22814"
         transform="matrix(0.3673275,0.21207663,-0.21207663,0.3673275,508.48236,-495.09204)"
         style="fill:#1cb0f6;fill-opacity:1">
        <path
           d="m 65.099179,1666.9835 3.962576,5.7065 c 0.315006,0.4536 0.202621,1.0767 -0.25102,1.3917 -0.255413,0.1774 -0.578798,0.2258 -0.874974,0.1311 l -3.65797,-1.1698 v 0 l -3.657971,1.1698 c -0.526039,0.1682 -1.088855,-0.1218 -1.257084,-0.6479 -0.09472,-0.2961 -0.04627,-0.6195 0.13109,-0.8749 l 3.962576,-5.7065 c 0.315006,-0.4537 0.938117,-0.5661 1.391757,-0.2511 0.09797,0.068 0.182987,0.1531 0.25102,0.2511 z"
           id="path22810"
           fill="#ff4b4b"
           style="fill:#1cb0f6;fill-opacity:1;fill-rule:nonzero;stroke:none;stroke-width:1" />
        <rect
           id="rect22812"
           fill="#ff4b4b"
           x="59.158924"
           y="1671.8721"
           width="10.237816"
           height="11.94997"
           style="fill:#1cb0f6;fill-opacity:1;fill-rule:nonzero;stroke:none;stroke-width:1.27719"
           rx="1.8636328"
           ry="1.8636328" />
      </g>
      <g
         id="g22808"
         transform="matrix(0.4097006,0.10977894,-0.10977894,0.4097006,330.64871,-561.16884)"
         style="fill:#1254a9;fill-opacity:1">
        <path
           d="m 65.099179,1666.9835 3.962576,5.7065 c 0.315006,0.4536 0.202621,1.0767 -0.25102,1.3917 -0.255413,0.1774 -0.578798,0.2258 -0.874974,0.1311 l -3.65797,-1.1698 v 0 l -3.657971,1.1698 c -0.526039,0.1682 -1.088855,-0.1218 -1.257084,-0.6479 -0.09472,-0.2961 -0.04627,-0.6195 0.13109,-0.8749 l 3.962576,-5.7065 c 0.315006,-0.4537 0.938117,-0.5661 1.391757,-0.2511 0.09797,0.068 0.182987,0.1531 0.25102,0.2511 z"
           id="path22804"
           fill="#ff4b4b"
           style="fill:#1254a9;fill-opacity:1;fill-rule:nonzero;stroke:none;stroke-width:1" />
        <rect
           id="rect22806"
           fill="#ff4b4b"
           x="59.158924"
           y="1671.8721"
           width="10.237816"
           height="11.94997"
           style="fill:#1254a9;fill-opacity:1;fill-rule:nonzero;stroke:none;stroke-width:1.27719"
           rx="1.8636328"
           ry="1.8636328" />
      </g>
    </g>
    <path
       d="m 137.35692,120.06363 h 16.21803 c 1.91935,0 3.4753,1.42702 3.4753,3.18734 v 12.70133 c 0,5.86773 -5.18647,11.15365 -11.58432,11.15365 -6.39784,0 -11.58431,-5.28592 -11.58431,-11.15365 v -12.70133 c 0,-1.76032 1.55594,-3.18734 3.4753,-3.18734 z"
       id="path13710"
       fill="#ff4b4b"
       style="fill:#fffffb;fill-opacity:1;fill-rule:evenodd;stroke:#ff4b4b;stroke-width:1.63018;stroke-miterlimit:4;stroke-dasharray:none;stroke-opacity:1"
       sodipodi:nodetypes="ssssssss" />
    <rect
       style="opacity:0.98;fill:#ff4b4b;fill-opacity:1;stroke:none;stroke-width:1.6922;stroke-linejoin:round;stroke-miterlimit:4;stroke-dasharray:none;stroke-opacity:1;paint-order:stroke fill markers"
       id="rect17942"
       width="4.6639333"
       height="5.29353"
       x="143.07806"
       y="120.71016"
       rx="0.53713876"
       ry="0.49263293" />
    <rect
       style="opacity:0.98;fill:#ff4b4b;fill-opacity:1;stroke:none;stroke-width:1.6922;stroke-linejoin:round;stroke-miterlimit:4;stroke-dasharray:none;stroke-opacity:1;paint-order:stroke fill markers"
       id="rect18403"
       height="5.29353"
       x="152.57774"
       y="120.81978"
       rx="0.53713876"
       ry="0.49263293"
       width="4.664" />
    <rect
       style="opacity:0.98;fill:#ff4b4b;fill-opacity:1;stroke:none;stroke-width:1.6922;stroke-linejoin:round;stroke-miterlimit:4;stroke-dasharray:none;stroke-opacity:1;paint-order:stroke fill markers"
       id="rect18405"
       width="4.6639333"
       height="5.29353"
       x="133.79346"
       y="120.68793"
       rx="0.53713876"
       ry="0.49263293" />
    <g
       id="g18418"
       transform="matrix(1.5041674,0,0,1.3795362,-75.869417,-46.844194)">
      <rect
         style="opacity:0.98;fill:#ff4b4b;fill-opacity:1;stroke:none;stroke-width:1.17473;stroke-linejoin:round;stroke-miterlimit:4;stroke-dasharray:none;stroke-opacity:1;paint-order:stroke fill markers"
         id="rect18407"
         width="3.1006744"
         height="3.8371811"
         x="148.77271"
         y="125.2781"
         rx="0.3571004"
         ry="0.3571004" />
      <rect
         style="opacity:0.98;fill:#ff4b4b;fill-opacity:1;stroke:none;stroke-width:1.17473;stroke-linejoin:round;stroke-miterlimit:4;stroke-dasharray:none;stroke-opacity:1;paint-order:stroke fill markers"
         id="rect18409"
         width="3.1006744"
         height="3.8371811"
         x="142.42279"
         y="125.2781"
         rx="0.3571004"
         ry="0.3571004" />
    </g>
    <g
       id="g18426"
       transform="matrix(1.5041674,0,0,1.3795362,-75.869417,-36.572453)">
      <rect
         style="opacity:0.98;fill:#ff4b4b;fill-opacity:1;stroke:none;stroke-width:1.17473;stroke-linejoin:round;stroke-miterlimit:4;stroke-dasharray:none;stroke-opacity:1;paint-order:stroke fill markers"
         id="rect18420"
         width="3.1006744"
         height="3.8371811"
         x="145.59775"
         y="121.57394"
         rx="0.3571004"
         ry="0.3571004" />
      <rect
         style="opacity:0.98;fill:#ff4b4b;fill-opacity:1;stroke:none;stroke-width:1.17473;stroke-linejoin:round;stroke-miterlimit:4;stroke-dasharray:none;stroke-opacity:1;paint-order:stroke fill markers"
         id="rect18422"
         width="3.1006744"
         height="3.8371811"
         x="151.94766"
         y="121.57394"
         rx="0.3571004"
         ry="0.3571004" />
      <rect
         style="opacity:0.98;fill:#ff4b4b;fill-opacity:1;stroke:none;stroke-width:1.17473;stroke-linejoin:round;stroke-miterlimit:4;stroke-dasharray:none;stroke-opacity:1;paint-order:stroke fill markers"
         id="rect18424"
         width="3.1006744"
         height="3.8371811"
         x="139.24783"
         y="121.57394"
         rx="0.3571004"
         ry="0.3571004" />
    </g>
    <g
       id="g18432"
       transform="matrix(1.5041674,0,0,1.3795362,-75.869417,-36.572453)">
      <rect
         style="opacity:0.98;fill:#ff4b4b;fill-opacity:1;stroke:none;stroke-width:1.17473;stroke-linejoin:round;stroke-miterlimit:4;stroke-dasharray:none;stroke-opacity:1;paint-order:stroke fill markers"
         id="rect18428"
         width="3.1006744"
         height="3.8371811"
         x="148.77271"
         y="125.2781"
         rx="0.3571004"
         ry="0.3571004" />
      <rect
         style="opacity:0.98;fill:#ff4b4b;fill-opacity:1;stroke:none;stroke-width:1.17473;stroke-linejoin:round;stroke-miterlimit:4;stroke-dasharray:none;stroke-opacity:1;paint-order:stroke fill markers"
         id="rect18430"
         width="3.1006744"
         height="3.8371811"
         x="142.42279"
         y="125.2781"
         rx="0.3571004"
         ry="0.3571004" />
    </g>
    <rect
       style="opacity:0.98;fill:#ff4b4b;fill-opacity:1;stroke:none;stroke-width:1.6922;stroke-linejoin:round;stroke-miterlimit:4;stroke-dasharray:none;stroke-opacity:1;paint-order:stroke fill markers"
       id="rect18434"
       width="4.6639333"
       height="5.29353"
       x="143.13397"
       y="141.36328"
       rx="0.53713876"
       ry="0.49263293" />
    <path
       style="fill:#ff4b4b;fill-opacity:1;stroke:none;stroke-width:0.228164px;stroke-linecap:butt;stroke-linejoin:miter;stroke-opacity:1"
       d="m 134.91116,141.49068 c 4.40523,0 3.6324,-0.56389 3.6324,3.73532 m 0,0 -3.46109,-1.89695"
       id="path19138"
       sodipodi:nodetypes="cccc" />
    <path
       style="fill:#ff4b4b;fill-opacity:1;stroke:none;stroke-width:0.228164px;stroke-linecap:butt;stroke-linejoin:miter;stroke-opacity:1"
       d="m 152.7124,145.03157 c 0,-4.40523 -0.56389,-3.6324 3.73532,-3.6324 m 0,0 -1.89695,3.46109"
       id="path2252"
       sodipodi:nodetypes="cccc" />
  </g>
</svg>
