<?xml version="1.0" encoding="UTF-8" standalone="no"?>
<svg
   id="svg2227"
   version="1.1"
   width="78"
   height="62"
   sodipodi:docname="flag_csb.svg"
   inkscape:version="1.2.1 (9c6d41e410, 2022-07-14)"
   xmlns:inkscape="http://www.inkscape.org/namespaces/inkscape"
   xmlns:sodipodi="http://sodipodi.sourceforge.net/DTD/sodipodi-0.dtd"
   xmlns="http://www.w3.org/2000/svg"
   xmlns:svg="http://www.w3.org/2000/svg">
  <sodipodi:namedview
     id="namedview152"
     pagecolor="#ffffff"
     bordercolor="#000000"
     borderopacity="0.25"
     inkscape:showpageshadow="2"
     inkscape:pageopacity="0.0"
     inkscape:pagecheckerboard="0"
     inkscape:deskcolor="#d1d1d1"
     showgrid="false"
     inkscape:zoom="6.4596774"
     inkscape:cx="28.252185"
     inkscape:cy="42.029963"
     inkscape:window-width="1920"
     inkscape:window-height="991"
     inkscape:window-x="-9"
     inkscape:window-y="-9"
     inkscape:window-maximized="1"
     inkscape:current-layer="csb" />
  <defs
     id="defs946" />
  <g
     id="csb">
    <rect
       style="fill:#4c4c4c;fill-opacity:1;fill-rule:evenodd;stroke:none;stroke-width:0.16088755;stroke-opacity:1"
       id="rect903"
       width="71.044121"
       height="54.994373"
       x="3.4779391"
       y="3.5028114"
       ry="3.880547" />
    <path
       id="rect1923"
       d="m 3.12247,31.398438 v 12.554687 h 0.0245 c -0.007,0.169543 -0.0265,0.336434 -0.0265,0.507813 v 2.210937 c 0,6.496662 5.45458,11.726563 12.23033,11.726563 h 47.697052 c 6.775754,0 12.230328,-5.229901 12.230328,-11.726563 v -2.210937 c 0,-0.171379 -0.01898,-0.33827 -0.02648,-0.507813 h 0.02851 V 31.398438 Z"
       style="fill:#ffc800;fill-opacity:1;fill-rule:evenodd;stroke-width:0.11076645" />
    <path
       d="M 61.436962,2 H 16.563038 C 11.628201,2 9.866819,2.584513 8.070258,3.545324 6.119529,4.588586 4.588585,6.119529 3.545324,8.070259 2.584513,9.86682 2,11.628201 2,16.563037 v 28.873925 c 0,4.934837 0.584513,6.696219 1.545324,8.49278 1.043261,1.950729 2.574205,3.481673 4.524934,4.524934 C 9.866819,59.415487 11.628201,60 16.563038,60 h 44.873924 c 4.93484,0 6.69622,-0.584513 8.49278,-1.545324 1.95073,-1.043261 3.48168,-2.574205 4.52494,-4.524934 0.96081,-1.796561 1.54532,-3.557943 1.54532,-8.49278 V 16.563037 c 0,-4.934836 -0.58451,-6.696217 -1.54532,-8.492778 -1.04326,-1.95073 -2.57421,-3.481673 -4.52494,-4.524935 C 68.133182,2.584513 66.371802,2 61.436962,2 Z"
       id="path1846-3"
       style="fill:none;fill-opacity:1;fill-rule:nonzero;stroke:#ffffff;stroke-width:4" />
  </g>
</svg>
