<?xml version="1.0" encoding="UTF-8" standalone="no"?>
<svg
   height="62"
   width="78.000008"
   version="1.1"
   id="svg2227"
   sodipodi:docname="flag_qu.svg"
   inkscape:version="1.3.2 (091e20ef0f, 2023-11-25)"
   xml:space="preserve"
   xmlns:inkscape="http://www.inkscape.org/namespaces/inkscape"
   xmlns:sodipodi="http://sodipodi.sourceforge.net/DTD/sodipodi-0.dtd"
   xmlns="http://www.w3.org/2000/svg"
   xmlns:svg="http://www.w3.org/2000/svg"><defs
     id="defs1"><clipPath
       clipPathUnits="userSpaceOnUse"
       id="clipPath26"><path
         d="M 39.356907,-0.95484102 H 9.6430926 c -3.2676623,0 -4.4339828,0.3014239 -5.6235975,0.79689902 C 2.7277962,0.38005145 1.7140632,1.1695349 1.0232549,2.175495 0.38704212,3.101953 0,4.0102699 0,6.5550872 V 21.444913 c 0,2.544817 0.38704212,3.453134 1.0232549,4.379592 0.6908083,1.00596 1.7045413,1.795444 2.9962402,2.333437 1.1896147,0.495475 2.3559352,0.796899 5.6235975,0.796899 H 39.356907 c 3.267662,0 4.433983,-0.301424 5.623597,-0.796899 1.291699,-0.537993 2.305432,-1.327477 2.99624,-2.333437 0.636213,-0.926458 1.023255,-1.834775 1.023255,-4.379592 V 6.5550872 c 0,-2.5448173 -0.387042,-3.4531342 -1.023255,-4.3795922 -0.690808,-1.0059601 -1.704541,-1.79544355 -2.99624,-2.333437 -1.189614,-0.49547512 -2.355935,-0.79689902 -5.623597,-0.79689902 z"
         id="path26"
         style="fill:#9069cd;fill-opacity:1;fill-rule:nonzero;stroke:none;stroke-width:2.33741" /></clipPath></defs><sodipodi:namedview
     id="namedview1"
     pagecolor="#505050"
     bordercolor="#ffffff"
     borderopacity="1"
     inkscape:showpageshadow="0"
     inkscape:pageopacity="0"
     inkscape:pagecheckerboard="1"
     inkscape:deskcolor="#505050"
     inkscape:zoom="8.6393936"
     inkscape:cx="35.245529"
     inkscape:cy="20.487549"
     inkscape:window-width="1920"
     inkscape:window-height="994"
     inkscape:window-x="0"
     inkscape:window-y="0"
     inkscape:window-maximized="1"
     inkscape:current-layer="de" /><g
     id="de"
     inkscape:label="qu"><g
       id="g1"
       transform="matrix(1.5102041,0,0,1.9391714,2,3.8516004)"
       clip-path="url(#clipPath26)"
       inkscape:label="flag"
       style="display:inline"><rect
         fill="#742c64"
         width="49"
         height="28.954842"
         id="rect1"
         x="0"
         y="0"
         style="fill:#593f86;fill-opacity:1;stroke-width:1.01691" /><rect
         fill="#0f47af"
         width="49"
         height="24"
         id="rect2"
         x="0"
         y="0"
         style="fill:#1254a9;fill-opacity:1" /><rect
         fill="#89c5e3"
         width="49"
         height="20"
         id="rect3"
         x="0"
         y="0"
         style="fill:#1cb0f6;fill-opacity:1" /><rect
         fill="#078930"
         width="49"
         height="16"
         id="rect4"
         x="0"
         y="0"
         style="fill:#78c800;fill-opacity:1" /><rect
         fill="#fcdd09"
         width="49"
         height="12"
         id="rect5"
         x="0"
         y="0"
         style="fill:#ffc800;fill-opacity:1" /><rect
         fill="#eb7711"
         width="49"
         height="8"
         id="rect6"
         x="0"
         y="0"
         style="fill:#ff9600;fill-opacity:1" /><rect
         fill="#da121a"
         width="49"
         height="4.9548411"
         id="rect7"
         x="0"
         y="-0.95484102"
         style="fill:#ff4b4b;fill-opacity:1;stroke-width:1.11297" /></g><path
       style="fill:none;fill-rule:nonzero;stroke:#ffffff;stroke-width:4"
       d="M 61.436966,2 H 16.563038 C 11.628201,2 9.866819,2.584513 8.070258,3.545324 6.119529,4.588586 4.588585,6.119529 3.545324,8.070259 2.584513,9.86682 2,11.628202 2,16.563039 v 28.873923 c 0,4.934837 0.584513,6.696219 1.545324,8.49278 1.043261,1.950729 2.574205,3.481673 4.524934,4.524934 C 9.866819,59.415487 11.628201,60 16.563038,60 h 44.873928 c 4.93484,0 6.69622,-0.584513 8.49278,-1.545324 1.95073,-1.043261 3.48167,-2.574205 4.52493,-4.524934 0.96081,-1.796561 1.54533,-3.557943 1.54533,-8.49278 V 16.563039 c 0,-4.934837 -0.58452,-6.696219 -1.54533,-8.49278 -1.04326,-1.95073 -2.5742,-3.481673 -4.52493,-4.524935 C 68.133186,2.584513 66.371806,2 61.436966,2 Z"
       id="border" /></g></svg>
