<?xml version="1.0" encoding="UTF-8" standalone="no"?>
<svg
   height="62"
   width="78"
   version="1.1"
   id="svg2227"
   xmlns="http://www.w3.org/2000/svg">
  <defs
     id="defs10" />
  <g
     id="ie">
    <path
       d="M 16.56,2 C 11.63,2 9.87,2.58 8.07,3.55 6.12,4.59 4.59,6.12 3.55,8.07 2.58,9.87 2,11.63 2,16.56 c 0,2.89 0,25.99 0,28.88 0,4.93 0.58,6.69 1.55,8.49 1.04,1.95 2.57,3.48 4.52,4.52 1.8,0.97 3.56,1.55 8.49,1.55 4.49,0 40.39,0 44.88,0 4.93,0 6.69,-0.58 8.49,-1.55 1.95,-1.04 3.48,-2.57 4.52,-4.52 C 75.42,52.13 76,50.37 76,45.44 76,42.55 76,19.45 76,16.56 76,11.63 75.42,9.87 74.45,8.07 73.41,6.12 71.88,4.59 69.93,3.55 68.13,2.58 66.37,2 61.44,2 52.46,2 21.05,2 16.56,2 Z"
       id="use155"
       style="fill:#ffc300;fill-opacity:1" />
    <path
       d="M 16.56,2 C 11.63,2 9.87,2.58 8.07,3.55 6.12,4.59 4.59,6.12 3.55,8.07 2.58,9.87 2,11.63 2,16.56 c 0,2.89 0,25.99 0,28.88 0,4.93 0.58,6.69 1.55,8.49 1.04,1.95 2.57,3.48 4.52,4.52 1.8,0.97 3.56,1.55 8.49,1.55 4.49,0 40.39,0 44.88,0 4.93,0 6.69,-0.58 8.49,-1.55 1.95,-1.04 3.48,-2.57 4.52,-4.52 C 75.42,52.13 76,50.37 76,45.44 76,42.55 76,19.45 76,16.56 76,11.63 75.42,9.87 74.45,8.07 73.41,6.12 71.88,4.59 69.93,3.55 68.13,2.58 66.37,2 61.44,2 52.46,2 21.05,2 16.56,2 Z"
       id="use157"
       style="fill-opacity:0;stroke:#ffffff;stroke-width:4;stroke-opacity:1" />
    <g
       id="g1008"
       transform="translate(1.9162521,2.1202736)">
      <circle
         cx="37.083748"
         cy="28.879726"
         r="15.803348"
         stroke="#000000"
         stroke-width="3.95084"
         fill="none"
         id="circle4"
         style="stroke:#4b4b4b;stroke-opacity:1" />
      <path
         d="m 21.477942,30.855145 q 7.50659,-13.827929 15.605805,-1.975418 8.099216,11.85251 15.605806,-1.975419"
         style="fill:none;stroke:#4b4b4b;stroke-width:3.55575;stroke-opacity:1"
         id="path6" />
    </g>
  </g>
</svg>
