<?xml version="1.0" encoding="utf-8"?>
<!-- Generator: Adobe Illustrator 28.1.0, SVG Export Plug-In . SVG Version: 6.00 Build 0)  -->
<svg version="1.1"
	 id="svg3624" xmlns:inkscape="http://www.inkscape.org/namespaces/inkscape" xmlns:sodipodi="http://sodipodi.sourceforge.net/DTD/sodipodi-0.dtd" xmlns:svg="http://www.w3.org/2000/svg" inkscape:version="1.1.2 (0a00cf5339, 2022-02-04)"
	 xmlns="http://www.w3.org/2000/svg" xmlns:xlink="http://www.w3.org/1999/xlink" x="0px" y="0px" width="78.0425568px"
	 height="61.9255333px" viewBox="0 0 78.0425568 61.9255333" style="enable-background:new 0 0 78.0425568 61.9255333;"
	 xml:space="preserve">
<style type="text/css">
	.st0{fill:#FF4B4B;stroke:#FFFFFF;stroke-width:4;}
	.st1{fill:#58CC02;}
	.st2{fill:none;stroke:#FFFFFF;stroke-width:4;stroke-linecap:round;stroke-miterlimit:10;}
</style>
<sodipodi:namedview  bordercolor="#666666" borderopacity="1.0" id="namedview3628" inkscape:current-layer="svg3626" inkscape:cx="232.28458" inkscape:cy="1646.1446" inkscape:pagecheckerboard="0" inkscape:pageopacity="0.0" inkscape:pageshadow="2" inkscape:window-height="699" inkscape:window-maximized="1" inkscape:window-width="1366" inkscape:window-x="0" inkscape:window-y="0" inkscape:zoom="1.4142136" pagecolor="#ffffff" showgrid="false">
	</sodipodi:namedview>
<path id="path2989" class="st0" d="M61.522068,1.9574468H16.6481438c-4.9348364,0-6.6962175,0.5844727-8.4927788,1.5452881
	C6.2046351,4.5460696,4.6736917,6.0769534,3.6304302,8.0277596c-0.9608111,1.7965088-1.5453238,3.5578613-1.5453238,8.4926758
	v28.8740234c0,4.9348145,0.5845127,6.696167,1.5453238,8.4926758c1.0432615,1.9508057,2.5742049,3.4816895,4.5249348,4.5250244
	c1.7965612,0.9608154,3.5579433,1.5452881,8.4927788,1.5452881H61.522068c4.9348335,0,6.6962166-0.5844727,8.4927788-1.5452881
	c1.9507294-1.043335,3.4816742-2.5742188,4.5249329-4.5250244c0.9608154-1.7965088,1.5453262-3.5578613,1.5453262-8.4926758
	V16.5204353c0-4.9348145-0.5845108-6.696167-1.5453262-8.4926758c-1.0432587-1.9508061-2.5742035-3.4816899-4.5249329-4.5250244
	C68.2182846,2.5419195,66.4569016,1.9574468,61.522068,1.9574468z"/>
<path id="path2991" class="st1" d="M74.0851059,30.9574471v14.4370117c0,4.3684082-0.4548492,5.9525146-1.3089523,7.5495605
	s-2.1074677,2.8503418-3.7045059,3.7045898c-1.5970383,0.854126-3.1811371,1.30896-7.5495834,1.30896H16.6481438
	c-4.3684416,0-5.9525442-0.454834-7.5495806-1.30896c-1.5970378-0.854248-2.8504014-2.1075439-3.7045064-3.7045898
	s-1.3089504-3.1811523-1.3089504-7.5495605V30.9574471H74.0851059z"/>
<line class="st2" x1="26.0638294" y1="17.9574471" x2="50.0851059" y2="41.9574471"/>
<line class="st2" x1="45.3638077" y1="40.6645546" x2="49.3638077" y2="36.6645546"/>
<line class="st2" x1="50.0851059" y1="17.9574471" x2="26.1063824" y2="41.9574471"/>
<line class="st2" x1="30.7922096" y1="40.6645508" x2="26.7992954" y2="36.6645508"/>
</svg>
