<?xml version="1.0" encoding="utf-8"?>
<svg version="1.1" id="svg44" xmlns="http://www.w3.org/2000/svg" xmlns:xlink="http://www.w3.org/1999/xlink" x="0px" y="0px"
	 width="78px" height="62px" viewBox="0 0 78 62" style="enable-background:new 0 0 78 62;" xml:space="preserve">
<style type="text/css">
	.st0{fill:#EEEEEE;stroke:#FFFFFF;stroke-width:4;}
	.st1{fill:#FF4B4B;}
	.st2{fill:#58CC02;}
	.st3{fill:#1CB0F6;}
	.st4{fill:#0173BC;}
</style>
<g id="nl_2_">
	<g id="g2922_2_" transform="translate(6.000000, 6.000000)">
		<path id="path2916_2_" class="st0" d="M55.3999939-4H10.5999908c-4.8999939,0-6.6999969,0.5999756-8.5,1.5
			c-2,1-3.5,2.5999756-4.5,4.5c-1,1.7999878-1.5,3.5999756-1.5,8.5v28.9000244c0,4.9000244,0.6000061,6.7000122,1.5,8.5
			c1,2,2.6000061,3.5,4.5,4.5c1.8000031,1,3.6000061,1.5,8.5,1.5H55.5c4.8999939,0,6.6999969-0.5999756,8.5-1.5
			c2-1,3.5-2.5999756,4.5-4.5c1-1.7999878,1.5-3.5999756,1.5-8.5V10.5c0-4.9000244-0.6000061-6.7000122-1.5-8.5
			c-1-2-2.6000061-3.5-4.5-4.5C62.1000061-3.4000244,60.3999939-4,55.3999939-4z"/>
	</g>
</g>
<g id="g2399">
	<path id="path2384" class="st1" d="M53.1942635,18.1273556c0,2.2559757-1.8288307,4.0848045-4.0848045,4.0848045
		c-2.25597,0-4.0848007-1.8288288-4.0848007-4.0848045s1.8288307-4.0848026,4.0848007-4.0848026
		C51.3654327,14.0425529,53.1942635,15.8713818,53.1942635,18.1273556z"/>
	<path id="path2386" class="st2" d="M37.5565338,31.2932034c-6.0950375,0.600029-13.1534252,4.7040348-17.1608391,9.1297321
		c-0.5976734,0.6600571,0.1168385,1.6553993,0.9335213,1.3005524c5.508276-2.3933258,10.8469315-3.1315651,10.8469315-3.1315651
		C33.8558769,37.2175941,36.3540001,34.4236107,37.5565338,31.2932034z M47.1815834,31.5222569
		c0.0477219,1.7369938-1.450676,5.2157574-2.2905426,6.2655888c0.6307526-0.0093307,1.6797333,0.1288414,1.6797333,0.1288414
		c0.773056-1.3552361,1.7608528-4.0084496,1.7990303-6.0699368C48.3698044,31.8467503,47.9928169,31.646328,47.1815834,31.5222569z
		 M53.7501907,33.8175735c0,0,0.3865318,0.889904,0.3865318,2.5577698c0,1.6520844-0.4676552,2.5553856-0.4676552,2.5553856
		c1.4097939,0.2242851,4.2917786,1.0282745,6.7716255,1.9209251c0.8190651,0.2948303,1.4719849-0.7283783,0.856842-1.3443222
		C59.2109451,37.418026,56.1319847,34.8738441,53.7501907,33.8175735z"/>
	<path id="path2388" class="st3" d="M41.4578171,44.0451088c-0.7947044,0.5459137-0.3269005,1.795105,0.6303444,1.6799469
		c9.5715485-1.1514778,11.6596451-6.3117561,11.6596451-9.3616409c0-3.2146301-1.8840294-5.9811592-3.4690399-7.7398071
		c-0.5956688-0.660923-1.6849823-0.1854153-1.6034775,0.7005844c0.0409431,0.4450703,0.0667267,0.9377365,0.0667267,1.4727268
		C48.7420158,37.7208557,44.6099586,41.8797913,41.4578171,44.0451088z"/>
</g>
<path class="st4" d="M18.6201458,17.7814827c0.0823975-0.0534058,0.1611328-0.1083374,0.2449951-0.1608276
	C18.7690716,17.6545906,18.6869183,17.7095833,18.6201458,17.7814827z"/>
<g>
	<path class="st3" d="M29.4632854,14.6486092c-4.3129883,0-7.8544922,1.2539673-10.5980835,2.9719849
		c-0.2355957,0.0831299-0.4054565,0.2953491-0.4054565,0.5496216c0,0.3261108,0.2762451,0.5903931,0.6170044,0.5903931
		c0.135437,0,0.2540894-0.0501709,0.355835-0.1209717l-0.0134888,0.0241699
		c2.5193481-1.4088745,5.461792-2.3641357,8.7080078-2.3641357c6.0725117,0,10.8061543,4.1817627,10.8061543,10.0235596
		c0,8.5460205-9.0682392,17.0966187-18.3053608,17.1829834c-0.0041504-0.0001221-0.0075684-0.0023193-0.0117798-0.0023193
		c-0.2554932,0-0.4625854,0.2017212-0.4625854,0.4505615s0.2070923,0.4505615,0.4625854,0.4505615
		c-0.0487061,0-0.0932007-0.0133667-0.1372681-0.0269775c1.7214355,0.7483521,4.4299316,1.5794067,7.9942627,1.5794067
		c9.9273701,0,18.5128193-7.2598877,18.5128193-16.1721802C46.9859314,21.7587776,39.8123474,14.6486092,29.4632854,14.6486092z
		 M20.9649944,43.6672859c-0.0070801-0.0081787-0.0107422-0.0189209-0.0184326-0.0266113
		C20.9543133,43.648365,20.9578533,43.6591072,20.9649944,43.6672859z M21.0427532,43.7812386
		c0.0230103,0.0532837,0.0359497,0.1116333,0.0359497,0.1732178C21.0787029,43.8929939,21.0656414,43.8346443,21.0427532,43.7812386
		z"/>
	<path class="st4" d="M20.6161175,43.5038948c-0.0075684,0-0.013916,0.0038452-0.0214233,0.0042114
		c0.0111084-0.0001221,0.0220947-0.00177,0.0332031-0.0018921C20.6237469,43.5060921,20.6203289,43.5038948,20.6161175,43.5038948z"
		/>
	<path class="st4" d="M20.4788494,44.3780403c-0.0266724-0.0115967-0.0570068-0.0234375-0.083252-0.0350342
		C20.4223309,44.3574715,20.4491863,44.3689461,20.4788494,44.3780403z"/>
</g>
</svg>
