<?xml version="1.0" encoding="UTF-8" standalone="no"?>
<!-- Created with Inkscape (http://www.inkscape.org/) -->

<svg
   width="103.26613mm"
   height="82.083328mm"
   viewBox="0 0 103.26613 82.083328"
   version="1.1"
   id="svg5"
   inkscape:version="1.1.2 (0a00cf5339, 2022-02-04)"
   sodipodi:docname="Flag27.svg"
   xmlns:inkscape="http://www.inkscape.org/namespaces/inkscape"
   xmlns:sodipodi="http://sodipodi.sourceforge.net/DTD/sodipodi-0.dtd"
   xmlns="http://www.w3.org/2000/svg"
   xmlns:svg="http://www.w3.org/2000/svg">
  <sodipodi:namedview
     id="namedview7"
     pagecolor="#ffffff"
     bordercolor="#666666"
     borderopacity="1.0"
     inkscape:pageshadow="2"
     inkscape:pageopacity="0.0"
     inkscape:pagecheckerboard="0"
     inkscape:document-units="mm"
     showgrid="false"
     fit-margin-top="0"
     fit-margin-left="0"
     fit-margin-right="0"
     fit-margin-bottom="0"
     inkscape:zoom="0.70710678"
     inkscape:cx="43.133513"
     inkscape:cy="144.24978"
     inkscape:window-width="1366"
     inkscape:window-height="699"
     inkscape:window-x="0"
     inkscape:window-y="0"
     inkscape:window-maximized="1"
     inkscape:current-layer="layer1" />
  <defs
     id="defs2" />
  <g
     inkscape:label="Layer 1"
     inkscape:groupmode="layer"
     id="layer1"
     transform="translate(-94.975431,-140.29792)">
    <path
       d="m 176.31334,142.94577 h -59.40969 c -6.53336,0 -8.86529,0.77385 -11.24381,2.04589 -2.58261,1.38121 -4.60947,3.40806 -5.990667,5.99068 -1.272042,2.37851 -2.045893,4.71044 -2.045893,11.2438 v 38.22689 c 0,6.53336 0.773851,8.86529 2.045893,11.2438 1.381197,2.58262 3.408057,4.60949 5.990667,5.99068 2.37852,1.27204 4.71045,2.04589 11.24381,2.04589 h 59.40969 c 6.53336,0 8.86529,-0.77385 11.2438,-2.04589 2.58262,-1.38119 4.60948,-3.40806 5.99068,-5.99068 1.27204,-2.37851 2.04589,-4.71044 2.04589,-11.2438 v -38.22689 c 0,-6.53336 -0.77385,-8.86529 -2.04589,-11.2438 -1.3812,-2.58262 -3.40806,-4.60947 -5.99068,-5.99068 -2.37851,-1.27204 -4.71044,-2.04589 -11.2438,-2.04589 z"
       id="path2938"
       stroke="#ffffff"
       stroke-width="5.2957"
       fill="#eeeeee"
       style="fill:#1cb0f6;fill-opacity:1;fill-rule:nonzero" />
    <rect
       style="opacity:0.98;fill:#78c800;fill-opacity:1;stroke:#eeeeef;stroke-width:4.405;stroke-linecap:square;stroke-linejoin:miter;stroke-miterlimit:4;stroke-dasharray:none;stroke-opacity:1;paint-order:markers fill stroke"
       id="rect2772"
       width="8.7076759"
       height="67.153664"
       x="142.25467"
       y="147.75525"
       ry="0" />
    <rect
       style="opacity:0.98;fill:#78c800;fill-opacity:1;stroke:#eeeeef;stroke-width:4.418;stroke-linecap:square;stroke-linejoin:miter;stroke-miterlimit:4;stroke-dasharray:none;stroke-opacity:1;paint-order:markers fill stroke"
       id="rect4131"
       width="8.7017517"
       height="88.254784"
       x="176.9812"
       y="-190.7341"
       ry="0"
       transform="rotate(90)" />
    <path
       style="fill:#78c800;stroke:#eeeee0;stroke-width:4.59172;stroke-linecap:butt;stroke-linejoin:miter;stroke-miterlimit:4;stroke-dasharray:none;stroke-opacity:1;fill-opacity:1"
       d="m 109.95849,148.5015 78.81575,61.53629 c -0.51678,0.91292 -2.48157,4.05523 -7.27873,4.47433 l -77.74515,-60.74475 c 0.62934,-1.69385 3.49074,-4.7318 6.20813,-5.26587 z"
       id="path4330"
       sodipodi:nodetypes="ccccc" />
    <path
       style="fill:#78c800;fill-opacity:1;stroke:#eeeee0;stroke-width:4.59172;stroke-linecap:butt;stroke-linejoin:miter;stroke-miterlimit:4;stroke-dasharray:none;stroke-opacity:1"
       d="m 103.00429,207.14383 81.02304,-58.40499 c 0,0 4.64623,1.63424 5.94105,6.36978 l -81.05424,58.68587 c -1.70246,-0.51472 -5.3534,-3.16963 -5.90985,-6.65066 z"
       id="path8337"
       sodipodi:nodetypes="ccccc" />
    <rect
       style="opacity:0.98;fill:#eeeee0;fill-opacity:1;stroke:none;stroke-width:4.41801;stroke-linecap:square;stroke-linejoin:miter;stroke-miterlimit:4;stroke-dasharray:none;stroke-dashoffset:0;stroke-opacity:1;paint-order:markers fill stroke"
       id="rect10546"
       width="45.863811"
       height="28.345394"
       x="123.67659"
       y="167.16689"
       ry="5.9890389" />
    <g
       id="g11267"
       transform="matrix(1,0,0,1.2005513,29.962722,87.068391)"
       style="fill:#1cb0f6;fill-opacity:1">
      <path
         style="opacity:0.98;fill:#1cb0f6;fill-opacity:1;stroke:none;stroke-width:16.698;stroke-linecap:square;stroke-linejoin:miter;stroke-miterlimit:4;stroke-dasharray:none;stroke-dashoffset:0;stroke-opacity:1;paint-order:markers fill stroke"
         id="path10763"
         sodipodi:type="arc"
         sodipodi:cx="-116.6488"
         sodipodi:cy="-79.055984"
         sodipodi:rx="5.2288146"
         sodipodi:ry="5.2288146"
         sodipodi:start="3.1543161"
         sodipodi:end="0"
         sodipodi:arc-type="slice"
         transform="scale(-1)"
         d="m -121.8772,-79.122511 a 5.2288146,5.2288146 0 0 1 5.26166,-5.162182 5.2288146,5.2288146 0 0 1 5.19555,5.228709 h -5.22881 z" />
      <rect
         style="opacity:0.98;fill:#1cb0f6;fill-opacity:1;stroke:none;stroke-width:4.39467;stroke-linecap:square;stroke-linejoin:miter;stroke-miterlimit:4;stroke-dasharray:none;stroke-dashoffset:0;stroke-opacity:1;paint-order:markers fill stroke"
         id="rect10933"
         width="10.45557"
         height="6.5479512"
         x="111.41435"
         y="72.761696"
         ry="0.28925839" />
    </g>
    <rect
       style="opacity:0.98;fill:#eeeeef;fill-opacity:1;stroke:none;stroke-width:6.31159;stroke-linecap:square;stroke-linejoin:miter;stroke-miterlimit:4;stroke-dasharray:none;stroke-dashoffset:0;stroke-opacity:1;paint-order:markers fill stroke"
       id="rect11060"
       width="9.0237465"
       height="6.3646741"
       x="142.09662"
       y="176.75531"
       ry="1.1472634" />
  </g>
</svg>
