<?xml version="1.0" encoding="utf-8"?>
<!-- Generator: Adobe Illustrator 24.0.0, SVG Export Plug-In . SVG Version: 6.00 Build 0)  -->
<svg version="1.1" id="svg44" xmlns="http://www.w3.org/2000/svg" xmlns:xlink="http://www.w3.org/1999/xlink" x="0px" y="0px"
	 viewBox="0 0 78 62" style="enable-background:new 0 0 78 62;" xml:space="preserve">
<style type="text/css">
	.st0{fill:#EEEEEE;stroke:#FFFFFF;stroke-width:4;}
	.st1{fill:#FF9600;stroke:#FF9600;}
	.st2{fill:#FFC300;}
	.st3{fill:#FF4B4B;}
</style>
<g id="eo">
	<g id="g3089" transform="translate(6.000000, 6.000000)">
		<path id="path3083" class="st0" d="M55.2999992-3.9000001H10.5C5.5999999-3.9000001,3.8-3.3,2-2.4000001
			c-2,1-3.5,2.5999999-4.5,4.5c-1,1.8000002-1.5,3.5999999-1.5,8.5V39.5c0,4.9000015,0.5999999,6.7000008,1.5,8.5
			c1,2,2.5999999,3.5,4.5,4.5c1.8,1,3.5999999,1.5,8.5,1.5h44.9000015c4.9000015,0,6.7000008-0.5999985,8.5-1.5
			c2-1,3.5-2.5999985,4.5-4.5c1-1.7999992,1.5-3.5999985,1.5-8.5V10.6000004c0-4.9000001-0.5999985-6.6999998-1.5-8.5
			c-1-2-2.5999985-3.5-4.5-4.5C62-3.3,60.2999992-3.9000001,55.2999992-3.9000001z"/>
	</g>
</g>
<path id="path13255_2_" class="st1" d="M34.9576378,20.5760651v-1.7000008c0-0.6000004-0.5-1.1000004-1.0999985-1.1000004
	c-0.5999985,0.1000004-1,0.6000004-0.9000015,1.1000004v3.1000004c0,0.6000004,0.5,1.1000004,1.0999985,1.1000004h9.8999977
	c0.5999985,0,1.0999985-0.5,1.0999985-1.1000004v-3.1000004c0-0.6000004-0.5-1.1000004-1.0999985-1.1000004
	c-0.5999985,0.1000004-1,0.6000004-0.9000015,1.1000004v1.7000008h-3v-1.7000008c0-0.6000004-0.5-1.1000004-1.0999985-1.1000004
	c-0.5999985,0.1000004-1,0.6000004-0.9000015,1.1000004v1.7000008H34.9576378z"/>
<g id="g29514" transform="matrix(0.14364096,0,0,0.14447881,-21.898448,-15.939728)">
	<path id="rect6254_1_" class="st2" d="M374.6210632,351.0106506v-56.0971069c0-5.1419678,4.1683655-9.3103333,9.3103333-9.3103333
		h40.0314026l-0.0000916,65.4074402"/>
	<path id="rect6254-4_2_" class="st3" d="M423.9630127,416.4180603h-0.0003967
		c-27.2506104,0-49.3415527-22.0909424-49.3415527-49.3414917v-16.065918h49.3416443"/>
</g>
<g id="g29514_1_" transform="matrix(0.14364096,0,0,0.14447881,-21.898448,-15.939728)">
	<path id="rect6254_2_" class="st3" d="M423.9627075,351.0106506l0.0000916-65.4074402h40.0314026
		c5.1419678,0,9.3103638,4.1683655,9.3103638,9.3103333v56.0971069"/>
	<path id="rect6254-4_3_" class="st2" d="M423.9627075,351.0106506h49.3418579l0.0000916,16.065918
		c0,27.2505493-22.0909424,49.3414917-49.3415527,49.3414917h-0.0003967"/>
</g>
</svg>
