<?xml version="1.0" encoding="UTF-8" standalone="no"?>
<svg
   xmlns:dc="http://purl.org/dc/elements/1.1/"
   xmlns:cc="http://creativecommons.org/ns#"
   xmlns:rdf="http://www.w3.org/1999/02/22-rdf-syntax-ns#"
   xmlns:svg="http://www.w3.org/2000/svg"
   xmlns="http://www.w3.org/2000/svg"
   xmlns:sodipodi="http://sodipodi.sourceforge.net/DTD/sodipodi-0.dtd"
   xmlns:inkscape="http://www.inkscape.org/namespaces/inkscape"
   height="70"
   width="0.85416669in"
   version="1.1"
   id="svg2227"
   sodipodi:docname="flag_nap.svg"
   inkscape:version="0.92.4 (5da689c313, 2019-01-14)">
  <metadata
     id="metadata2233">
    <rdf:RDF>
      <cc:Work
         rdf:about="">
        <dc:format>image/svg+xml</dc:format>
        <dc:type
           rdf:resource="http://purl.org/dc/dcmitype/StillImage" />
        <dc:title></dc:title>
      </cc:Work>
    </rdf:RDF>
  </metadata>
  <defs
     id="defs2231" />
  <sodipodi:namedview
     pagecolor="#ffffff"
     bordercolor="#666666"
     borderopacity="1"
     objecttolerance="10"
     gridtolerance="10"
     guidetolerance="10"
     inkscape:pageopacity="0"
     inkscape:pageshadow="2"
     inkscape:window-width="1920"
     inkscape:window-height="1137"
     id="namedview2229"
     showgrid="false"
     inkscape:zoom="7.3554688"
     inkscape:cx="49.594271"
     inkscape:cy="20.955089"
     inkscape:window-x="-8"
     inkscape:window-y="-8"
     inkscape:window-maximized="1"
     inkscape:current-layer="svg1855"
     units="in" />
  <svg
     x="0"
     y="0"
     width="82"
     height="66"
     viewBox="0 0 82 66"
     version="1.1"
     id="svg1855">
    <title
       id="title1844">cs</title>
    <g
       transform="translate(-9.0837471,-47.879727)"
       id="g285"
       style="opacity:1">
      <g
         id="g283">
        <g
           id="g41">
          <path
             inkscape:connector-curvature="0"
             d="m 70.95,55.5 c 4.37,0 5.95,0.45 7.55,1.31 1.6,0.85 2.85,2.11 3.71,3.7 0.85,1.6 1.31,3.18 1.31,7.55 0,2.89 0,25.99 0,28.88 0,4.37 -0.46,5.95 -1.31,7.55 -0.86,1.59 -2.11,2.85 -3.71,3.7 -1.6,0.86 -3.18,1.31 -7.55,1.31 -0.74,0 -4.42,0 -11.06,0 v -54 c 6.64,0 10.32,0 11.06,0 z"
             id="use35"
             style="fill:#ff4b4b;fill-opacity:1" />
          <g
             id="g39">
            <path
               inkscape:connector-curvature="0"
               d="m 70.95,55.5 c 4.37,0 5.95,0.45 7.55,1.31 1.6,0.85 2.85,2.11 3.71,3.7 0.85,1.6 1.31,3.18 1.31,7.55 0,2.89 0,25.99 0,28.88 0,4.37 -0.46,5.95 -1.31,7.55 -0.86,1.59 -2.11,2.85 -3.71,3.7 -1.6,0.86 -3.18,1.31 -7.55,1.31 -0.74,0 -4.42,0 -11.06,0 v -54 c 6.64,0 10.32,0 11.06,0 z"
               id="use37"
               style="fill-opacity:0;stroke:#000000;stroke-width:1;stroke-opacity:0" />
          </g>
        </g>
        <g
           id="g49">
          <path
             inkscape:connector-curvature="0"
             d="m 66.46,81.71 c 2.77,-2.24 3.2,-6.3 0.96,-9.07 -0.04,-0.04 -0.2,-0.24 -0.49,-0.6 v 0 c -0.36,0.29 -0.56,0.45 -0.6,0.49 -2.77,2.24 -3.2,6.3 -0.96,9.07 0.04,0.04 0.2,0.24 0.49,0.6 v 0 c 0.36,-0.29 0.56,-0.45 0.6,-0.49 z"
             id="use43"
             style="fill:#78c800;fill-opacity:1" />
          <g
             id="g47">
            <path
               inkscape:connector-curvature="0"
               d="m 66.46,81.71 c 2.77,-2.24 3.2,-6.3 0.96,-9.07 -0.04,-0.04 -0.2,-0.24 -0.49,-0.6 v 0 c -0.36,0.29 -0.56,0.45 -0.6,0.49 -2.77,2.24 -3.2,6.3 -0.96,9.07 0.04,0.04 0.2,0.24 0.49,0.6 v 0 c 0.36,-0.29 0.56,-0.45 0.6,-0.49 z"
               id="use45"
               style="fill-opacity:0;stroke:#78c800;stroke-width:1;stroke-opacity:1" />
          </g>
        </g>
        <g
           id="g57">
          <path
             inkscape:connector-curvature="0"
             d="m 62.45,74.45 c -0.31,-3.55 -3.44,-6.18 -6.99,-5.87 -0.04,0.01 -0.23,0.02 -0.58,0.05 v 0 c 0.03,0.35 0.05,0.54 0.05,0.58 0.31,3.55 3.44,6.18 6.99,5.87 0.04,-0.01 0.23,-0.02 0.58,-0.05 v 0 c -0.03,-0.35 -0.05,-0.54 -0.05,-0.58 z"
             id="use51"
             style="fill:#78c800;fill-opacity:1" />
          <g
             id="g55">
            <path
               inkscape:connector-curvature="0"
               d="m 62.45,74.45 c -0.31,-3.55 -3.44,-6.18 -6.99,-5.87 -0.04,0.01 -0.23,0.02 -0.58,0.05 v 0 c 0.03,0.35 0.05,0.54 0.05,0.58 0.31,3.55 3.44,6.18 6.99,5.87 0.04,-0.01 0.23,-0.02 0.58,-0.05 v 0 c -0.03,-0.35 -0.05,-0.54 -0.05,-0.58 z"
               id="use53"
               style="fill-opacity:0;stroke:#78c800;stroke-width:1;stroke-opacity:1" />
          </g>
        </g>
        <g
           id="g65">
          <path
             inkscape:connector-curvature="0"
             d="m 40.46,96.13 c -3.38,1.1 -7.02,-0.75 -8.13,-4.14 -0.01,-0.05 -0.09,-0.3 -0.23,-0.74 v 0 c 0.44,-0.14 0.68,-0.22 0.73,-0.24 3.39,-1.1 7.03,0.76 8.13,4.15 0.02,0.04 0.1,0.29 0.24,0.73 v 0 c -0.44,0.15 -0.69,0.23 -0.74,0.24 z"
             id="use59"
             style="fill:#78c800;fill-opacity:1" />
          <g
             id="g63">
            <path
               inkscape:connector-curvature="0"
               d="m 40.46,96.13 c -3.38,1.1 -7.02,-0.75 -8.13,-4.14 -0.01,-0.05 -0.09,-0.3 -0.23,-0.74 v 0 c 0.44,-0.14 0.68,-0.22 0.73,-0.24 3.39,-1.1 7.03,0.76 8.13,4.15 0.02,0.04 0.1,0.29 0.24,0.73 v 0 c -0.44,0.15 -0.69,0.23 -0.74,0.24 z"
               id="use61"
               style="fill-opacity:0;stroke:#78c800;stroke-width:1;stroke-opacity:1" />
          </g>
        </g>
        <g
           id="g73">
          <path
             inkscape:connector-curvature="0"
             d="m 34.48,82.72 c 0.5,-3.53 3.76,-5.99 7.29,-5.49 0.05,0.01 0.3,0.04 0.76,0.11 v 0 c -0.06,0.46 -0.1,0.71 -0.1,0.76 -0.5,3.53 -3.76,5.99 -7.29,5.49 -0.05,0 -0.31,-0.04 -0.77,-0.1 v 0 c 0.07,-0.46 0.1,-0.72 0.11,-0.77 z"
             id="use67"
             style="fill:#78c800;fill-opacity:1" />
          <g
             id="g71">
            <path
               inkscape:connector-curvature="0"
               d="m 34.48,82.72 c 0.5,-3.53 3.76,-5.99 7.29,-5.49 0.05,0.01 0.3,0.04 0.76,0.11 v 0 c -0.06,0.46 -0.1,0.71 -0.1,0.76 -0.5,3.53 -3.76,5.99 -7.29,5.49 -0.05,0 -0.31,-0.04 -0.77,-0.1 v 0 c 0.07,-0.46 0.1,-0.72 0.11,-0.77 z"
               id="use69"
               style="fill-opacity:0;stroke:#78c800;stroke-width:1;stroke-opacity:1" />
          </g>
        </g>
        <g
           id="g81">
          <path
             inkscape:connector-curvature="0"
             d="m 60.19,96.13 c 3.39,1.1 7.03,-0.75 8.13,-4.14 0.02,-0.05 0.1,-0.3 0.24,-0.74 v 0 c -0.44,-0.14 -0.69,-0.22 -0.74,-0.24 -3.38,-1.1 -7.02,0.76 -8.13,4.15 -0.01,0.04 -0.09,0.29 -0.23,0.73 v 0 c 0.44,0.15 0.68,0.23 0.73,0.24 z"
             id="use75"
             style="fill:#78c800;fill-opacity:1" />
          <g
             id="g79">
            <path
               inkscape:connector-curvature="0"
               d="m 60.19,96.13 c 3.39,1.1 7.03,-0.75 8.13,-4.14 0.02,-0.05 0.1,-0.3 0.24,-0.74 v 0 c -0.44,-0.14 -0.69,-0.22 -0.74,-0.24 -3.38,-1.1 -7.02,0.76 -8.13,4.15 -0.01,0.04 -0.09,0.29 -0.23,0.73 v 0 c 0.44,0.15 0.68,0.23 0.73,0.24 z"
               id="use77"
               style="fill-opacity:0;stroke:#78c800;stroke-width:1;stroke-opacity:1" />
          </g>
        </g>
        <g
           id="g89">
          <path
             inkscape:connector-curvature="0"
             d="m 59.36,94.18 c -2.75,-2.26 -3.16,-6.32 -0.9,-9.08 0.03,-0.04 0.19,-0.24 0.49,-0.6 v 0 c 0.36,0.29 0.56,0.46 0.6,0.49 2.75,2.26 3.16,6.32 0.9,9.08 -0.03,0.04 -0.19,0.24 -0.49,0.6 v 0 c -0.36,-0.3 -0.56,-0.46 -0.6,-0.49 z"
             id="use83"
             style="fill:#78c800;fill-opacity:1" />
          <g
             id="g87">
            <path
               inkscape:connector-curvature="0"
               d="m 59.36,94.18 c -2.75,-2.26 -3.16,-6.32 -0.9,-9.08 0.03,-0.04 0.19,-0.24 0.49,-0.6 v 0 c 0.36,0.29 0.56,0.46 0.6,0.49 2.75,2.26 3.16,6.32 0.9,9.08 -0.03,0.04 -0.19,0.24 -0.49,0.6 v 0 c -0.36,-0.3 -0.56,-0.46 -0.6,-0.49 z"
               id="use85"
               style="fill-opacity:0;stroke:#78c800;stroke-width:1;stroke-opacity:1" />
          </g>
        </g>
        <g
           id="g97">
          <path
             inkscape:connector-curvature="0"
             d="m 66.17,82.72 c -0.49,-3.53 -3.75,-5.99 -7.28,-5.49 -0.05,0.01 -0.31,0.04 -0.77,0.11 v 0 c 0.07,0.46 0.1,0.71 0.11,0.76 0.49,3.53 3.76,5.99 7.29,5.49 0.05,0 0.3,-0.04 0.76,-0.1 v 0 c -0.06,-0.46 -0.1,-0.72 -0.11,-0.77 z"
             id="use91"
             style="fill:#78c800;fill-opacity:1" />
          <g
             id="g95">
            <path
               inkscape:connector-curvature="0"
               d="m 66.17,82.72 c -0.49,-3.53 -3.75,-5.99 -7.28,-5.49 -0.05,0.01 -0.31,0.04 -0.77,0.11 v 0 c 0.07,0.46 0.1,0.71 0.11,0.76 0.49,3.53 3.76,5.99 7.29,5.49 0.05,0 0.3,-0.04 0.76,-0.1 v 0 c -0.06,-0.46 -0.1,-0.72 -0.11,-0.77 z"
               id="use93"
               style="fill-opacity:0;stroke:#78c800;stroke-width:1;stroke-opacity:1" />
          </g>
        </g>
        <g
           id="g105">
          <path
             inkscape:connector-curvature="0"
             d="m 54.53,75.1 c 0.94,0 1.71,0.79 1.71,1.75 0,0.79 0,7.06 0,7.85 0,3.22 -2.56,5.83 -5.71,5.83 -3.15,0 -5.71,-2.61 -5.71,-5.83 0,-0.79 0,-7.06 0,-7.85 0,-0.96 0.77,-1.75 1.71,-1.75 1.6,0 7.2,0 8,0 z"
             id="use99"
             style="fill:#ff4b4b;fill-opacity:1" />
          <g
             id="g103">
            <path
               inkscape:connector-curvature="0"
               d="m 54.53,75.1 c 0.94,0 1.71,0.79 1.71,1.75 0,0.79 0,7.06 0,7.85 0,3.22 -2.56,5.83 -5.71,5.83 -3.15,0 -5.71,-2.61 -5.71,-5.83 0,-0.79 0,-7.06 0,-7.85 0,-0.96 0.77,-1.75 1.71,-1.75 1.6,0 7.2,0 8,0 z"
               id="use101"
               style="fill-opacity:0;stroke:#ffffff;stroke-width:0.5;stroke-opacity:1" />
          </g>
        </g>
        <g
           id="g113">
          <path
             inkscape:connector-curvature="0"
             d="M 42.67,95.12 C 44.34,91.97 43.15,88.07 40,86.39 39.96,86.37 39.73,86.25 39.32,86.03 v 0 c -0.22,0.41 -0.34,0.64 -0.37,0.68 -1.67,3.15 -0.47,7.06 2.67,8.73 0.05,0.02 0.28,0.14 0.69,0.36 v 0 c 0.21,-0.41 0.33,-0.63 0.36,-0.68 z"
             id="use107"
             style="fill:#78c800;fill-opacity:1" />
          <g
             id="g111">
            <path
               inkscape:connector-curvature="0"
               d="M 42.67,95.12 C 44.34,91.97 43.15,88.07 40,86.39 39.96,86.37 39.73,86.25 39.32,86.03 v 0 c -0.22,0.41 -0.34,0.64 -0.37,0.68 -1.67,3.15 -0.47,7.06 2.67,8.73 0.05,0.02 0.28,0.14 0.69,0.36 v 0 c 0.21,-0.41 0.33,-0.63 0.36,-0.68 z"
               id="use109"
               style="fill-opacity:0;stroke:#78c800;stroke-width:1;stroke-opacity:1" />
          </g>
        </g>
        <g
           id="g121">
          <path
             inkscape:connector-curvature="0"
             d="m 64.83,80.15 c 0.22,1.02 0.34,2.08 0.34,3.16 0,1.35 -0.18,2.65 -0.52,3.88 m -5.17,7.71 c -2.48,1.92 -5.58,3.06 -8.96,3.06 -3.88,0.52 -7.13,2.48 -9.75,5.88"
             id="use115"
             style="fill:#78c800;fill-opacity:1" />
          <g
             id="g119">
            <path
               inkscape:connector-curvature="0"
               d="m 64.83,80.15 c 0.22,1.02 0.34,2.08 0.34,3.16 0,1.35 -0.18,2.65 -0.52,3.88 m -5.17,7.71 c -2.48,1.92 -5.58,3.06 -8.96,3.06 -3.88,0.52 -7.13,2.48 -9.75,5.88"
               id="use117"
               style="fill-opacity:0;stroke:#78c800;stroke-width:2.6500001;stroke-opacity:1" />
          </g>
        </g>
        <g
           id="g129">
          <path
             inkscape:connector-curvature="0"
             d="m 38.21,74.45 c 0.31,-3.55 3.44,-6.18 6.99,-5.87 0.03,0.01 0.23,0.02 0.57,0.05 v 0 c -0.03,0.35 -0.04,0.54 -0.05,0.58 -0.31,3.55 -3.44,6.18 -6.99,5.87 -0.03,-0.01 -0.23,-0.02 -0.57,-0.05 v 0 c 0.03,-0.35 0.04,-0.54 0.05,-0.58 z"
             id="use123"
             style="fill:#78c800;fill-opacity:1" />
          <g
             id="g127">
            <path
               inkscape:connector-curvature="0"
               d="m 38.21,74.45 c 0.31,-3.55 3.44,-6.18 6.99,-5.87 0.03,0.01 0.23,0.02 0.57,0.05 v 0 c -0.03,0.35 -0.04,0.54 -0.05,0.58 -0.31,3.55 -3.44,6.18 -6.99,5.87 -0.03,-0.01 -0.23,-0.02 -0.57,-0.05 v 0 c 0.03,-0.35 0.04,-0.54 0.05,-0.58 z"
               id="use125"
               style="fill-opacity:0;stroke:#78c800;stroke-width:1;stroke-opacity:1" />
          </g>
        </g>
        <g
           id="g137">
          <path
             inkscape:connector-curvature="0"
             d="m 35.83,80.15 c -0.23,1.02 -0.34,2.08 -0.34,3.16 0,1.35 0.18,2.65 0.52,3.88 m 5.16,7.71 c 2.48,1.92 5.59,3.06 8.96,3.06 3.88,0.52 7.14,2.48 9.76,5.88"
             id="use131"
             style="fill:#78c800;fill-opacity:1" />
          <g
             id="g135">
            <path
               inkscape:connector-curvature="0"
               d="m 35.83,80.15 c -0.23,1.02 -0.34,2.08 -0.34,3.16 0,1.35 0.18,2.65 0.52,3.88 m 5.16,7.71 c 2.48,1.92 5.59,3.06 8.96,3.06 3.88,0.52 7.14,2.48 9.76,5.88"
               id="use133"
               style="fill-opacity:0;stroke:#78c800;stroke-width:2.6500001;stroke-opacity:1" />
          </g>
        </g>
        <g
           id="g145">
          <path
             inkscape:connector-curvature="0"
             d="M 56.24,82.44 V 75.1 H 44.82 v 7.34 z"
             id="use139"
             style="fill:#ffc800;fill-opacity:1" />
          <g
             id="g143">
            <path
               inkscape:connector-curvature="0"
               d="M 56.24,82.44 V 75.1 H 44.82 v 7.34 z"
               id="use141"
               style="fill-opacity:0;stroke:#ffffff;stroke-width:0.5;stroke-opacity:1" />
          </g>
        </g>
        <g
           id="g153">
          <path
             inkscape:connector-curvature="0"
             d="m 34.19,81.71 c -2.77,-2.24 -3.19,-6.3 -0.95,-9.07 0.03,-0.04 0.19,-0.24 0.49,-0.6 v 0 c 0.36,0.29 0.56,0.45 0.6,0.49 2.77,2.24 3.19,6.3 0.95,9.07 -0.03,0.04 -0.19,0.24 -0.49,0.6 v 0 c -0.36,-0.29 -0.56,-0.45 -0.6,-0.49 z"
             id="use147"
             style="fill:#78c800;fill-opacity:1" />
          <g
             id="g151">
            <path
               inkscape:connector-curvature="0"
               d="m 34.19,81.71 c -2.77,-2.24 -3.19,-6.3 -0.95,-9.07 0.03,-0.04 0.19,-0.24 0.49,-0.6 v 0 c 0.36,0.29 0.56,0.45 0.6,0.49 2.77,2.24 3.19,6.3 0.95,9.07 -0.03,0.04 -0.19,0.24 -0.49,0.6 v 0 c -0.36,-0.29 -0.56,-0.45 -0.6,-0.49 z"
               id="use149"
               style="fill-opacity:0;stroke:#78c800;stroke-width:1;stroke-opacity:1" />
          </g>
        </g>
        <g
           id="g161">
          <path
             inkscape:connector-curvature="0"
             d="m 27.56,52 c -4.93,0 -6.69,0.58 -8.49,1.55 -1.95,1.04 -3.48,2.57 -4.52,4.52 -0.97,1.8 -1.55,3.56 -1.55,8.49 0,2.89 0,25.99 0,28.88 0,4.93 0.58,6.69 1.55,8.49 1.04,1.95 2.57,3.48 4.52,4.52 1.8,0.97 3.56,1.55 8.49,1.55 4.49,0 40.39,0 44.88,0 4.93,0 6.69,-0.58 8.49,-1.55 1.95,-1.04 3.48,-2.57 4.52,-4.52 0.97,-1.8 1.55,-3.56 1.55,-8.49 0,-2.89 0,-25.99 0,-28.88 0,-4.93 -0.58,-6.69 -1.55,-8.49 C 84.41,56.12 82.88,54.59 80.93,53.55 79.13,52.58 77.37,52 72.44,52 63.46,52 32.05,52 27.56,52 Z"
             id="use155"
             style="fill:#ffc300;fill-opacity:1" />
          <g
             id="g159">
            <path
               inkscape:connector-curvature="0"
               d="m 27.56,52 c -4.93,0 -6.69,0.58 -8.49,1.55 -1.95,1.04 -3.48,2.57 -4.52,4.52 -0.97,1.8 -1.55,3.56 -1.55,8.49 0,2.89 0,25.99 0,28.88 0,4.93 0.58,6.69 1.55,8.49 1.04,1.95 2.57,3.48 4.52,4.52 1.8,0.97 3.56,1.55 8.49,1.55 4.49,0 40.39,0 44.88,0 4.93,0 6.69,-0.58 8.49,-1.55 1.95,-1.04 3.48,-2.57 4.52,-4.52 0.97,-1.8 1.55,-3.56 1.55,-8.49 0,-2.89 0,-25.99 0,-28.88 0,-4.93 -0.58,-6.69 -1.55,-8.49 C 84.41,56.12 82.88,54.59 80.93,53.55 79.13,52.58 77.37,52 72.44,52 63.46,52 32.05,52 27.56,52 Z"
               id="use157"
               style="fill-opacity:0;stroke:#ffffff;stroke-width:4;stroke-opacity:1" />
          </g>
        </g>
        <g
           id="g169">
          <path
             inkscape:connector-curvature="0"
             d="m 50.54,108 c 9.83,0 15.29,0 16.39,0 6.47,0 10.15,-0.45 12.51,-1.31 2.37,-0.85 2.89,-2.11 4.16,-3.7 1.26,-1.6 1.94,-3.18 1.94,-7.55 0,-2.89 0,-25.99 0,-28.88 0,-4.37 -0.68,-5.95 -1.94,-7.55 -1.27,-1.59 -1.79,-2.85 -4.16,-3.7 C 77.08,54.45 73.4,54 66.93,54 c -1.1,0 -6.56,0 -16.39,0 z"
             id="use163"
             style="fill:#ff4b4b;fill-opacity:1" />
          <g
             id="g167">
            <path
               inkscape:connector-curvature="0"
               d="m 50.54,108 c 9.83,0 15.29,0 16.39,0 6.47,0 10.15,-0.45 12.51,-1.31 2.37,-0.85 2.89,-2.11 4.16,-3.7 1.26,-1.6 1.94,-3.18 1.94,-7.55 0,-2.89 0,-25.99 0,-28.88 0,-4.37 -0.68,-5.95 -1.94,-7.55 -1.27,-1.59 -1.79,-2.85 -4.16,-3.7 C 77.08,54.45 73.4,54 66.93,54 c -1.1,0 -6.56,0 -16.39,0 z"
               id="use165"
               style="fill-opacity:0;stroke:#000000;stroke-width:1;stroke-opacity:0" />
          </g>
        </g>
        <g
           id="g177">
          <path
             inkscape:connector-curvature="0"
             d="m 66.13,79.37 c 2.77,-2.24 3.2,-6.3 0.96,-9.07 -0.03,-0.04 -0.2,-0.24 -0.49,-0.6 v 0 c -0.36,0.29 -0.56,0.45 -0.6,0.49 -2.77,2.24 -3.2,6.3 -0.95,9.07 0.03,0.04 0.19,0.24 0.48,0.6 v 0 c 0.36,-0.29 0.56,-0.45 0.6,-0.49 z"
             id="use171"
             style="fill:#78c800;fill-opacity:1" />
          <g
             id="g175">
            <path
               inkscape:connector-curvature="0"
               d="m 66.13,79.37 c 2.77,-2.24 3.2,-6.3 0.96,-9.07 -0.03,-0.04 -0.2,-0.24 -0.49,-0.6 v 0 c -0.36,0.29 -0.56,0.45 -0.6,0.49 -2.77,2.24 -3.2,6.3 -0.95,9.07 0.03,0.04 0.19,0.24 0.48,0.6 v 0 c 0.36,-0.29 0.56,-0.45 0.6,-0.49 z"
               id="use173"
               style="fill-opacity:0;stroke:#78c800;stroke-width:1;stroke-opacity:1" />
          </g>
        </g>
        <g
           id="g185">
          <path
             inkscape:connector-curvature="0"
             d="m 62.12,72.11 c -0.31,-3.55 -3.44,-6.18 -6.99,-5.87 -0.04,0.01 -0.23,0.02 -0.58,0.05 v 0 c 0.03,0.35 0.05,0.54 0.05,0.58 0.32,3.55 3.44,6.18 6.99,5.87 0.04,-0.01 0.24,-0.02 0.58,-0.05 v 0 c -0.03,-0.35 -0.04,-0.54 -0.05,-0.58 z"
             id="use179"
             style="fill:#78c800;fill-opacity:1" />
          <g
             id="g183">
            <path
               inkscape:connector-curvature="0"
               d="m 62.12,72.11 c -0.31,-3.55 -3.44,-6.18 -6.99,-5.87 -0.04,0.01 -0.23,0.02 -0.58,0.05 v 0 c 0.03,0.35 0.05,0.54 0.05,0.58 0.32,3.55 3.44,6.18 6.99,5.87 0.04,-0.01 0.24,-0.02 0.58,-0.05 v 0 c -0.03,-0.35 -0.04,-0.54 -0.05,-0.58 z"
               id="use181"
               style="fill-opacity:0;stroke:#78c800;stroke-width:1;stroke-opacity:1" />
          </g>
        </g>
        <g
           id="g193">
          <path
             inkscape:connector-curvature="0"
             d="m 40.14,93.79 c -3.39,1.1 -7.03,-0.75 -8.13,-4.14 -0.02,-0.05 -0.1,-0.3 -0.24,-0.74 v 0 c 0.44,-0.14 0.68,-0.22 0.73,-0.24 3.39,-1.1 7.03,0.76 8.13,4.14 0.02,0.05 0.1,0.3 0.24,0.74 v 0 c -0.44,0.14 -0.68,0.22 -0.73,0.24 z"
             id="use187"
             style="fill:#78c800;fill-opacity:1" />
          <g
             id="g191">
            <path
               inkscape:connector-curvature="0"
               d="m 40.14,93.79 c -3.39,1.1 -7.03,-0.75 -8.13,-4.14 -0.02,-0.05 -0.1,-0.3 -0.24,-0.74 v 0 c 0.44,-0.14 0.68,-0.22 0.73,-0.24 3.39,-1.1 7.03,0.76 8.13,4.14 0.02,0.05 0.1,0.3 0.24,0.74 v 0 c -0.44,0.14 -0.68,0.22 -0.73,0.24 z"
               id="use189"
               style="fill-opacity:0;stroke:#78c800;stroke-width:1;stroke-opacity:1" />
          </g>
        </g>
        <g
           id="g201">
          <path
             inkscape:connector-curvature="0"
             d="m 34.15,80.38 c 0.5,-3.53 3.76,-5.99 7.29,-5.49 0.05,0 0.31,0.04 0.77,0.11 v 0 c -0.07,0.46 -0.1,0.71 -0.11,0.76 -0.5,3.53 -3.76,5.99 -7.29,5.49 -0.05,0 -0.3,-0.04 -0.76,-0.1 v 0 c 0.06,-0.46 0.1,-0.72 0.1,-0.77 z"
             id="use195"
             style="fill:#78c800;fill-opacity:1" />
          <g
             id="g199">
            <path
               inkscape:connector-curvature="0"
               d="m 34.15,80.38 c 0.5,-3.53 3.76,-5.99 7.29,-5.49 0.05,0 0.31,0.04 0.77,0.11 v 0 c -0.07,0.46 -0.1,0.71 -0.11,0.76 -0.5,3.53 -3.76,5.99 -7.29,5.49 -0.05,0 -0.3,-0.04 -0.76,-0.1 v 0 c 0.06,-0.46 0.1,-0.72 0.1,-0.77 z"
               id="use197"
               style="fill-opacity:0;stroke:#78c800;stroke-width:1;stroke-opacity:1" />
          </g>
        </g>
        <g
           id="g209">
          <path
             inkscape:connector-curvature="0"
             d="m 59.86,93.79 c 3.39,1.1 7.03,-0.75 8.13,-4.14 0.02,-0.05 0.1,-0.3 0.24,-0.74 v 0 c -0.44,-0.14 -0.68,-0.22 -0.73,-0.24 -3.39,-1.1 -7.03,0.76 -8.13,4.14 -0.02,0.05 -0.1,0.3 -0.24,0.74 v 0 c 0.44,0.14 0.68,0.22 0.73,0.24 z"
             id="use203"
             style="fill:#78c800;fill-opacity:1" />
          <g
             id="g207">
            <path
               inkscape:connector-curvature="0"
               d="m 59.86,93.79 c 3.39,1.1 7.03,-0.75 8.13,-4.14 0.02,-0.05 0.1,-0.3 0.24,-0.74 v 0 c -0.44,-0.14 -0.68,-0.22 -0.73,-0.24 -3.39,-1.1 -7.03,0.76 -8.13,4.14 -0.02,0.05 -0.1,0.3 -0.24,0.74 v 0 c 0.44,0.14 0.68,0.22 0.73,0.24 z"
               id="use205"
               style="fill-opacity:0;stroke:#78c800;stroke-width:1;stroke-opacity:1" />
          </g>
        </g>
        <g
           id="g217">
          <path
             inkscape:connector-curvature="0"
             d="m 59.03,91.84 c -2.75,-2.26 -3.16,-6.33 -0.9,-9.08 0.03,-0.04 0.2,-0.24 0.49,-0.6 v 0 c 0.36,0.29 0.56,0.46 0.6,0.49 2.76,2.26 3.16,6.32 0.9,9.08 -0.03,0.04 -0.19,0.24 -0.49,0.6 v 0 c -0.36,-0.3 -0.56,-0.46 -0.6,-0.49 z"
             id="use211"
             style="fill:#78c800;fill-opacity:1" />
          <g
             id="g215">
            <path
               inkscape:connector-curvature="0"
               d="m 59.03,91.84 c -2.75,-2.26 -3.16,-6.33 -0.9,-9.08 0.03,-0.04 0.2,-0.24 0.49,-0.6 v 0 c 0.36,0.29 0.56,0.46 0.6,0.49 2.76,2.26 3.16,6.32 0.9,9.08 -0.03,0.04 -0.19,0.24 -0.49,0.6 v 0 c -0.36,-0.3 -0.56,-0.46 -0.6,-0.49 z"
               id="use213"
               style="fill-opacity:0;stroke:#78c800;stroke-width:1;stroke-opacity:1" />
          </g>
        </g>
        <g
           id="g225">
          <path
             inkscape:connector-curvature="0"
             d="m 65.85,80.38 c -0.5,-3.53 -3.76,-5.99 -7.29,-5.49 -0.05,0 -0.31,0.04 -0.77,0.11 v 0 c 0.07,0.46 0.1,0.71 0.11,0.76 0.5,3.53 3.76,5.99 7.29,5.49 0.05,0 0.3,-0.04 0.76,-0.1 v 0 c -0.06,-0.46 -0.1,-0.72 -0.1,-0.77 z"
             id="use219"
             style="fill:#78c800;fill-opacity:1" />
          <g
             id="g223">
            <path
               inkscape:connector-curvature="0"
               d="m 65.85,80.38 c -0.5,-3.53 -3.76,-5.99 -7.29,-5.49 -0.05,0 -0.31,0.04 -0.77,0.11 v 0 c 0.07,0.46 0.1,0.71 0.11,0.76 0.5,3.53 3.76,5.99 7.29,5.49 0.05,0 0.3,-0.04 0.76,-0.1 v 0 c -0.06,-0.46 -0.1,-0.72 -0.1,-0.77 z"
               id="use221"
               style="fill-opacity:0;stroke:#78c800;stroke-width:1;stroke-opacity:1" />
          </g>
        </g>
        <g
           id="g233">
          <path
             inkscape:connector-curvature="0"
             d="m 54.2,72.76 c 0.95,0 1.71,0.79 1.71,1.75 0,0.79 0,7.06 0,7.85 0,3.22 -2.55,5.83 -5.71,5.83 -3.15,0 -5.71,-2.61 -5.71,-5.83 0,-0.79 0,-7.06 0,-7.85 0,-0.96 0.77,-1.75 1.72,-1.75 1.6,0 7.19,0 7.99,0 z"
             id="use227"
             style="fill:#ff4b4b;fill-opacity:1" />
          <g
             id="g231">
            <path
               inkscape:connector-curvature="0"
               d="m 54.2,72.76 c 0.95,0 1.71,0.79 1.71,1.75 0,0.79 0,7.06 0,7.85 0,3.22 -2.55,5.83 -5.71,5.83 -3.15,0 -5.71,-2.61 -5.71,-5.83 0,-0.79 0,-7.06 0,-7.85 0,-0.96 0.77,-1.75 1.72,-1.75 1.6,0 7.19,0 7.99,0 z"
               id="use229"
               style="fill-opacity:0;stroke:#ffffff;stroke-width:0.5;stroke-opacity:1" />
          </g>
        </g>
        <g
           id="g241">
          <path
             inkscape:connector-curvature="0"
             d="m 42.34,92.78 c 1.67,-3.15 0.48,-7.05 -2.67,-8.73 -0.04,-0.02 -0.27,-0.14 -0.68,-0.36 v 0 c -0.22,0.41 -0.34,0.64 -0.36,0.68 -1.68,3.15 -0.48,7.06 2.66,8.73 0.05,0.02 0.28,0.14 0.69,0.36 v 0 c 0.22,-0.41 0.34,-0.64 0.36,-0.68 z"
             id="use235"
             style="fill:#78c800;fill-opacity:1" />
          <g
             id="g239">
            <path
               inkscape:connector-curvature="0"
               d="m 42.34,92.78 c 1.67,-3.15 0.48,-7.05 -2.67,-8.73 -0.04,-0.02 -0.27,-0.14 -0.68,-0.36 v 0 c -0.22,0.41 -0.34,0.64 -0.36,0.68 -1.68,3.15 -0.48,7.06 2.66,8.73 0.05,0.02 0.28,0.14 0.69,0.36 v 0 c 0.22,-0.41 0.34,-0.64 0.36,-0.68 z"
               id="use237"
               style="fill-opacity:0;stroke:#78c800;stroke-width:1;stroke-opacity:1" />
          </g>
        </g>
        <g
           id="g249">
          <path
             inkscape:connector-curvature="0"
             d="m 64.5,77.81 c 0.22,1.02 0.34,2.08 0.34,3.16 0,1.35 -0.18,2.65 -0.52,3.88 m -5.17,7.71 c -2.47,1.92 -5.58,3.06 -8.95,3.06 -3.88,0.52 -7.14,2.48 -9.76,5.88"
             id="use243"
             style="fill:#78c800;fill-opacity:1" />
          <g
             id="g247">
            <path
               inkscape:connector-curvature="0"
               d="m 64.5,77.81 c 0.22,1.02 0.34,2.08 0.34,3.16 0,1.35 -0.18,2.65 -0.52,3.88 m -5.17,7.71 c -2.47,1.92 -5.58,3.06 -8.95,3.06 -3.88,0.52 -7.14,2.48 -9.76,5.88"
               id="use245"
               style="fill-opacity:0;stroke:#78c800;stroke-width:2.6500001;stroke-opacity:1" />
          </g>
        </g>
        <g
           id="g257">
          <path
             inkscape:connector-curvature="0"
             d="m 37.88,72.11 c 0.31,-3.55 3.44,-6.18 6.99,-5.87 0.04,0.01 0.23,0.02 0.58,0.05 v 0 c -0.03,0.35 -0.05,0.54 -0.05,0.58 -0.32,3.55 -3.44,6.18 -6.99,5.87 -0.04,-0.01 -0.24,-0.02 -0.58,-0.05 v 0 c 0.03,-0.35 0.04,-0.54 0.05,-0.58 z"
             id="use251"
             style="fill:#78c800;fill-opacity:1" />
          <g
             id="g255">
            <path
               inkscape:connector-curvature="0"
               d="m 37.88,72.11 c 0.31,-3.55 3.44,-6.18 6.99,-5.87 0.04,0.01 0.23,0.02 0.58,0.05 v 0 c -0.03,0.35 -0.05,0.54 -0.05,0.58 -0.32,3.55 -3.44,6.18 -6.99,5.87 -0.04,-0.01 -0.24,-0.02 -0.58,-0.05 v 0 c 0.03,-0.35 0.04,-0.54 0.05,-0.58 z"
               id="use253"
               style="fill-opacity:0;stroke:#78c800;stroke-width:1;stroke-opacity:1" />
          </g>
        </g>
        <g
           id="g265">
          <path
             inkscape:connector-curvature="0"
             d="m 35.5,77.81 c -0.22,1.02 -0.34,2.08 -0.34,3.16 0,1.35 0.18,2.65 0.52,3.88 m 5.17,7.71 c 2.47,1.92 5.58,3.06 8.95,3.06 3.88,0.52 7.14,2.48 9.76,5.88"
             id="use259"
             style="fill:#78c800;fill-opacity:1" />
          <g
             id="g263">
            <path
               inkscape:connector-curvature="0"
               d="m 35.5,77.81 c -0.22,1.02 -0.34,2.08 -0.34,3.16 0,1.35 0.18,2.65 0.52,3.88 m 5.17,7.71 c 2.47,1.92 5.58,3.06 8.95,3.06 3.88,0.52 7.14,2.48 9.76,5.88"
               id="use261"
               style="fill-opacity:0;stroke:#78c800;stroke-width:2.6500001;stroke-opacity:1" />
          </g>
        </g>
        <g
           id="g273">
          <path
             inkscape:connector-curvature="0"
             d="M 55.91,80.1 V 72.76 H 44.49 v 7.34 z"
             id="use267"
             style="fill:#ffc800;fill-opacity:1" />
          <g
             id="g271">
            <path
               inkscape:connector-curvature="0"
               d="M 55.91,80.1 V 72.76 H 44.49 v 7.34 z"
               id="use269"
               style="fill-opacity:0;stroke:#ffffff;stroke-width:0.5;stroke-opacity:1" />
          </g>
        </g>
        <g
           id="g281">
          <path
             inkscape:connector-curvature="0"
             d="m 33.87,79.37 c -2.77,-2.24 -3.2,-6.3 -0.96,-9.07 0.03,-0.04 0.2,-0.24 0.49,-0.6 v 0 c 0.36,0.29 0.56,0.45 0.6,0.49 2.77,2.24 3.2,6.3 0.95,9.07 -0.03,0.04 -0.19,0.24 -0.48,0.6 v 0 c -0.36,-0.29 -0.56,-0.45 -0.6,-0.49 z"
             id="use275"
             style="fill:#78c800;fill-opacity:1" />
          <g
             id="g279">
            <path
               inkscape:connector-curvature="0"
               d="m 33.87,79.37 c -2.77,-2.24 -3.2,-6.3 -0.96,-9.07 0.03,-0.04 0.2,-0.24 0.49,-0.6 v 0 c 0.36,0.29 0.56,0.45 0.6,0.49 2.77,2.24 3.2,6.3 0.95,9.07 -0.03,0.04 -0.19,0.24 -0.48,0.6 v 0 c -0.36,-0.29 -0.56,-0.45 -0.6,-0.49 z"
               id="use277"
               style="fill-opacity:0;stroke:#78c800;stroke-width:1;stroke-opacity:1" />
          </g>
        </g>
      </g>
    </g>
  </svg>
</svg>
