<?xml version="1.0" encoding="utf-8"?>
<!-- Generator: Adobe Illustrator 24.0.0, SVG Export Plug-In . SVG Version: 6.00 Build 0)  -->
<svg version="1.1" id="Layer_1" xmlns="http://www.w3.org/2000/svg" xmlns:xlink="http://www.w3.org/1999/xlink" x="0px" y="0px"
	 viewBox="0 0 100 70" style="enable-background:new 0 0 100 70;" xml:space="preserve">
<style type="text/css">
	.st0{fill-rule:evenodd;clip-rule:evenodd;fill:#FF4B4B;stroke:#FFFFFF;stroke-width:4;}
	.st1{fill:#FFFFFF;}
</style>
<g>
	<g id="en_2_">
		<g id="Group_2_" transform="translate(6.000000, 6.000000)">
			<path id="Rectangle-3_2_" class="st0" d="M65.5-2.4H20.6c-4.9,0-6.7,0.6-8.5,1.5c-2,1-3.5,2.6-4.5,4.5c-1,1.8-1.5,3.6-1.5,8.5V41
				c0,4.9,0.6,6.7,1.5,8.5c1,2,2.6,3.5,4.5,4.5c1.8,1,3.6,1.5,8.5,1.5h44.9c4.9,0,6.7-0.6,8.5-1.5c2-1,3.5-2.6,4.5-4.5
				c1-1.8,1.5-3.6,1.5-8.5V12.1c0-4.9-0.6-6.7-1.5-8.5c-1-2-2.6-3.5-4.5-4.5C72.1-1.8,70.4-2.4,65.5-2.4z"/>
		</g>
	</g>
</g>
<path class="st1" d="M62.5,28.8c0.2,0.3,0.4,0.7,0.6,1c0.2,0.4,0.4,0.9,0.5,1.4c0,0.2,0,0.4-0.1,0.6c-0.1,0.2-0.3,0.3-0.5,0.3
	c-0.2,0-0.3,0-0.5-0.1c-0.3-0.1-0.6-0.2-1-0.1c-0.4,0-0.7,0.2-1,0.5c-0.2,0.3-0.6,0.5-0.9,0.6c-0.4,0.1-0.7,0.3-1.1,0.3
	c-0.4,0.1-0.8,0-1.3,0c-0.3,0-0.6-0.1-0.8-0.1c-0.4-0.1-0.7-0.2-1.1-0.3c-0.6-0.2-1-0.6-1.4-1c-0.2-0.2-0.5-0.3-0.7-0.3
	c-0.3,0-0.7,0-1,0c-0.4,0-0.8,0.1-1.2,0.4c-0.3,0.2-0.5,0.3-0.8,0.4c-0.2,0.1-0.4,0-0.5-0.2c0-0.1,0-0.3-0.1-0.4
	c-0.1-0.4,0-0.8,0.1-1.1c0.1-0.4,0.1-0.7,0.2-1.1c0.1-0.5,0.4-0.9,0.7-1.3c0.2-0.3,0.4-0.5,0.6-0.8c0.2-0.2,0.3-0.4,0.6-0.5
	c0.4-0.3,0.7-0.5,1.1-0.7c0.5-0.3,1.1-0.4,1.7-0.5c0.6-0.1,1.2-0.2,1.8-0.1c0.8,0.1,1.7,0.2,2.4,0.5c0.7,0.3,1.4,0.7,2.1,1.2
	C61.6,27.8,62,28.3,62.5,28.8z"/>
<path class="st1" d="M52.1,43.7c-0.3-0.3-0.5-0.7-0.6-1c-0.1-0.4-0.3-0.8-0.4-1.3C51,41.2,51,41,51,40.8c0-0.3,0-0.6,0-1
	c0-0.6,0.2-1.2,0.5-1.8c0.1-0.2,0.1-0.5,0.1-0.7c0-0.2-0.1-0.5-0.2-0.7c-0.1-0.4-0.3-0.8-0.6-1.1c-0.3-0.3-0.5-0.5-0.8-0.8
	c-0.3-0.3-0.1-0.5,0.1-0.7c0.3-0.1,0.5-0.2,0.8-0.3c0.1,0,0.3,0,0.4-0.1c0.3,0,0.6-0.1,0.9-0.1c0.6,0,1.3,0.1,1.9,0.3
	c0.3,0.1,0.7,0.2,1,0.4c0.3,0.1,0.6,0.3,0.8,0.5c0.3,0.2,0.6,0.5,0.8,0.7c0.5,0.6,0.9,1.2,1.3,2c0.2,0.5,0.4,1,0.5,1.6
	c0.1,0.3,0.1,0.7,0.1,1c0,0.2,0,0.4,0,0.6c0,0.5-0.1,1.1-0.2,1.6c-0.1,0.7-0.4,1.3-0.7,2c-0.2,0.5-0.5,0.9-0.9,1.3
	c-0.4,0.5-0.9,1-1.5,1.4c-0.3,0.2-0.6,0.3-1,0.2c-0.2-0.1-0.4-0.3-0.4-0.6c0-0.4,0-0.7-0.2-1.1c-0.1-0.3-0.3-0.5-0.5-0.7
	c-0.4-0.2-0.8-0.4-1.2-0.8C52.1,43.8,52.1,43.8,52.1,43.7z"/>
<path class="st1" d="M48.8,36c0.2,0.4,0.4,0.9,0.5,1.3c0.1,0.2,0.1,0.5,0.1,0.8c0,0.4,0,0.8,0,1.2c0,0.6-0.1,1.2-0.4,1.7
	c-0.3,0.7-0.6,1.3-1.1,1.9c-0.5,0.6-1,1-1.7,1.4c-0.7,0.5-1.6,0.8-2.4,1c-0.4,0.1-0.8,0.1-1.2,0.2c-0.4,0-0.8,0.1-1.1,0
	c-0.4,0-0.8-0.1-1.2-0.2c-0.7-0.1-1.3-0.4-1.9-0.7c-0.4-0.2-0.7-0.4-1-0.7c-0.2-0.2-0.3-0.4-0.4-0.7c0-0.3,0.1-0.6,0.5-0.8
	c0.4-0.1,0.7-0.3,1-0.6c0.2-0.3,0.4-0.5,0.4-0.9c0-0.5,0.2-0.9,0.5-1.3c0.1-0.2,0.3-0.4,0.4-0.5c0.2-0.2,0.5-0.4,0.7-0.6
	c0.5-0.4,1.1-0.7,1.8-0.9c0.3-0.1,0.6-0.2,0.9-0.2c0.3,0,0.7,0,1,0c0.1,0,0.2,0.1,0.4,0.1c0.3,0,0.6-0.1,0.9-0.3
	c0.3-0.2,0.6-0.4,0.9-0.7c0.3-0.3,0.4-0.6,0.6-1c0.1-0.2,0.2-0.4,0.3-0.5c0.1-0.2,0.4-0.2,0.6-0.1c0.2,0.2,0.4,0.4,0.6,0.7
	C48.7,35.7,48.8,35.8,48.8,36z"/>
<path class="st1" d="M41.6,28c0.5,0.5,1,1.1,1.3,1.8c0.2,0.4,0.3,0.8,0.4,1.2c0,0.2,0.1,0.3,0.2,0.5c0.4,0.5,1,0.9,1.6,1.1
	c0.2,0.1,0.5,0.1,0.7,0.1c0.2,0,0.4,0.1,0.7,0.1c0.2,0.1,0.3,0.3,0.2,0.5c-0.2,0.4-0.3,0.8-0.7,1c-0.2,0.2-0.4,0.4-0.6,0.5
	c-0.5,0.5-1.1,0.8-1.7,1c-0.4,0.1-0.7,0.2-1.1,0.3c-0.2,0.1-0.4,0.1-0.6,0.1c-0.4,0-0.9,0-1.3-0.1c-0.4-0.1-0.9-0.2-1.3-0.4
	c-0.6-0.2-1.1-0.5-1.6-0.9c-0.2-0.2-0.4-0.3-0.6-0.5c-0.3-0.3-0.6-0.6-0.9-0.9c-0.3-0.4-0.6-0.8-0.8-1.2c-0.3-0.4-0.5-0.9-0.6-1.4
	c-0.1-0.4-0.2-0.9-0.3-1.3c-0.1-0.5-0.1-1.1-0.1-1.6c0-0.5,0.2-1,0.3-1.6c0.1-0.2,0.2-0.5,0.3-0.7c0.3-0.4,0.9-0.4,1.2,0
	c0.2,0.3,0.5,0.6,0.9,0.8c0.3,0.2,0.7,0.2,1,0.1c0.3-0.1,0.6-0.1,0.9,0c0.5,0.1,0.9,0.2,1.3,0.5C40.8,27.4,41.2,27.7,41.6,28z"/>
<path class="st1" d="M46,20.4c0.5-0.5,1-0.9,1.6-1.3c0.5-0.3,1-0.5,1.5-0.7c0.5-0.2,1-0.3,1.5-0.3c0.2,0,0.4-0.1,0.6-0.1
	c0.4,0,0.8,0,1.1,0.3c0.3,0.3,0.3,0.6,0.1,0.9c-0.2,0.3-0.4,0.7-0.5,1.1c-0.1,0.3,0,0.7,0.2,1c0.2,0.3,0.2,0.5,0.3,0.8
	c0,0.2,0,0.5,0,0.7c0,0.5-0.1,1.1-0.3,1.6c-0.2,0.5-0.4,1-0.7,1.4c-0.5,0.7-1,1.2-1.8,1.6c-0.4,0.2-0.5,0.5-0.7,0.9
	c-0.2,0.5-0.4,1-0.3,1.5c0,0.2,0.1,0.4,0.1,0.7c0,0.2,0.1,0.5,0.1,0.7c0,0.2-0.2,0.4-0.4,0.3c-0.3-0.1-0.5-0.1-0.8-0.2
	c-0.3-0.1-0.5-0.3-0.8-0.4c-0.5-0.3-0.9-0.6-1.3-1c-0.3-0.3-0.5-0.6-0.7-0.9c-0.3-0.4-0.6-0.9-0.7-1.5c-0.1-0.4-0.2-0.7-0.2-1.1
	c0-0.3-0.1-0.6-0.1-0.8c0-0.9,0.2-1.9,0.6-2.7c0.3-0.7,0.7-1.3,1.1-1.9C45.6,20.8,45.8,20.6,46,20.4z"/>
</svg>
