<?xml version="1.0" encoding="UTF-8" standalone="no"?>
<svg
   id="svg2227"
   version="1.1"
   width="78"
   height="62"
   xmlns="http://www.w3.org/2000/svg"
>
  <g
     id="arn">
    <path
       style="fill:#1254a9;fill-opacity:1;fill-rule:nonzero;stroke:#ffffff;stroke-width:4"
       id="path267"
       d="M 61.436962,2 H 16.563038 C 11.628201,2 9.8668192,2.5845126 8.0702583,3.5453239 6.119529,4.5885853 4.5885853,6.119529 3.5453239,8.0702583 2.5845126,9.8668192 2,11.628201 2,16.563038 v 28.873924 c 0,4.934837 0.5845126,6.696219 1.5453239,8.49278 1.0432614,1.950729 2.5742051,3.481673 4.5249344,4.524934 C 9.8668192,59.415487 11.628201,60 16.563038,60 h 44.873924 c 4.934837,0 6.696219,-0.584513 8.49278,-1.545324 1.950729,-1.043261 3.481673,-2.574205 4.524934,-4.524934 C 75.415487,52.133181 76,50.371799 76,45.436962 V 16.563038 C 76,11.628201 75.415487,9.8668192 74.454676,8.0702583 73.411415,6.119529 71.880471,4.5885853 69.929742,3.5453239 68.133181,2.5845126 66.371799,2 61.436962,2 Z" />
    <path
       d="m 37.652621,19.670617 c 0.324324,-1.435926 2.370391,-1.435926 2.694856,0 l 0.749481,3.318404 c 0.210228,0.930614 1.278186,1.37303 2.085003,0.863581 l 2.876417,-1.816443 c 1.244668,-0.785994 2.691434,0.660771 1.905439,1.905583 l -1.816444,2.876416 c -0.509306,0.806674 -0.06703,1.874633 0.863724,2.084859 l 3.318261,0.749626 c 1.435926,0.324324 1.435926,2.37039 0,2.694714 l -3.318261,0.749626 c -0.930756,0.210226 -1.37303,1.278185 -0.863724,2.084859 l 1.816444,2.876416 c 0.785995,1.244812 -0.660771,2.691577 -1.905439,1.905583 l -2.876417,-1.816443 c -0.806817,-0.509449 -1.874775,-0.06703 -2.085003,0.863723 l -0.749481,3.318262 c -0.324465,1.435926 -2.370532,1.435926 -2.694856,0 l -0.749625,-3.318262 c -0.210226,-0.930756 -1.278185,-1.373172 -2.08486,-0.863723 l -2.876416,1.816443 c -1.244811,0.785994 -2.691577,-0.660771 -1.905583,-1.905583 l 1.816444,-2.876416 c 0.509448,-0.806674 0.06703,-1.874633 -0.863581,-2.084859 l -3.318261,-0.749626 c -1.436055,-0.324324 -1.436055,-2.37039 0,-2.694714 L 30.989,28.903017 c 0.930614,-0.210226 1.373029,-1.278185 0.863581,-2.084859 l -1.816444,-2.876416 c -0.785994,-1.244812 0.660772,-2.691577 1.905583,-1.905583 l 2.876416,1.816443 c 0.806675,0.509449 1.874634,0.06703 2.08486,-0.863581 z"
       id="path863"
       style="fill:#eeeeee;fill-opacity:1;stroke-width:1.42623" />
  </g>
</svg>
