<?xml version="1.0" encoding="UTF-8" standalone="no"?>
<svg
   height="62"
   width="78.000008"
   version="1.1"
   id="svg2227"
   sodipodi:docname="flag_template.svg"
   xml:space="preserve"
   inkscape:export-filename="flemish.svg"
   inkscape:export-xdpi="96"
   inkscape:export-ydpi="96"
   xmlns:inkscape="http://www.inkscape.org/namespaces/inkscape"
   xmlns:sodipodi="http://sodipodi.sourceforge.net/DTD/sodipodi-0.dtd"
   xmlns="http://www.w3.org/2000/svg"
   xmlns:svg="http://www.w3.org/2000/svg"><defs
     id="defs172" /><sodipodi:namedview
     id="namedview170"
     pagecolor="#ffffff"
     bordercolor="#000000"
     borderopacity="0.25"
     inkscape:showpageshadow="2"
     inkscape:pageopacity="0.0"
     inkscape:pagecheckerboard="0"
     inkscape:deskcolor="#d1d1d1"
     showgrid="false" /><g
     id="palette"><ellipse
       ry="20"
       rx="19.849623"
       cy="-10"
       cx="-80.150375"
       id="white"
       style="display:inline;opacity:1;fill:#ffffff;fill-opacity:1;fill-rule:nonzero;stroke:none;stroke-width:6.00702;stroke-linecap:round;stroke-linejoin:round;stroke-miterlimit:4;stroke-dasharray:none;stroke-dashoffset:0;stroke-opacity:1" /><ellipse
       ry="20"
       rx="19.849623"
       cy="-60"
       cx="-80.150375"
       id="gray"
       style="opacity:1;fill:#eeeeee;fill-opacity:1;fill-rule:nonzero;stroke:none;stroke-width:6.00702;stroke-linecap:round;stroke-linejoin:round;stroke-miterlimit:4;stroke-dasharray:none;stroke-dashoffset:0;stroke-opacity:1" /><ellipse
       ry="20"
       rx="19.849623"
       cy="-110"
       cx="-80.150375"
       id="black"
       style="display:inline;opacity:1;fill:#4c4c4c;fill-opacity:1;fill-rule:nonzero;stroke:none;stroke-width:6.00702;stroke-linecap:round;stroke-linejoin:round;stroke-miterlimit:4;stroke-dasharray:none;stroke-dashoffset:0;stroke-opacity:1" /><ellipse
       ry="20"
       rx="19.849623"
       cy="-60"
       cx="-30.150375"
       id="lightblue"
       style="display:inline;opacity:1;fill:#1cb0f6;fill-opacity:1;fill-rule:nonzero;stroke:none;stroke-width:6.00702;stroke-linecap:round;stroke-linejoin:round;stroke-miterlimit:4;stroke-dasharray:none;stroke-dashoffset:0;stroke-opacity:1" /><ellipse
       ry="20"
       rx="19.849623"
       cy="-110"
       cx="-30.150375"
       id="darkblue"
       style="display:inline;opacity:1;fill:#1254a9;fill-opacity:1;fill-rule:nonzero;stroke:none;stroke-width:6.00702;stroke-linecap:round;stroke-linejoin:round;stroke-miterlimit:4;stroke-dasharray:none;stroke-dashoffset:0;stroke-opacity:1" /><ellipse
       ry="20"
       rx="19.849623"
       cy="-60"
       cx="19.849623"
       id="red"
       style="display:inline;opacity:1;fill:#ff4b4b;fill-opacity:1;fill-rule:nonzero;stroke:none;stroke-width:6.00702;stroke-linecap:round;stroke-linejoin:round;stroke-miterlimit:4;stroke-dasharray:none;stroke-dashoffset:0;stroke-opacity:1" /><ellipse
       ry="20"
       rx="19.849623"
       cy="-60"
       cx="69.849625"
       id="yellow"
       style="display:inline;opacity:1;fill:#ffc800;fill-opacity:1;fill-rule:nonzero;stroke:none;stroke-width:6.00702;stroke-linecap:round;stroke-linejoin:round;stroke-miterlimit:4;stroke-dasharray:none;stroke-dashoffset:0;stroke-opacity:1" /><ellipse
       ry="20"
       rx="19.849623"
       cy="-110"
       cx="69.849625"
       id="orange"
       style="display:inline;opacity:1;fill:#ff9600;fill-opacity:1;fill-rule:nonzero;stroke:none;stroke-width:6.00702;stroke-linecap:round;stroke-linejoin:round;stroke-miterlimit:4;stroke-dasharray:none;stroke-dashoffset:0;stroke-opacity:1" /><ellipse
       ry="20"
       rx="19.849623"
       cy="-160"
       cx="69.849625"
       id="brown"
       style="display:inline;opacity:1;fill:#ffce8e;fill-opacity:1;fill-rule:nonzero;stroke:none;stroke-width:6.00702;stroke-linecap:round;stroke-linejoin:round;stroke-miterlimit:4;stroke-dasharray:none;stroke-dashoffset:0;stroke-opacity:1" /><ellipse
       ry="20"
       rx="19.849623"
       cy="-60"
       cx="119.84962"
       id="green"
       style="display:inline;opacity:1;fill:#78c800;fill-opacity:1;fill-rule:nonzero;stroke:none;stroke-width:6.00702;stroke-linecap:round;stroke-linejoin:round;stroke-miterlimit:4;stroke-dasharray:none;stroke-dashoffset:0;stroke-opacity:1" /></g><g
     id="g374"
     transform="matrix(0.2160471,0,0,0.25001975,3.9995311,3.9994104)"><rect
       width="324"
       height="216"
       fill="#ffff00"
       id="rect350"
       x="0"
       y="0"
       style="fill:#ffc800;fill-opacity:1" /><g
       fill="#0000ff"
       id="g358"><polygon
         points="162,216 252,216 72,0 162,0 "
         id="polygon352"
         style="fill:#1cb0f6;fill-opacity:1" /><polygon
         points="324,108 324,180 0,36 0,108 "
         id="polygon354"
         style="fill:#1cb0f6;fill-opacity:1" /><polygon
         points="252,0 324,0 324,36 0,180 0,216 72,216 "
         id="polygon356"
         style="fill:#1cb0f6;fill-opacity:1" /></g><path
       fill="#ff0000"
       d="m 197,66 v 42 c 0,26 -15,42 -35,42 -20,0 -35,-16 -35,-42 V 66 Z"
       id="path360"
       style="fill:#ff4b4b;fill-opacity:1" /></g><path
     style="fill:none;fill-rule:nonzero;stroke:#ffffff;stroke-width:4"
     d="M 61.436966,2 H 16.563038 C 11.628201,2 9.866819,2.584513 8.070258,3.545324 6.119529,4.588586 4.588585,6.119529 3.545324,8.070259 2.584513,9.86682 2,11.628202 2,16.563039 v 28.873923 c 0,4.934837 0.584513,6.696219 1.545324,8.49278 1.043261,1.950729 2.574205,3.481673 4.524934,4.524934 C 9.866819,59.415487 11.628201,60 16.563038,60 h 44.873928 c 4.93484,0 6.69622,-0.584513 8.49278,-1.545324 1.95073,-1.043261 3.48167,-2.574205 4.52493,-4.524934 0.96081,-1.796561 1.54533,-3.557943 1.54533,-8.49278 V 16.563039 c 0,-4.934837 -0.58452,-6.696219 -1.54533,-8.49278 -1.04326,-1.95073 -2.5742,-3.481673 -4.52493,-4.524935 C 68.133186,2.584513 66.371806,2 61.436966,2 Z"
     id="border" /></svg>
