<?xml version="1.0" encoding="utf-8"?>
<!-- Generator: Adobe Illustrator 24.0.0, SVG Export Plug-In . SVG Version: 6.00 Build 0)  -->
<svg version="1.1" id="svg2128" xmlns="http://www.w3.org/2000/svg" xmlns:xlink="http://www.w3.org/1999/xlink" x="0px" y="0px"
	 width="78.0000076px" height="62px" viewBox="0 0 78.0000076 62" style="enable-background:new 0 0 78.0000076 62;"
	 xml:space="preserve">
<style type="text/css">
	.st0{fill:none;stroke:#FFFFFF;stroke-width:4;}
	.st1{fill:#1CB0F6;stroke:#FFFFFF;stroke-width:4;}
	.st2{fill:#EEEEEE;}
	.st3{fill:#FFC800;}
	.st4{fill:#1CB0F6;}
	.st5{fill:#FF4B4B;}
</style>
<title  id="title2121">eo</title>
<path id="border" class="st0" d="M61.4369659,2H16.5630379c-4.9348373,0-6.6962185,0.5845129-8.4927797,1.5453241
	C6.1195288,4.5885859,4.5885849,6.1195288,3.5453241,8.0702591C2.5845129,9.8668203,2,11.6282024,2,16.5630379v28.8739204
	c0,4.9348412,0.5845129,6.6962204,1.5453238,8.4927788c1.0432611,1.9507294,2.5742049,3.481678,4.5249333,4.5249405
	c1.7965612,0.9608116,3.5579433,1.5453186,8.4927807,1.5453186h44.8739281c4.9348373,0,6.6962204-0.5845108,8.4927826-1.5453186
	c1.9507294-1.0432587,3.4816666-2.5742111,4.5249329-4.5249405c0.9608078-1.7965584,1.5453339-3.5579414,1.5453339-8.4927788
	V16.5630379c0-4.9348354-0.5845184-6.6962185-1.5453339-8.4927788c-1.0432587-1.9507298-2.5742035-3.4816732-4.5249329-4.5249348
	C68.1331863,2.5845129,66.3718033,2,61.4369659,2z"/>
<g id="cs_3_">
	<g id="g3174_3_" transform="translate(6.000000, 6.000000)">
		<path id="path3168_3_" class="st1" d="M55.3499947-3.9499969H10.5500069c-4.8999939,0-6.6999969,0.6000061-8.5,1.5
			c-2,1-3.5,2.6000061-4.5,4.5c-1,1.7999878-1.5,3.6000061-1.5,8.5v28.8999939c0,4.8999939,0.6000061,6.7000122,1.5,8.5
			c1,2,2.6000061,3.5,4.5,4.5c1.8000031,1,3.6000061,1.5,8.5,1.5h44.8999939c4.8999939,0,6.7000122-0.6000061,8.5-1.5
			c1.9999962-1,3.4999962-2.6000061,4.4999962-4.5c1-1.7999878,1.5-3.6000061,1.5-8.5V10.5500031
			c0-4.8999939-0.6000061-6.7000122-1.5-8.5c-1-2-2.6000061-3.5-4.4999962-4.5
			C62.0500069-3.3499908,60.3499947-3.9499969,55.3499947-3.9499969z"/>
		<path id="path3172_5_" class="st2" d="M1.1549437,49.4682045c-0.8000031-0.7000122-1.3999939-1.5-2-2.5
			c-0.8999939-1.6000061-1.3000031-3.2000122-1.3000031-7.5V10.5682106c0-4.3999944,0.5-6.0000005,1.3000031-7.5
			c0.5-1,1.1999969-1.7999879,2-2.5l34.7000122,24.3999939L1.1549437,49.4682045L1.1549437,49.4682045z"/>
	</g>
</g>
<path class="st3" d="M18.138298,21.2484722c-5.3855591,0-9.7515249,4.3658867-9.7515249,9.7515259
	s4.3659658,9.751524,9.7515249,9.751524c5.3856392,0,9.751524-4.3658867,9.751524-9.751524
	S23.5239372,21.2484722,18.138298,21.2484722z M18.138298,36.850914c-3.2313042,0-5.850915-2.6195335-5.850915-5.8509159
	s2.6196108-5.8509159,5.850915-5.8509159c3.2313824,0,5.850914,2.6195335,5.850914,5.8509159
	S21.3696804,36.850914,18.138298,36.850914z"/>
<path class="st2" d="M12.6456051,29.0496922H23.630991c-0.8059616-2.2672596-2.9488697-3.90061-5.4926929-3.90061
	S13.4515667,26.7824326,12.6456051,29.0496922z"/>
<path class="st4" d="M12.2873831,30.9999981c0,0.6875591,0.1403847,1.3375034,0.358222,1.950304H23.630991
	c0.2178383-0.6128006,0.3582211-1.2627449,0.3582211-1.950304s-0.1403828-1.3375015-0.3582211-1.9503059H12.6456051
	C12.4277678,29.6624966,12.2873831,30.312439,12.2873831,30.9999981z"/>
<path class="st5" d="M23.630991,32.9503021H12.6456051c0.8059616,2.2672615,2.9488688,3.9006119,5.4926929,3.9006119
	S22.8250294,35.2175636,23.630991,32.9503021z"/>
</svg>
