<?xml version="1.0" encoding="UTF-8" standalone="no"?>
<svg
   height="62"
   width="78"
   version="1.1"
   id="svg2227"
   xmlns="http://www.w3.org/2000/svg">
  <g
     id="uz">
    <path
       style="fill:#ffffff;fill-opacity:1;fill-rule:nonzero;stroke:#ffffff;stroke-width:4"
       id="path183"
       d="M 61.436962,2 H 16.563038 C 11.628201,2 9.8668192,2.5845126 8.0702583,3.5453239 6.119529,4.5885853 4.5885853,6.119529 3.5453239,8.0702583 2.5845126,9.8668192 2,11.628201 2,16.563038 v 28.873924 c 0,4.934837 0.5845126,6.696219 1.5453239,8.49278 1.0432614,1.950729 2.5742051,3.481673 4.5249344,4.524934 C 9.8668192,59.415487 11.628201,60 16.563038,60 h 44.873924 c 4.934837,0 6.696219,-0.584513 8.49278,-1.545324 1.950729,-1.043261 3.481673,-2.574205 4.524934,-4.524934 C 75.415487,52.133181 76,50.371799 76,45.436962 V 16.563038 C 76,11.628201 75.415487,9.8668192 74.454676,8.0702583 73.411415,6.119529 71.880471,4.5885853 69.929742,3.5453239 68.133181,2.5845126 66.371799,2 61.436962,2 Z" />
    <path
       style="fill:#78c800;fill-opacity:1;fill-rule:nonzero;stroke:none;stroke-width:1"
       id="path185"
       d="m 74,40 v 5.436962 c 0,4.368442 -0.454846,5.952545 -1.30895,7.549582 -0.854105,1.597037 -2.107469,2.850401 -3.704506,3.704506 C 67.389507,57.545155 65.805404,58 61.436962,58 H 16.563038 C 12.194596,58 10.610493,57.545155 9.013456,56.69105 7.416419,55.836945 6.163055,54.583581 5.3089503,52.986544 4.4548455,51.389507 4,49.805404 4,45.436962 V 40 Z" />
    <path
       style="fill:#1cb0f6;fill-opacity:1;fill-rule:nonzero;stroke:none;stroke-width:1"
       id="path187"
       d="m 16.563038,4 h 44.873924 c 4.368442,0 5.952545,0.4548455 7.549582,1.3089503 C 70.583581,6.163055 71.836945,7.416419 72.69105,9.013456 73.545154,10.610493 74,12.194596 74,16.563038 V 22 H 4 V 16.563038 C 4,12.194596 4.4548455,10.610493 5.3089503,9.013456 6.163055,7.416419 7.416419,6.163055 9.013456,5.3089503 10.610493,4.4548455 12.194596,4 16.563038,4 Z" />
    <rect
       style="fill:#ff4b4b;fill-opacity:1;fill-rule:nonzero;stroke:none;stroke-width:1.33849;stroke-linejoin:round;stroke-miterlimit:4;stroke-dasharray:none;stroke-dashoffset:17.5748;stroke-opacity:1"
       id="rect5093"
       width="70"
       height="2.3474576"
       x="4"
       y="19.652542" />
    <rect
       style="fill:#ff4b4b;fill-opacity:1;fill-rule:nonzero;stroke:none;stroke-width:1.33849;stroke-linejoin:round;stroke-miterlimit:4;stroke-dasharray:none;stroke-dashoffset:17.5748;stroke-opacity:1"
       id="rect5093-5"
       width="70"
       height="2.3474576"
       x="4.0000038"
       y="40" />
    <path
       style="fill:#ffffff;fill-rule:nonzero;stroke-width:0.321638"
       d="M 20.128261,8.300984 C 19.846967,8.229334 19.5991,8.193515 19.38466,8.193515 c -2.131631,0 -3.859658,1.728027 -3.859658,3.859658 0,2.131629 1.728027,3.859658 3.859658,3.859658 0.214433,0 0.46229,-0.03582 0.743573,-0.107462 l -5e-6,-1.6e-5 c 0.17215,-0.04385 0.347247,0.06016 0.391093,0.232314 0.03295,0.129359 -0.01743,0.265626 -0.126601,0.342445 -0.776202,0.54618 -1.755498,0.819271 -2.937889,0.819271 -2.842174,0 -5.146211,-2.304037 -5.146211,-5.14621 0,-2.842174 2.304037,-5.146211 5.146211,-5.146211 1.182404,0 2.161708,0.273096 2.937914,0.819288 l 2e-6,-3e-6 c 0.145276,0.102227 0.180175,0.302867 0.07795,0.448143 -0.07682,0.109167 -0.213079,0.159542 -0.342435,0.126594 z"
       id="path173" />
    <path
       style="fill:#ffffff;fill-rule:nonzero;stroke-width:0.321638"
       d="m 25.515119,16.223565 -0.541729,0.504154 c -0.181197,0.168629 -0.464787,0.158441 -0.633416,-0.02276 -0.06738,-0.0724 -0.108917,-0.165054 -0.118142,-0.263525 l -0.07042,-0.751691 c -0.0098,-0.10473 -0.07022,-0.198044 -0.161746,-0.249878 l -0.651529,-0.36895 c -0.217159,-0.122973 -0.293511,-0.398706 -0.170538,-0.615864 0.04853,-0.08571 0.12374,-0.153207 0.214174,-0.192229 l 0.678967,-0.292978 c 0.09743,-0.04205 0.167858,-0.129438 0.188227,-0.233581 l 0.143159,-0.731972 c 0.04747,-0.242703 0.282699,-0.400973 0.525403,-0.353505 0.0977,0.01911 0.186253,0.07024 0.251655,0.145293 l 0.489965,0.562327 c 0.06971,0.08001 0.174399,0.12048 0.2798,0.108174 l 0.734493,-0.08575 c 0.247876,-0.02894 0.472281,0.14854 0.501223,0.396418 0.01142,0.09783 -0.0094,0.196709 -0.05939,0.281593 l -0.379766,0.645283 c -0.05335,0.09065 -0.05901,0.201668 -0.01514,0.297272 l 0.31486,0.686195 c 0.103228,0.224972 0.0045,0.491029 -0.220437,0.594258 -0.08989,0.04124 -0.190905,0.05159 -0.28729,0.02945 l -0.721228,-0.165741 c -0.103986,-0.0239 -0.213053,0.0053 -0.291159,0.07801 z"
       id="Star-2" />
    <path
       style="fill:#ffffff;fill-rule:nonzero;stroke-width:0.321638"
       d="m 31.592174,16.311097 -0.541729,0.504154 c -0.181197,0.168629 -0.464787,0.158441 -0.633416,-0.02276 -0.06738,-0.0724 -0.108917,-0.165054 -0.118142,-0.263525 l -0.07042,-0.751691 c -0.0098,-0.10473 -0.07022,-0.198044 -0.161746,-0.249878 l -0.651529,-0.36895 c -0.217159,-0.122973 -0.293511,-0.398706 -0.170538,-0.615864 0.04853,-0.08571 0.12374,-0.153207 0.214174,-0.192229 l 0.678967,-0.292978 c 0.09743,-0.04205 0.167858,-0.129438 0.188227,-0.233581 l 0.143159,-0.731972 c 0.04747,-0.242703 0.282699,-0.400973 0.525402,-0.353505 0.0977,0.01911 0.186254,0.07024 0.251656,0.145293 l 0.489965,0.562327 c 0.06971,0.08001 0.174399,0.12048 0.279799,0.108174 l 0.734493,-0.08575 c 0.247877,-0.02894 0.472282,0.14854 0.501224,0.396418 0.01142,0.09783 -0.0094,0.196709 -0.05939,0.281593 l -0.379766,0.645283 c -0.05335,0.09065 -0.05901,0.201668 -0.01514,0.297272 l 0.31486,0.686195 c 0.103227,0.224972 0.0045,0.491029 -0.220437,0.594258 -0.08989,0.04124 -0.190905,0.05159 -0.287291,0.02945 L 31.883328,16.23309 c -0.103985,-0.0239 -0.213052,0.0053 -0.291158,0.07801 z"
       id="Star-2-6" />
  </g>
</svg>
