<?xml version="1.0" encoding="utf-8"?>
<!-- Generator: Adobe Illustrator 28.1.0, SVG Export Plug-In . SVG Version: 6.00 Build 0)  -->
<svg version="1.1"
	 id="svg3624" xmlns:svg="http://www.w3.org/2000/svg" xmlns:inkscape="http://www.inkscape.org/namespaces/inkscape" xmlns:sodipodi="http://sodipodi.sourceforge.net/DTD/sodipodi-0.dtd"
	 xmlns="http://www.w3.org/2000/svg" xmlns:xlink="http://www.w3.org/1999/xlink" x="0px" y="0px" width="82px" height="66px"
	 viewBox="0 0 82 66" style="enable-background:new 0 0 82 66;" xml:space="preserve">
<style type="text/css">
	.st0{fill:#EEEEEE;stroke:#FFFFFF;stroke-width:4;}
	.st1{fill:#FF4B4B;}
</style>
<sodipodi:namedview  bordercolor="#666666" borderopacity="1.0" id="namedview3628" inkscape:current-layer="svg3626" inkscape:cx="232.28458" inkscape:cy="1646.1446" inkscape:pagecheckerboard="0" inkscape:pageopacity="0.0" inkscape:pageshadow="2" inkscape:window-height="699" inkscape:window-maximized="1" inkscape:window-width="1366" inkscape:window-x="0" inkscape:window-y="0" inkscape:zoom="1.4142136" pagecolor="#ffffff" showgrid="false">
	</sodipodi:namedview>
<g id="sv">
	<g id="Group-10" transform="translate(6.000000, 6.000000)">
		<path id="path2929" class="st0" d="M57.4-2H12.6C7.6-2,5.9-1.4,4.1-0.5c-2,1-3.5,2.6-4.5,4.5C-1.4,5.9-2,7.6-2,12.6v28.9
			c0,4.9,0.6,6.7,1.5,8.5c1,2,2.6,3.5,4.5,4.5c1.8,1,3.6,1.5,8.5,1.5h44.9c4.9,0,6.7-0.6,8.5-1.5c2-1,3.5-2.6,4.5-4.5
			c1-1.8,1.5-3.6,1.5-8.5V12.6c0-4.9-0.6-6.7-1.5-8.5c-1-2-2.6-3.5-4.5-4.5C64.1-1.4,62.4-2,57.4-2z"/>
		<path id="Combined-Shape" class="st1" d="M40,0v22l30,0v10l-30,0v22H30V32L0,32V22l30,0V0H40z"/>
	</g>
</g>
<path class="st1" d="M22.7,24h-1.4c-0.7,0-1.3-0.6-1.3-1.3V20h-2.7c-0.7,0-1.3-0.6-1.3-1.3v-1.4c0-0.7,0.6-1.3,1.3-1.3H20v-2.7
	c0-0.7,0.6-1.3,1.3-1.3h1.4c0.7,0,1.3,0.6,1.3,1.3V16h2.7c0.7,0,1.3,0.6,1.3,1.3v1.4c0,0.7-0.6,1.3-1.3,1.3H24v2.7
	C24,23.4,23.4,24,22.7,24z"/>
<path class="st1" d="M60.7,24h-1.4c-0.7,0-1.3-0.6-1.3-1.3V20h-2.7c-0.7,0-1.3-0.6-1.3-1.3v-1.4c0-0.7,0.6-1.3,1.3-1.3H58v-2.7
	c0-0.7,0.6-1.3,1.3-1.3h1.4c0.7,0,1.3,0.6,1.3,1.3V16h2.7c0.7,0,1.3,0.6,1.3,1.3v1.4c0,0.7-0.6,1.3-1.3,1.3H62v2.7
	C62,23.4,61.4,24,60.7,24z"/>
<path class="st1" d="M60.7,54h-1.4c-0.7,0-1.3-0.6-1.3-1.3V50h-2.7c-0.7,0-1.3-0.6-1.3-1.3v-1.4c0-0.7,0.6-1.3,1.3-1.3H58v-2.7
	c0-0.7,0.6-1.3,1.3-1.3h1.4c0.7,0,1.3,0.6,1.3,1.3V46h2.7c0.7,0,1.3,0.6,1.3,1.3v1.4c0,0.7-0.6,1.3-1.3,1.3H62v2.7
	C62,53.4,61.4,54,60.7,54z"/>
<path class="st1" d="M22.7,54h-1.4c-0.7,0-1.3-0.6-1.3-1.3V50h-2.7c-0.7,0-1.3-0.6-1.3-1.3v-1.4c0-0.7,0.6-1.3,1.3-1.3H20v-2.7
	c0-0.7,0.6-1.3,1.3-1.3h1.4c0.7,0,1.3,0.6,1.3,1.3V46h2.7c0.7,0,1.3,0.6,1.3,1.3v1.4c0,0.7-0.6,1.3-1.3,1.3H24v2.7
	C24,53.4,23.4,54,22.7,54z"/>
</svg>
