<svg width="78" height="62" viewBox="0 0 78 62" xmlns="http://www.w3.org/2000/svg">
  <g style="display:inline;fill:#7ac70c;fill-opacity:1">
    <path d="M45.293-17.885H-2.905c-5.3 0-7.193.628-9.122 1.66a11.683 11.683 0 0 0-4.86 4.86c-1.032 1.93-1.66 3.821-1.66 9.122V28.77c0 5.3.628 7.192 1.66 9.121a11.683 11.683 0 0 0 4.86 4.86c1.93 1.033 3.821 1.66 9.122 1.66h48.198c5.3 0 7.192-.627 9.121-1.66a11.682 11.682 0 0 0 4.86-4.86c1.032-1.93 1.66-3.821 1.66-9.121V-2.243c0-5.3-.628-7.192-1.66-9.122a11.683 11.683 0 0 0-4.86-4.86c-1.93-1.032-3.821-1.66-9.121-1.66z" style="fill:#ffc300;stroke:#fff;stroke-width:4.2963;stroke-opacity:1" transform="translate(19.268 18.651) scale(.93103)"/>
    <path style="fill:#9069cd;stroke-width:1.07407" d="M-6.732-15.737A9.646 9.646 0 0 0-16.4-6.07v38.667a9.646 9.646 0 0 0 9.667 9.666h27.927v-58h-9.667z" transform="translate(19.268 18.651) scale(.93103)"/>
  </g>
</svg>

