<?xml version="1.0" encoding="UTF-8" standalone="no"?>
<!-- Created with Inkscape (http://www.inkscape.org/) -->

<svg
   width="78mm"
   height="62.000011mm"
   viewBox="0 0 78 62.000011"
   version="1.1"
   id="svg5"
   inkscape:version="1.1.2 (0a00cf5339, 2022-02-04)"
   sodipodi:docname="Mirandese_flag.svg"
   xmlns:inkscape="http://www.inkscape.org/namespaces/inkscape"
   xmlns:sodipodi="http://sodipodi.sourceforge.net/DTD/sodipodi-0.dtd"
   xmlns="http://www.w3.org/2000/svg"
   xmlns:svg="http://www.w3.org/2000/svg">
  <sodipodi:namedview
     id="namedview7"
     pagecolor="#ffffff"
     bordercolor="#666666"
     borderopacity="1.0"
     inkscape:pageshadow="2"
     inkscape:pageopacity="0.0"
     inkscape:pagecheckerboard="0"
     inkscape:document-units="mm"
     showgrid="false"
     inkscape:zoom="1.28"
     inkscape:cx="104.29688"
     inkscape:cy="140.625"
     inkscape:window-width="1366"
     inkscape:window-height="699"
     inkscape:window-x="0"
     inkscape:window-y="0"
     inkscape:window-maximized="1"
     inkscape:current-layer="layer1"
     fit-margin-top="0"
     fit-margin-left="0"
     fit-margin-right="0"
     fit-margin-bottom="0" />
  <defs
     id="defs2">
    <path
       d="m 12.563038,0 44.873924,0 c 4.368442,0 5.952545,0.45484549 7.549582,1.3089503 C 66.583581,2.163055 67.836945,3.416419 68.69105,5.013456 69.545154,6.6104931 70,8.1945956 70,12.563038 v 28.873924 c 0,4.368442 -0.454846,5.952545 -1.30895,7.549582 -0.854105,1.597037 -2.107469,2.850401 -3.704506,3.704506 C 63.389507,53.545155 61.805404,54 57.436962,54 H 12.563038 C 8.1945956,54 6.6104931,53.545155 5.013456,52.69105 3.416419,51.836945 2.163055,50.583581 1.3089503,48.986544 0.45484549,47.389507 0,45.805404 0,41.436962 L 0,12.563038 C 0,8.1945956 0.45484549,6.6104931 1.3089503,5.013456 2.163055,3.416419 3.416419,2.163055 5.013456,1.3089503 6.6104931,0.45484549 8.1945956,0 12.563038,0 Z"
       id="path-1" />
    <linearGradient
       id="linearGradient2708"
       inkscape:swatch="solid">
      <stop
         style="stop-color:#ffffff;stop-opacity:1;"
         offset="0"
         id="stop2706" />
    </linearGradient>
    <path
       d="m 12.563038,0 h 44.873924 c 4.368442,0 5.952545,0.45484549 7.549582,1.3089503 C 66.583581,2.163055 67.836945,3.416419 68.69105,5.013456 69.545154,6.6104931 70,8.1945956 70,12.563038 v 28.873924 c 0,4.368442 -0.454846,5.952545 -1.30895,7.549582 -0.854105,1.597037 -2.107469,2.850401 -3.704506,3.704506 C 63.389507,53.545155 61.805404,54 57.436962,54 H 12.563038 C 8.1945956,54 6.6104931,53.545155 5.013456,52.69105 3.416419,51.836945 2.163055,50.583581 1.3089503,48.986544 0.45484549,47.389507 0,45.805404 0,41.436962 V 12.563038 C 0,8.1945956 0.45484549,6.6104931 1.3089503,5.013456 2.163055,3.416419 3.416419,2.163055 5.013456,1.3089503 6.6104931,0.45484549 8.1945956,0 12.563038,0 Z"
       id="path-1-3" />
    <path
       d="m 12.563038,0 h 44.873924 c 4.368442,0 5.952545,0.45484549 7.549582,1.3089503 C 66.583581,2.163055 67.836945,3.416419 68.69105,5.013456 69.545154,6.6104931 70,8.1945956 70,12.563038 v 28.873924 c 0,4.368442 -0.454846,5.952545 -1.30895,7.549582 -0.854105,1.597037 -2.107469,2.850401 -3.704506,3.704506 C 63.389507,53.545155 61.805404,54 57.436962,54 H 12.563038 C 8.1945956,54 6.6104931,53.545155 5.013456,52.69105 3.416419,51.836945 2.163055,50.583581 1.3089503,48.986544 0.45484549,47.389507 0,45.805404 0,41.436962 V 12.563038 C 0,8.1945956 0.45484549,6.6104931 1.3089503,5.013456 2.163055,3.416419 3.416419,2.163055 5.013456,1.3089503 6.6104931,0.45484549 8.1945956,0 12.563038,0 Z"
       id="path-1-1" />
    <filter
       id="filter0_d_191_434"
       x="15.9126"
       y="4.875"
       width="46.174801"
       height="41.450199"
       filterUnits="userSpaceOnUse"
       color-interpolation-filters="sRGB">
      <feFlood
         flood-opacity="0"
         result="BackgroundImageFix"
         id="feFlood987" />
      <feColorMatrix
         in="SourceAlpha"
         type="matrix"
         values="0 0 0 0 0 0 0 0 0 0 0 0 0 0 0 0 0 0 127 0"
         result="hardAlpha"
         id="feColorMatrix989" />
      <feOffset
         id="feOffset991" />
      <feGaussianBlur
         stdDeviation="8"
         id="feGaussianBlur993" />
      <feComposite
         in2="hardAlpha"
         operator="out"
         id="feComposite995" />
      <feColorMatrix
         type="matrix"
         values="0 0 0 0 0 0 0 0 0 0 0 0 0 0 0 0 0 0 0.25 0"
         id="feColorMatrix997" />
      <feBlend
         mode="normal"
         in2="BackgroundImageFix"
         result="effect1_dropShadow_191_434"
         id="feBlend999" />
      <feBlend
         mode="normal"
         in="SourceGraphic"
         in2="effect1_dropShadow_191_434"
         result="shape"
         id="feBlend1001" />
    </filter>
    <filter
       id="filter1_d_191_434"
       x="12.9126"
       y="15.3252"
       width="52.174801"
       height="47.450199"
       filterUnits="userSpaceOnUse"
       color-interpolation-filters="sRGB">
      <feFlood
         flood-opacity="0"
         result="BackgroundImageFix"
         id="feFlood1004" />
      <feColorMatrix
         in="SourceAlpha"
         type="matrix"
         values="0 0 0 0 0 0 0 0 0 0 0 0 0 0 0 0 0 0 127 0"
         result="hardAlpha"
         id="feColorMatrix1006" />
      <feOffset
         dy="4"
         id="feOffset1008" />
      <feGaussianBlur
         stdDeviation="9.5"
         id="feGaussianBlur1010" />
      <feComposite
         in2="hardAlpha"
         operator="out"
         id="feComposite1012" />
      <feColorMatrix
         type="matrix"
         values="0 0 0 0 0 0 0 0 0 0 0 0 0 0 0 0 0 0 0.25 0"
         id="feColorMatrix1014" />
      <feBlend
         mode="normal"
         in2="BackgroundImageFix"
         result="effect1_dropShadow_191_434"
         id="feBlend1016" />
      <feBlend
         mode="normal"
         in="SourceGraphic"
         in2="effect1_dropShadow_191_434"
         result="shape"
         id="feBlend1018" />
    </filter>
    <filter
       id="filter2_d_191_434"
       x="21.9126"
       y="1.75"
       width="36.174801"
       height="29.424801"
       filterUnits="userSpaceOnUse"
       color-interpolation-filters="sRGB">
      <feFlood
         flood-opacity="0"
         result="BackgroundImageFix"
         id="feFlood1021" />
      <feColorMatrix
         in="SourceAlpha"
         type="matrix"
         values="0 0 0 0 0 0 0 0 0 0 0 0 0 0 0 0 0 0 127 0"
         result="hardAlpha"
         id="feColorMatrix1023" />
      <feOffset
         dx="1"
         dy="2"
         id="feOffset1025" />
      <feGaussianBlur
         stdDeviation="5.5"
         id="feGaussianBlur1027" />
      <feComposite
         in2="hardAlpha"
         operator="out"
         id="feComposite1029" />
      <feColorMatrix
         type="matrix"
         values="0 0 0 0 0 0 0 0 0 0 0 0 0 0 0 0 0 0 0.25 0"
         id="feColorMatrix1031" />
      <feBlend
         mode="normal"
         in2="BackgroundImageFix"
         result="effect1_dropShadow_191_434"
         id="feBlend1033" />
      <feBlend
         mode="normal"
         in="SourceGraphic"
         in2="effect1_dropShadow_191_434"
         result="shape"
         id="feBlend1035" />
    </filter>
    <filter
       id="filter3_d_191_434"
       x="-13.1343"
       y="-10.3877"
       width="111.109"
       height="109.627"
       filterUnits="userSpaceOnUse"
       color-interpolation-filters="sRGB">
      <feFlood
         flood-opacity="0"
         result="BackgroundImageFix"
         id="feFlood1038" />
      <feColorMatrix
         in="SourceAlpha"
         type="matrix"
         values="0 0 0 0 0 0 0 0 0 0 0 0 0 0 0 0 0 0 127 0"
         result="hardAlpha"
         id="feColorMatrix1040" />
      <feOffset
         dy="4"
         id="feOffset1042" />
      <feGaussianBlur
         stdDeviation="21"
         id="feGaussianBlur1044" />
      <feComposite
         in2="hardAlpha"
         operator="out"
         id="feComposite1046" />
      <feColorMatrix
         type="matrix"
         values="0 0 0 0 0 0 0 0 0 0 0 0 0 0 0 0 0 0 0.25 0"
         id="feColorMatrix1048" />
      <feBlend
         mode="normal"
         in2="BackgroundImageFix"
         result="effect1_dropShadow_191_434"
         id="feBlend1050" />
      <feBlend
         mode="normal"
         in="SourceGraphic"
         in2="effect1_dropShadow_191_434"
         result="shape"
         id="feBlend1052" />
    </filter>
    <filter
       id="filter4_d_191_434"
       x="0.86572301"
       y="3.6122999"
       width="83.109398"
       height="81.626999"
       filterUnits="userSpaceOnUse"
       color-interpolation-filters="sRGB">
      <feFlood
         flood-opacity="0"
         result="BackgroundImageFix"
         id="feFlood1055" />
      <feColorMatrix
         in="SourceAlpha"
         type="matrix"
         values="0 0 0 0 0 0 0 0 0 0 0 0 0 0 0 0 0 0 127 0"
         result="hardAlpha"
         id="feColorMatrix1057" />
      <feOffset
         dy="4"
         id="feOffset1059" />
      <feGaussianBlur
         stdDeviation="14"
         id="feGaussianBlur1061" />
      <feComposite
         in2="hardAlpha"
         operator="out"
         id="feComposite1063" />
      <feColorMatrix
         type="matrix"
         values="0 0 0 0 0 0 0 0 0 0 0 0 0 0 0 0 0 0 0.25 0"
         id="feColorMatrix1065" />
      <feBlend
         mode="normal"
         in2="BackgroundImageFix"
         result="effect1_dropShadow_191_434"
         id="feBlend1067" />
      <feBlend
         mode="normal"
         in="SourceGraphic"
         in2="effect1_dropShadow_191_434"
         result="shape"
         id="feBlend1069" />
    </filter>
    <clipPath
       id="clip0_191_434">
      <rect
         width="78"
         height="62"
         fill="#ffffff"
         id="rect1072"
         x="0"
         y="0" />
    </clipPath>
    <path
       d="m 12.563038,0 44.873924,0 c 4.368442,0 5.952545,0.45484549 7.549582,1.3089503 C 66.583581,2.163055 67.836945,3.416419 68.69105,5.013456 69.545154,6.6104931 70,8.1945956 70,12.563038 v 28.873924 c 0,4.368442 -0.454846,5.952545 -1.30895,7.549582 -0.854105,1.597037 -2.107469,2.850401 -3.704506,3.704506 C 63.389507,53.545155 61.805404,54 57.436962,54 H 12.563038 C 8.1945956,54 6.6104931,53.545155 5.013456,52.69105 3.416419,51.836945 2.163055,50.583581 1.3089503,48.986544 0.45484549,47.389507 0,45.805404 0,41.436962 L 0,12.563038 C 0,8.1945956 0.45484549,6.6104931 1.3089503,5.013456 2.163055,3.416419 3.416419,2.163055 5.013456,1.3089503 6.6104931,0.45484549 8.1945956,0 12.563038,0 Z"
       id="path-1-2" />
  </defs>
  <g
     inkscape:label="Layer 1"
     inkscape:groupmode="layer"
     id="layer1"
     transform="translate(-116.05047,-108.04289)">
    <g
       inkscape:label="Layer 1"
       id="layer1-6"
       transform="translate(1.75568,70.30247)" />
    <g
       id="layer3"
       inkscape:label="Layer 3"
       transform="translate(1.75568,70.30247)" />
    <g
       id="layer4"
       inkscape:label="Layer 4"
       transform="translate(1.75568,70.30247)" />
    <g
       id="layer2"
       inkscape:label="Layer 2"
       transform="translate(1.75568,70.30247)" />
    <path
       d="m 177.48743,110.04289 h -44.87392 c -4.93484,0 -6.69622,0.58451 -8.49278,1.54532 -1.95073,1.04327 -3.48167,2.57421 -4.52494,4.52494 -0.96081,1.79657 -1.54532,3.55795 -1.54532,8.49279 v 28.87392 c 0,4.93484 0.58451,6.69622 1.54532,8.49278 1.04327,1.95073 2.57421,3.48167 4.52494,4.52494 1.79656,0.96081 3.55794,1.54532 8.49278,1.54532 h 44.87392 c 4.93484,0 6.69622,-0.58451 8.49278,-1.54532 1.95073,-1.04327 3.48167,-2.57421 4.52494,-4.52494 0.96081,-1.79656 1.54532,-3.55794 1.54532,-8.49278 v -28.87392 c 0,-4.93484 -0.58451,-6.69622 -1.54532,-8.49279 -1.04327,-1.95073 -2.57421,-3.48167 -4.52494,-4.52494 -1.79656,-0.96081 -3.55794,-1.54532 -8.49278,-1.54532 z"
       id="path1816"
       stroke="#ffffff"
       stroke-width="4"
       fill="#eeeeee"
       style="fill:#eeeee8;fill-opacity:1;fill-rule:evenodd" />
    <g
       id="g906"
       style="fill:#ff4b4b;fill-opacity:1">
      <path
         d="m 187.26539,163.06384 c 0,0 -0.0936,0.37563 -2.15355,1.65032 -1.47143,0.7558 -2.82012,1.32918 -6.81014,1.32918 h -23.33497 l 9.8e-4,-27.01487 z"
         id="path6349"
         fill="#ffc800"
         style="fill:#ff4b4b;fill-opacity:1;fill-rule:nonzero;stroke:none;stroke-width:0.913372"
         sodipodi:nodetypes="ccsccc" />
      <path
         d="m 122.74603,115.10416 c 0,0 0.0176,-0.34639 2.07755,-1.62108 1.47143,-0.7558 2.82012,-1.4695 6.81014,-1.4695 h 23.33497 l -9.8e-4,27.01487 z"
         id="path9428"
         fill="#ffc800"
         style="fill:#ff4b4b;fill-opacity:1;fill-rule:nonzero;stroke:none;stroke-width:0.913372"
         sodipodi:nodetypes="ccsccc" />
      <path
         d="m 123.69033,163.83382 c -0.005,-8.8e-4 -0.57094,-0.24404 -1.78891,-1.91583 -0.85653,-1.22783 -1.87856,-3.19555 -1.87856,-7.60605 v -15.28432 l 34.94483,8.2e-4 z"
         id="path10761"
         fill="#ffc800"
         style="fill:#ff4b4b;fill-opacity:1;fill-rule:nonzero;stroke:none;stroke-width:0.913379"
         sodipodi:nodetypes="ccsccc" />
      <path
         d="m 186.24507,114.22309 c 0.005,8.8e-4 0.57094,0.24404 1.78891,1.91583 0.85653,1.22783 1.87856,3.19555 1.87856,7.60605 v 15.28432 l -34.94483,-8.2e-4 z"
         id="path13106"
         fill="#ffc800"
         style="fill:#ff4b4b;fill-opacity:1;fill-rule:nonzero;stroke:none;stroke-width:0.913379"
         sodipodi:nodetypes="ccsccc" />
    </g>
    <path
       d="m 150.09823,129.68708 h 9.90447 c 1.17216,0 2.12238,0.95022 2.12238,2.12238 v 9.51464 c 0,3.9072 -3.16742,7.07461 -7.07462,7.07461 -3.9072,0 -7.07461,-3.16741 -7.07461,-7.07461 v -9.51464 c 0,-1.17216 0.95022,-2.12238 2.12238,-2.12238 z"
       id="Rectangle-15"
       fill="#ff4b4b"
       style="fill:#ffc800;fill-opacity:1;fill-rule:evenodd;stroke:none;stroke-width:1.21279" />
    <g
       id="g2146"
       transform="translate(0,0.25525538)">
      <rect
         style="opacity:0.98;fill:#ff4b4b;fill-opacity:1;stroke:none;stroke-width:12.7987;stroke-linecap:round;stroke-linejoin:round;stroke-opacity:1;paint-order:stroke fill markers"
         id="rect1263"
         width="5.7423573"
         height="11.484715"
         x="152.17929"
         y="133.02979"
         rx="2.8711786"
         ry="2.8711786" />
      <rect
         style="opacity:0.98;fill:#ff4b4b;fill-opacity:1;stroke:none;stroke-width:12.7987;stroke-linecap:round;stroke-linejoin:round;stroke-opacity:1;paint-order:stroke fill markers"
         id="rect1944"
         width="6.0750198"
         height="8.3064079"
         x="138.47047"
         y="-159.20367"
         rx="2.8584604"
         ry="2.8711786"
         transform="rotate(90)" />
    </g>
  </g>
</svg>
