<?xml version="1.0" encoding="utf-8"?>
<!-- Generator: Adobe Illustrator 28.1.0, SVG Export Plug-In . SVG Version: 6.00 Build 0)  -->
<svg version="1.1"
	 id="svg3624" xmlns:svg="http://www.w3.org/2000/svg" xmlns:sodipodi="http://sodipodi.sourceforge.net/DTD/sodipodi-0.dtd" xmlns:inkscape="http://www.inkscape.org/namespaces/inkscape"
	 xmlns="http://www.w3.org/2000/svg" xmlns:xlink="http://www.w3.org/1999/xlink" x="0px" y="0px" width="82px" height="65.9px"
	 viewBox="0 0 82 65.9" style="enable-background:new 0 0 82 65.9;" xml:space="preserve">
<style type="text/css">
	.st0{fill:#FFC800;stroke:#FFFFFF;stroke-width:4;}
	.st1{fill:#1CB0F6;}
	.st2{fill:none;stroke:#FF4B4B;stroke-width:3;stroke-linecap:round;stroke-linejoin:round;stroke-miterlimit:10;}
	.st3{fill:none;stroke:#FFC800;stroke-width:3;stroke-linecap:round;stroke-linejoin:round;stroke-miterlimit:10;}
	.st4{fill:none;stroke:#1CB0F6;stroke-width:3;stroke-linecap:round;stroke-linejoin:bevel;stroke-miterlimit:10;}
</style>
<sodipodi:namedview  bordercolor="#666666" borderopacity="1.0" id="namedview3628" inkscape:current-layer="svg3626" inkscape:cx="232.28458" inkscape:cy="1646.1446" inkscape:pagecheckerboard="0" inkscape:pageopacity="0.0" inkscape:pageshadow="2" inkscape:window-height="699" inkscape:window-maximized="1" inkscape:window-width="1366" inkscape:window-x="0" inkscape:window-y="0" inkscape:zoom="1.4142136" pagecolor="#ffffff" showgrid="false">
	</sodipodi:namedview>
<g id="ru">
	<g id="g2884" transform="translate(6.000000, 6.000000)">
		<path id="path2878" class="st0" d="M56.4-3H11.6C6.6-3,4.9-2.4,3.1-1.5c-2,1-3.5,2.6-4.5,4.5C-2.4,4.9-3,6.6-3,11.6v28.9
			c0,4.9,0.6,6.7,1.5,8.5c1,2,2.6,3.5,4.5,4.5c1.8,1,3.6,1.5,8.5,1.5h44.9c4.9,0,6.7-0.6,8.5-1.5c2-1,3.5-2.6,4.5-4.5
			c1-1.8,1.5-3.6,1.5-8.5V11.6c0-4.9-0.6-6.7-1.5-8.5c-1-2-2.6-3.5-4.5-4.5C63.1-2.4,61.4-3,56.4-3z"/>
		<path id="path2882" class="st1" d="M-1,40.4V11.6c0-4.4,0.5-6,1.3-7.5C1.2,2.4,2.4,1.2,4,0.3S7.2-1,11.6-1H34v54H11.6
			c-4.4,0-6-0.5-7.5-1.3c-1.6-0.9-2.9-2.1-3.7-3.7C-0.5,46.4-1,44.8-1,40.4z"/>
	</g>
</g>
<path class="st2" d="M28,20.8L28,20.8c6.6,6.5,17.4,6.5,24,0l0,0"/>
<path class="st2" d="M28,38.4L28,38.4c6.6-6.5,17.4-6.5,24,0l0,0"/>
<line class="st2" x1="40" y1="17.9" x2="40" y2="39.9"/>
<path class="st3" d="M40,47.9L40,47.9c-9.8,0-18.8-5.5-23.2-14.3L16,31.9"/>
<path class="st4" d="M64,31.9l-0.8,1.7C58.8,42.3,49.8,47.9,40,47.9h1"/>
</svg>
