<?xml version="1.0" encoding="UTF-8" standalone="no"?>
<svg
   height="62"
   width="78"
   version="1.1"
   id="svg2227"
   xmlns="http://www.w3.org/2000/svg">
  <defs
     id="defs26" />
  <g
     id="sr">
    <path
       style="display:inline;fill:#1cb0f6;fill-opacity:1;fill-rule:nonzero;stroke:#ffffff;stroke-width:4"
       id="path183"
       d="M 61.436962,2 H 16.563038 C 11.628201,2 9.866819,2.5845126 8.070258,3.5453238 6.119529,4.5885853 4.5885853,6.119529 3.5453238,8.070258 2.5845126,9.866819 2,11.628201 2,16.563038 v 28.873924 c 0,4.934837 0.5845126,6.696219 1.5453238,8.49278 1.0432615,1.950729 2.5742052,3.481673 4.5249342,4.524934 C 9.866819,59.415487 11.628201,60 16.563038,60 h 44.873924 c 4.934837,0 6.696219,-0.584513 8.49278,-1.545324 1.950729,-1.043261 3.481673,-2.574205 4.524934,-4.524934 C 75.415487,52.133181 76,50.371799 76,45.436962 V 16.563038 C 76,11.628201 75.415487,9.866819 74.454676,8.070258 73.411415,6.119529 71.880471,4.5885853 69.929742,3.5453238 68.133181,2.5845126 66.371799,2 61.436962,2 Z" />
    <path
       style="display:inline;fill:#eeeeee;fill-opacity:1;fill-rule:nonzero;stroke:none;stroke-width:1"
       id="path185"
       d="m 74,40 v 5.436962 c 0,4.368442 -0.454846,5.952545 -1.30895,7.549582 -0.854105,1.597037 -2.107469,2.850401 -3.704506,3.704506 C 67.389507,57.545155 65.805404,58 61.436962,58 H 16.563038 C 12.194596,58 10.610493,57.545155 9.013456,56.69105 7.416419,55.836945 6.163055,54.583581 5.3089503,52.986544 4.4548455,51.389507 4,49.805404 4,45.436962 V 40 Z" />
    <path
       style="display:inline;fill:#ff4b4b;fill-rule:nonzero;stroke:none;stroke-width:1"
       id="path187"
       d="m 16.563038,4 h 44.873924 c 4.368442,0 5.952545,0.4548455 7.549582,1.3089503 C 70.583581,6.163055 71.836945,7.416419 72.69105,9.013456 73.545154,10.610493 74,12.194596 74,16.563038 V 22 H 4 V 16.563038 C 4,12.194596 4.4548455,10.610493 5.3089503,9.013456 6.163055,7.416419 7.416419,6.163055 9.013456,5.3089503 10.610493,4.4548455 12.194596,4 16.563038,4 Z" />
    <g
       id="shield"
       style="opacity:1"
       transform="translate(-1.999886,-2.000469)">
      <path
         id="rect32714"
         style="fill:#ff4b4b;fill-opacity:1;stroke:none;stroke-width:14.3426;stroke-linejoin:round;stroke-miterlimit:4;stroke-dasharray:none;stroke-opacity:1;stop-color:#000000"
         d="M 18.855886,23.999999 V 40.449913 A 10.597541,10.597541 0 0 0 29.453426,51.047454 10.597541,10.597541 0 0 0 40.050967,40.449913 V 23.999999 H 29.453426 Z" />
      <path
         id="rect25091"
         d="m 25.286769,41.117429 1.118444,1.118443 -3.657248,3.657249 a 0.7908611,0.7908611 0 0 1 -1.118447,0 0.79085917,0.79085917 0 0 1 3e-6,-1.118444 z"
         style="display:inline;fill:#ffc800;fill-opacity:1;stroke:none;stroke-width:1.29573;stroke-linejoin:round;stroke-miterlimit:4;stroke-dasharray:none;stroke-opacity:1;stop-color:#000000" />
      <path
         id="rect25091-0"
         d="m 33.620081,41.117428 -1.118444,1.118444 3.657249,3.657248 a 0.7908611,0.7908611 0 0 0 1.118446,0 0.79085917,0.79085917 0 0 0 -2e-6,-1.118444 z"
         style="display:inline;fill:#ffc800;fill-opacity:1;stroke:none;stroke-width:1.29573;stroke-linejoin:round;stroke-miterlimit:4;stroke-dasharray:none;stroke-opacity:1;stop-color:#000000" />
      <path
         id="rect19512"
         style="display:inline;fill:#eeeeee;fill-opacity:1;stroke-width:1.99638;stroke-linejoin:round;stop-color:#000000"
         d="m 21.702986,24.822495 a 1.5817225,1.5817225 0 0 0 -1.581722,1.581722 v 12.337436 4.745167 a 4.7451675,4.7451675 0 0 0 4.109451,-2.372584 l -0.592405,2.210891 1.099297,0.294532 a 1.5817225,1.5817225 0 0 0 1.937178,-1.118388 l 0.56423,-2.105668 v 7.606418 a 2.2144115,2.2144115 0 0 0 2.214411,2.214411 2.2144115,2.2144115 0 0 0 2.214412,-2.214411 v -7.606418 l 0.564229,2.105668 a 1.5817225,1.5817225 0 0 0 1.93718,1.118388 l 1.099297,-0.294532 -0.592406,-2.210891 a 4.7451675,4.7451675 0 0 0 4.109451,2.372584 V 38.741653 26.404217 a 1.5817225,1.5817225 0 0 0 -1.581722,-1.581722 1.5095365,1.5095365 0 0 0 -1.433746,1.581722 v 2.567457 A 2.3725838,2.3725838 0 0 1 33.407733,31.149385 1.5817225,1.5817225 0 0 1 31.82601,29.567662 V 27.98594 l 1.581723,-3.163445 H 32.616871 A 3.163445,3.163445 0 0 0 29.453426,27.98594 3.163445,3.163445 0 0 0 26.289981,24.822495 H 25.49912 l 1.581723,3.163445 v 1.581722 a 1.5817225,1.5817225 0 0 1 -1.581723,1.581723 2.3725838,2.3725838 0 0 1 -2.362389,-2.177711 v -2.567457 a 1.5095369,1.5095369 0 0 0 -1.433745,-1.581722 z" />
      <path
         style="display:inline;fill:#ffc800;fill-opacity:1;stroke:none;stroke-width:0.0318464px;stroke-linecap:butt;stroke-linejoin:miter;stroke-opacity:1"
         d="m 23.074313,22.866509 -2.381712,-4.799543 a 2.5502262,2.5502262 0 0 1 2.28442,-3.68384 h 12.804643 a 2.5502287,2.5502287 0 0 1 2.284423,3.683842 l -2.381706,4.799541 a 2.0405385,2.0405385 0 0 1 -1.827857,1.13349 h -8.954353 a 2.0405404,2.0405404 0 0 1 -1.827858,-1.13349 z"
         id="path5913" />
      <path
         id="rect15514"
         style="display:inline;fill:#ffc800;stroke-width:2.00275;stroke-linejoin:round;stop-color:#000000"
         d="m 29.379339,11.390469 c 1.084564,0 1.957698,0.873133 1.957698,1.957698 v 3.670708 c 0,1.084565 -0.873134,1.957698 -1.957698,1.957698 -1.084565,0 -1.957698,-0.873133 -1.957698,-1.957698 v -3.670708 c 0,-1.084565 0.873133,-1.957698 1.957698,-1.957698 z" />
      <path
         id="rect25297"
         d="m 25.333214,45.755719 1.006602,1.006602 a 0.47451666,0.47451666 0 0 1 0,0.671067 l -1.006602,1.006602 a 0.47451666,0.47451666 0 0 1 -0.671068,0 l -1.006602,-1.006602 a 0.47451666,0.47451666 0 0 1 0,-0.671067 l 1.006602,-1.006602 a 0.47451666,0.47451666 0 0 1 0.671068,0 z"
         style="display:inline;fill:#ffc800;fill-opacity:1;stroke:none;stroke-width:1.29274;stroke-linejoin:round;stroke-miterlimit:4;stroke-dasharray:none;stroke-opacity:1;stop-color:#000000" />
      <path
         id="path9173"
         style="display:inline;fill:#ff4b4b;fill-opacity:1;stroke:none;stroke-width:0;stroke-linecap:butt;stroke-linejoin:miter;stroke-miterlimit:4;stroke-dasharray:none;stroke-opacity:1"
         d="m 22.977014,15.937477 c -0.399084,-0.004 -0.785167,0.257215 -0.926481,0.631083 -0.03269,0.08167 -0.0534,0.167351 -0.06266,0.25424 -0.03645,0.342031 0.251192,0.86381 0.406541,1.176802 0.341913,0.688875 0.683788,1.377772 1.025666,2.066665 0.124266,0.250401 0.451636,0.453386 0.731176,0.453386 h 0.960958 a 0.49507898,0.49507898 0 0 0 0.480553,-0.614125 l -0.830861,-3.353925 a 0.80854848,0.80854848 0 0 0 -0.784825,-0.614126 z m 3.088456,0.614126 0.868895,3.507456 a 0.60641137,0.60641137 0 0 0 0.588618,0.460594 h 0.750701 a 0.47451675,0.47451675 0 0 0 0.474517,-0.474517 v -3.47497 a 0.632689,0.632689 0 0 0 -0.632689,-0.632689 h -1.569489 a 0.49507898,0.49507898 0 0 0 -0.480553,0.614126 z m 3.948109,0.01856 v 3.47497 a 0.47451675,0.47451675 0 0 0 0.474516,0.474517 h 0.750886 a 0.60633997,0.60633997 0 0 0 0.588566,-0.460607 l 0.868462,-3.507426 a 0.49513729,0.49513729 0 0 0 -0.480623,-0.614143 h -1.569118 a 0.632689,0.632689 0 0 0 -0.632689,0.632689 z m 3.985991,-0.01855 -0.830444,3.35389 a 0.49513741,0.49513741 0 0 0 0.480623,0.614143 h 0.957746 c 0.279537,0 0.606881,-0.202999 0.731176,-0.453386 0.449874,-0.906268 0.899782,-1.812511 1.348912,-2.719141 0.168634,-0.360042 0.09328,-0.817766 -0.186162,-1.101645 -0.198624,-0.209883 -0.490458,-0.322261 -0.778255,-0.308004 h -0.938841 a 0.80845307,0.80845307 0 0 0 -0.784755,0.61415 z" />
      <path
         id="rect17558"
         style="display:inline;fill:#ffc800;stroke-width:0.699621;stroke-linejoin:round;stop-color:#000000"
         d="m 25.49912,24.822495 1.186292,2.372583 h -2.768014 v -0.790861 a 1.5817225,1.5817225 0 0 1 1.581722,-1.581722 z" />
      <path
         id="rect17750"
         style="display:inline;fill:#ffc800;stroke-width:0.494709;stroke-linejoin:round;stop-color:#000000"
         d="m 24.708259,27.195078 h 1.977153 l 0.395431,0.790862 H 25.49912 a 0.79086125,0.79086125 0 0 1 -0.790861,-0.790862 z" />
      <path
         id="rect25297-8"
         d="m 33.573638,45.755717 -1.006602,1.006602 a 0.47451666,0.47451666 0 0 0 0,0.671068 l 1.006602,1.006602 a 0.47451666,0.47451666 0 0 0 0.671067,0 l 1.006602,-1.006602 a 0.47451666,0.47451666 0 0 0 0,-0.671068 l -1.006602,-1.006602 a 0.47451666,0.47451666 0 0 0 -0.671067,0 z"
         style="display:inline;fill:#ffc800;fill-opacity:1;stroke:none;stroke-width:1.29274;stroke-linejoin:round;stroke-miterlimit:4;stroke-dasharray:none;stroke-opacity:1;stop-color:#000000" />
      <path
         id="rect17558-5"
         style="display:inline;fill:#ffc800;stroke-width:0.699621;stroke-linejoin:round;stop-color:#000000"
         d="m 33.407733,24.822495 -1.186292,2.372583 h 2.768014 v -0.790861 a 1.5817225,1.5817225 0 0 0 -1.581722,-1.581722 z" />
      <path
         id="rect17750-1"
         style="display:inline;fill:#ffc800;stroke-width:0.494709;stroke-linejoin:round;stop-color:#000000"
         d="M 34.198594,27.195078 H 32.221441 L 31.82601,27.98594 h 1.581723 a 0.79086125,0.79086125 0 0 0 0.790861,-0.790862 z" />
    </g>
  </g>
</svg>
