<?xml version="1.0" encoding="UTF-8" standalone="no"?>
<!-- Created with Inkscape (http://www.inkscape.org/) -->

<svg
   width="78mm"
   height="62mm"
   viewBox="0 0 78 62"
   version="1.1"
   id="svg5"
   inkscape:version="1.1.2 (0a00cf5339, 2022-02-04)"
   sodipodi:docname="flag_tin.svg"
   xmlns:inkscape="http://www.inkscape.org/namespaces/inkscape"
   xmlns:sodipodi="http://sodipodi.sourceforge.net/DTD/sodipodi-0.dtd"
   xmlns="http://www.w3.org/2000/svg"
   xmlns:svg="http://www.w3.org/2000/svg">
  <sodipodi:namedview
     id="namedview7"
     pagecolor="#ffffff"
     bordercolor="#666666"
     borderopacity="1.0"
     inkscape:pageshadow="2"
     inkscape:pageopacity="0.0"
     inkscape:pagecheckerboard="0"
     inkscape:document-units="mm"
     showgrid="false"
     fit-margin-top="0"
     fit-margin-left="0"
     fit-margin-right="0"
     fit-margin-bottom="0"
     inkscape:zoom="0.82671156"
     inkscape:cx="113.0987"
     inkscape:cy="142.73418"
     inkscape:window-width="1366"
     inkscape:window-height="699"
     inkscape:window-x="0"
     inkscape:window-y="0"
     inkscape:window-maximized="1"
     inkscape:current-layer="layer1" />
  <defs
     id="defs2">
    <path
       d="m 12.563038,0 44.873924,0 c 4.368442,0 5.952545,0.45484549 7.549582,1.3089503 C 66.583581,2.163055 67.836945,3.416419 68.69105,5.013456 69.545154,6.6104931 70,8.1945956 70,12.563038 v 28.873924 c 0,4.368442 -0.454846,5.952545 -1.30895,7.549582 -0.854105,1.597037 -2.107469,2.850401 -3.704506,3.704506 C 63.389507,53.545155 61.805404,54 57.436962,54 H 12.563038 C 8.1945956,54 6.6104931,53.545155 5.013456,52.69105 3.416419,51.836945 2.163055,50.583581 1.3089503,48.986544 0.45484549,47.389507 0,45.805404 0,41.436962 L 0,12.563038 C 0,8.1945956 0.45484549,6.6104931 1.3089503,5.013456 2.163055,3.416419 3.416419,2.163055 5.013456,1.3089503 6.6104931,0.45484549 8.1945956,0 12.563038,0 Z"
       id="path-1" />
  </defs>
  <g
     inkscape:label="Layer 1"
     inkscape:groupmode="layer"
     id="layer1"
     transform="translate(-2,-200)">
    <path
       d="M 63.436962,202 H 18.563038 c -4.934837,0 -6.696219,0.58451 -8.49278,1.54532 -1.950729,1.04327 -3.4816727,2.57421 -4.5249342,4.52494 C 4.5845126,209.86682 4,211.6282 4,216.56304 v 28.87392 c 0,4.93484 0.5845126,6.69622 1.5453238,8.49278 1.0432615,1.95073 2.5742052,3.48167 4.5249342,4.52494 1.796561,0.96081 3.557943,1.54532 8.49278,1.54532 h 44.873924 c 4.934837,0 6.696219,-0.58451 8.49278,-1.54532 1.950729,-1.04327 3.481673,-2.57421 4.524934,-4.52494 C 77.415487,252.13318 78,250.3718 78,245.43696 v -28.87392 c 0,-4.93484 -0.584513,-6.69622 -1.545324,-8.49278 -1.043261,-1.95073 -2.574205,-3.48167 -4.524934,-4.52494 C 70.133181,202.58451 68.371799,202 63.436962,202 Z"
       id="path2787"
       stroke="#ffffff"
       stroke-width="4"
       fill="#ff4b4b"
       style="fill:#ffc800;fill-opacity:1;fill-rule:nonzero" />
    <path
       d="m 76,245.43696 c 0,4.36844 -0.454846,5.95255 -1.30895,7.54958 -0.854105,1.59704 -2.107469,2.85041 -3.704506,3.70451 C 69.389507,257.54516 67.805404,258 63.436962,258 H 18.563038 c -4.368442,0 -5.952545,-0.45484 -7.549582,-1.30895 -1.597037,-0.8541 -2.850401,-2.10747 -3.7045057,-3.70451 C 6.4548455,251.38951 6,249.8054 6,245.43696 Z"
       id="path2789"
       fill="#ffc800"
       style="fill:#78c800;fill-opacity:1;fill-rule:nonzero;stroke:none;stroke-width:1"
       sodipodi:nodetypes="csssssscc" />
    <path
       d="m 18.563038,204 h 44.873924 c 4.368442,0 5.952545,0.45485 7.549582,1.30895 1.597037,0.8541 2.850401,2.10747 3.704506,3.70451 C 75.545154,210.61049 76,212.1946 76,216.56304 H 6 c 0,-4.36844 0.4548455,-5.95255 1.3089503,-7.54958 0.8541047,-1.59704 2.1074687,-2.85041 3.7045057,-3.70451 C 12.610493,204.45485 14.194596,204 18.563038,204 Z"
       id="path2791"
       fill="#4c4c4c"
       style="fill:#1cb0f6;fill-opacity:1;fill-rule:nonzero;stroke:none;stroke-width:1"
       sodipodi:nodetypes="ssssccsss" />
  </g>
</svg>
