<?xml version="1.0" encoding="UTF-8" standalone="no"?>
<svg
   height="62"
   width="78.000008"
   version="1.1"
   id="svg2227"
   sodipodi:docname="flag_template.svg"
   inkscape:version="1.2.1 (9c6d41e410, 2022-07-14)"
   xmlns:inkscape="http://www.inkscape.org/namespaces/inkscape"
   xmlns:sodipodi="http://sodipodi.sourceforge.net/DTD/sodipodi-0.dtd"
   xmlns="http://www.w3.org/2000/svg"
   xmlns:svg="http://www.w3.org/2000/svg">
  <defs
     id="defs21">
    <inkscape:path-effect
       effect="fillet_chamfer"
       id="path-effect2679"
       is_visible="true"
       lpeversion="1"
       nodesatellites_param="F,0,0,1,0,0,0,1 @ F,0,0,1,0,1.7122209,0,1 @ F,0,0,1,0,0,0,1 @ F,0,0,1,0,1.7233552,0,1 @ F,0,0,1,0,0,0,1 @ F,0,0,1,0,1.7741333,0,1 @ F,0,0,1,0,0,0,1 @ F,0,0,1,0,1.5298165,0,1 @ F,0,0,1,0,0,0,1 @ IF,0,0,1,0,0,0,1 @ F,0,0,1,0,0,0,1 @ IF,0,0,1,0,1.240675,0,1 @ F,0,0,1,0,0,0,1 @ F,0,0,1,0,1.7708123,0,1 @ F,0,0,1,0,0,0,1 @ F,0,0,1,0,2.0093563,0,1"
       unit="px"
       method="auto"
       mode="F"
       radius="0"
       chamfer_steps="1"
       flexible="false"
       use_knot_distance="true"
       apply_no_radius="true"
       apply_with_radius="true"
       only_selected="false"
       hide_knots="false" />
  </defs>
  <sodipodi:namedview
     id="namedview19"
     pagecolor="#ffffff"
     bordercolor="#000000"
     borderopacity="0.25"
     inkscape:showpageshadow="2"
     inkscape:pageopacity="0.0"
     inkscape:pagecheckerboard="0"
     inkscape:deskcolor="#d1d1d1"
     showgrid="false"
     inkscape:zoom="3.1313284"
     inkscape:cx="-25.548263"
     inkscape:cy="-27.624059"
     inkscape:window-width="1920"
     inkscape:window-height="991"
     inkscape:window-x="-9"
     inkscape:window-y="-9"
     inkscape:window-maximized="1"
     inkscape:current-layer="de" />
  <g
     id="palette">
    <ellipse
       ry="20"
       rx="19.849623"
       cy="-10"
       cx="-80.150375"
       id="white"
       style="display:inline;opacity:1;fill:#ffffff;fill-opacity:1;fill-rule:nonzero;stroke:none;stroke-width:6.00702;stroke-linecap:round;stroke-linejoin:round;stroke-miterlimit:4;stroke-dasharray:none;stroke-dashoffset:0;stroke-opacity:1" />
    <ellipse
       ry="20"
       rx="19.849623"
       cy="-60"
       cx="-80.150375"
       id="gray"
       style="opacity:1;fill:#eeeeee;fill-opacity:1;fill-rule:nonzero;stroke:none;stroke-width:6.00702;stroke-linecap:round;stroke-linejoin:round;stroke-miterlimit:4;stroke-dasharray:none;stroke-dashoffset:0;stroke-opacity:1" />
    <ellipse
       ry="20"
       rx="19.849623"
       cy="-110"
       cx="-80.150375"
       id="black"
       style="display:inline;opacity:1;fill:#4c4c4c;fill-opacity:1;fill-rule:nonzero;stroke:none;stroke-width:6.00702;stroke-linecap:round;stroke-linejoin:round;stroke-miterlimit:4;stroke-dasharray:none;stroke-dashoffset:0;stroke-opacity:1" />
    <ellipse
       ry="20"
       rx="19.849623"
       cy="-60"
       cx="-30.150375"
       id="lightblue"
       style="display:inline;opacity:1;fill:#1cb0f6;fill-opacity:1;fill-rule:nonzero;stroke:none;stroke-width:6.00702;stroke-linecap:round;stroke-linejoin:round;stroke-miterlimit:4;stroke-dasharray:none;stroke-dashoffset:0;stroke-opacity:1" />
    <ellipse
       ry="20"
       rx="19.849623"
       cy="-110"
       cx="-30.150375"
       id="darkblue"
       style="display:inline;opacity:1;fill:#1254a9;fill-opacity:1;fill-rule:nonzero;stroke:none;stroke-width:6.00702;stroke-linecap:round;stroke-linejoin:round;stroke-miterlimit:4;stroke-dasharray:none;stroke-dashoffset:0;stroke-opacity:1" />
    <ellipse
       ry="20"
       rx="19.849623"
       cy="-60"
       cx="19.849623"
       id="red"
       style="display:inline;opacity:1;fill:#ff4b4b;fill-opacity:1;fill-rule:nonzero;stroke:none;stroke-width:6.00702;stroke-linecap:round;stroke-linejoin:round;stroke-miterlimit:4;stroke-dasharray:none;stroke-dashoffset:0;stroke-opacity:1" />
    <ellipse
       ry="20"
       rx="19.849623"
       cy="-160"
       cx="-30.150377"
       id="red-6"
       style="display:inline;fill:#9069cd;fill-opacity:1;fill-rule:nonzero;stroke:none;stroke-width:6.00702;stroke-linecap:round;stroke-linejoin:round;stroke-miterlimit:4;stroke-dasharray:none;stroke-dashoffset:0;stroke-opacity:1"
       inkscape:label="purple" />
    <ellipse
       ry="20"
       rx="19.849623"
       cy="-110"
       cx="19.849623"
       id="red-6-8"
       style="display:inline;fill:#ffaade;fill-opacity:1;fill-rule:nonzero;stroke:none;stroke-width:6.00702;stroke-linecap:round;stroke-linejoin:round;stroke-miterlimit:4;stroke-dasharray:none;stroke-dashoffset:0;stroke-opacity:1"
       inkscape:label="pink" />
    <ellipse
       ry="20"
       rx="19.849623"
       cy="-60"
       cx="69.849625"
       id="yellow"
       style="display:inline;opacity:1;fill:#ffc800;fill-opacity:1;fill-rule:nonzero;stroke:none;stroke-width:6.00702;stroke-linecap:round;stroke-linejoin:round;stroke-miterlimit:4;stroke-dasharray:none;stroke-dashoffset:0;stroke-opacity:1" />
    <ellipse
       ry="20"
       rx="19.849623"
       cy="-110"
       cx="69.849625"
       id="orange"
       style="display:inline;opacity:1;fill:#ff9600;fill-opacity:1;fill-rule:nonzero;stroke:none;stroke-width:6.00702;stroke-linecap:round;stroke-linejoin:round;stroke-miterlimit:4;stroke-dasharray:none;stroke-dashoffset:0;stroke-opacity:1" />
    <ellipse
       ry="20"
       rx="19.849623"
       cy="-160"
       cx="69.849625"
       id="brown"
       style="display:inline;opacity:1;fill:#ffce8e;fill-opacity:1;fill-rule:nonzero;stroke:none;stroke-width:6.00702;stroke-linecap:round;stroke-linejoin:round;stroke-miterlimit:4;stroke-dasharray:none;stroke-dashoffset:0;stroke-opacity:1" />
    <ellipse
       ry="20"
       rx="19.849623"
       cy="-60"
       cx="119.84962"
       id="green"
       style="display:inline;opacity:1;fill:#78c800;fill-opacity:1;fill-rule:nonzero;stroke:none;stroke-width:6.00702;stroke-linecap:round;stroke-linejoin:round;stroke-miterlimit:4;stroke-dasharray:none;stroke-dashoffset:0;stroke-opacity:1" />
  </g>
  <g
     id="de">
    <path
       d="M 61.436966,2 H 16.563042 C 11.628205,2 9.8668228,2.5845126 8.0702618,3.5453238 6.1195328,4.5885853 4.5885891,6.119529 3.5453276,8.070258 2.5845164,9.866819 2.0000038,11.628201 2.0000038,16.563038 v 28.873924 c 0,4.934837 0.5845126,6.696219 1.5453238,8.49278 1.0432615,1.950729 2.5742052,3.481673 4.5249342,4.524934 C 9.8668228,59.415487 11.628205,60 16.563042,60 h 44.873924 c 4.934837,0 6.696219,-0.584513 8.49278,-1.545324 1.950729,-1.043261 3.481673,-2.574205 4.524934,-4.524934 0.960811,-1.796561 1.545324,-3.557943 1.545324,-8.49278 V 16.563038 c 0,-4.934837 -0.584513,-6.696219 -1.545324,-8.49278 C 73.411419,6.119529 71.880475,4.5885853 69.929746,3.5453238 68.133185,2.5845126 66.371803,2 61.436966,2 Z"
       id="path54"
       style="fill:#4c4c4c;fill-opacity:1;fill-rule:nonzero;stroke:none;stroke-width:4" />
    <path
       style="fill:none;fill-rule:nonzero;stroke:#ffffff;stroke-width:4"
       d="M 61.436966,2 H 16.563038 C 11.628201,2 9.866819,2.584513 8.070258,3.545324 6.119529,4.588586 4.588585,6.119529 3.545324,8.070259 2.584513,9.86682 2,11.628202 2,16.563039 v 28.873923 c 0,4.934837 0.584513,6.696219 1.545324,8.49278 1.043261,1.950729 2.574205,3.481673 4.524934,4.524934 C 9.866819,59.415487 11.628201,60 16.563038,60 h 44.873928 c 4.93484,0 6.69622,-0.584513 8.49278,-1.545324 1.95073,-1.043261 3.48167,-2.574205 4.52493,-4.524934 0.96081,-1.796561 1.54533,-3.557943 1.54533,-8.49278 V 16.563039 c 0,-4.934837 -0.58452,-6.696219 -1.54533,-8.49278 -1.04326,-1.95073 -2.5742,-3.481673 -4.52493,-4.524935 C 68.133186,2.584513 66.371806,2 61.436966,2 Z"
       id="border" />
    <polygon
       id="polygon5202"
       fill="#ff4b4b"
       fill-rule="nonzero"
       points="0,16 0,11 17,11 17,0 22,0 22,11 39,11 39,16 22,16 22,27 17,27 17,16 "
       transform="matrix(1.7948718,0,0,2,4.0000037,4)"
       style="fill:#eeeeee;fill-opacity:1" />
    <circle
       id="path11061"
       style="fill:#f9f9f9;stroke:#000000"
       cx="-74.089958"
       cy="-117.52201"
       r="0" />
    <circle
       id="path11181"
       style="fill:#4c4c4c;stroke:#000000"
       cx="-72.812546"
       cy="-54.928764"
       r="0" />
  </g>
</svg>
