<?xml version="1.0" encoding="UTF-8" standalone="no"?>
<svg
   height="62"
   width="78"
   version="1.1"
   id="svg3626"
   xmlns="http://www.w3.org/2000/svg"
   xmlns:svg="http://www.w3.org/2000/svg">
  <defs
     id="defs3630" />
  <path
     d="M 61.436962,2 H 16.563038 C 11.628201,2 9.866819,2.58451 8.070258,3.54532 6.119529,4.58859 4.5885853,6.11953 3.5453238,8.07026 2.5845126,9.86682 2,11.6282 2,16.56304 v 28.87392 c 0,4.93484 0.5845126,6.69622 1.5453238,8.49278 1.0432615,1.95073 2.5742052,3.48168 4.5249342,4.52494 C 9.866819,59.41549 11.628201,60 16.563038,60 h 44.873924 c 4.934837,0 6.696219,-0.58451 8.49278,-1.54532 1.950729,-1.04326 3.481673,-2.57421 4.524934,-4.52494 C 75.415487,52.13318 76,50.3718 76,45.43696 V 16.56304 C 76,11.6282 75.415487,9.86682 74.454676,8.07026 73.411415,6.11953 71.880471,4.58859 69.929742,3.54532 68.133181,2.58451 66.371799,2 61.436962,2 Z"
     id="path2938"
     stroke="#ffffff"
     stroke-width="4"
     fill="#eeeeee"
     style="fill:#1cb0f6;fill-opacity:1;fill-rule:nonzero" />
  <rect
     style="opacity:0.98;fill:#ffc800;fill-opacity:1;stroke-width:2.84413"
     id="rect2010"
     width="3.7991028"
     height="38.747753"
     x="30.532875"
     y="11.626123"
     ry="2.4161696" />
  <g
     id="g2922"
     transform="matrix(0.77555416,0,0,0.77555416,7.2793234,3.4954649)">
    <rect
       style="opacity:0.98;fill:#ffc800;fill-opacity:1;stroke-width:1.07149"
       id="rect2646"
       width="3.5365527"
       height="5.9077978"
       x="30.66415"
       y="8.431447"
       ry="1.7682763" />
    <rect
       style="opacity:0.98;fill:#ffc800;fill-opacity:1;stroke-width:1.07149"
       id="rect2915"
       width="3.5365527"
       height="5.9077978"
       x="31.747126"
       y="-18.133301"
       ry="1.7682763"
       transform="rotate(45)" />
    <rect
       style="opacity:0.98;fill:#ffc800;fill-opacity:1;stroke-width:1.07149"
       id="rect2917"
       width="3.5365527"
       height="5.9077978"
       x="10.582699"
       y="27.733076"
       ry="1.7682763"
       transform="rotate(-45)" />
  </g>
  <path
     style="opacity:0.98;fill:#ffc800;fill-opacity:1;stroke-width:3.3"
     id="path3085"
     d="m 28.72851,26.952871 a 3.7042167,3.7042167 0 0 1 3.739264,-3.656919 3.7042167,3.7042167 0 0 1 3.668794,3.727613 3.7042167,3.7042167 0 0 1 -3.715924,3.680633 A 3.7042167,3.7042167 0 0 1 28.72821,27 h 3.704216 z" />
  <rect
     style="opacity:0.98;fill:#ffc800;fill-opacity:1;stroke-width:3.3"
     id="rect6697"
     width="1.4577637"
     height="5.3066406"
     x="40.93116"
     y="26.5896"
     ry="0.72888184" />
  <g
     id="g6986"
     transform="translate(0,-1.6793783)">
    <path
       style="opacity:0.98;fill:#1cb0f6;fill-opacity:1;stroke:#ffc800;stroke-width:1.4;stroke-miterlimit:4;stroke-dasharray:none;stroke-opacity:1"
       id="path6727"
       transform="scale(-1)"
       d="m -41.629559,-33.054546 a 1.5559318,2.8642082 0 0 1 1.555932,-2.864209 1.5559318,2.8642082 0 0 1 1.555931,2.864209" />
    <g
       id="g6981">
      <path
         style="opacity:0.98;fill:#1cb0f6;fill-opacity:1;stroke:#ffc800;stroke-width:1.4;stroke-miterlimit:4;stroke-dasharray:none;stroke-opacity:1"
         id="path6978"
         transform="scale(-1)"
         d="m -44.801434,-33.054546 a 1.5559318,2.8642082 0 0 1 1.555932,-2.864209 1.5559318,2.8642082 0 0 1 1.555931,2.864209" />
    </g>
  </g>
  <rect
     style="opacity:0.98;fill:#ffc800;fill-opacity:1;stroke-width:3.3"
     id="rect6615"
     width="1.4577637"
     height="5.3066406"
     x="22.47591"
     y="26.5896"
     ry="0.72888184" />
  <g
     id="g7388"
     transform="translate(-0.00562384,-2.4419415)">
    <rect
       style="opacity:0.98;fill:#ffc800;fill-opacity:1;stroke-width:3.3"
       id="rect7379"
       width="1.4577637"
       height="5.3066406"
       x="36.041939"
       y="16.658958"
       ry="0.72888184"
       transform="rotate(30)" />
    <rect
       style="opacity:0.98;fill:#ffc800;fill-opacity:1;stroke-width:3.3"
       id="rect7381"
       width="1.4577637"
       height="5.3066406"
       x="-4.1596813"
       y="-45.176014"
       ry="0.72888184"
       transform="rotate(150)" />
    <rect
       style="opacity:0.98;fill:#ffc800;fill-opacity:1;stroke-width:1.88043"
       id="rect7383"
       width="0.82195455"
       height="3.055968"
       x="35.583298"
       y="-24.710657"
       ry="0.41974571"
       transform="rotate(90)" />
  </g>
  <rect
     style="opacity:0.98;fill:#ffc800;fill-opacity:1;stroke-width:2.42983"
     id="rect7470"
     width="3.7991028"
     height="28.28133"
     x="25.100449"
     y="-46.573093"
     ry="1.7635214"
     transform="rotate(90)" />
  <g
     id="g7740"
     transform="matrix(-0.77555416,0,0,-0.77555416,57.58553,60.1128)">
    <rect
       style="opacity:0.98;fill:#ffc800;fill-opacity:1;stroke-width:1.07149"
       id="rect7734"
       width="3.5365527"
       height="5.9077978"
       x="30.66415"
       y="8.431447"
       ry="1.7682763" />
    <rect
       style="opacity:0.98;fill:#ffc800;fill-opacity:1;stroke-width:1.07149"
       id="rect7736"
       width="3.5365527"
       height="5.9077978"
       x="31.747126"
       y="-18.133301"
       ry="1.7682763"
       transform="rotate(45)" />
    <rect
       style="opacity:0.98;fill:#ffc800;fill-opacity:1;stroke-width:1.07149"
       id="rect7738"
       width="3.5365527"
       height="5.9077978"
       x="10.582699"
       y="27.733076"
       ry="1.7682763"
       transform="rotate(-45)" />
  </g>
  <g
     id="g7748"
     transform="matrix(0,0.77555416,-0.77555416,0,55.741095,1.651029)">
    <rect
       style="opacity:0.98;fill:#ffc800;fill-opacity:1;stroke-width:1.07149"
       id="rect7742"
       width="3.5365527"
       height="5.9077978"
       x="30.66415"
       y="8.431447"
       ry="1.7682763" />
    <rect
       style="opacity:0.98;fill:#ffc800;fill-opacity:1;stroke-width:1.07149"
       id="rect7744"
       width="3.5365527"
       height="5.9077978"
       x="31.747126"
       y="-18.133301"
       ry="1.7682763"
       transform="rotate(45)" />
    <rect
       style="opacity:0.98;fill:#ffc800;fill-opacity:1;stroke-width:1.07149"
       id="rect7746"
       width="3.5365527"
       height="5.9077978"
       x="10.582699"
       y="27.733076"
       ry="1.7682763"
       transform="rotate(-45)" />
  </g>
  <g
     id="g7756"
     transform="matrix(0,-0.77555416,0.77555416,0,9.123759,51.957235)">
    <rect
       style="opacity:0.98;fill:#ffc800;fill-opacity:1;stroke-width:1.07149"
       id="rect7750"
       width="3.5365527"
       height="5.9077978"
       x="30.66415"
       y="8.431447"
       ry="1.7682763" />
    <rect
       style="opacity:0.98;fill:#ffc800;fill-opacity:1;stroke-width:1.07149"
       id="rect7752"
       width="3.5365527"
       height="5.9077978"
       x="31.747126"
       y="-18.133301"
       ry="1.7682763"
       transform="rotate(45)" />
    <rect
       style="opacity:0.98;fill:#ffc800;fill-opacity:1;stroke-width:1.07149"
       id="rect7754"
       width="3.5365527"
       height="5.9077978"
       x="10.582699"
       y="27.733076"
       ry="1.7682763"
       transform="rotate(-45)" />
  </g>
</svg>
