<?xml version="1.0" encoding="UTF-8"?>
<svg version="1.1" viewBox="0 0 82 65.84" xmlns="http://www.w3.org/2000/svg">
    <defs>
        <style>.st0 {
            stroke: #f783ac;
            stroke-linejoin: round;
            stroke-width: 2px;
            }

            .st0, .st1 {
            fill: #f783ac;
            }

            .st2 {
            fill: #f8f9fa;
            stroke: #fff;
            stroke-width: 4px;
            }</style>
    </defs>
    <g id="da">
        <path class="st2" d="m63.437 4h-44.874c-4.9348 0-6.6962 0.58451-8.4928 1.5453-1.9507 1.0433-3.4817 2.5742-4.5249 4.5249-0.96081 1.7966-1.5453 3.5579-1.5453 8.4928v28.874c0 4.9348 0.58451 6.6962 1.5453 8.4928 1.0433 1.9507 2.5742 3.4817 4.5249 4.5249 1.7966 0.96081 3.5579 1.5453 8.4928 1.5453h44.874c4.9348 0 6.6962-0.58451 8.4928-1.5453 1.9507-1.0433 3.4817-2.5742 4.5249-4.5249 0.96082-1.7966 1.5453-3.5579 1.5453-8.4928v-28.874c0-4.9348-0.58451-6.6962-1.5453-8.4928-1.0433-1.9507-2.5742-3.4817-4.5249-4.5249-1.7966-0.96081-3.5579-1.5453-8.4928-1.5453z"/>
        <path class="st0" d="m17 10v3 9h2v-2.5c0-1.3807 1.1193-2.5 2.5-2.5s2.5 1.1193 2.5 2.5v2.5h2v-9-3h-1v3h-3v-3h-1v3h-3v-3h-1zm37 0v3 9h2v-2.5c0-1.3807 1.1193-2.5 2.5-2.5s2.5 1.1193 2.5 2.5v2.5h2v-9-3h-1v3h-3v-3h-1v3h-3v-3h-1zm-37 34v3 9h2v-2.5c0-1.3807 1.1193-2.5 2.5-2.5s2.5 1.1193 2.5 2.5v2.5h2v-9-3h-1v3h-3v-3h-1v3h-3v-3h-1zm37 0v3 9h2v-2.5c0-1.3807 1.1193-2.5 2.5-2.5s2.5 1.1193 2.5 2.5v2.5h2v-9-3h-1v3h-3v-3h-1v3h-3v-3h-1z"/>
        <path class="st1" d="m34 6v21h-28v12h28v21h12v-21h30v-12h-30v-21h-12z"/>
    </g>
</svg>
