<?xml version="1.0" encoding="UTF-8" standalone="no"?>
<!-- Created with Inkscape (http://www.inkscape.org/) -->

<svg
   width="78mm"
   height="62mm"
   viewBox="0 0 78 62"
   version="1.1"
   id="svg19697"
   xmlns="http://www.w3.org/2000/svg"
>
  <defs
     id="defs19694">
    <path
       d="m 12.563038,0 44.873924,0 c 4.368442,0 5.952545,0.45484549 7.549582,1.3089503 C 66.583581,2.163055 67.836945,3.416419 68.69105,5.013456 69.545154,6.6104931 70,8.1945956 70,12.563038 v 28.873924 c 0,4.368442 -0.454846,5.952545 -1.30895,7.549582 -0.854105,1.597037 -2.107469,2.850401 -3.704506,3.704506 C 63.389507,53.545155 61.805404,54 57.436962,54 H 12.563038 C 8.1945956,54 6.6104931,53.545155 5.013456,52.69105 3.416419,51.836945 2.163055,50.583581 1.3089503,48.986544 0.45484549,47.389507 0,45.805404 0,41.436962 L 0,12.563038 C 0,8.1945956 0.45484549,6.6104931 1.3089503,5.013456 2.163055,3.416419 3.416419,2.163055 5.013456,1.3089503 6.6104931,0.45484549 8.1945956,0 12.563038,0 Z"
       id="path-1" />
  </defs>
  <g
     id="layer1"
     transform="translate(-2,-200)">
    <g
       id="Yiddish"
       stroke="none"
       stroke-width="1"
       fill="none"
       fill-rule="evenodd"
       transform="translate(-2,198)">
      <path
         d="m 65.140131,4 c 0.275555,0 0.540359,0.00176 0.795072,0.00526 v 0 l 0.731852,0.015484 0.991019,0.042241 c 0.225027,0.012827 0.440636,0.027574 0.64759,0.044188 v 0 l 0.556091,0.051195 c 1.305066,0.1364919 2.26955,0.3600144 3.098838,0.6515921 3.720875,1.823841 5.135484,3.3578045 6.139091,5.2343859 0.822368,1.790643 1.027558,2.509213 1.192727,3.406864 0.182699,1.250418 0.197479,1.415709 0.215416,1.610578 v 0 l 0.04686,0.587515 0.03709,0.645373 0.03496,1.041232 0.01151,1.15221 V 47.22936 l -0.0051,0.78539 -0.02702,1.074876 -0.0311,0.655987 c -0.03134,0.548337 -0.07417,1.041359 -0.127638,1.489871 -0.334949,2.037912 -0.571846,2.742843 -0.843365,3.389806 -1.590125,3.098768 -3.117687,4.545017 -5.010081,5.557081 -2.703174,1.045658 -3.593762,1.245306 -4.446662,1.34837 l -0.189635,0.02162 v 0 l -0.09571,0.01019 -0.567914,0.05228 -0.624959,0.04265 -1.001964,0.04271 -0.745433,0.01577 -45.824538,0.0037 -0.764764,-0.01039 -1.042886,-0.03501 -0.939712,-0.05895 -0.573234,-0.05277 C 15.783547,61.458713 14.98978,61.304553 14.302669,61.109256 9.9189982,59.084443 8.5353959,57.540504 7.5385592,55.676581 6.4792962,53.146489 6.2909072,52.210054 6.1583772,50.944511 v 0 l -0.05278,-0.573303 -0.058071,-0.925673 C 6.0366675,49.21877 6.0276331,48.982616 6.0204639,48.736347 v 0 L 6.0051123,48.010769 6,47.22936 V 18.498112 C 6,18.222557 6.00176,17.957753 6.00526,17.70304 v 0 l 0.015484,-0.731852 0.042241,-0.991019 c 0.012827,-0.225027 0.027574,-0.440636 0.044188,-0.64759 v 0 L 6.158368,14.776488 C 6.2948599,13.471422 6.5183824,12.506938 6.8099601,11.67765 8.6338012,7.9567748 10.167765,6.542166 12.044346,5.5385592 c 2.530092,-1.059263 3.466527,-1.247652 4.73207,-1.380182 v 0 l 0.573303,-0.05278 0.925673,-0.058071 c 0.226766,-0.010859 0.46292,-0.019893 0.709188,-0.027062 v 0 l 0.73201,-0.015488 z"
         id="path1516"
         stroke="#ffffff"
         stroke-width="4"
         fill="#1254a9"/>
      <path
         d="m 30.31383,13 c 0.170951,0 0.337561,0.05386 0.476193,0.153924 L 54.513902,30.278617 C 55.761098,31.178885 56.5,32.623787 56.5,34.162375 v 6.267665 c 0,0.449649 -0.364364,0.814162 -0.81383,0.814162 -0.170951,0 -0.337561,-0.05385 -0.476193,-0.153923 L 38.344816,28.915839 c 0.131015,0.328881 0.203056,0.687669 0.203056,1.06329 V 41.185837 C 38.547872,41.635487 38.183508,42 37.734043,42 H 34.023936 C 31.525435,42 29.5,39.973736 29.5,37.474214 V 31.6314 c 0,-2.499523 2.025435,-4.525787 4.523936,-4.525787 h 1.651596 c 0.05629,0 0.112201,0.0016 0.167691,0.0048 L 31.486098,23.965586 C 30.238902,23.065317 29.5,21.620416 29.5,20.081827 V 13.814163 C 29.5,13.364513 29.864364,13 30.31383,13 Z"
         id="path1518"
         fill="#eeeeee" />
      <path
         d="m 49.095104,11.24028 -2.673617,3.801697 c -1.612788,2.293274 -1.053791,5.453532 1.248556,7.058634 l 5.447189,3.797558 c 0.255816,0.178345 0.608466,0.116359 0.787664,-0.138449 l 2.673617,-3.801697 c 1.612788,-2.293274 1.053791,-5.453532 -1.248556,-7.058634 l -5.447189,-3.797558 c -0.255816,-0.178345 -0.608466,-0.116359 -0.787664,0.138449 z"
         id="path1520"
         fill="#eeeeee"/>
      <path
         d="M 48.583333,47 C 49.641879,47 50.5,47.896681 50.5,49.002794 c 0,1.106113 -0.858121,2.002794 -1.916667,2.002794 l -3.002684,-1.73e-4 0.390554,2.542583 c 0.177165,1.154326 -0.574738,2.240167 -1.679424,2.425293 C 44.185697,55.991069 44.07843,56 43.970992,56 c -1.118802,0 -2.02577,-0.947724 -2.02577,-2.1168 0,-0.112266 0.0085,-0.224353 0.02556,-0.335202 l 0.3896,-2.542583 -2.943715,1.73e-4 C 38.358121,51.005588 37.5,50.108907 37.5,49.002794 37.5,47.896681 38.358121,47 39.416667,47 Z"
         id="path1522"
         fill="#eeeeee" />
    </g>
  </g>
</svg>
