<?xml version="1.0" encoding="utf-8"?>
<!-- Generator: Adobe Illustrator 24.0.0, SVG Export Plug-In . SVG Version: 6.00 Build 0)  -->
<svg version="1.1"
	 id="svg2227" xmlns:inkscape="http://www.inkscape.org/namespaces/inkscape" xmlns:sodipodi="http://sodipodi.sourceforge.net/DTD/sodipodi-0.dtd" xmlns:svg="http://www.w3.org/2000/svg"
	 xmlns="http://www.w3.org/2000/svg" xmlns:xlink="http://www.w3.org/1999/xlink" x="0px" y="0px" viewBox="0 0 78 62"
	 style="enable-background:new 0 0 78 62;" xml:space="preserve">
<style type="text/css">
	.st0{fill:#1CB0F6;stroke:#FFFFFF;stroke-width:4;}
	.st1{fill:#FFFFFF;}
</style>
<sodipodi:namedview  bordercolor="#000000" borderopacity="0.25" id="namedview176" inkscape:current-layer="de-6" inkscape:cx="14.808844" inkscape:cy="-2.3329001" inkscape:deskcolor="#d1d1d1" inkscape:pagecheckerboard="0" inkscape:pageopacity="0.0" inkscape:showpageshadow="2" inkscape:window-height="991" inkscape:window-maximized="1" inkscape:window-width="1920" inkscape:window-x="-9" inkscape:window-y="-9" inkscape:zoom="4.9294867" pagecolor="#ffffff" showgrid="false">
	</sodipodi:namedview>
<defs>
	
		<inkscape:path-effect  apply_no_radius="true" apply_with_radius="true" chamfer_steps="1" effect="fillet_chamfer" flexible="false" hide_knots="false" id="path-effect1612" is_visible="true" lpeversion="1" method="auto" mode="F" nodesatellites_param="F,0,0,1,0,6,0,1 @ F,0,0,1,0,6,0,1 @ F,0,0,1,0,6,0,1 | F,0,0,1,0,6,0,1 @ F,0,0,1,0,6,0,1 | F,0,0,1,0,6,0,1 @ F,0,0,1,0,6,0,1 | F,0,0,1,0,6,0,1 @ F,0,0,1,0,6,0,1 | F,0,0,1,0,6,0,1 @ F,0,0,1,0,6,0,1 | F,0,0,1,0,6,0,1 @ F,0,0,1,0,6,0,1 @ F,0,0,1,0,6,0,1 | F,0,0,1,0,6,0,1 @ F,0,0,1,0,6,0,1 @ F,0,0,1,0,6,0,1 | F,0,0,1,0,6,0,1 @ F,0,0,1,0,6,0,1 | F,0,0,1,0,6,0,1 @ F,0,0,1,0,6,0,1 | F,0,0,1,0,6,0,1 @ F,0,0,1,0,6,0,1 | F,0,0,1,0,6,0,1 @ F,0,0,1,0,6,0,1 | F,0,0,1,0,6,0,1 @ F,0,0,1,0,6,0,1 @ F,0,0,1,0,6,0,1" only_selected="false" radius="6" unit="px" use_knot_distance="true">
		</inkscape:path-effect>
</defs>
<g id="uk">
	<g id="g3146" transform="translate(6.000000, 6.000000)">
		<path id="path3142" class="st0" d="M55.4-4H10.6c-5,0-6.7,0.6-8.5,1.5c-2,1-3.5,2.6-4.5,4.5S-4,5.6-4,10.6v28.9
			c0,4.9,0.6,6.7,1.5,8.5c1,2,2.6,3.5,4.5,4.5c1.8,1,3.6,1.5,8.5,1.5h44.9c4.9,0,6.7-0.6,8.5-1.5c2-1,3.5-2.6,4.5-4.5
			c1-1.8,1.5-3.6,1.5-8.5V10.6c0-4.9-0.6-6.7-1.5-8.5c-1-2-2.6-3.5-4.5-4.5C62.1-3.4,60.4-4,55.4-4z"/>
	</g>
</g>
<g>
	<path id="Shape" class="st1" d="M38.9,44.6C38.9,44.6,38.9,44.6,38.9,44.6C38.9,44.6,39,44.6,38.9,44.6L46.5,33c0,0,0,0,0,0
		c0,0,0,0,0,0h-15c0,0,0,0,0,0c0,0,0,0,0,0L38.9,44.6z M37.1,45.7L29.6,34c-0.6-1-0.3-2.2,0.7-2.8c0.3-0.2,0.7-0.3,1.1-0.3h15
		c1.2,0,2.1,0.9,2.1,2.1c0,0.4-0.1,0.8-0.3,1.1l-7.5,11.6c-0.6,1-1.9,1.3-3,0.7C37.5,46.2,37.3,45.9,37.1,45.7z"/>
	<path id="Triangle" class="st1" d="M39,16.5C39,16.5,39,16.5,39,16.5C39,16.5,38.9,16.5,39,16.5l-3.3,15.3c0,0,0,0,0,0c0,0,0,0,0,0
		h6.7c0,0,0,0,0,0c0,0,0,0,0,0L39,16.5z M39.8,15.1l3.3,15.3c0.3,1.3,0.1,3-0.3,3.8c-0.2,0.3-0.3,0.4-0.5,0.4h-6.7
		c-0.5,0-1-1.2-1-2.7c0-0.5,0-1,0.1-1.4l3.3-15.3c0.3-1.3,0.9-1.7,1.3-0.9C39.6,14.4,39.7,14.7,39.8,15.1z"/>
	<path id="Triangle_1_" class="st1" d="M21,46.6C21,46.6,21,46.6,21,46.6C21,46.6,21,46.6,21,46.6l15.4-4.9c0,0,0,0,0,0c0,0,0,0,0,0
		l-3.3-5.6c0,0,0,0,0,0c0,0,0,0,0,0L21,46.6z M19.3,46.7l12.1-10.4c1-0.9,2.6-1.6,3.5-1.6c0.3,0,0.5,0.1,0.6,0.2l3.3,5.6
		c0.3,0.4-0.6,1.4-2,2.2c-0.5,0.3-0.9,0.5-1.4,0.6L20.1,48c-1.3,0.4-1.9,0.1-1.4-0.7C18.8,47.1,19.1,46.9,19.3,46.7z"/>
	<path id="Triangle_2_" class="st1" d="M56.9,46.6C56.9,46.6,56.9,46.6,56.9,46.6C56.9,46.6,56.9,46.6,56.9,46.6L44.8,36.2
		c0,0,0,0,0,0c0,0,0,0,0,0l-3.3,5.6c0,0,0,0,0,0c0,0,0,0,0,0L56.9,46.6z M57.8,48l-15.4-4.9c-1.3-0.4-2.7-1.4-3.2-2.1
		c-0.2-0.3-0.2-0.5-0.1-0.6l3.3-5.6c0.3-0.4,1.6-0.2,2.9,0.6c0.5,0.3,0.9,0.5,1.2,0.8l12.1,10.4c1,0.9,1.1,1.6,0.1,1.5
		C58.4,48.2,58.1,48.1,57.8,48z"/>
	<polygon class="st1" points="39,15.4 34.7,31.9 30.8,32 32.1,35.9 25.6,41.8 19.8,46.8 20.3,47.3 35.3,42.4 37.2,43.7 39,45.9 
		42.1,42.9 58.4,47.3 52.9,42.1 47.3,38.1 45.5,36.6 47.6,33.3 44.9,32.2 43.1,32.6 42.3,32.3 42.9,31.9 	"/>
</g>
</svg>
