<?xml version="1.0" encoding="utf-8"?>
<!-- Generator: Adobe Illustrator 24.0.0, SVG Export Plug-In . SVG Version: 6.00 Build 0)  -->
<svg version="1.1"
	 id="svg2227" xmlns:inkscape="http://www.inkscape.org/namespaces/inkscape" xmlns:sodipodi="http://sodipodi.sourceforge.net/DTD/sodipodi-0.dtd" xmlns:svg="http://www.w3.org/2000/svg"
	 xmlns="http://www.w3.org/2000/svg" xmlns:xlink="http://www.w3.org/1999/xlink" x="0px" y="0px" viewBox="0 0 78 62"
	 style="enable-background:new 0 0 78 62;" xml:space="preserve">
<style type="text/css">
	.st0{fill:#FF4B4B;stroke:#FFFFFF;stroke-width:4;}
	.st1{fill:#7AC70C;}
	.st2{fill:#EEEEEE;}
	.st3{fill-rule:evenodd;clip-rule:evenodd;fill:#FF4B4B;}
	.st4{fill-rule:evenodd;clip-rule:evenodd;fill:#EEEEEE;}
	.st5{fill:#FF4B4B;}
</style>
<sodipodi:namedview  bordercolor="#000000" borderopacity="0.25" id="namedview176" inkscape:current-layer="de-6" inkscape:cx="14.808844" inkscape:cy="-2.3329001" inkscape:deskcolor="#d1d1d1" inkscape:pagecheckerboard="0" inkscape:pageopacity="0.0" inkscape:showpageshadow="2" inkscape:window-height="991" inkscape:window-maximized="1" inkscape:window-width="1920" inkscape:window-x="-9" inkscape:window-y="-9" inkscape:zoom="4.9294867" pagecolor="#ffffff" showgrid="false">
	</sodipodi:namedview>
<defs>
	
		<inkscape:path-effect  apply_no_radius="true" apply_with_radius="true" chamfer_steps="1" effect="fillet_chamfer" flexible="false" hide_knots="false" id="path-effect1612" is_visible="true" lpeversion="1" method="auto" mode="F" nodesatellites_param="F,0,0,1,0,6,0,1 @ F,0,0,1,0,6,0,1 @ F,0,0,1,0,6,0,1 | F,0,0,1,0,6,0,1 @ F,0,0,1,0,6,0,1 | F,0,0,1,0,6,0,1 @ F,0,0,1,0,6,0,1 | F,0,0,1,0,6,0,1 @ F,0,0,1,0,6,0,1 | F,0,0,1,0,6,0,1 @ F,0,0,1,0,6,0,1 | F,0,0,1,0,6,0,1 @ F,0,0,1,0,6,0,1 @ F,0,0,1,0,6,0,1 | F,0,0,1,0,6,0,1 @ F,0,0,1,0,6,0,1 @ F,0,0,1,0,6,0,1 | F,0,0,1,0,6,0,1 @ F,0,0,1,0,6,0,1 | F,0,0,1,0,6,0,1 @ F,0,0,1,0,6,0,1 | F,0,0,1,0,6,0,1 @ F,0,0,1,0,6,0,1 | F,0,0,1,0,6,0,1 @ F,0,0,1,0,6,0,1 | F,0,0,1,0,6,0,1 @ F,0,0,1,0,6,0,1 @ F,0,0,1,0,6,0,1" only_selected="false" radius="6" unit="px" use_knot_distance="true">
		</inkscape:path-effect>
</defs>
<g>
	<g id="hu">
		<g id="g3102" transform="translate(6.000000, 6.000000)">
			<path id="path3096" class="st0" d="M55.4-4H10.6C5.6-4,3.9-3.4,2.1-2.5c-2,1-3.5,2.6-4.5,4.5C-3.4,3.9-4,5.6-4,10.6v28.9
				c0,4.9,0.6,6.7,1.5,8.5c1,2,2.6,3.5,4.5,4.5c1.8,1,3.6,1.5,8.5,1.5h44.9c4.9,0,6.7-0.6,8.5-1.5c2-1,3.5-2.6,4.5-4.5
				c1-1.8,1.5-3.6,1.5-8.5V10.6c0-4.9-0.6-6.7-1.5-8.5c-1-2-2.6-3.5-4.5-4.5C62.1-3.4,60.4-4,55.4-4z"/>
			<path id="path3098" class="st1" d="M68,34v5.4c0,4.4-0.5,6-1.3,7.5c-0.9,1.6-2.1,2.9-3.7,3.7c-1.6,0.9-3.2,1.3-7.5,1.3H10.6
				c-4.4,0-6-0.5-7.5-1.3c-1.6-0.9-2.9-2.1-3.7-3.7C-1.5,45.4-2,43.8-2,39.4V34H68z"/>
		</g>
	</g>
	<path id="path2776" class="st2" d="M22.6,4v54h-6c-4.4,0-6-0.5-7.5-1.3c-1.6-0.9-2.9-2.1-3.7-3.7C4.5,51.4,4,49.8,4,45.4V16.6
		c0-4.4,0.5-6,1.3-7.5S7.4,6.2,9,5.3S12.2,4,16.6,4H22.6z"/>
	<path id="Rectangle" class="st3" d="M12.7,43L5.6,31.5c-0.2-0.3-0.2-0.7,0-1L12.7,19c0.1-0.2,0.4-0.4,0.6-0.4
		c0.2,0,0.4,0.1,0.5,0.3l7.1,11.5c0.2,0.3,0.2,0.7,0,1l-7,11.4c-0.1,0.2-0.4,0.4-0.6,0.4C13,43.3,12.9,43.2,12.7,43z"/>
	<path id="Rectangle_1_" class="st4" d="M12.9,39.6l-5-8.2c-0.1-0.2-0.1-0.5,0-0.7l5-8.2c0.1-0.2,0.3-0.3,0.4-0.3
		c0.2,0,0.3,0.1,0.4,0.2l5,8.2c0.1,0.2,0.1,0.5,0,0.7l-4.9,8.2c-0.1,0.2-0.3,0.3-0.4,0.3C13.1,39.8,13,39.7,12.9,39.6z"/>
	<path id="Rectangle_2_" class="st3" d="M17.8,11.7l-2.2-2.5c-0.1-0.1-0.1-0.2,0-0.2l2.1-2.5c0-0.1,0.1-0.1,0.2-0.1
		c0.1,0,0.1,0,0.2,0.1l2.1,2.5c0.1,0.1,0.1,0.2,0,0.2l-2.1,2.5c0,0.1-0.1,0.1-0.2,0.1C17.9,11.8,17.8,11.8,17.8,11.7z"/>
	<path id="Rectangle_3_" class="st3" d="M8.4,11.7L6.3,9.3c-0.1-0.1-0.1-0.2,0-0.2l2.1-2.5c0-0.1,0.1-0.1,0.2-0.1
		c0.1,0,0.1,0,0.2,0.1l2.1,2.5c0.1,0.1,0.1,0.2,0,0.2l-2.1,2.5c0,0.1-0.1,0.1-0.2,0.1C8.5,11.8,8.5,11.8,8.4,11.7z"/>
	<path id="Rectangle_5_" class="st3" d="M17.8,55.4l-2.2-2.5c-0.1-0.1-0.1-0.2,0-0.2l2.1-2.5c0-0.1,0.1-0.1,0.2-0.1
		c0.1,0,0.1,0,0.2,0.1l2.1,2.5c0.1,0.1,0.1,0.2,0,0.2l-2.1,2.5c0,0.1-0.1,0.1-0.2,0.1C17.9,55.5,17.8,55.5,17.8,55.4z"/>
	<path id="Rectangle_4_" class="st3" d="M8.4,55.4l-2.2-2.5c-0.1-0.1-0.1-0.2,0-0.2l2.1-2.5c0-0.1,0.1-0.1,0.2-0.1
		c0.1,0,0.1,0,0.2,0.1l2.1,2.5c0.1,0.1,0.1,0.2,0,0.2l-2.1,2.5c0,0.1-0.1,0.1-0.2,0.1C8.5,55.5,8.5,55.5,8.4,55.4z"/>
	<circle id="circle3313" class="st3" cx="13.3" cy="31" r="2.3"/>
	<ellipse id="circle3313_2_" class="st3" cx="11" cy="13.4" rx="1.6" ry="1.5"/>
	<ellipse id="circle3313_1_" class="st3" cx="6.6" cy="13.4" rx="1.6" ry="1.5"/>
	<ellipse id="circle3313_4_" class="st3" cx="19.9" cy="13.4" rx="1.6" ry="1.5"/>
	<ellipse id="circle3313_3_" class="st3" cx="15.6" cy="13.4" rx="1.6" ry="1.5"/>
	<ellipse id="circle3313_8_" class="st3" cx="11" cy="49" rx="1.6" ry="1.5"/>
	<ellipse id="circle3313_7_" class="st3" cx="6.6" cy="49" rx="1.6" ry="1.5"/>
	<ellipse id="circle3313_6_" class="st3" cx="19.9" cy="49" rx="1.6" ry="1.5"/>
	<ellipse id="circle3313_5_" class="st3" cx="15.6" cy="49" rx="1.6" ry="1.5"/>
</g>
<path id="path3570" class="st5" d="M8,20.6c-0.6,0.3-1.3,0-1.3-0.6c0-0.2,0-0.4,0-0.5C6.7,19,6.9,18.5,7.2,18
	C7.6,17.6,8,17.2,8.6,17c0.5-0.3,1.1-0.4,1.7-0.4c0.6,0,1.2,0.1,1.7,0.4c0.5,0.3,1,0.6,1.3,1.1c0.3,0.5,0.5,1,0.6,1.5
	c0,0.2,0,0.4,0,0.5c0,0.6-0.8,0.8-1.3,0.5l-2.3-1.1L8,20.6z"/>
<path id="path3570_1_" class="st5" d="M14,20.6c-0.6,0.3-1.3,0-1.3-0.6c0-0.2,0-0.4,0-0.5c0.1-0.5,0.3-1.1,0.6-1.5
	c0.3-0.4,0.8-0.8,1.3-1.1c0.5-0.3,1.1-0.4,1.7-0.4c0.6,0,1.2,0.1,1.7,0.4c0.5,0.3,1,0.6,1.3,1.1c0.3,0.5,0.5,1,0.6,1.5
	c0,0.2,0,0.4,0,0.5c0,0.6-0.8,0.8-1.3,0.5l-2.3-1.1L14,20.6z"/>
<path id="path3570_3_" class="st5" d="M18.6,41.4c0.6-0.3,1.3,0,1.3,0.6c0,0.2,0,0.4,0,0.5c-0.1,0.5-0.3,1.1-0.6,1.5
	C19,44.4,18.5,44.8,18,45c-0.5,0.3-1.1,0.4-1.7,0.4c-0.6,0-1.2-0.1-1.7-0.4c-0.5-0.3-1-0.6-1.3-1.1c-0.3-0.5-0.5-1-0.6-1.5
	c0-0.2,0-0.4,0-0.5c0-0.6,0.8-0.8,1.3-0.5l2.3,1.1L18.6,41.4z"/>
<path id="path3570_2_" class="st5" d="M12.6,41.4c0.6-0.3,1.3,0,1.3,0.6c0,0.2,0,0.4,0,0.5c-0.1,0.5-0.3,1.1-0.6,1.5
	C13,44.4,12.5,44.8,12,45c-0.5,0.3-1.1,0.4-1.7,0.4c-0.6,0-1.2-0.1-1.7-0.4c-0.5-0.3-1-0.6-1.3-1.1c-0.3-0.5-0.5-1-0.6-1.5
	c0-0.2,0-0.4,0-0.5c0-0.6,0.8-0.8,1.3-0.5l2.3,1.1L12.6,41.4z"/>
</svg>
