<?xml version="1.0" encoding="utf-8"?>
<!-- Generator: Adobe Illustrator 28.1.0, SVG Export Plug-In . SVG Version: 6.00 Build 0)  -->
<svg version="1.1" id="svg44" xmlns="http://www.w3.org/2000/svg" xmlns:xlink="http://www.w3.org/1999/xlink" x="0px" y="0px"
	 width="78px" height="62px" viewBox="0 0 78 62" style="enable-background:new 0 0 78 62;" xml:space="preserve">
<style type="text/css">
	.st0{fill:#FF4B4B;stroke:#FFFFFF;stroke-width:4;}
	.st1{fill:#FFFFFF;}
</style>
<g id="ambassador_00000173131853745160604720000006894276118607360942_">
	<g id="Group-5-Copy_00000164504509542275684310000001652946317551685545_" transform="translate(6.000000, 6.000000)">
		<path id="path3322_00000062160251816369627330000013059808981669313669_" class="st0" d="M49.5-3.9000015h-31
			c-4.9000015,0-6.6999969,0.5999999-8.5,1.5c-2,1-3.5,2.5999999-4.5,4.5c-1,1.8-1.5,3.5999999-1.5,8.5V39.5
			c0,4.9000015,0.5999985,6.7000008,1.5,8.5c1,2,2.5999985,3.5,4.5,4.5c1.8000031,1,3.5999985,1.5,8.5,1.5h31
			c4.8999939,0,6.6999969-0.5999985,8.5-1.5c2-1,3.5-2.5999985,4.5-4.5c1-1.7999992,1.5-3.5999985,1.5-8.5V10.6999989
			c0-4.9000001-0.6000061-6.6999998-1.5-8.5c-1-2-2.6000061-3.5-4.5-4.5C56.1999969-3.3000016,54.3999939-3.9000015,49.5-3.9000015z
			"/>
		<g id="Group-7_00000099655819836235459300000008450135925883627675_" transform="translate(4.000000, 0.000000)">
		</g>
	</g>
</g>
<path class="st1" d="M51.6666679,34.6666679H28.333334C27.0446682,34.6666679,26,33.6219978,26,32.3333321v-4.666666
	c0-1.2886639,1.0446682-2.3333321,2.333334-2.3333321h23.333334C52.9553299,25.333334,54,26.3780022,54,27.666666v4.666666
	C54,33.6219978,52.9553299,34.6666679,51.6666679,34.6666679z"/>
<path class="st1" d="M42.3333321,44h-4.6666641c-1.2886658,0-2.3333359-1.0446701-2.3333359-2.3333321V18.333334
	c0-1.2886658,1.0446701-2.333334,2.3333359-2.333334h4.6666641c1.2886658,0,2.3333359,1.0446682,2.3333359,2.333334v23.333334
	C44.6666679,42.9553299,43.6219978,44,42.3333321,44z"/>
</svg>
