<?xml version="1.0" encoding="UTF-8" standalone="no"?>
<svg
   width="78"
   height="62"
   viewBox="0 0 78 62"
   version="1.1"
   id="svg44"
   xmlns="http://www.w3.org/2000/svg">
  <defs
     id="defs29" />
  <g
     id="yol"
     clip-path="none"
     style="display:inline;fill:#7ac70c;fill-opacity:1"
     transform="matrix(0.93103448,0,0,0.93103448,19.268076,18.651478)">
    <path
       id="path2"
       d="M 45.292549,-17.884921 H -2.9054517 c -5.3003409,0 -7.1921933,0.627807 -9.1218323,1.659788 -2.095228,1.12055 -3.739571,2.764893 -4.860121,4.860121 -1.031981,1.9296388 -1.659788,3.8214914 -1.659788,9.1218323 V 28.769636 c 0,5.300341 0.627807,7.192215 1.659788,9.121789 1.12055,2.095304 2.764893,3.739604 4.860121,4.860185 1.929639,1.031971 3.8214914,1.659767 9.1218323,1.659767 H 45.292549 c 5.300341,0 7.192215,-0.627796 9.12179,-1.659767 2.095303,-1.120581 3.739603,-2.764881 4.860185,-4.860185 1.03197,-1.929574 1.659767,-3.821448 1.659767,-9.121789 V -2.2431797 c 0,-5.3003409 -0.627797,-7.1921935 -1.659767,-9.1218323 -1.120582,-2.095228 -2.764882,-3.739571 -4.860185,-4.860121 -1.929575,-1.031981 -3.821449,-1.659788 -9.12179,-1.659788 z"
       style="fill:#ffc300;stroke:#ffffff;stroke-width:4.2963;stroke-opacity:1" />
    <path
       id="rect4"
       style="fill: #9069cd;stroke-width:1.07407"
       d="m -6.7323777,-15.736773 c -5.3553333,0 -9.6666673,4.311334 -9.6666673,9.6666673 V 32.596562 c 0,5.355333 4.311334,9.666667 9.6666673,9.666667 H 11.526882 21.193549 V 32.596562 -6.0701057 -15.736773 h -9.666667 z" />
    
</svg>
