<?xml version="1.0" encoding="UTF-8" standalone="no"?>
<!-- Created with Inkscape (http://www.inkscape.org/) -->

<svg
   width="78mm"
   height="62mm"
   viewBox="0 0 78 62"
   version="1.1"
   id="svg5"
   inkscape:version="1.1.2 (0a00cf5339, 2022-02-04)"
   sodipodi:docname="flag29.svg"
   xmlns:inkscape="http://www.inkscape.org/namespaces/inkscape"
   xmlns:sodipodi="http://sodipodi.sourceforge.net/DTD/sodipodi-0.dtd"
   xmlns="http://www.w3.org/2000/svg"
   xmlns:svg="http://www.w3.org/2000/svg">
  <sodipodi:namedview
     id="namedview7"
     pagecolor="#ffffff"
     bordercolor="#666666"
     borderopacity="1.0"
     inkscape:pageshadow="2"
     inkscape:pageopacity="0.0"
     inkscape:pagecheckerboard="0"
     inkscape:document-units="mm"
     showgrid="false"
     inkscape:zoom="0.90509668"
     inkscape:cx="93.360193"
     inkscape:cy="132.58252"
     inkscape:window-width="1366"
     inkscape:window-height="699"
     inkscape:window-x="0"
     inkscape:window-y="0"
     inkscape:window-maximized="1"
     inkscape:current-layer="layer1"
     fit-margin-top="0"
     fit-margin-left="0"
     fit-margin-right="0"
     fit-margin-bottom="0" />
  <defs
     id="defs2">
    <path
       d="m 12.563038,0 44.873924,0 c 4.368442,0 5.952545,0.45484549 7.549582,1.3089503 C 66.583581,2.163055 67.836945,3.416419 68.69105,5.013456 69.545154,6.6104931 70,8.1945956 70,12.563038 v 28.873924 c 0,4.368442 -0.454846,5.952545 -1.30895,7.549582 -0.854105,1.597037 -2.107469,2.850401 -3.704506,3.704506 C 63.389507,53.545155 61.805404,54 57.436962,54 H 12.563038 C 8.1945956,54 6.6104931,53.545155 5.013456,52.69105 3.416419,51.836945 2.163055,50.583581 1.3089503,48.986544 0.45484549,47.389507 0,45.805404 0,41.436962 L 0,12.563038 C 0,8.1945956 0.45484549,6.6104931 1.3089503,5.013456 2.163055,3.416419 3.416419,2.163055 5.013456,1.3089503 6.6104931,0.45484549 8.1945956,0 12.563038,0 Z"
       id="path-1" />
  </defs>
  <g
     inkscape:label="Layer 1"
     inkscape:groupmode="layer"
     id="layer1"
     transform="translate(-2,-134)">
    <path
       d="M 63.436962,136 H 18.563038 c -4.934837,0 -6.696219,0.58451 -8.49278,1.54532 -1.950729,1.04327 -3.4816727,2.57421 -4.5249342,4.52494 C 4.5845126,143.86682 4,145.6282 4,150.56304 v 28.87392 c 0,4.93484 0.5845126,6.69622 1.5453238,8.49278 1.0432615,1.95073 2.5742052,3.48167 4.5249342,4.52494 1.796561,0.96081 3.557943,1.54532 8.49278,1.54532 h 44.873924 c 4.934837,0 6.696219,-0.58451 8.49278,-1.54532 1.950729,-1.04327 3.481673,-2.57421 4.524934,-4.52494 C 77.415487,186.13318 78,184.3718 78,179.43696 v -28.87392 c 0,-4.93484 -0.584513,-6.69622 -1.545324,-8.49278 -1.043261,-1.95073 -2.574205,-3.48167 -4.524934,-4.52494 C 70.133181,136.58451 68.371799,136 63.436962,136 Z"
       id="path2774"
       stroke="#ffffff"
       stroke-width="4"
       fill="#eeeeee"
       style="fill:#ff4b4b;fill-opacity:1;fill-rule:nonzero" />
    <path
       d="m 29.625,138 v 54 H 18.563038 c -4.368442,0 -5.952545,-0.45485 -7.549582,-1.30895 -1.597037,-0.8541 -2.850401,-2.10747 -3.7045057,-3.70451 C 6.4548455,185.38951 6,183.8054 6,179.43696 v -28.87392 c 0,-4.36844 0.4548455,-5.95255 1.3089503,-7.54958 0.8541047,-1.59704 2.1074687,-2.85041 3.7045057,-3.70451 C 12.610493,138.45485 14.194596,138 18.563038,138 Z"
       id="path2776"
       fill="#1cb0f6"
       style="fill:#4c4c4c;fill-opacity:1;fill-rule:nonzero;stroke:none;stroke-width:1" />
    <path
       d="m 52.375,138 h 11.061962 c 4.368442,0 5.952545,0.45485 7.549582,1.30895 1.597037,0.8541 2.850401,2.10747 3.704506,3.70451 C 75.545154,144.61049 76,146.1946 76,150.56304 v 28.87392 c 0,4.36844 -0.454846,5.95255 -1.30895,7.54958 -0.854105,1.59704 -2.107469,2.85041 -3.704506,3.70451 C 69.389507,191.54515 67.805404,192 63.436962,192 H 52.375 Z"
       id="path2778"
       fill="#ff4b4b"
       style="fill:#78c800;fill-opacity:1;fill-rule:nonzero;stroke:none;stroke-width:1" />
    <path
       style="opacity:0.98;fill:#eeeeeb;fill-opacity:1;stroke:none;stroke-width:3.432;stroke-linecap:square;stroke-miterlimit:4;stroke-dasharray:none;stroke-opacity:1;paint-order:markers fill stroke"
       id="path4180"
       sodipodi:type="arc"
       sodipodi:cx="41.002129"
       sodipodi:cy="165"
       sodipodi:rx="10.0674"
       sodipodi:ry="10.0674"
       sodipodi:start="3.1438286"
       sodipodi:end="3.1415927"
       sodipodi:open="true"
       sodipodi:arc-type="arc"
       d="M 30.934754,164.97749 A 10.0674,10.0674 0 0 1 41.019011,154.93261 10.0674,10.0674 0 0 1 51.069522,165.01126 10.0674,10.0674 0 0 1 40.996501,175.0674 10.0674,10.0674 0 0 1 30.934729,165" />
    <path
       style="opacity:0.98;fill:#ff4b4b;fill-opacity:1;stroke:none;stroke-width:3.432;stroke-linecap:square;stroke-miterlimit:4;stroke-dasharray:none;stroke-opacity:1;paint-order:markers fill stroke"
       id="path4759"
       sodipodi:type="arc"
       sodipodi:cx="41.001354"
       sodipodi:cy="165"
       sodipodi:rx="6.3030634"
       sodipodi:ry="6.3030634"
       sodipodi:start="3.1438286"
       sodipodi:end="3.1415927"
       sodipodi:open="true"
       sodipodi:arc-type="arc"
       d="m 34.698307,164.98591 a 6.3030634,6.3030634 0 0 1 6.313617,-6.28896 6.3030634,6.3030634 0 0 1 6.29249,6.3101 6.3030634,6.3030634 0 0 1 -6.306583,6.29601 A 6.3030634,6.3030634 0 0 1 34.698291,165" />
    <rect
       style="opacity:0.98;fill:#eeeeeb;fill-opacity:1;stroke:none;stroke-width:9.1086;stroke-linecap:square;stroke-miterlimit:4;stroke-dasharray:none;stroke-opacity:1;paint-order:markers fill stroke"
       id="rect4855"
       width="5.414094"
       height="8.7601881"
       x="38.292953"
       y="160.6199"
       ry="1.5505899" />
  </g>
</svg>
