<?xml version="1.0" encoding="utf-8"?>
<!-- Generator: Adobe Illustrator 28.1.0, SVG Export Plug-In . SVG Version: 6.00 Build 0)  -->
<svg version="1.1" id="svg44" xmlns="http://www.w3.org/2000/svg" xmlns:xlink="http://www.w3.org/1999/xlink" x="0px" y="0px"
	 width="78px" height="62px" viewBox="0 0 78 62" style="enable-background:new 0 0 78 62;" xml:space="preserve">
<style type="text/css">
	.st0{fill:#FF4B4B;stroke:#FFFFFF;stroke-width:4;}
	.st1{fill:none;stroke:#FFC800;stroke-width:2;stroke-linecap:round;stroke-linejoin:round;stroke-miterlimit:10;}
	.st2{fill:none;stroke:#FFC800;stroke-width:4;stroke-linecap:round;stroke-linejoin:round;stroke-miterlimit:10;}
</style>
<path id="path3168_7_" class="st0" d="M61.3499756,2.0499954H16.5499878c-4.9000244,0-6.7000122,0.6000061-8.5,1.5
	c-2,1-3.5,2.6000061-4.5,4.5c-1,1.8000031-1.5,3.6000061-1.5,8.5v28.8999939c0,4.8999939,0.5999756,6.6999969,1.5,8.5
	c1,2,2.5999756,3.5,4.5,4.5000153c1.7999878,1,3.5999756,1.5,8.5,1.5h44.9000244c4.9000244,0,6.7000122-0.6000061,8.5-1.5
	c2-1,3.5-2.6000061,4.5-4.5c1-1.8000031,1.5-3.6000061,1.5-8.5V16.5500107c0-4.8999939-0.5999756-6.6999969-1.5-8.5
	c-1-2-2.5999756-3.5-4.5-4.5C68.0499878,2.6499863,66.3499756,2.0499954,61.3499756,2.0499954z"/>
<path class="st1" d="M42,28c0-8,4-10,4-10s-6,0-6-4c0,4-6,4-6,4s4,2,4,10"/>
<path class="st1" d="M38,28c-8,0-10-4-10-4s0,6-4,6c4,0,4,6,4,6s2-4,10-4"/>
<path class="st1" d="M38,32c0,8-4,10-4,10s6,0,6,4c0-4,6-4,6-4s-4-2-4-10"/>
<path class="st1" d="M42,32c8,0,10,4,10,4s0-6,4-6c-4,0-4-6-4-6s-2,4-10,4"/>
<line class="st2" x1="40" y1="14" x2="40" y2="14"/>
<line class="st2" x1="34" y1="18" x2="34" y2="18"/>
<line class="st2" x1="46" y1="18" x2="46" y2="18"/>
<line class="st2" x1="52" y1="24" x2="52" y2="24"/>
<line class="st2" x1="56" y1="30" x2="56" y2="30"/>
<line class="st2" x1="52" y1="36" x2="52" y2="36"/>
<line class="st2" x1="46" y1="42" x2="46" y2="42"/>
<line class="st2" x1="40" y1="46" x2="40" y2="46"/>
<line class="st2" x1="34" y1="42" x2="34" y2="42"/>
<line class="st2" x1="28" y1="36" x2="28" y2="36"/>
<line class="st2" x1="24" y1="30" x2="24" y2="30"/>
<line class="st2" x1="28" y1="24" x2="28" y2="24"/>
</svg>
