<?xml version="1.0" encoding="UTF-8" standalone="no"?>
<svg
   height="62"
   width="78"
   version="1.1"
   id="svg2227"
   xmlns="http://www.w3.org/2000/svg" >
  <g
     id="nort3300"
     style="fill:none;fill-rule:evenodd;stroke:none;stroke-width:1"
     transform="translate(-2,-2)">
    <g
       id="g1852"
       transform="translate(6,6)"
       style="fill-rule:nonzero">
      <path
         d="M 57.436962,-2 H 12.563038 C 7.6282012,-2 5.8668192,-1.4154874 4.0702583,-0.45467615 2.119529,0.58858529 0.58858529,2.119529 -0.45467615,4.0702583 -1.4154874,5.8668192 -2,7.6282012 -2,12.563038 v 28.873924 c 0,4.934837 0.5845126,6.696219 1.54532385,8.49278 C 0.58858529,51.880471 2.119529,53.411415 4.0702583,54.454676 5.8668192,55.415487 7.6282012,56 12.563038,56 h 44.873924 c 4.934837,0 6.696219,-0.584513 8.49278,-1.545324 1.950729,-1.043261 3.481673,-2.574205 4.524934,-4.524934 C 71.415487,48.133181 72,46.371799 72,41.436962 V 12.563038 C 72,7.6282012 71.415487,5.8668192 70.454676,4.0702583 69.411415,2.119529 67.880471,0.58858529 65.929742,-0.45467615 64.133181,-1.4154874 62.371799,-2 57.436962,-2 Z"
         id="path1846"
         style="fill:#ff4b4b;fill-opacity:1;stroke:#ffffff;stroke-width:4" />
      <rect
         style="opacity:1;fill:#ffc300;fill-opacity:1;stroke:none;stroke-width:7.72678;stroke-linecap:round;stroke-linejoin:round;stroke-miterlimit:4;stroke-dasharray:none;stroke-dashoffset:0;stroke-opacity:1"
         id="rect4764"
         width="8.7443075"
         height="53.979939"
         x="-0.016927538"
         y="0.0025728308" />
      <rect
         style="opacity:1;fill:#ffc300;fill-opacity:1;fill-rule:nonzero;stroke:none;stroke-width:7.72678;stroke-linecap:round;stroke-linejoin:round;stroke-miterlimit:4;stroke-dasharray:none;stroke-dashoffset:0;stroke-opacity:1"
         id="rect4764-5"
         width="8.7443075"
         height="53.979939"
         x="17.471687"
         y="0.0025692582" />
      <rect
         style="opacity:1;fill:#ffc300;fill-opacity:1;fill-rule:nonzero;stroke:none;stroke-width:7.72678;stroke-linecap:round;stroke-linejoin:round;stroke-miterlimit:4;stroke-dasharray:none;stroke-dashoffset:0;stroke-opacity:1"
         id="rect4764-2"
         width="8.7443075"
         height="53.979939"
         x="34.9603"
         y="0.0025693178" />
      <rect
         style="opacity:1;fill:#ffc300;fill-opacity:1;fill-rule:nonzero;stroke:none;stroke-width:7.72678;stroke-linecap:round;stroke-linejoin:round;stroke-miterlimit:4;stroke-dasharray:none;stroke-dashoffset:0;stroke-opacity:1"
         id="rect4764-1"
         width="8.7443075"
         height="53.979939"
         x="52.448914"
         y="0.0025692582" />
      <path
         d="M 57.436962,-2 H 12.563038 C 7.628201,-2 5.866819,-1.415487 4.070258,-0.4546765 2.119529,0.58858548 0.58858502,2.1195285 -0.454676,4.0702585 -1.415487,5.8668195 -2,7.6282005 -2,12.563037 v 28.873925 c 0,4.934837 0.584513,6.696219 1.545324,8.49278 1.04326102,1.950729 2.574205,3.481673 4.524934,4.524934 C 5.866819,55.415487 7.628201,56 12.563038,56 h 44.873924 c 4.934837,0 6.696219,-0.584513 8.492778,-1.545324 1.95073,-1.043261 3.48168,-2.574205 4.52494,-4.524934 C 71.41549,48.133181 72,46.371799 72,41.436962 V 12.563037 C 72,7.6282005 71.41549,5.8668195 70.45468,4.0702585 69.41142,2.1195285 67.88047,0.58858548 65.92974,-0.4546765 64.133181,-1.415487 62.371799,-2 57.436962,-2 Z"
         id="path1846-3"
         style="fill:none;fill-opacity:1;fill-rule:nonzero;stroke:#ffffff;stroke-width:4" />
    </g>
  </g>
</svg>
