<svg id="Layer_3" data-name="Layer 3" xmlns="http://www.w3.org/2000/svg" viewBox="0 0 42 56"><defs><style>.cls-1{fill:#7a4830}.cls-2{fill:#e59b80}.cls-5{fill:#fff}.cls-7{fill:#61361e}</style></defs><path class="cls-1" d="M21.22-.66a4.34 4.34 0 0 1 4.34 4.34v15.09h-8.68V3.69a4.34 4.34 0 0 1 4.34-4.35z" transform="rotate(47.87 21.224 9.052)"/><path class="cls-1" d="M27.44 2.85a4.34 4.34 0 0 1 4.34 4.34v15.08h-8.69V7.19a4.34 4.34 0 0 1 4.35-4.34z" transform="rotate(68.54 27.438 12.561)"/><circle class="cls-2" cx="5.4" cy="28.42" r="5.4"/><circle class="cls-2" cx="36.58" cy="28.42" r="5.4"/><path class="cls-1" d="M14.26-.66a4.34 4.34 0 0 1 4.34 4.35v7.88a7.21 7.21 0 0 1-7.21 7.21H9.92V3.69a4.34 4.34 0 0 1 4.34-4.35z" transform="rotate(27.38 14.252 9.053)"/><path class="cls-2" d="M37.27 22v17.89a8.64 8.64 0 0 1-8.63 8.64H13.3a8.64 8.64 0 0 1-8.64-8.64V22A17.1 17.1 0 0 1 5 18.7a15.81 15.81 0 0 1 1.55-4.27 14.06 14.06 0 0 1 1-1.66A16.21 16.21 0 0 1 14 7.27l.2-.09A16.19 16.19 0 0 1 21 5.7a16.25 16.25 0 0 1 13.42 7.07 13.67 13.67 0 0 1 .73 1.23 16.1 16.1 0 0 1 2.12 8z"/><path d="M37.29 31.59v10.08a7.62 7.62 0 0 1-7.62 7.61H12.24a7.62 7.62 0 0 1-7.62-7.62V31.59z" fill="#b8725e"/><path d="M27.37 35v.52a4.81 4.81 0 0 1-.11 1 4.75 4.75 0 0 1-4.64 3.74h-4A4.75 4.75 0 0 1 14 36.57a4.81 4.81 0 0 1-.11-1V35a.91.91 0 0 1 .9-.9h11.68a.9.9 0 0 1 .9.9z" fill="#a14344"/><path class="cls-5" d="M27.37 35v.52a4.81 4.81 0 0 1-.11 1H14a4.81 4.81 0 0 1-.11-1V35a.91.91 0 0 1 .9-.9h11.68a.9.9 0 0 1 .9.9z"/><path d="M17.5 40.18a4.85 4.85 0 0 0 1.09.13h4a4.85 4.85 0 0 0 1.09-.13 3.35 3.35 0 0 0-6.21 0z" fill="#ef4a4d"/><rect class="cls-5" x="10.22" y="19.4" width="7.64" height="10.58" rx="3.82" ry="3.82"/><rect class="cls-7" x="13.37" y="22.3" width="3.07" height="5.02" rx="1.54" ry="1.54"/><rect class="cls-5" x="24.07" y="19.4" width="7.64" height="10.58" rx="3.82" ry="3.82" transform="rotate(-180 27.89 24.69)"/><rect class="cls-7" x="25.45" y="22.3" width="3.07" height="5.02" rx="1.54" ry="1.54" transform="rotate(180 26.98 24.805)"/><rect x="18.86" y="20.7" width="4.21" height="11.96" rx="1.39" ry="1.39" fill="#d67155"/><path class="cls-2" d="M32.21 25.76l-8.74 3.13 1.51 1.5 5.73-.41 2.89-2.09-1.39-2.13z"/><path class="cls-1" d="M7.54 12.77v19.45a1.49 1.49 0 0 1-2.88.52V22a16.12 16.12 0 0 1 2.88-9.23zM37.27 22v10.74a1.48 1.48 0 0 1-1.39 1 1.49 1.49 0 0 1-1.49-1.49V12.77A16.12 16.12 0 0 1 37.27 22z"/><path class="cls-1" d="M35.15 14v1.69H6.54v-1.26a14.06 14.06 0 0 1 1-1.66A17 17 0 0 1 14 7l.2-.09a14.47 14.47 0 0 1 6.35-1.69L21.1 5A15.93 15.93 0 0 1 28 7a16.45 16.45 0 0 1 6.44 5.6c.22.4.48.96.71 1.4z"/></svg>