<svg id="Layer_3" data-name="Layer 3" xmlns="http://www.w3.org/2000/svg" viewBox="0 0 42 56"><defs><style>.cls-1{fill:#4b4b4b}.cls-2{fill:#8b4824}.cls-3{fill:#a56644}.cls-4{fill:#fff}.cls-5{fill:#2d2d2d}</style></defs><path class="cls-1" d="M25.21 2.83a17.71 17.71 0 0 0-4.15-.5 17.47 17.47 0 0 0-4.12 34.45 17.14 17.14 0 0 0 4.15.5 17.47 17.47 0 0 0 4.12-34.45z"/><path class="cls-2" d="M6.48 28.81V40a5.58 5.58 0 0 1 0-11.16zM41.39 34.39A5.59 5.59 0 0 1 35.8 40h-.12V28.81h.12a5.59 5.59 0 0 1 5.59 5.58z"/><path class="cls-3" d="M13.83 13.19l.93.87a9.2 9.2 0 0 0 12.62 0l.93-.87a4.32 4.32 0 0 1 6.74.91 5.26 5.26 0 0 1 .65 2.56v27a7.73 7.73 0 0 1-7.7 7.71H14.18a7.74 7.74 0 0 1-7.74-7.74v-27a5.37 5.37 0 0 1 .65-2.56 4.32 4.32 0 0 1 6.74-.88z"/><rect class="cls-4" x="10.49" y="24.48" width="8.34" height="11.54" rx="4.17" ry="4.17"/><rect class="cls-5" x="13.93" y="27.65" width="3.35" height="5.47" rx="1.68" ry="1.68"/><rect class="cls-4" x="23.27" y="24.48" width="8.34" height="11.54" rx="4.17" ry="4.17" transform="rotate(180 27.44 30.255)"/><rect class="cls-5" x="24.82" y="27.65" width="3.35" height="5.47" rx="1.68" ry="1.68" transform="rotate(-180 26.49 30.385)"/><path class="cls-2" d="M21 27.48a1.88 1.88 0 0 1 1.88 1.88v7.3h-3.76v-7.3A1.88 1.88 0 0 1 21 27.48z"/><path class="cls-1" d="M36.51 37.35a.84.84 0 0 1-.84-.83V22.41l2.87-2.55-1.2 16.73a.84.84 0 0 1-.83.76zM5.6 37.35a.83.83 0 0 0 .84-.83V22.41l-2.87-2.55 1.2 16.73a.84.84 0 0 0 .83.76z"/><rect class="cls-2" x="17.55" y="33.77" width="6.89" height="3.17" rx="1.58" ry="1.58"/><path class="cls-3" d="M33.54 32.33s-7 0-9.88 5.81l9.34-1.2z"/><path d="M22.58 42.31a8.69 8.69 0 0 1-2.42-.37 1 1 0 0 1 .56-1.94 5.75 5.75 0 0 0 6.9-3 1 1 0 0 1 1.81.86 7.82 7.82 0 0 1-6.85 4.45z" fill="#61361e"/></svg>