<svg viewBox="0 0 42 56" version="1.1" xmlns="http://www.w3.org/2000/svg"><g stroke="none" stroke-width="1" fill="none" fill-rule="evenodd"><path d="M37.202 11c-4.934-5.409-13.319-5.794-18.727-.86-.379.345-.737.712-1.073 1.099L14.134 15l-.347-.851A4.238 4.238 0 0 0 6 14" stroke="#FFCE8E" stroke-width="8" stroke-linecap="round" stroke-linejoin="round"/><rect fill="#FFCE8E" x="19" y="10" width="7" height="7" rx="3.5"/><rect fill="#A66640" x="33.5" y="26" width="7.5" height="7.5" rx="3.75"/><rect fill="#A66640" x="1" y="26" width="7.5" height="7.5" rx="3.75"/><path d="M8.41 14h25.18a3 3 0 0 1 2.976 3.381L32.56 48.636A5 5 0 0 1 27.6 53H14.4a5 5 0 0 1-4.96-4.364L5.434 17.38A3 3 0 0 1 8.409 14z" fill="#A66640"/><path d="M9 14v8.5A2.5 2.5 0 0 1 6.5 25l-.091-.003-.975-7.616A3 3 0 0 1 8.409 14H9z" fill="#C98F5F"/><rect fill="#FFF" x="11" y="19" width="9" height="13" rx="4.5"/><rect fill="#FFF" x="22" y="19" width="9" height="13" rx="4.5"/><rect fill="#303030" x="24" y="23" width="4" height="6" rx="2"/><rect fill="#303030" x="14" y="23" width="4" height="6" rx="2"/><path fill="#A66640" d="M10 18h24v6H10z"/><path stroke="#303030" stroke-width="3" stroke-linecap="round" d="M18.5 20.5H13M28.5 20.5H23"/><path d="M21 27l3.602 11.706A1 1 0 0 1 23.646 40h-5.292a1 1 0 0 1-.956-1.294L21 27z" fill="#884B27"/><rect fill="#FFCE8E" transform="rotate(-50 28.916 13.657)" x="23.916" y="2.157" width="10" height="23" rx="5"/><path d="M14 40c.933 2.375 2.933 3.562 6 3.562" stroke="#884B27" stroke-width="1.5" stroke-linecap="round"/><path d="M7.627 10.346l3.654 1.627-1.627 3.654a4 4 0 1 1-2.027-5.281z" fill="#FFCE8E"/><rect fill="#985934" x="25" y="33" width="1.5" height="1.5" rx=".75"/><rect fill="#985934" x="28" y="34" width="1.5" height="1.5" rx=".75"/><rect fill="#985934" x="15" y="33" width="1.5" height="1.5" rx=".75"/><rect fill="#985934" x="12" y="34" width="1.5" height="1.5" rx=".75"/><rect fill="#985934" x="30" y="32" width="1.5" height="1.5" rx=".75"/><rect fill="#985934" x="10" y="32" width="1.5" height="1.5" rx=".75"/></g></svg>