<svg id="Layer_3" data-name="Layer 3" xmlns="http://www.w3.org/2000/svg" viewBox="0 0 42 56"><defs><style>.cls-1{fill:#8b4824}.cls-2{fill:#a56644}.cls-3{fill:#fff}.cls-4{fill:#4b4b4b}.cls-5{fill:#2d2d2d}</style></defs><path class="cls-1" d="M37.26 22.41a3.39 3.39 0 0 1 3.39 3.39v6.31a3.55 3.55 0 0 1-3.55 3.55h-3.23V25.8a3.39 3.39 0 0 1 3.39-3.39z" transform="rotate(20.85 37.262 29.051)"/><path class="cls-1" d="M1.31 22.41h3.22A3.55 3.55 0 0 1 8.08 26v6.31a3.39 3.39 0 0 1-3.38 3.35 3.39 3.39 0 0 1-3.39-3.39v-9.86z" transform="rotate(159.15 4.696 29.036)"/><path class="cls-2" d="M21.11 0A14.79 14.79 0 0 1 35.9 14.78v27a3.78 3.78 0 0 1-1.68 3.14L28 49.16a12.3 12.3 0 0 1-13.68 0L8 44.94a3.79 3.79 0 0 1-1.67-3.14v-27A14.78 14.78 0 0 1 21.11 0z"/><rect class="cls-3" x="9.78" y="20.09" width="8.99" height="12.44" rx="4.49" ry="4.49"/><rect class="cls-4" x="13.49" y="23.5" width="3.61" height="5.9" rx="1.81" ry="1.81"/><rect class="cls-3" x="23.57" y="20.09" width="8.99" height="12.44" rx="4.49" ry="4.49" transform="rotate(180 28.06 26.315)"/><rect class="cls-4" x="25.23" y="23.5" width="3.61" height="5.9" rx="1.81" ry="1.81" transform="rotate(180 27.035 26.455)"/><path class="cls-5" d="M13.58 44h15.07v4.24a4.07 4.07 0 0 1-4.07 4.07h-6.93a4.07 4.07 0 0 1-4.07-4.07V44z"/><path class="cls-5" d="M27.63 41.59a1 1 0 0 1 1 1v6h-2v-6a1 1 0 0 1 1-1zM14.59 41.59a1 1 0 0 1 1 1v6h-2v-6a1 1 0 0 1 1-1z"/><path class="cls-2" d="M23.62 41.69h3v3.78a1.5 1.5 0 0 1-1.5 1.5 1.5 1.5 0 0 1-1.5-1.5v-3.78zM15.61 41.69h3v3.78a1.5 1.5 0 0 1-1.5 1.5 1.5 1.5 0 0 1-1.5-1.5v-3.78z"/><path class="cls-1" d="M30.43 38.5a.85.85 0 0 1-.77-.49l-1-2.11a.86.86 0 0 1 1.55-.76l1 2.11a.86.86 0 0 1-.39 1.16.85.85 0 0 1-.39.09zM12.25 38.5a.85.85 0 0 1-.38-.09.86.86 0 0 1-.39-1.16l1-2.11a.86.86 0 0 1 1.55.76L13 38a.85.85 0 0 1-.75.5z"/><path d="M11.44 10.34a1.76 1.76 0 0 1-1-.3 1.71 1.71 0 0 1-.44-2.4 14.26 14.26 0 0 1 9.12-6 1.72 1.72 0 0 1 .5 3.36 10.83 10.83 0 0 0-6.75 4.6 1.75 1.75 0 0 1-1.43.74z" opacity=".3" fill="#fff"/><path class="cls-5" d="M21.78 42.23h-1.34a1.83 1.83 0 0 0-1.83 1.83v.27h5v-.27a1.84 1.84 0 0 0-1.83-1.83z"/><path class="cls-2" d="M8.9 18.34h24.25v4.51H8.9z"/><rect class="cls-1" x="19.23" y="20.56" width="3.85" height="13.34" rx="1.87" ry="1.87"/><rect class="cls-5" x="22.78" y="21.48" width="11.45" height="4.7" rx="1.49" ry="1.49"/><rect class="cls-5" x="8.13" y="21.48" width="11.45" height="4.7" rx="1.49" ry="1.49"/><path class="cls-3" d="M15.58 37h11.49a1 1 0 0 1 1 1 2.59 2.59 0 0 1-2.59 2.59h-8.29a2.59 2.59 0 0 1-2.6-2.59 1 1 0 0 1 1-1z"/></svg>