<svg viewBox="0 0 42 56" version="1.1" xmlns="http://www.w3.org/2000/svg"><g stroke="none" stroke-width="1" fill="none" fill-rule="evenodd"><path d="M40.334 41.684h.394c.412 0 .745.333.745.745a7.54 7.54 0 0 1-7.295 7.535l-.244.004H8.001a7.539 7.539 0 0 1-7.539-7.54c0-.327.211-.605.505-.705l-.033-.032c1.765 0 1.895-1.498 1.904-2.235l.001-22.46a6.96 6.96 0 0 1 6.96-6.96h21.87a6.96 6.96 0 0 1 6.96 6.96v22.466c.01.71.134 2.113 1.705 2.222z" fill="#FFB100" fill-rule="nonzero"/><path d="M11.786 14.841h17.315a6.545 6.545 0 0 1 6.545 6.545v28.333H5.242V21.386a6.545 6.545 0 0 1 6.544-6.545z" fill="#FFC6B7"/><rect fill="#FFB100" x="3.39" y="13.598" width="5" height="11.764" rx="2.5"/><rect fill="#FFB100" x="32.829" y="13.598" width="5" height="11.764" rx="2.5"/><path d="M16.254 19.11a3.906 3.906 0 0 1 3.906 3.907v2.376a3.906 3.906 0 0 1-7.812 0v-2.376a3.906 3.906 0 0 1 3.906-3.906z" fill="#FFF"/><path d="M17.333 21.43c.968 0 1.753.785 1.753 1.754v2.203a1.754 1.754 0 0 1-3.507 0v-2.203c0-.969.785-1.754 1.754-1.754z" fill="#3D3D3D"/><circle fill="#FFF" cx="15.786" cy="21.803" r="1.284"/><path d="M25.45 19.11a3.906 3.906 0 0 0-3.906 3.907v2.376a3.906 3.906 0 0 0 7.812 0v-2.376a3.906 3.906 0 0 0-3.906-3.906z" fill="#FFF"/><path d="M24.375 21.43c-.968 0-1.753.785-1.753 1.754v2.203a1.754 1.754 0 1 0 3.507 0v-2.203c0-.969-.785-1.754-1.754-1.754z" fill="#3D3D3D"/><circle fill="#FFF" transform="matrix(-1 0 0 1 46.21 0)" cx="23.105" cy="21.803" r="1.284"/><path d="M20.824 31.41c.961 0 1.74-.778 1.74-1.739 0-.96-1.74-3.231-1.74-3.231s-1.74 2.271-1.74 3.231.78 1.74 1.74 1.74z" fill="#F3A577"/><path d="M12.54 27.848c2.016.117 3.617.973 4.805 2.568" stroke="#FFC6B7" stroke-width="1.574"/><circle fill="#FFC6B7" cx="3.875" cy="26.232" r="3.355"/><circle fill="#FFC6B7" cx="37.262" cy="26.232" r="3.355"/><path d="M12.68 29.533a2.818 2.818 0 0 1 3.356 1.32c.424.584 1.042 1.128 1.907 1.317l.326.033a2.817 2.817 0 0 1-.537 5.608c-3.42-.3-5.898-1.87-6.84-4.719a2.817 2.817 0 0 1 1.788-3.559z" fill="#702323" fill-rule="nonzero"/><path d="M19.623 34.807c.403 0 .795.047 1.17.135a2.817 2.817 0 0 1-3.062 2.869c-.9-.08-1.735-.246-2.494-.501a5.091 5.091 0 0 1 4.386-2.503z" fill="#D54848" fill-rule="nonzero"/><path d="M14.79 29.67l.049.11c.067.17.104.355.104.549v.745c0 .824-.668 1.492-1.491 1.492h-1.16c-.692 0-1.273-.471-1.442-1.11a2.814 2.814 0 0 1 3.94-1.786z" fill="#FFF" fill-rule="nonzero"/><path d="M16.036 30.854c.424.583 1.042 1.127 1.907 1.316l.369.04c-.26.222-.598.356-.967.356h-1.16a1.491 1.491 0 0 1-1.49-1.492v-1.448c.558.245 1.036.67 1.341 1.228z" fill="#FFF" fill-rule="nonzero"/><rect fill="#FF4B4B" x="1.845" y="13.35" width="37.771" height="4.391" rx="1.077"/><rect fill="#FFB100" x="13.278" y="2" width="14.912" height="14.912" rx="7.456"/><path d="M12.736 4.206l7.127 7.766a.825.825 0 0 1-.275 1.304c-2.45 1.093-5.372.477-7.215-1.575-1.843-2.051-2.148-5.029-.808-7.357.28-.484.798-.554 1.171-.138z" fill="#FFB100" fill-rule="nonzero"/><rect fill="#FF4B4B" x="4" y="46" width="33" height="7" rx=".911"/><path fill="#D8D8D8" d="M20 46h2v7h-2z"/></g></svg>