<svg id="Layer_3" data-name="Layer 3" xmlns="http://www.w3.org/2000/svg" viewBox="0 0 42 56"><defs><style>.cls-1{fill:#db8f73}.cls-2{fill:#666161}.cls-3{fill:#ce7455}.cls-4{fill:#8e4d2c}</style></defs><path class="cls-1" d="M11.3 27.21h19.59v12.35a3.64 3.64 0 0 1-3.64 3.64h-12.3a3.64 3.64 0 0 1-3.64-3.64V27.21h-.01z"/><path class="cls-1" d="M16.12 37.36h10v7.24a1.85 1.85 0 0 1-1.85 1.85H18a1.85 1.85 0 0 1-1.85-1.85v-7.24h-.03z"/><circle class="cls-1" cx="7.16" cy="25.5" r="6.95"/><circle class="cls-1" cx="35.03" cy="25.5" r="6.95"/><path class="cls-2" d="M33.81 31.55H8.14A2.74 2.74 0 0 1 5.41 29l-.95-14h33l-.89 14a2.77 2.77 0 0 1-2.76 2.55z"/><rect class="cls-1" x="7.46" y="2.49" width="27.27" height="32.17" rx="7.88" ry="7.88"/><path class="cls-3" d="M7.46 17.84h27.27v4.39H7.46z"/><rect class="cls-2" x="11.3" y="30.14" width="19.58" height="7.13" rx="3.57" ry="3.57"/><rect class="cls-3" x="18.1" y="18.3" width="5.99" height="13.37" rx="2.35" ry="2.35"/><path class="cls-3" d="M29.1 27.45a1 1 0 0 1-.37-.07L25.28 26a1 1 0 1 1 .72-1.84l3.46 1.36a1 1 0 0 1-.37 1.93z"/><path class="cls-4" d="M30.89 24.94a1.12 1.12 0 0 1-.31-.05l-.23-.08a6.76 6.76 0 0 0-4.73.07.93.93 0 0 1-.62-1.73 8.63 8.63 0 0 1 6-.09l.24.08a.93.93 0 0 1-.31 1.8z"/><path class="cls-3" d="M13.06 27.45a1 1 0 0 1-.37-1.93l3.45-1.36a1 1 0 0 1 .74 1.84l-3.46 1.36a.92.92 0 0 1-.36.09z"/><path class="cls-4" d="M11.27 24.94a.93.93 0 0 1-.31-1.8l.23-.08a8.66 8.66 0 0 1 6 .09.93.93 0 1 1-.67 1.73 6.81 6.81 0 0 0-4.73-.07l-.24.08a1 1 0 0 1-.28.05z"/><path d="M41.38 18.83H.81a.62.62 0 0 1-.42-1.07l6.47-6h28.48l6.46 6a.62.62 0 0 1-.42 1.07z" fill="#fecd92"/><path d="M36.38 12.81H5.81l1.81-5.26 2-6A2.29 2.29 0 0 1 11.84 0h18.52a2.3 2.3 0 0 1 2.18 1.56l2.05 6z" fill="#e3a15f"/><path fill="#4b4b4b" d="M36.38 12.8H5.81l1.81-5.25h26.97l1.79 5.25z"/></svg>