<svg id="Layer_3" data-name="Layer 3" xmlns="http://www.w3.org/2000/svg" viewBox="0 0 42 56"><defs><style>.cls-1{fill:#2d2d2d}.cls-2{fill:#ffca8a}.cls-3{fill:#fff}.cls-4{fill:#f0aa6a}.cls-5{fill:#00aef8}.cls-6{fill:#ddd}</style></defs><g id="Layer_3-2" data-name="Layer 3"><path class="cls-1" d="M.68 46.73l4.07-25.1h32.49l4.06 25.1a5.52 5.52 0 0 1-5.45 6.41H6.13a5.52 5.52 0 0 1-5.45-6.41z"/><path class="cls-2" d="M21.09 49.11a14.32 14.32 0 0 1-14.3-14.32v-7.12a11.86 11.86 0 0 1 11.87-11.83h4.89A11.88 11.88 0 0 1 35.42 27.7v7.09a14.33 14.33 0 0 1-14.33 14.32z"/><path class="cls-3" d="M15 26.85a3.91 3.91 0 0 1 3.91 3.91v3A3.91 3.91 0 0 1 15 37.67a3.91 3.91 0 0 1-3.91-3.91v-3A3.91 3.91 0 0 1 15 26.85z"/><rect class="cls-1" x="14.31" y="29.82" width="3.14" height="5.13" rx="1.57" ry="1.57"/><path class="cls-3" d="M27 37.68a3.91 3.91 0 0 1-3.91-3.91v-3A3.91 3.91 0 0 1 27 26.86a3.91 3.91 0 0 1 3.91 3.91v3A3.91 3.91 0 0 1 27 37.68z"/><path class="cls-1" d="M26.1 35a1.57 1.57 0 0 1-1.57-1.57v-2a1.57 1.57 0 0 1 1.57-1.57 1.57 1.57 0 0 1 1.57 1.57v2A1.57 1.57 0 0 1 26.1 35z"/><path class="cls-2" d="M9.15 23.23h23.92v7.46H9.15z"/><path class="cls-1" d="M31 23.58l1 1.25A17.16 17.16 0 0 1 36.2 36V22.23z"/><circle class="cls-4" cx="20.98" cy="37.04" r="2.35"/><path class="cls-5" d="M36.86 22.49C36.86 10.07 32.48 0 20.76 0 9.52 0 4.65 10.07 4.65 22.49z"/><path class="cls-5" d="M37.46 25.61H3.93a1.69 1.69 0 0 1-1.69-1.69 1.63 1.63 0 0 1 0-.31l.61-7.76a3 3 0 0 1 3-2.77h29.71a2.81 2.81 0 0 1 2.79 2.54l.8 8.15a1.69 1.69 0 0 1-1.55 1.83z"/><path class="cls-6" d="M16.21 16.35a1.19 1.19 0 0 1 0 1.69l-4.52 4.53a1.2 1.2 0 0 1-1.7 0 1.2 1.2 0 0 1 0-1.7l4.52-4.52a1.2 1.2 0 0 1 1.7 0z"/><path class="cls-6" d="M16.2 22.57a1.19 1.19 0 0 1-1.69 0L10 18.05a1.2 1.2 0 0 1 0-1.7 1.2 1.2 0 0 1 1.7 0l4.52 4.52a1.2 1.2 0 0 1-.02 1.7z"/></g><path class="cls-4" d="M21 31.29a1 1 0 0 1 1 1V37h-2v-4.74a1 1 0 0 1 1-.97z"/><path class="cls-3" d="M26.87 39.34a1.18 1.18 0 0 1 1.55 1 5.37 5.37 0 0 1-9.81 3.28 1.17 1.17 0 0 1 .62-1.75z"/><path class="cls-1" d="M18.63 25.61H39a1 1 0 0 1 1 1 4.68 4.68 0 0 1-4.68 4.68h-12a4.68 4.68 0 0 1-4.68-4.68v-1h-.01z"/><rect class="cls-1" x="9.95" y="29.79" width="9.64" height="1.53" rx=".76" ry=".76"/></svg>