<svg id="Layer_3" data-name="Layer 3" xmlns="http://www.w3.org/2000/svg" viewBox="0 0 42 56"><defs><style>.cls-1{fill:#2d2d2d}.cls-2{fill:#dc8e70}.cls-3{fill:#cf7451}.cls-4{fill:#ff9500}.cls-7{fill:#fff}</style></defs><circle class="cls-1" cx="21" cy="18.2" r="18.26"/><path class="cls-1" d="M35.4 48.6H6.6a5.86 5.86 0 0 1-5.86-5.86l2-25.37h36.52l2 25.37a5.86 5.86 0 0 1-5.86 5.86z"/><circle class="cls-2" cx="37.64" cy="32.23" r="4.2"/><circle class="cls-2" cx="4.44" cy="31.14" r="4.29"/><path class="cls-2" d="M36.26 22.56v11.06A15.26 15.26 0 0 1 21 48.87 15.26 15.26 0 0 1 5.74 33.61v-11a8.88 8.88 0 0 1 8.88-8.88h12.76a8.88 8.88 0 0 1 8.88 8.83z"/><path class="cls-1" d="M31.14 10.83S30 21 3.75 23.46L7.49 9.09z"/><rect class="cls-3" x="29.22" y="36.81" width="1.68" height="3.54" rx=".84" ry=".84"/><rect class="cls-3" x="10.49" y="36.81" width="1.68" height="3.54" rx=".84" ry=".84"/><rect class="cls-3" x="19.23" y="23.94" width="3.54" height="11.46" rx="1.77" ry="1.77"/><circle class="cls-3" cx="21" cy="34.61" r="2.95"/><path class="cls-4" d="M4.75 44.62a1 1 0 0 1-1-1v-9.8a1 1 0 0 1 2 0v9.8a1 1 0 0 1-1 1zM36.87 44.62a1 1 0 0 1-1-1v-9.8a1 1 0 0 1 2 0v9.8a1 1 0 0 1-1 1z"/><path d="M23.19 38.14A2.52 2.52 0 0 0 21 39.49h-.27a2.5 2.5 0 0 0-2.21-1.35 10.81 10.81 0 0 0-4.38 1.16 13.49 13.49 0 0 0 10.72 1.6 13 13 0 0 0 3-1.21c-.86-.91-3.6-1.55-4.67-1.55z" fill="#9d302e"/><path d="M14.12 39.3s.84 4.76 6.73 4.76 7-4.37 7-4.37l-6.9 1z" fill="#f54642"/><path class="cls-1" d="M29.43 23.22h3.49a1.33 1.33 0 0 1 1.33 1.33V26a5.65 5.65 0 0 1-5.65 5.65h-3.49a1.33 1.33 0 0 1-1.33-1.33v-1.45a5.65 5.65 0 0 1 5.65-5.65z" transform="rotate(-180 29.015 27.435)"/><path class="cls-7" d="M32.93 26.4v.46a5.65 5.65 0 0 1-5.65 5.64h-2.49a1.33 1.33 0 0 1-1.33-1.33v-.45a5.65 5.65 0 0 1 5.48-5.64h2.66a1.34 1.34 0 0 1 1.33 1.32z"/><path class="cls-1" d="M9.08 23.22h3.49a5.65 5.65 0 0 1 5.65 5.65v1.45a1.33 1.33 0 0 1-1.33 1.33H13.4A5.65 5.65 0 0 1 7.75 26v-1.45a1.33 1.33 0 0 1 1.33-1.33z"/><path class="cls-7" d="M18.55 30.72v.45a1.33 1.33 0 0 1-1.33 1.33h-2.5a5.65 5.65 0 0 1-5.64-5.64v-.46a1.33 1.33 0 0 1 1.33-1.33h2.66a5.64 5.64 0 0 1 5.48 5.64z"/><path class="cls-1" d="M16.83 26.26v1.87a2.08 2.08 0 0 1-4.15 0V24.3c0-.46 3.17 1.01 4.15 1.96zM29.33 24.3v3.83a2.08 2.08 0 0 1-4.15 0v-1.86c.98-.96 4.15-2.43 4.15-1.97z"/></svg>