<svg viewBox="0 0 42 56" version="1.1" xmlns="http://www.w3.org/2000/svg"><g stroke="none" stroke-width="1" fill="none" fill-rule="evenodd"><g transform="translate(.996 -.972)"><rect fill="#2D2D2D" x="14.435" y="1" width="11.284" height="20" rx="5.642"/><rect fill="#2D2D2D" transform="rotate(90 19.642 17)" x="14" y="0" width="11.284" height="34" rx="5.642"/><path d="M31.553 5.16a5.098 5.098 0 0 1 .003 7.404l-5.63 5.334a5.688 5.688 0 0 1-7.82.004 5.098 5.098 0 0 1-.004-7.404l5.63-5.334a5.688 5.688 0 0 1 7.82-.004z" fill="#2D2D2D"/><path d="M8.273 5.16a5.098 5.098 0 0 0-.004 7.404l5.63 5.334a5.688 5.688 0 0 0 7.82.004 5.098 5.098 0 0 0 .004-7.404l-5.63-5.334a5.688 5.688 0 0 0-7.82-.004z" fill="#2D2D2D"/><path d="M.827 20.443a.833.833 0 0 0 .225 1.157 9.167 9.167 0 0 0 12.726-2.474.833.833 0 0 0-.235-1.163l-.195-.128c-4.193-2.663-9.743-1.51-12.52 2.608z" fill="#FFAADE" fill-rule="nonzero"/><path d="M4.431 9.458a.833.833 0 0 1 .876-.789 9.167 9.167 0 0 1 8.674 9.634.833.833 0 0 1-.887.788l-.233-.015c-4.951-.396-8.69-4.658-8.43-9.618z" fill="#FFAADE" fill-rule="nonzero"/><circle fill="#FFAADE" cx="20" cy="23.5" r="10.5"/><path d="M15.345 16h9.31a7 7 0 0 1 6.94 6.08l2.869 21.632a6 6 0 0 1-3.023 6.028l-7.97 4.45a7 7 0 0 1-6.797.014l-8.09-4.47a6 6 0 0 1-3.045-6.041l2.867-21.614A7 7 0 0 1 15.345 16z" fill="#A56644"/><path d="M22 16v7a2 2 0 1 1-4 0v-7h4z" fill="#2D2D2D"/><rect fill="#A56644" x="1" y="33" width="38" height="9" rx="4.5"/><path d="M30.255 38h-8.03v-2.954A4.58 4.58 0 0 1 26.24 30.5l2.891-.36a1 1 0 0 1 1.124.992V38z" fill="#2D2D2D" fill-rule="nonzero"/><rect fill="#FFF" fill-rule="nonzero" transform="rotate(180 26.24 37.5)" x="22.225" y="32" width="8.029" height="11" rx="4.015"/><rect fill="#2D2D2D" fill-rule="nonzero" transform="rotate(180 25 37.5)" x="23" y="34" width="4" height="7" rx="2"/><path d="M10.225 38h8.03v-2.954A4.58 4.58 0 0 0 14.24 30.5l-2.891-.36a1 1 0 0 0-1.124.992V38z" fill="#2D2D2D" fill-rule="nonzero"/><rect fill="#FFF" fill-rule="nonzero" transform="matrix(1 0 0 -1 0 75)" x="10.225" y="32" width="8.029" height="11" rx="4.015"/><path d="M31.594 22.08l1.055 7.951h-.394a4 4 0 0 1-4-4v-9.035a6.995 6.995 0 0 1 3.34 5.083zM11.545 17.12l.001 8.912a4 4 0 0 1-4 4H7.35l1.056-7.953a6.993 6.993 0 0 1 3.14-4.958zM24.655 16c.82 0 1.61.142 2.345.403V23a2 2 0 1 1-4 0v-7h1.655zM17 16v7a2 2 0 1 1-4 0l-.001-6.596A6.987 6.987 0 0 1 15.345 16H17z" fill="#2D2D2D"/><rect fill="#FFC800" transform="rotate(7 4.89 46.146)" x="3.391" y="41.146" width="3" height="10" rx="1"/><rect fill="#FFC800" transform="scale(-1 1) rotate(7 0 -529.18)" x="33.691" y="41.185" width="3" height="10" rx="1"/><rect fill="#2D2D2D" fill-rule="nonzero" transform="rotate(180 15.472 37.327)" x="13.472" y="33.827" width="4" height="7" rx="2"/><path d="M19.372 38h1.7a1.5 1.5 0 0 1 1.449 1.116l.98 3.696a1.5 1.5 0 0 1-1.45 1.884h-3.783a1.5 1.5 0 0 1-1.437-1.93l1.104-3.695A1.5 1.5 0 0 1 19.372 38z" fill="#8B4824"/><path d="M15.768 46.402a5 5 0 0 0 6.83 1.83" stroke="#943B0B" stroke-width="2" stroke-linecap="round" stroke-linejoin="round"/></g></g></svg>