<svg id="Layer_3" data-name="Layer 3" xmlns="http://www.w3.org/2000/svg" viewBox="0 0 42 56"><defs><style>.cls-1{fill:#2d2d2d}.cls-2{fill:#a56640}.cls-3{fill:#f54642}.cls-4{fill:#fff}.cls-5{fill:#8b481f}</style></defs><path class="cls-1" d="M6.58 30.27l-4.23-12A14 14 0 0 1 15.71 0h16.13l2.73 30.29z"/><path class="cls-1" d="M29.9 2.48H15.71a11.54 11.54 0 0 0-11 15l3.63 10.29h28z"/><path class="cls-1" d="M34.36 27.77l2-18.83a6.46 6.46 0 0 0-6.46-6.46"/><path class="cls-1" d="M34.37 30.51h-.27a2.52 2.52 0 0 1-2.26-2.78L33.82 9a3.93 3.93 0 0 0-3.92-3.8 2.54 2.54 0 0 1 0-5.07 9 9 0 0 1 9 9v.26l-2 18.84a2.53 2.53 0 0 1-2.53 2.28z"/><path class="cls-2" d="M36.35 31.1a3 3 0 0 1 3 3v5.63a3.17 3.17 0 0 1-3.17 3.17h-2.85v-8.8a3 3 0 0 1 3-3z" transform="rotate(20.85 36.37 37.026)"/><path class="cls-2" d="M1.93 31.1h2.88A3.17 3.17 0 0 1 8 34.27v5.63a3 3 0 0 1-3 3 3 3 0 0 1-3-3v-8.8z" transform="rotate(159.15 4.96 37.015)"/><path class="cls-2" d="M35.32 23.66v13a14.67 14.67 0 0 1-14.67 14.71A14.69 14.69 0 0 1 6 36.68v-13a5.13 5.13 0 0 1 5.13-5.12H30.2a5.12 5.12 0 0 1 5.12 5.1z"/><path class="cls-3" d="M36.35 26.58v1.78a11.8 11.8 0 0 1-1.08 5.1 7.75 7.75 0 0 0 .1-1.29c0-6.3-6.59-11.42-14.71-11.42S6 25.9 6 32.2a8.2 8.2 0 0 0 .1 1.32v-.09A11.93 11.93 0 0 1 5 28.37v-1.79a16 16 0 0 1 15.7-16.14 16 16 0 0 1 15.7 16.14z"/><rect class="cls-1" x="10.56" y="24.55" width="8.38" height="11.6" rx="4.19" ry="4.19"/><rect class="cls-1" x="22.41" y="24.55" width="8.38" height="11.6" rx="4.19" ry="4.19" transform="rotate(180 26.605 30.35)"/><rect class="cls-4" x="10.56" y="26.05" width="8.38" height="11.6" rx="4.19" ry="4.19"/><rect class="cls-1" x="14.02" y="29.23" width="3.37" height="5.5" rx="1.68" ry="1.68"/><rect class="cls-4" x="22.41" y="26.05" width="8.38" height="11.6" rx="4.19" ry="4.19" transform="rotate(180 26.605 31.85)"/><rect class="cls-1" x="23.97" y="29.23" width="3.37" height="5.5" rx="1.68" ry="1.68" transform="rotate(-180 25.65 31.975)"/><path class="cls-5" d="M23.05 40.27h-4.81A1.53 1.53 0 0 1 16.91 38L18 36.08a2.35 2.35 0 0 1 2.05-1.19h1.19a2.34 2.34 0 0 1 2 1.19L24.37 38a1.53 1.53 0 0 1-1.32 2.27z"/><path d="M22.55 41.54a2 2 0 0 0-1.79 1.1h-.22a2 2 0 0 0-1.79-1.1 8.79 8.79 0 0 0-3.54.94 10.67 10.67 0 0 0 2.69 1.22 11 11 0 0 0 6 .08 10.54 10.54 0 0 0 2.45-1 7.29 7.29 0 0 0-3.8-1.24z" fill="#9d302e"/><path class="cls-3" d="M15.21 42.48s.68 3.86 5.44 3.86 5.69-3.54 5.69-3.54l-5.58.84z"/><path class="cls-1" d="M37.42 8.86H17.75l-3-8.86h22.67a4.43 4.43 0 0 1 4.43 4.44 4.43 4.43 0 0 1-4.43 4.42z"/><path class="cls-1" d="M35.64 16.77l-18-8 .45-4.89 4.12-2.79 17 7.52a4.44 4.44 0 0 1 2.29 5.89 4.45 4.45 0 0 1-5.86 2.27z"/><path class="cls-1" d="M24.71 20.58L8.77 9.06l1.45-4.68 4.62-1.88 15.07 10.89a4.44 4.44 0 0 1 1 6.2 4.44 4.44 0 0 1-6.2.99z"/><path class="cls-5" d="M20.71 29a1 1 0 0 1 1 1v5.77h-2V30a1 1 0 0 1 1-1z"/></svg>