<svg id="Layer_3" data-name="Layer 3" xmlns="http://www.w3.org/2000/svg" viewBox="0 0 42 56"><defs><style>.cls-1{fill:#62361b}.cls-2{fill:#ffb49e}.cls-3{fill:#6f4ba2}.cls-4{fill:#ff9c86}.cls-5{fill:#fff}.cls-6{fill:#4b4b4b}</style></defs><path class="cls-1" d="M41.7 20.75a20.76 20.76 0 1 1-2.26-9.4 20.51 20.51 0 0 1 2.26 9.4z"/><circle class="cls-2" cx="35.17" cy="34.41" r="4.65"/><circle class="cls-2" cx="6.37" cy="34.41" r="4.65"/><rect class="cls-3" x="4.91" y="36.7" width="3.26" height="6.48" rx="1.63" ry="1.63"/><rect class="cls-3" x="34.08" y="36.7" width="3.26" height="6.48" rx="1.63" ry="1.63"/><path class="cls-2" d="M11.64 11.18h18.78a4.43 4.43 0 0 1 4.43 4.43v18.16A13.83 13.83 0 0 1 21 47.6 13.83 13.83 0 0 1 7.21 33.77V15.62a4.43 4.43 0 0 1 4.43-4.43z" transform="rotate(-180 21.035 29.39)"/><circle class="cls-4" cx="20.96" cy="35.03" r="2.63"/><rect class="cls-5" x="11.5" y="24.61" width="7.56" height="10.46" rx="3.78" ry="3.78"/><rect class="cls-6" x="14.62" y="27.48" width="3.04" height="4.96" rx="1.52" ry="1.52"/><rect class="cls-5" x="23.09" y="24.76" width="7.56" height="10.46" rx="3.78" ry="3.78" transform="rotate(180 26.875 29.995)"/><rect class="cls-6" x="24.49" y="27.48" width="3.04" height="4.96" rx="1.52" ry="1.52" transform="rotate(180 26.015 29.955)"/><path d="M20.75 41A8 8 0 0 1 15 38.51l-.2-.2a1 1 0 0 1 1.43-1.4l.2.21a6.08 6.08 0 0 0 8.87-.18 1 1 0 0 1 1.49 1.34A8 8 0 0 1 20.91 41z" fill="#e68c7e"/><path class="cls-3" d="M11.5 28.39a3.78 3.78 0 0 1 3.78-3.78 3.78 3.78 0 0 1 3.78 3.78zM30.65 28.54a3.78 3.78 0 0 0-3.78-3.78 3.79 3.79 0 0 0-3.78 3.78z"/><path class="cls-1" d="M39.44 11.35L24.69 22a4.37 4.37 0 0 1-2.59.84 4.44 4.44 0 0 1-2.61-8L33.81 4.48a20.72 20.72 0 0 1 5.63 6.87z"/><path class="cls-1" d="M12.11 23l15.94-11.54-1.45-4.68L22 4.9 6.91 15.79a4.45 4.45 0 0 0-1 6.2 4.44 4.44 0 0 0 6.2 1.01z"/><rect class="cls-4" x="19.83" y="28.39" width="2.25" height="6.57" rx="1.12" ry="1.12"/></svg>