<svg id="Layer_3" data-name="Layer 3" xmlns="http://www.w3.org/2000/svg" viewBox="0 0 42 56"><defs><style>.cls-1{fill:#825035}.cls-2{fill:#ffb5a1}.cls-3{fill:#7af0f2}.cls-4{fill:#4b4b4b}.cls-5{fill:#fff}.cls-6{fill:#ff9d8a}.cls-7{fill:#cc9376}</style></defs><circle class="cls-1" cx="9.25" cy="38.18" r="8.99"/><path class="cls-2" d="M6.36 24.17v11.65a5.83 5.83 0 0 1 0-11.65zM41.77 30a5.85 5.85 0 0 1-5.84 5.84h-.12V24.17h.12A5.84 5.84 0 0 1 41.77 30z"/><rect class="cls-3" x="4.32" y="33.92" width="2" height="4.24" rx="1" ry="1"/><rect class="cls-3" x="35.7" y="33.92" width="2" height="4.24" rx="1" ry="1"/><circle class="cls-1" cx="21.22" cy="20.41" r="20.44"/><path class="cls-2" d="M5.26 20.66l1 15.19a9.32 9.32 0 0 0 4 7.67l5.82 3.42a8.93 8.93 0 0 0 10 .13l5.59-3.57a9.33 9.33 0 0 0 4.22-7.8l1-15.2a5.89 5.89 0 0 0-5.94-5.89l-19.82.16a5.9 5.9 0 0 0-5.87 5.89z"/><path class="cls-4" d="M29.4 23h3.46a1.32 1.32 0 0 1 1.32 1.32v.45a5.59 5.59 0 0 1-5.59 5.59h-3.46A1.32 1.32 0 0 1 23.81 29v-.45A5.59 5.59 0 0 1 29.4 23z" transform="rotate(-180 28.99 26.63)"/><path class="cls-5" d="M32.86 25.11v.45a5.59 5.59 0 0 1-5.59 5.59h-2.46a1.33 1.33 0 0 1-1.32-1.32v-.45a5.6 5.6 0 0 1 5.43-5.58h2.63a1.32 1.32 0 0 1 1.31 1.31z"/><path class="cls-4" d="M9.26 23h3.46a5.59 5.59 0 0 1 5.59 5.59V29A1.32 1.32 0 0 1 17 30.31h-3.46a5.59 5.59 0 0 1-5.59-5.59v-.45A1.32 1.32 0 0 1 9.26 23z"/><path class="cls-5" d="M18.63 29.38v.45a1.32 1.32 0 0 1-1.31 1.32h-2.48a5.59 5.59 0 0 1-5.58-5.59v-.45a1.32 1.32 0 0 1 1.32-1.32h2.63a5.58 5.58 0 0 1 5.42 5.58z"/><path class="cls-4" d="M16.93 25.27v2.24a2.06 2.06 0 0 1-4.11 0v-2.6a2 2 0 0 1 .39-1.21 5.56 5.56 0 0 1 3.72 1.57zM29.3 24.91v2.6a2.06 2.06 0 0 1-4.11 0v-2.23a5.53 5.53 0 0 1 3.73-1.58 2.1 2.1 0 0 1 .38 1.21z"/><rect class="cls-6" x="19.43" y="21.65" width="3.26" height="11.42" rx="1.63" ry="1.63"/><path class="cls-1" d="M8.46 9.82l5.11 7.92a10.7 10.7 0 0 0 7 4.35l8.15 1.59c4.78.94 8.12 4.25 8.12 8.05l2.79-6.22-1-15.41L24.56.29 10.35 2.5z"/><path class="cls-1" d="M13.83 0h7.38v8.2H6.92V6.87A6.91 6.91 0 0 1 13.83 0z"/><path class="cls-7" d="M37.08 24.86a1 1 0 0 1-.88-.52l-1-1.93a6.43 6.43 0 0 0-4.53-3.21l-7.08-1.34a10 10 0 0 1-6.59-4.4L14.2 9a1 1 0 0 1 .31-1.36 1 1 0 0 1 1.37.36l2.78 4.41a8 8 0 0 0 5.28 3.51c2.19.43 4.9.94 7 1.34a8.34 8.34 0 0 1 5.93 4.23l1 1.92a1 1 0 0 1-.87 1.46z"/><path class="cls-7" d="M34.19 15.09a.55.55 0 0 1-.18 0c-2.16-.39-4.88-.91-7.08-1.33a10 10 0 0 1-6.57-4.4A1 1 0 1 1 22 8.28a8 8 0 0 0 5.28 3.51c2.19.43 4.91.94 7.05 1.34a1 1 0 0 1-.17 2z"/><circle class="cls-6" cx="21.06" cy="32.1" r="2.47"/><path d="M26.06 38.43h-9.28a1 1 0 0 1 0-2h9.28a1 1 0 0 1 0 2z" fill="#e58d80"/></svg>