<svg viewBox="0 0 42 56" version="1.1" xmlns="http://www.w3.org/2000/svg"><g stroke="none" stroke-width="1" fill="none" fill-rule="evenodd"><g transform="translate(2)"><rect fill="#EBE3E3" x="6" y="43" width="26" height="7" rx="2"/><rect fill="#DB8F73" x="14" y="37" width="10" height="10" rx="5"/><path d="M15 0c6.627 0 12 5.373 12 12s-5.373 12-12 12S3 18.627 3 12 8.373 0 15 0z" fill="#2D2D2D"/><path d="M5 29a2 2 0 0 1-1.995-1.85L3 27V13a6 6 0 0 1 5.775-5.996L9 7h21a6 6 0 0 1 6 6v14a2 2 0 0 1-2 2H5z" fill="#2D2D2D"/><path d="M10 12h19a5 5 0 0 1 5 5v17c0 6.075-4.925 11-11 11h-7C9.925 45 5 40.075 5 34V17a5 5 0 0 1 5-5z" fill="#DB8F73" fill-rule="nonzero"/><rect fill="#DB8F73" x="0" y="25" width="38" height="7" rx="3.5"/><rect fill="#FFF" x="20.677" y="17" width="8.4" height="12" rx="4.2"/><rect fill="#FFF" x="10" y="17" width="8.4" height="12" rx="4.2"/><rect fill="#2D2D2D" x="22" y="19" width="4" height="7" rx="2"/><rect fill="#2D2D2D" x="13" y="19" width="4" height="7" rx="2"/><path d="M23 33a7.054 7.054 0 0 1-7 0" stroke="#AD542F" stroke-linecap="round" stroke-linejoin="round"/><rect fill="#2D2D2D" x="21" y="13" width="9" height="3" rx="1"/><rect fill="#2D2D2D" x="9" y="13" width="9" height="3" rx="1"/><path fill="#DB8F73" d="M21 28h9v3h-9zM10 28h9v3h-9z"/><rect fill="#C76C46" x="16" y="27" width="7" height="4" rx="2"/><path d="M20.373 23.47l.6 3.604a1.452 1.452 0 1 1-2.865 0l.601-3.604a.843.843 0 0 1 1.664 0z" fill="#C76C46"/><circle fill="#C76C46" cx="30" cy="30" r="1"/><path d="M28.157 47.702v5.01a2 2 0 0 1-2.937 1.768l-6.395-3.39a1 1 0 0 1 0-1.767l6.395-3.388a2 2 0 0 1 2.937 1.767z" fill="#FF4B4B"/><path d="M9.364 47.702v5.01A2 2 0 0 0 12.3 54.48l6.396-3.39a1 1 0 0 0 0-1.767L12.3 45.935a2 2 0 0 0-2.936 1.767z" fill="#FF4B4B"/><rect fill="#DD2C2C" transform="rotate(45 19 50)" x="17" y="48" width="4" height="4" rx="1"/></g></g></svg>