<svg viewBox="0 0 42 56" version="1.1" xmlns="http://www.w3.org/2000/svg"><g stroke="none" stroke-width="1" fill="none" fill-rule="evenodd"><path d="M3.57 39.72h34.68a3.57 3.57 0 0 1 0 7.14H3.57a3.57 3.57 0 0 1 0-7.14z" fill="#2FE3FF"/><circle fill="#FFC6B7" cx="38.76" cy="27.48" r="3.06"/><circle fill="#FFC6B7" cx="3.06" cy="27.48" r="3.06"/><path d="M20.736 9.323c3.122 0 5.651 2.537 5.651 5.664v.85H15.083v-.85c0-3.127 2.531-5.664 5.653-5.664z" fill="#FF9600"/><path d="M14.7 14.879c3.333 0 6.035-2.66 6.035-5.94C20.735 5.66 18.033 3 14.701 3c-3.334 0-6.036 2.66-6.036 5.94 0 3.28 2.702 5.939 6.036 5.939z" fill="#FF9600" fill-rule="nonzero"/><path d="M10.34 14.22h21.14a7.28 7.28 0 0 1 7.28 7.28v29.44a2.04 2.04 0 0 1-2.04 2.04H5.1a2.04 2.04 0 0 1-2.04-2.04V21.5a7.28 7.28 0 0 1 7.28-7.28z" fill="#FFC6B7"/><path d="M38.759 39.719l.001 11.221a2.04 2.04 0 0 1-2.04 2.04H5.1a2.04 2.04 0 0 1-2.04-2.04l-.001-11.221h35.7z" fill="#2FE3FF"/><path d="M38.76 21.5v4.98a4.311 4.311 0 0 1-3.847-4.287V15.08a7.28 7.28 0 0 1 3.847 6.422zM7.994 14.606v7.587a4.31 4.31 0 0 1-4.31 4.31h-.625l.001-5.002c0-3.2 2.064-5.918 4.934-6.895z" fill="#FFB67A"/><rect fill="#FFF" x="16.32" y="42.78" width="2.04" height="8" rx="1.006"/><rect fill="#FFF" x="23.46" y="42.78" width="2.04" height="8" rx="1.006"/><path d="M15.672 17.403a4.517 4.517 0 0 1 4.517 4.517v2.748a4.517 4.517 0 0 1-9.033 0V21.92a4.517 4.517 0 0 1 4.516-4.517z" fill="#FFF"/><path d="M16.92 20.086c1.12 0 2.027.907 2.027 2.027v2.547a2.028 2.028 0 1 1-4.055 0v-2.547c0-1.12.908-2.027 2.028-2.027z" fill="#3D3D3D"/><path d="M26.306 17.403a4.517 4.517 0 0 0-4.517 4.517v2.748a4.517 4.517 0 1 0 9.033 0V21.92a4.517 4.517 0 0 0-4.516-4.517z" fill="#FFF"/><path d="M25.346 20.086c1.069 0 1.945.827 2.022 1.876l.006.151v2.547a2.028 2.028 0 0 1-4.05.152l-.006-.152v-2.375l.1.004c.852 0 1.551-.655 1.622-1.488l.006-.14c0-.189-.032-.369-.09-.537.125-.025.256-.038.39-.038z" fill="#3D3D3D"/><path d="M8.564 26.84c4.795-.025 9.008 1.093 12.614 3.358l.399.256-1.108 1.68c-3.226-2.13-7.014-3.224-11.387-3.28l-.508-.003-.01-2.011z" fill="#FFC6B7" fill-rule="nonzero"/><path d="M21.332 33.26c-1.763.527-3.122.003-4.078-1.572" stroke="#EE9583" stroke-width=".958" stroke-linecap="round" stroke-linejoin="round"/><circle fill="#FFF" transform="matrix(-1 0 0 1 29.975 0)" cx="14.988" cy="20.66" r="1.629"/><path d="M20.879 31.102c.979 0 1.772-.795 1.772-1.776s-1.772-3.301-1.772-3.301-1.772 2.32-1.772 3.301c0 .98.793 1.776 1.772 1.776z" fill="#EE9583"/></g></svg>