<svg id="Layer_3" data-name="Layer 3" xmlns="http://www.w3.org/2000/svg" viewBox="0 0 42 56"><defs><style>.cls-3{fill:#f34848}.cls-5{fill:#4b4b4b}.cls-6{fill:#fff}</style></defs><path d="M6.22 25.73v11a5.51 5.51 0 0 1 0-11z" fill="#ff9d8a"/><circle cx="4.87" cy="37.17" r="2.71" fill="#7af0f2"/><circle class="cls-3" cx="19.34" cy="22.18" r="19.34"/><path class="cls-3" d="M34.3 46.31L5.58 24.72V10.24A10.24 10.24 0 0 1 15.82 0h7.64a15.22 15.22 0 0 1 15.22 15.22v28.9a2.74 2.74 0 0 1-4.38 2.19z"/><path d="M5.18 23v14.4A8.83 8.83 0 0 0 9 44.65l6.07 4.19a8.43 8.43 0 0 0 9.4.12l6.63-4.33a8.81 8.81 0 0 0 4-7.38V22.87a5.58 5.58 0 0 0-5.62-5.57l-18.75.16A5.57 5.57 0 0 0 5.18 23z" fill="#ffb5a1"/><path class="cls-5" d="M28.55 25.14H32a1.33 1.33 0 0 1 1.33 1.33v1.05a5.65 5.65 0 0 1-5.65 5.65h-3.45a1.33 1.33 0 0 1-1.33-1.33v-1.05a5.65 5.65 0 0 1 5.65-5.65z" transform="rotate(-180 28.135 29.16)"/><path class="cls-6" d="M32.05 27.92v.46A5.65 5.65 0 0 1 26.4 34h-2.49a1.33 1.33 0 0 1-1.33-1.33v-.45a5.65 5.65 0 0 1 5.48-5.64h2.66a1.34 1.34 0 0 1 1.33 1.34z"/><path class="cls-5" d="M8.2 25.14h3.5a5.65 5.65 0 0 1 5.65 5.65v1.05A1.33 1.33 0 0 1 16 33.17h-3.48a5.65 5.65 0 0 1-5.65-5.65v-1.05a1.33 1.33 0 0 1 1.33-1.33z"/><path class="cls-6" d="M17.67 32.24v.45A1.33 1.33 0 0 1 16.34 34h-2.5a5.65 5.65 0 0 1-5.64-5.62v-.46a1.33 1.33 0 0 1 1.33-1.33h2.66a5.64 5.64 0 0 1 5.48 5.64z"/><path class="cls-5" d="M16 28.13v2.27a2.08 2.08 0 0 1-4.15 0v-2.63a2 2 0 0 1 .39-1.22A5.6 5.6 0 0 1 16 28.13zM28.45 27.77v2.63a2.08 2.08 0 0 1-4.15 0v-2.26a5.56 5.56 0 0 1 3.76-1.59 2 2 0 0 1 .39 1.22z"/><rect x="18.52" y="23.76" width="3.21" height="11.21" rx="1.6" ry="1.6" fill="#f57f69"/><path class="cls-6" d="M26.71 37.9a6.41 6.41 0 0 1-.52 1.1 6 6 0 0 1-.77 1 7.05 7.05 0 0 1-10.6 0 5.48 5.48 0 0 1-.76-1 6.45 6.45 0 0 1-.53-1.05.68.68 0 0 1 .62-.92h12a.67.67 0 0 1 .56.87z"/><path class="cls-3" d="M6.84 12.87s3.6 13.25 18.43 13.25c10.81 0 15-4.82 16.53-7.44a1.62 1.62 0 0 0-.91-2.29l-6.66-2.62z"/></svg>