<svg viewBox="0 0 42 56" version="1.1" xmlns="http://www.w3.org/2000/svg"><g stroke="none" stroke-width="1" fill="none" fill-rule="evenodd"><g transform="translate(-.38 -1.723)"><g transform="translate(.905 6.226)"><rect fill="#4B4B4B" x="0" y="18.45" width="40.784" height="20.392" rx="10.094"/><rect fill="#4B4B4B" x="3.884" y="0" width="32.044" height="30.102" rx="14.223"/><rect fill="#F9C98E" x="2.913" y="18.45" width="34.957" height="7.768" rx="3.884"/><path d="M33.678 26.335l-.558 6.345a.918.918 0 0 0 1.211.948l4.927-1.686a.918.918 0 0 0 .372-1.496l-4.368-4.659a.918.918 0 0 0-1.584.548zM7.079 26.444l.558 6.345a.918.918 0 0 1-1.212.948L1.5 32.051a.918.918 0 0 1-.372-1.496l4.368-4.658a.918.918 0 0 1 1.584.547z" fill="#FFF" fill-rule="nonzero"/><rect fill="#F9C98E" x="6.797" y="4.855" width="27.189" height="34.957" rx="12.388"/><path fill="#777" d="M10.681 1.942h16.508V9.71H10.681z"/><path d="M17.479 33.015a4.843 4.843 0 0 0 5.826.151" stroke="#DF9F60" stroke-width="1.835" stroke-linecap="round" stroke-linejoin="round"/><rect fill="#DF9F60" x="18.45" y="24.276" width="3.884" height="6.797" rx="1.942"/></g><rect fill="#FFF" x="23.239" y="22.734" width="7.768" height="9.71" rx="3.884"/><rect fill="#FFF" x="11.587" y="22.734" width="7.768" height="9.71" rx="3.884"/><rect fill="#4B4B4B" x="24.21" y="24.676" width="3.884" height="5.826" rx="1.942"/><rect fill="#4B4B4B" x="14.5" y="24.676" width="3.884" height="5.826" rx="1.942"/><path d="M22.103 9.253l6.07-1.32a7.955 7.955 0 0 1 9.479 6.155l1.725 8.307a1.835 1.835 0 0 1-1.407 2.167l-6.07 1.32a7.955 7.955 0 0 1-9.479-6.155l-1.725-8.307a1.835 1.835 0 0 1 1.407-2.167zM15.035 14.321l3.475.427-.762 6.207a7.341 7.341 0 0 1-8.181 6.392l-6.207-.762" fill="#4B4B4B"/><path d="M3.856 12.475l15.07-10.102a3.884 3.884 0 0 1 5.377 1.045l3.16 4.655a3.884 3.884 0 0 1-1.052 5.408l-15.07 10.102a3.884 3.884 0 0 1-5.376-1.045l-3.16-4.656a3.884 3.884 0 0 1 1.051-5.407z" fill="#E9A200"/><path d="M3.432 19.287l21.95-14.714a.918.918 0 0 1 1.162.116l2.902 2.92L4.734 24.173l-1.633-3.759a.918.918 0 0 1 .33-1.128z" fill="#A56644"/><path d="M1.954 25.567L32.42 5.145a2.294 2.294 0 0 1 3.176.617l.11.162a2.294 2.294 0 0 1-.621 3.193L4.618 29.54a2.294 2.294 0 0 1-3.175-.617l-.11-.162a2.294 2.294 0 0 1 .621-3.194z" fill="#E9A200"/></g></g></svg>