<svg id="Layer_3" data-name="Layer 3" xmlns="http://www.w3.org/2000/svg" viewBox="0 0 42 56"><defs><style>.cls-1{fill:#db8f73}.cls-2{fill:#666161}.cls-4{fill:#c76c46}.cls-6{fill:#fff}.cls-7{fill:#6a3a21}.cls-8{fill:#4b4b4b}</style></defs><path class="cls-1" d="M5.85 23.3v11.49a5.75 5.75 0 0 1 0-11.49zM41.79 29A5.76 5.76 0 0 1 36 34.8h-.12V23.3H36a5.76 5.76 0 0 1 5.79 5.7z"/><path class="cls-2" d="M37.91 10v14h-8V10a4 4 0 0 1 2.74-3.78A3.93 3.93 0 0 1 33.92 6a4 4 0 0 1 4 4z"/><path class="cls-2" d="M32.19 11.5h5.72v12.57M11.82 10v14.07h-8V7.87S5.9 6 7.84 6a4 4 0 0 1 4 4z"/><path class="cls-2" d="M32.91 8.16a8.15 8.15 0 0 1-8.16 8.16H11.82a8.14 8.14 0 0 1-5.58-2.39 7 7 0 0 1-.67-.77 8.17 8.17 0 0 1-1.65-3.9 10 10 0 0 1-.07-1.1A8.16 8.16 0 0 1 12 0h12.75a8.16 8.16 0 0 1 8.16 8.16z"/><path fill="#afafaf" d="M37.91 13.16v10.9h-7.97l-18.12.01H3.85V13.16h34.06z"/><rect class="cls-1" x="5.72" y="6.77" width="30.32" height="36.74" rx="5.57" ry="5.57" transform="rotate(-180 20.88 25.145)"/><path class="cls-4" d="M20.88 21.88A2.11 2.11 0 0 1 23 24v5.63h-4.23V24a2.1 2.1 0 0 1 2.11-2.12z"/><path d="M21 38.34a4.54 4.54 0 0 1-4.1-2.49 1 1 0 0 1 1.81-.85 2.61 2.61 0 0 0 4.58 0 1 1 0 1 1 1.81.87 4.54 4.54 0 0 1-4.1 2.47z" fill="#ad6b52"/><rect class="cls-6" x="3.73" y="17.29" width="15.17" height="11.75" rx="1.75" ry="1.75"/><path class="cls-7" d="M17.15 30H5.49a2.76 2.76 0 0 1-2.76-2.75v-8.2a2.77 2.77 0 0 1 2.76-2.76h11.66a2.76 2.76 0 0 1 2.75 2.76v8.24A2.76 2.76 0 0 1 17.15 30zM5.49 18.29a.76.76 0 0 0-.76.76v8.24a.76.76 0 0 0 .76.75h11.66a.76.76 0 0 0 .75-.75v-8.24a.76.76 0 0 0-.75-.76z"/><rect class="cls-6" x="22.8" y="17.29" width="15.17" height="11.75" rx="1.75" ry="1.75" transform="rotate(-180 30.385 23.165)"/><path class="cls-7" d="M36.21 30H24.56a2.76 2.76 0 0 1-2.76-2.75v-8.2a2.77 2.77 0 0 1 2.76-2.76h11.65A2.77 2.77 0 0 1 39 19.05v8.24A2.76 2.76 0 0 1 36.21 30zM24.56 18.29a.76.76 0 0 0-.76.76v8.24a.76.76 0 0 0 .76.75h11.65a.76.76 0 0 0 .76-.75v-8.24a.76.76 0 0 0-.76-.76z"/><rect class="cls-4" x="16.17" y="28.46" width="9.42" height="5.39" rx="2.69" ry="2.69"/><path class="cls-8" d="M17.1 22.18v2a2.4 2.4 0 0 1-2.4 2.4 2.39 2.39 0 0 1-2.4-2.4v-2zM24.6 22.18v2a2.4 2.4 0 0 0 2.4 2.4 2.39 2.39 0 0 0 2.4-2.4v-2z"/><path class="cls-7" d="M18.9 20.28h3.9v2h-3.9z"/></svg>