<svg id="Layer_3" data-name="Layer 3" xmlns="http://www.w3.org/2000/svg" viewBox="0 0 42 56"><defs><style>.cls-1{fill:#f68f00}.cls-2{fill:#ffd0bb}.cls-3{fill:#fff}.cls-5{fill:#7f4a1e}.cls-6{fill:#ffb000}</style></defs><rect class="cls-1" y="19.44" width="42" height="26.12" rx="13.06" ry="13.06"/><circle class="cls-1" cx="20.91" cy="17.99" r="17.99"/><circle class="cls-2" cx="9.64" cy="31.45" r="5.49"/><circle class="cls-2" cx="32.52" cy="31.45" r="5.49"/><circle class="cls-3" cx="34.27" cy="39.17" r="3.25"/><circle class="cls-3" cx="7.85" cy="39.17" r="3.25"/><path class="cls-2" d="M34.27 20.27V30.9a18.54 18.54 0 0 1-1.92 8.21L31 41.91a11.07 11.07 0 0 1-9.9 6.15 11.05 11.05 0 0 1-9.9-6.15l-1.39-2.8a18.4 18.4 0 0 1-1.96-8.21V20.27a8.31 8.31 0 0 1 8.3-8.27H26a8.31 8.31 0 0 1 8.27 8.27z"/><path d="M21.05 40.1a4.12 4.12 0 0 1-4.11-4.1 1 1 0 0 1 2 0 2.11 2.11 0 0 0 4.22 0 1 1 0 0 1 2 0 4.11 4.11 0 0 1-4.11 4.1z" fill="#ff9c86"/><rect class="cls-3" x="11.13" y="22.42" width="7.78" height="10.77" rx="3.89" ry="3.89"/><rect class="cls-5" x="14.34" y="25.37" width="3.13" height="5.11" rx="1.56" ry="1.56"/><rect class="cls-3" x="23.2" y="22.42" width="7.78" height="10.77" rx="3.89" ry="3.89" transform="rotate(-180 27.095 27.8)"/><rect class="cls-5" x="24.6" y="25.37" width="3.13" height="5.11" rx="1.56" ry="1.56" transform="rotate(180 26.165 27.92)"/><circle class="cls-6" cx="31.4" cy="32.59" r=".67"/><circle class="cls-6" cx="31.91" cy="34.37" r=".67"/><circle class="cls-6" cx="30.05" cy="33.74" r=".67"/><circle class="cls-6" cx="10.84" cy="32.92" r=".67"/><circle class="cls-6" cx="12.11" cy="34.28" r=".67"/><circle class="cls-6" cx="10.16" cy="34.56" r=".67"/><rect x="19.82" y="23.2" width="2.47" height="11.36" rx="1.23" ry="1.23" fill="#ffb099"/><path class="cls-1" d="M7.27 26.5l8.13-2.62a14 14 0 0 0 9.7-13.33h-19z"/><path class="cls-1" d="M25.1 8.58v2.86a15.9 15.9 0 0 0 6.68 13l2.49 1.76 3.25-11.59z"/></svg>