<svg id="Layer_3" data-name="Layer 3" xmlns="http://www.w3.org/2000/svg" viewBox="0 0 42 56"><defs><style>.cls-1{fill:#7b482d}.cls-2{fill:#cd81ff}.cls-5{fill:#fff}.cls-6{fill:#62361b}.cls-7{fill:#ff9c86}</style></defs><path class="cls-1" d="M41.77 19.83v2.86a18.58 18.58 0 0 1-1.13 6.4 16.26 16.26 0 0 1-.83 2 20.26 20.26 0 0 1-11.21 10l-7.48 2.78L13.43 41A19.76 19.76 0 0 1 .18 22.63v-2.8C.18 8.89 9.48 0 21 0a21.2 21.2 0 0 1 14.68 5.82 19.3 19.3 0 0 1 6.09 14.01z"/><path class="cls-2" d="M34.27 45.51a2.81 2.81 0 0 1-2.51-4.06l2.51-5 2.51 5a2.8 2.8 0 0 1-2.51 4.06zM7 44.46a2.8 2.8 0 0 1-2.54-4.06l2.51-5 2.51 5A2.81 2.81 0 0 1 7 44.46z"/><path d="M20.65 10a13.68 13.68 0 0 1 13.68 13.69v13.85a8.49 8.49 0 0 1-3.6 6.92l-5.14 3.6a8.44 8.44 0 0 1-9.62 0l-5.33-3.66a8.45 8.45 0 0 1-3.67-7V23.69A13.67 13.67 0 0 1 20.65 10z" fill="#ffb49e"/><rect x="10.08" y="20.38" width="8.38" height="11.6" rx="4.19" ry="4.19" fill="#4b4b4b"/><rect class="cls-5" x="10.08" y="22.3" width="8.38" height="11.6" rx="4.19" ry="4.19"/><rect class="cls-6" x="13.54" y="25.47" width="3.37" height="5.5" rx="1.68" ry="1.68"/><rect class="cls-5" x="22.93" y="22.3" width="8.38" height="11.6" rx="4.19" ry="4.19" transform="rotate(-180 27.125 28.095)"/><rect class="cls-6" x="24.49" y="25.47" width="3.37" height="5.5" rx="1.68" ry="1.68" transform="rotate(180 26.17 28.225)"/><path class="cls-5" d="M26.12 39.51l-.59.34c-.21.12-.43.23-.65.34a9.62 9.62 0 0 1-4.09.9 9.73 9.73 0 0 1-4.26-1 8.8 8.8 0 0 1-1.22-.71 2.2 2.2 0 0 1 1.22-4 2.3 2.3 0 0 1 1.25.39 5.24 5.24 0 0 0 5.55.23l.59-.33a2.13 2.13 0 0 1 .93-.28H25a2.2 2.2 0 0 1 1.09 4.11z"/><rect class="cls-7" x="19.2" y="18.85" width="2.88" height="15.16" rx="1.44" ry="1.44" transform="rotate(-180 20.635 26.435)"/><path class="cls-1" d="M37.11 35.2c0-.45-2-25.19-2-25.19L21 0H9.12a5.83 5.83 0 0 0-3.63 10.4c13.18 10.48 31.62 25.09 31.62 24.8z"/><path class="cls-7" d="M10.51 38.6a1 1 0 0 1-1-1v-1.73a1 1 0 0 1 2 0v1.73a1 1 0 0 1-1 1zM31.09 38.6a1 1 0 0 1-1-1v-1.73a1 1 0 0 1 2 0v1.73a1 1 0 0 1-1 1z"/></svg>