<svg id="Layer_3" data-name="Layer 3" xmlns="http://www.w3.org/2000/svg" viewBox="0 0 42 56"><defs><style>.cls-1{fill:#ffb49e}.cls-2{fill:#2d2d2d}.cls-3{fill:#fff}.cls-4{fill:#4b4b4b}</style></defs><circle class="cls-1" cx="7.71" cy="36.96" r="4.88"/><circle class="cls-1" cx="34.12" cy="36.96" r="4.88"/><circle class="cls-2" cx="21" cy="21" r="21"/><path class="cls-2" d="M4.58 21.5h5.54v22.19H8a3.44 3.44 0 0 1-3.44-3.44V21.5h.02zM31.35 21.5h5.54v18.75a3.44 3.44 0 0 1-3.44 3.44h-2.1V21.5z"/><path class="cls-1" d="M33.94 28.38v9a14.51 14.51 0 0 1-5.19 11.12l-4.68 3.92a5.07 5.07 0 0 1-6.55 0L13 48.5a14.54 14.54 0 0 1-5-11v-9.12A12.69 12.69 0 0 1 9.72 22a13 13 0 0 1 19.39-3.7l.45.38.17.15c.13.13.27.25.4.39a9.94 9.94 0 0 1 1.17 1.34 12.88 12.88 0 0 1 2.64 7.82z"/><rect class="cls-3" x="11.12" y="26.97" width="8.05" height="11.14" rx="4.03" ry="4.03"/><rect class="cls-4" x="14.45" y="30.03" width="3.24" height="5.29" rx="1.62" ry="1.62"/><rect class="cls-3" x="22.61" y="26.97" width="8.05" height="11.14" rx="4.03" ry="4.03" transform="rotate(-180 26.635 32.545)"/><rect class="cls-4" x="24.06" y="30.03" width="3.24" height="5.29" rx="1.62" ry="1.62" transform="rotate(-180 25.675 32.67)"/><path class="cls-2" d="M32.46 13.7l-5.93 6A17.39 17.39 0 0 1 14.11 25H3.63L8.41 7.5z"/><rect x="19.05" y="28.4" width="3.45" height="13.77" rx="1.72" ry="1.72" fill="#ff9c86"/><path class="cls-2" d="M34 28.06c-6-3.68-7-13.13-7-13.13l8.76.5z"/><path d="M20.78 46.82a4.67 4.67 0 0 1-4.67-4.66 1 1 0 1 1 2 0 2.67 2.67 0 0 0 5.33 0 1 1 0 1 1 2 0 4.66 4.66 0 0 1-4.66 4.66z" fill="#e68c7e"/></svg>