<svg id="Layer_3" data-name="Layer 3" xmlns="http://www.w3.org/2000/svg" viewBox="0 0 42 56"><defs><style>.cls-1{fill:#2d2d2d}.cls-2{fill:#cf7451}.cls-4{fill:#fff}.cls-5{fill:#4b4b4b}</style></defs><path class="cls-1" d="M36.18 18.05C33.32 8.07 29.2 0 12.94 0 5.27 0-.62 8.07 2.24 18.05L5.7 37.79"/><path class="cls-1" d="M18.11 20.84c1.74-6.1 8.11-11 14.2-11 6.1 0 9.63 4.94 7.88 11l-3.45 12.07"/><path class="cls-2" d="M37.42 29.37a3.18 3.18 0 0 1 3.18 3.18v5.91a3.33 3.33 0 0 1-3.33 3.33h-3v-9.25a3.18 3.18 0 0 1 3.15-3.17z" transform="rotate(20.85 37.426 35.595)"/><path class="cls-2" d="M1.26 29.37h3a3.33 3.33 0 0 1 3.36 3.33v5.91a3.18 3.18 0 0 1-3.18 3.18 3.18 3.18 0 0 1-3.18-3.18v-9.24z" transform="rotate(159.15 4.438 35.58)"/><path d="M36.53 21.65v15.69a13.6 13.6 0 0 1-13.6 13.6h-4.45a13.61 13.61 0 0 1-13.6-13.61V21.65a9.21 9.21 0 0 1 9.21-9.21h13.23a9.22 9.22 0 0 1 9.21 9.21z" fill="#dc8e70"/><rect class="cls-4" x="7.49" y="23.2" width="9.88" height="13.68" rx="4.94" ry="4.94"/><rect class="cls-5" x="11.57" y="26.95" width="3.97" height="6.49" rx="1.99" ry="1.99"/><rect class="cls-4" x="23.77" y="23.2" width="9.88" height="13.68" rx="4.94" ry="4.94" transform="rotate(-180 28.715 30.04)"/><rect class="cls-5" x="25.6" y="26.95" width="3.97" height="6.49" rx="1.99" ry="1.99" transform="rotate(180 27.59 30.19)"/><path class="cls-1" d="M34 13.25l-.25.28a7.78 7.78 0 0 1-5.85 2.66H4.77l3.81-7.14z"/><rect class="cls-2" x="18.11" y="24.02" width="4.85" height="12.3" rx="2.15" ry="2.15"/><path class="cls-2" d="M23.21 37.72h-5a1.35 1.35 0 0 1-1.2-1.9l1.15-2.67a1.32 1.32 0 0 1 1.2-.8h2.73a1.32 1.32 0 0 1 1.2.8l1.14 2.67a1.34 1.34 0 0 1-1.22 1.9z"/><path class="cls-4" d="M26.84 40.82a5.89 5.89 0 0 1-.47.94 4.77 4.77 0 0 1-.69.93 6.31 6.31 0 0 1-9.51 0 5.21 5.21 0 0 1-.69-.93 5.16 5.16 0 0 1-.47-.94.61.61 0 0 1 .55-.83h10.73a.61.61 0 0 1 .55.83z"/></svg>