<svg viewBox="0 0 42 56" version="1.1" xmlns="http://www.w3.org/2000/svg"><g stroke="none" stroke-width="1" fill="none" fill-rule="evenodd"><g><circle fill="#8B4824" fill-rule="nonzero" cx="36.25" cy="34.12" r="5.62"/><circle fill="#8B4824" fill-rule="nonzero" cx="5.79" cy="34.12" r="5.62"/><path d="M14 0h14c6.627 0 12 5.373 12 12v16c0 5.523-4.477 10-10 10H12C6.477 38 2 33.523 2 28V12C2 5.373 7.373 0 14 0z" fill="#2D2D2D"/><path d="M12.78 11.81l7.347 2.234a3 3 0 0 0 1.746 0l7.347-2.234a6.367 6.367 0 0 1 8.22 6.092V42.21a7 7 0 0 1-7 7H11.56a7 7 0 0 1-7-7V17.902a6.367 6.367 0 0 1 8.22-6.092z" fill="#A56644"/><rect fill="#FFF" fill-rule="nonzero" x="10.044" y="20.06" width="8.18" height="11.33" rx="4.09"/><rect fill="#4B4B4B" fill-rule="nonzero" x="13.934" y="22.17" width="3.29" height="5.37" rx="1.645"/><rect fill="#FFF" fill-rule="nonzero" transform="rotate(180 27.866 25.725)" x="23.776" y="20.06" width="8.18" height="11.33" rx="4.09"/><rect fill="#4B4B4B" fill-rule="nonzero" transform="rotate(-180 26.42 24.855)" x="24.776" y="22.17" width="3.29" height="5.37" rx="1.645"/><path d="M13.317 30.75h15.366a4.922 4.922 0 0 1 4.922 4.922c0 .595-.483 1.078-1.078 1.078H9.473a1.078 1.078 0 0 1-1.078-1.078 4.922 4.922 0 0 1 4.922-4.922z" fill="#2D2D2D" fill-rule="nonzero"/><path d="M28.105 37.916v.55c0 .356-.038.712-.11 1.06a5 5 0 0 1-4.83 3.92h-4.28a5 5 0 0 1-4.99-4.98v-.55a1 1 0 0 1 .95-.94h12.32c.52 0 .94.421.94.94z" fill="#522829" fill-rule="nonzero"/><path d="M28.1 37.916v.55c0 .356-.038.712-.11 1.06l-14-.14a4.7 4.7 0 0 1-.09-.92v-.55a1 1 0 0 1 .95-.94h12.31c.52 0 .94.421.94.94z" fill="#FFF" fill-rule="nonzero"/><path d="M17.735 43.276a5.4 5.4 0 0 0 1.15.13h4.24a5.38 5.38 0 0 0 1.14-.13 3.52 3.52 0 0 0-6.53 0z" fill="#F14848" fill-rule="nonzero"/><path d="M23.133 32.93h-4.26a1.86 1.86 0 0 1-1.722-2.595l2.09-4.97c.303-.7.994-1.152 1.756-1.149a1.906 1.906 0 0 1 1.757 1.149l2.1 4.97a1.871 1.871 0 0 1-1.721 2.595z" fill="#8B4824" fill-rule="nonzero"/><rect fill="#2D2D2D" fill-rule="nonzero" transform="rotate(6 14.285 21.77)" x="8.56" y="19.42" width="11.45" height="4.7" rx="1.49"/><rect fill="#2D2D2D" fill-rule="nonzero" transform="rotate(-6 27.715 21.77)" x="21.99" y="19.42" width="11.45" height="4.7" rx="1.49"/></g></g></svg>