<svg id="Layer_3" data-name="Layer 3" xmlns="http://www.w3.org/2000/svg" viewBox="0 0 42 56"><defs><style>.cls-1{fill:#f68f00}.cls-2{fill:#ffb49e}.cls-4{fill:#fff}.cls-6{fill:#62361b}</style></defs><circle class="cls-1" cx="20.84" cy="18.09" r="18.09"/><circle class="cls-2" cx="5.67" cy="27.8" r="5.67"/><circle class="cls-2" cx="36.33" cy="27.8" r="5.67"/><path class="cls-2" d="M36.29 13.29v20.37a14 14 0 0 1-14 14h-2.65a14 14 0 0 1-14-14V13.29a8.91 8.91 0 0 1 8.91-8.92h12.83a8.91 8.91 0 0 1 8.91 8.92z"/><path d="M27.94 36.05v.55a5.29 5.29 0 0 1-.11 1.06A5 5 0 0 1 23 41.58h-4.28a5 5 0 0 1-4.9-4.06 4.7 4.7 0 0 1-.09-.92v-.55a1 1 0 0 1 .95-.94H27a.94.94 0 0 1 .94.94z" fill="#a24242"/><path class="cls-4" d="M27.94 36.05v.55a5.29 5.29 0 0 1-.11 1.06l-14-.14a4.7 4.7 0 0 1-.09-.92v-.55a1 1 0 0 1 .95-.94H27a.94.94 0 0 1 .94.94z"/><path d="M17.71 41.41a5.4 5.4 0 0 0 1.15.13h4.24a5.38 5.38 0 0 0 1.14-.13 3.52 3.52 0 0 0-6.53 0z" fill="#f14848"/><rect class="cls-4" x="9.74" y="19.48" width="8.02" height="11.11" rx="4.01" ry="4.01"/><rect class="cls-6" x="13.05" y="22.53" width="3.23" height="5.27" rx="1.61" ry="1.61"/><rect class="cls-4" x="24.19" y="19.48" width="8.02" height="11.11" rx="4.01" ry="4.01" transform="rotate(-180 28.2 25.035)"/><rect class="cls-6" x="25.63" y="22.53" width="3.23" height="5.27" rx="1.61" ry="1.61"/><rect x="18.76" y="20.85" width="4.43" height="12.56" rx="1.46" ry="1.46" fill="#ff9982"/><path class="cls-1" d="M25.91 16.13H4v-3.88l6.45-8.81h19.78l3.47 4.9a7.79 7.79 0 0 1-7.79 7.79z"/><path class="cls-1" d="M32.7 8.34v9.51a4.28 4.28 0 0 0 4.3 4.28l-.25-11.69-4.33-5.63-2.75-.44.56 3.82z"/></svg>