<svg id="Layer_3" data-name="Layer 3" xmlns="http://www.w3.org/2000/svg" viewBox="0 0 42 56"><defs><style>.cls-1{fill:#cc7900}.cls-2{fill:#ffb49e}.cls-4{fill:#fff}.cls-5{fill:#62361b}.cls-8{fill:#777}</style></defs><path class="cls-1" d="M32.76 14.32h5.87v19.45h-5.87z"/><circle class="cls-1" cx="26.8" cy="13.27" r="13.24"/><circle class="cls-2" cx="12.27" cy="33.77" r="5.89"/><circle class="cls-2" cx="34.9" cy="33.77" r="5.89"/><path class="cls-2" d="M23.3 10.44v-.1a13.23 13.23 0 0 1 13.23 13.22v16.18A6.65 6.65 0 0 1 32 46l-6.47 2.15a6.63 6.63 0 0 1-4.13 0L14.66 46a6.64 6.64 0 0 1-4.59-6.31V23.56A13.14 13.14 0 0 1 23.3 10.44z"/><rect x="21.76" y="21.92" width="3.05" height="11.84" rx="1.53" ry="1.53" transform="rotate(180 23.29 27.845)" fill="#ff9881"/><rect class="cls-4" x="13.28" y="22.07" width="7.82" height="10.82" rx="3.91" ry="3.91"/><rect class="cls-5" x="16.51" y="25.04" width="3.14" height="5.13" rx="1.57" ry="1.57"/><rect class="cls-4" x="25.57" y="22.07" width="7.82" height="10.82" rx="3.91" ry="3.91" transform="rotate(-180 29.48 27.48)"/><rect class="cls-5" x="27.02" y="25.04" width="3.14" height="5.13" rx="1.57" ry="1.57" transform="rotate(-180 28.59 27.605)"/><path d="M30.48 36v.56a4.92 4.92 0 0 1-.12 1.09 5.12 5.12 0 0 1-5 4H21a5.12 5.12 0 0 1-5-4 4.92 4.92 0 0 1-.12-1.09V36a1 1 0 0 1 1-1h12.63a1 1 0 0 1 .97 1z" fill="#a24242"/><path class="cls-4" d="M30.48 36v.56a4.92 4.92 0 0 1-.12 1.09H16a4.92 4.92 0 0 1-.12-1.09V36a1 1 0 0 1 1-1h12.63a1 1 0 0 1 .97 1z"/><path d="M19.83 41.52a5.06 5.06 0 0 0 1.17.14h4.36a4.93 4.93 0 0 0 1.17-.14 3.61 3.61 0 0 0-6.7 0z" fill="#f14848"/><rect class="cls-8" x="8.01" y="35.8" width="2.08" height="7.17" rx="1.04" ry="1.04"/><rect class="cls-8" x="36.55" y="35.8" width="2.08" height="7.17" rx="1.04" ry="1.04"/><path class="cls-1" d="M3.54 15.13h19.67V24H3.54A4.44 4.44 0 0 1-.9 19.57a4.44 4.44 0 0 1 4.44-4.44z" transform="rotate(-54.23 11.156 19.565)"/><path class="cls-1" d="M3.16 6.62h19.67v8.87H3.16a4.44 4.44 0 0 1-4.44-4.44 4.44 4.44 0 0 1 4.44-4.43z" transform="rotate(-34.47 10.778 11.047)"/><path class="cls-1" d="M4.89 8.91h19.67l3-8.87H4.89A4.44 4.44 0 0 0 .45 4.48a4.43 4.43 0 0 0 4.44 4.43z"/><path class="cls-1" d="M23.08 19.93l12.67-15-3.65-3.12-5.87.6-9.94 11.8a4.46 4.46 0 0 0 .54 6.26 4.45 4.45 0 0 0 6.25-.54z"/></svg>