<svg id="Layer_3" data-name="Layer 3" xmlns="http://www.w3.org/2000/svg" viewBox="0 0 42 56"><defs><style>.cls-2{fill:#ffb49e}.cls-3{fill:#fff}.cls-4{fill:#2b70c8}.cls-6{fill:#b29e67}</style></defs><path fill="#f68f00" d="M35.08 22.82v11.39l-27.71-.49V22.34l27.71.48z"/><circle class="cls-2" cx="9.16" cy="35.24" r="4.5"/><circle class="cls-2" cx="33.52" cy="35.24" r="4.5"/><path class="cls-2" d="M33.34 22.12v12.74A12.17 12.17 0 0 1 21.17 47 12.18 12.18 0 0 1 9 34.85V22.12A7.08 7.08 0 0 1 16.07 15h10.18a7.09 7.09 0 0 1 7.09 7.12z"/><rect class="cls-3" x="12.05" y="25.15" width="6.9" height="9.55" rx="3.45" ry="3.45"/><rect class="cls-4" x="14.9" y="27.77" width="2.77" height="4.53" rx="1.39" ry="1.39"/><rect class="cls-3" x="23.38" y="25.15" width="6.9" height="9.55" rx="3.45" ry="3.45" transform="rotate(-180 26.825 29.925)"/><rect class="cls-4" x="24.62" y="27.77" width="2.77" height="4.53" rx="1.39" ry="1.39" transform="rotate(-180 26.005 30.035)"/><rect x="19.7" y="23.57" width="2.92" height="10.8" rx="1.25" ry="1.25" fill="#ff9c86"/><path class="cls-6" d="M34.88 13.06V23H7.44V13a6.08 6.08 0 0 1 2.08-4.52l8.41-7.3a4.83 4.83 0 0 1 6.31 0l8.53 7.32a6 6 0 0 1 2.11 4.56z"/><path fill="#904f31" d="M7.44 16.47h27.44v5.19H7.44z"/><path d="M30.65 12.58a1.42 1.42 0 0 1-.5-.08c-6.56-2.1-8-6.91-8.1-7.11a1.65 1.65 0 0 1 3.17-.95c.06.17 1.16 3.37 5.94 4.91a1.65 1.65 0 0 1-.51 3.23z" fill="#9f843a"/><path d="M11.55 12.58A1.65 1.65 0 0 1 11 9.35c4.86-1.55 6-5.06 6-5.09a1.66 1.66 0 1 1 3.2.89c-.06.21-1.53 5.24-8.11 7.35a1.42 1.42 0 0 1-.54.08z" fill="#c1b386"/><path class="cls-6" d="M40.29 23.72H1.71a1.56 1.56 0 1 1 0-3.11h38.58a1.56 1.56 0 1 1 0 3.11z"/><path d="M28.11 36.69v.53a5.47 5.47 0 0 1-.1 1A4.75 4.75 0 0 1 23.36 42h-4a4.76 4.76 0 0 1-4.65-3.74 5.47 5.47 0 0 1-.1-1v-.53a.9.9 0 0 1 .9-.9h11.7a.9.9 0 0 1 .9.86z" fill="#8f1b19"/><path class="cls-3" d="M28.11 36.69v.53a5.47 5.47 0 0 1-.1 1H14.67a5.47 5.47 0 0 1-.1-1v-.53a.9.9 0 0 1 .9-.9h11.74a.9.9 0 0 1 .9.9z"/><path d="M18.23 41.83a4.93 4.93 0 0 0 1.09.13h4a4.85 4.85 0 0 0 1.09-.13 3.35 3.35 0 0 0-6.22 0z" fill="#f14848"/></svg>