<svg id="Layer_3" data-name="Layer 3" xmlns="http://www.w3.org/2000/svg" viewBox="0 0 42 56"><defs><style>.cls-1{fill:#2d2d2d}.cls-3{fill:#dc8e70}.cls-4{fill:#fff}.cls-5{fill:#4b4b4b}.cls-6{fill:#cf7451}</style></defs><path class="cls-1" d="M31.27 43.48H10.73C4.8 43.48 0 39 0 33.36v-.21A37.74 37.74 0 0 1 2.36 20L6.12 9.89A15.63 15.63 0 0 1 20.9 0a15.64 15.64 0 0 1 14.72 9.75l3.87 10.11A37.7 37.7 0 0 1 42 33.36c0 5.64-4.81 10.12-10.73 10.12z"/><path d="M35.79 13.55A16.09 16.09 0 0 0 31 9.26a19.93 19.93 0 0 0-10.1-2.68c-6.45 0-12.29 3-15.35 7.57L6 12.89A15.62 15.62 0 0 1 20.77 3a16.22 16.22 0 0 1 9 2.68 14.91 14.91 0 0 1 5.73 7.07z" fill="#ffd300"/><path class="cls-3" d="M8.44 21.12v10.43a5.22 5.22 0 0 1 0-10.43zM38.67 26.35a5.23 5.23 0 0 1-5.23 5.22h-.11V21.13h.11a5.23 5.23 0 0 1 5.23 5.22z"/><path class="cls-3" d="M34.65 17.77v12a13.59 13.59 0 0 1-.35 3.08 13.77 13.77 0 0 1-27.18-3.13V17.77a7.64 7.64 0 0 1 7.64-7.64H27a7.64 7.64 0 0 1 7.65 7.64z"/><path class="cls-4" d="M26.73 32.84a5.79 5.79 0 0 1-.47.93 5.09 5.09 0 0 1-.68.92 6.26 6.26 0 0 1-9.43 0A6.49 6.49 0 0 1 15 32.84a.6.6 0 0 1 .55-.82h10.63a.6.6 0 0 1 .55.82z"/><rect class="cls-4" x="10.18" y="18.22" width="8.38" height="11.6" rx="4.19" ry="4.19"/><rect class="cls-5" x="13.64" y="21.4" width="3.37" height="5.5" rx="1.68" ry="1.68"/><rect class="cls-4" x="23.43" y="18.22" width="8.38" height="11.6" rx="4.19" ry="4.19" transform="rotate(-180 27.625 24.025)"/><rect class="cls-5" x="24.99" y="21.4" width="3.37" height="5.5" rx="1.68" ry="1.68" transform="rotate(-180 26.67 24.155)"/><path class="cls-1" d="M35.33 21.47a5.67 5.67 0 0 1-3.66-3 5.18 5.18 0 0 0-.93-1.95 4.18 4.18 0 0 0-2.1-.81 12 12 0 0 1-4.74-2c-1.37-1-2.74-2.26-3-3.88h10.5l3.66 4.2z"/><path class="cls-1" d="M6.66 21.47a5.86 5.86 0 0 0 3.75-3 5.05 5.05 0 0 1 .94-1.95 4.14 4.14 0 0 1 2.1-.81 12 12 0 0 0 4.73-2c1.37-1 2.55-2 2.82-3.61l-10.31-.24L7 13.83z"/><rect class="cls-6" x="19.26" y="18.94" width="3.47" height="11.24" rx="1.74" ry="1.74"/><circle class="cls-6" cx="21" cy="28.65" r="2.67"/></svg>