<svg id="Layer_3" data-name="Layer 3" xmlns="http://www.w3.org/2000/svg" viewBox="0 0 42 56"><defs><style>.cls-1{fill:#e59b80}.cls-2{fill:#fff}.cls-3{fill:#61361e}.cls-5{fill:#7a4830}.cls-6{fill:#db8269}</style></defs><circle class="cls-1" cx="5.66" cy="27.02" r="5.67"/><circle class="cls-1" cx="36.31" cy="27.02" r="5.67"/><path class="cls-1" d="M36.28 8.65v32.1a8.11 8.11 0 0 1-8.11 8.1H13.76a8.12 8.12 0 0 1-8.12-8.11V8.65A3.06 3.06 0 0 1 8.7 5.59h24.53a3.06 3.06 0 0 1 3.05 3.06z"/><rect class="cls-2" x="9.72" y="20.71" width="8.02" height="11.11" rx="4.01" ry="4.01"/><rect class="cls-3" x="13.04" y="23.75" width="3.23" height="5.27" rx="1.61" ry="1.61"/><rect class="cls-2" x="24.17" y="20.71" width="8.02" height="11.11" rx="4.01" ry="4.01" transform="rotate(180 28.185 26.26)"/><rect class="cls-3" x="25.62" y="23.75" width="3.23" height="5.27" rx="1.61" ry="1.61" transform="rotate(-180 27.23 26.385)"/><path class="cls-1" d="M7.94 20.54h25.63v4.05H7.94z"/><rect x="18.75" y="22.07" width="4.43" height="12.56" rx="1.46" ry="1.46" fill="#d97b61"/><path class="cls-5" d="M27.69 12.5h-23A1.63 1.63 0 0 1 3 10.68C3.81 4.64 8.49 0 14.77 0h.42a12.5 12.5 0 0 1 12.5 12.5z"/><path class="cls-5" d="M14.24 12.5h23a1.64 1.64 0 0 0 1.64-1.82C38.12 4.64 33.43 0 27.15 0h-.41a12.5 12.5 0 0 0-12.5 12.5z"/><path class="cls-5" d="M36.3 29.51a.83.83 0 0 1-.83-.82L33.37 11h4.8l-1.05 17.69a.82.82 0 0 1-.82.82zM5.64 29.51a.82.82 0 0 1-.82-.82L3.77 11h4.8l-2.1 17.69a.83.83 0 0 1-.83.82z"/><path class="cls-5" d="M3 10.92h35.92v3.25a2 2 0 0 1-2 2H5a2 2 0 0 1-2-2v-3.25z"/><path class="cls-6" d="M31.2 39.4a.92.92 0 0 1-.28 0 .94.94 0 0 1-.62-1.18l.7-2.31a.94.94 0 1 1 1.79.57l-.71 2.26a1 1 0 0 1-.88.66zM10.3 39.4a.94.94 0 0 1-.89-.66l-.72-2.26a.94.94 0 0 1 1.79-.57l.72 2.26a.94.94 0 0 1-.61 1.18 1 1 0 0 1-.29.05z"/><path d="M27.93 36.18v.55a5.29 5.29 0 0 1-.11 1.06A5 5 0 0 1 23 41.71h-4.29a5 5 0 0 1-4.9-4.06 4.7 4.7 0 0 1-.09-.92v-.55a1 1 0 0 1 .95-.94H27a.94.94 0 0 1 .93.94z" fill="#a24242"/><path class="cls-2" d="M27.93 36.18v.55a5.29 5.29 0 0 1-.11 1.06l-14-.14a4.7 4.7 0 0 1-.09-.92v-.55a1 1 0 0 1 .95-.94H27a.94.94 0 0 1 .93.94z"/><path d="M17.7 41.54a4.81 4.81 0 0 0 1.14.14h4.24a4.68 4.68 0 0 0 1.14-.14 3.52 3.52 0 0 0-6.52 0z" fill="#f14848"/><circle class="cls-1" cx="25.04" cy="16.14" r="4.41"/><circle class="cls-1" cx="17.12" cy="16.14" r="4.41"/></svg>