<svg id="Layer_3" data-name="Layer 3" xmlns="http://www.w3.org/2000/svg" viewBox="0 0 42 56"><defs><style>.cls-1{fill:#666161}.cls-3{fill:#fd9526}.cls-6{fill:#fff}.cls-8{fill:#4b4b4b}.cls-9{fill:#ff9783}.cls-10{fill:#afafaf}</style></defs><path class="cls-1" d="M41.55 21.62v14.54a13.79 13.79 0 0 1-13.78 13.78h-13.4A13.79 13.79 0 0 1 .59 36.16V21.62z"/><path d="M35.72 34v13.41a13.63 13.63 0 0 1-7.95 2.53h-13.4a13.73 13.73 0 0 1-8.59-3V34z" fill="#2d2d2d"/><path class="cls-3" d="M35.72 34.24v11a3.46 3.46 0 0 1-3.15-3.66c0-1.99 1.43-7.3 3.15-7.34zM5.8 34.24v11A3.46 3.46 0 0 0 9 41.6c0-2.01-1.45-7.32-3.2-7.36z"/><circle class="cls-1" cx="21.05" cy="20.49" r="20.49"/><rect x="5.79" y="7.1" width="29.93" height="41.84" rx="14.96" ry="14.96" transform="rotate(180 20.75 28.025)" fill="#ffb5a1"/><path d="M27.53 37.23v.52a5.36 5.36 0 0 1-.1 1 4.67 4.67 0 0 1-4.56 3.67h-4a4.67 4.67 0 0 1-4.56-3.67 5.36 5.36 0 0 1-.1-1v-.52a.88.88 0 0 1 .88-.88h11.56a.88.88 0 0 1 .88.88z" fill="#a14344"/><path class="cls-6" d="M27.53 37.23v.52a5.36 5.36 0 0 1-.1 1H14.34a5.36 5.36 0 0 1-.1-1v-.52a.88.88 0 0 1 .88-.88h11.53a.88.88 0 0 1 .88.88z"/><path d="M17.83 42.29a4.74 4.74 0 0 0 1.07.12h4a4.68 4.68 0 0 0 1.07-.12 3.29 3.29 0 0 0-6.11 0z" fill="#ef4a4d"/><rect class="cls-6" x="10.25" y="22.55" width="8.21" height="11.36" rx="4.1" ry="4.1"/><rect class="cls-8" x="13.64" y="25.67" width="3.3" height="5.39" rx="1.65" ry="1.65"/><path class="cls-8" d="M32 29.31a1 1 0 0 1-1-1v-1.79a3.77 3.77 0 0 0-3.77-3.77 1 1 0 0 1 0-2A5.78 5.78 0 0 1 33 26.52v1.79a1 1 0 0 1-1 1z"/><rect class="cls-6" x="22.84" y="22.55" width="8.21" height="11.36" rx="4.1" ry="4.1" transform="rotate(-180 26.95 28.235)"/><rect class="cls-8" x="24.36" y="25.67" width="3.3" height="5.39" rx="1.65" ry="1.65" transform="rotate(180 26.015 28.36)"/><rect class="cls-9" x="19.31" y="19.93" width="2.56" height="13.49" rx="1.28" ry="1.28" transform="rotate(-180 20.595 26.675)"/><circle class="cls-9" cx="20.59" cy="33.42" r="2.26"/><path class="cls-1" d="M5.79 34a7.83 7.83 0 0 1 5.49-7.74l18.94-5.95a7.83 7.83 0 0 0 5.48-6.94v-.25l-1.9-4.18-17.1-5.5L3.63 14.17z"/><path class="cls-10" d="M4.67 25.25a1.5 1.5 0 0 1-1.1-2.52 9.27 9.27 0 0 1 4-2.55l19-5.95A6.29 6.29 0 0 0 31 8.62v-.25a1.5 1.5 0 0 1 3 .2v.25a9.3 9.3 0 0 1-6.52 8.28L8.51 23a6.38 6.38 0 0 0-2.74 1.73 1.5 1.5 0 0 1-1.1.52z"/><path class="cls-10" d="M11.48 16.52a1.51 1.51 0 0 1-.48-2.94l12.26-3.84a1.5 1.5 0 0 1 .9 2.87l-12.23 3.84a1.76 1.76 0 0 1-.45.07z"/></svg>