<svg viewBox="0 0 42 56" fill="none" xmlns="http://www.w3.org/2000/svg"><path d="M21 11.041A5.52 5.52 0 1 0 21 0a5.52 5.52 0 0 0 0 11.041z" fill="#2D2D2D"/><path d="M21 20.415a8.683 8.683 0 1 0 0-17.366 8.683 8.683 0 0 0 0 17.366z" fill="#C4C4C4"/><circle cx="21" cy="4.688" r="2.938" fill="#C4C4C4"/><circle cx="16.83" cy="5.953" r="2.938" fill="#C4C4C4"/><circle cx="25.257" cy="5.953" r="2.938" fill="#C4C4C4"/><path d="M0 23.953c0-9.94 8.059-18 18-18h.77a4 4 0 0 1 4 4v38.948a2 2 0 0 1-2 2H2a2 2 0 0 1-2-2V23.953z" fill="#CBEEFF"/><path d="M41.828 23.953c0-9.94-8.06-18-18-18h-.598a4 4 0 0 0-4 4v38.948a2 2 0 0 0 2 2h18.598a2 2 0 0 0 2-2V23.953z" fill="#CBEEFF"/><path d="M21 41.305c10.085 0 18.26-8.175 18.26-18.26S31.085 4.785 21 4.785 2.74 12.96 2.74 23.045s8.175 18.26 18.26 18.26z" fill="#2D2D2D"/><path d="M37.64 41.275a4.2 4.2 0 1 0 0-8.4 4.2 4.2 0 0 0 0 8.4zM4.44 40.275a4.29 4.29 0 1 0 0-8.58 4.29 4.29 0 0 0 0 8.58z" fill="#A56644"/><path d="M36.26 27.405v11.06A15.26 15.26 0 0 1 21 53.715a15.26 15.26 0 0 1-15.26-15.26v-11a8.88 8.88 0 0 1 8.88-8.88h12.76a8.88 8.88 0 0 1 8.88 8.83z" fill="#A56644"/><path d="M31.14 15.675S30 25.845 3.75 28.305l3.74-14.37 23.65 1.74z" fill="#2D2D2D"/><path d="M30.9 42.495a.84.84 0 1 0-1.68 0v1.86a.84.84 0 1 0 1.68 0v-1.86zM12.17 42.495a.84.84 0 1 0-1.68 0v1.86a.84.84 0 1 0 1.68 0v-1.86zM22.77 30.555a1.77 1.77 0 0 0-3.54 0v7.92a1.77 1.77 0 1 0 3.54 0v-7.92z" fill="#87401A"/><path d="M28.6 36.495h-3.49a1.33 1.33 0 0 1-1.33-1.33v-1.45a5.65 5.65 0 0 1 5.65-5.65h3.49a1.33 1.33 0 0 1 1.33 1.33v1.45a5.65 5.65 0 0 1-5.65 5.65z" fill="#2D2D2D"/><path d="M32.93 31.245v.46a5.65 5.65 0 0 1-5.65 5.64h-2.49a1.33 1.33 0 0 1-1.33-1.33v-.45a5.65 5.65 0 0 1 5.48-5.64h2.66a1.34 1.34 0 0 1 1.33 1.32z" fill="#fff"/><path d="M9.08 28.065h3.49a5.65 5.65 0 0 1 5.65 5.65v1.45a1.33 1.33 0 0 1-1.33 1.33H13.4a5.65 5.65 0 0 1-5.65-5.65v-1.45a1.33 1.33 0 0 1 1.33-1.33z" fill="#2D2D2D"/><path d="M18.55 35.565v.45a1.329 1.329 0 0 1-1.33 1.33h-2.5a5.65 5.65 0 0 1-5.64-5.64v-.46a1.33 1.33 0 0 1 1.33-1.33h2.66a5.64 5.64 0 0 1 5.48 5.64v.01z" fill="#fff"/><path d="M16.83 31.105v1.87a2.08 2.08 0 0 1-4.15 0v-3.83c0-.46 3.17 1.01 4.15 1.96zM29.33 29.145v3.83a2.08 2.08 0 0 1-4.15 0v-1.86c.98-.96 4.15-2.43 4.15-1.97z" fill="#2D2D2D"/><path fill-rule="evenodd" clip-rule="evenodd" d="M19.65 37.665h2.7a2.314 2.314 0 0 1 0 4.627h-2.7a2.314 2.314 0 0 1 0-4.627z" fill="#87401A"/><circle cx="5.125" cy="40.875" r="2.25" fill="#DBDBDB"/><circle cx="36.5" cy="40.875" r="2.25" fill="#DBDBDB"/><path d="M34.848 29.216c-5.672.233-9.691-2.198-11.74-4.196-.35-.34-.007-.825.453-.664l11.393 3.998c.493.173.416.841-.106.863zM7.147 29.216c5.672.233 9.691-2.198 11.74-4.196.35-.34.007-.825-.453-.664L7.04 28.354c-.493.173-.416.841.106.863z" fill="#2D2D2D"/><path d="M.15 25.62c0-11.507 9.328-20.835 20.835-20.835a60.533 60.533 0 0 1-16.578 41.62l-3.133 3.308a.651.651 0 0 1-1.124-.447V25.62zM41.84 25.62c0-11.507-9.328-20.835-20.835-20.835a60.533 60.533 0 0 0 16.578 41.62l3.133 3.308a.651.651 0 0 0 1.124-.447V25.62z" fill="#CBEEFF" fill-opacity=".25"/><path d="M26.88 47.902a3.541 3.541 0 0 1-4.055 3.504l-.907-.133a6.503 6.503 0 0 0-1.886 0l-.907.133a3.541 3.541 0 0 1-4.055-3.504h11.81z" fill="#F54642"/><path d="M21.935 45.781c.516 1.927-1.247 1.592-3.174 2.109-1.927.516-3.287 1.687-3.803-.24a3.611 3.611 0 1 1 6.977-1.869z" fill="#9D302E"/><path d="M20.065 45.781c-.516 1.927 1.247 1.592 3.174 2.109 1.927.516 3.287 1.687 3.803-.24a3.611 3.611 0 1 0-6.977-1.869z" fill="#9D302E"/><path d="M15.07 48a3.13 3.13 0 0 1 3.13-3.129h5.55a3.13 3.13 0 0 1 3.13 3.13c0 .498-.46.87-.947.765l-1.212-.26a17.844 17.844 0 0 0-7.492 0l-1.212.26A.782.782 0 0 1 15.07 48z" fill="#2D2D2D"/></svg>