<svg id="Layer_3" data-name="Layer 3" xmlns="http://www.w3.org/2000/svg" viewBox="0 0 42 56"><defs><style>.cls-1{fill:#6a3a21}.cls-3{fill:#fff}.cls-4{fill:#3072c6}.cls-5{fill:#f57f69}</style></defs><path class="cls-1" d="M24.75 0h-3.89A7 7 0 0 0 14 5.5l-.48 2.11 27.58 32-1.92-26.2A14.46 14.46 0 0 0 24.75 0z"/><path class="cls-1" d="M30.66 51.42H11.27A11.22 11.22 0 0 1 .13 38.85L2.27 21l.12-1a18.67 18.67 0 0 1 37.15 0l2.25 18.86a11.21 11.21 0 0 1-11.13 12.56z"/><rect x="6.89" y="6.42" width="27.89" height="39" rx="13.95" ry="13.95" transform="rotate(180 20.83 25.915)" fill="#ffb5a1"/><rect class="cls-3" x="10.15" y="18.11" width="8.48" height="11.73" rx="4.24" ry="4.24"/><rect class="cls-4" x="13.65" y="21.33" width="3.41" height="5.57" rx="1.7" ry="1.7"/><rect class="cls-3" x="23.15" y="18.11" width="8.48" height="11.73" rx="4.24" ry="4.24" transform="rotate(180 27.385 23.98)"/><rect class="cls-4" x="24.72" y="21.33" width="3.41" height="5.57" rx="1.7" ry="1.7" transform="rotate(-180 26.42 24.11)"/><path class="cls-3" d="M25.86 36.31l-.54.31-.6.31a8.81 8.81 0 0 1-3.76.84 8.92 8.92 0 0 1-5-1.55 2 2 0 0 1 1.12-3.68 2 2 0 0 1 1.14.36 4.85 4.85 0 0 0 5.11.21l.53-.31a2 2 0 0 1 .86-.25h.14a2 2 0 0 1 1 3.77z"/><rect class="cls-5" x="19.5" y="15.4" width="2.64" height="13.93" rx="1.32" ry="1.32" transform="rotate(-180 20.825 22.365)"/><circle class="cls-5" cx="20.82" cy="29.33" r="2.34"/><path class="cls-1" d="M36.79 20.65h-8.17A14.23 14.23 0 0 1 14.39 6.42l8.77-1 13.17 1z"/><path class="cls-1" d="M17.5 6.41A14.24 14.24 0 0 1 3.27 20.65h-.65l.12-1a18.26 18.26 0 0 1 7.87-13.24z"/></svg>