<svg viewBox="0 0 42 56" version="1.1" xmlns="http://www.w3.org/2000/svg"><g stroke="none" stroke-width="1" fill="none" fill-rule="evenodd"><g><path d="M25.806.5c9.127.85 16.106 8.51 16.106 17.676V42c0 5.523-4.477 10-10 10H9.7V14.364a14 14 0 0 1 .06-1.298C10.477 5.368 17.3-.292 24.998.425l.808.075z" fill="#2D2D2D"/><path d="M15.253 3.642A10 10 0 0 1 18 3.257c5.523 0 10 4.477 10 10V52H10C4.477 52 0 47.523 0 42V18.56A14 14 0 0 1 10.154 5.1l5.099-1.457z" fill="#2D2D2D"/><circle fill="#8B4824" fill-rule="nonzero" cx="5.83" cy="30.63" r="4.83"/><circle fill="#8B4824" fill-rule="nonzero" cx="36.082" cy="30.63" r="4.83"/><g transform="translate(5.34 7.17)" fill-rule="nonzero"><rect fill="#A56644" transform="matrix(1 0 0 -1 0 43.235)" x="0" y="0" width="30.928" height="43.235" rx="15.459"/><path d="M8.582 31.124v.537c.002.347.036.693.103 1.034a4.826 4.826 0 0 0 4.712 3.792h4.133a4.826 4.826 0 0 0 4.712-3.792c.067-.34.102-.687.104-1.034v-.537a.91.91 0 0 0-.91-.91H9.491a.91.91 0 0 0-.91.91z" fill="#8E1D1E"/><path d="M8.597 31.124v.537c.002.347.037.693.104 1.034h13.526c.067-.34.101-.687.103-1.034v-.537a.91.91 0 0 0-.909-.91H9.507a.91.91 0 0 0-.91.91z" fill="#FFF"/><path d="M18.636 36.353a4.898 4.898 0 0 1-1.106.124h-4.133a4.836 4.836 0 0 1-1.106-.124 3.4 3.4 0 0 1 6.314 0h.031z" fill="#EF4A4D"/><path d="M27.28 22.94c-.57 0-1.033-.463-1.033-1.033v-1.85a3.896 3.896 0 0 0-3.896-3.896 1.033 1.033 0 0 1 0-2.066 5.973 5.973 0 0 1 5.962 5.962v1.85c0 .57-.462 1.033-1.033 1.033z" fill="#2D2D2D"/><rect fill="#FFF" transform="matrix(-1 0 0 1 44.134 0)" x="17.825" y="15.955" width="8.484" height="11.739" rx="4.237"/><rect fill="#61361E" transform="matrix(-1 0 0 1 42.201 0)" x="19.396" y="19.179" width="3.41" height="5.57" rx="1.705"/><g transform="matrix(-1 0 0 1 13.289 14.095)"><path d="M9.455 8.845c-.57 0-1.033-.462-1.033-1.033v-1.85a3.896 3.896 0 0 0-3.896-3.895 1.033 1.033 0 0 1 0-2.067 5.973 5.973 0 0 1 5.962 5.962v1.85c0 .57-.462 1.033-1.033 1.033z" fill="#2D2D2D"/><rect fill="#FFF" transform="rotate(-180 4.242 7.74)" x="0" y="1.87" width="8.484" height="11.739" rx="4.237"/></g><rect fill="#61361E" transform="matrix(1 0 0 -1 0 43.906)" x="8.308" y="19.168" width="3.41" height="5.57" rx="1.705"/><path d="M15.557 26.15a1.852 1.852 0 0 0 1.852-1.852v-8.579a1.852 1.852 0 0 0-3.704 0v8.579c0 1.022.83 1.852 1.852 1.852z" fill="#8B4824"/><circle fill="#8B4824" transform="matrix(-1 0 0 1 31.114 0)" cx="15.557" cy="26.15" r="3.269"/></g><path d="M36.34 27.8c.05-1.449.41-3.85-4.04-5.99s-15.284-.345-19.97-2.44c-4.686-2.095-5.26-5.718-5.48-8.94v-.25L8.75 6l17.1-2.5 11.07 8.73-.58 15.57z" fill="#2D2D2D" fill-rule="nonzero"/></g></g></svg>