<svg viewBox="0 0 42 56" fill="none" xmlns="http://www.w3.org/2000/svg"><g clip-path="url(#clip0)"><path fill="#3D3D3D" d="M8.152 12.856h23.407v14.321H8.152z"/><path d="M14.319 23.828a7.113 7.113 0 0 1-10.057-.237l-2.351-2.466a7.113 7.113 0 0 1 .237-10.056l2.757-2.63a7.113 7.113 0 0 1 10.056.237l2.352 2.466a7.113 7.113 0 0 1-.237 10.056l-2.757 2.63zM27.685 23.726a7.113 7.113 0 0 0 10.057-.237l2.351-2.466a7.113 7.113 0 0 0-.237-10.056l-2.757-2.63a7.113 7.113 0 0 0-10.056.238L24.69 11.04a7.113 7.113 0 0 0 .237 10.056l2.757 2.63z" fill="#3D3D3D"/><path d="M11.156 7.783A7.113 7.113 0 0 1 18.27.67h5.14a7.113 7.113 0 0 1 7.113 7.113v4.253a7.113 7.113 0 0 1-7.112 7.113h-5.141a7.113 7.113 0 0 1-7.113-7.113V7.783z" fill="#3D3D3D"/><path d="M30.2 25.466a5.676 5.676 0 0 1 5.675 5.675v14.19a6.669 6.669 0 0 1-6.669 6.668h-16.46a6.669 6.669 0 0 1-6.668-6.669V31.142a5.676 5.676 0 0 1 5.676-5.676h18.445z" fill="#A46648"/><rect x="12.383" y="31.116" width="7.588" height="9.951" rx="3.794" fill="#fff"/><rect x="22.113" y="31.116" width="7.588" height="9.951" rx="3.794" fill="#fff"/><rect x="15.738" y="33.48" width="3.358" height="5.473" rx="1.679" fill="#4B4B4B"/><path d="M22.984 35.719a1.368 1.368 0 0 0 1.126-2.145 1.68 1.68 0 0 1 2.232 1.586v2.114a1.68 1.68 0 1 1-3.358 0V35.72z" fill="#3D3D3D"/><path d="M19.758 41.061a1.24 1.24 0 1 0 2.48 0c0-.685-1.188-2.274-1.24-2.274-.052 0-1.24 1.589-1.24 2.274z" fill="#86401F"/><path d="M20.07 23.231a5.74 5.74 0 0 1 6.208-5.23l-.138 1.613a5.74 5.74 0 0 1-6.208 5.23l.138-1.613z" fill="#FDB02A"/><path d="M15.843 19.558a5.74 5.74 0 0 0 6.209 5.23l-.138-1.613a5.74 5.74 0 0 0-6.209-5.23l.138 1.613z" fill="#FDB02A"/><rect x="19.156" y="40.126" width="3.689" height="2.554" rx="1.277" fill="#86401F"/><path d="M4.234 24.046h17.311v1.697L5.953 33.978l-1.719-9.932z" fill="#FDB02A"/><path d="M37.574 24.046h-17.31v1.697l15.591 8.235 1.72-9.932z" fill="#FDB02A"/><path d="M19.272 42.266c-1.308-2.18-4.497-2.986-7.522-2.18l.654 2.18c2.889.591 7.91 1.735 6.868 0z" fill="#A46648"/><path fill-rule="evenodd" clip-rule="evenodd" d="M15.947 42.196a1 1 0 0 1 1.357.4c.381.703 1.245 1.683 3.234 1.683a1 1 0 1 1 0 2c-2.845 0-4.323-1.496-4.992-2.727a1 1 0 0 1 .402-1.356z" fill="#7E3D1D"/><path d="M11.188 35.242a5.525 5.525 0 0 1 5.525-5.525H25a5.525 5.525 0 0 1 5.525 5.525v.967H11.187v-.967z" fill="#A46648"/><rect x="23" y="33" width="6" height="2" rx="1" fill="#7E3D1E"/><path fill-rule="evenodd" clip-rule="evenodd" d="M13.812 31.024c2.932-1.26 5.61-.08 6.637.709a1 1 0 1 1-1.218 1.586c-.646-.496-2.561-1.346-4.629-.457a1 1 0 0 1-.79-1.838z" fill="#7E3D1D"/><circle cx="35.708" cy="37.139" r="3.384" fill="#A46648"/><circle cx="6.009" cy="37.279" r="3.384" fill="#A46648"/></g><defs><clipPath id="clip0"><path fill="#fff" d="M0 0h42v56H0z"/></clipPath></defs></svg>