<svg id="Layer_3" data-name="Layer 3" xmlns="http://www.w3.org/2000/svg" viewBox="0 0 42 56"><defs><style>.cls-1{fill:#ffb49e}.cls-2{fill:#62361b}.cls-3{fill:#fff}.cls-4{fill:#4b4b4b}.cls-5{fill:#00aef8}.cls-9{fill:#ff9783}</style></defs><circle class="cls-1" cx="36.07" cy="32.3" r="5.69"/><circle class="cls-1" cx="5.76" cy="32.3" r="5.69"/><path class="cls-1" d="M37 13.94v27.52a4.11 4.11 0 0 1-1.81 3.4l-6.77 4.54a13.24 13.24 0 0 1-14.77 0l-6.78-4.54a4.11 4.11 0 0 1-1.81-3.4V13.94z"/><path class="cls-2" d="M20.56 16.5s1.29 7.67 15 7.67l.31-2.76-8.44-4.91z"/><path class="cls-2" d="M36.36 34.3a1.52 1.52 0 0 1-1.52-1.51V19.68h3v13.11a1.52 1.52 0 0 1-1.48 1.51zM5.94 34.84a1.39 1.39 0 0 0 1.39-1.4V19.68H4.19l.35 13.8a1.4 1.4 0 0 0 1.4 1.36z"/><rect class="cls-3" x="9.86" y="23.68" width="8.96" height="12.4" rx="4.48" ry="4.48"/><rect class="cls-4" x="13.55" y="27.08" width="3.6" height="5.88" rx="1.8" ry="1.8"/><rect class="cls-3" x="23.35" y="23.68" width="8.96" height="12.4" rx="4.48" ry="4.48" transform="rotate(-180 27.83 29.885)"/><rect class="cls-4" x="25.01" y="27.08" width="3.6" height="5.88" rx="1.8" ry="1.8" transform="rotate(-180 26.81 30.02)"/><path class="cls-5" d="M18.49 0h4.15a1.52 1.52 0 0 1 1.52 1.52v2.84H17V1.52A1.52 1.52 0 0 1 18.49 0z"/><path d="M38 20.65v-7.77a4.63 4.63 0 0 0-2.32-4l-9.77-5.65a9.91 9.91 0 0 0-9.91 0L6.24 8.86a4.65 4.65 0 0 0-2.32 4v7.76A1.42 1.42 0 0 0 6 21.89l4.54-2.4a22.2 22.2 0 0 1 20.69 0l4.68 2.46a1.42 1.42 0 0 0 2.09-1.3z" fill="#2b70c8"/><path class="cls-3" d="M15.6 11h10.18a1.65 1.65 0 0 1 1.65 1.65V17H14v-4.37A1.65 1.65 0 0 1 15.6 11z"/><path class="cls-5" d="M38.8 24.45a1.79 1.79 0 0 1-.83-.21l-5.58-2.93a24.69 24.69 0 0 0-23 .05l-5.45 2.86a1.78 1.78 0 0 1-1.67-3.15l5.42-2.87a28.28 28.28 0 0 1 26.36-.05l5.58 2.93a1.79 1.79 0 0 1-.83 3.37z"/><path d="M27.73 39.62v.52a4.71 4.71 0 0 1-4.7 4.7H19a4.71 4.71 0 0 1-4.7-4.7v-.52a.89.89 0 0 1 .89-.89h11.65a.89.89 0 0 1 .89.89z" fill="#8f1b19"/><path class="cls-3" d="M27.73 39.62v.52a4.71 4.71 0 0 1-.11 1H14.43a4.71 4.71 0 0 1-.11-1v-.52a.89.89 0 0 1 .89-.89h11.63a.89.89 0 0 1 .89.89z"/><path d="M18 44.71a4.26 4.26 0 0 0 1.08.13h4a4.32 4.32 0 0 0 1.08-.13 3.32 3.32 0 0 0-6.16 0z" fill="#f14848"/><path class="cls-9" d="M23.15 37.28h-4.24a1.13 1.13 0 0 1-1-1.59l1-2.25a1.08 1.08 0 0 1 1-.68h2.3a1.09 1.09 0 0 1 1 .68l1 2.25a1.13 1.13 0 0 1-1.06 1.59z"/><rect class="cls-9" x="19.95" y="26.34" width="2.35" height="7.88" rx="1.18" ry="1.18"/></svg>