<svg viewBox="0 0 42 56" fill="none" xmlns="http://www.w3.org/2000/svg"><circle cx="5.971" cy="34.711" r="3.054" fill="#DA8E74"/><circle cx="35.471" cy="34.711" r="3.054" fill="#DA8E74"/><path d="M3.304 21.423c-.893-3.768 1.965-7.382 5.838-7.382h4.087v22.38H8.438a2 2 0 0 1-1.947-1.538l-3.187-13.46zM38.138 21.423c.893-3.768-1.966-7.382-5.838-7.382h-4.088v22.38h4.792a2 2 0 0 0 1.946-1.538l3.188-13.46z" fill="#3D3D3D"/><circle cx="22.203" cy="13.875" r="13.632" fill="#3D3D3D"/><path d="M37.006 26.202l-3.844 1.03v9.184a2 2 0 0 0 1.788-1.533l2.056-8.681zM8.28 36.416a2 2 0 0 1-1.789-1.533l-2.056-8.681 3.844 1.03v9.184z" fill="#C4C4C4"/><path d="M15.328 13.875a8 8 0 0 0-8 8v22.193a8.001 8.001 0 0 0 7.187 7.96 7.525 7.525 0 0 0 6.206 3.262 7.525 7.525 0 0 0 6.206-3.262 8.001 8.001 0 0 0 7.186-7.96V21.875a8 8 0 0 0-8-8H15.328z" fill="#DA8E74"/><path d="M13.188 31.657v1.145a3.427 3.427 0 0 0 6.853 0v-1.145h-6.853zM21.4 31.657v1.145a3.427 3.427 0 1 0 6.853 0v-1.145H21.4z" fill="#fff"/><path d="M16.023 31.657v1.14a1.538 1.538 0 1 0 3.076 0v-1.14h-3.076zM22.56 31.657v1.14a1.538 1.538 0 1 0 3.077 0v-1.14H22.56z" fill="#3D3D3D"/><path fill-rule="evenodd" clip-rule="evenodd" d="M17.732 29c-.916-.603-2.048-.726-3.715.09a1.758 1.758 0 0 1-1.546-3.156c2.479-1.214 4.983-1.325 7.193.129A1.757 1.757 0 1 1 17.732 29z" fill="#3D3D3D"/><path fill-rule="evenodd" clip-rule="evenodd" d="M23.71 29c.916-.603 2.047-.726 3.715.09a1.758 1.758 0 0 0 1.546-3.156c-2.48-1.214-4.983-1.325-7.193.129A1.757 1.757 0 1 0 23.71 29z" fill="#3D3D3D"/><path d="M24.814 19.693c5.1 0 9.235-2.982 9.235-6.661H15.58c0 3.679 4.135 6.661 9.235 6.661z" fill="#3D3D3D"/><path d="M15.23 40.83h11a.69.69 0 0 1 .69.69 2.5 2.5 0 0 1-2.5 2.5h-7.4a2.5 2.5 0 0 1-2.5-2.5.689.689 0 0 1 .71-.69z" fill="#fff"/><path d="M16.036 42.16a5.456 5.456 0 0 0 5.456-5.457H10.58a5.456 5.456 0 0 0 5.457 5.457z" fill="#3D3D3D"/><path d="M25.406 42.16a5.456 5.456 0 0 0 5.456-5.457H19.95a5.456 5.456 0 0 0 5.457 5.457z" fill="#3D3D3D"/><path d="M23.055 35.37l-2.4-2-2.4 2a1.77 1.77 0 0 0-.102 2.619c.336.333.79.52 1.263.52h2.49a1.781 1.781 0 0 0 1.78-1.78 1.77 1.77 0 0 0-.63-1.36z" fill="#DA8E74"/></svg>