<svg viewBox="0 0 42 56" version="1.1" xmlns="http://www.w3.org/2000/svg"><g stroke="none" stroke-width="1" fill="none" fill-rule="evenodd"><g><path d="M21 0h.07c11.333 0 20.52 9.187 20.52 20.52v10c0 7.467-6.053 13.52-13.52 13.52H14C6.533 44.04.48 37.987.48 30.52v-10C.48 9.187 9.667 0 21 0z" fill="#2D2D2D"/><circle fill="#E3997F" fill-rule="nonzero" cx="35.98" cy="35.57" r="5.98"/><circle fill="#E3997F" fill-rule="nonzero" cx="6.1" cy="35.57" r="5.98"/><path d="M20.34 9.18h1.389c8.284 0 15 6.716 15 15a15 15 0 0 1-.02.751l-.828 16.53a8 8 0 0 1-7.99 7.599H14.179a8 8 0 0 1-7.99-7.6l-.83-16.529C4.946 16.657 11.317 9.614 19.59 9.2a15 15 0 0 1 .752-.019z" fill="#E3997F"/><path d="M21.035 51.94c-4.072-.006-7.37-2.86-7.37-6.38v.58h14.74v-.58c0 3.52-3.298 6.374-7.37 6.38z" fill="#E3997F" fill-rule="nonzero"/><path d="M21.01 42.67h-4.79a.93.93 0 0 1 0-1.85h9.57a.93.93 0 0 1 0 1.85h-4.78z" fill="#BA7258" fill-rule="nonzero"/><rect fill="#FFF" fill-rule="nonzero" x="9.09" y="23.28" width="9.39" height="13" rx="4.695"/><rect fill="#4B4B4B" fill-rule="nonzero" x="12.97" y="26.5" width="3.78" height="6.17" rx="1.89"/><rect fill="#FFF" fill-rule="nonzero" transform="rotate(-180 28.135 29.79)" x="23.44" y="23.29" width="9.39" height="13" rx="4.695"/><rect fill="#4B4B4B" fill-rule="nonzero" transform="rotate(-180 27.06 29.595)" x="25.17" y="26.51" width="3.78" height="6.17" rx="1.89"/><path d="M6.08 35.27A1.07 1.07 0 0 1 5 36.35a1.001 1.001 0 0 1-.47-.11 1.06 1.06 0 0 1-.61-.92l-.21-5.24v-.47l-.25-8.93a8.49 8.49 0 0 1 1.1-1.58c.46-.517.97-.99 1.52-1.41v17.58zM39 21l-.48 7.2-.08 2-.21 5.19a1.11 1.11 0 0 1-.79 1 1.35 1.35 0 0 1-.28 0 1.08 1.08 0 0 1-1.09-1.08V18.18a9.84 9.84 0 0 1 1.37 1.47c.62.78 1.39.45 1.56 1.35z" fill="#2D2D2D" fill-rule="nonzero"/><g fill="#2D2D2D" fill-rule="nonzero"><path d="M17.405 8.18h3.64a14.37 14.37 0 0 1-14.38 14.37h-3.63c0-7.936 6.434-14.37 14.37-14.37z"/><path d="M39.005 22.55h-3.64c-7.933-.006-14.36-6.438-14.36-14.37h3.63c7.936 0 14.37 6.434 14.37 14.37z"/></g><rect fill="#DC8166" fill-rule="nonzero" x="19.21" y="24.89" width="3.5" height="12.53" rx="1.75"/></g></g></svg>