<svg viewBox="0 0 42 56" version="1.1" xmlns="http://www.w3.org/2000/svg"><g stroke="none" stroke-width="1" fill="none" fill-rule="evenodd"><g><path d="M13.5 0C20.956 0 27 6.044 27 13.5S20.956 27 13.5 27 0 20.956 0 13.5 6.044 0 13.5 0z" fill="#2D2D2D"/><path d="M24 3a7 7 0 0 1 7 7v3a7 7 0 0 1-14 0v-3a7 7 0 0 1 7-7z" fill="#2D2D2D"/><path d="M12.011 44.482l5.97 3.472a7 7 0 0 0 7.038 0l5.97-3.472a5 5 0 0 0 2.412-3.461l3.344-19.126c1.047-5.985-2.956-11.684-8.94-12.73A11 11 0 0 0 25.91 9h-8.82c-6.075 0-11 4.925-11 11a11 11 0 0 0 .165 1.895L9.599 41.02a5 5 0 0 0 2.412 3.461z" fill="#DB8F73" fill-rule="nonzero"/><rect fill="#DB8F73" transform="rotate(-15 34.117 31.9)" x="28.117" y="27.4" width="12" height="9" rx="4.5"/><rect fill="#DB8F73" transform="scale(-1 1) rotate(-15 0 95.777)" x="2.41" y="27.4" width="12" height="9" rx="4.5"/><path d="M25.037 39.89a7.054 7.054 0 0 1-6.995-.244" stroke="#AD542F" stroke-width="1.5" stroke-linecap="round" stroke-linejoin="round"/><path d="M22.51 27.868l.915 8.228A1.714 1.714 0 0 1 21.72 38h-.36a1.714 1.714 0 0 1-1.704-1.904l.914-8.228a.975.975 0 0 1 1.94 0z" fill="#C76C46"/><path d="M32.25 23H28.5c-2.485 0-4.5 1.954-4.5 4.364v2.909c0 .401.336.727.75.727h3.75c2.485 0 4.5-1.954 4.5-4.364v-2.909a.739.739 0 0 0-.75-.727zM10.75 23h3.75c2.485 0 4.5 1.954 4.5 4.364v2.909a.739.739 0 0 1-.75.727H14.5c-2.485 0-4.5-1.954-4.5-4.364v-2.909c0-.401.336-.727.75-.727z" fill="#2B70C9" fill-rule="nonzero"/><path d="M32.25 25H28.5c-2.485 0-4.5 1.71-4.5 3.818v2.546c0 .351.336.636.75.636h3.75c2.485 0 4.5-1.71 4.5-3.818v-2.546c0-.351-.336-.636-.75-.636zM10.75 25h3.75c2.485 0 4.5 1.71 4.5 3.818v2.546c0 .351-.336.636-.75.636H14.5c-2.485 0-4.5-1.71-4.5-3.818v-2.546c0-.351.336-.636.75-.636z" fill="#FFF" fill-rule="nonzero"/><path d="M29 27v2a2 2 0 1 1-4 0v-2c0-.25.046-.49.13-.712.629-.602 1.478-1.035 2.44-1.206A2.003 2.003 0 0 1 29 27zM17.87 26.288l.045.134A2 2 0 0 1 18 27v2a2 2 0 1 1-4 0v-2a2 2 0 0 1 1.43-1.917c.962.17 1.811.603 2.44 1.205z" fill="#2D2D2D" fill-rule="nonzero"/><path d="M35.043 35h1.914a1 1 0 0 1 .985.831l.858 5A1 1 0 0 1 37.814 42h-3.628a1 1 0 0 1-.986-1.169l.858-5a1 1 0 0 1 .985-.831z" fill="#FFC800"/><path d="M25.91 9a11 11 0 0 1 1.894.164c5.686.995 9.583 6.189 9.06 11.836H6.137a11 11 0 0 1-.046-1c0-6.075 4.925-11 11-11z" fill="#A98476" fill-rule="nonzero"/><path d="M17 15h10.701A6.299 6.299 0 0 1 34 21.299H14V18a3 3 0 0 1 3-3z" fill="#DB8F73"/><path d="M36.867 19c.085.945.05 1.916-.122 2.895l-1.063 6.08A2 2 0 0 1 34 26v-7z" fill="#A98476" fill-rule="nonzero"/><path d="M24 4a7 7 0 0 1 7 7v3a7 7 0 0 1-14 0v-3a7 7 0 0 1 7-7z" fill="#2D2D2D"/><path d="M8.91 19.001v7a2 2 0 0 1-1.683 1.975l-1.063-6.08a11 11 0 0 1-.12-2.895H8.91z" fill="#A98476" fill-rule="nonzero"/><path d="M10.533 2.27a7 7 0 0 1 7 7v10a7 7 0 1 1-14 0v-10a7 7 0 0 1 7-7z" fill="#2D2D2D"/><path d="M35.492 37h.987a.606.606 0 0 0 .575-.795l-.036-.108a1 1 0 0 0-.95-.687h-.196a1 1 0 0 0-.962.727l-.019.068a.624.624 0 0 0 .6.795z" fill="#FFE44E"/><path d="M6.043 35h1.914a1 1 0 0 1 .985.831l.858 5A1 1 0 0 1 8.814 42H5.186a1 1 0 0 1-.986-1.169l.858-5A1 1 0 0 1 6.043 35z" fill="#FFC800"/><path d="M6.492 37h.987a.606.606 0 0 0 .575-.795l-.036-.108a1 1 0 0 0-.95-.687h-.196a1 1 0 0 0-.962.727l-.019.068a.624.624 0 0 0 .6.795z" fill="#FFE44E"/></g></g></svg>