<svg id="Layer_3" data-name="Layer 3" xmlns="http://www.w3.org/2000/svg" viewBox="0 0 42 56"><defs><style>.cls-1{fill:#a46647}.cls-2{fill:#db8269}.cls-3{fill:#e59b80}.cls-4{fill:#fff}.cls-5{fill:#4b4b4b}.cls-8{fill:#e6dcdc}</style></defs><path class="cls-1" d="M37.2 48.92H4.81a2.51 2.51 0 0 1-2.47-3L7 22.22h28.06l4.61 23.71a2.51 2.51 0 0 1-2.47 2.99z"/><circle class="cls-2" cx="7.84" cy="30.99" r="5.6"/><circle class="cls-2" cx="33.86" cy="30.99" r="5.6"/><path class="cls-3" d="M8.93 20.41v18.42A12.09 12.09 0 0 0 21 50.92a12.09 12.09 0 0 0 12.1-12.09V20.41z"/><rect class="cls-4" x="10.91" y="24.71" width="7.93" height="10.97" rx="3.96" ry="3.96"/><rect class="cls-5" x="14.18" y="27.71" width="3.19" height="5.2" rx="1.59" ry="1.59"/><rect class="cls-4" x="23.21" y="24.71" width="7.93" height="10.97" rx="3.96" ry="3.96" transform="rotate(180 27.175 30.19)"/><rect class="cls-5" x="24.63" y="27.71" width="3.19" height="5.2" rx="1.59" ry="1.59" transform="rotate(180 26.23 30.315)"/><rect x="18.84" y="26.06" width="4.37" height="12.4" rx="1.44" ry="1.44" fill="#d67155"/><path class="cls-3" d="M31.66 31.3l-8.04 3.25 1.57 1.55 5.95-.42.52-4.38z"/><path fill="#d8c8c8" d="M6.87 5.06l28.19.9V19H6.87V5.06z"/><rect class="cls-8" x="5.62" y="17.09" width="30.58" height="5.13" rx="1.33" ry="1.33"/><path class="cls-8" d="M36.07 12.28L5.09 6A3 3 0 0 1 2.7 2.45 3 3 0 0 1 6.24.06l31 6.29a3 3 0 0 1 2.4 3.54 3 3 0 0 1-3.57 2.39z"/><path d="M29 40.72l-.49.54a7.14 7.14 0 0 1-.55.55 10.39 10.39 0 0 1-3.9 2.29 9.79 9.79 0 0 1-2.07.44 11 11 0 0 1-2.62 0l-.28-.06q-.6-.11-1.2-.27a2.39 2.39 0 0 1-1.58-3 2.5 2.5 0 0 1 .25-.55 2.24 2.24 0 0 1 1.1-.94.6.6 0 0 1 .16-.08 2.34 2.34 0 0 1 1.41 0 5.37 5.37 0 0 0 2.18.2 5.07 5.07 0 0 0 1.13-.24 5.93 5.93 0 0 0 2-1.14 4.24 4.24 0 0 0 .43-.42l.47-.54a2.63 2.63 0 0 1 .41-.35 3.42 3.42 0 0 1 .47-.23.51.51 0 0 1 .15-.07h.11a2.41 2.41 0 0 1 1.48.09 2.5 2.5 0 0 1 .73.44 2.35 2.35 0 0 1 .21 3.34z" fill="#a54140"/><path class="cls-4" d="M29 40.72H16.55a2.24 2.24 0 0 1 1.1-.94.6.6 0 0 1 .16-.08 2.34 2.34 0 0 1 1.41 0 5.37 5.37 0 0 0 2.18.2 5.07 5.07 0 0 0 1.13-.24 5.62 5.62 0 0 0 2-1.14 4.24 4.24 0 0 0 .43-.42l.47-.54a2.63 2.63 0 0 1 .41-.35 1.87 1.87 0 0 1 .47-.23.51.51 0 0 1 .15-.07h.11a7.69 7.69 0 0 1 .88-.06 2.2 2.2 0 0 1 .6.15 2.5 2.5 0 0 1 .73.44 2.35 2.35 0 0 1 .22 3.28z"/><path class="cls-1" d="M33.12 22.16h1.94v24.68h-1.94zM6.99 22.16h1.94v24.68H6.99z"/></svg>