<svg viewBox="0 0 42 56" fill="none" xmlns="http://www.w3.org/2000/svg"><path d="M20.971 4c8.645 0 15.653 7.008 15.653 15.653v.318c0 8.645-7.008 15.653-15.653 15.653S5.318 28.616 5.318 19.971v-.318C5.318 11.008 12.326 4 20.97 4z" fill="#0084C2"/><path d="M31.66 8.217a15.75 15.75 0 0 0-1.19-1.007L14.16 18.79l.874 1.23L31.66 8.218z" fill="#006AAD"/><path fill-rule="evenodd" clip-rule="evenodd" d="M21.192 44.85c4.834 0 9.134 2.398 11.872 6.12.267.364.519.74.755 1.127a.752.752 0 0 1-.637 1.143l-24.051.152a.759.759 0 0 1-.657-1.147c.235-.394.485-.776.751-1.145 2.733-3.796 7.076-6.25 11.967-6.25z" fill="#CC348D"/><path fill-rule="evenodd" clip-rule="evenodd" d="M10.48 21.331l10.482-7.399 10.335 7.4v23.192H10.48V21.33z" fill="#C6775C"/><path fill-rule="evenodd" clip-rule="evenodd" d="M14.018 30.38h13.667a9.018 9.018 0 0 1 0 18.037H14.02a9.018 9.018 0 1 1 0-18.037z" fill="#3D3D3D"/><path fill-rule="evenodd" clip-rule="evenodd" d="M16.262 32.347a2.108 2.108 0 0 0-2.542 1.561 2.119 2.119 0 0 0 .25 1.601c1.148 1.89 3.07 2.924 5.5 3.052a2.113 2.113 0 0 0 2.213-2.004 2.1 2.1 0 0 0-.534-1.519 2.149 2.149 0 0 0-1.467-.707c-.713-.039-1.591-.21-2.108-1.014l-.006-.01-.005-.009a2.097 2.097 0 0 0-1.301-.951z" fill="#fff"/><path d="M20.892 32.684a2.702 2.702 0 1 0 0-5.403 2.702 2.702 0 0 0 0 5.403z" fill="#C6775C"/><path fill-rule="evenodd" clip-rule="evenodd" d="M16.292 19.574a3.746 3.746 0 0 1 3.746 3.746v2.28a3.746 3.746 0 1 1-7.493 0v-2.28a3.746 3.746 0 0 1 3.747-3.746zM25.508 19.574a3.746 3.746 0 0 0-3.746 3.746v2.28a3.746 3.746 0 1 0 7.493 0v-2.28a3.746 3.746 0 0 0-3.747-3.746z" fill="#fff"/><path d="M23.03 23.624a1.35 1.35 0 0 0 1.211-1.759 1.682 1.682 0 0 1 2.153 1.616v2.112a1.682 1.682 0 0 1-3.364 0v-1.969zM15.644 23.458a1.35 1.35 0 0 0 1.475-1.647 1.682 1.682 0 0 1 1.889 1.67v2.112a1.682 1.682 0 1 1-3.364 0V23.48v-.022z" fill="#3D3D3D"/></svg>