<svg id="Layer_3" data-name="Layer 3" xmlns="http://www.w3.org/2000/svg" viewBox="0 0 42 56"><defs><style>.cls-1{fill:#ff9d8a}.cls-3{fill:#fff}.cls-4{fill:#4b4b4b}.cls-6{fill:#825035}.cls-7{fill:#cc9376}.cls-9{fill:#ff7e76}</style></defs><circle class="cls-1" cx="5.67" cy="29.93" r="5.67"/><circle class="cls-1" cx="36.33" cy="29.93" r="5.67"/><path d="M36.09 13.42V32.2a12.56 12.56 0 0 1-12.56 12.57H18A12.58 12.58 0 0 1 5.46 32.19V13.42a8.92 8.92 0 0 1 8.91-8.92h12.81a8.92 8.92 0 0 1 8.91 8.92z" fill="#ffb5a1"/><rect class="cls-3" x="10.86" y="20.93" width="7.77" height="10.76" rx="3.89" ry="3.89"/><rect class="cls-4" x="13.47" y="23.48" width="3.12" height="5.1" rx="1.56" ry="1.56"/><rect class="cls-3" x="22.92" y="20.93" width="7.77" height="10.76" rx="3.89" ry="3.89" transform="rotate(-180 26.805 26.31)"/><rect class="cls-4" x="24.82" y="23.48" width="3.12" height="5.1" rx="1.56" ry="1.56" transform="rotate(180 26.38 26.03)"/><rect x="19.13" y="20.25" width="3.29" height="12.17" rx="1.41" ry="1.41" fill="#f57f69"/><path class="cls-6" d="M33.19 9.94v.11c.88 0 1.76.06 2.64 0v-.14a16.28 16.28 0 0 0-30 0 1.18 1.18 0 0 0-.07.2h.39c.49 0 1-.05 1.47-.05v-.2h25.57z"/><path class="cls-7" d="M5.79 9.94h1.79v5.16a32.2 32.2 0 0 1-.89 7.51l-1.21 5A16.13 16.13 0 0 1 5 24.44l-.43-7.21v-1a16.15 16.15 0 0 1 1.22-6.29zM37 17.25l-.12 1.9-.32 5.28a15.52 15.52 0 0 1-.5 3.11l-1.55-5.68c-.25-.9-.46-1.82-.63-2.74-.11-.63-.21-1.26-.28-1.9s-.15-1.46-.19-2.2v-.12l-.07-1.9-.15-3.07h2.59a16.82 16.82 0 0 1 .95 3.07 14.83 14.83 0 0 1 .27 1.9 15.32 15.32 0 0 1 0 2.35z"/><path class="cls-6" d="M21.79 13.27a3.07 3.07 0 0 1-.4-4.33l2.7-3.23 4.74 3.94-2.71 3.22a3.08 3.08 0 0 1-4.33.4z"/><path class="cls-6" d="M13.45 14.08a3.09 3.09 0 0 1-.4-4.33l4.05-5.14 4.73 3.93-4 5.14a3.1 3.1 0 0 1-4.38.4z"/><path class="cls-6" d="M6.74 12.56a3.07 3.07 0 0 1-.4-4.33L9 5l4.74 3.93-2.71 3.22a3.07 3.07 0 0 1-4.29.41z"/><path d="M25.31 36.39c-7.64 0-10-1.58-10.24-1.76A1 1 0 0 1 16.24 33c.08.05 2.23 1.38 9.07 1.38a1 1 0 1 1 0 2z" fill="#ba7258"/><path class="cls-9" d="M25.62 18.58a1.26 1.26 0 1 1 1.26-1.26 1.26 1.26 0 0 1-1.26 1.26zM14.4 42.23a1.26 1.26 0 1 1 0-2.52 1.26 1.26 0 1 1 0 2.52z"/></svg>