<svg id="Layer_3" data-name="Layer 3" xmlns="http://www.w3.org/2000/svg" viewBox="0 0 42 56"><defs><style>.cls-1{fill:#ffb5a1}.cls-3{fill:#ff9d8a}.cls-4{fill:#fff}.cls-5{fill:#4b4b4b}</style></defs><rect class="cls-1" x=".2" y="21.84" width="41.2" height="8.92" rx="4.46" ry="4.46"/><rect x=".2" y="5.05" width="41.79" height="19.79" rx="9.89" ry="9.89" fill="#777"/><path class="cls-1" d="M36.74 16.09v19.45a4.11 4.11 0 0 1-1.81 3.4l-6.78 4.56a13.29 13.29 0 0 1-14.8 0l-6.78-4.56a4.08 4.08 0 0 1-1.81-3.4V16.09a16 16 0 0 1 16-16 16 16 0 0 1 15.98 16z"/><rect class="cls-3" x="22.51" y="12.1" width="11.52" height="15.94" rx="5.76" ry="5.76"/><rect class="cls-3" x="7.52" y="12.1" width="11.52" height="15.94" rx="5.76" ry="5.76"/><rect class="cls-4" x="9.76" y="12.8" width="9.06" height="12.54" rx="4.53" ry="4.53"/><rect class="cls-5" x="13.5" y="16.24" width="3.64" height="5.95" rx="1.82" ry="1.82"/><rect class="cls-4" x="22.68" y="12.8" width="9.06" height="12.54" rx="4.53" ry="4.53"/><rect class="cls-5" x="24.31" y="16.24" width="3.64" height="5.95" rx="1.82" ry="1.82" transform="rotate(180 26.13 19.215)"/><path class="cls-1" d="M34.03 20.03l-13.47-1.96-14.12 1.96V9.86h27.59v10.17z"/><rect class="cls-3" x="18.67" y="16.89" width="4.17" height="14.43" rx="2.02" ry="2.02"/><path class="cls-1" d="M13.27 39.67h15V43a3.8 3.8 0 0 1-3.8 3.8h-7.4a3.8 3.8 0 0 1-3.8-3.8v-3.33z"/><path class="cls-3" d="M29 36.17a.82.82 0 0 1-.72-.42l-2.78-4.81a.83.83 0 0 1 1.5-.83l2.78 4.82a.82.82 0 0 1-.3 1.13.87.87 0 0 1-.48.11zM12.24 36.52a.77.77 0 0 1-.41-.11.82.82 0 0 1-.31-1.13l3-5.17a.83.83 0 1 1 1.43.83l-3 5.17a.83.83 0 0 1-.71.41z"/><path d="M26.13 36.18h-10.5a1 1 0 0 1 0-2h10.5a1 1 0 1 1 0 2z" fill="#ba725b"/><path class="cls-3" d="M29.81 14.93h-.17l-4.86-1a20.37 20.37 0 0 0-7.78-.07l-5.69 1.05a.82.82 0 1 1-.3-1.62l5.69-1.06a22.24 22.24 0 0 1 8.45.07l4.86 1a.83.83 0 0 1-.16 1.64z"/></svg>