<svg viewBox="0 0 42 56" version="1.1" xmlns="http://www.w3.org/2000/svg" xmlns:xlink="http://www.w3.org/1999/xlink"><defs><path d="M21.487 0c7.787 0 14.711 3.72 19.12 9.492.43.564.837 1.146 1.217 1.747a1.155 1.155 0 0 1-.968 1.773l-38.714.235a1.27 1.27 0 0 1-1.25-1.253c0-.18.038-.36.113-.525a24.37 24.37 0 0 1 1.21-1.776C6.616 3.806 13.611 0 21.487 0z" id="a"/><path d="M12.536 0H27c6.924 0 12.536 5.612 12.536 12.536 0 6.923-5.612 12.536-12.536 12.536H12.536C5.612 25.072 0 19.459 0 12.536 0 5.612 5.612 0 12.536 0z" id="c"/></defs><g stroke="none" stroke-width="1" fill="none" fill-rule="evenodd"><g><g transform="translate(-.5 40.78)"><mask id="b" fill="#fff"><use xlink:href="#a"/></mask><use fill="#FF9500" xlink:href="#a"/><rect fill="#FFB100" mask="url(#b)" x="12.24" y="-1.02" width="18.36" height="18.36" rx="1.02"/><rect fill="#FFF" mask="url(#b)" x="12.24" y="-.02" width="10.2" height="10.2" rx="5.1"/><rect fill="#FFF" mask="url(#b)" x="20.4" y="-.02" width="10.2" height="10.2" rx="5.1"/></g><g transform="translate(1.128 1)"><ellipse fill="#3D3D3D" cx="19.814" cy="6.035" rx="6.07" ry="6.035"/><g transform="translate(0 13.535)"><mask id="d" fill="#fff"><use xlink:href="#c"/></mask><use fill="#3D3D3D" xlink:href="#c"/><path fill="#D8D8D8" mask="url(#d)" d="M-9.367 14.12h57.444v11.227H-9.367z"/></g><path d="M19.919 18.349c8.573 0 15.523 6.95 15.523 15.523V45.49H4.395V33.872c0-8.573 6.95-15.523 15.524-15.523z" fill="#FFCBA3"/><path fill="#3D3D3D" d="M9.209 17.233h22.675v3.698H9.209z"/><g><g><g><g><g><g transform="translate(13.024 24.456)"><path d="M3.259.032A3.237 3.237 0 0 1 6.496 3.27v1.998a3.237 3.237 0 1 1-6.474 0V3.269A3.237 3.237 0 0 1 3.259.032z" fill="#FFF"/><path d="M4.144 1.929c.805 0 1.458.652 1.458 1.458v1.83a1.458 1.458 0 0 1-2.916 0v-1.83c0-.806.653-1.458 1.458-1.458z" fill="#3D3D3D"/><circle fill="#FFF" cx="2.858" cy="2.239" r="1.068"/></g></g><g transform="matrix(-1 0 0 1 27.23 24.456)"><path d="M3.281.032A3.237 3.237 0 0 1 6.518 3.27v1.998a3.237 3.237 0 1 1-6.474 0V3.269A3.237 3.237 0 0 1 3.28.032z" fill="#FFF"/><path d="M4.003 1.929c.805 0 1.458.652 1.458 1.458v1.83a1.458 1.458 0 0 1-2.916 0v-1.83c0-.806.653-1.458 1.458-1.458z" fill="#3D3D3D"/><circle fill="#FFF" cx="5.059" cy="2.239" r="1.068"/></g></g></g></g></g><path d="M12.57 31.047c3.642.253 6.15.803 7.522 1.649 1.373.846.217 3.297-3.469 7.35l-6.158-5.286 2.106-3.713z" fill="#FFCBA3"/><path d="M28.174 31.256c-3.641.253-6.149.803-7.522 1.65-1.373.846-.217 3.296 3.47 7.35l6.157-5.286-2.105-3.714z" fill="#FFCBA3"/><path d="M20.128 34.186c.867 0 1.57-.71 1.57-1.586 0-.876-1.57-2.949-1.57-2.949s-1.57 2.073-1.57 2.949c0 .876.703 1.586 1.57 1.586z" fill="#E89665"/><path d="M15.338 33.996c2.212 2.721 4.88 3.192 8.004 1.411" stroke="#E89665" stroke-width=".895" stroke-linecap="round" stroke-linejoin="round"/><path d="M17.302 39.907c1.745 1.117 3.489 1.117 5.233 0" stroke="#F7B286" stroke-width=".689" stroke-linecap="round" stroke-linejoin="round"/><path d="M11.86 29.512h7.918c1.259 0 .679-3.61-1.324-4.82-1.537-.93-4.45.327-4.75.327-.458 0-1.073 1.497-1.843 4.493z" fill="#FFCBA3"/><path d="M19.256 29.512h7.917c1.26 0 .68-3.47-1.323-4.681-1.538-.93-4.45.327-4.75.327-.459 0-1.073 1.451-1.844 4.354z" fill="#FFCBA3"/><path stroke="#F3A577" stroke-width=".689" opacity=".626" stroke-linecap="round" stroke-linejoin="round" d="M30.489 28.605l-2.512 1.046 2.512 1.117M9.21 28.605l2.511 1.046-2.512 1.117"/><path d="M5.086 18.07H8.17a3.272 3.272 0 0 1 3.272 3.272v3.084a3.272 3.272 0 0 1-3.272 3.272H5.086a3.272 3.272 0 0 1-3.272-3.272v-3.084a3.272 3.272 0 0 1 3.272-3.272zM31.667 17.721h2.666a3.272 3.272 0 0 1 3.272 3.272v3.433a3.272 3.272 0 0 1-3.272 3.272h-2.666a3.272 3.272 0 0 1-3.271-3.272v-3.433a3.272 3.272 0 0 1 3.271-3.272z" fill="#3D3D3D"/><path d="M15.977 24.349c2.945-.837 5.76-.837 8.442 0" stroke="#3D3D3D" stroke-width="2.093" stroke-linecap="round" stroke-linejoin="round"/></g></g></g></svg>