<svg viewBox="0 0 42 56" fill="none" xmlns="http://www.w3.org/2000/svg"><path fill-rule="evenodd" clip-rule="evenodd" d="M6.79 29.308a9.166 9.166 0 0 0 3.387 1.04 9.15 9.15 0 0 0 5.305-1.04h10.64a9.166 9.166 0 0 0 3.387 1.04 9.15 9.15 0 0 0 5.305-1.04h3.593V25.91h-.036a9.159 9.159 0 0 0 1.242-3.744 9.193 9.193 0 0 0-8.182-10.104 9.161 9.161 0 0 0-3.686.36l-.04-.028a3.896 3.896 0 0 1-4.478-2.06A9.193 9.193 0 1 0 5.33 14.079a9.164 9.164 0 0 0-3.335 6.165A9.16 9.16 0 0 0 3.693 26.6v2.71h3.098zm13.868-9.324l.655.394a9.151 9.151 0 0 0 1.258 5.532h-3.532a9.238 9.238 0 0 0 1.25-5.608 9.19 9.19 0 0 0 .369-.318z" fill="#3D3D3D"/><path d="M37.337 27.876c-.21-.802-.478-1.58-.799-2.33a2.798 2.798 0 1 1 1.282 5.132 17 17 0 0 1 .063 1.465v12.21H29.49l-8.394 6.397-8.394-6.398H4.308v-12.21a17 17 0 0 1 .063-1.47 2.798 2.798 0 1 1 1.266-5.087c-.365.859-.66 1.755-.88 2.68a4.106 4.106 0 0 0 5-4.008v-4.07c.001-.137-.005-.273-.019-.408a16.727 16.727 0 0 1 11.358-4.424 16.73 16.73 0 0 1 11.482 4.54v3.926a4.106 4.106 0 0 0 4.758 4.055z" fill="#DA8E74"/><path d="M25.335 43.85l-4.385 5.7-4.385-5.7H4.308v5.7a2.85 2.85 0 0 0 2.85 2.85h27.876a2.85 2.85 0 0 0 2.85-2.85v-5.7h-12.55z" fill="#FFAADE"/><path d="M16.443 30.012a4.504 4.504 0 0 1 4.455-.03 4.504 4.504 0 0 1 4.455.03l3.398 1.962a4.506 4.506 0 1 1-4.506 7.804l-.863-.498c-1.375-.689-2.891-1.025-4.752-.126l-1.08.624a4.506 4.506 0 1 1-4.506-7.804l3.399-1.962z" fill="#3D3D3D"/><path d="M13.537 25.088v1.145a3.427 3.427 0 0 0 6.854 0v-1.145h-6.854zM21.75 25.088v1.145a3.427 3.427 0 1 0 6.853 0v-1.145h-6.854z" fill="#fff"/><path d="M16.372 25.088v1.14a1.538 1.538 0 1 0 3.076 0v-1.14h-3.076zM22.91 25.088v1.14a1.538 1.538 0 1 0 3.076 0v-1.14H22.91z" fill="#3D3D3D"/><path d="M21.096 31.416a2.108 2.108 0 1 0 0-4.215 2.108 2.108 0 0 0 0 4.215z" fill="#DA8E74"/><path fill-rule="evenodd" clip-rule="evenodd" d="M18.313 22.431c-.916-.602-2.048-.725-3.715.091a1.758 1.758 0 0 1-1.546-3.156c2.48-1.215 4.983-1.325 7.193.129a1.757 1.757 0 1 1-1.932 2.936z" fill="#3D3D3D"/><path fill-rule="evenodd" clip-rule="evenodd" d="M24.29 22.431c.917-.602 2.049-.725 3.716.091a1.758 1.758 0 0 0 1.546-3.156c-2.48-1.215-4.983-1.325-7.193.129a1.757 1.757 0 1 0 1.932 2.936z" fill="#3D3D3D"/></svg>