<svg id="Layer_3" data-name="Layer 3" xmlns="http://www.w3.org/2000/svg" viewBox="0 0 42 56"><defs><style>.cls-1{fill:#afafaf}.cls-2{fill:#ff9d8a}.cls-3{fill:#ffb5a1}.cls-4{fill:#f57f69}.cls-5{fill:#ad6b52}.cls-7{fill:#777}</style></defs><path class="cls-1" d="M33.18 7.8a4.27 4.27 0 0 1 4.27 4.27v7.58h-8.54v-7.58a4.27 4.27 0 0 1 4.27-4.27z"/><path class="cls-1" d="M12.41 0h10.34a11.42 11.42 0 0 1 11.43 11.42V15H4.84V7.57A7.57 7.57 0 0 1 12.41 0z"/><path class="cls-2" d="M34.22 39.45l-3.32-1.27L34.77 28a3.73 3.73 0 0 1 4.82-2.16 3.73 3.73 0 0 1 2.16 4.82l-2.47 6.5a3.93 3.93 0 0 1-5.06 2.29z"/><path class="cls-2" d="M1.27 25.38h3.56a3.92 3.92 0 0 1 3.92 3.92v7A3.74 3.74 0 0 1 5 40a3.74 3.74 0 0 1-3.74-3.74V25.38z" transform="rotate(159.15 5.013 32.682)"/><path class="cls-3" d="M37.45 12.21v30.21a4.16 4.16 0 0 1-1.84 3.46l-6.92 4.65a13.53 13.53 0 0 1-15.08 0l-6.92-4.65a4.17 4.17 0 0 1-1.85-3.46V12.21z"/><path class="cls-2" d="M31.5 33.45c-6.34 0-7.56-2.62-7.68-2.92a.85.85 0 0 1 1.56-.65c0 .08 1.06 1.88 6.12 1.88a.85.85 0 1 1 0 1.69zM10 33.45a.85.85 0 0 1 0-1.69c5.16 0 6.12-1.86 6.13-1.88a.86.86 0 0 1 1.11-.42.83.83 0 0 1 .45 1.07c-.1.3-1.33 2.92-7.69 2.92z"/><rect class="cls-4" x="19.02" y="23.41" width="4.25" height="14.72" rx="2.06" ry="2.06"/><circle class="cls-4" cx="21.15" cy="36.61" r="3.45"/><path class="cls-3" d="M13.53 46.63h15.24v3.43a3.87 3.87 0 0 1-3.87 3.87h-7.5a3.87 3.87 0 0 1-3.87-3.87v-3.43z"/><path class="cls-5" d="M30.43 30.4h-4.52a1 1 0 0 1-1-1 1 1 0 0 1 1-1h4.51a1 1 0 0 1 0 2zM11.6 30.4a1 1 0 0 1-1-1 1 1 0 0 1 1-1h4.52a1 1 0 0 1 0 2z"/><path d="M20.47 42.63h-3.58a.79.79 0 0 1 0-1.58h3.54a13.36 13.36 0 0 0 2.37-.15l3.57-.47a.79.79 0 1 1 .2 1.57l-3.57.47a19.31 19.31 0 0 1-2.53.16z" fill="#ba725b"/><path class="cls-2" d="M32.91 28.49a.8.8 0 0 1-.3-.06l-5.05-1.91a.84.84 0 0 1-.49-1.08.86.86 0 0 1 1.09-.5l5 1.92a.84.84 0 0 1-.29 1.63zM9.57 28.49a.84.84 0 0 1-.3-1.63l5.05-1.92a.86.86 0 0 1 1.09.5.84.84 0 0 1-.49 1.08l-5.05 1.91a.8.8 0 0 1-.3.06zM28.58 42.06a.84.84 0 0 1-.74-.43L25 36.72a.84.84 0 1 1 1.46-.84l2.84 4.91a.85.85 0 0 1-.73 1.27zM13.47 42.42a.91.91 0 0 1-.42-.11.86.86 0 0 1-.31-1.16l3-5.27a.84.84 0 0 1 1.46.84l-3 5.28a.84.84 0 0 1-.73.42z"/><path class="cls-1" d="M7.17 11.19v9.41a26.18 26.18 0 0 1-.31 3.95l-.77 4.86a.63.63 0 0 1-1.25-.1v-17zM37.45 11.9v17.41a.62.62 0 0 1-1.23.1l-.78-4.86a24.94 24.94 0 0 1-.31-3.95v-8.7z"/><path class="cls-7" d="M37.45 17.41v11.9a.62.62 0 0 1-1.23.1l-.78-4.86a24.94 24.94 0 0 1-.31-3.95v-3.19zM7.17 17.41v3.19a26.18 26.18 0 0 1-.31 3.95l-.77 4.86a.63.63 0 0 1-1.25-.1v-11.9z"/><path class="cls-2" d="M33.69 44.08a.85.85 0 0 1-.85-.84v-4.48a.85.85 0 1 1 1.69 0v4.48a.85.85 0 0 1-.84.84zM8.32 44.08a.84.84 0 0 1-.84-.84v-4.48a.84.84 0 1 1 1.68 0v4.48a.84.84 0 0 1-.84.84z"/><rect class="cls-7" x="7.77" y="22.89" width="11.17" height="4.21" rx="2.1" ry="2.1"/><rect class="cls-7" x="23.56" y="22.89" width="11.17" height="4.21" rx="2.1" ry="2.1"/></svg>