<svg id="Layer_3" data-name="Layer 3" xmlns="http://www.w3.org/2000/svg" viewBox="0 0 42 56"><defs><style>.cls-1{fill:#d67155}.cls-3{fill:#7a4830}.cls-5{fill:#fff}.cls-7{fill:#2c6602}.cls-8{fill:#4b4b4b}.cls-10{fill:#fec72e}</style></defs><circle class="cls-1" cx="6.6" cy="27.58" r="4.98"/><circle class="cls-1" cx="35.38" cy="27.58" r="4.98"/><path d="M35.3 21.59v15.73a7.59 7.59 0 0 1-7.59 7.59H14.22a7.58 7.58 0 0 1-7.58-7.59V21.59a14.17 14.17 0 0 1 .13-2A14.33 14.33 0 0 1 21 7.25a14.36 14.36 0 0 1 14.2 12.37 15.9 15.9 0 0 1 .1 1.97z" fill="#e59b80"/><path class="cls-3" d="M5.7 18.48H8V28a1.14 1.14 0 0 1-1.14 1.14A1.14 1.14 0 0 1 5.7 28v-9.5-.02z"/><path d="M27.05 31.82v.47a3.82 3.82 0 0 1-.1.9 4.23 4.23 0 0 1-4.14 3.35h-3.62A4.24 4.24 0 0 1 15 33.19a3.82 3.82 0 0 1-.1-.9v-.47a.8.8 0 0 1 .81-.8h10.5a.8.8 0 0 1 .84.8z" fill="#a14344"/><path class="cls-5" d="M27.05 31.82v.47a3.82 3.82 0 0 1-.1.9H15a3.82 3.82 0 0 1-.1-.9v-.47a.8.8 0 0 1 .81-.8h10.5a.8.8 0 0 1 .84.8z"/><path d="M18.22 36.42a4.44 4.44 0 0 0 1 .11h3.62a4.44 4.44 0 0 0 1-.11 3 3 0 0 0-5.56 0z" fill="#ef4a4d"/><rect class="cls-5" x="10.64" y="18.56" width="7.78" height="10.77" rx="3.89" ry="3.89"/><rect class="cls-7" x="13.85" y="21.51" width="3.13" height="5.11" rx="1.56" ry="1.56"/><rect class="cls-5" x="23.51" y="18.56" width="7.78" height="10.77" rx="3.89" ry="3.89" transform="rotate(180 27.405 23.945)"/><rect class="cls-7" x="24.91" y="21.51" width="3.13" height="5.11" rx="1.56" ry="1.56" transform="rotate(-180 26.475 24.065)"/><rect class="cls-1" x="19.11" y="19.44" width="3.7" height="10.51" rx="1.22" ry="1.22"/><path class="cls-8" d="M4.85 16.83l-3.61-2.41A2.74 2.74 0 0 1 0 12.12V7.4A2.77 2.77 0 0 1 1.44 5a41 41 0 0 1 39.12 0A2.77 2.77 0 0 1 42 7.4v4.72a2.74 2.74 0 0 1-1.24 2.3l-3.61 2.41"/><path d="M7 12.71h27.9a2.4 2.4 0 0 1 2.4 2.4V18H4.59v-2.89A2.4 2.4 0 0 1 7 12.71z" fill="#2d2d2d"/><path class="cls-8" d="M29.92 42.26H21v-2h8.92a5.44 5.44 0 0 0 5.43-5.43v-7.47h2v7.47a7.45 7.45 0 0 1-7.43 7.43z"/><path class="cls-8" d="M35.3 23.95a2.76 2.76 0 0 1 2.76 2.76v1.48A2.76 2.76 0 0 1 35.3 31v-7-.05z"/><path class="cls-3" d="M34.16 18.48h2.28V28a1.14 1.14 0 0 1-1.14 1.14A1.14 1.14 0 0 1 34.16 28v-9.5-.02z"/><path class="cls-8" d="M38.06 18.74v.62a.93.93 0 0 1-.61.86A50.28 50.28 0 0 1 10.61 22c-1-.21-2-.45-3-.73s-2.19-.63-3.27-1a.91.91 0 0 1-.61-.86v-.62a.92.92 0 0 1 .91-.92h32.51a.92.92 0 0 1 .91.87z"/><circle class="cls-10" cx="21" cy="11.67" r="4.07"/><rect class="cls-8" x="16.34" y="38.76" width="9.32" height="5" rx="2.03" ry="2.03"/><path class="cls-10" d="M28.06 20.89a1 1 0 0 1-.22-2l9.09-2.07a1 1 0 1 1 .44 1.95l-9.09 2.07a.78.78 0 0 1-.22.05zM13.84 20.89a.9.9 0 0 1-.23 0L4.52 18.8A1 1 0 1 1 5 16.85l9.09 2.07a1 1 0 0 1-.22 2z"/></svg>