<svg viewBox="0 0 42 56" version="1.1" xmlns="http://www.w3.org/2000/svg"><g stroke="none" stroke-width="1" fill="none" fill-rule="evenodd"><g transform="translate(.5)"><path d="M31.988 5.619a4.17 4.17 0 0 1 4.17 4.16v7.424h-8.341V9.78a4.17 4.17 0 0 1 4.17-4.171v.01z" fill="#666161" fill-rule="nonzero"/><path d="M11.153 35.297l-3.24 1.234a3.829 3.829 0 0 1-4.94-2.216L.538 27.926a3.653 3.653 0 0 1 2.113-4.714 3.653 3.653 0 0 1 4.72 2.154l3.781 9.93zM29.444 35.297l3.24 1.234a3.829 3.829 0 0 0 4.94-2.216l2.434-6.389a3.653 3.653 0 0 0-2.113-4.714 3.653 3.653 0 0 0-4.72 2.154l-3.781 9.93z" fill="#CF7451" fill-rule="nonzero"/><path d="M4.307 11.926H36.15v30.642a5 5 0 0 1-3.732 4.836l-11.683 3.063a2 2 0 0 1-1.014 0L8.039 47.404a5 5 0 0 1-3.732-4.836V11.926z" fill="#DC8E70"/><path d="M14.903 44.461h10.651v3.282a3.712 3.712 0 0 1-3.711 3.712h-3.228a3.712 3.712 0 0 1-3.712-3.712v-3.282z" fill="#DC8E70" fill-rule="nonzero"/><path d="M6.573 8.94v9.19a25.395 25.395 0 0 1-.303 3.85l-.733 4.756a.615.615 0 0 1-1.22-.098V9.135l2.256-.195z" fill="#666161" fill-rule="nonzero"/><path d="M11.69 0H21.8c2.96 0 5.799 1.177 7.891 3.27 2.092 2.094 4.175 5.696 4.172 8.656l-6.47 1.367A78.993 78.993 0 0 1 4.307 14.71V7.394A7.394 7.394 0 0 1 11.69 0z" fill="#666161" fill-rule="nonzero"/><path d="M36.158 9.662v16.976a.608.608 0 0 1-1.21.098l-.753-4.757a24.243 24.243 0 0 1-.332-3.848V9.662h2.295z" fill="#666161" fill-rule="nonzero"/><path d="M25.354 41.906l-.55.32-.63.33a9.27 9.27 0 0 1-8-.07 8.58 8.58 0 0 1-1.17-.67 2.1 2.1 0 0 1-.53-2.92 2.06 2.06 0 0 1 1.7-.92 2.17 2.17 0 0 1 1.2.37 5 5 0 0 0 5.32.22l.56-.32a1.91 1.91 0 0 1 .89-.26h.15a2.1 2.1 0 0 1 1 3.93l.06-.01z" fill="#FFF" fill-rule="nonzero"/><rect fill="#CF7451" fill-rule="nonzero" x="8.526" y="23.397" width="9.025" height="12.483" rx="4.513"/><rect fill="#FFF" fill-rule="nonzero" x="8.526" y="21.397" width="9.025" height="12.483" rx="4.513"/><rect fill="#62361B" fill-rule="nonzero" x="12.248" y="24.815" width="3.624" height="5.919" rx="1.812"/><rect fill="#CF7451" fill-rule="nonzero" transform="rotate(180 27.426 29.648)" x="22.914" y="23.407" width="9.025" height="12.483" rx="4.513"/><rect fill="#FFF" fill-rule="nonzero" transform="rotate(180 27.426 27.648)" x="22.914" y="21.407" width="9.025" height="12.483" rx="4.513"/><rect fill="#62361B" fill-rule="nonzero" transform="rotate(180 26.357 27.785)" x="24.545" y="24.825" width="3.624" height="5.919" rx="1.812"/><rect fill="#CF7451" fill-rule="nonzero" x="18.006" y="23.673" width="4.454" height="13.281" rx="1.75"/><path d="M9.467 23.003a1.646 1.646 0 1 1-.493-3.255c2.265-.444 4.563-.7 6.87-.766a1.646 1.646 0 1 1 .09 3.29 38.76 38.76 0 0 0-6.239.7l-.228.031zM30.998 23.003a1.646 1.646 0 1 0 .494-3.255 41.892 41.892 0 0 0-6.87-.766 1.646 1.646 0 1 0-.09 3.29 38.76 38.76 0 0 1 6.238.7l.228.031z" fill="#666161" fill-rule="nonzero"/></g></g></svg>