<svg id="Layer_3" data-name="Layer 3" xmlns="http://www.w3.org/2000/svg" viewBox="0 0 42 56"><defs><style>.cls-2{fill:#4b4b4b}.cls-3{fill:#de8366}.cls-6{fill:#2d2d2d}.cls-7{fill:#fff}.cls-8{fill:#dc7d5f}</style></defs><path d="M35.52 18.63H6.16L7.59 6a6.78 6.78 0 0 1 6.73-6h13a6.77 6.77 0 0 1 6.73 6z" fill="#666161"/><path class="cls-2" d="M42 18.6a10 10 0 0 1-.39 2.78C39.79 28.1 31.26 33.18 21 33.18S2.22 28.11.37 21.42A10.25 10.25 0 0 1 0 18.6a13.67 13.67 0 0 1 3-8A22.72 22.72 0 0 1 21 2a23.12 23.12 0 0 1 18 8.48 13.57 13.57 0 0 1 3 8.12z"/><circle class="cls-3" cx="6.64" cy="32.42" r="4.99"/><circle class="cls-3" cx="35.46" cy="32.42" r="4.99"/><path d="M31.22 9a15 15 0 0 0-20.39 0l-.45.43A15 15 0 0 0 6 20v9.88a.52.52 0 0 0-.09.28v9.17a5.86 5.86 0 0 0 1.75 4.18L16.2 52a6.81 6.81 0 0 0 9.56 0l8.58-8.46a5.86 5.86 0 0 0 1.75-4.18V20a15 15 0 0 0-4.87-11z" fill="#e59b80"/><path d="M36.09 36.15v3.21a5.86 5.86 0 0 1-1.75 4.18L25.76 52a6.81 6.81 0 0 1-9.56 0l-8.58-8.46a5.86 5.86 0 0 1-1.75-4.18v-3.21l11.5-1.52a28 28 0 0 1 7.32 0z" fill="#b8725e"/><path class="cls-6" d="M5.87 15.27h2.19v22.57A1.1 1.1 0 0 1 7 38.94a1.1 1.1 0 0 1-1.1-1.1V15.27h-.03zM33.9 15.27h2.19v22.57a1.1 1.1 0 0 1-1.1 1.1 1.1 1.1 0 0 1-1.1-1.1V15.27h.01z"/><rect class="cls-7" x="10.61" y="21.99" width="8.36" height="11.58" rx="4.18" ry="4.18"/><rect class="cls-2" x="14.07" y="25.16" width="3.36" height="5.49" rx="1.68" ry="1.68"/><rect class="cls-7" x="23.09" y="21.99" width="8.36" height="11.58" rx="4.18" ry="4.18" transform="rotate(-180 27.27 27.78)"/><rect class="cls-2" x="24.59" y="25.16" width="3.36" height="5.49" rx="1.68" ry="1.68" transform="rotate(180 26.27 27.91)"/><rect class="cls-8" x="19.45" y="21.38" width="3.15" height="13.33" rx="1.58" ry="1.58"/><path class="cls-8" d="M23.43 32.23l-2.4-2-2.4 2a1.77 1.77 0 0 0-.63 1.36 1.79 1.79 0 0 0 1.79 1.78h2.49a1.78 1.78 0 0 0 1.78-1.78 1.77 1.77 0 0 0-.63-1.36z"/><circle class="cls-8" cx="21.03" cy="34.86" r="1.73"/><path class="cls-7" d="M15.51 37.15h11a.69.69 0 0 1 .69.69 2.5 2.5 0 0 1-2.5 2.5h-7.4a2.5 2.5 0 0 1-2.5-2.5.69.69 0 0 1 .71-.69z"/><path class="cls-2" d="M36.1 21.38c0-5.77-6.75-10.45-15.08-10.45S5.94 15.61 5.94 21.38L3.75 20l3.14-9.3 9-5.56 6.2-.69 9.06 2.42 8.63 10.28z"/><path class="cls-6" d="M18.66 42.24h4.74v.5a2.37 2.37 0 0 1-2.4 2.37 2.37 2.37 0 0 1-2.37-2.37v-.5h.03zM19.85 11h11.72a.91.91 0 0 1 .91.91 3.4 3.4 0 0 1-3.4 3.4h-5.83a3.4 3.4 0 0 1-3.4-3.4V11z"/></svg>