<svg id="Layer_3" data-name="Layer 3" xmlns="http://www.w3.org/2000/svg" viewBox="0 0 42 56"><defs><style>.cls-1{fill:#9069cd}.cls-3{fill:#ff9d8a}.cls-4{fill:#ffb5a1}.cls-5{fill:#fff}.cls-6{fill:#ba725b}</style></defs><path class="cls-1" d="M28.5 0h-1.69a7.55 7.55 0 0 0-5.52 2.4A7.59 7.59 0 0 0 15.76 0h-1.69a7.61 7.61 0 0 0-7.61 7.62v10.79h29.65V7.62A7.61 7.61 0 0 0 28.5 0z"/><path d="M6.46 17.94h29.65v-7.61H6.46z" fill="#5e3995"/><circle class="cls-3" cx="34.24" cy="34.28" r="5.21"/><circle class="cls-3" cx="8.19" cy="34.28" r="5.21"/><circle class="cls-1" cx="5.38" cy="40.24" r="2.74"/><circle class="cls-1" cx="37.41" cy="40.24" r="2.74"/><path class="cls-4" d="M35.54 23v15a8 8 0 0 1-.12 1.39 7.35 7.35 0 0 1-.3 1.25A8.51 8.51 0 0 1 27 46.45H15.34a8.5 8.5 0 0 1-8-5.62A8.15 8.15 0 0 1 7 39.34 8.83 8.83 0 0 1 6.84 38V23v-.38a9.88 9.88 0 0 1 1.33-1.22C11 19.12 15.71 17.68 21 17.68c5.63 0 10.56 1.62 13.35 4.06A8.82 8.82 0 0 1 35.54 23z"/><path class="cls-5" d="M13.41 20.09s.65 9.47 20.83 9h1.3l.08-8.47z"/><path class="cls-4" d="M21.19 50.29a5.56 5.56 0 0 1-5.56-5.56v.51h11.11v-.51a5.56 5.56 0 0 1-5.55 5.56z"/><path class="cls-3" d="M22.55 36.89h-2.73a1 1 0 0 1-.94-1v-4.82a2.31 2.31 0 0 1 2.31-2.31 2.31 2.31 0 0 1 2.3 2.31v4.87a1 1 0 0 1-.94.95zM26.88 44.78a.8.8 0 0 1-.79-.8V42a5.5 5.5 0 0 0-.87-3l-1.12-1.68a.79.79 0 1 1 1.33-.86l1.12 1.74a7 7 0 0 1 1.13 3.8v2a.8.8 0 0 1-.8.78zM15.05 44.78a.79.79 0 0 1-.79-.8V42a7.07 7.07 0 0 1 1.12-3.82l1.12-1.74a.79.79 0 1 1 1.33.86l-1.12 1.73a5.5 5.5 0 0 0-.87 3v2a.79.79 0 0 1-.79.75z"/><path class="cls-6" d="M21.19 42.1a3.85 3.85 0 0 1-3.48-2.1.74.74 0 1 1 1.29-.65 2.45 2.45 0 0 0 4.29 0 .74.74 0 1 1 1.33.64 3.85 3.85 0 0 1-3.43 2.11z"/><path class="cls-3" d="M31.56 36c-2.41 0-4.2-.62-5.31-1.82a4.21 4.21 0 0 1-1.12-3 .79.79 0 0 1 .85-.72.8.8 0 0 1 .73.85 2.59 2.59 0 0 0 .72 1.83c.8.86 2.19 1.29 4.13 1.29a.8.8 0 0 1 0 1.59z"/><path class="cls-6" d="M29.63 32.13a1 1 0 0 1-.49-.14 2.54 2.54 0 0 0-2.73 0 .93.93 0 0 1-1-1.58 4.41 4.41 0 0 1 4.69 0 .93.93 0 0 1-.49 1.72z"/><path class="cls-3" d="M10.87 36a.8.8 0 0 1 0-1.59c1.94 0 3.33-.43 4.13-1.29a2.65 2.65 0 0 0 .73-1.83.79.79 0 0 1 1.58-.13 4.31 4.31 0 0 1-1.12 3c-1.11 1.19-2.9 1.84-5.32 1.84z"/><path class="cls-6" d="M16.52 32.13A1 1 0 0 1 16 32a2.54 2.54 0 0 0-2.73 0 .93.93 0 0 1-1-1.58 4.41 4.41 0 0 1 4.69 0 .93.93 0 0 1-.49 1.72z"/><path class="cls-5" d="M8.18 21.31V34a.94.94 0 0 1-.94.94.74.74 0 0 1-.4-.1.89.89 0 0 1-.53-.79l-.18-4.55v-.41l-.21-7.77c.22-.49 1.75.38 2.26-.01zM36.9 20.72l-.41 7.1-.08 1.72-.18 4.53a1 1 0 0 1-.69.86 1 1 0 0 1-.25 0 .94.94 0 0 1-.94-.94V20.72c.46.41 2.38-.72 2.55 0z"/><path class="cls-1" d="M42 18.63c0-2.26-2.24-4-4.58-4H4.59c-2.34 0-4.58 1.75-4.58 4H0v2.61h.5a4.59 4.59 0 0 0 3.76 2.51A6.64 6.64 0 0 1 4.14 21a.83.83 0 0 1 .21-.43c0-.38 0-.75.05-1.13 0-.77 1.09-1.53 1.71-.78l.19.22a1 1 0 0 1 .22.9h28.59a1 1 0 0 1 1.81-.19 2.75 2.75 0 0 1 .17.45.83.83 0 0 1 .58.87 25.52 25.52 0 0 1-.31 2.89 4.58 4.58 0 0 0 4.09-2.54H42v-2.63z"/><path class="cls-1" d="M37.41 16.65H4.59a4.59 4.59 0 0 0 0 9.17h1l-.15-4h31.24l-.13 4h.86a4.59 4.59 0 0 0 0-9.17z"/></svg>