<svg viewBox="0 0 42 56" version="1.1" xmlns="http://www.w3.org/2000/svg"><g stroke="none" stroke-width="1" fill="none" fill-rule="evenodd"><g><path d="M3.114 14.73H40v23c0 6.627-5.373 12-12 12H6.917a5.502 5.502 0 0 1-5.36-6.74 60.68 60.68 0 0 0 1.557-13.657V14.73z" fill="#B26135"/><rect fill="#FFB5A1" transform="rotate(15 31.834 26.827)" x="24.834" y="21.827" width="14" height="10" rx="5"/><rect fill="#FFB5A1" transform="scale(-1 1) rotate(15 0 -56.89)" x="4.022" y="21.827" width="14" height="10" rx="5"/><path d="M12.126 38.878l-5.86-18.304C3.74 12.684 8.09 4.24 15.98 1.714A15 15 0 0 1 20.552 1h2.05c8.285 0 15 6.716 15 15a15 15 0 0 1-.68 4.47L31.195 38.81c-1.646 5.272-7.254 8.211-12.526 6.565a10 10 0 0 1-6.544-6.496z" fill="#FFB5A1" fill-rule="nonzero"/><rect fill="#FFF" fill-rule="nonzero" x="11" y="16" width="8.48" height="11.73" rx="4.24"/><rect fill="#1899D6" fill-rule="nonzero" x="14.5" y="18.79" width="4" height="6" rx="2"/><rect fill="#FFF" fill-rule="nonzero" transform="rotate(180 28.24 21.865)" x="24" y="16" width="8.48" height="11.73" rx="4.24"/><rect fill="#1899D6" fill-rule="nonzero" transform="rotate(-180 26.98 21.77)" x="24.98" y="18.77" width="4" height="6" rx="2"/><path d="M18.502 35.279a4.5 4.5 0 0 0 6.364 0" stroke="#F57F69" stroke-width="1.5" stroke-linecap="round" stroke-linejoin="round"/><path d="M25.408 0c7.95 0 14.415 6.1 14.588 13.687L40 14v3c0 .513-.402.936-.92.993l-.122.007H12.73a1 1 0 0 1-.991-.873l-.399-3.099a.506.506 0 0 0-.367-.418l-.086-.017a.522.522 0 0 0-.561.347l-.02.088-.398 3.1a1 1 0 0 1-.992.872H4.042c-.534 0-.975-.386-1.035-.883L3 17v-3C3 6.372 9.357.17 17.266.003L17.592 0h7.816z" fill="#B26135" fill-rule="nonzero"/><path d="M20 18h3.52v11.24a1.76 1.76 0 1 1-3.52 0V18z" fill="#F57F69"/><g transform="translate(26.517 28)" fill="#F49D85"><circle cx="1" cy="1.718" r="1"/><circle cx="4.483" cy="1" r="1"/><circle cx="3.388" cy="3.822" r="1"/></g><g transform="matrix(-1 0 0 1 17 28)" fill="#F49D85"><circle cx="1" cy="1.718" r="1"/><circle cx="4.483" cy="1" r="1"/><circle cx="3.388" cy="3.822" r="1"/></g><path d="M21 32h1.586a2 2 0 0 0 1.833-2.8l-.893-2.045A1.926 1.926 0 0 0 21.76 26a1.89 1.89 0 0 0-1.746 1.164l-.861 2.067A2 2 0 0 0 21 32z" fill="#F57F69"/></g></g></svg>