<svg viewBox="0 0 42 56" version="1.1" xmlns="http://www.w3.org/2000/svg"><g stroke="none" stroke-width="1" fill="none" fill-rule="evenodd"><g><g transform="translate(1)"><rect fill="#FFC3AE" transform="rotate(150 31.813 33.91)" x="24.171" y="30" width="15.284" height="7.82" rx="3.839"/><rect fill="#FFC3AE" transform="scale(1 -1) rotate(-30 -118.64 0)" x="1.066" y="30.213" width="15.284" height="7.82" rx="3.839"/><g fill="#CD7900" fill-rule="nonzero"><path d="M7.578 34.042c.293.079.469.37.393.652l-1.913 7.138a.538.538 0 0 1-.666.368c-2.34-.627-3.748-2.962-3.145-5.214.604-2.253 2.99-3.57 5.331-2.944z"/></g><g fill="#CD7900" fill-rule="nonzero"><path d="M32.804 34.247a.538.538 0 0 0-.393.652l1.912 7.138a.538.538 0 0 0 .667.368c2.34-.628 3.748-2.962 3.145-5.215-.604-2.253-2.99-3.57-5.331-2.943z"/></g><rect fill="#CD7900" x="3.91" y="10.663" width="32.701" height="30.569" rx="15.284"/><rect fill="#FFC3AE" x="6.754" y="16.351" width="27.014" height="36.611" rx="13.436"/><path d="M21.171 32.59l1.034 3.1a2.05 2.05 0 1 1-3.889 0l1.034-3.1a.96.96 0 0 1 1.821 0z" fill="#F29580"/><path d="M18.899 43.192a3.91 3.91 0 0 0 5.34-1.431" stroke="#F29580" stroke-width="1.919" fill="#F29580" stroke-linecap="round" stroke-linejoin="round"/><rect fill="#FFF" x="22.038" y="28.791" width="8.531" height="5.687" rx="2.844"/><rect fill="#FFF" x="9.597" y="28.791" width="8.531" height="5.687" rx="2.844"/><rect fill="#A15730" x="23.266" y="28.791" width="3.91" height="4.621" rx="1.919"/><rect fill="#A15730" x="13.507" y="28.791" width="3.91" height="4.621" rx="1.919"/><rect fill="#CD7900" transform="rotate(12 26.481 26.303)" x="23.104" y="24.881" width="6.754" height="2.844" rx="1.422"/><rect fill="#CD7900" transform="scale(-1 1) rotate(12 0 -107.28)" x="10.663" y="24.881" width="6.754" height="2.844" rx="1.422"/><path d="M3.476 18.432l7.95-2.881a25.301 25.301 0 0 1 17.176-.023l8.085 2.905a.96.96 0 0 1 .635.903v4.586c0 .53-.43.96-.96.96H3.803a.96.96 0 0 1-.96-.96v-4.588a.96.96 0 0 1 .633-.902z" fill="#D2E4E8"/><path fill="#1899D6" d="M2.844 21.327h34.479v1.777H2.844z"/><rect fill="#CD7900" x="13.507" y="0" width="13.507" height="9.597" rx="4.799"/><path d="M7.033 8.538l6.098 1.233a.48.48 0 0 1 .11.904l-5.618 2.672a.96.96 0 0 1-1.364-.75L5.89 9.595a.96.96 0 0 1 1.143-1.057z" fill="#1899D6"/><path d="M11.2 4.268l2.287 5.785a.48.48 0 0 1-.697.585l-5.3-3.256a.96.96 0 0 1-.115-1.553L9.69 3.885a.96.96 0 0 1 1.51.383z" fill="#1899D6"/></g><g transform="translate(27.228 36.233)" fill="#E39377"><circle cx=".979" cy=".979" r="1"/><circle cx="4.368" cy="1.536" r="1"/><circle cx="2.35" cy="4.067" r="1"/></g><g transform="matrix(-1 0 0 1 15.477 36.233)" fill="#E39377"><circle cx=".979" cy=".979" r="1"/><circle cx="4.368" cy="1.536" r="1"/><circle cx="2.35" cy="4.067" r="1"/></g></g></g></svg>