<svg viewBox="0 0 42 56" version="1.1" xmlns="http://www.w3.org/2000/svg"><g stroke="none" stroke-width="1" fill="none" fill-rule="evenodd"><path d="M17.035 45.176h9.199a2.938 2.938 0 0 1 2.932 2.765l.005.18a2.938 2.938 0 0 1-2.937 2.937h-9.199a2.938 2.938 0 0 1-2.932-2.765l-.005-.18a2.938 2.938 0 0 1 2.937-2.937z" fill="#FFB7E3"/><path d="M29 45.218h-2.506a1.585 1.585 0 0 0-1.539 1.967l1.469 5.92c.175.707.81 1.203 1.538 1.203h3.466a1.585 1.585 0 0 0 1.467-2.187l-2.43-5.92A1.585 1.585 0 0 0 29 45.219z" fill="#FFB7E3"/><path d="M21 4c11.598 0 21 9.402 21 21v2c0 11.598-9.402 21-21 21S0 38.598 0 27v-2C0 13.402 9.402 4 21 4z" fill="#FFB7E3"/><path d="M36.41 30.352a.98.98 0 0 1 .458 1.307c-4.294 8.936-12.52 14.363-25.607 13.95a20.99 20.99 0 0 1-2.713-1.697.973.973 0 0 1 .834-.363c13.439.999 21.548-4.054 25.721-12.738a.98.98 0 0 1 1.307-.459z" fill="#FF98D7"/><path d="M21.5 9C30.613 9 38 16.387 38 25.5S30.613 42 21.5 42 5 34.613 5 25.5 12.387 9 21.5 9z" fill="#E18E70"/><path d="M21.5 9c3.341 0 6.45.993 9.048 2.7l-.702.708c-3.86 3.84-10.445 9.445-21.774 9.059-.776-.027-1.718-.276-2.427-.555C7.633 14.032 13.98 9 21.5 9z" fill="#3D3D3D"/><path d="M22.669 23.131a3.797 3.797 0 1 0 4.368 5.871l-.007.018.115-.063c.24-.099.47-.225.688-.377.858-.467 1.631-.866 2.32-1.2.198-.068.388-.152.57-.25l.178-.103c.094-.05.168-.099.225-.15l.14-.105a3.796 3.796 0 0 0-2.377-6.776c-2.493.017-4.66 1.132-6.22 3.135z" fill="#FFF" fill-rule="nonzero"/><path d="M25.959 21.905a2.518 2.518 0 0 1 2.518 2.518v1.212a2.518 2.518 0 1 1-5.036 0v-1.212l.004-.146a1.527 1.527 0 0 0 1.532-2.173c.3-.128.633-.2.982-.2z" fill="#3D3D3D"/><path d="M20.539 23.131a3.797 3.797 0 1 1-4.368 5.871l.007.018-.115-.063a3.625 3.625 0 0 1-.688-.377l-.83-.444a50.192 50.192 0 0 0-1.49-.757 3.677 3.677 0 0 1-.57-.249l-.178-.103a1.064 1.064 0 0 1-.225-.15l-.14-.105a3.796 3.796 0 0 1 2.377-6.776c2.493.017 4.66 1.132 6.22 3.135z" fill="#FFF" fill-rule="nonzero"/><path d="M17.38 21.905a2.518 2.518 0 0 1 2.512 2.352l.005.166v1.212a2.518 2.518 0 0 1-5.03.166l-.005-.166v-1.212c0-.126.009-.249.027-.369.234.147.509.231.804.231a1.527 1.527 0 0 0 1.287-2.348c.129-.021.263-.032.4-.032z" fill="#3D3D3D"/><path d="M2.275 14.653l10.23 2.637a.828.828 0 0 1 .48 1.249c-1.465 2.26-4.258 3.342-6.927 2.623-2.669-.718-4.55-3.058-4.693-5.752-.03-.56.368-.903.91-.757z" fill="#3D3D3D" fill-rule="nonzero"/><path d="M4 15.115c3.514.85 5.294-.945 6.913-2.264 1.08-.88 2.303-.125 3.669 2.264l-4.238 3.153-5.82-1.1c-2.691-1.935-2.866-2.62-.523-2.053z" fill="#3D3D3D"/><path d="M9.585 28.515l-.3-2.875.32-.026c.476-.03 1.137-.035 1.937.017 1.658.107 3.342.437 4.96 1.062 2.245.866 4.174 2.232 5.644 4.172l.241.329-2.359 1.67c-1.149-1.622-2.702-2.754-4.567-3.474-1.321-.51-2.722-.785-4.106-.874-.484-.032-.93-.038-1.324-.025l-.326.015-.12.01zM35.382 28.515l.3-2.875-.32-.026a15.672 15.672 0 0 0-1.937.017c-1.658.107-3.341.437-4.96 1.062-2.245.866-4.174 2.232-5.644 4.172l-.241.329 2.36 1.67c1.148-1.622 2.7-2.754 4.567-3.474 1.32-.51 2.721-.785 4.105-.874.484-.032.93-.038 1.324-.025l.326.015.12.01z" fill="#E18E70" fill-rule="nonzero"/><path d="M21.576 31.79c.876 0 1.585-.701 1.585-1.566 0-.865-1.585-2.91-1.585-2.91l-.248.333c-.446.615-1.337 1.928-1.337 2.577 0 .865.71 1.566 1.585 1.566z" fill="#9E4D31"/><path d="M18.859 31.96a.564.564 0 0 1 .775.19c1.291 2.13 2.406 2.13 3.903-.029a.564.564 0 1 1 .927.643c-1.952 2.815-4.07 2.815-5.795-.029a.564.564 0 0 1 .19-.775z" fill="#9E4D31" fill-rule="nonzero"/></g></svg>