<svg id="Layer_3" data-name="Layer 3" xmlns="http://www.w3.org/2000/svg" viewBox="0 0 42 56"><defs><style>.cls-1{fill:#ffb49e}.cls-2{fill:#aeaeae}.cls-4{fill:#ff9c86}.cls-6{fill:#fff}.cls-7{fill:#4b4b4b}.cls-8{fill:#ba7258}</style></defs><circle class="cls-1" cx="6.39" cy="30.92" r="6.29"/><circle class="cls-1" cx="35.65" cy="30.92" r="6.29"/><path class="cls-2" d="M6.45 15.28L5.17 4.46a4 4 0 0 1 4-4.52h14.08a5.39 5.39 0 0 1 5.31 4.46 5.77 5.77 0 0 1 .08.94l-19 9.94z"/><path class="cls-2" d="M36.42 8.35l-.81 6.93-1.18 10H15.88V9.12A4.73 4.73 0 0 1 20.6 4.4h12.31a3.53 3.53 0 0 1 3.51 3.95z"/><path fill="#dedede" d="M35.61 15.28l-1.18 9.98H7.63l-.87-7.36-.31-2.62h29.16z"/><rect class="cls-1" x="8.67" y="8.06" width="24.71" height="36.98" rx="7.14" ry="7.14"/><path class="cls-4" d="M28.64 40.72a1 1 0 0 1-.92-.62l-2.17-5.33a1 1 0 0 1 1.86-.77l2.16 5.33a1 1 0 0 1-.55 1.3 1 1 0 0 1-.38.09zM13.23 40.72a1 1 0 0 1-.37-.07 1 1 0 0 1-.55-1.3L14.47 34a1 1 0 0 1 1.86.75l-2.17 5.35a1 1 0 0 1-.93.62z"/><path class="cls-2" d="M32.71 7.61L30.93 9.7a15.92 15.92 0 0 1-12.11 5.58H7.55V6z"/><rect x="18.31" y="21.4" width="5.43" height="14.07" rx="2.13" ry="2.13" fill="#f57f69"/><rect class="cls-6" x="5.51" y="20.42" width="12.94" height="10.58" rx="1.61" ry="1.61"/><path class="cls-7" d="M16.83 31.87H7.12a2.48 2.48 0 0 1-2.48-2.48V22a2.48 2.48 0 0 1 2.48-2.48h9.71A2.48 2.48 0 0 1 19.31 22v7.36a2.48 2.48 0 0 1-2.48 2.51zM7.12 21.29a.75.75 0 0 0-.75.74v7.36a.75.75 0 0 0 .75.74h9.71a.74.74 0 0 0 .74-.74V22a.74.74 0 0 0-.74-.74z"/><path class="cls-7" d="M23.83 26.38h-.1a8.78 8.78 0 0 0-5.66-.05l-.4-1.7a10.48 10.48 0 0 1 6.48.06h.1z"/><path class="cls-8" d="M21 39.05a6.33 6.33 0 0 1-4.23-1.6.92.92 0 0 1 1.23-1.39 4.54 4.54 0 0 0 6 0l1.23 1.39a6.36 6.36 0 0 1-4.23 1.6z"/><path class="cls-1" d="M14.73 41.79h12.91v3.43a2.4 2.4 0 0 1-2.4 2.4h-8.11a2.4 2.4 0 0 1-2.4-2.4v-3.43z"/><rect class="cls-6" x="23.73" y="20.42" width="12.94" height="10.58" rx="1.61" ry="1.61"/><path class="cls-7" d="M35.06 31.87h-9.72a2.49 2.49 0 0 1-2.48-2.48V22a2.49 2.49 0 0 1 2.48-2.48h9.72A2.48 2.48 0 0 1 37.54 22v7.36a2.48 2.48 0 0 1-2.48 2.51zm-9.72-10.58a.74.74 0 0 0-.74.74v7.36a.74.74 0 0 0 .74.74h9.72a.74.74 0 0 0 .74-.74V22a.74.74 0 0 0-.74-.74z"/><path class="cls-8" d="M31.19 27.81a.93.93 0 0 1-.93-.92 1.48 1.48 0 1 0-3 0 .93.93 0 0 1-1.86 0 3.34 3.34 0 1 1 6.67 0 .93.93 0 0 1-.88.92zM15.88 27.81a.93.93 0 0 1-.93-.92 1.48 1.48 0 1 0-3 0 .93.93 0 0 1-1.85 0 3.34 3.34 0 1 1 6.67 0 .93.93 0 0 1-.89.92z"/></svg>