<svg id="Layer_3" data-name="Layer 3" xmlns="http://www.w3.org/2000/svg" viewBox="0 0 42 56"><defs><style>.cls-2{fill:#2d2d2d}.cls-3{fill:#e59b80}.cls-4{fill:#fff}.cls-6{fill:#de8366}</style></defs><circle cx="8.1" cy="10.14" r="6.31" transform="rotate(-5.8 8.097 10.108)" fill="#f34848"/><path class="cls-2" d="M7.08 23.67h34.75v-8.93A14.72 14.72 0 0 0 27.11 0h-13a7 7 0 0 0-7 7z"/><path class="cls-3" d="M6.2 27.47v11.77a5.89 5.89 0 0 1 0-11.77zM42 33.35a5.9 5.9 0 0 1-5.89 5.9H36V27.47h.13A5.89 5.89 0 0 1 42 33.35z"/><circle class="cls-2" cx="21.22" cy="23.67" r="20.66"/><path class="cls-3" d="M5.1 23.92l1 15.35A9.42 9.42 0 0 0 10.17 47l5.88 3.46a9 9 0 0 0 10.05.13L31.75 47A9.42 9.42 0 0 0 36 39.12l1-15.36a5.94 5.94 0 0 0-6-6L11 18a6 6 0 0 0-5.9 5.92z"/><path class="cls-2" d="M25.32 33.49h3.5a5.64 5.64 0 0 0 5.64-5.65v-.45a1.32 1.32 0 0 0-1.33-1.33l-4.14.2v3.46z"/><path class="cls-4" d="M33 28.23v.46a5.65 5.65 0 0 1-5.65 5.64h-2.5A1.33 1.33 0 0 1 23.52 33v-.45A5.65 5.65 0 0 1 29 26.91h2.66A1.34 1.34 0 0 1 33 28.23zm-14.39 4.32V33a1.33 1.33 0 0 1-1.33 1.33h-2.5a5.65 5.65 0 0 1-5.64-5.64v-.46a1.33 1.33 0 0 1 1.33-1.33h2.66a5.64 5.64 0 0 1 5.48 5.64z"/><path d="M16.89 28.49v2.27a2.08 2.08 0 0 1-4.15 0v-2.63a2 2 0 0 1 .39-1.22 5.6 5.6 0 0 1 3.76 1.58zm12.5-.36v2.63a2.08 2.08 0 0 1-4.15 0V28.5A5.56 5.56 0 0 1 29 26.91a2 2 0 0 1 .39 1.22z" fill="#6a3a21"/><path class="cls-2" d="M33.16 29.44a1 1 0 0 1-1-1 .28.28 0 0 0-.28-.28h-6.09a1 1 0 0 1 0-2h6.09a2.29 2.29 0 0 1 2.28 2.28 1 1 0 0 1-1 1z"/><rect class="cls-6" x="19.41" y="24.92" width="3.3" height="11.54" rx="1.65" ry="1.65"/><circle class="cls-6" cx="21.06" cy="35.48" r="2.49"/><path d="M27.47 39v.52a5.36 5.36 0 0 1-.1 1 4.68 4.68 0 0 1-4.57 3.67h-4a4.67 4.67 0 0 1-4.56-3.67 5.36 5.36 0 0 1-.1-1V39a.87.87 0 0 1 .88-.88h11.56a.88.88 0 0 1 .89.88z" fill="#a14344"/><path class="cls-4" d="M27.47 39v.52a5.36 5.36 0 0 1-.1 1h-13.1a5.36 5.36 0 0 1-.1-1V39a.87.87 0 0 1 .88-.88h11.53a.88.88 0 0 1 .89.88z"/><path d="M17.76 44.08a4.24 4.24 0 0 0 1.07.13h4a4.18 4.18 0 0 0 1.07-.13 3.3 3.3 0 0 0-6.11 0z" fill="#ef4a4d"/><path class="cls-2" d="M8.22 29.54a1 1 0 0 1-1-1 2.28 2.28 0 0 1 2.28-2.28h7.09a1 1 0 0 1 0 2H9.5a.28.28 0 0 0-.28.28 1 1 0 0 1-1 1zm29.02 20.1A7.2 7.2 0 0 1 30 42.43v-18a6.64 6.64 0 0 0-6.49-6.63v-1.34H39v31.47a1.71 1.71 0 0 1-1.76 1.71zM3.32 19.67h2.77v23.65a1.39 1.39 0 0 1-1.38 1.38 1.39 1.39 0 0 1-1.39-1.39V19.67z"/></svg>