<svg viewBox="0 0 42 56" version="1.1" xmlns="http://www.w3.org/2000/svg"><g stroke="none" stroke-width="1" fill="none" fill-rule="evenodd"><g fill-rule="nonzero"><path d="M20.94 31.52a15.72 15.72 0 1 1 15.71-15.71c-.011 8.672-7.038 15.699-15.71 15.71z" fill="#825035"/><circle fill="#825035" cx="20.94" cy="15.81" r="13.33"/><circle fill="#7AF0F2" cx="20.94" cy="20.09" r="12.22"/><circle fill="#DB8F73" cx="5.63" cy="39.06" r="5.63"/><circle fill="#DB8F73" cx="36.37" cy="39.06" r="5.63"/><circle fill="#825035" cx="21.05" cy="29.47" r="18.34"/><path d="M21.05 54.65c-8.218 0-14.88-6.662-14.88-14.88v-7.33a14.68 14.68 0 0 1 1.95-7.36 14.88 14.88 0 0 1 22.79-3.79l.2.18c.15.14.31.29.46.45.486.478.934.993 1.34 1.54a14.752 14.752 0 0 1 3 9v7.33c-.017 8.2-6.66 14.843-14.86 14.86z" fill="#DB8F73"/><rect fill="#CE7455" x="18.71" y="35.92" width="4.08" height="8.81" rx="1.34"/><path d="M6 34.82v-3a7.6 7.6 0 0 1 11.24-6.67l.13.08a7.59 7.59 0 0 0 7.24 0l.33-.18a7.61 7.61 0 0 1 11.21 6.69v3.05l.94-7.59-5.91-7.78L21 16.32l-11.22 4-4.97 8.41L6 34.82z" fill="#825035"/><rect fill="#FFF" x="9.13" y="30.81" width="8.87" height="12.28" rx="4.435"/><rect fill="#61361E" x="12.79" y="34.17" width="3.57" height="5.83" rx="1.78"/><rect fill="#FFF" transform="rotate(180 27.935 36.95)" x="23.5" y="30.81" width="8.87" height="12.28" rx="4.435"/><rect fill="#61361E" transform="rotate(180 26.865 37.095)" x="25.08" y="34.18" width="3.57" height="5.83" rx="1.78"/><circle fill="#CE7455" cx="14.35" cy="45.31" r="1"/><circle fill="#CE7455" cx="11.83" cy="44.71" r="1"/><circle fill="#CE7455" cx="12.76" cy="46.57" r="1"/><circle fill="#CE7455" cx="26.76" cy="45.31" r="1"/><circle fill="#CE7455" cx="29.28" cy="44.71" r="1"/><circle fill="#CE7455" cx="28.35" cy="46.57" r="1"/><path d="M20.84 49.34a4.47 4.47 0 0 1-4.29-3.16.87.87 0 1 1 1.66-.52 2.75 2.75 0 0 0 2.63 1.94 2.78 2.78 0 0 0 2.65-2 .88.88 0 0 1 1.08-.6.87.87 0 0 1 .59 1.08 4.51 4.51 0 0 1-4.32 3.26z" fill="#B8725E"/><circle fill="#FFF" cx="24.19" cy="8.19" r="3.14"/><circle fill="#1DB0F6" cx="18.65" cy="10.15" r="3.14"/></g></g></svg>