<svg id="Layer_3" data-name="Layer 3" xmlns="http://www.w3.org/2000/svg" viewBox="0 0 42 56"><defs><style>.cls-1{fill:#a46647}.cls-3{fill:#fff}.cls-4{fill:#4b4b4b}.cls-5{fill:#fee2c0}.cls-9{fill:#fec886}</style></defs><rect class="cls-1" x="29.05" width="12.87" height="7.98" rx="3.99" ry="3.99"/><rect class="cls-1" x=".05" width="12.87" height="7.98" rx="3.99" ry="3.99"/><path d="M39.8 13v24.4a2.62 2.62 0 0 1 0 .28 5.46 5.46 0 0 1-5.47 5.2H7.65A5.44 5.44 0 0 1 3 40.21a5.51 5.51 0 0 1-.77-2.53 2.62 2.62 0 0 1 0-.28V13a8 8 0 0 1 8-8h21.6a8 8 0 0 1 7.97 8z" fill="#e3a15f"/><rect class="cls-3" x="6.72" y="9.58" width="9.89" height="13.69" rx="4.94" ry="4.94"/><rect class="cls-4" x="10.8" y="13.33" width="3.98" height="6.49" rx="1.99" ry="1.99"/><rect class="cls-3" x="25.37" y="9.58" width="9.89" height="13.69" rx="4.94" ry="4.94" transform="rotate(180 30.315 16.43)"/><rect class="cls-4" x="27.15" y="13.33" width="3.98" height="6.49" rx="1.99" ry="1.99" transform="rotate(180 29.135 16.58)"/><path class="cls-5" d="M37.42 23.93v9.81a5.35 5.35 0 0 1-5.34 5.35H9.79a5.35 5.35 0 0 1-5.35-5.35v-9.81a5.31 5.31 0 0 1 2-4.15A4.87 4.87 0 0 1 7.66 19a5.21 5.21 0 0 1 2.13-.45h22.29a5.21 5.21 0 0 1 2.13.45 4.78 4.78 0 0 1 1.32.82 5.37 5.37 0 0 1 1.89 4.11z"/><path d="M35 22c0 5.33-1.26 8.16-3.31 10.22a11.32 11.32 0 0 1-8 3.31H18a10.14 10.14 0 0 1-2.48-.28 11.17 11.17 0 0 1-3.34-1.33c-3.28-2-5.49-5.6-5.49-11.92z" fill="#a44242"/><path class="cls-5" d="M35.53 19.84A7.56 7.56 0 0 1 21 21.77a7.24 7.24 0 0 1-.55-2.77h13.76a4.78 4.78 0 0 1 1.32.84z"/><path class="cls-5" d="M21.51 19a7.44 7.44 0 0 1-.51 2.77 7.56 7.56 0 0 1-14.57-2A4.87 4.87 0 0 1 7.66 19zM16.6 5.02h8.78v13.14H16.6z"/><rect class="cls-4" x="17.65" y="13.19" width="6.67" height="8.79" rx="2.76" ry="2.76" transform="rotate(90 20.985 17.585)"/><path class="cls-3" d="M15.56 32v3.17a11.17 11.17 0 0 1-3.34-1.33V32a1.65 1.65 0 0 1 1.66-1.65A1.67 1.67 0 0 1 15.56 32zM26.16 32v3.17a11 11 0 0 0 3.33-1.33V32a1.67 1.67 0 0 0-3.33 0z"/><path d="M19 32.24h4.32A1.79 1.79 0 0 1 25.06 34v6.69a3.95 3.95 0 0 1-3.95 3.95 3.95 3.95 0 0 1-3.95-3.95V34A1.79 1.79 0 0 1 19 32.24z" fill="#ff6464"/><path d="M20 32.24h2.14v7.28a1.07 1.07 0 0 1-1.07 1.07A1.07 1.07 0 0 1 20 39.51v-7.27z" fill="#f34848"/><circle class="cls-9" cx="31.49" cy="21.81" r=".99"/><circle class="cls-9" cx="27.82" cy="23.49" r=".99"/><circle class="cls-9" cx="11.67" cy="21.23" r=".99"/><circle class="cls-9" cx="14.94" cy="21.73" r=".99"/><circle class="cls-9" cx="12.62" cy="24.09" r=".99"/></svg>