<svg viewBox="0 0 42 56" fill="none" xmlns="http://www.w3.org/2000/svg"><g clip-path="url(#clip0)"><path d="M0 44.125a1 1 0 0 1 1-1h14.563V54.5H9a9 9 0 0 1-9-9v-1.375zM42 44.125a1 1 0 0 0-1-1H26.437V54.5H33a9 9 0 0 0 9-9v-1.375zM39.682 9.337L19.02 15.055c-.827.229-1.675-.223-1.892-1.01C15.595 8.507 20.157 2.656 26.214.98 32.29-.7 39.206 2.003 40.746 7.565c.21.758-.267 1.551-1.064 1.772z" fill="#A34242"/><path d="M3.046 18.06c.535-9.533 8.423-16.99 17.972-16.99h.752a1 1 0 0 1 1 1V52.5a2 2 0 0 1-2 2H9.462c-4.595 0-8.245-3.861-7.988-8.449l1.572-27.99z" fill="#A34242"/><path d="M38.954 18.06c-.535-9.533-8.423-16.99-17.972-16.99h-.752a1 1 0 0 0-1 1V52.5a2 2 0 0 0 2 2h11.308c4.595 0 8.245-3.861 7.988-8.449l-1.572-27.99z" fill="#A34242"/><path d="M36.307 39.957a5.692 5.692 0 1 0 0-11.385 5.692 5.692 0 0 0 0 11.385zM5.742 39.957a5.692 5.692 0 1 0 0-11.385 5.692 5.692 0 0 0 0 11.385z" fill="#E79B7E"/><path d="M4.653 37.035a1 1 0 0 1 .985-.825h.502a1 1 0 0 1 .985.825l.805 4.514a1 1 0 0 1-.985 1.175H4.833a1 1 0 0 1-.984-1.175l.804-4.514zM34.533 37.035a1 1 0 0 1 .985-.825h.502a1 1 0 0 1 .985.825l.804 4.514a1 1 0 0 1-.984 1.175h-2.112a1 1 0 0 1-.984-1.175l.804-4.514z" fill="#FFD300"/><rect x="7.247" y="7.625" width="27.275" height="40.99" rx="13.637" fill="#E79B7E"/><path d="M24.591 19.123a4.641 4.641 0 0 1 3.297-.61 4.641 4.641 0 0 1 2.854 1.762M16.876 19.123a4.641 4.641 0 0 0-3.298-.61 4.641 4.641 0 0 0-2.853 1.762" stroke="#8F3535" stroke-width="2" stroke-linecap="round" stroke-linejoin="round"/><path d="M18.07 26.12a3.827 3.827 0 0 0-7.654 0v2.94a3.827 3.827 0 0 0 7.653 0v-2.94zM23.828 26.12a3.827 3.827 0 0 1 7.653 0v2.94a3.827 3.827 0 0 1-7.653 0v-2.94z" fill="#fff"/><rect x="19.177" y="24.57" width="3.544" height="9.875" rx=".75" fill="#E08462"/><path d="M14.457 37.783c0-1.035.956-1.805 1.967-1.586l.994.216c2.284.496 4.648.496 6.933 0l.993-.216a1.623 1.623 0 0 1 1.967 1.586v.253a6.427 6.427 0 0 1-12.854 0v-.253z" fill="#A14344"/><path d="M27.308 38.252a6.722 6.722 0 0 1-4.452 1.677h-3.944a6.722 6.722 0 0 1-4.451-1.677 6.463 6.463 0 0 1-.004-.216v-.253c0-1.035.956-1.805 1.967-1.586l.994.216c2.284.496 4.648.496 6.933 0l.993-.216a1.623 1.623 0 0 1 1.967 1.586v.253l-.003.216z" fill="#fff"/><path d="M24.047 43.632a6.397 6.397 0 0 1-3.163.831c-1.15 0-2.229-.302-3.163-.83a3.524 3.524 0 0 1 6.326 0z" fill="#EF4A4D"/><path d="M11.515 21.78L26.478 6.124c.6-.627.628-1.571.066-2.109C22.584.229 15.377 1.667 10.99 6.257c-4.4 4.604-5.481 11.878-1.503 15.68.542.517 1.45.448 2.027-.156z" fill="#A34242"/><path d="M16.876 26.308a1.719 1.719 0 0 0-3.438 0v2.578a1.719 1.719 0 1 0 3.438 0v-2.578zM28.681 26.308a1.719 1.719 0 0 0-3.438 0v2.578a1.719 1.719 0 1 0 3.438 0v-2.578z" fill="#62361B"/></g><defs><clipPath id="clip0"><path fill="#fff" d="M0 0h42v56H0z"/></clipPath></defs></svg>