<svg id="Layer_3" data-name="Layer 3" xmlns="http://www.w3.org/2000/svg" viewBox="0 0 42 56"><defs><style>.cls-1{fill:#ffb49e}.cls-2{fill:#ffd801}.cls-4{fill:#fff}.cls-5{fill:#4b4b4b}</style></defs><path class="cls-1" d="M37.36 28a3.39 3.39 0 0 1 3.39 3.39v6.31a3.55 3.55 0 0 1-3.55 3.55H34v-9.83A3.39 3.39 0 0 1 37.36 28z" transform="rotate(20.85 37.365 34.651)"/><path class="cls-1" d="M1.21 28h3.22A3.55 3.55 0 0 1 8 31.56v6.31a3.39 3.39 0 0 1-3.4 3.39 3.39 3.39 0 0 1-3.39-3.39V28z" transform="rotate(159.15 4.597 34.632)"/><path class="cls-2" d="M4.9 20.65L27.73 7.47A4 4 0 0 0 29.24 2 4 4 0 0 0 23.8.52L10.49 8a11 11 0 0 0-5.59 9.6z"/><path class="cls-2" d="M18 9.51l2.55 7.57 14.84-5A4 4 0 0 0 37.92 7a4 4 0 0 0-5.06-2.51z"/><path class="cls-2" d="M26.19 4.66h8v19.39a4 4 0 0 1-4 4 4 4 0 0 1-4-4V4.66z" transform="rotate(-100.27 30.182 16.355)"/><path class="cls-1" d="M36.28 20.54v20.38a13.8 13.8 0 0 1-1 5.12 1.08 1.08 0 0 1-.08.19A13.9 13.9 0 0 1 30.85 52a13.51 13.51 0 0 1-2.62 1.6 13.84 13.84 0 0 1-5.92 1.32h-2.69a14 14 0 0 1-12.84-8.48 3.33 3.33 0 0 1-.16-.4 13.7 13.7 0 0 1-1-5.13V20.54a8.92 8.92 0 0 1 8.92-8.91h12.8a8.92 8.92 0 0 1 8.92 8.91z"/><path d="M36.28 38.74v2.18a13.8 13.8 0 0 1-1 5.12 1.08 1.08 0 0 1-.08.19A13.9 13.9 0 0 1 30.85 52a13.51 13.51 0 0 1-2.62 1.6 13.84 13.84 0 0 1-5.92 1.32h-2.69a14 14 0 0 1-12.84-8.48 3.33 3.33 0 0 1-.16-.4 13.7 13.7 0 0 1-1-5.13v-2.17z" fill="#e68c7e"/><rect class="cls-4" x="9.72" y="26.74" width="8.02" height="11.11" rx="4.01" ry="4.01"/><rect class="cls-5" x="13.04" y="29.78" width="3.23" height="5.27" rx="1.61" ry="1.61"/><rect class="cls-4" x="24.17" y="26.74" width="8.02" height="11.11" rx="4.01" ry="4.01" transform="rotate(-180 28.185 32.295)"/><rect class="cls-5" x="25.62" y="29.78" width="3.23" height="5.27" rx="1.61" ry="1.61" transform="rotate(-180 27.23 32.415)"/><rect x="18.75" y="28.11" width="4.43" height="12.56" rx="1.46" ry="1.46" fill="#ff9c86"/><path class="cls-2" d="M10.88 28.56a1.5 1.5 0 0 1-.19-3 38.25 38.25 0 0 1 6.31-.15 1.5 1.5 0 1 1-.18 3 35.39 35.39 0 0 0-5.73.14zM31.29 28.56h-.16a35.37 35.37 0 0 0-5.73-.14 1.5 1.5 0 0 1-.17-3 38 38 0 0 1 6.22.16 1.5 1.5 0 0 1-.16 3z"/><path d="M25.31 44.76h-8.7a1 1 0 0 1 0-2h8.7a1 1 0 0 1 0 2z" fill="#ba7258"/><path class="cls-2" d="M34 14.5h3v22.76a1.48 1.48 0 0 1-1.48 1.48A1.48 1.48 0 0 1 34 37.26V14.5zM4.9 17.08l3-2.58v22.76a1.48 1.48 0 0 1-1.48 1.48 1.48 1.48 0 0 1-1.52-1.48z"/><path class="cls-2" d="M34.91 14.6A25.62 25.62 0 0 1 21 18.66a25.73 25.73 0 0 1-14-4.09 9.37 9.37 0 0 1 7.17-3.32h13.5a9.42 9.42 0 0 1 7.24 3.35z"/></svg>