<svg viewBox="0 0 42 56" version="1.1" xmlns="http://www.w3.org/2000/svg" xmlns:xlink="http://www.w3.org/1999/xlink"><defs><path d="M6.169 0h16.32a6.169 6.169 0 0 1 6.17 6.169v26.706H0V6.17A6.169 6.169 0 0 1 6.169 0z" id="a"/><path d="M1.917.685a2.656 2.656 0 0 1 3.257.96c.447.516 1.075.98 1.909 1.085.083.002.169.003.258.003h.044a2.655 2.655 0 0 1-.044 5.31C4.104 8.043 1.65 6.772.53 4.175A2.655 2.655 0 0 1 1.917.685z" id="c"/></defs><g stroke="none" stroke-width="1" fill="none" fill-rule="evenodd"><g transform="translate(1 5)"><path d="M38.603 37.405H1.148a.703.703 0 0 0-.702.702 7.106 7.106 0 0 0 7.106 7.107h24.647a7.106 7.106 0 0 0 7.106-7.107.703.703 0 0 0-.702-.702z" fill="#FFB100" fill-rule="nonzero"/><path d="M9.685 7.575H30.3a6.56 6.56 0 0 1 6.56 6.56v24.441H3.125V14.134a6.56 6.56 0 0 1 6.56-6.56z" fill="#FFB100"/><g transform="translate(5.39 12.104)"><mask id="b" fill="#fff"><use xlink:href="#a"/></mask><use fill="#FFC6B7" xlink:href="#a"/><rect fill="#FFB100" mask="url(#b)" x="-3.514" y="-1.171" width="6.481" height="11.089" rx="3.241"/><rect fill="#FFB100" mask="url(#b)" x="26.004" y="-1.171" width="6.481" height="11.089" rx="3.241"/></g><g><g transform="translate(12.088 16.128)"><path d="M3.682 0a3.682 3.682 0 0 1 3.682 3.682v2.24a3.682 3.682 0 1 1-7.364 0v-2.24A3.682 3.682 0 0 1 3.682 0z" fill="#FFF"/><path d="M4.698 2.186c.913 0 1.653.74 1.653 1.653v2.077a1.653 1.653 0 1 1-3.306 0V3.839c0-.912.74-1.653 1.653-1.653z" fill="#3D3D3D"/><circle fill="#FFF" cx="3.241" cy="2.538" r="1.21"/></g></g><g transform="matrix(-1 0 0 1 28.12 16.128)"><path d="M3.682 0a3.682 3.682 0 0 1 3.682 3.682v2.24a3.682 3.682 0 1 1-7.364 0v-2.24A3.682 3.682 0 0 1 3.682 0z" fill="#FFF"/><path d="M4.695 2.186c.913 0 1.653.74 1.653 1.653v2.077a1.653 1.653 0 1 1-3.306 0V3.839c0-.912.74-1.653 1.653-1.653z" fill="#3D3D3D"/><circle fill="#FFF" cx="5.892" cy="2.538" r="1.21"/></g><path d="M20.078 27.722a1.64 1.64 0 0 0 1.64-1.64c0-.905-1.64-3.046-1.64-3.046s-1.64 2.141-1.64 3.047c0 .905.734 1.639 1.64 1.639z" fill="#F3A577"/><path d="M12.269 24.364c1.9.11 3.41.917 4.53 2.42" stroke="#FFC6B7" stroke-width="1.484"/><circle fill="#FFC6B7" cx="4.102" cy="22.841" r="3.163"/><circle fill="#FFC6B7" cx="35.571" cy="22.841" r="3.163"/><g transform="translate(10.16 25.535)"><mask id="d" fill="#fff"><use xlink:href="#c"/></mask><use fill="#702323" fill-rule="nonzero" transform="rotate(5 5.154 4.256)" xlink:href="#c"/><circle fill="#B23232" mask="url(#d)" cx="8.785" cy="10.191" r="4.802"/><rect fill="#FFF" mask="url(#d)" x=".469" y="-.239" width="3.904" height="3.514" rx="1.406"/><path d="M4.14.074h2.498c.777 0 1.406.629 1.406 1.405v.39c0 .777-.63 1.406-1.406 1.406H5.545c-.776 0-1.406-.629-1.406-1.405V.074z" fill="#FFF" mask="url(#d)"/></g><rect fill="#FF4B4B" x="2.188" y="10.698" width="35.603" height="4.139" rx="1.015"/><rect fill="#FFB100" x="12.965" y="0" width="14.056" height="14.056" rx="7.028"/><path d="M12.62 1.855l6.717 7.32a.777.777 0 0 1-.26 1.23c-2.308 1.03-5.063.449-6.8-1.485-1.737-1.934-2.024-4.74-.761-6.934.263-.457.751-.523 1.104-.13z" fill="#FFB100" fill-rule="nonzero"/><rect fill="#FF4B4B" x="4.062" y="41.387" width="31.47" height="4.685" rx=".859"/><path d="M19.157 41.231h1.905c.289 0 .54.198.608.478l1.26 5.232a.625.625 0 0 1-.607.771h-4.427a.625.625 0 0 1-.607-.77l1.26-5.233a.625.625 0 0 1 .608-.478z" fill="#EBE3E3"/><path d="M3.125 35.163c0 .62-.008 2.249-1.796 2.249.774.756 1.2 1.087 1.281.992l.835-.442.227-1.874c-.364-1.03-.547-1.338-.547-.925zM36.86 35.163c0 .62.009 2.249 1.796 2.249-.773.756-1.2 1.087-1.281.992l-.835-.442-.227-1.874c.365-1.03.547-1.338.547-.925z" fill="#FFB100"/></g></g></svg>