<svg viewBox="0 0 42 56" fill="none" xmlns="http://www.w3.org/2000/svg"><g clip-path="url(#clip0)"><path d="M28.143 55.56c7.093 0 12.843-5.75 12.843-12.843s-5.75-12.842-12.843-12.842S15.3 35.624 15.3 42.717c0 7.093 5.75 12.843 12.843 12.843zM28.795 29.71c7.233 0 13.096-5.863 13.096-13.096 0-7.232-5.863-13.096-13.096-13.096S15.7 9.382 15.7 16.614c0 7.233 5.863 13.097 13.096 13.097z" fill="#3D3D3D"/><path d="M16.052 32.105c8.866 0 16.053-7.187 16.053-16.053C32.105 7.187 24.918 0 16.052 0 7.187 0 0 7.187 0 16.052c0 8.866 7.187 16.053 16.052 16.053z" fill="#3D3D3D"/><path d="M6.12 36.561a4.73 4.73 0 1 0 0-9.46 4.73 4.73 0 0 0 0 9.46z" fill="#A66640"/><path d="M7.252 21.863c0-6.862 5.564-12.425 12.427-12.425 6.862 0 12.426 5.563 12.426 12.425V36.7c0 6.863-5.564 12.426-12.426 12.426-6.863 0-12.427-5.563-12.427-12.426V21.864z" fill="#A66640"/><path d="M16.546 20.623a4.642 4.642 0 0 0-3.297-.61 4.642 4.642 0 0 0-2.853 1.762" stroke="#3D3D3D" stroke-width="2" stroke-linecap="round" stroke-linejoin="round"/><rect x="18.097" y="25.118" width="3.544" height="10.827" rx=".75" fill="#8E4D26"/><path d="M15.41 37.964a6.406 6.406 0 0 0 4.46 1.799 6.406 6.406 0 0 0 4.459-1.8" stroke="#62361B" stroke-width="2" stroke-linecap="round" stroke-linejoin="round"/><path d="M19.085 18.249a7.676 7.676 0 1 0 .756-15.333 7.676 7.676 0 0 0-.756 15.333z" fill="#3D3D3D"/><path d="M29.723 23.562a8.682 8.682 0 1 0 .855-17.342 8.682 8.682 0 0 0-.855 17.342z" fill="#3D3D3D"/><path d="M41.482 21.214c-.762-1.261-2.389-1.675-3.634-.923-.706.427-1.566 1.699-2.581 3.817a.88.88 0 0 0 .76 1.26c2.348.088 3.874-.082 4.58-.508 1.246-.752 1.637-2.384.875-3.646z" fill="#FF6464"/><path d="M40.337 29.523c1.168-.898 1.397-2.561.51-3.714-.503-.654-1.864-1.366-4.083-2.137a.88.88 0 0 0-1.166.897c.176 2.342.515 3.84 1.018 4.494.887 1.153 2.553 1.359 3.721.46zM30.142 20.768c-1.068 1.016-1.122 2.694-.12 3.748.569.598 1.997 1.164 4.284 1.7a.88.88 0 0 0 1.066-1.014c-.42-2.312-.913-3.766-1.481-4.364-1.002-1.054-2.68-1.085-3.749-.07z" fill="#FF6464"/><path d="M35.294 17.17c-1.47.117-2.567 1.387-2.452 2.837.065.822.818 2.161 2.258 4.017a.88.88 0 0 0 1.466-.117c1.13-2.06 1.662-3.5 1.596-4.323-.114-1.45-1.399-2.53-2.868-2.413z" fill="#FF6464"/><path d="M33.519 36.561a4.73 4.73 0 1 0 0-9.46 4.73 4.73 0 0 0 0 9.46z" fill="#A66640"/><path d="M32.953 30.506c1.43.356 2.874-.5 3.225-1.91.2-.802-.09-2.31-.866-4.527a.88.88 0 0 0-1.427-.355c-1.725 1.594-2.687 2.792-2.886 3.593-.351 1.41.524 2.843 1.954 3.2z" fill="#FF6464"/><path d="M17.368 27.719a3.569 3.569 0 0 0-7.137 0v2.743a3.569 3.569 0 0 0 7.137 0v-2.743z" fill="#fff"/><path d="M16.324 27.996a1.719 1.719 0 0 0-3.437 0v2.578a1.719 1.719 0 0 0 3.437 0v-2.578z" fill="#3D3D3D"/><path d="M22.37 30.462a3.569 3.569 0 0 0 7.138 0v-2.743a3.569 3.569 0 0 0-7.138 0v2.743z" fill="#fff"/><path d="M23.414 30.574a1.719 1.719 0 0 0 3.438 0v-2.578a1.719 1.719 0 0 0-3.438 0v2.578z" fill="#3D3D3D"/></g><defs><clipPath id="clip0"><path fill="#fff" d="M0 0h42v56H0z"/></clipPath></defs></svg>