<svg id="Layer_3" data-name="Layer 3" xmlns="http://www.w3.org/2000/svg" viewBox="0 0 42 56"><defs><style>.cls-1{fill:#777}.cls-2{fill:#ffb49e}.cls-3{fill:#fff}.cls-4{fill:#a46644}.cls-5{fill:#4b4b4b}</style></defs><rect class="cls-1" x=".1" y="2" width="41.8" height="16.46" rx="8.23" ry="8.23"/><circle class="cls-2" cx="37.37" cy="20.86" r="4.39"/><circle class="cls-2" cx="4.68" cy="20.86" r="4.39"/><path class="cls-2" d="M21.46 0a16.87 16.87 0 0 1 16.86 16.87v15.66a4.83 4.83 0 0 1-4.83 4.83H9.42a4.83 4.83 0 0 1-4.83-4.83V16.87A16.87 16.87 0 0 1 21.46 0z"/><path class="cls-3" d="M21 19.39a5.81 5.81 0 0 1-11.62.11v-.11a5.81 5.81 0 0 1 11.62 0zM32.88 19.39a5.81 5.81 0 0 1-11.62.11v-.11a5.81 5.81 0 0 1 11.62 0z"/><path class="cls-3" d="M33.05 19.39v.09a4.87 4.87 0 0 1-.6 2.28A5 5 0 0 1 30 24a4.87 4.87 0 0 1-2 .41 5 5 0 0 1-2-.41 4.77 4.77 0 0 1-1.41-.92 4.24 4.24 0 0 1-.46-.49 4.93 4.93 0 0 1-1.15-3.17 5 5 0 0 1 10 0z"/><path class="cls-4" d="M15.19 26.22A6.83 6.83 0 1 1 22 19.4a6.83 6.83 0 0 1-6.81 6.82zm0-11.62A4.8 4.8 0 1 0 20 19.4a4.81 4.81 0 0 0-4.81-4.8z"/><path class="cls-4" d="M27.07 26.22a6.83 6.83 0 1 1 6.82-6.82 6.83 6.83 0 0 1-6.82 6.82zm0-11.62a4.8 4.8 0 1 0 4.79 4.8 4.8 4.8 0 0 0-4.79-4.8z"/><path class="cls-4" d="M38.23 17.33h-6.14a.87.87 0 0 1 0-1.74h6.14a.87.87 0 0 1 0 1.74zM10.28 17.33H4.13a.87.87 0 0 1 0-1.74h6.15a.87.87 0 1 1 0 1.74z"/><rect class="cls-1" x="14.06" y="25.51" width="14.3" height="6.81" rx="3.41" ry="3.41"/><path class="cls-5" d="M16.81 17.85a1.56 1.56 0 0 1 1.56 1.56v1A1.56 1.56 0 0 1 16.81 22a1.56 1.56 0 0 1-1.56-1.56v-1a1.56 1.56 0 0 1 1.56-1.59z"/><rect class="cls-5" x="24.01" y="17.85" width="3.12" height="4.1" rx="1.56" ry="1.56"/><rect x="17.9" y="22.83" width="6.64" height="4.74" rx="2.37" ry="2.37" fill="#ff9c86"/></svg>