<svg id="Layer_3" data-name="Layer 3" xmlns="http://www.w3.org/2000/svg" viewBox="0 0 42 56"><defs><style>.cls-1{fill:#603621}.cls-2{fill:#ce82ff}.cls-4{fill:#fff}.cls-5{fill:#4b4b4b}.cls-6{fill:#d67155}.cls-7{fill:#de8366}.cls-8{fill:#61361e}</style></defs><circle class="cls-1" cx="23.4" cy="12.47" r="10.38"/><path class="cls-1" d="M6.35 43.14a5.6 5.6 0 0 1-5.51-6.6l3.43-18.88c.5-3.4 3.12-6.33 6.92-8.22A22.75 22.75 0 0 1 21.25 7.2a22.08 22.08 0 0 1 11.45 3 11.32 11.32 0 0 1 5.43 6.87c0 .2.08.39.11.59l3.66 18.81a5.6 5.6 0 0 1-5.5 6.67z"/><path class="cls-2" d="M36.42 48.94a2.34 2.34 0 0 1-2.23-3l2.23-7 2.23 7a2.34 2.34 0 0 1-2.23 3zM6.24 49.25A2.34 2.34 0 0 1 4 46.2l2.23-7 2.23 7a2.34 2.34 0 0 1-2.22 3.05z"/><path d="M15.65 11.35h11a7.52 7.52 0 0 1 7.52 7.52V34.7a13 13 0 0 1-13 13 13 13 0 0 1-13-13V18.87a7.52 7.52 0 0 1 7.52-7.52z" transform="rotate(-180 21.135 29.53)" fill="#e59b80"/><rect class="cls-4" x="11.07" y="22.26" width="7.9" height="10.94" rx="3.95" ry="3.95"/><rect class="cls-5" x="14.33" y="25.25" width="3.18" height="5.19" rx="1.59" ry="1.59"/><rect class="cls-4" x="23.3" y="22.26" width="7.9" height="10.94" rx="3.95" ry="3.95" transform="rotate(180 27.25 27.725)"/><rect class="cls-5" x="24.76" y="25.25" width="3.18" height="5.19" rx="1.59" ry="1.59" transform="rotate(180 26.35 27.85)"/><rect class="cls-6" x="19.57" y="21.73" width="3.1" height="12.36" rx="1.55" ry="1.55"/><circle class="cls-6" cx="21.13" cy="32.46" r="2.75"/><path class="cls-4" d="M28.08 35.77a6.24 6.24 0 0 1-.37 1.08 5.79 5.79 0 0 1-.6 1.09 6.83 6.83 0 0 1-10.2 1.4 5.23 5.23 0 0 1-.87-.89 5.61 5.61 0 0 1-.65-.94.66.66 0 0 1 .48-1L27.36 35a.66.66 0 0 1 .72.77z"/><path class="cls-7" d="M30.42 38.81h-.2a.84.84 0 0 1-.6-1l.88-3.52a.82.82 0 1 1 1.59.39l-.88 3.53a.81.81 0 0 1-.79.6zM13.45 41.1a.8.8 0 0 1-.7-.4l-1.67-2.82a.82.82 0 0 1 1.41-.83l1.67 2.82a.82.82 0 0 1-.29 1.13.8.8 0 0 1-.42.1zM38.67 34.46a5.4 5.4 0 0 1-2.25 4.38v-8.75a5.36 5.36 0 0 1 2.25 4.37zM4 34.46a5.37 5.37 0 0 0 2.25 4.38v-8.75A5.34 5.34 0 0 0 4 34.46z"/><path class="cls-8" d="M20.38 15l-10-1a4.5 4.5 0 0 1 .92-9l3.8.39A9.56 9.56 0 0 1 23.6 0h7.21a4.5 4.5 0 1 1 0 9H23.6a.5.5 0 0 0-.45.28z"/><path class="cls-8" d="M27.1 22.72A4.48 4.48 0 0 1 23.56 21l-3.85-4.9a5.85 5.85 0 0 0-4.63-2.25c-2.48 0 3.15-8.75 4.62-8.27a14.75 14.75 0 0 1 7.09 5l3.85 4.9a4.49 4.49 0 0 1-.77 6.31 4.44 4.44 0 0 1-2.77.93z"/><path class="cls-8" d="M22.49 15.52a4.49 4.49 0 0 1-3.78-2.06 4.61 4.61 0 0 1 1.15-6.1 14.81 14.81 0 0 1 12.53-2.71L38.26 6a4.63 4.63 0 0 1 3.61 5 4.49 4.49 0 0 1-5.49 3.78L30 13.34a5.49 5.49 0 0 0-4.72 1.19 4.5 4.5 0 0 1-2.79.99z"/><path class="cls-8" d="M4.56 24.06a4.5 4.5 0 0 1-2.63-8.15l10.76-7.73a4.5 4.5 0 1 1 5.25 7.31L7.18 23.22a4.46 4.46 0 0 1-2.62.84z"/></svg>