<svg id="Layer_3" data-name="Layer 3" xmlns="http://www.w3.org/2000/svg" viewBox="0 0 42 56"><defs><style>.cls-1{fill:#7a4830}.cls-2{fill:#db8f73}.cls-3{fill:#61361e}.cls-4{fill:#fff}.cls-5{fill:#ce7455}.cls-6{fill:#7ac625}</style></defs><path class="cls-1" d="M.46 19.87H41.2V43.5a5 5 0 0 1-5 5H5.41a5 5 0 0 1-5-5V19.87h.05z"/><path class="cls-1" d="M41.2 19.43v2.79a18 18 0 0 1-1.11 6.27 17.27 17.27 0 0 1-.81 1.94 19.8 19.8 0 0 1-11 9.8L21 43l-7.53-2.77a19.35 19.35 0 0 1-13-18v-2.8C.46 8.71 9.58 0 20.83 0a20.77 20.77 0 0 1 14.4 5.7 18.88 18.88 0 0 1 5.97 13.73z"/><circle class="cls-2" cx="6.45" cy="32.38" r="4.7"/><circle class="cls-2" cx="34.6" cy="32.38" r="4.7"/><path class="cls-3" d="M5.94 22.18h29.83v26.26H5.94z"/><circle class="cls-2" cx="21.14" cy="44.86" r="5.87"/><rect class="cls-2" x="5.28" y="7.52" width="30.86" height="41.28" rx="15.09" ry="15.09" transform="rotate(-180 20.705 28.155)"/><rect class="cls-4" x="8.89" y="20.43" width="8.79" height="12.16" rx="4.39" ry="4.39"/><rect class="cls-3" x="12.52" y="23.76" width="3.53" height="5.77" rx="1.77" ry="1.77"/><rect class="cls-4" x="23.92" y="20.43" width="8.79" height="12.16" rx="4.39" ry="4.39" transform="rotate(-180 28.315 26.51)"/><rect class="cls-3" x="25.55" y="23.76" width="3.53" height="5.77" rx="1.77" ry="1.77" transform="rotate(180 27.315 26.65)"/><path class="cls-4" d="M26.53 40.28l-.58.34-.65.38a9.68 9.68 0 0 1-8.3-.11 8.63 8.63 0 0 1-1.21-.7 2.2 2.2 0 0 1 1.21-4 2.18 2.18 0 0 1 1.24.4 5.29 5.29 0 0 0 5.55.23l.58-.34a2.12 2.12 0 0 1 .94-.27.34.34 0 0 1 .14 0 2.19 2.19 0 0 1 1.09 4.1z"/><rect class="cls-5" x="18.37" y="23.21" width="4.86" height="10.77" rx="1.66" ry="1.66"/><path class="cls-5" d="M30.94 40.82a1 1 0 0 1-.93-.63l-.94-2.36a1 1 0 1 1 1.86-.74l.94 2.35a1 1 0 0 1-.93 1.38zM11.35 41.22a1.13 1.13 0 0 1-.44-.1 1 1 0 0 1-.46-1.34l1.1-2.28a1 1 0 1 1 1.8.87l-1.1 2.28a1 1 0 0 1-.9.57z"/><rect class="cls-5" x="17.84" y="31.35" width="5.94" height="3.15" rx="1.57" ry="1.57"/><rect class="cls-1" x="13.99" y="5.62" width="23.27" height="13.02" rx="6.51" ry="6.51"/><rect class="cls-1" x="5.3" y="5.4" width="10.62" height="10.88" rx="5.31" ry="5.31"/><rect class="cls-1" x="34.93" y="14.77" width="3.15" height="13.24" rx="1.57" ry="1.57"/><path class="cls-1" d="M5.59 27.71l-.52.17S4 26.85 4 26.06V15.49a1.64 1.64 0 0 1 1.64-1.65 1.65 1.65 0 0 1 1.65 1.65v10.14c-.05 1.5-1.7 2.08-1.7 2.08z"/><circle class="cls-6" cx="4.51" cy="36.6" r="1.31"/><circle class="cls-6" cx="36.89" cy="36.6" r="1.31"/></svg>