<svg id="Layer_3" data-name="Layer 3" xmlns="http://www.w3.org/2000/svg" viewBox="0 0 42 56"><defs><style>.cls-1{fill:#a56644}.cls-2{fill:#2d2d2d}.cls-4{fill:#fff}.cls-5{fill:#8b4824}</style></defs><circle class="cls-1" cx="36.17" cy="33.54" r="5.49"/><circle class="cls-1" cx="5.92" cy="33.37" r="5.49"/><path class="cls-2" d="M38.55 12v19.59a1.47 1.47 0 0 1-1.47 1.47h-32a1.47 1.47 0 0 1-1.47-1.47V12a12 12 0 0 1 12-12h10.91a12 12 0 0 1 12.03 12z"/><path d="M3.61 17.62h34.94v14a1.47 1.47 0 0 1-1.47 1.47h-32a1.47 1.47 0 0 1-1.47-1.47" fill="#4b4b4b"/><path class="cls-1" d="M36.2 12.85v23.33A15.12 15.12 0 0 1 21.08 51.3 15.12 15.12 0 0 1 6 36.18v-23.4a3.62 3.62 0 0 1 4.56-3.49l9.67 2.64a4.83 4.83 0 0 0 2.64 0l8.77-2.53a3.61 3.61 0 0 1 4.56 3.45z"/><path class="cls-4" d="M17.17 21.94a.85.85 0 0 1 .85.85v1.75a4.26 4.26 0 0 1-5.15 4.15 4.34 4.34 0 0 1-3.34-4.28v-1.62a.85.85 0 0 1 .85-.85z"/><path class="cls-2" d="M16.45 21.94v2.18a1.71 1.71 0 1 1-3.41 0v-2.18z"/><path class="cls-4" d="M32.62 22.78v1.52a4.41 4.41 0 0 1-4 4.48 4.25 4.25 0 0 1-4.47-4.24v-1.76a.85.85 0 0 1 .84-.84h6.8a.85.85 0 0 1 .83.84z"/><path class="cls-2" d="M29 21.94v2.18a1.71 1.71 0 1 1-3.41 0v-2.18z"/><path class="cls-5" d="M21.08 25.43c-1.95 0-4.45 2.22-4.45 3.68a1.68 1.68 0 0 0 2.89 1.16 2.64 2.64 0 0 0 3.12 0 1.65 1.65 0 0 0 1.2.51 1.68 1.68 0 0 0 1.68-1.67c0-1.46-2.52-3.68-4.44-3.68z"/><path d="M27.94 33.05v.55a5.29 5.29 0 0 1-.11 1.06A5 5 0 0 1 23 38.58h-4.28a5 5 0 0 1-4.9-4.06 4.7 4.7 0 0 1-.09-.92v-.55a1 1 0 0 1 .95-.94H27a.94.94 0 0 1 .94.94z" fill="#522829"/><path class="cls-4" d="M27.94 33.05v.55a5.29 5.29 0 0 1-.11 1.06l-14-.14a4.7 4.7 0 0 1-.09-.92v-.55a1 1 0 0 1 .95-.94H27a.94.94 0 0 1 .94.94z"/><path d="M17.71 38.41a5.4 5.4 0 0 0 1.15.13h4.24a5.38 5.38 0 0 0 1.14-.13 3.52 3.52 0 0 0-6.53 0z" fill="#f14848"/><path class="cls-5" d="M21.08 19.94a2.26 2.26 0 0 1 2.26 2.26v5.91h-4.52V22.2a2.26 2.26 0 0 1 2.26-2.26z"/></svg>