<svg id="Layer_3" data-name="Layer 3" xmlns="http://www.w3.org/2000/svg" viewBox="0 0 42 56"><defs><style>.cls-1{fill:#a46647}.cls-2{fill:#825035}.cls-3{fill:#fff}.cls-4{fill:#2d2d2d}</style></defs><path class="cls-1" d="M35.05 5a3.35 3.35 0 0 1 2.45 3l.7 10.5.8 12.2a18.26 18.26 0 0 1-18.2 19.49 18.27 18.27 0 0 1-18.22-19.5l.79-11.82.72-10.72a3.38 3.38 0 0 1 2.49-3z"/><path class="cls-2" d="M6.57 15.86a1.37 1.37 0 0 0-1.33 1.71 6.54 6.54 0 0 0 12.86-1.71zM35 15.86a1.37 1.37 0 0 1 1.33 1.71 6.54 6.54 0 0 1-12.83-1.71z"/><rect class="cls-3" x="8.58" y="10.65" width="7.56" height="10.47" rx="3.78" ry="3.78"/><rect class="cls-4" x="11.71" y="13.52" width="3.04" height="4.97" rx="1.52" ry="1.52"/><rect class="cls-3" x="25.81" y="10.65" width="7.56" height="10.47" rx="3.78" ry="3.78" transform="rotate(-180 29.595 15.89)"/><rect class="cls-4" x="27.21" y="13.52" width="3.04" height="4.97" rx="1.52" ry="1.52" transform="rotate(-180 28.73 16.005)"/><path class="cls-1" d="M5.26 9.62H36.2v6.27H5.26z"/><path d="M17.48 15h7a1.56 1.56 0 0 1 1.56 1.56v11.37A5.08 5.08 0 0 1 21 33a5.08 5.08 0 0 1-5.08-5.08V16.57A1.56 1.56 0 0 1 17.48 15z" fill="#fecd92"/><rect class="cls-4" x="18.03" y="13.91" width="5.47" height="3.26" rx="1.63" ry="1.63"/><path class="cls-1" d="M17.63 22.66a1 1 0 0 1-.47-1.89 8.25 8.25 0 0 1 7.68 0 1 1 0 0 1 .44 1.36 1 1 0 0 1-1.33.44 6.24 6.24 0 0 0-5.82 0 1 1 0 0 1-.5.09z"/><circle class="cls-1" cx="37.14" cy="4.76" r="4.76"/><circle class="cls-1" cx="4.86" cy="4.76" r="4.76"/></svg>