<svg viewBox="0 0 170 163" fill="none" xmlns="http://www.w3.org/2000/svg"><path fill-rule="evenodd" clip-rule="evenodd" d="M54.149 145.069C54.149 140.749 57.6652 137.225 61.9752 137.225H74.2249C78.535 137.225 82.0511 140.749 82.0511 145.069C82.0511 149.389 78.535 152.913 74.2249 152.913H61.9752C57.6652 152.913 54.149 149.389 54.149 145.069Z" fill="#F49000"/><path fill-rule="evenodd" clip-rule="evenodd" d="M87.9491 145.069C87.9491 140.749 91.4652 137.225 95.7753 137.225H108.025C112.335 137.225 115.851 140.749 115.851 145.069C115.851 149.389 112.335 152.913 108.025 152.913H95.7753C91.4652 152.913 87.9491 149.389 87.9491 145.069Z" fill="#F49000"/><path d="M1.40739 115.397L45.5289 35.3636C47.9108 31.1573 53.6953 30.4752 56.9846 33.9994C72.9772 51.1657 76.153 77.1994 64.5839 98.3446C53.0148 119.49 29.3094 130.517 6.28457 125.97C1.52081 125.06 -0.974492 119.717 1.40739 115.397Z" fill="#58CC02"/><path d="M168.593 115.397L124.471 35.3635C122.089 31.0435 116.305 30.3614 112.902 33.8856C96.9094 51.052 93.7335 77.0857 105.303 98.2309C116.872 119.376 140.577 130.404 163.602 125.856C168.479 125.06 170.974 119.717 168.593 115.397Z" fill="#58CC02"/><path fill-rule="evenodd" clip-rule="evenodd" d="M52.4476 2.05398C68.3268 8.76135 79.2154 12.1719 85.1134 12.1719C91.0114 12.1719 101.673 8.87503 117.325 2.16767C127.647 -2.26602 139.67 2.6224 144.093 12.9677C145.114 15.4687 145.681 18.1971 145.681 20.9256V84.475C145.681 118.126 118.46 145.41 84.8866 145.41C51.3134 145.296 24.0919 118.126 24.0919 84.475V20.8119C24.0919 9.55714 33.1657 0.462402 44.508 0.462402C47.2302 0.462402 49.8389 1.03082 52.4476 2.05398Z" fill="#58CC02"/><path d="M80.3497 103.801C80.5765 103.005 80.0094 102.323 79.2155 102.323H63.9034C63.1094 102.323 62.5423 103.119 62.7692 103.801C64.0168 107.325 67.5329 109.826 71.5027 109.826C75.4725 109.826 79.102 107.325 80.3497 103.801ZM105.87 102.323H90.5577C89.7638 102.323 89.1967 103.119 89.4235 103.801C90.6712 107.325 94.1873 109.826 98.1571 109.826C102.127 109.826 105.756 107.325 107.004 103.801C107.231 103.119 106.664 102.323 105.87 102.323ZM92.4859 115.17H77.1739C76.3799 115.17 75.8128 115.965 76.0396 116.647C77.2873 120.172 80.8034 122.673 84.7732 122.673C88.743 122.673 92.3725 120.172 93.6202 116.647C93.9604 115.965 93.3933 115.17 92.4859 115.17Z" fill="#89E219"/><path d="M55.9638 11.6032L74.3382 31.6116C75.3591 32.6348 74.9054 34.3401 73.6577 35.0222C67.306 37.8643 59.8201 36.2727 55.0564 30.9295C50.2926 25.5864 49.4987 17.9695 52.9013 11.9443C53.6953 10.6938 54.943 10.5801 55.9638 11.6032Z" fill="#89E219"/><path fill-rule="evenodd" clip-rule="evenodd" d="M71.843 29.1108C78.5349 35.9319 90.3309 35.9319 97.7034 29.1108C105.076 22.2898 96.5692 68.6729 96.5692 68.4455C96.5692 68.4455 92.5994 68.3319 84.6598 68.4455C82.5047 68.4455 78.6484 68.4455 73.2041 68.4455C67.8732 37.7508 67.4195 24.5634 71.843 29.1108Z" fill="#89E219"/><path d="M45.8692 16.3779L63.79 36.5C64.8108 37.5231 64.3571 39.2284 63.1094 39.9105C56.7578 42.7526 49.2718 41.161 44.5081 35.8179C39.7443 30.4747 38.9504 22.8579 42.4665 16.8326C43.147 15.4684 44.8484 15.3547 45.8692 16.3779Z" fill="#89E219"/><path fill-rule="evenodd" clip-rule="evenodd" d="M54.2624 21.9487H54.943C68.2134 21.9487 78.8752 32.7487 78.8752 45.9361V58.6687C78.8752 71.9698 68.1 82.6561 54.943 82.6561H54.2624C40.9919 82.6561 30.3302 71.8561 30.3302 58.6687V46.0498C30.3302 32.7487 40.9919 21.9487 54.2624 21.9487Z" fill="#89E219"/><path d="M113.583 11.6032L95.5484 31.6116C94.5276 32.6348 94.9813 34.3401 96.2289 35.0222C102.581 37.8643 110.067 36.2727 114.83 30.9295C119.594 25.5864 120.388 17.9695 116.872 11.9443C116.191 10.6938 114.49 10.5801 113.583 11.6032Z" fill="#89E219"/><path d="M124.017 16.3779L105.983 36.5C104.962 37.5231 105.416 39.2284 106.664 39.9105C113.015 42.7526 120.501 41.161 125.265 35.8179C130.029 30.4747 130.823 22.8579 127.307 16.8326C126.74 15.4684 125.038 15.3547 124.017 16.3779Z" fill="#89E219"/><path fill-rule="evenodd" clip-rule="evenodd" d="M114.717 21.9487H115.397C128.668 21.9487 139.33 32.7487 139.33 45.9361V58.6687C139.33 71.9698 128.554 82.6561 115.397 82.6561H114.83C101.673 82.6561 91.0114 71.9698 90.898 58.7824L90.7846 46.0498C90.6712 32.7487 101.333 21.9487 114.717 21.9487C114.603 21.9487 114.717 21.9487 114.717 21.9487Z" fill="#89E219"/><path fill-rule="evenodd" clip-rule="evenodd" d="M85 58.7822C89.6503 58.7822 93.5067 62.6475 93.5067 67.3085V70.037C93.5067 74.698 89.6503 78.5633 85 78.5633C80.3497 78.5633 76.4933 74.698 76.4933 70.037V67.3085C76.4933 62.6475 80.3497 58.7822 85 58.7822Z" fill="#F49000"/><path d="M73.204 67.877C74.2248 62.6475 79.2154 58.7822 85.1134 58.7822C90.6711 58.7822 95.5483 62.7612 96.5691 67.877V68.3317C96.5691 68.6728 96.4557 68.9001 96.1154 68.7864L85.1134 70.7191C84.8865 70.7191 84.8865 70.7191 84.6597 70.7191L73.6577 68.7864C73.3174 68.7864 73.204 68.6728 73.204 68.3317V67.877Z" fill="#FFC200"/><path d="M87.4952 64.3528C87.2684 64.3528 87.155 64.3528 86.9281 64.2391C85.4536 63.6706 84.0926 63.6706 82.8449 64.2391C81.9375 64.5801 81.0301 64.1254 80.6899 63.3296C80.3496 62.4201 80.8033 61.5106 81.5973 61.1696C83.6389 60.3738 85.7939 60.3738 88.0623 61.1696C88.9697 61.5106 89.4234 62.4201 89.0832 63.3296C88.8563 63.898 88.1758 64.3528 87.4952 64.3528Z" fill="#FFDE00"/><path fill-rule="evenodd" clip-rule="evenodd" d="M55.5101 30.5884C64.6973 30.5884 72.1832 38.0915 72.1832 47.3V57.4179C72.1832 66.6263 64.6973 74.1294 55.5101 74.1294C46.3228 74.1294 38.8369 66.6263 38.8369 57.4179V47.3C38.8369 38.0915 46.3228 30.5884 55.5101 30.5884Z" fill="white"/><path fill-rule="evenodd" clip-rule="evenodd" d="M58.1188 40.1377C62.4288 40.1377 65.9449 43.6619 65.9449 47.9819V56.6219C65.9449 60.9419 62.4288 64.4661 58.1188 64.4661C53.8087 64.4661 50.2926 60.9419 50.2926 56.6219V47.9819C50.2926 43.6619 53.8087 40.1377 58.1188 40.1377Z" fill="#122431"/><path d="M51.5403 49.9147C54.3592 49.9147 56.6443 47.6243 56.6443 44.7989C56.6443 41.9735 54.3592 39.6831 51.5403 39.6831C48.7214 39.6831 46.4363 41.9735 46.4363 44.7989C46.4363 47.6243 48.7214 49.9147 51.5403 49.9147Z" fill="white"/><path fill-rule="evenodd" clip-rule="evenodd" d="M114.15 30.5884C123.337 30.5884 130.823 38.0915 130.823 47.3V57.4179C130.823 66.6263 123.337 74.1294 114.15 74.1294C104.962 74.1294 97.4766 66.6263 97.4766 57.4179V47.3C97.4766 38.0915 104.962 30.5884 114.15 30.5884Z" fill="white"/><path fill-rule="evenodd" clip-rule="evenodd" d="M111.541 40.1377C115.851 40.1377 119.367 43.6619 119.367 47.9819V56.6219C119.367 60.9419 115.851 64.4661 111.541 64.4661C107.231 64.4661 103.715 60.9419 103.715 56.6219V47.9819C103.715 43.6619 107.231 40.1377 111.541 40.1377Z" fill="#122431"/><path d="M104.055 49.9147C106.874 49.9147 109.159 47.6243 109.159 44.7989C109.159 41.9735 106.874 39.6831 104.055 39.6831C101.236 39.6831 98.951 41.9735 98.951 44.7989C98.951 47.6243 101.236 49.9147 104.055 49.9147Z" fill="white"/><path opacity="0.3" fill-rule="evenodd" clip-rule="evenodd" d="M37.0222 152.913H133.658C136.267 152.913 138.422 155.073 138.422 157.688C138.422 160.303 136.267 162.463 133.658 162.463H37.0222C34.4135 162.463 32.2584 160.303 32.2584 157.688C32.2584 155.073 34.4135 152.913 37.0222 152.913Z" fill="#AFAFAF"/></svg>