<svg id="Layer_3" data-name="Layer 3" xmlns="http://www.w3.org/2000/svg" viewBox="0 0 42 56"><defs><style>.cls-1{fill:#fee166}.cls-3{fill:#ff9d8a}.cls-5{fill:#fff}.cls-6{fill:#3072c6}</style></defs><circle class="cls-1" cx="32.1" cy="8.39" r="8.44"/><circle cx="29.63" cy="11.99" r="5.01" fill="#cd86fc"/><circle class="cls-3" cx="6.61" cy="35.24" r="6.11"/><circle class="cls-3" cx="35.36" cy="35.24" r="6.11"/><path d="M37.27 21.74v15.14A16.52 16.52 0 0 1 20.75 53.4 16.53 16.53 0 0 1 4.22 36.87V21.74a9.62 9.62 0 0 1 9.62-9.62h13.81a9.62 9.62 0 0 1 9.62 9.62z" fill="#ffb5a1"/><path class="cls-5" d="M26.18 45l-.58.33-.6.37a9.61 9.61 0 0 1-8.27-.07 8.63 8.63 0 0 1-1.21-.7 2.17 2.17 0 0 1-.55-3 2.12 2.12 0 0 1 1.71-.93 2.25 2.25 0 0 1 1.23.38 5.22 5.22 0 0 0 5.51.23l.58-.33a2 2 0 0 1 1-.28h.15a2.18 2.18 0 0 1 1.03 4z"/><rect class="cls-3" x="19.18" y="29.56" width="3.15" height="10.86" rx="1.57" ry="1.57"/><rect class="cls-5" x="10.05" y="28.12" width="8.39" height="11.61" rx="4.19" ry="4.19"/><rect class="cls-6" x="13.51" y="31.3" width="3.37" height="5.51" rx="1.69" ry="1.69"/><rect class="cls-5" x="23.06" y="28.12" width="8.39" height="11.61" rx="4.19" ry="4.19" transform="rotate(180 27.25 33.92)"/><rect class="cls-6" x="24.56" y="31.3" width="3.37" height="5.51" rx="1.69" ry="1.69" transform="rotate(-180 26.25 34.05)"/><path class="cls-1" d="M4.25 37l1.3-5.38a34.48 34.48 0 0 0 1-8.09v-5.6l25.9.45.43 5.46a22.57 22.57 0 0 0 1.82 7.22l2.6 6a18.09 18.09 0 0 0 .53-3.36l.47-7.78A17.54 17.54 0 0 0 20.75 7.27 17.54 17.54 0 0 0 3.24 25.86l.46 7.77A17 17 0 0 0 4.25 37z"/><path class="cls-1" d="M35.36 15.39L33 19.51a23.51 23.51 0 0 1-14 11L4.22 34.3 5.9 16.83l13.89-3.52z"/><path class="cls-1" d="M3.3 27h2.3v18.9A1.15 1.15 0 0 1 4.46 47a1.15 1.15 0 0 1-1.16-1.12V27zM36 24.5h2.3V47a1.15 1.15 0 0 1-1.15 1.15A1.15 1.15 0 0 1 36 47V24.5z"/></svg>