<svg id="Layer_3" data-name="Layer 3" xmlns="http://www.w3.org/2000/svg" viewBox="0 0 42 56"><defs><style>.cls-1{fill:#ffb49e}.cls-2{fill:#4b4b4b}.cls-3{fill:#fff}.cls-4{fill:#2d2d2d}</style></defs><circle class="cls-1" cx="35.39" cy="33.93" r="5.32"/><circle class="cls-1" cx="6.61" cy="33.93" r="5.32"/><path class="cls-2" d="M38.84 17.14v7.24A11 11 0 0 1 37.31 30L33 37.42l-4.7 8v-36h2.92a7.66 7.66 0 0 1 7.59 6.66 6.77 6.77 0 0 1 .03 1.06z"/><path class="cls-2" d="M18.33 36.24A17.26 17.26 0 0 1 1.09 19v-1.76a17.24 17.24 0 0 1 34.48 0V19a17.25 17.25 0 0 1-17.24 17.24z"/><rect class="cls-2" x="2.59" y="1.49" width="29.5" height="31.26" rx="14.75" ry="14.75"/><path class="cls-1" d="M7.07 37V21.69a13.91 13.91 0 0 1 1.85-7 14.14 14.14 0 0 1 21.14-4l.49.42.18.16c.15.15.3.28.44.43a11.17 11.17 0 0 1 1.27 1.47 14 14 0 0 1 2.87 8.51v15.14z"/><path class="cls-2" d="M37.69 29.37v12.05a8.31 8.31 0 0 1-2.31 5.78c-.2.2-.4.4-.63.59l-5.21 4.42-.42.36a12.61 12.61 0 0 1-3.27 2 12.32 12.32 0 0 1-9.3 0 12.67 12.67 0 0 1-3.22-2l-.39-.32-5.3-4.46a6.67 6.67 0 0 1-.55-.52 8.32 8.32 0 0 1-2.4-5.86v-12z"/><circle class="cls-3" cx="28.6" cy="30.51" r="6.92"/><path class="cls-4" d="M28.6 38.43a7.92 7.92 0 1 1 7.91-7.92 7.93 7.93 0 0 1-7.91 7.92zm0-13.84a5.93 5.93 0 1 0 5.92 5.92 5.93 5.93 0 0 0-5.92-5.92z"/><circle class="cls-3" cx="13.79" cy="30.51" r="6.92"/><path class="cls-4" d="M13.79 38.43a7.92 7.92 0 1 1 7.92-7.92 7.93 7.93 0 0 1-7.92 7.92zm0-13.84a5.93 5.93 0 1 0 5.93 5.92 5.93 5.93 0 0 0-5.93-5.92z"/><rect class="cls-2" x="14.97" y="28.28" width="3.53" height="5.76" rx="1.76" ry="1.76"/><rect class="cls-2" x="23.66" y="28.28" width="3.53" height="5.76" rx="1.76" ry="1.76" transform="rotate(-180 25.42 31.16)"/><rect class="cls-2" x="12.53" y="36.9" width="17.32" height="5.56" rx="2.78" ry="2.78"/><rect class="cls-1" x="18.11" y="33.45" width="6.04" height="3.9" rx="1.39" ry="1.39"/><path class="cls-2" d="M28 9.44s-2.79 12-22.87 12L6.16 9.47l15-6.75 7.78 5.48z"/><rect x="16.34" y="41.21" width="9.7" height="3.15" rx="1.58" ry="1.58" fill="#ff9c86"/></svg>