<svg viewBox="0 0 42 56" version="1.1" xmlns="http://www.w3.org/2000/svg"><g stroke="none" stroke-width="1" fill="none" fill-rule="evenodd"><g transform="translate(-25 -2)"><circle fill="#A56644" fill-rule="nonzero" cx="45.7" cy="20.502" r="16.75"/><rect fill="#FF9D8A" transform="rotate(27 59.5 35.076)" x="55" y="28.576" width="9" height="13" rx="4.5"/><rect fill="#FF9D8A" transform="scale(-1 1) rotate(27 0 -100.296)" x="28" y="28.576" width="9" height="13" rx="4.5"/><rect fill="#FFB5A1" x="36" y="22.242" width="20" height="31" rx="10"/><path d="M53.22 37.37l-7.7 3.182-7.42-3.183c-3.4-1.461-5.624-4.966-5.62-8.858v-4.944c0-3.72 1.393-7.285 3.873-9.914 2.48-2.629 5.842-4.104 9.347-4.101 3.504-.003 6.866 1.473 9.344 4.102 2.478 2.629 3.869 6.195 3.866 9.913v4.912c.004 3.922-2.252 7.448-5.69 8.89z" fill="#FFB5A1" fill-rule="nonzero"/><rect fill="#FFF" fill-rule="nonzero" x="35.68" y="23.252" width="8.32" height="11.52" rx="4.16"/><rect fill="#4B4B4B" fill-rule="nonzero" x="39.12" y="24.702" width="4" height="7" rx="2"/><rect fill="#FFF" fill-rule="nonzero" transform="rotate(-180 51.62 29.002)" x="47.46" y="23.242" width="8.32" height="11.52" rx="4.16"/><rect fill="#4B4B4B" fill-rule="nonzero" transform="rotate(-180 50.31 28.372)" x="48.31" y="24.872" width="4" height="7" rx="2"/><rect fill="#F57F69" fill-rule="nonzero" transform="rotate(180 45.695 29.767)" x="44.53" y="23.622" width="2.33" height="12.29" rx="1.165"/><path d="M48.71 35.792l-3-2.55-3 2.55a2.24 2.24 0 0 0-.79 1.71 2.24 2.24 0 0 0 2.21 2.21h3.13a2.24 2.24 0 0 0 2.24-2.24 2.24 2.24 0 0 0-.79-1.68z" fill="#F57F69" fill-rule="nonzero"/><path d="M44.5 9.242h-16a1.5 1.5 0 0 0-1.5 1.5 9.5 9.5 0 0 0 19 0 1.5 1.5 0 0 0-1.5-1.5z" fill="#A56644" fill-rule="nonzero"/><path d="M42.737 7.064l-8 13.856a1.5 1.5 0 0 0 .549 2.05 9.5 9.5 0 0 0 9.5-16.455 1.5 1.5 0 0 0-2.05.549z" fill="#A56644" fill-rule="nonzero"/><path d="M47.986 10.199L49.7 21.01c.088.56.582.947 1.103.865 3.298-.523 5.516-3.82 4.954-7.366-.561-3.546-3.69-5.997-6.988-5.474-.52.082-.87.603-.782 1.163z" fill="#A56644" fill-rule="nonzero"/><path d="M54.604 11.546l5.88.411a.55.55 0 0 0 .59-.505c.133-1.904-1.323-3.556-3.251-3.69-1.928-.136-3.6 1.298-3.732 3.201a.55.55 0 0 0 .513.583z" fill="#A56644" fill-rule="nonzero"/><path d="M53.81 10.43l-2.593-7.122c-.134-.369.044-.772.398-.901 2.24-.816 4.747.416 5.597 2.752.85 2.335-.278 4.89-2.519 5.705-.354.129-.75-.066-.884-.434z" fill="#A56644" fill-rule="nonzero"/><circle fill="#4B4B4B" cx="58.5" cy="38.076" r="2.5"/><circle fill="#4B4B4B" cx="33.5" cy="38.076" r="2.5"/><path d="M42.406 43.525a5 5 0 0 0 7.071 0" stroke="#FFF" stroke-width="3.5" stroke-linecap="round" stroke-linejoin="round"/></g></g></svg>