<svg id="Layer_3" data-name="Layer 3" xmlns="http://www.w3.org/2000/svg" viewBox="0 0 42 56"><defs><style>.cls-1{fill:#61361e}.cls-2{fill:#db8269}.cls-3{fill:#e29a82}.cls-4{fill:#fff}.cls-5{fill:#4b4b4b}.cls-6{fill:#f34848}</style></defs><path class="cls-1" d="M33.85 36.84L23.64 20l3.15-3.76 5 .07 9.65 15.89a4.43 4.43 0 0 1-1.49 6.1 4.44 4.44 0 0 1-6.1-1.46zM8.23 36.84L18.44 20l-3.16-3.76-5 .07L.65 32.23a4.43 4.43 0 0 0 1.49 6.1 4.44 4.44 0 0 0 6.09-1.49z"/><path class="cls-1" d="M11.23 43.91l9.18-17.4L17 23l-5 .37-8.61 16.4a4.42 4.42 0 0 0 1.85 6 4.44 4.44 0 0 0 5.99-1.86zM31.37 43.91l-9.18-17.4L25.56 23l5 .37 8.68 16.45a4.44 4.44 0 0 1-1.86 6 4.44 4.44 0 0 1-6.01-1.91z"/><path class="cls-1" d="M37.5 22.77V23a16.27 16.27 0 0 1-.2 2.33 16.28 16.28 0 0 1-4.7 9.12H9.53c-3-3-4.88-4-4.88-11.7a16.23 16.23 0 0 1 1.2-6.17A16.42 16.42 0 0 1 21.07 6.35a17.23 17.23 0 0 1 2.61.21A16.23 16.23 0 0 1 28.32 8h.06a14.15 14.15 0 0 1 2.18 1.31l.21.16a16.4 16.4 0 0 1 6.73 13.3z"/><circle class="cls-2" cx="8.91" cy="34.58" r="4.35"/><circle class="cls-2" cx="33.42" cy="34.58" r="4.35"/><path class="cls-3" d="M34.67 32.17v5.3a13.58 13.58 0 0 1-13.59 13.59A13.58 13.58 0 0 1 7.49 37.47V24.14c0-.94 2.91-.4 3.38-.94L11 23a12.12 12.12 0 0 1 1.37-1.31A13.65 13.65 0 0 1 26 19.49c.39.16.77.33 1.15.51a13.62 13.62 0 0 1 4.14 3.2c.31.35.88 1.11.88 1.11.23.32 2.49 1.29 2.5 2z"/><rect class="cls-4" x="9.91" y="25.21" width="8.74" height="12.09" rx="4.37" ry="4.37"/><rect class="cls-4" x="23.51" y="25.21" width="8.74" height="12.09" rx="4.37" ry="4.37" transform="rotate(180 27.88 31.255)"/><rect class="cls-5" x="25.12" y="28.68" width="3.45" height="5.63" rx="1.72" ry="1.72"/><rect class="cls-5" x="13.54" y="28.68" width="3.45" height="5.63" rx="1.72" ry="1.72"/><path class="cls-2" d="M22.25 28.18V37a1.15 1.15 0 0 1-1.15 1.15A1.16 1.16 0 0 1 19.91 37v-8.82a1.15 1.15 0 0 1 .35-.83 1.12 1.12 0 0 1 .82-.34 1.17 1.17 0 0 1 1.17 1.17z"/><path class="cls-1" d="M28.07 15.09c-.44 1.49.75 3-.36 4.5C24.24 24.25 15 30.71 5.37 30.71L5 22.53a16.42 16.42 0 0 1 15.22-10.25 17.23 17.23 0 0 1 2.61.21L27 14.55z"/><path class="cls-1" d="M37.5 26.27v.23c0 .79-.08 3.77-.2 4.53-7.61-.6-8-9.67-8.71-13.88a6 6 0 0 0-2.21-3.27l1.53-1.78.47-.35a14.91 14.91 0 0 1 2.24 1.34h.13l3.76 4.64z"/><path class="cls-6" d="M36.38 21.4C36.38 9.58 32.21 0 21.06 0 10.37 0 5.73 9.58 5.73 21.4z"/><path d="M10.69 12.44a1.17 1.17 0 0 0 0-2.33H7.52c-.27.75-.52 1.52-.73 2.33z" fill="#dd3535"/><path class="cls-6" d="M37 24.37H5.05a1.6 1.6 0 0 1-1.58-1.91l.58-7.38a2.86 2.86 0 0 1 2.85-2.64h28.24a2.66 2.66 0 0 1 2.66 2.41l.75 7.76A1.6 1.6 0 0 1 37 24.37z"/><path d="M27.07 39.85v.44a3.84 3.84 0 0 1-.09.83 3.93 3.93 0 0 1-3.84 3.1h-3.35a3.94 3.94 0 0 1-3.85-3.1 3.84 3.84 0 0 1-.09-.83v-.44a.74.74 0 0 1 .75-.74h9.73a.74.74 0 0 1 .74.74z" fill="#a14344"/><path class="cls-4" d="M27.07 39.85v.44a3.84 3.84 0 0 1-.09.83h-11a3.84 3.84 0 0 1-.09-.83v-.44a.74.74 0 0 1 .75-.74h9.73a.74.74 0 0 1 .7.74z"/><path d="M18.89 44.11a3.82 3.82 0 0 0 .9.11h3.35a3.82 3.82 0 0 0 .9-.11 2.78 2.78 0 0 0-5.15 0z" fill="#ef4a4d"/><path class="cls-3" d="M31.94 36.53a7.61 7.61 0 0 0-7.82 1.41l6.71.64zM11 36.53a7.61 7.61 0 0 1 7.82 1.41l-6.72.64z"/><rect x="22.65" y="15.47" width="10.51" height="6.41" rx="1.21" ry="1.21" fill="#dedede"/></svg>