<svg id="Layer_3" data-name="Layer 3" xmlns="http://www.w3.org/2000/svg" viewBox="0 0 42 56"><defs><style>.cls-1{fill:#dc8e70}.cls-3{fill:#fff}.cls-4{fill:#4b4b4b}.cls-5{fill:#cf7451}.cls-6{fill:#ff4b4b}.cls-10{fill:#62361b}</style></defs><circle class="cls-1" cx="36.1" cy="32.3" r="5.69"/><circle class="cls-1" cx="5.79" cy="32.3" r="5.69"/><path class="cls-1" d="M37 13.94v27.52a4.11 4.11 0 0 1-1.81 3.4l-6.75 4.54a13.24 13.24 0 0 1-14.77 0l-6.78-4.54a4.11 4.11 0 0 1-1.81-3.4V13.94z"/><path d="M37 37.15v4.3a4.11 4.11 0 0 1-1.81 3.4l-6.77 4.54a13.24 13.24 0 0 1-14.77 0l-6.76-4.54a4.11 4.11 0 0 1-1.81-3.4v-4.3z" fill="#b8725c"/><rect class="cls-3" x="9.88" y="23.68" width="8.96" height="12.4" rx="4.48" ry="4.48"/><rect class="cls-4" x="13.58" y="27.08" width="3.6" height="5.88" rx="1.8" ry="1.8"/><rect class="cls-3" x="23.38" y="23.68" width="8.96" height="12.4" rx="4.48" ry="4.48" transform="rotate(-180 27.855 29.885)"/><rect class="cls-4" x="25.04" y="27.08" width="3.6" height="5.88" rx="1.8" ry="1.8" transform="rotate(-180 26.835 30.02)"/><rect class="cls-5" x="19.13" y="24.05" width="3.84" height="13.3" rx="1.86" ry="1.86"/><circle class="cls-5" cx="21.05" cy="35.99" r="3.12"/><path class="cls-6" d="M18.9 0H23a1.52 1.52 0 0 1 1.52 1.52v2.84h-7.14V1.52A1.52 1.52 0 0 1 18.9 0z"/><path d="M38 20.65v-7.77a4.65 4.65 0 0 0-2.32-4l-9.75-5.65a9.91 9.91 0 0 0-9.91 0L6.27 8.86a4.64 4.64 0 0 0-2.33 4v7.76A1.42 1.42 0 0 0 6 21.89h29.91A1.42 1.42 0 0 0 38 20.65z" fill="#e92b2b"/><path d="M15.63 11h10.18a1.65 1.65 0 0 1 1.65 1.65v7H14v-7A1.65 1.65 0 0 1 15.63 11z" fill="#ddd"/><path d="M28.76 41.73l-.47.52c-.17.19-.35.37-.53.54A10.27 10.27 0 0 1 24 45a9.73 9.73 0 0 1-2 .41 10.13 10.13 0 0 1-2.52 0l-.27-.05c-.39-.07-.77-.16-1.16-.27a2.29 2.29 0 0 1-1.52-2.84 2.32 2.32 0 0 1 .24-.53 2.26 2.26 0 0 1 1.06-.92.67.67 0 0 1 .15-.06 1.78 1.78 0 0 1 .33-.09 2.66 2.66 0 0 1 .69 0l.34.08a5.61 5.61 0 0 0 1.13.21 5.48 5.48 0 0 0 2.05-.25 3.39 3.39 0 0 0 .53-.2 5.34 5.34 0 0 0 1.86-1.31l.46-.52a1.57 1.57 0 0 1 .19-.18 1.92 1.92 0 0 1 .42-.28l.23-.1h.08a.09.09 0 0 1 .07 0 2.17 2.17 0 0 1 1-.08 1.8 1.8 0 0 1 .55.15 2.29 2.29 0 0 1 .71.43 2.26 2.26 0 0 1 .14 3.13z" fill="#a54140"/><path class="cls-3" d="M28.76 41.73h-12a2.26 2.26 0 0 1 1.06-.92.67.67 0 0 1 .15-.06 1.78 1.78 0 0 1 .33-.09 2.66 2.66 0 0 1 .69 0l.34.07a6.27 6.27 0 0 0 1.13.22 5.48 5.48 0 0 0 2.05-.25 3.39 3.39 0 0 0 .53-.2 5.34 5.34 0 0 0 1.86-1.31l.46-.52a1.57 1.57 0 0 1 .19-.18 1.92 1.92 0 0 1 .42-.28l.23-.1h.08a.09.09 0 0 1 .07 0 2.17 2.17 0 0 1 1-.08 1.8 1.8 0 0 1 .55.15 2.29 2.29 0 0 1 .71.43 2.26 2.26 0 0 1 .15 3.12z"/><rect class="cls-6" x="-.04" y="19.68" width="42.04" height="2.92" rx="1.46" ry="1.46"/><path class="cls-10" d="M3.94 22.6h2.5v10.62a1.25 1.25 0 0 1-1.25 1.25 1.25 1.25 0 0 1-1.25-1.25V22.6zM35.51 22.6H38v10.62a1.25 1.25 0 0 1-1.25 1.25 1.25 1.25 0 0 1-1.25-1.25V22.6h.01z"/></svg>