<svg viewBox="0 0 42 56" version="1.1" xmlns="http://www.w3.org/2000/svg"><g stroke="none" stroke-width="1" fill="none" fill-rule="evenodd"><g><path d="M17.403 43.243h8.32a2.5 2.5 0 1 1 0 5h-8.32a2.5 2.5 0 1 1 0-5z" fill="#3D3D3D"/><path d="M23.311 0h6.018c6.163 0 11.16 4.997 11.16 11.16v6.903a8.589 8.589 0 1 1-17.178 0V0z" fill="#FF4B4B"/><path d="M34.015 18.446h6.41v5.76c0 10.935-8.865 19.8-19.8 19.8h-6.39l-.02-5.69c-.038-10.936 8.795-19.832 19.73-19.87h.07z" fill="#FF4B4B"/><path d="M1.38 54.962c5.846 2.482 12.597-.246 15.079-6.092l8.205-19.33a.5.5 0 0 0-.265-.656c-5.846-2.482-12.597.246-15.08 6.092l-8.204 19.33a.5.5 0 0 0 .264.656z" fill="#FF4B4B" fill-rule="nonzero"/><path d="M30.397 23.923l-6.694-2.929c-4.228-1.795-8.975-.013-10.637 3.903L6.534 40.286c-.126.297.034.648.356.781l.255.106c7.917 3.206 16.638-.065 19.731-7.351l3.871-9.12c.125-.295-.031-.644-.35-.779z" fill="#47D7FF" fill-rule="nonzero"/><path d="M23.715 20.999l7.29 3.095-1.898 4.473c-2.72 6.406-10.116 9.394-16.522 6.675l-3.314-1.406 3.587-8.45a8.28 8.28 0 0 1 10.857-4.387z" fill="#FFD900"/><path d="M24.679 18.842l7.774 3.305-1.193 2.772c-2.35 5.463-8.673 7.998-14.146 5.672l-5.464-2.323 2.184-5.078a8.28 8.28 0 0 1 10.845-4.348z" fill="#FF4B4B"/><path d="M23.226 18.453a9.226 9.226 0 1 0 0-18.453v18.453z" fill="#EBE3E3"/><path d="M23.31 0v9.31h-9.309L14 9.226A9.226 9.226 0 0 1 23.226 0h.085z" fill="#FFD900"/><path d="M27.817 4.655a4.232 4.232 0 0 1 4.233 4.233v.43a4.232 4.232 0 0 1-8.465 0v-.43a4.232 4.232 0 0 1 4.232-4.233z" fill="#FFF"/><path d="M28.726 6.036a2.23 2.23 0 0 1 2.23 2.23v.54a2.23 2.23 0 1 1-4.46 0v-.54c0-.055.003-.11.006-.163a1.25 1.25 0 0 0 1.46-1.934c.24-.086.496-.133.764-.133z" fill="#4B4B4B"/><path d="M23.311 12.685c1.286-1.117 2.795-1.823 4.528-2.116 1.733-.293 3.137-.293 4.21 0a5.649 5.649 0 0 1-5.527 4.486H23.31v-2.37z" fill="#EBE3E3"/><path d="M23.31 9.31v9.141l-.084.002a9.226 9.226 0 0 1-9.222-8.96l-.002-.183h9.308z" fill="#4B4B4B"/></g></g></svg>