<svg id="Layer_3" data-name="Layer 3" xmlns="http://www.w3.org/2000/svg" viewBox="0 0 42 56"><defs><style>.cls-1{fill:#62361b}.cls-3{fill:#dc8e70}.cls-6{fill:#2d2d2d}.cls-7{fill:#fff}</style></defs><circle class="cls-1" cx="20.94" cy="11.18" r="11.18"/><circle class="cls-1" cx="20.94" cy="11.18" r="8.68"/><circle cx="20.94" cy="19.9" r="12.83" fill="#6f4ba2"/><circle class="cls-3" cx="5.66" cy="39" r="5.67"/><circle class="cls-3" cx="36.31" cy="39" r="5.67"/><circle class="cls-1" cx="21.05" cy="29.15" r="18.45"/><rect class="cls-3" x="4.81" y="19.17" width="32.48" height="35.47" rx="16.24" ry="16.24"/><rect x="18.84" y="33.26" width="4.43" height="11.34" rx="2.21" ry="2.21" fill="#cf7451"/><path d="M19.74 48.64a25.93 25.93 0 0 1-3-.19 1 1 0 0 1 .25-2c6.51.81 9.37-1.39 9.4-1.41a1 1 0 0 1 1.4.15 1 1 0 0 1-.14 1.4c-.15.11-2.58 2.05-7.91 2.05z" fill="#b8725c"/><path class="cls-6" d="M29.41 32.22h3.49a1.33 1.33 0 0 1 1.33 1.33V35a5.65 5.65 0 0 1-5.65 5.65h-3.49a1.33 1.33 0 0 1-1.33-1.33v-1.45a5.65 5.65 0 0 1 5.65-5.65z" transform="rotate(-180 29 36.435)"/><path class="cls-7" d="M32.91 35.4v.46a5.65 5.65 0 0 1-5.65 5.64h-2.49a1.33 1.33 0 0 1-1.33-1.33v-.45a5.65 5.65 0 0 1 5.48-5.64h2.66a1.34 1.34 0 0 1 1.33 1.32z"/><path class="cls-6" d="M9.07 32.22h3.49a5.65 5.65 0 0 1 5.65 5.65v1.45a1.33 1.33 0 0 1-1.33 1.33h-3.5A5.65 5.65 0 0 1 7.74 35v-1.45a1.33 1.33 0 0 1 1.33-1.33z"/><path class="cls-7" d="M18.53 39.72v.45a1.33 1.33 0 0 1-1.33 1.33h-2.5a5.65 5.65 0 0 1-5.64-5.64v-.46a1.33 1.33 0 0 1 1.33-1.33h2.66a5.64 5.64 0 0 1 5.48 5.64z"/><path class="cls-6" d="M16.81 35.26v1.87a2.08 2.08 0 0 1-4.15 0V33.3c0-.46 3.17 1.01 4.15 1.96zM29.31 33.3v3.83a2.08 2.08 0 0 1-4.15 0v-1.86c.98-.96 4.15-2.43 4.15-1.97z"/></svg>