<?xml version="1.0" encoding="UTF-8" standalone="no"?><!DOCTYPE svg PUBLIC "-//W3C//DTD SVG 1.1//EN" "http://www.w3.org/Graphics/SVG/1.1/DTD/svg11.dtd"><svg width="100%" height="100%" viewBox="0 0 512 512" version="1.1" xmlns="http://www.w3.org/2000/svg" xmlns:xlink="http://www.w3.org/1999/xlink" xml:space="preserve" xmlns:serif="http://www.serif.com/" style="fill-rule:evenodd;clip-rule:evenodd;stroke-linejoin:round;stroke-miterlimit:2;"><g id="Hintergrund"><path d="M96,149l318,1c8,0 13,8 13,13l0,207c0,6 -5,12 -12,12l-125,0c0,13 -16,19 -35,19c-19,0 -35,-6 -35,-19l-125,0c-6,0 -12,-4 -12,-11l0,-209c0,-5 5,-13 13,-13Z" style="fill:#1caff5;"/><path d="M255,364c-9,0 -10,-28 -23,-28l-101,0c-8,0 -12,-3 -12,-11l0,-199c0,-5 5,-12 11,-12l90,0c22,0 30,15 35,15c4,0 13,-15 35,-15c30,0 73,1 90,0c8,0 13,3 13,12c0,10 -1,101 -1,197c0,8 -5,13 -13,13l-101,0c-13,0 -14,28 -23,28Z" style="fill:#e6f5fc;"/><path d="M152,114c0,-4 2,-6 7,-6l46,0c3,0 7,0 7,7l0,94c0,1 -2,2 -3,2c-10,0 -18,-8 -27,-13c-10,6 -18,14 -27,14c-1,0 -3,0 -3,-2l0,-96Z" style="fill:#f04747;"/><path d="M248,357l0,-216c0,-9 13,-9 13,0l0,216c-4,10 -9,10 -13,0Z" style="fill:#b5e4fb;"/></g></svg>