<svg viewBox="0 0 135 124" fill="none" xmlns="http://www.w3.org/2000/svg"><g clip-path="url(#clip0)"><path d="M11 28.073c0-9.389 7.611-17 17-17h79c9.389 0 17 7.611 17 17v79c0 9.389-7.611 17-17 17H28c-9.389 0-17-7.611-17-17v-79z" fill="#E5E5E5"/><path d="M1.545 45.933C.072 35.17 7.603 25.253 18.365 23.78l22.482-3.076C51.61 19.232 61.527 26.763 63 37.525c1.473 10.76-6.058 20.678-16.82 22.15l-22.483 3.077c-10.761 1.473-20.679-6.058-22.151-16.82z" fill="#959595"/><path d="M63.184 40.177c.018 9.694-7.134 18.148-17.004 19.499l-22.483 3.076c-9.87 1.35-19.03-4.872-21.616-14.215l61.102-8.36z" fill="#D8D8D8"/><path d="M10.606 47.37l4.123-.563a5.11 5.11 0 0 0 4.37-5.755l-.76-5.557 25.68-3.513.76 5.556a5.11 5.11 0 0 0 5.755 4.37l4.592-.629a18.903 18.903 0 0 1 2.99 7.929l1.739 12.715a6.717 6.717 0 0 1-5.744 7.566L19.16 74.27a6.717 6.717 0 0 1-7.565-5.744l-1.74-12.715a18.902 18.902 0 0 1 .75-8.44z" fill="#D1D1D1"/><path d="M37.391 9.301a9.468 9.468 0 0 1-8.097 10.664 9.468 9.468 0 0 1-10.664-8.097 9.468 9.468 0 1 1 18.761-2.567z" fill="#959595"/><path d="M21.868 45.773a5.079 5.079 0 1 1 10.064-1.377l.425 3.104a5.079 5.079 0 0 1-10.064 1.377l-.425-3.104zM43.849 42.765a5.079 5.079 0 0 0-10.064 1.377l.425 3.105a5.079 5.079 0 0 0 10.064-1.377l-.425-3.105z" fill="#fff"/><path d="M26.286 45.227a1.666 1.666 0 0 0 1.279-2.37 2.29 2.29 0 0 1 2.996 1.859l.39 2.845a2.287 2.287 0 0 1-4.534.62l-.389-2.845a2.561 2.561 0 0 1-.01-.094c.088.002.178-.003.268-.015zM35.45 43.973a1.666 1.666 0 0 0 1.279-2.37 2.288 2.288 0 0 1 2.996 1.858l.389 2.846a2.287 2.287 0 1 1-4.533.62l-.389-2.845a2.383 2.383 0 0 1-.01-.094c.088.002.178-.003.268-.015z" fill="#959595"/><path fill-rule="evenodd" clip-rule="evenodd" d="M16.22 47.969a.547.547 0 0 1 .673-.385l3.826 1.042a.547.547 0 0 1 .151.99l-3.387 2.167a.548.548 0 0 1-.59-.922l2.347-1.503-2.635-.717a.548.548 0 0 1-.384-.672zM49.879 43.363a.547.547 0 0 0-.75-.19l-3.406 2.032a.548.548 0 0 0 .12.994l3.845 1.178a.547.547 0 0 0 .32-1.047l-2.665-.817 2.346-1.399a.547.547 0 0 0 .19-.75z" fill="silver"/><path d="M35.328 62.317c-2.097 1.568-5.324 2.595-8.954 2.64-6.377.082-11.585-2.894-11.632-6.646-.048-3.752 5.083-6.86 11.46-6.94 3.026-.038 5.788.611 7.862 1.706 1.703-1.611 4.19-2.98 7.115-3.755 6.164-1.635 11.94-.02 12.903 3.606.962 3.627-3.256 7.893-9.42 9.528-3.51.93-6.893.808-9.334-.14z" fill="#D1D1D1"/><path fill-rule="evenodd" clip-rule="evenodd" d="M23.669 38.502a1.642 1.642 0 0 1 .902-2.14 28.858 28.858 0 0 1 14.146-1.935 1.642 1.642 0 0 1-.375 3.263c-4.25-.488-8.57.103-12.534 1.714a1.642 1.642 0 0 1-2.14-.902z" fill="#959595"/><path d="M23.883 54.21a.898.898 0 0 1 1.18-.709l1.859.64a34.171 34.171 0 0 0 11.757 1.86l1.965-.035c.559-.01.991.486.904 1.038l-.427 2.702a8.942 8.942 0 1 1-17.665-2.794l.427-2.702z" fill="#959595"/><path fill-rule="evenodd" clip-rule="evenodd" d="M44.865 57.529l-.427 2.701c-1.062 6.71-7.361 11.29-14.072 10.228-6.71-1.06-11.289-7.36-10.227-14.07l.427-2.703a4.257 4.257 0 0 1 5.591-3.359l1.859.64a30.815 30.815 0 0 0 10.602 1.678l1.965-.036a4.257 4.257 0 0 1 4.282 4.92zM25.063 53.5a.898.898 0 0 0-1.18.709l-.427 2.702a8.942 8.942 0 0 0 17.665 2.794l.427-2.702a.898.898 0 0 0-.904-1.038L38.68 56a34.174 34.174 0 0 1-11.757-1.86l-1.859-.64z" fill="#D1D1D1"/><path d="M41.364 56.304a.895.895 0 0 0-.72-.338L38.68 56a34.174 34.174 0 0 1-11.757-1.86l-1.859-.64a.898.898 0 0 0-1.18.71l-.427 2.7a8.952 8.952 0 0 0-.055 2.404c.306.244.708.367 1.127.31l1.845-.253a1.489 1.489 0 0 0 1.24-1.106c.293.51.874.817 1.492.732l1.845-.252a1.489 1.489 0 0 0 1.24-1.106 1.49 1.49 0 0 0 1.492.732l1.845-.253a1.489 1.489 0 0 0 1.24-1.105c.294.509.875.816 1.492.732l1.845-.253a1.49 1.49 0 0 0 1.26-1.189z" fill="#fff"/><path d="M36.647 66.118a8.904 8.904 0 0 1-5.756 1.023 8.922 8.922 0 0 1-6.224-4.153 8.57 8.57 0 0 1 11.98 3.129z" fill="#B3B3B3"/><path d="M33.283 47.372c.11-.015 1.294 1.396 2.505 2.88 1.206 1.476.318 3.69-1.57 3.948-1.89.259-3.339-1.635-2.574-3.382.768-1.754 1.529-3.43 1.639-3.446z" fill="#959595"/><path fill-rule="evenodd" clip-rule="evenodd" d="M41.446 66.38c.23.196.259.541.063.772-2.633 3.105-6.32 3.324-7.877 3.035a.547.547 0 0 1 .2-1.077c1.289.24 4.532.058 6.842-2.666a.547.547 0 0 1 .772-.064z" fill="silver"/><path d="M73.046 27.814c1.313-8.772 9.488-14.818 18.26-13.505l9.195 1.376c8.772 1.313 14.818 9.489 13.505 18.26l-.054.36c-1.313 8.772-9.489 14.818-18.26 13.505l-9.195-1.376c-8.772-1.313-14.818-9.488-13.505-18.26l.054-.36z" fill="#959595"/><path d="M70.35 48.18a4.805 4.805 0 0 0 1.644-.036c.003 7.468 5.466 14.012 13.076 15.15l23.716 3.551c7.635 1.143 14.796-3.548 16.961-10.728a4.815 4.815 0 1 0 1.063-8.755c-.568-6.94-5.84-12.835-13.025-13.91L90.069 29.9c-7.157-1.071-13.897 2.984-16.496 9.409a4.814 4.814 0 1 0-3.223 8.871z" fill="#D1D1D1"/><path fill-rule="evenodd" clip-rule="evenodd" d="M104.422 61.421c-1.055.515-1.645 1.376-1.858 1.955a.981.981 0 0 1-1.842-.678c.369-1.002 1.281-2.28 2.839-3.04 1.589-.777 3.735-.96 6.453.053a.981.981 0 0 1-.685 1.84c-2.307-.86-3.884-.63-4.907-.13z" fill="#959595"/><path d="M126.346 44.678l-7.994-1.197a5.71 5.71 0 0 1-4.802-6.492l.523-3.492c6.096 1.029 10.768 5.54 12.273 11.181z" fill="#BFBFBF"/><path d="M73.11 48.946a2.32 2.32 0 1 1-4.59-.687 2.32 2.32 0 0 1 4.59.687zM99.508 48.803c.107.016.831 1.665 1.56 3.39.726 1.716-.714 3.55-2.558 3.274-1.843-.276-2.684-2.451-1.487-3.88 1.203-1.436 2.377-2.8 2.485-2.784z" fill="#959595"/><path d="M101.544 41.706a5.354 5.354 0 0 1 6.087-4.501l.197.03a5.352 5.352 0 0 1 4.501 6.086l-.819 5.474a5.354 5.354 0 0 1-6.087 4.502l-.197-.03a5.352 5.352 0 0 1-4.501-6.086l.819-5.475zM99.556 41.409a5.353 5.353 0 0 0-4.502-6.087l-.197-.03a5.353 5.353 0 0 0-6.086 4.502l-.82 5.475a5.353 5.353 0 0 0 4.502 6.086l.197.03a5.353 5.353 0 0 0 6.086-4.502l.82-5.474z" fill="#fff"/><path d="M102.895 44.947a2.456 2.456 0 0 1 4.858.727l-.356 2.377a2.456 2.456 0 0 1-4.858-.727l.356-2.377zM97.315 44.111a2.456 2.456 0 0 0-4.858-.727l-.355 2.377a2.456 2.456 0 0 0 4.857.727l.356-2.377z" fill="#959595"/><path d="M111.507 48.812l-10.785-1.615.003-.016.819-5.475a5.354 5.354 0 0 1 6.087-4.501l.197.03a5.352 5.352 0 0 1 4.501 6.086l-.819 5.474-.003.017zM87.949 45.285L98.734 46.9l.002-.017.82-5.474a5.353 5.353 0 0 0-4.502-6.087l-.197-.03a5.353 5.353 0 0 0-6.086 4.502l-.82 5.475-.002.016z" fill="#BFBFBF"/><path d="M72.837 29.209c.992-6.627 7.17-11.196 13.797-10.204l.897.135c6.627.992 11.195 7.169 10.203 13.796l-.134.897c-.992 6.627-7.17 11.196-13.796 10.203l-.897-.134c-6.628-.992-11.196-7.169-10.204-13.796l.134-.897zM75.174 112.075l-15.726.988a1.313 1.313 0 0 0-1.229 1.393l.043.678a1.312 1.312 0 0 0 1.393 1.228l15.727-.987a1.314 1.314 0 0 0 1.228-1.393l-.043-.678a1.314 1.314 0 0 0-1.392-1.229z" fill="#959595"/><path fill-rule="evenodd" clip-rule="evenodd" d="M33.537 77.59l62.908-3.948a1.313 1.313 0 0 1 1.393 1.228l2.197 34.991a1.314 1.314 0 0 1-1.229 1.393l-62.907 3.95a1.314 1.314 0 0 1-1.393-1.229l-2.197-34.991a1.313 1.313 0 0 1 1.228-1.393z" fill="#A7A6A6"/><path d="M84.514 114.139l-34.075 2.139a1.313 1.313 0 0 0-1.228 1.393l.042.678c.046.724.67 1.274 1.393 1.228l34.075-2.139a1.313 1.313 0 0 0 1.229-1.393l-.043-.678a1.312 1.312 0 0 0-1.393-1.228z" fill="#A7A6A6"/><path d="M94.645 76.404l-58.976 3.703a.657.657 0 0 0-.614.696l1.947 31.024a.657.657 0 0 0 .697.614l58.976-3.703a.656.656 0 0 0 .614-.696L95.34 77.019a.656.656 0 0 0-.696-.615z" fill="#D1D1D1"/><path d="M65.291 80.397l3.829 7.435 10.024-6.418-4.117 7.763 14.493-3.26-10.959 6.011 15.08.77-14.865 2.65 11.625 4.594-14.788-1.423 5.056 7.188-10.748-5.114-2.869 7.855-3.829-7.434-10.024 6.417 4.117-7.763-14.493 3.261 10.959-6.012-15.08-.77 14.865-2.65-11.625-4.594 14.788 1.423-5.056-7.187 10.748 5.113 2.869-7.855z" fill="#fff"/><path d="M54.723 101.981a2.938 2.938 0 0 1-.26-4.147l1.74-1.974a2.938 2.938 0 0 1 4.148-.26l4.722 4.164a.98.98 0 0 1 .087 1.382l-4.332 4.913a.98.98 0 0 1-1.383.087l-4.722-4.165z" fill="#A6A6A6"/><path d="M59.437 104.342a1.233 1.233 0 0 1-.11-1.74l2.216-2.512a1.233 1.233 0 1 1 1.85 1.631l-2.216 2.512c-.45.511-1.23.56-1.74.109z" fill="#D1D1D1"/><path d="M55.003 102.228l5.628-6.382 2.158 1.903-5.628 6.382-2.158-1.903z" fill="#959595"/><path d="M46.358 98.493a4.897 4.897 0 0 1-.838-7.233l2.473-2.804a3.428 3.428 0 0 1 4.838-.304l8.472 7.471a1.47 1.47 0 0 1 .13 2.074l-3.903 4.427a3.918 3.918 0 0 1-5.206.603l-5.966-4.234z" fill="#A6A6A6"/><path d="M52.603 94.81a2.938 2.938 0 0 1-.26-4.148l1.618-1.836a2.938 2.938 0 0 1 4.655.323l2.873 5.202a2.938 2.938 0 0 1-.247 3.564l-.296.335a2.938 2.938 0 0 1-4.147.26l-4.196-3.7z" fill="#A6A6A6"/><path d="M52.831 88.152a3.476 3.476 0 0 0-.209-.17 4.927 4.927 0 0 0-2.298 2.263.49.49 0 1 0 .877.436c.331-.668.825-1.201 1.41-1.575-.397 1.023-.09 2.247.795 3.028l1.233 1.087a.49.49 0 1 0 .647-.735L54.054 91.4c-.757-.667-.827-1.74-.253-2.392l-.735-.648-.04-.036-.195-.171z" fill="#959595"/><path d="M79.075 100.453a2.939 2.939 0 0 0-.26-4.148l-1.975-1.74a2.938 2.938 0 0 0-4.147.26l-4.165 4.722a.979.979 0 0 0 .087 1.382l4.913 4.333a.98.98 0 0 0 1.382-.087l4.165-4.722z" fill="#A6A6A6"/><path d="M74.694 103.385c.45-.511.401-1.29-.11-1.741l-2.512-2.215a1.233 1.233 0 1 0-1.63 1.85l2.511 2.215c.511.45 1.29.401 1.74-.109z" fill="#D1D1D1"/><path d="M78.828 100.733l-6.382-5.628-1.903 2.157 6.382 5.628 1.903-2.157z" fill="#959595"/><path d="M86.938 95.945a4.897 4.897 0 0 0-.073-7.28L84.06 86.19a3.428 3.428 0 0 0-4.838.304l-7.471 8.472a1.47 1.47 0 0 0 .13 2.074l4.427 3.904a3.919 3.919 0 0 0 5.24-.052l5.39-4.948z" fill="#A6A6A6"/><path d="M80.281 93.072a2.938 2.938 0 0 0-.26-4.147l-1.836-1.62a2.938 2.938 0 0 0-4.578.903l-2.2 5.52a2.938 2.938 0 0 0 .692 3.505l.334.295a2.938 2.938 0 0 0 4.148-.26l3.7-4.196z" fill="#A6A6A6"/><path d="M79.222 86.495c.06-.068.122-.133.186-.195 1.014.335 1.927 1 2.564 1.958a.49.49 0 1 1-.816.542 3.946 3.946 0 0 0-1.597-1.386c.522.965.372 2.218-.41 3.104l-1.086 1.232a.49.49 0 1 1-.735-.647l1.087-1.233c.668-.757.603-1.83-.048-2.405l.648-.734.036-.041.171-.195z" fill="#959595"/><path fill-rule="evenodd" clip-rule="evenodd" d="M15.476 96.015a1 1 0 0 1 1-1H27.85a1 1 0 1 1 0 2H16.476a1 1 0 0 1-1-1zM72.754 60.334a1 1 0 0 1 .827 1.146l-1.814 11.23a1 1 0 0 1-1.975-.32l1.815-11.229a1 1 0 0 1 1.147-.827zM117.579 96.015a1 1 0 0 0-1-1h-11.375a1 1 0 0 0 0 2h11.375a1 1 0 0 0 1-1zM19.92 107.17a1 1 0 0 1 .35-1.371l6.793-4.029a1 1 0 1 1 1.02 1.72l-6.792 4.029a1 1 0 0 1-1.37-.349zM113.134 107.17a1 1 0 0 0-.35-1.371l-6.792-4.029a1 1 0 1 0-1.02 1.72l6.792 4.029a1 1 0 0 0 1.37-.349zM19.92 84.86a1 1 0 0 0 .35 1.37l6.793 4.03a1 1 0 1 0 1.02-1.72l-6.792-4.03a1 1 0 0 0-1.37.35zM63.451 64.019a1 1 0 0 0-.722 1.216l1.952 7.652a1 1 0 1 0 1.938-.494l-1.952-7.653a1 1 0 0 0-1.216-.721zM113.134 84.86a1 1 0 0 1-.35 1.37l-6.792 4.03a1 1 0 1 1-1.02-1.72l6.792-4.03a1 1 0 0 1 1.37.35z" fill="#fff"/><path opacity=".25" d="M62.941 78.395l-12.884 33.27-12.358.776a.657.657 0 0 1-.697-.614l-1.948-31.024a.657.657 0 0 1 .615-.696l27.273-1.712zM62.64 110.875l12.884-33.27 14.914-.936-12.884 33.27-14.914.936z" fill="#fff"/></g><defs><clipPath id="clip0"><path fill="#fff" d="M0 0h135v124H0z"/></clipPath></defs></svg>