<svg viewBox="0 0 135 124" fill="none" xmlns="http://www.w3.org/2000/svg"><path d="M11 28c0-9.389 7.611-17 17-17h79c9.389 0 17 7.611 17 17v79c0 9.389-7.611 17-17 17H28c-9.389 0-17-7.611-17-17V28z" fill="#9069CD"/><path d="M84.647 47.7c.36.807-.429 1.65-1.258 1.345l-7.186-2.64a1 1 0 0 1-.385-1.623l4.076-4.354a1 1 0 0 1 1.644.277l3.11 6.995zM50.784 104.106c1.763-.124 2.808 1.932 1.67 3.284l-3.549 4.209a2 2 0 0 1-3.312-.383l-1.943-3.824a2 2 0 0 1 1.643-2.901l5.491-.385z" fill="#25B7F8"/><path d="M93.848 39.664c-.83 1.56-3.128 1.356-3.67-.326l-2.419-7.515a2 2 0 0 1 2.081-2.605l6.127.544a2 2 0 0 1 1.589 2.932l-3.708 6.97z" fill="#47D7FF"/><path d="M100.197 47.72c-.69.553-1.705.005-1.621-.874l.413-4.354a1 1 0 0 1 1.47-.786l2.999 1.618a1 1 0 0 1 .151 1.66l-3.412 2.736z" fill="#25B7F8"/><path d="M93.466 51.104c-.189-1.11-1.784-1.11-1.972 0l-1.646 9.69a1 1 0 0 1-1.725.507L81.5 54.038c-.758-.832-2.1.03-1.658 1.066l3.854 9.041a1 1 0 0 1-1.177 1.359l-9.498-2.528c-1.088-.29-1.75 1.16-.82 1.793l8.131 5.523a1 1 0 0 1-.256 1.78l-9.357 3.008c-1.072.344-.845 1.922.28 1.951l9.826.25a1 1 0 0 1 .747 1.636l-6.245 7.59c-.716.869.329 2.074 1.291 1.49l8.401-5.102a1 1 0 0 1 1.512.972l-1.15 9.76c-.132 1.119 1.398 1.568 1.892.556l4.309-8.834a.985.985 0 0 1 .796-.556l6.375 13.813 8.625-1.25 6-18.875-3.906-1.335 4.49-.115c1.125-.028 1.352-1.607.28-1.951l-9.357-3.009a1 1 0 0 1-.256-1.779l8.131-5.523c.931-.632.269-2.083-.819-1.793l-9.498 2.528a1 1 0 0 1-1.177-1.359l3.854-9.041c.441-1.036-.9-1.898-1.659-1.066L96.836 61.3a1 1 0 0 1-1.724-.506l-1.646-9.69z" fill="#BCA5E1"/><path d="M84.838 71.584l4.158 10.472a3.62 3.62 0 0 0 2.727 2.227l7.823 1.396a3.62 3.62 0 0 1 2.589 1.922l5.886 11.568c-1.433 6.996-7.335 12.126-14.308 12.715a2.927 2.927 0 0 1-.056 1.786l-.454 1.279a2.94 2.94 0 0 1-3.753 1.79l-14.923-5.287a2.94 2.94 0 0 1-1.79-3.753l.453-1.28a2.938 2.938 0 0 1 2.116-1.884c-3.52-4.198-4.791-10.097-2.83-15.635a16 16 0 0 1 1.55-3.194c3.006-4.764 6.61-9.47 10.812-14.122z" fill="#47D7FF"/><path d="M71.566 94.853l32.381 12.112a15.924 15.924 0 0 0 4.074-7.795L102.136 87.6a3.62 3.62 0 0 0-2.59-1.921l-7.822-1.397a3.619 3.619 0 0 1-2.727-2.227l-4.159-10.471c-4.202 4.65-7.805 9.358-10.811 14.121a15.995 15.995 0 0 0-1.55 3.195 15.957 15.957 0 0 0-.91 5.952zM93.84 111.873l-19.102-7.145c-.698.32-1.27.911-1.547 1.692l-.453 1.279a2.94 2.94 0 0 0 1.79 3.753l14.923 5.287a2.94 2.94 0 0 0 3.753-1.79l.453-1.279a2.927 2.927 0 0 0 .057-1.786l.126-.011z" fill="#25B7F8"/><path d="M94.95 66.85c3.89-2.034 8.045-3.942 12.463-5.724l-1.3-9.984a2.352 2.352 0 0 1 3.829-2.118l18.806 15.506a2.352 2.352 0 0 1-1.35 4.163l-10.048.626c-2.576 13.585-5.65 23.919-9.222 31.002-.428.847-.92 1.641-1.468 2.377l-1.254-16.833a3.62 3.62 0 0 0-2.011-2.977l-5.41-2.664a3.618 3.618 0 0 1-2.002-2.892L94.95 66.849z" fill="#47D7FF"/><path d="M95.158 68.962l.825 8.37a3.619 3.619 0 0 0 2.002 2.892l5.411 2.664a3.618 3.618 0 0 1 2.01 2.977l1.255 16.833a16.189 16.189 0 0 0 1.467-2.377c2.103-4.17 4.033-9.466 5.791-15.89l-18.76-15.469zM127.527 68.681a2.34 2.34 0 0 1-.129.012l-10.048.626-.058.304-10.165-8.381.286-.116-1.3-9.984c-.005-.043-.01-.085-.013-.128l21.427 17.667z" fill="#25B7F8"/><path fill-rule="evenodd" clip-rule="evenodd" d="M5.815 39.25C4.364 21.787 17.343 6.456 34.804 5.005c17.461-1.452 32.792 11.527 34.243 28.989l.054.642c1.45 17.46-11.528 32.792-28.99 34.243C22.652 70.331 7.32 57.352 5.869 39.891l-.053-.642z" fill="#0084C2"/><path d="M52.524 8.712L23.437 37.798l2.164 2.164 29.614-29.614a31.828 31.828 0 0 0-2.691-1.636z" fill="#006AAD"/><path fill-rule="evenodd" clip-rule="evenodd" d="M16.521 41.772l19.93-16.704 22.118 13.21 3.893 46.844-42.048 3.494-3.893-46.844z" fill="#C6775C"/><path fill-rule="evenodd" clip-rule="evenodd" d="M23.993 56.51l.06-.006-.298-3.581c.185-.016.495-.002.714.01.295.014.694.04 1.173.08.956.083 2.247.228 3.672.475 2.773.481 6.347 1.396 8.85 3.193l-2.096 2.92c-1.803-1.295-4.687-2.107-7.368-2.572a39.992 39.992 0 0 0-3.365-.435 29.51 29.51 0 0 0-1.044-.072c-.215-.011-.298-.011-.298-.013z" fill="#C6775C"/><path fill-rule="evenodd" clip-rule="evenodd" d="M8.486 79.184c-.836-10.06 6.642-18.893 16.702-19.729l27.604-2.294c10.06-.836 18.893 6.642 19.73 16.702.835 10.06-6.642 18.893-16.702 19.73l-27.605 2.293c-10.06.836-18.893-6.642-19.729-16.702z" fill="#3D3D3D"/><path fill-rule="evenodd" clip-rule="evenodd" d="M16.986 70.525c-1.693-1.147 1.91-10.87 7.47-11.333 5.562-.462 17.648 9.634 15.57 12.35-2.078 2.715-3.41-1.954-14.686-1.712-6.398.532-6.661 1.841-8.354.695z" fill="#130000"/><path fill-rule="evenodd" clip-rule="evenodd" d="M17.941 57.958c1.526-1.388 3.609-2.646 6.175-2.86 2.529-.21 5.157.747 7.22 1.76 2.209 1.083 4.435 2.567 6.358 4.128 1.898 1.54 3.697 3.314 4.92 5.055.597.85 1.219 1.92 1.537 3.114.32 1.2.467 3.144-.863 4.883-.478.624-1.164 1.345-2.145 1.85a5.554 5.554 0 0 1-3.062.59c-.838-.074-1.567-.315-2.04-.486-.34-.124-.747-.288-1.095-.429l-.333-.134c-1.618-.644-4.186-1.583-9.059-1.495-2.457.212-3.817.537-4.837.782l-.389.092-.03.007c-.508.118-1.469.342-2.533.253-1.285-.107-2.29-.605-3.082-1.142-1.633-1.106-2.042-2.797-2.158-3.63-.133-.95-.05-1.886.085-2.66.273-1.582.905-3.328 1.756-4.946.854-1.626 2.044-3.339 3.575-4.732zm7.4 11.873c6.06-.13 9.248 1.157 11.223 1.956 1.7.687 2.5 1.01 3.462-.245 2.078-2.716-10.009-12.812-15.57-12.35-5.56.462-9.163 10.186-7.47 11.333.939.636 1.438.516 2.788.193 1.084-.26 2.717-.65 5.566-.888z" fill="#3D3D3D"/><path d="M44.46 57.045a5.475 5.475 0 1 1-10.913.908 5.475 5.475 0 0 1 10.913-.908z" fill="#C6775C"/><path fill-rule="evenodd" clip-rule="evenodd" d="M27.657 43.31a1.54 1.54 0 0 1 2.037-.771l9.16 4.128a1.54 1.54 0 0 1 .106 2.756l-8.965 4.904a1.54 1.54 0 0 1-1.479-2.702l6.252-3.42-6.34-2.858a1.54 1.54 0 0 1-.771-2.037z" fill="#87401A"/><path fill-rule="evenodd" clip-rule="evenodd" d="M47.53 41.658a1.54 1.54 0 0 0-2.137-.424l-8.353 5.584a1.54 1.54 0 0 0 .35 2.735l9.652 3.358A1.54 1.54 0 1 0 48.054 50l-6.73-2.341 5.78-3.865a1.54 1.54 0 0 0 .425-2.137z" fill="#87401A"/><path d="M19.74 70.726l.034-.008c1.084-.26 2.717-.65 5.567-.888 6.06-.13 9.248 1.158 11.223 1.957 1.7.687 2.501 1.01 3.462-.246 2.078-2.715-10.008-12.811-15.57-12.349-1.14.095-2.197.579-3.143 1.298l.1 1.217a3.706 3.706 0 0 0 2.906 3.314l-1.328.11a3.704 3.704 0 0 0-3.384 3.998l.132 1.597z" fill="#fff"/></svg>