<svg viewBox="0 0 135 124" version="1.1" xmlns="http://www.w3.org/2000/svg"><g stroke="none" stroke-width="1" fill="none" fill-rule="evenodd"><g transform="translate(2 11)"><rect fill="#E5E5E5" x="9" y="0" width="113" height="113" rx="17"/><path d="M119 88.816c1.126 0 2.165.373 3.001 1l-.001 5c0 1.097-.104 2.17-.303 3.21-.777.5-1.703.79-2.697.79H33a5 5 0 1 1 0-10h86zm-17.9-46.744l.042-.052c4.2-5.114 11.604-6.59 17.524-3.172a13.767 13.767 0 0 1 3.334 2.69v18.48c-4.261 4.722-11.38 5.998-17.11 2.69l-.243-.146c-.832 8.038-7.04 14.782-15.402 15.957-6.607.929-12.879-1.855-16.708-6.762a14 14 0 0 1-2.284 2.996c-5.467 5.467-14.332 5.467-19.799 0l-2.121-2.121c-5.468-5.468-5.468-14.332 0-19.8 5.23-5.229 13.567-5.456 19.067-.681-.722-9.395 5.982-17.854 15.443-19.184 7.596-1.067 14.75 2.772 18.257 9.105z" fill="#F9F9F9"/><rect fill="#FFF" x="38" y="69.24" width="62" height="4" rx="1.95"/><path fill="#FFF" d="M49 61.24h36v10H49z"/><circle fill="#B2B2B2" cx="13" cy="92.24" r="5"/><circle fill="#B2B2B2" cx="46" cy="92.24" r="5"/><circle fill="#B2B2B2" cx="79" cy="92.24" r="5"/><circle fill="#B2B2B2" cx="112" cy="92.24" r="5"/><path d="M122 60.24v31L4.98 91.238c-2.75 0-4.98-2.238-4.98-5 0-.161.008-.324.024-.485l2.042-20.998a4.988 4.988 0 0 1 4.956-4.514H122z" fill="#BFBFBF"/><path d="M122 60.24v19H10a2 2 0 0 1-2-2V60.242l114-.002z" fill="#D1D1D1"/><path d="M3 84.816h2a2 2 0 1 1 0 4H4a2 2 0 0 1-2-2v-1a1 1 0 0 1 1-1z" fill="#B2B2B2"/><rect fill="#BFBFBF" x="11" y="63.24" width="8" height="13" rx=".9"/><rect fill="#BFBFBF" x="21" y="63.24" width="8" height="13" rx=".9"/><rect fill="#BFBFBF" x="76" y="63.24" width="16" height="13" rx=".9"/><rect fill="#BFBFBF" x="96" y="63.24" width="16" height="13" rx=".9"/><path d="M122 76.24h-5.1a.9.9 0 0 1-.9-.9v-11.2a.9.9 0 0 1 .9-.9h5.1" fill="#BFBFBF"/><rect fill="#BFBFBF" x="32" y="66.24" width="10" height="22" rx="2"/><path d="M32 78.24h10v8a2 2 0 0 1-2 2h-6a2 2 0 0 1-2-2v-8z" fill="#B2B2B2"/><rect fill="#BFBFBF" x="52" y="66.24" width="19" height="22" rx="2"/><path d="M52 78.24h19v8a2 2 0 0 1-2 2H54a2 2 0 0 1-2-2v-8z" fill="#B2B2B2"/><path d="M4 63.816a1 1 0 0 1 1 1v18a1 1 0 0 1-1 1H.182l1.739-18.468a4.994 4.994 0 0 1 .395-1.532H4z" fill="#B2B2B2" fill-rule="nonzero"/></g><path d="M78.026 1.424c.426.255.782.614 1.036 1.044l2.313 3.913 4.157-1.796a2.974 2.974 0 0 1 3.917 1.576c.195.46.274.96.229 1.459l-.412 4.536 4.41 1.008c1.607.367 2.614 1.976 2.25 3.594-.11.487-.339.94-.666 1.316L92.28 21.5l2.98 3.426a3.02 3.02 0 0 1-.278 4.24c-.373.33-.822.56-1.306.67l-4.41 1.007.412 4.537c.15 1.653-1.058 3.115-2.698 3.266a2.963 2.963 0 0 1-1.448-.231l-4.157-1.797-2.313 3.914a2.97 2.97 0 0 1-5.124 0l-2.314-3.914-4.156 1.797a2.974 2.974 0 0 1-3.917-1.576 3.024 3.024 0 0 1-.229-1.459l.411-4.537-4.41-1.007c-1.606-.367-2.613-1.976-2.249-3.594.11-.487.339-.94.666-1.316l2.98-3.426-2.98-3.426a3.02 3.02 0 0 1 .278-4.24c.373-.33.822-.56 1.306-.67l4.41-1.008-.412-4.536c-.15-1.653 1.058-3.115 2.698-3.266.494-.045.992.034 1.448.231l4.156 1.796 2.314-3.913a2.97 2.97 0 0 1 4.088-1.044z" fill="#BFBFBF" fill-rule="nonzero"/><circle fill="#E5E5E5" cx="76.5" cy="21.5" r="12.5"/><path d="M36.777 33.438l.092.328.276 1.04.167-.162c4.702-4.454 12.126-4.378 16.734.23 4.686 4.687 4.686 12.285 0 16.971l-2.121 2.121a11.95 11.95 0 0 1-7.247 3.451 2.46 2.46 0 0 1-.6.074h-27c-.202 0-.399-.024-.587-.07H12.5a9.5 9.5 0 1 1 0-19h2.618c-.873-5.569 2.574-11.013 8.136-12.516 5.82-1.572 11.81 1.79 13.523 7.533z" fill="#F9F9F9"/><path d="M107 124H28c-9.053 0-16.453-7.077-16.971-16h112.942c-.518 8.923-7.918 16-16.971 16z" fill="#BFBFBF"/><path d="M122.003 115H12.997a16.9 16.9 0 0 1-1.968-7h112.942a16.9 16.9 0 0 1-1.968 7z" fill="#B2B2B2"/></g></svg>