<svg viewBox="0 0 135 124" fill="none" xmlns="http://www.w3.org/2000/svg"><g clip-path="url(#clip0)"><path d="M11 28c0-9.389 7.611-17 17-17h79c9.389 0 17 7.611 17 17v79c0 9.389-7.611 17-17 17H28c-9.389 0-17-7.611-17-17V28z" fill="#FF7878"/><path d="M1.717 46.664C.464 35.537 8.469 25.501 19.597 24.248l23.247-2.617c11.127-1.252 21.163 6.753 22.415 17.88 1.253 11.127-6.752 21.163-17.88 22.416l-23.247 2.617C13.005 65.796 2.97 57.79 1.717 46.664z" fill="#3D3D3D"/><path d="M65.385 42.25c-.22 9.99-7.799 18.528-18.004 19.677l-23.248 2.616c-10.205 1.15-19.493-5.49-21.928-15.182l63.18-7.112z" fill="#D8D8D8"/><path d="M11.02 48.37l4.263-.48a5.267 5.267 0 0 0 4.646-5.824l-.647-5.746 26.552-2.989.647 5.746a5.267 5.267 0 0 0 5.823 4.645l4.748-.535a19.485 19.485 0 0 1 2.886 8.245l1.093 9.707c.642 5.7-3.459 10.842-9.16 11.483l-29.255 3.294c-5.7.641-10.842-3.46-11.483-9.16L10.04 57.05c-.342-3.033.03-5.982.98-8.68z" fill="#FFCBA3"/><path d="M39.563 9.794c.603 5.357-3.251 10.188-8.608 10.791-5.357.603-10.188-3.25-10.791-8.607-.603-5.357 3.25-10.189 8.607-10.792C34.129.583 38.96 4.437 39.563 9.794z" fill="#3D3D3D"/><path d="M22.666 47a5.236 5.236 0 1 1 10.406-1.172l.362 3.21a5.236 5.236 0 1 1-10.406 1.172L22.666 47zM45.394 44.44a5.236 5.236 0 1 0-10.406 1.172l.362 3.21a5.236 5.236 0 1 0 10.406-1.17l-.362-3.211z" fill="#fff"/><path d="M27.234 46.545a1.718 1.718 0 0 0 1.376-2.41 2.362 2.362 0 0 1 3.042 1.99l.33 2.94a2.358 2.358 0 0 1-4.686.529l-.331-2.942a2.497 2.497 0 0 1-.009-.098c.091.005.184.002.278-.009zM36.709 45.479a1.718 1.718 0 0 0 1.375-2.41 2.358 2.358 0 0 1 3.042 1.989l.331 2.941a2.358 2.358 0 1 1-4.686.528l-.331-2.942a2.52 2.52 0 0 1-.01-.097c.092.004.185.001.279-.01z" fill="#3D3D3D"/><path fill-rule="evenodd" clip-rule="evenodd" d="M16.792 49.123a.564.564 0 0 1 .702-.379l3.918 1.168a.565.565 0 0 1 .131 1.023L18 53.085a.564.564 0 0 1-.585-.965l2.456-1.49-2.698-.804a.564.564 0 0 1-.38-.703zM51.594 45.206a.564.564 0 0 0-.769-.214l-3.56 2.01a.564.564 0 0 0 .1 1.027l3.933 1.308a.564.564 0 1 0 .356-1.07l-2.726-.908 2.452-1.384a.564.564 0 0 0 .214-.769zM41.138 68.057a.564.564 0 0 1-.14.786c-3.44 2.404-7.172 1.655-8.649.958a.564.564 0 0 1 .482-1.02c1.222.576 4.502 1.246 7.52-.863a.564.564 0 0 1 .787.14z" fill="#F7B286"/><path d="M36.065 63.793c-2.2 1.565-5.55 2.544-9.293 2.502-6.574-.073-11.868-3.269-11.825-7.137.043-3.867 5.408-6.944 11.982-6.87 3.12.035 5.95.773 8.06 1.952 1.795-1.619 4.392-2.968 7.426-3.695 6.393-1.533 12.307.273 13.209 4.035.902 3.761-3.55 8.053-9.943 9.587-3.64.872-7.124.663-9.616-.374z" fill="#FFCBA3"/><path d="M34.39 48.93c.115-.014 1.3 1.469 2.511 3.028 1.207 1.552.237 3.811-1.715 4.031-1.953.22-3.4-1.768-2.57-3.549.835-1.789 1.661-3.498 1.775-3.51z" fill="#E89665"/><path fill-rule="evenodd" clip-rule="evenodd" d="M27.4 56.416a.752.752 0 0 1 1.065-.005c1.765 1.747 6.619 4.336 11.9.647a.753.753 0 0 1 .862 1.234c-6.092 4.255-11.751 1.237-13.821-.812a.753.753 0 0 1-.006-1.064z" fill="#E89665"/><path d="M21.286 41.659l24.208-2.725.833 7.398-24.209 2.725-.832-7.398z" fill="#FFCBA3"/><path fill-rule="evenodd" clip-rule="evenodd" d="M20.78 48.046a1.693 1.693 0 0 1 1.493-1.872l10.842-1.22a1.693 1.693 0 1 1 .38 3.364l-10.843 1.22a1.693 1.693 0 0 1-1.872-1.492zM39.384 42.116a4.86 4.86 0 0 0-2.05 2.005 1.693 1.693 0 1 1-3.004-1.563 8.241 8.241 0 0 1 3.533-3.467c1.845-.928 4.222-1.202 7.014-.146a1.693 1.693 0 1 1-1.197 3.167c-1.941-.733-3.33-.482-4.296.004z" fill="#3D3D3D"/><path d="M70.76 36.668c.961-9.092 9.11-15.685 18.203-14.725l9.532 1.007c9.093.96 15.686 9.11 14.725 18.203l-.039.373c-.96 9.093-9.11 15.686-18.203 14.725l-9.531-1.006c-9.093-.96-15.686-9.11-14.726-18.203l.04-.374z" fill="#3D3D3D"/><path d="M68.894 57.766c.583.061 1.153.02 1.692-.111.337 7.691 6.256 14.186 14.144 15.02l24.585 2.596c7.914.835 15.081-4.317 16.989-11.808a4.963 4.963 0 1 0 .704-9.065c-.896-7.123-6.588-12.958-14.037-13.744l-24.585-2.597c-7.418-.783-14.18 3.694-16.57 10.428a4.963 4.963 0 1 0-2.922 9.28z" fill="#FFCBA3"/><path d="M126.409 51.655l-8.286-.875a5.887 5.887 0 0 1-5.236-6.472l.383-3.62c6.325.787 11.338 5.225 13.139 10.967z" fill="#D6C6BA"/><path d="M71.77 58.43a2.392 2.392 0 1 1-4.757-.502 2.392 2.392 0 0 1 4.757.502z" fill="#C86902"/><path d="M100.732 49.703a5.519 5.519 0 0 1 6.068-4.909l.204.022a5.519 5.519 0 0 1 4.909 6.068l-.6 5.675a5.518 5.518 0 0 1-6.067 4.908l-.205-.022a5.519 5.519 0 0 1-4.908-6.067l.599-5.675z" fill="#E99B5F"/><path d="M100.52 51.725a5.518 5.518 0 0 1 6.067-4.908l.204.021a5.519 5.519 0 0 1 4.909 6.068l-.386 3.653a5.519 5.519 0 0 1-6.068 4.908l-.204-.021a5.518 5.518 0 0 1-4.908-6.068l.386-3.653z" fill="#fff"/><path d="M98.672 49.485a5.519 5.519 0 0 0-4.909-6.068l-.204-.021a5.518 5.518 0 0 0-6.067 4.908l-.6 5.675a5.519 5.519 0 0 0 4.909 6.068l.204.022a5.518 5.518 0 0 0 6.068-4.909l.599-5.675z" fill="#E99B5F"/><path d="M87.278 50.327a5.519 5.519 0 0 1 6.067-4.909l.205.022a5.519 5.519 0 0 1 4.908 6.067l-.386 3.653a5.519 5.519 0 0 1-6.067 4.909l-.205-.022a5.518 5.518 0 0 1-4.908-6.067l.386-3.653z" fill="#fff"/><path d="M70.608 38.115c.726-6.87 6.883-11.851 13.753-11.126l.93.098c6.87.726 11.851 6.883 11.126 13.753l-.099.93c-.725 6.87-6.883 11.851-13.753 11.126l-.93-.098c-6.87-.726-11.85-6.883-11.125-13.753l.098-.93z" fill="#3D3D3D"/><path d="M92.24 52.016a1.973 1.973 0 0 0 2.129-2.413 2.532 2.532 0 0 1 2.116 2.766l-.26 2.464a2.532 2.532 0 1 1-5.036-.532l.26-2.464.01-.075c.232.134.496.223.78.254zM102.26 53.073a1.973 1.973 0 0 0 2.137-2.33 2.532 2.532 0 0 1 2.908 2.768l-.26 2.464a2.532 2.532 0 0 1-5.036-.531l.251-2.37z" fill="#3D3D3D"/><path d="M117.432 66.04c-.299 2.836-4.841 4.681-10.144 4.121-5.303-.56-9.359-3.313-9.06-6.149.3-2.836 4.842-4.681 10.145-4.121 5.303.56 9.359 3.313 9.059 6.15z" fill="#FFCBA3"/><path d="M98.953 57.103c.111.012.93 1.677 1.758 3.421.825 1.736-.577 3.69-2.488 3.487-1.91-.201-2.874-2.404-1.705-3.93 1.175-1.532 2.323-2.99 2.435-2.978z" fill="#E99B5F"/><path fill-rule="evenodd" clip-rule="evenodd" d="M108.751 73.296a3.78 3.78 0 0 0-4.457-6.108c-2.001 1.46-3.726 1.51-5.14 1.136-1.59-.42-2.92-1.434-3.565-2.156a3.78 3.78 0 1 0-5.633 5.043c1.445 1.615 4 3.56 7.267 4.423 3.442.909 7.547.567 11.528-2.338z" fill="#FFCBA3"/><path fill-rule="evenodd" clip-rule="evenodd" d="M107.028 68.605a2.59 2.59 0 1 0-4.029-3.26c-1.068 1.32-2.202 1.655-3.205 1.657-1.127.002-2.187-.435-2.742-.8a2.592 2.592 0 1 0-2.843 4.334c1.242.815 3.277 1.653 5.594 1.65 2.44-.005 5.1-.955 7.225-3.581z" fill="#A41414"/><path d="M107.037 68.594l-.009.01c-2.125 2.627-4.785 3.577-7.225 3.581a10.362 10.362 0 0 1-3.446-.6c2.58-2.975 6.766-4.248 10.68-2.991z" fill="#E64340"/><path d="M102.514 115.094h3.278a1.817 1.817 0 0 1 1.781 2.175l-.178.889a1.817 1.817 0 0 1-1.781 1.46h-2.921a1.816 1.816 0 0 1-1.781-1.46l-.179-.889a1.817 1.817 0 0 1 1.781-2.175zM29.888 115.094h3.278a1.817 1.817 0 0 1 1.781 2.175l-.179.889a1.817 1.817 0 0 1-1.78 1.46h-2.922a1.817 1.817 0 0 1-1.78-1.46l-.18-.889a1.817 1.817 0 0 1 1.782-2.175z" fill="#945151"/><path d="M100.289 81.768H34.937a6.813 6.813 0 0 0-6.813 6.813v18.344a6.813 6.813 0 0 0 6.813 6.812h65.352a6.812 6.812 0 0 0 6.813-6.812V88.581a6.813 6.813 0 0 0-6.813-6.813z" fill="#58CC02"/><path d="M90.472 91.61h6.242a3.634 3.634 0 0 1 3.584 4.232l-1.054 6.303a3.633 3.633 0 0 1-3.583 3.035h-6.243a3.634 3.634 0 0 1-3.584-4.233l1.054-6.303a3.634 3.634 0 0 1 3.584-3.035zM45.38 91.61h-6.242a3.634 3.634 0 0 0-3.584 4.232l1.054 6.303a3.633 3.633 0 0 0 3.584 3.035h6.242a3.634 3.634 0 0 0 3.584-4.233l-1.053-6.303a3.634 3.634 0 0 0-3.584-3.035z" fill="#9069CD"/><path d="M108.461 108.309H26.766a2.271 2.271 0 0 0-2.271 2.271v3.601a2.271 2.271 0 0 0 2.27 2.271h81.696a2.27 2.27 0 0 0 2.27-2.271v-3.601a2.27 2.27 0 0 0-2.27-2.271z" fill="#A5ED6E"/><path d="M106.416 94.287h-4.526a4.315 4.315 0 0 0-4.315 4.314v10.822a4.315 4.315 0 0 0 4.315 4.315h4.526a4.314 4.314 0 0 0 4.315-4.315V98.601a4.314 4.314 0 0 0-4.315-4.314zM33.336 94.287H28.81a4.315 4.315 0 0 0-4.315 4.314v10.822a4.315 4.315 0 0 0 4.314 4.315h4.527a4.315 4.315 0 0 0 4.315-4.315V98.601a4.315 4.315 0 0 0-4.315-4.314z" fill="#A5ED6E"/><path d="M93.714 102.429H41.059a4.315 4.315 0 0 0-4.315 4.315v1.774a4.315 4.315 0 0 0 4.315 4.315h52.655a4.315 4.315 0 0 0 4.315-4.315v-1.774a4.315 4.315 0 0 0-4.315-4.315z" fill="#A5ED6E"/><path d="M88.239 80.706a1 1 0 0 1 .906 1.422l-7.552 16.216a1 1 0 0 1-1.33.484L45.45 82.612c-.97-.452-.649-1.906.422-1.906h42.367z" fill="#1CB0F6"/></g><defs><clipPath id="clip0"><path fill="#fff" d="M0 0h135v124H0z"/></clipPath></defs></svg>