<svg viewBox="0 0 135 124" version="1.1" xmlns="http://www.w3.org/2000/svg"><g stroke="none" stroke-width="1" fill="none" fill-rule="evenodd"><g><path d="M28 11h79c9.389 0 17 7.611 17 17v79c0 9.389-7.611 17-17 17H28c-9.389 0-17-7.611-17-17V28c0-9.389 7.611-17 17-17z" fill="#FFCA00"/><path d="M122.278 20.93L20.758 122.45a16.94 16.94 0 0 0 7.08 1.56h41.32l54.68-54.68V28.01a16.94 16.94 0 0 0-1.56-7.08zm-72.12 48.14l58-58c-.43 0-.87-.07-1.31-.07h-48.59l-33.08 33.09c-6.904 6.904-6.904 18.096 0 25 6.903 6.904 18.096 6.904 25 0l-.02-.02z" fill="#FFD900" fill-rule="nonzero"/></g><path fill="#FFF1A2" d="M100.824 30.324l-3.38 34.717-30.815-3.52 3.992-41.01z"/><path d="M62.506 85.403l23.907 7.31a1 1 0 0 1 .664 1.248l-2.339 7.65a1 1 0 0 1-1.249.665l-23.907-7.31a1 1 0 0 1-.664-1.248l2.339-7.65a1 1 0 0 1 1.249-.665z" stroke="#979797" fill="#D8D8D8"/><path d="M98.132 68.062L90.24 93.877a5 5 0 0 1-6.243 3.32l-22.32-6.825a21.735 21.735 0 0 0-9.895-.66l-.52.093c-3.467.66-7.041.465-10.416-.567L7.1 78.921A8 8 0 0 1 8.24 63.36l53.552-8.108a14 14 0 0 1 6.189.453l28.16 8.61a3 3 0 0 1 1.991 3.746z" fill="#FB8603"/><path d="M96.14 64.316a3 3 0 0 1 1.992 3.746L90.24 93.877a5.002 5.002 0 0 1-4.673 3.538l-21.332-6.523.576-1.88c1.979-6.474-1.732-13.348-8.288-15.353l-20.399-6.236c-2.384-.73-3.733-3.229-3.014-5.583l.72-2.354 27.962-4.233a14 14 0 0 1 6.189.453l28.16 8.61z" fill="#FB8603"/><path d="M41.718 56.027a2 2 0 0 1 2.288 1.663l1.095 6.914a2 2 0 0 1-3.95.625l-1.096-6.914a2 2 0 0 1 1.663-2.288zM49.256 54.941a2 2 0 0 1 2.288 1.663l1.095 6.913a2 2 0 0 1-3.95.626l-1.096-6.914a2 2 0 0 1 1.663-2.288zM56.794 53.855a2 2 0 0 1 2.288 1.663l1.095 6.913a2 2 0 1 1-3.95.626l-1.096-6.914a2 2 0 0 1 1.663-2.288z" fill="#FFF1A2"/><path d="M105.123 10.856l-1.121 36.1a4 4 0 0 1-5.04 2.569l-38.994-12.67c-2.1-.683-.042-1.833.641-3.934l2.915-22.065h41.599z" fill="#FF9600"/><path d="M107.014 124.005h-79c-7.649 0-14.118-5.052-16.253-12h111.506c-2.135 6.948-8.604 12-16.253 12z" fill="#FB8603"/><path d="M64.395 81.735l.031-.734v-2.462c0-1.57-1.25-2.862-2.837-2.953l-.177-.005H40.08c-7.575 0-13.743-5.988-13.911-13.448l-.004-.311.001-1.15 3-.45v1.6c0 5.842 4.726 10.603 10.623 10.756l.29.003h21.332c3.242 0 5.891 2.544 6.01 5.735l.004.223v1.743l-3.03 1.453z" fill="#FF9600"/><path fill="#FFF1A2" d="M89 20.856h27v52H89z"/><path d="M91.562 102.029h25a1 1 0 0 1 1 1v8a1 1 0 0 1-1 1h-25a1 1 0 0 1-1-1v-8a1 1 0 0 1 1-1z" fill="#E27903"/><path d="M120.562 75.029v26.994a5 5 0 0 1-5 5h-23.34c-3.36 0-6.672.78-9.677 2.273l-.449.23a21.735 21.735 0 0 1-10.125 2.503H36.68a8 8 0 0 1-3.458-15.214l48.841-23.411a14 14 0 0 1 6.052-1.375h29.446a3 3 0 0 1 3 3z" fill="#E27903"/><path d="M117.562 72.029a3 3 0 0 1 3 3v26.994a5.002 5.002 0 0 1-3.434 4.75l-22.307-.001v-1.966c0-6.77-5.558-12.259-12.413-12.259H61.077c-2.494 0-4.515-1.996-4.515-4.458v-2.461l25.502-12.224a14 14 0 0 1 6.052-1.375h29.446z" fill="#E27903"/><path d="M63.39 78.842a2 2 0 0 1 2.64 1.014l2.847 6.395a2 2 0 0 1-3.654 1.627l-2.847-6.395a2 2 0 0 1 1.013-2.64zM70.39 75.842a2 2 0 0 1 2.64 1.014l2.847 6.395a2 2 0 0 1-3.654 1.627l-2.847-6.395a2 2 0 0 1 1.013-2.64zM77.39 72.842a2 2 0 0 1 2.64 1.014l2.847 6.395a2 2 0 0 1-3.654 1.627l-2.847-6.395a2 2 0 0 1 1.013-2.64z" fill="#FFF1A2"/><path d="M58.061 84.91l.001 3.18c0 1.57 1.251 2.862 2.837 2.952l.178.005h21.33c7.576 0 13.743 5.989 13.911 13.448l.004.312v1.965h-3v-1.966c0-5.842-4.727-10.603-10.624-10.755l-.29-.004H61.077c-3.242 0-5.892-2.544-6.01-5.734l-.005-.224v-1.741l3-1.438z" fill="#FB8603"/><path d="M60.43 23.954l47.533 6.68a2 2 0 0 1 1.702 2.26l-2.087 14.853a2 2 0 0 1-2.26 1.703l-47.532-6.68a2 2 0 0 1-1.702-2.26l2.087-14.854a2 2 0 0 1 2.26-1.702z" fill="#FF9600"/><path d="M107 11c8.724 0 15.913 6.572 16.888 15.035l-.001 32.821a3 3 0 0 1-3 3h-40a3 3 0 0 1-3-3L77.886 11 107 11z" fill="#E27903"/><path d="M37.414 16.414l7.071 7.071a2 2 0 0 1 0 2.829l-7.07 7.07a2 2 0 0 1-2.83 0l-7.07-7.07a2 2 0 0 1 0-2.829l7.07-7.07a2 2 0 0 1 2.83 0zM24.778 37.536l5.657 5.656a1 1 0 0 1 0 1.415l-5.657 5.656a1 1 0 0 1-1.414 0l-5.657-5.656a1 1 0 0 1 0-1.415l5.657-5.656a1 1 0 0 1 1.414 0z" fill="#FFF1A2"/><path d="M76.887 39.856h48a2 2 0 0 1 2 2v18a2 2 0 0 1-2 2h-48a2 2 0 0 1-2-2v-18a2 2 0 0 1 2-2z" fill="#E27903"/><path d="M109 76h6a3 3 0 0 1 3 3v17a3 3 0 0 1-3 3h-6a3 3 0 0 1-3-3V79a3 3 0 0 1 3-3z" fill="#FB8603"/></g></svg>