<svg viewBox="0 0 135 124" fill="none" xmlns="http://www.w3.org/2000/svg"><path d="M11 28c0-9.389 7.611-17 17-17h79c9.389 0 17 7.611 17 17v79c0 9.389-7.611 17-17 17H28c-9.389 0-17-7.611-17-17V28z" fill="#E5E5E5"/><path d="M35.168 29.311c-.232.015-.465.022-.7.022-6.084 0-11.015-4.853-11.015-10.839 0-5.986 4.93-10.839 11.015-10.839 6.081 0 11.012 4.853 11.012 10.84 0 .234-.008.467-.022.698h.023c5.697 0 10.313 4.63 10.313 10.337v1.55H35.166v-1.55c0-.073 0-.146.002-.219z" fill="#959595"/><path d="M26.425 29.158h39.16c7.338 0 13.287 5.949 13.287 13.286v26.06c0 7.337-5.949 13.285-13.287 13.285h-39.16c-7.337 0-13.286-5.948-13.286-13.286v-10a5.856 5.856 0 1 1 0-11.004v-5.055c0-7.337 5.949-13.286 13.287-13.286z" fill="#D1D1D1"/><path d="M36.242 34.861a8.243 8.243 0 0 1 8.243 8.243v5.014c0 1.652-.486 3.19-1.323 4.48-1.563-4.39-5.756-7.534-10.683-7.534-1.591 0-3.106.328-4.48.92v-2.88a8.243 8.243 0 0 1 8.243-8.243zM55.646 34.861a8.243 8.243 0 0 0-8.242 8.243v5.014c0 1.357.328 2.638.909 3.767 1.745-4.014 5.745-6.82 10.4-6.82 1.865 0 3.625.45 5.176 1.247v-3.208a8.243 8.243 0 0 0-8.243-8.243z" fill="#fff"/><path d="M34.817 43.877a2.972 2.972 0 0 0 2.946-4.044 3.7 3.7 0 0 1 4.455 3.623v4.649c0 .647-.166 1.255-.458 1.784a11.344 11.344 0 0 0-6.943-4.584v-1.428zM50.194 43.771a2.972 2.972 0 0 0 2.987-3.946 3.7 3.7 0 0 1 4.414 3.632v1.662a11.31 11.31 0 0 0-7.328 3.72 3.724 3.724 0 0 1-.073-.734V43.77z" fill="#959595"/><path fill-rule="evenodd" clip-rule="evenodd" d="M45.742 57.406a3.238 3.238 0 0 0 3.235-3.241c0-1.79-3.234-6.024-3.234-6.024s-3.235 4.233-3.235 6.024a3.238 3.238 0 0 0 3.234 3.241z" fill="#A6A6A6"/><path fill-rule="evenodd" clip-rule="evenodd" d="M35.057 56.294a4.295 4.295 0 0 1 5.793 1.828c.707 1.361 1.45 2.066 2.11 2.442.644.367 1.533.605 2.876.485a4.295 4.295 0 0 1 .764 8.557c-2.775.248-5.475-.201-7.89-1.576-2.4-1.366-4.188-3.457-5.482-5.943a4.295 4.295 0 0 1 1.829-5.793z" fill="#fff"/><path d="M22.229 44.542V29.834c-5.282 1.757-9.09 6.739-9.09 12.61V47.5a5.865 5.865 0 0 1 3.759 4.493 7.87 7.87 0 0 0 5.331-7.45zM78.87 42.445c0-5.657-3.535-10.489-8.517-12.405v14.502a7.867 7.867 0 0 0 7.867 7.867h.65v-9.964z" fill="#959595"/><path d="M56.446 78.335c0-20.236 16.405-36.641 36.641-36.641 20.237 0 36.641 16.405 36.641 36.641v3.944c0 20.236-16.404 36.641-36.64 36.641-20.237 0-36.642-16.405-36.642-36.641v-3.944z" fill="#D1D1D1"/><path d="M76.642 115.031a36.605 36.605 0 0 1-5.844-3.668l.08.004c14 1.041 23.966-1.824 31.078-6.256 7.125-4.439 11.526-10.54 14.241-16.188a1.725 1.725 0 1 1 3.11 1.494c-2.923 6.083-7.714 12.755-15.526 17.623-6.709 4.18-15.543 6.966-27.139 6.991z" fill="#BFBFBF"/><path fill-rule="evenodd" clip-rule="evenodd" d="M63.971 79.222c0-16.108 13.058-29.165 29.165-29.165 16.108 0 29.165 13.057 29.165 29.165 0 16.107-13.057 29.165-29.165 29.165-16.107 0-29.165-13.058-29.165-29.165z" fill="#A6A6A6"/><path d="M104.336 85.02a122.555 122.555 0 0 1 4.124-2.135c.47-.163.916-.378 1.332-.636.077-.042.143-.085.2-.13a6.688 6.688 0 0 0-3.772-12.242c-4.391.03-8.21 1.994-10.959 5.525a6.685 6.685 0 0 0 1.17 9.386 6.691 6.691 0 0 0 6.525.959l-.009.03.177-.098a6.655 6.655 0 0 0 1.212-.66z" fill="#fff"/><path d="M82.43 85.017a123.165 123.165 0 0 0-4.118-2.131 6.658 6.658 0 0 1-1.342-.641 1.504 1.504 0 0 1-.189-.123 6.688 6.688 0 0 1 3.767-12.245c4.392.03 8.21 1.994 10.96 5.525a6.685 6.685 0 0 1-1.17 9.386 6.691 6.691 0 0 1-6.525.959l.009.03-.175-.096a6.656 6.656 0 0 1-1.218-.664z" fill="#fff"/><path d="M69.54 72.47c21.502.732 33.306-10.784 39.855-17.465a29.029 29.029 0 0 0-16.259-4.948 29.048 29.048 0 0 0-18.706 6.788 2.481 2.481 0 0 0-.28.198 50.21 50.21 0 0 0-1.062.9c-2.532 2.184-5.336 4.603-10.765 3.29l-.308-.072-2.702-.697c-.954-.256-1.655.347-1.602 1.335.251 4.746 3.565 8.869 8.268 10.135.67.18 1.344.296 2.016.35.53.102 1.056.169 1.545.185zM81.55 77.03c.412.257.897.406 1.417.406a2.69 2.69 0 0 0 2.686-2.694c0-.532-.154-1.028-.419-1.445a4.436 4.436 0 0 1 5.142 4.38v2.136a4.436 4.436 0 0 1-8.873 0v-2.136c0-.22.016-.435.047-.647zM96.898 77.435a2.69 2.69 0 0 0 2.686-2.694 2.69 2.69 0 0 0-.257-1.15 4.436 4.436 0 0 1 6.166 4.087v2.135a4.436 4.436 0 1 1-8.872 0v-2.136c0-.086.002-.17.007-.256.088.01.179.014.27.014z" fill="#959595"/><path d="M113.127 71.414c0 2.345-4.971 4.246-11.104 4.246-6.133 0-11.105-1.9-11.105-4.246 0-2.345 4.972-4.246 11.105-4.246s11.104 1.901 11.104 4.246z" fill="#A6A6A6"/><path fill-rule="evenodd" clip-rule="evenodd" d="M93.286 90.762c1.52 0 2.753-1.243 2.753-2.776 0-1.533-2.753-5.16-2.753-5.16s-2.753 3.627-2.753 5.16c0 1.533 1.233 2.776 2.753 2.776z" fill="#959595"/><path d="M98.424 90.77c-5.084 1.274-8.463 5.864-8.408 10.885.016 1.443 1.47 2.301 2.87 1.95l16.474-4.128c1.399-.35 2.277-1.793 1.61-3.073-2.319-4.454-7.462-6.908-12.546-5.634z" fill="#959595"/><path d="M100.327 94.334c-3.674.92-5.871 4.787-4.906 8.636l13.305-3.334c-.964-3.85-4.725-6.223-8.399-5.302z" fill="#BFBFBF"/></svg>