<svg viewBox="0 0 135 124" fill="none" xmlns="http://www.w3.org/2000/svg"><path d="M11.84 28c0-9.389 7.61-17 17-17h78.999c9.389 0 17 7.611 17 17v79c0 9.389-7.611 17-17 17h-79c-9.388 0-17-7.611-17-17V28z" fill="#A2A2A2"/><path d="M58.134 39a7.753 7.753 0 0 0-9.673-5.161L24.353 41.17a7.753 7.753 0 0 0-5.162 9.674l1.094 3.598a4.623 4.623 0 0 0 2.69 8.845l1.968 6.47a8.725 8.725 0 0 0 10.885 5.809l22.25-6.767a8.725 8.725 0 0 0 5.808-10.885l-1.968-6.47a4.623 4.623 0 0 0-2.69-8.845L58.134 39z" fill="#B0B0B0"/><path d="M41.365 7.731a10.115 10.115 0 0 1 9.81-.389l4.842 2.439c4.993 2.514 7.002 8.6 4.487 13.592l-2.181 4.33a10.114 10.114 0 0 1-8.141 5.53l.703 2.313-14.55 1.899-16.042 7.405-.615-2.023c-2.276.44-4.714.105-6.891-1.123L8.564 39.32c-4.868-2.747-6.588-8.92-3.84-13.789l2.664-4.722a10.11 10.11 0 0 1 7.886-5.105c-.641-4.825 2.283-9.543 7.091-11.006l6.999-2.128c4.796-1.459 9.838.817 12.001 5.16zM43.481 56.364c-.734-.745-1.734-1.463-1.78-1.45-.045.014-.476 1.168-.671 2.195a1.745 1.745 0 0 0 1.477 3.12l1.484-.451a1.745 1.745 0 0 0-.51-3.414z" fill="#959595"/><path d="M27.33 31.83a7.833 7.833 0 0 0 5.52 4.73l-18.797 5.716 6.21 12.173a4.612 4.612 0 0 1 .234-.07l16.154-16.07 22.369 4.355a4.802 4.802 0 0 1 .224-.07l-1.612-13.571-18.672 5.679a7.831 7.831 0 0 0 1.85-6.892l-.462-2.163a7.84 7.84 0 0 0-5.876 5.41 7.84 7.84 0 0 0-7.963-1.281l.821 2.053z" fill="#D1D1D1"/><path d="M42.538 52.426l.026.085a5.183 5.183 0 0 0 9.916-3.016l-.026-.085-9.916 3.016z" fill="#fff"/><path d="M38.759 73.863a3.972 3.972 0 0 1-3.415-7.161c1.376-.83 3.432-1.309 5.706-1.21 2.275.099 4.282.754 5.58 1.7a3.972 3.972 0 1 1-4.022 6.838c-.6-.31-1.225-.613-1.9-.642-.675-.03-1.324.218-1.949.475z" fill="#959595"/><path fill-rule="evenodd" clip-rule="evenodd" d="M38.76 73.864a3.972 3.972 0 0 1-3.415-7.161c1.375-.83 3.43-1.309 5.705-1.21 2.275.099 4.282.754 5.58 1.7a3.972 3.972 0 1 1-4.022 6.838c-.6-.31-1.225-.613-1.9-.642-.675-.03-1.324.218-1.949.475zm1.821 2.442c-.019.004-.047.01-.085.02a5.87 5.87 0 0 0-.626.233 6.886 6.886 0 0 1-5.98-12.382c1.977-1.175 4.614-1.712 7.287-1.596 2.672.116 5.253.879 7.122 2.221a6.887 6.887 0 1 1-7.03 11.817 5.862 5.862 0 0 0-.604-.285 1.228 1.228 0 0 0-.084-.028z" fill="#B0B0B0"/><path d="M45.92 66.743l-12.626 3.84a3.97 3.97 0 0 1 2.05-3.88c1.375-.83 3.431-1.31 5.706-1.21 1.894.081 3.603.55 4.87 1.25zM29.816 56.295l.026.085a5.164 5.164 0 0 0 2.28 2.93c2.066-.818 4.238-1.021 6.088-.533a5.184 5.184 0 0 0 1.548-5.413l-.026-.085-9.916 3.016z" fill="#fff"/><path d="M41.14 48.512a.943.943 0 0 1 .629-1.177l6.498-1.977a.943.943 0 1 1 .55 1.806l-6.5 1.976a.944.944 0 0 1-1.177-.628z" fill="#959595"/><path fill-rule="evenodd" clip-rule="evenodd" d="M29.567 48.036c3.145-2.656 6.902-2.202 8.44-1.623a.85.85 0 1 1-.597 1.59c-1.157-.436-4.212-.81-6.748 1.33a.85.85 0 0 1-1.095-1.297z" fill="#959595"/><path d="M30.182 56.183l.026.085a2.294 2.294 0 1 0 4.39-1.335l-.026-.085-4.39 1.335zM42.89 52.319l.026.084a2.294 2.294 0 0 0 4.389-1.335l-.026-.084-4.389 1.334z" fill="#959595"/><path fill-rule="evenodd" clip-rule="evenodd" d="M114.976 39.542c-2.526 8.317-11.315 13.011-19.632 10.486l-8.285-2.517c-8.317-2.525-13.012-11.315-10.486-19.632C79.1 19.562 87.89 14.868 96.205 17.393l8.285 2.517c8.317 2.525 13.012 11.315 10.486 19.632z" fill="#959595"/><path d="M114.231 38.63L93.48 32.328c-6.805-2.067-13.922.643-17.75 6.204a4.672 4.672 0 1 0-3.035 8.815c-.5 7.239 4.028 14.126 11.266 16.324l20.751 6.302c7.239 2.198 14.831-1.008 18.441-7.303.046.016.092.03.139.045a4.671 4.671 0 0 0 5.827-3.113 4.671 4.671 0 0 0-3.587-5.945c-.088-6.75-4.496-12.96-11.301-15.027z" fill="#D1D1D1"/><path fill-rule="evenodd" clip-rule="evenodd" d="M97.59 56.109a2.23 2.23 0 0 0 2.781-1.485c.358-1.178-.93-4.611-.93-4.611l-.282.209c-.751.565-2.765 2.151-3.055 3.106a2.23 2.23 0 0 0 1.486 2.78z" fill="#A9A9A9"/><path d="M70.88 49.428a2.23 2.23 0 1 0 1.295-4.267 2.23 2.23 0 0 0-1.296 4.267z" fill="#959595"/><path d="M115.158 38.942c5.509 2.044 9.275 6.877 10.17 12.382l-7.278-2.21a5.724 5.724 0 0 1-3.813-7.139l.921-3.033z" fill="#BFBFBF"/><path fill-rule="evenodd" clip-rule="evenodd" d="M95.758 62.14c-1.832-.557-3.955.228-5.462 1.827a1.021 1.021 0 1 1-1.487-1.4c1.869-1.983 4.757-3.228 7.543-2.382 2.786.846 4.493 3.487 4.944 6.173a1.022 1.022 0 0 1-2.015.338c-.363-2.167-1.69-4-3.523-4.557z" fill="#A9A9A9"/><path fill-rule="evenodd" clip-rule="evenodd" d="M95.265 63.768c-1.041-.316-2.526.091-3.73 1.367a2.724 2.724 0 1 1-3.963-3.736c2.167-2.3 5.692-3.931 9.275-2.843 3.584 1.088 5.606 4.405 6.129 7.52a2.724 2.724 0 1 1-5.372.902c-.29-1.73-1.298-2.894-2.34-3.21zm-4.968.2c1.507-1.6 3.63-2.385 5.462-1.829 1.833.557 3.16 2.39 3.524 4.557a1.021 1.021 0 1 0 2.014-.338c-.45-2.686-2.158-5.327-4.944-6.173-2.786-.846-5.674.4-7.543 2.381a1.021 1.021 0 0 0 1.487 1.401z" fill="#D1D1D1"/><path d="M100.968 48.619a5.107 5.107 0 0 0 3.402 6.37l.182.056a5.107 5.107 0 0 0 6.371-3.403l1.534-5.053a5.107 5.107 0 0 0-3.402-6.37l-.182-.056a5.107 5.107 0 0 0-6.371 3.403l-1.534 5.053z" fill="#BFBFBF"/><path d="M111.368 50.174l.542-1.785a5.107 5.107 0 0 0-3.402-6.37l-.182-.055a5.107 5.107 0 0 0-6.371 3.402l-.542 1.785 9.955 3.023z" fill="#fff"/><path d="M103.293 48.198a1.439 1.439 0 1 0 2.753.836l.409-1.347a1.438 1.438 0 1 0-2.753-.836l-.409 1.347z" fill="#959595"/><path d="M101.51 46.834l-.542 1.785a5.107 5.107 0 0 0 3.402 6.37l.182.055a5.107 5.107 0 0 0 6.371-3.402l.542-1.785-9.955-3.023zM98.948 48.005a5.107 5.107 0 0 1-6.37 3.403l-.182-.055a5.107 5.107 0 0 1-3.403-6.37l1.535-5.054a5.107 5.107 0 0 1 6.37-3.402l.182.055a5.108 5.108 0 0 1 3.403 6.37l-1.535 5.053z" fill="#BFBFBF"/><path d="M89.439 43.515l.542-1.785a5.107 5.107 0 0 1 6.37-3.403l.182.055a5.107 5.107 0 0 1 3.403 6.37l-.543 1.786-9.954-3.023z" fill="#fff"/><path d="M97.25 46.363a1.439 1.439 0 0 1-2.754-.837l.41-1.347a1.439 1.439 0 1 1 2.752.836l-.409 1.348z" fill="#959595"/><path d="M99.49 46.22l-.542 1.785a5.107 5.107 0 0 1-6.37 3.403l-.182-.055a5.107 5.107 0 0 1-3.403-6.37l.542-1.786 9.955 3.023z" fill="#BFBFBF"/><path fill-rule="evenodd" clip-rule="evenodd" d="M98.402 35.643l-.308 1.016c-1.875 6.172-8.398 9.656-14.57 7.782-6.172-1.875-9.656-8.398-7.781-14.57l.308-1.016c1.875-6.172 8.397-9.656 14.57-7.781 6.172 1.874 9.656 8.397 7.781 14.569z" fill="#959595"/><path fill-rule="evenodd" clip-rule="evenodd" d="M79.569 67.79c-8.685-2.124-17.592 2.552-20.776 10.906l-10.08 26.445c-1.41 3.702 2.661 7.094 6.047 5.038a4.16 4.16 0 0 1 5.77 1.49l1.8 3.144a7.692 7.692 0 0 0 10.835 2.649l3.049-1.959a4.16 4.16 0 0 1 5.805 1.341c2.056 3.386 7.233 2.255 7.69-1.68l3.26-28.112c1.029-8.881-4.716-17.14-13.4-19.263zm1.866 11.164a2.51 2.51 0 0 0-3.035 1.843l-1.347 5.51a2.51 2.51 0 1 0 4.878 1.192l1.347-5.51a2.51 2.51 0 0 0-1.843-3.035zm-11.397-.201a2.51 2.51 0 1 1 4.877 1.192l-1.347 5.51a2.51 2.51 0 1 1-4.877-1.193l1.347-5.51zm6.47 12.092a2.5 2.5 0 0 0-3.435.833l-.169.277a2.5 2.5 0 0 0 4.27 2.603l.168-.277a2.5 2.5 0 0 0-.833-3.436z" fill="#F2F2F2"/></svg>