<svg viewBox="0 0 135 124" fill="none" xmlns="http://www.w3.org/2000/svg"><g clip-path="url(#clip0)"><path d="M107 11H28c-9.389 0-17 7.611-17 17v79c0 9.389 7.611 17 17 17h79c9.389 0 17-7.611 17-17V28c0-9.389-7.611-17-17-17z" fill="#FFCA00"/><path d="M12.56 114.08L114.08 12.56A16.938 16.938 0 0 0 107 11H65.68L11 65.68V107c.003 2.445.535 4.86 1.56 7.08zm72.12-48.14l-58 58c.43 0 .87.07 1.31.07h48.59l33.08-33.09c6.904-6.904 6.904-18.096 0-25-6.903-6.904-18.096-6.904-25 0l.02.02z" fill="#FFD900"/><path d="M58.907 25.555h.002a8.789 8.789 0 0 1 8.786-8.599h41.409a8.788 8.788 0 0 1 8.786 8.599h.002v40.484a3.042 3.042 0 0 0 3.042 3.041h5.971c.7 0 1.267.567 1.267 1.267 0 6.846-5.549 12.396-12.395 12.396H61.022c-6.846 0-12.395-5.55-12.395-12.396 0-.7.567-1.267 1.267-1.267h5.971a3.041 3.041 0 0 0 3.041-3.041V25.555z" fill="#FFB100"/><path d="M63.342 26.705h50.114V76.71H63.342V26.705z" fill="#FFBB31"/><path d="M60.953 49.182a5.53 5.53 0 1 0 0-11.06 5.53 5.53 0 0 0 0 11.06zM115.846 49.182a5.53 5.53 0 1 0 0-11.06 5.53 5.53 0 0 0 0 11.06z" fill="#FFBB31"/><path d="M60.884 77.603c0-.84.681-1.52 1.52-1.52h51.989c.84 0 1.521.68 1.521 1.52v5.152c0 .84-.681 1.52-1.521 1.52H62.405c-.84 0-1.52-.68-1.52-1.52v-5.152z" fill="#E27800"/><path d="M58.928 38.507a5.53 5.53 0 0 1 6.945 2.606 6.164 6.164 0 0 0 2.197-4.724v-7.743h-9.142v9.86zM110.934 41.12a5.529 5.529 0 0 1 6.936-2.618v-9.856h-9.142v7.743c0 1.899.857 3.598 2.206 4.731z" fill="#FFB100"/><path d="M57.271 23.938c0-.84.681-1.52 1.521-1.52h59.215c.84 0 1.521.68 1.521 1.52v4.196c0 .84-.681 1.52-1.521 1.52H58.792c-.84 0-1.52-.68-1.52-1.52v-4.196z" fill="#E27800"/><path d="M90.353 28.258c6.779 0 12.274-5.495 12.274-12.274 0-6.778-5.495-12.273-12.273-12.273-4.414 0-8.283 2.33-10.446 5.826l-2.32-2.554c-.638-.703-1.765-.655-2.206.187a10.662 10.662 0 0 0-1.211 4.952c0 3.853 2.034 7.23 5.087 9.116a12.275 12.275 0 0 0 11.096 7.02z" fill="#FFB100"/><path d="M85.663 76.921a1.095 1.095 0 0 1 1.065-.839h3.343c.506 0 .946.347 1.064.84l2.198 9.143a1.095 1.095 0 0 1-1.064 1.35h-7.74c-.708 0-1.23-.661-1.064-1.35l2.198-9.144zM89.539 38.351a6.438 6.438 0 1 1 12.876 0v3.916a6.438 6.438 0 0 1-12.876 0v-3.916zM74.383 38.351a6.438 6.438 0 1 1 12.877 0v3.916a6.438 6.438 0 0 1-12.877 0v-3.916z" fill="#FFF1A2"/><path d="M92.26 38.467a2.264 2.264 0 0 0 2.219-2.713 2.937 2.937 0 0 1 2.617 2.919v3.523a2.936 2.936 0 0 1-5.873 0v-3.523c0-.15.011-.297.033-.44.302.15.643.234 1.004.234zM80.653 38.467a2.264 2.264 0 0 0 2.22-2.713 2.937 2.937 0 0 1 2.616 2.919v3.523a2.936 2.936 0 0 1-5.872 0v-3.523c0-.15.011-.297.033-.44.302.15.643.234 1.003.234z" fill="#E27800"/><path fill-rule="evenodd" clip-rule="evenodd" d="M82.068 26.65a2.534 2.534 0 0 0-2.935-2.057c-2.453.432-4.896 1.564-6.249 2.39a2.534 2.534 0 1 0 2.643 4.325c.958-.585 2.806-1.427 4.485-1.723a2.534 2.534 0 0 0 2.056-2.935z" fill="#FFB100"/><path d="M98.633 60.4l1.061-3.519a3.207 3.207 0 0 0-2.693-4.11l-2.624-.31a43.92 43.92 0 0 1-14.647-4.417l-2.358-1.191a3.207 3.207 0 0 0-4.517 1.936l-1.06 3.52c-2.236 7.41 1.961 15.23 9.373 17.465 7.411 2.235 15.23-1.962 17.465-9.373z" fill="#E27800" stroke="#FFBB31" stroke-width="4"/><path d="M97.662 55.339a1.202 1.202 0 0 0-.896-.582l-2.624-.31a45.919 45.919 0 0 1-15.314-4.618l-2.358-1.191a1.207 1.207 0 0 0-1.7.728l-1.06 3.52a12.026 12.026 0 0 0-.512 3.19c.364.38.876.616 1.444.616h2.502a2 2 0 0 0 1.853-1.246 2 2 0 0 0 1.853 1.246h2.502a2 2 0 0 0 1.853-1.246 2 2 0 0 0 1.853 1.246h2.502a2 2 0 0 0 1.853-1.246 2 2 0 0 0 1.853 1.246h2.502a2 2 0 0 0 1.894-1.353z" fill="#FFF1A2"/><path d="M89.595 67.544a11.965 11.965 0 0 1-7.85.315 11.99 11.99 0 0 1-7.529-6.663 11.473 11.473 0 0 1 4.652-.978c4.881 0 9.053 3.038 10.727 7.326z" fill="#FFB100"/><path d="M88.4 44.114c.132 0 1.298 1.852 2.486 3.795 1.182 1.933-.22 4.398-2.486 4.398-2.267 0-3.669-2.465-2.487-4.398 1.188-1.943 2.355-3.795 2.487-3.795z" fill="#EE8917"/><path fill-rule="evenodd" clip-rule="evenodd" d="M105.65 27.192a2.535 2.535 0 0 0 .036-3.584c-1.743-1.779-4.058-3.154-5.505-3.802a2.534 2.534 0 1 0-2.072 4.626c1.025.459 2.764 1.506 3.957 2.724.98 1 2.584 1.016 3.584.036z" fill="#FFB100"/><rect x="19.944" y="85.534" width="55.428" height="32.5" rx="2" transform="rotate(-11.73 19.944 85.534)" fill="#E27800"/><path d="M19.74 84.555a2 2 0 0 1 1.552-2.365l50.354-10.455a2 2 0 0 1 2.365 1.551l5.184 24.968a2 2 0 0 1-1.552 2.365L27.29 111.074a2 2 0 0 1-2.365-1.551l-5.184-24.968z" fill="#FFBB31"/><path d="M26.318 97.105a6.488 6.488 0 0 1 5.034-7.672l2.615-.543a2 2 0 0 1 2.365 1.552l1.825 8.789a2 2 0 0 1-1.552 2.364l-2.615.543a6.488 6.488 0 0 1-7.672-5.033zM72.947 87.423a6.488 6.488 0 0 0-7.672-5.034l-2.615.543a2 2 0 0 0-1.552 2.365l1.825 8.789a2 2 0 0 0 2.365 1.551l2.616-.543a6.488 6.488 0 0 0 5.033-7.671zM58.91 85.754a2 2 0 0 0-2.365-1.552L40.21 87.594a2 2 0 0 0-1.552 2.365l1.825 8.789a2 2 0 0 0 2.365 1.551l16.335-3.392a2 2 0 0 0 1.552-2.365l-1.825-8.788z" fill="#FFCA00"/><path fill-rule="evenodd" clip-rule="evenodd" d="M24.19 86.249a.5.5 0 0 0-.388.59l.381 1.837a1.5 1.5 0 0 1-1.163 1.773l-1.959.407-.203-.98 1.958-.406a.5.5 0 0 0 .388-.591l-.38-1.836a1.5 1.5 0 0 1 1.163-1.774l46.416-9.638a1.5 1.5 0 0 1 1.774 1.164l.38 1.836a.5.5 0 0 0 .592.388l1.958-.407.204.98-1.959.406a1.5 1.5 0 0 1-1.773-1.164l-.382-1.836a.5.5 0 0 0-.59-.388L24.19 86.25z" fill="#E27800"/><path opacity=".75" d="M30.192 101.782a5.7 5.7 0 0 1-.175-.075l-1.2-5.78.868-.18.273 1.312c.29-1.101.8-2.128 1.489-3.021a6.56 6.56 0 0 1 .814-.225l2.615-.543a2 2 0 0 1 2.365 1.552l.003.014a4.473 4.473 0 0 0-2.592 7.165l-.662.138a6.463 6.463 0 0 1-3.777-.348l-.021-.009z" fill="#E27800"/><path d="M33.154 102.257a8.456 8.456 0 0 1-4.206-5.698 8.454 8.454 0 0 1 1.59-6.901 6.56 6.56 0 0 1 .814-.225l2.615-.543a2 2 0 0 1 2.365 1.552l.003.015a4.473 4.473 0 0 0 1.819 8.759l.003.015a2 2 0 0 1-1.552 2.364l-2.615.543c-.28.059-.559.098-.836.119z" fill="#E27800"/><path d="M36.335 90.457l1.819 8.759a4.473 4.473 0 0 1-1.82-8.76z" fill="#FFF1A2"/><path opacity=".4" d="M67.72 95.135l-1.32-6.353a4.473 4.473 0 0 0-5.288-3.47l1.822 8.774a2 2 0 0 0 2.364 1.551l2.422-.502z" fill="#FFF1A2"/><path d="M52.484 90.503c.359-.9 1.66-.814 1.898.125l.51 2.016a1 1 0 0 0 .904.753l2.076.136c.966.064 1.287 1.328.467 1.844l-1.76 1.11a1 1 0 0 0-.435 1.091l.51 2.016c.239.939-.864 1.634-1.608 1.015l-1.599-1.331a1 1 0 0 0-1.173-.077l-1.76 1.109c-.819.516-1.82-.317-1.461-1.217l.771-1.932a1 1 0 0 0-.289-1.14l-1.598-1.33c-.745-.62-.261-1.83.705-1.766l2.076.137a1 1 0 0 0 .994-.627l.772-1.932zM53.567 81.687c.216-.694 1.194-.706 1.427-.017l.363 1.073a.75.75 0 0 0 .72.51l1.132-.014c.727-.009 1.04.917.457 1.351l-.908.677a.75.75 0 0 0-.263.842l.364 1.073c.233.689-.551 1.273-1.144.853l-.925-.655a.75.75 0 0 0-.882.01l-.908.677c-.583.434-1.38-.13-1.164-.824l.337-1.082a.75.75 0 0 0-.283-.835l-.924-.655c-.593-.42-.303-1.353.424-1.362l1.133-.014a.75.75 0 0 0 .707-.526l.337-1.082zM41.937 85.483c-.338-.908.682-1.719 1.49-1.184l.99.656a1 1 0 0 0 1.174-.05l.93-.739c.758-.602 1.844.118 1.585 1.051l-.318 1.144a1 1 0 0 0 .41 1.102l.99.655c.808.536.459 1.791-.509 1.833l-1.186.051a1 1 0 0 0-.92.731l-.319 1.144c-.26.934-1.561.99-1.9.082l-.415-1.112a1 1 0 0 0-.98-.65l-1.186.051c-.968.042-1.424-1.18-.665-1.782l.93-.738a1 1 0 0 0 .314-1.133l-.415-1.112zM62.93 94.071a4.473 4.473 0 0 0-1.818-8.76l1.818 8.76zM36.883 10.337c.206-1.927 2.756-2.465 3.722-.786l2.946 5.12a2 2 0 0 0 2.147.96l5.78-1.22c1.895-.4 3.195 1.86 1.897 3.297l-3.96 4.384a2 2 0 0 0-.248 2.338l2.946 5.12c.966 1.679-.781 3.614-2.55 2.823l-5.393-2.41a2 2 0 0 0-2.3.485l-3.959 4.384c-1.299 1.438-3.678.374-3.473-1.552l.626-5.874a2 2 0 0 0-1.173-2.038l-5.392-2.41c-1.77-.79-1.493-3.383.403-3.783l5.78-1.22a2 2 0 0 0 1.575-1.745l.626-5.873zM42.982 44.334c.844-1.744 3.426-1.389 3.768.518l.628 3.498a2 2 0 0 0 1.696 1.629l3.52.484c1.92.264 2.38 2.83.672 3.744l-3.133 1.678a2 2 0 0 0-1.024 2.116l.627 3.499c.343 1.907-1.956 3.137-3.353 1.795l-2.564-2.46a2 2 0 0 0-2.33-.321l-3.132 1.678c-1.708.914-3.589-.891-2.745-2.635l1.549-3.199a2 2 0 0 0-.415-2.314l-2.564-2.461c-1.398-1.342-.262-3.688 1.657-3.425l3.521.485a2 2 0 0 0 2.073-1.11l1.549-3.2zM16.055 27.986c.845-1.744 3.427-1.389 3.77.518l1.438 8.022a2 2 0 0 0 1.696 1.628l8.073 1.11c1.92.264 2.38 2.83.672 3.745l-7.184 3.847a2 2 0 0 0-1.024 2.116l1.438 8.022c.342 1.907-1.956 3.137-3.353 1.795l-5.88-5.643a2 2 0 0 0-2.328-.32l-7.185 3.846c-1.708.915-3.588-.89-2.744-2.634l3.551-7.335a2 2 0 0 0-.415-2.314L.7 38.745c-1.398-1.342-.262-3.688 1.658-3.424l8.073 1.11a2 2 0 0 0 2.073-1.11l3.55-7.335zM102.74 90.306c.844-1.744 3.426-1.39 3.768.518l1.083 6.035a2 2 0 0 0 1.696 1.629l6.075.835c1.919.264 2.379 2.83.671 3.745l-5.405 2.894a2 2 0 0 0-1.025 2.116l1.083 6.036c.342 1.907-1.956 3.137-3.354 1.796l-4.423-4.247a2 2 0 0 0-2.329-.32l-5.406 2.895c-1.708.914-3.588-.891-2.744-2.635l2.672-5.519a2 2 0 0 0-.416-2.314l-4.423-4.247c-1.398-1.341-.262-3.688 1.658-3.424l6.074.836a2 2 0 0 0 2.073-1.11l2.672-5.52z" fill="#FFF1A2"/><path opacity=".6" d="M28.782 63.748c.306-.573 1.16-.455 1.3.18l.74 3.338a.7.7 0 0 0 .353.466l3.015 1.613c.573.306.456 1.16-.179 1.3l-3.339.74a.7.7 0 0 0-.466.352l-1.612 3.016c-.307.573-1.16.456-1.3-.179l-.74-3.339a.7.7 0 0 0-.353-.466l-3.015-1.612c-.573-.307-.456-1.16.178-1.301l3.34-.739a.7.7 0 0 0 .465-.353l1.613-3.016zM80.414 109.367c-.096-.643.66-1.058 1.15-.632l2.186 1.897c.154.133.36.193.561.163l2.862-.424c.643-.095 1.057.661.631 1.151l-1.896 2.185a.701.701 0 0 0-.164.562l.424 2.861c.096.643-.66 1.058-1.15.632l-2.186-1.897a.703.703 0 0 0-.561-.163l-2.862.424c-.643.095-1.057-.66-.631-1.151l1.896-2.185a.701.701 0 0 0 .164-.562l-.424-2.861z" fill="#FFF1A2"/><path d="M63.14 115.855c-.095-.643.66-1.058 1.151-.632l.59.511a.7.7 0 0 0 .56.164l.772-.114c.643-.096 1.057.66.631 1.151l-.51.589a.699.699 0 0 0-.165.561l.115.771c.095.643-.66 1.058-1.152.632l-.588-.511a.7.7 0 0 0-.562-.164l-.771.114c-.643.096-1.057-.66-.631-1.151l.51-.589a.699.699 0 0 0 .164-.561l-.114-.771zM14.65 99.531c-.096-.643.66-1.057 1.15-.631l.59.51a.7.7 0 0 0 .561.164l.771-.114c.643-.095 1.057.661.632 1.151l-.511.589a.7.7 0 0 0-.164.562l.114.771c.096.643-.66 1.057-1.151.631l-.589-.511a.7.7 0 0 0-.561-.164l-.772.115c-.642.095-1.057-.661-.63-1.152l.51-.588a.702.702 0 0 0 .164-.562l-.114-.771z" fill="#FFF1A2"/><path opacity=".6" d="M18.36 107.979c.075-.645.912-.85 1.276-.312l.867 1.283c.114.169.296.28.5.303l1.537.177c.645.075.85.912.312 1.276l-1.283.866a.701.701 0 0 0-.303.5l-.177 1.538c-.075.645-.912.85-1.276.311l-.866-1.282a.704.704 0 0 0-.5-.304l-1.537-.177c-.646-.074-.85-.911-.312-1.275l1.282-.866a.701.701 0 0 0 .304-.5l.177-1.538z" fill="#FFF1A2"/><path d="M112.259 88.795c-.096-.643.66-1.057 1.151-.631l1.332 1.156a.699.699 0 0 0 .561.163l1.745-.258c.643-.096 1.057.66.631 1.15l-1.156 1.333a.7.7 0 0 0-.164.561l.259 1.745c.095.643-.66 1.057-1.151.631l-1.332-1.156a.7.7 0 0 0-.562-.163l-1.744.258c-.643.096-1.058-.66-.632-1.151l1.156-1.332a.7.7 0 0 0 .164-.561l-.258-1.745z" fill="#FFF1A2"/></g><defs><clipPath id="clip0"><path fill="#fff" d="M0 0h135v124H0z"/></clipPath></defs></svg>