<svg viewBox="0 0 135 124" fill="none" xmlns="http://www.w3.org/2000/svg"><g clip-path="url(#clip0)"><path d="M107 11H28c-9.389 0-17 7.611-17 17v79c0 9.389 7.611 17 17 17h79c9.389 0 17-7.611 17-17V28c0-9.389-7.611-17-17-17z" fill="#FFCA00"/><path d="M122.44 20.93L20.92 122.45a16.938 16.938 0 0 0 7.08 1.56h41.32L124 69.33V28.01a16.938 16.938 0 0 0-1.56-7.08zM50.32 69.07l58-58c-.43 0-.87-.07-1.31-.07H58.42L25.34 44.09c-6.904 6.904-6.904 18.096 0 25s18.097 6.904 25 0l-.02-.02z" fill="#FFD900"/><path fill-rule="evenodd" clip-rule="evenodd" d="M91.658 32.06l-49.01 70.504 64.91 17.393-5.586-85.032a5.67 5.67 0 0 0-10.314-2.864z" fill="#F89700"/><path d="M50.038 87.152l59.84 16.034c5.601 1.501 8.925 7.258 7.424 12.86-1.501 5.601-7.258 8.925-12.86 7.424l-59.839-16.034c-5.601-1.501-8.925-7.258-7.424-12.86 1.5-5.6 7.258-8.925 12.86-7.424z" fill="#E27903"/><path d="M94.451 97.072a4 4 0 0 1 6.129 5.143l-9.031 10.762a4 4 0 1 1-6.129-5.142l9.031-10.763z" fill="#E27903"/><path d="M104.676 97.43a4 4 0 1 1 3.381 7.251l-12.733 5.937a4 4 0 1 1-3.381-7.25l12.733-5.938zM56.606 95.558a4 4 0 0 1 5.657 5.657l-9.935 9.935a4 4 0 0 1-5.657-5.657l9.935-9.935z" fill="#E27903"/><path d="M43.69 110.81a4 4 0 1 1-3.253-7.308l12.835-5.715a4 4 0 1 1 3.254 7.309L43.69 110.81z" fill="#E27903"/><path d="M72.28 36.219l-7.793-4.5a2 2 0 0 0-2.732.732l-1 1.732a2 2 0 0 0 .732 2.732l7.794 4.5a2 2 0 0 0 2.732-.732l1-1.732a2 2 0 0 0-.732-2.732zM31.897 114.348l-7.794 4.5a2 2 0 0 1-2.732-.732l-1-1.732a2 2 0 0 1 .732-2.732l7.794-4.5a2 2 0 0 1 2.732.732l1 1.732a2 2 0 0 1-.732 2.732z" fill="#F89700"/><path d="M125.897 40.348l-7.794 4.5a2 2 0 0 1-2.732-.732l-1-1.732a2 2 0 0 1 .732-2.733l7.794-4.5a2 2 0 0 1 2.732.733l1 1.732a2 2 0 0 1-.732 2.732z" fill="#E27903"/><path d="M21.454 93.251l7.795 4.5a2 2 0 0 0 2.732-.732l1-1.732a2 2 0 0 0-.732-2.732l-7.795-4.5a2 2 0 0 0-2.732.732l-1 1.732a2 2 0 0 0 .732 2.732z" fill="#FFB100"/><path fill-rule="evenodd" clip-rule="evenodd" d="M74.922 8.403l6.886 6.589a2 2 0 0 1-.865 3.377l-9.555 2.56a2 2 0 0 1-2.438-2.492l2.67-9.149a2 2 0 0 1 3.302-.885zM12.882 95.618l4.96 4.914a2 2 0 0 1-.891 3.353l-6.796 1.821a2 2 0 0 1-2.447-2.458l1.837-6.736a2 2 0 0 1 3.337-.894z" fill="#E27903"/><path fill-rule="evenodd" clip-rule="evenodd" d="M127.635 72.366l-7.334 4.168a2 2 0 0 1-2.987-1.809l.309-8.836a2 2 0 0 1 3.105-1.596l7.026 4.669a2 2 0 0 1-.119 3.404z" fill="#FFB100"/><path d="M103.725 5.524a3 3 0 0 0-5.942.835l2.526 17.974a3 3 0 0 0 5.942-.835l-2.526-17.974z" fill="#E27903"/><path d="M109.919 9.52a3 3 0 1 0-4.791-3.611L94.205 20.404a3 3 0 0 0 4.791 3.61L109.92 9.52z" fill="#E27903"/><path d="M111.475 16.724a3 3 0 1 0-.835-5.941l-17.973 2.526a3 3 0 1 0 .835 5.941l17.973-2.526z" fill="#E27903"/><path d="M107.48 22.919a3.001 3.001 0 0 0 3.611-4.792L96.596 7.204a3 3 0 1 0-3.611 4.792l14.495 10.923z" fill="#E27903"/><path fill-rule="evenodd" clip-rule="evenodd" d="M96.196 29.644a5.67 5.67 0 0 0-4.284 2.421l-9.689 13.94h20.731l-.728-11.075a5.67 5.67 0 0 0-6.03-5.286zM103.873 60.162H72.491l-13.903 20h46.598l-1.313-20z" fill="#E27903"/><path d="M9.742 13.093L39.344 5.16a3.78 3.78 0 0 1 4.63 2.673l15.164 56.593a3.78 3.78 0 0 1-2.673 4.63l-29.603 7.932a3.78 3.78 0 0 1-4.63-2.673L7.07 17.722a3.78 3.78 0 0 1 2.673-4.63z" fill="#FFD900" stroke="#E27903" stroke-width="4.725" stroke-linejoin="round"/><path d="M15.017 22.44l24.433-6.546a2 2 0 0 1 2.45 1.414l9.97 37.212a2 2 0 0 1-1.414 2.45l-24.433 6.546a2 2 0 0 1-2.45-1.414l-9.97-37.212a2 2 0 0 1 1.414-2.45z" fill="#E27903"/><path d="M40.44 68.459a3.308 3.308 0 1 1-1.711-6.39 3.308 3.308 0 0 1 1.712 6.39z" fill="#F89700"/><path d="M21.658 14.791l7.302-1.956a1.89 1.89 0 0 1 .979 3.651l-7.302 1.957a1.89 1.89 0 1 1-.979-3.652z" fill="#E27903"/><path d="M27.334 52.404l15.518-4.158a3.307 3.307 0 1 1 1.712 6.39l-15.518 4.157a3.308 3.308 0 1 1-1.712-6.39z" fill="#F89700"/><path d="M40.513 52.297a3.308 3.308 0 1 1 6.39-1.712 3.308 3.308 0 0 1-6.39 1.712z" fill="#FFB100"/><path fill-rule="evenodd" clip-rule="evenodd" d="M31.083 35.515a6.5 6.5 0 0 0-4.596 7.961l1.252 4.675 12.557-3.364-1.252-4.675a6.5 6.5 0 0 0-7.961-4.597z" fill="#F89700"/><path d="M23.122 30.92a6.5 6.5 0 0 1 12.557-3.365l.259.966a6.5 6.5 0 0 1-12.557 3.364l-.259-.966z" fill="#FFC800"/><path d="M29.56 27.898a1.247 1.247 0 0 1 2.409-.645l.39 1.454a1.247 1.247 0 0 1-2.41.645l-.39-1.454zM26.661 28.675a1.247 1.247 0 0 1 2.41-.646l.39 1.454a1.247 1.247 0 0 1-2.41.646l-.39-1.454z" fill="#F89700"/><path d="M32.265 32.093a2.92 2.92 0 0 1-3.408.913" stroke="#F89700" stroke-linecap="round" stroke-linejoin="round"/></g><defs><clipPath id="clip0"><path fill="#fff" d="M0 0h135v124H0z"/></clipPath></defs></svg>