<svg viewBox="0 0 135 124" version="1.1" xmlns="http://www.w3.org/2000/svg" xmlns:xlink="http://www.w3.org/1999/xlink"><defs><path d="M5.578 0c1.04 0 1.957.68 2.259 1.676l1.994 6.58a28.468 28.468 0 0 1 0 16.512l-1.994 6.58a2.36 2.36 0 0 1-4.519 0l-1.993-6.58a28.468 28.468 0 0 1 0-16.512l1.993-6.58A2.36 2.36 0 0 1 5.578 0z" id="a"/></defs><g stroke="none" stroke-width="1" fill="none" fill-rule="evenodd"><g transform="translate(11 11)" fill="#1CB0F6"><rect x="0" y="0" width="113" height="113" rx="17"/></g><g><g fill="#D4E8EB" fill-rule="nonzero"><path d="M62.137 113.493l-1.995-2.573a50.037 50.037 0 0 1-10.465-32.21l.107-3.453-2.615-1.333a4.003 4.003 0 1 1 3.635-7.133l3.557 1.812 16.464-9.16a50.037 50.037 0 0 1 18.305-5.948l18.99-2.301.004-.005c.25-.315.54-.58.856-.796l1.53-3.002a4.003 4.003 0 1 1 7.133 3.635l-1.76 3.455 1.682 2.172a50.037 50.037 0 0 1 10.465 32.209l-.079 2.545 3.37 1.717a4.003 4.003 0 1 1-3.634 7.133l-2.577-1.313a3.86 3.86 0 0 1-1.506-.113l-.005-.002-16.717 9.3a50.037 50.037 0 0 1-18.305 5.948l-18.922 2.294-1.674 3.286a4.003 4.003 0 0 1-7.133-3.635l1.289-2.53z"/></g><path d="M83.034 82.276a2.001 2.001 0 0 1 .565-3.963c7.624 1.087 13.828 4.066 18.537 8.936a2.001 2.001 0 1 1-2.878 2.783c-4.065-4.205-9.45-6.79-16.224-7.756z" fill="#B5D5DA" fill-rule="nonzero"/><g transform="rotate(-18 276.61 -121.043)"><mask id="b" fill="#fff"><use xlink:href="#a"/></mask><use fill="#FFF" fill-rule="nonzero" xlink:href="#a"/><path d="M.824 5.004h11.008a2.001 2.001 0 0 1 0 4.003H.824a2.001 2.001 0 0 1 0-4.003zM.824 15.011h11.008a2.001 2.001 0 0 1 0 4.003H.824a2.001 2.001 0 0 1 0-4.003zM.824 25.018h11.008a2.001 2.001 0 0 1 0 4.003H.824a2.001 2.001 0 1 1 0-4.003z" fill="#8FE5FF" fill-rule="nonzero" mask="url(#b)"/></g></g><rect fill="#E9F1F2" x="1" y="21" width="46" height="46" rx="23"/><rect fill="#E9F1F2" x="19" y="70" width="17" height="17" rx="8.5"/><rect fill="#E9F1F2" x="35" y="86" width="10" height="10" rx="5"/><rect fill="#E9F1F2" x="63" y="3" width="39" height="39" rx="19.5"/><rect fill="#E9F1F2" x="23" y="1" width="58" height="58" rx="29"/><g transform="rotate(-115 31.113 20.45)"><rect fill="#FFD68E" x="0" y="1" width="24" height="35" rx="1"/><path d="M4 1h2v19a1 1 0 0 1-2 0V1zM9 1h2v13a1 1 0 0 1-2 0V1z" fill="#F2BB73"/><path d="M12 1v2A7 7 0 0 1 0 7.898V2a1 1 0 0 1 1-1h11zM23 1a1 1 0 0 1 1 1l.001 5.464A4 4 0 0 1 18 4V1h5z" fill="#CE82FF"/><path d="M24 37v2a3 3 0 0 1-3 3h-2.938a2.64 2.64 0 0 0-2.562 2 11.98 11.98 0 0 0-.303 4.052l1.777 18.473a4.997 4.997 0 1 1-9.948 0l1.777-18.473A11.98 11.98 0 0 0 8.5 44a2.64 2.64 0 0 0-2.562-2H3a3 3 0 0 1-3-3v-2h24zM12 65a1.5 1.5 0 1 0 0 3 1.5 1.5 0 0 0 0-3z" fill="#E5A259"/><path fill="#ACC5CB" d="M0 29h24v9H0z"/><path fill="#95ABB4" d="M0 34h24v2H0z"/><rect fill="#CE82FF" x="0" y="0" width="24" height="4" rx="2"/></g><rect fill="#CE82FF" x="24" y="46" width="5" height="14" rx="2.5"/></g></svg>