<svg viewBox="0 0 135 124" fill="none" xmlns="http://www.w3.org/2000/svg"><g clip-path="url(#clip0)"><path d="M11 27.925c0-9.388 7.611-17 17-17h79c9.389 0 17 7.612 17 17v79.001c0 9.388-7.611 17-17 17H28c-9.389 0-17-7.612-17-17v-79z" fill="#9069CD"/><path d="M120.612 62.557c-.75 1.602-6.247 6.218-6.692 6.01-.445-.209-.413-7.387.337-8.988.751-1.601 2.782-2.233 4.537-1.41 1.755.822 2.569 2.787 1.818 4.388zM54.52 112.869c.981-1.616 7.349-5.894 7.798-5.622.449.273-.404 7.896-1.384 9.512-.98 1.616-3.211 2.055-4.982.981-1.771-1.074-2.412-3.255-1.431-4.871zM5.821 55.111c1.366-1.41 8.8-4.273 9.192-3.894.392.38-2.23 7.902-3.595 9.312-1.366 1.41-3.726 1.34-5.271-.156s-1.691-3.852-.326-5.262zM128.456 73.211c-1.963 1.133-11.128 1.957-11.443 1.412-.315-.546 4.981-8.07 6.945-9.203 1.963-1.133 4.562-.308 5.804 1.844 1.243 2.151.658 4.814-1.306 5.947z" fill="#A3FFFF"/><path fill-rule="evenodd" clip-rule="evenodd" d="M30.341 41.206c-1.705 3.34-5.798 4.637-9.357 3.456-3.353-1.113-6.664-1.837-9.484-2.284-3.704-.588-6.775-3.666-6.803-7.416l-.055-7.391c-.051-6.965 5.585-12.62 12.446-11.423 4.914.857 10.526 2.26 16.153 4.465 3.492 1.368 4.812 5.486 3.107 8.826L30.34 41.206zM50.69 36.975c2.158 3.066 6.393 3.773 9.75 2.102 3.163-1.574 6.338-2.757 9.067-3.597 3.585-1.104 6.192-4.584 5.69-8.3l-.986-7.326c-.93-6.902-7.307-11.707-13.931-9.555-4.744 1.54-10.102 3.72-15.363 6.696-3.264 1.846-3.991 6.109-1.832 9.175l7.604 10.805z" fill="#3D3D3D"/><path d="M20.435 22.452l35.872-2.539 1.553 21.948L21.99 44.4l-1.554-21.949z" fill="#3D3D3D"/><path d="M20.847 15.193c-1.046-6.311 3.133-12.26 9.335-13.289L38.298.558C44.5-.47 50.376 3.812 51.423 10.122l1.133 6.834c1.046 6.31-3.133 12.26-9.335 13.288l-8.116 1.346c-6.202 1.028-12.078-3.254-13.125-9.564l-1.133-6.833z" fill="#3D3D3D"/><path d="M55.593 39.383a8.72 8.72 0 0 1 9.313 8.082l1.54 21.745c.4 5.644-3.853 10.544-9.497 10.944l-25.224 1.785c-5.645.4-10.544-3.852-10.944-9.496l-1.54-21.745a8.72 8.72 0 0 1 8.083-9.314l28.269-2.001z" fill="#A46648"/><path fill-rule="evenodd" clip-rule="evenodd" d="M28.95 64.955a.728.728 0 0 1 1.018-.143c1.082.816 2.607 1.288 4.284 1.17 1.677-.12 3.12-.802 4.076-1.762a.727.727 0 1 1 1.031 1.027c-1.221 1.227-3.002 2.044-5.004 2.186-2.002.142-3.88-.417-5.263-1.459a.728.728 0 0 1-.143-1.019zM47.153 63.667a.728.728 0 0 1 1.02-.143c1.08.816 2.606 1.288 4.283 1.17 1.677-.12 3.12-.802 4.076-1.762a.728.728 0 0 1 1.032 1.027c-1.222 1.227-3.003 2.044-5.005 2.186-2.002.142-3.88-.417-5.263-1.46a.728.728 0 0 1-.143-1.018z" fill="#86401F" fill-opacity=".5"/><path d="M44.53 58.996a5.187 5.187 0 0 1 4.809-5.54l1.279-.091a5.187 5.187 0 1 1 .733 10.349l-1.28.09a5.187 5.187 0 0 1-5.54-4.808z" fill="#fff"/><path fill-rule="evenodd" clip-rule="evenodd" d="M45.65 55.879a2.102 2.102 0 0 0 1.491-3.41 2.58 2.58 0 0 1 3.595 2.188l.23 3.24a2.58 2.58 0 0 1-5.147.364l-.169-2.383z" fill="#3D3D3D"/><path d="M41.294 64.415a1.905 1.905 0 1 0 3.801-.269c-.074-1.05-2.068-3.355-2.147-3.35-.08.006-1.728 2.57-1.654 3.62z" fill="#86401F"/><path d="M39.581 38.034a8.82 8.82 0 0 1 11.426-5.002l-.906 2.316a8.82 8.82 0 0 1-11.426 5.002l.906-2.316z" fill="#FDB02A"/><path d="M29.174 38.018a8.82 8.82 0 0 0 12.456.648l-1.665-1.848a8.82 8.82 0 0 0-12.456-.648l1.665 1.848z" fill="#FDB02A"/><path d="M40.41 65.006a1.962 1.962 0 0 1 1.818-2.095l1.739-.124a1.962 1.962 0 0 1 .277 3.914l-1.74.123a1.962 1.962 0 0 1-2.095-1.818z" fill="#86401F"/><path d="M15.338 43.117l26.237-4.35 2.861 5.37L19.759 57.86l-4.42-14.742z" fill="#FDB02A"/><path d="M66.748 36.407L40.22 38.285l-1.83 6.28 27.38 9.854.98-18.012z" fill="#FDB02A"/><path d="M70.683 58.98a5.2 5.2 0 1 1-10.373.735 5.2 5.2 0 0 1 10.373-.734zM25.185 62.415a5.2 5.2 0 1 1-10.372.734 5.2 5.2 0 0 1 10.372-.734z" fill="#A46648"/><path d="M29.599 59.87a5.37 5.37 0 0 1 4.977-5.734l.916-.065a5.37 5.37 0 0 1 .758 10.712l-.916.065A5.37 5.37 0 0 1 29.6 59.87z" fill="#fff"/><path d="M34.485 55.808a2.58 2.58 0 0 1 5.147-.365l.23 3.24a2.58 2.58 0 0 1-5.147.365l-.23-3.24z" fill="#4B4B4B"/><path d="M27.951 58.412a8.488 8.488 0 0 1 7.87-7.89l12.5-.885a8.489 8.489 0 0 1 9.067 7.868l.06.847-14.89.04-14.746 2.057.139-2.037z" fill="#A46648"/><path fill-rule="evenodd" clip-rule="evenodd" d="M41.134 53.873c-3.089 3.456-7.35 3.543-9.159 3.14a.97.97 0 0 1 .422-1.894c1.354.302 4.809.238 7.29-2.54a.97.97 0 1 1 1.447 1.294zM43.82 51.584c3.545 2.987 7.776 2.472 9.51 1.819a.97.97 0 0 0-.685-1.816c-1.298.49-4.727.913-7.575-1.487a.97.97 0 1 0-1.25 1.484z" fill="#884727"/><path d="M43.404 78.783a2.649 2.649 0 0 1 2.316-2.945l7.324-.876a2.65 2.65 0 0 1 2.945 2.316 1.035 1.035 0 0 1-1.061 1.157l-4.408-.14a5.232 5.232 0 0 0-1.562.187l-4.25 1.176a1.035 1.035 0 0 1-1.303-.875z" fill="#3D3D3D"/><path fill-rule="evenodd" clip-rule="evenodd" d="M43.936 76.852a2.642 2.642 0 0 1 1.784-1.014l7.324-.876a2.642 2.642 0 0 1 1.976.568c.52.418.883 1.033.969 1.748a1.035 1.035 0 0 1-1.061 1.157l-4.407-.14a5.231 5.231 0 0 0-1.563.187l-4.25 1.176a1.035 1.035 0 0 1-1.303-.875 2.64 2.64 0 0 1 .528-1.927l.003-.004zm1.439-3.904l7.323-.876a5.56 5.56 0 0 1 6.18 4.86 3.945 3.945 0 0 1-4.043 4.412l-4.407-.14a2.323 2.323 0 0 0-.694.083l-4.25 1.176a3.945 3.945 0 0 1-4.97-3.334 5.56 5.56 0 0 1 4.86-6.18z" fill="#A46648"/><path d="M62.793 76.846c.912-10.183 9.907-17.698 20.09-16.785l10.674.956c10.182.913 17.697 9.907 16.785 20.09l-.038.418c-.912 10.183-9.907 17.698-20.09 16.785l-10.674-.956c-10.182-.913-17.697-9.907-16.785-20.09l.038-.418z" fill="#3D3D3D"/><path d="M63.363 95.91a5.55 5.55 0 1 1 1.214-10.273c2.552-7.572 10.032-12.697 18.34-11.953l27.532 2.468c8.341.747 14.809 7.17 15.936 15.118a5.55 5.55 0 1 1-.626 10.146c-2.001 8.409-9.922 14.296-18.784 13.502l-8.079-.724a3.938 3.938 0 0 1-4.48 1.317l-4.135-1.503c-.22-.08-.45-.127-.683-.138l-4.394-.206a3.917 3.917 0 0 1-2.334-.906l-3.428-.307c-8.833-.792-15.565-7.949-16.079-16.541z" fill="#FFCBA3"/><path d="M84.376 109.529a2.643 2.643 0 0 1 3.111-2.072l7.215 1.447a2.643 2.643 0 0 1 2.071 3.111c-.124.62-.771.983-1.365.767l-4.135-1.503a5.225 5.225 0 0 0-1.539-.309l-4.394-.207a1.033 1.033 0 0 1-.964-1.234z" fill="#3D3D3D"/><path d="M64.701 96.755a2.674 2.674 0 1 1-5.327-.477 2.674 2.674 0 0 1 5.327.477z" fill="#C86902"/><path d="M95.067 94.79c.125.01 1.07 1.858 2.027 3.793.952 1.926-.58 4.135-2.72 3.943-2.14-.192-3.256-2.638-1.976-4.363 1.286-1.734 2.544-3.385 2.669-3.373z" fill="#E99B5F"/><path d="M102.249 99.332a6.171 6.171 0 0 0 6.697-5.595l-12.286-3.74-.235 2.618a6.17 6.17 0 0 0 5.595 6.697l.229.02zM87.192 97.983a6.17 6.17 0 0 1-5.595-6.696l12.754-1.482-.234 2.604a6.17 6.17 0 0 1-6.696 5.595l-.23-.02z" fill="#fff"/><path d="M98.816 89.381a2.83 2.83 0 1 1 5.639.505l-.247 2.76a2.831 2.831 0 0 1-5.64-.506l.248-2.759zM92.339 88.8a2.83 2.83 0 1 0-5.64-.505l-.246 2.76a2.83 2.83 0 0 0 5.638.505l.248-2.76z" fill="#3D3D3D"/><path d="M81.595 91.306l12.73-1.217.002-.02.36-4.016a6.17 6.17 0 0 0-5.595-6.696l-.229-.02a6.17 6.17 0 0 0-6.697 5.594l-.57 6.355v.02zM108.944 93.757l-12.343-3.1.001-.019.393-4.378a6.17 6.17 0 0 1 6.696-5.595l.229.02a6.17 6.17 0 0 1 5.595 6.697l-.569 6.355a.125.125 0 0 0-.002.02z" fill="#E99B5F"/><path d="M97.23 83.574l.497-5.543 6.085.545c5.29.474 9.194 5.147 8.72 10.438l-6.446-.578-6.005-2.117-2.851-2.745zM94.783 81.019l.414-4.612-15.664-1.403-.715 7.969 6.447.578 6.262-.753 3.256-1.78z" fill="#FFCBA3"/><path fill-rule="evenodd" clip-rule="evenodd" d="M97.59 82.231a1.44 1.44 0 0 1 1.305 1.563c-.035.39.082 1.222 1.56 2.12 1.544.937 4.449 1.839 9.623 2.11a1.44 1.44 0 0 1-.15 2.876c-5.37-.282-8.83-1.228-10.968-2.525-2.204-1.338-3.086-3.127-2.933-4.838a1.44 1.44 0 0 1 1.563-1.306zM94.728 78.956a1.44 1.44 0 0 0-1.562 1.305c-.035.39-.298 1.188-1.911 1.808-1.687.648-4.706 1.02-9.846.366a1.44 1.44 0 1 0-.363 2.857c5.334.678 8.907.362 11.241-.535 2.407-.925 3.594-2.528 3.747-4.239a1.44 1.44 0 0 0-1.306-1.562z" fill="#E99B5F"/><path d="M125.668 88.213l-9.28-.832a6.581 6.581 0 0 1-5.968-7.143l.363-4.053c7.085.768 12.768 5.64 14.885 12.028z" fill="#D6C6BA"/><path d="M70.83 62.994l14.252 1.278-2.412 26.91a7.155 7.155 0 1 1-14.252-1.278l2.411-26.91z" fill="#3D3D3D"/><path d="M62.84 76.323l9.577.858-.927 10.344a4.808 4.808 0 1 1-9.577-.858l.927-10.344zM80.762 62.383l12.362 1.108-.996 11.112a6.206 6.206 0 0 1-12.362-1.108l.996-11.112z" fill="#3D3D3D"/><path fill-rule="evenodd" clip-rule="evenodd" d="M80.525 96.892a.726.726 0 0 1 1.026-.02c1.036.993 2.614 1.724 4.462 1.89 1.847.165 3.53-.274 4.726-1.067a.726.726 0 1 1 .803 1.209c-1.5.996-3.52 1.495-5.659 1.304-2.139-.192-4.038-1.043-5.337-2.29a.726.726 0 0 1-.02-1.026zM97.784 98.44a.726.726 0 0 1 1.026-.022c1.035.994 2.614 1.725 4.461 1.891 1.847.165 3.531-.274 4.726-1.067a.725.725 0 1 1 .803 1.209c-1.499.996-3.52 1.495-5.659 1.303-2.139-.191-4.038-1.042-5.337-2.288a.726.726 0 0 1-.02-1.027z" fill="#E99B5F" fill-opacity=".6"/><path fill-rule="evenodd" clip-rule="evenodd" d="M98.094 54.187L81.52 52.374a.694.694 0 0 1-.618-.69V9.796a.693.693 0 0 1 .77-.69l16.538 1.83 18.161-4.949 15.821 2.41a.694.694 0 0 1 .589.685v41.858a.694.694 0 0 1-.799.686l-15.675-2.41-18.213 4.972z" fill="#5ECBFF"/><path fill-rule="evenodd" clip-rule="evenodd" d="M116.25 3.883l-18.204 4.96-16.148-1.785a2.754 2.754 0 0 0-3.057 2.737v41.89a2.754 2.754 0 0 0 2.455 2.738l16.963 1.855 18.168-4.96 15.242 2.343a2.755 2.755 0 0 0 3.173-2.722V9.08a2.755 2.755 0 0 0-2.34-2.723L116.25 3.883zm14.47 6.373v39.09l-14.533-2.235-18.258 4.985-14.966-1.637V11.322l15.41 1.704 18.119-4.937 14.228 2.167z" fill="#DDF4FF"/><path fill-rule="evenodd" clip-rule="evenodd" d="M116.275 48.197l15.508 2.393V28.902h-13.394a8.114 8.114 0 0 0-8.114 8.114v12.805l6-1.623z" fill="#9DE630"/><path fill-rule="evenodd" clip-rule="evenodd" d="M132.949 27.736h-14.56a9.28 9.28 0 0 0-9.28 9.28v14.328l7.232-1.957 16.608 2.563V27.736zm-2.332 2.332v19.163l-14.408-2.224-4.768 1.29v-11.28a6.948 6.948 0 0 1 6.948-6.949h12.228z" fill="#DDF4FF"/><path fill-rule="evenodd" clip-rule="evenodd" d="M103.86 23.814c.308-.019.616-.06.922-.125l.017-.004 8.482-1.815a6.38 6.38 0 0 0 4.907-7.556l-.046-.217a6.38 6.38 0 0 0-7.56-4.924l-.017.004-8.482 1.815a6.36 6.36 0 0 0-2.05.83l-2.05.505-15.967-2.032v21.321h13.736a8.115 8.115 0 0 0 8.104-7.704l.004-.098z" fill="#9DE630"/><path d="M119.283 13.856a7.546 7.546 0 0 0-8.942-5.824l-.01.002-8.492 1.817a7.533 7.533 0 0 0-2.259.88l-1.665.412L80.85 8.97v23.81h14.902a9.28 9.28 0 0 0 9.182-7.934l.089-.018.01-.002 8.492-1.817a7.546 7.546 0 0 0 5.804-8.937l-.046-.217z" fill="#DDF4FF"/><path opacity=".09" fill-rule="evenodd" clip-rule="evenodd" d="M116.418 3.863l-18.444 4.96v47.475l18.444-4.96V3.863z" fill="#000"/><path d="M49.81 105.163c-.352 8.888-7.757 15.812-16.542 15.465-8.784-.347-15.62-7.833-15.27-16.721.35-8.888 7.756-15.812 16.54-15.465 8.785.347 15.622 7.833 15.271 16.721z" fill="#2B70C9"/><path fill-rule="evenodd" clip-rule="evenodd" d="M16.667 85.31c.718-1.137 2.184-1.454 3.262-.774 1.077.68 1.422 2.14.704 3.277-.717 1.137-2.184 1.454-3.261.774-1.078-.68-1.422-2.14-.705-3.277zm5.29-3.987c-2.887-1.822-6.688-.916-8.503 1.959-1.815 2.875-.998 6.695 1.89 8.518 2.887 1.822 6.687.916 8.502-1.959 1.815-2.875.998-6.695-1.89-8.518z" fill="#2B70C9"/><path d="M66.082 51.275c-1.165-1.391-3.082-8.502-2.695-8.825.386-.324 7.05 2.81 8.214 4.202 1.165 1.39.874 3.554-.65 4.83-1.525 1.277-3.705 1.184-4.87-.207zM71.433 43.52c-1.04-.601-3.845-4.588-3.679-4.877.167-.29 5.022.148 6.063.749 1.04.6 1.35 2.011.691 3.151-.658 1.14-2.035 1.577-3.075.976z" fill="#A3FFFF"/><path d="M49.977 100.871c-.35 8.888-7.756 15.812-16.54 15.465-8.785-.347-15.622-7.833-15.27-16.72.35-8.889 7.756-15.813 16.54-15.466 8.785.347 15.621 7.833 15.27 16.721z" fill="#1CB0F6"/><path d="M43.859 106.471c-3.482 5.516-10.724 7.198-16.176 3.757-5.451-3.441-7.049-10.702-3.567-16.218s10.724-7.198 16.176-3.757c5.451 3.441 7.048 10.702 3.567 16.218z" fill="#fff"/><path d="M38.797 98.265c-.049-.558-.486-1.234-.972-1.507l-8.178-4.589c-.78-.438-1.35-.07-1.272.818l.804 9.229c.049.558.486 1.234.972 1.507l8.177 4.589c.78.438 1.35.069 1.272-.818l-.803-9.23z" fill="#3EBCFF"/><path d="M29.517 103.104c-.186-.279-.315-.599-.34-.887l-.804-9.23c-.077-.887.492-1.255 1.272-.817l8.177 4.589c.235.132.459.358.633.619l-8.938 5.726z" fill="#EE5855"/></g><defs><clipPath id="clip0"><path fill="#fff" d="M0 0h135v124H0z"/></clipPath></defs></svg>