<svg viewBox="0 0 135 124" version="1.1" xmlns="http://www.w3.org/2000/svg"><g stroke="none" stroke-width="1" fill="none" fill-rule="evenodd"><g><g transform="translate(-23.938 -21.688)"><rect fill="#FFCA00" x="35" y="32" width="113" height="113" rx="17"/><path d="M146.44 41.93L44.92 143.45a16.94 16.94 0 0 0 7.08 1.56h41.32L148 90.33V49.01a16.94 16.94 0 0 0-1.56-7.08zM74.32 90.07l58-58c-.43 0-.87-.07-1.31-.07H82.42L49.34 65.09c-6.904 6.904-6.904 18.096 0 25s18.096 6.904 25 0l-.02-.02z" fill="#FFD900" fill-rule="nonzero"/><path d="M127.862 111.667c8.178 0 15.439 3.926 20 9.997v7.003c0 9.389-7.611 17-17 17h-79c-9.389 0-17-7.611-17-17v-7.002c4.56-6.071 11.822-9.998 20-9.998h73z" fill="#F89700"/><path d="M92.862 50.667c28.719 0 52 23.281 52 52 0 17.874-9.018 33.642-22.753 43.001H63.614c-13.734-9.36-22.752-25.127-22.752-43.001 0-28.719 23.281-52 52-52z" fill="#F89700"/><path d="M95.903 83.667c22.074 0 39.969 17.894 39.969 39.968 0 4.244-.677 8.462-2.003 12.493l-3.14 9.539H55.005l-3.139-9.539c-6.9-20.967 4.504-43.558 25.472-50.458a39.968 39.968 0 0 1 12.493-2.003h6.072z" fill="#FFC800"/><path d="M74.933 126.505l.05.088c3.785 6.54 1.553 14.908-4.986 18.693l-.026.014-.637.367H51.862c-5.732 0-10.8-2.836-13.88-7.182a13.659 13.659 0 0 1 6.77-10.351l11.513-6.631c6.537-3.765 14.889-1.527 18.668 5.002zM107.755 126.505l-.05.088c-3.785 6.54-1.552 14.908 4.987 18.693l.025.014.637.367h17.472c5.732 0 10.8-2.836 13.88-7.182a13.659 13.659 0 0 0-6.77-10.351l-11.513-6.631c-6.537-3.765-14.889-1.527-18.668 5.002z" fill="#FFC800"/><rect fill="#FFF1A2" x="64" y="112" width="24" height="33" rx="11.88"/><rect fill="#FFF1A2" x="99" y="112" width="24" height="33" rx="11.88"/><rect fill="#E27903" x="75" y="124" width="11" height="15" rx="5.5"/><rect fill="#E27903" x="101" y="124" width="11" height="15" rx="5.5"/><path d="M99.627 99.832a39.177 39.177 0 0 0 22.603 23.475l1.438.566 12.192-12.191-24.042-24.042-12.191 12.192zM87.373 99.832a39.177 39.177 0 0 1-22.603 23.475l-1.438.566-12.192-12.191L75.182 87.64l12.191 12.192z" fill="#FFC800"/><path d="M93.362 121.667a3.5 3.5 0 0 1 3.5 3.5v20.5h-7v-20.5a3.5 3.5 0 0 1 3.5-3.5zM75.314 64.544l26.14-10.034 3.784 9.859c7.41 19.304-2.232 40.96-21.536 48.37l-35.999 13.819c-9.5-24.749 2.862-52.513 27.61-62.014z" fill="#F89700"/><path d="M108.688 69.502l-1.91 10.833c-3.932 22.3 10.958 43.565 33.258 47.497l1.91-10.833c3.932-22.3-10.958-43.565-33.258-47.497z" fill="#F89700"/><path d="M123.406 132l7.593 13H96.996a39.199 39.199 0 0 1 24.738-12.808l1.672-.192zM63.594 132l1.672.192A39.198 39.198 0 0 1 90.004 145H56l7.593-13z" fill="#FFC800"/><g transform="matrix(-1 0 0 1 65.862 136.667)" fill="#F89700"><circle cx="10.594" cy="2.268" r="2.268"/><circle cx="2.268" cy="6.804" r="2.268"/></g><g transform="translate(119.862 136.667)" fill="#F89700"><circle cx="11.406" cy="2.601" r="2.268"/><circle cx="2.268" cy="6.804" r="2.268"/></g><g fill-rule="nonzero"><g fill="#E27903"><g><path d="M68.822 95.466c-1.415.292-3.025-.155-4.831-1.34L39.343 78.714c-5.822-2.792-10.12-8.14-11.048-14.743-1.518-10.8 6.555-20.86 18.03-22.474 3.541-.497 8.188.512 13.942 3.028a2.66 2.66 0 0 1 1.57 2.793l-.898 6.652a2.66 2.66 0 0 0 .501 1.943l4.02 5.41a2.66 2.66 0 0 1 .448 2.221L63.7 72.52a2.66 2.66 0 0 0 .393 2.144l5.018 7.288a2.66 2.66 0 0 1 .468 1.586l-.332 11.422a.532.532 0 0 1-.424.506z"/></g></g><path d="M37.764 67.16c-1.64-3.693-1.84-7.689-.84-11.428" stroke="#F7F7F7" stroke-width="6.642" stroke-linecap="round" stroke-linejoin="round"/><g fill="#E27903"><g><path d="M75.928 93.922c.553-.36 1.125-.883 1.717-1.57l19.444-21.61c4.827-4.289 7.484-10.615 6.556-17.218-1.517-10.799-12.05-18.245-23.526-16.633-3.81.536-8.039 3.055-12.684 7.56a1.596 1.596 0 0 0-.457.845l-1.482 7.738a3.192 3.192 0 0 0 .737 2.706l4.121 4.695c.71.808.964 1.918.679 2.954l-2.32 8.42a3.192 3.192 0 0 0 .345 2.496l4.284 7.1c.32.53.479 1.143.457 1.763l-.336 9.358a1.596 1.596 0 0 0 2.465 1.396z"/></g></g></g></g></g></g></svg>