<svg viewBox="0 0 135 125" fill="none" xmlns="http://www.w3.org/2000/svg"><path d="M11 29c0-9.389 7.611-17 17-17h79c9.389 0 17 7.611 17 17v79c0 9.389-7.611 17-17 17H28c-9.389 0-17-7.611-17-17V29z" fill="#FF7878"/><path d="M46.534 14.428c-.01-.19-.024-.383-.043-.575-.645-6.478-6.42-11.207-12.898-10.561-6.479.645-11.207 6.42-10.562 12.898.633 6.357 6.205 11.028 12.533 10.592.01.192.025.383.044.576.645 6.478 6.42 11.207 12.898 10.561 6.478-.645 11.207-6.42 10.562-12.898-.634-6.357-6.205-11.028-12.534-10.593z" fill="#FF9600"/><rect x="12.831" y="28.862" width="71.488" height="57.24" rx="14.208" transform="rotate(-5.69 12.831 28.862)" fill="#FFC6B7"/><path fill-rule="evenodd" clip-rule="evenodd" d="M59.618 31.494a8.965 8.965 0 0 0-8.031 9.809l.54 5.426a8.965 8.965 0 0 0 17.841-1.778l-.54-5.426a8.964 8.964 0 0 0-9.81-8.031zM38.619 33.586a8.965 8.965 0 0 1 9.809 8.031l.54 5.426a8.965 8.965 0 0 1-17.84 1.778l-.541-5.426a8.965 8.965 0 0 1 8.032-9.81z" fill="#fff"/><path d="M54.77 40.35a3.262 3.262 0 0 0 2.65-4.595 4.025 4.025 0 0 1 5.1 3.474l.5 5.027a4.024 4.024 0 1 1-8.01.798l-.466-4.69c.075-.002.15-.006.227-.014zM37.561 42.064a3.263 3.263 0 0 0 2.65-4.594 4.024 4.024 0 0 1 5.1 3.474l.5 5.026a4.025 4.025 0 1 1-8.01.798l-.467-4.689c.076-.002.151-.007.227-.015z" fill="#3D3D3D"/><path d="M14.255 63.304a6.37 6.37 0 1 0-1.263-12.676 6.37 6.37 0 0 0 1.263 12.676zM89.365 55.821a6.37 6.37 0 1 0-1.263-12.676 6.37 6.37 0 0 0 1.263 12.676z" fill="#FFC6B7"/><path d="M21.929 28.928c-5.064 2.58-8.286 8.076-7.69 14.072l1.087 10.9.518-.052a8.525 8.525 0 0 0 7.638-9.328L21.93 28.928zM75.062 23.634c5.473 1.53 9.717 6.283 10.314 12.28l1.086 10.899-.519.052a8.525 8.525 0 0 1-9.328-7.638l-1.553-15.593z" fill="#FFB67A"/><path d="M48.642 43.763l-17.086 7.049a8.99 8.99 0 0 1-.428-1.991l-.541-5.426a8.965 8.965 0 0 1 17.84-1.778l.215 2.146zM51.8 43.449l18.14 3.539a8.992 8.992 0 0 0 .028-2.037l-.54-5.426a8.964 8.964 0 1 0-17.841 1.778l.213 2.146z" fill="#FEB39F"/><path fill="#FFC6B7" d="M24.822 53.137l26.799.836-.13 4.16-26.799-.835z"/><path d="M50.494 46.352c.162-.016 1.815 2.108 3.506 4.341 1.682 2.223.267 5.41-2.507 5.686-2.774.276-4.79-2.569-3.58-5.08 1.217-2.522 2.42-4.93 2.581-4.947z" fill="#EE9583"/><path d="M40.694 59.46c4.487-2.654 7.542 2.273 10.379 1.905 4.806-.625 5.595 5.343 1.16 7.04-11.383 4.358-16.026-6.29-11.539-8.944z" fill="#A41414"/><path d="M50.025 69.088c-5.109 1.192-8.573-.824-10.113-3.371a5.716 5.716 0 0 1 10.113 3.372z" fill="#FD5050"/><circle cx="98.213" cy="77.106" r="7.261" transform="rotate(-3.966 98.213 77.106)" fill="#fff" stroke="#7CC801" stroke-width="1.614"/><rect x="99.47" y="75.37" width="4.658" height="3.562" rx="1.781" fill="#3D3D3D"/><path d="M91.185 79.208l14.432-2.232a7.863 7.863 0 0 1-6.147 6.378l-4.959 1.034-3.326-5.18z" fill="#7CC801"/><path d="M66.496 103.559c0-13.507 10.95-24.457 24.456-24.457 13.507 0 24.456 10.95 24.456 24.457v16.787H66.496v-16.787z" fill="#7CC801"/><rect x="53.395" y="114.61" width="25.236" height="5.735" rx="2.868" fill="#7CC801"/><rect width="10.265" height="26.718" rx="5.133" transform="scale(-1 1) rotate(52.35 -126.116 -6.486)" fill="#7CC801"/><rect width="25.236" height="5.735" rx="2.868" transform="matrix(-1 0 0 1 128.51 114.61)" fill="#7CC801"/><rect x="127.689" y="97.329" width="10.265" height="26.718" rx="5.133" transform="rotate(52.35 127.689 97.329)" fill="#7CC801"/><path d="M117.789 104.967v10.542a1.19 1.19 0 0 1-2.381 0v-8.706l2.381-1.836zM65.306 116.699a1.19 1.19 0 0 1-1.19-1.19v-10.542l2.38 1.836v8.706a1.19 1.19 0 0 1-1.19 1.19z" fill="#63A000"/><path d="M105.811 120.346h-29.72c1.385-6.942 7.512-12.174 14.86-12.174 7.35 0 13.476 5.232 14.86 12.174z" fill="#B6E108"/><circle cx="74.15" cy="102.491" r="4.83" fill="#63A000"/><circle cx="83.691" cy="77.106" r="7.261" transform="rotate(-3.966 83.691 77.106)" fill="#fff" stroke="#7CC801" stroke-width="1.614"/><rect x="77.825" y="75.37" width="4.658" height="3.562" rx="1.781" fill="#3D3D3D"/><path d="M68.201 94.568a24.543 24.543 0 0 1 9.787-11.75 7.654 7.654 0 0 1-9.787 11.751zM105.521 83.915c4.86 3.61 8.334 8.98 9.478 15.168a8.95 8.95 0 0 1-9.478-15.169z" fill="#63A000"/><path d="M96.835 84.225c-8.509 0-15.406 6.898-15.406 15.406v.481a3.868 3.868 0 0 0 3.868 3.868h23.075a3.869 3.869 0 0 0 3.869-3.868v-.48c0-8.51-6.898-15.407-15.406-15.407z" fill="#A41414" stroke="#63A000" stroke-width="2.976"/><path d="M101.308 102.492H87.411v-2.866c0-.9 1.27-1.63 2.836-1.63h11.061v4.496z" fill="#CC302E"/><path d="M87.41 99.898a6.561 6.561 0 0 1 6.562-6.562h9.005a3.28 3.28 0 1 1 0 6.562H87.411z" fill="#E64340"/><path d="M19.075 93.787a8.789 8.789 0 0 0 1.433 12.345l14.27 11.3a1.61 1.61 0 0 0 2.264-.263l11.3-14.27a8.787 8.787 0 0 0-1.433-12.344 8.787 8.787 0 0 0-12.345 1.433l-.89 1.124a.806.806 0 0 1-1.131.131l-1.123-.89a8.788 8.788 0 0 0-12.345 1.434zM90.28 17.51a8.433 8.433 0 0 0-1.652 11.81l10.52 13.945a1.546 1.546 0 0 0 2.165.303l13.944-10.52a8.432 8.432 0 0 0 1.653-11.81 8.432 8.432 0 0 0-11.81-1.654l-1.098.829a.772.772 0 0 1-1.082-.152l-.829-1.098a8.432 8.432 0 0 0-11.81-1.653z" fill="#FF4B4B"/><path d="M108.821 47.856a6.042 6.042 0 0 0-2.527 8.161l5.836 11.07c.285.54.955.748 1.497.462l11.069-5.835a6.041 6.041 0 0 0-5.635-10.688l-.871.46a.553.553 0 0 1-.748-.232l-.46-.872a6.04 6.04 0 0 0-8.161-2.526z" fill="#FFAADE"/></svg>