<svg viewBox="0 0 136 124" fill="none" xmlns="http://www.w3.org/2000/svg"><rect x="12.435" y="11" width="113" height="113" rx="17" fill="#FEC701"/><path fill-rule="evenodd" clip-rule="evenodd" d="M66.191 27.337c8.201 8.201 8.201 21.497 0 29.698l-53.406 53.407a17.071 17.071 0 0 1-.349-3.442V51.393l24.057-24.056c8.2-8.201 21.497-8.201 29.698 0zm59.245 1.056v35.355l-8.995 8.996c-4.882 4.882-12.796 4.882-17.678 0-4.882-4.881-4.882-12.796 0-17.677l26.673-26.674z" fill="#FFD900"/><path fill-rule="evenodd" clip-rule="evenodd" d="M42.406 3.927c17.256 0 31.944 12.56 34.622 29.607l8.035 51.14a1.739 1.739 0 0 1-1.717 2.008H5.092a1.739 1.739 0 0 1-1.728-1.932l5.728-51.04C10.996 16.75 25.338 3.928 42.406 3.928z" fill="#FF9600"/><path fill-rule="evenodd" clip-rule="evenodd" d="M73.253 32.316h2.575a6.607 6.607 0 0 1 0 13.213h-2.575a6.607 6.607 0 0 1 0-13.213z" fill="#FFD900"/><path d="M74.386 32.316H54.232c-11.309 0-20.515-8.997-20.853-20.224a29.41 29.41 0 0 1 9.659-2.775c-13.264 1.442-24.096 11.7-26.03 25.173L13.68 57.653a14.148 14.148 0 0 0-.144 2.012c0 7.816 6.336 14.152 14.152 14.152h35.635c.53 0 1.06-.03 1.588-.09 7.766-.876 13.351-7.883 12.474-15.65l-2.652-23.489a28.94 28.94 0 0 0-.348-2.272z" fill="#FFD900"/><path d="M62.694 34.017h-7.643a8.758 8.758 0 0 0-8.758 8.758v6.098a4.272 4.272 0 0 0 4.272 4.272h4.486a8.758 8.758 0 0 0 8.758-8.758v-9.255c0-.616-.5-1.115-1.115-1.115zM27.665 34.017h7.644a8.758 8.758 0 0 1 8.757 8.758v5.912a4.458 4.458 0 0 1-4.458 4.458h-4.3a8.758 8.758 0 0 1-8.757-8.758v-9.255c0-.616.499-1.115 1.114-1.115z" fill="#FFF1A2"/><path fill="#F68B00" d="M35.891 73.817h16.531v12.865H35.891z"/><path d="M39.566 64.072c2.61-2.79 9.767-7.41 17.512-3.57" stroke="#F68B00" stroke-width="2.263" stroke-linecap="round" stroke-linejoin="round"/><path d="M62.694 34.017h-7.643a8.758 8.758 0 0 0-8.758 8.758v6.098a4.272 4.272 0 0 0 4.272 4.272h4.486a8.758 8.758 0 0 0 8.758-8.758v-9.255c0-.616-.5-1.115-1.115-1.115zM27.665 34.017h7.644a8.758 8.758 0 0 1 8.757 8.758v5.912a4.458 4.458 0 0 1-4.458 4.458h-4.3a8.758 8.758 0 0 1-8.757-8.758v-9.255c0-.616.499-1.115 1.114-1.115z" fill="#FFF1A2"/><path fill-rule="evenodd" clip-rule="evenodd" d="M53.19 35.503a3.932 3.932 0 0 0-3.932 3.932v4.939a3.932 3.932 0 0 0 7.863 0v-4.939a3.932 3.932 0 0 0-3.932-3.932zM37.168 35.503a3.932 3.932 0 0 1 3.932 3.932v4.939a3.932 3.932 0 0 1-7.864 0v-4.939a3.932 3.932 0 0 1 3.932-3.932z" fill="#E47900"/><path d="M63.809 41.544L46.293 43.75v-.974a8.758 8.758 0 0 1 8.758-8.758h7.643c.616 0 1.114.5 1.114 1.114v6.413zM44.066 43.924v-1.149a8.758 8.758 0 0 0-8.757-8.758h-7.644c-.615 0-1.114.5-1.114 1.115v7.47l17.515 1.322z" fill="#FFB100"/><path fill="#FFD900" d="M45.107 48.27l23.146-2.74.965 8.145-23.147 2.74zM44.994 48.238l-23.237-1.815-.639 8.177 23.238 1.815z"/><path fill-rule="evenodd" clip-rule="evenodd" d="M21.26 14.271l.03-.029 10.05-4.176a2.086 2.086 0 0 1 2.887 1.927v63.563c0 .96-.779 1.738-1.739 1.738H12.752a2.086 2.086 0 0 1-2.086-2.086V39.261c0-9.421 3.823-18.44 10.594-24.99z" fill="#FF9600"/><path fill-rule="evenodd" clip-rule="evenodd" d="M45.064 57.21c1.95 0 3.53-1.57 3.53-3.508s-3.53-6.521-3.53-6.521-3.529 4.583-3.529 6.52c0 1.939 1.58 3.51 3.53 3.51z" fill="#F68B00"/><path d="M105.129 74.516h-9.082v23.079h9.082V74.516z" fill="#FFB100"/><path fill-rule="evenodd" clip-rule="evenodd" d="M93.443 103.407c.484-.908 1.609-1.645 2.511-1.645h18.02c.904 0 2.028.736 2.512 1.645l3.086 5.792c.484.909.142 1.645-.767 1.645H91.123c-.907 0-1.251-.735-.767-1.645l3.087-5.792z" fill="#F68B00"/><path fill-rule="evenodd" clip-rule="evenodd" d="M85.796 103.407c.484-.908 1.61-1.645 2.512-1.645h18.02c.903 0 2.027.736 2.511 1.645l3.087 5.792c.484.909.141 1.645-.767 1.645H83.477c-.908 0-1.252-.735-.767-1.645l3.086-5.792zM87.24 62.684a2.596 2.596 0 0 0-2.596-2.596h-6.91a5.836 5.836 0 0 0-5.836 5.842v6.103a7.675 7.675 0 0 0 7.671 7.67h5.075a2.596 2.596 0 1 0 0-5.19H79.57a2.483 2.483 0 0 1-2.48-2.48V65.93c0-.366.292-.65.645-.65h6.91a2.596 2.596 0 0 0 2.596-2.596z" fill="#FFB100"/><path d="M100.575 90.009c-10.524 0-19.018-8.494-19.018-19.019V54.963h38.037V70.99c0 10.525-8.494 19.019-19.019 19.019z" fill="#FFB100"/><path fill-rule="evenodd" clip-rule="evenodd" d="M114.637 62.684a2.596 2.596 0 0 1 2.595-2.596h6.911a5.836 5.836 0 0 1 5.836 5.842v6.103a7.675 7.675 0 0 1-7.671 7.67h-5.076a2.595 2.595 0 0 1 0-5.19h5.076a2.483 2.483 0 0 0 2.479-2.48V65.93a.644.644 0 0 0-.644-.65h-6.911a2.596 2.596 0 0 1-2.595-2.596z" fill="#FFB100"/><path d="M106.528 94.817H94.24a2.137 2.137 0 0 0 0 4.274h12.288a2.137 2.137 0 0 0 0-4.274z" fill="#F68B00"/><path d="M109.196 97.488h-17.63a2.137 2.137 0 1 0 0 4.274h17.63a2.137 2.137 0 0 0 0-4.274z" fill="#F68B00"/><path d="M103.136 103.899H91.833c-.604 0-1.093.581-1.093 1.298v2.212c0 .717.49 1.298 1.093 1.298h11.303c.603 0 1.092-.581 1.092-1.298v-2.212c0-.717-.489-1.298-1.092-1.298z" fill="#FFD900"/><path d="M87.921 56.47h9.397v7.805a4.699 4.699 0 0 1-9.398 0l.001-7.805z" fill="#F68B00"/><path d="M119.615 54.963H81.578v3.26h38.037v-3.26z" fill="#F68B00"/><path d="M93.995 58.222v-3.259h-9.397v3.26h9.397z" fill="#FFD900"/><circle cx="92.62" cy="75.779" r="3.989" fill="#F68B00"/><path d="M106.297 50.618c.344-.841 1.535-.841 1.879 0l.986 2.406c.104.252.304.452.555.555l2.407.986c.841.345.841 1.536 0 1.88l-2.407.986a1.021 1.021 0 0 0-.555.555l-.986 2.407c-.344.84-1.535.84-1.879 0l-.986-2.407a1.018 1.018 0 0 0-.555-.555l-2.407-.986c-.841-.344-.841-1.535 0-1.88l2.407-.986c.252-.103.451-.303.555-.555l.986-2.406zM103.288 62.803c.344-.84 1.535-.84 1.88 0l.538 1.313c.103.252.303.452.555.555l1.313.538c.84.345.84 1.535 0 1.88l-1.313.538a1.015 1.015 0 0 0-.555.555l-.538 1.313c-.345.84-1.536.84-1.88 0l-.538-1.313a1.015 1.015 0 0 0-.555-.555l-1.313-.538c-.841-.344-.841-1.535 0-1.88l1.313-.538c.252-.103.452-.303.555-.555l.538-1.313z" fill="#FFF1A2"/></svg>