<svg viewBox="0 0 135 125" fill="none" xmlns="http://www.w3.org/2000/svg"><path d="M11 28.797c0-9.389 7.611-17 17-17h79c9.389 0 17 7.611 17 17v79c0 9.389-7.611 17-17 17H28c-9.389 0-17-7.611-17-17v-79z" fill="#C77DFF"/><path d="M38.488 5.418L27.66 6.541a2.419 2.419 0 0 0-2.156 2.656l4.678 45.11a2.419 2.419 0 0 0 2.655 2.156l10.826-1.123a2.419 2.419 0 0 0 2.157-2.655l-4.678-45.11a2.419 2.419 0 0 0-2.655-2.157z" fill="#6F4EA1"/><path fill-rule="evenodd" clip-rule="evenodd" d="M27.661 6.541l10.827-1.123a2.419 2.419 0 0 1 2.655 2.157l2.35 22.662-15.638 1.621-2.35-22.661a2.419 2.419 0 0 1 2.156-2.656z" fill="#FFB100"/><path fill-rule="evenodd" clip-rule="evenodd" d="M35.565 31.255c9.301-.965 17.623 5.793 18.587 15.094l6.3 60.748a4.837 4.837 0 0 1-4.313 5.311l-24.059 2.495a4.837 4.837 0 0 1-5.31-4.313l-6.3-60.748c-.964-9.3 5.794-17.623 15.095-18.587z" fill="#6F4EA1"/><path fill-rule="evenodd" clip-rule="evenodd" d="M28.663 52.64l4.21-.436a1.814 1.814 0 0 1 1.992 1.617l5.738 55.335a1.814 1.814 0 0 1-1.617 1.991l-4.21.437a1.814 1.814 0 0 1-1.992-1.617l-5.738-55.335a1.814 1.814 0 0 1 1.617-1.992z" fill="#CE82FF"/><path d="M50.276 55.87L26.82 58.303a1.814 1.814 0 0 0-1.617 1.991l3.867 37.291c.103.997.995 1.721 1.991 1.618l23.457-2.433a1.814 1.814 0 0 0 1.618-1.991l-3.867-37.291a1.814 1.814 0 0 0-1.992-1.617z" fill="#DDF4FF"/><path fill-rule="evenodd" clip-rule="evenodd" d="M25.438 9.811L41.076 8.19a1.814 1.814 0 0 1 1.992 1.617l.499 4.812a1.814 1.814 0 0 1-1.618 1.991l-15.638 1.622a1.814 1.814 0 0 1-1.991-1.617l-.5-4.812a1.814 1.814 0 0 1 1.618-1.992z" fill="#FFB100"/><path fill-rule="evenodd" clip-rule="evenodd" d="M30.332 48.212a4.535 4.535 0 1 0-.936-9.022 4.535 4.535 0 0 0 .936 9.022z" fill="#CE82FF"/><path fill-rule="evenodd" clip-rule="evenodd" d="M27.42 58.24l7.82-.81 4.24 40.9-7.818.81-4.242-40.9z" fill="#F7F7F7"/><path fill-rule="evenodd" clip-rule="evenodd" d="M27.067 10.858l8.42-.873a1.512 1.512 0 1 1 .312 3.008l-8.42.873a1.512 1.512 0 0 1-.313-3.008z" fill="#FFC800"/><path fill-rule="evenodd" clip-rule="evenodd" d="M34.01 75.056a3.13 3.13 0 0 0 .619 1.542 3.145 3.145 0 1 0 .71 6.188A3.145 3.145 0 0 0 39 87.115a3.145 3.145 0 1 0 5.377-.617 3.148 3.148 0 0 0 2.587-5.044 3.175 3.175 0 0 0 .439-.02 3.145 3.145 0 1 0-1.15-6.169 3.145 3.145 0 1 0-12.244-.209zm7.086 10.266l-.014.032a3.16 3.16 0 0 1 .87-.1l-.02-.028-.418.048-.418.048z" fill="#CE82FF"/><path d="M39.901 71.215c1.76-1.15 2.817-3.043 2.587-5.045-.23-2.003-1.687-3.607-3.662-4.328-1.76 1.15-2.816 3.042-2.587 5.045.23 2.002 1.687 3.607 3.662 4.328z" fill="#78C800"/><path d="M65.226 53.829l6.318-43.936 26.56 7.54 14.714 23.49-42.16 17.153a3.975 3.975 0 0 1-5.432-4.247z" fill="#FFD300"/><path d="M89.421 41.255a8.28 8.28 0 1 1 10.21-13.04 8.28 8.28 0 0 1-10.21 13.04zM67.668 36.845l2.048-14.242a8.28 8.28 0 1 1-1.904 14.352l-.144-.11zM89.667 50.342L74.68 56.44a8.28 8.28 0 0 1 14.987-6.098L74.68 56.44l14.987-6.098z" fill="#F34848"/><path d="M115.308 35.794a4.969 4.969 0 0 1-8.87 4.48c-3.388-6.71-7.798-12.153-13.247-16.382-5.417-4.203-11.825-7.04-19.289-8.51a4.968 4.968 0 1 1 1.921-9.75c8.95 1.764 16.79 5.234 23.46 10.41 6.637 5.15 11.985 11.752 16.025 19.752z" fill="#E5A259"/><path d="M76.773 21.678a2.484 2.484 0 0 1-.424-3.487l4.084-5.216a2.484 2.484 0 0 1 3.912 3.062l-4.084 5.217a2.484 2.484 0 0 1-3.487.424z" fill="#FFD300"/><path d="M83.51 22.745a3.81 3.81 0 0 1-.651-5.347l2.45-3.13a3.809 3.809 0 1 1 5.999 4.697l-2.45 3.13a3.81 3.81 0 0 1-5.348.65z" fill="#FFD300"/><path d="M69.037 80.99c1.932-12.677 13.776-21.387 26.453-19.455l1.123.172C109.29 63.639 118 75.483 116.067 88.16a2.51 2.51 0 0 1-2.86 2.103L71.14 83.849a2.51 2.51 0 0 1-2.103-2.86zM66.295 99.148a2.184 2.184 0 0 1 2.489-1.83l42.712 6.511a2.186 2.186 0 0 1 1.83 2.489 6.554 6.554 0 0 1-7.466 5.49l-34.075-5.195a6.552 6.552 0 0 1-5.49-7.465z" fill="#FFC800"/><path d="M62.917 92.061a4 4 0 0 1 4.558-3.351l47.835 7.293a4 4 0 0 1 3.352 4.557l-.048.309a4 4 0 0 1-4.557 3.351l-47.835-7.293a4 4 0 0 1-3.351-4.557l.046-.309z" fill="#A56644"/><path d="M67.184 84.13a.873.873 0 0 1 .995-.732l47.99 7.316a.873.873 0 1 1-.264 1.727l-47.99-7.317a.873.873 0 0 1-.731-.995z" fill="#78C800"/><path d="M67.588 86.086a1 1 0 0 1 1.14-.838l45.709 6.969a1 1 0 0 1 .838 1.14l-.243 1.592a1 1 0 0 1-1.139.838l-45.71-6.969a1 1 0 0 1-.837-1.14l.242-1.592z" fill="#FF4B4B"/><path d="M89.485 99.1a2 2 0 0 0 1.719.262l15.287-4.704-30.197-4.604 13.19 9.046z" fill="#FF9600"/><path d="M110.994 83.472a1.866 1.866 0 1 1-3.69-.563c.156-1.018 1.377-3.483 2.395-3.328 1.019.156 1.45 2.872 1.295 3.89zM101.519 82.027a1.866 1.866 0 1 1-3.69-.562c.156-1.019 1.377-3.483 2.395-3.328 1.019.155 1.45 2.871 1.295 3.89zM107.657 76.13a1.866 1.866 0 1 1-3.689-.563c.155-1.019 1.376-3.483 2.394-3.328 1.019.156 1.45 2.872 1.295 3.89z" fill="#FFB100"/><path fill-rule="evenodd" clip-rule="evenodd" d="M95.06 68.125a16.504 16.504 0 0 0-12.777 3.391 2 2 0 0 1-2.484-3.135 20.504 20.504 0 0 1 15.864-4.21 2 2 0 0 1-.603 3.954z" fill="#FFD900"/></svg>