<svg id="Layer_3" data-name="Layer 3" xmlns="http://www.w3.org/2000/svg" viewBox="0 0 135 124"><defs><style>.cls-3{fill:#a6a6a6}.cls-4{fill:#efefef}</style></defs><path d="M124 28v79a17.43 17.43 0 0 1-.33 3.34q-.11.52-.24 1A17 17 0 0 1 107 124H28a17 17 0 0 1-4.12-.5 17.57 17.57 0 0 1-2.48-.82 17 17 0 0 1-9.83-11.32q-.13-.49-.24-1A17.43 17.43 0 0 1 11 107V28a17 17 0 0 1 17-17h79a17 17 0 0 1 17 17z" fill="#e5e5e5"/><path d="M134.72 77a4.74 4.74 0 0 1-2.62 2.78l-96.35 39.89a4.69 4.69 0 0 1-6.14-2.54L.36 46.55a4.69 4.69 0 0 1 2.54-6.14L99.25.48a4.72 4.72 0 0 1 2.81-.25A4.71 4.71 0 0 1 105.39 3l29.25 70.6a4.67 4.67 0 0 1 .08 3.4z" fill="#d1d1d1"/><path class="cls-3" d="M88.16 75.19a1 1 0 0 1-1-1v-.83a11 11 0 0 1 4.56-9A8.92 8.92 0 0 0 95.2 55l-1.35-5.48a1 1 0 0 1 1.94-.52l1.35 5.49A10.9 10.9 0 0 1 92.89 66a9 9 0 0 0-3.73 7.34v.83a1 1 0 0 1-1 1z"/><path class="cls-4" d="M134.72 77l-22.4-9.68a5.48 5.48 0 0 1-2.89-3L94.11 26.84a5.46 5.46 0 0 1-.09-3.9l8-22.7A4.71 4.71 0 0 1 105.39 3l29.25 70.6a4.67 4.67 0 0 1 .08 3.4z"/><path class="cls-3" transform="rotate(-42.15 100.833 44.714)" d="M90.72 43.71h20.21v2H90.72z"/><path class="cls-3" transform="rotate(-3.02 101.695 44.818)" d="M91.98 43.74h19.11v2H91.98z"/><circle cx="110.4" cy="40.74" r="5.5" fill="#bfbfbf"/><circle class="cls-3" cx="110.4" cy="40.74" r="1.67"/><circle cx="91.4" cy="48.41" r="5.5" fill="#b2b2b2"/><circle class="cls-3" cx="91.4" cy="48.41" r="1.67"/><path d="M74.46 68.79a1.23 1.23 0 0 1-.68.72L35.59 85.42a1.21 1.21 0 0 1-1.59-.66l-7.54-18.2a1.2 1.2 0 0 1 .66-1.56l38.19-15.93A1.23 1.23 0 0 1 66 49a1.22 1.22 0 0 1 .85.73l7.55 18.19a1.3 1.3 0 0 1 .06.87z" fill="#fff"/><path class="cls-4" d="M32.32 69.58a1.51 1.51 0 0 1-.58-2.89l30.19-12.57a1.5 1.5 0 1 1 1.15 2.77L32.9 69.46a1.51 1.51 0 0 1-.58.12zM34.59 75.22a1.5 1.5 0 0 1-.59-2.88l21.36-8.9a1.5 1.5 0 1 1 1.15 2.77l-21.35 8.9a1.7 1.7 0 0 1-.57.11zM37 81a1.51 1.51 0 0 1-.58-2.89l27-11.23a1.5 1.5 0 1 1 1.15 2.77l-27 11.23A1.51 1.51 0 0 1 37 81z"/></svg>