<svg viewBox="0 0 135 124" version="1.1" xmlns="http://www.w3.org/2000/svg"><g stroke="none" stroke-width="1" fill="none" fill-rule="evenodd"><path d="M28 11h79c9.389 0 17 7.611 17 17v79c0 9.389-7.611 17-17 17H28c-9.389 0-17-7.611-17-17V28c0-9.389 7.611-17 17-17z" fill="#9069CD"/><rect fill="#CE82FF" x="11" y="9" width="92" height="62" rx="4"/><rect stroke="#6F4EA1" stroke-width="7" x="11" y="9" width="89" height="62" rx="4"/><path d="M61.816 18.114l-8.999-.157c-17.891-.313-32.648 13.938-32.96 31.83l-.158 8.998a3.6 3.6 0 0 0 3.537 3.662l8.999.157c17.891.313 32.648-13.938 32.96-31.83l.157-8.998a3.6 3.6 0 0 0-3.536-3.662z" fill="#CD7900" fill-rule="nonzero"/><path stroke="#FFF" stroke-width="4" stroke-linecap="round" stroke-linejoin="round" d="M49.36 33.681L36.052 46.532"/><path stroke="#FFF" stroke-width="3" stroke-linecap="round" stroke-linejoin="round" d="M47.288 30.816l4.863 5.036M37.577 40.194l4.863 5.036M32.542 45.057l4.862 5.035M42.612 35.332l4.863 5.035"/><path d="M52.281 17.952l.536.005.09.002 12.297 12.295-.009.52a32.454 32.454 0 0 1-1.19 8.181L44.05 19a32.428 32.428 0 0 1 8.768-1.042zM20.941 41.99l19.67 19.672a32.446 32.446 0 0 1-8.376.942l-.59-.01L19.84 50.788l.017-1.002a32.473 32.473 0 0 1 1.084-7.795z" fill="#FFF" fill-rule="nonzero"/><path d="M77.597 21.195h3.63a7 7 0 0 1 7 7V52" stroke="#DDA8FF" stroke-width="7" stroke-linecap="round" stroke-linejoin="round"/><path fill="#6F4EA1" d="M44 71h25v31H44z"/><rect fill="#6F4EA1" x="38" y="95" width="37" height="7" rx="3.5"/><path d="M124 102v5c0 9.389-7.611 17-17 17H28c-9.389 0-17-7.611-17-17v-5h113z" fill="#4B4B4B"/><g transform="translate(41 36)"><g><g><path d="M48.902 0a29.074 29.074 0 0 1 27.059 18.437l9.44 24.011c4.667 11.873-1.174 25.282-13.047 29.95A23.1 23.1 0 0 1 63.902 74h-30c-12.757 0-23.1-10.342-23.1-23.1a23.1 23.1 0 0 1 1.602-8.452l9.44-24.011A29.074 29.074 0 0 1 48.902 0z" fill="#4B4B4B"/><rect fill="#DC8E71" x="23.1" y="14.7" width="51.1" height="60.9" rx="25.55"/><path d="M21.2 38.366l4.85-2.8a9.45 9.45 0 1 1 9.45 16.368l-4.85 2.8a9.45 9.45 0 1 1-9.45-16.368zM76.1 38.366l-4.85-2.8a9.45 9.45 0 0 0-9.45 16.368l4.85 2.8a9.45 9.45 0 1 0 9.45-16.368z" fill="#DC8E71"/><path d="M79.8 30.841v7.188h-2.1c-4.64 0-9.8-3.76-9.8-8.4a2.1 2.1 0 0 0-2.1-2.1h-2.1c-7.605 0-12.63-5.054-14.7-11.986-2.044 6.848-6.938 11.862-14.422 11.984l-.278.002h-2.1a2.1 2.1 0 0 0-2.1 2.1c0 4.568-5.046 8.284-9.587 8.397l-.213.003h-2.1V30.84C26.844 18.8 37.11 12.78 49 12.78s22.156 6.02 30.8 18.062z" fill="#4B4B4B"/><rect fill="#FFF" x="53.2" y="34.8" width="15.4" height="21" rx="7.7"/><rect fill="#FFF" x="29.4" y="35.5" width="15.4" height="21" rx="7.7"/><rect fill="#4B4B4B" x="55.497" y="38.7" width="5.906" height="10.5" rx="2.953"/><rect fill="#4B4B4B" x="36.597" y="38.7" width="5.906" height="10.5" rx="2.953"/><rect fill="#C96640" x="46" y="36.9" width="6" height="18.9" rx="3"/><path d="M48.875 5.6c11.691 0 21.705 7.046 25.872 17.046-6.586-6.525-15.692-10.456-25.542-10.456-10.418 0-20.002 4.398-26.653 11.61C26.41 13.192 36.74 5.6 48.875 5.6z" fill="#FFD900"/></g><path d="M72.369 52.767l-7.5 12.99-12.99-7.5c4.142-7.174 13.315-9.632 20.49-5.49z" fill="#DC8E71"/><path d="M54.685 67.81a16.493 16.493 0 0 0-11.483-1.852l-1.06.215" stroke="#BA7258" stroke-width="3" stroke-linecap="round" stroke-linejoin="round"/></g><circle fill="#C96640" cx="49" cy="54.4" r="4.9"/><path fill="#DC8E71" d="M29 34h16v6H29zM53 34h16v6H53z"/></g><path d="M110 110c4.736 0 8.922 2.351 11.456 5.95-2.998 4.832-8.351 8.05-14.456 8.05H55c0-7.732 6.268-14 14-14h41z" fill="#FFD900"/><path d="M81 106h19v5.5a9.5 9.5 0 0 1-19 0V106z" fill="#DC8E71"/><path d="M14.34 105.284L3.17 95.548a1 1 0 0 1 .133-1.605l23.718-14.61a1 1 0 0 1 1.413 1.309l-12.547 24.346a1 1 0 0 1-1.546.296zM42.43 110.402l-17.97.13a1 1 0 0 1-.95-1.33l9.508-27.248a1 1 0 0 1 1.899.032l8.461 27.119a1 1 0 0 1-.947 1.297zM131.257 39.774l.038-11.925a1 1 0 0 0-1.248-.972l-21.178 5.418a1 1 0 0 0-.046 1.925l21.14 6.506a1 1 0 0 0 1.294-.952zM128.014 18.026l-7.928-9.874a1 1 0 0 0-1.611.07l-12.276 18.355a1 1 0 0 0 1.218 1.478l20.204-8.48a1 1 0 0 0 .393-1.549z" fill="#FFD900"/></g></svg>