<svg viewBox="0 0 135 124" fill="none" xmlns="http://www.w3.org/2000/svg"><g clip-path="url(#clip0)"><path d="M107 11H28c-9.389 0-17 7.611-17 17v79c0 9.389 7.611 17 17 17h79c9.389 0 17-7.611 17-17V28c0-9.389-7.611-17-17-17z" fill="#E5E5E5"/><path d="M121.816 75.568H91.719c-6.417 0-11.619 5.202-11.619 11.62 0 6.417 5.202 11.619 11.62 11.619h30.096c6.417 0 11.619-5.202 11.619-11.62 0-6.417-5.202-11.619-11.619-11.619z" fill="#BFBFBF"/><path d="M114.197 60.71H97.053c-6.417 0-11.62 5.203-11.62 11.62 0 6.417 5.203 11.62 11.62 11.62h17.144c6.417 0 11.619-5.203 11.619-11.62 0-6.417-5.202-11.62-11.619-11.62z" fill="#BFBFBF"/><path d="M101.243 52.33H92.1c-6.417 0-11.619 5.202-11.619 11.619s5.202 11.62 11.62 11.62h9.142c6.418 0 11.62-5.203 11.62-11.62 0-6.417-5.202-11.62-11.62-11.62z" fill="#BFBFBF"/><path d="M112.494 88.477h-37.45a8.8 8.8 0 1 0 0 17.601h37.45a8.8 8.8 0 1 0 0-17.6z" fill="#D8D8D8"/><path d="M97.075 69.25H48.66c-6.964 0-12.61 5.645-12.61 12.61 0 6.964 5.646 12.61 12.61 12.61h48.415c6.964 0 12.61-5.646 12.61-12.61 0-6.965-5.646-12.61-12.61-12.61z" fill="#D8D8D8"/><path d="M86.579 87.371a3.698 3.698 0 0 1-.492-.707c-.86-1.688-.326-3.684 1.194-4.458s3.448-.033 4.308 1.655c.061.12.117.254.167.404.128-.205.258-.374.391-.507 1.288-1.296 3.4-1.273 4.717.052 1.317 1.325 1.34 3.45.052 4.746a3.047 3.047 0 0 1-.606.455c.469.073.844.181 1.126.327 1.634.843 2.281 2.87 1.446 4.53-.834 1.659-2.836 2.32-4.47 1.478-.284-.147-.595-.393-.93-.74.081.476.098.872.05 1.189-.28 1.817-1.99 3.047-3.824 2.747-1.833-.3-3.093-2.015-2.814-3.832.047-.31.177-.672.389-1.087-.372.184-.7.299-.984.343-1.806.28-3.511-.988-3.81-2.832-.297-1.844.925-3.566 2.731-3.847.353-.055.806-.027 1.359.084z" fill="#BFBFBF"/><path d="M93.783 63.975c.056-.152.118-.29.183-.414 1.078-2.027 3.492-2.851 5.392-1.84 1.9 1.01 2.567 3.471 1.489 5.498a3.602 3.602 0 0 1-.337.513 3.905 3.905 0 0 1 1.051.015c2.156.378 3.59 2.461 3.201 4.653-.389 2.192-2.453 3.662-4.61 3.284a3.68 3.68 0 0 1-.863-.282c.252.507.404.949.456 1.324.302 2.174-1.237 4.19-3.436 4.503-2.2.313-4.227-1.195-4.528-3.369-.053-.379-.026-.85.08-1.415-.408.404-.784.69-1.127.858-1.97.966-4.355.128-5.325-1.87-.97-1.998-.16-4.401 1.811-5.366.336-.165.78-.285 1.332-.36-.437-.239-.775-.482-1.014-.73-1.52-1.576-1.454-4.11.145-5.658 1.6-1.548 4.128-1.525 5.648.052.154.16.305.361.452.604z" fill="#E5E5E5"/><path d="M91.294 93.764a3.602 3.602 0 1 0 0-7.204 3.602 3.602 0 0 0 0 7.204z" fill="#D8D8D8"/><path d="M94.874 74.499a3.897 3.897 0 1 0 0-7.794 3.897 3.897 0 0 0 0 7.794z" fill="#fff"/><path d="M72.488 42.099c3.447 1.478 5.47 3.555 6.07 6.231.6 2.677-.345 5.418-2.833 8.225a.434.434 0 0 1-.496.11c-3.447-1.477-5.47-3.554-6.07-6.23-.599-2.677.345-5.418 2.834-8.225a.434.434 0 0 1 .495-.111zM121.906 45.759c.611 3.384.044 5.98-1.7 7.791-1.745 1.811-4.319 2.474-7.723 1.988a.397.397 0 0 1-.335-.322c-.612-3.384-.045-5.981 1.699-7.792 1.745-1.81 4.319-2.473 7.724-1.988a.399.399 0 0 1 .335.323zM90.442 20.595c-.917-2.543-3.7-3.757-6.267-2.695l-7.823 3.016c-2.544.916-3.758 3.699-2.696 6.266.917 2.543 3.7 3.758 6.267 2.696l7.823-3.016c2.423-1.086 3.782-3.844 2.696-6.267z" fill="#BFBFBF"/><path d="M77.828 39.68a7.952 7.952 0 1 0 2.635-15.685 7.952 7.952 0 0 0-2.635 15.685zM63.344 8.576c2.543-.917 5.325.297 6.267 2.695l3.015 7.824c.917 2.543-.297 5.326-2.695 6.267-2.543.916-5.326-.298-6.267-2.696l-3.016-7.824c-1.086-2.422.153-5.35 2.696-6.266z" fill="#BFBFBF"/><path d="M61.424 32.444a7.952 7.952 0 1 0 2.635-15.685 7.952 7.952 0 0 0-2.635 15.685z" fill="#BFBFBF"/><path d="M75.68 16.92c-1.259-.51-2.688-.003-3.198 1.255l-6.265 14.178c-.51 1.258-.004 2.687 1.255 3.197 1.258.51 2.687.004 3.197-1.254l6.265-14.179c.655-1.233.003-2.687-1.255-3.197z" fill="#959595"/><path d="M35.163 2.512c-2.413-1.575-5.56-.82-7.063 1.733l-4.718 7.593c-1.575 2.413-.82 5.56 1.733 7.063 2.414 1.575 5.561.82 7.063-1.733l4.719-7.593c1.363-2.48.747-5.7-1.734-7.063z" fill="#BFBFBF"/><path d="M36.694 26.853a8.478 8.478 0 1 0-7.836-15.037 8.478 8.478 0 0 0 7.836 15.037zM4.388 9.697C5.962 7.284 9.109 6.53 11.45 7.964l7.592 4.718c2.414 1.575 3.169 4.722 1.733 7.064-1.575 2.413-4.722 3.168-7.063 1.733L6.121 16.76c-2.48-1.363-3.308-4.65-1.733-7.064z" fill="#BFBFBF"/><path d="M18.09 31.236A8.478 8.478 0 1 0 10.253 16.2a8.478 8.478 0 0 0 7.835 15.036z" fill="#BFBFBF"/><path d="M20.243 8.87c-1.398.375-2.289 1.724-1.914 3.122l3.78 16.087c.374 1.399 1.723 2.289 3.121 1.914 1.399-.374 2.289-1.723 1.914-3.121l-3.78-16.087c-.235-1.471-1.723-2.289-3.121-1.914z" fill="#959595"/><path d="M112.647 24.605c1.883 1.632 2.009 4.394.376 6.278l-5.022 5.776c-1.633 1.883-4.395 2.01-6.279.377-1.883-1.633-2.009-4.395-.376-6.279l5.022-5.776c1.633-1.758 4.395-1.883 6.279-.377z" fill="#A6A6A6"/><path d="M99.839 23.474c2.135-1.004 4.646-.125 5.651 2.01l4.018 8.413c1.004 2.134-.628 2.888-2.763 3.892-2.134 1.005-4.646.126-5.65-2.009l-3.265-6.655c-1.005-2.01-.126-4.646 2.009-5.65z" fill="#BFBFBF"/><path d="M98.332 41.682a6.78 6.78 0 1 0 0-13.562 6.78 6.78 0 0 0 0 13.562z" fill="#BFBFBF"/><path d="M113.149 35.152c.628 1.13.251 2.511-.879 3.14l-12.306 6.906c-1.13.627-2.511.25-3.139-.88-.628-1.13-.251-2.51.879-3.139l12.306-6.906c1.13-.628 2.511-.251 3.139.88z" fill="#959595"/><path d="M3.132 66.538c.464-16.185 12.592-29.647 28.64-31.791 16.049-2.145 31.286 7.66 35.982 23.156l15.349 50.635a2.24 2.24 0 0 1-1.848 2.871L4.154 121.711a2.24 2.24 0 0 1-2.537-2.285l1.515-52.888z" fill="#BFBFBF"/><path d="M23.716 49.053l-.245.033c-9.043 1.209-15.737 9.016-15.55 18.138l.67 32.575c.09 4.345 3.94 7.645 8.247 7.069l49.571-6.624c4.307-.575 7.155-4.77 6.1-8.986L68.729 71.55a6.57 6.57 0 0 0-1.878-13.005l-22.207 2.967c-9.203 1.23-17.768-4.137-20.927-12.459z" fill="#D1D1D1"/><path d="M32.979 105.842a1.12 1.12 0 0 1 .962-1.259l14.075-1.88a1.12 1.12 0 0 1 1.259.962l1.429 10.696a1.12 1.12 0 0 1-.962 1.259l-14.075 1.881a1.12 1.12 0 0 1-1.26-.962l-1.428-10.697z" fill="#A6A6A6"/><path d="M38.48 79.425c.158-.021 1.858 2.017 3.597 4.161 1.731 2.134.442 5.322-2.282 5.685-2.723.364-4.804-2.373-3.694-4.886 1.115-2.526 2.22-4.939 2.379-4.96z" fill="#959595"/><path d="M36.822 74.015a8.964 8.964 0 0 0-10.072-7.698l-7.2.962a1.12 1.12 0 0 0-.962 1.26l1.174 8.781a8.964 8.964 0 0 0 10.072 7.698l4.118-.55a4.23 4.23 0 0 0 3.632-4.753l-.762-5.7z" fill="#fff"/><path d="M32.044 111.849l-8.737-65.386-3.342.447A17.367 17.367 0 0 0 4.902 63.77l-1.055 51.847 28.197-3.768z" fill="#BFBFBF"/><path d="M35.15 69.877l-5.926.792.212 1.591a3.894 3.894 0 0 0 7.311 1.29 8.913 8.913 0 0 0-1.597-3.673z" fill="#A6A6A6"/><path d="M19.418 74.753l17.059-2.28a8.966 8.966 0 0 0-9.728-6.156l-7.2.962a1.12 1.12 0 0 0-.962 1.26l.83 6.214z" fill="#BFBFBF"/><path d="M46.705 63.65a8.964 8.964 0 0 0-7.697 10.073l.761 5.7a4.212 4.212 0 0 0 1.28 2.507 25.452 25.452 0 0 1 11.212-4.347 25.786 25.786 0 0 1 3.342-.228 8.922 8.922 0 0 0 .734-4.922l-1.173-8.782a1.12 1.12 0 0 0-1.259-.962l-7.2.962z" fill="#fff"/><path d="M46.993 68.295l.213 1.59a3.894 3.894 0 1 0 7.72-1.03l-.213-1.592-7.72 1.032z" fill="#A6A6A6"/><path d="M55.995 69.866l-17.058 2.279a8.966 8.966 0 0 1 7.77-8.494l7.199-.963a1.12 1.12 0 0 1 1.259.963l.83 6.215z" fill="#BFBFBF"/><path fill-rule="evenodd" clip-rule="evenodd" d="M53.814 84.145c1.405-.974 2.833-1.027 3.825-.554a1.12 1.12 0 0 1-.965 2.022c-.165-.078-.74-.21-1.584.374-.86.595-1.996 1.952-3.022 4.829a1.12 1.12 0 0 1-2.111-.753c1.112-3.118 2.468-4.956 3.857-5.918z" fill="#959595"/></g><defs><clipPath id="clip0"><path fill="#fff" d="M0 0h135v124H0z"/></clipPath></defs></svg>