<svg viewBox="0 0 135 124" fill="none" xmlns="http://www.w3.org/2000/svg"><path d="M107 11H28c-9.389 0-17 7.611-17 17v79c0 9.389 7.611 17 17 17h79c9.389 0 17-7.611 17-17V28c0-9.389-7.611-17-17-17z" fill="#E5E5E5"/><path d="M22.234 59.991l-7.906-14.749a1 1 0 0 1 .761-1.465l9.241-1.119a1 1 0 0 1 1.117 1.077l-1.335 15.868c-.084.992-1.408 1.266-1.878.388z" fill="#D1D1D1"/><path fill-rule="evenodd" clip-rule="evenodd" d="M79.94 2.983c14.886 0 26.954 12.114 26.954 27.057 0 14.943-12.068 27.057-26.955 27.057-14.886 0-26.954-12.114-26.954-27.057 0-14.943 12.068-27.057 26.954-27.057z" fill="#B2B2B2"/><path fill-rule="evenodd" clip-rule="evenodd" d="M100.904 8.996c7.719 0 13.976 6.281 13.976 14.03v6.012c0 7.748-6.257 14.03-13.976 14.03-7.72 0-13.977-6.282-13.977-14.03v-6.013c0-7.748 6.258-14.03 13.977-14.03z" fill="#B2B2B2"/><path d="M76.967 92.136l11.92 6.958a13.93 13.93 0 0 0 14.051 0l11.92-6.958a10.023 10.023 0 0 0 4.816-6.937l6.677-38.334c2.09-11.994-5.903-23.417-17.851-25.514a21.877 21.877 0 0 0-3.783-.33H87.108c-12.13 0-21.963 9.87-21.963 22.047 0 1.273.11 2.543.329 3.797L72.15 85.2a10.021 10.021 0 0 0 4.816 6.937z" fill="#BFBFBF"/><path d="M121.671 57.427l-5.786 1.557c-4.793 1.289-7.638 6.234-6.353 11.046 1.284 4.811 6.211 7.666 11.004 6.377l5.785-1.556c4.794-1.29 7.638-6.235 6.354-11.046-1.285-4.812-6.211-7.667-11.004-6.378zM69.208 57.427l5.786 1.557c4.793 1.289 7.638 6.234 6.353 11.046-1.284 4.811-6.21 7.666-11.004 6.377l-5.786-1.556c-4.793-1.29-7.637-6.235-6.353-11.046 1.285-4.812 6.211-7.667 11.004-6.378z" fill="#BFBFBF"/><path fill-rule="evenodd" clip-rule="evenodd" d="M97.93 58.836l1.825 16.493a3.433 3.433 0 0 1-3.402 3.815h-.718a3.43 3.43 0 0 1-3.402-3.815l1.825-16.493a1.95 1.95 0 0 1 1.936-1.739 1.95 1.95 0 0 1 1.935 1.74z" fill="#B2B2B2"/><path d="M74.448 45.076h7.488c4.962 0 8.984 3.916 8.984 8.746v5.83c0 .806-.67 1.458-1.497 1.458h-7.487c-4.962 0-8.985-3.915-8.985-8.745v-5.831c0-.805.67-1.458 1.497-1.458z" fill="#B2B2B2"/><path d="M74.213 49.737h7.595c5.032 0 9.112 3.355 9.112 7.493v8.537c0 .69-.68 1.249-1.519 1.249h-7.593c-5.033 0-9.113-3.355-9.113-7.493v-8.537c0-.69.68-1.249 1.519-1.249z" fill="#fff"/><path fill-rule="evenodd" clip-rule="evenodd" d="M122.953 73.131h3.821a2 2 0 0 1 1.968 1.666l1.711 10.02a2.004 2.004 0 0 1-1.968 2.344h-7.244a2 2 0 0 1-1.968-2.343l1.712-10.021a1.998 1.998 0 0 1 1.968-1.666z" fill="#B2B2B2"/><path d="M104.717 21.021c1.268 0 2.534.11 3.783.33 11.351 1.992 19.132 12.402 18.09 23.722H65.236a22.138 22.138 0 0 1-.09-2.005c0-12.176 9.832-22.047 21.962-22.047h17.609z" fill="#B2B2B2"/><path fill-rule="evenodd" clip-rule="evenodd" d="M86.927 33.047h21.366c6.946 0 12.577 5.652 12.577 12.624H80.937v-6.612c0-3.32 2.682-6.012 5.99-6.012z" fill="#BFBFBF"/><path d="M126.594 41.064a22.14 22.14 0 0 1-.243 5.801l-2.122 12.186a4.005 4.005 0 0 1-3.359-3.958v-14.03l5.724.001z" fill="#B2B2B2"/><path fill-rule="evenodd" clip-rule="evenodd" d="M100.904 11c7.719 0 13.976 6.281 13.976 14.03v6.012c0 7.749-6.257 14.03-13.976 14.03-7.72 0-13.977-6.281-13.977-14.03V25.03c0-7.749 6.258-14.03 13.977-14.03z" fill="#B2B2B2"/><path d="M70.774 41.066v14.03a4.005 4.005 0 0 1-3.359 3.958l-2.122-12.186a22.122 22.122 0 0 1-.239-5.803h5.72z" fill="#BFBFBF"/><path fill-rule="evenodd" clip-rule="evenodd" d="M74.016 7.534c7.72 0 13.977 6.281 13.977 14.03v20.042c0 7.748-6.258 14.03-13.977 14.03S60.04 49.353 60.04 41.605V21.563c0-7.748 6.257-14.03 13.976-14.03z" fill="#B2B2B2"/><path fill-rule="evenodd" clip-rule="evenodd" d="M123.848 77.14h1.971a1.211 1.211 0 0 0 1.148-1.594l-.071-.216A1.996 1.996 0 0 0 125 73.953h-.392c-.892 0-1.677.595-1.92 1.457l-.039.136a1.253 1.253 0 0 0 1.199 1.594z" fill="#D1D1D1"/><path d="M76.034 56.857a3.743 3.743 0 1 1 7.485 0v4.666a3.743 3.743 0 0 1-7.485 0v-4.666zM104.097 89.379c0 4.886-3.91.585-8.733.585-4.824 0-8.734 4.301-8.734-.585 0-4.887 3.91-8.848 8.734-8.848 4.823 0 8.733 3.961 8.733 8.848z" fill="#B2B2B2"/><rect y="7.534" width="46.32" height="39" rx="8" transform="rotate(-6.903 0 7.534)" fill="#D1D1D1"/><path d="M95.527 105.51a1 1 0 0 1 .849-1.075l1.8-.269a1 1 0 0 1 1.125.779l2.685 12.535a1 1 0 0 1-.83 1.199l-3.381.506a1 1 0 0 1-1.145-.903l-1.103-12.772zM105.893 103.288a1 1 0 0 1-.16-1.36l1.082-1.463a1 1 0 0 1 1.347-.245l10.762 6.966a1 1 0 0 1 .261 1.434l-2.033 2.749a1 1 0 0 1-1.448.17l-9.811-8.251zM85.265 103.648a1 1 0 0 1 1.36-.161l1.463 1.082a1 1 0 0 1 .245 1.348l-6.965 10.762a1 1 0 0 1-1.434.26l-2.75-2.033a1 1 0 0 1-.17-1.447l8.251-9.811zM58.438 53.377a1 1 0 0 1-.043 1.37l-1.287 1.286a1 1 0 0 1-1.368.042l-9.613-8.481a1 1 0 0 1-.046-1.457l2.418-2.418a1 1 0 0 1 1.457.046l8.482 9.612z" fill="#fff"/><path fill-rule="evenodd" clip-rule="evenodd" d="M31.824 29.636c-1.434.072-2.618-.925-2.702-2.626-.063-1.295.179-2.525 1.457-4.212l1.916-2.571c1.066-1.393 1.398-2.343 1.348-3.355-.078-1.58-1.113-2.624-2.623-2.549-1.396.07-2.112.877-2.543 2.116-.469 1.24-1.346 1.852-2.327 1.901-1.434.072-2.463-.852-2.537-2.35-.016-.324.04-.732.135-1.102.724-2.959 3.297-5.238 7.146-5.43 4.49-.222 7.74 2.782 7.946 6.953.102 2.065-.424 3.674-1.776 5.405l-2.202 2.91c-.603.802-.802 1.38-.77 2.027.084 1.701-1.072 2.814-2.468 2.883zm-2.85 5.094c-.09-1.822 1.232-3.39 2.93-3.474 1.698-.084 3.168 1.344 3.258 3.166.09 1.822-1.232 3.39-2.93 3.474-1.698.085-3.168-1.344-3.258-3.166zM18.434 36.622c-.35-1.79.733-3.533 2.402-3.862 1.668-.329 3.328.873 3.678 2.663.35 1.79-.733 3.532-2.401 3.861-1.669.33-3.328-.872-3.679-2.662z" fill="#B2B2B2"/><path d="M13.695 12.82a1 1 0 0 1 .777-1.226l3.819-.75a1 1 0 0 1 1.183.84l2.4 16.854a1 1 0 0 1-.797 1.122l-2.064.405a1 1 0 0 1-1.162-.737L13.695 12.82z" fill="#B2B2B2"/><path fill-rule="evenodd" clip-rule="evenodd" d="M46.983 59.01c5.309.468 9.228 5.163 8.758 10.48l-.127 1.446-19.222-1.7.128-1.445c.47-5.317 5.155-9.25 10.463-8.782z" fill="#B2B2B2"/><path d="M35.886 67.55c5.666.5 10.66-3.615 11.154-9.192.493-5.578-3.702-10.506-9.368-11.007-5.67-.501-10.664 3.615-11.157 9.192-.493 5.578 3.702 10.506 9.371 11.007z" fill="#B2B2B2"/><path d="M14.932 78.01c.604-6.837 6.637-11.89 13.474-11.285l36.488 3.225c6.838.605 11.89 6.637 11.286 13.474l-1.997 22.59c-.604 6.837-6.637 11.89-13.474 11.286l-36.488-3.226c-6.837-.604-11.89-6.637-11.286-13.474l1.997-22.59z" fill="#D1D1D1"/><path fill-rule="evenodd" clip-rule="evenodd" d="M28.748 80.734a7.71 7.71 0 1 1 15.36 1.358l-.412 4.671a7.71 7.71 0 1 1-15.36-1.358l.412-4.671z" fill="#fff"/><path fill-rule="evenodd" clip-rule="evenodd" d="M40.379 76.242a3.461 3.461 0 0 1 3.143 3.753l-.383 4.331a3.462 3.462 0 0 1-6.896-.61l.357-4.037.163.02a2.78 2.78 0 0 0 2.94-3.45c.22-.024.447-.027.676-.007z" fill="#B2B2B2"/><path fill-rule="evenodd" clip-rule="evenodd" d="M46.727 82.323a7.71 7.71 0 0 1 15.36 1.358l-.412 4.672a7.71 7.71 0 0 1-15.361-1.358l.413-4.672z" fill="#fff"/><path fill-rule="evenodd" clip-rule="evenodd" d="M56.569 76.952a3.462 3.462 0 0 1 3.143 3.753l-.383 4.33a3.462 3.462 0 0 1-6.896-.61l.357-4.036.163.019a2.78 2.78 0 0 0 2.94-3.45c.22-.024.447-.027.676-.006zM44.167 96.431a2.858 2.858 0 0 0 3.098-2.594c.14-1.572-2.38-5.54-2.38-5.54l-.298.335c-.794.908-2.903 3.427-3.016 4.702a2.858 2.858 0 0 0 2.596 3.097z" fill="#B2B2B2"/><path d="M23.501 67.272c-4.61 1.486-8.116 5.61-8.57 10.738l-.82 9.285 1.225.108a7.359 7.359 0 0 0 7.978-6.682l1.214-13.732c-.347.08-.69.174-1.027.283zM40.87 97.558c-4.216-1.965-9.126-.623-11.806 2.961-.662.884-.212 2.092.789 2.558l13.88 6.467c1 .466 2.214.033 2.466-1.042 1.02-4.357-1.112-8.98-5.329-10.944z" fill="#B2B2B2"/><path d="M41.342 108.43a5.793 5.793 0 0 0-9.098-4.238l9.098 4.238z" fill="#BFBFBF"/><path fill="#D1D1D1" d="M28.811 71.37l18.594 3.272-1.24 7.047-18.594-3.272zM27.648 84.314l14.88 6.932-2.447 5.252-14.88-6.932zM17.486 89.974a5.478 5.478 0 1 1-10.914-.965 5.478 5.478 0 0 1 10.914.965z"/><path d="M117.375 45.076h-7.487c-4.962 0-8.985 3.916-8.985 8.746v5.83c0 .806.671 1.458 1.498 1.458h7.487c4.962 0 8.985-3.915 8.985-8.745v-5.831c0-.805-.671-1.458-1.498-1.458z" fill="#B2B2B2"/><path d="M117.61 49.737h-7.594c-5.032 0-9.112 3.355-9.112 7.493v8.537c0 .69.68 1.249 1.518 1.249h7.594c5.033 0 9.113-3.355 9.113-7.493v-8.537c0-.69-.68-1.249-1.519-1.249z" fill="#fff"/><path d="M108.655 56.857a3.743 3.743 0 0 0-7.486 0v4.666a3.743 3.743 0 1 0 7.486 0v-4.666zM75.359 92.71l-1.167-.104a7.359 7.359 0 0 1-6.682-7.978l1.212-13.713c4.791 2.065 7.942 7.029 7.458 12.51l-.821 9.284z" fill="#B2B2B2"/><path d="M82.154 95.69a5.479 5.479 0 1 1-10.915-.965 5.479 5.479 0 0 1 10.915.965z" fill="#D1D1D1"/></svg>