<svg viewBox="0 0 136 124" fill="none" xmlns="http://www.w3.org/2000/svg"><rect x="11.93" y="11" width="113" height="113" rx="17" fill="#E5E5E5"/><path d="M16.873 38.794c0-17.817 14.443-32.26 32.26-32.26h.75c17.816 0 32.26 14.443 32.26 32.26v4.262c0 17.817-14.444 32.26-32.26 32.26h-.75c-17.817 0-32.26-14.443-32.26-32.26v-4.262z" fill="#D1D1D1"/><path d="M51.279 66.842a45.6 45.6 0 0 1-3.256.962c-6.557 1.68-13.026 1.874-17.386 1.685a32.207 32.207 0 0 0 5.855 3.256c3.723-.168 8.005-.665 12.342-1.776 8.386-2.15 17.17-6.654 22.353-15.727-4.344 6.564-11.59 11.04-19.908 11.6z" fill="#BFBFBF"/><path d="M75.484 40.925c0 14.346-11.63 25.976-25.977 25.976-14.346 0-25.976-11.63-25.976-25.976 0-14.346 11.63-25.976 25.976-25.976 14.347 0 25.977 11.63 25.977 25.976z" fill="#A6A6A6"/><path d="M49.51 42.578c.124 0 1.222 1.743 2.34 3.571 1.112 1.82-.208 4.14-2.34 4.14-2.133 0-3.453-2.32-2.34-4.14 1.117-1.828 2.215-3.571 2.34-3.571z" fill="#959595"/><path d="M56.027 32.1c-3.763 1.987-5.415 4.259-5.848 6.398a5.87 5.87 0 0 0 8.912 6.15c.514-.303.89-.531 1.189-.713 1.09-.662 1.148-.697 3.12-1.493l.11-.045.078-.031-.001-.002a5.872 5.872 0 0 0-.078-10.813c-2.72-1.14-6.007-.167-7.482.549z" fill="#fff"/><path d="M53.665 38.394a2.618 2.618 0 0 0 2.263-3.934 3.905 3.905 0 0 1 3.708 3.9v1.81a3.905 3.905 0 1 1-7.81 0v-1.81c0-.227.02-.45.057-.667.467.435 1.093.7 1.782.7z" fill="#959595"/><path d="M42.99 32.1c3.762 1.987 5.413 4.259 5.847 6.398a5.87 5.87 0 0 1-8.912 6.15c-.514-.303-.89-.531-1.189-.713-1.09-.662-1.148-.697-3.12-1.493a5.405 5.405 0 0 1-.111-.045l-.077-.031v-.002a5.871 5.871 0 0 1 .079-10.813c2.719-1.14 6.007-.167 7.482.549z" fill="#fff"/><path d="M41.22 38.394a2.618 2.618 0 0 0 2.263-3.934 3.905 3.905 0 0 1 3.708 3.9v1.81a3.905 3.905 0 1 1-7.81 0v-1.81c0-.227.02-.45.056-.667.468.435 1.094.7 1.783.7zM42.088 59.642a7.421 7.421 0 1 1 14.842 0v.126a1.708 1.708 0 0 1-2.292 1.605L51.1 60.084a4.647 4.647 0 0 0-3.181 0l-3.539 1.29a1.708 1.708 0 0 1-2.292-1.606v-.126z" fill="#959595"/><path d="M54.49 61.32l-3.39-1.236a4.648 4.648 0 0 0-3.182 0l-3.39 1.235a4.994 4.994 0 1 1 9.963 0z" fill="#BFBFBF"/><ellipse cx="56.972" cy="29.953" rx="11.399" ry="5.572" transform="rotate(-15.098 56.972 29.953)" fill="#A6A6A6"/><path d="M28.537 34.91c19.15.653 29.664-9.604 35.497-15.554a25.855 25.855 0 0 0-14.48-4.407 25.871 25.871 0 0 0-16.657 6.042c-.086.052-.17.111-.254.18-.314.256-.627.526-.946.8-2.255 1.946-4.753 4.1-9.588 2.93l-.265-.061-2.416-.623c-.85-.229-1.474.309-1.428 1.189.224 4.227 3.176 7.898 7.365 9.026.596.16 1.196.264 1.793.313a9.1 9.1 0 0 0 1.378.165z" fill="#959595"/><path d="M64.081 22.657l1.9 2.033c1.612 1.726.365 4.54-1.995 4.506-2.361-.034-3.525-2.885-1.864-4.562l1.96-1.977zM68.745 28.05l1.106 1.184c.938 1.004.212 2.642-1.162 2.622-1.374-.02-2.051-1.68-1.084-2.655l1.14-1.15z" fill="#fff"/><path d="M58.803 70.028c2.084-12.794 13.135-22.19 26.098-22.19 12.962 0 24.013 9.396 26.097 22.19l6.811 41.808a1.794 1.794 0 0 1-1.771 2.083H53.763a1.794 1.794 0 0 1-1.77-2.083l6.81-41.808z" fill="#BFBFBF"/><path d="M76.992 58.336h-.198a14.353 14.353 0 0 0-14.262 12.745L59.61 97a5.83 5.83 0 0 0 5.794 6.484h40.039a5.831 5.831 0 0 0 5.794-6.484l-.912-16.04a5.26 5.26 0 0 0-.111-10.52H92.277c-7.433 0-13.66-5.166-15.285-12.105z" fill="#D1D1D1"/><path d="M78.32 104.382c0-.495.402-.897.897-.897h11.369c.495 0 .897.402.897.897v8.64a.897.897 0 0 1-.897.897H79.217a.897.897 0 0 1-.897-.897v-8.64z" fill="#A6A6A6"/><path d="M84.744 79.534a7.176 7.176 0 0 0-7.176-7.177h-5.815a.897.897 0 0 0-.897.898v7.093a7.176 7.176 0 0 0 7.176 7.176h3.326a3.386 3.386 0 0 0 3.386-3.386v-4.604z" fill="#fff"/><path d="M100.397 78.274H86.619a7.178 7.178 0 0 1 7.066-5.916H99.5c.496 0 .897.401.897.897v5.02z" fill="#BFBFBF"/><path d="M86.51 79.534a7.176 7.176 0 0 1 7.176-7.177h5.815c.496 0 .897.402.897.898v7.093a7.176 7.176 0 0 1-7.176 7.176h-3.326a3.386 3.386 0 0 1-3.386-3.386v-4.604z" fill="#fff"/><path d="M88.943 81.135v1.285a3.118 3.118 0 1 0 6.236 0v-1.285h-6.236zM75.959 81.135v1.285a3.118 3.118 0 1 0 6.235 0v-1.285H75.96z" fill="#A6A6A6"/><path d="M100.082 82.46L86.51 83.933v-4.4a7.176 7.176 0 0 1 7.176-7.175h5.815c.496 0 .897.401.897.897v7.093c0 .735-.11 1.445-.316 2.112zM84.744 83.964v-4.43a7.176 7.176 0 0 0-7.176-7.177h-5.816a.897.897 0 0 0-.896.898v7.093c0 .747.114 1.467.325 2.144l13.563 1.472z" fill="#BFBFBF"/><path d="M76.941 109.05V56.237h-2.7a13.904 13.904 0 0 0-13.74 11.783l-6.335 41.03h22.775z" fill="#BFBFBF"/><path d="M85.486 84.002c.128 0 1.26 1.798 2.414 3.684 1.147 1.877-.214 4.27-2.414 4.27s-3.56-2.393-2.413-4.27c1.153-1.886 2.285-3.684 2.413-3.684z" fill="#959595"/><path fill-rule="evenodd" clip-rule="evenodd" d="M88.575 95.938c-2.182.726-3.92 1.846-4.825 2.624a.956.956 0 0 1-1.247-1.45c1.088-.936 3.043-2.182 5.468-2.989 2.431-.809 5.395-1.194 8.45-.313a.956.956 0 1 1-.53 1.838c-2.586-.745-5.142-.433-7.317.29z" fill="#959595"/></svg>