<svg viewBox="0 0 135 124" fill="none" xmlns="http://www.w3.org/2000/svg"><path d="M11 28c0-9.389 7.611-17 17-17h79c9.389 0 17 7.611 17 17v79c0 9.389-7.611 17-17 17H28c-9.389 0-17-7.611-17-17V28z" fill="#B2B2B2"/><path d="M55.44 16.35c.778-3.32 4.154-5.369 7.541-4.576l22.082 5.168c3.387.793 5.504 4.127 4.727 7.447l-7.034 30.055c-.777 3.32-4.153 5.368-7.54 4.575l-22.082-5.167c-3.388-.793-5.504-4.127-4.727-7.447L55.44 16.35z" fill="#D8D8D8"/><path d="M74.725 11.353l-.984 4.207 14.72 3.446c-1.488-1.934-1.03-3.412-.749-4.614l-12.987-3.04z" fill="#D8D8D8"/><path d="M74.725 11.353l-.984 4.207-14.721-3.445c2.191-1.072 2.437-2.6 2.718-3.802l12.987 3.04z" fill="#D8D8D8"/><path fill-rule="evenodd" clip-rule="evenodd" d="M59.877 16.752c.417-1.778 2.065-2.914 3.681-2.535l7.026 1.644c1.617.378 2.59 2.127 2.174 3.905-.416 1.779-2.064 2.914-3.68 2.536l-7.027-1.645c-1.617-.378-2.59-2.127-2.174-3.905z" fill="#fff"/><path d="M60.705 2.156c.15-.638.807-1.03 1.468-.876l28.734 6.725c.661.155 1.076.798.927 1.436l-1.218 5.202c-.15.638-.806 1.03-1.468.876L60.414 8.794c-.66-.155-1.076-.798-.926-1.436l1.217-5.202z" fill="#BFBFBF"/><rect x="56.402" y="23.831" width="26" height="24" rx="2" transform="rotate(13.203 56.402 23.83)" fill="#EAEAEA"/><path fill-rule="evenodd" clip-rule="evenodd" d="M33.626 20.104c2.285-.57 4.63.802 5.24 3.065l20.712 76.835a4.158 4.158 0 0 1-3.031 5.13c-2.284.571-4.63-.801-5.24-3.064L30.594 25.234a4.159 4.159 0 0 1 3.031-5.13z" fill="#A6A6A6"/><path d="M61.985 74.606C63.589 62.5 74.704 53.985 86.81 55.59l25.294 3.35c12.107 1.605 20.622 12.72 19.018 24.827-1.604 12.107-12.719 20.621-24.826 19.017l-25.295-3.35c-12.107-1.605-20.621-12.72-19.017-24.827z" fill="#979797"/><path d="M130.534 86.697c-2.863 10.518-13.132 17.558-24.237 16.087l-25.294-3.351C69.899 97.962 61.817 88.49 61.791 77.59l68.743 9.107z" fill="#BFBFBF"/><path d="M71.383 78.86l4.638.615a5.745 5.745 0 0 0 6.45-4.94l.828-6.252 28.891 3.828-.828 6.251a5.745 5.745 0 0 0 4.94 6.45l5.167.684a21.243 21.243 0 0 1 .883 9.486l-1.836 13.862a8 8 0 0 1-8.981 6.88l-38.432-5.092a8 8 0 0 1-6.88-8.981L68.06 87.79a21.253 21.253 0 0 1 3.323-8.93z" fill="#D8D8D8"/><path d="M111.749 45.547c-.772 5.828-6.123 9.927-11.951 9.155-5.829-.772-9.928-6.123-9.156-11.952.773-5.828 6.123-9.927 11.952-9.155 5.829.772 9.927 6.123 9.155 11.952z" fill="#979797"/><path d="M84.005 80.958a5.71 5.71 0 0 1 11.322 1.5l-.463 3.493a5.71 5.71 0 1 1-11.322-1.5l.463-3.493zM108.735 84.234a5.71 5.71 0 0 0-11.323-1.5l-.462 3.493a5.71 5.71 0 0 0 11.322 1.5l.463-3.493z" fill="#fff"/><path d="M88.96 81.68a1.874 1.874 0 0 0 2.09-2.189 2.572 2.572 0 0 1 2.696 2.906l-.424 3.2a2.572 2.572 0 0 1-5.1-.675l.425-3.2c.004-.036.01-.071.016-.106.095.029.194.05.296.064zM99.27 83.046a1.874 1.874 0 0 0 2.09-2.189 2.572 2.572 0 0 1 2.696 2.906l-.424 3.2a2.572 2.572 0 1 1-5.1-.675l.425-3.2.016-.106c.095.028.194.05.296.064z" fill="#979797"/><path fill-rule="evenodd" clip-rule="evenodd" d="M77.013 82.792a.615.615 0 0 1 .843-.216l3.839 2.267a.615.615 0 0 1-.13 1.118l-4.318 1.343a.616.616 0 0 1-.365-1.176l2.992-.93-2.644-1.563a.616.616 0 0 1-.217-.843zM114.944 87.818a.615.615 0 0 0-.757-.43l-4.297 1.19a.616.616 0 0 0-.166 1.114l3.819 2.42a.616.616 0 0 0 .659-1.04l-2.647-1.677 2.96-.82c.328-.09.52-.43.429-.757z" fill="#979797"/><path fill-rule="evenodd" clip-rule="evenodd" d="M98.076 107.629a.616.616 0 0 1-.354.795c-4.275 1.638-8.028-.137-9.407-1.264a.615.615 0 1 1 .778-.953c1.142.932 4.438 2.505 8.188 1.067a.615.615 0 0 1 .795.355z" fill="#BFBFBF"/><path d="M84.013 74.46l26.341 3.49-1.176 8.879-26.34-3.49 1.175-8.878z" fill="#D8D8D8"/><path fill-rule="evenodd" clip-rule="evenodd" d="M94.464 105.389c-.845-.648-1.824-.457-2.149-.307a1.025 1.025 0 1 1-.86-1.862c.777-.36 2.623-.712 4.258.541a1.027 1.027 0 0 1-1.249 1.628zM80.57 82.345a1.846 1.846 0 0 1 2.073-1.588l27.459 3.638a1.846 1.846 0 1 1-.485 3.66l-27.46-3.637a1.846 1.846 0 0 1-1.587-2.073z" fill="#979797"/><path d="M95.98 85.548c.123.016.987 1.898 1.86 3.867.867 1.96-.753 4.096-2.878 3.815-2.125-.282-3.134-2.767-1.785-4.433 1.355-1.674 2.679-3.265 2.802-3.249z" fill="#BFBFBF"/><path d="M24.219 91.107l22.824-6.175a3 3 0 0 1 3.68 2.112l.66 2.439a3 3 0 0 1-2.113 3.679l-22.824 6.176-2.227-8.23zM11.416 43.781l22.824-6.176a3 3 0 0 1 3.68 2.112l.66 2.44a3 3 0 0 1-2.112 3.679L13.643 52.01l-2.227-8.23zM17.816 67.445l22.824-6.176a3 3 0 0 1 3.68 2.112l.66 2.439a3 3 0 0 1-2.113 3.68l-22.824 6.175-2.227-8.23z" fill="#979797"/><path fill-rule="evenodd" clip-rule="evenodd" d="M5.097 27.697c2.285-.581 4.63.805 5.236 3.097l20.594 77.812a4.233 4.233 0 0 1-3.04 5.203c-2.286.581-4.63-.805-5.237-3.097L2.056 32.9a4.232 4.232 0 0 1 3.04-5.203z" fill="#A6A6A6"/></svg>