<svg xmlns="http://www.w3.org/2000/svg" viewBox="0 0 135 124"><defs><style>.cls-2{fill:#aee560}.cls-3{fill:#ffb5a1}.cls-4{fill:#825035}.cls-7{fill:#cb791d}</style></defs><g id="Layer_3" data-name="Layer 3"><rect id="bg" x="11" y="11" width="113" height="113" rx="17" fill="#d8fdbc"/><path class="cls-2" d="M49 124H28a16.87 16.87 0 0 1-5.05-.77 16.54 16.54 0 0 1-4.95-2.47 16.92 16.92 0 0 1-4-4.05 17.2 17.2 0 0 1-2.25-4.71c-.15-.48-.27-1-.38-1.48A17 17 0 0 1 11 107v-1.55A35.26 35.26 0 0 1 49 124zM124 82.36V107a17 17 0 0 1-17 17H53.31a35.24 35.24 0 0 1 36.53-12.3A35.16 35.16 0 0 1 124 82.36z"/><path class="cls-3" d="M59.43 46.94a7.2 7.2 0 0 1 2.67 9.83L50 78.09a7.2 7.2 0 0 1-9.83 2.67l-.63-13.43L49.6 49.6a7.2 7.2 0 0 1 9.83-2.66z"/><path class="cls-4" d="M11 57.13h82.53v7.46H11z"/><path d="M99.76 73.24V48.47a4.3 4.3 0 0 1 6.2-3.85l26.8 13.23a3.35 3.35 0 0 1 0 6L106 77.09a4.3 4.3 0 0 1-6.24-3.85z" fill="#c5c5c5"/><path class="cls-4" d="M96.59 52.41h3.17V69.3h-3.17a4.25 4.25 0 0 1-4.25-4.25v-8.39a4.25 4.25 0 0 1 4.25-4.25z"/><path d="M74.62 26.65v88a1.43 1.43 0 0 1-1.42 1.43H57.15a1.43 1.43 0 0 1-1.43-1.43v-88-1.88a1.42 1.42 0 0 1 1.42-1.49h16a1.42 1.42 0 0 1 1.43 1.37c.05.67.05 1.35.05 2z" fill="#e3a15f"/><path class="cls-7" d="M74.63 27.34v4.78l-18.9 8.19v-4.75l18.9-8.22zM74.63 46.45V51l-18.9 6.41v-4.54l18.9-6.42zM74.62 88.93v4.7l-18.89 7.8v-4.71l18.89-7.79zM74.63 107.18v4.27l-18.9 1.75v-4.27l18.9-1.75z"/><path d="M99.76 55.29h10.46a5.56 5.56 0 0 1 5.56 5.56 5.56 5.56 0 0 1-5.56 5.56H99.76V55.29z" fill="#afafaf"/><path class="cls-3" d="M49.49 106.18l24.68-.05-.5-41.7-27.34.09A9.38 9.38 0 0 0 37.07 74l.24 20.29a12 12 0 0 0 12.18 11.89z"/><path class="cls-3" d="M92.33 71.71a7.22 7.22 0 0 0-7.2-7.21l-10.54-.11a7.2 7.2 0 0 0-7.22 7.19 7.22 7.22 0 0 0 7.2 7.22l10.54.11a7.22 7.22 0 0 0 7.22-7.2z"/><path class="cls-3" d="M84 85.85a7.19 7.19 0 0 0-7.19-7.21l-10.55-.12a7.2 7.2 0 0 0-7.26 7.2 7.19 7.19 0 0 0 7.19 7.21l10.56.07A7.19 7.19 0 0 0 84 85.85z"/><path class="cls-3" d="M81.86 99a7.19 7.19 0 0 0-7.19-7.21l-7.53-.08a7.19 7.19 0 0 0-7.21 7.19 7.2 7.2 0 0 0 7.19 7.22l7.53.07A7.2 7.2 0 0 0 81.86 99zM21.6 71.11h18.13v30.63H21.6z"/><path class="cls-4" d="M30.26 71.3v40.4a5 5 0 0 1-5 5h-11.2a17.2 17.2 0 0 1-2.31-4.7c-.15-.48-.27-1-.38-1.48A17 17 0 0 1 11 107V67.81h15.77a3.48 3.48 0 0 1 3.49 3.49zM57.11 116.12h15.83V124H57.11zM57.02 11h16.2v12.28h-16.2z"/><circle cx="104.81" cy="49.28" r="2.95" fill="#fff"/></g></svg>