<svg viewBox="0 0 136 124" fill="none" xmlns="http://www.w3.org/2000/svg"><rect x="12.209" y="11" width="113" height="113" rx="17" fill="#E5E5E5"/><path d="M19.747 27.55c0-6.577 5.331-11.908 11.908-11.908h37.423c6.576 0 11.907 5.331 11.907 11.908v38.38c.01 1.19.182 3.662 2.897 3.862h6.033c.705 0 1.276.572 1.276 1.276 0 7.124-5.776 12.9-12.9 12.9H22.015c-7.124 0-12.9-5.776-12.9-12.9 0-.704.571-1.275 1.276-1.275h6.459c2.778-.206 2.893-2.79 2.897-3.945V27.55z" fill="#BFBFBF"/><path fill-rule="evenodd" clip-rule="evenodd" d="M23.857 35.063c0-6.185 5.014-11.199 11.199-11.199h29.627c6.184 0 11.198 5.014 11.198 11.199v48.48H23.857v-48.48z" fill="#D1D1D1"/><path fill-rule="evenodd" clip-rule="evenodd" d="M36.016 37.853a6.684 6.684 0 0 1 13.367 0v4.065a6.684 6.684 0 1 1-13.367 0v-4.065z" fill="#fff"/><path d="M41.899 38.367a2.197 2.197 0 0 0 2.117-2.789 3 3 0 0 1 3.53 2.954v3.769a3 3 0 0 1-6.001 0v-3.769c0-.065.002-.129.006-.192.113.018.23.027.348.027z" fill="#959595"/><path d="M52.827 34.212a6.653 6.653 0 0 0-1.077 3.64v4.066a6.684 6.684 0 0 0 13.367 0v-4.065c0-1.37-.412-2.644-1.12-3.705a14.267 14.267 0 0 1-5.317 1.021h-.698c-1.817 0-3.555-.338-5.155-.956z" fill="#fff"/><path d="M53.612 38.213a2.197 2.197 0 0 0 2.914-2.68l.07-.002a3 3 0 0 1 3.001 3.001v3.769a3 3 0 0 1-6.001 0v-3.769c0-.108.005-.214.017-.32z" fill="#959595"/><rect x="21.447" y="77.022" width="57.127" height="8.505" rx="1.559" fill="#959595"/><path fill-rule="evenodd" clip-rule="evenodd" d="M47.747 77.606c.123-.509.578-.868 1.102-.868h3.459c.524 0 .98.36 1.102.868l2.289 9.498c.172.713-.369 1.4-1.103 1.4h-8.035a1.134 1.134 0 0 1-1.103-1.4l2.289-9.498z" fill="#fff"/><path fill-rule="evenodd" clip-rule="evenodd" d="M50.524 52.34a2.976 2.976 0 0 0 2.977-2.975c0-1.643-2.977-5.53-2.977-5.53s-2.977 3.887-2.977 5.53a2.976 2.976 0 0 0 2.977 2.975zM58.962 55.598a2.893 2.893 0 0 0-3.88.287 4.568 4.568 0 0 1-5.274.98l-.105-.051a3.055 3.055 0 0 0-3.934 1.19L45 59.29a.837.837 0 1 1-1.437-.86l.769-1.285a4.73 4.73 0 0 1 6.09-1.844l.106.05a2.893 2.893 0 0 0 3.34-.62 4.568 4.568 0 0 1 6.126-.453l1.215.95a.838.838 0 0 1-1.031 1.32l-1.216-.95z" fill="#959595"/><path d="M29.18 25.528a11.192 11.192 0 0 0-5.323 9.535v10.97a5.883 5.883 0 0 0 5.387-5.862V26.394c0-.294-.022-.583-.064-.866zM71.084 25.873a11.186 11.186 0 0 1 4.797 9.19v10.895a5.885 5.885 0 0 1-4.82-5.787V26.394c0-.175.008-.35.023-.52z" fill="#BFBFBF"/><rect x="18.051" y="21.312" width="64.629" height="7.513" rx="1.843" fill="#959595"/><path d="M38.846 20.14a10.905 10.905 0 0 1-2.486-2.056c-3.153-3.51-3.675-8.605-1.382-12.588.477-.829 1.364-.948 2.004-.236l2.502 2.726a12.75 12.75 0 0 1 10.881-6.094c7.046 0 12.758 5.712 12.758 12.758 0 7.046-5.712 12.758-12.758 12.758-5.08 0-9.467-2.97-11.519-7.267z" fill="#BFBFBF"/><path d="M21.518 53.284a5.741 5.741 0 1 0 0-11.482 5.741 5.741 0 0 0 0 11.482zM78.645 53.284a5.741 5.741 0 1 0 0-11.483 5.741 5.741 0 0 0 0 11.483z" fill="#D1D1D1"/><path d="M108.128 113.238l-26.923-6.82a2.033 2.033 0 0 1-1.5-2.337l8.791-47.9 37.137 9.407-15.073 46.309a2.033 2.033 0 0 1-2.432 1.341z" fill="#fff"/><path d="M90.905 50.016l36.606 9.273a4.104 4.104 0 1 1-2.016 7.958l-36.606-9.273a4.105 4.105 0 0 1 2.016-7.958z" fill="#959595"/><path d="M125.91 62.27L90.895 53.4l2.353-7.679a3.649 3.649 0 0 1 4.385-2.468l27.208 6.902a3.648 3.648 0 0 1 2.677 4.27l-1.608 7.845zM80.99 90.066l4.594-22.38a1.947 1.947 0 0 1 2.313-1.494l.07.016 33.757 8.552a1.948 1.948 0 0 1 1.435 2.254l-.034.146-6.687 21.89a1.825 1.825 0 0 1-2.193 1.236l-31.917-8.085a1.824 1.824 0 0 1-1.339-2.135z" fill="#959595"/><path d="M99.891 91.436a8.21 8.21 0 1 0 4.032-15.917 8.21 8.21 0 0 0-4.032 15.916z" fill="#fff"/></svg>