<svg viewBox="0 0 135 124" fill="none" xmlns="http://www.w3.org/2000/svg"><g clip-path="url(#clip0)"><path d="M107 11H28c-9.389 0-17 7.611-17 17v79c0 9.389 7.611 17 17 17h79c9.389 0 17-7.611 17-17V28c0-9.389-7.611-17-17-17z" fill="#B2B2B2"/><path d="M35.96 11.815c-.014-.167-.03-.334-.053-.502-.727-5.651-5.898-9.642-11.55-8.915-5.65.728-9.642 5.9-8.914 11.55.714 5.545 5.706 9.491 11.231 8.95.014.168.03.335.053.503.727 5.651 5.898 9.642 11.55 8.915 5.65-.728 9.642-5.9 8.914-11.55-.714-5.545-5.706-9.491-11.231-8.95z" fill="#9F9F9F"/><path d="M8.428 37.623c-.878-6.81 3.933-13.043 10.744-13.92l37.388-4.815c6.81-.878 13.043 3.933 13.92 10.744l3.222 25.02c.878 6.811-3.933 13.044-10.744 13.92L25.57 73.389c-6.812.877-13.044-3.934-13.921-10.745l-3.222-25.02z" fill="#E5E5E5"/><path fill-rule="evenodd" clip-rule="evenodd" d="M47.832 26.387a7.846 7.846 0 0 0-6.78 8.784l.61 4.733A7.846 7.846 0 1 0 57.225 37.9l-.61-4.733a7.846 7.846 0 0 0-8.783-6.78z" fill="#fff"/><path d="M40.585 42.42c.141-.018 1.642 1.798 3.177 3.71 1.527 1.9.37 4.725-2.05 5.036-2.42.312-4.256-2.126-3.26-4.353 1.002-2.238 1.992-4.375 2.133-4.393z" fill="#CDCDCD"/><path d="M14.8 25.12c-4.365 2.384-7.046 7.273-6.372 12.504l1.224 9.508.453-.059a7.46 7.46 0 0 0 6.446-8.352L14.8 25.119zM61.148 19.15c4.827 1.202 8.659 5.252 9.333 10.483l1.224 9.507-.453.059a7.46 7.46 0 0 1-8.352-6.447L61.148 19.15z" fill="#CECECE"/><path fill-rule="evenodd" clip-rule="evenodd" d="M29.513 28.747a7.846 7.846 0 0 1 8.784 6.779l.61 4.733a7.846 7.846 0 0 1-15.563 2.004l-.61-4.733a7.845 7.845 0 0 1 6.78-8.783z" fill="#fff"/><path fill-rule="evenodd" clip-rule="evenodd" d="M49.047 33.257a.513.513 0 0 1 .574.442 3.5 3.5 0 1 0 6.944-.894 7.514 7.514 0 0 0-8.412-6.492 3.5 3.5 0 1 0 .894 6.944zM30.729 35.616a.513.513 0 0 1 .573.443 3.5 3.5 0 1 0 6.945-.895 7.514 7.514 0 0 0-8.413-6.492 3.5 3.5 0 0 0 .895 6.944z" fill="#9F9F9F"/><path d="M21.886 35.257l-.302 2.053 12.464-9.024L32 27.933a8.724 8.724 0 0 0-10.115 7.325z" fill="#E5E5E5"/><path fill-rule="evenodd" clip-rule="evenodd" d="M43.328 27.09l14.343 5.573-.811-1.91a8.724 8.724 0 0 0-11.64-4.523l-1.892.86z" fill="#E5E5E5"/><path d="M36.954 55.108c.87 6.745-3.895 12.918-10.64 13.786-6.746.87-12.918-3.895-13.787-10.64-.868-6.746 3.896-12.918 10.64-13.787 6.746-.868 12.919 3.896 13.787 10.641z" fill="#E5E5E5"/><path fill-rule="evenodd" clip-rule="evenodd" d="M51.537 50.943a.875.875 0 0 1 .306 1.199 12.747 12.747 0 0 1-11.925 6.213 12.747 12.747 0 0 1-10.861-7.927.875.875 0 0 1 1.622-.658 10.997 10.997 0 0 0 9.37 6.84 10.997 10.997 0 0 0 10.29-5.361.875.875 0 0 1 1.198-.306z" fill="#9F9F9F"/><path d="M8.953 55.385a5.574 5.574 0 1 0-1.424-11.057 5.574 5.574 0 0 0 1.424 11.057zM74.471 46.948a5.574 5.574 0 1 0-1.424-11.058 5.574 5.574 0 0 0 1.424 11.058zM82.198 44.706a1.82 1.82 0 0 1 2.34-1.072l44.198 16.426a1.819 1.819 0 0 1 1.071 2.34l-21.564 58.022a1.82 1.82 0 0 1-2.339 1.072l-44.198-16.427a1.819 1.819 0 0 1-1.072-2.339l21.564-58.022z" fill="#E5E5E5"/><path d="M77.824 56.474l.872-2.345 47.609 17.694-.871 2.345-47.61-17.694zM73.86 67.14l.872-2.346 47.61 17.694-.872 2.346-47.61-17.695zM69.897 77.805l.871-2.346 47.61 17.695-.872 2.345-47.61-17.694zM65.933 88.47l.871-2.345 47.61 17.694-.872 2.345-47.61-17.694zM61.969 99.135l.872-2.345 47.609 17.694-.872 2.346-47.609-17.695z" fill="#B2B2B2" fill-opacity=".5"/><path d="M66.868 106.986L89.7 45.552l2.345.872-22.832 61.433-2.345-.871z" fill="#CDCDCD"/><g style="mix-blend-mode:multiply"><path fill-rule="evenodd" clip-rule="evenodd" d="M101.276 64.377a4.469 4.469 0 1 0-7.322 5.126l6.787 9.694 9.695-6.786 1.304 1.863-1.304-1.863a4.47 4.47 0 0 0 1.098-6.224l1.843-1.29-1.843 1.29a4.47 4.47 0 0 0-6.224-1.098l-.509.357a2.276 2.276 0 0 1-3.168-.56l-.357-.509zm2.748-3.783c-3.034-3.07-7.926-3.6-11.58-1.041a9.018 9.018 0 0 0-2.216 12.559l8.09 11.558a2.274 2.274 0 0 0 3.168.558l11.558-8.09a9.017 9.017 0 0 0 2.216-12.56 9.02 9.02 0 0 0-11.236-2.985z" fill="#E5E5E5"/></g><g style="mix-blend-mode:multiply"><path fill-rule="evenodd" clip-rule="evenodd" d="M96.667 95.035a2.81 2.81 0 0 0-5.591.573l.853 8.321 8.321-.853a2.811 2.811 0 0 0-.574-5.592l-.466.048a2.275 2.275 0 0 1-2.495-2.03l-.048-.467zM93.121 88a7.362 7.362 0 0 1 7.726 4.971 7.36 7.36 0 0 1-.133 14.629l-10.584 1.085a2.276 2.276 0 0 1-2.494-2.03L86.55 96.072A7.36 7.36 0 0 1 93.12 88z" fill="#E5E5E5"/></g><path d="M98.109 19.009a5.868 5.868 0 0 0-8.272.676l-.35.413-.413-.35a5.868 5.868 0 1 0-7.595 8.947l9.36 7.946 7.946-9.36a5.868 5.868 0 0 0-.676-8.272zM115.075 36.09a4.373 4.373 0 0 0-5.833-2.058l-.364.174-.174-.364a4.374 4.374 0 0 0-7.891 3.776l3.95 8.254 8.255-3.95a4.373 4.373 0 0 0 2.057-5.833z" fill="#CDCDCD"/></g><defs><clipPath id="clip0"><path fill="#fff" d="M0 0h135v124H0z"/></clipPath></defs></svg>