<svg viewBox="0 0 136 125" fill="none" xmlns="http://www.w3.org/2000/svg"><rect x="125.506" y="124.014" width="113" height="113" rx="17" transform="rotate(-180 125.506 124.014)" fill="#E5E5E5"/><path d="M37.098 26.34c-.226.033-.454.06-.685.08-5.964.524-11.216-3.809-11.731-9.677-.516-5.868 3.9-11.05 9.865-11.574 5.962-.524 11.214 3.81 11.73 9.678.02.23.032.46.037.687l.024-.002c5.584-.49 10.509 3.651 11 9.246l.133 1.52-20.223 1.776-.134-1.52a11.177 11.177 0 0 1-.016-.215z" fill="#959595"/><path d="M66.906 23.57l-38.39 3.372c-7.194.632-12.514 6.975-11.882 14.17l2.243 25.546c.632 7.194 6.976 12.513 14.17 11.881l38.39-3.37c7.194-.632 12.513-6.976 11.882-14.17l-2.244-25.547C80.443 28.26 74.1 22.94 66.906 23.571z" fill="#D1D1D1"/><path fill-rule="evenodd" clip-rule="evenodd" d="M50.175 56.3a3.186 3.186 0 0 0 2.892-3.457c-.154-1.755-3.69-5.627-3.69-5.627s-2.806 4.429-2.651 6.184a3.186 3.186 0 0 0 3.45 2.9zM57.963 58.887a.86.86 0 0 0-.5-1.109c-1.677-.634-3.276-.774-4.753-.325-1.477.45-2.726 1.457-3.762 2.92a.86.86 0 1 0 1.403.994c.875-1.234 1.834-1.955 2.86-2.268 1.026-.312 2.226-.248 3.643.289a.86.86 0 0 0 1.11-.5z" fill="#959595"/><path d="M78.399 44.935a5.775 5.775 0 0 1 3.25-2.925l-.575-6.558c-.507-5.778-4.7-10.348-10.06-11.594L72.26 38.03a7.746 7.746 0 0 0 6.14 6.905zM17.228 47.892l-.595-6.78c-.505-5.757 2.8-10.969 7.825-13.146l1.267 14.42a7.745 7.745 0 0 1-5.127 7.976 5.783 5.783 0 0 0-3.37-2.47z" fill="#959595"/><path d="M84.096 53.18a5.763 5.763 0 1 0-1.009-11.483 5.763 5.763 0 0 0 1.008 11.482zM16.242 59.202a5.763 5.763 0 1 0-1.008-11.482 5.763 5.763 0 0 0 1.008 11.482z" fill="#D1D1D1"/><path d="M66.368 40.208c-.366.155-.756.317-1.17.484-3.307 1.333-8.153 2.998-14.657 4.53a8.11 8.11 0 0 0 4.5 6.053c3.312-1.709 6.913-2.951 10.795-3.734a8.074 8.074 0 0 0 .8-4.288l-.268-3.045zM44.584 52.194c-3.558-1.106-7.32-1.702-11.28-1.796a8.074 8.074 0 0 1-1.535-4.084l-.267-3.045c.388.09.8.18 1.237.273 3.489.736 8.55 1.531 15.222 1.906a8.11 8.11 0 0 1-3.377 6.746z" fill="#fff"/><path d="M45.721 45.303a110.982 110.982 0 0 1-7.373-.784l.105 1.195a3.642 3.642 0 0 0 7.268-.411zM52.722 44.688c2.688-.683 5.06-1.382 7.124-2.056l.105 1.195a3.642 3.642 0 0 1-7.229.86z" fill="#959595"/><path fill-rule="evenodd" clip-rule="evenodd" d="M112.999 89.77a9.13 9.13 0 1 1 18.237.935 9.13 9.13 0 0 1-18.237-.935zM55.74 86.834a9.13 9.13 0 1 1 18.236.935 9.13 9.13 0 0 1-18.236-.935z" fill="#BFBFBF"/><path fill-rule="evenodd" clip-rule="evenodd" d="M67.064 84.556c.752-14.674 13.257-25.96 27.932-25.207 14.674.752 25.959 13.258 25.206 27.932-.752 14.674-13.257 25.96-27.931 25.207-14.675-.752-25.96-13.258-25.207-27.932z" fill="#959595"/><path d="M87.278 72.485l-.012.013c-6.958-.042-12.784 5.401-13.143 12.42-.37 7.22 5.183 13.375 12.404 13.745 2.34.12 4.568-.382 6.524-1.362a13.03 13.03 0 0 0 6.35 2.022c7.221.37 13.375-5.183 13.746-12.404.361-7.056-4.935-13.093-11.914-13.71l-.005-.009-13.95-.715z" fill="#BFBFBF"/><path fill-rule="evenodd" clip-rule="evenodd" d="M91.937 119.004c-6.76-.346-11.96-6.107-11.613-12.867l.77-15.006 24.48 1.255-.77 15.007c-.346 6.759-6.108 11.958-12.867 11.611z" fill="#BFBFBF"/><path fill-rule="evenodd" clip-rule="evenodd" d="M99.061 103.596l-6.019 1.172a4.94 4.94 0 0 1-5.793-3.906l-.051-.259a1.946 1.946 0 0 1 1.539-2.282l11.897-2.316a1.945 1.945 0 0 1 2.281 1.538l.051.26a4.94 4.94 0 0 1-3.905 5.793zM86.744 92.442a6.691 6.691 0 0 1-6.34-7.026l.168-3.283c.19-3.69 3.128-2.5 6.819-2.31 3.691.189 6.735-.695 6.546 2.995l-.168 3.284a6.69 6.69 0 0 1-7.025 6.34z" fill="#fff"/><path fill-rule="evenodd" clip-rule="evenodd" d="M88.455 79.54a3.72 3.72 0 0 1 3.524 3.905l-.146 2.854a3.72 3.72 0 0 1-7.43-.381l.147-2.854a3.72 3.72 0 0 1 3.905-3.524z" fill="#959595"/><path fill-rule="evenodd" clip-rule="evenodd" d="M99.823 93.112a6.692 6.692 0 0 0 7.025-6.34l.168-3.283c.189-3.69-2.965-.672-6.656-.86-3.691-.19-6.52-3.516-6.71.174l-.168 3.284a6.691 6.691 0 0 0 6.34 7.025z" fill="#fff"/><path fill-rule="evenodd" clip-rule="evenodd" d="M99.44 80.103a3.72 3.72 0 0 0-3.906 3.524l-.146 2.854a3.72 3.72 0 0 0 7.429.381l.147-2.854a3.72 3.72 0 0 0-3.524-3.905z" fill="#959595"/><path d="M78.01 77.993l31.556 1.618-.375 7.309-31.556-1.618.375-7.309z" fill="#BFBFBF"/><path d="M91.867 79.76c.85.638.268 1.796-.794 1.742l-8.228-.422c-1.062-.054-1.524-1.266-.612-1.814a8.618 8.618 0 0 1 4.892-1.218 8.618 8.618 0 0 1 4.742 1.712zM105.129 83.79c.851.637.267 1.796-.794 1.741l-8.229-.422c-1.061-.054-1.523-1.266-.612-1.813a8.62 8.62 0 0 1 4.893-1.218 8.619 8.619 0 0 1 4.742 1.712zM93.04 104.768l6.02-1.172a4.942 4.942 0 0 0 3.99-4.6l-15.435 3.006a4.942 4.942 0 0 0 5.425 2.766z" fill="#959595"/></svg>