<svg viewBox="0 0 135 124" fill="none" xmlns="http://www.w3.org/2000/svg"><path fill-rule="evenodd" clip-rule="evenodd" d="M28 11h79c9.389 0 17 7.611 17 17v79c0 9.389-7.611 17-17 17H28c-9.389 0-17-7.611-17-17V28c0-9.389 7.611-17 17-17z" fill="#2B70C9"/><path d="M36.852 38.575l-28.958 17.4c-5.089 3.057-6.735 9.661-3.678 14.75l17.75 29.539c.502.837 1.78 2.99-.351 4.496l-5.479 3.291a.576.576 0 0 0-.211.765 11.614 11.614 0 0 0 7.463 5.828 11.61 11.61 0 0 0 8.815-1.317l43.546-26.166a11.61 11.61 0 0 0 5.302-7.164 11.616 11.616 0 0 0-1.642-9.326.576.576 0 0 0-.775-.172l-5.15 3.094c-2.292 1.157-3.59-.898-4.109-1.76a8.71 8.71 0 0 1-.024-.041l-17.749-29.54c-3.058-5.088-9.661-6.735-14.75-3.677z" fill="#FFB100"/><path d="M14.35 60.755L37.273 46.98c4.786-2.875 10.997-1.327 13.872 3.46l22.541 37.513-40.256 24.188-22.54-37.514c-2.876-4.785-1.328-10.996 3.458-13.872z" fill="#FFC6B7"/><path d="M33.772 63.817a6.034 6.034 0 1 1 10.344-6.215l1.89 3.146c.108.18.206.363.293.55a12.933 12.933 0 0 0-3.007 1.323l-.54.324a12.856 12.856 0 0 0-5.213 5.966 6.011 6.011 0 0 1-1.877-1.948l-1.89-3.146zM31.94 64.917a6.034 6.034 0 0 0-10.343 6.215l1.89 3.146c.115.192.24.376.373.55a12.93 12.93 0 0 1 2.691-2.149l.54-.324a12.856 12.856 0 0 1 7.57-1.813 6.01 6.01 0 0 0-.83-2.479l-1.89-3.146z" fill="#fff"/><path opacity=".416" fill-rule="evenodd" clip-rule="evenodd" d="M51.831 82.675c.405.1.653.51.552.916a9.42 9.42 0 0 1-6.564 6.798.756.756 0 0 1-.414-1.455 7.908 7.908 0 0 0 5.51-5.706c.101-.406.51-.653.916-.553z" fill="#F3A577"/><path fill-rule="evenodd" clip-rule="evenodd" d="M38.199 73.343a2.687 2.687 0 0 0 .92-3.687c-.764-1.271-4.875-2.895-4.875-2.895s-.496 4.392.268 5.663a2.687 2.687 0 0 0 3.687.919z" fill="#F3A577"/><path d="M17.552 89.814a5.183 5.183 0 1 0-5.338-8.885 5.183 5.183 0 0 0 5.338 8.885zM61.757 63.253a5.183 5.183 0 1 0-5.339-8.885 5.183 5.183 0 0 0 5.34 8.885z" fill="#FFC6B7"/><path d="M37.8 63.542a2.93 2.93 0 0 1-3.22-.134c.049.7.26 1.399.645 2.041l1.104 1.837a4.581 4.581 0 0 0 1.308 1.402 12.842 12.842 0 0 1 3.828-4.861 1.984 1.984 0 0 1 1.732-2.968l-.088-.147a4.6 4.6 0 0 0-5.13-2.075 2.929 2.929 0 0 1-.179 4.905zM31.38 70.725a12.887 12.887 0 0 0-4.289 1.63l-.54.324c-.282.17-.556.349-.82.536l-.91-1.514a4.58 4.58 0 0 1-.638-1.94 2.929 2.929 0 0 0 3.294-4.845 4.6 4.6 0 0 1 5.228 2.048l.636 1.058a1.984 1.984 0 0 0-1.96 2.703z" fill="#3D3D3D"/><path d="M21.533 79.752a5.67 5.67 0 0 1 7.269-3.385c5.502 2.005 9.904.68 14.353-4.552a5.67 5.67 0 1 1 8.639 7.346c-7.426 8.733-16.766 11.545-26.876 7.86a5.67 5.67 0 0 1-3.385-7.269z" fill="#702323"/><path fill-rule="evenodd" clip-rule="evenodd" d="M27.2 92.216a5.796 5.796 0 0 0 11.085 3.389l2.431-7.953a3.276 3.276 0 0 0-5.877-2.748 3.276 3.276 0 0 0-5.724 1.046l-1.916 6.266z" fill="#E64340"/><path d="M32.828 77.242c-1.283-.068-2.619-.363-4.027-.876a5.67 5.67 0 0 0-7.062 7.761l.463-.278a2.303 2.303 0 0 0 1.116-2.029c.698.392 1.581.408 2.316-.033l1.536-.923a2.302 2.302 0 0 0 1.117-2.029c.698.392 1.58.408 2.315-.033l1.536-.923c.28-.169.512-.387.69-.637z" fill="#fff"/><path d="M15.991 83.117l-5.1-8.49a10.103 10.103 0 0 1-.315-9.853c.164.2.315.414.452.642l6.406 10.66a5.311 5.311 0 0 1-1.443 7.04zM56.212 58.87a5.312 5.312 0 0 1-6.42-2.237l-6.405-10.66a5.345 5.345 0 0 1-.225-.414 10.098 10.098 0 0 1 7.984 4.88l5.066 8.431z" fill="#FFB100"/><path d="M48.584 37.497L1.426 65.833a1.664 1.664 0 0 0-.57 2.282l1.78 2.962a1.664 1.664 0 0 0 2.283.57L52.077 43.31a1.664 1.664 0 0 0 .57-2.283l-1.78-2.962a1.664 1.664 0 0 0-2.283-.569z" fill="#FF4B4B"/><path d="M13.133 35.414c5.043-3.876 12.274-2.93 16.15 2.113 3.877 5.042 2.93 12.273-2.112 16.15a11.518 11.518 0 0 1-12.242 1.136c-.95.108-1.93.078-2.912-.104-4.188-.778-7.365-4.137-7.915-8.249-.114-.856.455-1.43 1.305-1.272l3.29.575a11.51 11.51 0 0 1 4.436-10.349z" fill="#FFB100"/><path d="M29.21 107.491L71 82.38a1.408 1.408 0 0 1 1.932.482l2.505 4.168c.4.666.184 1.53-.482 1.931l-2.467 1.483a10.822 10.822 0 0 1 7.547 4.972c.427.683.776 1.41 1.041 2.17l3.292 9.42a11.948 11.948 0 0 1 3.448-3.895l8.899-6.466c5.362-3.895 12.866-2.707 16.761 2.655l7.642 10.517a12.027 12.027 0 0 1 1.71 3.352c-2.47 6.34-8.633 10.832-15.846 10.832h-79c-.69 0-1.37-.041-2.038-.121a10.828 10.828 0 0 1 3.123-9.091 10.895 10.895 0 0 1 1.887-1.494l.073-.045-2.3-3.827a1.408 1.408 0 0 1 .482-1.932z" fill="#FF4B4B"/><path d="M57.86 124.001h-3.047l-3.438-19.502-2.14.454A1.023 1.023 0 0 1 48 103.924l.239-8.816c.012-.473.348-.875.81-.974l3.054-.649c.463-.098.933.133 1.137.56l3.803 7.957a1.024 1.024 0 0 1-.71 1.443l-2.021.429 3.549 20.127zM126.3 58.992a7 7 0 0 1 1.888 9.718l-1.677 2.487a7.004 7.004 0 0 1-7.898 2.767l-9.388 13.92a1.5 1.5 0 0 1-2.487-1.678l9.266-13.738a7.002 7.002 0 0 1-1.1-9.1l1.678-2.487a7 7 0 0 1 9.718-1.889z" fill="#EBE3E3"/><path d="M125.981 66.618a4.5 4.5 0 1 0-7.461-5.033l-2.237 3.316a4.5 4.5 0 1 0 7.461 5.033l2.237-3.316z" fill="#CFC1C1"/><path d="M109.476 83.446a4.001 4.001 0 0 0-7.949.884A9.996 9.996 0 0 0 96.514 93c0 5.523 4.477 10 10 10s10-4.477 10-10c0-4.492-2.962-8.292-7.038-9.554z" fill="#FFC6B7"/><path d="M114.426 1.756l-1.554-.597a1.499 1.499 0 0 0-1.936.862L88.045 61.656c-.297.772.089 1.639.861 1.935l1.555.597a1.498 1.498 0 0 0 1.935-.862l22.892-59.635a1.497 1.497 0 0 0-.862-1.935z" fill="#FED5D5"/><path d="M115.18 3.974l-5.316.842-1.929 5.025 5.316-.842 1.929-5.025zM111.748 12.914l-5.316.841-1.929 5.026 5.316-.842 1.929-5.025zM108.317 21.853l-5.317.842-1.929 5.026 5.317-.843 1.929-5.025zM104.885 30.793l-5.316.842-1.93 5.025 5.317-.842 1.929-5.025zM101.147 40.53l-5.316.843-1.93 5.025 5.317-.842 1.929-5.025z" fill="#FC4848"/><path d="M64.565 21.044a2.14 2.14 0 1 0 1.17 4.117l.138-.036c1.343-.313 2.65.398 3.978 2.48a6.474 6.474 0 0 1 3.95-1.716c-2.446-4.099-5.555-5.892-9.236-4.845z" fill="#BF1C24"/><path d="M80.767 32.37a6.498 6.498 0 1 0-12.995 0 6.498 6.498 0 0 0 12.995 0z" fill="#FC4848"/><path d="M89.864 17.06c6.351 0 11.5 5.15 11.5 11.5 0 1.993-.507 3.867-1.398 5.5h1.898a6.5 6.5 0 1 1 0 13h-38a6.5 6.5 0 0 1 0-13h15.898a11.45 11.45 0 0 1-1.398-5.5c0-6.35 5.148-11.5 11.5-11.5z" fill="#D7FEB9"/><path d="M113.179 42.782a3.762 3.762 0 0 0-3.762-3.761H55.382a3.762 3.762 0 0 0-3.762 3.761V57.83a3.762 3.762 0 0 0 3.762 3.762h2.543l5.805 41.879a18.82 18.82 0 0 0 7.412 12.53H67.62a4 4 0 0 0 0 8h30a4 4 0 1 0 0-8h-3.963a18.82 18.82 0 0 0 7.412-12.53l5.805-41.88 2.543.001a3.762 3.762 0 0 0 3.762-3.762V42.783z" fill="#B5F1FF"/><path d="M85.62 10.5a6.5 6.5 0 1 0-13 0 6.5 6.5 0 0 0 13 0z" fill="#D7FEB9"/><path d="M59.828 45.86h45.143l-7.68 52.123a15.052 15.052 0 0 1-29.782 0L59.828 45.86z" fill="#89E219"/><path d="M98.323 90.972l6.648-45.112H59.828l6.261 42.49a11.285 11.285 0 0 0 6.05-10V63.986a3.762 3.762 0 1 1 7.525 0v15.732a4.446 4.446 0 0 0 8.891 0V67.406a2.394 2.394 0 1 1 4.788 0v19.152a4.446 4.446 0 0 0 4.98 4.414z" fill="#58A700"/></svg>