<svg id="Layer_3" data-name="Layer 3" xmlns="http://www.w3.org/2000/svg" viewBox="0 0 135 124"><defs><style>.cls-3{fill:#bfbfbf}.cls-4{fill:#d1d1d1}.cls-5{fill:#a6a6a6}.cls-6{fill:#b2b2b2}.cls-7,.cls-8{fill:#fff}.cls-8{opacity:.4}</style></defs><path d="M124 27.93V107a17 17 0 0 1-15.41 16.92 13.88 13.88 0 0 1-1.59.08H28a17.26 17.26 0 0 1-4.46-.59l-.22-.06A17 17 0 0 1 11 107V28a17 17 0 0 1 17-17h79a17 17 0 0 1 17 16.93z" fill="#efefef"/><path d="M124 83.82V107a17 17 0 0 1-15.41 16.92 13.88 13.88 0 0 1-1.59.08H28a17.26 17.26 0 0 1-4.46-.59l-.22-.06A17 17 0 0 1 11 107V83.82a76.22 76.22 0 0 1 113 0z" fill="#e5e5e5"/><path class="cls-3" d="M38.92 70.18h57.79v36.48H38.92z"/><path class="cls-3" d="M43.93 88.06a58.47 58.47 0 0 0 46.26.37l.88-.37zM60.12 15.42L52.56 9l-9.21-7.92A4.47 4.47 0 0 0 36.23 3c-2.23 6.26-4.55 17.36-.85 31.64l20.55-2.85zM101.48 33.1c-.12.51-.25 1-.38 1.54l-1.38-.19-4.36-.61-14.8-2.05-4.2-16.37L93.13 1.08a4.47 4.47 0 0 1 7.07 1.76.78.78 0 0 1 0 .14c2.21 6.02 4.44 16.58 1.28 30.12z"/><path class="cls-4" d="M101.48 33.1l-1.76 1.35-1.91 1.46-2.45-2.07-1.84-1.54L80.3 21.2c.35-.11 8.41-7.61 15.33-14.09 1.63-1.51 3.19-3 4.57-4.27a.78.78 0 0 1 0 .14c2.21 6.02 4.44 16.58 1.28 30.12z"/><path class="cls-5" d="M95.14 31.06l-1.62 1.24L80.3 21.2c.35-.11 8.41-7.61 15.33-14.09a55.44 55.44 0 0 1-.49 23.95z"/><path class="cls-4" d="M35 33.1l1.76 1.35 1.91 1.46 2.45-2.07L56.18 21.2c-.43-.14-12.61-11.53-19.89-18.36a.84.84 0 0 0-.06.14C34.08 9 31.84 19.56 35 33.1z"/><path class="cls-5" d="M41.35 31.06L43 32.3l13.18-11.1c-.34-.11-8.41-7.61-15.33-14.09a55.31 55.31 0 0 0 .5 23.95z"/><path class="cls-6" d="M110.75 62.91v.88a27.85 27.85 0 0 1-.93 7.15l-.06.19a25.35 25.35 0 0 1-4.28 8.66 1.55 1.55 0 0 1-.13.17 21.86 21.86 0 0 1-6.73 5.79l-.21.11a19.15 19.15 0 0 1-7.34 2.2 16 16 0 0 1-1.7.08H45.65a16.37 16.37 0 0 1-1.72-.08 18.93 18.93 0 0 1-7.35-2.22l-.2-.1a21.85 21.85 0 0 1-6.72-5.8.62.62 0 0 1-.14-.19 25.11 25.11 0 0 1-4.27-8.65 2.09 2.09 0 0 1-.05-.21 27.41 27.41 0 0 1-.93-7.1v-.88c0-1.38.05-2.76.15-4.12 0-.41.07-.81.11-1.22A53.9 53.9 0 0 1 30 38.35a49.14 49.14 0 0 1 4.5-7.27c7.93-10.66 19.76-17.41 33-17.41 11.94 0 22.75 5.51 30.57 14.42.85 1 1.65 2 2.42 3a49.8 49.8 0 0 1 4.74 7.76 53.72 53.72 0 0 1 5.26 18.77c0 .39.07.78.1 1.18.11 1.35.16 2.73.16 4.11z"/><path class="cls-5" d="M67.37 40a2.05 2.05 0 0 1 2.05 2.05v10.57h-4.11V42.06A2.05 2.05 0 0 1 67.37 40z"/><path class="cls-6" d="M113.92 58.32a3 3 0 0 1-2.71.71 3.19 3.19 0 0 1-.61-.23 3.45 3.45 0 0 1-1.29-1.13l-3.45-5-6.51-9.48 5.17-5.43.72 1.11 9.24 14.22a4.09 4.09 0 0 1-.56 5.23z"/><path class="cls-6" d="M114.34 72.67a3 3 0 0 1-4.34-1.18 1.74 1.74 0 0 1-.11-.18l-.09-.18-4.68-9.13-3.36-6.63 4.1-2.7 1.59-1 3 6 .71 1.41 4.33 8.54a4 4 0 0 1-1.15 5.05z"/><path class="cls-6" d="M109.73 83.54a3.24 3.24 0 0 1-4.1-2.5l-.19-.73-.09-.35-3.24-12.2-1.11-4.35 4.12-1.41 2.12-.73 2.58 9.69.14.55 2 7.39a3.85 3.85 0 0 1-2.23 4.64z"/><path class="cls-6" d="M106.38 68.19l-.9 11.6v.52l-.48 6.24a3.44 3.44 0 0 1-3.56 3.39 3.56 3.56 0 0 1-3-3.47 5.8 5.8 0 0 1 0-.59l1.13-14.44.3-3.89 2.27.23z"/><path class="cls-6" d="M102.43 72.51l-3.81 13.24-.21.72-1 3.54a3.21 3.21 0 0 1-4.14 2.39 3.82 3.82 0 0 1-2.18-4.34c0-.13.05-.25.08-.37l5-17.51 3.35 1.24zM35.65 43.17l-6.52 9.48-3.44 5a3.37 3.37 0 0 1-1.27 1.12 2.82 2.82 0 0 1-.63.24 3 3 0 0 1-2.71-.71 4.09 4.09 0 0 1-.56-5.25L30 38.35l.45-.69z"/><path class="cls-6" d="M33.24 55.35L29.88 62l-4.63 9.1-.1.21a1.74 1.74 0 0 1-.11.18 3 3 0 0 1-4.38 1.18 4 4 0 0 1-1.2-5.1L23.79 59l.74-1.46 3-6 1.58 1z"/><path class="cls-6" d="M34 63.41l-1.16 4.35-3.18 12.18-.1.37-.2.73a3.23 3.23 0 0 1-4.09 2.5 3.84 3.84 0 0 1-2.19-4.66l2-7.39.16-.6 2.56-9.64 2.12.73z"/><path class="cls-6" d="M36.59 86.47a3.56 3.56 0 0 1-3 3.47A3.44 3.44 0 0 1 30 86.55l-.48-6.24v-.56l-.91-11.56 4.27-.43 2.28-.23.3 3.89 1.12 14.42a3.92 3.92 0 0 1 .01.63z"/><path class="cls-6" d="M41.75 92.4a3.21 3.21 0 0 1-4.14-2.4l-1-3.54-.21-.73-3.83-13.22 2.89-1.09 3.35-1.24 5 17.51c0 .12.06.24.08.37a3.82 3.82 0 0 1-2.14 4.34z"/><path class="cls-3" d="M114.34 72.67a3 3 0 0 1-4.34-1.18l2 7.39a3.87 3.87 0 0 1-2.2 4.66 3.24 3.24 0 0 1-4.1-2.5l-.19-.73-.51 6.24a3.42 3.42 0 0 1-3.56 3.38 3.55 3.55 0 0 1-3-3.46l-1 3.54a3.21 3.21 0 0 1-4.14 2.39 3.82 3.82 0 0 1-2.19-4.34 15.68 15.68 0 0 1-1.69.08H71.18V46.92v-1.39A21.66 21.66 0 0 1 77 31.82a16.72 16.72 0 0 1 12.12-5.35 16.22 16.22 0 0 1 8.18 2.23 17 17 0 0 1 3.2 2.39 48.9 48.9 0 0 1 4.73 7.75l9.25 14.23a4.09 4.09 0 0 1-.56 5.25 3 3 0 0 1-2.71.71l4.33 8.54a4 4 0 0 1-1.2 5.1zM63.85 46.92v41.22H45.64a16.44 16.44 0 0 1-1.71-.08 3.81 3.81 0 0 1-2.18 4.34 3.21 3.21 0 0 1-4.14-2.4l-1-3.54a3.56 3.56 0 0 1-3 3.46A3.43 3.43 0 0 1 30 86.55l-.48-6.24-.2.73a3.22 3.22 0 0 1-4.09 2.5 3.83 3.83 0 0 1-2.19-4.66l2-7.39a3 3 0 0 1-4.38 1.18 4 4 0 0 1-1.2-5.1L23.79 59a3 3 0 0 1-2.71-.71 4.1 4.1 0 0 1-.57-5.25L30 38.36a50.43 50.43 0 0 1 4.5-7.26 17.26 17.26 0 0 1 5.23-3.38 15.79 15.79 0 0 1 6.13-1.23 16 16 0 0 1 5.53 1A17.63 17.63 0 0 1 58 31.82l.59.64A20.64 20.64 0 0 1 62.05 38a22.8 22.8 0 0 1 1.78 8c.01.3.02.62.02.92z"/><path class="cls-4" d="M63.85 46.92v7.15l-3 5-2-2.37 1.27-17.8 1.93-.9a22.77 22.77 0 0 1 1.8 8.92zM71.22 46.92v7.15l3 5 2-2.37L75 38.9l-2-.9a22.59 22.59 0 0 0-1.78 8.92z"/><path class="cls-4" d="M77 63.65a9.53 9.53 0 1 1-19 0c0-2.65 2.42-7 4.82-10.66a5.63 5.63 0 0 1 9.42 0C74.61 56.65 77 61 77 63.65z"/><path class="cls-4" d="M51.44 58.17l1.75 2.66a10.78 10.78 0 0 0 10.15-10.76c0-.39-11.9 8.1-11.9 8.1z"/><path class="cls-4" d="M63 42.32v8.06a10.5 10.5 0 1 1-21 0v-8.06a10.5 10.5 0 1 1 21 0z"/><rect class="cls-7" x="45.03" y="37.23" width="17.63" height="21.37" rx="8.82" ry="8.82"/><path class="cls-4" d="M51.06 60.75a10.6 10.6 0 0 0 1.5.1h.63A10.79 10.79 0 0 0 63 52.62c-1.37.73-7.37 4.91-11.94 8.13z"/><rect class="cls-5" x="52.31" y="42.4" width="7.09" height="11.58" rx="3.54" ry="3.54"/><rect class="cls-4" x="72.12" y="31.82" width="20.99" height="29.06" rx="10.5" ry="10.5" transform="rotate(180 82.61 46.345)"/><rect class="cls-7" x="72.42" y="37.23" width="17.63" height="21.37" rx="8.82" ry="8.82"/><path class="cls-4" d="M84 60.75a10.6 10.6 0 0 1-1.5.1h-.63a10.77 10.77 0 0 1-9.85-8.21c1.44.71 7.44 4.89 11.98 8.11z"/><rect class="cls-5" x="75.69" y="42.4" width="7.09" height="11.58" rx="3.54" ry="3.54" transform="rotate(-180 79.23 48.185)"/><path class="cls-6" d="M97.36 95.36l-5-2.68C86 89.26 78.48 83.14 77.11 76l-.19-4.59H58l-.09 4.12c-1.4 7.25-9 13.45-15.6 16.84l-5.77 3V124H101z"/><path class="cls-5" d="M66.69 94.71a18.71 18.71 0 0 1 18.71 18.71V124H48v-10.58a18.71 18.71 0 0 1 18.69-18.71z"/><path class="cls-4" d="M67.5 90.63a9.53 9.53 0 0 1-9.41-8 1.32 1.32 0 0 1 1.29-1.52h16.24a1.3 1.3 0 0 1 1.28 1.52 9.51 9.51 0 0 1-9.4 8z"/><path class="cls-5" d="M60.72 65h13.52a1.87 1.87 0 0 1 1.87 1.87v13a3.51 3.51 0 0 1-3.51 3.51H62.36a3.51 3.51 0 0 1-3.51-3.51v-13A1.87 1.87 0 0 1 60.72 65z"/><path class="cls-5" d="M72.6 84.6H62.36a4.74 4.74 0 0 1-4.74-4.73v-13a3.1 3.1 0 0 1 3.1-3.1h13.52a3.1 3.1 0 0 1 3.1 3.1v13a4.74 4.74 0 0 1-4.74 4.73zM60.72 66.2a.64.64 0 0 0-.64.64v13a2.29 2.29 0 0 0 2.28 2.28H72.6a2.29 2.29 0 0 0 2.28-2.28v-13a.64.64 0 0 0-.64-.64z"/><path class="cls-3" d="M65.9 76.07h3a4 4 0 0 1 4 4v2.14H61.87v-2.1a4 4 0 0 1 4.03-4.04z"/><path class="cls-4" d="M67.53 56.12v4.49a4.31 4.31 0 0 0 4.31 4.31"/><path class="cls-5" d="M71.84 66.15a5.55 5.55 0 0 1-5.54-5.54v-4.49a1.23 1.23 0 0 1 2.46 0v4.49a3.08 3.08 0 0 0 3.08 3.08 1.23 1.23 0 0 1 0 2.46z"/><path class="cls-4" d="M67.47 56.12v4.49a4.31 4.31 0 0 1-4.31 4.31"/><path class="cls-5" d="M63.16 66.15a1.23 1.23 0 1 1 0-2.46 3.08 3.08 0 0 0 3.08-3.08v-4.49a1.23 1.23 0 0 1 2.46 0v4.49a5.55 5.55 0 0 1-5.54 5.54z"/><path class="cls-5" d="M72 60.51l-.82.63a6.12 6.12 0 0 1-7.36 0l-.82-.63a2.32 2.32 0 0 1-.93-1.87v-1.41a2.35 2.35 0 0 1 2.34-2.35h6.18A2.35 2.35 0 0 1 73 57.23v1.41a2.33 2.33 0 0 1-1 1.87z"/><path class="cls-7" d="M73.86 82.25H72a.57.57 0 0 1-.54-.75l.59-1.81a1.38 1.38 0 0 1 1.3-1 1.37 1.37 0 0 1 1.37 1.37v1.27a.86.86 0 0 1-.86.92zM60.85 82.25h1.86a.57.57 0 0 0 .54-.75l-.59-1.81a1.38 1.38 0 0 0-1.3-1A1.37 1.37 0 0 0 60 80.11v1.27a.86.86 0 0 0 .85.87z"/><path class="cls-3" d="M63.85 46.92v1.27l-24.07-3.41v-13H58l.59.64A20.64 20.64 0 0 1 62.05 38a22.8 22.8 0 0 1 1.78 8c.01.3.02.62.02.92zM95.29 31.82v13l-24.07 3.37v-2.66A21.66 21.66 0 0 1 77 31.82z"/><path class="cls-5" d="M63.85 50.76a1 1 0 0 1-.24 0l-21.87-4.34a1.23 1.23 0 1 1 .48-2.42l21.87 4.31a1.23 1.23 0 0 1-.24 2.44zM71.13 50.76a1.23 1.23 0 0 1-.24-2.44l22-4.34a1.23 1.23 0 0 1 .47 2.42l-22 4.33a1 1 0 0 1-.23.03z"/><path class="cls-4" d="M62.55 53.32a10.49 10.49 0 0 1-20.15 0zM41.82 85.27V124H28a17.23 17.23 0 0 1-4.68-.65V87a11.67 11.67 0 0 1 4.5-9.2l3.39-2.64a4.63 4.63 0 0 1 6.51.83l1.67 2.17a11.61 11.61 0 0 1 2.43 7.11z"/><rect class="cls-5" x="29.44" y="78.41" width="3.15" height="7.68" rx="1.58" ry="1.58" transform="rotate(-180 31.02 82.25)"/><rect class="cls-5" x="25.91" y="82.25" width="3.15" height="7.68" rx="1.58" ry="1.58" transform="rotate(180 27.485 86.09)"/><rect class="cls-5" x="32.98" y="76.91" width="3.15" height="7.68" rx="1.58" ry="1.58" transform="rotate(-180 34.555 80.75)"/><rect class="cls-5" x="36.51" y="81.47" width="3.15" height="7.68" rx="1.58" ry="1.58" transform="rotate(180 38.09 85.305)"/><path class="cls-4" d="M108.59 104v19.93a13.88 13.88 0 0 1-1.59.07H90.09v-21.73a11.61 11.61 0 0 1 2.43-7.12L94.19 93a4.63 4.63 0 0 1 6.51-.83l3.39 2.64a11.67 11.67 0 0 1 4.5 9.19z"/><rect class="cls-5" x="99.32" y="95.41" width="3.15" height="7.68" rx="1.58" ry="1.58"/><rect class="cls-5" x="102.85" y="99.25" width="3.15" height="7.68" rx="1.58" ry="1.58"/><rect class="cls-5" x="95.78" y="93.91" width="3.15" height="7.68" rx="1.58" ry="1.58"/><rect class="cls-5" x="92.25" y="98.47" width="3.15" height="7.68" rx="1.58" ry="1.58"/><rect class="cls-5" x="30.72" y="88.42" width="4.63" height="7.66" rx="2.32" ry="2.32"/><rect class="cls-5" x="96.62" y="106.66" width="4.63" height="7.66" rx="2.32" ry="2.32"/><path class="cls-8" d="M124 30.92v32.89l-100.46 59.6-.22-.06A17 17 0 0 1 11 107V96.91zM124 75.56v12.36L62.81 124H39.78L124 75.56z"/></svg>