<svg viewBox="0 0 135 125" fill="none" xmlns="http://www.w3.org/2000/svg"><g clip-path="url(#clip0_302_3264)"><path d="M107 11.62H28c-9.389 0-17 7.61-17 17v78.999c0 9.389 7.611 17 17 17h79c9.389 0 17-7.611 17-17v-79c0-9.389-7.611-17-17-17z" fill="#58CC02"/><path fill-rule="evenodd" clip-rule="evenodd" d="M58.17 72.821a4.856 4.856 0 0 1 4.856-4.856h19.31a4.856 4.856 0 0 1 4.856 4.856v10.977a4.856 4.856 0 0 1-4.857 4.856h-19.31a4.856 4.856 0 0 1-4.856-4.856V72.821zm5.23.374v10.23h18.562v-10.23H63.399z" fill="#6F4EA1"/><path d="M24.253 82.532a2.989 2.989 0 0 1 2.989-2.989H95.23a2.989 2.989 0 0 1 2.989 2.989v28.764a2.989 2.989 0 0 1-2.989 2.989H27.242a2.989 2.989 0 0 1-2.989-2.989V82.532z" fill="#6F4EA1"/><path d="M38.822 82.532a2.989 2.989 0 0 1 2.988-2.989h71.588a2.989 2.989 0 0 1 2.989 2.989v28.764a2.989 2.989 0 0 1-2.989 2.989H41.81a2.989 2.989 0 0 1-2.988-2.989V82.532z" fill="#9069CD"/><path d="M62.694 97.115a9.526 9.526 0 1 1-9.526-9.526 9.526 9.526 0 0 1 9.526 9.526z" fill="#6F4EA1"/><path fill-rule="evenodd" clip-rule="evenodd" d="M64.936 97.115c0 6.499-5.269 11.767-11.768 11.767-6.498 0-11.767-5.268-11.767-11.767 0-6.5 5.268-11.768 11.767-11.768 6.5 0 11.768 5.269 11.768 11.768zm-11.768 9.526a9.526 9.526 0 0 0 9.526-9.526 9.526 9.526 0 0 0-19.052 0 9.526 9.526 0 0 0 9.526 9.526z" fill="#CE82FF"/><path fill-rule="evenodd" clip-rule="evenodd" d="M45.376 89.322a1.12 1.12 0 0 1 1.585 0l14 14a1.12 1.12 0 1 1-1.585 1.584l-14-14a1.12 1.12 0 0 1 0-1.584zM49.438 86.186a1.12 1.12 0 0 1 1.584 0L64.099 99.26a1.12 1.12 0 0 1-1.585 1.585L49.438 87.77a1.12 1.12 0 0 1 0-1.584zM42.24 93.384a1.12 1.12 0 0 1 1.584 0L56.9 106.459a1.12 1.12 0 0 1-1.585 1.585L42.24 94.969a1.12 1.12 0 0 1 0-1.585z" fill="#CE82FF"/><path d="M101.876 87.589a9.526 9.526 0 1 1 0 19.052 9.526 9.526 0 0 1 0-19.052z" fill="#6F4EA1"/><path fill-rule="evenodd" clip-rule="evenodd" d="M101.876 85.347c6.499 0 11.768 5.269 11.768 11.768 0 6.499-5.269 11.767-11.768 11.767-6.499 0-11.767-5.268-11.767-11.767 0-6.5 5.269-11.767 11.767-11.767zm9.526 11.768a9.526 9.526 0 1 0-9.526 9.526 9.526 9.526 0 0 0 9.526-9.526z" fill="#CE82FF"/><path fill-rule="evenodd" clip-rule="evenodd" d="M94.083 104.908a1.12 1.12 0 0 1 0-1.585l14-14a1.12 1.12 0 0 1 1.585 1.585l-14 14a1.12 1.12 0 0 1-1.585 0zM90.948 100.846a1.121 1.121 0 0 1 0-1.585l13.075-13.076a1.12 1.12 0 0 1 1.585 1.585l-13.076 13.076a1.122 1.122 0 0 1-1.584 0zM98.146 108.044a1.12 1.12 0 0 1 0-1.585l13.075-13.076a1.12 1.12 0 0 1 1.585 1.585l-13.075 13.076a1.122 1.122 0 0 1-1.585 0z" fill="#CE82FF"/><path d="M69.121 93.955a2.241 2.241 0 0 1 2.241-2.242h12.712a2.241 2.241 0 0 1 2.241 2.242v6.689a2.242 2.242 0 0 1-2.241 2.242H71.362a2.242 2.242 0 0 1-2.241-2.242v-6.69z" fill="#47D7FF"/><path fill-rule="evenodd" clip-rule="evenodd" d="M71.362 89.472h12.712a4.483 4.483 0 0 1 4.482 4.483v6.689a4.483 4.483 0 0 1-4.482 4.483H71.362a4.483 4.483 0 0 1-4.482-4.483v-6.69a4.483 4.483 0 0 1 4.482-4.482zm0 2.241a2.241 2.241 0 0 0-2.241 2.242v6.689a2.242 2.242 0 0 0 2.241 2.242h12.712a2.242 2.242 0 0 0 2.241-2.242v-6.69a2.241 2.241 0 0 0-2.241-2.24H71.362z" fill="#CE82FF"/><path d="M81.739 102.886h2.334a2.242 2.242 0 0 0 2.242-2.242v-6.69a2.241 2.241 0 0 0-2.242-2.24H81.74a2.242 2.242 0 0 1 2.241 2.24v6.69a2.242 2.242 0 0 1-2.242 2.242z" fill="#1CB0F6"/><path d="M74.98 97.299a1.927 1.927 0 1 1-3.853 0 1.927 1.927 0 0 1 3.854 0zM81.178 97.299a1.927 1.927 0 1 1-3.854 0 1.927 1.927 0 0 1 3.854 0z" fill="#6F4EA1"/><path fill-rule="evenodd" clip-rule="evenodd" d="M94.612 66.594L92.3 70.372a1.107 1.107 0 0 0 .367 1.522l3.778 2.311c.522.32 1.203.155 1.522-.366l2.312-3.778a1.107 1.107 0 0 0-.367-1.523l-3.778-2.311a1.107 1.107 0 0 0-1.522.367zM59.518 36.635l-1.667 2.724a.798.798 0 0 0 .264 1.098l2.724 1.667a.798.798 0 0 0 1.098-.265l1.667-2.724a.798.798 0 0 0-.264-1.098l-2.725-1.666a.798.798 0 0 0-1.097.264zM70.51 27.612l-1.184 1.935a.567.567 0 0 0 .188.78l1.935 1.184c.267.163.617.08.78-.188l1.184-1.935a.567.567 0 0 0-.188-.78l-1.935-1.184a.567.567 0 0 0-.78.188zM35.75 64.284l-1.871 3.06a.897.897 0 0 0 .297 1.232l3.06 1.872a.897.897 0 0 0 1.232-.297l1.872-3.06a.897.897 0 0 0-.297-1.232l-3.06-1.872a.897.897 0 0 0-1.232.297zM91.396 20.563l-2.312 3.778a1.107 1.107 0 0 0 .367 1.522l3.778 2.312c.522.319 1.203.155 1.522-.367l2.312-3.778a1.107 1.107 0 0 0-.367-1.522l-3.778-2.312a1.107 1.107 0 0 0-1.522.367z" fill="#ADE756"/><path d="M10.412 22.175C13.045 13.083 21.881 7.24 31.278 8.376c9.397 1.137 16.585 8.918 16.974 18.375l1.271 30.906a1.31 1.31 0 0 1-1.466 1.355L2.91 53.552a1.31 1.31 0 0 1-1.1-1.666l8.602-29.711z" fill="#A570FF"/><rect x="21.627" y="48.141" width="9.612" height="7.619" rx=".5" transform="rotate(6.896 21.627 48.141)" fill="#593F86"/><path d="M12.173 24.433a11.347 11.347 0 0 1 12.241-9.161c.465 5.17 4.486 9.492 9.847 10.14l13.421 1.623a3.799 3.799 0 0 1-.717 7.56l-.54 10.438a5.674 5.674 0 0 1-6.346 5.34l-26.093-3.156a5.673 5.673 0 0 1-4.892-6.7l3.079-16.084z" fill="#FFC6B7"/><path d="M39.813 28.251l-9.976 1.33c-.31.566-.519 1.2-.6 1.88l-.403 3.328-.01.09 9.929-.028c.229-.49.385-1.022.453-1.587l.606-5.013zM23.204 25.466a5.226 5.226 0 0 1 4.561 5.816l-.402 3.33c-.005.04-.011.079-.018.118l-9.624-2.392a5.22 5.22 0 0 1-.068-1.681l.62-5.129a.653.653 0 0 1 .727-.57l4.204.508z" fill="#fff"/><path d="M34.962 30.8l-.112.93a2.27 2.27 0 0 0 4.344 1.161c.152-.359-.049-.747-.381-.952l-1.358-.837-2.493-.302zM23.412 29.408l-.112.93a2.27 2.27 0 0 0 4.397 1.023c.102-.293-.019-.606-.24-.823l-.742-.73-3.303-.4z" fill="#3D3D3D"/><path d="M27.738 31.503l-10.04-1.215.575-4.76a.653.653 0 0 1 .727-.57l4.204.508a5.226 5.226 0 0 1 4.561 5.816l-.027.22zM39.25 32.895l-10.04-1.214.026-.22c.082-.68.292-1.314.601-1.88l9.976-1.33-.562 4.644z" fill="#A570FF"/><path d="M28.107 34.594c.093.011.756 1.414 1.427 2.882.667 1.461-.53 3.077-2.124 2.884-1.595-.193-2.372-2.047-1.376-3.307 1.001-1.266 1.98-2.47 2.073-2.459z" fill="#EE9583"/><path d="M20.17 51.802l4.632-38.287-1.957-.236a10.153 10.153 0 0 0-10.995 7.337l-8.19 29.19 16.51 1.996z" fill="#A570FF"/><path fill-rule="evenodd" clip-rule="evenodd" d="M29.909 42.418c.992.096 1.647.61 1.91 1.194a.653.653 0 1 1-1.19.537c-.044-.098-.25-.373-.846-.43-.607-.059-1.624.117-3.164 1.01a.653.653 0 1 1-.656-1.13c1.67-.968 2.965-1.275 3.945-1.181z" fill="#EE9583"/><path d="M116.495 13.095h-.001a6.188 6.188 0 0 0-7.542-4.246l-28.158 7.545a6.187 6.187 0 0 0-4.409 7.448l7.376 27.53a2.141 2.141 0 0 1-1.514 2.622l-4.061 1.088a.892.892 0 0 0-.63 1.093 8.727 8.727 0 0 0 10.687 6.17l37.233-9.976a8.727 8.727 0 0 0 6.171-10.688.892.892 0 0 0-1.093-.63l-4.06 1.087a2.14 2.14 0 0 1-2.622-1.514l-7.377-27.53z" fill="#FFB100"/><path d="M113.688 14.685L79.61 23.816l9.112 34.005L122.8 48.69l-9.112-34.005z" fill="#FFC6B7"/><path d="M119.409 29.535a3.894 3.894 0 1 1-2.015-7.524 3.894 3.894 0 0 1 2.015 7.524zM82.081 39.536a3.893 3.893 0 1 1-2.016-7.52 3.893 3.893 0 0 1 2.016 7.52z" fill="#FFC6B7"/><path d="M124.633 48.848a1.07 1.07 0 0 0-1.311-.757L87.97 57.564a1.07 1.07 0 0 0-.757 1.311l.939 3.503c.153.571.74.91 1.31.757l35.353-9.472c.571-.153.91-.74.757-1.311l-.939-3.504z" fill="#FF4B4B"/><path d="M118.84 21.906a3.892 3.892 0 0 0-4.247 3.038 4.34 4.34 0 0 1-2.355-2.812l-1.411-5.266 6.217-1.665 1.796 6.705zM83.952 33.16a3.893 3.893 0 0 0-5.193-.517l-1.796-6.703 6.216-1.665 1.41 5.265a4.34 4.34 0 0 1-.637 3.62z" fill="#FFB100"/><path d="M117.312 11.698a1.07 1.07 0 0 0-1.311-.757L75.735 21.73a1.07 1.07 0 0 0-.757 1.31l.764 2.854c.153.57.74.91 1.311.756l40.267-10.789c.571-.153.91-.74.757-1.311l-.765-2.853z" fill="#FF4B4B"/><path d="M94.906 20.738a8.64 8.64 0 1 0-6.744-13.501l-1.55-1.87c-.426-.515-1.22-.518-1.557.06a7.506 7.506 0 0 0-1.011 3.444 7.533 7.533 0 0 0 3.285 6.574 8.641 8.641 0 0 0 7.577 5.293z" fill="#FFB100"/><path d="M107.659 52.9a.77.77 0 0 0-.876-.377l-2.274.61a.771.771 0 0 0-.571.764l.172 6.618a.77.77 0 0 0 .97.725l5.262-1.41a.77.77 0 0 0 .478-1.113l-3.161-5.817z" fill="#EBE3E3"/><path d="M99.821 31.089c-.09.024-.546 1.496-1 3.033-.45 1.53.952 2.951 2.493 2.538 1.541-.413 2.046-2.344.889-3.444-1.161-1.104-2.292-2.151-2.382-2.127z" fill="#F3A577"/><path d="M102.913 20.45a4.874 4.874 0 0 1 5.97 3.447l.767 2.863a4.86 4.86 0 0 1 .136 1.81 3.915 3.915 0 0 0-2.433 1l-1.49 1.333a31.884 31.884 0 0 1-2.225 1.816 4.873 4.873 0 0 1-3.404-3.436l-.767-2.864a4.874 4.874 0 0 1 3.446-5.969zM97.8 26.866a4.874 4.874 0 1 0-9.415 2.523l.767 2.864a4.874 4.874 0 1 0 9.416-2.523l-.767-2.864z" fill="#fff"/><path d="M110.758 32.027a.914.914 0 0 0-1.386-.2l-1.491 1.333a34.748 34.748 0 0 1-10.293 6.377l-1.858.741a.914.914 0 0 0-.438 1.33l1.466 2.366a9.096 9.096 0 0 0 12.523 2.942 9.096 9.096 0 0 0 2.942-12.524l-1.465-2.365z" fill="#A41414"/><path d="M110.758 32.027a.914.914 0 0 0-1.386-.2l-1.491 1.333a34.748 34.748 0 0 1-10.293 6.377l-1.858.741a.914.914 0 0 0-.438 1.33l1.466 2.366a9.096 9.096 0 1 0 15.465-9.582l-1.465-2.365z" fill="#A41414"/><path d="M95.19 40.88a.91.91 0 0 1 .54-.602l1.858-.74a34.759 34.759 0 0 0 10.293-6.378l1.491-1.333a.914.914 0 0 1 1.386.2l1.465 2.365a9.09 9.09 0 0 1 .999 2.233 1.51 1.51 0 0 1-.935.734l-1.83.49a1.515 1.515 0 0 1-1.599-.548 1.513 1.513 0 0 1-1.111 1.274l-1.829.49a1.514 1.514 0 0 1-1.599-.548 1.515 1.515 0 0 1-1.111 1.274l-1.83.49a1.514 1.514 0 0 1-1.599-.547 1.515 1.515 0 0 1-1.11 1.274l-1.83.49a1.515 1.515 0 0 1-1.65-.619z" fill="#fff"/><path d="M103.48 48.224a9.056 9.056 0 0 0 5.801-1.308 9.076 9.076 0 0 0 4.2-6.347 8.717 8.717 0 0 0-10.001 7.655z" fill="#E64340"/><path d="M103.808 32.591a4.297 4.297 0 0 1-3.62-4.408 1.846 1.846 0 0 1 3.641.137.78.78 0 0 0 .211.447.78.78 0 0 0 .432.236 1.845 1.845 0 0 1 1.512 1.791l-.121.11a31.84 31.84 0 0 1-2.055 1.687zM93.364 35.601a1.846 1.846 0 0 0 .079-3.642.783.783 0 0 1-.433-.237.783.783 0 0 1-.21-.446 1.845 1.845 0 0 0-3.641-.138 4.295 4.295 0 0 0 4.053 4.454l.152.009z" fill="#3D3D3D"/><path d="M61.359 61.332l.037-.115c.034-.1.068-.2.095-.301l1.834-5.786 5.702 2.514a1.528 1.528 0 0 0 2.072-.933l1.148-3.594a1.528 1.528 0 0 0-.839-1.863l-6.396-2.821a1.834 1.834 0 0 0-2.486 1.119l-2.19 6.84c-.883-.908-2.122-1.414-3.43-1.272-2.337.254-4.012 2.475-3.743 4.96.27 2.486 2.384 4.296 4.72 4.042 1.617-.175 2.916-1.294 3.474-2.789h.002zM64.903 19.186l-.075-.116a4.846 4.846 0 0 0-.197-.3l-3.772-5.785 6.322-3.208a1.738 1.738 0 0 0 .672-2.496L65.515 3.68a1.738 1.738 0 0 0-2.244-.604l-7.093 3.599a2.086 2.086 0 0 0-.806 2.995l4.446 6.857c-1.438.123-2.775.85-3.593 2.104-1.46 2.24-.712 5.315 1.67 6.869 2.384 1.553 5.5.996 6.96-1.244 1.01-1.55.962-3.5.047-5.068l.001-.002zM4.276 67.962l4.087 9.243a4.088 4.088 0 0 0-1.993.332c-2.193.97-3.13 3.66-2.091 6.007 1.038 2.348 3.658 3.466 5.85 2.496 2.194-.97 3.13-3.659 2.092-6.007l-3.285-7.429a.612.612 0 0 1 .313-.808l9.138-4.04a.613.613 0 0 1 .808.313l1.608 3.636a4.088 4.088 0 0 0-1.992.332c-2.193.97-3.129 3.659-2.09 6.007 1.037 2.348 3.657 3.465 5.85 2.496 2.193-.97 3.13-3.66 2.091-6.008L18.9 61.498a1.226 1.226 0 0 0-1.617-.626l-12.38 5.474c-.62.273-.9.997-.626 1.616zM120.802 63.829l-4.015 6.952a3.244 3.244 0 0 0-1.146-1.123c-1.65-.952-3.814-.293-4.834 1.473-1.019 1.766-.509 3.97 1.14 4.923 1.65.952 3.814.293 4.834-1.473l3.226-5.588a.487.487 0 0 1 .665-.178l6.874 3.97a.487.487 0 0 1 .178.664l-1.58 2.736a3.242 3.242 0 0 0-1.146-1.123c-1.649-.953-3.813-.293-4.833 1.473s-.509 3.97 1.14 4.922c1.65.953 3.814.293 4.833-1.473l5.662-9.803a.974.974 0 0 0-.357-1.33l-9.312-5.378a.972.972 0 0 0-1.329.356z" fill="#ADE756"/></g><defs><clipPath id="clip0_302_3264"><path fill="#fff" transform="translate(0 .62)" d="M0 0h135v124H0z"/></clipPath></defs></svg>