<svg viewBox="0 0 135 124" fill="none" xmlns="http://www.w3.org/2000/svg"><path d="M11 28c0-9.389 7.611-17 17-17h79c9.389 0 17 7.611 17 17v79c0 9.389-7.611 17-17 17H28c-9.389 0-17-7.611-17-17V28z" fill="#E5E5E5"/><path fill="#959595" d="M39.441 29.374h49.723v30.423H39.441z"/><path d="M51.95 52.246c-6.29 6-16.253 5.764-22.253-.526l-5.204-5.455c-6-6.29-5.764-16.253.525-22.253l6.1-5.819c6.29-6 16.253-5.765 22.253.525l5.204 5.456c6 6.29 5.765 16.253-.525 22.252l-6.1 5.82zM81.528 52.02c6.29 6 16.252 5.764 22.252-.526l5.204-5.455c6-6.29 5.765-16.253-.525-22.253l-6.1-5.82c-6.29-5.999-16.253-5.764-22.253.526l-5.204 5.456c-6 6.29-5.764 16.252.525 22.252l6.1 5.82z" fill="#959595"/><path d="M44.953 16.74C44.953 8.046 52 1 60.693 1h11.375c8.692 0 15.739 7.047 15.739 15.74v9.412c0 8.692-7.047 15.739-15.74 15.739H60.694c-8.693 0-15.74-7.047-15.74-15.74V16.74z" fill="#959595"/><path d="M86.278 56.16c6.659 0 12.057 5.397 12.057 12.056v30.141c0 7.824-6.343 14.167-14.167 14.167H49.204c-7.824 0-14.166-6.343-14.166-14.167V68.216c0-6.659 5.398-12.057 12.056-12.057h39.184z" fill="#B2B2B2"/><path d="M64.112 89.287a2.635 2.635 0 1 0 5.27 0c0-1.455-2.526-4.83-2.636-4.83-.11 0-2.634 3.375-2.634 4.83z" fill="#959595"/><path d="M64.763 51.413c.574-6.71 6.478-11.685 13.188-11.111l-.292 3.427c-.574 6.71-6.479 11.685-13.189 11.111l.293-3.427z" fill="#D1D1D1"/><path d="M55.785 43.61c.574 6.71 6.478 11.684 13.188 11.11l-.293-3.426c-.573-6.71-6.478-11.685-13.188-11.112l.293 3.427z" fill="#D1D1D1"/><rect x="62.835" y="87.303" width="7.837" height="5.425" rx="2.713" fill="#959595"/><path d="M31.12 53.144h36.774v3.605L34.772 74.243l-3.651-21.1z" fill="#D1D1D1"/><path d="M101.955 53.144H65.182v3.605l33.121 17.494 3.652-21.1z" fill="#D1D1D1"/><circle cx="97.988" cy="80.958" r="7.189" fill="#B2B2B2"/><circle cx="34.901" cy="81.251" r="7.189" fill="#B2B2B2"/><path d="M53.429 110.786a6.171 6.171 0 0 1-1.84-12.19c2.421-.612 5.694-.394 9.03.781 3.338 1.175 6.025 3.056 7.527 5.05a6.171 6.171 0 1 1-9.07 8.348c-.752-.733-1.545-1.466-2.535-1.815-.99-.348-2.067-.274-3.112-.174z" fill="#959595"/><path fill-rule="evenodd" clip-rule="evenodd" d="M53.428 110.787a6.173 6.173 0 0 1-1.84-12.19c2.422-.612 5.694-.395 9.031.78 3.337 1.175 6.024 3.056 7.527 5.05a6.172 6.172 0 1 1-9.07 8.348c-.752-.733-1.545-1.466-2.535-1.814-.99-.349-2.067-.275-3.113-.174zm1.606 4.453a1.683 1.683 0 0 0-.137-.007c-.23-.006-.525.013-1.036.062l-.412-4.291.412 4.291a10.686 10.686 0 0 1-4.573-.561c-5.574-1.963-8.502-8.073-6.539-13.647a10.697 10.697 0 0 1 7.819-6.903c3.472-.854 7.636-.459 11.556.922 3.92 1.38 7.412 3.681 9.583 6.522a10.696 10.696 0 0 1 1.769 10.279c-1.963 5.574-8.073 8.502-13.647 6.539a10.682 10.682 0 0 1-3.916-2.429l3.162-3.242-3.162 3.242c-.367-.358-.586-.557-.768-.697a2.357 2.357 0 0 0-.111-.08z" fill="#B2B2B2"/><path d="M67.296 103.44H46.788a6.169 6.169 0 0 1 4.801-4.842c2.421-.613 5.694-.395 9.03.78 2.78.979 5.108 2.447 6.677 4.062zM48 78.996v2.247a8.059 8.059 0 0 0 16.118 0v-2.247H48zM69 78.996v2.247a8.059 8.059 0 0 0 16.118 0v-2.247H69z" fill="#fff"/><path d="M48 78.996v2.246a3.567 3.567 0 0 0 7.134 0v-2.246H48zM69 78.996v2.245a3.567 3.567 0 0 0 7.134 0v-2.245H69z" fill="#959595"/><path fill-rule="evenodd" clip-rule="evenodd" d="M66.748 74.063a1.86 1.86 0 0 1 1.86 1.86v.323a5.095 5.095 0 0 1-5.095 5.095H44.186a1.86 1.86 0 0 1 0-3.72h19.328c.76 0 1.375-.616 1.375-1.375v-.323a1.86 1.86 0 0 1 1.86-1.86z" fill="#959595"/><path fill-rule="evenodd" clip-rule="evenodd" d="M66.748 74.063a1.86 1.86 0 0 0-1.86 1.86v.323a5.095 5.095 0 0 0 5.095 5.095h19.328a1.86 1.86 0 0 0 0-3.72H69.983c-.76 0-1.375-.616-1.375-1.375v-.323a1.86 1.86 0 0 0-1.86-1.86z" fill="#959595"/><path d="M133.39 27.925c-3.214 11.204-14.902 17.68-26.105 14.465-11.203-3.214-17.68-14.902-14.465-26.105 3.215-11.203 14.902-17.68 26.105-14.465 11.204 3.214 17.68 14.902 14.465 26.105z" fill="#D1D1D1"/><path d="M90.836 45.723l6.443-14.492a1 1 0 0 1 1.451-.437l8.062 5.136a1 1 0 0 1 .004 1.683L92.292 46.97c-.835.539-1.86-.338-1.456-1.246z" fill="#D1D1D1"/><path fill-rule="evenodd" clip-rule="evenodd" d="M127.574 21.905c0 7.992-6.479 14.471-14.471 14.471s-14.47-6.478-14.47-14.47c0-7.993 6.478-14.472 14.47-14.472 7.992 0 14.471 6.48 14.471 14.471zm-4 0c0 5.783-4.688 10.471-10.471 10.471a10.438 10.438 0 0 1-7.522-3.187l17.594-10.158c.26.913.399 1.878.399 2.874zm-2.706-7.025l-17.734 10.238a10.465 10.465 0 0 1-.502-3.213c0-5.783 4.688-10.47 10.471-10.47 3.08 0 5.849 1.329 7.765 3.445z" fill="#fff"/></svg>