<svg viewBox="0 0 136 125" fill="none" xmlns="http://www.w3.org/2000/svg"><g clip-path="url(#clip0_302_3151)"><path d="M107.848 11.443h-79c-9.389 0-17 7.612-17 17v79c0 9.389 7.611 17 17 17h79c9.389 0 17-7.611 17-17v-79c0-9.389-7.611-17-17-17z" fill="#FFB100"/><path d="M123.296 21.48L21.776 123.001a16.937 16.937 0 0 0 7.08 1.56h41.32l54.68-54.68V28.56a16.938 16.938 0 0 0-1.56-7.08zm-72.12 48.14l58-58c-.43 0-.87-.07-1.31-.07h-48.59l-33.08 33.09c-6.903 6.904-6.903 18.096 0 25 6.904 6.904 18.097 6.904 25 0l-.02-.02z" fill="#FFD900"/><path d="M113.338 8.645c-2.663-4.148-7.634-6.522-12.796-5.63-6.879 1.19-11.491 7.73-10.302 14.61.051.292.111.581.181.866-3.833 1.873-6.139 6.11-5.375 10.527a9.822 9.822 0 0 0 1.31 3.477c1.215 1.977 2.592 5.333 4.879 4.937l38.982-6.74c1.702-.293 1.771-3.04 2.34-4.67.547-1.566.715-3.289.412-5.04-.936-5.413-6.021-9.069-11.426-8.267v-.003c-3.882.671-6.075-.449-8.202-4.08l-.003.013z" fill="#E27903"/><path d="M94.122 25.138l.996 5.762a4.843 4.843 0 0 1-5.515 5.612 21.35 21.35 0 0 1 .49-3.158l-.006-.009a3.447 3.447 0 1 0-.335 6.344c.05.72.138 1.446.264 2.173l1.515 8.761a6.62 6.62 0 0 0 7.65 5.396l29.335-5.072a6.62 6.62 0 0 0 5.396-7.65l-1.515-8.762a21.668 21.668 0 0 0-.474-2.111 3.448 3.448 0 1 0-2.613-5.86l-.004.01c.572.891 1.082 1.83 1.522 2.811a4.842 4.842 0 0 1-7.078-3.434l-1.007-5.824a2.557 2.557 0 0 1-.014-.086 21.427 21.427 0 0 0-15.186-3.033 21.43 21.43 0 0 0-13.421 8.13z" fill="#FFB100"/><path d="M102.702 24.424a4.864 4.864 0 0 0-3.964 5.622l.249 1.442c3.477-1.285 6.149-1.35 9.789-.477-.006-.045-.014-.091-.022-.137l-.429-2.485a4.865 4.865 0 0 0-5.623-3.965zM114.242 22.429a4.866 4.866 0 0 0-3.965 5.622l.43 2.486c.013.073.027.145.043.216 3.159-2.09 5.689-2.964 9.358-2.951l-.243-1.408a4.865 4.865 0 0 0-5.623-3.965z" fill="#FFF1A2"/><path d="M104.105 30.43l-.03-.173a2.073 2.073 0 0 0-4.084.706l.03.172c1.429-.447 2.744-.674 4.084-.704zM113.094 26.467a2.072 2.072 0 0 0-1.689 2.395l.123.71c.035.204.099.395.186.57 1.308-.79 2.534-1.363 3.817-1.744l-.042-.242a2.072 2.072 0 0 0-2.395-1.689z" fill="#E27903"/><path fill-rule="evenodd" clip-rule="evenodd" d="M94.976 43.568a6.153 6.153 0 0 1 3.645-7.901l7.619-2.808a6.127 6.127 0 0 1 4.104-.054 6.128 6.128 0 0 1 3.85 1.423l5.66 4.71a6.154 6.154 0 0 1-7.872 9.46l-1.155-.961c-2.32-1.77-2.937-1.925-5.566-1.102l-2.384.879a6.153 6.153 0 0 1-7.901-3.646zM110.79 51.08a.62.62 0 0 1-.38.79c-3.196 1.117-6.205-.299-7.331-1.15a.62.62 0 0 1 .748-.988c.935.707 3.511 1.899 6.174.968a.619.619 0 0 1 .789.38zM117.894 19.848c-1.715.21-2.775-.015-4.434-.9a2.308 2.308 0 0 0-2.171 4.074c2.389 1.273 4.397 1.747 7.168 1.407a2.308 2.308 0 0 0-.563-4.581zM97.68 19.87c1.701-.295 2.65-.819 3.981-2.146a2.308 2.308 0 0 1 3.259 3.268c-1.916 1.911-3.7 2.948-6.45 3.426a2.308 2.308 0 0 1-.79-4.547z" fill="#E27903"/><path d="M87.642 33.331c-.22-1.28 1.15-6.373 1.505-6.434.356-.062 3.355 4.276 3.576 5.556.221 1.28-.737 2.515-2.14 2.757-1.403.243-2.72-.598-2.94-1.879z" fill="#FFF1A2"/><path d="M116.516 32.529a2.11 2.11 0 0 1 1.719-2.438l3.233-.559a2.11 2.11 0 0 1 .719 4.157l-3.233.559a2.11 2.11 0 0 1-2.438-1.719z" fill="#E27903"/><path d="M109.635 29.59a3.077 3.077 0 1 0 1.047 6.063 3.077 3.077 0 0 0-1.047-6.064z" fill="#F68B00"/><path d="M126.909 42.225c-.174-1.01.906-5.024 1.186-5.073.281-.048 2.645 3.371 2.819 4.38.175 1.01-.581 1.983-1.687 2.174-1.106.191-2.144-.472-2.318-1.481z" fill="#FFF1A2"/><path d="M14.351 12.2h.002a6.243 6.243 0 0 1 7.286-4.813l28.878 5.576a6.243 6.243 0 0 1 4.97 7.18h.002l-5.452 28.234a2.16 2.16 0 0 0 1.712 2.53l4.164.805a.9.9 0 0 1 .714 1.054 8.805 8.805 0 0 1-10.315 6.976L8.126 52.37A8.805 8.805 0 0 1 1.15 42.055a.9.9 0 0 1 1.054-.713l4.165.804a2.16 2.16 0 0 0 2.53-1.712L14.352 12.2z" fill="#FFB100"/><path d="M17.29 13.6l34.95 6.748-6.734 34.875-34.95-6.748L17.29 13.6z" fill="#FFBB31"/><path d="M12.597 28.954a3.928 3.928 0 1 0 1.49-7.714 3.928 3.928 0 0 0-1.49 7.714zM50.88 36.346a3.928 3.928 0 1 0 1.49-7.714 3.928 3.928 0 0 0-1.49 7.714z" fill="#FFBB31"/><path d="M8.722 48.766a1.08 1.08 0 0 1 1.265-.856l36.258 7c.585.114.969.68.855 1.266l-.693 3.593a1.08 1.08 0 0 1-1.266.856L8.884 53.624a1.08 1.08 0 0 1-.856-1.265l.694-3.593z" fill="#E27903"/><path d="M12.622 21.236a3.928 3.928 0 0 1 4.493 2.753 4.378 4.378 0 0 0 2.168-2.999l1.042-5.4-6.375-1.231-1.328 6.877zM48.54 30.062a3.928 3.928 0 0 1 5.19-.892l1.327-6.874-6.376-1.231-1.042 5.4a4.378 4.378 0 0 0 .9 3.597z" fill="#FFB100"/><path d="M13.429 10.853a1.08 1.08 0 0 1 1.265-.856L55.99 17.97c.586.113.97.68.856 1.265l-.565 2.926a1.08 1.08 0 0 1-1.265.856l-41.298-7.974a1.08 1.08 0 0 1-.855-1.265l.565-2.926z" fill="#E27903"/><path d="M35.92 18.32a8.718 8.718 0 1 0-4.765-14.463l-1.273-2.093c-.35-.577-1.144-.695-1.564-.167a7.572 7.572 0 0 0-1.512 3.29 7.6 7.6 0 0 0 2.32 7.044 8.719 8.719 0 0 0 6.793 6.389z" fill="#FFB100"/><path d="M26.095 51.627a.778.778 0 0 1 .856-.442l2.331.45c.353.068.613.37.63.729l.301 6.674a.778.778 0 0 1-.924.798l-5.398-1.042a.778.778 0 0 1-.56-1.085l2.764-6.082z" fill="#FFF1A2"/><path fill-rule="evenodd" clip-rule="evenodd" d="M46.603 47.976a.62.62 0 0 1-.233.844c-2.947 1.668-6.16.811-7.419.173a.62.62 0 0 1 .56-1.105c1.046.53 3.793 1.244 6.248-.146a.62.62 0 0 1 .844.234zM28.816 33.325a.62.62 0 0 1-.208.85c-3.087 1.875-6.23 1.29-7.745.537a.62.62 0 0 1 .551-1.11c1.217.605 3.9 1.125 6.55-.485a.62.62 0 0 1 .852.208z" fill="#F79B24"/><path d="M32.73 27.933a6.146 6.146 0 1 1-12.07-2.33 6.146 6.146 0 0 1 12.07 2.33z" fill="#FFF1A2"/><path d="M32.563 27.9a6.146 6.146 0 1 0 12.07 2.33 6.146 6.146 0 0 0-12.07-2.33z" fill="#FFF1A2"/><path d="M30.3 29.89a1.58 1.58 0 1 1-3.103-.599 1.58 1.58 0 0 1 3.102.6zM36.58 30.834a1.58 1.58 0 1 0 3.102.6 1.58 1.58 0 0 0-3.102-.6z" fill="#E27903"/><path fill-rule="evenodd" clip-rule="evenodd" d="M40.884 46.518a3.426 3.426 0 0 0-.236.25 7.2 7.2 0 0 1-11.034-9.252c1.37-1.635 3.865-3.936 7.153-5.142 1.736-.637 3.96-1.06 6.418-.627 2.549.45 4.807 1.729 6.622 3.63a7.2 7.2 0 0 1-8.923 11.141zm-3.196-2.232c.64-.762 1.707-1.652 2.708-2.02.457-.167.764-.176.958-.142.152.027.432.11.832.529a3.337 3.337 0 1 0 4.827-4.609c-1.297-1.357-2.83-2.197-4.5-2.492-1.627-.287-3.148-.016-4.415.45-2.45.898-4.42 2.68-5.524 3.996a3.337 3.337 0 0 0 5.114 4.288z" fill="#FFBB31"/><path d="M18.808 26.016a1.351 1.351 0 1 1-2.654-.512 1.351 1.351 0 0 1 2.654.512zM46.965 23.208a1.352 1.352 0 1 1-2.654-.513 1.352 1.352 0 0 1 2.654.513zM16.482 28.943l1.245 1.92c1.055 1.627-.36 3.725-2.264 3.357-1.904-.368-2.436-2.841-.85-3.959l1.869-1.318z" fill="#FFF1A2"/><path d="M32.421 29.115c.092.018.657 1.466 1.223 2.982.564 1.507-.746 3.038-2.326 2.733-1.581-.306-2.227-2.214-1.142-3.403 1.09-1.195 2.153-2.33 2.245-2.312z" fill="#F68B00"/><path d="M47.116 40.439a4.374 4.374 0 1 1-8.59-1.659 4.374 4.374 0 0 1 8.59 1.659z" fill="#E27903"/><path d="M38.467 40.029l2.777-.733a1.912 1.912 0 0 0 1.39-1.486l.085-.444.726.702a1.912 1.912 0 0 0 1.782.483l1.712-.419a4.374 4.374 0 1 0-8.472 1.897z" fill="#FFF1A2"/><path d="M39.77 42.743a5.351 5.351 0 0 1 7.195-1.732 4.375 4.375 0 0 1-7.196 1.732z" fill="#F68B00"/><path fill-rule="evenodd" clip-rule="evenodd" d="M65.273 111.177h11.428a3.217 3.217 0 0 1 3.217 3.217v3.162a3.217 3.217 0 0 1-3.217 3.217H65.273a3.217 3.217 0 0 1-3.217-3.217v-3.162a3.217 3.217 0 0 1 3.217-3.217z" fill="#FFF1A2"/><path fill-rule="evenodd" clip-rule="evenodd" d="M58.668 79.903h24.639c5.626 0 10.186 4.56 10.186 10.186v9.005c0 10.599-8.592 19.191-19.19 19.191h-6.63c-10.6 0-19.192-8.592-19.192-19.19v-9.006c0-5.626 4.561-10.186 10.187-10.186z" fill="#FFF1A2"/><path d="M83.042 87.626h-24.11a7.553 7.553 0 0 0-7.553 7.554 4.532 4.532 0 0 0 4.532 4.532h30.153a4.532 4.532 0 0 0 4.532-4.532 7.553 7.553 0 0 0-7.554-7.554z" fill="#F68B00"/><path opacity=".536" d="M77.038 91.18h-2.667c-1.306 0-2.365.864-2.365 1.93 0 1.065 1.06 1.928 2.365 1.928h2.667c1.306 0 2.365-.863 2.365-1.929 0-1.065-1.059-1.929-2.365-1.929zM73.34 97.61h-2.667c-1.306 0-2.365.864-2.365 1.93h7.397c0-1.066-1.059-1.93-2.365-1.93zM61.505 93.11h-2.667c-1.306 0-2.365.863-2.365 1.928 0 1.066 1.059 1.93 2.365 1.93h2.667c1.306 0 2.365-.864 2.365-1.93 0-1.065-1.059-1.929-2.365-1.929z" fill="#E27903"/><path fill-rule="evenodd" clip-rule="evenodd" d="M94.771 73.035c1.04.6 1.397 1.931.797 2.972l-.011.018-11.538 19.542-3.495-.008 11.328-21.675a2.106 2.106 0 0 1 2.92-.849z" fill="#FFCA00"/><path d="M28.548 81.502c0-1.07.868-1.938 1.938-1.938h4.89a1.938 1.938 0 1 1 0 3.876h-4.89a1.938 1.938 0 0 1-1.938-1.938z" fill="#F68B00"/><path d="M39.81 84.593a3 3 0 0 0-3-3h-7.984a3 3 0 0 0-3 3v16.603c0 .352-.085.699-.25 1.011l-3.001 5.695c-1.277 2.424.067 5.402 2.73 6.046a4.202 4.202 0 0 0 3.978-1.13l7.638-7.723a10 10 0 0 0 2.89-7.032v-13.47z" fill="#E27903"/><path fill-rule="evenodd" clip-rule="evenodd" d="M36.352 85.011a1.5 1.5 0 0 1 1.5 1.5v5.815a1.5 1.5 0 0 1-3 0v-5.814a1.5 1.5 0 0 1 1.5-1.5z" fill="#FFB100"/><path fill-rule="evenodd" clip-rule="evenodd" d="M26.892 68.718a1.5 1.5 0 0 1 2.121 0l4.033 4.033a4.5 4.5 0 0 1 1.318 3.182v3.819a1.5 1.5 0 0 1-3 0v-3.82a1.5 1.5 0 0 0-.44-1.06l-4.032-4.032a1.5 1.5 0 0 1 0-2.122z" fill="#F68B00"/><path d="M101.622 91.626a4 4 0 0 1 4-4h8.383a4 4 0 0 1 4 4v18.425c0 2.21-1.79 4-4 4h-8.383a4 4 0 0 1-4-4V91.626z" fill="#E27903"/><path d="M105.664 81.644h8.299v14.522h-8.299V81.644z" fill="#E27903"/><path d="M103.514 76.814a1 1 0 0 1 1-1h10.479a1 1 0 0 1 1 1v3.83a1 1 0 0 1-1 1h-10.479a1 1 0 0 1-1-1v-3.83z" fill="#F68B00"/><path d="M107.826 66.275a1 1 0 0 1 .993-.884h1.99a1 1 0 0 1 .993.884l1.188 10.127a1 1 0 0 1-.993 1.116h-4.366a1 1 0 0 1-.993-1.116l1.188-10.127z" fill="#F68B00"/><path d="M110.053 81.644h2.683v5.983h-2.683v-5.983zM113.311 93.566a1.34 1.34 0 1 1 2.682 0v14.974a1.341 1.341 0 0 1-2.682 0V93.566z" fill="#FFB100"/><path d="M59.642 67.721c1.352-7.199 4.23-15.576 7.968-23.783.723-1.588 2.973-1.49 3.596.14l4.973 13.014 2.974-6.08c.762-1.558 2.944-1.448 3.458.21 1.942 6.258 4.006 13.124 4.006 19.734 0 7.555-6.124 13.68-13.68 13.68-7.555 0-13.68-6.125-13.68-13.68 0-.467-.011-.874.074-1.422a13.63 13.63 0 0 1 .311-1.813z" fill="#F68B00"/><path d="M66.377 71.267c.667-3.552 2.087-7.686 3.931-11.736.357-.783 1.468-.735 1.775.07l2.454 6.421 1.467-3c.376-.768 1.453-.714 1.707.103.958 3.089 1.977 6.477 1.977 9.738a6.75 6.75 0 1 1-13.5 0c0-.23-.007-.43.035-.701.032-.305.084-.603.154-.895zM64.727 27.488a4.486 4.486 0 0 1 0-3.91l3.31-6.834a1.121 1.121 0 0 1 2.018 0l3.31 6.834a4.486 4.486 0 0 1 0 3.91l-3.31 6.834a1.121 1.121 0 0 1-2.018 0l-3.31-6.834zM75.547 41.896a2.303 2.303 0 0 1 0-2.008l1.7-3.509a.576.576 0 0 1 1.037 0l1.699 3.51a2.303 2.303 0 0 1 0 2.007l-1.7 3.51a.576.576 0 0 1-1.036 0l-1.7-3.51z" fill="#FFCA00"/></g><defs><clipPath id="clip0_302_3151"><path fill="#fff" transform="translate(.848 .443)" d="M0 0h135v124H0z"/></clipPath></defs></svg>