<svg viewBox="0 0 135 124" fill="none" xmlns="http://www.w3.org/2000/svg"><g clip-path="url(#clip0)"><path d="M28 11h79c9.389 0 17 7.611 17 17v79c0 9.389-7.611 17-17 17H28c-9.389 0-17-7.611-17-17V28c0-9.389 7.611-17 17-17z" fill="#FFCA00"/><path d="M12.56 114.08L114.08 12.56A16.938 16.938 0 0 0 107 11H65.68L11 65.68V107c.003 2.445.535 4.86 1.56 7.08zm72.12-48.14l-58 58c.43 0 .87.07 1.31.07h48.59l33.08-33.09c6.904-6.904 6.904-18.096 0-25-6.903-6.904-18.096-6.904-25 0l.02.02z" fill="#FFD900"/><path d="M85.61 42.492h38.746v64.375c0 3.792-1.242 7.294-3.34 10.121H68.51a4.072 4.072 0 0 1-2.89-5.265l21.664-63.798-1.674-5.433z" fill="#FFF1A2"/><path d="M67.886 25.978c2.053 15.785-9.078 30.245-24.862 32.298-15.785 2.054-30.245-9.078-32.298-24.862C8.672 17.63 19.803 3.17 35.588 1.116c15.784-2.053 30.244 9.078 32.298 24.862z" fill="#F08904"/><path d="M29.476 26.553l1.795 2.153L55.42 5.802A28.955 28.955 0 0 0 52.94 4.3L29.476 26.553z" fill="#EB8303"/><path d="M20.77 34.817l8.546-8.105 8.547-8.106 20.672 11.298 3.593 27.624-37.765 4.913-3.593-27.624z" fill="#FFBB31"/><path d="M15.23 68.854c-1.176-9.035 5.196-17.313 14.232-18.488l24.648-3.207c9.036-1.175 17.313 5.197 18.489 14.232 1.175 9.036-5.197 17.313-14.232 18.488l-24.649 3.207c-9.035 1.175-17.313-5.197-18.488-14.232z" fill="#E27903"/><path d="M46.592 47.393a4.942 4.942 0 1 1-9.802 1.275 4.942 4.942 0 0 1 9.802-1.275z" fill="#FFBB31"/><path d="M25.304 37.698a6.67 6.67 0 0 1 13.228-1.72l.585 4.498a6.67 6.67 0 0 1-13.228 1.72l-.585-4.498zM54.888 33.85a6.67 6.67 0 1 0-13.228 1.72l.585 4.499a6.67 6.67 0 1 0 13.228-1.721l-.585-4.499z" fill="#FFF1A2"/><path d="M30.927 37.716a2.762 2.762 0 0 0 2.255-3.642 3.077 3.077 0 0 1 3.814 2.584l.498 3.832a3.077 3.077 0 0 1-6.102.794l-.465-3.568zM43.351 36.1a2.762 2.762 0 0 0 2.254-3.643 3.077 3.077 0 0 1 3.814 2.584l.499 3.833a3.077 3.077 0 0 1-6.103.794l-.464-3.568z" fill="#E27903"/><path d="M43.746 63.824c5.288-.688 9.316-4.261 9.861-8.4.137-1.042-.843-1.788-1.885-1.652l-18.259 2.375c-1.042.136-1.799 1.108-1.4 2.08 1.586 3.861 6.394 6.285 11.683 5.597z" fill="#F08904"/><path d="M51.855 53.756l.127.974a1.842 1.842 0 0 1-1.59 2.065l-14.87 1.934a1.842 1.842 0 0 1-2.065-1.589l-.127-.975.072-.01 18.38-2.391c.024-.004.049-.006.073-.008z" fill="#FFF1A2"/><path d="M86.111 70.15a1.381 1.381 0 1 1 2.763.007l-.036 16.484a1.381 1.381 0 0 1-2.763-.006l.036-16.484z" fill="#FFD900"/><path d="M87.444 92.418a3.032 3.032 0 0 1-3.032-3.03 3.032 3.032 0 0 1 3.045-3.019 3.032 3.032 0 0 1 3.033 3.032 3.032 3.032 0 0 1-3.046 3.017z" fill="#FFD900"/><path d="M101.103 36.921a3.315 3.315 0 1 1 6.63.015l-.109 49.876c6.024 1.49 10.482 6.917 10.468 13.372a13.674 13.674 0 0 1-4.288 9.927 3.575 3.575 0 0 1 2.967 3.531l-.006 2.47c0 .357-.171.674-.434.876H92.407a1.106 1.106 0 0 1-.504-.93l.005-2.471a3.575 3.575 0 0 1 2.833-3.489 13.68 13.68 0 0 1-4.274-9.974c.014-6.456 4.496-11.862 10.527-13.327l.109-49.876z" fill="#E27903"/><path d="M121.723 40.591l-34.892-.076a3.975 3.975 0 0 0-3.808 5.146l1.22 3.958L73.67 80.757a1.988 1.988 0 0 0 1.878 2.627l57.372.126a1.988 1.988 0 0 0 1.885-2.629l-10.618-31.175 1.298-3.877a3.975 3.975 0 0 0-3.761-5.238z" fill="#FFA403"/></g><defs><clipPath id="clip0"><path fill="#fff" d="M0 0h135v124H0z"/></clipPath></defs></svg>