<svg viewBox="0 0 135 124" fill="none" xmlns="http://www.w3.org/2000/svg"><path d="M11 28c0-9.389 7.611-17 17-17h79c9.389 0 17 7.611 17 17v79c0 9.389-7.611 17-17 17H28c-9.389 0-17-7.611-17-17V28z" fill="#1CB0F6"/><path d="M5.855 51.845C.291 31.133 12.57 9.831 33.283 4.266c20.712-5.564 42.014 6.716 47.579 27.428l1.084 4.036c5.565 20.713-6.715 42.015-27.427 47.58-20.713 5.564-42.015-6.716-47.58-27.428l-1.084-4.037z" fill="#FFB7E3"/><path d="M36.605 83.849a38.84 38.84 0 0 1-6.714-2.037c.233-.197.518-.34.84-.4 14.616-2.786 24.028-8.458 30.09-14.95 6.071-6.503 8.899-13.957 10.124-20.485a1.828 1.828 0 0 1 3.594.674c-1.32 7.03-4.388 15.177-11.046 22.307-5.881 6.3-14.472 11.707-26.888 14.89z" fill="#FF9BD8"/><path fill-rule="evenodd" clip-rule="evenodd" d="M13.801 50.683c-4.43-16.486 5.345-33.442 21.832-37.87 16.486-4.43 33.442 5.344 37.87 21.83 4.43 16.487-5.344 33.443-21.83 37.872C35.185 76.945 18.23 67.17 13.8 50.683z" fill="#E18E70"/><path d="M3.875 32.766l19.726-.2a1.546 1.546 0 0 1 1.47 2.018c-1.544 4.787-6.058 8.09-11.22 8.088-5.16-.003-9.687-3.311-11.25-8.1-.324-.996.227-1.807 1.274-1.806z" fill="#3D3D3D"/><path fill-rule="evenodd" clip-rule="evenodd" d="M7.167 32.724c6.753-.17 8.671-4.373 10.955-7.54 2.283-3.167 8.14 2.41 8.14 2.41l-6.117 7.748-11.035.836s-8.695-3.284-1.943-3.454z" fill="#3D3D3D"/><path fill-rule="evenodd" clip-rule="evenodd" d="M46.98 54.434c1.556-.418 2.476-2.03 2.055-3.599-.422-1.569-4.237-4.523-4.237-4.523s-1.82 4.468-1.399 6.037c.422 1.57 2.025 2.503 3.581 2.085z" fill="#9E4D31"/><path d="M41.08 55.904a5.678 5.678 0 0 0-5.678 5.678c0 3.029 2.158 9.086 10.79 9.086 8.63 0 10.789-6.057 10.789-9.086a5.678 5.678 0 0 0-8.411-4.979c-1.246.685-3.511.685-4.757 0a5.653 5.653 0 0 0-2.732-.7z" fill="#881B1B"/><path d="M53.523 68.498a9.604 9.604 0 0 0-7.33-3.388 9.604 9.604 0 0 0-7.332 3.388c1.65 1.274 4.012 2.17 7.331 2.17 3.32 0 5.681-.896 7.331-2.17z" fill="#E34545"/><path opacity=".5" fill-rule="evenodd" clip-rule="evenodd" d="M114.03 36.46l1.384-6.608-10.718-2.312-2.285 10.905-.031-.007a5.337 5.337 0 0 1-.089.581c-.597 2.853-3.355 4.675-6.16 4.07-2.803-.604-4.592-3.407-3.994-6.26.597-2.853 3.355-4.675 6.159-4.07a5.128 5.128 0 0 1 1.63.658l2.587-12.346a1.157 1.157 0 0 1 1.371-.905l15.227 3.285c.625.135 1.023.758.89 1.393l-3.486 16.643-.031-.007a5.59 5.59 0 0 1-.089.581c-.598 2.853-3.355 4.675-6.16 4.07-2.804-.604-4.592-3.407-3.995-6.26.598-2.853 3.355-4.675 6.159-4.07a5.117 5.117 0 0 1 1.631.658zM68.741 104.992l1.127-5.38-8.728-1.882-1.86 8.879-.025-.005c-.015.157-.04.314-.073.472-.486 2.323-2.732 3.807-5.015 3.315-2.283-.493-3.74-2.775-3.253-5.098.487-2.323 2.732-3.807 5.015-3.314.483.104.93.288 1.328.536l2.106-10.052a.942.942 0 0 1 1.116-.737l12.4 2.674c.508.11.832.617.724 1.134l-2.839 13.552-.025-.005c-.015.157-.04.314-.073.472-.486 2.323-2.731 3.807-5.015 3.315-2.283-.493-3.74-2.775-3.253-5.098.487-2.323 2.732-3.807 5.015-3.314.483.104.93.288 1.328.536zM35.41 106.016L30.47 93.053c-.268-.703.07-1.494.755-1.766l8.034-3.193a1.325 1.325 0 0 1 1.725.781l1.696 4.452c.268.704-.07 1.494-.754 1.766l-5.564 2.212 4.606 12.09-.01.003c.047.103.09.208.131.315 1.138 2.987-.293 6.344-3.196 7.498-2.903 1.153-6.18-.333-7.317-3.32-1.138-2.987.293-6.344 3.196-7.498.47-.187.951-.305 1.431-.358l.206-.019z" fill="#fff"/><path d="M67.082 62.37c-1.065-3.543 1.41-7.166 5.099-7.463l4.273-.343a39.703 39.703 0 0 0 13.852-3.712l3.872-1.84c3.343-1.587 7.298.313 8.148 3.915l4.754 20.15a12.91 12.91 0 0 1-.733 8.133c-4.865 11.145-18.821 14.884-28.606 7.665a12.916 12.916 0 0 1-4.702-6.677l-5.957-19.827z" fill="#fff"/><path d="M91.403 82.633c5.294-1.418 8.667-6.43 8.197-11.708-.094-1.065-1.175-1.68-2.208-1.404L79.66 74.272c-1.033.277-1.662 1.35-1.211 2.32 2.233 4.807 7.659 7.46 12.954 6.041zM78.093 64.213a5.567 5.567 0 0 0-2.053 5.946c.265.966 1.483.962 2.04.128l.218-.325a9.983 9.983 0 0 1 5.715-4.094c.895-.24 1.244-1.31.473-1.823a5.567 5.567 0 0 0-6.394.168zM93.714 60.026a5.567 5.567 0 0 1 4.75 4.123c.254.97-.803 1.575-1.702 1.132l-.352-.173a9.983 9.983 0 0 0-6.996-.688c-.895.24-1.732-.513-1.32-1.342a5.567 5.567 0 0 1 5.62-3.052z" fill="#3D3D3D"/><path d="M94.377 77.18c.778-3.618 4.695-5.596 8.068-4.075l3.909 1.762a39.698 39.698 0 0 0 13.922 3.436l4.279.259c3.694.223 6.241 3.796 5.247 7.36l-5.563 19.943a12.92 12.92 0 0 1-4.569 6.768c-9.64 7.412-23.668 3.95-28.753-7.096a12.916 12.916 0 0 1-.894-8.117l4.354-20.24z" fill="#AB72EC"/><path d="M109.058 93.83c-5.322-1.313-10.694 1.448-12.831 6.297-.432.979.218 2.04 1.256 2.296l17.823 4.398c1.038.257 2.107-.38 2.18-1.447.365-5.287-3.106-10.23-8.428-11.543zM105.363 90.195a5.434 5.434 0 0 0 3.908-4.811c.08-1.067-1.033-1.675-2.061-1.378l-6.714 1.942c-1.028.298-1.644 1.407-1.007 2.266a5.434 5.434 0 0 0 5.874 1.98zM114.025 92.333a5.433 5.433 0 0 0 6.12.979c.964-.464.935-1.732.164-2.474l-5.04-4.843c-.771-.741-2.04-.72-2.465.261a5.433 5.433 0 0 0 1.221 6.077z" fill="#3D3D3D"/><path d="M42.924 48.183c-4.845-2.28-9.908-2.139-13.885-1.355a32.183 32.183 0 0 0-4.421 1.214A7.088 7.088 0 0 1 28.2 36.56c4.503-1.177 8.951-.217 12.736 2.64a7.087 7.087 0 0 1 1.988 8.983z" fill="#fff"/><path d="M40.993 39.14c2.803 2.143 3.65 5.743 1.893 8.04-.197.258-.42.489-.662.692-2.971-1.254-6.001-1.636-8.791-1.55a7.021 7.021 0 0 1-1.226-2.064 2.85 2.85 0 0 0 2.67-3.592 2.852 2.852 0 0 0-1.572-1.86c1.902-1.688 5.16-1.6 7.688.334z" fill="#3D3D3D"/><path d="M48.648 47.494c2.836-4.585 6.894-7.5 10.428-9.306a33.282 33.282 0 0 1 4.372-1.847 7.088 7.088 0 0 0-8.977-6.84c-4.486 1.238-7.854 4.299-9.697 8.668a7.085 7.085 0 0 0 3.874 9.325z" fill="#fff"/><path d="M56.211 39.853c.97-.639 1.935-1.19 2.864-1.665a33.353 33.353 0 0 1 4.636-1.936c.201-2.069-.929-4.376-3.073-5.84-2.914-1.988-6.598-1.664-8.228.724a4.36 4.36 0 0 0-.594 1.268 2.854 2.854 0 0 1 2.738 2.116 2.854 2.854 0 0 1-1.316 3.208c.422.491.923.943 1.497 1.334.476.325.972.588 1.476.79zM53.635 13.407c-4.866 8.638-13.78 23.672-35.99 28.834-1.502.35-3.464.335-4.909.144.115-13.538 9.184-25.889 22.897-29.573a30.766 30.766 0 0 1 18.002.595z" fill="#3D3D3D"/></svg>