<svg viewBox="0 0 135 124" fill="none" xmlns="http://www.w3.org/2000/svg"><path d="M124 27.79v79.3A17 17 0 0 1 107 124H28a17 17 0 0 1-17-17V28a17 17 0 0 1 17-17h79a16.999 16.999 0 0 1 17 16.79z" fill="#9066CF"/><path d="M124 27.79v61.68H11V28a17 17 0 0 1 17-17h79a16.999 16.999 0 0 1 17 16.79zm-31.86 77.68H48.67a6.69 6.69 0 0 0-6.69 6.69v.01a6.69 6.69 0 0 0 6.69 6.69h43.47a6.69 6.69 0 0 0 6.69-6.69v-.01a6.69 6.69 0 0 0-6.69-6.69z" fill="#6F4BA2"/><path d="M78.72 29.91v11a17 17 0 0 1-4 .47c-7 0-10.53-3.72-13.16-6.42-2.28-2.35-3.29-3.31-5.67-3.31s-3.4 1-5.67 3.31c-2.62 2.7-6.21 6.42-13.14 6.42-6.93 0-10.55-3.77-13.18-6.47-2.26-2.35-3.28-3.31-5.67-3.31s-3.38 1-5.65 3.31c-.49.51-1 1.05-1.61 1.6a5 5 0 0 1-8.49-3.64 5 5 0 0 1 1.91-3.94c.25-.187.484-.395.7-.62 2.63-2.73 6.21-6.44 13.14-6.44 6.93 0 10.53 3.71 13.16 6.42 2.27 2.35 3.29 3.31 5.67 3.31s3.39-1 5.67-3.29c2.61-2.73 6.21-6.44 13.14-6.44 6.93 0 10.53 3.71 13.13 6.42 2.27 2.35 3.27 3.31 5.67 3.31a5.268 5.268 0 0 0 4.05-1.69z" fill="#CE7EFF"/><path d="M70 113.3a15 15 0 0 1-15-15v-15a20.75 20.75 0 0 0-5.51-14.1 15 15 0 1 1 22-20.35C80.22 58.25 85 60.16 85 73v25.3a15.003 15.003 0 0 1-15 15z" fill="#FFA9DD"/><path d="M58.87 11H85v58.76a6.62 6.62 0 0 1-11.38 4.61l-4.09-4.22a37.87 37.87 0 0 1-10.66-26.34V11z" fill="#E69A7D"/><path d="M85 32.47l-26.13 22V44.13l26.13-22v10.34z" fill="#FFA9DD"/><path d="M58.87 32.47l26.13 22V44.13l-26.13-22v10.34z" fill="#FFA9DD"/></svg>