<svg id="Cover" xmlns="http://www.w3.org/2000/svg" viewBox="0 0 135 124"><defs><style>.cls-3{fill:#2d2d2d}.cls-4{fill:#666161}.cls-7{fill:#ccc}.cls-9{fill:#e5e5e5}</style></defs><path d="M124 28a17 17 0 0 0-17-17H28a17 17 0 0 0-17 17v79a17 17 0 0 0 17 17h79a17 17 0 0 0 17-17z" fill="#e93733"/><path d="M68.32 0a50.95 50.95 0 1 0 51 50.94A50.93 50.93 0 0 0 68.32 0zM30.18 73a12.81 12.81 0 0 1 11.07-19.25A12.81 12.81 0 1 1 30.18 73zm76.29-44a12.8 12.8 0 1 1-11.11-6.41 12.83 12.83 0 0 1 11.11 6.33zm-25.34-9.29A12.81 12.81 0 1 1 68.32 6.9a12.83 12.83 0 0 1 12.81 12.81zm-33.46 4.52a12.79 12.79 0 1 1-6.39-1.72 12.82 12.82 0 0 1 6.39 1.72zm7.84 58A12.81 12.81 0 1 1 68.32 95a12.82 12.82 0 0 1-12.81-12.82zM89 77.66a12.81 12.81 0 1 1 17.5-4.7 12.82 12.82 0 0 1-17.5 4.7z" fill="#a6a6a6"/><path class="cls-3" d="M115.13 50.94a46.82 46.82 0 0 1-41.47 46.51 47.39 47.39 0 0 1-5.34.3c-1.54 0-3.07-.07-4.57-.22a46.81 46.81 0 1 1 51.38-46.59z"/><path class="cls-4" d="M111.85 44.65a2.56 2.56 0 0 1-2.54 2.82H66l.1-43.27q1.11-.06 2.25-.06A36.27 36.27 0 0 1 83.9 8a.73.73 0 0 1-.33 1.38h-9.68l-1.67 3.19h17.55a4.83 4.83 0 0 1 3.12 1.1A72.55 72.55 0 0 1 104 25.08a1.43 1.43 0 0 1-1.17 2.26H89.09v4.44h16.16a4.32 4.32 0 0 1 4 2.63 35.5 35.5 0 0 1 2.6 10.24z"/><path d="M113.6 62.85a46.86 46.86 0 0 1-39.94 34.6 47.39 47.39 0 0 1-5.34.3c-1.54 0-3.07-.07-4.57-.22V62.85z" fill="#151515"/><circle cx="50.94" cy="50.94" r="46.81" fill="#272727"/><path class="cls-3" d="M88.89 116.93a1.92 1.92 0 0 1-1.9-2.29c.83-4.2 3.55-12.68 12-12.68 7.6 0 18.5-3.4 18.5-16.66 0-11.83-19.87-15.18-19.87-34.36h17.47C115.13 70.12 135 70.42 135 85.3a19.18 19.18 0 0 1-18.5 19.7c-8.8 0-11.41 7.28-12.13 10.48a1.93 1.93 0 0 1-1.88 1.49z"/><path class="cls-4" d="M100.61 51.49h9.73a2 2 0 0 1 2 1.85 23 23 0 0 0 4.57 12.55.71.71 0 0 1-.57 1.14h-7.82a2.54 2.54 0 0 1-1.85-.8c-2.98-3.11-5.15-6.8-6.06-14.74zM109.44 103.6c-3.75 1.92-6.5 5.49-7.79 10.33H90.22c1.94-7.76 6.37-8.37 8.81-9s7.24-1.43 10.23-1.92a.3.3 0 0 1 .18.59zM131.53 89.53c-.94 4.07-4.47 9.1-7.8 10.88a3.2 3.2 0 0 1-1.49.48h-7.68a.55.55 0 0 1-.42-.91c2.09-2.34 5.51-7.09 6.12-10.91a1.62 1.62 0 0 1 1.61-1.38H130a1.52 1.52 0 0 1 1.53 1.84zM113.11 70.49h7.26a2.58 2.58 0 0 1 1.67.62l2 1.71c3.71 3.21 6.77 5.85 7.68 9.89a1.28 1.28 0 0 1-1.26 1.52h-8.73a1.4 1.4 0 0 1-1.38-1.16c-.82-4.81-4.23-8.25-7.71-11.36a.7.7 0 0 1 .47-1.22z"/><path class="cls-7" d="M50.94 0a50.95 50.95 0 1 0 51 50.94A50.93 50.93 0 0 0 50.94 0zM12.8 73a12.81 12.81 0 0 1 11.07-19.25A12.85 12.85 0 0 1 35 60.16a12.8 12.8 0 0 1-11.1 19.21A12.84 12.84 0 0 1 12.8 73zm76.29-44A12.8 12.8 0 1 1 78 22.51a12.83 12.83 0 0 1 11.09 6.41zm-25.34-9.29A12.81 12.81 0 1 1 50.94 6.9a12.82 12.82 0 0 1 12.81 12.81zm-33.46 4.52a12.79 12.79 0 1 1-6.39-1.72 12.82 12.82 0 0 1 6.39 1.72zm7.84 58A12.81 12.81 0 1 1 50.94 95a12.83 12.83 0 0 1-12.81-12.82zm33.46-4.52A12.82 12.82 0 1 1 78 79.37a12.76 12.76 0 0 1-6.41-1.71z"/><path d="M50.94 5.39a45.56 45.56 0 1 0 45.55 45.55A45.55 45.55 0 0 0 50.94 5.39zM71 25a12.46 12.46 0 1 1-4.57 17A12.47 12.47 0 0 1 71 25zm-57.18 4.51a12.46 12.46 0 1 1 4.56 17 12.53 12.53 0 0 1-4.56-17zm22.84 39.86a12.4 12.4 0 0 1-5.81 7.57 12.46 12.46 0 0 1-17-4.57 12.49 12.49 0 0 1 4.56-17 12.46 12.46 0 0 1 17 4.57 12.38 12.38 0 0 1 1.25 9.43zm14.28 24.44a12.47 12.47 0 1 1 12.47-12.46 12.48 12.48 0 0 1-12.47 12.46zm0-60.8a12.47 12.47 0 1 1 12.47-12.47A12.49 12.49 0 0 1 50.94 33zm26.32 45.6a12.46 12.46 0 1 1 10.81-6.24 12.47 12.47 0 0 1-10.81 6.24z" fill="#ebebeb"/><circle class="cls-7" cx="50.94" cy="50.94" r="13.71"/><circle class="cls-3" cx="50.94" cy="50.94" r="4.11"/><path class="cls-9" d="M43.09 57.14a1.68 1.68 0 0 1-1.44-.83 1.63 1.63 0 0 1-.16-1.26 1.6 1.6 0 0 1 .76-1 1.65 1.65 0 0 1 .83-.23 1.68 1.68 0 0 1 1.44.83 1.63 1.63 0 0 1 .16 1.26 1.58 1.58 0 0 1-.77 1 1.61 1.61 0 0 1-.82.23zM58.8 48.06a1.63 1.63 0 0 1-1.43-.83A1.65 1.65 0 0 1 58 45a1.72 1.72 0 0 1 .83-.22 1.66 1.66 0 0 1 1.6 2.08 1.67 1.67 0 0 1-.77 1 1.64 1.64 0 0 1-.86.2zM58.8 57.14a1.68 1.68 0 0 1-1.6-1.23 1.6 1.6 0 0 1 .17-1.26 1.64 1.64 0 0 1 2.26-.6 1.65 1.65 0 0 1 .6 2.26 1.65 1.65 0 0 1-1.43.83zM43.08 48.06a1.58 1.58 0 0 1-.82-.22 1.67 1.67 0 0 1-.61-2.26 1.66 1.66 0 1 1 1.43 2.48zM50.94 43.53a1.66 1.66 0 1 1 1.66-1.66 1.66 1.66 0 0 1-1.66 1.66zM50.94 61.67A1.66 1.66 0 1 1 52.6 60a1.65 1.65 0 0 1-1.66 1.67z"/><path d="M36.86 50.94a14.08 14.08 0 0 1 14.08-14.08" fill="none" stroke="#fff" stroke-linecap="round" stroke-miterlimit="10" stroke-width="2.77"/></svg>