<svg viewBox="0 0 135 124" fill="none" xmlns="http://www.w3.org/2000/svg"><path d="M107 11H28c-9.389 0-17 7.611-17 17v79c0 9.389 7.611 17 17 17h79c9.389 0 17-7.611 17-17V28c0-9.389-7.611-17-17-17z" fill="#FFC800"/><path d="M107 11H62.82L11 62.82V107c.006 1.482.204 2.958.59 4.39a17.48 17.48 0 0 0 3.47-2.67l97-97A17.002 17.002 0 0 0 107 11zM70.29 72.8A161.839 161.839 0 0 1 87.51 90a66.004 66.004 0 0 1 6.55 9L124 69.06V28a16.8 16.8 0 0 0-1.65-7.26L70.29 72.8z" fill="#FFD900"/><path d="M30.12 107.23l6.7-70.3 17.36-12.67 43.76 4.17a5.16 5.16 0 0 1 4.64 5.62L95 113.42a5.173 5.173 0 0 1-5.62 4.65l-54.64-5.21a5.153 5.153 0 0 1-4.62-5.63z" fill="#FFB100"/><path d="M98.54 31.67l-10.2 69.88-18 11.79L26.87 107a5.16 5.16 0 0 1-4.35-5.85L34 22.26a5.17 5.17 0 0 1 5.85-4.37l54.31 7.93a5.151 5.151 0 0 1 4.38 5.85z" fill="#FFE75E"/><path d="M122.628 100.275l8.33-2.136.894 3.488a1.867 1.867 0 0 1-1.347 2.275l-4.746 1.217a1.866 1.866 0 0 1-2.276-1.347l-.894-3.487.039-.01z" fill="#F89700"/><path d="M129.278 91.639l-8.331 2.135 1.604 6.258 8.331-2.136-1.604-6.257z" fill="#F6B52B"/><path d="M118.918 51.203l-8.33 2.135 10.331 40.297 8.331-2.136-10.332-40.296z" fill="#F89700"/><path d="M128.698 90.34l-7.856 2.014a1.41 1.41 0 1 0 .7 2.732l7.856-2.015a1.41 1.41 0 0 0-.7-2.731zM130.299 96.584l-7.856 2.015a1.41 1.41 0 1 0 .701 2.731L131 99.316a1.41 1.41 0 1 0-.701-2.732z" fill="#FFE045"/><path d="M111.66 41.22l-.59.3-.48 11.82 8.33-2.13-6.12-10.15-1.14.16z" fill="#FFE75E"/><path d="M111.449 39.189a1.579 1.579 0 0 1 1.923 1.138l.715 2.79-3.061.784-.715-2.79a1.578 1.578 0 0 1 1.138-1.922z" fill="#E27800"/><path d="M63.94 86.18h-.31l-28.09-4.1a2.13 2.13 0 1 1 .62-4.21L64.24 82a2.13 2.13 0 0 1-.3 4.23v-.05zM79.89 93.13h-.3L71.35 92a2.14 2.14 0 0 1-1.81-2.41l1.17-8.24a2.13 2.13 0 0 1 2.4-1.81l8.24 1.17a2.121 2.121 0 0 1 1.81 2.4L82 91.3a2.12 2.12 0 0 1-2.11 1.83zM74.05 88l4 .57.57-4-4-.57-.57 4zM67.26 63.67c-.103.01-.207.01-.31 0l-28.09-4.1a2.13 2.13 0 0 1 .61-4.21l28.09 4.1a2.13 2.13 0 0 1-.3 4.23v-.02zM83 70.63h-.3l-8.24-1.17a2.13 2.13 0 0 1-1.8-2.46l1.17-8.24a2.11 2.11 0 0 1 2.4-1.76l8.24 1.16a2.14 2.14 0 0 1 1.81 2.41l-1.17 8.23a2.08 2.08 0 0 1-.82 1.4 2.12 2.12 0 0 1-1.29.43zm-5.84-5.1l4 .57.57-4-4-.57-.57 4zM68 40.84c-.103.01-.207.01-.31 0l-25.31-3.72a2.13 2.13 0 0 1 .62-4.21l25.33 3.7a2.13 2.13 0 0 1-.3 4.23H68zM86.47 47.61h-.3l-8.25-1.17a2.14 2.14 0 0 1-1.4-.82 2.122 2.122 0 0 1-.4-1.58l1.16-8.24a2.121 2.121 0 0 1 2.41-1.8l8.24 1.17a2.081 2.081 0 0 1 1.4.82 2.17 2.17 0 0 1 .41 1.58l-1.17 8.24a2.13 2.13 0 0 1-2.1 1.8zm-5.85-5.1l4 .57.57-4-4-.57-.57 4z" fill="#FFB100"/><path d="M70.37 113.34l1.31-9a5.148 5.148 0 0 1 5.85-4.34l10.81 1.57-17.97 11.77z" fill="#F89700"/></svg>