<svg viewBox="0 0 135 124" fill="none" xmlns="http://www.w3.org/2000/svg"><g clip-path="url(#clip0)"><path d="M107 11.033H28c-9.389 0-17 7.611-17 17v79c0 9.389 7.611 17 17 17h79c9.389 0 17-7.611 17-17v-79c0-9.389-7.611-17-17-17z" fill="#FFCA00"/><path fill-rule="evenodd" clip-rule="evenodd" d="M64.756 27.37c8.2 8.201 8.2 21.498 0 29.699l-53.407 53.407a17.08 17.08 0 0 1-.348-3.443L11 51.427 35.057 27.37c8.201-8.201 21.498-8.201 29.699 0zM124 28.427V63.78l-8.995 8.997c-4.881 4.881-12.796 4.881-17.677 0-4.882-4.882-4.882-12.796 0-17.678L124 28.427z" fill="#FFD900"/><path fill-rule="evenodd" clip-rule="evenodd" d="M67.755 2c20.383 0 36.907 16.524 36.907 36.907v3.972c0 20.383-16.524 36.907-36.907 36.907-20.383 0-36.907-16.524-36.907-36.907v-3.972C30.848 18.524 47.37 2 67.755 2z" fill="#F89700"/><path fill-rule="evenodd" clip-rule="evenodd" d="M67.804 10.424c16.225 0 29.377 13.152 29.377 29.377 0 16.224-13.152 29.376-29.377 29.376-16.224 0-29.376-13.152-29.376-29.377 0-16.224 13.152-29.376 29.376-29.376z" fill="#FFB100"/><path d="M69.942 35.953a6.734 6.734 0 0 0 1.18 9.454 6.74 6.74 0 0 0 6.57.967l-.01.03.179-.099a6.65 6.65 0 0 0 1.258-.69l1.108-.595a93 93 0 0 1 2.99-1.524c.477-.163.93-.379 1.351-.64.16-.082.287-.168.384-.257a6.736 6.736 0 0 0-3.971-12.21c-4.424.03-8.27 2.008-11.039 5.564z" fill="#FFF1A2"/><path fill-rule="evenodd" clip-rule="evenodd" d="M75.781 33.776c2.468 0 4.469 2.001 4.469 4.469v2.152a4.468 4.468 0 1 1-8.938 0v-2.152c0-.087.003-.174.008-.26.09.011.18.016.272.016a2.71 2.71 0 0 0 2.705-2.713c0-.414-.093-.807-.258-1.158a4.433 4.433 0 0 1 1.742-.354z" fill="#E27800"/><path d="M66.162 35.953a6.734 6.734 0 0 1-1.179 9.454 6.74 6.74 0 0 1-6.57.967l.009.03-.178-.099a6.652 6.652 0 0 1-1.259-.69l-1.108-.595a93 93 0 0 0-2.99-1.524 6.643 6.643 0 0 1-1.35-.64 1.789 1.789 0 0 1-.384-.257 6.736 6.736 0 0 1 3.971-12.21c4.423.03 8.27 2.008 11.038 5.564z" fill="#FFF1A2"/><path fill-rule="evenodd" clip-rule="evenodd" d="M60.554 33.776a4.469 4.469 0 0 1 4.464 4.259l.005.21v2.152a4.469 4.469 0 0 1-8.932.21l-.005-.21v-2.152c0-.222.016-.44.047-.654.415.26.904.41 1.428.41a2.71 2.71 0 0 0 2.706-2.713c0-.536-.155-1.035-.422-1.456.23-.036.468-.056.71-.056z" fill="#E27800"/><path d="M84.18 15.408c-6.597 6.73-18.486 18.329-40.145 17.59-1.463-.05-3.26-.546-4.539-1.077C42.94 19.523 54.31 10.424 67.804 10.424a29.24 29.24 0 0 1 16.376 4.984z" fill="#E27800"/><path d="M45.535 45.189L45 40.086l.366-.032c.854-.065 2.102-.084 3.64.015 2.942.19 5.93.776 8.802 1.885 4.057 1.566 7.53 4.049 10.157 7.59l.289.398-4.188 2.965c-2.039-2.88-4.794-4.889-8.105-6.167-2.344-.905-4.83-1.392-7.286-1.55-.86-.056-1.651-.067-2.351-.045l-.557.025-.233.019zM91.317 45.189l.533-5.103-.365-.032c-.855-.065-2.103-.084-3.64.015-2.943.19-5.931.776-8.803 1.885-4.057 1.566-7.53 4.049-10.157 7.59l-.288.398 4.187 2.965c2.039-2.88 4.794-4.889 8.105-6.167 2.345-.905 4.83-1.392 7.287-1.55.86-.056 1.65-.067 2.35-.045l.558.025.233.019z" fill="#FFB100"/><path fill-rule="evenodd" clip-rule="evenodd" d="M68.002 51.32c1.554 0 2.814-1.244 2.814-2.779s-2.814-5.165-2.814-5.165l-.245.326c-.685.925-2.569 3.583-2.569 4.839 0 1.535 1.26 2.78 2.814 2.78z" fill="#F89700"/><path d="M71.483 51.907a1.001 1.001 0 1 1 1.645 1.142c-3.465 4.996-7.224 4.996-10.285-.052a1.001 1.001 0 0 1 1.713-1.038c2.291 3.779 4.27 3.779 6.927-.052z" fill="#9E4D31"/><path fill-rule="evenodd" clip-rule="evenodd" d="M36.81 21.726c6.237 1.508 9.032-1.873 11.907-4.214 2.875-2.342 6.873 4.214 6.873 4.214l-7.52 5.596-10.329-1.951s-7.166-5.153-.93-3.645z" fill="#E27800"/><path d="M33.748 20.906l18.155 4.68a1.47 1.47 0 0 1 .851 2.216c-2.598 4.013-7.555 5.932-12.292 4.657-4.737-1.276-8.075-5.428-8.328-10.208-.053-.995.653-1.603 1.614-1.345z" fill="#E27800"/><path d="M20 59a8 8 0 0 1 8-8h79a8 8 0 0 1 8 8v49a8 8 0 0 1-8 8H28a8 8 0 0 1-8-8V59z" fill="#F89700"/><path d="M20 59a8 8 0 0 1 8-8h31a8 8 0 0 1 8 8v57H28a8 8 0 0 1-8-8V59z" fill="#FFD900"/><path d="M46 50a2 2 0 0 1 2 2v64H38V52a2 2 0 0 1 2-2h6z" fill="#FFB100"/><path d="M93 52a2 2 0 0 1 2 2v62H85V54a2 2 0 0 1 2-2h6z" fill="#E27800"/><path d="M98 91c0-6.075 4.925-11 11-11h5.261c3.17 0 5.739 2.57 5.739 5.74v10.52c0 3.17-2.569 5.74-5.739 5.74H109c-6.075 0-11-4.925-11-11zM37 91c0-6.075-4.925-11-11-11h-5.26A5.74 5.74 0 0 0 15 85.74v10.52a5.74 5.74 0 0 0 5.74 5.74H26c6.075 0 11-4.925 11-11z" fill="#FFB100"/><rect x="15" y="48" width="105" height="14" rx="2" fill="#E27800"/><rect x="15" y="48" width="57" height="14" rx="2" fill="#F89700"/><path d="M46 48v14H35V48h11z" fill="#FFD900"/><path d="M98 48v14H87V48h11z" fill="#FFB100"/><circle cx="52" cy="72" r="3" fill="#ADE756"/><path d="M111.062 17.535c.322-.871 1.554-.871 1.876 0l1.333 3.603c.102.274.317.49.591.59l3.603 1.334c.871.322.871 1.554 0 1.876l-3.603 1.333a1.001 1.001 0 0 0-.591.591l-1.333 3.604c-.322.87-1.554.87-1.876 0l-1.333-3.604a1.001 1.001 0 0 0-.591-.59l-3.603-1.334c-.871-.322-.871-1.554 0-1.876l3.603-1.333c.274-.101.489-.317.591-.591l1.333-3.604zM21.062 28.535c.322-.871 1.554-.871 1.876 0l.793 2.143a1 1 0 0 0 .59.59l2.144.794c.871.322.871 1.554 0 1.876l-2.143.793a1 1 0 0 0-.59.59l-.794 2.145c-.322.87-1.554.87-1.876 0l-.793-2.144a1 1 0 0 0-.59-.59l-2.144-.794c-.871-.322-.871-1.554 0-1.876l2.143-.793a1 1 0 0 0 .59-.59l.794-2.144zM113.062 36.535c.322-.871 1.554-.871 1.876 0l.523 1.413c.101.274.317.49.591.591l1.413.523c.871.322.871 1.554 0 1.876l-1.413.523a.999.999 0 0 0-.591.59l-.523 1.414c-.322.871-1.554.871-1.876 0l-.523-1.413a.999.999 0 0 0-.591-.591l-1.413-.523c-.871-.322-.871-1.554 0-1.876l1.413-.523a.999.999 0 0 0 .591-.59l.523-1.414z" fill="#FFF1A2"/><path fill="#FFB100" d="M20 62h47v4.25H20z"/><path fill="#F89700" d="M38 62h10v4.25H38z"/><path d="M41 75.415a2 2 0 0 1 .693-1.513l9-7.773a2 2 0 0 1 2.614 0l9 7.773A2 2 0 0 1 63 75.415V101a2 2 0 0 1-2 2H43a2 2 0 0 1-2-2V75.415z" fill="#FFF1A2"/><path fill-rule="evenodd" clip-rule="evenodd" d="M52 47a1 1 0 0 1 1 1v22a1 1 0 1 1-2 0V48a1 1 0 0 1 1-1z" fill="#FFD900"/></g><defs><clipPath id="clip0"><path fill="#fff" d="M0 0h135v124H0z"/></clipPath></defs></svg>