<svg xmlns="http://www.w3.org/2000/svg" viewBox="0 0 135 124"><defs><style>.cls-1{fill:#ffd900}.cls-2{fill:#f89700}.cls-3{fill:#ffb100}.cls-4{fill:#ffc800}.cls-5{fill:#ffe865}.cls-6{fill:#e27800}.cls-7{fill:#ffd100}</style></defs><g id="Layer_3" data-name="Layer 3"><path class="cls-1" d="M124.16 28v79a17 17 0 0 1-17 17h-79a17 17 0 0 1-17-17V28a17 17 0 0 1 17-17h79a17 17 0 0 1 17 17z"/><path class="cls-2" d="M124.16 83.11V107a17 17 0 0 1-17 17H62.4V83.11z"/><path class="cls-3" d="M102.53 115.74L88.15 113a6.11 6.11 0 0 1-4.9-5l-4.14-25.6 7.56 8.35z"/><path class="cls-3" d="M102 115.74l14.09-2.74a5.43 5.43 0 0 0 4.44-5l1.75-25.6-6.79 8.35z"/><path class="cls-4" d="M83.31 85.37l19.22 30.37 12.91-24.2-32.13-6.17z"/><path class="cls-2" d="M118.54 19.48a7.53 7.53 0 0 1 7.53 7.52v26.17H111V27a7.53 7.53 0 0 1 7.54-7.52z" transform="rotate(77.3 117.991 36.132)"/><path class="cls-3" d="M95.36 3.43a7.53 7.53 0 0 1 7.53 7.57v26.12H87.83V11a7.53 7.53 0 0 1 7.53-7.53z" transform="rotate(28.26 95.35 20.265)"/><path class="cls-3" d="M107.43 3.62a7.53 7.53 0 0 1 7.57 7.53v26.16H99.9V11.15a7.53 7.53 0 0 1 7.53-7.53z" transform="rotate(48.75 107.435 20.472)"/><path class="cls-3" d="M118.12 9.86a7.53 7.53 0 0 1 7.53 7.53v26.16h-15.06V17.39a7.53 7.53 0 0 1 7.53-7.53z" transform="rotate(69.42 118.117 26.707)"/><path class="cls-1" d="M131.54 46.51l-.49 31.89a15.38 15.38 0 0 1-15.61 15.14l-27.33-.42A15.38 15.38 0 0 1 73 77.51l.49-31.89a29 29 0 1 1 58.08.89z"/><path class="cls-4" d="M131.3 61.85l-.25 16.55a15.38 15.38 0 0 1-15.61 15.14l-27.33-.42A15.38 15.38 0 0 1 73 77.51l.36-23.4a17.09 17.09 0 0 1 4.39-.73 1 1 0 0 1 1 .78l3.44 14.33a2.56 2.56 0 0 0 2.05 1.94 2.46 2.46 0 0 0 .37 0 2.62 2.62 0 0 0 2.34-1.41l1.64-3.24c1.27-2.51 3.66-3.16 6.85-3.12l20.74.32c3.23 0 5.64.86 6.84 3.44l1.44 3.07a2.63 2.63 0 0 0 4.92-.42z"/><path class="cls-2" d="M92.08 66.28H113a1.6 1.6 0 0 1 1.6 1.6v.93a8.45 8.45 0 0 1-8.45 8.45h-7.22a8.45 8.45 0 0 1-8.45-8.45v-.93a1.6 1.6 0 0 1 1.6-1.6z" transform="rotate(5.53 102.461 71.738)"/><path class="cls-5" d="M93.56 66.3h18.57v2.12a2.2 2.2 0 0 1-2.2 2.2H95.77a2.2 2.2 0 0 1-2.2-2.2V66.3z" transform="rotate(5.53 102.819 68.4)"/><rect class="cls-5" x="90.4" y="41.35" width="13.61" height="18.84" rx="6.81" transform="rotate(.88 97.405 50.69)"/><rect class="cls-2" x="98.7" y="46.56" width="5.47" height="8.94" rx="2.74" transform="rotate(.88 101.317 51.311)"/><rect class="cls-5" x="111.52" y="41.67" width="13.61" height="18.84" rx="6.81" transform="rotate(-179.12 118.33 51.094)"/><rect class="cls-2" x="111.41" y="46.87" width="5.47" height="8.94" rx="2.74" transform="rotate(-179.12 114.146 51.336)"/><path class="cls-3" d="M87.71 20.68l2.25.93a21.84 21.84 0 0 0 15.73 7l25.57.39-.77-6-13.18-7.29-17.6-4.53z"/><path class="cls-3" d="M90 20.11l3.53 1.95a20 20 0 0 1-7.15 15 19.91 19.91 0 0 0-7.16 15v3.65l-6-.1.17-17.61a17.32 17.32 0 0 1 11.35-16z"/><rect class="cls-3" x="103.96" y="43.83" width="7.51" height="21.3" rx="2.47" transform="rotate(.88 107.852 54.516)"/><path class="cls-1" d="M88.25 53.25l13.71 5.79-2.73 2.63-10.2-.89-5.1-3.8 4.32-3.73z"/><rect class="cls-1" x="4.54" y="5.19" width="10.27" height="23.88" rx="5.13" transform="rotate(-42.11 9.675 17.131)"/><rect class="cls-1" x="15.04" y="-.44" width="10.27" height="30.42" rx="5.13" transform="rotate(160.84 20.17 14.774)"/><circle class="cls-1" cx="20.94" cy="26.89" r="13.27"/><path class="cls-6" d="M2.53 62.7H79.1V83A18.1 18.1 0 0 1 61 101.14H25.28A22.75 22.75 0 0 1 2.53 78.39V62.7z"/><circle class="cls-6" cx="40.83" cy="62.05" r="38.28"/><circle class="cls-3" cx="68.59" cy="74.7" r="5.71"/><circle class="cls-3" cx="15.54" cy="74.82" r="5.71"/><path class="cls-4" d="M31.26 85.91h20.37v14.37H31.26z"/><path class="cls-3" d="M65.31 96.28V124H28.16a16.92 16.92 0 0 1-10.57-3.69v-24z"/><path class="cls-4" d="M22.05 96.27h38.8v4.6a19.4 19.4 0 0 1-19.4 19.4 19.4 19.4 0 0 1-19.4-19.4v-4.6z"/><path class="cls-1" d="M69.94 40.18L70 57a37 37 0 0 1-16.62 30.79l-3.66 2.39a16.13 16.13 0 0 1-18-.2l-3-2.08a36 36 0 0 1-8.59-8.24 36.66 36.66 0 0 1-7.34-22V40.59c0-5.87 4.67-21.4 10.53-21.46l35.9-.38c5.85-.04 10.7 15.49 10.72 21.43z"/><path class="cls-2" d="M58.71 46.76h4.57a2.44 2.44 0 0 1 2.44 2.44v2.67a10.36 10.36 0 0 1-10.36 10.36h-4.57a2.44 2.44 0 0 1-2.44-2.44v-2.67a10.36 10.36 0 0 1 10.36-10.36z" transform="rotate(-180 57.04 54.495)"/><path class="cls-5" d="M63.3 50.76v2.68a10.35 10.35 0 0 1-10.36 10.35h-4.57a2.44 2.44 0 0 1-2.45-2.43v-2.68A10.39 10.39 0 0 1 56.2 48.32h4.66a2.44 2.44 0 0 1 2.44 2.44z"/><path class="cls-2" d="M56.2 48.32v4.13a3.32 3.32 0 0 1-6.63 0V50.8a10.35 10.35 0 0 1 6.63-2.48z"/><path class="cls-2" d="M56.2 48.32v4.13a3.32 3.32 0 0 1-6.63 0V50.8a10.35 10.35 0 0 1 6.63-2.48zM19.54 46.76h4.57a10.36 10.36 0 0 1 10.37 10.36v2.67A2.44 2.44 0 0 1 32 62.23h-4.54A10.36 10.36 0 0 1 17.1 51.87V49.2a2.44 2.44 0 0 1 2.44-2.44z"/><path class="cls-5" d="M36.9 58.68v2.68a2.43 2.43 0 0 1-2.43 2.43h-4.58a10.37 10.37 0 0 1-10.37-10.35v-2.68A2.44 2.44 0 0 1 22 48.32h4.67A10.39 10.39 0 0 1 36.9 58.68z"/><path class="cls-2" d="M33.25 50.8v1.65a3.31 3.31 0 1 1-6.62 0v-4.13a10.3 10.3 0 0 1 6.62 2.48z"/><path class="cls-7" d="M25.25 79a5.1 5.1 0 0 1-5.15.62 36.66 36.66 0 0 1-7.34-22v-3.03l.15-.1 13.3 17.38a5.11 5.11 0 0 1-.96 7.13zM70 54.8V57a36.67 36.67 0 0 1-7.76 22.66 5.11 5.11 0 0 1-6.05-7.8l13.22-17.49z"/><rect class="cls-4" x="38.45" y="46.15" width="6.14" height="21.47" rx="3.07" transform="rotate(-.12 42.912 57.34)"/><path class="cls-6" d="M74.45 91.35l-6.74.02-.11-54.11 6.74.72.11 53.37zM15.47 85.05L9.48 83 9.3 38.49 15.46 37l.01 48.05z"/><path class="cls-6" d="M9.83 38.13a32.23 32.23 0 0 1 64.45 0l-1.9 5.51H54.63a18.76 18.76 0 0 1-13.29-5.51l-.1.1a18.79 18.79 0 0 1-13.19 5.41H11.36z"/><path class="cls-3" d="M75.54 46.66a1.83 1.83 0 0 1-1.47-.73A42.28 42.28 0 0 0 9 42.74a1.83 1.83 0 0 1-2.71-2.47A45.94 45.94 0 0 1 77 43.73a1.85 1.85 0 0 1-.37 2.57 1.88 1.88 0 0 1-1.09.36z"/><path class="cls-2" d="M52.73 72.09A7.65 7.65 0 1 1 38 76.24z"/><path class="cls-2" d="M45 74.66a5 5 0 0 1 8.69-4.43A1.37 1.37 0 0 1 53 72.4z"/><path class="cls-2" d="M38.13 76.61a1.37 1.37 0 0 1-1.73-1.49 5 5 0 0 1 9.72-.77z"/><path class="cls-4" d="M17.59 96.28v24A17 17 0 0 1 11.16 107v-8.53a10.51 10.51 0 0 1 6.43-2.19zM75.85 106.81V124H65.31V96.28a10.53 10.53 0 0 1 10.54 10.53z"/><path class="cls-2" d="M19.82 46.76h13.65a2.31 2.31 0 0 1 2.31 2.31 2.31 2.31 0 0 1-2.31 2.31H18.6V48a1.22 1.22 0 0 1 1.22-1.24z"/><path class="cls-2" d="M47.61 46.76h14.86a2.31 2.31 0 0 1 2.31 2.31 2.31 2.31 0 0 1-2.31 2.31H48.83a1.22 1.22 0 0 1-1.22-1.22v-3.4z" transform="rotate(-180 56.2 49.075)"/><path class="cls-2" d="M60.89 94.1h3a1.69 1.69 0 0 1 1.69 1.69V124h-6.37V95.78a1.69 1.69 0 0 1 1.68-1.68z"/><path class="cls-3" d="M41.33 114.15a6.62 6.62 0 0 1-5.75-3.28L27.22 96.8a1.95 1.95 0 0 1 3.35-2l8.36 14.07a2.74 2.74 0 0 0 2.4 1.37 2.73 2.73 0 0 0 2.4-1.38l8.2-14a1.95 1.95 0 0 1 3.37 2l-8.2 14a6.64 6.64 0 0 1-5.76 3.32z"/><path class="cls-3" d="M93.23 72.59h6.09a1.74 1.74 0 0 1 1.74 1.74v8.51a4.78 4.78 0 0 1-4.78 4.78 4.78 4.78 0 0 1-4.78-4.78v-8.51a1.74 1.74 0 0 1 1.73-1.74z" transform="rotate(16.3 96.269 80.097)"/><path class="cls-3" d="M127.23 47.26h-.09c-9.33-.33-14.35-3.1-14.56-3.22a2.5 2.5 0 0 1 2.42-4.36c.09 0 4.34 2.3 12.3 2.58a2.5 2.5 0 0 1-.09 5zM105 40.17a2.5 2.5 0 0 1-2-1c-.73-.91-4.68-5.17-10.66-.44a2.5 2.5 0 1 1-3.1-3.92c3.17-2.51 6.45-3.58 9.73-3.19a12.81 12.81 0 0 1 8 4.46 2.5 2.5 0 0 1-.43 3.51 2.45 2.45 0 0 1-1.54.58z"/></g></svg>