<svg viewBox="0 0 136 125" fill="none" xmlns="http://www.w3.org/2000/svg"><path fill-rule="evenodd" clip-rule="evenodd" d="M28.021 11.5h79c9.389 0 17 7.611 17 17v79c0 9.389-7.611 17-17 17h-79c-9.389 0-17-7.611-17-17v-79c0-9.389 7.611-17 17-17z" fill="#DBDBDB"/><path d="M98.02 38.302L83.52 5.014a2.1 2.1 0 0 0-3.863.03l-13.901 33.3a3 3 0 0 0 2.296 4.119l-6.778 15.223a2 2 0 0 0 1.827 2.814h2.957L57.18 81.728a2 2 0 0 0 1.846 2.772h40.94a2 2 0 0 0 1.833-2.8l-9.25-21.2h8.922a2.001 2.001 0 0 0 1.814-2.843L96.177 42.36a3 3 0 0 0 1.842-4.057z" fill="#CDCDCD"/><path d="M61.617 22.44l-3.535-3.536a1.5 1.5 0 0 0-2.121 0l-3.536 3.535a1.5 1.5 0 0 0 0 2.122l3.536 3.535a1.5 1.5 0 0 0 2.12 0l3.536-3.535a1.5 1.5 0 0 0 0-2.122zM49.385 37.293l-2.121-2.121a1 1 0 0 0-1.414 0l-2.122 2.12a1 1 0 0 0 0 1.415l2.122 2.121a1 1 0 0 0 1.414 0l2.121-2.12a1 1 0 0 0 0-1.415z" fill="#fff"/><path fill-rule="evenodd" clip-rule="evenodd" d="M107.129 124.5l-79.216-.001-.215-.002c-8.22-.153-15.014-6.142-16.413-13.997h112.472c-1.41 7.924-8.311 13.948-16.628 14z" fill="#B2B2B2"/><path d="M40.535 55.686L27.256 25.895a2.1 2.1 0 0 0-3.849.03l-12.725 29.79a2 2 0 0 0 1.84 2.785h1.897L6.242 74.108A3 3 0 0 0 8.9 78.5h2.58l-7.3 14.663A3 3 0 0 0 6.866 97.5h11.306v13h13.87v-13h13.873a3 3 0 0 0 2.663-4.383L40.984 78.5h2.862a3 3 0 0 0 2.632-4.44L37.971 58.5h.737a2 2 0 0 0 1.827-2.814zM122.353 47.3l-13.648-31.292a2.1 2.1 0 0 0-3.862.03L91.759 47.343a3 3 0 0 0 2.768 4.157h2.014l-8.344 16.656A3 3 0 0 0 90.88 72.5H92l-9.813 19.66a3 3 0 0 0 2.684 4.34h15.15v14h16v-14h13.112a3 3 0 0 0 2.661-4.386L121.579 72.5h2.482a2.999 2.999 0 0 0 2.658-4.39l-8.682-16.61h1.566a3 3 0 0 0 2.75-4.2z" fill="#B2B2B2"/><path fill-rule="evenodd" clip-rule="evenodd" d="M82.587 53.975l26.867 54.189a1.692 1.692 0 0 1-1.517 2.445H54.851a1.693 1.693 0 0 1-1.693-1.743l1.643-56.302h25.51a2.54 2.54 0 0 1 2.276 1.411z" fill="#BFBDBD"/><path fill-rule="evenodd" clip-rule="evenodd" d="M57.1 54.043l25.351 54.155a1.693 1.693 0 0 1-1.533 2.411H28.683a1.693 1.693 0 0 1-1.533-2.411L52.5 54.043a2.54 2.54 0 0 1 4.6 0z" fill="#CDCDCD"/><path fill-rule="evenodd" clip-rule="evenodd" d="M54.444 82.5c9.252 0 16.896 7.22 17.423 16.457l.664 11.652H36.18l.739-11.659c.586-9.249 8.259-16.45 17.526-16.45z" fill="#F3F3F3"/><path fill-rule="evenodd" clip-rule="evenodd" d="M53.91 81.104c10.284 0 18.621 8.338 18.621 18.622v11.004C61.64 108.254 53.91 98.571 53.91 87.4v-6.296z" fill="#CDCDCD"/><path fill-rule="evenodd" clip-rule="evenodd" d="M54.8 81.104c-10.284 0-18.621 8.338-18.621 18.622v11.004C47.07 108.254 54.8 98.571 54.8 87.4v-6.296z" fill="#CDCDCD"/><path d="M54.533 62.283c.695 0 1.266.53 1.33 1.208l.007.129v26.06a1.336 1.336 0 0 1-2.667.13l-.006-.13V63.62c0-.738.598-1.337 1.336-1.337z" fill="#BFBDBD"/></svg>