<svg viewBox="0 0 135 125" fill="none" xmlns="http://www.w3.org/2000/svg"><path d="M10.962 28.604c0-9.389 7.612-17 17-17h79c9.389 0 17 7.611 17 17v79c0 9.389-7.611 17-17 17h-79c-9.388 0-17-7.611-17-17v-79z" fill="#FFCA00"/><path fill-rule="evenodd" clip-rule="evenodd" d="M64.855 24.026c8.201 8.201 8.201 21.498 0 29.699L11.45 107.13a17.056 17.056 0 0 1-.348-3.442L11.1 48.083l24.057-24.057c8.2-8.2 21.497-8.2 29.698 0zm59.245 1.057v35.354l-8.995 8.997c-4.882 4.881-12.796 4.881-17.678 0-4.882-4.882-4.882-12.796 0-17.678L124.1 25.083z" fill="#FFD900"/><path fill-rule="evenodd" clip-rule="evenodd" d="M45 20.604h44.557c9.94 0 18 8.059 18 18v58.62c0 9.941-8.06 18-18 18H45c-9.941 0-18-8.059-18-18v-58.62c0-9.941 8.059-18 18-18z" fill="#FFB100"/><path fill-rule="evenodd" clip-rule="evenodd" d="M45 16.604h44.557c12.15 0 22 9.85 22 22v58.62c0 12.15-9.85 22-22 22H45c-12.15 0-22-9.85-22-22v-58.62c0-12.15 9.85-22 22-22zm44.557 4H45c-9.941 0-18 8.059-18 18v58.62c0 9.941 8.059 18 18 18h44.557c9.94 0 18-8.059 18-18v-58.62c0-9.941-8.06-18-18-18z" fill="#FFD900"/><path d="M33 38.604c0-6.627 5.373-12 12-12h44.557c6.627 0 12 5.373 12 12v58.62c0 6.627-5.373 12-12 12H45c-6.627 0-12-5.373-12-12v-58.62z" fill="#E27800"/><path fill-rule="evenodd" clip-rule="evenodd" d="M91.246 55.498c4.196 1.124 6.683 5.446 5.556 9.65l-.306 1.143L81.3 62.219l.306-1.142c1.126-4.205 5.443-6.704 9.64-5.58z" fill="#FF9600"/><path d="M81.13 60.793c4.48 1.2 9.071-1.401 10.253-5.81 1.181-4.41-1.493-8.958-5.973-10.159-4.482-1.2-9.072 1.4-10.254 5.81-1.182 4.41 1.493 8.958 5.975 10.16z" fill="#FF9600"/><path d="M101.556 66.129v31.095c0 6.627-5.373 12-12 12H51.313L62.83 66.242c1.448-5.405 7.004-8.613 12.41-7.165l26.316 7.052z" fill="#FFD900"/><path d="M72.016 58.748l-2.903 10.834a6 6 0 0 1-7.348 4.243l-.901-.242 1.966-7.34a10.138 10.138 0 0 1 9.186-7.495zm27.854 44.611a11.995 11.995 0 0 1-10.314 5.865h-39.3l4.789-17.876L99.87 103.36z" fill="#F89700"/><path d="M63.196 76.21a4.466 4.466 0 1 1-8.628-2.313 4.466 4.466 0 0 1 8.628 2.312z" fill="#FFD900"/><path d="M74.225 109.224h-2.898l1.98-7.393a1.4 1.4 0 0 1 2.705.725l-1.787 6.668zm8.835 0h-2.9l1.39-5.184a1.4 1.4 0 0 1 2.704.725l-1.195 4.459z" fill="#FFF1A2"/><path fill-rule="evenodd" clip-rule="evenodd" d="M73.542 70.375a6.286 6.286 0 0 1 12.144 3.254l-.99 3.694a6.286 6.286 0 1 1-12.144-3.254l.99-3.694z" fill="#FFF1A2"/><path fill-rule="evenodd" clip-rule="evenodd" d="M81.951 69.985a2.822 2.822 0 0 1 1.996 3.457l-.918 3.424a2.822 2.822 0 1 1-5.452-1.461l.855-3.192.128.038a2.267 2.267 0 0 0 2.848-2.356c.18.012.362.042.543.09z" fill="#E27800"/><path fill-rule="evenodd" clip-rule="evenodd" d="M87.756 74.184A6.286 6.286 0 1 1 99.9 77.438l-.99 3.693a6.286 6.286 0 0 1-12.144-3.254l.99-3.693z" fill="#FFF1A2"/><path fill-rule="evenodd" clip-rule="evenodd" d="M93.195 73.01a2.822 2.822 0 0 1 1.996 3.457l-.918 3.424a2.822 2.822 0 1 1-5.452-1.46l.855-3.193.128.039a2.267 2.267 0 0 0 2.848-2.356c.18.011.362.041.543.09z" fill="#E27800"/><path d="M78.78 85.495a.667.667 0 0 0-1.28.373c.803 2.754 2.713 4.145 5.576 4.063a.667.667 0 0 0-.039-1.333c-2.256.065-3.624-.932-4.257-3.103z" fill="#FFB100"/><path fill-rule="evenodd" clip-rule="evenodd" d="M83.713 85.153a2.33 2.33 0 0 0 2.854-1.647c.332-1.242-1.131-4.784-1.131-4.784l-.287.227c-.766.618-2.814 2.344-3.085 3.351a2.33 2.33 0 0 0 1.649 2.853z" fill="#FFB100"/><path d="M73.167 62.041l28.211 8.063v11.134l-31.12-8.339 2.91-10.858zM46.03 91.464a5.08 5.08 0 0 0 8.992-4.731l-4.736-9.002a5.08 5.08 0 1 0-8.992 4.731l4.737 9.002z" fill="#FFD900"/><path d="M54.308 107.48l2.068-1.821a9.958 9.958 0 0 0 2.232-12.11l-3.447-6.552a5.095 5.095 0 0 0-9.031 4.719l8.178 15.764z" fill="#F89700"/><path d="M49.894 70.058c-1.11-.432-2.37.139-2.811 1.275l-1.772 4.074 4.023 1.564 1.772-4.073c.442-1.137-.1-2.408-1.212-2.84z" fill="#FFD900"/><path d="M38.093 69.861c-.705.961-.479 2.325.504 3.046l5.54 4.578 2.553-3.482-5.54-4.578c-.983-.72-2.352-.525-3.057.436z" fill="#FFD900"/><path d="M34.92 74.76c-.432 1.111.14 2.37 1.276 2.812l6.536 2.988 1.564-4.024-6.536-2.987c-1.136-.442-2.408.1-2.84 1.211z" fill="#FFD900"/><path d="M34.837 80.974c.013 1.192 1.013 2.147 2.232 2.133l7.179.334-.05-4.317-7.179-.333c-1.219.014-2.196.991-2.182 2.183z" fill="#FFD900"/><path d="M46.03 91.464a5.08 5.08 0 0 0 8.992-4.731l-3.045-5.787-8.991 4.731 3.044 5.787z" fill="#F89700"/><path fill-rule="evenodd" clip-rule="evenodd" d="M71.221 30.155a2 2 0 0 1 0 2.828l-30.5 30.5a2 2 0 0 1-2.828-2.828l30.5-30.5a2 2 0 0 1 2.828 0zm0 10.5a2 2 0 0 1 0 2.828l-17 17a2 2 0 0 1-2.828-2.828l17-17a2 2 0 0 1 2.828 0z" fill="#F89700"/><path d="M102.023 29.223c1.028.597 2.393.428 3.198-.447A15.957 15.957 0 0 1 117 23.604c8.161 0 14.894 6.11 15.877 14.004.136 1.096-.772 1.996-1.877 1.996H86c-1.105 0-2.017-.902-1.835-1.992.948-5.68 5.886-10.008 11.835-10.008 2.195 0 4.253.59 6.023 1.619zM26.898 99.968c1.007.637 2.377.466 3.158-.434 3.652-4.21 9.03-6.87 15.026-6.87 10.33 0 18.822 7.895 19.82 18.003.108 1.099-.797 1.997-1.902 1.997H6c-1.105 0-2.014-.9-1.869-1.995.972-7.341 7.231-13.005 14.808-13.005 2.925 0 5.655.844 7.959 2.304zm8.568-64.364c-6.24 0-11.764 3.294-15.145 8.35-.718 1.073-2.225 1.376-3.376.793a10.503 10.503 0 0 0-4.767-1.143c-5.541 0-10.14 4.328-11.025 10.007-.17 1.092.742 1.993 1.847 1.993h64c1.105 0 2.016-.901 1.847-1.993-.885-5.679-5.484-10.007-11.025-10.007a10.49 10.49 0 0 0-4.234.89c-1.105.487-2.476.18-3.163-.813-3.395-4.901-8.832-8.077-14.96-8.077z" fill="#FFF1A2"/></svg>