<svg viewBox="0 0 136 125" fill="none" xmlns="http://www.w3.org/2000/svg"><rect x="12.15" y="11.006" width="113" height="113" rx="17" fill="#D1D1D1"/><path d="M68.42 67.67c1.335 13.95-8.89 26.342-22.84 27.678-13.95 1.336-26.342-8.89-27.678-22.84-1.336-13.95 8.89-26.342 22.84-27.678 13.95-1.336 26.34 8.89 27.677 22.84z" fill="#B1B1B1"/><path d="M34.604 67.031l1.515 1.948 21.934-19.434c-.689-.5-1.403-.965-2.14-1.394l-21.309 18.88z" fill="#A2A2A2"/><path d="M26.698 74.043l7.761-6.878 7.762-6.877 17.853 10.558 2.338 24.414-33.376 3.197-2.338-24.414z" fill="#D1D1D1"/><path d="M20.809 103.827c-.765-7.986 5.088-15.08 13.074-15.844l21.784-2.086c7.985-.765 15.079 5.088 15.843 13.073.765 7.986-5.088 15.079-13.074 15.844l-21.784 2.087c-7.985.764-15.079-5.089-15.843-13.074z" fill="#B1B1B1"/><path d="M49.044 85.878a4.351 4.351 0 1 1-8.662.83 4.351 4.351 0 0 1 8.662-.83z" fill="#D1D1D1"/><path d="M30.6 76.713a5.872 5.872 0 1 1 11.691-1.12l.381 3.976a5.872 5.872 0 0 1-11.69 1.12l-.381-3.976z" fill="#fff"/><path d="M37.028 70.309a5.874 5.874 0 0 1 5.263 5.284l.33 3.448a2.051 2.051 0 0 1-3.833-.657c-.38-2.39-1.792-3.698-2.604-4.231a2.057 2.057 0 0 1-.179-.111l-.021-.013h.003a2.053 2.053 0 0 1 1.04-3.72z" fill="#A2A2A2"/><path d="M56.747 74.208a5.872 5.872 0 0 0-11.69 1.12l.38 3.976a5.872 5.872 0 1 0 11.691-1.12l-.38-3.976z" fill="#fff"/><path d="M51.485 68.924a5.874 5.874 0 0 1 5.263 5.284l.33 3.448a2.052 2.052 0 0 1-3.833-.657c-.38-2.389-1.792-3.697-2.604-4.231a2.032 2.032 0 0 1-.179-.111l-.021-.012.003-.001a2.053 2.053 0 0 1 1.041-3.72z" fill="#A2A2A2"/><rect x="70.932" y="7.631" width="56.839" height="56.747" rx="13.685" fill="#fff"/><circle cx="77.839" cy="36.005" r="12.598" fill="#fff"/><circle cx="99.382" cy="14.801" r="12.598" transform="rotate(90 99.382 14.8)" fill="#fff"/><circle cx="120.926" cy="36.005" r="12.598" fill="#fff"/><circle cx="99.382" cy="57.888" r="12.598" transform="rotate(90 99.382 57.888)" fill="#fff"/><path fill-rule="evenodd" clip-rule="evenodd" d="M108.328 17.756l-2.142-1.044-1.317.888 2.142 1.044 1.317-.888z" fill="#BCBCBC"/><path fill-rule="evenodd" clip-rule="evenodd" d="M106.247 33.627l1.569.906a.679.679 0 0 1 .248.928l-.905 1.568a.68.68 0 0 1-.928.249l-1.569-.906a.68.68 0 0 1-.249-.928l.906-1.568a.68.68 0 0 1 .928-.249zM93.88 18.677l-1.192.688a.516.516 0 0 0-.188.705l.688 1.191a.516.516 0 0 0 .704.189l1.192-.688a.516.516 0 0 0 .189-.705l-.688-1.191a.516.516 0 0 0-.705-.189z" fill="#8E8D8D"/><path d="M92.817 20.053a2.15 2.15 0 1 1 0-4.3 2.15 2.15 0 0 1 0 4.3zM106.059 20.053a2.15 2.15 0 1 1 0-4.299 2.15 2.15 0 0 1 0 4.299zM99.352 20.053a2.15 2.15 0 1 1 0-4.3 2.15 2.15 0 0 1 0 4.3z" fill="#A2A2A2"/><path fill-rule="evenodd" clip-rule="evenodd" d="M84.837 43.141h28.782a2.225 2.225 0 0 1 0 4.451H84.837a2.225 2.225 0 1 1 0-4.45zM110.142 29.115h-21.86a1.69 1.69 0 1 0 0 3.38h21.86a1.69 1.69 0 0 0 0-3.38z" fill="#DFDFDF"/><path fill-rule="evenodd" clip-rule="evenodd" d="M84.687 34.9h29.053c.82 0 1.484.513 1.484 1.147v7.803c0 .634-.664 1.148-1.484 1.148H84.687c-.82 0-1.484-.514-1.484-1.148v-7.803c0-.634.664-1.147 1.484-1.147zM110.254 19.199H88.187c-.622 0-1.127.504-1.127 1.126v7.663c0 .622.505 1.127 1.127 1.127h22.067c.622 0 1.127-.505 1.127-1.127v-7.663c0-.622-.505-1.126-1.127-1.126z" fill="#D1D1D1"/><path fill-rule="evenodd" clip-rule="evenodd" d="M85.115 32.495h28.077a2.717 2.717 0 0 1 2.717 2.717v1.585c0 1.5-1.216 2.717-2.717 2.717H85.116a2.717 2.717 0 0 1-2.718-2.717v-1.585c0-1.5 1.217-2.717 2.718-2.717zM109.928 17.817H88.603c-1.14 0-2.063.924-2.063 2.064v1.204c0 1.14.924 2.063 2.063 2.063h21.325c1.14 0 2.064-.924 2.064-2.063V19.88c0-1.14-.924-2.064-2.064-2.064z" fill="#B1B1B1"/><path fill-rule="evenodd" clip-rule="evenodd" d="M83.757 33.59c.75 0 1.358.608 1.358 1.358v9.51a1.358 1.358 0 1 1-2.717 0v-9.51c0-.75.609-1.358 1.359-1.358zM110.96 18.648c-.57 0-1.032.462-1.032 1.032v7.223a1.032 1.032 0 0 0 2.064 0V19.68c0-.57-.462-1.032-1.032-1.032z" fill="#B1B1B1"/><path fill-rule="evenodd" clip-rule="evenodd" d="M86.136 32.495c1.063 0 1.924.862 1.924 1.925v5.66a1.925 1.925 0 0 1-3.85 0v-5.66c0-1.063.863-1.925 1.926-1.925zM109.155 17.817c-.807 0-1.461.655-1.461 1.462v4.3a1.461 1.461 0 1 0 2.923 0v-4.3c0-.807-.654-1.462-1.462-1.462zM98.37 33.4c.934 0 1.691.758 1.691 1.692v5.102c0 1-.811 1.811-1.811 1.811a1.761 1.761 0 0 1-1.762-1.761l.001-.05.143-5.103c.027-.941.797-1.69 1.738-1.69zM99.862 18.505c-.71 0-1.284.575-1.284 1.284v3.875c0 .76.615 1.376 1.375 1.376.739 0 1.338-.599 1.338-1.338l-.001-.037-.108-3.876a1.32 1.32 0 0 0-1.32-1.284zM111.269 33.174c.937 0 1.698.76 1.698 1.699v9.962a1.699 1.699 0 0 1-3.397 0v-9.962c0-.938.761-1.699 1.699-1.699zM90.066 18.333a1.29 1.29 0 0 0-1.29 1.29v7.567a1.29 1.29 0 0 0 2.58 0v-7.567a1.29 1.29 0 0 0-1.29-1.29z" fill="#B1B1B1"/><path fill-rule="evenodd" clip-rule="evenodd" d="M90.438 37.476a2.377 2.377 0 1 1 0 4.755 2.377 2.377 0 0 1 0-4.755zM105.888 21.6a1.805 1.805 0 1 0-.001 3.611 1.805 1.805 0 0 0 .001-3.61zM107.194 36.344a2.377 2.377 0 0 1 2.377 2.378v2.038a2.377 2.377 0 1 1-4.755 0v-2.038a2.378 2.378 0 0 1 2.378-2.378zM93.161 20.74c-.997 0-1.806.81-1.806 1.807v1.547a1.806 1.806 0 0 0 3.612 0v-1.547c0-.998-.809-1.806-1.806-1.806z" fill="#D1D1D1"/><path fill-rule="evenodd" clip-rule="evenodd" d="M95.192 33.854a2.377 2.377 0 0 1 2.377 2.377v6.793a2.377 2.377 0 1 1-4.755 0v-6.793a2.377 2.377 0 0 1 2.378-2.377zM102.276 21.429c-.997 0-1.805.808-1.805 1.805v5.16a1.805 1.805 0 1 0 3.611 0v-5.16c0-.997-.808-1.805-1.806-1.805z" fill="#B1B1B1"/><path d="M83.192 46.768a1.925 1.925 0 1 0 0-3.85 1.925 1.925 0 0 0 0 3.85zM111.813 29.115a1.885 1.885 0 1 1 0-3.77 1.885 1.885 0 0 1 0 3.77zM87.118 31.938a2.002 2.002 0 1 1 0-4.003 2.002 2.002 0 0 1 0 4.003z" fill="#B1B1B1"/><path fill-rule="evenodd" clip-rule="evenodd" d="M84.714 47.592h29.054c.819 0 1.483.507 1.483 1.132v2.751c0 .625-.664 1.132-1.483 1.132H84.714c-.82 0-1.483-.507-1.483-1.132v-2.751c0-.625.664-1.132 1.483-1.132z" fill="#D1D1D1"/><path fill-rule="evenodd" clip-rule="evenodd" d="M114.212 34.388c.938 0 1.698.76 1.698 1.699v10.868a1.698 1.698 0 1 1-3.396 0V36.087c0-.938.76-1.699 1.698-1.699zM87.83 20.397a1.29 1.29 0 0 0-1.29 1.29v8.254a1.29 1.29 0 0 0 2.58 0v-8.255a1.29 1.29 0 0 0-1.29-1.29zM102.438 35.439a2.377 2.377 0 0 1 2.377 2.377v8.604a2.377 2.377 0 1 1-4.754 0v-8.604a2.377 2.377 0 0 1 2.377-2.377zM96.772 20.053c-.997 0-1.805.808-1.805 1.806v4.265a1.806 1.806 0 0 0 3.611 0v-4.265c0-.998-.808-1.806-1.806-1.806z" fill="#B1B1B1"/><path d="M115.151 49.72a2.604 2.604 0 1 0 0-5.207 2.604 2.604 0 0 0 0 5.208z" fill="#B1B1B1"/><path fill-rule="evenodd" clip-rule="evenodd" d="M82.405 51.09h33.758a1.652 1.652 0 0 1 1.535 2.264l-.435 1.09a1.863 1.863 0 0 1-1.732 1.175H83.036c-.763 0-1.449-.465-1.732-1.174l-.434-1.09a1.652 1.652 0 0 1 1.535-2.265z" fill="#A2A2A2"/><path fill-rule="evenodd" clip-rule="evenodd" d="M79.365 50.794h39.394a1.177 1.177 0 0 1 0 2.354H79.365a1.177 1.177 0 1 1 0-2.355z" fill="#B1B1B1"/><circle cx="67.644" cy="69.696" r="3.624" fill="#fff"/><circle cx="76.834" cy="63.454" r="5.566" fill="#fff"/><path d="M48.523 107.786c-7.479 1.479-13.738-.367-17.525-5.919-1.963-2.878-1.25-6.81 1.593-8.78 2.67-1.851 6.27-1.315 8.324 1.142 1.074.748 2.39 1.32 3.905 1.355.385-.043.802-.107 1.25-.196l.102-.02c3.352-.605 6.589 1.616 7.26 5.005.676 3.424-1.521 6.742-4.91 7.413z" fill="#A2A2A2"/><path d="M47.5 107.968c-6.216.99-11.523-.402-15.166-4.406a8.9 8.9 0 0 1 3.914-2.347 8.947 8.947 0 0 1 11.253 6.753z" fill="#D1D1D1"/></svg>