<svg viewBox="0 0 135 124" fill="none" xmlns="http://www.w3.org/2000/svg"><path d="M11 28c0-9.389 7.611-17 17-17h79c9.389 0 17 7.611 17 17v79c0 9.389-7.611 17-17 17H28c-9.389 0-17-7.611-17-17V28z" fill="#E5E5E5"/><path d="M17.123 31.273c0-6.772 5.49-12.26 12.26-12.26h38.534c6.77 0 12.26 5.488 12.26 12.26V70.72c.005 1.003.095 3.024 1.808 3.773h7.387c.725 0 1.314.588 1.314 1.314 0 7.335-5.947 13.282-13.283 13.282H19.458c-7.336 0-13.282-5.947-13.282-13.282 0-.726.588-1.314 1.313-1.314h7.825c1.797-.786 1.808-2.974 1.808-3.915V31.273z" fill="#BFBFBF"/><path d="M24.263 44.958a5.912 5.912 0 1 0-2.908 7.99v35.979h53.567v-43.01a6.06 6.06 0 0 1-4.964-5.96v-8.611c0-.573.08-1.128.228-1.654a11.479 11.479 0 0 0-6.795-2.214H32.886c-2.333 0-4.503.692-6.318 1.883.216.622.333 1.29.333 1.985v8.612a6.05 6.05 0 0 1-2.638 5z" fill="#D1D1D1"/><path d="M33.875 41.881a6.882 6.882 0 1 1 13.764 0v4.187a6.883 6.883 0 0 1-4.065 6.28c-1.967-1.864-4.196-2.965-6.045-3.613a19.241 19.241 0 0 0-3.413-.855 6.89 6.89 0 0 1-.24-1.813v-4.186zM63.842 41.881a6.882 6.882 0 0 0-13.764 0v4.187a6.883 6.883 0 0 0 4 6.251c1.96-1.847 4.175-2.94 6.015-3.584a19.243 19.243 0 0 1 3.511-.87 6.892 6.892 0 0 0 .238-1.797V41.88z" fill="#fff"/><path d="M39.933 42.005a2.262 2.262 0 0 0 2.18-2.87 3.09 3.09 0 0 1 3.635 3.042v3.88a3.09 3.09 0 0 1-6.18 0v-3.88c0-.068.003-.134.007-.2.117.019.236.028.358.028zM51.994 41.847a2.262 2.262 0 0 0 2.999-2.76h.074a3.09 3.09 0 0 1 3.09 3.09v3.88a3.09 3.09 0 1 1-6.18 0v-3.88c0-.112.006-.222.017-.33z" fill="#959595"/><path fill-rule="evenodd" clip-rule="evenodd" d="M43.362 67.946c-6.026-.527-10.39-3.294-12.052-8.313a4.963 4.963 0 0 1 9.064-3.945c.746 1.024 1.83 1.98 3.347 2.317.162.02.33.038.506.053l.082.008a4.963 4.963 0 0 1-.947 9.88z" fill="#959595"/><path d="M38.965 67.063c1.337.45 2.81.744 4.397.883a4.963 4.963 0 0 0 5.395-5.053 9.002 9.002 0 0 0-2.063-.239 8.972 8.972 0 0 0-7.73 4.409z" fill="#BFBFBF"/><path d="M44.388 58.075a6.508 6.508 0 0 0-.079-.009l-.082-.008a13.009 13.009 0 0 1-.506-.053c-1.517-.337-2.601-1.293-3.347-2.317a4.964 4.964 0 0 0-9.136 1.06 2.628 2.628 0 0 0 2.541 1.956h2.043a2.628 2.628 0 0 0 2.408-1.573 2.628 2.628 0 0 0 2.407 1.574h2.044c.651 0 1.248-.237 1.707-.63z" fill="#fff"/><path d="M37.444 24.85H17.269c-1.048 0-1.897.85-1.897 1.898v3.94c0 1.048.85 1.898 1.897 1.898H80.02c1.048 0 1.898-.85 1.898-1.898v-3.94c0-1.048-.85-1.898-1.898-1.898H59.854a13.128 13.128 0 0 1-11.205 6.277c-4.74 0-8.895-2.512-11.205-6.277zM18.874 83.818c0-.887.72-1.606 1.606-1.606h55.61c.887 0 1.606.72 1.606 1.606v5.546c0 .887-.72 1.606-1.606 1.606H20.48a1.605 1.605 0 0 1-1.606-1.606v-5.546z" fill="#959595"/><path fill-rule="evenodd" clip-rule="evenodd" d="M45.953 82.814a1.168 1.168 0 0 1 1.135-.894h3.562c.539 0 1.008.37 1.135.894l2.356 9.78a1.168 1.168 0 0 1-1.135 1.44h-8.274a1.168 1.168 0 0 1-1.135-1.44l2.356-9.78z" fill="#fff"/><path d="M36.788 23.644a11.232 11.232 0 0 1-2.56-2.117c-3.246-3.615-3.784-8.86-1.423-12.962.492-.853 1.405-.976 2.064-.243l2.576 2.807a13.128 13.128 0 0 1 11.204-6.275c7.255 0 13.136 5.882 13.136 13.137 0 7.255-5.881 13.136-13.136 13.136-5.23 0-9.748-3.058-11.86-7.483z" fill="#BFBFBF"/><path fill-rule="evenodd" clip-rule="evenodd" d="M48.812 56.799a3.064 3.064 0 0 0 3.065-3.064c0-1.692-3.065-5.694-3.065-5.694s-3.066 4.002-3.066 5.694a3.064 3.064 0 0 0 3.066 3.064z" fill="#959595"/><path d="M107.191 89.723c-8.952-.94-15.468-8.898-14.659-17.833l-1.173-.705c-.194.176-.392.347-.594.514.031.786.006 1.584-.078 2.39-.95 9.032-9.041 15.584-18.073 14.635a16.367 16.367 0 0 1-8.626-3.569 7.316 7.316 0 0 1-1.873-.383v-1.396a16.403 16.403 0 0 1-4.136-12.725 16.391 16.391 0 0 1 5.9-10.975 16.57 16.57 0 0 1 .079-2.39c.949-9.032 9.04-15.584 18.072-14.635 6.186.65 11.208 4.65 13.455 10.007a6.957 6.957 0 0 0 8.467 4.954l.074.05a16.39 16.39 0 0 1 6.603-.647c9.032.95 15.584 9.04 14.635 18.073a16.365 16.365 0 0 1-3.093 8.009v.979a7.242 7.242 0 0 1-.976.226c-3.402 3.817-8.53 5.996-14.004 5.421z" fill="#959595"/><path d="M62.115 91.934c0-.887.038-1.765.113-2.632a5.005 5.005 0 1 1-.114-9.957v5.426a7.345 7.345 0 0 0 9.75-6.942v-7.28c0-.246-.012-.489-.036-.729a29.92 29.92 0 0 1 20.315-7.915c8.003 0 15.275 3.13 20.657 8.234-.078.429-.118.87-.118 1.32v5.59a7.344 7.344 0 0 0 9.489 7.027v-4.741a5.005 5.005 0 1 1-.112 9.98c.074.863.112 1.736.112 2.619v12.493a9.345 9.345 0 0 1-9.346 9.345H71.46a9.345 9.345 0 0 1-9.345-9.345V91.934z" fill="#BFBFBF"/><path d="M78.623 81.364v-.315H90.88v.315c0 .738-.13 1.445-.37 2.1a3.774 3.774 0 0 0-2.093 2.812 6.13 6.13 0 0 1-9.795-4.913zM95.877 86.352a6.13 6.13 0 0 0 9.69-4.989v-.314H93.311v.314c0 .72.124 1.409.35 2.05a3.774 3.774 0 0 1 2.218 2.94z" fill="#fff"/><path d="M83.692 81.05v.304a2.752 2.752 0 1 0 5.503 0v-.305h-5.503zM95.387 81.05v.304a2.752 2.752 0 0 0 5.503 0v-.305h-5.503zM95.772 63.419a3.12 3.12 0 0 0-1.51 6.054l9.461 2.359a3.12 3.12 0 1 0 1.509-6.055l-9.46-2.358zM79.626 70.116a3.12 3.12 0 0 0 .976 6.163l9.63-1.525a3.12 3.12 0 1 0-.977-6.163l-9.63 1.525zM88.377 87.051a8.02 8.02 0 0 0-4.242 1.078l-6.08 3.51a8.06 8.06 0 0 0 8.06 13.96l.388-.224c.093-.068.192-.134.297-.2 4.326-2.698 7.634-1.689 10.622 0 .126.072.238.149.337.232l.332.192a8.06 8.06 0 0 0 8.06-13.96l-6.079-3.51a8.024 8.024 0 0 0-4.165-1.08 3.77 3.77 0 0 1-7.53.002z" fill="#959595"/></svg>