<svg viewBox="0 0 135 124" fill="none" xmlns="http://www.w3.org/2000/svg"><path d="M11 28c0-9.389 7.611-17 17-17h79c9.389 0 17 7.611 17 17v79c0 9.389-7.611 17-17 17H28c-9.389 0-17-7.611-17-17V28z" fill="#1CB0F6"/><path d="M80.263 109.324a6.34 6.34 0 1 0-1.914-12.533 6.34 6.34 0 0 0 1.914 12.533zm44.758-6.832a6.338 6.338 0 1 0-1.914-12.532 6.338 6.338 0 0 0 1.914 12.532z" fill="#186CBA"/><path d="M79.626 105.146a2.113 2.113 0 1 0-.638-4.177 2.113 2.113 0 0 0 .638 4.177zm44.757-6.831a2.113 2.113 0 1 0-.637-4.177 2.113 2.113 0 0 0 .637 4.177z" fill="#2F90EA"/><path fill-rule="evenodd" clip-rule="evenodd" d="M52.04 73.531a2.708 2.708 0 0 1 .192 3.825c-2.654 2.934-4.152 5.556-5.041 9.002-.922 3.575-1.22 8.141-1.22 15.061a2.708 2.708 0 0 1-5.415 0c0-6.951.283-12.12 1.391-16.414 1.141-4.423 3.124-7.805 6.27-11.282a2.708 2.708 0 0 1 3.824-.192z" fill="#CD7900"/><path fill-rule="evenodd" clip-rule="evenodd" d="M24.084 114.275c2.186-9.325 10.55-16.269 20.534-16.269 9.984 0 18.348 6.944 20.534 16.269H24.084z" fill="#FFCE8E"/><path d="M68.222 111.177H22.175a2.905 2.905 0 1 0 0 5.81h46.047a2.905 2.905 0 0 0 0-5.81z" fill="#6ADBFF"/><path d="M37.578 67.974l-7.008-4.912a1.426 1.426 0 0 1-.35-1.986c3.176-4.54 10.555-4.575 15.762-.926a14.537 14.537 0 0 1 4.735 5.567 14.575 14.575 0 0 1 6.713-2.478c6.34-.667 12.768 2.974 13.35 8.51a1.376 1.376 0 0 1-1.223 1.51l-6.77.712c4.15 3.772 5.9 9.714 3.13 13.825a1.373 1.373 0 0 1-1.906.37L48.52 77.708l-21.63 3.043a1.424 1.424 0 0 1-1.61-1.213c-.771-5.488 4.602-10.552 10.896-11.437.466-.066.934-.108 1.4-.127z" fill="#78C800"/><path d="M46.482 80.045a4.26 4.26 0 0 1-6.315-3.731 4.26 4.26 0 0 1 4.258-4.26c2 0 3.677 1.38 4.134 3.24a4.259 4.259 0 0 1 6.315 3.731 4.259 4.259 0 0 1-4.257 4.262c-2 0-3.678-1.38-4.135-3.242z" fill="#A56644"/><path d="M14.421 47.412a7.716 7.716 0 0 0 4.701-1.588 13.088 13.088 0 0 0 8.982 3.551c3.585 0 6.834-1.436 9.204-3.765a7.75 7.75 0 0 0 11.669-6.274 13.123 13.123 0 0 0 5.896-10.961c0-4.687-2.454-8.8-6.149-11.125a7.75 7.75 0 0 0-11.25-8.785 13.104 13.104 0 0 0-9.918-4.523 13.114 13.114 0 0 0-10.2 4.857 7.75 7.75 0 0 0-10.505 8.84 13.118 13.118 0 0 0-5.564 10.736c0 4.368 2.132 8.238 5.413 10.626a7.75 7.75 0 0 0 7.721 8.411zm41.005-30.77a4.81 4.81 0 1 0 0-9.619 4.81 4.81 0 0 0 0 9.62z" fill="#A5E9FF"/><path d="M60.35 22.804C61.577 12.112 71.24 4.44 81.93 5.665l11.21 1.286c10.692 1.227 18.365 10.889 17.139 21.58l-.051.44c-1.226 10.692-10.888 18.366-21.58 17.14L77.44 44.824c-10.692-1.226-18.366-10.888-17.14-21.58l.051-.44z" fill="#3D3D3D"/><path d="M57.93 47.617a5.833 5.833 0 0 0 1.992-.113c.315 9.056 7.213 16.764 16.489 17.828l28.909 3.316c9.306 1.068 17.796-4.92 20.121-13.717a5.843 5.843 0 1 0 .924-10.662c-.978-8.394-7.617-15.322-16.375-16.327l-28.91-3.316c-8.723-1-16.728 4.198-19.612 12.098a5.842 5.842 0 1 0-3.538 10.893z" fill="#FFCBA3"/><path d="M125.69 41.033l-9.744-1.118a6.929 6.929 0 0 1-6.094-7.673l.488-4.256c7.436.993 13.29 6.27 15.35 13.047z" fill="#D6C6BA"/><path d="M61.308 48.43a2.815 2.815 0 1 1-5.594-.643 2.815 2.815 0 0 1 5.594.642z" fill="#C86902"/><path d="M95.49 38.463a6.496 6.496 0 0 1 7.193-5.713l.24.028a6.495 6.495 0 0 1 5.713 7.194l-.765 6.673a6.496 6.496 0 0 1-7.194 5.713l-.24-.028a6.496 6.496 0 0 1-5.713-7.194l.766-6.673z" fill="#E99B5F"/><path d="M95.217 40.841a6.495 6.495 0 0 1 7.193-5.713l.241.028a6.496 6.496 0 0 1 5.713 7.193l-.493 4.296a6.496 6.496 0 0 1-7.194 5.713l-.24-.028a6.496 6.496 0 0 1-5.713-7.193l.493-4.296z" fill="#fff"/><path d="M93.066 38.185a6.496 6.496 0 0 0-5.713-7.193l-.24-.028a6.496 6.496 0 0 0-7.194 5.713l-.766 6.673a6.496 6.496 0 0 0 5.713 7.194l.24.028a6.496 6.496 0 0 0 7.194-5.714l.766-6.673z" fill="#E99B5F"/><path d="M79.646 39.055a6.496 6.496 0 0 1 7.193-5.713l.24.028a6.496 6.496 0 0 1 5.714 7.193l-.493 4.295a6.496 6.496 0 0 1-7.194 5.714l-.24-.028a6.496 6.496 0 0 1-5.713-7.194l.493-4.295z" fill="#fff"/><path d="M60.155 24.505c.927-8.078 8.227-13.876 16.305-12.95l1.094.126c8.078.927 13.876 8.227 12.95 16.306l-.126 1.093c-.927 8.078-8.227 13.876-16.306 12.95l-1.093-.126c-8.079-.927-13.876-8.227-12.95-16.306l.126-1.093z" fill="#3D3D3D"/><path d="M85.468 41.095a2.323 2.323 0 0 0 2.531-2.816 2.98 2.98 0 0 1 2.462 3.277l-.332 2.898a2.98 2.98 0 1 1-5.921-.68l.332-2.897.011-.089c.273.161.582.269.917.307zm11.782 1.352a2.323 2.323 0 0 0 2.54-2.72 2.98 2.98 0 0 1 3.394 3.289l-.332 2.897a2.98 2.98 0 0 1-5.922-.679l.32-2.787z" fill="#3D3D3D"/><path d="M114.973 57.87c-.383 3.334-5.748 5.458-11.984 4.743-6.236-.716-10.98-4-10.598-7.334.383-3.335 5.748-5.459 11.984-4.744 6.235.716 10.98 4 10.598 7.334z" fill="#FFCBA3"/><path d="M93.315 47.154c.131.015 1.077 1.984 2.034 4.046.952 2.051-.719 4.336-2.966 4.078-2.247-.258-3.357-2.861-1.965-4.644 1.399-1.791 2.766-3.495 2.897-3.48z" fill="#E99B5F"/><path fill-rule="evenodd" clip-rule="evenodd" d="M102.7 60.778a3.051 3.051 0 0 0-4.708-3.881c-1.272 1.542-2.61 1.926-3.79 1.917-1.327-.01-2.57-.536-3.219-.97a3.05 3.05 0 0 0-3.392 5.071c1.453.972 3.84 1.98 6.567 2 2.872.021 6.012-1.069 8.542-4.137z" fill="#A41414"/><path d="M102.71 60.765l-.011.013c-2.529 3.069-5.67 4.158-8.542 4.137a12.195 12.195 0 0 1-4.05-.743c3.07-3.474 8.009-4.928 12.603-3.407zM30.782 37.432H27.73V12.354c0-.748.606-1.354 1.354-1.354h.344c.747 0 1.354.606 1.354 1.354v25.078z" fill="#E64340"/><path d="M40.576 37.138l.206-.756a.917.917 0 0 0-.773-1.151l-24.964-3.04a.917.917 0 0 0-.97 1.228l1.482 4.016a3.57 3.57 0 0 0 3.35 2.333h18.225a3.57 3.57 0 0 0 3.444-2.63z" fill="#E64340"/><path d="M33.354 32.672l5.165.684a.917.917 0 0 0 .96-1.275L34.218 20.01c-.399-.916-1.766-.624-1.757.374l.097 11.386a.917.917 0 0 0 .797.902zm-7.131-3.082c-2.88-5.12-1.563-11.256.123-15.175.343-.798-.59-1.689-1.385-1.264-11.794 6.301-11.858 13.344-10.136 16.577.13.244.392.395.68.422l9.762.904c.794.073 1.33-.8.956-1.464z" fill="#fff"/><path fill-rule="evenodd" clip-rule="evenodd" d="M97.36 71.296a1.096 1.096 0 0 1 1.23.826l2.409 9.988c4.228.166 8.045 2.62 10.102 6.34l19.73-5.157a1.195 1.195 0 0 1 1.484.976 1.86 1.86 0 0 1-.974 1.929l-5.153 2.708a7.62 7.62 0 1 1-9.357 4.92l-4.21 2.212c-.591 5.415-4.623 9.943-10.104 10.779-5.499.84-10.714-2.302-12.88-7.322l-4.057-.767a7.62 7.62 0 0 1-5.123 11.862 7.62 7.62 0 0 1-5.41-13.853l-5.678-1.073a1.873 1.873 0 0 1-1.504-1.558 1.193 1.193 0 0 1 1.125-1.372l19.857-.9c.894-4.334 4.016-7.927 8.258-9.22L96.43 72.45a1.096 1.096 0 0 1 .928-1.155zM74.307 103.82a5.057 5.057 0 1 1 9.999-1.526 5.057 5.057 0 0 1-10 1.526zM123.3 91.227a5.057 5.057 0 1 0 1.527 9.999 5.057 5.057 0 0 0-1.527-9.999z" fill="#E4E4E4"/><path d="M101.822 100.537a3.622 3.622 0 1 0-1.092-7.16 3.622 3.622 0 0 0 1.092 7.16z" fill="#BFBFBF"/><path fill-rule="evenodd" clip-rule="evenodd" d="M96.398 87.93l6.84-1.044a1.602 1.602 0 0 1 1.461.545l.573.672a.988.988 0 0 1-.603 1.618l-8.79 1.342a.989.989 0 0 1-1.059-1.365l.347-.812c.217-.51.683-.872 1.231-.956z" fill="#1CB0F6"/></svg>