<svg viewBox="0 0 135 125" fill="none" xmlns="http://www.w3.org/2000/svg"><rect x="124.135" y="124.027" width="113" height="113" rx="17" transform="rotate(-180 124.135 124.027)" fill="#1CB0F6"/><path d="M9.335 29.956C11.93 14.026 25.69 2.326 41.83 2.326c16.14 0 29.899 11.7 32.494 27.63l8.48 52.054a2.234 2.234 0 0 1-2.205 2.593H3.06A2.234 2.234 0 0 1 .856 82.01l8.48-52.055z" fill="#A570FF"/><path d="M31.983 15.398h-.247c-9.095 0-16.739 6.83-17.758 15.868L10.34 63.54c-.486 4.305 2.882 8.073 7.214 8.073h49.852c4.332 0 7.7-3.768 7.214-8.073l-1.135-19.971a6.55 6.55 0 0 0-.138-13.098H51.014c-9.256 0-17.009-6.433-19.031-15.072z" fill="#FFC6B7"/><path d="M33.637 72.73c0-.617.5-1.117 1.117-1.117h14.154c.617 0 1.117.5 1.117 1.117v10.757c0 .617-.5 1.117-1.117 1.117H34.754c-.617 0-1.117-.5-1.117-1.117V72.73z" fill="#593F86"/><path d="M41.635 41.79c0-4.934-4-8.934-8.935-8.934h-7.24c-.618 0-1.118.5-1.118 1.116v8.833c0 4.934 4 8.935 8.936 8.935h4.14a4.216 4.216 0 0 0 4.217-4.217v-5.732z" fill="#fff"/><path d="M61.124 40.223H43.97a8.938 8.938 0 0 1 8.798-7.367h7.24c.617 0 1.117.5 1.117 1.116v6.25z" fill="#A570FF"/><path d="M43.834 41.79c0-4.934 4-8.934 8.935-8.934h7.24c.617 0 1.117.5 1.117 1.116v8.833c0 4.934-4 8.935-8.935 8.935h-4.14a4.216 4.216 0 0 1-4.217-4.217v-5.732z" fill="#fff"/><path d="M46.865 43.784v1.6a3.882 3.882 0 1 0 7.764 0v-1.6h-7.764zM30.695 43.784v1.6a3.882 3.882 0 1 0 7.764 0v-1.6h-7.764z" fill="#3D3D3D"/><path d="M60.733 45.434L43.834 47.27V41.79c0-4.935 4-8.935 8.935-8.935h7.24c.617 0 1.117.5 1.117 1.116v8.833a8.93 8.93 0 0 1-.393 2.63zM41.636 47.307v-5.516c0-4.935-4-8.935-8.935-8.935h-7.24c-.617 0-1.117.5-1.117 1.116v8.833c0 .93.142 1.826.405 2.67l16.887 1.832z" fill="#A570FF"/><path d="M31.92 78.542V12.784h-3.361a17.312 17.312 0 0 0-17.11 14.671L3.563 78.542H31.92z" fill="#A570FF"/><path d="M42.559 47.355c.16 0 1.57 2.238 3.005 4.586 1.429 2.337-.266 5.316-3.005 5.316-2.74 0-4.434-2.979-3.005-5.316 1.435-2.348 2.845-4.586 3.005-4.586z" fill="#EE9583"/><path fill-rule="evenodd" clip-rule="evenodd" d="M49.53 65.941c-5.943-2.792-11.795-1.148-13.893-.026a1.126 1.126 0 0 1-1.061-1.985c2.549-1.363 9.164-3.196 15.911-.026a1.125 1.125 0 1 1-.956 2.037z" fill="#EE9583"/><path d="M108.107 69.641h5.393v37.279h4.828c.563 0 1.019.456 1.019 1.02v3.058c0 .564-.456 1.02-1.019 1.02h-14.955a1.019 1.019 0 0 1-1.019-1.02v-3.058c0-.564.456-1.02 1.019-1.02h4.734V69.641z" fill="#D1D1D1"/><path d="M100.168 45.86a7.342 7.342 0 0 1 6.842 7.809l-2.045 30.966a3.338 3.338 0 0 1-3.2 3.115l-.188 2.836a2.001 2.001 0 0 1-2.13 1.866l-4.66-.308a2.002 2.002 0 0 1-1.867-2.13l.187-2.833a3.337 3.337 0 0 1-2.793-3.513L92.359 52.7a7.341 7.341 0 0 1 7.809-6.841zM126.047 87.472a3.337 3.337 0 0 0 2.956-3.347l-.296-31.032a7.342 7.342 0 0 0-14.682.14l.296 31.033a3.338 3.338 0 0 0 3.051 3.292l.027 2.84a2.001 2.001 0 0 0 2.021 1.982l4.672-.044a2.002 2.002 0 0 0 1.982-2.022l-.027-2.841z" fill="#D21E1E"/><path fill-rule="evenodd" clip-rule="evenodd" d="M95.101 49.587l26.805-3.397a2.383 2.383 0 0 1 2.664 2.066l3.945 31.133a2.384 2.384 0 0 1-2.065 2.665L99.646 85.45a2.384 2.384 0 0 1-2.665-2.065l-3.945-31.134a2.384 2.384 0 0 1 2.065-2.664z" fill="#fff"/><path fill-rule="evenodd" clip-rule="evenodd" d="M99.176 45.034l4.03-.51 5.36 42.3a1.853 1.853 0 0 1-1.606 2.072l-7.172.909a2.384 2.384 0 0 1-2.665-2.066v-.004l-4.309-34.509a7.341 7.341 0 0 1 6.362-8.192zM116.729 42.81l-4.017.509 5.36 42.3a1.854 1.854 0 0 0 2.072 1.607l7.096-.9a2.384 2.384 0 0 0 2.065-2.664l-4.37-34.492a7.342 7.342 0 0 0-8.206-6.36z" fill="#FF4B4B"/><path d="M115.354 40.556l.938.253a3.426 3.426 0 0 1 2.479 2.686c.049.171.069.353.056.538.009.391-.049.781-.17 1.152l-3.106 20.419-1.518-11.982c.085-.467.1-.956.037-1.452l-.665-5.253a4.768 4.768 0 0 0-5.33-4.13l-.432.054a4.768 4.768 0 0 0-4.131 5.33l.665 5.253c.057.446.173.87.341 1.264l1.545 12.197-8.305-19.66a1.589 1.589 0 0 1-.12-.476 3.382 3.382 0 0 1 1.661-3.718l1.22-.673a19.957 19.957 0 0 1 14.835-1.801z" fill="#D21E1E"/><path d="M108.075 42.786l-.433.055a4.768 4.768 0 0 0-4.131 5.33l.666 5.253a4.768 4.768 0 0 0 5.33 4.13l.432-.055a4.768 4.768 0 0 0 4.131-5.329l-.665-5.253a4.769 4.769 0 0 0-5.33-4.13z" fill="#4B4B4B"/><path d="M89.775 61.488c6.127 1.188 10.754 6.582 10.754 13.056V77.5c0 6.474-4.627 11.868-10.754 13.056v16.364h4.83c.564 0 1.02.456 1.02 1.02v3.058a1.02 1.02 0 0 1-1.02 1.02H79.652a1.02 1.02 0 0 1-1.02-1.02v-3.058c0-.564.457-1.02 1.02-1.02h5.026V90.555C78.553 89.365 73.93 83.972 73.93 77.5v-2.956c0-6.472 4.623-11.864 10.747-13.054v-.245H89.775v.243z" fill="#D1D1D1"/><path d="M79.482 56.506l-3.217 1.816a1.478 1.478 0 0 0 1.454 2.574l3.216-1.817a1.478 1.478 0 0 0-1.453-2.573z" fill="#1CB0F6"/><path d="M82.985 56.841l-8.3 4.688c-4.459 2.518-6.022 8.193-3.49 12.675l3.09 5.473a.647.647 0 0 0 .883.248L98.49 66.753c.31-.176.42-.571.243-.883l-3.092-5.474c-2.53-4.481-8.197-6.073-12.656-3.555z" fill="#2B70C9"/><path fill-rule="evenodd" clip-rule="evenodd" d="M68.578 78.962l21.308-12.034a4.078 4.078 0 0 1 5.557 1.546l-24.859 14.04a2.04 2.04 0 1 1-2.006-3.552z" fill="#1CB0F6"/><path d="M81.543 64.565l-5.327 3.009a1.02 1.02 0 0 0-.386 1.389l1.002 1.776c.277.49.9.663 1.39.386l5.327-3.009a1.02 1.02 0 0 0 .386-1.389l-1.003-1.775a1.02 1.02 0 0 0-1.39-.387z" fill="#DDF4FF"/></svg>