<svg viewBox="0 0 136 124" fill="none" xmlns="http://www.w3.org/2000/svg"><rect x="12.164" y="11" width="113" height="113" rx="17" fill="#E5E5E5"/><rect x="67.246" y="3.315" width="46.842" height="59.723" rx="23.394" transform="rotate(85.395 67.246 3.315)" fill="#959595"/><rect x="12.107" y="30.33" width="79.586" height="48.692" rx="23.674" transform="rotate(-4.605 12.107 30.33)" fill="#BFBFBF"/><circle cx="94.939" cy="47.071" r="6.943" transform="rotate(-4.605 94.939 47.071)" fill="#BFBFBF"/><circle cx="11.896" cy="53.76" r="6.943" transform="rotate(-4.605 11.896 53.76)" fill="#BFBFBF"/><circle cx="13.244" cy="61.119" r="3.346" transform="rotate(-4.605 13.244 61.12)" fill="#959595"/><path fill-rule="evenodd" clip-rule="evenodd" d="M54.737 59.456a3.34 3.34 0 0 0 3.068-3.594c-.148-1.836-3.833-5.91-3.833-5.91s-2.985 4.611-2.837 6.448a3.34 3.34 0 0 0 3.602 3.056z" fill="#959595"/><circle cx="42.168" cy="63.273" r="10.06" transform="rotate(-4.605 42.168 63.273)" fill="#ADADAD"/><circle cx="70.404" cy="58.91" r="10.06" transform="rotate(-4.605 70.404 58.91)" fill="#ADADAD"/><path d="M50.928 64.722a2.026 2.026 0 0 1 1.165-2.618l15.17-5.83a2.026 2.026 0 0 1 2.618 1.163 6.079 6.079 0 0 1-3.493 7.856l-7.605 2.922a6.079 6.079 0 0 1-7.855-3.493z" fill="#fff"/><path fill-rule="evenodd" clip-rule="evenodd" d="M114.582 55.68l13.326 22.995-8.904 33.231a3.625 3.625 0 0 1-4.439 2.563l-37.516-10.052a3.625 3.625 0 0 1-2.563-4.44l12.822-47.853a3.625 3.625 0 0 1 4.44-2.563l22.834 6.118z" fill="#fff"/><path fill-rule="evenodd" clip-rule="evenodd" d="M127.683 78.285l-16.573-4.444a1.45 1.45 0 0 1-1.025-1.776l.004-.013 4.538-16.296 13.056 22.53z" fill="#ADADAD"/><path fill="#ADADAD" d="M91.129 57.033l12.52 3.355-1.997 7.456-12.52-3.355zM87.488 70.973l27.291 7.313-1.847 6.893-27.291-7.312zM81.99 91.099l27.291 7.313-1.847 6.893-27.291-7.312zM84.627 81.202l32.75 8.775-1.847 6.894-32.75-8.775z"/><path d="M90.155 37.442l-11.559.931a8.507 8.507 0 0 1-9.162-7.796l-.387-4.803c8.866-.267 16.844 4.424 21.108 11.668z" fill="#A6A6A6"/><path d="M43.22 33.194a7.863 7.863 0 0 0-7.206 8.47l.286 3.553c3.997-.268 11.079-.79 15.686-1.136l-.297-3.68a7.863 7.863 0 0 0-8.468-7.207z" fill="#959595"/><path d="M43.449 36.029a7.863 7.863 0 0 0-7.206 8.469l.39 4.836c.02.261.054.518.1.771 1.317-.03 3.099.018 5.11.312 2.634.385 5.843 1.223 8.918 3.003a7.833 7.833 0 0 0 1.546-5.349l-.39-4.836a7.863 7.863 0 0 0-8.468-7.206z" fill="#fff"/><path d="M47.588 51.904a3.542 3.542 0 0 0 2.605-3.703l-.357-4.434a3.541 3.541 0 0 0-4.174-3.198 2.76 2.76 0 0 1-2.867 4l.338 4.2c.064.789.38 1.495.864 2.048 1.15.26 2.362.612 3.591 1.087zM54.943 37.073c.058.059.114.102.166.125.562.25 3.062 1.25 4.062 1.5.588.147 6.182.123 11.066.067.005.047.01.094.013.141l.264 3.283-15.61 2.067-.33-4.087a7.837 7.837 0 0 1 .37-3.096z" fill="#959595"/><path d="M56.417 37.568a7.835 7.835 0 0 0-1.614 5.436l.39 4.836a7.83 7.83 0 0 0 2.219 4.87c2.685-2.133 5.617-3.42 8.082-4.198a30.814 30.814 0 0 1 5.399-1.179 7.932 7.932 0 0 0-.025-.756l-.39-4.836a7.839 7.839 0 0 0-.866-3.01c-6.178 1.182-10.574.153-13.195-1.163z" fill="#fff"/><path d="M64.524 48.837a26.36 26.36 0 0 0-4.143 1.88 3.543 3.543 0 0 1-2.58-3.129l-.332-4.133a2.844 2.844 0 0 0 2.244-3.895 3.541 3.541 0 0 1 4.791 3.026l.358 4.434a3.525 3.525 0 0 1-.338 1.817z" fill="#959595"/><path fill-rule="evenodd" clip-rule="evenodd" d="M53.788 32.333a1.75 1.75 0 0 1 1.699 1.8c-.004.12.104 1.115 2.174 1.986 2.082.876 5.903 1.471 12.488.664a1.75 1.75 0 0 1 .426 3.474c-6.865.842-11.387.302-14.271-.912-2.896-1.218-4.375-3.267-4.316-5.313a1.75 1.75 0 0 1 1.8-1.7z" fill="#959595"/><rect x="43.018" y="12.987" width="36.302" height="34.797" rx="17.398" transform="rotate(85.395 43.018 12.987)" fill="#959595"/></svg>