<svg viewBox="0 0 135 124" fill="none" xmlns="http://www.w3.org/2000/svg"><path fill-rule="evenodd" clip-rule="evenodd" d="M27.521 11h79c9.389 0 17 7.611 17 17v79c0 9.389-7.611 17-17 17h-79c-9.389 0-17-7.611-17-17V28c0-9.389 7.611-17 17-17z" fill="#CE82FF"/><path fill-rule="evenodd" clip-rule="evenodd" d="M84.118 16.98l18.667 40.177A2 2 0 0 1 100.971 60h-38.37a2 2 0 0 1-1.827-2.814l17.883-40.162a3 3 0 0 1 5.461-.043z" fill="#6F4EA1"/><path fill-rule="evenodd" clip-rule="evenodd" d="M102.521 65h10a3 3 0 0 1 3 3v42h-16V68a3 3 0 0 1 3-3z" fill="#114587"/><path fill-rule="evenodd" clip-rule="evenodd" d="M81.33 35.436L101.299 81.2a2 2 0 0 1-1.833 2.8h-40.94a2 2 0 0 1-1.846-2.772l19.132-45.75a3 3 0 0 1 5.518-.042z" fill="#6F4EA1"/><path fill-rule="evenodd" clip-rule="evenodd" d="M83.02 4.514l14.5 33.288A3 3 0 0 1 94.77 42H68.024a3 3 0 0 1-2.769-4.156l13.9-33.3a2.1 2.1 0 0 1 3.864-.03z" fill="#6F4EA1"/><path d="M61.117 21.94l-3.535-3.536a1.5 1.5 0 0 0-2.121 0l-3.536 3.535a1.5 1.5 0 0 0 0 2.122l3.536 3.535a1.5 1.5 0 0 0 2.12 0l3.536-3.535a1.5 1.5 0 0 0 0-2.122z" fill="#EDD0FF"/><path d="M48.885 36.793l-2.121-2.121a1 1 0 0 0-1.414 0l-2.122 2.12a1 1 0 0 0 0 1.415l2.122 2.121a1 1 0 0 0 1.414 0l2.121-2.12a1 1 0 0 0 0-1.415z" fill="#F3F3F3"/><path fill-rule="evenodd" clip-rule="evenodd" d="M106.629 124l-79.216-.001-.215-.002c-8.22-.153-15.014-6.142-16.413-13.997h112.472c-1.41 7.924-8.311 13.948-16.628 14z" fill="#1F5CAB"/><path fill-rule="evenodd" clip-rule="evenodd" d="M20.672 73h7.87a3 3 0 0 1 3 3v34h-13.87V76a3 3 0 0 1 3-3z" fill="#114587"/><path fill-rule="evenodd" clip-rule="evenodd" d="M28.137 54.234l19.94 38.383A3 3 0 0 1 45.416 97H6.366a3 3 0 0 1-2.685-4.337L22.79 54.28a3 3 0 0 1 5.348-.046z" fill="#114587"/><path fill-rule="evenodd" clip-rule="evenodd" d="M28.133 40.918l17.845 32.643A3 3 0 0 1 43.346 78H8.4a3 3 0 0 1-2.658-4.392l17.102-32.643a3 3 0 0 1 5.29-.047z" fill="#114587"/><path fill-rule="evenodd" clip-rule="evenodd" d="M26.756 25.395l13.28 29.79A2 2 0 0 1 38.207 58H12.021a2 2 0 0 1-1.839-2.786l12.725-29.789a2.1 2.1 0 0 1 3.85-.03zM108.205 15.508L121.853 46.8a3 3 0 0 1-2.75 4.199H94.027a3 3 0 0 1-2.768-4.157l13.084-31.305a2.1 2.1 0 0 1 3.862-.03z" fill="#114587"/><path fill-rule="evenodd" clip-rule="evenodd" d="M108.692 48.218l22.602 43.396A3 3 0 0 1 128.633 96H84.371a3 3 0 0 1-2.684-4.34l21.66-43.396a3 3 0 0 1 5.345-.046z" fill="#114587"/><path fill-rule="evenodd" clip-rule="evenodd" d="M109.276 35.195l16.943 32.415a3 3 0 0 1-2.658 4.39H90.379a3 3 0 0 1-2.682-4.344l16.238-32.415a3 3 0 0 1 5.341-.046z" fill="#114587"/><path fill-rule="evenodd" clip-rule="evenodd" d="M82.087 53.475l26.867 54.189a1.692 1.692 0 0 1-1.517 2.445H54.351a1.693 1.693 0 0 1-1.693-1.743l1.643-56.302h25.51a2.54 2.54 0 0 1 2.276 1.411z" fill="#2B70C9"/><path fill-rule="evenodd" clip-rule="evenodd" d="M56.6 53.543l25.351 54.155a1.693 1.693 0 0 1-1.533 2.411H28.183a1.693 1.693 0 0 1-1.533-2.411L52 53.543a2.54 2.54 0 0 1 4.6 0z" fill="#3780DE"/><path fill-rule="evenodd" clip-rule="evenodd" d="M53.944 82c9.252 0 16.896 7.22 17.423 16.457l.664 11.652H35.68l.739-11.659C37.004 89.201 44.677 82 53.944 82z" fill="#7AF0F2"/><path fill-rule="evenodd" clip-rule="evenodd" d="M53.41 80.604c10.284 0 18.621 8.338 18.621 18.622v11.004C61.14 107.754 53.41 98.071 53.41 86.9v-6.296z" fill="#3780DE"/><path fill-rule="evenodd" clip-rule="evenodd" d="M54.3 80.604c-10.284 0-18.621 8.338-18.621 18.622v11.004C46.57 107.754 54.3 98.071 54.3 86.9v-6.296z" fill="#3780DE"/><path d="M54.033 61.783c.695 0 1.266.53 1.33 1.208l.007.129v26.06a1.336 1.336 0 0 1-2.667.13l-.006-.13V63.12c0-.738.598-1.337 1.336-1.337z" fill="#2B70C9"/></svg>