<svg viewBox="0 0 136 124" fill="none" xmlns="http://www.w3.org/2000/svg"><rect x="12.209" y="11" width="113" height="113" rx="17" fill="#FEC701"/><path fill-rule="evenodd" clip-rule="evenodd" d="M65.861 24.942c8.201 8.201 8.201 21.498 0 29.699l-53.406 53.406a17.071 17.071 0 0 1-.349-3.442V48.998l24.057-24.056c8.2-8.201 21.497-8.201 29.698 0zm59.245 1.056v35.354l-8.995 8.997c-4.882 4.882-12.796 4.882-17.678 0-4.882-4.881-4.882-12.796 0-17.677l26.673-26.674z" fill="#FFD900"/><path fill-rule="evenodd" clip-rule="evenodd" d="M29.62 16.003c-5.967 0-10.803 4.837-10.803 10.803v34.58l-.002.056c0 .98-.013 3.498-2.63 3.691h-5.858c-.639 0-1.157.519-1.157 1.158 0 6.464 5.24 11.704 11.704 11.704h51.06c6.463 0 11.703-5.24 11.703-11.704 0-.64-.518-1.158-1.157-1.158h-5.473c-2.461-.181-2.62-2.42-2.63-3.5V26.805c0-5.966-4.836-10.803-10.803-10.803H29.62z" fill="#FFB100"/><path fill-rule="evenodd" clip-rule="evenodd" d="M22.547 33.623c0-5.611 4.549-10.16 10.16-10.16h26.88c5.612 0 10.161 4.549 10.161 10.16V77.61H22.547V33.623z" fill="#FFD900"/><path d="M20.36 73.107c0-.781.633-1.415 1.414-1.415h49.002c.781 0 1.415.634 1.415 1.415v4.888c0 .78-.634 1.414-1.415 1.414H21.774a1.415 1.415 0 0 1-1.415-1.414v-4.888z" fill="#F68B00"/><path fill-rule="evenodd" clip-rule="evenodd" d="M44.22 72.223a1.029 1.029 0 0 1 1.001-.788h3.138c.475 0 .889.326 1 .788l2.077 8.617a1.029 1.029 0 0 1-1 1.27h-7.291a1.029 1.029 0 0 1-1-1.27l2.076-8.617z" fill="#FFF1A2"/><path fill-rule="evenodd" clip-rule="evenodd" d="M46.74 49.299a2.7 2.7 0 0 0 2.7-2.7c0-1.49-2.7-5.017-2.7-5.017s-2.7 3.526-2.7 5.017a2.7 2.7 0 0 0 2.7 2.7zM54.18 61.791a1 1 0 0 1-.211 1.398c-1.973 1.453-4.44 2.266-7.369 2.266-2.58 0-4.806-.631-6.652-1.78a1 1 0 1 1 1.057-1.698c1.499.933 3.351 1.478 5.595 1.478 2.542 0 4.585-.7 6.183-1.876a1 1 0 0 1 1.398.212z" fill="#FFB100"/><path d="M22.547 33.623c0-3.556 1.827-6.686 4.594-8.501a5.33 5.33 0 0 1 .294 1.75v7.587c0 1.83-.921 3.446-2.326 4.407a5.23 5.23 0 0 0-2.562-2.477v-2.766zM69.748 33.623c0-3.372-1.642-6.36-4.171-8.208a5.342 5.342 0 0 0-.201 1.456v7.588a5.33 5.33 0 0 0 2.23 4.34 5.232 5.232 0 0 1 2.142-2.218v-2.958z" fill="#FFB100"/><path d="M25.633 41.147a5.209 5.209 0 1 1-10.418 0 5.209 5.209 0 0 1 10.418 0zM77.465 41.147a5.209 5.209 0 1 1-10.418 0 5.209 5.209 0 0 1 10.418 0z" fill="#FFD900"/><path d="M17.273 22.819c0-.924.749-1.672 1.672-1.672H74.24c.923 0 1.671.748 1.671 1.672v3.473c0 .923-.748 1.671-1.671 1.671H18.945a1.672 1.672 0 0 1-1.672-1.672V22.82z" fill="#F68B00"/><path d="M36.145 20.084a9.898 9.898 0 0 1-2.255-1.866c-2.86-3.185-3.335-7.807-1.254-11.42.433-.753 1.238-.862 1.818-.215l2.27 2.473a11.568 11.568 0 0 1 9.873-5.529c6.393 0 11.575 5.183 11.575 11.575 0 6.393-5.182 11.576-11.575 11.576-4.61 0-8.59-2.695-10.452-6.594z" fill="#FFB100"/><path d="M46.6 61.695c6.98 0 10.833-4.923 11.733-11.498.202-1.472-1.32-2.502-2.723-2.015-2.522.874-6.19 1.947-9.01 1.947-2.822 0-6.49-1.073-9.011-1.947-1.403-.487-2.925.543-2.723 2.015.9 6.575 4.752 11.498 11.733 11.498z" fill="#E47900"/><path d="M53.933 59.182c-1.865 1.586-4.305 2.513-7.334 2.513-3.028 0-5.468-.927-7.333-2.513a9.721 9.721 0 0 1 7.334-3.328 9.721 9.721 0 0 1 7.333 3.328z" fill="#FFB100"/><path d="M57.955 52.195a19.53 19.53 0 0 0 .378-1.998c.202-1.472-1.32-2.502-2.723-2.015-2.522.874-6.19 1.947-9.01 1.947-2.822 0-6.49-1.073-9.011-1.947-1.403-.487-2.925.543-2.723 2.015.094.685.22 1.352.378 1.998.285.113.596.175.92.175h1.954a2.51 2.51 0 0 0 2.176-1.258 2.51 2.51 0 0 0 2.176 1.258h1.953a2.51 2.51 0 0 0 2.176-1.258 2.51 2.51 0 0 0 2.177 1.258h1.953a2.51 2.51 0 0 0 2.176-1.258 2.51 2.51 0 0 0 2.176 1.258h1.953c.325 0 .636-.062.921-.175zM33.578 36.154a6.064 6.064 0 0 1 12.128 0v3.689c0 2.58-1.61 4.782-3.88 5.659a7.407 7.407 0 0 0-7.762-3.276 6.045 6.045 0 0 1-.486-2.383v-3.689zM59.982 36.154a6.064 6.064 0 0 0-12.128 0v3.689a6.067 6.067 0 0 0 3.971 5.693 7.408 7.408 0 0 1 7.68-3.331 6.045 6.045 0 0 0 .477-2.362v-3.689z" fill="#FFF1A2"/><path d="M41.28 33.593a2.943 2.943 0 0 1-5.608 1.251 4.603 4.603 0 0 0-.455 2.002V39c0 1.203.46 2.299 1.213 3.12a7.376 7.376 0 0 1 3.671 1.494 4.616 4.616 0 0 0 3.48-1.9 1.993 1.993 0 1 1 .88-3.627v-1.24a4.624 4.624 0 0 0-3.444-4.471c.17.37.263.783.263 1.217zM55.36 33.593a2.943 2.943 0 0 1-5.608 1.251 4.604 4.604 0 0 0-.455 2.002V39c0 2.439 1.89 4.437 4.284 4.61a7.376 7.376 0 0 1 3.755-1.499c.116-.126.224-.26.325-.398a1.994 1.994 0 1 1 .88-3.627v-1.24a4.624 4.624 0 0 0-3.444-4.47c.169.37.263.783.263 1.217z" fill="#E47900"/><path d="M66.874 61.695c-5.661 0-10.251 4.59-10.251 10.25v5.126h15.804v.006c5.163.14 9.69 2.827 12.374 6.85H56.623v1.26c0 11.782 9.001 21.462 20.502 22.538v.099h15.376c1.832 0 3.55-.48 5.039-1.321 12.414-3.798 21.443-15.347 21.443-29.005v-.854h-10.512c-3.391 0-6.146-2.587-7.727-5.588-2.932-5.566-8.775-9.361-15.504-9.361H66.874z" fill="#FFB100"/><path d="M132.932 63.707c0-.944-.765-1.709-1.709-1.709h-2.99c-5.661 0-10.251 4.59-10.251 10.252v4.698h4.699c5.661 0 10.251-4.59 10.251-10.251v-2.99z" fill="#FFB100"/><path d="M104.314 61.998c-.944 0-1.709.766-1.709 1.709v2.99c0 5.661 4.59 10.25 10.251 10.25h5.126V72.25c0-5.66-4.59-10.25-10.251-10.25h-3.417z" fill="#FFB100"/><path d="M88.657 117.376c.943 0 1.708-.765 1.708-1.709v-2.99c0-5.661-4.59-10.251-10.25-10.251h-4.7v4.699c0 5.661 4.59 10.251 10.252 10.251h2.99z" fill="#F68B00"/><path d="M100.616 117.376c.943 0 1.708-.765 1.708-1.709v-2.99c0-5.661-4.59-10.251-10.25-10.251h-4.7v4.699c0 5.661 4.59 10.251 10.252 10.251h2.99z" fill="#FFB100"/><path fill-rule="evenodd" clip-rule="evenodd" d="M69.121 68.263a2.123 2.123 0 0 0-4.246 0v2.667a2.123 2.123 0 1 0 4.246 0v-2.667zM75.725 68.263a2.123 2.123 0 0 0-4.246 0v2.667a2.123 2.123 0 0 0 4.246 0v-2.667z" fill="#E47900"/><path d="M58.174 77.071h29.2c-2.682 4.022-7.21 6.709-12.373 6.85v.005H58.174v-6.855z" fill="#FFF1A2"/><path d="M56.623 83.926v8.949h.006c.222 8.153 6.79 14.721 14.943 14.943v.006h15.804V77.071c-2.683 4.022-7.21 6.709-12.374 6.85v.005H56.623z" fill="#FFD900"/></svg>