<svg viewBox="0 0 135 124" fill="none" xmlns="http://www.w3.org/2000/svg"><path d="M11 28c0-9.389 7.611-17 17-17h79c9.389 0 17 7.611 17 17v79c0 9.389-7.611 17-17 17H28c-9.389 0-17-7.611-17-17V28z" fill="#E5E5E5"/><path fill-rule="evenodd" clip-rule="evenodd" d="M119.883 51.952c2.788 6.01.176 13.143-5.835 15.931-6.01 2.788-13.143.176-15.931-5.835-2.788-6.01-.176-13.143 5.835-15.931 6.01-2.788 13.143-.176 15.931 5.835zm-2.418 2.925a8.728 8.728 0 0 1-15.553 7.214l15.553-7.214zm-1.377-2.968a8.729 8.729 0 0 0-15.553 7.214l15.553-7.214z" fill="#fff"/><path fill-rule="evenodd" clip-rule="evenodd" d="M104.027 29.377a9 9 0 1 1-14.054 11.246 9 9 0 0 1 14.054-11.246zm-1.927 3.847a5.4 5.4 0 1 1-7.951 6.362l7.951-6.362zm-2.25-2.811a5.401 5.401 0 0 0-7.95 6.362l7.95-6.362zM63.354 105.814a7.499 7.499 0 1 1-11.71 9.37 7.498 7.498 0 1 1 11.71-9.37zm-1.605 3.205a4.502 4.502 0 0 1-6.626 5.302l6.626-5.302zm-1.875-2.342a4.502 4.502 0 0 0-6.625 5.301l6.625-5.301zM91.354 51.814a7.499 7.499 0 1 1-11.71 9.37 7.499 7.499 0 0 1 11.71-9.37zm-1.605 3.205a4.5 4.5 0 0 1-6.626 5.302l6.626-5.302zm-1.875-2.342a4.5 4.5 0 0 0-6.625 5.301l6.625-5.3z" fill="#D1D1D1"/><path d="M61.883 24.482l-43.93 1.328.813 26.878 43.93-1.328-.813-26.878z" fill="#959595"/><path d="M29.55 46.072c-5.377 5.597-14.161 5.65-19.62.118l-4.734-4.798c-5.459-5.532-5.524-14.554-.147-20.15l5.216-5.429c5.378-5.596 14.162-5.65 19.62-.117l4.735 4.798c5.459 5.532 5.524 14.553.147 20.15l-5.216 5.428zM55.476 44.363c5.904 5.164 14.993 4.68 20.302-1.081l4.604-4.997c5.309-5.761 4.826-14.617-1.078-19.78l-5.726-5.009c-5.904-5.163-14.993-4.679-20.301 1.082l-4.605 4.997c-5.308 5.76-4.825 14.616 1.078 19.78l5.726 5.008z" fill="#959595"/><path d="M22.485 15.5C22.253 7.82 28.29 1.408 35.97 1.176L46.02.87C53.7.639 60.114 6.676 60.346 14.356l.251 8.316c.233 7.68-5.805 14.093-13.485 14.326l-10.05.303c-7.68.233-14.093-5.805-14.325-13.485l-.252-8.315z" fill="#959595"/><path d="M60.05 48.224c5.882-.178 10.796 4.447 10.974 10.33l.805 26.63c.209 6.913-5.225 12.686-12.138 12.895l-30.89.934c-6.913.209-12.686-5.226-12.895-12.138l-.805-26.63c-.178-5.883 4.447-10.796 10.33-10.974l34.618-1.047z" fill="#BFBFBF"/><path d="M41.383 66.53a7.123 7.123 0 1 0-14.24.43l.134 4.436a7.123 7.123 0 1 0 14.24-.43l-.134-4.436zM59.654 65.978a7.123 7.123 0 0 0-14.24.43l.135 4.436a7.123 7.123 0 1 0 14.24-.43l-.135-4.436z" fill="#fff"/><path d="M40.913 44.605c.328-5.943 5.411-10.496 11.355-10.168l-.168 3.035c-.327 5.943-5.41 10.496-11.354 10.168l.167-3.035z" fill="#D1D1D1"/><path d="M32.774 37.95c.686 5.913 6.035 10.15 11.948 9.465l-.35-3.02c-.686-5.913-6.035-10.15-11.948-9.464l.35 3.02z" fill="#D1D1D1"/><path d="M11.236 47.034l32.489-.983.096 3.185-28.795 16.341-3.79-18.543z" fill="#D1D1D1"/><path d="M73.819 45.141l-32.489.982.096 3.185 29.73 14.572L73.82 45.14z" fill="#D1D1D1"/><path d="M71.397 76.171a6.354 6.354 0 1 0-.384-12.701 6.354 6.354 0 0 0 .384 12.701zM15.668 78.116a6.354 6.354 0 1 0-.384-12.702 6.354 6.354 0 0 0 .384 12.702z" fill="#BFBFBF"/><path d="M47.094 67.876a2.569 2.569 0 0 0 1.989-4.09 3.153 3.153 0 0 1 4.282 2.849l.12 3.967a3.153 3.153 0 0 1-6.303.191l-.088-2.917zM34.028 68.271a2.569 2.569 0 0 0 1.9-4.208 3.153 3.153 0 0 1 3.837 2.983l.12 3.968a3.153 3.153 0 0 1-6.303.19l-.09-2.972c.174.03.353.045.536.04zM36.232 93.589c4.735.766 9.23-1.96 10.854-6.285.385-1.024-.368-2.054-1.448-2.228L29.99 82.544c-1.08-.175-2.12.564-2.078 1.658.178 4.616 3.583 8.62 8.319 9.387z" fill="#959595"/><path d="M41.536 92.992a9.86 9.86 0 0 1-5.305.597 9.903 9.903 0 0 1-7.7-6.313 9.861 9.861 0 0 1 5.306-.597 9.903 9.903 0 0 1 7.7 6.313z" fill="#A6A6A6"/><path d="M45.764 78.163c-6.334-5.502-16.632-7.404-20.989-7.668l.305 10.073 20.684-2.405zM40.324 55.198c-1.638 8.59-11.91 11.43-16.842 11.777l-1.293-3.519 13.988-8.132 4.147-.126z" fill="#BFBFBF"/><path d="M41.35 78.085a2.329 2.329 0 0 0 4.656-.14c-.04-1.286-2.36-4.2-2.457-4.198-.097.003-2.238 3.052-2.199 4.338z" fill="#959595"/><path d="M44.697 76.229l-2.13.064a2.398 2.398 0 1 0 .145 4.793l2.13-.064a2.398 2.398 0 0 0-.145-4.793z" fill="#959595"/><path d="M129.423 75.938l-47.047-5.652a2.403 2.403 0 0 0-2.672 2.1l-4.49 37.368a2.402 2.402 0 0 0 2.1 2.672l47.047 5.652a2.404 2.404 0 0 0 2.672-2.099l4.489-37.369a2.403 2.403 0 0 0-2.099-2.672z" fill="#fff"/><path d="M130.566 86.56l-51.818-6.224.955-7.95a2.403 2.403 0 0 1 2.672-2.1l47.047 5.652a2.403 2.403 0 0 1 2.099 2.672l-.955 7.95z" fill="#D1D1D1"/><path d="M83.867 78.128c1.32.159 2.52-.78 2.678-2.098a2.405 2.405 0 0 0-2.105-2.672 2.406 2.406 0 0 0-2.678 2.098 2.406 2.406 0 0 0 2.105 2.672z" fill="#959595"/><path d="M90.243 78.894c1.321.16 2.52-.78 2.679-2.098a2.406 2.406 0 0 0-2.105-2.672 2.406 2.406 0 0 0-2.679 2.098 2.406 2.406 0 0 0 2.105 2.672z" fill="#A6A6A6"/><path d="M96.624 79.66c1.321.16 2.52-.78 2.678-2.097a2.406 2.406 0 0 0-2.105-2.673 2.406 2.406 0 0 0-2.678 2.098 2.406 2.406 0 0 0 2.105 2.672z" fill="#BFBFBF"/><path d="M95.082 99.035c2.418-2.019 5.615-3.062 8.957-2.631 3.366.434 6.21 2.276 8.035 4.871l-2.894 2.561c-1.219-1.914-3.23-3.289-5.635-3.599-2.381-.307-4.654.494-6.315 2.007l-2.148-3.21z" fill="#A6A6A6"/><path d="M90.908 92.799c3.835-3.132 8.866-4.74 14.121-4.062 5.278.68 9.753 3.534 12.668 7.564l-2.887 2.555c-2.316-3.347-5.958-5.729-10.275-6.285-4.294-.554-8.4.808-11.483 3.43l-2.144-3.202z" fill="#E5E5E5"/><path fill-rule="evenodd" clip-rule="evenodd" d="M99.602 105.586a3.489 3.489 0 0 1 3.45-1.712c1.449.187 2.573 1.252 2.922 2.603l-3.627 3.21-2.745-4.101z" fill="#A6A6A6"/></svg>