<svg id="Layer_3" data-name="Layer 3" xmlns="http://www.w3.org/2000/svg" viewBox="0 0 135 124"><defs><style>.cls-1{fill:#e5e5e5}.cls-2{fill:#bfbfbf}.cls-3{fill:#d1d1d1}.cls-8{fill:#fff}.cls-5{fill:#efefef}.cls-6{fill:#b2b2b2}</style></defs><path class="cls-1" d="M124 28v79a17 17 0 0 1-2.85 9.43A17.09 17.09 0 0 1 107 124H28a17 17 0 0 1-17-17V28a17 17 0 0 1 9.58-15.29 16.76 16.76 0 0 1 5.31-1.58A16.38 16.38 0 0 1 28 11h79.84a16.79 16.79 0 0 1 5.32 1.14A15.14 15.14 0 0 1 115 13a17 17 0 0 1 9 15z"/><path class="cls-2" d="M15.81 108.46h101.64v4.08a5.37 5.37 0 0 1-5.37 5.37H21.19a5.37 5.37 0 0 1-5.37-5.37v-4.08h-.01z"/><path class="cls-3" d="M113.16 12.16v97H20.58V12.71a16.76 16.76 0 0 1 5.31-1.58A16.38 16.38 0 0 1 28 11h79.84a16.79 16.79 0 0 1 5.32 1.16z"/><path opacity=".5" fill="#fff" d="M57.99 11H47.53l-16.5 20.01h10.46L57.99 11z"/><path class="cls-2" d="M24.24 34.22h86.07v75.72H24.24z"/><path class="cls-5" d="M25.89 11.13v98h-5.31V12.71a16.76 16.76 0 0 1 5.31-1.58zM113.16 12.16v97h-5.32V11a16.79 16.79 0 0 1 5.32 1.16z"/><path class="cls-5" d="M23.84 29.97h86.07v5.2H23.84z"/><circle class="cls-6" cx="40.02" cy="50.79" r="9.73"/><path d="M103.82 110.46h-72l6.7-50.74a16.88 16.88 0 0 1 16.78-15h25.03a16.88 16.88 0 0 1 16.79 15z" fill="#a6a6a6"/><path class="cls-1" d="M79.87 54.53L73.65 84.2l-4.23 20.17h-3.25l-4.24-20.23-6.21-29.61h24.15z"/><path class="cls-6" d="M83.34 51.6l9.45 6.83a6.21 6.21 0 0 1 1.26 8.86L71.19 96.56l9.18-43.76zM52.3 51.6l-9.45 6.83a6.21 6.21 0 0 0-1.26 8.86l22.86 29.27-9.18-43.76z"/><path class="cls-5" d="M117.45 109.31a4.77 4.77 0 0 1-1.4 3.2 4.71 4.71 0 0 1-3.37 1.4H20.56a4.78 4.78 0 0 1-4.77-4.77 4.77 4.77 0 0 1 4.77-4.77h91.9a4.94 4.94 0 0 1 4.99 4.94z"/><path class="cls-3" d="M88.22 104.47h17.44v-5.61h-9.34l-8.45 1.43a2.11 2.11 0 0 0-1.76 2.07 2.11 2.11 0 0 0 2.11 2.11z"/><path class="cls-3" d="M107.68 98.86a2.59 2.59 0 0 1 2.59 2.59v7.05h-2.72a2.46 2.46 0 0 1-2.46-2.46v-4.59a2.59 2.59 0 0 1 2.59-2.59z" transform="rotate(180 107.675 103.68)"/><path class="cls-3" d="M101.63 98.86a2.59 2.59 0 0 1 2.59 2.59v7.05h-2.72A2.46 2.46 0 0 1 99 106v-4.59a2.59 2.59 0 0 1 2.59-2.59z" transform="rotate(-180 101.63 103.68)"/><path class="cls-3" d="M95.59 97a2.59 2.59 0 0 1 2.59 2.59v4.34a2.72 2.72 0 0 1-2.72 2.72 2.46 2.46 0 0 1-2.46-2.51v-4.59A2.59 2.59 0 0 1 95.59 97z" transform="rotate(180 95.585 101.78)"/><path class="cls-3" d="M45.29 104.47H27.85v-5.61h9.34l8.45 1.43a2.1 2.1 0 0 1 1.75 2.07 2.1 2.1 0 0 1-2.1 2.11z"/><path class="cls-3" d="M25.7 98.86h2.72v7.05a2.59 2.59 0 0 1-2.59 2.59 2.59 2.59 0 0 1-2.59-2.59v-4.59a2.46 2.46 0 0 1 2.46-2.46zM31.75 98.86h2.72v7.05a2.59 2.59 0 0 1-2.59 2.59 2.59 2.59 0 0 1-2.59-2.59v-4.59a2.46 2.46 0 0 1 2.46-2.46zM37.8 96.56a2.72 2.72 0 0 1 2.72 2.72v4.34a2.59 2.59 0 0 1-2.59 2.59 2.59 2.59 0 0 1-2.59-2.59V99a2.46 2.46 0 0 1 2.46-2.46zM45.24 33.78v17.74a8.87 8.87 0 0 1 0-17.74zM99.17 42.65a8.89 8.89 0 0 1-8.89 8.88h-.19V33.78a.65.65 0 0 1 .19 0 8.9 8.9 0 0 1 8.89 8.87z"/><rect class="cls-1" x="42.14" y="48.63" width="3.04" height="6.46" rx="1.52" ry="1.52"/><rect class="cls-1" x="89.93" y="48.63" width="3.04" height="6.46" rx="1.52" ry="1.52"/><circle class="cls-6" cx="67.87" cy="31.26" r="31.14"/><path class="cls-3" d="M43.57 45.56l1.52 9.22a14.19 14.19 0 0 0 6.13 11.68l8.86 5.21a13.58 13.58 0 0 0 15.15.2l8.52-5.44a14.2 14.2 0 0 0 6.43-11.88L91.7 31.4c0-5-4.07 1.69-9 1.73l-30.23 3.46a9 9 0 0 0-8.9 8.97z"/><path class="cls-8" d="M51.77 44.38h5.93a6.45 6.45 0 0 1 6.45 6.45v3a3.38 3.38 0 0 1-3.38 3.38h-2.43a8.59 8.59 0 0 1-8.59-8.59V46.4a2 2 0 0 1 2-2z"/><rect class="cls-6" x="55.63" y="48.3" width="5.49" height="8.97" rx="2.75" ry="2.75"/><path class="cls-3" d="M47.05 42.98h17.1v8.66h-17.1z"/><path class="cls-6" d="M63.88 53.34h-.07l-14.69-1.07a1 1 0 1 1 .14-2L64 51.35a1 1 0 0 1-.07 2z"/><path class="cls-8" d="M80.17 44.38h2.43a3.38 3.38 0 0 1 3.4 3.39v3a6.45 6.45 0 0 1-6.45 6.45H73.6a2 2 0 0 1-2-2V53a8.59 8.59 0 0 1 8.59-8.59z" transform="rotate(-180 78.78 50.795)"/><rect class="cls-6" x="74.6" y="48.3" width="5.49" height="8.97" rx="2.75" ry="2.75" transform="rotate(-180 77.35 52.785)"/><path class="cls-3" transform="rotate(-180 80.13 47.31)" d="M71.58 42.98h17.1v8.66h-17.1z"/><path class="cls-6" d="M71.85 53.34a1 1 0 0 1-.07-2l14.68-1.07a1 1 0 1 1 .15 2l-14.69 1.07z"/><rect class="cls-2" x="65.15" y="43.86" width="4.97" height="17.39" rx="2.49" ry="2.49"/><path class="cls-6" d="M47.05 21.55l7.79 15.28c2.13 3.3 6 5.71 10.65 6.62l12.41 2.43c7.27 1.43 12.36 3.26 12.36 9l1.39-6.42L95.89 39l-1.52-23.43L73 .52 51.32 4z"/><path class="cls-6" d="M56.63.12h11.24v12.55H46.1v-2A10.53 10.53 0 0 1 56.63.12z"/><path class="cls-2" d="M92 37.53a1 1 0 0 1-.88-.52l-1.57-2.94a10.37 10.37 0 0 0-7.26-5.16c-3.28-.6-7.43-1.39-10.77-2a14.73 14.73 0 0 1-9.68-6.48l-4.24-6.72a1 1 0 0 1 .31-1.38 1 1 0 0 1 1.38.31l4.24 6.72a12.67 12.67 0 0 0 8.37 5.58c3.33.65 7.48 1.44 10.75 2a12.37 12.37 0 0 1 8.67 6.18l1.56 2.93a1 1 0 0 1-.41 1.36 1 1 0 0 1-.47.12zM87.62 22.66h-.18c-3.28-.6-7.42-1.39-10.77-2A14.68 14.68 0 0 1 67 14.13a1 1 0 0 1 1.7-1.07 12.68 12.68 0 0 0 8.36 5.58c3.34.64 7.48 1.43 10.75 2a1 1 0 0 1-.18 2z"/><circle class="cls-2" cx="67.63" cy="59.77" r="3.76"/><path class="cls-2" d="M75.24 65.29H61.12a1 1 0 0 1 0-2h14.12a1 1 0 0 1 0 2z"/></svg>