<svg viewBox="0 0 135 124" fill="none" xmlns="http://www.w3.org/2000/svg"><path d="M11 28c0-9.389 7.611-17 17-17h79c9.389 0 17 7.611 17 17v79c0 9.389-7.611 17-17 17H28c-9.389 0-17-7.611-17-17V28z" fill="#FF7878"/><path d="M54.253 14.656c.354 6.758-4.87 12.525-11.666 12.88-6.797.357-12.594-4.833-12.948-11.591-.354-6.758 4.87-12.525 11.666-12.881 6.797-.356 12.594 4.834 12.948 11.592z" fill="#3D3D3D"/><path fill-rule="evenodd" clip-rule="evenodd" d="M3.895 58.029C3.16 43.99 13.945 32.015 27.982 31.28l29.328-1.536c14.038-.735 26.013 10.05 26.748 24.087.736 14.038-10.048 26.013-24.086 26.749l-29.328 1.535C16.606 82.851 4.631 72.067 3.895 58.03z" fill="#3D3D3D"/><path d="M84.027 57.053C83.104 69.657 72.923 79.9 59.973 80.579l-29.328 1.536c-12.95.678-24.145-8.447-26.38-20.885l79.762-4.177z" fill="#D8D8D8"/><path d="M13.639 73.38c-.91-17.383 12.443-32.213 29.826-33.123 17.384-.91 32.213 12.444 33.124 29.827l.523 9.99c.392 7.49-5.362 13.881-12.853 14.273l-35.824 1.877c-7.49.392-13.881-5.363-14.273-12.853l-.524-9.99z" fill="#FFCBA3"/><path d="M21.635 39.13l45.975-2.407.392 7.498-45.975 2.407-.392-7.497z" fill="#3D3D3D"/><path fill-rule="evenodd" clip-rule="evenodd" d="M30.527 60a6.573 6.573 0 0 1 13.128-.688l.212 4.05a6.573 6.573 0 1 1-13.128.687L30.527 60z" fill="#fff"/><path fill-rule="evenodd" clip-rule="evenodd" d="M35.94 59.952a2.96 2.96 0 1 1 5.912-.31l.195 3.714a2.96 2.96 0 0 1-5.913.31l-.194-3.714z" fill="#3D3D3D"/><path fill-rule="evenodd" clip-rule="evenodd" d="M59.197 58.496a6.573 6.573 0 1 0-13.128.688l.213 4.05a6.573 6.573 0 1 0 13.127-.688l-.212-4.05z" fill="#fff"/><path fill-rule="evenodd" clip-rule="evenodd" d="M54.14 58.999a2.96 2.96 0 0 0-5.913.31l.194 3.712a2.96 2.96 0 1 0 5.913-.31L54.139 59z" fill="#3D3D3D"/><path fill-rule="evenodd" clip-rule="evenodd" d="M40.647 91.093a.7.7 0 0 1 .953-.262l-.346.608.346-.608h-.001l.008.004a3.535 3.535 0 0 0 .2.102c.145.071.363.171.641.281.558.22 1.354.48 2.299.63 1.885.3 4.336.167 6.71-1.533a.7.7 0 1 1 .814 1.136c-2.753 1.973-5.606 2.118-7.744 1.778a12.432 12.432 0 0 1-2.593-.71 10.517 10.517 0 0 1-.944-.428 3.761 3.761 0 0 1-.056-.03l-.017-.01-.005-.003h-.002v-.001l.345-.608-.346.608a.7.7 0 0 1-.262-.954z" fill="#F7B286"/><path opacity=".626" fill-rule="evenodd" clip-rule="evenodd" d="M66.944 60.461a.7.7 0 0 1-.329.933L63.1 63.08l3.694 1.415a.7.7 0 0 1-.5 1.306l-5.21-1.996a.7.7 0 0 1-.053-1.284l4.98-2.388a.7.7 0 0 1 .933.328zM22.514 62.788a.7.7 0 0 0 .423.893l3.673 1.31-3.525 1.793a.7.7 0 1 0 .634 1.247l4.973-2.53a.7.7 0 0 0-.082-1.282l-5.203-1.855a.7.7 0 0 0-.893.424z" fill="#F3A577"/><path fill-rule="evenodd" clip-rule="evenodd" d="M7.074 48.248a6.643 6.643 0 0 1 6.286-6.982l6.255-.327a6.643 6.643 0 0 1 6.98 6.286l.328 6.255a6.643 6.643 0 0 1-6.286 6.98l-6.255.328a6.643 6.643 0 0 1-6.98-6.286l-.328-6.255zM60.935 44.717a6.643 6.643 0 0 1 6.287-6.98l5.405-.284a6.643 6.643 0 0 1 6.981 6.286l.365 6.962a6.643 6.643 0 0 1-6.287 6.981l-5.405.283A6.643 6.643 0 0 1 61.3 51.68l-.365-6.962z" fill="#3D3D3D"/><path fill-rule="evenodd" clip-rule="evenodd" d="M44.827 88.222l.02-.007.09-.03c.081-.026.201-.063.347-.1.298-.079.67-.154 1.026-.173.357-.019.74.017 1.05.064a6.73 6.73 0 0 1 .456.085l.02.005h.003a1.133 1.133 0 0 0 .548-2.199l-.263 1.05.263-1.05h-.003l-.005-.002-.013-.003-.042-.01a9.016 9.016 0 0 0-.628-.117 7.667 7.667 0 0 0-1.504-.087 7.554 7.554 0 0 0-1.482.243 8.694 8.694 0 0 0-.608.183l-.04.015-.013.004-.005.002-.002.001.392 1.063-.392-1.063a1.134 1.134 0 0 0 .785 2.126h-.001m3.012-.156z" fill="#E89665"/><path d="M29.955 51.745l28.858-1.512.667 12.732-28.858 1.511-.667-12.731z" fill="#FFCBA3"/><path d="M26.549 62.605a2.168 2.168 0 0 1 2.051-2.278l32.734-1.715a2.168 2.168 0 0 1 2.278 2.052l.003.056a2.168 2.168 0 0 1-2.052 2.278L28.83 64.712a2.168 2.168 0 0 1-2.278-2.051l-.003-.056z" fill="#3D3D3D"/><path fill-rule="evenodd" clip-rule="evenodd" d="M45.545 71.82a3.192 3.192 0 0 0 3.016-3.36c-.092-1.763-3.493-5.766-3.493-5.766s-2.965 4.337-2.873 6.1a3.192 3.192 0 0 0 3.35 3.025z" fill="#E89665"/><path d="M129.121 66.93l-53.587-6.438c-1.501-.18-2.864.89-3.044 2.391l-5.113 42.564a2.737 2.737 0 0 0 2.39 3.044l53.588 6.437a2.736 2.736 0 0 0 3.044-2.391l5.113-42.563a2.736 2.736 0 0 0-2.391-3.044z" fill="#fff"/><path d="M87.747 95.39a1.833 1.833 0 0 0-.31 2.574l1.989 2.531a1.833 1.833 0 0 0 2.574.31l5.04-3.959a1.833 1.833 0 0 1 2.573.31l3.959 5.039a1.833 1.833 0 0 0 2.574.309l2.531-1.988a1.834 1.834 0 0 0 .309-2.574l-3.959-5.04a1.833 1.833 0 0 1 .309-2.574l5.041-3.959a1.833 1.833 0 0 0 .309-2.574l-1.988-2.531a1.833 1.833 0 0 0-2.574-.31l-5.041 3.96a1.833 1.833 0 0 1-2.573-.31l-3.96-5.04a1.833 1.833 0 0 0-2.573-.308l-2.532 1.988a1.833 1.833 0 0 0-.309 2.574l3.96 5.04a1.833 1.833 0 0 1-.31 2.574l-5.04 3.958z" fill="#FF4B4B"/><path d="M130.424 79.03l-59.022-7.09 1.088-9.057a2.737 2.737 0 0 1 3.044-2.39l53.587 6.437a2.736 2.736 0 0 1 2.391 3.044l-1.088 9.055z" fill="#F5F5F5"/><path d="M77.231 69.425a2.74 2.74 0 0 0 3.051-2.39 2.74 2.74 0 0 0-2.398-3.044 2.74 2.74 0 0 0-3.05 2.39 2.74 2.74 0 0 0 2.397 3.044z" fill="#FF4B4B"/><path d="M84.495 70.297a2.74 2.74 0 0 0 3.05-2.39 2.74 2.74 0 0 0-2.397-3.044 2.74 2.74 0 0 0-3.05 2.39 2.74 2.74 0 0 0 2.397 3.044z" fill="#FFBC00"/><path d="M91.759 71.17a2.74 2.74 0 0 0 3.05-2.39 2.74 2.74 0 0 0-2.397-3.045 2.74 2.74 0 0 0-3.05 2.39 2.74 2.74 0 0 0 2.397 3.044z" fill="#5ABB1A"/><path d="M88.679 48.94a1.543 1.543 0 0 0 0 2.182l.142.142c.603.603 1.58.603 2.183 0l1.22-1.22a1.543 1.543 0 0 1 2.182 0l1.22 1.22c.603.603 1.58.603 2.183 0l.142-.142a1.543 1.543 0 0 0 0-2.183l-1.22-1.22a1.543 1.543 0 0 1 0-2.182l1.22-1.22a1.543 1.543 0 0 0 0-2.183l-.142-.142a1.543 1.543 0 0 0-2.183 0l-1.22 1.22a1.543 1.543 0 0 1-2.182 0l-1.22-1.22a1.543 1.543 0 0 0-2.183 0l-.142.142a1.543 1.543 0 0 0 0 2.183l1.22 1.22c.602.603.602 1.58 0 2.182l-1.22 1.22z" fill="#fff" fill-opacity=".5"/><path d="M73.381 40.428a1.347 1.347 0 0 0 0 1.905l.125.125c.526.526 1.379.526 1.905 0l1.065-1.065a1.347 1.347 0 0 1 1.905 0l1.065 1.065c.526.526 1.379.526 1.905 0l.124-.125a1.347 1.347 0 0 0 0-1.905l-1.064-1.065a1.347 1.347 0 0 1 0-1.905l1.065-1.065a1.347 1.347 0 0 0 0-1.906l-.125-.124a1.347 1.347 0 0 0-1.905 0l-1.065 1.065a1.347 1.347 0 0 1-1.905 0l-1.065-1.065a1.347 1.347 0 0 0-1.906 0l-.124.124a1.347 1.347 0 0 0 0 1.906l1.065 1.065c.526.526.526 1.379 0 1.905l-1.065 1.065zM88.673 33.452a1.543 1.543 0 0 0 1.146 1.943l1.637.364a1.543 1.543 0 0 0 1.814-1.07l1.162-3.932a1.543 1.543 0 0 1 1.814-1.07l4.003.889a1.544 1.544 0 0 0 1.815-1.07l.475-1.608a1.544 1.544 0 0 0-1.146-1.944l-3.587-.795a1.543 1.543 0 0 1-1.146-1.944l1.041-3.524a1.543 1.543 0 0 0-1.145-1.944l-1.637-.364a1.543 1.543 0 0 0-1.815 1.07l-1.162 3.933a1.543 1.543 0 0 1-1.814 1.07l-4.003-.89a1.543 1.543 0 0 0-1.815 1.07l-.475 1.608a1.543 1.543 0 0 0 1.146 1.944l3.587.796a1.543 1.543 0 0 1 1.146 1.944l-1.04 3.524z" fill="#fff"/></svg>