<svg viewBox="0 0 135 125" version="1.1" xmlns="http://www.w3.org/2000/svg"><g stroke="none" stroke-width="1" fill="none" fill-rule="evenodd"><path d="M28 11h79c9.389 0 17 7.611 17 17v79c0 9.389-7.611 17-17 17H28c-9.389 0-17-7.611-17-17V28c0-9.389 7.611-17 17-17z" fill="#F3F3F3"/><path d="M70.152 6.03l45.461 30.648H17.58l46.53-30.68a5.446 5.446 0 0 1 6.043.032z" fill="#DBDBDB"/><path fill="#B2B2B2" d="M24.115 45.392h84.963v53.374H24.115z"/><path d="M57.179 68.034h19.017c1.204 0 2.179.976 2.179 2.179v29.643a2.179 2.179 0 0 1-2.179 2.178H57.18A2.179 2.179 0 0 1 55 99.856V70.213c0-1.203.975-2.179 2.179-2.179z" stroke="#BFBDBD" stroke-width="3.268" fill="#B2B2B2"/><path d="M76.196 66.4H57.18a3.812 3.812 0 0 0-3.813 3.813v29.643a3.812 3.812 0 0 0 3.813 3.812h19.017a3.812 3.812 0 0 0 3.813-3.812V70.213a3.812 3.812 0 0 0-3.813-3.813zM57.18 69.668h19.017c.301 0 .545.244.545.545v29.643c0 .3-.244.544-.545.544H57.18a.545.545 0 0 1-.545-.544V70.213c0-.301.244-.545.545-.545z" fill="#BFBDBD" fill-rule="nonzero"/><path d="M23.94 39l42.143-27.22a2.179 2.179 0 0 1 2.4.024L108.792 39" stroke="#BFBDBD" stroke-width="4.357" stroke-linecap="round" stroke-linejoin="round"/><path d="M124 107c0 9.389-7.611 17-17 17H28c-9.389 0-17-7.611-17-17h113z" fill="#B2B2B2"/><path d="M18.09 46h7.624c.602 0 1.09.488 1.09 1.09v49.016a1.09 1.09 0 0 1-1.09 1.09H18.09A1.09 1.09 0 0 1 17 96.106V47.09c0-.601.488-1.089 1.09-1.089zM42.09 46h7.624c.602 0 1.09.488 1.09 1.09v49.016a1.09 1.09 0 0 1-1.09 1.09H42.09A1.09 1.09 0 0 1 41 96.106V47.09c0-.601.488-1.089 1.09-1.089zM110.902 46a4.902 4.902 0 0 1 4.901 4.902v45.196a4.902 4.902 0 0 1-9.803 0V50.902A4.902 4.902 0 0 1 110.902 46zM83.09 46h7.624c.602 0 1.09.488 1.09 1.09v49.016a1.09 1.09 0 0 1-1.09 1.09H83.09A1.09 1.09 0 0 1 82 96.106V47.09c0-.601.488-1.089 1.09-1.089z" fill="#DBDBDB"/><path d="M17.723 45h8.714a2.723 2.723 0 0 1 0 5.446h-8.714a2.723 2.723 0 0 1 0-5.446zM17.723 96h8.714a2.723 2.723 0 0 1 0 5.446h-8.714a2.723 2.723 0 0 1 0-5.446zM41.723 45h8.714a2.723 2.723 0 0 1 0 5.446h-8.714a2.723 2.723 0 0 1 0-5.446zM106.723 45h8.714a2.723 2.723 0 1 1 0 5.446h-8.714a2.723 2.723 0 1 1 0-5.446zM106.723 96h8.714a2.723 2.723 0 1 1 0 5.446h-8.714a2.723 2.723 0 1 1 0-5.446zM82.723 45h8.714a2.723 2.723 0 0 1 0 5.446h-8.714a2.723 2.723 0 0 1 0-5.446zM41.723 96h8.714a2.723 2.723 0 0 1 0 5.446h-8.714a2.723 2.723 0 0 1 0-5.446zM82.723 96h8.714a2.723 2.723 0 0 1 0 5.446h-8.714a2.723 2.723 0 0 1 0-5.446z" fill="#CCC"/><path d="M15.4 98.766h103.481c.602 0 1.09.488 1.09 1.09v7.625a1.09 1.09 0 0 1-1.09 1.089H15.401a1.09 1.09 0 0 1-1.09-1.09v-7.624c0-.602.488-1.09 1.09-1.09z" fill="#DBDBDB"/><path d="M124 104.649V107c0 1.36-.16 2.682-.461 3.95H11.46A17.046 17.046 0 0 1 11 107v-2.351h113z" fill="#CDCDCD"/><path d="M18.668 36.678h95.856c.602 0 1.09.488 1.09 1.09v4.356a1.09 1.09 0 0 1-1.09 1.09H18.668a1.09 1.09 0 0 1-1.089-1.09v-4.357c0-.601.488-1.089 1.09-1.089z" fill="#DBDBDB"/><path d="M70.953 37.767h4.357c.602 0 1.09.488 1.09 1.09v4.357a1.09 1.09 0 0 1-1.09 1.089h-4.357a1.09 1.09 0 0 1-1.089-1.09v-4.356c0-.602.488-1.09 1.09-1.09zM97.096 37.767h4.357c.601 0 1.09.488 1.09 1.09v4.357a1.09 1.09 0 0 1-1.09 1.089h-4.357a1.09 1.09 0 0 1-1.09-1.09v-4.356c0-.602.488-1.09 1.09-1.09zM57.882 37.767h4.357c.602 0 1.09.488 1.09 1.09v4.357a1.09 1.09 0 0 1-1.09 1.089h-4.357a1.09 1.09 0 0 1-1.09-1.09v-4.356c0-.602.488-1.09 1.09-1.09zM44.81 37.767h4.358c.601 0 1.09.488 1.09 1.09v4.357a1.09 1.09 0 0 1-1.09 1.089H44.81a1.09 1.09 0 0 1-1.09-1.09v-4.356c0-.602.488-1.09 1.09-1.09zM31.74 37.767h4.357c.601 0 1.089.488 1.089 1.09v4.357a1.09 1.09 0 0 1-1.09 1.089H31.74a1.09 1.09 0 0 1-1.09-1.09v-4.356c0-.602.488-1.09 1.09-1.09zM84.024 37.767h4.358c.601 0 1.089.488 1.089 1.09v4.357a1.09 1.09 0 0 1-1.09 1.089h-4.357a1.09 1.09 0 0 1-1.089-1.09v-4.356c0-.602.488-1.09 1.09-1.09zM115.613 36.678v6.535h-5.446a1.09 1.09 0 0 1-1.09-1.089v-4.357c0-.601.488-1.089 1.09-1.089h5.446zM23.025 36.678c.602 0 1.09.488 1.09 1.09v4.356a1.09 1.09 0 0 1-1.09 1.09H17.58v-6.536h5.446z" fill="#CCC"/><path d="M15.4 42.124h102.392c.601 0 1.09.488 1.09 1.09v3.268a1.09 1.09 0 0 1-1.09 1.089H15.4a1.09 1.09 0 0 1-1.089-1.09v-3.267c0-.602.488-1.09 1.09-1.09z" fill="#CDCDCD"/><path stroke="#CDCDCD" stroke-width="2.179" stroke-linecap="round" stroke-linejoin="round" d="M20.847 37.767h93.677"/><path d="M88.09 53.017h22.82c.602 0 1.09.488 1.09 1.09v35.422a1.09 1.09 0 0 1-1.496 1.01l-10.597-4.268a1.09 1.09 0 0 0-.814 0L88.496 90.54A1.09 1.09 0 0 1 87 89.529V54.106c0-.601.488-1.089 1.09-1.089zM22.09 53.017h22.82c.602 0 1.09.488 1.09 1.09v35.422a1.09 1.09 0 0 1-1.496 1.01l-10.597-4.268a1.09 1.09 0 0 0-.814 0L22.496 90.54A1.09 1.09 0 0 1 21 89.529V54.106c0-.601.488-1.089 1.09-1.089z" fill="#FFF"/><g stroke="#CDCDCD" stroke-linecap="round" stroke-linejoin="round" stroke-width="2.618"><path d="M27 63.488L33.546 59l6.546 4.488M33.546 67.313v6.546M27.655 67.313v6.546M39.437 67.313v6.546M27 78.543h13.092"/></g><g stroke="#CDCDCD" stroke-linecap="round" stroke-linejoin="round" stroke-width="2.618"><path d="M93 63.488L99.546 59l6.546 4.488M99.546 67.313v6.546M93.655 67.313v6.546M105.437 67.313v6.546M93 78.543h13.092"/></g></g></svg>