<svg id="Layer_3" data-name="Layer 3" xmlns="http://www.w3.org/2000/svg" viewBox="0 0 135 124"><defs><style>.cls-2{fill:#895431}.cls-3{fill:#5ba51c}.cls-5{fill:#fecd92}.cls-7{fill:#a56644}.cls-8{fill:#fff}.cls-10{fill:#7ac625}</style></defs><path d="M124 28v80c0 .35 0 .69-.1 1a15.81 15.81 0 0 1-.5 2.5 16.52 16.52 0 0 1-1 2.75A17 17 0 0 1 107 124H28a17 17 0 0 1-17-17V28a17 17 0 0 1 17-17h79a17 17 0 0 1 17 17z" fill="#d8fdbc"/><path class="cls-2" d="M124 28v.86H92.56V11H107a17 17 0 0 1 17 17z"/><path class="cls-3" d="M66.57 111.73a2 2 0 0 1-1.37-.54l-4.7-4.4a2 2 0 0 1 2.73-2.92l4.7 4.4a2 2 0 0 1-1.36 3.46zM119.35 111.73a2 2 0 0 1-1.46-3.36l6.48-7a2 2 0 1 1 2.93 2.73l-6.48 7a2 2 0 0 1-1.47.63z"/><path d="M123.37 111.58a16.52 16.52 0 0 1-1 2.75A17 17 0 0 1 107 124H37.76l.49-.66a8.91 8.91 0 0 1 6.14-3.55 9 9 0 0 0 4.27-1.69 8.75 8.75 0 0 0 2.85-3.58l.4-.91.89-2z" fill="#a46647"/><circle class="cls-2" cx="83.28" cy="114.72" r="6.52"/><path class="cls-5" d="M116.37 19.93a9.72 9.72 0 0 1 9.72 9.72v8.14h-19.43v-8.14a9.72 9.72 0 0 1 9.71-9.72z" transform="rotate(52.19 116.384 28.865)"/><path d="M112.41 91.23v8H76.34a12.93 12.93 0 0 1-10.65-5.61L30.13 41.76 81.38 2a8.06 8.06 0 0 1 11.33 1.43l27.17 35-22.73 17.64a13 13 0 0 0-4.41 14.26l4.66 2.92 3.22 1.17a17.87 17.87 0 0 1 11.79 16.81z" fill="#e3a15f"/><path class="cls-5" d="M108 23.09l1.86 2.39a6.66 6.66 0 0 1-1.18 9.35l-4.52 3.51 4.27 5.51L123 32.54 114.82 22z"/><path class="cls-5" d="M83.77 68.16c-3.43-3.31.35-14.3 6-18.7l24.12-18.71 6 7.69-22.74 17.63a13.25 13.25 0 0 0-3.09 3.44 10.06 10.06 0 0 0 3.34 13.74v9S87.2 71.47 83.77 68.16z"/><path class="cls-7" d="M112.41 91.23v8H87v-9.51a18.24 18.24 0 0 1 10.4-16.47l3.22 1.17a17.87 17.87 0 0 1 11.79 16.81z"/><circle class="cls-8" cx="76.96" cy="68.23" r="3.38"/><circle class="cls-8" cx="76.78" cy="56.98" r="3.38"/><circle class="cls-8" cx="83.5" cy="46.35" r="3.38"/><circle class="cls-8" cx="92.84" cy="39.1" r="3.38"/><circle class="cls-8" cx="102.18" cy="31.85" r="3.38"/><path class="cls-7" d="M77 69.57a1.34 1.34 0 0 1 0-2.68l16.26-.2a1.34 1.34 0 0 1 0 2.68l-16.26.2zM93.05 64.54a1.36 1.36 0 0 1-.48-.09L76.3 58.23a1.34 1.34 0 0 1 1-2.51L93.53 62a1.34 1.34 0 0 1-.48 2.59zM94.43 60.29a1.35 1.35 0 0 1-1-.46L82.48 47.22a1.34 1.34 0 1 1 2-1.75l10.93 12.6a1.34 1.34 0 0 1-.1 1.93 1.36 1.36 0 0 1-.88.29zM102.68 53.12a1.35 1.35 0 0 1-1.06-.52l-9.84-12.68a1.34 1.34 0 0 1 2.12-1.64L103.74 51a1.34 1.34 0 0 1-.24 1.88 1.31 1.31 0 0 1-.82.24zM111.73 45.49a1.33 1.33 0 0 1-1.06-.51l-9.55-12.31a1.34 1.34 0 1 1 2.12-1.67l9.54 12.3a1.34 1.34 0 0 1-.23 1.88 1.36 1.36 0 0 1-.82.31zM44.26 62.34C53.78 55 59.63 41.92 58.11 30l-1.14-9-26.84 20.76z"/><path d="M112.63 99.2l-.22-.15v.15H78.72a12.91 12.91 0 0 1-10.64-5.62L46.64 62.34 32.39 41.59c-.84-1.07-2.39-2.05-3.39-1.23l-10.51 7.06a2 2 0 0 0-.35 2.77l1.09 1.4a2 2 0 0 0 2.76.35l.22-.17a3.2 3.2 0 0 1 4.32.29 3 3 0 0 1 .76 2.46 3.1 3.1 0 0 1-1.16 2.06l-.34.26a2 2 0 0 0-.36 2.74l1.4 1.81a2 2 0 0 0 2.76.35l.22-.17a3.19 3.19 0 0 1 4.32.29 3 3 0 0 1 .76 2.45 3.06 3.06 0 0 1-1.16 2.06l-.34.26a2 2 0 0 0-.39 2.76L34.32 71a2 2 0 0 0 2.76.35l1-.75a2.43 2.43 0 0 1 3.42.42l.58.86-.72-.9a3.13 3.13 0 0 1-.41 4.51l-.34.26a2 2 0 0 0-.36 2.76l1.29 1.66a2 2 0 0 0 2.76.34l1-.75a1.64 1.64 0 0 1 2.33.47l16.85 25.35a5.94 5.94 0 0 0 2.09 1.9 5.83 5.83 0 0 0 2.82.69 2.43 2.43 0 0 1 2.37 2.47v1a2 2 0 0 0 2 2.16h2.22a2 2 0 0 0 2-2v-.26a3.21 3.21 0 0 1 2.88-3.25 3.1 3.1 0 0 1 3.31 3.1v.41a2 2 0 0 0 2 2h2.27a2 2 0 0 0 2-2v-.27a3.21 3.21 0 0 1 2.88-3.25 3.07 3.07 0 0 1 2.41.91 3.1 3.1 0 0 1 .91 2.19v.41a2 2 0 0 0 2 2h2.26a2 2 0 0 0 2-2v-.26a3.21 3.21 0 0 1 2.88-3.25 3.07 3.07 0 0 1 2.41.91 3.1 3.1 0 0 1 .91 2.19v.41a2 2 0 0 0 2 2h2.26a2 2 0 0 0 2-2v-10.15a2.44 2.44 0 0 0-2.73-2.44z" fill="#4b4b4b"/><circle class="cls-5" cx="80.74" cy="23.51" r="11.82"/><path class="cls-10" d="M124 108c0 .35 0 .69-.1 1a15.81 15.81 0 0 1-.5 2.5 16.52 16.52 0 0 1-1 2.75H53.91a3.14 3.14 0 0 1-3.14-3.15 3.18 3.18 0 0 1 .91-2.22 3.12 3.12 0 0 1 2.23-.92z"/><path class="cls-10" d="M65.51 111.73a2 2 0 0 1-1.73-1l-2.57-4.4a2 2 0 0 1 3.45-2l2.57 4.4a2 2 0 0 1-.72 2.73 1.92 1.92 0 0 1-1 .27zM75.81 111.73a1.63 1.63 0 0 1-.31 0 2 2 0 0 1-1.67-2.28l1-6.45a2 2 0 1 1 4 .62l-1 6.45a2 2 0 0 1-2.02 1.66zM112.09 113.18a2.24 2.24 0 0 1-.57-.08 2 2 0 0 1-1.35-2.49l2.11-7.14a2 2 0 0 1 3.83 1.13l-2.11 7.15a2 2 0 0 1-1.91 1.43z"/><path class="cls-10" d="M115.81 113.15a2.07 2.07 0 0 1-.81-.15 2 2 0 0 1-1.07-2.62l4.06-9.74a2 2 0 1 1 3.69 1.54l-4.06 9.74a2 2 0 0 1-1.81 1.23z"/><circle class="cls-2" cx="59.87" cy="119.85" r="3.18"/><path class="cls-2" d="M72.65 123.43a2.12 2.12 0 0 1-.08.57H68.4a2.12 2.12 0 0 1-.08-.57 2.17 2.17 0 0 1 4.33 0z"/></svg>