<svg viewBox="0 0 135 124" fill="none" xmlns="http://www.w3.org/2000/svg"><path d="M107 11H28c-9.389 0-17 7.611-17 17v79c0 9.389 7.611 17 17 17h79c9.389 0 17-7.611 17-17V28c0-9.389-7.611-17-17-17z" fill="#FFA7DE"/><path d="M62 65C51 49.43 40.31 43 29 36.1c-9.36-5.65-19-11.46-28.1-22a3.59 3.59 0 0 1 3.2-5.91L9.24 9l1.22-6.11a3.58 3.58 0 0 1 6.18-1.68C23.59 9 31.08 13.53 39.5 18.62c12.08 7.29 25.78 15.56 39.19 34.64L62 65z" fill="#6F4BA2"/><path d="M73 65c10.94-15.57 21.67-22 33-28.9 9.36-5.65 19-11.46 28.1-22a3.594 3.594 0 0 0 .425-3.981A3.585 3.585 0 0 0 131 8.22l-5.24.78-1.22-6.11a3.582 3.582 0 0 0-6.18-1.68c-7 7.85-14.44 12.37-22.86 17.46-12.08 7.24-25.78 15.51-39.19 34.59L73 65z" fill="#6F4BA2"/><path d="M68.46 61.29c9.532 0 17.26-7.727 17.26-17.26 0-9.532-7.728-17.26-17.26-17.26-9.532 0-17.26 7.728-17.26 17.26 0 9.532 7.727 17.26 17.26 17.26z" fill="#9066CF"/><path d="M62.52 63.4a6.59 6.59 0 0 1-7.74.15 6.58 6.58 0 0 1-2.51-7.33 6.59 6.59 0 0 1-6.35-4.44l-.09-.31a6.56 6.56 0 0 1 2.37-7.16A6.58 6.58 0 0 1 45.69 37a6.56 6.56 0 0 1 6.2-4.63A6.58 6.58 0 0 1 54.16 25a6.59 6.59 0 0 1 7.75-.1A6.56 6.56 0 0 1 71.986 21.4a6.57 6.57 0 0 1 2.434 3.259 6.59 6.59 0 0 1 7.74-.13 6.571 6.571 0 0 1 2.5 7.33 6.58 6.58 0 0 1 6.401 8.52 6.59 6.59 0 0 1-2.341 3.33 6.57 6.57 0 0 1 .164 10.646A6.59 6.59 0 0 1 85 55.67a6.58 6.58 0 0 1-2.26 7.41 6.56 6.56 0 0 1-7.74.11 6.59 6.59 0 0 1-6.18 4.67h-.12a6.57 6.57 0 0 1-6.18-4.46zm-.2-10.62a6.5 6.5 0 0 1 2.45 3.27 6.5 6.5 0 0 1 3.86-1.33 6.5 6.5 0 0 1 3.91 1.2 6.55 6.55 0 0 1 2.34-3.35 6.59 6.59 0 0 1 3.86-1.32 6.56 6.56 0 0 1-.07-4.09A6.52 6.52 0 0 1 81 43.83a6.58 6.58 0 0 1-2.45-3.26 6.58 6.58 0 0 1-.06-4.09 6.52 6.52 0 0 1-3.9-1.19A6.57 6.57 0 0 1 72.16 32a6.5 6.5 0 0 1-3.86 1.33 6.57 6.57 0 0 1-3.91-1.21 6.52 6.52 0 0 1-2.34 3.34 6.57 6.57 0 0 1-3.86 1.32 6.56 6.56 0 0 1 .07 4.09 6.62 6.62 0 0 1-2.36 3.33 6.46 6.46 0 0 1 2.44 3.24c.004.02.004.04 0 .06a6.48 6.48 0 0 1 .07 4.08h.14a6.49 6.49 0 0 1 3.77 1.2z" fill="#9066CF"/><path d="M68.17 52.33h45.49v55.59a5.563 5.563 0 0 1-1.628 3.932 5.563 5.563 0 0 1-3.932 1.628H68.17V52.33z" fill="#fff"/><path d="M23.1 52.33h45.49v61.15H28.66a5.567 5.567 0 0 1-3.931-1.628 5.574 5.574 0 0 1-1.629-3.932V52.33z" fill="#EEE"/><path d="M68.16 41.22h43.69a5.561 5.561 0 1 1 0 11.12H68.16V41.22z" fill="#fff"/><path d="M24.77 41.22h43.69v11.11H24.77a5.56 5.56 0 0 1 0-11.12v.01zM113.66 52.33h-45.2v4.11h45.2v-4.11z" fill="#EEE"/><path d="M68.3 52.33H23.1v4.11h45.2v-4.11z" fill="#D0D0D0"/><path d="M51.33 40.94H40.08v72.54h11.25V40.94z" fill="#6F4BA2"/><path d="M96.54 40.94H85.29v72.54h11.25V40.94z" fill="#9066CF"/></svg>