<svg viewBox="0 0 135 124" fill="none" xmlns="http://www.w3.org/2000/svg"><g clip-path="url(#clip0)"><path fill-rule="evenodd" clip-rule="evenodd" d="M27.959 11h78.999c9.389 0 17 7.611 17 17v79c0 9.389-7.611 17-17 17h-79c-9.388 0-17-7.611-17-17V28c0-9.389 7.612-17 17-17z" fill="#FFCA00"/><path d="M122.273 20.93L20.753 122.45a16.937 16.937 0 0 0 7.08 1.56h41.32l54.68-54.68V28.01a16.938 16.938 0 0 0-1.56-7.08zm-72.12 48.14l58-58c-.43 0-.87-.07-1.31-.07h-48.59l-33.08 33.09c-6.903 6.904-6.903 18.097 0 25 6.904 6.904 18.097 6.904 25 0l-.02-.02z" fill="#FFD900"/><path fill-rule="evenodd" clip-rule="evenodd" d="M83.951 16.98l18.668 40.177A2 2 0 0 1 100.805 60h-38.37a2 2 0 0 1-1.828-2.813L78.49 17.024a3 3 0 0 1 5.462-.043z" fill="#FB8603"/><path fill-rule="evenodd" clip-rule="evenodd" d="M102.355 65h10a3 3 0 0 1 3 3v42h-16V68a3 3 0 0 1 3-3z" fill="#E27903"/><path fill-rule="evenodd" clip-rule="evenodd" d="M81.163 35.436l19.97 45.764A2 2 0 0 1 99.3 84H58.359a2 2 0 0 1-1.845-2.772l19.132-45.75a3 3 0 0 1 5.517-.042z" fill="#FB8603"/><path fill-rule="evenodd" clip-rule="evenodd" d="M82.853 4.514l14.5 33.288A3 3 0 0 1 94.603 42H67.858a3 3 0 0 1-2.769-4.156l13.901-33.3a2.1 2.1 0 0 1 3.864-.03z" fill="#FB8603"/><path d="M60.95 21.94l-3.535-3.536a1.5 1.5 0 0 0-2.12 0l-3.537 3.535a1.5 1.5 0 0 0 0 2.122l3.536 3.535a1.5 1.5 0 0 0 2.121 0l3.536-3.535a1.5 1.5 0 0 0 0-2.122zM48.719 36.793l-2.122-2.121a1 1 0 0 0-1.414 0l-2.121 2.12a1 1 0 0 0 0 1.415l2.121 2.121a1 1 0 0 0 1.414 0l2.122-2.12a1 1 0 0 0 0-1.415z" fill="#FFF1A2"/><path fill-rule="evenodd" clip-rule="evenodd" d="M107.066 124l-79.215-.001-.215-.002c-8.221-.153-15.015-6.142-16.413-13.997h112.471c-1.41 7.924-8.311 13.948-16.628 14zM20.506 73h7.87a3 3 0 0 1 3 3v34h-13.87V76a3 3 0 0 1 3-3z" fill="#E27903"/><path fill-rule="evenodd" clip-rule="evenodd" d="M27.971 54.234l19.94 38.383A3 3 0 0 1 45.25 97H6.199a3 3 0 0 1-2.685-4.337l19.11-38.383a3 3 0 0 1 5.347-.046z" fill="#E27903"/><path fill-rule="evenodd" clip-rule="evenodd" d="M27.967 40.918l17.845 32.643a3 3 0 0 1-2.633 4.44H8.233a3 3 0 0 1-2.657-4.393l17.101-32.643a3 3 0 0 1 5.29-.047z" fill="#E27903"/><path fill-rule="evenodd" clip-rule="evenodd" d="M26.59 25.395l13.279 29.79A2 2 0 0 1 38.042 58H11.855a2 2 0 0 1-1.84-2.786l12.726-29.789a2.1 2.1 0 0 1 3.849-.03zM108.039 15.508l13.648 31.293a3 3 0 0 1-2.75 4.2H93.86a3 3 0 0 1-2.768-4.158l13.085-31.305a2.1 2.1 0 0 1 3.862-.03z" fill="#E27903"/><path fill-rule="evenodd" clip-rule="evenodd" d="M108.525 48.218l22.602 43.396A3 3 0 0 1 128.466 96H84.205a3 3 0 0 1-2.684-4.34l21.659-43.396a3 3 0 0 1 5.345-.046z" fill="#E27903"/><path fill-rule="evenodd" clip-rule="evenodd" d="M109.109 35.195l16.943 32.415a3 3 0 0 1-2.658 4.39H90.213a3 3 0 0 1-2.682-4.344l16.237-32.415a3 3 0 0 1 5.341-.046z" fill="#E27903"/><path fill-rule="evenodd" clip-rule="evenodd" d="M81.92 53.475l26.868 54.189a1.692 1.692 0 0 1-1.517 2.445H54.184a1.693 1.693 0 0 1-1.692-1.743l1.642-56.302h25.511a2.54 2.54 0 0 1 2.275 1.411z" fill="#FF9600"/><path fill-rule="evenodd" clip-rule="evenodd" d="M56.434 53.543l25.35 54.155a1.693 1.693 0 0 1-1.532 2.411H28.017a1.693 1.693 0 0 1-1.534-2.411l25.351-54.155a2.54 2.54 0 0 1 4.6 0z" fill="#FFB100"/><path fill-rule="evenodd" clip-rule="evenodd" d="M53.778 82c9.251 0 16.895 7.22 17.422 16.457l.665 11.652H35.512l.74-11.658C36.837 89.2 44.51 82 53.777 82z" fill="#FFF1A2"/><path fill-rule="evenodd" clip-rule="evenodd" d="M53.243 80.604c10.285 0 18.622 8.338 18.622 18.622v11.004c-10.892-2.476-18.622-12.159-18.622-23.329v-6.297z" fill="#FFB100"/><path fill-rule="evenodd" clip-rule="evenodd" d="M54.134 80.604c-10.285 0-18.622 8.338-18.622 18.622v11.004c10.892-2.476 18.622-12.159 18.622-23.329v-6.297z" fill="#FFB100"/><path d="M53.867 61.783c.695 0 1.265.53 1.33 1.208l.006.129v26.061a1.336 1.336 0 0 1-2.667.129l-.006-.129V63.12c0-.738.599-1.337 1.337-1.337z" fill="#FF9600"/></g><defs><clipPath id="clip0"><path fill="#fff" d="M0 0h135v124H0z"/></clipPath></defs></svg>