<svg viewBox="0 0 135 124" version="1.1" xmlns="http://www.w3.org/2000/svg"><g stroke="none" stroke-width="1" fill="none" fill-rule="evenodd"><g fill-rule="nonzero"><g transform="translate(-.5 -1)"><path d="M108 12H29c-9.389 0-17 7.611-17 17v79c0 9.389 7.611 17 17 17h79c9.389 0 17-7.611 17-17V29c0-9.389-7.611-17-17-17z" fill="#E5E5E5"/><path d="M46.63.86C21.418.866.984 21.308.99 46.52c.006 25.212 20.448 45.646 45.66 45.64 25.212-.006 45.646-20.448 45.64-45.66A45.65 45.65 0 0 0 46.63.86zm0 77.9c-15.55-.004-28.882-11.104-31.705-26.396-2.823-15.291 5.668-30.42 20.191-35.975 14.524-5.556 30.944.043 39.047 13.314 8.104 13.271 5.584 30.435-5.993 40.817a32.26 32.26 0 0 1-21.54 8.24z" fill="#D1D1D1"/><path d="M129.45 27a2.56 2.56 0 0 1-1.18 1.38l-.07.05L112.07 37l-14.61-5-2-4.6-5.37-12.15v-.08a2.61 2.61 0 0 1-.09-1.82l19.83 6.86L129.45 27z" fill="#EFEFEF"/><path d="M109.81 20.21c-2.043 5.905-8.437 9.089-14.38 7.16l-5.34-12.12v-.08a2.61 2.61 0 0 1-.09-1.82l19.81 6.86z" fill="#DEDEDE"/><path d="M129.45 27L90 13.35a2.67 2.67 0 0 1 1.16-1.53l6-3.73a3.59 3.59 0 0 1 3.11-.35l24.6 8.51a3.56 3.56 0 0 1 2.23 2.2l2.41 6.63a2.55 2.55 0 0 1-.06 1.92z" fill="#EFEFEF"/><path d="M90.35 30.14A45.65 45.65 0 1 0 136 75.78a45.64 45.64 0 0 0-45.65-45.64zm0 77.92c-15.49.003-28.8-10.993-31.719-26.206C55.713 66.64 64.008 51.499 78.4 45.77c14.391-5.73 30.824-.432 39.16 12.624 8.335 13.056 6.224 30.192-5.03 40.836a32.28 32.28 0 0 1-22.18 8.83z" fill="#BFBFBF"/><circle fill="#EFEFEF" cx="98.97" cy="16.46" r="4.75"/><path d="M80.64 25.57c-.83.33-1.66.63-2.52.9-1.66.53-3.33 1.07-5 1.67a32.14 32.14 0 0 1 5.29 23.69c.51-.19 1-.35 1.55-.51a25.22 25.22 0 0 1 3.94-.79 23.18 23.18 0 0 1 3.81-.27h2a15.63 15.63 0 0 0 1.92-.2l.45-.05c.09-1.17.15-2.35.15-3.54a45.47 45.47 0 0 0-6.05-22.7c-.94.32-1.89.61-2.84.89s-1.79.55-2.7.91z" fill="#D1D1D1"/></g></g></g></svg>