<svg viewBox="0 0 135 124" version="1.1" xmlns="http://www.w3.org/2000/svg"><g stroke="none" stroke-width="1" fill="none" fill-rule="evenodd"><path d="M28 11h79c9.389 0 17 7.611 17 17v79c0 9.389-7.611 17-17 17H28c-9.389 0-17-7.611-17-17V28c0-9.389 7.611-17 17-17z" fill="#6F4EA1"/><path d="M124 90v17c0 9.389-7.611 17-17 17H28c-9.389 0-17-7.611-17-17V90h113z" fill="#9069CD"/><g transform="translate(-3 2)"><path d="M127 46h-22a1 1 0 0 0-1 1v41a1 1 0 0 0 1 1h21a1 1 0 0 0 1-1V46zM94.702 31H67.298a1 1 0 0 0-1 1v39a1 1 0 0 0 1 1h26.404a1 1 0 0 0 1-1V31z" fill="#4B4B4B"/><path fill="#D8D8D8" d="M23 67h31v22H23z"/><path fill="#4B4B4B" d="M14 78h113v12H14z"/><path d="M14 50h27a1 1 0 0 1 1 1v32H14V50z" fill="#4B4B4B"/><path d="M41 40h26a1 1 0 0 1 1 1v44H40V41a1 1 0 0 1 1-1z" fill="#4B4B4B"/><rect fill="#4B4B4B" x="20" y="29" width="15" height="33" rx="1"/><rect fill="#4B4B4B" x="49" y="0" width="10" height="33" rx="1"/><rect fill="#4B4B4B" x="45" y="20" width="18" height="33" rx="1"/><rect fill="#CE82FF" x="48" y="33" width="3" height="6" rx="1"/><rect fill="#CE82FF" x="48" y="24" width="3" height="6" rx="1"/><rect fill="#CE82FF" x="53" y="33" width="3" height="6" rx="1"/><rect fill="#CE82FF" x="70" y="35" width="3" height="6" rx="1"/><rect fill="#CE82FF" x="75" y="35" width="3" height="6" rx="1"/><rect fill="#CE82FF" x="70" y="43" width="3" height="6" rx="1"/><rect fill="#CE82FF" x="75" y="43" width="3" height="6" rx="1"/><rect fill="#CE82FF" x="83" y="35" width="3" height="6" rx="1"/><rect fill="#CE82FF" x="88" y="35" width="3" height="6" rx="1"/><rect fill="#CE82FF" x="107" y="49" width="3" height="6" rx="1"/><rect fill="#CE82FF" x="112" y="49" width="3" height="6" rx="1"/><rect fill="#CE82FF" x="120" y="49" width="3" height="6" rx="1"/><path d="M126 49h1v6h-1a1 1 0 0 1-1-1v-4a1 1 0 0 1 1-1z" fill="#CE82FF"/><rect fill="#CE82FF" x="83" y="43" width="3" height="6" rx="1"/><rect fill="#CE82FF" x="88" y="43" width="3" height="6" rx="1"/><rect fill="#CE82FF" x="43" y="44" width="3" height="6" rx="1"/><rect fill="#CE82FF" x="48" y="44" width="3" height="6" rx="1"/><rect fill="#CE82FF" x="23" y="33" width="3" height="6" rx="1"/><rect fill="#CE82FF" x="23" y="41" width="3" height="6" rx="1"/><rect fill="#CE82FF" x="17" y="55" width="3" height="6" rx="1"/><rect fill="#CE82FF" x="17" y="63" width="3" height="6" rx="1"/><rect fill="#CE82FF" x="23" y="55" width="3" height="6" rx="1"/><rect fill="#CE82FF" x="23" y="63" width="3" height="6" rx="1"/><rect fill="#CE82FF" x="53" y="24" width="3" height="6" rx="1"/><rect fill="#CE82FF" x="51" y="12" width="3" height="6" rx="1"/><rect fill="#CE82FF" x="51" y="3" width="3" height="6" rx="1"/><rect fill="#CE82FF" transform="rotate(45 89.5 17.95)" x="86" y="14.45" width="7" height="7" rx="1"/><rect fill="#CE82FF" transform="rotate(45 33.5 19.914)" x="31" y="17.414" width="5" height="5" rx="1"/><rect fill="#CE82FF" transform="rotate(45 114.5 33.5)" x="112" y="31" width="5" height="5" rx="1"/><path d="M124.644 67.113l-17.336 47.552a3.195 3.195 0 0 1-4.092 1.91l-23.122-8.402a5.483 5.483 0 0 0-2.995-7.677 5.497 5.497 0 0 0-7.04 3.285l-.055.159-51.056-18.552a3.187 3.187 0 0 1-1.904-4.089L34.38 33.75a3.195 3.195 0 0 1 4.092-1.911L89.62 50.424a5.483 5.483 0 0 0 2.819 7.994 5.497 5.497 0 0 0 7.196-3.79l23.104 8.396a3.187 3.187 0 0 1 1.905 4.09z" fill="#F7F7F7"/><path d="M124.745 66.837l-1.456 3.992-90.446-32.865 1.637-4.492a3.195 3.195 0 0 1 4.092-1.91l51.149 18.586a5.483 5.483 0 0 0 2.819 7.994 5.497 5.497 0 0 0 7.196-3.79l23.104 8.396a3.187 3.187 0 0 1 1.905 4.09zM108.996 110.033l-1.688 4.632a3.195 3.195 0 0 1-4.092 1.91l-23.122-8.402a5.483 5.483 0 0 0-2.995-7.678 5.497 5.497 0 0 0-7.04 3.286l-.055.159-51.056-18.552a3.187 3.187 0 0 1-1.904-4.089l1.506-4.13 90.446 32.864z" fill="#1CB0F6"/><path stroke="#D2D2D2" stroke-width="1.944" stroke-linecap="round" stroke-linejoin="round" stroke-dasharray="5.832" d="M89.203 64.827l-10.8 29.622"/><path d="M52.726 57.856l26.19 9.514a1.688 1.688 0 0 1 1.01 2.164 1.692 1.692 0 0 1-2.167 1.01l-26.191-9.513a1.688 1.688 0 0 1-1.01-2.165 1.692 1.692 0 0 1 2.168-1.01zM50.41 64.206L76.6 73.72a1.688 1.688 0 0 1 1.01 2.164 1.692 1.692 0 0 1-2.167 1.01l-26.191-9.513a1.688 1.688 0 0 1-1.01-2.165 1.692 1.692 0 0 1 2.168-1.01zM48.094 70.556l26.191 9.514a1.688 1.688 0 0 1 1.01 2.164 1.692 1.692 0 0 1-2.168 1.01l-26.19-9.513a1.688 1.688 0 0 1-1.01-2.165 1.692 1.692 0 0 1 2.167-1.01z" fill="#D2D2D2"/><rect fill="#316EBD" transform="rotate(20 101.614 82.832)" x="92.16" y="72.477" width="18.908" height="20.709" rx="3.969"/><path d="M99.275 75.53l9.063 3.299a2.268 2.268 0 0 1 1.356 2.907l-.675 1.853a2.268 2.268 0 0 1-2.907 1.356l-9.063-3.299a2.268 2.268 0 0 1-1.356-2.907l.675-1.853a2.268 2.268 0 0 1 2.907-1.356z" fill="#F7F7F7"/><rect fill="#F7F7F7" transform="rotate(20 104.553 74.891)" x="102.053" y="74.004" width="5" height="1.775" rx=".85"/><path d="M102.02 87.18a1.18 1.18 0 0 0-1.507-.528l-.092.045-13.284 7.128a1.184 1.184 0 0 0-.484 1.602c.292.545.95.768 1.508.528l.092-.045 13.283-7.128a1.184 1.184 0 0 0 .485-1.602z" fill="#316EBD" fill-rule="nonzero"/><path d="M99.268 86.178a1.18 1.18 0 0 1 1.494.565l.042.093 5.594 14a1.184 1.184 0 0 1-.658 1.538 1.18 1.18 0 0 1-1.495-.565l-.042-.093-5.594-14a1.184 1.184 0 0 1 .659-1.538z" fill="#316EBD" fill-rule="nonzero"/><ellipse fill="#F7F7F7" transform="rotate(31 104.538 89.464)" cx="104.538" cy="89.464" rx="2.068" ry="2.071"/><ellipse fill="#F7F7F7" transform="rotate(31 95.099 86.028)" cx="95.099" cy="86.028" rx="2.068" ry="2.071"/><rect fill="#316EBD" transform="rotate(20 98.103 92.612)" x="92.603" y="91.133" width="11" height="2.958" rx="1.417"/><rect fill="#316EBD" transform="rotate(20 36.418 60.6)" x="29.666" y="53.838" width="13.506" height="13.524" rx="3.24"/><rect fill="#CE82FF" transform="rotate(45 75.5 23.5)" x="73" y="21" width="5" height="5" rx="1"/></g></g></svg>