<svg viewBox="0 0 135 124" fill="none" xmlns="http://www.w3.org/2000/svg"><path d="M11 28c0-9.389 7.611-17 17-17h79c9.389 0 17 7.611 17 17v79c0 9.389-7.611 17-17 17H28c-9.389 0-17-7.611-17-17V28z" fill="#FEC701"/><path fill-rule="evenodd" clip-rule="evenodd" d="M64.756 27.337c8.2 8.201 8.2 21.497 0 29.698l-53.407 53.407a17.071 17.071 0 0 1-.348-3.442L11 51.393l24.057-24.056c8.201-8.201 21.498-8.201 29.699 0zM124 28.393v35.355l-8.995 8.996c-4.881 4.882-12.796 4.882-17.677 0-4.882-4.881-4.882-12.796 0-17.677L124 28.393z" fill="#FFD900"/><path d="M57.209 50.084c-9.419-.154-16.946-7.848-16.927-17.236l-1.288-.627a17.166 17.166 0 0 1-12.923 5.529c-9.503-.156-17.08-7.986-16.924-17.49.157-9.502 7.987-17.08 17.49-16.923 6.507.107 12.11 3.812 14.947 9.188a7.28 7.28 0 0 0 9.285 4.385l.081.046a17.153 17.153 0 0 1 6.824-1.285c9.503.157 17.08 7.987 16.924 17.49-.156 9.502-7.986 17.08-17.49 16.923z" fill="#F68B00"/><path d="M38.653 36.352c-.157 9.503-7.987 17.08-17.49 16.924-9.502-.157-17.08-7.987-16.923-17.49.156-9.503 7.986-17.08 17.489-16.924 9.503.157 17.08 7.987 16.924 17.49z" fill="#F68B00"/><path d="M14.78 51.76a5.237 5.237 0 1 1-10.434.923 5.237 5.237 0 0 1 10.434-.924zM78.198 46.145a5.237 5.237 0 1 1-10.433.924 5.237 5.237 0 0 1 10.433-.924z" fill="#FFB100"/><path fill-rule="evenodd" clip-rule="evenodd" d="M10.636 58.946C9.107 41.658 21.88 26.403 39.169 24.872c17.288-1.53 32.543 11.244 34.073 28.532l.957 10.812c.585 6.602-4.293 12.427-10.895 13.011l-38.698 3.426c-6.602.584-12.427-4.294-13.011-10.895l-.957-10.812z" fill="#FFB100"/><path d="M9.976 51.48L8.023 29.417a7.686 7.686 0 0 1 10.804 6.337l.672 7.588a7.686 7.686 0 0 1-9.523 8.136zM70.704 24.737l1.812 20.476a7.686 7.686 0 0 1-10.54-6.449l-.516-5.827a7.686 7.686 0 0 1 9.244-8.2z" fill="#F68B00"/><path d="M36.538 62.588l-.096.006c-2.911.204-4.895-.501-6.174-2.084l-.058-.073c-2.021-2.588-5.712-3.026-8.243-.98-2.53 2.047-2.944 5.804-.923 8.392 3.911 5.007 9.705 7.123 16.255 6.665 3.23-.226 5.657-3.078 5.42-6.37-.234-3.258-2.991-5.726-6.18-5.556z" fill="#FFF1A2"/><path fill-rule="evenodd" clip-rule="evenodd" d="M27.498 43.033A6.424 6.424 0 1 1 40.296 41.9l.346 3.892a6.424 6.424 0 1 1-12.797 1.133l-.346-3.892z" fill="#FFF1A2"/><path fill-rule="evenodd" clip-rule="evenodd" d="M32.816 42.838a2.884 2.884 0 0 1 5.745-.509l.32 3.609a2.884 2.884 0 0 1-5.745.509l-.32-3.609z" fill="#F68B00"/><path fill-rule="evenodd" clip-rule="evenodd" d="M55.63 40.542a6.424 6.424 0 1 0-12.797 1.133l.345 3.892a6.424 6.424 0 0 0 12.797-1.133l-.344-3.892z" fill="#FFF1A2"/><path fill-rule="evenodd" clip-rule="evenodd" d="M50.77 41.249a2.884 2.884 0 1 0-5.745.509l.319 3.607a2.884 2.884 0 1 0 5.745-.509l-.32-3.607z" fill="#F68B00"/><path d="M41.899 66.334a8.447 8.447 0 1 0-1.49-16.828l-9.5.841a8.447 8.447 0 1 0 1.49 16.828l9.5-.84z" fill="#F68B00"/><path d="M43.374 67.193a8.447 8.447 0 0 1 5.484-15.98l6.959 2.389a8.447 8.447 0 0 1-5.484 15.98l-6.959-2.39z" fill="#F68B00"/><path fill-rule="evenodd" clip-rule="evenodd" d="M20.905 34.998l19.407-1.718.828 9.364-19.406 1.718-.829-9.364z" fill="#FFB100"/><path fill-rule="evenodd" clip-rule="evenodd" d="M38.775 31.364l18.321-1.622.829 9.364-18.32 1.622-.83-9.364z" fill="#FFB100"/><path fill-rule="evenodd" clip-rule="evenodd" d="M40.93 39.732a3.27 3.27 0 0 1 3.323-3.215l10.216.168a3.27 3.27 0 0 1-.107 6.539l-10.217-.169a3.27 3.27 0 0 1-3.215-3.323zM24.733 34.387a3.27 3.27 0 0 1 2.515-3.88l8.527-1.822a3.27 3.27 0 0 1 1.366 6.395l-8.527 1.822a3.27 3.27 0 0 1-3.88-2.515z" fill="#F68B00"/><path d="M46.303 49.983a3.951 3.951 0 1 1-7.87.697 3.951 3.951 0 0 1 7.87-.697z" fill="#FFB100"/><path d="M105.935 102.931a3.894 3.894 0 0 1-3.561-4.2l2.201-26.775a3.894 3.894 0 0 1 7.761.638l-2.201 26.775a3.894 3.894 0 0 1-4.2 3.562z" fill="#FF9600"/><path d="M76.536 81.567a3.115 3.115 0 0 1 3.36-2.85l34.535 2.84a3.115 3.115 0 0 1 2.85 3.359l-2.251 27.386a3.114 3.114 0 0 1-3.36 2.849l-34.536-2.838a3.115 3.115 0 0 1-2.85-3.36l2.252-27.386z" fill="#FFB100"/><path d="M96.906 83.241a3.115 3.115 0 0 1 3.36-2.849l26.581 2.185a3.115 3.115 0 0 1 2.849 3.36l-2.251 27.386a3.115 3.115 0 0 1-3.359 2.849l-26.582-2.185a3.115 3.115 0 0 1-2.849-3.36l2.251-27.386z" fill="#FF9600"/><path d="M100.282 86.254a1.168 1.168 0 0 1 1.26-1.069l23.265 1.912a1.168 1.168 0 0 1 1.069 1.26l-1.307 15.904a1.169 1.169 0 0 1-1.26 1.069l-23.266-1.912a1.168 1.168 0 0 1-1.068-1.26l1.307-15.904zM98.679 105.759a1.168 1.168 0 0 1 1.26-1.069l5.331.438a1.17 1.17 0 0 1 1.069 1.26l-.231 2.808a1.168 1.168 0 0 1-1.26 1.068l-5.331-.438a1.168 1.168 0 0 1-1.069-1.26l.23-2.807zM107.646 106.496a1.169 1.169 0 0 1 1.26-1.069l5.331.438a1.168 1.168 0 0 1 1.068 1.26l-.23 2.808a1.168 1.168 0 0 1-1.26 1.068l-5.331-.438a1.169 1.169 0 0 1-1.069-1.26l.231-2.807zM116.613 107.233a1.169 1.169 0 0 1 1.26-1.069l5.331.438a1.168 1.168 0 0 1 1.068 1.26l-.23 2.808a1.168 1.168 0 0 1-1.26 1.068l-5.332-.438a1.168 1.168 0 0 1-1.068-1.26l.231-2.807z" fill="#F68B00"/><path d="M89.431 70.711a3.893 3.893 0 0 1 4.2-3.561l15.144 1.245a3.893 3.893 0 1 1-.638 7.76l-15.144-1.244a3.893 3.893 0 0 1-3.562-4.2z" fill="#FF9600"/><path d="M87.297 70.536a3.894 3.894 0 0 1 4.2-3.561l7.58.623a3.893 3.893 0 1 1-.638 7.761l-7.58-.624a3.894 3.894 0 0 1-3.561-4.199z" fill="#FFB100"/><path d="M79.634 69.906a3.894 3.894 0 0 1 4.2-3.561l9.014.74a3.894 3.894 0 0 1-.638 7.761l-9.015-.74a3.894 3.894 0 0 1-3.561-4.2zM73.646 91.51a4.672 4.672 0 0 1 5.04-4.274l8.633.71a4.672 4.672 0 0 1 4.274 5.04l-.589 7.16a4.672 4.672 0 0 1-5.039 4.274l-8.634-.709a4.673 4.673 0 0 1-4.274-5.04l.589-7.16z" fill="#F68B00"/><path d="M53.9 84.06a4.672 4.672 0 0 1 5.039-4.274l21.245 1.746a4.672 4.672 0 0 1 4.274 5.04l-1.54 18.737a4.672 4.672 0 0 1-5.04 4.274l-21.245-1.746a4.672 4.672 0 0 1-4.274-5.039L53.9 84.06z" fill="#FF9600"/><path d="M61.73 87.405a1.558 1.558 0 0 1 1.68-1.424l14.843 1.22c.857.07 1.495.822 1.424 1.68L78.58 102.25a1.557 1.557 0 0 1-1.68 1.425l-14.843-1.22a1.557 1.557 0 0 1-1.425-1.68l1.1-13.37z" fill="#FFD900"/><path opacity=".6" d="M105.255 24.401a1 1 0 0 1 1.757.399l1.19 5.176a1 1 0 0 0 .624.713l4.974 1.862a1 1 0 0 1 .164 1.794l-4.555 2.732a1 1 0 0 0-.485.813l-.234 5.306a1 1 0 0 1-1.656.71l-4.005-3.488c-.254-.22-.6-.3-.924-.21l-5.119 1.418A1 1 0 0 1 95.8 40.27l2.08-4.887a1 1 0 0 0-.086-.943l-2.93-4.43a1 1 0 0 1 .922-1.548l5.291.468a1 1 0 0 0 .871-.374l3.308-4.155zM35.185 90.969a1 1 0 0 1 1.757.399l1.19 5.176a1 1 0 0 0 .624.713l4.974 1.862a1 1 0 0 1 .164 1.794l-4.556 2.731c-.288.173-.47.479-.485.814l-.234 5.306a1 1 0 0 1-1.655.71l-4.006-3.488c-.253-.22-.6-.299-.923-.21l-5.12 1.418a1 1 0 0 1-1.186-1.356l2.08-4.887a1 1 0 0 0-.086-.943l-2.93-4.43a1 1 0 0 1 .922-1.548l5.291.468a1 1 0 0 0 .87-.374l3.309-4.155zM87.307 45.397a1 1 0 0 1 1.712-.56l1.975 2.058a1 1 0 0 0 .901.29l2.805-.512a1 1 0 0 1 1.061 1.456l-1.346 2.514a1 1 0 0 0 .002.947l1.354 2.509a1 1 0 0 1-1.056 1.46l-2.807-.504a1 1 0 0 0-.9.294l-1.968 2.063a1 1 0 0 1-1.714-.553l-.389-2.825a1 1 0 0 0-.558-.766l-2.57-1.233a1 1 0 0 1-.003-1.802l2.566-1.242a1 1 0 0 0 .556-.768l.379-2.826z" fill="#fff"/></svg>