<svg viewBox="0 0 135 124" fill="none" xmlns="http://www.w3.org/2000/svg"><path d="M11 28c0-9.389 7.611-17 17-17h79c9.389 0 17 7.611 17 17v79c0 9.389-7.611 17-17 17H28c-9.389 0-17-7.611-17-17V28z" fill="#E5E5E5"/><path d="M81.444 18.914c0 7.59-6.19 13.744-13.824 13.744-7.635 0-13.824-6.153-13.824-13.744S59.986 5.169 67.62 5.169c7.634 0 13.824 6.154 13.824 13.745z" fill="#959595"/><path fill-rule="evenodd" clip-rule="evenodd" d="M22.493 64.545c0-15.768 12.783-28.55 28.55-28.55h32.943c15.767 0 28.55 12.782 28.55 28.55s-12.783 28.55-28.55 28.55H51.043c-15.768 0-28.55-12.782-28.55-28.55z" fill="#959595"/><path d="M112.31 68.153c-1.774 14.065-13.779 24.942-28.325 24.942H51.044c-14.545 0-26.55-10.877-28.324-24.942h89.591z" fill="#fff"/><path d="M32.507 49.632a2.673 2.673 0 0 1 2.672-2.673h65.364a2.672 2.672 0 0 1 2.672 2.673v47.137c0 6.628-5.372 12-12 12H44.507c-6.628 0-12-5.372-12-12V49.632z" fill="#D1D1D1"/><path d="M43.468 44.416h51.64v8.422h-51.64v-8.422z" fill="#959595"/><path fill-rule="evenodd" clip-rule="evenodd" d="M52.207 68.313a7.373 7.373 0 0 1 14.746 0v4.549a7.373 7.373 0 0 1-14.746 0v-4.55z" fill="#fff"/><path fill-rule="evenodd" clip-rule="evenodd" d="M58.276 68.58a3.32 3.32 0 1 1 6.641 0v4.171a3.32 3.32 0 1 1-6.641 0v-4.17z" fill="#959595"/><path d="M61.099 65.965a2.431 2.431 0 1 1-4.863 0 2.431 2.431 0 0 1 4.863 0z" fill="#fff"/><path fill-rule="evenodd" clip-rule="evenodd" d="M84.41 68.313a7.373 7.373 0 1 0-14.746 0v4.549a7.373 7.373 0 1 0 14.746 0v-4.55z" fill="#fff"/><path d="M70.557 65.965a2.431 2.431 0 1 0 4.863 0 2.431 2.431 0 0 0-4.863 0z" fill="#fff"/><path fill-rule="evenodd" clip-rule="evenodd" d="M51.123 75.878s12.44.865 17.13 3.756c4.691 2.891-7.9 16.741-7.9 16.741l-14.025-12.04 4.795-8.457z" fill="#D1D1D1"/><path fill-rule="evenodd" clip-rule="evenodd" d="M86.66 76.355s-12.44.865-17.131 3.756c-4.691 2.892 7.9 16.742 7.9 16.742l14.025-12.04-4.795-8.458z" fill="#D1D1D1"/><path fill-rule="evenodd" clip-rule="evenodd" d="M61.239 103.898a.784.784 0 0 1 1.083-.238l-.423.66.423-.661h-.001l.009.005.04.025c.039.023.098.058.178.102.158.088.396.213.702.352.612.28 1.488.616 2.537.84 2.094.447 4.848.442 7.607-1.323a.784.784 0 1 1 .845 1.321c-3.2 2.048-6.404 2.043-8.78 1.536a13.903 13.903 0 0 1-2.862-.947 11.961 11.961 0 0 1-1.032-.535l-.061-.037-.018-.011-.006-.004-.002-.001v-.001l.421-.661-.422.661a.784.784 0 0 1-.238-1.083zm1.082-.239z" fill="silver"/><path opacity=".626" fill-rule="evenodd" clip-rule="evenodd" d="M92.654 70.015c.167.4-.022.86-.422 1.026l-4.038 1.682 4.055 1.803a.784.784 0 1 1-.637 1.433l-5.72-2.542a.784.784 0 0 1 .016-1.44l5.72-2.384c.4-.167.86.022 1.026.422zM42.745 70.015c-.166.4.023.86.423 1.026l4.038 1.682-4.055 1.803a.784.784 0 1 0 .637 1.433l5.72-2.542a.784.784 0 0 0-.017-1.44l-5.72-2.384a.784.784 0 0 0-1.026.422z" fill="silver"/><path fill-rule="evenodd" clip-rule="evenodd" d="M25.54 52.478a7.451 7.451 0 0 1 7.337-6.155h8.226a7.451 7.451 0 0 1 7.451 7.452V60.8a7.451 7.451 0 0 1-7.45 7.45h-9.469c-4.634 0-8.144-4.184-7.337-8.747l1.241-7.025zM87.165 52.98a7.451 7.451 0 0 1 7.451-7.45h7a7.452 7.452 0 0 1 7.386 6.465l1.043 7.82c.596 4.467-2.879 8.436-7.385 8.436h-8.044a7.451 7.451 0 0 1-7.451-7.45v-7.82zM51.393 59.958a2.383 2.383 0 0 1 .6-3.317c3.183-2.208 6.475-2.42 8.89-2.103a14.46 14.46 0 0 1 2.926.7 12.225 12.225 0 0 1 1.11.455l.079.039.027.014.01.005.005.002.002.001c.001 0 .002.001-1.094 2.118l1.096-2.117a2.383 2.383 0 0 1-2.179 4.24l-.013-.007a7.435 7.435 0 0 0-.633-.257 9.703 9.703 0 0 0-1.955-.467c-1.6-.21-3.605-.058-5.554 1.293a2.384 2.384 0 0 1-3.317-.6zm11.46.03z" fill="#959595"/><path fill-rule="evenodd" clip-rule="evenodd" d="M69.209 60.783h16.684v8.103L69.209 65.17v-4.387z" fill="#D1D1D1"/><path fill-rule="evenodd" clip-rule="evenodd" d="M68.336 81.385A3.58 3.58 0 0 0 71.91 77.8c0-1.98-3.575-6.664-3.575-6.664S64.76 75.819 64.76 77.8a3.58 3.58 0 0 0 3.575 3.585z" fill="#959595"/><path d="M78.515 49.502l3.301 5.72c1.468 2.54-.367 5.718-3.301 5.718-2.935 0-4.77-3.177-3.302-5.719l3.302-5.719zM102.586 31.993l-1.709-6.378c-.759-2.835 1.835-5.43 4.67-4.67 2.835.76 3.784 4.303 1.709 6.379l-4.67 4.669zM32.653 31.993l1.709-6.378c.76-2.835-1.834-5.43-4.67-4.67-2.834.76-3.784 4.303-1.709 6.379l4.67 4.669zM105.452 37.813l5.719-3.302c2.542-1.467 5.719.367 5.719 3.302s-3.177 4.77-5.719 3.302l-5.719-3.302zM29.787 37.813l-5.719-3.302c-2.541-1.467-5.718.367-5.718 3.302s3.177 4.77 5.718 3.302l5.72-3.302z" fill="#fff"/><path d="M57.928 88.381a2.65 2.65 0 0 1 2.65-2.65h15.623a2.65 2.65 0 1 1-.786 5.182l-5.077-1.577a6.567 6.567 0 0 0-3.896 0l-5.077 1.577a2.65 2.65 0 0 1-3.438-2.532z" fill="#959595"/><path fill-rule="evenodd" clip-rule="evenodd" d="M78.73 68.58a3.32 3.32 0 1 0-6.641 0v4.17a3.32 3.32 0 0 0 6.641 0v-4.17z" fill="#959595"/><path fill-rule="evenodd" clip-rule="evenodd" d="M68.125 61.616a2.5 2.5 0 0 1 3.527.241c.86.987 5.054 4.018 12.866 4.018a2.5 2.5 0 0 1 0 5c-8.988 0-14.661-3.469-16.635-5.732a2.5 2.5 0 0 1 .242-3.527z" fill="#959595"/></svg>