<svg viewBox="0 0 136 124" fill="none" xmlns="http://www.w3.org/2000/svg"><rect x="12.502" y="11" width="113" height="113" rx="17" fill="#E5E5E5"/><path d="M84.98 60.258l-11.445-17.07c-.486-.725-1.462-.965-2.14-.417-4.874 3.936-3.82 11.53-2.337 14.815.036.081.08.157.131.23 3.906 5.593 10.638 5.614 14.854 4.843 1.105-.202 1.563-1.468.938-2.401z" fill="#BFBFBF"/><path d="M10.346 37.693h.002c-.699-5.185 2.875-10.001 8.069-10.814l44.9-7.023c5.193-.812 10.067 2.683 10.985 7.833h.002l6.866 43.897a3.338 3.338 0 0 0 3.814 2.782l6.475-1.013a1.39 1.39 0 0 1 1.589 1.159c1.16 7.423-3.916 14.382-11.339 15.543l-59.37 9.287c-7.423 1.161-14.382-3.916-15.543-11.339a1.39 1.39 0 0 1 1.16-1.589l6.474-1.013a3.338 3.338 0 0 0 2.782-3.813l-6.866-43.897z" fill="#BFBFBF"/><path d="M15.35 38.188l54.338-8.5 8.481 54.221-54.338 8.5-8.481-54.222z" fill="#D1D1D1"/><path d="M16.572 62.965a6.07 6.07 0 1 0-1.876-11.993 6.07 6.07 0 0 0 1.876 11.993zM76.092 53.655a6.07 6.07 0 1 0-1.876-11.992 6.07 6.07 0 0 0 1.876 11.992z" fill="#D1D1D1"/><path d="M21.319 93.793a1.669 1.669 0 0 1 1.39-1.906l56.371-8.818c.91-.142 1.765.48 1.907 1.391l.874 5.586c.142.91-.48 1.764-1.391 1.907l-56.371 8.817a1.668 1.668 0 0 1-1.907-1.39l-.873-5.587z" fill="#959595"/><path d="M12.565 51.733c.64-.376 1.36-.64 2.137-.761a6.069 6.069 0 0 1 5.836 2.41 6.765 6.765 0 0 0 1.58-5.495l-1.313-8.396-9.912 1.55 1.672 10.692zM69.398 45.747a6.07 6.07 0 0 1 7.077-4.016l-1.672-10.687-9.912 1.55 1.313 8.397a6.765 6.765 0 0 0 3.194 4.756z" fill="#BFBFBF"/><path d="M8.299 36.218a1.669 1.669 0 0 1 1.39-1.907l64.208-10.043c.91-.142 1.764.48 1.906 1.391l.712 4.55c.142.91-.48 1.764-1.39 1.906L10.916 42.16a1.669 1.669 0 0 1-1.906-1.391l-.712-4.55z" fill="#959595"/><path d="M48.069 88.852a1.202 1.202 0 0 1 1.012-1.09l3.625-.567a1.202 1.202 0 0 1 1.296.729l3.934 9.542a1.202 1.202 0 0 1-.925 1.645l-8.391 1.312a1.201 1.201 0 0 1-1.384-1.284l.833-10.287z" fill="#fff"/><path fill-rule="evenodd" clip-rule="evenodd" d="M73.902 71.8a.89.89 0 0 1 .095 1.255c-3.17 3.69-7.93 4.096-9.943 3.847a.89.89 0 0 1 .22-1.767c1.67.207 5.731-.165 8.373-3.24a.89.89 0 0 1 1.255-.095zM42.719 60.66a.89.89 0 0 1 .133 1.251c-3.258 4.037-7.792 4.777-10.207 4.497a.89.89 0 0 1 .205-1.768c1.938.224 5.818-.379 8.617-3.847a.89.89 0 0 1 1.252-.133z" fill="#BFBFBF"/><path d="M45.385 51.464a8.831 8.831 0 1 1-17.45 2.73 8.831 8.831 0 0 1 17.45-2.73z" fill="#fff"/><path d="M45.143 51.502a8.831 8.831 0 1 0 17.45-2.73 8.831 8.831 0 0 0-17.45 2.73z" fill="#fff"/><path d="M43.064 51.827a2.27 2.27 0 1 1-4.485.702 2.27 2.27 0 0 1 4.485-.702zM47.464 51.139a2.27 2.27 0 1 0 4.485-.702 2.27 2.27 0 0 0-4.485.702z" fill="#959595"/><path fill-rule="evenodd" clip-rule="evenodd" d="M61.169 67.556c-1.294 1.085-2.407 2.984-2.95 4.464a5.285 5.285 0 1 1-9.922-3.644c.938-2.552 2.917-6.267 6.084-8.921 1.64-1.374 3.76-2.595 6.339-3.041 2.645-.457 5.38-.03 8.041 1.298a5.285 5.285 0 0 1-4.717 9.458c-.82-.409-1.283-.383-1.524-.341-.306.053-.76.232-1.351.727z" fill="#959595"/><path fill-rule="evenodd" clip-rule="evenodd" d="M64.18 73.629a5.436 5.436 0 0 0-.217.5c-2.17 5.912-8.724 8.945-14.636 6.774-5.912-2.171-8.945-8.724-6.773-14.636 1.164-3.172 3.645-7.94 7.897-11.502 2.244-1.88 5.33-3.707 9.226-4.38 4.039-.699 8.09-.007 11.815 1.85 5.636 2.812 7.927 9.659 5.116 15.295-2.347 4.706-7.508 7.08-12.428 6.099zm-5.96-1.61c.543-1.48 1.655-3.378 2.95-4.463.59-.495 1.044-.674 1.35-.727.241-.042.704-.068 1.524.341a5.285 5.285 0 0 0 4.717-9.458c-2.66-1.327-5.396-1.755-8.041-1.298-2.58.446-4.7 1.667-6.339 3.04-3.167 2.655-5.146 6.37-6.083 8.922a5.285 5.285 0 1 0 9.921 3.644z" fill="#D1D1D1"/><path d="M70.725 59.4a5.261 5.261 0 0 0-1.965-1.688c-2.66-1.327-5.396-1.755-8.04-1.298-2.58.446-4.7 1.667-6.34 3.04-1.176.986-2.189 2.119-3.045 3.283.441.282.983.41 1.54.322l2.714-.424a2.226 2.226 0 0 0 1.816-1.663 2.226 2.226 0 0 0 2.237 1.029l2.714-.425a2.226 2.226 0 0 0 1.816-1.662 2.226 2.226 0 0 0 2.237 1.028l2.714-.424c.705-.11 1.28-.54 1.602-1.119z" fill="#fff"/><path d="M47.974 70.055c.934-.443 1.946-.76 3.018-.927a10.98 10.98 0 0 1 7.757 1.678c-.21.419-.39.83-.53 1.213a5.285 5.285 0 0 1-10.245-1.964z" fill="#BFBFBF"/><path d="M45.472 52.815c.143-.023 1.722 1.788 3.34 3.693 1.609 1.896.507 4.806-1.95 5.19-2.458.385-4.397-2.05-3.443-4.347.959-2.308 1.91-4.514 2.053-4.536z" fill="#959595"/><path d="M34.269 10.46l-.925-5.023c-.173-.997-1.034-1.388-1.927-.914-4.292 2.278-6.687 7.134-5.836 12.05a11.522 11.522 0 0 0 .138.678 11.266 11.266 0 0 0-6.29 2.118c-.82.592-.85 1.538-.031 2.133l8.823 6.566c2.445 5.528 8.372 8.953 14.628 7.975 7.466-1.168 12.572-8.167 11.404-15.633-1.168-7.466-8.167-12.572-15.633-11.404a13.662 13.662 0 0 0-4.351 1.455z" fill="#BFBFBF"/><path d="M25.631 55.655a1.942 1.942 0 1 1-3.837.6 1.942 1.942 0 0 1 3.837-.6zM67.166 39.035a1.942 1.942 0 1 1-3.837.6 1.942 1.942 0 0 1 3.837-.6zM23.913 60.746l2.616 1.987c2.22 1.686 1.33 5.21-1.423 5.641-2.754.43-4.677-2.654-3.078-4.937l1.885-2.691z" fill="#fff"/><path fill-rule="evenodd" clip-rule="evenodd" d="M50.269 34.974a2.781 2.781 0 0 0 1.9 3.445c2.625.759 5.579.824 7.312.663a2.781 2.781 0 0 0-.516-5.539c-1.227.114-3.454.051-5.252-.468a2.781 2.781 0 0 0-3.444 1.9zM37.835 40.939a2.781 2.781 0 0 1-.757 3.86c-2.268 1.525-5.061 2.489-6.76 2.864a2.782 2.782 0 0 1-1.201-5.431c1.203-.266 3.305-1.006 4.858-2.05a2.781 2.781 0 0 1 3.86.757z" fill="#BFBFBF"/><path d="M129.827 67.886c4.339-5.952 2.783-14.326-3.404-18.323-6.186-3.997-14.46-1.972-18.102 4.43l-5.953 10.462a3.956 3.956 0 0 0 1.291 5.28l13.734 8.872a3.956 3.956 0 0 0 5.344-.993l7.09-9.728z" fill="#D1D1D1"/><path d="M113.387 81.694a1.978 1.978 0 0 0-.547-2.796l-7.573-4.892a1.979 1.979 0 0 0-2.774.65l-21.12 35.519a1.978 1.978 0 0 0 .626 2.672l4.999 3.229a1.977 1.977 0 0 0 2.694-.527l23.695-33.855z" fill="#959595"/><path d="M117.505 80.135a.989.989 0 0 0-.144-1.549l-13.67-8.83a.989.989 0 0 0-1.47.505l-1.513 4.34c-.15.43.014.909.398 1.156l11.847 7.654c.383.247.886.2 1.217-.113l3.335-3.163z" fill="#959595"/><rect width="27.13" height="5.364" rx=".989" transform="scale(-1 1) rotate(-32.863 54.915 253.916)" fill="#fff"/><path d="M115.392 49.895a.523.523 0 0 0-.873.447l.103.855a.524.524 0 0 1-.134.415l-.582.634a.522.522 0 0 0 .447.872l.854-.102a.524.524 0 0 1 .416.134l.633.582c.358.328.93.034.873-.447l-.103-.855a.523.523 0 0 1 .134-.415l.582-.634a.522.522 0 0 0-.447-.872l-.854.102a.523.523 0 0 1-.416-.134l-.633-.582zM112.318 57.175a.523.523 0 0 0 .447.873l.855-.103a.522.522 0 0 1 .415.134l.634.582c.357.328.93.035.872-.447l-.102-.854a.523.523 0 0 1 .134-.416l.582-.633a.523.523 0 0 0-.447-.873l-.855.103a.521.521 0 0 1-.415-.134l-.634-.582a.522.522 0 0 0-.872.447l.102.854a.524.524 0 0 1-.134.416l-.582.633zM118.733 56.414a.522.522 0 0 0-.872.447l.102.854a.52.52 0 0 1-.133.416l-.582.633a.522.522 0 0 0 .447.872l.854-.102a.525.525 0 0 1 .416.134l.633.582c.358.328.93.035.872-.447l-.102-.854a.523.523 0 0 1 .134-.416l.582-.634a.522.522 0 0 0-.447-.872l-.854.102a.522.522 0 0 1-.416-.133l-.634-.582zM118.836 53.835a.523.523 0 0 0 .447.872l.854-.102a.524.524 0 0 1 .416.134l.633.581c.358.328.93.035.873-.447l-.103-.854a.523.523 0 0 1 .134-.415l.582-.634a.523.523 0 0 0-.447-.872l-.854.102a.524.524 0 0 1-.416-.134l-.633-.582a.523.523 0 0 0-.873.447l.103.854a.524.524 0 0 1-.134.416l-.582.634z" fill="#4B4B4B" fill-opacity=".15"/></svg>