<svg viewBox="0 0 135 124" fill="none" xmlns="http://www.w3.org/2000/svg"><g clip-path="url(#clip0)"><path d="M28 11h79c9.389 0 17 7.611 17 17v79c0 9.389-7.611 17-17 17H28c-9.389 0-17-7.611-17-17V28c0-9.389 7.611-17 17-17z" fill="#FFCA00"/><path d="M12.56 114.08L114.08 12.56A16.938 16.938 0 0 0 107 11H65.68L11 65.68V107c.003 2.445.535 4.86 1.56 7.08zm72.12-48.14l-58 58c.43 0 .87.07 1.31.07h48.59l33.08-33.09c6.904-6.904 6.904-18.096 0-25-6.903-6.904-18.096-6.904-25 0l.02.02z" fill="#FFD900"/><path d="M81.64 2.861a1.048 1.048 0 0 0-1.477-.132L56.846 22.22a1.048 1.048 0 0 0-.132 1.476l2.475 2.96a1.048 1.048 0 0 0 1.477.133l23.316-19.49a1.048 1.048 0 0 0 .132-1.476l-2.475-2.96z" fill="#FFBB31"/><path d="M60.17 17.277a1.048 1.048 0 0 0-1.476-.132l-3.584 2.996a1.048 1.048 0 0 0-.132 1.477l5.947 7.115a1.049 1.049 0 0 0 1.477.132l3.584-2.996a1.048 1.048 0 0 0 .132-1.477l-5.947-7.114z" fill="#E27800"/><path fill-rule="evenodd" clip-rule="evenodd" d="M62.882 28.36a6.497 6.497 0 0 1 1.415 4.66L61.13 68.422a6.497 6.497 0 0 1-7.05 5.893L22.264 71.47a6.497 6.497 0 0 1-5.892-7.05l3.165-35.404a6.497 6.497 0 0 1 2.219-4.333l8.45-7.317a6.497 6.497 0 0 1 4.832-1.559l16.348 1.462a6.497 6.497 0 0 1 4.477 2.392l7.02 8.699zm-13.426-7.186c.596.053 1.035.58.982 1.175l-.29 3.236a1.083 1.083 0 0 1-1.174.982l-13.212-1.181a1.083 1.083 0 0 1-.982-1.175l.289-3.236a1.083 1.083 0 0 1 1.175-.982l13.212 1.181z" fill="#FFA403"/><path fill-rule="evenodd" clip-rule="evenodd" d="M34.874 45.143l10.991.983-.53 5.933-10.992-.983.53-5.933zm14.404-1.87l-1.09 12.198L30.93 53.93l1.091-12.199 17.257 1.543z" fill="#E27800"/><path fill-rule="evenodd" clip-rule="evenodd" d="M58.038 34.332a1.573 1.573 0 0 0-2.222-.09l-9.623 8.864a1.573 1.573 0 0 0 2.132 2.313l9.622-8.864c.639-.589.68-1.584.091-2.223zM24.318 31.317a1.573 1.573 0 0 1 2.203.305l7.897 10.431a1.573 1.573 0 1 1-2.508 1.899L24.013 33.52a1.572 1.572 0 0 1 .305-2.203zM55.252 65.495a1.573 1.573 0 0 1-2.203-.305L45.152 54.76a1.572 1.572 0 1 1 2.507-1.899l7.898 10.432a1.573 1.573 0 0 1-.305 2.203zM21.531 62.48c.589.639 1.584.68 2.222.091l9.623-8.865a1.573 1.573 0 1 0-2.13-2.313l-9.624 8.865a1.573 1.573 0 0 0-.09 2.222z" fill="#E27800"/><path d="M68.105 57.938h.001a8.635 8.635 0 0 1 9.042-8.01l40.636 2.02a8.635 8.635 0 0 1 8.203 8.866h.002l-1.974 39.728a2.988 2.988 0 0 0 2.836 3.133l5.861.291a1.245 1.245 0 0 1 1.181 1.306c-.333 6.718-6.05 11.893-12.769 11.559l-53.732-2.669c-6.718-.334-11.893-6.051-11.56-12.769a1.245 1.245 0 0 1 1.306-1.182l5.86.291a2.988 2.988 0 0 0 3.133-2.836l1.974-39.728z" fill="#FFA403"/><path d="M72.402 59.282l49.178 2.444-2.438 49.073-49.179-2.444 2.439-49.073z" fill="#FFBB31"/><path d="M68.96 81.224a5.434 5.434 0 1 0 .54-10.854 5.434 5.434 0 0 0-.54 10.854zM122.829 83.9a5.434 5.434 0 1 0 .539-10.855 5.434 5.434 0 0 0-.539 10.855z" fill="#FFBB31"/><path d="M67.507 109.111a1.494 1.494 0 0 1 1.567-1.419l51.018 2.535a1.495 1.495 0 0 1 1.418 1.567l-.251 5.055a1.495 1.495 0 0 1-1.567 1.419l-51.018-2.535a1.495 1.495 0 0 1-1.418-1.567l.251-5.055z" fill="#E27800"/><path d="M67.494 70.649a5.434 5.434 0 0 1 6.688 2.896 6.056 6.056 0 0 0 2.386-4.528l.378-7.6-8.97-.445-.482 9.677zM118.402 75.75a5.432 5.432 0 0 1 6.934-2.232l.481-9.672-8.971-.445-.378 7.598a6.06 6.06 0 0 0 1.934 4.75z" fill="#FFB100"/><path d="M66.579 56.272a1.494 1.494 0 0 1 1.566-1.419l58.11 2.888a1.494 1.494 0 0 1 1.418 1.566l-.204 4.118a1.495 1.495 0 0 1-1.567 1.418l-58.11-2.888a1.494 1.494 0 0 1-1.418-1.566l.205-4.117z" fill="#E27800"/><path d="M98.833 62.124c6.652.33 12.312-4.794 12.643-11.446.33-6.652-4.794-12.313-11.446-12.643a12.052 12.052 0 0 0-10.535 5.208l-2.152-2.62c-.592-.72-1.7-.728-2.174.076a10.477 10.477 0 0 0-1.43 4.801 10.514 10.514 0 0 0 4.548 9.194 12.06 12.06 0 0 0 10.546 7.43z" fill="#FFA403"/><path d="M91.857 109.65c.14-.477.589-.796 1.086-.772l3.28.163c.497.025.912.387 1.004.876l1.711 9.08a1.076 1.076 0 0 1-1.11 1.274l-7.595-.378a1.075 1.075 0 0 1-.979-1.377l2.603-8.866z" fill="#FFF1A2"/><path d="M96.142 77.589c.13.006 1.184 1.88 2.255 3.845 1.066 1.955-.43 4.305-2.654 4.195-2.224-.11-3.48-2.598-2.226-4.438 1.26-1.848 2.495-3.609 2.625-3.602z" fill="#FFA403"/><path d="M97.54 71.989a6.326 6.326 0 0 1 12.637.627l-.191 3.844a6.326 6.326 0 1 1-12.636-.628l.19-3.843zM82.668 71.25a6.326 6.326 0 0 1 12.636.628l-.19 3.843a6.326 6.326 0 0 1-12.637-.628l.191-3.843z" fill="#FFF1A2"/><path d="M104.442 70.34a2.224 2.224 0 0 0 2.311-2.554 2.885 2.885 0 0 1 2.425 2.992l-.172 3.458a2.885 2.885 0 1 1-5.762-.286l.171-3.458c.008-.147.026-.29.054-.43.289.162.62.261.973.279zM90.61 69.653a2.224 2.224 0 0 0 2.31-2.554 2.885 2.885 0 0 1 2.425 2.992l-.171 3.458a2.885 2.885 0 0 1-5.763-.287l.172-3.458c.007-.146.025-.29.053-.43.29.162.62.262.974.28z" fill="#E27800"/><path fill-rule="evenodd" clip-rule="evenodd" d="M105.115 94.593a2.292 2.292 0 0 1-2.802 1.629c-.384-.102-.676-.146-.965-.123-.267.021-.647.11-1.164.446a2.292 2.292 0 0 1-2.501-3.84c2.395-1.56 4.467-1.268 5.804-.914a2.292 2.292 0 0 1 1.628 2.802z" fill="#E27800"/><path d="M82.824 63.91l13.963.694-.428 8.615-13.963-.694.428-8.615z" fill="#FFBB31"/><path d="M96.787 64.604l13.964.694-.353 7.104-13.964-.694.353-7.104z" fill="#FFBB31"/><path fill-rule="evenodd" clip-rule="evenodd" d="M95.699 70.372a2.49 2.49 0 0 1-2.917 1.974c-2.403-.464-4.785-1.614-6.1-2.448a2.49 2.49 0 0 1 2.665-4.207c.932.591 2.733 1.447 4.378 1.765a2.49 2.49 0 0 1 1.974 2.916zM98.954 65.856a2.49 2.49 0 0 1 1.902-2.963c2.391-.521 5.033-.403 6.571-.156a2.49 2.49 0 1 1-.791 4.917c-1.089-.175-3.083-.252-4.719.105a2.49 2.49 0 0 1-2.963-1.903z" fill="#FFB100"/></g><defs><clipPath id="clip0"><path fill="#fff" d="M0 0h135v124H0z"/></clipPath></defs></svg>