<svg viewBox="0 0 135 125" fill="none" xmlns="http://www.w3.org/2000/svg"><g clip-path="url(#clip0)"><path d="M107 12H28c-9.388 0-17 7.611-17 17v79c0 9.389 7.612 17 17 17h79c9.389 0 17-7.611 17-17V29c0-9.389-7.611-17-17-17z" fill="#E5E5E5"/><path d="M118.52 66.537l-35.507-20.5a2 2 0 0 0-2.732.732l-30 51.962a2 2 0 0 0 .732 2.732l35.507 20.5a2 2 0 0 0 2.732-.732l30-51.962a2 2 0 0 0-.732-2.732z" fill="#fff"/><path fill-rule="evenodd" clip-rule="evenodd" d="M35.641 109.247a7 7 0 0 1-9.302-3.386l-24.09-51.66A7 7 0 0 1 5.635 44.9l39.878-18.595a8.96 8.96 0 0 1 5.778-.624 8.956 8.956 0 0 1 4.191-4.025L95.36 3.06a7 7 0 0 1 9.302 3.386l24.089 51.66a7 7 0 0 1-3.385 9.302l-89.725 41.839z" fill="#B2B2B2"/><path d="M31.561 18.51l-13.595 6.34A2 2 0 0 0 17 27.506l19.863 42.596a2 2 0 0 0 2.658.968l13.595-6.34a2 2 0 0 0 .967-2.657L34.219 19.477a2 2 0 0 0-2.658-.967z" fill="#B2B2B2"/><path fill-rule="evenodd" clip-rule="evenodd" d="M32.22 103.942a2.52 2.52 0 0 1-3.35-1.219L4.798 51.099a2.52 2.52 0 0 1 1.219-3.349l41.219-19.22a5.994 5.994 0 0 1 5.666.318 5.989 5.989 0 0 1 3.397-4.544L95.705 5.928a2.52 2.52 0 0 1 3.349 1.219l24.072 51.623a2.52 2.52 0 0 1-1.219 3.35l-89.688 41.822z" fill="#fff"/><path fill-rule="evenodd" clip-rule="evenodd" d="M32.295 105.29a2.009 2.009 0 0 1-2.675-.959l-.846-1.812 45.19-21.072a4.045 4.045 0 0 1 3.318-.053 4.036 4.036 0 0 1 1.957-2.4l.214-.107 43.921-20.481.846 1.813a2.008 2.008 0 0 1-.851 2.597l-.134.069-90.94 42.405z" fill="#D8D8D8"/><path d="M44.98 36.706L13.257 51.498a1.5 1.5 0 1 0 1.268 2.719l31.721-14.792a1.5 1.5 0 0 0-1.268-2.719zM48.168 43.543L16.447 58.335a1.5 1.5 0 0 0 1.268 2.719l31.72-14.792a1.5 1.5 0 0 0-1.267-2.719zM51.548 50.793l-31.72 14.792a1.5 1.5 0 0 0 1.268 2.719l31.72-14.792a1.5 1.5 0 0 0-1.268-2.719zM54.93 58.044L23.208 72.836a1.5 1.5 0 0 0 1.267 2.719l31.721-14.792a1.5 1.5 0 1 0-1.268-2.719zM94.826 13.462l-31.72 14.792a1.5 1.5 0 1 0 1.267 2.719L96.094 16.18a1.5 1.5 0 0 0-1.268-2.719zM98.014 20.299l-31.72 14.792a1.5 1.5 0 0 0 1.267 2.719l31.721-14.792a1.5 1.5 0 1 0-1.268-2.719zM111.538 49.301l-31.72 14.792a1.5 1.5 0 0 0 1.267 2.719l31.721-14.792a1.5 1.5 0 1 0-1.268-2.719zM84.175 35.579l-14.5 6.762a1.5 1.5 0 0 0 1.267 2.719l14.501-6.762a1.5 1.5 0 0 0-1.268-2.72zM87.557 42.83l-14.501 6.762a1.5 1.5 0 1 0 1.268 2.719l14.5-6.762a1.5 1.5 0 0 0-1.267-2.72zM108.157 42.05l-31.72 14.792a1.5 1.5 0 1 0 1.267 2.719l31.721-14.792a1.5 1.5 0 1 0-1.268-2.719zM43.81 72.056l-17.22 8.03a1.5 1.5 0 0 0 1.267 2.719l17.22-8.03a1.5 1.5 0 1 0-1.268-2.719zM47.19 79.307l-17.22 8.03a1.5 1.5 0 0 0 1.268 2.719l17.22-8.03a1.5 1.5 0 0 0-1.268-2.719z" fill="#E5E5E5"/><path fill-rule="evenodd" clip-rule="evenodd" d="M54.305 106.986l53.528-9.438a2.4 2.4 0 0 1 2.78 1.947l1.077 6.105a2.401 2.401 0 0 1-1.947 2.781l-53.544 9.441a1.2 1.2 0 0 1-.583-.042l-8.37-2.748a1.2 1.2 0 0 1-.392-2.063l6.893-5.724c.16-.134.353-.223.558-.259z" fill="#D1D1D1"/><path d="M114.727 96.332l-8.076 1.424a2.4 2.4 0 0 0-1.947 2.78l1.077 6.106a2.4 2.4 0 0 0 2.78 1.947l8.076-1.424a2.399 2.399 0 0 0 1.946-2.78l-1.076-6.106a2.4 2.4 0 0 0-2.78-1.947z" fill="#B2B2B2"/><path d="M111.181 96.957l-11.818 2.084 1.91 10.833 11.818-2.084-1.91-10.833z" fill="#BFBFBF"/><path fill-rule="evenodd" clip-rule="evenodd" d="M54.063 107.031l1.91 10.827a1.149 1.149 0 0 1-.278-.055l-8.8-2.85a1.2 1.2 0 0 1-.368-2.088l7.294-5.688c.075-.058.156-.107.242-.146z" fill="#fff"/><path fill-rule="evenodd" clip-rule="evenodd" d="M50.234 110.629l1.01 5.733-4.349-1.408a1.2 1.2 0 0 1-.368-2.088l3.55-2.767c.071.166.125.344.157.53z" fill="#B2B2B2"/><path fill-rule="evenodd" clip-rule="evenodd" d="M75.338 23.183c.202-.81.891-1.418 1.762-1.553l1.293-.202c1.576-.246 2.977-1.048 3.925-2.245l.594-.75c.533-.674 1.451-.97 2.332-.75l12.516 3.12c.85.212 1.508.866 1.69 1.677l.232 1.033c.343 1.526 1.234 2.908 2.522 3.907l.871.675c.684.531.994 1.379.796 2.176L94.73 66.933c-.185.74-.777 1.313-1.544 1.509l-.18.038-1.086.188c-1.499.259-2.85.974-3.852 2.033l-.21.233-.688.803c-.504.586-1.305.858-2.098.724l-.183-.038-12.515-3.12c-.822-.205-1.462-.822-1.67-1.59l-.038-.167-.172-.942c-.257-1.408-1.03-2.696-2.177-3.64l-.234-.184-1.047-.785c-.658-.494-.984-1.276-.86-2.037l.033-.163 9.129-36.612z" fill="#D1D1D1"/><path d="M91.648 61.931l7.492-30.048a2.016 2.016 0 0 0-1.468-2.444l-16.464-4.105a2.016 2.016 0 0 0-2.444 1.468l-7.492 30.049a2.016 2.016 0 0 0 1.469 2.444l16.463 4.104a2.016 2.016 0 0 0 2.444-1.468z" stroke="#B2B2B2" stroke-width="2.016" stroke-linejoin="round"/><path d="M84.179 41.041l-2.866-.29a1.176 1.176 0 0 1-.854-1.83l1.62-2.382a.686.686 0 0 0 .104-.531l-.61-2.815a1.176 1.176 0 0 1 1.477-1.378l2.766.805c.18.052.374.029.537-.066l2.489-1.45a1.176 1.176 0 0 1 1.767.98l.089 2.878a.686.686 0 0 0 .228.49l2.148 1.92a1.176 1.176 0 0 1-.385 1.983l-2.71.974a.686.686 0 0 0-.396.37l-1.161 2.635a1.176 1.176 0 0 1-2.006.246l-1.764-2.276a.686.686 0 0 0-.473-.263z" fill="#B2B2B2"/><path d="M90.292 48.52l-2.69 10.873M86.217 47.505l-2.69 10.872M82.82 46.658l-2.689 10.873M78.746 45.642l-2.69 10.872" stroke="#B2B2B2" stroke-width="2.016" stroke-linecap="round" stroke-linejoin="round"/><path fill-rule="evenodd" clip-rule="evenodd" d="M36.837 42.799c-.16-.82.209-1.662.94-2.153l1.087-.73c1.324-.888 2.256-2.207 2.608-3.692l.222-.931c.198-.837.906-1.493 1.796-1.666l12.662-2.46c.86-.168 1.733.146 2.241.804l.647.838c.955 1.239 2.347 2.114 3.937 2.475l1.074.244c.845.192 1.484.83 1.641 1.636l7.21 37.09c.145.749-.15 1.518-.762 2.02l-.147.111-.905.63c-1.249.867-2.171 2.086-2.631 3.47l-.092.299-.285 1.019c-.209.743-.82 1.33-1.595 1.543l-.182.043-12.661 2.46c-.832.162-1.673-.126-2.186-.735l-.104-.135-.554-.78c-.829-1.168-2.074-2.009-3.512-2.38l-.29-.067-1.28-.27c-.806-.169-1.431-.74-1.64-1.482l-.04-.162L36.838 42.8z" fill="#D1D1D1"/><path d="M67.995 71.022l-5.91-30.399a2.016 2.016 0 0 0-2.363-1.594l-16.656 3.238a2.016 2.016 0 0 0-1.594 2.363l5.909 30.4a2.016 2.016 0 0 0 2.363 1.594L66.4 73.386a2.016 2.016 0 0 0 1.595-2.364z" stroke="#B2B2B2" stroke-width="2.016" stroke-linejoin="round"/><path d="M52.397 55.247l-2.72.948a1.176 1.176 0 0 1-1.548-1.299l.462-2.843a.686.686 0 0 0-.13-.525l-1.743-2.293a1.176 1.176 0 0 1 .757-1.873l2.846-.44a.686.686 0 0 0 .459-.286l1.643-2.366a1.176 1.176 0 0 1 2.015.14l1.298 2.572a.687.687 0 0 0 .414.348l2.758.831a1.176 1.176 0 0 1 .489 1.96l-2.045 2.03a.686.686 0 0 0-.203.5l.062 2.88a1.176 1.176 0 0 1-1.713 1.071l-2.562-1.318a.686.686 0 0 0-.54-.037z" fill="#B2B2B2"/><path d="M61.098 59.442l2.158 10.99M56.975 60.243l2.157 10.99M53.54 60.911l2.157 10.99M49.416 61.713l2.158 10.99" stroke="#B2B2B2" stroke-width="2.016" stroke-linecap="round" stroke-linejoin="round"/></g><defs><clipPath id="clip0"><path fill="#fff" d="M0 0h135v125H0z"/></clipPath></defs></svg>