<svg viewBox="0 0 135 124" fill="none" xmlns="http://www.w3.org/2000/svg"><path d="M11 28c0-9.389 7.611-17 17-17h79c9.389 0 17 7.611 17 17v79c0 9.389-7.611 17-17 17H28c-9.389 0-17-7.611-17-17V28z" fill="#FEC701"/><path fill-rule="evenodd" clip-rule="evenodd" d="M64.756 27.337c8.2 8.201 8.2 21.498 0 29.699l-53.407 53.407a17.08 17.08 0 0 1-.348-3.443L11 51.394l24.057-24.057c8.201-8.2 21.498-8.2 29.699 0zM124 28.394v35.354l-8.995 8.997c-4.881 4.881-12.796 4.881-17.677 0-4.882-4.882-4.882-12.797 0-17.678L124 28.394z" fill="#FFD900"/><path fill-rule="evenodd" clip-rule="evenodd" d="M44.4 15.822c6.015-.534 11.322 3.922 11.856 9.947l.145 1.637-21.778 1.931-.145-1.637c-.534-6.025 3.909-11.345 9.923-11.878z" fill="#FF9600"/><path d="M33.722 27.557c6.42-.57 11.172-6.154 10.612-12.473-.56-6.32-6.22-10.981-12.64-10.412-6.423.57-11.175 6.154-10.615 12.473.56 6.32 6.22 10.982 12.643 10.412z" fill="#FF9600"/><path d="M66.558 24.46l-41.342 3.666c-7.746.686-13.47 7.523-12.783 15.27l2.44 27.51c.686 7.747 7.523 13.47 15.27 12.783l41.34-3.665c7.747-.687 13.47-7.523 12.784-15.27l-2.44-27.51c-.686-7.747-7.523-13.47-15.27-12.783z" fill="#FFE031"/><path fill-rule="evenodd" clip-rule="evenodd" d="M36.112 33.228a8.736 8.736 0 0 1 9.473 7.93l.47 5.294a8.736 8.736 0 1 1-17.404 1.543l-.47-5.293a8.736 8.736 0 0 1 7.93-9.474z" fill="#FFF1A2"/><path fill-rule="evenodd" clip-rule="evenodd" d="M38.972 38.183a3.922 3.922 0 0 1 4.254 3.56l.435 4.907a3.922 3.922 0 1 1-7.814.693l-.435-4.907a3.922 3.922 0 0 1 3.56-4.253z" fill="#FF9600"/><path fill-rule="evenodd" clip-rule="evenodd" d="M56.598 31.412a8.736 8.736 0 0 0-7.93 9.474l.468 5.293a8.736 8.736 0 0 0 17.404-1.543l-.469-5.293a8.736 8.736 0 0 0-9.473-7.93z" fill="#FFF1A2"/><path d="M51.675 41.328a3.15 3.15 0 0 0 2.786-4.446 3.922 3.922 0 0 1 4.998 3.422l.435 4.907a3.922 3.922 0 0 1-7.813.693l-.406-4.576z" fill="#FF9600"/><path d="M35.637 42.868a3.15 3.15 0 1 1-.556-6.275 3.15 3.15 0 0 1 .556 6.275z" fill="#FFF1A2"/><path d="M35.216 68.286c6.61-.586 11.493-6.419 10.907-13.028-.586-6.61-6.42-11.493-13.029-10.907-6.61.586-11.492 6.42-10.906 13.029.586 6.61 6.419 11.492 13.028 10.906zM62.912 65.831c6.61-.586 11.493-6.419 10.907-13.028-.586-6.61-6.42-11.493-13.029-10.907-6.61.586-11.492 6.42-10.906 13.029.586 6.609 6.419 11.492 13.028 10.906z" fill="#FFE031"/><path fill-rule="evenodd" clip-rule="evenodd" d="M48.253 56.14a3.432 3.432 0 0 0 3.11-3.726c-.167-1.89-3.977-6.056-3.977-6.056s-3.018 4.772-2.85 6.662a3.432 3.432 0 0 0 3.717 3.12z" fill="#FF9600"/><path fill-rule="evenodd" clip-rule="evenodd" d="M36.867 55.965a4.552 4.552 0 0 1 6.287 1.388c.874 1.371 1.724 2.045 2.456 2.38.714.327 1.676.496 3.082.244a4.552 4.552 0 0 1 1.608 8.961c-2.907.522-5.8.3-8.478-.925-2.661-1.217-4.745-3.257-6.343-5.761a4.552 4.552 0 0 1 1.388-6.287z" fill="#FFF1A2"/><path d="M20.85 29.232c-5.412 2.349-8.967 7.965-8.417 14.164l.932 10.52 1.292-.115a8.338 8.338 0 0 0 7.57-9.041L20.85 29.232z" fill="#FFB67A"/><path d="M20.817 29.247c-5.393 2.358-8.932 7.963-8.383 14.149l.877 9.892 2.594-.23a7 7 0 0 0 6.353-7.593l-1.441-16.218zM70.693 24.702c5.91 1.238 10.574 6.215 11.135 12.542l.876 9.878-2.968.263a7 7 0 0 1-7.592-6.353l-1.451-16.33z" fill="#FF9600"/><path d="M11.844 60.911a6.207 6.207 0 1 0-1.096-12.365 6.207 6.207 0 0 0 1.096 12.365zM85.1 54.244a6.207 6.207 0 1 0-1.096-12.365A6.207 6.207 0 0 0 85.1 54.244z" fill="#FFE031"/><path d="M85.336 65.36l-.227 1.191 7.907 1.505.227-1.192a2.878 2.878 0 0 0-2.287-3.361l-2.259-.43a2.878 2.878 0 0 0-3.361 2.286zM103.334 68.784l-.227 1.192 7.907 1.505.227-1.192a2.879 2.879 0 0 0-2.287-3.361l-2.259-.43a2.878 2.878 0 0 0-3.361 2.286z" fill="#FFF1A2"/><path d="M106.309 66.477l-.694 4.012 3.012.573.694-4.012a5.366 5.366 0 0 0-4.268-6.274l-10.504-2a5.366 5.366 0 0 0-6.274 4.268l-.773 4.006 3.012.573.773-4.005a2.3 2.3 0 0 1 2.69-1.83l10.503 2a2.3 2.3 0 0 1 1.829 2.689z" fill="#FF9600"/><path d="M59.423 104.951l49.845 9.486a3.495 3.495 0 0 0 4.074-2.772l6.647-34.93a3.493 3.493 0 0 0-2.771-4.073l-49.845-9.486a3.494 3.494 0 0 0-4.074 2.771l-6.648 34.929a3.495 3.495 0 0 0 2.772 4.075z" fill="#F68B00"/><path d="M69.717 67.168l-6.648 34.93a3.494 3.494 0 0 0 2.772 4.074l-3.22-.613a4.772 4.772 0 0 1-.835-3.705l6.647-34.93a4.775 4.775 0 0 1 2.137-3.14l3.22.613a3.495 3.495 0 0 0-4.073 2.771z" fill="#FFB100"/><path d="M70.955 107.146l49.845 9.486a3.495 3.495 0 0 0 4.074-2.772l6.647-34.93a3.494 3.494 0 0 0-2.771-4.074L78.905 65.37a3.495 3.495 0 0 0-4.074 2.772l-6.648 34.929a3.495 3.495 0 0 0 2.772 4.075z" fill="#FF9600"/><path d="M72.624 103.03l6.322-33.219 48.133 9.16-6.322 33.219-48.133-9.16z" fill="#FFB100"/><path d="M68.182 103.071l.597-3.137a6.678 6.678 0 0 1 5.312 7.808l-3.137-.597a3.494 3.494 0 0 1-2.772-4.074zM78.904 65.37l3.137.597a6.678 6.678 0 0 1-7.808 5.312l.597-3.137a3.495 3.495 0 0 1 4.074-2.772zM131.521 78.93l-.597 3.138a6.679 6.679 0 0 1-5.312-7.809l3.138.597a3.494 3.494 0 0 1 2.771 4.075zM120.799 116.632l-3.138-.598a6.678 6.678 0 0 1 7.809-5.311l-.597 3.137a3.495 3.495 0 0 1-4.074 2.772z" fill="#FFB100"/></svg>