<svg id="Cover" xmlns="http://www.w3.org/2000/svg" viewBox="0 0 135 124"><defs><style>.cls-1{fill:#4b4b4b}.cls-2{fill:#61361f}.cls-3{fill:#dc8166}.cls-4{fill:#2d2d2d}.cls-5{fill:#e3997f}.cls-6{fill:#fff}.cls-9{fill:#ffd300}</style></defs><path class="cls-1" d="M124 27.79v79.3a15.23 15.23 0 0 1-.12 1.92A17 17 0 0 1 107 124H28a16.94 16.94 0 0 1-12.67-5.67 18.51 18.51 0 0 1-1.18-1.47A17 17 0 0 1 11 107V28a16.47 16.47 0 0 1 .33-3.32c.05-.26.11-.52.17-.78a16.94 16.94 0 0 1 2.09-4.9 17 17 0 0 1 2.79-3.37 16.7 16.7 0 0 1 1.85-1.51A16.89 16.89 0 0 1 28 11h79a17 17 0 0 1 17 16.79z"/><path class="cls-2" d="M103.34 111.82a2 2 0 0 1-1.06 2.87 12.27 12.27 0 0 1-10.49-22.06z"/><path class="cls-2" d="M110.72 97.68a2 2 0 0 1 1.43 2.7 12.27 12.27 0 0 1-23.43-6.88z"/><path class="cls-3" d="M98 77v24.25a3.33 3.33 0 0 1-.63 0 12.16 12.16 0 1 1 0-24.32A4.43 4.43 0 0 1 98 77z"/><path class="cls-2" d="M31.66 111.82a2 2 0 0 0 1.06 2.87 12.27 12.27 0 0 0 10.49-22.06z"/><path class="cls-2" d="M24.28 97.68a2 2 0 0 0-1.43 2.7 12.27 12.27 0 0 0 23.43-6.88z"/><path class="cls-3" d="M36.16 77v24.25a3.33 3.33 0 0 0 .63 0 12.16 12.16 0 0 0 0-24.32 4.43 4.43 0 0 0-.63.07z"/><path class="cls-4" d="M107.87 65.27v3a19.17 19.17 0 0 1-6.36 14.27l-34.67 31.13-35.12-31.06a18.7 18.7 0 0 1-2.86-3.18 19 19 0 0 1-3.61-11.18v-3A41.31 41.31 0 0 1 107 56.6a40.48 40.48 0 0 1 .87 8.67z"/><path class="cls-5" d="M96.46 97.65V50.2l-29.42-9.59L37.6 56.96l.01 41.56 58.85-.87z"/><rect class="cls-6" x="44.03" y="72.44" width="16.91" height="24.42" rx="8.45" ry="8.45"/><rect class="cls-4" x="46.17" y="76.79" width="7.42" height="12.13" rx="3.71" ry="3.71"/><rect class="cls-6" x="73" y="72.44" width="16.91" height="24.42" rx="8.45" ry="8.45"/><rect class="cls-4" x="74.85" y="76.79" width="7.42" height="12.13" rx="3.71" ry="3.71"/><path class="cls-3" d="M37.6 77v24.25a3.33 3.33 0 0 1-.63 0A12.16 12.16 0 1 1 37 77a4.43 4.43 0 0 1 .6 0z"/><path d="M66.35 100.54a13.61 13.61 0 0 1-9.84-4.38.68.68 0 0 1 1-1c3.73 3.73 8.08 4.87 12.93 3.38a18.58 18.58 0 0 0 6.25-3.41.69.69 0 0 1 1 .06.68.68 0 0 1-.06 1c-.16.06-5.1 4.35-11.28 4.35z" fill="#cf8166"/><path class="cls-3" d="M67 77.88a3.81 3.81 0 0 1 3.81 3.81v7A2.83 2.83 0 0 1 68 91.51h-2a2.83 2.83 0 0 1-2.83-2.83v-7a3.81 3.81 0 0 1 3.83-3.8z"/><path class="cls-4" d="M107.87 65.27v3a19.29 19.29 0 0 1-1.88 8.3c-.47 1-6 1.86-8.26 1-14.22-5.19-29.23-19.43-31-32.2a16.87 16.87 0 0 1-.17-2.37V28l.17.05.18.05 16.77 5.08L98.1 43l8.9 13.6a40.48 40.48 0 0 1 .87 8.67z"/><path class="cls-4" d="M66.91 28v15a15.59 15.59 0 0 1-.18 2.44c-2 14.86-22.07 31.73-37.87 34a19 19 0 0 1-3.61-11.18v-3a41.12 41.12 0 0 1 .75-7.9L35.37 43l14.42-9.86 16.77-5.08.17-.05z"/><path class="cls-4" d="M72.85 67.86a1.86 1.86 0 0 1-1.28-.51c-.3-.29-7.26-7.16-6.21-20.24a1.85 1.85 0 1 1 3.69.3c-.91 11.25 4.85 17 5.09 17.27a1.86 1.86 0 0 1 0 2.62 1.88 1.88 0 0 1-1.29.56zM64.71 37.9v-20a1.85 1.85 0 1 1 3.7 0v4a38.51 38.51 0 0 1 2.92-3 1.85 1.85 0 1 1 2.48 2.75c-1.19 1.08-4.51 4.44-5.52 7z"/><path class="cls-3" d="M37.6 77v24.25a3.33 3.33 0 0 1-.63 0A12.16 12.16 0 1 1 37 77a4.43 4.43 0 0 1 .6 0z"/><path class="cls-4" d="M36.16 71.07h3V88a1.51 1.51 0 0 1-1.51 1.51A1.51 1.51 0 0 1 36.16 88V71v.07z"/><path class="cls-3" d="M96.45 77v24.25a3.33 3.33 0 0 0 .63 0 12.16 12.16 0 0 0 0-24.32 4.43 4.43 0 0 0-.63.07z"/><path class="cls-4" d="M96.46 71.07a1.51 1.51 0 0 1 1.54 1.5v17h-3v-17a1.51 1.51 0 0 1 1.51-1.51z" transform="rotate(-180 96.465 80.3)"/><path class="cls-5" d="M115.17 74.18l8.89.11v22.24h-9.16a8.08 8.08 0 0 1-6.36-3.21l-.2-.27a7.83 7.83 0 0 1-1.27-3 7.53 7.53 0 0 1-.17-1.73l.08-6.06a.66.66 0 0 1 0-.14 8 8 0 0 1 2.39-5.53 8 8 0 0 1 5.8-2.41zM29.41 88.24a7.78 7.78 0 0 1-.14 1.61A8.13 8.13 0 0 1 28 92.93a8 8 0 0 1-1.28 1.45c-.15.13-.3.26-.46.38a8.06 8.06 0 0 1-4.81 1.66h-5.17l-5.19.06V74.3l10.09-.12a8 8 0 0 1 5.76 2.32c.16.16.31.32.46.49a7.91 7.91 0 0 1 1.36 2.25A5.83 5.83 0 0 1 29 80a8.24 8.24 0 0 1 .34 2.23z"/><path d="M11.06 100.28v-6.9c1.72-.4 3.45-.79 5.19-1.15l.81-.16c2.21-.47 4.44-.89 6.67-1.28q.6-.12 1.2-.21c.38-.08.76-.15 1.14-.2.71-.14 1.42-.25 2.13-.37l.3-.05.73-.11c2.29-.36 4.6-.69 6.92-1h.15a.17.17 0 0 1 .1 0c.39-.06.79-.11 1.18-.15h.08l.82-.1.6-.07 1.93-.2c1-.12 2-.22 3-.32h.19l.64-.06h.3a221.306 221.306 0 0 1 9.7-.68c2-.1 4.09-.27 6.16-.27h12c2.56 0 5.13.13 7.67.27 1.55.07 3.09.17 4.63.27s3.08.24 4.61.39l.78.06.31.01c1.18.11 2.37.22 3.54.36h.54c.47 0 .94.09 1.4.15.45 0 .9.1 1.35.15h.16l1.93.24q3.6.47 7.15 1h.26a2.8 2.8 0 0 1 .28.06c.53.07 1.06.16 1.58.25l.93.16a.2.2 0 0 1 .11 0l1.33.22c2.57.46 5.13 1 7.67 1.49.28.05.55.11.83.18 1.34.28 2.67.57 4 .88V107a15.23 15.23 0 0 1-.12 1.92 17 17 0 0 1-16.88 15h-79a17 17 0 0 1-12.67-5.68 18.51 18.51 0 0 1-1.18-1.47 17 17 0 0 1-3.15-9.85v-5.37" fill="#666161"/><path class="cls-1" d="M48.66 107.49a2.44 2.44 0 0 1-2-1l-6.85-9.16a2.92 2.92 0 0 0-3-1.1l-20.2 4.43a2.47 2.47 0 0 1-1.06-4.82l20.21-4.43a7.85 7.85 0 0 1 8 3l6.84 9.16a2.47 2.47 0 0 1-2 3.94z"/><path class="cls-1" d="M46.2 120.64a2.45 2.45 0 0 1-2.2-1.39l-6.4-13.15A2.47 2.47 0 1 1 42 104l6.4 13.15a2.48 2.48 0 0 1-1.14 3.3 2.61 2.61 0 0 1-1.06.19zM89.14 106.49a2.47 2.47 0 0 1-2-3.94L94 93.39a7.84 7.84 0 0 1 7.95-3l20.21 4.43a2.47 2.47 0 1 1-1.06 4.82l-20.2-4.43a2.91 2.91 0 0 0-3 1.1l-6.84 9.16a2.47 2.47 0 0 1-1.92 1.02z"/><path class="cls-5" d="M101.09 95.27a4.57 4.57 0 0 1-1.09-6.38l8-11.11a4.6 4.6 0 0 1 6.39-1.12 4.58 4.58 0 0 1 1.11 6.39l-8.06 11.1a4.57 4.57 0 0 1-6.35 1.12z"/><rect class="cls-5" x="110.15" y="82.9" width="9.16" height="17.02" rx="4.58" ry="4.58" transform="rotate(8.84 114.76 91.406)"/><path class="cls-5" d="M124.06 84.57v16.94a4.58 4.58 0 0 1-4-4.54v-7.85a4.59 4.59 0 0 1 4-4.55zM35.24 95.27a4.58 4.58 0 0 0 1.12-6.38l-8.07-11.11a4.58 4.58 0 0 0-6.38-1.12 4.6 4.6 0 0 0-1.12 6.39l8.07 11.1a4.57 4.57 0 0 0 6.38 1.12z"/><rect class="cls-5" x="17.01" y="82.9" width="9.16" height="17.02" rx="4.58" ry="4.58" transform="rotate(171.16 21.594 91.412)"/><path class="cls-5" d="M11.06 100.28V84.57a4.08 4.08 0 0 1 .61 0 4.59 4.59 0 0 1 4.58 4.59V97a4.59 4.59 0 0 1-4.58 4.58 4.08 4.08 0 0 1-.61 0z"/><path class="cls-9" d="M38.83 24.25l-5.72-19.4a3.78 3.78 0 1 1 7.26-2.14 4 4 0 0 1 .12.58l2.63 20.05a2.2 2.2 0 0 1-4.29.91zM32.26 32.88L3.23 11.2a5.58 5.58 0 1 1 6.68-8.95 5.39 5.39 0 0 1 .82.76l24.11 27.05a1.92 1.92 0 0 1-2.58 2.82zM25.79 42.22L4.46 39.35a5.11 5.11 0 0 1 1.36-10.12 5.21 5.21 0 0 1 1.53.45L26.76 39a1.71 1.71 0 0 1-1 3.23z"/><path class="cls-1" d="M91.6 119.64a2.61 2.61 0 0 1-1.08-.24 2.48 2.48 0 0 1-1.14-3.3l6.4-13.1a2.47 2.47 0 1 1 4.44 2.15l-6.4 13.15a2.45 2.45 0 0 1-2.22 1.34z"/><rect class="cls-5" x="119.45" y="84.5" width="9.16" height="17.02" rx="4.58" ry="4.58" transform="rotate(-2.56 123.97 92.996)"/><rect class="cls-5" x="7.12" y="84.5" width="9.16" height="17.02" rx="4.58" ry="4.58" transform="rotate(-177.44 11.698 93.01)"/><path class="cls-5" d="M10.11 93.5h3.35l7-19.32H10.11A9.09 9.09 0 0 0 1 83.27v1.14a9.09 9.09 0 0 0 9.11 9.09zM125.25 93.5h-3.34l-7-19.32h10.34a9.09 9.09 0 0 1 9.09 9.09v1.14a9.09 9.09 0 0 1-9.09 9.09z"/></svg>