<svg viewBox="0 0 135 124" version="1.1" xmlns="http://www.w3.org/2000/svg"><g stroke="none" stroke-width="1" fill="none" fill-rule="evenodd"><g fill-rule="nonzero"><g transform="translate(0 11)"><path d="M125 17v79c0 9.389-7.611 17-17 17H29c-9.389 0-17-7.611-17-17V17c0-9.389 7.611-17 17-17h79c9.389 0 17 7.611 17 17z" fill="#E5E5E5"/><path fill="#BFBFBF" d="M73.86 42.59l11.354-14.224 3.908 3.119-11.355 14.224zM97.162 61.677l11.36-14.828 3.97 3.041-11.362 14.828z"/><path d="M114.979 28.582l1.567.905a5.8 5.8 0 0 1 2.123 7.923l-3.215 5.568a2.73 2.73 0 0 1-3.729 1l-4.226-2.44 7.5-12.99-.02.034z" fill="#B2B2B2"/><rect fill="#A6A6A6" transform="rotate(40.1 100.53 38.005)" x="77.485" y="33.815" width="46.09" height="8.38" rx="4.19"/><path d="M124.86 14.81L105.3 47.65a4 4 0 0 1-5.74 1.27l-12.67-8.67a3.81 3.81 0 0 1-1.17-5L105.52 0H108c.753 0 1.504.05 2.25.15l.61.1a15.73 15.73 0 0 1 4.12 1.26 16.48 16.48 0 0 1 3.07 1.78 17.09 17.09 0 0 1 4.11 4.33 16.6 16.6 0 0 1 1.84 3.67c.41 1.14.699 2.32.86 3.52z" fill="#B2B2B2"/><path d="M104.673 34.64l7.898 4.56-6.685 11.58a4.56 4.56 0 0 1-7.898-4.56l6.685-11.58z" fill="#B2B2B2"/><path d="M70.765 24.09l1.674 1.99a4.39 4.39 0 0 1-.534 6.185l-7.326-8.708a4.39 4.39 0 0 1 6.186.533zM110.825 71.23l1.673 1.989a4.39 4.39 0 0 1-.533 6.185l-7.326-8.708a4.39 4.39 0 0 1 6.186.533z" fill="#D1D1D1"/><path d="M108.55 105.68l-8.42 7.32H35L17.4 92.26l-6-7-1.34-1.6-1.19-1.48-2.93-3.46-.24-.28c-7.294-8.735-6.187-21.716 2.48-29.09l30.36-25.87A20.75 20.75 0 0 1 67.93 26L79.4 39.53l19.81 23.36.54.64 10.5 12.38.44.51.13.16c7.352 8.681 6.34 21.664-2.27 29.1z" fill="#B2B2B2"/><path fill="#A6A6A6" d="M78.62 38.76l-62 52.72-10.35-12.4L68.23 26.3zM110.25 75.91l-43.59 37.05H41.72l58.03-49.43z"/></g></g></g></svg>