<svg viewBox="0 0 135 124" fill="none" xmlns="http://www.w3.org/2000/svg"><rect x="11.104" y="11" width="113" height="113" rx="17" fill="#9069CD"/><path fill-rule="evenodd" clip-rule="evenodd" d="M28.515 16.003c-5.967 0-10.804 4.837-10.804 10.803v34.58l-.001.056c0 .98-.014 3.498-2.63 3.691H9.222c-.64 0-1.158.519-1.158 1.158 0 6.464 5.24 11.704 11.704 11.704h51.06c6.464 0 11.704-5.24 11.704-11.704 0-.64-.518-1.158-1.158-1.158h-5.473c-2.46-.181-2.619-2.42-2.629-3.5V26.805c0-5.966-4.837-10.803-10.803-10.803H28.515z" fill="#FFB100"/><path fill-rule="evenodd" clip-rule="evenodd" d="M21.441 33.623c0-5.611 4.55-10.16 10.16-10.16h26.881c5.612 0 10.16 4.549 10.16 10.16V77.61h-47.2V33.623z" fill="#FFC6B7"/><path d="M19.256 73.107c0-.781.633-1.415 1.415-1.415h49.002c.78 0 1.414.634 1.414 1.415v4.888c0 .78-.633 1.414-1.415 1.414H20.672a1.415 1.415 0 0 1-1.415-1.414v-4.888z" fill="#FF4B4B"/><path fill-rule="evenodd" clip-rule="evenodd" d="M43.115 72.223a1.029 1.029 0 0 1 1-.788h3.138c.476 0 .89.326 1 .788l2.077 8.617a1.029 1.029 0 0 1-1 1.27h-7.29a1.029 1.029 0 0 1-1.001-1.27l2.076-8.617z" fill="#EBE3E3"/><path fill-rule="evenodd" clip-rule="evenodd" d="M45.635 49.299a2.7 2.7 0 0 0 2.7-2.7c0-1.49-2.7-5.017-2.7-5.017s-2.701 3.526-2.701 5.017a2.7 2.7 0 0 0 2.7 2.7z" fill="#F3A577"/><path fill-rule="evenodd" clip-rule="evenodd" d="M53.075 61.791a1 1 0 0 1-.212 1.398c-1.972 1.453-4.44 2.266-7.368 2.266-2.58 0-4.806-.631-6.652-1.78a1 1 0 0 1 1.057-1.698c1.498.933 3.35 1.478 5.595 1.478 2.542 0 4.584-.7 6.182-1.876a1 1 0 0 1 1.398.212z" fill="#FAB89C"/><path d="M21.441 33.623c0-3.556 1.828-6.686 4.595-8.501a5.33 5.33 0 0 1 .293 1.75v7.587c0 1.83-.921 3.446-2.325 4.407a5.23 5.23 0 0 0-2.563-2.477v-2.766zM68.643 33.623c0-3.372-1.643-6.36-4.172-8.208a5.342 5.342 0 0 0-.2 1.456v7.588A5.33 5.33 0 0 0 66.5 38.8a5.232 5.232 0 0 1 2.143-2.218v-2.958z" fill="#FFB100"/><path d="M24.527 41.147a5.209 5.209 0 1 1-10.418 0 5.209 5.209 0 0 1 10.418 0zM76.36 41.147a5.209 5.209 0 1 1-10.418 0 5.209 5.209 0 0 1 10.417 0z" fill="#FFC6B7"/><path d="M16.168 22.819c0-.924.748-1.672 1.672-1.672h55.294c.923 0 1.672.748 1.672 1.672v3.473c0 .923-.749 1.671-1.672 1.671H17.84a1.672 1.672 0 0 1-1.672-1.672V22.82z" fill="#FF4B4B"/><path d="M35.04 20.084a9.898 9.898 0 0 1-2.255-1.866c-2.861-3.185-3.335-7.807-1.254-11.42.433-.753 1.237-.862 1.818-.215l2.27 2.473a11.568 11.568 0 0 1 9.872-5.529c6.393 0 11.576 5.183 11.576 11.575 0 6.393-5.183 11.576-11.576 11.576-4.609 0-8.589-2.695-10.45-6.594z" fill="#FFB100"/><path d="M45.494 61.695c6.981 0 10.833-4.923 11.734-11.498.201-1.472-1.32-2.502-2.723-2.015-2.522.874-6.19 1.947-9.011 1.947-2.821 0-6.489-1.073-9.01-1.947-1.404-.487-2.925.543-2.724 2.015.9 6.575 4.753 11.498 11.734 11.498z" fill="#702323"/><path d="M52.828 59.182c-1.865 1.586-4.305 2.513-7.334 2.513s-5.468-.927-7.334-2.513a9.721 9.721 0 0 1 7.334-3.328 9.721 9.721 0 0 1 7.334 3.328z" fill="#B23232"/><path d="M56.85 52.195a19.53 19.53 0 0 0 .378-1.998c.201-1.472-1.32-2.502-2.723-2.015-2.522.874-6.19 1.947-9.011 1.947-2.821 0-6.489-1.073-9.01-1.947-1.404-.487-2.925.543-2.724 2.015.094.685.22 1.352.378 1.998.285.113.596.175.921.175h1.953a2.51 2.51 0 0 0 2.176-1.258 2.51 2.51 0 0 0 2.177 1.258h1.953a2.51 2.51 0 0 0 2.176-1.258 2.51 2.51 0 0 0 2.176 1.258h1.953a2.51 2.51 0 0 0 2.177-1.258 2.51 2.51 0 0 0 2.176 1.258h1.953c.325 0 .636-.062.92-.175zM32.475 36.154a6.064 6.064 0 0 1 12.128 0v3.689c0 2.58-1.61 4.782-3.88 5.659a7.407 7.407 0 0 0-7.762-3.276 6.045 6.045 0 0 1-.486-2.383v-3.689zM58.878 36.154a6.064 6.064 0 0 0-12.128 0v3.689a6.067 6.067 0 0 0 3.972 5.693 7.408 7.408 0 0 1 7.68-3.331 6.045 6.045 0 0 0 .476-2.362v-3.689z" fill="#fff"/><path d="M40.175 33.593a2.943 2.943 0 0 1-5.609 1.251 4.604 4.604 0 0 0-.455 2.002V39c0 1.203.46 2.299 1.214 3.12a7.377 7.377 0 0 1 3.67 1.494 4.617 4.617 0 0 0 3.48-1.9 1.994 1.994 0 1 1 .88-3.627v-1.24a4.624 4.624 0 0 0-3.443-4.471c.169.37.263.783.263 1.217zM54.254 33.593a2.943 2.943 0 0 1-5.608 1.251 4.604 4.604 0 0 0-.455 2.002V39c0 2.439 1.89 4.437 4.285 4.61a7.376 7.376 0 0 1 3.755-1.499c.115-.126.223-.26.324-.398a1.993 1.993 0 1 1 .88-3.627v-1.24a4.624 4.624 0 0 0-3.443-4.47c.168.37.262.783.262 1.217z" fill="#3D3D3D"/><path d="M65.769 61.695c-5.662 0-10.251 4.59-10.251 10.25v5.126H71.32v.006c5.163.14 9.691 2.827 12.374 6.85H55.518v1.26c0 11.782 9 21.462 20.501 22.538v.099h15.377c1.831 0 3.55-.48 5.038-1.321 12.415-3.798 21.444-15.347 21.444-29.005v-.854h-10.512c-3.392 0-6.147-2.587-7.727-5.588-2.933-5.566-8.775-9.361-15.504-9.361H65.768z" fill="#1CB0F6"/><path d="M131.828 63.707c0-.944-.765-1.709-1.708-1.709h-2.99c-5.662 0-10.251 4.59-10.251 10.252v4.698h4.698c5.662 0 10.251-4.59 10.251-10.251v-2.99zM103.21 61.998c-.943 0-1.708.766-1.708 1.709v2.99c0 5.661 4.589 10.25 10.251 10.25h5.125V72.25c0-5.66-4.589-10.25-10.251-10.25h-3.417z" fill="#1CB0F6"/><path d="M87.551 117.376c.944 0 1.709-.765 1.709-1.709v-2.99c0-5.661-4.59-10.251-10.251-10.251H74.31v4.699c0 5.661 4.59 10.251 10.251 10.251h2.99z" fill="#2296E4"/><path d="M99.512 117.376c.944 0 1.709-.765 1.709-1.709v-2.99c0-5.661-4.59-10.251-10.251-10.251H86.27v4.699c0 5.661 4.59 10.251 10.251 10.251h2.99z" fill="#1CB0F6"/><path fill-rule="evenodd" clip-rule="evenodd" d="M68.018 68.263a2.123 2.123 0 0 0-4.246 0v2.667a2.123 2.123 0 1 0 4.246 0v-2.667zM74.621 68.263a2.123 2.123 0 0 0-4.246 0v2.667a2.123 2.123 0 1 0 4.246 0v-2.667z" fill="#3D3D3D"/><path d="M57.07 77.071h29.201c-2.682 4.022-7.21 6.709-12.374 6.85v.005H57.07v-6.855z" fill="#fff"/><path d="M55.518 83.926v8.949h.005c.223 8.153 6.791 14.721 14.944 14.943v.006H86.27V77.071c-2.682 4.022-7.21 6.709-12.374 6.85v.005H55.518z" fill="#47D7FF"/></svg>