<svg id="Cover" xmlns="http://www.w3.org/2000/svg" viewBox="0 0 135 124"><defs><style>.cls-2{fill:#e4e4e4}.cls-3{fill:#00aef8}.cls-4{fill:#0094e9}.cls-5,.cls-7{fill:#fff}.cls-6{fill:#bebebe}.cls-7{opacity:.5}.cls-8{fill:#666161}.cls-10{fill:#ff6360}.cls-11{fill:#ff4a46}</style></defs><path d="M124 28v80.07a.28.28 0 0 1 0 .09 17.17 17.17 0 0 1-.23 1.91c-.06.33-.13.66-.21 1s-.17.65-.27 1a1.55 1.55 0 0 1-.08.23 6.45 6.45 0 0 1-.21.62 14 14 0 0 1-.78 1.77c-.14.29-.3.57-.46.85a16.65 16.65 0 0 1-3.48 4.22l-.48.41c-.21.17-.42.34-.64.5s-.53.37-.8.55a3.36 3.36 0 0 1-.51.32l-.37.22a1.59 1.59 0 0 1-.31.17 7.49 7.49 0 0 1-.69.36c-.18.1-.37.18-.55.26s-.63.27-1 .39l-.66.23c-.3.1-.61.19-.92.27h-.12c-.3.08-.6.15-.91.21-.46.09-.93.16-1.4.21q-.31 0-.63.06a4.89 4.89 0 0 1-.54 0H27.26a16.25 16.25 0 0 1-2.45-.28l-.34-.06-.37-.09h-.14q-.45-.11-.9-.24a17.08 17.08 0 0 1-3.5-1.52l-.35-.21-.51-.32-.23-.14-.57-.41c-.22-.16-.43-.33-.64-.5l-.48-.41-.47-.42c-.31-.29-.6-.59-.88-.9s-.33-.37-.49-.56a15.25 15.25 0 0 1-1-1.3l-.16-.23c-.17-.26-.34-.53-.5-.81a13 13 0 0 1-.67-1.28l-.21-.44a16 16 0 0 1-.65-1.75c-.09-.3-.18-.61-.26-.92s-.16-.7-.23-1.06a16.56 16.56 0 0 1-.25-2V28a16.23 16.23 0 0 1 .24-2.81 15.64 15.64 0 0 1 1-3.6A17 17 0 0 1 28 11h79a17 17 0 0 1 17 17z" fill="#47d6ff"/><path class="cls-2" d="M124 44.45v60.28l-.04 3.34v.11H57.62V44.45H124z"/><path class="cls-3" d="M67.21 50.73h51.9v22.41h-51.9z"/><path class="cls-4" d="M67.21 50.73h51.9v4.83h-51.9zM67.21 63.8h51.9v4.83h-51.9z"/><path class="cls-5" d="M124 35.93v7.4H56a3.7 3.7 0 0 1-3.7-3.7 3.69 3.69 0 0 1 3.7-3.7z"/><path class="cls-6" d="M57.62 43.34H124v1.9H57.62z"/><path class="cls-3" d="M73.01 92.72h44.85v15.46H73.01z"/><path class="cls-4" d="M73.01 92.72h44.85v8.15H73.01z"/><path class="cls-7" d="M95.44 108.18h-9.43l13.25-15.46h9.43l-13.25 15.46zM78.35 73.27h-9.43l13.47-16.58a3.62 3.62 0 0 1 2.84-1.35 3.66 3.66 0 0 1 2.84 6zM110.9 50.68l-.05.05-18.2 22.42h-9.43l18.2-22.42.05-.05h9.43z"/><path class="cls-8" d="M100.46 91.79h2.66v16.39h-2.66zM65.38 91.79h2.66v16.39h-2.66z"/><path class="cls-5" d="M117.87 86.74v6H64.3a2.22 2.22 0 0 1-2.22-2.22V89a2.21 2.21 0 0 1 2.22-2.21z"/><path class="cls-6" d="M117.87 86.74v6H106a2.22 2.22 0 0 1-2.21-2.22V89a2.21 2.21 0 0 1 2.21-2.26zM73.01 92.72h3.18v15.46h-3.18zM64.15 50.73h3.18v22.42h-3.18z"/><rect x="65.47" y="75.14" width="41.98" height="8.66" rx="3.11" ry="3.11" fill="#a54140"/><rect class="cls-10" x="63.17" y="75.14" width="41.98" height="8.66" rx="3.11" ry="3.11"/><path class="cls-8" d="M96.69 83.8h2.66v2.93h-2.66zM69.85 83.8h2.66v2.93h-2.66z"/><path class="cls-2" d="M62.08 59.75h59.17v4.55H62.08z"/><path class="cls-10" d="M108.17 2.3h9.89v28.63h-9.89a3.14 3.14 0 0 1-3.17-3.14V5.44a3.14 3.14 0 0 1 3.17-3.14z"/><path class="cls-8" d="M116.81 2.29h2.5v33.6h-2.5z"/><path class="cls-10" d="M63.3 2.3h9.89v28.63H63.3a3.14 3.14 0 0 1-3.14-3.14V5.44A3.14 3.14 0 0 1 63.3 2.3zM85.73 2.3h9.89v28.63h-9.89a3.14 3.14 0 0 1-3.14-3.14V5.44a3.14 3.14 0 0 1 3.14-3.14z"/><path class="cls-8" d="M71.94 2.29h2.5v33.6h-2.5zM94.78 2.29h2.5v33.6h-2.5z"/><path class="cls-2" d="M124 108.09a17 17 0 0 1-11 14.85l-.66.23c-.3.1-.61.19-.92.27s-.54.14-.81.2a17.83 17.83 0 0 1-3.61.36H28a17 17 0 0 1-17-15.91z"/><path class="cls-10" d="M41.12 109.32l-11.64 3.57-9.39-30.63a18.27 18.27 0 0 1-.39-9.34l3.15-14.43 2.39-10.93 3-13.89a6.09 6.09 0 0 1 11.9 2.6l-3.43 15.84-2.14 9.8-3 13.61a2.87 2.87 0 0 0-.07.5 5.8 5.8 0 0 0 .17 2.52v.15z"/><path class="cls-10" d="M34.05 62a3.49 3.49 0 0 0 1.39-.53l15-9.78a3.59 3.59 0 0 0 1.56-3.4l-2.91-24.66a3.59 3.59 0 1 0-7.12.85l2.68 22.45-13.13 8.56A3.58 3.58 0 0 0 34.05 62z"/><path class="cls-10" d="M26.59 61.11a3.71 3.71 0 0 0 .95-.29 3.59 3.59 0 0 0 1.73-4.77L8 10.53a3.59 3.59 0 0 0-6.5 3l21.27 45.56a3.59 3.59 0 0 0 3.82 2.02z"/><path class="cls-5" d="M30.56 36.31a.64.64 0 0 0-.79.58 4.17 4.17 0 0 0 8 1.8.64.64 0 0 0-.46-.86z"/><path class="cls-11" d="M36.67 52.28l2.19 6.99-4.43 2.97 2.24-9.96z"/><path class="cls-8" d="M21.21 104.59h25.6v8a5 5 0 0 1-5 5H26.19a5 5 0 0 1-5-5v-8h.02z" transform="rotate(-180 34.015 111.085)"/><path d="M19.16 114.27h29.71a.24.24 0 0 1 .24.24 3.54 3.54 0 0 1-3.54 3.49H22.46a3.54 3.54 0 0 1-3.54-3.54.24.24 0 0 1 .24-.24z" transform="rotate(180 34.015 116.16)" fill="#a8a8a8"/><path class="cls-11" d="M31.69 78.54h-5.07a1.26 1.26 0 1 1 0-2.52h4.9a5.8 5.8 0 0 0 .17 2.52zM22.77 59.09l2.59 5.36-4.57 3.49 1.98-8.85z"/></svg>