<svg viewBox="0 0 135 124" fill="none" xmlns="http://www.w3.org/2000/svg"><g clip-path="url(#clip0)"><path d="M124 27.79v79.3c.001.642-.04 1.283-.12 1.92A16.999 16.999 0 0 1 107 124H28a16.932 16.932 0 0 1-12.67-5.67c-.418-.47-.812-.96-1.18-1.47A17 17 0 0 1 11 107V28a17 17 0 0 1 17-17h79a16.999 16.999 0 0 1 17 16.79z" fill="#3072C6"/><path d="M40.08 47.53c7.826 0 14.17-6.344 14.17-14.17 0-7.825-6.344-14.17-14.17-14.17s-14.17 6.345-14.17 14.17c0 7.826 6.344 14.17 14.17 14.17z" fill="#FED731"/><path d="M88.29 35.83H48.24a5.12 5.12 0 1 0 0 10.24h-.57a3.25 3.25 0 0 1 3.25 3.25 3.21 3.21 0 0 1-3 3.25H38a5.12 5.12 0 1 0 0 10.24h36a5.12 5.12 0 0 0 0-10.24h.26a3.312 3.312 0 0 1-3.5-3.25 3.24 3.24 0 0 1 3.25-3.25h14.28a5.12 5.12 0 0 0 0-10.24z" fill="#6797D5"/><path d="M109.66 123.86c-.622.1-1.25.163-1.88.19H28a15.973 15.973 0 0 1-3-.27L67.43 93.9l33.82 24 8.41 5.96zM108.93 4.55h-2.68v23.12h2.68V4.55z" fill="#4E2989"/><path d="M98.37 22.32h18.44a2.858 2.858 0 0 1 2.86 2.86v5.36H95.51v-5.36a2.86 2.86 0 0 1 2.86-2.86z" fill="#6F4EA1"/><path d="M84.49 41.66h46.2a4.31 4.31 0 0 0 4.31-4.31v-5.13a4.31 4.31 0 0 0-4.31-4.31h-46.2a4.31 4.31 0 0 0-4.31 4.31v5.13a4.31 4.31 0 0 0 4.31 4.31z" fill="#4E2989"/><path d="M108.49.56l1.92 3.9 4.31.63a.998.998 0 0 1 .806.677 1.006 1.006 0 0 1-.246 1.023l-3.12 3.05.74 4.29a1 1 0 0 1-1.45 1l-3.86-2-3.86 2a1.001 1.001 0 0 1-1.45-1l.72-4.29-3.12-3a1 1 0 0 1 .55-1.7l4.32-.63 1.92-3.9a1.006 1.006 0 0 1 .894-.61.998.998 0 0 1 .926.56z" fill="#6F4EA1"/><path d="M113.93 37.5v85.09l-.15.07a16.945 16.945 0 0 1-6 1.39h-6.53V37.5h12.68zM68.71 70.98h-3.58a2.1 2.1 0 1 0 0 4.2h3.58a2.1 2.1 0 1 0 0-4.2z" fill="#4E2989"/><path d="M72.57 21.58a1.11 1.11 0 1 0 0-2.22 1.11 1.11 0 0 0 0 2.22zM21.09 82.87a1.11 1.11 0 1 0 0-2.22 1.11 1.11 0 0 0 0 2.22zM90.4 63.92a1.11 1.11 0 1 0 0-2.22 1.11 1.11 0 0 0 0 2.22zM84.82 72.09a1.11 1.11 0 1 0 0-2.22 1.11 1.11 0 0 0 0 2.22z" fill="#fff"/><path d="M85.94 59.48a2.68 2.68 0 1 0 0-5.36 2.68 2.68 0 0 0 0 5.36zM97.27 59.48a2.68 2.68 0 1 0 0-5.36 2.68 2.68 0 0 0 0 5.36zM129.24 59.48a2.68 2.68 0 1 0 0-5.36 2.68 2.68 0 0 0 0 5.36zM117.91 59.48a2.68 2.68 0 1 0 0-5.36 2.68 2.68 0 0 0 0 5.36z" fill="#4E2989"/><path d="M86.93 39.34h-2V56.8h2V39.34zM98.27 39.34h-2V56.8h2V39.34zM119.03 39.34h-2V56.8h2V39.34z" fill="#4E2989"/><path d="M67.43 93.9l-27.21 30.17h16.01l11.2-30.17z" fill="#6F4EA1"/><path d="M67.42 93.9l27.21 30.17H78.62L67.42 93.9z" fill="#6F4EA1"/><path d="M68.48 79.62h-2.12v15.1h2.12v-15.1z" fill="#4E2989"/><path d="M50.15 74.54h18.33v8.38h-21v-5.74a2.64 2.64 0 0 1 2.67-2.64z" fill="#4E2989"/><path d="M32 79.43h23.84v5.29a3.09 3.09 0 0 1-3.09 3.09H32a.77.77 0 0 1-.47-1.39l3.68-2.8-3.68-2.8a.77.77 0 0 1 .47-1.39zM130.37 37.4h-2v17.46h2V37.4z" fill="#4E2989"/></g><defs><clipPath id="clip0"><path fill="#fff" d="M0 0h135v124H0z"/></clipPath></defs></svg>