<svg viewBox="0 0 135 124" fill="none" xmlns="http://www.w3.org/2000/svg"><g clip-path="url(#clip0)"><path fill-rule="evenodd" clip-rule="evenodd" d="M28 11h79c9.389 0 17 7.611 17 17v79c0 9.389-7.611 17-17 17H28c-9.389 0-17-7.611-17-17V28c0-9.389 7.611-17 17-17z" fill="#FFCA00"/><path d="M122.278 20.93L20.758 122.45a16.937 16.937 0 0 0 7.08 1.56h41.32l54.68-54.68V28.01a16.938 16.938 0 0 0-1.56-7.08zm-72.12 48.14l58-58c-.43 0-.87-.07-1.31-.07h-48.59l-33.08 33.09c-6.904 6.904-6.904 18.096 0 25 6.903 6.904 18.096 6.904 25 0l-.02-.02z" fill="#FFD900"/><path d="M66.703 110.386l-7.622-9.681a7.045 7.045 0 0 1 1.004-9.753l19.183-16.114-6.822 34.173a3.252 3.252 0 0 1-5.743 1.375zm54.317 6.296l9.551-7.783a7.046 7.046 0 0 0 1.149-9.737l-15.203-19.914-.802 34.838a3.25 3.25 0 0 0 5.305 2.596z" fill="#E27903"/><path fill-rule="evenodd" clip-rule="evenodd" d="M93.586 70.49l10.227 1.13c10.325 1.14 17.77 10.435 16.629 20.76l-.92 8.33c-.632 5.724-5.785 9.852-11.509 9.219l-26.888-2.97c-5.724-.633-9.852-5.786-9.22-11.51l.921-8.33c1.14-10.325 10.436-17.77 20.76-16.63z" fill="#F79B24"/><path opacity=".5" d="M83.408 93.504c7.195.795 13.673-4.394 14.468-11.59a13.095 13.095 0 0 0-4.57-11.453c-9.849-.942-18.699 5.911-20.33 15.578a13.1 13.1 0 0 0 10.432 7.465z" fill="#E27903"/><path d="M93.543 82.438a2.642 2.642 0 1 0-5.252-.58l-.183 1.655a2.642 2.642 0 1 0 5.252.58l.183-1.656zm12.515 1.382a2.64 2.64 0 1 0-5.252-.58l-.183 1.656a2.642 2.642 0 0 0 5.252.58l.183-1.656z" fill="#E27903"/><path d="M98.29 100.212l-5.667-.626a5.85 5.85 0 1 0-1.285 11.63l5.668.627a5.852 5.852 0 0 0 1.285-11.631z" fill="#FED773"/><path fill-rule="evenodd" clip-rule="evenodd" d="M90.83 101.13l4.437.491-1.326 12.003a7.002 7.002 0 0 1-13.919-1.537l.28-2.523c.578-5.236 5.292-9.012 10.528-8.434z" fill="#FDB02A"/><path fill-rule="evenodd" clip-rule="evenodd" d="M91.048 103.242a1.063 1.063 0 0 1-.73 1.314 2.01 2.01 0 0 0-1.153.811c-.291.419-.519 1.039-.617 1.931l-.635 5.748a1.062 1.062 0 1 1-2.113-.234l.635-5.748c.124-1.12.43-2.113.984-2.91a4.135 4.135 0 0 1 2.315-1.642 1.063 1.063 0 0 1 1.314.73z" fill="#F79B24"/><path d="M96.598 90.51a10.158 10.158 0 0 0-7.629-4.913c-5.585-.617-10.612 3.41-11.23 8.995l-.063.574c-.617 5.585 3.41 10.613 8.995 11.23a10.159 10.159 0 0 0 8.517-3.13 10.16 10.16 0 0 0 7.629 4.914c5.585.617 10.612-3.411 11.229-8.996l.064-.574c.617-5.585-3.41-10.613-8.995-11.23a10.159 10.159 0 0 0-8.517 3.13z" fill="#FFF1A2"/><path d="M98.104 84.876l-1.843-.203a3.28 3.28 0 1 0-.72 6.52l1.843.204a3.28 3.28 0 0 0 .72-6.52z" fill="#E27903"/><path d="M105.467 94.628a1.624 1.624 0 0 1-1.428-1.797 1.623 1.623 0 0 1 1.785-1.443 1.624 1.624 0 0 1 1.428 1.798 1.623 1.623 0 0 1-1.785 1.442zm2.734 4.674a1.623 1.623 0 0 1-1.427-1.797 1.623 1.623 0 0 1 1.785-1.443 1.623 1.623 0 0 1 1.427 1.798 1.622 1.622 0 0 1-1.785 1.442zM86.74 92.779a1.623 1.623 0 0 0 1.784-1.442c.099-.895-.54-1.7-1.427-1.798a1.623 1.623 0 0 0-1.785 1.443 1.623 1.623 0 0 0 1.427 1.797zm-3.69 3.964a1.623 1.623 0 0 0 1.785-1.442c.099-.895-.54-1.7-1.427-1.797a1.623 1.623 0 0 0-1.785 1.442c-.1.895.54 1.7 1.427 1.797z" fill="#F79B24"/><path d="M54.658 10.487a12.654 12.654 0 0 1 12.004 2.6l5.102 4.47c5.26 4.609 5.788 12.609 1.18 17.869l-3.999 4.562a12.654 12.654 0 0 1-11.593 4.15l.128 3.021-39.968 1.692-.112-2.641a12.613 12.613 0 0 1-7.995-3.519l-4.368-4.208C0 33.631-.15 25.615 4.7 20.578l4.706-4.885a12.649 12.649 0 0 1 11.151-3.715C21.292 5.933 26.311 1.133 32.593.867L41.737.48c6.266-.265 11.66 4.07 12.921 10.007z" fill="#E27903"/><path d="M55.036 44.334a9.7 9.7 0 0 1 10.102 9.28l1.026 24.229c.266 6.289-4.617 11.603-10.906 11.869l-28.104 1.19c-6.29.266-11.603-4.616-11.87-10.905L14.26 55.769c-.227-5.353 3.929-9.875 9.281-10.102l31.496-1.333z" fill="#F79B24"/><path d="M30.099 35.284a9.8 9.8 0 0 0 5.205 7.457l-24.707 1.046 3.653 16.835 24.963-14.567 26.104 12.406 2.217-17.084-24.247 1.026a9.798 9.798 0 0 0 4.398-7.768l.118-2.764a9.809 9.809 0 0 0-8.811 4.713 9.809 9.809 0 0 0-9.245-4.045l.352 2.745z" fill="#FDB02A"/><path d="M71.071 63.624a5.784 5.784 0 1 1-11.557.489 5.784 5.784 0 0 1 11.557-.49zm-50.7 2.383a5.784 5.784 0 1 1-11.557.49 5.784 5.784 0 0 1 11.557-.49z" fill="#F79B24"/><path d="M25.33 63.98l.077 1.806a6.484 6.484 0 0 0 12.955-.548l-.076-1.806-12.956.548zm16.623-.703l.077 1.806a6.484 6.484 0 0 0 12.956-.549l-.077-1.806-12.956.549z" fill="#FFF1A2"/><path d="M31.066 63.738l.076 1.805a2.87 2.87 0 0 0 5.735-.243l-.077-1.805-5.734.243zm12.373-.524l.076 1.805a2.87 2.87 0 0 0 5.735-.243l-.077-1.805-5.734.243z" fill="#E27903"/><path d="M39.947 59.39a1.496 1.496 0 0 1 1.559 1.431l.01.26.001.016a1.106 1.106 0 0 0 1.151 1.042l15.537-.657a1.496 1.496 0 1 1 .126 2.99l-15.536.658a4.082 4.082 0 0 1-2.64-.821 4.078 4.078 0 0 1-2.56 1.04l-15.537.658a1.496 1.496 0 1 1-.126-2.99l15.536-.657a1.106 1.106 0 0 0 1.06-1.136l-.002-.016-.01-.26a1.497 1.497 0 0 1 1.431-1.559zM42 70.055c-.657-1.131-1.642-2.313-1.7-2.31-.06.002-.944 1.266-1.502 2.45a2.184 2.184 0 0 0 .82 4.239l1.938-.082A2.182 2.182 0 0 0 42 70.055z" fill="#E27903"/><path fill-rule="evenodd" clip-rule="evenodd" d="M45.201 77.35c-2.456.33-5.629 1.247-7.815 2.004a1.08 1.08 0 1 1-.706-2.04c2.24-.775 5.57-1.746 8.234-2.103 1.293-.174 2.61-.231 3.574.072.5.157 1.056.458 1.38 1.042.334.602.29 1.263.095 1.848a1.08 1.08 0 0 1-2.047-.686.798.798 0 0 0 .03-.106 1.019 1.019 0 0 0-.105-.039c-.473-.149-1.373-.162-2.64.008zm2.815.07l-.003-.003a.013.013 0 0 1 .003.002zm-.06-.112v-.007.007z" fill="#E27903"/><path fill-rule="evenodd" clip-rule="evenodd" d="M27.138 114.067c-2.808-.932-5.071-3.115-5.875-6.062-1.314-4.821 1.774-9.862 6.897-11.258 2.617-.714 5.26-.338 7.394.844 1.24-2.101 3.325-3.767 5.943-4.48 5.123-1.397 10.342 1.38 11.656 6.2.746 2.737.073 5.544-1.585 7.716l-7.564 11.281a3.819 3.819 0 0 1-4.771 1.34l-12.095-5.581z" fill="#FDB02A"/><path opacity=".607" d="M31.189 109.341c2.048-.558 3.26-2.656 2.706-4.685-.553-2.029-2.662-3.221-4.71-2.663-2.047.558-3.26 2.656-2.706 4.685.553 2.029 2.662 3.221 4.71 2.663z" fill="#FFF1A2"/><path d="M99 63c11.598 0 21-9.402 21-21s-9.402-21-21-21-21 9.402-21 21 9.402 21 21 21z" fill="#FDB02A"/><path d="M106.98 49.993c-5.239 5.204-12.95 5.352-17.93.37-1.255-1.255-2.03-2.732-2.768-4.208l-.13-.241c-.688-1.276-1.337-2.482-2.379-3.523-2.352-2.319-4.839-2.731-5.773-2.798.106-.954.276-1.889.505-2.8 1.548.169 4.492.835 7.26 3.605 1.366 1.402 2.214 2.952 2.99 4.428.663 1.292 1.327 2.51 2.287 3.47 3.837 3.875 9.814 3.727 13.909-.37 4.058-4.06 4.243-10.038.369-13.913-.895-.895-2.015-1.502-3.21-2.148a54.462 54.462 0 0 1-.258-.14l-.012-.007c-1.473-.773-3.017-1.584-4.416-2.983-2.752-2.753-3.427-5.68-3.6-7.236.91-.227 1.845-.395 2.798-.499.073.982.501 3.411 2.832 5.742 1.041 1.042 2.246 1.692 3.522 2.38l.241.13.267.147c1.321.728 2.69 1.482 3.865 2.658 5.018 5.02 4.833 12.732-.369 17.936z" fill="#FFF1A2"/></g><defs><clipPath id="clip0"><path fill="#fff" d="M0 0h135v124H0z"/></clipPath></defs></svg>