<svg viewBox="0 0 135 124" version="1.1" xmlns="http://www.w3.org/2000/svg"><g stroke="none" stroke-width="1" fill="none" fill-rule="evenodd"><g transform="translate(-1 7)"><rect fill="#FFCA00" x="12.298" y="4" width="113" height="113" rx="17"/><path d="M123.738 13.93L22.218 115.45a16.94 16.94 0 0 0 7.08 1.56h41.32l54.68-54.68V21.01a16.94 16.94 0 0 0-1.56-7.08zm-72.12 48.14l58-58c-.43 0-.87-.07-1.31-.07h-48.59l-33.08 33.09c-6.903 6.904-6.903 18.096 0 25 6.904 6.904 18.097 6.904 25 0l-.02-.02z" fill="#FFD900" fill-rule="nonzero"/><path d="M57.905 31.596l3.524 62.9A9 9 0 0 1 52.443 104H26.122a9 9 0 0 1-7.47-14.022l39.253-58.382z" fill="#FFF1A2"/><rect fill="#FFF1A2" transform="rotate(-29 66.035 78.273)" x="59.535" y="49.273" width="13" height="58" rx="6.5"/><path d="M20.404 62.325c.722-.064 1.36.485 1.425 1.225l2.032 23.222c.064.74-.469 1.39-1.19 1.454-6.981.61-13.147-4.693-13.773-11.845-.626-7.152 4.526-13.446 11.506-14.056z" fill="#F89700" fill-rule="nonzero"/><path d="M5.256 75.23c.283-.667 1.067-.973 1.75-.682l21.458 9.108c.683.29 1.008 1.066.725 1.733-2.738 6.45-10.315 9.405-16.924 6.6-6.61-2.806-9.747-10.309-7.01-16.759z" fill="#F89700" fill-rule="nonzero"/><rect fill="#F89700" x="108.298" y="69" width="5" height="32" rx="2.5"/><path d="M101.298 93.553a6 6 0 0 1 7.349 4.243M119.973 93.553a6 6 0 0 0-7.349 4.243" stroke="#F89700" stroke-width="4.8" stroke-linecap="round" stroke-linejoin="round"/><path d="M106.298 99h9a6 6 0 0 1 6 6h-21a6 6 0 0 1 6-6z" fill="#E27903"/><path d="M102.168.382c.382.231.702.555.93.942l2.076 3.532 3.73-1.62a2.664 2.664 0 0 1 3.515 1.422c.176.414.246.867.206 1.316l-.37 4.094 3.958.909c1.442.331 2.345 1.783 2.018 3.244-.098.44-.303.848-.597 1.187L114.96 18.5l2.674 3.092a2.736 2.736 0 0 1-.249 3.826 2.664 2.664 0 0 1-1.172.605l-3.958.908.37 4.095c.134 1.491-.95 2.81-2.422 2.947-.443.041-.89-.03-1.299-.208l-3.73-1.622-2.076 3.533a2.657 2.657 0 0 1-3.67.942 2.694 2.694 0 0 1-.93-.942l-2.076-3.533-3.73 1.622a2.664 2.664 0 0 1-3.514-1.423 2.743 2.743 0 0 1-.206-1.316l.37-4.095-3.958-.908c-1.442-.331-2.346-1.783-2.019-3.244.099-.44.304-.848.597-1.187l2.674-3.092-2.674-3.092a2.736 2.736 0 0 1 .25-3.826 2.664 2.664 0 0 1 1.172-.605l3.957-.91-.37-4.093c-.134-1.491.95-2.81 2.422-2.947.444-.041.89.03 1.3.208l3.73 1.621 2.076-3.532a2.657 2.657 0 0 1 3.669-.942z" fill="#FFB100" fill-rule="nonzero"/><circle fill="#FFF1A2" cx="100.798" cy="18.5" r="11.5"/><circle fill="#FFC800" cx="47.298" cy="65" r="5"/><rect fill="#FFB100" transform="rotate(30 55.961 57.096)" x="39.961" y="52.596" width="32" height="9" rx="2"/><path d="M75.831 14.074a1.5 1.5 0 0 1 .111 2.118L58.545 35.514a1.5 1.5 0 0 1-2.119.11c-5.95-5.358-6.431-14.526-1.073-20.477 5.359-5.951 14.527-6.432 20.478-1.073z" fill="#FFF1A2" fill-rule="nonzero"/><path d="M64.161 26.703l25.889 18.81c5.808 4.22 7.096 12.35 2.876 18.158-4.22 5.808-12.35 7.096-18.158 2.876l-25.889-18.81c-5.809-4.22-7.096-12.35-2.876-18.158 4.22-5.808 12.35-7.096 18.158-2.876z" fill="#FFF1A2"/><path d="M52.042 1.026c.88-.03 1.617.662 1.648 1.547l.97 27.776a1.599 1.599 0 0 1-1.537 1.659c-8.503.297-15.639-6.398-15.937-14.953-.3-8.556 6.352-15.732 14.856-16.029z" fill="#F89700" fill-rule="nonzero"/><path d="M59.715 24.615l.01.047c.155.62.236 1.267.236 1.934v8a8 8 0 1 1-16 0v-.742a12.97 12.97 0 0 1 2.042-4.275c3.218-4.43 8.71-6.23 13.712-4.964z" fill="#F89700"/><path d="M52.436 33.294c.087.134.179.31.275.53a4.82 4.82 0 0 0 8.024 1.235M67.436 36.294c.087.134.179.31.275.53a4.82 4.82 0 0 0 8.024 1.235" stroke="#E27903" stroke-width="5.24" stroke-linecap="round" stroke-linejoin="round"/><path d="M81.635 43.504c-.88 0-1.594.718-1.594 1.603v27.794c0 .885.713 1.603 1.594 1.603 8.508 0 15.406-6.94 15.406-15.5 0-8.56-6.898-15.5-15.406-15.5z" fill="#FFF1A2" fill-rule="nonzero"/><path d="M70.39 50.209c-.66.128-1.094.755-.969 1.4l3.935 20.242c.125.645.762 1.064 1.423.935 6.387-1.241 10.582-7.302 9.37-13.536-1.211-6.235-7.372-10.283-13.759-9.041z" fill="#FFF1A2" fill-rule="nonzero"/><path d="M92.357 47.703l1.662.353a5.749 5.749 0 0 1 3.17 9.364l-.22.258a6 6 0 0 1-10.002-1.384l-.537-1.161a5.314 5.314 0 0 1 5.927-7.43z" fill="#E27903"/><path d="M76.961 55.596a7 7 0 0 0 7 7" stroke="#F89700" stroke-width="5" stroke-linecap="round" stroke-linejoin="round"/><rect fill="#FFF1A2" transform="scale(-1 1) rotate(-21 0 691.691)" x="105.651" y="65.589" width="18" height="15" rx="7.5"/><rect fill="#FFF1A2" transform="rotate(-21 107.024 72.91)" x="97.524" y="65.41" width="19" height="15" rx="7.5"/><rect fill="#FFF1A2" transform="matrix(0 1 1 0 44.798 -44.798)" x="102.798" y="57.818" width="16" height="16.364" rx="8"/><rect fill="#FFB100" transform="matrix(0 1 1 0 37.48 -37.48)" x="105.298" y="66.318" width="11" height="14" rx="5.5"/><rect fill="#E27903" transform="matrix(0 1 1 0 36.48 -36.48)" x="107.798" y="70.818" width="6" height="7" rx="3"/><path d="M35.298 68v26c0 5.381-4.25 9.77-9.577 9.991a9 9 0 0 1-7.068-14.013l16.365-24.34c.183.757.28 1.548.28 2.362zM108.298 117h-79c-8.01 0-14.727-5.541-16.526-13h112.053c-1.799 7.459-8.516 13-16.527 13z" fill="#F89700"/></g></g></svg>