<svg viewBox="0 0 135 124" fill="none" xmlns="http://www.w3.org/2000/svg"><path d="M11 28c0-9.389 7.611-17 17-17h79c9.389 0 17 7.611 17 17v79c0 9.389-7.611 17-17 17H28c-9.389 0-17-7.611-17-17V28z" fill="#E5E5E5"/><path d="M127.363 35.95l-54.636-5.726a1.742 1.742 0 0 1-1.546-1.908l2.262-21.589c.1-.95.958-1.646 1.908-1.546l54.637 5.725c.95.1 1.645.958 1.546 1.908l-2.262 21.589c-.1.95-.959 1.646-1.909 1.546z" fill="#D8D8D8"/><path d="M91.056 6.827L75.35 5.18c-.95-.1-1.808.596-1.908 1.546l-2.262 21.589c-.1.95.596 1.808 1.546 1.908l15.704 1.645 2.625-25.042z" fill="#979797"/><path d="M112.676 22.983l-18.83-1.973a.231.231 0 0 1-.206-.255l.09-.868a.232.232 0 0 1 .255-.206l18.831 1.973a.232.232 0 0 1 .206.255l-.091.868a.233.233 0 0 1-.255.206zM112.28 26.763L93.45 24.79a.231.231 0 0 1-.206-.255l.09-.868a.231.231 0 0 1 .255-.206l18.83 1.973c.128.013.22.127.207.255l-.091.868a.233.233 0 0 1-.255.206zM111.884 30.543l-18.83-1.973a.231.231 0 0 1-.206-.255l.09-.868a.232.232 0 0 1 .255-.206l18.83 1.973c.128.013.22.127.207.254l-.091.869a.232.232 0 0 1-.255.206z" fill="#BFBFBF"/><path d="M97.724 12.269a.462.462 0 0 1 .718-.581l1.387 1.711a.46.46 0 0 1 .1.344.46.46 0 0 1-.17.32l-1.711 1.387a.462.462 0 0 1-.582-.718l.854-.691-3.474-.364a.462.462 0 0 1 .096-.918l3.474.364-.692-.854z" fill="#979797"/><path d="M80.825 12.551l-.305 2.91a.604.604 0 0 1-.274.446l-4.811 3.076a.753.753 0 0 0-.344.556l-.082.79a.188.188 0 0 0 .244.198l4.548-1.434a.241.241 0 0 1 .312.255l-.303 2.892a3.4 3.4 0 0 0-1.628.898l-.053.052a.48.48 0 0 0-.019.665.495.495 0 0 0 .648.058c.553-.386 1.214-.644 1.816-.591.298.024.598.13.885.294.287.164.558.383.812.63a.478.478 0 0 0 .65.014.492.492 0 0 0 .066-.642l-.042-.063a3.887 3.887 0 0 0-.415-.487 3.509 3.509 0 0 0-.52-.416 2.921 2.921 0 0 0-.458-.25l.295-2.82a.241.241 0 0 1 .359-.184l4.037 2.281a.188.188 0 0 0 .28-.144l.083-.79a.753.753 0 0 0-.22-.614l-3.96-3.898a.603.603 0 0 1-.176-.493l.319-3.04a.877.877 0 0 0-.897-.965c-.444.012-.8.374-.847.816z" fill="#E9E8E7"/><path d="M124.465 31.861l-8.981-.941a.695.695 0 0 1-.619-.763l.787-7.507a.695.695 0 0 1 .763-.619l8.982.941c.381.04.658.382.618.764l-.787 7.506a.694.694 0 0 1-.763.619zM125.841 18.727l-22.991-2.41a.695.695 0 0 1-.619-.762l.278-2.65a.695.695 0 0 1 .763-.618l22.992 2.409c.381.04.658.382.618.763l-.277 2.65a.695.695 0 0 1-.764.618z" fill="#979797"/><path d="M39.5 80.34l-2.232 4.973a2.286 2.286 0 0 1-1.493 1.271l-2.32.622a2.286 2.286 0 0 1-1.927-.352l-4.477-3.22a2.2 2.2 0 0 1-1.13-2.692l.93-2.744a2.286 2.286 0 0 1 1.573-1.476l6.468-1.733a2.286 2.286 0 0 1 2.1.491l2.177 1.913c.861.757.991 2.037.331 2.948z" fill="#BFBFBF"/><path fill-rule="evenodd" clip-rule="evenodd" d="M24.693 100.909c-1.864-6.956 2.267-14.104 9.223-15.968 6.957-1.864 14.108 2.261 15.972 9.217 1.864 6.955-2.267 14.103-9.224 15.967-6.956 1.864-14.107-2.261-15.971-9.216zm10.406-11.552c-4.52 1.211-7.2 5.854-5.99 10.369 1.21 4.514 5.852 7.195 10.372 5.984 4.52-1.211 7.2-5.854 5.991-10.369-1.21-4.515-5.853-7.195-10.373-5.984z" fill="#BFBFBF"/><path d="M28.426 89.6a1.143 1.143 0 0 1 1.704 1.523 9.595 9.595 0 0 0-2.125 8.898 1.143 1.143 0 1 1-2.208.592A11.88 11.88 0 0 1 28.426 89.6zM43.949 107.393a1.142 1.142 0 1 1-1.279-1.895 9.642 9.642 0 0 0 4.188-7.001 1.143 1.143 0 1 1 2.274.23 11.93 11.93 0 0 1-5.183 8.666z" fill="#fff"/><path d="M33.961 85.055l2.624-2.86a1.714 1.714 0 1 1 2.527 2.318l-3.375 3.679a1.714 1.714 0 0 1-1.805.467l-4.616-1.538A1.714 1.714 0 0 1 30.4 83.87l3.561 1.186zM3 34.554C3 17.034 17.203 2.832 34.722 2.832h.738c17.52 0 31.722 14.203 31.722 31.722v4.191c0 17.52-14.203 31.723-31.722 31.723h-.738C17.202 70.468 3 56.265 3 38.745v-4.19z" fill="#BFBFBF"/><path d="M36.83 62.135c-1.061.358-2.131.672-3.202.946-6.447 1.652-12.809 1.843-17.096 1.657a31.66 31.66 0 0 0 5.758 3.201c3.66-.165 7.87-.653 12.135-1.746 8.247-2.114 16.885-6.543 21.981-15.465-4.271 6.455-11.396 10.857-19.577 11.407z" fill="#A9A8A8"/><path d="M60.633 36.65c0 14.107-11.436 25.543-25.543 25.543S9.547 50.757 9.547 36.65 20.983 11.107 35.09 11.107 60.633 22.543 60.633 36.65z" fill="#D8D8D8"/><path d="M31.986 46.374c-.673-.353-1.505.102-1.505.862v6.972a4.61 4.61 0 0 0 9.22 0v-6.972c0-.76-.833-1.215-1.505-.862-.965.506-2.012.903-3.105.903-1.094 0-2.14-.397-3.105-.903z" fill="#959595"/><path d="M39.262 56.172a4.61 4.61 0 0 0-8.343 0 4.61 4.61 0 0 0 8.343 0z" fill="#BFBFBF"/><path d="M14.467 30.735c18.832.642 29.17-9.444 34.906-15.295a25.424 25.424 0 0 0-14.239-4.333 25.44 25.44 0 0 0-16.379 5.942c-.084.05-.167.109-.25.176-.308.252-.616.517-.93.787-2.217 1.913-4.673 4.032-9.428 2.882-.09-.022-.177-.042-.26-.06L5.51 20.22c-.835-.226-1.449.303-1.403 1.168.22 4.157 3.123 7.768 7.242 8.877.586.157 1.176.259 1.763.307.466.089.927.147 1.355.162z" fill="#979797"/><path d="M35.665 32.002a8.659 8.659 0 1 1-17.318 0 8.659 8.659 0 0 1 17.318 0z" fill="#fff"/><path d="M51.834 32.002a8.659 8.659 0 1 1-17.318 0 8.659 8.659 0 0 1 17.318 0z" fill="#fff"/><path d="M14.582 34.005v9.798H34.96c-3.534-5.985-10.05-9.999-17.504-9.999-.975 0-1.934.069-2.873.201z" fill="#D8D8D8"/><path d="M57.804 15.993a4.939 4.939 0 1 0-6.985 6.984l6.632 6.632a1.633 1.633 0 0 0 2.31 0l6.632-6.632a4.939 4.939 0 1 0-6.985-6.984l-.224.224a.816.816 0 0 1-1.155 0l-.225-.224zM52.363 2.003a3.426 3.426 0 1 0-4.845 4.845l4.246 4.246a1.633 1.633 0 0 0 2.31 0l4.247-4.246a3.426 3.426 0 0 0-4.845-4.845.787.787 0 0 1-1.113 0zM38.84 7.73a3.777 3.777 0 1 0-5.342 5.343l4.8 4.8a1.633 1.633 0 0 0 2.31 0l4.8-4.8a3.777 3.777 0 0 0-5.341-5.342l-.036.036a.817.817 0 0 1-1.155 0l-.036-.036z" fill="#A6A6A6"/><path d="M27.202 23.208a3.267 3.267 0 0 0-2.411 5.47 3.28 3.28 0 1 1 4.72 4.527 3.266 3.266 0 0 0 6.148-1.54 8.457 8.457 0 0 0-8.457-8.457zM43.92 23.208a3.267 3.267 0 0 0-2.186 5.695 3.28 3.28 0 1 1 4.621 4.52 3.267 3.267 0 0 0 6.021-1.757 8.457 8.457 0 0 0-8.456-8.458z" fill="#979797"/><path d="M29.827 43.803a7.861 7.861 0 1 1-15.722 0 7.861 7.861 0 0 1 15.722 0z" fill="#CECECE"/><path d="M64.142 67.22c2.269-13.928 14.3-24.157 28.41-24.157 14.112 0 26.142 10.229 28.411 24.156l7.414 45.514a1.953 1.953 0 0 1-1.928 2.267H58.656a1.953 1.953 0 0 1-1.928-2.267l7.414-45.514z" fill="#BFBFBF"/><path d="M83.943 54.492h-.215c-7.952 0-14.635 5.972-15.526 13.873L65.02 96.583c-.424 3.763 2.52 7.058 6.307 7.058h43.588c3.787 0 6.732-3.295 6.307-7.058l-.992-17.462a5.727 5.727 0 0 0-.121-11.452h-19.526c-8.093 0-14.871-5.624-16.64-13.177z" fill="#D1D1D1"/><path d="M85.39 104.618c0-.539.438-.976.977-.976h12.376c.539 0 .976.437.976.976v9.405c0 .54-.437.977-.976.977H86.367a.976.976 0 0 1-.977-.977v-9.405z" fill="#A6A6A6"/><path d="M92.383 77.567a7.812 7.812 0 0 0-7.812-7.812h-6.33a.977.977 0 0 0-.977.977v7.722a7.812 7.812 0 0 0 7.812 7.812h3.62a3.686 3.686 0 0 0 3.687-3.686v-5.013z" fill="#fff"/><path d="M82.819 79.31v1.4a3.394 3.394 0 1 0 6.787 0v-1.4H82.82z" fill="#979797"/><path d="M92.384 82.39v-4.823a7.812 7.812 0 0 0-7.813-7.812h-6.33a.977.977 0 0 0-.977.977v7.722c0 .813.125 1.597.355 2.334l14.765 1.603z" fill="#BFBFBF"/><path d="M93.67 84.168l-20.366-1.276-.48 7.662 20.366 1.277.48-7.663z" fill="#D1D1D1"/><path d="M83.89 111.18V53.687h-2.94a15.136 15.136 0 0 0-14.959 12.826l-6.895 44.667h24.793z" fill="#BFBFBF"/><path fill-rule="evenodd" clip-rule="evenodd" d="M96.98 93.5c-.88.4-1.64.86-1.952 1.134a.914.914 0 1 1-1.208-1.372c.514-.453 1.472-1.002 2.401-1.426a12.56 12.56 0 0 1 1.449-.564c.455-.141.944-.253 1.379-.253.836 0 1.602.336 2.087.955.494.629.626 1.463.34 2.277a.915.915 0 0 1-1.725-.607c.091-.258.034-.431-.053-.542-.095-.12-.3-.255-.65-.255-.158 0-.44.048-.835.171-.379.118-.806.286-1.232.481z" fill="#979797"/><path d="M37.268 85.313L39.5 80.34a2.202 2.202 0 0 0 .383-1.682l-.014.004-13.91 3.727a.636.636 0 0 0-.023.007c.2.559.61.993 1.115 1.238l4.477 3.219c.557.4 1.264.53 1.926.352l2.32-.622a2.286 2.286 0 0 0 1.494-1.271z" fill="#959595"/><path d="M39.22 80.966l.28-.625c.66-.91.53-2.191-.331-2.948l-2.177-1.913a2.286 2.286 0 0 0-1.354-.564.913.913 0 0 0-.129.295l-1.372 5.72a.914.914 0 0 0 1.125 1.096l3.957-1.06zM27.651 84.066L31.631 83a.915.915 0 0 0 .427-1.513l-4.049-4.267a.914.914 0 0 0-.261-.192 2.285 2.285 0 0 0-.898 1.17l-.928 2.744a2.206 2.206 0 0 0 1.13 2.693l.6.431z" fill="#959595"/><path d="M94.306 77.567a7.812 7.812 0 0 1 7.813-7.812h6.33c.539 0 .977.437.977.977v7.722a7.813 7.813 0 0 1-7.813 7.812h-3.62a3.686 3.686 0 0 1-3.687-3.686v-5.013z" fill="#fff"/><path d="M96.955 79.31v1.4a3.394 3.394 0 1 0 6.787 0v-1.4h-6.787z" fill="#979797"/><path d="M92.971 84.168l20.367-1.276.296 4.723-20.367 1.277-.296-4.724z" fill="#D1D1D1"/><path d="M93.19 82.432c.14 0 1.373 1.957 2.628 4.01 1.249 2.044-.233 4.648-2.628 4.648s-3.876-2.604-2.627-4.648c1.255-2.053 2.488-4.01 2.627-4.01z" fill="#959595"/><path d="M109.082 80.753l-14.776 1.604v-4.79a7.812 7.812 0 0 1 7.813-7.812h6.33c.539 0 .977.437.977.977v7.722c0 .8-.12 1.572-.344 2.3z" fill="#BFBFBF"/><path d="M55.598 34.005v9.798H35.22c3.534-5.985 10.05-9.999 17.504-9.999.975 0 1.934.069 2.873.201z" fill="#D8D8D8"/><path d="M35.09 36.87c.122 0 1.202 1.714 2.301 3.512 1.094 1.79-.204 4.07-2.3 4.07-2.098 0-3.396-2.28-2.302-4.07 1.1-1.798 2.179-3.512 2.301-3.512z" fill="#979797"/><path d="M56.407 43.803a7.861 7.861 0 1 1-15.722 0 7.861 7.861 0 0 1 15.722 0z" fill="#CECECE"/></svg>