<svg id="Cover" xmlns="http://www.w3.org/2000/svg" viewBox="0 0 135 124"><defs><style>.cls-3{fill:#e27800}.cls-5{fill:#f89700}.cls-6{fill:#ffb100}</style></defs><rect x="11" y="11" width="113" height="113" rx="17" ry="17" fill="#ffc800"/><path d="M122.44 20.92L20.92 122.44A16.94 16.94 0 0 0 28 124h41.32L124 69.32V28a16.94 16.94 0 0 0-1.56-7.08zM50.32 69.06l58-58c-.43 0-.87-.07-1.31-.07H58.42L25.34 44.08a17.66 17.66 0 0 0 25 25z" fill="#ffd900"/><path class="cls-3" d="M67 67h-5.82V31a33.74 33.74 0 0 1 2.89-13.64A33.73 33.73 0 0 1 67 31.05z"/><path d="M61.18 68.17a1.16 1.16 0 0 1-.82-2L66 60.55a1.16 1.16 0 1 1 1.64 1.64L62 67.83a1.13 1.13 0 0 1-.82.34z" fill="#9066cf"/><path class="cls-5" d="M61.18 61.52a1.16 1.16 0 0 1-.82-2L66 53.9a1.15 1.15 0 0 1 1.64 0 1.16 1.16 0 0 1 0 1.64L62 61.18a1.13 1.13 0 0 1-.82.34z"/><path class="cls-6" d="M61.18 54.87a1.2 1.2 0 0 1-.82-.34 1.16 1.16 0 0 1 0-1.64L66 47.24a1.16 1.16 0 1 1 1.64 1.64L62 54.53a1.17 1.17 0 0 1-.82.34zM61.18 48.21a1.16 1.16 0 0 1-.82-2L66 40.59a1.16 1.16 0 1 1 1.64 1.64L62 47.87a1.13 1.13 0 0 1-.82.34zM61.18 41.56a1.16 1.16 0 0 1-.82-2L66 33.94a1.15 1.15 0 0 1 1.64 0 1.16 1.16 0 0 1 0 1.64L62 41.22a1.13 1.13 0 0 1-.82.34zM61.18 34.91a1.2 1.2 0 0 1-.82-.34 1.16 1.16 0 0 1 0-1.64L66 27.28a1.16 1.16 0 1 1 1.64 1.64L62 34.57a1.17 1.17 0 0 1-.82.34z"/><path d="M28.33 107.33V60A2.64 2.64 0 0 1 31 57.32h67.31a9.9 9.9 0 0 1 9.69 8.06l1.44 7.62a55.14 55.14 0 0 1 .8 6.14 53.94 53.94 0 0 1-.08 9.08 56.22 56.22 0 0 1-1 6.84l-2.68 12.32z" fill="#ffe75e"/><path class="cls-6" d="M28.33 60.6H71a6.6 6.6 0 0 1 6.46 5.4l1.41 7.56a53.78 53.78 0 0 1 .76 5.78 52.94 52.94 0 0 1-.08 8.54 52.35 52.35 0 0 1-1 6.45l-2.11 9.73H28.33z"/><circle class="cls-5" cx="40.96" cy="95.04" r="2.49"/><path class="cls-5" d="M79.55 87.87H28.33v-8.54h51.3a52.94 52.94 0 0 1-.08 8.54z"/><path class="cls-3" d="M25.29 101.05h84.42a13.08 13.08 0 0 1-13.08 13.08H38.36a13.08 13.08 0 0 1-13.08-13.08h.01z"/><rect class="cls-5" x="19.29" y="97.78" width="96.42" height="6.55" rx="3.27" ry="3.27"/><circle class="cls-5" cx="69.36" cy="68.45" r="2.49"/><circle class="cls-5" cx="56.54" cy="75.95" r="2.49"/><circle class="cls-5" cx="71.85" cy="92.54" r="2.49"/><circle class="cls-5" cx="39.39" cy="70.64" r="2.49"/><circle class="cls-5" cx="52.45" cy="65.96" r="2.49"/><circle class="cls-5" cx="34.4" cy="74.85" r="2.49"/><path class="cls-6" d="M69.57 13a5.51 5.51 0 0 1-11 0C58.56 7.87 64.07.4 64.07.4s5.5 7.6 5.5 12.6z"/><path class="cls-5" d="M64.12 19.36a.87.87 0 0 1-.87-.87V14.2a.87.87 0 1 1 1.73 0v4.29a.87.87 0 0 1-.86.87zM60.23 85.23h3v8.32A1.48 1.48 0 0 1 61.72 95a1.48 1.48 0 0 1-1.48-1.48v-8.29h-.01zM55.91 82.32h3v8.32a1.48 1.48 0 0 1-1.48 1.48 1.48 1.48 0 0 1-1.48-1.48v-8.32z"/><path class="cls-6" d="M92.1 57.37a2.12 2.12 0 0 0 1.9-3.09 16.36 16.36 0 0 0-29 0 2.12 2.12 0 0 0 1.9 3.09z"/></svg>