<svg id="Layer_3" data-name="Layer 3" xmlns="http://www.w3.org/2000/svg" viewBox="0 0 135 124"><defs><style>.cls-1{fill:#666161}.cls-2{fill:#4b4b4b}.cls-5{fill:#c0a6a6}.cls-6{fill:#d8c8c8}.cls-7{fill:#2bb1f3}</style></defs><path class="cls-1" d="M124 28v79q0 .72-.06 1.41A17 17 0 0 1 107 124H28a17 17 0 0 1-16.94-15.59Q11 107.72 11 107V28a17 17 0 0 1 17-17h79a17 17 0 0 1 17 17z"/><path class="cls-2" d="M67.5 40.64v45.07l-56.44 22.7Q11 107.72 11 107V91.63zM124 91.61V107q0 .72-.06 1.41l-56.42-22.7V40.64z"/><path fill="#fec72e" d="M97.87 11h6.83v113h-6.83z"/><path fill="#fd9526" d="M97.87 68.03v29.89l6.83 2.75V74.19l-6.83-6.16z"/><path class="cls-5" d="M27.75 76.65l17.79-3.8V43.5a6.43 6.43 0 0 0-6.42-6.42h-4.95a6.43 6.43 0 0 0-6.42 6.42zM107.27 76.65l-17.79-3.8V43.5a6.43 6.43 0 0 1 6.42-6.42h4.95a6.43 6.43 0 0 1 6.42 6.42z"/><path class="cls-6" d="M67.5 23.74v45.07L11 91.54l-2.93 1.18a5.78 5.78 0 0 1-2.2.43 5.88 5.88 0 0 1-3.93-10.24L11 74.73z"/><path class="cls-5" d="M11 91.54l56.5-22.73v-6L11 85.54"/><path class="cls-6" d="M67.52 23.74v45.07L124 91.54l3 1.18a5.78 5.78 0 0 0 2.2.43 5.88 5.88 0 0 0 3.93-10.24L124 74.73z"/><path class="cls-5" d="M124.02 91.54l-56.5-22.73v-6l56.5 22.73"/><path class="cls-7" d="M89.35 119.84l-21.85-4.41V85.71l23.23 22.62a9 9 0 0 1 2.72 6.45v1.7a3.42 3.42 0 0 1-4.1 3.36z"/><path class="cls-7" d="M45.67 119.84l21.85-4.41V85.71l-23.23 22.62a9 9 0 0 0-2.73 6.45v1.7a3.43 3.43 0 0 0 4.11 3.36z"/><path d="M77.15 94.43l-7.21 22.83a2.56 2.56 0 0 1-4.88 0l-7.22-22.83a34.43 34.43 0 0 1-1.59-10.33V11.25A11.25 11.25 0 0 1 67.5 0a11.25 11.25 0 0 1 11.24 11.25V84.1a34.12 34.12 0 0 1-1.59 10.33z" fill="#ebe3e3"/><path class="cls-5" d="M69.68 74v32.1a2.17 2.17 0 1 1-4.34 0V74a2.17 2.17 0 1 1 4.34 0z"/><path class="cls-1" d="M69.68 94.07v12a2.17 2.17 0 1 1-4.34 0v-12a2.17 2.17 0 0 1 4.34 0zM76.22 14.53v1.16a1 1 0 0 1-1.67.64 9.74 9.74 0 0 0-14.07 0 1 1 0 0 1-1.67-.64v-1.18a4 4 0 0 1 2-3.48 13.82 13.82 0 0 1 13.5 0 4 4 0 0 1 1.91 3.5z"/><path class="cls-7" d="M135 87.27a5.89 5.89 0 0 1-5.87 5.88 5.78 5.78 0 0 1-2.2-.43L124 91.54V74.73l9.06 8.18a5.9 5.9 0 0 1 1.94 4.36zM11 74.73v16.81l-2.93 1.18a5.78 5.78 0 0 1-2.2.43 5.88 5.88 0 0 1-3.93-10.24z"/></svg>