<svg viewBox="0 0 135 125" fill="none" xmlns="http://www.w3.org/2000/svg"><g clip-path="url(#clip0_302_3257)"><path d="M107 11.638H28c-9.389 0-17 7.61-17 17v79c0 9.389 7.611 17 17 17h79c9.389 0 17-7.611 17-17v-79c0-9.39-7.611-17-17-17z" fill="#BFBFBF"/><path d="M67.804 73.863l-.903-1.727a1.998 1.998 0 0 0-3.5-.074l-4.144 7.179H54.74a9.795 9.795 0 0 0-.364-.033l-27.477-1.945a5.485 5.485 0 0 0-5.137 2.728l-1.353 2.342 43.013 24.833a1.612 1.612 0 0 0 2.203-.59l7.913-13.706c.158-.274.272-.562.343-.854l4.437-7.686a2.581 2.581 0 0 0-.945-3.525l-9.226-5.327a3.065 3.065 0 0 0-.342-1.615z" fill="#959595"/><path fill-rule="evenodd" clip-rule="evenodd" d="M21.738 80.82l45.299 22.231a1.292 1.292 0 0 1 .549 1.804l-2.239 3.877a1.29 1.29 0 0 1-1.756.477L19.836 84.303a1.29 1.29 0 0 1-.483-1.76l.004-.007.695-1.203a1.29 1.29 0 0 1 1.686-.513zM53.794 77.994l-3.224-.136a.645.645 0 0 0-.669.714l.385 3.571a.645.645 0 0 0 .645.576l3.076-.014a.645.645 0 0 0 .64-.69l-.236-3.421a.645.645 0 0 0-.617-.6zM45.857 77.534l-3.224-.136a.645.645 0 0 0-.669.714l.385 3.57a.645.645 0 0 0 .645.577l3.076-.014a.645.645 0 0 0 .64-.69l-.236-3.421a.645.645 0 0 0-.617-.6zM37.92 77.073l-3.224-.135a.645.645 0 0 0-.67.714l.386 3.57a.645.645 0 0 0 .645.577l3.076-.014a.645.645 0 0 0 .64-.69l-.236-3.421a.645.645 0 0 0-.617-.6z" fill="#A2A2A2"/><path d="M70.787 84.445H56.898c-1.425 0-2.58 1.569-2.58 3.504v4.2l-3.914 2.259c-.11.049-.221.1-.33.153l-24.77 12.054a5.484 5.484 0 0 0-3.084 4.932v2.704h49.666c.89 0 1.613-.722 1.613-1.613V96.812c0-.317-.045-.622-.13-.911v-7.952c0-1.935-1.156-3.504-2.582-3.504z" fill="#A2A2A2"/><path fill-rule="evenodd" clip-rule="evenodd" d="M22.614 112.275l50.346-3.396a1.29 1.29 0 0 1 1.377 1.288v4.477c0 .71-.573 1.286-1.282 1.291l-50.346.308a1.29 1.29 0 0 1-1.299-1.282v-1.398c0-.679.527-1.242 1.204-1.288z" fill="#fff"/><path d="M63.036 104.243c3.21 0 5.812-2.616 5.812-5.842 0-3.227-2.602-5.842-5.812-5.842-3.21 0-5.812 2.615-5.812 5.842 0 3.226 2.602 5.842 5.812 5.842z" fill="#fff"/><path fill-rule="evenodd" clip-rule="evenodd" d="M48.963 93.8l-2.86 1.495a.645.645 0 0 0-.222.953l2.119 2.9c.195.266.56.343.846.176l2.657-1.55a.645.645 0 0 0 .21-.918l-1.916-2.844a.645.645 0 0 0-.834-.212zM41.86 97.37l-2.861 1.495a.645.645 0 0 0-.222.952l2.119 2.9c.195.267.56.344.846.177l2.657-1.55a.646.646 0 0 0 .232-.883l-.022-.035-1.916-2.845a.645.645 0 0 0-.834-.211zM34.755 100.94l-2.86 1.495a.645.645 0 0 0-.222.953l2.12 2.9c.194.267.56.343.845.176l2.657-1.55a.644.644 0 0 0 .21-.918l-1.916-2.844a.645.645 0 0 0-.834-.212z" fill="#fff"/><path fill-rule="evenodd" clip-rule="evenodd" d="M36.017 19.787l-4.004 4.004a1.416 1.416 0 0 0 0 2.002l4.004 4.004c.553.553 1.45.553 2.002 0l4.004-4.004a1.416 1.416 0 0 0 0-2.002l-4.004-4.004a1.416 1.416 0 0 0-2.002 0zM104.424 106.909l-3.132 3.132a1.105 1.105 0 0 0 0 1.565l3.132 3.132a1.106 1.106 0 0 0 1.566 0l3.131-3.132a1.105 1.105 0 0 0 0-1.565l-3.131-3.132a1.106 1.106 0 0 0-1.566 0zM19.928 32.057l-3.131 3.132a1.107 1.107 0 0 0 0 1.566l3.131 3.131a1.107 1.107 0 0 0 1.566 0l3.132-3.131a1.107 1.107 0 0 0 0-1.566l-3.132-3.132a1.107 1.107 0 0 0-1.566 0zM37.599 44.055l2.806 9.044 6.232 2.865a1.27 1.27 0 0 1 0 2.31l-6.232 2.865-2.806 9.044a1.27 1.27 0 0 1-2.428 0l-2.806-9.044-6.232-2.865a1.27 1.27 0 0 1 0-2.31l6.232-2.865 2.806-9.044a1.27 1.27 0 0 1 2.428 0zM94.012 81.421l1.813 5.84 4.025 1.852a.826.826 0 0 1 0 1.5l-4.025 1.852-1.813 5.84a.826.826 0 0 1-1.578 0l-1.812-5.84-4.025-1.851a.826.826 0 0 1 0-1.502l4.025-1.85 1.812-5.84a.826.826 0 0 1 1.578 0z" fill="#D1D1D1"/><path fill-rule="evenodd" clip-rule="evenodd" d="M107.228 24.69c0 11.604-9.406 21.01-21.01 21.01H74.66c-11.604 0-21.01-9.406-21.01-21.01 0-11.603 9.407-21.01 21.01-21.01h11.56c11.603 0 21.009 9.407 21.009 21.01z" fill="#959595"/><path d="M105.922 23.814H76.97c-9.493 0-17.534 6.223-20.265 14.811a6.237 6.237 0 1 0-.457 12.437c2.169 9.441 10.623 16.482 20.722 16.482h28.952c10.099 0 18.554-7.04 20.723-16.482a6.236 6.236 0 1 0-.457-12.437c-2.731-8.588-10.772-14.81-20.266-14.81z" fill="#D1D1D1"/><path fill-rule="evenodd" clip-rule="evenodd" d="M91.447 52.597a2.976 2.976 0 0 0 2.976-2.975c0-1.643-2.976-5.53-2.976-5.53l-.28.376c-.74 1.015-2.697 3.822-2.697 5.154a2.976 2.976 0 0 0 2.977 2.975z" fill="#A2A2A2"/><path d="M54.735 54.425a2.977 2.977 0 1 0 0-5.953 2.977 2.977 0 0 0 0 5.953z" fill="#959595"/><path d="M107.229 23.854c7.829.474 14.515 5.186 17.794 11.871h-10.154a7.64 7.64 0 0 1-7.64-7.64v-4.231z" fill="#A2A2A2"/><path d="M93.278 34.396a6.793 6.793 0 0 0-.616 2.835v4.538c0 1.364.4 2.635 1.091 3.7 2.459-1.033 5.267-1.996 8.288-2.806a69.468 69.468 0 0 1 4.51-1.05V37.23a6.82 6.82 0 0 0-4.178-6.288l-9.095 3.453zM76.212 37.231a6.818 6.818 0 0 1 6.818-6.817h.253a6.818 6.818 0 0 1 6.818 6.817v4.538a6.818 6.818 0 0 1-6.818 6.818h-.253a6.818 6.818 0 0 1-6.818-6.818v-4.538z" fill="#fff"/><path fill-rule="evenodd" clip-rule="evenodd" d="M83.298 48.643a6.49 6.49 0 0 1-3.911-1.065 6.491 6.491 0 0 1-2.523-3.173 2.677 2.677 0 0 1 5.022-1.859c.082.222.23.418.446.56.216.142.455.201.69.19a2.677 2.677 0 1 1 .276 5.347zM100.707 49.647a7.61 7.61 0 0 1-4.585-1.248 7.609 7.609 0 0 1-2.957-3.72A3.139 3.139 0 1 1 99.05 42.5c.097.26.27.49.524.657.253.166.532.236.809.221a3.139 3.139 0 0 1 .323 6.27z" fill="#959595"/><path d="M83.03 30.414h.254A6.818 6.818 0 0 1 90.1 37.23v2.492H76.212V37.23a6.818 6.818 0 0 1 6.818-6.817zM99.48 30.414h.254a6.817 6.817 0 0 1 6.817 6.817v2.492H92.662V37.23a6.818 6.818 0 0 1 6.818-6.817z" fill="#A2A2A2"/><path fill-rule="evenodd" clip-rule="evenodd" d="M84.545 26.14v1.417c0 8.611-6.98 15.592-15.592 15.592-8.611 0-15.592-6.98-15.592-15.592V26.14c0-8.612 6.98-15.592 15.592-15.592 8.611 0 15.592 6.98 15.592 15.592zM103.957 49.948a1.5 1.5 0 0 1 .671 2.013c-1.79 3.58-4.678 5.479-7.505 6.38-2.788.89-5.555.829-7.312.483a1.5 1.5 0 1 1 .58-2.944c1.325.261 3.574.32 5.82-.396 2.207-.705 4.371-2.14 5.734-4.865a1.5 1.5 0 0 1 2.012-.67z" fill="#959595"/><path d="M109.031 41.148c-9.551 1.387-14.474 3.723-15.742 4.718l3.948 5.825 8.121-3.158 3.673-7.385z" fill="#D1D1D1"/><path fill-rule="evenodd" clip-rule="evenodd" d="M103.603 28.498c-4.482-2.205-8.809-.658-10.497 1.568a1.25 1.25 0 0 1-1.992-1.51c2.479-3.268 8.138-4.985 13.593-2.302a1.251 1.251 0 0 1-1.104 2.244z" fill="#959595"/></g><defs><clipPath id="clip0_302_3257"><path fill="#fff" transform="translate(0 .638)" d="M0 0h135v124H0z"/></clipPath></defs></svg>