<svg viewBox="0 0 135 125" fill="none" xmlns="http://www.w3.org/2000/svg"><g clip-path="url(#clip0)"><path d="M107 12.258H28c-9.389 0-17 7.611-17 17v79c0 9.389 7.611 17 17 17h79c9.389 0 17-7.611 17-17v-79c0-9.389-7.611-17-17-17z" fill="#EDEDED"/><path d="M31.767 90.9a7.5 7.5 0 1 0-6.81 13.365l22.276 11.35a7.5 7.5 0 0 0 10.087-3.278 7.5 7.5 0 0 0-3.278-10.087L31.767 90.9z" fill="#D6D6D6"/><path d="M47.873 92.844a7.5 7.5 0 1 0-9.234 11.82l23.64 18.47a7.5 7.5 0 1 0 9.235-11.82l-23.64-18.47z" fill="#D6D6D6"/><path fill-rule="evenodd" clip-rule="evenodd" d="M131.643 94.589a7.402 7.402 0 0 0-9.794-3.18l-16.412 8.035a6.939 6.939 0 0 0-3.08 9.482 7.4 7.4 0 0 0 9.794 3.18l16.413-8.035a6.939 6.939 0 0 0 3.079-9.482z" fill="#D6D6D6"/><path fill-rule="evenodd" clip-rule="evenodd" d="M118.364 80.285a8.678 8.678 0 0 0-12.273 0l-20.454 20.454a8.678 8.678 0 0 0 12.272 12.273l20.455-20.454a8.678 8.678 0 0 0 0-12.273z" fill="#D6D6D6"/><path d="M19.105 78.338a5 5 0 1 1 6.428-7.66l5.362 4.5a5 5 0 0 1-6.428 7.66l-5.362-4.5z" fill="#D6D6D6"/><path fill-rule="evenodd" clip-rule="evenodd" d="M123.999 103.985l.001 4.272c0 9.389-7.611 17-17 17H28c-9.389 0-17-7.611-17-17l-.001-4.272h113z" fill="#D6D6D6"/><path d="M26.029 3.816a4 4 0 0 0-3.633 7.128l98.011 49.939a4 4 0 1 0 3.632-7.128l-98.01-49.94z" fill="#B4B3B3"/><path fill-rule="evenodd" clip-rule="evenodd" d="M88.237 45.608l4.54-8.91a2 2 0 0 1 2.69-.874l34.749 17.705a7 7 0 1 1-6.356 12.474L89.111 48.298a2 2 0 0 1-.874-2.69z" fill="#B4B3B3"/><path d="M62.329 45.161a5 5 0 1 0-9.66 2.589l1.553 5.795a5 5 0 0 0 9.66-2.588l-1.553-5.796zM19 61.258a4 4 0 1 0 0-8 4 4 0 0 0 0 8zM13 97.985a5 5 0 1 0 0-10 5 5 0 0 0 0 10zM109.5 31.258a4.5 4.5 0 1 0 0-9 4.5 4.5 0 0 0 0 9z" fill="#D6D6D6"/><path d="M42.672 74.367l-3.615-1.514a9.548 9.548 0 0 1-2.616-15.974c.71-.624 1.387-1.21 2.033-1.758a9.253 9.253 0 0 0-4.93-16.247 438.29 438.29 0 0 1-4.878-.588c-6.028-.762-10.296-6.266-9.534-12.293.045-.351.106-.7.184-1.046l.493-2.178M21 14.258l62 32" stroke="#C5C5C5" stroke-width="4" stroke-linecap="round" stroke-linejoin="round"/><path d="M34.964 14.717a2 2 0 1 0-3.464-2l-4 6.929a2 2 0 0 0 3.464 2l4-6.929zM57.895 26.78a2 2 0 0 0-3.464-2l-4 6.93a2 2 0 1 0 3.464 2l4-6.93zM81.895 37.78a2 2 0 0 0-3.464-2l-4.5 7.795a2 2 0 1 0 3.464 2l4.5-7.794z" fill="#B4B3B3"/><path fill-rule="evenodd" clip-rule="evenodd" d="M49.675 72.154L44.383 82.54a4.468 4.468 0 1 0 7.961 4.056l5.292-10.386a4.468 4.468 0 1 0-7.961-4.056zM88.512 66.935l-14.017.784a3.88 3.88 0 0 0-3.66 4.064 3.826 3.826 0 0 0 4.036 3.633l14.017-.784a3.88 3.88 0 0 0 3.66-4.064 3.826 3.826 0 0 0-4.009-3.635l-.027.002z" fill="#fff"/><path fill-rule="evenodd" clip-rule="evenodd" d="M88.972 73.953l-13.144-4.769a3.868 3.868 0 0 0-4.953 2.31 3.853 3.853 0 0 0 2.298 4.94l.007.003 13.144 4.77a3.868 3.868 0 0 0 4.953-2.31 3.853 3.853 0 0 0-2.298-4.941l-.007-.003zM89.104 91.774l-3.42 6.713 6.581 3.353c5.16 2.629 11.473.578 14.102-4.581l3.42-6.713-6.582-3.354c-5.159-2.628-11.472-.577-14.101 4.582z" fill="#fff"/><path fill-rule="evenodd" clip-rule="evenodd" d="M82.848 104.053l3.42-6.713 6.582 3.354c5.159 2.628 7.21 8.942 4.581 14.101l-3.42 6.713-6.581-3.354c-5.16-2.628-7.211-8.942-4.582-14.101z" fill="#fff"/><path d="M109.803 89.11l-5.238-2.67c-4.645-2.366-10.351-.476-12.745 4.222l-4.335 8.508-3.94 7.733c-2.395 4.699-.57 10.426 4.076 12.793l5.237 2.669" stroke="#C4C4C4" stroke-width="4.766" stroke-linecap="round" stroke-linejoin="round"/><path fill-rule="evenodd" clip-rule="evenodd" d="M56.136 73.532l-6.84 13.425c-2.63 5.16-.578 11.473 4.581 14.102l11 5.605c8.867 4.517 19.717.992 24.235-7.874 4.517-8.867.992-19.717-7.875-24.235l-11-5.605c-5.16-2.629-11.472-.577-14.101 4.582z" fill="#C4C4C4"/><path d="M58.15 78.011l1.212-2.377A5.744 5.744 0 1 1 69.6 80.85l-1.212 2.377a5.744 5.744 0 1 1-10.236-5.216z" fill="#fff"/><path d="M60.435 79.151l1.193-2.34a3.191 3.191 0 1 1 5.687 2.898l-1.193 2.34a3.191 3.191 0 1 1-5.687-2.898z" fill="#B4B3B3"/><path d="M78.066 81.103c2.513 1.28 3.503 4.371 2.212 6.905-1.29 2.533-4.374 3.549-6.886 2.268M73.188 90.676c2.513 1.28 3.503 4.371 2.212 6.905-1.29 2.533-4.374 3.549-6.886 2.269M81.415 88.588c2.513 1.28 3.504 4.372 2.213 6.905-1.29 2.533-4.374 3.549-6.887 2.269" stroke="#B4B3B3" stroke-width="3.217" stroke-linecap="round" stroke-linejoin="round"/><path d="M106.701 71.115c6.273.994 12.164-3.286 13.157-9.559.994-6.273-3.286-12.164-9.559-13.157-6.273-.994-12.164 3.286-13.158 9.559-.993 6.273 3.287 12.164 9.56 13.157z" fill="#B4B3B3"/></g><defs><clipPath id="clip0"><path fill="#fff" d="M0 0h135v125H0z"/></clipPath></defs></svg>