<svg viewBox="0 0 135 124" fill="none" xmlns="http://www.w3.org/2000/svg"><path d="M11 28c0-9.389 7.611-17 17-17h79c9.389 0 17 7.611 17 17v79c0 9.389-7.611 17-17 17H28c-9.389 0-17-7.611-17-17V28z" fill="#2BE69C"/><path d="M4.209 46.102C1.602 25.855 15.902 7.328 36.149 4.721c20.248-2.607 38.775 11.693 41.382 31.94l.508 3.946c2.607 20.247-11.693 38.774-31.94 41.381C25.85 84.595 7.324 70.295 4.717 50.048l-.508-3.946z" fill="#FFB7E3"/><path d="M29.137 80.213a36.971 36.971 0 0 1-6.075-2.777c.245-.157.533-.255.844-.272 14.143-.762 23.745-4.912 30.29-10.263 6.557-5.36 10.174-12.03 12.163-18.032a1.74 1.74 0 1 1 3.304 1.095c-2.141 6.462-6.075 13.756-13.264 19.632-6.352 5.192-15.145 9.198-27.262 10.617z" fill="#FF9BD8"/><path fill-rule="evenodd" clip-rule="evenodd" d="M11.855 46.02C9.78 29.905 21.162 15.159 37.28 13.083c16.116-2.075 30.863 9.308 32.938 25.424 2.075 16.116-9.307 30.863-25.424 32.938-16.116 2.075-30.863-9.307-32.938-25.423z" fill="#E18E70"/><path d="M54.181 15.939c-5.691 7.528-16.018 20.57-37.626 22.607-1.46.138-3.309-.125-4.647-.49 1.835-12.755 11.965-23.247 25.37-24.973a29.285 29.285 0 0 1 16.903 2.856z" fill="#3D3D3D"/><path fill-rule="evenodd" clip-rule="evenodd" d="M37.535 55.364c-.105-.817 1.145-1.463 1.876-1.085.914.473 2.065.813 3.372.645 1.367-.176 2.443-.848 3.237-1.576.603-.554 1.93-.249 2.035.564l1.076 8.352a5.31 5.31 0 0 1-10.532 1.357l-1.063-8.257z" fill="#881B1B"/><path d="M18.236 23.554c-2.252 2.512-4.746 5.294-10.348 4.679-.11-.012-.217-.023-.32-.032l-2.791-.349c-.988-.134-1.611.56-1.432 1.542.863 4.716 4.71 8.414 9.579 9.075 4.868.66 9.547-1.88 11.615-6.198a1.472 1.472 0 0 0-1.13-2.092l-1.202-.15 4.347-4.2s-4.814-6.008-7.371-3.311c-.316.333-.63.682-.947 1.036z" fill="#3D3D3D"/><path d="M48.897 64.638a5.31 5.31 0 0 1-9.472 1.22 5.148 5.148 0 0 1 9.472-1.22z" fill="#E34545"/><path d="M40.336 33.489a3.209 3.209 0 0 1 2.772-3.593l14.72-1.895a3.209 3.209 0 0 1 3.592 2.773l1.83 14.212a3.209 3.209 0 0 1-2.773 3.592l-14.72 1.895a3.209 3.209 0 0 1-3.591-2.772l-1.83-14.212z" fill="#446AD4"/><path fill-rule="evenodd" clip-rule="evenodd" d="M58.135 30.388l-14.72 1.895a.802.802 0 0 0-.693.898l1.83 14.212c.057.44.46.75.898.694l14.72-1.896a.802.802 0 0 0 .693-.898l-1.83-14.212a.802.802 0 0 0-.898-.693zm-15.027-.492a3.209 3.209 0 0 0-2.772 3.593l1.83 14.212a3.209 3.209 0 0 0 3.592 2.773l14.72-1.896a3.209 3.209 0 0 0 2.772-3.592l-1.83-14.212A3.209 3.209 0 0 0 57.827 28l-14.719 1.895z" fill="#fff"/><path d="M18.73 36.27a3.209 3.209 0 0 1 2.773-3.592l14.719-1.895a3.209 3.209 0 0 1 3.592 2.773l1.83 14.212a3.209 3.209 0 0 1-2.772 3.592l-14.72 1.895a3.209 3.209 0 0 1-3.592-2.773L18.73 36.27z" fill="#F32C24"/><path fill-rule="evenodd" clip-rule="evenodd" d="M36.53 33.17l-14.72 1.895a.802.802 0 0 0-.693.898l1.83 14.212c.057.44.459.75.898.693l14.72-1.895a.802.802 0 0 0 .693-.898l-1.83-14.212a.802.802 0 0 0-.899-.693zm-15.027-.492a3.209 3.209 0 0 0-2.773 3.592l1.83 14.212a3.209 3.209 0 0 0 3.592 2.773l14.72-1.895a3.209 3.209 0 0 0 2.772-3.592l-1.83-14.212a3.209 3.209 0 0 0-3.592-2.773l-14.72 1.895z" fill="#fff"/><path d="M39.951 41.699l2.835-.365.48 3.73-2.834.366-.48-3.731zM69.038 33.223c.383 1.19.693 2.416.925 3.674l-9.06 1.167-.48-3.731 8.615-1.11zM11.69 44.4a29.483 29.483 0 0 1-.036-3.788l8.793-1.132.48 3.731-9.238 1.19z" fill="#fff"/><path fill-rule="evenodd" clip-rule="evenodd" d="M31.258 49.575a7.647 7.647 0 1 0-1.953-15.168 7.647 7.647 0 0 0 1.953 15.169zm1.951-12.704c.814 1.574-.555 3.897-3.056 5.19-2.5 1.293-5.188 1.066-6.001-.507-.813-1.574.555-3.897 3.056-5.19 2.501-1.293 5.188-1.066 6.001.508zm2.393 7.17a1.973 1.973 0 1 1-3.914.505 1.973 1.973 0 0 1 3.914-.504z" fill="#A62722"/><path fill-rule="evenodd" clip-rule="evenodd" d="M52.766 46.806a7.647 7.647 0 1 0-1.953-15.169 7.647 7.647 0 0 0 1.953 15.169zm1.951-12.704c.814 1.573-.555 3.897-3.056 5.19-2.501 1.293-5.188 1.066-6.001-.508-.813-1.573.555-3.897 3.056-5.19 2.5-1.293 5.188-1.065 6.001.508zm2.393 7.17a1.973 1.973 0 1 1-3.915.504 1.973 1.973 0 0 1 3.915-.504z" fill="#334E99"/><path fill-rule="evenodd" clip-rule="evenodd" d="M42.466 52.168c1.521-.196 2.595-1.598 2.397-3.132-.197-1.534-3.419-4.807-3.419-4.807s-2.287 3.983-2.09 5.516c.198 1.534 1.591 2.62 3.112 2.423z" fill="#9E4D31"/><path fill-rule="evenodd" clip-rule="evenodd" d="M56.63 63.223c3.596-16.297 18.863-27.29 35.46-25.532 16.049 1.699 28.474 14.828 29.286 30.947l2.526 50.091a1.663 1.663 0 0 1-1.836 1.738l-74.439-7.88a1.663 1.663 0 0 1-1.449-2.012L56.63 63.223z" fill="#A570FF"/><path d="M82.007 44.369c-8.533 3.023-15.35 10.131-17.7 19.409l-7.313 28.87c-1.113 4.396 1.927 8.76 6.438 9.237l47.873 5.068c4.306.456 8.051-2.937 8.021-7.267l-.105-15.012a6.32 6.32 0 0 0 .735-12.604l-.823-.087-.011-1.565a27.904 27.904 0 0 0-.721-6.12l-18.2-1.926c-9.714-1.029-17.12-8.688-18.194-18.003z" fill="#FFC6B7"/><path fill-rule="evenodd" clip-rule="evenodd" d="M78.097 104.639a1.066 1.066 0 0 1 1.172-.948l13.605 1.441c.586.062 1.01.586.948 1.172l-1.053 9.942a1.066 1.066 0 0 1-1.172.948l-13.605-1.44a1.066 1.066 0 0 1-.948-1.173l1.053-9.942z" fill="#593F86"/><path d="M86.64 89.663l19.161-.99.06 1.162a9.593 9.593 0 0 1-19.16.99l-.06-1.162z" fill="#A54544"/><path d="M105.53 92.89l-13.23-1.4a.872.872 0 0 1-.776-.96l.12-1.125 14.159-.731.06 1.161a9.606 9.606 0 0 1-.333 3.056z" fill="#fff"/><path d="M103.679 96.437a9.566 9.566 0 0 1-6.903 3.473 9.574 9.574 0 0 1-3.307-.406 8.718 8.718 0 0 1 8.009-3.593 8.724 8.724 0 0 1 2.201.526z" fill="#FF4B4B"/><path d="M91.229 65.231a3.209 3.209 0 0 1 3.528-2.853l14.759 1.563a3.21 3.21 0 0 1 2.853 3.528l-1.509 14.25a3.208 3.208 0 0 1-3.528 2.853L92.573 83.01a3.209 3.209 0 0 1-2.853-3.529l1.509-14.25z" fill="#446AD4"/><path d="M69.567 62.938a3.209 3.209 0 0 1 3.528-2.853l14.758 1.562a3.209 3.209 0 0 1 2.854 3.529l-1.509 14.25a3.209 3.209 0 0 1-3.528 2.853L70.91 80.717a3.209 3.209 0 0 1-2.853-3.53l1.508-14.249z" fill="#F32C24"/><path fill-rule="evenodd" clip-rule="evenodd" d="M69.566 62.938a3.209 3.209 0 0 1 3.528-2.853l14.759 1.562a3.209 3.209 0 0 1 2.853 3.53l-.852 8.048.522.055.852-8.048a3.209 3.209 0 0 1 3.529-2.854l14.758 1.563a3.209 3.209 0 0 1 2.853 3.528l-.001.015 6.651.704c.064.736.099 1.48.104 2.231l.011 1.564-7.162-.758-1.111 10.494a3.21 3.21 0 0 1-3.529 2.854L92.573 83.01a3.209 3.209 0 0 1-2.853-3.529l.26-2.46-.522-.055-.26 2.46a3.209 3.209 0 0 1-3.53 2.853L70.91 80.717a3.209 3.209 0 0 1-2.853-3.53l1.509-14.249zm3.275-.46l14.758 1.562c.44.047.76.442.714.883l-1.509 14.25a.802.802 0 0 1-.882.713l-14.758-1.563a.802.802 0 0 1-.714-.882l1.509-14.25a.802.802 0 0 1 .882-.713zm36.421 3.856l-14.758-1.562a.802.802 0 0 0-.883.713l-1.508 14.25a.802.802 0 0 0 .713.882l14.758 1.562a.803.803 0 0 0 .883-.713l1.508-14.25a.802.802 0 0 0-.713-.882z" fill="#fff"/><path fill-rule="evenodd" clip-rule="evenodd" d="M106.95 72.065a3.246 3.246 0 1 0-1.406 6.114 6.834 6.834 0 1 1 1.406-6.114zm-6.213-3.798a2.22 2.22 0 0 1 .023 4.442c-.731.004-1.08.302-1.313.602a2.264 2.264 0 0 0-.342.643l-.003.01a2.22 2.22 0 0 1-4.308-1.08l.01-.044a3.109 3.109 0 0 1 .068-.232 6.708 6.708 0 0 1 1.061-2.013c.892-1.154 2.441-2.315 4.804-2.328zm-.515 8.006a1.453 1.453 0 1 1-.306 2.89 1.453 1.453 0 0 1 .306-2.89z" fill="#334E99"/><path fill-rule="evenodd" clip-rule="evenodd" d="M87.069 69.96a3.246 3.246 0 1 0-1.406 6.114 6.834 6.834 0 1 1 1.406-6.114zm-6.213-3.797a2.221 2.221 0 0 1 .023 4.442c-.731.004-1.08.301-1.313.602a2.263 2.263 0 0 0-.342.643l-.003.01a2.221 2.221 0 0 1-4.308-1.081l.01-.043a4.022 4.022 0 0 1 .068-.233 6.703 6.703 0 0 1 1.061-2.013c.892-1.154 2.441-2.315 4.804-2.327zm-.514 8.006a1.452 1.452 0 1 1-.306 2.888 1.452 1.452 0 0 1 .305-2.888z" fill="#A62722"/><path fill-rule="evenodd" clip-rule="evenodd" d="M88.855 85.16a3.366 3.366 0 0 0 3.71-2.982c.195-1.844-2.7-6.559-2.7-6.559s-3.819 4.005-4.014 5.848a3.366 3.366 0 0 0 3.004 3.693z" fill="#EE9583"/><path fill-rule="evenodd" clip-rule="evenodd" d="M57.702 68.04a33.352 33.352 0 0 1 12.626-22.73l9.98-2.96a1.996 1.996 0 0 1 2.552 2.122l-6.4 60.465a1.664 1.664 0 0 1-1.83 1.479l-18.773-1.988a1.995 1.995 0 0 1-1.775-2.194l3.62-34.195z" fill="#A570FF"/><g opacity=".75" fill="#fff"><path d="M107.993 20.392c.542-.7 1.658-.403 1.782.473l.52 3.703a1 1 0 0 0 .653.802l3.52 1.262c.833.3.896 1.453.101 1.84l-3.361 1.64a.999.999 0 0 0-.561.869l-.114 3.737c-.026.885-1.104 1.301-1.718.665l-2.598-2.69a1 1 0 0 0-1-.265l-3.589 1.047c-.85.248-1.579-.648-1.164-1.43l1.756-3.301a1.001 1.001 0 0 0-.057-1.033l-2.105-3.09c-.498-.731.128-1.701 1-1.548l3.682.65a1 1 0 0 0 .965-.374l2.288-2.957zM27.411 91.046c.017-.884 1.09-1.313 1.711-.684l2.629 2.66a1 1 0 0 0 1.002.254l3.578-1.088c.846-.258 1.585.63 1.18 1.415l-1.718 3.322a1 1 0 0 0 .068 1.032l2.14 3.066c.507.725-.108 1.703-.981 1.559l-3.69-.607a1.001 1.001 0 0 0-.96.384l-2.255 2.984c-.533.706-1.653.422-1.786-.452l-.563-3.697a1 1 0 0 0-.662-.795l-3.534-1.222c-.836-.29-.913-1.442-.122-1.839l3.342-1.678a1 1 0 0 0 .55-.875l.071-3.739zM90.118 22.071c-.592-.657-1.683-.278-1.74.605l-.066 1.004a1 1 0 0 1-.59.849l-.92.41c-.808.36-.785 1.514.037 1.841l.935.373a1 1 0 0 1 .624.824l.106 1c.093.88 1.198 1.215 1.764.535l.643-.774a1 1 0 0 1 .977-.34l.984.21c.865.183 1.525-.765 1.053-1.513l-.538-.85a1 1 0 0 1-.02-1.035l.502-.871c.442-.766-.255-1.687-1.112-1.469l-.976.248a1 1 0 0 1-.99-.3l-.673-.747z"/></g></svg>