<svg viewBox="0 0 135 124" fill="none" xmlns="http://www.w3.org/2000/svg"><path d="M11 28c0-9.389 7.611-17 17-17h79c9.389 0 17 7.611 17 17v79c0 9.389-7.611 17-17 17H28c-9.389 0-17-7.611-17-17V28z" fill="#E5E5E5"/><path d="M53.953 15.114c0 6.174-5.035 11.18-11.245 11.18-6.21 0-11.245-5.006-11.245-11.18 0-6.175 5.035-11.18 11.245-11.18 6.21 0 11.245 5.005 11.245 11.18z" fill="#959595"/><path fill-rule="evenodd" clip-rule="evenodd" d="M6 52.233c0-12.827 10.398-23.225 23.224-23.225h26.797c12.827 0 23.225 10.398 23.225 23.225 0 12.826-10.398 23.224-23.225 23.224H29.224C16.398 75.457 6 65.059 6 52.233z" fill="#959595"/><path d="M79.062 55.167c-1.443 11.441-11.209 20.29-23.04 20.29H29.223c-11.832 0-21.598-8.849-23.04-20.29h72.878z" fill="#D8D8D8"/><path d="M14.145 66.686c0-15.883 12.875-28.76 28.759-28.76 15.883 0 28.759 12.877 28.759 28.76v9.52c0 6.628-5.373 12-12 12H26.145c-6.628 0-12-5.372-12-12v-9.52z" fill="#D1D1D1"/><path d="M23.063 35.859H65.07v6.85H23.063v-6.85z" fill="#959595"/><path opacity=".626" fill-rule="evenodd" clip-rule="evenodd" d="M63.074 56.682a.638.638 0 0 1-.344.835l-3.285 1.368 3.299 1.467a.638.638 0 0 1-.519 1.166l-4.653-2.068a.638.638 0 0 1 .014-1.172l4.653-1.94a.638.638 0 0 1 .835.344zM22.473 56.682a.638.638 0 0 0 .344.835l3.285 1.368-3.299 1.467a.638.638 0 0 0 .518 1.166l4.654-2.068a.638.638 0 0 0-.014-1.172l-4.653-1.94a.638.638 0 0 0-.835.344z" fill="#B6B6B6"/><path fill-rule="evenodd" clip-rule="evenodd" d="M9.361 43.471a6.061 6.061 0 0 1 6.062-6.06h5.714a6.061 6.061 0 0 1 6.061 6.06v5.715a6.061 6.061 0 0 1-6.06 6.061h-5.715a6.061 6.061 0 0 1-6.062-6.061v-5.715zM58.607 42.825a6.061 6.061 0 0 1 6.062-6.06h4.939a6.061 6.061 0 0 1 6.061 6.06v6.361a6.061 6.061 0 0 1-6.061 6.062h-4.94a6.061 6.061 0 0 1-6.06-6.062v-6.36zM35.47 49.69l-.53-1.866a1.939 1.939 0 0 0 1.06 3.73l.01-.002.054-.015a24.476 24.476 0 0 1 1.193-.276c.83-.17 2.017-.377 3.427-.515 2.843-.277 6.465-.262 9.849.794a1.939 1.939 0 0 0 1.155-3.702c-4.07-1.27-8.269-1.255-11.381-.95a37.104 37.104 0 0 0-3.832.575 28.53 28.53 0 0 0-1.496.35l-.025.008-.008.002-.005.001.53 1.865z" fill="#959595"/><path d="M42.947 82.995c-7.378-.13-12.922-3.155-15.37-9.181-1.268-3.124.21-6.697 3.302-7.98 2.905-1.206 6.2.037 7.641 2.781.863.927 1.99 1.737 3.417 2.08.374.038.781.062 1.223.07l.1.003c3.295.111 5.903 2.874 5.845 6.218-.06 3.377-2.816 6.067-6.158 6.009z" fill="#959595"/><path fill-rule="evenodd" clip-rule="evenodd" d="M30.78 58.976a1.292 1.292 0 0 1 1.68-.719l-.48 1.2.48-1.2h-.001l-.002-.001h.001l.027.01.136.047a7.78 7.78 0 0 0 2.484.359c1.486-.035 3.26-.541 4.642-2.492a1.293 1.293 0 1 1 2.109 1.495c-1.965 2.774-4.602 3.532-6.69 3.581a10.367 10.367 0 0 1-3.344-.485 6.54 6.54 0 0 1-.289-.1l-.021-.01-.008-.002-.003-.001H31.5c0-.001-.001-.001.48-1.201l-.481 1.2a1.292 1.292 0 0 1-.719-1.68zm1.676-.72zM56.072 58.976a1.293 1.293 0 0 0-1.681-.719l.48 1.2-.479-1.2.002-.001h0l-.027.01-.136.047a7.779 7.779 0 0 1-2.484.359c-1.486-.035-3.26-.541-4.642-2.492a1.293 1.293 0 0 0-2.11 1.495c1.966 2.774 4.602 3.532 6.69 3.581a10.367 10.367 0 0 0 3.345-.485 6.598 6.598 0 0 0 .289-.1l.02-.01.008-.002.003-.001h.002l-.48-1.201.48 1.2a1.293 1.293 0 0 0 .72-1.68zm-1.677-.72h.001zM43.291 65.931a2.913 2.913 0 0 0 2.908-2.916c0-1.611-2.908-5.421-2.908-5.421s-2.908 3.81-2.908 5.42a2.913 2.913 0 0 0 2.908 2.917z" fill="#959595"/><path d="M41.941 82.958c-6.084-.334-10.82-2.736-13.447-7.268a8.66 8.66 0 0 1 13.447 7.268z" fill="#A6A6A6"/><path fill-rule="evenodd" clip-rule="evenodd" d="M30.005 106.6a1.5 1.5 0 0 1-.55-2.049l4.793-8.301a1.5 1.5 0 0 1 2.598 1.5l-4.792 8.301a1.5 1.5 0 0 1-2.05.549zM52.019 106.6a1.5 1.5 0 0 0 .549-2.049l-4.793-8.301a1.5 1.5 0 0 0-2.598 1.5l4.793 8.301a1.5 1.5 0 0 0 2.049.549zM41.127 111.445a1.5 1.5 0 0 1-1.5-1.5v-9.585a1.5 1.5 0 1 1 3 0v9.585a1.5 1.5 0 0 1-1.5 1.5zM95.546 44.228a1.5 1.5 0 0 1-1.615 1.375l-9.555-.768a1.5 1.5 0 0 1 .241-2.99l9.554.768a1.5 1.5 0 0 1 1.375 1.615zM86.102 24.342a1.5 1.5 0 0 0-2.086.383l-5.443 7.89a1.5 1.5 0 1 0 2.47 1.704l5.442-7.89a1.5 1.5 0 0 0-.383-2.087zM95.152 32.102a1.5 1.5 0 0 1-.711 1.999l-8.659 4.111a1.5 1.5 0 0 1-1.287-2.71l8.659-4.111a1.5 1.5 0 0 1 1.998.711z" fill="#fff"/><path d="M79.66 71.376h33.405a5.85 5.85 0 0 1 5.849 5.85v34.019a5.849 5.849 0 0 1-5.849 5.849H79.661a5.849 5.849 0 0 1-5.85-5.849v-34.02a5.85 5.85 0 0 1 5.85-5.849z" fill="#959595"/><path d="M78.584 87.23v23.245c0 .85.69 1.539 1.54 1.539h32.479a1.54 1.54 0 0 0 1.54-1.539V87.231H78.584z" fill="#BFBFBF"/><path d="M78.584 94.86v-7.63h35.559v8.12a6.58 6.58 0 0 1-6.581 6.581h-17.78c-6.184 0-11.198-.887-11.198-7.072z" fill="#fff"/><path d="M114.141 87.23H78.582v-9.236c0-.85.69-1.539 1.54-1.539H112.6c.851 0 1.54.69 1.54 1.54v9.235z" fill="#A6A6A6"/><path fill-rule="evenodd" clip-rule="evenodd" d="M100.443 92.772H70.272a7.623 7.623 0 0 0 7.449 9.237h31.65-1.104a7.932 7.932 0 0 1-7.824-9.237z" fill="#D1D1D1"/><path d="M100.751 81.69a3.848 3.848 0 1 1 7.697 0 3.848 3.848 0 0 1-7.697 0zM84.28 81.69a3.848 3.848 0 1 1 7.697 0 3.848 3.848 0 0 1-7.697 0z" fill="#959595"/><path d="M88.05 67.99a2.54 2.54 0 0 0-2.54 2.54v10.928a2.54 2.54 0 1 0 5.08 0V70.53a2.54 2.54 0 0 0-2.54-2.54zM104.675 67.99a2.54 2.54 0 0 0-2.54 2.54v10.928a2.54 2.54 0 1 0 5.08 0V70.53a2.54 2.54 0 0 0-2.54-2.54z" fill="#BFBFBF"/></svg>