<svg viewBox="0 0 135 124" version="1.1" xmlns="http://www.w3.org/2000/svg"><g stroke="none" stroke-width="1" fill="none" fill-rule="evenodd"><path d="M28 11h79c9.389 0 17 7.611 17 17v79c0 9.389-7.611 17-17 17H28c-9.389 0-17-7.611-17-17V28c0-9.389 7.611-17 17-17z" fill="#4B4B4B"/><path d="M107 11c3.54 0 6.826 1.082 9.547 2.932C110.88 21.272 101.992 26 92 26c-11.267 0-21.13-6.01-26.557-15H107zM32 13c0 12.649-9.033 23.188-21 25.52V28c0-9.389 7.611-17 17-17h3.924c.05.66.076 1.327.076 2z" fill="#D8D8D8"/><path d="M123.999 74.601L124 107c0 9.389-7.611 17-17 17H28c-9.389 0-17-7.611-17-17l-.001-32.399h113z" fill="#6F4EA1"/><path d="M27 74.6h33v5.9C60 89.613 52.613 97 43.5 97S27 89.613 27 80.5v-5.9z" fill="#47D7FF"/><path d="M22 74.601h15V99.5a7.5 7.5 0 1 1-15 0V74.601zM43 104.929l3.536 3.535a5 5 0 1 1-7.072 0L43 104.93z" fill="#47D7FF"/><path d="M26.682 65.861a1.5 1.5 0 0 1 2.073.451 11.56 11.56 0 0 0 9.389 5.306l.336.005H70a1.5 1.5 0 0 1 .144 2.993l-.144.007H38.48a14.56 14.56 0 0 1-12.25-6.689 1.5 1.5 0 0 1 .452-2.073z" fill="#58A700" fill-rule="nonzero"/><path d="M34.988 63.71a1.5 1.5 0 0 1 1.917.909 10.551 10.551 0 0 0 9.64 7l.297.004H79a1.5 1.5 0 0 1 .144 2.993l-.144.007H46.842a13.551 13.551 0 0 1-12.762-8.996 1.5 1.5 0 0 1 .908-1.917z" fill="#58A700" fill-rule="nonzero"/><g><path d="M8.902 52.708a9.027 9.027 0 0 0 4.939 11.408l9.101 3.878 8.713-1.132 1.618-4.979a7 7 0 0 0-3.57-8.445L19.54 48.441a7.707 7.707 0 0 0-10.638 4.267z" fill="#F49000"/><path d="M.63 61.606a1.8 1.8 0 0 1 2.267-1.156l1.52.494a1.8 1.8 0 0 1-1.112 3.423l-1.52-.494A1.8 1.8 0 0 1 .63 61.606zM6.334 58.472a2.126 2.126 0 0 1 2.68-1.366l1.72.56A2.126 2.126 0 0 1 9.42 61.71l-1.72-.559a2.126 2.126 0 0 1-1.366-2.68z" fill="#FFD300"/><path d="M5.696 67.465l.455-1.402a8.28 8.28 0 0 1 8.837-5.665l18.08 2.116-1.466 4.512a11.804 11.804 0 0 1-11.133 8.157l-9.066.072a5.951 5.951 0 0 1-5.707-7.79z" fill="#F34848"/></g><g transform="rotate(-51 67.027 16.631)"><rect fill="#B469E4" transform="rotate(22 18.493 13.716)" x="12.386" y="5.077" width="12.213" height="17.279" rx="6.107"/><path d="M16.356 0a2.16 2.16 0 0 1 2.16 2.16v1.936a2.16 2.16 0 0 1-4.32 0V2.16A2.16 2.16 0 0 1 16.356 0zM20.485 7.332c.946 0 1.713.766 1.713 1.712v1.341a1.713 1.713 0 0 1-3.426 0v-1.34c0-.946.767-1.713 1.713-1.713z" fill="#FFD300"/><path d="M12.976 2.33l.603.244a6.409 6.409 0 0 1 4.008 5.857l.126 9.528a6.19 6.19 0 0 1-8.507 5.821 9.309 9.309 0 0 1-5.144-12.118l2.705-6.696a4.77 4.77 0 0 1 6.21-2.636z" fill="#CE82FF"/><path d="M20.148 11.011l2.69 1.088a3.13 3.13 0 0 1 1.73 4.074l-1.255 3.107a9.457 9.457 0 0 1-12.31 5.226l-2.419-.977 3.711-9.184a6.032 6.032 0 0 1 7.853-3.334z" fill="#DBA2FF"/></g><g><path d="M56.384 25.101h13.839a2.07 2.07 0 0 1 2.004 2.588l-1.463 5.662a16.608 16.608 0 0 1 8.658 19.78l-6.08 20.002a2.07 2.07 0 0 1-1.98 1.468H55.245a2.07 2.07 0 0 1-1.98-1.468l-6.08-20.001a16.608 16.608 0 0 1 8.657-19.781l-1.463-5.662a2.07 2.07 0 0 1 2.004-2.588z" fill="#BBF2FF"/><path d="M51.688 55.846h23.4L71.55 68.362a2.588 2.588 0 0 1-2.49 1.884H57.715a2.587 2.587 0 0 1-2.49-1.884l-3.537-12.516z" fill="#47D7FF"/></g><path d="M95.481 52.822a4 4 0 0 1 2.386 2.199l6.616 15.292 4.283-4.178a3 3 0 0 1 4.88 1.036L124 93.123V107c0 9.389-7.611 17-17 17H75.87c-6.762-1.972-11.748-8.167-11.86-15.578a16.485 16.485 0 0 1 .74-5.142l5.2-16.731a3 3 0 0 1 5.077-1.136l3.767 4.115 11.614-34.205a4 4 0 0 1 5.073-2.501z" fill="#FFB100"/><path d="M107.502 97.454a2 2 0 0 1 .937 1.213l6.356 23.445A16.927 16.927 0 0 1 107 124H85.95l4.161-17.651a2 2 0 0 1 3.256-1.053l4.91 4.252 6.496-11.351a2 2 0 0 1 2.729-.743z" fill="#FFD900"/><rect fill="#D8D8D8" x="96" y="6" width="32" height="32" rx="16"/><rect fill="#D8D8D8" x="26" y="3" width="22" height="22" rx="11"/><rect fill="#D8D8D8" x="100" y="35" width="16" height="16" rx="8"/></g></svg>