<svg viewBox="0 0 135 124" fill="none" xmlns="http://www.w3.org/2000/svg"><rect x="10.977" y="11" width="113" height="113" rx="17" fill="#B2B2B2"/><path d="M115.947 93.36l.022-24.37H92.748l10.195 17.275-13.592-4.452a1.133 1.133 0 0 0-1.331 1.647l14.102 24.176a1.133 1.133 0 0 0 2.074-.861l-4.085-15.412 14.466 3.104a1.132 1.132 0 0 0 1.37-1.106z" fill="#E5E3E3"/><path d="M79.918 19.335H16.719c-6.591 0-11.935 5.344-11.935 11.935 0 6.592 5.344 11.936 11.935 11.936h63.199c6.591 0 11.934-5.344 11.934-11.936 0-6.591-5.343-11.935-11.934-11.935z" fill="silver"/><path d="M57.1 21c0-9.941-8.06-18-18-18-9.942 0-18 8.059-18 18s8.058 18 18 18c9.94 0 18-8.059 18-18z" fill="silver"/><path fill-rule="evenodd" clip-rule="evenodd" d="M61.267 7.33c9.48 0 17.164 7.685 17.164 17.165V28.5H44.103v-4.005c0-9.48 7.684-17.164 17.164-17.164z" fill="silver"/><path d="M84.33 55.24h40.568a9.486 9.486 0 1 1 0 18.972H84.329a9.486 9.486 0 0 1 0-18.971z" fill="silver"/><path d="M100.688 54.566c0-7.07 5.731-12.8 12.8-12.8 7.069 0 12.8 5.73 12.8 12.8 0 7.069-5.731 12.8-12.8 12.8-7.069 0-12.8-5.731-12.8-12.8z" fill="silver"/><path fill-rule="evenodd" clip-rule="evenodd" d="M97.725 46.4c-6.741 0-12.206 5.464-12.206 12.205v2.848h24.411v-2.848c0-6.74-5.464-12.205-12.205-12.205z" fill="silver"/><path d="M35.783 31.302c8.173-.665 15.59 3.736 19.158 10.577l.006-.019c2.805 5.96 6.066 8.015 12.213 7.514v.006c8.54-.49 15.953 5.925 16.65 14.496.708 8.7-5.77 16.326-14.47 17.034-8.7.707-16.325-5.771-17.033-14.47a15.92 15.92 0 0 1-.015-2.401 19.723 19.723 0 0 1-13.72 6.736c-1.063 6.891-6.734 12.412-13.989 13.003-8.487.69-15.927-5.63-16.617-14.117-.57-6.993 3.62-13.274 9.86-15.656a20.122 20.122 0 0 1-.16-1.377c-.886-10.891 7.226-20.44 18.117-21.326z" fill="#979797"/><path d="M13.752 90.073c-1.508-18.53 12.292-34.775 30.822-36.282 18.53-1.508 34.775 12.291 36.283 30.822l1.26 15.492a8.545 8.545 0 0 1-7.824 9.21l-50.07 4.074a8.546 8.546 0 0 1-9.21-7.825l-1.261-15.491z" fill="#D1D1D1"/><path d="M86.039 75.426a5.396 5.396 0 1 1-10.757.876 5.396 5.396 0 0 1 10.757-.876zM17.654 80.99a5.396 5.396 0 1 1-10.757.875 5.396 5.396 0 0 1 10.757-.875z" fill="#D1D1D1"/><path d="M45.137 73.797c-.494-6.071 4.027-11.393 10.098-11.887 6.071-.494 11.393 4.027 11.887 10.098.494 6.071-4.027 11.393-10.098 11.887-6.071.494-11.393-4.027-11.887-10.098z" fill="#fff"/><path d="M25.15 75.423c-.494-6.071 4.027-11.393 10.098-11.887 6.071-.494 11.393 4.027 11.887 10.098.494 6.071-4.027 11.393-10.098 11.887-6.07.494-11.393-4.027-11.887-10.098z" fill="#fff"/><path d="M39.25 75.617a2.34 2.34 0 0 1 4.663-.38 2.34 2.34 0 0 1-4.663.38zm9.326-.759a2.34 2.34 0 0 1 4.664-.38 2.34 2.34 0 0 1-4.664.38z" fill="#979797"/><path d="M44.606 75.517l3.331-.271.38 4.663-3.331.271-.38-4.663z" fill="#fff"/><path fill-rule="evenodd" clip-rule="evenodd" d="M24.236 81.701a.934.934 0 0 0-.314 1.283c.585.967 1.103 1.752 1.719 2.414.63.677 1.335 1.199 2.271 1.687a.934.934 0 0 0 .864-1.655c-.778-.407-1.304-.806-1.767-1.304-.478-.513-.914-1.16-1.49-2.11a.934.934 0 0 0-1.283-.315zM69.3 78.035c.478.192.71.736.518 1.215-.422 1.048-.806 1.907-1.306 2.66-.512.77-1.124 1.398-1.97 2.032a.934.934 0 1 1-1.12-1.494c.703-.527 1.157-1.005 1.534-1.572.388-.584.715-1.292 1.13-2.323a.934.934 0 0 1 1.214-.518z" fill="#B2B2B2"/><path d="M14.956 75.702l.323 1.24a33.4 33.4 0 0 0-1.162 4.713 7.58 7.58 0 0 0 9.388-7.973l-.75-9.22a7.837 7.837 0 0 0-.013-.139l-.006.006-.163-2.001-4.636 3.707-3.827 4.986.846 4.68zm53.626-5.688a7.58 7.58 0 0 0 10.553 6.35 33.412 33.412 0 0 0-1.987-4.614l-.007-1.048.275-4.831-4.583-4.302-5.174-2.91.923 11.355zM30.806 102.16a8.776 8.776 0 0 1 2.23-12.21l9.526-6.584a8.776 8.776 0 0 1 9.98 14.439l-9.527 6.584a8.776 8.776 0 0 1-12.21-2.229z" fill="#979797"/><path d="M65.982 99.297a8.776 8.776 0 0 0-4.174-11.688l-10.465-4.957a8.776 8.776 0 1 0-7.514 15.862l10.465 4.957a8.775 8.775 0 0 0 11.688-4.174z" fill="#979797"/><path d="M51.305 82.635a4.369 4.369 0 1 1-8.709.709 4.369 4.369 0 0 1 8.709-.709z" fill="#D1D1D1"/><path d="M67.773 56.64l2.782 4.023c1.236 1.789.072 4.245-2.095 4.421-2.167.176-3.712-2.06-2.781-4.024l2.094-4.42zm6.652 6.472l3.472 5.023c1.543 2.232.09 5.298-2.614 5.518-2.705.22-4.633-2.57-3.472-5.023l2.614-5.518zm-54.481 4.433l3.472 5.022c1.543 2.233.09 5.298-2.614 5.518-2.705.22-4.634-2.57-3.472-5.022l2.614-5.518z" fill="#fff"/><path d="M132.465 32.842l-4.962-5.132a14.783 14.783 0 0 0-10.629-4.508H46.816s6.53 14.861 18.11 14.861h65.325c2.719 0 4.104-3.266 2.214-5.22z" fill="#E6E4E4"/><path d="M70.369 31.225c-.64 0-1.163-.523-1.163-1.162v-1.4c0-.638.523-1.162 1.163-1.162.639 0 1.162.523 1.162 1.163v1.399c0 .639-.523 1.162-1.162 1.162zm5.059 0a1.166 1.166 0 0 1-1.162-1.162v-1.4c0-.638.523-1.162 1.162-1.162.64 0 1.163.523 1.163 1.163v1.399c0 .639-.523 1.162-1.162 1.162zm5.06 0a1.166 1.166 0 0 1-1.162-1.162v-1.4c0-.638.523-1.162 1.162-1.162.64 0 1.163.523 1.163 1.163v1.399c0 .639-.523 1.162-1.163 1.162zm5.061 0c-.64 0-1.163-.523-1.163-1.162v-1.4c0-.638.523-1.162 1.163-1.162.639 0 1.161.523 1.161 1.163v1.399c0 .639-.522 1.162-1.161 1.162zm5.06 0c-.64 0-1.163-.523-1.163-1.162v-1.4c0-.638.523-1.162 1.162-1.162.64 0 1.162.523 1.162 1.163v1.399c0 .639-.522 1.162-1.161 1.162zm5.059 0a1.166 1.166 0 0 1-1.162-1.162v-1.4c0-.638.523-1.162 1.162-1.162.64 0 1.162.523 1.162 1.163v1.399c0 .639-.522 1.162-1.162 1.162zm5.06 0a1.165 1.165 0 0 1-1.162-1.162v-1.4c0-.638.523-1.162 1.162-1.162.639 0 1.163.523 1.163 1.163v1.399c0 .639-.524 1.162-1.163 1.162zm5.06 0a1.165 1.165 0 0 1-1.162-1.162v-1.4c0-.638.523-1.162 1.162-1.162.639 0 1.162.523 1.162 1.163v1.399c0 .639-.522 1.162-1.162 1.162z" fill="#B2B2B2"/><path d="M70.101 32.471l30.286-.2c.736 0 1.394.525 1.491 1.255a1.453 1.453 0 0 1-1.436 1.643l-30.34.2a1.449 1.449 0 0 1 0-2.898zM46.85 23.202l-5.854-10.445a.74.74 0 0 1 .657-1.077h5.686a6.16 6.16 0 0 1 4.253 1.704l10.781 9.818H46.85zm11.457 8.022H46.891c-.79 0-1.437-.646-1.437-1.437 0-.79.646-1.437 1.437-1.437h11.416c.79 0 1.438.647 1.438 1.437s-.647 1.437-1.438 1.437z" fill="#979797"/><path d="M117.461 29.482a2.284 2.284 0 0 1-1.966-1.12l-.814-1.374a.493.493 0 0 1 .423-.745h10.752a14.82 14.82 0 0 1 1.647 1.467l1.713 1.772h-11.755z" fill="#B2B2B2"/><path d="M125.02 29.482h-2.587l-3.155-3.238h2.587l3.155 3.238z" fill="#979797"/><path d="M133.33 35.17H56.347c2.433 1.705 5.305 2.893 8.58 2.893h65.324c1.772 0 2.977-1.386 3.079-2.893z" fill="#B2B2B2"/><path d="M92.7 35.17h-6.418a2.833 2.833 0 0 0-2.825 2.825 2.833 2.833 0 0 0 2.826 2.825h6.416v-5.65z" fill="#E6E4E4"/></svg>