<svg viewBox="0 0 135 125" fill="none" xmlns="http://www.w3.org/2000/svg"><path fill-rule="evenodd" clip-rule="evenodd" d="M28 11.25h79c9.389 0 17 7.611 17 17v79c0 9.389-7.611 17-17 17H28c-9.389 0-17-7.611-17-17v-79c0-9.389 7.611-17 17-17z" fill="#E5E5E5"/><path fill-rule="evenodd" clip-rule="evenodd" d="M88.153 98.209a4.835 4.835 0 0 1 4.395-5.238l11.922-1.043a4.835 4.835 0 0 1 .843 9.633l-11.923 1.043a4.835 4.835 0 0 1-5.237-4.395z" fill="#D1D1D1"/><path fill-rule="evenodd" clip-rule="evenodd" d="M102.357 113.364a4.834 4.834 0 0 0 5.522-4.033l1.843-11.825a4.835 4.835 0 0 0-9.555-1.489l-1.843 11.826a4.834 4.834 0 0 0 4.033 5.521z" fill="#D1D1D1"/><path fill-rule="evenodd" clip-rule="evenodd" d="M110.159 65.618a8.113 8.113 0 0 1-7.375 8.789l-18.122 1.585a8.112 8.112 0 1 1-1.414-16.163l18.122-1.586a8.113 8.113 0 0 1 8.789 7.375z" fill="#BFBFBF"/><path fill-rule="evenodd" clip-rule="evenodd" d="M82.377 55.31a8.513 8.513 0 0 1-1.915 6.671 8.508 8.508 0 0 1-5.794 3.017L46.29 67.48a8.508 8.508 0 0 1-6.176-1.919 8.509 8.509 0 0 1-3.057-5.7L37 59.28l45.376-3.97z" fill="#B2B2B2"/><path fill-rule="evenodd" clip-rule="evenodd" d="M36.66 58.995a.444.444 0 0 1 .302-.158l45.376-3.97a.444.444 0 0 1 .478.382 8.957 8.957 0 0 1-2.014 7.018 8.952 8.952 0 0 1-6.096 3.173l-28.378 2.483a8.951 8.951 0 0 1-6.496-2.02 8.953 8.953 0 0 1-3.217-5.997v-.004l-.056-.58a.444.444 0 0 1 .1-.327zm.826.688l.012.133a8.065 8.065 0 0 0 2.899 5.403 8.063 8.063 0 0 0 5.854 1.819l28.378-2.483a8.064 8.064 0 0 0 5.493-2.86 8.064 8.064 0 0 0 1.862-5.905l-44.498 3.893zM68.704 104.039l-.866-9.907a.69.69 0 0 1 .628-.748l33.78-2.713a.692.692 0 0 1 .63 1.061l-6.609 10.352a.692.692 0 0 1-.53.318l-26.293 2.265a.69.69 0 0 1-.74-.628z" fill="#B2B2B2"/><path fill-rule="evenodd" clip-rule="evenodd" d="M47.9 20.043l25.95-2.27a8.289 8.289 0 0 1 8.98 7.534l2.692 30.768-42.465 3.715-2.691-30.767a8.289 8.289 0 0 1 7.534-8.98z" fill="#B2B2B2"/><path d="M54.63 25.2l20.544-1.798a7.795 7.795 0 0 1 8.444 7.086l2.942 33.618-36.076 3.156-2.94-33.618a7.795 7.795 0 0 1 7.085-8.445z" fill="#D1D1D1"/><path fill-rule="evenodd" clip-rule="evenodd" d="M49.294 24.18l1.936-.17a4.095 4.095 0 0 1 4.436 3.723l.508 5.8a4.095 4.095 0 0 1-3.723 4.436l-1.935.17a4.095 4.095 0 0 1-4.437-3.723l-.507-5.8a4.095 4.095 0 0 1 3.722-4.436z" fill="#B2B2B2"/><path d="M83.99 34.738a4.094 4.094 0 0 1-2.496-3.42l-.507-5.8a4.103 4.103 0 0 1-.014-.229 7.769 7.769 0 0 1 2.646 5.2l.372 4.249z" fill="#B2B2B2"/><path d="M82.696 40.488A3.996 3.996 0 1 0 82 32.526a3.996 3.996 0 0 0 .696 7.962z" fill="#D1D1D1"/><path fill-rule="evenodd" clip-rule="evenodd" d="M104.304 116.264l9.174-4.815a2.665 2.665 0 0 1 2.477 4.718l-9.174 4.815a2.664 2.664 0 1 1-2.477-4.718z" fill="#B2B2B2"/><path fill-rule="evenodd" clip-rule="evenodd" d="M64.052 29.48a4.653 4.653 0 0 1 5.04 4.229l.246 2.819a4.652 4.652 0 1 1-9.269.81l-.247-2.818a4.653 4.653 0 0 1 4.23-5.04zM74.962 28.525a4.652 4.652 0 0 0-4.229 5.04l.247 2.82a4.652 4.652 0 0 0 9.27-.812l-.248-2.819a4.652 4.652 0 0 0-5.04-4.23z" fill="#fff"/><path fill-rule="evenodd" clip-rule="evenodd" d="M72.81 43.273a2.072 2.072 0 0 0 1.099-2.716c-.157-.369-.621-.814-1.16-1.237l-.093-.073a8.295 8.295 0 0 0-.046-.035l-.095-.072-.095-.07-.096-.07-.096-.07a24.687 24.687 0 0 0-.096-.068l-.096-.067-.096-.065-.094-.064-.094-.063-.092-.061-.09-.06-.133-.085-.127-.081-.121-.077-.115-.07-.173-.107-.147-.089-.156-.092-.1-.057-.029.112-.035.146-.037.162-.025.112-.037.165-.028.135-.03.142-.03.15-.02.105-.02.106-.02.109-.02.11-.02.113-.019.114-.018.115-.01.059-.017.116-.008.059-.017.117-.008.06-.014.117-.014.118c-.081.724-.093 1.42.072 1.81a2.072 2.072 0 0 0 2.717 1.097z" fill="#B2B2B2"/><path fill-rule="evenodd" clip-rule="evenodd" d="M65.819 43.404c-1.387-1.559-3.109-2.297-5.24-2.235l-.055-1.874c2.676-.078 4.933.882 6.695 2.862l-1.4 1.247z" fill="#D1D1D1"/><path fill-rule="evenodd" clip-rule="evenodd" d="M40.085 24.689l42.26-3.697a1.283 1.283 0 0 1 1.39 1.166l.233 2.654a1.283 1.283 0 0 1-1.166 1.39l-42.26 3.697a1.283 1.283 0 0 1-1.39-1.166l-.233-2.655a1.283 1.283 0 0 1 1.166-1.39z" fill="#BFBFBF"/><path fill-rule="evenodd" clip-rule="evenodd" d="M67.688 8.704a8.88 8.88 0 1 1 1.547 17.693 8.88 8.88 0 0 1-1.547-17.693z" fill="#B2B2B2"/><path d="M58.59 11.834l9.283 8.492a.982.982 0 0 1-.192 1.576c-2.793 1.55-6.324 1.123-8.723-1.12-2.4-2.243-3.071-5.744-1.723-8.645.277-.596.872-.737 1.356-.303z" fill="#B2B2B2"/><path fill-rule="evenodd" clip-rule="evenodd" d="M49.499 62.792l37.451-3.277a1.085 1.085 0 0 1 1.176.987l.327 3.735a1.085 1.085 0 0 1-.987 1.176L50.015 68.69a1.085 1.085 0 0 1-1.176-.987l-.327-3.735a1.085 1.085 0 0 1 .987-1.176z" fill="#BFBFBF"/><path d="M48.709 43.348a3.996 3.996 0 1 0-.697-7.962 3.996 3.996 0 0 0 .697 7.962z" fill="#D1D1D1"/><path fill-rule="evenodd" clip-rule="evenodd" d="M44.617 55.324c.068.78.237 2.832-2.013 3.029 1.057.866 1.63 1.235 1.722 1.108l1.002-.648.08-2.385c-.573-1.256-.836-1.624-.79-1.104z" fill="#B2B2B2"/><path fill-rule="evenodd" clip-rule="evenodd" d="M106.55 40.941a8.112 8.112 0 0 1 6.58 9.398l-2.744 15.566a8.113 8.113 0 0 1-15.979-2.817l2.745-15.566a8.113 8.113 0 0 1 9.398-6.58zM37.667 88.282A8.112 8.112 0 0 0 41.591 77.5l-7.292-15.638a8.113 8.113 0 0 0-14.705 6.857l7.292 15.638a8.113 8.113 0 0 0 10.781 3.924z" fill="#BFBFBF"/><path fill-rule="evenodd" clip-rule="evenodd" d="M26.921 83.724a8.113 8.113 0 0 0 10.398 4.848l17.975-6.542a8.112 8.112 0 1 0-5.55-15.246L31.77 73.326a8.113 8.113 0 0 0-4.849 10.398z" fill="#BFBFBF"/><path d="M61.447 41.732a3.515 3.515 0 0 1 4.186 1.645c.528.727 1.297 1.406 2.375 1.643l.174.02.238.023a3.514 3.514 0 0 1-.67 6.995c-4.267-.373-7.357-2.333-8.534-5.886a3.514 3.514 0 0 1 2.231-4.44z" fill="#B2B2B2"/><path d="M71.57 48.48a3.514 3.514 0 0 1-3.82 3.578 13.444 13.444 0 0 1-3.114-.626 6.353 6.353 0 0 1 6.933-2.952z" fill="#BFBFBF"/><path d="M68.476 45.069a1.853 1.853 0 0 1-1.208.446H65.82a1.86 1.86 0 0 1-1.706-1.117 1.86 1.86 0 0 1-1.705 1.117h-1.446a1.861 1.861 0 0 1-1.8-1.385 3.515 3.515 0 0 1 6.468-.754c.529.728 1.298 1.407 2.375 1.644l.174.02.239.022.056.007z" fill="#fff"/><path d="M13.596 43.358a2.94 2.94 0 0 1 4.016 1.076l.882 1.528a2.94 2.94 0 1 1 5.091-2.94l4.704 8.147a1.176 1.176 0 0 0 2.037-1.176l-2.058-3.565a2.94 2.94 0 1 1 5.091-2.94l4.116 7.13c4.383 7.592 1.782 17.3-5.81 21.684-7.294 4.21-16.54 1.976-21.143-4.936a2.992 2.992 0 0 1-.248-.365l-5.88-10.184a2.94 2.94 0 1 1 5.092-2.94L8.31 51.842a2.94 2.94 0 1 1 5.092-2.94l-.882-1.527a2.94 2.94 0 0 1 1.076-4.016z" fill="#B2B2B2"/><path d="M29.756 45.479a1.097 1.097 0 0 0-1.5-.402l-3.19 1.842a1.097 1.097 0 0 0-.402 1.5l2.097 3.632a2.94 2.94 0 0 0 5.092-2.94l-2.097-3.632z" fill="#BFBFBF"/><path fill-rule="evenodd" clip-rule="evenodd" d="M12.505 47.348a1.5 1.5 0 0 0-.549 2.049l5.145 8.91a1.5 1.5 0 1 0 2.598-1.5l-5.145-8.91a1.5 1.5 0 0 0-2.049-.55zM17.597 44.408a1.5 1.5 0 0 0-.55 2.049l5.145 8.91a1.5 1.5 0 1 0 2.598-1.5l-5.144-8.91a1.5 1.5 0 0 0-2.05-.549zM8.59 52.324a1.5 1.5 0 0 0-.55 2.049l3.969 6.874a1.5 1.5 0 1 0 2.598-1.5l-3.969-6.874a1.5 1.5 0 0 0-2.049-.549z" fill="#BFBFBF"/><circle r="8.231" transform="scale(-1 1) rotate(30 -123.616 -14.49)" fill="#E5E5E5"/><path d="M31.982 60.826a8.28 8.28 0 0 1-.401 1.745 8.223 8.223 0 0 1-6.541-4.095 8.213 8.213 0 0 1-.646-6.82 8.273 8.273 0 0 1 1.761.322 6.456 6.456 0 0 0 .412 5.616 6.463 6.463 0 0 0 5.415 3.232zM16.402 56.27a8.212 8.212 0 0 1 5.583 3.97 8.223 8.223 0 0 1 .276 7.712 8.283 8.283 0 0 1-1.712-.525 6.463 6.463 0 0 0-.092-6.306 6.456 6.456 0 0 0-4.657-3.164c.139-.582.34-1.147.602-1.687z" fill="#BFBFBF"/><path d="M16.276 63.875l12.194 3.482-.097 2.772-8.931.404-6.22-4.895 3.054-1.763z" fill="#B2B2B2"/><path fill-rule="evenodd" clip-rule="evenodd" d="M101.276 29.872v10.38a3.002 3.002 0 1 1-6.004 0v-10.38a3.002 3.002 0 1 1 6.004 0z" fill="#D1D1D1"/><path fill-rule="evenodd" clip-rule="evenodd" d="M95.217 40.292l10.171-2.067a3.002 3.002 0 1 1 1.196 5.883l-10.171 2.068a3.002 3.002 0 1 1-1.196-5.884z" fill="#D1D1D1"/><rect x="95.272" y="35.156" width="16.709" height="16.709" rx="8.354" fill="#D1D1D1"/><circle cx="98.274" cy="16.367" r="13.617" fill="#BFBFBF"/><path d="M99.203 2.781v8.035a22.23 22.23 0 0 1 5.454.908 13.618 13.618 0 0 1 3.212-5.02c.44.437.85.904 1.228 1.398a11.762 11.762 0 0 0-2.683 4.228 22.25 22.25 0 0 1 5.445 3.085 13.657 13.657 0 0 1-.04 2.374 20.443 20.443 0 0 0-5.904-3.659c-.14.725-.213 1.473-.213 2.237 0 3.223 1.296 6.142 3.395 8.267-.378.493-.788.96-1.228 1.397a13.575 13.575 0 0 1-4.024-9.663c0-.98.104-1.937.301-2.858a20.38 20.38 0 0 0-4.943-.836v17.28a13.862 13.862 0 0 1-1.857 0v-17.28c-1.71.077-3.367.364-4.943.836.197.921.3 1.877.3 2.857 0 3.779-1.538 7.197-4.023 9.664-.44-.437-.85-.904-1.228-1.397a11.723 11.723 0 0 0 3.395-8.267c0-.764-.073-1.512-.213-2.237a20.43 20.43 0 0 0-5.904 3.66 13.774 13.774 0 0 1-.04-2.375 22.253 22.253 0 0 1 5.445-3.085A11.768 11.768 0 0 0 87.452 8.1c.377-.493.788-.96 1.228-1.397a13.627 13.627 0 0 1 3.211 5.02 22.237 22.237 0 0 1 5.455-.908V2.78a13.824 13.824 0 0 1 1.857 0z" fill="#B2B2B2"/><path d="M52.897 67.249l32.464-2.84a8.782 8.782 0 0 1 9.468 9.93l-2.915 21.452a8.78 8.78 0 0 1-7.937 7.566l-22.954 2.009a8.783 8.783 0 0 1-9.13-6.073l-6.595-20.62a8.782 8.782 0 0 1 7.599-11.424z" fill="#BFBFBF"/><path fill-rule="evenodd" clip-rule="evenodd" d="M77.091 71.085l-1.635-3.733 2.402-1.053 1.636 3.733c.606 1.383.921 2.875.927 4.385l.07 18.67-2.623.009-.07-18.67a8.403 8.403 0 0 0-.707-3.34z" fill="#fff"/><path d="M92.703 89.984l-.79 5.808a8.78 8.78 0 0 1-7.936 7.565l-22.954 2.009a8.783 8.783 0 0 1-9.13-6.073l-1.785-5.583 42.595-3.726z" fill="#B2B2B2"/><path fill-rule="evenodd" clip-rule="evenodd" d="M72.995 60.538l2.382-.208a.79.79 0 0 1 .723.344l3.714 5.49a.79.79 0 0 1-.486 1.214l-5.476 1.193a.79.79 0 0 1-.954-.696l-.62-6.475a.79.79 0 0 1 .688-.859l.03-.003z" fill="#fff"/><path d="M91.397 70.576c-2.497 6.918 1.087 14.55 8.005 17.048 6.918 2.496 14.55-1.087 17.047-8.005 2.497-6.918-1.087-14.55-8.005-17.047-6.918-2.497-14.55 1.087-17.047 8.004z" fill="#fff"/><path d="M107.432 73.286a.705.705 0 0 1-.525.817l-.036.008-4.343.825a.705.705 0 0 1-.3-1.378l.037-.008 4.342-.826a.706.706 0 0 1 .825.562zM112.59 69.004a.705.705 0 0 1-.958.156l-.031-.021-3.519-2.675a.705.705 0 0 1 .824-1.145l.03.022 3.519 2.674c.31.236.371.679.135.989zM111.314 81.739a.706.706 0 0 1-.445-.863l.011-.036 1.457-4.173a.705.705 0 0 1 1.343.429l-.011.036-1.456 4.173a.706.706 0 0 1-.899.434zM99.368 68.253a.706.706 0 0 1-1.212-.722l.018-.03 2.358-3.74a.706.706 0 0 1 1.212.723l-.018.03-2.358 3.739zM104.687 83.708a.705.705 0 0 1-1.128.848l-.022-.03-1.476-2.077a.706.706 0 0 1 1.128-.848l.022.03 1.476 2.077z" fill="#D1D1D1"/><path fill-rule="evenodd" clip-rule="evenodd" d="M110.56 86.643a13.3 13.3 0 0 1-9.086 1.546l1.511-4.186a1.235 1.235 0 0 1 1.201-.815l4.528.146c.534.017.997.377 1.146.89l.7 2.419zM117.194 76.237l-3.665 1.568c-.492.21-1.063.08-1.415-.323l-2.981-3.41a1.235 1.235 0 0 1-.131-1.446l2.323-3.89c.274-.459.813-.69 1.334-.57l3.028.69a13.313 13.313 0 0 1 1.507 7.382zM105.508 64.451l-4.392 1.108a1.235 1.235 0 0 1-1.347-.54l-1.301-2.07a13.278 13.278 0 0 1 8.058-.913l-.088 1.301a1.234 1.234 0 0 1-.93 1.114z" fill="#B2B2B2"/><path fill-rule="evenodd" clip-rule="evenodd" d="M94.147 81.319l-.02.03-1.027 1.51c-.3-.418-.573-.852-.822-1.3l.683-1.004a.706.706 0 0 1 1.186.764zM94.455 73.838a.706.706 0 0 1-.864.445l-.034-.011-2.83-.987c.065-.467.155-.935.271-1.4l3.023 1.054c.368.129.563.531.434.899z" fill="#D1D1D1"/><path fill-rule="evenodd" clip-rule="evenodd" d="M102.73 75.006l-1.759 4.175a1.235 1.235 0 0 1-1.242.75l-4.514-.382a1.235 1.235 0 0 1-1.098-.95l-1.03-4.41c-.123-.521.105-1.061.563-1.338l3.876-2.344a1.235 1.235 0 0 1 1.447.123l3.426 2.963c.405.35.538.92.331 1.413z" fill="#B2B2B2"/><path d="M66.121 30.755a1.53 1.53 0 0 1-2.088 1.264 2.08 2.08 0 0 0-.159 1l.229 2.614a2.089 2.089 0 0 0 4.162-.364l-.23-2.614a2.09 2.09 0 0 0-1.914-1.9zM74.736 30.919a1.53 1.53 0 0 0 2.198-1.18 2.09 2.09 0 0 1 1.774 1.884l.23 2.613a2.089 2.089 0 0 1-4.162.364l-.229-2.613a2.08 2.08 0 0 1 .189-1.068z" fill="#B2B2B2"/><path d="M63.911 98.194a4.835 4.835 0 0 1 4.829 4.841l-.028 21.215h-9.67l.028-21.227a4.835 4.835 0 0 1 4.841-4.829z" fill="#D1D1D1"/><path d="M57.287 98.25a1 1 0 0 1 1-1h11.337a1 1 0 0 1 1 1v10.177a1 1 0 0 1-1 1H58.287a1 1 0 0 1-1-1V98.25z" fill="#B2B2B2"/><path d="M35.46 15.943c1.07 1.07 2.766 4.502 1.696 5.572-1.07 1.07-4.501-.625-5.572-1.696a2.74 2.74 0 0 1 3.876-3.876zM29.705 23.01c1.502.184 4.952 1.841 4.769 3.343-.184 1.503-3.931 2.282-5.433 2.098a2.74 2.74 0 1 1 .664-5.44z" fill="#fff"/></svg>