<svg viewBox="0 0 135 124" fill="none" xmlns="http://www.w3.org/2000/svg"><path d="M107 11H28c-9.389 0-17 7.611-17 17v79c0 9.389 7.611 17 17 17h79c9.389 0 17-7.611 17-17V28c0-9.389-7.611-17-17-17z" fill="#ADE756"/><path d="M2.213 66.613c0-19.807 16.056-35.863 35.863-35.863h20.762c19.806 0 35.863 16.056 35.863 35.863v.814c0 19.806-16.056 35.863-35.863 35.863H38.076c-19.807 0-35.863-16.057-35.863-35.863v-.814z" fill="#3D3D3D"/><path d="M124 83.196c-5.856-10.5-17.073-17.601-29.95-17.601H40.497C27.945 65.595 16.97 72.344 11 82.41V107c0 9.389 7.611 17 17 17h79c9.389 0 17-7.611 17-17V83.196z" fill="#FFCBA3"/><path d="M124 83.199a34.438 34.438 0 0 0-12.822-13.023A34.064 34.064 0 0 0 94.7 65.6v7.885c0 7.042 5.709 12.751 12.751 12.751H124V83.2z" fill="#D6C6BA"/><path d="M65.255 87.873c0-6.602-5.352-11.954-11.954-11.954h-.445c-6.602 0-11.954 5.352-11.954 11.954v12.362c0 6.602 5.352 11.954 11.954 11.954h.445c6.602 0 11.954-5.352 11.954-11.954V87.873z" fill="#E99B5F"/><path d="M40.9 92.278c0-6.602 5.353-11.954 11.955-11.954h.445c6.602 0 11.954 5.352 11.954 11.954v7.957c0 6.602-5.352 11.954-11.954 11.954h-.445c-6.602 0-11.954-5.352-11.954-11.954v-7.957z" fill="#fff"/><path d="M2.213 69.764c0-14.965 12.131-27.097 27.096-27.097h2.025c14.965 0 27.097 12.132 27.097 27.097v2.025c0 14.965-12.132 27.096-27.097 27.096H29.31c-14.965 0-27.096-12.131-27.096-27.096v-2.025z" fill="#3D3D3D"/><path d="M69.744 87.874c0-1.633.328-3.19.92-4.608l.307.73 4.583 2.59 7.72 1.843h10.824v10.222c-9.774-.344-17.975 3.607-22.953 7.205a11.9 11.9 0 0 1-1.4-5.621V87.874z" fill="#E99B5F"/><path d="M69.744 92.278c0-2.834.986-5.438 2.634-7.487l3.176 1.795 7.72 1.843h10.19c.411 1.208.634 2.502.634 3.85v6.372c-9.774-.344-17.975 3.607-22.953 7.205a11.903 11.903 0 0 1-1.4-5.621v-7.957z" fill="#fff"/><path fill-rule="evenodd" clip-rule="evenodd" d="M69.228 77.043a2.79 2.79 0 0 1 2.79 2.79c0 .757.368 2.344 3.375 3.819 3.142 1.542 8.904 2.78 18.935 2.409a2.79 2.79 0 0 1 .206 5.575c-10.41.385-17.25-.842-21.599-2.976-4.485-2.2-6.497-5.5-6.497-8.827a2.79 2.79 0 0 1 2.79-2.79z" fill="#E99B5F"/><path d="M61.035 99.911l-.277 1.748c-.28 1.761-1.155 3.247-2.327 4.197" stroke="#3D3D3D" stroke-width="9.375" stroke-linecap="round" stroke-linejoin="round"/><path d="M92.812 98.63c-3.865.01-7.465.68-10.694 1.707a5.484 5.484 0 0 1 10.694-1.707z" fill="#3D3D3D"/><path d="M67.592 104.22c.242 0 2.385 3.402 4.567 6.97 2.171 3.552-.405 8.079-4.567 8.079-4.163 0-6.738-4.527-4.567-8.079 2.181-3.568 4.324-6.97 4.567-6.97z" fill="#E99B5F"/><path d="M94.144 98.695c-9.602-.318-17.633 3.328-22.503 6.64a1.405 1.405 0 1 0 1.58 2.325 35.262 35.262 0 0 1 3.904-2.292c1.122-.568 2.448.247 3.17 1.276a5.009 5.009 0 0 0 9.11-2.879v-.401c0-.957.721-1.767 1.677-1.822.97-.056 1.96-.07 2.97-.036a1.407 1.407 0 0 0 .092-2.811z" fill="#47D7FF"/><path d="M78.678 124c1.128-1.014 2.271-1.945 3.386-2.724 2.003-1.4 3.6-2.081 4.68-2.159.48-.034.766.055.963.174.202.122.51.395.819 1.062a2.39 2.39 0 1 0 4.34-2.007c-.618-1.335-1.5-2.433-2.692-3.151-1.197-.721-2.509-.939-3.774-.847-2.408.174-4.885 1.478-7.075 3.008-2.57 1.796-5.18 4.22-7.48 6.644h6.833z" fill="#E99B5F"/><path d="M48.84 59.006c-1.415.291-3.025-.155-4.83-1.34L19.361 42.254c-5.823-2.792-10.12-8.141-11.049-14.744C6.796 16.71 14.868 6.65 26.343 5.037c3.541-.498 8.188.512 13.942 3.027a2.66 2.66 0 0 1 1.57 2.793l-.897 6.653a2.66 2.66 0 0 0 .5 1.942l4.02 5.41a2.66 2.66 0 0 1 .448 2.222l-2.209 8.977a2.66 2.66 0 0 0 .393 2.144l5.018 7.288a2.66 2.66 0 0 1 .468 1.586L49.264 58.5a.532.532 0 0 1-.424.506z" fill="#FF4B4B"/><path d="M17.782 30.7c-1.64-3.693-1.84-7.69-.84-11.428" stroke="#F7F7F7" stroke-width="6.642" stroke-linecap="round" stroke-linejoin="round"/><path d="M55.946 57.461c.553-.36 1.125-.882 1.717-1.569l19.444-21.61c4.828-4.289 7.484-10.616 6.556-17.218C82.147 6.265 71.614-1.182 60.138.431c-3.81.536-8.038 3.055-12.684 7.559a1.596 1.596 0 0 0-.457.846l-1.482 7.738a3.192 3.192 0 0 0 .737 2.706l4.122 4.695c.709.807.964 1.917.678 2.953l-2.32 8.42a3.192 3.192 0 0 0 .345 2.497l4.284 7.1c.32.53.479 1.143.457 1.763l-.336 9.358a1.596 1.596 0 0 0 2.465 1.395z" fill="#FF4B4B"/></svg>