<svg xmlns="http://www.w3.org/2000/svg" viewBox="0 0 135 124"><defs><style>.cls-1{fill:#ffc800}.cls-2{fill:#ffd900}.cls-3{fill:#f89700}.cls-4{fill:#ffb100}.cls-5{fill:#e27800}.cls-6{fill:#ffe865}</style></defs><g id="GILDED"><path class="cls-1" d="M124 28v79a14.76 14.76 0 0 1-.1 1.77 6.18 6.18 0 0 1-.07.62 1.85 1.85 0 0 1 0 .23c0 .23-.07.45-.11.68l-.15.69q-.06.29-.15.57a16.81 16.81 0 0 1-.73 2.1c-.11.25-.22.5-.34.74a15.28 15.28 0 0 1-1 1.81c-.11.18-.23.35-.35.52s-.24.35-.37.51a6.12 6.12 0 0 1-.39.5l-.41.48-.42.47-.44.45a16.94 16.94 0 0 1-10.97 4.8H27c-.35 0-.83-.06-1.24-.11l-.76-.13a16.94 16.94 0 0 1-10.47-6.41 16.94 16.94 0 0 1-3.28-7.81c0-.34-.09-.69-.12-1v-.6a.87.87 0 0 1 0-.28V28a17.07 17.07 0 0 1 .2-2.59c.08-.55.19-1.09.32-1.63s.32-1.09.51-1.62.4-1 .64-1.5.5-1 .78-1.44A17 17 0 0 1 28 11h79a17 17 0 0 1 16.74 14.1l.09.57A15 15 0 0 1 124 28z"/><path class="cls-1" d="M124 28v79a16.61 16.61 0 0 1-.09 1.74 6.17 6.17 0 0 1-.08.62.91.91 0 0 1 0 .23c0 .23-.07.45-.11.68l-.15.69q-.06.29-.15.57a16.81 16.81 0 0 1-.73 2.1c-.11.25-.22.5-.34.74a15.28 15.28 0 0 1-1 1.81c-.11.18-.23.35-.35.52s-.24.35-.37.51a6.12 6.12 0 0 1-.39.5l-.41.48-.42.47a6.25 6.25 0 0 1-.44.45 16.89 16.89 0 0 1-11 4.87H28a16.8 16.8 0 0 1-2.47-.18l-.66-.11c-.25 0-.49-.09-.74-.15l-.76-.2-.93-.29c-.13 0-.26-.09-.39-.15a8.18 8.18 0 0 1-.82-.32c-.34-.15-.67-.31-1-.48s-.66-.36-1-.55a17.34 17.34 0 0 1-4.78-4.29c-.16-.2-.29-.43-.43-.64s-.24-.35-.35-.53a14.69 14.69 0 0 1-.74-1.28c-.09-.17-.18-.34-.26-.52s-.26-.48-.37-.74v-.08c-.13-.32-.25-.64-.37-1v-.08a20.117 20.117 0 0 1-.54-2.08c-.07-.37-.12-.62-.16-.93a13.12 13.12 0 0 1-.15-1.67.87.87 0 0 1 0-.28 4.1 4.1 0 0 1 0-.5V28a16.25 16.25 0 0 1 .21-2.62c.08-.55.19-1.09.32-1.63s.32-1.09.51-1.62.4-1 .64-1.5.5-1 .78-1.44A17 17 0 0 1 28 11h79a17 17 0 0 1 16.75 14.07l.09.57A18.34 18.34 0 0 1 124 28z"/><path class="cls-2" d="M121.57 19.24L19.24 121.57A16.9 16.9 0 0 0 28 124h47.68L124 75.68V28a17 17 0 0 0-2.43-8.76zM42.68 11L23 30.73a20.81 20.81 0 0 0 29.38 29.43L101.55 11z"/><path class="cls-3" d="M123.85 109.36a1.85 1.85 0 0 1 0 .23c0 .23-.07.45-.11.68l-.15.69q-.06.29-.15.57a16.81 16.81 0 0 1-.73 2.1c-.11.25-.22.5-.34.74a15.28 15.28 0 0 1-1 1.81c-.11.18-.23.35-.35.52s-.24.35-.37.51a6.12 6.12 0 0 1-.39.5l-.41.48-.42.47a6.25 6.25 0 0 1-.44.45 16.89 16.89 0 0 1-11 4.87H28a16.8 16.8 0 0 1-2.47-.18l-.66-.11c-.25 0-.49-.09-.74-.15l-.76-.2-.93-.29c-.13 0-.26-.09-.39-.15a8.18 8.18 0 0 1-.82-.32c-.34-.15-.67-.31-1-.48s-.66-.36-1-.55l-.27-.18c-.29-.18-.57-.37-.85-.57l-.48-.36c-.31-.24-.62-.48-.91-.74l-.34-.33c-.3-.28-.59-.55-.87-.85a16 16 0 0 1-1.06-1.26 16.32 16.32 0 0 1-2.15-3.71v-.08c-.13-.32-.25-.64-.37-1v-.08a20.117 20.117 0 0 1-.54-2.08c-.07-.37-.12-.62-.17-.93l25.1-12.28h62.56l25 12.26z"/><circle class="cls-3" cx="67.5" cy="17.99" r="13.3"/><circle class="cls-4" cx="101.01" cy="69.23" r="12.28"/><circle class="cls-4" cx="33.99" cy="69.23" r="12.28"/><path class="cls-5" d="M91.91 7.28A46.43 46.43 0 0 0 70.23-.11L69-.17h-3l-1.15.05a46.43 46.43 0 0 0-21.72 7.4c-8 5.08-14.58 17.08-14.58 26.59v6.38l.5 22.69a13.62 13.62 0 0 0 .07 1.44c.73 7.11 6.24 12.66 13.55 12.66h49.7c7.3 0 12.81-5.55 13.54-12.66a13.59 13.59 0 0 0 .08-1.44l.5-23.06v-6c0-9.52-6.49-21.52-14.58-26.6z"/><path class="cls-3" d="M106.49 39.88v23.75a14.12 14.12 0 0 1-14.12 14.12h-49.7a14.1 14.1 0 0 1-14.12-14.12V39.88z"/><path class="cls-4" d="M101.26 36v57a12.17 12.17 0 0 1-12.18 12.17H45.93A12.17 12.17 0 0 1 33.76 93V35.86A18.34 18.34 0 0 1 52.2 17.52l30.8.18A18.34 18.34 0 0 1 101.26 36z"/><path class="cls-6" d="M63.2 50.41v6.87a8.95 8.95 0 0 1-8.94 8.94 8.94 8.94 0 0 1-8.95-8.94v-6.87a8.95 8.95 0 1 1 17.89 0z"/><rect class="cls-5" x="53.53" y="52.76" width="8.06" height="13.16" rx="4.03"/><path class="cls-6" d="M88.73 50.41v6.87a8.95 8.95 0 0 1-17.89 0v-6.87a8.95 8.95 0 1 1 17.89 0z"/><rect class="cls-5" x="72.53" y="52.76" width="8.06" height="13.16" rx="4.03"/><path class="cls-2" d="M49 62.29h12.7a8.95 8.95 0 0 1-14.29.7l.06-.07a2.17 2.17 0 0 1 1.53-.63zM86.85 62.75a8.93 8.93 0 0 1-14.47-.46h13.13a2.15 2.15 0 0 1 1.34.46z"/><path class="cls-5" d="M52.94 65.51H81a9 9 0 0 1 9 9v2.12a1.77 1.77 0 0 1-1.77 1.77H45.71a1.77 1.77 0 0 1-1.77-1.77V74.5a9 9 0 0 1 9-8.99z"/><path class="cls-4" d="M71.34 69.59h-8.11A3.56 3.56 0 0 1 60 64.65l4-9.48A3.64 3.64 0 0 1 67.29 53a3.64 3.64 0 0 1 3.34 2.21l4 9.48a3.56 3.56 0 0 1-3.29 4.9z"/><path class="cls-5" d="M44.62 50.45a4.5 4.5 0 1 1 0-9c2.27 0 10.2-2.44 13.68-5.16a4.5 4.5 0 0 1 5.54 7.1c-4.84 3.8-14.65 7.06-19.22 7.06zM89.12 50.45c-4.27 0-13.23-2.17-18.27-6.1a4.5 4.5 0 1 1 5.54-7.1c3.29 2.57 10.21 4.2 12.73 4.2a4.5 4.5 0 0 1 0 9z"/><path class="cls-3" d="M44.87 123.86l-.23.11H31.78L11.5 102.23l-.48-.51-.07-.08L1.3 91.29a4.82 4.82 0 0 1 7.05-6.58L11 87.58 13.27 90l11.63 12.46z"/><path class="cls-4" d="M43.88 124a3.18 3.18 0 0 0 2.37-5.31l-6.61-7.37a28.82 28.82 0 0 0-14.73-8.85 28.63 28.63 0 0 0-6.8-.82H11l.07.08V107q0 .7.06 1.41c0 .35.07.7.12 1a16.91 16.91 0 0 0 3.28 7.83A16.94 16.94 0 0 0 25 123.7l.82.12c.41.05.82.09 1.24.11s.84 0 1.26 0z"/></g></svg>