<svg viewBox="0 0 135 124" version="1.1" xmlns="http://www.w3.org/2000/svg"><g stroke="none" stroke-width="1" fill="none" fill-rule="evenodd"><g transform="translate(1)"><g transform="translate(10 9)"><rect fill="#FFCA00" x="0" y="0" width="113" height="113" rx="17"/><path d="M111.44 9.93L9.92 111.45a16.94 16.94 0 0 0 7.08 1.56h41.32L113 58.33V17.01a16.94 16.94 0 0 0-1.56-7.08zM39.32 58.07l58-58c-.43 0-.87-.07-1.31-.07H47.42L14.34 33.09c-6.904 6.904-6.904 18.096 0 25s18.096 6.904 25 0l-.02-.02z" fill="#FFD900" fill-rule="nonzero"/><rect fill="#FFCA00" x="0" y="0" width="113" height="115" rx="17"/><path d="M111.44 9.93L9.92 111.45a16.94 16.94 0 0 0 7.08 1.56h41.32L113 58.33V17.01a16.94 16.94 0 0 0-1.56-7.08zM39.32 58.07l58-58c-.43 0-.87-.07-1.31-.07H47.42L14.34 33.09c-6.904 6.904-6.904 18.096 0 25s18.096 6.904 25 0l-.02-.02z" fill="#FFD900" fill-rule="nonzero"/></g><g transform="rotate(13 -157.761 165.436)"><rect fill="#FFB100" transform="rotate(60 53.577 42)" x="35.077" y="-9" width="37" height="102" rx="3"/><rect fill="#FFB100" transform="rotate(60 43.564 35.657)" x="41.564" y="-5.843" width="4" height="83" rx="2"/><rect fill="#F89700" transform="rotate(60 47.588 42.465)" x="45.588" y="1.465" width="4" height="82" rx="2"/><path d="M87.595 29.76l6 10.392-27.712 16-6-10.392a3 3 0 0 1 1.098-4.099l22.516-13a3 3 0 0 1 4.098 1.099z" fill="#F89700"/><rect fill="#F89700" transform="rotate(60 36 58.465)" x="34" y="35.465" width="4" height="46" rx="2"/><rect fill="#F89700" transform="rotate(60 39.754 64.715)" x="37.754" y="41.715" width="4" height="46" rx="2"/><rect fill="#F89700" transform="rotate(-30 93.06 19.693)" x="90.06" y="4.693" width="6" height="30" rx="3"/></g><path d="M54.207 2.372l64.086 37a2 2 0 0 1 .732 2.732l-42.5 73.612a5 5 0 0 1-6.83 1.83l-61.488-35.5a2 2 0 0 1-.732-2.732l44-76.21a2 2 0 0 1 2.732-.732z" fill="#FFF1A2"/><path d="M54.207 2.372l61.415 35.468a2 2 0 0 1 .74 2.72l-3.663 6.446L49.692 10.17a2 2 0 0 1-.722-2.727l2.505-4.34a2 2 0 0 1 2.732-.731z" fill="#FFB100"/><g transform="translate(.282 .977)"><rect fill="#FFF1A2" transform="rotate(30 55.968 58)" x="16.968" y="14" width="78" height="88" rx="2"/><rect fill="#FFC800" transform="rotate(30 42.5 32.327)" x="32" y="30.827" width="21" height="3" rx="1.5"/><rect fill="#FFC800" transform="rotate(30 40 36.657)" x="29.5" y="35.157" width="21" height="3" rx="1.5"/><rect fill="#FFC800" transform="rotate(30 22 67.834)" x="11.5" y="66.334" width="21" height="3" rx="1.5"/><rect fill="#FFC800" transform="rotate(30 19.5 72.164)" x="9" y="70.664" width="21" height="3" rx="1.5"/><rect fill="#FFC800" transform="rotate(30 27 59.173)" x="16.5" y="57.673" width="21" height="3" rx="1.5"/><rect fill="#FFC800" transform="rotate(30 24.5 63.504)" x="14" y="62.004" width="21" height="3" rx="1.5"/><rect fill="#FFC800" transform="rotate(30 68.65 37.032)" x="58.151" y="35.532" width="21" height="3" rx="1.5"/><rect fill="#FFC800" transform="rotate(30 66.15 41.363)" x="55.651" y="39.863" width="21" height="3" rx="1.5"/><rect fill="#FFC800" transform="rotate(30 59.65 52.62)" x="49.151" y="51.121" width="21" height="3" rx="1.5"/><rect fill="#FFC800" transform="rotate(30 57.15 56.951)" x="46.651" y="55.451" width="21" height="3" rx="1.5"/><path d="M47.606 55.482l15.589 9a1.5 1.5 0 1 1-1.5 2.598l-15.589-9a1.5 1.5 0 1 1 1.5-2.598zM45.106 59.812l15.589 9a1.5 1.5 0 1 1-1.5 2.598l-15.589-9a1.5 1.5 0 1 1 1.5-2.598zM79.891 47.563l15.588 9a1.5 1.5 0 1 1-1.5 2.599l-15.588-9a1.5 1.5 0 1 1 1.5-2.599z" fill="#FFC800"/><rect fill="#FFC800" transform="rotate(30 81.935 62.023)" x="71.435" y="60.523" width="21" height="3" rx="1.5"/><path d="M66.391 70.946l15.588 9a1.5 1.5 0 1 1-1.5 2.598l-15.588-9a1.5 1.5 0 1 1 1.5-2.598zM63.891 75.276l15.588 9a1.5 1.5 0 1 1-1.5 2.598l-15.588-9a1.5 1.5 0 0 1 1.5-2.598zM59.891 82.204l15.588 9a1.5 1.5 0 1 1-1.5 2.599l-15.588-9a1.5 1.5 0 1 1 1.5-2.599zM57.391 86.535l15.588 9a1.5 1.5 0 1 1-1.5 2.598l-15.588-9a1.5 1.5 0 1 1 1.5-2.598zM54.891 90.865l15.588 9a1.5 1.5 0 1 1-1.5 2.598l-15.588-9a1.5 1.5 0 1 1 1.5-2.598z" fill="#FFC800"/><rect fill="#FFC800" transform="rotate(30 63.65 45.693)" x="53.151" y="44.193" width="21" height="3" rx="1.5"/><path d="M41.106 66.74l15.589 9a1.5 1.5 0 1 1-1.5 2.598l-15.589-9a1.5 1.5 0 1 1 1.5-2.598zM38.606 71.07l15.589 9a1.5 1.5 0 1 1-1.5 2.599l-15.589-9a1.5 1.5 0 1 1 1.5-2.598zM36.106 75.4l15.589 9a1.5 1.5 0 1 1-1.5 2.599l-15.589-9a1.5 1.5 0 1 1 1.5-2.598zM29.133 37.773l15.589 9a1.5 1.5 0 1 1-1.5 2.598l-15.589-9a1.5 1.5 0 1 1 1.5-2.598zM26.633 42.104l15.589 9a1.5 1.5 0 1 1-1.5 2.598l-15.589-9a1.5 1.5 0 1 1 1.5-2.598z" fill="#FFC800"/><rect fill="#FFC800" transform="rotate(30 31.178 52.233)" x="20.678" y="50.733" width="21" height="3" rx="1.5"/><path d="M82.391 43.233l15.588 9a1.5 1.5 0 1 1-1.5 2.598l-15.588-9a1.5 1.5 0 1 1 1.5-2.598z" fill="#FFC800"/></g><rect fill="#FFB100" transform="rotate(30 74.433 28.483)" x="48.933" y="22.983" width="51" height="11" rx="2"/><rect fill="#FFB100" transform="rotate(30 46.282 27.241)" x="35.782" y="23.741" width="21" height="7" rx="1"/><rect fill="#FFB100" transform="rotate(30 77.218 71.66)" x="66.718" y="68.16" width="21" height="7" rx="1"/><rect fill="#FFB100" transform="rotate(30 37 92.319)" x="1" y="89.819" width="72" height="5" rx="1"/><rect fill="#FFC800" transform="rotate(30 84.718 58.67)" x="74.218" y="57.169" width="21" height="3" rx="1.5"/><rect fill="#FFB100" transform="rotate(30 93.617 76)" x="91.617" y="33" width="4" height="86" rx="2"/><path d="M95.94 51.851C93.946 47.232 89.35 44 84 44c-7.18 0-13 5.82-13 13s5.82 13 13 13c5.389 0 10.012-3.279 11.983-7.95" stroke="#E27903" stroke-width="4" stroke-linecap="round"/></g><path stroke="#E27903" stroke-width="3.6" stroke-linecap="round" stroke-linejoin="round" d="M16 72.816l25.31-11.632M34.155 80l-12-25"/></g></svg>