<svg viewBox="0 0 135 124" fill="none" xmlns="http://www.w3.org/2000/svg"><path d="M11 28c0-9.389 7.611-17 17-17h79c9.389 0 17 7.611 17 17v79c0 9.389-7.611 17-17 17H28c-9.389 0-17-7.611-17-17V28z" fill="#E5E5E5"/><path d="M128.284 40.435c-3.449 17.557-20.478 28.995-38.036 25.546-17.557-3.449-28.995-20.478-25.546-38.035C68.15 10.388 85.179-1.05 102.737 2.399c17.558 3.449 28.995 20.478 25.547 38.036z" fill="#9F9F9F"/><path d="M87.139 27.331l1.144 2.936 33.923-15.788a32.69 32.69 0 0 0-2.11-2.486L87.139 27.331z" fill="#979797"/><path d="M74.907 33.03l24.01-11.175 17.998 19.426-6.036 30.727-42.007-8.25 6.035-30.729z" fill="#D1D1D1"/><path d="M78.712 37.72a7.498 7.498 0 1 1 14.714 2.89l-.983 5.004a7.498 7.498 0 0 1-14.714-2.89l.983-5.005z" fill="#fff"/><path d="M84.7 39.748a3.105 3.105 0 0 0 3.703-3.078 3.459 3.459 0 0 1 3.142 4.117l-.837 4.262a3.459 3.459 0 0 1-6.788-1.333l.78-3.968z" fill="#979797"/><path fill-rule="evenodd" clip-rule="evenodd" d="M105.019 20.898c4.725 1.085 6 5.404 6.017 7.51a1.637 1.637 0 1 0 3.275-.026c-.022-2.85-1.716-9.105-8.559-10.677a1.638 1.638 0 0 0-.733 3.193zM91.998 22.502c-4.658-1.345-7.87 1.813-8.906 3.646a1.638 1.638 0 0 1-2.852-1.613c1.403-2.48 5.921-7.127 12.666-5.18a1.638 1.638 0 0 1-.909 3.147z" fill="#979797"/><path d="M72.521 51.377l1.152-5.866c3.498-.297 7.867.762 11.83 3.194l1.299.797c2.082 1.278 3.786 2.788 5.02 4.363l-.968 4.928-5.343-1.05-12.99-6.367z" fill="#D1D1D1"/><path fill-rule="evenodd" clip-rule="evenodd" d="M57.243 62.346c3.494-9.376 13.928-14.145 23.304-10.65l2.62.976a140.276 140.276 0 0 0 21.95 6.201l.401.079c9.819 1.928 16.215 11.451 14.286 21.27-1.928 9.818-11.451 16.215-21.27 14.286l-.401-.079a176.514 176.514 0 0 1-27.62-7.803l-2.62-.976c-9.376-3.494-14.144-13.928-10.65-23.304z" fill="#9F9F9F"/><path d="M97.94 55.656a5.556 5.556 0 1 1-10.903-2.141c.59-3.011 3.597-2.148 6.522-4.381a5.555 5.555 0 0 1 4.38 6.522z" fill="#D1D1D1"/><path d="M74.975 57.857a1.25 1.25 0 0 1 1.814-.615l2.337 1.42a47.538 47.538 0 0 0 15.433 6.005l2.683.533a1.25 1.25 0 0 1 .921 1.678l-1.38 3.547c-2.49 6.403-9.701 9.575-16.104 7.083-6.403-2.49-9.575-9.701-7.084-16.104l1.38-3.547z" fill="#979797"/><path d="M88.805 77.818a12.387 12.387 0 0 1-8.127-.31 12.413 12.413 0 0 1-7.232-7.485 11.877 11.877 0 0 1 4.88-.634c5.038.395 9.098 3.868 10.48 8.43z" fill="#B2B2B2"/><path d="M96.455 71.192a59.067 59.067 0 0 1-7.772-2.424A58.572 58.572 0 0 1 73.97 60.44l1.006-2.584a1.25 1.25 0 0 1 1.814-.615l2.337 1.42a47.542 47.542 0 0 0 15.433 6.005l2.683.532a1.25 1.25 0 0 1 .92 1.68l-1.379 3.546c-.102.26-.211.517-.328.767zM111.62 44.183a7.498 7.498 0 0 0-14.714-2.89l-.983 5.004a7.497 7.497 0 1 0 14.714 2.89l.983-5.004z" fill="#fff"/><path d="M98.521 42.462a3.105 3.105 0 0 0 3.703-3.078 3.459 3.459 0 0 1 3.143 4.117l-.838 4.263a3.458 3.458 0 1 1-6.788-1.333l.78-3.969zM115.012 101.08c-.438.075-.707.634-.601 1.248l.979 5.683c.105.614.546 1.051.983.976l2.71-.466c.437-.076.706-.635.6-1.249l-.077-.451 10.899-1.051c.689-.066 1.129-.925.964-1.882l-.559-3.25c-.165-.957-.867-1.619-1.538-1.451l-10.624 2.655-.043-.253c-.106-.614-.546-1.051-.984-.976l-2.709.467zM73.635 108.204c.438-.075.878.362.984.976l.978 5.683c.106.614-.163 1.173-.6 1.249l-2.71.466c-.437.076-.878-.361-.984-.976l-.077-.451-10.623 2.655c-.672.168-1.374-.494-1.538-1.451l-.56-3.25c-.165-.956.276-1.815.964-1.882l10.9-1.05-.044-.253c-.106-.615.163-1.174.6-1.249l2.71-.467z" fill="#979797"/><path d="M72.114 104.752a1.534 1.534 0 0 1 1.252-1.773l40.075-6.9a1.535 1.535 0 0 1 1.773 1.252l2.681 15.573a1.534 1.534 0 0 1-1.252 1.773l-40.075 6.9a1.535 1.535 0 0 1-1.773-1.252l-2.681-15.573z" fill="#9F9F9F"/><path d="M78.848 106.753a1.614 1.614 0 0 1 1.317-1.864l28.296-4.872a1.614 1.614 0 1 1 .548 3.181l-28.296 4.872a1.614 1.614 0 0 1-1.865-1.317z" fill="#D1D1D1"/><path d="M6.43 73.415c-6.044-8.72-3.875-20.69 4.846-26.734l9.178-6.36c8.72-6.044 20.69-3.874 26.733 4.846 6.044 8.72 3.874 20.69-4.846 26.734l-9.178 6.36c-8.72 6.044-20.69 3.874-26.734-4.846z" fill="#9F9F9F"/><path d="M6.255 68.332c-4.87-7.028-3.122-16.675 3.906-21.546l10.781-7.471c7.028-4.871 16.675-3.123 21.545 3.906 4.871 7.028 3.123 16.674-3.906 21.545l-10.78 7.472c-7.028 4.87-16.675 3.122-21.546-3.906z" fill="#D1D1D1"/><path d="M29.705 65.867a3.627 3.627 0 0 1 7.254.002l-.002 5.31a3.627 3.627 0 1 1-7.254-.002l.002-5.31z" fill="#D1D1D1"/><path d="M34.47 61.006a3.414 3.414 0 1 1 6.827.002v5.828a3.414 3.414 0 0 1-6.827-.002v-5.828z" fill="#D1D1D1"/><path d="M15.44 50.776a4.86 4.86 0 0 0 5.536 7.987l4.289-2.972.01-.007 3.423-2.372a1.38 1.38 0 1 0-1.572-2.268l-3.423 2.372a1.62 1.62 0 1 1-1.845-2.663l3.422-2.372a4.62 4.62 0 1 1 5.263 7.593l-1.344.932-.01.007-6.368 4.413a8.099 8.099 0 1 1-9.226-13.313l.61-.423a.79.79 0 0 1 .012-.008l7.653-5.304c5.452-3.778 12.934-2.422 16.713 3.03 3.778 5.452 2.422 12.935-3.03 16.713l-8.389 5.814a14.589 14.589 0 0 1-12.518 1.978l-.37-.111a1.62 1.62 0 1 1 .935-3.102l.37.111a11.35 11.35 0 0 0 9.738-1.539l8.389-5.814a8.77 8.77 0 1 0-9.993-14.417l-.447.31a1.145 1.145 0 0 1-.011.007l-7.817 5.418z" fill="#9F9F9F"/><path d="M26.249 100.5l25.843 7.772-6.233 11.182a3.306 3.306 0 0 1-3.838 1.556l-14.003-4.212a3.305 3.305 0 0 1-2.35-3.312l.58-12.986z" fill="#D1D1D1"/><path d="M28.148 98.301c1.087-3.615 4.906-5.662 8.521-4.575 3.615 1.088 5.672 4.902 4.584 8.517-1.087 3.615-4.906 5.662-8.521 4.575-3.615-1.088-5.671-4.902-4.584-8.517z" fill="#B2B2B2"/><path d="M38.615 101.449c1.087-3.615 4.906-5.662 8.521-4.575 3.615 1.088 5.671 4.902 4.584 8.517-1.087 3.615-4.906 5.662-8.521 4.575-3.615-1.088-5.671-4.902-4.584-8.517z" fill="#B2B2B2"/><path d="M27.28 92.528c2.354-7.828 10.608-12.266 18.437-9.911 7.828 2.354 12.266 10.609 9.911 18.437a6.69 6.69 0 0 1-8.332 4.48l-15.538-4.673a6.69 6.69 0 0 1-4.479-8.333z" fill="#B2B2B2"/><path d="M22.7 95.275a4.674 4.674 0 0 1 5.823-3.13l26.282 7.904a4.675 4.675 0 0 1-2.693 8.953l-26.282-7.905a4.674 4.674 0 0 1-3.13-5.822zM33.231 118.365l-3.044-.915 1.152-6.953a1.577 1.577 0 0 1 3.11.515l-1.218 7.353zM39.999 120.401l-3.044-.916 3.04-6.805a1.576 1.576 0 0 1 2.878 1.286L40 120.401z" fill="#B2B2B2"/><path d="M47.234 92.348a1.427 1.427 0 1 1-1.956-2.078 1.427 1.427 0 0 1 1.956 2.078zM38.698 89.132a1.427 1.427 0 1 1 1.956 2.079 1.427 1.427 0 0 1-1.956-2.079zM44.489 87.85a1.427 1.427 0 1 1-1.956-2.078 1.427 1.427 0 0 1 1.956 2.079z" fill="#979797"/><path d="M47.098 36.78c-.839.233-1.825.03-2.96-.608L28.684 27.91c-3.617-1.44-6.42-4.482-7.248-8.415-1.355-6.433 3.088-12.814 9.924-14.254 2.11-.444 4.945-.027 8.509 1.25a1.603 1.603 0 0 1 1.059 1.616l-.268 4.038c-.028.418.109.83.38 1.148l2.64 3.089c.31.363.442.847.36 1.318l-.962 5.489c-.079.451.04.915.324 1.273l3.317 4.178c.212.267.333.595.346.935l.268 6.883a.32.32 0 0 1-.235.322z" fill="#D1D1D1"/><path fill-rule="evenodd" clip-rule="evenodd" d="M26.673 12.223a2.002 2.002 0 0 1 1.58 2.35c-.367 1.872-.132 3.797.777 5.52a2.002 2.002 0 0 1-3.54 1.869c-1.366-2.586-1.697-5.451-1.167-8.16a2.002 2.002 0 0 1 2.35-1.579z" fill="#F7F7F7"/><path d="M51.309 35.56c.318-.238.64-.576.968-1.014l10.81-13.792c2.728-2.777 4.067-6.69 3.24-10.624-1.355-6.432-7.995-10.48-14.831-9.04-2.27.477-4.71 2.166-7.32 5.064a.962.962 0 0 0-.24.528l-.574 4.714c-.072.59.133 1.18.554 1.598l2.67 2.655c.46.456.659 1.114.53 1.748l-1.051 5.159a1.924 1.924 0 0 0 .31 1.488l2.866 4.094c.215.306.335.668.347 1.042l.181 5.642a.962.962 0 0 0 1.54.738z" fill="#D1D1D1"/></svg>