<svg viewBox="0 0 135 124" fill="none" xmlns="http://www.w3.org/2000/svg"><path d="M11 28c0-9.389 7.611-17 17-17h79c9.389 0 17 7.611 17 17v79c0 9.389-7.611 17-17 17H28c-9.389 0-17-7.611-17-17V28z" fill="#FF7878"/><path fill-rule="evenodd" clip-rule="evenodd" d="M7.98 31.395C9.754 15.586 23.123 3.634 39.032 3.634c15.384 0 28.48 11.198 30.867 26.396l7.42 47.23a1.585 1.585 0 0 1-1.565 1.832H4.4c-.945 0-1.68-.822-1.575-1.762L7.98 31.395z" fill="#A570FF"/><path fill-rule="evenodd" clip-rule="evenodd" d="M60.527 37.172a6.024 6.024 0 0 1 6.024-6.024H68.9a6.024 6.024 0 0 1 0 12.048H66.55a6.024 6.024 0 0 1-6.024-6.024z" fill="#FFC6B7"/><path d="M30.325 10.891c-7.876 3.694-13.702 11.16-15.008 20.259l-4.036 28.1c-.614 4.28 2.706 8.11 7.03 8.11h45.888c4.128 0 7.337-3.591 6.874-7.693l-3.13-27.723a26.578 26.578 0 0 0-1.28-5.68H49.216c-9.311 0-17.082-6.598-18.892-15.373z" fill="#FFC6B7"/><path fill-rule="evenodd" clip-rule="evenodd" d="M57.94 28.83c0-.561-.455-1.016-1.016-1.016H50.28a8.311 8.311 0 0 0-8.311 8.311v6.863a3.895 3.895 0 0 0 3.895 3.896h3.765a8.311 8.311 0 0 0 8.31-8.311V28.83z" fill="#fff"/><path d="M43.205 31.761H57.94v-2.93c0-.562-.455-1.017-1.016-1.017H50.28a8.305 8.305 0 0 0-7.075 3.947z" fill="#A570FF"/><path fill-rule="evenodd" clip-rule="evenodd" d="M23.967 28.83c0-.561.455-1.016 1.016-1.016h6.644a8.311 8.311 0 0 1 8.31 8.311v6.694a4.065 4.065 0 0 1-4.064 4.065h-3.595a8.311 8.311 0 0 1-8.311-8.311V28.83z" fill="#fff"/><path d="M38.701 31.761H23.967v-2.93c0-.562.455-1.017 1.016-1.017h6.644c2.99 0 5.61 1.578 7.074 3.947z" fill="#A570FF"/><path fill-rule="evenodd" clip-rule="evenodd" d="M40.79 48.722a3.209 3.209 0 0 0 3.218-3.2c0-1.766-3.218-5.945-3.218-5.945s-3.218 4.179-3.218 5.946c0 1.767 1.44 3.2 3.218 3.2zM36.978 55.467a.883.883 0 0 1 1.247-.063c.3.27.473.3.567.301.137.004.324-.045.681-.211.09-.042.187-.09.293-.143.668-.331 1.654-.82 2.975-.8.856.014 1.436.261 1.827.428.088.037.166.07.235.096.318.117.74.231 1.836-.04.673-.167 1.103-.515 1.646-.956l.075-.06c.561-.454 1.305-1.039 2.45-1.023 2.386.032 3.558-.493 4.07-1.564a.883.883 0 1 1 1.594.762c-.994 2.08-3.183 2.602-5.687 2.569-.461-.007-.767.186-1.316.63l-.112.09c-.52.425-1.228 1.002-2.294 1.266-1.383.343-2.173.242-2.873-.016-.164-.06-.298-.116-.417-.166-.349-.146-.577-.241-1.062-.249-.864-.013-1.453.273-2.12.598-.12.059-.245.12-.373.18-.39.18-.896.39-1.47.376-.619-.015-1.18-.279-1.709-.757a.883.883 0 0 1-.063-1.248z" fill="#EE9583"/><path d="M58.626 78.993c0-20.236 16.405-36.64 36.641-36.64 20.236 0 36.641 16.404 36.641 36.64v3.944c0 20.236-16.405 36.641-36.64 36.641-20.237 0-36.642-16.405-36.642-36.641v-3.944z" fill="#FFB7E3"/><path d="M99.177 108.792c-6.449 2.608-14.658 4.011-25.12 3.233a1.72 1.72 0 0 0-.864.16 36.606 36.606 0 0 0 5.62 3.499c12.094.139 21.246-2.685 28.148-6.986 7.812-4.868 12.603-11.54 15.526-17.623.152-.316.199-.655.155-.978-3.707 9.911-12.652 17.265-23.465 18.695z" fill="#FF9BD8"/><path fill-rule="evenodd" clip-rule="evenodd" d="M66.151 79.88c0-16.107 13.058-29.165 29.165-29.165 16.108 0 29.165 13.057 29.165 29.165 0 16.107-13.057 29.165-29.165 29.165-16.107 0-29.165-13.058-29.165-29.165z" fill="#E18E70"/><path fill-rule="evenodd" clip-rule="evenodd" d="M84.609 85.675a123.171 123.171 0 0 0-4.116-2.13 6.669 6.669 0 0 1-1.345-.643c-.07-.039-.132-.08-.186-.12a6.688 6.688 0 0 1 3.766-12.246c4.392.03 8.21 1.994 10.96 5.524a6.685 6.685 0 0 1-1.17 9.386 6.69 6.69 0 0 1-6.525.96l.009.03s-.061-.035-.174-.096a6.66 6.66 0 0 1-1.22-.665z" fill="#fff"/><path d="M104.203 76.318c4.435 0 8.263-.994 10.042-2.431a6.66 6.66 0 0 1 .89 3.292 6.652 6.652 0 0 1-.664 2.952 31.546 31.546 0 0 0-5.786.674c-3.147.67-6.846 1.992-10.176 4.56a6.685 6.685 0 0 1-1.068-9.305c.134-.172.27-.34.41-.505 1.8.481 3.99.763 6.352.763z" fill="#fff"/><path d="M111.575 55.663c-6.549 6.681-18.353 18.198-39.855 17.465a10.229 10.229 0 0 1-1.545-.185 11.286 11.286 0 0 1-2.016-.351c-4.703-1.266-8.017-5.39-8.268-10.135-.053-.988.648-1.591 1.602-1.334l2.702.696c.099.022.201.046.308.072 5.429 1.313 8.233-1.106 10.765-3.29.358-.309.71-.612 1.062-.9.092-.075.186-.14.28-.197a29.047 29.047 0 0 1 18.706-6.79c6.02 0 11.614 1.825 16.259 4.95zM48.467 34.38a2.768 2.768 0 0 0 3.54 3.804v2.656a3.585 3.585 0 1 1-7.171 0v-2.875a3.585 3.585 0 0 1 3.63-3.585zM34.13 34.394a2.768 2.768 0 0 0 3.267 3.89v2.556a3.585 3.585 0 1 1-7.17 0v-2.875a3.585 3.585 0 0 1 3.903-3.571z" fill="#3D3D3D"/><path fill-rule="evenodd" clip-rule="evenodd" d="M9.482 35.853c0-8.59 3.513-16.84 9.687-22.813l9.163-3.808c1.253-.52 2.633.4 2.633 1.757v57.958c0 .875-.71 1.585-1.586 1.585H11.384a1.902 1.902 0 0 1-1.902-1.902V35.853z" fill="#A570FF"/><path d="M83.73 77.689c.411.257.897.405 1.417.405a2.69 2.69 0 0 0 2.686-2.694c0-.531-.153-1.027-.419-1.445a4.436 4.436 0 0 1 5.142 4.38v2.137a4.436 4.436 0 1 1-8.873 0v-2.136c0-.22.016-.436.047-.647zM99.078 78.094a2.69 2.69 0 0 0 2.564-1.89c.822.075 1.679.114 2.561.114a28.3 28.3 0 0 0 2.907-.147c.359.64.563 1.379.563 2.165v2.136c0 .196-.012.388-.037.577-2.256.567-4.729 1.48-7.113 2.933a4.43 4.43 0 0 1-1.722-3.51v-2.136c0-.086.002-.171.007-.256.088.009.179.014.27.014z" fill="#3D3D3D"/><path fill-rule="evenodd" clip-rule="evenodd" d="M95.466 91.42c1.52 0 2.753-1.243 2.753-2.776 0-1.533-2.753-5.159-2.753-5.159s-2.753 3.626-2.753 5.16c0 1.532 1.233 2.775 2.753 2.775z" fill="#9E4D31"/><path d="M100.604 91.428c-5.084 1.274-8.463 5.864-8.408 10.885.016 1.443 1.47 2.301 2.87 1.951l16.474-4.128c1.399-.351 2.277-1.794 1.61-3.074-2.319-4.453-7.462-6.908-12.546-5.634z" fill="#B23131"/><path d="M102.507 94.992c-3.674.92-5.871 4.787-4.907 8.637l13.306-3.335c-.964-3.849-4.725-6.223-8.399-5.302z" fill="#FF4B4B"/><path d="M32.485 67.36h15.047v11.72H32.485V67.36z" fill="#593F86"/><path d="M46.862 6.294a4.6 4.6 0 0 0 0 6.503l6.968 6.967 6.734-6.735a4.597 4.597 0 1 0-6.502-6.503l-.232.233-.465-.465a4.599 4.599 0 0 0-6.503 0z" fill="#FFB7E3"/></svg>