<svg viewBox="0 0 135 124" fill="none" xmlns="http://www.w3.org/2000/svg"><path d="M11 28c0-9.389 7.611-17 17-17h79c9.389 0 17 7.611 17 17v79c0 9.389-7.611 17-17 17H28c-9.389 0-17-7.611-17-17V28z" fill="#FFAADE"/><path d="M61.585 19.743h-.864A7.194 7.194 0 0 1 53.695 11h52.372c.109.5.167 1.018.167 1.55a7.18 7.18 0 0 1-2.778 5.679h6.495a8.33 8.33 0 1 1 0 16.659H66.375a8.33 8.33 0 0 1-4.79-15.145zM12.551 114.104h43.491c2.447 0 4.874-.858 6.427-2.635 2.394-2.741 3.779-6.132 3.779-9.903v-9.757a12.5 12.5 0 0 0-1.003-4.921A6.436 6.436 0 0 0 59.811 77H27.508a6.436 6.436 0 0 0-1.732 12.637l5.432.236a4.922 4.922 0 1 1 0 9.844H11V107c0 2.536.555 4.942 1.551 7.104z" fill="#CE82FF"/><path d="M103.353 37.384h-.002a2.626 2.626 0 1 1 .781-5.195h.002a2.626 2.626 0 1 1-.781 5.195zM27.117 110.161h-.002a2.627 2.627 0 1 1 .781-5.195h.002a2.628 2.628 0 0 1-.78 5.195z" fill="#fff"/><path opacity=".432" d="M86.274 42.405a1.501 1.501 0 0 1 .446-2.968 1.5 1.5 0 1 1-.446 2.968z" fill="#fff"/><path d="M68.445 20.686h-.001a1.501 1.501 0 0 1 .446-2.968h.001a1.501 1.501 0 0 1-.446 2.968zM109.276 91.4h-.001a1.5 1.5 0 1 1 .446-2.97h.001a1.5 1.5 0 1 1-.446 2.97zM72.287 120.022h-.001a1.502 1.502 0 0 1 .446-2.969h.001a1.501 1.501 0 0 1-.446 2.969zM37.431 89.293a1.501 1.501 0 1 1 .446-2.97v.001a1.5 1.5 0 1 1-.446 2.969z" fill="#fff"/><path opacity=".432" d="M37.29 105.62l-.001-.001a1.5 1.5 0 1 1 .446-2.968h.001a1.501 1.501 0 0 1-.446 2.969z" fill="#fff"/><path d="M128.918 12.698l-50.94-5.916a2.675 2.675 0 0 0-2.967 2.349L70.81 45.305a2.675 2.675 0 0 0 2.349 2.966l50.94 5.917a2.675 2.675 0 0 0 2.966-2.35l4.202-36.173a2.676 2.676 0 0 0-2.349-2.967z" fill="#5C5B5B"/><path fill-rule="evenodd" clip-rule="evenodd" d="M77.918 7.295a2.16 2.16 0 0 0-2.394 1.896l-4.202 36.174a2.16 2.16 0 0 0 1.896 2.394l50.941 5.916a2.16 2.16 0 0 0 2.394-1.896l4.201-36.174a2.16 2.16 0 0 0-1.896-2.394l-50.94-5.916zm-3.42 1.776a3.191 3.191 0 0 1 3.539-2.801l50.94 5.916a3.192 3.192 0 0 1 2.802 3.538l-4.201 36.174a3.192 3.192 0 0 1-3.538 2.802L73.1 48.784a3.191 3.191 0 0 1-2.803-3.538L74.5 9.07z" fill="#D2E4E8"/><path fill-rule="evenodd" clip-rule="evenodd" d="M77.918 7.295a2.16 2.16 0 0 0-2.394 1.896l-4.202 36.174a2.16 2.16 0 0 0 1.896 2.394l50.941 5.916a2.16 2.16 0 0 0 2.394-1.896l4.201-36.174a2.16 2.16 0 0 0-1.896-2.394l-50.94-5.916zm-3.42 1.776a3.191 3.191 0 0 1 3.539-2.801l50.94 5.916a3.192 3.192 0 0 1 2.802 3.538l-4.201 36.174a3.192 3.192 0 0 1-3.538 2.802L73.1 48.784a3.191 3.191 0 0 1-2.803-3.538L74.5 9.07z" fill="#D2E4E8"/><path d="M125.471 15.818l-45.298-5.26a1.338 1.338 0 0 0-1.483 1.174l-3.703 31.885A1.338 1.338 0 0 0 76.16 45.1l45.298 5.261a1.337 1.337 0 0 0 1.483-1.174l3.704-31.886a1.338 1.338 0 0 0-1.175-1.483z" fill="#1CB0F6"/><path d="M110.679 19.785l-26.205-3.043a1.338 1.338 0 0 0-1.483 1.174L80.573 38.73a1.338 1.338 0 0 0 1.175 1.483l26.205 3.044a1.339 1.339 0 0 0 1.483-1.175l2.417-20.814a1.338 1.338 0 0 0-1.174-1.483z" fill="#fff"/><path d="M111.339 25.696l-28.863-3.352.515-4.428c.085-.734.749-1.26 1.483-1.174l26.205 3.043c.733.085 1.259.75 1.174 1.483l-.514 4.428z" fill="#E1E1E1"/><path d="M89.927 38.682l2.453.283-.283 2.452-2.452-.282.282-2.453z" fill="#EBEBEB"/><path d="M119.904 20.85L93.7 17.807a1.338 1.338 0 0 0-1.484 1.174L89.8 39.795a1.338 1.338 0 0 0 1.175 1.483l26.204 3.044a1.339 1.339 0 0 0 1.484-1.175l2.417-20.814a1.338 1.338 0 0 0-1.175-1.483z" fill="#EBEBEB"/><path opacity=".507" d="M120.565 26.762L91.702 23.41l.514-4.429c.086-.734.75-1.26 1.484-1.174l26.204 3.043c.734.085 1.26.75 1.175 1.483l-.514 4.429z" fill="#D8D8D8"/><rect x="94.146" y="26.192" width="23.37" height="12.686" rx="1" transform="rotate(6.648 94.146 26.192)" fill="#FFAADE"/><rect x="83.595" y="23.69" width="6.831" height="4.499" rx="1" transform="rotate(6.648 83.595 23.69)" fill="#FFBC00"/><rect x="82.969" y="29.068" width="6.831" height="4.499" rx="1" transform="rotate(6.648 82.969 29.068)" fill="#1CB0F6"/><path d="M82.222 35.475a1 1 0 0 1 1.11-.877l4.798.559a1 1 0 0 1 .878 1.109l-.29 2.482a1 1 0 0 1-1.109.878l-4.798-.56a1 1 0 0 1-.878-1.109l.29-2.482z" fill="#FFAADE"/><path d="M85.478 21.041a1.34 1.34 0 0 0 1.487-1.174 1.34 1.34 0 0 0-1.178-1.483 1.34 1.34 0 0 0-1.487 1.174 1.34 1.34 0 0 0 1.178 1.483z" fill="#FF4B4B"/><path d="M89.03 21.454a1.34 1.34 0 0 0 1.486-1.174 1.34 1.34 0 0 0-1.177-1.483 1.34 1.34 0 0 0-1.487 1.174 1.34 1.34 0 0 0 1.178 1.483z" fill="#FFBC00"/><path d="M92.583 21.866a1.34 1.34 0 0 0 1.486-1.173 1.34 1.34 0 0 0-1.178-1.484 1.34 1.34 0 0 0-1.486 1.174 1.34 1.34 0 0 0 1.178 1.483z" fill="#5ABB1A"/><path fill-rule="evenodd" clip-rule="evenodd" d="M65.694 46.129l66.163 7.684c.245.028.42.25.391.494l-.18 1.55a2.005 2.005 0 0 1-2.224 1.761l-63.063-7.324a2.006 2.006 0 0 1-1.762-2.224l.18-1.55a.446.446 0 0 1 .495-.392z" fill="#D2E4E8"/><path opacity=".25" d="M74.862 7.917a3.193 3.193 0 0 1 3.174-1.648l50.941 5.917a3.192 3.192 0 0 1 2.802 3.538l-3.478 29.94L74.862 7.916z" fill="#fff"/><path d="M65.069 73.867c.861-9.93 9.61-17.282 19.54-16.42l10.41.903c9.93.861 17.282 9.61 16.421 19.54l-.036.408c-.861 9.93-9.61 17.283-19.54 16.421l-10.41-.903c-9.93-.862-17.282-9.61-16.42-19.54l.035-.409z" fill="#3D3D3D"/><path d="M63.464 96.901a5.402 5.402 0 0 0 1.841-.155c.525 8.376 7.108 15.335 15.723 16.082l26.85 2.33c8.643.749 16.349-5.012 18.277-13.216a5.411 5.411 0 1 0 .582-9.894c-1.121-7.746-7.445-13.99-15.579-14.696l-26.85-2.33c-8.102-.702-15.38 4.316-17.848 11.704A5.41 5.41 0 1 0 63.464 96.9z" fill="#FFCBA3"/><path d="M126.03 89.07l-9.05-.786a6.418 6.418 0 0 1-5.839-6.948l.343-3.953c6.91.73 12.465 5.465 14.546 11.686z" fill="#D6C6BA"/><path d="M66.612 97.567a2.607 2.607 0 1 1-5.195-.45 2.607 2.607 0 0 1 5.195.45z" fill="#C86902"/><path d="M98.003 87.464a6.016 6.016 0 0 1 6.514-5.473l.223.019a6.015 6.015 0 0 1 5.473 6.513l-.537 6.198a6.017 6.017 0 0 1-6.514 5.474l-.223-.02a6.015 6.015 0 0 1-5.473-6.513l.537-6.198zM95.753 87.269a6.016 6.016 0 0 0-5.474-6.514l-.223-.019a6.016 6.016 0 0 0-6.514 5.474l-.537 6.197a6.016 6.016 0 0 0 5.473 6.514l.223.02a6.016 6.016 0 0 0 6.514-5.474l.538-6.198z" fill="#fff"/><path d="M101.067 91.12a2.76 2.76 0 0 1 5.499.477l-.234 2.69a2.76 2.76 0 0 1-5.499-.477l.234-2.69zM95.46 90.633a2.76 2.76 0 1 0-5.5-.477l-.232 2.69a2.76 2.76 0 1 0 5.5.477l.233-2.69z" fill="#3D3D3D"/><path d="M83.003 92.426l12.21 1.06.002-.02.538-6.197a6.016 6.016 0 0 0-5.474-6.514l-.223-.019a6.016 6.016 0 0 0-6.513 5.474l-.538 6.197-.002.02zM97.464 93.68l12.21 1.06.002-.019.537-6.198a6.015 6.015 0 0 0-5.473-6.513l-.223-.02a6.016 6.016 0 0 0-6.514 5.474l-.537 6.198-.002.019z" fill="#E99B5F"/><path d="M64.932 75.447c.65-7.503 7.26-13.058 14.764-12.407l1.015.089c7.503.65 13.058 7.26 12.407 14.763l-.088 1.016c-.651 7.503-7.261 13.057-14.764 12.406l-1.016-.088c-7.502-.65-13.057-7.26-12.406-14.763l.088-1.016z" fill="#3D3D3D"/><path d="M96.213 95.566c.122.011 1.048 1.81 1.987 3.694.934 1.875-.555 4.032-2.642 3.851-2.087-.181-3.18-2.562-1.938-4.249 1.25-1.694 2.471-3.306 2.593-3.296z" fill="#E99B5F"/><path fill-rule="evenodd" clip-rule="evenodd" d="M104.872 105.681c1.148-.651 1.749-1.657 1.948-2.323a1.103 1.103 0 0 1 2.114.633c-.344 1.149-1.279 2.647-2.973 3.608-1.728.982-4.123 1.336-7.242.39a1.103 1.103 0 1 1 .64-2.111c2.648.803 4.4.435 5.513-.197z" fill="#E99B5F"/><path d="M18.336 28.057l33.738-2.866 1.753 20.642L20.09 48.7l-1.754-20.642z" fill="#3D3D3D"/><path d="M28.141 42.855c-3.922 4.433-10.695 4.848-15.129.926L9.167 40.38c-4.434-3.922-4.848-10.695-.927-15.128l3.804-4.3c3.922-4.434 10.696-4.849 15.13-.927l3.845 3.402c4.433 3.922 4.848 10.695.926 15.129l-3.804 4.3zM48.198 40.996c4.613 3.709 11.36 2.975 15.068-1.639l3.217-4.001c3.708-4.614 2.974-11.36-1.64-15.069l-4.474-3.596c-4.614-3.709-11.36-2.975-15.068 1.639l-3.217 4.001c-3.709 4.614-2.975 11.36 1.639 15.069l4.475 3.596z" fill="#3D3D3D"/><path d="M21.347 19.167c-.5-5.898 3.874-11.086 9.772-11.587l7.719-.656c5.898-.5 11.085 3.875 11.586 9.773l.543 6.386c.5 5.898-3.874 11.085-9.772 11.586l-7.718.656c-5.898.501-11.086-3.874-11.587-9.772l-.543-6.386z" fill="#3D3D3D"/><path d="M51.66 43.532a8.21 8.21 0 0 1 8.875 7.485l1.737 20.452c.451 5.308-3.487 9.977-8.795 10.428l-23.724 2.016a9.647 9.647 0 0 1-10.429-8.796l-1.737-20.451a8.21 8.21 0 0 1 7.485-8.876l26.587-2.258z" fill="#A46648"/><path d="M41.164 58.135a5.488 5.488 0 1 1 10.936-.93l.29 3.407a5.488 5.488 0 1 1-10.936.93l-.29-3.407z" fill="#fff"/><path d="M38.529 67.287a1.794 1.794 0 1 0 3.575-.303c-.084-.988-1.992-3.132-2.066-3.126-.075.006-1.593 2.442-1.51 3.43z" fill="#86401F"/><path d="M36.788 41.551a8.304 8.304 0 0 1 8.308-8.3l-.002 2.343a8.304 8.304 0 0 1-8.308 8.3l.002-2.343z" fill="#FDB02A"/><path d="M30.246 36.774a8.304 8.304 0 0 0 9.589 6.779l-.397-2.308a8.304 8.304 0 0 0-9.589-6.78l.397 2.309z" fill="#FDB02A"/><path d="M37.705 67.855a1.847 1.847 0 0 1 1.684-1.997l1.636-.139a1.847 1.847 0 1 1 .313 3.681l-1.636.14a1.847 1.847 0 0 1-1.997-1.685z" fill="#86401F"/><path d="M14.06 44.665l24.951-2.12.208 2.446-21.465 13.78-3.694-14.106z" fill="#FDB02A"/><path d="M62.122 40.582l-24.95 2.12.207 2.446 23.482 9.96 1.261-14.526z" fill="#FDB02A"/><path d="M65.912 59.268a4.895 4.895 0 1 1-9.756.829 4.895 4.895 0 0 1 9.756-.829zM23.124 63.104a4.895 4.895 0 1 1-9.756.83 4.895 4.895 0 0 1 9.756-.83z" fill="#A46648"/><path d="M42.517 59.193a1.98 1.98 0 0 0 1.36-3.23 2.429 2.429 0 0 1 3.413 2.012l.258 3.047a2.43 2.43 0 0 1-4.84.411l-.19-2.24z" fill="#3D3D3D"/><path fill-rule="evenodd" clip-rule="evenodd" d="M35.457 74.321a.596.596 0 0 1 .457.153l2.81 2.553a.596.596 0 1 1-.802.883l-2.325-2.114-1.847 2.46a.596.596 0 0 1-.954-.716l2.24-2.983c.101-.134.254-.22.42-.236z" fill="#884727"/><path d="M42.164 74.55l-13.17 1.118-.237-2.79c-.26-3.06 2.902-5.247 5.674-3.923l5.771 2.757a3.47 3.47 0 0 1 1.962 2.837zM27.198 57.89a5.493 5.493 0 0 0-.065 1.436l.17 2.016c3.23.838 6.953 1.923 10.582 3.201.38-.83.556-1.766.473-2.74l-.29-3.406a5.48 5.48 0 0 0-2.538-4.176 14.358 14.358 0 0 1-8.332 3.67z" fill="#fff"/><path d="M34.288 57.906a1.98 1.98 0 0 1-2.218 2.132l.194 2.283c.012.146.037.288.073.425 1.284.383 2.595.795 3.905 1.233.586-.49.932-1.25.862-2.07l-.259-3.047a2.43 2.43 0 0 0-3.077-2.134c.29.313.481.72.52 1.178z" fill="#3D3D3D"/></svg>