<svg viewBox="0 0 135 125" fill="none" xmlns="http://www.w3.org/2000/svg"><g clip-path="url(#clip0_302_3225)"><path d="M107 11.367H28c-9.389 0-17 7.611-17 17v79c0 9.389 7.611 17 17 17h79c9.389 0 17-7.611 17-17v-79c0-9.389-7.611-17-17-17z" fill="#6F4EA1"/><path d="M73.52 28.283h.002a7.547 7.547 0 0 1 7.545-7.384h35.559a7.547 7.547 0 0 1 7.545 7.384h.002v34.765a2.611 2.611 0 0 0 2.611 2.612h5.128c.601 0 1.088.487 1.088 1.088 0 5.879-4.765 10.644-10.644 10.644h-47.02c-5.878 0-10.644-4.765-10.644-10.644 0-.601.487-1.088 1.088-1.088h5.128a2.612 2.612 0 0 0 2.612-2.612V28.283z" fill="#FFB100"/><path d="M77.33 29.27h43.034v42.942H77.329V29.27z" fill="#FFC6B7"/><path d="M98.853 52.875c-7.846 0-15.228 2.136-21.525 5.859v12.939h42.977l.057-12.94a42.167 42.167 0 0 0-21.51-5.858z" fill="#C7B8B8"/><path fill-rule="evenodd" clip-rule="evenodd" d="M110.487 62.968a6.696 6.696 0 0 0-7.567-1.333l-.588.275a8.294 8.294 0 0 1-6.976.02l-.64-.295a6.695 6.695 0 0 0-7.607 1.424l-.148.153a.8.8 0 1 1-1.148-1.113l.147-.152a8.293 8.293 0 0 1 9.425-1.764l.64.294a6.694 6.694 0 0 0 5.63-.015l.589-.275a8.293 8.293 0 0 1 9.373 1.65l.253.253a.8.8 0 0 1-1.13 1.13l-.253-.252z" fill="#A47359"/><path fill-rule="evenodd" clip-rule="evenodd" d="M79.654 64.046a.75.75 0 0 1 1.055.099c1.156 1.395 4.579 3.951 8.873 2.964a.75.75 0 1 1 .335 1.46c-5.049 1.162-9-1.824-10.362-3.468a.75.75 0 0 1 .099-1.055zM118.038 64.046a.75.75 0 0 0-1.055.098c-1.157 1.396-4.579 3.952-8.873 2.964a.75.75 0 0 0-.336 1.461c5.049 1.161 9.001-1.825 10.363-3.468a.75.75 0 0 0-.099-1.055z" fill="#A99B9B"/><path d="M75.277 48.573a4.749 4.749 0 1 0 0-9.498 4.749 4.749 0 0 0 0 9.498zM122.415 48.573a4.749 4.749 0 1 0 0-9.498 4.749 4.749 0 0 0 0 9.498z" fill="#FFC6B7"/><path d="M75.219 72.979c0-.722.584-1.306 1.305-1.306h44.644c.721 0 1.306.584 1.306 1.306v4.424c0 .72-.585 1.305-1.306 1.305H76.524a1.306 1.306 0 0 1-1.305-1.305v-4.424z" fill="#FF4B4B"/><path d="M73.538 39.406a4.749 4.749 0 0 1 5.964 2.238 5.293 5.293 0 0 0 1.886-4.057v-6.65h-7.85v8.469zM118.197 41.65a4.749 4.749 0 0 1 5.956-2.249v-8.463h-7.85v6.65c0 1.63.736 3.089 1.894 4.062z" fill="#FFB100"/><path d="M72.116 26.895c0-.721.584-1.306 1.305-1.306h50.85c.721 0 1.306.585 1.306 1.306v3.603c0 .721-.585 1.306-1.306 1.306h-50.85a1.306 1.306 0 0 1-1.305-1.306v-3.603z" fill="#FF4B4B"/><path d="M96.497 72.393a.94.94 0 0 1 .914-.72h2.871a.94.94 0 0 1 .914.72l1.887 7.853a.94.94 0 0 1-.914 1.16h-6.646a.94.94 0 0 1-.914-1.16l1.888-7.853z" fill="#EBE3E3"/><path d="M98.846 44.22c.114 0 1.115 1.591 2.135 3.26 1.015 1.66-.189 3.776-2.135 3.776-1.946 0-3.15-2.116-2.135-3.777 1.02-1.668 2.022-3.258 2.135-3.258z" fill="#F3A577"/><path d="M91.855 32.659a5.945 5.945 0 0 0-5.945 5.945v3.616a5.945 5.945 0 0 0 11.89 0v-3.616a5.945 5.945 0 0 0-5.945-5.945zM105.85 32.659a5.946 5.946 0 0 0-5.945 5.945v3.616a5.946 5.946 0 0 0 11.89 0v-3.616a5.945 5.945 0 0 0-5.945-5.945z" fill="#fff"/><path d="M100.862 38.588a2.09 2.09 0 0 0 2.049-2.506 2.711 2.711 0 0 1 2.416 2.695v3.254a2.711 2.711 0 0 1-5.422 0v-3.254c0-.138.01-.273.03-.406.279.139.594.217.927.217zM86.863 38.588a2.09 2.09 0 0 0 2.05-2.506 2.712 2.712 0 0 1 2.416 2.695v3.254a2.711 2.711 0 0 1-5.422 0v-3.254c0-.138.01-.273.03-.406.279.139.594.217.926.217z" fill="#3D3D3D"/><path fill-rule="evenodd" clip-rule="evenodd" d="M84.202 46.343a.5.5 0 0 1 .694.134 7.423 7.423 0 0 0 7.8 3.079.5.5 0 0 1 .222.975 8.423 8.423 0 0 1-8.85-3.494.5.5 0 0 1 .134-.694zM113.503 46.343a.5.5 0 0 0-.695.134 7.422 7.422 0 0 1-7.799 3.079.5.5 0 0 0-.223.975 8.424 8.424 0 0 0 8.851-3.494.501.501 0 0 0-.134-.694z" fill="#F3A577"/><path d="M97.8 40.367v.055l-.135.008a16.448 16.448 0 0 1-6.922 1.517c-1.664 0-3.322-.246-4.837-.704v-2.168h.004v-.471a5.945 5.945 0 0 1 11.89 0v1.763zM99.905 40.367v.055l.135.008a16.448 16.448 0 0 0 6.923 1.517c1.664 0 3.321-.246 4.836-.704v-2.168h-.003v-.471a5.946 5.946 0 0 0-11.89 0l-.001 1.763z" fill="#D98A34"/><path d="M82.177 22.188l-6.197 3.527 22.052-2.081 5.725 6.519c.608.693 1.751.262 1.751-.66v-3.778l8.616 3.877c.948.427 1.837-.697 1.203-1.521l-5.233-6.809 7.239-8.405c.656-.763-.097-1.908-1.057-1.607l-12.344 3.87 1.162-8.228c.134-.948-1.012-1.524-1.693-.851l-9.19 9.08-3.48-4.873a1 1 0 0 0-1.754.238L85.04 21.262l-2.668.84c-.068.022-.133.05-.195.086z" fill="#FFB100"/><path d="M38.256 64.043C50.681 62.77 61.614 54.007 65.04 41.225 69.47 24.693 59.658 7.7 43.126 3.27 26.593-1.16 9.6 8.651 5.17 25.184 1.745 37.964 6.832 51.02 16.956 58.335A4.236 4.236 0 0 0 18.55 65.7l14.644 3.924a4.236 4.236 0 0 0 5.062-5.581z" fill="#FFB7E3"/><path d="M13.485 55.413c9.627 1.498 17.157 1.154 22.694.116 3.782-.709 6.628-1.74 8.578-2.724.977-.492 1.715-.966 2.23-1.37.546-.43.745-.707.78-.777l2.198 1.087c-.28.566-.826 1.118-1.463 1.618-.668.525-1.55 1.082-2.64 1.632-2.182 1.1-5.251 2.199-9.231 2.945-5.05.946-11.577 1.327-19.64.418a30.841 30.841 0 0 1-3.506-2.945z" fill="#FF9BD8"/><path d="M58.579 39.495c-3.474 12.964-16.8 20.657-29.764 17.184-12.964-3.474-20.658-16.8-17.184-29.764C15.105 13.95 28.431 6.257 41.395 9.73c12.964 3.474 20.657 16.8 17.184 29.764z" fill="#E18E70"/><path opacity=".9" d="M35.667 40.152c-.31 1.158-1.575 1.825-2.823 1.49-1.25-.334-2.01-1.544-1.7-2.702.31-1.158 3.279-3.568 3.373-3.543.094.026 1.46 3.597 1.15 4.755z" fill="#9E4D31"/><path d="M21.48 37.239a1.428 1.428 0 0 1 1.998-.32L37.5 47.117c.64.465.783 1.363.32 2.004l-.12.165a10.063 10.063 0 0 1-14.085 2.25c-4.512-3.282-5.522-9.608-2.256-14.131l.12-.165z" fill="#A41414"/><path d="M29.678 53.456c-2.102.033-4.23-.59-6.061-1.922a10.083 10.083 0 0 1-4.018-6.476 9.982 9.982 0 0 1 6.068 1.917 10.058 10.058 0 0 1 4.011 6.481z" fill="#E64340"/><path d="M31.274 24.262c2.907 2.707 3.844 5.162 3.716 7.203-.022.373-.08.748-.181 1.123-.786 2.934-3.791 4.678-6.712 3.896a5.43 5.43 0 0 1-2.627-1.602c-.39-.4-.673-.697-.898-.933-.822-.863-.865-.909-2.448-2.105a4.995 4.995 0 0 1-.09-.068l-.061-.047a5.503 5.503 0 0 1-1.883-5.735 5.502 5.502 0 0 1 4.577-4.035c2.726-.375 5.451 1.299 6.607 2.303z" fill="#fff"/><path d="M34.986 30.679a5.875 5.875 0 0 1-.177 1.909 5.496 5.496 0 0 1-5.653 4.071 3.569 3.569 0 0 1-1.687-4.028l.577-2.153.012-.043a2.23 2.23 0 0 0 3.146-2.59 3.567 3.567 0 0 1 3.782 2.834z" fill="#3D3D3D"/><path d="M42.894 27.375c-3.872.89-5.91 2.549-6.82 4.38a5.552 5.552 0 0 0-.405 1.063c-.786 2.934.944 5.948 3.864 6.73a5.43 5.43 0 0 0 3.077-.074c.537-.151.931-.267 1.244-.36 1.143-.335 1.204-.353 3.173-.598a5.83 5.83 0 0 0 .111-.014l.077-.01a5.503 5.503 0 0 0 4.498-4.025 5.503 5.503 0 0 0-1.946-5.782c-2.173-1.689-5.37-1.601-6.873-1.31z" fill="#fff"/><path d="M51.53 35.03a3.568 3.568 0 0 0-3.465-4.102 2.23 2.23 0 0 1-3.386 2.268l-.015.042-.787 2.086a3.567 3.567 0 0 0 .645 3.599c.61-.165 1-.22 2.505-.407l.111-.014.077-.01a5.503 5.503 0 0 0 4.314-3.461zM53.352 17.15c-9.148 6.662-21.118 9.284-32.9 6.127-3.155-.846-5.527-1.929-6.318-2.365-2.585-1.675-3.522-3.992-3.735-6.052-.21-2.03.281-3.81.456-4.444l.031-.116a1.004 1.004 0 0 1 1.658-.47c.504.476 1.492 1.126 2.616 1.73 1.118.601 2.251 1.092 3.004 1.294.756.202 1.487.302 2.488.108.588-.114 1.287-.333 2.148-.714a24.228 24.228 0 0 1 18.595-2.517 24.189 24.189 0 0 1 11.957 7.419z" fill="#3D3D3D"/><path d="M105.519 113.957l-.011-.106c-.008-.091-.016-.183-.03-.274l-.574-5.277h5.449c.794 0 1.413-.689 1.328-1.478l-.349-3.281a1.336 1.336 0 0 0-1.329-1.195h-6.113c-.952 0-1.695.826-1.594 1.773l.662 6.246c-1.028-.415-2.197-.383-3.194.193-1.78 1.027-2.337 3.396-1.244 5.289 1.093 1.894 3.423 2.596 5.203 1.568 1.232-.711 1.877-2.064 1.795-3.457l.001-.001z" fill="#86D4EF"/><path d="M76.465 88.194l2.879 10.743a4.499 4.499 0 0 0-2.223.024c-2.55.683-4.023 3.449-3.292 6.178.732 2.729 3.391 4.388 5.94 3.705 2.55-.683 4.022-3.45 3.291-6.178l-2.313-8.635a.674.674 0 0 1 .477-.826l10.62-2.846c.361-.096.73.118.827.477l1.133 4.227a4.497 4.497 0 0 0-2.223.023c-2.549.683-4.022 3.45-3.291 6.178.731 2.729 3.391 4.388 5.94 3.705 2.549-.683 4.022-3.449 3.291-6.178l-4.06-15.15a1.35 1.35 0 0 0-1.652-.954l-14.39 3.856a1.348 1.348 0 0 0-.954 1.65z" fill="#FFB7E3"/><path d="M64.293 79.297a6.699 6.699 0 0 1-11.6-6.698l-5.372-3.101a2.391 2.391 0 0 0-3.268.875l-19.822 34.335a2.391 2.391 0 0 0 .875 3.267l5.371 3.101a6.699 6.699 0 0 1 11.601 6.698l5.372 3.101a2.391 2.391 0 0 0 3.267-.876L70.54 85.665a2.39 2.39 0 0 0-.876-3.266l-5.371-3.102z" fill="#FFD900"/><path d="M51.51 110.375L32.17 99.208a.851.851 0 1 0-.851 1.475l19.341 11.166a.851.851 0 1 0 .851-1.474zM63.301 90.1l-19.34-11.167a.851.851 0 1 0-.852 1.474L62.45 91.574a.851.851 0 0 0 .851-1.474z" fill="#FF9600"/><path d="M40.723 92.781a1.435 1.435 0 0 1 1.249-2.162l2.74.02c.414.004.81-.172 1.084-.482l1.819-2.05a1.436 1.436 0 0 1 2.442.519l.827 2.613c.124.394.415.717.794.882l2.513 1.096a1.436 1.436 0 0 1 .26 2.483l-2.23 1.594c-.336.24-.553.615-.593 1.027l-.266 2.728a1.436 1.436 0 0 1-2.28 1.016l-2.205-1.628c-.333-.247-.758-.336-1.162-.247l-2.676.59a1.435 1.435 0 0 1-1.67-1.856l.867-2.599a1.44 1.44 0 0 0-.124-1.18l-1.389-2.364z" fill="#FF4B4B"/></g><defs><clipPath id="clip0_302_3225"><path fill="#fff" transform="translate(0 .367)" d="M0 0h135v124H0z"/></clipPath></defs></svg>