<svg viewBox="0 0 135 124" version="1.1" xmlns="http://www.w3.org/2000/svg"><g stroke="none" stroke-width="1" fill="none" fill-rule="evenodd"><path d="M28 11h79c9.389 0 17 7.611 17 17v79c0 9.389-7.611 17-17 17H28c-9.389 0-17-7.611-17-17V28c0-9.389 7.611-17 17-17z" fill="#A2A2A2"/><g fill-rule="nonzero"><g transform="translate(2 6)"><g transform="translate(0 .814)"><rect fill="#C5C5C5" x="21.138" y="27.849" width="3.966" height="80.478" rx="1.983"/><rect fill="#C5C5C5" transform="rotate(75 18.868 30.7)" x="16.885" y="11.697" width="3.966" height="38.005" rx="1.983"/><path d="M98.016 95.344a1.983 1.983 0 0 0-.439 2.77l6.848 9.424a1.983 1.983 0 0 0 3.208-2.33l-6.847-9.425a1.983 1.983 0 0 0-2.77-.439z" fill="#C5C5C5"/><path d="M99.197 95.344a1.983 1.983 0 0 1 .439 2.77l-6.848 9.424a1.983 1.983 0 0 1-3.208-2.33l6.847-9.425a1.983 1.983 0 0 1 2.77-.439z" fill="#C5C5C5"/><rect fill="#DFDFDF" x="5" y="59.899" width="30.404" height="34.7" rx="2.974"/><rect fill="#C5C5C5" x="2.686" y="59.899" width="34.535" height="5.37" rx="1.652"/><rect fill="#C5C5C5" x="2.686" y="91.295" width="34.535" height="5.37" rx="1.652"/><rect fill="#DFDFDF" transform="rotate(-38 108.367 21.217)" x="93.479" y="8.287" width="29.776" height="25.86" rx="2.231"/><rect fill="#C5C5C5" transform="rotate(-38 100.763 11.484)" x="84.858" y="9.501" width="31.809" height="3.966" rx="1.239"/><rect fill="#DFDFDF" x="64.785" y="33.541" width="32.883" height="15.78" rx="2.231"/><rect fill="#C5C5C5" transform="rotate(90 94.611 41.224)" x="92.628" y="37.259" width="3.966" height="7.932" rx="1.983"/><rect fill="#C5C5C5" x="63.711" y="33.375" width="35.031" height="3.966" rx="1.239"/><rect fill="#C5C5C5" transform="rotate(-38 115.97 31.106)" x="100.065" y="29.123" width="31.809" height="3.966" rx="1.239"/><rect fill="#C5C5C5" x="63.711" y="46.264" width="35.031" height="3.966" rx="1.239"/><rect fill="#C5C5C5" x="33.312" y="17.925" width="3.966" height="10.08" rx="1.983"/><rect fill="#C5C5C5" x="96.594" y="24.327" width="3.966" height="84" rx="1.983"/><path d="M112.046 50.48c.822 0 1.487.707 1.487 1.58v54.84c0 .873-.665 1.58-1.487 1.58-.821 0-1.487-.707-1.487-1.58V52.06c0-.873.666-1.58 1.487-1.58z" fill="#C5C5C5"/><rect fill="#C5C5C5" transform="rotate(-35 115.004 103.016)" x="113.517" y="96.861" width="2.974" height="12.31" rx="1.487"/><rect fill="#C5C5C5" transform="scale(-1 1) rotate(-35 0 448.743)" x="107.52" y="96.861" width="2.974" height="12.31" rx="1.487"/><path d="M114.132 67.179l17.01-4.438a.744.744 0 0 0-.189-1.463H93.14a.744.744 0 0 0-.188 1.463l17.01 4.438a8.262 8.262 0 0 0 4.17 0z" fill="#C5C5C5"/><path d="M114.132 55.46l17.01 4.438a.744.744 0 0 1-.189 1.463H93.14a.744.744 0 0 1-.188-1.463l17.01-4.437a8.262 8.262 0 0 1 4.17 0z" fill="#DFDFDF"/><path d="M112.046 57.153v2.144c0 .32-.259.578-.578.578h-7.981a.744.744 0 0 1-.164-1.469l8.017-1.817a.578.578 0 0 1 .706.564z" fill="#FFF"/><g transform="translate(24 42)"><path d="M58.676 48.862c3.752 0 7.135 1.847 8.013 4.791l.061.223.04.192 1.152 7.173a2.272 2.272 0 0 1-4.456.873l-.03-.152-1.132-7.039-.01-.03c-.264-.677-1.622-1.422-3.404-1.483l-.234-.004H12.138c-1.975 0-3.484.847-3.666 1.575l-1.83 7.3a2.272 2.272 0 1 1-4.408-1.106l1.83-7.3c.752-2.998 4.061-4.918 7.794-5.01l.28-.003h46.538z" fill="#DFDFDF"/><path d="M63.626 59.4l4.105-.092a1.363 1.363 0 0 1 1.349 1.015l1.217 4.61a1.363 1.363 0 0 1-1.295 1.71l-5.241.092a1.363 1.363 0 0 1-1.387-1.34l-.08-4.609a1.363 1.363 0 0 1 1.332-1.386zM6.776 59.4l-4.105-.092a1.363 1.363 0 0 0-1.349 1.015l-1.217 4.61a1.363 1.363 0 0 0 1.295 1.71l5.241.092a1.363 1.363 0 0 0 1.387-1.34l.08-4.609A1.363 1.363 0 0 0 6.776 59.4z" fill="#C5C5C5"/><circle fill="#CBCBCB" cx="35.048" cy="33.627" r="30.627"/><path d="M35.048.896c-18.077 0-32.73 14.654-32.73 32.731s14.653 32.731 32.73 32.731c18.077 0 32.731-14.654 32.731-32.73C67.78 15.55 53.125.895 35.05.895zm0 4.208c15.753 0 28.524 12.77 28.524 28.523s-12.77 28.524-28.524 28.524c-15.753 0-28.523-12.77-28.523-28.524 0-15.753 12.77-28.523 28.523-28.523z" fill="#E7E7E7"/><g fill="#DFDFDF"><path d="M22.88 47.109l2.057 1.918a1.785 1.785 0 0 1-2.435 2.612l-2.058-1.919a1.785 1.785 0 0 1 2.435-2.611zM51.424 47.197a1.785 1.785 0 0 0-2.523-.088l-2.058 1.918a1.785 1.785 0 0 0 2.435 2.612l2.058-1.919c.72-.672.76-1.802.088-2.523M55.769 26.324l-6.842 1.703v-5.849a4.642 4.642 0 0 0-6.46-4.27c-3.529 1.502-5.956 2.253-7.28 2.253-1.333 0-3.8-.761-7.4-2.283a4.642 4.642 0 0 0-6.449 4.274V28l-6.95-1.73a1.634 1.634 0 0 0-2.026 1.696c.365 5.224 4.049 9.71 9.221 11.114 1.209 6.384 6.814 11.214 13.55 11.214 6.726 0 12.325-4.817 13.545-11.188 5.117-1.436 8.755-5.896 9.117-11.086a1.634 1.634 0 0 0-2.026-1.696"/></g></g></g><path d="M38.344 11.543l23.74 8.853a1.023 1.023 0 0 1-.417 1.982L8.81 19.608a1.03 1.03 0 0 1-.98-1.078c.024-.446.336-.825.772-.937l24.536-6.323a8.697 8.697 0 0 1 5.207.273z" fill="#DFDFDF"/><path d="M34.955 15.588l-.043 2.773c-.008.549-.476.986-1.044.976l-.036-.002-13.182-.69a.759.759 0 0 1-.732-.786.75.75 0 0 1 .598-.687l12.865-2.82c.692-.151 1.383.269 1.542.938.023.098.034.198.032.298z" fill="#FFF"/><rect fill="#C5C5C5" transform="rotate(15 9.734 101.877)" x="7.362" y="94.456" width="4.743" height="14.841" rx="2.372"/></g></g><path d="M78.642 33.877a1.555 1.555 0 0 1-2.53-1.105l-.076-1.16a10.677 10.677 0 0 1-4.027-3.067L54.997 7.538a1.65 1.65 0 0 1 .244-2.32l.233-.19a1.65 1.65 0 0 1 2.32.244L74.807 26.28a10.677 10.677 0 0 1 2.163 4.577l1.118.316a1.555 1.555 0 0 1 .555 2.704zM84.409 36.192a1.555 1.555 0 0 1-1.931-1.973l.363-1.104a10.677 10.677 0 0 1-2.586-4.352l-7.903-25.85a1.65 1.65 0 0 1 1.096-2.06l.287-.088a1.65 1.65 0 0 1 2.06 1.095l7.903 25.85c.5 1.637.6 3.37.29 5.054l.919.712a1.555 1.555 0 0 1-.498 2.716z" fill="#B9B9B9"/></g></svg>