<svg viewBox="0 0 135 124" fill="none" xmlns="http://www.w3.org/2000/svg"><path d="M11 28c0-9.389 7.611-17 17-17h79c9.389 0 17 7.611 17 17v79c0 9.389-7.611 17-17 17H28c-9.389 0-17-7.611-17-17V28z" fill="#FD9526"/><path d="M63.99 27.122C65.598 11.591 79.492.304 95.023 1.912l.654.067c15.531 1.608 26.818 15.502 25.21 31.034l-.384 3.715c-1.608 15.532-15.502 26.819-31.034 25.21l-.653-.067c-15.532-1.608-26.82-15.502-25.211-31.034l.385-3.715z" fill="#FFB7E3"/><path d="M91.45 54.677c-.973.22-1.95.4-2.925.545-5.867.873-11.524.458-15.308-.1a28.224 28.224 0 0 0 4.81 3.366c3.26.19 7.038.144 10.92-.434 7.504-1.117 15.568-4.25 20.905-11.692-4.379 5.33-11.1 8.578-18.402 8.315z" fill="#FF9BD8"/><path d="M114.891 34.27c-1.295 12.505-12.483 21.594-24.99 20.3-12.505-1.296-21.594-12.483-20.299-24.99 1.295-12.506 12.483-21.594 24.989-20.3 12.506 1.295 21.594 12.483 20.3 24.99z" fill="#E18E70"/><path d="M79.593 37.632a1.341 1.341 0 0 1 1.802-.59l14.538 7.355c.66.334.925 1.141.59 1.802l-.07.14a9.487 9.487 0 0 1-16.93-8.567l.07-.14z" fill="#B82C2C"/><path d="M89.615 51.402a9.445 9.445 0 0 1-5.91-.882 9.456 9.456 0 0 1-4.692-5.39 9.423 9.423 0 0 1 5.915.877 9.433 9.433 0 0 1 4.687 5.395z" fill="#EF4949"/><path fill-rule="evenodd" clip-rule="evenodd" d="M102.231 20.486c1.342-.039 2.867.15 4.225.853a6.131 6.131 0 0 1 2.746 2.806.727.727 0 1 1-1.315.623 4.679 4.679 0 0 0-2.098-2.135l-.002-.001c-1.064-.552-2.32-.725-3.514-.691-1.184.034-2.252.27-2.907.49-.77.287-1.444.593-2.034.91a.728.728 0 1 1-.69-1.28 17.794 17.794 0 0 1 2.25-1.007c.78-.262 1.995-.53 3.339-.568z" fill="#B9674B"/><path d="M92.098 33.365c.108.012.908 1.63 1.717 3.325.806 1.687-.554 3.59-2.413 3.397-1.86-.192-2.8-2.333-1.667-3.82 1.14-1.492 2.254-2.913 2.363-2.902z" fill="#9E4D31"/><path d="M98.725 24.82c-3.459 1.393-5.103 3.225-5.675 5.05a5.145 5.145 0 0 0 7.214 6.166c.476-.218.824-.383 1.101-.514 1.01-.48 1.064-.505 2.854-1.02a5.571 5.571 0 0 0 .171-.05v-.001a5.145 5.145 0 0 0 .908-9.434c-2.268-1.24-5.222-.688-6.573-.197zM87.36 23.643c3.1 2.072 4.335 4.202 4.52 6.106a5.145 5.145 0 0 1-8.324 4.557c-.42-.31-.728-.544-.972-.729-.89-.675-.938-.711-2.584-1.583a5.165 5.165 0 0 1-.094-.05l-.064-.034h.001a5.146 5.146 0 0 1 1.044-9.42c2.473-.749 5.251.396 6.473 1.153z" fill="#fff"/><path d="M74.507 24.788c16.636 2.298 26.727-5.694 32.348-10.355A22.657 22.657 0 0 0 94.63 9.284a22.674 22.674 0 0 0-15.065 3.765 1.96 1.96 0 0 0-.237.133c-.298.195-.595.402-.897.613-2.142 1.492-4.514 3.145-8.623 1.689a12.99 12.99 0 0 0-.226-.078l-2.05-.76c-.72-.277-1.313.135-1.351.907-.187 3.704 2.055 7.172 5.605 8.533a8.81 8.81 0 0 0 1.535.434c.405.122.808.216 1.186.268zM84.739 29.151a2.24 2.24 0 0 0 2.07-3.506 3.422 3.422 0 0 1 3.474 3.774l-.166 1.605a3.422 3.422 0 1 1-6.808-.705l.166-1.605.014-.11a2.23 2.23 0 0 0 1.25.547zM96.133 30.33a2.24 2.24 0 0 0 2.071-3.505 3.422 3.422 0 0 1 3.474 3.774l-.166 1.605a3.423 3.423 0 0 1-6.808-.705l.166-1.605.013-.11c.338.298.768.497 1.25.547z" fill="#3D3D3D"/><path d="M119.06 59.728l-11.807 11.167 10.865 11.487 11.807-11.166c.549-.52.573-1.386.053-1.936l-8.983-9.498a1.369 1.369 0 0 0-1.935-.054z" fill="#E9E1E2"/><path d="M129.978 69.28l-8.983-9.498a1.37 1.37 0 0 0-1.936-.054l-.948.897 10.865 11.487.948-.896a1.37 1.37 0 0 0 .054-1.936z" fill="#2EC0DA"/><path d="M115.311 56.724l-5.357 7.216 12.694 9.426 5.358-7.216a1.369 1.369 0 0 0-.283-1.915l-10.496-7.794a1.37 1.37 0 0 0-1.916.283z" fill="#fff"/><path d="M127.723 64.235l-10.496-7.794a1.37 1.37 0 0 0-1.916.283l-.778 1.048 12.695 9.426.778-1.048a1.369 1.369 0 0 0-.283-1.915zM123.539 67.76c-.403-1.29-1.621-1.476-1.621-1.476l-2.543-.522-1.853-2.767a.54.54 0 0 0-.341-.228l-.77-.159a.068.068 0 0 0-.078.09l.946 2.634-1.51-.31-1.33-1.494a.338.338 0 0 0-.184-.107l-.669-.137a.067.067 0 0 0-.079.083l.701 2.76c.038.151.16.267.312.298l3.156.648-2.878 3.107a.067.067 0 0 0 .036.112l.771.159a.541.541 0 0 0 .403-.076l4.278-2.767 2.862.587a.34.34 0 0 0 .391-.434z" fill="#77CEE6"/><path d="M108.592 114.679L84.245 96.601l-2.539 3.419 24.347 18.078 2.539-3.419z" fill="#fff"/><path d="M107.788 115.762L83.441 97.684l-.895 1.205 24.347 18.078.895-1.205z" fill="#E9E1E2"/><path d="M84.659 98.587l22.995 17.074a1.644 1.644 0 0 0 2.299-.339l23.614-31.803a1.642 1.642 0 0 0-.34-2.299l-24.215-17.98a1.643 1.643 0 0 0-2.298.34L81.282 97.83a3.15 3.15 0 0 0 .65 4.406l23.666 17.571a.82.82 0 1 0 .979-1.318l-23.705-17.602a1.457 1.457 0 0 1-.21-2.148c.51-.565 1.386-.606 1.997-.153z" fill="#0B508E"/><path fill-rule="evenodd" clip-rule="evenodd" d="M112.969 83.2a8.36 8.36 0 0 0-11.697 1.729 8.361 8.361 0 1 0 13.426 9.969 8.36 8.36 0 0 0-1.729-11.698zm-12.511 1.124a9.375 9.375 0 1 1 15.054 11.18 9.375 9.375 0 0 1-15.054-11.18z" fill="#FFC807"/><path fill-rule="evenodd" clip-rule="evenodd" d="M109.486 83.495c-1.506.777-3.163 2.209-4.587 4.127-1.424 1.917-2.316 3.917-2.624 5.584-.314 1.702.002 2.883.726 3.42.723.537 1.944.498 3.483-.295 1.507-.777 3.163-2.209 4.587-4.127 1.424-1.917 2.316-3.917 2.624-5.584.314-1.703-.002-2.883-.725-3.42-.724-.537-1.945-.499-3.484.295zm-.465-.9c1.639-.846 3.347-1.104 4.553-.209 1.206.896 1.452 2.606 1.117 4.418-.341 1.85-1.31 3.99-2.806 6.004-1.496 2.015-3.265 3.562-4.936 4.424-1.639.844-3.347 1.103-4.553.208-1.205-.896-1.452-2.606-1.117-4.418.341-1.85 1.311-3.99 2.807-6.005 1.495-2.014 3.264-3.561 4.935-4.423z" fill="#FFC807"/><path fill-rule="evenodd" clip-rule="evenodd" d="M104.692 84.203c-1.702-.314-2.883.002-3.42.725-.537.724-.498 1.945.295 3.484.777 1.506 2.209 3.163 4.127 4.587 1.917 1.424 3.917 2.316 5.584 2.624 1.702.314 2.883-.002 3.42-.726.537-.723.498-1.944-.295-3.483-.777-1.507-2.209-3.163-4.127-4.587-1.917-1.424-3.917-2.316-5.584-2.624zm.184-.996c1.85.341 3.99 1.31 6.005 2.806 2.014 1.496 3.561 3.265 4.423 4.936.844 1.639 1.103 3.347.208 4.553-.896 1.205-2.606 1.452-4.418 1.117-1.849-.341-3.99-1.31-6.005-2.806-2.014-1.496-3.561-3.265-4.423-4.936-.844-1.639-1.103-3.347-.208-4.553.896-1.206 2.606-1.452 4.418-1.117z" fill="#FFC807"/><path d="M122.913 84.362l-13.924-10.339a.507.507 0 0 1-.105-.71l1.074-1.446a.507.507 0 0 1 .709-.104L124.591 82.1a.506.506 0 0 1 .105.71l-1.074 1.446a.507.507 0 0 1-.709.105z" fill="#FFC807"/><path d="M105.309 108.07L91.385 97.732a.507.507 0 0 1-.105-.71l1.074-1.446a.507.507 0 0 1 .71-.105l13.923 10.339a.506.506 0 0 1 .105.709l-1.074 1.447a.507.507 0 0 1-.709.104z" fill="#1F6DB5"/><path d="M22.242 79.534c.252-11.234 8.61-20.629 19.74-22.187C53.11 55.79 63.726 62.53 67.052 73.262l10.87 35.075a1.554 1.554 0 0 1-1.27 2l-53.463 7.484a1.555 1.555 0 0 1-1.77-1.575l.822-36.712z" fill="#A570FF"/><path d="M36.452 67.312l-.17.024A12.442 12.442 0 0 0 25.57 79.991l.605 22.604a5.055 5.055 0 0 0 5.753 4.871l34.375-4.811a5.055 5.055 0 0 0 4.195-6.263l-2.71-13.662a4.56 4.56 0 0 0-1.36-9.017L51.03 75.868c-6.382.893-12.35-2.794-14.578-8.556z" fill="#FFC6B7"/><path d="M43.126 106.683a.778.778 0 0 1 .662-.878l9.76-1.366a.777.777 0 0 1 .878.662l1.038 7.418a.777.777 0 0 1-.663.877l-9.76 1.367a.778.778 0 0 1-.877-.663l-1.038-7.417z" fill="#593F86"/><path d="M47.29 82.02l11.07-4.576.833 5.952a6.191 6.191 0 0 1-.489 3.42 17.9 17.9 0 0 0-2.318.172 17.664 17.664 0 0 0-7.762 3.065 2.923 2.923 0 0 1-.899-1.734l-.553-3.953a6.205 6.205 0 0 1 .117-2.346z" fill="#fff"/><path d="M46.83 88.326c.11-.015 1.298 1.392 2.514 2.873 1.21 1.473.33 3.69-1.559 3.955-1.889.264-3.345-1.626-2.585-3.375.763-1.758 1.52-3.437 1.63-3.453z" fill="#EE9583"/><path d="M45.655 84.578a6.221 6.221 0 0 0-7.023-5.299l-4.993.7a.778.778 0 0 0-.662.877l.853 6.09a6.22 6.22 0 0 0 7.023 5.299l2.855-.4a2.935 2.935 0 0 0 2.5-3.314l-.553-3.953z" fill="#fff"/><path d="M42.504 110.857l-6.346-45.341-2.318.324a12.053 12.053 0 0 0-10.38 11.767l-.509 35.986 19.553-2.736z" fill="#A570FF"/><path d="M44.477 81.714l-4.109.576.154 1.103a2.703 2.703 0 0 0 5.08.863 6.184 6.184 0 0 0-1.125-2.542z" fill="#3D3D3D"/><path d="M33.581 85.166L45.41 83.51a6.223 6.223 0 0 0-6.777-4.23l-4.993.698a.778.778 0 0 0-.662.878l.603 4.31z" fill="#A570FF"/><path d="M52.69 80.565l.154 1.103a2.703 2.703 0 1 0 5.354-.75l-.155-1.103-5.353.75z" fill="#3D3D3D"/><path fill-rule="evenodd" clip-rule="evenodd" d="M57.492 91.535c.971-.682 1.962-.725 2.652-.4a.778.778 0 1 1-.66 1.407c-.116-.054-.516-.143-1.098.266-.594.417-1.377 1.364-2.077 3.364a.778.778 0 0 1-1.468-.513c.758-2.168 1.692-3.45 2.651-4.124z" fill="#EE9583"/><path d="M47.29 82.02l11.07-4.575.584 4.172-11.83 1.655c.016-.427.076-.846.175-1.251z" fill="#A570FF"/><path d="M11.593 57.457l46.809-8.16a2.333 2.333 0 0 0 1.892-2.69l-4.93-28.285a2.333 2.333 0 0 0-2.691-1.892L5.864 24.59a2.333 2.333 0 0 0-1.892 2.69l4.93 28.285a2.333 2.333 0 0 0 2.691 1.892z" fill="#5C3422"/><path d="M8.614 53.913l51.391-8.958.113.645L8.727 54.56l-.113-.645z" fill="#804E2D"/><path d="M60.146 45.762l-.036-.208-.208-1.193-.828-4.75-2.414.42.356 2.047-2.414.42a4.903 4.903 0 0 0 5.67 3.984l-.126-.72zM8.755 54.72l-.036-.207-.208-1.194-.828-4.75 2.414-.422.357 2.047 2.414-.42A4.903 4.903 0 0 1 8.88 55.44l-.126-.72z" fill="#E9A422"/><path d="M47.005 51.904l2.966-.517a.665.665 0 0 0 .54-.77l-5.71-32.758a.665.665 0 0 0-.768-.54l-2.967.517a.665.665 0 0 0-.54.768l5.71 32.76a.665.665 0 0 0 .769.54zM20.206 56.575l2.966-.517a.665.665 0 0 0 .541-.769l-5.71-32.758a.665.665 0 0 0-.77-.54l-2.966.516a.665.665 0 0 0-.54.769l5.71 32.759a.664.664 0 0 0 .769.54z" fill="#804E2D"/><path d="M10.369 50.434l46.808-8.16a2.333 2.333 0 0 0 1.892-2.69L54.19 11.597a2.333 2.333 0 0 0-2.69-1.892L4.69 17.865a2.333 2.333 0 0 0-1.892 2.69l4.879 27.987a2.333 2.333 0 0 0 2.69 1.892z" fill="#985632"/><path d="M11.05 46.605L6.629 21.237l44.19-7.703 4.422 25.368-44.19 7.703z" fill="#A46644"/><path d="M54.19 11.597l.443 2.537a4.901 4.901 0 0 1-5.67-3.987l2.537-.442a2.333 2.333 0 0 1 2.69 1.892zM4.692 17.865l2.537-.442a4.9 4.9 0 0 1-3.987 5.67L2.8 20.555a2.333 2.333 0 0 1 1.892-2.691zM7.678 48.542l-.442-2.537a4.9 4.9 0 0 1 5.67 3.986l-2.537.443a2.333 2.333 0 0 1-2.69-1.892zM57.178 42.274l-2.537.442a4.901 4.901 0 0 1 3.986-5.67l.442 2.537a2.333 2.333 0 0 1-1.892 2.691zM23.294 14.623l-.18-1.036a.832.832 0 0 0-.962-.676l-1.964.343a.832.832 0 0 0-.675.96l.18 1.037-1.636.285-.181-1.036a2.495 2.495 0 0 1 2.027-2.883l1.964-.343a2.495 2.495 0 0 1 2.883 2.027l.18 1.037-1.636.285zM38.942 11.895l-.18-1.037a.832.832 0 0 0-.962-.675l-1.963.342a.832.832 0 0 0-.676.961l.18 1.037-1.636.285-.18-1.037a2.495 2.495 0 0 1 2.026-2.883l1.964-.342a2.495 2.495 0 0 1 2.883 2.027l.18 1.037-1.636.285z" fill="#FFCA07"/><path d="M35.603 11.127L35.23 8.99a1.993 1.993 0 0 0-2.306-1.621L23.792 8.96a1.994 1.994 0 0 0-1.621 2.306l.372 2.138a1.329 1.329 0 1 1-2.618.456l-.373-2.138a4.652 4.652 0 0 1 3.784-5.381l9.132-1.592a4.652 4.652 0 0 1 5.381 3.784l.373 2.138a1.329 1.329 0 1 1-2.619.456z" fill="#985632"/><path d="M45.78 44.881l2.967-.517a.665.665 0 0 0 .54-.769L43.63 11.133a.665.665 0 0 0-.77-.54l-2.966.517a.665.665 0 0 0-.54.769L45.01 44.34a.665.665 0 0 0 .769.54zM18.982 49.553l2.966-.518a.665.665 0 0 0 .54-.768L16.83 15.804a.665.665 0 0 0-.769-.54l-2.966.516a.665.665 0 0 0-.54.77l5.658 32.46a.665.665 0 0 0 .769.541z" fill="#C0774F"/></svg>