<svg id="Layer_3" data-name="Layer 3" xmlns="http://www.w3.org/2000/svg" viewBox="0 0 135 124"><defs><style>.cls-1{fill:#ffc800}.cls-3{fill:#f89700}.cls-4{fill:#ffb100}.cls-7{fill:#ffe75e}</style></defs><rect class="cls-1" x="12.01" y="11" width="113" height="113" rx="17" ry="17"/><path d="M53.37 63.26L105.63 11H50.91L26 35.89a19.35 19.35 0 0 0 27.37 27.37zM123 20c-.21.19-.43.37-.63.57L20.94 122a16.9 16.9 0 0 0 8.06 2h44.63L125 72.62V28a17 17 0 0 0-2-8z" fill="#ffd900"/><path class="cls-3" d="M125 99.18V107a17 17 0 0 1-17 17H89.58l-23.33-22.67 38.29-22.8z"/><rect class="cls-4" x="85.83" y="44.04" width="18.5" height="43" rx="8.35" ry="8.35" transform="rotate(-.97 95.728 65.788)"/><path d="M102.16 85.27l-17.23 17.82a11 11 0 0 1-14.33 1.33l-4.34-3.08-11.12-7.9a7.93 7.93 0 0 1-1.94-11.06L56.29 78l12.48-17.82a7.94 7.94 0 0 1 11.07-1.94L101 73.29a7.93 7.93 0 0 1 1.16 11.98z" fill="#ffd0bb"/><rect class="cls-4" x="48.24" y="30.68" width="18.5" height="54.79" rx="8.35" ry="8.35" transform="rotate(125.7 57.492 58.071)"/><circle class="cls-4" cx="80.98" cy="83.49" r="23.91"/><rect x="50.79" width="36.54" height="119.08" rx="4.97" ry="4.97" fill="#e27800"/><circle class="cls-7" cx="68.96" cy="76.84" r="15.42"/><circle class="cls-3" cx="68.96" cy="76.84" r="6.63"/><path class="cls-4" d="M62.21 78a9.24 9.24 0 0 1-11.93 5.34L36 78a9.27 9.27 0 0 1-5.36-12 9.26 9.26 0 0 1 11.94-5.35L56.86 66a9.24 9.24 0 0 1 5.35 12z"/><path class="cls-4" d="M69.3 96.39a9.24 9.24 0 0 1-11.3 6.5L43.21 99a9.25 9.25 0 0 1-6.5-11.35 9.25 9.25 0 0 1 11.35-6.5L62.8 85a9.25 9.25 0 0 1 6.5 11.39z"/><circle class="cls-3" cx="56.96" cy="6.39" r="2.89"/><circle class="cls-7" cx="56.96" cy="14.91" r="2.89"/><circle class="cls-7" cx="65.06" cy="14.91" r="2.89"/><circle class="cls-7" cx="73.15" cy="14.91" r="2.89"/><circle class="cls-7" cx="81.25" cy="14.91" r="2.89"/><circle class="cls-3" cx="56.96" cy="106.95" r="2.89"/><circle class="cls-1" cx="65.06" cy="106.95" r="2.89"/><circle class="cls-4" cx="73.15" cy="106.95" r="2.89"/><circle class="cls-7" cx="81.25" cy="106.95" r="2.89"/><rect class="cls-7" x="54.07" y="27.42" width="8.5" height="5.35" rx="1.69" ry="1.69"/><rect class="cls-7" x="64.7" y="27.42" width="8.5" height="5.35" rx="1.69" ry="1.69"/><rect class="cls-7" x="75.33" y="27.42" width="8.5" height="5.35" rx="1.69" ry="1.69"/><rect class="cls-7" x="54.07" y="35.12" width="8.5" height="5.35" rx="1.69" ry="1.69"/><rect class="cls-7" x="64.7" y="35.12" width="8.5" height="5.35" rx="1.69" ry="1.69"/><rect class="cls-7" x="75.33" y="35.12" width="8.5" height="5.35" rx="1.69" ry="1.69"/><rect class="cls-7" x="54.07" y="42.82" width="8.5" height="5.35" rx="1.69" ry="1.69"/><rect class="cls-7" x="64.7" y="42.82" width="8.5" height="5.35" rx="1.69" ry="1.69"/><rect class="cls-7" x="75.33" y="42.82" width="8.5" height="5.35" rx="1.69" ry="1.69"/><rect class="cls-7" x="54.07" y="50.53" width="8.5" height="5.35" rx="1.69" ry="1.69"/><rect class="cls-7" x="64.7" y="50.53" width="8.5" height="5.35" rx="1.69" ry="1.69"/><rect class="cls-7" x="75.33" y="50.53" width="8.5" height="5.35" rx="1.69" ry="1.69"/></svg>