<svg viewBox="0 0 135 124" version="1.1" xmlns="http://www.w3.org/2000/svg"><g stroke="none" stroke-width="1" fill="none" fill-rule="evenodd"><path d="M28 11h79c9.389 0 17 7.611 17 17v79c0 9.389-7.611 17-17 17H28c-9.389 0-17-7.611-17-17V28c0-9.389 7.611-17 17-17z" fill="#FFCB00"/><path fill="#FFDB00" d="M124 28v47.862L75.862 124 28 124l-.218-.003 96.217-96.215zM107 11c3.548 0 6.842 1.087 9.567 2.946L13.946 116.567A16.921 16.921 0 0 1 11 107V82.743L82.743 11H107z"/><path d="M53.26 1.123C58.581.28 63.57 3.845 64.4 9.084c.034.214.06.428.08.64.475-.16.97-.282 1.483-.363 4.986-.79 9.669 2.623 10.46 7.619l.215 1.357-18.057 2.86-.215-1.357-.042-.299a9.9 9.9 0 0 1-2.06.558c-5.326.843-10.315-2.721-11.145-7.96-.83-5.24 2.814-10.172 8.14-11.016z" fill="#E47900"/><path d="M99.026 28.97c2.626 11.117 3.604 22.25 2.936 33.4l1.144 10.875c.027.262.037.522.03.778l1.188 11.31-.025.001.4 3.801c.049.47.041.934-.017 1.383a3.41 3.41 0 0 1-1.488 3.77l-4.467 2.792a3.409 3.409 0 0 1-4.697-1.084l-.086-.14-.608 3.003a10 10 0 0 1-10.496 7.978l-7.383-.517-1.41-2.778a2 2 0 0 0-3.239-.466l-2.582 2.739-29.715-2.078c-5.51-.385-9.663-5.164-9.278-10.673a10 10 0 0 1 1.934-5.246l.882-1.203.559-.773.535-.748.758-1.079.476-.69.452-.665.43-.642.404-.618.382-.594.358-.57.334-.548.311-.523.422-.74.311-.577.274-.54.1-.205.18-.393.158-.369c.194-.476.325-.89.393-1.24l.023-.127c.358-2.286 1.114-4.562 1.936-6.828l1.04-2.84c.267-.739.527-1.477.767-2.215h-.17L32 62.909a5.899 5.899 0 0 1-.831.084l-.284.002-12.918-.225-.19.369a3.409 3.409 0 0 1-4.415 1.57l-.169-.08L8.5 62.235a3.409 3.409 0 0 1-1.57-4.416l.08-.169.33-.646H3L2.824 57a3 3 0 0 1-2.819-2.818L0 54.005l.005-.176a3 3 0 0 1 2.819-2.819L3 51.005h8.98l.001-.118 17.549.306a5.9 5.9 0 0 1 .827-.083l.283-.002 12.047.21.226.009c.441.024.87.097 1.28.213.12-5.842-.25-11.2-1.11-16.078l-.147-.808c-1.212-6.39 2.985-12.551 9.375-13.763.631-.12 1.272-.187 1.914-.203l33.062-.783a11.775 11.775 0 0 1 11.74 9.065z" fill="#FFAB19"/><path d="M50.664 19.726l35.072-5.555c6.233-.987 12.135 3.114 13.384 9.3.854 4.23 1.57 8.484 2.15 12.763 1.084 8.011 1.351 14.571.8 19.679l-56.153 9.113-5.04-31.828c-1.018-6.423 3.364-12.455 9.787-13.472zM21.732 112.914a3.64 3.64 0 0 1 3.641-3.64H35.91a3.64 3.64 0 1 1 0 7.28H25.373a3.64 3.64 0 0 1-3.64-3.64z" fill="#FFAB19"/><path d="M113.236 48.357c-.974 1.34-2.764 1.7-3.998.803-1.234-.897-2.823-5.025-2.474-5.506.164-.225 1.221-.293 2.426-.21l.488.042c1.23.125 2.508.4 3.087.82 1.234.897 1.445 2.71.471 4.05zM28.764 41.357c.974 1.34 2.764 1.7 3.998.803 1.234-.897 2.823-5.025 2.474-5.506-.164-.225-1.221-.293-2.426-.21l-.488.042c-1.23.125-2.508.4-3.087.82-1.234.897-1.445 2.71-.471 4.05z" fill="#FFAB19" opacity=".618"/><circle fill="#FFAB19" cx="29.5" cy="22.505" r="2.5"/><path d="M81.732 112.914a3.64 3.64 0 0 1 3.641-3.64H95.91a3.64 3.64 0 1 1 0 7.28H85.373a3.64 3.64 0 0 1-3.64-3.64z" fill="#FFAB19"/><path d="M93.336 98.859a10 10 0 0 1-10.496 7.978l-44.33-3.1c-5.508-.385-9.662-5.164-9.277-10.673a10 10 0 0 1 1.934-5.246l.677-.922.959-1.325.6-.845.57-.813.538-.783.508-.751.476-.72.446-.69.415-.659.384-.627.354-.596.322-.566.292-.534 58.89 4.119-.533 2.9-.406 2.144-.563 2.913-.76 3.84-1 4.956z" fill="#E47900"/><path d="M75.5 84.005a1.5 1.5 0 0 1 1.5 1.5v8a1.5 1.5 0 0 1-3 0v-8a1.5 1.5 0 0 1 1.5-1.5zM82.5 86.005a1.5 1.5 0 0 1 1.5 1.5v8a1.5 1.5 0 0 1-3 0v-8a1.5 1.5 0 0 1 1.5-1.5z" fill="#FFF29D"/><path d="M56.535 18.796l2.133 13.466a6.972 6.972 0 0 1-5.796 7.977l-10.614 1.68-1.382-8.721c-1.017-6.423 3.365-12.455 9.788-13.472l5.87-.93z" fill="#E47900" opacity=".375"/><path d="M45.489 48.25a5.19 5.19 0 1 0-1.624-10.252 5.19 5.19 0 0 0 1.624 10.253z" fill="#FFAB19"/><path d="M69.295 22.736a7.305 7.305 0 0 1 8.358 6.072l.695 4.389a7.305 7.305 0 0 1-14.43 2.285l-.695-4.388a7.305 7.305 0 0 1 6.072-8.358zM85.482 20.262a7.305 7.305 0 0 0-6.36 8.141l.541 4.41a7.305 7.305 0 1 0 14.502-1.78l-.542-4.41a7.305 7.305 0 0 0-8.14-6.36z" fill="#FFF29D"/><path d="M86.831 23.112a3 3 0 0 0-2.612 3.343l.122.993a3 3 0 0 0 5.955-.731l-.122-.993a3 3 0 0 0-3.343-2.612z" fill="#E47900"/><path d="M58.697 34.041c8.66-3.205 16.955-1.123 24.182 5.865l.338.331-6.34 6.387c-4.821-4.785-9.505-6.077-14.742-4.255l-.314.113-3.124-8.44z" fill="#FFAB19" fill-rule="nonzero"/><path d="M97.05 32.104c-9.083 3.463-15.334 7.503-18.713 12.31l-.221.323 5.907 3.819c2.304-3.431 7.299-6.746 15.025-9.754l.543-.21-2.54-6.488z" fill="#FFAB19" fill-rule="nonzero"/><circle fill="#FFF29D" cx="83.5" cy="25.505" r="2.5"/><path d="M60.906 44.417l-1.152 9.964a1.487 1.487 0 0 0 2.004 1.562c4.178-1.583 7.573-2.366 10.154-2.366 2.526 0 5.19.753 8.002 2.282a1.488 1.488 0 0 0 2.194-1.195l.003-.121a18.61 18.61 0 0 0-9.295-16.112 7.972 7.972 0 0 0-11.91 5.986z" fill="#E47900" fill-rule="nonzero"/><path d="M63.783 39.158a7.972 7.972 0 0 1 9.033-.727c.86.497 1.67 1.057 2.427 1.673a3.659 3.659 0 0 1-6.115-.692 3.642 3.642 0 0 1-2.695 1.186 3.65 3.65 0 0 1-2.805-1.309l.155-.131z" fill="#FFF29D" fill-rule="nonzero"/><path d="M84.204 43.25a2.87 2.87 0 0 0 1.182-3.882c-.306-.577-1.215-1.25-2.177-1.841l-.414-.249-.207-.12-.603-.334-.376-.2-.503-.257L80.35 36l-.056.37-.123.954-.065.62-.039.446-.032.462c-.074 1.246-.05 2.567.29 3.207a2.87 2.87 0 0 0 3.88 1.191z" fill="#F08E0A"/><path d="M73 25.005a3 3 0 0 1 3 3v1a3 3 0 1 1-6 0v-1a3 3 0 0 1 3-3z" fill="#E47900"/><circle fill="#FFF29D" cx="69.5" cy="26.505" r="2.5"/><path d="M65.91 47.668c4.564 0 8.497 2.702 10.286 6.594-1.47-.458-2.898-.685-4.284-.685-2.58 0-5.976.783-10.154 2.366a1.488 1.488 0 0 1-2.014-1.435l.01-.127.607-5.261a11.264 11.264 0 0 1 5.549-1.452z" fill="#FFA600" fill-rule="nonzero" opacity=".461"/><path d="M62.08 27.838c5.178-2.391 8.08-5.093 8.706-8.104.625-3.011-1.105-3.011-5.19 0l-5.469 3.396 1.953 4.708z" fill="#FFAB19"/></g></svg>