<svg id="Cover" xmlns="http://www.w3.org/2000/svg" viewBox="0 0 135 124"><defs><style>.cls-1{fill:#ff51be}</style></defs><path class="cls-1" d="M124 28v79a17 17 0 0 1-17 17H28a17 17 0 0 1-17-17V28a17 17 0 0 1 17-17h79a17 17 0 0 1 17 17z"/><path class="cls-1" d="M124 28v14.5L11 102.87V28a17 17 0 0 1 17-17h79a17 17 0 0 1 17 17z"/><path d="M45.63-.14A45.65 45.65 0 1 0 91.29 45.5 45.65 45.65 0 0 0 45.63-.14zm0 77.9a32.25 32.25 0 1 1 21.54-8.24 32.26 32.26 0 0 1-21.54 8.24z" fill="#ffe742"/><path d="M128.45 26a2.56 2.56 0 0 1-1.18 1.38l-.07.05L111.07 36l-14.61-5-2-4.6-5.37-12.15v-.08a2.61 2.61 0 0 1-.09-1.82l19.83 6.86z" fill="#75eff2"/><path d="M108.81 19.21a11.47 11.47 0 0 1-14.38 7.16l-5.34-12.12v-.08a2.61 2.61 0 0 1-.09-1.82z" fill="#22e5ea"/><path d="M128.45 26L89 12.35a2.67 2.67 0 0 1 1.16-1.53l6-3.73a3.59 3.59 0 0 1 3.11-.35l24.6 8.51a3.56 3.56 0 0 1 2.23 2.2l2.41 6.63a2.55 2.55 0 0 1-.06 1.92z" fill="#a4f4f6"/><path d="M89.35 29.14A45.65 45.65 0 1 0 135 74.78a45.64 45.64 0 0 0-45.65-45.64zm0 77.92a32.29 32.29 0 1 1 22.18-8.83 32.28 32.28 0 0 1-22.18 8.83z" fill="#ffc100"/><circle cx="97.97" cy="15.46" r="4.75" fill="#fff"/><path d="M79.64 24.57c-.83.33-1.66.63-2.52.9-1.66.53-3.33 1.07-5 1.67a32.14 32.14 0 0 1 5.29 23.69c.51-.19 1-.35 1.55-.51a25.22 25.22 0 0 1 3.94-.79 23.18 23.18 0 0 1 3.81-.27h2a15.63 15.63 0 0 0 1.92-.2l.45-.05c.09-1.17.15-2.35.15-3.54a45.47 45.47 0 0 0-6.05-22.7c-.94.32-1.89.61-2.84.89s-1.79.55-2.7.91z" fill="#ffe75e"/></svg>