<svg viewBox="0 0 135 124" fill="none" xmlns="http://www.w3.org/2000/svg"><rect x="11.109" y="11" width="113" height="113" rx="17" fill="#9069CD"/><path d="M83.586 60.258L72.14 43.188c-.485-.725-1.462-.965-2.14-.417-4.874 3.936-3.82 11.53-2.337 14.815.037.081.08.157.132.23C71.7 63.41 78.432 63.43 82.648 62.66c1.106-.202 1.564-1.468.938-2.401z" fill="#FFB100"/><path d="M8.951 37.693h.002c-.698-5.185 2.875-10.001 8.07-10.814l44.899-7.023c5.194-.812 10.067 2.682 10.985 7.833h.002l6.867 43.897a3.338 3.338 0 0 0 3.813 2.782l6.475-1.013a1.39 1.39 0 0 1 1.589 1.159c1.161 7.423-3.915 14.382-11.338 15.543l-59.37 9.287c-7.423 1.161-14.382-3.916-15.543-11.339a1.39 1.39 0 0 1 1.159-1.589l6.475-1.013a3.338 3.338 0 0 0 2.782-3.813L8.95 37.693z" fill="#FFB100"/><path d="M13.955 38.188l54.338-8.5 8.482 54.221-54.339 8.5-8.48-54.222z" fill="#FFC6B7"/><path d="M15.177 62.965a6.07 6.07 0 1 0-1.876-11.993 6.07 6.07 0 0 0 1.876 11.993zM74.697 53.655a6.07 6.07 0 1 0-1.876-11.993 6.07 6.07 0 0 0 1.876 11.993z" fill="#FFC6B7"/><path d="M19.924 93.793a1.669 1.669 0 0 1 1.39-1.906l56.372-8.818c.91-.142 1.764.48 1.906 1.391l.874 5.586c.143.91-.48 1.764-1.39 1.907l-56.372 8.817a1.668 1.668 0 0 1-1.906-1.39l-.874-5.587z" fill="#FF4B4B"/><path d="M11.17 51.733c.64-.376 1.36-.64 2.137-.761a6.07 6.07 0 0 1 5.836 2.41 6.765 6.765 0 0 0 1.58-5.495L19.41 39.49l-9.912 1.55 1.673 10.692zM68.003 45.747a6.07 6.07 0 0 1 7.077-4.016L73.41 31.044l-9.913 1.55 1.314 8.397a6.765 6.765 0 0 0 3.193 4.756z" fill="#FFB100"/><path d="M6.904 36.218a1.669 1.669 0 0 1 1.391-1.907l64.207-10.043c.91-.142 1.764.48 1.907 1.391l.711 4.55c.143.91-.48 1.764-1.39 1.906L9.523 42.16a1.669 1.669 0 0 1-1.907-1.391l-.712-4.55z" fill="#FF4B4B"/><path d="M46.676 88.852a1.202 1.202 0 0 1 1.012-1.09l3.625-.567a1.202 1.202 0 0 1 1.297.729l3.934 9.542a1.201 1.201 0 0 1-.925 1.645l-8.392 1.312a1.201 1.201 0 0 1-1.383-1.284l.832-10.287z" fill="#EBE3E3"/><path fill-rule="evenodd" clip-rule="evenodd" d="M72.507 71.8a.89.89 0 0 1 .096 1.255c-3.17 3.69-7.93 4.096-9.943 3.847a.89.89 0 1 1 .219-1.767c1.671.207 5.732-.165 8.373-3.24a.89.89 0 0 1 1.255-.095zM41.324 60.66a.89.89 0 0 1 .134 1.251c-3.259 4.037-7.793 4.777-10.208 4.497a.89.89 0 0 1 .205-1.768c1.939.224 5.818-.379 8.617-3.847a.89.89 0 0 1 1.252-.133z" fill="#FAB99C"/><path d="M43.99 51.464a8.831 8.831 0 1 1-17.45 2.73 8.831 8.831 0 0 1 17.45-2.73z" fill="#fff"/><path d="M43.749 51.502a8.831 8.831 0 1 0 17.45-2.73 8.831 8.831 0 0 0-17.45 2.73z" fill="#fff"/><path d="M41.67 51.827a2.27 2.27 0 1 1-4.485.702 2.27 2.27 0 0 1 4.485-.702zM46.069 51.139a2.27 2.27 0 1 0 4.485-.701 2.27 2.27 0 0 0-4.485.701z" fill="#3D3D3D"/><path fill-rule="evenodd" clip-rule="evenodd" d="M59.775 67.556c-1.295 1.085-2.407 2.984-2.95 4.464a5.285 5.285 0 1 1-9.922-3.644c.937-2.552 2.916-6.267 6.083-8.921 1.64-1.374 3.76-2.595 6.34-3.041 2.644-.457 5.38-.03 8.04 1.298a5.285 5.285 0 0 1-4.716 9.458c-.82-.409-1.283-.383-1.524-.341-.307.053-.76.232-1.351.727z" fill="#702323"/><path fill-rule="evenodd" clip-rule="evenodd" d="M62.785 73.629a5.408 5.408 0 0 0-.216.5c-2.171 5.912-8.724 8.945-14.636 6.774-5.912-2.171-8.945-8.724-6.774-14.636 1.165-3.172 3.645-7.94 7.898-11.502 2.244-1.88 5.329-3.707 9.226-4.38 4.038-.699 8.09-.007 11.814 1.85 5.637 2.812 7.927 9.659 5.117 15.295-2.347 4.706-7.508 7.08-12.429 6.099zm-5.96-1.61c.543-1.48 1.655-3.378 2.95-4.463.591-.495 1.044-.674 1.35-.727.242-.042.705-.068 1.525.341a5.285 5.285 0 0 0 4.717-9.458c-2.661-1.327-5.397-1.755-8.042-1.298-2.579.446-4.7 1.667-6.339 3.04-3.167 2.655-5.146 6.37-6.083 8.922a5.285 5.285 0 1 0 9.922 3.644z" fill="#FFC6B7"/><path d="M69.33 59.4a5.262 5.262 0 0 0-1.964-1.688c-2.66-1.327-5.397-1.755-8.041-1.298-2.58.446-4.7 1.667-6.34 3.04-1.176.986-2.188 2.119-3.044 3.283.44.282.982.41 1.54.322l2.713-.424a2.226 2.226 0 0 0 1.817-1.663 2.226 2.226 0 0 0 2.237 1.029l2.713-.425a2.226 2.226 0 0 0 1.817-1.662 2.226 2.226 0 0 0 2.237 1.028l2.713-.424c.705-.11 1.28-.54 1.602-1.119z" fill="#fff"/><path d="M46.581 70.055c.934-.443 1.946-.76 3.019-.927a10.98 10.98 0 0 1 7.756 1.678c-.21.419-.389.83-.53 1.213a5.285 5.285 0 0 1-10.245-1.964z" fill="#B23232"/><path d="M44.077 52.815c.143-.023 1.722 1.788 3.34 3.693 1.61 1.896.507 4.806-1.95 5.19-2.458.385-4.396-2.05-3.442-4.347.958-2.308 1.909-4.514 2.052-4.536z" fill="#F3A577"/><path d="M32.874 10.46l-.924-5.023c-.173-.997-1.035-1.388-1.928-.914-4.291 2.278-6.686 7.134-5.836 12.05a11.782 11.782 0 0 0 .139.678 11.266 11.266 0 0 0-6.29 2.118c-.82.592-.85 1.538-.032 2.133l8.823 6.566c2.445 5.528 8.373 8.953 14.628 7.975 7.466-1.168 12.572-8.167 11.404-15.633-1.168-7.466-8.167-12.572-15.633-11.404a13.663 13.663 0 0 0-4.35 1.455z" fill="#FFB100"/><path d="M24.236 55.655a1.942 1.942 0 1 1-3.836.6 1.942 1.942 0 0 1 3.837-.6zM65.772 39.035a1.942 1.942 0 1 1-3.837.6 1.942 1.942 0 0 1 3.837-.6zM22.518 60.746l2.617 1.987c2.22 1.686 1.33 5.21-1.424 5.641-2.753.43-4.676-2.654-3.078-4.937l1.885-2.691z" fill="#BBF2FF"/><path fill-rule="evenodd" clip-rule="evenodd" d="M48.874 34.974a2.781 2.781 0 0 0 1.9 3.445c2.626.759 5.58.824 7.312.663a2.782 2.782 0 0 0-.515-5.539c-1.227.114-3.455.051-5.252-.468a2.781 2.781 0 0 0-3.445 1.9zM36.44 40.939a2.781 2.781 0 0 1-.756 3.86c-2.269 1.525-5.062 2.489-6.76 2.864a2.781 2.781 0 0 1-1.202-5.431c1.204-.266 3.305-1.006 4.858-2.05a2.781 2.781 0 0 1 3.86.757z" fill="#FFB100"/><path d="M128.433 67.886c4.338-5.952 2.782-14.326-3.404-18.323s-14.46-1.972-18.102 4.43l-5.954 10.462a3.956 3.956 0 0 0 1.292 5.28l13.734 8.872a3.955 3.955 0 0 0 5.343-.993l7.091-9.728z" fill="#C4C4C4"/><path d="M111.993 81.694a1.978 1.978 0 0 0-.547-2.796l-7.574-4.892a1.978 1.978 0 0 0-2.773.65l-21.121 35.519a1.978 1.978 0 0 0 .627 2.672l4.998 3.229a1.977 1.977 0 0 0 2.694-.527l23.696-33.855z" fill="#4B4B4B"/><path d="M116.111 80.135a.989.989 0 0 0-.144-1.549l-13.67-8.83a.99.99 0 0 0-1.471.505l-1.512 4.34c-.15.43.014.909.397 1.156l11.848 7.654c.383.247.886.2 1.217-.113l3.335-3.163z" fill="#3C3C3C"/><rect width="27.13" height="5.364" rx=".989" transform="scale(-1 1) rotate(-32.863 55.612 251.553)" fill="#DEDEDE"/><path d="M113.997 49.895a.522.522 0 0 0-.872.447l.102.855a.524.524 0 0 1-.134.415l-.582.634a.523.523 0 0 0 .447.872l.855-.102a.522.522 0 0 1 .415.134l.634.582c.357.328.93.034.872-.447l-.102-.855a.523.523 0 0 1 .134-.415l.582-.634a.523.523 0 0 0-.447-.872l-.855.102a.521.521 0 0 1-.415-.134l-.634-.582zM110.924 57.175a.522.522 0 0 0 .447.873l.854-.103a.525.525 0 0 1 .416.134l.633.582c.358.328.93.035.873-.447l-.103-.854a.523.523 0 0 1 .134-.416l.582-.633a.523.523 0 0 0-.447-.873l-.854.103a.524.524 0 0 1-.416-.134l-.634-.582a.523.523 0 0 0-.872.447l.103.854a.524.524 0 0 1-.134.416l-.582.633zM117.339 56.414a.522.522 0 0 0-.872.447l.102.854a.524.524 0 0 1-.134.416l-.582.633a.523.523 0 0 0 .447.872l.854-.102a.523.523 0 0 1 .416.134l.634.582c.357.328.93.035.872-.447l-.102-.854a.516.516 0 0 1 .134-.416l.581-.634a.522.522 0 0 0-.447-.872l-.854.102a.521.521 0 0 1-.415-.133l-.634-.582zM117.441 53.835a.523.523 0 0 0 .447.872l.855-.102a.521.521 0 0 1 .415.134l.634.581c.357.328.93.035.872-.447l-.102-.854a.523.523 0 0 1 .134-.415l.582-.634a.523.523 0 0 0-.447-.872l-.855.102a.521.521 0 0 1-.415-.134l-.634-.582a.522.522 0 0 0-.872.447l.102.854a.524.524 0 0 1-.134.416l-.582.634z" fill="#4B4B4B" fill-opacity=".15"/></svg>