<svg viewBox="0 0 135 124" fill="none" xmlns="http://www.w3.org/2000/svg"><path d="M105.617 11h-79c-9.389 0-17 7.61-17 17v78.999c0 9.389 7.611 17 17 17h79c9.389 0 17-7.611 17-17v-79c0-9.389-7.611-17-17-17z" fill="#FEC701"/><path opacity=".883" d="M46.004 11c-2.066 10.58-11.387 18.565-22.573 18.565-5.077 0-9.77-1.645-13.574-4.431 1.362-8.024 8.347-14.135 16.76-14.135h19.387z" fill="#F89700"/><path fill-rule="evenodd" clip-rule="evenodd" d="M122.617 28v16.824c-9.888-2.576-17.186-11.565-17.186-22.259a22.9 22.9 0 0 1 2.984-11.337c8.058 1.335 14.202 8.336 14.202 16.771z" fill="#F89700"/><path d="M81.431 98.565c12.703 0 23 10.298 23 23 0 .823-.043 1.635-.127 2.435H58.559c-.085-.8-.128-1.612-.128-2.435 0-12.702 10.298-23 23-23z" fill="#F89700"/><path fill-rule="evenodd" clip-rule="evenodd" d="M90.41 94.824l-6.77 14.516-3.94 14.424-.068.234-34.221.002c-.62-.977-.34-1.994-.34-1.994l.129-1.345a2.732 2.732 0 0 0-4.565-2.274l-1.12 1.028c-.773 1.2-1.884 1.463-3.334.787l-14.043-6.549c-6.493-3.028-9.303-10.746-6.275-17.24.31-.665.677-1.303 1.095-1.906l8.51-12.28L32.242 67.7 90.41 94.824z" fill="#F68B00"/><path d="M34.35 63.183l15.35-32.92c3.028-6.493 10.746-9.302 17.24-6.274l34.653 16.159c6.493 3.028 9.302 10.746 6.274 17.24l-16.134 34.6-57.384-28.805z" fill="#FFB100"/><path fill-rule="evenodd" clip-rule="evenodd" d="M19.502 36.9l1.534 3.614c.043.1.08.202.112.303a3.329 3.329 0 0 1 5.743 3.134l-1.06 3.265c.506.826.369 1.92-.377 2.59l-6.85 6.169a2.048 2.048 0 0 1-2.893-.152l-3.667-4.073a3.316 3.316 0 0 1-1.421-.14l-2.273-.74a3.329 3.329 0 0 1 .96-6.494l-1.436-1.595a3.329 3.329 0 0 1 4.947-4.454l.324.36a3.33 3.33 0 0 1 6.357-1.788zm110.576 52.337a3.328 3.328 0 0 0-3.442-3.21l-.484.017a3.33 3.33 0 0 0-3.131-5.815l-3.665 1.407a3.6 3.6 0 0 0-.297.13 3.328 3.328 0 0 0-6.242-1.955l-1.613 3.031a2.05 2.05 0 0 0-1.602 2.071l.322 9.212a2.049 2.049 0 0 0 2.119 1.975l5.477-.19c.283.372.649.69 1.088.924l2.11 1.122a3.329 3.329 0 0 0 4.005-5.202l2.145-.075a3.328 3.328 0 0 0 3.21-3.442z" fill="#FFB100"/><path d="M88.766 84.453l-52.15-24.318-10.67-12.717-9.938 8.339 14.015 16.702-4.418 9.474 58.168 27.124 5.423-11.63 22.688-1.586-.905-12.941-22.213 1.553z" fill="#F89700"/><path fill-rule="evenodd" clip-rule="evenodd" d="M5.73 104.774a4.013 4.013 0 0 1 5.587.985l6.658 9.508a4.012 4.012 0 0 1-6.572 4.602l-6.657-9.508a4.012 4.012 0 0 1 .985-5.587z" fill="#F68B00"/><path fill-rule="evenodd" clip-rule="evenodd" d="M107.867 57.387l-4.109 8.811a7.681 7.681 0 0 1-3.408-10.056l5.806-12.45c3.05 3.736 3.886 9.032 1.711 13.695zm-44.92-34.532l-6.068 13.016a7.681 7.681 0 0 1-10.208 3.715l-1.083-.506 4.112-8.817c2.423-5.195 7.849-8.032 13.247-7.408z" fill="#FFA800"/><path d="M69.855 52.74a.91.91 0 0 1 .913.792l.008.106c.006 1.095-.256 2.604-1.061 4.121a7.524 7.524 0 0 1-1.853 2.295.91.91 0 1 1-1.16-1.402 5.711 5.711 0 0 0 1.405-1.746c.37-.699.611-1.456.743-2.216.047-.27.077-.523.094-.749l.011-.237v-.047a.91.91 0 0 1 .9-.918z" fill="#F68B00"/><path fill-rule="evenodd" clip-rule="evenodd" d="M100.015 3.217l-.608 36.022L69.5 25.293l27.205-23.62a2 2 0 0 1 3.311 1.544z" fill="#F89700"/><path fill-rule="evenodd" clip-rule="evenodd" d="M78.85 23.906a9.5 9.5 0 0 1 9.476 10.165l-16.078-7.497a9.469 9.469 0 0 1 6.601-2.668zM93.494 4.461a9.465 9.465 0 0 1 .855 3.945A9.5 9.5 0 0 1 79.73 16.41L93.494 4.461zm6.252 14.679l-.31 18.456c-4.078-1.068-7.087-4.778-7.087-9.19 0-4.524 3.162-8.31 7.397-9.267z" fill="#F68B00"/><path d="M77.249 46.435a9.5 9.5 0 0 0-4.595-12.625c-4.185-1.952-9.066-.592-11.687 3.004 5.811 3.797 10.465 8.39 13.902 13.758a9.501 9.501 0 0 0 1.538-2.332l.842-1.805z" fill="#FFDA00"/><path d="M73.527 48.6l1.553-3.331a3.613 3.613 0 0 0-2.897-5.12c.102.57.036 1.175-.227 1.74l-.076.152a2.903 2.903 0 0 1-2.613 1.523 43.716 43.716 0 0 1 4.26 5.035z" fill="#F89700"/><path d="M78.935 46.67a9 9 0 0 1 17.031 5.313c-6.546-1.69-12.625-1.954-18.945-.663a9.03 9.03 0 0 1 .65-1.939l1.264-2.712z" fill="#FFDA00"/><path d="M83.537 45.99a3.614 3.614 0 0 1 3.607 4.577 38.974 38.974 0 0 0-8.102.392l1.073-2.301a2.903 2.903 0 0 0 3.422-2.668z" fill="#F89700"/><path fill-rule="evenodd" clip-rule="evenodd" d="M74.013 55.169a3.162 3.162 0 0 0 4.2-1.534c.739-1.584-.376-6.665-.376-6.665s-4.61 2.412-5.348 3.996a3.161 3.161 0 0 0 1.524 4.203z" fill="#F68B00"/><path d="M70.85 58h-6a2.5 2.5 0 0 0 0 5h6a2.5 2.5 0 0 0 0-5z" fill="#FFDA00"/><path fill-rule="evenodd" clip-rule="evenodd" d="M35.845 48.305c2.389.066 4.94.603 7.654 1.605a1 1 0 0 1 .325 1.679c-2.15 1.953-2.082 3.074-.565 4.616l.22.217.255.24.365.337h18.75a3.5 3.5 0 1 1 0 7h-21c-.324 0-.637-.044-.934-.126l-.143.008c-2.946.107-6.01-1.407-7.648-4.077-2.444-3.987-1.734-7.84 2.022-11.241a1 1 0 0 1 .699-.258z" fill="#F68B00"/><path d="M76.825 56.704a.91.91 0 0 0-1.206-.45 4.251 4.251 0 0 0-.516.294c-2.468 1.6-4.215 4.652-3.919 9.464.035.566.1 1.15.194 1.754a.91.91 0 0 0 1.798-.282 16.916 16.916 0 0 1-.175-1.584c-.246-3.992 1.064-6.414 2.917-7.707l.175-.118a3.26 3.26 0 0 1 .252-.15l.03-.015a.91.91 0 0 0 .45-1.206z" fill="#F68B00"/><path d="M60.198 76.072c.663.598.749 1.598.22 2.297l-.38.435c-1.654 1.878-2.981 3.139-4.828 4.278-2.972 1.834-6.154 2.387-9.42 1.173a1.707 1.707 0 0 1 1.188-3.2c2.182.81 4.298.443 6.44-.878 1.386-.856 2.46-1.845 3.774-3.309l.595-.67c.63-.7 1.71-.757 2.41-.126zm7.766 3.614a1.707 1.707 0 0 1 .882 2.132l-.235.527c-1.034 2.28-1.934 3.873-3.367 5.503-2.306 2.622-5.188 4.081-8.667 3.875a1.707 1.707 0 0 1 .202-3.408c2.324.138 4.24-.832 5.901-2.722 1.076-1.223 1.814-2.484 2.643-4.268l.372-.814a1.707 1.707 0 0 1 2.269-.825z" fill="#FFE000"/><path d="M101.763 74.316a5.718 5.718 0 1 0 4.833-10.365 5.718 5.718 0 0 0-4.833 10.365zM40.346 45.678a5.718 5.718 0 1 0 4.833-10.366 5.718 5.718 0 0 0-4.833 10.366z" fill="#FFB100"/></svg>