<svg viewBox="0 0 135 124" fill="none" xmlns="http://www.w3.org/2000/svg"><g clip-path="url(#clip0)"><path d="M11 28c0-9.389 7.611-17 17-17h79c9.389 0 17 7.611 17 17v79c0 9.389-7.611 17-17 17H28c-9.389 0-17-7.611-17-17V28z" fill="#FFCA00"/><path d="M122.278 20.93L20.758 122.45a16.937 16.937 0 0 0 7.08 1.56h41.32l54.68-54.68V28.01a16.938 16.938 0 0 0-1.56-7.08zm-72.12 48.14l58-58c-.43 0-.87-.07-1.31-.07h-48.59l-33.08 33.09c-6.904 6.904-6.904 18.096 0 25 6.903 6.904 18.096 6.904 25 0l-.02-.02z" fill="#FFD900"/><path d="M2.555 45.971c-.679-11.179 7.834-20.791 19.013-21.47l23.356-1.417c11.18-.679 20.792 7.834 21.47 19.013.679 11.179-7.834 20.792-19.013 21.47l-23.356 1.418c-11.179.678-20.792-7.834-21.47-19.014z" fill="#F68B00"/><path d="M66.378 44.838c-.733 9.97-8.743 18.107-18.996 18.729l-23.356 1.418c-10.253.622-19.188-6.487-21.122-16.294l63.474-3.853z" fill="#FFF1A2"/><path d="M11.76 48.153l4.284-.26a5.268 5.268 0 0 0 4.94-5.578l-.351-5.772 26.676-1.62.35 5.773a5.268 5.268 0 0 0 5.578 4.94l4.77-.29a19.49 19.49 0 0 1 2.459 8.384l.802 13.209a6.926 6.926 0 0 1-6.494 7.333L18.47 76.475a6.926 6.926 0 0 1-7.333-6.493l-.802-13.21a19.492 19.492 0 0 1 1.427-8.619z" fill="#FFB100"/><path d="M42.256 11.09c.327 5.383-3.772 10.01-9.153 10.337-5.382.326-10.01-3.772-10.337-9.153-.326-5.382 3.772-10.01 9.154-10.337 5.382-.326 10.01 3.772 10.336 9.154z" fill="#F68B00"/><path d="M23.463 47.385a5.237 5.237 0 1 1 10.455-.634l.196 3.225a5.237 5.237 0 0 1-10.455.634l-.195-3.225zM46.297 46a5.237 5.237 0 1 0-10.454.634l.196 3.225a5.237 5.237 0 1 0 10.454-.635L46.297 46z" fill="#FFF1A2"/><path d="M28.049 47.166a1.718 1.718 0 0 0 1.498-2.336 2.359 2.359 0 0 1 2.936 2.143l.18 2.955a2.359 2.359 0 0 1-4.709.286l-.18-2.955a2.698 2.698 0 0 1-.003-.098c.09.009.184.01.278.005zM37.568 46.588a1.718 1.718 0 0 0 1.499-2.336 2.359 2.359 0 0 1 2.936 2.143l.179 2.956a2.359 2.359 0 1 1-4.708.285l-.18-2.955a2.492 2.492 0 0 1-.004-.098c.091.01.184.011.278.005z" fill="#F68B00"/><path fill-rule="evenodd" clip-rule="evenodd" d="M17.486 49.204a.564.564 0 0 1 .721-.343l3.853 1.369a.564.564 0 0 1 .079 1.029l-3.65 1.965a.565.565 0 0 1-.536-.994l2.53-1.362-2.654-.943a.564.564 0 0 1-.343-.72zM52.451 47.082a.565.565 0 0 0-.757-.253l-3.66 1.824a.565.565 0 0 0 .047 1.031l3.862 1.51a.565.565 0 0 0 .41-1.052l-2.676-1.046 2.52-1.257a.564.564 0 0 0 .254-.757zM40.83 69.37a.565.565 0 0 1-.18.777c-3.56 2.224-7.25 1.284-8.689.512a.564.564 0 1 1 .534-.995c1.192.64 4.434 1.477 7.557-.474a.565.565 0 0 1 .778.18z" fill="#FF9600"/><path d="M36.018 65.44c-2.278 1.45-5.675 2.255-9.41 2.02-6.564-.411-11.688-3.875-11.445-7.736.242-3.862 5.759-6.658 12.322-6.247 3.114.196 5.904 1.079 7.95 2.365 1.877-1.524 4.54-2.738 7.608-3.309 6.465-1.202 12.28.907 12.986 4.71.708 3.804-3.96 7.862-10.424 9.065-3.68.684-7.15.296-9.587-.868z" fill="#FFB100"/><path d="M35.076 49.915c.114-.007 1.222 1.535 2.352 3.155 1.125 1.612.04 3.819-1.921 3.938-1.962.12-3.306-1.94-2.384-3.677.926-1.744 1.839-3.409 1.953-3.416z" fill="#F68B00"/><path fill-rule="evenodd" clip-rule="evenodd" d="M27.707 57.034a.753.753 0 0 1 1.063.05c1.674 1.836 6.389 4.672 11.854 1.259a.753.753 0 0 1 .797 1.276c-6.303 3.937-11.801.632-13.763-1.521a.753.753 0 0 1 .05-1.064z" fill="#F68B00"/><path d="M22.36 41.98l24.322-1.477.497 8.198-24.322 1.476-.497-8.198z" fill="#FFB100"/><path fill-rule="evenodd" clip-rule="evenodd" d="M25.88 40.048a1.693 1.693 0 0 1 1.094-2.13 29.755 29.755 0 0 1 14.694-.89 1.693 1.693 0 0 1-.639 3.325 26.368 26.368 0 0 0-13.02.79 1.693 1.693 0 0 1-2.13-1.095z" fill="#F68B00"/><path d="M67.417 74.06c.799-9.11 8.831-15.85 17.942-15.05l9.55.836c9.11.799 15.848 8.831 15.05 17.941l-.033.375c-.799 9.11-8.831 15.848-17.941 15.05l-9.55-.837c-9.11-.798-15.849-8.83-15.05-17.941l.032-.375z" fill="#F68B00"/><path d="M65.927 95.192a4.955 4.955 0 0 0 1.69-.142c.473 7.686 6.508 14.076 14.412 14.768l24.632 2.159c7.929.695 15.004-4.585 16.779-12.11a4.965 4.965 0 1 0 .543-9.077c-1.023-7.109-6.82-12.843-14.282-13.497l-24.633-2.158c-7.433-.651-14.114 3.947-16.384 10.723a4.964 4.964 0 1 0-2.757 9.333z" fill="#FFB100"/><path d="M123.335 88.056l-8.302-.727a5.887 5.887 0 0 1-5.351-6.38l.318-3.626c6.339.675 11.431 5.024 13.335 10.733z" fill="#FF9600"/><path d="M68.815 95.805a2.392 2.392 0 1 1-4.767-.418 2.392 2.392 0 0 1 4.767.418z" fill="#F68B00"/><path d="M97.446 88.587a5.52 5.52 0 0 1 5.98-5.017l.205.018a5.518 5.518 0 0 1 5.016 5.98l-.32 3.66a5.52 5.52 0 0 1-5.981 5.017l-.204-.018a5.52 5.52 0 0 1-5.017-5.98l.32-3.66z" fill="#FFF1A2"/><path d="M95.558 86.38a5.52 5.52 0 0 0-5.017-5.98l-.205-.018a5.52 5.52 0 0 0-5.98 5.017l-.498 5.686a5.52 5.52 0 0 0 5.016 5.98l.205.018a5.52 5.52 0 0 0 5.98-5.017l.499-5.686z" fill="#F68B00"/><path d="M84.178 87.425a5.52 5.52 0 0 1 5.98-5.017l.205.018a5.52 5.52 0 0 1 5.017 5.98l-.32 3.66a5.52 5.52 0 0 1-5.981 5.017l-.205-.018a5.52 5.52 0 0 1-5.017-5.98l.321-3.66z" fill="#FFF1A2"/><path d="M67.29 75.509c.603-6.883 6.672-11.974 13.556-11.371l.931.081c6.884.604 11.975 6.673 11.371 13.556l-.081.931c-.603 6.884-6.672 11.975-13.556 11.372l-.931-.082c-6.884-.603-11.975-6.672-11.371-13.555l.081-.932z" fill="#3D3D3D"/><path fill-rule="evenodd" clip-rule="evenodd" d="M105.895 84.103a5.256 5.256 0 0 1 2.244 2.395 5.26 5.26 0 0 1 .392 3.258 2.168 2.168 0 0 1-4.251-.85.927.927 0 0 0-.07-.576.923.923 0 0 0-.396-.424 2.169 2.169 0 0 1 2.081-3.803zM92.635 82.94c.95.521 1.752 1.34 2.244 2.396a5.255 5.255 0 0 1 .391 3.258 2.168 2.168 0 0 1-4.25-.851.92.92 0 0 0-.07-.576.92.92 0 0 0-.396-.423 2.168 2.168 0 1 1 2.081-3.803z" fill="#F68B00"/><path d="M121.546 95.396c.448 2.542-6.401 5.874-15.298 7.441-8.897 1.568-16.472.777-16.92-1.765-.448-2.542 6.401-5.873 15.298-7.44 8.897-1.568 16.472-.778 16.92 1.764z" fill="#FFB100"/><path d="M95.974 93.993c.111.01.96 1.66 1.82 3.39.855 1.721-.512 3.7-2.427 3.532-1.914-.168-2.917-2.354-1.775-3.9 1.148-1.553 2.27-3.032 2.382-3.022z" fill="#F68B00"/><path fill-rule="evenodd" clip-rule="evenodd" d="M104.377 101.233c.552.26.788.918.528 1.47-1.015 2.15-2.644 3.21-4.273 3.61a7.4 7.4 0 0 1-4.086-.191 1.103 1.103 0 1 1 .738-2.08 5.218 5.218 0 0 0 2.821.128c1.033-.255 2.094-.906 2.803-2.409.26-.552.918-.788 1.469-.528z" fill="#F68B00"/><path d="M67.291 75.509c.603-6.883 6.672-11.974 13.556-11.371l.931.081c6.884.604 11.975 6.673 11.371 13.556l-.081.931c-.603 6.884-6.672 11.975-13.556 11.372l-.931-.082c-6.884-.603-11.975-6.672-11.371-13.555l.081-.932z" fill="#F68B00"/><path d="M97.63 86.49l.444-5.07 10.006-2.98-.458 5.226-9.993 2.824z" fill="#FFB100"/><path fill-rule="evenodd" clip-rule="evenodd" d="M108.825 83.325a1.25 1.25 0 0 1-.863 1.544l-9.993 2.823a1.25 1.25 0 0 1-1.585-1.312l.223-2.552a1.25 1.25 0 1 1 2.492.218l-.066.747 8.249-2.33a1.25 1.25 0 0 1 1.543.862zM31.253 108.321l10.191-.59a2.874 2.874 0 0 1 3.035 2.703l.163 2.82a2.874 2.874 0 0 1-2.703 3.035l-10.192.589a2.874 2.874 0 0 1-3.034-2.703l-.163-2.82a2.873 2.873 0 0 1 2.703-3.034z" fill="#F68B00"/><path fill-rule="evenodd" clip-rule="evenodd" d="M24.017 85.39l21.973-1.27c5.017-.29 9.291 3.06 9.547 7.484l.409 7.08c.482 8.335-6.79 15.534-16.242 16.081l-5.912.341c-9.452.547-17.505-5.767-17.986-14.101l-.41-7.08c-.255-4.424 3.604-8.246 8.621-8.536z" fill="#F68B00"/><path d="M53.346 97.966a9.04 9.04 0 0 1-7.07 4.108l-20.474 1.183a9.037 9.037 0 0 1-7.497-3.265 7.778 7.778 0 0 1 7.308-8.335l19.514-1.128a7.778 7.778 0 0 1 8.22 7.438z" fill="#FF9600"/><path fill-rule="evenodd" clip-rule="evenodd" d="M24.826 86.373a7.86 7.86 0 1 0 .907 15.694l20.474-1.183a7.86 7.86 0 0 0-.907-15.695l-20.474 1.184zm-9.774 8.438c-.326-5.648 3.988-10.491 9.636-10.818l20.475-1.183c5.648-.327 10.491 3.987 10.818 9.636.326 5.648-3.988 10.491-9.636 10.818l-20.474 1.183c-5.649.326-10.492-3.988-10.819-9.636z" fill="#FFF1A2"/><path d="M33.897 86.439a3.458 3.458 0 0 1 .99-4.789l1.955 2.975a3.458 3.458 0 0 1-.991 4.788l-1.954-2.974zM24.467 92.634a3.458 3.458 0 0 0-4.789-.99l1.955 2.974a3.458 3.458 0 0 0 4.788.99l-1.954-2.974z" fill="#FFB100"/><path fill-rule="evenodd" clip-rule="evenodd" d="M36.282 86.682l2.693 4.1a3.973 3.973 0 0 1-1.139 5.502l-5.896 3.875a3.973 3.973 0 0 1-5.503-1.139l-2.693-4.1a6.357 6.357 0 0 1 1.822-8.803l1.912-1.257a6.357 6.357 0 0 1 8.804 1.822z" fill="#FFB100"/><path d="M25.358 83.712a2.548 2.548 0 0 1 1.052-3.446l3.418-1.819 1.227 2.306a2.548 2.548 0 0 1-1.052 3.446l-3.418 1.819-1.227-2.306z" fill="#FFB100"/><path d="M25.358 83.712a2.548 2.548 0 0 0-3.446-1.052l-3.418 1.819 1.227 2.305a2.548 2.548 0 0 0 3.446 1.053l3.418-1.819-1.227-2.306z" fill="#FFB100"/><path d="M20.927 95.102l20.22-1.169.293 5.063a1.588 1.588 0 0 1-1.495 1.678l-13.73.794a1.589 1.589 0 0 1-1.402-.689l-3.886-5.677z" fill="#FF9600"/><path d="M38.052 94.112a2.184 2.184 0 1 1-4.36.252 2.184 2.184 0 0 1 4.36-.252z" fill="#FF9600"/><path d="M41.886 95.039a2.184 2.184 0 1 1-4.36.252 2.184 2.184 0 0 1 4.36-.252zM29.269 94.62a2.184 2.184 0 1 1-4.36.252 2.184 2.184 0 0 1 4.36-.252zM26.16 91.097a1.121 1.121 0 1 1-2.24.13 1.121 1.121 0 0 1 2.24-.13zM40.04 90.896a1.122 1.122 0 1 1-2.24.13 1.122 1.122 0 0 1 2.24-.13z" fill="#FF9600"/><path opacity=".536" d="M25.454 95.681l-1.897.11a1.685 1.685 0 0 0 .194 3.365l1.898-.11a1.685 1.685 0 1 0-.195-3.365zM33.27 97.684l-1.898.11a1.685 1.685 0 0 0 .195 3.365l1.897-.11a1.685 1.685 0 1 0-.194-3.365zM41.87 94.004l-1.897.11a1.685 1.685 0 1 0 .194 3.365l1.898-.11a1.685 1.685 0 1 0-.195-3.365zM49.235 94.615l-1.897.11a1.685 1.685 0 0 0 .194 3.365l1.898-.11a1.685 1.685 0 0 0-.195-3.365z" fill="#F17E00"/><path fill-rule="evenodd" clip-rule="evenodd" d="M55.859 77.405a1.943 1.943 0 0 1 .863 2.609l-.008.017-9.282 18.021-3.118.174L53.3 78.312a1.881 1.881 0 0 1 2.56-.907z" fill="#FFB100"/><path d="M112.01 28.786c0-.602.488-1.09 1.09-1.09h2.105c.602 0 1.09.488 1.09 1.09v24.395a1.09 1.09 0 0 1-1.09 1.09H113.1a1.09 1.09 0 0 1-1.09-1.09V28.786zM85.576 28.786c0-.602.488-1.09 1.09-1.09h2.105c.602 0 1.09.488 1.09 1.09v24.395a1.09 1.09 0 0 1-1.09 1.09h-2.106a1.09 1.09 0 0 1-1.09-1.09V28.786z" fill="#F68B00"/><path d="M114.152 28.786c0-.602.488-1.09 1.09-1.09h.729c.602 0 1.09.488 1.09 1.09v24.395a1.09 1.09 0 0 1-1.09 1.09h-.729a1.09 1.09 0 0 1-1.09-1.09V28.786zM87.718 28.786c0-.602.488-1.09 1.09-1.09h.73c.601 0 1.089.488 1.089 1.09v24.395a1.09 1.09 0 0 1-1.09 1.09h-.729a1.09 1.09 0 0 1-1.09-1.09V28.786z" fill="#FF9600"/><path d="M100.567 28.786c0-.602.488-1.09 1.09-1.09h2.105c.602 0 1.09.488 1.09 1.09v24.395a1.09 1.09 0 0 1-1.09 1.09h-2.105a1.09 1.09 0 0 1-1.09-1.09V28.786zM74.133 28.786c0-.602.488-1.09 1.09-1.09h2.105c.602 0 1.09.488 1.09 1.09v24.395a1.09 1.09 0 0 1-1.09 1.09h-2.105a1.09 1.09 0 0 1-1.09-1.09V28.786z" fill="#F68B00"/><path d="M102.709 28.786c0-.602.488-1.09 1.09-1.09h.729c.602 0 1.09.488 1.09 1.09v24.395a1.09 1.09 0 0 1-1.09 1.09h-.729a1.09 1.09 0 0 1-1.09-1.09V28.786zM76.275 28.786c0-.602.488-1.09 1.09-1.09h.73c.601 0 1.09.488 1.09 1.09v24.395a1.09 1.09 0 0 1-1.09 1.09h-.73a1.09 1.09 0 0 1-1.09-1.09V28.786z" fill="#FF9600"/><path fill-rule="evenodd" clip-rule="evenodd" d="M110.603 1.15c.777.606.915 1.728.309 2.505l-.011.014-11.596 14.567-2.84-.403 11.669-16.325a1.727 1.727 0 0 1 2.469-.358z" fill="#FFF1A2"/><path fill-rule="evenodd" clip-rule="evenodd" d="M88.246 25.168c0-.602.488-1.09 1.09-1.09h11.231a1.09 1.09 0 1 1 0 2.18H89.336a1.09 1.09 0 0 1-1.09-1.09zM107.253 28.601H72.119a.604.604 0 0 0-.604.604v2.818c0 .334.27.604.604.604h35.134c.333 0 .604-.27.604-.604v-2.818a.604.604 0 0 0-.604-.604z" fill="#F68B00"/><path fill-rule="evenodd" clip-rule="evenodd" d="M118.19 28.601h-16.694a.604.604 0 0 0-.604.604v2.818c0 .334.27.604.604.604h16.694c.334 0 .604-.27.604-.604v-2.818a.604.604 0 0 0-.604-.604z" fill="#FF9600"/><path fill-rule="evenodd" clip-rule="evenodd" d="M112.114 25.783H70.711a.604.604 0 0 0-.604.604v2.617c0 .334.27.604.604.604h41.403c.333 0 .604-.27.604-.604v-2.617a.604.604 0 0 0-.604-.604z" fill="#F68B00"/><path fill-rule="evenodd" clip-rule="evenodd" d="M119.191 25.784h-18.66a.604.604 0 0 0-.604.604v2.617c0 .333.271.604.604.604h18.66c.334 0 .604-.27.604-.604v-2.617a.604.604 0 0 0-.604-.604z" fill="#FFB100"/><path d="M81.673 10.777a2.18 2.18 0 0 1 2.18-2.18h22.272a2.18 2.18 0 0 1 2.18 2.18v3.052a2.18 2.18 0 0 1-2.18 2.18H83.852a2.18 2.18 0 0 1-2.18-2.18v-3.052z" fill="#FF9600"/><path d="M80.904 11.057h28.094v4.547a8.718 8.718 0 0 1-8.718 8.719H89.623a8.718 8.718 0 0 1-8.719-8.719v-4.547z" fill="#F68B00"/><path fill-rule="evenodd" clip-rule="evenodd" d="M78.672 11.136c0-.601.488-1.09 1.09-1.09h30.378a1.09 1.09 0 1 1 0 2.18H79.762a1.09 1.09 0 0 1-1.09-1.09z" fill="#FFB100"/></g><defs><clipPath id="clip0"><path fill="#fff" d="M0 0h135v124H0z"/></clipPath></defs></svg>