<svg viewBox="0 0 135 124" fill="none" xmlns="http://www.w3.org/2000/svg"><g clip-path="url(#clip0)"><rect x="11" y="11" width="113" height="113" rx="17" fill="#FFCA00"/><path d="M12.56 114.08L114.08 12.56A16.938 16.938 0 0 0 107 11H65.68L11 65.68V107c.003 2.445.535 4.86 1.56 7.08zm72.12-48.14l-58 58c.43 0 .87.07 1.31.07h48.59l33.08-33.09c6.904-6.904 6.904-18.096 0-25-6.903-6.904-18.096-6.904-25 0l.02.02z" fill="#FFD900"/><path d="M46.36 113.519l-6.735.005a.444.444 0 0 0-.432.552l.874 3.502a6.082 6.082 0 0 0 4.544 4.457l1.924.441a1.187 1.187 0 0 0 1.435-1.346l-1.172-7.238a.445.445 0 0 0-.439-.373z" fill="#E27800"/><path d="M24.35 87.094c-9.021-2.43-16.18-2.034-21.475 1.188-.422.256-.64.748-.549 1.233 1.149 6.087 5.642 11.673 13.48 16.757 7.665 4.972 19.28 9.55 34.848 13.736a3.854 3.854 0 0 0 4.522-2.154l4.115-9.239a3.855 3.855 0 0 0-1.424-4.803C44.342 95.042 33.17 89.47 24.35 87.094z" fill="#FF9600"/><path d="M24.35 87.094c-9.021-2.43-16.18-2.034-21.475 1.188-.422.256-.64.748-.549 1.233 1.149 6.087 5.642 11.673 13.48 16.757 7.665 4.972 19.28 9.55 34.848 13.736a3.854 3.854 0 0 0 4.522-2.154l4.115-9.239a3.855 3.855 0 0 0-1.424-4.803C44.342 95.042 33.17 89.47 24.35 87.094z" fill="#FF9600"/><path fill-rule="evenodd" clip-rule="evenodd" d="M108.402 86.41l-2.903-.495c-.642-.11-1.345.865-1.569 2.178l-2.859 16.745c-.225 1.313.115 2.466.757 2.576.229.039.475-.06.709-.285l.997-.955.622 1.232c.413.815 1.186.638 1.728-.397.192-.368.337-.812.416-1.278l2.86-16.745c.224-1.313-.116-2.466-.758-2.576z" fill="#FF9600"/><path fill-rule="evenodd" clip-rule="evenodd" d="M102.009 85.319l-2.902-.496c-.643-.11-1.346.866-1.57 2.179l-2.859 16.744c-.224 1.313.115 2.467.758 2.576.228.039.475-.06.709-.284l.996-.955.623 1.231c.412.816 1.186.638 1.727-.397a4.39 4.39 0 0 0 .417-1.278l2.859-16.744c.224-1.313-.115-2.467-.758-2.576z" fill="#FFBB31"/><path fill-rule="evenodd" clip-rule="evenodd" d="M93.535 84.95l-2.907-.508c-.644-.113-1.382.852-1.65 2.154l-3.413 16.608c-.267 1.303.038 2.45.681 2.562.229.04.48-.056.723-.278l1.034-.942.588 1.226c.39.812 1.174.64 1.752-.384.205-.364.365-.804.46-1.267l3.413-16.608c.268-1.302-.037-2.45-.681-2.562z" fill="#FF9600"/><path fill-rule="evenodd" clip-rule="evenodd" d="M87.077 83.962l-2.913-.473c-.645-.105-1.372.868-1.624 2.174l-3.211 16.648c-.252 1.306.067 2.449.712 2.554.23.037.48-.063.72-.287l1.022-.955.602 1.219c.4.807 1.182.626 1.748-.405.2-.366.355-.809.445-1.272l3.21-16.649c.252-1.305-.066-2.449-.711-2.554z" fill="#FFBB31"/><path d="M113.246 109.942a2.288 2.288 0 0 0-1.869-2.639l-26.32-4.494a2.286 2.286 0 0 0-2.64 1.869l-1.347 7.892a2.287 2.287 0 0 0 1.87 2.639l26.319 4.494a2.286 2.286 0 0 0 2.639-1.869l1.348-7.892z" fill="#FF9600"/><path d="M101.534 107.942a2.287 2.287 0 0 0-1.87-2.639l-23.483-4.009a2.286 2.286 0 0 0-2.64 1.869l-1.347 7.892a2.287 2.287 0 0 0 1.87 2.639l23.483 4.009a2.286 2.286 0 0 0 2.639-1.869l1.348-7.892z" fill="#FFBB31"/><path fill-rule="evenodd" clip-rule="evenodd" d="M94.752 110.548a1.518 1.518 0 0 0-2.115-.361l-3.152 2.233a1.517 1.517 0 1 0 1.754 2.476l3.151-2.233a1.517 1.517 0 0 0 .362-2.115zM86.447 105.568a1.517 1.517 0 0 0-2.115-.361l-3.152 2.232a1.517 1.517 0 1 0 1.754 2.476l3.151-2.232a1.517 1.517 0 0 0 .362-2.115z" fill="#FF9600"/><path d="M121.922 70.276a2.77 2.77 0 0 0-2.264-3.197l-5.646-.964-2.827 16.555a2.77 2.77 0 0 0 2.265 3.197l2.916.498a2.77 2.77 0 0 0 3.196-2.264l2.36-13.825z" fill="#FF9600"/><path fill-rule="evenodd" clip-rule="evenodd" d="M80.781 61.983l-3.569-1.37c-.73-.281-1.55.084-1.83.814l-1.268 3.305a4.956 4.956 0 0 0 2.85 6.403l.265.102a4.956 4.956 0 1 0 3.552-9.254z" fill="#FFBB31"/><path fill-rule="evenodd" clip-rule="evenodd" d="M119.693 83.335l-.511 2.989a7.913 7.913 0 0 1-9.133 6.469l-29.851-5.098a3.957 3.957 0 0 1-3.235-4.566l1.98-11.594a3.957 3.957 0 0 1 4.566-3.234l29.294 5.002-.862 5.052c-.371 2.17.664 4.157 2.311 4.438l4.102.7c.456.078.911.017 1.339-.158z" fill="#FFBB31"/><path fill-rule="evenodd" clip-rule="evenodd" d="M111.131 85.121a1.517 1.517 0 0 0-2.115-.361l-3.151 2.232a1.516 1.516 0 1 0 1.754 2.476l3.151-2.232a1.516 1.516 0 0 0 .361-2.115z" fill="#FFF1A2"/><path fill-rule="evenodd" clip-rule="evenodd" d="M92.247 72.61a1.517 1.517 0 0 0-2.115-.362L86.98 74.48a1.517 1.517 0 1 0 1.754 2.477l3.151-2.233a1.517 1.517 0 0 0 .362-2.115z" fill="#FF9600"/><path fill-rule="evenodd" clip-rule="evenodd" d="M132.956 61.897a1.444 1.444 0 0 1 .958 2.018 7.02 7.02 0 0 1-3.263 3.347 7.023 7.023 0 0 1-4.868.507 1.443 1.443 0 0 1-.957-2.018 7.024 7.024 0 0 1 8.13-3.854zM108.728 57.76a1.445 1.445 0 0 0-1.574 1.586 7.02 7.02 0 0 0 1.968 4.24 7.02 7.02 0 0 0 4.423 2.093 1.444 1.444 0 0 0 1.573-1.586 7.013 7.013 0 0 0-1.967-4.24 7.022 7.022 0 0 0-4.423-2.093zM119.377 56.094a1 1 0 0 1 1.154-.817l4.078.696a2.824 2.824 0 1 1-.951 5.57l-1.14-.195a3.981 3.981 0 0 1-3.254-4.594l.113-.66zM121.117 85.649a1 1 0 0 0 .843-1.136l-.605-4.092a2.825 2.825 0 0 0-5.589.827l.169 1.143a3.981 3.981 0 0 0 4.521 3.356l.661-.098z" fill="#FFF1A2"/><path fill-rule="evenodd" clip-rule="evenodd" d="M119.168 60.776l6.159 1.051c1.079.184 1.756 1.486 1.514 2.908l-2.207 12.922c-.37 2.17-2.005 3.7-3.652 3.42l-4.102-.701c-1.647-.281-2.682-2.268-2.311-4.438l2.206-12.922c.243-1.422 1.314-2.424 2.393-2.24z" fill="#FFBB31"/><path fill-rule="evenodd" clip-rule="evenodd" d="M118.004 61.274a3.499 3.499 0 0 0-4.038 2.86l-.099.576a3.5 3.5 0 0 0 6.9 1.178l.098-.575a3.499 3.499 0 0 0-2.861-4.039z" fill="#FFBB31"/><path fill-rule="evenodd" clip-rule="evenodd" d="M113.288 64.02a4.187 4.187 0 1 1 8.254 1.409l-.098.575a4.187 4.187 0 1 1-8.254-1.41l.098-.575zm4.601-2.069a2.812 2.812 0 0 0-3.246 2.3l-.099.575a2.813 2.813 0 0 0 5.546.946l.098-.575a2.813 2.813 0 0 0-2.299-3.246z" fill="#FFBB31"/><path d="M120.48 77.832a.62.62 0 0 1 .564 1.1l-1.38.707a.618.618 0 0 1-.749-.145l-.958-1.106a.618.618 0 0 1 .935-.81l.64.74.948-.486z" fill="#FF9600"/><path d="M117.191 71.355c-2.141.319-4.139-1.176-4.461-3.34-.323-2.164 1.151-4.176 3.293-4.496 2.141-.319 4.138 1.176 4.461 3.34.322 2.164-1.152 4.177-3.293 4.496zM126.24 72.9c-2.141.319-4.139-1.176-4.461-3.34-.323-2.164 1.152-4.177 3.293-4.496 2.141-.319 4.138 1.176 4.461 3.34.322 2.164-1.152 4.177-3.293 4.496z" fill="#FFF1A2"/><path d="M4.594 49.948c-1.22-12.167 7.654-23.02 19.822-24.24l25.42-2.548c12.166-1.22 23.019 7.654 24.239 19.821 1.22 12.167-7.655 23.02-19.822 24.24l-25.42 2.548C16.668 70.99 5.815 62.115 4.595 49.95z" fill="#E27800"/><path d="M74.174 45.973C73.802 56.88 65.413 66.1 54.254 67.22l-25.42 2.55C17.675 70.887 7.622 63.515 5.091 52.9l69.083-6.927z" fill="#FFF1A2"/><path d="M14.73 51.934l4.662-.468a5.752 5.752 0 0 0 5.15-6.297l-.63-6.282 29.033-2.912.63 6.282a5.752 5.752 0 0 0 6.297 5.15l5.192-.52a21.28 21.28 0 0 1 3.042 9.04l1.63 16.258a5.671 5.671 0 0 1-5.077 6.208l-43.276 4.34a5.671 5.671 0 0 1-6.208-5.077l-1.63-16.257a21.28 21.28 0 0 1 1.186-9.465z" fill="#FFBB31"/><path d="M46.41 10.19c.587 5.858-3.685 11.082-9.543 11.67-5.857.587-11.082-3.685-11.67-9.543C24.61 6.46 28.884 1.235 34.74.648c5.857-.587 11.082 3.685 11.67 9.542z" fill="#E27800"/><path d="M27.63 52.228a5.718 5.718 0 0 1 11.378-1.141l.352 3.51a5.718 5.718 0 1 1-11.378 1.141l-.352-3.51zM41.768 47.575a5.69 5.69 0 0 0-.666 3.302l.352 3.51a5.718 5.718 0 0 0 11.379-1.14l-.228-2.277a17.155 17.155 0 0 1-10.837-3.395z" fill="#FFF1A2"/><path d="M32.622 51.792a1.876 1.876 0 0 0 1.535-2.613 2.575 2.575 0 0 1 3.295 2.212l.323 3.217a2.575 2.575 0 0 1-5.125.514l-.322-3.217a2.587 2.587 0 0 1-.009-.106c.1.006.201.004.303-.007z" fill="#E27800"/><path fill-rule="evenodd" clip-rule="evenodd" d="M21.187 54.47a.616.616 0 0 1 .771-.406l4.263 1.328a.616.616 0 0 1 .13 1.119l-3.899 2.3a.616.616 0 0 1-.626-1.061l2.702-1.595-2.936-.914a.616.616 0 0 1-.405-.772zM59.24 50.653a.616.616 0 0 0-.836-.244l-3.914 2.148a.616.616 0 0 0 .095 1.122l4.278 1.481a.616.616 0 0 0 .403-1.164L56.3 52.969l2.696-1.479a.616.616 0 0 0 .244-.837z" fill="#F08904"/><path d="M42.266 73.022c-2.816 1.953-7.084 3.143-11.834 3.032-8.343-.194-15.014-4.332-14.899-9.24.115-4.91 6.97-8.73 15.314-8.536 3.96.092 7.542 1.073 10.201 2.602 2.303-2.027 5.62-3.699 9.482-4.576 8.138-1.847 15.617.537 16.704 5.325 1.087 4.789-4.63 10.168-12.768 12.015-4.633 1.052-9.052.732-12.2-.622z" fill="#FFBB31"/><path d="M40.407 54.49c.125-.012 1.399 1.623 2.701 3.341 1.297 1.71.209 4.165-1.927 4.38-2.135.214-3.69-1.976-2.758-3.91.935-1.943 1.86-3.798 1.984-3.81zM44.49 49.694a1.875 1.875 0 0 1-1.81 1.066l.008.107.323 3.216a2.575 2.575 0 0 0 5.124-.514l-.274-2.736a13.701 13.701 0 0 1-3.372-1.139z" fill="#E27800"/><path fill-rule="evenodd" clip-rule="evenodd" d="M40.556 45.98a1.849 1.849 0 0 1 2.579.434c.537.753 3.39 3.172 9.2 2.892A1.849 1.849 0 0 1 52.512 53c-6.848.329-11.003-2.496-12.389-4.44a1.849 1.849 0 0 1 .433-2.58zM31.278 44.595c-.832.242-1.458.688-2.216 1.336a1.849 1.849 0 0 1-2.404-2.81c.876-.749 1.986-1.61 3.586-2.077 1.599-.465 3.495-.484 5.913.062a1.849 1.849 0 1 1-.814 3.607c-1.999-.452-3.231-.361-4.065-.118z" fill="#E27800"/><path fill-rule="evenodd" clip-rule="evenodd" d="M47.355 73.832a.616.616 0 0 1-.162.856c-3.789 2.58-7.854 1.712-9.457.931a.616.616 0 1 1 .54-1.108c1.326.646 4.9 1.421 8.223-.842a.616.616 0 0 1 .856.163z" fill="#F08904"/><path d="M39.337 69.763a4.727 4.727 0 0 1 3.587-5.64l5.828-1.297a4.727 4.727 0 0 1 5.64 3.587c.451 2.024-1.409 3.802-3.41 3.261l-1.981-.535a3.999 3.999 0 0 0-3.625.806L43.81 71.27c-1.584 1.339-4.022.517-4.472-1.507z" fill="#E27800"/><path d="M53.305 69.256a2.725 2.725 0 0 1-2.323.418l-1.981-.535a4 4 0 0 0-3.625.806L43.81 71.27a2.729 2.729 0 0 1-2.457.568 6.603 6.603 0 0 1 11.953-2.582z" fill="#FF9600"/><path d="M51.432 32.834a.808.808 0 0 1 1.393-.14l2.894 4.025c1.65 2.294.198 5.514-2.613 5.796-2.812.282-4.874-2.586-3.712-5.161l2.038-4.52z" fill="#FFD900"/><path fill-rule="evenodd" clip-rule="evenodd" d="M17.287 24.046c5.918 2.073 7.183 7.269 6.156 10.736a.945.945 0 0 1-1.813-.537c.777-2.623-.118-6.716-4.968-8.415a.945.945 0 1 1 .625-1.784zM66.29 41.234c5.344-3.28 10.172-.979 12.212 2.006a.945.945 0 1 1-1.56 1.067c-1.544-2.259-5.283-4.15-9.663-1.462a.945.945 0 1 1-.99-1.61zM35.682 31.58c6.1 1.453 7.892 6.492 7.228 10.046a.945.945 0 0 1-1.858-.347c.502-2.69-.809-6.669-5.808-7.86a.945.945 0 0 1 .438-1.839zM58.483 19.903c-5.69 2.636-6.446 7.93-5.089 11.281a.945.945 0 0 0 1.752-.71c-1.026-2.535-.531-6.696 4.132-8.856a.945.945 0 1 0-.795-1.715z" fill="#E27800"/><path fill-rule="evenodd" clip-rule="evenodd" d="M91.853 4.127a10.595 10.595 0 0 1 5.66 12.865l-3.035 9.447-21.275-9.787L78.4 8.201a10.595 10.595 0 0 1 13.452-4.074z" fill="#FFB100"/><path fill-rule="evenodd" clip-rule="evenodd" d="M73.347 16.441l21.125 9.718 3.656 9.079a1.514 1.514 0 0 1-2.037 1.94L63.927 22.383a1.514 1.514 0 0 1 .148-2.81l9.272-3.132z" fill="#FFB100"/><path fill-rule="evenodd" clip-rule="evenodd" d="M76.152 11.9l20.055 9.225a.757.757 0 0 1 .396.944L95.15 26.12a.757.757 0 0 1-1.029.432L73.39 17.016a.757.757 0 0 1-.342-1.062l2.132-3.741a.757.757 0 0 1 .973-.313z" fill="#E27800"/><path fill-rule="evenodd" clip-rule="evenodd" d="M89.736 23.477l2.375.85-4.457 16.01a.378.378 0 0 1-.681.107l-1.119-1.708a.378.378 0 0 0-.43-.154l-1.948.61a.378.378 0 0 1-.459-.515l6.72-15.2z" fill="#E27800"/><path fill-rule="evenodd" clip-rule="evenodd" d="M89.794 23.533l2.497-.364 3.58 16.228a.378.378 0 0 1-.551.413l-1.79-.982a.378.378 0 0 0-.451.066l-1.434 1.453a.378.378 0 0 1-.647-.239l-1.204-16.575z" fill="#E27800"/><path fill-rule="evenodd" clip-rule="evenodd" d="M89.896 42.776l15.242 4.612a1.27 1.27 0 0 1 .848 1.585l-2.265 7.486a9.091 9.091 0 0 1-11.335 6.069l-.27-.082a9.092 9.092 0 0 1-6.07-11.336l2.265-7.485a1.27 1.27 0 0 1 1.585-.849z" fill="#FF9600"/><path fill-rule="evenodd" clip-rule="evenodd" d="M85.853 46.207a1.568 1.568 0 0 0-1.955 1.047l-.908 3.003a1.568 1.568 0 0 0 3.002.909l.908-3.004a1.568 1.568 0 0 0-1.047-1.955zm-3.866.469a3.565 3.565 0 1 1 6.825 2.065l-.909 3.003a3.565 3.565 0 0 1-6.825-2.065l.909-3.003z" fill="#FF9600"/><path d="M96.418 62.64l-7.707-2.331a.545.545 0 0 0-.68.363l-.269.892a.545.545 0 0 0 .364.679l7.707 2.332a.545.545 0 0 0 .68-.364l.269-.891a.545.545 0 0 0-.364-.68zM105.94 46.936l-16.466-4.982a1.18 1.18 0 0 0-1.471.788l-.008.026a1.18 1.18 0 0 0 .788 1.471l16.466 4.983a1.18 1.18 0 0 0 1.471-.788l.008-.026a1.18 1.18 0 0 0-.788-1.472z" fill="#E27800"/><path fill-rule="evenodd" clip-rule="evenodd" d="M121.037 47.189l-8.993-15.272a1.565 1.565 0 0 0-2.817 1.332l6.101 16.64a3.17 3.17 0 1 0 5.709-2.7z" fill="#E27800"/><path fill-rule="evenodd" clip-rule="evenodd" d="M119.014 27.242l-1.553-3.283a9.45 9.45 0 0 0-17.083 8.08l1.553 3.284c2.231 4.717 7.864 6.733 12.582 4.501 4.717-2.231 6.733-7.864 4.501-12.582z" fill="#E27800"/><path d="M116.565 38.67c3.339-2.463 4.582-7.02 2.741-10.913l-2.058-4.35a8.859 8.859 0 0 0-16.016 7.575l2.058 4.35a8.863 8.863 0 0 0 9.467 4.953l3.569 9.486a2.9 2.9 0 1 0 5.224-2.471l-4.985-8.63z" fill="#FFF1A2"/><path d="M116.565 38.67c3.339-2.463 4.582-7.02 2.741-10.913l-2.058-4.35a8.859 8.859 0 0 0-16.016 7.575l2.058 4.35a8.863 8.863 0 0 0 9.467 4.953l3.569 9.486a2.9 2.9 0 1 0 5.224-2.471l-4.985-8.63z" fill="#FF9600"/><path fill-rule="evenodd" clip-rule="evenodd" d="M119.464 28.263a1.722 1.722 0 0 1 2.328-.56l.199-.338-.199.338c.822.484 1.643.752 2.459.782 1.254.046 3.162.058 5.718.036a.393.393 0 1 0-.007-.787c-2.554.022-4.446.01-5.682-.036-.659-.024-1.354-.242-2.088-.674a2.51 2.51 0 0 0-3.393.817 2.853 2.853 0 0 1-3.029 1.254c-1.094-.244-1.815-.39-2.134-.426-.509-.059-1.428-.011-2.719.125a.393.393 0 1 0 .083.783c1.301-.138 2.136-.173 2.545-.126.27.031.946.166 2.053.413a3.641 3.641 0 0 0 3.866-1.6z" fill="#819499"/><path fill-rule="evenodd" clip-rule="evenodd" d="M122.436 26.609a2.992 2.992 0 0 0-4.044.973 2.37 2.37 0 0 1-2.517 1.043c-1.086-.242-1.834-.394-2.183-.435-.57-.066-1.541-.011-2.825.124a.875.875 0 1 0 .184 1.742c1.308-.138 2.091-.166 2.439-.126.239.028.887.155 2.003.404a4.122 4.122 0 0 0 4.377-1.812 1.242 1.242 0 0 1 1.678-.404c.875.516 1.773.815 2.686.849 1.265.046 3.182.058 5.739.036a.875.875 0 1 0-.015-1.75c-2.552.02-4.436.009-5.66-.037-.564-.02-1.181-.207-1.862-.607z" fill="#E27800"/><path d="M133.542 28.52a4.167 4.167 0 0 1-4.979 3.153 4.168 4.168 0 0 1-3.169-4.97 4.169 4.169 0 0 1 4.98-3.154 4.168 4.168 0 0 1 3.168 4.97z" fill="#FF9600"/><path d="M130.576 27.433a1.51 1.51 0 1 1-1.62-2.548 1.51 1.51 0 0 1 1.62 2.548z" fill="#FFBB31"/><path fill-rule="evenodd" clip-rule="evenodd" d="M59.297 83.463c.608-1.528 2.348-2.27 3.887-1.657l2.787 1.11-2.832 7.114-5.574-2.219 1.732-4.348zM71.107 96.12a2.98 2.98 0 0 0 2.926-1.867l1.731-4.348-2.787-1.11c-1.54-.613-3.28.13-3.888 1.657l-3.344 8.4c-.608 1.528.146 3.263 1.686 3.876l2.787 1.109 1.731-4.349a2.98 2.98 0 0 0-.842-3.367z" fill="#FF9600"/><path fill-rule="evenodd" clip-rule="evenodd" d="M51.791 93.925l2.442.972 1.668-4.192a1.628 1.628 0 0 0-.91-2.114l-3.307-1.317a7.339 7.339 0 0 1 9.308-3.598l2.5.995a7.338 7.338 0 1 1-5.43 13.636l-2.498-.995a7.31 7.31 0 0 1-3.773-3.387z" fill="#FFB100"/><path fill-rule="evenodd" clip-rule="evenodd" d="M59.977 100.915c1.119-.477 1.618-1.8 1.116-2.955-.503-1.156-3.23-2.409-3.414-2.33-.185.079-1.14 2.901-.637 4.056.502 1.156 1.816 1.706 2.935 1.229z" fill="#FF9600"/><path d="M59.31 91.94a1.27 1.27 0 0 0 1.645-.72 1.27 1.27 0 0 0-.7-1.652 1.27 1.27 0 0 0-1.646.719 1.27 1.27 0 0 0 .701 1.652z" fill="#FF9600"/><path fill-rule="evenodd" clip-rule="evenodd" d="M49.73 86.188a1.683 1.683 0 0 1 2.186-.941l1.941.773c2.607 1.038 3.903 3.987 2.862 6.603l-.657 1.65c-.283.713-.78 1.55-1.74 1.949-.946.392-1.88.162-2.556-.108l-2.396-.953a1.683 1.683 0 1 1 1.246-3.128l2.343.933.632-1.588a1.722 1.722 0 0 0-.979-2.23l-1.942-.773a1.683 1.683 0 0 1-.94-2.187z" fill="#FF9600"/><path d="M4.974 87.195c-.73.317-1.429.68-2.099 1.087-.422.256-.64.748-.549 1.233.121.64.279 1.275.474 1.904l53.503 23.904 1.93-4.333L4.974 87.195z" fill="#FFB100"/><path fill-rule="evenodd" clip-rule="evenodd" d="M117.832 67.766a1 1 0 0 1-1.123.86l-2.017-.266a1 1 0 1 1 .262-1.983l2.017.266a1 1 0 0 1 .861 1.123zM128.639 69.71a1 1 0 0 1-1.167.798l-2-.375a1 1 0 1 1 .369-1.966l2 .375a1 1 0 0 1 .798 1.168z" fill="#FF9600"/></g><defs><clipPath id="clip0"><path fill="#fff" d="M0 0h135v124H0z"/></clipPath></defs></svg>