<svg viewBox="0 0 135 124" fill="none" xmlns="http://www.w3.org/2000/svg"><path d="M11 28c0-9.389 7.611-17 17-17h79c9.389 0 17 7.611 17 17v79c0 9.389-7.611 17-17 17H28c-9.389 0-17-7.611-17-17V28z" fill="#1CB0F6"/><path fill-rule="evenodd" clip-rule="evenodd" d="M28.08 88.875c0 1.398-.02 4.986-3.744 5.266h-8.364c-.912 0-1.652.739-1.652 1.65 0 9.222 7.476 16.698 16.697 16.698h72.841c9.222 0 16.697-7.476 16.697-16.697 0-.912-.739-1.651-1.651-1.651h-7.818c-3.724-.28-3.744-3.868-3.744-5.266 0-1.456-1.284 2.172-1.284 2.172l.374 3.094H28.989l.375-3.094s-1.285-3.628-1.285-2.172z" fill="#FFB100"/><path fill-rule="evenodd" clip-rule="evenodd" d="M28.08 39.463c0-8.512 6.9-15.412 15.412-15.412h48.439c8.512 0 15.412 6.9 15.412 15.412v57.43H28.08v-57.43z" fill="#FFB100"/><path fill-rule="evenodd" clip-rule="evenodd" d="M33.4 49.188c0-8.005 6.49-14.495 14.495-14.495h38.348c8.005 0 14.494 6.49 14.494 14.495v62.75H33.4v-62.75z" fill="#FFC6B7"/><path fill-rule="evenodd" clip-rule="evenodd" d="M49.14 52.8a8.651 8.651 0 1 1 17.303 0v5.262a8.651 8.651 0 0 1-17.302 0V52.8z" fill="#fff"/><path fill-rule="evenodd" clip-rule="evenodd" d="M56.297 54.976a3.884 3.884 0 1 1 7.768 0v4.878a3.884 3.884 0 0 1-7.768 0v-4.878z" fill="#3D3D3D"/><path d="M59.598 51.918a2.844 2.844 0 1 1-5.688 0 2.844 2.844 0 0 1 5.688 0zM70.9 48.088a8.61 8.61 0 0 0-1.394 4.711v5.263a8.651 8.651 0 0 0 17.302 0v-5.263a8.61 8.61 0 0 0-1.449-4.794 18.468 18.468 0 0 1-6.883 1.321h-.903c-2.353 0-4.603-.438-6.673-1.238z" fill="#fff"/><path fill-rule="evenodd" clip-rule="evenodd" d="M79.66 54.976a3.884 3.884 0 0 0-7.768 0v4.878a3.884 3.884 0 0 0 7.768 0v-4.878z" fill="#3D3D3D"/><path d="M70.119 51.918a2.844 2.844 0 1 0 5.688 0 2.844 2.844 0 0 0-5.688 0z" fill="#fff"/><path d="M62.668 76.877c0-10.227 8.29-18.518 18.518-18.518h.903c10.227 0 18.517 8.29 18.517 18.518v.903c0 10.227-8.29 18.518-18.517 18.518h-.903c-10.228 0-18.518-8.29-18.518-18.518v-.903z" fill="#FFC6B7"/><path d="M40.29 36.848c-4.135 2.553-6.89 7.125-6.89 12.341v14.199a7.615 7.615 0 0 0 6.971-7.588V37.97c0-.381-.028-.755-.082-1.121zM94.528 37.294a14.478 14.478 0 0 1 6.209 11.895v14.102a7.617 7.617 0 0 1-6.239-7.49V37.968c0-.228.01-.453.03-.675z" fill="#FFB100"/><path d="M37.805 65.341a7.43 7.43 0 1 1-14.862 0 7.43 7.43 0 0 1 14.862 0zM111.747 65.341a7.431 7.431 0 1 1-14.862 0 7.431 7.431 0 0 1 14.862 0z" fill="#FFC6B7"/><path d="M25.879 33.776a2.385 2.385 0 0 1 2.385-2.385h78.882a2.385 2.385 0 0 1 2.385 2.385v4.954a2.385 2.385 0 0 1-2.385 2.385H28.264a2.385 2.385 0 0 1-2.385-2.385v-4.954z" fill="#FF4B4B"/><path d="M51.2 22.767c0-9.12 7.392-16.513 16.512-16.513 9.12 0 16.513 7.393 16.513 16.513 0 9.12-7.393 16.513-16.513 16.513-9.12 0-16.513-7.393-16.513-16.513z" fill="#FFB100"/><path d="M50.389 10.613l15.783 17.199c.828.922.52 2.384-.61 2.887-5.424 2.42-11.896 1.057-15.977-3.487-4.082-4.543-4.758-11.138-1.79-16.293.618-1.073 1.766-1.228 2.594-.306z" fill="#FFB100"/><path d="M30.281 105.516c0-1.114.904-2.018 2.019-2.018h69.905c1.115 0 2.018.904 2.018 2.018v6.973a2.018 2.018 0 0 1-2.018 2.018H32.3a2.019 2.019 0 0 1-2.019-2.018v-6.973z" fill="#FF4B4B"/><path fill-rule="evenodd" clip-rule="evenodd" d="M64.322 104.255a1.468 1.468 0 0 1 1.427-1.124h4.477c.678 0 1.268.465 1.427 1.124l2.962 12.293a1.468 1.468 0 0 1-1.427 1.812H62.787c-.95 0-1.65-.889-1.427-1.812l2.962-12.293z" fill="#fff"/><path fill-rule="evenodd" clip-rule="evenodd" d="M67.918 71.552A3.852 3.852 0 0 0 71.77 67.7c0-2.127-3.853-7.157-3.853-7.157s-3.854 5.03-3.854 7.158a3.852 3.852 0 0 0 3.854 3.85z" fill="#F3A577"/><path d="M74.997 74.898c-5.986 0-11.085 3.8-13.017 9.119-.749 2.06 1.527 3.554 3.563 2.74 2.813-1.126 6.481-2.31 9.454-2.31 2.973 0 6.64 1.184 9.454 2.31 2.036.814 4.312-.68 3.564-2.74-1.932-5.32-7.031-9.119-13.018-9.119z" fill="#fff"/><path d="M43.75 56.737l3.302 5.72c1.467 2.54-.367 5.718-3.302 5.718s-4.77-3.177-3.302-5.719l3.302-5.719zM28.062 27.93l-6.441-1.453c-2.863-.645-3.953-4.148-1.963-6.305 1.991-2.156 5.57-1.349 6.442 1.453l1.962 6.305zM107.283 27.93l6.442-1.453c2.863-.645 3.953-4.148 1.962-6.305-1.99-2.156-5.569-1.349-6.441 1.453l-1.963 6.305zM24.99 46.802l.209 6.455c.102 3.146-3.293 5.18-6.019 3.606-2.726-1.574-2.661-5.53.114-7.015l5.695-3.046zM110.355 46.802l-.21 6.455c-.102 3.146 3.292 5.18 6.018 3.606 2.726-1.574 2.662-5.53-.113-7.015l-5.695-3.046z" fill="#D4F7FF"/></svg>