<svg id="Layer_3" data-name="Layer 3" xmlns="http://www.w3.org/2000/svg" viewBox="0 0 135 124"><defs><style>.cls-1{fill:#ffc800}.cls-2{fill:#f89700}.cls-3{fill:#ffd900}.cls-4{fill:#ffb100}</style></defs><rect class="cls-1" x="11" y="11" width="113" height="113" rx="17" ry="17"/><circle class="cls-2" cx="67.18" cy="76.32" r="4.14"/><circle class="cls-2" cx="51.2" cy="77.75" r="4.14"/><circle class="cls-2" cx="55.21" cy="74.91" r="4.14"/><circle class="cls-2" cx="61.38" cy="72.73" r="4.14"/><path class="cls-3" d="M124 67.39H91.67A23 23 0 0 0 76 73.56l-16.6 15.5H124z"/><path class="cls-4" d="M103.73 95.11L110 74.47a9.87 9.87 0 0 1 9.45-7h-11.63a9.87 9.87 0 0 0-7.17 3.09L80.57 91.79l22.5 7z"/><path class="cls-4" d="M124 86.11v19.63H28l-11-4.19-6 1.31v-3.69l24.91-18.4a21.58 21.58 0 0 1 13.21-4.53h46.13a21.29 21.29 0 0 1 8 1.55z"/><path class="cls-2" d="M69.68 103.89l11.11-20.63c2.24-4.17 4.76-7 9.11-7H71.32a12.51 12.51 0 0 0-7.9 3.09L38.3 100.58l29.83 7z"/><path class="cls-2" d="M124 74.24V107a17 17 0 0 1-17 17H28a17 17 0 0 1-17-17v-6.42h50.71c.69 0 1.07 0 1.6-.1h.12a45.66 45.66 0 0 0 21.33-7.34 44.52 44.52 0 0 0 5.11-3.9l.15-.13 3.88-3.43a45.59 45.59 0 0 1 11-7.19c1-.45 2-.87 3-1.26l1.39-.5A45.68 45.68 0 0 1 124 74.24z"/><path d="M61.68 100.53a15.82 15.82 0 0 0-8.46 3.57 13.86 13.86 0 0 0-1.7 1.64 15.29 15.29 0 0 0-2.15 3L41.11 124H28a17 17 0 0 1-17-17v-6.42h48.71c.66 0 1.29-.01 1.97-.05z" fill="#e27800"/><path class="cls-1" d="M84.62 36.92h6.54V124h-6.54z"/><path class="cls-4" d="M84.62 49.08h6.54V63.6h-6.54z"/><rect class="cls-3" x="65.75" y="6.45" width="44.29" height="44.29" rx="6.46" ry="6.46" transform="rotate(-45 87.885 28.597)"/><path class="cls-4" d="M96.31 34.17H72.4V20.73a1.57 1.57 0 0 1 1.6-1.57h26.31z"/><path class="cls-4" d="M105.67 25.84h-9V19a2.5 2.5 0 0 1 2.5-2.5h2.68a2.51 2.51 0 0 1 2.15 1.2l3.2 5.55a1.73 1.73 0 0 1-1.53 2.59zM93.41 31.26h2.9v8.32A1.45 1.45 0 0 1 94.86 41a1.45 1.45 0 0 1-1.45-1.45v-8.29zM89 31.26h2.9v8.32A1.45 1.45 0 0 1 90.41 41 1.45 1.45 0 0 1 89 39.59v-8.33zM76.89 31.26h2.9v8.32A1.45 1.45 0 0 1 78.35 41a1.45 1.45 0 0 1-1.45-1.45v-8.29zM72.44 31.26h2.9v8.32A1.45 1.45 0 0 1 73.89 41a1.45 1.45 0 0 1-1.45-1.45v-8.29zM73.4 19.16h1.94V30.1h-3.06a1.33 1.33 0 0 1-1.33-1.33v-7.16a2.45 2.45 0 0 1 2.45-2.45z"/><circle class="cls-4" cx="78.6" cy="32.39" r="4.71"/><path class="cls-4" d="M98.88 14.71a.92.92 0 0 1 .92.92v3H98v-3a.92.92 0 0 1 .88-.92zM101.2 14.71a.92.92 0 0 1 .92.92v3h-1.84v-3a.92.92 0 0 1 .92-.92z"/></svg>