<svg viewBox="0 0 135 124" fill="none" xmlns="http://www.w3.org/2000/svg"><g clip-path="url(#clip0)"><path d="M107 11H28c-9.389 0-17 7.611-17 17v79c0 9.389 7.611 17 17 17h79c9.389 0 17-7.611 17-17V28c0-9.389-7.611-17-17-17z" fill="#FFCA00"/><path d="M12.56 114.08L114.08 12.56A16.938 16.938 0 0 0 107 11H65.68L11 65.68V107c.003 2.445.535 4.86 1.56 7.08zm72.12-48.14l-58 58c.43 0 .87.07 1.31.07h48.59l33.08-33.09c6.904-6.904 6.904-18.096 0-25-6.903-6.904-18.096-6.904-25 0l.02.02z" fill="#FFD900"/><path fill-rule="evenodd" clip-rule="evenodd" d="M67.727 47.046c1.131-.274 2.312.595 2.637 1.94l7.558 31.275-4.097.99-7.559-31.276c-.325-1.344.33-2.656 1.46-2.93z" fill="#FFB100"/><path fill-rule="evenodd" clip-rule="evenodd" d="M52.317 18.985c.87-.21 1.746.325 1.956 1.195l4.3 17.794c.567 2.344 2.952 3.803 5.35 3.224l4.286-1.036c2.397-.58 3.853-2.967 3.286-5.31l-4.3-17.795a1.621 1.621 0 1 1 3.152-.762l4.3 17.795c.993 4.11-1.564 8.23-5.677 9.224l-4.286 1.035c-4.112.994-8.269-1.503-9.262-5.613l-4.3-17.794a1.621 1.621 0 0 1 1.195-1.957z" fill="#FFF1A2"/><path fill-rule="evenodd" clip-rule="evenodd" d="M59.466 13.39a1.621 1.621 0 0 1 1.96 1.19l6.488 26.452a1.621 1.621 0 0 1-3.149.772L58.278 15.35a1.621 1.621 0 0 1 1.188-1.96z" fill="#FFF1A2"/><path d="M68.318 41.9l-3.782.913a.973.973 0 0 0-.717 1.174l1.218 5.043a.973.973 0 0 0 1.174.717l3.782-.914a.973.973 0 0 0 .718-1.174l-1.22-5.043a.973.973 0 0 0-1.173-.717z" fill="#FFF1A2"/><path fill-rule="evenodd" clip-rule="evenodd" d="M100.042 13.523l22.883 4.464c6.946 1.355 11.478 8.084 10.124 15.03l-2.329 11.94c-1.355 6.946-8.085 11.478-15.031 10.123l-22.883-4.463c-6.946-1.355-11.478-8.085-10.123-15.03l2.329-11.94c1.355-6.946 8.084-11.479 15.03-10.124z" fill="#FFE761"/><path fill-rule="evenodd" clip-rule="evenodd" d="M88.275 32.31c.466-2.925 2.231-5.59 5.022-7.07 2.69-1.429 5.757-1.452 8.379-.33-.466 2.926-2.231 5.59-5.022 7.072-2.69 1.428-5.757 1.451-8.379.328z" fill="#F08904"/><path fill-rule="evenodd" clip-rule="evenodd" d="M100.806 25.39c-2.287-.803-4.868-.69-7.151.523-2.376 1.262-3.948 3.456-4.51 5.917 2.287.804 4.868.69 7.151-.522 2.376-1.262 3.948-3.456 4.51-5.917zm-7.867-.825c2.905-1.542 6.215-1.565 9.037-.356a.763.763 0 0 1 .454.822c-.502 3.149-2.405 6.025-5.418 7.625-2.905 1.542-6.215 1.565-9.037.356a.763.763 0 0 1-.454-.822c.502-3.149 2.404-6.025 5.418-7.625zM126.954 39.855c-2.852.055-5.686-1.119-7.642-3.453-2.029-2.422-2.664-5.554-1.996-8.44 2.852-.055 5.685 1.119 7.641 3.453 2.029 2.422 2.664 5.554 1.997 8.44z" fill="#F08904"/><path fill-rule="evenodd" clip-rule="evenodd" d="M117.942 28.733c-.405 2.493.227 5.117 1.955 7.178 1.661 1.982 4.009 3.058 6.431 3.172.404-2.492-.228-5.116-1.956-7.178-1.66-1.982-4.009-3.057-6.43-3.172zm-.641-1.534c3.07-.06 6.129 1.205 8.241 3.726 2.191 2.615 2.874 5.995 2.155 9.102a.763.763 0 0 1-.729.591c-3.07.06-6.128-1.205-8.241-3.726-2.191-2.615-2.873-5.996-2.155-9.102a.763.763 0 0 1 .729-.591z" fill="#F08904"/><path d="M110.542 45.292a7.661 7.661 0 0 1-.396-6.606c.091-.209.324-.346.552-.36a7.625 7.625 0 0 1 5.321 3.485 7.664 7.664 0 0 1 .396 6.607c-.091.208-.325.345-.553.36a7.621 7.621 0 0 1-5.32-3.486z" fill="#FFB100"/><path d="M113.834 44.962a7.66 7.66 0 0 1-4.465-4.885c-.061-.219.034-.472.202-.627a7.626 7.626 0 0 1 6.329-.64 7.664 7.664 0 0 1 4.465 4.885c.061.22-.035.473-.202.628a7.625 7.625 0 0 1-6.329.64zM33.777 104.714a7.784 7.784 0 0 1 .029 6.722c-.104.206-.349.332-.58.334a7.742 7.742 0 0 1-5.2-3.835 7.783 7.783 0 0 1-.028-6.722c.104-.207.348-.332.58-.335a7.747 7.747 0 0 1 5.2 3.836z" fill="#FFB100"/><path d="M29.61 105.838a7.785 7.785 0 0 1 4.252 5.206c.05.226-.061.477-.24.625a7.74 7.74 0 0 1-6.454.291 7.78 7.78 0 0 1-4.253-5.206c-.049-.226.062-.477.241-.625a7.748 7.748 0 0 1 6.454-.291zM128.427 83.414a8.096 8.096 0 0 1-6.145 3.332c-.24.007-.476-.155-.592-.367a8.055 8.055 0 0 1 .957-6.65 8.092 8.092 0 0 1 6.144-3.333c.24-.006.476.156.592.368a8.055 8.055 0 0 1-.956 6.65z" fill="#FFB100"/><path fill-rule="evenodd" clip-rule="evenodd" d="M107.609 7.106l6.914 1.348a3.873 3.873 0 1 1-1.484 7.604l-1.555-.303a5.459 5.459 0 0 1-4.313-6.403l.438-2.246z" fill="#FFE761"/><path fill-rule="evenodd" clip-rule="evenodd" d="M105.945 14.675l11.078 2.16a3.58 3.58 0 0 1 2.828 4.2L116.41 38.68a5.465 5.465 0 0 1-6.41 4.317l-7.379-1.439a5.465 5.465 0 0 1-4.317-6.41l3.441-17.644a3.58 3.58 0 0 1 4.2-2.829z" fill="#F08904"/><path fill-rule="evenodd" clip-rule="evenodd" d="M105.299 15.508a4.8 4.8 0 0 0-5.63 3.792l-.153.785a4.799 4.799 0 1 0 9.421 1.838l.153-.785a4.799 4.799 0 0 0-3.791-5.63z" fill="#FFF1A2"/><path fill-rule="evenodd" clip-rule="evenodd" d="M98.745 19.12a5.741 5.741 0 1 1 11.27 2.198l-.153.785a5.741 5.741 0 1 1-11.27-2.198l.153-.785zm6.373-2.687a3.857 3.857 0 0 0-4.524 3.047l-.153.785a3.857 3.857 0 0 0 7.571 1.477l.153-.785a3.856 3.856 0 0 0-3.047-4.524z" fill="#F08904"/><path fill-rule="evenodd" clip-rule="evenodd" d="M102.79 20.027l1.102.215a.945.945 0 0 1-.362 1.855l-1.101-.215a.944.944 0 1 1 .361-1.855z" fill="#E27903"/><path fill-rule="evenodd" clip-rule="evenodd" d="M103.185 14.906l6.676 1.303-1.085 5.564-9.31-1.817 3.719-5.05z" fill="#F08904"/><path fill-rule="evenodd" clip-rule="evenodd" d="M117.308 17.851a4.799 4.799 0 0 1 3.791 5.63l-.153.784a4.799 4.799 0 0 1-9.421-1.837l.153-.786a4.8 4.8 0 0 1 5.63-3.791z" fill="#FFF1A2"/><path fill-rule="evenodd" clip-rule="evenodd" d="M122.024 23.66a5.74 5.74 0 1 0-11.27-2.198l-.153.785a5.742 5.742 0 0 0 11.27 2.199l.153-.785zm-4.896-4.884a3.857 3.857 0 0 1 3.047 4.524l-.153.785a3.857 3.857 0 0 1-7.572-1.477l.154-.785a3.856 3.856 0 0 1 4.524-3.047z" fill="#F08904"/><path fill-rule="evenodd" clip-rule="evenodd" d="M117.934 22.981l-1.101-.215a.945.945 0 1 0-.362 1.855l1.101.215a.946.946 0 0 0 .362-1.855z" fill="#E27903"/><path fill-rule="evenodd" clip-rule="evenodd" d="M119.838 18.155l-7.021-1.37-1.085 5.564 9.053 1.766-.947-5.96z" fill="#F08904"/><path d="M108.159 38.288a.847.847 0 1 1 .737 1.527l-1.915.924a.848.848 0 0 1-1.022-.224l-1.277-1.546a.847.847 0 1 1 1.307-1.08l.854 1.033 1.316-.634z" fill="#E27903"/><path d="M104.83 56.06c6.635 0 12.013 5.378 12.013 12.013v48.324H92.816V68.073c0-6.635 5.379-12.014 12.014-12.014z" fill="#FF9600"/><path d="M116.843 68.613v-.54c0-6.635-5.378-12.014-12.013-12.014s-12.014 5.379-12.014 12.014v.54h24.027z" fill="#FFE761"/><path d="M117.052 73.472H93.014a1.012 1.012 0 1 0 0 2.025h24.038a1.012 1.012 0 1 0 0-2.025zM117.052 81.571H93.014a1.012 1.012 0 0 0 0 2.025h24.038a1.012 1.012 0 1 0 0-2.025zM117.052 89.67H93.014a1.012 1.012 0 1 0 0 2.025h24.038a1.012 1.012 0 1 0 0-2.024zM117.052 97.77H93.014a1.012 1.012 0 0 0 0 2.024h24.038a1.012 1.012 0 1 0 0-2.025zM117.052 105.869H93.014a1.012 1.012 0 1 0 0 2.024h24.038a1.012 1.012 0 1 0 0-2.024z" fill="#F08904"/><path d="M52.157 88.522l11.308-16.007h23.457L98.626 88.51c.357.488.55 1.077.55 1.682v24.577c0 .899-.73 1.628-1.629 1.628H53.263c-.899 0-1.628-.729-1.628-1.628V90.166c0-.588.183-1.163.522-1.644z" fill="#FF9600"/><path d="M60.645 79.141h-1.63a.814.814 0 0 0-.814.815v20.239c0 .45.364.814.814.814h1.63c.45 0 .814-.364.814-.814v-20.24a.814.814 0 0 0-.814-.814zM65.125 73.472h-1.63a.814.814 0 0 0-.814.814v13.76c0 .45.364.814.814.814h1.63c.45 0 .814-.364.814-.814v-13.76a.814.814 0 0 0-.814-.814z" fill="#F08904"/><path d="M51.635 96.744V91.83L64.1 74.268c.267-.377.7-.6 1.161-.6H85.8c.46 0 .89.22 1.157.592l12.217 16.974v4.878L85.071 76.517H65.996L52.032 96.192l-.107.153c-.095.136-.191.274-.29.4z" fill="#FFF1A2"/><path d="M65.407 103.964h-12.55c-.675 0-1.222.547-1.222 1.221v9.991a1.22 1.22 0 0 0 1.221 1.221h14.456c.675 0-.683-.546-.683-1.221v-9.991c0-.674-.547-1.221-1.222-1.221z" fill="#FFBB31"/><path fill-rule="evenodd" clip-rule="evenodd" d="M85.522 103.964h12.442c.668 0 1.21.547 1.21 1.221v9.991c0 .675-.542 1.221-1.21 1.221h-14.36c-.668 0 .707-.546.707-1.221v-9.991c0-.674.542-1.221 1.21-1.221z" fill="#FFBB31"/><path d="M77.749 79.547h-4.073a.814.814 0 0 0-.814.814v6.066c0 .45.364.814.814.814h4.073c.45 0 .814-.365.814-.814V80.36a.814.814 0 0 0-.814-.814z" fill="#E98103"/><path fill-rule="evenodd" clip-rule="evenodd" d="M73.879 80.564v5.66h3.666v-5.66H73.88zm-2.035-.203c0-1.012.82-1.832 1.831-1.832h4.074c1.011 0 1.831.82 1.831 1.832v6.066c0 1.011-.82 1.831-1.831 1.831h-4.074a1.832 1.832 0 0 1-1.831-1.831V80.36z" fill="#FFF1A2"/><path d="M88.744 89.67h-1.63a.814.814 0 0 0-.814.814v12.546c0 .449.364.814.814.814h1.63c.45 0 .814-.365.814-.814V90.484a.814.814 0 0 0-.814-.813z" fill="#F08904"/><path d="M91.189 109.108h-4.481c-.675 0-1.221.547-1.221 1.221v2.418c0 .674.546 1.221 1.22 1.221h4.482c.674 0 1.22-.547 1.22-1.221v-2.418c0-.674-.546-1.221-1.22-1.221z" fill="#FF9600"/><path d="M83.45 81.571h-1.63a.814.814 0 0 0-.814.814v13.76c0 .45.364.815.814.815h1.63c.45 0 .814-.365.814-.814v-13.76a.814.814 0 0 0-.814-.815z" fill="#F08904"/><path fill-rule="evenodd" clip-rule="evenodd" d="M67.363 96.565a.61.61 0 0 0-.61.61v16.577c0 .337.273.61.61.61h16.292a.61.61 0 0 0 .61-.61V97.175a.61.61 0 0 0-.61-.61H67.363zm-2.646.61a2.646 2.646 0 0 1 2.646-2.645h16.292a2.646 2.646 0 0 1 2.646 2.645v16.577a2.645 2.645 0 0 1-2.646 2.645H67.363a2.645 2.645 0 0 1-2.646-2.645V97.175z" fill="#FFF1A2"/><path fill-rule="evenodd" clip-rule="evenodd" d="M85.594 95.656c.4.394.605.807.21 1.207l-18.733 19.033c-.394.401-.796.123-1.196-.271-.4-.394-.648-.756-.254-1.156l18.733-19.033c.394-.4.84-.174 1.24.22z" fill="#FFF1A2"/><path fill-rule="evenodd" clip-rule="evenodd" d="M62.467 71.84c.267-.377.7-.602 1.164-.602h23.39c.46 0 .891.221 1.159.594l13.371 18.656a1.424 1.424 0 1 1-2.316 1.66L86.29 74.087H64.37L51.626 92.14a1.425 1.425 0 0 1-2.327-1.643L62.467 71.84z" fill="#E27903"/><path d="M58.609 105.059h-4.481a1.22 1.22 0 0 0-1.221 1.221v.797a1.22 1.22 0 0 0 1.22 1.221h4.482a1.22 1.22 0 0 0 1.221-1.221v-.797a1.22 1.22 0 0 0-1.221-1.221zM63.496 112.348h-4.481a1.22 1.22 0 0 0-1.221 1.221v.392a1.22 1.22 0 0 0 1.22 1.221h4.482a1.22 1.22 0 0 0 1.22-1.221v-.392a1.22 1.22 0 0 0-1.22-1.221zM96.482 105.464h-4.48a1.22 1.22 0 0 0-1.222 1.221v.392a1.22 1.22 0 0 0 1.221 1.221h4.481a1.22 1.22 0 0 0 1.221-1.221v-.392a1.22 1.22 0 0 0-1.22-1.221z" fill="#FF9600"/><path d="M106.745 116.397l-2.423-4.196a.77.77 0 0 1 .282-1.052 6.167 6.167 0 0 1 7.149.705 6.166 6.166 0 0 1 7.148-.705.77.77 0 0 1 .282 1.052l-2.423 4.196h-10.015zM50.14 116.397l-2.424-4.196a.77.77 0 0 1 .282-1.052 6.167 6.167 0 0 1 7.149.705 6.167 6.167 0 0 1 7.148-.705.77.77 0 0 1 .282 1.052l-2.423 4.196H50.14z" fill="#FFB100"/><path d="M110.125 64.158h-.002c-.786 0-1.424.638-1.424 1.425v38.456c0 .787.638 1.425 1.424 1.425h.002c.787 0 1.425-.638 1.425-1.425V65.583c0-.787-.638-1.425-1.425-1.425z" fill="#FFD900"/><path fill-rule="evenodd" clip-rule="evenodd" d="M102.996 59.54a1.425 1.425 0 0 1-.738 1.875c-1.61.7-2.65 1.67-3.254 2.875a1.425 1.425 0 1 1-2.547-1.276c.952-1.9 2.551-3.292 4.664-4.211a1.425 1.425 0 0 1 1.875.738z" fill="#FFF1A2"/><path d="M51.818 39.591c1.793 13.9-8.021 26.62-21.92 28.412-13.899 1.793-26.62-8.021-28.412-21.92-1.793-13.899 8.021-26.62 21.92-28.412 13.899-1.792 26.62 8.021 28.412 21.92z" fill="#F08904"/><path d="M18.003 40.06l1.578 1.898 21.286-20.142a25.504 25.504 0 0 0-2.185-1.324L18.003 40.061z" fill="#E27903"/><path d="M10.33 47.328l15.065-14.256 18.189 9.967 3.137 24.324-33.254 4.29-3.137-24.325z" fill="#FFBB31"/><path d="M14.467 49.85a5.872 5.872 0 1 1 11.648-1.502l.51 3.96a5.872 5.872 0 0 1-11.648 1.502l-.51-3.96z" fill="#FFF1A2"/><path d="M19.419 49.87a2.431 2.431 0 0 0 1.988-3.204 2.709 2.709 0 0 1 3.355 2.279l.435 3.374a2.709 2.709 0 0 1-5.373.693l-.405-3.141z" fill="#E27903"/><path d="M31.156 58.67l-17.11 2.206-.938-7.269c2.112-.39 4.447-.454 6.865-.13 4.714.634 8.73 2.612 11.183 5.192z" fill="#FFBB31"/><path d="M40.517 46.49a5.872 5.872 0 1 0-11.648 1.502l.511 3.96a5.872 5.872 0 1 0 11.648-1.502l-.51-3.96z" fill="#FFF1A2"/><path d="M30.359 48.46a2.432 2.432 0 0 0 1.988-3.205 2.709 2.709 0 0 1 3.355 2.279l.435 3.374a2.709 2.709 0 1 1-5.373.693l-.405-3.141z" fill="#E27903"/><path d="M26.149 59.698l17.11-2.207-.937-7.269c-2.142.16-4.417.689-6.674 1.617-4.399 1.809-7.781 4.741-9.5 7.86z" fill="#FFBB31"/><path d="M5.42 77.29c-1.027-7.957 4.591-15.238 12.547-16.264l21.705-2.8c7.956-1.026 15.237 4.592 16.263 12.548 1.027 7.956-4.591 15.237-12.547 16.264l-21.705 2.8C13.727 90.862 6.446 85.245 5.42 77.288z" fill="#F08904"/><path fill-rule="evenodd" clip-rule="evenodd" d="M14.204 61.783a6.773 6.773 0 0 1 9.497 1.244c.652.848 2.756 2.535 6.523 2.239a6.773 6.773 0 1 1 1.06 13.504c-8.525.67-14.997-3.16-18.323-7.49a6.773 6.773 0 0 1 1.243-9.497z" fill="#E27903"/><path fill-rule="evenodd" clip-rule="evenodd" d="M12.454 59.505c4.224-3.246 10.28-2.453 13.526 1.77 0 0 .019.025.062.068.046.045.111.104.198.172.173.137.42.297.745.445.635.29 1.616.551 3.015.441a9.646 9.646 0 0 1 10.37 8.862 9.646 9.646 0 0 1-8.861 10.372c-9.535.748-16.933-3.538-20.826-8.604-3.246-4.224-2.454-10.28 1.77-13.526zm11.248 3.522A6.773 6.773 0 1 0 12.96 71.28c3.327 4.328 9.798 8.158 18.323 7.49a6.773 6.773 0 0 0-1.06-13.505c-3.767.296-5.87-1.39-6.522-2.24z" fill="#F08904"/><path d="M33.91 66.024a6.742 6.742 0 0 0-3.685-.758c-3.767.295-5.87-1.39-6.522-2.24a6.773 6.773 0 0 0-12.112 3.471 4.105 4.105 0 0 0 4.003 1.89l18.316-2.363zM37.465 72.947a6.775 6.775 0 0 1-6.18 5.823c-5.512.433-10.166-1.016-13.666-3.263l19.846-2.56z" fill="#FFF1A2"/><path d="M33.051 58.425a4.351 4.351 0 1 1-8.63 1.113 4.351 4.351 0 0 1 8.63-1.113z" fill="#FFBB31"/></g><defs><clipPath id="clip0"><path fill="#fff" d="M0 0h135v124H0z"/></clipPath></defs></svg>