<svg viewBox="0 0 135 124" fill="none" xmlns="http://www.w3.org/2000/svg"><path d="M11 28c0-9.389 7.611-17 17-17h79c9.389 0 17 7.611 17 17v79c0 9.389-7.611 17-17 17H28c-9.389 0-17-7.611-17-17V28z" fill="#E5E5E5"/><path d="M25.959 18.988c-6.52.34-11.532 5.9-11.193 12.42l1.977 38.018c.053 1.166.039 3.674-2.671 4.017l-6.404.333a1.267 1.267 0 0 0-1.2 1.33c.368 7.065 6.392 12.493 13.456 12.126l55.8-2.902c7.064-.367 12.492-6.391 12.125-13.455a1.267 1.267 0 0 0-1.33-1.2l-5.985.312c-2.678-.06-2.993-2.46-3.068-3.651l-1.98-38.085c-.34-6.52-5.9-11.531-12.421-11.192l-37.106 1.93z" fill="#BFBFBF"/><path fill-rule="evenodd" clip-rule="evenodd" d="M19.228 38.647c-.32-6.133 4.394-11.363 10.526-11.681l29.376-1.528c6.132-.319 11.362 4.394 11.68 10.526l2.5 48.07-51.582 2.682-2.5-48.07z" fill="#D1D1D1"/><path d="M71.157 42.616l-.346-6.652a11.103 11.103 0 0 0-5.026-8.734 5.847 5.847 0 0 0-.137 1.604l.431 8.293a5.843 5.843 0 0 0 5.078 5.49zM19.578 45.373l-.35-6.726a11.11 11.11 0 0 1 4.537-9.552 5.83 5.83 0 0 1 .42 1.895l.431 8.293a5.841 5.841 0 0 1-5.038 6.09z" fill="#BFBFBF"/><path fill-rule="evenodd" clip-rule="evenodd" d="M31.43 40.786a6.636 6.636 0 1 1 13.255-.69l.21 4.032a6.636 6.636 0 0 1-13.255.689l-.21-4.031z" fill="#fff"/><path fill-rule="evenodd" clip-rule="evenodd" d="M36.926 40.785a2.98 2.98 0 0 1 5.95-.31l.195 3.737a2.98 2.98 0 0 1-5.95.31l-.195-3.737z" fill="#959595"/><path fill-rule="evenodd" clip-rule="evenodd" d="M60.284 39.285a6.636 6.636 0 0 0-13.254.69l.21 4.03a6.636 6.636 0 1 0 13.254-.689l-.21-4.03z" fill="#fff"/><path fill-rule="evenodd" clip-rule="evenodd" d="M54.825 39.854a2.98 2.98 0 1 0-5.95.31l.194 3.736a2.98 2.98 0 1 0 5.95-.309l-.194-3.737z" fill="#959595"/><path fill-rule="evenodd" clip-rule="evenodd" d="M32.173 50.303l.01-1.338.008-1.337h.031a4.638 4.638 0 0 1 .265.011c.171.01.413.03.709.065.59.07 1.41.21 2.34.482 1.849.542 4.213 1.638 6.054 3.86l-2.059 1.706c-1.392-1.68-3.217-2.551-4.748-3-.76-.223-1.43-.336-1.905-.393a8.989 8.989 0 0 0-.678-.056h-.027zm0 0h-.003.003z" fill="#D1D1D1"/><path d="M23.03 46.694a5.7 5.7 0 1 1-11.385.592 5.7 5.7 0 0 1 11.386-.592zM79.673 43.748a5.7 5.7 0 1 1-11.385.592 5.7 5.7 0 0 1 11.385-.592z" fill="#D1D1D1"/><path d="M12.853 27.14a1.83 1.83 0 0 1 1.732-1.923l60.427-3.142a1.83 1.83 0 0 1 1.922 1.732l.198 3.795a1.83 1.83 0 0 1-1.733 1.922l-60.427 3.142a1.83 1.83 0 0 1-1.922-1.732l-.197-3.795zM19.084 81.92a1.548 1.548 0 0 1 1.466-1.626L74.1 77.51a1.548 1.548 0 0 1 1.627 1.466l.278 5.341a1.548 1.548 0 0 1-1.466 1.626l-53.55 2.785a1.548 1.548 0 0 1-1.627-1.465l-.278-5.341z" fill="#959595"/><path fill-rule="evenodd" clip-rule="evenodd" d="M45.11 79.598c.095-.511.528-.89 1.048-.918l3.429-.178c.52-.027.99.306 1.138.804l2.759 9.3a1.126 1.126 0 0 1-1.021 1.444l-7.968.414a1.126 1.126 0 0 1-1.165-1.33l1.78-9.536z" fill="#fff"/><path fill-rule="evenodd" clip-rule="evenodd" d="M46.56 54.403a2.955 2.955 0 0 0 2.798-3.104c-.084-1.63-3.236-5.33-3.236-5.33s-2.752 4.008-2.667 5.637a2.955 2.955 0 0 0 3.105 2.797z" fill="#959595"/><path d="M28.652 33.947l33.493-1.742.522 10.048-33.492 1.742-.523-10.048z" fill="#D1D1D1"/><path d="M33.32 23.078a10.83 10.83 0 0 1-2.57-1.91c-3.308-3.32-4.088-8.344-2.02-12.411.43-.847 1.304-1.011 1.975-.338l2.621 2.575A12.66 12.66 0 0 1 43.801 4.39c6.986-.363 12.944 5.006 13.308 11.992.363 6.986-5.006 12.944-11.992 13.308a12.678 12.678 0 0 1-3.412-.283 2.425 2.425 0 0 1-2.298 2.49c-1.846.097-2.993.458-3.613.728a3.637 3.637 0 0 0-.631.342 2.425 2.425 0 0 1-3.31-3.543l1.69 1.738c-1.69-1.738-1.688-1.74-1.688-1.74l.002-.003.005-.004.01-.01.022-.02a3.122 3.122 0 0 1 .186-.163c.104-.085.238-.187.402-.299.33-.224.783-.487 1.376-.745.798-.348 1.834-.678 3.148-.896a12.715 12.715 0 0 1-3.685-4.204zM59.175 32.583a2.425 2.425 0 0 1-3.762 3.06 3.65 3.65 0 0 0-.578-.425c-.578-.352-1.665-.866-3.48-1.212a2.425 2.425 0 1 1 .908-4.765c2.345.448 3.985 1.159 5.094 1.834.553.337.965.66 1.262.926a5.643 5.643 0 0 1 .475.484l.045.053.019.024.008.01.005.006.002.002s.002.003-1.91 1.495l1.912-1.492z" fill="#BFBFBF"/><path fill-rule="evenodd" clip-rule="evenodd" d="M28.082 53.468c2.11-1.703 4.806-2.075 6.637-1.917a.838.838 0 1 1-.144 1.67c-1.543-.133-3.764.199-5.44 1.552-1.62 1.307-2.89 3.697-2.344 8.035a.839.839 0 0 1-1.664.21c-.6-4.782.787-7.801 2.955-9.55z" fill="#BFBFBF"/><path fill-rule="evenodd" clip-rule="evenodd" d="M124.246 103.467a11.191 11.191 0 0 0 6.485-7.945l.083-.678a1.02 1.02 0 0 0-1.42-1.06l-9.114 3.971a1.701 1.701 0 0 1-2.239-.88l-2.592-5.946a1.702 1.702 0 0 1 .88-2.24l9.114-3.971a1.02 1.02 0 0 0 .19-1.763l-.554-.4a11.188 11.188 0 0 0-10.233-.659c-4.599 2.005-7.175 6.724-6.667 11.462l-29.728 12.955a3.742 3.742 0 0 0-1.935 4.925l.143.33a3.742 3.742 0 0 0 4.926 1.935l29.727-12.955c3.125 3.597 8.335 4.923 12.934 2.919zm-43.591 4.117a1.877 1.877 0 0 1 1.498 3.439l-.296.129a1.875 1.875 0 1 1-1.498-3.439l.296-.129z" fill="#D8D8D8"/><path d="M108.956 97.296c.414.95-.02 2.055-.97 2.47l-18.348 7.995a1.875 1.875 0 1 1-1.498-3.438l18.348-7.996a1.875 1.875 0 0 1 2.468.97z" fill="#C7C7C7"/><path d="M93.545 46.838a.108.108 0 0 1-.187-.012l-3.18-6.419c-1.45-2.927.812-6.326 4.072-6.119 3.26.208 5.073 3.867 3.263 6.587l-3.968 5.963zM97.305 58.251a.108.108 0 0 0 .109.153l7.13-.686c3.252-.313 4.945-4.029 3.049-6.689-1.897-2.66-5.962-2.268-7.317.704l-2.97 6.518zM87.913 61.724a.108.108 0 0 1-.177.06l-5.39-4.717c-2.459-2.151-1.667-6.157 1.426-7.21 3.092-1.054 6.165 1.635 5.531 4.84l-1.39 7.027zM68.548 96.483c.073.04.075.144.004.187l-6.138 3.693c-2.8 1.684-6.372-.293-6.431-3.56-.06-3.266 3.44-5.37 6.298-3.789l6.267 3.469zM50.315 105.177a.108.108 0 0 0-.052-.18l-6.957-1.705c-3.173-.778-5.998 2.171-5.085 5.308.913 3.136 4.879 4.108 7.139 1.749l4.955-5.172zM67.221 107.054a.108.108 0 0 1 .14.125l-1.487 7.007c-.678 3.196-4.561 4.459-6.99 2.274-2.428-2.185-1.58-6.179 1.526-7.19l6.811-2.216z" fill="#fff"/><path d="M128.07 48.749l-1.732-1.597a.75.75 0 0 0-.911-.08l-5.211 3.332a.743.743 0 0 0-.314.417l-.877 2.938-16.637 18.054a1.87 1.87 0 0 0 .108 2.644l.166.153c.76.7 1.944.652 2.644-.108l16.395-17.79a.759.759 0 0 0 .13-.038l3.108-1.211a.748.748 0 0 0 .389-.347l2.897-5.466a.749.749 0 0 0-.155-.901z" fill="#D8D8D8"/><path d="M42.184 71.604c-5.83-.206-10.17-2.652-12.022-7.401a4.785 4.785 0 0 1 8.535-4.246c.769.946 1.858 1.809 3.332 2.056.158.012.322.02.493.027l.08.003a4.785 4.785 0 0 1-.418 9.561z" fill="#959595"/><path d="M37.906 70.974c1.31.367 2.743.576 4.279.63a4.785 4.785 0 0 0 4.941-5.137 8.677 8.677 0 0 0-1.997-.126 8.652 8.652 0 0 0-7.223 4.633z" fill="#BFBFBF"/><path d="M36.475 58.054c.183.328.296.702.317 1.102l.066 1.265a2.533 2.533 0 0 1-2.399 2.662l-1.968.102a2.534 2.534 0 0 1-2.544-1.755 4.78 4.78 0 0 1 2.935-3.424 4.77 4.77 0 0 1 3.593.048z" fill="#fff"/><path d="M42.677 62.048c-.422.4-.984.659-1.611.691l-1.968.103a2.533 2.533 0 0 1-2.662-2.398l-.127-2.457a4.778 4.778 0 0 1 2.388 1.97c.769.946 1.858 1.809 3.332 2.056.158.012.322.02.493.027l.079.003.076.005z" fill="#fff"/><path d="M104.564 78.868a5.975 5.975 0 0 1-1.538 4.803L92.378 95.225a5.987 5.987 0 0 1-8.46.346l-.367-.338a5.987 5.987 0 0 1-.345-8.46l10.647-11.555a5.974 5.974 0 0 1 4.662-1.924 2.807 2.807 0 0 1 .283-3.441l.887-.963a1.497 1.497 0 0 1 2.115-.087l6.971 6.425c.608.56.647 1.507.087 2.115l-.888.962a2.806 2.806 0 0 1-3.406.563z" fill="#BFBFBF"/><path d="M97.132 77.237a1.134 1.134 0 0 0-1.668-1.536l-11.14 12.088a1.134 1.134 0 1 0 1.667 1.537l11.14-12.089zM100.202 77.506l.025.023c.684.63.728 1.696.098 2.38l-11.916 12.93a1.684 1.684 0 0 1-2.38.098l-.025-.023a1.684 1.684 0 0 1-.097-2.38l11.916-12.93a1.683 1.683 0 0 1 2.379-.098zM102.348 80.502c.46.424.489 1.142.065 1.602l-11.14 12.089a1.134 1.134 0 0 1-1.668-1.537l11.14-12.089a1.135 1.135 0 0 1 1.603-.065z" fill="#959595"/></svg>