<svg viewBox="0 0 135 124" fill="none" xmlns="http://www.w3.org/2000/svg"><g clip-path="url(#clip0)"><path d="M124 28v79a17 17 0 0 1-17 17H28a17 17 0 0 1-17-17V28a17 17 0 0 1 17-17h79a17 17 0 0 1 17 17z" fill="#E5E5E5"/><path d="M123.06 112.6A17.004 17.004 0 0 1 107 124H57.67l6.68-5.37a27.31 27.31 0 0 1 17.11-6l41.6-.03z" fill="#B2B2B2"/><path d="M119.7 112.7l-13.47 6.41a11.473 11.473 0 0 1-14.36-3.84l-1.78-2.57v-15h29.61v15zM96.68 58.77c16.171 0 29.28-13.11 29.28-29.28S112.851.21 96.68.21C80.51.21 67.4 13.32 67.4 29.49s13.11 29.28 29.28 29.28z" fill="#BFBFBF"/><path d="M59.22 88.88a4.463 4.463 0 0 1-3.16-5.47L62.93 58l10.36 1.5-8.6 26.23a4.47 4.47 0 0 1-5.47 3.15z" fill="#A6A6A6"/><path d="M67.17 101a4.468 4.468 0 0 1-3.96-3.055A4.458 4.458 0 0 1 63 96.2l1.78-26.27 10.45-.56-3.31 27.41a4.473 4.473 0 0 1-4.75 4.22z" fill="#A6A6A6"/><path d="M75.31 82.84c7.19 0 13.02-5.83 13.02-13.02 0-7.19-5.83-13.02-13.02-13.02-7.19 0-13.02 5.83-13.02 13.02 0 7.19 5.83 13.02 13.02 13.02z" fill="#BFBFBF"/><path d="M121.89 82.84c7.191 0 13.02-5.83 13.02-13.02 0-7.19-5.829-13.02-13.02-13.02s-13.02 5.83-13.02 13.02c0 7.19 5.829 13.02 13.02 13.02z" fill="#D1D1D1"/><path d="M96.24 23.24V23a29.25 29.25 0 0 1 29.25 29.25v34.13a16.003 16.003 0 0 1-11.82 15.41l-20.36 5.45a10.996 10.996 0 0 1-7.13-.5l-9.46-4A16 16 0 0 1 67 88.05v-35.8a29.002 29.002 0 0 1 29.24-29.01z" fill="#D1D1D1"/><path d="M85.67 59.6v6.64a8.65 8.65 0 0 1-17.29 0V59.6a8.57 8.57 0 0 1 3.46-6.91l.1-.08A8.49 8.49 0 0 1 77 51c.266-.015.534-.015.8 0a6.43 6.43 0 0 1 1 .15 8.45 8.45 0 0 1 4.34 2.34 8.602 8.602 0 0 1 2.53 6.11z" fill="#fff"/><path d="M78.8 51.15v2.66a3.5 3.5 0 0 1-7 0v-1.12l.1-.08A8.49 8.49 0 0 1 77 51c.266-.015.534-.015.8 0 .337.024.671.074 1 .15z" fill="#A6A6A6"/><path d="M111 59.6v6.64a8.648 8.648 0 0 1-14.657 5.926 8.65 8.65 0 0 1-2.633-5.926V59.6a8.54 8.54 0 0 1 1.83-5.32c.21-.262.433-.512.67-.75a8.59 8.59 0 0 1 5.33-2.53c.283-.015.567-.015.85 0h.14a8.66 8.66 0 0 1 8.47 8.6z" fill="#fff"/><path d="M102.53 51v2.86a3.472 3.472 0 0 1-3.254 3.527 3.47 3.47 0 0 1-3.666-3.097c.21-.262.433-.512.67-.75a8.59 8.59 0 0 1 5.26-2.54c.283-.015.567-.015.85 0h.14z" fill="#A6A6A6"/><path d="M67 75.82h46.12V64l-5.65-.57A22.402 22.402 0 0 0 97 64.9l-8.06 3.21L81.25 65A22.251 22.251 0 0 0 69 63.66L67 64v11.82z" fill="#D1D1D1"/><path d="M64.8 6.27A4.47 4.47 0 0 1 69 1.56L95.3.14l.5 8.93-26.29 1.41a4.47 4.47 0 0 1-4.71-4.21z" fill="#BFBFBF"/><path d="M49.94 28.88a4.48 4.48 0 0 1 1.28-6.19l22-14.44 6.75 8-23.84 13.9a4.47 4.47 0 0 1-6.19-1.27z" fill="#BFBFBF"/><path d="M48.85 45.08a4.461 4.461 0 0 1-.41-6.3l22.41-24.43L74.48 25 55.16 44.67a4.47 4.47 0 0 1-6.31.41z" fill="#BFBFBF"/><path d="M47.09 60.15A4.48 4.48 0 0 1 46 53.93l15-21.65 9.26 4.88L53.3 59a4.47 4.47 0 0 1-6.21 1.15zM85.51 42.41a4.48 4.48 0 0 1-1.19-6.21l14.84-21.75 9.29 4.81-16.73 22a4.47 4.47 0 0 1-6.21 1.15z" fill="#BFBFBF"/><path d="M56.07 73.32c-3.18-.74-5-3.38-4.06-5.88l14.76-42.6 14.61 5.56-17.84 39.72c-.94 2.51-4.28 3.94-7.47 3.2z" fill="#BFBFBF"/><path d="M73.67 47.58c4.68-10.42 14.44-18.95 27.11-23.7l1.29-.49-19.27-8.56L70.9 33.6l2.77 13.98z" fill="#BFBFBF"/><path d="M105.32 75.36l.12 1.24c.065.749.065 1.501 0 2.25A11.359 11.359 0 0 1 95.28 89l-5.5.54a11.32 11.32 0 0 1-12.37-10.2l-.12-1.24a2.141 2.141 0 0 1 1.92-2.34L103 73.44a2.16 2.16 0 0 1 2.32 1.92z" fill="#A6A6A6"/><path d="M105.32 75.36l.12 1.24c.065.749.065 1.501 0 2.25a2.667 2.667 0 0 1-.93.25l-20.25 2A2.94 2.94 0 0 1 81 78.43l-.27-2.82L103 73.44a2.16 2.16 0 0 1 2.32 1.92z" fill="#fff"/><path d="M103.18 84.55a11.253 11.253 0 0 1-7.9 4.45l-1.4.14c-.876.085-1.759.065-2.63-.06a8 8 0 0 1 6.9-5.7 7.9 7.9 0 0 1 5.03 1.17z" fill="#BFBFBF"/><path d="M127.85 74.31h-.01a2.3 2.3 0 0 0-2.3 2.3v11.25a2.3 2.3 0 0 0 2.3 2.3h.01a2.3 2.3 0 0 0 2.3-2.3V76.61a2.3 2.3 0 0 0-2.3-2.3z" fill="#B2B2B2"/><path d="M91.37 52a3.377 3.377 0 0 0-3.375-3.38A3.377 3.377 0 0 0 84.62 52v17.43a3.377 3.377 0 0 0 3.375 3.38 3.377 3.377 0 0 0 3.375-3.38V52zM41.7 45.33a9 9 0 0 0-17.08-3.95 9 9 0 0 0-17.07 3.95v.46c0 8.64 9.87 16.81 14.6 20.23a4.16 4.16 0 0 0 4.92 0c4.72-3.5 14.63-11.85 14.63-20.2-.02-.19 0-.34 0-.49zM42.31 12.93a6.52 6.52 0 1 0 0-13.04 6.52 6.52 0 0 0 0 13.04z" fill="#BFBFBF"/><path d="M30.6 12.93a6.52 6.52 0 1 0 0-13.04 6.52 6.52 0 0 0 0 13.04z" fill="#BFBFBF"/><path d="M48.83 6.75c0 6.05-7.18 12.1-10.6 14.64a3 3 0 0 1-3.57 0C31.23 18.93 24.08 13 24.08 6.75M47.39 90.54v.71a4.14 4.14 0 0 1-.88 2.44 4.4 4.4 0 0 1-6.18.84l-9.53-7.28-4.35-3.32a4.41 4.41 0 0 1-.82-6.17A4.361 4.361 0 0 1 29.14 76a4.28 4.28 0 0 1 2.66.9l13.54 10.35.35.27a4.5 4.5 0 0 1 1.7 3.02z" fill="#BFBFBF"/><path d="M36.22 93.37a4.4 4.4 0 0 1-5.44 3L6.85 89.86a4.4 4.4 0 0 1 2.45-8.45l23.9 6.51a4.4 4.4 0 0 1 3.02 5.45z" fill="#D1D1D1"/><path d="M33.72 92a4.42 4.42 0 0 1-4.58 4.23l-24.79-.69a4.41 4.41 0 0 1-3.838-6.223A4.4 4.4 0 0 1 4.7 86.74l24.79.68A4.41 4.41 0 0 1 33.72 92z" fill="#D1D1D1"/><path d="M36.65 105.45h-4.33l-3.53-2.81L20.44 96l-.21-.16L22 94.12l7.15-6.71.1-.1.07-.06h12.7a7.66 7.66 0 0 1 7.28 5.29l3.26 10 .74 2.3-16.65.61z" fill="#D1D1D1"/><path d="M62.37 124H32.6L27 106.85a2.86 2.86 0 0 1 1.09-3.24 2.787 2.787 0 0 1 1.64-.52h22.14a5.002 5.002 0 0 1 2 .41 5.084 5.084 0 0 1 2.86 3.12L62.37 124z" fill="#B2B2B2"/><path d="M119.87 28.89l-14.23-7.31-10.31 6.53A52.195 52.195 0 0 1 113.43 42a21.267 21.267 0 0 1 5 13.69v17.69a7.08 7.08 0 0 0 7.08 7.08v-4.25c.33-1.07 13.87-42.35-5.64-47.32z" fill="#BFBFBF"/></g><defs><clipPath id="clip0"><path fill="#fff" d="M0 0h135v124H0z"/></clipPath></defs></svg>