<svg viewBox="0 0 135 124" fill="none" xmlns="http://www.w3.org/2000/svg"><g clip-path="url(#clip0)"><path d="M124 28v79a17 17 0 0 1-3.29 10.06 17.69 17.69 0 0 1-1.55 1.82A16.918 16.918 0 0 1 107 124H28a17 17 0 0 1-11.84-4.81 18.653 18.653 0 0 1-1.54-1.69A16.93 16.93 0 0 1 11 107V28a16.73 16.73 0 0 1 .89-5.44A17 17 0 0 1 28 11h79a17 17 0 0 1 17 17z" fill="#483473"/><path d="M123.63 103.13V107a17 17 0 0 1-3.29 10.06c-.475.64-.993 1.249-1.55 1.82a16.944 16.944 0 0 1-5.56 3.794 16.943 16.943 0 0 1-6.6 1.326H67.74l-4.3-7.37-17.93-30.74 34.86-26 25.28 25.25 17.98 17.99z" fill="#7AC625"/><path d="M105.66 85.16l-42.22 31.47-17.93-30.74L80.37 59.9l25.29 25.26z" fill="#FEC72E"/><path opacity=".5" d="M73.1 65.63l24.44 25.59 8.12-6.06L80.37 59.9l-7.27 5.73z" fill="#fff"/><path d="M57.41 89.85c15.083 0 27.31-12.227 27.31-27.31 0-15.082-12.227-27.31-27.31-27.31-15.083 0-27.31 12.228-27.31 27.31 0 15.083 12.227 27.31 27.31 27.31z" fill="#7AC625"/><path d="M46.44 48.37a9.74 9.74 0 0 1-13.89-2.84l-14.82-23A10.76 10.76 0 0 1 20.44 8a9.75 9.75 0 0 1 13.9 2.84l14.82 23a10.77 10.77 0 0 1-2.72 14.53z" fill="#7AC625"/><path d="M21.66 32.87l.2.22 11 12.83.93 1.1 6.48 7.57 3.4 4 4.39 5.14a9.921 9.921 0 0 1 1.79 3 10.77 10.77 0 0 1-2.58 11.78 9.62 9.62 0 0 1-10.47 1.84l-23.59-26L6.94 47a10.81 10.81 0 0 1 .8-14.79 9.69 9.69 0 0 1 13.92.66zM67.89 59.8a10.59 10.59 0 0 0 6.18-13.32L61.2 7.68a9.908 9.908 0 0 0-12.74-6.46 10.59 10.59 0 0 0-6.18 13.32l12.87 38.8a9.92 9.92 0 0 0 12.74 6.46z" fill="#7AC625"/><path d="M79.64 38.5l2.74 10.74a29.06 29.06 0 0 1-2.81 29.34 5.9 5.9 0 0 1-9.44.06l-5.39-7a11.661 11.661 0 0 1-1.33-12L65 56.2 57.46 62A8.683 8.683 0 1 1 46.9 48.21l18.92-14.5a8.76 8.76 0 0 1 13.82 4.79z" fill="#95DD2F"/><path d="M36.5 99.37l.9 3.19a.709.709 0 0 0 .44.47l2.58.89a.706.706 0 0 1 .467.66.698.698 0 0 1-.467.66l-2.57.88a.721.721 0 0 0-.45.48l-.9 3.46a.688.688 0 0 1-1.096.378.689.689 0 0 1-.244-.378l-.9-3.46a.715.715 0 0 0-.45-.48l-2.52-.89a.684.684 0 0 1-.473-.655.691.691 0 0 1 .473-.655l2.53-.89a.68.68 0 0 0 .44-.47l.9-3.19a.7.7 0 0 1 1.34 0zM92.1 18.41l.9 3.19a.71.71 0 0 0 .44.47L96 23a.69.69 0 0 1 0 1.31l-2.57.89a.72.72 0 0 0-.45.48l-.9 3.46a.69.69 0 0 1-1.34 0l-.9-3.46a.72.72 0 0 0-.45-.48l-2.52-.89a.69.69 0 0 1 0-1.31l2.53-.89a.69.69 0 0 0 .44-.47l.9-3.19a.7.7 0 0 1 1.36-.04zM104.36 44.7l.55 2a.424.424 0 0 0 .28.29l1.58.55a.427.427 0 0 1 .286.405.431.431 0 0 1-.286.405l-1.58.54a.429.429 0 0 0-.27.3l-.56 2.13a.432.432 0 0 1-.676.229.432.432 0 0 1-.154-.23l-.53-2.17a.44.44 0 0 0-.28-.3l-1.55-.54a.428.428 0 0 1-.285-.404.43.43 0 0 1 .285-.405l1.56-.55a.44.44 0 0 0 .27-.29l.55-2a.432.432 0 0 1 .419-.267.43.43 0 0 1 .391.307z" fill="#9069CD"/></g><defs><clipPath id="clip0"><path fill="#fff" d="M0 0h135v124H0z"/></clipPath></defs></svg>