<svg viewBox="0 0 135 124" fill="none" xmlns="http://www.w3.org/2000/svg"><g clip-path="url(#clip0)"><path d="M107 11H28c-9.389 0-17 7.611-17 17v79c0 9.389 7.611 17 17 17h79c9.389 0 17-7.611 17-17V28c0-9.389-7.611-17-17-17z" fill="#FFC800"/><path d="M39.42 11L11 39.42v50L89.38 11H39.42zm84.5 15.45v-.44c0-.39-.1-.79-.18-1.18l-.06-.36c-.1-.47-.22-.93-.36-1.39l-.15-.45c-.1-.31-.22-.63-.34-.93-.12-.3-.14-.36-.22-.53-.14-.32-.29-.63-.45-.94-.16-.31-.29-.53-.44-.79-.15-.26-.25-.43-.39-.64-.14-.21-.29-.44-.44-.65l-.33-.44a17.557 17.557 0 0 0-2-2.21l-.19-.16a16.444 16.444 0 0 0-3.74-2.54L12.8 114.57a16.444 16.444 0 0 0 2.54 3.74c.05.07.11.13.16.19a17.557 17.557 0 0 0 2.21 2l.44.33.65.44c.21.14.43.27.64.39.21.12.52.3.79.44s.62.31.94.45l.53.22c.3.12.62.24.93.34l.45.15c.46.14.92.26 1.39.36l.36.06c.39.08.79.14 1.18.18h.44c.51 0 1 .08 1.55.08h25.32L124 53.32V28c0-.52 0-1-.08-1.55z" fill="#FFD900"/><path d="M59.39 56.35V36.52a8.83 8.83 0 0 0-8.83-8.83h-1.42V26.5h27.19a9.24 9.24 0 0 0 9.23-9.24A9.228 9.228 0 0 0 76.33 8H57a6.46 6.46 0 0 0-6.46-6.46H23.89A9.91 9.91 0 0 0 14 11.48h-3.81A10.35 10.35 0 0 0-.15 21.83a10.34 10.34 0 0 0 10.34 10.34h9.88a6.76 6.76 0 0 0 6.76 6.76h22.68a4.31 4.31 0 0 1 4.31 4.31v13.11h5.57z" fill="#F89700"/><path d="M122.02 63.8h-82.5v37.75h82.5V63.8z" fill="#E27800"/><path d="M83.15 119.76c12.957 0 23.46-10.504 23.46-23.46 0-12.957-10.503-23.46-23.46-23.46-12.956 0-23.46 10.503-23.46 23.46 0 12.956 10.504 23.46 23.46 23.46z" fill="#E27800"/><path d="M83.15 111.2c8.229 0 14.9-6.671 14.9-14.9s-6.671-14.9-14.9-14.9-14.9 6.671-14.9 14.9 6.671 14.9 14.9 14.9z" fill="#FFC800"/><path d="M83.15 104.96a8.66 8.66 0 1 0 0-17.321 8.66 8.66 0 0 0 0 17.321z" fill="#FFE75E"/><path d="M124 30.29V105h-3.4a8.44 8.44 0 0 1-6.78-3.41 8.098 8.098 0 0 1-1.6-4.92c0-.79 0-1.58-.07-2.38a28.72 28.72 0 0 0-57.37 2v.09a8.679 8.679 0 0 1-1.68 5.16 8.25 8.25 0 0 1-6.7 3.46H24.85a6.999 6.999 0 0 1-7-7V64.2a10.9 10.9 0 0 1 8.45-10.61l97.7-23.3z" fill="#FFB100"/><path d="M26 55.09a1.51 1.51 0 0 1-.35-3l97.7-23.3a1.503 1.503 0 0 1 1.81 1.11 1.502 1.502 0 0 1-1.11 1.81L26.3 55.05a1.392 1.392 0 0 1-.3.04zm6.19 10.56H19.41a3.83 3.83 0 0 0-3.83 3.83v11.53a3.83 3.83 0 0 0 3.83 3.83h12.78a3.83 3.83 0 0 0 3.83-3.83V69.48a3.83 3.83 0 0 0-3.83-3.83z" fill="#FFE75E"/><path d="M12.69 36.08H5.43a2.69 2.69 0 1 0 0 5.38h7.26a2.69 2.69 0 1 0 0-5.38zM70.38 0h-7.26a2.69 2.69 0 1 0 0 5.38h7.26a2.69 2.69 0 0 0 0-5.38zm53.27 97.8h-1.78a4.62 4.62 0 0 1-4.61-4.31 34.225 34.225 0 0 0-35.517-31.45A34.22 34.22 0 0 0 48.93 96.3h-3a37.22 37.22 0 0 1 74.32-3 1.65 1.65 0 0 0 1.62 1.55h1.78v2.95z" fill="#F89700"/><path d="M32.19 65.65A3.83 3.83 0 0 1 36 69.48V81a3.82 3.82 0 0 1-3.83 3.83l.02-19.18z" fill="#FFD900"/><path d="M19.1 95.64h26.27a4.15 4.15 0 0 1 4.15 4.15v3.61a4.15 4.15 0 0 1-4.15 4.15H19.1a4.83 4.83 0 0 1-4.83-4.83v-2.25a4.83 4.83 0 0 1 4.83-4.83z" fill="#E27800"/></g><defs><clipPath id="clip0"><path fill="#fff" d="M0 0h135v124H0z"/></clipPath></defs></svg>