<svg viewBox="0 0 135 124" fill="none" xmlns="http://www.w3.org/2000/svg"><path d="M11 28c0-9.389 7.611-17 17-17h79c9.389 0 17 7.611 17 17v79c0 9.389-7.611 17-17 17H28c-9.389 0-17-7.611-17-17V28z" fill="#1CB0F6"/><path fill-rule="evenodd" clip-rule="evenodd" d="M55.726 13.553l26.052-9.94c6.795-2.593 14.28.49 16.72 6.884 2.44 6.395-1.09 13.68-7.884 16.273L52.259 41.404l-4.417-11.579c-2.44-6.395 1.09-13.68 7.884-16.272z" fill="#ADE756"/><circle cx="63.123" cy="23.391" r="3.836" transform="rotate(-21.122 63.123 23.391)" fill="#fff"/><circle cx="82.209" cy="16.018" r="3.836" transform="rotate(-21.122 82.209 16.018)" fill="#fff"/><circle cx="72.666" cy="19.704" r="3.836" transform="rotate(-21.122 72.666 19.704)" fill="#fff"/><path d="M65.816 70.081c3.645-18.454 21.56-30.46 40.014-26.815l.777.154c18.454 3.645 30.459 21.56 26.814 40.014l-.872 4.415c-3.644 18.454-21.559 30.459-40.014 26.814l-.776-.153c-18.455-3.645-30.46-21.56-26.815-40.014l.872-4.415z" fill="#FFB7E3"/><path d="M95.714 106.171a48.662 48.662 0 0 1-3.57.331c-7.135.399-13.875-.724-18.353-1.812a33.964 33.964 0 0 0 5.4 4.57c3.89.588 8.426.95 13.146.685 9.127-.51 19.147-3.379 26.371-11.716-5.842 5.91-14.263 9.064-22.994 7.942z" fill="#FF9BD8"/><path d="M126.09 84.279c-2.935 14.86-17.36 24.527-32.22 21.592-14.86-2.935-24.527-17.36-21.592-32.22 2.935-14.86 17.36-24.527 32.22-21.592 14.86 2.935 24.527 17.36 21.592 32.22z" fill="#E18E70"/><path d="M107.679 71.475c-4.304 1.288-6.48 3.304-7.366 5.431a6.197 6.197 0 0 0 7.972 8.194c.595-.21 1.031-.37 1.378-.496 1.264-.463 1.331-.487 3.537-.909l.124-.023.086-.017v-.001a6.2 6.2 0 0 0 2.131-11.217c-2.583-1.737-6.188-1.402-7.862-.962z" fill="#fff"/><path d="M104.399 77.5a2.764 2.764 0 0 0 3.149-3.611 4.122 4.122 0 0 1 3.042 4.798l-.37 1.875a4.123 4.123 0 0 1-8.089-1.598l.37-1.875c.046-.235.112-.462.195-.678.395.546.989.949 1.703 1.09z" fill="#3D3D3D"/><path d="M121.958 83.294c-10.103-3.138-17.985-10.18-20.663-13.31l6.23-2.615 10.421.08 6.842 5.967.124 7.715-2.954 2.163z" fill="#E18E70"/><path d="M78.69 68.443c19.702 4.594 32.69-3.879 39.949-8.849a27.3 27.3 0 0 0-14.096-7.526 27.316 27.316 0 0 0-18.49 2.85c-.099.037-.199.081-.299.135-.378.2-.758.416-1.144.636-2.734 1.553-5.762 3.274-10.53 1.073-.091-.042-.178-.08-.263-.118l-2.375-1.14c-.833-.41-1.59.019-1.721.94-.633 4.424 1.673 8.83 5.78 10.856.585.288 1.186.518 1.794.69.473.191.946.349 1.394.453z" fill="#3D3D3D"/><path d="M86.935 90.647a2.278 2.278 0 0 1 2.677-1.794l14.455 2.855a2.279 2.279 0 1 1-1.456 4.275l-.686-.34a22.912 22.912 0 0 0-11.828-2.337l-.765.055a2.278 2.278 0 0 1-2.397-2.714zM94.969 82.483a1.795 1.795 0 0 0-.059-.052c-2.038-1.73-4.505-3.314-7.286-4.61a34.368 34.368 0 0 0-5.242-1.948 6.172 6.172 0 0 1-.768-3.914c3.932.125 9.624-.052 14.029-1.844 2.379 2.348 3.269 4.57 3.278 6.516a6.193 6.193 0 0 1-3.953 5.852z" fill="#fff"/><path d="M90.86 74.827a2.764 2.764 0 0 0 3.15-3.612 4.123 4.123 0 0 1 3.042 4.798l-.37 1.875a4.124 4.124 0 0 1-3.383 3.272 33.113 33.113 0 0 0-4.588-2.81 4.103 4.103 0 0 1-.119-2.06l.37-1.875c.047-.235.113-.462.196-.678.395.546.99.949 1.702 1.09z" fill="#3D3D3D"/><path d="M102.295 85.45c2.384-.774 5.113-1.275 8.031-1.409 2.369-.11 4.646.034 6.741.386a6.9 6.9 0 0 1-2.689.973l.001.002-.096.01a6.665 6.665 0 0 1-.14.017c-2.466.286-2.541.308-3.969.71-.391.11-.883.248-1.554.428a7.03 7.03 0 0 1-3.859.073 7.076 7.076 0 0 1-2.466-1.19z" fill="#E18E70"/><path fill-rule="evenodd" clip-rule="evenodd" d="M100.566 85.162a1.752 1.752 0 0 0 .675 1.69 8.825 8.825 0 0 0 3.076 1.485 8.784 8.784 0 0 0 4.787-.084c.666-.18 1.158-.317 1.545-.426l.133-.038c1.173-.33 1.233-.347 3.556-.617l.156-.018.087-.01a8.65 8.65 0 0 0 3.414-1.228 1.752 1.752 0 0 0-.636-3.218 33.729 33.729 0 0 0-7.114-.409c-3.064.141-5.948.668-8.491 1.494a1.754 1.754 0 0 0-1.188 1.379zm11.101.598c-.456.087-.828.191-1.492.378-.391.11-.884.249-1.555.429a7.027 7.027 0 0 1-3.981.04 7.064 7.064 0 0 1-2.343-1.156c.77-.25 1.577-.472 2.414-.662a32.13 32.13 0 0 1 5.616-.748 33.948 33.948 0 0 1 3.674.032l.115.008.014.001.065.005.033.002c.977.07 1.926.184 2.841.338a6.938 6.938 0 0 1-2.682.972l-.007.001v.002l-.096.01a16.203 16.203 0 0 0-2.616.347z" fill="#E18E70"/><path d="M98.97 80.87c.129.025.91 2.055 1.693 4.177.78 2.113-1.061 4.246-3.27 3.81-2.21-.437-3.102-3.11-1.578-4.767 1.532-1.665 3.026-3.246 3.155-3.22z" fill="#9E4D31"/><path d="M5.983 48.846a5 5 0 0 1 2.731-6.523l22.313-9.142a5 5 0 0 1 6.522 2.732L57.47 84.53a5 5 0 0 1-2.731 6.522l-22.313 9.142a5 5 0 0 1-6.522-2.731L5.983 48.846z" fill="#fff"/><path fill-rule="evenodd" clip-rule="evenodd" d="M7.577 39.547l22.313-9.141a8 8 0 0 1 10.435 4.37l19.92 48.617a8 8 0 0 1-4.37 10.436l-22.313 9.142a8 8 0 0 1-10.435-4.37L3.207 49.983a8 8 0 0 1 4.37-10.436zm1.137 2.776a5 5 0 0 0-2.73 6.523l19.919 48.618a5 5 0 0 0 6.522 2.731l22.313-9.142a5 5 0 0 0 2.731-6.522l-19.92-48.618a5 5 0 0 0-6.522-2.731L8.714 42.322z" fill="#4B4B4B"/><path d="M19.116 80.883l31.563-12.94L57.47 84.53a5.003 5.003 0 0 1-2.731 6.524l-22.311 9.148a4.997 4.997 0 0 1-6.52-2.73l-6.792-16.589z" fill="#CECECE"/><path d="M30.248 79.985l-1.988.824c-.572.237-.861.851-.646 1.371l1.171 2.824c.216.52.855.75 1.427.512l1.988-.824c.572-.237.861-.851.646-1.371l-1.17-2.824c-.216-.52-.855-.75-1.428-.512zM25.773 81.84l-2.073.86c-.573.236-.862.85-.646 1.37l1.17 2.825c.216.52.855.749 1.427.511l2.073-.859c.573-.237.862-.851.646-1.371L27.2 82.35c-.216-.52-.855-.749-1.427-.511zM48.576 72.387l-2.073.86c-.573.237-.862.85-.646 1.37l1.17 2.825c.216.52.855.749 1.427.512l2.074-.86c.572-.237.861-.851.646-1.371l-1.171-2.825c-.216-.52-.855-.748-1.427-.511zM34.809 78.094l-1.988.824c-.572.237-.861.851-.646 1.371l1.17 2.825c.217.52.855.749 1.428.511l1.987-.823c.573-.238.862-.852.647-1.372l-1.171-2.824c-.216-.52-.855-.75-1.427-.512zM39.37 76.204l-1.988.824c-.572.237-.862.85-.646 1.37l1.17 2.825c.216.52.855.75 1.428.512l1.987-.824c.573-.237.862-.851.646-1.371l-1.17-2.825c-.216-.52-.855-.749-1.427-.511zM43.93 74.312l-1.987.824c-.572.238-.862.852-.646 1.371l1.17 2.825c.216.52.855.749 1.428.512l1.987-.824c.573-.238.862-.852.647-1.372l-1.171-2.824c-.216-.52-.855-.75-1.427-.512zM35.484 84.802l-1.988.824c-.572.237-.862.851-.646 1.37l1.17 2.825c.216.52.855.75 1.427.512l1.988-.824c.573-.237.862-.851.646-1.371l-1.17-2.825c-.216-.52-.855-.749-1.427-.511zM31.009 86.657l-2.073.86c-.573.237-.862.85-.646 1.37l1.17 2.825c.216.52.855.75 1.427.512l2.073-.86c.573-.237.862-.85.647-1.37l-1.171-2.825c-.216-.52-.855-.75-1.427-.512zM40.045 82.91l-1.987.825c-.573.237-.862.85-.646 1.37l1.17 2.825c.216.52.855.75 1.427.512l1.988-.824c.572-.237.862-.851.646-1.371l-1.17-2.825c-.216-.52-.855-.749-1.428-.511zM44.605 81.02l-1.988.824c-.572.238-.862.852-.646 1.372l1.17 2.824c.216.52.855.749 1.428.512l1.987-.824c.573-.238.862-.852.646-1.371l-1.17-2.825c-.216-.52-.855-.749-1.427-.512zM49.165 79.13l-1.987.824c-.573.237-.862.85-.647 1.37l1.171 2.825c.216.52.855.75 1.427.512l1.988-.824c.572-.237.862-.851.646-1.371l-1.17-2.825c-.216-.52-.855-.749-1.428-.511zM47.992 86.603L34.518 92.19c-.573.237-.862.851-.647 1.37l.78 1.884c.216.52.855.749 1.428.512l13.475-5.587c.572-.237.861-.85.646-1.37l-.78-1.884c-.216-.52-.855-.749-1.428-.511z" fill="#fff"/><path fill-rule="evenodd" clip-rule="evenodd" d="M21.917 62.395l11.594-4.694c3.023-1.224 6.409.09 7.56 2.936 1.153 2.846-.364 6.145-3.388 7.37l-17.068 6.91-2.086-5.153c-1.152-2.846.365-6.145 3.388-7.369z" fill="#78C800"/><path fill-rule="evenodd" clip-rule="evenodd" d="M31.332 42.731l-8.528 3.536c-2.224.922-3.074 3.968-1.898 6.804 1.176 2.836 3.932 4.388 6.156 3.466l12.555-5.205-2.129-5.135c-1.176-2.836-3.932-4.388-6.156-3.466z" fill="#1CB0F6"/><circle cx="25.324" cy="66.74" r="1.721" transform="rotate(-22.28 25.324 66.74)" fill="#fff"/><circle cx="33.817" cy="63.261" r="1.721" transform="rotate(-22.28 33.817 63.26)" fill="#fff"/><circle cx="29.571" cy="65" r="1.721" transform="rotate(-22.28 29.57 65)" fill="#fff"/><path fill-rule="evenodd" clip-rule="evenodd" d="M13.049 40.548a2.5 2.5 0 0 1 1.365-3.261l9.019-3.695a2.5 2.5 0 0 1 1.896 4.626l-9.02 3.695a2.5 2.5 0 0 1-3.26-1.365z" fill="#4B4B4B"/><path d="M75.292 42.683a2.978 2.978 0 1 1 5.366 2.584 2.978 2.978 0 0 1-5.366-2.584zM71.022 50.983l-5.406-.446c-4.586-.379-7.205-6.058-4.191-9.09 3.013-3.033 8.709-.45 9.116 4.133l.48 5.403zM107.387 36.713l-2.051-6.45c-1.74-5.472 3.572-11.19 8.501-9.151 4.93 2.038 4.653 9.837-.442 12.482l-6.008 3.12zM63.913 105.716l-1.664 7.028c-1.411 5.961-9.41 8.277-12.801 3.706-3.392-4.57 1.142-11.554 7.256-11.178l7.209.444z" fill="#BBF2FF"/></svg>