<svg viewBox="0 0 135 124" version="1.1" xmlns="http://www.w3.org/2000/svg"><g stroke="none" stroke-width="1" fill="none" fill-rule="evenodd"><g transform="translate(3 5)"><g transform="translate(2 6)"><rect fill="#A0FDFF" x="6" y="0" width="113" height="113" rx="17"/><path d="M108 59c6.075 0 11 4.925 11 11v26c0 2.495-.538 4.865-1.503 7H78V59h30z" fill="#78C800"/><path d="M102 113H23c-8.011 0-14.728-5.541-16.527-13h112.054c-1.8 7.459-8.516 13-16.527 13z" fill="#58A700"/><path d="M69.73 8.582l10.94 22.663A1.92 1.92 0 0 1 78.941 34H57.06a1.92 1.92 0 0 1-1.73-2.755L66.272 8.582a1.92 1.92 0 0 1 3.458 0z" fill="#78C800"/><path d="M69.225 16.535l17.427 35.703A1.92 1.92 0 0 1 84.926 55H50.074a1.92 1.92 0 0 1-1.726-2.762l17.427-35.703a1.92 1.92 0 0 1 3.45 0z" fill="#78C800"/><path d="M85.73 14.582l10.94 22.663A1.92 1.92 0 0 1 94.941 40H73.06a1.92 1.92 0 0 1-1.73-2.755l10.942-22.663a1.92 1.92 0 0 1 3.458 0z" fill="#78C800"/><path d="M87.725 20.528l18.924 38.709A1.92 1.92 0 0 1 104.924 62H67.076a1.92 1.92 0 0 1-1.725-2.763l18.924-38.709a1.92 1.92 0 0 1 3.45 0z" fill="#78C800"/><path d="M66.656 33.821l23.647 40.287A1.92 1.92 0 0 1 88.647 77H41.353a1.92 1.92 0 0 1-1.656-2.892l23.647-40.287a1.92 1.92 0 0 1 3.312 0z" fill="#78C800"/><g fill="#78C800"><path d="M105.11 24.387l10.875 22.45a2.9 2.9 0 0 1-2.61 4.163H91.627a2.9 2.9 0 0 1-2.61-4.163l10.875-22.45a2.9 2.9 0 0 1 5.218 0z"/></g><path d="M43.216 31.75l16.902 46.806A1.824 1.824 0 0 1 58.402 81H24.598a1.824 1.824 0 0 1-1.716-2.444l16.902-46.805a1.824 1.824 0 0 1 3.432 0z" fill="#78C800"/><g><path fill="#CD7900" d="M16 88h9v12h-9z"/><path d="M21.728 49.572l11.938 24.672A1.92 1.92 0 0 1 31.938 77H8.062a1.92 1.92 0 0 1-1.728-2.756l11.938-24.672a1.92 1.92 0 0 1 3.456 0z" fill="#58A700"/><path d="M21.226 57.54L37.654 91.24A1.92 1.92 0 0 1 35.928 94H3.072a1.92 1.92 0 0 1-1.726-2.761L17.774 57.54a1.92 1.92 0 0 1 3.452 0z" fill="#58A700"/></g><path d="M101.31 30.285a2.747 2.747 0 0 1 3.697 1.285L119 60.56V95H85.001V74.789l1.877-3.935h-1.371c-.17 0-.34-.015-.507-.047l.001-8.076 15.041-31.16c.27-.56.717-1.012 1.269-1.286z" fill="#78C800"/><path fill="#A56644" d="M95 85h9v15h-9z"/><path d="M101.728 49.572l11.938 24.672A1.92 1.92 0 0 1 111.938 77H88.062a1.92 1.92 0 0 1-1.728-2.756l11.938-24.672a1.92 1.92 0 0 1 3.456 0z" fill="#58A700"/><path d="M101.227 62.552l14.432 29.689A1.92 1.92 0 0 1 113.932 95H85.068a1.92 1.92 0 0 1-1.727-2.76l14.432-29.688a1.92 1.92 0 0 1 3.454 0z" fill="#58A700"/><g transform="translate(27 27)"><path fill="#CD7900" d="M39.36 46.12h28.8V73h-28.8z"/><rect fill="#A56644" x="45.12" y="21.16" width="10.56" height="22.08" rx=".96"/><path d="M4.916 45.41l16.204-7.93 19.2 8.457V73H3.84V47.135a1.92 1.92 0 0 1 1.076-1.724z" fill="#CD7900"/><rect fill="#B2B2B2" transform="rotate(-66 31.937 40.933)" x="30.017" y="28.453" width="3.84" height="24.96" rx="1.92"/><rect fill="#A56644" transform="scale(-1 1) rotate(-66 0 60.15)" x="10.56" y="28.453" width="3.84" height="24.96" rx="1.92"/><path d="M14.4 73V56.346c0-.876.798-1.586 1.783-1.586h8.914c.985 0 1.783.71 1.783 1.586V73" fill="#E5A259"/><rect fill="#A56644" x="48" y="52.84" width="4.8" height="4.8" rx=".96"/><rect fill="#A56644" x="54.72" y="52.84" width="4.8" height="4.8" rx=".96"/><rect fill="#A56644" x="54.72" y="59.56" width="4.8" height="4.8" rx=".96"/><rect fill="#A56644" x="48" y="59.56" width="4.8" height="4.8" rx=".96"/><rect fill="#FFF" x="44.4" y="13.16" width="15" height="8" rx="4"/><rect fill="#FFF" x="40" y="8" width="13" height="8" rx="4"/><rect fill="#FFF" x="52" y=".76" width="11" height="7" rx="3.5"/></g><rect fill="#CD7900" x="49" y="89" width="3" height="5" rx="1.5"/><path d="M49.388 61.6h26.767c.303 0 .602.072.872.21l20.73 10.56a1.92 1.92 0 0 1-.871 3.63H70.084a1.92 1.92 0 0 1-.872-.21L48.515 65.23a1.92 1.92 0 0 1 .873-3.63z" fill="#A56644"/></g><path d="M21.026.424c.426.255.782.614 1.036 1.044l2.313 3.913 4.157-1.796a2.974 2.974 0 0 1 3.917 1.576c.195.46.274.96.229 1.459l-.412 4.536 4.41 1.008c1.607.367 2.614 1.976 2.25 3.594-.11.487-.339.94-.666 1.316L35.28 20.5l2.98 3.426a3.02 3.02 0 0 1-.278 4.24c-.373.33-.822.56-1.306.67l-4.41 1.007.412 4.537c.15 1.653-1.058 3.115-2.698 3.266a2.963 2.963 0 0 1-1.448-.231l-4.157-1.797-2.313 3.914a2.97 2.97 0 0 1-5.124 0l-2.314-3.914-4.156 1.797a2.974 2.974 0 0 1-3.917-1.576 3.024 3.024 0 0 1-.229-1.459l.411-4.537-4.41-1.007C.718 28.47-.29 26.86.075 25.242c.11-.487.339-.94.666-1.316L3.72 20.5.74 17.074a3.02 3.02 0 0 1 .278-4.24c.373-.33.822-.56 1.306-.67l4.41-1.008-.412-4.536C6.172 4.967 7.38 3.505 9.02 3.354c.494-.045.992.034 1.448.231l4.156 1.796 2.314-3.913A2.97 2.97 0 0 1 21.026.424z" fill="#FFB100" fill-rule="nonzero"/><circle fill="#FFD900" cx="19.5" cy="20.5" r="12.5"/></g></g></svg>