<svg viewBox="0 0 135 124" fill="none" xmlns="http://www.w3.org/2000/svg"><g clip-path="url(#clip0_125_1869)"><path d="M11.84 25.894c0-9.39 7.61-17 17-17h78.999c9.389 0 17 7.61 17 17v79c0 9.388-7.611 17-17 17h-79c-9.388 0-17-7.612-17-17v-79z" fill="#FFCA00"/><path d="M123.478 18.93L21.958 120.45a16.937 16.937 0 0 0 7.08 1.56h41.32l54.68-54.68V26.01a16.938 16.938 0 0 0-1.56-7.08zm-72.12 48.14l58-58c-.43 0-.87-.07-1.31-.07h-48.59l-33.08 33.09c-6.904 6.904-6.904 18.096 0 25 6.903 6.904 18.096 6.904 25 0l-.02-.02z" fill="#FFD900"/><path d="M34.696 51.057c11.635-1.288 20.684-11.152 20.684-23.13 0-12.853-10.42-23.272-23.273-23.272-12.852 0-23.272 10.419-23.272 23.272 0 11.978 9.05 21.843 20.684 23.13l-1.952 3.905a1.995 1.995 0 0 0 1.784 2.887h5.513a1.995 1.995 0 0 0 1.784-2.887l-1.952-3.905z" fill="#FAA401"/><path fill-rule="evenodd" clip-rule="evenodd" d="M25.155 16.98l-.009.005a7.583 7.583 0 0 0-.529.335c-.38.263-.9.665-1.432 1.203-1.072 1.085-2.08 2.605-2.274 4.592a2.66 2.66 0 1 1-5.294-.519c.35-3.58 2.167-6.174 3.783-7.81a15.455 15.455 0 0 1 2.194-1.843 12.97 12.97 0 0 1 .968-.608l.075-.041.026-.014.01-.006.005-.002.002-.001.002-.001a2.66 2.66 0 0 1 2.473 4.71z" fill="#FFBB31"/><path fill-rule="evenodd" clip-rule="evenodd" d="M49.043 28.339a2.66 2.66 0 0 1 1.935 3.225c-1.89 7.563-6.91 12.953-14.815 15.211A2.66 2.66 0 0 1 34.7 41.66c6.06-1.73 9.683-5.65 11.117-11.386a2.66 2.66 0 0 1 3.225-1.935z" fill="#F79100"/><path d="M88.555 59.036c11.635-1.287 20.684-11.152 20.684-23.13 0-12.853-10.42-23.272-23.273-23.272s-23.272 10.42-23.272 23.272c0 11.978 9.05 21.843 20.684 23.13l-1.953 3.905a1.995 1.995 0 0 0 1.785 2.887h5.513a1.995 1.995 0 0 0 1.784-2.887l-1.952-3.905z" fill="#FFEB7C"/><path fill-rule="evenodd" clip-rule="evenodd" d="M78.895 26.954l-.01.005a7.698 7.698 0 0 0-.528.335c-.381.263-.901.665-1.433 1.203-1.072 1.086-2.08 2.605-2.274 4.592a2.66 2.66 0 1 1-5.294-.518c.35-3.581 2.167-6.175 3.783-7.811a15.454 15.454 0 0 1 2.195-1.843 12.981 12.981 0 0 1 .968-.608l.075-.04.026-.015.01-.005.005-.003h.002l.002-.002a2.66 2.66 0 0 1 2.473 4.71zM101.573 36.651a2.659 2.659 0 0 1 1.935 3.225c-1.89 7.563-6.911 12.953-14.815 15.211a2.66 2.66 0 0 1-1.462-5.115c6.06-1.73 9.683-5.65 11.117-11.386a2.66 2.66 0 0 1 3.225-1.935z" fill="#FFF1A2"/><path d="M106.422 46.23c11.03-1.827 19.44-11.41 19.44-22.958C125.862 10.42 115.443 0 102.59 0 89.737 0 79.317 10.42 79.317 23.272c0 12.413 9.718 22.556 21.961 23.236l-1.9 3.8a1.995 1.995 0 0 0 1.785 2.886h5.513a1.995 1.995 0 0 0 1.784-2.887l-2.038-4.076z" fill="#FAA401"/><path fill-rule="evenodd" clip-rule="evenodd" d="M119.525 23.02a2.66 2.66 0 0 1 1.936 3.225c-1.891 7.562-6.912 12.952-14.816 15.21a2.66 2.66 0 1 1-1.462-5.114c6.06-1.731 9.683-5.65 11.117-11.386a2.66 2.66 0 0 1 3.225-1.935z" fill="#F69100"/><path fill-rule="evenodd" clip-rule="evenodd" d="M96.183 12.326a10.135 10.135 0 0 0-1.97 1.543c-1.073 1.085-2.08 2.605-2.275 4.592a2.66 2.66 0 0 1-5.294-.519c.35-3.58 2.167-6.174 3.783-7.81a15.462 15.462 0 0 1 2.195-1.843 13 13 0 0 1 .968-.608l.075-.041.026-.014.01-.006.005-.002.002-.001.002-.001a2.66 2.66 0 0 1 2.473 4.71z" fill="#FFBB31"/><path d="M14.791 37.728a1.995 1.995 0 0 1 2.814-.196l2.51 2.18c.83.723.919 1.983.196 2.815l-4.798 5.52a1.995 1.995 0 0 1-2.815.197l-2.509-2.181a1.995 1.995 0 0 1-.197-2.815l4.799-5.52z" fill="#FFEB7C"/><path d="M11.01 71.988a1.995 1.995 0 0 0-2.815-.197l-2.509 2.181a1.995 1.995 0 0 0-.197 2.814l4.799 5.52c.723.832 1.983.92 2.814.197l2.51-2.181c.83-.723.919-1.983.196-2.814l-4.799-5.52z" fill="#E27800"/><path d="M59.549 4.165a1.995 1.995 0 0 0-2.814-.196l-2.51 2.18a1.995 1.995 0 0 0-.196 2.815l4.798 5.52c.723.831 1.983.92 2.815.197L64.15 12.5c.831-.723.92-1.983.197-2.815l-4.799-5.52z" fill="#FFBB31"/><path d="M120.001 4.165a1.994 1.994 0 0 1 2.814-.196l2.509 2.18c.831.723.919 1.983.197 2.815l-4.799 5.52a1.995 1.995 0 0 1-2.814.197l-2.509-2.181a1.994 1.994 0 0 1-.197-2.815l4.799-5.52z" fill="#E27800"/><path d="M124.712 49.38a1.995 1.995 0 0 0-2.814-.197l-2.51 2.182a1.995 1.995 0 0 0-.196 2.814l4.798 5.52c.723.831 1.983.92 2.814.197l2.509-2.181c.832-.723.92-1.983.197-2.815l-4.798-5.52z" fill="#FAA401"/><path d="M110.027 62.679a1.994 1.994 0 0 1 2.814-.197l2.509 2.181c.832.723.92 1.983.197 2.814l-4.799 5.52a1.994 1.994 0 0 1-2.814.197l-2.509-2.181a1.995 1.995 0 0 1-.197-2.814l4.799-5.52z" fill="#FFF1A2"/><path d="M103.246 95.925a1.995 1.995 0 0 1 2.814-.197l2.509 2.181c.832.723.92 1.983.197 2.815l-4.798 5.52a1.997 1.997 0 0 1-2.815.197l-2.509-2.182a1.994 1.994 0 0 1-.196-2.814l4.798-5.52z" fill="#E27800"/><path fill-rule="evenodd" clip-rule="evenodd" d="M67.19 47.604c5.544 0 10.037 4.506 10.037 10.06v1.509H57.15v-1.51c0-5.553 4.495-10.06 10.04-10.06z" fill="#FF9600"/><path d="M56.472 57.471c5.918 0 10.717-4.722 10.717-10.548 0-5.825-4.799-10.548-10.717-10.548-5.921 0-10.72 4.723-10.72 10.548 0 5.826 4.799 10.548 10.72 10.548z" fill="#FF9600"/><path fill-rule="evenodd" clip-rule="evenodd" d="M35.714 70.231c0-7.14 5.79-12.93 12.93-12.93h38.11c7.141 0 12.93 5.79 12.93 12.93v36.977h-63.97V70.231z" fill="#FFBB31"/><path d="M44.561 57.96c-5.14 1.709-8.847 6.557-8.847 12.271v9.698h1.191a7.656 7.656 0 0 0 7.656-7.656V57.959zM92.368 58.58c4.33 2.09 7.316 6.522 7.316 11.651v9.69a7.656 7.656 0 0 1-7.316-7.648V58.581z" fill="#FAA401"/><path d="M107 82.396a5.7 5.7 0 1 1-11.399 0 5.7 5.7 0 0 1 11.399 0zM39.457 82.396a5.7 5.7 0 1 1-11.399 0 5.7 5.7 0 0 1 11.4 0z" fill="#FFBB31"/><path fill-rule="evenodd" clip-rule="evenodd" d="M50.175 71.788a8.022 8.022 0 0 1 16.044 0v4.88a8.022 8.022 0 0 1-16.043 0v-4.88z" fill="#FFF1A2"/><path fill-rule="evenodd" clip-rule="evenodd" d="M56.81 72.132a3.601 3.601 0 1 1 7.203 0v4.523a3.601 3.601 0 0 1-7.202 0v-4.523z" fill="#E27800"/><path fill-rule="evenodd" clip-rule="evenodd" d="M85.103 71.788a8.022 8.022 0 1 0-16.043 0v4.88a8.022 8.022 0 0 0 16.043 0v-4.88z" fill="#FFF1A2"/><path fill-rule="evenodd" clip-rule="evenodd" d="M78.979 72.132a3.601 3.601 0 0 0-7.203 0v4.523a3.601 3.601 0 0 0 7.203 0v-4.523z" fill="#3D3D3D"/><path fill-rule="evenodd" clip-rule="evenodd" d="M78.979 72.132a3.601 3.601 0 0 0-7.203 0v4.523a3.601 3.601 0 0 0 7.203 0v-4.523z" fill="#E27800"/><path fill-rule="evenodd" clip-rule="evenodd" d="M45.59 84.098l-.008-1.786c-.01-1.787-.008-1.787-.008-1.787h.049l.123.001a42.207 42.207 0 0 1 2.092.09c1.39.093 3.34.285 5.59.676 4.475.778 10.275 2.367 15.255 5.653l-1.968 2.982c-4.402-2.905-9.66-4.378-13.899-5.115a50.811 50.811 0 0 0-5.218-.632 38.584 38.584 0 0 0-1.89-.081l-.094-.001h-.023z" fill="#FFBB31"/><path d="M99 121.894H36V108.57a2.58 2.58 0 0 1 2.589-2.57h57.822A2.58 2.58 0 0 1 99 108.57v13.324z" fill="#FAA401"/><path fill-rule="evenodd" clip-rule="evenodd" d="M28.058 110.213a6.465 6.465 0 0 1 6.465-6.465h66.012a6.465 6.465 0 0 1 6.465 6.465v.51a6.465 6.465 0 0 1-6.465 6.465H34.523a6.465 6.465 0 0 1-6.465-6.465v-.51z" fill="#FAA401"/><path d="M62.17 107.944c-.987 0-1.787.799-1.787 1.786v8.562a1.786 1.786 0 1 0 3.573 0v-8.562c0-.987-.8-1.786-1.786-1.786zM73.058 107.944c-.986 0-1.786.799-1.786 1.786v8.562a1.786 1.786 0 1 0 3.573 0v-8.562c0-.987-.8-1.786-1.787-1.786z" fill="#FFF1A2"/><path d="M47.31 64.308l9.42-2.002a9.193 9.193 0 0 1 10.904 7.08l-18.413 3.915-1.911-8.993zM88.65 60.445l-5.202-.731c-7.422-1.044-14.284 4.128-15.327 11.55l18.64 2.62 1.89-13.44z" fill="#FFBB31"/><path d="M55.979 88.909a8.756 8.756 0 1 1-17.511 0 8.756 8.756 0 0 1 17.51 0zM97.568 88.909a8.756 8.756 0 1 1-17.511 0 8.756 8.756 0 0 1 17.51 0z" fill="#FFB41D"/><path fill-rule="evenodd" clip-rule="evenodd" d="M59.36 86.28a4.548 4.548 0 0 1-1.664 6.214l-20.163 11.641-4.548-7.878 20.163-11.641a4.548 4.548 0 0 1 6.213 1.665z" fill="#FFF1A2"/><path d="M38.904 106.316c-3.453 1.993-7.89.772-9.91-2.728-2.022-3.5-.86-7.953 2.592-9.947 3.453-1.993 7.89-.772 9.911 2.728 2.02 3.5.86 7.953-2.593 9.947z" fill="#FFF1A2"/><path d="M37.636 104.119c-2.256 1.302-5.155.505-6.475-1.782-1.32-2.287-.562-5.196 1.694-6.499 2.256-1.302 5.155-.504 6.475 1.782 1.32 2.287.562 5.197-1.694 6.499z" fill="#FF9600"/><path fill-rule="evenodd" clip-rule="evenodd" d="M58.225 86.936c.566.98.23 2.234-.75 2.8L37.618 101.2l-2.05-3.549 19.858-11.465a2.049 2.049 0 0 1 2.799.75z" fill="#FF9600"/><path opacity=".5" fill-rule="evenodd" clip-rule="evenodd" d="M50.74 88.103l1.18 2.044a.674.674 0 0 1-1.167.674l-1.18-2.044a.674.674 0 1 1 1.167-.674zM45.572 91.243l1.18 2.044a.674.674 0 0 1-1.167.674l-1.18-2.044a.674.674 0 1 1 1.167-.674zM40.404 94.227l1.18 2.044a.674.674 0 1 1-1.167.674l-1.18-2.044a.674.674 0 0 1 1.167-.674z" fill="#E27800"/><path fill-rule="evenodd" clip-rule="evenodd" d="M54.228 83.655l5.974.597 1.03 5.97-7.145-3.747.14-2.82z" fill="#FFBB31"/><path fill-rule="evenodd" clip-rule="evenodd" d="M50.193 83.975a1.094 1.094 0 0 1 1.403-.654l2.227.81a10.645 10.645 0 0 1 4.627 3.295 8.456 8.456 0 0 0 4.58 2.89l1.385.335a1.094 1.094 0 1 1-.514 2.128l-1.385-.335a10.645 10.645 0 0 1-5.765-3.639 8.455 8.455 0 0 0-3.676-2.617l-2.227-.81a1.094 1.094 0 0 1-.655-1.403z" fill="#F68B00"/><path d="M68.893 84.53c.847 0 1.532.614 1.532 1.372v6.89c0 .756-.685 1.37-1.532 1.37-.846 0-1.532-.614-1.532-1.37v-6.89c0-.758.686-1.371 1.532-1.371z" fill="#F8AC00"/><path d="M67.5 78.486c.153 0 1.502 2.142 2.876 4.389 1.367 2.236-.255 5.087-2.876 5.087s-4.243-2.85-2.876-5.087c1.374-2.247 2.723-4.39 2.876-4.39z" fill="#F68B00"/></g><defs><clipPath id="clip0_125_1869"><path fill="#fff" d="M0 0h135v124H0z"/></clipPath></defs></svg>