<svg viewBox="0 0 135 124" version="1.1" xmlns="http://www.w3.org/2000/svg"><g stroke="none" stroke-width="1" fill="none" fill-rule="evenodd"><g><g transform="translate(11)"><path d="M113 28v79a17 17 0 0 1-2.85 9.43c-.05.07-.09.14-.14.2a16.6 16.6 0 0 1-3.09 3.39A16.86 16.86 0 0 1 96 124H17c-9.389 0-17-7.611-17-17V28c0-9.389 7.611-17 17-17h79c9.389 0 17 7.611 17 17z" fill="#2B70C9" fill-rule="nonzero"/><path d="M110 116.63a16.6 16.6 0 0 1-3.09 3.39A16.86 16.86 0 0 1 96 124H17a17 17 0 0 1-14.2-7.64A18.5 18.5 0 0 1 17.6 109H95a18.49 18.49 0 0 1 15 7.63z" fill="#825035" fill-rule="nonzero"/><path d="M85.46 109.11c-2.49 0-3.17-3.89-1.82-6l12-19 2-3.21-2 .16-39.35 3-39-3-2.21-.17 2.21 3.51 11.76 18.7c1.34 2.14 1.77 6-1.81 6L57 112.79l28.46-3.68z" fill="#825035" fill-rule="nonzero"/><path d="M97.61 80.88l-22.28 22.61-1 1c-.69.71-1.36 1.43-2 2.15-1 1.08-2 2.16-2.9 3.27-1.63 1.89-3.2 3.84-4.72 5.82-.22.28-.43.57-.65.86l-.64.87c-1 1.35-2 2.72-2.92 4.11L58.85 124h-4.93l-2.82-4c-.6-.85-1.22-1.71-1.85-2.55l-.47-.61c-.27-.38-.56-.75-.84-1.12-1.23-1.59-2.49-3.16-3.79-4.68-.94-1.13-1.91-2.23-2.9-3.32-.69-.77-1.39-1.52-2.11-2.27-.48-.51-1-1-1.47-1.52L15 80.88A2.3 2.3 0 0 1 16.2 77l38-7.5h4.28l38 7.5a2.3 2.3 0 0 1 1.13 3.88z" fill="#CD8B42" fill-rule="nonzero"/><path d="M77.4 101.36c-.81.83-1.6 1.67-2.38 2.52-1.16 1.25-2.28 2.52-3.39 3.81a157.98 157.98 0 0 0-5.51 6.79l-.76 1c-.26.34-.5.68-.75 1-1.18 1.57-2.3 3.17-3.41 4.79L59.37 124h-6l-3.18-4.51c-.71-1-1.43-2-2.16-3l-.55-.72c-.32-.44-.65-.87-1-1.31-1.43-1.85-2.9-3.68-4.42-5.46-1.11-1.31-2.23-2.6-3.38-3.87-.81-.9-1.63-1.78-2.47-2.65l2.47-7.09H75l2.4 5.97z" fill="#2D2D2D" fill-rule="nonzero"/><circle fill="#FF8F76" fill-rule="nonzero" cx="25.795" cy="61.85" r="10.86"/><circle fill="#FF8F76" fill-rule="nonzero" cx="87.205" cy="61.85" r="10.86"/><path d="M79.065 95.29l-15.66 8.57a14.47 14.47 0 0 1-13.84 0l-15.65-8.57A20.86 20.86 0 0 1 23.055 77V39.87a33.43 33.43 0 0 1 33.45-33.43c18.464 0 33.434 14.966 33.44 33.43V77a20.88 20.88 0 0 1-10.88 18.29z" fill="#FFB49E" fill-rule="nonzero"/><rect fill="#FF8F76" fill-rule="nonzero" x="49.99" y="48.501" width="13.02" height="26.199" rx="4.206"/><path d="M22.055 30.22h68.89v35.5a3 3 0 0 1-3 3h-62.89a3 3 0 0 1-3-3v-35.5z" fill="#555"/><path d="M53 44.26v11.09a8.31 8.31 0 0 1-8.32 8.32h-6.76l1.48-19.41H53z" fill="#FFB49E" fill-rule="nonzero"/><path d="M48.24 44.26v10a9.46 9.46 0 1 1-18.92 0v-10h18.92zM60.42 44.26v11.09a8.32 8.32 0 0 0 8.32 8.32h6.76L74 44.26H60.42z" fill="#FFB49E" fill-rule="nonzero"/><path d="M65.19 44.518v10a9.46 9.46 0 0 0 18.91 0v-10H65.19z" fill="#FFB49E" fill-rule="nonzero"/><path d="M28.44 50.11a3.07 3.07 0 0 1-.46-6.1l26.26-4a15 15 0 0 1 4.48 0l26.65 4a3.064 3.064 0 0 1-.91 6.06l-26.64-4a9.19 9.19 0 0 0-2.67 0l-26.25 4a3.73 3.73 0 0 1-.46.04z" fill="#555" fill-rule="nonzero"/><path d="M21.447 35C21.471 15.663 37.153 0 56.49 0c19.345-.012 35.04 15.655 35.064 35" fill="#252525" fill-rule="nonzero"/><path d="M91.457 43.393H21.543c-1.34 0-2.627-.574-3.573-1.596-.947-1.022-1.476-2.407-1.47-3.85v-4.654c.036-2.967 2.283-5.353 5.043-5.352h69.914c1.34 0 2.627.574 3.573 1.596.947 1.022 1.476 2.407 1.47 3.85v4.654c-.036 2.967-2.283 5.353-5.043 5.352z" fill="#252525" fill-rule="nonzero"/><path d="M70.62 85.72a2.12 2.12 0 0 1-.2.28 9.65 9.65 0 0 1-5.81 3.38l-8 1.37a9.49 9.49 0 0 1-8.33-2.64 9.43 9.43 0 0 1-2.62-4.82c0-.12 0-.24-.07-.36l-.06-.44-.11-.6a1.8 1.8 0 0 1 1.48-2.08L52 79l18.11-3.1c.11-.01.22-.01.33 0a1.82 1.82 0 0 1 1.76 1.5l.19 1a9.54 9.54 0 0 1-1.77 7.32z" fill="#A14344" fill-rule="nonzero"/><path d="M70.48 75.82v4.87a2.61 2.61 0 0 1-2.6 2.61H45.65c0-.12 0-.24-.07-.36l-.06-.44-.11-.6a1.8 1.8 0 0 1 1.48-2.08L52 79l18.11-3.1c.12-.04.244-.066.37-.08z" fill="#FFF" fill-rule="nonzero"/><path d="M64.59 89.39l-8 1.37a9.49 9.49 0 0 1-8.33-2.64 11.12 11.12 0 0 1 16.32 1.27h.01z" fill="#F34848" fill-rule="nonzero"/><path d="M47.2 57.99a1.53 1.53 0 0 1-1.53-1.54 2.5 2.5 0 0 0-5 0 1.54 1.54 0 1 1-3.07 0 5.54 5.54 0 0 1 11.08 0 1.53 1.53 0 0 1-1.48 1.54zM72.94 57.99c-.85 0-1.54-.689-1.54-1.54a2.5 2.5 0 0 0-5 0 1.53 1.53 0 1 1-3.06 0 5.54 5.54 0 0 1 11.08 0 1.54 1.54 0 0 1-1.48 1.54z" fill="#BA725B" fill-rule="nonzero"/></g></g></g></svg>