<svg xmlns="http://www.w3.org/2000/svg" viewBox="0 0 135 124"><defs><style>.cls-1{fill:#ffc800}.cls-2{fill:#ffd900}.cls-4{fill:#ffe75e}.cls-5{fill:#f89700}.cls-6{fill:#e27800}.cls-7{fill:#ffb100}</style></defs><g id="Cover"><rect class="cls-1" x="11" y="11" width="113" height="113" rx="17" ry="17"/><path class="cls-2" d="M107 11H62.42L11 62.42V107a16.88 16.88 0 0 0 .67 4.69l.15-.13 99.89-99.89A17.07 17.07 0 0 0 107 11z"/><path d="M93.35 67.7a25.6 25.6 0 0 1-25.51 25.69 25 25 0 0 1-7.43-1.11A25.72 25.72 0 0 1 67.84 42a25 25 0 0 1 5.57.63A25.71 25.71 0 0 1 93.35 67.7z" fill="#62361b"/><path class="cls-4" d="M121.38 66.43v2.25a4 4 0 0 1-4 4H99.52V62.43h17.87a4 4 0 0 1 3.99 4z"/><ellipse class="cls-4" cx="67.84" cy="67.71" rx="35.27" ry="35.53"/><ellipse class="cls-2" cx="67.84" cy="67.71" rx="30" ry="30.22"/><path class="cls-5" d="M93.35 67.7a25.6 25.6 0 0 1-25.51 25.69 25 25 0 0 1-7.43-1.11A25.72 25.72 0 0 1 67.84 42a25 25 0 0 1 5.57.63A25.71 25.71 0 0 1 93.35 67.7z"/><circle class="cls-5" cx="23.07" cy="22.8" r="22.77"/><rect class="cls-6" x="29.97" y="28.88" width="8.79" height="5.87" rx="2.94" ry="2.94" transform="rotate(-45 34.368 31.814)"/><rect class="cls-6" x="7.85" y="26.06" width="8.79" height="5.87" rx="2.94" ry="2.94"/><rect class="cls-6" x="4.17" y="6.36" width="8.79" height="5.87" rx="2.94" ry="2.94"/><rect class="cls-6" x="24.23" y="3.89" width="8.79" height="5.87" rx="2.94" ry="2.94" transform="rotate(-90 28.62 6.82)"/><rect class="cls-6" x="17" y="39.14" width="8.79" height="5.87" rx="2.94" ry="2.94" transform="rotate(-90 21.395 42.075)"/><rect class="cls-6" x="13.74" y="14.46" width="8.79" height="5.87" rx="2.94" ry="2.94" transform="rotate(123.71 18.136 17.393)"/><rect class="cls-6" x="32.36" y="15.29" width="8.79" height="5.87" rx="2.94" ry="2.94" transform="rotate(123.71 36.76 18.224)"/><rect class="cls-7" x="78.72" y="-1.22" width="19.42" height="29.77" rx="9.71" ry="9.71" transform="rotate(-45 88.424 13.674)"/><path class="cls-7" transform="rotate(-45 108.51 33.534)" d="M106.13 8.71h4.75v49.64h-4.75z"/><rect class="cls-7" x="124.88" y="48.86" width="8.94" height="11.45" rx="4.47" ry="4.47" transform="rotate(-45 129.349 54.582)"/><path class="cls-1" d="M95.86 23a2.09 2.09 0 0 1-1.74-3.25C96 17 93.87 14.1 93.78 14a2.11 2.11 0 0 1 .38-3 2.08 2.08 0 0 1 2.92.36c.17.22 4.09 5.32.53 10.67a2.08 2.08 0 0 1-1.75.97z"/><rect class="cls-4" x="21.39" y="99.52" width="18.7" height="12.16" rx="2.15" ry="2.15"/><rect class="cls-4" x="14.04" y="84.73" width="18.7" height="12.16" rx="2.15" ry="2.15" transform="rotate(-17.99 23.407 90.835)"/><path class="cls-5" d="M90.7 4.75a7.33 7.33 0 0 1 1.06 1.31A7.92 7.92 0 0 0 80.81 17a7.61 7.61 0 0 1-1.31-1.06A7.92 7.92 0 1 1 90.7 4.75z"/></g><g id="Instructions"><path class="cls-2" d="M80.42 124H107a17 17 0 0 0 17-17V80.42z"/></g></svg>