<svg viewBox="0 0 135 124" fill="none" xmlns="http://www.w3.org/2000/svg"><g clip-path="url(#clip0)"><path d="M124 28v79a17.003 17.003 0 0 1-9.6 15.3c-.906.451-1.854.813-2.83 1.08a17.56 17.56 0 0 1-3 .55c-.52 0-1 .07-1.56.07h-79c-.45 0-.89 0-1.33-.06-1.4-.104-2.78-.383-4.11-.83l-.49-.17c-.504-.187-.998-.4-1.48-.64a16.546 16.546 0 0 1-2.28-1.3 17.117 17.117 0 0 1-3.11-2.78c-.07-.07-.13-.15-.2-.23a17.272 17.272 0 0 1-2.07-3.08 16.351 16.351 0 0 1-1.16-2.8 16.709 16.709 0 0 1-.78-5.08V28a17 17 0 0 1 3.48-10.3 17.07 17.07 0 0 1 6.11-5A16.84 16.84 0 0 1 28 11h79c2.565-.01 5.097.572 7.4 1.7a17.007 17.007 0 0 1 9.53 13.73c.05.57.07 1.04.07 1.57z" fill="#FFC800"/><path d="M10.45 47.07h24.32c5.75 0 10.41-4.66 10.41-10.41v-4.98c0-5.749-4.66-10.41-10.41-10.41H10.45C4.7 21.27.04 25.931.04 31.68v4.98c0 5.75 4.66 10.41 10.41 10.41z" fill="#FFB100"/><path d="M22.11 3.83v102.51h23.68V3.83A3.719 3.719 0 0 0 42.06.12H25.84a3.72 3.72 0 0 0-3.73 3.71z" fill="#F89700"/><path d="M22.19 102.73a1.703 1.703 0 0 1 1.7 1.7v1.9h-3.4v-1.9a1.702 1.702 0 0 1 1.7-1.7z" fill="#FFE75E"/><path d="M100.58 94.4a9.32 9.32 0 1 0 0-18.64 9.32 9.32 0 0 0 0 18.64z" fill="#FFD900"/><path d="M108.2 97.69l-3.81-3.82a6.999 6.999 0 0 1 7.179-9.616 7.003 7.003 0 0 1 6.266 6.283 6.995 6.995 0 0 1-4.929 7.379 7 7 0 0 1-4.706-.226z" fill="#FFD900"/><path d="M123.49 92.13v14.16h-11.33a9.253 9.253 0 0 1-.843-10.23 9.321 9.321 0 0 1 12.143-3.93h.03z" fill="#FFD900"/><path d="M22.19 106.34h40.07l26.2-56.12H48.38l-26.19 56.12z" fill="#FD9526"/><path d="M114.65 106.34H74.57L48.38 50.23h40.08l26.19 56.11z" fill="#FFB100"/><path d="M48.38 50.22l-26.19 56.12h52.39l-26.2-56.12z" fill="#FFD900"/><path d="M48.38 50.22l-5.01 56.12h5.01V50.22z" fill="#F89700"/><path d="M114.1 102.73a1.696 1.696 0 0 1 1.202.498 1.705 1.705 0 0 1 .498 1.202v1.9h-3.4v-1.9a1.7 1.7 0 0 1 1.7-1.7zM76.27 102.73a1.703 1.703 0 0 1 1.7 1.7v1.9h-3.4v-1.9a1.698 1.698 0 0 1 1.7-1.7z" fill="#FFE75E"/><path d="M49.75 45.45a1.37 1.37 0 0 1 1.37 1.37v3.4h-2.74v-3.4a1.37 1.37 0 0 1 1.37-1.37zM87.08 45.45a1.37 1.37 0 0 1 1.37 1.37v3.4h-2.74v-3.4a1.37 1.37 0 0 1 1.37-1.37z" fill="#FFB100"/><path d="M99.891 102.29a1.833 1.833 0 0 1 .157 2.584l-6.08 6.864-2.747-2.433 6.08-6.865a1.836 1.836 0 0 1 2.59-.15z" fill="#FFC800"/><path d="M93.085 112.586l-3.547.941-2.352-8.863a1.83 1.83 0 0 1 3.538-.939l2.352 8.864.01-.003zM30.681 112.849l-3.547.941-2.352-8.863a1.832 1.832 0 0 1 1.3-2.239 1.831 1.831 0 0 1 2.238 1.3l2.352 8.863.01-.002z" fill="#FFC800"/><path d="M32.112 113.274l-3.67-.146.367-9.17a1.832 1.832 0 1 1 3.66.146l-.367 9.17h.01zM95.22 99.663a1.83 1.83 0 0 1 1.198 2.293l-2.744 8.75-3.492-1.095 2.743-8.75a1.83 1.83 0 0 1 2.294-1.198z" fill="#FFC800"/><path d="M18.99 36.11h31.63c6.368 0 11.53-5.162 11.53-11.53V11.53C62.15 5.163 56.988 0 50.62 0H18.99C12.622 0 7.46 5.163 7.46 11.53v13.05c0 6.368 5.162 11.53 11.53 11.53z" fill="#FFB100"/></g><defs><clipPath id="clip0"><path fill="#fff" d="M0 0h135v124H0z"/></clipPath></defs></svg>