<svg viewBox="0 0 135 124" fill="none" xmlns="http://www.w3.org/2000/svg"><path d="M11 28c0-9.389 7.611-17 17-17h79c9.389 0 17 7.611 17 17v79c0 9.389-7.611 17-17 17H28c-9.389 0-17-7.611-17-17V28z" fill="#B2B2B2"/><path d="M98.783 121.253c15.6 0 28.247-12.417 28.247-27.734 0-15.317-12.647-27.734-28.247-27.734S70.536 78.202 70.536 93.52c0 15.317 12.646 27.734 28.247 27.734z" fill="#E5E5E5"/><path fill-rule="evenodd" clip-rule="evenodd" d="M82.846 109.13c-8.741-8.74-8.752-22.907-.017-31.641 8.734-8.734 22.9-8.724 31.641.017a1.903 1.903 0 0 1-2.691 2.69c-7.257-7.257-19.014-7.261-26.26-.016-7.245 7.245-7.24 19.002.017 26.259a1.903 1.903 0 0 1-2.69 2.691z" fill="#E5E5E5"/><path d="M13.656 25.74l.002-.001a7.588 7.588 0 0 1 6.69-8.24l35.522-4.076a7.588 7.588 0 0 1 8.383 6.51h.002l3.984 34.728a2.626 2.626 0 0 0 2.908 2.31l5.123-.588c.6-.069 1.143.362 1.212.962.674 5.873-3.541 11.18-9.414 11.854L21.1 74.588c-5.873.674-11.18-3.54-11.854-9.413-.068-.6.362-1.143.963-1.212l5.122-.588a2.626 2.626 0 0 0 2.31-2.908l-3.985-34.728z" fill="#BFBFBF"/><path d="M17.574 26.289l42.989-4.932 4.921 42.895-42.988 4.933-4.922-42.896z" fill="#D8D8D8"/><path d="M17.737 45.806a4.775 4.775 0 1 0-1.088-9.488 4.775 4.775 0 0 0 1.088 9.488zM64.825 40.403a4.775 4.775 0 1 0-1.089-9.488 4.775 4.775 0 0 0 1.089 9.488z" fill="#D8D8D8"/><path d="M20.475 70.192a1.313 1.313 0 0 1 1.155-1.454l44.596-5.117a1.313 1.313 0 0 1 1.454 1.155l.507 4.42a1.313 1.313 0 0 1-1.154 1.453l-44.597 5.117a1.313 1.313 0 0 1-1.454-1.155l-.507-4.419z" fill="#979797"/><path d="M14.95 36.847a4.775 4.775 0 0 1 6.214 1.552 5.322 5.322 0 0 0 1.419-4.268l-.762-6.642-7.842.9.97 8.458zM59.818 33.97a4.775 4.775 0 0 1 5.692-2.928l-.97-8.455-7.842.9.762 6.642a5.322 5.322 0 0 0 2.358 3.842z" fill="#BFBFBF"/><path d="M12.094 24.514a1.313 1.313 0 0 1 1.155-1.454l50.796-5.829a1.313 1.313 0 0 1 1.454 1.155l.413 3.6a1.313 1.313 0 0 1-1.155 1.453L13.96 29.268a1.313 1.313 0 0 1-1.454-1.155l-.413-3.6z" fill="#979797"/><path d="M40.898 24.963c5.814-.667 9.987-5.922 9.32-11.737-.667-5.814-5.922-9.987-11.736-9.32a10.59 10.59 0 0 0-8.387 6.026l-2.241-1.963c-.617-.54-1.58-.388-1.874.378a9.207 9.207 0 0 0-.552 4.367 9.24 9.24 0 0 0 5.261 7.32 10.598 10.598 0 0 0 10.209 4.929z" fill="#BFBFBF"/><path d="M41.664 67.168a.945.945 0 0 1 .83-.824l2.868-.329a.945.945 0 0 1 .996.615l2.785 7.627a.945.945 0 0 1-.78 1.264l-6.639.762a.945.945 0 0 1-1.046-1.054l.986-8.06z" fill="#fff"/><path d="M40.782 38.757c.113-.013 1.296 1.46 2.506 3.01 1.205 1.542.245 3.795-1.7 4.018-1.944.223-3.389-1.753-2.565-3.528.827-1.784 1.646-3.487 1.759-3.5z" fill="#BFBFBF"/><path d="M41.192 33.701a5.56 5.56 0 0 1 11.046-1.267l.385 3.36a5.559 5.559 0 1 1-11.046 1.267l-.385-3.36zM28.192 35.193a5.56 5.56 0 0 1 11.045-1.267l.386 3.359a5.56 5.56 0 0 1-11.046 1.267l-.386-3.36z" fill="#fff"/><path d="M43.538 33.533a1.955 1.955 0 0 0 1.636-2.546 2.536 2.536 0 0 1 2.532 2.246l.347 3.023a2.535 2.535 0 0 1-5.037.578l-.347-3.023a2.548 2.548 0 0 1-.015-.38c.274.099.574.138.884.102zM33.581 34.675a1.955 1.955 0 0 0 1.637-2.546 2.536 2.536 0 0 1 2.532 2.247l.347 3.022a2.535 2.535 0 0 1-5.037.578l-.347-3.022a2.564 2.564 0 0 1-.015-.38c.274.098.574.137.883.101z" fill="#979797"/><path d="M24.138 28.273l30.482-3.497 1.166 10.168-30.481 3.498-1.167-10.169z" fill="#D8D8D8"/><path fill-rule="evenodd" clip-rule="evenodd" d="M49.315 49.777c.308.192.401.597.209.904-2.818 4.509-7.548 4.913-9.599 4.542a.657.657 0 0 1 .234-1.292c1.706.309 5.806-.033 8.252-3.946a.656.656 0 0 1 .904-.208z" fill="#CECECE"/><path fill-rule="evenodd" clip-rule="evenodd" d="M52.708 43.246a.9.9 0 0 1 .03 1.272c-7.58 7.946-16.502 5.92-20.07 3.855a.9.9 0 1 1 .902-1.558c3.066 1.774 11.016 3.641 17.866-3.54a.9.9 0 0 1 1.272-.03z" fill="#BFBFBF"/><path d="M35.9 47.409a6.266 6.266 0 1 1-12.45 1.428A6.266 6.266 0 0 1 35.9 47.41z" fill="#D8D8D8"/><path fill-rule="evenodd" clip-rule="evenodd" d="M28.067 42a.9.9 0 0 1 .791-.996 7.166 7.166 0 0 1 1.634 14.238.9.9 0 1 1-.205-1.788 5.366 5.366 0 1 0-1.224-10.662.9.9 0 0 1-.996-.791zM38.519 30.178a1.97 1.97 0 0 1-.62 2.716c-.092.057-.19.121-.295.19-.459.297-1.044.677-1.746.975-.913.388-1.992.645-3.522.796a1.97 1.97 0 1 1-.388-3.92c1.28-.126 1.938-.317 2.37-.5.36-.154.598-.307 1.005-.57.137-.088.294-.19.48-.306a1.97 1.97 0 0 1 2.716.62zM40.168 29.264a1.97 1.97 0 0 1 2.56-1.096c.679.272 1.125.42 1.645.496.528.077 1.234.092 2.394-.041a1.97 1.97 0 0 1 .449 3.913c-1.362.156-2.433.168-3.41.026-.987-.144-1.778-.431-2.542-.737a1.97 1.97 0 0 1-1.096-2.56z" fill="#BFBFBF"/><path d="M56.75 53.495a2.86 2.86 0 1 1-5.72 0 2.86 2.86 0 0 1 5.72 0zM58.086 45.898a1.822 1.822 0 1 1-3.645 0 1.822 1.822 0 0 1 3.645 0zM38.386 57.183a1.822 1.822 0 1 1-3.644 0 1.822 1.822 0 0 1 3.644 0zM104.989 12.126a7.885 7.885 0 0 0-7.036-8.997 7.886 7.886 0 0 0-1.775 15.669 7.886 7.886 0 1 0 8.81-6.672z" fill="#979797"/><path d="M80.124 26.088a8.937 8.937 0 0 1 9.763-8.028l29.806 2.908a8.938 8.938 0 0 1 8.028 9.763l-1.983 20.32a8.937 8.937 0 0 1-9.763 8.027L86.17 56.17a8.938 8.938 0 0 1-8.028-9.763l1.982-20.32z" fill="#E5E5E5"/><path fill-rule="evenodd" clip-rule="evenodd" d="M111.345 25.01a5.996 5.996 0 0 0-6.55 5.386l-.354 3.63a5.997 5.997 0 1 0 11.937 1.165l.354-3.63a5.997 5.997 0 0 0-5.387-6.55z" fill="#fff"/><path d="M105.961 32.094a2.182 2.182 0 0 0 2.338-2.669 2.692 2.692 0 0 1 2.892 2.946l-.328 3.363a2.692 2.692 0 1 1-5.359-.523l.306-3.137c.05.008.1.015.151.02z" fill="#979797"/><path d="M97.295 23.64a5.997 5.997 0 0 0-6.55 5.386l-.355 3.63a5.969 5.969 0 0 0 .563 3.18c2.856.61 5.502 1.555 7.932 2.842a5.994 5.994 0 0 0 3.442-4.857l.354-3.63a5.997 5.997 0 0 0-5.386-6.551z" fill="#fff"/><path d="M94.827 31.008a2.183 2.183 0 0 0 2.338-2.669 2.693 2.693 0 0 1 2.893 2.946l-.328 3.363a2.692 2.692 0 1 1-5.36-.523l.307-3.137c.05.008.1.015.15.02z" fill="#979797"/><path d="M86.938 18.234c-3.829.953-6.516 4.078-6.9 8.22l-.712 7.292.347.034a5.703 5.703 0 0 0 6.23-5.122l1.035-10.424zM122.57 21.734c3.391 1.72 5.977 4.575 5.143 9.37l-.712 7.293-.347-.034a5.702 5.702 0 0 1-5.122-6.23l1.038-10.399z" fill="#CECECE"/><path d="M97.214 44.483a2.248 2.248 0 1 1-4.495 0 2.248 2.248 0 0 1 4.495 0zM99.846 49.25a1.635 1.635 0 1 1-3.27 0 1.635 1.635 0 0 1 3.27 0z" fill="#979797"/><path d="M77.427 39.975a4.26 4.26 0 1 0 .828-8.481 4.26 4.26 0 0 0-.828 8.481zM127.682 44.877a4.26 4.26 0 1 0 .828-8.48 4.26 4.26 0 0 0-.828 8.48z" fill="#E5E5E5"/><path d="M103.209 35.717c.108.01.916 1.62 1.733 3.306.813 1.678-.532 3.584-2.387 3.403-1.856-.18-2.808-2.311-1.685-3.8 1.128-1.496 2.231-2.92 2.339-2.909z" fill="#BFBFBF"/><path fill-rule="evenodd" clip-rule="evenodd" d="M108.457 45.976a.9.9 0 0 1-1.272.053c-.34-.312-1.01-.722-1.829-.846-.782-.12-1.732.015-2.732.823a.9.9 0 0 1-1.132-1.4c1.414-1.142 2.879-1.394 4.134-1.203 1.22.185 2.21.78 2.777 1.301a.9.9 0 0 1 .054 1.272z" fill="#BFBFBF"/><path d="M119.38 45.606a6.773 6.773 0 1 1-13.482-1.316 6.773 6.773 0 0 1 13.482 1.316z" fill="#E5E5E5"/><path fill-rule="evenodd" clip-rule="evenodd" d="M108.909 40.412a5.873 5.873 0 0 0-.806 8.266.9.9 0 0 1-1.39 1.143 7.672 7.672 0 0 1 1.053-10.8.9.9 0 1 1 1.143 1.39z" fill="#BFBFBF"/><path d="M103.929 23.756l17.385-.114.028 4.206-17.385.115-.028-4.207z" fill="#E5E5E5"/><path d="M104.705 98.114c0 7.914-6.415 14.329-14.329 14.329-7.913 0-14.328-6.415-14.328-14.329 0-7.913 6.415-14.328 14.328-14.328 7.914 0 14.329 6.415 14.329 14.328z" fill="#BFBFBF"/><path d="M81.7 86.71a14.265 14.265 0 0 1 8.676-2.924c7.914 0 14.329 6.415 14.329 14.328 0 2.623-.705 5.081-1.935 7.195-1.348.344-2.76.527-4.216.527-9.382 0-16.987-7.605-16.987-16.987 0-.725.045-1.438.133-2.138z" fill="#979797"/><path d="M112.883 86.19c0 7.913-6.415 14.328-14.329 14.328-7.913 0-14.328-6.415-14.328-14.329 0-7.913 6.415-14.328 14.328-14.328 7.914 0 14.329 6.415 14.329 14.328z" fill="#BFBFBF"/><path d="M93.201 112.164c6.56-1.311 11.504-7.103 11.504-14.05 0-4.802-2.363-9.052-5.989-11.652-5.523 2.755-9.317 8.461-9.317 15.053a16.74 16.74 0 0 0 3.802 10.649z" fill="#979797"/><path d="M121.517 100.518c0 7.913-6.415 14.328-14.328 14.328-7.913 0-14.328-6.415-14.328-14.328 0-7.914 6.415-14.329 14.328-14.329 7.913 0 14.328 6.415 14.328 14.329z" fill="#BFBFBF"/><path d="M93.008 102.583a14.463 14.463 0 0 1-.147-2.065c0-7.914 6.415-14.329 14.328-14.329 3.159 0 6.08 1.023 8.449 2.755-1.319 8.246-8.465 14.547-17.084 14.547-1.94 0-3.805-.32-5.546-.908z" fill="#979797"/><path d="M114.369 84.703c0 8.734-7.08 15.815-15.815 15.815-8.734 0-15.815-7.081-15.815-15.815 0-8.735 7.08-15.815 15.815-15.815s15.815 7.08 15.815 15.815z" fill="#BFBFBF"/><path d="M100.009 91.237a3.574 3.574 0 1 1-7.148 0 3.574 3.574 0 0 1 7.148 0zM98.643 80.57a4.133 4.133 0 1 1-8.267 0 4.133 4.133 0 0 1 8.267 0zM108.259 82.915a3.547 3.547 0 1 1-7.093 0 3.547 3.547 0 0 1 7.093 0zM108.259 108.639a2.803 2.803 0 1 1-5.606 0 2.803 2.803 0 0 1 5.606 0zM116.285 102.434a3.402 3.402 0 1 1-6.804 0 3.402 3.402 0 0 1 6.804 0zM87.628 104.878a2.444 2.444 0 1 1-4.888 0 2.444 2.444 0 0 1 4.888 0zM85.673 97.92a2.444 2.444 0 1 1-4.888 0 2.444 2.444 0 0 1 4.888 0zM60.262 116.502a2.908 2.908 0 1 1-.455-5.798 2.908 2.908 0 0 1 .455 5.798z" fill="#979797"/><path d="M55.526 87.955a3.75 3.75 0 1 1-.586-7.476 3.75 3.75 0 0 1 .586 7.476zM60.099 101.841a3.073 3.073 0 1 1-.478-6.127 3.073 3.073 0 0 1 .478 6.127z" fill="#CECECE"/><path d="M38.05 95.974a3.519 3.519 0 1 1-.549-7.016 3.519 3.519 0 0 1 .55 7.016zM33.188 103.557a2.362 2.362 0 1 1-.37-4.71 2.362 2.362 0 0 1 .37 4.71z" fill="#979797"/><path d="M48.042 111.757a5.214 5.214 0 1 1-.815-10.397 5.214 5.214 0 1 1 .815 10.397zM85.76 65.108a2.495 2.495 0 1 1-.389-4.975 2.495 2.495 0 0 1 .39 4.975zM21.638 98.583a2.495 2.495 0 1 1-.39-4.974 2.495 2.495 0 0 1 .39 4.974z" fill="#CECECE"/></svg>