<svg viewBox="0 0 135 124" version="1.1" xmlns="http://www.w3.org/2000/svg"><g stroke="none" stroke-width="1" fill="none" fill-rule="evenodd"><g fill-rule="nonzero"><g transform="translate(10 2)"><path d="M114 26v79a17 17 0 0 1-2.85 9.43A17.09 17.09 0 0 1 97 122H18c-8.957.02-16.394-6.913-17-15.85V26a17 17 0 0 1 9.58-15.29A16.79 16.79 0 0 1 18 9h79a16.79 16.79 0 0 1 6.16 1.16c.631.239 1.246.52 1.84.84a17 17 0 0 1 9 15z" fill="#3072C6"/><path d="M7.23 85.153L5.935 86.3l-2.87-3.242a.87.87 0 1 1 1.303-1.154l2.87 3.242-.008.007z" fill="#6797D5"/><path d="M8.711 81.246a.874.874 0 0 1 .618 1.07l-1.123 4.19-1.688-.452 1.123-4.19a.874.874 0 0 1 1.07-.618zm12.702-.114a.874.874 0 0 1 .618 1.07l-1.126 4.2-1.678-.45 1.128-4.21a.874.874 0 0 1 1.058-.61z" fill="#6797D5"/><path d="M19.18 81.135a.87.87 0 0 1 .903.835l.172 4.326-1.739.07-.171-4.327a.87.87 0 0 1 .835-.904zM8.141 84.29l-1.65.519-1.296-4.132a.87.87 0 0 1 .57-1.09.87.87 0 0 1 1.09.57l1.296 4.13-.01.004z" fill="#6797D5"/><path d="M114 84.58V105a17 17 0 0 1-2.85 9.43A17.09 17.09 0 0 1 97 122H18c-8.957.02-16.394-6.913-17-15.85V84.58h113z" fill="#6797D5"/><path fill="#FFF" opacity=".2" d="M.93 99.83l26.81-12.82v-15L.93 60.49z"/><path fill="#2D2D2D" d="M45.63 69.21h67.04v30.67H45.63z"/><path d="M97.4 106.24a2.4 2.4 0 0 0-.46 0c.15-.23.32-.46.46-.69A19.07 19.07 0 1 0 62 95.62a18.83 18.83 0 0 0 2.71 9.78c.15.25.32.49.48.74h-.48a4.13 4.13 0 0 0-2.49 1 3.38 3.38 0 0 0-1.15 2.51 3.76 3.76 0 0 0 3.93 3.59h31.5a4.14 4.14 0 0 0 2.78-1 3.36 3.36 0 0 0 1.15-2.51 3.63 3.63 0 0 0-3.03-3.49z" fill="#4B4B4B"/><circle fill="#BFBFBF" cx="81.08" cy="95.62" r="14.12"/><circle fill="#D0D0D0" cx="81.08" cy="95.62" r="7.03"/><path d="M114 42v60.68h-2.76a6.86 6.86 0 0 1-5.51-2.77 6.65 6.65 0 0 1-1.3-4v-1.94c-.9-12.532-11.56-22.102-24.116-21.653-12.556.45-22.503 10.759-22.504 23.323v.07a7.08 7.08 0 0 1-1.37 4.2 6.69 6.69 0 0 1-5.44 2.77H33.43A5.67 5.67 0 0 1 27.76 97V69.54a8.86 8.86 0 0 1 6.85-8.63L114 42z" fill="#FF6464"/><rect fill="#FFF" x="26.18" y="71.71" width="16.61" height="15.6" rx="3.12"/><path d="M88.12 96.84a1.22 1.22 0 0 1-1.22-1.22 5.82 5.82 0 1 0-11.63 0 1.22 1.22 0 1 1-2.44 0 8.26 8.26 0 0 1 16.51 0 1.22 1.22 0 0 1-1.22 1.22z" fill="#FFF"/><path d="M114 96.84h-1.45a3.76 3.76 0 0 1-3.74-3.5c-1.26-14.833-13.978-26.042-28.851-25.432C65.085 68.52 53.33 80.734 53.29 95.62h-2.45c.051-16.187 12.835-29.465 29.009-30.129 16.173-.664 30.003 11.521 31.381 27.649.037.7.61 1.25 1.31 1.26H114v2.44z" fill="#EF4849"/><path d="M39.67 71.71a3.12 3.12 0 0 1 3.12 3.12v9.36a3.12 3.12 0 0 1-3.12 3.12v-15.6z" fill="#FDB02A"/><path d="M29 95.09h21.39a3.37 3.37 0 0 1 3.37 3.37v2.93a3.37 3.37 0 0 1-3.37 3.37H29a3.92 3.92 0 0 1-3.92-3.92V99A3.92 3.92 0 0 1 29 95.09z" fill="#D0D0D0"/><circle fill="#FFF" cx="77.24" cy="16.08" r="1"/><circle fill="#FFF" cx="7.4" cy="53.24" r="1"/><circle fill="#FFF" cx="94.9" cy="41.08" r="1"/><circle fill="#FED731" cx="17.89" cy="16.2" r="15.39"/><path d="M68.35 18.53h-41.5a5.31 5.31 0 1 0 0 10.61h-.6a3.37 3.37 0 0 1 3.37 3.37 3.33 3.33 0 0 1-3.11 3.37H16.26a5.31 5.31 0 1 0 0 10.61h37.36a5.31 5.31 0 0 0 0-10.61h.27a3.44 3.44 0 0 1-3.63-3.37 3.37 3.37 0 0 1 3.37-3.37h14.72a5.31 5.31 0 1 0 0-10.61z" fill="#6797D5"/><circle fill="#FFF" cx="98.74" cy="35.41" r="1.11"/></g></g></g></svg>