<svg viewBox="0 0 135 124" fill="none" xmlns="http://www.w3.org/2000/svg"><g clip-path="url(#clip0)"><path d="M124 28v79a17 17 0 0 1-17 17H28a17 17 0 0 1-17-17V28a17 17 0 0 1 17-17h79a17 17 0 0 1 17 17z" fill="#FFC800"/><path d="M124.05 102.99v4.14a17 17 0 0 1-17 17h-79a17.001 17.001 0 0 1-17-17v-4.66c.3-.26.59-.53.89-.77a85.412 85.412 0 0 1 16.45-11.23l1.23-.62a84.449 84.449 0 0 1 76.49.62 84.302 84.302 0 0 1 17.94 12.52z" fill="#FFD900"/><path d="M28.48 92v14.33a8.72 8.72 0 0 1-17.43 0v-3.64c.331-.301.63-.636.89-1a85.416 85.416 0 0 1 16.45-11.22l.09 1.53zM124.05 102.99v4.14a17.003 17.003 0 0 1-17 17h-.94V90.47a84.309 84.309 0 0 1 17.94 12.52z" fill="#FFB100"/><path d="M31.9 69.42h71.32a7.682 7.682 0 0 1 7.68 7.68V88a26.603 26.603 0 0 1-26.6 26.6H50.82A26.602 26.602 0 0 1 24.22 88V77a7.68 7.68 0 0 1 7.68-7.58z" fill="#F89700"/><path d="M84.77 70.64H50.12a2.46 2.46 0 0 1 0-4.91h34.65a2.46 2.46 0 1 1 0 4.91z" fill="#F89700"/><path d="M107.57-.05H96.18a9.28 9.28 0 0 0 0 18.56h11.39a9.28 9.28 0 0 0 0-18.56zM39.61-.05H28.22a9.28 9.28 0 0 0 0 18.56h11.39a9.28 9.28 0 0 0 0-18.56z" fill="#FFB100"/><path d="M107.57-.05H96.18a9.28 9.28 0 0 0 0 18.56h11.39a9.28 9.28 0 0 0 0-18.56zM39.61-.05H28.22a9.28 9.28 0 0 0 0 18.56h11.39a9.28 9.28 0 0 0 0-18.56z" fill="#F89700"/><path d="M111.68 29.29V86c.015.213.015.427 0 .64a12.758 12.758 0 0 1-12.76 12.11H36.86a12.69 12.69 0 0 1-10.95-6.23 12.85 12.85 0 0 1-1.78-5.89V29.29a18.65 18.65 0 0 1 18.62-18.67H93a18.673 18.673 0 0 1 17.258 11.523 18.668 18.668 0 0 1 1.422 7.147z" fill="#FFB100"/><path d="M57.7 32.76c0-6.357-5.151-11.51-11.505-11.51-6.354 0-11.505 5.153-11.505 11.51v8.84c0 6.357 5.151 11.51 11.505 11.51 6.354 0 11.505-5.153 11.505-11.51v-8.84z" fill="#FFE865"/><path d="M53.44 34.61c0-2.557-2.07-4.63-4.625-4.63a4.627 4.627 0 0 0-4.625 4.63v5.85c0 2.557 2.07 4.63 4.625 4.63a4.628 4.628 0 0 0 4.625-4.63v-5.85z" fill="#E27800"/><path d="M78.09 41.6c0 6.357 5.15 11.51 11.505 11.51 6.354 0 11.505-5.153 11.505-11.51v-8.84c0-6.356-5.151-11.51-11.505-11.51-6.354 0-11.505 5.154-11.505 11.51v8.84z" fill="#FFE865"/><path d="M82.23 40.46c0 2.557 2.07 4.63 4.625 4.63a4.627 4.627 0 0 0 4.625-4.63v-5.85c0-2.557-2.07-4.63-4.625-4.63a4.628 4.628 0 0 0-4.625 4.63v5.85z" fill="#E27800"/><path d="M106.13 54.63v22.83A12.46 12.46 0 0 1 93.7 89.92H41.84a12.47 12.47 0 0 1-12.46-12.46V54.63A12.37 12.37 0 0 1 34 45a11.6 11.6 0 0 1 2.92-1.78 12.32 12.32 0 0 1 5-1H93.7a12.33 12.33 0 0 1 5 1 12.04 12.04 0 0 1 3.07 1.91 12.489 12.489 0 0 1 3.223 4.272 12.495 12.495 0 0 1 1.137 5.228z" fill="#FFD900"/><path d="M100.46 50.06c0 12.4-2.93 19-7.72 23.77a26.251 26.251 0 0 1-18.64 7.72H61a24.532 24.532 0 0 1-5.79-.65 26.382 26.382 0 0 1-7.75-3.1c-7.65-4.62-12.79-13-12.79-27.74h65.79z" fill="#E27800"/><path d="M101.73 45.11a17.582 17.582 0 0 1-26.407 13.25 17.58 17.58 0 0 1-7.443-8.74 16.81 16.81 0 0 1-1.25-6.42h32a12.058 12.058 0 0 1 3.1 1.91z" fill="#FFD900"/><path d="M69.1 43.2a17.369 17.369 0 0 1-1.22 6.42A17.61 17.61 0 0 1 34 45a11.6 11.6 0 0 1 2.92-1.78l32.18-.02zM78.11 10.57H57.67v30.62h20.44V10.57z" fill="#FFD900"/><path d="M78.12 41.19v-2.65a6.43 6.43 0 0 0-6.43-6.43H64.1a6.43 6.43 0 0 0-6.43 6.43v2.65a6.43 6.43 0 0 0 6.43 6.43h7.59a6.43 6.43 0 0 0 6.43-6.43z" fill="#F89700"/><path d="M55.25 73.52v7.38a26.379 26.379 0 0 1-7.75-3.1v-4.28a3.88 3.88 0 0 1 7.75 0zM79.92 73.52v7.38a26.27 26.27 0 0 0 7.75-3.1v-4.28a3.88 3.88 0 0 0-7.75 0z" fill="#FFE865"/><path d="M63.16 74h10.05a4.16 4.16 0 0 1 4.16 4.16v15.55a9.189 9.189 0 0 1-9.19 9.19A9.192 9.192 0 0 1 59 93.71V78.14A4.16 4.16 0 0 1 63.16 74z" fill="#FFB100"/><path d="M65.7 74h5v16.91a2.49 2.49 0 1 1-4.98 0V74h-.02z" fill="#F89700"/><path d="M92.34 53a2.29 2.29 0 1 0 0-4.58 2.29 2.29 0 0 0 0 4.58zM83.8 56.91a2.29 2.29 0 1 0 0-4.58 2.29 2.29 0 0 0 0 4.58zM46.2 51.64a2.29 2.29 0 1 0 0-4.58 2.29 2.29 0 0 0 0 4.58zM53.83 52.81a2.29 2.29 0 1 0 0-4.58 2.29 2.29 0 0 0 0 4.58zM48.43 58.3a2.29 2.29 0 1 0 0-4.58 2.29 2.29 0 0 0 0 4.58z" fill="#FFC800"/><path d="M65.45 124a6.03 6.03 0 1 0 0-12.06 6.03 6.03 0 0 0 0 12.06z" fill="#FFE865"/></g><defs><clipPath id="clip0"><path fill="#fff" d="M0 0h135v124H0z"/></clipPath></defs></svg>