<svg viewBox="0 0 135 124" fill="none" xmlns="http://www.w3.org/2000/svg"><path d="M107 11.097H28c-9.389 0-17 7.611-17 17V107c0 9.389 7.611 17 17 17h79c9.389 0 17-7.611 17-17V28.097c0-9.389-7.611-17-17-17z" fill="#FEC701"/><path fill-rule="evenodd" clip-rule="evenodd" d="M64.756 27.42c8.2 8.194 8.2 21.479 0 29.673l-53.407 53.361a17.051 17.051 0 0 1-.348-3.44L11 51.456 35.057 27.42c8.201-8.194 21.498-8.194 29.699 0zM124 28.475V63.8l-8.995 8.99c-4.881 4.877-12.796 4.877-17.677 0-4.882-4.878-4.882-12.786 0-17.663L124 28.476z" fill="#FFD900"/><path fill-rule="evenodd" clip-rule="evenodd" d="M104.083 62.747L91.277 80.27a3 3 0 0 0 2.422 4.77h12.806a3 3 0 0 0 3-3V64.517a3 3 0 0 0-5.422-1.77z" fill="#FF9600"/><path fill-rule="evenodd" clip-rule="evenodd" d="M88.478 63.314l12.733 17.535a3 3 0 0 1-2.428 4.763H85.97a3 3 0 0 1-2.997-2.885l-.003-.129.082-17.535a3 3 0 0 1 5.427-1.749z" fill="#FFB100"/><path fill-rule="evenodd" clip-rule="evenodd" d="M88.927 81.853h14.478a11.43 11.43 0 0 1 10.335 6.55l10.924 23.141a2.4 2.4 0 0 1-2.403 3.414l-26.362-2.57-26.283 2.562a2.4 2.4 0 0 1-2.386-3.448l11.442-23.264a11.428 11.428 0 0 1 10.255-6.385z" fill="#FFB100"/><path d="M89.224 92.252a2 2 0 0 0-2.45 1.414l-4.525 16.887a19.931 19.931 0 0 0-11.284-.325l-3.58.945-.114.033a2.7 2.7 0 0 0 1.492 5.188l3.58-.946.28-.07a14.54 14.54 0 0 1 8.183.386l.375.127a17.439 17.439 0 0 0 11.221-.133l.114-.04.24-.082a11.354 11.354 0 0 1 7.409.114l.273.097a16.838 16.838 0 0 0 11.011-.028l.164-.058.271-.091a14.593 14.593 0 0 1 8.13-.275l3.965 1.006.114.026a2.7 2.7 0 0 0 1.214-5.26l-3.965-1.006-.318-.078a19.988 19.988 0 0 0-11.19.58l-.165.058-.241.081c-.083.027-.166.053-.25.078l-4.613-17.214a1.999 1.999 0 1 0-3.863 1.035l4.457 16.634c-1.07-.07-2.132-.29-3.153-.661l-.274-.097a16.757 16.757 0 0 0-11.014.049l-.114.04-.249.085c-1.355.446-2.769.644-4.177.595l4.46-16.645a2 2 0 0 0-1.414-2.449z" fill="#FF9600"/><path d="M109.77 80.35H82.855a1.2 1.2 0 0 0-1.2 1.2v1.6a1.2 1.2 0 0 0 1.2 1.2h17.774l-3.45 22.348a.57.57 0 0 0 .959.501l3.831-3.638a.57.57 0 0 1 .787 0l3.896 3.704a.571.571 0 0 0 .957-.512l-3.058-17.62 7.532 15.854a.572.572 0 0 0 1.076-.129l1.042-5.027a.57.57 0 0 1 .662-.446l5.131.934a.572.572 0 0 0 .516-.956L106.239 84.35h3.531a1.2 1.2 0 0 0 1.2-1.2v-1.6a1.2 1.2 0 0 0-1.2-1.2z" fill="#F68B00"/><path d="M91.962 23.288c4.204-7.283 13.516-9.778 20.798-5.573 7.283 4.204 9.778 13.516 5.573 20.798l-5.224 9.05-26.371-15.226 5.224-9.05z" fill="#FFB100"/><path d="M92.01 20.247a.983.983 0 0 1 1.343-.36l27.229 15.721c.47.272.631.873.36 1.343l-6.273 10.865a.982.982 0 0 1-1.342.36l-27.23-15.721a.983.983 0 0 1-.36-1.342l6.274-10.866z" fill="#FF9600"/><path d="M97.535 44.086c14.983 8.65 29.167 12.54 33.029 9.263.414-.351.25-.97-.22-1.24L74.183 19.683c-.47-.271-1.087-.105-1.184.43-.908 4.983 9.553 15.321 24.536 23.972z" fill="#FFB100"/><path fill-rule="evenodd" clip-rule="evenodd" d="M9.163 57.19c-1.87-12.475 6.73-24.105 19.205-25.975l26.066-3.906C66.91 25.44 78.54 34.038 80.41 46.514 82.28 58.99 73.68 70.62 61.205 72.49l-26.066 3.906c-12.476 1.87-24.106-6.729-25.976-19.205z" fill="#F68B00"/><path d="M80.659 49.395c.264 11.34-7.945 21.37-19.454 23.095l-26.066 3.906c-11.51 1.725-22.299-5.46-25.37-16.378l70.89-10.623z" fill="#FFF1A2"/><path d="M50.397 14.36c.9 6.007-3.267 11.61-9.308 12.515-6.041.905-11.668-3.23-12.568-9.236-.9-6.006 3.267-11.61 9.309-12.515 6.04-.905 11.667 3.23 12.567 9.237z" fill="#F68B00"/><path d="M19.824 58.592a28.191 28.191 0 0 0-.633 11.47L21.1 82.79a8.298 8.298 0 0 0 9.435 6.976l39.537-5.924a8.298 8.298 0 0 0 6.976-9.436L75.14 61.68a28.193 28.193 0 0 0-3.968-10.782l-4.502.674a5.962 5.962 0 0 1-6.78-5.012l-.926-6.187a6.344 6.344 0 0 1-.016-.113l-30.6 4.586c.066.238.119.483.156.734l.833 5.559a5.962 5.962 0 0 1-5.012 6.78l-4.5.674z" fill="#FFB100"/><path fill-rule="evenodd" clip-rule="evenodd" d="M44.48 81.55a.627.627 0 0 1 .83-.316l-.257.573.256-.573.007.003.035.015.153.06c.136.05.339.12.597.195.517.149 1.25.31 2.107.364 1.71.105 3.888-.225 5.862-1.95a.628.628 0 1 1 .826.945c-2.29 2-4.826 2.377-6.765 2.257a11.157 11.157 0 0 1-2.377-.41 9.466 9.466 0 0 1-.88-.3 4.172 4.172 0 0 1-.053-.023l-.016-.007-.005-.002h-.002l.255-.574-.256.573a.628.628 0 0 1-.316-.83zM65.531 52.849a.628.628 0 0 1-.212.862l-2.996 1.81 3.423.945a.628.628 0 1 1-.335 1.21l-4.827-1.333a.627.627 0 0 1-.158-1.142l4.244-2.565a.627.627 0 0 1 .861.213zM26.04 58.767a.627.627 0 0 0 .456.762l3.395.852-2.995 1.907a.628.628 0 0 0 .674 1.059l4.224-2.69a.627.627 0 0 0-.184-1.138l-4.808-1.208a.628.628 0 0 0-.762.456z" fill="#FFA600"/><path d="M47.57 65.576c-5.86.878-8.982 5.015-9.672 10.344-.377 2.91 2.65 4.76 5.482 3.99 2.016-.548 4.268-1.093 6.133-1.372 1.865-.28 4.178-.419 6.267-.486 2.932-.093 5.285-2.75 4.071-5.422-2.222-4.892-6.42-7.933-12.28-7.054z" fill="#E47900"/><path d="M57.215 77.793a7.773 7.773 0 0 0-15.284 2.29c.477.014.965-.041 1.448-.172 2.017-.549 4.27-1.094 6.134-1.373 1.865-.28 4.178-.419 6.267-.486.5-.016.983-.106 1.435-.259z" fill="#FF9600"/><path d="M33.308 57.906l.191 1.276a5.899 5.899 0 0 0 11.668-1.749l-.414-2.76-11.445 3.233zM46.86 54.078l.454 3.033a5.899 5.899 0 1 0 11.667-1.748l-.54-3.6a5.937 5.937 0 0 0-.206-.898L46.86 54.078z" fill="#FFF1A2"/><path fill-rule="evenodd" clip-rule="evenodd" d="M47.397 64.788a2.863 2.863 0 0 0 2.404-3.258c-.235-1.566-3.62-4.845-3.62-4.845s-2.273 4.126-2.038 5.692a2.864 2.864 0 0 0 3.254 2.411z" fill="#F68B00"/><path d="M58.707 52.337a1.908 1.908 0 0 0-1.638-3.446L45.606 54.34l-13.985-.036a1.907 1.907 0 1 0-.01 3.816l6.64.016.037.238a2.657 2.657 0 0 0 5.279-.225l2.463.007c.285 0 .566-.063.823-.185l2.371-1.127a2.657 2.657 0 0 0 5.237-.894l-.223-1.489 4.469-2.124z" fill="#E47900"/></svg>