<svg viewBox="0 0 135 124" version="1.1" xmlns="http://www.w3.org/2000/svg"><g stroke="none" stroke-width="1" fill="none" fill-rule="evenodd"><g transform="translate(11 11)"><rect fill="#FFCA00" x="0" y="0" width="113" height="113" rx="17"/><path d="M111.44 9.93L9.92 111.45a16.94 16.94 0 0 0 7.08 1.56h41.32L113 58.33V17.01a16.94 16.94 0 0 0-1.56-7.08zM39.32 58.07l58-58c-.43 0-.87-.07-1.31-.07H47.42L14.34 33.09c-6.904 6.904-6.904 18.096 0 25s18.096 6.904 25 0l-.02-.02z" fill="#FFD900" fill-rule="nonzero"/></g><rect fill="#FFB100" x="11" y="9.141" width="92" height="62" rx="4"/><rect stroke="#FF9600" stroke-width="7" x="11" y="9.141" width="89" height="62" rx="4"/><path d="M61.816 18.255l-8.999-.158c-17.891-.312-32.648 13.939-32.96 31.83l-.158 8.999a3.6 3.6 0 0 0 3.537 3.662l8.999.157c17.891.312 32.648-13.938 32.96-31.83l.157-8.998a3.6 3.6 0 0 0-3.536-3.662z" fill="#E27903" fill-rule="nonzero"/><path stroke="#FFF1A2" stroke-width="4" stroke-linecap="round" stroke-linejoin="round" d="M49.36 33.822L36.052 46.673"/><path stroke="#FFF1A2" stroke-width="3" stroke-linecap="round" stroke-linejoin="round" d="M47.288 30.957l4.863 5.035M37.577 40.335l4.863 5.035M32.542 45.197l4.862 5.036M42.612 35.472l4.863 5.036"/><path d="M52.281 18.092l.536.005.09.002 12.297 12.295-.009.521a32.454 32.454 0 0 1-1.19 8.181L44.05 19.14a32.428 32.428 0 0 1 8.768-1.043zM20.941 42.131l19.67 19.671a32.446 32.446 0 0 1-8.376.943l-.59-.01L19.84 50.927l.017-1a32.473 32.473 0 0 1 1.084-7.797z" fill="#FFF1A2" fill-rule="nonzero"/><path d="M77.597 21.336h3.63a7 7 0 0 1 7 7v23.805" stroke="#FFCA00" stroke-width="7" stroke-linecap="round" stroke-linejoin="round"/><path fill="#FF9600" d="M44 71.141h25v31H44z"/><rect fill="#FF9600" x="38" y="95.141" width="37" height="7" rx="3.5"/><path d="M124 102.14v5c0 9.39-7.611 17-17 17H28c-9.389 0-17-7.61-17-17v-5h113z" fill="#E27903"/><path d="M110 110.14c4.736 0 8.922 2.352 11.456 5.95-2.998 4.833-8.351 8.05-14.456 8.05H55c0-7.731 6.268-14 14-14h41z" fill="#FFD900"/><path d="M81 106.14h19v5.5a9.5 9.5 0 0 1-19 0v-5.5z" fill="#FFB100"/><path d="M14.34 105.425L3.17 95.689a1 1 0 0 1 .133-1.605l23.718-14.611a1 1 0 0 1 1.413 1.31l-12.547 24.346a1 1 0 0 1-1.546.296zM42.43 110.543l-17.97.13a1 1 0 0 1-.95-1.33l9.508-27.248a1 1 0 0 1 1.899.031l8.461 27.12a1 1 0 0 1-.947 1.297zM131.257 39.914l.038-11.924a1 1 0 0 0-1.248-.972l-21.178 5.418a1 1 0 0 0-.046 1.924l21.14 6.507a1 1 0 0 0 1.294-.953zM128.014 18.167l-7.928-9.874a1 1 0 0 0-1.611.07l-12.276 18.355a1 1 0 0 0 1.218 1.478l20.204-8.48a1 1 0 0 0 .393-1.549z" fill="#FF9600"/><path d="M89.902 36.14a29.074 29.074 0 0 1 27.059 18.437l9.44 24.012c4.667 11.873-1.174 25.282-13.047 29.95a23.1 23.1 0 0 1-8.452 1.602h-30c-12.757 0-23.1-10.343-23.1-23.1a23.1 23.1 0 0 1 1.602-8.452l9.44-24.012a29.074 29.074 0 0 1 27.058-18.436z" fill="#E27903"/><rect fill="#FFB100" x="64.1" y="50.841" width="51.1" height="60.9" rx="25.55"/><path d="M62.2 74.507l4.85-2.8a9.45 9.45 0 1 1 9.45 16.368l-4.85 2.8a9.45 9.45 0 1 1-9.45-16.368zM117.1 74.507l-4.85-2.8a9.45 9.45 0 1 0-9.45 16.368l4.85 2.8a9.45 9.45 0 0 0 9.45-16.368z" fill="#FFB100"/><path d="M120.8 66.982v7.188h-2.1c-4.64 0-9.8-3.761-9.8-8.4a2.1 2.1 0 0 0-2.1-2.1h-2.1c-7.605 0-12.63-5.054-14.7-11.987-2.044 6.848-6.938 11.863-14.422 11.984l-.278.003h-2.1a2.1 2.1 0 0 0-2.1 2.1c0 4.567-5.046 8.284-9.587 8.397l-.213.003h-2.1v-7.188C67.844 54.94 78.11 48.92 90 48.92s22.156 6.02 30.8 18.062z" fill="#E27903"/><rect fill="#FFF1A2" x="94.2" y="70.941" width="15.4" height="21" rx="7.7"/><rect fill="#FFF1A2" x="70.4" y="71.641" width="15.4" height="21" rx="7.7"/><rect fill="#E27903" x="96.497" y="74.841" width="5.906" height="10.5" rx="2.953"/><rect fill="#E27903" x="77.597" y="74.841" width="5.906" height="10.5" rx="2.953"/><rect fill="#E27903" x="87" y="73.041" width="6" height="18.9" rx="3"/><path d="M89.875 41.74c11.691 0 21.705 7.047 25.872 17.047-6.586-6.525-15.692-10.457-25.542-10.457-10.418 0-20.002 4.399-26.653 11.61 3.858-10.607 14.187-18.2 26.323-18.2z" fill="#FFD900"/><path d="M113.369 88.908l-7.5 12.99-12.99-7.5c4.142-7.174 13.315-9.632 20.49-5.49z" fill="#FFB100"/><path d="M95.685 103.95a16.493 16.493 0 0 0-11.483-1.851l-1.06.215" stroke="#E27903" stroke-width="3" stroke-linecap="round" stroke-linejoin="round"/><circle fill="#E27903" cx="90" cy="90.541" r="4.9"/><path fill="#FFB100" d="M70 70.141h16v6H70zM94 70.141h16v6H94z"/></g></svg>