<svg viewBox="0 0 135 124" fill="none" xmlns="http://www.w3.org/2000/svg"><g clip-path="url(#clip0)"><path d="M28.384 11h79c9.389 0 17 7.611 17 17v79c0 9.389-7.611 17-17 17h-79c-9.389 0-17-7.611-17-17V28c0-9.389 7.611-17 17-17z" fill="#FFCA00"/><path d="M13.06 114.08L114.58 12.56A16.938 16.938 0 0 0 107.5 11H66.18L11.5 65.68V107c.003 2.445.535 4.86 1.56 7.08zm72.12-48.14l-58 58c.43 0 .87.07 1.31.07h48.59l33.08-33.09c6.904-6.904 6.904-18.096 0-25-6.903-6.904-18.096-6.904-25 0l.02.02z" fill="#FFD900"/><path d="M42.561 10.424C39.628 4.166 32.932.192 25.691 1.043c-9.051 1.064-15.526 9.263-14.463 18.315.047.395.107.785.18 1.17a18.471 18.471 0 0 0-4.49 14.394c1.194 10.157 10.396 17.424 20.553 16.23 8.263-.971 14.613-7.242 16.052-15.015 3.118 5.776 9.536 9.363 16.452 8.55 9.05-1.063 15.526-9.263 14.462-18.314-1.063-9.051-9.263-15.526-18.314-14.462-1.808.212-3.512.709-5.075 1.44-4.653 1.358-7.45-1.164-8.487-2.927z" fill="#E27800"/><path d="M13.473 53.162c-1.922-16.35 9.775-31.163 26.126-33.085l.966-.114C56.916 18.042 71.73 29.74 73.651 46.09l1.425 12.127c.664 5.655-3.381 10.778-9.036 11.442l-39.7 4.666c-5.655.665-10.778-3.381-11.442-9.036l-1.425-12.127z" fill="#FFB100"/><path d="M17.058 45.395a5.05 5.05 0 1 1-10.03 1.18 5.05 5.05 0 0 1 10.03-1.18zM78.132 38.218a5.05 5.05 0 1 1-10.03 1.178 5.05 5.05 0 0 1 10.03-1.178z" fill="#FFB100"/><path d="M28.362 36.953a5.872 5.872 0 0 1 5.146-6.517l.62-.073a5.872 5.872 0 0 1 6.517 5.146l.47 4.005a5.872 5.872 0 0 1-5.145 6.517l-.62.073a5.872 5.872 0 0 1-6.517-5.146l-.47-4.005z" fill="#FFF1A2"/><path d="M33.505 36.892a2.74 2.74 0 0 1 5.441-.64l.416 3.537a2.74 2.74 0 0 1-5.441.64l-.416-3.537z" fill="#E27800"/><path d="M55.41 33.774a5.872 5.872 0 0 0-6.517-5.146l-.62.073a5.872 5.872 0 0 0-5.146 6.517l.47 4.005a5.872 5.872 0 0 0 6.517 5.146l.62-.073a5.872 5.872 0 0 0 5.146-6.517l-.47-4.005z" fill="#FFF1A2"/><path d="M50.393 34.908a2.74 2.74 0 0 0-5.441.639l.416 3.536a2.74 2.74 0 1 0 5.44-.64l-.415-3.535z" fill="#E27800"/><path d="M56.913 33.39l-14.282-.596.766-7.026 13.483.576.033 7.045z" fill="#DA8E74"/><path d="M23.846 29.909l33.996-3.996 1.42 12.088-33.995 3.996-1.421-12.088z" fill="#FFB100"/><path d="M61.594 25.472C68 28 70.124 33.858 72.161 39.642c-.21.082-.433.139-.667.166l-.926.109a7.227 7.227 0 0 1-8.02-6.334l-.954-8.11zM13.429 46.545C14 40 14.5 33.5 20.422 30.311l.953 8.11a7.226 7.226 0 0 1-6.334 8.022l-.925.108a2.715 2.715 0 0 1-.687-.006z" fill="#E27800"/><path fill-rule="evenodd" clip-rule="evenodd" d="M40.168 29.543a3.161 3.161 0 0 1-2.14 3.926l-8.823 2.598a3.162 3.162 0 0 1-1.786-6.066l8.823-2.598a3.162 3.162 0 0 1 3.926 2.14zM54.653 25.651a3.162 3.162 0 0 1-3.382 2.925l-9.175-.665a3.162 3.162 0 0 1 .457-6.306l9.175.664a3.162 3.162 0 0 1 2.925 3.382z" fill="#E27800"/><path d="M28.103 62.648a8.09 8.09 0 0 1 1.6-11.328l5.695-4.284a8.087 8.087 0 0 1 8.117-.943 8.085 8.085 0 0 1 7.918-.772l6.516 2.884A8.09 8.09 0 0 1 51.4 63l-.784-.347v.002l-.035-.017-.83-.367c-3.667-1.453-6.806-.445-8.62.697l-.998.752c-.036.032-.07.065-.104.098l-.008-.014-.592.445a8.09 8.09 0 0 1-11.327-1.6z" fill="#E27800"/><path d="M46.916 44.572a3.803 3.803 0 1 1-7.554.887 3.803 3.803 0 0 1 7.554-.888z" fill="#FFB100"/><path fill-rule="evenodd" clip-rule="evenodd" d="M67.574 88.258l-1.834 19.638a4.647 4.647 0 1 0 3.838 8.168l50.375 4.704a4.647 4.647 0 1 0 5.284-7.315l1.815-19.43a3.322 3.322 0 0 0 .605-6.478l1.876-20.09a4.648 4.648 0 1 0-4.905-6.933l-21.214-1.981a3.32 3.32 0 0 0-6.06-.566L76.8 56.055a4.648 4.648 0 1 0-6.741 5.59l-1.92 20.553a3.32 3.32 0 0 0-.566 6.06z" fill="#F89700"/><path d="M124.498 66.751l-48.914-4.568-4.378 46.876 48.914 4.568 4.378-46.876z" fill="#FFC43F"/><path d="M121.602 97.766l-48.915-4.568-1.48 15.861 48.913 4.568 1.482-15.861z" fill="#FFB100"/><path d="M107.173 98.95c2.265.212 4.258-1.302 4.453-3.382.194-2.08-1.485-3.938-3.749-4.15-2.265-.21-4.258 1.304-4.452 3.384-.195 2.08 1.484 3.937 3.748 4.149z" fill="#F5990F"/><path d="M108.5 112.542a6.619 6.619 0 0 0-3.362-11.882l-1.065-.099a6.598 6.598 0 0 0-4.437-2.314l-12.052-1.126a6.62 6.62 0 1 0-1.23 13.182l1.064.099c.054.063.108.125.164.187l20.918 1.953z" fill="#E27800"/><path d="M108.187 77.881a9.188 9.188 0 0 0-18.295-1.708l-1.574 16.855a9.187 9.187 0 0 0 18.294 1.709l1.575-16.856z" fill="#E27800"/><path d="M107.46 112.445l1.155-12.37c.633-6.781-4.351-12.792-11.133-13.426C90.701 86.016 84.69 91 84.056 97.782l-1.155 12.369 24.559 2.294z" fill="#E27800"/><path d="M105.751 93.408c-.429 4.59-4.482 7.963-9.053 7.536-4.572-.427-7.93-4.493-7.501-9.082a8.334 8.334 0 0 1 1.335-3.817 12.275 12.275 0 0 1 6.95-1.396 12.288 12.288 0 0 1 8.097 4.116c.193.844.257 1.733.172 2.643z" fill="#FFB100"/><path d="M105.989 91.253l-17.912 14.852 3.265 3.938 16.97-14.071a12.327 12.327 0 0 0-2.323-4.72zM102.967 79.265a3.485 3.485 0 0 0-6.94-.648l-.817 8.752a3.485 3.485 0 0 0 6.939.648l.818-8.752z" fill="#F5990F"/><path fill-rule="evenodd" clip-rule="evenodd" d="M102.998 78.933l5.046.472-1.288 13.796a2.536 2.536 0 0 1-2.759 2.288l-2.524-.236 1.525-16.32z" fill="#E27800"/><path d="M103.889 76.198a6.019 6.019 0 1 0-11.986-1.12l-.346 3.706a6.019 6.019 0 0 0 11.986 1.12l.346-3.706z" fill="#FFB100"/><path d="M100.515 74.903l-5.687-.532a.946.946 0 0 0-.176 1.883l5.687.532a.946.946 0 0 0 .176-1.883z" fill="#F5990F"/><path fill-rule="evenodd" clip-rule="evenodd" d="M96.41 74.52l1.893.176-.44 4.703a.95.95 0 0 1-1.892-.177l.44-4.703z" fill="#FFC43F"/><path d="M97.895 79.09l-1.898-.177a.63.63 0 1 0-.118 1.255l1.9.177a.63.63 0 0 0 .116-1.255z" fill="#FFC43F"/><path d="M95.893 83.968l1.799.168c.2.019.388-.247.42-.594.033-.346-.103-.642-.303-.661l-1.799-.168c-.2-.019-.388.247-.42.594-.033.346.103.642.303.661z" fill="#F5990F"/><path opacity=".317" d="M106.226 105.827l-10.12-.945a2.522 2.522 0 0 0-.468 5.021l10.119.945a2.521 2.521 0 1 0 .469-5.021z" fill="#F5990F"/><path opacity=".317" d="M91.692 102.369l-5.58-1.323a3.152 3.152 0 0 0-1.453 6.134l5.58 1.323a3.152 3.152 0 0 0 1.453-6.134z" fill="#F5990F"/><path d="M91.625 110.966l2.234-1.787a2.522 2.522 0 0 0-3.151-3.938l-2.494 1.995a2.521 2.521 0 0 0-.526 3.362l3.937.368z" fill="#F5990F"/><path d="M97.207 103.599l-6.806-1.614a2.522 2.522 0 0 0-1.163 4.908l6.806 1.613a2.522 2.522 0 0 0 1.163-4.907z" fill="#FFB100"/></g><defs><clipPath id="clip0"><path fill="#fff" d="M0 0h135v124H0z"/></clipPath></defs></svg>