<svg viewBox="0 0 135 124" version="1.1" xmlns="http://www.w3.org/2000/svg"><g stroke="none" stroke-width="1" fill="none" fill-rule="evenodd"><g fill-rule="nonzero"><g transform="translate(11)"><path d="M113 28v80c0 .35 0 .69-.1 1a15.81 15.81 0 0 1-.5 2.5 16.52 16.52 0 0 1-1 2.75A17 17 0 0 1 96 124H17c-9.389 0-17-7.611-17-17V28c0-9.389 7.611-17 17-17h79c9.389 0 17 7.611 17 17z" fill="#FFC800"/><path d="M113 28v.86H81.56V11H96c9.389 0 17 7.611 17 17z" fill="#F89700"/><path d="M55.57 111.73a2 2 0 0 1-1.37-.54l-4.7-4.4a2 2 0 0 1 2.73-2.92l4.7 4.4a2 2 0 0 1-1.36 3.46zm52.78 0a2 2 0 0 1-1.46-3.36l6.48-7a2.002 2.002 0 1 1 2.93 2.73l-6.48 7a2 2 0 0 1-1.47.63z" fill="#FFD900"/><path d="M112.37 111.58a16.52 16.52 0 0 1-1 2.75A17 17 0 0 1 96 124H26.76l.49-.66a8.91 8.91 0 0 1 6.14-3.55 9 9 0 0 0 4.27-1.69 8.75 8.75 0 0 0 2.85-3.58l.4-.91.89-2 70.57-.03z" fill="#E27800"/><circle fill="#F89700" cx="72.28" cy="114.72" r="6.52"/><path d="M112.434 23.376c3.291 4.241 2.521 10.347-1.72 13.638l-6.431 4.99-11.912-15.35 6.431-4.99c4.239-3.29 10.34-2.523 13.632 1.712z" fill="#FFE75E"/><path d="M101.41 91.23v8H65.34a12.93 12.93 0 0 1-10.65-5.61L19.13 41.76 70.38 2a8.06 8.06 0 0 1 11.33 1.43l27.17 35-22.73 17.64a13 13 0 0 0-4.41 14.26l4.66 2.92 3.22 1.17a17.87 17.87 0 0 1 11.79 16.81z" fill="#FFD900"/><path d="M97 23.09l1.86 2.39a6.66 6.66 0 0 1-1.18 9.35l-4.52 3.51 4.27 5.51L112 32.54 103.82 22 97 23.09z" fill="#FFE75E"/><path d="M72.77 68.16c-3.43-3.31.35-14.3 6-18.7l24.12-18.71 6 7.69-22.74 17.63a13.25 13.25 0 0 0-3.09 3.44 10.06 10.06 0 0 0 3.34 13.74v9S76.2 71.47 72.77 68.16z" fill="#FFE75E"/><path d="M101.41 91.23v8H76v-9.51a18.24 18.24 0 0 1 10.4-16.47l3.22 1.17a17.87 17.87 0 0 1 11.79 16.81z" fill="#F89700"/><circle fill="#FFE75E" cx="65.96" cy="68.23" r="3.38"/><circle fill="#FFE75E" cx="65.78" cy="56.98" r="3.38"/><circle fill="#FFE75E" cx="72.5" cy="46.35" r="3.38"/><circle fill="#FFE75E" cx="81.84" cy="39.1" r="3.38"/><circle fill="#FFE75E" cx="91.18" cy="31.85" r="3.38"/><path d="M66 69.57a1.34 1.34 0 1 1 0-2.68l16.26-.2a1.34 1.34 0 1 1 0 2.68l-16.26.2zm16.05-5.03a1.36 1.36 0 0 1-.48-.09L65.3 58.23a1.35 1.35 0 1 1 1-2.51L82.53 62a1.34 1.34 0 0 1-.48 2.59v-.05zm1.38-4.25a1.35 1.35 0 0 1-1-.46L71.48 47.22a1.34 1.34 0 1 1 2-1.75l10.93 12.6a1.34 1.34 0 0 1-.1 1.93c-.25.197-.562.3-.88.29zm8.25-7.17a1.35 1.35 0 0 1-1.06-.52l-9.84-12.68a1.34 1.34 0 0 1 2.12-1.64L92.74 51a1.34 1.34 0 0 1-.24 1.88 1.31 1.31 0 0 1-.82.24zm9.05-7.63a1.33 1.33 0 0 1-1.06-.51l-9.55-12.31A1.35 1.35 0 1 1 92.24 31l9.54 12.3a1.34 1.34 0 0 1-.23 1.88c-.232.191-.52.3-.82.31zM33.26 62.34C42.78 55 48.63 41.92 47.11 30l-1.14-9-26.84 20.76 14.13 20.58z" fill="#F89700"/><path d="M101.63 99.2l-.22-.15v.15H67.72a12.91 12.91 0 0 1-10.64-5.62L35.64 62.34 21.39 41.59c-.84-1.07-2.39-2.05-3.39-1.23L7.49 47.42a2 2 0 0 0-.35 2.77l1.09 1.4a2 2 0 0 0 2.76.35l.22-.17a3.2 3.2 0 0 1 4.32.29 3 3 0 0 1 .76 2.46 3.1 3.1 0 0 1-1.16 2.06l-.34.26a2 2 0 0 0-.36 2.74l1.4 1.81a2 2 0 0 0 2.76.35l.22-.17a3.19 3.19 0 0 1 4.32.29 3 3 0 0 1 .76 2.45 3.06 3.06 0 0 1-1.16 2.06l-.34.26a2 2 0 0 0-.39 2.76L23.32 71a2 2 0 0 0 2.76.35l1-.75a2.43 2.43 0 0 1 3.42.42l.58.86-.72-.9a3.13 3.13 0 0 1-.41 4.51l-.34.26a2 2 0 0 0-.36 2.76l1.29 1.66a2 2 0 0 0 2.76.34l1-.75a1.64 1.64 0 0 1 2.33.47l16.85 25.35a5.94 5.94 0 0 0 2.09 1.9 5.83 5.83 0 0 0 2.82.69 2.43 2.43 0 0 1 2.37 2.47v1a2 2 0 0 0 2 2.16h2.22a2 2 0 0 0 2-2v-.26a3.21 3.21 0 0 1 2.88-3.25 3.1 3.1 0 0 1 3.31 3.1v.41a2 2 0 0 0 2 2h2.27a2 2 0 0 0 2-2v-.27a3.21 3.21 0 0 1 2.88-3.25 3.07 3.07 0 0 1 2.41.91 3.1 3.1 0 0 1 .91 2.19v.41a2 2 0 0 0 2 2h2.26a2 2 0 0 0 2-2v-.26a3.21 3.21 0 0 1 2.88-3.25 3.07 3.07 0 0 1 2.41.91 3.1 3.1 0 0 1 .91 2.19v.41a2 2 0 0 0 2 2h2.26a2 2 0 0 0 2-2v-10.15a2.44 2.44 0 0 0-2.73-2.44z" fill="#E27800"/><circle fill="#FFE75E" cx="69.74" cy="23.51" r="11.82"/><path d="M113 108c0 .35 0 .69-.1 1a15.81 15.81 0 0 1-.5 2.5 16.52 16.52 0 0 1-1 2.75H42.91a3.14 3.14 0 0 1-3.14-3.15 3.18 3.18 0 0 1 .91-2.22 3.12 3.12 0 0 1 2.23-.92L113 108z" fill="#FFD900"/><path d="M54.51 111.73a2 2 0 0 1-1.73-1l-2.57-4.4a2 2 0 0 1 3.45-2l2.57 4.4a2 2 0 0 1-.72 2.73 1.92 1.92 0 0 1-1 .27zm10.3 0a1.63 1.63 0 0 1-.31 0 2 2 0 0 1-1.67-2.28l1-6.45a2.024 2.024 0 0 1 4 .62l-1 6.45a2 2 0 0 1-2.02 1.66zm36.28 1.45a2.24 2.24 0 0 1-.57-.08 2 2 0 0 1-1.35-2.49l2.11-7.14a2 2 0 0 1 3.83 1.13l-2.11 7.15a2 2 0 0 1-1.91 1.43z" fill="#FFD900"/><path d="M104.81 113.15a2.07 2.07 0 0 1-.81-.15 2 2 0 0 1-1.07-2.62l4.06-9.74a2 2 0 1 1 3.69 1.54l-4.06 9.74a2 2 0 0 1-1.81 1.23z" fill="#FFD900"/><circle fill="#F89700" cx="48.87" cy="119.85" r="3.18"/><path d="M61.65 123.43c0 .193-.028.385-.08.57H57.4a2.12 2.12 0 0 1-.08-.57 2.17 2.17 0 0 1 4.33 0z" fill="#F89700"/></g></g></g></svg>