<svg viewBox="0 0 135 124" fill="none" xmlns="http://www.w3.org/2000/svg"><path d="M11 28c0-9.389 7.611-17 17-17h79c9.389 0 17 7.611 17 17v79c0 9.389-7.611 17-17 17H28c-9.389 0-17-7.611-17-17V28z" fill="#FEC701"/><path fill-rule="evenodd" clip-rule="evenodd" d="M64.756 27.337c8.2 8.201 8.2 21.498 0 29.699l-53.407 53.407a17.08 17.08 0 0 1-.348-3.443L11 51.394l24.057-24.057c8.201-8.2 21.498-8.2 29.699 0zM124 28.394v35.354l-8.995 8.997c-4.881 4.881-12.796 4.881-17.677 0-4.882-4.882-4.882-12.797 0-17.678L124 28.394z" fill="#FFD900"/><path d="M53.953 15.114c0 6.174-5.035 11.18-11.245 11.18-6.21 0-11.245-5.006-11.245-11.18 0-6.175 5.034-11.18 11.245-11.18 6.21 0 11.245 5.005 11.245 11.18z" fill="#F68B00"/><path fill-rule="evenodd" clip-rule="evenodd" d="M6 52.233c0-12.827 10.398-23.225 23.224-23.225h26.797c12.827 0 23.225 10.398 23.225 23.225 0 12.826-10.398 23.224-23.225 23.224H29.224C16.398 75.457 6 65.059 6 52.233z" fill="#F68B00"/><path d="M79.062 55.167c-1.443 11.441-11.208 20.29-23.04 20.29H29.223c-11.832 0-21.598-8.849-23.04-20.29h72.878z" fill="#FFF1A2"/><path d="M14.144 66.686c0-15.883 12.876-28.76 28.76-28.76 15.882 0 28.758 12.877 28.758 28.76v9.52c0 6.628-5.372 12-12 12H26.144c-6.627 0-12-5.372-12-12v-9.52z" fill="#FFB100"/><path d="M23.062 35.859H65.07v6.85H23.062v-6.85z" fill="#F68B00"/><path opacity=".626" fill-rule="evenodd" clip-rule="evenodd" d="M63.074 56.682a.638.638 0 0 1-.344.835l-3.285 1.368 3.299 1.467a.638.638 0 0 1-.518 1.166l-4.653-2.068a.638.638 0 0 1 .013-1.172l4.654-1.94a.638.638 0 0 1 .834.344zM22.473 56.682a.638.638 0 0 0 .344.835l3.285 1.368-3.299 1.467a.638.638 0 0 0 .518 1.166l4.654-2.068a.638.638 0 0 0-.014-1.172l-4.653-1.94a.638.638 0 0 0-.835.344z" fill="#FF9600"/><path fill-rule="evenodd" clip-rule="evenodd" d="M9.361 43.471a6.061 6.061 0 0 1 6.062-6.06h5.714a6.061 6.061 0 0 1 6.061 6.06v5.715a6.061 6.061 0 0 1-6.06 6.061h-5.715a6.061 6.061 0 0 1-6.062-6.061v-5.715zM58.607 42.825a6.061 6.061 0 0 1 6.062-6.06h4.939a6.061 6.061 0 0 1 6.061 6.06v6.361a6.061 6.061 0 0 1-6.061 6.062h-4.94a6.061 6.061 0 0 1-6.06-6.062v-6.36zM35.47 49.69l-.53-1.866a1.939 1.939 0 0 0 1.06 3.73l.01-.002.054-.015a24.562 24.562 0 0 1 1.193-.276c.83-.17 2.017-.377 3.426-.515 2.844-.277 6.466-.262 9.85.794a1.939 1.939 0 0 0 1.155-3.702c-4.07-1.27-8.269-1.255-11.381-.95-1.57.152-2.894.382-3.832.575a28.5 28.5 0 0 0-1.496.35l-.025.008-.008.002-.005.001.53 1.865zM30.78 58.976a1.293 1.293 0 0 1 1.681-.719l-.48 1.2.48-1.2h-.002l-.001-.001h-.001.002l.026.01.137.047a7.78 7.78 0 0 0 2.484.359c1.486-.035 3.26-.541 4.641-2.492a1.293 1.293 0 1 1 2.11 1.495c-1.966 2.774-4.602 3.532-6.69 3.581a10.367 10.367 0 0 1-3.345-.485 6.54 6.54 0 0 1-.288-.1l-.022-.01-.007-.002-.003-.001H31.5l.48-1.201-.48 1.2a1.293 1.293 0 0 1-.72-1.68zm1.677-.72h-.001zM56.072 58.976a1.293 1.293 0 0 0-1.68-.719l.48 1.2-.48-1.2h.002l.001-.001-.028.01-.136.047a7.78 7.78 0 0 1-2.484.359c-1.486-.035-3.26-.541-4.641-2.492a1.293 1.293 0 1 0-2.11 1.495c1.965 2.774 4.602 3.532 6.69 3.581a10.367 10.367 0 0 0 3.344-.485 6.54 6.54 0 0 0 .29-.1l.02-.01.008-.002.003-.001h.001c0-.001.001-.001-.48-1.201l.481 1.2a1.293 1.293 0 0 0 .72-1.68zm-1.676-.72zM43.29 65.931a2.913 2.913 0 0 0 2.908-2.916c0-1.611-2.908-5.421-2.908-5.421s-2.908 3.81-2.908 5.42a2.913 2.913 0 0 0 2.908 2.917z" fill="#F68B00"/><path fill-rule="evenodd" clip-rule="evenodd" d="M30.004 106.601a1.501 1.501 0 0 1-.549-2.05l4.793-8.3a1.5 1.5 0 0 1 2.598 1.5l-4.793 8.301a1.5 1.5 0 0 1-2.049.549zM52.019 106.601a1.501 1.501 0 0 0 .549-2.05l-4.793-8.3a1.5 1.5 0 0 0-2.598 1.5l4.793 8.301a1.5 1.5 0 0 0 2.049.549zM41.127 111.446a1.5 1.5 0 0 1-1.5-1.5v-9.586a1.5 1.5 0 0 1 3 0v9.586a1.5 1.5 0 0 1-1.5 1.5zM95.546 44.228a1.5 1.5 0 0 1-1.615 1.375l-9.555-.768a1.5 1.5 0 0 1 .241-2.99l9.554.768a1.5 1.5 0 0 1 1.375 1.615zM86.103 24.342a1.5 1.5 0 0 0-2.086.383l-5.443 7.89a1.5 1.5 0 1 0 2.47 1.704l5.442-7.89a1.5 1.5 0 0 0-.383-2.087zM95.152 32.102a1.5 1.5 0 0 1-.712 1.999l-8.658 4.111a1.5 1.5 0 1 1-1.287-2.71l8.658-4.111a1.5 1.5 0 0 1 1.999.711z" fill="#FFF1A2"/><path d="M42.946 82.995c-7.377-.13-12.921-3.155-15.369-9.181-1.269-3.124.21-6.697 3.302-7.98 2.904-1.206 6.2.037 7.64 2.781.864.927 1.99 1.737 3.418 2.08.373.038.78.062 1.222.07l.1.003c3.295.111 5.903 2.874 5.845 6.218-.059 3.377-2.816 6.067-6.158 6.009z" fill="#F68B00"/><path d="M41.941 82.958c-6.083-.334-10.82-2.736-13.447-7.268a8.66 8.66 0 0 1 13.447 7.268z" fill="#FF9600"/><path d="M79.66 71.376h33.405a5.85 5.85 0 0 1 5.849 5.85v34.019a5.849 5.849 0 0 1-5.849 5.849H79.661a5.849 5.849 0 0 1-5.85-5.849v-34.02a5.85 5.85 0 0 1 5.85-5.849z" fill="#F68B00"/><path d="M78.584 87.23v23.245c0 .85.69 1.539 1.54 1.539h32.479a1.54 1.54 0 0 0 1.54-1.539V87.231H78.584z" fill="#FFB100"/><path d="M78.584 94.86v-7.63h35.559v8.12a6.58 6.58 0 0 1-6.581 6.581h-17.78c-6.184 0-11.198-.887-11.198-7.072z" fill="#FFF1A2"/><path d="M114.142 87.23H78.583v-9.236c0-.85.69-1.539 1.54-1.539h32.479c.851 0 1.54.69 1.54 1.54v9.235z" fill="#FF9600"/><path fill-rule="evenodd" clip-rule="evenodd" d="M100.442 92.772H70.271a7.623 7.623 0 0 0 7.45 9.237h31.649-1.104a7.932 7.932 0 0 1-7.824-9.237z" fill="#FFD900"/><path d="M100.751 81.69a3.848 3.848 0 1 1 7.697 0 3.848 3.848 0 0 1-7.697 0zM84.279 81.69a3.848 3.848 0 1 1 7.697 0 3.848 3.848 0 0 1-7.697 0z" fill="#F68B00"/><path d="M88.05 67.99a2.54 2.54 0 0 0-2.54 2.54v10.928a2.54 2.54 0 1 0 5.08 0V70.53a2.54 2.54 0 0 0-2.54-2.54zM104.675 67.99a2.54 2.54 0 0 0-2.54 2.54v10.928a2.54 2.54 0 1 0 5.08 0V70.53a2.54 2.54 0 0 0-2.54-2.54z" fill="#FFF1A2"/></svg>