<svg viewBox="0 0 135 124" version="1.1" xmlns="http://www.w3.org/2000/svg"><g stroke="none" stroke-width="1" fill="none" fill-rule="evenodd"><g transform="translate(11 11)"><rect fill="#FFCA00" x="0" y="0" width="113" height="113" rx="17"/><path d="M111.278 9.93L9.758 111.45a16.94 16.94 0 0 0 7.08 1.56h41.32l54.68-54.68V17.01a16.94 16.94 0 0 0-1.56-7.08zm-72.12 48.14l58-58c-.43 0-.87-.07-1.31-.07h-48.59l-33.08 33.09c-6.904 6.904-6.904 18.096 0 25 6.903 6.904 18.096 6.904 25 0l-.02-.02z" fill="#FFD900" fill-rule="nonzero"/></g><g transform="translate(4 -8)"><path d="M94.534 112.529c-2.085-2.446-3.008-5.769-2.188-9 1.34-5.283 6.838-8.32 12.278-6.782a10.68 10.68 0 0 1 6.342 4.92c2.247-1.293 5.042-1.701 7.822-.915 5.44 1.538 8.764 7.068 7.423 12.352-.762 3-2.862 5.275-5.532 6.4l-12.904 6.432c-1.783.889-3.94.298-5.088-1.395l-8.153-12.012zM76.211 124.665c-1.838-.582-3.365-1.979-3.975-3.883-.997-3.115.834-6.408 4.092-7.355a6.408 6.408 0 0 1 4.79.487c.733-1.373 2.025-2.47 3.69-2.953 3.257-.947 6.707.81 7.704 3.925.567 1.769.221 3.594-.78 5.016l-4.52 7.375c-.625 1.02-1.91 1.404-3.033.908l-7.968-3.52z" fill="#FF9600" fill-rule="nonzero"/><path d="M75.313 119.703a4.046 4.046 0 0 1 .732-2.732" stroke="#FFB100" stroke-width="2.745" stroke-linecap="round" stroke-linejoin="round" fill-rule="nonzero"/><path d="M20.428 32.033c-3.082-1.067-5.531-3.46-6.35-6.64-1.339-5.2 2.192-10.53 7.886-11.905 2.91-.703 5.822-.237 8.152 1.08 1.419-2.223 3.764-3.958 6.673-4.66 5.695-1.376 11.396 1.723 12.735 6.923.76 2.952-.049 5.945-1.932 8.234l-8.625 11.914c-1.192 1.646-3.44 2.207-5.305 1.324l-13.234-6.27z" fill="#FF9600" fill-rule="nonzero"/><path d="M18.65 23.794c-.206-1.803.456-3.49 1.742-4.87M96.74 106.429c-.206-1.803.456-3.49 1.742-4.87" stroke="#FFB100" stroke-width="3.996" stroke-linecap="round" stroke-linejoin="round" fill-rule="nonzero"/><rect fill="#E27903" transform="matrix(-1 0 0 1 169.26 0)" x="55.93" y="12.076" width="57.4" height="44.1" rx="22.05"/><rect fill="#E27903" transform="matrix(-1 0 0 1 200.06 0)" x="71.33" y="12.076" width="57.4" height="17.5" rx="8.75"/><rect fill="#E27903" transform="scale(-1 1) rotate(-30 0 424.748)" x="81.22" y="22.751" width="48.3" height="17.5" rx="8.75"/><path d="M85.68 20.476c-15.224 0-27.565 12.341-27.565 27.565v27.857a12.6 12.6 0 0 0 8.725 11.989l14.75 4.767a13.3 13.3 0 0 0 8.18 0l14.75-4.767a12.6 12.6 0 0 0 8.725-11.99V48.042c0-15.224-12.341-27.565-27.565-27.565z" fill="#E27903"/><path d="M85.68 29.576c-13.338 0-24.15 10.812-24.15 24.15v27.792a12.6 12.6 0 0 0 8.46 11.9l11.32 3.938a13.3 13.3 0 0 0 8.74 0l11.32-3.937a12.6 12.6 0 0 0 8.46-11.9V53.725c0-13.338-10.812-24.15-24.15-24.15z" fill="#FFB100"/><path d="M111.93 62.308l-4.198-1.125c-5.788-1.55-11.737 1.884-13.288 7.672-1.551 5.789 1.884 11.738 7.672 13.289l4.198 1.125c5.788 1.55 11.738-1.884 13.289-7.672 1.55-5.788-1.884-11.738-7.672-13.289zM61.885 62.898l4.198-1.125c5.788-1.55 11.738 1.884 13.289 7.672 1.55 5.788-1.884 11.738-7.672 13.289L67.5 83.859c-5.788 1.55-11.737-1.884-13.288-7.672-1.551-5.788 1.884-11.738 7.672-13.289z" fill="#FFB100"/><path d="M73.78 53.376a7.35 7.35 0 0 0-7.35 7.35v4.9a7.35 7.35 0 1 0 14.7 0v-4.9a7.35 7.35 0 0 0-7.35-7.35z" fill="#FFF1A2"/><rect fill="#E27903" transform="matrix(-1 0 0 1 151.7 0)" x="72.7" y="59.376" width="6.3" height="11" rx="3.15"/><path d="M98.28 53.376a7.35 7.35 0 0 0-7.35 7.35v4.9a7.35 7.35 0 0 0 14.7 0v-4.9a7.35 7.35 0 0 0-7.35-7.35z" fill="#FFF1A2"/><rect fill="#E27903" transform="matrix(-1 0 0 1 191.7 0)" x="92.7" y="59.376" width="6.3" height="11" rx="3.15"/><rect fill="#E27903" transform="scale(-1 1) rotate(-52 0 252.249)" x="75" y="32.317" width="56" height="17.5" rx="8.75"/><rect fill="#FF9600" transform="matrix(-1 0 0 1 172.06 0)" x="83.23" y="53.376" width="5.6" height="21.7" rx="2.8"/><path d="M103.62 88.018l-18.178-8.477a23.462 23.462 0 0 1 23.056-10.067l.47.073-5.347 18.471zM66.955 88.018l18.178-8.477a23.462 23.462 0 0 0-23.056-10.067l-.47.073 5.348 18.471z" fill="#FFB100"/><path d="M83.458 48.365L71.662 32.712A8.75 8.75 0 1 1 85.638 22.18l11.796 15.654a8.75 8.75 0 1 1-13.976 10.531z" fill="#E27903"/><circle fill="#FCA527" cx="101" cy="79.376" r="8"/><circle fill="#FCA527" cx="68" cy="79.376" r="8"/><rect fill="#E27903" x="109" y="76.376" width="4" height="15" rx="2"/><path d="M84.04 82.37c2.814.732 6.601.165 8.86-2.259" stroke="#FFF1A2" stroke-width="8" stroke-linecap="round" stroke-linejoin="round"/><rect fill="#E27903" transform="matrix(-1 0 0 1 70.3 0)" x="7.5" y="44.876" width="55.3" height="50.4" rx="25.2"/><rect fill="#FF9600" transform="scale(-1 1) rotate(-21 0 456.034)" x="58.181" y="97.976" width="12.6" height="20.3" rx="6.3"/><rect fill="#FF9600" transform="rotate(-21 10.581 108.126)" x="4.281" y="97.976" width="12.6" height="20.3" rx="6.3"/><rect fill="#E27903" transform="matrix(-1 0 0 1 51.4 0)" x=".5" y="41.376" width="50.4" height="17.5" rx="8.75"/><rect fill="#E27903" transform="matrix(-1 0 0 1 51.4 0)" x=".5" y="56.076" width="50.4" height="17.5" rx="8.75"/><path d="M43 41.376h-5v48h27v-26c0-12.15-9.85-22-22-22z" fill="#E27903"/><rect fill="#FFB100" transform="matrix(-1 0 0 1 74.705 0)" x="9.094" y="59.476" width="56.517" height="57.4" rx="27.914"/><rect fill="#FF9600" transform="matrix(-1 0 0 1 75.2 0)" x="12.4" y="73.576" width="50.4" height="57.4" rx="24.5"/><rect fill="#E27903" transform="scale(-1 1) rotate(35 0 -53.245)" x="17.039" y="53.39" width="37.8" height="14.7" rx="7.35"/><rect fill="#E27903" transform="matrix(-1 0 0 1 53.46 0)" x="19.38" y="82.376" width="14.7" height="19.6" rx="7.35"/><rect fill="#FFF1A2" transform="matrix(-1 0 0 1 53.46 0)" x="19.38" y="85.176" width="14.7" height="19.6" rx="7.35"/><rect fill="#E27903" transform="matrix(-1 0 0 1 59.66 0)" x="26.68" y="87.843" width="6.3" height="10.267" rx="3.15"/><rect fill="#E27903" transform="matrix(-1 0 0 1 95.46 0)" x="40.38" y="82.376" width="14.7" height="19.6" rx="7.35"/><rect fill="#FFF1A2" transform="matrix(-1 0 0 1 95.46 0)" x="40.38" y="85.176" width="14.7" height="19.6" rx="7.35"/><rect fill="#E27903" transform="matrix(-1 0 0 1 95.26 0)" x="44.48" y="87.376" width="6.3" height="10.267" rx="3.15"/><rect fill="#E27903" transform="matrix(-1 0 0 1 74.477 0)" x="35.489" y="90.356" width="3.5" height="15.4" rx="1.75"/><path d="M20.313 98.423l-5.325.67a2 2 0 0 0-1.482 2.985l7.994 13.846 17.483-10.093-3.867-3.157a19.547 19.547 0 0 0-14.803-4.251z" fill="#FF9600"/><path d="M54.653 98.423l5.325.67a2 2 0 0 1 1.482 2.985l-7.995 13.846-17.482-10.093 3.866-3.157a19.547 19.547 0 0 1 14.804-4.251z" fill="#FF9600"/><path d="M35.606 99.574h3.159a2.8 2.8 0 0 1 2.544 1.631l1.93 4.2a2.8 2.8 0 0 1-2.546 3.969h-7.016a2.8 2.8 0 0 1-2.544-3.969l1.928-4.2a2.8 2.8 0 0 1 2.545-1.631z" fill="#E27903"/><path d="M46.3 113.166c-1.348 3.338-5.32 6.693-9.14 6.693-3.815 0-7.782-3.348-9.135-6.677-.211-.521 4.869 1.01 9.135 1 4.383-.011 9.356-1.55 9.14-1.016z" fill="#F18205"/><path d="M28 113.047l9.1 2.456 9.355-2.456-4.518-1.21a4.036 4.036 0 0 0-3.31.558l-1.116.758a.7.7 0 0 1-.81-.017l-1.001-.74a3.61 3.61 0 0 0-3.082-.586L28 113.047z" fill="#E27903"/><rect fill="#F18205" x="48" y="101.376" width="13" height="9" rx="4.5"/><rect fill="#F18205" x="14" y="101.376" width="13" height="9" rx="4.5"/></g></g></svg>