<svg id="Layer_3" data-name="Layer 3" xmlns="http://www.w3.org/2000/svg" viewBox="0 0 135 124"><defs><style>.cls-1{fill:#ffb100}.cls-2{fill:#ffc800}.cls-3{fill:#ffd900}.cls-4{fill:#f89700}.cls-5{fill:#ffe75e}</style></defs><path class="cls-1" d="M123.25 28v79.21a17 17 0 0 1-2.85 9.22 17.09 17.09 0 0 1-14.15 7.57h-79a17 17 0 0 1-17-16.79V28a17 17 0 0 1 9.58-15.29A16.79 16.79 0 0 1 27.25 11h79a16.79 16.79 0 0 1 6.16 1.16 15.14 15.14 0 0 1 1.83.84 17 17 0 0 1 9 15z"/><path class="cls-2" d="M123.25 107.21a17 17 0 0 1-2.85 9.22 17.09 17.09 0 0 1-14.15 7.57h-79a17 17 0 0 1-17-16.79z"/><circle class="cls-3" cx="39.39" cy="63.94" r="37.12"/><path class="cls-4" d="M9.86 65.73A1.94 1.94 0 0 0 7 67.65a33.39 33.39 0 0 0 66.48-1.32c.09-1.34-.41-2.47-1.75-2.46-5 .05-16.78 1.67-33.22 7.55C27.33 75.43 15.74 69 9.86 65.73z"/><path class="cls-1" d="M70.88 64.07A1.94 1.94 0 0 1 73.74 66C71.88 82.67 60 97.51 40.14 97.29a33.53 33.53 0 0 1-33.3-31 2.31 2.31 0 0 1 2.31-2.47c5 0 16.22 1.68 32.66 7.56C53 75.43 65 67.35 70.88 64.07z"/><path class="cls-5" d="M12.52 59.18a3.71 3.71 0 0 1-3.45-5.1 41.16 41.16 0 0 1 22.29-22.56 3.72 3.72 0 0 1 2.85 6.87A33.63 33.63 0 0 0 16 56.85a3.71 3.71 0 0 1-3.48 2.33z"/><rect class="cls-4" x="1.65" y="86.64" width="74.78" height="8.34" rx="4.17" ry="4.17"/><path class="cls-3" transform="rotate(39.43 65.877 34.538)" d="M57.21 23.94h17.33v21.2H57.21z"/><rect class="cls-3" x="61.17" y="23.46" width="23.3" height="5.54" rx="2.77" ry="2.77" transform="matrix(.78 .62 -.62 .78 31.95 -39.5)"/><rect class="cls-4" x="8.94" y="91.04" width="5.18" height="28.24" rx="2.59" ry="2.59" transform="rotate(-159.54 11.523 105.158)"/><rect class="cls-4" x="64.35" y="91.04" width="5.18" height="28.24" rx="2.59" ry="2.59" transform="rotate(-20.46 66.93 105.169)"/><path class="cls-3" d="M115.59 35.32h-11.45a2.82 2.82 0 0 1 0-5.64h11.27a9.92 9.92 0 0 0 0-19.83h-13.09a1 1 0 0 1-1-1 8.8 8.8 0 0 0-8.8-8.8H91.1A8.78 8.78 0 0 0 84 3.73l-9.88 13.8a1.13 1.13 0 0 1 .31.21c1.33 1.32 2.71 2.57 4.05 3.86.25.25.52.5.8.75L89.64 7.8a1.8 1.8 0 0 1 1.46-.75h1.42a1.8 1.8 0 0 1 1.8 1.79 8 8 0 0 0 8 8h13.09a2.92 2.92 0 0 1 0 5.83h-11.27a9.82 9.82 0 0 0 0 19.64h11.45a2.92 2.92 0 0 1 2.92 2.92v.18a2.92 2.92 0 0 1-2.92 2.92h-10.26a11 11 0 0 0-11 11v1.58a3.5 3.5 0 1 0 7 0v-1.56a4 4 0 0 1 4-4h10.26a9.93 9.93 0 0 0 9.92-9.92v-.18a9.93 9.93 0 0 0-9.92-9.93z"/><path class="cls-4" transform="rotate(38.14 76.472 21.396)" d="M68.74 18.26h15.47v6.28H68.74z"/><circle class="cls-4" cx="17.07" cy="72.85" r="2.85"/><circle class="cls-4" cx="62.32" cy="76.85" r="2.85"/><circle class="cls-4" cx="29.86" cy="77.58" r="5.78"/><circle class="cls-2" cx="46.4" cy="61.02" r="3.11"/><path class="cls-3" d="M115.4 115.06l-12.05-23.77V83H92.47v8.27l-12 23.77A2 2 0 0 0 82.2 118h31.42a2 2 0 0 0 1.78-2.94z"/><path class="cls-1" d="M82.93 114.07a1.7 1.7 0 0 0 1.52 2.47h26.92a1.7 1.7 0 0 0 1.53-2.47l-6.9-13.6a1.48 1.48 0 0 0-1.32-.82H91.15a1.48 1.48 0 0 0-1.33.82z"/><rect class="cls-3" x="90.81" y="78.89" width="14.21" height="4.48" rx="1.57" ry="1.57"/><circle class="cls-2" cx="94.61" cy="104.34" r="2.37"/><circle class="cls-2" cx="102.69" cy="109.53" r="4.31"/><rect class="cls-5" x="98.63" y="83.46" width="2.77" height="14.3" rx="1.39" ry="1.39"/><rect class="cls-5" x="62.26" y="25.18" width="3.76" height="8.57" rx="1.88" ry="1.88" transform="rotate(37.01 64.151 29.463)"/><path class="cls-3" d="M100.93 72.9a2.69 2.69 0 0 1-5.38 0c0-1.49 1.2-5.45 2.69-5.45s2.69 3.96 2.69 5.45z"/><circle class="cls-1" cx="114.49" cy="51.93" r="1.63"/><circle class="cls-1" cx="119.05" cy="50.87" r="1.63"/><path class="cls-1" d="M97.74 62.39a1.45 1.45 0 0 1-1.45-1.46V59.7a9 9 0 0 1 8.93-9.05h4.85a1.45 1.45 0 0 1 0 2.9h-4.85a6.1 6.1 0 0 0-6 6.15v1.23a1.45 1.45 0 0 1-1.48 1.46z"/><circle class="cls-2" cx="52.07" cy="44.35" r="5.82"/><circle class="cls-2" cx="33.32" cy="51.02" r="5.82"/></svg>