<svg viewBox="0 0 136 125" fill="none" xmlns="http://www.w3.org/2000/svg"><rect x="12.34" y="11.027" width="113" height="113" rx="17" fill="#E5E5E5"/><path d="M36.051 27.073c-.234.053-.47.1-.71.139-6.21 1.015-12.053-3.115-13.052-9.224-1-6.11 3.224-11.886 9.433-12.901 6.207-1.015 12.05 3.115 13.049 9.225.039.24.07.478.093.717l.025-.004c5.814-.951 11.299 3.004 12.251 8.829l.259 1.583-21.055 3.442-.258-1.582c-.013-.075-.024-.15-.035-.224z" fill="#959595"/><path d="M67.071 21.84l-39.968 6.536c-7.489 1.225-12.567 8.289-11.343 15.778l4.35 26.597c1.224 7.489 8.288 12.567 15.778 11.343l39.967-6.536c7.49-1.225 12.568-8.289 11.343-15.778L82.85 33.184c-1.224-7.49-8.288-12.568-15.778-11.343z" fill="#D1D1D1"/><path fill-rule="evenodd" clip-rule="evenodd" d="M52.162 57.83a3.349 3.349 0 0 0 2.76-3.848c-.3-1.827-4.307-5.608-4.307-5.608s-2.594 4.86-2.295 6.688a3.348 3.348 0 0 0 3.842 2.769z" fill="#959595"/><path d="M61.813 67.754c4.834-2.18 7.372-7.36 6.41-12.348-.274-1.426-1.868-2.017-3.192-1.42l-15.67 7.072c-1.324.597-1.935 2.182-1.048 3.332 3.105 4.022 8.667 5.545 13.5 3.364z" fill="#959595"/><path d="M67.724 61.42a11.192 11.192 0 0 1-5.91 6.334 11.191 11.191 0 0 1-8.661.24 11.192 11.192 0 0 1 5.91-6.335 11.191 11.191 0 0 1 8.661-.24z" fill="#BFBFBF"/><path d="M22.933 29.766c-5.098 2.674-8.154 8.395-7.174 14.388l1.663 10.17 1.25-.204a8.136 8.136 0 0 0 6.716-9.342l-2.455-15.012zM71.466 21.83c5.684.911 10.403 5.36 11.383 11.354l1.663 10.17-1.25.204a8.136 8.136 0 0 1-9.342-6.716L71.466 21.83z" fill="#959595"/><path d="M31.412 44.652l.68 4.154a8.525 8.525 0 1 0 16.825-2.751l-.45-2.755-17.055 1.352zM51.486 43.06l.41 2.508a8.525 8.525 0 0 0 16.826-2.752l-.181-1.107-17.055 1.352z" fill="#fff"/><path d="M38.465 44.093l.582 3.561a3.827 3.827 0 1 0 7.554-1.235l-.48-2.933-7.656.607zM54.374 42.832l.369 2.256a3.827 3.827 0 1 0 7.554-1.235l-.266-1.628-7.657.607z" fill="#959595"/><path d="M87.256 49.492a6.057 6.057 0 1 0-1.955-11.954 6.057 6.057 0 0 0 1.955 11.954zM16.446 61.241a6.057 6.057 0 1 0-1.955-11.955 6.057 6.057 0 0 0 1.955 11.955z" fill="#D1D1D1"/><path fill-rule="evenodd" clip-rule="evenodd" d="M81.095 63.776c9.12 0 16.512 7.393 16.512 16.513v15.523c0 9.12-7.392 16.513-16.512 16.513-9.12 0-16.513-7.393-16.513-16.513V80.29c0-9.12 7.393-16.513 16.513-16.513z" fill="#BFBFBF"/><path fill-rule="evenodd" clip-rule="evenodd" d="M113.033 103.928c-2.36 8.809-11.415 14.037-20.223 11.677l-15.419-4.132c-8.809-2.36-14.036-11.415-11.676-20.223 2.36-8.81 11.415-14.037 20.224-11.676l15.418 4.13c8.809 2.361 14.036 11.416 11.676 20.224z" fill="#BFBFBF"/><path fill-rule="evenodd" clip-rule="evenodd" d="M72.642 116.158a2.654 2.654 0 0 0 2.654-2.654V94.266a2.654 2.654 0 0 0-5.308 0v19.238a2.654 2.654 0 0 0 2.654 2.654zM79.867 116.158a2.654 2.654 0 0 0 2.653-2.654V94.266a2.654 2.654 0 0 0-5.307 0v19.238a2.654 2.654 0 0 0 2.654 2.654zM98.92 113.504a2.654 2.654 0 0 0-2.654-2.654h-9.178a2.654 2.654 0 0 0 0 5.308h9.178a2.654 2.654 0 0 0 2.654-2.654z" fill="#BFBFBF"/><path d="M96.592 99.162H113.6v10.086a6.923 6.923 0 0 1-6.922 6.923H96.592V99.162z" fill="#BFBFBF"/><path d="M95.226 95.479a3.66 3.66 0 0 1 0-5.175l6.497-6.497a16.427 16.427 0 0 1 6.601 3.748l-7.923 7.924a3.66 3.66 0 0 1-5.175 0zM110.127 89.529l-7.838 7.838a3.66 3.66 0 0 0 5.175 5.175l5.864-5.865a16.574 16.574 0 0 0-3.201-7.148z" fill="#959595"/><path fill-rule="evenodd" clip-rule="evenodd" d="M126.135 92.324a3.362 3.362 0 0 1 3.362 3.362v3.87c0 9.176-7.438 16.615-16.614 16.615H93.499a3.363 3.363 0 0 1 0-6.725h19.384c5.462 0 9.889-4.428 9.889-9.89v-3.87a3.363 3.363 0 0 1 3.363-3.362zM80.929 59.784l-2.983 4.492 8.975 1.105-1.804-5.081a2.359 2.359 0 0 0-4.188-.516z" fill="#BFBFBF"/><path fill-rule="evenodd" clip-rule="evenodd" d="M87.608 61.535L83.69 65.24l6.296 3.119 2.2-.024-.614-5.357a2.359 2.359 0 0 0-3.965-1.444z" fill="#BFBFBF"/><path fill-rule="evenodd" clip-rule="evenodd" d="M71.194 80.019h8.11a4.747 4.747 0 1 1 0 9.493h-8.11a4.747 4.747 0 0 1 0-9.493z" fill="#fff"/><path fill-rule="evenodd" clip-rule="evenodd" d="M71.79 82.91l-.936-.966a.902.902 0 0 1 .647-1.53h1.874a.902.902 0 0 1 .647 1.53l-.936.966a.902.902 0 0 1-1.275.02l-.02-.02z" fill="#959595"/><path d="M73.072 78.436a2.472 2.472 0 1 0 0-4.944 2.472 2.472 0 0 0 0 4.944z" fill="#959595"/><path d="M77.424 78.436a2.472 2.472 0 1 0 0-4.944 2.472 2.472 0 0 0 0 4.944z" fill="#959595"/></svg>