<svg viewBox="0 0 135 124" version="1.1" xmlns="http://www.w3.org/2000/svg"><g stroke="none" stroke-width="1" fill="none" fill-rule="evenodd"><path d="M28 11h79c9.389 0 17 7.611 17 17v79c0 9.389-7.611 17-17 17H28c-9.389 0-17-7.611-17-17V28c0-9.389 7.611-17 17-17z" fill="#FFAADE"/><g transform="translate(11 5)"><g><rect fill="#CD7900" x="7" y="0" width="70" height="68" rx="2"/><rect stroke="#A56644" stroke-width="2" fill="#CD7900" x="11" y="4" width="62" height="60" rx="2"/><rect fill="#FFF" x="16" y="8" width="52" height="52" rx="2"/><path d="M83.282 108h14.436c.446 0 .607.046.77.134.163.087.291.215.378.378.088.163.134.324.134.77v5.436c0 .446-.046.607-.134.77a.909.909 0 0 1-.378.378c-.163.088-.324.134-.77.134H83.282c-.446 0-.607-.046-.77-.134a.909.909 0 0 1-.378-.378c-.088-.163-.134-.324-.134-.77v-5.436c0-.446.046-.607.134-.77a.909.909 0 0 1 .378-.378c.163-.088.324-.134.77-.134zM83.282 13h14.436c.446 0 .607.046.77.134.163.087.291.215.378.378.088.163.134.324.134.77v5.436c0 .446-.046.607-.134.77a.909.909 0 0 1-.378.378c-.163.088-.324.134-.77.134H83.282c-.446 0-.607-.046-.77-.134a.909.909 0 0 1-.378-.378c-.088-.163-.134-.324-.134-.77v-5.436c0-.446.046-.607.134-.77a.909.909 0 0 1 .378-.378c.163-.088.324-.134.77-.134z" fill="#FFF"/><rect fill="#CD7900" x="30" y="16" width="23" height="37" rx="10.5"/><path d="M41.6 16a9.6 9.6 0 0 1 9.6 9.6v1.47a3.501 3.501 0 0 1-.698 6.93 9.603 9.603 0 0 1-8.902 6 9.603 9.603 0 0 1-8.902-6H32.5a3.5 3.5 0 0 1-.5-6.964V25.6a9.6 9.6 0 0 1 9.6-9.6z" fill="#FFC1C1"/><path d="M34 42h15a8 8 0 0 1 8 8v7a1 1 0 0 1-1 1H27a1 1 0 0 1-1-1v-7a8 8 0 0 1 8-8z" fill="#FFAADE"/><rect fill="#A56644" x="42.872" y="24" width="4" height="7" rx="2"/><rect fill="#A56644" x="35.872" y="24" width="4" height="7" rx="2"/><path d="M39.379 34.5a3 3 0 0 0 4.242 0" stroke="#DA7C66" stroke-width="2" stroke-linecap="round"/><path d="M70 73a6 6 0 0 1 6 6v40H17c-9.389 0-17-7.611-17-17V73h70z" fill="#9069CD"/><path d="M65 80a4 4 0 0 1 4 4v34.999L17 119c-9.389 0-17-7.611-17-17V80h65z" fill="#47D7FF"/></g><path d="M113 26v77H89a6 6 0 0 1-6-6V32a6 6 0 0 1 6-6h24z" fill="#1CB0F6"/><path d="M113 33v63H92a2 2 0 0 1-2-2V35a2 2 0 0 1 2-2h21z" fill="#FFF"/><path d="M99.177 72.39l-.984.173a1 1 0 0 0-.812 1.158l.174.985a8 8 0 0 0 9.268 6.49l.984-.174a1 1 0 0 0 .812-1.159l-.174-.985a8 8 0 0 0-9.268-6.489z" fill="#78C800" fill-rule="nonzero"/><path d="M113 73.042v8.148a7.984 7.984 0 0 1-2.823.005l-.984-.173a1 1 0 0 1-.812-1.159l.174-.985a7.99 7.99 0 0 1 4.444-5.836z" fill="#78C800"/><rect fill="#78C800" x="107" y="58" width="3" height="31" rx="1.5"/><path d="M97 87h16v6H97a3 3 0 0 1 0-6z" fill="#78C800"/><path d="M36.124 90.392l3.128 5.419a8.503 8.503 0 0 1 13.534 8.594 3.499 3.499 0 0 1-.286 6.987h-43a3.5 3.5 0 0 1 0-7l4.687.001-.08-.135c-3.59-6.217-1.459-14.168 4.759-17.758l.866-.5c5.74-3.314 13.079-1.347 16.392 4.392z" fill="#DDF4FF"/><path d="M36.894 83.683a2 2 0 0 1 .895.895l8.764 17.528a2 2 0 0 1-1.79 2.894h-.576l2.509 4.896 6.032-11.514a2 2 0 0 1 3.544 0l6.194 11.824a2 2 0 0 1-1.708 2.927L63.356 119H21.638l7.175-14h-1.577a2 2 0 0 1-1.789-2.894l8.764-17.528a2 2 0 0 1 2.683-.895z" fill="#58A700"/><path d="M49.114 14.123l1.197 3.288 2.82-1.025a2 2 0 1 1 1.368 3.759l-27.252 9.918a2 2 0 1 1-1.368-3.758l2.819-1.027L27.5 21.99a6.5 6.5 0 0 1 3.885-8.332l9.397-3.42a6.5 6.5 0 0 1 8.331 3.885z" fill="#9069CD"/></g><path d="M119.597 49.018c2.013 0 3.68 1.48 3.972 3.412.138-.101.282-.194.43-.277v19.73a3.994 3.994 0 0 1-.432-.278 4.017 4.017 0 0 1-7.942-.001 4.017 4.017 0 0 1-5.615-5.617 4.017 4.017 0 0 1 0-7.942 4.017 4.017 0 0 1 5.617-5.615 4.017 4.017 0 0 1 3.97-3.413z" fill="#FFCA00"/><path d="M119.5 57c1.86 0 3.505.924 4.5 2.337v6.326A5.5 5.5 0 1 1 119.5 57z" fill="#A56644"/></g></svg>