<svg viewBox="0 0 135 124" fill="none" xmlns="http://www.w3.org/2000/svg"><g clip-path="url(#clip0)"><path fill-rule="evenodd" clip-rule="evenodd" d="M28 11h79c9.389 0 17 7.611 17 17v79c0 9.389-7.611 17-17 17H28c-9.389 0-17-7.611-17-17V28c0-9.389 7.611-17 17-17z" fill="#A2A2A2"/><path d="M35.028 106.392c5.786-4.204 7.068-12.301 2.865-18.087-4.204-5.786-12.302-7.068-18.087-2.865l-8.173 5.938c-5.786 4.204-7.068 12.302-2.865 18.087 4.204 5.786 12.302 7.068 18.087 2.865l8.173-5.938z" fill="#D1D1D1"/><path d="M20.9 92.963a6 6 0 1 0 11.346-3.907l-2.78-8.074A6 6 0 1 0 18.12 84.89l2.78 8.074z" fill="#DFDFDF"/><path fill-rule="evenodd" clip-rule="evenodd" d="M106.912 92.286l7.322 29.365c.055.222.091.445.11.667a16.93 16.93 0 0 1-7.344 1.664H31.878l-3.05-12.228c-4.596-18.437 6.624-37.109 25.06-41.706l11.318-2.822c18.437-4.596 37.109 6.623 41.706 25.06z" fill="#D1D1D1"/><path fill-rule="evenodd" clip-rule="evenodd" d="M32.755 85.176l10.716 42.977a3.145 3.145 0 0 1-2.291 3.813l-7.367 1.836-5.435-21.8c-2.379-9.54-.523-19.143 4.377-26.826zM107.384 92.633l5.039 20.211a3.146 3.146 0 0 1-2.283 2.259l-37.007 9.227a3.146 3.146 0 0 1-3.813-2.292L57.46 74.476l26.224-6.539c11.326 3.333 20.637 12.413 23.699 24.696z" fill="#B2B2B2"/><path fill-rule="evenodd" clip-rule="evenodd" d="M48.496 93.961a3.235 3.235 0 1 1 1.565 6.278 3.235 3.235 0 0 1-1.565-6.278zm8.651-19.635l1.146 4.598a7.012 7.012 0 0 1-11.521 6.884 7.012 7.012 0 0 1-13.404-.67l-.11-.434c4.533-7.107 11.67-12.572 20.466-14.825a6.996 6.996 0 0 1 3.423 4.447z" fill="#fff"/><path d="M31.69 23.916c5.515-1.686 8.626-7.497 6.95-12.979-1.676-5.482-7.505-8.56-13.019-6.874-5.514 1.686-8.625 7.497-6.949 12.979 1.676 5.482 7.505 8.56 13.019 6.874z" fill="#B2B2B2"/><mask id="a" mask-type="alpha" maskUnits="userSpaceOnUse" x="16" y="19" width="68" height="51"><path d="M31.38 27.603L55.17 20.33c11.388-3.481 23.442 2.928 26.923 14.316 3.482 11.387-2.927 23.441-14.315 26.923l-23.792 7.274C32.6 72.323 20.546 65.914 17.064 54.526 13.583 43.14 19.992 31.085 31.38 27.604z" fill="#fff"/></mask><g mask="url(#a)"><path d="M31.38 27.603L55.17 20.33c11.388-3.481 23.442 2.928 26.923 14.316 3.482 11.387-2.927 23.441-14.315 26.923l-23.792 7.274C32.6 72.323 20.546 65.914 17.064 54.526 13.583 43.14 19.992 31.085 31.38 27.604z" fill="#B2B2B2"/><path d="M96.94 32.956L2.452 61.843 8.1 80.309l94.486-28.887-5.646-18.466z" fill="#D1D1D1"/></g><path fill-rule="evenodd" clip-rule="evenodd" d="M45.944 31.809c7.36-2.25 14.947-5.164 21.13-1.605 2.22 1.277 4.258 6.873 6.041 8.748a26.59 26.59 0 0 1 6.169 10.584l5.841 19.107L34.06 84.255l-5.842-19.107c-4.311-14.101 3.625-29.028 17.727-33.34z" fill="#DFDFDF"/><path d="M65.064 23.956L27.768 35.358l1.86 6.083 37.295-11.403-1.86-6.082z" fill="#B2B2B2"/><path fill-rule="evenodd" clip-rule="evenodd" d="M57.121 56.877c1.426-.436 2.225-1.958 1.785-3.4-.441-1.44-4.065-4.06-4.065-4.06s-1.54 4.198-1.1 5.64c.441 1.44 1.954 2.256 3.38 1.82z" fill="silver"/><path d="M70.978 42.03a.592.592 0 0 1 .825.845l-.07.067-2.546 2.107 3.328.406a.592.592 0 0 1 .52.564l-.004.096a.592.592 0 0 1-.563.52l-.096-.004-4.693-.573a.593.593 0 0 1-.378-.974l.072-.07 3.605-2.984zM36.413 52.597a.592.592 0 0 0-.21 1.162l.094.017 3.29.323-2.532 2.198a.593.593 0 0 0-.116.758l.057.077a.592.592 0 0 0 .758.116l.077-.057 3.57-3.099a.593.593 0 0 0-.23-1.019l-.1-.018-4.658-.458z" fill="#B2B2B2"/><path fill-rule="evenodd" clip-rule="evenodd" d="M24.274 37.932l5.074-1.551a5.627 5.627 0 0 1 7.027 3.736l1.55 5.074a5.627 5.627 0 0 1-3.735 7.026l-10.455 3.197-3.197-10.456a5.627 5.627 0 0 1 3.736-7.026zM67.821 23.991l.56-.17a5.627 5.627 0 0 1 7.027 3.735l1.726 5.648a5.627 5.627 0 0 1-3.736 7.026l-.56.172a5.627 5.627 0 0 1-7.026-3.736l-1.727-5.648a5.627 5.627 0 0 1 3.736-7.027z" fill="#B2B2B2"/><path d="M44.26 42.005c4.607-3.808 9.733-5.375 15.269-4.642a1.8 1.8 0 0 1-.473 3.569c-4.52-.599-8.65.664-12.502 3.848a1.8 1.8 0 1 1-2.294-2.775z" fill="#B2B2B2"/><path d="M54.013 58.348a6.879 6.879 0 0 0-4.403-1.902 6.8 6.8 0 0 0-4.699 1.553 6.89 6.89 0 0 0-2.474 4.674 6.972 6.972 0 0 0 1.533 5.075c2.057 2.53 4.63 4.126 7.572 4.851 2.96.73 6.308.571 9.89-.456a6.828 6.828 0 0 0 4.12-3.3 6.946 6.946 0 0 0 .58-5.265 6.78 6.78 0 0 0-3.368-4.164c-1.542-.813-3.443-1.07-5.426-.534-.222.059-.436.11-.642.152-1.007.044-1.913-.259-2.683-.684z" fill="#A2A2A2" stroke="#DFDFDF" stroke-width="2.52"/><mask id="b" mask-type="alpha" maskUnits="userSpaceOnUse" x="46" y="65" width="15" height="7"><path d="M49.599 65.973a8.04 8.04 0 0 1 10.583 5.199c-5.492 1.356-10.348.509-13.911-2.802a7.998 7.998 0 0 1 3.328-2.397z" fill="#fff"/></mask><g mask="url(#b)"><path d="M49.599 65.973a8.04 8.04 0 0 1 10.583 5.199c-5.492 1.356-10.348.509-13.911-2.802a7.998 7.998 0 0 1 3.328-2.397z" fill="#B2B2B2"/></g><path d="M50.966 47.995a1.2 1.2 0 1 1 2.279.754c-1.302 3.932-4.2 5.814-8.386 5.459a1.2 1.2 0 1 1 .202-2.392c3.089.262 4.955-.95 5.905-3.821zM57.5 45.997a1.2 1.2 0 1 0-1.468 1.9c3.278 2.532 6.732 2.471 10.005-.164a1.2 1.2 0 0 0-1.505-1.87c-2.414 1.944-4.64 1.983-7.033.134z" fill="silver"/><path d="M94.58 81.147c2.446-6.72-1.019-14.15-7.739-16.596-6.72-2.446-14.15 1.019-16.596 7.739l-8.928 24.528c-2.446 6.72 1.02 14.151 7.74 16.597 6.72 2.446 14.15-1.019 16.596-7.739l8.927-24.529z" fill="#D1D1D1"/><path d="M27.931 87.131a6 6 0 0 0 9.708-7.053l-5.02-6.91a6 6 0 0 0-9.707 7.054l5.02 6.909z" fill="#DFDFDF"/><path d="M45.09 77.761c-6.839-2.09-14.078 1.758-16.169 8.597-2.09 6.84 1.758 14.078 8.597 16.169l24.962 7.632c6.839 2.091 14.078-1.759 16.169-8.597 2.09-6.84-1.758-14.078-8.597-16.17L45.09 77.762zM96.279 56.962c-3.31-1.18-5.94-3.83-6.817-7.35-1.436-5.757 2.36-11.661 8.478-13.187 3.126-.779 6.254-.264 8.757 1.194 1.525-2.463 4.045-4.386 7.172-5.165 6.118-1.525 12.241 1.905 13.677 7.663.814 3.268-.057 6.584-2.081 9.119l-9.273 13.197a4.534 4.534 0 0 1-5.699 1.468l-14.214-6.939zM80.78 12.36c-1.141-1.788-1.407-3.983-.51-5.907 1.468-3.147 5.49-4.377 8.985-2.748 1.785.833 3.087 2.251 3.738 3.859 1.65-.535 3.574-.45 5.36.383 3.493 1.63 5.136 5.502 3.669 8.65-.833 1.786-2.49 2.954-4.405 3.333l-9.368 2.452a2.868 2.868 0 0 1-3.273-1.497L80.78 12.36zM7.582 68.097c-1.767-.046-3.407-.885-4.318-2.402-1.49-2.48-.466-5.832 2.288-7.487 1.407-.846 2.994-1.084 4.408-.785.4-1.389 1.355-2.678 2.762-3.523 2.754-1.655 6.195-.986 7.685 1.495.846 1.408.882 3.097.25 4.597l-2.67 7.614a2.39 2.39 0 0 1-2.56 1.563l-7.845-1.072z" fill="#D1D1D1"/></g><defs><clipPath id="clip0"><path fill="#fff" d="M0 0h135v124H0z"/></clipPath></defs></svg>