<svg id="Cover" xmlns="http://www.w3.org/2000/svg" viewBox="0 0 135 124"><defs><style>.cls-1{fill:#e5e5e5}.cls-2{fill:#d1d1d1}.cls-3{fill:#61361f}.cls-4{fill:#dc8166}.cls-5{fill:#b2b2b2}.cls-6{fill:#fff}</style></defs><rect id="bg" class="cls-1" x="11" y="11" width="113" height="113" rx="17" ry="17"/><path class="cls-2" d="M115.17 74.18l8.89.11v22.24h-9.16a8.08 8.08 0 0 1-6.36-3.21l-.2-.27a7.83 7.83 0 0 1-1.27-3 7.53 7.53 0 0 1-.17-1.73l.08-6.06a.66.66 0 0 1 0-.14 8 8 0 0 1 2.39-5.53 8 8 0 0 1 5.8-2.41z"/><path class="cls-3" d="M103.34 111.82a2 2 0 0 1-1.06 2.87 12.27 12.27 0 0 1-10.49-22.06z"/><path class="cls-3" d="M110.72 97.68a2 2 0 0 1 1.43 2.7 12.27 12.27 0 0 1-23.43-6.88z"/><path class="cls-4" d="M98 77v24.25a3.33 3.33 0 0 1-.63 0 12.16 12.16 0 1 1 0-24.32A4.43 4.43 0 0 1 98 77z"/><path class="cls-3" d="M31.66 111.82a2 2 0 0 0 1.06 2.87 12.27 12.27 0 0 0 10.49-22.06z"/><path class="cls-3" d="M24.28 97.68a2 2 0 0 0-1.43 2.7 12.27 12.27 0 0 0 23.43-6.88z"/><path class="cls-4" d="M36.16 77v24.25a3.33 3.33 0 0 0 .63 0 12.16 12.16 0 0 0 0-24.32 4.43 4.43 0 0 0-.63.07z"/><path class="cls-5" d="M107.87 65.27v3a19.17 19.17 0 0 1-6.36 14.27l-34.67 31.13-35.12-31.06a18.7 18.7 0 0 1-2.86-3.18 19 19 0 0 1-3.61-11.18v-3A41.31 41.31 0 0 1 107 56.6a40.48 40.48 0 0 1 .87 8.67z"/><path class="cls-2" d="M96.46 97.65V50.2l-29.42-9.59L37.6 56.96l.01 41.56 58.85-.87z"/><rect class="cls-6" x="44.03" y="72.44" width="16.91" height="24.42" rx="8.45" ry="8.45"/><rect class="cls-5" x="46.17" y="76.79" width="7.42" height="12.13" rx="3.71" ry="3.71"/><rect class="cls-6" x="73" y="72.44" width="16.91" height="24.42" rx="8.45" ry="8.45"/><rect class="cls-5" x="74.85" y="76.79" width="7.42" height="12.13" rx="3.71" ry="3.71"/><path class="cls-4" d="M37.6 77v24.25a3.33 3.33 0 0 1-.63 0A12.16 12.16 0 1 1 37 77a4.43 4.43 0 0 1 .6 0z"/><path d="M66.35 100.54a13.61 13.61 0 0 1-9.84-4.38.68.68 0 0 1 1-1c3.73 3.73 8.08 4.87 12.93 3.38a18.58 18.58 0 0 0 6.25-3.41.69.69 0 0 1 1 .06.68.68 0 0 1-.06 1c-.16.06-5.1 4.35-11.28 4.35z" fill="#cf8166"/><path d="M67 77.88a3.81 3.81 0 0 1 3.81 3.81v7A2.83 2.83 0 0 1 68 91.51h-2a2.83 2.83 0 0 1-2.83-2.83v-7a3.81 3.81 0 0 1 3.83-3.8z" fill="#bfbfbf"/><path class="cls-1" d="M37.6 77v24.25a3.33 3.33 0 0 1-.63 0A12.16 12.16 0 1 1 37 77a4.43 4.43 0 0 1 .6 0zM96.45 77v24.25a3.33 3.33 0 0 0 .63 0 12.16 12.16 0 0 0 0-24.32 4.43 4.43 0 0 0-.63.07z"/><path class="cls-5" d="M107 56.6L98.1 43l-14.42-9.85-15.29-4.63c1.11-2.57 4.26-5.77 5.42-6.82a1.85 1.85 0 1 0-2.48-2.7 38.51 38.51 0 0 0-2.92 3v-4a1.85 1.85 0 1 0-3.7 0v10.63l-14.92 4.52L35.37 43 26 57.36a41.12 41.12 0 0 0-.76 7.91v3a19 19 0 0 0 3.61 11.18 34.12 34.12 0 0 0 7.3-1.94V88a1.51 1.51 0 0 0 3 0V76.22c11.15-5.15 22.09-15.31 26.11-25.46.34 10.7 6 16.33 6.28 16.59a1.86 1.86 0 0 0 1.28.51 1.88 1.88 0 0 0 1.33-.56 1.86 1.86 0 0 0 0-2.62c-.2-.19-4.1-4.13-5-11.74 4.71 9.61 15.22 18.9 25.85 23.59V88a1.51 1.51 0 1 0 3 0V77.73c2.38.68 7.57-.18 8-1.11a19.29 19.29 0 0 0 1.88-8.3v-3a40.48 40.48 0 0 0-.88-8.72zM66.73 45.48z"/><path class="cls-2" d="M29.72 88.24a7.78 7.78 0 0 1-.14 1.61 8.13 8.13 0 0 1-1.3 3.08A8 8 0 0 1 27 94.38c-.15.13-.3.26-.46.38a8.06 8.06 0 0 1-4.81 1.66h-5.17l-5.19.06V74.3l10.09-.12a8 8 0 0 1 5.76 2.32c.16.16.31.32.46.49a7.91 7.91 0 0 1 1.36 2.25 5.83 5.83 0 0 1 .25.7 8.24 8.24 0 0 1 .34 2.23z"/><path class="cls-1" d="M28 124h79a17 17 0 0 0 17-17V93.4c-1.32-.31-2.65-.6-4-.88-.28-.07-.55-.13-.83-.18-2.54-.54-5.1-1-7.67-1.49l-1.33-.22a.2.2 0 0 0-.11 0l-.93-.16-1.58-.26h-.54q-3.55-.57-7.15-1l-1.93-.24h-.16l-1.35-.15L95 88.5h-.48c-1.17-.13-2.36-.25-3.54-.35h-.29l-.82-.15c-1.53-.14-3.07-.27-4.61-.38s-3.08-.2-4.63-.27c-2.54-.14-5.11-.22-7.67-.27H60.9c-2 .06-4.06.13-6.07.24s-4 .22-6 .37c-1.24.09-2.47.2-3.7.31h-.3l-.64.06H44l-3 .31-1.93.21-.6.07-.82.1h-.08c-.39 0-.79.09-1.18.15a.17.17 0 0 0-.1 0h-.15c-2.32.28-4.63.61-6.92 1l-.73.11h-.3l-2.13.36q-.57.09-1.14.21t-1.2.21c-2.23.39-4.46.81-6.67 1.27l-.81.17c-1.74.36-3.47.75-5.19 1.15V107A17 17 0 0 0 28 124z"/><path class="cls-2" d="M35.55 95.27a4.57 4.57 0 0 0 1.12-6.38l-8.06-11.11a4.6 4.6 0 0 0-6.39-1.12 4.58 4.58 0 0 0-1.11 6.39l8.06 11.1a4.57 4.57 0 0 0 6.38 1.12z"/><rect class="cls-2" x="17.32" y="82.9" width="9.16" height="17.02" rx="4.58" ry="4.58" transform="rotate(171.16 21.906 91.411)"/><path class="cls-2" d="M39.14 24.25l-5.72-19.4a3.78 3.78 0 0 1 7.26-2.14 3 3 0 0 1 .12.58l2.63 20.05a2.2 2.2 0 0 1-4.29.91zM32.57 32.88L3.54 11.2a5.58 5.58 0 0 1 6.68-8.95 5.47 5.47 0 0 1 .83.76l24.1 27.05a1.92 1.92 0 0 1-2.58 2.82zM26.11 42.22L4.77 39.35a5.11 5.11 0 1 1 2.89-9.67L27.07 39a1.71 1.71 0 0 1-1 3.23z"/><rect class="cls-2" x="7.43" y="84.5" width="9.16" height="17.02" rx="4.58" ry="4.58" transform="rotate(-177.44 12.013 93.013)"/><path class="cls-2" d="M10.42 93.5h3.35l7-19.32H10.42a9.09 9.09 0 0 0-9.09 9.09v1.14a9.09 9.09 0 0 0 9.09 9.09zM101.09 95.27a4.57 4.57 0 0 1-1.09-6.38l8-11.11a4.6 4.6 0 0 1 6.39-1.12 4.58 4.58 0 0 1 1.11 6.39l-8.06 11.1a4.57 4.57 0 0 1-6.35 1.12z"/><rect class="cls-2" x="110.15" y="82.9" width="9.16" height="17.02" rx="4.58" ry="4.58" transform="rotate(8.84 114.76 91.406)"/><rect class="cls-2" x="119.45" y="84.5" width="9.16" height="17.02" rx="4.58" ry="4.58" transform="translate(-4.03 5.63)"/><path class="cls-2" d="M125.25 93.5h-3.34l-7-19.32h10.34a9.09 9.09 0 0 1 9.09 9.09v1.14a9.09 9.09 0 0 1-9.09 9.09z"/></svg>