<svg viewBox="0 0 135 124" fill="none" xmlns="http://www.w3.org/2000/svg"><g clip-path="url(#clip0_122_455)"><path d="M11.84 28c0-9.389 7.61-17 17-17h78.999c9.389 0 17 7.611 17 17v79c0 9.389-7.611 17-17 17h-79c-9.388 0-17-7.611-17-17V28z" fill="#B2B2B2"/><path fill-rule="evenodd" clip-rule="evenodd" d="M75.622 84.074c8.457-.847 6.947-11.404 10.113-11.404 3.166 0 .507 5.434 3.518 5.434 3.01 0 .77-12.916 4.397-12.916 3.628 0 .676 8.5 3.628 8.5 2.951 0 5.166-1.535 5.166 4.425 0 5.961-8.794 11.774-8.794 11.774l-16.696 11.072s-9.79-16.038-1.332-16.885z" fill="#BFBFBF"/><path d="M39.993 91.44a7.033 7.033 0 0 1 7.034-7.033h53.713a7.033 7.033 0 0 1 7.033 7.033v25.96a7.033 7.033 0 0 1-7.033 7.034H47.027a7.034 7.034 0 0 1-7.034-7.034V91.44z" fill="#BFBFBF"/><path d="M38 86.165c0-.97.787-1.758 1.758-1.758h68.649c.971 0 1.759.787 1.759 1.758v2.888c0 .971-.788 1.758-1.759 1.758H39.758A1.758 1.758 0 0 1 38 89.053v-2.888z" fill="#A3A3A3"/><path d="M85.296 64.369a1.978 1.978 0 0 1-1.98 1.976 1.978 1.978 0 1 1 1.98-1.976zM101.125 69.2a1.538 1.538 0 1 1-3.076-.002 1.538 1.538 0 0 1 3.076.002z" fill="#BFBFBF"/><path fill-rule="evenodd" clip-rule="evenodd" d="M90.23 104.92c-3.458 0-6.2 2.767-6.2 6.105 0 3.338 2.742 6.105 6.2 6.105 3.46 0 6.201-2.767 6.201-6.105 0-3.338-2.742-6.105-6.2-6.105zm-13.647 6.105c0-7.519 6.144-13.552 13.648-13.552 7.503 0 13.647 6.033 13.647 13.552 0 7.518-6.144 13.551-13.647 13.551-7.504 0-13.648-6.033-13.648-13.551z" fill="#E5E5E5"/><path d="M88.353 96.947c0-.294.238-.532.532-.532h2.691c.294 0 .532.238.532.532v8.499a.532.532 0 0 1-.532.532h-2.691a.532.532 0 0 1-.532-.532v-8.5zM88.353 116.604c0-.294.238-.532.532-.532h2.691c.294 0 .532.238.532.532v8.499a.532.532 0 0 1-.532.531h-2.691a.532.532 0 0 1-.532-.531v-8.499zM104.308 109.147c.294 0 .532.238.532.532v2.691a.532.532 0 0 1-.532.532h-8.499a.532.532 0 0 1-.532-.532v-2.691c0-.294.239-.532.532-.532h8.499zM84.651 109.147c.294 0 .532.238.532.532v2.691a.532.532 0 0 1-.532.532h-8.498a.532.532 0 0 1-.532-.532v-2.691c0-.294.238-.532.532-.532h8.498z" fill="#fff"/><path fill-rule="evenodd" clip-rule="evenodd" d="M53.282 76.854a1.968 1.968 0 0 1 3.885.63L49.83 122.78a1.968 1.968 0 1 1-3.885-.629l7.337-45.297z" fill="#AAA"/><path d="M53.948 82.406c0-1.105.896-2.002 2.002-2.002H66.3a2.001 2.001 0 0 1 0 4.003H55.95a2.001 2.001 0 0 1-2.002-2.001zM51.556 94.414c0-1.106.896-2.002 2.001-2.002h10.75a2.001 2.001 0 1 1 0 4.003h-10.75a2.001 2.001 0 0 1-2.001-2.001zM49.563 106.422c0-1.106.895-2.002 2-2.002h9.155a2.002 2.002 0 0 1 0 4.003h-9.154a2.001 2.001 0 0 1-2.002-2.001zM47.569 118.43c0-1.106.896-2.002 2.001-2.002h10.35a2.001 2.001 0 0 1 0 4.003H49.57a2.001 2.001 0 0 1-2.001-2.001z" fill="#D8D8D8"/><path fill-rule="evenodd" clip-rule="evenodd" d="M66.04 76.854a1.968 1.968 0 1 1 3.885.63L62.59 122.78a1.969 1.969 0 1 1-3.885-.629l7.336-45.297z" fill="#AAA"/><path d="M4.664 43.02h.002a8.308 8.308 0 0 1 6.633-9.543l38.45-7.347a8.308 8.308 0 0 1 9.685 6.425h.002l7.182 37.592a2.875 2.875 0 0 0 3.364 2.284l5.545-1.06a1.198 1.198 0 0 1 1.401.953c1.215 6.356-2.954 12.495-9.31 13.71l-50.843 9.714c-6.357 1.214-12.495-2.955-13.71-9.311a1.198 1.198 0 0 1 .952-1.402l5.545-1.06a2.875 2.875 0 0 0 2.284-3.363L4.664 43.02z" fill="#BFBFBF"/><path d="M8.987 43.3l46.534-8.89 8.872 46.433-46.534 8.891-8.872-46.433z" fill="#E5E5E5"/><path d="M10.756 64.596a5.228 5.228 0 1 0-1.962-10.27 5.228 5.228 0 0 0 1.962 10.27zM61.727 54.857a5.228 5.228 0 1 0-1.962-10.27 5.228 5.228 0 0 0 1.962 10.27z" fill="#E5E5E5"/><path d="M15.735 90.999a1.437 1.437 0 0 1 1.142-1.682l48.275-9.224a1.438 1.438 0 0 1 1.681 1.142l.914 4.784a1.438 1.438 0 0 1-1.142 1.682l-48.274 9.224a1.438 1.438 0 0 1-1.682-1.142l-.914-4.784z" fill="#979797"/><path d="M6.982 55.043a5.228 5.228 0 0 1 6.911 1.188 5.827 5.827 0 0 0 1.202-4.776l-1.374-7.19-8.489 1.621 1.75 9.157zM55.736 48.243a5.228 5.228 0 0 1 5.976-3.662l-1.749-9.152-8.488 1.622 1.374 7.19a5.827 5.827 0 0 0 2.887 4.002z" fill="#BFBFBF"/><path d="M2.859 41.809A1.438 1.438 0 0 1 4 40.127l54.985-10.506a1.437 1.437 0 0 1 1.681 1.143l.745 3.896a1.438 1.438 0 0 1-1.142 1.681L5.285 46.847a1.437 1.437 0 0 1-1.682-1.142l-.744-3.896z" fill="#979797"/><path d="M34.344 39.95c6.294-1.202 10.422-7.28 9.22-13.574-1.203-6.294-7.28-10.422-13.575-9.219a11.596 11.596 0 0 0-8.666 7.263l-2.606-1.96c-.718-.54-1.756-.294-2.016.565a10.079 10.079 0 0 0-.246 4.814 10.116 10.116 0 0 0 6.341 7.562c2.565 3.504 7 5.419 11.548 4.55z" fill="#BFBFBF"/><path d="M38.623 85.97c.022-.478.37-.878.84-.968l3.104-.593c.47-.09.94.154 1.137.59l3.663 8.1a1.035 1.035 0 0 1-.748 1.444l-7.187 1.373a1.035 1.035 0 0 1-1.228-1.065l.419-8.881z" fill="#fff"/><path d="M35.343 55.021c.122-.023 1.534 1.49 2.982 3.082 1.44 1.586.576 4.124-1.529 4.526-2.104.402-3.843-1.638-3.089-3.643.758-2.015 1.513-3.942 1.636-3.965z" fill="#BFBFBF"/><path d="M37.17 44.69c3.828 1.378 7.866 1.963 11.033 2.145.115.319.206.65.271.993l.747 3.91c.119.621.146 1.239.09 1.838l-12.353 2.36a6.547 6.547 0 0 1-.594-1.74l-.747-3.911a6.534 6.534 0 0 1 1.552-5.595zM20.369 51.776c-.012.46.025.93.115 1.4l.747 3.91a6.55 6.55 0 0 0 .595 1.742l12.352-2.36c.056-.6.03-1.217-.09-1.838l-.746-3.91a6.542 6.542 0 0 0-4.195-4.925c-2.748 2.561-5.973 4.564-8.778 5.98z" fill="#fff"/><path d="M26.767 52.096a2.302 2.302 0 0 0 1.698-3.133c1.5-.121 2.881.904 3.17 2.416l.672 3.518a2.972 2.972 0 0 1-.31 1.987l-4.532.866a2.972 2.972 0 0 1-1.021-1.733l-.672-3.518a3.014 3.014 0 0 1-.052-.445c.33.092.687.11 1.047.042zM43.586 54.67c.32-.586.445-1.281.31-1.987l-.672-3.519a2.985 2.985 0 0 0-3.17-2.415 2.301 2.301 0 0 1-2.745 3.09 3 3 0 0 0 .051.446l.673 3.518a2.972 2.972 0 0 0 1.02 1.733l4.533-.866zM47.695 76.86c.896.253 1.87-.255 1.922-1.184a10.478 10.478 0 0 0-.171-2.552c-1.084-5.671-6.56-9.39-12.231-8.307-5.671 1.084-9.39 6.56-8.307 12.23.165.86.43 1.676.782 2.436.39.845 1.484.958 2.223.392a17.9 17.9 0 0 1 7.536-3.365 17.9 17.9 0 0 1 8.246.35z" fill="#979797"/><path d="M47.027 76.685a7.494 7.494 0 0 0-14.558 2.782 17.909 17.909 0 0 1 6.98-2.956 17.908 17.908 0 0 1 7.578.174z" fill="#BFBFBF"/><path d="M104.882 11.832a8.911 8.911 0 1 0-10.953 6.002 8.911 8.911 0 1 0 17.18 4.727 8.911 8.911 0 0 0-6.227-10.73z" fill="#979797"/><path d="M74.622 23.951c1.433-5.756 7.261-9.26 13.017-7.827l31.597 7.868c5.756 1.433 9.261 7.261 7.827 13.018l-4.915 19.738c-1.626 6.533-8.241 10.51-14.774 8.883L78.59 58.464c-6.533-1.627-10.51-8.241-8.883-14.774l4.915-19.738z" fill="#E5E5E5"/><path d="M69.466 38.41a4.815 4.815 0 1 0 2.327-9.346 4.815 4.815 0 0 0-2.327 9.345zM124.837 52.197a4.816 4.816 0 1 0 2.326-9.346 4.816 4.816 0 0 0-2.326 9.346z" fill="#E5E5E5"/><path d="M83.676 15.891c-4.261.548-7.954 3.64-9.055 8.061l-2 8.035.382.096a6.445 6.445 0 0 0 7.81-4.697l2.863-11.495zM122.846 25.645c3.507 2.482 5.318 6.945 4.217 11.365l-2.001 8.035-.382-.095a6.444 6.444 0 0 1-4.696-7.81l2.862-11.495z" fill="#CECECE"/><path d="M101.622 32.329a6.795 6.795 0 0 1 13.188 3.283l-.497 1.996a9.483 9.483 0 0 0-13.688 2.028 6.77 6.77 0 0 1-.002-3.296l.999-4.011zM94.335 23.511a6.795 6.795 0 0 0-8.236 4.952l-.497 1.995a9.483 9.483 0 0 1 11.139 8.21 6.765 6.765 0 0 0 1.547-2.91l.999-4.011a6.795 6.795 0 0 0-4.952-8.236z" fill="#fff"/><path d="M94.584 28.598a2.473 2.473 0 0 1-3.163 1.755l-.196.788a9.478 9.478 0 0 1 4.872 5.047c.17-.269.3-.569.381-.894l.925-3.716a3.05 3.05 0 0 0-2.754-3.781 2.47 2.47 0 0 1-.065.801zM106.886 31.662a2.473 2.473 0 0 1-3.163 1.755l-.864 3.466a3.128 3.128 0 0 0-.084.536 9.467 9.467 0 0 1 6.689-1.807l.241-.97a3.05 3.05 0 0 0-2.754-3.782c.022.262.002.532-.065.802zM86.013 37.872c.187-1.198 1.588-1.791 2.604-1.13 2.395 1.56 6.32 3.885 9.545 4.683 3.196.79 7.71.577 10.54.321 1.208-.109 2.168 1.073 1.771 2.219l-2.628 7.586a8.078 8.078 0 0 1-9.585 5.194l-7.453-1.856a8.078 8.078 0 0 1-6.03-9.082l1.236-7.935z" fill="#979797"/><path d="M109.183 47.69a1.102 1.102 0 0 1-.19-.03L85.587 41.83a1.092 1.092 0 0 1-.18-.062l.606-3.897c.187-1.198 1.588-1.791 2.604-1.13 2.395 1.56 6.32 3.885 9.545 4.683 3.196.79 7.71.577 10.54.322 1.208-.11 2.168 1.072 1.771 2.218l-1.29 3.724z" fill="#fff"/><path d="M106.89 53.454a8.082 8.082 0 0 1-8.63 3.291l-7.453-1.856a8.08 8.08 0 0 1-6.079-6.953 8.197 8.197 0 0 1 5.801-.693 8.193 8.193 0 0 1 4.54 2.975 1.35 1.35 0 0 0 1.617.402 8.194 8.194 0 0 1 5.405-.498 8.197 8.197 0 0 1 4.799 3.332zM100.166 33.198c.119.03.756 1.963 1.391 3.983.632 2.01-1.187 3.918-3.232 3.41-2.044-.51-2.756-3.049-1.255-4.528 1.508-1.486 2.977-2.894 3.096-2.865z" fill="#BFBFBF"/></g><defs><clipPath id="clip0_122_455"><path fill="#fff" d="M0 0h135v124H0z"/></clipPath></defs></svg>