<svg viewBox="0 0 136 125" fill="none" xmlns="http://www.w3.org/2000/svg"><rect x="12.258" y="12" width="113" height="113" rx="17" fill="#E5E5E5"/><path d="M37.67 31.36c-.243 8.68 6.532 15.973 15.236 16.342 8.783.371 16.203-6.447 16.575-15.23.371-8.782-6.447-16.203-15.23-16.574a15.864 15.864 0 0 0-6.339 1.024l-.074-.044a6.734 6.734 0 0 1-8.48-4.276c-2.494-5.039-7.586-8.598-13.6-8.852-8.782-.372-16.203 6.447-16.574 15.229-.047 1.1.02 2.178.188 3.223a15.866 15.866 0 0 0-5.097 11.014c-.371 8.782 6.447 16.203 15.23 16.575 8.782.371 16.202-6.447 16.574-15.23.046-1.1-.02-2.177-.189-3.223.206-.19.407-.387.603-.588l1.176.61z" fill="#959595"/><path fill-rule="evenodd" clip-rule="evenodd" d="M22.974 47.806a.65.65 0 0 1 .899.19c1.23 1.892 5.462 5.227 12.322 2.314a.65.65 0 0 1 .508 1.196c-7.508 3.189-12.389-.445-13.92-2.801a.65.65 0 0 1 .19-.9zM53.308 48.096a.65.65 0 0 0-.915.088c-1.436 1.739-6.02 4.572-12.505.899a.65.65 0 0 0-.64 1.13c7.097 4.021 12.358.965 14.148-1.202a.65.65 0 0 0-.088-.915z" fill="#AA5F45"/><path d="M10.053 47.703a29.127 29.127 0 0 0-.417 7.078l.882 14.11a7 7 0 0 0 7.423 6.55l44.11-2.758a6.933 6.933 0 0 0 6.486-7.352l-.887-14.177a29.097 29.097 0 0 0-1.515-7.637 7.109 7.109 0 0 1-8.572-6.51l-.338-5.4c-.02-.332-.018-.66.006-.982A28.964 28.964 0 0 0 36.83 23.96a28.959 28.959 0 0 0-19.122 8.848c.015.127.026.255.034.385l.44 7.032a7.109 7.109 0 0 1-8.128 7.478z" fill="#BFBFBF"/><circle cx="8.682" cy="46.617" r="4.844" transform="rotate(-3.578 8.682 46.617)" fill="#BFBFBF"/><circle cx="67.451" cy="42.942" r="4.844" transform="rotate(-3.578 67.451 42.942)" fill="#BFBFBF"/><path d="M24.855 42.15l.215 3.433a5.932 5.932 0 0 0 11.842-.74l-.215-3.433-11.842.74zM39.044 41.263l.215 3.432a5.932 5.932 0 0 0 11.842-.74l-.215-3.432-11.842.74z" fill="#fff"/><path d="M48.753 35.84a3.019 3.019 0 1 1 2.585 5.457l-4.802 2.275.041.656a2.663 2.663 0 0 1-4.88 1.636l-1.377.653c-.42.2-.864.293-1.3.291a3.012 3.012 0 0 1-2.411.256l-1.73-.549a2.663 2.663 0 0 1-4.915-1.248l-.02-.319-5.298-1.682a3.02 3.02 0 0 1 1.827-5.756l11.23 3.566.031-.016 11.019-5.22z" fill="#959595"/><path d="M31.133 48.027a7.797 7.797 0 0 1 7.668.828 7.797 7.797 0 0 1 7.656.932l5.458 4.046a7.8 7.8 0 1 1-9.292 12.533L41.24 65.34c-2.23-1.457-4.772-2.336-8.15-1.156l-1.981.86A7.8 7.8 0 1 1 24.9 50.73l6.233-2.703z" fill="#959595"/><circle cx="38.461" cy="50.079" r="3.649" transform="rotate(-3.578 38.461 50.079)" fill="#BFBFBF"/><ellipse cx="92.889" cy="43.394" rx="11.131" ry="11.067" transform="rotate(3.162 92.889 43.394)" fill="#959595"/><path fill-rule="evenodd" clip-rule="evenodd" d="M54.672 78.03c.7-12.677 11.545-22.386 24.222-21.686l26.486 1.464c12.677.7 22.386 11.545 21.686 24.222-.7 12.677-11.545 22.386-24.222 21.686l-26.486-1.463c-12.677-.701-22.386-11.545-21.686-24.222z" fill="#959595"/><path d="M64.879 81.634c-1.718 3.401-2.816 7.125-3.04 11.173l-.168 3.043a22.949 22.949 0 0 1-6.974-14.857l10.182.64zM116.926 84.509c1.333 3.57 1.986 7.39 1.762 11.439l-.149 2.713a22.941 22.941 0 0 0 8.176-13.69l-9.789-.462z" fill="#fff"/><path d="M64.803 81.63a28.372 28.372 0 0 0-2.962 11.177l-.79 14.282a7 7 0 0 0 6.604 7.375l42.871 2.368a7 7 0 0 0 7.375-6.603l.789-14.281a28.36 28.36 0 0 0-1.713-11.435l-4.575-.253a6 6 0 0 1-5.66-6.322l.348-6.287.007-.114-31.09-1.717c.017.248.019.5.005.755l-.312 5.649a6 6 0 0 1-6.322 5.66l-4.575-.253z" fill="#D1D1D1"/><path fill-rule="evenodd" clip-rule="evenodd" d="M97.113 97.168a.82.82 0 0 1-.368 1.101c-4.712 2.351-8.629 1.45-11.342-.057a14.336 14.336 0 0 1-3.907-3.216 9.127 9.127 0 0 1-.272-.34l-.016-.022-.005-.007-.002-.002v-.001c-.001 0-.001-.001.664-.483l-.665.482a.821.821 0 0 1 1.328-.965l.001.001.009.011.04.054a11.546 11.546 0 0 0 .887.986 12.694 12.694 0 0 0 2.736 2.066c2.33 1.294 5.67 2.09 9.81.024a.821.821 0 0 1 1.102.368z" fill="#959595"/><path fill-rule="evenodd" clip-rule="evenodd" d="M84.351 104.794a.631.631 0 0 1 .882-.143l-.37.513.37-.513h-.001c0-.001 0 0 0 0l.007.004.031.022c.03.02.076.051.138.09.124.078.31.188.549.314.48.252 1.17.562 2.003.788 1.664.452 3.878.571 6.174-.726a.632.632 0 1 1 .621 1.1c-2.663 1.504-5.24 1.358-7.127.845a11.223 11.223 0 0 1-2.259-.889 9.411 9.411 0 0 1-.854-.508l-.014-.01-.004-.003-.002-.001v-.001l.368-.512-.369.512a.632.632 0 0 1-.143-.882z" fill="#B6B6B6"/><path opacity=".626" fill-rule="evenodd" clip-rule="evenodd" d="M110.747 85.591a.63.63 0 0 1-.385.806l-3.321 1.173 3.18 1.63a.632.632 0 0 1-.576 1.124l-4.486-2.298a.63.63 0 0 1 .078-1.158l4.704-1.662a.632.632 0 0 1 .806.385zM70.618 83.374a.632.632 0 0 0 .294.844l3.172 1.532-3.34 1.269a.632.632 0 0 0 .448 1.18l4.712-1.79a.631.631 0 0 0 .05-1.159l-4.493-2.17a.632.632 0 0 0-.843.294z" fill="#B6B6B6"/><path fill-rule="evenodd" clip-rule="evenodd" d="M93.652 74.87l-.019-1.265a1.265 1.265 0 0 0 .038 2.53h.044a16.105 16.105 0 0 1 .798.027 21.7 21.7 0 0 1 2.247.254c1.84.305 4.12.926 6.075 2.163a1.264 1.264 0 1 0 1.353-2.138c-2.352-1.488-5-2.187-7.014-2.52a24.221 24.221 0 0 0-2.512-.284 18.53 18.53 0 0 0-.945-.032H93.635s-.002 0 .017 1.265zM88.736 77.438l.16-1.255a1.265 1.265 0 0 1-.318 2.51h-.006l-.037-.005a15.904 15.904 0 0 0-.797-.06 21.705 21.705 0 0 0-2.26.004c-1.862.1-4.197.466-6.276 1.48a1.265 1.265 0 1 1-1.11-2.274c2.501-1.22 5.211-1.623 7.25-1.732a24.22 24.22 0 0 1 2.527-.006 18.669 18.669 0 0 1 .943.073l.057.006.017.002.006.001h.002l-.158 1.256z" fill="#959595"/><path d="M90.031 85.352l-11.855-.655-.077 1.386c-.05.914.108 1.791.435 2.585 2.146.333 6.267 1.072 9.39 2.221a5.92 5.92 0 0 0 2.03-4.15l.077-1.387zM104.044 86.127l-11.831-.654-.077 1.386a5.928 5.928 0 0 0 2.113 4.877c2.755-.733 6.318-1.06 8.72-1.204a5.909 5.909 0 0 0 1.023-3.018l.076-1.386-.024-.001z" fill="#fff"/><path d="M84.694 85.057l5.336.295a2.674 2.674 0 0 1-5.336-.295zM98.731 85.833l5.314.294h.022a2.673 2.673 0 0 1-5.336-.294z" fill="#959595"/><path fill-rule="evenodd" clip-rule="evenodd" d="M90.642 94.497a2.883 2.883 0 0 0 3.034-2.724c.087-1.592-2.579-5.516-2.579-5.516s-3.082 3.606-3.17 5.198a2.883 2.883 0 0 0 2.715 3.042z" fill="#959595"/></svg>