<svg xmlns="http://www.w3.org/2000/svg" viewBox="0 0 135 124"><defs><style>.cls-1{fill:#ffd900}.cls-2{fill:#ffb100}.cls-3{fill:#ffc800}.cls-4{fill:#f89700}.cls-5{fill:#ffe865}</style></defs><g id="Layer_3" data-name="Layer 3"><rect id="bg" class="cls-1" x="11" y="11" width="113" height="113" rx="17"/><path class="cls-1" d="M124 99.65V107a17.15 17.15 0 0 1-.68 4.78 17 17 0 0 1-5.76 8.53A17 17 0 0 1 107 124H28a16.9 16.9 0 0 1-13.4-6.55 16.75 16.75 0 0 1-2.92-5.66A17.15 17.15 0 0 1 11 107v-7.35z"/><path class="cls-2" d="M32.57 99.65h4V124h-4zM66.9 99.65h4V124h-4zM105.24 99.65v24.18c2.27.11 1.52.17.76.17h-4.76V99.65z"/><path class="cls-3" d="M48.83 88.4L36.57 99.65V124h30.25V99.65L54.56 88.4a4.23 4.23 0 0 0-5.73 0zm34.24 0L70.81 99.65V124h30.25V99.65L88.8 88.4a4.23 4.23 0 0 0-5.73 0zm39.82 0a4.23 4.23 0 0 0-5.73 0L104.9 99.65V124h2.1a17 17 0 0 0 10.56-3.68 17 17 0 0 0 5.76-8.53A17.15 17.15 0 0 0 124 107V89.42zm-108.68 0L11 91.35V107a17.15 17.15 0 0 0 .68 4.78 16.75 16.75 0 0 0 2.92 5.66A16.9 16.9 0 0 0 28 124h4.2V99.65L19.94 88.4a4.23 4.23 0 0 0-5.73 0z"/><path class="cls-4" d="M55.39 20.6l-23.7 23.22-7.53-7.76-12.48-12.85A17 17 0 0 1 28 11h18.07l1.79 1.84z"/><path class="cls-2" d="M29.1 44.61l-5.69-5.88a1.4 1.4 0 0 1 0-2l24.8-24.22a1.36 1.36 0 0 1 1.94 0l5.7 5.88a1.39 1.39 0 0 1 0 2l-24.8 24.25a1.38 1.38 0 0 1-1.95-.03z"/><path class="cls-5" d="M57.11 68.82L39.99 51.13 61.1 30.46l17.12 17.69-21.11 20.67z"/><path class="cls-3" d="M39.95 51.09l-7.48-7.73 21.11-20.67 7.48 7.72-21.11 20.68z"/><path class="cls-5" d="M81.12 36.12a1.52 1.52 0 0 1-.55-.1l-6.84-2.43A5.14 5.14 0 0 1 70.62 27a5.1 5.1 0 0 1 6.53-3.12A7.51 7.51 0 0 1 82 29.82l.7 4.4a1.64 1.64 0 0 1-1.62 1.9zm-6.28-5.62l4.22 1.5-.26-1.67A4.24 4.24 0 0 0 76.05 27a1.81 1.81 0 0 0-1.39.07 1.83 1.83 0 0 0-.94 1.05 1.86 1.86 0 0 0 1.12 2.37z"/><path class="cls-1" d="M71.02 53.26L55.87 37.6l2.64-2.58 15.15 15.65-2.64 2.59zM65.55 58.62L50.4 42.96l2.63-2.58 15.16 15.65-2.64 2.59zM60.17 63.88L45.02 48.22l2.64-2.58L62.81 61.3l-2.64 2.58z"/><path class="cls-4" d="M69 36.7s-2.5 18.9-12.61 31.51a1.62 1.62 0 0 0-.08 2l10.24 15 64.65-49.3-2-4.84a6.74 6.74 0 0 0-7.74-4z"/><path class="cls-5" d="M84 43.75a1.43 1.43 0 0 1-1.71-1.12l-1.71-8.09 2.82-.6L85.11 42A1.45 1.45 0 0 1 84 43.75zM93.53 41.94a1.44 1.44 0 0 1-1.71-1.12l-1.71-8.09 2.82-.6 1.71 8.09a1.44 1.44 0 0 1-1.11 1.72zM103.25 40.19a1.45 1.45 0 0 1-1.71-1.12L99.83 31l2.82-.6 1.71 8.1a1.45 1.45 0 0 1-1.11 1.69zM112.54 38.39a1.46 1.46 0 0 1-1.72-1.12l-1.71-8.09 2.82-.61 1.72 8.1a1.46 1.46 0 0 1-1.11 1.72z"/><path class="cls-4" d="M71 44.79l-6.37-9.7a3.2 3.2 0 0 1 .9-4.42 3.16 3.16 0 0 1 4.4.91l6.36 9.69a3.2 3.2 0 0 1-.89 4.42 3.16 3.16 0 0 1-4.4-.9z"/><path class="cls-5" d="M128.83 33.48L65.39 80.13a3.41 3.41 0 0 0-.73 4.74l.81 1.13a3.36 3.36 0 0 0 4.71.74l63.44-46.65a3.39 3.39 0 0 0 .73-4.73l-.81-1.12a3.36 3.36 0 0 0-4.71-.76zM37.21 52.42a2.76 2.76 0 0 1 0-3.88l21.16-21a2.72 2.72 0 0 1 3.86.05 2.76 2.76 0 0 1-.05 3.88l-21.16 21a2.71 2.71 0 0 1-3.81-.05zM82 35.71a1.63 1.63 0 0 1-1.41-2.48l5.79-9.67a1.64 1.64 0 0 1 2.82 1.69l-5.79 9.66a1.63 1.63 0 0 1-1.41.8z"/><path class="cls-5" d="M82.47 35.62a1.64 1.64 0 0 1-.92-3c10.47-7 10.55-7 11.13-7a1.64 1.64 0 0 1 .77 3.13c-.82.48-6.57 4.28-10.07 6.62a1.62 1.62 0 0 1-.91.25z"/></g></svg>