<svg viewBox="0 0 135 124" fill="none" xmlns="http://www.w3.org/2000/svg"><path d="M107 11H28c-9.389 0-17 7.611-17 17v79c0 9.389 7.611 17 17 17h79c9.389 0 17-7.611 17-17V28c0-9.389-7.611-17-17-17z" fill="#9069CD"/><path fill-rule="evenodd" clip-rule="evenodd" d="M85.655 83.803l8.977-.82a4.79 4.79 0 0 1 2.306.36l7.051 2.992a4.471 4.471 0 0 0 4.173-.362l6.625-4.282a4.795 4.795 0 0 1 2.165-.747l8.769-.801a3.513 3.513 0 0 1 3.818 3.178l1.83 20.028a3.514 3.514 0 0 1-3.179 3.818l-40.066 3.66a3.512 3.512 0 0 1-3.818-3.178l-1.83-20.028a3.513 3.513 0 0 1 3.18-3.818z" fill="#753E21"/><path fill-rule="evenodd" clip-rule="evenodd" d="M86.469 92.706l8.89-.813a4.79 4.79 0 0 1 2.454.426l6.885 3.198a4.471 4.471 0 0 0 4.434-.382l6.421-4.46a4.79 4.79 0 0 1 2.297-.836l8.685-.794a3.513 3.513 0 0 1 3.818 3.179l1.742 19.074a3.51 3.51 0 0 1-3.178 3.817l-40.067 3.661a3.513 3.513 0 0 1-3.817-3.179L83.29 96.523a3.513 3.513 0 0 1 3.179-3.817z" fill="#A56644"/><path fill-rule="evenodd" clip-rule="evenodd" d="M116.531 104.827a.319.319 0 0 0-.289.347l.232 2.543a.32.32 0 0 0 .348.289l6.359-.581a.32.32 0 0 0 .289-.347l-.232-2.543a.32.32 0 0 0-.347-.289l-6.36.581zm-2.197.521a2.235 2.235 0 0 1 2.023-2.429l6.359-.581a2.235 2.235 0 0 1 2.43 2.023l.232 2.542a2.236 2.236 0 0 1-2.023 2.43l-6.359.581a2.236 2.236 0 0 1-2.43-2.023l-.232-2.543zm-28.038-9.469a.922.922 0 0 1 1.002.834l.196 2.141a.922.922 0 0 1-1.836.168l-.196-2.142a.922.922 0 0 1 .834-1.001zm40.995-3.746a.922.922 0 0 1 1.002.834l.196 2.142a.922.922 0 0 1-1.836.167l-.196-2.141a.922.922 0 0 1 .834-1.002zm.587 6.425a.922.922 0 0 1 1.002.834l.391 4.283a.922.922 0 1 1-1.835.168l-.392-4.284a.922.922 0 0 1 .834-1.001zm-40.995 3.745a.922.922 0 0 1 1.002.834l.391 4.283a.922.922 0 1 1-1.835.168l-.392-4.283a.922.922 0 0 1 .834-1.002zm.783 8.566a.922.922 0 0 1 1.002.834l.195 2.142c.015.167.063.322.135.46.108.203.13.429.082.637a.922.922 0 0 1 .642-.035c.148.046.309.065.477.05l2.294-.21a.922.922 0 0 1 .168 1.836l-2.295.209a3.061 3.061 0 0 1-1.192-.125.922.922 0 0 1-.624-1.088.922.922 0 0 1-1.183-.416 3.068 3.068 0 0 1-.34-1.151l-.195-2.141a.922.922 0 0 1 .834-1.002zm40.995-3.745a.922.922 0 0 1 1.002.834l.195 2.141c.038.414-.008.817-.125 1.193a.922.922 0 0 1-1.088.624.921.921 0 0 1-.417 1.183 3.054 3.054 0 0 1-1.15.339l-2.294.21a.922.922 0 0 1-.168-1.836l2.295-.209a1.22 1.22 0 0 0 .459-.136.923.923 0 0 1 .638-.082.909.909 0 0 1-.035-.641c.046-.149.065-.309.05-.477l-.196-2.141a.922.922 0 0 1 .834-1.002zm-32.413 8.205a.921.921 0 0 1 .834-1.001l4.589-.419a.922.922 0 1 1 .168 1.835l-4.59.419a.921.921 0 0 1-1-.834zm9.178-.838a.922.922 0 0 1 .834-1.002l4.589-.419a.922.922 0 0 1 .168 1.836l-4.589.419a.922.922 0 0 1-1.002-.834zm9.178-.839a.922.922 0 0 1 .834-1.001l4.589-.419a.921.921 0 1 1 .168 1.835l-4.589.419a.922.922 0 0 1-1.002-.834z" fill="#995632"/><path d="M4.48 31.973C2.455 18.259 11.93 5.498 25.644 3.472L40.02 1.347C53.733-.679 66.493 8.795 68.52 22.51l.083.563c2.027 13.714-7.448 26.475-21.162 28.501L33.065 53.7C19.351 55.725 6.591 46.25 4.564 32.537l-.083-.564z" fill="#3D3D3D"/><path d="M12.155 62.855a7.525 7.525 0 1 1-1.658-13.93c.964-10.79 9.2-19.92 20.388-21.574l37.08-5.48c11.234-1.66 21.799 4.757 25.806 14.878a7.526 7.526 0 1 1 2.393 13.576c.029 11.72-8.546 21.994-20.483 23.758l-5.666.837c-1.456 2.589-4.526 4.15-7.742 3.35l-.831-.208a12.38 12.38 0 0 0-9.326 1.378l-.736.44c-2.847 1.695-6.237 1.09-8.38-.968l-4.4.65C26.703 81.32 15.557 74.02 12.155 62.855z" fill="#FFCBA3"/><path d="M91.855 32.946l-12.498 1.847a8.925 8.925 0 0 1-10.134-7.524l-.807-5.46c9.585-1.235 18.623 3.387 23.439 11.137z" fill="#D6C6BA"/><path d="M14.188 63.545a3.627 3.627 0 1 1-7.176 1.06 3.627 3.627 0 0 1 7.176-1.06z" fill="#C86902"/><path d="M50.307 40.243a8.367 8.367 0 0 0-9.5-7.053l-.308.045a8.367 8.367 0 0 0-7.054 9.5l1.264 8.56a8.367 8.367 0 0 0 9.5 7.054l.31-.046a8.367 8.367 0 0 0 7.053-9.5l-1.265-8.56z" fill="#E99B5F"/><path d="M33.895 45.785a8.367 8.367 0 0 1 7.054-9.5l.308-.046a8.367 8.367 0 0 1 9.5 7.054l.815 5.51a8.367 8.367 0 0 1-7.055 9.5l-.308.046a8.367 8.367 0 0 1-9.5-7.054l-.814-5.51z" fill="#fff"/><path d="M4.803 34.155c-1.531-10.362 5.628-20.003 15.99-21.534l1.402-.207c10.361-1.532 20.003 5.627 21.534 15.989l.207 1.402c1.531 10.362-5.627 20.003-15.99 21.534l-1.401.207C16.183 53.078 6.542 45.92 5.01 35.557l-.207-1.402z" fill="#3D3D3D"/><path d="M41.818 46.39a2.992 2.992 0 0 0 2.215-4.346 3.839 3.839 0 0 1 4.153 3.26l.549 3.717a3.838 3.838 0 1 1-7.595 1.122l-.549-3.716a4.165 4.165 0 0 1-.015-.114c.392.11.813.14 1.242.077z" fill="#3D3D3D"/><path d="M53.598 51.323c.168-.025 2 2.11 3.875 4.358 1.867 2.237.547 5.635-2.336 6.061-2.882.426-5.128-2.445-3.988-5.126 1.145-2.694 2.28-5.269 2.449-5.293zm-.183-11.538a8.342 8.342 0 0 1 .166-3.285l.287.474 3.438 1.325 5.535.486 7.494-1.108 1.046 7.078c-6.803.762-12.077 4.337-15.156 7.337a8.33 8.33 0 0 1-1.545-3.748l-1.265-8.56z" fill="#E99B5F"/><path d="M53.866 42.834a8.332 8.332 0 0 1 1.058-5.454l2.382.918 5.535.486 7.055-1.042c.408.794.695 1.668.833 2.6l.652 4.413c-6.803.762-12.077 4.337-15.156 7.337a8.33 8.33 0 0 1-1.545-3.749l-.814-5.51z" fill="#fff"/><path d="M59.439 40.761a2.992 2.992 0 0 1-2.508 3.395l.528 3.575c.134.906.574 1.69 1.2 2.265a27.218 27.218 0 0 1 6.359-3.63l-.513-3.473a3.839 3.839 0 0 0-5.317-2.965c.121.258.207.537.25.833z" fill="#3D3D3D"/><path fill-rule="evenodd" clip-rule="evenodd" d="M51.95 32.338a1.952 1.952 0 0 1 2.216 1.646c.078.525.496 1.585 2.729 2.3 2.333.745 6.45 1.013 13.357-.27a1.952 1.952 0 0 1 .713 3.839c-7.168 1.332-12.03 1.182-15.26.15-3.33-1.066-5.06-3.144-5.401-5.448a1.952 1.952 0 0 1 1.646-2.217z" fill="#E99B5F"/><path d="M44.853 74.355a6.01 6.01 0 0 1 5.068-6.826l10.177-1.504a6.011 6.011 0 0 1 6.825 5.068c.313 2.116-1.623 3.873-3.699 3.356l-.832-.207a16.316 16.316 0 0 0-12.29 1.816l-.737.439c-1.838 1.095-4.2-.026-4.512-2.142z" fill="#B23131"/><path d="M79.682 27.143l4.088 5.984c1.817 2.66.074 6.289-3.138 6.532-3.212.244-5.483-3.08-4.088-5.983l3.138-6.533zm7.348 11.904l3.076 4.502c1.367 2.001.056 4.732-2.36 4.915-2.417.184-4.126-2.318-3.077-4.502l2.361-4.915z" fill="#1CB0F6"/><path fill-rule="evenodd" clip-rule="evenodd" d="M45.158 90.105l-4.314 21.505a3.32 3.32 0 0 1-3.908 2.602l-33.233-6.667a3.32 3.32 0 0 1-2.602-3.908l4.314-21.505a3.32 3.32 0 0 1 3.908-2.602l33.234 6.667a3.32 3.32 0 0 1 2.601 3.908z" fill="#1CB0F6"/><path fill-rule="evenodd" clip-rule="evenodd" d="M40.17 98.264l-.798 3.983a1.328 1.328 0 0 1-1.563 1.041l-6.74-1.352a1.33 1.33 0 0 1-1.042-1.564l.8-3.983a1.328 1.328 0 0 1 1.563-1.04l6.74 1.352c.72.144 1.185.844 1.04 1.563z" fill="#FFD300"/><path d="M10.87 104.236a4.319 4.319 0 1 0 7.19-4.787 4.319 4.319 0 0 0-7.19 4.787z" fill="#FFD300"/><path d="M5.341 103.127a4.32 4.32 0 1 0 7.19-4.79 4.32 4.32 0 0 0-7.19 4.79z" fill="#FF4B4B"/><path fill-rule="evenodd" clip-rule="evenodd" d="M10.156 83.849l11.078 2.222a1.328 1.328 0 0 1 1.04 1.563l-.261 1.305a1.328 1.328 0 0 1-1.563 1.041L9.372 87.758a1.328 1.328 0 0 1-1.041-1.563l.262-1.306a1.328 1.328 0 0 1 1.563-1.04z" fill="#1096D5"/><path d="M117.737 49.292L91.182 71.768a2.465 2.465 0 0 0-.29 3.475l10.266 12.128a2.465 2.465 0 0 0 3.474.289l26.556-22.476a2.465 2.465 0 0 0 .289-3.475L121.212 49.58a2.466 2.466 0 0 0-3.475-.289z" fill="#9ED926"/><path d="M117.924 59.9a1.78 1.78 0 0 1 2.509.21l1.239 1.463a1.78 1.78 0 0 1-2.718 2.301l-1.239-1.464a1.78 1.78 0 0 1 .209-2.51zm-14.219 14.368a1.78 1.78 0 1 0-2.718 2.3l1.239 1.464a1.78 1.78 0 1 0 2.718-2.3l-1.239-1.464z" fill="#79C500"/><path fill-rule="evenodd" clip-rule="evenodd" d="M90.297 70.723a3.835 3.835 0 0 0-.45 5.405l10.265 12.128a3.835 3.835 0 0 0 5.405.45l26.556-22.477a3.835 3.835 0 0 0 .449-5.405l-10.264-12.127a3.836 3.836 0 0 0-5.406-.45L90.297 70.723zm4.456.176a2.788 2.788 0 0 0-.187-.2l21.557-18.246c.052.074.107.147.167.217l1.416 1.673a2.739 2.739 0 0 0 4.761-1.159l5.663 6.691a2.739 2.739 0 0 0-1.929 4.505l1.415 1.673c.06.07.123.137.188.2l-8.228 6.965a6.708 6.708 0 0 0-1.233-6.495l-2.478-2.928a6.712 6.712 0 0 0-10.246 8.672l2.478 2.928a6.708 6.708 0 0 0 6.202 2.289l-8.053 6.816a2.63 2.63 0 0 0-.167-.219l-1.416-1.672a2.738 2.738 0 0 0-4.761 1.158l-5.663-6.69a2.74 2.74 0 0 0 1.93-4.505l-1.416-1.673z" fill="#79C500"/><path d="M130.072 15.705L97.264 4.127A2.465 2.465 0 0 0 94.12 5.63l-5.287 14.983a2.466 2.466 0 0 0 1.504 3.146l32.807 11.577a2.466 2.466 0 0 0 3.146-1.504l5.287-14.983a2.465 2.465 0 0 0-1.504-3.145z" fill="#9ED926"/><path d="M121.008 21.22a1.781 1.781 0 0 1 1.087 2.272l-.638 1.809a1.781 1.781 0 0 1-3.359-1.185l.638-1.809a1.781 1.781 0 0 1 2.272-1.086zm-19.58-5.02a1.78 1.78 0 1 0-3.358-1.186l-.638 1.809a1.78 1.78 0 0 0 3.358 1.185l.638-1.809z" fill="#79C500"/><path fill-rule="evenodd" clip-rule="evenodd" d="M97.72 2.835a3.835 3.835 0 0 0-4.893 2.34L87.54 20.158a3.835 3.835 0 0 0 2.34 4.893l32.808 11.578a3.834 3.834 0 0 0 4.892-2.34l5.288-14.983a3.835 3.835 0 0 0-2.34-4.893L97.72 2.835zm2.097 3.936c.031-.087.057-.175.079-.263l26.633 9.399a2.948 2.948 0 0 0-.104.253l-.729 2.067a2.74 2.74 0 0 0 3.404 3.525l-2.918 8.266a2.74 2.74 0 0 0-4.862.608l-.729 2.067a2.846 2.846 0 0 0-.079.263l-10.165-3.587a6.708 6.708 0 0 0 4.984-4.343l1.276-3.616a6.711 6.711 0 1 0-12.658-4.468l-1.276 3.617a6.708 6.708 0 0 0 1.154 6.51l-9.948-3.512a2.87 2.87 0 0 0 .104-.254l.73-2.066a2.74 2.74 0 0 0-3.405-3.526l2.917-8.266a2.74 2.74 0 0 0 4.863-.608l.73-2.066z" fill="#79C500"/><path d="M79.663 5.397h.213a6.388 6.388 0 0 1 6.387 6.388v1.413a6.388 6.388 0 0 1-6.387 6.388h-.213a6.388 6.388 0 0 1-6.388-6.388v-1.413a6.388 6.388 0 0 1 6.388-6.388z" fill="#CD7900"/><path d="M79.77 17.866c3.586 0 6.493-2.919 6.493-6.519S83.356 4.83 79.77 4.83c-3.586 0-6.494 2.918-6.494 6.518 0 3.6 2.908 6.519 6.494 6.519z" fill="#E5A259"/><path opacity=".6" fill-rule="evenodd" clip-rule="evenodd" d="M79.824 6.865c-2.47 0-4.492 2.046-4.492 4.593s2.021 4.592 4.492 4.592c2.47 0 4.492-2.045 4.492-4.592 0-2.547-2.022-4.593-4.492-4.593zm-5.6 4.593c0-3.138 2.497-5.7 5.6-5.7 3.103 0 5.6 2.562 5.6 5.7 0 3.137-2.497 5.7-5.6 5.7-3.103 0-5.6-2.563-5.6-5.7z" fill="#CD7900"/><path d="M79.007 11.448a.782.782 0 0 1-1.297-.875l.978-1.448a.782.782 0 0 1 1.358.11l1.632 3.54a.782.782 0 1 1-1.42.655l-1.05-2.279-.201.297z" fill="#CD7900"/><path d="M72.118 82.814a8.47 8.47 0 0 1 8.47 8.47v2.38a8.47 8.47 0 0 1-8.47 8.47 8.47 8.47 0 0 1-8.47-8.47v-2.38a8.47 8.47 0 0 1 8.47-8.47z" fill="#C5C5C5"/><path d="M72.118 99.861c4.678 0 8.47-3.816 8.47-8.523 0-4.708-3.792-8.524-8.47-8.524-4.678 0-8.47 3.816-8.47 8.524 0 4.707 3.792 8.523 8.47 8.523z" fill="#D8D8D8"/><path opacity=".6" fill-rule="evenodd" clip-rule="evenodd" d="M72.128 85.818c-3.01 0-5.473 2.483-5.473 5.573 0 3.09 2.463 5.573 5.473 5.573s5.474-2.482 5.474-5.573c0-3.09-2.463-5.573-5.474-5.573zm-7.194 5.573c0-4.015 3.209-7.293 7.194-7.293 3.986 0 7.194 3.278 7.194 7.293 0 4.016-3.208 7.294-7.194 7.294-3.986 0-7.194-3.278-7.194-7.294z" fill="#C5C5C5"/><path d="M74.338 89.708a.88.88 0 1 1 1.26 1.228l-3.357 3.44a.88.88 0 0 1-1.471-.358l-1.3-4.283a.88.88 0 0 1 1.683-.51l.868 2.858 2.317-2.375z" fill="#CCC"/><path d="M58.071 102.331h.156a6.707 6.707 0 0 1 6.707 6.707v1.327a6.707 6.707 0 0 1-6.707 6.707h-.156a6.707 6.707 0 0 1-6.707-6.707v-1.327a6.707 6.707 0 0 1 6.707-6.707z" fill="#FFBD00"/><path d="M58.15 115.235c3.746 0 6.784-3.066 6.784-6.848s-3.038-6.849-6.785-6.849c-3.747 0-6.785 3.067-6.785 6.849s3.038 6.848 6.785 6.848z" fill="#FFD900"/><path opacity=".6" fill-rule="evenodd" clip-rule="evenodd" d="M58.206 103.906c-2.462 0-4.483 2.053-4.483 4.617s2.021 4.617 4.483 4.617c2.462 0 4.483-2.053 4.483-4.617s-2.021-4.617-4.483-4.617zm-5.612 4.617c0-3.16 2.499-5.747 5.612-5.747s5.612 2.587 5.612 5.747c0 3.159-2.499 5.746-5.612 5.746s-5.612-2.587-5.612-5.746z" fill="#FFBD00"/><path d="M56.694 107.002l1.73-.599a1.027 1.027 0 0 1 1.306.634v.004l.6 1.748a1.027 1.027 0 0 1-.636 1.302l-1.73.599a1.026 1.026 0 0 1-1.305-.634l-.002-.003-.598-1.748c-.183-.535.1-1.118.635-1.303z" fill="#FFBD00"/></svg>