<svg id="Layer_3" data-name="Layer 3" xmlns="http://www.w3.org/2000/svg" viewBox="0 0 135 124"><defs><style>.cls-1{fill:#ffd900}.cls-2{fill:#ffc800}.cls-3{fill:#f89700}.cls-4{fill:#ffb100}.cls-5{fill:#ffe75e}.cls-6{fill:#e27800}</style></defs><path class="cls-1" d="M124 28v79a17 17 0 0 1-2.85 9.43A17.09 17.09 0 0 1 107 124H28a17 17 0 0 1-17-17V28a17 17 0 0 1 17-17h79a17 17 0 0 1 17 17z"/><path class="cls-2" d="M124 90.85V107a17 17 0 0 1-2.85 9.43A17.09 17.09 0 0 1 107 124H57.32V83.49H83z"/><path class="cls-3" d="M67.93 79.14l19.64 34.02 19.5-26.02 7.41 2.44L102.86 124H57.32l-3.93-37.36 14.54-7.5z"/><circle class="cls-4" cx="84.98" cy="100.44" r="15.86"/><path class="cls-4" d="M69.11 73.09h27.8v22.34h-27.8z"/><path class="cls-5" d="M108.87 93.89l-16.58 23.44a7.53 7.53 0 0 1-10.49 1.73 7.52 7.52 0 0 1-1.72-10.49l16.58-23.44a7.52 7.52 0 0 1 10.49-1.72 7.51 7.51 0 0 1 1.72 10.48z"/><path class="cls-3" d="M111.67 14a7.19 7.19 0 0 1 7.19 7.19v25h-14.37v-25a7.19 7.19 0 0 1 7.18-7.19z" transform="rotate(76.44 111.678 30.064)"/><path class="cls-3" d="M89.32-1a7.19 7.19 0 0 1 7.19 7.19v25H82.13v-25A7.19 7.19 0 0 1 89.32-1z" transform="rotate(27.38 89.303 15.082)"/><path class="cls-3" d="M100.84-1A7.19 7.19 0 0 1 108 6.19v25H93.65v-25A7.19 7.19 0 0 1 100.84-1z" transform="rotate(47.87 100.844 15.093)"/><path class="cls-3" d="M111.13 4.8a7.19 7.19 0 0 1 7.19 7.2v25h-14.37V12a7.19 7.19 0 0 1 7.19-7.19z" transform="rotate(68.54 111.136 20.88)"/><path class="cls-2" d="M124.23 39.59V70a14.67 14.67 0 0 1-14.67 14.68H83.47A14.68 14.68 0 0 1 68.79 70V39.59a27.72 27.72 0 1 1 55.44 0z"/><path class="cls-3" d="M124.23 54.23V70a14.67 14.67 0 0 1-14.67 14.68H83.47A14.68 14.68 0 0 1 68.79 70V47.7a16.57 16.57 0 0 1 4.21-.76 1 1 0 0 1 .93.73l3.47 13.62a2.43 2.43 0 0 0 2 1.82 2.07 2.07 0 0 0 .35 0A2.47 2.47 0 0 0 82 61.77l1.52-3.12c1.17-2.41 3.45-3.07 6.49-3.07h19.8c3.08 0 5.39.73 6.58 3.18l1.41 2.9a2.52 2.52 0 0 0 4.7-.47z"/><rect class="cls-5" x="84.24" y="34.57" width="13.85" height="19.18" rx="6.93" ry="6.93"/><rect class="cls-3" x="91.77" y="39.83" width="5.57" height="9.1" rx="2.78" ry="2.78"/><rect class="cls-5" x="105.73" y="34.57" width="13.85" height="19.18" rx="6.93" ry="6.93" transform="rotate(-180 112.66 44.16)"/><rect class="cls-3" x="111.85" y="39.83" width="5.57" height="9.1" rx="2.78" ry="2.78" transform="rotate(-180 114.63 44.375)"/><path class="cls-3" d="M82 15.59l2.17.85a20.89 20.89 0 0 0 15.13 6.48h24.41l-.82-5.67-12.68-6.77-16.87-4.07z"/><path class="cls-3" d="M84.17 15l3.4 1.8A19 19 0 0 1 81 31.23a19.05 19.05 0 0 0-6.6 14.42v3.48h-5.79V32.35a16.55 16.55 0 0 1 10.6-15.44z"/><rect class="cls-4" x="100.03" y="37.38" width="7.17" height="20.33" rx="2.36" ry="2.36"/><path class="cls-6" d="M71.11 54.71v22.9a12.61 12.61 0 0 1-12.32 12.71H25.53A21.07 21.07 0 0 1 4.46 69.25V54.71z"/><path class="cls-6" d="M68.7 74.9a35.48 35.48 0 1 1-.76-42.6z"/><path class="cls-1" d="M28.26 69.34h18.19v29.15H28.26z"/><circle class="cls-4" cx="65.68" cy="65.83" r="5.29"/><circle class="cls-4" cx="16.52" cy="65.93" r="5.29"/><path class="cls-1" d="M67 49.37a33.9 33.9 0 0 1-7.19 21A34.23 34.23 0 0 1 51.58 78l-3.38 2.17a15 15 0 0 1-16.11.2 6.36 6.36 0 0 1-.59-.37l-2.79-1.94c-.72-.49-1.41-1-2.08-1.55s-1.34-1.1-2-1.7a33.1 33.1 0 0 1-3.91-4.39l-.48-.67a33.63 33.63 0 0 1-6.32-19.69V34.24c0-5.44 4.32-19.84 9.75-19.9L56.9 14c5.51-.05 10 14.34 10 19.85z"/><path class="cls-3" d="M56.53 39.94h4.24A2.26 2.26 0 0 1 63 42.2v2.47a9.6 9.6 0 0 1-9.6 9.6h-4.22A2.26 2.26 0 0 1 46.92 52v-2.46a9.6 9.6 0 0 1 9.61-9.6z" transform="rotate(-180 54.975 47.105)"/><path class="cls-5" d="M54.28 41.38h4.24a2.26 2.26 0 0 1 2.26 2.26v2.47a9.6 9.6 0 0 1-9.6 9.6h-4.25a2.26 2.26 0 0 1-2.26-2.26V51a9.6 9.6 0 0 1 9.61-9.62z" transform="rotate(-180 52.725 48.55)"/><rect class="cls-1" x="44.66" y="44.09" width="6.14" height="10.03" rx="3.07" ry="3.07"/><rect class="cls-3" x="44.66" y="44.09" width="6.14" height="10.03" rx="3.07" ry="3.07"/><path class="cls-3" d="M20.22 39.94h4.24a9.6 9.6 0 0 1 9.6 9.6V52a2.26 2.26 0 0 1-2.26 2.26h-4.23a9.6 9.6 0 0 1-9.6-9.6V42.2a2.26 2.26 0 0 1 2.25-2.26z"/><path class="cls-5" d="M36.32 51v2.49a2.26 2.26 0 0 1-2.27 2.24h-4.23a9.61 9.61 0 0 1-9.61-9.59v-2.5a2.27 2.27 0 0 1 2.26-2.26h4.24A9.61 9.61 0 0 1 36.32 51z"/><path class="cls-3" d="M26.13 47.16v3.89a3 3 0 0 1-1.94 2.84 9.55 9.55 0 0 1-4-7.77V46a3.07 3.07 0 0 1 5.92 1.14z"/><path class="cls-3" d="M26.13 47.16v3.89a3 3 0 0 1-1.94 2.84 9.55 9.55 0 0 1-4-7.77V46a3.07 3.07 0 0 1 5.92 1.14z"/><rect class="cls-2" x="37.75" y="39.37" width="5.69" height="19.9" rx="2.84" ry="2.84" transform="rotate(-.12 42.922 47.791)"/><path class="cls-6" d="M64.86 81.27l-.1-50.14 6.24.67.1 43.2a6.25 6.25 0 0 1-6.24 6.27zM16.45 75.42l-5.55-1.9-.17-41.25 5.71-1.38.01 44.53z"/><path class="cls-6" d="M11.23 31.94a29.86 29.86 0 0 1 59.72 0L69.2 37H52.74a17.42 17.42 0 0 1-12.32-5.1l-.09.09a17.42 17.42 0 0 1-12.22 5H12.65z"/><path class="cls-4" d="M45.06 59.76l1.74-.19a5.84 5.84 0 0 1 6.82 4.67l.12.63a1.1 1.1 0 0 1-.88 1.29L41.8 68.1a1.1 1.1 0 0 1-1.29-.88l-.12-.64a5.85 5.85 0 0 1 4.67-6.82z"/><path class="cls-6" d="M8.27 30.06h8.24v5.1H8.27a2.55 2.55 0 0 1-2.55-2.55 2.55 2.55 0 0 1 2.55-2.55z"/><path class="cls-6" d="M8.27 26.1h8.24v5.1H8.27a2.55 2.55 0 0 1-2.55-2.55 2.55 2.55 0 0 1 2.55-2.55z" transform="rotate(19.87 11.109 28.653)"/><path class="cls-6" d="M65.56 21.28h8.24v5.1h-8.24A2.55 2.55 0 0 1 63 23.83a2.55 2.55 0 0 1 2.56-2.55z" transform="rotate(141.65 68.401 23.831)"/><path class="cls-2" d="M60.39 88.91V124H28a17 17 0 0 1-13.55-6.74l6.13-25.6a7.5 7.5 0 0 1 7.29-5.75h18.54a34 34 0 0 1 7 .73 33.26 33.26 0 0 1 6 1.84l.17.07z"/><path class="cls-2" d="M86.89 109.25l-3.54 7.81a2.91 2.91 0 0 1-3.85 1.45l-19.11-8.66-14.53-6.59 7.53-16.62a33.26 33.26 0 0 1 6 1.84l.17.07.83.38 22.73 10.31a7.56 7.56 0 0 1 3.77 10.01z"/><path class="cls-5" d="M107.07 84.71h7.41a2.44 2.44 0 0 1 2.44 2.44 2.44 2.44 0 0 1-2.44 2.44h-7.41v-4.88z"/><path class="cls-4" d="M60.39 109.85l-12-5.43a2.87 2.87 0 0 0-3.78 1.35 2.89 2.89 0 0 0 1.1 3.76l14.66 8.78zM100.2 65.83a9.76 9.76 0 0 1-7.88-4l-.21-.29a1.5 1.5 0 1 1 2.42-1.77l.22.29a6.73 6.73 0 0 0 11.07-.24 1.5 1.5 0 0 1 2.5 1.66 9.75 9.75 0 0 1-7.91 4.36z"/></svg>