<svg viewBox="0 0 136 124" fill="none" xmlns="http://www.w3.org/2000/svg"><path d="M11.982 28c0-9.389 7.612-17 17-17h79c9.389 0 17 7.611 17 17v79c0 9.389-7.611 17-17 17h-79c-9.388 0-17-7.611-17-17V28z" fill="#B2B2B2"/><path d="M110.034 14.782a7.449 7.449 0 0 0-5.305-9.396 7.45 7.45 0 0 0-3.865 14.388 7.45 7.45 0 1 0 9.17-4.992z" fill="#979797"/><path d="M84.707 24.842a8.979 8.979 0 0 1 10.9-6.512l26.396 6.652a8.98 8.98 0 0 1 6.512 10.901l-4.452 17.664a8.98 8.98 0 0 1-10.901 6.512l-26.395-6.653a8.979 8.979 0 0 1-6.512-10.9l4.452-17.664z" fill="#D8D8D8"/><path d="M80.8 37.025a4.025 4.025 0 1 0 1.968-7.807 4.025 4.025 0 0 0-1.968 7.807z" fill="#D8D8D8"/><path d="M102.094 35.825c.099.025.627 1.642 1.153 3.332.523 1.682-1.002 3.273-2.71 2.843-1.708-.43-2.296-2.555-1.038-3.788 1.264-1.238 2.495-2.412 2.595-2.387z" fill="#BFBFBF"/><path d="M128.516 35.883a8.98 8.98 0 0 0-5.293-10.5l-2.548 10.107a5.389 5.389 0 0 0 3.074 6.257 4.025 4.025 0 0 1 3.61-1.273l1.157-4.59zM87.609 27.155l2.09-8.293a8.962 8.962 0 0 0-4.99 5.98l-1.598 6.336a5.389 5.389 0 0 0 4.498-4.023z" fill="#CECECE"/><path d="M104.213 31.52l-.731 2.899a5.666 5.666 0 0 0 10.987 2.769l.731-2.898-10.987-2.77zM90.832 30.042l-.281 1.117a5.665 5.665 0 0 0 10.986 2.77l.282-1.118-10.987-2.769z" fill="#fff"/><path d="M107.557 32.363l-.728 2.888a2.543 2.543 0 1 0 4.932 1.243l.728-2.887-4.655-1.174a2.02 2.02 0 0 1-.277-.07zM96.887 31.568l-.28 1.106a2.543 2.543 0 0 0 4.933 1.243l.279-1.106-4.932-1.243z" fill="#979797"/><path d="M125.747 48.353a4.025 4.025 0 1 0 1.968-7.806 4.025 4.025 0 0 0-1.968 7.806zM102.422 25.252l16.521 4.164-1.827 7.25-16.522-4.163 1.828-7.251z" fill="#D8D8D8"/><path fill-rule="evenodd" clip-rule="evenodd" d="M116.622 43.282a2.919 2.919 0 0 0-4.088.568c-.299.396-.691.775-1.195.99-.438.187-1.217.365-2.563-.064a2.917 2.917 0 1 0-1.772 5.56c2.565.818 4.794.654 6.626-.128 1.766-.754 2.904-1.97 3.561-2.839a2.919 2.919 0 0 0-.569-4.087z" fill="#fff"/><path d="M71.816 7.29H27.59c-.672 0-1.217.545-1.217 1.217v59.239c0 .672.545 1.217 1.217 1.217h44.226c.672 0 1.217-.545 1.217-1.217V8.507c0-.672-.544-1.217-1.217-1.217z" fill="#E5E5E5"/><path fill-rule="evenodd" clip-rule="evenodd" d="M73.034 22.237L28.67 67.125l9.295 1.838h7.277l27.79-27.79V22.237zM66.42 7.29H47.483L26.373 28.4v18.936L66.419 7.29z" fill="#fff"/><path fill-rule="evenodd" clip-rule="evenodd" d="M68.947 14.617c-4.772 3.196-4.882-3.994-10.069-3.598-5.187.397-6.6 7.344-1.236 9.801 5.364 2.458 2.208 10.529 8.832 9.77 6.624-.76 1.855-6.982 6.447-9.264 4.593-2.282.797-9.904-3.974-6.709zM69.99 56.028L68.036 59.5a2.834 2.834 0 1 0 4.94 0l-1.954-3.473a.592.592 0 0 0-1.032 0z" fill="#979797"/><path d="M53.622 38.13h5.384a3.768 3.768 0 1 1 0 7.538h-5.384a3.768 3.768 0 1 1 0-7.537z" fill="#979797"/><path d="M70.633 40.396h-8.614a4.845 4.845 0 0 0 0 9.69h8.614a4.845 4.845 0 1 0 0-9.69z" fill="#979797"/><path fill-rule="evenodd" clip-rule="evenodd" d="M44.97 9.148h2.153a2.692 2.692 0 0 1 0 5.384h-2.154a2.692 2.692 0 0 1 0-5.384z" fill="#979797"/><path d="M31.98 9.215a2.146 2.146 0 0 0-4.293 0v11.16a2.146 2.146 0 0 0 4.293 0V9.215z" fill="#979797"/><path d="M39.706 12.649a4.722 4.722 0 0 0-9.443 0v1.716a4.722 4.722 0 1 0 9.443 0V12.65z" fill="#979797"/><path fill-rule="evenodd" clip-rule="evenodd" d="M28.806 9.724v56.804h41.792V9.724H28.806zm-4.869-1.217a3.652 3.652 0 0 1 3.652-3.652h44.226a3.652 3.652 0 0 1 3.652 3.652v59.239a3.652 3.652 0 0 1-3.652 3.651H27.59a3.652 3.652 0 0 1-3.651-3.651V8.507z" fill="#CECECE"/><path d="M73.033 34.475h-46.66v6.086h46.66v-6.086z" fill="#CECECE"/><path d="M51.123 38.532V6.072h-2.84v32.46h2.84z" fill="#CECECE"/><path d="M73.844 68.963h-48.69c-.671 0-1.216.545-1.216 1.217v4.869c0 .672.545 1.217 1.217 1.217h48.689c.672 0 1.217-.545 1.217-1.217V70.18c0-.672-.545-1.217-1.217-1.217z" fill="#979797"/><path d="M77.09 66.934H22.313a.406.406 0 0 0-.406.406v3.246c0 .224.182.406.406.406h54.775a.406.406 0 0 0 .406-.406V67.34a.406.406 0 0 0-.406-.406z" fill="#CECECE"/><path d="M108.512 76.894l7.234-1.57c3.996-.868 7.994 1.927 8.931 6.242l6.447 29.691c.187.863-.309 1.703-1.108 1.877l-11.575 2.513c-.799.173-1.599-.386-1.786-1.249l-7.295-33.597-.848-3.907z" fill="#E5E5E5"/><path d="M129.262 102.691l-14.469 3.142.942 4.34 14.47-3.141-.943-4.341z" fill="#B2B2B2"/><path d="M112.504 81.33a2.222 2.222 0 0 1 4.341-.942l4.657 21.45a.998.998 0 0 1-.765 1.189l-3.363.731-4.87-22.428z" fill="#D8D8D8"/><path d="M113.223 98.598l4.341-.942 1.256 5.787-4.34.943-1.257-5.788z" fill="#D8D8D8"/><path d="M104.172 77.837l7.235-1.571.314 1.447 4.712 21.704c.174.799-.495 1.622-1.494 1.839l-10.852 2.357c-.999.217-1.949-.255-2.123-1.055l-3.77-17.363c-.694-3.196 1.983-6.49 5.978-7.358z" fill="#E5E5E5"/><path d="M114.7 91.447l-14.47 3.142.943 4.34 14.469-3.141-.942-4.34z" fill="#B2B2B2"/><path d="M111.663 73.075l-10.866 29.855a4.71 4.71 0 0 1-6.038 2.816l-14.55-5.296a4.71 4.71 0 0 1-2.586-6.565l4.956-9.73a5.89 5.89 0 0 1 4.03-3.088l9.28-1.959 9.983-9.767a3.534 3.534 0 0 1 5.791 3.734z" fill="#fff"/><path fill-rule="evenodd" clip-rule="evenodd" d="M87.006 84.019l9.065-2.063a4.71 4.71 0 0 1 2.656.167l4.457 1.622a2.356 2.356 0 0 1 1.408 3.02l-5.438 14.94a2.355 2.355 0 0 1-3.02 1.408L81.4 97.75a2.356 2.356 0 0 1-1.327-3.213l3.712-7.923a4.711 4.711 0 0 1 3.22-2.595z" fill="#B2B2B2"/><path fill-rule="evenodd" clip-rule="evenodd" d="M87.006 84.019l9.065-2.063a4.71 4.71 0 0 1 2.656.167l4.457 1.622a2.356 2.356 0 0 1 1.408 3.02l-5.438 14.94a2.355 2.355 0 0 1-3.02 1.408L81.4 97.75a2.356 2.356 0 0 1-1.327-3.213l3.712-7.923a4.711 4.711 0 0 1 3.22-2.595z" fill="#B2B2B2"/><path d="M96.012 64.423l-4.611-1.678a.981.981 0 0 0-1.258.587l-1.007 2.766a.982.982 0 0 0 .586 1.258l4.612 1.679a.981.981 0 0 0 1.258-.587l1.007-2.767a.982.982 0 0 0-.587-1.258z" fill="#979797"/><path fill-rule="evenodd" clip-rule="evenodd" d="M100.201 67.514a1.472 1.472 0 0 1 .88 1.887c-.909 2.498-2.196 4.475-3.95 5.758-1.782 1.304-3.903 1.786-6.25 1.541a1.472 1.472 0 0 1 .305-2.929c1.735.182 3.1-.18 4.206-.988 1.135-.83 2.138-2.236 2.922-4.389a1.472 1.472 0 0 1 1.887-.88zM109.15 79.982l2.514-6.907c.179-.49.243-1.004.201-1.505l-6.028-2.194-7.003 6.852 10.316 3.754z" fill="#979797"/><path d="M112.363 68.285L96.684 62.58a.982.982 0 0 0-1.258.587l-2.35 6.456a.981.981 0 0 0 .587 1.257l15.679 5.707a.982.982 0 0 0 1.258-.587l2.35-6.456a.982.982 0 0 0-.587-1.258z" fill="#fff"/><path d="M67.847 87.136l-9.032-13.169c-.384-.558-1.144-.737-1.667-.306-3.754 3.099-2.873 8.99-1.694 11.53.03.062.064.121.105.177 3.08 4.314 8.31 4.274 11.58 3.64.856-.165 1.202-1.152.708-1.872z" fill="#BFBFBF"/><path d="M9.678 70.218h.002a7.494 7.494 0 0 1 6.18-8.468l34.825-5.825a7.494 7.494 0 0 1 8.6 5.996h.001l5.695 34.047a2.593 2.593 0 0 0 2.985 2.13l5.023-.84a1.08 1.08 0 0 1 1.244.888c.963 5.757-2.924 11.205-8.682 12.168l-46.049 7.702c-5.757.963-11.206-2.924-12.169-8.681a1.08 1.08 0 0 1 .888-1.244l5.022-.84a2.593 2.593 0 0 0 2.13-2.986L9.678 70.218z" fill="#BFBFBF"/><path d="M13.57 70.56l42.147-7.049 7.034 42.056-42.146 7.05-7.035-42.056z" fill="#D8D8D8"/><path d="M14.723 89.8a4.716 4.716 0 1 0-1.556-9.302 4.716 4.716 0 0 0 1.556 9.302zM60.888 82.079a4.716 4.716 0 1 0-1.556-9.302 4.716 4.716 0 0 0 1.556 9.302z" fill="#D8D8D8"/><path d="M18.663 113.712a1.296 1.296 0 0 1 1.065-1.492l43.723-7.313a1.296 1.296 0 0 1 1.493 1.065l.725 4.332a1.296 1.296 0 0 1-1.065 1.493L20.88 119.11a1.297 1.297 0 0 1-1.493-1.065l-.725-4.333z" fill="#979797"/><path d="M11.518 81.107a4.716 4.716 0 0 1 6.208 1.215 5.256 5.256 0 0 0 1.182-4.282l-1.089-6.512-7.688 1.286 1.387 8.293zM55.623 75.99a4.716 4.716 0 0 1 5.465-3.178l-1.386-8.29-7.688 1.287 1.089 6.512a5.256 5.256 0 0 0 2.52 3.669z" fill="#BFBFBF"/><path d="M8.075 69.088a1.297 1.297 0 0 1 1.065-1.493l49.801-8.33a1.297 1.297 0 0 1 1.493 1.066l.59 3.528a1.297 1.297 0 0 1-1.065 1.493l-49.8 8.33a1.297 1.297 0 0 1-1.494-1.065l-.59-3.53z" fill="#979797"/><path d="M39.407 109.654a.935.935 0 0 1 .777-.856l2.811-.47a.934.934 0 0 1 1.014.556l3.135 7.381a.934.934 0 0 1-.706 1.286l-6.509 1.088a.933.933 0 0 1-1.085-.986l.563-7.999z" fill="#fff"/><path fill-rule="evenodd" clip-rule="evenodd" d="M59.335 96.194c.292.246.33.682.084.974-2.432 2.893-6.127 3.248-7.693 3.071a.692.692 0 0 1 .156-1.374c1.3.147 4.452-.176 6.479-2.587a.692.692 0 0 1 .974-.084zM35.018 87.795c.3.236.35.671.114.971-2.498 3.163-6.015 3.775-7.893 3.578a.691.691 0 1 1 .144-1.376c1.509.158 4.518-.342 6.664-3.06.236-.299.671-.35.971-.113z" fill="#CECECE"/><path d="M37.012 80.629a6.861 6.861 0 1 1-13.534 2.264 6.861 6.861 0 0 1 13.534-2.264z" fill="#fff"/><path d="M36.826 80.66a6.861 6.861 0 1 0 13.534-2.264 6.861 6.861 0 0 0-13.534 2.264z" fill="#fff"/><path d="M35.213 80.93a1.764 1.764 0 1 1-3.479.582 1.764 1.764 0 0 1 3.479-.582zM38.627 80.36a1.763 1.763 0 1 0 3.478-.582 1.763 1.763 0 0 0-3.478.581z" fill="#979797"/><path fill-rule="evenodd" clip-rule="evenodd" d="M49.41 93.001c-.997.853-1.846 2.338-2.256 3.492a4.106 4.106 0 1 1-7.738-2.749c.707-1.99 2.214-4.893 4.653-6.981 1.262-1.08 2.9-2.047 4.9-2.415 2.051-.376 4.18-.066 6.258.943a4.106 4.106 0 0 1-3.587 7.387c-.64-.311-1-.287-1.187-.253-.237.044-.588.187-1.044.576z" fill="#979797"/><path fill-rule="evenodd" clip-rule="evenodd" d="M51.798 97.695a4.22 4.22 0 0 0-.164.39 8.86 8.86 0 0 1-16.698-5.933c.879-2.474 2.767-6.198 6.041-9 1.728-1.48 4.11-2.924 7.132-3.48 3.132-.575 6.285-.07 9.194 1.342a8.86 8.86 0 0 1-5.505 16.68zm-4.644-1.202c.41-1.154 1.259-2.638 2.255-3.492.456-.39.806-.532 1.044-.576.187-.034.546-.058 1.187.253a4.106 4.106 0 1 0 3.587-7.387c-2.078-1.01-4.207-1.32-6.258-.943-2 .368-3.638 1.334-4.9 2.415-2.44 2.088-3.946 4.99-4.653 6.981a4.106 4.106 0 0 0 7.738 2.75z" fill="#D8D8D8"/><path d="M56.765 86.585a4.088 4.088 0 0 0-1.54-1.294c-2.078-1.01-4.207-1.32-6.258-.943-2 .368-3.638 1.334-4.9 2.415a14.616 14.616 0 0 0-2.339 2.575c.345.215.767.31 1.2.238l2.104-.352a1.73 1.73 0 0 0 1.398-1.307c.36.57 1.04.899 1.746.78l2.105-.351a1.73 1.73 0 0 0 1.397-1.307c.361.57 1.04.9 1.747.78l2.104-.351c.547-.092.99-.43 1.236-.883z" fill="#fff"/><path d="M39.179 95.051a8.567 8.567 0 0 1 2.337-.745 8.532 8.532 0 0 1 6.04 1.24 9.1 9.1 0 0 0-.401.947 4.106 4.106 0 0 1-7.976-1.442zM37.093 81.677c.11-.018 1.352 1.375 2.624 2.842 1.267 1.46.434 3.73-1.472 4.049-1.906.319-3.432-1.557-2.71-3.35.726-1.8 1.446-3.522 1.558-3.54zM28.04 48.864l-.76-3.895c-.142-.774-.814-1.07-1.504-.695-3.316 1.805-5.137 5.597-4.435 9.41a9.091 9.091 0 0 0 .113.525 8.752 8.752 0 0 0-4.87 1.698c-.632.466-.647 1.201-.006 1.657l6.908 5.029c1.945 4.274 6.578 6.887 11.43 6.075 5.791-.968 9.7-6.448 8.732-12.239-.969-5.79-6.448-9.7-12.24-8.731a10.615 10.615 0 0 0-3.367 1.166z" fill="#BFBFBF"/><path d="M21.701 84.047a1.509 1.509 0 1 1-2.975.498 1.509 1.509 0 0 1 2.975-.498zM50.067 70.14a1.509 1.509 0 1 1-2.976.497 1.509 1.509 0 0 1 2.976-.497zM20.408 88.016l2.05 1.522c1.737 1.292 1.075 4.037-1.06 4.395-2.136.357-3.656-2.024-2.432-3.81l1.442-2.107z" fill="#fff"/></svg>