<svg viewBox="0 0 135 125" fill="none" xmlns="http://www.w3.org/2000/svg"><g clip-path="url(#clip0_302_3270)"><path d="M107 11.918H28c-9.389 0-17 7.61-17 17v79c0 9.389 7.611 17 17 17h79c9.389 0 17-7.611 17-17v-79c0-9.39-7.611-17-17-17z" fill="#BFBFBF"/><path fill-rule="evenodd" clip-rule="evenodd" d="M58.351 73.147a4.856 4.856 0 0 1 4.856-4.856h19.31a4.856 4.856 0 0 1 4.856 4.856v10.977a4.856 4.856 0 0 1-4.856 4.856h-19.31a4.856 4.856 0 0 1-4.856-4.856V73.147zm5.23.373v10.23h18.562V73.52H63.581z" fill="#959595"/><path d="M24.435 82.858a2.989 2.989 0 0 1 2.988-2.989h67.989a2.989 2.989 0 0 1 2.988 2.989v28.764a2.989 2.989 0 0 1-2.988 2.989H27.423a2.989 2.989 0 0 1-2.988-2.989V82.858z" fill="#959595"/><path d="M39.003 82.858a2.989 2.989 0 0 1 2.989-2.989h71.588a2.988 2.988 0 0 1 2.988 2.989v28.764a2.989 2.989 0 0 1-2.988 2.989H41.992a2.989 2.989 0 0 1-2.989-2.989V82.858z" fill="#A2A2A2"/><path d="M62.876 97.44a9.525 9.525 0 0 1-9.526 9.526 9.526 9.526 0 1 1 9.526-9.525z" fill="#959595"/><path fill-rule="evenodd" clip-rule="evenodd" d="M65.117 97.44c0 6.499-5.268 11.768-11.767 11.768s-11.767-5.269-11.767-11.767c0-6.5 5.268-11.768 11.767-11.768s11.767 5.269 11.767 11.768zm-11.767 9.526a9.526 9.526 0 1 0 0-19.05 9.526 9.526 0 0 0 0 19.05z" fill="#BFBFBF"/><path fill-rule="evenodd" clip-rule="evenodd" d="M45.557 89.648a1.12 1.12 0 0 1 1.585 0l14 13.999a1.12 1.12 0 0 1-1.585 1.585l-14-14a1.12 1.12 0 0 1 0-1.584zM49.619 86.511a1.12 1.12 0 0 1 1.585 0l13.075 13.076a1.121 1.121 0 0 1-1.584 1.585L49.618 88.096a1.12 1.12 0 0 1 0-1.585zM42.421 93.71a1.12 1.12 0 0 1 1.585 0l13.075 13.075a1.12 1.12 0 0 1-1.585 1.585L42.421 95.295a1.12 1.12 0 0 1 0-1.585z" fill="#BFBFBF"/><path d="M102.058 87.915a9.526 9.526 0 1 1 0 19.052 9.526 9.526 0 0 1 0-19.052z" fill="#959595"/><path fill-rule="evenodd" clip-rule="evenodd" d="M102.058 85.674c6.499 0 11.767 5.268 11.767 11.767s-5.268 11.767-11.767 11.767-11.767-5.268-11.767-11.767c0-6.5 5.268-11.767 11.767-11.767zm9.526 11.767a9.526 9.526 0 0 0-19.052 0 9.526 9.526 0 1 0 19.052 0z" fill="#BFBFBF"/><path fill-rule="evenodd" clip-rule="evenodd" d="M94.265 105.234a1.12 1.12 0 0 1 0-1.585l14-14a1.12 1.12 0 0 1 1.585 1.585l-14 14a1.12 1.12 0 0 1-1.585 0zM91.129 101.172a1.121 1.121 0 0 1 0-1.585l13.075-13.076a1.12 1.12 0 0 1 1.585 1.585l-13.075 13.076a1.122 1.122 0 0 1-1.585 0zM98.327 108.37a1.12 1.12 0 0 1 0-1.585l13.076-13.076a1.12 1.12 0 0 1 1.585 1.585L99.912 108.37a1.122 1.122 0 0 1-1.585 0z" fill="#BFBFBF"/><path d="M69.302 94.28a2.241 2.241 0 0 1 2.242-2.24h12.711a2.241 2.241 0 0 1 2.241 2.24v6.69a2.241 2.241 0 0 1-2.241 2.241H71.544a2.241 2.241 0 0 1-2.242-2.241v-6.69z" fill="#A2A2A2"/><path fill-rule="evenodd" clip-rule="evenodd" d="M71.544 89.798h12.711a4.483 4.483 0 0 1 4.483 4.483v6.689a4.483 4.483 0 0 1-4.483 4.483H71.544a4.483 4.483 0 0 1-4.483-4.483v-6.69a4.483 4.483 0 0 1 4.483-4.482zm0 2.241a2.241 2.241 0 0 0-2.242 2.242v6.689a2.241 2.241 0 0 0 2.242 2.241h12.711a2.241 2.241 0 0 0 2.241-2.241v-6.69a2.241 2.241 0 0 0-2.241-2.24H71.544z" fill="#BFBFBF"/><path d="M81.92 103.211h2.335a2.241 2.241 0 0 0 2.242-2.241v-6.69a2.242 2.242 0 0 0-2.242-2.24H81.92a2.242 2.242 0 0 1 2.242 2.24v6.69a2.241 2.241 0 0 1-2.242 2.241zM75.162 97.625a1.927 1.927 0 1 1-3.854 0 1.927 1.927 0 0 1 3.854 0zM81.36 97.625a1.927 1.927 0 1 1-3.855 0 1.927 1.927 0 0 1 3.854 0z" fill="#959595"/><path fill-rule="evenodd" clip-rule="evenodd" d="M94.793 66.92l-2.311 3.778a1.107 1.107 0 0 0 .367 1.522l3.778 2.311c.521.32 1.203.155 1.522-.366l2.311-3.778a1.107 1.107 0 0 0-.366-1.523l-3.778-2.311a1.107 1.107 0 0 0-1.523.367zM59.7 36.96l-1.668 2.725a.798.798 0 0 0 .265 1.098l2.724 1.666a.798.798 0 0 0 1.098-.264l1.666-2.724a.798.798 0 0 0-.264-1.098l-2.724-1.667a.798.798 0 0 0-1.098.265zM70.692 27.938l-1.184 1.935a.567.567 0 0 0 .188.78l1.935 1.184c.267.163.616.08.78-.188l1.183-1.935a.567.567 0 0 0-.187-.78l-1.935-1.184a.567.567 0 0 0-.78.188zM35.932 64.61l-1.871 3.06a.897.897 0 0 0 .297 1.232l3.059 1.872a.897.897 0 0 0 1.233-.297l1.872-3.06a.897.897 0 0 0-.297-1.232l-3.06-1.872a.897.897 0 0 0-1.233.297z" fill="#D1D1D1"/><path fill-rule="evenodd" clip-rule="evenodd" d="M91.577 20.889l-2.311 3.778a1.107 1.107 0 0 0 .366 1.522L93.41 28.5c.522.32 1.204.155 1.523-.366l2.311-3.778a1.107 1.107 0 0 0-.366-1.523L93.1 20.523a1.107 1.107 0 0 0-1.523.367z" fill="#ADE756"/><path d="M10.594 22.5C13.227 13.41 22.062 7.567 31.459 8.703c9.397 1.137 16.585 8.918 16.974 18.375l1.272 30.906a1.31 1.31 0 0 1-1.467 1.355l-45.146-5.46a1.31 1.31 0 0 1-1.101-1.666l8.603-29.711z" fill="#A2A2A2"/><rect x="21.809" y="48.467" width="9.612" height="7.619" rx=".5" transform="rotate(6.896 21.809 48.467)" fill="#959595"/><path d="M12.354 24.759a11.347 11.347 0 0 1 12.241-9.161c.466 5.17 4.487 9.491 9.847 10.14l13.422 1.623a3.798 3.798 0 0 1-.717 7.56l-.54 10.438a5.674 5.674 0 0 1-6.347 5.34l-26.093-3.156a5.673 5.673 0 0 1-4.891-6.7l3.078-16.084z" fill="#D1D1D1"/><path d="M39.994 28.577l-9.975 1.33c-.31.566-.52 1.2-.601 1.88l-.403 3.328-.01.09 9.93-.028c.228-.49.384-1.022.453-1.588l.606-5.012zM23.386 25.792a5.226 5.226 0 0 1 4.56 5.816l-.402 3.33c-.005.04-.01.079-.017.118l-9.625-2.392a5.22 5.22 0 0 1-.068-1.681l.62-5.129a.653.653 0 0 1 .728-.57l4.204.508z" fill="#fff"/><path d="M35.144 31.126l-.112.93a2.27 2.27 0 0 0 4.343 1.161c.153-.359-.048-.748-.38-.952l-1.358-.837-2.493-.302zM23.594 29.734l-.113.93a2.27 2.27 0 0 0 4.397 1.023c.103-.293-.018-.606-.24-.823l-.741-.73-3.303-.4z" fill="#959595"/><path d="M27.92 31.829L17.88 30.614l.576-4.76a.653.653 0 0 1 .727-.57l4.204.508a5.226 5.226 0 0 1 4.56 5.816l-.026.22zM39.432 33.221l-10.041-1.214.027-.22c.082-.68.291-1.314.6-1.88l9.976-1.33-.562 4.644z" fill="#A2A2A2"/><path d="M28.288 34.92c.093.011.757 1.414 1.427 2.882.667 1.461-.53 3.077-2.124 2.884-1.595-.193-2.372-2.047-1.375-3.307 1-1.266 1.98-2.47 2.072-2.459z" fill="#959595"/><path d="M20.353 52.128l4.63-38.287-1.957-.236a10.153 10.153 0 0 0-10.995 7.337l-8.19 29.19 16.512 1.996z" fill="#A2A2A2"/><path fill-rule="evenodd" clip-rule="evenodd" d="M30.09 42.744c.992.096 1.648.61 1.911 1.194a.653.653 0 1 1-1.191.536c-.044-.097-.25-.372-.845-.43-.607-.058-1.624.118-3.164 1.012a.653.653 0 1 1-.656-1.13c1.669-.97 2.965-1.277 3.945-1.182z" fill="#959595"/><path d="M116.676 13.42h-.001a6.187 6.187 0 0 0-7.542-4.245L80.975 16.72a6.187 6.187 0 0 0-4.408 7.448h-.001l7.376 27.53a2.141 2.141 0 0 1-1.514 2.622l-4.06 1.088a.892.892 0 0 0-.631 1.093 8.727 8.727 0 0 0 10.688 6.17l37.233-9.976a8.727 8.727 0 0 0 6.171-10.688.893.893 0 0 0-1.093-.631l-4.061 1.088a2.14 2.14 0 0 1-2.622-1.514l-7.377-27.53z" fill="#A2A2A2"/><path d="M113.87 15.011l-34.078 9.131 9.111 34.005 34.078-9.131-9.111-34.005z" fill="#D1D1D1"/><path d="M119.59 29.86a3.893 3.893 0 1 1-2.015-7.52 3.893 3.893 0 0 1 2.015 7.52zM82.263 39.862a3.893 3.893 0 1 1-2.016-7.521 3.893 3.893 0 0 1 2.016 7.521z" fill="#D1D1D1"/><path d="M124.815 49.174a1.07 1.07 0 0 0-1.311-.757L88.151 57.89a1.07 1.07 0 0 0-.757 1.311l.939 3.503c.153.571.74.91 1.311.757l35.353-9.472c.571-.153.91-.74.757-1.312l-.939-3.503z" fill="#959595"/><path d="M119.022 22.232a3.893 3.893 0 0 0-4.248 3.038 4.338 4.338 0 0 1-2.354-2.812l-1.411-5.266 6.216-1.665 1.797 6.705zM84.134 33.485a3.893 3.893 0 0 0-5.194-.517l-1.796-6.702 6.217-1.665 1.41 5.265a4.34 4.34 0 0 1-.637 3.62z" fill="#A2A2A2"/><path d="M117.494 12.024a1.07 1.07 0 0 0-1.311-.757l-40.267 10.79a1.07 1.07 0 0 0-.757 1.31l.765 2.853c.153.572.74.91 1.31.757l40.268-10.79c.571-.152.91-.74.757-1.31l-.765-2.853z" fill="#959595"/><path d="M95.088 21.064a8.641 8.641 0 1 0-6.745-13.501l-1.549-1.87c-.426-.515-1.22-.518-1.557.06a7.506 7.506 0 0 0-1.012 3.444 7.533 7.533 0 0 0 3.285 6.574 8.641 8.641 0 0 0 7.578 5.293z" fill="#A2A2A2"/><path d="M107.841 53.225a.771.771 0 0 0-.877-.376l-2.273.61a.771.771 0 0 0-.571.764l.171 6.618a.771.771 0 0 0 .97.725l5.263-1.41a.771.771 0 0 0 .478-1.113l-3.161-5.818z" fill="#fff"/><path d="M100.003 31.415c-.09.024-.546 1.496-1 3.033-.451 1.53.951 2.951 2.493 2.538 1.541-.413 2.045-2.344.889-3.444-1.162-1.105-2.293-2.151-2.382-2.127z" fill="#959595"/><path d="M103.095 20.776a4.873 4.873 0 0 1 5.969 3.447l.768 2.863a4.86 4.86 0 0 1 .136 1.81 3.915 3.915 0 0 0-2.433 1l-1.491 1.333a31.651 31.651 0 0 1-2.225 1.816 4.872 4.872 0 0 1-3.403-3.436l-.767-2.864a4.874 4.874 0 0 1 3.446-5.969zM97.982 27.192a4.874 4.874 0 1 0-9.416 2.523l.768 2.863a4.874 4.874 0 1 0 9.415-2.522l-.767-2.864z" fill="#fff"/><path d="M110.94 32.353a.914.914 0 0 0-1.386-.2l-1.491 1.333a34.77 34.77 0 0 1-10.294 6.377l-1.857.741a.914.914 0 0 0-.438 1.33l1.465 2.366a9.097 9.097 0 0 0 15.466-9.581l-1.465-2.366z" fill="#A41414"/><path d="M110.94 32.353a.914.914 0 0 0-1.386-.2l-1.491 1.333a34.77 34.77 0 0 1-10.294 6.377l-1.857.741a.914.914 0 0 0-.438 1.33l1.465 2.366a9.097 9.097 0 0 0 15.466-9.582l-1.465-2.365z" fill="#959595"/><path d="M95.37 41.205a.91.91 0 0 1 .542-.6l1.857-.742a34.768 34.768 0 0 0 10.294-6.377l1.49-1.333a.914.914 0 0 1 1.386.2l1.466 2.365c.442.714.773 1.465.999 2.233a1.51 1.51 0 0 1-.936.734l-1.829.49a1.514 1.514 0 0 1-1.599-.548 1.516 1.516 0 0 1-1.111 1.274l-1.83.49a1.515 1.515 0 0 1-1.599-.548 1.513 1.513 0 0 1-1.111 1.274l-1.829.49a1.515 1.515 0 0 1-1.6-.547 1.515 1.515 0 0 1-1.11 1.274l-1.83.49a1.515 1.515 0 0 1-1.65-.619z" fill="#fff"/><path d="M103.661 48.55a9.057 9.057 0 0 0 5.802-1.308 9.076 9.076 0 0 0 4.2-6.347 8.72 8.72 0 0 0-10.002 7.655z" fill="#BFBFBF"/><path d="M103.99 32.917a4.296 4.296 0 0 1-3.62-4.408 1.845 1.845 0 0 1 3.641.137c.02.162.088.317.21.447s.273.207.433.236a1.846 1.846 0 0 1 1.512 1.791l-.122.11a31.789 31.789 0 0 1-2.054 1.687zM93.545 35.927a1.846 1.846 0 0 0 .08-3.642.784.784 0 0 1-.433-.237.783.783 0 0 1-.21-.447 1.845 1.845 0 0 0-3.642-.137 4.295 4.295 0 0 0 4.053 4.455l.152.008z" fill="#959595"/><path d="M61.54 61.658l.037-.116c.035-.098.068-.198.095-.3l1.835-5.786 5.701 2.514a1.528 1.528 0 0 0 2.072-.933l1.149-3.594a1.528 1.528 0 0 0-.839-1.863l-6.396-2.821a1.834 1.834 0 0 0-2.487 1.119l-2.189 6.84c-.883-.908-2.122-1.414-3.431-1.272-2.337.253-4.012 2.475-3.742 4.96.27 2.486 2.383 4.296 4.72 4.042 1.617-.175 2.916-1.294 3.474-2.79h.001zM65.085 19.512l-.076-.116a4.773 4.773 0 0 0-.196-.3L61.04 13.31l6.322-3.208a1.738 1.738 0 0 0 .672-2.496l-2.337-3.601a1.738 1.738 0 0 0-2.245-.604L56.36 7a2.086 2.086 0 0 0-.807 2.995L60 16.853c-1.437.123-2.775.85-3.593 2.104-1.46 2.24-.712 5.315 1.671 6.869 2.384 1.553 5.5.996 6.96-1.244 1.01-1.55.962-3.5.047-5.068v-.002zM4.458 68.288l4.086 9.243a4.087 4.087 0 0 0-1.992.332c-2.194.97-3.13 3.66-2.092 6.007 1.038 2.348 3.658 3.466 5.851 2.496 2.193-.97 3.13-3.66 2.091-6.007L9.118 72.93a.612.612 0 0 1 .313-.808l9.138-4.04a.613.613 0 0 1 .808.312l1.608 3.637a4.087 4.087 0 0 0-1.992.331c-2.193.97-3.13 3.66-2.091 6.008 1.038 2.348 3.658 3.465 5.85 2.496 2.194-.97 3.13-3.66 2.092-6.008L19.08 61.824a1.226 1.226 0 0 0-1.617-.626l-12.38 5.474c-.62.273-.9.997-.626 1.616zM121.528 63.776l-4.197 7.267a3.396 3.396 0 0 0-1.198-1.174c-1.725-.995-3.986-.306-5.052 1.54-1.066 1.846-.533 4.15 1.191 5.146 1.725.995 3.987.306 5.053-1.54l3.372-5.84a.51.51 0 0 1 .696-.187l7.184 4.149c.244.14.327.452.186.695l-1.651 2.86a3.389 3.389 0 0 0-1.197-1.174c-1.725-.996-3.987-.306-5.053 1.54-1.066 1.846-.532 4.15 1.192 5.145 1.724.996 3.986.306 5.052-1.54l5.918-10.248a1.018 1.018 0 0 0-.372-1.39l-9.734-5.621a1.017 1.017 0 0 0-1.39.372z" fill="#A2A2A2"/></g><defs><clipPath id="clip0_302_3270"><path fill="#fff" transform="translate(0 .918)" d="M0 0h135v124H0z"/></clipPath></defs></svg>