<svg viewBox="0 0 135 124" fill="none" xmlns="http://www.w3.org/2000/svg"><g clip-path="url(#clip0)"><path d="M107 11H28c-9.389 0-17 7.611-17 17v79c0 9.389 7.611 17 17 17h79c9.389 0 17-7.611 17-17V28c0-9.389-7.611-17-17-17z" fill="#FFCA00"/><path d="M11 65.544V107c0 2.749.653 5.346 1.811 7.644L114.644 12.811A16.928 16.928 0 0 0 107 11H65.544L11 65.544zM76.456 124l33.272-33.272c7.029-7.03 7.029-18.427 0-25.456-7.03-7.03-18.426-7.03-25.456 0l-58.574 58.574c.753.101 1.521.154 2.302.154h48.456z" fill="#FFD900"/><path d="M11.718 66.933l-3.316 1.895c-.543.305-.73 1.02-.426 1.564l7.316 12.464 14.81 9.737 3.338-5.073-11.428-7.51c-.883-.617-1.651-1.37-2.248-2.331l-6.488-10.383c-.304-.543-1.014-.667-1.558-.363z" fill="#FFB100"/><path d="M32.767 88.472l-3.339 5.072-26.982-17.75c-.676-.445-.821-1.32-.439-1.99l1.724-2.637c.445-.677 1.32-.821 1.99-.439l27.046 17.744z" fill="#FFCA00"/><path d="M.864 83.37l.376-3.464a1.284 1.284 0 0 1 1.48-1.153l11.686 1.391c1.603.17 3.184.784 4.537 1.675l12.711 8.344-3.338 5.072-10.82-7.123a11.084 11.084 0 0 0-4.217-1.64L2.011 84.787c-.767-.055-1.209-.713-1.147-1.417z" fill="#FFB100"/><path d="M35.883 95.358l.32 2.764 11.205-1.04-.194-2.776-11.331 1.052z" fill="#3E3E3E"/><path d="M38.047 89.252a7.27 7.27 0 1 0-1.344-14.48 7.27 7.27 0 0 0 1.344 14.48z" fill="#FFB100"/><path d="M31.114 94.594a7.27 7.27 0 1 0-1.344-14.48 7.27 7.27 0 0 0 1.344 14.48z" fill="#FFCA00"/><path fill-rule="evenodd" clip-rule="evenodd" d="M45.76 69.082a1.477 1.477 0 0 1 1.609 1.335l1.344 14.48a1.477 1.477 0 0 1-2.942.272L44.426 70.69a1.477 1.477 0 0 1 1.335-1.608z" fill="#E27903"/><path d="M63.632 83.067c.628-.757.78-1.85.315-2.76-.465-.91-1.348-1.526-2.361-1.495.227-.974-.055-1.963-.881-2.649-.826-.685-1.85-.78-2.765-.378-.214-.932-.925-1.755-1.899-1.982-1.036-.222-2.02.124-2.648.88a2.578 2.578 0 0 0-2.63-.962c-.995.22-1.75.988-2.045 1.904-.865-.427-1.941-.39-2.77.258s-1.182 1.633-.968 2.566c-.956-.038-1.922.496-2.407 1.43-.485.934-.386 2.004.194 2.775a2.603 2.603 0 0 0-1.564 2.305c-.026 1.081.57 2.042 1.499 2.464-.73 1.02-.596 2.468.378 3.393.975.926 2.44.98 3.44.125a2.712 2.712 0 0 0 2.287 1.375c.824-.013 1.62-.34 2.07-.954.5.589 1.239 1.028 2.063 1.015.824-.013 1.62-.34 2.07-.954a2.591 2.591 0 0 0 2.063 1.015c.956.038 1.796-.484 2.298-1.23.97.863 2.372.923 3.372.069 1.063-.861 1.312-2.281.635-3.425.978-.408 1.657-1.296 1.62-2.373a2.433 2.433 0 0 0-1.366-2.412z" fill="#FFB100"/><path d="M62.782 108.099l-28.203 2.618c-1.007.094-1.89-.523-2.23-1.443l-1.673-22.132L67.44 83.73l-2.733 22.54c-.164.968-.918 1.737-1.925 1.83z" fill="#F79B24"/><path d="M67.43 85L30.793 88.4a1.767 1.767 0 0 1-1.926-1.599l-.052-.566a1.767 1.767 0 0 1 1.599-1.927l36.638-3.401a1.767 1.767 0 0 1 1.926 1.599l.053.566c.15.939-.592 1.833-1.6 1.927z" fill="#FFBB31"/><path fill-rule="evenodd" clip-rule="evenodd" d="M50.143 89.112a.81.81 0 0 1 .706.9l-1.905 15.734a.809.809 0 1 1-1.607-.195l1.905-15.733a.81.81 0 0 1 .9-.706zM54.55 88.703a.81.81 0 0 1 .706.9l-1.905 15.734a.81.81 0 0 1-1.606-.195l1.904-15.733a.81.81 0 0 1 .9-.706zM58.955 88.294a.81.81 0 0 1 .706.9l-1.904 15.734a.81.81 0 0 1-1.607-.195L58.054 89a.81.81 0 0 1 .901-.706zM63.237 87.897a.81.81 0 0 1 .706.9l-1.905 15.733a.809.809 0 1 1-1.606-.194l1.904-15.733a.81.81 0 0 1 .9-.706z" fill="#F08904"/><path d="M42.26 110.004l-23.104 2.145c-1.008.094-1.89-.523-2.23-1.443l-6.773-21.658 36.765-3.414-2.733 22.541c-.102.962-.919 1.736-1.926 1.829z" fill="#FFBB31"/><path d="M46.972 86.9L10.27 90.306a1.767 1.767 0 0 1-1.926-1.6l-.052-.566a1.767 1.767 0 0 1 1.599-1.926l36.638-3.402a1.767 1.767 0 0 1 1.926 1.6l.053.566c.15.938-.592 1.832-1.536 1.92z" fill="#FFF1A2"/><path fill-rule="evenodd" clip-rule="evenodd" d="M31.16 69.787a2.125 2.125 0 0 0-1.92 2.313l1.32 14.228a1.477 1.477 0 0 1-2.942.273l-1.32-14.228c-.265-2.843 1.842-5.274 4.589-5.529l10.954-1.017c2.843-.264 5.274 1.843 5.529 4.59a1.478 1.478 0 0 1-2.942.273 2.125 2.125 0 0 0-2.314-1.92L31.16 69.786z" fill="#E27903"/><path fill-rule="evenodd" clip-rule="evenodd" d="M38.828 90.144a.81.81 0 0 1 .88.731l1.433 15.424a.809.809 0 1 1-1.612.149l-1.432-15.423a.81.81 0 0 1 .731-.88zM34.925 90.507a.81.81 0 0 1 .88.73l1.432 15.424a.81.81 0 0 1-1.611.15l-1.432-15.424a.81.81 0 0 1 .731-.88zM42.732 89.782a.81.81 0 0 1 .88.73l.345 3.715a.81.81 0 1 1-1.611.15L42 90.662a.81.81 0 0 1 .73-.88zM15.41 92.319a.81.81 0 0 1 .88.73l.345 3.715a.81.81 0 0 1-1.611.15l-.345-3.715a.81.81 0 0 1 .73-.88zM31.022 90.869a.81.81 0 0 1 .88.731l1.432 15.423a.81.81 0 1 1-1.611.15L30.29 91.75a.81.81 0 0 1 .73-.881zM27.12 91.231a.81.81 0 0 1 .88.731l1.432 15.424a.808.808 0 1 1-1.612.149l-1.432-15.423a.81.81 0 0 1 .731-.88zM23.216 91.594a.81.81 0 0 1 .881.73l1.432 15.424a.81.81 0 0 1-1.612.15l-1.432-15.424a.81.81 0 0 1 .732-.88zM19.312 91.956a.81.81 0 0 1 .881.731l1.432 15.423a.809.809 0 1 1-1.612.15l-1.432-15.423a.81.81 0 0 1 .731-.88z" fill="#F79B24"/><path d="M99.543 9.55l-13.387-.58L85 35.597l13.386.582L99.543 9.55z" fill="#FFF1A2"/><path d="M106.52 9.854l-6.977-.303-1.157 26.628 6.978.303 1.156-26.628z" fill="#FFA600"/><path d="M89.941 3.985l13.387.581 3.193 5.288-13.387-.581-3.193-5.288z" fill="#E27903"/><path d="M103.327 4.566l-13.386-.58-3.785 4.984 13.386.58 3.785-4.984z" fill="#FFBB31"/><path d="M102.713 2.55l-11.985-.52a.701.701 0 0 0-.731.67l-.056 1.285 13.387.582.055-1.285a.701.701 0 0 0-.67-.731z" fill="#FFF1A2"/><path d="M90.617 30.517c-2.386-1.087-4.262-.547-5.4.08l-.217 5 13.386.581.3-6.913c-2.168 2.182-4.74 2.77-8.07 1.252z" fill="#FFBB31"/><path d="M105.364 36.482l.279-6.418c-.871.434-1.766.965-3.001 1.151-2.264.34-3.956-1.95-3.956-1.95l-.3 6.914 6.978.303z" fill="#E27903"/><path d="M92.195 24.323a4.872 4.872 0 1 0 .423-9.735 4.872 4.872 0 0 0-.423 9.735z" fill="#FFBB31"/><path d="M93.15 22.369l-1.739-.076a.674.674 0 0 1-.644-.703l.153-3.535 3.087.134-.153 3.535a.674.674 0 0 1-.703.645z" fill="#FFF1A2"/><path d="M90.469 18.755c.511.022.94-.281.957-.678l-1.852-.08c-.017.396.383.736.895.758zM94.397 18.925c.511.023.94-.28.957-.677l-1.852-.08c-.017.395.384.735.895.757z" fill="#FFF1A2"/><path d="M91.716 21.747a.402.402 0 1 0 .035-.804.402.402 0 0 0-.035.804zM92.895 21.798a.403.403 0 1 0 .035-.804.403.403 0 0 0-.035.804z" fill="#FFBB31"/><path d="M91.328 16.732c.001.177.03.38.08.558.05.18.125.347.22.488.094.143.217.25.35.33.13.087.29.124.444.16l.027.007a.452.452 0 1 1-.29.854c-.237-.106-.473-.228-.664-.418a1.782 1.782 0 0 1-.44-.635 2.24 2.24 0 0 1-.16-.704 2.638 2.638 0 0 1 .043-.695.196.196 0 0 1 .39.036v.019z" fill="#FFF1A2"/><path d="M93.773 16.838a2.236 2.236 0 0 1-.128.549 1.65 1.65 0 0 1-.262.467c-.106.134-.238.23-.378.299-.135.075-.298.098-.455.121l-.028.004a.452.452 0 1 0 .214.876c.246-.085.492-.186.699-.36.207-.163.38-.369.493-.594.115-.223.185-.456.221-.687.035-.234.043-.454.017-.696a.196.196 0 0 0-.39.002l-.003.019z" fill="#FFF1A2"/><path d="M93.907 20.515l-3.087-.134-.018.402 3.087.134.018-.402z" fill="#FFBB31"/><path d="M105.415 12.39l-4.671-.203-.043.986 4.672.203.042-.986zM105.292 15.24l-4.672-.204-.042.986 4.671.203.043-.986zM105.168 18.088l-4.671-.203-.043.986 4.671.203.043-.986zM105.045 20.937l-4.672-.203-.043.986 4.672.203.043-.986zM104.921 23.786l-4.672-.203-.043.986 4.672.203.043-.986zM104.797 26.635l-4.672-.203-.042.986 4.671.203.043-.986z" fill="#E27903"/><path d="M119.905 9.759l-13.188-2.372L102 33.619l13.188 2.372 4.717-26.232z" fill="#FFF1A2"/><path d="M126.78 10.995l-6.874-1.236-4.718 26.232 6.875 1.236 4.717-26.232z" fill="#FFA600"/><path d="M111.137 2.956l13.188 2.371 2.454 5.668-13.187-2.372-2.455-5.667z" fill="#E27903"/><path d="M124.324 5.327l-13.187-2.371-4.42 4.431 13.188 2.372 4.419-4.432z" fill="#FFA600"/><path d="M123.986 3.247l-11.807-2.123a.702.702 0 0 0-.815.566l-.227 1.266 13.187 2.371.228-1.265a.701.701 0 0 0-.566-.815z" fill="#FFBB31"/><path d="M109.602 13.452c-.846.788-1.206 1.967-.816 3.048.389 1.081 1.418 1.76 2.572 1.828l-1.756-4.876z" fill="#FFA600"/><path d="M109.601 13.452c1.154.067 2.183.747 2.572 1.828.389 1.08.03 2.26-.816 3.048l-1.756-4.876z" fill="#E27903"/><path d="M110.039 26.771a4.872 4.872 0 1 0 1.724-9.59 4.872 4.872 0 0 0-1.724 9.59z" fill="#FFA600"/><path d="M111.604 25.622a.445.445 0 1 0 .158-.876.445.445 0 0 0-.158.876zM111.992 24.088a.446.446 0 1 0 .158-.878.446.446 0 0 0-.158.878zM113.373 24.789a.446.446 0 1 0 .157-.88.446.446 0 0 0-.157.88zM114.791 8.364a1.723 1.723 0 1 0 .61-3.391 1.723 1.723 0 0 0-.61 3.391z" fill="#E27903"/><path d="M114.324 7.423a1.506 1.506 0 1 0 .534-2.964 1.506 1.506 0 0 0-.534 2.964z" fill="#FFD300"/><path d="M114.324 7.423a1.506 1.506 0 1 0 .534-2.964 1.506 1.506 0 0 0-.534 2.964z" fill="#FFBB31"/><path d="M114.415 6.915a.99.99 0 1 0 .35-1.95.99.99 0 0 0-.35 1.95z" fill="#FFA600"/><path d="M124.721 15.924l-4.603-.828-.174.971 4.602.828.175-.971zM124.216 18.73l-4.602-.828-.175.972 4.602.827.175-.971zM123.711 21.537l-4.602-.828-.175.972 4.602.827.175-.971zM123.206 24.343l-4.602-.827-.175.971 4.603.828.174-.972zM122.701 27.15l-4.602-.827-.175.97 4.603.829.174-.972zM122.196 29.957l-4.602-.828-.174.972 4.602.827.174-.971zM5.695 24.989c-1.722-9.913 4.918-19.345 14.83-21.066l10.391-1.805C40.83.396 50.261 7.036 51.982 16.948l.071.408c1.722 9.912-4.918 19.344-14.83 21.066L26.83 40.227C16.92 41.949 7.487 35.309 5.765 25.396l-.07-.407z" fill="#E27903"/><path d="M10.072 47.88a5.45 5.45 0 0 0 1.757-.627c2.673 8.038 10.893 13.13 19.493 11.636l26.802-4.655c8.627-1.5 14.66-9.11 14.424-17.613a5.461 5.461 0 1 0-1.985-9.805c-3.093-7.27-10.875-11.73-18.995-10.32L24.767 21.15c-8.088 1.405-13.895 8.18-14.396 16.026a5.461 5.461 0 1 0-.298 10.703z" fill="#FFBB31"/><path fill-rule="evenodd" clip-rule="evenodd" d="M51.486 49.954c-.951.932-1.279 2.069-1.301 2.77a1.113 1.113 0 0 1-2.226-.073c.04-1.21.565-2.913 1.97-4.288 1.433-1.403 3.678-2.367 6.966-2.249a1.113 1.113 0 0 1-.08 2.225c-2.79-.1-4.406.711-5.329 1.615z" fill="#F08904"/><path d="M13.316 47.717a2.632 2.632 0 1 1-5.186.9 2.632 2.632 0 0 1 5.186-.9z" fill="#C86902"/><path d="M41.686 38.126c.121-.02 1.49 1.495 2.892 3.092 1.395 1.588.5 4.078-1.584 4.44-2.083.361-3.766-1.68-2.988-3.646.782-1.976 1.559-3.865 1.68-3.886z" fill="#E27800"/><path d="M27.984 38.471l12.188-2.117a6.072 6.072 0 0 1-4.947 7.003l-.223.039a6.072 6.072 0 0 1-7.018-4.925z" fill="#FFF1A2"/><path d="M37.648 33.86a2.786 2.786 0 0 0-5.49.953l.467 2.686a2.786 2.786 0 1 0 5.49-.954l-.467-2.686z" fill="#E27800"/><path d="M69.104 24.092l-9.034 1.57a6.477 6.477 0 0 1-7.49-5.274l-.686-3.946c6.932-1.072 13.574 2.116 17.21 7.65z" fill="#FF9600"/><path d="M42.026 33.7l.39 2.245a6.072 6.072 0 0 0 7.022 4.944l.223-.04a6.072 6.072 0 0 0 4.943-7.021l-.885-5.094L42.026 33.7z" fill="#FFF1A2"/><path d="M43.953 32.764c-.263-1.516 1.031-2.163 2.547-2.426 1.516-.264 2.68-.043 2.943 1.473l.466 2.685a2.786 2.786 0 1 1-5.489.954l-.467-2.686z" fill="#E27800"/><path d="M42.026 33.7l.393 2.264 12.188-2.117-.888-5.113L42.026 33.7zM61 62.966l.393 2.264 12.189-2.117L72.693 58 61 62.966z" fill="#F08904"/><path fill-rule="evenodd" clip-rule="evenodd" d="M55.85 26.83a1.429 1.429 0 0 1-.729 1.885L42.106 34.48a1.429 1.429 0 1 1-1.157-2.612l13.015-5.765a1.429 1.429 0 0 1 1.885.727z" fill="#F08904"/><path d="M27.983 38.471l12.189-2.117-.003-.019-1.075-6.186a6.072 6.072 0 0 0-7.022-4.944l-.223.039a6.072 6.072 0 0 0-4.943 7.022l1.074 6.187.003.018z" fill="#F08904"/><path d="M5.968 26.566c-1.3-7.49 3.716-14.616 11.206-15.917l1.013-.176c7.49-1.301 14.616 3.716 15.917 11.205l.176 1.014c1.3 7.49-3.716 14.615-11.206 15.916l-1.013.177c-7.49 1.3-14.616-3.716-15.917-11.206l-.176-1.013zM113.564 51.858c3.719-.44 7.575.989 10.093 4.124l3.771 4.694c3.888 4.84 3.117 11.915-1.723 15.803l-4.198 3.372a11.238 11.238 0 0 1-11.197 1.683l-.009.069-30.542-4.063a11.24 11.24 0 0 1-10.72-4.505l-3.171-4.352c-3.656-5.018-2.551-12.049 2.467-15.704l4.867-3.545a11.228 11.228 0 0 1 10.321-1.53c1.573-5.17 6.7-8.594 12.234-7.858l8.053 1.072c5.519.733 9.567 5.355 9.754 10.74z" fill="#E27903"/><path d="M108.677 81.506a8.61 8.61 0 0 1 7.4 9.67l-.524 3.938a5.134 5.134 0 0 1-1.352 10.167l-.962 7.235c-.737 5.539-5.824 9.432-11.363 8.695l-24.754-3.293c-5.539-.736-9.432-5.824-8.695-11.363l.934-7.022a5.134 5.134 0 1 1 1.354-10.177l.55-4.14a8.61 8.61 0 0 1 9.671-7.4l27.741 3.69z" fill="#F79B24"/><path d="M79.99 92.145a5.756 5.756 0 0 1 11.41 1.518l-.472 3.554a5.756 5.756 0 0 1-11.41-1.518l.471-3.554zM94.63 94.093a5.756 5.756 0 0 1 6.465-4.947 5.755 5.755 0 0 1 4.946 6.464l-.472 3.555a5.755 5.755 0 1 1-11.411-1.518l.472-3.554z" fill="#FFF1A2"/><path d="M93.315 101.982c-.4-1.09-1.078-2.275-1.13-2.282-.053-.007-1.02.962-1.691 1.911a1.939 1.939 0 0 0 .063 3.832l1.707.227a1.937 1.937 0 0 0 1.051-3.688z" fill="#E27903"/><path d="M88.27 69.75a8.699 8.699 0 0 0 3.402 7.322l-21.76-2.895.597 15.281 24.07-8.887 20.908 14.87 4.572-14.594-21.356-2.84a8.698 8.698 0 0 0 5.042-6.113l.53-2.398a8.707 8.707 0 0 0-8.43 2.762 8.707 8.707 0 0 0-7.46-4.962l-.115 2.454z" fill="#FFB100"/><path fill-rule="evenodd" clip-rule="evenodd" d="M84.107 104.339a.957.957 0 0 1 1.237.552c.494 1.29 1.748 3.102 4.977 3.531a.959.959 0 0 1-.253 1.899c-4.042-.537-5.814-2.917-6.513-4.745a.958.958 0 0 1 .552-1.237z" fill="#E27903"/><path d="M95.777 95.482a2.076 2.076 0 0 0 2.121-3.002 2.548 2.548 0 0 1 3.042 2.831l-.423 3.18a2.548 2.548 0 1 1-5.05-.671l.31-2.338zM85.308 94.09a2.076 2.076 0 0 0 2.065-3.107 2.548 2.548 0 0 1 2.67 2.88l-.423 3.18a2.548 2.548 0 1 1-5.051-.672l.317-2.383c.134.048.275.082.422.102z" fill="#E27903"/></g><defs><clipPath id="clip0"><path fill="#fff" d="M0 0h135v124H0z"/></clipPath></defs></svg>