<svg viewBox="0 0 135 124" fill="none" xmlns="http://www.w3.org/2000/svg"><g clip-path="url(#clip0)"><path d="M124 28v79c0 9.389-7.611 17-17 17H28c-9.389 0-17-7.611-17-17V28c0-9.389 7.611-17 17-17h79a17 17 0 0 1 17 17z" fill="#FFC800"/><path d="M124 27.75V107a17 17 0 0 1-16.12 17H60L27.9 34.21a4.31 4.31 0 0 1 2.6-5.5L108.13 1.2a5.709 5.709 0 0 1 7.14 3.11l8.13 18.77c.424 1.52.626 3.093.6 4.67z" fill="#FFE865"/><path d="M48.27 76.82L23.54 123.4a16.856 16.856 0 0 1-7.4-4.23 15.996 15.996 0 0 1-2-2.35A16.83 16.83 0 0 1 11 107V82.73l10.78-20.11 26.49 14.2z" fill="#FFB100"/><path d="M20.76 64.28c-.08-.21 4-15.46 5.64-21.48a7 7 0 0 1 2.67-3.86L48 32.61a8.45 8.45 0 0 1 9.48 3L66.66 48a7.39 7.39 0 0 1 .15 8.59l-2.69 3.92a7 7 0 0 1-1.48 9.66l-23 17.53-18.88-23.42z" fill="#FFB100"/><path d="M92.5 112.44c-4.65 0-8.36-1.6-10.49-4.8C78.23 102 79.7 90.3 96.26 76.07c13.52-11.63 21.18-26.25 18.62-35.56-1.44-5.24-6-8.56-13.43-9.88-5.19-.91-9.45.37-12.65 3.77-5.29 5.64-7 16.87-4.35 27.94a1.19 1.19 0 0 1-2.31.56c-2.92-12-1-23.82 4.93-30.13 3.73-4 8.84-5.52 14.79-4.48 10.53 1.86 14.14 7.33 15.31 11.59C120 50 112 65.66 97.81 77.87 83.41 90.25 80.49 101.08 84 106.33c3.34 5 12 5 22 0a1.188 1.188 0 1 1 1.06 2.12c-5.32 2.67-10.33 3.99-14.56 3.99z" fill="#E27800"/><path d="M18.917 28.24l-6.836 12.298-8.68-4.825a4.14 4.14 0 0 1-1.606-5.63l2.813-5.06a4.14 4.14 0 0 1 5.63-1.607l8.68 4.824z" fill="#FFC800"/><path d="M23.292 30.584L16.5 42.803 68.338 71.62l6.793-12.219-51.839-28.817z" fill="#E27800"/><path d="M17.247 43.74l7.123-12.813a1.63 1.63 0 0 0-.633-2.217l-4.85-2.697a1.63 1.63 0 0 0-2.218.633L9.547 39.459a1.63 1.63 0 0 0 .632 2.217l4.851 2.697a1.63 1.63 0 0 0 2.217-.633z" fill="#FFB100"/><path d="M80.62 71.54c.35-.93.74-1.85 1.18-2.75l-6.69-9.37-6.79 12.22 12 .65c.09-.29.19-.5.3-.75z" fill="#FFC800"/><path d="M78.06 72.16l2.68-4.82L83 70.5a1.18 1.18 0 0 1-1 1.87l-3.94-.21z" fill="#E27800"/><path d="M64.14 69.14L42.39 85.45s.87-5.63-1.5-8.82c0 0-.25-7.93 2.94-10.3l11.75-8.72a7.18 7.18 0 0 1 10 1.49 7.17 7.17 0 0 1-1.44 10.04z" fill="#FFB100"/></g><defs><clipPath id="clip0"><path fill="#fff" d="M0 0h135v124H0z"/></clipPath></defs></svg>