<svg id="Layer_3" data-name="Layer 3" xmlns="http://www.w3.org/2000/svg" viewBox="0 0 135 124"><defs><style>.cls-1{fill:#e5e5e5}.cls-2{fill:#bfbfbf}.cls-3{fill:#d1d1d1}.cls-4{fill:#efefef}.cls-5{fill:#b2b2b2}</style></defs><path class="cls-1" d="M124 28v79a17 17 0 0 1-2.85 9.43 16.74 16.74 0 0 1-3.23 3.59 15.72 15.72 0 0 1-1.47 1.11A16.84 16.84 0 0 1 107 124H28a17 17 0 0 1-17-17V28a16.56 16.56 0 0 1 .42-3.74A17 17 0 0 1 28 11h79a17 17 0 0 1 16.58 13.26A16.56 16.56 0 0 1 124 28z"/><path class="cls-2" d="M79.25 103.24a7.57 7.57 0 0 1-9.36 5.19L28.79 97.2a7.57 7.57 0 0 1-5.2-9.36 7.57 7.57 0 0 1 9.41-5.2l41.06 11.23a7.58 7.58 0 0 1 5.19 9.37z"/><path class="cls-3" d="M116.45 121.13A16.84 16.84 0 0 1 107 124H75.82l-5.76-8.51a6.54 6.54 0 0 1-.12-7.06 7.11 7.11 0 0 1 .47-.65 6.51 6.51 0 0 1 1.44-1.32l2.53-1.69 8.27-5.54 5-3.37 2.61-1.75a6.52 6.52 0 0 1 9 1.78l7.56 11.11z"/><path class="cls-3" d="M75.65 100.87a7.58 7.58 0 0 1-7.87 7.27L25.19 107a7.57 7.57 0 0 1-7.27-7.86 7.58 7.58 0 0 1 7.87-7.27L68.38 93a7.58 7.58 0 0 1 7.27 7.87z"/><path class="cls-3" d="M95.35 92.72l-.05.1-.14.32-3.84 8.16L80.68 124h-7.43l-20.42-16.27-.37-.3 3.12-2.92L67.86 93l.18-.18.11-.1h27.2z"/><path class="cls-4" d="M67.4 26.2h34.39v62.41a4.2 4.2 0 0 1-4.2 4.2H67.4V26.2z"/><path class="cls-3" d="M33.22 26.2H67.6v66.62H37.42a4.2 4.2 0 0 1-4.2-4.2V26.2z"/><path class="cls-4" d="M67.39 17.8h33a4.2 4.2 0 0 1 4.2 4.2 4.2 4.2 0 0 1-4.2 4.2h-33v-8.4z"/><path class="cls-3" d="M34.58 17.8h33v8.4h-33a4.2 4.2 0 0 1-4.2-4.2 4.2 4.2 0 0 1 4.2-4.2z"/><path class="cls-1" d="M67.61 26.2h34.17v3.11H67.61z"/><path class="cls-2" d="M33.32 26.2h34.17v3.11H33.32z"/><path class="cls-5" d="M46.16 17.59h8.5v75.23h-8.5z"/><path class="cls-2" d="M80.34 17.59h8.5v75.23h-8.5z"/><rect class="cls-3" x="85.07" y="67.09" width="15.14" height="45.15" rx="7.57" ry="7.57" transform="rotate(-33.82 92.633 89.662)"/><path class="cls-2" d="M76 17.8L55.16 1.71A7.08 7.08 0 0 0 44.3 4.6l-2.95 7.14a4.38 4.38 0 0 0 4 6.06z"/><path class="cls-5" d="M59 17.8L79.81 1.71A7.08 7.08 0 0 1 90.67 4.6l3 7.14a4.39 4.39 0 0 1-4.06 6.06z"/><path class="cls-3" d="M22.51 80l-5.61 9.48a5.26 5.26 0 0 1-7 2L9 91a5.26 5.26 0 0 1 .1-9.33l10.16-5.14A2.45 2.45 0 0 1 22.51 80zM19.76 34.94L10 29.78a5.25 5.25 0 0 1-2.3-6.91l.4-.87a5.25 5.25 0 0 1 9.32-.33L23 31.56a2.45 2.45 0 0 1-3.24 3.38zM20.88 60.91L8.37 63.22a6 6 0 0 1-7-4.61l-.25-1.1a6 6 0 0 1 8.19-6.93l12.12 5a2.82 2.82 0 0 1-.55 5.33zM112.58 79.07l5.63 9.59a5.3 5.3 0 0 0 7.05 2l.87-.47a5.28 5.28 0 0 0-.13-9.39l-10.21-5.17a2.46 2.46 0 0 0-3.21 3.44zM115.42 34.94l9.78-5.16a5.25 5.25 0 0 0 2.3-6.91l-.42-.88a5.25 5.25 0 0 0-9.32-.33l-5.61 9.9a2.45 2.45 0 0 0 3.27 3.38zM114.89 59.94l12.58 2.32a6.08 6.08 0 0 0 7-4.64l.25-1.1a6.08 6.08 0 0 0-8.23-7l-12.18 5a2.83 2.83 0 0 0 .58 5.42z"/></svg>