<svg viewBox="0 0 135 124" fill="none" xmlns="http://www.w3.org/2000/svg"><path d="M11 28c0-9.389 7.611-17 17-17h79c9.389 0 17 7.611 17 17v79c0 9.389-7.611 17-17 17H28c-9.389 0-17-7.611-17-17V28z" fill="#FEC701"/><path fill-rule="evenodd" clip-rule="evenodd" d="M64.756 27.337c8.2 8.201 8.2 21.498 0 29.699l-53.407 53.407a17.08 17.08 0 0 1-.348-3.443L11 51.394l24.057-24.057c8.201-8.2 21.498-8.2 29.699 0zM124 28.394v35.354l-8.995 8.997c-4.881 4.881-12.796 4.881-17.677 0-4.882-4.882-4.882-12.797 0-17.678L124 28.394z" fill="#FFD900"/><path d="M103.109 48.544a2.803 2.803 0 0 1 5.458.5l6.55 53.165a4.342 4.342 0 0 1-1.219 3.581l-10.927 11.067a4.341 4.341 0 0 1-6.68-.612l-8.734-12.868a4.34 4.34 0 0 1-.548-3.742l16.1-51.091z" fill="#FFB100"/><path d="M87.93 96.712l6.095-19.345 17.061-7.87 1.927 15.642-25.084 11.573zM96.35 116.33a3.429 3.429 0 0 1-.06-.086l-8.486-12.503 26.022-12.006 1.29 10.474a4.341 4.341 0 0 1-1.219 3.581l-4.433 4.489-13.114 6.051zM110.273 62.9l-13.677 6.31 6.095-19.344 5.156-2.378c.386.419.645.957.719 1.555l1.707 13.857z" fill="#FF9600"/><path d="M108.669 52.219c-1.606 2.274-5.072 1.957-6.239-.572l-3.674-7.964c-1.167-2.528.841-5.371 3.614-5.117l8.735.8c2.773.254 4.231 3.414 2.624 5.689l-5.06 7.164zM93.762 95.734a4.286 4.286 0 0 0-.552 6.035l6.08 7.305a1.446 1.446 0 0 0 2.037.187l7.306-6.08a4.285 4.285 0 0 0-5.482-6.587l-.719.597a1.446 1.446 0 0 1-2.037-.187l-.598-.718a4.285 4.285 0 0 0-6.035-.552z" fill="#F68B00"/><path d="M30.299 107.553a4.173 4.173 0 0 0 1.84 5.608l8.262 4.178a1.409 1.409 0 0 0 1.894-.621l4.178-8.261a4.174 4.174 0 1 0-7.45-3.768l-.41.812c-.352.694-1.2.973-1.894.621l-.812-.41a4.173 4.173 0 0 0-5.608 1.841z" fill="#FF9600"/><path d="M55.23 91.141a5.983 5.983 0 0 0-2.049 8.21l7.148 11.9a1.41 1.41 0 0 0 1.934.482l11.9-7.148A5.983 5.983 0 1 0 68 94.328l-1.642.986a1.41 1.41 0 0 1-1.934-.483l-.986-1.642a5.983 5.983 0 0 0-8.21-2.047z" fill="#F68B00"/><path d="M92 19.326a3.496 3.496 0 0 0-1.197 4.797l3.875 6.451a1.41 1.41 0 0 0 1.934.483l6.451-3.875a3.497 3.497 0 0 0-3.6-5.994l-.458.274a1.41 1.41 0 0 1-1.934-.482l-.274-.457A3.496 3.496 0 0 0 92 19.326z" fill="#FF9600"/><path d="M70.399 25.744L28.193 29.33c-7.909.672-13.775 7.629-13.103 15.537l2.388 28.086c.672 7.909 7.628 13.775 15.537 13.103l42.206-3.588c7.908-.672 13.775-7.629 13.102-15.537l-2.387-28.086c-.672-7.909-7.629-13.775-15.537-13.102z" fill="#FFAB19"/><path fill-rule="evenodd" clip-rule="evenodd" d="M51.84 61.646a3.493 3.493 0 0 0 3.213-3.75c-.146-1.926-3.97-6.216-3.97-6.216s-3.134 4.818-2.987 6.744a3.493 3.493 0 0 0 3.743 3.222zM61.787 62.268a.943.943 0 0 1-.44 1.26c-5.977 2.88-11.98 3.345-17.953 1.354a.943.943 0 1 1 .596-1.79c5.478 1.825 10.973 1.417 16.538-1.264a.943.943 0 0 1 1.26.44z" fill="#F08E00"/><path fill-rule="evenodd" clip-rule="evenodd" d="M43.457 60.443c.52-.022.96.383.981.903.12 2.862-.608 5.118-2.624 6.178a.943.943 0 1 1-.878-1.67c1.04-.547 1.725-1.827 1.617-4.43a.943.943 0 0 1 .904-.981zM60.635 59.127a.943.943 0 0 0-.834 1.041c.315 2.847 1.374 4.967 3.527 5.71a.943.943 0 1 0 .616-1.783c-1.11-.383-1.981-1.545-2.267-4.134a.943.943 0 0 0-1.042-.834z" fill="#F08E00"/><path fill-rule="evenodd" clip-rule="evenodd" d="M73.9 37.567L72.661 32.5a.788.788 0 0 0-.996-.567c-.48.147-.819.577-.85 1.078l-.312 5.088a1.64 1.64 0 0 0 1.875 1.724 1.84 1.84 0 0 0 1.52-2.256zM28.491 64.841l-1.237-5.066a.788.788 0 0 0-.997-.567c-.48.147-.818.577-.849 1.078l-.313 5.088a1.64 1.64 0 0 0 1.876 1.724 1.84 1.84 0 0 0 1.52-2.257z" fill="#FFF1A2"/><path d="M32.138 44.646a4.174 4.174 0 0 0 .447 5.886l7.023 6.032c.59.507 1.48.44 1.987-.151l6.032-7.023a4.174 4.174 0 1 0-6.333-5.44l-.593.691a1.41 1.41 0 0 1-1.987.151l-.69-.593a4.174 4.174 0 0 0-5.886.447zM53.148 43.05a4.174 4.174 0 0 0 .446 5.887l7.023 6.032c.591.507 1.48.44 1.988-.151l6.032-7.023a4.174 4.174 0 0 0-6.333-5.44l-.593.69a1.41 1.41 0 0 1-1.987.152l-.69-.593a4.174 4.174 0 0 0-5.886.447z" fill="#E47900"/><path d="M23.7 30.46c-5.512 2.386-9.144 8.093-8.607 14.408l.858 10.1 2.648-.226a7.144 7.144 0 0 0 6.512-7.725l-1.41-16.558zM74.62 26.005c6.028 1.285 10.77 6.382 11.318 12.841l.857 10.085-3.03.258a7.144 7.144 0 0 1-7.724-6.512L74.62 26.005z" fill="#F5970F"/><path d="M14.424 62.742a6.335 6.335 0 1 0-1.073-12.624 6.335 6.335 0 0 0 1.073 12.624zM89.213 56.209a6.335 6.335 0 1 0-1.073-12.625 6.335 6.335 0 0 0 1.073 12.625z" fill="#FFAB19"/><path d="M59.839 26.642c-.718-5.948-6.015-10.307-12.021-9.797-6.007.51-10.495 5.702-10.199 11.685l22.22-1.888z" fill="#E47900"/><path d="M34.728 28.776l4.266-.363c5.453-1.46 9.247-6.586 8.76-12.321-.549-6.452-6.308-11.23-12.862-10.673-6.558.557-11.428 6.24-10.88 12.69.488 5.736 5.093 10.149 10.716 10.667z" fill="#E47900"/></svg>