<svg viewBox="0 0 135 124" fill="none" xmlns="http://www.w3.org/2000/svg"><path d="M11 28c0-9.389 7.611-17 17-17h79c9.389 0 17 7.611 17 17v79c0 9.389-7.611 17-17 17H28c-9.389 0-17-7.611-17-17V28z" fill="#E5E5E5"/><path d="M38.482 5.43c11.265 0 20.397 9.154 20.397 20.42 0 11.264-9.132 20.42-20.397 20.42H27.205c-11.265 0-20.397-9.156-20.397-20.42 0-11.266 9.132-20.42 20.397-20.42h11.277z" fill="#959595"/><path d="M9.07 45.688c0-11.4 9.242-20.64 20.641-20.64h28.107c11.4 0 20.641 9.24 20.641 20.64v1.171c0 11.4-9.241 20.641-20.64 20.641H29.71c-11.4 0-20.64-9.24-20.64-20.64v-1.172z" fill="#BFBFBF"/><path d="M76.362 36.61H66.14a7.417 7.417 0 0 1-7.417-7.416v-4.128c7.757.335 14.405 4.95 17.639 11.545z" fill="#A6A6A6"/><path fill-rule="evenodd" clip-rule="evenodd" d="M29.053 39.05a6.856 6.856 0 0 1 13.71 0v4.23a6.856 6.856 0 1 1-13.71 0v-4.23z" fill="#fff"/><path fill-rule="evenodd" clip-rule="evenodd" d="M34.742 39.366a3.088 3.088 0 0 1 6.175 0v3.878a3.088 3.088 0 0 1-6.175 0v-3.878z" fill="#959595"/><path fill-rule="evenodd" clip-rule="evenodd" d="M58.998 39.05a6.856 6.856 0 1 0-13.711 0v4.23a6.855 6.855 0 1 0 13.711 0v-4.23z" fill="#fff"/><path fill-rule="evenodd" clip-rule="evenodd" d="M53.748 39.366a3.088 3.088 0 1 0-6.175 0v3.878a3.088 3.088 0 1 0 6.175 0v-3.878z" fill="#959595"/><path d="M85.938 45.394a6.053 6.053 0 1 1-12.106 0 6.053 6.053 0 0 1 12.106 0zM13.3 45.394a6.053 6.053 0 1 1-12.107 0 6.053 6.053 0 0 1 12.107 0z" fill="#BFBFBF"/><path d="M10.82 51.884a2.917 2.917 0 1 1-5.834 0 2.917 2.917 0 0 1 5.835 0z" fill="#959595"/><path fill-rule="evenodd" clip-rule="evenodd" d="M44.245 53.143a2.913 2.913 0 0 0 2.917-2.908c0-1.606-2.917-5.405-2.917-5.405s-2.917 3.799-2.917 5.405a2.913 2.913 0 0 0 2.917 2.908z" fill="#959595"/><path d="M36.384 65.144c5.066-7.321 10.771-7.321 16.028-.019a1.24 1.24 0 0 1-2.012 1.449l-.13-.179c-2.122-2.893-4.115-4.265-5.934-4.265-1.85 0-3.833 1.42-5.913 4.425a1.24 1.24 0 0 1-2.039-1.41z" fill="#959595"/><path fill-rule="evenodd" clip-rule="evenodd" d="M44.324 57.609c3.698-.003 6.972 2.471 9.745 6.323a3.282 3.282 0 0 1-5.324 3.84l-.125-.173c-2.044-2.785-3.503-3.427-4.285-3.427-.776 0-2.227.645-4.233 3.545a3.282 3.282 0 1 1-5.398-3.734c2.681-3.875 5.908-6.37 9.62-6.374zm5.945 8.786l.13.179a1.24 1.24 0 0 0 2.012-1.449c-5.257-7.302-10.962-7.302-16.027.02a1.24 1.24 0 1 0 2.039 1.41c2.079-3.005 4.063-4.425 5.912-4.425 1.82 0 3.812 1.372 5.934 4.265zM25.844 32.195h33.202v11.752H25.844V32.195z" fill="#BFBFBF"/><path fill-rule="evenodd" clip-rule="evenodd" d="M26.14 42.675c0-.883.716-1.599 1.6-1.599h33.303a1.599 1.599 0 1 1 0 3.197H27.74a1.599 1.599 0 0 1-1.598-1.598z" fill="#959595"/><path d="M21.686 12.14c8.378 0 15.17 6.79 15.17 15.168v1.313c0 8.378-6.792 15.169-15.17 15.169-8.377 0-15.169-6.791-15.169-15.169v-1.313c0-8.377 6.792-15.169 15.17-15.169zM103.866 40.432c0 6.225-5.075 11.27-11.335 11.27-6.26 0-11.336-5.045-11.336-11.27 0-6.224 5.075-11.27 11.336-11.27 6.26 0 11.335 5.046 11.335 11.27z" fill="#959595"/><path fill-rule="evenodd" clip-rule="evenodd" d="M55.527 77.85c0-12.93 10.482-23.411 23.411-23.411h27.012c12.93 0 23.411 10.48 23.411 23.41S118.88 101.26 105.95 101.26H78.938c-12.93 0-23.41-10.482-23.41-23.41z" fill="#959595"/><path d="M129.176 80.807c-1.454 11.533-11.298 20.453-23.225 20.453H78.939c-11.928 0-21.772-8.92-23.226-20.453h73.463z" fill="#D8D8D8"/><path d="M63.738 92.419c0-16.011 12.98-28.99 28.99-28.99 16.011 0 28.99 12.979 28.99 28.99v8.905c0 7.063-5.725 12.788-12.788 12.788H76.527c-7.063 0-12.789-5.725-12.789-12.788v-8.905z" fill="#D1D1D1"/><path d="M72.727 61.344h42.345v6.905H72.727v-6.905z" fill="#959595"/><path fill-rule="evenodd" clip-rule="evenodd" d="M79.89 80.939a6.046 6.046 0 1 1 12.092 0v3.73a6.046 6.046 0 0 1-12.091 0v-3.73z" fill="#fff"/><path fill-rule="evenodd" clip-rule="evenodd" d="M84.867 81.157a2.723 2.723 0 1 1 5.446 0v3.42a2.723 2.723 0 1 1-5.446 0v-3.42z" fill="#959595"/><path fill-rule="evenodd" clip-rule="evenodd" d="M106.299 80.939a6.046 6.046 0 0 0-12.091 0v3.73a6.046 6.046 0 1 0 12.091 0v-3.73z" fill="#fff"/><path fill-rule="evenodd" clip-rule="evenodd" d="M101.627 81.157a2.723 2.723 0 1 0-5.446 0v3.42a2.723 2.723 0 0 0 5.446 0v-3.42z" fill="#959595"/><path fill-rule="evenodd" clip-rule="evenodd" d="M79.004 87.142s10.2.71 14.047 3.08c3.846 2.371-6.478 13.728-6.478 13.728l-11.5-9.873 3.93-6.935z" fill="#D1D1D1"/><path fill-rule="evenodd" clip-rule="evenodd" d="M108.143 87.532s-10.201.71-14.047 3.08c-3.847 2.371 6.478 13.728 6.478 13.728l11.5-9.872-3.931-6.936z" fill="#D1D1D1"/><path fill-rule="evenodd" clip-rule="evenodd" d="M99.847 94.871a.836.836 0 0 1-.313 1.14c-4.658 2.655-8.692 1.959-11.535.58a14.594 14.594 0 0 1-4.153-3.051 9.331 9.331 0 0 1-.296-.33l-.018-.022-.005-.007-.002-.002v-.001c-.001 0-.002 0 .647-.528l-.648.527a.836.836 0 0 1 1.296-1.056l.002.002.009.01c.009.011.023.029.044.052.04.047.105.12.19.21a12.927 12.927 0 0 0 3.664 2.69c2.443 1.186 5.883 1.807 9.977-.526a.836.836 0 0 1 1.14.313z" fill="#959595"/><path fill-rule="evenodd" clip-rule="evenodd" d="M87.3 103.342a.644.644 0 0 1 .89-.195l-.348.542.347-.542c-.001 0 0 0 0 0l.006.004a1.4 1.4 0 0 1 .034.021c.031.018.08.047.145.083.13.072.325.174.576.289.502.229 1.22.505 2.08.689 1.717.366 3.975.362 6.238-1.086a.644.644 0 0 1 .693 1.084c-2.624 1.679-5.252 1.675-7.199 1.26a11.485 11.485 0 0 1-2.347-.777 10.035 10.035 0 0 1-.847-.439 2.544 2.544 0 0 0-.05-.03l-.015-.009-.004-.003-.002-.001v-.001l.345-.542-.346.542a.644.644 0 0 1-.195-.889z" fill="silver"/><path fill-rule="evenodd" clip-rule="evenodd" d="M77.678 84.275h14.785c2.352 0 1.268-6.742-2.471-9.002-2.872-1.736-8.312.611-8.87.611-1.286 0-3.444 8.39-3.444 8.39z" fill="#D1D1D1"/><path fill-rule="evenodd" clip-rule="evenodd" d="M91.488 84.276h14.786c2.351 0 1.268-6.482-2.472-8.742-2.871-1.735-8.311.61-8.87.61-1.285 0-3.444 8.132-3.444 8.132z" fill="#D1D1D1"/><path fill-rule="evenodd" clip-rule="evenodd" d="M113.06 82.37a.643.643 0 0 1-.346.841l-3.312 1.38 3.326 1.478a.644.644 0 0 1-.523 1.175l-4.69-2.085a.643.643 0 0 1 .014-1.18l4.69-1.955a.643.643 0 0 1 .841.346zM72.133 82.37a.643.643 0 0 0 .347.841l3.31 1.38-3.324 1.478a.643.643 0 1 0 .522 1.175l4.69-2.085a.643.643 0 0 0-.013-1.18l-4.69-1.955a.643.643 0 0 0-.842.346z" fill="silver"/><path fill-rule="evenodd" clip-rule="evenodd" d="M58.918 69.018a6.11 6.11 0 0 1 6.11-6.11h5.76a6.11 6.11 0 0 1 6.11 6.11v5.76a6.11 6.11 0 0 1-6.11 6.11h-5.76a6.11 6.11 0 0 1-6.11-6.11v-5.76zM85.365 74.633l-.534-1.88a1.954 1.954 0 0 0 1.067 3.76l.01-.002.055-.015.241-.062c.218-.053.544-.13.961-.216a33.49 33.49 0 0 1 3.455-.519c2.867-.28 6.517-.264 9.928.8a1.955 1.955 0 0 0 1.165-3.731c-4.103-1.28-8.335-1.266-11.473-.96a37.403 37.403 0 0 0-3.862.581 28.792 28.792 0 0 0-1.508.354l-.026.007-.008.002-.004.001.533 1.88zM93.117 92.519a2.936 2.936 0 0 0 2.932-2.94c0-1.624-2.932-5.465-2.932-5.465s-2.931 3.84-2.931 5.465a2.936 2.936 0 0 0 2.931 2.94zM108.559 68.366a6.11 6.11 0 0 1 6.11-6.11h4.978a6.11 6.11 0 0 1 6.11 6.11v6.412a6.11 6.11 0 0 1-6.11 6.11h-4.978a6.11 6.11 0 0 1-6.11-6.11v-6.412z" fill="#959595"/></svg>