<svg viewBox="0 0 135 124" fill="none" xmlns="http://www.w3.org/2000/svg"><path d="M11 28c0-9.389 7.611-17 17-17h79c9.389 0 17 7.611 17 17v79c0 9.389-7.611 17-17 17H28c-9.389 0-17-7.611-17-17V28z" fill="#E5E5E5"/><path fill-rule="evenodd" clip-rule="evenodd" d="M17.843 68.29c0 1.072-.015 3.825-2.877 4.034H8.568c-.699 0-1.265.566-1.265 1.265 0 7.063 5.726 12.79 12.79 12.79H75.89c7.064 0 12.79-5.727 12.79-12.79 0-.699-.566-1.265-1.265-1.265h-5.977c-2.863-.21-2.878-2.962-2.878-4.035 0-1.115-.984 1.664-.984 1.664l.287 2.37H18.54l.287-2.37s-.984-2.779-.984-1.664zm69.572 5.299z" fill="#BFBFBF"/><path fill-rule="evenodd" clip-rule="evenodd" d="M17.844 30.44c0-6.52 5.286-11.806 11.806-11.806h37.105c6.52 0 11.806 5.286 11.806 11.806v43.992H17.844V30.44z" fill="#BFBFBF"/><path fill-rule="evenodd" clip-rule="evenodd" d="M21.918 37.89c0-6.133 4.972-11.104 11.104-11.104h29.374c6.132 0 11.103 4.971 11.103 11.103v48.068H21.92V37.889z" fill="#D1D1D1"/><path d="M26.939 28.6a11.093 11.093 0 0 0-5.02 9.29v6.725a5.833 5.833 0 0 0 5.34-5.812v-8.292c0-.67-.113-1.313-.32-1.912zM68.94 28.918a11.088 11.088 0 0 1 4.56 8.971v6.652a5.834 5.834 0 0 1-4.78-5.738v-8.292c0-.552.076-1.087.22-1.593z" fill="#BFBFBF"/><path fill-rule="evenodd" clip-rule="evenodd" d="M62.83 40.656a6.627 6.627 0 1 0-13.254 0v4.03a6.627 6.627 0 0 0 13.254 0v-4.03z" fill="#fff"/><path d="M40.602 34.029a6.627 6.627 0 0 0-6.627 6.627v4.03c0 1.022.231 1.99.644 2.854l.053.005c.171.02.41.05.705.101.585.102 1.395.282 2.307.602 1.43.501 3.16 1.36 4.671 2.831a6.63 6.63 0 0 0 4.874-6.392v-4.031a6.627 6.627 0 0 0-6.627-6.627z" fill="#fff"/><path d="M51.422 40.622a2.179 2.179 0 0 0 2.89-2.657h.068a2.975 2.975 0 0 1 2.975 2.974v3.737a2.975 2.975 0 0 1-5.95 0V40.94c0-.108.006-.214.017-.318zM39.81 40.775a2.179 2.179 0 0 0 2.099-2.764 2.975 2.975 0 0 1 3.5 2.929v3.736a2.975 2.975 0 0 1-5.95 0V40.94c0-.065.002-.129.006-.192.112.018.227.027.345.027z" fill="#959595"/><path d="M19.6 51.804a5.692 5.692 0 1 0 0-11.385 5.692 5.692 0 0 0 0 11.385zM76.242 51.804a5.692 5.692 0 1 0 0-11.385 5.692 5.692 0 0 0 0 11.385z" fill="#D1D1D1"/><path d="M16.158 26.083c0-1.01.818-1.827 1.827-1.827H78.41c1.009 0 1.827.818 1.827 1.827v3.795c0 1.009-.818 1.827-1.827 1.827H17.985a1.827 1.827 0 0 1-1.827-1.827v-3.795z" fill="#959595"/><path d="M36.78 23.095a10.814 10.814 0 0 1-2.465-2.04c-3.126-3.48-3.644-8.532-1.37-12.48.473-.822 1.352-.941 1.986-.235l2.482 2.704A12.642 12.642 0 0 1 48.202 5c6.986 0 12.649 5.663 12.649 12.65 0 6.985-5.663 12.649-12.65 12.649-5.036 0-9.385-2.944-11.42-7.205z" fill="#BFBFBF"/><path d="M19.53 81.037c0-.853.691-1.546 1.545-1.546h53.55c.853 0 1.545.693 1.545 1.546v5.341c0 .854-.692 1.546-1.546 1.546H21.075a1.546 1.546 0 0 1-1.546-1.546v-5.34z" fill="#959595"/><path fill-rule="evenodd" clip-rule="evenodd" d="M45.605 80.071a1.124 1.124 0 0 1 1.093-.86h3.429c.52 0 .971.355 1.093.86l2.27 9.417a1.124 1.124 0 0 1-1.094 1.388h-7.967c-.728 0-1.264-.68-1.093-1.388l2.269-9.417z" fill="#fff"/><path fill-rule="evenodd" clip-rule="evenodd" d="M48.358 55.02a2.95 2.95 0 0 0 2.952-2.95c0-1.63-2.952-5.483-2.952-5.483s-2.951 3.854-2.951 5.483a2.95 2.95 0 0 0 2.951 2.95zM91.174 62.84c4.955 0 8.969 4.027 8.969 8.99v1.349h-17.94V71.83c0-4.963 4.017-8.99 8.971-8.99z" fill="#959595"/><path d="M108.657 71.507H74.6c-6.381 0-11.555 5.173-11.555 11.555v4.395a5.093 5.093 0 1 0 0 9.57v8.698c0 6.381 5.174 11.555 11.555 11.555h34.057c6.382 0 11.555-5.174 11.555-11.555v-8.737a5.093 5.093 0 1 0 0-9.772v-4.154c0-6.382-5.173-11.555-11.555-11.555z" fill="#D1D1D1"/><path d="M81.596 71.659c5.289 0 9.577-4.221 9.577-9.427 0-5.206-4.288-9.426-9.577-9.426-5.291 0-9.58 4.22-9.58 9.426s4.289 9.427 9.58 9.427z" fill="#959595"/><path fill-rule="evenodd" clip-rule="evenodd" d="M83.138 82.522c3.96 0 7.169 3.21 7.169 7.17v4.36a7.168 7.168 0 1 1-14.337 0v-4.36c0-3.96 3.21-7.17 7.168-7.17zM100.013 82.522a7.169 7.169 0 0 0-7.169 7.169v4.36a7.169 7.169 0 0 0 14.338 0v-4.36c0-3.96-3.21-7.169-7.169-7.169z" fill="#fff"/><path fill-rule="evenodd" clip-rule="evenodd" d="M98.333 106.397a.76.76 0 0 0-.355-1.015c-1.428-.689-2.824-.935-4.16-.654-1.334.282-2.511 1.072-3.537 2.279a.76.76 0 0 0 1.159.985c.865-1.019 1.765-1.58 2.693-1.776.927-.196 1.978-.046 3.185.535a.76.76 0 0 0 1.015-.354z" fill="#A6A6A6"/><path d="M82.05 90.368a2.585 2.585 0 1 1 0-5.17 2.585 2.585 0 0 1 0 5.17z" fill="#fff"/><path fill-rule="evenodd" clip-rule="evenodd" d="M91.401 104.265a2.816 2.816 0 0 0 2.813-2.819c0-1.557-2.813-5.24-2.813-5.24s-2.812 3.683-2.812 5.24a2.816 2.816 0 0 0 2.812 2.819z" fill="#A6A6A6"/><path fill-rule="evenodd" clip-rule="evenodd" d="M79.21 85.728a3.218 3.218 0 0 1 3.219 3.218v4.042a3.218 3.218 0 0 1-6.437 0v-4.042a3.218 3.218 0 0 1 3.219-3.218z" fill="#959595"/><path d="M96.063 85.728a3.218 3.218 0 0 0-3.219 3.218v4.042a3.218 3.218 0 0 0 6.437 0v-4.042a3.218 3.218 0 0 0-3.218-3.218z" fill="#959595"/><path fill-rule="evenodd" clip-rule="evenodd" d="M70.993 80.48h41.266v13.01H70.993V80.48z" fill="#D1D1D1"/><path d="M112.674 72.224c4.401 1.632 7.538 5.869 7.538 10.838v8.666h-.696a6.842 6.842 0 0 1-6.842-6.841V72.224zM70.952 72.095v12.791a6.842 6.842 0 0 1-6.842 6.842h-1.065v-8.666c0-5.107 3.313-9.44 7.907-10.967z" fill="#A6A6A6"/><path d="M31.504 57.68c1.6 4.833 5.802 7.497 11.605 8.005a4.779 4.779 0 0 0 .912-9.513l-.079-.008c-1.32-.115-2.233-.385-2.774-.728-.302-.192-.46-.386-.576-.716l-.015-.044a4.779 4.779 0 0 0-9.073 3.004z" fill="#702323"/><path d="M43.11 65.685c-5.804-.508-10.006-3.172-11.606-8.005a4.779 4.779 0 0 1 8.727-3.8c.718.986 1.762 1.908 3.224 2.232.156.02.318.038.487.052l.079.008a4.779 4.779 0 0 1-.912 9.513z" fill="#959595"/><path d="M38.875 64.835c1.288.433 2.706.716 4.234.85a4.779 4.779 0 0 0 5.195-4.866 8.668 8.668 0 0 0-1.987-.23 8.64 8.64 0 0 0-7.442 4.246z" fill="#A6A6A6"/><path d="M44.098 56.18a4.884 4.884 0 0 0-.077-.008l-.079-.008c-.169-.014-.331-.032-.487-.052-1.462-.324-2.506-1.246-3.224-2.233a4.78 4.78 0 0 0-8.797 1.025 2.53 2.53 0 0 0 2.447 1.883h1.967a2.53 2.53 0 0 0 2.32-1.518 2.53 2.53 0 0 0 2.319 1.518h1.968a2.52 2.52 0 0 0 1.643-.607z" fill="#fff"/></svg>