<svg id="Layer_3" data-name="Layer 3" xmlns="http://www.w3.org/2000/svg" viewBox="0 0 135 124"><defs><style>.cls-3{fill:#f0e3ff}.cls-4{fill:#e0cef5}.cls-5{fill:#a16fd9}.cls-7{fill:#894ac8}.cls-8{fill:#baf5e3}.cls-9{fill:#fed731}</style><clipPath id="clip-path"><ellipse cx="66.04" cy="72.74" rx="35.55" ry="35.5" transform="rotate(-12.87 66.054 72.728)" fill="none"/></clipPath></defs><path d="M124 28v79a17 17 0 0 1-2.85 9.43A17.09 17.09 0 0 1 107 124H28a17 17 0 0 1-17-17V28a17 17 0 0 1 9.58-15.29A16.79 16.79 0 0 1 28 11h79a16.79 16.79 0 0 1 6.16 1.16A15.14 15.14 0 0 1 115 13a17 17 0 0 1 9 15z" fill="#532c8f"/><circle class="cls-3" cx="28.32" cy="31.66" r="8.96"/><circle class="cls-4" cx="25.27" cy="27.49" r="1.64"/><circle class="cls-4" cx="29.12" cy="35.22" r="2.49"/><circle class="cls-4" cx="34.34" cy="29.06" r=".63"/><ellipse class="cls-5" cx="66.04" cy="72.62" rx="35.55" ry="35.5"/><g clip-path="url(#clip-path)"><path class="cls-7" d="M197.48 11.34l-19.41 4.43A8 8 0 0 0 172 22a8 8 0 0 1-6.06 6.2l-19 4.35a7.71 7.71 0 0 1-8-3 7.71 7.71 0 0 0-8-3l-20.84 4.76a7.14 7.14 0 0 0-5.5 6.08 7.13 7.13 0 0 1-5.49 6.07l-9.78 2.24a5.06 5.06 0 0 0-3.82 6.07 5.06 5.06 0 0 0 6.08 3.81L121 48.85a9 9 0 0 1 9.42 3.71l.27.4a8.94 8.94 0 0 0 9.41 3.71l13.63-3.11a9 9 0 0 0 6.9-7.67 8.94 8.94 0 0 1 6.9-7.67l8.16-1.86a6.72 6.72 0 0 0 5.05-5.09 6.69 6.69 0 0 1 5-5.08l14.32-3.27a6 6 0 0 0 4.48-7.12 6 6 0 0 0-7.06-4.46zM76.19 51.12l-10.51 2.4a4.35 4.35 0 0 0-3.29 3.36 4.3 4.3 0 0 1-3.28 3.36l-10.3 2.36a4.19 4.19 0 0 1-4.32-1.6 4.16 4.16 0 0 0-4.32-1.62l-11.29 2.55a3.87 3.87 0 0 0-3 3.29 3.89 3.89 0 0 1-3 3.29l-5.3 1.21A2.75 2.75 0 0 0 15.56 73a2.75 2.75 0 0 0 3.29 2.07l15.93-3.64a4.84 4.84 0 0 1 5.1 2l.14.22a4.89 4.89 0 0 0 5.11 2L52.5 74a4.85 4.85 0 0 0 3.74-4.15A4.85 4.85 0 0 1 60 65.68l4.42-1a3.61 3.61 0 0 0 2.73-2.75 3.63 3.63 0 0 1 2.74-2.75l7.75-1.78a3.22 3.22 0 0 0 2.43-3.85 3.22 3.22 0 0 0-3.88-2.43z"/><path class="cls-7" d="M96.51 72.67a4.17 4.17 0 0 1 3.13-5l10.18-2.32a4.81 4.81 0 0 0 3.62-5.75 4.81 4.81 0 0 0-5.76-3.6L84 61.42a7.2 7.2 0 0 0-5.5 5.9 7.21 7.21 0 0 1-5.5 5.89l-24.75 5.65a4.81 4.81 0 0 0-3.62 5.75 4.81 4.81 0 0 0 5.75 3.61L55.84 87a12.66 12.66 0 0 1 12.25 3.88 12.67 12.67 0 0 0 12.24 3.87l45-10.28a6.87 6.87 0 0 0 5.17-8.23 6.86 6.86 0 0 0-8.23-5.16l-20.78 4.72a4.16 4.16 0 0 1-4.98-3.13zM50.22 45.2a2.71 2.71 0 0 1-2 3.24L41.57 50a3.13 3.13 0 0 0-2.35 3.74A3.13 3.13 0 0 0 43 56l15.39-3.52a4.65 4.65 0 0 0 3.57-3.82 4.68 4.68 0 0 1 3.58-3.83l16.08-3.68a3.12 3.12 0 0 0 2.35-3.73 3.12 3.12 0 0 0-3.74-2.34l-3.55.81a8.24 8.24 0 0 1-8-2.52 8.24 8.24 0 0 0-8-2.52l-29.2 6.71a4.46 4.46 0 0 0-3.36 5.35 4.46 4.46 0 0 0 5.35 3.35L47 43.17a2.71 2.71 0 0 1 3.22 2.03z"/><rect class="cls-7" x="72.38" y="24.49" width="25.59" height="4.86" rx="2.43" ry="2.43" transform="rotate(-12.87 85.181 26.937)"/><rect class="cls-7" x="28.66" y="96.8" width="37.88" height="7.19" rx="3.59" ry="3.59" transform="rotate(-12.87 47.583 100.365)"/><rect class="cls-8" x="105.86" y="23.67" width="14.87" height="5.15" rx="2.58" ry="2.58" transform="rotate(-12.87 113.274 26.244)"/><rect class="cls-7" x="66.52" y="98" width="32.73" height="2.25" rx="1.12" ry="1.12" transform="rotate(-12.87 82.88 99.094)"/><rect class="cls-7" x="78.52" y="14.89" width="33.84" height="2.32" rx="1.16" ry="1.16" transform="rotate(-12.87 95.432 16.061)"/><rect class="cls-8" x="103.27" y="96.08" width="32.73" height="2.25" rx="1.12" ry="1.12" transform="rotate(-12.87 119.596 97.174)"/><rect class="cls-7" x="95.72" y="102.4" width="32.73" height="2.25" rx="1.12" ry="1.12" transform="rotate(-12.87 112.058 103.507)"/></g><circle class="cls-3" cx="101.23" cy="17.91" r="14.67"/><circle class="cls-4" cx="106.22" cy="11.08" r="2.69"/><circle class="cls-4" cx="99.91" cy="23.74" r="4.08"/><circle class="cls-4" cx="91.36" cy="13.66" r="1.03"/><circle class="cls-5" cx="77.32" cy="26.41" r="1"/><circle class="cls-5" cx="19.57" cy="62.66" r="1"/><circle class="cls-5" cx="117.61" cy="89.12" r="2.04"/><circle class="cls-9" cx="61.82" cy="17.19" r="1.27"/><circle class="cls-9" cx="110.08" cy="107.65" r="2.29"/><circle class="cls-5" cx="27.4" cy="107.91" r="1"/><circle class="cls-9" cx="21.9" cy="98.08" r="1.83"/></svg>