<svg viewBox="0 0 135 124" version="1.1" xmlns="http://www.w3.org/2000/svg" xmlns:xlink="http://www.w3.org/1999/xlink"><defs><path d="M9 0a9 9 0 0 1 9 9v9H0V9a9 9 0 0 1 9-9z" id="a"/></defs><g stroke="none" stroke-width="1" fill="none" fill-rule="evenodd"><path d="M28 11h79c9.389 0 17 7.611 17 17v79c0 9.389-7.611 17-17 17H28c-9.389 0-17-7.611-17-17V28c0-9.389 7.611-17 17-17z" fill="#CC348D"/><g transform="translate(66 62)"><rect fill="#0084C2" x="0" y="0" width="48" height="48" rx="24"/><path d="M43.222 9.627L21.125 24.654l-2.25-3.308L40.543 6.612a24.137 24.137 0 0 1 2.68 3.015z" fill="#006AAD"/><path d="M10 27.268L24 18l14 9.268V55a1 1 0 0 1-1 1H11a1 1 0 0 1-1-1V27.268z" fill="#DA8E74"/><path d="M14.5 39h12.305l2.496-1.255c6.422-3.228 14.245-.64 17.473 5.782.079.156.154.314.226.473 2.905 6.409.064 13.959-6.344 16.864A12.74 12.74 0 0 1 35.396 62H14.5C8.149 62 3 56.851 3 50.5S8.149 39 14.5 39z" fill="#3D3D3D"/><rect fill="#DA8E74" x="20" y="36" width="7" height="7" rx="3.5"/><path d="M31.455 29.178a2 2 0 0 1 1.791 3.573l-.14.07-7.608 3.45a5 5 0 0 1-3.814.13l-.245-.099-7.972-3.468a2 2 0 0 1 1.45-3.725l.146.057 7.972 3.468a1 1 0 0 0 .699.037l.112-.043 7.609-3.45z" fill="#3D3D3D" fill-rule="nonzero"/><path d="M26.858 44.796c2.666-4.852 6.203-7.016 10.258-5.577a2.5 2.5 0 0 1-1.515 4.762l-.156-.05c-1.3-.461-2.585.325-4.205 3.273a2.5 2.5 0 1 1-4.382-2.408z" fill="#FFF" fill-rule="nonzero"/></g><g transform="translate(19 65)"><rect fill="#3D3D3D" x="2" y="0" width="25" height="25" rx="12.5"/><rect fill="#3D3D3D" x="33" y="11" width="17" height="17" rx="8.5"/><rect fill="#3D3D3D" x="0" y="20" width="17" height="17" rx="8.5"/><rect fill="#3D3D3D" x="40" y="24" width="13" height="13" rx="6.5"/><path d="M23 3.602l2.775 2.915A15.774 15.774 0 0 0 40.79 11l.709 13.714L23 21V3.602z" fill="#3D3D3D"/><path d="M28 13c10.493 0 19 8.507 19 19v21a1 1 0 0 1-1 1H10a1 1 0 0 1-1-1V32c0-10.493 8.507-19 19-19z" fill="#DA8E74"/><path fill="#FFAADE" d="M9 50h38v9H9z"/><path fill="#DA8E74" d="M23 49h12l-6 6z"/><rect fill="#DA8E74" x="3" y="36" width="8" height="8" rx="4"/><rect fill="#DA8E74" x="45" y="36" width="8" height="8" rx="4"/><g transform="translate(14 29)"><mask id="b" fill="#fff"><use xlink:href="#a"/></mask><use fill="#983331" xlink:href="#a"/><rect fill="#BE3532" mask="url(#b)" x="7" y="13" width="15" height="15" rx="7.5"/><rect fill="#FFF" mask="url(#b)" x="3" y="0" width="20" height="10" rx="1"/></g><path d="M23.114 24.551l.414-.169a9.642 9.642 0 0 1 10.46 1.873l.217.213.113.115a15.277 15.277 0 0 0 3.564 2.686l.441.231 1.21.61a5 5 0 0 1-4.291 9.03l-.207-.1-1.21-.608a25.277 25.277 0 0 1-6.209-4.412l-.362-.359-.272.114a22.306 22.306 0 0 1-6.8 1.558l-.54.03-3.016.132a5 5 0 0 1-.655-9.976l.216-.014 3.017-.133a12.306 12.306 0 0 0 3.91-.82z" fill="#3D3D3D" fill-rule="nonzero"/><rect fill="#DA8E74" x="25" y="21" width="8" height="8" rx="4"/><path d="M39.34 17.622a2.5 2.5 0 0 0-3.062-1.516l-.156.053-4 1.5a2.5 2.5 0 0 0 1.6 4.735l.156-.053 4-1.5a2.5 2.5 0 0 0 1.463-3.219zM18.66 17.622a2.5 2.5 0 0 1 3.062-1.516l.156.053 4 1.5a2.5 2.5 0 0 1-1.6 4.735l-.156-.053-4-1.5a2.5 2.5 0 0 1-1.463-3.219z" fill="#3D3D3D" fill-rule="nonzero"/></g><path d="M5.818 21.693h22.5a1 1 0 0 0 .931-.634l6.286-15.985a1 1 0 0 1 1.505-.453l23.713 16.611a1 1 0 0 0 .548.18l9.945.261a1 1 0 0 1 .942.75l5.73 22.257a1 1 0 0 0 .339.528l13.599 11.015a1 1 0 0 1-.63 1.777H70.618a1 1 0 0 0-.894.553l-6.126 12.25a1 1 0 0 1-1.576.284L48.396 58.37a1 1 0 0 0-.922-.24l-15.58 3.849a1 1 0 0 1-1.225-1.142l1.127-6.484a1 1 0 0 0-.985-1.171H17.06a1 1 0 0 1-.786-1.619l7.169-9.105a1 1 0 0 0-.09-1.336L5.122 23.41a1 1 0 0 1 .697-1.717z" fill="#FF81CE"/><path d="M67.293 4.788l15.338 10.615a1 1 0 0 0 1.01.075l19.196-9.433a1 1 0 0 1 1.42.699l3.059 15.07a1 1 0 0 0 .894.797l16.456 1.412a1 1 0 0 1 .62 1.704l-11.633 11.59a1 1 0 0 0-.057 1.354l13.099 15.463a1 1 0 0 1-.833 1.644l-19.215-1.346a1 1 0 0 0-.952.526l-7.408 13.876a1 1 0 0 1-1.575.25L74.615 47.848a1 1 0 0 0-1.035-.22l-16.675 6.065a1 1 0 0 1-1.295-1.24l4.647-14.734a1 1 0 0 0-.461-1.171L39.975 25.325a1 1 0 0 1 .183-1.821l23.266-7.58a1 1 0 0 0 .677-.784l1.637-9.696a1 1 0 0 1 1.555-.656z" fill="#FFAADE"/><path d="M94.768 44.962a3.5 3.5 0 1 1-.731 6.961 3.5 3.5 0 0 1 .731-6.961zm4.461-20.647a2 2 0 0 1 1.748 2.405L97.65 42.353a1 1 0 0 1-1.083.787l-3.182-.335a1 1 0 0 1-.895-.994l-.003-15.983a2 2 0 0 1 2.21-1.99l4.531.477z" fill="#FF81CE"/><path d="M44.57 43.729a3.5 3.5 0 1 1-1.929 6.729 3.5 3.5 0 0 1 1.93-6.73zm7.98-19.559a2 2 0 0 1 1.302 2.672l-5.99 14.819a1 1 0 0 1-1.202.586l-3.076-.882a1 1 0 0 1-.71-1.134l2.774-15.741a2 2 0 0 1 2.52-1.576l4.381 1.256z" fill="#FFAADE"/><path d="M83.663 40.657a3.5 3.5 0 1 1 2.163 6.658 3.5 3.5 0 0 1-2.163-6.658zm-4.322-20.676a2 2 0 0 1 2.574 1.487l3.32 15.634a1 1 0 0 1-.668 1.159l-3.043.989a1 1 0 0 1-1.223-.545l-6.503-14.6a2 2 0 0 1 1.209-2.716l4.334-1.408z" fill="#FF81CE"/></g></svg>