<svg viewBox="0 0 135 124" fill="none" xmlns="http://www.w3.org/2000/svg"><path d="M107 11H28c-9.389 0-17 7.611-17 17v79c0 9.389 7.611 17 17 17h79c9.389 0 17-7.611 17-17V28c0-9.389-7.611-17-17-17z" fill="#126E99"/><path d="M107.914 11.024A17.311 17.311 0 0 0 107 11H74.458a13.787 13.787 0 0 0 2.196 2.698l5.335 5.089c5.5 5.247 14.213 5.041 19.46-.46l4.551-4.77a13.792 13.792 0 0 0 1.914-2.533zM63.528 11H30.3c.507.833 1.11 1.625 1.81 2.36l4.552 4.77c5.247 5.5 13.96 5.706 19.46.46l5.334-5.09a13.795 13.795 0 0 0 2.072-2.5z" fill="#3D3D3D"/><path fill="#3D3D3D" d="M92.926 11H49.443v14.391h43.483z"/><path d="M51.966 22.21c-5.823 0-10.544 4.72-10.544 10.543V59.11c0 6.842 5.547 12.389 12.389 12.389h30.576c6.842 0 12.389-5.547 12.389-12.389V32.753c0-5.823-4.72-10.544-10.544-10.544H51.966z" fill="#A46648"/><rect x="59.13" y="31.916" width="14.095" height="18.485" rx="7.048" fill="#fff"/><rect x="77.215" y="31.916" width="14.095" height="18.485" rx="7.048" fill="#fff"/><path d="M84.859 40.465a2.542 2.542 0 0 0 2.09-3.986 3.12 3.12 0 0 1 4.15 2.945v3.928a3.12 3.12 0 1 1-6.24 0v-2.887zM67.457 40.465a2.542 2.542 0 0 0 2.005-4.105 3.12 3.12 0 0 1 3.705 3.064v3.929a3.12 3.12 0 0 1-6.239 0V40.41c.17.036.348.055.53.055z" fill="#3D3D3D"/><circle r="6.287" transform="matrix(-1 0 0 1 40.393 43.896)" fill="#A46648"/><path d="M75.563 43.105L55.022 41.82V31.265h40.51v8.274l-19.97 2.282v1.284z" fill="#A46648"/><path d="M100.207 19.573H74.241v3.153l22.544 14.523 3.422-17.676z" fill="#FDB02A"/><path d="M38.262 19.573h40.414v3.153l-37.221 14.38-3.193-17.533z" fill="#FDB02A"/><path d="M72.146 52.511l-5.706-2.89a7.988 7.988 0 0 0-11.598 7.126v7.829a5.706 5.706 0 0 0 5.705 5.706h10.27a5.706 5.706 0 0 0 5.706-5.706v-4.94a7.988 7.988 0 0 0-4.377-7.125z" fill="#771919" stroke="#A46648" stroke-width="4.565"/><path fill-rule="evenodd" clip-rule="evenodd" d="M69.106 61.153a8.52 8.52 0 0 1 5.136 1.711l-.001 1.712A3.423 3.423 0 0 1 70.817 68H60.718a8.562 8.562 0 0 1 8.388-6.847z" fill="#B42C2C"/><path fill-rule="evenodd" clip-rule="evenodd" d="M62.83 51.04c.896 0 1.779.211 2.578.616l5.706 2.891a5.706 5.706 0 0 1 2.798 3.181H57.124v-.982a5.706 5.706 0 0 1 5.706-5.706z" fill="#fff"/><path d="M77.581 50.288a2.304 2.304 0 0 1-4.608 0c0-1.273 2.208-4.225 2.304-4.225.096 0 2.304 2.952 2.304 4.225z" fill="#86401F"/><rect width="6.853" height="4.745" rx="2.372" transform="matrix(-1 0 0 1 79.522 48.59)" fill="#86401F"/><path fill-rule="evenodd" clip-rule="evenodd" d="M124 98v9c0 9.389-7.611 17-17 17H28c-9.389 0-17-7.611-17-17v-9h113z" fill="#FFB100"/><path fill-rule="evenodd" clip-rule="evenodd" d="M117 116l.001 4.748A16.923 16.923 0 0 1 107 124h-2v-8h12zM124 104v3c0 3.305-.943 6.39-2.576 9.001L117 116v-12h7z" fill="#3D3D3D"/><path fill-rule="evenodd" clip-rule="evenodd" d="M18 99v21.749a17.033 17.033 0 0 1-2-1.707V99h2z" fill="#D69500"/><path fill-rule="evenodd" clip-rule="evenodd" d="M47.47 71.682a4.665 4.665 0 0 0-3.298 5.714l9.55 35.641 9.013-2.415-9.55-35.641a4.665 4.665 0 0 0-5.714-3.299z" fill="#FFB100"/><path fill-rule="evenodd" clip-rule="evenodd" d="M74.085 72.437a4.665 4.665 0 0 1 3.398 5.655l-8.926 35.802-9.054-2.257 8.927-35.802a4.665 4.665 0 0 1 5.655-3.398z" fill="#FFB100"/><path fill-rule="evenodd" clip-rule="evenodd" d="M53.233 70.828H68.22a2.827 2.827 0 0 1 2.827 2.828v23.609h-20.64v-23.61a2.827 2.827 0 0 1 2.827-2.827z" fill="#FFB100"/><path d="M44.633 75.646L21.12 43.286l-10.517 7.64 23.511 32.361 10.518-7.64z" fill="#A56644"/><path d="M27 51.376l-5.879-8.09-10.517 7.64 5.878 8.09 10.517-7.64z" fill="#A56644"/><path fill-rule="evenodd" clip-rule="evenodd" d="M11 70h113v28H11V70z" fill="#5DCBFF"/><path d="M98.074 68.236a4 4 0 0 0-7.417 2.997l4.12 10.199a4 4 0 0 0 7.418-2.997l-4.12-10.199z" fill="#3DA4D5"/><path fill-rule="evenodd" clip-rule="evenodd" d="M104.932 70.975l13.023 10.928L103.693 96l-19.33-.511 20.569-24.514z" fill="#3DA4D5"/><path d="M116 68h-12a3 3 0 0 0-3 3v9a3 3 0 0 0 3 3h12a3 3 0 0 0 3-3v-9a3 3 0 0 0-3-3zM91.164 70H11v27h73.728l6.436-27z" fill="#3DA4D5"/><path fill-rule="evenodd" clip-rule="evenodd" d="M71 70L45.862 97H11v-9.815L27 70h44z" fill="#9ACFE9"/><path opacity=".484" fill-rule="evenodd" clip-rule="evenodd" d="M81 70h15L69 99H54l27-29z" fill="#fff"/><path d="M124 95H11v4h113v-4zM105 104H93v12h12v-12zM82 104H70v12h12v-12zM70 116H58v8h12v-8zM94 116H82v8h12v-8z" fill="#3D3D3D"/><path d="M21 41H11a4 4 0 0 0-4 4v4a4 4 0 0 0 4 4h10a4 4 0 0 0 4-4v-4a4 4 0 0 0-4-4z" fill="#A56644"/><path d="M22 37h-1a3 3 0 0 0-3 3v5a3 3 0 0 0 3 3h1a3 3 0 0 0 3-3v-5a3 3 0 0 0-3-3z" fill="#A56644"/><path d="M17 37h-1a3 3 0 0 0-3 3v4a3 3 0 0 0 3 3h1a3 3 0 0 0 3-3v-4a3 3 0 0 0-3-3z" fill="#A56644"/><path d="M11 37h-1a3 3 0 0 0-3 3v4a3 3 0 0 0 3 3h1a3 3 0 0 0 3-3v-4a3 3 0 0 0-3-3z" fill="#A56644"/><path d="M14 45H4a4 4 0 0 0 0 8h10a4 4 0 0 0 0-8z" fill="#A56644"/><path d="M48 105H29a6 6 0 1 0 0 12h19a6 6 0 1 0 0-12z" fill="#3D3D3D"/><path d="M30 114a3 3 0 1 0 0-6 3 3 0 0 0 0 6z" fill="#D8D8D8"/><path d="M107 69.5a4.5 4.5 0 0 0-9 0v2a4.5 4.5 0 0 0 9 0v-2zM120 71.5a4.5 4.5 0 1 0-9 0 4.5 4.5 0 0 0 9 0z" fill="#A56644"/><path d="M114 67.5a4.5 4.5 0 0 0-9 0v6a4.5 4.5 0 0 0 9 0v-6zM92.867 66.026a4 4 0 0 1 5.207 2.21L98.787 70h-8.414a4.002 4.002 0 0 1 2.494-3.974z" fill="#A56644"/><path d="M55.125 41.25l20 2v-2l18.5-2.125M74.652 36.855l.625 6.25" stroke="#87401A" stroke-width="3" stroke-linecap="round" stroke-linejoin="round"/><path d="M68.078 11h8.407a10.65 10.65 0 0 1 .007 9.754l-1.639-.84c-4.383 2.205-9.86 1.146-13.073-2.824l-1.892-2.337a10.638 10.638 0 0 1 8.462-2.23c-.127-.5-.218-1.009-.272-1.523z" fill="#FDB02A"/></svg>