<svg viewBox="0 0 136 125" fill="none" xmlns="http://www.w3.org/2000/svg"><g clip-path="url(#clip0_302_3215)"><path d="M107.042 11.298h-79c-9.39 0-17 7.612-17 17v79c0 9.389 7.61 17 17 17h79c9.388 0 17-7.611 17-17v-79c0-9.388-7.612-17-17-17z" fill="#FFC100"/><path d="M122.753 21.53L21.233 123.05a16.937 16.937 0 0 0 7.08 1.56h41.32l54.68-54.68V28.61a16.938 16.938 0 0 0-1.56-7.08zm-72.12 48.14l58-58c-.43 0-.87-.07-1.31-.07h-48.59l-33.08 33.09c-6.904 6.904-6.904 18.096 0 25s18.096 6.904 25 0l-.02-.02z" fill="#FFD900"/><path d="M85.126 34.66l8.832 11.062a5.896 5.896 0 0 0 9.215-7.358L94.34 27.302a5.896 5.896 0 1 0-9.214 7.358z" fill="#F68B00"/><path fill-rule="evenodd" clip-rule="evenodd" d="M104.487 40.01L93.226 25.907a2.24 2.24 0 0 1 .196-3.01l20.272-19.531a2.24 2.24 0 0 1 3.303.215l14.523 18.188a2.24 2.24 0 0 1-.521 3.269l-23.534 15.446a2.239 2.239 0 0 1-2.978-.474z" fill="#FFF1A2"/><path fill-rule="evenodd" clip-rule="evenodd" d="M109.107 35.274L98.867 22.45a1.6 1.6 0 0 1 .157-2.166l15.121-14.14a1.599 1.599 0 0 1 2.342.17l12.255 15.348a1.6 1.6 0 0 1-.352 2.322L111.254 35.6a1.599 1.599 0 0 1-2.147-.326z" fill="#F68B00"/><path d="M92.734 42.146l1.404 1.758a.797.797 0 0 0 1.246-.994l-1.405-1.759a.797.797 0 0 0-1.245.995zM87.137 35.137l1.405 1.759a.797.797 0 0 0 1.245-.995l-1.404-1.758a.797.797 0 0 0-1.246.994z" fill="#E27903"/><path d="M90.16 26.153l13.208 16.541a2.39 2.39 0 1 0 3.735-2.983l-13.207-16.54a2.39 2.39 0 0 0-3.736 2.982z" fill="#F68B00"/><path opacity=".721" d="M99.657 37.026l3.405 4.264a1.116 1.116 0 0 0 1.744-1.392l-3.406-4.264a1.115 1.115 0 1 0-1.743 1.392z" fill="#FFF1A2"/><path d="M109.59 30.206l2.858.32a.863.863 0 0 0 .954-.761l.32-2.859a.862.862 0 0 0-.761-.953l-2.859-.32a.863.863 0 0 0-.953.76l-.321 2.86c-.053.473.288.9.762.953zM109.577 19.587l2.001.224c.473.053.9-.288.953-.761l.224-2.002a.862.862 0 0 0-.761-.953l-2.001-.224a.863.863 0 0 0-.954.761l-.224 2.001c-.053.474.288.9.762.954zM117.278 22.45l1.911.634a.863.863 0 0 0 1.091-.546l.635-1.91a.862.862 0 0 0-.546-1.092l-1.911-.635a.863.863 0 0 0-1.091.546l-.636 1.911c-.15.452.095.94.547 1.091z" fill="#E27903"/><path d="M78.92 46.514l1.078 4.026a1.25 1.25 0 0 0 1.532.884l4.026-1.079a1.25 1.25 0 0 0 .884-1.531l-1.079-4.026a1.25 1.25 0 0 0-1.531-.885l-4.026 1.08a1.25 1.25 0 0 0-.885 1.53z" fill="#F68B00"/><path d="M81.278 62.404l1.078 4.026a1.25 1.25 0 0 0 1.532.884l4.026-1.079a1.25 1.25 0 0 0 .884-1.531l-1.079-4.026a1.25 1.25 0 0 0-1.531-.885l-4.026 1.08a1.25 1.25 0 0 0-.885 1.53z" fill="#E27903"/><path d="M92.528 55.15l.91 3.396c.15.562.73.896 1.292.745l3.395-.91c.562-.15.896-.728.745-1.29l-.91-3.396a1.054 1.054 0 0 0-1.29-.745l-3.396.91c-.562.15-.896.728-.746 1.29zM74.38 38.989c0 19.763-16.022 35.785-35.786 35.785-19.763 0-35.784-16.022-35.784-35.785 0-19.763 16.021-35.785 35.784-35.785 19.764 0 35.785 16.021 35.785 35.785z" fill="#F68B00"/><path d="M25.111 32.02l1.866 2.939 33.416-24.346c-.9-.794-2.03-1.444-3.054-2.13L25.111 32.02z" fill="#E27903"/><path fill-rule="evenodd" clip-rule="evenodd" d="M15.967 38.2L39.11 21.866 61.926 38.2v51.201H15.967v-51.2z" fill="#FFB100"/><path fill-rule="evenodd" clip-rule="evenodd" d="M20.528 43.118a8.27 8.27 0 1 1 16.542 0v5.03a8.27 8.27 0 1 1-16.542 0v-5.03z" fill="#FFF1A2"/><path d="M40.7 43.118a8.27 8.27 0 1 1 16.542 0v5.03a8.27 8.27 0 1 1-16.542 0v-5.03z" fill="#FFF1A2"/><path fill-rule="evenodd" clip-rule="evenodd" d="M33.357 40.83a3.713 3.713 0 0 1 3.713 3.712v4.664a3.713 3.713 0 1 1-7.426 0v-4.664l.006-.218a2.719 2.719 0 0 0 2.885-3.404c.265-.06.54-.09.822-.09zM53.529 40.886a3.713 3.713 0 0 1 3.713 3.714v4.663a3.713 3.713 0 1 1-7.426 0V44.6l.006-.218a2.719 2.719 0 0 0 2.885-3.404c.265-.06.54-.092.822-.092z" fill="#E27903"/><path d="M20.828 46.686c3.695-.324 12.83 1.17 17.43 4.368a4.518 4.518 0 0 1-4.955 7.552l-.2-.132c-1.394-.969-3.941-1.776-7.028-2.28a41.894 41.894 0 0 0-3.47-.418l-.46-.032-.41-.024-.356-.017.237-.016a4.518 4.518 0 1 1-.788-9.001z" fill="#FFB100"/><path d="M56.412 48.826c-3.695-.323-12.83 1.171-17.431 4.368a4.518 4.518 0 0 0 4.956 7.552l.2-.132c1.394-.968 3.941-1.775 7.028-2.28a41.808 41.808 0 0 1 3.47-.417l.46-.033.41-.024.356-.016-.237-.016a4.518 4.518 0 0 0 .788-9.002z" fill="#FFB100"/><path fill-rule="evenodd" clip-rule="evenodd" d="M3.688 75.974c0-11.602 9.405-21.007 21.007-21.007h29.556c11.602 0 21.007 9.405 21.007 21.007 0 11.601-9.405 21.006-21.007 21.006H24.695c-11.602 0-21.007-9.405-21.007-21.007z" fill="#E27903"/><path d="M38.801 62.21l-.096-.006c-2.91-.167-4.792-1.122-5.87-2.862l-.05-.081c-1.695-2.837-5.301-3.743-8.053-2.024-2.753 1.718-3.61 5.41-1.915 8.247 3.281 5.49 8.771 8.335 15.319 8.711 3.228.186 5.973-2.348 6.13-5.66.156-3.278-2.283-6.089-5.465-6.324z" fill="#FFF1A2"/><path fill-rule="evenodd" clip-rule="evenodd" d="M39.158 57.119l.02.002c6.049.448 10.468 5.725 10.186 11.657-.286 6.025-5.34 10.868-11.521 10.512-7.936-.456-15.114-4.006-19.407-11.188-3.077-5.15-1.59-11.96 3.593-15.195 5.245-3.275 12.004-1.48 15.124 3.715l.031.05c.02.03.046.059.154.112.19.093.673.268 1.66.325h.02l.14.01zm-6.324 2.223l-.05-.081c-1.694-2.837-5.3-3.743-8.053-2.025-2.752 1.719-3.61 5.411-1.914 8.248 3.28 5.489 8.771 8.335 15.318 8.711 3.23.186 5.974-2.348 6.131-5.66.156-3.278-2.283-6.089-5.465-6.325l-.096-.006c-2.91-.167-4.792-1.123-5.87-2.862z" fill="#E27903"/><path d="M43.657 52.913a4.824 4.824 0 1 1-9.648 0 4.824 4.824 0 0 1 9.648 0z" fill="#FFB100"/><path d="M85.162 109.481a8.55 8.55 0 1 0-16.345-3.521c0 1.255.27 2.447.756 3.521h-1.005a3.269 3.269 0 1 0 0 6.538h17.575a3.27 3.27 0 0 0 0-6.538h-.981z" fill="#E27903"/><path d="M89.084 86.626l18.861-26.066c2.023-2.797 6.249-2.604 8.009.366l17.086 28.832c2.201 3.714-.321 8.439-4.631 8.678l-9.377.506c.971 2.052-.232 4.416-2.503 4.416H97.63c-8.61 0-13.593-9.757-8.546-16.732z" fill="#F68B00"/><path d="M112.128 71.124a1.945 1.945 0 0 1 3.776-.942l7.123 28.482-3.984.26-6.915-27.8z" fill="#E27903"/><path d="M74.644 109.462l1.067 1.068a1.005 1.005 0 0 1 0 1.421l-1.066 1.069a1.004 1.004 0 0 1-1.421 0l-1.067-1.069a1.005 1.005 0 0 1 0-1.421l1.066-1.068a1.005 1.005 0 0 1 1.421-.001v.001z" fill="#FFB100"/><path d="M79.168 105.439l.71.712a1.005 1.005 0 0 1 0 1.421l-.71.713a1.004 1.004 0 0 1-1.421 0l-.71-.713a1.005 1.005 0 0 1 0-1.421l.71-.713a1.005 1.005 0 0 1 1.421-.001v.002z" fill="#FFD900"/><path d="M72.833 96.219a5.451 5.451 0 0 1 3.604 7.269 5.45 5.45 0 0 1 4.18 9.834 5.444 5.444 0 0 1 2.372 4.498h13.765c2.271 0 3.768-2.364 2.798-4.417l9.083-.505c4.31-.239 6.831-4.964 4.63-8.678L96.18 75.388c-1.76-2.97-5.986-3.163-8.01-.366L72.833 96.219z" fill="#FFB100"/><path d="M92.659 85.62a1.946 1.946 0 0 1 3.777-.941l7.123 28.481-3.985.26-6.915-27.8z" fill="#F68B00"/></g><defs><clipPath id="clip0_302_3215"><path fill="#fff" transform="translate(.042 .298)" d="M0 0h135v124H0z"/></clipPath></defs></svg>