<svg viewBox="0 0 135 124" fill="none" xmlns="http://www.w3.org/2000/svg"><g clip-path="url(#clip0)"><path d="M124 28v79a17.003 17.003 0 0 1-9.6 15.3c-.906.451-1.854.813-2.83 1.08a17.56 17.56 0 0 1-3 .55c-.52 0-1 .07-1.56.07h-79c-.45 0-.89 0-1.33-.06-1.4-.104-2.78-.383-4.11-.83l-.49-.17c-.504-.187-.998-.4-1.48-.64a16.546 16.546 0 0 1-2.28-1.3 17.117 17.117 0 0 1-3.11-2.78c-.07-.07-.13-.15-.2-.23a17.272 17.272 0 0 1-2.07-3.08 16.351 16.351 0 0 1-1.16-2.8 16.709 16.709 0 0 1-.78-5.08V28a17 17 0 0 1 3.48-10.3 17.07 17.07 0 0 1 6.11-5A16.84 16.84 0 0 1 28 11h79c2.565-.01 5.097.572 7.4 1.7a17.007 17.007 0 0 1 9.53 13.73c.05.57.07 1.04.07 1.57z" fill="#7FF0F1"/><path d="M124 102.5v5.61H17.89a2.81 2.81 0 0 1-2-4.79 2.831 2.831 0 0 1 2-.82H124z" fill="#69D6D9"/><path d="M40 44.81h9.8v10.64H36.21v-6.8A3.84 3.84 0 0 1 40 44.81zM103.33 106.36c8.284 0 15-6.715 15-15 0-8.284-6.716-15-15-15h-7.79c-8.284 0-15 6.716-15 15 0 8.285 6.716 15 15 15h7.79z" fill="#2D2D2D"/><path d="M124 60.08H80V91.6h44V60.08zM42.74 106.36c9.439 0 17.09-7.652 17.09-17.09 0-9.439-7.651-17.09-17.09-17.09S25.65 79.83 25.65 89.27c0 9.438 7.651 17.09 17.09 17.09z" fill="#2D2D2D"/><path d="M124 28v66.62a4.14 4.14 0 0 1-2.53-4.07v-.19a17 17 0 0 0 0-2.67 19.67 19.67 0 0 0-38.09-5.15 19.818 19.818 0 0 0-1.17 6.7v1a2.255 2.255 0 0 0 0 .26c.023.368-.001.738-.07 1.1a4.16 4.16 0 0 1-1.38 2.4c-.237.19-.491.358-.76.5a4.002 4.002 0 0 1-1.8.43H13.28c-.29.015-.58.015-.87 0a7.525 7.525 0 0 1-1.17-.2l-.24-.12a7.18 7.18 0 0 1-.79-.23A9.31 9.31 0 0 1 4 85.86a2.62 2.62 0 0 1 0-.28V75v-.48a.06.06 0 0 1 0-.06c.03-.49.09-.977.18-1.46a7.19 7.19 0 0 1 .2-.8 9.66 9.66 0 0 1 5.73-6.2h.1l.79-.31.24-.1 1.17-.48 23.79-9.76L47 50.94l2.14-6.13L57.42 21c.16-.46.354-.908.58-1.34a8.68 8.68 0 0 1 7.65-4.58H118l.31.26.45.41.41.41c.15.16.3.32.44.49l.09.1c.27.3.53.62.78.94.481.634.916 1.303 1.3 2 .376.645.71 1.313 1 2 .13.33.26.66.37 1 .18.54.33 1.09.46 1.65.06.26.11.52.15.79.04.27.13.86.17 1.29.04.43 0 .68.06 1 .01.22.01.4.01.58z" fill="#FC4D50"/><path d="M124 42.86v8.08H47l2.14-6.13L57.42 21c.16-.46.354-.908.58-1.34h63.81c.376.645.71 1.313 1 2l.45 7.89.74 13.31z" fill="#4B4B4B"/><path d="M105.68 48a10.49 10.49 0 0 0-19.78 0c-.177.47-.315.956-.41 1.45h4.13c.17-.51.402-.996.69-1.45a6.5 6.5 0 0 1 11 0c.295.451.53.939.7 1.45h4.13a8.974 8.974 0 0 0-.46-1.45z" fill="#2D2D2D"/><path d="M82 47.88a3.06 3.06 0 0 1-3.06 3.06H58a1.71 1.71 0 0 1-1.6-2.3l8.9-24.32.52-1.54a4.52 4.52 0 0 1 4.3-3.12h8.81A3.06 3.06 0 0 1 82 22.72v25.16z" fill="#666161"/><path d="M124 28v66.85a3.19 3.19 0 0 1-2.61-3.25 1.082 1.082 0 0 1 0-.18c0-.28 0-.57.07-.87v-.19a17 17 0 0 0 0-2.67 19.67 19.67 0 0 0-38.09-5.15 19.818 19.818 0 0 0-1.17 6.7v1a2.255 2.255 0 0 0 0 .26c0 .3 0 .6.07.9.01.066.01.133 0 .2a3.16 3.16 0 0 1-1.47 2.8 3.54 3.54 0 0 1-.84.38c-.298.09-.608.134-.92.13h-6.57a9.31 9.31 0 0 1-9.31-9 2.432 2.432 0 0 1 0-.27V75a9.369 9.369 0 0 1 .43-2.85A9.58 9.58 0 0 1 69.31 66L80 61.64l3.81-1.56 22.36-9.14 1-2.91 9.43-27c.161-.454.354-.895.58-1.32a8.664 8.664 0 0 1 2.53-2.91c.27.3.53.62.78.94.481.634.916 1.302 1.3 2 .376.644.71 1.312 1 2 .13.33.26.66.37 1 .18.54.33 1.09.46 1.65.06.26.11.52.15.79.04.27.13.86.17 1.29.04.43 0 .68.06 1V28z" fill="#A44242"/><path d="M76.18 85.86H3.82A3.82 3.82 0 0 0 0 89.68v5.82a3.82 3.82 0 0 0 3.82 3.82h72.36A3.82 3.82 0 0 0 80 95.5v-5.82a3.82 3.82 0 0 0-3.82-3.82z" fill="#777"/><path d="M17.94 75.84H46.3a4.36 4.36 0 0 1 4.36 4.36v8H13.58v-8a4.36 4.36 0 0 1 4.36-4.36z" fill="#2D2D2D"/><path d="M57.43 85.86H3.82A3.82 3.82 0 0 0 0 89.68v5.82a3.82 3.82 0 0 0 3.82 3.82h53.61a3.82 3.82 0 0 0 3.82-3.82v-5.82a3.82 3.82 0 0 0-3.82-3.82z" fill="#AFAFAF"/><path d="M103.36 106.36c8.295 0 15.02-6.724 15.02-15.02 0-8.295-6.725-15.02-15.02-15.02s-15.02 6.725-15.02 15.02c0 8.296 6.725 15.02 15.02 15.02z" fill="#4B4B4B"/><path d="M103.36 103.39c6.655 0 12.05-5.395 12.05-12.05 0-6.655-5.395-12.05-12.05-12.05-6.655 0-12.05 5.395-12.05 12.05 0 6.655 5.395 12.05 12.05 12.05z" fill="#AFAFAF"/><path d="M103.36 101.52c5.622 0 10.18-4.558 10.18-10.18s-4.558-10.18-10.18-10.18-10.18 4.558-10.18 10.18 4.558 10.18 10.18 10.18z" fill="#777"/><path d="M102.23 95.22a3.88 3.88 0 1 0 0-7.76 3.88 3.88 0 0 0 0 7.76z" fill="#AFAFAF"/><path d="M117.13 19.66c-.227.43-.417.879-.57 1.34l-10.44 29.94h1.4a4.21 4.21 0 0 0 4-2.87L120.41 23a2.52 2.52 0 0 0-2.41-3.34h-.87z" fill="#2D2D2D"/><path d="M58 19.66c-.227.43-.417.879-.57 1.34L47 50.94h1.39a4.23 4.23 0 0 0 4-2.87L61.28 23a2.53 2.53 0 0 0-2.39-3.34H58z" fill="#666161"/><path d="M91.58 25.08l1.26 3.18 4.16-.92-1.58 3.94 2.93 1.76-3.69 2.87.34 3.62-4.08.45-2.41 3.79-2.55-2.19-4.04 2.19.17-3.79-3.77-.45 2.81-3.62-1.75-2.87 4.14-1.76 1.1-3.94 3.52.92 3.44-3.18z" fill="#fff"/><path d="M67.23 72.17H55.28a2.55 2.55 0 0 0-2.55 2.55v4.75a2.55 2.55 0 0 0 2.55 2.55h11.95a2.55 2.55 0 0 0 2.55-2.55v-4.75a2.55 2.55 0 0 0-2.55-2.55zM12.48 74.71v4.77A2.55 2.55 0 0 1 9.93 82H4v-7c0-.963.145-1.92.43-2.84h5.5a2.55 2.55 0 0 1 2.55 2.55z" fill="#F7F7F7"/><path d="M75.04 72.17h-1.13a2.5 2.5 0 0 0-2.5 2.5v4.85a2.5 2.5 0 0 0 2.5 2.5h1.13a2.5 2.5 0 0 0 2.5-2.5v-4.85a2.5 2.5 0 0 0-2.5-2.5z" fill="#FD9526"/><path d="M124 28v22.94h-6.19a1.711 1.711 0 0 1-1.6-2.3l7-19.1.77-2.08c.02.18.02.36.02.54z" fill="#2D2D2D"/><path d="M30.08 80.43a4.56 4.56 0 1 0 0-9.12 4.56 4.56 0 0 0 0 9.12z" fill="#AFAFAF"/><path d="M108 50.94H52.2l.54-.78a4.9 4.9 0 0 1 4-2.13H108v2.91z" fill="#2D2D2D"/><path opacity=".4" d="M48.62 50.94h24.06l38.19-31.28H86.81L48.62 50.94z" fill="#fff"/></g><defs><clipPath id="clip0"><path fill="#fff" d="M0 0h135v124H0z"/></clipPath></defs></svg>