<svg viewBox="0 0 135 124" fill="none" xmlns="http://www.w3.org/2000/svg"><g clip-path="url(#clip0)"><path d="M11 28c0-9.389 7.611-17 17-17h79c9.389 0 17 7.611 17 17v79c0 9.389-7.611 17-17 17H28c-9.389 0-17-7.611-17-17V28z" fill="#E5E5E5"/><path d="M86.716 58.905l32.466 2.042-1.25 19.864-32.466-2.042 1.25-19.864z" fill="#979797"/><path d="M93.943 74.352c-4.353 3.66-10.849 3.097-14.508-1.257l-3.174-3.775c-3.66-4.354-3.096-10.85 1.257-14.508l4.222-3.55c4.353-3.659 10.849-3.096 14.508 1.257l3.174 3.776c3.659 4.354 3.096 10.85-1.257 14.508l-4.222 3.55zm19.326 1.198c3.86 4.175 10.375 4.43 14.551.57l3.622-3.348c4.176-3.86 4.431-10.375.571-14.551l-3.744-4.05c-3.861-4.176-10.375-4.432-14.551-.571l-3.622 3.348c-4.176 3.86-4.432 10.375-.571 14.551l3.744 4.05z" fill="#979797"/><path d="M90.833 50.882c.357-5.676 5.248-9.987 10.923-9.63l7.428.467c5.675.357 9.987 5.247 9.63 10.923l-.387 6.145c-.357 5.676-5.247 9.988-10.923 9.63l-7.427-.466c-5.676-.357-9.987-5.248-9.63-10.923l.386-6.146z" fill="#979797"/><path d="M116.197 78.318a7.888 7.888 0 0 1 7.377 8.367l-1.238 19.681c-.321 5.108-4.723 8.989-9.832 8.668l-22.83-1.436a9.268 9.268 0 0 1-8.667-9.832l1.238-19.68a7.888 7.888 0 0 1 8.367-7.377l25.585 1.609z" fill="#B2B2B2"/><path d="M104.161 90.712a5.272 5.272 0 1 1 10.524.662l-.206 3.278a5.272 5.272 0 1 1-10.524-.662l.206-3.278z" fill="#fff"/><path d="M105.297 91.91a1.902 1.902 0 0 0 1.747-2.879 2.336 2.336 0 0 1 2.96 2.394l-.184 2.933a2.334 2.334 0 0 1-4.659-.293l.136-2.156z" fill="#979797"/><path d="M101.181 90.525a5.273 5.273 0 0 0-10.524-.662l-.206 3.278a5.273 5.273 0 0 0 10.524.662l.206-3.278z" fill="#fff"/><path d="M95.246 91.277a1.902 1.902 0 0 0 1.748-2.878 2.334 2.334 0 0 1 2.96 2.394l-.185 2.933a2.334 2.334 0 1 1-4.658-.293l.135-2.156z" fill="#979797"/><path d="M101.76 82.55c.526 2.13-2.514 4.714-6.791 5.77-4.277 1.057-8.171.187-8.697-1.944-.527-2.13 2.514-4.714 6.79-5.77 4.278-1.057 8.172-.186 8.698 1.944zm2.923.184c-.789 2.048 1.904 4.992 6.015 6.576 4.11 1.584 8.083 1.209 8.872-.84.789-2.047-1.904-4.991-6.015-6.575-4.111-1.585-8.083-1.209-8.872.84z" fill="#B2B2B2"/><path d="M102.344 74.335a7.977 7.977 0 0 1 9.067-6.713l-.332 2.225a7.978 7.978 0 0 1-9.067 6.714l.332-2.226z" fill="#D8D8D8"/><path d="M96.802 68.87a7.978 7.978 0 0 0 8.155 7.798l-.051-2.25a7.978 7.978 0 0 0-8.155-7.797l.051 2.25z" fill="#D8D8D8"/><path d="M80.306 74.084l24.011 1.51-.148 2.354L81.824 88.01l-1.518-13.926z" fill="#D8D8D8"/><path d="M126.556 76.993l-24.01-1.51-.148 2.353 20.907 12.783 3.251-13.626z" fill="#D8D8D8"/><path d="M86.933 83.048l1.56 3.141c.693 1.396-.386 3.019-1.941 2.921-1.556-.098-2.422-1.843-1.56-3.141l1.941-2.921zm5.237-5.955l2.003 4.035c.89 1.794-.494 3.88-2.493 3.753-1.999-.125-3.112-2.368-2.004-4.035l2.494-3.753z" fill="#fff"/><path d="M101.698 99.318l-12.622-3.761-.551 8.758 12.808.805.365-5.802z" fill="#B2B2B2"/><path d="M100.362 99.038a1.725 1.725 0 0 0 3.441.216c.06-.95-1.45-3.257-1.522-3.262-.072-.004-1.859 2.096-1.919 3.046z" fill="#979797"/><path d="M99.5 99.461a1.775 1.775 0 0 1 1.882-1.66l1.575.1a1.775 1.775 0 0 1-.223 3.543l-1.575-.1a1.775 1.775 0 0 1-1.66-1.883z" fill="#979797"/><path fill-rule="evenodd" clip-rule="evenodd" d="M96.88 107.346a.57.57 0 0 1 .413.209l2.31 2.824a.573.573 0 0 1-.887.726l-1.912-2.337-2.102 2.076a.573.573 0 0 1-.805-.815l2.55-2.519a.572.572 0 0 1 .433-.164z" fill="#979797"/><path d="M103.222 108.51l-12.674-.798.17-2.684c.184-2.946 3.498-4.577 5.946-2.927l5.094 3.435a3.336 3.336 0 0 1 1.464 2.974z" fill="#fff"/><path d="M48.821 101.314H58.97c.7 0 1.268.592 1.268 1.322v7.928c0 .73-.568 1.322-1.268 1.322H48.82c-.7 0-1.268-.592-1.268-1.322v-7.928c0-.73.568-1.322 1.268-1.322z" fill="#BFBFBF"/><path d="M37.124 80.576h4.444a.74.74 0 0 1 .74.741V82.8a.74.74 0 0 1-.74.74h-4.444a.74.74 0 0 1-.74-.74v-1.482c0-.409.33-.74.74-.74z" fill="#979797"/><path d="M34.902 82.799h8.888a1.48 1.48 0 0 1 1.481 1.48v12.593a1.48 1.48 0 0 1-1.481 1.48h-8.888a1.481 1.481 0 0 1-1.482-1.48V84.28c0-.818.663-1.481 1.482-1.481z" fill="#D8D8D8"/><path fill-rule="evenodd" clip-rule="evenodd" d="M43.79 88.724h-8.888v6.666a1.48 1.48 0 0 0 1.481 1.481h5.926a1.48 1.48 0 0 0 1.481-1.48v-6.667z" fill="#BFBFBF"/><path fill-rule="evenodd" clip-rule="evenodd" d="M38.925 76.416a.72.72 0 0 0-.299.584v4.388a.72.72 0 1 0 1.44 0v-3.39l3.229 1.073a.72.72 0 1 0 .454-1.366l-4.176-1.388a.72.72 0 0 0-.648.1zM20.367 98.143c-.75 0-1.357.584-1.357 1.304v7.823c0 .72.608 1.304 1.357 1.304h7.466v4.122c0 .72.607 1.304 1.357 1.304h4.072c.75 0 1.357-.584 1.357-1.304v-4.122h24.432v4.122c0 .72.608 1.304 1.357 1.304h4.072c.75 0 1.358-.584 1.358-1.304v-4.122h6.786c.75 0 1.358-.584 1.358-1.304v-7.823c0-.72-.608-1.304-1.358-1.304H20.368z" fill="#979797"/><path fill-rule="evenodd" clip-rule="evenodd" d="M57.103 96.029h-15.93c-1.147 0-2.077.912-2.077 2.038v6.117c0 .75.62 1.359 1.385 1.359h15.237c.765 0 1.385-.609 1.385-1.359v-4.329c0-1.002.829-1.815 1.85-1.815.076 0 .153.005.228.014l-2.078-2.025z" fill="#BFBFBF"/><path fill-rule="evenodd" clip-rule="evenodd" d="M59.277 96.029H47.505c-.558 0-1.01.473-1.01 1.057s.452 1.057 1.01 1.057h13.79c0-1.168-.903-2.114-2.018-2.114z" fill="#BFBFBF"/><path d="M39.096 101.314h17.971v1.057H39.096v-1.057z" fill="#D8D8D8"/><path fill-rule="evenodd" clip-rule="evenodd" d="M70.021 12.033l5.798 1.968a2.256 2.256 0 0 1 1.412 2.86l-.51 1.505a2.256 2.256 0 0 1-2.862 1.412L68.06 17.81a2.256 2.256 0 0 1-1.412-2.861l.51-1.505a2.256 2.256 0 0 1 2.862-1.411z" fill="#9E9E9E"/><path fill-rule="evenodd" clip-rule="evenodd" d="M78.97 15.748l26.244 8.906a2.257 2.257 0 0 1 1.412 2.861l-.201.593a2.257 2.257 0 0 1-2.862 1.41l-26.244-8.905a2.256 2.256 0 0 1-1.411-2.861l.2-.593a2.256 2.256 0 0 1 2.862-1.411z" fill="#BFBFBF"/><path fill-rule="evenodd" clip-rule="evenodd" d="M109.388 25.392l5.798 1.968a2.257 2.257 0 0 1 1.412 2.861l-.511 1.505a2.255 2.255 0 0 1-2.861 1.41l-5.798-1.967a2.257 2.257 0 0 1-1.412-2.861l.511-1.504a2.255 2.255 0 0 1 2.861-1.412z" fill="#9E9E9E"/><path fill-rule="evenodd" clip-rule="evenodd" d="M107.597 15.63l3.356 1.138a1.934 1.934 0 0 1 1.21 2.453l-6.29 18.534a1.933 1.933 0 0 1-2.452 1.21l-3.357-1.14a1.934 1.934 0 0 1-1.21-2.452l6.29-18.534a1.934 1.934 0 0 1 2.453-1.21z" fill="#979797"/><path fill-rule="evenodd" clip-rule="evenodd" d="M112.669 20.74l1.525.519a1.934 1.934 0 0 1 1.21 2.452l-4.226 12.453a1.934 1.934 0 0 1-2.453 1.21l-1.525-.518a1.934 1.934 0 0 1-1.21-2.452l4.226-12.453a1.934 1.934 0 0 1 2.453-1.21z" fill="#979797"/><path fill-rule="evenodd" clip-rule="evenodd" d="M108.392 20.307l.915.31a.968.968 0 0 1 .605 1.227l-1.855 5.466a.967.967 0 0 1-1.226.605l-.916-.31a.968.968 0 0 1-.605-1.227l1.855-5.466a.968.968 0 0 1 1.227-.605z" fill="#BFBFBF"/><path fill-rule="evenodd" clip-rule="evenodd" d="M80.131 6.309l3.357 1.139a1.934 1.934 0 0 1 1.21 2.452l-6.29 18.535a1.934 1.934 0 0 1-2.453 1.21l-3.356-1.14a1.934 1.934 0 0 1-1.21-2.452l6.29-18.535a1.934 1.934 0 0 1 2.452-1.21z" fill="#979797"/><path fill-rule="evenodd" clip-rule="evenodd" d="M74.827 7.9l1.525.517a1.934 1.934 0 0 1 1.21 2.453l-4.226 12.453a1.934 1.934 0 0 1-2.452 1.21l-1.526-.518a1.934 1.934 0 0 1-1.21-2.453L72.374 9.11a1.934 1.934 0 0 1 2.453-1.21z" fill="#979797"/><path fill-rule="evenodd" clip-rule="evenodd" d="M79.095 10.365l.915.31a.967.967 0 0 1 .605 1.227l-1.855 5.466a.967.967 0 0 1-1.226.605l-.915-.31a.967.967 0 0 1-.605-1.227l1.855-5.466a.967.967 0 0 1 1.226-.605zm-4.892.375l.916.31c.505.172.776.72.605 1.226l-.824 2.426a.967.967 0 0 1-1.226.605l-.915-.31a.967.967 0 0 1-.605-1.227l.823-2.426a.967.967 0 0 1 1.226-.604zm37.842 12.841l.915.31a.967.967 0 0 1 .605 1.227l-.823 2.426a.968.968 0 0 1-1.227.604l-.915-.31a.967.967 0 0 1-.605-1.227l.823-2.425a.968.968 0 0 1 1.227-.605z" fill="#BFBFBF"/><path d="M8.976 22h.002a7.723 7.723 0 0 1 6.953-8.268l36.218-3.524a7.723 7.723 0 0 1 8.417 6.772h.001l3.446 35.41a2.673 2.673 0 0 0 2.919 2.4l5.223-.508a1.114 1.114 0 0 1 1.216 1c.582 5.988-3.8 11.315-9.787 11.897l-47.89 4.66c-5.988.583-11.314-3.799-11.897-9.787a1.113 1.113 0 0 1 1-1.216l5.224-.508a2.673 2.673 0 0 0 2.4-2.919L8.977 22z" fill="#BFBFBF"/><path d="M12.954 22.629l43.832-4.265L61.04 62.1l-43.83 4.265-4.257-43.737z" fill="#D8D8D8"/><path d="M12.777 42.492a4.86 4.86 0 1 0-.94-9.674 4.86 4.86 0 0 0 .94 9.674zm48.012-4.672a4.86 4.86 0 1 0-.942-9.674 4.86 4.86 0 0 0 .942 9.674z" fill="#D8D8D8"/><path d="M15.136 67.355a1.336 1.336 0 0 1 1.2-1.46l45.472-4.424a1.336 1.336 0 0 1 1.46 1.2l.438 4.507a1.336 1.336 0 0 1-1.201 1.46l-45.471 4.424a1.336 1.336 0 0 1-1.46-1.201l-.438-4.506z" fill="#979797"/><path d="M10.098 33.327a4.86 4.86 0 0 1 6.296 1.689 5.416 5.416 0 0 0 1.519-4.32l-.66-6.772-7.995.778.84 8.625zm45.708-2.14a4.86 4.86 0 0 1 5.844-2.88l-.839-8.621-7.995.778.658 6.772a5.417 5.417 0 0 0 2.332 3.95z" fill="#BFBFBF"/><path d="M7.409 20.726a1.336 1.336 0 0 1 1.2-1.46l51.792-5.04a1.336 1.336 0 0 1 1.46 1.201l.356 3.67a1.336 1.336 0 0 1-1.2 1.46l-51.792 5.04a1.336 1.336 0 0 1-1.46-1.202l-.356-3.67z" fill="#979797"/><path d="M36.712 21.688c5.928-.577 10.267-5.85 9.69-11.78-.577-5.928-5.85-10.266-11.78-9.69a10.779 10.779 0 0 0-8.64 5.985l-2.246-2.036c-.618-.56-1.6-.423-1.913.351a9.37 9.37 0 0 0-.639 4.435 9.404 9.404 0 0 0 5.226 7.54 10.787 10.787 0 0 0 10.302 5.195zm.038 42.962a.962.962 0 0 1 .86-.824l2.924-.285a.962.962 0 0 1 1.002.644l2.7 7.81a.962.962 0 0 1-.815 1.272l-6.77.659a.962.962 0 0 1-1.045-1.091l1.144-8.185z" fill="#BFBFBF"/><path fill-rule="evenodd" clip-rule="evenodd" d="M19.789 23.913c1.285-2.29 3.703-3.933 6.546-4.353a9.36 9.36 0 0 1 4.472.414 2.197 2.197 0 1 1-1.458 4.145 4.968 4.968 0 0 0-2.373-.212c-1.583.233-2.777 1.126-3.355 2.156a2.197 2.197 0 0 1-3.832-2.15zm29.717 1.33c-1.584-2.095-4.203-3.394-7.076-3.424a9.36 9.36 0 0 0-4.375 1.017 2.197 2.197 0 1 0 2.008 3.909 4.966 4.966 0 0 1 2.321-.533c1.6.017 2.905.74 3.617 1.68a2.197 2.197 0 1 0 3.505-2.65z" fill="#BFBFBF"/><path fill-rule="evenodd" clip-rule="evenodd" d="M38.503 31.482a.879.879 0 0 1 1.232.163 3.809 3.809 0 0 0 3.399 1.48 3.809 3.809 0 0 0 3.05-2.107.879.879 0 0 1 1.575.78 5.566 5.566 0 0 1-4.455 3.076 5.566 5.566 0 0 1-4.964-2.16.879.879 0 0 1 .163-1.232z" fill="#979797"/><path d="M24.039 39.659a1.06 1.06 0 0 1 1.425-.782l2.164.841a40.354 40.354 0 0 0 13.787 2.735l2.32.048a1.06 1.06 0 0 1 1.02 1.268l-.63 3.168c-1.134 5.72-6.691 9.438-12.412 8.303-5.72-1.135-9.438-6.693-8.303-12.413l.629-3.168z" fill="#979797"/><path d="M44.568 42.934a1.056 1.056 0 0 0-.832-.432l-2.321-.049a40.35 40.35 0 0 1-13.788-2.735l-2.163-.841a1.06 1.06 0 0 0-1.425.782l-.629 3.168a10.57 10.57 0 0 0-.176 2.834c.351.301.82.464 1.316.416l2.188-.213a1.758 1.758 0 0 0 1.515-1.247 1.758 1.758 0 0 0 1.727.932l2.188-.213a1.758 1.758 0 0 0 1.515-1.248 1.758 1.758 0 0 0 1.727.932l2.188-.213a1.758 1.758 0 0 0 1.515-1.247 1.758 1.758 0 0 0 1.726.932l2.189-.213a1.758 1.758 0 0 0 1.54-1.345z" fill="#fff"/><path d="M38.551 54.297a10.515 10.515 0 0 1-6.838.943 10.536 10.536 0 0 1-7.153-5.187 10.08 10.08 0 0 1 3.986-1.252 10.12 10.12 0 0 1 10.005 5.495zm-2.617-22.242c.116-.011 1.294 1.51 2.498 3.108 1.199 1.59.182 3.865-1.8 4.058-1.982.193-3.419-1.843-2.55-3.635.874-1.8 1.737-3.52 1.852-3.53z" fill="#BFBFBF"/><path fill-rule="evenodd" clip-rule="evenodd" d="M24.564 32.838a.879.879 0 0 1 1.232.164 3.809 3.809 0 0 0 3.399 1.48 3.809 3.809 0 0 0 3.05-2.108.879.879 0 1 1 1.575.78 5.566 5.566 0 0 1-4.455 3.077 5.566 5.566 0 0 1-4.965-2.16.879.879 0 0 1 .164-1.233z" fill="#979797"/><path d="M127.424 95.22a4.703 4.703 0 1 1-9.388-.59 4.703 4.703 0 0 1 9.388.59zM86.22 92.822a4.703 4.703 0 1 1-9.388-.59 4.703 4.703 0 0 1 9.387.59z" fill="#B2B2B2"/></g><defs><clipPath id="clip0"><path fill="#fff" d="M0 0h135v124H0z"/></clipPath></defs></svg>