<svg viewBox="0 0 135 124" fill="none" xmlns="http://www.w3.org/2000/svg"><g clip-path="url(#clip0)"><path d="M107 11H28c-9.389 0-17 7.611-17 17v79c0 9.389 7.611 17 17 17h79c9.389 0 17-7.611 17-17V28c0-9.389-7.611-17-17-17z" fill="#2BB1F3"/><path d="M88.2 10H47.8C36.865 10 28 18.865 28 29.8v63.4c0 10.935 8.865 19.8 19.8 19.8h40.4c10.935 0 19.8-8.865 19.8-19.8V29.8C108 18.865 99.135 10 88.2 10z" fill="#BBF2FF"/><path d="M85.18 17H50.82C40.978 17 33 24.978 33 34.82v54.36C33 99.022 40.978 107 50.82 107h34.36c9.842 0 17.82-7.978 17.82-17.82V34.82C103 24.978 95.022 17 85.18 17zM92.36 0H43.64A2.64 2.64 0 0 0 41 2.64v5.72A2.64 2.64 0 0 0 43.64 11h48.72A2.64 2.64 0 0 0 95 8.36V2.64A2.64 2.64 0 0 0 92.36 0z" fill="#8FDCEE"/><path d="M65.087 104.477l18.013-10.4a3.6 3.6 0 0 0 1.318-4.917l-24.4-42.262A3.6 3.6 0 0 0 55.1 45.58l-18.014 10.4a3.6 3.6 0 0 0-1.317 4.918l24.4 42.262a3.6 3.6 0 0 0 4.918 1.317z" fill="#78C800" stroke="#58A700" stroke-width="3.6"/><path d="M86.084 90.046l-1.5-2.598a3 3 0 0 0-4.099-1.098l-2.598 1.5a3 3 0 0 0-1.098 4.098l1.5 2.598a3 3 0 0 0 4.098 1.098l2.598-1.5a3 3 0 0 0 1.099-4.098z" fill="#A3A3A3"/><path d="M67.897 100.546l-1.5-2.598a3 3 0 0 0-4.098-1.098l-2.598 1.5a3 3 0 0 0-1.098 4.098l1.5 2.598a3 3 0 0 0 4.098 1.098l2.598-1.5a3 3 0 0 0 1.098-4.098z" fill="#58A700"/><path d="M61.584 47.61l-1.5-2.598a3 3 0 0 0-4.099-1.098l-2.598 1.5a3 3 0 0 0-1.098 4.098l1.5 2.598a3 3 0 0 0 4.098 1.098l2.598-1.5a3 3 0 0 0 1.099-4.098z" fill="#939393"/><path d="M43.397 58.11l-1.5-2.598a3 3 0 0 0-4.098-1.098l-2.598 1.5a3 3 0 0 0-1.098 4.098l1.5 2.598a3 3 0 0 0 4.098 1.098l2.598-1.5a3 3 0 0 0 1.098-4.098zM64.892 80.341a6.5 6.5 0 1 0-6.5-11.258l-3.464 2a6.5 6.5 0 1 0 6.5 11.258l3.464-2z" fill="#58A700"/><path d="M69.46 89.25a3 3 0 1 0-3-5.195l-2.599 1.5a3 3 0 1 0 3 5.196l2.598-1.5z" fill="#A3A3A3"/><path d="M55.96 65.869a3 3 0 1 0-3-5.196l-2.599 1.5a3 3 0 1 0 3 5.196l2.598-1.5z" fill="#58A700"/><path d="M66.185 81.62l20.091-5.384a3.6 3.6 0 0 0 2.546-4.409L76.192 24.69a3.6 3.6 0 0 0-4.41-2.545l-20.091 5.383a3.6 3.6 0 0 0-2.546 4.41l12.63 47.136a3.6 3.6 0 0 0 4.41 2.546z" fill="#78C800" stroke="#58A700" stroke-width="3.6"/><path d="M90.202 73.114l-.777-2.898a3 3 0 0 0-3.674-2.121l-2.898.776a3 3 0 0 0-2.121 3.675l.776 2.897a3 3 0 0 0 3.675 2.122l2.897-.777a3 3 0 0 0 2.122-3.674z" fill="#838383"/><path d="M69.917 78.55l-.776-2.898a3 3 0 0 0-3.675-2.122l-2.897.777a3 3 0 0 0-2.122 3.674l.777 2.898A3 3 0 0 0 64.898 83l2.898-.776a3 3 0 0 0 2.121-3.675zM77.52 25.784l-.777-2.898a3 3 0 0 0-3.674-2.121l-2.898.776a3 3 0 0 0-2.121 3.674l.776 2.898a3 3 0 0 0 3.674 2.122l2.898-.777a3 3 0 0 0 2.121-3.674zM57.235 31.22l-.776-2.898a3 3 0 0 0-3.675-2.122l-2.897.777a3 3 0 0 0-2.122 3.674l.777 2.898a3 3 0 0 0 3.674 2.121l2.898-.776a3 3 0 0 0 2.121-3.675zM72.244 58.256a6.5 6.5 0 0 0-3.365-12.557l-3.863 1.035a6.5 6.5 0 1 0 3.364 12.557l3.864-1.035z" fill="#58A700"/><path d="M74.35 68.045a3 3 0 0 0-1.554-5.796l-2.898.777a3 3 0 1 0 1.553 5.795l2.898-.776z" fill="#A3A3A3"/><path d="M67.361 41.965a3 3 0 1 0-1.553-5.796l-2.898.777a3 3 0 1 0 1.553 5.795l2.898-.776z" fill="#58A700"/><path d="M63.461 99.157l20.091 5.384a3.6 3.6 0 0 0 4.41-2.546l12.63-47.137a3.6 3.6 0 0 0-2.546-4.409l-20.09-5.383a3.6 3.6 0 0 0-4.41 2.545l-12.63 47.137a3.6 3.6 0 0 0 2.545 4.41z" fill="#78C800" stroke="#58A700" stroke-width="3.6"/><path d="M88.513 103.799l.777-2.897a3 3 0 0 0-2.122-3.675l-2.897-.776a3 3 0 0 0-3.675 2.121l-.776 2.898a3 3 0 0 0 2.121 3.674l2.898.777a3 3 0 0 0 3.674-2.122zM68.229 98.365l.776-2.898a3 3 0 0 0-2.121-3.674l-2.898-.777a3 3 0 0 0-3.674 2.122l-.776 2.897a3 3 0 0 0 2.12 3.675l2.899.776a3 3 0 0 0 3.674-2.121zM101.195 56.47l.777-2.898a3 3 0 0 0-2.121-3.675l-2.898-.776a3 3 0 0 0-3.675 2.121l-.776 2.898a3 3 0 0 0 2.121 3.674l2.898.777a3 3 0 0 0 3.674-2.122zM80.911 51.034l.776-2.898a3 3 0 0 0-2.12-3.674l-2.899-.777a3 3 0 0 0-3.674 2.122l-.776 2.898a3 3 0 0 0 2.12 3.674l2.899.776a3 3 0 0 0 3.674-2.121zM80.39 81.953a6.5 6.5 0 1 0 3.365-12.557l-3.863-1.035a6.5 6.5 0 0 0-3.365 12.557l3.864 1.035zM77.32 91.483a3 3 0 0 0 1.553-5.796l-2.898-.776a3 3 0 1 0-1.553 5.796l2.898.776zM84.308 65.403a3 3 0 1 0 1.553-5.796l-2.898-.776a3 3 0 1 0-1.553 5.795l2.898.777z" fill="#58A700"/><path d="M45 35a4 4 0 0 0-8 0v57a4 4 0 0 0 8 0V35z" fill="#fff"/><path fill-rule="evenodd" clip-rule="evenodd" d="M20.914 34.55l3.536 3.536a2 2 0 0 1 0 2.828l-3.536 3.535a2 2 0 0 1-2.828 0l-3.536-3.535a2 2 0 0 1 0-2.828l3.536-3.536a2 2 0 0 1 2.828 0zM109.414 88.1l8.485 8.486a1.998 1.998 0 0 1 0 2.828l-8.485 8.486a2 2 0 0 1-2.828 0L98.1 99.414a2 2 0 0 1 0-2.828l8.486-8.485a2 2 0 0 1 2.828 0z" fill="#fff"/><path d="M33.278 22.879l-6.364-6.364a2 2 0 0 0-2.828 0l-6.364 6.364a2 2 0 0 0 0 2.828l6.364 6.364a2 2 0 0 0 2.828 0l6.364-6.364a2 2 0 0 0 0-2.828z" fill="#fff"/><path fill-rule="evenodd" clip-rule="evenodd" d="M107 124H28c-7.277 0-13.486-4.572-15.91-11H122.91c-2.426 6.428-8.634 11-15.911 11z" fill="#CB791D"/><path fill-rule="evenodd" clip-rule="evenodd" d="M45 49.411v31.093l-8-13.856V53.893l8-4.482z" fill="#ADE756"/></g><defs><clipPath id="clip0"><path fill="#fff" d="M0 0h135v124H0z"/></clipPath></defs></svg>