<svg viewBox="0 0 135 125" fill="none" xmlns="http://www.w3.org/2000/svg"><path fill-rule="evenodd" clip-rule="evenodd" d="M27.521 11.5h79c9.389 0 17 7.611 17 17v79c0 9.389-7.611 17-17 17h-79c-9.389 0-17-7.611-17-17v-79c0-9.389 7.611-17 17-17z" fill="#FFCA00"/><path d="M121.961 21.43L20.441 122.95a16.937 16.937 0 0 0 7.08 1.56h41.32l54.68-54.68V28.51a16.938 16.938 0 0 0-1.56-7.08zm-72.12 48.14l58-58c-.43 0-.87-.07-1.31-.07h-48.59l-33.08 33.09c-6.903 6.903-6.903 18.096 0 25 6.904 6.903 18.097 6.903 25 0l-.02-.02z" fill="#FFD900"/><path d="M97.52 38.302L83.02 5.014a2.1 2.1 0 0 0-3.863.03l-13.901 33.3a3 3 0 0 0 2.296 4.119l-6.778 15.223a2 2 0 0 0 1.827 2.814h2.957L56.68 81.728a2 2 0 0 0 1.846 2.772h40.94a2 2 0 0 0 1.833-2.8l-9.25-21.2h8.922a2.001 2.001 0 0 0 1.814-2.843L95.677 42.36a3 3 0 0 0 1.842-4.057z" fill="#FB8603"/><path d="M61.117 22.44l-3.535-3.536a1.5 1.5 0 0 0-2.121 0l-3.536 3.535a1.5 1.5 0 0 0 0 2.122l3.536 3.535a1.5 1.5 0 0 0 2.12 0l3.536-3.535a1.5 1.5 0 0 0 0-2.122zM48.885 37.293l-2.121-2.121a1 1 0 0 0-1.414 0l-2.122 2.12a1 1 0 0 0 0 1.415l2.122 2.121a1 1 0 0 0 1.414 0l2.121-2.12a1 1 0 0 0 0-1.415z" fill="#FFF1A2"/><path fill-rule="evenodd" clip-rule="evenodd" d="M106.629 124.5l-79.216-.001-.215-.002c-8.22-.153-15.014-6.142-16.413-13.997h112.472c-1.41 7.924-8.311 13.948-16.628 14z" fill="#E27903"/><path d="M40.035 55.686L26.756 25.895a2.1 2.1 0 0 0-3.849.03l-12.725 29.79a2 2 0 0 0 1.84 2.785h1.897L5.742 74.108A3 3 0 0 0 8.4 78.5h2.58l-7.3 14.663A3 3 0 0 0 6.367 97.5h11.306v13h13.87v-13h13.873a3 3 0 0 0 2.663-4.383L40.484 78.5h2.862a3 3 0 0 0 2.632-4.44L37.471 58.5h.737a2 2 0 0 0 1.827-2.814zM121.853 47.3l-13.648-31.292a2.1 2.1 0 0 0-3.862.03L91.259 47.343a3 3 0 0 0 2.768 4.157h2.014l-8.344 16.656A3 3 0 0 0 90.38 72.5H91.5l-9.813 19.66a3 3 0 0 0 2.684 4.34h15.15v14h16v-14h13.112a3 3 0 0 0 2.661-4.386L121.079 72.5h2.482a2.999 2.999 0 0 0 2.658-4.39l-8.682-16.61h1.566a3 3 0 0 0 2.75-4.2z" fill="#E27903"/><path fill-rule="evenodd" clip-rule="evenodd" d="M82.087 53.975l26.867 54.189a1.692 1.692 0 0 1-1.517 2.445H54.351a1.693 1.693 0 0 1-1.693-1.743l1.643-56.302h25.51a2.54 2.54 0 0 1 2.276 1.411z" fill="#FF9600"/><path fill-rule="evenodd" clip-rule="evenodd" d="M56.6 54.043l25.351 54.155a1.693 1.693 0 0 1-1.533 2.411H28.183a1.693 1.693 0 0 1-1.533-2.411L52 54.043a2.54 2.54 0 0 1 4.6 0z" fill="#FFB100"/><path fill-rule="evenodd" clip-rule="evenodd" d="M53.944 82.5c9.252 0 16.896 7.22 17.423 16.457l.664 11.652H35.68l.739-11.659c.586-9.249 8.259-16.45 17.526-16.45z" fill="#FFF1A2"/><path fill-rule="evenodd" clip-rule="evenodd" d="M53.41 81.104c10.284 0 18.621 8.338 18.621 18.622v11.004C61.14 108.254 53.41 98.571 53.41 87.4v-6.296z" fill="#FFB100"/><path fill-rule="evenodd" clip-rule="evenodd" d="M54.3 81.104c-10.284 0-18.621 8.338-18.621 18.622v11.004C46.57 108.254 54.3 98.571 54.3 87.4v-6.296z" fill="#FFB100"/><path d="M54.033 62.283c.695 0 1.266.53 1.33 1.208l.007.129v26.06a1.336 1.336 0 0 1-2.667.13l-.006-.13V63.62c0-.738.598-1.337 1.336-1.337z" fill="#FF9600"/></svg>