<svg viewBox="0 0 136 124" fill="none" xmlns="http://www.w3.org/2000/svg"><rect x="12.158" y="11" width="113" height="113" rx="17" fill="#FFCB2A"/><path fill-rule="evenodd" clip-rule="evenodd" d="M66.117 26.886c8.201 8.2 8.201 21.497 0 29.698l-53.406 53.407a17.078 17.078 0 0 1-.349-3.442V50.942l24.056-24.056c8.202-8.201 21.498-8.201 29.699 0zm59.245 1.056v35.354l-8.996 8.997c-4.881 4.882-12.796 4.882-17.677 0-4.882-4.881-4.882-12.796 0-17.677l26.673-26.674z" fill="#FFD900"/><path d="M68.427 67.664c1.336 13.95-8.89 26.342-22.84 27.678-13.95 1.336-26.341-8.89-27.678-22.84-1.336-13.95 8.89-26.341 22.84-27.677 13.95-1.337 26.342 8.889 27.678 22.839z" fill="#F89700"/><path d="M34.614 67.025l1.515 1.948L58.063 49.54c-.689-.5-1.403-.966-2.14-1.395l-21.31 18.88z" fill="#E27800"/><path d="M26.705 74.037l7.762-6.877 7.762-6.877L60.081 70.84l2.339 24.414-33.376 3.197-2.339-24.414z" fill="#FFB100"/><path d="M20.817 103.821c-.765-7.986 5.088-15.079 13.073-15.844l21.785-2.086c7.985-.765 15.078 5.088 15.843 13.074.765 7.985-5.088 15.078-13.074 15.843l-21.784 2.087c-7.985.765-15.079-5.089-15.843-13.074z" fill="#F89700"/><rect x="70.941" y="7.625" width="56.839" height="56.747" rx="13.685" fill="#FFF1A2"/><circle cx="77.848" cy="35.999" r="12.598" fill="#FFF1A2"/><circle cx="99.392" cy="14.795" r="12.598" transform="rotate(90 99.392 14.795)" fill="#FFF1A2"/><circle cx="120.934" cy="35.999" r="12.598" fill="#FFF1A2"/><circle cx="99.392" cy="57.882" r="12.598" transform="rotate(90 99.392 57.882)" fill="#FFF1A2"/><path fill-rule="evenodd" clip-rule="evenodd" d="M108.336 17.75l-2.142-1.044-1.317.888 2.142 1.045 1.317-.889z" fill="#BCBCBC"/><path fill-rule="evenodd" clip-rule="evenodd" d="M106.255 33.621l1.569.906a.68.68 0 0 1 .248.928l-.906 1.569a.678.678 0 0 1-.927.248l-1.569-.905a.68.68 0 0 1-.249-.928l.906-1.57a.68.68 0 0 1 .928-.248zM93.888 18.671l-1.192.688a.516.516 0 0 0-.189.705l.688 1.191a.516.516 0 0 0 .705.19l1.192-.689a.516.516 0 0 0 .188-.704l-.688-1.192a.516.516 0 0 0-.704-.189z" fill="#8E8D8D"/><path d="M92.825 20.047a2.15 2.15 0 1 1 0-4.3 2.15 2.15 0 0 1 0 4.3zM106.067 20.047a2.15 2.15 0 1 1 0-4.3 2.15 2.15 0 0 1 0 4.3zM99.36 20.047a2.15 2.15 0 1 1 0-4.3 2.15 2.15 0 0 1 0 4.3z" fill="#E27800"/><path fill-rule="evenodd" clip-rule="evenodd" d="M84.845 43.135h28.782a2.225 2.225 0 0 1 0 4.451H84.845a2.226 2.226 0 0 1 0-4.45zM110.15 29.109H88.289a1.69 1.69 0 0 0 0 3.38h21.861a1.69 1.69 0 0 0 0-3.38z" fill="#FFDF4A"/><path fill-rule="evenodd" clip-rule="evenodd" d="M84.697 34.894h29.053c.82 0 1.484.514 1.484 1.147v7.804c0 .633-.664 1.147-1.484 1.147H84.697c-.82 0-1.484-.514-1.484-1.147V36.04c0-.633.664-1.147 1.484-1.147zM110.262 19.193H88.195c-.622 0-1.127.504-1.127 1.127v7.662c0 .622.505 1.127 1.127 1.127h22.067c.622 0 1.127-.505 1.127-1.127V20.32c0-.623-.505-1.127-1.127-1.127z" fill="#FFB100"/><path fill-rule="evenodd" clip-rule="evenodd" d="M85.125 32.49h28.077a2.717 2.717 0 0 1 2.717 2.716v1.585c0 1.501-1.216 2.718-2.717 2.718H85.125a2.717 2.717 0 0 1-2.717-2.718v-1.585c0-1.5 1.217-2.717 2.717-2.717zM109.936 17.811H88.611c-1.14 0-2.063.924-2.063 2.064v1.204c0 1.14.924 2.064 2.063 2.064h21.325c1.14 0 2.064-.924 2.064-2.064v-1.204c0-1.14-.924-2.064-2.064-2.064z" fill="#F89700"/><path fill-rule="evenodd" clip-rule="evenodd" d="M83.767 33.584c.75 0 1.358.608 1.358 1.358v9.51a1.358 1.358 0 1 1-2.717 0v-9.51c0-.75.608-1.358 1.359-1.358zM110.968 18.643c-.57 0-1.032.462-1.032 1.031v7.224a1.032 1.032 0 0 0 2.064 0v-7.224c0-.57-.462-1.031-1.032-1.031z" fill="#F89700"/><path fill-rule="evenodd" clip-rule="evenodd" d="M86.143 32.49c1.063 0 1.925.86 1.925 1.924v5.66a1.925 1.925 0 1 1-3.85 0v-5.66c0-1.063.862-1.925 1.925-1.925zM109.163 17.811c-.807 0-1.462.655-1.462 1.462v4.3a1.462 1.462 0 0 0 2.924 0v-4.3c0-.807-.654-1.462-1.462-1.462zM98.378 33.395c.934 0 1.691.757 1.691 1.69v5.103c0 1-.811 1.811-1.812 1.811a1.761 1.761 0 0 1-1.76-1.761v-.05l.143-5.103c.026-.941.797-1.69 1.738-1.69zM99.871 18.5c-.709 0-1.284.574-1.284 1.283v3.875c0 .76.616 1.376 1.376 1.376.739 0 1.338-.599 1.338-1.337l-.001-.038-.109-3.876a1.32 1.32 0 0 0-1.32-1.284zM111.276 33.169c.938 0 1.699.76 1.699 1.698v9.963a1.699 1.699 0 0 1-3.397 0v-9.963c0-.938.76-1.698 1.698-1.698zM90.073 18.327a1.29 1.29 0 0 0-1.29 1.29v7.567a1.29 1.29 0 0 0 2.58 0v-7.567a1.29 1.29 0 0 0-1.29-1.29z" fill="#F89700"/><path fill-rule="evenodd" clip-rule="evenodd" d="M90.446 37.47a2.378 2.378 0 1 1 0 4.756 2.378 2.378 0 0 1 0-4.755zM105.895 21.595a1.805 1.805 0 1 0 0 3.61 1.805 1.805 0 0 0 0-3.61zM107.202 36.339a2.377 2.377 0 0 1 2.377 2.377v2.038a2.377 2.377 0 1 1-4.755 0v-2.038a2.378 2.378 0 0 1 2.378-2.377zM93.169 20.735c-.997 0-1.806.808-1.806 1.806v1.547a1.806 1.806 0 0 0 3.612 0v-1.547c0-.998-.809-1.806-1.806-1.806z" fill="#FFB100"/><path fill-rule="evenodd" clip-rule="evenodd" d="M95.202 33.848a2.378 2.378 0 0 1 2.377 2.377v6.793a2.377 2.377 0 0 1-4.755 0v-6.793a2.378 2.378 0 0 1 2.378-2.377zM102.284 21.423c-.997 0-1.806.808-1.806 1.806v5.159a1.806 1.806 0 0 0 3.612 0v-5.16c0-.997-.809-1.805-1.806-1.805z" fill="#F89700"/><path d="M83.2 46.762a1.925 1.925 0 1 0 0-3.85 1.925 1.925 0 0 0 0 3.85zM111.821 29.109a1.885 1.885 0 1 1 0-3.77 1.885 1.885 0 0 1 0 3.77zM87.127 31.933a2.002 2.002 0 1 1 0-4.004 2.002 2.002 0 0 1 0 4.004z" fill="#F89700"/><path fill-rule="evenodd" clip-rule="evenodd" d="M84.724 47.586h29.054c.819 0 1.483.507 1.483 1.132v2.751c0 .625-.664 1.132-1.483 1.132H84.724c-.82 0-1.484-.507-1.484-1.132v-2.751c0-.625.665-1.132 1.484-1.132z" fill="#FFB100"/><path fill-rule="evenodd" clip-rule="evenodd" d="M114.22 34.383c.938 0 1.698.76 1.698 1.698v10.868a1.698 1.698 0 1 1-3.397 0V36.081c0-.938.761-1.699 1.699-1.699zM87.84 20.39a1.29 1.29 0 0 0-1.29 1.29v8.256a1.29 1.29 0 1 0 2.579 0V21.68a1.29 1.29 0 0 0-1.29-1.29zM102.446 35.433a2.377 2.377 0 0 1 2.377 2.377v8.604a2.377 2.377 0 1 1-4.755 0V37.81a2.378 2.378 0 0 1 2.378-2.377zM96.78 20.047c-.997 0-1.805.808-1.805 1.806v4.265a1.806 1.806 0 1 0 3.61 0v-4.265c0-.998-.807-1.806-1.805-1.806z" fill="#F89700"/><path d="M115.159 49.715a2.603 2.603 0 1 0 0-5.206 2.603 2.603 0 0 0 0 5.206z" fill="#F89700"/><path fill-rule="evenodd" clip-rule="evenodd" d="M82.413 51.084h33.758a1.652 1.652 0 0 1 1.535 2.265l-.435 1.09a1.864 1.864 0 0 1-1.732 1.174H83.044c-.763 0-1.45-.465-1.732-1.174l-.434-1.09a1.652 1.652 0 0 1 1.535-2.265z" fill="#E27800"/><path fill-rule="evenodd" clip-rule="evenodd" d="M79.373 50.788h39.394a1.177 1.177 0 0 1 0 2.355H79.373a1.178 1.178 0 0 1 0-2.355z" fill="#FFDF4A"/><circle cx="67.651" cy="69.691" r="3.624" fill="#FFF1A2"/><circle cx="76.841" cy="63.448" r="5.566" fill="#FFF1A2"/><path d="M49.052 85.872a4.351 4.351 0 1 1-8.663.83 4.351 4.351 0 0 1 8.663-.83z" fill="#FFB100"/><path d="M30.61 76.707a5.872 5.872 0 0 1 11.691-1.12l.381 3.976a5.872 5.872 0 1 1-11.69 1.12l-.381-3.976z" fill="#FFF1A2"/><path d="M37.036 70.303a5.874 5.874 0 0 1 5.263 5.284l.33 3.448a2.052 2.052 0 0 1-3.833-.657c-.38-2.389-1.792-3.697-2.605-4.231a2.057 2.057 0 0 1-.178-.111l-.021-.012.003-.001a2.053 2.053 0 0 1 1.04-3.72z" fill="#E27800"/><path d="M56.757 74.203a5.872 5.872 0 1 0-11.69 1.12l.38 3.975a5.872 5.872 0 0 0 11.69-1.12l-.38-3.975z" fill="#FFF1A2"/><path d="M51.493 68.918a5.874 5.874 0 0 1 5.263 5.284l.33 3.448a2.052 2.052 0 0 1-3.833-.657c-.38-2.389-1.792-3.697-2.605-4.23a2.033 2.033 0 0 1-.178-.112l-.021-.012h.003a2.053 2.053 0 0 1 1.04-3.721zM48.53 107.786c-7.478 1.479-13.737-.367-17.524-5.919-1.963-2.878-1.25-6.81 1.593-8.78 2.67-1.851 6.27-1.315 8.324 1.142 1.074.748 2.39 1.32 3.905 1.355.385-.043.802-.107 1.25-.196l.101-.02c3.353-.605 6.59 1.616 7.26 5.005.677 3.424-1.52 6.742-4.908 7.413z" fill="#E27800"/><path d="M47.508 107.968c-6.217.99-11.523-.402-15.166-4.406a8.9 8.9 0 0 1 3.914-2.347 8.947 8.947 0 0 1 11.252 6.753z" fill="#FFB100"/></svg>