<svg id="Cover" xmlns="http://www.w3.org/2000/svg" viewBox="0 0 135 124"><defs><style>.cls-3{fill:#ffb100}.cls-4{fill:#ffe75e}.cls-6{fill:#f89700}</style></defs><path d="M58.41 21.85a5 5 0 0 0 6.07-3.3L69.62 20a5 5 0 0 0 9.56 2.68l5.13 1.43a5 5 0 0 0 3.49 6l-23.4 83.73a5 5 0 0 0-6.13 3.46l-5.11-1.43a5 5 0 0 0-9.58-2.68l-5.13-1.43a5 5 0 1 0-9.58-2.67l-5.11-1.43a5 5 0 0 0-3.46-6.13l23.4-83.79a5 5 0 0 0 6.08-3.3l5.14 1.44a5 5 0 0 0 3.49 5.97z" fill="#d0d0d0"/><path d="M124 28v79a16.52 16.52 0 0 1-.15 2.24A17 17 0 0 1 107 124H28a17 17 0 0 1-16.85-14.76A16.52 16.52 0 0 1 11 107V28a17 17 0 0 1 17-17h79a17 17 0 0 1 17 17z" fill="#ffc800"/><path class="cls-3" d="M124 47.79v17.49l-58.93 53.31a5.17 5.17 0 0 0-7.3-.37l-3.7-4.09a5.16 5.16 0 1 0-6.93-7.65l-3.7-4.1a5.16 5.16 0 1 0-6.93-7.66l-3.7-4.09a5.17 5.17 0 0 0 .36-7.3l67-60.59a5.16 5.16 0 0 0 7.17.47l3.66 4.11a5.15 5.15 0 0 0 6.94 7.68l3.72 4.11a5.16 5.16 0 0 0 2.34 8.68z"/><path class="cls-3" d="M54 25.87a5.09 5.09 0 0 0 6.23-3.38L65.5 24a5.09 5.09 0 0 0 9.8 2.74l5.27 1.47a5.08 5.08 0 0 0 3.58 6.12l-24 85.92a5.11 5.11 0 0 0-6.29 3.54l-5.24-1.46a5.1 5.1 0 0 0-9.83-2.75l-5.25-1.46a5.1 5.1 0 1 0-9.82-2.75l-5.25-1.46a5.1 5.1 0 0 0-3.54-6.29l24-85.92a5.09 5.09 0 0 0 6.24-3.38l5.26 1.47A5.09 5.09 0 0 0 54 25.87z"/><path class="cls-4" d="M110.79 29.49a5.13 5.13 0 0 0 7.15.47l3.72 4.11a5.16 5.16 0 0 0 6.92 7.64l3.71 4.11a5.15 5.15 0 0 0-.24 7.17l-67 60.59a5.17 5.17 0 0 0-7.3-.36l-3.7-4.09a5.16 5.16 0 0 0-6.93-7.66l-3.7-4.1a5.16 5.16 0 1 0-6.93-7.65l-3.7-4.09a5.17 5.17 0 0 0 .36-7.3l67-60.59a5.17 5.17 0 0 0 7.17.47l3.71 4.1a5.16 5.16 0 0 0-.24 7.18z"/><path class="cls-3" d="M126.06 53.21l-60.65 54.86a1.34 1.34 0 0 1-1.9-.09L38.12 79.91a1.36 1.36 0 0 1 .09-1.91l60.64-54.86a1.37 1.37 0 0 1 1.91.1l25.39 28.07a1.34 1.34 0 0 1-.09 1.9zm-61.45 52l58.64-53.06L99.66 26 41 79.1z"/><path class="cls-3" d="M93.5 75.56a1.34 1.34 0 0 1-1.9-.09L73 55a1.35 1.35 0 0 1 2-1.81l18.59 20.47a1.34 1.34 0 0 1-.09 1.9zM102.38 37.29L83.11 54.72a1.34 1.34 0 1 1-1.8-2l19.26-17.42a1.35 1.35 0 1 1 1.81 2zM106.09 41.39L86.82 58.82a1.34 1.34 0 1 1-1.8-2l19.27-17.42a1.34 1.34 0 1 1 1.8 2zM109.8 45.5L90.53 62.93a1.35 1.35 0 0 1-1.8-2L108 43.5a1.35 1.35 0 0 1 1.8 2zM107.64 54.91L94.24 67a1.35 1.35 0 0 1-1.8-2l13.39-12.11a1.35 1.35 0 0 1 1.81 2zM85 78.15l-19.85 18A1.34 1.34 0 0 1 63.2 96l-1-1.13a3.33 3.33 0 0 1 .23-4.69l16.91-15.29a3.32 3.32 0 0 1 4.69.24l1 1.12a1.35 1.35 0 0 1-.03 1.9zM64.29 93.21l17.86-16.15-.15-.13a.62.62 0 0 0-.89 0L64.22 92.2a.63.63 0 0 0 0 .89z"/><path class="cls-3" d="M89.19 79l-23.65 21.4a1.35 1.35 0 0 1-1.9-.1l-1-1.12a3.32 3.32 0 0 1 .23-4.69l20.71-18.73a3.33 3.33 0 0 1 4.69.24l1 1.12a1.34 1.34 0 0 1-.08 1.88zM64.73 97.52l21.66-19.59-.12-.12a.63.63 0 0 0-.89 0L64.67 96.5a.63.63 0 0 0 0 .89zM76.6 65.74l-23 20.82a1.34 1.34 0 0 1-1.9-.09l-1.62-1.79a1.35 1.35 0 0 1-.25-1.4l6.36-16.1a1.37 1.37 0 0 1 .89-.8l16.65-4.72a1.36 1.36 0 0 1 1.37.39l1.62 1.79a1.35 1.35 0 0 1-.12 1.9zM52.78 83.67l21-19-.16-.17-15.19 4.29-5.81 14.7z"/><path class="cls-3" d="M74.27 83.11L71.09 86a1.35 1.35 0 0 1-1.9-.1l-7.58-8.39a1.34 1.34 0 0 1 .09-1.9l3.17-2.87a1.34 1.34 0 0 1 1.9.1l7.59 8.39a1.34 1.34 0 0 1-.09 1.88zm-4 0L71.46 82l-5.78-6.39-1.18 1.08zM81.21 76.82l-2.92 2.65a1.35 1.35 0 0 1-1.9-.1L68.8 71a1.35 1.35 0 0 1 .1-1.9l2.92-2.64a1.34 1.34 0 0 1 1.9.09l7.59 8.39a1.35 1.35 0 0 1-.1 1.88zm-3.72-.25l.92-.84-5.78-6.39-.93.83zM67.07 89.62l-2.92 2.64a1.34 1.34 0 0 1-1.9-.09l-7.59-8.39a1.34 1.34 0 0 1 .1-1.9l2.92-2.65a1.35 1.35 0 0 1 1.9.1l7.58 8.39a1.34 1.34 0 0 1-.09 1.9zm-3.73-.26l.93-.83-5.79-6.4-.92.84z"/><path d="M85.47 31l-.57 4.75-.5 4.08L83 51.17 82.56 55l-.69 5.67-.43 3.54-1.16 9.54-.53 4.36-.14 1.21-.5 4.08-.11 1.25-.49 4.07-.53 4.4-.51 4.08-.7 5.83-11.7 10.55a5.18 5.18 0 0 0-7.3-.36l-3.7-4.1a5.16 5.16 0 1 0-6.92-7.65l-3.71-4.1a5.16 5.16 0 1 0-6.93-7.66l-3.7-4.09a5.16 5.16 0 0 0 .37-7.29z" fill="#ffd300"/><path class="cls-6" d="M84.9 35.77L38.21 78a1.35 1.35 0 0 0-.1 1.9l25.4 28.1a1.35 1.35 0 0 0 1.9.1l12-10.88.51-4.08-13.32 12.04L41 79.09l43.4-39.24z"/><path class="cls-6" d="M81.87 60.7l-.43 3.54L73.05 55a1.35 1.35 0 0 1 2-1.81zM83 51.17L82.56 55a1.37 1.37 0 0 1-1.34-.4 1.34 1.34 0 0 1 .09-1.9zM76.7 63.84l-1.63-1.79a1.33 1.33 0 0 0-1.36-.39l-16.65 4.72a1.31 1.31 0 0 0-.88.8l-6.37 16.1a1.34 1.34 0 0 0 .26 1.4l1.61 1.79a1.34 1.34 0 0 0 1.9.09l2-1.79 6 6.65a3.32 3.32 0 0 0 .61 3.48l.17.19a3.33 3.33 0 0 0 .27 4.11l1 1.12a1.34 1.34 0 0 0 1.9.09l12.94-11.69.53-4.07-14.26 12.87-.12-.13a.61.61 0 0 1 0-.88l.42-.39 14-12.69.5-4.08-15.25 13.86-.12-.12a.64.64 0 0 1 0-.89l2.86-2.59 4-3.6 3.17-2.87 5.48-5 .53-4.36-5.66-6.24 2-1.79a1.36 1.36 0 0 0 .15-1.91zM63.34 89.36L57.56 83l.92-.84 5.79 6.39zm2.93-2.64l-5.79-6.4 2-1.83 5.79 6.39zm4-3.64l-5.77-6.39 1.18-1.06L71.47 82zm3.17-2.87l-5.79-6.39 2-1.84 5.79 6.39zm5-4.48l-.92.84-5.79-6.4.93-.83zm-6.59-9.29l-2.95 2.64-4 3.58-3.2 2.94-4 3.61-2.93 2.65-2 1.78-.15-.18 5.81-14.7 15.21-4.32.16.18z"/><path class="cls-4" d="M54 20.75a5.1 5.1 0 0 0 6.23-3.39l5.27 1.47a5.09 5.09 0 0 0 9.8 2.74L80.57 23a5.1 5.1 0 0 0 3.58 6.13l-24 85.91a5.11 5.11 0 0 0-6.29 3.55l-5.24-1.47a5.1 5.1 0 1 0-9.83-2.74L33.54 113a5.1 5.1 0 1 0-9.82-2.74l-5.25-1.47a5.11 5.11 0 0 0-3.54-6.29l24-85.91a5.1 5.1 0 0 0 6.24-3.39l5.26 1.47A5.1 5.1 0 0 0 54 20.75z"/><path class="cls-3" d="M79.26 32.51L57.54 110.3a1.33 1.33 0 0 1-1.64.92l-36-10.06a1.33 1.33 0 0 1-.9-1.63l21.69-77.79a1.34 1.34 0 0 1 1.64-.93l36 10.06a1.33 1.33 0 0 1 .93 1.64zM55.33 108.3l21-75.23-33.44-9.34L21.88 99z"/><path class="cls-3" d="M63.85 68.34a1.32 1.32 0 0 1-1.63.92l-26.31-7.34a1.34 1.34 0 0 1-.91-1.64 1.33 1.33 0 0 1 1.64-.92l26.29 7.34a1.33 1.33 0 0 1 .92 1.64zM51.09 31.69l-6.9 24.72a1.33 1.33 0 0 1-2.56-.72L48.53 31a1.33 1.33 0 0 1 2.56.71zM56.36 33.16l-6.91 24.72a1.33 1.33 0 1 1-2.56-.72l6.91-24.71a1.32 1.32 0 0 1 1.63-.92 1.33 1.33 0 0 1 .93 1.63zM61.62 34.63l-6.91 24.72a1.32 1.32 0 0 1-1.63.92 1.34 1.34 0 0 1-.93-1.64l6.91-24.71a1.32 1.32 0 0 1 1.63-.92 1.33 1.33 0 0 1 .93 1.63zM64.77 43.64L60 60.82a1.33 1.33 0 1 1-2.56-.72l4.79-17.18a1.33 1.33 0 1 1 2.56.72zM58.08 75L51 100.48a1.32 1.32 0 0 1-1.63.92l-1.44-.4a3.28 3.28 0 0 1-2.28-4l6.06-21.71a3.28 3.28 0 0 1 4-2.27l1.45.4a1.34 1.34 0 0 1 .92 1.58zm-9.32 23.48l6.4-22.91H55a.62.62 0 0 0-.77.43l-6.06 21.67a.63.63 0 0 0 .43.77z"/><path class="cls-3" d="M62.08 73.5l-8.47 30.34a1.33 1.33 0 0 1-1.64.92l-1.44-.4a3.28 3.28 0 0 1-2.28-4l7.42-26.57a3.29 3.29 0 0 1 4-2.28l1.45.4a1.33 1.33 0 0 1 .96 1.59zM51.4 101.84l7.76-27.77L59 74a.63.63 0 0 0-.77.43L50.81 101a.63.63 0 0 0 .43.77zM44.56 69.05l-8.24 29.52a1.33 1.33 0 0 1-1.64.92l-2.3-.64a1.35 1.35 0 0 1-1-1L28.26 81a1.32 1.32 0 0 1 .32-1.14L40 67.16a1.3 1.3 0 0 1 1.34-.39l2.3.64a1.33 1.33 0 0 1 .92 1.64zM34.11 96.57l7.53-27-.22-.06L31 81.17l2.9 15.34z"/><path class="cls-3" d="M51.77 84.78l-1.14 4.07a1.33 1.33 0 0 1-1.64.92l-10.76-3a1.33 1.33 0 0 1-.92-1.64l1.14-4.07a1.32 1.32 0 0 1 1.63-.92l10.77 3a1.33 1.33 0 0 1 .92 1.64zm-3.34 2.07l.42-1.51-8.2-2.29-.42 1.51zM54.26 75.87l-1 3.75a1.33 1.33 0 0 1-1.64.92l-10.76-3a1.33 1.33 0 0 1-.92-1.64l1-3.74a1.32 1.32 0 0 1 1.63-.92l10.76 3a1.34 1.34 0 0 1 .93 1.63zM51 77.62l.33-1.19-8.2-2.29-.33 1.19zM49.19 94l-1 3.75a1.32 1.32 0 0 1-1.63.92l-10.77-3a1.34 1.34 0 0 1-.97-1.67l1-3.75a1.33 1.33 0 0 1 1.64-.92l10.76 3a1.33 1.33 0 0 1 .97 1.67zm-3.25 1.75l.33-1.18-8.2-2.29-.33 1.18z"/></svg>