<svg viewBox="0 0 135 124" fill="none" xmlns="http://www.w3.org/2000/svg"><g clip-path="url(#clip0)"><path d="M107 11H28c-9.389 0-17 7.611-17 17v79c0 9.389 7.611 17 17 17h79c9.389 0 17-7.611 17-17V28c0-9.389-7.611-17-17-17z" fill="#B2B2B2"/><path d="M35.101 10.931c-.01-.168-.025-.337-.044-.506-.64-5.691-5.772-9.787-11.464-9.148-5.692.64-9.787 5.772-9.148 11.464.628 5.585 5.58 9.633 11.143 9.18.01.167.025.336.044.505.64 5.692 5.772 9.787 11.464 9.148 5.692-.64 9.787-5.772 9.148-11.464-.628-5.584-5.58-9.632-11.143-9.179z" fill="#9F9F9F"/><path d="M18.032 22.606c-6.86.77-11.797 6.956-11.026 13.817l.765 6.806a5.603 5.603 0 1 0 1.188 10.579l.878 7.814c.77 6.86 6.957 11.797 13.817 11.026l37.657-4.23c6.86-.771 11.796-6.957 11.026-13.817l-.878-7.815a5.603 5.603 0 1 0-1.188-10.578l-.766-6.807c-.77-6.86-6.956-11.797-13.816-11.026l-37.657 4.23z" fill="#E5E5E5"/><path fill-rule="evenodd" clip-rule="evenodd" d="M33.456 51.699a.764.764 0 0 1 1.058.221c.372.568 1.155 1.368 2.246 1.828 1.061.448 2.439.587 4.087-.172a.765.765 0 0 1 .64 1.39c-2.06.947-3.886.797-5.322.19-1.407-.593-2.416-1.612-2.93-2.4a.765.765 0 0 1 .221-1.057z" fill="#CDCDCD"/><path d="M39.251 41.767c.142-.016 1.62 1.835 3.132 3.78 1.505 1.937.294 4.756-2.142 5.03-2.437.274-4.243-2.207-3.205-4.43 1.042-2.232 2.073-4.364 2.215-4.38z" fill="#CDCDCD"/><path d="M21.397 34.713a28.45 28.45 0 0 0 12.518-5.374 7.865 7.865 0 0 1 3.148 5.461l.536 4.768a7.87 7.87 0 0 1-2.062 6.251 12.576 12.576 0 0 0-8.308-1.971c-1.404.157-2.728.54-3.941 1.107a7.853 7.853 0 0 1-1.364-3.627l-.535-4.767a7.91 7.91 0 0 1 .008-1.848z" fill="#fff"/><path d="M31.057 52.785c.611 5.442-3.305 10.35-8.748 10.961-5.442.612-10.35-3.305-10.961-8.747-.612-5.443 3.304-10.35 8.747-10.962 5.443-.611 10.35 3.305 10.962 8.748zM69.394 48.477c.612 5.443-3.305 10.35-8.747 10.962-5.443.612-10.35-3.305-10.962-8.747-.611-5.443 3.305-10.35 8.747-10.962 5.443-.611 10.35 3.305 10.962 8.748z" fill="#CECECE"/><path d="M42.652 27.527a28.465 28.465 0 0 0 12.533 3.667 7.92 7.92 0 0 1 .328 1.534l.536 4.767c.013.118.023.237.032.355a12.621 12.621 0 0 0-11.577 7.487 7.878 7.878 0 0 1-4.13-6.081l-.536-4.768a7.88 7.88 0 0 1 2.814-6.96z" fill="#fff"/><path d="M28.142 36.45a2.87 2.87 0 0 0 2.28-4.071 3.54 3.54 0 0 1 4.525 3l.496 4.416a3.54 3.54 0 1 1-7.037.79l-.463-4.12a2.87 2.87 0 0 0 .2-.015zM45.295 31.635a2.87 2.87 0 0 1-2.73 3.188l.462 4.12a3.541 3.541 0 0 0 3.575 3.145 12.632 12.632 0 0 1 3.383-2.695c.097-.395.127-.813.079-1.24l-.496-4.417a3.54 3.54 0 0 0-4.526-3c.13.277.218.579.253.899z" fill="#9F9F9F"/><path d="M7.007 36.423c-.592-5.268 2.182-10.139 6.609-12.465l1.539 13.7a7.503 7.503 0 0 1-4.147 7.571 5.618 5.618 0 0 0-3.236-1.999l-.765-6.807zM69.507 29.402c-.592-5.268-4.378-9.402-9.21-10.688l1.54 13.7a7.503 7.503 0 0 0 5.722 6.462 5.62 5.62 0 0 1 2.712-2.667l-.764-6.807z" fill="#CECECE"/><path d="M129.029 59.357l-34.84-9.335a2.804 2.804 0 0 0-3.434 1.983l-13.817 51.569a2.804 2.804 0 0 0 1.982 3.434l34.839 9.335a2.805 2.805 0 0 0 3.435-1.983l13.818-51.569a2.805 2.805 0 0 0-1.983-3.434z" fill="#9F9F9F"/><path d="M118.763 60.402l7.734 2.072c.61.164.972.79.808 1.4l-12.937 48.283c-.164.61-.79.972-1.4.809l-7.734-2.073a1.143 1.143 0 0 1-.808-1.4l12.937-48.283c.164-.61.79-.971 1.4-.808z" fill="#E5E5E5"/><path d="M83.458 47.147a2.731 2.731 0 0 0-3.346 1.931l-13.856 51.709a2.732 2.732 0 0 0 5.277 1.415l13.856-51.71a2.731 2.731 0 0 0-1.931-3.345z" fill="#9F9F9F"/><path d="M120.904 57.06l-33.277-8.917a2.804 2.804 0 0 0-3.434 1.983l-13.818 51.569a2.803 2.803 0 0 0 1.983 3.434l33.276 8.917a2.805 2.805 0 0 0 3.435-1.983l13.817-51.569a2.803 2.803 0 0 0-1.982-3.434z" fill="#CDCDCD"/><path d="M53.193 93.788l3.554-7.914 7.83 2.366-2.316 7.845-8.567-1.368a.666.666 0 0 1-.501-.929z" fill="#CECECE"/><path d="M56.746 85.875l31.106-16.8 5.514 10.211-31.106 16.8-5.514-10.211z" fill="#B8B8B8"/><path d="M56.746 85.875l31.106-16.8 2.757 5.106-31.106 16.8-2.757-5.106z" fill="#E5E5E5"/><path d="M88.09 69.513l2.26-1.22a2.975 2.975 0 0 1 4.027 1.216l2.206 4.084a2.975 2.975 0 0 1-1.191 4.035l-2.261 1.22-5.042-9.335z" fill="#9F9F9F"/><path d="M86.727 68.554a1.894 1.894 0 0 1 2.567.766l4.66 8.628a1.894 1.894 0 0 1-3.334 1.8l-4.66-8.627a1.894 1.894 0 0 1 .767-2.567z" fill="#E5E5E5"/><path d="M54.681 90.472l2.602 4.818-3.59-.573a.666.666 0 0 1-.501-.928l1.49-3.317z" fill="#9F9F9F"/></g><defs><clipPath id="clip0"><path fill="#fff" d="M0 0h135v124H0z"/></clipPath></defs></svg>