<svg viewBox="0 0 135 124" fill="none" xmlns="http://www.w3.org/2000/svg"><rect x="11.135" y="11" width="113" height="113" rx="17" fill="#2BE69C"/><path fill-rule="evenodd" clip-rule="evenodd" d="M41.105 3.927c17.256 0 31.944 12.56 34.623 29.607l8.034 51.14a1.739 1.739 0 0 1-1.717 2.008H3.79a1.739 1.739 0 0 1-1.727-1.932L7.79 33.71C9.695 16.75 24.038 3.928 41.105 3.928z" fill="#A570FF"/><path fill-rule="evenodd" clip-rule="evenodd" d="M71.952 32.316h2.575a6.607 6.607 0 0 1 0 13.213h-2.575a6.607 6.607 0 0 1 0-13.213z" fill="#FFC6B7"/><path d="M73.085 32.316H52.931c-11.308 0-20.515-8.997-20.853-20.224a29.411 29.411 0 0 1 9.659-2.775c-13.264 1.442-24.096 11.7-26.03 25.173L12.38 57.653a14.148 14.148 0 0 0-.144 2.012c0 7.816 6.336 14.152 14.152 14.152h35.635c.53 0 1.06-.03 1.588-.09 7.766-.876 13.352-7.883 12.475-15.65l-2.652-23.489a28.893 28.893 0 0 0-.349-2.272z" fill="#FFC6B7"/><path d="M61.393 34.017H53.75a8.758 8.758 0 0 0-8.758 8.758v6.098a4.272 4.272 0 0 0 4.272 4.272h4.486a8.758 8.758 0 0 0 8.758-8.758v-9.255c0-.616-.5-1.115-1.115-1.115zM26.364 34.017h7.644a8.758 8.758 0 0 1 8.758 8.758v5.912a4.458 4.458 0 0 1-4.458 4.458h-4.3a8.758 8.758 0 0 1-8.758-8.758v-9.255c0-.616.499-1.115 1.114-1.115z" fill="#fff"/><path fill="#593F86" d="M34.59 73.817h16.531v12.865H34.59z"/><path d="M38.265 64.072c2.61-2.79 9.767-7.41 17.512-3.57" stroke="#EE9583" stroke-width="2.263" stroke-linecap="round" stroke-linejoin="round"/><path d="M61.393 34.017H53.75a8.758 8.758 0 0 0-8.758 8.758v6.098a4.272 4.272 0 0 0 4.272 4.272h4.486a8.758 8.758 0 0 0 8.758-8.758v-9.255c0-.616-.5-1.115-1.115-1.115zM26.364 34.017h7.644a8.758 8.758 0 0 1 8.758 8.758v5.912a4.458 4.458 0 0 1-4.458 4.458h-4.3a8.758 8.758 0 0 1-8.758-8.758v-9.255c0-.616.499-1.115 1.114-1.115z" fill="#fff"/><path fill-rule="evenodd" clip-rule="evenodd" d="M51.889 35.503a3.932 3.932 0 0 0-3.932 3.932v4.939a3.932 3.932 0 0 0 7.863 0v-4.939a3.932 3.932 0 0 0-3.931-3.932zM35.867 35.503a3.932 3.932 0 0 1 3.932 3.932v4.939a3.932 3.932 0 0 1-7.863 0v-4.939a3.932 3.932 0 0 1 3.931-3.932z" fill="#3D3D3D"/><path d="M62.508 41.544L44.992 43.75v-.974a8.758 8.758 0 0 1 8.758-8.758h7.643c.616 0 1.115.5 1.115 1.114v6.413zM42.766 43.924v-1.149a8.758 8.758 0 0 0-8.758-8.758h-7.644c-.615 0-1.114.5-1.114 1.115v7.47l17.516 1.322z" fill="#A570FF"/><path fill="#FFC6B7" d="M43.807 48.27l23.146-2.74.965 8.145-23.147 2.74zM43.693 48.238l-23.237-1.815-.638 8.177 23.237 1.815z"/><path fill-rule="evenodd" clip-rule="evenodd" d="M19.96 14.271l.03-.029 10.049-4.176a2.086 2.086 0 0 1 2.887 1.927v63.563c0 .96-.779 1.738-1.739 1.738H11.451a2.086 2.086 0 0 1-2.086-2.086V39.261a34.77 34.77 0 0 1 10.594-24.99z" fill="#A570FF"/><path fill-rule="evenodd" clip-rule="evenodd" d="M43.764 57.21c1.949 0 3.529-1.57 3.529-3.508s-3.53-6.521-3.53-6.521-3.529 4.583-3.529 6.52c0 1.939 1.58 3.51 3.53 3.51z" fill="#EE9583"/><path d="M103.828 74.516h-9.082v23.079h9.082V74.516z" fill="#C94910"/><path fill-rule="evenodd" clip-rule="evenodd" d="M92.142 103.407c.484-.908 1.609-1.645 2.511-1.645h18.021c.903 0 2.027.736 2.511 1.645l3.086 5.792c.484.909.142 1.645-.766 1.645H89.822c-.907 0-1.25-.735-.766-1.645l3.086-5.792z" fill="#893B00"/><path fill-rule="evenodd" clip-rule="evenodd" d="M84.495 103.407c.484-.908 1.61-1.645 2.512-1.645h18.02c.903 0 2.027.736 2.512 1.645l3.086 5.792c.484.909.141 1.645-.767 1.645H82.176c-.907 0-1.251-.735-.767-1.645l3.086-5.792z" fill="#B15C1B"/><path fill-rule="evenodd" clip-rule="evenodd" d="M85.94 62.684a2.596 2.596 0 0 0-2.596-2.596h-6.911a5.836 5.836 0 0 0-5.836 5.842v6.103a7.675 7.675 0 0 0 7.672 7.67h5.075a2.596 2.596 0 1 0 0-5.19h-5.075a2.483 2.483 0 0 1-2.48-2.48V65.93c0-.366.291-.65.644-.65h6.91a2.596 2.596 0 0 0 2.596-2.596z" fill="#C94910"/><path d="M99.275 90.009c-10.525 0-19.02-8.494-19.02-19.019V54.963h38.038V70.99c0 10.525-8.494 19.019-19.019 19.019z" fill="#D1531B"/><path fill-rule="evenodd" clip-rule="evenodd" d="M113.336 62.684a2.596 2.596 0 0 1 2.596-2.596h6.911a5.836 5.836 0 0 1 5.835 5.842v6.103a7.675 7.675 0 0 1-7.671 7.67h-5.075a2.596 2.596 0 1 1 0-5.19h5.075a2.483 2.483 0 0 0 2.479-2.48V65.93a.644.644 0 0 0-.643-.65h-6.911a2.596 2.596 0 0 1-2.596-2.596z" fill="#C94910"/><path d="M105.227 94.817H92.94a2.137 2.137 0 1 0 0 4.274h12.287a2.137 2.137 0 0 0 0-4.274z" fill="#D57621"/><path d="M107.895 97.488h-17.63a2.137 2.137 0 1 0 0 4.274h17.63a2.137 2.137 0 1 0 0-4.274z" fill="#D57621"/><path opacity=".13" d="M101.835 103.899H90.532c-.603 0-1.093.581-1.093 1.298v2.212c0 .717.49 1.298 1.093 1.298h11.303c.604 0 1.093-.581 1.093-1.298v-2.212c0-.717-.489-1.298-1.093-1.298z" fill="#fff"/><path d="M86.62 56.47h9.397v7.805a4.699 4.699 0 0 1-9.397 0V56.47z" fill="#E88022"/><path d="M118.315 54.963H80.277v3.26h38.038v-3.26z" fill="#E88022"/><path d="M92.694 58.222v-3.259h-9.397v3.26h9.397z" fill="#EEA436"/><circle cx="91.32" cy="75.779" r="3.989" fill="#E88022"/><path d="M104.996 50.618c.344-.841 1.535-.841 1.88 0l.986 2.406c.103.252.303.452.555.555l2.406.986c.841.345.841 1.536 0 1.88l-2.406.986a1.015 1.015 0 0 0-.555.555l-.986 2.407c-.345.84-1.536.84-1.88 0l-.986-2.407a1.015 1.015 0 0 0-.555-.555l-2.407-.986c-.841-.344-.841-1.535 0-1.88l2.407-.986c.252-.103.452-.303.555-.555l.986-2.406z" fill="#FBB44E"/><path d="M101.987 62.803c.345-.84 1.535-.84 1.88 0l.538 1.313c.103.252.303.452.555.555l1.313.538c.841.345.841 1.535 0 1.88l-1.313.538a1.015 1.015 0 0 0-.555.555l-.538 1.313c-.345.84-1.535.84-1.88 0l-.538-1.313a1.015 1.015 0 0 0-.555-.555l-1.313-.538c-.84-.344-.84-1.535 0-1.88l1.313-.538c.252-.103.452-.303.555-.555l.538-1.313z" fill="#EEA336"/></svg>