<svg viewBox="0 0 136 125" fill="none" xmlns="http://www.w3.org/2000/svg"><g clip-path="url(#clip0_302_3244)"><path d="M107.812 11.044h-79c-9.388 0-17 7.61-17 17v79c0 9.389 7.612 17 17 17h79c9.389 0 17-7.611 17-17v-79c0-9.39-7.611-17-17-17z" fill="#BFBFBF"/><path fill-rule="evenodd" clip-rule="evenodd" d="M17.408 24.302a4.5 4.5 0 0 1 3.693 5.183l-.055.33c-.318 1.92-.825 4.984-2.588 8.341-1.895 3.608-5.075 7.284-10.434 10.736a4.5 4.5 0 1 1-4.873-7.567c4.222-2.719 6.254-5.29 7.34-7.354 1.077-2.051 1.382-3.872 1.703-5.79l.03-.186a4.5 4.5 0 0 1 5.184-3.693zM60.93 24.302a4.5 4.5 0 0 0-3.693 5.183l.055.33c.318 1.92.825 4.984 2.588 8.341 1.895 3.608 5.075 7.284 10.434 10.736a4.5 4.5 0 1 0 4.873-7.567c-4.222-2.719-6.254-5.29-7.34-7.354-1.077-2.051-1.382-3.872-1.703-5.79l-.03-.186a4.5 4.5 0 0 0-5.184-3.693z" fill="#A2A2A2"/><path fill-rule="evenodd" clip-rule="evenodd" d="M23.705 30.187a4.5 4.5 0 0 1 3.693 5.183l-.055.33c-.317 1.92-.825 4.984-2.588 8.341-1.895 3.608-5.075 7.284-10.433 10.736a4.5 4.5 0 1 1-4.874-7.567c4.222-2.719 6.255-5.29 7.34-7.354 1.077-2.052 1.382-3.873 1.703-5.79l.031-.186a4.5 4.5 0 0 1 5.183-3.693zM55.324 30.45a4.5 4.5 0 0 0-3.693 5.182l.055.33c.318 1.92.825 4.984 2.588 8.341 1.895 3.608 5.075 7.284 10.433 10.736a4.5 4.5 0 1 0 4.874-7.567c-4.222-2.719-6.255-5.29-7.34-7.354-1.077-2.052-1.382-3.873-1.703-5.791l-.031-.185a4.5 4.5 0 0 0-5.183-3.693z" fill="#A2A2A2"/><path d="M12.175 8.64h.002A8.003 8.003 0 0 1 20.18.81h37.707a8.003 8.003 0 0 1 8.001 7.83h.002v36.866c0 15.211-8.932 15.211-10.859 15.211H18.734c-.58 0-5.967-6.362-6.559-15.21V8.64z" fill="#A2A2A2"/><path d="M16.215 9.688H61.85v45.536H16.215V9.688z" fill="#D1D1D1"/><path d="M14.04 30.156a5.036 5.036 0 1 0 0-10.071 5.036 5.036 0 0 0 0 10.071zM64.025 30.156a5.036 5.036 0 1 0 0-10.071 5.036 5.036 0 0 0 0 10.071z" fill="#D1D1D1"/><path d="M13.977 56.037c0-.765.62-1.385 1.384-1.385h47.342c.765 0 1.385.62 1.385 1.385v4.69c0 .766-.62 1.386-1.385 1.386H15.36c-.764 0-1.384-.62-1.384-1.385v-4.691z" fill="#959595"/><path d="M12.195 20.435a5.036 5.036 0 0 1 6.324 2.373 5.613 5.613 0 0 0 2-4.3V7.83h-8.324v12.604zM59.552 22.815a5.036 5.036 0 0 1 6.316-2.384v-8.975h-8.324v7.051c0 1.73.78 3.276 2.008 4.308z" fill="#A2A2A2"/><path d="M36.54 55.416a.997.997 0 0 1 .97-.764h3.044c.461 0 .862.316.97.764l2.001 8.326a.997.997 0 0 1-.97 1.23h-7.047a.997.997 0 0 1-.969-1.23l2.002-8.326z" fill="#fff"/><path d="M39.032 25.541c.12 0 1.183 1.687 2.264 3.456 1.077 1.76-.2 4.005-2.264 4.005-2.063 0-3.34-2.244-2.264-4.005 1.081-1.77 2.144-3.456 2.264-3.456z" fill="#959595"/><path fill-rule="evenodd" clip-rule="evenodd" d="M25.506 32.612a4.715 4.715 0 0 1 6.548 1.256c.46.677.852 1.139 1.333 1.494.442.327 1.15.703 2.41.879a4.715 4.715 0 1 1-1.306 9.34c-5.823-.814-8.645-4.066-10.242-6.42a4.715 4.715 0 0 1 1.257-6.55z" fill="#959595"/><path d="M40.184 19.57a6.304 6.304 0 0 1 12.609 0v3.835a6.304 6.304 0 0 1-12.609 0V19.57z" fill="#fff"/><path fill-rule="evenodd" clip-rule="evenodd" d="M30.115 13.373a6.564 6.564 0 0 1 4.076.438 6.565 6.565 0 0 1 3.026 2.765 2.708 2.708 0 1 1-4.717 2.66 1.15 1.15 0 0 0-.535-.488 1.15 1.15 0 0 0-.72-.078 2.708 2.708 0 1 1-1.13-5.297z" fill="#3D3D3D"/><path d="M35.741 36.233c-1.224-.18-1.918-.55-2.354-.871-.48-.355-.873-.817-1.332-1.494a4.715 4.715 0 0 0-8.552 1.858c.226.849 1 1.473 1.919 1.473h2.644c.697 0 1.31-.358 1.664-.9.354.542.966.9 1.663.9h2.644c.724 0 1.357-.387 1.704-.966z" fill="#fff"/><path d="M39.858 40.8a4.715 4.715 0 0 1-5.367 4.78 15.754 15.754 0 0 1-3.826-1.012 8.37 8.37 0 0 1 7.154-4.018c.703 0 1.386.086 2.039.25z" fill="#A2A2A2"/><path d="M31.648 13.266a6.304 6.304 0 0 0-6.305 6.304v3.835c0 1.337.417 2.577 1.127 3.597 2.597-.335 5.062.075 7.947 2.069a6.305 6.305 0 0 0 3.535-5.666V19.57a6.304 6.304 0 0 0-6.304-6.304z" fill="#fff"/><path d="M37.952 23.436a2.708 2.708 0 0 0-5.404-.162 1.15 1.15 0 0 1-.286.665 1.15 1.15 0 0 1-.623.369 2.709 2.709 0 0 0-2.128 2.696c1.56.231 3.15.855 4.895 2.059a6.287 6.287 0 0 0 3.268-3.82 6.306 6.306 0 0 0 .278-1.807zM52.793 23.441a6.306 6.306 0 0 1-5.55 6.214 2.708 2.708 0 0 1-.764-5.347c.234-.051.45-.172.623-.369.173-.196.265-.427.286-.665a2.708 2.708 0 0 1 5.405.167z" fill="#959595"/><path d="M16.215 17.201a3.935 3.935 0 0 1 3.936-3.935h.128a3.935 3.935 0 0 1 3.935 3.935v8.466a3.935 3.935 0 0 1-3.935 3.936h-.128a3.935 3.935 0 0 1-3.936-3.936v-8.466z" fill="#A2A2A2"/><path d="M9.918 11.898c0-.765.63-1.385 1.406-1.385h54.748c.777 0 1.406.62 1.406 1.385v3.82c0 .765-.63 1.385-1.406 1.385H11.324c-.777 0-1.406-.62-1.406-1.385v-3.82z" fill="#959595"/><path d="M37.952 7.468a3.935 3.935 0 0 1 3.936-3.935h.128a3.935 3.935 0 0 1 3.935 3.935v8.466a3.935 3.935 0 0 1-3.935 3.936h-.128a3.935 3.935 0 0 1-3.936-3.936V7.468z" fill="#A2A2A2"/><path d="M45.951 8.807a3.935 3.935 0 0 1 3.936-3.935h.128a3.935 3.935 0 0 1 3.935 3.935v3.955a3.935 3.935 0 0 1-3.935 3.935h-.128a3.935 3.935 0 0 1-3.936-3.935V8.807z" fill="#A2A2A2"/><path d="M53.95 9.335a3.935 3.935 0 0 1 3.936-3.936h.128a3.935 3.935 0 0 1 3.935 3.936v15.478a3.935 3.935 0 0 1-3.935 3.935h-.128a3.935 3.935 0 0 1-3.936-3.935V9.335z" fill="#A2A2A2"/><path d="M64.056 45.18c.007-1.38 2.389-6.456 2.772-6.454.384.001 2.716 5.1 2.71 6.48-.007 1.382-1.24 2.495-2.753 2.488-1.514-.007-2.736-1.132-2.729-2.514z" fill="#fff"/><path d="M18.777 8.53H39.86v1.983H18.777V8.53z" fill="#A2A2A2"/><path d="M17.99 12.165c.007-1.382 2.389-6.457 2.773-6.455.383.002 2.716 5.1 2.709 6.48-.007 1.382-1.24 2.496-2.753 2.489-1.514-.008-2.735-1.133-2.729-2.514z" fill="#fff"/><path d="M45.951 36.88h5.305v7.333a2.652 2.652 0 0 1-5.305 0V36.88z" fill="url(#paint0_linear_302_3244)"/><path d="M18.836 37.57h4.437v8.134a2.218 2.218 0 0 1-4.437 0V37.57z" fill="url(#paint1_linear_302_3244)"/><path d="M51.255 38.668h6.695v9.254a3.347 3.347 0 0 1-6.695 0v-9.254z" fill="url(#paint2_linear_302_3244)"/><path d="M89.422 62.364l-15.736 9.085A1.87 1.87 0 0 0 73 74.004c3.025 5.24 9.726 7.035 14.966 4.01 5.24-3.025 7.035-9.726 4.01-14.966a1.87 1.87 0 0 0-2.555-.684zM117.523 62.364l15.736 9.085a1.87 1.87 0 0 1 .685 2.555c-3.025 5.24-9.726 7.035-14.966 4.01-5.24-3.025-7.035-9.726-4.01-14.966a1.87 1.87 0 0 1 2.555-.684z" fill="#A2A2A2"/><path fill-rule="evenodd" clip-rule="evenodd" d="M98.879 68.348h8.739c11.265 0 20.397 9.133 20.397 20.398v25.633c0 .886-.718 1.604-1.603 1.604H80.085a1.604 1.604 0 0 1-1.604-1.604V88.746c0-11.265 9.133-20.398 20.398-20.398z" fill="#D1D1D1"/><path fill-rule="evenodd" clip-rule="evenodd" d="M128.016 88.746l-.001 8.013h-9.448c-8.465 0-15.327-6.862-15.327-15.327 0-5.42 2.813-10.183 7.059-12.909 9.998 1.313 17.717 9.866 17.717 20.223z" fill="#BFBFBF"/><path fill-rule="evenodd" clip-rule="evenodd" d="M112.847 72.719a8.265 8.265 0 0 1 8.263 8.1l.002.261a8.265 8.265 0 0 1-16.53 0v-.096c0-4.565 3.7-8.265 8.265-8.265zM93.276 72.719a8.264 8.264 0 0 1 8.263 8.1l.002.261a8.265 8.265 0 1 1-16.53 0v-.096c0-4.565 3.7-8.265 8.265-8.265z" fill="#F9F9F9"/><path fill-rule="evenodd" clip-rule="evenodd" d="M110.484 74.227a4.417 4.417 0 0 1 4.417 4.416v.71a4.417 4.417 0 0 1-8.833 0v-.71c0-.349.04-.688.117-1.013a2.078 2.078 0 0 0 2.744-3.122 4.402 4.402 0 0 1 1.555-.281zM91.652 74.227a4.416 4.416 0 0 1 4.416 4.416v.71a4.416 4.416 0 1 1-8.833 0v-.71c0-.37.046-.729.131-1.072a2.078 2.078 0 1 0 2.786-3.084c.468-.168.973-.26 1.5-.26z" fill="#959595"/><path fill-rule="evenodd" clip-rule="evenodd" d="M100.133 92.083h5.726v4.135a2.863 2.863 0 0 1-5.726 0v-4.135z" fill="#BFBFBF"/><path fill-rule="evenodd" clip-rule="evenodd" d="M103.051 91.774c.431 0 .779.349.779.78v3.636a.779.779 0 1 1-1.558 0v-3.637c0-.43.349-.78.779-.78z" fill="#A2A2A2"/><path fill-rule="evenodd" clip-rule="evenodd" d="M108.406 87.673l.25-.114a30.873 30.873 0 0 1 12.327-2.747l.412-.003v5.225l-.268.111-.525.21-.507.197-.49.183-.474.169-.457.154c-1.568.517-2.826.775-3.773.775-.948 0-2.205-.258-3.774-.775l-.457-.154-.473-.169-.491-.183-.507-.196-.525-.21-.268-.112v-2.361z" fill="#BFBFBF"/><path fill-rule="evenodd" clip-rule="evenodd" d="M98.146 87.703l-.25-.114a30.874 30.874 0 0 0-12.327-2.747l-.412-.003v5.225c1.686 1.179 3.69 1.768 6.015 1.768 2.325 0 4.65-.589 6.974-1.767v-2.362z" fill="#D1D1D1"/><path fill-rule="evenodd" clip-rule="evenodd" d="M109.129 88.451a4.416 4.416 0 0 1-4.416 4.417h-3.103a4.416 4.416 0 0 1 0-8.833h3.103a4.416 4.416 0 0 1 4.416 4.416z" fill="#A2A2A2"/><path fill-rule="evenodd" clip-rule="evenodd" d="M102.079 83.77h2.165a2.598 2.598 0 1 1 0 5.196h-2.165a2.598 2.598 0 0 1 0-5.196z" fill="#959595"/><path fill-rule="evenodd" clip-rule="evenodd" d="M101.3 21.028c.687 0 1.243.532 1.243 1.19v32.9c0 1.09.923 1.972 2.06 1.972s2.06-.882 2.06-1.971c0-.657.556-1.19 1.243-1.19s1.244.533 1.244 1.19c0 2.403-2.036 4.351-4.547 4.351-2.511 0-4.547-1.948-4.547-4.351V22.218c0-.658.557-1.19 1.244-1.19z" fill="#F9F9F9"/><path fill-rule="evenodd" clip-rule="evenodd" d="M101.331 51.437c.91 0 1.648.738 1.648 1.648v2.017a1.64 1.64 0 0 0 1.635 1.645 1.64 1.64 0 0 0 1.636-1.645 1.648 1.648 0 1 1 3.296 0 4.936 4.936 0 0 1-4.932 4.942 4.937 4.937 0 0 1-4.932-4.942v-2.017c0-.91.738-1.648 1.649-1.648z" fill="#A2A2A2"/><path d="M102.56 50.574h-2.459a.412.412 0 0 0-.412.412v2.058c0 .227.184.412.412.412h2.459a.412.412 0 0 0 .412-.412v-2.058a.412.412 0 0 0-.412-.412z" fill="#A2A2A2"/><path d="M120.204 41.627l.005.01v2.377c-3.871-2.791-7.954-2.791-12.249 0-4.296-2.791-8.379-2.791-12.25 0-3.806-2.791-7.89-2.791-12.25 0 .037-.989-.04-1.909 0-2.774l.011-.108c.373-9.848 8.452-17.717 18.362-17.717 10.077 0 18.259 8.134 18.375 18.212h-.004zm-24.5 0l.006.01.006-.01h-.012z" fill="#959595"/><path d="M120.204 41.627l.005.01v2.377c-3.871-2.791-7.954-2.791-12.249 0-4.296-2.791-8.379-2.791-12.25 0-3.806-2.791-7.89-2.791-12.25 0 .037-.989-.04-1.909 0-2.774l.011-.108c.373-9.848 8.452-17.717 18.362-17.717 10.077 0 18.259 8.134 18.375 18.212h-.004zm-24.5 0l.006.01.006-.01h-.012z" fill="#959595"/><path d="M108.168 43.88c4.219-2.657 8.233-2.612 12.041.134v-2.378l-.005-.009h.004c-.116-10.078-8.298-18.212-18.375-18.212h-.148l.15.09c5.116 3.026 7.227 9.818 6.333 20.375z" fill="#A2A2A2"/><path fill-rule="evenodd" clip-rule="evenodd" d="M58.738 103.776c1.442 2.091 2.163 3.57 2.163 4.437a2.566 2.566 0 1 1-5.132 0c0-.867.721-2.346 2.164-4.437a.49.49 0 0 1 .805 0zM33.32 100.11c1.442 2.091 2.164 3.57 2.164 4.437a2.566 2.566 0 1 1-5.133 0c0-.867.722-2.346 2.164-4.437a.489.489 0 0 1 .805 0zM43.83 108.419c1.442 2.091 2.163 3.57 2.163 4.438a2.566 2.566 0 0 1-5.132 0c0-.868.72-2.347 2.164-4.438a.488.488 0 0 1 .804 0zM48.962 96.2c1.442 2.09 2.164 3.57 2.164 4.437a2.566 2.566 0 0 1-5.133 0c0-.868.721-2.347 2.164-4.438a.489.489 0 0 1 .805 0z" fill="#fff"/><path d="M31.439 89.321a11.876 11.876 0 0 1-.758-4.188c0-6.574 5.33-11.904 11.904-11.904 4.537 0 8.48 2.538 10.49 6.27a8.623 8.623 0 0 1 12.1 9.821h1.88a4.054 4.054 0 1 1 0 8.108H24.972a4.054 4.054 0 1 1 0-8.107h6.467z" fill="#A2A2A2"/></g><defs><linearGradient id="paint0_linear_302_3244" x1="54.603" y1="38.668" x2="54.603" y2="51.269" gradientUnits="userSpaceOnUse"><stop stop-color="#D1D1D1"/><stop offset=".536" stop-color="#fff"/></linearGradient><linearGradient id="paint1_linear_302_3244" x1="54.603" y1="38.668" x2="54.603" y2="51.269" gradientUnits="userSpaceOnUse"><stop stop-color="#D1D1D1"/><stop offset=".536" stop-color="#fff"/></linearGradient><linearGradient id="paint2_linear_302_3244" x1="54.603" y1="38.668" x2="54.603" y2="51.269" gradientUnits="userSpaceOnUse"><stop stop-color="#D1D1D1"/><stop offset=".536" stop-color="#fff"/></linearGradient><clipPath id="clip0_302_3244"><path fill="#fff" transform="translate(.813 .044)" d="M0 0h135v124H0z"/></clipPath></defs></svg>