<svg viewBox="0 0 135 124" fill="none" xmlns="http://www.w3.org/2000/svg"><path d="M11 28c0-9.389 7.611-17 17-17h79c9.389 0 17 7.611 17 17v79c0 9.389-7.611 17-17 17H28c-9.389 0-17-7.611-17-17V28z" fill="#9169CD"/><path d="M67.068 69.233a9.404 9.404 0 0 0-10.1-8.654l-30.472 2.35a9.404 9.404 0 0 0-8.654 10.099l1.807 23.44c.47 6.085 5.782 10.637 11.867 10.168l7.72-.595 5.934.565a6.165 6.165 0 0 0 4.518-1.371l9.019-.695c6.085-.469 10.637-5.782 10.168-11.866l-1.807-23.441z" fill="#A46648"/><path d="M18.939 42.556l38.668-2.98 1.627 21.096-38.67 2.98-1.625-21.096z" fill="#3D3D3D"/><path d="M30.038 59.593c-4.532 5.043-12.294 5.458-17.337.926l-4.374-3.93C3.284 52.055 2.87 44.293 7.401 39.25l4.396-4.891c4.532-5.043 12.294-5.457 17.337-.926l4.374 3.931c5.043 4.532 5.457 12.294.926 17.337l-4.396 4.891zM53.026 57.644c5.252 4.288 12.985 3.508 17.274-1.743l3.72-4.555c4.29-5.251 3.51-12.985-1.742-17.274l-5.093-4.16c-5.252-4.288-12.985-3.508-17.274 1.743l-3.72 4.555c-4.29 5.251-3.51 12.985 1.742 17.274l5.093 4.16z" fill="#3D3D3D"/><path d="M22.468 32.4c-.521-6.76 4.537-12.662 11.297-13.183l8.846-.682c6.76-.521 12.662 4.536 13.184 11.296l.564 7.32c.52 6.76-4.537 12.663-11.297 13.184l-8.846.682c-6.76.52-12.663-4.537-13.184-11.297l-.564-7.32z" fill="#3D3D3D"/><path d="M44.818 77.211a6.286 6.286 0 0 1 12.534-.966l.301 3.904a6.286 6.286 0 0 1-12.534.966l-.301-3.904z" fill="#fff"/><path d="M73.154 78.73a5.607 5.607 0 1 1-11.181.863 5.607 5.607 0 0 1 11.18-.862zM24.109 82.742a5.607 5.607 0 1 1-11.181.862 5.607 5.607 0 0 1 11.18-.862z" fill="#A46648"/><path d="M46.358 78.435a2.267 2.267 0 0 0 1.585-3.688 2.782 2.782 0 0 1 3.892 2.335l.27 3.493a2.782 2.782 0 0 1-5.55.428l-.197-2.568z" fill="#3D3D3D"/><path d="M41.27 77.484a6.286 6.286 0 0 0-12.536.967l.301 3.904a6.286 6.286 0 0 0 12.535-.967l-.3-3.904z" fill="#fff"/><path d="M34.387 79.359a2.267 2.267 0 0 0 1.585-3.689 2.782 2.782 0 0 1 3.892 2.335l.269 3.493a2.782 2.782 0 1 1-5.548.428l-.198-2.567z" fill="#3D3D3D"/><path d="M40.627 67.973c.975 2.428-2.186 5.983-7.06 7.94-4.873 1.958-9.615 1.577-10.59-.85-.976-2.429 2.185-5.984 7.059-7.942 4.874-1.957 9.616-1.576 10.59.852zM44.108 67.705c-.591 2.549 3.077 5.578 8.193 6.765 5.117 1.188 9.744.084 10.335-2.465.592-2.548-3.076-5.577-8.193-6.764-5.116-1.188-9.743-.085-10.335 2.464z" fill="#A46648"/><path d="M39.953 58.177a9.511 9.511 0 0 1 9.59-9.432l-.022 2.683a9.511 9.511 0 0 1-9.59 9.432l.022-2.683z" fill="#FDB02A"/><path d="M32.502 52.647a9.511 9.511 0 0 0 10.923 7.85l-.433-2.647A9.511 9.511 0 0 0 32.069 50l.433 2.647z" fill="#FDB02A"/><path d="M13.894 61.54l28.597-2.204.216 2.803-24.71 15.591-4.103-16.19z" fill="#FDB02A"/><path d="M68.98 57.294L40.382 59.5l.216 2.803 26.807 11.62 1.575-16.627z" fill="#FDB02A"/><path d="M23.068 69.246l2.363 3.45c1.05 1.532.047 3.627-1.806 3.77-1.853.143-3.166-1.773-2.363-3.45l1.806-3.77zM28.326 62.17l3.035 4.432c1.35 1.97.06 4.662-2.32 4.845-2.38.184-4.067-2.279-3.036-4.432l2.32-4.845zM65.773 24.919l3.53-5.162c1.568-2.294 5.032-2.03 6.234.476s-.759 5.373-3.53 5.162l-6.234-.476zM61.244 22.28l-2.956-7.14c-1.313-3.174 1.301-6.579 4.706-6.13 3.405.45 5.047 4.416 2.955 7.14l-4.705 6.13zM61.103 82.08l3.036 4.432c1.349 1.97.06 4.661-2.32 4.845-2.381.183-4.068-2.279-3.036-4.432l2.32-4.845zM73.152 65.548l2.686-4.653c1.194-2.067 4.178-2.067 5.372 0 1.194 2.068-.299 4.653-2.686 4.653h-5.372zM75.28 70.504l6.286-1.345c2.793-.598 5.186 2.052 4.307 4.77-.879 2.718-4.37 3.466-6.285 1.346l-4.307-4.77z" fill="#9ADCFB"/><path d="M43.34 87.78l-15.528-2.344.804 10.431 15.256-1.176-.533-6.91z" fill="#A46648"/><path d="M41.716 87.671a2.055 2.055 0 1 0 4.099-.316c-.088-1.131-2.254-3.605-2.34-3.598-.084.006-1.846 2.782-1.759 3.914z" fill="#86401F"/><path d="M40.768 88.314a2.116 2.116 0 0 1 1.947-2.272l1.875-.145a2.116 2.116 0 1 1 .326 4.22l-1.876.144a2.116 2.116 0 0 1-2.272-1.947z" fill="#86401F"/><path d="M33.606 98.68c-1.057 1.023-.223 2.6 1.24 2.74l10.72 1.02c1.464.139 2.58-1.253 1.736-2.456a9.026 9.026 0 0 0-6.548-3.809 9.025 9.025 0 0 0-7.148 2.506z" fill="#A41414"/><path fill-rule="evenodd" clip-rule="evenodd" d="M45.357 71.36c4.654 4.388 10.66 4.752 13.155 4.376a1 1 0 0 0-.298-1.978c-2.076.313-7.4-.002-11.485-3.853a1 1 0 1 0-1.372 1.456zM38.819 68.453c-2.679 4.86-7.539 6.756-9.708 7.11a1 1 0 1 1-.322-1.974c1.75-.286 5.977-1.926 8.278-6.102a1 1 0 0 1 1.752.966z" fill="#935334"/><path d="M46.576 99.08a9.013 9.013 0 0 0-5.823-2.905 9.026 9.026 0 0 0-7.194 2.55l13.017.356z" fill="#fff"/><path d="M99.06 73.002l2.462-1.78a2.14 2.14 0 0 0 .876-1.527l1.274-13.125 6.008.583-1.275 13.126a2.14 2.14 0 0 0 .566 1.666l2.073 2.22a8.019 8.019 0 0 1 2.12 6.25l-3.084 31.769a2.148 2.148 0 0 1-2.345 1.93l-13.114-1.274a2.146 2.146 0 0 1-1.93-2.344l3.085-31.769a8.024 8.024 0 0 1 3.284-5.725z" fill="#464646"/><path d="M102.893 58.182l7.242.704a.537.537 0 0 0 .586-.483l.162-1.672a.536.536 0 0 0-.482-.586l-7.242-.704a.537.537 0 0 0-.586.483l-.162 1.672a.536.536 0 0 0 .482.586z" fill="#464646"/><path d="M105.872 109.542a1.274 1.274 0 0 0 1.389-1.143l2.722-28.028a1.276 1.276 0 0 0-1.144-1.389 1.276 1.276 0 0 0-1.389 1.144l-2.721 28.027a1.275 1.275 0 0 0 1.143 1.389z" fill="#676262"/><path d="M103.508 58.242l6.008.584-.893 9.2-6.008-.584.893-9.2z" fill="#F34848"/><path d="M95.34 83.209l17.388 1.688-1.409 14.51-17.388-1.688 1.409-14.51z" fill="#FDCD8D"/><path d="M102.84 96.37a5.085 5.085 0 1 1 .983-10.122 5.085 5.085 0 0 1-.983 10.121z" fill="#F34848"/><path d="M66.247 112.81l47.647 4.627c.933.09 1.7-.541 1.791-1.474.09-.933-.541-1.7-1.474-1.791l-47.647-4.626c-.933-.091-1.7.541-1.79 1.474-.084.855.618 1.707 1.473 1.79z" fill="#C5C5C5"/><path d="M74.922 115.301l29.979 2.911c.933.09 1.701-.542 1.791-1.474.091-.933-.541-1.7-1.474-1.791l-29.979-2.911c-.932-.09-1.7.541-1.79 1.474-.083.855.618 1.708 1.473 1.791z" fill="#C5C5C5"/><path d="M72.515 86.534c.205 4.666 3.658 8.414 8.058 9.114.48.077.865.464.886.95l.368 8.417a.955.955 0 0 1-.912.995l-1.293.057a.594.594 0 1 0 .052 1.188l6.619-.29a.594.594 0 1 0-.052-1.188l-1.027.045a.955.955 0 0 1-.996-.912l-.37-8.475c-.022-.475.313-.888.772-1.016 4.198-1.168 7.195-5.14 6.994-9.721a.86.86 0 0 0-.893-.826l-17.388.761a.86.86 0 0 0-.818.9z" fill="#D2E4E8"/><path d="M74.2 88.397c.895 3.743 4.162 6.225 8.07 6.054 4.155-.182 7.155-2.833 7.514-6.763a.478.478 0 0 0-.497-.52l-14.642.64a.478.478 0 0 0-.444.589z" fill="#EA2B2B"/><path fill-rule="evenodd" clip-rule="evenodd" d="M77.86 89.38a1.195 1.195 0 0 1 1.654.346c.422.645 1.185 1.065 2.12 1.024a1.195 1.195 0 0 1 .105 2.388c-1.742.076-3.322-.723-4.225-2.104a1.195 1.195 0 0 1 .346-1.654z" fill="#FF6464"/><path d="M98.587 12.756l-3.994 1.139.679 2.381 3.994-1.139-.679-2.381z" fill="#C5C5C5"/><path d="M127.169 32.014c-3.68-12.904-17.084-20.294-29.911-16.636-12.828 3.658-20.295 17.084-16.636 29.911l1.599 5.608 46.547-13.276-1.599-5.607z" fill="#E4E4E4"/><path d="M93.202 32.316a4.793 4.793 0 1 0-2.63-9.217 4.793 4.793 0 0 0 2.63 9.217z" fill="#fff"/><path d="M129.634 39.201L82.548 52.63c-.922.263-1.81-.232-2.073-1.153-.263-.922.231-1.81 1.153-2.073l47.085-13.429c.922-.263 1.811.231 2.074 1.153.241.845-.309 1.832-1.153 2.073zM97.601 9.3l-4.07 1.162a2.062 2.062 0 0 0-1.428 2.566 2.062 2.062 0 0 0 2.566 1.428l4.071-1.161a2.062 2.062 0 0 0 1.428-2.567 2.062 2.062 0 0 0-2.567-1.427z" fill="#C5C5C5"/></svg>