<svg id="Cover" xmlns="http://www.w3.org/2000/svg" viewBox="0 0 135 124"><defs><style>.cls-3{fill:#4b4b4b}.cls-4{fill:#e27f5a}.cls-5{fill:#2e2e2e}.cls-8{fill:#fff}.cls-9{fill:#75eff2}.cls-11{fill:none;stroke:#4b4b4b;stroke-linecap:round;stroke-miterlimit:10;stroke-width:9px}</style></defs><path d="M124 28v79a17.16 17.16 0 0 1-.17 2.4 16 16 0 0 1-.63 2.78 17 17 0 0 1-15.2 11.76H27c-.35 0-.83-.06-1.24-.11l-.76-.13a16.94 16.94 0 0 1-10.47-6.41 16.94 16.94 0 0 1-3.28-7.81c0-.34-.09-.69-.12-1S11 107.44 11 107V28a17 17 0 0 1 17-17h79a17 17 0 0 1 17 17z" fill="#744dca"/><path d="M123.85 109.37a16 16 0 0 1-.63 2.78A17 17 0 0 1 108 123.94H27c-.35 0-.83-.06-1.24-.11l-.76-.13a16.94 16.94 0 0 1-10.47-6.41 16.94 16.94 0 0 1-3.28-7.81L36.32 97.1h62.56z" fill="#ffc800"/><circle class="cls-3" cx="67.5" cy="17.99" r="13.3"/><circle class="cls-4" cx="101.01" cy="69.23" r="12.28"/><circle class="cls-4" cx="33.99" cy="69.23" r="12.28"/><path class="cls-5" d="M91.91 7.28A46.43 46.43 0 0 0 70.23-.11L69-.17h-3l-1.15.05a46.43 46.43 0 0 0-21.72 7.4c-8 5.08-14.58 17.08-14.58 26.59v6.38l.5 22.69a13.62 13.62 0 0 0 .07 1.44c.73 7.11 6.24 12.66 13.55 12.66h49.7c7.3 0 12.81-5.55 13.54-12.66a13.59 13.59 0 0 0 .08-1.44l.5-23.06v-6c0-9.52-6.49-21.52-14.58-26.6z"/><path d="M106.49 39.88v23.75a14.12 14.12 0 0 1-14.12 14.12h-49.7a14.1 14.1 0 0 1-14.12-14.12V39.88z" fill="#928478"/><path d="M101.26 36v57a12.17 12.17 0 0 1-12.18 12.17H45.93A12.17 12.17 0 0 1 33.76 93V35.86A18.34 18.34 0 0 1 52.2 17.52l30.8.18A18.34 18.34 0 0 1 101.26 36z" fill="#ea8f6e"/><path class="cls-8" d="M63.2 50.41v6.87a8.95 8.95 0 0 1-8.94 8.94 8.94 8.94 0 0 1-8.95-8.94v-6.87a8.95 8.95 0 1 1 17.89 0z"/><rect class="cls-3" x="53.53" y="52.76" width="8.06" height="13.16" rx="4.03"/><path class="cls-8" d="M88.73 50.41v6.87a8.95 8.95 0 0 1-17.89 0v-6.87a8.95 8.95 0 1 1 17.89 0z"/><rect class="cls-3" x="72.53" y="52.76" width="8.06" height="13.16" rx="4.03"/><path class="cls-9" d="M49 62.29h12.7a8.95 8.95 0 0 1-14.29.7l.06-.07a2.17 2.17 0 0 1 1.53-.63zM86.85 62.75a8.93 8.93 0 0 1-14.47-.46h13.13a2.15 2.15 0 0 1 1.34.46z"/><path class="cls-5" d="M52.94 65.51H81a9 9 0 0 1 9 9v2.12a1.77 1.77 0 0 1-1.77 1.77H45.71a1.77 1.77 0 0 1-1.77-1.77V74.5a9 9 0 0 1 9-9z"/><path d="M71.34 69.59h-8.11A3.56 3.56 0 0 1 60 64.65l4-9.48A3.64 3.64 0 0 1 67.29 53a3.64 3.64 0 0 1 3.34 2.21l4 9.48a3.56 3.56 0 0 1-3.29 4.9z" fill="#d67d5a"/><path class="cls-11" d="M61.07 39.84C56.88 43.11 48 46 44.62 46M73.62 40.8c4.19 3.27 12.12 5.2 15.5 5.2"/><path d="M44.87 123.86l-.23.11H31.78L11.5 102.23l-.48-.51-.07-.08L1.3 91.29a4.82 4.82 0 0 1 7.05-6.58L11 87.58 13.27 90l11.63 12.46z" fill="#00aef8"/><path class="cls-4" d="M43.88 124a3.18 3.18 0 0 0 2.37-5.31l-6.61-7.37a28.82 28.82 0 0 0-14.73-8.85 28.63 28.63 0 0 0-6.8-.82H11l.07.08V107q0 .7.06 1.41c0 .35.07.7.12 1a16.91 16.91 0 0 0 3.28 7.83A16.94 16.94 0 0 0 25 123.7l.82.12c.41.05.82.09 1.24.11s.84 0 1.26 0z"/></svg>