<svg id="Layer_3" data-name="Layer 3" xmlns="http://www.w3.org/2000/svg" viewBox="0 0 135 124"><defs><style>.cls-2{fill:#e5e5e5}.cls-3{fill:#bfbfbf}</style></defs><path d="M124 28v79.7a17.08 17.08 0 0 1-.88 4.7 11.74 11.74 0 0 1-.48 1.24v.11l-.74 1.51c-.22.4-.45.78-.7 1.16a17.69 17.69 0 0 1-2.67 3.12l-.54.47a19 19 0 0 1-1.79 1.3c-.14.1-.3.19-.45.28a16 16 0 0 1-1.69.88 2.54 2.54 0 0 1-.41.18c-.17.08-.35.16-.54.23-.43.15-.84.3-1.29.42h-.06l-.31.08a16.6 16.6 0 0 1-4.08.56h-80a16.69 16.69 0 0 1-2-.21 1.65 1.65 0 0 1-.32-.06 16.32 16.32 0 0 1-3.55-1l-.39-.17-.52-.24c-.4-.2-.79-.41-1.18-.64a13.7 13.7 0 0 1-1.13-.74 16.72 16.72 0 0 1-4.28-4.21 10.45 10.45 0 0 1-.71-1.15 14.7 14.7 0 0 1-1.05-2.1l-.09-.24A16.94 16.94 0 0 1 11 107V28a17 17 0 0 1 17-17h79a16.62 16.62 0 0 1 3.63.39A17 17 0 0 1 124 28z" fill="#b2b2b2"/><path class="cls-2" d="M96.58 48.79a3.58 3.58 0 0 0 1.31-4.91L77.05 7.78 75 4.25a8.11 8.11 0 0 0-14 0l-2.11 3.53-20.6 35.69A4.06 4.06 0 0 0 39.78 49l8.68 5A4.06 4.06 0 0 0 54 52.55l5.47-9.48V78.8a4.07 4.07 0 0 0 4.07 4.07h10a4.07 4.07 0 0 0 4.06-4.07V45.08L82.17 53a3.61 3.61 0 0 0 4.92 1.32z"/><path class="cls-2" d="M87.13 16.46h5.8v36.23A2.89 2.89 0 0 1 90 55.58a2.89 2.89 0 0 1-2.89-2.89V16.46h.02z" transform="rotate(-30 90.028 36.023)"/><path class="cls-2" d="M57.17 21.68a2.89 2.89 0 0 1 2.89 2.89V60.8h-5.8V24.57a2.89 2.89 0 0 1 2.89-2.89z" transform="rotate(-150 57.18 41.237)"/><path class="cls-2" d="M50.54 22.54a2.89 2.89 0 0 1 2.89 2.89v36.23h-5.8V25.43a2.89 2.89 0 0 1 2.89-2.89z" transform="rotate(-150 50.552 42.102)"/><path class="cls-2" d="M59.48 71.92h8.58v13.94a2 2 0 0 1-2 2h-4.53a2 2 0 0 1-2-2V71.92h-.05z"/><path class="cls-3" d="M49.77 94.88L47 96.28l-1.08.53-9.65 4.8-1.85.92-6 3-.23.11-1.76.88h-.05a2.88 2.88 0 0 0-.92.78c-2.22 2.62-3.36 9.83-4 15.4l-.39-.17-.52-.24c-.4-.2-.79-.41-1.18-.64a13.7 13.7 0 0 1-1.13-.74 16.72 16.72 0 0 1-4.24-4.24 10.45 10.45 0 0 1-.71-1.15l-1.05-2.1-2.17-4.42-8-16.25A18.48 18.48 0 0 1 .36 80.94a26.34 26.34 0 0 1 9-15.1l.75-.63.94-.78 7.42-6.18a9.54 9.54 0 0 1 14.67 3.08L45.4 86.1z"/><path class="cls-2" d="M18.42 68.77l18.8 37.82 12-6-18.81-37.78a6.69 6.69 0 0 0-12 6zM11.06 76.46l17.19 34.59 6.91-3.44L18 73a3.85 3.85 0 0 0-7.11.49 3.81 3.81 0 0 0 .17 2.97z"/><path class="cls-2" d="M6.05 82.17l15.61 31.39a3.23 3.23 0 0 0 .33-.06 17 17 0 0 0 4.3-1.48l2.22-1.1-15.91-32a3.66 3.66 0 0 0-6.55 3.26z"/><path class="cls-2" d="M2.55 88.37l15.61 31.4.33-.07a16.8 16.8 0 0 0 4.29-1.48l2.23-1.1L9.1 85.11A3.73 3.73 0 0 0 8.21 84a3.66 3.66 0 0 0-5.66 4.4z"/><path class="cls-3" d="M64.24 124H27.31a16.69 16.69 0 0 1-2-.21 1.65 1.65 0 0 1-.32-.06 16.32 16.32 0 0 1-3.55-1l-.39-.17-.52-.24c-.4-.2-.79-.41-1.18-.64a13.7 13.7 0 0 1-1.13-.74 16.72 16.72 0 0 1-4.22-4.27 10.45 10.45 0 0 1-.71-1.15 14.7 14.7 0 0 1-1.05-2.1l-.09-.24A16.94 16.94 0 0 1 11 107l-1.86-2.77 4.54-6.71.2-.31 2.35-3.45A19.84 19.84 0 0 0 18 90.47l.15-.35a20.42 20.42 0 0 0-.59-16.87l-.81-1.63-3.25-6.54 2.34-1.17L21.36 75a18.52 18.52 0 0 0 1.16 2 20.36 20.36 0 0 0 11.67 8.54L42.93 88l4 1.27z"/><path class="cls-2" d="M60.52 124H27.31a16.69 16.69 0 0 1-2-.21 1.65 1.65 0 0 1-.32-.06 16.32 16.32 0 0 1-3.55-1l-.39-.17-4.8-10.56 9.22-4.69 21.59-11z"/><path class="cls-3" d="M85.19 94.88l2.81 1.4 1.07.53 9.66 4.8 1.84.92 6 3 .23.11 1.76.88a3 3 0 0 1 .93.78c2.22 2.62 3.35 9.83 4 15.4l.39-.17.51-.24c.4-.2.8-.41 1.18-.64.39-.23.77-.47 1.14-.74a16.85 16.85 0 0 0 4.17-4.21 12.33 12.33 0 0 0 .72-1.15l1-2.1 2.19-4.45 8-16.25a18.48 18.48 0 0 0 1.72-11.77 26.27 26.27 0 0 0-8.94-15.1l-.76-.63-.94-.78-7.41-6.18a9.55 9.55 0 0 0-14.68 3.08L89.56 86.1z"/><path class="cls-2" d="M116.54 68.77l-18.79 37.82-12-6 18.8-37.82a6.69 6.69 0 1 1 12 6zM123.91 76.46l-17.19 34.59-6.92-3.44L117 73a3.85 3.85 0 0 1 7.11.49 3.81 3.81 0 0 1-.2 2.97z"/><path class="cls-2" d="M128.92 82.17l-15.61 31.39c-.12 0-.22 0-.34-.06a16.93 16.93 0 0 1-4.29-1.48l-2.22-1.1 15.91-32a3.48 3.48 0 0 1 .89-1.14 3.66 3.66 0 0 1 5.85 1.61 3.68 3.68 0 0 1-.19 2.78z"/><path class="cls-2" d="M132.42 88.37l-15.61 31.4-.34-.07a16.93 16.93 0 0 1-4.29-1.48l-2.22-1.1 15.91-32a3.58 3.58 0 0 1 .89-1.14 3.66 3.66 0 0 1 5.66 4.4z"/><path class="cls-3" d="M70.73 124h36.92a16.86 16.86 0 0 0 2-.21 1.8 1.8 0 0 0 .32-.06 16.32 16.32 0 0 0 3.55-1l.39-.17.51-.24c.4-.2.8-.41 1.18-.64.39-.23.77-.47 1.14-.74a16.85 16.85 0 0 0 4.17-4.21 12.33 12.33 0 0 0 .72-1.15 15.77 15.77 0 0 0 1-2.1 2.44 2.44 0 0 0 .1-.24A16.93 16.93 0 0 0 124 107l1.87-2.77-4.54-6.71-.21-.31-2.34-3.45a20.66 20.66 0 0 1-1.8-3.29c0-.12-.1-.23-.14-.35a20.42 20.42 0 0 1 .58-16.87l.81-1.63 3.25-6.54-2.34-1.17L113.6 75a17 17 0 0 1-1.16 2 20.34 20.34 0 0 1-11.66 8.54L92 88l-4 1.26z"/><path class="cls-2" d="M74.44 124h33.21a16.86 16.86 0 0 0 2-.21 1.8 1.8 0 0 0 .32-.06 16.32 16.32 0 0 0 3.55-1l.39-.17 4.8-10.56-9.21-4.69-21.59-11z"/></svg>