<svg viewBox="0 0 135 124" fill="none" xmlns="http://www.w3.org/2000/svg"><g clip-path="url(#clip0)"><path d="M107 11H28c-9.389 0-17 7.611-17 17v79c0 9.389 7.611 17 17 17h79c9.389 0 17-7.611 17-17V28c0-9.389-7.611-17-17-17z" fill="#FFCA00"/><path d="M122.44 20.93L20.92 122.45a16.937 16.937 0 0 0 7.08 1.56h41.32L124 69.33V28.01a16.938 16.938 0 0 0-1.56-7.08zM50.32 69.07l58-58c-.43 0-.87-.07-1.31-.07H58.42L25.34 44.09c-6.904 6.904-6.904 18.096 0 25 6.903 6.904 18.096 6.904 25 0l-.02-.02z" fill="#FFD900"/><path d="M2.486 33.708c.036-15.128 11.056-27.99 26-30.344C43.43 1.01 57.871 9.86 62.556 24.244L77.304 69.51a1.633 1.633 0 0 1-1.299 2.118L4.26 82.932a1.633 1.633 0 0 1-1.887-1.617l.114-47.607z" fill="#FF9600"/><path d="M6.999 35.158c-.418-13.333 9.153-24.893 22.33-26.969 13.223-2.083 25.919 6.036 29.574 18.913l5.748 20.245c2.095 7.38-2.734 14.931-10.313 16.125L22.433 68.5c-7.601 1.197-14.532-4.54-14.773-12.232L7 35.157z" fill="#FFCA00"/><path d="M52.927 31.741a5.986 5.986 0 0 1 4.982-6.845l2.15-.338a5.986 5.986 0 0 1 1.863 11.826l-2.15.339a5.986 5.986 0 0 1-6.845-4.982z" fill="#FFCA00"/><path d="M39.194 49.428c.273 1.729-.89 3.349-2.598 3.617-1.707.27-3.311-.914-3.584-2.643-.272-1.729 2.058-6.206 2.187-6.226.129-.02 3.723 3.523 3.995 5.252zM31.783 68.003a.965.965 0 0 1 .804-1.104l12.084-1.904a.965.965 0 0 1 1.104.804l1.478 9.383a.965.965 0 0 1-.803 1.103L34.365 78.19a.965.965 0 0 1-1.103-.803l-1.479-9.383z" fill="#F68B00"/><path d="M33.28 39.355a8.13 8.13 0 0 0-9.297-6.767l-6.508 1.026a1.016 1.016 0 0 0-.846 1.162l1.25 7.939a8.13 8.13 0 0 0 9.298 6.766l3.723-.586a3.837 3.837 0 0 0 3.192-4.387l-.811-5.154z" fill="#fff"/><path d="M33.28 39.355a8.13 8.13 0 0 0-9.297-6.767l-6.508 1.026a1.016 1.016 0 0 0-.846 1.162l1.25 7.939a8.13 8.13 0 0 0 9.298 6.766l3.723-.586a3.837 3.837 0 0 0 3.192-4.387l-.811-5.154z" fill="#FFF1A2"/><path fill-rule="evenodd" clip-rule="evenodd" d="M48.903 48.18c1.254-.913 2.547-.992 3.456-.584a1.016 1.016 0 0 1-.831 1.855c-.152-.068-.677-.175-1.428.372-.767.559-1.77 1.813-2.639 4.443a1.017 1.017 0 0 1-1.93-.637c.942-2.851 2.133-4.547 3.372-5.45z" fill="#F68B00"/><path d="M35.542 38.998a8.13 8.13 0 0 1 6.767-9.297l6.508-1.025a1.016 1.016 0 0 1 1.162.845l1.25 7.94a8.131 8.131 0 0 1-6.765 9.297l-3.723.586a3.837 3.837 0 0 1-4.387-3.193l-.812-5.153z" fill="#FFF1A2"/><path d="M38.341 45.417a2.34 2.34 0 0 1 1.947-2.675l1.81-.285 1.809-.285a2.34 2.34 0 1 1 .728 4.623l-3.618.57a2.34 2.34 0 0 1-2.676-1.948zM24.396 47.614a2.34 2.34 0 0 1 1.947-2.675l1.809-.285 1.81-.285a2.34 2.34 0 0 1 .728 4.623l-3.619.57a2.34 2.34 0 0 1-2.675-1.948z" fill="#F68B00"/><path d="M60.746 31.912c-.507 2.689-7.538 3.62-15.704 2.082-8.166-1.54-14.375-4.966-13.869-7.655.507-2.688 7.538-3.62 15.704-2.081 8.166 1.539 14.375 4.966 13.869 7.654z" fill="#FFCA00"/><path d="M19.572 6.203a19.344 19.344 0 0 0 .12 5.157c1.66 10.54 11.55 17.738 22.09 16.077l20.75-3.269C57.821 9.828 43.404 1.014 28.486 3.364a30.76 30.76 0 0 0-8.915 2.839z" fill="#FF9600"/><path d="M51.23 37.46l-1.251-7.939a1.016 1.016 0 0 0-1.162-.845L42.309 29.7a8.13 8.13 0 0 0-6.767 9.297l.245 1.555 15.203.503a8.1 8.1 0 0 0 .24-3.595zM17.88 42.715l-1.25-7.94a1.016 1.016 0 0 1 .845-1.161l6.508-1.026a8.13 8.13 0 0 1 9.298 6.767l.244 1.554-14.312 5.153a8.1 8.1 0 0 1-1.333-3.347z" fill="#FFB100"/><path d="M87.078 19.243l2.993.54a3.68 3.68 0 0 1-1.306 7.242l-4.062-.732-.217-.04a9.366 9.366 0 0 0-10.88 7.556 9.366 9.366 0 0 0 7.555 10.88l19.39 3.496 6.155 1.11c9.891 1.784 19.354-4.788 21.138-14.678l.071-.395c1.784-9.89-4.788-19.354-14.678-21.138l-4.196-.756L89.816 8.86a5.385 5.385 0 0 0-2.738 10.383z" fill="#F68B00"/><path fill-rule="evenodd" clip-rule="evenodd" d="M85.512 11.143l-1.543-.278-.475 2.633 1.543.279.475-2.634zM75.59 31.524l-1.522-.274-.475 2.633 1.523.275.475-2.634z" fill="#CC8C45"/><path d="M87.493 16.939l2.993.54a3.68 3.68 0 0 1-1.306 7.242l-4.062-.733-.217-.04a9.366 9.366 0 0 0-10.88 7.556 9.366 9.366 0 0 0 7.555 10.88l19.39 3.496 6.155 1.11c9.89 1.784 19.354-4.787 21.138-14.678l.071-.395c1.784-9.89-4.788-19.354-14.678-21.137l-4.197-.757L90.23 6.556a5.385 5.385 0 0 0-2.737 10.383z" fill="#FF9600"/><path d="M107.227 28.316l6.913 1.246c2 .36 3.329 2.274 2.968 4.274l-.178.988a3.68 3.68 0 0 1-4.274 2.968l-6.913-1.247a3.68 3.68 0 0 1-2.968-4.274l.178-.988a3.68 3.68 0 0 1 4.274-2.968z" fill="#FFD300"/><path d="M99.964 12.05l2.963.534a3.01 3.01 0 0 1-1.069 5.926l-2.962-.535a3.01 3.01 0 1 1 1.068-5.925z" fill="#FFB100"/><path d="M102.715 32.6l1.975.356a3.345 3.345 0 0 1-1.187 6.584l-1.975-.356a3.345 3.345 0 1 1 1.187-6.584z" fill="#FFD300"/><path d="M89.456 28.85l3.292.593a3.345 3.345 0 0 1-1.188 6.584l-3.291-.594a3.345 3.345 0 1 1 1.187-6.584z" fill="#F68B00"/><path d="M104.875 14.975l3.621.653a3.68 3.68 0 0 1-1.306 7.242l-3.621-.653a3.68 3.68 0 1 1 1.306-7.242z" fill="#FFB100"/><path d="M132.76 57.178L68.54 52.09c-.63-.05-1.182.421-1.232 1.052L62.44 114.59c-.05.631.421 1.183 1.052 1.232l64.219 5.088a1.145 1.145 0 0 0 1.232-1.052l4.868-61.448a1.145 1.145 0 0 0-1.051-1.232z" fill="#FF9600"/><path d="M130.003 60.453l-59.258-4.694-4.498 56.789 59.258 4.694 4.498-56.79z" fill="#F68B00"/><path d="M126.015 110.802l-59.258-4.694-.51 6.44 59.258 4.694.51-6.44z" fill="#FFCA00"/><path d="M130.003 60.453l-4.498 56.789-5.49-6.164 3.596-45.403 6.392-5.222zM66.247 112.548l4.498-56.79 5.49 6.165-3.597 45.402-6.391 5.223z" fill="#FFB100"/><path d="M127.86 62.205l-55.272-4.378-4.195 52.969 55.271 4.378 4.196-52.969z" fill="#FFF1A2"/><path d="M127.86 62.205l-55.272-4.378-4.195 52.969 55.271 4.378 4.196-52.969z" fill="#FFF1A2"/><path fill-rule="evenodd" clip-rule="evenodd" d="M76.034 80.176l1.364.108a2.42 2.42 0 0 1 2.222 2.604l-.44 5.567a1.052 1.052 0 0 1-1.133.966l-1.364-.108a2.42 2.42 0 0 1-2.222-2.604l.441-5.567a1.053 1.053 0 0 1 1.132-.966zM83.718 69.253l20.194 10.288c.456.232.727.716.686 1.225l-.947 11.959c-.459 5.794-5.528 10.12-11.323 9.661l-2.413-.192c-5.794-.459-10.12-5.528-9.66-11.322l1.63-20.594a1.263 1.263 0 0 1 1.833-1.025z" fill="#FFB100"/><path fill-rule="evenodd" clip-rule="evenodd" d="M85.37 91.903l3.066.242a1.535 1.535 0 0 1 1.414 1.539l-.005 1.085a.316.316 0 0 1-.34.314l-3.067-.243a1.535 1.535 0 0 1-1.414-1.538l.006-1.086a.316.316 0 0 1 .34-.313zM92.555 94.585l2.58.205c.507.04.901.46.908.97l.008.552a.316.316 0 0 1-.34.32l-2.58-.205a.987.987 0 0 1-.909-.97l-.007-.553a.316.316 0 0 1 .34-.319z" fill="#FF9600"/><path fill-rule="evenodd" clip-rule="evenodd" d="M115.293 81.7l2.886.229a3.947 3.947 0 0 1 3.622 4.246l-.694 8.77a1.053 1.053 0 0 1-1.133.967l-2.885-.23a3.947 3.947 0 0 1-3.623-4.245l.695-8.77a1.053 1.053 0 0 1 1.132-.967zM99.138 70.453l12.335-5.123a1.263 1.263 0 0 1 1.744 1.267l-1.713 21.623a7.21 7.21 0 0 1-14.374-1.139l1.233-15.561c.037-.473.337-.885.775-1.067z" fill="#FFCA00"/><path fill-rule="evenodd" clip-rule="evenodd" d="M105.777 98.935l1.489.342a1.158 1.158 0 0 1 .767 1.666l-2.537 4.844a1.158 1.158 0 0 1-1.946.165l-1.64-2.148a1.158 1.158 0 0 1 .053-1.47l2.688-3.038a1.158 1.158 0 0 1 1.126-.36zM84.485 102.201l-.796.076a1.157 1.157 0 0 0-.994 1.504l1.028 3.222a1.158 1.158 0 0 0 1.89.497l1.173-1.09c.41-.38.489-.998.19-1.469l-1.405-2.208a1.159 1.159 0 0 0-1.086-.532z" fill="#F49000"/><path d="M87.886 75.831l-2.308-.182a1.684 1.684 0 0 0-1.812 1.545l-.24 3.047a1.684 1.684 0 0 0 1.545 1.812l2.308.183a1.684 1.684 0 0 0 1.812-1.546l.241-3.047a1.684 1.684 0 0 0-1.546-1.812z" fill="#FFF1A2"/><path d="M87.034 74.602l-1.05-.083a.737.737 0 0 0-.792.676l-.158 1.996c-.032.406.27.76.676.793l1.05.083c.405.032.76-.27.792-.676l.158-1.996a.737.737 0 0 0-.676-.793z" fill="#F68B00"/><path d="M94.13 86.31a1.631 1.631 0 0 0-3.252-.258l-.167 2.102a1.631 1.631 0 0 0 3.252.257l.167-2.102z" fill="#F49000"/><path fill-rule="evenodd" clip-rule="evenodd" d="M91.405 83.4l2.621.208a1.264 1.264 0 0 1 1.16 1.36l-.074.945a.316.316 0 0 1-.34.29l-4.511-.358a.316.316 0 0 1-.29-.34l.075-.944a1.264 1.264 0 0 1 1.36-1.16z" fill="#FFC200"/><path d="M108.07 74.261l-4.826-.382a2.21 2.21 0 0 0-2.378 2.029l-.366 4.623a2.21 2.21 0 0 0 2.029 2.377l4.826.383a2.21 2.21 0 0 0 2.377-2.029l.367-4.623a2.21 2.21 0 0 0-2.029-2.378z" fill="#FFF1A2"/><path d="M106.696 78.273l-1.678-.133a1.263 1.263 0 0 0-1.359 1.159l-.308 3.887a1.263 1.263 0 0 0 1.159 1.358l1.679.133a1.263 1.263 0 0 0 1.359-1.159l.308-3.886a1.263 1.263 0 0 0-1.16-1.36z" fill="#F68B00"/><path d="M110.733 20.245l1.119-.736a1.976 1.976 0 0 1 2.183.008l1.026.685a6.71 6.71 0 0 1 2.039 2.148l16.643 27.92a1.976 1.976 0 0 1-.612 2.662l-.147.097a1.976 1.976 0 0 1-2.687-.494L111.26 26.19a6.723 6.723 0 0 1-1.163-2.724l-.222-1.214a1.976 1.976 0 0 1 .858-2.007z" fill="#CD7900"/><path d="M106.161 14.27l2.017-1.326a.395.395 0 0 1 .536.096l4.203 5.745a.395.395 0 0 1-.086.552l-.016.011-2.613 1.718a.395.395 0 0 1-.547-.113l-.01-.017-3.608-6.136a.395.395 0 0 1 .124-.53z" fill="#FFCA00"/><path d="M112.513 18.129l-3.31 2.176a.791.791 0 0 0 .868 1.32l3.31-2.176a.79.79 0 0 0-.868-1.32zM108.059 12.076l-2.648 1.741a.79.79 0 1 0 .868 1.32l2.648-1.741a.79.79 0 0 0-.868-1.32z" fill="#FFCA00"/><path d="M100.391 6.873l-1.242-3.59a1.035 1.035 0 0 1 1.676-1.103l2.799 2.558c.139.127.289.242.448.342l3.801 2.392a3.071 3.071 0 0 1 .051 5.166l-1.952 1.283a3.082 3.082 0 0 1-4.735-2.085l-.713-4.431a3.138 3.138 0 0 0-.133-.532z" fill="#835032"/><path d="M100.391 6.873l-1.242-3.59a1.035 1.035 0 0 1 1.676-1.103l2.799 2.558c.139.127.289.242.448.342l3.801 2.392a3.071 3.071 0 0 1 .051 5.166l-1.952 1.283a3.082 3.082 0 0 1-4.735-2.085l-.713-4.431a3.138 3.138 0 0 0-.133-.532z" fill="#F68B00"/><path d="M104.358 5.26a2.175 2.175 0 0 1-.926 2.296l-.005.004a2.174 2.174 0 0 1-.538.256l.802 1.22a1.385 1.385 0 1 1-2.314 1.523l-.457-.695-.396-2.46a3.138 3.138 0 0 0-.133-.53l-1.242-3.592a1.035 1.035 0 0 1 1.676-1.102l2.798 2.558c.14.128.29.242.449.342l.286.18zM48.935 81.568l-35.176 11.25a2.617 2.617 0 0 0-1.695 3.29l5.138 16.065a2.618 2.618 0 0 0 3.29 1.695l35.176-11.25a2.618 2.618 0 0 0 1.695-3.29l-5.138-16.065a2.617 2.617 0 0 0-3.29-1.695z" fill="#FFCA00"/><path fill-rule="evenodd" clip-rule="evenodd" d="M14.203 94.203c-.612.195-.95.85-.754 1.462l5.138 16.065c.196.611.85.949 1.462.753l35.176-11.251c.612-.195.95-.85.753-1.462L50.84 83.706a1.163 1.163 0 0 0-1.462-.754l-35.175 11.25zm-3.524 2.348a4.071 4.071 0 0 1 2.638-5.118l35.175-11.25a4.071 4.071 0 0 1 5.118 2.637l5.138 16.064a4.071 4.071 0 0 1-2.637 5.118l-35.176 11.251a4.071 4.071 0 0 1-5.118-2.638L10.68 96.551z" fill="#FF9600"/><path d="M41.277 94.855a7.124 7.124 0 1 0-13.571 4.34l1.24 3.878a7.125 7.125 0 0 0 13.571-4.34l-1.24-3.878zM56.643 98.03a2.908 2.908 0 1 0-5.54 1.773l.71 2.215a2.907 2.907 0 1 0 5.539-1.771l-.709-2.216zM51.682 82.52a2.908 2.908 0 0 0-5.54 1.772l.71 2.216a2.908 2.908 0 0 0 5.539-1.771l-.709-2.216z" fill="#FF9600"/><path d="M22.575 108.927a2.908 2.908 0 1 0-5.54 1.772l.71 2.216a2.909 2.909 0 0 0 5.539-1.772l-.709-2.216z" fill="#79C500"/><path d="M17.615 93.417a2.908 2.908 0 0 0-5.54 1.772l.709 2.216a2.908 2.908 0 0 0 5.54-1.772l-.71-2.216z" fill="#FF9600"/><path d="M47.183 93.272a1.89 1.89 0 1 0-3.6 1.151l.62 1.94a1.89 1.89 0 1 0 3.6-1.153l-.62-1.938zM25.025 100.359a1.89 1.89 0 1 0-3.6 1.151l.62 1.939a1.89 1.89 0 1 0 3.6-1.152l-.62-1.938z" fill="#79C500"/><path d="M46.956 92.024L10.21 95.716a2.617 2.617 0 0 0-2.342 2.865l1.685 16.782a2.617 2.617 0 0 0 2.866 2.342l36.746-3.691a2.618 2.618 0 0 0 2.343-2.866l-1.686-16.781a2.617 2.617 0 0 0-2.866-2.343z" fill="#FFCA00"/><path fill-rule="evenodd" clip-rule="evenodd" d="M10.355 97.162a1.163 1.163 0 0 0-1.041 1.274L11 115.217a1.163 1.163 0 0 0 1.273 1.041l36.746-3.691a1.163 1.163 0 0 0 1.041-1.274l-1.685-16.781A1.163 1.163 0 0 0 47.1 93.47l-36.746 3.691zm-3.934 1.564a4.071 4.071 0 0 1 3.643-4.457l36.746-3.692a4.071 4.071 0 0 1 4.458 3.644l1.686 16.782a4.07 4.07 0 0 1-3.644 4.457l-36.746 3.692a4.072 4.072 0 0 1-4.458-3.644L6.421 98.726z" fill="#FF9600"/><path d="M36.704 103.429a7.125 7.125 0 0 0-14.177 1.424l.406 4.051a7.125 7.125 0 0 0 14.178-1.424l-.407-4.051zM51.074 109.731a2.908 2.908 0 0 0-5.787.581l.232 2.315a2.908 2.908 0 1 0 5.787-.582l-.232-2.314zM49.445 93.528a2.908 2.908 0 0 0-5.787.581l.233 2.315a2.908 2.908 0 1 0 5.787-.582l-.233-2.314zM15.485 113.306a2.908 2.908 0 1 0-5.787.581l.232 2.315a2.907 2.907 0 1 0 5.787-.582l-.232-2.314zM13.857 97.103a2.908 2.908 0 1 0-5.787.58L8.302 100a2.907 2.907 0 1 0 5.787-.582l-.232-2.314zM42.81 103.109a1.89 1.89 0 1 0-3.762.377l.203 2.026a1.891 1.891 0 0 0 3.762-.378l-.204-2.025zM19.662 105.434a1.89 1.89 0 1 0-3.762.378l.204 2.025a1.89 1.89 0 1 0 3.761-.378l-.203-2.025zM5.105 41.157a27.21 27.21 0 0 1 2.72-16.755l4.128-7.966 4.245-4.525 4.669-1.838 9.528 60.477-20.159 3.176-5.131-32.57z" fill="#FF9600"/><path d="M86.242 30.65l.659.118a4.181 4.181 0 0 1-1.485 8.23l-.658-.12a4.181 4.181 0 0 1 1.484-8.229z" fill="#F68B00"/></g><defs><clipPath id="clip0"><path fill="#fff" d="M0 0h135v124H0z"/></clipPath></defs></svg>