<svg viewBox="0 0 135 125" fill="none" xmlns="http://www.w3.org/2000/svg"><path d="M107 11.797H28c-9.389 0-17 7.611-17 17v79c0 9.389 7.611 17 17 17h79c9.389 0 17-7.611 17-17v-79c0-9.389-7.611-17-17-17z" fill="#E5E5E5"/><path d="M38.487 5.385L27.661 6.508a2.419 2.419 0 0 0-2.156 2.655l4.678 45.11a2.419 2.419 0 0 0 2.655 2.156l10.826-1.122a2.419 2.419 0 0 0 2.157-2.656l-4.678-45.11a2.419 2.419 0 0 0-2.656-2.156z" fill="#B2B2B2"/><path fill-rule="evenodd" clip-rule="evenodd" d="M27.661 6.508l10.826-1.123a2.419 2.419 0 0 1 2.656 2.156l2.35 22.662-15.638 1.622-2.35-22.662a2.419 2.419 0 0 1 2.156-2.655z" fill="#D1D1D1"/><path fill-rule="evenodd" clip-rule="evenodd" d="M35.565 31.221c9.3-.964 17.623 5.794 18.587 15.095l6.3 60.748a4.838 4.838 0 0 1-4.313 5.311L32.08 114.87a4.838 4.838 0 0 1-5.31-4.313l-6.3-60.748c-.964-9.301 5.794-17.623 15.095-18.588z" fill="#B2B2B2"/><path fill-rule="evenodd" clip-rule="evenodd" d="M28.663 52.607l4.21-.437a1.814 1.814 0 0 1 1.992 1.617l5.738 55.335a1.815 1.815 0 0 1-1.617 1.992l-4.21.436a1.813 1.813 0 0 1-1.992-1.617l-5.738-55.335a1.814 1.814 0 0 1 1.617-1.991z" fill="#BFBFBF"/><path d="M50.276 55.837l-23.457 2.432a1.814 1.814 0 0 0-1.617 1.992l3.866 37.29c.104.997.995 1.721 1.992 1.618l23.457-2.432a1.814 1.814 0 0 0 1.617-1.992l-3.867-37.29a1.814 1.814 0 0 0-1.991-1.618z" fill="#D1D1D1"/><path fill-rule="evenodd" clip-rule="evenodd" d="M25.438 9.778l15.638-1.622a1.814 1.814 0 0 1 1.991 1.618l.5 4.811a1.814 1.814 0 0 1-1.618 1.992l-15.638 1.621a1.814 1.814 0 0 1-1.991-1.617l-.5-4.812a1.814 1.814 0 0 1 1.618-1.991z" fill="#E5E5E5"/><path fill-rule="evenodd" clip-rule="evenodd" d="M30.332 48.178a4.535 4.535 0 1 0-.935-9.022 4.535 4.535 0 0 0 .935 9.022z" fill="#BFBFBF"/><path fill-rule="evenodd" clip-rule="evenodd" d="M27.42 58.207l7.82-.81 4.24 40.899-7.818.81-4.242-40.899zM27.066 10.825l8.42-.873a1.512 1.512 0 1 1 .313 3.007l-8.42.873a1.512 1.512 0 1 1-.313-3.007z" fill="#fff"/><path fill-rule="evenodd" clip-rule="evenodd" d="M34.01 75.022a3.13 3.13 0 0 0 .619 1.543 3.145 3.145 0 1 0 .71 6.188A3.145 3.145 0 0 0 39 87.081a3.145 3.145 0 1 0 5.377-.617 3.175 3.175 0 0 0 .439-.02 3.145 3.145 0 0 0 2.147-5.025 3.134 3.134 0 0 0 .44-.02 3.145 3.145 0 1 0-1.15-6.168 3.145 3.145 0 1 0-12.244-.208zm7.085 10.266l-.014.033a3.192 3.192 0 0 1 .871-.1 5.147 5.147 0 0 1-.02-.028l-.419.047-.418.049z" fill="#B2B2B2"/><path d="M39.901 71.181c1.76-1.15 2.816-3.042 2.587-5.045-.23-2.002-1.687-3.606-3.662-4.327-1.76 1.15-2.817 3.042-2.587 5.044.23 2.003 1.687 3.607 3.662 4.328z" fill="#BFBFBF"/><path d="M65.226 53.795L71.543 9.86l26.56 7.54 14.715 23.49-42.16 17.153a3.975 3.975 0 0 1-5.432-4.248z" fill="#D1D1D1"/><path d="M89.421 41.222a8.28 8.28 0 1 1 10.21-13.04 8.28 8.28 0 0 1-10.21 13.04zM67.668 36.812l2.048-14.243a8.28 8.28 0 1 1-1.904 14.352l-.144-.11zM89.667 50.308L74.68 56.406a8.28 8.28 0 0 1 14.987-6.098L74.68 56.406l14.987-6.098z" fill="#B2B2B2"/><path d="M115.308 35.76a4.969 4.969 0 0 1-8.87 4.48c-3.388-6.709-7.798-12.152-13.247-16.381-5.417-4.204-11.825-7.04-19.289-8.51a4.968 4.968 0 1 1 1.921-9.75c8.95 1.763 16.79 5.234 23.46 10.41 6.637 5.15 11.984 11.751 16.025 19.752z" fill="#BFBFBF"/><path d="M76.773 21.645a2.484 2.484 0 0 1-.424-3.488l4.083-5.216a2.484 2.484 0 1 1 3.912 3.063l-4.083 5.216a2.484 2.484 0 0 1-3.488.425z" fill="#D1D1D1"/><path d="M83.51 22.712a3.81 3.81 0 0 1-.651-5.347l2.45-3.13a3.81 3.81 0 0 1 5.998 4.696l-2.45 3.13a3.81 3.81 0 0 1-5.347.651zM69.037 80.956C70.969 68.28 82.813 59.57 95.49 61.502l1.123.171C109.29 63.606 118 75.45 116.067 88.126a2.51 2.51 0 0 1-2.86 2.103L71.14 83.816a2.51 2.51 0 0 1-2.103-2.86zM66.295 99.114a2.184 2.184 0 0 1 2.488-1.83l42.712 6.512a2.184 2.184 0 0 1 1.83 2.488 6.552 6.552 0 0 1-7.465 5.491l-34.075-5.195a6.553 6.553 0 0 1-5.49-7.466z" fill="#D1D1D1"/><path d="M62.917 92.028a4 4 0 0 1 4.558-3.352l47.835 7.293a4 4 0 0 1 3.351 4.557l-.047.309a4 4 0 0 1-4.557 3.352l-47.835-7.293a4 4 0 0 1-3.352-4.558l.047-.308z" fill="#B2B2B2"/><path d="M67.183 84.096a.873.873 0 0 1 .995-.731l47.99 7.316a.873.873 0 1 1-.263 1.726l-47.99-7.316a.873.873 0 0 1-.732-.995z" fill="#E5E5E5"/><path d="M67.588 86.053a1 1 0 0 1 1.14-.838l45.709 6.968a1 1 0 0 1 .838 1.14l-.243 1.592a1 1 0 0 1-1.139.838l-45.71-6.968a1 1 0 0 1-.838-1.14l.243-1.592z" fill="#BFBFBF"/><path d="M89.484 99.066a2 2 0 0 0 1.72.263l15.287-4.704-30.198-4.604 13.191 9.045z" fill="#E5E5E5"/><path d="M110.994 83.438a1.867 1.867 0 0 1-3.69-.562c.156-1.019 1.376-3.483 2.395-3.328 1.019.155 1.45 2.872 1.295 3.89zM101.519 81.994a1.867 1.867 0 0 1-3.69-.563c.156-1.018 1.376-3.483 2.395-3.328 1.019.156 1.45 2.872 1.295 3.89zM107.657 76.096a1.867 1.867 0 0 1-3.69-.562c.156-1.02 1.376-3.484 2.395-3.328 1.019.155 1.45 2.871 1.295 3.89z" fill="#BFBFBF"/><path fill-rule="evenodd" clip-rule="evenodd" d="M95.06 68.092a16.504 16.504 0 0 0-12.778 3.39 2 2 0 0 1-2.483-3.135 20.504 20.504 0 0 1 15.863-4.21 2 2 0 1 1-.603 3.955z" fill="#E5E5E5"/></svg>