<svg width="135" height="124" viewBox="0 0 135 124" version="1.1" xmlns="http://www.w3.org/2000/svg"><g stroke="none" stroke-width="1" fill="none" fill-rule="evenodd"><g fill-rule="nonzero"><g transform="translate(11.5)"><rect fill="#FD9526" x=".01" y="11" width="113" height="113" rx="17"/><path d="M113 99.18V107c0 9.389-7.611 17-17 17H77.58l-23.33-22.67 38.29-22.8L113 99.18z" fill="#9069CD"/><rect fill="#A56644" transform="rotate(-.97 83.076 65.551)" x="73.826" y="44.051" width="18.5" height="43" rx="8.35"/><path d="M90.16 85.27l-17.23 17.82a11 11 0 0 1-14.33 1.33l-4.34-3.08-11.12-7.9a7.93 7.93 0 0 1-1.94-11.06L44.29 78l12.48-17.82a7.94 7.94 0 0 1 11.07-1.94L89 73.29a7.93 7.93 0 0 1 1.16 11.98z" fill="#FFD0BB"/><rect fill="#A56644" transform="rotate(125.7 45.49 58.068)" x="36.24" y="30.673" width="18.5" height="54.79" rx="8.35"/><circle fill="#A56644" cx="68.98" cy="83.49" r="23.91"/><rect fill="#4B4B4B" x="38.79" y="0" width="36.54" height="119.08" rx="4.97"/><circle fill="#EBE3E3" cx="56.96" cy="76.84" r="15.42"/><circle fill="#4B4B4B" cx="56.96" cy="76.84" r="6.63"/><path d="M50.21 78a9.24 9.24 0 0 1-11.93 5.34L24 78a9.27 9.27 0 0 1-5.36-12 9.26 9.26 0 0 1 11.94-5.35L44.86 66a9.24 9.24 0 0 1 5.35 12z" fill="#A56644"/><path d="M57.3 96.39a9.24 9.24 0 0 1-11.3 6.5L31.21 99a9.25 9.25 0 0 1-6.5-11.35 9.25 9.25 0 0 1 11.35-6.5L50.8 85a9.25 9.25 0 0 1 6.5 11.39z" fill="#A56644"/><circle fill="#FC4D50" cx="44.96" cy="6.39" r="2.89"/><circle fill="#EBE3E3" cx="44.96" cy="14.91" r="2.89"/><circle fill="#EBE3E3" cx="53.06" cy="14.91" r="2.89"/><circle fill="#EBE3E3" cx="61.15" cy="14.91" r="2.89"/><circle fill="#EBE3E3" cx="69.25" cy="14.91" r="2.89"/><circle fill="#FC4D50" cx="44.96" cy="106.95" r="2.89"/><circle fill="#FD9526" cx="53.06" cy="106.95" r="2.89"/><circle fill="#A56644" cx="61.15" cy="106.95" r="2.89"/><circle fill="#EBE3E3" cx="69.25" cy="106.95" r="2.89"/><rect fill="#EBE3E3" x="42.07" y="27.42" width="8.5" height="5.35" rx="1.69"/><rect fill="#EBE3E3" x="52.7" y="27.42" width="8.5" height="5.35" rx="1.69"/><rect fill="#EBE3E3" x="63.33" y="27.42" width="8.5" height="5.35" rx="1.69"/><rect fill="#EBE3E3" x="42.07" y="35.12" width="8.5" height="5.35" rx="1.69"/><rect fill="#EBE3E3" x="52.7" y="35.12" width="8.5" height="5.35" rx="1.69"/><rect fill="#EBE3E3" x="63.33" y="35.12" width="8.5" height="5.35" rx="1.69"/><rect fill="#EBE3E3" x="42.07" y="42.82" width="8.5" height="5.35" rx="1.69"/><rect fill="#EBE3E3" x="52.7" y="42.82" width="8.5" height="5.35" rx="1.69"/><rect fill="#EBE3E3" x="63.33" y="42.82" width="8.5" height="5.35" rx="1.69"/><rect fill="#EBE3E3" x="42.07" y="50.53" width="8.5" height="5.35" rx="1.69"/><rect fill="#EBE3E3" x="52.7" y="50.53" width="8.5" height="5.35" rx="1.69"/><rect fill="#EBE3E3" x="63.33" y="50.53" width="8.5" height="5.35" rx="1.69"/></g></g></g></svg>