<svg viewBox="0 0 135 124" fill="none" xmlns="http://www.w3.org/2000/svg"><g clip-path="url(#clip0)"><path d="M11 28c0-9.389 7.611-17 17-17h79c9.389 0 17 7.611 17 17v79c0 9.389-7.611 17-17 17H28c-9.389 0-17-7.611-17-17V28z" fill="#FFCA00"/><path d="M122.278 20.93L20.758 122.45a16.937 16.937 0 0 0 7.08 1.56h41.32l54.68-54.68V28.01a16.938 16.938 0 0 0-1.56-7.08zm-72.12 48.14l58-58c-.43 0-.87-.07-1.31-.07h-48.59l-33.08 33.09c-6.904 6.904-6.904 18.096 0 25 6.903 6.904 18.096 6.904 25 0l-.02-.02z" fill="#FFD900"/><path d="M20.543 27.146l41.227-4.453 2.725 25.224-41.227 4.454-2.725-25.225z" fill="#E27903"/><path d="M34.777 42.702c-3.266 6.472-11.16 9.07-17.632 5.805l-5.613-2.833c-6.472-3.266-9.07-11.16-5.805-17.632l3.168-6.277c3.266-6.472 11.16-9.07 17.632-5.805l5.613 2.833c6.472 3.266 9.071 11.16 5.805 17.632l-3.168 6.277zM57.467 42.153c5.753 4.41 13.992 3.324 18.403-2.429l3.827-4.99c4.411-5.752 3.324-13.992-2.429-18.403l-5.58-4.278C65.937 7.64 57.698 8.729 53.287 14.48l-3.827 4.99c-4.411 5.753-3.324 13.992 2.429 18.403l5.58 4.279z" fill="#E27903"/><path d="M23.982 16.175c-.779-7.207 4.433-13.681 11.64-14.46L45.053.697c7.207-.78 13.681 4.432 14.46 11.64l.843 7.804c.779 7.207-4.433 13.68-11.64 14.46l-9.431 1.018c-7.208.779-13.682-4.433-14.46-11.64l-.843-7.804z" fill="#E27903"/><path d="M61.776 45.158c5.521-.596 10.48 3.396 11.077 8.917l2.7 24.992c.7 6.487-3.99 12.314-10.477 13.014l-28.99 3.132c-6.488.701-12.315-3.99-13.015-10.477l-2.7-24.991c-.597-5.521 3.395-10.48 8.916-11.077l32.49-3.51z" fill="#F79B24"/><path d="M49.336 63.332A6.72 6.72 0 1 1 62.7 61.888l.45 4.163a6.72 6.72 0 1 1-13.365 1.444l-.45-4.163z" fill="#FFF1A2"/><path d="M79.667 64.027a5.995 5.995 0 1 1-11.92 1.288 5.995 5.995 0 0 1 11.92-1.288zM27.386 69.92a5.995 5.995 0 1 1-11.92 1.288 5.995 5.995 0 0 1 11.92-1.287z" fill="#F79B24"/><path d="M51.022 64.59a2.424 2.424 0 0 0 1.573-3.994 2.975 2.975 0 0 1 4.235 2.367l.402 3.724a2.975 2.975 0 0 1-5.914.64l-.296-2.738z" fill="#E27903"/><path d="M45.553 63.74a6.72 6.72 0 1 0-13.364 1.444l.45 4.163a6.72 6.72 0 1 0 13.364-1.444l-.45-4.162z" fill="#FFF1A2"/><path d="M38.26 65.97a2.424 2.424 0 0 0 1.572-3.994 2.975 2.975 0 0 1 4.235 2.367l.403 3.724a2.974 2.974 0 1 1-5.915.64l-.296-2.738z" fill="#E27903"/><path d="M43.513 43.152c-.126-5.616 4.325-10.27 9.94-10.395l.064 2.868c.125 5.615-4.325 10.269-9.94 10.394l-.064-2.867z" fill="#FDB02A"/><path d="M35.368 37.483c1.077 5.513 6.418 9.109 11.93 8.032l-.55-2.815c-1.076-5.512-6.417-9.108-11.93-8.032l.55 2.816z" fill="#FDB02A"/><path d="M15.774 47.6l30.49-3.294.322 2.989-25.895 17.472L15.774 47.6z" fill="#FDB02A"/><path d="M74.505 41.255l-30.49 3.294.323 2.989 29.03 11.538 1.137-17.82z" fill="#FDB02A"/><path fill-rule="evenodd" clip-rule="evenodd" d="M40.867 55.498c-2.572 4.35-7.111 5.344-9.13 5.295a1.048 1.048 0 0 1 .05-2.094c1.516.036 5.205-.765 7.276-4.267a1.048 1.048 0 1 1 1.804 1.066zM52.057 54.29c3.441 3.7 8.088 3.702 10.049 3.224a1.048 1.048 0 0 0-.496-2.036c-1.473.36-5.248.365-8.02-2.614a1.048 1.048 0 0 0-1.533 1.427z" fill="#E27903"/><path d="M50.766 87.363c-.909 1.293.414 2.683 1.966 2.384l7.42-1.431c1.552-.3 2.264-2.081.94-2.944a7.545 7.545 0 0 0-5.566-1.09 7.545 7.545 0 0 0-4.76 3.081zM65.123 60.54c-.163-1.502 1.803-7.31 2.22-7.355.418-.045 3.578 5.209 3.74 6.71.162 1.503-1.041 2.865-2.687 3.042-1.646.178-3.111-.895-3.273-2.397z" fill="#FFF1A2"/><path d="M48.455 75.37c-7.784-3.322-15.284-2.615-18.06-1.847l.856 7.925 17.655-1.908-.45-4.17zM48.885 75.325c6.896-4.908 14.373-5.819 17.25-5.66l.856 7.923-17.655 1.908-.451-4.171z" fill="#F79B24"/><path d="M46.364 74.611a2.197 2.197 0 0 0 4.37-.472c-.131-1.206-2.527-3.778-2.618-3.768-.09.01-1.882 3.034-1.752 4.24z" fill="#E27903"/><path d="M45.372 75.33a2.262 2.262 0 0 1 2.006-2.492l2-.216a2.262 2.262 0 1 1 .485 4.498l-1.999.216a2.262 2.262 0 0 1-2.492-2.006z" fill="#E27903"/><path d="M29.391 79.603a3.532 3.532 0 0 1 3.132-3.891l5.462-.59a3.532 3.532 0 0 1 .759 7.022l-5.462.59a3.532 3.532 0 0 1-3.89-3.131zM55.896 76.739a3.532 3.532 0 0 1 3.132-3.89l5.462-.59a3.532 3.532 0 0 1 .759 7.022l-5.462.59a3.532 3.532 0 0 1-3.89-3.132z" fill="#EA8710"/><path d="M33.412 113.844l2.598 3.844 20.092 2.189 1.696-16.571-10.66-3.278-6.264.04-3.505 1.996-2.473 2.418-1.52 3.871.036 5.491z" fill="#FDB02A"/><path d="M32.872 110.035c.655 6.692 5.216 10.93 9.781 10.97l13.53.116c.668.006 1.233-.581 1.316-1.366l-.001.009-24.626-9.729z" fill="#E27903"/><path fill-rule="evenodd" clip-rule="evenodd" d="M56.728 104.234l-11.895-2.987a8.653 8.653 0 1 0-2.162 17.044l12.265.077 1.792-14.134zm.772 15.735l2.111-16.645a1.318 1.318 0 0 0-.986-1.444l-13.123-3.296c-.442-.111-.89-.195-1.343-.253-6.245-.792-11.95 3.629-12.741 9.874-.058.452-.088.907-.09 1.363-.04 6.294 5.03 11.429 11.326 11.469l13.53.084a1.317 1.317 0 0 0 1.316-1.152z" fill="#FDB02A"/><path d="M31.602 109.363l.208-1.635-12.752-1.618-.207 1.635 12.752 1.618z" fill="#FDB02A"/><path d="M19.802 113.348l1.576-12.425a1.153 1.153 0 1 0-2.29-.29l-1.575 12.425a1.153 1.153 0 1 0 2.289.29z" fill="#FDB02A"/><path opacity=".836" fill-rule="evenodd" clip-rule="evenodd" d="M57.876 106.532l-.126.993a.66.66 0 0 1-.714.574l-15.256-1.384a2.426 2.426 0 0 1-2.187-2.721 2.24 2.24 0 0 1 2.756-1.891l15.03 3.706a.66.66 0 0 1 .497.723z" fill="#FFE68E"/><path d="M92.095 11.14a4.28 4.28 0 0 1 4.949-3.486l28.214 4.891a4.28 4.28 0 0 1 3.486 4.95l-8.513 49.102a4.28 4.28 0 0 1-4.949 3.486l-28.214-4.891a4.28 4.28 0 0 1-3.486-4.95l8.513-49.102z" fill="#E27903"/><path d="M92.712 7.582a4.28 4.28 0 0 1 4.95-3.486l28.213 4.891a4.28 4.28 0 0 1 3.487 4.95l-8.514 49.102a4.28 4.28 0 0 1-4.949 3.486l-28.214-4.892a4.28 4.28 0 0 1-3.486-4.949l8.513-49.102z" fill="#FDB02A"/><path fill-rule="evenodd" clip-rule="evenodd" d="M125.51 11.096L97.295 6.204a2.14 2.14 0 0 0-2.474 1.744L86.308 57.05a2.14 2.14 0 0 0 1.743 2.475l28.214 4.891a2.14 2.14 0 0 0 2.475-1.743l8.513-49.102a2.14 2.14 0 0 0-1.743-2.475zm-27.849-7a4.28 4.28 0 0 0-4.949 3.486L84.2 56.684a4.28 4.28 0 0 0 3.486 4.95l28.214 4.891a4.28 4.28 0 0 0 4.949-3.486l8.514-49.103a4.28 4.28 0 0 0-3.487-4.949L97.661 4.096z" fill="#454545"/><path d="M102.555 5.623l18.197 3.155-.053.302a4.28 4.28 0 0 1-4.949 3.486l-9.761-1.692a4.28 4.28 0 0 1-3.487-4.95l.053-.301z" fill="#F79B24"/><path d="M96.134 16.084a2.14 2.14 0 0 1 2.474-1.743l3.339.579a2.14 2.14 0 0 1 1.743 2.475l-.579 3.338a2.14 2.14 0 0 1-2.474 1.743l-3.339-.579a2.14 2.14 0 0 1-1.743-2.474l.579-3.339zM94.329 26.496a2.14 2.14 0 0 1 2.474-1.743l3.339.579a2.14 2.14 0 0 1 1.743 2.474l-.579 3.338a2.14 2.14 0 0 1-2.474 1.744l-3.339-.58a2.14 2.14 0 0 1-1.743-2.474l.579-3.338zM92.523 36.91a2.14 2.14 0 0 1 2.474-1.744l3.338.58a2.14 2.14 0 0 1 1.744 2.474l-.58 3.338a2.14 2.14 0 0 1-2.474 1.743l-3.338-.579a2.14 2.14 0 0 1-1.743-2.474l.579-3.338zM90.718 47.322a2.14 2.14 0 0 1 2.474-1.743l3.339.579a2.14 2.14 0 0 1 1.743 2.474l-.579 3.339a2.14 2.14 0 0 1-2.474 1.743l-3.339-.579a2.14 2.14 0 0 1-1.743-2.474l.579-3.339zM105.997 17.794a2.14 2.14 0 0 1 2.475-1.743l3.338.579a2.14 2.14 0 0 1 1.743 2.475l-.579 3.338a2.14 2.14 0 0 1-2.474 1.743l-3.338-.579a2.14 2.14 0 0 1-1.744-2.474l.579-3.339zM104.192 28.206a2.14 2.14 0 0 1 2.474-1.743l3.339.58a2.14 2.14 0 0 1 1.743 2.474l-.579 3.338a2.14 2.14 0 0 1-2.474 1.743l-3.339-.579a2.14 2.14 0 0 1-1.743-2.474l.579-3.339zM102.387 38.62a2.14 2.14 0 0 1 2.475-1.744l3.338.579a2.14 2.14 0 0 1 1.743 2.474l-.578 3.338a2.14 2.14 0 0 1-2.475 1.744l-3.338-.58a2.14 2.14 0 0 1-1.743-2.474l.578-3.338zM100.582 49.033a2.14 2.14 0 0 1 2.474-1.744l3.338.58a2.14 2.14 0 0 1 1.744 2.474l-.579 3.338a2.14 2.14 0 0 1-2.475 1.743l-3.338-.578a2.14 2.14 0 0 1-1.743-2.475l.579-3.338zM115.861 19.504a2.14 2.14 0 0 1 2.474-1.743l3.339.579a2.14 2.14 0 0 1 1.743 2.474l-.579 3.339a2.14 2.14 0 0 1-2.474 1.743l-3.339-.579a2.14 2.14 0 0 1-1.743-2.474l.579-3.339zM114.055 29.916a2.14 2.14 0 0 1 2.475-1.743l3.338.579a2.14 2.14 0 0 1 1.743 2.475l-.578 3.338a2.14 2.14 0 0 1-2.475 1.743l-3.338-.579a2.141 2.141 0 0 1-1.744-2.474l.579-3.339zM112.25 40.33a2.14 2.14 0 0 1 2.475-1.744l3.338.579a2.14 2.14 0 0 1 1.743 2.474l-.579 3.338a2.14 2.14 0 0 1-2.474 1.744l-3.338-.58a2.14 2.14 0 0 1-1.744-2.474l.579-3.338zM110.445 50.742A2.14 2.14 0 0 1 112.919 49l3.339.579a2.14 2.14 0 0 1 1.743 2.474l-.579 3.339a2.14 2.14 0 0 1-2.474 1.743l-3.339-.579a2.14 2.14 0 0 1-1.743-2.474l.579-3.339z" fill="#FFCA00"/><path opacity=".35" d="M125.19 8.868l.685.12a4.28 4.28 0 0 1 3.487 4.948l-3.236 18.665-35.691 29.51-2.75-.477a4.28 4.28 0 0 1-3.486-4.95l2.882-16.621L125.19 8.867z" fill="#FFD900"/><path fill-rule="evenodd" clip-rule="evenodd" d="M125.51 11.096L97.295 6.204a2.14 2.14 0 0 0-2.474 1.744L86.308 57.05a2.14 2.14 0 0 0 1.743 2.475l28.214 4.891a2.14 2.14 0 0 0 2.475-1.743l8.513-49.102a2.14 2.14 0 0 0-1.743-2.475zm-27.849-7a4.28 4.28 0 0 0-4.949 3.486L84.2 56.684a4.28 4.28 0 0 0 3.486 4.95l28.214 4.891a4.28 4.28 0 0 0 4.949-3.486l8.514-49.103a4.28 4.28 0 0 0-3.487-4.949L97.661 4.096z" fill="#F79B24"/><path d="M76.702 100.996c.558-.423 1.325-.059 1.435.632l.28 1.775a1 1 0 0 0 1.262.806l2.166-.617a1 1 0 0 1 1.106.407l1.021 1.533c.492.738 1.63.517 1.811-.351l.996-4.779c.122-.586.731-.938 1.277-.69a11.284 11.284 0 0 1 5.928 6.36l35.319-4.021a2.705 2.705 0 0 1 .612 5.374l-35.318 4.021c-.642 5.022-4.62 9.145-9.853 9.741a11.159 11.159 0 0 1-8.514-2.598 2.918 2.918 0 0 1-2.56 2.497l-2.002.228a.901.901 0 0 1-.997-.793l-2.09-18.363a.9.9 0 0 1 .793-.997l2.002-.228a2.917 2.917 0 0 1 3.168 2.225 11.285 11.285 0 0 1 2.158-2.162z" fill="#E27903"/><path d="M94.91 100.347a1.143 1.143 0 1 1 1.717 1.509l-9.005 10.243a1.144 1.144 0 0 1-1.717-1.509l9.006-10.243z" fill="#FFD300"/><path d="M83.606 114.936a2.51 2.51 0 0 1-.236-3.54 2.508 2.508 0 0 1 3.54-.219 2.508 2.508 0 0 1 .236 3.539 2.51 2.51 0 0 1-3.54.22z" fill="#FFD300"/><path d="M132.281 90.57l-6.904 28.142a3.29 3.29 0 0 1-3.322 2.5H90.239a1.644 1.644 0 0 1-1.562-2.038l11.363-46.087a1.672 1.672 0 0 1 .209-.49 1.645 1.645 0 0 1 2.271-.504l22.951 14.61 3.421-.203a3.29 3.29 0 0 1 3.389 4.07z" fill="#F79B24"/><path d="M79.995 97.392l-3.446-3.948a1 1 0 0 1 .153-1.457l3.148-2.364a1 1 0 0 1 1.599.752l.298 6.312c.045.947-1.13 1.419-1.752.705zM86.408 93.732l3.446-3.948a1 1 0 0 0-.153-1.458l-3.148-2.363a1 1 0 0 0-1.6.752l-.297 6.312c-.045.947 1.13 1.419 1.752.705z" fill="#E27903"/></g><defs><clipPath id="clip0"><path fill="#fff" d="M0 0h135v124H0z"/></clipPath></defs></svg>