<svg viewBox="0 0 135 124" fill="none" xmlns="http://www.w3.org/2000/svg"><path d="M11 28c0-9.389 7.611-17 17-17h79c9.389 0 17 7.611 17 17v79c0 9.389-7.611 17-17 17H28c-9.389 0-17-7.611-17-17V28z" fill="#FEC701"/><path fill-rule="evenodd" clip-rule="evenodd" d="M64.756 27.296c8.2 8.2 8.2 21.497 0 29.698l-53.407 53.407a17.078 17.078 0 0 1-.348-3.442L11 51.352l24.057-24.056c8.201-8.201 21.498-8.201 29.699 0zM124 28.352v35.354l-8.995 8.997c-4.881 4.882-12.796 4.882-17.677 0-4.882-4.881-4.882-12.796 0-17.678L124 28.353z" fill="#FFD900"/><path d="M17.123 31.273c0-6.772 5.49-12.26 12.26-12.26h38.534c6.771 0 12.26 5.488 12.26 12.26V70.72c.005 1.003.096 3.024 1.808 3.773h7.387c.726 0 1.314.588 1.314 1.314 0 7.335-5.947 13.282-13.282 13.282H19.458c-7.336 0-13.282-5.947-13.282-13.282 0-.726.588-1.314 1.313-1.314h7.825c1.797-.786 1.808-2.974 1.808-3.915l.001-.065V31.273z" fill="#FFB100"/><path d="M24.264 44.958a5.912 5.912 0 1 0-2.908 7.99v35.979h53.567v-43.01a6.06 6.06 0 0 1-4.965-5.96v-8.611c0-.573.08-1.128.229-1.654a11.479 11.479 0 0 0-6.795-2.214H32.887c-2.333 0-4.503.692-6.318 1.883.216.622.333 1.29.333 1.985v8.612a6.05 6.05 0 0 1-2.638 5z" fill="#FFD900"/><path d="M33.875 41.881a6.882 6.882 0 1 1 13.764 0v4.187a6.883 6.883 0 0 1-4.065 6.28c-1.968-1.864-4.196-2.965-6.045-3.613a19.241 19.241 0 0 0-3.413-.855 6.89 6.89 0 0 1-.241-1.813v-4.186zM63.841 41.881a6.882 6.882 0 1 0-13.764 0v4.187a6.883 6.883 0 0 0 4.002 6.251c1.96-1.847 4.174-2.94 6.014-3.584a19.243 19.243 0 0 1 3.511-.87 6.892 6.892 0 0 0 .237-1.797V41.88z" fill="#FFF1A2"/><path d="M39.933 42.005a2.262 2.262 0 0 0 2.18-2.87 3.09 3.09 0 0 1 3.635 3.042v3.88a3.09 3.09 0 0 1-6.18 0v-3.88c0-.068.003-.134.007-.2.116.019.236.028.358.028zM51.994 41.847a2.262 2.262 0 0 0 2.999-2.76h.073a3.09 3.09 0 0 1 3.09 3.09v3.88a3.09 3.09 0 0 1-6.18 0v-3.88c0-.112.006-.222.018-.33z" fill="#F68B00"/><path fill-rule="evenodd" clip-rule="evenodd" d="M43.361 67.946c-6.026-.527-10.39-3.294-12.052-8.313a4.963 4.963 0 0 1 9.064-3.945c.746 1.024 1.83 1.98 3.347 2.317.162.02.33.038.506.053l.082.008a4.963 4.963 0 0 1-.947 9.88z" fill="#F68B00"/><path d="M38.965 67.063c1.338.45 2.81.744 4.397.883a4.963 4.963 0 0 0 5.395-5.053 9.002 9.002 0 0 0-2.063-.239 8.972 8.972 0 0 0-7.73 4.409z" fill="#FFB100"/><path d="M44.388 58.075a6.725 6.725 0 0 0-.079-.009l-.082-.008a13.015 13.015 0 0 1-.506-.053c-1.517-.337-2.601-1.293-3.347-2.317a4.964 4.964 0 0 0-9.136 1.06 2.628 2.628 0 0 0 2.541 1.956h2.044a2.628 2.628 0 0 0 2.407-1.573 2.628 2.628 0 0 0 2.407 1.574h2.044c.651 0 1.248-.237 1.707-.63z" fill="#FFF1A2"/><path d="M37.443 24.85H17.27c-1.048 0-1.898.85-1.898 1.898v3.94c0 1.048.85 1.898 1.898 1.898h62.75c1.048 0 1.898-.85 1.898-1.898v-3.94c0-1.048-.85-1.898-1.898-1.898H59.854a13.128 13.128 0 0 1-11.206 6.277c-4.74 0-8.895-2.512-11.205-6.277zM18.874 83.818c0-.887.719-1.606 1.605-1.606h55.61c.887 0 1.606.72 1.606 1.606v5.546c0 .887-.719 1.606-1.605 1.606H20.48a1.605 1.605 0 0 1-1.606-1.606v-5.546z" fill="#F68B00"/><path fill-rule="evenodd" clip-rule="evenodd" d="M45.954 82.814a1.168 1.168 0 0 1 1.135-.894h3.561c.54 0 1.009.37 1.135.894l2.357 9.78a1.168 1.168 0 0 1-1.135 1.44h-8.274a1.168 1.168 0 0 1-1.136-1.44l2.357-9.78z" fill="#FFF1A2"/><path d="M36.788 23.644a11.232 11.232 0 0 1-2.56-2.117c-3.246-3.615-3.784-8.86-1.423-12.962.491-.853 1.404-.976 2.063-.243l2.576 2.807A13.128 13.128 0 0 1 48.65 4.854c7.255 0 13.136 5.882 13.136 13.137 0 7.255-5.881 13.136-13.136 13.136-5.231 0-9.748-3.058-11.861-7.483z" fill="#FFB100"/><path fill-rule="evenodd" clip-rule="evenodd" d="M48.811 56.799a3.064 3.064 0 0 0 3.065-3.064c0-1.692-3.065-5.694-3.065-5.694s-3.065 4.002-3.065 5.694a3.064 3.064 0 0 0 3.065 3.064z" fill="#FFB100"/><path d="M107.191 89.723c-8.952-.94-15.469-8.898-14.66-17.833l-1.172-.705c-.194.176-.392.347-.594.514.03.786.006 1.584-.079 2.39-.95 9.032-9.04 15.584-18.073 14.635a16.367 16.367 0 0 1-8.625-3.569 7.316 7.316 0 0 1-1.874-.383v-1.396a16.403 16.403 0 0 1-4.136-12.725 16.391 16.391 0 0 1 5.9-10.975 16.57 16.57 0 0 1 .079-2.39c.95-9.032 9.04-15.584 18.073-14.635 6.185.65 11.207 4.65 13.454 10.007a6.958 6.958 0 0 0 8.468 4.954l.073.05a16.393 16.393 0 0 1 6.603-.647c9.032.95 15.585 9.04 14.635 18.073a16.373 16.373 0 0 1-3.092 8.009v.979a7.313 7.313 0 0 1-.976.226c-3.403 3.817-8.531 5.996-14.004 5.421z" fill="#F68B00"/><path d="M62.115 91.934c0-.887.039-1.765.114-2.632a5.005 5.005 0 1 1-.114-9.957v5.426a7.345 7.345 0 0 0 9.75-6.942v-7.28c0-.246-.013-.489-.036-.729a29.92 29.92 0 0 1 20.315-7.915c8.002 0 15.274 3.13 20.657 8.234-.078.429-.119.87-.119 1.32v5.59a7.345 7.345 0 0 0 9.49 7.027v-4.741a5.005 5.005 0 1 1-.113 9.98c.075.863.113 1.736.113 2.619v12.493a9.345 9.345 0 0 1-9.346 9.345H71.461a9.345 9.345 0 0 1-9.346-9.345V91.934z" fill="#FFB100"/><path d="M78.623 81.364v-.315h12.258v.315c0 .738-.13 1.445-.369 2.1a3.775 3.775 0 0 0-2.094 2.812 6.13 6.13 0 0 1-9.795-4.913zM95.878 86.352a6.129 6.129 0 0 0 9.69-4.989v-.314H93.31v.314c0 .72.124 1.409.351 2.05a3.774 3.774 0 0 1 2.217 2.94z" fill="#FFF1A2"/><path d="M83.691 81.05v.304a2.752 2.752 0 0 0 5.504 0v-.305H83.69zM95.386 81.05v.304a2.752 2.752 0 1 0 5.504 0v-.305h-5.504zM95.773 63.419a3.12 3.12 0 0 0-1.51 6.054l9.46 2.359a3.12 3.12 0 1 0 1.51-6.055l-9.46-2.358zM79.626 70.116a3.12 3.12 0 0 0 .977 6.163l9.629-1.525a3.12 3.12 0 1 0-.976-6.163l-9.63 1.525zM88.376 87.051a8.021 8.021 0 0 0-4.242 1.078l-6.08 3.51a8.06 8.06 0 0 0 8.06 13.96l.388-.224c.093-.068.192-.134.297-.2 4.326-2.698 7.634-1.689 10.622 0 .126.072.238.149.337.232l.332.192a8.06 8.06 0 0 0 8.06-13.96l-6.079-3.51a8.023 8.023 0 0 0-4.164-1.08 3.77 3.77 0 0 1-7.53.002z" fill="#F68B00"/></svg>