<svg viewBox="0 0 135 124" fill="none" xmlns="http://www.w3.org/2000/svg"><g clip-path="url(#clip0)"><path d="M28 11h79c9.389 0 17 7.611 17 17v79c0 9.389-7.611 17-17 17H28c-9.389 0-17-7.611-17-17V28c0-9.389 7.611-17 17-17z" fill="#FFCA00"/><path d="M12.56 114.08L114.08 12.56A16.938 16.938 0 0 0 107 11H65.68L11 65.68V107c.003 2.445.535 4.86 1.56 7.08zm72.12-48.14l-58 58c.43 0 .87.07 1.31.07h48.59l33.08-33.09c6.904-6.904 6.904-18.096 0-25-6.903-6.904-18.096-6.904-25 0l.02.02z" fill="#FFD900"/><path d="M36.916 71.325C17.632 71.325 2 55.692 2 36.409 2 17.126 17.632 1.493 36.916 1.493c19.283 0 34.916 15.633 34.916 34.916 0 19.284-15.633 34.916-34.916 34.916z" fill="#FFF1A2"/><path d="M74.677 49.075c-5.45 0-9.867-4.418-9.867-9.867 0-5.45 4.418-9.868 9.867-9.868 5.45 0 9.868 4.418 9.868 9.868s-4.418 9.867-9.868 9.867z" fill="#FFF1A2"/><path d="M33.458 60.255L12.844 24.37l23.832-9.73 24.304 8.788L39.888 60.25a3.706 3.706 0 0 1-6.43.004z" fill="#FFD900"/><path d="M49.398 43.648L41.9 56.738a7.72 7.72 0 0 1 7.498-13.09zM25.49 46.383L18.807 34.75a7.72 7.72 0 1 1 6.683 11.633zM43.994 21.677a7.72 7.72 0 1 0 0 15.441 7.72 7.72 0 0 0 0-15.441z" fill="#FFB100"/><path d="M59.86 18.23a4.633 4.633 0 0 1-3.937 8.387c-6.343-2.978-12.71-4.44-19.14-4.412-6.393.027-12.728 1.628-19.053 4.838a4.632 4.632 0 1 1-4.193-8.262c7.583-3.849 15.335-5.808 23.206-5.841 7.833-.034 15.553 1.74 23.117 5.29z" fill="#F89700"/><path d="M31.643 50.2A2.356 2.356 0 0 1 34 52.556v13.386a2.356 2.356 0 1 1-4.712 0V52.556a2.356 2.356 0 0 1 2.356-2.356zM54.071 29.328a2.356 2.356 0 0 1 2.357 2.357V45.07a2.356 2.356 0 1 1-4.713 0V31.684a2.356 2.356 0 0 1 2.356-2.356z" fill="#FFD900"/><path d="M87.294 56.322c-2.757-6.325-9.332-10.472-16.58-9.82-9.062.816-15.745 8.823-14.93 17.884.036.396.086.787.148 1.173a18.44 18.44 0 0 0-4.87 14.242c.916 10.168 9.901 17.67 20.07 16.753 8.271-.745 14.777-6.83 16.424-14.547 2.955 5.847 9.263 9.602 16.185 8.978 9.061-.816 15.745-8.823 14.929-17.884-.816-9.06-8.823-15.745-17.884-14.928-1.81.163-3.524.612-5.103 1.3-4.68 1.228-7.403-1.364-8.389-3.151z" fill="#E27800"/><path d="M57.108 98.18c-1.474-16.368 10.6-30.833 26.969-32.307l.968-.087c16.368-1.474 30.832 10.6 32.306 26.969l1.073 11.905c.521 5.791-3.75 10.908-9.541 11.429l-39.273 3.537c-5.79.522-10.908-3.75-11.43-9.541L57.108 98.18z" fill="#FFB100"/><path d="M60.895 90.528a5.04 5.04 0 1 1-10.041.904 5.04 5.04 0 0 1 10.04-.904zM122.037 85.021a5.041 5.041 0 1 1-10.042.903 5.041 5.041 0 0 1 10.042-.903z" fill="#FFB100"/><path d="M72.404 82.409a5.861 5.861 0 0 1 5.312-6.364l.621-.056a5.861 5.861 0 0 1 6.364 5.312l.36 4.01a5.861 5.861 0 0 1-5.311 6.363l-.621.056a5.861 5.861 0 0 1-6.364-5.312l-.36-4.01zM99.483 79.97a5.861 5.861 0 0 0-6.364-5.312l-.62.056a5.861 5.861 0 0 0-5.313 6.364l.361 4.009a5.861 5.861 0 0 0 6.364 5.312l.62-.056a5.861 5.861 0 0 0 5.313-6.364l-.361-4.009z" fill="#FFF1A2"/><path d="M105.878 71.854C112 74 114.5 80.5 116.038 86.28a2.717 2.717 0 0 1-.67.147l-.927.083a7.214 7.214 0 0 1-7.832-6.537l-.731-8.12zM57.242 91.576C58 85.5 58.854 78.5 64.661 75.566l.731 8.12a7.214 7.214 0 0 1-6.538 7.831l-.926.084a2.714 2.714 0 0 1-.686-.025z" fill="#E27800"/><path fill-rule="evenodd" clip-rule="evenodd" d="M83.146 69.657a3.156 3.156 0 0 1-2.192 3.889l-8.844 2.468a3.156 3.156 0 1 1-1.697-6.08l8.845-2.468a3.156 3.156 0 0 1 3.888 2.191zM101.692 70.636a3.157 3.157 0 0 1-3.37 2.927l-9.16-.643a3.156 3.156 0 1 1 .442-6.297l9.16.644a3.157 3.157 0 0 1 2.928 3.369z" fill="#E27800"/><path d="M77.834 82.232a1.767 1.767 0 0 0 1.43-2.536 2.735 2.735 0 0 1 3.72 2.302l.32 3.54a2.735 2.735 0 0 1-5.447.49l-.319-3.54a2.802 2.802 0 0 1-.011-.255c.1.009.203.008.307 0zM89.294 81.2a1.767 1.767 0 0 0 1.43-2.536 2.735 2.735 0 0 1 3.72 2.302l.32 3.54a2.734 2.734 0 1 1-5.447.49l-.32-3.54a2.803 2.803 0 0 1-.01-.255c.1.009.203.008.307-.001z" fill="#E27800"/><path fill-rule="evenodd" clip-rule="evenodd" d="M94.589 53.577c-3.087 0-5.589-2.891-5.589-5.981A5.592 5.592 0 0 1 94.589 42a5.593 5.593 0 0 1 5.589 5.596c0 3.09-2.503 5.98-5.59 5.98z" fill="#FFF1A2"/><circle cx="83.229" cy="101.978" r="10" fill="#C46800"/><path d="M67.406 88.423A8.075 8.075 0 0 1 78.332 85.1l6.276 3.35c.508.27.975.588 1.399.944a8.11 8.11 0 0 1 1.673-.23l7.11-.239a8.075 8.075 0 0 1 .54 16.142l-7.11.237a8.208 8.208 0 0 1-.786-.011c-4.077-.095-8.038-1.43-10.117-2.437l-.12-.058a11.308 11.308 0 0 1-.548-.29l-5.92-3.16a8.075 8.075 0 0 1-3.323-10.925z" fill="#E27800"/><path d="M90.629 90.884a3.797 3.797 0 1 1-7.397-1.719 3.797 3.797 0 0 1 7.397 1.72z" fill="#FFB100"/><path d="M73.816 105.361a10.004 10.004 0 0 0 9.413 6.617h3.66a6.617 6.617 0 0 0-6.617-6.617h-6.456z" fill="#F89700"/><path d="M86.89 110.676v1.221a5.33 5.33 0 0 1-10.66 0v-4.044l10.66 2.823z" fill="#F89700"/></g><defs><clipPath id="clip0"><path fill="#fff" d="M0 0h135v124H0z"/></clipPath></defs></svg>