<svg viewBox="0 0 135 124" fill="none" xmlns="http://www.w3.org/2000/svg"><g clip-path="url(#clip0)"><path fill-rule="evenodd" clip-rule="evenodd" d="M28 11h79c9.389 0 17 7.611 17 17v79c0 9.389-7.611 17-17 17H28c-9.389 0-17-7.611-17-17V28c0-9.389 7.611-17 17-17z" fill="#E5E5E5"/><path fill-rule="evenodd" clip-rule="evenodd" d="M66.82 0c18.766 0 34.741 13.66 37.653 32.2l8.739 55.617a1.89 1.89 0 0 1-1.868 2.185H31.307a1.89 1.89 0 0 1-1.884-1.727l-2.229-25.638 3.395-30.245C32.659 13.946 48.257 0 66.819 0z" fill="#ABABAB"/><path fill-rule="evenodd" clip-rule="evenodd" d="M100.368 30.875h2.8a7.185 7.185 0 0 1 0 14.37h-2.8a7.185 7.185 0 1 1 0-14.37z" fill="#D4D4D4"/><path fill-rule="evenodd" clip-rule="evenodd" d="M71.006 5.673c15.862 0 29.194 11.912 30.974 27.674l2.884 25.545c.954 8.447-5.12 16.067-13.567 17.021-.573.065-1.15.097-1.727.097H50.815c-8.5 0-15.391-6.89-15.391-15.39 0-.733.052-1.464.156-2.188l3.618-25.192C41.469 17.42 55.023 5.673 71.006 5.673z" fill="#D4D4D4"/><path fill-rule="evenodd" clip-rule="evenodd" d="M88.884 32.726h-8.313a9.525 9.525 0 0 0-9.524 9.524v6.632a4.646 4.646 0 0 0 4.646 4.646h4.879a9.525 9.525 0 0 0 9.524-9.524V33.938c0-.67-.543-1.212-1.212-1.212z" fill="#fff"/><path fill-rule="evenodd" clip-rule="evenodd" d="M78.549 34.34a4.276 4.276 0 0 0-4.277 4.277v5.37a4.276 4.276 0 1 0 8.553 0v-5.37a4.276 4.276 0 0 0-4.276-4.276z" fill="#ABABAB"/><path fill-rule="evenodd" clip-rule="evenodd" d="M90.096 33.938c0-.67-.543-1.212-1.212-1.212h-8.313a9.525 9.525 0 0 0-9.524 9.524v1.788h19.05v-10.1z" fill="#BEBEBE"/><path fill-rule="evenodd" clip-rule="evenodd" d="M50.787 32.726H59.1a9.525 9.525 0 0 1 9.524 9.524v6.43a4.848 4.848 0 0 1-4.848 4.848H59.1a9.525 9.525 0 0 1-9.525-9.524V33.938c0-.67.543-1.212 1.212-1.212z" fill="#fff"/><path fill-rule="evenodd" clip-rule="evenodd" d="M61.124 34.34a4.276 4.276 0 0 1 4.276 4.277v5.37a4.276 4.276 0 0 1-8.552 0v-5.37a4.276 4.276 0 0 1 4.276-4.276z" fill="#ABABAB"/><path fill-rule="evenodd" clip-rule="evenodd" d="M49.575 33.938c0-.67.543-1.212 1.212-1.212H59.1a9.525 9.525 0 0 1 9.524 9.524v1.788H49.575v-10.1z" fill="#BEBEBE"/><path d="M75.817 65.269c2.477-4.775 5.008-6.517 7.593-5.226" stroke="#EE9583" stroke-width="2.496" stroke-linecap="round" stroke-linejoin="round"/><path fill-rule="evenodd" clip-rule="evenodd" d="M43.437 11.627l.417-.41 10.93-4.54a2.269 2.269 0 0 1 3.14 2.094v69.13a1.89 1.89 0 0 1-1.892 1.89H34.57a2.269 2.269 0 0 1-2.27-2.269V38.428a37.815 37.815 0 0 1 11.138-26.801z" fill="#ABABAB"/><path fill-rule="evenodd" clip-rule="evenodd" d="M29.43 56.77h80.66a3.27 3.27 0 0 1 3.27 3.27v59.95a3.27 3.27 0 0 1-3.27 3.27H29.43a3.27 3.27 0 0 1-3.27-3.27V60.04a3.27 3.27 0 0 1 3.27-3.27z" fill="#fff"/><path fill-rule="evenodd" clip-rule="evenodd" d="M23.98 64.4h7.63a2.18 2.18 0 1 1 0 4.36h-7.63a2.18 2.18 0 1 1 0-4.36zM23.98 75.3h7.63a2.18 2.18 0 1 1 0 4.36h-7.63a2.18 2.18 0 1 1 0-4.36zM23.98 86.2h5.45a2.18 2.18 0 1 1 0 4.36h-5.45a2.18 2.18 0 1 1 0-4.36zM23.98 97.1h5.45a2.18 2.18 0 1 1 0 4.36h-5.45a2.18 2.18 0 0 1 0-4.36z" fill="#D6D4D4"/><path fill-rule="evenodd" clip-rule="evenodd" d="M109.681 69.955a5.253 5.253 0 0 0-7.142-2.048l-1.295.718a5.254 5.254 0 0 0-8.087-6.696l-3.921 4.356a5.254 5.254 0 0 0-10.213 2.454l.985 4.63-.52.287a3.233 3.233 0 0 0-1.26 4.395l6.905 12.458a3.233 3.233 0 0 0 4.395 1.26l6.657-3.69a5.23 5.23 0 0 0 2.641.766l3.772.066a5.253 5.253 0 0 0 5.344-5.162 5.254 5.254 0 0 0-3.325-4.98l3.016-1.672a5.253 5.253 0 0 0 2.048-7.142z" fill="#D4D4D4"/><path fill-rule="evenodd" clip-rule="evenodd" d="M61.362 84.448a2.725 2.725 0 0 0-3.844.269l-10.727 12.34a2.725 2.725 0 1 0 4.114 3.575l10.726-12.34a2.725 2.725 0 0 0-.269-3.844zM51.879 75.914a2.725 2.725 0 0 0-3.844.268l-10.727 12.34a2.725 2.725 0 0 0 4.113 3.575l10.727-12.34a2.725 2.725 0 0 0-.269-3.843z" fill="#fff"/><path fill-rule="evenodd" clip-rule="evenodd" d="M39.461 73.608c2-2 5.213-2.05 7.274-.15l.17.165a5.256 5.256 0 0 1 9.83-3.542l2.716 5.57c.104.212.192.428.265.646l.197-.374a5.254 5.254 0 0 1 9.278 4.933l-2.377 4.472a3.233 3.233 0 0 1-.199 4.354L56.543 99.754a3.232 3.232 0 0 1-4.572 0l-5.084-5.084a5.23 5.23 0 0 1-2.511-.052l-3.644-.976a5.254 5.254 0 0 1 1.016-10.319l-2.287-2.285a5.254 5.254 0 0 1 0-7.43z" fill="#D4D4D4"/><path fill-rule="evenodd" clip-rule="evenodd" d="M69.634 59.884c2.12 0 3.838-1.709 3.838-3.816 0-.686-.407-1.677-.956-2.702l-.243-.44-.255-.44-.264-.435-.401-.631-.394-.593-.485-.702-.49-.682-.35-.467-.434.583-.406.566-.359.516-.387.576-.266.41-.267.424-.264.434-.13.22-.25.44-.235.44c-.49.946-.84 1.846-.84 2.483 0 2.107 1.718 3.816 3.838 3.816z" fill="#ACACAC"/><path fill-rule="evenodd" clip-rule="evenodd" d="M66.82 0c18.316 0 33.973 13.013 37.422 30.874h-24.56c-12.531 0-22.69-10.158-22.69-22.689V1.343A36.456 36.456 0 0 1 66.82 0zM79.855 73.092l18.798 24.27a3.27 3.27 0 0 1-.866 4.784l-.16.093-3.237 1.753 20.932 15.854c.473.358.907.75 1.302 1.17A16.916 16.916 0 0 1 107 124H28c-.117 0-.233-.001-.35-.003a12.818 12.818 0 0 1-2.196-3.129 10.39 10.39 0 0 1 3.23-13.075l.236-.165 50.935-34.536z" fill="#ABABAB"/></g><defs><clipPath id="clip0"><path fill="#fff" d="M0 0h135v124H0z"/></clipPath></defs></svg>