<svg viewBox="0 0 135 124" fill="none" xmlns="http://www.w3.org/2000/svg"><g clip-path="url(#clip0)"><path d="M11 28c0-9.389 7.611-17 17-17h79c9.389 0 17 7.611 17 17v79c0 9.389-7.611 17-17 17H28c-9.389 0-17-7.611-17-17V28z" fill="#FFCA00"/><path d="M122.44 20.93L20.92 122.45a16.937 16.937 0 0 0 7.08 1.56h41.32L124 69.33V28.01a16.938 16.938 0 0 0-1.56-7.08zM50.32 69.07l58-58c-.43 0-.87-.07-1.31-.07H58.42L25.34 44.09c-6.904 6.904-6.904 18.096 0 25 6.903 6.904 18.096 6.904 25 0l-.02-.02z" fill="#FFD900"/><path d="M3.633 28.058c-1.497-9.63 5.096-18.65 14.725-20.146l10.095-1.57c9.63-1.496 18.649 5.096 20.146 14.726l.061.396c1.497 9.63-5.096 18.649-14.725 20.146L23.84 43.179c-9.63 1.497-18.649-5.096-20.146-14.726l-.061-.395z" fill="#E27903"/><path d="M7.478 50.301a5.28 5.28 0 0 0 1.713-.577c2.45 7.831 10.323 12.904 18.677 11.606l26.036-4.048c8.381-1.302 14.355-8.57 14.273-16.808a5.29 5.29 0 1 0-1.754-9.53c-2.87-7.094-10.33-11.548-18.217-10.322L22.169 24.67c-7.856 1.22-13.597 7.682-14.217 15.272a5.29 5.29 0 1 0-.473 10.36z" fill="#FFB100"/><path fill-rule="evenodd" clip-rule="evenodd" d="M47.55 53.024c-.938.885-1.274 1.98-1.308 2.659a1.078 1.078 0 0 1-2.154-.108c.059-1.172.597-2.811 1.981-4.119 1.412-1.335 3.603-2.229 6.785-2.058a1.078 1.078 0 1 1-.115 2.153c-2.701-.145-4.28.613-5.189 1.473z" fill="#F68B00"/><path d="M65.057 28.28l-8.776 1.365a6.274 6.274 0 0 1-7.163-5.236l-.596-3.833c6.731-.919 13.109 2.283 16.535 7.705z" fill="#FF9600"/><path d="M10.623 50.2a2.55 2.55 0 1 1-5.039.782 2.55 2.55 0 0 1 5.039-.782z" fill="#E27903"/><path d="M38.262 41.4c.118-.018 1.417 1.474 2.747 3.044 1.324 1.563.414 3.958-1.61 4.273-2.024.314-3.618-1.692-2.83-3.583.79-1.9 1.575-3.715 1.693-3.734z" fill="#FF9600"/><path d="M38.072 33.29a5.882 5.882 0 0 1 4.909-6.715l.216-.033a5.882 5.882 0 0 1 6.715 4.908l.935 6.01a5.882 5.882 0 0 1-4.909 6.715l-.216.034a5.882 5.882 0 0 1-6.715-4.909l-.935-6.01zm-2.182.34a5.882 5.882 0 0 0-6.716-4.909l-.216.034a5.882 5.882 0 0 0-4.909 6.715l.934 6.01a5.882 5.882 0 0 0 6.717 4.91l.216-.034a5.882 5.882 0 0 0 4.909-6.715l-.935-6.01z" fill="#FFF1A2"/><path d="M39.167 36.462a2.698 2.698 0 0 1 5.333-.83l.406 2.61a2.698 2.698 0 0 1-5.333.829l-.406-2.61zm-8.271 1.285a2.698 2.698 0 1 0-5.332.83l.405 2.608a2.698 2.698 0 0 0 5.333-.829l-.405-2.609z" fill="#E27903"/><path d="M50.85 37.478l-11.84 1.84c-.002-.005-.002-.011-.003-.018l-.935-6.01a5.882 5.882 0 0 1 4.909-6.715l.216-.033a5.882 5.882 0 0 1 6.715 4.908l.935 6.01.002.018zm-25.864 4.02l11.84-1.84-.002-.018-.935-6.01a5.882 5.882 0 0 0-6.715-4.909l-.216.034a5.882 5.882 0 0 0-4.909 6.715l.934 6.01.003.018z" fill="#FF9600"/><path d="M3.871 29.59c-1.13-7.276 3.85-14.091 11.126-15.222l.985-.153c7.275-1.13 14.09 3.85 15.221 11.126l.153.985c1.131 7.275-3.85 14.09-11.126 15.22l-.984.154c-7.276 1.13-14.09-3.85-15.222-11.126l-.153-.985zm76.558 27.861l33.836 4.963-3.037 20.702-33.836-4.963z" fill="#E27903"/><path d="M86.658 74.263c-4.88 3.455-11.635 2.3-15.09-2.578l-2.997-4.232c-3.455-4.879-2.3-11.635 2.578-15.09l4.732-3.351c4.88-3.455 11.635-2.3 15.09 2.578l2.997 4.232c3.455 4.88 2.3 11.635-2.578 15.09l-4.732 3.351zm20.15 2.799c3.681 4.71 10.484 5.545 15.195 1.863l4.086-3.193c4.71-3.681 5.545-10.484 1.863-15.194l-3.57-4.57c-3.682-4.71-10.484-5.544-15.195-1.863l-4.086 3.193c-4.71 3.681-5.545 10.484-1.864 15.195l3.571 4.569z" fill="#E27903"/><path d="M85.44 49.403c.868-5.915 6.367-10.007 12.282-9.139l7.74 1.135c5.915.868 10.007 6.366 9.139 12.282l-.939 6.405c-.868 5.915-6.366 10.006-12.281 9.139l-7.74-1.136c-5.916-.867-10.008-6.366-9.14-12.28l.94-6.406z" fill="#E27903"/><path d="M109.627 80.353a8.293 8.293 0 0 1 7.001 9.407l-3.009 20.511c-.781 5.324-5.73 9.007-11.054 8.226l-23.793-3.49c-5.324-.78-9.007-5.73-8.226-11.054l3.009-20.51a8.292 8.292 0 0 1 9.407-7.001l26.665 3.91z" fill="#F79B24"/><rect x="82.487" y="85.998" width="11.085" height="14.538" rx="5.543" transform="rotate(8.344 82.487 85.998)" fill="#FFF1A2"/><rect x="96.56" y="88.063" width="11.085" height="14.538" rx="5.543" transform="rotate(8.344 96.56 88.063)" fill="#FFF1A2"/><path d="M85.626 92.245a2.453 2.453 0 1 1 4.855.712l-.449 3.056a2.453 2.453 0 0 1-4.855-.712l.449-3.056zm12.247 1.795a2.453 2.453 0 1 1 4.855.713l-.449 3.057a2.452 2.452 0 1 1-4.854-.712l.448-3.057z" fill="#E27903"/><path d="M95.46 74.976a8.387 8.387 0 0 1 10.083-6.245l-.541 2.303a8.387 8.387 0 0 1-10.083 6.245l.541-2.303z" fill="#FDB02A"/><path d="M90.13 68.77a8.387 8.387 0 0 0 7.865 8.877l.143-2.362a8.387 8.387 0 0 0-7.866-8.877l-.142 2.361z" fill="#FDB02A"/><path d="M72.394 72.796l25.023 3.67-.36 2.453-24.284 8.599-.379-14.722z" fill="#FDB02A"/><path d="M120.595 79.865l-25.023-3.67-.36 2.453 20.793 15.21 4.59-13.993z" fill="#FDB02A"/><circle cx="115.12" cy="98.397" r="4.944" transform="rotate(8.344 115.12 98.397)" fill="#F79B24"/><circle cx="72.162" cy="92.3" r="4.944" transform="rotate(8.344 72.162 92.3)" fill="#F79B24"/><path d="M81.42 85.078l27.269 3.999-.756 5.153-13.849-.537-13.634-2 .97-6.615z" fill="#F79B24"/><path fill-rule="evenodd" clip-rule="evenodd" d="M82.357 85.186c5.096-1.534 9.65.5 11.353 1.752a1.022 1.022 0 0 1-1.211 1.646c-1.347-.99-5.242-2.738-9.553-1.44a1.022 1.022 0 1 1-.59-1.958z" fill="#E27903"/><ellipse cx="84.699" cy="98.511" rx="11.785" ry="4.326" transform="rotate(8.344 84.7 98.51)" fill="#F79B24"/><ellipse cx="101.558" cy="100.983" rx="11.785" ry="4.326" transform="rotate(8.344 101.558 100.983)" fill="#F79B24"/><path d="M91.456 99.185a1.813 1.813 0 0 0 3.586.526c.145-.99-1.236-3.54-1.311-3.55-.075-.011-2.13 2.034-2.275 3.024z" fill="#E27903"/><path d="M90.516 99.553a1.866 1.866 0 0 1 2.116-1.575l1.641.24a1.866 1.866 0 1 1-.541 3.692l-1.641-.24a1.867 1.867 0 0 1-1.575-2.117z" fill="#E27903"/><path fill-rule="evenodd" clip-rule="evenodd" d="M97.608 94.476a3.61 3.61 0 0 1-3.458-3.21c-.055-.506.426-.86.93-.786.504.074.83.567 1.018 1.04.25.626.85 1.086 1.577 1.112l9.64.348a.922.922 0 1 1-.066 1.843l-9.64-.347z" fill="#E27903"/><path d="M102.409 106.819c.868.963.039 2.301-1.257 2.335l-9.492.248c-1.296.034-2.194-1.258-1.377-2.265a7.957 7.957 0 0 1 5.99-2.954 7.958 7.958 0 0 1 6.136 2.636z" fill="#E27903"/><path d="M90.974 106.386a7.948 7.948 0 0 1 5.298-2.203 7.958 7.958 0 0 1 6.137 2.636l.037.043-11.472-.476z" fill="#FFF1A2"/><path d="M35.246 67.081c.728-3.388 4.396-5.24 7.555-3.816l3.66 1.65a37.177 37.177 0 0 0 13.037 3.218l4.007.242c3.458.209 5.843 3.555 4.912 6.893l-5.21 18.673a12.094 12.094 0 0 1-4.277 6.338c-9.027 6.94-22.162 3.698-26.923-6.645a12.094 12.094 0 0 1-.838-7.6l4.077-18.953z" fill="#F79B24"/><path d="M48.994 82.672c-4.983-1.23-10.014 1.356-12.015 5.896-.404.917.204 1.91 1.176 2.15l16.69 4.119c.971.24 1.972-.356 2.041-1.356.341-4.95-2.91-9.579-7.892-10.809zm-3.461-3.404a5.088 5.088 0 0 0 3.66-4.505c.074-.999-.968-1.568-1.93-1.29l-6.288 1.819c-.962.278-1.539 1.317-.942 2.121a5.088 5.088 0 0 0 5.5 1.855zm8.111 2.002a5.088 5.088 0 0 0 5.731.917c.903-.434.875-1.622.153-2.316l-4.72-4.536c-.721-.694-1.91-.674-2.307.245a5.088 5.088 0 0 0 1.143 5.69z" fill="#E27903"/><path d="M3.714 88.988C2.717 85.67 5.034 82.278 8.49 82l4.001-.321a37.18 37.18 0 0 0 12.97-3.476l3.627-1.722c3.13-1.486 6.834.293 7.63 3.665l4.452 18.868c.6 2.546.36 5.219-.687 7.616-4.556 10.436-17.624 13.937-26.787 7.178a12.095 12.095 0 0 1-4.402-6.252l-5.58-18.568z" fill="#FDB02A"/><path d="M26.488 107.962c4.957-1.328 8.115-6.021 7.676-10.963-.089-.998-1.101-1.574-2.069-1.315l-16.603 4.449c-.968.259-1.556 1.264-1.134 2.173 2.09 4.5 7.172 6.985 12.13 5.656zM14.024 90.713a5.213 5.213 0 0 0-1.921 5.568c.248.905 1.389.9 1.91.12l.204-.305a9.348 9.348 0 0 1 5.352-3.833c.837-.225 1.165-1.227.442-1.707a5.213 5.213 0 0 0-5.986.157zm14.629-3.92a5.213 5.213 0 0 1 4.448 3.861c.237.908-.753 1.475-1.595 1.06l-.329-.162a9.348 9.348 0 0 0-6.551-.645c-.838.225-1.622-.48-1.236-1.256a5.213 5.213 0 0 1 5.263-2.858z" fill="#E27903"/><path fill-rule="evenodd" clip-rule="evenodd" d="M84.999 7.91a1.361 1.361 0 0 0-1.699.943l-1.032 3.699c-.251.9.311 1.82 1.029 2.424a4.129 4.129 0 0 1 1.322 4.26 3.998 3.998 0 0 1-3.32 2.899c-.92.124-1.873.6-2.124 1.5l-1.032 3.698a1.405 1.405 0 0 0 .955 1.721l37.996 11.142a1.361 1.361 0 0 0 1.699-.943l1.032-3.699c.251-.9-.311-1.82-1.029-2.424a4.128 4.128 0 0 1-1.322-4.26 3.997 3.997 0 0 1 3.32-2.899c.921-.124 1.873-.6 2.124-1.5l1.032-3.698a1.405 1.405 0 0 0-.955-1.721L84.999 7.91z" fill="#FF9600"/><path fill-rule="evenodd" clip-rule="evenodd" d="M95.42 1.796a1.362 1.362 0 0 0-1.786.769l-1.387 3.572c-.337.87.135 1.839.792 2.51a4.117 4.117 0 0 1 .906 4.363 3.993 3.993 0 0 1-3.59 2.552c-.931.032-1.926.411-2.263 1.28l-1.388 3.573c-.275.71.077 1.518.786 1.804l36.804 14.818a1.362 1.362 0 0 0 1.784-.769l1.387-3.572c.338-.87-.134-1.839-.791-2.51a4.116 4.116 0 0 1-.906-4.363 3.992 3.992 0 0 1 3.59-2.552c.931-.032 1.926-.411 2.263-1.28l1.387-3.573a1.404 1.404 0 0 0-.786-1.804L95.419 1.796z" fill="#FFCA00"/></g><defs><clipPath id="clip0"><path fill="#fff" d="M0 0h135v124H0z"/></clipPath></defs></svg>