<svg viewBox="0 0 136 124" fill="none" xmlns="http://www.w3.org/2000/svg"><path d="M12.055 28c0-9.389 7.61-17 17-17h79c9.389 0 17 7.611 17 17v79c0 9.389-7.611 17-17 17h-79c-9.39 0-17-7.611-17-17V28z" fill="#FEC701"/><path fill-rule="evenodd" clip-rule="evenodd" d="M65.81 27.379c8.201 8.2 8.201 21.497 0 29.698l-53.406 53.407a17.078 17.078 0 0 1-.348-3.442l-.001-55.607 24.057-24.056c8.2-8.201 21.497-8.201 29.698 0zm59.245 1.056V63.79l-8.995 8.997c-4.882 4.882-12.796 4.882-17.678 0-4.881-4.881-4.881-12.796 0-17.678l26.673-26.673z" fill="#FFD900"/><path d="M57.666 13.87C54.342 6.583 46.628 1.895 38.225 2.794 27.72 3.917 20.117 13.343 21.24 23.846c.05.459.114.912.194 1.358-3.925 4.372-6.051 10.328-5.377 16.63 1.26 11.788 11.839 20.322 23.626 19.06 9.589-1.025 17.025-8.216 18.786-17.209 3.545 6.732 10.94 10.968 18.966 10.11 10.504-1.123 18.108-10.55 16.984-21.053-1.123-10.504-10.55-18.108-21.053-16.985a19.11 19.11 0 0 0-5.899 1.61c-5.41 1.516-8.622-1.44-9.801-3.496z" fill="#E47900"/><path fill-rule="evenodd" clip-rule="evenodd" d="M23.461 55.385a34.668 34.668 0 0 0-.028 7.67l1.896 17.722a8.281 8.281 0 0 0 9.115 7.353l53.367-5.708a8.281 8.281 0 0 0 7.354-9.115l-1.896-17.722C91.24 36.61 74.212 22.873 55.237 24.903l-1.121.12a34.43 34.43 0 0 0-22.354 11.632l1.006 9.411a8.376 8.376 0 0 1-7.438 9.22l-1.074.115c-.27.029-.537.022-.795-.016zm68.157-7.29a34.517 34.517 0 0 0-12.076-16.552l1.007 9.412a8.377 8.377 0 0 0 9.22 7.438l1.074-.114a3.2 3.2 0 0 0 .775-.184z" fill="#FFB100"/><path d="M27.682 54.096a5.853 5.853 0 1 1-11.64 1.245 5.853 5.853 0 0 1 11.64-1.245zm70.877-7.581a5.853 5.853 0 1 1-11.64 1.245 5.853 5.853 0 0 1 11.64-1.245z" fill="#FFB100"/><path d="M40.884 44.447a6.806 6.806 0 0 1 6.044-7.49l.72-.078a6.806 6.806 0 0 1 7.49 6.044l.497 4.648a6.806 6.806 0 0 1-6.043 7.49l-.72.078a6.806 6.806 0 0 1-7.49-6.044l-.498-4.648z" fill="#FFF1A2"/><path d="M46.85 44.44a3.175 3.175 0 0 1 6.314-.676l.439 4.104a3.175 3.175 0 0 1-6.315.675l-.439-4.103z" fill="#E47900"/><path d="M72.277 41.09a6.806 6.806 0 0 0-7.492-6.044l-.72.077a6.806 6.806 0 0 0-6.043 7.492l.498 4.647a6.806 6.806 0 0 0 7.49 6.044l.72-.077a6.806 6.806 0 0 0 6.044-7.491l-.497-4.648z" fill="#FFF1A2"/><path d="M66.445 42.343a3.175 3.175 0 1 0-6.314.676l.439 4.104a3.175 3.175 0 1 0 6.314-.676l-.439-4.104z" fill="#E47900"/><path d="M74.022 40.662l-16.546-.863.973-8.133 15.621.83-.048 8.166z" fill="#DA8E74"/><path d="M35.912 33.77l39.042-4.176 1.422 13.288-39.043 4.176-1.42-13.288z" fill="#FFB100"/><path fill-rule="evenodd" clip-rule="evenodd" d="M54.659 32.315a3.665 3.665 0 0 1-2.498 4.54l-10.24 2.973a3.665 3.665 0 0 1-2.043-7.04l10.24-2.971a3.665 3.665 0 0 1 4.541 2.498zM74.44 42.343a3.665 3.665 0 0 1-3.66 3.67l-10.662.018a3.665 3.665 0 0 1-.012-7.33l10.663-.017a3.665 3.665 0 0 1 3.67 3.66z" fill="#E47900"/><path fill-rule="evenodd" clip-rule="evenodd" d="M45.49 66.496a6.806 6.806 0 0 0-12.108 6.219c2.433 4.846 9.163 9.444 19.006 8.391a6.806 6.806 0 0 0-1.447-13.535c-4.168.446-5.448-1.163-5.48-1.138-.003.002.007.022.028.063z" fill="#FFF1A2"/><path d="M53.087 60.932a9.376 9.376 0 0 1 11.872-5.905l7.831 2.628a9.376 9.376 0 0 1-5.967 17.778l-7.83-2.628a9.376 9.376 0 0 1-5.906-11.873z" fill="#E47900"/><path d="M36.51 64.728a9.376 9.376 0 0 1 8.353-10.299l8.215-.856a9.377 9.377 0 0 1 1.945 18.652l-8.215.856a9.376 9.376 0 0 1-10.298-8.353z" fill="#E47900"/><path d="M62.164 53.517a4.409 4.409 0 1 1-8.767.938 4.409 4.409 0 0 1 8.767-.938z" fill="#FFB100"/><path fill-rule="evenodd" clip-rule="evenodd" d="M110.46 56.227a8.29 8.29 0 0 0-8.603 7.55l-1.684 18.947 10.862 1.285a4.396 4.396 0 0 0 4.882-3.849l.007-.063 1.624-15.674a7.437 7.437 0 0 0-7.088-8.196z" fill="#F49000"/><path fill-rule="evenodd" clip-rule="evenodd" d="M99.995 50.88a1.88 1.88 0 0 1 1.879 1.88v1.669a1.88 1.88 0 1 1-3.759 0v-1.67a1.88 1.88 0 0 1 1.88-1.88zm4.955 4.655c1.227 0 2.221.995 2.221 2.222v1.89a2.221 2.221 0 1 1-4.442 0v-1.89a2.22 2.22 0 0 1 2.221-2.221z" fill="#FFF1A2"/><path fill-rule="evenodd" clip-rule="evenodd" d="M95.808 57.805h1.54a8.648 8.648 0 0 1 8.481 6.95l3.735 18.647h-4.956a12.332 12.332 0 0 1-11.698-8.428l-2.999-8.984a6.217 6.217 0 0 1 5.897-8.185z" fill="#FFF1A2"/><path d="M90.616 124h-3.478c-1.05-5.783-2.736-10.542-5.03-14.306l2.925-1.783c2.633 4.319 4.483 9.693 5.583 16.089zm6.294 0h-3.422v-21.229a1.711 1.711 0 0 1 3.423 0V124zm9.91 0h-6.453a15.395 15.395 0 0 1-1.562-3.236c-.877-2.547-1.07-5.331-.576-8.35a.623.623 0 0 1 1.038-.357c1.858 1.716 3.248 3.593 4.17 5.632V83.761a1.711 1.711 0 1 1 3.423 0v39.869c0 .127-.014.251-.04.37zm9.524-2.421a16.914 16.914 0 0 1-7.803 2.395c-.335-15.237 1.851-26.997 6.774-35.074l2.925 1.784c-3.953 6.485-6.102 15.923-6.293 28.461.804-.869 1.838-1.566 3.082-2.1l.344-.147.069.044a1.325 1.325 0 0 1 1.432 1.301c.017 1.217-.156 2.332-.53 3.336z" fill="#F68B00"/><path fill-rule="evenodd" clip-rule="evenodd" d="M89.89 74.237a8.29 8.29 0 0 1 8.603 7.55l1.683 18.947-10.862 1.285a4.396 4.396 0 0 1-4.888-3.912l-1.624-15.673a7.437 7.437 0 0 1 7.088-8.197z" fill="#FFF1A2"/><path fill-rule="evenodd" clip-rule="evenodd" d="M100.355 69.89a1.88 1.88 0 0 0-1.88 1.88v1.669a1.88 1.88 0 0 0 3.759 0v-1.67a1.88 1.88 0 0 0-1.879-1.879zM95.4 74.546a2.221 2.221 0 0 0-2.222 2.221v1.89a2.221 2.221 0 0 0 4.443 0v-1.89a2.221 2.221 0 0 0-2.221-2.221z" fill="#FFB100"/><path fill-rule="evenodd" clip-rule="evenodd" d="M104.541 76.815h-1.54a8.65 8.65 0 0 0-8.48 6.951l-3.735 18.646h4.956a12.333 12.333 0 0 0 11.698-8.427L110.438 85a6.217 6.217 0 0 0-5.897-8.185z" fill="#FFB100"/><path d="M68.847 101.272a6.38 6.38 0 1 1 11.83-4.78l1.982 4.907a6.38 6.38 0 1 1-11.83 4.779l-1.982-4.906z" fill="#F68B00"/><path fill-rule="evenodd" clip-rule="evenodd" d="M77.986 87.007a2.256 2.256 0 0 0-2.256 2.255v2.024a2.256 2.256 0 0 0 4.512 0v-2.023a2.256 2.256 0 0 0-2.256-2.257zm-4.315 7.659a1.79 1.79 0 0 0-1.789 1.789v1.4a1.79 1.79 0 0 0 3.579 0v-1.4a1.79 1.79 0 0 0-1.79-1.79z" fill="#FFF1A2"/><path fill-rule="evenodd" clip-rule="evenodd" d="M81.517 89.44l-.63.255a6.695 6.695 0 0 0-4.187 6.12l-.132 9.953a6.465 6.465 0 0 0 8.888 6.081c4.98-2.012 7.385-7.68 5.373-12.66l-2.826-6.995a4.983 4.983 0 0 0-6.486-2.753z" fill="#FFB100"/><path fill-rule="evenodd" clip-rule="evenodd" d="M74.024 98.51l-2.81 1.135a3.27 3.27 0 0 0-1.808 4.257l1.312 3.246c2.044 5.059 7.802 7.503 12.86 5.459l2.526-1.02-3.876-9.595a6.302 6.302 0 0 0-8.204-3.482z" fill="#FFB100"/><path d="M131.501 82.262a6.38 6.38 0 0 0-11.83-4.78l-1.982 4.906a6.38 6.38 0 1 0 11.83 4.78l1.982-4.906z" fill="#FFB100"/><path fill-rule="evenodd" clip-rule="evenodd" d="M122.362 67.996a2.256 2.256 0 0 1 2.256 2.256v2.023a2.256 2.256 0 1 1-4.513 0l.001-2.023a2.256 2.256 0 0 1 2.256-2.256zm4.314 7.659c.988 0 1.79.802 1.79 1.79v1.4a1.79 1.79 0 1 1-3.579 0v-1.4c0-.988.801-1.79 1.789-1.79z" fill="#FFF1A2"/><path fill-rule="evenodd" clip-rule="evenodd" d="M118.833 70.43l.63.255a6.694 6.694 0 0 1 4.186 6.12l.133 9.953a6.466 6.466 0 0 1-8.888 6.08c-4.98-2.011-7.386-7.68-5.374-12.659l2.826-6.995a4.983 4.983 0 0 1 6.487-2.753z" fill="#FFB100"/><path fill-rule="evenodd" clip-rule="evenodd" d="M126.323 79.5l2.812 1.135a3.27 3.27 0 0 1 1.806 4.257l-1.311 3.246c-2.044 5.059-7.802 7.503-12.861 5.459l-2.526-1.02 3.877-9.595a6.301 6.301 0 0 1 8.203-3.483z" fill="#FFF1A2"/></svg>