<svg viewBox="0 0 135 124" fill="none" xmlns="http://www.w3.org/2000/svg"><path d="M11 28c0-9.389 7.611-17 17-17h79c9.389 0 17 7.611 17 17v79c0 9.389-7.611 17-17 17H28c-9.389 0-17-7.611-17-17V28z" fill="#9069CD"/><path d="M87.54 77.982c-11.386-1.197-19.675-11.318-18.646-22.684l-1.492-.897a20.865 20.865 0 0 1-16.24 5.31c-11.489-1.208-19.824-11.5-18.616-22.99 1.208-11.49 11.5-19.824 22.99-18.616 7.866.826 14.254 5.913 17.113 12.726a8.85 8.85 0 0 0 10.772 6.305l.093.064a20.85 20.85 0 0 1 8.4-.824c11.489 1.208 19.824 11.5 18.616 22.99-1.207 11.489-11.5 19.824-22.99 18.616z" fill="#3D3D3D"/><path d="M66.546 59.367c-1.207 11.49-11.5 19.824-22.989 18.617-11.49-1.208-19.824-11.5-18.617-22.99 1.208-11.489 11.5-19.824 22.99-18.616 11.49 1.207 19.824 11.5 18.616 22.99z" fill="#3D3D3D"/><path d="M35.988 73.386a6.366 6.366 0 1 1-12.732 0 6.366 6.366 0 0 1 12.732 0zM113.379 73.386a6.366 6.366 0 1 1-12.732 0 6.366 6.366 0 0 1 12.732 0z" fill="#DA8E74"/><path fill-rule="evenodd" clip-rule="evenodd" d="M30.203 83.72c0-21.095 17.102-38.197 38.197-38.197 21.096 0 38.198 17.102 38.198 38.198V99.5c0 6.627-5.373 12-12 12H42.203c-6.627 0-12-5.373-12-12V83.72z" fill="#DA8E74"/><path d="M30.203 74.61V47.69a9.33 9.33 0 0 1 3.06-.513 9.343 9.343 0 0 1 9.343 9.342v9.26a9.343 9.343 0 0 1-12.403 8.83zM106.598 48.739v24.986a9.347 9.347 0 0 1-2.729.405 9.343 9.343 0 0 1-9.342-9.343v-7.11a9.343 9.343 0 0 1 9.342-9.343c.949 0 1.866.142 2.729.405z" fill="#3D3D3D"/><path d="M68.732 95.637c14.397 0 26.068-11.67 26.068-26.068H42.664c0 14.397 11.671 26.068 26.068 26.068z" fill="#B37A66"/><path fill-rule="evenodd" clip-rule="evenodd" d="M51.203 68.178a7.797 7.797 0 0 1 15.593 0v4.743a7.796 7.796 0 1 1-15.593 0v-4.743z" fill="#fff"/><path fill-rule="evenodd" clip-rule="evenodd" d="M57.652 68.512a3.5 3.5 0 0 1 7 0v4.396a3.5 3.5 0 0 1-7 0v-4.396z" fill="#3D3D3D"/><path fill-rule="evenodd" clip-rule="evenodd" d="M85.477 68.177a7.797 7.797 0 0 0-15.594 0v4.743a7.797 7.797 0 1 0 15.594 0v-4.743z" fill="#fff"/><path fill-rule="evenodd" clip-rule="evenodd" d="M79.527 68.512a3.5 3.5 0 0 0-7 0v4.396a3.5 3.5 0 0 0 7 0v-4.396z" fill="#3D3D3D"/><path d="M72.286 102.467a2.85 2.85 0 0 0-.392-.364c-3.456-2.667-7.439-4.536-13.374-1.921a6.234 6.234 0 0 0-.415.2l-.524.21c-5.257 2.104-11.224-.45-13.329-5.707-2.105-5.256.45-11.223 5.706-13.328l8.29-3.32a10.247 10.247 0 0 1 10.04 1.374 10.247 10.247 0 0 1 10.023 1.51l7.02 5.519c4.45 3.5 5.221 9.945 1.722 14.396-3.5 4.451-9.945 5.222-14.396 1.722l-.37-.291z" fill="#3D3D3D"/><path d="M73.194 79.541a4.795 4.795 0 1 1-9.59 0 4.795 4.795 0 0 1 9.59 0z" fill="#DA8E74"/><path fill-rule="evenodd" clip-rule="evenodd" d="M48.723 60.217h43.323v11.74H48.723v-11.74z" fill="#DA8E74"/><path fill-rule="evenodd" clip-rule="evenodd" d="M40.229 67.628a4.5 4.5 0 0 1 4.997-3.941l23.405 2.765 24.109-2.767a4.5 4.5 0 1 1 1.026 8.941l-24.63 2.827c-.345.04-.695.04-1.04-.002L44.17 72.625a4.5 4.5 0 0 1-3.941-4.997z" fill="#3D3D3D"/><path d="M53.625 56.112l3.302 5.72c1.467 2.54-.367 5.718-3.302 5.718s-4.77-3.177-3.302-5.719l3.302-5.719z" fill="#84D8FF"/><path d="M111.545 63.46a7.875 7.875 0 0 0 3.327-9.862c-.214-.509-.832-.672-1.31-.395l-11.908 6.875c-.479.276-.647.893-.313 1.332a7.876 7.876 0 0 0 10.204 2.05zM27.375 44.409a7.876 7.876 0 0 0 10.34-1.188c.37-.41.253-1.039-.2-1.354l-11.29-7.848c-.454-.316-1.084-.206-1.34.284a7.876 7.876 0 0 0 2.49 10.106zM82.25 33.067a7.876 7.876 0 0 0 4.359 9.45c.505.224 1.066-.083 1.224-.612l3.927-13.178c.157-.529-.144-1.093-.69-1.183a7.876 7.876 0 0 0-8.82 5.523z" fill="#3D3D3D"/><path fill-rule="evenodd" clip-rule="evenodd" d="M57.5 60.125a1 1 0 0 1 1-1h20.375a1 1 0 1 1 0 2H58.5a1 1 0 0 1-1-1zM57.5 55.25a1 1 0 0 1 1-1h20.375a1 1 0 1 1 0 2H58.5a1 1 0 0 1-1-1z" fill="#B37A66"/></svg>