<svg viewBox="0 0 135 124" fill="none" xmlns="http://www.w3.org/2000/svg"><path d="M11 28c0-9.389 7.611-17 17-17h79c9.389 0 17 7.611 17 17v79c0 9.389-7.611 17-17 17H28c-9.389 0-17-7.611-17-17V28z" fill="#E5E5E5"/><path fill-rule="evenodd" clip-rule="evenodd" d="M8.398 32.157C10.214 15.982 23.894 3.75 40.172 3.75c15.743 0 29.143 11.46 31.586 27.01l7.593 48.33a1.622 1.622 0 0 1-1.602 1.874H4.736c-.968 0-1.72-.842-1.612-1.803l5.274-47.004z" fill="#BFBFBF"/><path fill-rule="evenodd" clip-rule="evenodd" d="M62.168 36.401a6.164 6.164 0 0 1 6.164-6.164h2.403a6.164 6.164 0 0 1 0 12.329h-2.403a6.164 6.164 0 0 1-6.164-6.165z" fill="#D1D1D1"/><path fill-rule="evenodd" clip-rule="evenodd" d="M15.902 31.906c1.919-13.366 13.37-23.29 26.873-23.29 13.815 0 25.427 10.375 26.977 24.103l3.203 28.367c.474 4.198-2.81 7.873-7.034 7.873H18.965c-4.424 0-7.821-3.92-7.193-8.299l4.13-28.754z" fill="#D1D1D1"/><path fill-rule="evenodd" clip-rule="evenodd" d="M59.516 32.864a1.04 1.04 0 0 0-1.04-1.04h-6.799a8.504 8.504 0 0 0-8.504 8.505v5.357a3.986 3.986 0 0 0 3.986 3.986h3.852a8.504 8.504 0 0 0 8.505-8.505v-8.303z" fill="#fff"/><path fill-rule="evenodd" clip-rule="evenodd" d="M53.56 39.38a3.668 3.668 0 1 0-7.336 0v4.608a3.668 3.668 0 1 0 7.337 0V39.38z" fill="#A6A6A6"/><path d="M43.172 45.718l15.84-1.665a8.488 8.488 0 0 0 .502-2.886v-8.303a1.04 1.04 0 0 0-1.04-1.04h-6.798a8.504 8.504 0 0 0-8.504 8.505v5.389z" fill="#BFBFBF"/><path fill-rule="evenodd" clip-rule="evenodd" d="M24.754 32.864c0-.574.465-1.04 1.04-1.04h6.798a8.504 8.504 0 0 1 8.505 8.505v5.183a4.16 4.16 0 0 1-4.16 4.16h-3.679a8.504 8.504 0 0 1-8.504-8.505v-8.303z" fill="#fff"/><path fill-rule="evenodd" clip-rule="evenodd" d="M30.99 39.38a3.669 3.669 0 0 1 7.337 0v4.608a3.668 3.668 0 1 1-7.337 0V39.38z" fill="#A6A6A6"/><path d="M41.09 45.754L25.27 44.09a8.49 8.49 0 0 1-.516-2.924v-8.303c0-.574.465-1.04 1.04-1.04h6.798a8.504 8.504 0 0 1 8.505 8.505v5.183c0 .081-.003.162-.007.242z" fill="#BFBFBF"/><path fill-rule="evenodd" clip-rule="evenodd" d="M9.934 36.717c0-8.79 3.595-17.232 9.912-23.344l9.377-3.896a1.947 1.947 0 0 1 2.693 1.797v59.307c0 .896-.726 1.622-1.622 1.622H11.88a1.947 1.947 0 0 1-1.946-1.946v-33.54z" fill="#BFBFBF"/><path fill-rule="evenodd" clip-rule="evenodd" d="M33.473 68.966h15.424v11.998H33.473V68.966zM41.906 55.124A3.283 3.283 0 0 0 45.2 51.85c0-1.808-3.293-6.084-3.293-6.084s-3.293 4.276-3.293 6.084a3.283 3.283 0 0 0 3.293 3.274zM50.065 59.41c-6.324-3.213-11.68.096-13.557 2.141a.877.877 0 1 1-1.293-1.186c2.191-2.388 8.369-6.217 15.645-2.52a.877.877 0 1 1-.795 1.565z" fill="#959595"/><path d="M41.908 31.346l20.826-.382v4.083l-20.826 3.74v-7.441zM54.586 77.47c0-20.807 16.868-37.675 37.675-37.675s37.675 16.868 37.675 37.675v4.055c0 20.807-16.868 37.675-37.675 37.675s-37.675-16.868-37.675-37.675V77.47z" fill="#D1D1D1"/><path d="M75.341 115.196a37.668 37.668 0 0 1-5.778-3.598c.267-.127.57-.188.887-.164 14.396 1.07 24.642-1.876 31.955-6.432 7.326-4.566 11.852-10.838 14.643-16.646a1.774 1.774 0 1 1 3.198 1.537c-3.006 6.254-7.932 13.114-15.964 18.12-7.097 4.421-16.507 7.326-28.94 7.183z" fill="#BFBFBF"/><path fill-rule="evenodd" clip-rule="evenodd" d="M62.324 78.381c0-16.562 13.426-29.988 29.988-29.988 16.562 0 29.988 13.426 29.988 29.988 0 16.562-13.426 29.988-29.988 29.988-16.562 0-29.988-13.426-29.988-29.988z" fill="#A6A6A6"/><path d="M105.357 82.9l.13-.166.05-.062c.101-.118.145-.138.244-.142l.072-.002a6.877 6.877 0 1 0-.088-13.754c-4.516.03-8.442 2.05-11.268 5.68a6.874 6.874 0 0 0 1.203 9.651 6.885 6.885 0 0 0 9.657-1.206z" fill="#fff"/><path d="M109.285 81.569c-2.825 1.294-6.887 3.553-6.887 3.553l2.152-7.26s7.56 2.413 4.735 3.707zM79.778 82.9l-.13-.166-.05-.062c-.101-.118-.146-.138-.245-.142l-.071-.001a6.876 6.876 0 1 1 .088-13.754c4.515.03 8.441 2.05 11.268 5.68a6.874 6.874 0 0 1-1.203 9.65 6.884 6.884 0 0 1-9.657-1.205z" fill="#fff"/><path d="M75.848 81.57c2.825 1.293 6.887 3.552 6.887 3.552l-2.152-7.26s-7.56 2.414-4.735 3.707z" fill="#fff"/><path fill-rule="evenodd" clip-rule="evenodd" d="M87.349 63.563c-2.001 1.19-4.618 2.613-7.205 3.639-2.575 1.02-5.122 1.648-7.04 2.02-.953.186-1.74.305-2.282.378a25.902 25.902 0 0 1-.766.091l-.032.004h-.003l.228 2.57c.228 2.572.228 2.571.229 2.571H70.487l.018-.002.06-.006.205-.021c.175-.02.425-.05.739-.091.627-.084 1.513-.22 2.579-.426 2.122-.412 4.998-1.116 7.958-2.29 2.948-1.168 5.83-2.744 7.943-4.002a73.873 73.873 0 0 0 3.302-2.086l.198-.135.054-.037.015-.01.006-.005s.002 0-1.473-2.119a1744.885 1744.885 0 0 1-1.473-2.119l-.01.007-.04.027-.167.114a69.04 69.04 0 0 1-3.052 1.928z" fill="#A6A6A6"/><path d="M109.032 53.482c-6.734 6.87-18.871 18.71-40.98 17.957-1.495-.051-3.33-.559-4.636-1.102 3.515-12.656 15.121-21.944 28.897-21.944a29.85 29.85 0 0 1 16.719 5.09z" fill="#959595"/><path d="M57.68 59.094l18.532 4.778a1.5 1.5 0 0 1 .87 2.262c-2.652 4.096-7.713 6.055-12.548 4.753-4.836-1.302-8.244-5.541-8.502-10.42-.054-1.016.666-1.637 1.647-1.373z" fill="#959595"/><path fill-rule="evenodd" clip-rule="evenodd" d="M60.704 59.885c6.37 1.54 9.225-1.915 12.161-4.308 2.937-2.392 7.02 4.308 7.02 4.308l-7.681 5.72-10.55-1.995s-7.32-5.266-.95-3.725z" fill="#959595"/><path fill-rule="evenodd" clip-rule="evenodd" d="M69.387 85.359c.001 0 .002 0-.042-2.618-.044-2.619-.043-2.619-.042-2.619h.225c.128.001.307.005.531.013.449.017 1.08.055 1.853.137 1.54.163 3.664.506 6.014 1.225 4.68 1.433 10.474 4.437 14.145 10.717l-4.522 2.643c-2.777-4.751-7.216-7.146-11.156-8.352-1.96-.6-3.744-.888-5.034-1.025a22.45 22.45 0 0 0-1.499-.111 13.255 13.255 0 0 0-.464-.01h-.013.004z" fill="#A6A6A6"/><path d="M85.928 100.102c5.165 1.384 10.307-.566 12.418-4.428.51-.934-.118-2.008-1.146-2.283l-17.678-4.737c-1.028-.276-2.11.34-2.135 1.404-.103 4.4 3.376 8.66 8.54 10.044z" fill="#fff"/><path d="M80.4 76.128c.423.264.922.416 1.457.416a2.765 2.765 0 0 0 2.762-2.77c0-.546-.158-1.055-.43-1.485a4.562 4.562 0 0 1 5.287 4.504v2.197a4.562 4.562 0 0 1-9.124 0v-2.197c0-.226.016-.448.048-.665zM96.181 76.545a2.765 2.765 0 0 0 2.762-2.77c0-.422-.095-.823-.264-1.182a4.562 4.562 0 0 1 6.341 4.202v2.196a4.562 4.562 0 0 1-9.123 0v-2.197c0-.088.002-.176.007-.263.091.01.184.014.277.014z" fill="#959595"/><path fill-rule="evenodd" clip-rule="evenodd" d="M102.795 64.624c1.74 1.063 3.947 2.282 6.078 3.127 2.151.852 4.829 1.566 7.085 2.077a80.497 80.497 0 0 0 3.52.714l.198.034.045.008h.007l-.825 5.012c-.825 5.011-.826 5.011-.826 5.01h-.011l-.021-.004-.073-.013-.256-.044a90.459 90.459 0 0 1-4.003-.811c-2.438-.553-5.71-1.402-8.583-2.54-2.894-1.148-5.657-2.697-7.631-3.903a65.857 65.857 0 0 1-3.126-2.035 32.968 32.968 0 0 1-.197-.138l-.057-.041-.017-.013-.01-.007 2.968-4.12c2.97-4.12 2.969-4.121 2.969-4.121l-.002-.002.002.002.028.02a31.69 31.69 0 0 0 .687.473c.489.33 1.197.793 2.051 1.315z" fill="#A6A6A6"/><path fill-rule="evenodd" clip-rule="evenodd" d="M92.54 90.247c1.563 0 2.83-1.278 2.83-2.854 0-1.577-2.83-5.305-2.83-5.305s-2.831 3.728-2.831 5.305c0 1.576 1.267 2.854 2.83 2.854z" fill="#959595"/><path d="M69.9 30.238H50.595c-10.896 0-19.759-8.705-20.014-19.54A27.836 27.836 0 0 1 42.562 8c13.34 0 24.682 9.404 27.339 22.238z" fill="#BFBFBF"/></svg>