<svg id="Cover" xmlns="http://www.w3.org/2000/svg" viewBox="0 0 135 124"><defs><style>.cls-1{fill:#e5e5e5}.cls-2{fill:#bfbfbf}.cls-4{fill:#d1d1d1}</style></defs><rect class="cls-1" x="11" y="11" width="113" height="113" rx="17" ry="17"/><path class="cls-2" d="M34.18 43.43h61.36v15.86l-50.76 5-10.6-20.86"/><circle class="cls-2" cx="95.54" cy="61.66" r="18.23"/><circle class="cls-2" cx="75.66" cy="61.66" r="18.23"/><path class="cls-2" d="M69.48 61.81h32.27L115 77.93 106.69 90l2.56 14.67a9.16 9.16 0 0 1-9 10.75H70.8a9 9 0 0 1-8.86-10.53z"/><path d="M115.91 91.19l-2.32 3.35a4.56 4.56 0 0 1-1.26 1.22 4.47 4.47 0 0 1-5-.14L93.89 86 35 43.61A10.53 10.53 0 0 1 32.3 29l.83-1.2c3.31-4.79-6.24-16.18-1.45-12.87l62.21 43.83 18.44 13a13.94 13.94 0 0 1 3.58 19.43z" fill="#f1f1f1"/><rect class="cls-4" x="13.53" y="-6.77" width="14.87" height="46.26" rx="7.43" ry="7.43" transform="rotate(-55.33 20.967 16.366)"/><circle class="cls-1" cx="9.87" cy="8.69" r="3.14"/><circle class="cls-1" cx="32.42" cy="24.29" r="3.14"/><path class="cls-2" d="M80.7 77.52a18.22 18.22 0 1 0-24.1-26 18.22 18.22 0 1 0-24.07 26l-4.79 27.39a9 9 0 0 0 8.85 10.53h39.83a9.18 9.18 0 0 0 9-10.76z"/><path class="cls-2" d="M34.18 43.43h7.28l-1.52 3.75-5.76-3.75M64.46 43.43h7.28l-1.68 9.47-5.6-9.47"/><path d="M100.28 90.55h-30a3.46 3.46 0 0 1-3.4-2.83l-1.18-6.36a2.45 2.45 0 0 1 2.42-2.9h15.33z" fill="#b2b2b2"/><path class="cls-4" d="M73.43 77.52a18.23 18.23 0 1 0-24.11-26 18.22 18.22 0 1 0-24.07 26l-4.79 27.39a9 9 0 0 0 8.85 10.53h39.83a9.18 9.18 0 0 0 9-10.76z"/><path class="cls-1" d="M29.31 111.71a5.24 5.24 0 0 1-5.15-6.14l5.25-30-2.31-1.3A14.47 14.47 0 1 1 46.21 53.6l3.11 4.63 3.12-4.63a14.47 14.47 0 1 1 19.14 20.66l-2.31 1.3 5.21 29.79a5.43 5.43 0 0 1-5.34 6.36z"/></svg>