<svg viewBox="0 0 136 125" fill="none" xmlns="http://www.w3.org/2000/svg"><g clip-path="url(#clip0_302_3218)"><path d="M107.564 11.298h-79c-9.389 0-17 7.612-17 17v79c0 9.389 7.611 17 17 17h79c9.389 0 17-7.611 17-17v-79c0-9.388-7.611-17-17-17z" fill="#D1D1D1"/><path d="M85.484 34.66l8.833 11.062a5.896 5.896 0 0 0 9.215-7.358l-8.833-11.062a5.896 5.896 0 0 0-9.215 7.358z" fill="#A2A2A2"/><path fill-rule="evenodd" clip-rule="evenodd" d="M104.846 40.01L93.584 25.907a2.24 2.24 0 0 1 .197-3.01l20.271-19.531a2.24 2.24 0 0 1 3.304.215l14.522 18.188a2.239 2.239 0 0 1-.521 3.269l-23.533 15.446a2.238 2.238 0 0 1-2.978-.474z" fill="#fff"/><path fill-rule="evenodd" clip-rule="evenodd" d="M109.466 35.274L99.226 22.45a1.6 1.6 0 0 1 .157-2.166l15.121-14.14a1.599 1.599 0 0 1 2.342.17l12.255 15.348a1.6 1.6 0 0 1-.352 2.322L111.613 35.6a1.599 1.599 0 0 1-2.147-.326z" fill="#A2A2A2"/><path d="M93.093 42.146l1.404 1.758a.797.797 0 0 0 1.246-.994l-1.405-1.759a.797.797 0 0 0-1.245.995zM87.496 35.137l1.405 1.759a.797.797 0 0 0 1.245-.995l-1.404-1.758a.797.797 0 0 0-1.246.994z" fill="#959595"/><path d="M90.519 26.153l13.208 16.541a2.39 2.39 0 1 0 3.735-2.983l-13.208-16.54a2.39 2.39 0 0 0-3.735 2.982z" fill="#A2A2A2"/><path opacity=".721" d="M100.016 37.026l3.405 4.264a1.116 1.116 0 0 0 1.743-1.392l-3.405-4.264a1.115 1.115 0 1 0-1.743 1.392z" fill="#fff"/><path d="M109.949 30.206l2.858.32a.863.863 0 0 0 .954-.761l.32-2.859a.863.863 0 0 0-.761-.953l-2.859-.32a.863.863 0 0 0-.954.76l-.32 2.86c-.053.473.288.9.762.953zM109.935 19.587l2.001.224a.863.863 0 0 0 .954-.761l.224-2.002a.863.863 0 0 0-.761-.953l-2.001-.224a.863.863 0 0 0-.954.761l-.224 2.001c-.053.474.288.9.761.954zM117.637 22.45l1.91.634a.864.864 0 0 0 1.092-.546l.635-1.91a.863.863 0 0 0-.547-1.092l-1.91-.635a.864.864 0 0 0-1.092.546l-.635 1.911c-.15.452.094.94.547 1.091z" fill="#959595"/><path d="M79.278 46.514l1.079 4.026a1.25 1.25 0 0 0 1.531.884l4.026-1.079a1.25 1.25 0 0 0 .885-1.531l-1.08-4.026a1.25 1.25 0 0 0-1.53-.885l-4.027 1.08a1.25 1.25 0 0 0-.884 1.53zM81.636 62.404l1.079 4.026a1.25 1.25 0 0 0 1.531.884l4.026-1.079a1.25 1.25 0 0 0 .885-1.531l-1.08-4.026a1.25 1.25 0 0 0-1.53-.885l-4.027 1.08a1.25 1.25 0 0 0-.884 1.53zM92.887 55.15l.91 3.396c.15.562.729.896 1.291.745l3.395-.91c.563-.15.897-.728.746-1.29l-.91-3.396a1.054 1.054 0 0 0-1.291-.745l-3.395.91c-.563.15-.896.728-.746 1.29zM74.738 38.989c0 19.763-16.021 35.785-35.785 35.785-19.763 0-35.785-16.022-35.785-35.785 0-19.763 16.022-35.785 35.785-35.785 19.764 0 35.785 16.021 35.785 35.785z" fill="#A2A2A2"/><path d="M25.47 32.02l1.866 2.939 33.416-24.346c-.9-.794-2.03-1.444-3.054-2.13L25.47 32.02z" fill="#959595"/><path fill-rule="evenodd" clip-rule="evenodd" d="M16.326 38.2l23.142-16.334L62.285 38.2v51.201H16.326v-51.2z" fill="#BFBFBF"/><path fill-rule="evenodd" clip-rule="evenodd" d="M20.887 43.118a8.27 8.27 0 1 1 16.542 0v5.03a8.27 8.27 0 1 1-16.542 0v-5.03z" fill="#fff"/><path d="M41.06 43.118a8.27 8.27 0 1 1 16.54 0v5.03a8.27 8.27 0 1 1-16.54 0v-5.03z" fill="#fff"/><path fill-rule="evenodd" clip-rule="evenodd" d="M33.715 40.83a3.713 3.713 0 0 1 3.714 3.712v4.664a3.713 3.713 0 0 1-7.427 0v-4.664l.007-.218a2.719 2.719 0 0 0 2.885-3.404c.264-.06.54-.09.822-.09zM53.888 40.886A3.713 3.713 0 0 1 57.6 44.6v4.663a3.713 3.713 0 0 1-7.427 0V44.6l.007-.218a2.719 2.719 0 0 0 2.885-3.404c.264-.06.54-.092.822-.092z" fill="#959595"/><path d="M21.187 46.686c3.695-.324 12.83 1.17 17.43 4.368a4.518 4.518 0 0 1-4.955 7.552l-.2-.132c-1.395-.969-3.942-1.776-7.028-2.28a41.899 41.899 0 0 0-3.47-.418l-.46-.032-.41-.024-.356-.017.236-.016a4.518 4.518 0 1 1-.787-9.001z" fill="#BFBFBF"/><path d="M56.77 48.826c-3.695-.323-12.83 1.171-17.43 4.368a4.518 4.518 0 0 0 4.955 7.552l.2-.132c1.395-.968 3.942-1.775 7.029-2.28a41.814 41.814 0 0 1 3.47-.417l.46-.033.41-.024.356-.016-.237-.016a4.518 4.518 0 0 0 .788-9.002z" fill="#BFBFBF"/><path fill-rule="evenodd" clip-rule="evenodd" d="M4.047 75.974c0-11.602 9.405-21.007 21.007-21.007H54.61c11.602 0 21.007 9.405 21.007 21.007 0 11.601-9.405 21.006-21.007 21.006H25.054c-11.602 0-21.007-9.405-21.007-21.007z" fill="#959595"/><path d="M39.16 62.21l-.096-.006c-2.91-.167-4.792-1.122-5.871-2.862l-.05-.081c-1.695-2.837-5.3-3.743-8.053-2.024-2.752 1.718-3.61 5.41-1.914 8.247 3.28 5.49 8.771 8.335 15.318 8.711 3.23.186 5.974-2.348 6.131-5.66.156-3.278-2.283-6.089-5.465-6.324z" fill="#fff"/><path fill-rule="evenodd" clip-rule="evenodd" d="M39.516 57.119l.021.002c6.048.448 10.468 5.725 10.186 11.657-.286 6.025-5.34 10.868-11.522 10.512-7.935-.456-15.114-4.006-19.406-11.188-3.078-5.15-1.59-11.96 3.592-15.195 5.246-3.275 12.005-1.48 15.125 3.715l.03.05c.02.03.047.059.154.112.19.093.674.268 1.66.325h.021l.14.01zm-6.323 2.223l-.05-.081c-1.695-2.837-5.3-3.743-8.053-2.025-2.752 1.719-3.61 5.411-1.914 8.248 3.28 5.489 8.771 8.335 15.318 8.711 3.229.186 5.974-2.348 6.131-5.66.156-3.278-2.283-6.089-5.465-6.325l-.097-.006c-2.91-.167-4.791-1.123-5.87-2.862z" fill="#959595"/><path d="M44.016 52.913a4.824 4.824 0 1 1-9.648 0 4.824 4.824 0 0 1 9.648 0z" fill="#BFBFBF"/><path d="M85.521 109.481a8.55 8.55 0 1 0-16.345-3.521c0 1.255.27 2.447.756 3.521h-1.005a3.269 3.269 0 1 0 0 6.538h17.575a3.27 3.27 0 0 0 0-6.538h-.981z" fill="#959595"/><path d="M89.443 86.626l18.861-26.066c2.023-2.797 6.249-2.604 8.009.366l17.086 28.832c2.2 3.714-.321 8.439-4.631 8.678l-9.377.506c.971 2.052-.233 4.416-2.503 4.416H97.989c-8.61 0-13.593-9.757-8.546-16.732z" fill="#A2A2A2"/><path d="M112.486 71.124a1.947 1.947 0 0 1 3.777-.942l7.123 28.482-3.985.26-6.915-27.8z" fill="#959595"/><path d="M75.003 109.462l1.066 1.068a1.005 1.005 0 0 1 0 1.421l-1.065 1.069a1.004 1.004 0 0 1-1.422 0l-1.066-1.069a1.005 1.005 0 0 1 0-1.421l1.066-1.068a1.005 1.005 0 0 1 1.421-.001v.001zM79.527 105.439l.71.712a1.005 1.005 0 0 1 0 1.421l-.71.713a1.004 1.004 0 0 1-1.421 0l-.71-.713a1.005 1.005 0 0 1 0-1.421l.71-.713a1.005 1.005 0 0 1 1.421-.001v.002z" fill="#BFBFBF"/><path d="M73.192 96.219a5.451 5.451 0 0 1 3.603 7.269 5.45 5.45 0 0 1 4.18 9.834 5.444 5.444 0 0 1 2.373 4.498h13.765c2.27 0 3.768-2.364 2.797-4.417l9.083-.505c4.311-.239 6.832-4.964 4.631-8.678L96.538 75.388c-1.76-2.97-5.986-3.163-8.01-.366L73.192 96.219z" fill="#BFBFBF"/><path d="M93.018 85.62a1.946 1.946 0 0 1 3.776-.941l7.124 28.481-3.985.26-6.915-27.8z" fill="#A2A2A2"/></g><defs><clipPath id="clip0_302_3218"><path fill="#fff" transform="translate(.564 .298)" d="M0 0h135v124H0z"/></clipPath></defs></svg>