<svg viewBox="0 0 136 125" fill="none" xmlns="http://www.w3.org/2000/svg"><g clip-path="url(#clip0_302_3309)"><path d="M107.564 11.263h-79c-9.389 0-17 7.611-17 17v79c0 9.389 7.611 17 17 17h79c9.389 0 17-7.611 17-17v-79c0-9.389-7.611-17-17-17z" fill="#BFBFBF"/><path d="M11.477 21.169h.002a7.607 7.607 0 0 1 7.605-7.442h35.838a7.607 7.607 0 0 1 7.605 7.442h.002v35.039a2.632 2.632 0 0 0 2.632 2.632h5.169c.605 0 1.096.491 1.096 1.097 0 5.925-4.803 10.728-10.728 10.728h-47.39c-5.925 0-10.728-4.803-10.728-10.728 0-.606.49-1.097 1.097-1.097h5.168a2.632 2.632 0 0 0 2.632-2.632V21.169z" fill="#A2A2A2"/><path d="M15.316 22.164H58.69v43.28H15.316v-43.28z" fill="#D1D1D1"/><path d="M13.248 41.618a4.786 4.786 0 1 0 0-9.573 4.786 4.786 0 0 0 0 9.573zM60.758 41.618a4.786 4.786 0 1 0 0-9.573 4.786 4.786 0 0 0 0 9.573z" fill="#D1D1D1"/><path d="M13.19 66.216c0-.727.588-1.316 1.315-1.316h44.996c.727 0 1.316.59 1.316 1.316v4.459c0 .727-.59 1.316-1.316 1.316H14.505c-.727 0-1.316-.59-1.316-1.316v-4.459z" fill="#959595"/><path d="M11.496 32.379a4.786 4.786 0 0 1 6.01 2.256 5.335 5.335 0 0 0 1.902-4.09v-6.701h-7.912v8.535zM56.506 34.64a4.786 4.786 0 0 1 6.004-2.266v-8.53h-7.912v6.702c0 1.643.741 3.114 1.908 4.095z" fill="#A2A2A2"/><path d="M10.062 19.77c0-.727.589-1.316 1.316-1.316h51.25c.727 0 1.316.589 1.316 1.316V23.4c0 .727-.589 1.316-1.316 1.316h-51.25c-.727 0-1.316-.589-1.316-1.316V19.77z" fill="#959595"/><path d="M38.695 23.509c5.867 0 10.623-4.756 10.623-10.623 0-5.867-4.756-10.623-10.623-10.623-3.82 0-7.169 2.016-9.04 5.043l-2.008-2.21c-.553-.61-1.529-.568-1.91.161a9.228 9.228 0 0 0-1.048 4.287 9.262 9.262 0 0 0 4.403 7.89 10.624 10.624 0 0 0 9.603 6.075z" fill="#A2A2A2"/><path d="M34.635 65.626a.947.947 0 0 1 .922-.726h2.893c.438 0 .819.3.921.726l1.903 7.914a.948.948 0 0 1-.922 1.17h-6.698a.948.948 0 0 1-.921-1.17l1.902-7.914z" fill="#fff"/><path d="M37.003 37.232c.114 0 1.124 1.602 2.152 3.284 1.023 1.674-.19 3.807-2.152 3.807-1.961 0-3.175-2.133-2.152-3.807 1.028-1.681 2.038-3.284 2.152-3.284z" fill="#A2A2A2"/><path d="M37.003 35.633a9.902 9.902 0 0 1-4.796 5.285 23.057 23.057 0 0 0-13.802-5.77 9.86 9.86 0 0 1-.482-3.056c0-5.45 4.417-9.867 9.867-9.867a9.87 9.87 0 0 1 9.213 6.326 9.871 9.871 0 0 1 9.213-6.326c5.45 0 9.868 4.417 9.868 9.867 0 1.064-.169 2.09-.48 3.05a23.056 23.056 0 0 0-13.87 5.743 9.903 9.903 0 0 1-4.73-5.252z" fill="#fff"/><path d="M33.563 45.15c-.767-.403-1.715.116-1.715.982v7.945a5.253 5.253 0 1 0 10.506 0v-7.945c0-.866-.948-1.385-1.714-.983-1.1.577-2.292 1.03-3.539 1.03-1.246 0-2.439-.453-3.538-1.03z" fill="#959595"/><path d="M41.855 56.315a5.254 5.254 0 0 0-9.508 0 5.254 5.254 0 0 0 9.508 0z" fill="#BFBFBF"/><path fill-rule="evenodd" clip-rule="evenodd" d="M20.184 35.334c3.959.57 7.594 2.142 10.64 4.45a8.27 8.27 0 0 0-3.034-15.959 8.267 8.267 0 0 0-7.606 11.509zm7.8-3.137c2.86-1.076 4.6-3.49 3.883-5.394-.715-1.904-3.615-2.575-6.475-1.5-2.86 1.076-4.6 3.492-3.883 5.395.715 1.904 3.615 2.575 6.475 1.5zm3.37 5.05a2.133 2.133 0 1 0 0-4.268 2.133 2.133 0 0 0 0 4.267z" fill="#959595"/><path fill-rule="evenodd" clip-rule="evenodd" d="M43.116 39.758a8.27 8.27 0 0 1 3.1-15.933A8.267 8.267 0 0 1 53.83 35.32a23.03 23.03 0 0 0-2.342.45 2.133 2.133 0 1 0-3.278 1.075 23.121 23.121 0 0 0-5.094 2.913zm3.295-7.56c2.86-1.076 4.6-3.492 3.883-5.395-.716-1.904-3.615-2.575-6.475-1.5-2.86 1.076-4.6 3.492-3.884 5.395.716 1.904 3.615 2.575 6.476 1.5z" fill="#959595"/><path d="M103.504 69.716a8.159 8.159 0 1 0-8.402 7.756 8.159 8.159 0 1 0 8.402-7.756z" fill="#A2A2A2"/><path d="M79.303 87.178c0-5.431 4.403-9.834 9.833-9.834h29.811c5.431 0 9.833 4.403 9.833 9.834V105.8c0 6.164-4.996 11.16-11.16 11.16H90.463c-6.163 0-11.16-4.996-11.16-11.16V87.178z" fill="#D1D1D1"/><path d="M104.042 94.767c.112 0 1.105 1.577 2.116 3.23 1.006 1.647-.187 3.744-2.116 3.744s-3.123-2.097-2.117-3.743c1.011-1.654 2.004-3.23 2.117-3.23z" fill="#A2A2A2"/><path d="M77.921 96.742a4.408 4.408 0 1 0 0-8.817 4.408 4.408 0 0 0 0 8.817zM130.162 96.742a4.408 4.408 0 1 0 0-8.816 4.408 4.408 0 0 0 0 8.816z" fill="#D1D1D1"/><path d="M85.564 78.014a9.837 9.837 0 0 0-6.261 9.164v7.58h.36a5.9 5.9 0 0 0 5.9-5.9V78.015zM122.519 78.014a9.836 9.836 0 0 1 6.261 9.164v7.58h-.361a5.9 5.9 0 0 1-5.9-5.9V78.015z" fill="#B4B4B4"/><path fill-rule="evenodd" clip-rule="evenodd" d="M111.364 82.338a6.221 6.221 0 0 0-6.221 6.222v3.784a6.221 6.221 0 1 0 12.443 0V88.56a6.222 6.222 0 0 0-6.222-6.222zM96.719 82.338a6.221 6.221 0 0 1 6.221 6.222v3.784a6.221 6.221 0 1 1-12.443 0V88.56a6.221 6.221 0 0 1 6.222-6.222z" fill="#fff"/><rect x="90.497" y="86.531" width="5.244" height="8.546" rx="2.622" fill="#959595"/><rect x="105.143" y="86.531" width="5.244" height="8.546" rx="2.622" fill="#959595"/><path d="M119.395 106.056a4.939 4.939 0 0 0-5.356-4.483l-.483.043a4.572 4.572 0 0 0-4.151 4.959c.061.693 1.026 1.176 1.689.964.736-.237 1.778-.463 3.213-.562 1.765-.122 3.045-.024 3.894.109.605.095 1.248-.42 1.194-1.03z" fill="#959595"/><path d="M105.143 92.344V88.56a6.221 6.221 0 1 1 12.443 0v3.784h-12.443zM102.94 92.358H90.497V88.56a6.221 6.221 0 1 1 12.443 0V92.358z" fill="#BFBFBF"/><path d="M95.665 18.895l3.103 2.793c.823.742.89 2.01.148 2.834l-8.292 9.21-9.134-6.033a1.337 1.337 0 0 1-.257-2.011l5.704-6.335a6.18 6.18 0 0 1 8.728-.458zM118.507 39.462c2.536 2.284 2.948 5.962.919 8.216l-6.265 6.957a.988.988 0 0 1-.147.135c-.524.398-1.329.26-1.797-.309l-6.938-8.434 8.442-9.376c.659-.732 1.86-.724 2.684.017l3.102 2.794zM94.71 37.823l5.073 4.568c.636.573.839 1.486.505 2.275l-2.346 5.53a2.006 2.006 0 0 1-3.189.708l-7.984-7.189a2.006 2.006 0 0 1 .37-3.246l5.256-2.91a2.006 2.006 0 0 1 2.314.264z" fill="#A2A2A2"/><path d="M116.112 7.047l8.107-1.083a3.678 3.678 0 0 1 4.163 3.75l-.229 8.175a29.201 29.201 0 0 1-9.633 20.869l-13.305 12a2.006 2.006 0 0 1-2.686.002l-16.43-14.793a2.006 2.006 0 0 1-.28-2.672l10.545-14.487a29.207 29.207 0 0 1 19.748-11.761z" fill="#fff"/><path d="M116.112 7.047l8.107-1.083a3.678 3.678 0 0 1 4.163 3.75l-.229 8.175a29.201 29.201 0 0 1-9.633 20.869l-13.305 12a2.006 2.006 0 0 1-2.686.002l-16.43-14.793a2.006 2.006 0 0 1-.28-2.672l10.545-14.487a29.207 29.207 0 0 1 19.748-11.761z" fill="#D1D1D1"/><path d="M110.851 29.408a5.697 5.697 0 0 0 6.757-4.39 5.697 5.697 0 1 0-11.144-2.369 5.698 5.698 0 0 0 4.387 6.759z" fill="#fff"/><path d="M110.851 29.408a5.697 5.697 0 0 0 6.757-4.39 5.697 5.697 0 1 0-11.144-2.369 5.698 5.698 0 0 0 4.387 6.759z" fill="#D1D1D1"/><path d="M112.191 18.04a1.3 1.3 0 0 1 1.002 1.543l-1.004 4.724a1.301 1.301 0 0 1-2.544-.54l1.004-4.724a1.3 1.3 0 0 1 1.542-1.002zM114.288 21.58c.401.084.657.479.572.88l-1.236 5.815a.743.743 0 1 1-1.453-.31l1.236-5.814a.742.742 0 0 1 .881-.572z" fill="#fff"/><path fill-rule="evenodd" clip-rule="evenodd" d="M115.179 20.375a4.633 4.633 0 0 0-6.543.344 4.633 4.633 0 1 0 6.543-.344zm-8.125-1.08a6.761 6.761 0 1 1 10.049 9.048 6.762 6.762 0 0 1-10.049-9.048z" fill="#959595"/><path fill-rule="evenodd" clip-rule="evenodd" d="M79.56 50.014a1.302 1.302 0 0 0-.025.027l-3.932 4.367a1.204 1.204 0 0 0 .708 1.995l1.465.23-.286 3.74a1.204 1.204 0 0 0 1.417 1.277l6.443-1.18c.032-.005.064-.012.094-.02a6.34 6.34 0 0 0 3.61-2.009c2.351-2.61 2.144-6.628-.46-8.973-2.606-2.346-6.623-2.132-8.974.479l-.06.067z" fill="#D1D1D1"/><path fill-rule="evenodd" clip-rule="evenodd" d="M82.355 53.211a.47.47 0 0 0-.005.041l-.204 2.767a.516.516 0 0 0 .606.545l2.73-.492a2.68 2.68 0 0 0 1.585-.86 2.704 2.704 0 0 0-.209-3.818 2.704 2.704 0 0 0-3.818.193 2.68 2.68 0 0 0-.685 1.624z" fill="#fff"/><path d="M127.661 22.474L111.603 8.016a29.222 29.222 0 0 1 4.509-.97l8.107-1.082a3.677 3.677 0 0 1 4.163 3.749l-.229 8.175a29.159 29.159 0 0 1-.492 4.586z" fill="#A2A2A2"/><path d="M44.228 110.713c7.085 1.899 14.376-2.338 16.285-9.463 1.909-7.125-2.287-14.44-9.371-16.338-7.085-1.899-14.376 2.338-16.285 9.463-1.909 7.125 2.287 14.44 9.371 16.338z" fill="#fff"/><path d="M44.228 110.713c7.085 1.898 14.376-2.339 16.285-9.464 1.909-7.125-2.287-14.44-9.371-16.338-7.085-1.898-14.376 2.339-16.285 9.464-1.909 7.125 2.287 14.439 9.371 16.338z" fill="#A2A2A2"/><path d="M45.615 93.051l.03-.068-1.649-.442a1.536 1.536 0 0 1 .796-2.968l6.336 1.698a2.246 2.246 0 1 0 1.163-4.339l-7.767-2.08a13.364 13.364 0 0 0-9.636 9.409l9.184 2.46a2.01 2.01 0 0 0 1.543-3.67zM60.16 102.62l-11.958-3.204a2.6 2.6 0 1 0-1.346 5.023l10.399 2.786a13.316 13.316 0 0 0 2.905-4.605z" fill="#D1D1D1"/><path d="M57.62 106.834l-7.352-1.97a2.246 2.246 0 0 0-1.162 4.338l3.806 1.02a13.402 13.402 0 0 0 4.707-3.388z" fill="#D1D1D1"/><path d="M60.79 99.977c.19-1.141.23-2.28.132-3.39l1.692.453c3.26.874 5.191 4.24 4.313 7.518-.879 3.279-4.234 5.229-7.494 4.355l-27.245-7.3c-3.26-.873-5.19-4.24-4.312-7.518.878-3.279 4.233-5.229 7.493-4.355l1.466.393a13.345 13.345 0 0 0-1.581 3.002l-.741-.199a2.829 2.829 0 0 0-3.459 2.01 2.829 2.829 0 0 0 1.99 3.47l27.245 7.301a2.829 2.829 0 0 0 3.459-2.01 2.828 2.828 0 0 0-1.99-3.47l-.969-.26z" fill="#fff"/><path opacity=".432" d="M52.544 110.745a.898.898 0 1 0 0 1.796.898.898 0 0 0 0-1.796zM73.405 36.989a.898.898 0 1 0 0 1.795.898.898 0 0 0 0-1.795z" fill="#fff"/><path d="M22.686 105.557h-.002a1.57 1.57 0 1 0 0 3.142h.002a1.57 1.57 0 1 0 0-3.142zM72.513 23.204a1.57 1.57 0 1 0 0 3.142 1.57 1.57 0 1 0 0-3.142zM115.973 67.446a.898.898 0 1 0 .001 1.795.898.898 0 0 0-.001-1.795zM68.517 80.543a.898.898 0 1 0 0 1.795.898.898 0 0 0 0-1.795zM111.307 57.432a.898.898 0 1 0-1.796 0 .898.898 0 0 0 1.796 0zM24.256 83.748a.898.898 0 1 0 0 1.795.898.898 0 0 0 0-1.795z" fill="#fff"/><path opacity=".432" d="M48.583 78.014a.898.898 0 1 0 0 1.795.898.898 0 0 0 0-1.795z" fill="#fff"/></g><defs><clipPath id="clip0_302_3309"><path fill="#fff" transform="translate(.564 .263)" d="M0 0h135v124H0z"/></clipPath></defs></svg>