<svg viewBox="0 0 136 124" fill="none" xmlns="http://www.w3.org/2000/svg"><rect x="11.965" y="11" width="113" height="113" rx="17" fill="#FEC701"/><path fill-rule="evenodd" clip-rule="evenodd" d="M65.72 27.337c8.201 8.201 8.201 21.497 0 29.698l-53.406 53.407a17.071 17.071 0 0 1-.348-3.442l-.001-55.607 24.057-24.056c8.201-8.201 21.498-8.201 29.699 0zm59.245 1.056v35.355l-8.995 8.996c-4.882 4.882-12.796 4.882-17.678 0-4.881-4.881-4.881-12.796 0-17.677l26.673-26.674z" fill="#FFD900"/><path d="M93.555 43.504H43.592c-9.361 0-16.95 7.59-16.95 16.951v6.449a7.472 7.472 0 1 0 0 14.04v12.758c0 9.362 7.588 16.952 16.95 16.952h49.963c9.362 0 16.951-7.59 16.951-16.952V80.884a7.472 7.472 0 1 0 0-14.335v-6.094c0-9.362-7.589-16.951-16.951-16.951z" fill="#FFAB19"/><path d="M81.054 43.504H51.326C44.77 42.333 39.8 36.686 39.8 29.898c0-7.637 6.291-13.83 14.053-13.83 7.76 0 14.05 6.193 14.05 13.83 0 .3-.01.597-.028.892h.03c7.11 0 12.9 5.652 13.15 12.714z" fill="#E47900"/><path fill-rule="evenodd" clip-rule="evenodd" d="M68.35 83.056a4.13 4.13 0 0 0 4.127-4.135c0-2.284-4.126-7.686-4.126-7.686s-4.126 5.402-4.126 7.686a4.13 4.13 0 0 0 4.126 4.135z" fill="#F68B00"/><path d="M74.78 52.724c4.894 3.45 10.403 5.754 16.48 6.925.085.537.129 1.087.129 1.648v6.397c0 .396-.022.788-.065 1.173a14.522 14.522 0 0 0-3.027-.318c-5.695 0-10.62 3.292-12.98 8.076a10.51 10.51 0 0 1-4.961-8.931v-6.397c0-3.537 1.746-6.667 4.424-8.573zM45.686 59.943a10.62 10.62 0 0 0-.086 1.354v6.397c0 1.727.416 3.356 1.154 4.794 1.628-.544 3.37-.84 5.181-.84 4.18 0 7.992 1.571 10.879 4.154a10.495 10.495 0 0 0 3.819-8.108v-6.397c0-2.781-1.08-5.31-2.842-7.19-5.641 3.349-11.685 5.312-18.105 5.836z" fill="#FFF1A2"/><path fill-rule="evenodd" clip-rule="evenodd" d="M45.424 54.653l-1.005-6.087a.932.932 0 0 0-1.125-.757c-.58.13-1.017.607-1.098 1.196l-.824 5.972a1.94 1.94 0 0 0 2.057 2.2 2.176 2.176 0 0 0 1.995-2.524zM112.186 35.789l-4.198 4.52a.931.931 0 0 0 .089 1.352 1.424 1.424 0 0 0 1.617.137l5.228-3.003a1.94 1.94 0 0 0 .481-2.974 2.175 2.175 0 0 0-3.217-.032zM24.1 35.789l4.197 4.52a.932.932 0 0 1-.089 1.352 1.425 1.425 0 0 1-1.617.137l-5.228-3.003a1.94 1.94 0 0 1-.481-2.974 2.176 2.176 0 0 1 3.217-.032zM106.856 28.367l-2.116 5.795a.933.933 0 0 0 .607 1.212 1.425 1.425 0 0 0 1.544-.502l3.653-4.796a1.94 1.94 0 0 0-.71-2.928 2.175 2.175 0 0 0-2.978 1.219zM29.43 28.367l2.115 5.795a.932.932 0 0 1-.607 1.212 1.425 1.425 0 0 1-1.544-.502l-3.653-4.796a1.94 1.94 0 0 1 .71-2.928 2.175 2.175 0 0 1 2.978 1.219z" fill="#FFF1A2"/><path d="M26.64 60.455c0-7.491 4.86-13.848 11.6-16.089v18.766c0 4.412-2.847 8.159-6.803 9.505a7.483 7.483 0 0 0-4.796-5.733v-6.449zM98.906 44.366c6.739 2.241 11.599 8.598 11.599 16.09v6.093a7.483 7.483 0 0 0-5.25 5.92 10.041 10.041 0 0 1-6.349-9.337V44.366z" fill="#F5970F"/><path fill-rule="evenodd" clip-rule="evenodd" d="M52.414 91.36a5.65 5.65 0 0 1 5.65-5.65h20.574a5.65 5.65 0 0 1 5.65 5.65.935.935 0 1 1-1.87 0 3.78 3.78 0 0 0-3.78-3.78H58.064a3.78 3.78 0 0 0-3.78 3.78.935.935 0 0 1-1.87 0z" fill="#F68B00"/><path d="M54.297 62.162a3.744 3.744 0 0 0 3.533-4.985 4.725 4.725 0 0 1 5.91 4.57v5.93a4.721 4.721 0 1 1-9.443 0v-5.515zM82.96 69.567a14.47 14.47 0 0 0-4.484 2.83 4.721 4.721 0 0 1-4.566-4.72v-5.515a3.744 3.744 0 0 0 3.533-4.985 4.721 4.721 0 0 1 5.91 4.57v5.93c0 .672-.14 1.311-.393 1.89z" fill="#E27800"/></svg>