<svg id="Layer_3" data-name="Layer 3" xmlns="http://www.w3.org/2000/svg" viewBox="0 0 135 124"><defs><style>.cls-1{fill:#e5e5e5}.cls-2{fill:#d1d1d1}.cls-3{fill:#bfbfbf}.cls-4{fill:#b2b2b2}.cls-5{fill:#a6a6a6}</style></defs><path class="cls-1" d="M124 28v79a17 17 0 0 1-17 17H28a17 17 0 0 1-17-17V28a17 17 0 0 1 17-17h79a16.75 16.75 0 0 1 3.63.39A17 17 0 0 1 124 28z"/><path class="cls-2" d="M31.96 29.36h5.75v80.8h-5.75z"/><path class="cls-3" d="M31.96 29.36h5.75v25h-5.75z"/><rect class="cls-3" x="17.19" y="106.01" width="35.29" height="6.9" rx="3.45" ry="3.45"/><rect class="cls-4" x="36.39" y="71.39" width="49.22" height="41.52" rx="3" ry="3"/><rect class="cls-3" x="63.44" y="71.39" width="49.22" height="41.52" rx="3" ry="3"/><path class="cls-2" d="M93.93 71.39V85.5a.47.47 0 0 1-.8.33l-.85-.83-1.08 1.07a.47.47 0 0 1-.66 0L89.46 85l-1.08 1.08a.47.47 0 0 1-.66 0L86.64 85l-1.08 1.08a.47.47 0 0 1-.66 0L83.82 85l-.85.84a.47.47 0 0 1-.8-.33V71.39z"/><rect class="cls-1" x="86.14" y="88.66" width="23.57" height="15.89" rx="5.23" ry="5.23" transform="rotate(-13.48 97.933 96.6)"/><path class="cls-3" d="M82.09 19a1.82 1.82 0 0 0-2.7 1.59 26.17 26.17 0 0 0 3.25 13C86.92 40.81 95 43.94 95 43.94s1.17-8.62-3.11-15.86a26.18 26.18 0 0 0-9.8-9.08z"/><path class="cls-4" d="M95.53 44.71a.8.8 0 0 1-.65-.35L83.13 25.84a.77.77 0 0 1 .23-1.05.76.76 0 0 1 1 .23l11.81 18.52a.76.76 0 0 1-.24 1.05.72.72 0 0 1-.4.12zM102.82 10.1a1.83 1.83 0 0 0-3.44-.75 38.58 38.58 0 0 0-3.67 9.8 39 39 0 0 0 0 15.58 39 39 0 0 0 6.43-14.19 38.14 38.14 0 0 0 .68-10.44z"/><path class="cls-5" d="M93.8 32.1a.62.62 0 0 1-.23 0 .66.66 0 0 1-.39-.84l5.69-15.36a.66.66 0 1 1 1.23.46l-5.69 15.31a.65.65 0 0 1-.61.43z"/><path class="cls-3" d="M94.81 1.44a1.83 1.83 0 0 0-3.51.25 37.86 37.86 0 0 0-.8 10.43 39 39 0 0 0 4.32 15A39 39 0 0 0 97 11.66a38.49 38.49 0 0 0-2.19-10.22z"/><path class="cls-4" d="M95 33.36a.75.75 0 0 1-.75-.71L92.6 7.54a.75.75 0 0 1 .71-.8.77.77 0 0 1 .81.71l1.59 25.1a.76.76 0 0 1-.71.81z"/><path class="cls-4" d="M89.14 13.72a1.83 1.83 0 0 0-3.34 1.09 38.05 38.05 0 0 0 1.79 10.31 39 39 0 0 0 7.86 13.45 39.11 39.11 0 0 0-1.64-15.49 37.55 37.55 0 0 0-4.67-9.36z"/><path class="cls-5" d="M96.55 38.08a.68.68 0 0 1-.53-.27c-4-5.59-8.81-20.43-9-21a.66.66 0 1 1 1.25-.4c0 .15 4.9 15.26 8.82 20.68a.65.65 0 0 1-.15.91.6.6 0 0 1-.39.08z"/><path class="cls-3" d="M108.9 19.14a1.82 1.82 0 0 1 2.51 1.54c.25 3.18.16 9-2.86 14-4.4 7.17-13.38 9.66-13.38 9.66S93.34 35.16 97.74 28c3.03-4.93 8.26-7.65 11.16-8.86z"/><path class="cls-4" d="M94.77 45.91a.75.75 0 0 1-.6-1.21 159.25 159.25 0 0 0 13.75-22.17.76.76 0 0 1 1.37.67 163.3 163.3 0 0 1-13.91 22.41.76.76 0 0 1-.61.3z"/><path class="cls-4" d="M114.24 33.28a1.83 1.83 0 0 1 1.54 2.9 25.55 25.55 0 0 1-8.36 7.52 26.62 26.62 0 0 1-14.21 2.62A26.65 26.65 0 0 1 103.33 36a25.4 25.4 0 0 1 10.91-2.72z"/><path class="cls-4" d="M77.08 30a1.83 1.83 0 0 0-1.91 2.3c.75 2.83 2.53 7.6 6.43 10.83 5.84 4.86 14.24 4.38 14.24 4.38s-1.08-8.34-6.93-13.19C85 31.13 80 30.26 77.08 30z"/><path class="cls-5" d="M98.28 46.53a.77.77 0 0 1-.65-.36.76.76 0 0 1 .25-1.05l12.86-8a.76.76 0 0 1 .8 1.3l-12.86 8a.75.75 0 0 1-.4.11zM93.21 47.08a.75.75 0 0 1-.38-.1c-5.38-3.07-14-11.76-14.33-12.13a.76.76 0 1 1 1.08-1.06c.09.09 8.8 8.91 14 11.87a.77.77 0 0 1 .29 1 .75.75 0 0 1-.66.42z"/><path class="cls-3" d="M100.86 71.39H88.62a3.35 3.35 0 0 1-3.23-2.46L79.31 47h31.53l-6.78 22a3.36 3.36 0 0 1-3.2 2.39z"/><rect class="cls-2" x="76.38" y="42.41" width="36.99" height="10.08" rx="3.28" ry="3.28"/><path class="cls-2" d="M42.27 50.41h46.41v20.98H42.27z"/><path class="cls-4" d="M50.62 51.37l-8.35 8.35v-2.84l6.47-6.47h.92l.96.96zM60.39 51.37L42.27 69.49v-2.84l16.24-16.24h.92l.96.96zM70.16 51.37L50.14 71.39H47.3l21.44-21.44.46.46.96.96zM79.93 51.37L59.91 71.39h-2.84l20.98-20.98.46-.46 1.42 1.42zM88.68 50.41v1.98l-19 19h-2.84l20.98-20.98h.86zM88.68 59.32v2.84l-9.23 9.23h-2.84l12.07-12.07zM88.68 69.09v2.3h-2.3l2.3-2.3z"/><rect class="cls-4" x="39.64" y="47.93" width="50.86" height="6.1" rx="2.88" ry="2.88"/><path class="cls-2" d="M25.51 66.35a1 1 0 0 1-1-1V38.57a1 1 0 0 1 2 0v26.78a1 1 0 0 1-1 1z"/><circle class="cls-2" cx="25.51" cy="65.35" r="1.91"/><path class="cls-4" d="M60.19 41.15H10.11A5.56 5.56 0 0 1 4.79 34l8.88-29.55A5.54 5.54 0 0 1 19 .5h32.31a5.54 5.54 0 0 1 5.32 4L65.51 34a5.56 5.56 0 0 1-5.32 7.15z"/></svg>