<svg viewBox="0 0 135 124" version="1.1" xmlns="http://www.w3.org/2000/svg" xmlns:xlink="http://www.w3.org/1999/xlink"><defs><path d="M.875 0h43.25c.483 0 .875.392.875.875C45 8.124 39.124 14 31.875 14h-18.75C5.876 14 0 8.124 0 .875 0 .392.392 0 .875 0z" id="a"/></defs><g stroke="none" stroke-width="1" fill="none" fill-rule="evenodd"><g transform="translate(11 11)" fill="#519B00"><rect x="0" y="0" width="113" height="113" rx="17"/></g><g transform="rotate(39 -74.4 167.957)" fill-rule="nonzero"><rect stroke="#79C500" stroke-width="2" fill="#9ED926" x="1" y="1" width="29" height="15.2" rx="1.8"/><rect fill="#79C500" x="10.6" y="3.2" width="9.8" height="12.6" rx="4.9"/><rect fill="#79C500" x="25.8" y="11.4" width="4" height="5.6" rx="2"/><rect fill="#79C500" x="25.8" y=".2" width="4" height="5.6" rx="2"/><rect fill="#79C500" x="1.2" y="11.4" width="4" height="5.6" rx="2"/><rect fill="#79C500" x="1.2" y=".2" width="4" height="5.6" rx="2"/><rect fill="#79C500" x="22" y="7" width="2.6" height="4" rx="1.3"/><rect fill="#79C500" x="6" y="7" width="2.6" height="4" rx="1.3"/></g><path stroke="#FFF" stroke-width="13" stroke-linejoin="round" d="M54.259 100.395l35.022 8L91 80.255"/><path d="M52.784 91a6 6 0 0 1 5.9 7.095l-3.75 20.201L53.665 124H28c-9.389 0-17-7.611-17-17V91h41.784z" fill="#4B4B4B"/><path d="M53.52 91a6 6 0 0 1 5.857 7.302l-4.443 19.993A7 7 0 0 1 51 112V94c0-1.074.242-2.09.674-3h1.846zM21.413 91H38.28L30 116z" fill="#FFF"/><rect stroke="#FFF" fill="#FFF" x="21" y="80" width="18" height="14" rx="1"/><path d="M30.178 89.164l4.132 4.55a2 2 0 0 1-.341 2.988c-2.149 1.49-3.521 1.004-4.117-1.46-.567 2.495-1.96 2.963-4.18 1.402a2 2 0 0 1-.377-2.926l3.83-4.535a.7.7 0 0 1 1.053-.02z" fill="#4B4B4B"/><g transform="rotate(-32 47.193 -42.299)" fill-rule="nonzero"><rect stroke="#79C500" stroke-width="2" fill="#9ED926" x="1" y="1" width="29" height="15.2" rx="1.8"/><rect fill="#79C500" x="10.6" y="3.2" width="9.8" height="12.6" rx="4.9"/><rect fill="#79C500" x="25.8" y="11.4" width="4" height="5.6" rx="2"/><rect fill="#79C500" x="25.8" y=".2" width="4" height="5.6" rx="2"/><rect fill="#79C500" x="1.2" y="11.4" width="4" height="5.6" rx="2"/><rect fill="#79C500" x="1.2" y=".2" width="4" height="5.6" rx="2"/><rect fill="#79C500" x="22" y="7" width="2.6" height="4" rx="1.3"/><rect fill="#79C500" x="6" y="7" width="2.6" height="4" rx="1.3"/></g><g transform="translate(4 24)"><circle fill="#E59B80" fill-rule="nonzero" cx="7.325" cy="33.775" r="7.088"/><circle fill="#E59B80" fill-rule="nonzero" cx="45.638" cy="33.775" r="7.088"/><path d="M45.6 10.813v40.124c-.007 5.594-4.544 10.126-10.138 10.126H17.45c-5.6 0-10.143-4.537-10.15-10.138V10.813a3.825 3.825 0 0 1 3.825-3.826h30.663a3.825 3.825 0 0 1 3.812 3.825z" fill="#E59B80" fill-rule="nonzero"/><rect fill="#FFF" fill-rule="nonzero" x="12.4" y="25.887" width="10.025" height="13.887" rx="5.013"/><rect fill="#61361E" fill-rule="nonzero" x="16.55" y="29.688" width="4.037" height="6.588" rx="2.013"/><rect fill="#FFF" fill-rule="nonzero" transform="rotate(180 35.487 32.819)" x="30.475" y="25.875" width="10.025" height="13.887" rx="5.013"/><rect fill="#61361E" fill-rule="nonzero" transform="rotate(-180 34.281 32.981)" x="32.263" y="29.688" width="4.037" height="6.588" rx="2.013"/><path fill="#E59B80" fill-rule="nonzero" d="M10 24h32.038v6.063H10z"/><rect fill="#D97B61" fill-rule="nonzero" x="23.688" y="27.587" width="5.537" height="15.7" rx="1.825"/><path d="M34.862 15.625H6.112A2.038 2.038 0 0 1 4 13.35C5.013 5.8 10.863 0 18.712 0h.526c8.629 0 15.624 6.996 15.624 15.625z" fill="#7A4830" fill-rule="nonzero"/><path d="M18.05 15.625H46.8a2.05 2.05 0 0 0 2.05-2.275C47.9 5.8 42.037 0 34.187 0h-.512C25.045 0 18.05 6.996 18.05 15.625z" fill="#7A4830" fill-rule="nonzero"/><path d="M45.625 36.888c-.568 0-1.03-.457-1.038-1.026L41.962 13.75h6L46.65 35.862c0 .567-.459 1.026-1.025 1.026zM7.3 36.888a1.025 1.025 0 0 1-1.025-1.026L4.962 13.75h6L8.338 35.862A1.038 1.038 0 0 1 7.3 36.889z" fill="#7A4830" fill-rule="nonzero"/><path d="M4 13.65h44.9v4.062a2.5 2.5 0 0 1-2.5 2.5H6.5a2.5 2.5 0 0 1-2.5-2.5V13.65z" fill="#7A4830" fill-rule="nonzero"/><path d="M39.25 49.25a1.15 1.15 0 0 1-.35 0 1.175 1.175 0 0 1-.775-1.475L39 44.888a1.175 1.175 0 1 1 2.237.712l-.887 2.825a1.25 1.25 0 0 1-1.1.825zM13.125 49.25a1.175 1.175 0 0 1-1.113-.825l-.9-2.825a1.175 1.175 0 0 1 2.238-.712l.9 2.825a1.175 1.175 0 0 1-.762 1.474 1.25 1.25 0 0 1-.363.063z" fill="#DB8269" fill-rule="nonzero"/><circle fill="#E59B80" fill-rule="nonzero" cx="31.55" cy="20.175" r="5.513"/><circle fill="#E59B80" fill-rule="nonzero" cx="21.65" cy="20.175" r="5.513"/><path d="M20.425 46.5a7.95 7.95 0 0 0 12.05 0" stroke="#DB8269" stroke-width="2" stroke-linecap="round"/></g><rect fill="#D8D8D8" x="59" y="68" width="70" height="5" rx="2.5"/><g transform="rotate(19 -69.027 219.724)" fill-rule="nonzero"><rect stroke="#79C500" stroke-width="2" fill="#9ED926" x="1" y="1" width="29" height="15.2" rx="1.8"/><rect fill="#79C500" x="10.6" y="3.2" width="9.8" height="12.6" rx="4.9"/><rect fill="#79C500" x="25.8" y="11.4" width="4" height="5.6" rx="2"/><rect fill="#79C500" x="25.8" y=".2" width="4" height="5.6" rx="2"/><rect fill="#79C500" x="1.2" y="11.4" width="4" height="5.6" rx="2"/><rect fill="#79C500" x="1.2" y=".2" width="4" height="5.6" rx="2"/><rect fill="#79C500" x="22" y="7" width="2.6" height="4" rx="1.3"/><rect fill="#79C500" x="6" y="7" width="2.6" height="4" rx="1.3"/></g><g transform="rotate(-21 167.515 -239.078)" fill-rule="nonzero"><rect stroke="#79C500" stroke-width="2" fill="#9ED926" x="1" y="1" width="29" height="15.2" rx="1.8"/><rect fill="#79C500" x="10.6" y="3.2" width="9.8" height="12.6" rx="4.9"/><rect fill="#79C500" x="25.8" y="11.4" width="4" height="5.6" rx="2"/><rect fill="#79C500" x="25.8" y=".2" width="4" height="5.6" rx="2"/><rect fill="#79C500" x="1.2" y="11.4" width="4" height="5.6" rx="2"/><rect fill="#79C500" x="1.2" y=".2" width="4" height="5.6" rx="2"/><rect fill="#79C500" x="22" y="7" width="2.6" height="4" rx="1.3"/><rect fill="#79C500" x="6" y="7" width="2.6" height="4" rx="1.3"/></g><g><path d="M85.46 25h20.08a3 3 0 0 1 2.36 1.149l7.556 9.632a3 3 0 0 1-.116 3.842L97.745 59.468a3 3 0 0 1-4.49 0L75.66 39.623a3 3 0 0 1-.116-3.842l7.555-9.632A3 3 0 0 1 85.46 25z" fill="#BBF2FF"/><path d="M103.851 29.641l-4.199 5.999a1.5 1.5 0 0 0 1.229 2.36h8.998a1.5 1.5 0 0 0 1.171-2.437l-4.799-5.999a1.5 1.5 0 0 0-2.4.077z" fill="#7CE3FF"/><path d="M90.12 28h9.76a1.5 1.5 0 0 1 1.17 2.437l-4.879 6.099a1.5 1.5 0 0 1-2.342 0l-4.88-6.099A1.5 1.5 0 0 1 90.122 28z" fill="#FFF"/><path d="M82.135 40h8.063a1 1 0 0 1 .976.783l2.932 13.194a1 1 0 0 1-1.744.857L81.367 41.64a1 1 0 0 1 .768-1.64z" fill="#7CE3FF"/><path d="M108.865 40h-8.063a1 1 0 0 0-.976.783l-2.932 13.194a1 1 0 0 0 1.744.857l10.995-13.194a1 1 0 0 0-.768-1.64z" fill="#FFF"/></g><g transform="translate(73 54)"><mask id="b" fill="#fff"><use xlink:href="#a"/></mask><use fill="#FFF" xlink:href="#a"/><g mask="url(#b)" fill-rule="nonzero"><g transform="rotate(-104 16.14 -3.578)"><rect stroke="#79C500" stroke-width="2" fill="#9ED926" x="1" y="1" width="29" height="15.2" rx="1.8"/><rect stroke="none" fill="#79C500" x="10.6" y="3.2" width="9.8" height="12.6" rx="4.9"/><rect stroke="none" fill="#79C500" x="25.8" y="11.4" width="4" height="5.6" rx="2"/><rect stroke="none" fill="#79C500" x="25.8" y=".2" width="4" height="5.6" rx="2"/><rect stroke="none" fill="#79C500" x="1.2" y="11.4" width="4" height="5.6" rx="2"/><rect stroke="none" fill="#79C500" x="1.2" y=".2" width="4" height="5.6" rx="2"/><rect stroke="none" fill="#79C500" x="22" y="7" width="2.6" height="4" rx="1.3"/><rect stroke="none" fill="#79C500" x="6" y="7" width="2.6" height="4" rx="1.3"/></g></g></g><path d="M81.34 14.982l.983 5.265 3.037 1.012a.855.855 0 0 1 0 1.622l-3.037 1.013-.974 8.348a.855.855 0 0 1-1.698 0l-.974-8.348-3.037-1.013a.855.855 0 0 1 0-1.622l3.037-1.012.983-5.265a.855.855 0 0 1 1.68 0z" fill="#FFF"/><path d="M81.527 76.262h2.72a10.192 10.192 0 0 0 11.815 3.143l7.793-3.143h4.71" stroke="#E59B80" stroke-width="7" stroke-linecap="round" stroke-linejoin="round"/><rect fill="#FFF" transform="rotate(45 74.5 29.5)" x="73" y="28" width="3" height="3" rx="1"/></g></svg>