<svg viewBox="0 0 135 124" version="1.1" xmlns="http://www.w3.org/2000/svg" xmlns:xlink="http://www.w3.org/1999/xlink"><defs><path d="M24.542.76a3.78 3.78 0 1 1 4.172 6.304 24.48 24.48 0 0 1-27.02 0A3.78 3.78 0 1 1 5.866.759a16.92 16.92 0 0 0 18.676 0z" id="a"/></defs><g stroke="none" stroke-width="1" fill="none" fill-rule="evenodd"><g transform="translate(11 11)"><rect fill="#47D7FF" x="0" y="0" width="113" height="113" rx="17"/><path d="M9.35 26.508l7.363 3.125L0 69.01V28.844a8.004 8.004 0 0 1 9.35-2.336z" fill="#FFB49E"/><path d="M43.524 74.615l1.531 10.893a8 8 0 0 1-6.808 9.036L.44 99.857C.152 98.618 0 97.327 0 96V72.654l34.489-4.847a8 8 0 0 1 9.035 6.808z" fill="#2B70C8"/><path d="M10 20a3 3 0 0 1 2.995 2.824L13 23v89.527a16.924 16.924 0 0 1-6.001-2.779L7 23a3 3 0 0 1 3-3z" fill="#FF4B4B"/></g><path d="M48.308 79h40.729c7.456 0 13.5 6.044 13.5 13.5a13.5 13.5 0 0 1-.089 1.544L99 124H37l-2.159-30.548c-.525-7.438 5.078-13.893 12.515-14.418a13.5 13.5 0 0 1 .952-.034z" fill="#2B70C8"/><path d="M97.41 88.77a8 8 0 0 1 11.229 1.378l15.17 19.414c-1.228 8.12-8.198 14.355-16.64 14.437L86.377 97.39z" fill="#2B70C8"/><g transform="translate(29)"><circle fill="#FFB49E" fill-rule="nonzero" cx="10.886" cy="64.455" r="10.716"/><circle fill="#FFB49E" fill-rule="nonzero" cx="68.437" cy="64.455" r="10.716"/><path d="M68.191 33.251v30.24a28.936 28.936 0 0 1-28.936 28.993 28.955 28.955 0 0 1-28.973-28.955V33.29c0-9.31 7.548-16.859 16.858-16.859h24.192c9.297 0 16.838 7.525 16.86 16.821z" fill="#FFB49E" fill-rule="nonzero"/><rect fill="#FFF" fill-rule="nonzero" x="20.488" y="47.445" width="14.685" height="20.336" rx="7.343"/><rect fill="#4B4B4B" fill-rule="nonzero" x="26.555" y="50.482" width="5.897" height="9.639" rx="2.948"/><rect fill="#FFF" fill-rule="nonzero" transform="rotate(180 50.643 57.595)" x="43.3" y="47.426" width="14.685" height="20.336" rx="7.343"/><rect fill="#4B4B4B" fill-rule="nonzero" transform="rotate(180 48.894 55.32)" x="45.946" y="50.501" width="5.897" height="9.639" rx="2.948"/><rect fill="#FF9780" fill-rule="nonzero" x="36.137" y="46.16" width="6.218" height="23.001" rx="2.665"/><path d="M10.338 60.033l2.268-9.45a59.875 59.875 0 0 0 1.701-14.194V26.56h48.384l.492 9.809c.212 4.378.903 8.719 2.06 12.946l2.93 10.717c.505-1.923.815-3.893.925-5.878l.832-13.684A30.75 30.75 0 0 0 39.255 7.888 30.75 30.75 0 0 0 8.562 40.452L9.45 54.08c.113 2.013.436 4.008.964 5.954h-.076z" fill="#F68F00" fill-rule="nonzero"/><path d="M37.82.653l7.889.685a2.873 2.873 0 0 1 2.613 3.11l-.464 5.347-13.613-1.181.466-5.366A2.873 2.873 0 0 1 37.819.653z" fill="#1CAFF5" fill-rule="nonzero"/><path d="M71.442 25.2v18.465c.02.182.02.366 0 .548h-7.409l-5.349-2.816a41.958 41.958 0 0 0-39.104 0L14.402 44.1H7.125a2.892 2.892 0 0 1 0-.567V25.2a8.788 8.788 0 0 1 4.385-7.56L29.9 6.867a18.73 18.73 0 0 1 18.73 0l18.427 10.64a8.75 8.75 0 0 1 4.385 7.693z" fill="#1898D5" fill-rule="nonzero"/><path d="M8.789 45.196A6.558 6.558 0 0 1 3.25 42.21C-.964 35.5 7.144 30.473 23.549 30.473c16.406 0 36.27 5.198 46.816 12.04 1.474.963 1.53 2.721.113 2.721l-61.69-.038z" fill="#2B70C8" fill-rule="nonzero"/><circle fill="#FF9C86" fill-rule="nonzero" cx="60.02" cy="66.352" r="1.644"/><circle fill="#FF9C86" fill-rule="nonzero" cx="62.628" cy="70.094" r="1.644"/><circle fill="#FF9C86" fill-rule="nonzero" cx="57.79" cy="70.094" r="1.644"/><circle fill="#FF9C86" fill-rule="nonzero" cx="18.566" cy="66.352" r="1.644"/><circle fill="#FF9C86" fill-rule="nonzero" cx="21.174" cy="70.094" r="1.644"/><circle fill="#FF9C86" fill-rule="nonzero" cx="16.336" cy="70.094" r="1.644"/><path d="M43.47 65.967c4.531-2.217 9.281-3.326 14.25-3.326 4.97 0 2.53 2.593-7.32 7.78l-6.93-4.454zM35.02 65.967c-4.53-2.217-9.281-3.326-14.25-3.326-4.97 0-2.53 2.593 7.32 7.78l6.93-4.454z" fill="#FFB49E"/><g transform="translate(24.462 70)"><mask id="b" fill="#fff"><use xlink:href="#a"/></mask><use fill="#A24242" fill-rule="nonzero" xlink:href="#a"/><rect fill="#FFF" mask="url(#b)" x="2.538" y="-7" width="25" height="12" rx="3"/><rect fill="#FFF" mask="url(#b)" x="2.538" y="4" width="25" height="12" rx="3"/></g></g><rect fill="#FFB49E" x="123" y="90" width="10" height="10" rx="5"/><rect fill="#FFB49E" x="112" y="95" width="22" height="22" rx="11"/><rect fill="#CD7900" x="112" y="87" width="13" height="13" rx="6.5"/><rect fill="#CD7900" x="88" y="90" width="10" height="10" rx="5"/><rect fill="#CD7900" x="95" y="79" width="23" height="23" rx="11.5"/><rect fill="#AD6600" transform="rotate(45 105.5 86.5)" x="103" y="84" width="5" height="5" rx="1.5"/><rect fill="#AD6600" transform="rotate(45 113.5 90.793)" x="111.5" y="88.793" width="4" height="4" rx="1.5"/><rect fill="#AD6600" transform="rotate(45 100.5 94.5)" x="98" y="92" width="5" height="5" rx="1.5"/><path d="M128 95a2 2 0 0 1 0 4h-1.667l-3.65 10.949a3 3 0 0 1-2.845 2.051H92.162a3 3 0 0 1-2.846-2.051L85.667 99H84a2 2 0 1 1 0-4h44z" fill="#D8D8D8"/><path d="M116.558 99h2.124a1 1 0 0 1 .963 1.27l-2.24 8a1 1 0 0 1-.963.73h-2.124a1 1 0 0 1-.963-1.27l2.24-8a1 1 0 0 1 .963-.73z" fill="#FFF"/><path d="M20.397 29.49c2.573 5.482-1.936 2.245-13.526-9.713a9.435 9.435 0 0 1 3.981-15.579 7.273 7.273 0 0 1 9.18 8.825c-1.78 6.665-1.659 12.154.365 16.467z" stroke="#FF4B4B" stroke-width="5" stroke-linejoin="round"/><rect fill="#FFB49E" x="7" y="30" width="22" height="22" rx="11"/><rect fill="#FFB49E" transform="rotate(-113 25.265 32.344)" x="19.765" y="27.844" width="11" height="9" rx="4.5"/></g></svg>