<svg viewBox="0 0 135 124" fill="none" xmlns="http://www.w3.org/2000/svg"><path d="M107 11H28c-9.389 0-17 7.611-17 17v79c0 9.389 7.611 17 17 17h79c9.389 0 17-7.611 17-17V28c0-9.389-7.611-17-17-17z" fill="#E5E5E5"/><path d="M22.234 59.992l-7.906-14.75a1 1 0 0 1 .761-1.465l9.241-1.118a1 1 0 0 1 1.117 1.076l-1.335 15.868c-.084.992-1.408 1.266-1.878.389z" fill="#D1D1D1"/><path fill-rule="evenodd" clip-rule="evenodd" d="M79.939 2.983c14.886 0 26.954 12.114 26.954 27.058 0 14.943-12.068 27.057-26.954 27.057-14.887 0-26.955-12.114-26.955-27.057 0-14.944 12.068-27.058 26.955-27.058z" fill="#B2B2B2"/><path fill-rule="evenodd" clip-rule="evenodd" d="M100.903 8.996c7.719 0 13.976 6.281 13.976 14.03v6.012c0 7.749-6.257 14.03-13.976 14.03-7.719 0-13.976-6.281-13.976-14.03v-6.012c0-7.749 6.257-14.03 13.976-14.03z" fill="#B2B2B2"/><path d="M76.966 92.136l11.92 6.958a13.931 13.931 0 0 0 14.052 0l11.919-6.958a10.02 10.02 0 0 0 4.816-6.937l6.678-38.334c2.089-11.994-5.903-23.417-17.852-25.514a21.877 21.877 0 0 0-3.783-.33H87.107c-12.13 0-21.963 9.87-21.963 22.047 0 1.273.11 2.543.329 3.797L72.15 85.2a10.02 10.02 0 0 0 4.816 6.937z" fill="#BFBFBF"/><path d="M121.67 57.428l-5.785 1.556c-4.793 1.29-7.638 6.235-6.354 11.046 1.285 4.811 6.211 7.667 11.005 6.377l5.785-1.556c4.793-1.289 7.638-6.234 6.354-11.046-1.285-4.811-6.211-7.666-11.005-6.377zM69.207 57.428l5.786 1.556c4.793 1.29 7.638 6.235 6.353 11.046-1.284 4.811-6.21 7.667-11.004 6.377l-5.785-1.556c-4.794-1.289-7.638-6.234-6.354-11.046 1.285-4.811 6.211-7.666 11.004-6.377z" fill="#BFBFBF"/><path fill-rule="evenodd" clip-rule="evenodd" d="M97.929 58.837l1.825 16.492a3.433 3.433 0 0 1-3.402 3.815h-.718a3.43 3.43 0 0 1-3.402-3.815l1.826-16.492a1.95 1.95 0 0 1 1.935-1.74 1.95 1.95 0 0 1 1.936 1.74z" fill="#B2B2B2"/><path d="M74.448 45.077h7.487c4.962 0 8.985 3.916 8.985 8.746v5.83c0 .805-.67 1.458-1.498 1.458h-7.487c-4.962 0-8.985-3.916-8.985-8.746v-5.83c0-.805.67-1.458 1.498-1.458z" fill="#B2B2B2"/><path d="M74.213 49.737h7.594c5.033 0 9.113 3.355 9.113 7.493v8.537c0 .69-.68 1.249-1.519 1.249h-7.594c-5.033 0-9.113-3.355-9.113-7.492v-8.538c0-.69.68-1.249 1.52-1.249z" fill="#fff"/><path fill-rule="evenodd" clip-rule="evenodd" d="M122.952 73.132h3.821c.973 0 1.804.703 1.968 1.665l1.711 10.022a2.003 2.003 0 0 1-1.968 2.343h-7.243a2 2 0 0 1-1.968-2.343l1.711-10.022a2 2 0 0 1 1.968-1.665z" fill="#B2B2B2"/><path d="M104.716 21.021c1.268 0 2.534.11 3.783.33 11.352 1.992 19.132 12.402 18.09 23.722H65.236a22.102 22.102 0 0 1-.092-2.005c0-12.176 9.834-22.046 21.963-22.046h17.609z" fill="#B2B2B2"/><path fill-rule="evenodd" clip-rule="evenodd" d="M86.927 33.047h21.366c6.946 0 12.577 5.652 12.577 12.624H80.937V39.06c0-3.321 2.682-6.013 5.99-6.013z" fill="#BFBFBF"/><path d="M126.593 41.064c.171 1.893.099 3.84-.243 5.801l-2.122 12.186a4.005 4.005 0 0 1-3.359-3.958v-14.03l5.724.001z" fill="#B2B2B2"/><path fill-rule="evenodd" clip-rule="evenodd" d="M100.903 11c7.719 0 13.976 6.281 13.976 14.03v6.012c0 7.749-6.257 14.03-13.976 14.03-7.719 0-13.976-6.281-13.976-14.03V25.03c0-7.749 6.257-14.03 13.976-14.03z" fill="#B2B2B2"/><path d="M70.773 41.066v14.03a4.005 4.005 0 0 1-3.358 3.958l-2.123-12.186a22.131 22.131 0 0 1-.239-5.803h5.72z" fill="#BFBFBF"/><path fill-rule="evenodd" clip-rule="evenodd" d="M74.015 7.534c7.72 0 13.977 6.282 13.977 14.03v20.042c0 7.748-6.258 14.03-13.977 14.03S60.04 49.354 60.04 41.606V21.564c0-7.748 6.257-14.03 13.976-14.03z" fill="#B2B2B2"/><path fill-rule="evenodd" clip-rule="evenodd" d="M123.848 77.14h1.97a1.211 1.211 0 0 0 1.149-1.594l-.071-.216a1.998 1.998 0 0 0-1.897-1.377h-.391c-.893 0-1.677.595-1.921 1.457l-.039.136a1.253 1.253 0 0 0 1.2 1.594z" fill="#D1D1D1"/><path d="M76.033 56.858a3.743 3.743 0 1 1 7.486 0v4.666a3.743 3.743 0 0 1-7.486 0v-4.666zM104.097 89.379c0 4.886-3.91.586-8.734.586-4.823 0-8.733 4.3-8.733-.586s3.91-8.848 8.733-8.848c4.824 0 8.734 3.962 8.734 8.848z" fill="#B2B2B2"/><rect y="7.534" width="46.32" height="39" rx="8" transform="rotate(-6.903 0 7.534)" fill="#D1D1D1"/><path d="M95.528 105.51a1 1 0 0 1 .848-1.075l1.8-.269a1 1 0 0 1 1.125.779l2.685 12.535a1 1 0 0 1-.83 1.199l-3.381.506a1 1 0 0 1-1.144-.903l-1.103-12.772zM105.893 103.289a1 1 0 0 1-.16-1.36l1.082-1.463a1 1 0 0 1 1.347-.245l10.762 6.965c.484.314.604.971.261 1.435l-2.033 2.748a1 1 0 0 1-1.448.171l-9.811-8.251zM85.266 103.648a1 1 0 0 1 1.36-.161l1.463 1.082a1 1 0 0 1 .245 1.348l-6.966 10.762a1 1 0 0 1-1.434.261l-2.749-2.034a1 1 0 0 1-.17-1.447l8.25-9.811zM58.438 53.377a1 1 0 0 1-.043 1.369l-1.287 1.287a1 1 0 0 1-1.369.042l-9.612-8.481a1 1 0 0 1-.046-1.457l2.418-2.418a1 1 0 0 1 1.457.046l8.481 9.612z" fill="#fff"/><path fill-rule="evenodd" clip-rule="evenodd" d="M31.825 29.636c-1.434.072-2.618-.925-2.702-2.625-.064-1.296.178-2.526 1.457-4.213l1.916-2.571c1.066-1.393 1.397-2.343 1.347-3.355-.078-1.579-1.113-2.623-2.622-2.549-1.396.07-2.113.877-2.544 2.116-.468 1.24-1.346 1.853-2.327 1.901-1.434.072-2.463-.851-2.537-2.35-.016-.324.04-.732.135-1.102.724-2.959 3.297-5.238 7.146-5.429 4.49-.223 7.741 2.781 7.947 6.952.102 2.065-.424 3.674-1.776 5.405l-2.202 2.91c-.604.802-.802 1.38-.77 2.028.084 1.7-1.072 2.813-2.468 2.882zm-2.85 5.094c-.09-1.822 1.232-3.39 2.93-3.474 1.698-.084 3.168 1.344 3.258 3.166.09 1.823-1.233 3.39-2.93 3.474-1.699.085-3.169-1.344-3.259-3.166zM18.434 36.622c-.35-1.79.734-3.532 2.402-3.861 1.668-.33 3.328.872 3.678 2.662.35 1.79-.733 3.532-2.401 3.861-1.668.33-3.328-.872-3.679-2.662z" fill="#B2B2B2"/><path d="M13.695 12.82a1 1 0 0 1 .777-1.225l3.819-.75a1 1 0 0 1 1.183.84l2.4 16.853a1 1 0 0 1-.798 1.122l-2.063.406a1 1 0 0 1-1.162-.738L13.695 12.82z" fill="#B2B2B2"/><path fill-rule="evenodd" clip-rule="evenodd" d="M46.983 59.01c5.308.469 9.228 5.163 8.758 10.481l-.128 1.445-19.221-1.7.128-1.444c.47-5.318 5.155-9.251 10.463-8.782z" fill="#B2B2B2"/><path d="M35.885 67.55c5.667.501 10.661-3.614 11.154-9.192.493-5.577-3.702-10.505-9.368-11.006-5.67-.502-10.663 3.614-11.156 9.192-.494 5.577 3.701 10.505 9.37 11.006z" fill="#B2B2B2"/><path d="M14.932 78.01c.604-6.837 6.637-11.89 13.474-11.285l36.488 3.226c6.838.604 11.89 6.637 11.286 13.474l-1.997 22.59c-.604 6.837-6.637 11.89-13.474 11.285l-36.488-3.225c-6.837-.605-11.89-6.637-11.286-13.474l1.997-22.59z" fill="#D1D1D1"/><path fill-rule="evenodd" clip-rule="evenodd" d="M28.748 80.734a7.71 7.71 0 0 1 15.36 1.358l-.412 4.672a7.71 7.71 0 0 1-15.361-1.358l.413-4.672z" fill="#fff"/><path fill-rule="evenodd" clip-rule="evenodd" d="M40.378 76.242a3.462 3.462 0 0 1 3.144 3.753l-.383 4.331a3.462 3.462 0 0 1-6.896-.61l.356-4.037.163.02a2.78 2.78 0 0 0 2.94-3.45c.22-.024.447-.027.676-.007z" fill="#B2B2B2"/><path fill-rule="evenodd" clip-rule="evenodd" d="M46.726 82.323a7.71 7.71 0 1 1 15.361 1.358l-.413 4.672a7.71 7.71 0 1 1-15.36-1.358l.412-4.672z" fill="#fff"/><path fill-rule="evenodd" clip-rule="evenodd" d="M56.569 76.952a3.461 3.461 0 0 1 3.143 3.753l-.383 4.331a3.462 3.462 0 0 1-6.896-.61l.356-4.037.163.02a2.78 2.78 0 0 0 2.941-3.45c.22-.024.446-.027.676-.007zM44.166 96.431a2.858 2.858 0 0 0 3.099-2.594c.139-1.572-2.38-5.54-2.38-5.54l-.299.335c-.794.908-2.903 3.427-3.015 4.702a2.858 2.858 0 0 0 2.595 3.097z" fill="#B2B2B2"/><path d="M23.501 67.272c-4.61 1.486-8.116 5.61-8.57 10.738l-.82 9.285 1.225.108a7.359 7.359 0 0 0 7.978-6.682l1.214-13.732c-.348.08-.69.174-1.027.283zM40.87 97.558c-4.217-1.964-9.127-.622-11.806 2.961-.662.885-.213 2.092.788 2.559l13.88 6.466c1.001.467 2.215.034 2.466-1.042 1.02-4.357-1.111-8.979-5.328-10.944z" fill="#B2B2B2"/><path d="M41.342 108.431a5.79 5.79 0 0 0-3.326-4.745 5.792 5.792 0 0 0-5.773.506l9.099 4.239z" fill="#BFBFBF"/><path fill="#D1D1D1" d="M28.811 71.37l18.594 3.273-1.24 7.047-18.594-3.272zM27.648 84.314l14.88 6.933-2.447 5.251-14.88-6.932zM17.486 89.973a5.478 5.478 0 1 1-10.914-.964 5.478 5.478 0 0 1 10.914.964z"/><path d="M117.375 45.076h-7.487c-4.962 0-8.985 3.916-8.985 8.746v5.83c0 .805.671 1.458 1.498 1.458h7.487c4.962 0 8.985-3.916 8.985-8.746v-5.83c0-.805-.671-1.458-1.498-1.458z" fill="#B2B2B2"/><path d="M117.61 49.737h-7.594c-5.033 0-9.113 3.355-9.113 7.493v8.537c0 .69.68 1.249 1.519 1.249h7.594c5.033 0 9.113-3.355 9.113-7.492v-8.538c0-.69-.68-1.249-1.519-1.249z" fill="#fff"/><path d="M108.654 56.857a3.742 3.742 0 1 0-7.485 0v4.666a3.743 3.743 0 1 0 7.485 0v-4.666zM75.358 92.71l-1.166-.104a7.359 7.359 0 0 1-6.682-7.978l1.212-13.713c4.79 2.065 7.942 7.029 7.457 12.51l-.82 9.285z" fill="#B2B2B2"/><path d="M82.154 95.69a5.479 5.479 0 1 1-10.915-.965 5.479 5.479 0 0 1 10.915.965z" fill="#D1D1D1"/></svg>