<svg viewBox="0 0 135 124" version="1.1" xmlns="http://www.w3.org/2000/svg"><g stroke="none" stroke-width="1" fill="none" fill-rule="evenodd"><path d="M28 11h79c9.389 0 17 7.611 17 17v79c0 9.389-7.611 17-17 17H28c-9.389 0-17-7.611-17-17V28c0-9.389 7.611-17 17-17z" fill="#CFCFCF"/><g transform="translate(-2 4)"><path d="M102 87c9.456 0 17.984 3.977 24 10.35V103c0 9.389-7.611 17-17 17H65c0-18.225 14.775-33 33-33h4z" fill="#B2B2B2"/><path d="M90 80h19v10.5a9.5 9.5 0 0 1-19 0V80z" fill="#D9D9D9"/><path d="M103.333 3.143c19.421 1.358 34.064 18.203 32.706 37.624l-2.93 41.896a6.75 6.75 0 0 1-7.204 6.263L69.042 84.95a6.75 6.75 0 0 1-6.262-7.205l2.93-41.896c1.357-19.421 18.202-34.064 37.623-32.706z" fill="#B2B2B2"/><path d="M85.79 28.23l31.75 2.22c5.372.376 9.422 5.035 9.047 10.407l-1.734 24.8c-.99 14.14-13.253 24.801-27.392 23.812-14.14-.988-24.8-13.252-23.812-27.392l1.734-24.8c.376-5.373 5.035-9.423 10.407-9.047z" fill="#D9D9D9"/><rect fill="#D9D9D9" transform="rotate(4 99.6 61.9)" x="62.475" y="53.275" width="74.25" height="17.25" rx="8.625"/><rect fill="#B2B2B2" transform="rotate(4 99.835 58.534)" x="96.46" y="51.034" width="6.75" height="15" rx="2.25"/><path d="M112.373 45.877l10.475.733a7.5 7.5 0 0 1 6.958 8.005l-.261 3.74a7.5 7.5 0 0 1-8.005 6.96l-10.475-.733a7.5 7.5 0 0 1-6.958-8.005l.261-3.741a7.5 7.5 0 0 1 8.005-6.959zM78.706 43.523l10.474.732a7.5 7.5 0 0 1 6.959 8.005l-.262 3.741a7.5 7.5 0 0 1-8.005 6.959l-10.474-.733a7.5 7.5 0 0 1-6.959-8.005l.262-3.74a7.5 7.5 0 0 1 8.005-6.959z" fill="#FFF"/><path fill="#C2C2C2" d="M96.348 49.268l8.23.575-.262 3.741-8.23-.575z"/><rect fill="#B2B2B2" transform="rotate(4 109.86 56.728)" x="106.86" y="52.228" width="6" height="9" rx="3"/><rect fill="#B2B2B2" transform="rotate(4 89.16 55.281)" x="86.161" y="50.781" width="6" height="9" rx="3"/><path d="M129.131 52.875l.047.886a25.68 25.68 0 0 1-20.993-5.633l-.886-.745a7.467 7.467 0 0 1 3.465-1.055l10.485-.55a7.5 7.5 0 0 1 7.882 7.097zM72.875 48.941l-.17.872a25.68 25.68 0 0 0 21.573-2.658l.98-.614a7.467 7.467 0 0 0-3.283-1.527L81.668 43.01a7.5 7.5 0 0 0-8.793 5.931z" fill="#D9D9D9"/><path d="M112.373 45.877l10.475.733a7.5 7.5 0 0 1 6.958 8.005l-.261 3.74a7.5 7.5 0 0 1-8.005 6.96l-10.475-.733a7.5 7.5 0 0 1-6.958-8.005l.261-3.741a7.5 7.5 0 0 1 8.005-6.959zM78.706 43.523l10.474.732a7.5 7.5 0 0 1 6.959 8.005l-.262 3.741a7.5 7.5 0 0 1-8.005 6.959l-10.474-.733a7.5 7.5 0 0 1-6.959-8.005l.262-3.74a7.5 7.5 0 0 1 8.005-6.959z" stroke="#C2C2C2" stroke-width="3"/><path d="M72.926 18.664l55.92.64A50.782 50.782 0 0 1 92.33 46.451L66.79 50.96l6.135-32.296z" fill="#B2B2B2"/><path d="M93.025 71.87a8.001 8.001 0 0 1 8.583.842" stroke="#B2B2B2" stroke-width="3" stroke-linecap="round" stroke-linejoin="round"/><path d="M39.5 100l21.715 2.386c8.871.974 15.615 8.388 15.782 17.276L77 120H30c-9.053 0-16.453-7.076-16.971-16a17.705 17.705 0 0 1 5.75-1.661L39.5 100z" fill="#C4C2C2"/><path d="M28.447 95h22.106v8.947c0 6.105-4.949 11.053-11.053 11.053-6.104 0-11.053-4.948-11.053-11.053V95z" stroke="#B2B2B2" stroke-width="4" fill="#DDD" stroke-linejoin="round"/><rect fill="#DDD" x="4" y="58.72" width="71.44" height="19" rx="9.5"/><rect fill="#EBEBEB" transform="rotate(7 19.18 19.643)" x="2.179" y="2.143" width="34" height="35" rx="17"/><rect fill="#C8C8C8" transform="rotate(7 24.143 27.77)" x="14.761" y="18.271" width="18.765" height="19" rx="9.383"/><rect fill="#EBEBEB" x="9" y="21" width="62.32" height="63.08" rx="30.4"/><rect fill="#DDD" x="13" y="26" width="54.72" height="77.52" rx="27.36"/><rect fill="#EBEBEB" x="8.56" y="52.6" width="5.32" height="35" rx="2.66"/><rect fill="#B2B2B2" x="36.609" y="64.967" width="6.08" height="19.76" rx="3.04"/><rect fill="#FFF" x="44.28" y="62" width="15.2" height="20.52" rx="7.22"/><rect fill="#FFF" x="19.96" y="62" width="15.2" height="20.52" rx="7.22"/><rect fill="#B2B2B2" x="46.56" y="68.08" width="8" height="12" rx="4"/><rect fill="#B2B2B2" x="25.64" y="68.08" width="8" height="12" rx="4"/><path d="M46.468 94.75a9.5 9.5 0 0 0-13.436 0" stroke="#B2B2B2" stroke-width="2" stroke-linecap="round" stroke-linejoin="round"/><path d="M58 56l4.359 10.753c-5.687 2.183-11.884.672-15.946-3.356-.428-.424 1.75-1.145 3.187-2.147 1.224-.854 4.024-2.604 8.4-5.25z" fill="#DDD"/><circle fill="#FFF" cx="47.5" cy="69.5" r="2.5"/><circle fill="#FFF" cx="26.5" cy="69.5" r="2.5"/><rect fill="#EBEBEB" x="65.56" y="52.6" width="5.32" height="35" rx="2.66"/><path d="M56.346 77.241a3.25 3.25 0 1 1 5.287 3.78c-2.687 3.76-6.967 5.778-11.342 5.085a3.25 3.25 0 0 1 .834-6.443l.183.023c1.753.278 3.57-.535 4.877-2.229l.16-.216zM23.363 77.241a3.25 3.25 0 1 0-5.288 3.78c2.688 3.76 6.967 5.778 11.342 5.085a3.25 3.25 0 0 0-.833-6.443l-.183.023c-1.826.29-3.722-.605-5.038-2.445z" fill="#C5C5C5" fill-rule="nonzero"/><path d="M24.974 89.174l3.607 6.997A5.37 5.37 0 0 1 23.808 104a5.195 5.195 0 0 1-4.547-7.709l3.95-7.143a1 1 0 0 1 1.763.026z" fill="#F2F2F2"/><path d="M59.454 75.914l-.01.11a7.22 7.22 0 0 1-7.184 6.496h-.76c-1.332 0-2.58-.36-3.65-.99a3.252 3.252 0 0 1 3.275-1.867l.183.023c1.753.278 3.57-.535 4.877-2.229l.16-.216a3.25 3.25 0 0 1 3.109-1.327zM20.184 75.925a3.25 3.25 0 0 1 3.18 1.316c1.315 1.84 3.21 2.735 5.037 2.445l.183-.023a3.252 3.252 0 0 1 3.229 1.771 7.186 7.186 0 0 1-3.81 1.086h-.76a7.22 7.22 0 0 1-7.19-6.57zM37.038 24.76l22.62 4.339 3.392 7.552.005-.011.006.035.112.246.13-.029.158-.029a3.42 3.42 0 0 1 3.884 2.685l.029.158L69.75 54.72a3.42 3.42 0 0 1-2.684 3.884l-.055.01 2.93 16.268a39.363 39.363 0 0 1-9.699-25.443l-.003-.495c0-1.466-.198-.784 0-2.018C52.953 57.397 46.117 63.875 33.64 67c-8.318 2.083-15.773 2.51-22.366 1.28l2.274-9.784-3.268-.518 3.447-21.769 3.729.59 2.788-7.379 16.794-4.66z" fill="#EBEBEB"/></g></g></svg>