<svg viewBox="0 0 135 124" fill="none" xmlns="http://www.w3.org/2000/svg"><g clip-path="url(#clip0)"><path d="M11 28c0-9.389 7.611-17 17-17h79c9.389 0 17 7.611 17 17v79c0 9.389-7.611 17-17 17H28c-9.389 0-17-7.611-17-17V28z" fill="#FFCA00"/><path d="M122.278 20.93L20.758 122.45a16.937 16.937 0 0 0 7.08 1.56h41.32l54.68-54.68V28.01a16.938 16.938 0 0 0-1.56-7.08zm-72.12 48.14l58-58c-.43 0-.87-.07-1.31-.07h-48.59l-33.08 33.09c-6.904 6.904-6.904 18.096 0 25 6.903 6.904 18.096 6.904 25 0l-.02-.02z" fill="#FFD900"/><path d="M20.527 21.9l33.223-2.026 1.24 20.327-33.223 2.027-1.24-20.328z" fill="#E27903"/><path d="M29.817 36.672c-3.958 4.266-10.624 4.515-14.89.556l-3.699-3.433c-4.265-3.958-4.514-10.624-.556-14.89l3.84-4.136c3.957-4.265 10.623-4.514 14.889-.556l3.7 3.433c4.264 3.958 4.513 10.624.555 14.89l-3.839 4.136zM49.57 35.316c4.448 3.753 11.095 3.19 14.847-1.257l3.255-3.858c3.753-4.447 3.19-11.094-1.257-14.847l-4.314-3.64c-4.447-3.752-11.094-3.189-14.846 1.258L44 16.83c-3.753 4.447-3.19 11.094 1.257 14.847l4.314 3.64z" fill="#E27903"/><path d="M23.695 13.233C23.341 7.425 27.762 2.43 33.57 2.076l7.6-.464c5.809-.354 10.804 4.067 11.158 9.875l.384 6.289c.354 5.808-4.067 10.803-9.875 11.158l-7.6.463c-5.808.354-10.804-4.067-11.158-9.875l-.384-6.289z" fill="#E27903"/><path d="M52.913 37.888a8.07 8.07 0 0 1 8.547 7.565l1.229 20.139A9.483 9.483 0 0 1 53.8 75.635L30.44 77.06a9.483 9.483 0 0 1-10.043-8.889l-1.228-20.139a8.07 8.07 0 0 1 7.564-8.547l26.181-1.597z" fill="#F79B24"/><path d="M28.44 52.836a5.395 5.395 0 1 1 10.77-.656l.204 3.354a5.395 5.395 0 1 1-10.77.657l-.204-3.355zM42.257 51.994a5.395 5.395 0 1 1 10.77-.657l.204 3.354a5.395 5.395 0 0 1-10.77.657l-.204-3.354z" fill="#FFF1A2"/><path d="M33.414 53.398a1.994 1.994 0 0 0 1.858-2.12 2.002 2.002 0 0 0-.492-1.202c.146-.038.297-.062.453-.071 1.34-.083 2.494.948 2.576 2.302l.186 3.087c.082 1.354-.938 2.519-2.28 2.601-1.34.083-2.494-.948-2.575-2.302L33 53.38c.135.02.273.027.414.018zM39.453 60.927a1.764 1.764 0 1 0 3.52-.215c-.059-.972-1.883-3.124-1.957-3.12-.073.005-1.623 2.363-1.563 3.335z" fill="#E27903"/><path d="M38.344 35.594a8.163 8.163 0 0 1 8.36-7.961l-.057 2.301a8.163 8.163 0 0 1-8.359 7.962l.056-2.302z" fill="#FDB02A"/><path d="M32.027 30.746a8.163 8.163 0 0 0 9.265 6.887l-.335-2.278a8.163 8.163 0 0 0-9.265-6.887l.335 2.278z" fill="#FDB02A"/><path d="M38.63 61.466a1.816 1.816 0 0 1 1.701-1.924l1.611-.098a1.816 1.816 0 1 1 .221 3.625l-1.61.099a1.816 1.816 0 0 1-1.924-1.702z" fill="#E27903"/><path d="M15.937 38.122l24.57-1.499.147 2.409L19.236 52.07l-3.3-13.948z" fill="#FDB02A"/><path d="M63.265 35.235l-24.57 1.498.147 2.409L61.685 49.48l1.58-14.246z" fill="#FDB02A"/><path d="M38.863 62.68c-2.045-2.978-6.641-3.848-10.865-2.44l1.117 3.035c4.152.59 11.377 1.778 9.748-.594zM66.551 53.688a4.812 4.812 0 1 1-9.606.586 4.812 4.812 0 0 1 9.606-.586zM24.411 56.455a4.812 4.812 0 1 1-9.606.586 4.812 4.812 0 0 1 9.606-.586z" fill="#F79B24"/><path d="M38.317 65.087a3.521 3.521 0 0 0-1.435-.57c-1.955-.31-3.797 1.049-4.113 3.037a3.656 3.656 0 0 0 1.22 3.355c1.064.995 2.794 1.798 4.823 2.121 2.03.323 3.923.098 5.244-.518a3.656 3.656 0 0 0 2.202-2.81c.316-1.988-1.012-3.852-2.967-4.164a3.52 3.52 0 0 0-1.54.096c-.588.17-1.196.33-1.798.234-.603-.096-1.131-.436-1.636-.78z" fill="#E27903"/><path d="M33.462 70.348c.155.205.331.393.527.56 1.064.997 2.794 1.8 4.823 2.123.955.152 1.88.182 2.73.108a5.448 5.448 0 0 0-8.08-2.79zM75.511 47.833h.002a7.792 7.792 0 0 1 8.422-6.92l36.577 3.183a7.793 7.793 0 0 1 7.1 8.271h.002l-3.112 35.76a2.697 2.697 0 0 0 2.452 2.92l5.275.46a1.124 1.124 0 0 1 1.022 1.216c-.526 6.047-5.855 10.523-11.902 9.997l-48.365-4.21c-6.047-.526-10.523-5.855-9.997-11.902a1.123 1.123 0 0 1 1.217-1.022l5.275.46a2.697 2.697 0 0 0 2.92-2.453l3.112-35.76z" fill="#FFB100"/><path d="M79.341 49.19l44.266 3.852-3.844 44.17-44.266-3.852 3.844-44.17z" fill="#FFD900"/><path d="M75.503 68.86a4.903 4.903 0 1 0 .85-9.77 4.903 4.903 0 0 0-.85 9.77zM123.99 73.08a4.903 4.903 0 1 0 .85-9.77 4.903 4.903 0 0 0-.85 9.77z" fill="#FFD900"/><path d="M73.257 93.96a1.348 1.348 0 0 1 1.46-1.227l45.922 3.997a1.348 1.348 0 0 1 1.226 1.46l-.396 4.551a1.348 1.348 0 0 1-1.46 1.226L74.087 99.97a1.348 1.348 0 0 1-1.226-1.46l.396-4.55z" fill="#F68B00"/><path d="M74.534 59.275a4.903 4.903 0 0 1 5.934 2.836 5.465 5.465 0 0 0 2.304-4.004l.595-6.84-8.075-.703-.758 8.71zM120.271 65.581a4.902 4.902 0 0 1 6.328-1.78l.758-8.705-8.075-.703-.596 6.84a5.466 5.466 0 0 0 1.585 4.348z" fill="#FFB100"/><path d="M74.19 46.279a1.348 1.348 0 0 1 1.46-1.226l52.306 4.552a1.348 1.348 0 0 1 1.226 1.46l-.322 3.706a1.348 1.348 0 0 1-1.46 1.227l-52.306-4.553a1.348 1.348 0 0 1-1.226-1.46l.323-3.706z" fill="#F68B00"/><path d="M103.08 52.638c5.988.52 11.264-3.91 11.785-9.898.521-5.988-3.91-11.264-9.898-11.785a10.875 10.875 0 0 0-9.674 4.343l-1.853-2.434c-.51-.67-1.51-.714-1.963-.004a9.453 9.453 0 0 0-1.45 4.281 9.488 9.488 0 0 0 3.792 8.444 10.883 10.883 0 0 0 9.261 7.053z" fill="#FFB100"/><path d="M95.196 95.262a.97.97 0 0 1 1.005-.66l2.953.258a.97.97 0 0 1 .876.823l1.239 8.246a.971.971 0 0 1-1.045 1.111l-6.836-.595a.97.97 0 0 1-.836-1.275l2.644-7.908z" fill="#FFF1A2"/><path fill-rule="evenodd" clip-rule="evenodd" d="M112.858 76.2c.307.211.384.63.173.938-3.095 4.497-7.965 4.697-10.052 4.224a.675.675 0 0 1 .298-1.315c1.736.394 5.957.23 8.644-3.674a.674.674 0 0 1 .937-.173zM85.884 51.724c1.697-2.035 4.399-3.22 7.296-3.111 1.59.06 3.082.5 4.36 1.235a2.217 2.217 0 1 1-2.21 3.843 5.011 5.011 0 0 0-2.315-.648c-1.613-.06-2.963.605-3.726 1.52a2.217 2.217 0 1 1-3.405-2.84zM114.315 56.197c-1.96-1.783-4.799-2.585-7.654-2.08a9.443 9.443 0 0 0-4.149 1.822 2.217 2.217 0 0 0 2.717 3.503 5.016 5.016 0 0 1 2.204-.96c1.59-.28 3.018.194 3.899.995a2.216 2.216 0 1 0 2.983-3.28z" fill="#FFB100"/><path d="M87.576 60.33l-.052.596a5.709 5.709 0 0 0 11.375.99l.052-.597-11.375-.99zM102.192 61.601l-.052.597a5.708 5.708 0 1 0 11.374.99l.052-.597-11.374-.99z" fill="#FFF1A2"/><path d="M87.794 60.348a2.604 2.604 0 0 0 4.939.43l-4.939-.43zM102.409 61.62a2.605 2.605 0 0 0 4.939.43l-4.939-.43z" fill="#F68B00"/><path fill-rule="evenodd" clip-rule="evenodd" d="M103.228 72.813a1.638 1.638 0 0 0-1.393.818c-.246.424-.617.854-1.107.862-.489.008-.905-.39-.787-.864a3.415 3.415 0 0 1 3.259-2.589l7.248-.116a3.415 3.415 0 0 1 3.34 2.483c.133.471-.27.881-.759.89-.49.007-.875-.411-1.134-.827a1.639 1.639 0 0 0-1.419-.773l-7.248.116z" fill="#FF9600"/><path d="M85.748 63.292l29.867 2.6-.34 3.906-29.867-2.6.34-3.906z" fill="#FFD900"/><path d="M100.398 62.778c.117.01 1.005 1.736 1.905 3.543.895 1.799-.533 3.868-2.535 3.694-2.001-.174-3.05-2.459-1.858-4.076 1.199-1.625 2.372-3.171 2.488-3.16z" fill="#FFB100"/><path d="M63.093 112.735a3.555 3.555 0 0 1-4.017-3.014l-4.092-28.702 7.03-1.002 4.093 28.701a3.555 3.555 0 0 1-3.014 4.017z" fill="#E27903"/><path d="M58.5 80.518l4.092 28.701a3.551 3.551 0 0 1-1.324 3.291c.56.227 1.185.316 1.825.225a3.555 3.555 0 0 0 3.015-4.017l-4.093-28.701-3.515.501z" fill="#F79B24"/><path d="M62.015 80.017l4.08 28.615c.272 1.904-.974 3.738-2.866 4.081a3.555 3.555 0 0 1-4.152-2.992l-4.39-30.786a.775.775 0 0 0-.877-.658L4.767 85.27a.775.775 0 0 0-.658.877l4.39 30.786c.396 2.777 2.992 4.725 5.77 4.329l49.043-6.993.004-.001c2.775-.398 4.721-2.993 4.326-5.769l-3.983-27.934a.775.775 0 0 0-.877-.657l-.767.109z" fill="#FFF1A2"/><path d="M52.37 87.385L8.696 93.612a.387.387 0 0 1-.439-.328l-.697-4.89a.387.387 0 0 1 .329-.438l43.674-6.228a.387.387 0 0 1 .438.329l.698 4.89a.387.387 0 0 1-.329.438z" fill="#E27903"/><path d="M13.926 116.571a.731.731 0 0 1-.826-.62l-2.712-19.014 14.473-2.064 2.815 19.738-13.75 1.96z" fill="#FFF1A2"/><path d="M53.55 94.289l-24.512 3.495a.194.194 0 0 1-.22-.164l-.15-1.055a.194.194 0 0 1 .165-.22l24.512-3.494a.194.194 0 0 1 .22.164l.15 1.055a.194.194 0 0 1-.165.219z" fill="#FFB100"/><path d="M35.013 93.284l-6.485.925a.194.194 0 0 1-.219-.164l-.15-1.055a.194.194 0 0 1 .164-.219l6.485-.925a.194.194 0 0 1 .22.165l.15 1.054a.194.194 0 0 1-.165.22zM36.033 100.435l-6.485.925a.194.194 0 0 1-.22-.165l-.15-1.054a.194.194 0 0 1 .165-.22l6.485-.924a.194.194 0 0 1 .22.164l.15 1.055a.193.193 0 0 1-.165.219zM37.053 107.586l-6.485.925a.194.194 0 0 1-.22-.165l-.15-1.054a.193.193 0 0 1 .165-.219l6.485-.925a.193.193 0 0 1 .219.164l.15 1.055a.193.193 0 0 1-.164.219z" fill="#E27903"/><path d="M53.04 90.714l-15.538 2.215a.194.194 0 0 1-.219-.164l-.15-1.055a.194.194 0 0 1 .164-.219l15.538-2.215a.194.194 0 0 1 .22.164l.15 1.055a.194.194 0 0 1-.165.219zM54.06 97.864l-15.538 2.216a.194.194 0 0 1-.219-.165l-.15-1.054a.194.194 0 0 1 .164-.22l15.538-2.215a.194.194 0 0 1 .22.164l.15 1.055a.194.194 0 0 1-.165.22zM55.08 105.015l-15.538 2.216a.194.194 0 0 1-.219-.165l-.15-1.054a.193.193 0 0 1 .164-.219l15.538-2.216a.194.194 0 0 1 .22.165l.15 1.054a.193.193 0 0 1-.165.219zM54.57 101.44l-24.512 3.496a.194.194 0 0 1-.22-.165l-.15-1.055a.193.193 0 0 1 .165-.219l24.512-3.495a.194.194 0 0 1 .22.164l.15 1.055a.193.193 0 0 1-.165.219zM55.59 108.592l-24.513 3.495a.194.194 0 0 1-.22-.165l-.15-1.054a.193.193 0 0 1 .165-.219l24.512-3.496a.194.194 0 0 1 .22.165l.15 1.055a.194.194 0 0 1-.165.219zM56.1 112.167l-24.513 3.495a.193.193 0 0 1-.219-.164l-.15-1.055a.193.193 0 0 1 .164-.219l24.513-3.495a.193.193 0 0 1 .219.164l.15 1.055a.193.193 0 0 1-.164.219zM28.886 116.156l-16.844 2.293a.193.193 0 0 1-.22-.164l-.15-1.055a.193.193 0 0 1 .165-.219l16.844-2.293a.193.193 0 0 1 .219.164l.15 1.055a.193.193 0 0 1-.164.219zM28.369 112.527l-16.845 2.294a.194.194 0 0 1-.219-.165l-.15-1.054a.193.193 0 0 1 .164-.219l16.844-2.294a.193.193 0 0 1 .22.164l.15 1.055a.193.193 0 0 1-.165.219z" fill="#FFB100"/><path fill-rule="evenodd" clip-rule="evenodd" d="M19.5 109.057a6.36 6.36 0 1 0-1.796-12.594 6.36 6.36 0 0 0 1.796 12.594zm.269 1.885a8.265 8.265 0 1 0-2.335-16.365 8.265 8.265 0 0 0 2.335 16.365z" fill="#FFB100"/><path fill-rule="evenodd" clip-rule="evenodd" d="M26.277 102.627l-15.02 2.142-.27-1.885 15.021-2.142.27 1.885z" fill="#FFB100"/><path fill-rule="evenodd" clip-rule="evenodd" d="M18.761 110.401L16.619 95.38l1.885-.269 2.142 15.021-1.885.269z" fill="#FFB100"/><path fill-rule="evenodd" clip-rule="evenodd" d="M23.948 97.26l-9.107 12.135-1.523-1.143 9.107-12.136 1.523 1.143z" fill="#FFB100"/><path fill-rule="evenodd" clip-rule="evenodd" d="M24.129 108.07l-12.136-9.106 1.143-1.524 12.136 9.107-1.143 1.523z" fill="#FFB100"/><path d="M22.948 102.14a4.391 4.391 0 1 1-8.694 1.24 4.391 4.391 0 0 1 8.694-1.24z" fill="#FFF1A2"/><path fill-rule="evenodd" clip-rule="evenodd" d="M18.953 105.221a2.486 2.486 0 1 0-.7-4.922 2.486 2.486 0 0 0 .7 4.922zm.268 1.886a4.391 4.391 0 1 0-1.24-8.695 4.391 4.391 0 0 0 1.24 8.695z" fill="#FFB100"/><path d="M44.015 52.587a1.995 1.995 0 0 0 1.858-2.12 2.004 2.004 0 0 0-.492-1.202c.146-.037.297-.062.453-.071 1.34-.083 2.494.948 2.576 2.302l.187 3.087c.081 1.354-.94 2.519-2.28 2.602-1.341.082-2.495-.949-2.576-2.303l-.14-2.313c.135.02.273.027.414.018z" fill="#E27903"/></g><defs><clipPath id="clip0"><path fill="#fff" d="M0 0h135v124H0z"/></clipPath></defs></svg>