<svg viewBox="0 0 135 124" version="1.1" xmlns="http://www.w3.org/2000/svg"><g stroke="none" stroke-width="1" fill="none" fill-rule="evenodd"><path d="M28 11h79c9.389 0 17 7.611 17 17v79c0 9.389-7.611 17-17 17H28c-9.389 0-17-7.611-17-17V28c0-9.389 7.611-17 17-17z" fill="#DBDBDB"/><g transform="rotate(17 6.647 -17.491)"><path fill="#FFF" d="M110.688.7l6.919 34.188-30.498 5.644L78.936.146z"/><rect stroke="#979797" fill="#D8D8D8" x="89.148" y="64.576" width="27" height="10" rx="1"/><path d="M119.148 37.576V64.57a5 5 0 0 1-5 5h-23.34c-3.528 0-7.003.86-10.125 2.503a21.735 21.735 0 0 1-10.126 2.503h-35.29a8 8 0 0 1-3.458-15.214l48.841-23.41a14 14 0 0 1 6.052-1.376h29.446a3 3 0 0 1 3 3z" fill="#C5C5C5"/><path d="M116.148 34.576a3 3 0 0 1 3 3V64.57a5.002 5.002 0 0 1-3.434 4.75l-22.307-.001v-1.966c0-6.77-5.557-12.259-12.413-12.259H59.663c-2.494 0-4.515-1.996-4.515-4.458v-2.461L80.65 35.95a14 14 0 0 1 6.052-1.375h29.446z" fill="#C5C5C5"/><rect fill="#FFF" transform="rotate(-26 64.09 47.504)" x="62.091" y="42.004" width="4" height="11" rx="2"/><rect fill="#FFF" transform="rotate(-26 70.982 44.262)" x="68.982" y="38.762" width="4" height="11" rx="2"/><rect fill="#FFF" transform="rotate(-26 77.873 41.02)" x="75.873" y="35.52" width="4" height="11" rx="2"/></g><path d="M105.123 10.856l-1.121 36.1a4 4 0 0 1-5.04 2.569l-38.994-12.67c-2.1-.683-.042-1.833.641-3.934l2.915-22.065h41.599z" fill="#C5C5C5"/><path d="M107.014 124.005h-79c-7.649 0-14.118-5.052-16.253-12h111.506c-2.135 6.948-8.604 12-16.253 12z" fill="#BFBDBD"/><path d="M64.395 81.735l.031-.734v-2.462c0-1.57-1.25-2.862-2.837-2.953l-.177-.005H40.08c-7.575 0-13.743-5.988-13.911-13.448l-.004-.311.001-1.15 3-.45v1.6c0 5.842 4.726 10.603 10.623 10.756l.29.003h21.332c3.242 0 5.891 2.544 6.01 5.735l.004.223v1.743l-3.03 1.453z" fill="#D3D3D3"/><path fill="#FFF" d="M89 20.856h27v52H89z"/><rect fill="#B2B2B2" x="90.562" y="102.029" width="27" height="10" rx="1"/><path d="M120.562 75.029v26.994a5 5 0 0 1-5 5h-23.34c-3.528 0-7.003.859-10.126 2.503a21.735 21.735 0 0 1-10.125 2.503H36.68a8 8 0 0 1-3.458-15.214l48.841-23.411a14 14 0 0 1 6.052-1.375h29.446a3 3 0 0 1 3 3z" fill="#B2B2B2"/><path d="M117.562 72.029a3 3 0 0 1 3 3v26.994a5.002 5.002 0 0 1-3.434 4.75l-22.307-.001v-1.966c0-6.77-5.558-12.259-12.413-12.259H61.077c-2.494 0-4.515-1.996-4.515-4.458v-2.461l25.502-12.224a14 14 0 0 1 6.052-1.375h29.446z" fill="#B2B2B2"/><rect fill="#FFF" transform="rotate(-24 65.626 83.867)" x="63.626" y="78.367" width="4" height="11" rx="2"/><rect fill="#FFF" transform="rotate(-24 72.626 80.867)" x="70.626" y="75.367" width="4" height="11" rx="2"/><rect fill="#FFF" transform="rotate(-24 79.626 77.867)" x="77.626" y="72.367" width="4" height="11" rx="2"/><path d="M58.061 84.91l.001 3.18c0 1.57 1.251 2.862 2.837 2.952l.178.005h21.33c7.576 0 13.743 5.989 13.911 13.448l.004.312v1.965h-3v-1.966c0-5.842-4.727-10.603-10.624-10.755l-.29-.004H61.077c-3.242 0-5.892-2.544-6.01-5.734l-.005-.224v-1.741l3-1.438z" fill="#C5C5C5"/><rect fill="#C5C5C5" transform="rotate(8 82.875 36.702)" x="56.875" y="27.202" width="52" height="19" rx="2"/><path d="M107 11c8.724 0 15.913 6.572 16.888 15.035l-.001 32.821a3 3 0 0 1-3 3h-40a3 3 0 0 1-3-3L77.886 11 107 11z" fill="#B8B8B8"/><rect fill="#FFF" transform="rotate(45 36 24.9)" x="29" y="17.899" width="14" height="14" rx="2"/><rect fill="#F0F0F0" transform="rotate(45 24.071 43.9)" x="19.071" y="38.899" width="10" height="10" rx="1"/><rect fill="#B2B2B2" x="74.887" y="39.856" width="52" height="22" rx="2"/><rect fill="#C5C5C5" x="106" y="76" width="12" height="23" rx="3"/></g></svg>