<svg viewBox="0 0 135 125" version="1.1" xmlns="http://www.w3.org/2000/svg"><g stroke="none" stroke-width="1" fill="none" fill-rule="evenodd"><path d="M28 11h79c9.389 0 17 7.611 17 17v79c0 9.389-7.611 17-17 17H28c-9.389 0-17-7.611-17-17V28c0-9.389 7.611-17 17-17z" fill="#9EE0FF"/><path d="M70.152 6.03l45.461 30.648H17.58l46.53-30.68a5.446 5.446 0 0 1 6.043.032z" fill="#FFCE8E"/><path fill="#CD7900" d="M24.115 45.392h84.963v53.374H24.115z"/><rect fill="#A56644" x="55" y="68.034" width="23.375" height="34" rx="2.179"/><path d="M76.196 66.4H57.18a3.812 3.812 0 0 0-3.813 3.813v29.643a3.812 3.812 0 0 0 3.813 3.812h19.017a3.812 3.812 0 0 0 3.813-3.812V70.213a3.812 3.812 0 0 0-3.813-3.813zM57.18 69.668h19.017c.301 0 .545.244.545.545v29.643c0 .3-.244.544-.545.544H57.18a.545.545 0 0 1-.545-.544V70.213c0-.301.244-.545.545-.545z" fill="#E5A259" fill-rule="nonzero"/><path d="M23.94 39l42.143-27.22a2.179 2.179 0 0 1 2.4.024L108.792 39" stroke="#E5A259" stroke-width="4.357" stroke-linecap="round" stroke-linejoin="round"/><path d="M124 107c0 9.389-7.611 17-17 17H28c-9.389 0-17-7.611-17-17h113z" fill="#78C800"/><rect fill="#FFCE8E" x="17" y="46" width="9.803" height="51.196" rx="1.089"/><rect fill="#FFCE8E" x="41" y="46" width="9.803" height="51.196" rx="1.089"/><rect fill="#FFCE8E" x="106" y="46" width="9.803" height="55" rx="4.902"/><rect fill="#FFCE8E" x="82" y="46" width="9.803" height="51.196" rx="1.089"/><rect fill="#F2B25F" x="15" y="45" width="14.161" height="5.446" rx="2.723"/><rect fill="#F2B25F" x="15" y="96" width="14.161" height="5.446" rx="2.723"/><rect fill="#F2B25F" x="39" y="45" width="14.161" height="5.446" rx="2.723"/><rect fill="#F2B25F" x="104" y="45" width="14.161" height="5.446" rx="2.723"/><rect fill="#F2B25F" x="104" y="96" width="14.161" height="5.446" rx="2.723"/><rect fill="#F2B25F" x="80" y="45" width="14.161" height="5.446" rx="2.723"/><rect fill="#F2B25F" x="39" y="96" width="14.161" height="5.446" rx="2.723"/><rect fill="#F2B25F" x="80" y="96" width="14.161" height="5.446" rx="2.723"/><rect fill="#FFCE8E" x="14.311" y="98.766" width="105.659" height="9.803" rx="1.089"/><path d="M124 104.649V107c0 1.36-.16 2.682-.461 3.95H11.46A17.046 17.046 0 0 1 11 107v-2.351h113z" fill="#FFE3BF"/><rect fill="#FFCE8E" x="17.579" y="36.678" width="98.034" height="6.536" rx="1.089"/><rect fill="#E5A259" x="69.864" y="37.767" width="6.536" height="6.536" rx="1.089"/><rect fill="#E5A259" x="96.006" y="37.767" width="6.536" height="6.536" rx="1.089"/><rect fill="#E5A259" x="56.793" y="37.767" width="6.536" height="6.536" rx="1.089"/><rect fill="#E5A259" x="43.722" y="37.767" width="6.536" height="6.536" rx="1.089"/><rect fill="#E5A259" x="30.65" y="37.767" width="6.536" height="6.536" rx="1.089"/><rect fill="#E5A259" x="82.935" y="37.767" width="6.536" height="6.536" rx="1.089"/><path d="M115.613 36.678v6.535h-5.446a1.09 1.09 0 0 1-1.09-1.089v-4.357c0-.601.488-1.089 1.09-1.089h5.446zM23.025 36.678c.602 0 1.09.488 1.09 1.09v4.356a1.09 1.09 0 0 1-1.09 1.09H17.58v-6.536h5.446z" fill="#E5A259"/><rect fill="#FFE3BF" x="14.311" y="42.124" width="104.57" height="5.446" rx="1.089"/><path stroke="#E5A259" stroke-width="2.179" stroke-linecap="round" stroke-linejoin="round" d="M20.847 37.767h93.677"/><path d="M88.09 53.017h22.82c.602 0 1.09.488 1.09 1.09v35.422a1.09 1.09 0 0 1-1.496 1.01l-10.597-4.268a1.09 1.09 0 0 0-.814 0L88.496 90.54A1.09 1.09 0 0 1 87 89.529V54.106c0-.601.488-1.089 1.09-1.089zM22.09 53.017h22.82c.602 0 1.09.488 1.09 1.09v35.422a1.09 1.09 0 0 1-1.496 1.01l-10.597-4.268a1.09 1.09 0 0 0-.814 0L22.496 90.54A1.09 1.09 0 0 1 21 89.529V54.106c0-.601.488-1.089 1.09-1.089z" fill="#FFF"/><g stroke="#FF7878" stroke-linecap="round" stroke-linejoin="round" stroke-width="2.618"><path d="M27 63.488L33.546 59l6.546 4.488M33.546 67.313v6.546M27.655 67.313v6.546M39.437 67.313v6.546M27 78.543h13.092"/></g><g stroke="#FF7878" stroke-linecap="round" stroke-linejoin="round" stroke-width="2.618"><path d="M93 63.488L99.546 59l6.546 4.488M99.546 67.313v6.546M93.655 67.313v6.546M105.437 67.313v6.546M93 78.543h13.092"/></g></g></svg>