<svg viewBox="0 0 135 124" version="1.1" xmlns="http://www.w3.org/2000/svg"><g stroke="none" stroke-width="1" fill="none" fill-rule="evenodd"><g fill-rule="nonzero"><g transform="translate(11)"><path d="M113 28v79c0 9.389-7.611 17-17 17H17c-9.389 0-17-7.611-17-17V28c0-9.389 7.611-17 17-17h79a17 17 0 0 1 16.51 12.94 15.9 15.9 0 0 1 .43 2.69c.06.45.06.91.06 1.37z" fill="#FFD900"/><path d="M69 94.71h35.83l-3.31-4.1a19 19 0 0 0-14.73-7H69v11.1z" fill="#FFC800"/><path fill="#FFC800" d="M70.07 91.08H113v8.87H70.07z"/><path d="M113 105v2a16.93 16.93 0 0 1-4.88 11.91H16.07V105H113z" fill="#FFD900"/><path d="M113 28.26v7.66L40.54 5.35h-.13l-.13-.06a1.2 1.2 0 0 1-.6-.87 1.36 1.36 0 0 1 0-.2 1.33 1.33 0 0 1 0-.28 1.59 1.59 0 0 1 .07-.2l.06-.13a1.22 1.22 0 0 1 .87-.6h.2c.093-.01.187-.01.28 0l.2.07L113 28.26z" fill="#E27800"/><path d="M74.042 113.39L62.152 109l-6.15-2.28-56-20.68V67.35a97.17 97.17 0 0 1 10.36-44.23l8.35-16.22c2.22-4.31 6.02-6.9 10.09-6.9h6.12c3.71 0 7.21 2.15 9.49 5.83l.67 1.08 7.65 12.37.89 1.43A113.73 113.73 0 0 1 69.572 69l4.47 44.39z" fill="#F89700"/><path fill="#E27800" d="M61.92 109.01l-6.15-2.28L44.85 6.91l7.65 12.37zm-13.05 8.9L34.53 40.37A7.33 7.33 0 0 0 32.08 36c-2.86-2.33-6.69-1-8.18 2.87l-1 2.53a8.66 8.66 0 0 0-.54 3.6l1.81 35.8 24.7 37.11z"/><path d="M112.64 110.49A17 17 0 0 1 96 124H17c-9.389 0-17-7.611-17-17V78.74h11.55a49 49 0 0 1 28.19 8.94l19.65 13.87a48.88 48.88 0 0 0 28.19 8.94h25.06z" fill="#FFC800"/><path d="M111 114.93A17 17 0 0 1 96 124H26.74l2.66-2.41a25.8 25.8 0 0 1 17.3-6.66H111z" fill="#FFD900"/><rect fill="#E27800" transform="rotate(20.68 90.664 23.318)" x="82.294" y="19.398" width="16.74" height="7.84" rx="3.92"/><circle fill="#FFB100" cx="94.35" cy="24.68" r="2.23"/><circle fill="#FFB100" cx="86.53" cy="21.83" r="2.23"/><path d="M99.64 64.88H81.13a2.64 2.64 0 0 1-2.64-2.64V60.6h23.79v1.64a2.64 2.64 0 0 1-2.64 2.64z" fill="#E27800"/><path d="M110.12 42.93v15.19A4.09 4.09 0 0 1 106 62.2H74.73a4.09 4.09 0 0 1-4.08-4.08V42.93a4.08 4.08 0 0 1 4.08-4.08H106a4.08 4.08 0 0 1 4.12 4.08z" fill="#FFC800"/><path d="M90.39 42.93v15.19a4.09 4.09 0 0 1-4.08 4.08H74.73a4.09 4.09 0 0 1-4.08-4.08V42.93a4.08 4.08 0 0 1 4.08-4.08h11.58a4.08 4.08 0 0 1 4.08 4.08z" fill="#FFE75E"/><path fill="#E27800" d="M70.66 43h39.47v10.55H70.66zm10.48-8.42h18.51a2.64 2.64 0 0 1 2.64 2.64v1.64H78.5v-1.65a2.64 2.64 0 0 1 2.64-2.63z"/><path d="M90.39 37c-.68 0-1.23-.55-1.23-1.23V25.42a1.23 1.23 0 0 1 2.46 0v10.32A1.23 1.23 0 0 1 90.39 37z" fill="#E27800"/><rect fill="#FFE75E" transform="rotate(90 76.035 48.275)" x="72.74" y="44.98" width="6.59" height="6.59" rx="1.13"/><rect fill="#FFE75E" transform="rotate(90 85.565 48.265)" x="82.27" y="44.97" width="6.59" height="6.59" rx="1.13"/><rect fill="#FFE75E" transform="rotate(90 95.105 48.265)" x="91.81" y="44.97" width="6.59" height="6.59" rx="1.13"/><rect fill="#FFE75E" transform="rotate(90 104.64 48.275)" x="101.345" y="44.975" width="6.59" height="6.6" rx="1.13"/></g></g></g></svg>