<svg id="Layer_3" data-name="Layer 3" xmlns="http://www.w3.org/2000/svg" viewBox="0 0 135 124"><defs><style>.cls-3{fill:#ffdcb0}.cls-4{fill:#666161}.cls-5{fill:#2d2d2d}.cls-6{fill:#cb791d}.cls-7{fill:#61361e}.cls-8{fill:#232323}.cls-9{fill:#a56644}.cls-10{fill:#8e4d2c}.cls-11{fill:#dbdada}.cls-12{fill:#e5a259}.cls-13{fill:#fff}.cls-14{fill:#fd9526}</style></defs><rect x="11" y="11" width="113" height="113" rx="17" ry="17" fill="#e3a15f"/><path d="M124 28v76.24H11V28a17 17 0 0 1 17-17h79a17 17 0 0 1 17 17z" fill="#cd7900"/><path class="cls-3" d="M124 88v19a17 17 0 0 1-17 17H28a17 17 0 0 1-17-17V88l23-2.33 2.58-.26 30.92-3.17 30.16 3.06z"/><path class="cls-4" d="M65.69 124H33.54L11 96.7v-8.74l23.01-2.33L65.69 124z"/><rect class="cls-5" x="23.52" y="107.55" width="26.25" height="5.59" rx="2.79" ry="2.79" transform="rotate(-42.04 36.65 110.358)"/><path class="cls-5" d="M52.43 109.32a2.79 2.79 0 0 1-.92 2.08l-14 12.6h-5.89a2.62 2.62 0 0 1-.13-.83 2.8 2.8 0 0 1 .93-2.08l15.34-13.84a2.79 2.79 0 0 1 4.67 2.07zM57.74 115.21a2.79 2.79 0 0 1-.92 2.08L49.38 124H41l12-10.86a2.79 2.79 0 0 1 3.94.2 2.82 2.82 0 0 1 .8 1.87z"/><path class="cls-6" d="M67 115.2l5.47 5a4.22 4.22 0 0 0 5.77-.1l15.67-15.2a8.5 8.5 0 0 0 2.57-6.09v-2.1a8.5 8.5 0 0 0-3.39-6.79l-6.62-5z"/><path class="cls-6" d="M67.47 115.2l-5.48 5a4.21 4.21 0 0 1-5.76-.1l-15.67-15.2A8.46 8.46 0 0 1 38 98.76v-2.05a8.47 8.47 0 0 1 3.39-6.79L48 85z"/><path class="cls-7" d="M83.78 103.9L67 115.2l-16.73-11.3a11.8 11.8 0 0 1-5-12l3.38-15h36.76l3.38 15a11.81 11.81 0 0 1-5.01 12zM58.46 63.89a18.41 18.41 0 0 1-31.27-15.4 7 7 0 0 1 11.92-4zM76.44 63.7a18.4 18.4 0 0 0 31.27-15.39 7 7 0 0 0-11.92-4z"/><path class="cls-8" d="M42.75 66.09l-4.28-1.57a4.88 4.88 0 0 1-3.17-4.35l-.82-19.69h8.27zM91.24 66.09l4.06-1.49a5.18 5.18 0 0 0 3.39-4.6l.82-19.47h-8.27z"/><path class="cls-9" d="M89.5 44.59v33.27a18.28 18.28 0 0 1-5.83 13.39l-2.34 2.17L76.46 98a10.6 10.6 0 0 1-7.19 2.81h-4.51A10.6 10.6 0 0 1 57.57 98l-4.84-4.53-2.35-2.17a18.26 18.26 0 0 1-5.76-11.83 15 15 0 0 1-.07-1.51V44.5a5.38 5.38 0 0 1 6.79-5.19l14.36 3.91a7.1 7.1 0 0 0 3.93 0l13-3.76a5.37 5.37 0 0 1 6.87 5.13z"/><path class="cls-10" d="M89.5 70.82v7a18.29 18.29 0 0 1-5.85 13.41l-2.32 2.15V79a8.17 8.17 0 0 1 8.17-8.17zM52.73 79v14.42l-2.35-2.17a18.26 18.26 0 0 1-5.76-11.83 15 15 0 0 1-.07-1.51v-7.09a8.27 8.27 0 0 1 6.75 3.56A8.17 8.17 0 0 1 52.73 79z"/><path class="cls-9" d="M96.5 46.06v15.88a9.13 9.13 0 0 1-9.13 9.11H46.69A9.05 9.05 0 0 1 42 69.71a8.73 8.73 0 0 1-3-3 8.83 8.83 0 0 1-1.37-4.76V46.06a11 11 0 0 1 3.67-8.26 11.17 11.17 0 0 1 7.49-2.9h36.55A11.15 11.15 0 0 1 96.5 46.06z"/><path class="cls-7" d="M96.5 46.06v12.08c-8.9 6.79-18.78 10.54-29.18 10.54-10.62 0-20.7-3.93-29.77-11V46.06a11 11 0 0 1 3.67-8.26h51.63a11.17 11.17 0 0 1 3.65 8.26z"/><rect class="cls-11" x="71.53" y="52.01" width="18.79" height="5.11" rx="2.55" ry="2.55"/><path class="cls-8" d="M84.57 53v4.2h-9.15V53a4.42 4.42 0 0 1 .11-1h8.93a4.42 4.42 0 0 1 .11 1z"/><path class="cls-7" d="M62.08 50.73h9.87v21.25h-9.87z"/><path class="cls-10" d="M62.08 72v-9.94A4.94 4.94 0 0 1 67 57.13a4.93 4.93 0 0 1 5 4.93V72"/><path class="cls-12" d="M95.39 42.26H39l6.57-34.53a9.28 9.28 0 0 1 9-7.7h.36a8.94 8.94 0 0 1 5.64 2.32l3.11 2.85 3.34 3 3.62-3.32 2.54-2.33A9 9 0 0 1 78.71.21h.63a9.25 9.25 0 0 1 9.48 7.68z"/><path class="cls-12" d="M79.34 5.92h-.63A9.66 9.66 0 0 0 73.17 8L67 12.88l-6.47-5.07a9.66 9.66 0 0 0-5.63-2c-4.49-.16-8.44 2.66-9.32 6.64L39 42.26h56.39l-6.57-29.71c-.9-4.03-4.93-6.85-9.48-6.63z"/><path class="cls-13" d="M79.28 19.74a2 2 0 0 1 2 2v4.56h-4.04v-4.51a2 2 0 0 1 2.04-2.05z"/><path class="cls-13" d="M85.62 20.64a2 2 0 0 1 2 2v4.56h-4.04v-4.51a2 2 0 0 1 2.04-2.05z" transform="rotate(13.65 85.619 23.907)"/><path class="cls-4" d="M95.91 28.9v5.93a2.53 2.53 0 0 1-2.47 2.6H40.93a2.53 2.53 0 0 1-2.47-2.6V28.9a2.54 2.54 0 0 1 2.47-2.6h52.51a2.27 2.27 0 0 1 1.48.54 2.58 2.58 0 0 1 .99 2.06z"/><path class="cls-14" d="M70.49 26.3a6.83 6.83 0 0 1-13.62 0zM48.14 26.3a6.83 6.83 0 0 1-6.83 6.84 6.65 6.65 0 0 1-2.85-.64v-3.6a2.54 2.54 0 0 1 2.47-2.6zM60.17 37.43H46.75a6.83 6.83 0 0 1 13.42 0zM85.62 32.29a6.77 6.77 0 0 1-2.36 5.14h-9A6.81 6.81 0 0 1 75.5 26.3h6.58a6.83 6.83 0 0 1 3.54 5.99zM95.91 30.26v4.57a2.53 2.53 0 0 1-2.47 2.6h-4.86a2.06 2.06 0 0 1 0-.36 6.83 6.83 0 0 1 6.83-6.83z"/><path class="cls-10" d="M67 65c-3.92 0-8.93 4.46-8.93 7.38a3.37 3.37 0 0 0 5.79 2.35 5.3 5.3 0 0 0 6.28 0A3.37 3.37 0 0 0 76 72.42C76 69.5 71 65 67 65z"/><path class="cls-7" d="M61.88 56.66L51.3 69.53l-6.68 8.11a15 15 0 0 1-.07-1.51V71L48 66.76l10.57-12.83a2.16 2.16 0 0 1 3-.27 2.12 2.12 0 0 1 .31 3z"/><path d="M44.34 67.44L42 69.71a8.73 8.73 0 0 1-3-3l2.49-2.35a2.13 2.13 0 1 1 2.93 3.09z" fill="#6a3a21"/><circle class="cls-11" cx="52.73" cy="53.32" r="8.94"/><circle class="cls-8" cx="53.58" cy="54.13" r="5.37"/><path class="cls-5" d="M59.59 82.53a.78.78 0 0 1-.7-.45.76.76 0 0 1 .37-1 33.19 33.19 0 0 1 19.1-2.64.77.77 0 0 1 .65.89.78.78 0 0 1-.89.65 31.65 31.65 0 0 0-18.2 2.51.78.78 0 0 1-.33.04z"/><path class="cls-3" d="M70.64 4.91v6.5a3.48 3.48 0 1 1-7 0V5.2l3.34 3zM106.62 37.07a1.9 1.9 0 0 1 1.15 3.44 68.14 68.14 0 0 1-40.27 13 68.18 68.18 0 0 1-40.27-13 1.9 1.9 0 0 1 1.15-3.44z"/></svg>