<svg viewBox="0 0 135 124" version="1.1" xmlns="http://www.w3.org/2000/svg"><g stroke="none" stroke-width="1" fill="none" fill-rule="evenodd"><g transform="translate(0 1)"><rect fill="#E5E5E5" x="11.375" y="10.054" width="113" height="113" rx="17"/><g transform="scale(-1 1) rotate(-30 -30.97 214.077)" fill="#D8D8D8"><rect transform="rotate(-8 4.054 8.194)" x="1.554" y="1.194" width="5" height="14" rx="2.5"/></g><path fill="#D8D8D8" d="M12.386 20.333l10.674-2.661 12.338 49.485-10.674 2.661z"/><rect fill="#A4A4A4" transform="scale(-1 1) rotate(-75 0 158.423)" x="63.488" y="41.803" width="19" height="43" rx="2"/><path d="M11.166 31.974l15.525-3.871a2 2 0 0 1 2.424 1.457l8.468 33.96c2.672 10.717-3.85 21.572-14.568 24.244L9.71 34.398a2 2 0 0 1 1.457-2.424z" fill="#A4A4A4"/><path d="M46.402 62.57l7.904 1.264c7.363 1.176 12.378 8.098 11.201 15.46a13.5 13.5 0 0 1-.193.978l-9.789 41.385c-.113.478-.25.945-.41 1.398h-26.74c-2.36 0-4.608-.482-6.651-1.351a13.441 13.441 0 0 1-.378-7.524l9.789-41.385c1.627-6.88 8.286-11.34 15.267-10.224z" fill="#B9B9B9"/><path d="M28.694 60.542l9.816 1.908a5 5 0 0 1 3.954 5.862l-10.642 54.742h-3.447c-6.593 0-12.31-3.753-15.13-9.24l9.587-49.318a5 5 0 0 1 5.862-3.954zM60.46 63.344a4.981 4.981 0 0 1 4.464 4.969l-.006.219-2.556 54.522H52.96l2.6-55.499.008-.127.011-.126a4.443 4.443 0 0 1 4.88-3.958z" fill="#A4A4A4"/><rect fill="#B9B9B9" transform="rotate(9 47.219 60.042)" x="30.219" y="49.042" width="34" height="22" rx="11"/><g transform="rotate(2 -381.399 900.574)"><rect fill="#B9B9B9" x="2" y="0" width="31" height="26" rx="13"/><rect fill="#D8D8D8" x=".291" y="26.541" width="38" height="10" rx="5"/><rect fill="#FFF" transform="scale(-1 1) rotate(15 0 -239.245)" x="35" y="33" width="3" height="10" rx="1.5"/><path d="M20.5 8C28.508 8 35 14.492 35 22.5v14.705a8.327 8.327 0 0 1-4.85 7.566l-3.409 1.566a5.2 5.2 0 0 1-3.01.407l-8.082-1.323A11.507 11.507 0 0 1 6 34.065V22.5C6 14.492 12.492 8 20.5 8z" fill="#D8D8D8"/><rect fill="#FFF" x="13" y="21" width="8" height="13" rx="3.9"/><rect fill="#FFF" x="25" y="21" width="8" height="13" rx="3.9"/><rect fill="#A0A0A0" x="16.099" y="22.579" width="4" height="7" rx="2"/><rect fill="#A0A0A0" x="26.093" y="22.23" width="4" height="7" rx="2"/><rect fill="#FFF" transform="rotate(23 5.044 39.043)" x="3.544" y="34.043" width="3" height="10" rx="1.5"/><rect fill="#B9B9B9" transform="rotate(23 30.5 10)" x="17" y="6" width="27" height="8" rx="4"/><rect fill="#B9B9B9" transform="rotate(52 30.5 15.5)" x="16" y="11" width="29" height="9" rx="4.5"/><rect fill="#B9B9B9" x="12" y="0" width="29" height="8" rx="4"/><rect fill="#B9B9B9" x="4" y="11" width="5" height="18" rx="2.5"/><path d="M24.72 32.115l2.158-1.273a10.824 10.824 0 0 1 7.502-1.316l-.757 5.627-7.767 1.2-1.136-4.238zM20.217 32.35l-2.076-1.326a9.79 9.79 0 0 0-7.584-1.262l-1.292 4.825 9.659 2.588 1.293-4.825z" fill="#D8D8D8"/><rect fill="#B9B9B9" x="22" y="23" width="3" height="12" rx="1.5"/><path d="M27.083 38.15c-.587 3.012-2.224 4.377-4.912 4.095l-4.97-.523c-2.687-.282-4.005-1.958-3.953-5.026a1.3 1.3 0 0 1 1.436-1.271l11.259 1.183a1.3 1.3 0 0 1 1.14 1.542z" fill="#A0A0A0"/><path d="M15.698 37C18.074 37 20 39.198 20 41.909V42l-3.303-.396c-2.066-.248-3.298-1.42-3.697-3.517.737-.68 1.676-1.087 2.698-1.087z" fill="#B9B9B9"/><path d="M14.327 35.008a1.3 1.3 0 0 1 .132.01l9.542 1.161-.122 1.612a1.3 1.3 0 0 1-1.427 1.195l-8.624-.874a1.295 1.295 0 0 1-.755-.342c-.057-.458-.08-.954-.07-1.487a1.3 1.3 0 0 1 1.324-1.275z" fill="#FFF"/></g><rect fill="#D8D8D8" transform="rotate(-30 14.964 16.387)" x="8.464" y="8.387" width="13" height="16" rx="6.5"/><rect fill="#D8D8D8" transform="rotate(-28 12.942 7.5)" x="10.442" y="2" width="5" height="11" rx="2.5"/><rect fill="#D8D8D8" transform="rotate(-1 20.947 12.204)" x="18.447" y="5.204" width="5" height="14" rx="2.5"/><rect fill="#D8D8D8" transform="scale(-1 1) rotate(60 0 1.644)" x="6" y="8.866" width="5" height="15" rx="2.5"/><rect fill="#D8D8D8" transform="rotate(-46 8.514 10.451)" x="6.014" y="4.951" width="5" height="11" rx="2.5"/><rect fill="#C9C9C9" transform="rotate(19 78.016 33.203)" x="75.516" y="27.203" width="5" height="12" rx="2.5"/><rect fill="#D8D8D8" x="77.375" y="8.054" width="34" height="73" rx="17"/><path d="M115.376 60.697l-.001 20.084-5.793-1.994a8.5 8.5 0 0 1-5.27-10.805l.652-1.89a8.5 8.5 0 0 1 10.412-5.395z" fill="#B9B9B9"/><path d="M77.375 41.054h17v5a9 9 0 0 1-9 9h-6a3 3 0 0 1-3-3v-10a1 1 0 0 1 1-1z" fill="#C9C9C9"/><path d="M77.375 39.054h4a3 3 0 0 1 3 3v4a3 3 0 0 1-3 3h-4a1 1 0 0 1-1-1v-8a1 1 0 0 1 1-1z" fill="#C9C9C9"/><rect fill="#D8D8D8" transform="rotate(72 86.232 39.14)" x="81.732" y="36.64" width="9" height="5" rx="2.5"/><path d="M96.375 30.054h3a4 4 0 0 1 4 4v2a4 4 0 0 1-4 4h-3a1 1 0 0 1-1-1v-8a1 1 0 0 1 1-1z" fill="#C9C9C9"/><rect fill="#C9C9C9" x="89.375" y="32.054" width="5" height="15" rx="2.5"/><rect fill="#FFF" x="78.375" y="27.054" width="7" height="10" rx="3.5"/><rect fill="#ADABAB" x="78.375" y="29.054" width="4" height="6" rx="2"/><path d="M78.05 41.791a1.5 1.5 0 0 1 1.5 2.598l-3.175 1.833v-3.464z" fill="#FFF"/><path d="M111.375 111.054v11.527c-1.282.31-2.622.473-4 .473h-29v-12h33z" fill="#A4A4A4"/><path d="M118.021 60l6.354 4.285v22.918l-16.978-11.452a9.5 9.5 0 0 1 10.624-15.752z" fill="#B2B2B2"/><path d="M78.123 36.14a7.823 7.823 0 0 1 6.613-2.224l1.115.154.776 2.898-7.727 2.07-.777-2.897z" fill="#D8D8D8"/><path d="M78.166 95.054h34.419c1.486 0 2.7 1.396 2.786 3.156l.004.197V110.7c0 1.786-1.162 3.246-2.626 3.348l-.164.005-34.419.001c-1.541 0-2.79-1.5-2.79-3.353V98.407c0-1.851 1.249-3.353 2.79-3.353h34.419-34.419z" fill="#B2B2B2"/><path d="M115.35 106.976l-.004.08-38.97-.002a6 6 0 0 1-6-6v-33c0-6.627 5.372-12 12-12h30c1.036 0 2.041.132 3 .379l.001 1.875a11.985 11.985 0 0 1 4.993 9.383l.005.363v33a6.002 6.002 0 0 1-5.025 5.922z" fill="#C9C9C9"/><rect fill="#D8D8D8" transform="rotate(-129 35.473 97.543)" x="28.973" y="89.543" width="13" height="16" rx="6.5"/><rect fill="#D8D8D8" transform="rotate(-100 30.233 92.97)" x="27.733" y="85.97" width="5" height="14" rx="2.5"/><rect fill="#D8D8D8" transform="rotate(-127 27.012 100.93)" x="24.512" y="95.43" width="5" height="11" rx="2.5"/><rect fill="#D8D8D8" transform="scale(1 -1) rotate(-21 -524.297 0)" x="33.963" y="96.431" width="5" height="15" rx="2.5"/><rect fill="#D8D8D8" transform="rotate(-145 30.619 104.842)" x="28.119" y="99.342" width="5" height="11" rx="2.5"/><rect fill="#B2B2B2" x="72.375" y="47.054" width="43" height="13" rx="2"/><rect fill="#B9B9B9" x="74.375" y="70.054" width="43" height="3" rx="1.5"/><rect fill="#B9B9B9" x="74.375" y="82.054" width="43" height="3" rx="1.5"/><rect fill="#B9B9B9" x="74.375" y="95.054" width="43" height="3" rx="1.5"/><rect fill="#B2B2B2" transform="scale(-1 1) rotate(-56 0 175.393)" x="35.934" y="82.883" width="18" height="16" rx="3"/><path d="M86.33 62.563c-3.242-4.808-9.768-6.076-14.576-2.834L39.836 81.26a3 3 0 0 0-.81 4.164l8.389 12.435a3 3 0 0 0 4.164.81l31.918-21.529c4.808-3.243 6.076-9.769 2.834-14.576z" fill="#C9C9C9"/><rect fill="#B9B9B9" transform="rotate(-34 53.17 85.022)" x="51.67" y="76.522" width="3" height="17" rx="1.5"/><rect fill="#B9B9B9" transform="rotate(-34 63.875 77.554)" x="62.375" y="69.054" width="3" height="17" rx="1.5"/><rect fill="#B9B9B9" transform="rotate(-34 73.875 70.554)" x="72.375" y="62.054" width="3" height="17" rx="1.5"/><path d="M102.19 5.797l12.364 4.017a5 5 0 0 1 3.21 6.3l-5.253 16.168-34.238-11.124 1.236-3.804c3.072-9.455 13.227-14.629 22.682-11.557z" fill="#B9B9B9"/><rect fill="#A4A4A4" transform="rotate(17 95.452 27.007)" x="76.452" y="23.507" width="38" height="7" rx="1"/><rect fill="#D8D8D8" transform="rotate(8 43.65 28.503)" x="39.649" y="24.503" width="8" height="8" rx="4"/><rect fill="#B9B9B9" transform="rotate(56 48.316 25.631)" x="36.816" y="21.631" width="23" height="8" rx="4"/></g></g></svg>