<svg id="Layer_3" data-name="Layer 3" xmlns="http://www.w3.org/2000/svg" viewBox="0 0 135 124"><defs><style>.cls-2{fill:#222}.cls-4{fill:#6f519f}.cls-7{fill:#ebe3e3}.cls-8{fill:#343434}.cls-9{fill:#4b4b4b}.cls-10{fill:#606060}</style></defs><path d="M124 27.84V107a18.27 18.27 0 0 1-.32 3.34c-.08.35-.15.69-.24 1A17 17 0 0 1 107 124H28a17 17 0 0 1-4.12-.5l-.39-.11a16.43 16.43 0 0 1-2.08-.71 17 17 0 0 1-7.35-6 17.55 17.55 0 0 1-1.81-3.33c-.06-.18-.14-.36-.2-.55a15 15 0 0 1-.48-1.48q-.12-.49-.24-1a1.52 1.52 0 0 1 0-.21 16.65 16.65 0 0 1-.3-2.94V28A17 17 0 0 1 28 11h79a17 17 0 0 1 17 16.84z" fill="#777"/><path class="cls-2" d="M124 27.84v13.37L11 97.31V28a17 17 0 0 1 17-17h79a17 17 0 0 1 17 16.84z"/><path d="M88.42 124H28a17 17 0 0 1-4.12-.5l-.39-.11a16.43 16.43 0 0 1-2.08-.71 17 17 0 0 1-7.35-6 17.55 17.55 0 0 1-1.81-3.33c-.06-.18-.14-.36-.2-.55a15 15 0 0 1-.48-1.48q-.12-.49-.24-1a1.52 1.52 0 0 1 0-.21 16.65 16.65 0 0 1-.3-2.94v-2.9l.31-.08a19.5 19.5 0 0 1 2-.48l.79-.16.81-.16 6-1.17 2.95-.58 8.17-1.64 8.51-1.67L49 100l8.22 1.65 8.53 1.67.79.16.91.19c.61.12 1.22.26 1.81.42l.46.13a29.18 29.18 0 0 1 3.06 1.08A26.78 26.78 0 0 1 88.42 124z" fill="#532c8f"/><path class="cls-4" d="M78.4 117.79l-64.33-1.07a17.55 17.55 0 0 1-1.81-3.33c-.06-.18-.14-.36-.2-.55a15 15 0 0 1-.48-1.48q-.12-.49-.24-1a1.52 1.52 0 0 1 0-.21 16.65 16.65 0 0 1-.3-2.94v-8.5l2.3-5.71a14.55 14.55 0 0 1 3.8-5.36A14.4 14.4 0 0 1 27 84c8.11.17 19.52.41 27.39.59A14.36 14.36 0 0 1 67.14 93l5.69 12.34z"/><path d="M73.25 116.72H14.07a17.55 17.55 0 0 1-1.81-3.33l7.92-6.14.41-.32.46-.34 3.62-2.81.84-.66h30.2l.77.6 3.49 2.7.43.34z" fill="#fff"/><path fill="#2d2d2d" d="M43.99 114.06l4.22-10.24H33.13l4.43 10.24-.8 3.33H45l-.8-3.33h-.21z"/><path class="cls-7" d="M54 97.83l2.89 3.17a1.65 1.65 0 0 1 0 2.2l-2.55 3a6.55 6.55 0 0 1-8.62 1.16l-5.16-3.49zM27.13 97.83L24.19 101a1.65 1.65 0 0 0 0 2.2l2.55 3a6.56 6.56 0 0 0 8.63 1.16l5.16-3.49z"/><path class="cls-4" d="M40.68 117.29l-.19.07h-.08l-1.6.57-15.3 5.43a16.43 16.43 0 0 1-2.08-.71 17 17 0 0 1-7.35-6 17.55 17.55 0 0 1-1.81-3.33c-.06-.18-.14-.36-.2-.55a15 15 0 0 1-.48-1.48q-.12-.49-.24-1a1.52 1.52 0 0 1 0-.21 16.65 16.65 0 0 1-.3-2.94v-2.47l.31-.51.94-1.58 1.82.94.81.42 1.24.64.58.29 3.88 2 .46.23 1.83 1 5.88 3 8.45 4.35.12.07 2.23 1.15.92.47z"/><path class="cls-2" d="M34.06 95.59l-5.61 2.83-3.51 1.77-4.07 2-4.16 2.1-.58.29-5.13 2.61v-15.9c.87-2.1 4.5-2.21 6.13-3.65l9.57 1.68z"/><path class="cls-4" d="M79.92 124H59.84l-19.29-6.61h-.06l-.19-.06.19-.11.89-.47 3.06-1.6 15.95-8.36 6.19-3.24 1.72-.89 1 1.5 8.38 12.59 1.41 2.13a6.06 6.06 0 0 1 .83 5.12z"/><path class="cls-2" d="M9.57 44.98v18.93h53.46v3.55h15.02V39.95L9.57 44.98z"/><circle class="cls-8" cx="10.34" cy="72.8" r="10.36"/><circle class="cls-8" cx="76.42" cy="72.8" r="10.36"/><path class="cls-9" d="M33.52 103.37h19.63a21.48 21.48 0 0 0 21.48-21.48V58.44l-2.7-1v-12a19.2 19.2 0 0 0-19.2-19.2H31.25A15.66 15.66 0 0 0 15.58 42v15.28L12 59.92v22a21.48 21.48 0 0 0 21.52 21.45z"/><path class="cls-8" d="M44.87 83.68h-2.76c-1.47 0-3.52-1.2-3.52-2.67l.86-17.62a2.66 2.66 0 0 1 2.66-2.66h2.76a2.66 2.66 0 0 1 2.66 2.66V81a2.67 2.67 0 0 1-2.66 2.68z"/><path class="cls-10" d="M34.73 75.15H16.62a2.35 2.35 0 0 1-2.33-2l-2-13.79a2.36 2.36 0 0 1 2.33-2.69h22.09A2.36 2.36 0 0 1 39 59.34l-2 13.79a2.36 2.36 0 0 1-2.27 2.02zM70.06 75.15H52a2.34 2.34 0 0 1-2.33-2l-2-13.79A2.35 2.35 0 0 1 50 56.65h22a2.35 2.35 0 0 1 2.33 2.69l-2 13.79a2.36 2.36 0 0 1-2.27 2.02z"/><path class="cls-2" d="M39.29 58.01h8.09v4.13h-8.09zM76.76 63.67h-2.37a2.07 2.07 0 1 1 0-4.13h2.37a2.07 2.07 0 0 1 0 4.13z"/><path class="cls-2" d="M34.73 77.22H16.62a4.45 4.45 0 0 1-4.38-3.8l-2-13.79a4.42 4.42 0 0 1 4.38-5h22.09a4.4 4.4 0 0 1 4.37 5l-2 13.79a4.46 4.46 0 0 1-4.35 3.8zm-20.09-18.5a.27.27 0 0 0-.22.1.26.26 0 0 0-.06.23l2 13.79a.29.29 0 0 0 .29.24h18.08a.29.29 0 0 0 .28-.25l2-13.78a.27.27 0 0 0-.07-.23.25.25 0 0 0-.21-.1zM70.06 77.22H52a4.45 4.45 0 0 1-4.38-3.8l-2-13.79a4.42 4.42 0 0 1 4.38-5h22a4.42 4.42 0 0 1 4.38 5l-2 13.79a4.44 4.44 0 0 1-4.32 3.8zM50 58.72a.29.29 0 0 0-.29.33l2 13.79a.28.28 0 0 0 .29.24h18.06a.29.29 0 0 0 .28-.25l2-13.78a.29.29 0 0 0-.29-.33z"/><rect class="cls-8" x="37.06" y="73.13" width="12.46" height="10.69" rx="3.26" ry="3.26"/><path class="cls-2" d="M84.47 50.36H2.67A2.53 2.53 0 0 1 1 46l8.77-8.16h68.28l8.21 8.22a2.53 2.53 0 0 1-1.79 4.3zM78.05 37.83H9.72l3.78-12L18.8 8.9A12.22 12.22 0 0 1 36 1.67l7.58 3.85L50.08 2a12.21 12.21 0 0 1 17.34 6.53l6.27 17.28z"/><path class="cls-9" d="M78.05 37.53H9.81l3.79-12.04h60.08l4.37 12.04z"/><path d="M86.44 70.08l-11.78 5.84v7.11a10.69 10.69 0 0 0 1.81.16A10.35 10.35 0 0 0 86.8 72.8a10.15 10.15 0 0 0-.36-2.72z" fill="#db8269"/><path d="M68.13 79.16L23.75 101a21.27 21.27 0 0 0 9.77 2.37h19.63a21.48 21.48 0 0 0 21.48-21.48v-6z" fill="#e59b80"/><path class="cls-2" d="M39.45 92.89H26.71a2.07 2.07 0 1 1 0-4.14h12.74a2.07 2.07 0 0 1 0 4.14z"/></svg>