<svg viewBox="0 0 135 124" fill="none" xmlns="http://www.w3.org/2000/svg"><g clip-path="url(#clip0)"><path d="M107 11H28c-9.389 0-17 7.611-17 17v79c0 9.389 7.611 17 17 17h79c9.389 0 17-7.611 17-17V28c0-9.389-7.611-17-17-17z" fill="#FFCA00"/><path d="M122.44 20.93L20.92 122.45a16.937 16.937 0 0 0 7.08 1.56h41.32L124 69.33V28.01a16.938 16.938 0 0 0-1.56-7.08zM50.32 69.07l58-58c-.43 0-.87-.07-1.31-.07H58.42L25.34 44.09c-6.904 6.904-6.904 18.096 0 25 6.903 6.904 18.096 6.904 25 0l-.02-.02z" fill="#FFD900"/><path fill-rule="evenodd" clip-rule="evenodd" d="M17.839 97.365H95.12a9.646 9.646 0 0 1 9.198 6.741l2.501 7.921H5.71l3.077-8.351a9.646 9.646 0 0 1 9.052-6.311z" fill="#FFE11A"/><path d="M104.646 105.141l2.174 6.886H5.872l-.14-.058 3.056-8.293a9.63 9.63 0 0 1 2.485-3.732c14.417.199 26.96 2.401 38.115 4.359 9.51 1.67 18.013 3.162 25.81 3.086 7.318-.071 12.98-.649 19.302-1.294 3.127-.32 6.415-.655 10.146-.954z" fill="#FFB100"/><path fill-rule="evenodd" clip-rule="evenodd" d="M38.072 35.24l-.86 2.162a1.418 1.418 0 0 1-2.244.548l-1.762-1.522a6.895 6.895 0 0 0-7.234-1.116l-2.136.92a1.418 1.418 0 0 1-1.975-1.2l-.17-2.32a6.898 6.898 0 0 0-4.327-5.906l-2.162-.86a1.418 1.418 0 0 1-.549-2.245l1.521-1.76a6.895 6.895 0 0 0 1.116-7.234l-.921-2.139a1.418 1.418 0 0 1 1.2-1.974l2.319-.17a6.893 6.893 0 0 0 5.904-4.326l.86-2.16a1.418 1.418 0 0 1 2.244-.55l1.762 1.523a6.895 6.895 0 0 0 7.234 1.116l2.136-.92a1.418 1.418 0 0 1 1.975 1.2l.17 2.32a6.899 6.899 0 0 0 4.327 5.906l2.162.861a1.418 1.418 0 0 1 .549 2.244l-1.521 1.76a6.895 6.895 0 0 0-1.115 7.235l.92 2.138a1.418 1.418 0 0 1-1.2 1.975l-2.319.169a6.893 6.893 0 0 0-5.904 4.326z" fill="#FFB100"/><path d="M34.86 32.013c6.159-1.448 9.977-7.616 8.528-13.776-1.448-6.16-7.615-9.98-13.773-8.531-6.158 1.448-9.976 7.615-8.528 13.775 1.449 6.16 7.615 9.98 13.773 8.532z" fill="#FFD900"/><path d="M54.168 22.412C56.423 10.603 67.824 2.858 79.633 5.113l12.38 2.365c11.808 2.255 19.553 13.656 17.298 25.465l-.093.485c-2.255 11.81-13.657 19.554-25.466 17.299l-12.378-2.364c-11.81-2.255-19.554-13.657-17.299-25.466l.093-.485z" fill="#F68B00"/><path fill-rule="evenodd" clip-rule="evenodd" d="M51.636 49.891a6.526 6.526 0 1 1 2.618-11.88c3.87-8.56 13.22-13.686 22.855-11.847l31.929 6.098c9.673 1.848 16.493 10.117 16.885 19.55a6.526 6.526 0 0 1 8.041 7.544 6.526 6.526 0 0 1-9.957 4.255c-3.242 9.376-12.802 15.283-22.814 13.737a8.013 8.013 0 0 1-6.967 1.762l-2.461-.543a33.26 33.26 0 0 0-7.097-.78l-3.833-.008c-1.069-.002-2.503-.14-3.836-.727-1.42-.625-3.052-1.948-3.401-4.287a10.85 10.85 0 0 1-.08-.689l-4.995-.954c-10.245-1.957-17.288-11.116-16.887-21.23z" fill="#FFB100"/><path d="M125.441 48.15l-10.762-2.054a7.74 7.74 0 0 1-6.151-9.055l.898-4.701c8.202 1.725 14.283 8.09 16.015 15.81z" fill="#FF9600"/><path d="M53.105 51.037a3.145 3.145 0 1 1-6.178-1.18 3.145 3.145 0 0 1 6.178 1.18z" fill="#C86902"/><path d="M89.333 42.266a7.256 7.256 0 0 0-5.766-8.488l-.265-.051a7.256 7.256 0 0 0-8.489 5.766l-1.407 7.37a7.256 7.256 0 0 0 5.766 8.489l.265.05a7.256 7.256 0 0 0 8.489-5.766l1.407-7.37z" fill="#FF9600"/><path d="M74.313 42.12a7.256 7.256 0 0 1 8.488-5.767l.266.05a7.256 7.256 0 0 1 5.766 8.49l-.906 4.743a7.256 7.256 0 0 1-8.489 5.767l-.265-.051a7.256 7.256 0 0 1-5.766-8.489l.906-4.744z" fill="#FFF1A2"/><path d="M80.628 44.876a2.595 2.595 0 0 0 3.054-2.927 3.329 3.329 0 0 1 2.47 3.856l-.611 3.2A3.329 3.329 0 1 1 79 47.756l.611-3.2.02-.098c.29.202.626.348.996.418zm8.237 7.402c.145.028 1.035 2.3 1.93 4.676.89 2.365-1.162 4.77-3.643 4.297-2.482-.474-3.502-3.467-1.803-5.337 1.707-1.88 3.372-3.663 3.516-3.636z" fill="#F68B00"/><path d="M92.01 42.778a7.233 7.233 0 0 1 1.073-2.643l.1.47 2.437 2.067 4.393 1.977 6.453 1.233-1.163 6.094c-5.788-1.318-11.128.104-14.505 1.682a7.224 7.224 0 0 1-.196-3.51l1.408-7.37z" fill="#FF9600"/><path d="M91.508 45.404a7.225 7.225 0 0 1 2.424-4.164l1.688 1.431 4.394 1.978 6.075 1.16a7.235 7.235 0 0 1-.061 2.367l-.725 3.8c-5.788-1.318-11.128.104-14.505 1.682a7.223 7.223 0 0 1-.196-3.51l.906-4.745z" fill="#FFF1A2"/><path d="M96.664 45.297a2.595 2.595 0 0 1-3.023 2.064l-.588 3.079a3.315 3.315 0 0 0 .335 2.196 23.605 23.605 0 0 1 6.244-1.156l.572-2.991a3.329 3.329 0 0 0-3.507-3.946c.025.245.015.499-.033.754z" fill="#F68B00"/><path fill-rule="evenodd" clip-rule="evenodd" d="M92.937 36.262a1.693 1.693 0 0 1 1.345 1.98c-.086.452-.046 1.44 1.578 2.662 1.698 1.277 4.992 2.671 11.015 3.592a1.693 1.693 0 0 1-.511 3.347c-6.251-.955-10.19-2.466-12.54-4.233-2.423-1.823-3.247-4.02-2.868-6.003a1.693 1.693 0 0 1 1.98-1.345z" fill="#FF9600"/><path d="M100.351 72.649a4.603 4.603 0 0 1-5.384 3.127l-2.461-.543a36.682 36.682 0 0 0-7.826-.86l-3.833-.008c-1.665-.003-3.625-.462-3.87-2.108-.696-4.658 3.316-8.655 7.88-7.85l1.133.199c3.606 1.047 5.276.446 7.364.036 4.227-.98 7.872 3.17 6.997 8.007z" fill="#FFF1A2"/><path d="M94.374 75.645a24.48 24.48 0 0 1-.023-3.916l.085-1.157c.03-.4.38-.702.783-.676a.722.722 0 0 1 .675.773l-.086 1.157c-.1 1.356-.081 2.714.057 4.058a4.62 4.62 0 0 1-.898-.108l-.593-.13zm-6.742-1.147a24.496 24.496 0 0 1 .01-3.734l.127-1.595c.031-.4.383-.7.785-.67.402.03.703.379.671.778l-.126 1.595c-.1 1.26-.096 2.523.011 3.778a36.59 36.59 0 0 0-1.478-.152zm-6.115-.132a17.174 17.174 0 0 1-.387-4.107l.007-.234c.01-.4.346-.717.749-.706.403.01.722.343.71.744l-.005.234a15.72 15.72 0 0 0 .424 4.072l-1.498-.003z" fill="#FFB100"/><path d="M115.532 39.993l3.524 6.105c1.567 2.713-.391 6.105-3.524 6.105s-5.091-3.392-3.525-6.105l3.525-6.105z" fill="#FFF1A2"/><path d="M53.809 24.29c1.704-8.922 10.318-14.773 19.24-13.07l1.208.231c8.922 1.704 14.774 10.319 13.07 19.24l-.23 1.208c-1.705 8.923-10.319 14.774-19.241 13.07l-1.208-.23c-8.922-1.704-14.774-10.319-13.07-19.241l.23-1.207z" fill="#F68B00"/><path d="M19.746 41.67a1.722 1.722 0 0 0-3.343.826l11.954 48.358 3.564.069-12.175-49.254z" fill="#FF9B1A"/><path fill-rule="evenodd" clip-rule="evenodd" d="M23.38 56.252l-3.361.831 4.14 16.734 2.534-4.178-3.312-13.387z" fill="#F68B00"/><path d="M48.008 60.937l.01.009.737 2.977c-5.748-2.286-10.9-1.012-15.453 3.823-6.283-2.154-11.434-.88-15.453 3.824-5.665-2.307-10.816-1.033-15.453 3.823-.259-1.25-.641-2.377-.86-3.474a4.317 4.317 0 0 1-.019-.139c-2.58-12.447 5.173-24.82 17.676-27.914 12.711-3.145 25.553 4.486 28.82 17.07h-.005zm-30.906 7.646l.01.01.005-.013-.015.003z" fill="#FFCA00"/><path d="M18.445 44.063C6.382 47.455-1.012 59.583 1.516 71.78c.006.047.012.093.02.14.109.546.258 1.101.413 1.675.156.576.316 1.172.446 1.798 4.627-4.846 9.766-6.125 15.418-3.838-4.398-12.917-4.19-22.077.622-27.48l.01-.012z" fill="#FF9B1A"/><path d="M33.66 67.375c4.465-4.528 9.497-5.679 15.095-3.452l-.737-2.977-.01-.009.006-.001c-3.267-12.578-16.1-20.209-28.806-17.074l.162.049c7.378 2.188 12.14 10.01 14.29 23.464z" fill="#F68B00"/><path fill-rule="evenodd" clip-rule="evenodd" d="M26.94 90.337h5.824v7.028h-5.823v-7.028zm29.118 0h5.823v7.028h-5.823v-7.028zm-13.394 0h5.823v7.028h-5.823v-7.028zm30.282 0h5.824v7.028h-5.824v-7.028z" fill="#F68B00"/><path fill-rule="evenodd" clip-rule="evenodd" d="M19.497 75.696h14.458c1.294 0 2.479.726 3.067 1.88l6.806 13.347H27.497a3.443 3.443 0 0 1-3.068-1.88l-5.955-11.678a1.148 1.148 0 0 1 1.023-1.669z" fill="#F68B00"/><path fill-rule="evenodd" clip-rule="evenodd" d="M44.061 87.409H27.848a1.722 1.722 0 0 1-1.54-.95l-3.952-7.893a1.174 1.174 0 0 1 .516-1.573 1.16 1.16 0 0 1 .524-.126h13.233a3.49 3.49 0 0 1 3.12 1.933l4.312 8.609z" fill="#FFC01A"/><path fill-rule="evenodd" clip-rule="evenodd" d="M22.573 77.16l3.203-2.928 2.62 2.343-3.494 2.342-2.33-1.757z" fill="#FFC01A"/><path fill-rule="evenodd" clip-rule="evenodd" d="M26.519 73.94h13.296a3.44 3.44 0 0 1 3.042 1.83l6.794 12.81H32.375l-6.87-12.955a1.148 1.148 0 0 1 1.014-1.686z" fill="#FFE11A"/><path fill-rule="evenodd" clip-rule="evenodd" d="M28.105 87.409h51.829v4.685H32.182l-4.077-4.685z" fill="#F68B00"/><path fill-rule="evenodd" clip-rule="evenodd" d="M64.193 87.409H79.95c.634 0 1.148.514 1.148 1.148v2.39c0 .633-.514 1.147-1.148 1.147H64.193a1.148 1.148 0 0 1-1.148-1.148v-2.39c0-.633.514-1.147 1.148-1.147z" fill="#FF9B1A"/><path fill-rule="evenodd" clip-rule="evenodd" d="M27.512 83.31h46.033c.633 0 1.147.513 1.147 1.147v1.804c0 .634-.513 1.148-1.147 1.148H28.28a1.15 1.15 0 0 1-1.056-.698l-.769-1.804a1.148 1.148 0 0 1 1.056-1.598z" fill="#FFC01A"/><path fill-rule="evenodd" clip-rule="evenodd" d="M62.447 83.31h16.34c.633 0 1.147.513 1.147 1.147v1.804c0 .634-.514 1.148-1.147 1.148h-16.34A1.148 1.148 0 0 1 61.3 86.26v-1.804c0-.634.514-1.148 1.148-1.148z" fill="#FFE11A"/><path fill-rule="evenodd" clip-rule="evenodd" d="M19.095 87.409h15.692c.512 0 .697.053.884.153.187.1.334.247.434.434.1.187.154.373.154.884v1.743c0 .511-.054.697-.154.884-.1.187-.247.334-.434.434-.187.1-.372.153-.884.153H19.095c-.512 0-.697-.053-.884-.153a1.043 1.043 0 0 1-.434-.434c-.1-.187-.154-.373-.154-.885V88.88c0-.511.054-.697.154-.884.1-.187.247-.334.434-.434.187-.1.372-.153.884-.153z" fill="#F68B00"/><path d="M66.752 102.489a1.273 1.273 0 1 0 0-2.545 1.273 1.273 0 0 0 0 2.545zm3.865 2.545a1.272 1.272 0 1 0 .001-2.544 1.272 1.272 0 0 0-.001 2.544zm13.297-2.545a1.273 1.273 0 1 0 0-2.545 1.273 1.273 0 0 0 0 2.545z" fill="#FFB100"/><path fill-rule="evenodd" clip-rule="evenodd" d="M11.448 111.118c3.287 0 5.924-.957 9.496-3.052.416-.244 1.823-1.089 1.825-1.09.72-.429 1.256-.735 1.778-1.007 1.37-.715 2.523-1.125 3.678-1.241a6.19 6.19 0 0 1 .637-.032c2.041 0 3.244.572 4.884 1.951l.457.387c1.556 1.305 2.68 1.796 4.945 1.796 2.421 0 3.655-.257 5.022-.854l.58-.258c1.266-.559 2.222-.79 3.79-.79 1.778 0 3.968.59 8.144 2.004l.53.18c4.702 1.599 6.284 2.061 7.498 2.061.37 0 .669.025.923.088.563.138 1.019.456 1.105 1.142.073.579-.177.959-.58 1.299a4.645 4.645 0 0 1-.785.513c-1.133.617-3.335 1.501-6.653 2.679l-.188.066H16.951l-.14-.035c-4.79-1.212-7.626-2.107-8.714-2.786-1.224-.765-1.273-2.259.237-2.745.608-.196 1.612-.276 3.114-.276z" fill="#FFE11A" stroke="#FFF1A2" stroke-width="2.315"/><path d="M107.82 110.097H4.963a4.823 4.823 0 0 0 0 9.646H107.82a4.823 4.823 0 1 0 0-9.646z" fill="#FFE11A"/></g><defs><clipPath id="clip0"><path fill="#fff" d="M0 0h135v124H0z"/></clipPath></defs></svg>