<svg viewBox="0 0 136 124" fill="none" xmlns="http://www.w3.org/2000/svg"><path d="M12.326 27.74c0-9.389 7.611-17 17-17h79c9.389 0 17 7.611 17 17v79c0 9.389-7.611 17-17 17h-79c-9.389 0-17-7.611-17-17v-79z" fill="#FEC701"/><path fill-rule="evenodd" clip-rule="evenodd" d="M66.082 27.077c8.2 8.201 8.2 21.497 0 29.698l-53.406 53.407a17.071 17.071 0 0 1-.349-3.442V51.133l24.056-24.056c8.201-8.201 21.498-8.201 29.699 0zm59.244 1.056v35.355l-8.995 8.996c-4.881 4.882-12.796 4.882-17.677 0-4.882-4.881-4.882-12.796 0-17.677l26.672-26.674z" fill="#FFD900"/><path d="M19.126 22.545h.002a8.228 8.228 0 0 1 9.035-7.131l38.549 4.115a8.228 8.228 0 0 1 7.325 8.879h.002l-4.024 37.689a2.847 2.847 0 0 0 2.529 3.133l5.56.594c.65.07 1.123.654 1.053 1.305-.68 6.374-6.399 10.989-12.772 10.308l-50.974-5.442c-6.373-.68-10.988-6.399-10.307-12.772a1.186 1.186 0 0 1 1.305-1.054l5.56.594a2.847 2.847 0 0 0 3.133-2.53l4.024-37.688z" fill="#FFB100"/><path d="M23.143 24.056l46.653 4.981-4.97 46.554-46.654-4.981 4.97-46.554z" fill="#FFD900"/><path d="M18.684 44.745a5.178 5.178 0 1 0 1.1-10.297 5.178 5.178 0 0 0-1.1 10.297zM69.786 50.2a5.178 5.178 0 1 0 1.1-10.296 5.178 5.178 0 0 0-1.1 10.297z" fill="#FFD900"/><path d="M15.794 71.196a1.424 1.424 0 0 1 1.567-1.265L65.76 75.1a1.424 1.424 0 0 1 1.264 1.566l-.512 4.796a1.424 1.424 0 0 1-1.567 1.265l-48.398-5.168a1.424 1.424 0 0 1-1.265-1.566l.512-4.796z" fill="#F68B00"/><path d="M17.86 34.605a5.177 5.177 0 0 1 6.206 3.117 5.77 5.77 0 0 0 2.514-4.18l.77-7.209-8.51-.908-.98 9.18zM66.014 42.207a5.177 5.177 0 0 1 6.718-1.748l.98-9.176-8.51-.909-.77 7.21a5.771 5.771 0 0 0 1.582 4.623z" fill="#FFB100"/><path d="M17.765 20.878a1.424 1.424 0 0 1 1.567-1.265L74.458 25.5a1.424 1.424 0 0 1 1.264 1.567l-.416 3.906a1.424 1.424 0 0 1-1.567 1.264l-55.127-5.885a1.424 1.424 0 0 1-1.264-1.567l.417-3.906z" fill="#F68B00"/><path d="M48.134 28.187c6.31.674 11.972-3.896 12.646-10.206.674-6.31-3.895-11.973-10.206-12.646A11.484 11.484 0 0 0 40.271 9.72l-1.906-2.608c-.524-.718-1.579-.785-2.072-.045a9.982 9.982 0 0 0-1.62 4.49 10.019 10.019 0 0 0 3.83 8.992 11.492 11.492 0 0 0 9.631 7.638z" fill="#FFB100"/><path d="M38.931 73.024a1.025 1.025 0 0 1 1.075-.675l3.112.332c.47.05.846.417.907.887l1.138 8.731a1.025 1.025 0 0 1-1.125 1.152l-7.205-.77a1.025 1.025 0 0 1-.857-1.363l2.955-8.294z" fill="#FFF1A2"/><path d="M44.74 42.754c.122.013 1.024 1.853 1.937 3.78.908 1.917-.642 4.072-2.752 3.847-2.11-.225-3.17-2.659-1.877-4.342 1.298-1.69 2.569-3.298 2.691-3.285z" fill="#FFB100"/><path d="M32.262 35.996a6.028 6.028 0 1 1 11.988 1.28l-.39 3.646a6.028 6.028 0 0 1-11.987-1.28l.39-3.646zM58.36 38.782a6.028 6.028 0 0 0-11.987-1.28l-.39 3.646a6.028 6.028 0 1 0 11.988 1.28l.39-3.646z" fill="#FFF1A2"/><path d="M33.695 36.896a2.12 2.12 0 0 0 2.336-2.306 2.75 2.75 0 0 1 2.146 2.978l-.35 3.28a2.75 2.75 0 0 1-5.467-.584l.35-3.28c.015-.14.04-.275.074-.406.267.17.575.282.911.318zM51.344 38.78a2.12 2.12 0 0 1-1.797-2.747 2.75 2.75 0 0 0-2.726 2.457l-.35 3.28a2.749 2.749 0 0 0 5.467.584l.35-3.28c.015-.139.02-.277.013-.412-.296.11-.622.154-.957.118zM58.116 65.806c-3.737-3.668-11.415-1.388-14.788.211l.928-8.685a7.34 7.34 0 1 1 14.598 1.559l-.738 6.915z" fill="#E47900"/><path d="M58.366 55.368l-2.812-.3a1.424 1.424 0 0 1-1.258-1.21 1.424 1.424 0 0 1-1.485.917l-2.89-.309a1.424 1.424 0 0 1-1.258-1.21 1.425 1.425 0 0 1-1.485.917l-1.7-.181a7.34 7.34 0 0 1 6.857-3.18 7.34 7.34 0 0 1 6.031 4.556z" fill="#FFF1A2"/><path d="M48.974 64.184c-2.222.431-4.285 1.187-5.646 1.833l.607-5.693.028.003a6.05 6.05 0 0 1 5.011 3.857z" fill="#FFB100"/><path d="M29.107 27.47l33.524 3.58-1.235 11.571-33.524-3.58 1.235-11.57z" fill="#FFD900"/><path fill-rule="evenodd" clip-rule="evenodd" d="M43.424 28.96a2.373 2.373 0 0 0-2.659-2.046c-2.312.3-4.645 1.256-5.945 1.973a2.373 2.373 0 1 0 2.29 4.156c.922-.507 2.685-1.217 4.268-1.423a2.373 2.373 0 0 0 2.046-2.66zM45.94 37.211a2.373 2.373 0 0 0 2.502 2.237c2.328-.13 4.724-.91 6.074-1.53a2.373 2.373 0 1 0-1.978-4.313c-.956.438-2.767 1.016-4.36 1.105a2.373 2.373 0 0 0-2.237 2.501z" fill="#FFB100"/><path d="M102.404 51.454c-2.526-5.584-8.415-9.187-14.845-8.52C79.52 43.77 73.683 50.963 74.518 59c.036.351.085.698.145 1.04a16.377 16.377 0 0 0-4.152 12.708c.937 9.02 9.008 15.572 18.028 14.635 7.337-.763 13.041-6.246 14.41-13.12 2.695 5.157 8.343 8.415 14.483 7.777 8.037-.835 13.876-8.028 13.041-16.065-.835-8.037-8.027-13.875-16.064-13.04a14.615 14.615 0 0 0-4.516 1.216c-4.142 1.148-6.592-1.121-7.489-2.696z" fill="#E47900"/><path d="M78.071 75.905a26.312 26.312 0 0 0-1.968 13.091l1.546 14.888a5 5 0 0 0 5.49 4.456l43.49-4.518a5 5 0 0 0 4.457-5.49l-1.547-14.887a26.52 26.52 0 0 0-1.244-5.733c-.187.07-.386.117-.594.138l-.821.086a6.408 6.408 0 0 1-7.036-5.712l-.748-7.202a26.336 26.336 0 0 0-18.577-5.135l-.858.09a26.337 26.337 0 0 0-17.125 8.843l.748 7.202a6.407 6.407 0 0 1-5.711 7.036l-.822.085a2.406 2.406 0 0 1-.609-.014 26.26 26.26 0 0 1 1.93-7.224z" fill="#FFB100"/><path d="M79.373 82.153a4.477 4.477 0 1 1-8.907.926 4.477 4.477 0 0 1 8.907-.926zM133.607 76.52a4.477 4.477 0 1 1-8.905.926 4.477 4.477 0 0 1 8.905-.926z" fill="#FFB100"/><path d="M89.497 74.803a5.206 5.206 0 0 1 4.64-5.716l.55-.057a5.206 5.206 0 0 1 5.717 4.64l.369 3.557a5.206 5.206 0 0 1-4.64 5.716l-.55.057a5.206 5.206 0 0 1-5.717-4.64l-.37-3.557z" fill="#FFF1A2"/><path d="M94.974 74.716a2.429 2.429 0 1 1 4.831-.502l.326 3.14a2.428 2.428 0 1 1-4.831.502l-.326-3.14z" fill="#E47900"/><path d="M113.514 72.308a5.206 5.206 0 0 0-5.716-4.64l-.55.057a5.205 5.205 0 0 0-4.64 5.716l.369 3.557a5.206 5.206 0 0 0 5.716 4.64l.551-.057a5.206 5.206 0 0 0 4.64-5.716l-.37-3.557z" fill="#FFF1A2"/><path d="M112.942 72.85a2.428 2.428 0 1 0-4.831.502l.326 3.14a2.43 2.43 0 0 0 4.832-.502l-.327-3.14z" fill="#E47900"/><path d="M114.852 71.985l-12.655-.699.764-6.219 11.947.672-.056 6.246z" fill="#FFB100"/><path d="M85.578 68.504l30.188-3.136 1.115 10.734-30.188 3.136-1.115-10.734z" fill="#FFB100"/><path fill-rule="evenodd" clip-rule="evenodd" d="M100.052 68.375a2.803 2.803 0 0 1-1.944 3.455l-7.854 2.198a2.803 2.803 0 0 1-1.511-5.399l7.854-2.198a2.803 2.803 0 0 1 3.455 1.944zM112.941 65.098a2.803 2.803 0 0 1-3.033 2.552l-8.126-.699a2.803 2.803 0 0 1 .481-5.585l8.126.699a2.803 2.803 0 0 1 2.552 3.033z" fill="#E47900"/><path d="M89.923 96.092a4.548 4.548 0 1 1 9.048-.94l.882 8.483a4.55 4.55 0 0 1-9.049.94l-.88-8.483z" fill="#E47900"/><path fill-rule="evenodd" clip-rule="evenodd" d="M102.158 94.82l.881 8.484a7.751 7.751 0 0 1-6.91 8.512 7.752 7.752 0 0 1-8.511-6.91l-.881-8.483a7.752 7.752 0 1 1 15.421-1.602zm-8.18-3.722a4.549 4.549 0 0 0-4.055 4.994l.881 8.483a4.55 4.55 0 1 0 9.049-.94l-.882-8.483a4.548 4.548 0 0 0-4.994-4.054z" fill="#FFB100"/><path fill-rule="evenodd" clip-rule="evenodd" d="M88.082 82.21a.5.5 0 0 1 .707 0c1.502 1.502 6.156 4.031 12.397 1.516a.5.5 0 0 1 .374.927c-6.66 2.684-11.73.013-13.478-1.735a.5.5 0 0 1 0-.707zM115.565 79.227a.5.5 0 0 1 .27.654c-1.132 2.723-3.327 3.895-5.553 4.25-2.204.352-4.469-.086-5.89-.596a.5.5 0 1 1 .338-.941c1.308.469 3.399.868 5.394.55 1.973-.315 3.82-1.32 4.788-3.647a.5.5 0 0 1 .653-.27z" fill="#F68B00"/><path d="M88.96 97.58a7.172 7.172 0 0 1 1.554-10.023l5.1-3.73a7.17 7.17 0 0 1 7.207-.74 7.169 7.169 0 0 1 7.029-.59l5.742 2.636a7.173 7.173 0 0 1-5.982 13.038l-.69-.317h-.001l-.03-.014-.731-.336c-3.234-1.331-6.03-.475-7.65.515l-.895.655a4.57 4.57 0 0 0-.093.085l-.007-.012-.53.388a7.172 7.172 0 0 1-10.024-1.554z" fill="#E47900"/><path d="M105.856 81.78a3.373 3.373 0 1 1-6.71.695 3.373 3.373 0 0 1 6.71-.695z" fill="#FFB100"/><path opacity=".5" fill-rule="evenodd" clip-rule="evenodd" d="M29.052 43.48a.5.5 0 0 1 .69.154c1.166 1.84 4.872 5.068 10.318 3.099a.5.5 0 0 1 .34.94c-6.032 2.181-10.177-1.413-11.502-3.504a.5.5 0 0 1 .154-.69zM47.899 47.125a.5.5 0 0 1 .707.017c1.503 1.577 5.767 4.019 10.724 1.023a.5.5 0 0 1 .517.856c-5.489 3.318-10.258.602-11.965-1.189a.5.5 0 0 1 .017-.707z" fill="#FFB100"/></svg>