<svg viewBox="0 0 135 125" fill="none" xmlns="http://www.w3.org/2000/svg"><g clip-path="url(#clip0)"><path d="M107 12H28c-9.389 0-17 7.611-17 17v79c0 9.389 7.611 17 17 17h79c9.389 0 17-7.611 17-17V29c0-9.389-7.611-17-17-17z" fill="#FFAADE"/><path d="M66.62 1.45L2.67 29.922a2 2 0 0 0-1.014 2.64l17.083 38.37a2 2 0 0 0 2.641 1.013l63.948-28.472a2 2 0 0 0 1.014-2.64L69.26 2.463a2 2 0 0 0-2.64-1.013z" fill="#EE8484"/><path d="M59.23 36.484L33.65 47.873a2 2 0 1 0 1.628 3.654L60.857 40.14a2 2 0 0 0-1.627-3.655z" fill="#B2B2B2"/><path d="M56.383 30.09l-25.58 11.388a2 2 0 0 0 1.628 3.655L58.01 33.744a2 2 0 0 0-1.627-3.654zM20.235 27.575L9.272 32.456A2 2 0 1 0 10.9 36.11l10.963-4.88a2 2 0 1 0-1.627-3.655zM22.675 33.057l-10.962 4.88a2 2 0 0 0 1.627 3.655l10.962-4.881a2 2 0 1 0-1.627-3.654zM64.085 8.051l-6.395 2.847a2 2 0 0 0-1.013 2.641l2.847 6.395a2 2 0 0 0 2.64 1.013L68.56 18.1a2 2 0 0 0 1.014-2.64l-2.847-6.395a2 2 0 0 0-2.64-1.014z" fill="#DE6262"/><path d="M69.133 31.736L4.698 59.088a2 2 0 0 0-1.06 2.622l16.411 38.661a2 2 0 0 0 2.623 1.06L87.107 74.08a2 2 0 0 0 1.06-2.623L71.755 32.796a2 2 0 0 0-2.623-1.06z" fill="#FFD5EF"/><path d="M10.724 63.048l30.34 4.537a9.27 9.27 0 0 0 8.919-3.786l17.813-24.977" stroke="#FFAADE" stroke-width="4" stroke-linecap="round" stroke-linejoin="round"/><path d="M125.857 73.787h-70a2 2 0 0 0-2 2v42a2 2 0 0 0 2 2h70a2 2 0 0 0 2-2v-42a2 2 0 0 0-2-2z" fill="#FFDFE0"/><path fill-rule="evenodd" clip-rule="evenodd" d="M92.232 41.258l34.803 32.971a1 1 0 0 1-.688 1.726h-70.98a1 1 0 0 1-.688-1.726l34.802-32.97a2 2 0 0 1 2.751 0z" fill="#F5A4A4"/><path fill-rule="evenodd" clip-rule="evenodd" d="M98.422 102.788l28.613-27.107a1 1 0 0 0-.688-1.726h-70.98a1 1 0 0 0-.688 1.726l28.613 27.107a10.999 10.999 0 0 0 15.13 0z" fill="#F5A4A4"/><path d="M115.857 27.955h-50a3 3 0 0 0-3 3v45a3 3 0 0 0 3 3h50a3 3 0 0 0 3-3v-45a3 3 0 0 0-3-3z" fill="#fff"/><path d="M111.857 43.955h-42a2 2 0 0 0 0 4h42a2 2 0 1 0 0-4zM111.857 50.955h-42a2 2 0 0 0 0 4h42a2 2 0 1 0 0-4zM111.857 57.955h-42a2 2 0 0 0 0 4h42a2 2 0 1 0 0-4zM111.857 64.955h-42a2 2 0 0 0 0 4h42a2 2 0 1 0 0-4z" fill="#FFD7D8"/><path fill-rule="evenodd" clip-rule="evenodd" d="M118.856 73.955v9.473l-16.39 15.527h-23.22l-16.39-15.528v-9.472h56z" fill="#fff"/><path d="M84.107 90.621l5.5-5.333M93.107 90.621l5.5-5.333M102.107 90.621l5.5-5.333M89.857 84.955l3 6M98.857 84.955l3 6" stroke="#FFD7D8" stroke-width="3.1" stroke-linecap="round" stroke-linejoin="round"/><path d="M110.857 75.955h-13a2 2 0 0 0 0 4h13a2 2 0 1 0 0-4zM82.857 32.955h-13a2 2 0 0 0 0 4h13a2 2 0 0 0 0-4z" fill="#FFD7D8"/><path d="M46.5 75a7.5 7.5 0 1 0 0-15 7.5 7.5 0 0 0 0 15z" fill="#EE8484"/></g><defs><clipPath id="clip0"><path fill="#fff" d="M0 0h135v125H0z"/></clipPath></defs></svg>