<svg viewBox="0 0 135 124" fill="none" xmlns="http://www.w3.org/2000/svg"><path d="M11 28c0-9.389 7.611-17 17-17h79c9.389 0 17 7.611 17 17v79c0 9.389-7.611 17-17 17H28c-9.389 0-17-7.611-17-17V28z" fill="#FF7878"/><path d="M81.445 18.914c0 7.591-6.19 13.745-13.824 13.745-7.635 0-13.824-6.154-13.824-13.745 0-7.59 6.189-13.744 13.824-13.744s13.824 6.153 13.824 13.744z" fill="#3D3D3D"/><path fill-rule="evenodd" clip-rule="evenodd" d="M22.492 64.545c0-15.768 12.783-28.55 28.55-28.55h32.943c15.767 0 28.55 12.782 28.55 28.55s-12.783 28.55-28.55 28.55H51.042c-15.767 0-28.55-12.782-28.55-28.55z" fill="#3D3D3D"/><path d="M112.31 68.153c-1.774 14.065-13.78 24.942-28.325 24.942H51.043c-14.546 0-26.55-10.877-28.324-24.942h89.591z" fill="#D8D8D8"/><path d="M32.508 49.632a2.673 2.673 0 0 1 2.672-2.673h65.364a2.672 2.672 0 0 1 2.672 2.673v47.137c0 6.628-5.372 12-12 12H44.508c-6.628 0-12-5.372-12-12V49.632z" fill="#FFCBA3"/><path d="M43.469 44.416h51.64v8.422H43.47v-8.422z" fill="#3D3D3D"/><path fill-rule="evenodd" clip-rule="evenodd" d="M52.207 68.312a7.373 7.373 0 0 1 14.746 0v4.55a7.373 7.373 0 0 1-14.746 0v-4.55z" fill="#fff"/><path fill-rule="evenodd" clip-rule="evenodd" d="M58.275 68.58a3.32 3.32 0 0 1 6.642 0v4.171a3.32 3.32 0 0 1-6.642 0v-4.17z" fill="#3D3D3D"/><path d="M61.1 65.965a2.431 2.431 0 1 1-4.864 0 2.431 2.431 0 0 1 4.863 0z" fill="#fff"/><path fill-rule="evenodd" clip-rule="evenodd" d="M84.41 68.312a7.373 7.373 0 0 0-14.745 0v4.55a7.373 7.373 0 0 0 14.745 0v-4.55z" fill="#fff"/><path fill-rule="evenodd" clip-rule="evenodd" d="M78.713 68.58a3.32 3.32 0 0 0-6.641 0v4.17a3.32 3.32 0 1 0 6.64 0v-4.17z" fill="#3D3D3D"/><path d="M70.557 65.965a2.431 2.431 0 1 0 4.863 0 2.431 2.431 0 0 0-4.863 0z" fill="#fff"/><path fill-rule="evenodd" clip-rule="evenodd" d="M51.123 75.878s12.44.865 17.13 3.756c4.691 2.891-7.9 16.741-7.9 16.741l-14.025-12.04 4.795-8.457z" fill="#FFCBA3"/><path fill-rule="evenodd" clip-rule="evenodd" d="M86.658 76.356s-12.44.864-17.13 3.756c-4.691 2.891 7.9 16.741 7.9 16.741l14.025-12.04-4.795-8.457z" fill="#FFCBA3"/><path fill-rule="evenodd" clip-rule="evenodd" d="M61.239 103.898a.784.784 0 0 1 1.084-.238l-.423.661.422-.661v-.001.001l.008.005.04.025c.039.022.098.057.178.101.159.088.396.213.702.353.612.279 1.488.616 2.537.84 2.094.446 4.848.442 7.607-1.324a.784.784 0 1 1 .846 1.321c-3.2 2.048-6.405 2.043-8.78 1.537a13.954 13.954 0 0 1-2.862-.948 11.913 11.913 0 0 1-1.033-.535l-.061-.037-.018-.011-.006-.004-.002-.001c0-.001-.001-.001.422-.661l-.423.66a.784.784 0 0 1-.238-1.083zm1.082-.239zM92.654 70.015c.167.4-.022.86-.422 1.026l-4.038 1.682 4.055 1.803a.784.784 0 1 1-.637 1.433l-5.72-2.542a.784.784 0 0 1 .017-1.44l5.72-2.384c.4-.167.859.022 1.025.422zM42.746 70.015c-.167.4.023.86.422 1.026l4.039 1.682-4.056 1.803a.784.784 0 1 0 .638 1.433l5.72-2.542a.784.784 0 0 0-.017-1.44l-5.72-2.384a.784.784 0 0 0-1.026.422z" fill="#F7B387"/><path fill-rule="evenodd" clip-rule="evenodd" d="M25.539 52.478a7.451 7.451 0 0 1 7.337-6.155h8.227a7.451 7.451 0 0 1 7.451 7.452V60.8a7.451 7.451 0 0 1-7.451 7.45h-9.468c-4.634 0-8.144-4.184-7.338-8.747l1.242-7.025zM87.164 52.98a7.451 7.451 0 0 1 7.451-7.45h7a7.451 7.451 0 0 1 7.386 6.465l1.043 7.82c.596 4.467-2.879 8.436-7.385 8.436h-8.044a7.451 7.451 0 0 1-7.45-7.45v-7.82zM51.393 59.957a2.384 2.384 0 0 1 .6-3.317c3.182-2.207 6.475-2.42 8.89-2.103 1.204.158 2.212.448 2.926.7a12.288 12.288 0 0 1 1.11.456l.079.038.027.014.01.006.005.002.002.001c.001 0 .002.001-1.094 2.117l1.096-2.116a2.384 2.384 0 0 1-2.179 4.24l-.014-.007a7.496 7.496 0 0 0-.633-.257 9.696 9.696 0 0 0-1.954-.467c-1.6-.21-3.606-.058-5.554 1.293a2.383 2.383 0 0 1-3.317-.6zm11.46.032z" fill="#3D3D3D"/><path fill-rule="evenodd" clip-rule="evenodd" d="M69.209 60.783h16.684v8.104L69.209 65.17v-4.388z" fill="#FFCBA3"/><path fill-rule="evenodd" clip-rule="evenodd" d="M68.337 81.385a3.58 3.58 0 0 0 3.575-3.585c0-1.98-3.575-6.664-3.575-6.664s-3.575 4.683-3.575 6.664a3.58 3.58 0 0 0 3.575 3.585z" fill="#E89665"/><path d="M78.516 49.502l3.301 5.719c1.468 2.541-.367 5.719-3.301 5.719-2.935 0-4.77-3.178-3.302-5.72l3.302-5.718zM102.587 31.993l-1.709-6.378c-.759-2.835 1.835-5.43 4.67-4.67 2.834.76 3.784 4.304 1.709 6.379l-4.67 4.67zM32.653 31.993l1.709-6.378c.76-2.835-1.834-5.43-4.67-4.67-2.834.76-3.784 4.304-1.708 6.379l4.669 4.67zM105.453 37.813l5.719-3.302c2.542-1.468 5.719.367 5.719 3.302 0 2.934-3.177 4.769-5.719 3.301l-5.719-3.301zM29.787 37.813l-5.719-3.302c-2.541-1.468-5.718.367-5.718 3.302 0 2.934 3.177 4.769 5.718 3.301l5.72-3.301z" fill="#D4F7FF"/><path d="M57.928 88.381a2.65 2.65 0 0 1 2.65-2.65h15.624a2.65 2.65 0 1 1-.787 5.182l-5.077-1.577a6.567 6.567 0 0 0-3.896 0l-5.077 1.577a2.65 2.65 0 0 1-3.437-2.532z" fill="#702323"/><path fill-rule="evenodd" clip-rule="evenodd" d="M68.107 61.616a2.5 2.5 0 0 1 3.528.241c.86.987 5.053 4.018 12.865 4.018a2.5 2.5 0 0 1 0 5c-8.988 0-14.661-3.469-16.634-5.732a2.5 2.5 0 0 1 .241-3.527z" fill="#3D3D3D"/></svg>