<svg id="Layer_3" data-name="Layer 3" xmlns="http://www.w3.org/2000/svg" viewBox="0 0 135 124"><defs><style>.cls-2{fill:#6f4ea1}.cls-3{fill:#a588d4}.cls-4{fill:#fff}.cls-5{fill:#4b4b4b}.cls-6{fill:#fec1c2}.cls-7{fill:#ff6464}.cls-8{fill:#aee560}.cls-9{fill:#78c802}.cls-10{fill:#fee166}.cls-11{fill:#fec72e}.cls-12{fill:#bdf2fe}.cls-13{fill:#2bb1f3}</style></defs><path d="M124 28v79a16.63 16.63 0 0 1-.15 2.24 16.1 16.1 0 0 1-.74 3.19 17.22 17.22 0 0 1-1 2.3 17.78 17.78 0 0 1-1 1.69c-.15.22-.3.44-.47.65a16 16 0 0 1-2.76 2.94A16.86 16.86 0 0 1 107 124H28a17 17 0 0 1-13.55-6.74l-.13-.18a15.21 15.21 0 0 1-1.45-2.34 16.54 16.54 0 0 1-1.72-5.49 15.22 15.22 0 0 1-.14-1.92V28c0-.42 0-.83.05-1.24a17 17 0 0 1 9.53-14A16.79 16.79 0 0 1 28 11h79a16.79 16.79 0 0 1 6.16 1.16A15.14 15.14 0 0 1 115 13a17 17 0 0 1 4.9 3.93 16.81 16.81 0 0 1 4 9.83c.1.41.1.82.1 1.24z" fill="#532c8f"/><circle class="cls-2" cx="34.04" cy="88.56" r="7.9"/><circle class="cls-2" cx="84.67" cy="88.56" r="7.9"/><path class="cls-2" d="M85.73 80v28.34A13.67 13.67 0 0 1 72.07 122H47.78a13.68 13.68 0 0 1-13.67-13.67V80a25.81 25.81 0 0 1 51.62 0z"/><path class="cls-3" d="M10.83 53.07H124v9.81H10.83zM122.14 114.74a17.78 17.78 0 0 1-1 1.69c-.15.22-.3.44-.47.65a16 16 0 0 1-2.76 2.94A16.86 16.86 0 0 1 107 124H28a17 17 0 0 1-13.55-6.74l-.13-.18a15.21 15.21 0 0 1-1.45-2.34z"/><path class="cls-4" d="M56.86 83.12v7.07a9.2 9.2 0 1 1-18.39 0v-7.07a9.2 9.2 0 1 1 18.39 0z"/><rect class="cls-5" x="41.3" y="80.07" width="7.4" height="12.08" rx="3.7" ry="3.7"/><path class="cls-4" d="M82.19 83.12v7.07a9.2 9.2 0 1 1-18.39 0v-7.07a9.13 9.13 0 0 1 1.49-5 9.63 9.63 0 0 1 1.2-1.5 9.2 9.2 0 0 1 15.7 6.51z"/><rect class="cls-5" x="66.61" y="80.07" width="7.4" height="12.08" rx="3.7" ry="3.7" transform="rotate(-180 70.31 86.11)"/><path class="cls-6" d="M70.9 13.65h24.52v39.43H70.9z"/><path class="cls-7" d="M95.47 13.78H70.84l3.04-10.05h18.55l3.04 10.05z"/><path class="cls-6" d="M75.57.64h15.16a1.71 1.71 0 0 1 1.71 1.71v1.41H73.86V2.35A1.71 1.71 0 0 1 75.57.64z"/><circle class="cls-7" cx="83.15" cy="28.88" r="7.39"/><path class="cls-6" d="M99.56 13.65h24.52v39.43H99.56z"/><path class="cls-7" d="M124.13 13.78H99.5l3.04-10.05h18.55l3.04 10.05z"/><path class="cls-6" d="M104.24.64h15.16a1.71 1.71 0 0 1 1.71 1.71v1.41h-18.58V2.35a1.71 1.71 0 0 1 1.71-1.71z"/><circle class="cls-7" cx="111.81" cy="28.88" r="7.39"/><path class="cls-8" d="M49.75 3.32l-.61 7.18-.95 11.21-.45 5.14H30.23l-.44-5.14-.96-11.21-.61-7.18h21.53z"/><rect class="cls-9" x="27.09" y=".61" width="23.87" height="5.51" rx=".79" ry=".79"/><path class="cls-9" d="M49.14 10.5l-.95 11.21h-18.4l-.96-11.21h20.31z"/><circle class="cls-8" cx="39.07" cy="16.26" r="4.36"/><path class="cls-8" d="M36.02 29.59l-.61 7.18-.96 11.21-.44 5.14H16.5l-.45-5.14-.95-11.21-.61-7.18h21.53z"/><rect class="cls-9" x="13.36" y="26.89" width="23.87" height="5.51" rx=".79" ry=".79"/><path class="cls-9" d="M35.41 36.77l-.96 11.21h-18.4l-.95-11.21h20.31z"/><circle class="cls-8" cx="25.34" cy="42.53" r="4.36"/><path class="cls-8" d="M63.6 29.59l-.61 7.18-.96 11.21-.44 5.14H44.07l-.44-5.14-.95-11.21-.61-7.18H63.6z"/><rect class="cls-9" x="40.94" y="26.89" width="23.87" height="5.51" rx=".79" ry=".79"/><path class="cls-9" d="M62.99 36.77l-.96 11.21h-18.4l-.95-11.21h20.31z"/><circle class="cls-8" cx="52.92" cy="42.53" r="4.36"/><path class="cls-10" d="M6.72 79.56h22.19v35.69H6.72z"/><path class="cls-11" d="M28.97 79.67H6.67l2.75-9.09h16.8l2.75 9.09z"/><path class="cls-10" d="M11 67.77h13.68a1.55 1.55 0 0 1 1.55 1.55v1.28H9.41v-1.28A1.55 1.55 0 0 1 11 67.77z"/><circle class="cls-11" cx="17.82" cy="93.34" r="6.69"/><path class="cls-12" d="M106.44 79.11l-2.38-5.24a14 14 0 0 1-1.25-5.77h-7.93v.14a13.92 13.92 0 0 1-1.15 5.54l-2.32 5.37a14.33 14.33 0 0 0-.8 4.14l-.08 28.47a2.41 2.41 0 0 0 .38 1.31l.33.54a2.48 2.48 0 0 0 2.11 1.18h11a2.48 2.48 0 0 0 2.11-1.18l.33-.54a2.41 2.41 0 0 0 .38-1.31V83.58a14.42 14.42 0 0 0-.73-4.47z"/><path class="cls-13" d="M103.76 68.93h-9.83a.67.67 0 0 1-.64-.87l.49-1.58a.68.68 0 0 1 .65-.47h8.83a.68.68 0 0 1 .65.47l.49 1.58a.67.67 0 0 1-.64.87zM90.61 86.6h16.62v17.69H90.61z"/><path class="cls-12" d="M128.3 79.11l-2.38-5.24a14 14 0 0 1-1.25-5.77h-7.93v.14a13.92 13.92 0 0 1-1.15 5.54l-2.32 5.37a14.6 14.6 0 0 0-.8 4.18v28.41a2.4 2.4 0 0 0 .26 1.33l.33.54a2.48 2.48 0 0 0 2.11 1.18h11a2.48 2.48 0 0 0 2.11-1.18l.33-.54a2.41 2.41 0 0 0 .38-1.31V83.58a14.42 14.42 0 0 0-.69-4.47z"/><path class="cls-13" d="M125.62 68.93h-9.83a.67.67 0 0 1-.64-.87l.49-1.58a.68.68 0 0 1 .64-.47h8.84a.66.66 0 0 1 .64.47l.5 1.58a.67.67 0 0 1-.64.87zM112.47 86.6h16.62v17.69h-16.62z"/></svg>