<svg viewBox="0 0 135 124" fill="none" xmlns="http://www.w3.org/2000/svg"><path d="M11 28c0-9.389 7.611-17 17-17h79c9.389 0 17 7.611 17 17v79c0 9.389-7.611 17-17 17H28c-9.389 0-17-7.611-17-17V28z" fill="#1CB0F6"/><path fill-rule="evenodd" clip-rule="evenodd" d="M5.94 35.66C7.726 19.734 21.193 7.693 37.22 7.693c15.498 0 28.69 11.281 31.096 26.592l7.475 47.578a1.597 1.597 0 0 1-1.578 1.845H2.333a1.597 1.597 0 0 1-1.587-1.775L5.94 35.66z" fill="#A570FF"/><path fill-rule="evenodd" clip-rule="evenodd" d="M58.875 39.838a6.068 6.068 0 0 1 6.068-6.069h2.366a6.068 6.068 0 0 1 0 12.137h-2.366a6.068 6.068 0 0 1-6.068-6.068z" fill="#FFC6B7"/><path fill-rule="evenodd" clip-rule="evenodd" d="M13.328 35.412c1.89-13.158 13.163-22.928 26.456-22.928 13.601 0 25.033 10.214 26.56 23.729l3.152 27.927c.467 4.132-2.766 7.75-6.925 7.75H16.344c-4.355 0-7.7-3.859-7.08-8.17l4.064-28.308z" fill="#FFC6B7"/><path fill-rule="evenodd" clip-rule="evenodd" d="M56.268 36.356c0-.566-.459-1.024-1.024-1.024H48.55a8.372 8.372 0 0 0-8.372 8.372v5.274a3.924 3.924 0 0 0 3.924 3.924h3.792a8.372 8.372 0 0 0 8.373-8.373v-8.173z" fill="#fff"/><path fill-rule="evenodd" clip-rule="evenodd" d="M47.883 42.77a3.611 3.611 0 1 0-7.223 0v4.536a3.612 3.612 0 0 0 7.223 0V42.77z" fill="#3D3D3D"/><path d="M40.18 49.01l15.594-1.639c.32-.887.495-1.844.495-2.842v-8.173c0-.566-.459-1.024-1.024-1.024h-6.693a8.372 8.372 0 0 0-8.372 8.372v5.306z" fill="#A570FF"/><path fill-rule="evenodd" clip-rule="evenodd" d="M22.045 36.356c0-.566.458-1.024 1.024-1.024h6.693a8.372 8.372 0 0 1 8.372 8.372v5.103a4.095 4.095 0 0 1-4.095 4.095h-3.622a8.372 8.372 0 0 1-8.372-8.373v-8.173z" fill="#fff"/><path fill-rule="evenodd" clip-rule="evenodd" d="M25.943 42.77a3.611 3.611 0 1 1 7.223 0v4.536a3.611 3.611 0 1 1-7.223 0V42.77z" fill="#3D3D3D"/><path d="M38.127 49.046l-15.574-1.637a8.356 8.356 0 0 1-.508-2.88v-8.173c0-.566.458-1.024 1.024-1.024h6.693a8.372 8.372 0 0 1 8.372 8.372v5.103c0 .08-.002.16-.007.239z" fill="#A570FF"/><path fill-rule="evenodd" clip-rule="evenodd" d="M7.451 40.15c0-8.654 3.54-16.965 9.759-22.982l9.231-3.836a1.916 1.916 0 0 1 2.652 1.77v58.386c0 .882-.715 1.597-1.597 1.597H9.368a1.916 1.916 0 0 1-1.917-1.916v-33.02z" fill="#A570FF"/><path fill-rule="evenodd" clip-rule="evenodd" d="M38.931 58.27a3.232 3.232 0 0 0 3.242-3.223c0-1.78-3.242-5.99-3.242-5.99s-3.241 4.21-3.241 5.99a3.232 3.232 0 0 0 3.241 3.223z" fill="#EE9583"/><path d="M66.273 33.77H47.475c-10.607 0-19.236-8.474-19.485-19.022a27.102 27.102 0 0 1 11.668-2.627c12.986 0 24.028 9.155 26.615 21.649z" fill="#A570FF"/><path d="M45.81 71.89H30.625v11.818H45.81V71.891z" fill="#593F86"/><path d="M42.059 69.424l16.175 2.562.155-.98a8.188 8.188 0 0 0-16.175-2.563l-.155.98z" fill="#A54544"/><path fill-rule="evenodd" clip-rule="evenodd" d="M39.607 69.036a2.481 2.481 0 0 0 2.063 2.838l16.174 2.562a2.481 2.481 0 0 0 2.84-2.062l.155-.98c.921-5.82-3.05-11.286-8.87-12.208-5.82-.922-11.285 3.05-12.207 8.87l-.155.98zm2.972-2.042a8.234 8.234 0 0 0-.366 1.45l-.155.98 16.175 2.562.155-.98a8.19 8.19 0 0 0-15.809-4.011z" fill="#FFC6B7"/><path d="M57.033 65.064a7.447 7.447 0 0 0-9.15 5.282l10.35 1.64.155-.981a8.161 8.161 0 0 0-1.355-5.94z" fill="#FF4B4B"/><path d="M58.362 68.28h-11.47a.744.744 0 0 0-.744.744v1.047l12.084 1.914.156-.98a8.175 8.175 0 0 0-.026-2.726z" fill="#fff"/><path fill-rule="evenodd" clip-rule="evenodd" d="M94.276 56.258c5.09.38 8.905 4.824 8.525 9.922l-.104 1.385-18.428-1.374.103-1.385c.38-5.098 4.815-8.927 9.904-8.547z" fill="#FF9600"/><path d="M83.763 64.583c5.433.405 10.161-3.602 10.56-8.95.399-5.347-3.683-10.01-9.115-10.416-5.436-.405-10.164 3.602-10.563 8.95-.399 5.347 3.683 10.01 9.118 10.416z" fill="#FF9600"/><path d="M111.572 66.5l-34.984-2.608c-6.555-.49-12.265 4.428-12.754 10.984l-1.736 23.28c-.49 6.555 4.429 12.265 10.984 12.754l34.983 2.608c6.556.489 12.266-4.429 12.755-10.984l1.736-23.28c.489-6.555-4.429-12.265-10.984-12.754z" fill="#FFC6B7"/><path fill-rule="evenodd" clip-rule="evenodd" d="M84.977 69.64a7.384 7.384 0 0 1 6.814 7.913l-.334 4.48a7.384 7.384 0 1 1-14.727-1.099l.334-4.479a7.384 7.384 0 0 1 7.913-6.815zM102.312 70.933a7.384 7.384 0 0 0-7.913 6.814l-.334 4.48a7.384 7.384 0 1 0 14.728 1.098l.334-4.48a7.385 7.385 0 0 0-6.815-7.912z" fill="#fff"/><path d="M105.248 101.699c5.592.417 10.465-3.78 10.882-9.372.417-5.593-3.779-10.465-9.372-10.882-5.593-.417-10.465 3.779-10.882 9.372-.417 5.593 3.778 10.465 9.372 10.882zM79.428 104.574c6.312.47 11.81-4.265 12.281-10.577.47-6.312-4.265-11.81-10.577-12.281-6.312-.471-11.81 4.264-12.281 10.576-.47 6.312 4.264 11.811 10.577 12.282z" fill="#FFC6B7"/><path d="M75.558 101.676A9.285 9.285 0 1 0 77.5 83.207a9.285 9.285 0 0 0-1.942 18.469zM107.367 101.176a9.286 9.286 0 1 0 1.94-18.47 9.286 9.286 0 0 0-1.94 18.47z" fill="#FFB4A7"/><path fill-rule="evenodd" clip-rule="evenodd" d="M91.95 91.598a2.9 2.9 0 0 0 3.105-2.68c.12-1.6-2.488-5.598-2.488-5.598s-3.171 3.567-3.29 5.167a2.9 2.9 0 0 0 2.673 3.11z" fill="#EE9583"/><path fill-rule="evenodd" clip-rule="evenodd" d="M84.434 94.345a3.848 3.848 0 0 1 5.19-1.634c1.219.635 2.125.77 2.803.707.661-.062 1.437-.344 2.36-1.121a3.848 3.848 0 0 1 4.957 5.887c-1.91 1.608-4.121 2.665-6.6 2.897-2.463.23-4.85-.385-7.076-1.546a3.848 3.848 0 0 1-1.634-5.19z" fill="#fff"/><path d="M79.648 73.64a2.369 2.369 0 0 0 2.432-3.089c.993-.329 1.963-.277 2.715.235 1.653 1.126 1.622 4.052-.07 6.535-1.692 2.484-4.403 3.584-6.056 2.458-1.63-1.11-1.623-3.972 0-6.432.292.163.624.267.98.293zM96.992 74.934a2.369 2.369 0 0 0 2.432-3.09c.993-.328 1.963-.276 2.715.235 1.653 1.127 1.621 4.053-.07 6.536-1.692 2.483-4.404 3.583-6.057 2.457-1.63-1.11-1.622-3.971.001-6.432.292.163.623.267.98.294z" fill="#3D3D3D"/><path d="M72.8 64.215c-4.837 1.217-8.573 5.414-8.964 10.66l-.664 8.903 1.095.081a7.047 7.047 0 0 0 7.552-6.504l.98-13.14zM115.273 67.382c4.603 1.921 7.675 6.626 7.283 11.872l-.663 8.902-1.096-.081a7.048 7.048 0 0 1-6.504-7.552l.98-13.14z" fill="#FFB67A"/><path d="M60.946 89.404a5.246 5.246 0 1 0 .78-10.464 5.246 5.246 0 0 0-.78 10.464zM122.957 93.883a5.246 5.246 0 0 0 5.622-4.842 5.246 5.246 0 1 0-10.463-.78 5.246 5.246 0 0 0 4.841 5.622z" fill="#FFC6B7"/><path d="M77.807 23.2a3.421 3.421 0 0 0 1.388 4.635l6.03 3.25a1 1 0 0 0 1.355-.407l3.249-6.029a3.421 3.421 0 0 0-6.024-3.246 1.01 1.01 0 0 1-1.364.409 3.421 3.421 0 0 0-4.634 1.389zM98.268 29.008a5.058 5.058 0 0 0-3.081 6.454l3.377 9.546a1.478 1.478 0 0 0 1.886.9l9.545-3.376a5.058 5.058 0 1 0-3.373-9.537 1.494 1.494 0 0 1-1.899-.906 5.057 5.057 0 0 0-6.455-3.081zM33.872 101.449a5.057 5.057 0 0 0 3.229 6.382l9.62 3.157a1.479 1.479 0 0 0 1.865-.944l3.157-9.62a5.058 5.058 0 0 0-9.612-3.154 1.494 1.494 0 0 1-1.877.95 5.058 5.058 0 0 0-6.382 3.229z" fill="#fff" fill-opacity=".6"/></svg>