<svg viewBox="0 0 135 124" fill="none" xmlns="http://www.w3.org/2000/svg"><g clip-path="url(#clip0)"><path d="M11 28c0-9.389 7.611-17 17-17h79c9.389 0 17 7.611 17 17v79c0 9.389-7.611 17-17 17H28c-9.389 0-17-7.611-17-17V28z" fill="#FFCA00"/><path d="M122.44 20.93L20.92 122.45a16.937 16.937 0 0 0 7.08 1.56h41.32L124 69.33V28.01a16.938 16.938 0 0 0-1.56-7.08zM50.32 69.07l58-58c-.43 0-.87-.07-1.31-.07H58.42L25.34 44.09c-6.904 6.904-6.904 18.096 0 25 6.903 6.904 18.096 6.904 25 0l-.02-.02z" fill="#FFD900"/><path d="M32.012 79.497c8.492 0 15.376-6.884 15.376-15.376 0-8.492-6.884-15.376-15.376-15.376-8.492 0-15.375 6.884-15.375 15.376 0 8.492 6.883 15.376 15.375 15.376z" fill="#FF9600"/><path fill-rule="evenodd" clip-rule="evenodd" d="M32.167 75.406a1.757 1.757 0 0 1 1.153-2.201c3.888-1.216 6.332-3.7 7.48-7.6a1.757 1.757 0 0 1 3.371.993c-1.48 5.027-4.796 8.396-9.802 9.961a1.757 1.757 0 0 1-2.202-1.153z" fill="#F68B00"/><path fill-rule="evenodd" clip-rule="evenodd" d="M28.156 55.84c.449.861.115 1.922-.746 2.37-1.74.907-2.615 2.208-2.795 4.05a1.757 1.757 0 1 1-3.498-.343c.3-3.063 1.913-5.386 4.669-6.823a1.757 1.757 0 0 1 2.37.746z" fill="#FFF1A2"/><path fill-rule="evenodd" clip-rule="evenodd" d="M33.191 78.34l1.822 3.643a1.318 1.318 0 0 1-1.18 1.907h-3.642a1.318 1.318 0 0 1-1.179-1.907l1.822-3.643a1.318 1.318 0 0 1 2.357 0z" fill="#FF9600"/><path d="M117.53 103.069l-1.873-1.629a1.49 1.49 0 0 0-2.102.147l-3.583 4.122a1.49 1.49 0 0 0 .147 2.102l1.873 1.629a1.49 1.49 0 0 0 2.102-.147l3.583-4.122a1.49 1.49 0 0 0-.147-2.102z" fill="#FFB100"/><path d="M85.136 100.777l1.874-1.629a1.49 1.49 0 0 1 2.101.147l3.584 4.123c.54.621.474 1.562-.147 2.101l-1.874 1.629a1.49 1.49 0 0 1-2.102-.147l-3.583-4.122a1.49 1.49 0 0 1 .147-2.102z" fill="#FFF1A2"/><path d="M98.427 109.653l2.411-.593a1.491 1.491 0 0 1 1.803 1.091l1.304 5.304a1.488 1.488 0 0 1-1.09 1.802l-2.411.593a1.489 1.489 0 0 1-1.803-1.09l-1.305-5.304a1.49 1.49 0 0 1 1.091-1.803z" fill="#FF9600"/><path d="M46.446 32.624l-1.874-1.629a1.49 1.49 0 0 0-2.102.147l-3.583 4.123a1.49 1.49 0 0 0 .147 2.101l1.873 1.629a1.49 1.49 0 0 0 2.102-.147l3.584-4.122a1.49 1.49 0 0 0-.148-2.102z" fill="#F68B00"/><path d="M53.604 98.522l1.874-1.63a1.49 1.49 0 0 1 2.102.148l3.583 4.122a1.49 1.49 0 0 1-.147 2.102l-1.874 1.629a1.49 1.49 0 0 1-2.101-.147l-3.584-4.123a1.49 1.49 0 0 1 .147-2.101zM50.232 41.48l-2.483.029a1.49 1.49 0 0 0-1.472 1.507l.065 5.462a1.49 1.49 0 0 0 1.507 1.472l2.483-.03a1.49 1.49 0 0 0 1.472-1.507l-.065-5.462a1.49 1.49 0 0 0-1.507-1.472z" fill="#FFB100"/><path d="M75.137 110.28l-1.874-1.629a1.49 1.49 0 0 0-2.101.147l-3.584 4.122a1.49 1.49 0 0 0 .147 2.102l1.874 1.628a1.49 1.49 0 0 0 2.102-.147l3.583-4.122a1.489 1.489 0 0 0-.147-2.101z" fill="#FF9600"/><path d="M20.97 39.725c10.2 0 18.468-8.268 18.468-18.468S31.17 2.79 20.97 2.79c-10.199 0-18.467 8.269-18.467 18.468 0 10.2 8.268 18.468 18.468 18.468z" fill="#FFB100"/><path fill-rule="evenodd" clip-rule="evenodd" d="M23.442 38.336l2.187 4.375A1.583 1.583 0 0 1 24.213 45h-4.375a1.583 1.583 0 0 1-1.416-2.29l2.188-4.375a1.583 1.583 0 0 1 2.832 0z" fill="#FFB100"/><path fill-rule="evenodd" clip-rule="evenodd" d="M16.866 9.729a2.11 2.11 0 0 1-.896 2.847c-2.089 1.089-3.14 2.651-3.357 4.863a2.11 2.11 0 1 1-4.2-.412c.36-3.679 2.296-6.469 5.606-8.194a2.11 2.11 0 0 1 2.847.896z" fill="#FFF1A2"/><path fill-rule="evenodd" clip-rule="evenodd" d="M21.684 34.284a2.11 2.11 0 0 1 1.385-2.644c4.67-1.46 7.605-4.444 8.983-9.128a2.11 2.11 0 1 1 4.05 1.192C34.324 29.743 30.34 33.79 24.328 35.67a2.11 2.11 0 0 1-2.644-1.385z" fill="#FF9600"/><path d="M30.006 94.254l-.182.26-.187-.26H8.789v24.095c0 .832.674 1.505 1.505 1.505h35.752c.832 0 1.505-.673 1.505-1.505V94.254H30.006z" fill="#FFB100"/><path d="M47.552 94.515H29.823v25.339h16.224c.83 0 1.505-.674 1.505-1.505V94.515z" fill="#FF9600"/><path d="M51.845 85.767H36.308a.903.903 0 0 0-.744.391l-5.741 8.357h17.729l5.038-7.334a.903.903 0 0 0-.745-1.414zM23.338 85.766H4.495a.903.903 0 0 0-.744 1.415l5.038 7.334h21.034l-5.74-8.357a.903.903 0 0 0-.745-.392z" fill="#F68B00"/><path fill-rule="evenodd" clip-rule="evenodd" d="M40.95 106.906h-3.023a.951.951 0 0 0-.951.951v1.695c0 .525.426.951.95.951h3.024c.525 0 .95-.426.95-.951v-1.695a.951.951 0 0 0-.95-.951z" fill="#F68B00"/><path fill-rule="evenodd" clip-rule="evenodd" d="M38.871 102.8l-3.367 4.415a.714.714 0 0 0 .567 1.146h6.735a.713.713 0 0 0 .567-1.146l-3.367-4.415a.713.713 0 0 0-1.135 0z" fill="#F68B00"/><path d="M24.263 101.755H12.847a.752.752 0 0 0-.752.752v.003c0 .416.336.753.752.753h11.416a.753.753 0 0 0 .752-.753v-.003a.753.753 0 0 0-.752-.752zM24.263 104.771H12.847a.753.753 0 0 0-.752.753v.003c0 .416.336.753.752.753h11.416a.753.753 0 0 0 .752-.753v-.003a.753.753 0 0 0-.752-.753zM89.673 14.246c7.84.96 13.981 6.55 16.019 13.696l.009-.016c1.49 6.167 4.167 8.738 10.063 9.46v.005c8.15 1.195 13.898 8.687 12.892 16.908-1.021 8.344-8.613 14.28-16.957 13.26-8.344-1.021-14.28-8.613-13.26-16.958.096-.778.248-1.535.453-2.268a18.995 18.995 0 0 1-14.251 3.692c-2.341 6.295-8.763 10.402-15.722 9.55-8.14-.995-13.932-8.402-12.936-16.543.82-6.707 5.993-11.82 12.342-12.855.023-.441.062-.885.117-1.33 1.278-10.447 10.784-17.88 21.23-16.601z" fill="#F68B00"/><path d="M57.48 65.412c2.174-17.774 18.346-30.42 36.12-28.245 17.774 2.175 30.419 18.347 28.244 36.121l-1.566 12.798c-.704 5.752-5.938 9.845-11.69 9.141L65.054 89.9c-5.752-.704-9.845-5.938-9.14-11.69l1.565-12.798z" fill="#FFB100"/><path d="M128.516 65.627a5.197 5.197 0 1 1-10.318-1.262 5.197 5.197 0 0 1 10.318 1.262zM62.923 57.6a5.198 5.198 0 1 1-10.318-1.262A5.198 5.198 0 0 1 62.923 57.6z" fill="#FFB100"/><path d="M76.609 53.755a6.682 6.682 0 0 1 13.266 1.623l-.421 3.44a6.683 6.683 0 0 1-13.266-1.624l.42-3.44zM92.577 55.709a6.682 6.682 0 1 1 13.266 1.623l-.421 3.44a6.682 6.682 0 1 1-13.266-1.624l.421-3.44z" fill="#FFF1A2"/><path d="M83.387 55.96a2.253 2.253 0 0 1 4.473.547l-.078.639a2.253 2.253 0 1 1-4.473-.548l.078-.639zM94.25 57.289a2.253 2.253 0 1 1 4.474.547l-.079.639a2.253 2.253 0 0 1-4.473-.547l.079-.64z" fill="#F68B00"/><path d="M67.704 69.707a2.42 2.42 0 0 1 3.272-1.006L96.957 82.46a2.42 2.42 0 0 1 1.006 3.271l-.132.25c-4.425 8.356-14.786 11.543-23.142 7.118-8.355-4.425-11.542-14.786-7.117-23.142l.132-.25z" fill="#FFB100"/><path d="M71.398 69.929a1.858 1.858 0 0 1 2.512-.773L93.858 79.72a1.858 1.858 0 0 1 .772 2.512l-.102.192c-3.397 6.415-11.352 8.861-17.767 5.464-6.415-3.397-8.862-11.352-5.464-17.767l.101-.192z" fill="#FF9600"/><path opacity=".8" fill-rule="evenodd" clip-rule="evenodd" d="M84.925 89.262c-2.703.42-5.56.004-8.164-1.374A13.1 13.1 0 0 1 70.4 80.3a13.054 13.054 0 0 1 8.171 1.367 13.07 13.07 0 0 1 6.353 7.594z" fill="#F68B00"/><path d="M68.88 61.982a8.453 8.453 0 0 1 11.599-2.89l12.767 7.674a8.452 8.452 0 1 1-8.709 14.49L71.77 73.58a8.453 8.453 0 0 1-2.89-11.599z" fill="#F68B00"/><path d="M80.678 76.462a8.453 8.453 0 0 0 10.56 5.602l14.214-4.36a8.451 8.451 0 0 0 5.601-10.56 8.452 8.452 0 0 0-10.559-5.602l-14.215 4.36a8.453 8.453 0 0 0-5.601 10.56z" fill="#F68B00"/><path d="M94.35 65.684a4.207 4.207 0 1 1-8.353-1.022 4.207 4.207 0 0 1 8.352 1.022z" fill="#FFB100"/><path fill-rule="evenodd" clip-rule="evenodd" d="M114.199 48.062c4.77-1.03 9.457 8.094 6.67 12.368.428 1.512.748 3.065.953 4.648a7.302 7.302 0 0 1-8.723-8.04l1.083-8.844.017-.132zm-54.742 9.385a32.175 32.175 0 0 1 2.044-4.278c-2.376-5.232 4.874-11.482 9.458-10.398a8.78 8.78 0 0 1-.015.133l-1.083 8.844a7.301 7.301 0 0 1-10.404 5.699zM85.488 45.13c-1.826-.125-2.901.158-4.64 1.209a3.17 3.17 0 1 1-3.278-5.427c2.711-1.638 5.068-2.333 8.353-2.107a3.17 3.17 0 0 1-.435 6.325zM99.893 46.893c1.803.319 2.778.853 4.212 2.292a3.171 3.171 0 0 0 4.49-4.477c-2.236-2.243-4.356-3.486-7.599-4.059a3.17 3.17 0 0 0-1.103 6.244z" fill="#F68B00"/><path d="M122.263 5.219l-3.225 33.364a2.32 2.32 0 0 1-3.326 1.862L95.139 30.421a2.32 2.32 0 0 1-.583-3.767l24.287-23.101a2.03 2.03 0 0 1 3.42 1.666z" fill="#FF9600"/><path d="M121.919 8.772c-1.67 2.634-5.098 3.643-7.98 2.239a6.253 6.253 0 0 1-1.681-1.195l6.585-6.263a2.03 2.03 0 0 1 3.42 1.666l-.344 3.553zM121.083 17.423a6.26 6.26 0 0 0-.594-.331c-3.023-1.473-6.661-.228-8.127 2.781-1.467 3.009-.205 6.642 2.818 8.114a6.085 6.085 0 0 0 4.862.213l1.041-10.777zM95.395 25.856a5.076 5.076 0 0 0 2.84 4.148c2.52 1.227 5.551.189 6.773-2.318 1.222-2.508.17-5.535-2.348-6.762a5.095 5.095 0 0 0-1.581-.475l-5.684 5.407z" fill="#F68B00"/><path d="M55.344 27.552c7.352 0 13.312-5.96 13.312-13.313 0-7.352-5.96-13.312-13.312-13.312-7.352 0-13.312 5.96-13.312 13.312 0 7.353 5.96 13.313 13.312 13.313z" fill="#FFB100"/><path fill-rule="evenodd" clip-rule="evenodd" d="M56.364 26.55l1.577 3.154a1.141 1.141 0 0 1-1.02 1.651h-3.154a1.14 1.14 0 0 1-1.02-1.65l1.576-3.155a1.141 1.141 0 0 1 2.041 0z" fill="#FFB100"/><path fill-rule="evenodd" clip-rule="evenodd" d="M52.005 5.93c.388.744.1 1.663-.646 2.052-1.506.784-2.264 1.91-2.42 3.505a1.521 1.521 0 1 1-3.028-.297c.26-2.652 1.656-4.663 4.042-5.907a1.521 1.521 0 0 1 2.052.646z" fill="#FFF1A2"/><path fill-rule="evenodd" clip-rule="evenodd" d="M55.858 24.01a1.521 1.521 0 0 1 .998-1.906c3.366-1.052 5.482-3.203 6.476-6.58a1.521 1.521 0 1 1 2.919.86c-1.281 4.352-4.153 7.27-8.487 8.624a1.521 1.521 0 0 1-1.906-.998z" fill="#FF9600"/><path d="M21.71 119.854v-6.463a.302.302 0 0 0-.523-.203l-.685.75a.603.603 0 0 1-.89 0l-.763-.837a.603.603 0 0 0-.89 0l-.762.837a.603.603 0 0 1-.89 0l-.684-.75a.3.3 0 0 0-.523.203v6.463h6.61z" fill="#FFF1A2"/></g><defs><clipPath id="clip0"><path fill="#fff" d="M0 0h135v124H0z"/></clipPath></defs></svg>