<svg viewBox="0 0 135 124" fill="none" xmlns="http://www.w3.org/2000/svg"><g clip-path="url(#clip0)"><path d="M28.385 11.021h79c9.389 0 17 7.612 17 17v79.001c0 9.388-7.611 17-17 17h-79c-9.39 0-17-7.612-17-17v-79c0-9.39 7.61-17 17-17z" fill="#FFB103"/><path d="M124.385 34.58v72.442c0 2.933-.743 5.693-2.051 8.101H40V45.58c0-6.075 4.925-11 11-11h73.385z" fill="#A66644"/><path d="M65.552 11.021H32.2V31.02a3 3 0 0 0 4.852 2.36l28.5-22.359zM23.2 11.827v27.555a10 10 0 0 1-3.828 7.867l-7.987 6.267V28.022c0-7.581 4.962-14.003 11.815-16.195z" fill="#BBF2FF"/><path d="M124.385 37.485v69.537c0 4.198-1.522 8.04-4.044 11.006H40V48.485c0-6.075 4.925-11 11-11h73.385z" fill="#734831"/><path fill-rule="evenodd" clip-rule="evenodd" d="M98.46 69.317h7.483a3.742 3.742 0 0 1 3.742 3.742v8.419a3.742 3.742 0 0 1-3.742 3.742H98.46a3.742 3.742 0 0 1-3.742-3.742v-8.419a3.742 3.742 0 0 1 3.742-3.742z" fill="#FFB7E3"/><path d="M11.385 89.48v17.542c0 9.388 7.61 17 17 17h79c9.389 0 17-7.612 17-17V89.479c0-6.075-4.925-11-11-11h-91c-6.075 0-11 4.925-11 11z" fill="#A66644"/><path d="M11.385 91.178v15.844c0 9.388 7.61 17 17 17h79c9.389 0 17-7.612 17-17V91.178c0-6.075-4.925-11-11-11h-91c-6.075 0-11 4.925-11 11z" fill="#734831"/><path d="M93.606 1.08c18.562 0 33.609 15.047 33.609 33.608v3.617c0 18.562-15.047 33.609-33.609 33.609-18.561 0-33.608-15.047-33.608-33.608v-3.618c0-18.561 15.047-33.608 33.608-33.608z" fill="#FFB7E3"/><path d="M78.541 68.356a33.62 33.62 0 0 1-5.184-3.224c.234-.106.496-.157.77-.136 21.718 1.614 34.823-6.553 41.568-20.587a1.582 1.582 0 1 1 2.852 1.371c-6.788 14.125-19.655 22.826-40.006 22.576z" fill="#FF9BD8"/><path fill-rule="evenodd" clip-rule="evenodd" d="M118.771 76.823L115.522 58.4a6.548 6.548 0 0 1 12.897-2.274l3.249 18.424a6.548 6.548 0 1 1-12.897 2.274z" fill="#1CB0F6"/><path fill-rule="evenodd" clip-rule="evenodd" d="M24.953 70.395h88.475c6.075 0 11 4.925 11 11v10.51H13.953v-10.51c0-6.075 4.925-11 11-11z" fill="#A66644"/><path fill-rule="evenodd" clip-rule="evenodd" d="M24.953 73.817h88.475c6.075 0 11 4.925 11 11v7.87H13.953v-7.87c0-6.075 4.925-11 11-11z" fill="#734831"/><path d="M86.224 9.859c14.202-4.073 29.016 4.139 33.089 18.34 4.072 14.203-4.14 29.017-18.342 33.09-14.202 4.071-29.016-4.14-33.088-18.342-4.072-14.202 4.14-29.016 18.341-33.088z" fill="#E18E70"/><path d="M100.451 9.71c-4.145 7.757-11.67 19.569-29.396 24.335-1.27.341-2.937.39-4.186.275.522-11.145 8.036-21.215 19.356-24.461a26.626 26.626 0 0 1 14.226-.148z" fill="#3D3D3D"/><path fill-rule="evenodd" clip-rule="evenodd" d="M86.72 39.98a8.375 8.375 0 1 0-4.617-16.1 8.375 8.375 0 0 0 4.616 16.1z" fill="#fff"/><path fill-rule="evenodd" clip-rule="evenodd" d="M101.752 35.67a8.376 8.376 0 1 0-4.619-16.101 8.376 8.376 0 0 0 4.619 16.101z" fill="#fff"/><path fill-rule="evenodd" clip-rule="evenodd" d="M101.377 34.365a7.017 7.017 0 1 0-3.868-13.49 7.017 7.017 0 0 0 3.868 13.49z" fill="#3D3D3D"/><path fill-rule="evenodd" clip-rule="evenodd" d="M99.202 27.79l.487-.353c1.944-1.391 3.504-2.386 2.291-4.056-1.28-1.762-4.013-1.96-6.103-.44-2.09 1.518-2.746 4.177-1.466 5.94 1.248 1.716 2.78.383 4.79-1.092zM103.312 30.984a1.811 1.811 0 1 0-.998-3.481 1.811 1.811 0 0 0 .998 3.481z" fill="#fff"/><path fill-rule="evenodd" clip-rule="evenodd" d="M86.345 38.675a7.017 7.017 0 1 0-3.868-13.49 7.017 7.017 0 0 0 3.868 13.49z" fill="#3D3D3D"/><path fill-rule="evenodd" clip-rule="evenodd" d="M84.012 32.216l.644-.469c1.945-1.39 3.504-2.386 2.292-4.055-1.28-1.762-4.013-1.96-6.103-.441-2.09 1.518-2.746 4.178-1.466 5.94 1.214 1.672 2.699.451 4.633-.975zM88.28 35.295a1.81 1.81 0 1 0-.998-3.481 1.81 1.81 0 0 0 .998 3.481z" fill="#fff"/><path d="M108.912 26.576c-5.617 1.873-9.675 5.7-12.029 11.316a2.812 2.812 0 1 0 5.188 2.174c1.733-4.136 4.558-6.8 8.62-8.155a2.812 2.812 0 1 0-1.779-5.335z" fill="#E18E70"/><path fill-rule="evenodd" clip-rule="evenodd" d="M94.748 39.424a2.342 2.342 0 0 0 1.594-2.903c-.358-1.248-3.446-3.558-3.446-3.558l-.12.32c-.33.91-1.21 3.502-.917 4.524a2.342 2.342 0 0 0 2.89 1.617z" fill="#9E4D31"/><path d="M92.112 41.511c1.026.433 2.109.486 3.248.16 1.16-.333 2.072-.971 2.737-1.916a.823.823 0 0 1 1.464.246l1.996 6.96a4.458 4.458 0 1 1-8.571 2.458L91 42.496a.823.823 0 0 1 1.111-.985z" fill="#881B1B"/><path d="M101.664 48.962a4.458 4.458 0 0 1-7.708 2.21 4.322 4.322 0 0 1 7.708-2.21z" fill="#B12E2E"/><path fill-rule="evenodd" clip-rule="evenodd" d="M62.402 25.118l.368.007c5.84.163 7.69-3.378 9.808-6.008 1.411-1.753 3.718-.935 6.92 2.453l-5.64 6.409-9.569.217-.692-.31c-4.106-1.876-4.505-2.799-1.195-2.768z" fill="#3D3D3D"/><path d="M58.46 24.437l16.842 2.805a1.338 1.338 0 0 1 .948 1.943c-2.038 3.846-6.383 5.98-10.782 5.2-4.398-.782-7.756-4.284-8.365-8.6-.127-.899.465-1.506 1.358-1.348z" fill="#3D3D3D"/><path fill-rule="evenodd" clip-rule="evenodd" d="M36.093 48.58c14.401 0 26.66 10.483 28.895 24.71l6.706 42.681a1.45 1.45 0 0 1-1.433 1.676H4.95a1.451 1.451 0 0 1-1.442-1.613l4.78-42.596C9.878 59.282 21.85 48.58 36.093 48.58z" fill="#A570FF"/><path fill-rule="evenodd" clip-rule="evenodd" d="M33.393 105.467H45.33a.93.93 0 0 1 .93.93v44.954a.93.93 0 0 1-.93.93H33.393a.93.93 0 0 1-.93-.93v-44.954a.93.93 0 0 1 .93-.93z" fill="#593F86"/><path fill-rule="evenodd" clip-rule="evenodd" d="M59.587 68.236l2.117-.373a5.514 5.514 0 1 1 1.915 10.86l-2.117.373a5.514 5.514 0 1 1-1.915-10.86z" fill="#FFC6B7"/><path fill-rule="evenodd" clip-rule="evenodd" d="M34.039 53.102c11.987-2.113 23.65 5.112 27.096 16.787l5.584 18.922c1.846 6.256-1.729 12.825-7.985 14.671a11.91 11.91 0 0 1-1.292.303l-29.29 5.165c-6.423 1.132-12.549-3.157-13.682-9.58a11.813 11.813 0 0 1-.173-1.675l-.623-19.52c-.391-12.26 8.286-22.943 20.365-25.072z" fill="#FFC6B7"/><path d="M51.155 71.165l-6.282 1.107a7.31 7.31 0 0 0-5.929 8.468l.884 5.012a3.566 3.566 0 0 0 4.13 2.892l3.687-.65a7.31 7.31 0 0 0 5.93-8.468l-1.342-7.607a.93.93 0 0 0-1.078-.754z" fill="#fff"/><path d="M45.303 72.197a3.278 3.278 0 0 0-.926 2.905l.715 4.059a3.281 3.281 0 1 0 6.463-1.14l-.715-4.059a3.278 3.278 0 0 0-1.864-2.413l-3.673.648z" fill="#3D3D3D"/><path d="M52.941 75.937L38.908 78.41a7.312 7.312 0 0 1 5.965-6.139l6.282-1.107a.93.93 0 0 1 1.078.754l.708 4.018z" fill="#A570FF"/><path d="M22.364 76.242l6.283-1.108a7.31 7.31 0 0 1 8.467 5.929l.857 4.859a3.72 3.72 0 0 1-3.018 4.31l-3.534.623a7.31 7.31 0 0 1-8.468-5.929L21.61 77.32a.93.93 0 0 1 .755-1.078z" fill="#fff"/><path d="M36.188 78.575l.368 2.09a3.281 3.281 0 0 1-6.463 1.14l-.715-4.059c-.18-1.013.128-2 .754-2.722a7.322 7.322 0 0 1 6.056 3.55z" fill="#3D3D3D"/><path d="M37.027 80.641l-14.384 2.537-1.033-5.859a.93.93 0 0 1 .755-1.078l6.282-1.107a7.31 7.31 0 0 1 8.38 5.507z" fill="#A570FF"/><path d="M50.848 104.948l-22.695 4.002c-6.424 1.132-12.55-3.157-13.683-9.58a11.813 11.813 0 0 1-.173-1.675l-.024-.736c2.837-4.754 7.646-8.294 13.526-9.33 10.734-1.893 20.97 5.274 22.863 16.008.077.438.139.875.186 1.311z" fill="#FFC6B7"/><path fill-rule="evenodd" clip-rule="evenodd" d="M61.9 67.828l-17.946 3.165c-9.47 1.67-18.5-4.654-20.17-14.124l-.084-.47c2.977-2.4 6.485-4.101 10.339-4.78C45.197 49.65 57.36 57.06 61.769 67.51l.13.317z" fill="#A570FF"/><path d="M40.519 98.443c-3.033-3.601-6.129-4.282-8.838-1.715a.958.958 0 1 0 1.317 1.39c1.792-1.697 3.66-1.286 6.056 1.559a.958.958 0 0 0 1.465-1.234z" fill="#EE9583"/><path fill-rule="evenodd" clip-rule="evenodd" d="M40.215 94.187a2.937 2.937 0 0 0 2.392-3.395c-.28-1.593-3.846-4.849-3.846-4.849l-.253.504c-.577 1.179-1.924 4.11-1.702 5.368a2.937 2.937 0 0 0 3.409 2.372z" fill="#EE9583"/><path fill-rule="evenodd" clip-rule="evenodd" d="M18.069 59.81l.355-.35 8.387-3.485a1.741 1.741 0 0 1 2.409 1.608v53.05c0 .801-.65 1.451-1.45 1.451H11.297c-.962 0-1.741-.78-1.741-1.741V80.342a29.02 29.02 0 0 1 8.512-20.533z" fill="#A570FF"/><path fill-rule="evenodd" clip-rule="evenodd" d="M39.205 113.823h.534a7.231 7.231 0 0 1 6.011 3.212l12.319 18.427a5.508 5.508 0 0 1-4.579 8.569H25.454a5.508 5.508 0 0 1-4.579-8.569l12.319-18.427a7.231 7.231 0 0 1 6.011-3.212z" fill="#593F86"/><path fill-rule="evenodd" clip-rule="evenodd" d="M114.822 62.08c5.424 0 9.822 4.398 9.822 9.822 0 5.424-4.398 9.822-9.822 9.822-5.425 0-9.822-4.398-9.822-9.822 0-5.424 4.397-9.822 9.822-9.822zM81.986 62.905c5.424 0 9.822 4.398 9.822 9.822 0 5.425-4.398 9.822-9.822 9.822-5.425 0-9.822-4.397-9.822-9.822 0-5.424 4.397-9.822 9.822-9.822z" fill="#E18E70"/><path fill-rule="evenodd" clip-rule="evenodd" d="M44.513 31.626l-7.098-4.788a6.438 6.438 0 1 1 7.2-10.675l.57.384.383-.569a6.438 6.438 0 1 1 10.675 7.2l-4.788 7.099a5 5 0 0 1-6.942 1.349zM117.606 18.276l-2.809-5.515a5.31 5.31 0 1 1 9.464-4.822l.257.504.505-.257a5.312 5.312 0 1 1 4.822 9.465l-5.514 2.81a5 5 0 0 1-6.725-2.185zM89.79 110.449l-10.047-5.118a7.725 7.725 0 0 1 7.015-13.767l.734.374.374-.734a7.725 7.725 0 0 1 13.767 7.015l-5.119 10.045a5 5 0 0 1-6.725 2.185z" fill="#FF4B4B"/></g><defs><clipPath id="clip0"><path fill="#fff" d="M0 0h135v124H0z"/></clipPath></defs></svg>