<svg viewBox="0 0 135 124" fill="none" xmlns="http://www.w3.org/2000/svg"><g clip-path="url(#clip0)"><path d="M28 11h79c9.389 0 17 7.611 17 17v79c0 9.389-7.611 17-17 17H28c-9.389 0-17-7.611-17-17V28c0-9.389 7.611-17 17-17z" fill="#2C70C9"/><path fill-rule="evenodd" clip-rule="evenodd" d="M60.926 13.41L80.58 59.97a6.27 6.27 0 0 1-2.943 8.032 5.409 5.409 0 0 1-7.445-2.765L51.12 18.918l9.805-5.507z" fill="#FFAADE"/><path fill-rule="evenodd" clip-rule="evenodd" d="M54.963 15.467a2.857 2.857 0 0 1-3.837-1.271L47.105 6.19a2.857 2.857 0 1 1 5.107-2.564l4.02 8.004c.71 1.41.14 3.128-1.269 3.836z" fill="#CD856C"/><path fill-rule="evenodd" clip-rule="evenodd" d="M57.066 15.337a2.855 2.855 0 0 1-2.739-2.972l.365-8.95a2.857 2.857 0 0 1 5.711.233l-.366 8.951a2.857 2.857 0 0 1-2.971 2.738zM54.55 18.623a2.856 2.856 0 0 1-4.02.411l-6.945-5.658a2.857 2.857 0 1 1 3.609-4.43l6.946 5.658a2.856 2.856 0 0 1 .41 4.02z" fill="#CD856C"/><path fill-rule="evenodd" clip-rule="evenodd" d="M56.387 19.175a2.86 2.86 0 0 1-.477-4.014l5.542-7.037a2.857 2.857 0 1 1 4.49 3.536l-5.543 7.037a2.857 2.857 0 0 1-4.012.478z" fill="#CD856C"/><path fill-rule="evenodd" clip-rule="evenodd" d="M61.637 11.546a6.541 6.541 0 0 1-2.91 8.782 6.54 6.54 0 0 1-8.781-2.91 6.54 6.54 0 0 1 2.908-8.782 6.544 6.544 0 0 1 8.783 2.91z" fill="#CD856C"/><path fill-rule="evenodd" clip-rule="evenodd" d="M105.518 62.307l-9.353.888c-5.95.564-10.316 5.846-9.751 11.796.068.722.209 1.434.42 2.127l1.67 5.491a10.823 10.823 0 0 0 12.945 7.358l14.305-3.527a8.638 8.638 0 0 0 4.487-14.011l-5.486-6.395a10.824 10.824 0 0 0-9.237-3.727z" fill="#FFAADE"/><path d="M109.164 84.013l-35.61-10.887a4.619 4.619 0 0 0-2.701 8.834l35.61 10.887a4.62 4.62 0 0 0 2.701-8.834z" fill="#DA8E74"/><path fill-rule="evenodd" clip-rule="evenodd" d="M104.366 5.266c6.052 1.85 9.867 7.553 9.579 13.597l-.003-.048c.169 3.052 1.99 4.993 5.314 6.066l.214.067.171.055.103.03.19.055c5.515 1.687 8.625 7.508 6.945 13.002-1.68 5.494-7.513 8.581-13.028 6.895a10.429 10.429 0 0 1-5.999-4.763l-.366 1.196c-2.166 7.087-9.615 11.107-16.71 9.063l-.313-.094c-6.778-2.072-10.75-8.974-9.297-15.779-3.881-2.447-5.814-7.259-4.412-11.843 1.396-4.566 5.66-7.47 10.228-7.352l.36-1.178c2.167-7.087 9.615-11.107 16.71-9.063l.314.094z" fill="#3D3D3D"/><path d="M75.615 35.387a3.801 3.801 0 1 0 2.223-7.27 3.801 3.801 0 0 0-2.222 7.27zM120.766 49.19a3.801 3.801 0 1 0 2.222-7.27 3.801 3.801 0 0 0-2.222 7.27z" fill="#DA8E74"/><path d="M104.666 21.45c12.204 3.731 19.073 16.649 15.342 28.853l-10.763 35.202c-3.731 12.204-16.649 19.073-28.853 15.341-12.203-3.73-19.072-16.648-15.34-28.852L75.813 36.79c3.73-12.203 16.649-19.072 28.852-15.34z" fill="#DA8E74"/><path d="M110.59 81.105l-1.345 4.4c-3.731 12.204-16.649 19.073-28.853 15.342S61.32 84.197 65.051 71.994l1.345-4.4 44.194 13.511z" fill="#2BE69C"/><path fill-rule="evenodd" clip-rule="evenodd" d="M66.894 65.967l44.194 13.511-1.521 4.975L65.373 70.94l1.52-4.974z" fill="#A56644"/><path d="M77.798 69.301l-3.156-.965-2.223 7.27 3.157.965 2.222-7.27zM103.146 77.051l-3.157-.965-2.222 7.27 3.156.965 2.223-7.27z" fill="#2BE69C"/><path d="M117.953 32.048c3.03 1.541 4.125 7.612 3.068 11.805a5.651 5.651 0 0 1-4.468-7.227l1.4-4.578zM87.97 22.688l-1.63 5.33a5.652 5.652 0 0 1-8.064 3.335c1.366-3.814 5.762-7.79 9.694-8.666z" fill="#3D3D3D"/><path fill-rule="evenodd" clip-rule="evenodd" d="M70.923 52.78l44.194 13.51-.183.602-2.9 12.89-46.1-14.093L70.74 53.38l.184-.6z" fill="#FFAADE"/><path fill-rule="evenodd" clip-rule="evenodd" d="M90.875 66.724l8.517-5.45-12.53-3.831 4.013 9.281z" fill="#DA8E74"/><path fill-rule="evenodd" clip-rule="evenodd" d="M97.218 26.704a4.717 4.717 0 0 1 3.132 5.89l-.84 2.743a4.716 4.716 0 0 1-9.02-2.758l.84-2.744a4.716 4.716 0 0 1 5.888-3.13z" fill="#fff"/><path fill-rule="evenodd" clip-rule="evenodd" d="M95.692 29.32a2.117 2.117 0 0 1 1.406 2.643l-.778 2.544a2.117 2.117 0 1 1-4.05-1.239l.778-2.543a2.117 2.117 0 0 1 2.644-1.406z" fill="#3D3D3D"/><path fill-rule="evenodd" clip-rule="evenodd" d="M108.027 30.009a4.716 4.716 0 0 1 3.131 5.889l-.839 2.743a4.716 4.716 0 1 1-9.02-2.757l.839-2.744a4.716 4.716 0 0 1 5.889-3.131z" fill="#fff"/><path fill-rule="evenodd" clip-rule="evenodd" d="M105.725 32.227a2.118 2.118 0 0 1 1.406 2.644l-.778 2.544a2.117 2.117 0 1 1-4.049-1.238l.777-2.544a2.118 2.118 0 0 1 2.644-1.406z" fill="#3D3D3D"/><path d="M115.017 53.273c1.94-6.343-1.63-13.057-7.973-14.996-6.343-1.94-13.056 1.63-14.996 7.973-1.939 6.343 1.631 13.057 7.974 14.996 6.342 1.939 13.056-1.63 14.995-7.974z" fill="#DA8E74"/><path fill-rule="evenodd" clip-rule="evenodd" d="M93.155 34.291c6.343 1.94 9.913 8.653 7.974 14.996l-22.97-7.022c1.94-6.343 8.654-9.913 14.996-7.974z" fill="#DA8E74"/><path fill-rule="evenodd" clip-rule="evenodd" d="M106.191 46.197l-11.475 2.861.65 2.609a5.913 5.913 0 1 0 11.476-2.862l-.651-2.608z" fill="#A54444"/><path fill-rule="evenodd" clip-rule="evenodd" d="M104.181 45.763l-9.39 2.34.26 1.044 8.543-1.149a1 1 0 0 0 .837-1.233l-.25-1.002z" fill="#fff"/><path fill-rule="evenodd" clip-rule="evenodd" d="M102.282 47.204a6.201 6.201 0 0 0-3.706-7.949L93.5 37.408a6.202 6.202 0 1 0-4.243 11.656l5.076 1.847a6.201 6.201 0 0 0 7.949-3.707z" fill="#3D3D3D"/><path fill-rule="evenodd" clip-rule="evenodd" d="M97.575 47.563a6.202 6.202 0 0 1 4.117-7.744l5.166-1.579a6.202 6.202 0 0 1 3.626 11.862l-5.165 1.579a6.202 6.202 0 0 1-7.745-4.118z" fill="#3D3D3D"/><path d="M109.296 25.887c2.196 1.048 3.81 2.32 4.791 3.89a2.641 2.641 0 0 1-4.408 2.907l-.073-.11c-.377-.604-1.222-1.27-2.585-1.92a2.64 2.64 0 0 1 2.162-4.818l.113.051zM94.865 19.83c2.4-.402 4.452-.286 6.156.439a2.64 2.64 0 0 1-1.944 4.909l-.122-.049c-.656-.279-1.73-.34-3.22-.09a2.64 2.64 0 0 1-.992-5.186l.123-.024z" fill="#3D3D3D"/><path d="M98.136 42.465a3.001 3.001 0 1 0 1.755-5.74 3.001 3.001 0 0 0-1.755 5.74z" fill="#DA8E74"/><path fill-rule="evenodd" clip-rule="evenodd" d="M79.733 106.083a3 3 0 0 1 3.747-1.992l6.887 2.106a3 3 0 1 1-1.754 5.739l-6.888-2.106a3 3 0 0 1-1.992-3.747zM64.044 101.287a3 3 0 0 1 3.748-1.992l6.887 2.106a3 3 0 1 1-1.755 5.739l-6.887-2.105a3.002 3.002 0 0 1-1.993-3.748z" fill="#1CB0F6"/><path fill-rule="evenodd" clip-rule="evenodd" d="M79.431 28.977l.746 1.223 7.64-7.045.6-1.962-8.986 7.784zM121.587 41.448l-1.264.817-2.541-9.637.6-1.963 3.205 10.783z" fill="#3D3D3D"/><path fill-rule="evenodd" clip-rule="evenodd" d="M14.18 23h21.095L32.95 50.111H12.19L14.18 23z" fill="#DEDEDE"/><path fill-rule="evenodd" clip-rule="evenodd" d="M35.275 23H31.2c-.926 0-1.709.688-1.832 1.607L25.686 52h15.102l-3.68-27.393A1.852 1.852 0 0 0 35.274 23z" fill="#A8A9A5"/><path d="M11 51.88V28c0-1.74.261-3.42.747-5h2.434c.925 0 1.708.685 1.831 1.6l3.682 27.28H11z" fill="#DEDEDE"/><path d="M11 92.358v-42.25h40.3a9 9 0 0 1 7.31 3.752l27.64 38.498H11z" fill="#FFD900"/><path d="M11 95.656V50.214a6 6 0 0 1 4.04 2.443l30.872 42.999H11z" fill="#FFB103"/><path d="M58.958 53.406l30.333 42.25H41.876l-28.06-39.083a2 2 0 0 1 1.625-3.167h43.517z" fill="#3D65A1"/><path d="M46.111 95.656l-30.696-42.25H57.958l28.863 40.202-6.153 2.048H46.111z" fill="#1999D6"/><path opacity=".52" d="M33.353 83.785l24.601-30.379h1.004l9.617 13.395-23.367 28.855h-3.332l-8.523-11.87z" fill="#46D7FF"/><path d="M11 95.657V61.823l24.29 33.834H11z" fill="#3D65A1"/><path fill-rule="evenodd" clip-rule="evenodd" d="M58.212 53.081a.75.75 0 0 1 1.046.175L86.61 91.564a.75.75 0 1 1-1.22.872L58.037 54.127a.75.75 0 0 1 .175-1.046z" fill="#fff"/><path d="M124 91.764V107c0 9.389-7.611 17-17 17H28c-9.389 0-17-7.611-17-17V91.764h113z" fill="#FFD900"/><path d="M76.411 124H28c-9.389 0-17-7.611-17-17V91.764h50.743c8.1 0 14.668 6.568 14.668 14.669V124z" fill="#FFB103"/><path d="M23.203 123.314a17.038 17.038 0 0 1-11.419-11.195h11.42v11.195z" fill="#3D3D3D"/><path fill-rule="evenodd" clip-rule="evenodd" d="M36.505 112.119h-13.3v-11.188a2.548 2.548 0 0 1 2.547-2.548h8.204c1.408 0 2.55 1.14 2.55 2.548v11.188zM36.506 125.857h13.302v-13.738H36.506v13.738zM63.11 112.119H49.808v-11.188a2.548 2.548 0 0 1 2.549-2.548h8.204c1.407 0 2.549 1.14 2.549 2.548v11.188zM63.11 125.857h13.302v-13.738H63.11v13.738z" fill="#3D3D3D"/><path fill-rule="evenodd" clip-rule="evenodd" d="M103.547 108.803c0 5.689-4.612 10.302-10.302 10.302-5.69 0-10.304-4.613-10.304-10.302 0-5.691 4.613-10.304 10.304-10.304 5.69 0 10.302 4.613 10.302 10.304z" fill="#FCFBFA"/></g><defs><clipPath id="clip0"><path fill="#fff" d="M0 0h135v124H0z"/></clipPath></defs></svg>