<svg viewBox="0 0 135 124" version="1.1" xmlns="http://www.w3.org/2000/svg"><g stroke="none" stroke-width="1" fill="none" fill-rule="evenodd"><g transform="translate(11 11)"><rect fill="#9069CD" x="0" y="0" width="113" height="113" rx="17"/><path d="M63.998 75.575l38.088 2.77A20.902 20.902 0 0 1 113 82.364V96c0 9.389-7.611 17-17 17H35.657l6.692-22.473A21 21 0 0 1 64 75.575z" fill="#6F4EA1"/></g><path d="M94.387 72.5c7.66 1.598 12.573 9.104 10.974 16.763a14.168 14.168 0 0 1-.442 1.628l-4.935 14.651a13.18 13.18 0 0 1-14.045 8.881 11.138 11.138 0 0 1-9.791-11.932l1.36-17.337c.608-7.736 7.372-13.515 15.108-12.907a14.05 14.05 0 0 1 1.77.253z" stroke="#9069CD" stroke-width="3" stroke-linecap="round" stroke-linejoin="round" stroke-dasharray="1"/><g transform="rotate(9 35.234 398.42)" fill-rule="nonzero"><path d="M78.319 37.181v5.363a34.838 34.838 0 0 1-2.119 12 30.488 30.488 0 0 1-1.556 3.75 37.988 37.988 0 0 1-21.019 18.75L39.6 82.256l-14.419-5.381A37.05 37.05 0 0 1 .337 42.431v-5.25C.338 16.67 17.775 0 39.375 0A39.752 39.752 0 0 1 66.9 10.912a36.188 36.188 0 0 1 11.419 26.27z" fill="#7B482D"/><path d="M64.256 85.331a5.269 5.269 0 0 1-4.706-7.612l4.706-9.375 4.707 9.375a5.25 5.25 0 0 1-4.707 7.612zM13.125 83.362a5.25 5.25 0 0 1-4.762-7.612l4.706-9.375 4.706 9.375a5.269 5.269 0 0 1-4.65 7.612z" fill="#CD81FF"/><path d="M38.719 18.75a25.65 25.65 0 0 1 25.65 25.669v25.969a15.919 15.919 0 0 1-6.75 12.974l-9.638 6.75a15.825 15.825 0 0 1-18.037 0L19.95 83.25a15.844 15.844 0 0 1-6.881-13.125V44.419a25.632 25.632 0 0 1 25.65-25.669z" fill="#FFB49E"/><rect fill="#4B4B4B" x="18.9" y="38.212" width="15.713" height="21.75" rx="7.856"/><rect fill="#FFF" x="18.9" y="41.813" width="15.713" height="21.75" rx="7.856"/><rect fill="#62361B" x="21.437" y="48.382" width="6.319" height="10.313" rx="3.15"/><rect fill="#FFF" transform="rotate(-180 50.869 52.669)" x="43.013" y="41.794" width="15.713" height="21.75" rx="7.856"/><rect fill="#62361B" transform="rotate(180 48.228 54.075)" x="45.069" y="48.919" width="6.319" height="10.313" rx="3.15"/><path d="M48.975 74.081l-1.106.638c-.394.225-.806.431-1.219.637a18.039 18.039 0 0 1-7.669 1.688 18.245 18.245 0 0 1-7.987-1.875 16.5 16.5 0 0 1-2.288-1.331 4.125 4.125 0 0 1 2.288-7.5c.835.011 1.65.265 2.343.73a9.825 9.825 0 0 0 10.407.432l1.106-.619a3.994 3.994 0 0 1 1.744-.525h.281a4.125 4.125 0 0 1 2.044 7.707l.056.018z" fill="#FFF"/><rect fill="#FF9C86" transform="rotate(-180 38.681 49.575)" x="35.981" y="35.362" width="5.4" height="28.425" rx="2.7"/><path d="M69.581 66c0-.844-3.75-47.231-3.75-47.231L39.375 0H17.1a10.931 10.931 0 0 0-6.806 19.5C35.006 39.15 69.58 66.544 69.58 66z" fill="#7B482D"/><path d="M19.706 72.375a1.875 1.875 0 0 1-1.875-1.875v-3.244a1.875 1.875 0 0 1 3.75 0V70.5c0 1.036-.84 1.875-1.875 1.875zM58.294 72.375a1.875 1.875 0 0 1-1.875-1.875v-3.244a1.875 1.875 0 0 1 3.75 0V70.5a1.875 1.875 0 0 1-1.875 1.875z" fill="#FF9C86"/></g><path d="M10.86 20.171c2.247-1.246 5.03-.526 6.212 1.61.643 1.158.682 2.495.224 3.675l-.06.144-2.274 6.305a1.741 1.741 0 0 1-1.979 1.117L6.547 31.74c-1.429-.124-2.746-.9-3.469-2.203-1.183-2.135-.32-4.875 1.928-6.122a4.762 4.762 0 0 1 3.581-.443 4.757 4.757 0 0 1 2.272-2.8zM57.978 32.146c5.317 1.83 8.205 7.443 6.451 12.535-.994 2.887-3.266 4.988-6.016 5.932L44.863 56.2a3.83 3.83 0 0 1-4.761-1.598l-7.284-12.377c-1.891-2.519-2.554-5.826-1.482-8.939 1.754-5.092 7.485-7.737 12.801-5.906 2.717.935 4.8 2.859 5.953 5.195 2.346-1.132 5.172-1.365 7.888-.43zM46.053 9.155c3.12 1.66 4.405 5.346 2.869 8.234-.87 1.637-2.459 2.666-4.24 2.95l-8.954 1.974a2.35 2.35 0 0 1-2.679-1.398l-3.433-8.31c-.943-1.716-1.057-3.779-.119-5.544 1.536-2.889 5.31-3.885 8.431-2.226 1.595.848 2.71 2.226 3.215 3.756l.202-.055c1.5-.369 3.182-.192 4.708.619z" fill="#FF4B4B"/><g transform="rotate(-8 321.164 41.2)"><rect fill="#FFAADE" x="0" y="32" width="54" height="38" rx="2"/><path d="M1.143 32.153L27 13l25.857 19.153a1 1 0 0 1-.04 1.636L27 51 1.183 33.789a1 1 0 0 1-.04-1.636z" fill="#FE7BCB"/><path d="M27 13l21 15.555v8.444L27 51 5 36.332v-7.035L27 13z" fill="#FFE5F5"/><rect fill="#FFE5F5" x="5" y="0" width="43" height="35" rx="2"/><path d="M30.346 45C32.916 45 35 46.979 35 49.42c0 1.324-.614 2.513-1.587 3.323l-.121.097-5.047 4.412a1.741 1.741 0 0 1-2.271.018l-5.008-4.243C19.776 52.227 19 50.91 19 49.42 19 46.98 21.084 45 23.654 45c1.314 0 2.5.517 3.347 1.348A4.757 4.757 0 0 1 30.346 45z" fill="#FF4B4B"/><path stroke="#FFAADE" stroke-width="2" stroke-linecap="round" d="M11.441 7.01h9.304M16.441 17.01h25.304M11.441 22.01h30.304M11.441 27.01h20.304M11.441 37.01h9.304"/></g></g></svg>