<svg viewBox="0 0 135 124" version="1.1" xmlns="http://www.w3.org/2000/svg"><g stroke="none" stroke-width="1" fill="none" fill-rule="evenodd"><g fill-rule="nonzero"><g transform="translate(0 -1)"><path d="M125.09 29v79c0 9.389-7.611 17-17 17h-79c-9.389 0-17-7.611-17-17V29c0-9.389 7.611-17 17-17h79c9.389 0 17 7.611 17 17z" fill="#FFC800"/><path d="M115.55 13.74a17 17 0 0 0-7.46-1.74H90.46c-.562.443-1.1.917-1.61 1.42L12.09 90.19V108c0 9.389 7.611 17 17 17h1l85.18-85.18c7.157-7.176 7.28-18.752.28-26.08zM29.09 12c-9.389 0-17 7.611-17 17v39.67L68.75 12H29.09z" fill="#FFD900"/><path d="M124.06 113.6c-2.42 6.83-8.961 11.404-16.306 11.4H57.67l6.782-5.37a27.995 27.995 0 0 1 17.372-6l42.236-.03z" fill="#E27800"/><path d="M119.7 113.7l-13.47 6.41a11.47 11.47 0 0 1-14.36-3.84l-1.78-2.57v-15h29.61v15z" fill="#F89700"/><circle fill="#F89700" cx="96.68" cy="30.49" r="29.28"/><path d="M59.22 89.88a4.46 4.46 0 0 1-3.16-5.47L62.93 59l10.36 1.5-8.6 26.23a4.47 4.47 0 0 1-5.47 3.15z" fill="#E27800"/><path d="M67.17 102A4.46 4.46 0 0 1 63 97.2l1.78-26.27 10.45-.56-3.31 27.41a4.47 4.47 0 0 1-4.75 4.22z" fill="#E27800"/><circle fill="#F89700" cx="75.31" cy="70.82" r="13.02"/><circle fill="#FFB100" cx="121.89" cy="70.82" r="13.02"/><path d="M96.24 24.24V24c16.154 0 29.25 13.096 29.25 29.25v34.13a16 16 0 0 1-11.82 15.41l-20.36 5.45a11 11 0 0 1-7.13-.5l-9.46-4A16 16 0 0 1 67 89.05v-35.8a29 29 0 0 1 29.24-29.01z" fill="#FFB100"/><path d="M85.67 60.6v6.64a8.65 8.65 0 0 1-17.29 0V60.6a8.57 8.57 0 0 1 3.46-6.91l.1-.08A8.49 8.49 0 0 1 77 52a7.16 7.16 0 0 1 .8 0 6.44 6.44 0 0 1 1 .15 8.45 8.45 0 0 1 4.34 2.34 8.6 8.6 0 0 1 2.53 6.11z" fill="#FFE75E"/><path d="M78.8 52.15v2.66a3.5 3.5 0 0 1-7 0v-1.12l.1-.08A8.49 8.49 0 0 1 77 52a7.16 7.16 0 0 1 .8 0 6.44 6.44 0 0 1 1 .15z" fill="#E27800"/><path d="M111 60.6v6.64a8.65 8.65 0 0 1-17.29 0V60.6a8.54 8.54 0 0 1 1.83-5.32 9.45 9.45 0 0 1 .67-.75 8.59 8.59 0 0 1 5.33-2.53 7.92 7.92 0 0 1 .85 0h.14a8.66 8.66 0 0 1 8.47 8.6z" fill="#FFE75E"/><path d="M102.53 52v2.86a3.47 3.47 0 0 1-6.92.43 9.45 9.45 0 0 1 .67-.75 8.59 8.59 0 0 1 5.26-2.54 7.92 7.92 0 0 1 .85 0h.14z" fill="#E27800"/><path d="M67 76.82h46.12V65l-5.65-.57A22.4 22.4 0 0 0 97 65.9l-8.06 3.21L81.25 66A22.25 22.25 0 0 0 69 64.66L67 65v11.82z" fill="#FFB100"/><path d="M64.8 7.27A4.47 4.47 0 0 1 69 2.56l26.3-1.42.5 8.93-26.29 1.41a4.47 4.47 0 0 1-4.71-4.21z" fill="#F89700"/><path d="M49.94 29.88a4.48 4.48 0 0 1 1.28-6.19l22-14.44 6.75 8-23.84 13.9a4.47 4.47 0 0 1-6.19-1.27z" fill="#F89700"/><path d="M48.85 46.08a4.46 4.46 0 0 1-.41-6.3l22.41-24.43L74.48 26 55.16 45.67a4.47 4.47 0 0 1-6.31.41z" fill="#F89700"/><path d="M47.09 61.15A4.48 4.48 0 0 1 46 54.93l15-21.65 9.26 4.88L53.3 60a4.47 4.47 0 0 1-6.21 1.15zm38.42-17.74a4.48 4.48 0 0 1-1.19-6.21l14.84-21.75 9.29 4.81-16.73 22a4.47 4.47 0 0 1-6.21 1.15z" fill="#F89700"/><path d="M56.07 74.32c-3.18-.74-5-3.38-4.06-5.88l14.76-42.6 14.61 5.56-17.84 39.72c-.94 2.51-4.28 3.94-7.47 3.2z" fill="#F89700"/><path d="M73.67 48.58c4.68-10.42 14.44-18.95 27.11-23.7l1.29-.49-19.27-8.56L70.9 34.6l2.77 13.98z" fill="#F89700"/><path d="M105.32 76.36l.12 1.24a13 13 0 0 1 0 2.25A11.36 11.36 0 0 1 95.28 90l-5.5.54a11.32 11.32 0 0 1-12.37-10.2l-.12-1.24a2.14 2.14 0 0 1 1.92-2.34L103 74.44a2.16 2.16 0 0 1 2.32 1.92z" fill="#E27800"/><path d="M105.32 76.36l.12 1.24a13 13 0 0 1 0 2.25 2.67 2.67 0 0 1-.93.25l-20.25 2A2.94 2.94 0 0 1 81 79.43l-.27-2.82L103 74.44a2.16 2.16 0 0 1 2.32 1.92z" fill="#FFE75E"/><path d="M103.18 85.55a11.25 11.25 0 0 1-7.9 4.45l-1.4.14a11 11 0 0 1-2.63-.06 8 8 0 0 1 6.9-5.7 7.9 7.9 0 0 1 5.03 1.17z" fill="#F89700"/><rect fill="#E27800" x="125.54" y="75.31" width="4.61" height="15.85" rx="2.3"/><rect fill="#F89700" x="84.62" y="49.62" width="6.75" height="24.19" rx="3.375"/><path d="M41.7 46.33a9 9 0 0 0-17.08-3.95 9 9 0 0 0-17.07 3.95v.46c0 8.64 9.87 16.81 14.6 20.23a4.16 4.16 0 0 0 4.92 0c4.72-3.5 14.63-11.85 14.63-20.2-.02-.19 0-.34 0-.49z" fill="#F89700"/><circle fill="#F89700" cx="42.31" cy="7.41" r="6.52"/><circle fill="#F89700" cx="30.6" cy="7.41" r="6.52"/><path d="M48.83 7.75c0 6.05-7.18 12.1-10.6 14.64a3 3 0 0 1-3.57 0C31.23 19.93 24.08 14 24.08 7.75m23.31 83.79v.71a4.14 4.14 0 0 1-.88 2.44 4.4 4.4 0 0 1-6.18.84l-9.53-7.28-4.35-3.32a4.41 4.41 0 0 1-.82-6.17A4.36 4.36 0 0 1 29.14 77a4.28 4.28 0 0 1 2.66.9l13.54 10.35.35.27a4.5 4.5 0 0 1 1.7 3.02z" fill="#F89700"/><path d="M36.22 94.37a4.4 4.4 0 0 1-5.44 3L6.85 90.86a4.4 4.4 0 0 1 2.45-8.45l23.9 6.51a4.4 4.4 0 0 1 3.02 5.45z" fill="#FFB100"/><path d="M33.72 93a4.42 4.42 0 0 1-4.58 4.23l-24.79-.69A4.41 4.41 0 0 1 .12 92a4.4 4.4 0 0 1 4.58-4.26l24.79.68A4.41 4.41 0 0 1 33.72 93z" fill="#FFB100"/><path d="M36.65 106.45h-4.33l-3.53-2.81L20.44 97l-.21-.16L22 95.12l7.15-6.71.1-.1.07-.06h12.7a7.66 7.66 0 0 1 7.28 5.29l3.26 10 .74 2.3-16.65.61z" fill="#FFB100"/><path d="M62.37 125H32.6L27 107.85a2.86 2.86 0 0 1 1.09-3.24 2.79 2.79 0 0 1 1.64-.52h22.14a5 5 0 0 1 2 .41 5.09 5.09 0 0 1 2.86 3.12L62.37 125z" fill="#E27800"/><path d="M119.87 29.89l-14.23-7.31-10.31 6.53A52.2 52.2 0 0 1 113.43 43a21.27 21.27 0 0 1 5 13.69v17.69a7.08 7.08 0 0 0 7.08 7.08v-4.25c.33-1.07 13.87-42.35-5.64-47.32z" fill="#F89700"/></g></g></g></svg>