<svg id="Layer_3" data-name="Layer 3" xmlns="http://www.w3.org/2000/svg" viewBox="0 0 135 124"><defs><style>.cls-2{fill:#cebaba}.cls-3{fill:#ebe3e3}.cls-5{fill:#fff}.cls-6{fill:#fdb02a}</style></defs><path d="M124 28v79a15.32 15.32 0 0 1-.16 2.26c0 .33-.09.66-.15 1a17.35 17.35 0 0 1-1 3.29c-.11.27-.23.53-.35.79A17.08 17.08 0 0 1 107 124H27.53a17.15 17.15 0 0 1-5.42-1c-.29-.11-.58-.22-.86-.35a16.41 16.41 0 0 1-2-1 15.91 15.91 0 0 1-2.72-2 16.28 16.28 0 0 1-2.42-2.75A16.93 16.93 0 0 1 11 107V28a17 17 0 0 1 17-17h79a17 17 0 0 1 17 17z" fill="#a46647"/><path class="cls-2" d="M43.11 92.62a1 1 0 0 1-1-.75C35.93 68 21.34 66.53 21.2 66.52a1 1 0 0 1 .15-2c.66 0 16.16 1.55 22.73 26.83a1 1 0 0 1-.72 1.22.73.73 0 0 1-.25.05zM49.4 86.94a1 1 0 0 1-1-.69c-4.75-15.14-11.71-19.84-11.78-19.89a1 1 0 0 1 1.09-1.68c.31.2 7.6 5.06 12.64 21a1 1 0 0 1-.65 1.26 1 1 0 0 1-.3 0zM56.73 86.94a1 1 0 0 1-1-.88c-1.66-14.47-7.63-19.72-7.69-19.77a1 1 0 0 1-.11-1.41 1 1 0 0 1 1.4-.12c.27.23 6.62 5.73 8.39 21.07a1 1 0 0 1-.88 1.11z"/><path class="cls-2" d="M38.17 80a1 1 0 0 1-.56-1.83l22.46-15L33.56 73.2a1 1 0 0 1-1.29-.58 1 1 0 0 1 .58-1.29l34.7-13.15a1 1 0 0 1 .91 1.82L38.72 79.84a.94.94 0 0 1-.55.16z"/><path class="cls-3" d="M54.89 113.72h25.22v3.61a3.08 3.08 0 0 1-3.11 3.08H58a3.08 3.08 0 0 1-3.08-3.08v-3.61h-.03z"/><path d="M62 63.47h11a3.61 3.61 0 0 1 3.61 3.61v6.59H58.37v-6.6a3.61 3.61 0 0 1 3.63-3.6z" fill="#734f37"/><path class="cls-5" d="M95.16 91.26v6.11A17.59 17.59 0 0 1 77.57 115H57.43a17.58 17.58 0 0 1-16.33-11 17.37 17.37 0 0 1-1.27-6.55v-6.19a17.6 17.6 0 0 1 17.6-17.6h20.14a17.61 17.61 0 0 1 17.59 17.6z"/><circle class="cls-3" cx="67.5" cy="94.32" r="9.7"/><path class="cls-3" d="M49.42 94.31a9.71 9.71 0 0 1-8.32 9.61 17.37 17.37 0 0 1-1.27-6.55v-6.11a17.51 17.51 0 0 1 1.26-6.54 9.69 9.69 0 0 1 8.33 9.59zM95.16 91.26v6.11a17.47 17.47 0 0 1-1.27 6.57 9.7 9.7 0 0 1 0-19.24 17.46 17.46 0 0 1 1.27 6.56z"/><rect class="cls-6" x="36.88" y="91.77" width="61.24" height="5.1" rx="2.55" ry="2.55"/><path d="M103.37 48.49A128.4 128.4 0 0 1 86.67 8l-1.51-6.6H49.85l-1.46 6.4A128.53 128.53 0 0 1 31.7 48.38L21.39 64.52h92.22z" fill="#fee990"/><rect class="cls-6" x="46.38" width="42.24" height="4.14" rx="2.07" ry="2.07"/><rect class="cls-6" x="18" y="62.35" width="99.01" height="4.14" rx="2.07" ry="2.07"/><rect class="cls-5" x="73.32" y="40.42" width="22.61" height="10.92" rx="2.89" ry="2.89" transform="rotate(-22.42 84.643 45.879)"/><rect class="cls-3" x="76.84" y="44.28" width="15.56" height="3.2" rx="1.6" ry="1.6" transform="rotate(-22.42 84.643 45.879)"/></svg>