<svg viewBox="0 0 135 124" version="1.1" xmlns="http://www.w3.org/2000/svg" xmlns:xlink="http://www.w3.org/1999/xlink"><defs><ellipse id="a" cx="8.965" cy="9.16" rx="7.111" ry="7.34"/></defs><g stroke="none" stroke-width="1" fill="none" fill-rule="evenodd"><path d="M28 11h79c9.389 0 17 7.611 17 17v79c0 9.389-7.611 17-17 17H28c-9.389 0-17-7.611-17-17V28c0-9.389 7.611-17 17-17z" fill="#FF5656"/><g transform="translate(-5 -5)"><g transform="translate(60 25)"><g><circle fill="#FFB49E" fill-rule="nonzero" cx="13.522" cy="69.854" r="9.223"/><circle fill="#FFB49E" fill-rule="nonzero" cx="64.487" cy="69.854" r="9.223"/><circle fill="#4B4B4B" fill-rule="nonzero" cx="39.69" cy="39.69" r="39.69"/><path d="M8.656 40.635h10.47v41.94H15.12a6.502 6.502 0 0 1-6.502-6.503V40.635h.038zM59.251 40.635h10.471v35.437c0 3.591-2.91 6.502-6.502 6.502h-3.969V40.635z" fill="#4B4B4B" fill-rule="nonzero"/><path d="M64.147 53.638v17.01a27.424 27.424 0 0 1-9.81 21.017l-8.845 7.409a9.582 9.582 0 0 1-12.38 0l-8.542-7.409a27.48 27.48 0 0 1-9.45-20.79V53.638c0-4.236 1.121-8.396 3.25-12.058a24.57 24.57 0 0 1 36.648-6.993l.85.718.322.284c.245.245.51.472.756.737a18.787 18.787 0 0 1 2.211 2.532 24.343 24.343 0 0 1 4.99 14.78z" fill="#FFB49E" fill-rule="nonzero"/><rect fill="#FFF" fill-rule="nonzero" x="21.017" y="50.973" width="15.214" height="21.055" rx="7.607"/><rect fill="#4B4B4B" fill-rule="nonzero" x="27.31" y="57.807" width="6.124" height="9.998" rx="3.062"/><rect fill="#FFF" fill-rule="nonzero" transform="rotate(-180 50.34 61.52)" x="42.733" y="50.992" width="15.214" height="21.055" rx="7.607"/><path d="M38.59 47.325L54.05 38.4l8.887 15.395c-8.43 4.915-19.247 2.113-24.232-6.276l-.114-.194z" fill="#FFB49E"/><path d="M39.874 47.325L24.416 38.4l-8.888 15.395c8.43 4.915 19.247 2.113 24.231-6.276l.115-.194z" fill="#FFB49E"/><rect fill="#4B4B4B" fill-rule="nonzero" transform="rotate(-180 48.516 62.787)" x="45.454" y="57.788" width="6.124" height="9.998" rx="3.062"/><path d="M61.35 25.893l-11.208 11.34A32.867 32.867 0 0 1 26.668 47.25H6.86l9.034-33.075 45.454 11.718z" fill="#4B4B4B" fill-rule="nonzero"/><path d="M64.26 53.033c-11.34-6.955-13.23-24.815-13.23-24.815l16.556.945-3.326 23.87z" fill="#4B4B4B" fill-rule="nonzero"/></g><path fill="#FFB49E" d="M18.9 64.2l20.365 5.654L59.25 64.2v9.3H18.9z"/><rect fill="#F18870" fill-rule="nonzero" x="36.004" y="53.676" width="6.52" height="26.025" rx="3.251"/><path d="M46.734 83.061a4.725 4.725 0 0 1-5.028 7.999l-.194-.122a4.202 4.202 0 0 0-4.426-.137l-.187.115a4.725 4.725 0 1 1-5.147-7.926 13.65 13.65 0 0 1 14.982.071z" fill="#A95137" fill-rule="nonzero"/><path d="M46.734 83.061c.625.415 1.12.952 1.473 1.56A2.102 2.102 0 0 1 46.2 86.1H32.55a2.1 2.1 0 0 1-2.088-1.87c.338-.479.77-.902 1.29-1.24a13.65 13.65 0 0 1 14.982.071z" fill="#FFF" fill-rule="nonzero"/><path d="M39.375 88.2a4.727 4.727 0 0 1 4.57 3.52 4.68 4.68 0 0 1-2.239-.66l-.194-.122a4.202 4.202 0 0 0-4.426-.137l-.187.115a4.705 4.705 0 0 1-2.074.736 4.724 4.724 0 0 1 4.55-3.452z" fill="#FF4B4B" fill-rule="nonzero"/></g><g transform="rotate(15 11.82 90.777)"><rect fill="#2B70C9" transform="rotate(13 43.635 45.29)" x="14.155" y="7.451" width="58.96" height="75.68" rx="6.16"/><rect fill="#FFF" transform="rotate(13 57.488 48.402)" x="47.808" y="16.722" width="19.36" height="63.36" rx="1.76"/><path d="M21.407 1.202l42.015 9.7a6.16 6.16 0 0 1 4.617 7.388L53.786 80.026a6.16 6.16 0 0 1-7.388 4.616l-42.015-9.7a4.4 4.4 0 0 1-3.297-5.277L16.13 4.5a4.4 4.4 0 0 1 5.277-3.297z" fill="#2B70C9"/><rect fill="#FFD900" transform="rotate(13 41.293 14.824)" x="20.613" y="12.184" width="41.36" height="5.28" rx="2.64"/><rect fill="#FFD900" transform="rotate(13 29.547 67.656)" x="14.587" y="61.056" width="29.92" height="13.2" rx="1.76"/><g transform="rotate(-4 456.538 -185.036)"><path d="M3.464 4.764l16.92 7.21 18.4 3.587a.706.706 0 0 1 .54.899 1.1 1.1 0 0 1-1.013.777l-19.753.708L2.916 6.42a1.106 1.106 0 0 1-.402-1.214.704.704 0 0 1 .95-.442z" fill="#FFD900"/><g transform="translate(10.881 4.655)"><mask fill="#fff"><use xlink:href="#a"/></mask><use fill="#FFD900" transform="rotate(17 8.965 9.16)" xlink:href="#a"/></g><path d="M24.043.614a.647.647 0 0 1 .443.755l-2.429 11.316a1.636 1.636 0 1 1-3.118-.953L23.253.992a.647.647 0 0 1 .79-.378z" fill="#FFD900"/><circle stroke="#FFD900" stroke-width="2.772" fill="#2B70C9" transform="rotate(17 32.042 20.162)" cx="32.042" cy="20.162" r="3.168"/><circle stroke="#FFD900" stroke-width="2.772" fill="#2B70C9" transform="rotate(17 6.158 12.249)" cx="6.158" cy="12.249" r="3.168"/><path d="M20.203 8.675l2.06.63a2.934 2.934 0 0 1 2.075 2.705l.027.768a.946.946 0 0 1-1.222.937l-6.135-1.876a.946.946 0 0 1-.489-1.46l.452-.622a2.934 2.934 0 0 1 3.232-1.082z" fill="#2B70C9"/></g><path stroke="#2B70C9" stroke-width="2.64" stroke-linecap="square" d="M12.827 63.796l32.583 7.522"/></g><g transform="rotate(-13 391.778 -30.935)" fill="#FFF"><circle transform="rotate(-13 32.294 40.627)" cx="32.294" cy="40.627" r="6"/><path d="M16.633 5.952l14.479-3.31a1.6 1.6 0 0 1 1.947 1.388l2.775 25.67a1.6 1.6 0 0 1-1.235 1.732l-8.381 1.916a1.6 1.6 0 0 1-1.86-1.01L15.488 8.06a1.6 1.6 0 0 1 1.146-2.11zM20.178 42.484a4.8 4.8 0 1 0-5.088-8.141 4.8 4.8 0 0 0 5.088 8.14zM1.729 20.861l7.6-4.82a1.6 1.6 0 0 1 2.324.711l5.592 12.825a1.6 1.6 0 0 1-.61 1.991l-4.287 2.719a1.6 1.6 0 0 1-2.087-.33L1.355 23.236a1.6 1.6 0 0 1 .374-2.374z"/></g><path d="M124.318 51.336l-7.673 17.125a9.694 9.694 0 0 0-.645 3.474C116 77.494 120.7 82 126.499 82c1.236 0 2.463-.21 3.623-.619 5.442-1.918 8.231-7.703 6.23-12.92l-7.673-17.125a2.277 2.277 0 0 0-1.379-1.321c-1.204-.425-2.539.167-2.982 1.321z" fill="#3AC0FF" fill-rule="nonzero"/><circle fill="#FFF" cx="122" cy="71.5" r="3.5"/></g></g></svg>