<svg xmlns="http://www.w3.org/2000/svg" viewBox="0 0 135 124"><defs><style>.cls-1{fill:#ffc800}.cls-2{fill:#ffd900}.cls-3{fill:#ffe865}.cls-4{fill:#ffb100}.cls-5{fill:#e27800}.cls-6{fill:#f89700}</style></defs><g id="Layer_3" data-name="Layer 3"><rect id="bg" class="cls-1" x="11" y="11" width="113" height="113" rx="17"/><path class="cls-2" d="M124 107V57.26a78.39 78.39 0 0 0-113 0V107a17 17 0 0 0 17 17h79a17 17 0 0 0 17-17z"/><path class="cls-3" d="M57.56 100.17l-42 17.45-1.43-.77a15.46 15.46 0 0 1-1.06-1.69 16.76 16.76 0 0 1-1.27-2.91l29.07-12.08z"/><path class="cls-4" d="M121.94 115.12A17 17 0 0 1 107 124H28a16.67 16.67 0 0 1-3.76-.42 17 17 0 0 1-11.15-8.42L41.39 105l28.16-10.1 15.78 6.1z"/><path class="cls-1" d="M113.66 122.65A17 17 0 0 1 107 124H28a16.67 16.67 0 0 1-3.76-.42l19.61-9.72-2.46-8.86-7.2-26a3.51 3.51 0 0 1 3.39-4.46h29l5.9 7.14L85.33 101l8.82 13.23z"/><path class="cls-5" d="M76.51 74.58l-4 7.14-3.1 5.52-15.68 27.83L34.22 77a3.54 3.54 0 0 1 3.36-2.46z"/><path class="cls-6" d="M69.39 87.24l-15.66 27.83V87.24h15.66z"/><rect class="cls-6" x="44.61" y=".37" width="37.27" height="16.67" rx="8.08"/><rect class="cls-6" x="27.55" y="6.14" width="54.9" height="23.21" rx="11.61"/><path class="cls-6" d="M40.14 51.45l13.59 10.37 25.61-16.46V5.78H51.73a19.58 19.58 0 0 0-19.58 19.57v10a20.3 20.3 0 0 0 7.99 16.1z"/><path class="cls-4" d="M44 48.92a11.36 11.36 0 0 0 0 22.72z"/><path class="cls-4" d="M89.15 11.09h-31.7a22.34 22.34 0 0 0-22.34 22.34v23.28a14.06 14.06 0 0 0 3.77 9.58 14.11 14.11 0 0 1 3.76 9.58v2.21a20.59 20.59 0 0 0 3.45 11.41l2.43 3.65a8 8 0 0 0 6.69 3.58h33.94V64.86h-.52l.52-.2z"/><path class="cls-1" d="M90.28 74.58h-8.86a14 14 0 0 0-12.7 8.12l-15 32.37 40.42-.84-.24-36.08a3.63 3.63 0 0 0-3.62-3.57z"/><path class="cls-6" d="M80.25 71.77h8.9V44.62h-3.92l.11 10.17a12.91 12.91 0 0 1-2.7 8l-4.15 5.35a2.23 2.23 0 0 0 1.76 3.63z"/><path class="cls-6" d="M87 52l-6.51-12a23 23 0 0 1-2.77-10.91V5.78h2.57A20.22 20.22 0 0 1 100.51 26v10a28.35 28.35 0 0 1-7.13 18.81l-4.23 4.78z"/><path class="cls-1" d="M89.15 48.92a11.36 11.36 0 0 1 0 22.72z"/><rect class="cls-3" x="38.54" y="41.8" width="14.72" height="20.37" rx="7.36"/><rect class="cls-5" x="42.61" y="47.38" width="5.92" height="9.66" rx="2.96"/><rect class="cls-3" x="59.38" y="41.8" width="14.72" height="20.37" rx="7.36" transform="rotate(-180 66.735 51.985)"/><rect class="cls-5" x="63.63" y="47.38" width="5.92" height="9.66" rx="2.96" transform="rotate(-180 66.59 52.21)"/><rect class="cls-6" x="50.2" y="43.75" width="7.37" height="31.37" rx="3.68"/><path class="cls-4" d="M36.54 41.8h41.18v7.49H36.54z"/><path class="cls-6" d="M76.51 46.64a2 2 0 0 1-1.25-.45L71.21 43l-12.37 2.52a2 2 0 1 1-.81-4l13.29-2.75a2 2 0 0 1 1.66.4L77.77 43a2 2 0 0 1-1.26 3.6zM37.33 45.77A2 2 0 0 1 35.47 43l1-2.39a2 2 0 0 1 2.3-1.17l10.53 2.38a2 2 0 1 1-.89 3.94l-8.89-2-.36.84a2 2 0 0 1-1.83 1.17zM54.64 82.68a8.16 8.16 0 0 1-2.5-.39l-3.32-1.06a1.42 1.42 0 0 1 .87-2.71L53 79.58a5.37 5.37 0 0 0 2.81.13l5.44-1.22a1.42 1.42 0 1 1 .62 2.77l-5.44 1.22a8.32 8.32 0 0 1-1.79.2z"/><path class="cls-3" d="M99.51 105.46v-7.4A7.94 7.94 0 0 0 92 90a7.73 7.73 0 0 0-8 7.72v2.74a7.5 7.5 0 0 0 4.62 6.9l29.59 12.32a17.05 17.05 0 0 0 3.79-4.84z"/><path class="cls-2" d="M63.85 115.88a8.22 8.22 0 0 1-5.71-.57 1.38 1.38 0 0 1-.67-1.9 8.16 8.16 0 0 1 4.1-4 8.16 8.16 0 0 1 5.71.57 1.37 1.37 0 0 1 .66 1.89 8.12 8.12 0 0 1-4.09 4.01zM79.82 111.45a8.16 8.16 0 0 1-5.71-.58 1.36 1.36 0 0 1-.66-1.89 8.16 8.16 0 0 1 4.09-4 8.16 8.16 0 0 1 5.71.58 1.36 1.36 0 0 1 .66 1.89 8.16 8.16 0 0 1-4.09 4z"/><path class="cls-1" d="M43.68 115.74a8.12 8.12 0 0 0 5.73 0 1.37 1.37 0 0 0 .87-1.81 8.18 8.18 0 0 0-3.64-4.43 8.21 8.21 0 0 0-5.74-.05 1.36 1.36 0 0 0-.9 1.85 8.16 8.16 0 0 0 3.68 4.44z"/><path class="cls-2" d="M77.3 90.92a8.15 8.15 0 0 1-4.74 3.24 1.36 1.36 0 0 1-1.72-1 8.15 8.15 0 0 1 .54-5.71 8.18 8.18 0 0 1 4.73-3.24 1.37 1.37 0 0 1 1.73 1 8.14 8.14 0 0 1-.54 5.71zM74 104.24a8.12 8.12 0 0 1-4.26 3.84 1.36 1.36 0 0 1-1.84-.78 8.09 8.09 0 0 1-.23-5.73 8.16 8.16 0 0 1 4.26-3.84 1.37 1.37 0 0 1 1.85.78 8.15 8.15 0 0 1 .22 5.73zM88.22 85a8.14 8.14 0 0 1-5.58 1.35 1.36 1.36 0 0 1-1.25-1.57 8.16 8.16 0 0 1 2.54-5.15 8.16 8.16 0 0 1 5.57-1.34 1.38 1.38 0 0 1 1.26 1.57A8.16 8.16 0 0 1 88.22 85zM115 122c-.44.24-.89.45-1.35.65a16.31 16.31 0 0 1-2.2.76l-16-6.22a9.11 9.11 0 0 0-3.3-.62H77.56a9.12 9.12 0 0 0-5.71 2L65.11 124h-3.9a1.5 1.5 0 0 1 .56-1.17l8.23-6.59a12.14 12.14 0 0 1 7.58-2.67h14.6a12.16 12.16 0 0 1 4.38.82l17.66 6.86a1.46 1.46 0 0 1 .78.75z"/><circle class="cls-1" cx="91.75" cy="98.29" r="5.07"/><circle class="cls-3" cx="53.38" cy="116.68" r="7.23"/><circle class="cls-1" cx="53.38" cy="116.68" r="3.94"/><circle class="cls-3" cx="91.07" cy="96.18" r="2.96"/><circle class="cls-3" cx="53.38" cy="114.11" r="2.96"/><rect class="cls-6" x="69.52" y="5.91" width="20.17" height="23.16" rx="10.09"/></g></svg>