<svg viewBox="0 0 135 124" fill="none" xmlns="http://www.w3.org/2000/svg"><g clip-path="url(#clip0)"><path d="M107 11H28c-9.389 0-17 7.611-17 17v79c0 9.389 7.611 17 17 17h79c9.389 0 17-7.611 17-17V28c0-9.389-7.611-17-17-17z" fill="#4B4B4B"/><path d="M27.27 6.42c4.63 4.66 5.14 12.25 5 16.88a4.55 4.55 0 0 1-4.4 4.37c-4.64.16-12.22-.4-16.85-5.06C6.39 17.95 5.83 10.37 6 5.73a4.56 4.56 0 0 1 4.39-4.37c4.66-.16 12.25.4 16.88 5.06z" fill="#99292E"/><path d="M84.73 50.631l-61.914-.854-.344 24.948 61.914.854.344-24.948z" fill="#A44242"/><path d="M36.72 42.97c10.886 0 19.71-8.824 19.71-19.71 0-10.886-8.825-19.71-19.71-19.71-10.886 0-19.71 8.825-19.71 19.71 0 10.886 8.824 19.71 19.71 19.71z" fill="#C0292E"/><path d="M19.69 67.72c10.886 0 19.71-8.824 19.71-19.71 0-10.886-8.824-19.71-19.71-19.71C8.804 28.3-.02 37.124-.02 48.01c0 10.886 8.824 19.71 19.71 19.71zM102.09 36.72c-6.09 2.34-13.28-.27-17.44-2.32a4.56 4.56 0 0 1-2.21-5.79c1.74-4.3 5.33-11 11.47-13.35 6.14-2.35 13.28.27 17.44 2.32a4.562 4.562 0 0 1 2.21 5.79c-1.74 4.3-5.33 11.01-11.47 13.35z" fill="#C0292E"/><path d="M98.52 23.74c-3.43 5.59-10.69 7.88-15.24 8.78A4.55 4.55 0 0 1 78 29.28c-1.25-4.47-2.48-12 1-17.57s10.65-7.88 15.2-8.79a4.55 4.55 0 0 1 5.28 3.25c1.24 4.47 2.52 11.97-.96 17.57z" fill="#C0292E"/><path d="M81.23 54.96c10.886 0 19.71-8.824 19.71-19.71 0-10.886-8.824-19.71-19.71-19.71-10.886 0-19.71 8.825-19.71 19.71 0 10.886 8.824 19.71 19.71 19.71z" fill="#C0292E"/><path d="M88.86 71.75c10.886 0 19.71-8.825 19.71-19.71 0-10.886-8.824-19.71-19.71-19.71-10.885 0-19.71 8.824-19.71 19.71 0 10.886 8.825 19.71 19.71 19.71z" fill="#C0292E"/><path d="M64.99 72.07c10.886 0 19.71-8.824 19.71-19.71 0-10.886-8.824-19.71-19.71-19.71-10.885 0-19.71 8.825-19.71 19.71 0 10.886 8.825 19.71 19.71 19.71z" fill="#99292E"/><path d="M47.34 57.14c10.885 0 19.71-8.825 19.71-19.71 0-10.886-8.825-19.71-19.71-19.71-10.886 0-19.71 8.824-19.71 19.71 0 10.886 8.825 19.71 19.71 19.71z" fill="#99292E"/><path d="M101.8 67.5S76.49 115.07 74.28 124H37.89c-2.21-10-26.44-58.36-26.44-58.36l90.35 1.86z" fill="#FFE155"/><path d="M105.56 75.81L93 75.66a4.53 4.53 0 0 0-4.59 4.48L88 114.06a4.553 4.553 0 0 0 4.49 4.6l12.59.14a4.524 4.524 0 0 0 3.224-1.288 4.511 4.511 0 0 0 1.001-1.46 4.507 4.507 0 0 0 .365-1.732l.4-33.92a4.539 4.539 0 0 0-4.51-4.59zm-6.41 9.94a3 3 0 1 1 0-6.001 3 3 0 0 1 0 6z" fill="#fff"/><path d="M99.26 84.23a1.51 1.51 0 0 1-1.41-1c-1.85-5.11-6.72-14.1-18.29-16.88a1.5 1.5 0 1 1 .7-2.92c12.93 3.11 18.34 13.1 20.41 18.78a1.495 1.495 0 0 1-.39 1.617 1.49 1.49 0 0 1-.5.303c-.165.067-.342.1-.52.1z" fill="#2D2D2D"/><path d="M99.12 108.63a2.056 2.056 0 0 1-1.909-1.286 2.055 2.055 0 0 1-.151-.794v-1.14a7.74 7.74 0 0 1 3.88-6.69 3.575 3.575 0 0 0 1.81-3.088 3.586 3.586 0 0 0-1.768-3.111 3.58 3.58 0 0 0-5.392 3.059 2.071 2.071 0 0 1-3.579 1.556 2.07 2.07 0 0 1-.551-1.556 7.72 7.72 0 1 1 11.54 6.74 3.599 3.599 0 0 0-1.78 3.11v1.14a2.071 2.071 0 0 1-2.1 2.06zM99.1 115.33a2.46 2.46 0 1 0 .001-4.919 2.46 2.46 0 0 0-.001 4.919z" fill="#E72E33"/><path d="M81.56 64.68c1.8 6.31-1.41 13.21-3.81 17.18a4.55 4.55 0 0 1-6 1.7c-4.1-2.1-10.47-6.25-12.28-12.56-1.81-6.31 1.41-13.21 3.81-17.18a4.57 4.57 0 0 1 6-1.71c4.1 2.1 10.47 6.26 12.28 12.57zM30.08 74.5c-5 4.28-12.58 4.25-17.19 3.73a4.54 4.54 0 0 1-4.05-4.69C9 68.9 10.12 61.37 15.1 57.09c4.98-4.28 12.58-4.25 17.19-3.73a4.55 4.55 0 0 1 4.05 4.7c-.18 4.63-1.28 12.16-6.26 16.44z" fill="#C0292E"/><path d="M22.97 57.68c10.886 0 19.71-8.825 19.71-19.71 0-10.886-8.825-19.71-19.71-19.71-10.885 0-19.71 8.824-19.71 19.71 0 10.886 8.825 19.71 19.71 19.71z" fill="#E72E33"/><path d="M20.82 49.94c7.798 0 14.12-6.322 14.12-14.12 0-7.798-6.322-14.12-14.12-14.12-7.798 0-14.12 6.322-14.12 14.12 0 7.798 6.322 14.12 14.12 14.12z" fill="#C0292E"/><path d="M20.82 45.95c5.595 0 10.13-4.535 10.13-10.13 0-5.595-4.535-10.13-10.13-10.13-5.595 0-10.13 4.535-10.13 10.13 0 5.595 4.535 10.13 10.13 10.13zM94.52 66.57c10.886 0 19.71-8.824 19.71-19.71 0-10.886-8.824-19.71-19.71-19.71-10.885 0-19.71 8.825-19.71 19.71 0 10.886 8.825 19.71 19.71 19.71z" fill="#E72E33"/><path d="M96.75 57.8c7.798 0 14.12-6.322 14.12-14.12 0-7.798-6.322-14.12-14.12-14.12-7.798 0-14.12 6.322-14.12 14.12 0 7.798 6.322 14.12 14.12 14.12z" fill="#C0292E"/><path d="M96.75 53.81c5.595 0 10.13-4.535 10.13-10.13 0-5.595-4.535-10.13-10.13-10.13-5.595 0-10.13 4.535-10.13 10.13 0 5.595 4.535 10.13 10.13 10.13zM62.64 39.62c10.886 0 19.71-8.824 19.71-19.71C82.35 9.024 73.526.2 62.64.2 51.754.2 42.93 9.024 42.93 19.91c0 10.886 8.825 19.71 19.71 19.71z" fill="#E72E33"/><path d="M62.69 30.81c7.798 0 14.12-6.322 14.12-14.12 0-7.798-6.322-14.12-14.12-14.12-7.798 0-14.12 6.322-14.12 14.12 0 7.798 6.322 14.12 14.12 14.12z" fill="#C0292E"/><path d="M62.69 26.82c5.595 0 10.13-4.535 10.13-10.13 0-5.595-4.535-10.13-10.13-10.13-5.595 0-10.13 4.535-10.13 10.13 0 5.595 4.535 10.13 10.13 10.13zM50.81 76.9c10.886 0 19.71-8.825 19.71-19.71 0-10.886-8.824-19.71-19.71-19.71-10.886 0-19.71 8.824-19.71 19.71 0 10.886 8.824 19.71 19.71 19.71z" fill="#E72E33"/><path d="M50.84 69c7.798 0 14.12-6.322 14.12-14.12 0-7.798-6.322-14.12-14.12-14.12-7.798 0-14.12 6.322-14.12 14.12 0 7.798 6.322 14.12 14.12 14.12z" fill="#C0292E"/><path d="M50.83 65.39c5.595 0 10.13-4.535 10.13-10.13 0-5.595-4.535-10.13-10.13-10.13-5.595 0-10.13 4.535-10.13 10.13 0 5.595 4.535 10.13 10.13 10.13z" fill="#E72E33"/></g><defs><clipPath id="clip0"><path fill="#fff" d="M0 0h135v124H0z"/></clipPath></defs></svg>