<svg viewBox="0 0 136 124" fill="none" xmlns="http://www.w3.org/2000/svg"><rect x="12.219" y="11" width="113" height="113" rx="17" fill="#FEC701"/><path fill-rule="evenodd" clip-rule="evenodd" d="M65.974 27.337c8.201 8.201 8.201 21.497 0 29.698l-53.406 53.407A17.071 17.071 0 0 1 12.22 107l-.001-55.607 24.057-24.056c8.201-8.201 21.497-8.201 29.698 0zm59.245 1.056v35.355l-8.995 8.996c-4.882 4.882-12.796 4.882-17.678 0-4.881-4.881-4.881-12.796 0-17.677l26.673-26.674z" fill="#FFD900"/><path d="M8.67 47.147c0-12.183 9.876-22.059 22.058-22.059h25.453c12.182 0 22.058 9.876 22.058 22.059 0 12.183-9.876 22.059-22.058 22.059H30.729c-12.183 0-22.06-9.876-22.06-22.059z" fill="#E27800"/><path d="M78.04 50.123c-1.452 10.775-10.686 19.082-21.859 19.082H30.729c-11.174 0-20.407-8.307-21.86-19.082h69.172z" fill="#FFF1A2"/><path d="M18.521 50.123h4.667a5.73 5.73 0 0 0 5.731-5.731v-6.29h29.07v6.29a5.73 5.73 0 0 0 5.732 5.73h5.198a21.201 21.201 0 0 1 2.117 9.266V73.66a7.655 7.655 0 0 1-7.656 7.656H24.06a7.655 7.655 0 0 1-7.656-7.656V59.388c0-3.321.76-6.464 2.117-9.265z" fill="#FFB100"/><path d="M54.075 11.891c0 5.865-4.755 10.62-10.62 10.62-5.865 0-10.62-4.755-10.62-10.62 0-5.865 4.755-10.62 10.62-10.62 5.865 0 10.62 4.755 10.62 10.62z" fill="#E27800"/><path d="M31.28 50.543a5.696 5.696 0 1 1 11.392 0v3.515a5.696 5.696 0 0 1-11.393 0v-3.515zM56.162 50.543a5.696 5.696 0 1 0-11.393 0v3.515a5.696 5.696 0 0 0 11.393 0v-3.515z" fill="#FFF1A2"/><path d="M36.272 50.608a1.87 1.87 0 0 0 1.781-2.438 2.566 2.566 0 0 1 3.047 2.52v3.22a2.566 2.566 0 0 1-5.131 0v-3.22c0-.036 0-.071.002-.107.098.016.199.025.301.025zM46.645 50.608a1.869 1.869 0 0 0 1.781-2.438 2.566 2.566 0 0 1 3.047 2.52v3.22a2.566 2.566 0 0 1-5.131 0v-3.22c0-.036 0-.071.002-.107.098.016.199.025.301.025z" fill="#E27800"/><path fill-rule="evenodd" clip-rule="evenodd" d="M24.604 53.273a.614.614 0 0 1 .805-.325l4.094 1.74a.614.614 0 0 1 .017 1.122l-4.093 1.894a.614.614 0 0 1-.516-1.115l2.837-1.312-2.82-1.198a.614.614 0 0 1-.324-.806zM62.771 53.273a.614.614 0 0 0-.805-.325l-4.093 1.74a.614.614 0 0 0-.018 1.122l4.093 1.894a.614.614 0 0 0 .516-1.115l-2.837-1.312 2.82-1.198a.614.614 0 0 0 .324-.806zM48.685 75.074a.614.614 0 0 1-.246.832c-4.012 2.181-7.956.917-9.468-.017a.614.614 0 1 1 .645-1.044c1.252.772 4.717 1.896 8.237-.017a.614.614 0 0 1 .832.246z" fill="#FFA600"/><path d="M30.436 44.117H56.94v8.934H30.434v-8.934z" fill="#FFB100"/><path fill-rule="evenodd" clip-rule="evenodd" d="M28.063 52.364c0-1.017.824-1.841 1.841-1.841h27.631a1.842 1.842 0 0 1 0 3.683h-27.63a1.842 1.842 0 0 1-1.843-1.842z" fill="#E27800"/><path d="M43.72 53.513c.124 0 1.224 1.748 2.345 3.58 1.115 1.825-.208 4.15-2.346 4.15s-3.46-2.325-2.346-4.15c1.12-1.833 2.222-3.58 2.346-3.58z" fill="#F68B00"/><path fill-rule="evenodd" clip-rule="evenodd" d="M31.979 67.123a3.847 3.847 0 0 1 3.847-3.847h15.79a3.847 3.847 0 0 1 3.846 3.847.957.957 0 1 1-1.913 0 1.933 1.933 0 0 0-1.934-1.934h-15.79a1.933 1.933 0 0 0-1.933 1.934.957.957 0 0 1-1.914 0z" fill="#F68B00"/><path d="M59.953 83.836c0-15.743 12.763-28.506 28.506-28.506 15.744 0 28.507 12.763 28.507 28.506v23.134a7.002 7.002 0 0 1-7.003 7.002H66.955a7.002 7.002 0 0 1-7.002-7.002V83.836z" fill="#FF9600"/><path d="M110.959 113.972H65.961c2.562-10.037 11.664-17.458 22.499-17.458 10.835 0 19.937 7.421 22.499 17.458z" fill="#F68B00"/><path d="M110.959 113.972H65.961c2.562-10.037 11.664-17.458 22.499-17.458 10.835 0 19.937 7.421 22.499 17.458z" fill="#F68B00"/><path d="M75.137 73.582a5.944 5.944 0 1 1 11.887 0v6.831a5.944 5.944 0 0 1-11.887 0v-6.831z" fill="#FFF1A2"/><path d="M79.742 76.633a3.04 3.04 0 0 1 6.079 0v3.493a3.04 3.04 0 0 1-6.079 0v-3.493z" fill="#E27800"/><path d="M101.783 73.582a5.943 5.943 0 1 0-11.887 0v6.831a5.944 5.944 0 0 0 11.887 0v-6.831z" fill="#FFF1A2"/><path d="M97.178 76.633a3.04 3.04 0 0 0-6.079 0v3.493a3.04 3.04 0 0 0 6.079 0v-3.493z" fill="#E27800"/><path d="M88.944 81.32a1.7 1.7 0 0 1-.97 0L67.5 75.225c-1.88-.56-1.477-3.333.486-3.333h40.946c1.962 0 2.366 2.773.485 3.333L88.944 81.32z" fill="#FF9600"/><path d="M73.22 65.192h30.48v9.502H73.22v-9.502zM78.04 95.602h20.839v1.606c0 5.755-4.666 10.42-10.42 10.42-5.755 0-10.42-4.665-10.42-10.42v-1.606z" fill="#FF9600"/><path d="M71.086 95.248c0-4.07 3.3-7.37 7.37-7.37h20.01c4.07 0 7.37 3.3 7.37 7.37v.285c0 6.416-7.72 9.67-12.313 5.191a7.25 7.25 0 0 0-10.124 0c-4.593 4.479-12.313 1.225-12.313-5.19v-.286z" fill="#FFB100"/><path d="M89.678 94.958a1.702 1.702 0 0 1-2.228.011l-5.873-5.034c-1.2-1.028-.473-2.993 1.107-2.993h11.625c1.57 0 2.303 1.947 1.12 2.982l-5.75 5.034z" fill="#E27800"/><path fill-rule="evenodd" clip-rule="evenodd" d="M62.626 87.952c6.26-.265 12.136.63 15.66 1.546a.93.93 0 0 1-.468 1.8c-3.363-.874-9.054-1.745-15.113-1.488-6.072.257-12.393 1.641-17.129 5.163a.93.93 0 0 1-1.11-1.492c5.162-3.838 11.913-5.264 18.16-5.529zM114.292 87.952c-6.26-.265-12.136.63-15.66 1.546a.93.93 0 1 0 .468 1.8c3.363-.874 9.054-1.745 15.113-1.488 6.072.257 12.393 1.641 17.129 5.163a.929.929 0 1 0 1.109-1.492c-5.161-3.838-11.912-5.264-18.159-5.529zM61.787 93.997c6.063-1.447 12.016-1.686 15.672-1.459.517.033.925.47.91.98a.893.893 0 0 1-.963.861c-3.488-.217-9.252.011-15.119 1.412-5.879 1.403-11.743 3.955-15.57 8.296-.333.378-.924.408-1.32.067-.396-.342-.447-.925-.113-1.303 4.172-4.734 10.452-7.41 16.503-8.854zM115.133 93.997c-6.063-1.447-12.016-1.686-15.672-1.459a.967.967 0 0 0-.91.98.893.893 0 0 0 .963.861c3.488-.217 9.252.011 15.119 1.412 5.879 1.403 11.743 3.955 15.57 8.296.333.378.924.408 1.32.067.396-.342.446-.925.113-1.303-4.173-4.734-10.452-7.41-16.503-8.854zM63.895 101.715c5.136-3.284 10.63-5.4 14.15-6.347.506-.137 1.05.137 1.216.612.166.474-.11.969-.617 1.105-3.348.902-8.658 2.943-13.616 6.113-4.968 3.177-9.483 7.422-11.408 12.699-.169.463-.715.697-1.22.524-.505-.173-.778-.687-.61-1.15 2.106-5.769 6.977-10.277 12.105-13.556zM113.025 101.715c-5.136-3.284-10.631-5.4-14.15-6.347-.507-.137-1.05.137-1.216.612-.166.474.11.969.617 1.105 3.347.902 8.658 2.943 13.616 6.113 4.968 3.177 9.483 7.422 11.408 12.699.169.463.715.697 1.22.524.505-.173.778-.687.609-1.15-2.105-5.769-6.976-10.277-12.104-13.556z" fill="#F68B00"/><path fill-rule="evenodd" clip-rule="evenodd" d="M70.646 74.893a2.479 2.479 0 0 1 3.077-1.68l14.737 4.326 14.736-4.327a2.479 2.479 0 0 1 1.397 4.757l-15.435 4.532c-.456.134-.94.134-1.397 0L72.326 77.97a2.479 2.479 0 0 1-1.68-3.076z" fill="#E27800"/></svg>