<svg viewBox="0 0 135 124" version="1.1" xmlns="http://www.w3.org/2000/svg"><g stroke="none" stroke-width="1" fill="none" fill-rule="evenodd"><g transform="translate(-1 -1)"><rect fill="#E5E5E5" x="12" y="12" width="113" height="113" rx="17"/><g transform="translate(37 43)"><rect fill="#B2B2B2" x="7" y="0" width="83" height="82" rx="40.8"/><path d="M74.2 34C80.165 34 85 38.835 85 44.8v27.4c0 3.403-.488 6.692-1.4 9.8H21c-2.948 0-5.72-.75-8.138-2.07A34.86 34.86 0 0 1 12 72.2V44.8C12 38.835 16.835 34 22.8 34h51.4z" fill="#C9C9C9"/><rect fill="#C9C9C9" x="0" y="54" width="97" height="28" rx="14"/><path d="M46.4 60h5.2a2.4 2.4 0 0 1 2.4 2.4V82H44V62.4a2.4 2.4 0 0 1 2.4-2.4z" fill="#A4A4A4"/><path d="M60.586 71.343l7.07 7.071A3.001 3.001 0 0 1 68.156 82h-5.399l-6.413-6.414a3 3 0 1 1 4.243-4.243zM36.414 71.343a3 3 0 1 1 4.243 4.243l-6.415 6.413-5.397.001a3.002 3.002 0 0 1 .363-3.442l.135-.144z" fill="#B2B2B2"/><rect fill="#FFF" x="21" y="50" width="20" height="26" rx="10"/><rect fill="#FFF" x="56" y="50" width="20" height="26" rx="10"/><rect fill="#A4A4A4" x="58" y="59" width="10" height="14" rx="5"/><rect fill="#A4A4A4" x="29" y="59" width="10" height="14" rx="5"/><g fill="#C9C9C9"><path d="M62.292 34.942L86.02 46.515l-6.312 12.943L55.98 47.885zM35.308 34.942l-10.786 5.26c-7.148 3.487-10.116 12.108-6.63 19.256L41.62 47.885l-6.312-12.943z"/></g><path d="M73 17c7.732 0 14 6.268 14 14v23h-.8C78.91 54 73 48.09 73 40.8V17zM35.4 15H73v18c0 6.627-5.373 12-12 12H9v-3.6C9 26.82 20.82 15 35.4 15z" fill="#B2B2B2"/></g><path d="M111.599 4.308a7.928 7.928 0 0 1 3.928 12.249l-10.562 14.308a2 2 0 0 1-3.61-1.172l-.134-17.785a7.928 7.928 0 0 1 10.378-7.6zM6.69 82.86a7.928 7.928 0 0 1 10.435-7.52l16.872 5.624a2 2 0 0 1 0 3.794l-16.872 5.624a7.928 7.928 0 0 1-10.436-7.521zM129.392 34a5.766 5.766 0 0 1-3.837 8.532l-11.07 2.265a2 2 0 0 1-1.896-3.286l7.496-8.454a5.766 5.766 0 0 1 9.307.943zM79.894 16.409a5.766 5.766 0 0 1 7.248 5.915l-.677 11.278a2 2 0 0 1-3.665.982l-6.225-9.428a5.766 5.766 0 0 1 3.32-8.747zM18.027 103.675a5.766 5.766 0 0 1 3.986-8.464L33.12 93.14a2 2 0 0 1 1.84 3.319l-7.643 8.321a5.766 5.766 0 0 1-9.29-1.105z" fill="#C9C9C9"/><path d="M47.82 8.387l31.043 48.938A6.3 6.3 0 0 1 73.543 67H11.457a6.3 6.3 0 0 1-5.32-9.675L37.18 8.387a6.3 6.3 0 0 1 10.64 0z" stroke="#A4A4A4" stroke-width="5.4" fill="#E5E5E5"/><path d="M42.5 19a7.417 7.417 0 0 1 7.196 9.216l-4.87 19.48a2.398 2.398 0 0 1-4.652 0l-4.87-19.48A7.417 7.417 0 0 1 42.5 19z" fill="#A4A4A4"/><circle fill="#A4A4A4" cx="42.5" cy="56.5" r="4.5"/></g></g></svg>