<svg viewBox="0 0 135 125" fill="none" xmlns="http://www.w3.org/2000/svg"><rect x="124.145" y="124.014" width="113" height="113" rx="17" transform="rotate(-180 124.145 124.014)" fill="#FF7878"/><path d="M35.736 26.34c-.225.033-.453.06-.684.08-5.965.524-11.216-3.809-11.732-9.677-.515-5.868 3.901-11.05 9.866-11.574 5.962-.524 11.214 3.81 11.729 9.678.02.23.033.46.038.687l.023-.002c5.585-.49 10.51 3.651 11 9.246l.134 1.52-20.224 1.776-.133-1.52a10.424 10.424 0 0 1-.017-.215z" fill="#FF9600"/><path d="M65.545 23.57l-38.39 3.372c-7.195.632-12.514 6.975-11.882 14.17l2.243 25.546c.632 7.194 6.976 12.513 14.17 11.881l38.39-3.37c7.193-.632 12.513-6.976 11.881-14.17l-2.243-25.547c-.632-7.193-6.976-12.513-14.17-11.881z" fill="#FFC6B7"/><path fill-rule="evenodd" clip-rule="evenodd" d="M48.814 56.3a3.186 3.186 0 0 0 2.892-3.457c-.155-1.755-3.69-5.627-3.69-5.627s-2.806 4.429-2.652 6.184a3.186 3.186 0 0 0 3.45 2.9zM56.602 58.887a.86.86 0 0 0-.5-1.109c-1.678-.634-3.277-.774-4.754-.325-1.477.45-2.725 1.457-3.761 2.92a.86.86 0 0 0 1.403.994c.875-1.234 1.834-1.955 2.86-2.268 1.026-.312 2.226-.248 3.643.289a.86.86 0 0 0 1.109-.5z" fill="#EE9583"/><path d="M77.037 44.935a5.775 5.775 0 0 1 3.252-2.925l-.576-6.558c-.508-5.778-4.701-10.348-10.06-11.594l1.244 14.172a7.746 7.746 0 0 0 6.14 6.905zM15.867 47.892l-.595-6.78c-.506-5.757 2.799-10.969 7.825-13.146l1.266 14.42a7.745 7.745 0 0 1-5.127 7.976 5.783 5.783 0 0 0-3.369-2.47z" fill="#FFB67A"/><path d="M82.736 53.18a5.764 5.764 0 1 0-1.008-11.483 5.764 5.764 0 0 0 1.008 11.482zM14.88 59.202a5.764 5.764 0 1 0-1.008-11.483 5.764 5.764 0 0 0 1.009 11.483z" fill="#FFC6B7"/><path d="M65.007 40.208c-.366.155-.756.317-1.17.484-3.308 1.333-8.154 2.998-14.658 4.53a8.11 8.11 0 0 0 4.501 6.053c3.311-1.709 6.912-2.951 10.795-3.734a8.074 8.074 0 0 0 .8-4.288l-.268-3.045zM43.223 52.194c-3.559-1.106-7.32-1.702-11.28-1.796a8.075 8.075 0 0 1-1.535-4.084l-.267-3.045c.387.09.8.18 1.236.273 3.49.736 8.551 1.531 15.223 1.906a8.11 8.11 0 0 1-3.377 6.746z" fill="#fff"/><path d="M44.36 45.303a110.992 110.992 0 0 1-7.374-.784l.105 1.195a3.642 3.642 0 0 0 7.269-.411zM51.36 44.688c2.689-.683 5.06-1.382 7.125-2.056l.105 1.195a3.642 3.642 0 0 1-7.23.86z" fill="#3D3D3D"/><path fill-rule="evenodd" clip-rule="evenodd" d="M111.638 89.77a9.13 9.13 0 1 1 18.237.935 9.13 9.13 0 0 1-18.237-.935zM54.378 86.834a9.13 9.13 0 1 1 18.237.935 9.13 9.13 0 0 1-18.237-.935z" fill="#FCCB8C"/><path fill-rule="evenodd" clip-rule="evenodd" d="M65.702 84.556c.752-14.674 13.258-25.96 27.932-25.207 14.674.752 25.96 13.258 25.207 27.932-.752 14.674-13.257 25.96-27.931 25.207-14.675-.752-25.96-13.258-25.208-27.932z" fill="#9F664A"/><path d="M85.917 72.485l-.012.013c-6.958-.042-12.784 5.401-13.144 12.42-.37 7.22 5.184 13.375 12.404 13.745 2.34.12 4.569-.382 6.524-1.362a13.03 13.03 0 0 0 6.35 2.022c7.221.37 13.376-5.183 13.746-12.404.362-7.056-4.934-13.093-11.913-13.71l-.006-.009-13.95-.715z" fill="#FCCB8C"/><path fill-rule="evenodd" clip-rule="evenodd" d="M90.576 119.004c-6.76-.346-11.96-6.107-11.613-12.867l.77-15.006 24.479 1.255-.769 15.007c-.347 6.759-6.108 11.958-12.867 11.611z" fill="#FCCB8C"/><path fill-rule="evenodd" clip-rule="evenodd" d="M97.7 103.596l-6.02 1.172a4.94 4.94 0 0 1-5.793-3.906l-.05-.259a1.946 1.946 0 0 1 1.538-2.282l11.897-2.316a1.947 1.947 0 0 1 2.282 1.538l.05.26a4.94 4.94 0 0 1-3.904 5.793zM85.383 92.442a6.691 6.691 0 0 1-6.34-7.026l.168-3.283c.189-3.69 3.127-2.5 6.819-2.31 3.691.189 6.735-.695 6.546 2.995l-.168 3.284a6.69 6.69 0 0 1-7.025 6.34z" fill="#fff"/><path fill-rule="evenodd" clip-rule="evenodd" d="M87.096 79.54a3.72 3.72 0 0 1 3.524 3.905l-.146 2.854a3.72 3.72 0 0 1-7.43-.381l.146-2.854a3.72 3.72 0 0 1 3.906-3.524z" fill="#4B4B4B"/><path fill-rule="evenodd" clip-rule="evenodd" d="M98.461 93.112a6.69 6.69 0 0 0 7.025-6.34l.169-3.283c.189-3.69-2.966-.672-6.656-.86-3.691-.19-6.52-3.516-6.71.174l-.168 3.284a6.691 6.691 0 0 0 6.34 7.025z" fill="#fff"/><path fill-rule="evenodd" clip-rule="evenodd" d="M98.079 80.103a3.72 3.72 0 0 0-3.906 3.524l-.147 2.854a3.72 3.72 0 0 0 7.43.381l.146-2.854a3.718 3.718 0 0 0-3.523-3.905z" fill="#4B4B4B"/><path d="M76.648 77.993l31.556 1.618-.374 7.309-31.556-1.618.374-7.309z" fill="#FCCB8C"/><path d="M90.506 79.76c.85.638.267 1.796-.794 1.742l-8.229-.422c-1.061-.054-1.523-1.266-.612-1.814a8.618 8.618 0 0 1 4.893-1.218 8.617 8.617 0 0 1 4.742 1.712zM103.768 83.79c.85.637.267 1.796-.795 1.741l-8.228-.422c-1.062-.054-1.523-1.266-.612-1.813a8.619 8.619 0 0 1 4.892-1.218 8.622 8.622 0 0 1 4.743 1.712z" fill="#9F664A"/><path d="M91.681 104.768l6.02-1.172a4.943 4.943 0 0 0 3.99-4.6l-15.435 3.006a4.942 4.942 0 0 0 5.425 2.766z" fill="#B23131"/></svg>