<svg viewBox="0 0 135 124" fill="none" xmlns="http://www.w3.org/2000/svg"><path d="M11 28c0-9.389 7.611-17 17-17h79c9.389 0 17 7.611 17 17v79c0 9.389-7.611 17-17 17H28c-9.389 0-17-7.611-17-17V28z" fill="#FEC701"/><path fill-rule="evenodd" clip-rule="evenodd" d="M64.756 27.337c8.2 8.201 8.2 21.498 0 29.699l-53.407 53.407a17.08 17.08 0 0 1-.348-3.443L11 51.394l24.057-24.057c8.201-8.2 21.498-8.2 29.699 0zM124 28.394v35.354l-8.995 8.997c-4.881 4.881-12.796 4.881-17.677 0-4.882-4.882-4.882-12.797 0-17.678L124 28.394z" fill="#FFD900"/><path d="M21.24 81.12l.17-.024.173-.025 18.081-2.634a1.269 1.269 0 0 1 1.438 1.073l3.037 20.852a1.41 1.41 0 0 1-1.192 1.599l-33.161 4.83a1.41 1.41 0 0 1-1.6-1.192L5.15 84.746a1.269 1.269 0 0 1 1.073-1.438l15.018-2.187z" fill="#FFB100"/><path d="M5.15 84.747a1.268 1.268 0 0 1 1.072-1.438l15.188-2.212 3.423 23.503-15.047 2.191a1.41 1.41 0 0 1-1.6-1.192L5.15 84.747z" fill="#FF9600"/><path fill-rule="evenodd" clip-rule="evenodd" d="M12.764 94.093l2.805-.409a.891.891 0 0 1 1.01.754l.229 1.572a.891.891 0 0 1-.754 1.01l-2.804.409a.891.891 0 0 1-1.01-.754l-.23-1.572a.891.891 0 0 1 .754-1.01z" fill="#F68B00"/><path fill-rule="evenodd" clip-rule="evenodd" d="M14.138 90.004l3.72 3.64a.668.668 0 0 1-.372 1.14l-6.246.91a.668.668 0 0 1-.68-.987l2.526-4.55a.668.668 0 0 1 1.052-.153z" fill="#F68B00"/><path d="M27.547 87.06l10.588-1.542a.706.706 0 0 1 .8.597v.003a.705.705 0 0 1-.596.8L27.75 88.458a.705.705 0 0 1-.8-.596v-.003a.705.705 0 0 1 .597-.8zM27.953 89.858l10.588-1.542a.705.705 0 0 1 .8.596v.003a.705.705 0 0 1-.596.8l-10.588 1.542a.705.705 0 0 1-.8-.596v-.003a.705.705 0 0 1 .596-.8z" fill="#F68B00"/><path d="M104.298 8.249l.16.031.164.032 17.128 3.326a1.21 1.21 0 0 1 .958 1.42l-3.835 19.752a1.347 1.347 0 0 1-1.579 1.065l-31.412-6.099a1.347 1.347 0 0 1-1.066-1.579l3.835-19.752a1.211 1.211 0 0 1 1.42-.958l14.227 2.762z" fill="#FFB100"/><path d="M88.651 6.445a1.211 1.211 0 0 1 1.42-.958l14.388 2.794-4.323 22.263-14.254-2.768a1.347 1.347 0 0 1-1.066-1.579l3.835-19.752z" fill="#FF9600"/><path fill-rule="evenodd" clip-rule="evenodd" d="M92.567 17.27l2.657.515a.85.85 0 0 1 .673.998l-.29 1.49a.851.851 0 0 1-.997.673l-2.656-.516a.85.85 0 0 1-.673-.998l.289-1.49a.85.85 0 0 1 .998-.672z" fill="#F68B00"/><path fill-rule="evenodd" clip-rule="evenodd" d="M95.093 14.017l2.205 4.454a.638.638 0 0 1-.694.91l-5.917-1.15a.638.638 0 0 1-.302-1.103l3.711-3.305a.638.638 0 0 1 .997.194z" fill="#F68B00"/><path d="M108.106 15.59l10.03 1.948c.365.07.604.424.533.79l-.001.002a.673.673 0 0 1-.789.533l-10.03-1.947a.674.674 0 0 1-.533-.79l.001-.003a.673.673 0 0 1 .789-.533zM107.593 18.24l10.03 1.948c.365.071.604.425.533.79v.002a.674.674 0 0 1-.79.533l-10.03-1.947a.674.674 0 0 1-.533-.79l.001-.003a.673.673 0 0 1 .789-.532zM42.707 4.762c12.297-1.13 23.184 7.947 24.315 20.244 1.13 12.297-7.92 23.208-20.217 24.338l-12.311 1.132c-12.297 1.13-23.185-7.948-24.315-20.245-1.13-12.297 7.92-23.207 20.217-24.338l12.31-1.131z" fill="#F68B00"/><path d="M14.638 51.661c-1.144-12.444 8.017-23.46 20.461-24.603l30.683-2.82c12.444-1.145 23.46 8.016 24.604 20.46l.117 1.279c1.144 12.444-8.017 23.46-20.461 24.604L39.359 73.4C26.915 74.545 15.9 65.384 14.756 52.94l-.118-1.279z" fill="#FFB100"/><path fill-rule="evenodd" clip-rule="evenodd" d="M35.537 39.703a7.515 7.515 0 0 1 14.968-1.376l.424 4.617a7.515 7.515 0 0 1-14.968 1.376l-.424-4.617z" fill="#FF9600"/><path fill-rule="evenodd" clip-rule="evenodd" d="M35.787 42.41a7.515 7.515 0 0 1 14.968-1.376l.424 4.617a7.515 7.515 0 1 1-14.968 1.376l-.424-4.618z" fill="#FFF1A2"/><path fill-rule="evenodd" clip-rule="evenodd" d="M42.028 42.184a3.385 3.385 0 0 1 6.741-.62l.39 4.234a3.385 3.385 0 1 1-6.741.62l-.39-4.234z" fill="#F68B00"/><path d="M39.79 40.035a2.638 2.638 0 1 0 5.254-.483 2.638 2.638 0 0 0-5.254.483z" fill="#FFF1A2"/><path d="M98.52 43.627a6.636 6.636 0 1 1-13.216 1.215 6.636 6.636 0 0 1 13.215-1.215zM19.226 50.916A6.636 6.636 0 1 1 6.01 52.131a6.636 6.636 0 0 1 13.216-1.215z" fill="#FFB100"/><path d="M17.17 58.25a3.198 3.198 0 1 1-6.368.585 3.198 3.198 0 0 1 6.369-.585zM25.045 13.772c9.145-.841 17.24 5.891 18.081 15.037l.132 1.433c.84 9.145-5.892 17.24-15.037 18.081-9.145.84-17.24-5.892-18.082-15.037l-.131-1.433c-.84-9.145 5.891-17.24 15.037-18.081z" fill="#F68B00"/><path d="M85.87 77.69l.271.018.279.02 29.051 2.065a2.022 2.022 0 0 1 1.874 2.16l-2.381 33.504a2.25 2.25 0 0 1-2.403 2.083l-53.28-3.787a2.249 2.249 0 0 1-2.083-2.402l2.381-33.504a2.022 2.022 0 0 1 2.16-1.873l24.13 1.715z" fill="#FFB100"/><path d="M59.58 77.848a2.022 2.022 0 0 1 2.16-1.874l24.402 1.735-2.684 37.762-24.177-1.718a2.249 2.249 0 0 1-2.083-2.402l2.381-33.503z" fill="#FF9600"/><path fill-rule="evenodd" clip-rule="evenodd" d="M68.252 94.997l4.505.32a1.42 1.42 0 0 1 1.316 1.518l-.18 2.526a1.42 1.42 0 0 1-1.517 1.316l-4.505-.32a1.42 1.42 0 0 1-1.317-1.518l.18-2.526a1.42 1.42 0 0 1 1.518-1.316z" fill="#F68B00"/><path fill-rule="evenodd" clip-rule="evenodd" d="M71.784 89.098l4.55 6.937a1.065 1.065 0 0 1-.966 1.647l-10.036-.714a1.065 1.065 0 0 1-.724-1.767l5.486-6.223a1.065 1.065 0 0 1 1.69.12z" fill="#F68B00"/><path d="M93.663 89.088l17.013 1.209a1.125 1.125 0 0 1 1.042 1.2l-.001.006a1.124 1.124 0 0 1-1.201 1.041l-17.012-1.209a1.124 1.124 0 0 1-1.042-1.2v-.006a1.124 1.124 0 0 1 1.201-1.041zM93.344 93.583l17.013 1.21a1.123 1.123 0 0 1 1.041 1.2v.005a1.124 1.124 0 0 1-1.201 1.042l-17.012-1.21a1.124 1.124 0 0 1-1.042-1.2v-.005a1.124 1.124 0 0 1 1.201-1.042zM87.185 35l-11.16 1.026a8.13 8.13 0 0 1-8.84-7.352l-.415-4.506c8.502-.414 16.223 3.958 20.415 10.832z" fill="#FF9600"/><path fill-rule="evenodd" clip-rule="evenodd" d="M56.342 64.19l.004-.007.018-.025a26.08 26.08 0 0 1 .36-.508c.25-.348.614-.84 1.06-1.415.898-1.155 2.114-2.618 3.417-3.904 1.337-1.318 2.633-2.314 3.686-2.702.506-.187.842-.19 1.056-.132.183.05.434.184.71.632a1.36 1.36 0 1 0 2.314-1.427c-.569-.922-1.345-1.566-2.313-1.828-.937-.254-1.875-.102-2.708.205-1.625.599-3.265 1.947-4.654 3.317-1.421 1.402-2.719 2.968-3.654 4.171a53.044 53.044 0 0 0-1.428 1.926l-.082.119-.022.032-.007.009-.002.003 1.122.767-1.122-.767a1.36 1.36 0 0 0 2.245 1.534zM53.624 56.506a3.193 3.193 0 0 0 2.892-3.468c-.16-1.754-3.727-5.608-3.727-5.608s-2.803 4.44-2.642 6.193a3.193 3.193 0 0 0 3.477 2.883z" fill="#F68B00"/><path d="M53.971 34.123a7.48 7.48 0 0 0-.711 3.95l.424 4.618a7.485 7.485 0 0 0 2.114 4.57c2.557-2.09 5.366-3.363 7.73-4.139a29.45 29.45 0 0 1 5.155-1.186 7.599 7.599 0 0 0-.032-.62l-.424-4.618c-.03-.324-.08-.641-.148-.95L54.238 37.02l-.267-2.897z" fill="#FF9600"/><path d="M54.22 36.831a7.48 7.48 0 0 0-.711 3.95l.424 4.617a7.494 7.494 0 0 0 .816 2.784c2.817-2.649 6.087-4.177 8.778-5.06a29.44 29.44 0 0 1 5.182-1.19l-.233-2.527a7.481 7.481 0 0 0-1.293-3.575L54.5 36.83h-.28z" fill="#FFF1A2"/><path d="M58.365 38.246a2.718 2.718 0 0 1-2.305 2.938l.363 3.946c.045.485.19.937.412 1.336 2.09-1.502 4.281-2.509 6.216-3.183l-.276-3.006a3.385 3.385 0 0 0-4.612-2.84c.106.251.176.523.203.81z" fill="#F68B00"/><path fill-rule="evenodd" clip-rule="evenodd" d="M52.356 30.53a1.679 1.679 0 0 1 1.826 1.517c.069.745.53 1.38 1.747 1.92 1.246.554 2.983.848 4.868.955 1.855.106 3.713.024 5.119-.086a43.84 43.84 0 0 0 2.263-.239l.028-.004h.005a1.68 1.68 0 0 1 .491 3.321l-.245-1.66.245 1.66h-.005l-.011.002-.039.006-.14.02c-.12.015-.295.038-.515.064-.44.052-1.064.118-1.813.177-1.493.117-3.514.209-5.573.092-2.03-.116-4.243-.44-6.041-1.239-1.829-.812-3.506-2.265-3.728-4.681a1.679 1.679 0 0 1 1.518-1.826z" fill="#F68B00"/><path d="M105.365 116.946l-9.852-.7.685-9.633a.45.45 0 0 1 .801-.247l.941 1.19a.899.899 0 0 0 1.325.094l1.227-1.165a.9.9 0 0 1 1.325.094l1.049 1.327a.899.899 0 0 0 1.325.095l1.1-1.046a.45.45 0 0 1 .758.358l-.684 9.633z" fill="#FFF1A2"/></svg>