<svg viewBox="0 0 135 124" version="1.1" xmlns="http://www.w3.org/2000/svg" xmlns:xlink="http://www.w3.org/1999/xlink"><defs><path d="M1.932 0H45.54c1.067 0 1.932.865 1.932 1.932v34.086c0 6.326-5.128 11.454-11.454 11.454H11.454C5.128 47.472 0 42.344 0 36.018V1.932C0 .865.865 0 1.932 0z" id="a"/><path d="M2.921 0c.284 0 .559.04.819.116a2.346 2.346 0 0 0 2.235 3.058l-.133-.005V6.59A2.921 2.921 0 1 1 0 6.59V2.921A2.921 2.921 0 0 1 2.921 0z" id="c"/><path d="M1.65.124h3.31c.91 0 1.65.739 1.65 1.65v23.408a.704.704 0 0 1-.081.328l-2.913 5.536a.352.352 0 0 1-.623 0L.081 25.51A.704.704 0 0 1 0 25.182V1.774C0 .863.739.124 1.65.124z" id="d"/><path d="M1.65.124h3.31c.91 0 1.65.739 1.65 1.65v23.408a.704.704 0 0 1-.081.328l-2.913 5.536a.352.352 0 0 1-.623 0L.081 25.51A.704.704 0 0 1 0 25.182V1.774C0 .863.739.124 1.65.124z" id="f"/><path d="M1.65.124h3.31c.91 0 1.65.739 1.65 1.65v23.408a.704.704 0 0 1-.081.328l-2.913 5.536a.352.352 0 0 1-.623 0L.081 25.51A.704.704 0 0 1 0 25.182V1.774C0 .863.739.124 1.65.124z" id="h"/><path d="M1.65.124h3.31c.91 0 1.65.739 1.65 1.65v23.408a.704.704 0 0 1-.081.328l-2.913 5.536a.352.352 0 0 1-.623 0L.081 25.51A.704.704 0 0 1 0 25.182V1.774C0 .863.739.124 1.65.124z" id="j"/><path d="M1.65.124h3.31c.91 0 1.65.739 1.65 1.65v23.408a.704.704 0 0 1-.081.328l-2.913 5.536a.352.352 0 0 1-.623 0L.081 25.51A.704.704 0 0 1 0 25.182V1.774C0 .863.739.124 1.65.124z" id="l"/></defs><g stroke="none" stroke-width="1" fill="none" fill-rule="evenodd"><path d="M30 11h79c9.389 0 17 7.611 17 17v79c0 9.389-7.611 17-17 17H30c-9.389 0-17-7.611-17-17V28c0-9.389 7.611-17 17-17z" fill="#439D00"/><g><path stroke="#979797" stroke-width=".575" fill="#3D3D3D" d="M31.91 60.684h36.294V90.63H31.91z"/><path d="M24.734 32.71c6.555 0 11.868 5.313 11.868 11.868V93.43c0 6.555-5.313 11.868-11.868 11.868-6.555 0-11.868-5.313-11.868-11.868V44.578c0-6.555 5.313-11.868 11.868-11.868z" fill="#3D3D3D"/><path d="M38.613 27.598c7.05 0 12.765 5.715 12.765 12.765v64.17c0 7.05-5.715 12.765-12.765 12.765-7.05 0-12.765-5.715-12.765-12.765v-64.17c0-7.05 5.715-12.765 12.765-12.765z" fill="#3D3D3D"/><path fill="#3D3D3D" d="M34.67 94.356h26.22v8.142H34.67zM23.354 3h21.39c10.137 0 18.354 8.217 18.354 18.354v43.194c0 10.137-8.217 18.354-18.354 18.354h-21.39C13.217 82.902 5 74.685 5 64.548V21.354C5 11.217 13.217 3 23.354 3z"/><path d="M43.364 14.178h19.458c9.603 0 17.388 7.785 17.388 17.388v54.51c0 9.603-7.785 17.388-17.388 17.388H43.364c-9.603 0-17.388-7.785-17.388-17.388v-54.51c0-9.603 7.785-17.388 17.388-17.388z" fill="#3D3D3D"/><path d="M46.323 95.728c4.408-3.831 11.086-3.364 14.918 1.043l.25.289c3.832 4.407 3.365 11.086-1.043 14.917l-8.181 1.498-6.736-2.541-.25-.288c-3.832-4.408-3.365-11.087 1.042-14.918z" fill="#1CB0F6"/><path d="M39.714 131.222l6.335-29.805a5.765 5.765 0 1 1 11.278 2.398l-6.335 29.804a5.765 5.765 0 0 1-11.278-2.397z" fill="#1CB0F6"/><path d="M67.017 133.738L53.66 106.352a5.765 5.765 0 1 1 10.363-5.054l13.357 27.386a5.765 5.765 0 0 1-10.363 5.054z" fill="#1CB0F6"/><path d="M51.338 68.536l44.324 33.401c-3.656 4.852-10.553 5.821-15.405 2.165l-35.54-26.78a5.5 5.5 0 0 1 6.62-8.786z" fill="#FF9600"/><path d="M37.08 72.138h14.282a2.76 2.76 0 0 1 2.597 1.826l9.343 25.98H43.154l-8.672-24.112a2.76 2.76 0 0 1 2.598-3.694z" fill="#FFB100"/><g transform="translate(23.492 24.666)"><mask id="b" fill="#fff"><use xlink:href="#a"/></mask><use fill="#A56644" xlink:href="#a"/><path fill="#FFB100" mask="url(#b)" d="M-3.864-2.07h52.578v8.142H-3.864z"/></g><path d="M49.461 60.897c-3.509.314-6.116-1.172-7.822-4.45" stroke="#87401A" stroke-width="2" stroke-linecap="round" stroke-linejoin="round"/><g><g><path d="M42.833 34.464a6.507 6.507 0 0 1 6.506 6.507v3.958a6.507 6.507 0 1 1-13.013 0V40.97a6.507 6.507 0 0 1 6.507-6.507z" fill="#FFF"/><path d="M45.491 38.328a2.921 2.921 0 0 1 2.921 2.921v3.67a2.921 2.921 0 1 1-5.842 0V41.21a2.346 2.346 0 0 0 2.561-2.86 3.04 3.04 0 0 1 .36-.022z" fill="#3D3D3D"/></g><g><path d="M58.564 34.464a6.507 6.507 0 0 0-6.506 6.507v3.958a6.507 6.507 0 1 0 13.013 0V40.97a6.507 6.507 0 0 0-6.507-6.507z" fill="#FFF"/><g transform="matrix(-1 0 0 1 62.24 38.328)"><mask fill="#fff"><use xlink:href="#c"/></mask><use fill="#3D3D3D" xlink:href="#c"/></g></g></g><path d="M52 33h20a4 4 0 0 1 4 4v5c0 6.627-5.373 12-12 12s-12-5.373-12-12v-9z" stroke="#303030" stroke-width="2"/><g fill="#87401A"><path d="M52.598 50.748h2.898a2.484 2.484 0 1 1 0 4.968h-2.898a2.484 2.484 0 1 1 0-4.968z"/><path d="M52.167 48.075l4.388 4.11-6.132 1.644z"/></g><path d="M31.703 15.236a9.591 9.591 0 0 1 9.591 9.591v6.946a9.591 9.591 0 0 1-19.182 0v-6.946a9.591 9.591 0 0 1 9.591-9.591z" fill="#3D3D3D"/></g><path d="M102 102h19a8 8 0 0 1-8 8h-3a8 8 0 0 1-8-8z" fill="#A56644"/><path d="M69 52h38a2 2 0 0 1 2 2v46a2 2 0 0 1-2 2H69a2 2 0 0 1-2-2V54a2 2 0 0 1 2-2z" fill="#D8CFCF"/><rect fill="#D8CFCF" x="70" y="34" width="42" height="19" rx="2"/><path d="M100 35H81l5.595 7.281a1 1 0 0 0 1.321.24L100 35z" fill="#EBE3E3"/><rect fill="#D8CFCF" x="67" y="4" width="42" height="31" rx="2"/><path d="M96 52h30a2 2 0 0 1 2 2v33.12l-1.682 1.553a.4.4 0 0 0 0 .588L128 90.814V100a2 2 0 0 1-2 2H96a2 2 0 0 1-2-2V73.55a1 1 0 0 1 .75-.969l2.756-.714a.4.4 0 0 0 0-.775l-2.757-.714A1 1 0 0 1 94 69.41v-1.838a1 1 0 0 1 .603-.919l1.547-.667a.4.4 0 0 0 0-.735l-1.547-.668a1 1 0 0 1-.603-.918V54a2 2 0 0 1 2-2z" fill="#EBE3E3"/><rect fill="#EBE3E3" x="97" y="34" width="34" height="19" rx="2"/><path d="M103 53h19l-5.595 7.281a1 1 0 0 1-1.321.24L103 53z" fill="#D8CFCF"/><path d="M89 82H76l3.67 4.363a1 1 0 0 0 1.26.226L89 82zM96 4h30a2 2 0 0 1 2 2v9.863l-2.302 1.174a.4.4 0 0 0 0 .713L128 18.924V33a2 2 0 0 1-2 2H96a2 2 0 0 1-2-2v-9.268a1 1 0 0 1 .666-.943l3.271-1.16a.4.4 0 0 0 0-.754l-3.271-1.161A1 1 0 0 1 94 18.77V6a2 2 0 0 1 2-2z" fill="#EBE3E3"/><path d="M78 102h21a8 8 0 0 1-8 8h-5a8 8 0 0 1-8-8z" fill="#A56644"/><rect fill="#A56644" transform="rotate(60 90.5 102.5)" x="88" y="98" width="5" height="9" rx="2.5"/><path d="M42.338 68.536l44.324 33.401c-3.656 4.852-10.553 5.821-15.405 2.165l-35.54-26.78a5.5 5.5 0 0 1 6.62-8.786z" fill="#FFB100"/><path d="M32 33h20v9c0 6.627-5.373 12-12 12s-12-5.373-12-12v-5a4 4 0 0 1 4-4z" stroke="#303030" stroke-width="2"/><g><g><g><g fill="#FFD300" fill-rule="nonzero"><path d="M9.043 56.914L7.05 54.27a1.65 1.65 0 0 1 .325-2.311L26.07 37.873a.704.704 0 0 1 .31-.133l6.175-1.006a.352.352 0 0 1 .375.498l-2.67 5.658a.704.704 0 0 1-.212.262L11.354 57.239a1.65 1.65 0 0 1-2.311-.325z"/></g><g transform="rotate(-127 19.504 26.676)"><mask id="e" fill="#fff"><use xlink:href="#d"/></mask><rect fill="#F5A4A4" fill-rule="nonzero" mask="url(#e)" x="-1.23" y="-.547" width="9.07" height="7.169" rx=".352"/></g><g transform="rotate(-127 19.504 26.676)"><mask id="g" fill="#fff"><use xlink:href="#f"/></mask><path d="M1.613-.605h3.383c.585 0 1.058.474 1.058 1.058v.184c0 .584-.473 1.058-1.058 1.058H1.613A1.058 1.058 0 0 1 .555.637V.453c0-.584.474-1.058 1.058-1.058z" fill="#F39393" fill-rule="nonzero" mask="url(#g)"/></g><g transform="rotate(-127 19.504 26.676)"><mask id="i" fill="#fff"><use xlink:href="#h"/></mask><rect fill="#FFD7B2" fill-rule="nonzero" mask="url(#i)" x="-1.23" y="25.348" width="9.07" height="4.35" rx=".352"/></g><g transform="rotate(-127 19.504 26.676)"><mask id="k" fill="#fff"><use xlink:href="#j"/></mask><rect fill="#606060" fill-rule="nonzero" mask="url(#k)" x="-1.23" y="29.311" width="9.07" height="3.005" rx=".352"/></g><g transform="rotate(-127 19.504 26.676)"><mask id="m" fill="#fff"><use xlink:href="#l"/></mask><path stroke="#FFC000" stroke-width=".88" stroke-linecap="round" mask="url(#m)" d="M3.305 11.652v9.992"/></g></g><path d="M13.3 55.45l-3.668-4.868c-.209-.277-.103-.708.236-.963.339-.256.782-.238.991.038l3.668 4.868c.209.277.103.708-.236.964-.339.255-.782.238-.99-.04zM15.472 53.813l-3.668-4.868c-.209-.276-.103-.708.236-.963.339-.255.782-.238.991.039l3.668 4.867c.209.277.103.708-.236.964-.339.255-.782.238-.99-.039z" fill="#C4C4C4" fill-rule="nonzero"/><path d="M14.386 54.631l-3.668-4.867c-.209-.277-.103-.708.236-.964.339-.255.782-.238.991.039l3.668 4.868c.209.277.103.708-.236.963-.339.256-.782.238-.99-.039z" fill="#C4C4C4" fill-rule="nonzero"/><path stroke="#DFDFDF" stroke-width=".88" stroke-linecap="round" d="M12.959 53.97l-.635-.843M14.045 53.151l-.635-.842M15.131 52.333l-.635-.843"/></g></g><rect fill="#A56644" x="15" y="47" width="11" height="11" rx="5.5"/></g></svg>