<svg xmlns="http://www.w3.org/2000/svg" viewBox="0 0 135 124"><defs><style>.cls-2{fill:#4b4b4b}.cls-3{fill:#fff}.cls-4{fill:#ffb49e}.cls-6{fill:#f68f00}.cls-7{fill:#b58268}.cls-8{fill:#ff9d8a}.cls-9{fill:#f34848}</style></defs><g id="Layer_3" data-name="Layer 3"><path d="M124 28v79a17 17 0 0 1-17 17H28a17 17 0 0 1-17-17V28a17 17 0 0 1 6.11-13 16.67 16.67 0 0 1 4.63-2.76A16.92 16.92 0 0 1 28 11h79a17 17 0 0 1 17 17z" fill="#6f519f"/><path class="cls-2" d="M101.46 124H28a17 17 0 0 1-16.48-12.81L15.74 100a41.54 41.54 0 0 1 7.16-12.2l5.66-6.68 35.85-18.51 35.85 27z"/><path class="cls-3" d="M87.15 124H60.18L38.46 84.11l21.74-10.3L87.15 124z"/><circle class="cls-4" cx="13.34" cy="56.47" r="10.06"/><circle class="cls-4" cx="59.22" cy="40.99" r="10.06"/><path class="cls-4" d="M34.66 74.92l4.4 9.19 16.49 6.97 5.25-17.27-4.88-8.48-21.26 9.59z"/><path d="M53.77 15.64l11.56 34.27a24.8 24.8 0 0 1-15.57 31.43l-4.52 1.52a24.81 24.81 0 0 1-31.45-15.58L2.23 33a15.83 15.83 0 0 1 9.94-20l21.54-7.3a15.83 15.83 0 0 1 20.06 9.94z" fill="#ffc5b4"/><rect class="cls-4" x="31.93" y="36.47" width="7.86" height="22.29" rx="2.59" transform="rotate(-18.65 35.838 47.6)"/><path class="cls-6" d="M10.32 56.86l-.8-9.08a56.76 56.76 0 0 0-2.76-13.13l-3-8.77 43.11-14.54 3.38 8.59A56.36 56.36 0 0 0 56 30.83l5.83 8.66v-.05a28.72 28.72 0 0 0-.93-5.51l-3.4-12.38A28.87 28.87 0 0 0 20.4 1.76 28.87 28.87 0 0 0 2.87 40l4.8 11.88a29 29 0 0 0 2.65 5z"/><path class="cls-6" d="M47.9 9.64l-1.54 2.76a10.62 10.62 0 0 1-5.88 4.9L14.83 26a10.63 10.63 0 0 0-7 12.32l-4.91-3.27-.25-10.93 18-18.4z"/><path class="cls-7" d="M21.69 54.36a10.39 10.39 0 0 1-3-.43l-.57-.17a2 2 0 1 1 1.14-3.83l.57.17a6.51 6.51 0 0 0 7.32-2.75 2 2 0 1 1 3.38 2.14 10.53 10.53 0 0 1-8.84 4.87zM44.52 46.66a10.46 10.46 0 0 1-3-.43l-.52-.17a2 2 0 0 1 1.14-3.84l.57.17A6.5 6.5 0 0 0 50 39.65a2 2 0 1 1 3.38 2.14 10.53 10.53 0 0 1-8.86 4.87z"/><path class="cls-8" d="M31.15 70.19a2 2 0 0 1-.77-3.85l20.36-8.46a2 2 0 1 1 1.54 3.7L31.91 70a1.89 1.89 0 0 1-.76.19z"/><circle class="cls-9" cx="101.57" cy="53.06" r="33.23"/><path class="cls-8" d="M124 85.55v1.77l-22.16 11.19-2.68-3.91-.67-1-.35-.51-.2-.29-1.54-2.23 7-4.33 15.19-9.43.82 1.32.37.59.94 1.51 2 3.16z"/><path class="cls-9" d="M72.47 94.53l49.35-37.11V32.54A17.6 17.6 0 0 0 104.23 15H91.09A26.14 26.14 0 0 0 65 41.09v49.68a4.7 4.7 0 0 0 7.47 3.76z"/><path d="M120.75 49.37v22a17.61 17.61 0 0 1-9.46 15.61L97.86 94a16.16 16.16 0 0 1-18.53-2.57l-5.84-5.51a13 13 0 0 1-4.1-9.5V49.1A9.58 9.58 0 0 1 79 39.52l32.21.27a9.58 9.58 0 0 1 9.54 9.58z" fill="#ffb5a1"/><path class="cls-2" d="M110.3 79.49a1.11 1.11 0 0 1-1.1-1.11V66.69a2.93 2.93 0 0 0-.67-1.86l-2.84-3.42a1.1 1.1 0 0 1 1.7-1.41l2.84 3.42a5.14 5.14 0 0 1 1.17 3.27v11.69a1.11 1.11 0 0 1-1.1 1.11zM71.81 77.37a1.11 1.11 0 0 1-1.11-1.11V65.42a5.1 5.1 0 0 1 1.18-3.26l2.84-3.42a1.1 1.1 0 0 1 1.69 1.41l-2.83 3.42a2.92 2.92 0 0 0-.67 1.85v10.84a1.11 1.11 0 0 1-1.1 1.11z"/><path class="cls-2" d="M114.06 71.78a1.11 1.11 0 0 1-1.11-1.1v-3.31a4 4 0 0 0-1.2-2.87l-4.07-4a1.1 1.1 0 0 1 1.54-1.58l4.07 4a6.24 6.24 0 0 1 1.87 4.44v3.31a1.1 1.1 0 0 1-1.1 1.11zM84.41 63.29a2.21 2.21 0 0 1-1.41-.56c-4.37-3.89-7.4-1.46-8-.94a2.21 2.21 0 0 1-3.08-3.16c2.15-2.11 7.83-4.66 14 .8a2.21 2.21 0 0 1 .18 3.12 2.19 2.19 0 0 1-1.69.74z"/><rect class="cls-8" x="84.06" y="46.69" width="6.64" height="23.21" rx="3.32"/><path class="cls-9" d="M117.9 30.19S111.71 53 86.23 53c-18.58 0-25.84-8.29-28.41-12.78a2.77 2.77 0 0 1 1.57-3.94l11.43-4.51z"/><path class="cls-8" d="M120.67 55.73v18.94a9.47 9.47 0 0 0 0-18.94z"/><circle cx="122.99" cy="75.39" r="4.66" fill="#7af0f2"/><path class="cls-9" d="M111.25 39.79s1.22 15.94 9.42 15.94l7-10.65-9.77-11.72z"/><path class="cls-2" d="M95.27 63.52a2.21 2.21 0 0 1-1.48-3.85c2.91-2.6 10-6.08 16.1-.67a2.21 2.21 0 1 1-2.89 3.29c-4.69-4.17-10 .47-10.21.67a2.2 2.2 0 0 1-1.52.56z"/><path d="M99.58 78.7v.51a2.8 2.8 0 0 1-1.46 2.46 2.86 2.86 0 0 1-1.34.34h-8.56a2.79 2.79 0 0 1-2.79-2.8v-.51a7.06 7.06 0 0 1 12.07-5 3.7 3.7 0 0 1 .42.46 7 7 0 0 1 1.66 4.54z" fill="#a24242"/><path class="cls-9" d="M99.58 78.7v.51a2.8 2.8 0 0 1-1.46 2.46l-7.37-1.26c.74-4.32 4.63-5.77 7.17-6.25a7 7 0 0 1 1.66 4.54z"/><path class="cls-3" d="M99.58 78.79v.42a2.8 2.8 0 0 1-2.8 2.8h-8.56a2.79 2.79 0 0 1-2.79-2.8v-.42z"/><path d="M124 83.38V107a17 17 0 0 1-17 17H71.81l7.56-13.79a41.14 41.14 0 0 1 15.81-16l10.6-6a35.34 35.34 0 0 1 16.88-4.82h1z" fill="#2d2d2d"/><path class="cls-6" d="M13.32 43.38a2.66 2.66 0 0 1-1.29-5l9.88-5.5a2.67 2.67 0 0 1 2.59 4.66L14.62 43a2.66 2.66 0 0 1-1.3.38zM36.07 33.59a2.66 2.66 0 0 1-.66-5.24l11.23-2.89A2.66 2.66 0 0 1 48 30.61l-11.23 2.9a3.14 3.14 0 0 1-.7.08z"/></g></svg>