<svg viewBox="0 0 135 124" fill="none" xmlns="http://www.w3.org/2000/svg"><path d="M11 28c0-9.389 7.611-17 17-17h79c9.389 0 17 7.611 17 17v79c0 9.389-7.611 17-17 17H28c-9.389 0-17-7.611-17-17V28z" fill="#1CB0F6"/><path d="M21.24 81.12l.17-.024.173-.025 18.081-2.634a1.269 1.269 0 0 1 1.439 1.073l3.037 20.852a1.41 1.41 0 0 1-1.193 1.599l-33.16 4.83a1.41 1.41 0 0 1-1.6-1.192L5.15 84.746a1.269 1.269 0 0 1 1.072-1.438l15.018-2.187z" fill="#E28B0C"/><path d="M5.15 84.747a1.268 1.268 0 0 1 1.072-1.438l15.188-2.212 3.424 23.503-15.048 2.191a1.41 1.41 0 0 1-1.6-1.192L5.15 84.747z" fill="#CD7900"/><path fill-rule="evenodd" clip-rule="evenodd" d="M12.765 94.093l2.804-.409a.891.891 0 0 1 1.01.754l.23 1.572a.891.891 0 0 1-.754 1.01l-2.804.409a.891.891 0 0 1-1.01-.754l-.23-1.572a.891.891 0 0 1 .754-1.01z" fill="#B36A00"/><path fill-rule="evenodd" clip-rule="evenodd" d="M14.137 90.004l3.72 3.64a.668.668 0 0 1-.371 1.14l-6.246.91a.668.668 0 0 1-.681-.987l2.527-4.55a.668.668 0 0 1 1.051-.153z" fill="#B36A00"/><path d="M27.546 87.06l10.588-1.542a.705.705 0 0 1 .8.597v.003a.705.705 0 0 1-.596.8l-10.589 1.541a.705.705 0 0 1-.8-.596v-.003a.706.706 0 0 1 .597-.8zM27.954 89.858l10.588-1.542a.705.705 0 0 1 .8.596v.003a.706.706 0 0 1-.596.8l-10.588 1.542a.705.705 0 0 1-.8-.596v-.003a.705.705 0 0 1 .596-.8z" fill="#CD7900"/><path d="M104.298 8.249l.16.031.165.032 17.127 3.326a1.21 1.21 0 0 1 .958 1.42l-3.835 19.752a1.347 1.347 0 0 1-1.579 1.065l-31.412-6.099a1.347 1.347 0 0 1-1.065-1.579l3.835-19.752a1.211 1.211 0 0 1 1.42-.958l14.226 2.762z" fill="#E28B0C"/><path d="M88.652 6.445a1.211 1.211 0 0 1 1.42-.958l14.387 2.794-4.323 22.263-14.254-2.768a1.347 1.347 0 0 1-1.065-1.579l3.835-19.752z" fill="#CD7900"/><path fill-rule="evenodd" clip-rule="evenodd" d="M92.568 17.27l2.656.515a.85.85 0 0 1 .673.998l-.289 1.49a.85.85 0 0 1-.997.673l-2.657-.516a.85.85 0 0 1-.673-.998l.29-1.49a.85.85 0 0 1 .997-.672z" fill="#B36A00"/><path fill-rule="evenodd" clip-rule="evenodd" d="M95.092 14.017l2.205 4.454a.638.638 0 0 1-.694.91l-5.916-1.15a.638.638 0 0 1-.303-1.103l3.712-3.305a.638.638 0 0 1 .996.194z" fill="#B36A00"/><path d="M108.106 15.59l10.03 1.948c.365.07.604.424.533.79v.002a.674.674 0 0 1-.79.533l-10.03-1.947a.674.674 0 0 1-.533-.79l.001-.003a.673.673 0 0 1 .789-.533zM107.593 18.24l10.03 1.948c.365.071.603.425.532.79v.002a.674.674 0 0 1-.79.533l-10.029-1.947a.673.673 0 0 1-.533-.79v-.003a.674.674 0 0 1 .79-.532z" fill="#CD7900"/><path d="M42.707 4.762c12.297-1.13 23.184 7.947 24.315 20.244 1.13 12.297-7.92 23.208-20.217 24.338l-12.311 1.132c-12.297 1.13-23.185-7.948-24.315-20.245-1.13-12.297 7.92-23.207 20.217-24.338l12.31-1.131z" fill="#3D3D3D"/><path d="M14.638 51.661c-1.144-12.444 8.017-23.46 20.461-24.603l30.683-2.82c12.444-1.145 23.46 8.016 24.603 20.46l.118 1.279c1.144 12.444-8.017 23.46-20.462 24.604L39.36 73.4c-12.445 1.144-23.46-8.017-24.604-20.461l-.117-1.279z" fill="#FFCBA3"/><path fill-rule="evenodd" clip-rule="evenodd" d="M35.538 39.703a7.515 7.515 0 0 1 14.967-1.376l.425 4.617a7.515 7.515 0 1 1-14.968 1.376l-.425-4.617z" fill="#E99B5F"/><path fill-rule="evenodd" clip-rule="evenodd" d="M35.788 42.41a7.515 7.515 0 1 1 14.967-1.377l.425 4.618a7.515 7.515 0 0 1-14.968 1.376l-.425-4.618z" fill="#fff"/><path d="M98.52 43.627a6.636 6.636 0 1 1-13.215 1.215 6.636 6.636 0 0 1 13.215-1.215zM19.225 50.916A6.636 6.636 0 1 1 6.01 52.131a6.636 6.636 0 0 1 13.215-1.215z" fill="#FFCBA3"/><path d="M17.171 58.25a3.198 3.198 0 1 1-6.369.585 3.198 3.198 0 0 1 6.37-.585z" fill="#C86902"/><path d="M25.044 13.772c9.146-.841 17.241 5.891 18.082 15.037l.131 1.433c.841 9.145-5.891 17.24-15.037 18.081-9.145.84-17.24-5.892-18.081-15.037l-.132-1.433c-.84-9.145 5.892-17.24 15.037-18.081z" fill="#3D3D3D"/><path fill-rule="evenodd" clip-rule="evenodd" d="M56.342 64.19l.004-.007.018-.025a23.212 23.212 0 0 1 .36-.508c.25-.348.613-.84 1.06-1.415.898-1.155 2.114-2.618 3.417-3.904 1.336-1.317 2.633-2.314 3.685-2.702.507-.187.843-.19 1.057-.131.183.049.434.183.71.631a1.36 1.36 0 0 0 2.314-1.427c-.569-.922-1.345-1.566-2.314-1.828-.936-.254-1.875-.102-2.707.205-1.625.599-3.265 1.947-4.654 3.317-1.421 1.402-2.72 2.968-3.654 4.171a52.812 52.812 0 0 0-1.51 2.045l-.023.032-.006.009-.002.004 1.122.766-1.122-.767a1.36 1.36 0 0 0 2.245 1.534zM53.624 56.506a3.193 3.193 0 0 0 2.893-3.468c-.161-1.754-3.727-5.608-3.727-5.608s-2.803 4.44-2.642 6.193a3.193 3.193 0 0 0 3.476 2.883z" fill="#E99B5F"/><path d="M85.87 77.69l.271.018.28.02 29.051 2.065a2.022 2.022 0 0 1 1.873 2.16l-2.381 33.504a2.25 2.25 0 0 1-2.403 2.083l-53.28-3.787a2.249 2.249 0 0 1-2.083-2.402l2.381-33.504a2.022 2.022 0 0 1 2.16-1.873l24.13 1.715z" fill="#E28B0C"/><path d="M59.58 77.848a2.022 2.022 0 0 1 2.16-1.874l24.403 1.735-2.684 37.762-24.178-1.718a2.249 2.249 0 0 1-2.083-2.402l2.381-33.503z" fill="#CD7900"/><path d="M105.402 117.031l-9.851-.7.684-9.633a.451.451 0 0 1 .802-.247l.94 1.19a.899.899 0 0 0 1.325.094l1.227-1.165c.02-.019.041-.036.062-.053a.9.9 0 0 1 1.263.147l1.05 1.327a.9.9 0 0 0 1.325.095l1.1-1.046a.45.45 0 0 1 .758.358l-.685 9.633z" fill="#FFCE8E"/><path fill-rule="evenodd" clip-rule="evenodd" d="M68.25 94.997l4.507.32a1.42 1.42 0 0 1 1.316 1.518l-.18 2.526a1.42 1.42 0 0 1-1.517 1.316l-4.506-.32a1.42 1.42 0 0 1-1.316-1.518l.18-2.526a1.42 1.42 0 0 1 1.517-1.316z" fill="#B36A00"/><path fill-rule="evenodd" clip-rule="evenodd" d="M71.783 89.098l4.55 6.937a1.065 1.065 0 0 1-.966 1.647l-10.036-.714a1.065 1.065 0 0 1-.724-1.767l5.486-6.223a1.065 1.065 0 0 1 1.69.12z" fill="#B36A00"/><path d="M93.664 89.088l17.013 1.209a1.125 1.125 0 0 1 1.042 1.2l-.001.006a1.124 1.124 0 0 1-1.201 1.041l-17.012-1.209a1.124 1.124 0 0 1-1.042-1.2v-.006a1.124 1.124 0 0 1 1.201-1.041zM93.344 93.583l17.012 1.21c.62.043 1.086.581 1.042 1.2v.005a1.124 1.124 0 0 1-1.201 1.042l-17.013-1.21a1.124 1.124 0 0 1-1.041-1.2v-.005a1.124 1.124 0 0 1 1.201-1.042z" fill="#CD7900"/><path d="M87.184 35l-11.16 1.026a8.13 8.13 0 0 1-8.84-7.352l-.415-4.506c8.503-.414 16.223 3.958 20.415 10.832z" fill="#D6C6BA"/><path d="M42.049 42.406a2.638 2.638 0 0 0 2.698-3.854 3.385 3.385 0 0 1 4.023 3.012l.389 4.234a3.385 3.385 0 0 1-6.742.62l-.368-4.012z" fill="#3D3D3D"/><path d="M53.882 34.315a7.481 7.481 0 0 0-.623 3.758l.424 4.618a7.484 7.484 0 0 0 2.114 4.57c2.557-2.091 5.367-3.364 7.73-4.14a29.443 29.443 0 0 1 5.155-1.185 7.599 7.599 0 0 0-.031-.62l-.382-4.15c-.17.092-.27.176-.27.249 0 .34-3.249-.015-5.636-.276-1.117-.123-2.045-.224-2.364-.224-.8 0-3.333-1-4.5-1.5-.416-.277-1.022-.687-1.617-1.1z" fill="#E99B5F"/><path d="M55.248 35.247a7.492 7.492 0 0 0-1.74 5.534l.425 4.617a7.492 7.492 0 0 0 .816 2.784c2.817-2.649 6.087-4.177 8.778-5.06a29.444 29.444 0 0 1 5.182-1.19l-.233-2.527a7.523 7.523 0 0 0-.47-2.02.091.091 0 0 0-.006.03c0 .34-3.249-.015-5.636-.276-1.117-.122-2.045-.224-2.364-.224-.8 0-3.333-1-4.5-1.5l-.252-.168z" fill="#fff"/><path d="M58.366 38.246a2.718 2.718 0 0 1-2.306 2.938l.363 3.946c.045.485.19.937.412 1.336 2.09-1.502 4.282-2.509 6.217-3.183l-.277-3.006a3.385 3.385 0 0 0-4.612-2.84c.107.251.176.523.203.81z" fill="#3D3D3D"/><path fill-rule="evenodd" clip-rule="evenodd" d="M52.357 30.53a1.679 1.679 0 0 1 1.826 1.517c.068.745.53 1.38 1.747 1.92 1.246.554 2.983.848 4.868.955 1.855.106 3.712.024 5.119-.087a43.849 43.849 0 0 0 2.263-.238l.027-.004h.006a1.68 1.68 0 0 1 .491 3.32l-.245-1.66.245 1.66-.005.002-.011.001-.039.006-.14.02c-.12.015-.295.038-.515.064-.44.051-1.064.118-1.814.177-1.493.117-3.513.209-5.573.091-2.029-.115-4.242-.44-6.04-1.238-1.83-.812-3.506-2.265-3.728-4.681a1.679 1.679 0 0 1 1.518-1.826z" fill="#E99B5F"/></svg>