<svg viewBox="0 0 135 124" fill="none" xmlns="http://www.w3.org/2000/svg"><path d="M11 28c0-9.389 7.611-17 17-17h79c9.389 0 17 7.611 17 17v79c0 9.389-7.611 17-17 17H28c-9.389 0-17-7.611-17-17V28z" fill="#E5E5E5"/><path d="M62.296 113.759a1.82 1.82 0 0 1 1.526-2.074l9.534-1.454a1.821 1.821 0 0 1 2.074 1.526l.696 4.571a1.82 1.82 0 0 1-1.525 2.074l-9.534 1.453a1.82 1.82 0 0 1-2.074-1.525l-.697-4.571zM91.538 109.301a1.82 1.82 0 0 1 1.525-2.074l9.535-1.453a1.82 1.82 0 0 1 2.073 1.525l.697 4.571a1.82 1.82 0 0 1-1.525 2.074l-9.534 1.454a1.821 1.821 0 0 1-2.074-1.526l-.697-4.571zM115.927 105.583a1.82 1.82 0 0 1 1.525-2.074l9.535-1.453a1.82 1.82 0 0 1 2.073 1.525l.697 4.572a1.82 1.82 0 0 1-1.525 2.073l-9.534 1.454a1.821 1.821 0 0 1-2.074-1.525l-.697-4.572z" fill="#979797"/><path d="M120.698 82.126l-5.275.804 7.4 21.059 6.021-.918-7.15-20.347a.91.91 0 0 0-.996-.598z" fill="#BFBFBF"/><path d="M118.495 82.462l-6.021.918 7.401 21.058 6.02-.918-7.4-21.058z" fill="#D8D8D8"/><path d="M61.727 107.624a1.82 1.82 0 0 1 1.608-2.01l57.582-6.392a1.82 1.82 0 0 1 2.01 1.609l.51 4.596a1.82 1.82 0 0 1-1.608 2.01l-57.582 6.392c-1 .11-1.899-.61-2.01-1.609l-.51-4.596z" fill="#979797"/><rect x="81.332" y="106.876" width="49.148" height="7.77" rx="1.82" transform="rotate(-8.667 81.332 106.876)" fill="#BFBFBF"/><path d="M88.22 88.74a1.645 1.645 0 0 1 1.379-1.873l12.076-1.841.496 3.252-12.077 1.84a1.645 1.645 0 0 1-1.873-1.377z" fill="#979797"/><path d="M98.683 85.502l18.772-2.862.456-13.183a1.365 1.365 0 0 0-1.57-1.397l-17.145 2.613-.513 14.829z" fill="#AFAFAF"/><path d="M98.59 87.16a1.645 1.645 0 0 1 1.379-1.874l17.438-2.658.221 1.452a1.82 1.82 0 0 1-1.525 2.074l-15.638 2.384a1.645 1.645 0 0 1-1.874-1.378z" fill="#AFAFAF"/><path d="M97.377 85.7l3.036-.462.526-14.83-1.918.292A1.365 1.365 0 0 0 97.862 72l-.485 13.7z" fill="#E5E5E5"/><path d="M100.255 85.243l-6.02.917 7.564 21.526 6.02-.918-7.564-21.525z" fill="#BFBFBF"/><path d="M97.308 85.692l-6.021.918 7.564 21.525 6.021-.917-7.564-21.526z" fill="#D8D8D8"/><rect x="58.693" y="110.327" width="49.148" height="7.77" rx="1.82" transform="rotate(-8.667 58.693 110.327)" fill="#D8D8D8"/><path d="M21.876 84.574c-5.44 1.814-10.92 1.02-14.446.084-1.4-.372-2.763 1.04-2.037 2.294 4.374 7.555 11.483 10.454 14.875 10.957l1.608-13.335zM14.772 59.24c-1.152 5.617-4.582 9.964-7.157 12.548-1.023 1.026-.483 2.913.966 2.912 8.73-.005 14.797-4.71 16.931-7.393l-10.74-8.067zM62.058 48.265c4.983 1.572 9.965.828 13.253-.071 1.397-.382 2.782 1.013 2.062 2.27-3.986 6.961-10.48 9.724-13.61 10.241l-1.705-12.44zM77.815 85.522c.814 5.161 3.702 9.289 5.972 11.83.965 1.081.334 2.943-1.113 2.859-8.008-.465-13.377-5.046-15.234-7.617l10.375-7.072z" fill="#BFBFBF"/><path d="M70.416 55.42c1.747 4.925 5.342 8.454 8.04 10.537 1.146.885.867 2.83-.57 3.014-7.958 1.01-14.076-2.51-16.373-4.696l8.903-8.855z" fill="#BFBFBF"/><path d="M10.15 43.862h.002c-.318-4.857 3.429-9.113 8.457-9.553l43.46-3.806c5.028-.44 9.457 3.1 9.988 7.938h.002l3.606 41.177c.15 1.709 1.7 2.969 3.463 2.814l6.267-.549c.735-.064 1.38.461 1.443 1.173.61 6.963-4.72 13.118-11.906 13.747l-57.468 5.032c-7.185.63-13.504-4.505-14.114-11.468-.062-.712.483-1.341 1.217-1.406l6.268-.549c1.763-.154 3.07-1.664 2.92-3.372L10.15 43.862z" fill="#BFBFBF"/><path d="M13.598 46.276l53.635-6.619 6.605 53.52-53.635 6.619-6.605-53.52z" fill="#D8D8D8"/><path d="M17.64 99.085a1.64 1.64 0 0 1 1.497-1.772L75.002 92.6a1.64 1.64 0 0 1 1.772 1.496l.467 5.536a1.64 1.64 0 0 1-1.496 1.771l-55.865 4.715a1.64 1.64 0 0 1-1.772-1.496l-.467-5.536z" fill="#979797"/><path d="M10.432 59.49a5.963 5.963 0 0 1 7.777 1.872 6.647 6.647 0 0 0 1.727-5.345l-1.023-8.288-9.784 1.208 1.303 10.553zM66.436 55.419a5.963 5.963 0 0 1 7.078-3.719l-1.301-10.548-9.784 1.207 1.022 8.288a6.647 6.647 0 0 0 2.985 4.772z" fill="#BFBFBF"/><path d="M43.869 95.99a1.18 1.18 0 0 1 .883-1.164l3.49-.906a1.18 1.18 0 0 1 1.338.587l4.774 8.948a1.18 1.18 0 0 1-.745 1.698l-8.078 2.099a1.18 1.18 0 0 1-1.477-1.122l-.185-10.14z" fill="#fff"/><path fill-rule="evenodd" clip-rule="evenodd" d="M70.031 81.149c.356.326.38.88.054 1.235-3.23 3.523-7.918 3.771-9.887 3.463a.875.875 0 0 1 .27-1.728c1.636.256 5.636.02 8.328-2.917a.875.875 0 0 1 1.235-.053z" fill="#BFBFBF"/><path opacity=".5" d="M40.96 64.384a8.677 8.677 0 1 1-17.224 2.126 8.677 8.677 0 0 1 17.224-2.126z" fill="#BFBFBF"/><path d="M57.699 47.75a1.908 1.908 0 1 1-3.787.467 1.908 1.908 0 0 1 3.787-.467z" fill="#fff"/><path d="M21.473 76.539c-2.77-3.103-4.017-6.414-4.509-8.264-.188-.706-1.002-1.272-1.712-1.102l-2.79.666c-.64.153-.997.84-.725 1.44 2.106 4.647 5.143 7.811 8.925 8.928.975.288 1.488-.91.811-1.668z" fill="#BFBFBF"/><path d="M8.655 88.542c2.53-8.568 1.766-16.739 1.127-20.163-.146-.785.49-1.801 1.28-1.919l4.69-.697c.59-.088 1.14.32 1.217.91 1.3 9.985-.12 18.873-6.9 23.085-.796.495-1.68-.316-1.414-1.216zM59.429 48.16c1.274-3.06 1.57-5.842 1.593-7.468.01-.73.663-1.477 1.393-1.485l2.868-.033c.658-.007 1.172.574 1.028 1.216-.86 3.83-3.151 6.922-5.398 9.074-.834.799-1.928-.239-1.484-1.304zM57.09 28.214c-1.89 2.723-2.765 5.381-3.13 6.965-.163.712-.958 1.305-1.674 1.16l-2.81-.572c-.645-.131-1.025-.807-.749-1.405 1.646-3.563 4.537-6.104 7.187-7.735.983-.605 1.834.64 1.176 1.587z" fill="#BFBFBF"/><path d="M14.01 70.649a5.964 5.964 0 1 0-1.46-11.838 5.964 5.964 0 0 0 1.46 11.838zM72.76 63.399A5.964 5.964 0 1 0 71.3 51.56a5.964 5.964 0 0 0 1.46 11.838z" fill="#D8D8D8"/><path d="M7.245 48.78a1.64 1.64 0 0 1 1.252-1.952L70.88 33.19a1.64 1.64 0 0 1 1.952 1.251l.967 4.42a1.64 1.64 0 0 1-1.252 1.953L10.164 54.453A1.64 1.64 0 0 1 8.212 53.2l-.967-4.42z" fill="#979797"/><path d="M33.06 19.648l-.748-4.963c-.138-.985-.972-1.396-1.864-.959-4.287 2.1-6.794 6.793-6.114 11.648a11.328 11.328 0 0 0 .114.67 11.069 11.069 0 0 0-6.245 1.881c-.824.555-.883 1.483-.099 2.094l8.457 6.728c2.224 5.507 7.937 9.06 14.111 8.297 7.37-.91 12.607-7.62 11.698-14.99-.91-7.37-7.621-12.606-14.99-11.697-1.547.191-2.999.637-4.32 1.29z" fill="#BFBFBF"/><path d="M33.035 46.45a16.99 16.99 0 0 1-8.601 4.983l-.091.02" stroke="#BFBFBF" stroke-width="6.154" stroke-linecap="round"/><circle cx="108.368" cy="29.031" r="14.79" fill="#D8D8D8"/><circle cx="96.648" cy="33.404" r="8.639" fill="#D8D8D8"/><circle cx="95.841" cy="19.471" r="9.649" fill="#D8D8D8"/><circle cx="122.763" cy="58.613" r="5.004" transform="rotate(-43.083 122.763 58.613)" fill="#D8D8D8"/><circle cx="117.956" cy="55.532" r="5.004" transform="rotate(-43.083 117.956 55.532)" fill="#D8D8D8"/><circle cx="116.878" cy="60.59" r="5.333" transform="rotate(-43.083 116.878 60.59)" fill="#D8D8D8"/><circle cx="110.845" cy="57.209" r="4.769" transform="rotate(-43.083 110.845 57.21)" fill="#D8D8D8"/><circle cx="113.348" cy="51.214" r="4.869" transform="rotate(-43.083 113.348 51.214)" fill="#D8D8D8"/><circle cx="119.496" cy="50.032" r="4.102" transform="rotate(-43.083 119.496 50.032)" fill="#D8D8D8"/><circle cx="123.686" cy="53.328" r="3.736" transform="rotate(-43.083 123.686 53.328)" fill="#D8D8D8"/><circle cx="40.181" cy="116.151" r="3.629" transform="rotate(-53.426 40.181 116.151)" fill="#BFBFBF"/><circle cx="36.351" cy="114.579" r="3.629" transform="rotate(-53.426 36.35 114.579)" fill="#BFBFBF"/><circle cx="36.24" cy="118.327" r="3.867" transform="rotate(-53.426 36.24 118.327)" fill="#BFBFBF"/><circle cx="31.495" cy="116.701" r="3.459" transform="rotate(-53.426 31.495 116.701)" fill="#BFBFBF"/><circle cx="32.501" cy="112.098" r="3.531" transform="rotate(-53.426 32.501 112.098)" fill="#BFBFBF"/><circle cx="36.733" cy="110.454" r="2.975" transform="rotate(-53.426 36.733 110.454)" fill="#BFBFBF"/><circle cx="40.152" cy="112.26" r="2.709" transform="rotate(-53.426 40.152 112.26)" fill="#BFBFBF"/><circle cx="73.139" cy="17.778" r="5.781" transform="rotate(-59.239 73.139 17.778)" fill="#BFBFBF"/><circle cx="66.814" cy="15.905" r="5.781" transform="rotate(-59.239 66.814 15.905)" fill="#BFBFBF"/><circle cx="67.243" cy="21.864" r="6.161" transform="rotate(-59.239 67.243 21.864)" fill="#BFBFBF"/><circle cx="59.461" cy="20.052" r="5.51" transform="rotate(-59.239 59.461 20.052)" fill="#BFBFBF"/><circle cx="60.312" cy="12.594" r="5.626" transform="rotate(-59.239 60.312 12.594)" fill="#BFBFBF"/><circle cx="66.754" cy="9.305" r="4.74" transform="rotate(-59.239 66.754 9.305)" fill="#BFBFBF"/><circle cx="72.464" cy="11.616" r="4.316" transform="rotate(-59.239 72.464 11.616)" fill="#BFBFBF"/><circle cx="107.825" cy="14.072" r="9.852" fill="#D8D8D8"/><circle cx="118.544" cy="20.821" r="8.3" fill="#D8D8D8"/><circle cx="120.18" cy="31.482" r="7.558" fill="#D8D8D8"/><path d="M75.833 41.287a1 1 0 1 0 1.515 1.305l-1.515-1.305zm9.265-7.695a1 1 0 1 0-1.515-1.305l1.515 1.305zm-7.75 9l7.75-9-1.515-1.305-7.75 9 1.515 1.305zM82.231 69.886a1 1 0 0 0-.997 1.734l.997-1.734zm9.296 7.659a1 1 0 1 0 .998-1.733l-.998 1.733zM81.234 71.62l10.293 5.925.998-1.733-10.294-5.925-.997 1.733zM80.11 45.714a1 1 0 1 0 .965 1.752l-.965-1.752zm7.666-1.94a1 1 0 0 0-.965-1.752l.965 1.752zm-6.701 3.691l6.701-3.692-.965-1.751-6.701 3.692.965 1.752z" fill="#D8D8D8"/><circle cx="90.899" cy="61.194" r="4.079" transform="rotate(1.917 90.899 61.194)" fill="#BFBFBF"/><circle cx="89.464" cy="56.102" r="3.648" transform="rotate(1.917 89.464 56.102)" fill="#BFBFBF"/><circle cx="94.061" cy="54.213" r="3.725" transform="rotate(1.917 94.061 54.213)" fill="#BFBFBF"/><circle cx="98.025" cy="56.899" r="3.138" transform="rotate(1.917 98.025 56.899)" fill="#BFBFBF"/><circle cx="98.509" cy="60.948" r="2.858" transform="rotate(1.917 98.51 60.948)" fill="#BFBFBF"/><circle cx="94.784" cy="61.49" r="4.261" transform="rotate(1.917 94.784 61.49)" fill="#BFBFBF"/><path opacity=".6" fill-rule="evenodd" clip-rule="evenodd" d="M30.945 78.614a1 1 0 0 1 .412 1.352l-.66 1.238 2.429 1.055.689-1.755a1 1 0 1 1 1.861.73l-.715 1.821 2.235.97a1 1 0 1 1-.797 1.835l-2.169-.942-1.32 3.362 1.777 1.029a1 1 0 0 1-1.003 1.73l-1.513-.876-.634 1.617a1 1 0 0 1-1.862-.731l.746-1.9-3.024-1.752-1.368 2.567a1 1 0 0 1-1.765-.941l1.401-2.63-1.783-1.033a1 1 0 0 1 1.003-1.73l1.722.997 1.306-2.451-1.905-.827a1 1 0 1 1 .796-1.835l2.053.891.735-1.38a1 1 0 0 1 1.353-.411zm.215 8.651l1.234-3.144-2.64-1.146-1.416 2.656 2.822 1.634z" fill="#BFBFBF"/><path d="M42.67 60.27a8.677 8.677 0 1 1-17.224 2.126A8.677 8.677 0 0 1 42.67 60.27z" fill="#fff"/><path d="M42.433 60.3a8.677 8.677 0 1 0 17.224-2.126A8.677 8.677 0 0 0 42.433 60.3z" fill="#fff"/><path d="M40.38 60.553a2.23 2.23 0 1 1-4.427.546 2.23 2.23 0 0 1 4.426-.546zM44.725 60.017a2.23 2.23 0 1 0 4.426-.546 2.23 2.23 0 0 0-4.426.546z" fill="#979797"/><path fill-rule="evenodd" clip-rule="evenodd" d="M57.662 76.576c-1.306 1.024-2.459 2.853-3.04 4.29a5.193 5.193 0 1 1-9.627-3.894c1.001-2.477 3.063-6.063 6.258-8.568 1.654-1.297 3.775-2.43 6.322-2.785 2.612-.365 5.285.143 7.856 1.53a5.193 5.193 0 1 1-4.933 9.14c-.793-.428-1.248-.418-1.486-.385-.303.043-.753.204-1.35.672z" fill="#979797"/><path fill-rule="evenodd" clip-rule="evenodd" d="M60.426 82.636a5.33 5.33 0 0 0-.229.484c-2.32 5.737-8.852 8.507-14.59 6.187-5.736-2.32-8.506-8.852-6.186-14.59 1.245-3.078 3.832-7.68 8.122-11.044 2.264-1.776 5.352-3.471 9.2-4.009 3.988-.557 7.946.252 11.544 2.194 5.446 2.94 7.478 9.738 4.538 15.184-2.454 4.546-7.598 6.713-12.4 5.594zm-5.803-1.77c.58-1.436 1.734-3.266 3.04-4.29.596-.468 1.047-.63 1.35-.671.237-.034.693-.044 1.485.383a5.193 5.193 0 1 0 4.933-9.139c-2.57-1.387-5.244-1.895-7.856-1.53-2.547.356-4.668 1.488-6.322 2.785-3.195 2.505-5.256 6.091-6.258 8.568a5.193 5.193 0 1 0 9.628 3.894z" fill="#D8D8D8"/><path d="M67.306 68.869a5.17 5.17 0 0 0-1.876-1.72c-2.57-1.387-5.244-1.895-7.856-1.53-2.547.356-4.668 1.488-6.322 2.785-1.186.93-2.217 2.01-3.094 3.126.424.29.952.434 1.502.366l2.678-.33a2.187 2.187 0 0 0 1.837-1.576 2.187 2.187 0 0 0 2.164 1.082l2.678-.331a2.187 2.187 0 0 0 1.837-1.575 2.187 2.187 0 0 0 2.165 1.081l2.678-.33a2.183 2.183 0 0 0 1.609-1.048z" fill="#fff"/><path d="M44.624 78.61a10.828 10.828 0 0 1 2.994-.814c2.78-.343 5.442.4 7.564 1.895-.22.404-.409.803-.56 1.175a5.193 5.193 0 0 1-9.998-2.256zM42.714 61.6c.142-.018 1.635 1.81 3.163 3.732 1.52 1.914.345 4.737-2.08 5.036-2.426.3-4.252-2.153-3.242-4.379 1.014-2.236 2.018-4.372 2.16-4.39zM25.619 59.31a8.68 8.68 0 0 1 13.125-5.282L25.619 59.31zM58.144 54.242l-12.578-1.735a8.637 8.637 0 0 1 4.418-1.882 8.676 8.676 0 0 1 8.16 3.617z" fill="#BFBFBF"/><path d="M22.44 65.14a1.908 1.908 0 1 1-3.787.467 1.908 1.908 0 0 1 3.787-.468z" fill="#fff"/></svg>