<svg id="Cover" xmlns="http://www.w3.org/2000/svg" viewBox="0 0 135 124"><defs><style>.cls-1{fill:#ffc800}.cls-3{fill:#f89700}.cls-4{fill:#e27800}</style></defs><rect class="cls-1" x="11" y="11" width="113" height="113" rx="17" ry="17"/><path d="M48.32 75.06l63.39-63.39A17.07 17.07 0 0 0 107 11H62.42L23.34 50.08a17.66 17.66 0 0 0 25 25zm75.16-51.17l-99.59 99.59A16.89 16.89 0 0 0 28 124h45.32L124 73.32V28a16.89 16.89 0 0 0-.52-4.11z" fill="#ffd900"/><path class="cls-3" d="M131.36 41v63a8 8 0 0 1-8 8H34.73a8 8 0 0 1-8-8V41a8 8 0 0 1 8-8h88.61a8 8 0 0 1 8.02 8z"/><path class="cls-4" d="M121.08 40.07v64.84a8.88 8.88 0 0 1-3.52 7.1h-5.45a7.1 7.1 0 0 0 7.1-7.1V40.07a7.11 7.11 0 0 0-7.1-7.1h5.45a8.91 8.91 0 0 1 3.52 7.1zM82.92 32.61v6.51h-6.8v-6.51a3.75 3.75 0 0 0-3.74-3.74H53.89a3.75 3.75 0 0 0-3.74 3.74v6.51h-6.8v-6.51a10.55 10.55 0 0 1 10.54-10.54h18.49a10.54 10.54 0 0 1 10.54 10.54z"/><path d="M108.31 41.43v62.11a8.47 8.47 0 0 1-8.48 8.46H12.11a8.47 8.47 0 0 1-8.47-8.47v-62.1A8.47 8.47 0 0 1 12.11 33h87.72a8.47 8.47 0 0 1 8.48 8.43z" fill="#ffb100"/><path class="cls-4" d="M24.71 32.97h12.57v79.04H24.71zM75.28 32.97h12.57v79.04H75.28z"/><path class="cls-3" d="M82.92 29.08h7.64A3.89 3.89 0 0 1 94.44 33H79a3.89 3.89 0 0 1 3.89-3.89zM32.22 29.08h7.64A3.89 3.89 0 0 1 43.74 33H28.32a3.89 3.89 0 0 1 3.9-3.92z"/><path d="M82.83 67.57l3 10.94a4.76 4.76 0 0 1-3.34 5.83l-31.2 8.48a4.75 4.75 0 0 1-5.82-3.34l-5-18.41a4.74 4.74 0 0 1 3.34-5.8l26-7.06z" fill="#ffe75e"/><path class="cls-3" d="M74.87 68.17a6.81 6.81 0 0 0-13.31.83 6.81 6.81 0 0 0-11.91 6 2.58 2.58 0 0 0 .08.26c2 7.36 10.89 10.26 14.81 11.19a3.6 3.6 0 0 0 3.33-.88C70.79 82.86 77 76 74.94 68.43c-.03-.08-.04-.17-.07-.26z"/><path class="cls-1" d="M75.06 68l7.74-.42-13-9.44.29 5.38A4.73 4.73 0 0 0 75.06 68z"/></svg>