<svg viewBox="0 0 135 124" fill="none" xmlns="http://www.w3.org/2000/svg"><g clip-path="url(#clip0)"><path d="M28.385 11.012h79c9.389 0 17 7.61 17 17v79c0 9.389-7.611 17-17 17h-79c-9.39 0-17-7.611-17-17v-79c0-9.39 7.61-17 17-17z" fill="#46D7FF"/><path d="M98.935 93.77c19.294 0 34.935-15.64 34.935-34.934 0-19.295-15.641-34.936-34.935-34.936C79.641 23.9 64 39.541 64 58.836 64 78.13 79.641 93.77 98.935 93.77z" fill="#0084C2"/><path d="M120.948 31.706l-31.79 25.035 2.012 2.556 32.242-25.39a35.119 35.119 0 0 0-2.464-2.2z" fill="#006AAD"/><path fill-rule="evenodd" clip-rule="evenodd" d="M76.86 63.881l22.593-15.946 22.275 15.946v49.985H76.86V63.881z" fill="#C6775C"/><path fill-rule="evenodd" clip-rule="evenodd" d="M89.37 61.062a8.075 8.075 0 0 1 8.075 8.074v4.912a8.075 8.075 0 0 1-16.15 0v-4.912a8.075 8.075 0 0 1 8.075-8.074zM109.064 61.062a8.074 8.074 0 0 1 8.074 8.074v4.912a8.074 8.074 0 1 1-16.149 0v-4.912a8.075 8.075 0 0 1 8.075-8.074z" fill="#fff"/><path fill-rule="evenodd" clip-rule="evenodd" d="M91.6 69.066a3.625 3.625 0 0 1 3.626 3.625v4.553a3.625 3.625 0 0 1-7.25 0v-4.553l.006-.212a2.654 2.654 0 0 0 2.817-3.324c.258-.058.526-.089.802-.089zM106.734 69.097a3.625 3.625 0 0 1 3.625 3.625v4.553a3.625 3.625 0 0 1-7.25 0v-4.553l.007-.213a2.655 2.655 0 0 0 2.816-3.324c.258-.058.527-.088.802-.088z" fill="#3D3D3D"/><path d="M80.883 77.198c2.988 0 10.843 1.981 14.619 4.894l.29.232-2.302 2.763c-1.64-1.366-4.364-2.498-7.668-3.34l-.47-.116c-1.902-.457-3.998-.807-4.425-.835l-.044-.002v-3.596zM97.1 61.89c-2.589 1.494-10.381 3.706-15.108 3.07l-.367-.055.612-3.544c2.104.363 5.029-.018 8.311-.942l.465-.134c1.875-.555 3.866-1.3 4.25-1.49l.038-.02L97.1 61.89zM118.812 77.198c-2.989 0-10.844 1.981-14.619 4.894l-.29.232 2.302 2.763c1.64-1.366 4.364-2.498 7.668-3.34l.47-.116c1.902-.457 3.998-.807 4.424-.835l.045-.002v-3.596zM102.595 61.89c2.588 1.494 10.381 3.706 15.107 3.07l.367-.055-.612-3.544c-2.103.363-5.029-.018-8.311-.942l-.465-.134c-1.875-.555-3.866-1.3-4.249-1.49l-.039-.02-1.798 3.115z" fill="#C6775C"/><path fill-rule="evenodd" clip-rule="evenodd" d="M82.752 83.838h34.079c9.884 0 17.896 8.012 17.896 17.896 0 9.883-8.012 17.895-17.896 17.895H82.752c-9.883 0-17.896-8.012-17.896-17.895 0-9.884 8.013-17.896 17.896-17.896z" fill="#3D3D3D"/><path d="M101.116 95.011a4.564 4.564 0 0 1-7.108 5.724l-.139-.172a4.06 4.06 0 0 0-4-1.517l-.206.046a4.565 4.565 0 0 1-2.209-8.858 13.187 13.187 0 0 1 13.662 4.778z" fill="#A83D36"/><path d="M101.115 95.012c.441.574.724 1.222.855 1.887a2.03 2.03 0 0 1-2.298.72l-12.467-4.293a2.028 2.028 0 0 1-1.32-2.365c.46-.331.988-.582 1.569-.726a13.184 13.184 0 0 1 13.661 4.777z" fill="#fff"/><path d="M92.778 97.39a4.566 4.566 0 0 1 3.067 4.653 4.51 4.51 0 0 1-1.837-1.308l-.139-.172a4.06 4.06 0 0 0-4-1.517l-.206.046a4.561 4.561 0 0 1-2.127.02 4.564 4.564 0 0 1 5.242-1.722z" fill="#FF4B4B"/><path fill-rule="evenodd" clip-rule="evenodd" d="M99.167 87.545a4.71 4.71 0 1 0 0-9.42 4.71 4.71 0 0 0 0 9.42z" fill="#C6775C"/><path d="M119.114 41.915l-5.84 13.034a7.375 7.375 0 0 0-.491 2.644c0 4.23 3.577 7.66 7.991 7.66.941 0 1.874-.16 2.757-.47 4.142-1.461 6.265-5.864 4.742-9.834l-5.84-13.034a1.732 1.732 0 0 0-1.049-1.006c-.917-.323-1.933.127-2.27 1.006z" fill="#7AF0F2"/><path d="M117.349 59.926a2.663 2.663 0 1 0 .001-5.327 2.663 2.663 0 0 0-.001 5.327z" fill="#fff"/><path d="M86.679 28.054L45.499 6.158a6.16 6.16 0 0 0-8.332 2.547L7.421 64.648a6.16 6.16 0 0 0 2.547 8.331L51.15 94.876a6.16 6.16 0 0 0 8.331-2.547l29.746-55.944a6.16 6.16 0 0 0-2.547-8.331z" fill="#FF4B4B"/><path d="M82.765 32.854L68.78 25.417a1.76 1.76 0 0 0-2.38.728L38.306 78.981a1.76 1.76 0 0 0 .728 2.38l13.986 7.436a1.76 1.76 0 0 0 2.38-.727l28.093-52.836a1.76 1.76 0 0 0-.728-2.38z" fill="#fff"/><path fill-rule="evenodd" clip-rule="evenodd" d="M38.264 2.178l38.073 20.244a6.16 6.16 0 0 1 2.547 8.33L49.138 86.697a6.16 6.16 0 0 1-8.33 2.547L2.734 69a4.4 4.4 0 0 1-1.82-5.951L32.314 3.997a4.4 4.4 0 0 1 5.95-1.819z" fill="#FF5656"/><path d="M71.114 26.621L39.257 9.683a2.64 2.64 0 0 0-2.479 4.662l31.857 16.938a2.64 2.64 0 1 0 2.479-4.662zM43.68 68.844L20.37 56.45a1.76 1.76 0 0 0-2.38.727l-4.544 8.547a1.76 1.76 0 0 0 .727 2.38L37.483 80.5a1.76 1.76 0 0 0 2.38-.728l4.545-8.547a1.76 1.76 0 0 0-.728-2.38z" fill="#FFD900"/><path d="M13.775 60.418l29.526 15.7" stroke="#FF5656" stroke-width="2.64" stroke-linecap="square"/><path d="M54.235 120.494a6 6 0 1 0-5.26-10.786 6 6 0 0 0 5.26 10.786z" fill="#fff"/><path fill-rule="evenodd" clip-rule="evenodd" d="M28.546 84.838l13.362-6.482a1.6 1.6 0 0 1 2.21.914l8.478 24.388a1.6 1.6 0 0 1-.813 1.965l-7.736 3.752a1.6 1.6 0 0 1-2.039-.566L27.903 87.15a1.6 1.6 0 0 1 .643-2.313zM40.217 119.636a4.8 4.8 0 1 0-6.788-6.788 4.8 4.8 0 0 0 6.788 6.788zM17.377 102.717L23.7 96.31a1.6 1.6 0 0 1 2.424.171l8.333 11.239a1.6 1.6 0 0 1-.146 2.077l-3.565 3.613a1.6 1.6 0 0 1-2.108.149l-11.09-8.445a1.6 1.6 0 0 1-.17-2.397z" fill="#fff"/><path d="M50.105 28.48c7.675 4.081 10.59 13.612 6.508 21.288-4.081 7.676-13.612 10.59-21.288 6.508-7.676-4.081-10.59-13.612-6.509-21.288 4.032-7.582 13.381-10.518 21.007-6.654l.282.146zm-3.088 17.884l-3.935-2.093-5.347 9.631c2.45.166 6.205-2.617 9.087-7.221l.195-.317zm-6.584-3.501l-3.428-1.822c-2.014 4.363-2.487 8.54-1.61 10.894l5.038-9.072zm-6.081-3.233l-3.514-1.868a12.746 12.746 0 0 0 1.14 11.48c-.018-2.734.72-5.93 2.153-9.132l.22-.48zm18.83 10.013l-3.512-1.868c-1.905 3.189-4.251 5.753-6.641 7.343 3.97-.102 7.79-2.06 10.154-5.475zM42.4 29.64a12.749 12.749 0 0 0-10.153 5.474l3.513 1.868c1.905-3.188 4.25-5.752 6.64-7.342zm4.694 1.23c-1.76.193-4.023 1.656-6.145 4.055l-.244.281-.404.488a24.75 24.75 0 0 0-1.887 2.698l3.475 1.848 5.205-9.37zm6.358 4.647v.01c.016 2.87-.798 6.242-2.374 9.6l3.514 1.868a12.746 12.746 0 0 0-1.14-11.478zm-3.686-3.28l-5.227 9.412 3.886 2.067c2.193-4.753 2.559-9.286 1.341-11.48z" fill="#FFD900"/></g><defs><clipPath id="clip0"><path fill="#fff" d="M0 0h135v124H0z"/></clipPath></defs></svg>