<svg viewBox="0 0 135 124" fill="none" xmlns="http://www.w3.org/2000/svg"><path d="M11 28c0-9.389 7.611-17 17-17h79c9.389 0 17 7.611 17 17v79c0 9.389-7.611 17-17 17H28c-9.389 0-17-7.611-17-17V28z" fill="#E5E5E5"/><path d="M9.569 79.144a1.31 1.31 0 0 1 1.204-1.407l81.41-6.332a1.31 1.31 0 0 1 1.407 1.205 13.183 13.183 0 0 1-1.281 6.798l-3.183-.959a.578.578 0 0 0-.73.686l.992 4.218a13.189 13.189 0 0 1-7.976 3.49l-57.61 4.48c-7.294.567-13.666-4.885-14.233-12.179z" fill="#BFBFBF"/><path d="M28.23 20.61c-6.733.524-11.766 6.406-11.242 13.138l.575 7.4 2.338 1.117a.578.578 0 0 1 .077.998l-2.136 1.465 2.678 34.44 62.69-4.875-3.532-45.42c-.524-6.733-6.406-11.766-13.138-11.242l-38.31 2.98z" fill="#BFBFBF"/><path d="M84.835 69.368c4.56-3.127 5.849-9.24 3.046-13.92-.53-.885-1.66-1.05-2.435-.519l-14.3 9.81c-.775.53-1.028 1.645-.393 2.458 3.356 4.3 9.523 5.298 14.082 2.171zM66.114 22.943c3.011-4.637 1.858-10.776-2.525-14.023-.83-.615-1.936-.333-2.448.454l-9.446 14.544c-.51.787-.318 1.913.58 2.42 4.75 2.685 10.828 1.241 13.84-3.395z" fill="#BFBFBF"/><path fill-rule="evenodd" clip-rule="evenodd" d="M21.793 41.111c-.493-6.331 4.24-11.863 10.572-12.356l30.329-2.358c6.331-.493 11.863 4.24 12.356 10.572l3.86 49.63-53.258 4.141-3.86-49.629z" fill="#D1D1D1"/><path d="M75.917 48.124L75.05 36.97a11.485 11.485 0 0 0-5.644-9.026 6.11 6.11 0 0 0 .018.537l1.097 14.104a6.042 6.042 0 0 0 5.396 5.54zM22.666 52.342l-.873-11.23a11.492 11.492 0 0 1 4.687-10.185c.066.287.11.581.134.882l1.097 14.103a6.041 6.041 0 0 1-5.045 6.43z" fill="#BFBFBF"/><path fill-rule="evenodd" clip-rule="evenodd" d="M34.342 41.444l13.685-1.064.078 1.002a6.863 6.863 0 1 1-13.685 1.065l-.078-1.003z" fill="#fff"/><path d="M46.145 40.526l.044.563a3.081 3.081 0 1 1-6.144.478l-.043-.563 6.143-.478z" fill="#959595"/><path fill-rule="evenodd" clip-rule="evenodd" d="M64.134 39.127L50.45 40.191l.078 1.002a6.863 6.863 0 1 0 13.684-1.064l-.078-1.002z" fill="#fff"/><path d="M52.337 40.044l.044.563a3.08 3.08 0 1 0 6.144-.478l-.044-.563-6.144.478z" fill="#959595"/><path d="M26.268 53.616a5.895 5.895 0 1 1-11.754.914 5.895 5.895 0 0 1 11.754-.914zM84.753 49.068A5.895 5.895 0 1 1 73 49.982a5.895 5.895 0 0 1 11.754-.914z" fill="#D1D1D1"/><path d="M32.746 8.128L46.287 20.76a1.449 1.449 0 0 1-.304 2.321c-4.142 2.248-9.344 1.568-12.852-1.775-3.507-3.343-4.448-8.516-2.417-12.776.422-.887 1.32-1.08 2.032-.402z" fill="#BFBFBF"/><path d="M22.793 85.854a1.601 1.601 0 0 1 1.472-1.72l55.288-4.3a1.601 1.601 0 0 1 1.72 1.471l.43 5.515a1.601 1.601 0 0 1-1.472 1.72l-55.29 4.3a1.601 1.601 0 0 1-1.72-1.472l-.428-5.514z" fill="#959595"/><path fill-rule="evenodd" clip-rule="evenodd" d="M49.636 82.762a1.164 1.164 0 0 1 1.06-.976l3.54-.276a1.164 1.164 0 0 1 1.198.801l3.099 9.541a1.164 1.164 0 0 1-1.017 1.52l-8.227.64a1.164 1.164 0 0 1-1.24-1.345l1.587-9.905z" fill="#fff"/><path fill-rule="evenodd" clip-rule="evenodd" d="M20.025 72.826c.09 1.152.309 4.18-3.012 4.439 2.32 1.94 2.523 1.658 2.523 1.658l1.488-.941.15-3.517s-1.238-2.79-1.149-1.639zM82.716 67.951c.09 1.152.341 4.177 3.662 3.919-1.992 2.275-2.237 2.029-2.237 2.029l-1.615-.7-.693-3.451s.793-2.948.883-1.797zM63.996 25.6a6.43 6.43 0 0 0 8.99 9.089c.855-.68.776-1.86.129-2.513L66.51 25.5c-.647-.654-1.825-.747-2.514.1z" fill="#BFBFBF"/><path d="M14.897 29.384a1.892 1.892 0 0 1 1.74-2.033l62.388-4.852a1.892 1.892 0 0 1 2.033 1.74l.305 3.918a1.892 1.892 0 0 1-1.74 2.033l-62.388 4.852a1.892 1.892 0 0 1-2.034-1.74l-.304-3.918z" fill="#959595"/><path d="M34.133 17.691c-.56-7.213 4.832-13.515 12.045-14.076 7.213-.56 13.515 4.832 14.076 12.045.56 7.213-4.832 13.515-12.045 14.076-7.213.56-13.515-4.832-14.076-12.045z" fill="#BFBFBF"/><path fill-rule="evenodd" clip-rule="evenodd" d="M33.469 27.393a3.709 3.709 0 0 0-1.915-4.334c-.676-.336-1.345.128-1.51.707l-1.395 4.909c-.165.58.16 1.326.912 1.396a3.708 3.708 0 0 0 3.908-2.678zM17.952 24.138a4.617 4.617 0 0 0 6.032-.41c.515-.512.347-1.286-.142-1.655l-5.525-4.166c-.49-.368-1.279-.317-1.63.32a4.617 4.617 0 0 0 1.265 5.91z" fill="#BFBFBF"/><path d="M24.232 101.268a5.002 5.002 0 0 0 6.3.633c.46-.306.455-.95.064-1.34l-5.657-5.657c-.39-.39-1.034-.395-1.34.065a5.002 5.002 0 0 0 .633 6.299zM57.037 114.036a5 5 0 0 0 1.25-6.205c-.258-.488-.9-.547-1.326-.197l-6.188 5.071c-.427.35-.494.99-.067 1.34a5.002 5.002 0 0 0 6.33-.009zM45.708 107.707a5 5 0 0 0 4.229-4.71c.024-.552-.498-.929-1.043-.844l-7.906 1.227c-.546.085-.929.602-.738 1.12a5 5 0 0 0 5.458 3.207zM95.7 44.937a5.002 5.002 0 0 0-6.247 1.024c-.365.414-.194 1.035.285 1.31l6.93 3.995c.48.276 1.102.113 1.278-.41a5.002 5.002 0 0 0-2.246-5.92zM103.905 24.743a5.002 5.002 0 0 0-5.53-3.083c-.543.098-.795.69-.592 1.204l2.945 7.438c.203.514.792.773 1.255.473a5.001 5.001 0 0 0 1.922-6.032zM114.151 46.087a5 5 0 0 0-.208-6.327c-.364-.416-1.001-.326-1.337.113l-4.856 6.357c-.336.439-.254 1.077.242 1.32a5.001 5.001 0 0 0 6.159-1.463zM106.009 117.009a5.002 5.002 0 0 0-.208-6.327c-.364-.416-1.002-.326-1.337.113l-4.857 6.357c-.335.439-.254 1.077.243 1.319a5.003 5.003 0 0 0 6.159-1.462zM72.891 100.892a5.003 5.003 0 0 0 2.028-5.998c-.195-.516-.823-.656-1.292-.363l-6.78 4.246c-.468.293-.616.92-.236 1.321a5.002 5.002 0 0 0 6.28.794z" fill="#BFBFBF"/><path fill-rule="evenodd" clip-rule="evenodd" d="M58.518 59.42c-4.156 4.572-8.436 4.794-10.24 4.193l.443-1.328c1.197.4 4.917.422 8.761-3.807l1.036.942z" fill="#BFBFBF"/><path d="M99.208 63.504a3.126 3.126 0 0 0-5.875 2.138l13.84 38.024a3.125 3.125 0 1 0 5.875-2.138l-13.84-38.024z" fill="#BFBFBF"/><path d="M107.934 87.362c-.603-1.66-2.415-2.523-4.046-1.929-1.631.594-2.464 2.42-1.86 4.078l5.246 14.413c.604 1.658 2.415 2.522 4.046 1.928 1.631-.593 2.464-2.419 1.86-4.078l-5.246-14.412z" fill="#959595"/><path fill-rule="evenodd" clip-rule="evenodd" d="M114.909 94.409a4.013 4.013 0 0 0-2.399 5.145l1.068 2.937a4.016 4.016 0 0 0 7.545-2.746l-1.069-2.937a4.014 4.014 0 0 0-5.145-2.4zm-8.441 7.344c-1.972-5.42.822-11.413 6.242-13.385 5.42-1.973 11.412.822 13.385 6.241l1.069 2.937c1.973 5.42-.822 11.413-6.242 13.385-5.419 1.973-11.412-.821-13.385-6.241l-1.069-2.937z" fill="#959595"/><path d="M110.48 63.504a3.125 3.125 0 1 1 5.874 2.138l-13.839 38.024a3.126 3.126 0 0 1-5.875-2.138l13.84-38.024z" fill="#D3D3D3"/><path d="M101.753 87.362c.604-1.66 2.415-2.523 4.046-1.929 1.631.594 2.464 2.42 1.86 4.078l-5.245 14.413c-.604 1.658-2.416 2.522-4.047 1.928-1.63-.593-2.463-2.419-1.86-4.078l5.246-14.412z" fill="#BFBFBF"/><path fill-rule="evenodd" clip-rule="evenodd" d="M94.779 94.409a4.014 4.014 0 0 1 2.399 5.145l-1.069 2.937a4.015 4.015 0 0 1-7.544-2.746l1.069-2.937a4.014 4.014 0 0 1 5.145-2.4zm8.44 7.344c1.973-5.42-.822-11.413-6.241-13.385-5.42-1.973-11.413.822-13.386 6.241l-1.069 2.937c-1.972 5.42.822 11.413 6.242 13.385 5.42 1.973 11.413-.821 13.385-6.241l1.069-2.937z" fill="#BFBFBF"/><path d="M52.913 48.678a3.056 3.056 0 0 1-6.095.474c-.13-1.682 2.607-5.898 2.607-5.898s3.357 3.742 3.488 5.424z" fill="#959595"/><path d="M67.899 49.19a.875.875 0 0 0-1.1-1.361c-13.71 11.086-28.826 6.424-34.647 2.722a.875.875 0 1 0-.939 1.476C37.42 55.975 53.406 60.91 67.9 49.19z" fill="#959595"/></svg>