<svg id="Layer_3" data-name="Layer 3" xmlns="http://www.w3.org/2000/svg" viewBox="0 0 135 124"><defs><style>.cls-2{fill:#efefef}.cls-3{fill:#b2b2b2}.cls-5{fill:#bfbfbf}.cls-8{fill:#fff}.cls-7{fill:#a6a6a6}</style></defs><rect x="11" y="10.95" width="113" height="113" rx="17" ry="17" fill="#e5e5e5"/><path class="cls-2" d="M82.26 22.62H60.1l7.22-13.25A17 17 0 0 1 82.26.49a11.07 11.07 0 0 1 0 22.13zm-14.19-4.73h14.19a6.34 6.34 0 0 0 0-12.67 12.27 12.27 0 0 0-10.78 6.41z"/><path class="cls-2" d="M68.87 22.62H46.72a11.07 11.07 0 0 1 0-22.13 17 17 0 0 1 14.94 8.88zM46.72 5.22a6.34 6.34 0 0 0 0 12.67h14.19l-3.41-6.26a12.27 12.27 0 0 0-10.78-6.41z"/><path class="cls-3" d="M107.25 24.06v85.44a3 3 0 0 1-1 2.26 3 3 0 0 1-2.1.83H55.72V21h48.44a3.11 3.11 0 0 1 3.09 3.09z"/><path class="cls-3" d="M107.25 24.06v85.44a3 3 0 0 1-1 2.26 3 3 0 0 1-2.1.83H55.72V21h48.44a3.11 3.11 0 0 1 3.09 3.09z"/><path d="M29.45 21h48.38v91.62H29.45a3.15 3.15 0 0 1-3.15-3.15V24.12A3.15 3.15 0 0 1 29.45 21z" fill="#d1d1d1"/><path class="cls-5" d="M77.83 20.97l25.77 21.58v46.43l-25.77 23.61V20.97z"/><rect x="100.71" y="57.38" width="5.19" height="15" rx="2.6" ry="2.6" opacity=".5" fill="#fff"/><path class="cls-7" d="M106.3 21.84l-13.14 12L77.83 21h26.33a3 3 0 0 1 2.14.84zM106.26 111.76a3 3 0 0 1-2.1.83H77.83l14.09-12.84z"/><rect class="cls-5" x="31.1" y="28.83" width="20.57" height="10.86" rx="2.37" ry="2.37" transform="rotate(-4.05 41.269 34.166)"/><rect class="cls-8" x="33.4" y="32.48" width="15.96" height="3.56" rx="1.78" ry="1.78" transform="rotate(-4.05 41.269 34.166)"/><rect class="cls-8" x="48.59" y="54.81" width="37.69" height="23.17" rx="4.03" ry="4.03" transform="rotate(-11.32 67.393 66.387)"/><path class="cls-2" d="M84.23 74.85l-6.4 1.28V52.5l1.85-.37a4 4 0 0 1 4.75 3.16l3 14.81a4 4 0 0 1-3.2 4.75z"/><path class="cls-2" d="M84.23 74.85l-6.4 1.28V52.5l1.85-.37a4 4 0 0 1 4.75 3.16l3 14.81a4 4 0 0 1-3.2 4.75z"/><path class="cls-5" d="M51.83 65.12a1.5 1.5 0 0 1-.29-3l29-5.81a1.5 1.5 0 1 1 .59 2.94l-29 5.81a1.53 1.53 0 0 1-.3.06zM52.94 70.71a1.5 1.5 0 0 1-.29-3l29-5.81a1.52 1.52 0 0 1 1.77 1.18 1.5 1.5 0 0 1-1.18 1.76l-29 5.81a1.53 1.53 0 0 1-.3.06zM54.05 76.31a1.5 1.5 0 0 1-.29-3l29-5.82a1.5 1.5 0 0 1 .59 3l-29 5.81a1.36 1.36 0 0 1-.3.01z"/><path class="cls-2" d="M55.71 112.59h-5.13V21.16a1.92 1.92 0 0 1 1.92-1.93H78A1.73 1.73 0 0 1 79.75 21h-24z"/></svg>