<svg viewBox="0 0 135 124" fill="none" xmlns="http://www.w3.org/2000/svg"><path d="M28 11h79c9.389 0 17 7.611 17 17v79c0 9.389-7.611 17-17 17H28c-9.389 0-17-7.611-17-17V28c0-9.389 7.611-17 17-17z" fill="#B2B2B2"/><path d="M68.25 82.432c.973-16.864 15.433-29.747 32.297-28.775l.71.041c16.864.972 29.747 15.432 28.775 32.297l-.233 4.034c-.972 16.864-15.432 29.747-32.296 28.775l-.71-.041c-16.864-.973-29.747-15.432-28.775-32.297l.233-4.034z" fill="#BEBEBE"/><path d="M99.284 110.859c-1.04.285-2.088.528-3.134.733-6.298 1.232-12.432 1.063-16.549.646a30.51 30.51 0 0 0 5.365 3.401c3.533.044 7.613-.192 11.779-1.008 8.056-1.577 16.616-5.361 22.017-13.666-4.47 5.977-11.573 9.818-19.478 9.894z" fill="#ABABAB"/><path d="M123.613 87.648c-.783 13.58-12.427 23.953-26.006 23.17-13.58-.783-23.953-12.426-23.17-26.006.783-13.579 12.426-23.953 26.006-23.17 13.579.783 23.953 12.427 23.17 26.006z" fill="#D4D4D4"/><path d="M95.496 95.418c-.628-.377-1.453.016-1.496.747l-.387 6.711a4.445 4.445 0 0 0 8.875.511l.387-6.71c.042-.732-.734-1.217-1.401-.914-.956.434-1.986.758-3.039.697-1.053-.06-2.038-.501-2.939-1.042z" fill="#ABABAB"/><path d="M101.957 105.254a4.444 4.444 0 0 0-8.03-.463 4.446 4.446 0 0 0 8.03.463z" fill="#BEBEBE"/><path d="M79.502 79.392c18.091 1.663 28.603-7.471 34.449-12.785a24.517 24.517 0 0 0-13.466-4.962 24.53 24.53 0 0 0-16.096 4.81 2.095 2.095 0 0 0-.25.156 42.31 42.31 0 0 0-.94.707c-2.24 1.718-4.722 3.621-9.235 2.25a14.1 14.1 0 0 0-.247-.073l-2.254-.721c-.791-.263-1.412.212-1.415 1.047-.02 4.013 2.575 7.65 6.478 8.946a9.522 9.522 0 0 0 1.68.394c.444.111.884.193 1.296.231z" fill="#ABABAB"/><path d="M99.835 81.788a8.349 8.349 0 1 1-16.67-.961 8.349 8.349 0 0 1 16.67.961z" fill="#fff"/><path d="M98.484 81.71a6.994 6.994 0 1 1-13.966-.805 6.994 6.994 0 0 1 13.966.805z" fill="#ABABAB"/><path d="M96.166 84.137a1.805 1.805 0 1 1-3.605-.208 1.805 1.805 0 0 1 3.605.208zM95.202 77.039c.512 1.642-1.074 3.598-3.543 4.367-2.469.77-4.885.062-5.397-1.581-.512-1.643 1.075-3.599 3.543-4.368 2.469-.77 4.885-.061 5.397 1.582zM115.4 82.686a8.35 8.35 0 1 1-16.67-.962 8.35 8.35 0 0 1 16.67.962z" fill="#fff"/><path d="M114.048 82.608a6.994 6.994 0 1 1-13.966-.805 6.994 6.994 0 0 1 13.966.805z" fill="#ABABAB"/><path d="M111.731 85.034a1.806 1.806 0 1 1-3.605-.208 1.806 1.806 0 0 1 3.605.208zM110.767 77.936c.512 1.643-1.074 3.598-3.543 4.368-2.469.77-4.885.061-5.397-1.582-.512-1.642 1.074-3.598 3.543-4.367 2.469-.77 4.885-.062 5.397 1.581z" fill="#fff"/><path d="M79.383 83.364l-.544 9.43 19.615 1.132c-3.07-5.957-9.12-10.183-16.295-10.597a19.767 19.767 0 0 0-2.776.035zM118.865 85.64l-.544 9.431-19.615-1.13c3.735-5.565 10.23-9.068 17.405-8.654.939.054 1.858.173 2.754.353z" fill="#D4D4D4"/><path d="M99.012 86.442c.118.007 1.062 1.717 2.02 3.508.954 1.784-.422 3.907-2.44 3.79-2.02-.116-3.142-2.383-1.99-4.045 1.158-1.67 2.292-3.26 2.41-3.253z" fill="#ACACAC"/><path d="M32.2 18.563a3.364 3.364 0 0 1 4.6 1.215c.097.166.04.38-.126.477l-.742.432c-.56.326-.28 1.187.366 1.12l1.548-.161a8.241 8.241 0 0 1 9.05 7.345.855.855 0 0 1-.763.938l-5.665.59c-.639.066-.776 1.035-.203 1.325a20.986 20.986 0 0 1 3.646 2.35c.197.158.469.181.694.068a7.968 7.968 0 0 1 9.393 1.679.826.826 0 0 1-.04 1.167l-4.066 3.804a.614.614 0 0 0-.133.71 20.856 20.856 0 0 1 1.856 6.704l1.56 14.995c.019.186.123.352.283.45l1.505.927a5.157 5.157 0 0 1 1.688 7.095.535.535 0 0 1-.735.175l-.927-.57a.603.603 0 0 0-.915.575l.857 8.244a1.963 1.963 0 0 1-1.75 2.155c-6.46.672-12.5-1.99-16.405-6.599a.69.69 0 0 0-.73-.195 3.717 3.717 0 0 1-3.939-1.192c-.211-.257-.11-.63.177-.798l1.67-.973a.618.618 0 0 0 .24-.804 18.889 18.889 0 0 1-1.792-6.305l-.43-4.138c-.005-.043-.062-.053-.081-.015a5.157 5.157 0 0 1-6.914 2.321.535.535 0 0 1-.24-.717l5.65-11.362a.637.637 0 0 0-.26-.826 8.768 8.768 0 0 1-1.535-1.148.572.572 0 0 1 .014-.837l1.656-1.55a.603.603 0 0 0 .188-.502l-1.585-15.244a.629.629 0 0 0-.433-.527 9.1 9.1 0 0 1-6.098-7.096.574.574 0 0 1 .518-.66l2.046-.213a.08.08 0 0 0 .058-.12.076.076 0 0 1 .028-.106l7.216-4.203z" fill="#ABABAB"/><path d="M31.556 19.595a5.39 5.39 0 0 1 5.215-4.025h14.704c5.954 0 10.78 4.826 10.78 10.78v7.935c0 5.954-4.826 10.78-10.78 10.78h-12.62c-7.063 0-12.218-6.677-10.43-13.51l3.131-11.96z" fill="#fff"/><path d="M48.355 2.982a.603.603 0 0 0-.788-.324l-2.242.937a6.738 6.738 0 0 0-3.62 8.813l2.726 6.528 2.798-1.168a6.738 6.738 0 0 0 3.62-8.814l-2.494-5.972zM25.031 38.758l22.937 5.476L47.79 80.9c-.029 5.851-5.494 10.154-11.188 8.808l-15.665-3.702c-5.094-1.204-8.123-6.447-6.622-11.461l10.716-35.787z" fill="#fff"/><path d="M46.154 9.525a9.096 9.096 0 0 0-7.493 10.456l15.468-2.553a8.241 8.241 0 0 0 6.79-9.473.855.855 0 0 0-.983-.704L46.154 9.525z" fill="#D4D4D4"/><path d="M44.835 21.8a5.727 5.727 0 0 1-5.727-5.727h9.97a5.189 5.189 0 0 1 5.19 5.189c0 .297-.241.538-.538.538h-8.895z" fill="#D4D4D4"/><path d="M62.476 49.079l-9.012.478.297 5.61 9.012-.478-.297-5.61z" fill="#ABABAB"/><path d="M75.565 42.835l-5.965-.149-.065 2.636a2.41 2.41 0 0 0 2.35 2.47l1.144.029a2.41 2.41 0 0 0 2.47-2.35l.066-2.636zM66.963 41.372l-5.82 1.314.581 2.572a2.41 2.41 0 0 0 2.883 1.82l1.117-.251a2.41 2.41 0 0 0 1.82-2.883l-.58-2.572z" fill="#D4D4D4"/><path d="M43.052 33.97l32.852-1.742c3.75-.199 6.562 3.38 5.483 6.976l-.797 2.655a2.41 2.41 0 0 1-2.182 1.715l-13.792.731a9.184 9.184 0 0 0-8.497 7.264c-.274 1.3.89 2.336 2.216 2.27l15.076-.751a1.035 1.035 0 0 1 1.043 1.331 5.424 5.424 0 0 1-4.908 3.858l-25.137 1.272-1.357-25.579z" fill="#fff"/><path fill-rule="evenodd" clip-rule="evenodd" d="M78.768 35.496a1.01 1.01 0 0 1-.218 1.413l-2.822 2.07a1.01 1.01 0 0 1-1.106.059l-3.026-1.76a1.01 1.01 0 1 1 1.016-1.747l2.454 1.427 2.289-1.679a1.01 1.01 0 0 1 1.413.217z" fill="#AFAFAF"/><path d="M70.71 56.11a7.458 7.458 0 0 0-7.843-7.052l-3.935.209.457 8.615a5.7 5.7 0 1 0 11.382-.603l-.062-1.169z" fill="#ABABAB"/><path d="M51.001 29.617a7.146 7.146 0 1 0 14.061 2.564 7.146 7.146 0 0 0-14.06-2.564z" fill="#D4D4D4"/><path d="M61.788 29.318a2.489 2.489 0 0 1-1.575-3.9l-.014-.003a4.6 4.6 0 1 0 3.628 3.368 2.484 2.484 0 0 1-2.038.535z" fill="#ABABAB"/><path d="M36.022 35.822a7.147 7.147 0 1 0 14.062 2.564 7.147 7.147 0 0 0-14.062-2.564z" fill="#D4D4D4"/><path d="M43.047 36.158a2.489 2.489 0 0 1-1.732-3.652 4.601 4.601 0 1 0 4.086 2.803 2.488 2.488 0 0 1-2.354.85z" fill="#ABABAB"/><path d="M51.608 39.998h-17.11v7.76h17.11v-7.76z" fill="#fff"/><path fill-rule="evenodd" clip-rule="evenodd" d="M48.035 42.693a.603.603 0 0 0-.848-.087 6.528 6.528 0 0 1-5.308 1.365 6.512 6.512 0 0 1-2.961-1.364.603.603 0 0 0-.763.933 7.717 7.717 0 0 0 3.508 1.617 7.733 7.733 0 0 0 6.286-1.616.603.603 0 0 0 .086-.848z" fill="#AFAFAF"/><path d="M28.665 13.2a3.364 3.364 0 0 0-4.6 1.215.349.349 0 0 0 .126.477l.742.432c.56.327.28 1.188-.366 1.12l-1.548-.16a8.241 8.241 0 0 0-9.049 7.344c-.049.47.292.89.762.939l5.665.589c.64.066.776 1.035.204 1.325a20.986 20.986 0 0 0-3.647 2.351.645.645 0 0 1-.694.068 7.968 7.968 0 0 0-9.392 1.678.826.826 0 0 0 .039 1.168l4.066 3.803a.614.614 0 0 1 .133.71 20.857 20.857 0 0 0-1.856 6.705L7.691 57.958a.603.603 0 0 1-.284.45l-1.505.928a5.157 5.157 0 0 0-1.688 7.094c.155.252.484.33.736.175l.926-.57a.603.603 0 0 1 .915.576l-.857 8.243a1.963 1.963 0 0 0 1.75 2.156c6.46.671 12.5-1.991 16.405-6.6a.69.69 0 0 1 .73-.195 3.717 3.717 0 0 0 3.94-1.192c.21-.257.11-.63-.178-.797l-1.67-.973a.618.618 0 0 1-.24-.805 18.89 18.89 0 0 0 1.792-6.304l.43-4.139c.005-.042.062-.053.081-.014a5.157 5.157 0 0 0 6.914 2.32.535.535 0 0 0 .24-.717l-5.65-11.362a.637.637 0 0 1 .26-.825 8.766 8.766 0 0 0 1.535-1.148.572.572 0 0 0-.014-.838l-1.656-1.549a.603.603 0 0 1-.188-.502L32 26.125a.629.629 0 0 1 .433-.526 9.1 9.1 0 0 0 6.098-7.097.574.574 0 0 0-.518-.66l-2.046-.212a.08.08 0 0 1-.058-.12.076.076 0 0 0-.027-.106L28.665 13.2z" fill="#D4D4D4"/><path fill-rule="evenodd" clip-rule="evenodd" d="M36.332 9.651l-1.657 2.183a.603.603 0 0 1-1.08-.298l-.333-3.015a6.727 6.727 0 0 0-2.274.145l-2.364.56a.603.603 0 0 0-.448.725l1.493 6.298a6.738 6.738 0 0 0 8.11 5.002l2.95-.7-1.632-6.883a6.713 6.713 0 0 0-2.765-4.017z" fill="#fff"/><path d="M114.225 25.827a7.543 7.543 0 0 0-10.187-3.166l-.268.141a2 2 0 0 1-2.701-.84l-.141-.267a7.543 7.543 0 0 0-13.353 7.022l7.163 13.62a2 2 0 0 0 2.701.84l13.621-7.163a7.543 7.543 0 0 0 3.165-10.187z" fill="#BEBEBE"/><path d="M61.697 98.282a4.95 4.95 0 0 0-6.878 1.3c-.47.688-1.41.866-2.1.396a4.95 4.95 0 1 0-5.578 8.177l7.773 5.303a2 2 0 0 0 2.78-.525l5.303-7.773a4.95 4.95 0 0 0-1.3-6.878z" fill="#E5E5E5"/><path d="M36.488 95.19a5.966 5.966 0 0 0-7.877 3.02 1.821 1.821 0 0 1-2.405.922 5.965 5.965 0 0 0-4.857 10.897l10.734 4.785a2 2 0 0 0 2.64-1.013l4.785-10.734a5.965 5.965 0 0 0-3.02-7.877z" fill="#ABABAB"/></svg>