<svg viewBox="0 0 135 124" version="1.1" xmlns="http://www.w3.org/2000/svg" xmlns:xlink="http://www.w3.org/1999/xlink"><defs><path d="M2.76 0h74.88a2.727 2.727 0 0 1 2.72 2.96l-6.7 77.062A5.456 5.456 0 0 1 68.22 85H12.097a5.456 5.456 0 0 1-5.44-4.978L.04 2.96A2.726 2.726 0 0 1 2.76 0z" id="a"/></defs><g stroke="none" stroke-width="1" fill="none" fill-rule="evenodd"><path d="M28 11h79c9.389 0 17 7.611 17 17v79c0 9.389-7.611 17-17 17H28c-9.389 0-17-7.611-17-17V28c0-9.389 7.611-17 17-17z" fill="#DFDFDF"/><path d="M18 94c8.284 0 15 6.716 15 15v15h-5c-9.389 0-17-7.611-17-17V95.73A14.935 14.935 0 0 1 18 94zm71-20c12.436 0 22.751 9.08 24.677 20.973A14.943 14.943 0 0 1 119 94c1.753 0 3.436.3 5 .854V107c0 9.389-7.611 17-17 17H64V99c0-13.807 11.193-25 25-25z" fill="#D1D1D1"/><rect fill="#A2A2A2" transform="rotate(-11 62.785 34.458)" x="23.285" y="20.958" width="79" height="27" rx="13.5"/><path d="M105.21 34.812l12.596 5.09a4 4 0 0 1 2.21 5.207l-5.278 13.063a4 4 0 0 1-7.418-.003L100 40.016a4 4 0 0 1 5.208-5.204z" fill="#A2A2A2"/><rect fill="#B2B2B2" transform="rotate(32 101.03 36.152)" x="98.53" y="30.152" width="5" height="12" rx="2.5"/><g transform="translate(18 39)"><mask id="b" fill="#fff"><use xlink:href="#a"/></mask><use fill="#BFBFBF" fill-rule="nonzero" xlink:href="#a"/><path d="M40.2 14.42c3.982 0 7.21 3.191 7.21 7.128v45.484c0 3.937-3.228 7.128-7.21 7.128-3.982 0-7.21-3.191-7.21-7.128V21.548c0-3.937 3.228-7.128 7.21-7.128zM62.649 14.42c3.53 0 6.391 2.914 6.391 6.51 0 .196-.009.393-.026.589l-4.307 48.247c-.222 2.488-2.27 4.394-4.724 4.394-2.393 0-4.333-1.976-4.333-4.413V21.548c0-3.937 3.133-7.128 6.999-7.128zM17.752 14.42c3.865 0 6.998 3.191 6.998 7.128v48.2c0 2.436-1.94 4.412-4.332 4.412-2.454 0-4.503-1.906-4.725-4.394l-4.306-48.247c-.32-3.58 2.27-6.747 5.786-7.072.192-.018.385-.027.579-.027zM-2.076 0h84.552c1.681 0 3.044 1.383 3.044 3.09 0 1.707-1.363 3.09-3.044 3.09H-2.076c-1.681 0-3.044-1.383-3.044-3.09C-5.12 1.383-3.757 0-2.076 0z" fill="#B2B2B2" fill-rule="nonzero" mask="url(#b)"/></g><path d="M25 33h40L53.284 44.716c-6.47 6.47-16.96 6.47-23.431 0A16.569 16.569 0 0 1 25 33z" fill="#A2A2A2"/><path d="M49.568 4.826c5.299-2.25 11.417.223 13.666 5.521.094.22.18.444.258.67l.024.076 18.605-7.896a5.28 5.28 0 0 1 6.923 2.797l1.032 2.43a5.28 5.28 0 0 1-2.798 6.924L16.123 45.55A5.28 5.28 0 0 1 9.2 42.754l-1.032-2.43a5.28 5.28 0 0 1 2.798-6.924l18.58-7.887a3.7 3.7 0 0 1-.037-.07c-2.609-5.132-.564-11.406 4.567-14.014.213-.109.43-.21.651-.304l14.841-6.3zm2.837 6.682l-14.841 6.3a3.162 3.162 0 0 0-1.583 4.344c.089.176.162.355.22.536l20.66-8.77a3.656 3.656 0 0 1-.231-.53 3.162 3.162 0 0 0-4.225-1.88z" fill="#BFBFBF" fill-rule="nonzero"/><g transform="rotate(48 33.048 139.032)"><path d="M5.773 4.24l.244-1.734a1.75 1.75 0 1 1 1.49 1.977l-1.734-.244zM4.826 4.098l-1.712.364a1.75 1.75 0 1 1 1.348-2.076l.364 1.712z" fill="#ECECEC"/><rect fill="#A2A2A2" x="3.207" y="2.475" width="4" height="4" rx="2"/></g><g transform="rotate(-29 69.533 -190.202)"><path d="M5.773 4.24l.244-1.734a1.75 1.75 0 1 1 1.49 1.977l-1.734-.244zM4.826 4.098l-1.712.364a1.75 1.75 0 1 1 1.348-2.076l.364 1.712z" fill="#ECECEC"/><rect fill="#A2A2A2" x="3.207" y="2.475" width="4" height="4" rx="2"/></g></g></svg>