<svg viewBox="0 0 135 124" fill="none" xmlns="http://www.w3.org/2000/svg"><g clip-path="url(#clip0)"><path fill-rule="evenodd" clip-rule="evenodd" d="M28 11h79c9.389 0 17 7.611 17 17v79c0 9.389-7.611 17-17 17H28c-9.389 0-17-7.611-17-17V28c0-9.389 7.611-17 17-17z" fill="#DFDFDF"/><path d="M94.5 30h-13C72.387 30 65 37.387 65 46.5v12C65 67.613 72.387 75 81.5 75h13c9.113 0 16.5-7.387 16.5-16.5v-12c0-9.113-7.387-16.5-16.5-16.5z" fill="#EDEDED"/><path d="M109.5 70h-12a6.5 6.5 0 1 0 0 13h12a6.5 6.5 0 1 0 0-13zM58.5 8h-13C39.701 8 35 12.701 35 18.5S39.701 29 45.5 29h13C64.299 29 69 24.299 69 18.5S64.299 8 58.5 8z" fill="#EDEDED"/><path d="M118.301 55.354l-1.067 4a2.529 2.529 0 0 1-3.86 1.444l-3.433-2.32a12.285 12.285 0 0 0-13.033-.457l-3.584 2.074a2.53 2.53 0 0 1-3.75-1.708l-.787-4.068a12.29 12.29 0 0 0-8.896-9.54l-4.003-1.069a2.529 2.529 0 0 1-1.443-3.86l2.32-3.43a12.285 12.285 0 0 0 .454-13.033L75.143 19.8a2.53 2.53 0 0 1 1.709-3.75l4.065-.785a12.282 12.282 0 0 0 9.538-8.894l1.067-4a2.529 2.529 0 0 1 3.86-1.444l3.432 2.321a12.285 12.285 0 0 0 13.034.456l3.584-2.074a2.53 2.53 0 0 1 3.75 1.709l.787 4.067a12.29 12.29 0 0 0 8.896 9.54l4.002 1.069a2.53 2.53 0 0 1 1.443 3.86l-2.319 3.43a12.286 12.286 0 0 0-.454 13.034l2.076 3.586a2.53 2.53 0 0 1-1.709 3.75l-4.065.785a12.282 12.282 0 0 0-9.538 8.894z" fill="#BFBFBF"/><path d="M111.942 50.318c10.591-3.855 16.052-15.57 12.196-26.164-3.857-10.595-15.569-16.059-26.161-12.204-10.592 3.856-16.052 15.57-12.196 26.164 3.856 10.595 15.569 16.059 26.161 12.204z" fill="#DFDFDF"/><path d="M73.65 88.185v.178c.008 1.215.162 3.814 2.995 4.02h7.549c.727 0 1.316.589 1.316 1.316 0 7.35-5.959 13.308-13.309 13.308h-58.06c-7.35 0-13.309-5.958-13.309-13.308 0-.727.59-1.317 1.316-1.317l5.649.001c1.992-.147 2.993-1.546 3.004-4.198l1.023 1.731-.299 2.466h61.199c-.137-.693-.17-1.516-.099-2.466.683-1.928 1.024-2.505 1.024-1.731z" fill="#BFBFBF"/><path fill-rule="evenodd" clip-rule="evenodd" d="M21.584 37.995L60.1 35.302c6.768-.473 12.639 4.63 13.112 11.398l.008.118.485 45.546-63.025 4.407-.488-45.579-.006-.085c-.473-6.768 4.63-12.639 11.398-13.112z" fill="#BFBFBF"/><mask id="a" mask-type="alpha" maskUnits="userSpaceOnUse" x="14" y="44" width="58" height="50"><path d="M25.676 46.213l30.491-2.133c6.366-.445 11.887 4.355 12.332 10.72l2.55 36.474-53.65 2.193-2.443-34.923c-.445-6.365 4.355-11.886 10.72-12.331z" fill="#fff"/></mask><g mask="url(#a)"><path d="M25.676 46.213l30.491-2.133c6.366-.445 11.887 4.355 12.332 10.72l2.55 36.474-53.65 2.193-2.443-34.923c-.445-6.365 4.355-11.886 10.72-12.331z" fill="#DFDFDF"/><path d="M19.964 50.497a6.07 6.07 0 0 0-12.109.847l.602 8.607a6.07 6.07 0 1 0 12.109-.846l-.602-8.608zM75.112 46.64a6.07 6.07 0 0 0-12.108.847l.601 8.608a6.07 6.07 0 1 0 12.11-.847l-.603-8.608z" fill="#BFBFBF"/></g><path fill-rule="evenodd" clip-rule="evenodd" d="M34.258 55.874a6.895 6.895 0 0 1 7.36 6.398l.292 4.184a6.896 6.896 0 1 1-13.757.962l-.293-4.184a6.896 6.896 0 0 1 6.398-7.36z" fill="#fff"/><path fill-rule="evenodd" clip-rule="evenodd" d="M36.569 61.622a3.096 3.096 0 0 1 3.304 2.872l.271 3.88a3.096 3.096 0 1 1-6.176.431l-.272-3.879a3.143 3.143 0 0 1-.007-.2 2.267 2.267 0 0 0 2.338-3.017c.174-.045.355-.074.542-.087z" fill="#A2A2A2"/><path fill-rule="evenodd" clip-rule="evenodd" d="M50.451 54.742a6.895 6.895 0 0 0-6.398 7.36l.293 4.184a6.896 6.896 0 1 0 13.758-.962l-.293-4.184a6.896 6.896 0 0 0-7.36-6.398z" fill="#fff"/><path fill-rule="evenodd" clip-rule="evenodd" d="M48.97 60.755l-.072.006a2.27 2.27 0 0 1-1.96 3.068 2.26 2.26 0 0 1-.846-.1c-.003.11-.002.22.006.33l.271 3.879a3.096 3.096 0 1 0 6.177-.432l-.271-3.879a3.096 3.096 0 0 0-3.305-2.872z" fill="#A2A2A2"/><path d="M48.337 81.325c-.59-8.43-7.9-14.785-16.33-14.196-8.43.59-14.785 7.9-14.196 16.33.59 8.43 7.901 14.785 16.33 14.195 8.43-.589 14.785-7.9 14.196-16.33z" fill="#DFDFDF"/><path d="M69.337 82.325c-.59-8.43-7.9-14.785-16.33-14.196-8.43.59-14.785 7.9-14.196 16.33.59 8.43 7.901 14.785 16.33 14.195 8.43-.589 14.785-7.9 14.196-16.33z" fill="#DFDFDF"/><path d="M61.764 53.262a2 2 0 1 0-3.99.279 2 2 0 0 0 3.99-.279zM27.797 54.691a2.5 2.5 0 1 0-4.988.349 2.5 2.5 0 0 0 4.988-.349zM24.732 60.833a1.5 1.5 0 1 0-2.993.21 1.5 1.5 0 0 0 2.993-.21z" fill="#EDEDED"/><path fill-rule="evenodd" clip-rule="evenodd" d="M45.626 75.57a3.07 3.07 0 0 0 2.238-3.721c-.41-1.645-4.36-4.793-4.36-4.793s-2.01 4.633-1.6 6.279a3.07 3.07 0 0 0 3.722 2.235z" fill="#BFBFBF"/><path d="M13.622 74.053a5.923 5.923 0 1 0-.827-11.817 5.923 5.923 0 0 0 .827 11.818zM72.417 69.942a5.923 5.923 0 1 0-.827-11.817 5.923 5.923 0 0 0 .827 11.817z" fill="#DFDFDF"/><path d="M72.555 39.574L9.832 43.96a1.901 1.901 0 0 0-1.764 2.03l.276 3.938a1.901 1.901 0 0 0 2.029 1.764l62.722-4.386a1.901 1.901 0 0 0 1.764-2.029l-.275-3.939a1.901 1.901 0 0 0-2.03-1.764z" fill="#A2A2A2"/><path d="M53.72 32.124c-.507-7.252-6.797-12.72-14.049-12.212-7.251.507-12.719 6.797-12.212 14.048.507 7.252 6.797 12.72 14.049 12.212 7.251-.507 12.719-6.796 12.212-14.048z" fill="#BFBFBF"/><path d="M26.139 24.341l13.506 12.798c.71.687.546 1.867-.324 2.33-4.179 2.226-9.4 1.502-12.898-1.884-3.498-3.386-4.403-8.592-2.33-12.856.432-.888 1.336-1.075 2.046-.388z" fill="#BFBFBF"/><path fill-rule="evenodd" clip-rule="evenodd" d="M18.895 87.785l51.067-.02a3 3 0 0 1 3 2.894l.003.102a3 3 0 0 1-2.894 3.103l-50.969 1.78a3.965 3.965 0 0 1-4.1-3.824L15 91.785a3.898 3.898 0 0 1 3.895-4z" fill="#DFDFDF"/><mask id="b" mask-type="alpha" maskUnits="userSpaceOnUse" x="19" y="93" width="51" height="15"><path d="M20.636 94.964l47.461-1.863a1.609 1.609 0 0 1 1.658 1.398l.014.178V106.2c0 .889-.72 1.609-1.609 1.609H22.207a1.609 1.609 0 0 1-1.59-1.36l-1.507-9.63a1.609 1.609 0 0 1 1.526-1.856z" fill="#fff"/></mask><g mask="url(#b)"><path d="M20.636 94.964l47.461-1.863a1.609 1.609 0 0 1 1.658 1.398l.014.178V106.2c0 .889-.72 1.609-1.609 1.609H22.207a1.609 1.609 0 0 1-1.59-1.36l-1.507-9.63a1.609 1.609 0 0 1 1.526-1.856z" fill="#B2B2B2"/><path d="M28.807 91.775a1 1 0 0 0-1.995.14l.837 11.97a1 1 0 1 0 1.995-.139l-.837-11.971zM39.807 91.775a1 1 0 0 0-1.995.14l.837 11.97a1 1 0 1 0 1.995-.139l-.837-11.971zM50.807 91.775a1 1 0 0 0-1.995.14l.837 11.97a1 1 0 1 0 1.995-.139l-.837-11.971zM61.807 91.775a1 1 0 0 0-1.995.14l.837 11.97a1 1 0 1 0 1.995-.139l-.837-11.971z" fill="#A2A2A2"/></g><path d="M36.729 48.863a2.52 2.52 0 0 1 3.578 3.549c-1.556 1.568-4.061 2.354-7.542 2.597a2.52 2.52 0 0 1-.352-5.028c2.266-.158 3.687-.578 4.242-1.05l.074-.068zM47.5 46.729l-.082-.057a2.52 2.52 0 1 0-3.05 4.012c1.759 1.337 4.35 1.766 7.83 1.523a2.52 2.52 0 0 0-.351-5.028c-2.266.158-3.732-.06-4.347-.45z" fill="#BFBFBF"/><mask id="c" mask-type="alpha" maskUnits="userSpaceOnUse" x="25" y="75" width="25" height="15"><path d="M48.067 81.41c-2.549-3.053-6.11-4.912-10.052-5.53-3.471-.545-7.098-.088-10.036 1.254a4.809 4.809 0 0 0-2.371 6.39 4.845 4.845 0 0 0 6.128 2.497l.28-.118c1.18-.539 2.887-.754 4.518-.498 1.698.266 3.107.992 4.067 2.112l.046.055a4.84 4.84 0 0 0 6.805.628 4.812 4.812 0 0 0 .615-6.79z" fill="#fff"/></mask><g mask="url(#c)"><path d="M48.067 81.41c-2.549-3.053-6.11-4.912-10.052-5.53-3.471-.545-7.098-.088-10.036 1.254a4.809 4.809 0 0 0-2.371 6.39 4.845 4.845 0 0 0 6.128 2.497l.28-.118c1.18-.539 2.887-.754 4.518-.498 1.698.266 3.107.992 4.067 2.112l.046.055a4.84 4.84 0 0 0 6.805.628 4.812 4.812 0 0 0 .615-6.79z" fill="#A2A2A2"/><path d="M44.36 102.942a8.994 8.994 0 1 0-1.255-17.944 8.994 8.994 0 0 0 1.255 17.944z" fill="#BFBFBF"/><path d="M49.671 72.956L28.722 74.42a1 1 0 0 0-.928 1.067l.28 3.99a1 1 0 0 0 1.067.928L50.09 78.94a1 1 0 0 0 .927-1.067l-.279-3.99a1 1 0 0 0-1.067-.928z" fill="#fff"/></g><path fill-rule="evenodd" clip-rule="evenodd" d="M79.339 105.035a25.28 25.28 0 0 1 24.326 18.398l.103.376-78.316.001C17.272 122.581 11 115.523 11 106.999l-.001-1.965 68.34.001z" fill="#B2B2B2"/></g><defs><clipPath id="clip0"><path fill="#fff" d="M0 0h135v124H0z"/></clipPath></defs></svg>