<svg viewBox="0 0 135 124" fill="none" xmlns="http://www.w3.org/2000/svg"><path d="M11 28c0-9.389 7.611-17 17-17h79c9.389 0 17 7.611 17 17v79c0 9.389-7.611 17-17 17H28c-9.389 0-17-7.611-17-17V28z" fill="#1CB0F6"/><path fill-rule="evenodd" clip-rule="evenodd" d="M41.814 11.563c5.571-.7 10.655 3.26 11.357 8.84l.19 1.517-20.173 2.536-.19-1.516c-.703-5.581 3.245-10.677 8.816-11.377z" fill="#FF9600"/><path d="M32.29 22.833c5.947-.748 10.173-6.1 9.437-11.954-.736-5.854-6.155-9.993-12.102-9.246-5.95.748-10.176 6.1-9.44 11.954.736 5.854 6.155 9.994 12.105 9.246z" fill="#FF9600"/><path d="M62.7 18.836L24.404 23.65c-7.176.902-12.262 7.45-11.36 14.627L16.25 63.76c.902 7.176 7.45 12.262 14.627 11.36l38.295-4.815c7.176-.903 12.262-7.451 11.36-14.627l-3.205-25.484c-.902-7.176-7.45-12.262-14.626-11.36z" fill="#FFC6B7"/><path d="M14.27 48.023l-1.226-9.745c-.722-5.742 2.39-11.083 7.34-13.45l1.808 14.384a7.754 7.754 0 0 1-6.726 8.66l-1.197.151zM78.55 39.933a7.754 7.754 0 0 1-8.317-6.762l-1.73-13.759c4.614 1.553 8.175 5.63 8.823 10.783l1.224 9.738z" fill="#FFB67A"/><path d="M13.096 54.576a5.772 5.772 0 1 0-1.44-11.455 5.772 5.772 0 0 0 1.44 11.455zM80.948 45.883a5.772 5.772 0 1 0-1.44-11.455 5.772 5.772 0 0 0 1.44 11.455z" fill="#FFC6B7"/><path fill-rule="evenodd" clip-rule="evenodd" d="M53.681 25.635a8.124 8.124 0 0 0-7.047 9.075l.616 4.903a8.124 8.124 0 1 0 16.122-2.027l-.617-4.904a8.124 8.124 0 0 0-9.074-7.047z" fill="#fff"/><path d="M52.57 30.638a3.647 3.647 0 0 0-3.164 4.074l.571 4.545a3.647 3.647 0 1 0 7.238-.91l-.572-4.546a3.647 3.647 0 0 0-4.073-3.163z" fill="#3D3D3D"/><path d="M47.652 29.645a8.087 8.087 0 0 0-1.073 3.639 2.93 2.93 0 0 0 5.585-1.554 2.93 2.93 0 0 0-4.512-2.085z" fill="#fff"/><path fill-rule="evenodd" clip-rule="evenodd" d="M34.704 28.022a8.124 8.124 0 0 1 9.075 7.047l.616 4.903A8.124 8.124 0 0 1 28.273 42l-.616-4.903a8.124 8.124 0 0 1 7.047-9.074z" fill="#fff"/><path fill-rule="evenodd" clip-rule="evenodd" d="M37.532 32.528a3.647 3.647 0 0 1 4.074 3.164l.571 4.546a3.647 3.647 0 0 1-7.238.91l-.571-4.546a3.647 3.647 0 0 1 3.163-4.074z" fill="#3D3D3D"/><path d="M34.591 36.996a2.93 2.93 0 1 1-.73-5.812 2.93 2.93 0 0 1 .73 5.812z" fill="#fff"/><path d="M35.067 60.633c6.122-.77 10.462-6.357 9.692-12.48-.77-6.122-6.358-10.461-12.48-9.691-6.123.77-10.462 6.357-9.692 12.48.77 6.122 6.357 10.461 12.48 9.691zM60.722 57.408c6.123-.77 10.462-6.358 9.692-12.48-.77-6.123-6.357-10.462-12.48-9.692-6.122.77-10.461 6.357-9.691 12.48.77 6.122 6.357 10.462 12.48 9.692z" fill="#FFC6B7"/><path fill-rule="evenodd" clip-rule="evenodd" d="M46.768 48.9a3.191 3.191 0 0 0 2.764-3.567c-.22-1.751-3.903-5.494-3.903-5.494s-2.642 4.538-2.422 6.289a3.191 3.191 0 0 0 3.561 2.772z" fill="#EE9583"/><path fill-rule="evenodd" clip-rule="evenodd" d="M36.18 49.127a4.234 4.234 0 0 1 5.89 1.075c.86 1.244 1.673 1.842 2.364 2.129.676.279 1.575.403 2.873.12a4.234 4.234 0 0 1 1.8 8.274c-2.684.584-5.38.477-7.91-.57-2.515-1.041-4.522-2.866-6.092-5.138a4.234 4.234 0 0 1 1.076-5.89z" fill="#fff"/><path fill-rule="evenodd" clip-rule="evenodd" d="M75.025 55.366l43.548 5.743c5.732.756 9.765 6.015 9.009 11.747l-2.775 21.042c-.756 5.731-6.015 9.764-11.746 9.009l-43.548-5.744c-5.732-.756-9.765-6.014-9.01-11.746l2.776-21.042c.756-5.731 6.015-9.765 11.746-9.009z" fill="#A56644"/><path d="M85.659 72.434l18.219 2.403c8.583 1.131 14.623 9.006 13.491 17.589l-.955 7.238a8.374 8.374 0 0 1-9.397 7.207l-32.695-4.312a8.374 8.374 0 0 1-7.207-9.397l.955-7.238c1.131-8.582 9.006-14.622 17.589-13.49z" fill="#DB8D63"/><path d="M85.659 72.434l18.219 2.403c8.583 1.131 14.623 9.006 13.491 17.589l-.955 7.238a8.374 8.374 0 0 1-9.397 7.207l-32.695-4.312a8.374 8.374 0 0 1-7.207-9.397l.955-7.238c1.131-8.582 9.006-14.622 17.589-13.49z" fill="#DB8D63"/><path d="M102.231 74.765L87.269 72.79c-2.972-.391-5.711 1.8-6.12 4.895l-1.984 15.05c-.408 3.094 1.67 5.92 4.64 6.313l14.963 1.973c2.971.392 5.71-1.8 6.118-4.895l1.985-15.049c.408-3.095-1.669-5.921-4.64-6.313z" fill="#744329"/><path d="M95.49 74.129l-1.547-.204a7.327 7.327 0 0 0-8.222 6.306l-.795 6.027a7.327 7.327 0 0 0 6.306 8.223l1.548.204a7.327 7.327 0 0 0 8.222-6.306l.795-6.028a7.327 7.327 0 0 0-6.306-8.222z" fill="#E8808D"/><path d="M96.06 72.751a1.165 1.165 0 0 0-2.31-.304l-2.08 15.775a1.165 1.165 0 0 0 2.31.304l2.08-15.775z" fill="#D46875"/><path d="M103.633 74.804l-17.729-2.338a5.652 5.652 0 0 0-6.343 4.865l-.006.045a5.652 5.652 0 0 0 4.865 6.343l17.729 2.338a5.652 5.652 0 0 0 6.343-4.865l.006-.045a5.653 5.653 0 0 0-4.865-6.343z" fill="#F8AC82"/><path fill-rule="evenodd" clip-rule="evenodd" d="M89.917 62.5a2.387 2.387 0 0 1 2.055 2.677l-.543 4.114a2.387 2.387 0 0 1-4.733-.624l.543-4.114a2.387 2.387 0 0 1 2.678-2.054zM102.341 64.137a2.387 2.387 0 0 1 2.054 2.679l-.542 4.113a2.388 2.388 0 0 1-4.733-.624l.542-4.113a2.387 2.387 0 0 1 2.679-2.055z" fill="#744329"/><path fill-rule="evenodd" clip-rule="evenodd" d="M93.653 70.628l2.972.392a3.33 3.33 0 1 1-.871 6.604l-2.971-.392a3.33 3.33 0 0 1 .87-6.604z" fill="#5A5A5A"/><path d="M82.323 87.804l-.107-.014a2.378 2.378 0 0 0-2.669 2.047l-.367 2.786a2.378 2.378 0 0 0 2.047 2.669l.107.014a2.378 2.378 0 0 0 2.668-2.047l.368-2.786a2.378 2.378 0 0 0-2.047-2.669zM103.222 90.56l-.107-.014a2.378 2.378 0 0 0-2.669 2.047l-.368 2.787a2.379 2.379 0 0 0 2.047 2.668l.107.014a2.378 2.378 0 0 0 2.669-2.046l.368-2.787a2.38 2.38 0 0 0-2.047-2.669z" fill="#fff"/><path fill-rule="evenodd" clip-rule="evenodd" d="M64.304 51.227l10.679 1.408a4.162 4.162 0 0 1 3.582 4.67l-1.086 8.23a9.547 9.547 0 0 1-10.713 8.216l-5.34-.704a4.162 4.162 0 0 1-3.582-4.67l1.79-13.568a4.162 4.162 0 0 1 4.67-3.582zM130.001 59.89l-10.679-1.407a4.161 4.161 0 0 0-4.67 3.582l-1.086 8.229a9.548 9.548 0 0 0 8.218 10.713l5.339.704a4.161 4.161 0 0 0 4.67-3.582l1.79-13.568a4.163 4.163 0 0 0-3.582-4.67z" fill="#744329"/></svg>