<svg viewBox="0 0 135 124" version="1.1" xmlns="http://www.w3.org/2000/svg" xmlns:xlink="http://www.w3.org/1999/xlink"><defs><path d="M6.66 0h59.233a6.66 6.66 0 0 1 6.66 6.66v61.479c0 6.305-5.111 11.416-11.416 11.416h-49.72C5.11 79.555 0 74.444 0 68.139V6.659A6.66 6.66 0 0 1 6.66 0z" id="a"/><path d="M11.588.061h38.264c6.305 0 11.416 5.111 11.416 11.417V68.2c0 6.305-5.11 11.416-11.416 11.416H11.588C5.282 79.616.17 74.505.17 68.2V11.478C.171 5.172 5.282.06 11.588.06z" id="c"/></defs><g stroke="none" stroke-width="1" fill="none" fill-rule="evenodd"><rect fill="#FFB100" x="11" y="11" width="113" height="113" rx="17"/><path d="M107 124H28c-8.365 0-15.319-6.041-16.736-13.999h112.472C122.319 117.959 115.365 124 107 124z" fill="#E27800"/><rect fill="#D06900" x="28" y="110" width="83" height="6" rx="3"/><g transform="translate(19 4)"><path d="M16.846 44.022h-2.672C6.366 44.022.036 50.352.036 58.16v16.768c0 7.808 6.33 14.138 14.138 14.138h2.672c7.808 0 14.138-6.33 14.138-14.138V58.16c0-7.808-6.33-14.138-14.138-14.138zm-2.672 7.928h2.672a6.21 6.21 0 0 1 6.21 6.21v16.768a6.21 6.21 0 0 1-6.21 6.21h-2.672a6.21 6.21 0 0 1-6.21-6.21V58.16a6.21 6.21 0 0 1 6.21-6.21z" fill="#FFE346" fill-rule="nonzero"/><g transform="translate(15.105 26.491)"><mask id="b" fill="#fff"><use xlink:href="#a"/></mask><use fill="#FFE346" fill-rule="nonzero" xlink:href="#a"/><g mask="url(#b)"><g transform="translate(5.557 -10.605)"><mask id="d" fill="#fff"><use xlink:href="#c"/></mask><use stroke="none" fill="#F89700" fill-rule="nonzero" xlink:href="#c"/><path d="M-.816 17.518h67.142a6.342 6.342 0 0 1 6.342 6.342v5.874a6.342 6.342 0 0 1-6.342 6.342H-.816a6.342 6.342 0 0 1-6.342-6.342V23.86a6.342 6.342 0 0 1 6.342-6.342z" stroke="none" fill="#FFB100" fill-rule="nonzero" mask="url(#d)"/></g></g><rect fill="#FFE6C6" fill-rule="nonzero" opacity=".32" mask="url(#b)" x="49.641" y=".958" width="10.501" height="49.842" rx="5.251"/></g><rect fill="#FFF1A2" fill-rule="nonzero" x="34.633" y="22.943" width="15.539" height="36.423" rx="7.769"/><rect fill="#FFF1A2" fill-rule="nonzero" x="27.515" y="22.943" width="7.336" height="24.921" rx="3.668"/><rect fill="#FFF1A2" fill-rule="nonzero" x="9.377" y="11.665" width="83.054" height="25.879" rx="12.94"/><rect fill="#FFF1A2" fill-rule="nonzero" x="24.195" y="0" width="49.185" height="18.456" rx="9.228"/><ellipse fill="#FFB100" opacity=".723" cx="50.624" cy="72.642" rx="3.969" ry="3.977"/><ellipse fill="#FFB100" opacity=".72" cx="35.806" cy="83.246" rx="6.615" ry="6.628"/></g><rect fill="#FFF1A2" x="112" y="37" width="18" height="18" rx="9"/><rect fill="#FFF1A2" x="112" y="59" width="8" height="8" rx="4"/><rect fill="#FFF1A2" x="20" y="5" width="12" height="12" rx="6"/></g></svg>