<svg viewBox="0 0 135 124" fill="none" xmlns="http://www.w3.org/2000/svg"><g clip-path="url(#clip0_127_2207)"><path d="M11.84 28c0-9.389 7.61-17 17-17h78.999c9.389 0 17 7.611 17 17v79c0 9.389-7.611 17-17 17h-79c-9.388 0-17-7.611-17-17V28z" fill="#FFCA00"/><path d="M123.258 20.93L21.738 122.45a16.937 16.937 0 0 0 7.08 1.56h41.32l54.68-54.68V28.01a16.938 16.938 0 0 0-1.56-7.08zm-72.12 48.14l58-58c-.43 0-.87-.07-1.31-.07h-48.59l-33.08 33.09c-6.904 6.904-6.904 18.096 0 25 6.903 6.904 18.096 6.904 25 0l-.02-.02z" fill="#FFD900"/><path d="M5.522 24.157h.002a7.36 7.36 0 0 1 6.108-8.288l34.227-5.563a7.36 7.36 0 0 1 8.418 5.927h.002l5.438 33.464a2.547 2.547 0 0 0 2.923 2.105L67.576 51a1.061 1.061 0 0 1 1.217.877c.92 5.659-2.922 10.992-8.58 11.911l-45.26 7.356c-5.658.92-10.991-2.923-11.911-8.581a1.061 1.061 0 0 1 .877-1.218l4.936-.802a2.547 2.547 0 0 0 2.105-2.923L5.522 24.157z" fill="#FFB100"/><path d="M9.344 24.512l41.423-6.732 6.717 41.335-41.423 6.732-6.717-41.335z" fill="#FFBB31"/><path d="M10.388 43.412a4.631 4.631 0 1 0-1.486-9.142 4.631 4.631 0 0 0 1.486 9.142zM55.761 36.039a4.631 4.631 0 1 0-1.485-9.143 4.631 4.631 0 0 0 1.485 9.143z" fill="#FFBB31"/><path d="M14.15 66.914a1.273 1.273 0 0 1 1.052-1.462l42.973-6.983a1.273 1.273 0 0 1 1.46 1.053l.693 4.258a1.273 1.273 0 0 1-1.053 1.461l-42.973 6.984a1.273 1.273 0 0 1-1.46-1.053l-.693-4.258z" fill="#E27800"/><path d="M7.28 34.86a4.63 4.63 0 0 1 6.09 1.221 5.161 5.161 0 0 0 1.182-4.199l-1.04-6.4-7.556 1.227L7.28 34.86zM50.618 30.035A4.631 4.631 0 0 1 56 26.939l-1.324-8.147-7.556 1.228 1.04 6.4a5.162 5.162 0 0 0 2.458 3.615zM31.88 22.167c5.603-.91 9.407-6.19 8.496-11.794-.91-5.603-6.19-9.406-11.794-8.496a10.272 10.272 0 0 0-7.851 6.219l-2.26-1.8c-.623-.495-1.548-.303-1.799.451a8.928 8.928 0 0 0-.336 4.257 8.961 8.961 0 0 0 5.43 6.852 10.28 10.28 0 0 0 10.114 4.311z" fill="#FFB100"/><path d="M3.954 23.04a1.273 1.273 0 0 1 1.052-1.46l48.947-7.955a1.273 1.273 0 0 1 1.46 1.053l.564 3.468a1.273 1.273 0 0 1-1.052 1.461L5.978 27.561a1.273 1.273 0 0 1-1.46-1.052l-.564-3.468z" fill="#E27800"/><path d="M34.54 63.021a.917.917 0 0 1 .767-.836l2.763-.45a.917.917 0 0 1 .992.551l3.046 7.263a.917.917 0 0 1-.699 1.26l-6.397 1.04a.917.917 0 0 1-1.061-.974l.588-7.854z" fill="#FFF1A2"/><path d="M32.394 35.536c.109-.018 1.322 1.356 2.565 2.803 1.237 1.44.409 3.665-1.465 3.97-1.873.304-3.363-1.545-2.646-3.302.721-1.766 1.437-3.453 1.546-3.47z" fill="#F08904"/><path d="M43.982 28.153a5.798 5.798 0 0 0-11.446 1.86l.566 3.481a5.798 5.798 0 0 0 11.446-1.86l-.566-3.48z" fill="#FFF1A2"/><path fill-rule="evenodd" clip-rule="evenodd" d="M41.174 18.328a2.282 2.282 0 0 0-2.704-1.762c-2.195.462-4.36 1.554-5.552 2.339a2.282 2.282 0 1 0 2.509 3.813c.845-.556 2.482-1.37 3.984-1.686a2.282 2.282 0 0 0 1.763-2.704z" fill="#FFB100"/><path fill-rule="evenodd" clip-rule="evenodd" d="M42.213 50.804a1.59 1.59 0 0 0-2.105.788 2.9 2.9 0 0 1-5.28-2.402 7.39 7.39 0 0 1 9.787-3.666 2.9 2.9 0 0 1-2.402 5.28z" fill="#E27800"/><path d="M40.108 51.592a1.59 1.59 0 0 1 2.105-.788 2.9 2.9 0 0 0 3.377-4.56 10.365 10.365 0 0 0-8.76 6.976 2.902 2.902 0 0 0 3.278-1.628z" fill="#FF9600"/><path d="M44.015 28.356a2.492 2.492 0 0 1-4.878.624 1.056 1.056 0 0 0-.38-.548 1.057 1.057 0 0 0-.628-.219 2.49 2.49 0 0 1-.702-4.867 5.798 5.798 0 0 1 6.555 4.807l.033.203z" fill="#E27800"/><path d="M30.51 30.343a5.798 5.798 0 1 0-11.446 1.86l.566 3.48a5.798 5.798 0 1 0 11.446-1.86l-.566-3.48z" fill="#FFF1A2"/><path d="M30.543 30.545a2.491 2.491 0 0 1-4.878.624 1.057 1.057 0 0 0-.38-.547 1.057 1.057 0 0 0-.628-.22 2.49 2.49 0 0 1-.702-4.867 5.798 5.798 0 0 1 6.555 4.808l.033.202z" fill="#E27800"/><path fill-rule="evenodd" clip-rule="evenodd" d="M19.132 24.96a2.282 2.282 0 0 1 2.107-2.445c2.236-.166 4.62.28 5.983.703a2.282 2.282 0 1 1-1.349 4.36c-.966-.299-2.765-.625-4.296-.511a2.282 2.282 0 0 1-2.445-2.107z" fill="#FFB100"/><path d="M87.76 30.905l32.023 8.492-5.196 19.593-32.023-8.492 5.196-19.593z" fill="#E27800"/><path d="M91.909 47.772c-5.076 2.79-11.452.937-14.242-4.139l-2.42-4.402c-2.79-5.076-.937-11.452 4.139-14.242l4.923-2.706c5.075-2.79 11.451-.937 14.241 4.139l2.42 4.402c2.79 5.076.937 11.452-4.139 14.242l-4.922 2.706zM110.997 52.678c3.027 4.938 9.483 6.488 14.421 3.462l4.284-2.625c4.938-3.026 6.488-9.482 3.462-14.42l-2.935-4.79c-3.026-4.938-9.483-6.488-14.421-3.462l-4.283 2.625c-4.939 3.026-6.489 9.482-3.463 14.42l2.935 4.79z" fill="#E27800"/><path d="M93.469 23.71c1.484-5.598 7.226-8.933 12.824-7.448l7.326 1.943c5.598 1.484 8.933 7.226 7.448 12.824l-1.607 6.062c-1.485 5.598-7.226 8.933-12.825 7.448l-7.325-1.943c-5.599-1.484-8.933-7.226-7.449-12.824l1.608-6.062z" fill="#E27800"/><path d="M113.349 56.155a8.034 8.034 0 0 1 5.706 9.824l-5.148 19.412c-1.337 5.038-6.505 8.04-11.543 6.704l-22.518-5.972a9.439 9.439 0 0 1-6.704-11.543l5.148-19.412a8.033 8.033 0 0 1 9.823-5.706l25.236 6.693z" fill="#EB8502"/><path d="M94.475 47.88a8.125 8.125 0 0 1 10.392-4.905l-.774 2.157a8.125 8.125 0 0 1-10.392 4.904l.774-2.157z" fill="#FFBB31"/><path d="M90.024 41.319a8.125 8.125 0 0 0 6.596 9.409l.396-2.257a8.125 8.125 0 0 0-6.596-9.409l-.396 2.257z" fill="#FFBB31"/><path d="M78.34 44.793l19.123 5.071-.616 2.322-19.758 6.82 1.252-14.213z" fill="#FFBB31"/><path d="M123.958 56.89l-29.763-7.892-.616 2.321 24.424 18.536 5.955-12.965z" fill="#FFBB31"/><path d="M80.606 64.768a4.79 4.79 0 1 1-9.26-2.455 4.79 4.79 0 0 1 9.26 2.455zM121.285 75.354a4.79 4.79 0 1 1-9.259-2.456 4.79 4.79 0 1 1 9.259 2.456z" fill="#EB8502"/><path d="M88.094 72.293a1.756 1.756 0 0 0 3.393.9c.249-.937-.8-3.542-.871-3.56-.071-.02-2.274 1.723-2.522 2.66z" fill="#D16F00"/><path d="M86.539 72.383a1.807 1.807 0 0 1 2.21-1.284l1.553.412a1.807 1.807 0 1 1-.926 3.494l-1.553-.412a1.807 1.807 0 0 1-1.284-2.21z" fill="#D16F00"/><path fill-rule="evenodd" clip-rule="evenodd" d="M92.147 67.432c.38-.092.762.14.855.52.17.696.687 1.764 1.678 2.59.969.808 2.424 1.413 4.55 1.17a.708.708 0 0 1 .16 1.407c-2.504.286-4.346-.43-5.617-1.49-1.248-1.04-1.913-2.385-2.146-3.342a.708.708 0 0 1 .52-.855zM90.368 66.96a.708.708 0 0 0-1 .029c-.492.52-1.471 1.191-2.741 1.418-1.242.221-2.806.026-4.532-1.239a.708.708 0 1 0-.837 1.142c2.034 1.49 3.989 1.78 5.617 1.49 1.601-.285 2.845-1.123 3.521-1.839a.708.708 0 0 0-.028-1z" fill="#D16F00"/><path d="M98.393 76.33c-3.918-2.476-6.762 1.822-9.272 1.42-4.255-.68-5.112 4.602-1.216 6.226 10.002 4.17 14.406-5.17 10.488-7.646z" fill="#D16F00"/><path d="M98.202 76.275a3.253 3.253 0 0 1-4.771 2.113 3.246 3.246 0 0 1-2.688.582 3.24 3.24 0 0 1-1.91-1.257c.096.01.192.022.29.038.958.153 1.963-.377 3.059-.955 1.733-.913 3.69-1.945 6.032-.576a2.734 2.734 0 0 1-.012.055z" fill="#FFF1A2"/><path d="M98.54 82.44a6.336 6.336 0 0 0-7.851 2.393c3.706.715 6.39-.577 7.852-2.392z" fill="#E27800"/><path fill-rule="evenodd" clip-rule="evenodd" d="M83.472 58.771c2.916-1.682 5.871-.775 7.035-.082a.88.88 0 1 1-.9 1.512c-.802-.478-3.056-1.175-5.255.094a.88.88 0 1 1-.88-1.524zM100.868 65.662c-1.698-2.906-4.715-3.582-6.07-3.557a.88.88 0 0 0 .034 1.76c.932-.018 3.236.493 4.517 2.685a.88.88 0 1 0 1.519-.888z" fill="#E27800"/><path d="M42.082 74.254l2.773.57a8.252 8.252 0 0 1 6.553 8.846l-.009.098-12.056-1.12a2.578 2.578 0 0 1-2.329-2.805l.183-1.97a4.08 4.08 0 0 1 4.885-3.619zM62.878 76.185a4.08 4.08 0 0 1 4.135 4.456l-.183 1.97a2.578 2.578 0 0 1-2.805 2.329l-12.057-1.12.01-.097a8.252 8.252 0 0 1 8.07-7.488l2.83-.05z" fill="#FFF1A2"/><path d="M49.513 79.016l5.509.512a1.953 1.953 0 0 1 1.764 2.125l-.361 3.889a1.953 1.953 0 0 1-2.125 1.764l-5.51-.511a1.953 1.953 0 0 1-1.764-2.126l.361-3.888a1.953 1.953 0 0 1 2.126-1.765z" fill="#FFD900"/><path d="M35.232 88.478l31.76 2.948a2.604 2.604 0 0 1 2.352 2.833l-2.166 23.334a2.604 2.604 0 0 1-2.833 2.352l-31.76-2.948a2.604 2.604 0 0 1-2.352-2.833l2.166-23.334a2.604 2.604 0 0 1 2.833-2.352z" fill="#FFB100"/><path d="M31.857 96.663l.542-5.834c.032-.343.13-.665.279-.954l36.568 3.394c.094.312.13.646.099.99l-.542 5.834-36.946-3.43z" fill="#FF9600"/><path d="M43.604 118.02l2.527-27.223c.044-.472.211-.903.467-1.264l9.353.868c.185.402.27.856.226 1.329l-2.527 27.222-10.046-.932z" fill="#FFF1A2"/><path d="M46.1 91.12l10.047.933-.631 6.806-10.047-.932.632-6.806z" fill="#FFD900"/><path d="M33.271 81.431l37.27 3.46a1.953 1.953 0 0 1 1.764 2.125l-.722 7.778a1.953 1.953 0 0 1-2.125 1.764l-37.27-3.46a1.953 1.953 0 0 1-1.764-2.125l.722-7.778a1.953 1.953 0 0 1 2.125-1.764z" fill="#FFB100"/><path d="M44.827 94.272l1.084-11.667 11.99 1.113-1.083 11.667-11.99-1.113z" fill="#FFF1A2"/></g><defs><clipPath id="clip0_127_2207"><path fill="#fff" d="M0 0h135v124H0z"/></clipPath></defs></svg>