<svg viewBox="0 0 135 124" version="1.1" xmlns="http://www.w3.org/2000/svg" xmlns:xlink="http://www.w3.org/1999/xlink"><defs><path d="M10.584 0h16.374a2.185 2.185 0 0 1 1.93 3.209L25.955 8.74a18.655 18.655 0 0 0 0 17.48 18.655 18.655 0 0 1 0 17.48 18.655 18.655 0 0 0 0 17.48l2.933 5.531a2.185 2.185 0 0 1-1.93 3.209H10.584a2.185 2.185 0 0 1-1.93-1.161l-4.02-7.579a18.655 18.655 0 0 1 0-17.48 18.655 18.655 0 0 0 0-17.48 18.655 18.655 0 0 1 0-17.48l4.02-7.579A2.185 2.185 0 0 1 10.584 0z" id="a"/><path d="M10.584 0h16.374a2.185 2.185 0 0 1 1.93 3.209L25.955 8.74a18.655 18.655 0 0 0 0 17.48 18.655 18.655 0 0 1 0 17.48 18.655 18.655 0 0 0 0 17.48l2.933 5.531a2.185 2.185 0 0 1-1.93 3.209H10.584a2.185 2.185 0 0 1-1.93-1.161l-4.02-7.579a18.655 18.655 0 0 1 0-17.48 18.655 18.655 0 0 0 0-17.48 18.655 18.655 0 0 1 0-17.48l4.02-7.579A2.185 2.185 0 0 1 10.584 0z" id="c"/></defs><g stroke="none" stroke-width="1" fill="none" fill-rule="evenodd"><g transform="translate(11 11)"><rect fill="#E5E5E5" x="0" y="0" width="113" height="113" rx="17"/><rect fill="#FFF" x="33" y="51" width="67" height="51" rx="25.5"/><rect fill="#FFF" x="42" y="85" width="34" height="23" rx="11.5"/><rect fill="#FFF" x="64" y="45" width="24" height="23" rx="11.5"/><rect fill="#D1D1D1" x="59" y="61" width="25" height="24" rx="12"/><rect fill="#E5E5E5" x="71" y="66" width="7" height="7" rx="3.5"/></g><g transform="rotate(-60 44.84 -7.792)"><rect fill="#D1D1D1" x="18.355" y="43.75" width="6.25" height="56.25" rx="3.125"/><rect fill="#B2B2B2" x="15.855" y="81.25" width="11.25" height="25" rx="5"/><path d="M36.973 0a5 5 0 0 1 4.998 5.13l-.797 30.447c-.178 6.774-5.72 12.173-12.496 12.173H14.282c-6.776 0-12.318-5.4-12.496-12.173L.99 5.131A5 5 0 0 1 5.857 0h.065L36.972 0zM21.48 8.5c-1.035 0-1.875.84-1.875 1.875v22.5a1.875 1.875 0 0 0 3.75 0v-22.5c0-1.036-.84-1.875-1.875-1.875zm8.75 0c-1.035 0-1.875.84-1.875 1.875v22.5a1.875 1.875 0 0 0 3.75 0v-22.5c0-1.036-.84-1.875-1.875-1.875zm-17.5 0c-1.035 0-1.875.84-1.875 1.875v22.5a1.875 1.875 0 0 0 3.75 0v-22.5c0-1.036-.84-1.875-1.875-1.875z" fill="#B2B2B2"/></g><g transform="scale(-1 1) rotate(31 -86.724 -39.556)"><mask id="b" fill="#fff"><use xlink:href="#a"/></mask><use fill="#BFBFBF" xlink:href="#a"/><path d="M17.14 0h16.373a2.185 2.185 0 0 1 1.93 3.209L32.51 8.74a18.655 18.655 0 0 0 0 17.48 18.655 18.655 0 0 1 0 17.48 18.655 18.655 0 0 0 0 17.48l2.933 5.531a2.185 2.185 0 0 1-1.93 3.209H17.14a2.185 2.185 0 0 1-1.93-1.161l-4.02-7.579a18.655 18.655 0 0 1 0-17.48 18.655 18.655 0 0 0 0-17.48 18.655 18.655 0 0 1 0-17.48l4.02-7.579A2.185 2.185 0 0 1 17.139 0z" fill="#D1D1D1" mask="url(#b)"/><path d="M21.51 0h16.373a2.185 2.185 0 0 1 1.93 3.209L36.88 8.74a18.655 18.655 0 0 0 0 17.48 18.655 18.655 0 0 1 0 17.48 18.655 18.655 0 0 0 0 17.48l2.933 5.531a2.185 2.185 0 0 1-1.93 3.209H21.51a2.185 2.185 0 0 1-1.93-1.161l-4.02-7.579a18.655 18.655 0 0 1 0-17.48 18.655 18.655 0 0 0 0-17.48 18.655 18.655 0 0 1 0-17.48l4.02-7.579A2.185 2.185 0 0 1 21.509 0z" fill="#BFBFBF" mask="url(#b)"/><path d="M26.53-.1h17.504a2.185 2.185 0 0 1 1.906 3.252l-3.073 5.487a17.889 17.889 0 0 0 0 17.48 17.889 17.889 0 0 1 0 17.48 17.889 17.889 0 0 0 0 17.48l3.073 5.488a2.185 2.185 0 0 1-1.906 3.252H26.53c-.791 0-1.52-.427-1.907-1.117l-4.268-7.623a17.889 17.889 0 0 1 0-17.48 17.889 17.889 0 0 0 0-17.48 17.889 17.889 0 0 1 0-17.48l4.268-7.622A2.185 2.185 0 0 1 26.53-.101z" fill="#ADADAD" mask="url(#b)"/></g><g transform="rotate(-59 88.246 52.825)"><mask id="d" fill="#fff"><use xlink:href="#c"/></mask><use fill="#BFBFBF" xlink:href="#c"/><path d="M17.14 0h16.373a2.185 2.185 0 0 1 1.93 3.209L32.51 8.74a18.655 18.655 0 0 0 0 17.48 18.655 18.655 0 0 1 0 17.48 18.655 18.655 0 0 0 0 17.48l2.933 5.531a2.185 2.185 0 0 1-1.93 3.209H17.14a2.185 2.185 0 0 1-1.93-1.161l-4.02-7.579a18.655 18.655 0 0 1 0-17.48 18.655 18.655 0 0 0 0-17.48 18.655 18.655 0 0 1 0-17.48l4.02-7.579A2.185 2.185 0 0 1 17.139 0z" fill="#D1D1D1" mask="url(#d)"/><path d="M21.51 0h16.373a2.185 2.185 0 0 1 1.93 3.209L36.88 8.74a18.655 18.655 0 0 0 0 17.48 18.655 18.655 0 0 1 0 17.48 18.655 18.655 0 0 0 0 17.48l2.933 5.531a2.185 2.185 0 0 1-1.93 3.209H21.51a2.185 2.185 0 0 1-1.93-1.161l-4.02-7.579a18.655 18.655 0 0 1 0-17.48 18.655 18.655 0 0 0 0-17.48 18.655 18.655 0 0 1 0-17.48l4.02-7.579A2.185 2.185 0 0 1 21.509 0z" fill="#BFBFBF" mask="url(#d)"/><path d="M26.99.019h17.504a2.185 2.185 0 0 1 1.907 3.252l-3.073 5.488a17.889 17.889 0 0 0 0 17.48 17.889 17.889 0 0 1 0 17.48 17.889 17.889 0 0 0 0 17.48l3.073 5.487a2.185 2.185 0 0 1-1.907 3.253H26.99c-.79 0-1.52-.428-1.906-1.118l-4.268-7.622a17.889 17.889 0 0 1 0-17.48 17.889 17.889 0 0 0 0-17.48 17.889 17.889 0 0 1 0-17.48l4.268-7.623A2.185 2.185 0 0 1 26.99.019z" fill="#ADADAD" mask="url(#d)"/></g><path d="M109.872 20.17l1.138 6.098 3.518 1.172a1 1 0 0 1 0 1.898l-3.518 1.172-1.135 6.62a1 1 0 0 1-1.972 0l-1.135-6.62-3.518-1.172a1 1 0 0 1 0-1.898l3.518-1.172 1.138-6.098a1 1 0 0 1 1.966 0zM23.608 25.17l.574 3.684 2.135.595a.85.85 0 0 1 0 1.638l-2.135.595-.572 4.077a.85.85 0 0 1-1.684 0l-.572-4.077-2.136-.595a.85.85 0 0 1 0-1.638l2.136-.595.574-3.685a.85.85 0 0 1 1.68 0z" fill="#FFF"/><rect fill="#FFF" transform="rotate(45 96.5 35.5)" x="95" y="34" width="3" height="3" rx="1"/></g></svg>