<svg viewBox="0 0 136 124" fill="none" xmlns="http://www.w3.org/2000/svg"><rect x="12.219" y="11" width="113" height="113" rx="17" fill="#FEC701"/><path fill-rule="evenodd" clip-rule="evenodd" d="M65.814 25.326c8.201 8.2 8.201 21.497 0 29.698l-53.406 53.407a17.078 17.078 0 0 1-.349-3.442V49.382l24.057-24.056c8.2-8.201 21.497-8.201 29.698 0zm59.245 1.056v35.354l-8.995 8.997c-4.882 4.882-12.796 4.882-17.678 0-4.882-4.882-4.882-12.796 0-17.678l26.673-26.673z" fill="#FFD900"/><path d="M19.755 27.55c0-6.577 5.331-11.908 11.907-11.908h37.423c6.577 0 11.908 5.331 11.908 11.908v38.38c.01 1.19.182 3.662 2.897 3.862h6.033c.704 0 1.276.572 1.276 1.276 0 7.124-5.776 12.9-12.9 12.9H22.023c-7.125 0-12.9-5.776-12.9-12.9 0-.704.571-1.275 1.276-1.275h6.459c2.777-.206 2.892-2.79 2.897-3.945V27.55z" fill="#FFB100"/><path fill-rule="evenodd" clip-rule="evenodd" d="M23.865 35.063c0-6.185 5.014-11.199 11.199-11.199H64.69c6.185 0 11.199 5.014 11.199 11.199v48.48H23.865v-48.48z" fill="#FFD900"/><path fill-rule="evenodd" clip-rule="evenodd" d="M36.025 37.853a6.684 6.684 0 0 1 13.368 0v4.065a6.684 6.684 0 1 1-13.368 0v-4.065z" fill="#FFF1A2"/><path d="M41.909 38.367a2.197 2.197 0 0 0 2.116-2.789 3 3 0 0 1 3.53 2.954v3.769a3 3 0 1 1-6 0v-3.769c0-.065.002-.129.006-.192.113.018.23.027.348.027z" fill="#E47900"/><path d="M52.837 34.212a6.653 6.653 0 0 0-1.077 3.64v4.066a6.684 6.684 0 0 0 13.367 0v-4.065c0-1.37-.412-2.644-1.12-3.705a14.267 14.267 0 0 1-5.317 1.021h-.698c-1.817 0-3.555-.338-5.155-.956z" fill="#FFF1A2"/><path d="M53.62 38.213a2.197 2.197 0 0 0 2.914-2.68l.07-.002a3 3 0 0 1 3 3.001v3.769a3 3 0 0 1-6 0v-3.769c0-.108.005-.214.016-.32z" fill="#E47900"/><rect x="21.457" y="77.022" width="57.127" height="8.505" rx="1.559" fill="#F68B00"/><path fill-rule="evenodd" clip-rule="evenodd" d="M47.755 77.606c.122-.509.578-.868 1.102-.868h3.459c.524 0 .98.36 1.102.868l2.289 9.498c.172.713-.369 1.4-1.103 1.4H46.57a1.134 1.134 0 0 1-1.103-1.4l2.289-9.498z" fill="#FFF1A2"/><path fill-rule="evenodd" clip-rule="evenodd" d="M50.532 52.34a2.976 2.976 0 0 0 2.976-2.975c0-1.643-2.977-5.53-2.977-5.53s-2.976 3.887-2.976 5.53a2.976 2.976 0 0 0 2.977 2.975zM58.972 55.598a2.893 2.893 0 0 0-3.88.287 4.568 4.568 0 0 1-5.274.98l-.106-.051a3.055 3.055 0 0 0-3.933 1.19l-.769 1.286a.837.837 0 1 1-1.437-.86l.768-1.285a4.73 4.73 0 0 1 6.09-1.844l.106.05a2.893 2.893 0 0 0 3.34-.62 4.568 4.568 0 0 1 6.127-.453l1.215.95a.838.838 0 0 1-1.032 1.32l-1.215-.95z" fill="#FFB100"/><path d="M29.188 25.528a11.192 11.192 0 0 0-5.323 9.535v10.97a5.883 5.883 0 0 0 5.386-5.862V26.394c0-.294-.021-.583-.063-.866zM71.092 25.873a11.186 11.186 0 0 1 4.797 9.19v10.895a5.885 5.885 0 0 1-4.82-5.787V26.394c0-.175.008-.35.023-.52z" fill="#FFB100"/><rect x="18.059" y="21.312" width="64.629" height="7.513" rx="1.843" fill="#F68B00"/><path d="M38.854 20.14a10.905 10.905 0 0 1-2.486-2.056c-3.153-3.51-3.675-8.605-1.382-12.588.477-.829 1.364-.948 2.004-.236l2.502 2.726a12.75 12.75 0 0 1 10.881-6.094c7.046 0 12.758 5.712 12.758 12.758 0 7.046-5.712 12.758-12.758 12.758-5.08 0-9.467-2.97-11.52-7.267z" fill="#FFB100"/><path d="M21.526 53.284a5.741 5.741 0 1 0 0-11.482 5.741 5.741 0 0 0 0 11.482zM78.653 53.284a5.741 5.741 0 1 0 0-11.483 5.741 5.741 0 0 0 0 11.483z" fill="#FFD900"/><path d="M108.138 113.238l-26.924-6.82a2.033 2.033 0 0 1-1.5-2.337l8.792-47.9 37.137 9.407-15.074 46.309a2.032 2.032 0 0 1-2.431 1.341z" fill="#FFF1A2"/><path d="M90.915 50.016l36.606 9.273a4.105 4.105 0 0 1-2.016 7.958l-36.606-9.273a4.105 4.105 0 0 1 2.016-7.958z" fill="#E47900"/><path d="M125.918 62.27L90.903 53.4l2.352-7.679a3.649 3.649 0 0 1 4.386-2.468l27.208 6.902a3.648 3.648 0 0 1 2.677 4.27l-1.608 7.845z" fill="#E47900"/><path d="M80.997 90.066l4.595-22.38a1.947 1.947 0 0 1 2.313-1.494l.069.016 33.758 8.552a1.947 1.947 0 0 1 1.434 2.254l-.033.146-6.687 21.89a1.825 1.825 0 0 1-2.193 1.236l-31.917-8.085a1.824 1.824 0 0 1-1.339-2.135z" fill="#F68B00"/><path d="M99.899 91.436a8.21 8.21 0 1 0 4.031-15.918A8.21 8.21 0 0 0 99.9 91.436z" fill="#FFF1A2"/></svg>