<svg viewBox="0 0 136 125" fill="none" xmlns="http://www.w3.org/2000/svg"><g clip-path="url(#clip0_302_3148)"><path d="M107.405 11.443h-79c-9.389 0-17 7.612-17 17v79c0 9.389 7.611 17 17 17h79c9.389 0 17-7.611 17-17v-79c0-9.389-7.611-17-17-17z" fill="#6F4EA1"/><path d="M112.754 8.645c-2.662-4.148-7.634-6.522-12.795-5.63-6.88 1.19-11.492 7.73-10.302 14.61.05.292.11.581.18.866-3.833 1.873-6.138 6.11-5.375 10.527a9.824 9.824 0 0 0 1.31 3.477c1.215 1.977 2.592 5.333 4.879 4.937l38.982-6.74c1.702-.293 1.771-3.04 2.34-4.67.547-1.566.715-3.289.412-5.04-.936-5.413-6.021-9.069-11.425-8.267l-.001-.003c-3.882.671-6.075-.449-8.202-4.08l-.003.013z" fill="#3D3D3D"/><path d="M93.538 25.138l.996 5.762a4.843 4.843 0 0 1-5.515 5.612c.085-1.072.25-2.127.49-3.158a.278.278 0 0 0-.006-.009 3.447 3.447 0 1 0-.335 6.344c.051.72.139 1.446.264 2.173l1.515 8.761a6.62 6.62 0 0 0 7.651 5.396l29.334-5.072a6.62 6.62 0 0 0 5.396-7.65l-1.515-8.762a21.668 21.668 0 0 0-.474-2.111 3.448 3.448 0 1 0-2.613-5.86l-.004.01c.573.891 1.082 1.83 1.522 2.811a4.842 4.842 0 0 1-7.078-3.434l-1.007-5.824a2.557 2.557 0 0 1-.014-.086 21.427 21.427 0 0 0-15.186-3.033 21.43 21.43 0 0 0-13.421 8.13z" fill="#DA8E74"/><path d="M102.119 24.424a4.865 4.865 0 0 0-3.965 5.622l.25 1.442c3.476-1.285 6.149-1.35 9.788-.477a3.244 3.244 0 0 0-.021-.137l-.43-2.485a4.865 4.865 0 0 0-5.622-3.965zM113.659 22.429a4.864 4.864 0 0 0-3.965 5.622l.429 2.486c.013.073.027.145.043.216 3.159-2.09 5.69-2.964 9.358-2.951l-.243-1.408a4.865 4.865 0 0 0-5.622-3.965z" fill="#fff"/><path d="M103.521 30.43l-.03-.173a2.072 2.072 0 0 0-4.084.706l.03.172c1.43-.447 2.744-.674 4.084-.704zM112.51 26.467a2.073 2.073 0 0 0-1.689 2.395l.123.71c.035.204.099.395.186.57 1.308-.79 2.534-1.363 3.817-1.744l-.042-.242a2.072 2.072 0 0 0-2.395-1.689z" fill="#3D3D3D"/><path d="M95.453 35.118a2.11 2.11 0 0 1 1.719-2.437l3.233-.56a2.108 2.108 0 1 1 .718 4.157l-3.233.56a2.109 2.109 0 0 1-2.437-1.72z" fill="#E64340"/><path fill-rule="evenodd" clip-rule="evenodd" d="M94.392 43.568a6.153 6.153 0 0 1 3.646-7.901l7.618-2.808a6.13 6.13 0 0 1 4.105-.054 6.125 6.125 0 0 1 3.849 1.423l5.66 4.71a6.154 6.154 0 0 1-7.872 9.46l-1.155-.961c-2.32-1.77-2.937-1.925-5.566-1.102l-2.384.879a6.153 6.153 0 0 1-7.901-3.646z" fill="#3D3D3D"/><path fill-rule="evenodd" clip-rule="evenodd" d="M110.207 51.08a.62.62 0 0 1-.381.79c-3.196 1.117-6.205-.299-7.33-1.15a.619.619 0 1 1 .747-.988c.935.707 3.511 1.899 6.174.968a.62.62 0 0 1 .79.38z" fill="#A56644"/><path fill-rule="evenodd" clip-rule="evenodd" d="M117.31 19.848c-1.715.21-2.775-.015-4.433-.9a2.308 2.308 0 1 0-2.171 4.074c2.388 1.273 4.396 1.747 7.167 1.407a2.307 2.307 0 1 0-.563-4.581zM97.095 19.87c1.703-.295 2.652-.819 3.982-2.146a2.308 2.308 0 0 1 3.26 3.268c-1.917 1.911-3.701 2.948-6.451 3.426a2.308 2.308 0 0 1-.79-4.547z" fill="#3D3D3D"/><path d="M87.059 33.331c-.221-1.28 1.149-6.373 1.504-6.434.356-.062 3.355 4.276 3.576 5.556.222 1.28-.737 2.515-2.14 2.757-1.403.243-2.72-.598-2.94-1.879z" fill="#A3FFFF"/><path d="M115.932 32.529a2.11 2.11 0 0 1 1.719-2.438l3.233-.559a2.11 2.11 0 0 1 .719 4.157l-3.233.559a2.11 2.11 0 0 1-2.438-1.719z" fill="#E64340"/><path d="M109.051 29.59a3.077 3.077 0 1 0 1.049 6.064 3.077 3.077 0 0 0-1.049-6.065z" fill="#DA8E74"/><path d="M126.325 42.225c-.174-1.01.906-5.024 1.186-5.073.281-.048 2.645 3.371 2.82 4.38.174 1.01-.581 1.983-1.687 2.174-1.106.191-2.144-.472-2.319-1.481z" fill="#A3FFFF"/><path d="M13.768 12.2a6.243 6.243 0 0 1 7.287-4.813l28.879 5.576a6.243 6.243 0 0 1 4.97 7.18h.001l-5.451 28.234a2.16 2.16 0 0 0 1.711 2.53l4.165.805a.9.9 0 0 1 .713 1.054 8.805 8.805 0 0 1-10.315 6.976L7.542 52.37A8.805 8.805 0 0 1 .566 42.055a.9.9 0 0 1 1.055-.713l4.164.804a2.16 2.16 0 0 0 2.53-1.712L13.769 12.2z" fill="#FFB100"/><path d="M16.706 13.6l34.95 6.748-6.733 34.875-34.95-6.748L16.705 13.6z" fill="#FFC6B7"/><path d="M12.013 28.954a3.928 3.928 0 1 0 1.49-7.714 3.928 3.928 0 0 0-1.49 7.714zM50.296 36.346a3.928 3.928 0 1 0 1.49-7.714 3.928 3.928 0 0 0-1.49 7.714z" fill="#FFC6B7"/><path d="M8.138 48.766a1.08 1.08 0 0 1 1.265-.856l36.258 7c.586.114.969.68.856 1.266l-.694 3.593a1.08 1.08 0 0 1-1.265.856L8.3 53.624a1.08 1.08 0 0 1-.856-1.265l.694-3.593z" fill="#FF4B4B"/><path d="M12.038 21.236a3.928 3.928 0 0 1 4.492 2.753A4.378 4.378 0 0 0 18.7 20.99l1.043-5.4-6.376-1.231-1.328 6.877zM47.956 30.062a3.928 3.928 0 0 1 5.19-.892l1.327-6.874-6.375-1.231-1.043 5.4a4.378 4.378 0 0 0 .9 3.597z" fill="#FFB100"/><path d="M12.845 10.853a1.08 1.08 0 0 1 1.265-.856l41.298 7.974c.585.113.968.68.855 1.265l-.565 2.926a1.08 1.08 0 0 1-1.265.856l-41.297-7.974a1.08 1.08 0 0 1-.856-1.265l.565-2.926z" fill="#FF4B4B"/><path d="M35.336 18.32a8.718 8.718 0 1 0-4.764-14.463l-1.274-2.093c-.35-.577-1.143-.695-1.564-.167a7.573 7.573 0 0 0-1.512 3.29 7.6 7.6 0 0 0 2.32 7.044 8.719 8.719 0 0 0 6.794 6.389z" fill="#FFB100"/><path d="M25.511 51.627a.778.778 0 0 1 .856-.442l2.331.45c.354.068.614.37.63.729l.302 6.674a.778.778 0 0 1-.925.798l-5.398-1.042a.778.778 0 0 1-.56-1.085l2.764-6.082z" fill="#EBE3E3"/><path fill-rule="evenodd" clip-rule="evenodd" d="M46.02 47.976a.62.62 0 0 1-.234.844c-2.946 1.668-6.16.811-7.419.173a.62.62 0 1 1 .56-1.105c1.046.53 3.793 1.244 6.248-.146a.62.62 0 0 1 .845.234zM28.232 33.325a.62.62 0 0 1-.208.85c-3.086 1.875-6.23 1.29-7.745.537a.62.62 0 0 1 .551-1.11c1.217.605 3.9 1.125 6.55-.485a.62.62 0 0 1 .852.208z" fill="#FAB99C"/><path d="M32.145 27.933a6.146 6.146 0 1 1-12.069-2.33 6.146 6.146 0 0 1 12.07 2.33z" fill="#fff"/><path d="M31.98 27.9a6.146 6.146 0 1 0 12.068 2.33A6.146 6.146 0 0 0 31.98 27.9z" fill="#fff"/><path d="M29.715 29.89a1.58 1.58 0 1 1-3.102-.599 1.58 1.58 0 0 1 3.102.6zM35.997 30.834a1.58 1.58 0 1 0 3.102.6 1.58 1.58 0 0 0-3.102-.6z" fill="#3D3D3D"/><path fill-rule="evenodd" clip-rule="evenodd" d="M40.3 46.518a3.452 3.452 0 0 0-.236.25 7.2 7.2 0 0 1-11.034-9.252c1.371-1.635 3.865-3.936 7.154-5.142 1.735-.637 3.959-1.06 6.418-.627 2.548.45 4.806 1.729 6.621 3.63A7.2 7.2 0 0 1 40.3 46.517zm-3.196-2.232c.64-.762 1.707-1.652 2.708-2.02.457-.167.765-.176.958-.142.152.027.433.11.832.529a3.337 3.337 0 1 0 4.827-4.609c-1.297-1.357-2.83-2.197-4.499-2.492-1.627-.287-3.148-.016-4.416.45-2.45.898-4.42 2.68-5.523 3.996a3.337 3.337 0 0 0 5.113 4.288z" fill="#FFC6B7"/><path d="M18.224 26.016a1.351 1.351 0 1 1-2.654-.512 1.351 1.351 0 0 1 2.654.512zM46.382 23.208a1.351 1.351 0 1 1-2.654-.513 1.351 1.351 0 0 1 2.654.513zM15.898 28.943l1.245 1.92c1.055 1.627-.359 3.725-2.264 3.357-1.904-.368-2.436-2.841-.85-3.959l1.87-1.318z" fill="#BBF2FF"/><path d="M31.837 29.115c.092.018.657 1.466 1.223 2.982.565 1.507-.745 3.038-2.326 2.733-1.58-.306-2.227-2.214-1.142-3.403 1.09-1.195 2.153-2.33 2.245-2.312z" fill="#F3A577"/><path d="M40.436 35.327l1.827-1.954-2.35-.454-4.877 1.365.32 2.434 5.08-1.391z" fill="#FFC6B7"/><path d="M46.532 40.439a4.374 4.374 0 1 1-8.589-1.659 4.374 4.374 0 0 1 8.589 1.659z" fill="#A41414"/><path d="M37.883 40.029l2.778-.733a1.912 1.912 0 0 0 1.39-1.486l.085-.444.725.702a1.912 1.912 0 0 0 1.783.483l1.711-.419a4.374 4.374 0 1 0-8.472 1.897z" fill="#fff"/><path d="M39.185 42.743a5.351 5.351 0 0 1 7.197-1.732 4.375 4.375 0 0 1-7.197 1.732z" fill="#E64340"/><path fill-rule="evenodd" clip-rule="evenodd" d="M64.69 111.177h11.428a3.217 3.217 0 0 1 3.217 3.217v3.162a3.217 3.217 0 0 1-3.217 3.217H64.69a3.217 3.217 0 0 1-3.217-3.217v-3.162a3.217 3.217 0 0 1 3.216-3.217z" fill="#B6CDD2"/><path fill-rule="evenodd" clip-rule="evenodd" d="M58.084 79.903h24.639c5.626 0 10.187 4.56 10.187 10.186v9.005c0 10.599-8.593 19.191-19.192 19.191h-6.63c-10.598 0-19.19-8.592-19.19-19.19v-9.006c0-5.626 4.56-10.186 10.186-10.186z" fill="#D2E4E8"/><path d="M82.458 87.626H58.35a7.553 7.553 0 0 0-7.553 7.554 4.532 4.532 0 0 0 4.532 4.532H85.48a4.532 4.532 0 0 0 4.532-4.532 7.553 7.553 0 0 0-7.554-7.554z" fill="#FF9600"/><path opacity=".536" d="M76.454 91.18h-2.666c-1.307 0-2.365.864-2.365 1.93 0 1.065 1.058 1.928 2.365 1.928h2.666c1.307 0 2.365-.863 2.365-1.929 0-1.065-1.058-1.929-2.365-1.929zM72.756 97.61H70.09c-1.306 0-2.365.864-2.365 1.93h7.397c0-1.066-1.059-1.93-2.365-1.93zM60.921 93.11h-2.667c-1.306 0-2.365.863-2.365 1.928 0 1.066 1.06 1.93 2.365 1.93h2.667c1.306 0 2.365-.864 2.365-1.93 0-1.065-1.059-1.929-2.365-1.929z" fill="#F17E00"/><path fill-rule="evenodd" clip-rule="evenodd" d="M94.188 73.035c1.04.6 1.397 1.931.796 2.972l-.01.018-11.539 19.542-3.495-.008 11.328-21.675a2.106 2.106 0 0 1 2.92-.849z" fill="#D8D8D8"/><path d="M27.965 81.502c0-1.07.867-1.938 1.938-1.938h4.89a1.938 1.938 0 0 1 0 3.876h-4.89a1.938 1.938 0 0 1-1.938-1.938z" fill="#4D9200"/><path d="M39.227 84.593a3 3 0 0 0-3-3h-7.984a3 3 0 0 0-3 3v16.603c0 .352-.086.699-.25 1.011l-3.002 5.695c-1.277 2.424.068 5.402 2.73 6.046a4.202 4.202 0 0 0 3.978-1.13l7.638-7.723a10 10 0 0 0 2.89-7.032v-13.47z" fill="#E64340"/><path fill-rule="evenodd" clip-rule="evenodd" d="M35.769 85.011a1.5 1.5 0 0 1 1.5 1.5v5.815a1.5 1.5 0 0 1-3 0v-5.814a1.5 1.5 0 0 1 1.5-1.5z" fill="#FF9393"/><path fill-rule="evenodd" clip-rule="evenodd" d="M26.308 68.718a1.5 1.5 0 0 1 2.122 0l4.032 4.033a4.5 4.5 0 0 1 1.318 3.182v3.819a1.5 1.5 0 1 1-3 0v-3.82a1.5 1.5 0 0 0-.44-1.06l-4.032-4.032a1.5 1.5 0 0 1 0-2.122z" fill="#4D9200"/><path d="M101.039 91.626a4 4 0 0 1 4-4h8.383a4 4 0 0 1 4 4v18.425a4 4 0 0 1-4 4h-8.383c-2.21 0-4-1.79-4-4V91.626z" fill="#E64340"/><path d="M105.081 81.644h8.299v14.522h-8.299V81.644z" fill="#E64340"/><path d="M102.931 76.814a1 1 0 0 1 1-1h10.479a1 1 0 0 1 1 1v3.83a1 1 0 0 1-1 1h-10.479a1 1 0 0 1-1-1v-3.83z" fill="#4D9200"/><path d="M107.242 66.275a1 1 0 0 1 .993-.884h1.99a1 1 0 0 1 .993.884l1.188 10.127a1 1 0 0 1-.993 1.116h-4.366a1 1 0 0 1-.993-1.116l1.188-10.127z" fill="#4D9200"/><path d="M109.47 81.644h2.682v5.983h-2.682v-5.983zM112.727 93.566a1.342 1.342 0 0 1 2.683 0v14.974a1.342 1.342 0 0 1-2.683 0V93.566z" fill="#FF9393"/><path d="M59.059 67.721c1.351-7.199 4.23-15.576 7.967-23.783.723-1.588 2.973-1.49 3.596.14l4.973 13.014 2.974-6.08c.762-1.558 2.944-1.448 3.458.21 1.942 6.258 4.007 13.124 4.007 19.734 0 7.555-6.125 13.68-13.68 13.68s-13.68-6.125-13.68-13.68c0-.467-.012-.874.073-1.422.064-.617.169-1.222.312-1.813z" fill="#FF9514"/><path d="M65.793 71.267c.667-3.552 2.087-7.686 3.932-11.736.357-.783 1.467-.735 1.774.07l2.454 6.421 1.468-3c.376-.768 1.453-.714 1.706.103.958 3.089 1.977 6.477 1.977 9.738a6.75 6.75 0 0 1-13.5 0c0-.23-.006-.43.036-.701.031-.305.083-.603.153-.895zM64.143 27.488a4.485 4.485 0 0 1 0-3.91l3.31-6.834a1.121 1.121 0 0 1 2.018 0l3.31 6.834a4.485 4.485 0 0 1 0 3.91l-3.31 6.834a1.121 1.121 0 0 1-2.018 0l-3.31-6.834zM74.964 41.896a2.303 2.303 0 0 1 0-2.008l1.7-3.509a.576.576 0 0 1 1.036 0l1.7 3.51a2.303 2.303 0 0 1 0 2.007l-1.7 3.51a.576.576 0 0 1-1.037 0l-1.7-3.51z" fill="#FFC800"/></g><defs><clipPath id="clip0_302_3148"><path fill="#fff" transform="translate(.405 .443)" d="M0 0h135v124H0z"/></clipPath></defs></svg>