<svg viewBox="0 0 135 124" fill="none" xmlns="http://www.w3.org/2000/svg"><g clip-path="url(#clip0)"><path d="M10.976 27.965c0-9.389 7.61-17 17-17h79c9.388 0 17 7.611 17 17v79c0 9.389-7.612 17-17 17h-79c-9.39 0-17-7.611-17-17v-79z" fill="#FFCA00"/><path d="M122.278 20.93L20.758 122.45a16.937 16.937 0 0 0 7.08 1.56h41.32l54.68-54.68V28.01a16.938 16.938 0 0 0-1.56-7.08zm-72.12 48.14l58-58c-.43 0-.87-.07-1.31-.07h-48.59l-33.08 33.09c-6.904 6.904-6.904 18.096 0 25 6.903 6.904 18.096 6.904 25 0l-.02-.02z" fill="#FFD900"/><path fill-rule="evenodd" clip-rule="evenodd" d="M105.034 46.22l-2.156 2.128a1.85 1.85 0 0 1-2.97-.52l-1.306-2.737a8.99 8.99 0 0 0-8.054-5.119l-3.03-.02a1.85 1.85 0 0 1-1.733-2.468l1.01-2.858a8.994 8.994 0 0 0-2.076-9.317l-2.13-2.158a1.85 1.85 0 0 1 .52-2.97l2.736-1.305a8.99 8.99 0 0 0 5.117-8.055l.02-3.032a1.85 1.85 0 0 1 2.468-1.733l2.856 1.012a8.989 8.989 0 0 0 9.315-2.077l2.156-2.129a1.85 1.85 0 0 1 2.97.52l1.306 2.737a8.99 8.99 0 0 0 8.054 5.119l3.031.02a1.85 1.85 0 0 1 1.732 2.468l-1.011 2.858a8.994 8.994 0 0 0 2.077 9.317l2.129 2.158a1.85 1.85 0 0 1-.52 2.97l-2.735 1.305a8.988 8.988 0 0 0-5.117 8.055l-.02 3.032a1.85 1.85 0 0 1-2.468 1.733l-2.856-1.011a8.989 8.989 0 0 0-9.315 2.076z" fill="#FFB100"/><path d="M102.889 40.684c8.112 1.494 15.899-3.873 17.393-11.988 1.494-8.114-3.871-15.903-11.982-17.396-8.112-1.494-15.9 3.873-17.394 11.988-1.494 8.114 3.871 15.902 11.983 17.396z" fill="#FFD900"/><path d="M46.28 15.563c1.022 9.423-5.789 17.892-15.213 18.913-9.424 1.022-17.892-5.789-18.914-15.213C11.131 9.839 17.943 1.37 27.367.349 36.79-.673 45.259 6.139 46.28 15.562z" fill="#F68B00"/><path d="M69.77 27.478c.816 7.527-4.624 14.29-12.151 15.106-7.527.816-14.29-4.624-15.107-12.15-.816-7.528 4.624-14.291 12.151-15.107 7.527-.816 14.29 4.624 15.107 12.15z" fill="#F68B00"/><path d="M54.993 15.29c-5.318.577-8.194-1.13-10.765-6.232l-.82 2.78 1.25 11.523 11.08-1.201-.745-6.87zM30.73 31.375c.796 7.343-4.512 13.941-11.855 14.738-7.344.796-13.942-4.511-14.738-11.855C3.34 26.915 8.648 20.316 15.99 19.52c7.344-.796 13.942 4.511 14.739 11.855z" fill="#F68B00"/><path d="M9.63 51.823c-1.74-16.033 9.849-30.44 25.882-32.178 16.033-1.738 30.44 9.85 32.178 25.883l1.47 13.546a7.438 7.438 0 0 1-6.593 8.195l-43.273 4.692a7.437 7.437 0 0 1-8.196-6.592L9.63 51.823z" fill="#FFB100"/><path d="M22.762 52.93a1.674 1.674 0 0 1 2.044-1.193l19.66 5.172a1.674 1.674 0 0 1 1.193 2.044l-.05.19c-1.663 6.322-8.138 10.1-14.46 8.436-6.323-1.663-10.1-8.138-8.437-14.46l.05-.19z" fill="#FF9600"/><path d="M37.702 67.428c-2.056.647-4.314.74-6.553.15a11.81 11.81 0 0 1-7.597-6.193 11.793 11.793 0 0 1 8.434.517 11.789 11.789 0 0 1 5.716 5.526z" fill="#FFCA00"/><path d="M71.97 37.441a4.681 4.681 0 1 1-9.309 1.01 4.681 4.681 0 0 1 9.308-1.01zM12.8 43.856a4.68 4.68 0 1 1-9.306 1.01 4.68 4.68 0 0 1 9.307-1.01z" fill="#FFB100"/><path d="M18.924 46.477a7.613 7.613 0 0 1 9.579-4.914l12.77 4.111a7.613 7.613 0 1 1-4.665 14.493l-12.77-4.111a7.613 7.613 0 0 1-4.915-9.58z" fill="#F68B00"/><path d="M32.24 56.755a7.613 7.613 0 0 0 10.41 2.747l11.57-6.74a7.613 7.613 0 0 0-7.663-13.156l-11.57 6.74a7.613 7.613 0 0 0-2.747 10.41zM55.83 25.057a29.188 29.188 0 0 1 10.175 13.358 6.576 6.576 0 0 1-9.298-5.261l-.865-7.978a6.967 6.967 0 0 1-.012-.12zM9.749 44.515a29.19 29.19 0 0 1 7.075-15.23l.015.12.865 7.978a6.576 6.576 0 0 1-7.955 7.132z" fill="#F68B00"/><path fill-rule="evenodd" clip-rule="evenodd" d="M30.031 28.292c-1.627.264-2.512.734-3.821 2.012a2.855 2.855 0 0 1-3.988-4.087c2.042-1.993 3.966-3.086 6.893-3.561a2.855 2.855 0 0 1 .916 5.636zM43.026 26.883c1.646-.09 2.61.178 4.164 1.146a2.855 2.855 0 0 0 3.019-4.847c-2.422-1.508-4.535-2.164-7.497-2a2.855 2.855 0 0 0 .314 5.7z" fill="#F68B00"/><path d="M14.626 37.947a1.302 1.302 0 0 1 1.154-1.434l3.317-.36a1.302 1.302 0 1 1 .28 2.588l-3.316.36a1.302 1.302 0 0 1-1.435-1.154zM53.344 33.75a1.301 1.301 0 0 1 1.154-1.435l3.317-.36a1.302 1.302 0 1 1 .28 2.589l-3.316.36a1.302 1.302 0 0 1-1.435-1.154z" fill="#FFF1A2"/><path fill-rule="evenodd" clip-rule="evenodd" d="M37.301 35.993c-1.422.155-2.274 1.291-2.16 2.342a1.24 1.24 0 1 1-2.465.267c-.283-2.61 1.783-4.794 4.358-5.073 2.576-.28 5.062 1.41 5.345 4.021a1.24 1.24 0 1 1-2.465.268c-.114-1.051-1.19-1.979-2.613-1.825z" fill="#FFF1A2"/><path d="M19.548 36.834a2.343 2.343 0 0 1 2.077-2.582l9.818-1.065a2.343 2.343 0 0 1 2.582 2.078l.298 2.745a7.281 7.281 0 1 1-14.478 1.57l-.297-2.746z" fill="#F68B00"/><path fill-rule="evenodd" clip-rule="evenodd" d="M21.358 31.787l9.818-1.064a4.823 4.823 0 0 1 5.314 4.274l.298 2.746c.58 5.359-3.292 10.174-8.652 10.756-5.359.58-10.174-3.293-10.755-8.652l-.298-2.745a4.823 4.823 0 0 1 4.275-5.315zm.267 2.465a2.343 2.343 0 0 0-2.077 2.582l.297 2.746a7.281 7.281 0 1 0 14.478-1.57l-.298-2.745a2.343 2.343 0 0 0-2.582-2.078l-9.818 1.065z" fill="#FFF1A2"/><path d="M40.327 34.58A2.343 2.343 0 0 1 42.404 32l9.818-1.065a2.343 2.343 0 0 1 2.582 2.077l.298 2.746a7.281 7.281 0 0 1-14.478 1.57l-.297-2.746z" fill="#F68B00"/><path fill-rule="evenodd" clip-rule="evenodd" d="M42.136 29.534l9.819-1.065a4.823 4.823 0 0 1 5.314 4.275l.298 2.745c.58 5.36-3.292 10.175-8.652 10.756-5.359.581-10.174-3.292-10.755-8.651l-.298-2.746a4.823 4.823 0 0 1 4.274-5.314zm.268 2.465a2.343 2.343 0 0 0-2.077 2.582l.297 2.745a7.281 7.281 0 1 0 14.478-1.57l-.298-2.745a2.343 2.343 0 0 0-2.582-2.077l-9.818 1.065z" fill="#FFF1A2"/><path d="M49.731 43.58c-.35.093-.712.16-1.083.2a7.251 7.251 0 0 1-4.81-1.17l4.364-5.5a2.61 2.61 0 1 1 4.089 3.244l-2.56 3.227zM51.13 31.053l-3.786 4.771a2.61 2.61 0 1 1-4.088-3.244l.585-.737 7.29-.79zM30.302 33.311l-7.29.79-.585.738a2.61 2.61 0 1 0 4.088 3.244l3.787-4.772zM28.895 45.849a7.353 7.353 0 0 1-1.026.185 7.253 7.253 0 0 1-4.839-1.19l4.344-5.475a2.61 2.61 0 0 1 4.088 3.244l-2.567 3.236z" fill="#FF9600"/><path d="M42.02 44.5a3.79 3.79 0 1 1-7.536.817 3.79 3.79 0 0 1 7.535-.817zM108.07 66.529L77.403 40.605a1.077 1.077 0 0 0-1.765.671 24.803 24.803 0 0 0 8.588 22.358 24.803 24.803 0 0 0 23.476 4.746 1.077 1.077 0 0 0 .368-1.851z" fill="#FFB100"/><path d="M106.398 115.639h-6.037c.035-.197.077-.393.125-.589.798-3.201 3.343-5.626 6.539-6.349.534-.121 1.013.359.882.885l-1.509 6.053z" fill="#FF9600"/><path d="M94.475 71.047a4.77 4.77 0 0 1 4.667-3.117 3.076 3.076 0 0 1 2.879 3.26c-.535 8.613-.575 17.006-.121 25.18.441 7.935 1.189 14.358 2.245 19.268H87.966a232.452 232.452 0 0 1 .405-19.962c.42-6.5 2.454-14.71 6.104-24.63z" fill="#F68B00"/><path d="M90.171 115.638h-6.399l-3.078-4.563a.549.549 0 0 1 .388-.853 6.61 6.61 0 0 1 4.937 1.422l-.122-3.469a.549.549 0 0 1 .78-.518 6.613 6.613 0 0 1 3.794 5.761 6.63 6.63 0 0 1-.3 2.22zM67.037 74.372l36.909-15.818a1.077 1.077 0 0 1 1.491 1.158 24.802 24.802 0 0 1-14.753 18.867 24.802 24.802 0 0 1-23.837-2.33c-.7-.48-.592-1.542.19-1.877z" fill="#FF9600"/><path d="M91.456 63.844l36.91-15.818a1.076 1.076 0 0 1 1.49 1.157 24.801 24.801 0 0 1-14.753 18.868 24.802 24.802 0 0 1-23.837-2.33c-.7-.48-.592-1.542.19-1.877z" fill="#FF9600"/><path d="M128.301 83.631L97.634 57.708a1.077 1.077 0 0 0-1.765.67 24.803 24.803 0 0 0 8.588 22.358 24.803 24.803 0 0 0 23.476 4.746 1.077 1.077 0 0 0 .368-1.85z" fill="#FFB100"/><path d="M58.322 90.346L23.028 93.62a2.452 2.452 0 0 0-2.216 2.669l1.92 20.684a2.453 2.453 0 0 0 2.668 2.215l35.294-3.275a2.452 2.452 0 0 0 2.215-2.668L60.99 92.561a2.452 2.452 0 0 0-2.668-2.215zM18.62 86.009l37.705-13.996a1.09 1.09 0 0 1 1.401.643l.001.002 1.547 4.194a1.09 1.09 0 0 1-.644 1.399L20.925 92.247a1.09 1.09 0 0 1-1.4-.643l-.002-.002-1.546-4.194a1.09 1.09 0 0 1 .643-1.4z" fill="#F68B00"/><path d="M22.042 84.739l6.757 4.585-7.874 2.923a1.09 1.09 0 0 1-1.401-.642l-.001-.002-1.546-4.195a1.09 1.09 0 0 1 .643-1.399l3.422-1.27z" fill="#FFF1A2"/><path d="M25.561 101.863a.49.49 0 1 0 .09.976l32.07-2.975a.49.49 0 1 0-.091-.977l-32.069 2.976zM26.014 106.743a.49.49 0 0 0 .09.977l32.07-2.976a.49.49 0 0 0-.091-.977l-32.069 2.976zM26.024 112.157a.49.49 0 0 1 .443-.534l32.068-2.975a.49.49 0 1 1 .091.977l-20.845 1.934.345 3.714a.49.49 0 0 1-.977.09l-.345-3.714-10.247.951a.49.49 0 0 1-.533-.443z" fill="#FFB100"/><path d="M30.272 81.629l8.836-3.28 6.757 4.585-8.836 3.28-6.757-4.585zM48.63 74.838l7.775-2.885a1.09 1.09 0 0 1 1.4.642l.002.002 1.546 4.195a1.09 1.09 0 0 1-.643 1.398l-3.323 1.234-6.757-4.586z" fill="#FFF1A2"/><path fill-rule="evenodd" clip-rule="evenodd" d="M49.444 109.628a.49.49 0 0 1 .534.443l.377 4.067a.49.49 0 1 1-.977.091l-.377-4.067a.49.49 0 0 1 .443-.534z" fill="#FFB100"/><path d="M20.006 91.397l39.97-4.459a1.09 1.09 0 0 1 1.205.963l.389 3.402a1.09 1.09 0 0 1-.963 1.202l-39.97 4.459c-.599.066-1.041.679-1.108.08L19.432 96l-.389-3.4a1.09 1.09 0 0 1 .963-1.202z" fill="#F68B00"/><path d="M56.44 92.97l4.167-.465a1.09 1.09 0 0 0 .963-1.202l-.39-3.402a1.09 1.09 0 0 0-1.203-.963l-8.126.907 4.589 5.125zM32.413 90.013l9.367-1.045 4.59 5.125-9.368 1.045-4.589-5.125z" fill="#FFF1A2"/><path d="M19.526 97.015L19.432 96l-.378-3.306-.01-.094a1.09 1.09 0 0 1 .962-1.202l3.628-.405 4.589 5.125-7.587.846c-.227.026-.432.13-.602.217-.259.131-.438.222-.494-.066a1.115 1.115 0 0 1-.01-.07v-.002l-.004-.027z" fill="#FF9600"/><path d="M23.556 95.021a1.09 1.09 0 0 0 .986-1.185 1.09 1.09 0 0 0-1.187-.984 1.09 1.09 0 1 0 .201 2.169z" fill="#FFB100"/><path d="M16.938 30.188l-.188-1.813-2.656 1.813-4 8.906.844 2.187 6-11.093zM56.063 26.813l-.47-3.907 6.97 1.438 2.312 8.562-.719 1.594-1.75.813-6.343-8.5z" fill="#F68B00"/></g><defs><clipPath id="clip0"><path fill="#fff" d="M0 0h135v124H0z"/></clipPath></defs></svg>