<svg viewBox="0 0 135 125" version="1.1" xmlns="http://www.w3.org/2000/svg"><g stroke="none" stroke-width="1" fill="none" fill-rule="evenodd"><g><g transform="translate(2 1)"><path d="M26 10h79c9.389 0 17 7.611 17 17v79c0 9.389-7.611 17-17 17H26c-9.389 0-17-7.611-17-17V27c0-9.389 7.611-17 17-17z" fill="#47D7FF"/><path d="M100.509 52.855l.046-.067c4.068-5.728 11.904-7.524 18.111-3.94a13.767 13.767 0 0 1 3.334 2.69v53.278c0 1.097-.104 2.17-.303 3.21-.777.5-1.703.79-2.697.79H33a5 5 0 1 1 0-10h82V74.17a13.73 13.73 0 0 1-10.11-1.463c-.414-.24-.811-.497-1.191-.771-.565 8.31-6.876 15.377-15.454 16.582-6.607.929-12.879-1.855-16.708-6.762a14 14 0 0 1-2.284 2.996c-5.467 5.467-14.332 5.467-19.799 0l-2.121-2.121c-5.468-5.468-5.468-14.332 0-19.8 5.23-5.229 13.567-5.456 19.067-.681-.722-9.395 5.982-17.854 15.443-19.184 7.904-1.11 15.33 3.092 18.666 9.888z" fill="#BBF2FF"/><path d="M76.026.424c.426.255.782.614 1.036 1.044l2.313 3.913 4.157-1.796a2.974 2.974 0 0 1 3.917 1.576c.195.46.274.96.229 1.459l-.412 4.536 4.41 1.008c1.607.367 2.614 1.976 2.25 3.594-.11.487-.339.94-.666 1.316L90.28 20.5l2.98 3.426a3.02 3.02 0 0 1-.278 4.24c-.373.33-.822.56-1.306.67l-4.41 1.007.412 4.537c.15 1.653-1.058 3.115-2.698 3.266a2.963 2.963 0 0 1-1.448-.231l-4.157-1.797-2.313 3.914a2.97 2.97 0 0 1-5.124 0l-2.314-3.914-4.156 1.797a2.974 2.974 0 0 1-3.917-1.576 3.024 3.024 0 0 1-.229-1.459l.411-4.537-4.41-1.007c-1.606-.367-2.613-1.976-2.249-3.594.11-.487.339-.94.666-1.316l2.98-3.426-2.98-3.426a3.02 3.02 0 0 1 .278-4.24c.373-.33.822-.56 1.306-.67l4.41-1.008-.412-4.536c-.15-1.653 1.058-3.115 2.698-3.266.494-.045.992.034 1.448.231l4.156 1.796 2.314-3.913A2.97 2.97 0 0 1 76.026.424z" fill="#FFB100" fill-rule="nonzero"/><circle fill="#FFD900" cx="74.5" cy="20.5" r="12.5"/><rect fill="#FFF" x="38" y="79.24" width="62" height="4" rx="1.95"/><path fill="#FFF" d="M49 71.24h36v10H49z"/><circle fill="#9069CD" cx="12" cy="102.24" r="5"/><circle fill="#9069CD" cx="45" cy="102.24" r="5"/><circle fill="#9069CD" cx="78" cy="102.24" r="5"/><circle fill="#9069CD" cx="111" cy="102.24" r="5"/><path d="M122 70.24v31l-117.02-.002c-2.75 0-4.98-2.238-4.98-5 0-.161.008-.324.024-.485l2.042-20.998a4.988 4.988 0 0 1 4.956-4.514H122z" fill="#CE82FF"/><path d="M122 70.24v19H10a2 2 0 0 1-2-2V70.242l114-.002z" fill="#FFAADE"/><path d="M2 94.816h2a2 2 0 1 1 0 4H3a2 2 0 0 1-2-2v-1a1 1 0 0 1 1-1z" fill="#9069CD"/><rect fill="#CE82FF" x="11" y="73.24" width="8" height="13" rx=".9"/><rect fill="#CE82FF" x="21" y="73.24" width="8" height="13" rx=".9"/><rect fill="#CE82FF" x="76" y="73.24" width="16" height="13" rx=".9"/><rect fill="#CE82FF" x="96" y="73.24" width="16" height="13" rx=".9"/><path d="M122 86.24h-5.1a.9.9 0 0 1-.9-.9v-11.2a.9.9 0 0 1 .9-.9h5.1" fill="#CE82FF"/><rect fill="#CE82FF" x="31" y="76.24" width="10" height="22" rx="2"/><path d="M31 89h10v7a2 2 0 0 1-2 2h-6a2 2 0 0 1-2-2v-7z" fill="#9069CD"/><rect fill="#CE82FF" x="51" y="76.24" width="19" height="22" rx="2"/><path d="M51 89h19v7a2 2 0 0 1-2 2H53a2 2 0 0 1-2-2v-7z" fill="#9069CD"/><path d="M4 73.816a1 1 0 0 1 1 1v18a1 1 0 0 1-1 1H.182l1.739-18.468a4.994 4.994 0 0 1 .395-1.532H4z" fill="#9069CD" fill-rule="nonzero"/><path d="M34.777 32.438l.092.328.276 1.04.167-.162c4.702-4.454 12.126-4.378 16.734.23 4.686 4.687 4.686 12.285 0 16.971l-2.121 2.121a11.95 11.95 0 0 1-7.247 3.451 2.46 2.46 0 0 1-.6.074h-27c-.202 0-.399-.024-.587-.07H10.5a9.5 9.5 0 1 1 0-19h2.618c-.873-5.569 2.574-11.013 8.136-12.516 5.82-1.572 11.81 1.79 13.523 7.533z" fill="#BBF2FF"/><path d="M105 123H26c-9.053 0-16.453-7.076-16.971-16h112.942c-.518 8.924-7.918 16-16.971 16z" fill="#78C800"/><path d="M120.003 114H10.997a16.9 16.9 0 0 1-1.968-7h112.942a16.9 16.9 0 0 1-1.968 7z" fill="#58A700"/></g></g></g></svg>