<svg viewBox="0 0 136 124" fill="none" xmlns="http://www.w3.org/2000/svg"><path d="M11.046 28c0-9.389 7.611-17 17-17h79c9.389 0 17 7.611 17 17v79c0 9.389-7.611 17-17 17h-79c-9.389 0-17-7.611-17-17V28z" fill="#1CB0F6"/><path d="M2.847 43.81C-1.337 24.767 10.71 5.936 29.755 1.752l.802-.176c19.045-4.183 37.875 7.864 42.06 26.909l1 4.556c4.184 19.045-7.864 37.875-26.909 42.06l-.801.175C26.862 79.46 8.03 67.412 3.847 48.367l-1-4.556z" fill="#FFB7E3"/><path d="M46.208 65.714a49.963 49.963 0 0 1-3.254 1.793c-6.614 3.336-13.484 5.062-18.189 5.884a35.241 35.241 0 0 0 7.024 2.105c3.94-1.054 8.4-2.59 12.775-4.797 8.46-4.267 16.792-11.145 20.201-22.06-3.102 8.037-9.796 14.523-18.557 17.075z" fill="#FF9BD8"/><path d="M65.998 32.325c3.37 15.336-6.332 30.498-21.667 33.867-15.335 3.37-30.498-6.331-33.867-21.667-3.369-15.335 6.332-30.498 21.668-33.867C47.467 7.29 62.629 16.99 65.998 32.325z" fill="#E18E70"/><path d="M37.178 49.737c-.815-.223-1.61.471-1.429 1.297l1.665 7.579a5.13 5.13 0 1 0 10.021-2.202l-1.664-7.579c-.182-.825-1.195-1.122-1.842-.578-.927.78-1.97 1.462-3.16 1.724-1.188.26-2.421.08-3.59-.24z" fill="#881B1B"/><path d="M47.428 58.65a5.13 5.13 0 0 0-9.069 1.993 5.131 5.131 0 0 0 9.07-1.992z" fill="#E34545"/><path d="M14.4 36.92c20.625-3.799 29.455-17.232 34.293-24.962a28.297 28.297 0 0 0-16.513-1.31 28.315 28.315 0 0 0-16.387 10.37c-.079.076-.155.16-.229.252-.275.347-.547.71-.823 1.078-1.954 2.61-4.118 5.499-9.561 5.384a16.332 16.332 0 0 0-.298-.004l-2.729-.098c-.962-.045-1.503.676-1.246 1.605 1.232 4.466 5.25 7.698 9.991 7.92.675.031 1.34 0 1.99-.087a9.97 9.97 0 0 0 1.513-.148z" fill="#3D3D3D"/><path d="M46.022 17.61c.59-1.844 3.197-1.856 3.804-.016l1.54 4.67a2 2 0 0 0 1.908 1.374l4.917-.022c1.938-.008 2.754 2.468 1.192 3.613l-3.966 2.908a2 2 0 0 0-.717 2.239l1.54 4.67c.607 1.84-1.495 3.381-3.068 2.25l-3.99-2.873a2 2 0 0 0-2.352.01l-3.965 2.907c-1.562 1.146-3.678-.377-3.087-2.222l1.499-4.683a2 2 0 0 0-.737-2.233l-3.99-2.873c-1.573-1.132-.778-3.615 1.16-3.623l4.916-.022a2 2 0 0 0 1.897-1.39l1.499-4.683zM15.532 29.422c-.745-1.788 1.234-3.485 2.888-2.476l4.198 2.56a2 2 0 0 0 2.343-.19l3.733-3.2c1.47-1.262 3.696.095 3.248 1.98l-1.138 4.784a2 2 0 0 0 .904 2.17l4.198 2.56c1.654 1.01 1.051 3.545-.88 3.702l-4.901.396a2 2 0 0 0-1.785 1.53l-1.137 4.784c-.449 1.885-3.047 2.095-3.792.307l-1.892-4.54a2 2 0 0 0-2.007-1.223l-4.901.396c-1.931.156-2.934-2.25-1.464-3.512l3.733-3.201a2 2 0 0 0 .544-2.288l-1.892-4.538z" fill="#fff"/><path d="M38.284 38.665c.133-.03 1.715 1.576 3.34 3.268 1.616 1.684.75 4.473-1.53 4.974-2.28.5-4.235-1.669-3.473-3.875.765-2.217 1.53-4.338 1.663-4.367z" fill="#9E4D31"/><path d="M68.424 80.83a1.84 1.84 0 0 1 2.057-1.595l36.793 4.654a4.6 4.6 0 0 1 3.987 5.14l-2.832 22.385a4.599 4.599 0 0 1-5.14 3.987l-34.056-4.308a4.599 4.599 0 0 1-3.986-5.14l3.177-25.123z" fill="#777"/><path d="M49.052 83.12l14.428 1.854-2.498 18.304-14.79-1.313 2.86-18.845z" fill="#4B4B4B"/><path d="M109.33 72.149L97.6 82.665l21.124 2.672 1.741-12.823-8.756-1.108a3 3 0 0 0-2.379.743z" fill="#777"/><path d="M81.807 82.522a1.84 1.84 0 0 1 2.056-1.594l38.621 4.885-3.408 26.948a4.6 4.6 0 0 1-5.141 3.986l-31.32-3.961a4.6 4.6 0 0 1-3.986-5.141l3.178-25.123z" fill="silver"/><path d="M71.754 88.882l4.104.52a3 3 0 0 1 2.6 3.352l-.871 6.886a3 3 0 0 1-3.353 2.6l-4.104-.519 1.624-12.839z" fill="#AFAFAF"/><path d="M67.83 94.908a6.47 6.47 0 1 1-12.84-1.625 6.47 6.47 0 0 1 12.84 1.625z" fill="#1CB0F6"/><path d="M63.576 83.08l9.734 6-1.624 12.837-10.35 3.167L63.9 94.267l-.323-11.188zM77.43 65.885l14.768 1.867a2.76 2.76 0 0 1 2.391 3.085l-.436 3.447a2 2 0 0 1-2.235 1.733l-15.522-1.963 1.033-8.17z" fill="silver"/><path d="M125.133 73.104l5.452.69a3.68 3.68 0 0 1 3.189 4.112l-.7 5.537a3.68 3.68 0 0 1-4.112 3.189l-5.453-.69 1.624-12.838z" fill="#4B4B4B"/><path d="M118.9 73.36l-11.73 10.516 18.206 2.302L127 73.34l-5.721-.723a3 3 0 0 0-2.379.742z" fill="#AFAFAF"/><path fill-rule="evenodd" clip-rule="evenodd" d="M62.873 90.344a1.229 1.229 0 0 1-1.29 1.165 3.076 3.076 0 0 0-2.726 1.381l-1.026-.675 1.026.675-.267.406a1.229 1.229 0 1 1-2.053-1.351l.267-.406a5.534 5.534 0 0 1 4.904-2.485c.678.035 1.2.612 1.165 1.29z" fill="#7AF0F2"/><path d="M79.897 74.497l8.17 1.034-.738 5.835-8.17-1.033.738-5.836z" fill="#AFAFAF"/><path fill-rule="evenodd" clip-rule="evenodd" d="M91.285 87.59a1.38 1.38 0 0 1 1.196 1.542l-1.477 11.671a1.38 1.38 0 1 1-2.738-.346l1.477-11.671a1.38 1.38 0 0 1 1.542-1.196zM94.065 92.115a4.14 4.14 0 0 1 4.626-3.588l12.031 1.521a4.14 4.14 0 0 1 3.587 4.627l-.783 6.195a4.14 4.14 0 0 1-4.627 3.588l-12.03-1.522a4.14 4.14 0 0 1-3.588-4.627l.784-6.194zm4.28-.85a1.38 1.38 0 0 0-1.542 1.196l-.784 6.195a1.38 1.38 0 0 0 1.196 1.542l12.03 1.521a1.38 1.38 0 0 0 1.543-1.195l.783-6.195a1.38 1.38 0 0 0-1.196-1.542l-12.03-1.522zM62.646 85.77L49.448 84.1l-2.112 16.699 13.198 1.669 2.112-16.699zm-12.851-4.408a2.76 2.76 0 0 0-3.085 2.392l-2.112 16.698a2.761 2.761 0 0 0 2.392 3.085l13.197 1.669a2.76 2.76 0 0 0 3.085-2.392l2.112-16.698a2.76 2.76 0 0 0-2.392-3.085l-13.197-1.67z" fill="#777"/><path d="M48.977 65.843a7.058 7.058 0 0 1 7.888-6.117l21.008 2.657A7.058 7.058 0 1 1 76.1 76.39l-21.007-2.657a7.058 7.058 0 0 1-6.117-7.889z" fill="#4B4B4B"/><path fill-rule="evenodd" clip-rule="evenodd" d="M96.755 45.188l6.971 6.971a1.097 1.097 0 0 1 0 1.55l-6.971 6.97a1.095 1.095 0 0 1-1.55 0l-6.97-6.97a1.095 1.095 0 0 1 0-1.55l6.97-6.97a1.095 1.095 0 0 1 1.55 0z" fill="#7BD5FF"/><path fill-rule="evenodd" clip-rule="evenodd" d="M28.887 84.32l6.971 6.972a1.095 1.095 0 0 1 0 1.549l-6.97 6.97a1.096 1.096 0 0 1-1.55 0l-6.97-6.97a1.095 1.095 0 0 1 0-1.55l6.97-6.97a1.095 1.095 0 0 1 1.55 0zM85.643 31.025l4.321 4.321a.679.679 0 0 1 0 .96l-4.32 4.322a.679.679 0 0 1-.961 0l-4.321-4.322a.679.679 0 0 1 0-.96l4.321-4.32a.679.679 0 0 1 .96 0z" fill="#A4E2FF"/><path fill-rule="evenodd" clip-rule="evenodd" d="M39.526 104.199l4.321 4.321a.679.679 0 0 1 0 .96l-4.32 4.321a.68.68 0 0 1-.96 0l-4.322-4.321a.679.679 0 0 1 0-.96l4.321-4.321a.68.68 0 0 1 .96 0z" fill="#7BD5FF"/><path d="M112.338 6.916c-1.563-.17-2.848 1-2.995 2.444l-1.238 12.163-10.749 1.236c-1.31.15-2.262 1.2-2.394 2.427-.154 1.432.845 2.838 2.394 3.016l10.783 1.238 1.205 11.216c.132 1.225 1.085 2.276 2.394 2.426 1.563.18 2.855-.983 3.01-2.426l1.205-11.215 10.783-1.239c1.31-.15 2.263-1.201 2.395-2.427.153-1.432-.845-2.838-2.394-3.016l-10.751-1.236L114.75 9.36c-.126-1.237-1.088-2.3-2.412-2.444z" fill="#A4E2FF"/></svg>