<svg viewBox="0 0 135 124" fill="none" xmlns="http://www.w3.org/2000/svg"><path d="M11 28c0-9.389 7.611-17 17-17h79c9.389 0 17 7.611 17 17v79c0 9.389-7.611 17-17 17H28c-9.389 0-17-7.611-17-17V28z" fill="#FEC701"/><path fill-rule="evenodd" clip-rule="evenodd" d="M64.756 27.15c8.2 8.202 8.2 21.498 0 29.7l-53.407 53.406a17.078 17.078 0 0 1-.348-3.442L11 51.207l24.057-24.056c8.201-8.201 21.498-8.201 29.699 0zM124 28.208v35.354l-8.995 8.997c-4.881 4.882-12.796 4.882-17.677 0-4.882-4.881-4.882-12.796 0-17.678L124 28.207z" fill="#FFD900"/><path d="M8.604 48.53c0-23.273 18.867-42.14 42.14-42.14 23.274 0 42.14 18.867 42.14 42.14v4.536c0 23.273-18.866 42.14-42.14 42.14-23.273 0-42.14-18.867-42.14-42.14V48.53z" fill="#FFF1A2"/><path d="M31.82 90.729a42.157 42.157 0 0 1-6.463-4.024c.3-.142.64-.211.995-.185 16.103 1.197 27.563-2.097 35.743-7.194 8.195-5.106 13.257-12.122 16.379-18.619a1.984 1.984 0 1 1 3.576 1.72c-3.361 6.995-8.871 14.668-17.856 20.267-7.938 4.946-18.464 8.195-32.374 8.035z" fill="#FFB100"/><path fill-rule="evenodd" clip-rule="evenodd" d="M17.26 49.55c0-18.525 15.017-33.542 33.542-33.542 18.525 0 33.543 15.017 33.543 33.542 0 18.525-15.018 33.543-33.543 33.543S17.26 68.075 17.26 49.55z" fill="#FFD900"/><path d="M28.039 41.487a8.235 8.235 0 0 1 11.249-3.014l6.551 3.782a8.235 8.235 0 1 1-8.234 14.263l-6.552-3.783a8.235 8.235 0 0 1-3.014-11.248z" fill="#FFF1A2"/><path fill-rule="evenodd" clip-rule="evenodd" d="M47.629 47.774a5.102 5.102 0 1 0-10.205 0v2.457a5.102 5.102 0 0 0 10.205 0v-2.457z" fill="#F68B00"/><path d="M36.02 44.397a3.093 3.093 0 0 0 3.088 3.098 3.093 3.093 0 0 0 3.09-3.098 3.093 3.093 0 0 0-3.09-3.097 3.093 3.093 0 0 0-3.089 3.097zM74.008 41.487a8.235 8.235 0 0 0-11.249-3.014l-6.551 3.782a8.235 8.235 0 0 0 8.234 14.263l6.552-3.783a8.235 8.235 0 0 0 3.014-11.248z" fill="#FFF1A2"/><path d="M55.125 47.495a3.093 3.093 0 0 0 3.09-3.097 3.09 3.09 0 0 0-.359-1.449 5.102 5.102 0 0 1 6.766 4.825v2.457a5.102 5.102 0 1 1-10.204 0v-2.457c0-.12.004-.24.012-.357.224.051.456.078.695.078z" fill="#F68B00"/><path d="M18.613 37.218l2.505 2.222c10.088 8.947 25.985 5.301 31.167-7.147l-17.258-6.207-16.414 11.132z" fill="#FFD900"/><path d="M82.33 37.945l-2.724 1.945c-10.977 7.831-26.4 2.528-30.238-10.398l17.816-4.35 15.147 12.803z" fill="#FFD900"/><path d="M23.664 41.785c24.73.843 38.306-12.403 45.837-20.086a33.386 33.386 0 0 0-18.698-5.691 33.407 33.407 0 0 0-21.512 7.806 2.84 2.84 0 0 0-.325.23c-.406.33-.81.679-1.222 1.033-2.912 2.513-6.137 5.294-12.381 3.784-.128-.03-.25-.06-.368-.085l-3.094-.798c-1.097-.295-1.903.399-1.843 1.535.29 5.458 4.1 10.2 9.51 11.656.772.208 1.55.341 2.324.404.61.116 1.212.193 1.772.212z" fill="#F68B00"/><path d="M49.076 60.265c-6.2-8.2-19.083-10.292-24.75-10.313l-1.75 4.563 22.25 10.5 4.25-4.75zM52.139 60.265c6.2-8.2 19.083-10.292 24.75-10.313l1.75 4.563-22.25 10.5-4.25-4.75z" fill="#FFD900"/><path fill-rule="evenodd" clip-rule="evenodd" d="M50.973 61.628c1.748 0 3.166-1.43 3.166-3.193 0-1.763-3.166-5.933-3.166-5.933s-3.166 4.17-3.166 5.933c0 1.764 1.417 3.193 3.166 3.193z" fill="#F68B00"/><path d="M43.929 63.578c0 5.524-4.48 10.003-10.004 10.003-5.524 0-10.003-4.479-10.003-10.003 0-5.525 4.479-10.004 10.003-10.004 5.525 0 10.004 4.479 10.004 10.004zM78.024 63.578c0 5.524-4.478 10.003-10.003 10.003s-10.003-4.479-10.003-10.003c0-5.525 4.478-10.004 10.003-10.004s10.003 4.479 10.003 10.004z" fill="#FEC701"/><path d="M50.973 62.477c-5.357 0-9.87 2.238-11.238 5.286-.453 1.008.47 1.94 1.575 1.94h19.326c1.104 0 2.027-.932 1.575-1.94-1.368-3.048-5.881-5.286-11.238-5.286z" fill="#FFF1A2"/><path d="M88.752 55.717a6.283 6.283 0 0 1 6.283-6.282h26.723a6.283 6.283 0 0 1 6.283 6.282v52.289a6.283 6.283 0 0 1-6.283 6.283H95.035a6.283 6.283 0 0 1-6.283-6.283V55.717z" fill="#FF9600"/><path fill-rule="evenodd" clip-rule="evenodd" d="M121.758 54.147H95.035a1.57 1.57 0 0 0-1.57 1.57v52.289c0 .867.702 1.57 1.57 1.57h26.723a1.57 1.57 0 0 0 1.571-1.57V55.717a1.57 1.57 0 0 0-1.571-1.57zm-26.723-4.712a6.283 6.283 0 0 0-6.283 6.282v52.289a6.283 6.283 0 0 0 6.283 6.283h26.723a6.283 6.283 0 0 0 6.283-6.283V55.717a6.283 6.283 0 0 0-6.283-6.282H95.035z" fill="#F68B00"/><path d="M99.56 49.434h17.671v3.984a3.141 3.141 0 0 1-3.141 3.141h-11.388a3.141 3.141 0 0 1-3.141-3.141v-3.984z" fill="#F68B00"/><path d="M93.445 62.94h29.844V108a1.57 1.57 0 0 1-1.571 1.571H95.016a1.57 1.57 0 0 1-1.57-1.571V62.94z" fill="#FFF1A2"/><path fill-rule="evenodd" clip-rule="evenodd" d="M96.018 70.757a5.802 5.802 0 0 1 5.802-5.802h13.781a5.802 5.802 0 0 1 5.802 5.802v20.31c0 .4-.324.724-.725.724H101.82a5.802 5.802 0 0 1-5.802-5.802V70.757z" fill="#FEC701"/><path d="M112.873 91.791H101.82a5.802 5.802 0 0 1-5.802-5.802v-6.985l3.558-5.922c2.991-4.978 9.452-6.59 14.431-3.598 4.979 2.992 6.59 9.453 3.598 14.432l-4.732 7.876z" fill="#FFB100"/><path d="M96.018 84.89v-1.721c3.862 2.606 8.27 3.327 12.634 2.368a.725.725 0 1 1 .311 1.416c-4.44.976-8.943.346-12.945-2.064z" fill="#F68B00"/><path d="M101.44 74.202a8.341 8.341 0 1 1 14.3 8.593 8.341 8.341 0 0 1-14.3-8.593z" fill="#FFD900"/><path d="M113.317 71.627c.137 2.08-2.133 2.982-3.394 1.519-.66-.765-.018-1.764-.018-1.764s-.003.503.299.729c.598.448 1.607-.386.339-1.723a8.337 8.337 0 0 1 2.774 1.239z" fill="#F68B00"/><path d="M108.841 77.38a3.627 3.627 0 1 1 6.218 3.736 3.627 3.627 0 0 1-6.218-3.737z" fill="#FFF1A2"/><path d="M103.244 74.018a3.626 3.626 0 1 1 6.216 3.734 3.626 3.626 0 0 1-6.216-3.734z" fill="#FFF1A2"/><path d="M109.648 77.443a2.538 2.538 0 1 1 4.351 2.613 2.538 2.538 0 0 1-4.351-2.613z" fill="#F68B00"/><path fill-rule="evenodd" clip-rule="evenodd" d="M110.988 75.978a.728.728 0 0 1 .524-.013l.781.28.139.206a.724.724 0 0 1-.196 1.007l-.601.406a.725.725 0 0 1-1.007-.196l-.315-.468a.725.725 0 0 1 .322-1.075l.353-.147z" fill="#FFF1A2"/><path d="M104.675 74.454a2.538 2.538 0 1 1 4.351 2.614 2.538 2.538 0 0 1-4.351-2.614z" fill="#F68B00"/><path d="M106.045 72.666a.726.726 0 0 1 1.007.196l.406.601a.725.725 0 0 1-.196 1.007l-.601.406a.725.725 0 0 1-1.007-.196l-.406-.601a.725.725 0 0 1 .196-1.007l.601-.406zM112.137 78.019a.725.725 0 1 1 .811 1.203.725.725 0 0 1-.811-1.203zM107.164 75.03a.725.725 0 1 1 .811 1.202.725.725 0 0 1-.811-1.202z" fill="#FFF1A2"/><path d="M114.572 84.314a8.345 8.345 0 0 1-13.925-8.366 5.798 5.798 0 0 1 5.52.248 5.773 5.773 0 0 1 2.28 2.542 5.774 5.774 0 0 1 3.314.82 5.799 5.799 0 0 1 2.811 4.756z" fill="#FFD900"/><path fill-rule="evenodd" clip-rule="evenodd" d="M107.369 78.874a.272.272 0 0 0-.544-.005l.272.002-.272-.002v.016l.001.04a3.956 3.956 0 0 0 .057.58c.031.167.079.355.157.526a1 1 0 0 0 .378.456 1 1 0 0 0 .579.12c.188-.012.376-.058.538-.11a3.692 3.692 0 0 0 .575-.239l.01-.005.003-.002h.001l-.129-.24.129.24a.272.272 0 0 0-.259-.478h-.001l-.007.004-.027.014c-.025.012-.061.03-.107.05a3.2 3.2 0 0 1-.353.139c-.138.044-.28.076-.405.084a.472.472 0 0 1-.267-.044.466.466 0 0 1-.163-.215 1.697 1.697 0 0 1-.116-.397 3.181 3.181 0 0 1-.045-.377l-.005-.118v-.039z" fill="#F68B00"/><path fill-rule="evenodd" clip-rule="evenodd" d="M111.264 81.43a1.088 1.088 0 1 1 1.865 1.12 1.088 1.088 0 0 1-1.865-1.12zM103.182 76.573a1.088 1.088 0 1 1 1.865 1.12 1.088 1.088 0 0 1-1.865-1.12z" fill="#FEC701"/><path fill-rule="evenodd" clip-rule="evenodd" d="M108.046 79.442a.648.648 0 0 0 .891-.217c.184-.305.058-1.363.058-1.363l-.088.035c-.246.102-.939.406-1.089.656a.65.65 0 0 0 .228.889z" fill="#F68B00"/><path fill-rule="evenodd" clip-rule="evenodd" d="M116.617 84.765a.324.324 0 0 1 .614 0l.67 2.009 1.41.686a.324.324 0 0 1 0 .582l-1.41.686-.67 2.009a.324.324 0 0 1-.614 0l-.67-2.01-1.411-.685a.324.324 0 0 1 0-.582l1.411-.686.67-2.01zM100.791 67.597a.26.26 0 0 1 .492 0l.487 1.46 1.028.5a.26.26 0 0 1 0 .466l-1.028.5-.487 1.46a.26.26 0 0 1-.492 0l-.487-1.46-1.028-.5a.26.26 0 0 1 0-.466l1.028-.5.487-1.46z" fill="#FFF1A2"/><path d="M120.763 85.007a.432.432 0 0 1 .611 0l.366.366a.43.43 0 0 1 0 .61l-.366.367a.432.432 0 0 1-.611 0l-.366-.367a.43.43 0 0 1 0-.61l.366-.367z" fill="#FFF1A2"/><path d="M116.357 101.422a4.5 4.5 0 0 0-4.5-4.5h-8.5a8 8 0 0 0-8 8 1 1 0 0 0 1 1h15.5a4.5 4.5 0 0 0 4.5-4.5z" fill="#FFB100"/><path d="M100.357 101.422a1.5 1.5 0 1 1 3 0 1.5 1.5 0 0 1-3 0z" fill="#FFF1A2"/><path fill-rule="evenodd" clip-rule="evenodd" d="M104.357 101.422a1.5 1.5 0 1 1 3 0 1.5 1.5 0 0 1-3 0z" fill="#FFF1A2"/><path d="M108.357 101.422a1.5 1.5 0 1 1 3 0 1.5 1.5 0 0 1-3 0z" fill="#FFF1A2"/></svg>