<svg viewBox="0 0 135 124" version="1.1" xmlns="http://www.w3.org/2000/svg"><g stroke="none" stroke-width="1" fill="none" fill-rule="evenodd"><path d="M28 11h79c9.389 0 17 7.611 17 17v79c0 9.389-7.611 17-17 17H28c-9.389 0-17-7.611-17-17V28c0-9.389 7.611-17 17-17z" fill="#EEEDED"/><g><g transform="rotate(28 112.646 32.854)"><path d="M106.874 112.512l4.932-2.717a29.238 29.238 0 0 1 28.521.172l3.162 1.791" stroke="#FFF" stroke-width="4.85" stroke-linecap="round" stroke-linejoin="round"/><path d="M98.522 89.147h16.957a6.305 6.305 0 0 1 0 12.61H91.714l.522-6.789a6.305 6.305 0 0 1 6.286-5.821z" fill="#CECECE"/><path d="M70.548 109.931l17.525-19.463a1.94 1.94 0 0 1 2.74-.143l1.441 1.298a3.88 3.88 0 0 1 .288 5.48l-16.227 18.02a1.94 1.94 0 0 1-2.74.144l-2.883-2.596a1.94 1.94 0 0 1-.144-2.74z" fill="#B2B2B2"/><rect fill="#B2B2B2" x="50.309" y="130.116" width="8.73" height="7.76" rx="2.91"/><rect fill="#B2B2B2" x="66.799" y="130.116" width="8.73" height="7.76" rx="2.91"/><rect fill="#B2B2B2" x="83.289" y="130.116" width="8.73" height="7.76" rx="2.91"/><rect fill="#B2B2B2" x="99.779" y="130.116" width="8.73" height="7.76" rx="2.91"/><path d="M96.746 100.828l7.104 13.768c3.2 6.202.766 13.824-5.436 17.024a12.636 12.636 0 0 1-5.794 1.406H50.643a9.542 9.542 0 0 1-3.473-18.43l42.286-16.52a5.82 5.82 0 0 1 7.29 2.752z" fill="#D8D8D8"/><path d="M97.839 96.166h13.58a7.76 7.76 0 0 1 7.76 7.76v18.43c0 5.893-4.778 10.67-10.67 10.67h-32.01v-15.52c0-11.785 9.554-21.34 21.34-21.34z" fill="#D8D8D8"/><rect fill="#FFF" transform="rotate(-25 61.949 112.656)" x="59.039" y="106.836" width="5.82" height="11.64" rx="1.94"/><rect fill="#FFF" transform="rotate(-25 69.709 109.746)" x="66.799" y="103.926" width="5.82" height="11.64" rx="1.94"/><rect fill="#FFF" transform="rotate(-25 77.469 105.866)" x="74.559" y="100.046" width="5.82" height="11.64" rx="1.94"/><path d="M92.177 102.893l9.585-3.7a21.429 21.429 0 0 0 13.294-15.78 25.342 25.342 0 0 1 12.623-17.219l4.263-2.347" stroke="#FFF" stroke-width="4.85" stroke-linecap="round" stroke-linejoin="round"/><path d="M91.173 17.35l11.346-12.6a6.305 6.305 0 1 1 9.37 8.437l-15.901 17.66-4.696-4.93a6.305 6.305 0 0 1-.12-8.567z" fill="#CECECE"/><path d="M87.9 52.046L85.163 26a1.94 1.94 0 0 1 1.726-2.132l1.93-.203a3.88 3.88 0 0 1 4.264 3.453l2.535 24.117a1.94 1.94 0 0 1-1.727 2.132l-3.858.406a1.94 1.94 0 0 1-2.133-1.727z" fill="#B2B2B2"/><rect fill="#B2B2B2" transform="rotate(-48 95.162 79.946)" x="90.797" y="76.066" width="8.73" height="7.76" rx="2.91"/><rect fill="#B2B2B2" transform="rotate(-48 106.196 67.692)" x="101.831" y="63.812" width="8.73" height="7.76" rx="2.91"/><rect fill="#B2B2B2" transform="rotate(-48 117.23 55.438)" x="112.865" y="51.558" width="8.73" height="7.76" rx="2.91"/><rect fill="#B2B2B2" transform="rotate(-48 128.264 43.183)" x="123.899" y="39.303" width="8.73" height="7.76" rx="2.91"/><path d="M98.665 26.486l14.985 3.934c6.75 1.772 10.786 8.68 9.014 15.43a12.636 12.636 0 0 1-2.832 5.248L91.744 82.293a9.542 9.542 0 0 1-16.02-9.752l16.017-42.479a5.82 5.82 0 0 1 6.924-3.576z" fill="#D8D8D8"/><path d="M95.932 22.555l9.087-10.092a7.76 7.76 0 0 1 10.959-.574l13.696 12.332c4.38 3.943 4.733 10.69.79 15.07l-21.419 23.787-11.534-10.385c-8.758-7.886-9.465-21.38-1.58-30.138z" fill="#D8D8D8"/><rect fill="#FFF" transform="rotate(-73 84.171 60.26)" x="81.261" y="54.441" width="5.82" height="11.64" rx="1.94"/><rect fill="#FFF" transform="rotate(-73 87.201 52.547)" x="84.291" y="46.727" width="5.82" height="11.64" rx="1.94"/><rect fill="#FFF" transform="rotate(-73 89.51 44.184)" x="86.6" y="38.364" width="5.82" height="11.64" rx="1.94"/><circle fill="#D8D8D8" transform="rotate(26 40.807 70.563)" cx="40.807" cy="70.563" r="29.445"/><path d="M37.655 62.42a1.56 1.56 0 0 1 1.672 1.347l.008.082.786 9.742a1.56 1.56 0 0 1-3.101.333l-.009-.083-.785-9.741a1.56 1.56 0 0 1 1.43-1.68zM29.464 50.066a1.56 1.56 0 0 1 .118 2.143l-.056.062-6.714 7.102a1.56 1.56 0 0 1-2.322-2.081l.055-.062 6.714-7.102a1.56 1.56 0 0 1 2.205-.062zM57.158 55.89a1.56 1.56 0 0 1-2.002.773l-.076-.033-8.83-4.19a1.56 1.56 0 0 1 1.262-2.853l.076.034 8.83 4.19c.778.37 1.11 1.3.74 2.078zM24.68 78.955a1.56 1.56 0 0 1-1.875 2.492l-.063-.047-7.66-6.069a1.56 1.56 0 0 1 1.875-2.492l.062.047 7.66 6.069zM59.917 70.925a1.56 1.56 0 0 1 1.596 2.68l-.072.043-4.915 2.751a1.56 1.56 0 0 1-1.596-2.68l.072-.042 4.915-2.752z" fill="#C6C6C6" fill-rule="nonzero"/><path d="M67.76 58.708c2.758 6.28 3.32 13.484 1.247 20.342l-8.846-4.314a2.73 2.73 0 0 1-1.506-2.834l1.394-9.919a2.73 2.73 0 0 1 2.23-2.308zM46.458 41.658l2.577 8.43a2.73 2.73 0 0 1-1.045 3.035l-8.205 5.745a2.73 2.73 0 0 1-3.209-.056l-8-6.028a2.73 2.73 0 0 1-.937-3.07l2.235-6.491a29.438 29.438 0 0 1 16.584-1.565zM17.778 64.555l1.394 9.92a2.73 2.73 0 0 1-1.507 2.833l-4.857 2.37a29.358 29.358 0 0 1-.1-17.933l2.84.501a2.73 2.73 0 0 1 2.23 2.31z" fill="#B2B2B2"/><path d="M52.167 93.53l.06.048 3.076 2.618c-.99.558-2.01 1.059-3.054 1.499l-2.044-1.74a1.56 1.56 0 0 1 1.962-2.426zM35.794 91.078a1.56 1.56 0 0 1 .773 2.005l-.033.074-2.84 5.986a29.387 29.387 0 0 1-3.015-.928l3.036-6.396a1.56 1.56 0 0 1 2.079-.74z" fill="#C6C6C6"/><path d="M40.323 73.165l8.76 4.856a2.73 2.73 0 0 1 1.357 2.909l-1.911 9.832a2.73 2.73 0 0 1-2.348 2.189l-9.941 1.22a2.73 2.73 0 0 1-2.807-1.555L29.2 83.538a2.73 2.73 0 0 1 .612-3.15l7.325-6.832a2.73 2.73 0 0 1 3.186-.39z" fill="#B2B2B2"/><path d="M149.278 87.34l-17.681-.618a1.146 1.146 0 0 0-1.193 1.097c-.19 5.443 4.13 10.012 9.65 10.205 5.519.193 10.147-4.064 10.338-9.507a1.146 1.146 0 0 0-1.114-1.177zM59.4 33.681l12.01 9.05c.432.327 1.034.258 1.343-.153 2.682-3.559 1.817-8.734-1.932-11.56-3.75-2.824-8.963-2.23-11.644 1.33-.31.41-.21 1.007.222 1.333zM141.367 81.35l7.97-12.754c.286-.46.165-1.053-.27-1.325-3.78-2.362-8.86-1.049-11.348 2.932-2.488 3.981-1.44 9.123 2.339 11.485.436.272 1.022.12 1.309-.339z" fill="#C7C5C5" fill-rule="nonzero"/><path d="M118.316 120.032l.821 1.613-.022 1.287c-.103 5.892-4.963 10.585-10.855 10.482l-27.947-.488c.434-5.375 5.071-9.461 10.491-9.177a9.994 9.994 0 0 1 3.02.632 12.988 12.988 0 0 1 7.007-10.03c6.397-3.26 14.226-.717 17.485 5.68zM83.733 74.29a17.42 17.42 0 0 1 10.482-1.902 8.5 8.5 0 0 1 4.472-8.314 8.5 8.5 0 0 1 8.876.547L91.827 82.098a9.542 9.542 0 0 1-15.038-1.102 17.413 17.413 0 0 1 6.944-6.706z" fill="#C7C5C5"/><rect fill="#C7C5C5" transform="rotate(-28 110.395 43.843)" x="104.895" y="38.343" width="11" height="11" rx="5.5"/><path d="M122.43 19.924c.54-.287 1.1-.5 1.668-.644l5.545 4.993c4.38 3.943 4.733 10.69.79 15.07l-12.638 14.036a12.49 12.49 0 0 1-2.35-3.125l-.94-1.766c-3.24-6.095-.926-13.664 5.17-16.905.147-.079.295-.154.445-.226l-.752-1.415a7.407 7.407 0 0 1 3.063-10.018z" fill="#C7C5C5"/></g></g></g></svg>