<svg viewBox="0 0 135 124" fill="none" xmlns="http://www.w3.org/2000/svg"><path d="M11 28c0-9.389 7.611-17 17-17h79c9.389 0 17 7.611 17 17v79c0 9.389-7.611 17-17 17H28c-9.389 0-17-7.611-17-17V28z" fill="#FEC701"/><path fill-rule="evenodd" clip-rule="evenodd" d="M64.756 27.426c8.2 8.2 8.2 21.497 0 29.698l-53.407 53.407a17.078 17.078 0 0 1-.348-3.442L11 51.482l24.057-24.056c8.201-8.201 21.498-8.201 29.699 0zM124 28.482v35.354l-8.995 8.997c-4.881 4.882-12.796 4.882-17.677 0-4.882-4.881-4.882-12.796 0-17.677L124 28.482z" fill="#FFD900"/><path fill-rule="evenodd" clip-rule="evenodd" d="M38.012 3.2c16.796-.674 31.584 10.979 34.856 27.467l9.817 49.463a1.694 1.694 0 0 1-1.593 2.022l-76.17 3.055a1.694 1.694 0 0 1-1.756-1.813L6.749 33.49C7.939 16.907 21.399 3.866 38.012 3.2z" fill="#F68B00"/><path d="M14.486 33.94c1.007-9.79 6.855-18.048 15.06-22.44.767 10.914 10.08 19.312 21.087 18.87l19.619-.786 1.401-.056a6.436 6.436 0 0 1 .656 12.854l1.869 12.16c1.156 7.525-4.006 14.564-11.532 15.72-.51.079-1.025.128-1.542.15l-34.685 1.39c-7.608.305-14.023-5.615-14.328-13.222a13.784 13.784 0 0 1 .062-1.964l2.333-22.676z" fill="#FFD900"/><path d="M58.933 31.697l-7.44.298a8.531 8.531 0 0 0-8.183 8.867l.238 5.935a4.162 4.162 0 0 0 4.326 3.992l4.366-.175a8.531 8.531 0 0 0 8.182-8.867l-.36-9.009a1.086 1.086 0 0 0-1.13-1.041z" fill="#FFF1A2"/><path fill-rule="evenodd" clip-rule="evenodd" d="M49.74 33.514a3.83 3.83 0 0 0-3.674 3.98l.193 4.808a3.83 3.83 0 0 0 7.654-.307l-.193-4.807a3.83 3.83 0 0 0-3.98-3.674z" fill="#F68B00"/><path d="M60.423 41.777l-17.05.684-.063-1.6a8.531 8.531 0 0 1 8.182-8.866l7.44-.299c.6-.024 1.104.443 1.128 1.042l.362 9.009v.03z" fill="#FFB100"/><path d="M24.837 33.065l7.44-.299a8.531 8.531 0 0 1 8.866 8.183l.23 5.755a4.343 4.343 0 0 1-4.164 4.513l-4.186.168a8.531 8.531 0 0 1-8.866-8.183l-.361-9.01a1.086 1.086 0 0 1 1.04-1.127z" fill="#FFF1A2"/><path fill-rule="evenodd" clip-rule="evenodd" d="M34.147 34.14a3.83 3.83 0 0 1 3.98 3.673l.194 4.807a3.83 3.83 0 1 1-7.654.307l-.193-4.806a3.83 3.83 0 0 1 3.673-3.981z" fill="#F68B00"/><path d="M41.207 42.549l-.064-1.6a8.531 8.531 0 0 0-8.866-8.183l-7.44.298c-.599.024-1.065.53-1.041 1.129l.361 9.009.001.03 17.05-.683z" fill="#FFB100"/><path fill-rule="evenodd" clip-rule="evenodd" d="M52.267 57.678c-.883.661-1.85 1.967-2.844 4.09a1.118 1.118 0 1 1-2.025-.95c1.05-2.24 2.208-3.94 3.528-4.929.675-.505 1.413-.84 2.21-.943.8-.103 1.587.038 2.341.378a1.118 1.118 0 1 1-.918 2.038c-.425-.191-.798-.242-1.139-.199-.344.045-.727.196-1.154.515zM42.678 56.614a3.428 3.428 0 0 0 3.298-3.553c-.075-1.886-3.69-6.21-3.69-6.21s-3.255 4.6-3.18 6.486c.076 1.886 1.675 3.353 3.572 3.277zM17.832 14.094l.028-.03 9.619-4.457a2.032 2.032 0 0 1 2.885 1.763l2.481 61.87A1.694 1.694 0 0 1 31.221 75l-19.21.77A2.032 2.032 0 0 1 9.9 73.822L8.496 38.832a33.872 33.872 0 0 1 9.336-24.738z" fill="#F68B00"/><path d="M68.996 104.559c0-.34.14-.665.386-.899l2.14-2.037a1.242 1.242 0 0 1 1.71 0l2.141 2.037c.246.234.385.559.385.899v7.26a1.24 1.24 0 0 1-1.24 1.241h-4.281c-.685 0-1.24-.556-1.24-1.241v-7.26z" fill="#FFB100"/><path fill-rule="evenodd" clip-rule="evenodd" d="M72.487 95.77a.62.62 0 0 1 .62.62v6.901a.62.62 0 0 1-1.24 0v-6.9a.62.62 0 0 1 .62-.62z" fill="#FFD900"/><path d="M95.984 91.48h2.485v26.396h-2.485V91.481z" fill="#F68B00"/><path d="M87.775 118.522a3.721 3.721 0 0 1 3.722-3.721h11.457a3.721 3.721 0 0 1 3.722 3.721v1.206h-18.9v-1.206zM105.863 65.05l8.275-3.177a.683.683 0 0 1 .882.392l12.736 33.179a.682.682 0 0 1-.393.881l-8.275 3.177a.683.683 0 0 1-.882-.393L105.47 65.931a.682.682 0 0 1 .393-.881z" fill="#F68B00"/><path fill-rule="evenodd" clip-rule="evenodd" d="M80.332 61.873l8.276 3.177c.352.135.527.53.392.881L76.264 99.11a.682.682 0 0 1-.881.393l-8.276-3.177a.682.682 0 0 1-.392-.881L79.45 62.265a.682.682 0 0 1 .881-.392z" fill="#F68B00"/><path d="M81.276 60.558l16.12-2.692 15.788 2.686a2.387 2.387 0 0 1 1.965 2.683l-3.091 22.222 3.41 19.221-18.071-6.834-18.413 6.834 3.41-19.22-3.09-22.215a2.388 2.388 0 0 1 1.972-2.685z" fill="#F68B00"/><path fill-rule="evenodd" clip-rule="evenodd" d="M90.87 61.734h12.714v43.108l-6.354-2.481-6.36 2.481V61.734z" fill="#FF9600"/><path d="M91.52 61.966h12.015l-5.341 24.606a.682.682 0 0 1-1.334 0l-5.34-24.606z" fill="#FFF1A2"/><path d="M99.074 61.966h-2.868l-2.368 3.22 2.815 3.822-2.115 6.86 2.323 10.704a.682.682 0 0 0 1.333 0l2.418-11.137-1.986-6.4 2.825-3.841-2.377-3.228z" fill="#FFB100"/><path fill-rule="evenodd" clip-rule="evenodd" d="M95.352 52.74h4.427c3.203 0 5.799 2.597 5.799 5.8v7.888a2.047 2.047 0 0 1-3.15 1.724l-4.862-3.11-4.864 3.11a2.047 2.047 0 0 1-3.15-1.724V58.54a5.8 5.8 0 0 1 5.8-5.8z" fill="#FFF1A2"/><path fill-rule="evenodd" clip-rule="evenodd" d="M95.222 54.107h4.662a3.28 3.28 0 0 1 3.28 3.28v.365c0 1.84-.848 3.577-2.3 4.708l-3.31 2.581-3.313-2.58a5.97 5.97 0 0 1-2.3-4.71v-.364a3.28 3.28 0 0 1 3.28-3.28z" fill="#FFD900"/><path fill-rule="evenodd" clip-rule="evenodd" d="M90.92 93.402h-9.888l-3.069 16.402h7.158a5.8 5.8 0 0 0 5.799-5.8V93.402zM103.533 93.402h9.888l3.069 16.402h-7.157a5.8 5.8 0 0 1-5.8-5.8V93.402z" fill="#F68B00"/><path d="M34.4 71.483l16.394-.658.502 12.523-16.393.657-.503-12.522z" fill="#FF9600"/><path fill-rule="evenodd" clip-rule="evenodd" d="M107.779 21.312a.607.607 0 0 0-.706.49l-.586 3.23a9.921 9.921 0 0 0-2.289.194c-1.283.256-2.333.757-3.148 1.5-.805.737-1.308 1.667-1.512 2.79-.409 2.256.584 4.267 2.977 6.034.507.376 1.123.778 1.849 1.207l-.908 5.01a2.566 2.566 0 0 1-.731-.628c-.274-.369-.433-.819-.475-1.352-.053-.668-.459-1.305-1.119-1.425l-2.511-.455c-.66-.12-1.306.32-1.316.991a6.227 6.227 0 0 0 .48 2.525c.493 1.144 1.349 2.133 2.569 2.968.731.491 1.535.89 2.412 1.194l-.442 2.437c-.059.33.16.646.49.706l2.241.406c.33.06.646-.16.706-.49l.429-2.37c1.659.116 3.076-.123 4.251-.718 1.52-.77 2.44-2.04 2.761-3.814.402-2.219-.378-4.158-2.34-5.817-.659-.558-1.489-1.121-2.491-1.69l.834-4.609c.114.1.216.21.307.33.2.255.336.54.41.855.154.652.543 1.303 1.203 1.422l2.484.45c.66.12 1.307-.32 1.304-.992a5.677 5.677 0 0 0-.474-2.252c-.466-1.081-1.232-1.987-2.298-2.717a8.834 8.834 0 0 0-2.212-1.092l.581-3.206a.607.607 0 0 0-.489-.706l-2.241-.406zm-2.003 7.648a2.453 2.453 0 0 0-.369.152c-.57.29-.909.732-1.017 1.326-.094.52.099 1.044.579 1.572.064.07.136.14.216.214l.591-3.264zm1.771 9.816l-.655 3.617c.156-.04.302-.093.439-.16.537-.268.863-.717.978-1.348.129-.715-.025-1.319-.464-1.81a3.533 3.533 0 0 0-.298-.3zM42.778 92.682a.411.411 0 0 0-.285.507l.599 2.14a6.72 6.72 0 0 0-1.337.796c-.706.535-1.198 1.15-1.474 1.845-.273.686-.305 1.402-.096 2.146.418 1.495 1.617 2.427 3.597 2.795.42.079.915.142 1.484.189l.928 3.32a1.747 1.747 0 0 1-.63-.166 1.73 1.73 0 0 1-.69-.683c-.23-.392-.666-.66-1.103-.537l-1.664.465c-.438.122-.701.581-.509.993.254.544.6 1.009 1.04 1.396.638.551 1.452.901 2.442 1.048.59.083 1.198.088 1.822.014l.452 1.615a.412.412 0 0 0 .507.286l1.485-.416a.411.411 0 0 0 .285-.507l-.44-1.571c1.046-.419 1.838-.984 2.378-1.694.698-.918.883-1.965.554-3.14-.411-1.47-1.46-2.421-3.146-2.851-.566-.146-1.238-.243-2.017-.293l-.855-3.055c.099.028.194.065.285.11.197.097.364.23.502.4.287.352.716.633 1.154.51l1.646-.46c.437-.122.701-.582.5-.99a3.833 3.833 0 0 0-.954-1.23c-.604-.522-1.338-.847-2.204-.977a5.971 5.971 0 0 0-1.67-.01l-.594-2.126a.411.411 0 0 0-.507-.285l-1.485.416zm1.042 5.25c-.066.064-.126.131-.18.202-.261.346-.337.715-.227 1.109.096.344.369.606.817.786.06.024.125.046.195.066l-.605-2.162zm3.982 5.456l.67 2.398c.083-.071.157-.147.22-.228.248-.322.314-.692.197-1.11-.132-.474-.405-.796-.817-.966a2.41 2.41 0 0 0-.27-.094zM85.884 22.907a.356.356 0 0 0-.375.335L85.4 25.16a5.803 5.803 0 0 0-1.316.277c-.726.241-1.3.608-1.72 1.098a2.834 2.834 0 0 0-.678 1.73c-.075 1.34.646 2.436 2.164 3.29.321.182.708.371 1.16.569l-.166 2.975a1.501 1.501 0 0 1-.47-.312 1.492 1.492 0 0 1-.374-.751c-.079-.385-.36-.725-.752-.748l-1.492-.083c-.392-.022-.735.28-.693.67.056.516.21.994.461 1.433.368.629.937 1.142 1.706 1.539.46.233.956.406 1.487.52l-.081 1.447c-.011.196.139.364.335.375l1.331.075a.355.355 0 0 0 .375-.336l.079-1.408c.972-.051 1.777-.292 2.417-.722.828-.556 1.271-1.361 1.33-2.415.074-1.318-.519-2.388-1.778-3.21a9.582 9.582 0 0 0-1.569-.803l.153-2.737c.073.05.14.107.202.17.134.133.234.289.3.466.136.369.41.718.801.74l1.475.083c.392.022.737-.28.686-.67a3.312 3.312 0 0 0-.437-1.274c-.349-.595-.859-1.066-1.53-1.414a5.16 5.16 0 0 0-1.364-.475l.107-1.904a.356.356 0 0 0-.335-.375l-1.331-.074zm-.613 4.587a1.45 1.45 0 0 0-.204.114c-.31.21-.475.491-.495.844-.017.309.133.6.45.871.042.036.089.072.14.109l.109-1.938zm1.735 5.574l-.12 2.149c.087-.035.169-.076.243-.125.293-.194.45-.479.471-.854.024-.424-.11-.764-.4-1.017-.055-.05-.12-.101-.194-.153z" fill="#FFF1A2"/></svg>