<svg viewBox="0 0 135 124" fill="none" xmlns="http://www.w3.org/2000/svg"><path d="M11 28c0-9.389 7.611-17 17-17h79c9.389 0 17 7.611 17 17v79c0 9.389-7.611 17-17 17H28c-9.389 0-17-7.611-17-17V28z" fill="#E5E5E5"/><path d="M30.283 18.686c-6.468 0-11.711 5.243-11.711 11.711v37.707c-.007 1.154-.148 3.64-2.847 3.842H9.37c-.693 0-1.255.561-1.255 1.254 0 7.007 5.68 12.688 12.688 12.688h55.351c7.007 0 12.688-5.68 12.688-12.688 0-.693-.562-1.254-1.255-1.254H81.65c-2.832-.212-2.847-2.939-2.847-4.002V30.397c0-6.468-5.243-11.711-11.712-11.711H30.283z" fill="#BFBFBF"/><path d="M33.629 26.773a11.01 11.01 0 0 0-5.78 1.636c.042.278.063.563.063.852v13.55a5.78 5.78 0 0 1-2.52 4.777 5.647 5.647 0 1 0-2.778 7.632v30.25h51.169V55.011a5.647 5.647 0 1 0-2.322-7.495 5.778 5.778 0 0 1-2.418-4.705v-13.55c0-.172.007-.343.022-.512a10.964 10.964 0 0 0-6.297-1.976h-29.14z" fill="#D1D1D1"/><path d="M34.658 45.584a6.576 6.576 0 0 0 12.98 0h-12.98zM50.134 45.584a6.576 6.576 0 0 0 12.98 0h-12.98z" fill="#fff"/><path d="M35.26 45.584a2.952 2.952 0 0 0 5.804 0H35.26zM50.765 45.584a2.952 2.952 0 0 0 5.804 0h-5.804zM18.71 24.262a1.812 1.812 0 0 0-1.812 1.813v3.764c0 1.001.812 1.813 1.813 1.813h59.942a1.813 1.813 0 0 0 1.812-1.813v-3.764a1.812 1.812 0 0 0-1.813-1.813H18.712zM21.777 79.056c-.847 0-1.533.687-1.533 1.534v5.298c0 .847.686 1.534 1.534 1.534h53.12c.847 0 1.534-.687 1.534-1.534V80.59c0-.847-.687-1.534-1.534-1.534h-53.12z" fill="#959595"/><path d="M37.357 23.11a10.73 10.73 0 0 1-2.445-2.022c-3.101-3.453-3.615-8.464-1.36-12.382.47-.815 1.342-.933 1.971-.232l2.461 2.682a12.54 12.54 0 0 1 10.703-5.994c6.93 0 12.548 5.618 12.548 12.548s-5.618 12.548-12.548 12.548c-4.997 0-9.311-2.92-11.33-7.148z" fill="#BFBFBF"/><path fill-rule="evenodd" clip-rule="evenodd" d="M46.11 79.631c.121-.5.57-.854 1.085-.854h3.402c.515 0 .963.353 1.084.854l2.25 9.342a1.115 1.115 0 0 1-1.084 1.376h-7.903a1.115 1.115 0 0 1-1.084-1.376l2.25-9.342z" fill="#EBE3E3"/><path fill-rule="evenodd" clip-rule="evenodd" d="M48.844 54.78a2.927 2.927 0 0 0 2.928-2.926c0-1.616-2.928-5.439-2.928-5.439s-2.928 3.823-2.928 5.439a2.927 2.927 0 0 0 2.928 2.927z" fill="#959595"/><path d="M81.365 74.48a9.568 9.568 0 0 1-.594.018c-5.157 0-9.337-4.114-9.337-9.189 0-5.074 4.18-9.188 9.337-9.188 5.155 0 9.335 4.114 9.335 9.188 0 .2-.006.397-.019.593h.02c4.83 0 8.743 3.925 8.743 8.763v1.314H81.363v-1.314c0-.062 0-.124.002-.186z" fill="#959595"/><path d="M73.953 74.35h33.196c6.22 0 11.263 5.042 11.263 11.263v5.834a4.965 4.965 0 1 1 0 9.524v6.732c0 6.22-5.043 11.263-11.263 11.263H73.953c-6.22 0-11.263-5.043-11.263-11.263v-6.83a4.964 4.964 0 1 1 0-9.329v-5.931c0-6.22 5.042-11.263 11.263-11.263z" fill="#D1D1D1"/><path fill-rule="evenodd" clip-rule="evenodd" d="M90.33 98.84a2.745 2.745 0 0 0 2.741-2.748c0-1.518-2.742-5.107-2.742-5.107s-2.741 3.59-2.741 5.107a2.745 2.745 0 0 0 2.742 2.748z" fill="#A6A6A6"/><path d="M78.958 92.389c-1.788-.572-3.665-.62-5.602-.236a8.923 8.923 0 1 1 16.574-4.595 8.927 8.927 0 0 1-5.882 8.392c-1.409-1.69-3.091-2.92-5.09-3.561z" fill="#fff"/><path d="M100.827 92.335c-1.868.598-3.46 1.712-4.81 3.235a8.923 8.923 0 1 1 11.464-3.222c-2.309-.634-4.544-.689-6.654-.013z" fill="#fff"/><path fill-rule="evenodd" clip-rule="evenodd" d="M105.945 92.012a7.482 7.482 0 1 0-8.916 2.535c1.116-1.005 2.377-1.757 3.797-2.212.464-.149.933-.262 1.408-.341a1.923 1.923 0 1 1 1.523-.141c.719-.015 1.449.04 2.188.159zm-2.221-8.05c.719 1.976-.977 2.576-3.225 3.37-.233.083-.474.168-.717.257-.243.088-.482.178-.715.265-2.245.84-3.991 1.494-4.71-.482-.794-2.18.66-4.712 3.246-5.653 2.587-.942 5.327.063 6.121 2.244zM82.993 94.823a7.482 7.482 0 1 0-8.168-2.878c1.42-.118 2.8.018 4.132.444 1.523.488 2.862 1.318 4.037 2.434zm1.787-10.86c.719 1.975-.977 2.575-3.225 3.37a80.14 80.14 0 0 0-1.432.52c-2.245.841-3.991 1.495-4.71-.481-.794-2.18.66-4.712 3.246-5.653 2.587-.942 5.327.063 6.12 2.244zm1.03 6.204a1.922 1.922 0 1 1-3.844 0 1.922 1.922 0 0 1 3.844 0z" fill="#959595"/><path d="M97.01 106.807c0 3.811-2.975 2.99-6.645 2.99-3.67 0-6.644.821-6.644-2.99 0-3.812 2.975-6.902 6.644-6.902 3.67 0 6.645 3.09 6.645 6.902z" fill="#A6A6A6"/><path d="M85.44 109.672a4.984 4.984 0 0 1 9.853 0c-.856.252-1.98.211-3.253.165-.535-.019-1.096-.04-1.674-.04-.578 0-1.139.021-1.673.04-1.273.046-2.397.087-3.254-.165z" fill="#959595"/><path d="M70.396 87.391V74.923c-4.478 1.489-7.706 5.712-7.706 10.69v5.931a4.981 4.981 0 0 1 2.67 2.315 6.672 6.672 0 0 0 5.036-6.468zM118.411 85.613c0-4.853-3.068-8.988-7.37-10.573v12.351a6.671 6.671 0 0 0 4.495 6.307 4.978 4.978 0 0 1 2.875-2.251v-5.834z" fill="#A6A6A6"/><path fill-rule="evenodd" clip-rule="evenodd" d="M47.326 64.181a8.03 8.03 0 1 1 16.062 0v4.458c0 .444-2.418 2.017-2.847 1.905a28.932 28.932 0 0 0-1.066-.254c-3.143-.69-9.561 2.192-11.549 3.14a.42.42 0 0 1-.6-.378v-8.87z" fill="#A6A6A6"/><path d="M53.372 71.21c-2.285.759-4.437 1.739-5.446 2.22a.42.42 0 0 1-.6-.378v-5.755a8.577 8.577 0 0 1 6.046 3.914z" fill="#959595"/><path d="M62.438 60.39a8.03 8.03 0 0 0-7.081-4.24 8.03 8.03 0 0 0-7.11 4.295h1.035c.934 0 1.75-.51 2.182-1.268a2.509 2.509 0 0 0 2.181 1.268h1.952c.934 0 1.75-.51 2.181-1.267a2.509 2.509 0 0 0 2.181 1.267h1.952c.181 0 .357-.019.527-.055z" fill="#fff"/></svg>