<svg viewBox="0 0 135 124" fill="none" xmlns="http://www.w3.org/2000/svg"><rect x="11" y="11" width="113" height="113" rx="17" fill="#2BE69C"/><path fill-rule="evenodd" clip-rule="evenodd" d="M9.495 29.91c1.65-14.704 14.084-25.82 28.88-25.82 14.308 0 26.487 10.415 28.708 24.55l6.902 43.927a1.474 1.474 0 0 1-1.457 1.703H6.166c-.88 0-1.563-.765-1.465-1.639L9.495 29.91z" fill="#A570FF"/><path fill-rule="evenodd" clip-rule="evenodd" d="M58.367 33.767a5.603 5.603 0 0 1 5.603-5.602h2.184a5.603 5.603 0 1 1 0 11.205H63.97a5.603 5.603 0 0 1-5.603-5.603z" fill="#FFC6B7"/><path d="M40.743 8.513c-12.274 0-22.681 9.02-24.426 21.168l-3.753 26.135c-.571 3.98 2.517 7.543 6.538 7.543H61.78c3.84 0 6.824-3.34 6.394-7.155L65.263 30.42a24.895 24.895 0 0 0-.36-2.255H47.84c-9.63 0-17.462-7.692-17.688-17.267a24.601 24.601 0 0 1 10.59-2.385z" fill="#FFC6B7"/><path fill-rule="evenodd" clip-rule="evenodd" d="M55.959 30.552a.945.945 0 0 0-.945-.945h-6.18a7.73 7.73 0 0 0-7.729 7.73v4.869c0 2 1.622 3.623 3.623 3.623h3.501a7.73 7.73 0 0 0 7.73-7.73v-7.546z" fill="#fff"/><path fill-rule="evenodd" clip-rule="evenodd" d="M50.29 36.474a3.334 3.334 0 0 0-6.67 0v4.188a3.334 3.334 0 0 0 6.67 0v-4.188z" fill="#3D3D3D"/><path d="M41.106 42.236l14.397-1.513c.295-.82.456-1.703.456-2.624v-7.546a.945.945 0 0 0-.945-.946h-6.179a7.73 7.73 0 0 0-7.73 7.73v4.899z" fill="#A570FF"/><path fill-rule="evenodd" clip-rule="evenodd" d="M24.361 30.552c0-.521.424-.945.945-.945h6.18a7.73 7.73 0 0 1 7.73 7.73v4.711a3.78 3.78 0 0 1-3.781 3.78H32.09a7.73 7.73 0 0 1-7.73-7.73v-7.546z" fill="#fff"/><path fill-rule="evenodd" clip-rule="evenodd" d="M30.033 36.474a3.334 3.334 0 1 1 6.669 0v4.188a3.334 3.334 0 1 1-6.669 0v-4.188z" fill="#3D3D3D"/><path d="M39.209 42.268L24.83 40.757a7.715 7.715 0 0 1-.469-2.658v-7.546c0-.522.424-.946.945-.946h6.18a7.73 7.73 0 0 1 7.73 7.73v4.711c0 .074-.003.147-.007.22z" fill="#A570FF"/><path fill-rule="evenodd" clip-rule="evenodd" d="M10.89 34.055c0-7.99 3.268-15.662 9.01-21.218l8.523-3.541a1.77 1.77 0 0 1 2.448 1.634v53.904c0 .814-.66 1.474-1.474 1.474H12.66a1.77 1.77 0 0 1-1.77-1.769V34.055z" fill="#A570FF"/><path fill-rule="evenodd" clip-rule="evenodd" d="M32.285 64.42c0-.523.423-.946.945-.946h12.13c.521 0 .944.423.944.945v8.864a.945.945 0 0 1-.945.945H33.23a.945.945 0 0 1-.945-.945v-8.864z" fill="#593F86"/><path d="M42.842 61.082l14.933 2.365.144-.905a7.56 7.56 0 0 0-14.934-2.365l-.143.905z" fill="#A54544"/><path fill-rule="evenodd" clip-rule="evenodd" d="M40.58 60.724a2.29 2.29 0 0 0 1.903 2.62l14.934 2.366a2.29 2.29 0 0 0 2.62-1.904l.144-.905c.851-5.373-2.815-10.42-8.188-11.27-5.374-.852-10.42 2.815-11.27 8.188l-.144.905zm2.743-1.885c-.15.428-.264.875-.338 1.338l-.143.905 14.933 2.365.143-.905a7.562 7.562 0 0 0-14.595-3.703z" fill="#FFC6B7"/><path fill-rule="evenodd" clip-rule="evenodd" d="M39.954 50.784a2.984 2.984 0 0 0 2.993-2.975c0-1.644-2.993-5.53-2.993-5.53s-2.993 3.886-2.993 5.53a2.984 2.984 0 0 0 2.993 2.975z" fill="#EE9583"/><path d="M56.667 57.057a6.875 6.875 0 0 0-8.448 4.876l9.555 1.514.143-.905c.317-2-.182-3.941-1.25-5.485z" fill="#FF4B4B"/><path d="M57.893 60.026H47.304a.687.687 0 0 0-.687.687v.967l11.157 1.767.143-.905a7.548 7.548 0 0 0-.024-2.516z" fill="#fff"/><path d="M58.252 80.004c0-19.898 16.13-36.028 36.028-36.028s36.029 16.13 36.029 36.028v3.878c0 19.898-16.131 36.028-36.029 36.028-19.898 0-36.028-16.13-36.028-36.028v-3.878z" fill="#FFB7E3"/><path d="M78.103 116.082a36.034 36.034 0 0 1-5.527-3.441c.256-.121.546-.179.85-.157 13.766 1.023 23.564-1.793 30.558-6.151 7.006-4.366 11.333-10.363 14.002-15.918a1.697 1.697 0 0 1 3.058 1.47c-2.874 5.98-7.585 12.541-15.266 17.328-6.786 4.228-15.785 7.005-27.675 6.869z" fill="#FF9BD8"/><path fill-rule="evenodd" clip-rule="evenodd" d="M65.652 80.877c0-15.838 12.84-28.677 28.678-28.677 15.838 0 28.677 12.839 28.677 28.677s-12.839 28.677-28.677 28.677-28.678-12.84-28.678-28.677z" fill="#E18E70"/><path fill-rule="evenodd" clip-rule="evenodd" d="M107.676 96.033l-.6.573.601-.572a.86.86 0 0 1-1.245 1.188h-.001l.623-.595-.623.595-.006-.007-.036-.036a7.373 7.373 0 0 0-.774-.643c-.537-.387-1.266-.808-2.087-1.013-.806-.202-1.692-.196-2.605.249-.924.45-1.967 1.394-2.989 3.238a.86.86 0 1 1-1.506-.835c1.138-2.052 2.41-3.302 3.741-3.951 1.343-.654 2.656-.652 3.778-.371 1.107.277 2.036.826 2.676 1.288a9.154 9.154 0 0 1 .969.807l.059.059.017.017.005.006.002.002h.001zM94.475 92.224c1.495 0 2.707-1.222 2.707-2.73 0-1.507-2.707-5.072-2.707-5.072s-2.707 3.565-2.707 5.073c0 1.507 1.212 2.729 2.707 2.729z" fill="#9E4D31"/><path d="M81.87 71.758a6.576 6.576 0 0 0-3.62 12.096l6.552 3.394a6.581 6.581 0 0 0 6.692-.829 6.573 6.573 0 0 0 1.151-9.229c-2.703-3.471-6.457-5.403-10.775-5.432z" fill="#fff"/><path d="M107.082 71.758a6.575 6.575 0 0 1 3.619 12.096l-6.552 3.394a6.581 6.581 0 0 1-6.692-.829 6.573 6.573 0 0 1-1.15-9.229c2.702-3.471 6.457-5.403 10.775-5.432z" fill="#fff"/><path d="M97.83 79.65a2.644 2.644 0 0 0 2.641-2.648c0-.476-.125-.923-.344-1.309a4.362 4.362 0 0 1 6.156 3.978v2.1a4.362 4.362 0 0 1-8.724 0v-2.1-.035c.089.01.18.014.271.014zM83.118 79.65a2.645 2.645 0 0 0 2.64-2.648c0-.476-.125-.923-.344-1.309a4.362 4.362 0 0 1 6.156 3.978v2.1a4.362 4.362 0 0 1-8.724 0v-2.1-.035c.09.01.18.014.272.014z" fill="#3D3D3D"/><path fill-rule="evenodd" clip-rule="evenodd" d="M70.683 68.498h23.954l-.159 10.669v3.821l-23.955-3.821.16-10.669z" fill="#E18E70"/><path d="M110.314 57.065c-6.439 6.57-18.045 17.893-39.188 17.172a10.16 10.16 0 0 1-1.575-.192 11.09 11.09 0 0 1-1.86-.335c-4.624-1.245-7.882-5.299-8.13-9.965-.051-.971.638-1.565 1.576-1.312l3.233.833c5.116 1.111 7.808-1.211 10.245-3.313.351-.303.697-.601 1.044-.884.092-.075.185-.141.28-.198a28.561 28.561 0 0 1 18.39-6.671 28.54 28.54 0 0 1 15.985 4.865z" fill="#3D3D3D"/></svg>