<svg viewBox="0 0 135 124" fill="none" xmlns="http://www.w3.org/2000/svg"><g clip-path="url(#clip0_127_2101)"><path d="M11.84 27.963c0-9.389 7.61-17 17-17h78.999c9.389 0 17 7.612 17 17v79c0 9.389-7.611 17-17 17h-79c-9.388 0-17-7.611-17-17v-79z" fill="#FFCA00"/><path d="M123.348 20.93L21.828 122.45a16.937 16.937 0 0 0 7.08 1.56h41.32l54.68-54.68V28.01a16.938 16.938 0 0 0-1.56-7.08zm-72.12 48.14l58-58c-.43 0-.87-.07-1.31-.07h-48.59l-33.08 33.09c-6.904 6.904-6.904 18.096 0 25 6.903 6.904 18.096 6.904 25 0l-.02-.02z" fill="#FFD900"/><path fill-rule="evenodd" clip-rule="evenodd" d="M67.802 15.646c2.643 9.083-2.577 18.588-11.66 21.231l-9.048 2.633c-9.082 2.643-18.587-2.577-21.23-11.66-2.643-9.082 2.577-18.588 11.66-21.23l9.047-2.633c9.083-2.643 18.588 2.577 21.231 11.66z" fill="#E27903"/><path d="M66.58 15.258L43.92 21.853c-7.431 2.162-12.308 8.864-12.49 16.209a5.084 5.084 0 1 0 2.475 9.839c3.849 6.895 12.07 10.48 19.975 8.18l22.662-6.594c7.904-2.3 12.918-9.737 12.466-17.62a5.084 5.084 0 1 0-3.19-9.63c-4.095-6.102-11.805-9.141-19.237-6.979z" fill="#FFB100"/><path fill-rule="evenodd" clip-rule="evenodd" d="M61.806 41.085a2.426 2.426 0 0 0 1.652-3.007c-.375-1.286-3.59-3.65-3.59-3.65l-.133.358c-.348.962-1.24 3.605-.937 4.648a2.426 2.426 0 0 0 3.008 1.65z" fill="#F68B00"/><path d="M33.486 50.877a2.427 2.427 0 1 0-1.356-4.66 2.427 2.427 0 0 0 1.356 4.66z" fill="#C86902"/><path d="M67.612 14.992c6.236-1.412 12.543.753 16.632 5.239l-7.948 2.313a6.228 6.228 0 0 1-7.72-4.24l-.964-3.312z" fill="#FF9600"/><path fill-rule="evenodd" clip-rule="evenodd" d="M69.926 44.071c-.77.944-.953 2.012-.903 2.651a1.019 1.019 0 0 1-2.03.161c-.088-1.105.217-2.707 1.355-4.1 1.161-1.423 3.106-2.527 6.108-2.754a1.019 1.019 0 0 1 .153 2.032c-2.548.193-3.935 1.095-4.683 2.01z" fill="#F68B00"/><path d="M58.647 26.732a5.558 5.558 0 0 1 3.783-6.89l.199-.057a5.558 5.558 0 0 1 6.89 3.784l1.605 5.518a5.558 5.558 0 0 1-3.784 6.889l-.198.058a5.558 5.558 0 0 1-6.89-3.784l-1.605-5.518zM56.642 27.315a5.558 5.558 0 0 0-6.889-3.783l-.199.058a5.558 5.558 0 0 0-3.783 6.889l1.606 5.518a5.558 5.558 0 0 0 6.889 3.784l.199-.058a5.558 5.558 0 0 0 3.783-6.89l-1.606-5.518z" fill="#FFF1A2"/><path d="M59.977 29.594a2.55 2.55 0 0 1 4.897-1.425l.697 2.396a2.55 2.55 0 1 1-4.896 1.424l-.698-2.395zM51.65 32.017a2.55 2.55 0 0 0-4.895 1.424l.697 2.396a2.55 2.55 0 0 0 4.896-1.425l-.697-2.395z" fill="#E27903"/><path d="M71.129 29.103l-10.871 3.164-.005-.017-1.606-5.518a5.558 5.558 0 0 1 3.784-6.89l.198-.057a5.558 5.558 0 0 1 6.89 3.784l1.605 5.518.005.016zM47.382 36.014l10.871-3.164-.005-.017-1.606-5.518a5.558 5.558 0 0 0-6.889-3.783l-.198.058a5.558 5.558 0 0 0-3.784 6.889l1.606 5.518.005.017z" fill="#FF9600"/><path fill-rule="evenodd" clip-rule="evenodd" d="M50.377 21.947l.323 1.11c1.961 6.74-1.913 13.794-8.653 15.756-6.74 1.96-13.794-1.913-15.756-8.653l-.323-1.11c-1.961-6.74 1.913-13.794 8.653-15.756 6.74-1.96 13.794 1.913 15.756 8.653z" fill="#E27903"/><path d="M109.101 50.577c5.07 1.488 10.386-1.417 11.873-6.487a9.567 9.567 0 0 0-6.488-11.873 9.567 9.567 0 1 0-5.385 18.36zM97.446 49.579c-10.532-3.09-21.574 2.944-24.663 13.476-3.09 10.532 2.944 21.574 13.476 24.663l22.003 6.454c10.532 3.089 21.574-2.944 24.663-13.476 3.089-10.532-2.944-21.574-13.476-24.663l-22.003-6.454z" fill="#E27903"/><path d="M131.998 83.218c-3.988 8.947-14.077 13.787-23.736 10.954l-22.003-6.454c-9.66-2.833-15.535-12.356-14.059-22.04l59.798 17.54z" fill="#FFF1A2"/><path d="M80.315 68.058l4.035 1.184a5.163 5.163 0 0 0 6.407-3.501l1.595-5.438 25.131 7.371-1.595 5.438a5.163 5.163 0 0 0 3.502 6.408l4.494 1.318a19.104 19.104 0 0 1-.52 8.546l-2.62 8.933c-1.624 5.536-7.428 8.707-12.964 7.084L80.6 97.428c-5.537-1.624-8.708-7.428-7.084-12.964l2.62-8.933a19.1 19.1 0 0 1 4.179-7.473z" fill="#FFB100"/><path fill-rule="evenodd" clip-rule="evenodd" d="M84.089 70.136a.596.596 0 0 1 .839-.082l3.338 2.739a.596.596 0 0 1-.29 1.05l-4.331.645a.596.596 0 1 1-.176-1.179l3.002-.447-2.3-1.887a.596.596 0 0 1-.082-.839zM119.585 80.548a.596.596 0 0 0-.662-.523l-4.288.502a.596.596 0 0 0-.323 1.041l3.296 2.882a.596.596 0 1 0 .784-.897l-2.284-1.998 2.954-.346a.597.597 0 0 0 .523-.661zM100.059 98.528a.596.596 0 0 1-.457.709c-4.333.935-7.662-1.32-8.815-2.603a.596.596 0 0 1 .886-.797c.955 1.061 3.876 3.055 7.678 2.234a.596.596 0 0 1 .708.457z" fill="#FF9600"/><path fill-rule="evenodd" clip-rule="evenodd" d="M104.895 91.917c-.452.226-.995.036-1.295-.37a5.338 5.338 0 0 0-3.827-2.152l-8.633-.765a.914.914 0 1 1 .161-1.821l8.633.765a7.166 7.166 0 0 1 5.319 3.145c.281.419.093.972-.358 1.198z" fill="#F68B00"/><path d="M102.429 76.942l-.143.488a5.523 5.523 0 0 0 .947 4.96 20.289 20.289 0 0 1 5.053.204c.982.16 1.927.384 2.823.661a5.505 5.505 0 0 0 1.79-2.712l.143-.488-10.613-3.113zM89.861 73.256l-.143.487a5.505 5.505 0 0 0 .041 3.25c.903.25 1.819.573 2.732.968a20.292 20.292 0 0 1 4.364 2.558 5.522 5.522 0 0 0 3.476-3.663l.143-.487-10.613-3.113z" fill="#FFF1A2"/><path d="M99.01 75.94l-.103.35a2.49 2.49 0 0 1-4.78-1.402l.103-.35 4.78 1.401zM108.673 78.774l-.102.35a2.49 2.49 0 1 1-4.78-1.402l.102-.35 4.78 1.402z" fill="#E27903"/><path fill-rule="evenodd" clip-rule="evenodd" d="M88.385 70.912a1.759 1.759 0 0 1 2.252-1.055l10.688 3.868a1.759 1.759 0 0 1-1.197 3.308L89.44 73.165a1.759 1.759 0 0 1-1.055-2.253zM116.445 74.671a1.76 1.76 0 0 1-2.051 1.408l-11.068-2.055a1.759 1.759 0 0 1 .642-3.459l11.069 2.056a1.759 1.759 0 0 1 1.408 2.05z" fill="#E27903"/><path d="M101.309 77.141c.116.034.664 1.963 1.207 3.977.541 2.004-1.327 3.808-3.319 3.224-1.992-.584-2.589-3.112-1.051-4.506 1.544-1.402 3.047-2.728 3.163-2.695z" fill="#F68B00"/><path d="M29.238 74.269a3.757 3.757 0 0 1-4.082 3.4l-1.78-.162a3.757 3.757 0 1 1 .682-7.483l1.78.163a3.757 3.757 0 0 1 3.4 4.082z" fill="#FFF1A2"/><path d="M16.485 81.203a.804.804 0 0 1 .256-1.058l26.381-18.04a.804.804 0 0 1 1.079.145c1.878 2.265 8.97 10.899 13.282 17.205 4.313 6.307 9.786 16.047 11.217 18.62a.805.805 0 0 1-.256 1.057l-26.382 18.041a.805.805 0 0 1-1.078-.145c-1.878-2.266-8.97-10.899-13.283-17.206-4.313-6.306-9.786-16.047-11.216-18.619z" fill="#FF9600"/><path d="M38.851 114.429c-2.978-3.663-7.869-9.809-11.15-14.607-3.282-4.798-7.235-11.585-9.568-15.689l28.2-19.284c2.979 3.662 7.869 9.808 11.15 14.606 3.282 4.799 7.235 11.585 9.568 15.69l-28.2 19.284z" fill="#FFB100"/><path d="M30.017 88.085a6.525 6.525 0 0 1 3.089-8.695l7.741-3.684a6.525 6.525 0 0 1 8.696 3.089l1.373 2.887a6.525 6.525 0 0 1-3.088 8.695l-7.742 3.684a6.525 6.525 0 0 1-8.695-3.089l-1.374-2.887z" fill="#FFCA00"/><path d="M39.23 105.095a3.151 3.151 0 0 1 1.492-4.199l4.047-1.925a3.15 3.15 0 1 1 2.707 5.689l-4.047 1.926a3.15 3.15 0 0 1-4.198-1.491zM51.784 98.632a3.757 3.757 0 0 1-1.3-5.152l.917-1.534a3.757 3.757 0 1 1 6.45 3.852l-.916 1.534a3.757 3.757 0 0 1-5.151 1.3zM24.379 68.285a3.757 3.757 0 0 1-1.3-5.152l.917-1.534a3.757 3.757 0 1 1 6.45 3.852l-.915 1.535a3.757 3.757 0 0 1-5.152 1.299z" fill="#FFF1A2"/><path d="M44.804 101.429a3.757 3.757 0 0 1-1.3-5.152l.917-1.534a3.757 3.757 0 0 1 6.45 3.852l-.916 1.535a3.757 3.757 0 0 1-5.151 1.299zM7.407 65.034a3.757 3.757 0 0 1 2.012-4.917l1.648-.691a3.757 3.757 0 0 1 2.906 6.93l-1.648.69a3.757 3.757 0 0 1-4.918-2.012z" fill="#FFF1A2"/><path d="M31.381 94.73a4.894 4.894 0 0 1-.432-6.907L41.698 75.64a4.894 4.894 0 0 1 7.34 6.474l-10.75 12.185a4.894 4.894 0 0 1-6.907.432z" fill="#FF9600"/></g><defs><clipPath id="clip0_127_2101"><path fill="#fff" d="M0 0h135v124H0z"/></clipPath></defs></svg>