<svg viewBox="0 0 135 124" version="1.1" xmlns="http://www.w3.org/2000/svg" xmlns:xlink="http://www.w3.org/1999/xlink"><defs><ellipse id="a" cx="47.19" cy="47.312" rx="47.19" ry="47.312"/><path id="c" d="M.314 29.153l18.054-6.033 9.82-19.685L39.274.259l10.45 17.782 13.937 6.986 6.65 14.289 13.3 9.524-50.04 11.114L.314 45.983z"/></defs><g stroke="none" stroke-width="1" fill="none" fill-rule="evenodd"><g transform="translate(11 11)" fill="#0891E9"><rect x="0" y="0" width="113" height="113" rx="17"/></g><g><g><path d="M82.833 16.08c2.155 2.15 4.802 2.086 8.613 2.315 2.54.152 1.545 3.653-2.989 10.502l-7.997-4.572c.145-6.93.936-9.678 2.373-8.245z" fill="#ADE756"/><path d="M1.69 40.54c.83-6.76 5.343-13.065 3.412-23.713-1.289-2.75 1.567-2.4 8.568 1.052l-2.586 21.062c-6.816 5.572-9.947 6.105-9.394 1.598z" fill="#78C800"/><path d="M74.433 75.242l8.887-13.658a4.84 4.84 0 0 1 8.463.637l3.6 7.918a4.84 4.84 0 0 1-.393 4.71l-5.192 7.696a4.84 4.84 0 0 1-5.266 1.969l-7.296-1.957a4.84 4.84 0 0 1-2.803-7.315z" fill="#E59B82"/><g transform="rotate(-83 48.316 47.165)"><mask id="b" fill="#fff"><use xlink:href="#a"/></mask><use fill="#ADE756" xlink:href="#a"/><g mask="url(#b)"><g transform="translate(0 43.56)"><mask fill="#fff"><use xlink:href="#c"/></mask><use stroke="none" fill="#C9F882" fill-rule="evenodd" xlink:href="#c"/></g></g></g><path d="M77.145 28.776l-.267.04a18.256 18.256 0 0 0-13.807 10.025l-.131.272-.435.923a11.59 11.59 0 0 1-8.229 6.432l-.359.066a17.816 17.816 0 0 0-13.502 11.061 3.811 3.811 0 0 0 7.047 2.905l.053-.13a10.193 10.193 0 0 1 7.493-6.285l.345-.064a19.212 19.212 0 0 0 13.913-10.456l.135-.281.435-.923a10.633 10.633 0 0 1 7.879-5.96l.24-.038a21.315 21.315 0 0 0 14.497-8.943l.183-.267 1.915-2.848a3.812 3.812 0 0 0-6.247-4.368l-.08.115-1.915 2.849a13.691 13.691 0 0 1-9.163 5.875z" fill="#ADE756" fill-rule="nonzero"/></g><path d="M1.246 43.6l.16-.062 3.98-1.44a17.797 17.797 0 0 0 10.31-9.752l.116-.279a21.643 21.643 0 0 1 15.52-13.011l.318-.066 1.234-.245a15.2 15.2 0 0 0 10.813-8.473l.172-.381a21.09 21.09 0 0 1 7.177-8.705c1.006.06 2.016.151 3.03.275a47.532 47.532 0 0 1 11.229 2.79c-1.153.364-2.34.636-3.555.81l-.33.046a13.477 13.477 0 0 0-10.478 7.647l-.166.365a22.823 22.823 0 0 1-16.08 13.036l-.33.068-1.233.244a14.02 14.02 0 0 0-10.157 8.226l-.103.246a25.42 25.42 0 0 1-14.56 14.203l-.331.122-3.98 1.442a3.8 3.8 0 0 1-2.938-.144c-.11-2.29-.053-4.615.182-6.962zM13.979 59.245l.13-.05 3.98-1.441a17.797 17.797 0 0 0 10.31-9.75l.115-.28a21.643 21.643 0 0 1 15.52-13.011l.319-.066 1.233-.245A15.2 15.2 0 0 0 56.4 25.93l.173-.381a21.1 21.1 0 0 1 16.259-12.301l.317-.044a14.904 14.904 0 0 0 4.963-1.554 47.248 47.248 0 0 1 5.703 5.465 22.51 22.51 0 0 1-9.361 3.605l-.33.045a13.477 13.477 0 0 0-10.479 7.647l-.165.365A22.823 22.823 0 0 1 47.4 41.812l-1.563.312a14.02 14.02 0 0 0-10.157 8.226l-.103.246a25.42 25.42 0 0 1-14.56 14.203l-.331.122-3.98 1.442a3.811 3.811 0 0 1-2.726-7.118z" fill="#A1DE46"/><path d="M1.365 42.534a46.881 46.881 0 0 1 10.57-24.424l6.092 2.06 6.29 19.12 14.517 9.44 6.86 18.392L62.95 77.697l4.814 13.646c-7.63 3.434-16.272 4.89-25.19 3.795C16.639 91.954-1.811 68.402 1.365 42.534z" fill="#78C800"/><path d="M50.993 75.36l-.28-.117A21.643 21.643 0 0 1 37.7 59.723l-.066-.319-.245-1.233a15.2 15.2 0 0 0-8.473-10.813l-.381-.173a21.1 21.1 0 0 1-12.301-16.259l-.044-.316a14.914 14.914 0 0 0-7.588-11.152l-.242-.13-1.587-.838a3.811 3.811 0 0 1 3.43-6.806l.128.065 1.588.838a22.537 22.537 0 0 1 11.787 16.717l.045.33a13.477 13.477 0 0 0 7.647 10.479l.365.165A22.823 22.823 0 0 1 44.8 56.358l.068.33.244 1.233a14.02 14.02 0 0 0 8.226 10.158l.246.102a25.805 25.805 0 0 1 14.299 14.472l.127.33 1.393 3.694a3.812 3.812 0 0 1-7.082 2.82l-.051-.13-1.393-3.695a18.182 18.182 0 0 0-9.884-10.312z" fill="#78C800" fill-rule="nonzero"/><path d="M4.693 29.997l.175.22A22.53 22.53 0 0 1 9.48 40.958l.045.33a13.477 13.477 0 0 0 7.647 10.479l.365.165a22.823 22.823 0 0 1 13.036 16.08l.068.33.245 1.233a14.02 14.02 0 0 0 8.225 10.157l.246.103a25.42 25.42 0 0 1 14.203 14.56l.288.787a47.36 47.36 0 0 1-8.151.236 17.793 17.793 0 0 0-8.932-8.405l-.28-.116a21.643 21.643 0 0 1-13.01-15.52l-.066-.319-.245-1.233a15.2 15.2 0 0 0-8.473-10.813l-.382-.173a21.1 21.1 0 0 1-12.3-16.259l-.044-.317a14.925 14.925 0 0 0-.317-1.685 46.964 46.964 0 0 1 3.046-10.582z" fill="#6DB600"/></g><g transform="rotate(-10 338.821 -303.047)"><rect stroke="#EA2B2B" stroke-width="6" fill="#FF4B4B" x="0" y="0" width="66" height="66" rx="33"/><path d="M19.271 11.372C23.202 8.791 27.778 7.5 33 7.5c5.222 0 9.798 1.29 13.729 3.872a3 3 0 0 1 .565 4.535L34.106 30.294a1.5 1.5 0 0 1-2.212 0L18.706 15.907a3 3 0 0 1 .565-4.535zM19.271 54.628C23.202 57.209 27.778 58.5 33 58.5c5.222 0 9.798-1.29 13.729-3.872a3 3 0 0 0 .565-4.535L34.106 35.706a1.5 1.5 0 0 0-2.212 0L18.706 50.093a3 3 0 0 0 .565 4.535z" fill="#EA2B2B"/><g transform="rotate(90 21.25 37.25)"><path d="M3.271 3.872C7.202 1.291 11.778 0 17 0c5.222 0 9.798 1.29 13.729 3.872a3 3 0 0 1 .565 4.535L18.106 22.794a1.5 1.5 0 0 1-2.212 0L2.706 8.407a3 3 0 0 1 .565-4.535zM3.271 47.128C7.202 49.709 11.778 51 17 51c5.222 0 9.798-1.29 13.729-3.872a3 3 0 0 0 .565-4.535L18.106 28.206a1.5 1.5 0 0 0-2.212 0L2.706 42.593a3 3 0 0 0 .565 4.535z" fill="#EA2B2B"/><rect fill="#FF4B4B" transform="rotate(45 17 26.121)" x="5" y="14.121" width="24" height="24" rx="11.25"/></g><path stroke="#FF5700" stroke-width="3" stroke-linecap="round" d="M39.281 48l.938 2.06M26.719 48l-.938 2.06M33 49.383v2.44"/><g stroke="#FF5700" stroke-linecap="round" stroke-width="3"><path d="M39.281 18l.938-2.06M26.719 18l-.938-2.06M33 16.617v-2.44"/></g><g stroke="#FF5700" stroke-linecap="round" stroke-width="3"><path d="M17.25 38.531l-2.06.938M17.25 25.969l-2.06-.938M15.867 32.25h-2.44"/></g><g stroke="#FF5700" stroke-linecap="round" stroke-width="3"><path d="M47.25 38.531l2.06.938M47.25 25.969l2.06-.938M48.633 32.25h2.44"/></g></g><g fill="#DBE3E5"><path d="M41.952 93.424a3.865 3.865 0 0 1-4.693-2.591L18.68 30.769a6.267 6.267 0 1 1 12.098-3.242L44.72 88.833a3.865 3.865 0 0 1-2.768 4.59z"/><path d="M33.394 100.093l-2.603-5.736c-2.549-5.62-.06-12.241 5.56-14.79a11.173 11.173 0 0 1 1.723-.617c5.96-1.597 12.087 1.94 13.684 7.9.158.59.267 1.193.327 1.801l.616 6.27-19.307 5.172z"/><path d="M52.902 113.456a1.864 1.864 0 0 1-2.046-1.658l-2.273-21.441a1.857 1.857 0 0 1 1.654-2.043 1.864 1.864 0 0 1 2.047 1.657l2.273 21.442a1.857 1.857 0 0 1-1.655 2.043zM48.496 117.848a1.86 1.86 0 0 1-2.278-1.315l-5.582-20.831a1.86 1.86 0 0 1 3.594-.963l5.581 20.831a1.86 1.86 0 0 1-1.315 2.278zM42.596 116.217a1.864 1.864 0 0 0 .943-2.458l-7.992-17.994a1.857 1.857 0 0 0-2.454-.942 1.864 1.864 0 0 0-.944 2.458l7.993 17.994a1.857 1.857 0 0 0 2.454.942z"/><path d="M49.928 102.92c-.294-2.89-4.177-2.334-3.313.888.575 2.149.326 2.286-.747.413l-3.169-9.074 8.076-1.134.455 9.952c-.673 1.23-1.107.883-1.302-1.044zM40.06 105.565c-1.192-2.65 2.449-4.11 3.312-.888.576 2.149.86 2.143.853-.016l-1.793-9.443-7.56 3.056 4.581 8.847c1.199.73 1.4.21.606-1.556z"/></g></g></svg>