<svg viewBox="0 0 136 124" fill="none" xmlns="http://www.w3.org/2000/svg"><path d="M12 28c0-9.389 7.611-17 17-17h79c9.389 0 17 7.611 17 17v79c0 9.389-7.611 17-17 17H29c-9.389 0-17-7.611-17-17V28z" fill="#E5E5E5"/><path d="M57.61 13.87C54.284 6.583 46.571 1.895 38.167 2.794 27.665 3.917 20.06 13.343 21.184 23.846c.049.459.114.912.194 1.358-3.926 4.372-6.052 10.328-5.378 16.63 1.261 11.788 11.839 20.322 23.627 19.06 9.588-1.025 17.024-8.216 18.785-17.209 3.545 6.732 10.941 10.968 18.966 10.11 10.504-1.123 18.108-10.55 16.985-21.053-1.124-10.504-10.55-18.108-21.053-16.985a19.11 19.11 0 0 0-5.9 1.61c-5.41 1.516-8.622-1.44-9.8-3.496z" fill="#959595"/><path fill-rule="evenodd" clip-rule="evenodd" d="M23.407 55.385a34.674 34.674 0 0 0-.029 7.67l1.896 17.722a8.281 8.281 0 0 0 9.115 7.353l53.368-5.708a8.281 8.281 0 0 0 7.353-9.115l-1.895-17.722c-2.03-18.975-19.058-32.712-38.033-30.682l-1.121.12a34.43 34.43 0 0 0-22.354 11.632l1.007 9.411a8.376 8.376 0 0 1-7.438 9.22L24.2 55.4c-.27.029-.537.022-.794-.016zm68.156-7.29a34.517 34.517 0 0 0-12.076-16.552l1.007 9.412a8.377 8.377 0 0 0 9.22 7.438l1.074-.114c.272-.03.531-.092.775-.184z" fill="#BFBFBF"/><path d="M27.627 54.096a5.853 5.853 0 1 1-11.64 1.245 5.853 5.853 0 0 1 11.64-1.245zm70.875-7.581a5.853 5.853 0 1 1-11.64 1.245 5.853 5.853 0 0 1 11.64-1.245z" fill="#BFBFBF"/><path d="M40.83 44.447a6.806 6.806 0 0 1 6.043-7.49l.72-.078a6.806 6.806 0 0 1 7.49 6.044l.498 4.648a6.806 6.806 0 0 1-6.044 7.49l-.72.078a6.806 6.806 0 0 1-7.49-6.044l-.498-4.648z" fill="#fff"/><path d="M46.793 44.44a3.175 3.175 0 0 1 6.314-.676l.44 4.104a3.175 3.175 0 0 1-6.315.675l-.44-4.103z" fill="#959595"/><path d="M72.22 41.09a6.806 6.806 0 0 0-7.491-6.044l-.72.077a6.806 6.806 0 0 0-6.043 7.492l.497 4.647a6.806 6.806 0 0 0 7.491 6.044l.72-.077a6.806 6.806 0 0 0 6.043-7.491l-.497-4.648z" fill="#fff"/><path d="M66.388 42.343a3.175 3.175 0 1 0-6.314.676l.44 4.104a3.175 3.175 0 1 0 6.313-.676l-.439-4.104z" fill="#959595"/><path d="M73.966 40.662l-16.546-.863.972-8.133 15.621.83-.047 8.166z" fill="#DA8E74"/><path d="M35.855 33.77l39.043-4.176 1.421 13.288-39.042 4.176-1.422-13.288z" fill="#BFBFBF"/><path fill-rule="evenodd" clip-rule="evenodd" d="M54.602 32.315a3.665 3.665 0 0 1-2.497 4.54l-10.24 2.973a3.665 3.665 0 0 1-2.043-7.04l10.24-2.971a3.665 3.665 0 0 1 4.54 2.498zm19.78 10.028a3.665 3.665 0 0 1-3.659 3.67l-10.662.018a3.665 3.665 0 0 1-.011-7.33l10.662-.017a3.665 3.665 0 0 1 3.67 3.66z" fill="#959595"/><path fill-rule="evenodd" clip-rule="evenodd" d="M45.435 66.496a6.806 6.806 0 0 0-12.108 6.219c2.433 4.846 9.164 9.444 19.007 8.391a6.806 6.806 0 0 0-1.448-13.535c-4.168.446-5.447-1.163-5.48-1.138a.223.223 0 0 0 .029.063z" fill="#fff"/><path d="M53.03 60.932a9.377 9.377 0 0 1 11.873-5.905l7.83 2.628a9.376 9.376 0 1 1-5.967 17.778l-7.83-2.628a9.376 9.376 0 0 1-5.906-11.873z" fill="#959595"/><path d="M36.453 64.728a9.376 9.376 0 0 1 8.353-10.299l8.216-.856a9.376 9.376 0 0 1 1.945 18.652l-8.216.856a9.376 9.376 0 0 1-10.298-8.353z" fill="#959595"/><path d="M62.107 53.517a4.409 4.409 0 1 1-8.767.937 4.409 4.409 0 0 1 8.767-.937z" fill="#BFBFBF"/><path fill-rule="evenodd" clip-rule="evenodd" d="M110.403 56.227a8.29 8.29 0 0 0-8.603 7.55l-1.683 18.947 10.862 1.285a4.395 4.395 0 0 0 4.881-3.849l.007-.063 1.624-15.674a7.437 7.437 0 0 0-7.088-8.196z" fill="#959595"/><path fill-rule="evenodd" clip-rule="evenodd" d="M99.938 50.88a1.88 1.88 0 0 1 1.88 1.88v1.669a1.88 1.88 0 0 1-3.76 0v-1.67a1.88 1.88 0 0 1 1.88-1.88zm4.955 4.655c1.227 0 2.222.995 2.222 2.222v1.89a2.222 2.222 0 0 1-4.443 0v-1.89a2.22 2.22 0 0 1 2.221-2.221z" fill="#fff"/><path fill-rule="evenodd" clip-rule="evenodd" d="M95.752 57.805h1.54a8.65 8.65 0 0 1 8.481 6.95l3.734 18.647h-4.956a12.332 12.332 0 0 1-11.698-8.428l-2.998-8.984a6.217 6.217 0 0 1 5.897-8.185z" fill="#fff"/><path d="M90.562 124h-3.48c-1.048-5.783-2.734-10.542-5.03-14.306l2.926-1.783c2.633 4.319 4.483 9.693 5.584 16.089zm6.294 0h-3.423v-21.229a1.711 1.711 0 0 1 3.423 0V124zm9.909 0h-6.453a15.408 15.408 0 0 1-1.562-3.236c-.877-2.547-1.069-5.331-.575-8.35a.623.623 0 0 1 1.037-.357c1.859 1.716 3.249 3.593 4.17 5.632V83.761a1.711 1.711 0 1 1 3.423 0v39.869c0 .127-.014.251-.04.37zm9.524-2.421a16.91 16.91 0 0 1-7.803 2.395c-.335-15.237 1.851-26.997 6.774-35.074l2.925 1.784c-3.953 6.485-6.102 15.923-6.292 28.461.803-.869 1.838-1.566 3.081-2.1l.344-.147.069.044a1.324 1.324 0 0 1 1.432 1.301c.017 1.217-.156 2.332-.53 3.336z" fill="#959595"/><path fill-rule="evenodd" clip-rule="evenodd" d="M89.833 74.237a8.29 8.29 0 0 1 8.603 7.55l1.684 18.947-10.863 1.285a4.396 4.396 0 0 1-4.888-3.912l-1.624-15.673a7.437 7.437 0 0 1 7.088-8.197z" fill="#fff"/><path fill-rule="evenodd" clip-rule="evenodd" d="M100.298 69.89a1.88 1.88 0 0 0-1.88 1.88v1.669a1.88 1.88 0 0 0 3.76 0v-1.67a1.88 1.88 0 0 0-1.88-1.879zm-4.955 4.656a2.221 2.221 0 0 0-2.221 2.221v1.89a2.221 2.221 0 1 0 4.442 0v-1.89a2.221 2.221 0 0 0-2.22-2.221z" fill="#BFBFBF"/><path fill-rule="evenodd" clip-rule="evenodd" d="M104.485 76.815h-1.541a8.65 8.65 0 0 0-8.48 6.951l-3.735 18.646h4.957a12.331 12.331 0 0 0 11.697-8.427L110.382 85a6.217 6.217 0 0 0-5.897-8.185z" fill="#BFBFBF"/><path d="M68.792 101.272a6.38 6.38 0 0 1 11.83-4.78l1.983 4.907a6.38 6.38 0 1 1-11.83 4.779l-1.983-4.906z" fill="#959595"/><path fill-rule="evenodd" clip-rule="evenodd" d="M77.931 87.007a2.256 2.256 0 0 0-2.256 2.255v2.024a2.256 2.256 0 0 0 4.513 0v-2.023a2.256 2.256 0 0 0-2.257-2.257zm-4.314 7.659a1.79 1.79 0 0 0-1.79 1.789v1.4a1.79 1.79 0 0 0 3.58 0v-1.4a1.79 1.79 0 0 0-1.79-1.79z" fill="#fff"/><path fill-rule="evenodd" clip-rule="evenodd" d="M81.46 89.44l-.63.255a6.695 6.695 0 0 0-4.186 6.12l-.133 9.953a6.465 6.465 0 0 0 8.888 6.081c4.98-2.012 7.386-7.68 5.374-12.66l-2.826-6.995a4.983 4.983 0 0 0-6.487-2.753z" fill="#BFBFBF"/><path fill-rule="evenodd" clip-rule="evenodd" d="M73.97 98.51l-2.812 1.135a3.27 3.27 0 0 0-1.806 4.257l1.311 3.246c2.044 5.059 7.802 7.503 12.86 5.459l2.527-1.02-3.877-9.595a6.302 6.302 0 0 0-8.203-3.482z" fill="#BFBFBF"/><path d="M131.446 82.262a6.38 6.38 0 1 0-11.83-4.78l-1.982 4.906a6.38 6.38 0 1 0 11.83 4.78l1.982-4.906z" fill="#BFBFBF"/><path fill-rule="evenodd" clip-rule="evenodd" d="M122.307 67.996a2.256 2.256 0 0 1 2.256 2.256v2.023a2.256 2.256 0 1 1-4.512 0v-2.023a2.256 2.256 0 0 1 2.256-2.256zm4.313 7.659a1.79 1.79 0 0 1 1.789 1.79v1.4a1.79 1.79 0 0 1-3.579 0v-1.4c0-.988.801-1.79 1.79-1.79z" fill="#fff"/><path fill-rule="evenodd" clip-rule="evenodd" d="M118.776 70.43l.63.255a6.695 6.695 0 0 1 4.187 6.12l.132 9.953a6.466 6.466 0 0 1-8.888 6.08c-4.98-2.011-7.385-7.68-5.373-12.659l2.826-6.995a4.982 4.982 0 0 1 6.486-2.753z" fill="#BFBFBF"/><path fill-rule="evenodd" clip-rule="evenodd" d="M126.269 79.5l2.811 1.135a3.27 3.27 0 0 1 1.807 4.257l-1.312 3.246c-2.044 5.059-7.802 7.503-12.86 5.459l-2.526-1.02 3.876-9.595a6.302 6.302 0 0 1 8.204-3.483z" fill="#fff"/></svg>