<svg viewBox="0 0 135 124" fill="none" xmlns="http://www.w3.org/2000/svg"><g clip-path="url(#clip0)"><path d="M124 28v79a16.991 16.991 0 0 1-.56 4.31l-.06.24-.09.33a16.999 16.999 0 0 1-8.21 10.07 16.489 16.489 0 0 1-5.79 1.89c-.758.109-1.524.163-2.29.16H27.82A16.998 16.998 0 0 1 11 107.44V28a17 17 0 0 1 17-17h79a17 17 0 0 1 17 17z" fill="#FFC800"/><path d="M32.2 86.74h29.6a6.67 6.67 0 0 1 6.67 6.67V124H27.53a2 2 0 0 1-2-2V93.41a6.67 6.67 0 0 1 6.67-6.67z" fill="#F89700"/><path d="M26.58 71.03a8.05 8.05 0 1 0 0-16.1 8.05 8.05 0 0 0 0 16.1zM70.13 71.03a8.05 8.05 0 1 0 0-16.1 8.05 8.05 0 0 0 0 16.1z" fill="#FFB100"/><path d="M66 63H30.08a5.47 5.47 0 0 1-5.47-5.47V42.62c-1.11-4.38 2.45-7.94 6.84-7.94h33.17c4.39 0 7.94 3.56 6.83 7.94v14.89A5.471 5.471 0 0 1 66 63z" fill="#F68F00"/><path d="M56.73 86.6l-8.81 8-8.81-8V75.31h17.62V86.6z" fill="#FFB100"/><path d="M69.8 39.52V62.3A21.759 21.759 0 0 1 48 84.06a21.78 21.78 0 0 1-21.73-21.78V39.52a12.67 12.67 0 0 1 12.67-12.67h18.19A12.67 12.67 0 0 1 69.8 39.52z" fill="#FFC800"/><path d="M65.83 40.52s-.26 6.82 4.82 9.62v-9.62h-4.82zM30.29 40.52s.26 6.82-4.82 9.62v-9.62h4.82z" fill="#F68F00"/><path d="M39.47 49.19h-.01a5.52 5.52 0 0 0-5.52 5.52v4.25a5.52 5.52 0 0 0 5.52 5.52h.01a5.52 5.52 0 0 0 5.52-5.52v-4.25a5.52 5.52 0 0 0-5.52-5.52z" fill="#FEE166"/><path d="M39.94 53.9a2.22 2.22 0 0 0-4.44 0v2.81a2.22 2.22 0 1 0 4.44 0V53.9z" fill="#F89700"/><path d="M56.6 64.48h.01a5.52 5.52 0 0 0 5.52-5.52v-4.25a5.52 5.52 0 0 0-5.52-5.52h-.01a5.52 5.52 0 0 0-5.52 5.52v4.25a5.52 5.52 0 0 0 5.52 5.52z" fill="#FEE166"/><path d="M52.06 56.71a2.22 2.22 0 1 0 4.44 0V53.9a2.22 2.22 0 0 0-4.44 0v2.81z" fill="#F89700"/><path d="M65.83 48.23H29.95v6.95h35.88v-6.95z" fill="#FFC800"/><path d="M48.36 49.23h-.65c-1.11 0-2.01.9-2.01 2.01v13.27c0 1.11.9 2.01 2.01 2.01h.65c1.11 0 2.01-.9 2.01-2.01V51.24c0-1.11-.9-2.01-2.01-2.01z" fill="#FFB100"/><path d="M72.56 23.31v17.75h-49V23.27a10.829 10.829 0 0 1 3.71-8.14l15-13A8.66 8.66 0 0 1 53.54 2l15.25 13.13a10.77 10.77 0 0 1 3.77 8.18z" fill="#F89700"/><path d="M72.57 29.41H23.51v9.28h49.06v-9.28zM65 22.47a2.829 2.829 0 0 1-.9-.15C52.37 18.55 49.73 10 49.62 9.6a3 3 0 0 1 5.68-1.7c.09.3 2.05 6 10.61 8.78a3 3 0 0 1-.91 5.79z" fill="#E27800"/><path d="M30.84 22.47a3 3 0 0 1-.9-5.79c8.6-2.76 10.57-9 10.59-9.1a3 3 0 0 1 5.71 1.58c-.11.39-2.74 9.39-14.49 13.16a2.89 2.89 0 0 1-.91.15z" fill="#FFB100"/><path d="M83.16 42.37H10.84a2.78 2.78 0 0 1 0-5.55h72.32a2.78 2.78 0 1 1 0 5.55z" fill="#F89700"/><path d="M63.33 49.38a2 2 0 0 1-1.09-.32c-3.65-2.39-9.51-1.75-9.57-1.75a2.013 2.013 0 0 1-.46-4c.29 0 7.35-.82 12.22 2.37a2 2 0 0 1-1.1 3.67v.03zM33.9 50.59a2.005 2.005 0 0 1-.28-4 30.331 30.331 0 0 0 9.71-3 2.003 2.003 0 1 1 2 3.47 34 34 0 0 1-11.13 3.51l-.3.02z" fill="#F68F00"/><path d="M92.52 93.94A2.51 2.51 0 0 1 90 91.43v-9.38a2.519 2.519 0 1 1 5 0v9.38a2.51 2.51 0 0 1-2.48 2.51z" fill="#FF9C86"/><path d="M92.79 124H42.25v-1.07a21.848 21.848 0 0 1 21.85-21.85h28.3l.39 22.92z" fill="#FFB100"/><path d="M73.88 117.34a10.81 10.81 0 0 1-2.24 6.66H54.37a10.907 10.907 0 0 1 .735-14.274 10.913 10.913 0 0 1 14.234-1.297 10.904 10.904 0 0 1 4.541 8.911z" fill="#FFB100"/><path d="M123.26 96v15.73l-.09.33a16.999 16.999 0 0 1-8.21 10.07 16.489 16.489 0 0 1-5.79 1.89H62.04V96c0-16.91 13.71-38.16 30.61-38.16 8.46 0 16.11 5.31 21.65 12.74 5.54 7.43 8.96 16.94 8.96 25.42z" fill="#FFC800"/><path d="M123.88 99.4v7.46a16.991 16.991 0 0 1-.56 4.31H61.53V99.4h62.35z" fill="#FFB100"/><path d="M88.4 103.27c0-5.252-4.256-9.51-9.505-9.51-5.25 0-9.505 4.258-9.505 9.51v7.3c0 5.252 4.255 9.51 9.505 9.51 5.25 0 9.505-4.258 9.505-9.51v-7.3z" fill="#FEE166"/><path d="M84.88 104.79a3.82 3.82 0 1 0-7.64 0v4.84a3.82 3.82 0 1 0 7.64 0v-4.84z" fill="#F89700"/><path d="M96.82 110.57c0 5.252 4.256 9.51 9.505 9.51 5.249 0 9.505-4.258 9.505-9.51v-7.3c0-5.252-4.256-9.51-9.505-9.51-5.249 0-9.505 4.258-9.505 9.51v7.3z" fill="#FEE166"/><path d="M100.33 109.64a3.82 3.82 0 1 0 7.64 0v-4.84a3.82 3.82 0 1 0-7.64 0v4.84z" fill="#F89700"/><path d="M96.47 101.26a4.07 4.07 0 1 0-8.14 0v17.26a4.07 4.07 0 1 0 8.14 0v-17.26z" fill="#FFB100"/><path d="M123.94 80.19v22.62H61.43V80.14a13.78 13.78 0 0 1 4.73-10.37l19.15-16.64a11 11 0 0 1 14.4-.05l19.43 16.69a13.69 13.69 0 0 1 4.8 10.42z" fill="#F89700"/><path d="M123.94 87.96H61.43v11.83h62.51V87.96z" fill="#E27800"/><path d="M118.45 104.29H58.7v3.44h59.75v-3.44z" fill="#FFB100"/><path d="M130.696 104.59h-86.11a3.779 3.779 0 0 1 0-7.55h86.11a3.78 3.78 0 0 1 0 7.55z" fill="#F89700"/><path d="M114.31 79.11a3.834 3.834 0 0 1-1.15-.18c-15-4.8-18.32-15.75-18.45-16.22a3.773 3.773 0 1 1 7.23-2.16c.13.4 2.63 7.69 13.52 11.19a3.778 3.778 0 0 1 1.288 6.451 3.78 3.78 0 0 1-2.438.92z" fill="#E27800"/><path d="M70.78 79.11a3.78 3.78 0 0 1-1.15-7.37c10.94-3.52 13.4-11.31 13.5-11.64a3.81 3.81 0 0 1 4.68-2.56 3.77 3.77 0 0 1 2.59 4.62c-.14.49-3.49 12-18.47 16.77-.372.118-.76.179-1.15.18z" fill="#FFB100"/><path d="M38.8 67.36h18.47a1.41 1.41 0 0 1 1.41 1.41v.82a7.47 7.47 0 0 1-7.47 7.47h-6.35a7.47 7.47 0 0 1-7.47-7.47v-.82a1.41 1.41 0 0 1 1.41-1.41z" fill="#F89700"/><path d="M39.83 67.36h16.41v1.88a1.95 1.95 0 0 1-1.95 1.95H41.77a1.95 1.95 0 0 1-1.95-1.95v-1.88h.01z" fill="#FEE166"/><path d="M43.14 76.86c.563.136 1.14.207 1.72.21h6.35a7.404 7.404 0 0 0 1.71-.21 5.27 5.27 0 0 0-9.78 0z" fill="#FFB100"/><path d="M63.24 60.85s-7.85.25-10.8 4.17l8.91 2.18 1.89-6.35z" fill="#FFC800"/><path d="M25.47 75.17v.39a2.2 2.2 0 0 1-.47 1.31 2.361 2.361 0 0 1-3.32.46l-5.15-3.93-2.34-1.79a2.38 2.38 0 0 1 1.45-4.26 2.28 2.28 0 0 1 1.43.49l7.29 5.56.19.15a2.41 2.41 0 0 1 .92 1.62z" fill="#F89700"/><path d="M19.45 76.7a2.37 2.37 0 0 1-2.93 1.63L3.63 74.81A2.38 2.38 0 0 1 2 71.87a2.37 2.37 0 0 1 2.93-1.63l12.89 3.52a2.38 2.38 0 0 1 1.63 2.94z" fill="#FFB100"/><path d="M18.1 76a2.369 2.369 0 0 1-2.46 2.28l-13.36-.41A2.38 2.38 0 0 1 0 75.4a2.38 2.38 0 0 1 2.47-2.28l13.36.37A2.372 2.372 0 0 1 18.1 76z" fill="#FFB100"/><path d="M24.28 73.4l-.01.03-.05.1-1.2 2.56-3.34 7.12h-2.33l-6.4-5.1-.12-.09.98-.92 3.85-3.61.06-.06.03-.03h8.53z" fill="#FFB100"/><path d="M25.47 75.17v11.24h-9.92v-13h8.81l.19.15a2.41 2.41 0 0 1 .92 1.61z" fill="#FFB100"/><path d="M27.82 82.6v41.43A16.998 16.998 0 0 1 11 107.47V82.6h16.82z" fill="#F89700"/><path d="M35.91 97h-6.17v3.52a6.117 6.117 0 0 0 2.17 4.69 5.85 5.85 0 0 0 2 1.14 5.863 5.863 0 0 0 2-1.15 6.113 6.113 0 0 0 2.16-4.68V97h-2.16z" fill="#FDB02A"/><path d="M123.938 27.86v4.74h-28.38a7.17 7.17 0 1 1 0-14.33h25.38a16.905 16.905 0 0 1 3 9.59z" fill="#FEE166"/><path d="M123.938 29.65V44h-18a7.168 7.168 0 0 1-7.17-7.17 7.08 7.08 0 0 1 1.38-4.22 6.46 6.46 0 0 1 .72-.85 7.143 7.143 0 0 1 5.07-2.1l18-.01z" fill="#FEE166"/></g><defs><clipPath id="clip0"><path fill="#fff" d="M0 0h135v124H0z"/></clipPath></defs></svg>