<svg viewBox="0 0 135 124" fill="none" xmlns="http://www.w3.org/2000/svg"><path d="M11 28c0-9.389 7.611-17 17-17h79c9.389 0 17 7.611 17 17v79c0 9.389-7.611 17-17 17H28c-9.389 0-17-7.611-17-17V28z" fill="#E5E5E5"/><path d="M54.25 14.656c.354 6.758-4.87 12.525-11.666 12.88-6.798.357-12.595-4.833-12.948-11.591-.354-6.758 4.869-12.525 11.666-12.881 6.797-.356 12.594 4.834 12.948 11.592z" fill="#959595"/><path fill-rule="evenodd" clip-rule="evenodd" d="M3.893 58.029C3.158 43.99 13.942 32.015 27.98 31.28l29.328-1.536c14.037-.735 26.013 10.05 26.748 24.087.735 14.038-10.049 26.013-24.086 26.749l-29.328 1.535C16.604 82.851 4.628 72.067 3.893 58.03z" fill="#959595"/><path d="M84.023 57.053C83.1 69.657 72.92 79.902 59.97 80.58l-29.328 1.535c-12.95.679-24.145-8.446-26.38-20.885l79.761-4.177z" fill="#fff"/><path d="M13.635 73.38c-.91-17.383 12.444-32.213 29.827-33.123 17.383-.91 32.213 12.444 33.124 29.827l.523 9.99c.392 7.49-5.362 13.881-12.853 14.273l-35.824 1.877c-7.491.392-13.881-5.363-14.273-12.853l-.524-9.99z" fill="#D1D1D1"/><path d="M21.63 39.13l45.976-2.407.392 7.498-45.975 2.407-.392-7.497z" fill="#959595"/><path fill-rule="evenodd" clip-rule="evenodd" d="M30.524 60a6.573 6.573 0 1 1 13.127-.688l.213 4.05a6.573 6.573 0 0 1-13.128.687L30.524 60z" fill="#fff"/><path fill-rule="evenodd" clip-rule="evenodd" d="M35.938 59.952a2.96 2.96 0 1 1 5.912-.31l.194 3.714a2.96 2.96 0 0 1-5.912.31l-.194-3.714z" fill="#959595"/><path fill-rule="evenodd" clip-rule="evenodd" d="M59.194 58.496a6.573 6.573 0 0 0-13.128.688l.212 4.05a6.573 6.573 0 1 0 13.128-.688l-.212-4.05z" fill="#fff"/><path fill-rule="evenodd" clip-rule="evenodd" d="M54.137 58.999a2.96 2.96 0 0 0-5.913.31l.195 3.712a2.96 2.96 0 0 0 5.912-.31L54.137 59z" fill="#959595"/><path fill-rule="evenodd" clip-rule="evenodd" d="M40.644 91.093a.7.7 0 0 1 .953-.262l-.345.608.345-.609.007.005.038.02.162.082c.145.07.363.17.642.28.558.222 1.353.48 2.298.63 1.885.3 4.336.168 6.71-1.532a.7.7 0 1 1 .815 1.136c-2.754 1.973-5.607 2.118-7.745 1.778a12.432 12.432 0 0 1-2.593-.71 10.532 10.532 0 0 1-.944-.428 3.824 3.824 0 0 1-.056-.03l-.017-.01-.005-.003h-.002v-.001l.345-.608-.346.607a.7.7 0 0 1-.262-.953z" fill="#B6B6B6"/><path opacity=".626" fill-rule="evenodd" clip-rule="evenodd" d="M66.94 60.461a.7.7 0 0 1-.328.933l-3.516 1.686 3.694 1.415a.7.7 0 1 1-.5 1.306l-5.21-1.996a.7.7 0 0 1-.053-1.284l4.98-2.388a.7.7 0 0 1 .934.328zM22.51 62.788a.7.7 0 0 0 .424.893l3.673 1.31-3.526 1.793a.7.7 0 1 0 .634 1.246l4.973-2.53a.7.7 0 0 0-.082-1.281l-5.203-1.855a.7.7 0 0 0-.893.424z" fill="#B6B6B6"/><path fill-rule="evenodd" clip-rule="evenodd" d="M7.071 48.248a6.643 6.643 0 0 1 6.287-6.982l6.254-.327a6.643 6.643 0 0 1 6.98 6.286l.328 6.255a6.643 6.643 0 0 1-6.286 6.98l-6.254.328a6.643 6.643 0 0 1-6.981-6.286l-.328-6.255zM60.932 44.717a6.643 6.643 0 0 1 6.286-6.98l5.406-.284a6.643 6.643 0 0 1 6.98 6.286l.365 6.962a6.643 6.643 0 0 1-6.286 6.981l-5.406.283a6.643 6.643 0 0 1-6.98-6.286l-.365-6.962zM44.824 88.222l.02-.007.09-.03c.08-.026.2-.063.346-.101.298-.078.67-.154 1.027-.172.356-.019.739.017 1.049.064a6.73 6.73 0 0 1 .456.085l.02.004.003.001a1.134 1.134 0 0 0 .548-2.2l-.262 1.051.262-1.05h-.003l-.004-.002-.013-.003-.042-.01a9 9 0 0 0-.628-.118 7.668 7.668 0 0 0-1.505-.086 7.553 7.553 0 0 0-1.482.243 8.666 8.666 0 0 0-.607.183l-.04.015-.014.004-.004.002h-.003l.393 1.064-.393-1.063a1.134 1.134 0 0 0 .786 2.126h-.002m3.012-.156z" fill="#959595"/><path d="M29.952 51.745l28.858-1.512.666 12.732-28.858 1.511-.666-12.731z" fill="#D1D1D1"/><path d="M26.547 62.605a2.168 2.168 0 0 1 2.05-2.278l32.734-1.715a2.168 2.168 0 0 1 2.278 2.052l.003.056a2.168 2.168 0 0 1-2.051 2.278l-32.733 1.714a2.168 2.168 0 0 1-2.279-2.051l-.002-.056z" fill="#959595"/><path fill-rule="evenodd" clip-rule="evenodd" d="M45.542 71.82a3.192 3.192 0 0 0 3.016-3.36c-.093-1.763-3.494-5.766-3.494-5.766s-2.964 4.337-2.872 6.1a3.192 3.192 0 0 0 3.35 3.025z" fill="#959595"/><path d="M129.118 66.93l-53.587-6.438c-1.501-.18-2.864.89-3.044 2.391l-5.113 42.564a2.737 2.737 0 0 0 2.39 3.044l53.588 6.437a2.736 2.736 0 0 0 3.044-2.391l5.113-42.563c.18-1.501-.89-2.864-2.391-3.044z" fill="#fff"/><path d="M87.743 95.39a1.833 1.833 0 0 0-.31 2.574l1.989 2.532a1.833 1.833 0 0 0 2.574.309l5.039-3.959a1.833 1.833 0 0 1 2.574.31l3.959 5.039a1.832 1.832 0 0 0 2.573.309l2.532-1.988a1.833 1.833 0 0 0 .309-2.574l-3.959-5.04a1.833 1.833 0 0 1 .309-2.573l5.041-3.96a1.833 1.833 0 0 0 .309-2.573l-1.988-2.532a1.833 1.833 0 0 0-2.574-.31l-5.041 3.96a1.833 1.833 0 0 1-2.573-.309l-3.96-5.04a1.833 1.833 0 0 0-2.573-.31l-2.532 1.99a1.833 1.833 0 0 0-.309 2.573l3.96 5.04a1.833 1.833 0 0 1-.31 2.574l-5.04 3.958z" fill="#BFBFBF"/><path d="M130.421 79.03l-59.022-7.09 1.088-9.057a2.737 2.737 0 0 1 3.044-2.39l53.587 6.437a2.737 2.737 0 0 1 2.391 3.044l-1.088 9.055z" fill="#A6A6A6"/><path d="M77.228 69.425a2.74 2.74 0 0 0 3.05-2.39 2.74 2.74 0 0 0-2.397-3.044 2.74 2.74 0 0 0-3.05 2.39 2.74 2.74 0 0 0 2.397 3.044z" fill="#959595"/><path d="M84.491 70.297a2.74 2.74 0 0 0 3.05-2.39 2.74 2.74 0 0 0-2.397-3.044 2.74 2.74 0 0 0-3.05 2.39 2.74 2.74 0 0 0 2.397 3.044z" fill="#BFBFBF"/><path d="M91.756 71.17a2.74 2.74 0 0 0 3.05-2.39 2.74 2.74 0 0 0-2.397-3.045 2.74 2.74 0 0 0-3.05 2.39 2.74 2.74 0 0 0 2.397 3.044z" fill="#D1D1D1"/><path d="M88.675 48.94a1.543 1.543 0 0 0 0 2.182l.143.142c.603.603 1.58.603 2.183 0l1.22-1.22a1.543 1.543 0 0 1 2.182 0l1.22 1.22c.602.603 1.58.603 2.182 0l.143-.142a1.543 1.543 0 0 0 0-2.182l-1.22-1.22a1.543 1.543 0 0 1 0-2.183l1.22-1.22a1.543 1.543 0 0 0 0-2.183l-.142-.142a1.543 1.543 0 0 0-2.183 0l-1.22 1.22a1.543 1.543 0 0 1-2.183 0L91 41.992a1.543 1.543 0 0 0-2.182 0l-.143.143a1.543 1.543 0 0 0 0 2.182l1.22 1.22c.603.603.603 1.58 0 2.183l-1.22 1.22z" fill="#fff" fill-opacity=".5"/><path d="M73.377 40.428a1.347 1.347 0 0 0 0 1.905l.125.124c.526.526 1.379.526 1.905 0l1.065-1.064a1.347 1.347 0 0 1 1.905 0l1.065 1.065c.526.526 1.38.526 1.905 0l.125-.125a1.347 1.347 0 0 0 0-1.905l-1.065-1.065a1.347 1.347 0 0 1 0-1.905l1.065-1.066a1.347 1.347 0 0 0 0-1.905l-.125-.124a1.347 1.347 0 0 0-1.905 0l-1.065 1.065a1.347 1.347 0 0 1-1.905 0l-1.065-1.065a1.347 1.347 0 0 0-1.905 0l-.125.124a1.347 1.347 0 0 0 0 1.906l1.065 1.065a1.347 1.347 0 0 1 0 1.905l-1.065 1.065z" fill="#D1D1D1"/><path d="M88.669 33.451a1.543 1.543 0 0 0 1.146 1.944l1.637.363a1.543 1.543 0 0 0 1.814-1.069l1.162-3.932a1.543 1.543 0 0 1 1.814-1.07l4.003.889a1.544 1.544 0 0 0 1.815-1.07l.475-1.608a1.544 1.544 0 0 0-1.146-1.944l-3.587-.796a1.543 1.543 0 0 1-1.146-1.943l1.041-3.525a1.543 1.543 0 0 0-1.145-1.944l-1.638-.363a1.543 1.543 0 0 0-1.814 1.07l-1.162 3.933a1.543 1.543 0 0 1-1.814 1.069l-4.003-.888a1.543 1.543 0 0 0-1.815 1.069l-.475 1.608a1.543 1.543 0 0 0 1.146 1.944l3.587.796a1.543 1.543 0 0 1 1.146 1.944l-1.041 3.523z" fill="#fff"/></svg>