<svg viewBox="0 0 135 124" fill="none" xmlns="http://www.w3.org/2000/svg"><path d="M11 28c0-9.389 7.611-17 17-17h79c9.389 0 17 7.611 17 17v79c0 9.389-7.611 17-17 17H28c-9.389 0-17-7.611-17-17V28z" fill="#9069CD"/><path d="M42.888 4.3c11.206 0 20.29 9.108 20.29 20.315 0 11.206-9.084 20.314-20.29 20.314h-11.22c-11.206 0-20.29-9.108-20.29-20.314S20.462 4.3 31.668 4.3h11.22z" fill="#3D3D3D"/><path d="M13.627 44.35c0-11.34 9.193-20.533 20.533-20.533h27.962c11.34 0 20.534 9.193 20.534 20.534v1.165c0 11.34-9.194 20.534-20.534 20.534H34.16c-11.34 0-20.533-9.194-20.533-20.534V44.35z" fill="#FFCBA3"/><path fill-rule="evenodd" clip-rule="evenodd" d="M33.508 35.28a6.82 6.82 0 0 1 13.64 0v4.208a6.82 6.82 0 1 1-13.64 0V35.28z" fill="#E99B5F"/><path fill-rule="evenodd" clip-rule="evenodd" d="M33.507 37.747a6.82 6.82 0 1 1 13.64 0v4.208a6.82 6.82 0 0 1-13.64 0v-4.208z" fill="#fff"/><path fill-rule="evenodd" clip-rule="evenodd" d="M63.295 35.281a6.82 6.82 0 1 0-13.64 0v4.208a6.82 6.82 0 1 0 13.64 0v-4.208z" fill="#E99B5F"/><path fill-rule="evenodd" clip-rule="evenodd" d="M63.295 37.748a6.82 6.82 0 1 0-13.64 0v4.208a6.82 6.82 0 1 0 13.64 0v-4.208z" fill="#fff"/><path d="M90.094 44.058a6.022 6.022 0 1 1-12.044 0 6.022 6.022 0 0 1 12.044 0zM17.834 44.058a6.022 6.022 0 1 1-12.043 0 6.022 6.022 0 0 1 12.043 0z" fill="#FFCBA3"/><path d="M15.369 50.515a2.902 2.902 0 1 1-5.804 0 2.902 2.902 0 0 1 5.804 0z" fill="#C86902"/><path fill-rule="evenodd" clip-rule="evenodd" d="M51.266 24.611l12.45 2.088-1.104 6.582-12.45-2.087 1.104-6.583zM46.205 27.734H33.58v6.674h12.623v-6.674z" fill="#FFCBA3"/><path d="M80.57 35.32H70.402a7.379 7.379 0 0 1-7.378-7.378v-4.106c7.717.333 14.33 4.925 17.548 11.485z" fill="#D6C6BA"/><path fill-rule="evenodd" clip-rule="evenodd" d="M53.418 81.34c0-13.23 10.726-23.957 23.958-23.957h27.644c13.232 0 23.959 10.726 23.959 23.958 0 13.232-10.727 23.958-23.959 23.958H77.376c-13.232 0-23.958-10.726-23.958-23.958z" fill="#3D3D3D"/><path d="M70.772 104.378c-8.496-2.431-15.061-9.436-16.862-18.18l26.699-5.865 4.586 20.876-14.423 3.169zM111.366 104.378c8.497-2.431 15.168-8.81 16.969-17.553l-25.906-6.563-5.204 20.947 14.141 3.169z" fill="#D8D8D8"/><path d="M102.887 43.049c0 6.37-5.194 11.534-11.6 11.534-6.408 0-11.601-5.164-11.601-11.534 0-6.37 5.193-11.534 11.6-11.534s11.601 5.164 11.601 11.534z" fill="#3D3D3D"/><path d="M61.82 75.383c0-5.523 4.476-10 10-10h37.184c5.523 0 10 4.477 10 10v32.188c0 6.009-4.872 10.881-10.881 10.881H72.701c-6.01 0-10.882-4.872-10.882-10.881V75.383z" fill="#FFCBA3"/><path d="M71.02 64.45h43.335v7.066H71.02V64.45z" fill="#3D3D3D"/><path opacity=".626" fill-rule="evenodd" clip-rule="evenodd" d="M112.669 86.38a.657.657 0 0 1-.692.622l-3.666-.198 2.409 2.84a.659.659 0 0 1-1.003.851l-3.399-4.005a.658.658 0 0 1 .537-1.083l5.193.28c.363.02.641.33.621.694zM71.103 86.38c.02.364.33.642.693.622l3.666-.198-2.41 2.84a.658.658 0 0 0 1.004.851l3.399-4.005a.658.658 0 0 0-.538-1.083l-5.192.28a.658.658 0 0 0-.622.694z" fill="#F3A577"/><path fill-rule="evenodd" clip-rule="evenodd" d="M58.737 72.943c-.98-3.65 1.478-7.33 5.226-7.821l4.258-.558c3.744-.491 7.066 2.423 7.066 6.2v5.674a6.253 6.253 0 0 1-4.893 6.103l-8.567 1.91-3.09-11.508zM107.688 70.503a6.253 6.253 0 0 1 6.891-6.22l2.976.305c3.973.408 6.55 4.385 5.3 8.178l-3.852 11.685-6.665-1.767a6.252 6.252 0 0 1-4.65-6.044v-6.137z" fill="#3D3D3D"/><path fill-rule="evenodd" clip-rule="evenodd" d="M91.887 92.329c1.657 0 3-1.347 3-3.01 0-1.661-3-5.591-3-5.591s-3 3.93-3 5.592a3.005 3.005 0 0 0 3 3.009zM78.84 84.085a1.333 1.333 0 0 1 1.734-.742l-.496 1.238.495-1.238-.002-.001h-.002.003l.027.01c.029.01.076.028.14.049a8.024 8.024 0 0 0 2.563.37c1.533-.036 3.364-.558 4.788-2.57a1.333 1.333 0 0 1 2.177 1.541c-2.027 2.862-4.748 3.645-6.902 3.695a10.694 10.694 0 0 1-3.45-.5 6.93 6.93 0 0 1-.298-.105l-.022-.008-.007-.003-.003-.001h-.002c0-.001-.001-.001.495-1.239l-.496 1.238a1.333 1.333 0 0 1-.741-1.734zM104.932 84.085a1.333 1.333 0 0 0-1.729-.743l-.005.001.496 1.238-.495-1.238h.001l.002-.001h-.001l-.028.01c-.028.01-.076.028-.14.049a8.024 8.024 0 0 1-2.563.37c-1.533-.036-3.363-.558-4.788-2.57a1.333 1.333 0 0 0-2.176 1.541c2.027 2.862 4.747 3.645 6.902 3.695a10.696 10.696 0 0 0 3.449-.5 6.438 6.438 0 0 0 .298-.105l.022-.008.008-.003.003-.001h.001c.001-.001.002-.001-.495-1.239l.497 1.238a1.334 1.334 0 0 0 .741-1.734z" fill="#E89665"/><path d="M107.688 71.516c0 1.694-7.254 3.067-16.2 3.067-8.948 0-16.2-1.373-16.2-3.067 0-1.693 7.252-3.066 16.2-3.066 8.946 0 16.2 1.373 16.2 3.066z" fill="#FFCBA3"/><path fill-rule="evenodd" clip-rule="evenodd" d="M87.767 71.26a2 2 0 0 1 .417 2.797c-1.935 2.612-4.494 3.668-6.499 4.067-.999.199-1.879.24-2.514.231a10.303 10.303 0 0 1-1.005-.063 4.71 4.71 0 0 1-.073-.01l-.025-.003-.01-.001h-.004l-.002-.001c-.001 0-.002 0 .296-1.957l-.298 1.957a2 2 0 0 1 .59-3.957l.012.002.103.01c.101.01.262.02.47.023a8.14 8.14 0 0 0 1.679-.154c1.328-.265 2.881-.926 4.066-2.525a2 2 0 0 1 2.797-.416zM94.601 71.26a2 2 0 0 0-.417 2.797c1.935 2.612 4.494 3.668 6.499 4.067.999.199 1.879.24 2.514.231a10.313 10.313 0 0 0 1.005-.063 6.66 6.66 0 0 0 .073-.01l.025-.003.01-.001h.004l.002-.001c.001 0 .002 0-.296-1.957l.298 1.957a2 2 0 0 0-.59-3.957l-.012.002a6.358 6.358 0 0 1-.573.034 8.148 8.148 0 0 1-1.679-.155c-1.328-.265-2.88-.926-4.065-2.525a2 2 0 0 0-2.798-.416z" fill="#3D3D3D"/><path d="M102.717 102.24c.882 2.501-.243 5.746-2.885 5.98-3.287.291-5.983-3.253-8.634-3.253-2.735 0-5.178 4.113-8.714 3.448-2.607-.49-3.686-3.674-2.804-6.175 1.675-4.746 6.2-8.147 11.518-8.147 5.32 0 9.844 3.401 11.519 8.147z" fill="#702323"/><path d="M85.492 107.924a6.067 6.067 0 1 1 11.51-.286c-.722-.327-1.418-.748-2.096-1.159-1.28-.774-2.498-1.512-3.707-1.512-1.199 0-2.341.79-3.544 1.621-.694.479-1.408.972-2.163 1.336z" fill="#E34545"/><path d="M78.591 86.799l2.106 3.647c.936 1.621-.234 3.648-2.106 3.648-1.871 0-3.041-2.027-2.105-3.648L78.59 86.8z" fill="#D4F7FF"/><path d="M51.926 38.324a2.467 2.467 0 0 0 2.212-3.212 3.072 3.072 0 0 1 3.93 2.95v3.858a3.072 3.072 0 1 1-6.142 0v-3.596z" fill="#3D3D3D"/><path fill-rule="evenodd" clip-rule="evenodd" d="M65.076 40.92c.002 0 .003 0-.228 3.838-.23 3.838-.23 3.838-.228 3.838h.007l.005.001h.003l-.035-.001a15.303 15.303 0 0 0-1.141.017c-.818.043-1.959.159-3.224.449-2.584.593-5.306 1.818-7.124 4.213l-6.126-4.648c3.322-4.378 8-6.25 11.53-7.06a26.724 26.724 0 0 1 4.543-.634 22.838 22.838 0 0 1 1.82-.023l.128.006.044.002h.016l.007.001h.003z" fill="#FFCBA3"/><path fill-rule="evenodd" clip-rule="evenodd" d="M48.456 51.967a2.898 2.898 0 0 0 2.902-2.893c0-1.599-2.902-5.378-2.902-5.378s-2.902 3.78-2.902 5.378c0 1.598 1.299 2.893 2.902 2.893zM54.221 54.23c-1.725 1.038-3.02 2.467-3.662 3.427a1.25 1.25 0 0 1-2.079-1.388c.82-1.228 2.374-2.93 4.452-4.181 2.093-1.26 4.8-2.106 7.836-1.423a1.25 1.25 0 1 1-.549 2.44c-2.239-.505-4.288.096-5.998 1.125z" fill="#E99B5F"/><path d="M39.167 38.266a2.394 2.394 0 0 0 2.755-3.259 3.072 3.072 0 0 1 3.388 3.056v3.857a3.072 3.072 0 1 1-6.143 0v-3.654z" fill="#3D3D3D"/><path d="M50.938 27.688a1.5 1.5 0 0 0-3 0c0 .267.022.532.066.791a1.5 1.5 0 0 0-2.114 1.37c0 .547-.276 1.456-2.047 2.28-1.839.856-5.097 1.498-10.535 1.345a1.5 1.5 0 0 0-.085 2.998c5.624.16 9.428-.48 11.886-1.623 2.267-1.055 3.51-2.621 3.742-4.388.63.869 1.584 1.63 2.868 2.227 2.457 1.144 6.262 1.783 11.886 1.624a1.5 1.5 0 0 0-.085-2.999c-5.438.154-8.697-.489-10.536-1.345-1.77-.824-2.047-1.733-2.047-2.28z" fill="#E99B5F"/><path d="M26.178 10.976c8.334 0 15.09 6.756 15.09 15.09v1.306c0 8.335-6.756 15.09-15.09 15.09s-15.09-6.755-15.09-15.09v-1.305c0-8.335 6.756-15.09 15.09-15.09z" fill="#3D3D3D"/></svg>