<svg viewBox="0 0 135 124" fill="none" xmlns="http://www.w3.org/2000/svg"><g clip-path="url(#clip0)"><path d="M107 11H28c-9.389 0-17 7.611-17 17v79c0 9.389 7.611 17 17 17h79c9.389 0 17-7.611 17-17V28c0-9.389-7.611-17-17-17z" fill="#E5E5E5"/><path d="M100 17.75L106 33l-6 76.15H35L29 33l6-15.22 8.11-2.67c1.593-.527 3.193-1 4.8-1.42a77.331 77.331 0 0 1 39.16 0c1.613.42 3.213.893 4.8 1.42l8.13 2.64z" fill="#BFBFBF"/><path d="M102.32 101.75l-.09 1.12a2.604 2.604 0 0 1-1.629 2.232 2.615 2.615 0 0 1-2.721-.482L85.42 92.17a4.121 4.121 0 0 1 0-5.83l.21-.21a1.679 1.679 0 0 1 2.38 0l13.55 13.54a2.611 2.611 0 0 1 .76 2.08zM49.39 92.17L37 104.59a3.753 3.753 0 0 1-.54.45 2.315 2.315 0 0 1-2.318.195 2.316 2.316 0 0 1-1.322-1.915l-.16-1.86a2.35 2.35 0 0 1 .68-1.84l13.24-13.28a2 2 0 0 1 2.81 0 4.12 4.12 0 0 1 0 5.83z" fill="#B2B2B2"/><path d="M119.53 38v6.8l-52-17.21-40.29 13.27-4.95 1.64-6.84 2.26V38a19 19 0 0 1 13.06-18.1l14.6-4.83a77.62 77.62 0 0 1 48.77 0l14.61 4.83A19.002 19.002 0 0 1 119.53 38z" fill="#BFBFBF"/><path d="M67.14 47.23l.16-.08.15.08h-.31z" fill="#FF7878"/><path d="M83.68 26l6.18 5.51a2.59 2.59 0 0 1-.53 4.24L68.81 46.37l-1.51.78-.7-.37-21.33-11a2.592 2.592 0 0 1-.53-4.24L50.93 26l-13.2-4a2.6 2.6 0 0 1-1.53-3.73l1.87-3.45A12.47 12.47 0 0 1 45 9l1.33-.44a65.07 65.07 0 0 1 42.21.09l.91.31h.12a12.39 12.39 0 0 1 6.93 5.85l1.89 3.46a2.609 2.609 0 0 1-1.5 3.73l-13.21 4z" fill="#E5E5E5"/><path d="M89.48 8.92L86.9 13.6l-3.07 5.56-15 27.21-1.2 2.19-1-1.78-15.8-27.65-3.16-5.54L45 9l1.33-.44a65.07 65.07 0 0 1 42.21.09l.94.27zM114.36 30.35a3.262 3.262 0 0 1 4.49 2.39l13.5 71.34a5.714 5.714 0 0 1-2.487 5.855 5.737 5.737 0 0 1-2.073.835l-7.9 1.51a5.856 5.856 0 0 1-1.43.08 5.722 5.722 0 0 1-5.26-4.65l-1.25-6.64-12.42-64.39 14.83-6.33z" fill="#BFBFBF"/><path d="M35 108.94h65v4.36a2.257 2.257 0 0 1-2.26 2.26H37.25a2.258 2.258 0 0 1-2.25-2.25v-4.37zM105.11 42.09l13.34 70.27a5.722 5.722 0 0 1-5.26-4.65l-12.31-64.82a2.06 2.06 0 0 1 0-.43 2.09 2.09 0 0 1 .37-1.19 2.16 2.16 0 0 1 3.89.82h-.03z" fill="#B2B2B2"/><path d="M86.8 13.66L67.54 48.57l-19.9-34.91a77.331 77.331 0 0 1 39.16 0z" fill="#A6A6A6"/><path d="M69 16.01h-3.57a2.58 2.58 0 0 0-2.58 2.58v3.57a2.58 2.58 0 0 0 2.58 2.58H69a2.58 2.58 0 0 0 2.58-2.58v-3.57A2.58 2.58 0 0 0 69 16.01z" fill="#D0D0D0"/><path d="M69.18 109.12h-3.36v6.45h3.36v-6.45z" fill="#BEBEBE"/><path d="M69.18 45.04h-3.36v64.08h3.36V45.04z" fill="#D0D0D0"/><path d="M70.13 47.66a2.62 2.62 0 0 0-5.24 0v2.57a2.62 2.62 0 1 0 5.24 0v-2.57z" fill="#BEBEBE"/><path d="M65.46 43.43v1.78a2.03 2.03 0 0 0 2.03 2.03h.01a2.03 2.03 0 0 0 2.03-2.03v-1.78a2.03 2.03 0 0 0-2.03-2.03h-.01a2.03 2.03 0 0 0-2.03 2.03z" fill="#E4E4E4"/><path d="M87.55 52.78h2.36v18.46a1.18 1.18 0 0 1-1.18 1.18 1.18 1.18 0 0 1-1.18-1.18V52.78z" fill="#D0D0D0"/><path d="M91.37 55.4a2.62 2.62 0 1 0-5.24 0v2.57a2.62 2.62 0 1 0 5.24 0V55.4z" fill="#BEBEBE"/><path d="M86.7 51.16v1.78a2.03 2.03 0 0 0 2.03 2.03h.01a2.03 2.03 0 0 0 2.03-2.03v-1.78a2.03 2.03 0 0 0-2.03-2.03h-.01a2.03 2.03 0 0 0-2.03 2.03z" fill="#E4E4E4"/><path d="M94.66 21.06a1.99 1.99 0 1 0 0-3.98 1.99 1.99 0 0 0 0 3.98zM86.75 35.06a1.99 1.99 0 1 0 0-3.98 1.99 1.99 0 0 0 0 3.98zM39.91 21.06a1.99 1.99 0 1 0 0-3.98 1.99 1.99 0 0 0 0 3.98zM47.82 35.06a1.99 1.99 0 1 0 0-3.98 1.99 1.99 0 0 0 0 3.98zM40.64 98.43a1.99 1.99 0 1 0 0-3.98 1.99 1.99 0 0 0 0 3.98zM94.17 98.43a1.99 1.99 0 1 0 0-3.98 1.99 1.99 0 0 0 0 3.98z" fill="#E5E5E5"/><path d="M116.12 114.95l16.77-3.078a2.17 2.17 0 0 0 1.743-2.526l-.921-5.016a2.17 2.17 0 0 0-2.526-1.743l-16.77 3.078a2.169 2.169 0 0 0-1.742 2.526l.92 5.016a2.171 2.171 0 0 0 2.526 1.743z" fill="#B2B2B2"/><path d="M131.32 109.35a1.99 1.99 0 1 0 0-3.98 1.99 1.99 0 0 0 0 3.98z" fill="#E5E5E5"/><path d="M20.64 30.35a3.26 3.26 0 0 0-4.49 2.39l-13.5 71.34a5.72 5.72 0 0 0 4.56 6.69l7.9 1.51c.472.085.952.112 1.43.08a5.724 5.724 0 0 0 5.26-4.65l1.25-6.64 12.42-64.39-14.83-6.33z" fill="#BFBFBF"/><path d="M29.89 42.09l-13.34 70.27a5.725 5.725 0 0 0 5.26-4.65l12.31-64.82a2.116 2.116 0 0 0 0-.43c0-.425-.128-.84-.37-1.19a2.16 2.16 0 0 0-3.89.82h.03z" fill="#B2B2B2"/><path d="M20.572 105.658l-16.77-3.078a2.17 2.17 0 0 0-2.526 1.743l-.92 5.016a2.17 2.17 0 0 0 1.742 2.526l16.77 3.078a2.17 2.17 0 0 0 2.526-1.743l.921-5.016a2.17 2.17 0 0 0-1.743-2.526z" fill="#B2B2B2"/><path d="M3.68 109.35a1.99 1.99 0 1 0 0-3.98 1.99 1.99 0 0 0 0 3.98z" fill="#E5E5E5"/></g><defs><clipPath id="clip0"><path fill="#fff" d="M0 0h135v124H0z"/></clipPath></defs></svg>