<svg viewBox="0 0 135 124" fill="none" xmlns="http://www.w3.org/2000/svg"><g clip-path="url(#clip0)"><path d="M28.384 11h79c9.389 0 17 7.611 17 17v79c0 9.389-7.611 17-17 17h-79c-9.389 0-17-7.611-17-17V28c0-9.389 7.611-17 17-17z" fill="#FFCA00"/><path d="M13.06 114.08L114.58 12.56A16.938 16.938 0 0 0 107.5 11H66.18L11.5 65.68V107c.003 2.445.535 4.86 1.56 7.08zm72.12-48.14l-58 58c.43 0 .87.07 1.31.07h48.59l33.08-33.09c6.904-6.904 6.904-18.096 0-25-6.903-6.904-18.096-6.904-25 0l.02.02z" fill="#FFD900"/><path d="M7.048 39.33C5.365 20.398 19.348 3.684 38.281 2.002l.797-.07c18.933-1.684 35.646 12.3 37.33 31.233l.403 4.529c1.683 18.933-12.3 35.646-31.234 37.33l-.797.07C25.847 76.776 9.134 62.793 7.45 43.86l-.402-4.53z" fill="#FFF1A2"/><path d="M46.258 65.885c-1.112.489-2.238.93-3.369 1.33-6.809 2.406-13.665 3.222-18.316 3.434a34.356 34.356 0 0 0 6.53 2.906c3.94-.53 8.443-1.462 12.947-3.054 8.709-3.076 17.618-8.693 22.268-18.824-3.996 7.386-11.273 12.827-20.06 14.208z" fill="#FFD900"/><path d="M69.534 36.057c1.355 15.245-9.905 28.703-25.15 30.058-15.245 1.356-28.703-9.904-30.058-25.15-1.356-15.245 9.904-28.702 25.15-30.058 15.245-1.355 28.702 9.904 30.058 25.15z" fill="#FFBB31"/><path d="M48.052 28.842c-3.81 2.468-5.351 5.038-5.61 7.353a6.263 6.263 0 0 0 10.051 5.694c.518-.372.897-.65 1.197-.871 1.096-.807 1.154-.85 3.174-1.882a5.831 5.831 0 0 0 .193-.098l-.001-.002a6.264 6.264 0 0 0-1.105-11.484c-2.997-.954-6.399.39-7.9 1.29z" fill="#FFF1A2"/><path d="M46.575 35.616a2.793 2.793 0 0 0 2.033-4.394 4.166 4.166 0 0 1 4.309 3.794l.17 1.923a4.166 4.166 0 0 1-8.299.738l-.17-1.923a4.207 4.207 0 0 1-.003-.714c.538.418 1.228.641 1.96.576z" fill="#E27800"/><path d="M65.247 36.27c-10.688-.187-20.326-4.79-23.809-7.068l5.304-4.299 10.132-2.869 8.325 3.853 2.302 7.449-2.254 2.934z" fill="#FFBB31"/><path d="M19.074 34.1c20.412-1.115 30.616-13.008 36.251-19.882a27.583 27.583 0 0 0-15.803-3.315 27.6 27.6 0 0 0-17.13 7.995c-.086.063-.17.134-.252.215-.31.302-.618.618-.93.94-2.213 2.28-4.663 4.806-9.913 4.02a16.63 16.63 0 0 0-.287-.04l-2.626-.434c-.925-.163-1.537.467-1.405 1.398.638 4.47 4.122 8.093 8.68 8.896a10.72 10.72 0 0 0 1.934.163c.512.051 1.016.07 1.48.045z" fill="#E27800"/><path d="M22.905 36.684a6.266 6.266 0 0 0 4.228 5.013l-.001.001.084.026.123.037c2.17.66 2.236.692 3.457 1.293.334.164.756.371 1.33.646a6.263 6.263 0 0 0 8.89-7.378c-.56-1.886-2.052-3.79-5.023-5.394-3.766 2.984-9.239 4.766-13.088 5.756z" fill="#FFF1A2"/><path d="M32.685 36.851a2.793 2.793 0 0 0 2.034-4.394 4.166 4.166 0 0 1 4.308 3.794l.171 1.923a4.166 4.166 0 0 1-8.3.738l-.17-1.923a4.188 4.188 0 0 1-.003-.714c.538.418 1.228.641 1.96.576z" fill="#E27800"/><path d="M33.352 53.308a2.302 2.302 0 0 1 2.09-2.497l14.83-1.319a2.302 2.302 0 1 1-.203 4.56l-.762-.137a23.15 23.15 0 0 0-12.135 1.079l-.726.269a2.302 2.302 0 0 1-3.094-1.955z" fill="#FFF1A2"/><path fill-rule="evenodd" clip-rule="evenodd" d="M46.157 45.58a1.772 1.772 0 0 1-.371-3.121c2.233-1.521 4.882-2.848 7.815-3.851a34.076 34.076 0 0 1 7.016-1.616 1.772 1.772 0 0 1 1.528 2.942 8.746 8.746 0 0 1-2.965 2.157l-.082.035a8.178 8.178 0 0 1-.146.061c-2.177.919-2.23.952-3.275 1.604l-.119.075c-.344.214-.782.488-1.377.85a8.876 8.876 0 0 1-4.62 1.435 8.918 8.918 0 0 1-3.404-.57z" fill="#FFBB31"/><path d="M42.261 40.42c.132-.012 1.464 1.736 2.825 3.574 1.354 1.828.17 4.418-2.096 4.62-2.267.201-3.888-2.14-2.878-4.178 1.015-2.049 2.017-4.005 2.15-4.017z" fill="#E27800"/><path d="M95.49 107.289l-12.018-1.068a1.787 1.787 0 0 0-1.938 1.622l-.317 3.561a1.787 1.787 0 0 0 1.622 1.938l12.018 1.068a1.786 1.786 0 0 0 1.939-1.622l.316-3.56a1.787 1.787 0 0 0-1.622-1.939z" fill="#FFA403"/><path fill-rule="evenodd" clip-rule="evenodd" d="M60.178 50.316l68.101 6.053a3.575 3.575 0 0 1 3.244 3.878l-4.589 51.631a3.576 3.576 0 0 1-3.877 3.245l-68.1-6.053a3.575 3.575 0 0 1-3.245-3.878l4.59-51.631a3.575 3.575 0 0 1 3.877-3.245z" fill="#FFA403"/><path d="M94.51 103.164l-9.346-.83a1.786 1.786 0 0 0-1.939 1.622l-.198 2.225a1.788 1.788 0 0 0 1.622 1.939l9.347.831a1.788 1.788 0 0 0 1.94-1.623l.197-2.225a1.788 1.788 0 0 0-1.622-1.939z" fill="#FFBB31"/><path fill-rule="evenodd" clip-rule="evenodd" d="M57.835 91.83l65.874 5.855-.87 9.792a1.787 1.787 0 0 1-1.939 1.622l-31.156-2.769-10.239-.91-20.918-1.86a1.787 1.787 0 0 1-1.623-1.938l.87-9.793z" fill="#FFBB31"/><path fill-rule="evenodd" clip-rule="evenodd" d="M89.21 112.338l.533-6.008a6.256 6.256 0 0 0-5.677-6.786L57.36 97.171l-.732 8.234 4.53-50.964a1.787 1.787 0 0 1 1.938-1.622l24.926 2.215a6.256 6.256 0 0 1 5.677 6.786 6.256 6.256 0 0 1 6.786-5.678l24.925 2.216c.983.087 1.71.955 1.622 1.938l-5.261 59.198 1.463-16.468-26.706-2.374a6.256 6.256 0 0 0-6.785 5.678l-.534 6.008z" fill="#FFF1A2"/><path d="M88.072 59.525l-22.255-1.978a1.34 1.34 0 0 0-1.454 1.217l-.12 1.335a1.34 1.34 0 0 0 1.217 1.454l22.255 1.978a1.34 1.34 0 0 0 1.454-1.217l.12-1.335a1.34 1.34 0 0 0-1.218-1.454zM86.45 77.774l-22.256-1.978a1.34 1.34 0 0 0-1.454 1.216l-.118 1.336a1.34 1.34 0 0 0 1.216 1.454l22.255 1.978a1.34 1.34 0 0 0 1.454-1.217l.119-1.335a1.34 1.34 0 0 0-1.217-1.454zM87.104 68.86l-17.358-1.543a1.34 1.34 0 0 0-1.454 1.217l-.12 1.335a1.34 1.34 0 0 0 1.217 1.454l17.36 1.543a1.34 1.34 0 0 0 1.453-1.217l.119-1.335a1.34 1.34 0 0 0-1.217-1.454zM80.762 86.24l-17.359-1.542a1.34 1.34 0 0 0-1.454 1.217l-.118 1.335a1.34 1.34 0 0 0 1.216 1.454l17.359 1.543a1.34 1.34 0 0 0 1.454-1.217l.119-1.335a1.34 1.34 0 0 0-1.217-1.454zM122.344 62.571l-22.255-1.978a1.34 1.34 0 0 0-1.454 1.217l-.119 1.335a1.34 1.34 0 0 0 1.217 1.454l22.255 1.978a1.34 1.34 0 0 0 1.454-1.217l.119-1.335a1.34 1.34 0 0 0-1.217-1.454zM120.722 80.82l-22.255-1.978a1.34 1.34 0 0 0-1.454 1.217l-.119 1.335a1.34 1.34 0 0 0 1.217 1.454l22.255 1.978a1.34 1.34 0 0 0 1.454-1.216l.119-1.336a1.34 1.34 0 0 0-1.217-1.454zM116.617 71.483L99.258 69.94a1.34 1.34 0 0 0-1.454 1.217l-.118 1.335a1.34 1.34 0 0 0 1.216 1.454l17.359 1.543a1.34 1.34 0 0 0 1.454-1.217l.119-1.335a1.34 1.34 0 0 0-1.217-1.454zM115.035 89.287l-17.36-1.543a1.34 1.34 0 0 0-1.453 1.217l-.119 1.335a1.34 1.34 0 0 0 1.217 1.454l17.359 1.543a1.341 1.341 0 0 0 1.454-1.217l.118-1.335a1.34 1.34 0 0 0-1.216-1.454z" fill="#FFBB31"/><path d="M75.413 85.51a2.948 2.948 0 0 0-.369 4.153l3.054 3.65a1.992 1.992 0 0 0 2.806.25l3.65-3.054a2.948 2.948 0 0 0-3.783-4.522l-.656.549-.55-.656a2.948 2.948 0 0 0-4.152-.37zM64.617 65.65a2.948 2.948 0 0 0-.369 4.153l3.054 3.65a1.992 1.992 0 0 0 2.806.25l3.65-3.055a2.948 2.948 0 0 0-3.783-4.521l-.656.549-.55-.656a2.948 2.948 0 0 0-4.152-.37zM110.918 88.666a2.947 2.947 0 0 0-.369 4.153l3.054 3.65a1.992 1.992 0 0 0 2.806.25l3.65-3.055a2.947 2.947 0 1 0-3.783-4.521l-.656.549-.549-.656a2.948 2.948 0 0 0-4.153-.37z" fill="#E27800"/><path d="M84.63 19.987c1.092-3.103 4.532-4.857 7.684-3.916 3.152.94 4.823 4.218 3.732 7.322-1.091 3.103-4.531 4.857-7.683 3.916l-5.708-1.703 1.975-5.619zM96.16 31.509c2.777-1.763 6.564-1.012 8.459 1.677 1.894 2.69 1.178 6.299-1.599 8.062-2.778 1.762-6.565 1.011-8.46-1.678l-3.43-4.87 5.03-3.192z" fill="#FFF1A2"/><path fill-rule="evenodd" clip-rule="evenodd" d="M38.951 46.221a1.772 1.772 0 0 0-.186-3.138c-2.466-1.103-5.308-1.941-8.372-2.412a34.07 34.07 0 0 0-7.191-.352 1.772 1.772 0 0 0-.984 3.165 8.747 8.747 0 0 0 3.298 1.6l.087.02.154.035c2.305.52 2.364.543 3.507 1l.13.053c.377.15.856.342 1.506.594 1.46.62 3.114.852 4.801.597a8.92 8.92 0 0 0 3.25-1.162z" fill="#FFBB31"/></g><defs><clipPath id="clip0"><path fill="#fff" d="M0 0h135v124H0z"/></clipPath></defs></svg>