<svg viewBox="0 0 135 124" version="1.1" xmlns="http://www.w3.org/2000/svg"><g stroke="none" stroke-width="1" fill="none" fill-rule="evenodd"><path d="M28 11h79c9.389 0 17 7.611 17 17v79c0 9.389-7.611 17-17 17H28c-9.389 0-17-7.611-17-17V28c0-9.389 7.611-17 17-17z" fill="#E5E5E5"/><path d="M66.82 0c18.766 0 34.74 13.66 37.654 32.2l8.738 55.617a1.89 1.89 0 0 1-1.868 2.185H31.307a1.89 1.89 0 0 1-1.884-1.727l-2.228-25.638 3.394-30.245C32.659 13.946 48.258 0 66.819 0z" fill="#ABABAB"/><path d="M100.368 30.875h2.8a7.185 7.185 0 0 1 0 14.37h-2.8a7.185 7.185 0 0 1 0-14.37z" fill="#D4D4D4"/><path d="M71.006 5.672c15.862 0 29.194 11.912 30.974 27.674l2.884 25.546c.954 8.447-5.12 16.067-13.567 17.02-.573.065-1.15.098-1.727.098H50.815c-8.5 0-15.391-6.891-15.391-15.391 0-.732.052-1.463.156-2.188l3.618-25.192C41.469 17.42 55.023 5.672 71.006 5.672z" fill="#D4D4D4"/><path d="M88.884 32.725h-8.312a9.525 9.525 0 0 0-9.525 9.525v6.632a4.646 4.646 0 0 0 4.646 4.646h4.879a9.525 9.525 0 0 0 9.524-9.525V33.937c0-.67-.542-1.212-1.212-1.212z" fill="#FFF"/><path d="M78.548 34.341a4.276 4.276 0 0 0-4.276 4.276v5.371a4.276 4.276 0 1 0 8.552 0v-5.37a4.276 4.276 0 0 0-4.276-4.277z" fill="#ABABAB"/><path d="M90.096 33.937c0-.67-.542-1.212-1.212-1.212h-8.312a9.525 9.525 0 0 0-9.525 9.525v1.787h19.05v-10.1z" fill="#BEBEBE"/><path d="M50.787 32.725H59.1a9.525 9.525 0 0 1 9.524 9.525v6.43a4.848 4.848 0 0 1-4.848 4.848H59.1a9.525 9.525 0 0 1-9.525-9.525V33.937c0-.67.543-1.212 1.212-1.212z" fill="#FFF"/><path d="M61.123 34.341a4.276 4.276 0 0 1 4.276 4.276v5.371a4.276 4.276 0 1 1-8.552 0v-5.37a4.276 4.276 0 0 1 4.276-4.277z" fill="#ABABAB"/><path d="M49.575 33.937c0-.67.543-1.212 1.212-1.212H59.1a9.525 9.525 0 0 1 9.524 9.525v1.787H49.575v-10.1z" fill="#BEBEBE"/><path d="M75.817 65.27c2.477-4.776 5.008-6.518 7.593-5.227" stroke="#EE9583" stroke-width="2.496" stroke-linecap="round" stroke-linejoin="round"/><path d="M43.437 11.627l.417-.41 10.93-4.54a2.269 2.269 0 0 1 3.139 2.095V77.9a1.89 1.89 0 0 1-1.89 1.89H34.567a2.269 2.269 0 0 1-2.269-2.269V38.428a37.816 37.816 0 0 1 11.138-26.8z" fill="#ABABAB"/><path d="M29.43 56.77h80.66a3.27 3.27 0 0 1 3.27 3.27v59.95a3.27 3.27 0 0 1-3.27 3.27H29.43a3.27 3.27 0 0 1-3.27-3.27V60.04a3.27 3.27 0 0 1 3.27-3.27z" fill="#FFF"/><path d="M23.98 64.4h7.63a2.18 2.18 0 0 1 0 4.36h-7.63a2.18 2.18 0 1 1 0-4.36zM23.98 75.3h7.63a2.18 2.18 0 0 1 0 4.36h-7.63a2.18 2.18 0 0 1 0-4.36zM23.98 86.2h5.45a2.18 2.18 0 1 1 0 4.36h-5.45a2.18 2.18 0 0 1 0-4.36zM23.98 97.1h5.45a2.18 2.18 0 0 1 0 4.36h-5.45a2.18 2.18 0 1 1 0-4.36z" fill="#D6D4D4"/><path d="M109.682 69.955a5.254 5.254 0 0 0-7.143-2.048l-1.295.718a5.254 5.254 0 0 0-8.086-6.696l-3.922 4.357a5.254 5.254 0 0 0-10.213 2.453l.985 4.63-.52.288a3.233 3.233 0 0 0-1.26 4.395l6.905 12.458a3.233 3.233 0 0 0 4.395 1.26l6.657-3.69a5.23 5.23 0 0 0 2.641.765l3.772.066a5.254 5.254 0 0 0 2.02-10.142l3.016-1.672a5.254 5.254 0 0 0 2.048-7.142z" fill="#D4D4D4"/><path d="M61.363 84.448a2.725 2.725 0 0 0-3.845.268l-10.726 12.34a2.725 2.725 0 0 0 4.113 3.575l10.727-12.339a2.725 2.725 0 0 0-.27-3.844zM51.88 75.914a2.725 2.725 0 0 0-3.845.268l-10.727 12.34a2.725 2.725 0 1 0 4.113 3.575l10.727-12.34a2.725 2.725 0 0 0-.269-3.843z" fill="#FFF"/><path d="M39.46 73.608c2-2 5.213-2.05 7.274-.15l.171.165a5.256 5.256 0 0 1 9.83-3.542l2.716 5.57c.103.212.191.428.264.646l.198-.374a5.254 5.254 0 1 1 9.278 4.933l-2.377 4.472a3.233 3.233 0 0 1-.2 4.354L56.544 99.754a3.233 3.233 0 0 1-4.572 0l-5.084-5.083a5.231 5.231 0 0 1-2.512-.053l-3.643-.976a5.254 5.254 0 0 1 1.015-10.319l-2.286-2.285a5.254 5.254 0 0 1 0-7.43z" fill="#D4D4D4"/><path d="M69.634 59.884c2.12 0 3.838-1.708 3.838-3.816 0-.686-.407-1.677-.956-2.702l-.243-.44-.256-.44-.264-.435-.4-.631-.394-.593-.485-.702-.491-.682-.35-.467-.433.583-.407.566-.358.516-.387.576-.266.41-.268.424-.264.435-.13.22-.25.44-.234.439c-.49.946-.84 1.846-.84 2.483 0 2.108 1.718 3.816 3.838 3.816z" fill="#ACACAC"/><path d="M66.82 0c18.316 0 33.973 13.013 37.422 30.874h-24.56c-12.531 0-22.69-10.158-22.69-22.689l-.001-6.842A36.456 36.456 0 0 1 66.819 0zM79.855 73.091l18.798 24.27a3.27 3.27 0 0 1-.867 4.785l-.16.092-3.237 1.754 20.932 15.854c.473.358.908.75 1.303 1.17A16.925 16.925 0 0 1 107 124H28c-.117 0-.234-.001-.35-.004a12.82 12.82 0 0 1-2.196-3.128 10.39 10.39 0 0 1 3.229-13.075l.236-.165L79.855 73.09z" fill="#ABABAB"/></g></svg>