<svg viewBox="0 0 135 124" version="1.1" xmlns="http://www.w3.org/2000/svg"><g stroke="none" stroke-width="1" fill="none" fill-rule="evenodd"><g transform="translate(11 11)" fill="#ADE756"><rect x="0" y="0" width="113" height="113" rx="17"/></g><g transform="rotate(11 81.062 14.378)"><path d="M79.266 4.426h14.63c12.968 0 23.765 9.955 24.817 22.88l2.698 33.157c.496 6.091-4.04 11.431-10.132 11.927-.299.024-.598.036-.898.036H74.003c-6.111 0-11.066-4.954-11.066-11.066 0-.3.012-.599.036-.897l3.609-44.342A12.726 12.726 0 0 1 79.266 4.426z" fill="#4B4B4B"/><rect fill="#4B4B4B" x="71.044" y="0" width="40.392" height="29.879" rx="14.939"/><circle fill="#4B4B4B" cx="85.239" cy="18.906" r="18.813"/><path d="M92.155 13.28c11.765 0 21.303 9.537 21.303 21.302v18.017a8.853 8.853 0 0 1-5.64 8.249l-9.636 3.755a16.6 16.6 0 0 1-12.053 0l-9.637-3.755a8.853 8.853 0 0 1-5.639-8.249V34.582c0-11.765 9.537-21.303 21.302-21.303z" fill="#DC8E71"/><rect fill="#4B4B4B" transform="rotate(45 98.667 17.153)" x="92.58" y="4.98" width="12.173" height="24.346" rx="6.086"/><rect fill="#4B4B4B" transform="rotate(45 84.362 18.583)" x="78.275" y="2.537" width="12.173" height="32.092" rx="6.086"/><rect fill="#C96944" x="90.219" y="32.645" width="4.426" height="16.599" rx="2.213"/><rect stroke="#00AEF8" stroke-width="3.32" fill="#FFF" x="95.734" y="27.426" width="21.026" height="19.919" rx="4.426"/><rect stroke="#00AEF8" stroke-width="3.32" fill="#FFF" x="68.068" y="27.426" width="21.026" height="19.919" rx="4.426"/><rect fill="#2B70C9" x="97.901" y="36.177" width="5.533" height="8.3" rx="2.767"/><rect fill="#2B70C9" x="80.195" y="36.177" width="5.533" height="8.3" rx="2.767"/><path fill="#00AEF8" d="M88.349 32.039h6.64v3.32h-6.64z"/><path d="M92.535 55.321a7.17 7.17 0 0 0 6.939-1.854" stroke="#FFF" stroke-width="5.693" stroke-linecap="round" stroke-linejoin="round"/><path d="M16.05 68.23l40.204-25.122 29.022 32.784a7.553 7.553 0 0 1-1.653 11.411l-39.849 24.9a7.553 7.553 0 0 1-10.98-3.516L16.05 68.23z" fill="#4B4B4B"/><rect fill="#FFCA8A" transform="rotate(-32 47.026 72.852)" x="23.787" y="45.546" width="46.478" height="54.612" rx="23.239"/><path d="M32.833 80.35l9.745-7.551 2.949 4.72a6.133 6.133 0 1 1-10.402 6.499l-2.292-3.668zM49.366 70.02l10.401-6.5 2.292 3.668a6.133 6.133 0 0 1-10.4 6.499l-2.293-3.668z" fill="#FFF"/><rect fill="#4B4B4B" transform="rotate(-41 37.377 76.048)" x="29.824" y="74.596" width="15.105" height="2.905" rx="1.452"/><path d="M40.129 66.2l25.887-16.176a1.743 1.743 0 0 1 2.517.773l.85 1.92a4.737 4.737 0 0 1-1.822 5.933L49.366 70.02a5.81 5.81 0 0 1-8.006-1.85L40.13 66.2z" fill="#4B4B4B"/><path d="M10.773 61.251l41.719-26.068a2.324 2.324 0 0 1 3.086.57l9.135 12.104a2.324 2.324 0 0 1-.623 3.37L20.11 78.71a2.324 2.324 0 0 1-3.303-.917L9.933 64.276a2.324 2.324 0 0 1 .84-3.025z" fill="#00AEF8"/><path d="M20.549 30.48c10.884-6.801 25.221-3.491 32.022 7.393l6.774 10.84-39.416 24.629-6.773-10.84c-6.801-10.884-3.492-25.22 7.393-32.022z" fill="#00AEF8"/><path stroke="#FFF" stroke-width="3.486" stroke-linecap="round" stroke-linejoin="round" d="M23.464 69.134l2.208-9.628M29.377 65.44l-9.621-2.237"/><rect fill="#4B4B4B" transform="rotate(-32 41.372 77.412)" x="39.048" y="73.636" width="4.648" height="7.553" rx="2.324"/><rect fill="#4B4B4B" transform="rotate(-32 55.167 68.792)" x="52.843" y="65.016" width="4.648" height="7.553" rx="2.324"/><path d="M46.41 71.866a1.743 1.743 0 0 1 2.402.555l2.77 4.434a1.743 1.743 0 0 1-2.956 1.847l-2.77-4.434a1.743 1.743 0 0 1 .554-2.402z" fill="#E39C5C"/><circle fill="#E39C5C" transform="rotate(-32 51.028 79.257)" cx="51.028" cy="79.257" r="3.486"/><path stroke="#E67A43" stroke-width="2.277" stroke-linecap="round" stroke-linejoin="round" d="M44.19 90.436l11.23-2.945"/><path d="M71.194 84.993l35.964-6.99a3.3 3.3 0 0 1 3.749 2.162l11.239 32.554a3.3 3.3 0 0 1-2.49 4.316l-45.428 8.83a3.3 3.3 0 0 1-3.925-3.069l-1.775-34.393a3.3 3.3 0 0 1 2.666-3.41z" fill="#CE82FF"/><path d="M82.139 88.469l-1.68-8.638a7.7 7.7 0 0 1 15.118-2.939l1.679 8.638" stroke="#9069CD" stroke-width="4.4" stroke-linecap="round" stroke-linejoin="round"/><ellipse stroke="#9069CD" stroke-width="3.3" transform="rotate(-11 93.188 104.318)" cx="93.188" cy="104.318" rx="12.924" ry="13"/><path d="M93.603 109.084l-2.612 2.051a1.1 1.1 0 0 1-1.78-.846l-.056-3.178a1.1 1.1 0 0 0-.508-.908l-2.69-1.716a1.1 1.1 0 0 1 .233-1.967l3.098-1.07a1.1 1.1 0 0 0 .699-.74l.89-3.136a1.1 1.1 0 0 1 1.927-.375l2 2.575a1.1 1.1 0 0 0 .925.424l3.274-.168a1.1 1.1 0 0 1 .953 1.736l-1.851 2.599a1.1 1.1 0 0 0-.131 1.032l1.138 2.968a1.1 1.1 0 0 1-1.333 1.45l-3.19-.923a1.1 1.1 0 0 0-.986.192z" fill="#9069CD"/><path d="M96.203 80.105l34.843-11.321a3.3 3.3 0 0 1 3.985 1.69l15.122 30.94a3.3 3.3 0 0 1-1.945 4.588l-44.013 14.301a3.3 3.3 0 0 1-4.27-2.568l-5.953-33.92a3.3 3.3 0 0 1 2.23-3.71z" fill="#FFD900"/><path d="M107.49 82.221l-2.72-8.37a7.7 7.7 0 0 1 14.646-4.758l2.72 8.37" stroke="#FFB100" stroke-width="4.4" stroke-linecap="round" stroke-linejoin="round"/><circle stroke="#FFB100" stroke-width="3.3" transform="rotate(-18 120.836 96.6)" cx="120.836" cy="96.601" r="13"/><path d="M121.83 101.277l-2.374 2.374a1.1 1.1 0 0 1-1.867-.626l-.44-3.15a1.1 1.1 0 0 0-.619-.841l-2.887-1.37a1.1 1.1 0 0 1-.011-1.982l2.969-1.45a1.1 1.1 0 0 0 .604-.816l.512-3.241a1.1 1.1 0 0 1 1.865-.606l2.32 2.32a1.1 1.1 0 0 0 .968.307l3.254-.573a1.1 1.1 0 0 1 1.156 1.61l-1.53 2.805a1.1 1.1 0 0 0-.006 1.044l1.495 2.808a1.1 1.1 0 0 1-1.143 1.603l-3.316-.525a1.1 1.1 0 0 0-.95.309z" fill="#FFB100"/><path stroke="#78C800" stroke-width="4" stroke-linecap="round" stroke-linejoin="round" d="M56.846 26.148l-5-8.66M52.457 29.831l-7.66-6.427M62.23 24.188l-1.735-9.848"/><path d="M55.68 112.787l5.803 3.915a2 2 0 0 1 .54 2.776l-3.915 5.803a2 2 0 0 1-2.776.54l-5.804-3.914a2 2 0 0 1-.54-2.777l3.915-5.803a2 2 0 0 1 2.777-.54zM128.284 58.41l3.316 2.236a1.5 1.5 0 0 1 .405 2.083l-2.237 3.316a1.5 1.5 0 0 1-2.082.404l-3.316-2.236a1.5 1.5 0 0 1-.405-2.083l2.237-3.316a1.5 1.5 0 0 1 2.082-.405zM67.885 106.553l4.214 2.694a1 1 0 0 1 .29 1.401l-2.699 4.002a1 1 0 0 1-1.368.283l-4.214-2.693a1 1 0 0 1-.29-1.402l2.7-4.002a1 1 0 0 1 1.367-.283z" fill="#FFF"/></g></g></svg>