<svg viewBox="0 0 136 124" fill="none" xmlns="http://www.w3.org/2000/svg"><rect x="12.199" y="11" width="113" height="113" rx="17" fill="#FEC701"/><path fill-rule="evenodd" clip-rule="evenodd" d="M65.955 27.214c8.2 8.201 8.2 21.498 0 29.699l-53.406 53.406a17.064 17.064 0 0 1-.349-3.442V51.271l24.056-24.057c8.201-8.2 21.498-8.2 29.699 0zm59.245 1.057v35.354l-8.996 8.997c-4.881 4.881-12.796 4.881-17.677 0-4.882-4.882-4.882-12.797 0-17.678L125.2 28.27z" fill="#FFD900"/><rect x="67.281" y="3.315" width="46.842" height="59.723" rx="23.394" transform="rotate(85.395 67.281 3.315)" fill="#E27800"/><rect x="12.143" y="30.33" width="79.586" height="48.692" rx="23.674" transform="rotate(-4.605 12.143 30.33)" fill="#FFB100"/><circle cx="94.974" cy="47.071" r="6.943" transform="rotate(-4.605 94.974 47.071)" fill="#FFB100"/><circle cx="11.931" cy="53.76" r="6.943" transform="rotate(-4.605 11.93 53.76)" fill="#FFB100"/><circle cx="13.279" cy="61.119" r="3.346" transform="rotate(-4.605 13.28 61.12)" fill="#F68B00"/><path fill-rule="evenodd" clip-rule="evenodd" d="M54.773 59.456a3.34 3.34 0 0 0 3.067-3.594c-.148-1.836-3.833-5.91-3.833-5.91s-2.985 4.611-2.837 6.448a3.34 3.34 0 0 0 3.602 3.056z" fill="#F68B00"/><circle opacity=".5" cx="42.203" cy="63.273" r="10.06" transform="rotate(-4.605 42.203 63.273)" fill="#FF9600"/><circle opacity=".5" cx="70.439" cy="58.91" r="10.06" transform="rotate(-4.605 70.44 58.91)" fill="#FF9600"/><path d="M50.963 64.722a2.026 2.026 0 0 1 1.165-2.618l15.17-5.83a2.026 2.026 0 0 1 2.618 1.163 6.079 6.079 0 0 1-3.493 7.856l-7.604 2.922a6.079 6.079 0 0 1-7.856-3.493z" fill="#FFF1A2"/><path fill-rule="evenodd" clip-rule="evenodd" d="M114.617 55.68l13.326 22.995-8.904 33.231a3.625 3.625 0 0 1-4.439 2.563l-37.516-10.052a3.625 3.625 0 0 1-2.563-4.44l12.822-47.853a3.625 3.625 0 0 1 4.44-2.563l22.834 6.118z" fill="#FFF1A2"/><path fill-rule="evenodd" clip-rule="evenodd" d="M127.718 78.285l-16.573-4.444a1.45 1.45 0 0 1-1.021-1.789l4.538-16.296 13.056 22.53z" fill="#FF9E00"/><path fill="#FF9E00" d="M91.164 57.033l12.52 3.355-1.997 7.456-12.52-3.355zM87.523 70.973l27.291 7.313-1.847 6.893-27.291-7.312zM82.025 91.099l27.291 7.313-1.847 6.893-27.291-7.312zM84.662 81.202l32.75 8.775-1.847 6.894-32.75-8.775z"/><path d="M90.19 37.442l-11.559.931a8.507 8.507 0 0 1-9.162-7.796l-.387-4.803c8.867-.267 16.844 4.424 21.108 11.668z" fill="#FF9600"/><path d="M43.256 33.194a7.863 7.863 0 0 0-7.207 8.47l.287 3.553c3.997-.268 11.078-.79 15.685-1.136l-.296-3.68a7.863 7.863 0 0 0-8.47-7.207z" fill="#F68B00"/><path d="M43.484 36.029a7.863 7.863 0 0 0-7.206 8.469l.39 4.836c.02.261.054.518.1.771 1.317-.03 3.099.018 5.11.312 2.634.385 5.843 1.223 8.918 3.003a7.833 7.833 0 0 0 1.547-5.349l-.39-4.836a7.863 7.863 0 0 0-8.469-7.206z" fill="#FFF1A2"/><path d="M47.623 51.904a3.542 3.542 0 0 0 2.605-3.703l-.357-4.434a3.541 3.541 0 0 0-4.174-3.198 2.76 2.76 0 0 1-2.867 4l.338 4.2c.064.789.38 1.495.864 2.048 1.15.26 2.362.612 3.591 1.087z" fill="#E27800"/><path d="M54.978 37.073c.058.059.114.102.166.125.563.25 3.063 1.25 4.063 1.5.587.147 6.18.123 11.065.067.005.047.01.094.013.141l.264 3.283-15.61 2.067-.33-4.087a7.837 7.837 0 0 1 .37-3.096z" fill="#F68B00"/><path d="M56.452 37.568a7.834 7.834 0 0 0-1.614 5.436l.39 4.836a7.831 7.831 0 0 0 2.219 4.87c2.686-2.133 5.617-3.42 8.082-4.198a30.819 30.819 0 0 1 5.4-1.179 7.965 7.965 0 0 0-.026-.756l-.39-4.836a7.839 7.839 0 0 0-.866-3.01c-6.178 1.182-10.574.153-13.195-1.163z" fill="#FFF1A2"/><path d="M64.56 48.837a26.365 26.365 0 0 0-4.144 1.88 3.543 3.543 0 0 1-2.58-3.129l-.332-4.133a2.844 2.844 0 0 0 2.244-3.895 3.541 3.541 0 0 1 4.791 3.026l.358 4.434a3.526 3.526 0 0 1-.337 1.817z" fill="#E27800"/><path fill-rule="evenodd" clip-rule="evenodd" d="M53.823 32.333a1.75 1.75 0 0 1 1.699 1.8c-.004.12.105 1.115 2.175 1.986 2.08.876 5.902 1.471 12.487.664a1.75 1.75 0 1 1 .427 3.474c-6.865.842-11.388.302-14.272-.912-2.896-1.218-4.375-3.267-4.316-5.313a1.75 1.75 0 0 1 1.8-1.7z" fill="#F68B00"/><rect x="43.053" y="12.987" width="36.302" height="34.797" rx="17.398" transform="rotate(85.395 43.053 12.987)" fill="#E27800"/></svg>