<svg viewBox="0 0 135 124" fill="none" xmlns="http://www.w3.org/2000/svg"><path d="M11 28c0-9.389 7.611-17 17-17h79c9.389 0 17 7.611 17 17v79c0 9.389-7.611 17-17 17H28c-9.389 0-17-7.611-17-17V28z" fill="#E5E5E5"/><path d="M5.284 34.058C8.105 23.527 18.93 17.278 29.46 20.099l22.002 5.895c10.53 2.822 16.78 13.647 13.958 24.177-2.822 10.531-13.646 16.78-24.177 13.959l-22-5.895C8.71 55.412 2.461 44.588 5.282 34.057z" fill="#959595"/><path d="M64.56 52.698c-3.753 8.977-13.658 14.02-23.316 11.432l-22.001-5.895C9.584 55.647 3.527 46.327 4.767 36.676l59.792 16.022z" fill="#F2F2F2"/><path d="M13.11 38.912l4.034 1.08a5.128 5.128 0 0 0 6.281-3.626l1.457-5.437 25.13 6.733-1.458 5.438a5.129 5.129 0 0 0 3.627 6.28l4.493 1.205a18.972 18.972 0 0 1-.316 8.499l-2.461 9.186c-1.446 5.395-6.991 8.597-12.386 7.151l-27.688-7.419c-5.394-1.445-8.596-6.99-7.15-12.385l2.461-9.187a18.972 18.972 0 0 1 3.976-7.518z" fill="#D1D1D1"/><path d="M52.697 14.099a9.503 9.503 0 1 1-18.358-4.92 9.503 9.503 0 1 1 18.358 4.92z" fill="#959595"/><path d="M24.153 41.812A5.098 5.098 0 1 1 34 44.45l-.814 3.038a5.098 5.098 0 1 1-9.848-2.639l.814-3.038zM45.662 47.575a5.098 5.098 0 1 0-9.848-2.639L35 47.975a5.098 5.098 0 0 0 9.848 2.638l.814-3.038z" fill="#fff"/><path d="M40.84 46.253a1.673 1.673 0 0 0 1.593-2.182 2.296 2.296 0 0 1 2.726 2.256v2.882a2.296 2.296 0 1 1-4.591 0v-2.882c0-.032 0-.064.002-.096.087.014.178.022.27.022zM29.259 43.33a1.673 1.673 0 0 0 1.594-2.182 2.296 2.296 0 0 1 2.727 2.256v2.881a2.296 2.296 0 1 1-4.593 0v-2.882l.002-.095c.088.014.178.022.27.022z" fill="#959595"/><path fill-rule="evenodd" clip-rule="evenodd" d="M18.073 41.648a.55.55 0 0 1 .77-.094l3.136 2.452a.55.55 0 0 1-.244.974l-3.977.688a.55.55 0 1 1-.188-1.083l2.757-.477-2.16-1.689a.55.55 0 0 1-.094-.771zM51.009 50.473a.55.55 0 0 0-.62-.467l-3.942.556a.55.55 0 0 0-.275.966l3.1 2.584a.55.55 0 0 0 .703-.844l-2.148-1.791 2.715-.383a.55.55 0 0 0 .467-.62zM34.398 65.628a.55.55 0 0 1-.237.74c-3.633 1.87-7.136.66-8.47-.205a.55.55 0 0 1 .598-.922c1.104.716 4.181 1.79 7.369.15a.55.55 0 0 1 .74.237z" fill="#BFBFBF"/><path d="M30.324 61.798c-2.55.636-5.935.331-9.312-1.038-5.933-2.404-9.595-7.183-8.18-10.673 1.414-3.49 7.37-4.37 13.303-1.966 2.815 1.14 5.119 2.816 6.612 4.636 2.202-.83 5.035-1.129 8.044-.71 6.34.885 11.057 4.625 10.537 8.355-.52 3.73-6.081 6.037-12.42 5.154-3.61-.504-6.693-1.932-8.584-3.758z" fill="#D1D1D1"/><path d="M34.093 47.73c.108.03.655 1.794 1.199 3.638.541 1.835-1.14 3.539-2.989 3.044-1.848-.495-2.453-2.812-1.066-4.13 1.393-1.325 2.749-2.58 2.857-2.552z" fill="#959595"/><path fill-rule="evenodd" clip-rule="evenodd" d="M25.015 50.469a.733.733 0 0 1 .917.482c.717 2.31 3.703 6.756 9.93 6.003a.733.733 0 0 1 .176 1.455c-7.182.868-10.664-4.315-11.505-7.023a.733.733 0 0 1 .482-.917z" fill="#959595"/><path d="M24.8 36.48l22.91 6.14-1.875 7-11.456-3.069-11.148-4.214L24.8 36.48z" fill="#D1D1D1"/><path fill-rule="evenodd" clip-rule="evenodd" d="M22.505 40.633a1.648 1.648 0 0 1 2.135-.936l9.895 3.867a1.649 1.649 0 0 1-1.2 3.07l-9.895-3.866a1.648 1.648 0 0 1-.936-2.135zM41.235 42.607a4.732 4.732 0 0 0-2.571 1.089 1.648 1.648 0 1 1-2.167-2.485 8.024 8.024 0 0 1 4.436-1.887c2.002-.185 4.253.412 6.409 2.363a1.649 1.649 0 0 1-2.212 2.444c-1.498-1.355-2.846-1.62-3.895-1.524z" fill="#959595"/><path d="M37.521 82.655c0-9.646 7.82-17.465 17.465-17.465h10.112c9.645 0 17.465 7.82 17.465 17.465v.397c0 9.645-7.82 17.465-17.465 17.465H54.986c-9.646 0-17.465-7.82-17.465-17.465v-.397z" fill="#959595"/><path d="M37.9 104.996c.618 0 1.212-.107 1.762-.304 1.206 8.032 8.136 14.19 16.504 14.19h26.08c8.395 0 15.343-6.199 16.515-14.27a5.236 5.236 0 1 0-.266-9.587C96.766 87.65 90.147 82.16 82.246 82.16h-26.08c-7.87 0-14.467 5.446-16.228 12.775a5.236 5.236 0 1 0-2.038 10.06z" fill="#D1D1D1"/><path d="M97.563 92.212h-8.79a6.21 6.21 0 0 1-6.21-6.21v-3.84c6.722.126 12.473 4.226 15 10.05z" fill="#BFBFBF"/><path d="M40.991 105.374a2.524 2.524 0 1 1-5.047 0 2.524 2.524 0 0 1 5.047 0z" fill="#959595"/><path d="M70.41 92.086a5.822 5.822 0 0 1 5.821-5.822h.217a5.822 5.822 0 0 1 5.822 5.822v6.02a5.821 5.821 0 0 1-5.822 5.822h-.217a5.821 5.821 0 0 1-5.822-5.822v-6.02z" fill="#BFBFBF"/><path d="M70.41 94.231a5.822 5.822 0 0 1 5.821-5.821h.217a5.822 5.822 0 0 1 5.822 5.821v3.876a5.821 5.821 0 0 1-5.822 5.821h-.217a5.821 5.821 0 0 1-5.822-5.822v-3.875z" fill="#fff"/><path d="M68.223 92.086a5.822 5.822 0 0 0-5.822-5.822h-.217a5.822 5.822 0 0 0-5.822 5.822v6.02a5.821 5.821 0 0 0 5.822 5.822h.217a5.821 5.821 0 0 0 5.822-5.822v-6.02z" fill="#BFBFBF"/><path d="M56.362 94.231a5.822 5.822 0 0 1 5.822-5.821h.217a5.822 5.822 0 0 1 5.821 5.821v3.876a5.821 5.821 0 0 1-5.821 5.821h-.217a5.821 5.821 0 0 1-5.822-5.822v-3.875z" fill="#fff"/><path d="M37.521 84.19c0-7.288 5.908-13.196 13.196-13.196h.986c7.288 0 13.196 5.908 13.196 13.196v.986c0 7.288-5.908 13.196-13.196 13.196h-.986c-7.288 0-13.196-5.908-13.196-13.196v-.986z" fill="#959595"/><path d="M61.754 95.454a2.082 2.082 0 0 0 1.967-2.767 2.67 2.67 0 0 1 2.527 2.667v2.614a2.671 2.671 0 1 1-5.342 0v-2.614l.001-.08c.259.115.546.18.847.18zM72.384 95.453a2.082 2.082 0 0 0 1.984-2.68 2.673 2.673 0 0 1 3.358 2.581v2.614a2.671 2.671 0 1 1-5.342 0v-2.515z" fill="#959595"/><path d="M88.826 103.82c0 3.008-4.56 5.447-10.186 5.447-5.625 0-10.185-2.439-10.185-5.447 0-3.009 4.56-5.448 10.185-5.448 5.626 0 10.186 2.439 10.186 5.448z" fill="#D1D1D1"/><path d="M70.23 103.82c0 3.008-4.561 5.447-10.187 5.447-5.625 0-10.185-2.439-10.185-5.447 0-3.009 4.56-5.448 10.185-5.448 5.626 0 10.186 2.439 10.186 5.448z" fill="#D1D1D1"/><path d="M61.897 110.303a2.405 2.405 0 0 1 4.811 0v3.863a2.406 2.406 0 1 1-4.811 0v-3.863z" fill="#BFBFBF"/><path d="M65.817 110.303a2.405 2.405 0 0 1 4.811 0v8.543a2.406 2.406 0 1 1-4.811 0v-8.543z" fill="#BFBFBF"/><path d="M64.672 103.432a.76.76 0 0 1 .886.608 4.03 4.03 0 0 1-.635 3.012c2.502 1.865 6.203 1.764 8.693-.292a4.037 4.037 0 0 1-.452-2.72.759.759 0 1 1 1.494.278 2.504 2.504 0 0 0 3.27 2.832.76.76 0 0 1 .488 1.438 4.023 4.023 0 0 1-3.815-.671c-3.075 2.552-7.684 2.658-10.77.212a4.024 4.024 0 0 1-3.526.459.76.76 0 1 1 .489-1.438 2.504 2.504 0 0 0 3.27-2.832.76.76 0 0 1 .608-.886z" fill="#959595"/><path fill-rule="evenodd" clip-rule="evenodd" d="M61.447 107.279a2.521 2.521 0 0 1-.653-.129.76.76 0 0 0-.489 1.438 4.045 4.045 0 0 0 2.234.105c.452-.108.89-.295 1.292-.564a7.784 7.784 0 0 0 1.078.72c2.653 1.473 6.032 1.388 8.668-.204a8.503 8.503 0 0 0 1.007-.714l.017-.014a4.008 4.008 0 0 0 1.791.82 4.044 4.044 0 0 0 2.024-.149.76.76 0 1 0-.488-1.438 2.525 2.525 0 0 1-1.602.005 2.508 2.508 0 0 1-1.668-2.837.76.76 0 1 0-1.494-.278 4.037 4.037 0 0 0 .405 2.634l.047.086a7.048 7.048 0 0 1-2.414 1.295 7.331 7.331 0 0 1-3.765.146 6.84 6.84 0 0 1-2.1-.864 6.222 6.222 0 0 1-.414-.285 3.979 3.979 0 0 0 .537-1.128 4.04 4.04 0 0 0 .098-1.884.76.76 0 1 0-1.494.278 2.51 2.51 0 0 1-1.668 2.837 2.5 2.5 0 0 1-.95.124zm8.942-1.839a6.785 6.785 0 0 1 .082-1.902 3.499 3.499 0 0 1 6.928.918 3.5 3.5 0 0 1 1.898 6.726 6.784 6.784 0 0 1-4.529-.061c-3.42 1.959-7.734 2.043-11.185.125a6.78 6.78 0 0 1-4.158-.064 3.499 3.499 0 0 1 1.898-6.726 3.5 3.5 0 0 1 6.928-.918c.125.675.147 1.365.066 2.044.679.11 1.396.065 2.072-.142zm-8.714-.884z" fill="#BFBFBF"/><path d="M69.316 98.64c.118 0 1.162 1.657 2.224 3.395 1.057 1.73-.197 3.934-2.224 3.934s-3.282-2.204-2.224-3.934c1.062-1.738 2.106-3.394 2.224-3.394z" fill="#959595"/><path d="M76.501 115.145a2.059 2.059 0 1 1-4.117 0 2.059 2.059 0 0 1 4.117 0zM85.4 103.694a2.392 2.392 0 1 1-4.713-.82 2.392 2.392 0 0 1 4.713.82zM86.686 108.133a1.761 1.761 0 1 1-3.47-.604 1.761 1.761 0 0 1 3.47.604zM52.428 113.497a2.392 2.392 0 1 0 4.712-.82 2.392 2.392 0 0 0-4.712.82z" fill="#BFBFBF"/><path d="M21.894 111.857a6 6 0 1 0 11.823-2.059 6 6 0 0 0-11.823 2.059zM107.579 115.361a6 6 0 1 0 6.181-10.285 6 6 0 0 0-6.181 10.285z" fill="#959595"/><path d="M19.875 110.999a3.629 3.629 0 1 0 7.15-1.244 3.629 3.629 0 0 0-7.15 1.244zM29.51 114.901a2.91 2.91 0 1 0 5.735-1 2.91 2.91 0 0 0-5.735 1zM105.004 117.685a3.628 3.628 0 1 0 3.739-6.221 3.63 3.63 0 0 0-3.739 6.221z" fill="#959595"/><path d="M109.89 117.632a4.502 4.502 0 1 0 4.638-7.717 4.502 4.502 0 0 0-4.638 7.717z" fill="#959595"/><path d="M117.678 23.148c3.648 13.815-4.596 27.972-18.411 31.619-13.816 3.647-27.972-4.596-31.62-18.412C64 22.54 72.243 8.383 86.06 4.735c13.816-3.646 27.972 4.597 31.619 18.413z" fill="#9F9F9F"/><path d="M83.551 28.087l1.846 1.71L104.26 6.622c-.776-.389-1.571-.74-2.384-1.05L83.551 28.087z" fill="#979797"/><path d="M76.752 36.447l6.675-8.201 6.674-8.201 19.706 7.676L116.19 51.9l-33.055 8.726-6.383-24.18z" fill="#D1D1D1"/><path d="M80.43 68.17c-3.215-7.521.275-16.225 7.796-19.44l20.518-8.771c7.521-3.215 16.224.275 19.439 7.796 3.216 7.521-.275 16.224-7.796 19.44l-20.517 8.77c-7.521 3.216-16.225-.275-19.44-7.795z" fill="#959595"/><path fill-rule="evenodd" clip-rule="evenodd" d="M99.609 53.849a3.557 3.557 0 0 1 2.667-4.266c.124-.03.693-.239 1.244-.782.486-.48.982-1.237 1.117-2.492a3.558 3.558 0 0 1 7.074.764c-.661 6.124-5.246 8.845-7.836 9.443a3.557 3.557 0 0 1-4.266-2.667z" fill="#fff"/><path d="M81.121 38.489A5.987 5.987 0 0 1 92.7 35.432l1.04 3.938a5.987 5.987 0 0 1-11.578 3.056l-1.04-3.937z" fill="#fff"/><path d="M81.58 40.738a2.336 2.336 0 0 1 4.518-1.193l.405 1.537a2.336 2.336 0 0 1-4.517 1.192l-.406-1.536z" fill="#959595"/><path d="M99.698 27.392a5.987 5.987 0 0 1 7.318 4.261l1.039 3.938a5.37 5.37 0 0 1 .18 1.678L98.23 41.375c-.82-.634-1.44-1.544-1.753-2.728l-1.04-3.938a5.987 5.987 0 0 1 4.261-7.317z" fill="#fff"/><path d="M80.193 34.76a3.307 3.307 0 0 1 2.266-3.085l18.988-6.295a3.308 3.308 0 0 1 3.046.509l3.767 2.871-28.18 13.062.113-7.061z" fill="#D1D1D1"/><path fill-rule="evenodd" clip-rule="evenodd" d="M90.069 34.207c-3.434-1.787-6.447.178-7.547 1.45a1.308 1.308 0 1 1-1.978-1.713c1.49-1.72 5.759-4.646 10.732-2.058a1.308 1.308 0 0 1-1.207 2.32zM107.566 29.085a1.24 1.24 0 0 1-.522 1.674l-10.585 5.553a1.24 1.24 0 0 1-1.152-2.196l10.584-5.553a1.24 1.24 0 0 1 1.675.522z" fill="#959595"/><path d="M92.931 46.173a4.436 4.436 0 1 0 7.853-4.094c-2.664 1.386-5.918 3.08-7.853 4.094z" fill="#D1D1D1"/><path d="M95.744 35.974a2.336 2.336 0 1 1 4.518-1.193l.405 1.537a2.336 2.336 0 0 1-4.517 1.192l-.406-1.536z" fill="#959595"/><path d="M14.175 72.798a2.367 2.367 0 0 1 2.11-.565l12.236 2.712c1.21.268 1.247 1.978.05 2.298L6.04 83.28c-1.197.32-2.02-1.179-1.106-2.015l9.24-8.467z" fill="#BFBFBF"/><path d="M6.136 83.835l21.717-5.819 3.578 13.355L9.715 97.19 6.136 83.835z" fill="#D1D1D1"/><path fill-rule="evenodd" clip-rule="evenodd" d="M7.98 98.72a1.775 1.775 0 0 1 1.256-2.174l23.145-6.202a1.775 1.775 0 0 1 .919 3.429l-23.145 6.201A1.775 1.775 0 0 1 7.98 98.72zM5.966 91.09a1.775 1.775 0 0 1 1.255-2.174l23.145-6.202a1.775 1.775 0 1 1 .919 3.429L8.14 92.345a1.775 1.775 0 0 1-2.174-1.255zM3.888 83.445a1.775 1.775 0 0 1 1.255-2.174l23.145-6.202a1.775 1.775 0 1 1 .92 3.43L6.061 84.7a1.775 1.775 0 0 1-2.174-1.255z" fill="#959595"/><path fill-rule="evenodd" clip-rule="evenodd" d="M28.448 75.663a1.775 1.775 0 0 1 2.174 1.255l3.933 14.68a1.775 1.775 0 1 1-3.429.92l-3.934-14.68a1.775 1.775 0 0 1 1.256-2.175z" fill="#959595"/><path d="M121.659 72.812a2.303 2.303 0 0 0-2.004-.712l-12.084 1.685c-1.193.167-1.362 1.823-.226 2.226l21.397 7.602c1.136.403 2.05-.988 1.229-1.87l-8.312-8.93z" fill="#BFBFBF"/><path d="M128.605 84.144l-20.623-7.327-4.505 12.682 20.623 7.327 4.505-12.682z" fill="#D1D1D1"/><path fill-rule="evenodd" clip-rule="evenodd" d="M125.664 98.444c.32-.899-.15-1.887-1.049-2.206l-21.98-7.809a1.729 1.729 0 0 0-1.157 3.257l21.98 7.808c.899.32 1.887-.15 2.206-1.05zM128.21 91.196a1.728 1.728 0 0 0-1.05-2.206l-21.98-7.809a1.727 1.727 0 1 0-1.156 3.257l21.979 7.808c.9.32 1.888-.15 2.207-1.05zM130.817 83.94c.32-.9-.15-1.888-1.049-2.207l-21.98-7.809a1.729 1.729 0 0 0-1.157 3.256l21.98 7.809c.899.32 1.887-.15 2.206-1.05z" fill="#959595"/><path fill-rule="evenodd" clip-rule="evenodd" d="M107.587 74.488a1.727 1.727 0 0 0-2.206 1.05l-4.953 13.941a1.728 1.728 0 0 0 3.257 1.157l4.952-13.941c.32-.9-.15-1.887-1.05-2.207z" fill="#959595"/><path d="M13.643 91.35h5.61v6.834a2.805 2.805 0 1 1-5.61 0v-6.835z" fill="#D1D1D1"/><path d="M18.784 91.822h5.61v9.193a2.805 2.805 0 0 1-5.61 0v-9.193zM109.215 89.884h5.611V97a2.805 2.805 0 0 1-5.61 0l-.001-7.116z" fill="#D1D1D1"/></svg>