<svg viewBox="0 0 135 124" fill="none" xmlns="http://www.w3.org/2000/svg"><g clip-path="url(#clip0)"><path d="M107 11H28c-9.389 0-17 7.611-17 17v79c0 9.389 7.611 17 17 17h79c9.389 0 17-7.611 17-17V28c0-9.389-7.611-17-17-17z" fill="#B2B2B2"/><path d="M39.275 11.817a10.62 10.62 0 0 0-.068-.505c-.901-5.676-6.233-9.547-11.91-8.646-5.676.901-9.547 6.234-8.646 11.91.884 5.57 6.034 9.401 11.59 8.692.018.168.04.337.067.505.901 5.677 6.233 9.548 11.91 8.646 5.676-.9 9.547-6.233 8.646-11.91-.884-5.569-6.034-9.4-11.59-8.692z" fill="#9F9F9F"/><path d="M12.277 38.656c-1.086-6.842 3.58-13.269 10.421-14.355l37.556-5.962c6.841-1.087 13.268 3.58 14.354 10.42l3.99 25.133c1.087 6.841-3.579 13.268-10.42 14.355l-37.556 5.962c-6.842 1.086-13.268-3.58-14.355-10.421l-3.99-25.132z" fill="#E5E5E5"/><path d="M44.303 39.131c.142-.022 1.708 1.765 3.313 3.647 1.596 1.872.512 4.754-1.918 5.14-2.43.385-4.354-2.02-3.415-4.294.943-2.286 1.878-4.47 2.02-4.493z" fill="#CDCDCD"/><path d="M18.331 25.86c-4.33 2.533-6.888 7.542-6.054 12.796l1.517 9.55.454-.072a7.526 7.526 0 0 0 6.253-8.612l-2.17-13.663zM64.888 18.467c4.903 1.069 8.886 5.04 9.72 10.293l1.517 9.55-.455.073a7.526 7.526 0 0 1-8.613-6.253l-2.169-13.663z" fill="#CECECE"/><path d="M38.499 45.714a10.187 10.187 0 0 0 4.693-10.257c-.882-5.555-6.1-9.343-11.656-8.461-5.555.882-9.343 6.1-8.461 11.655a10.137 10.137 0 0 0 2.233 4.924 10.76 10.76 0 0 1 3.552-1.224 10.771 10.771 0 0 1 9.639 3.363zM63.741 37.473c.66-1.65.897-3.492.599-5.373-.882-5.556-6.1-9.344-11.656-8.462-5.555.882-9.343 6.1-8.461 11.655a10.187 10.187 0 0 0 7.639 8.299 10.772 10.772 0 0 1 8.123-6.182 10.76 10.76 0 0 1 3.756.063z" fill="#fff"/><path fill-rule="evenodd" clip-rule="evenodd" d="M52.736 42.03a8.478 8.478 0 0 1-6.825-7.005 8.474 8.474 0 1 1 16.05 2.253 10.857 10.857 0 0 0-2.321.192 2.177 2.177 0 1 0-2.162.654 10.773 10.773 0 0 0-4.742 3.907zm2.534-9.058a33.441 33.441 0 0 0-1.785.945l-.243.138-.373.215c-2.13 1.228-3.71 2.138-4.806.111-1.29-2.387-.112-5.524 2.63-7.006 2.744-1.483 6.013-.75 7.303 1.638 1.096 2.027-.531 2.85-2.726 3.96zM26.94 42.838a10.837 10.837 0 0 1 1.92-.487c3.074-.488 6.05.374 8.324 2.148a8.474 8.474 0 1 0-12.42-6.117 8.435 8.435 0 0 0 2.176 4.456zm7.183-6.509c-.39.198-.798.404-1.212.627-.195.106-.386.212-.572.318l-.243.138c-.127.072-.251.144-.373.215-2.131 1.228-3.71 2.139-4.806.111-1.29-2.387-.113-5.524 2.63-7.006 2.743-1.483 6.012-.749 7.303 1.638 1.095 2.028-.532 2.85-2.727 3.96zm3.091 5.194a2.177 2.177 0 1 0-.682-4.3 2.177 2.177 0 0 0 .682 4.3z" fill="#9F9F9F"/><path d="M13.333 56.55a5.623 5.623 0 1 0-1.764-11.108 5.623 5.623 0 0 0 1.764 11.107zM79.145 46.1a5.623 5.623 0 1 0-1.763-11.106A5.623 5.623 0 0 0 79.145 46.1z" fill="#E5E5E5"/><path fill-rule="evenodd" clip-rule="evenodd" d="M46.308 51.761a7.532 7.532 0 0 0-5.992 5.136 1.324 1.324 0 0 1-2.52-.813 10.18 10.18 0 0 1 8.097-6.939 10.18 10.18 0 0 1 9.849 4.09 1.324 1.324 0 1 1-2.146 1.553 7.532 7.532 0 0 0-7.288-3.027z" fill="#CDCDCD"/><path fill-rule="evenodd" clip-rule="evenodd" d="M34.07 24.538c.538.495.574 1.333.08 1.871-4.01 4.367-9.867 6.273-12.344 6.7a1.324 1.324 0 1 1-.45-2.61c2.13-.367 7.362-2.09 10.842-5.881a1.324 1.324 0 0 1 1.871-.08zM49.117 22.15a1.324 1.324 0 0 0 .504 1.803c5.165 2.91 11.324 2.908 13.812 2.547a1.324 1.324 0 1 0-.38-2.621c-2.14.31-7.648.293-12.132-2.234a1.324 1.324 0 0 0-1.804.504z" fill="#9F9F9F"/><path d="M129.006 88.07c1.498-16.414-10.802-30.953-27.473-32.474L90.96 54.63c-16.671-1.522-31.4 10.551-32.898 26.965-1.498 16.414 10.802 30.953 27.473 32.475l10.574.964c16.671 1.522 31.4-10.551 32.897-26.965z" fill="#C7C7C7"/><path d="M66.173 66.87l-1.918-.176 6.136-5.348 7.727-4.706 9.42-1.355 17.145 1.565 10.23 4.053 9.741 11.303-.959-.088c-1.28 1.614-3.541 2.578-6.014 2.352-2.474-.226-4.523-1.583-5.49-3.401-1.28 1.613-3.541 2.577-6.015 2.35-2.474-.225-4.523-1.582-5.49-3.4-1.28 1.613-3.54 2.577-6.014 2.351-2.474-.226-4.523-1.583-5.49-3.401-1.28 1.613-3.541 2.577-6.015 2.351-2.474-.226-4.523-1.583-5.49-3.4-1.28 1.612-3.54 2.576-6.014 2.35-2.474-.225-4.523-1.583-5.49-3.4z" fill="#F8F8F8"/><path d="M119.168 58.172c.193-2.118-1.143-3.971-2.985-4.14l-39.349-3.59c-1.841-.168-3.49 1.412-3.684 3.53-.193 2.118 1.143 3.971 2.985 4.14l39.348 3.59c1.842.168 3.492-1.412 3.685-3.53zM107.991 117.087c.145-1.589-1.27-3.017-3.161-3.189l-26.707-2.437c-1.891-.173-3.541.975-3.686 2.563-.145 1.589 1.27 3.016 3.161 3.189l26.707 2.437c1.891.173 3.541-.975 3.686-2.563z" fill="#F8F8F8"/><path d="M71.126 107.934c4.146 2.808 9.335 4.707 15.073 5.23l9.422.86c5.737.524 11.184-.405 15.77-2.416-1.532-7.356-9.231-13.42-18.994-14.312-9.763-.89-18.433 3.681-21.271 10.638z" fill="#9F9F9F"/><path fill-rule="evenodd" clip-rule="evenodd" d="M90.561 58.996l10.574.965c14.222 1.298 24.715 13.702 23.437 27.704-1.277 14.003-13.843 24.303-28.065 23.005l-10.573-.965c-14.222-1.298-24.716-13.701-23.438-27.704 1.278-14.003 13.843-24.303 28.065-23.005zm10.972-3.4c16.671 1.521 28.971 16.06 27.473 32.474-1.497 16.414-16.226 28.487-32.897 26.965l-10.574-.964c-16.67-1.522-28.97-16.061-27.473-32.475C59.56 65.182 74.29 53.11 90.96 54.631l10.573.965z" fill="#F8F8F8"/><path d="M100.011 84.8c.011-.737-.571-1.361-1.335-1.431l-10.892-.994c-.764-.07-1.45.44-1.573 1.166L83.472 99.8c-.136.806.47 1.558 1.317 1.636l13.382 1.221c.847.077 1.579-.553 1.591-1.37l.249-16.487z" fill="#B2B2B2"/><path d="M101.618 78.804c.639.058 1.116.553 1.066 1.106l-.343 3.751c-.05.553-.609.954-1.247.895l-15.903-1.45c-.639-.06-1.115-.554-1.065-1.107l.342-3.751c.05-.553.61-.954 1.248-.895l2.169.198c.638.058 1.115.553 1.065 1.106l-.166 1.813 2.386.218.165-1.814c.05-.552.61-.953 1.248-.894l2.168.197c.64.059 1.116.554 1.066 1.106l-.166 1.814 2.386.217.165-1.813c.05-.553.61-.953 1.248-.895l2.168.198z" fill="#B2B2B2"/><path d="M96.398 95.826c.198-2.171-1.358-4.089-3.476-4.282-2.118-.193-3.996 1.41-4.194 3.582l-.603 6.614 7.67.7.603-6.614z" fill="#9F9F9F"/></g><defs><clipPath id="clip0"><path fill="#fff" d="M0 0h135v124H0z"/></clipPath></defs></svg>