<svg viewBox="0 0 135 124" fill="none" xmlns="http://www.w3.org/2000/svg"><g clip-path="url(#clip0)"><path fill-rule="evenodd" clip-rule="evenodd" d="M28.047 11h79c9.388 0 17 7.611 17 17v79c0 9.389-7.612 17-17 17h-79c-9.39 0-17-7.611-17-17V28c0-9.389 7.61-17 17-17z" fill="#9069CD"/><path d="M61.828 49.009c5.632 15.547-2.407 32.717-17.955 38.349C28.326 92.99 11.156 84.95 5.524 69.403-.107 53.856 7.931 36.686 23.48 31.054c15.547-5.631 32.717 2.407 38.349 17.955z" fill="#0084C2"/><path d="M23.001 58.23l2.305 1.78 19.346-28.662a30.067 30.067 0 0 0-2.856-.964L23.001 58.229z" fill="#006AAD"/><path d="M16.028 68.568l6.846-10.143 6.846-10.142 23.507 6.81 9.857 27.21-37.2 13.475-9.856-27.21z" fill="#C6775C"/><path d="M18.063 104.336c-3.224-8.9 1.378-18.728 10.278-21.952L52.62 73.59c8.9-3.223 18.728 1.378 21.952 10.278s-1.378 18.728-10.278 21.952l-24.279 8.795c-8.9 3.223-18.728-1.378-21.952-10.278z" fill="#3D3D3D"/><path d="M45.424 76.56a5.134 5.134 0 1 1-9.654 3.498 5.134 5.134 0 0 1 9.654-3.498z" fill="#C6775C"/><path d="M21.654 71.513a6.929 6.929 0 0 1 13.03-4.72l1.605 4.432a6.93 6.93 0 0 1-13.03 4.72l-1.605-4.431zM45.324 91.256a5.913 5.913 0 0 1 1.655-8.197l2.132-1.416a5.913 5.913 0 0 1 8.197 1.655 1.87 1.87 0 0 1-.804 2.746l-1.93.85A17.171 17.171 0 0 0 49.7 90.13l-1.532 1.45a1.87 1.87 0 0 1-2.843-.325z" fill="#fff"/><path fill-rule="evenodd" clip-rule="evenodd" d="M18.836 65.92c4.434-.642 5.936-4.523 6.11-6.462a1.514 1.514 0 1 1 3.016.273c-.237 2.623-2.271 8.256-8.693 9.185a1.514 1.514 0 0 1-.433-2.996z" fill="#3D3D3D"/><path fill-rule="evenodd" clip-rule="evenodd" d="M26.168 62.013a7.777 7.777 0 0 1 4.833.483 7.777 7.777 0 0 1 3.61 3.248 3.208 3.208 0 0 1-5.565 3.193 1.361 1.361 0 0 0-.639-.573 1.361 1.361 0 0 0-.853-.087 3.208 3.208 0 0 1-1.386-6.264z" fill="#3D3D3D"/><path fill-rule="evenodd" clip-rule="evenodd" d="M47.58 59.582a1.21 1.21 0 0 0-1.709.11l-6.066 6.898a1.21 1.21 0 0 0 1.014 2.006l8.673-.745a1.21 1.21 0 0 0-.207-2.413l-5.67.487 4.075-4.634a1.21 1.21 0 0 0-.11-1.709z" fill="#87401A"/><path fill-rule="evenodd" clip-rule="evenodd" d="M44.962 56.063c-4.339 1.114-5.415 5.135-5.381 7.08a1.514 1.514 0 1 1-3.027.054c-.046-2.633 1.371-8.453 7.656-10.066a1.514 1.514 0 0 1 .752 2.932z" fill="#3D3D3D"/><path d="M80.047 95.785c0-14.666 11.89-26.556 26.555-26.556 14.667 0 26.556 11.89 26.556 26.556 0 5.006-1.159 9.626-2.184 12.559-.391 1.121.518 2.502 1.332 3.367a3.142 3.142 0 0 1-2.29 5.294H83.189a3.142 3.142 0 0 1-2.182-5.403c.826-.798 1.709-2.053 1.36-3.148-1.498-4.689-2.166-10.198-2.32-12.669z" fill="#3D3D3D"/><path fill-rule="evenodd" clip-rule="evenodd" d="M94.735 74.475a23.18 23.18 0 0 1 11.867-3.247 23.18 23.18 0 0 1 11.868 3.247 1.21 1.21 0 0 1-1.234 2.08 20.765 20.765 0 0 0-10.634-2.91c-3.885 0-7.52 1.062-10.633 2.91a1.209 1.209 0 1 1-1.234-2.08z" fill="#4B4B4B"/><path d="M122.669 95.785c0 8.816-7.146 15.963-15.962 15.963-8.816 0-15.963-7.147-15.963-15.963 0-8.816 7.147-15.962 15.963-15.962 8.816 0 15.962 7.146 15.962 15.962z" fill="#3D3D3D"/><path fill-rule="evenodd" clip-rule="evenodd" d="M106.602 83.476c-6.797 0-12.308 5.511-12.308 12.31 0 6.797 5.51 12.308 12.308 12.308s12.309-5.511 12.309-12.309c0-6.798-5.511-12.309-12.309-12.309zM89.05 95.786c0-9.695 7.858-17.553 17.552-17.553 9.695 0 17.553 7.858 17.553 17.552 0 9.694-7.858 17.553-17.553 17.553-9.694 0-17.552-7.859-17.552-17.553z" fill="#AAA"/><path fill-rule="evenodd" clip-rule="evenodd" d="M106.602 76.796c-10.487 0-18.99 8.501-18.99 18.99 0 10.487 8.503 18.989 18.99 18.989 10.488 0 18.99-8.502 18.99-18.99 0-10.487-8.502-18.99-18.99-18.99zm0 3.863c-2.103 0-4.106.43-5.927 1.205l4.696 6.09a7.84 7.84 0 0 1 2.435.037l4.723-6.127a15.076 15.076 0 0 0-5.927-1.205zm6.092 10.325l3-7.29a15.117 15.117 0 0 1 5.926 10.263l-7.869-1.054a7.782 7.782 0 0 0-1.057-1.919zm.947 7.698l7.978-1.069a15.114 15.114 0 0 1-5.925 10.263l-3.07-7.459c.41-.528.753-1.11 1.017-1.735zm-6.013 4.667l4.901 6.357a15.075 15.075 0 0 1-5.927 1.206c-2.103 0-4.106-.43-5.927-1.206l4.877-6.326a7.775 7.775 0 0 0 2.076-.031zm-7.135-2.718l-2.982 7.245a15.115 15.115 0 0 1-5.926-10.263l7.704 1.032c.302.724.71 1.392 1.204 1.986zm-1.312-7.691l-7.596 1.017a15.113 15.113 0 0 1 5.926-10.262l2.911 7.072a7.762 7.762 0 0 0-1.24 2.173z" fill="#C9C9C9"/><path d="M106.707 98.927a3.142 3.142 0 1 0 0-6.284 3.142 3.142 0 0 0 0 6.284z" fill="#AAA"/><path fill-rule="evenodd" clip-rule="evenodd" d="M107.055 90.614a5.263 5.263 0 0 0-.557-.02.683.683 0 1 1-.025-1.366 6.622 6.622 0 0 1 1.395.123.683.683 0 1 1-.262 1.34 5.271 5.271 0 0 0-.551-.078zm-3.159-.088a.684.684 0 0 1-.186.948 5.213 5.213 0 0 0-.851.714.683.683 0 1 1-.984-.947 6.55 6.55 0 0 1 1.073-.901.683.683 0 0 1 .948.186zm6.285.55a.683.683 0 0 1 .966-.019c.337.325.639.685.901 1.074a.684.684 0 0 1-1.134.762 5.25 5.25 0 0 0-.714-.851.683.683 0 0 1-.019-.966zm-9.212 2.904a.683.683 0 0 1 .54.801 4.97 4.97 0 0 0-.078.552 4.96 4.96 0 0 0-.019.556.683.683 0 0 1-1.366.026 6.346 6.346 0 0 1 .024-.701c.02-.236.053-.468.098-.695a.682.682 0 0 1 .801-.54zm11.495 1.005a.683.683 0 0 1 .695.67 6.587 6.587 0 0 1-.122 1.395.682.682 0 1 1-1.341-.261 4.97 4.97 0 0 0 .078-.551 4.96 4.96 0 0 0 .019-.557.683.683 0 0 1 .671-.695zm-11.121 3.507a.683.683 0 0 1 .948.186c.207.308.447.593.714.85a.683.683 0 1 1-.947.985 6.62 6.62 0 0 1-.901-1.073.684.684 0 0 1 .186-.948zm9.969.872c.272.261.28.694.018.966a6.556 6.556 0 0 1-1.073.9.683.683 0 1 1-.762-1.134c.308-.207.593-.446.851-.714a.683.683 0 0 1 .966-.018zm-6.515 2.054a.684.684 0 0 1 .802-.539c.18.035.364.061.551.078.187.016.373.022.556.019a.683.683 0 1 1 .026 1.366 6.87 6.87 0 0 1-.701-.024 6.877 6.877 0 0 1-.695-.098.684.684 0 0 1-.539-.802z" fill="#AAA"/><path fill-rule="evenodd" clip-rule="evenodd" d="M123.3 109.456a1.21 1.21 0 0 1-.456 1.648c-13.554 7.683-27.368 3.209-32.641-.02a1.21 1.21 0 0 1 1.263-2.062c4.793 2.935 17.637 7.091 30.186-.021a1.21 1.21 0 0 1 1.648.455z" fill="#373737"/><path d="M117.888 44.65a1.42 1.42 0 0 0-2.841 0v16.414a1.42 1.42 0 1 0 2.841 0V44.65zM109.888 37.65a1.42 1.42 0 0 0-2.841 0v16.414a1.42 1.42 0 1 0 2.841 0V37.65zM78.888 54.65a1.42 1.42 0 1 0-2.841 0v16.414a1.42 1.42 0 0 0 2.84 0V54.65zM23.888 7.65a1.42 1.42 0 0 0-2.841 0v16.414a1.42 1.42 0 0 0 2.84 0V7.65zM88.888 7.65a1.42 1.42 0 0 0-2.841 0v13.58a1.42 1.42 0 0 0 2.84 0V7.65zM110.888 7.65a1.42 1.42 0 0 0-2.841 0v9.08a1.42 1.42 0 1 0 2.841 0V7.65zM29.888 19.73a1.42 1.42 0 0 0-2.841 0v12.255a1.42 1.42 0 1 0 2.84 0V19.73zM70.888 20.65a1.42 1.42 0 1 0-2.841 0v16.414a1.42 1.42 0 0 0 2.84 0V20.65zM64.888 15.65a1.42 1.42 0 1 0-2.841 0v16.414a1.42 1.42 0 0 0 2.84 0V15.65z" fill="#A2DBFF"/><path fill-rule="evenodd" clip-rule="evenodd" d="M46.284 38.798c.077.973.928 1.7 1.902 1.623.658-.052.91.095 1.007.173.106.087.321.337.434 1.053a1.768 1.768 0 1 0 3.492-.552c-.196-1.243-.69-2.424-1.693-3.241-1.012-.826-2.268-1.056-3.519-.957-.973.077-1.7.928-1.623 1.901zM88.284 73.219c.077.973.928 1.7 1.902 1.623.658-.052.91.094 1.007.172.106.087.321.337.434 1.053a1.768 1.768 0 1 0 3.493-.552c-.197-1.243-.69-2.424-1.694-3.24-1.012-.827-2.268-1.057-3.519-.958-.973.077-1.7.928-1.623 1.902z" fill="#A2DBFF"/><path d="M53.097 31.23a1.42 1.42 0 0 0-2.84 0v9.31a1.42 1.42 0 0 0 2.84 0v-9.31zM95.097 63.23a1.42 1.42 0 0 0-2.84 0v11.73a1.42 1.42 0 1 0 2.84 0V63.23zM42.783 37.702a1.736 1.736 0 1 0 0-3.473 1.736 1.736 0 0 0 0 3.473zM86.783 70.702a1.736 1.736 0 1 0 0-3.473 1.736 1.736 0 0 0 0 3.473zM118.783 68.702a1.736 1.736 0 1 0 0-3.472 1.736 1.736 0 0 0 0 3.472zM114.783 19.702a1.736 1.736 0 1 0 0-3.472 1.736 1.736 0 0 0 0 3.472zM101.888 52.65a1.42 1.42 0 0 0-2.841 0v9.335a1.42 1.42 0 0 0 2.841 0V52.65z" fill="#A2DBFF"/><path d="M51.855 22.834c5.976 0 10.82-4.887 10.82-10.917S57.832 1 51.856 1c-5.977 0-10.822 4.888-10.822 10.917 0 6.03 4.845 10.917 10.822 10.917z" fill="#DDD"/><path d="M66.093 21.398c4.875 0 8.828-3.988 8.828-8.906 0-4.919-3.953-8.906-8.828-8.906-4.876 0-8.828 3.987-8.828 8.906 0 4.918 3.953 8.906 8.828 8.906z" fill="#DDD"/><path fill-rule="evenodd" clip-rule="evenodd" d="M44.858 11.63h27.378a7.811 7.811 0 0 1 7.81 7.811v.18a7.811 7.811 0 0 1-7.81 7.81H44.858a7.811 7.811 0 0 1-7.811-7.81v-.18a7.811 7.811 0 0 1 7.81-7.811z" fill="#DDD"/><path d="M97.694 47.044c6.83 0 12.367-5.555 12.367-12.407 0-6.853-5.537-12.408-12.368-12.408-6.83 0-12.367 5.555-12.367 12.408 0 6.852 5.537 12.407 12.368 12.407z" fill="#E8E8E8"/><path d="M116.967 44.572c5.336 0 9.661-4.34 9.661-9.692s-4.325-9.691-9.661-9.691c-5.335 0-9.66 4.339-9.66 9.691 0 5.353 4.325 9.692 9.66 9.692z" fill="#E8E8E8"/><path fill-rule="evenodd" clip-rule="evenodd" d="M88.61 31.834h36.78a7.61 7.61 0 0 1 7.61 7.61v.082a7.61 7.61 0 0 1-7.61 7.61H88.61a7.61 7.61 0 0 1-7.61-7.61v-.083a7.61 7.61 0 0 1 7.61-7.61z" fill="#E8E8E8"/></g><defs><clipPath id="clip0"><path fill="#fff" d="M0 0h135v124H0z"/></clipPath></defs></svg>