<svg viewBox="0 0 135 124" version="1.1" xmlns="http://www.w3.org/2000/svg"><g stroke="none" stroke-width="1" fill="none" fill-rule="evenodd"><path d="M30 11h79c9.389 0 17 7.611 17 17v79c0 9.389-7.611 17-17 17H30c-9.389 0-17-7.611-17-17V28c0-9.389 7.611-17 17-17z" fill="#B2B2B2"/><g fill="#CECECE" fill-rule="nonzero"><g><path d="M113.957 110.104a2.46 2.46 0 0 0 .424-3.453l-11.083-14.186c-.404-2.496 2.875-3.824 4.399-1.052.441.804.815 1.345 1.122 1.625l4.764 8.575a2.465 2.465 0 0 0 3.348.96 2.457 2.457 0 0 0 .958-3.343l-10.67-19.21.005-.004-3.99-7.316c-3.358-6.16-10.464-8.977-16.945-7.163L45.7 9.287a8.29 8.29 0 1 0-13.054 10.2l44.758 52.988c-2.865 5.05-2.587 11.54 1.209 16.399a14.779 14.779 0 0 0 1.642 1.78l.822.756c.113.181.25.351.414.504l20.842 19.47a2.456 2.456 0 0 0 3.472-.118l.003-.004a2.465 2.465 0 0 0-.122-3.48l-8.903-8.317c-2.16-2.416.786-5.464 3.325-3.09l10.394 13.305a2.46 2.46 0 0 0 3.454.424z"/></g></g><g fill="#DFDFDF" fill-rule="nonzero"><g><path d="M25.043 110.104a2.46 2.46 0 0 1-.424-3.453l11.083-14.186c.404-2.496-2.875-3.824-4.399-1.052-.441.804-.815 1.345-1.122 1.625l-4.764 8.575a2.465 2.465 0 0 1-3.348.96 2.457 2.457 0 0 1-.958-3.343l10.67-19.21-.005-.004 3.99-7.316c3.358-6.16 10.464-8.977 16.945-7.163L93.3 9.287a8.29 8.29 0 1 1 13.054 10.2L61.595 72.474c2.865 5.05 2.587 11.54-1.209 16.399a14.779 14.779 0 0 1-1.642 1.78l-.822.756c-.113.181-.25.351-.414.504l-20.842 19.47a2.456 2.456 0 0 1-3.472-.118l-.003-.004a2.465 2.465 0 0 1 .122-3.48l8.903-8.317c2.16-2.416-.786-5.464-3.325-3.09L28.497 109.68a2.46 2.46 0 0 1-3.454.424z"/></g></g><rect fill="#CECECE" transform="rotate(45 121.5 33.843)" x="116" y="28.343" width="11" height="11" rx="2"/><rect fill="#CECECE" transform="rotate(45 109.5 51.722)" x="105.5" y="47.722" width="8" height="8" rx="2"/><rect fill="#CECECE" transform="rotate(45 30.5 46.257)" x="24" y="39.757" width="13" height="13" rx="2"/></g></svg>