<svg xmlns="http://www.w3.org/2000/svg" viewBox="0 0 135 124"><defs><style>.cls-1{fill:#e5e5e5}.cls-2{fill:#b2b2b2}.cls-3{fill:#d1d1d1}.cls-4{fill:#bfbfbf}.cls-5{fill:#f2f1f1}</style></defs><g id="Layer_3" data-name="Layer 3"><rect id="bg" class="cls-1" x="11" y="11" width="113" height="113" rx="17"/><path class="cls-1" d="M11 100.2v6.8a17 17 0 0 0 17 17h79a17 17 0 0 0 17-17v-6.8z"/><path class="cls-2" d="M107 11H36.83v65.5H124V28a17 17 0 0 0-17-17z"/><circle class="cls-1" cx="108.35" cy="19.61" r="1.81"/><circle class="cls-1" cx="52.05" cy="58.02" r="1.81"/><circle class="cls-3" cx="62.53" cy="27.99" r="13.25"/><rect class="cls-4" x="67.07" y="30.23" width="47.01" height="9.57" rx="4.79" transform="rotate(180 90.575 35.01)"/><rect class="cls-4" x="57.52" y="45.88" width="43.27" height="9.57" rx="4.79" transform="rotate(180 79.155 50.66)"/><path class="cls-4" d="M96.25 45.88h-24.7a3 3 0 0 0 2.81-3 3 3 0 0 0-3-3H96a3 3 0 0 0-3 3 3.1 3.1 0 0 0 3.25 3zM28.05 80.1c1.52 4.84-.78 10.2-2.38 13.09A2.77 2.77 0 0 1 22 94.33c-3-1.46-7.9-4.55-9.42-9.4s.79-10.2 2.39-13.09a2.79 2.79 0 0 1 1.59-1.3 2.82 2.82 0 0 1 2.05.16c2.99 1.46 7.93 4.55 9.44 9.4z"/><path class="cls-3" d="M17.53 86.3c3.33 3.83 3.37 9.66 3.06 13a2.77 2.77 0 0 1-.94 1.83 2.74 2.74 0 0 1-1.94.67c-3.31-.15-9.07-1-12.4-4.83S1.94 87.26 2.25 84a2.75 2.75 0 0 1 .94-1.83 2.78 2.78 0 0 1 1.94-.68c3.31.13 9.07.98 12.4 4.81zM41.32 78.47c-1.38 4.88-6.24 8.1-9.16 9.65a2.77 2.77 0 0 1-3.67-1c-1.69-2.85-4.13-8.14-2.74-13S32 66 34.91 64.4a2.78 2.78 0 0 1 3.68 1c1.67 2.89 4.12 8.18 2.73 13.07z"/><path class="cls-5" d="M117.55 92.24l-19.9-.29.07-7.09 19.91.29-.08 7.09z"/><circle class="cls-5" cx="117.63" cy="85.15" r="3.55"/><circle class="cls-5" cx="117.55" cy="92.24" r="3.55"/><path class="cls-3" d="M104.51 100.71H39.72V85.08a19.67 19.67 0 0 1 19.67-19.66h16.42a12.59 12.59 0 0 1 9.23 4l9.56 10.35a10.27 10.27 0 0 0 7.52 3.28 2.39 2.39 0 0 1 2.39 2.4z"/><circle class="cls-4" cx="87.95" cy="85.76" r="1.57"/><circle class="cls-4" cx="84.81" cy="78.6" r="1.57"/><circle class="cls-4" cx="66.78" cy="75.43" r="1.57"/><circle class="cls-4" cx="96.29" cy="88.55" r="1.57"/><circle class="cls-4" cx="60.97" cy="68.72" r="1.57"/><circle class="cls-4" cx="76.47" cy="74.34" r="1.57"/><path class="cls-5" d="M50.25 77.77H45A28.76 28.76 0 0 0 21.24 90.5L16 98.22h63.25L74 90.5a28.76 28.76 0 0 0-23.75-12.73z"/><path class="cls-2" d="M28.25 113.45h68a12.48 12.48 0 0 0 10-5.3l6.61-9.24-101.26.29 6.62 9.24a12.19 12.19 0 0 0 10.03 5.01z"/><rect class="cls-4" x=".39" y="95.06" width="123.69" height="7.71" rx="3.85"/></g></svg>