<svg viewBox="0 0 135 124" fill="none" xmlns="http://www.w3.org/2000/svg"><path d="M11 28c0-9.389 7.611-17 17-17h79c9.389 0 17 7.611 17 17v79c0 9.389-7.611 17-17 17H28c-9.389 0-17-7.611-17-17V28z" fill="#FEC701"/><path fill-rule="evenodd" clip-rule="evenodd" d="M64.756 27.328c8.2 8.201 8.2 21.497 0 29.698l-53.407 53.407a17.071 17.071 0 0 1-.348-3.442L11 51.384l24.057-24.056c8.201-8.201 21.498-8.201 29.699 0zM124 28.384v35.354l-8.995 8.997c-4.881 4.882-12.796 4.882-17.677 0-4.882-4.881-4.882-12.796 0-17.677L124 28.384z" fill="#FFD900"/><path fill="#E27903" d="M23.778 24.35H66.45v26.108H23.778z"/><path d="M34.513 43.727c-5.398 5.496-13.947 5.28-19.096-.48L10.95 38.25c-5.149-5.761-4.947-14.886.451-20.381l5.235-5.33c5.398-5.495 13.948-5.28 19.097.481l4.466 4.997c5.15 5.76 4.948 14.886-.45 20.38l-5.236 5.33zM59.897 43.52c5.398 5.495 13.947 5.28 19.096-.48l4.467-4.998c5.149-5.76 4.947-14.885-.451-20.38l-5.235-5.33c-5.398-5.495-13.948-5.28-19.097.481L54.21 17.81c-5.15 5.76-4.948 14.885.45 20.38l5.236 5.33z" fill="#E27903"/><path d="M28.509 13.507C28.509 6.047 34.556 0 42.016 0h9.762c7.46 0 13.507 6.047 13.507 13.507v8.078c0 7.46-6.047 13.507-13.507 13.507h-9.762c-7.46 0-13.507-6.047-13.507-13.507v-8.078z" fill="#E27903"/><path d="M63.974 47.337c5.714 0 10.346 4.632 10.346 10.347V83.55c0 6.715-5.443 12.158-12.157 12.158H32.157c-6.715 0-12.158-5.443-12.158-12.158V57.684c0-5.715 4.633-10.347 10.347-10.347h33.627z" fill="#F79B24"/><rect x="31.489" y="57.639" width="13.832" height="18.141" rx="6.916" fill="#FFF1A2"/><rect x="49.237" y="57.639" width="13.832" height="18.141" rx="6.916" fill="#FFF1A2"/><path d="M44.95 75.768a2.261 2.261 0 0 0 4.523 0c0-1.25-2.167-4.146-2.261-4.146-.095 0-2.262 2.897-2.262 4.146z" fill="#E27903"/><path d="M45.51 43.264c.492-5.758 5.559-10.028 11.318-9.536l-.252 2.941c-.492 5.759-5.56 10.028-11.318 9.536l.251-2.94z" fill="#FDB02A"/><path d="M37.805 36.567c.492 5.758 5.559 10.028 11.318 9.536l-.252-2.941c-.492-5.759-5.56-10.028-11.318-9.536l.252 2.94z" fill="#FDB02A"/><rect x="43.855" y="74.064" width="6.725" height="4.656" rx="2.328" fill="#E27903"/><path d="M16.638 44.75h31.558v3.093L19.77 62.856 16.638 44.75z" fill="#FDB02A"/><path d="M77.427 44.75H45.869v3.093l28.424 15.013 3.134-18.107z" fill="#FFB100"/><circle cx="74.023" cy="68.619" r="6.169" fill="#F79B24"/><circle cx="19.882" cy="68.871" r="6.169" fill="#F79B24"/><path d="M50.823 66.029a2.494 2.494 0 0 0 2.05-3.912 3.061 3.061 0 0 1 4.072 2.89v3.855a3.061 3.061 0 1 1-6.122 0V66.03zM38.132 66.029A2.494 2.494 0 0 0 40.1 62a3.061 3.061 0 0 1 3.636 3.007v3.855a3.061 3.061 0 0 1-6.122 0v-2.888c.168.035.341.054.52.054z" fill="#E27903"/><path d="M43.765 88.637a5.73 5.73 0 0 1 3.453-1.15 5.73 5.73 0 0 1 3.453 1.15" stroke="#E27903" stroke-width="2" stroke-linecap="round"/><path fill-rule="evenodd" clip-rule="evenodd" d="M98.985 56.116a1.5 1.5 0 0 1 1.5 1.5V67.5a1.5 1.5 0 1 1-3 0v-9.884a1.5 1.5 0 0 1 1.5-1.5zM109.152 61.23a1.5 1.5 0 0 0-2.07.465l-3.093 4.884a1.5 1.5 0 0 0 2.535 1.605l3.093-4.884a1.5 1.5 0 0 0-.465-2.07zM88.819 61.23a1.5 1.5 0 0 1 2.07.465l3.093 4.884a1.5 1.5 0 0 1-2.535 1.605L88.354 63.3a1.5 1.5 0 0 1 .465-2.07z" fill="#FFF1A2"/><path d="M58.39 97.128h64.409V85.302c0-5.926-4.804-10.73-10.73-10.73H74.06a7.1 7.1 0 0 0-6.35 3.924l-9.32 18.632z" fill="#FFB100"/><path d="M89.124 92.894H62.272l6.849-13.692c.941-1.883 2.834-3.053 5.255-3.053h23.65l-8.902 16.745zM100.717 76.568a.789.789 0 0 1 .696-.419h10.971c4.732 0 8.837 4.106 8.837 9.153v7.592H92.037l8.68-16.326z" fill="#F68B00"/><path d="M54.31 101.065h1.626c3.33 0 6.029 2.84 6.029 6.343s-2.7 6.342-6.029 6.342h-1.625c-3.33 0-6.029-2.839-6.029-6.342 0-3.503 2.7-6.343 6.029-6.343z" fill="#FFB100"/><path d="M55.936 113.75c3.33 0 6.029-2.839 6.029-6.342 0-3.503-2.7-6.343-6.03-6.343-3.329 0-6.028 2.84-6.028 6.343s2.7 6.342 6.029 6.342z" fill="#E27903"/><path d="M38.954 107.543h91.781v-8.022a6.627 6.627 0 0 0-6.627-6.627h-81.84a3.314 3.314 0 0 0-3.314 3.313v11.336z" fill="#FFB100"/><path d="M109.438 97.128h3.314V74.57h-3.314v22.557zM86.873 97.128h2.912l11.993-22.557h-1.964c-.583 0-1.12.322-1.393.838L86.873 97.128z" fill="#FFB100"/><path d="M72.566 92.894h51.542a6.627 6.627 0 0 1 6.627 6.627v8.022H69.252V96.207a3.314 3.314 0 0 1 3.314-3.313z" fill="#FFB100"/><path d="M129.124 101.573h1.973c.654 0 1.183.53 1.183 1.183v3.603c0 .654-.529 1.184-1.183 1.184h-1.973c-.653 0-1.183-.53-1.183-1.184v-3.603c0-.653.53-1.183 1.183-1.183zM105.599 97.53h2.63c.666 0 1.21-.545 1.21-1.21 0-.666-.544-1.21-1.21-1.21h-2.63c-.665 0-1.21.544-1.21 1.21 0 .665.545 1.21 1.21 1.21z" fill="#F68B00"/><path d="M63.358 100.823h3.219c.697 0 1.262-.565 1.262-1.262v-4.064c0-.697-.565-1.262-1.262-1.262h-3.219c-.697 0-1.262.565-1.262 1.262v4.064c0 .697.565 1.262 1.262 1.262zM41.628 100.823h3.218c.698 0 1.263-.565 1.263-1.262v-4.064c0-.697-.566-1.262-1.263-1.262h-3.218c-.697 0-1.263.565-1.263 1.262v4.064c0 .697.566 1.262 1.263 1.262z" fill="#FFF1A2"/><path d="M48.553 97.026h11.428c.578 0 1.052-.473 1.052-1.052 0-.579-.474-1.052-1.053-1.052H48.553c-.578 0-1.052.473-1.052 1.052 0 .579.474 1.052 1.052 1.052zM48.553 100.335H59.98c.579 0 1.052-.473 1.052-1.052 0-.579-.473-1.052-1.052-1.052H48.553c-.579 0-1.052.473-1.052 1.052 0 .579.473 1.052 1.052 1.052zM38.533 107.543h30.719a.947.947 0 0 0 .947-.947v-3.787a.947.947 0 0 0-.947-.947h-30.72a.947.947 0 0 0-.946.947v3.787c0 .523.424.947.947.947z" fill="#F68B00"/><path d="M69.357 107.543h3.866a.947.947 0 0 0 .947-.947v-3.787a.947.947 0 0 0-.947-.947h-3.866a.947.947 0 0 0-.947.947v3.787c0 .523.424.947.947.947z" fill="#F68B00"/><path d="M109.868 107.543l-.003-.135c0-4.368 3.412-7.92 7.606-7.92h1.626c4.194 0 7.607 3.552 7.607 7.92 0 .045-.003.09-.004.135h-16.832z" fill="#E27903"/><path d="M117.471 101.065h1.626c3.329 0 6.028 2.84 6.028 6.342 0 3.503-2.699 6.343-6.028 6.343h-1.626c-3.329 0-6.029-2.84-6.029-6.343 0-3.502 2.7-6.342 6.029-6.342z" fill="#FFB100"/><path d="M119.097 113.75c3.329 0 6.028-2.84 6.028-6.343 0-3.502-2.699-6.342-6.028-6.342-3.33 0-6.029 2.84-6.029 6.342 0 3.503 2.699 6.343 6.029 6.343z" fill="#E27903"/><path d="M119.097 110.777c1.769 0 3.203-1.509 3.203-3.37 0-1.86-1.434-3.369-3.203-3.369s-3.203 1.509-3.203 3.369c0 1.861 1.434 3.37 3.203 3.37z" fill="#FFB100"/><path d="M78.136 107.543c-.001-.045-.004-.09-.004-.135 0-4.368 3.413-7.92 7.607-7.92h1.626c4.194 0 7.606 3.552 7.606 7.92l-.003.135H78.136z" fill="#E27903"/><path d="M85.738 101.065h1.626c3.33 0 6.029 2.84 6.029 6.342 0 3.503-2.7 6.343-6.029 6.343h-1.626c-3.33 0-6.028-2.84-6.028-6.343 0-3.502 2.699-6.342 6.028-6.342z" fill="#FFB100"/><path d="M87.364 113.75c3.33 0 6.029-2.84 6.029-6.343 0-3.502-2.7-6.342-6.029-6.342-3.33 0-6.028 2.84-6.028 6.342 0 3.503 2.699 6.343 6.028 6.343z" fill="#E27903"/><path d="M87.365 110.777c1.769 0 3.202-1.509 3.202-3.37 0-1.86-1.433-3.369-3.202-3.369-1.77 0-3.203 1.509-3.203 3.369 0 1.861 1.434 3.37 3.203 3.37z" fill="#FFB100"/><path d="M129.124 95.379h1.973c.654 0 1.183.53 1.183 1.183v3.09c0 .654-.529 1.184-1.183 1.184h-1.973c-.653 0-1.183-.53-1.183-1.183v-3.09c0-.654.53-1.184 1.183-1.184z" fill="#FEC701"/><path d="M71.882 100.823h1.262a.947.947 0 0 0 .947-.947v-4.694a.947.947 0 0 0-.947-.947h-1.262a.947.947 0 0 0-.947.947v4.694c0 .523.424.947.947.947z" fill="#FFD900"/></svg>