<svg viewBox="0 0 135 124" fill="none" xmlns="http://www.w3.org/2000/svg"><path d="M11 28c0-9.389 7.611-17 17-17h79c9.389 0 17 7.611 17 17v79c0 9.389-7.611 17-17 17H28c-9.389 0-17-7.611-17-17V28z" fill="#FEC701"/><path fill-rule="evenodd" clip-rule="evenodd" d="M59.875 33.405c8.201 8.2 8.201 21.497 0 29.698L11.35 110.442a17.078 17.078 0 0 1-.348-3.442L11 51.393l19.177-17.988c8.2-8.201 21.497-8.201 29.698 0zM124 28.393v35.354l-8.995 8.997c-4.881 4.882-12.796 4.882-17.677 0-4.882-4.882-4.882-12.796 0-17.678L124 28.393z" fill="#FFD900"/><path d="M88.986 78.285c-11.574.403-21.3-8.57-21.868-20.098l-1.62-.689a21.105 21.105 0 0 1-15.52 7.602c-11.678.407-21.474-8.73-21.88-20.408-.407-11.678 8.73-21.475 20.408-21.881 7.996-.279 15.11 3.918 18.931 10.34a8.952 8.952 0 0 0 11.677 4.8l.103.051a21.088 21.088 0 0 1 8.297-2.006c11.678-.407 21.474 8.73 21.881 20.408.406 11.678-8.731 21.475-20.409 21.881z" fill="#F68B00"/><path d="M65.338 62.592c.407 11.678-8.73 21.474-20.409 21.88-11.678.407-21.474-8.73-21.88-20.408-.407-11.678 8.73-21.475 20.408-21.881 11.678-.407 21.474 8.73 21.881 20.409z" fill="#F68B00"/><path d="M36.56 79.937a6.44 6.44 0 1 1-12.752 1.791 6.44 6.44 0 0 1 12.753-1.79zM114.077 69.053a6.44 6.44 0 1 1-12.755 1.789 6.44 6.44 0 0 1 12.755-1.79z" fill="#FFB100"/><path fill-rule="evenodd" clip-rule="evenodd" d="M32.127 90.44c-2.968-21.13 11.757-40.665 32.887-43.632 21.13-2.967 40.666 11.757 43.633 32.887L111.2 97.88c.748 5.325-2.963 10.248-8.288 10.996l-57.236 8.037c-5.325.748-10.248-2.963-10.996-8.288l-2.553-18.183z" fill="#FFB100"/><path fill-rule="evenodd" clip-rule="evenodd" d="M57.28 66.242a1.505 1.505 0 0 1 1.944-.866l9.74 3.743a1.505 1.505 0 0 1 .257 2.683l-9.008 5.612a1.505 1.505 0 0 1-1.592-2.555l6.442-4.014-6.919-2.658a1.505 1.505 0 0 1-.865-1.945z" fill="#FF9600"/><path fill-rule="evenodd" clip-rule="evenodd" d="M77.63 63.384a1.505 1.505 0 0 0-2.108-.296l-8.333 6.28a1.505 1.505 0 0 0 .493 2.65l10.205 2.915a1.505 1.505 0 1 0 .826-2.895l-7.298-2.084 5.919-4.462c.663-.5.796-1.444.296-2.108z" fill="#FF9600"/><path fill-rule="evenodd" clip-rule="evenodd" d="M64.754 69.384a4.014 4.014 0 0 1 1.181-5.552l8.838-5.738a4.014 4.014 0 0 1 4.371 6.733l-8.837 5.738a4.014 4.014 0 0 1-5.553-1.18z" fill="#F68B00"/><path fill-rule="evenodd" clip-rule="evenodd" d="M71.146 68.487a4.014 4.014 0 0 0-2.664-5.013l-10.076-3.081a4.014 4.014 0 1 0-2.349 7.677l10.077 3.082a4.014 4.014 0 0 0 5.012-2.665z" fill="#F68B00"/><path d="M69.326 93.65c-6.685-.334-12.48 4.24-13.887 10.562-.277 1.242.722 2.332 1.993 2.396l22.435 1.122c1.271.064 2.374-.922 2.223-2.185-.77-6.43-6.079-11.56-12.764-11.895z" fill="#FF9600"/><path d="M60.034 78.186a10.365 10.365 0 0 1 10.243.443 10.364 10.364 0 0 1 10.236.581l7.587 4.9c4.81 3.109 6.19 9.528 3.083 14.338-3.108 4.811-9.527 6.191-14.337 3.083l-.412-.266a2.891 2.891 0 0 0-.421-.322c-3.731-2.362-7.917-3.872-13.65-.682a6.602 6.602 0 0 0-.399.24l-.508.261c-5.097 2.612-11.346.598-13.958-4.499-2.612-5.097-.598-11.346 4.498-13.958l8.038-4.12z" fill="#F68B00"/><path d="M76.371 107.555c.114-.293.143-.624.059-.974a8.069 8.069 0 0 0-15.462-.773c-.118.34-.122.672-.038.975l15.441.772zM30.845 81.315L27.058 54.35a9.434 9.434 0 0 1 2.992-.943 9.45 9.45 0 0 1 10.672 8.044l1.303 9.275a9.45 9.45 0 0 1-8.044 10.672 9.436 9.436 0 0 1-3.136-.083zM103.726 44.656l3.515 25.028a9.453 9.453 0 0 1-2.676.789 9.45 9.45 0 0 1-10.672-8.044l-1-7.122a9.45 9.45 0 0 1 10.833-10.65z" fill="#F68B00"/><path d="M67.013 81.489l3.705 4.743c1.647 2.108.394 5.209-2.255 5.58-2.65.373-4.708-2.263-3.706-4.743l2.256-5.58z" fill="#FFF1A2"/><path d="M74.283 77.934a4.85 4.85 0 1 1-9.606 1.349 4.85 4.85 0 0 1 9.606-1.35z" fill="#FFB100"/><path d="M120.744 90.796a3.074 3.074 0 1 1-6.088.855 3.074 3.074 0 0 1 6.088-.855zM26.207 98.405a1.785 1.785 0 1 1 3.053 1.852 1.785 1.785 0 0 1-3.053-1.852zM78.45 32.61a1.087 1.087 0 1 1-2.152.303 1.087 1.087 0 0 1 2.153-.303z" fill="#FFF1A2"/><path opacity=".5" d="M112.594 46.59a1.94 1.94 0 1 1 3.006 2.454 1.94 1.94 0 0 1-3.006-2.453zM84.601 33.108a1.94 1.94 0 1 1-3.843.54 1.94 1.94 0 0 1 3.843-.54z" fill="#fff"/><path d="M32.937 18.574a2.654 2.654 0 1 1 4.11 3.356 2.654 2.654 0 0 1-4.11-3.356z" fill="#FFF1A2"/><path opacity=".5" d="M19.556 30.158a2.653 2.653 0 1 1 4.11 3.356 2.653 2.653 0 0 1-4.11-3.356z" fill="#fff"/><path d="M21.057 18.564a4.676 4.676 0 1 1 7.244 5.915 4.676 4.676 0 0 1-7.244-5.915zM18.724 104.704a4.77 4.77 0 1 1 7.39 6.034 4.77 4.77 0 0 1-7.39-6.034z" fill="#FFF1A2"/><path d="M112.729 80.407a4.02 4.02 0 1 1 6.227 5.084 4.02 4.02 0 0 1-6.227-5.084zM18.308 95.2a2.653 2.653 0 1 1 4.11 3.356 2.653 2.653 0 0 1-4.11-3.356z" fill="#fff" fill-opacity=".5"/><path d="M105.758 22.937l11.088-6.402c4.929-2.845 11.089.712 11.089 6.402 0 5.691-6.16 9.248-11.089 6.402l-11.088-6.402z" fill="#FF9600"/><path d="M109.425 19.27l6.402 11.088c2.845 4.928-.711 11.089-6.402 11.089s-9.247-6.16-6.402-11.089l6.402-11.088z" fill="#FF9600"/><path d="M113.094 22.937l-11.089 6.402c-4.928 2.845-11.088-.712-11.088-6.402 0-5.691 6.16-9.248 11.088-6.402l11.089 6.402z" fill="#FF9600"/><path d="M109.427 26.605l-6.402-11.09c-2.846-4.927.711-11.088 6.402-11.088 5.69 0 9.247 6.16 6.402 11.089l-6.402 11.089z" fill="#FF9600"/><path d="M115.844 22.937a6.418 6.418 0 1 1-12.836 0 6.418 6.418 0 1 1 12.836 0z" fill="#FFD900"/><path d="M75.838 19.388l2.335-8.717c1.038-3.874 5.881-5.172 8.718-2.336 2.836 2.836 1.538 7.68-2.336 8.717l-8.718 2.336z" fill="#FFB100"/><path d="M75.836 15.732l8.718 2.336c3.874 1.038 5.172 5.88 2.335 8.717-2.836 2.836-7.679 1.539-8.717-2.336l-2.336-8.717z" fill="#FFB100"/><path d="M79.495 15.73l-2.336 8.718c-1.038 3.875-5.881 5.172-8.718 2.336-2.836-2.836-1.538-7.68 2.336-8.717l8.718-2.336z" fill="#FFB100"/><path d="M79.494 19.387l-8.718-2.336c-3.874-1.038-5.172-5.88-2.335-8.717 2.836-2.836 7.679-1.539 8.717 2.336l2.336 8.717z" fill="#FFB100"/><path d="M80.864 14.36a4.524 4.524 0 1 1-6.398 6.398 4.524 4.524 0 0 1 6.398-6.397z" fill="#FFD900"/></svg>