<svg viewBox="0 0 135 124" version="1.1" xmlns="http://www.w3.org/2000/svg"><g stroke="none" stroke-width="1" fill="none" fill-rule="evenodd"><path d="M28 11h79c9.389 0 17 7.611 17 17v79c0 9.389-7.611 17-17 17H28c-9.389 0-17-7.611-17-17V28c0-9.389 7.611-17 17-17z" fill="#EDEDED"/><path d="M40.214 3h57.572c7.18 0 13 5.82 13 13a13 13 0 0 1-.159 2.028l-10.895 69A13 13 0 0 1 86.892 98H51.108a13 13 0 0 1-12.84-10.972l-10.895-69c-1.12-7.092 3.721-13.75 10.813-14.869A13 13 0 0 1 40.214 3z" fill="#BFBFBF"/><path d="M46.134 0H93.95a2 2 0 0 1 1.834 2.797l-7.97 18.33a2 2 0 0 1-2.67 1.02L45.298 3.816A2 2 0 0 1 46.134 0z" fill="#D1D1D1"/><rect fill="#CBCBCB" x="27" y="89" width="81" height="13" rx="4"/><rect fill="#CBCBCB" x="41" y="75" width="53" height="21" rx="9"/><path d="M38 102h11l-8.458 17.856A2 2 0 0 1 38.734 121h-2.27a2 2 0 0 1-1.956-2.412L38 102zM98 102H87l8.458 17.856A2 2 0 0 0 97.266 121h2.27a2 2 0 0 0 1.956-2.412L98 102z" fill="#BFBFBF"/><path d="M99.575 61.271l12.175 1.282a3 3 0 0 1 2.386 4.292L100.82 94.309A3 3 0 0 1 98.12 96H91.87a3 3 0 0 1-2.905-3.747l7.391-28.746a3 3 0 0 1 3.22-2.236z" fill="#CBCBCB"/><rect fill="#CBCBCB" x="96" y="53" width="26" height="26" rx="13"/><path d="M27 53c-7.18 0-13 5.82-13 13s5.82 13 13 13c.251 0 .5-.007.748-.021l7.432 15.33A3 3 0 0 0 37.88 96h6.251a3 3 0 0 0 2.905-3.747l-7.111-27.659C39.225 58.076 33.705 53 27 53z" fill="#CBCBCB"/><rect fill="#BFBFBF" x="22" y="61" width="10" height="10" rx="5"/><rect fill="#BFBFBF" x="104" y="61" width="10" height="10" rx="5"/><rect fill="#D1D1D1" x="79" y="22" width="4" height="10" rx="2"/><rect fill="#D1D1D1" x="69" y="17" width="4" height="10" rx="2"/><rect fill="#D1D1D1" x="59" y="13" width="4" height="10" rx="2"/><rect fill="#D1D1D1" x="49" y="8" width="4" height="10" rx="2"/><path d="M39 3h4v6a2 2 0 1 1-4 0V3z" fill="#D1D1D1"/></g></svg>