<svg viewBox="0 0 135 124" fill="none" xmlns="http://www.w3.org/2000/svg"><path d="M11 28c0-9.389 7.611-17 17-17h79c9.389 0 17 7.611 17 17v79c0 9.389-7.611 17-17 17H28c-9.389 0-17-7.611-17-17V28z" fill="#E5E5E5"/><path d="M40.294 2.09C53.079.497 64.738 9.597 66.33 22.382c1.593 12.785-7.477 24.467-20.262 26.06l-12.8 1.594C20.483 51.628 8.824 42.529 7.232 29.744 5.639 16.959 14.709 5.277 27.494 3.684l12.8-1.594z" fill="#959595"/><path d="M12.604 51.94c-1.612-12.938 7.57-24.733 20.508-26.344l31.9-3.974c12.939-1.612 24.734 7.57 26.345 20.508l.166 1.33c1.612 12.938-7.57 24.733-20.509 26.344l-31.9 3.974C26.176 75.39 14.381 66.208 12.77 53.27l-.165-1.33z" fill="#BFBFBF"/><path d="M87.694 32.125L76.095 33.57a8.483 8.483 0 0 1-9.467-7.37l-.583-4.684c8.85-.716 17.047 3.583 21.649 10.61z" fill="#959595"/><path fill-rule="evenodd" clip-rule="evenodd" d="M33.998 38.766a7.84 7.84 0 0 1 15.562-1.938l.598 4.8a7.84 7.84 0 1 1-15.562 1.94L34 38.765z" fill="#959595"/><path fill-rule="evenodd" clip-rule="evenodd" d="M34.346 41.581a7.84 7.84 0 1 1 15.562-1.938l.598 4.8a7.84 7.84 0 0 1-15.562 1.939l-.598-4.8z" fill="#fff"/><path fill-rule="evenodd" clip-rule="evenodd" d="M67.983 34.533a7.84 7.84 0 1 0-15.562 1.939l.598 4.8a7.84 7.84 0 0 0 15.562-1.938l-.598-4.8z" fill="#959595"/><path fill-rule="evenodd" clip-rule="evenodd" d="M68.335 37.348a7.841 7.841 0 0 0-15.562 1.939l.598 4.8a7.84 7.84 0 1 0 15.562-1.938l-.599-4.8z" fill="#fff"/><path d="M43.56 37.257a3.532 3.532 0 0 1 4.294 3.006l.55 4.4a3.531 3.531 0 0 1-7.01.874l-.519-4.17a2.756 2.756 0 0 0 2.686-4.11z" fill="#959595"/><path d="M99.8 40.74a6.923 6.923 0 1 1-13.74 1.711A6.923 6.923 0 0 1 99.8 40.74zM17.363 51.009a6.923 6.923 0 1 1-13.74 1.712 6.923 6.923 0 0 1 13.74-1.712z" fill="#BFBFBF"/><path d="M15.468 58.725a3.336 3.336 0 1 1-6.622.825 3.336 3.336 0 0 1 6.622-.825zM22.18 12.08c9.509-1.185 18.177 5.563 19.361 15.07l.186 1.49c1.184 9.51-5.564 18.177-15.072 19.362-9.509 1.184-18.177-5.564-19.361-15.072l-.186-1.49c-1.184-9.508 5.564-18.176 15.072-19.36z" fill="#959595"/><path fill-rule="evenodd" clip-rule="evenodd" d="M56.354 62.529c-.001 0-.002 0 .15-1.404l-.152 1.404a1.418 1.418 0 0 1 .3-2.82h.003-.002.004l.04.004a8.885 8.885 0 0 0 .943.009 9.239 9.239 0 0 0 2.378-.412c1.71-.547 3.491-1.748 4.097-4.587a1.418 1.418 0 1 1 2.774.592c-.87 4.073-3.586 5.922-6.007 6.696-1.185.38-2.303.508-3.117.543a11.715 11.715 0 0 1-1.284-.014 5.308 5.308 0 0 1-.086-.007l-.027-.003H56.355l-.001-.001zM53.42 55.68a3.331 3.331 0 0 0 2.9-3.714c-.228-1.823-4.076-5.722-4.076-5.722s-2.773 4.724-2.546 6.547a3.331 3.331 0 0 0 3.722 2.889z" fill="#959595"/><path fill-rule="evenodd" clip-rule="evenodd" d="M53.799 82.675h75.791l-5.67 15.956H58.735l-4.936-15.956z" fill="#A6A6A6"/><path fill-rule="evenodd" clip-rule="evenodd" d="M52.698 81.345h77.992a.664.664 0 0 1 .637.856l-1 3.325a.664.664 0 0 1-.636.473H53.698a.665.665 0 0 1-.637-.473l-1-3.325a.665.665 0 0 1 .637-.856z" fill="#959595"/><path fill-rule="evenodd" clip-rule="evenodd" d="M62.038 88.305h8.643a.997.997 0 1 1 0 1.994h-8.643a.997.997 0 1 1 0-1.994z" fill="#BFBFBF"/><path fill-rule="evenodd" clip-rule="evenodd" d="M54.675 94.06l5.301 2.606a8.643 8.643 0 0 0 7.061.253l7.036-2.853a9.307 9.307 0 0 1 6.996 0l3.562 1.444a18.787 18.787 0 0 0 14.12 0l3.813-1.545a8.643 8.643 0 0 1 6.496 0l7.837 3.178a7.312 7.312 0 0 0 5.974-.214l5.836-2.869a1.995 1.995 0 0 1 2.874 1.79l.003 8.225a1.994 1.994 0 0 1-1.994 1.994H53.798a1.994 1.994 0 0 1-1.995-1.994l-.002-8.225a1.994 1.994 0 0 1 2.874-1.79z" fill="#D1D1D1"/><path fill-rule="evenodd" clip-rule="evenodd" d="M81.88 97.011l3.599-.83a.643.643 0 0 1 .785.58l.274 3.682a11.994 11.994 0 0 1-2.305 8.006l-7.678 10.422a1.928 1.928 0 0 1-2.697.409l-6.212-4.576a1.929 1.929 0 0 1-.408-2.697l7.678-10.422c1.7-2.307 4.17-3.93 6.964-4.574z" fill="#BFBFBF"/><path fill-rule="evenodd" clip-rule="evenodd" d="M105.01 67.24l3.106 2.288-23.644 32.091-3.105-2.288L105.01 67.24z" fill="#BFBFBF"/><path fill-rule="evenodd" clip-rule="evenodd" d="M106.808 65.364l2.621 1.861a1.607 1.607 0 1 1-1.861 2.621l-2.621-1.861a1.607 1.607 0 1 1 1.861-2.621z" fill="#959595"/><path fill-rule="evenodd" clip-rule="evenodd" d="M99.778 56.093a4.002 4.002 0 0 1 1.277 6.344l-4.185 4.555a2 2 0 0 1-3.459-1.587l.724-6.144a4.001 4.001 0 0 1 5.643-3.168zM38.423 80.265a4.001 4.001 0 0 1 6.354 1.225l2.626 5.6a2 2 0 0 1-2.78 2.599l-5.41-3.001a4.001 4.001 0 0 1-.79-6.423zM29.94 94.448a4.001 4.001 0 0 1 5.651-3.152l5.615 2.596a2 2 0 0 1-.456 3.778l-6.072 1.185a4.001 4.001 0 0 1-4.738-4.407z" fill="#D1D1D1"/><path d="M108.977 59.592a3.5 3.5 0 1 0 0-7 3.5 3.5 0 0 0 0 7z" fill="#D1D1D1"/><path d="M55.451 39.62a2.836 2.836 0 0 0 2.068-3.978 3.531 3.531 0 0 1 4.904 2.807l.548 4.401a3.531 3.531 0 0 1-7.009.873l-.51-4.103z" fill="#959595"/></svg>