<svg viewBox="0 0 135 124" fill="none" xmlns="http://www.w3.org/2000/svg"><g clip-path="url(#clip0_127_2257)"><path d="M11.84 28c0-9.389 7.61-17 17-17h78.999c9.389 0 17 7.611 17 17v79c0 9.389-7.611 17-17 17h-79c-9.388 0-17-7.611-17-17V28z" fill="#FFCA00"/><path d="M123.248 20.93L21.728 122.45a16.937 16.937 0 0 0 7.08 1.56h41.32l54.68-54.68V28.01a16.938 16.938 0 0 0-1.56-7.08zM63 58.5l46.128-47.43c-.43 0-.87-.07-1.31-.07h-48.59L38.02 33.52c-6.904 6.904-6.904 18.096 0 25 6.903 6.904 18.096 6.904 25 0L63 58.5z" fill="#FFD900"/><path fill-rule="evenodd" clip-rule="evenodd" d="M55.727 51.472l-.02 3.725c-.051 9.85-8.296 17.675-18.135 17.212-9.099-.428-16.311-7.83-16.504-16.936l-.079-3.724c-.134-6.34 6.061-10.686 11.908-8.909 4.089 1.243 8.295 2.332 10.378 2.43a28.524 28.524 0 0 0 5-.203c3.563-.465 7.474 2.19 7.452 6.405z" fill="#FFBB31"/><path d="M32.027 9.84c-.021-.159-.046-.319-.076-.479-.988-5.391-6.16-8.96-11.551-7.972-5.391.988-8.96 6.16-7.972 11.552.97 5.29 5.967 8.825 11.247 8.023.021.16.047.32.076.48.988 5.39 6.16 8.96 11.552 7.971 5.39-.988 8.96-6.16 7.972-11.551-.97-5.29-5.967-8.826-11.248-8.023z" fill="#FF9600"/><path d="M6.9 36.042C5.71 29.544 10.01 23.311 16.51 22.12l35.669-6.54c6.498-1.19 12.731 3.111 13.923 9.61l4.085 22.282c1.352 7.374-3.53 14.449-10.905 15.801L26.787 69.23c-7.375 1.352-14.45-3.53-15.801-10.906L6.9 36.043z" fill="#FFBB31"/><path d="M8.315 53.078A5.362 5.362 0 1 0 6.38 42.53a5.362 5.362 0 0 0 1.934 10.55zM70.822 41.618a5.362 5.362 0 1 0-1.934-10.55 5.362 5.362 0 0 0 1.934 10.55z" fill="#FFBB31"/><path d="M12.381 23.704c-4.07 2.515-6.395 7.349-5.48 12.339l1.663 9.07.431-.078a7.177 7.177 0 0 0 5.765-8.354l-2.379-12.977zM56.6 15.597c4.697.907 8.586 4.602 9.5 9.592l1.664 9.07-.432.08a7.177 7.177 0 0 1-8.354-5.765L56.6 15.597z" fill="#FAA401"/><path d="M25.108 26.882c-5.263.965-8.746 6.013-7.782 11.275a9.662 9.662 0 0 0 4.466 6.512c2.827-1.436 7.41-2.845 12.494-2.044a9.667 9.667 0 0 0 2.096-7.962c-.964-5.262-6.012-8.745-11.274-7.78zM57.215 30.844c-.965-5.262-6.013-8.746-11.275-7.781-5.262.965-8.745 6.013-7.78 11.275.964 5.262 6.012 8.746 11.274 7.78 5.262-.964 8.746-6.012 7.781-11.274z" fill="#FFF1A2"/><path d="M24.719 51.67c-.078-3.688 3.563-6.334 7.092-5.26 3.992 1.213 8.657 2.463 11.288 2.586 2.221.105 4.16-.035 5.659-.23 1.636-.214 3.247 1.037 3.238 2.687l-.02 3.724c-.04 7.729-6.509 13.868-14.229 13.505-7.139-.335-12.798-6.143-12.95-13.288l-.078-3.724z" fill="#E27800"/><path d="M30.138 63.362A6.677 6.677 0 0 1 35.5 55.59l9.014-1.653a3.339 3.339 0 0 1 1.204 6.568l-15.581 2.857z" fill="#FAA401"/><path opacity=".6" d="M45.163 66.89a13.521 13.521 0 0 1-7.416 1.792 13.537 13.537 0 0 1-7.07-2.381l-.547-2.98a2.886 2.886 0 0 1 2.319-3.36l11.071-2.029 1.643 8.958z" fill="#FAA401"/><path d="M37.568 50.358a5.09 5.09 0 0 1-7.92-4.161 5.507 5.507 0 0 1 2.164.212c3.992 1.214 8.656 2.464 11.288 2.587.966.046 1.88.045 2.726.014a4.96 4.96 0 0 1-8.258 1.348z" fill="#FFF1A2"/><path fill-rule="evenodd" clip-rule="evenodd" d="M24.84 31.976a3.071 3.071 0 0 1-3.868 3.507 7.688 7.688 0 0 0 .094 2.109 7.67 7.67 0 0 0 4.43 5.63c2.19-.629 4.784-1.005 7.565-.75a7.68 7.68 0 1 0-9.234-12.267 3.059 3.059 0 0 1 1.013 1.77zm7.995 4.787c.781-.06 1.462.525 1.521 1.306.067.88-.3 1.74-.81 2.375a3.91 3.91 0 0 1-2.33 1.412 1.417 1.417 0 1 1-.512-2.789c.235-.043.461-.185.63-.397a.858.858 0 0 0 .194-.382c0-.005.001-.004.001-.004a1.418 1.418 0 0 1 1.306-1.521zm-5.021-4.943c.046-.218.351-.284.479-.1.3.429.573.738.94.991.242.167.463.235.745.321.082.025.169.052.262.083.159.052.204.25.09.371l-.847.91a.474.474 0 0 0-.1.163l-.41 1.15a.236.236 0 0 1-.406.069l-.818-1.016a.473.473 0 0 0-.223-.154l-1.01-.325c-.21-.067-.23-.375-.04-.486.316-.184.685-.444.892-.744.216-.314.359-.822.446-1.233zM47.997 27.73a3.071 3.071 0 0 0 4.86 1.907 7.678 7.678 0 1 1-4.541-3.922 3.058 3.058 0 0 0-.319 2.015zm2.185 5.852c.781-.06 1.462.526 1.522 1.306.067.881-.301 1.74-.81 2.375a3.91 3.91 0 0 1-2.331 1.412 1.418 1.418 0 0 1-.512-2.788c.235-.043.461-.186.631-.398.16-.198.187-.35.193-.381.001-.006.002-.005.002-.005a1.418 1.418 0 0 1 1.305-1.52zm-5.021-4.942c.046-.218.352-.284.48-.101.3.43.572.738.939.991.242.168.464.235.746.322.081.025.168.051.262.082.158.052.203.25.09.372l-.848.91a.47.47 0 0 0-.099.162l-.41 1.15a.236.236 0 0 1-.407.07l-.817-1.017a.473.473 0 0 0-.224-.154l-1.01-.324c-.21-.067-.23-.376-.04-.487.316-.184.685-.444.892-.744.216-.313.36-.822.446-1.232z" fill="#E27800"/><path d="M37.723 37.282c.134-.025 1.668 1.643 3.24 3.4 1.566 1.75.598 4.521-1.71 4.944-2.309.424-4.197-1.825-3.354-4.015.847-2.2 1.69-4.305 1.824-4.33z" fill="#F08904"/><path d="M76.44 55.872h.002a8.298 8.298 0 0 1 9.491-6.681l38.591 6.273a8.299 8.299 0 0 1 6.886 9.344h.002l-6.133 37.729a2.871 2.871 0 0 0 2.373 3.295l5.565.905c.653.106 1.095.72.989 1.372-1.037 6.38-7.05 10.712-13.43 9.675l-51.027-8.295c-6.38-1.037-10.712-7.05-9.675-13.43a1.196 1.196 0 0 1 1.373-.989l5.566.905a2.871 2.871 0 0 0 3.294-2.374l6.133-37.729z" fill="#FFB100"/><path d="M80.4 57.616l46.703 7.592-7.575 46.603-46.703-7.592L80.4 57.616z" fill="#FFBB31"/><path d="M74.769 78.202a5.222 5.222 0 1 0 1.675-10.308 5.222 5.222 0 0 0-1.675 10.308zM125.925 86.517a5.222 5.222 0 1 0 1.676-10.308 5.222 5.222 0 0 0-1.676 10.308z" fill="#FFBB31"/><path d="M70.4 104.678a1.436 1.436 0 0 1 1.647-1.187l48.45 7.876a1.434 1.434 0 0 1 1.186 1.647l-.78 4.801a1.436 1.436 0 0 1-1.648 1.187l-48.45-7.876a1.435 1.435 0 0 1-1.186-1.647l.78-4.801z" fill="#E27800"/><path d="M74.499 67.946a5.221 5.221 0 0 1 6.077 3.481 5.82 5.82 0 0 0 2.763-4.07l1.173-7.216-8.52-1.384-1.493 9.19zM122.568 78.26a5.222 5.222 0 0 1 6.861-1.39l1.493-9.184-8.519-1.385-1.173 7.216a5.822 5.822 0 0 0 1.338 4.743z" fill="#FFB100"/><path d="M75.162 54.118a1.436 1.436 0 0 1 1.647-1.187l55.185 8.971a1.437 1.437 0 0 1 1.187 1.648l-.636 3.91a1.436 1.436 0 0 1-1.648 1.187l-55.184-8.97a1.436 1.436 0 0 1-1.187-1.648l.636-3.91z" fill="#E27800"/><path d="M105.338 63.156c6.317 1.027 12.271-3.262 13.298-9.58 1.026-6.316-3.262-12.27-9.579-13.297a11.582 11.582 0 0 0-10.618 3.847l-1.774-2.73c-.489-.753-1.547-.879-2.084-.161a10.067 10.067 0 0 0-1.88 4.432c-.583 3.59.8 7.046 3.36 9.266a11.59 11.59 0 0 0 9.277 8.223z" fill="#FFB100"/><path d="M93.595 107.796a1.034 1.034 0 0 1 1.119-.621l3.115.507c.472.077.83.467.865.943l.664 8.855a1.034 1.034 0 0 1-1.197 1.097l-7.213-1.172a1.034 1.034 0 0 1-.787-1.42l3.434-8.189z" fill="#FFF1A2"/><path d="M101.115 77.636c.123.02.929 1.923 1.742 3.913.809 1.981-.872 4.066-2.984 3.723-2.112-.344-3.045-2.853-1.65-4.476 1.4-1.63 2.769-3.18 2.892-3.16z" fill="#F08904"/><path d="M87.387 73.268a6.537 6.537 0 0 0 12.903 2.098l-12.903-2.098zM102.574 75.737a6.537 6.537 0 0 0 12.903 2.098l-12.903-2.098z" fill="#FFF1A2"/><path d="M92.635 74.121a2.981 2.981 0 0 0 5.877.956l-5.877-.956zM104.267 76.012a2.98 2.98 0 0 0 5.876.956l-5.876-.956z" fill="#E27800"/><path fill-rule="evenodd" clip-rule="evenodd" d="M82.996 70.451a2.538 2.538 0 0 1 2.912-2.098l32.569 5.294a2.54 2.54 0 0 1-.814 5.011l-32.57-5.294a2.538 2.538 0 0 1-2.097-2.913z" fill="#FFB100"/><path fill-rule="evenodd" clip-rule="evenodd" d="M101.946 105.275a.661.661 0 0 1-.406.843c-4.647 1.626-8.625-.401-10.072-1.656a.662.662 0 1 1 .867-1c1.198 1.038 4.691 2.833 8.768 1.406a.662.662 0 0 1 .843.407z" fill="#FAA401"/><path fill-rule="evenodd" clip-rule="evenodd" d="M98.135 102.753c-.889-.723-1.947-.549-2.3-.398a1.103 1.103 0 0 1-.867-2.029c.847-.362 2.843-.682 4.56.717a1.103 1.103 0 1 1-1.393 1.71z" fill="#F08904"/><path d="M98.544 9.473v-.001l1.865-1.343.049-.035a9.029 9.029 0 0 1 12.589 2.135 9.09 9.09 0 0 1-2.15 12.673L94.658 34.431a2.618 2.618 0 0 1-.45.404l-10.338 7.34a2.612 2.612 0 0 1-3.025-4.26l8.221-5.837.058-.136 18.743-13.307a3.855 3.855 0 0 0 .912-5.376 3.795 3.795 0 0 0-5.292-.898l-.02.014-1.866 1.344-.004-.006-1.19.845a2.612 2.612 0 1 1-3.024-4.26l1.161-.825z" fill="#F08904"/><path d="M105.062 11.71a3.787 3.787 0 0 0-1.575.65l-.02.016-1.866 1.343-.003-.006-1.19.845a2.493 2.493 0 0 1-.107.072 2.588 2.588 0 0 1-.2-.69l-.744-5.054 1.052-.757.049-.036a8.988 8.988 0 0 1 3.842-1.561l.762 5.179zM106.251 11.703c.983.148 1.907.68 2.529 1.556.516.727.744 1.572.708 2.4l3.73-5.018.055-.077a8.99 8.99 0 0 0-3.692-3.254c-.124.11-.239.234-.341.373l-2.989 4.02zM114.489 17.548l-5.243-.702a3.838 3.838 0 0 1-1.379 1.789l-4.247 3.015 7.594 1.017a9.056 9.056 0 0 0 3.275-5.12zM105.199 26.947a1.812 1.812 0 0 0-.039-.008l-6.97-1.434-6.141 4.36 7.008 1.442 6.142-4.36zM93.48 35.352l-6.998-1.44-5.637 4.002a2.62 2.62 0 0 0-.423.375l6.916 1.424 6.142-4.36z" fill="#FAA401"/><path d="M59.6 71.246l.338 1.993a.831.831 0 0 0 .908.687l2.037-.218a.831.831 0 0 1 .893 1.035l-.513 1.983c-.11.425.13.862.547.999l1.922.627a.864.864 0 0 1-.027 1.65l-4.307 1.25 1.716 1.989a2.494 2.494 0 0 1-.259 3.516L47.822 99.732a2.493 2.493 0 0 1-3.517-.259l-1.782-2.064-1.967 4.296a.864.864 0 0 1-1.637-.214l-.339-1.993a.831.831 0 0 0-.907-.687l-2.037.217a.83.83 0 0 1-.893-1.035l.513-1.983a.831.831 0 0 0-.547-.998l-1.922-.627a.864.864 0 0 1 .027-1.65l4.538-1.318-1.781-2.064a2.494 2.494 0 0 1 .259-3.517l15.033-12.974a2.493 2.493 0 0 1 3.517.258l1.716 1.988 1.867-4.077a.864.864 0 0 1 1.636.215z" fill="#E27800"/><path d="M42.044 80.473l3.746-3.233 17.664 8.752a2.486 2.486 0 0 1-.599.765l-2.964 2.559-17.847-8.843zM35.018 87.212c.108-.517.38-1.004.812-1.376l2.436-2.103 17.848 8.843-3.746 3.233-17.35-8.597z" fill="#F08904"/><path fill-rule="evenodd" clip-rule="evenodd" d="M21.82 94.758a1.645 1.645 0 0 1 2.308.29l14.612 18.816a1.645 1.645 0 1 1-2.599 2.018L21.53 97.066a1.645 1.645 0 0 1 .29-2.308z" fill="#FFBB31"/><path d="M26.456 80.61c4.233 5.45 3.3 13.258-2.081 17.438-5.383 4.18-13.178 3.149-17.41-2.301-4.233-5.451-3.302-13.258 2.08-17.438 5.383-4.18 13.178-3.15 17.41 2.301z" fill="#F08904"/><path opacity=".63" d="M23.008 98.97l-3.267-4.206a1.645 1.645 0 1 1 2.599-2.018l3.267 4.206a12.306 12.306 0 0 1-2.6 2.018z" fill="#E27800"/><path fill-rule="evenodd" clip-rule="evenodd" d="M4.929 93.109l19.475-15.124a1.244 1.244 0 0 1 1.746.219l3.072 3.956a1.244 1.244 0 0 1-.22 1.746L9.527 99.03a1.244 1.244 0 0 1-1.746-.22L4.71 94.855a1.244 1.244 0 0 1 .22-1.745z" fill="#F08904"/><path fill-rule="evenodd" clip-rule="evenodd" d="M8.177 90.586l2.258-1.754a1.244 1.244 0 0 1 1.746.22l3.072 3.956a1.244 1.244 0 0 1-.22 1.746l-2.257 1.753a1.244 1.244 0 0 1-1.746-.22l-3.072-3.955a1.244 1.244 0 0 1 .22-1.746z" fill="#FAA401"/><path fill-rule="evenodd" clip-rule="evenodd" d="M19.142 81.927l2.258-1.753a1.244 1.244 0 0 1 1.745.22l3.073 3.956a1.244 1.244 0 0 1-.22 1.746l-2.258 1.753a1.244 1.244 0 0 1-1.745-.22l-3.073-3.956a1.244 1.244 0 0 1 .22-1.746z" fill="#E27800"/><path d="M10.87 84.012c.918 1.18.716 2.872-.45 3.778-1.167.905-2.856.682-3.773-.499-.917-1.18-.715-2.872.451-3.778 1.167-.906 2.855-.682 3.772.499z" fill="#FAA401"/></g><defs><clipPath id="clip0_127_2257"><path fill="#fff" d="M0 0h135v124H0z"/></clipPath></defs></svg>