<svg id="Layer_3" data-name="Layer 3" xmlns="http://www.w3.org/2000/svg" viewBox="0 0 135 124"><defs><style>.cls-2{fill:#ebe3e3}.cls-6{fill:#afafaf}</style></defs><path d="M124 28v79a17.43 17.43 0 0 1-.33 3.34q-.11.52-.24 1A17 17 0 0 1 107 124H28a16.94 16.94 0 0 1-16.43-12.64q-.13-.49-.24-1A17.43 17.43 0 0 1 11 107V28a17 17 0 0 1 17-17h79a17 17 0 0 1 17 17z" fill="#50d7fd"/><path class="cls-2" d="M13.12 25.66h112.55v65H13.12a3.81 3.81 0 0 1-3.81-3.76V29.47a3.81 3.81 0 0 1 3.81-3.81z" transform="rotate(90 67.49 58.18)"/><path fill="#2bb1f3" d="M40.98 6.02H94v104.33H40.98z"/><path fill="#259ad4" d="M40.98 6.02H94v3.94H40.98z"/><path class="cls-2" d="M35.57 104.39v6H11.33A17.43 17.43 0 0 1 11 107v-2.61zM124 104.39V107a17.43 17.43 0 0 1-.33 3.34H99.41v-6zM89 51.81v17.27a2.56 2.56 0 0 1-2.57 2.55h-4.52a2.56 2.56 0 0 1-2.56-2.55V51.81a2.56 2.56 0 0 1 2.56-2.55h4.53A2.56 2.56 0 0 1 89 51.81z"/><path d="M86.26 57.65v2.79a2 2 0 0 1-2 2.05h-4.91V58.4h4.87z" fill="#cdcdcd"/><rect class="cls-2" x="71.3" y="55.6" width="14.97" height="4.1" rx="2.05" ry="2.05"/><path class="cls-6" d="M123.67 110.34q-.11.52-.24 1A17 17 0 0 1 107 124H28a16.94 16.94 0 0 1-16.43-12.64q-.13-.49-.24-1z"/><rect x="52.97" y="14.59" width="29.05" height="28.48" rx="2.83" ry="2.83" fill="#fff"/><rect class="cls-6" x="66.53" y="20.19" width="1.71" height="17.87" rx=".86" ry=".86"/><circle class="cls-6" cx="74.55" cy="22.12" r="2.09"/><rect class="cls-6" x="71.67" y="24.77" width="5.57" height="7.4" rx="1.1" ry="1.1"/><rect class="cls-6" x="72.54" y="30.46" width="1.65" height="7.41" rx=".82" ry=".82"/><rect class="cls-6" x="74.82" y="30.46" width="1.65" height="7.41" rx=".82" ry=".82"/><circle class="cls-6" cx="60.58" cy="22.12" r="2.09"/><rect class="cls-6" x="58.57" y="30.46" width="1.65" height="7.41" rx=".82" ry=".82"/><rect class="cls-6" x="60.85" y="30.46" width="1.65" height="7.41" rx=".82" ry=".82"/><path class="cls-6" d="M62.6 33.31h-4.14A1.76 1.76 0 0 1 56.8 31l1.89-5.22a1.76 1.76 0 0 1 1.66-1.16h.17a1.75 1.75 0 0 1 1.63 1.11l2.08 5.22a1.76 1.76 0 0 1-1.63 2.36z"/><path d="M81.69 67.94a1 1 0 0 1-1-1.37 3.73 3.73 0 0 1 6.94 0 1 1 0 0 1-1 1.37z" fill="#f34848"/></svg>