<svg id="Layer_3" data-name="Layer 3" xmlns="http://www.w3.org/2000/svg" viewBox="0 0 135 124"><defs><style>.cls-3{fill:#d8fdbc}.cls-4{fill:#259ad4}.cls-6{fill:#ebe3e3}.cls-13{fill:#fff}</style></defs><rect x="11" y="11" width="113" height="113" rx="17" ry="17" fill="#d3e4e8"/><rect x="11" y="11" width="113" height="113" rx="17" ry="17" fill="#aee560"/><rect class="cls-3" x="17.38" y="50.17" width="65.81" height="67.35" rx="11.69" ry="11.69"/><path class="cls-3" d="M29.12 41.52h42.32a3.21 3.21 0 0 1 3.21 3.21v6.57H25.91v-6.57a3.21 3.21 0 0 1 3.21-3.21z"/><path class="cls-4" d="M77.85 75.5v32.32a6.37 6.37 0 0 1-6.36 6.37H29.07a6.37 6.37 0 0 1-6.36-6.37V75.5z"/><path d="M78.92 2.09a2.2 2.2 0 0 1-.06.5L68.47 42.51l-8.14 31.28-8.59-2.55 9.6-28.73 13.71-41A2 2 0 0 1 76.64.12 1.67 1.67 0 0 1 77 .1a1.53 1.53 0 0 1 .3 0h.26a2 2 0 0 1 1.36 1.99z" fill="#e3a15f"/><path class="cls-6" d="M50.94 75.5l1.19-6.59a1.34 1.34 0 0 1 1.71-1l6.57 2a1.35 1.35 0 0 1 .86 1.82l-1.62 3.77z"/><rect x="50.77" y="70.62" width="10.89" height="2.81" rx="1.4" ry="1.4" transform="rotate(16.53 56.226 72.039)" fill="#afafaf"/><path d="M78.92 2.09a2.2 2.2 0 0 1-.06.5L68.47 42.51h-7.13l13.71-41A2 2 0 0 1 76.64.12 1.67 1.67 0 0 1 77 .1a1.53 1.53 0 0 1 .3 0H77.61a2 2 0 0 1 1.31 1.99z" fill="#cb791d"/><path fill="#bdf2fe" d="M49.13 75.5l-4 20.71 7.29 2.29 9.67-23H49.13z"/><path d="M52.64 97l-6.85-2a1.41 1.41 0 0 1-.63-2 1.4 1.4 0 0 1 1.84-.59l6.85 2a1.4 1.4 0 0 1 .63 1.88 1.4 1.4 0 0 1-1.84.71z" fill="#50d7fd"/><path d="M52.42 98.49a.81.81 0 0 1 0 .16 11.55 11.55 0 0 1-11.4 13.54H38.6a7.89 7.89 0 0 1-6.54-3.43 11.9 11.9 0 0 1-1.75-3.76 1.13 1.13 0 0 1 1.5-1.27l.39.15a8.26 8.26 0 0 0 9.08-2.26 23.83 23.83 0 0 0 3.85-5.44z" fill="#2d2d2d"/><rect x="21.77" y="54.8" width="38.49" height="10.47" rx="5.24" ry="5.24" opacity=".8" fill="#fff"/><path class="cls-13" d="M71.44 43.58H29.12a1.07 1.07 0 0 1 0-2.14h42.32a1.07 1.07 0 1 1 0 2.14z"/><path class="cls-4" d="M124 28v32h-1.26a2.59 2.59 0 0 0-2.59 2.59v6.43a2.59 2.59 0 0 1-2.59 2.59h-.31a2.59 2.59 0 0 1-2.59-2.59V44.59a2.59 2.59 0 0 0-2.59-2.59h-1.41a2.59 2.59 0 0 0-2.59 2.59v2.6a2.59 2.59 0 0 1-2.59 2.59h-.31a2.59 2.59 0 0 1-2.59-2.59v-9.66a2.59 2.59 0 0 0-2.58-2.59 2.59 2.59 0 0 0-2.59 2.59v44.66a2.59 2.59 0 0 1-2.59 2.59h-.55a2.59 2.59 0 0 1-2.59-2.59V37.53a2.59 2.59 0 0 0-2.59-2.59H84a2.59 2.59 0 0 1-2.59-2.59V11H107a17 17 0 0 1 17 17z"/><path class="cls-13" d="M121.18 111.63v1.57l-8.18 2.62a38.28 38.28 0 0 1-12.11 1.85l-11.45-.08H69.88v-17.3h12.36a25.62 25.62 0 0 1 3.71.27 25.26 25.26 0 0 1 9.63 3.51l9.11 5.62a12.14 12.14 0 0 0 6.17 1.8z"/><path class="cls-4" d="M86 100.56v17.1H73.35v-17.37h8.89a25.62 25.62 0 0 1 3.76.27z"/><path class="cls-6" d="M62.48 108.94l7.4 8.65v-17.31l-7.4 8.66z"/><path d="M73.35 102.59h6.25a2.57 2.57 0 0 1 2.57 2.57 2.57 2.57 0 0 1-2.57 2.57h-6.25v-5.13z" fill="#2bb1f3"/><path class="cls-13" d="M59.7 105.99h5.5v5.89h-5.5z"/></svg>