<svg viewBox="0 0 135 124" fill="none" xmlns="http://www.w3.org/2000/svg"><rect x="11" y="11" width="113" height="113" rx="17" fill="#9069CD"/><path d="M22.234 60.025l-7.906-14.75a1 1 0 0 1 .761-1.465l9.241-1.118a1 1 0 0 1 1.117 1.076l-1.335 15.868c-.084.992-1.408 1.266-1.878.389z" fill="#DDF4FF"/><path fill-rule="evenodd" clip-rule="evenodd" d="M79.94 3.016c14.886 0 26.954 12.114 26.954 27.058 0 14.943-12.068 27.057-26.955 27.057-14.886 0-26.954-12.114-26.954-27.058 0-14.943 12.068-27.057 26.954-27.057z" fill="#2D2D2D"/><path fill-rule="evenodd" clip-rule="evenodd" d="M100.904 9.03c7.719 0 13.976 6.28 13.976 14.029v6.012c0 7.749-6.257 14.03-13.976 14.03-7.72 0-13.977-6.281-13.977-14.03V23.06c0-7.749 6.258-14.03 13.977-14.03z" fill="#2D2D2D"/><path d="M76.966 92.169l11.92 6.958a13.932 13.932 0 0 0 14.052 0l11.92-6.958a10.019 10.019 0 0 0 4.815-6.937l6.678-38.333c2.089-11.994-5.903-23.418-17.851-25.515-1.25-.22-2.515-.33-3.784-.33H87.108c-12.13 0-21.963 9.871-21.963 22.047 0 1.273.11 2.544.328 3.798l6.678 38.333a10.02 10.02 0 0 0 4.815 6.937z" fill="#DB8F73"/><path d="M121.67 57.46l-5.785 1.557c-4.793 1.29-7.638 6.235-6.354 11.046 1.285 4.811 6.211 7.667 11.005 6.377l5.785-1.556c4.793-1.289 7.638-6.234 6.354-11.046-1.285-4.811-6.211-7.666-11.005-6.377zM69.208 57.46l5.786 1.557c4.793 1.29 7.638 6.235 6.353 11.046-1.284 4.811-6.21 7.667-11.004 6.377l-5.786-1.556c-4.793-1.289-7.637-6.234-6.353-11.046 1.284-4.811 6.211-7.666 11.004-6.377z" fill="#DB8F73"/><path fill-rule="evenodd" clip-rule="evenodd" d="M97.93 58.87l1.825 16.492a3.433 3.433 0 0 1-3.402 3.815h-.719a3.43 3.43 0 0 1-3.401-3.815l1.825-16.492a1.95 1.95 0 0 1 1.935-1.74 1.95 1.95 0 0 1 1.936 1.74z" fill="#C76C46"/><path d="M74.448 45.11h7.488c4.962 0 8.984 3.915 8.984 8.745v5.831c0 .805-.67 1.458-1.497 1.458h-7.487c-4.963 0-8.985-3.916-8.985-8.746v-5.83c0-.806.67-1.458 1.497-1.458z" fill="#2B70C9"/><path d="M74.213 49.77h7.594c5.033 0 9.113 3.355 9.113 7.493v8.538c0 .69-.68 1.248-1.519 1.248h-7.594c-5.032 0-9.112-3.354-9.112-7.492v-8.538c0-.69.68-1.248 1.518-1.248z" fill="#fff"/><path fill-rule="evenodd" clip-rule="evenodd" d="M122.953 73.165h3.821c.972 0 1.803.703 1.967 1.665l1.712 10.021a2.004 2.004 0 0 1-1.968 2.343h-7.244a2 2 0 0 1-1.968-2.343l1.712-10.02a1.998 1.998 0 0 1 1.968-1.666z" fill="#FFC800"/><path d="M104.716 21.054c1.269 0 2.534.11 3.784.33 11.351 1.992 19.132 12.402 18.089 23.722H65.236a22.142 22.142 0 0 1-.091-2.005c0-12.176 9.833-22.047 21.963-22.047h17.608z" fill="#A98476"/><path fill-rule="evenodd" clip-rule="evenodd" d="M86.927 33.08h21.366c6.946 0 12.577 5.652 12.577 12.624H80.937v-6.611c0-3.321 2.682-6.013 5.99-6.013z" fill="#DB8F73"/><path d="M126.594 41.098c.171 1.892.098 3.839-.243 5.8l-2.123 12.187a4.005 4.005 0 0 1-3.358-3.959v-14.03l5.724.002z" fill="#A98476"/><path fill-rule="evenodd" clip-rule="evenodd" d="M100.904 11.033c7.719 0 13.976 4.544 13.976 12.292v7.75c0 7.749-6.257 14.03-13.976 14.03-7.72 0-13.977-6.281-13.977-14.03v-6.012c0-7.748 6.258-14.03 13.977-14.03z" fill="#2D2D2D"/><path d="M70.774 41.1v14.029a4.005 4.005 0 0 1-3.359 3.958l-2.122-12.186a22.131 22.131 0 0 1-.239-5.802h5.72z" fill="#A98476"/><path fill-rule="evenodd" clip-rule="evenodd" d="M74.016 7.567c7.72 0 13.977 6.281 13.977 14.03v20.042c0 7.748-6.258 14.03-13.977 14.03S60.04 49.387 60.04 41.639V21.597c0-7.749 6.257-14.03 13.976-14.03z" fill="#2D2D2D"/><path fill-rule="evenodd" clip-rule="evenodd" d="M123.848 77.173h1.971a1.211 1.211 0 0 0 1.148-1.594l-.071-.216A1.997 1.997 0 0 0 125 73.986h-.392c-.892 0-1.677.595-1.921 1.457l-.038.136a1.252 1.252 0 0 0 1.199 1.594z" fill="#FFE44E"/><path d="M76.034 56.89a3.743 3.743 0 0 1 7.486 0v4.666a3.743 3.743 0 1 1-7.486 0v-4.665z" fill="#2D2D2D"/><path d="M104.097 89.412c0 4.886-3.91.586-8.734.586-4.823 0-8.733 4.3-8.733-.586 0-4.887 3.91-8.848 8.733-8.848 4.824 0 8.734 3.962 8.734 8.848z" fill="#A54444"/><rect y="7.567" width="46.32" height="39" rx="8" transform="rotate(-6.903 0 7.567)" fill="#DDF4FF"/><path d="M95.527 105.543a1 1 0 0 1 .849-1.075l1.8-.269a1 1 0 0 1 1.125.779l2.685 12.536a1 1 0 0 1-.83 1.198l-3.381.506a1 1 0 0 1-1.145-.903l-1.103-12.772zM105.893 103.322a1 1 0 0 1-.16-1.36l1.082-1.463a1 1 0 0 1 1.347-.245l10.762 6.965a1 1 0 0 1 .261 1.434l-2.033 2.749a1 1 0 0 1-1.448.171l-9.811-8.251zM85.265 103.681a1 1 0 0 1 1.36-.16l1.463 1.082a1 1 0 0 1 .245 1.347l-6.965 10.762a1 1 0 0 1-1.434.261l-2.75-2.033a1 1 0 0 1-.17-1.448l8.251-9.811zM58.438 53.41a1 1 0 0 1-.043 1.37l-1.287 1.286a1 1 0 0 1-1.368.043l-9.613-8.482a1 1 0 0 1-.046-1.457l2.418-2.417a1 1 0 0 1 1.457.045l8.482 9.613z" fill="#CE82FF"/><path fill-rule="evenodd" clip-rule="evenodd" d="M31.825 29.67c-1.434.07-2.618-.926-2.702-2.626-.064-1.296.178-2.526 1.456-4.213l1.916-2.571c1.066-1.392 1.398-2.342 1.348-3.355-.078-1.579-1.113-2.623-2.622-2.548-1.396.07-2.113.876-2.544 2.115-.468 1.24-1.346 1.853-2.327 1.902-1.434.07-2.463-.852-2.537-2.35-.016-.324.04-.733.135-1.103.724-2.958 3.297-5.237 7.146-5.429 4.49-.223 7.74 2.782 7.946 6.952.102 2.065-.424 3.674-1.776 5.406l-2.202 2.91c-.603.8-.801 1.379-.77 2.027.084 1.7-1.071 2.813-2.468 2.883zm-2.851 5.093c-.09-1.822 1.232-3.39 2.93-3.474 1.698-.084 3.168 1.344 3.258 3.167.09 1.822-1.232 3.39-2.93 3.474-1.698.084-3.168-1.345-3.258-3.167zM18.434 36.655c-.35-1.79.733-3.532 2.402-3.861 1.668-.33 3.328.872 3.678 2.662.35 1.79-.733 3.532-2.401 3.861-1.668.33-3.328-.872-3.679-2.662z" fill="#F34848"/><path d="M13.695 12.853a1 1 0 0 1 .777-1.225l3.819-.75a1 1 0 0 1 1.183.84l2.4 16.853a1 1 0 0 1-.797 1.122l-2.063.406a1 1 0 0 1-1.163-.738l-4.156-16.508z" fill="#F34848"/><path fill-rule="evenodd" clip-rule="evenodd" d="M46.983 59.043c5.309.469 9.228 5.163 8.758 10.48l-.127 1.446-19.222-1.7.128-1.444c.47-5.318 5.155-9.252 10.463-8.782z" fill="#FF9600"/><path d="M35.886 67.583c5.666.501 10.66-3.614 11.154-9.192.493-5.578-3.702-10.506-9.369-11.006-5.669-.502-10.663 3.614-11.156 9.192-.493 5.577 3.702 10.505 9.37 11.006z" fill="#FF9600"/><path d="M14.932 78.044c.605-6.837 6.637-11.89 13.475-11.286l36.488 3.226c6.837.604 11.89 6.637 11.285 13.474l-1.997 22.59c-.604 6.837-6.637 11.89-13.474 11.285l-36.488-3.225c-6.837-.605-11.89-6.637-11.286-13.475l1.997-22.59z" fill="#FFC6B7"/><path fill-rule="evenodd" clip-rule="evenodd" d="M28.748 80.767a7.71 7.71 0 1 1 15.36 1.358l-.412 4.672a7.71 7.71 0 0 1-15.36-1.358l.412-4.672z" fill="#fff"/><path fill-rule="evenodd" clip-rule="evenodd" d="M40.379 76.275a3.462 3.462 0 0 1 3.143 3.753l-.383 4.331a3.461 3.461 0 1 1-6.896-.61l.356-4.036.164.019a2.78 2.78 0 0 0 2.94-3.45c.22-.024.447-.027.676-.007z" fill="#3D3D3D"/><path fill-rule="evenodd" clip-rule="evenodd" d="M46.727 82.356a7.71 7.71 0 0 1 15.36 1.358l-.412 4.672a7.71 7.71 0 1 1-15.36-1.358l.412-4.672z" fill="#fff"/><path fill-rule="evenodd" clip-rule="evenodd" d="M56.569 76.985a3.462 3.462 0 0 1 3.143 3.753l-.383 4.33a3.462 3.462 0 0 1-6.896-.609l.357-4.037.163.02a2.78 2.78 0 0 0 2.94-3.45c.22-.025.447-.027.676-.007z" fill="#3D3D3D"/><path fill-rule="evenodd" clip-rule="evenodd" d="M44.167 96.465a2.858 2.858 0 0 0 3.098-2.594c.14-1.572-2.38-5.541-2.38-5.541l-.298.336c-.794.907-2.903 3.427-3.016 4.701a2.858 2.858 0 0 0 2.596 3.098z" fill="#EE9583"/><path d="M75.36 92.742l.82-9.285c.485-5.48-2.666-10.445-7.457-12.51L67.51 84.661a7.359 7.359 0 0 0 6.683 7.978l1.167.103zM23.501 67.305c-4.61 1.487-8.116 5.61-8.57 10.739l-.82 9.285 1.225.108a7.359 7.359 0 0 0 7.978-6.682l1.214-13.733c-.348.08-.69.174-1.027.283z" fill="#FFB67A"/><path d="M40.87 97.591c-4.216-1.964-9.126-.622-11.806 2.961-.662.885-.212 2.092.789 2.559l13.88 6.466c1 .467 2.214.034 2.466-1.042 1.02-4.357-1.112-8.98-5.329-10.944z" fill="#A54444"/><path d="M41.342 108.464a5.79 5.79 0 0 0-3.326-4.745 5.79 5.79 0 0 0-5.772.506l9.098 4.239z" fill="#FF7878"/><path fill="#FFC6B7" d="M28.811 71.404l18.594 3.272-1.24 7.047-18.594-3.272zM27.648 84.348l14.88 6.932-2.448 5.252L25.201 89.6zM82.154 95.723a5.478 5.478 0 1 1-10.914-.965 5.478 5.478 0 0 1 10.914.965zM17.486 90.007a5.478 5.478 0 1 1-10.914-.965 5.478 5.478 0 0 1 10.914.965z"/><path d="M117.375 45.11h-7.487c-4.962 0-8.985 3.915-8.985 8.745v5.831c0 .805.671 1.458 1.498 1.458h7.487c4.962 0 8.985-3.916 8.985-8.746v-5.83c0-.806-.671-1.458-1.498-1.458z" fill="#2B70C9"/><path d="M117.61 49.77h-7.594c-5.032 0-9.112 3.355-9.112 7.493v8.538c0 .69.68 1.248 1.518 1.248h7.594c5.033 0 9.113-3.354 9.113-7.492v-8.538c0-.69-.68-1.248-1.519-1.248z" fill="#fff"/><path d="M108.655 56.89a3.743 3.743 0 0 0-7.486 0v4.666a3.743 3.743 0 0 0 7.486 0v-4.665z" fill="#2D2D2D"/></svg>