<svg viewBox="0 0 135 124" fill="none" xmlns="http://www.w3.org/2000/svg"><path d="M107 11H28c-9.389 0-17 7.611-17 17v79c0 9.389 7.611 17 17 17h79c9.389 0 17-7.611 17-17V28c0-9.389-7.611-17-17-17z" fill="#75EFF2"/><path d="M112.962 80v29.799a3.788 3.788 0 0 1-3.81 3.8h-53.8v-33.6a25.711 25.711 0 0 0-4-13.79l-7.62-11.95a25.61 25.61 0 0 1-4-13.79V23.62a.93.93 0 0 1 1.56-.62l3.29 3.22 2.86-2.82a2.8 2.8 0 0 1 3.94 0l2.8 2.81 2.86-2.85a2.8 2.8 0 0 1 4 0l2.8 2.8 2.85-2.82a2.8 2.8 0 0 1 4 0l2.79 2.8 2.81-2.81a2.8 2.8 0 0 1 3.94 0l2.81 2.85 2.85-2.82a2.79 2.79 0 0 1 3.94 0l2.81 2.8 2.12-2.16 1-1a.92.92 0 0 1 1.57.66v16.81a25.707 25.707 0 0 0 4 13.79l7.59 11.93a25.596 25.596 0 0 1 4.04 13.81z" fill="#C46800"/><path d="M112.962 80v29.8a3.793 3.793 0 0 1-3.81 3.8h-17.71V40.42h5.87a25.708 25.708 0 0 0 4 13.79l7.59 11.93a25.594 25.594 0 0 1 4.06 13.86z" fill="#CB791D"/><path d="M97.372 23.62v16.85c.009 2.551-.365 5.09-1.11 7.53a26.148 26.148 0 0 1-2.91 6.31l-7.6 11.92a25.51 25.51 0 0 0-4 13.79v33.6h-53.65a4 4 0 0 1-4-4V80a25 25 0 0 1 .72-6 25.291 25.291 0 0 1 3.3-7.8l7.61-11.93a26 26 0 0 0 4-13.79V23.69a.93.93 0 0 1 1.62-.69l3.14 3.14 2.8-2.8a2.82 2.82 0 0 1 2.75-.68c.453.126.866.367 1.2.7l2.86 2.82 1.46-1.45 1.39-1.37a2.8 2.8 0 0 1 3.61-.27c.119.082.229.176.33.28l2.81 2.81 2.34-2.38.42-.42a2.79 2.79 0 0 1 3.93 0l.65.62 2.21 2.19 2.81-2.8a2.8 2.8 0 0 1 3.94-.02l1.56 1.55 1.29 1.27 2.8-2.81a2.9 2.9 0 0 1 1.44-.77 2.81 2.81 0 0 1 2.5.76l2.5 2.46.38.36 3.32-3.19a.93.93 0 0 1 1.58.62z" fill="#D6964F"/><path d="M111.602 112.69a3.82 3.82 0 0 1-2.45.88h-27.42l9.71-13.91 20.16 13.03zM50.042 22.66v17.81a25.7 25.7 0 0 1-4 13.79l-7.64 11.93a25.66 25.66 0 0 0-4 13.78v33.599h-5v-33.57a25.66 25.66 0 0 1 4-13.78l7.64-11.96a25.7 25.7 0 0 0 4-13.79V25.64l2.26-2.26a2.82 2.82 0 0 1 2.74-.72z" fill="#D18837"/><path d="M60.552 23.09v17.38a25.77 25.77 0 0 1-4 13.79l-7.62 11.93a25.58 25.58 0 0 0-4 13.78v33.6h-5V80a25.58 25.58 0 0 1 4-13.78l7.61-11.96a25.77 25.77 0 0 0 4-13.79V24.73l1.39-1.37a2.8 2.8 0 0 1 3.62-.27z" fill="#D18837"/><path d="M71.042 24v16.47a25.7 25.7 0 0 1-4 13.79l-7.6 11.93a25.67 25.67 0 0 0-4 13.78v33.6h-5V80a25.67 25.67 0 0 1 4-13.78l7.6-11.96a25.7 25.7 0 0 0 4-13.79V23.8l.42-.42a2.78 2.78 0 0 1 3.93 0l.65.62z" fill="#D18837"/><path d="M81.602 24.91v15.56a25.6 25.6 0 0 1-4 13.79l-7.56 11.93a25.58 25.58 0 0 0-4 13.78v33.6h-5V80a25.58 25.58 0 0 1 4-13.78l7.6-11.93a25.6 25.6 0 0 0 4-13.79V23a2.8 2.8 0 0 1 3.44.38l1.52 1.53z" fill="#D18837"/><path d="M92.132 25.82v14.65a25.61 25.61 0 0 1-4 13.79l-7.61 11.93a25.49 25.49 0 0 0-4 13.78v33.6h-5V80a25.49 25.49 0 0 1 4-13.78l7.59-11.93a25.61 25.61 0 0 0 4-13.79V22.6a2.81 2.81 0 0 1 2.5.76l2.52 2.46z" fill="#D18837"/><path d="M28.712 35.12a2.86 2.86 0 0 1-3 2.11l-15.78-1.5a5.44 5.44 0 0 1-4.75-6.81 5.45 5.45 0 0 1 7.49-3.59l14.45 6.47a2.85 2.85 0 0 1 1.59 3.32zM30.502 20.14l-.07.06a3.08 3.08 0 0 1-3.92 0l-8.3-6.79a4.89 4.89 0 0 1 0-7.54A4.88 4.88 0 0 1 25.442 7l5.71 9.09a3.08 3.08 0 0 1-.65 4.05zM26.882 50.56a3.14 3.14 0 0 1-1.1 3.84l-8.79 6a4.89 4.89 0 0 1-7.25-2.04 4.89 4.89 0 0 1 3.14-6.64l10.27-2.93a3.13 3.13 0 0 1 3.73 1.77zM106.192 33.79a2.85 2.85 0 0 0 3 2.1l15.76-1.49a5.448 5.448 0 0 0 4.75-6.82 5.441 5.441 0 0 0-7.47-3.58l-14.45 6.46a2.86 2.86 0 0 0-1.59 3.33zM104.432 18.84a3.14 3.14 0 0 0 4 0l8.26-6.77a4.88 4.88 0 0 0 0-7.53 4.891 4.891 0 0 0-7.26 1.16l-5.67 9a3.14 3.14 0 0 0 .67 4.14zM108.042 49.15l-.07.15a3 3 0 0 0 1.07 3.7l8.86 6.09a4.889 4.889 0 0 0 7.26-2.09 4.88 4.88 0 0 0-3.12-6.61l-10.34-3a3 3 0 0 0-3.66 1.76z" fill="#FC4D50"/></svg>