<svg viewBox="0 0 135 124" fill="none" xmlns="http://www.w3.org/2000/svg"><g clip-path="url(#clip0)"><path fill-rule="evenodd" clip-rule="evenodd" d="M28 11h79c9.389 0 17 7.611 17 17v79c0 9.389-7.611 17-17 17H28c-9.389 0-17-7.611-17-17V28c0-9.389 7.611-17 17-17z" fill="#FF7878"/><path d="M58.466 65.44c0-.81.656-1.466 1.466-1.466H81.28V80.65H71.66c-7.287 0-13.194-5.907-13.194-13.194V65.44zM120.038 65.44c0-.81-.657-1.466-1.466-1.466H97.223V80.65h9.621c7.287 0 13.194-5.907 13.194-13.194V65.44zM116.64 14.441l-30.29 8.383c-1.214.335-2.456-.328-2.775-1.481-2.247-8.118 4.44-16.695 13.32-19.153 8.908-2.465 19.047 1.5 21.304 9.654.307 1.11-.391 2.274-1.559 2.597z" fill="#A34242"/><path d="M62.931 27.23C63.716 13.254 75.28 2.322 89.278 2.322h1.103c.81 0 1.466.656 1.466 1.466v73.93a2.932 2.932 0 0 1-2.932 2.932H72.337c-6.736 0-12.087-5.66-11.71-12.385l2.304-41.035z" fill="#A34242"/><path d="M115.572 27.23c-.785-13.976-12.347-24.908-26.346-24.908h-1.103c-.81 0-1.466.656-1.466 1.466v73.93a2.932 2.932 0 0 0 2.932 2.932h16.578c6.735 0 12.087-5.66 11.709-12.385l-2.304-41.035z" fill="#A34242"/><path d="M111.692 59.33a8.346 8.346 0 1 0 0-16.692 8.346 8.346 0 0 0 0 16.692zM66.883 59.33a8.345 8.345 0 1 0 0-16.69 8.345 8.345 0 0 0 0 16.69z" fill="#E79B7E"/><path d="M65.288 55.046c.125-.7.733-1.209 1.443-1.209h.737c.71 0 1.318.51 1.443 1.21l1.18 6.617c.16.898-.53 1.723-1.444 1.723h-3.096a1.466 1.466 0 0 1-1.443-1.723l1.18-6.618zM109.092 55.046c.124-.7.732-1.209 1.443-1.209h.736c.711 0 1.319.51 1.444 1.21l1.179 6.617a1.465 1.465 0 0 1-1.443 1.723h-3.096a1.466 1.466 0 0 1-1.443-1.723l1.18-6.618z" fill="#FFD300"/><path d="M69.09 31.924c0-11.041 8.95-19.992 19.992-19.992 11.041 0 19.992 8.95 19.992 19.992v20.107c0 11.041-8.951 19.992-19.992 19.992-11.042 0-19.993-8.95-19.993-19.992V31.924z" fill="#E79B7E"/><path fill-rule="evenodd" clip-rule="evenodd" d="M99.08 29.334a5.34 5.34 0 0 1 3.285 2.028 1.466 1.466 0 0 0 2.336-1.772 8.271 8.271 0 0 0-5.081-3.138 8.27 8.27 0 0 0-5.872 1.088 1.466 1.466 0 0 0 1.537 2.497 5.34 5.34 0 0 1 3.796-.703zM78.641 29.334a5.34 5.34 0 0 0-3.284 2.028 1.466 1.466 0 1 1-2.336-1.772 8.27 8.27 0 0 1 5.081-3.138 8.27 8.27 0 0 1 5.872 1.088 1.466 1.466 0 1 1-1.537 2.497 5.34 5.34 0 0 0-3.796-.703z" fill="#8F3535"/><path d="M84.955 39.045a5.61 5.61 0 0 0-11.22 0v4.311a5.61 5.61 0 0 0 11.22 0v-4.31zM93.398 39.045a5.61 5.61 0 1 1 11.219 0v4.311a5.61 5.61 0 1 1-11.22 0v-4.31z" fill="#fff"/><path d="M86.579 37.872a1.1 1.1 0 0 1 1.1-1.1h2.995a1.1 1.1 0 0 1 1.1 1.1V50.15a1.1 1.1 0 0 1-1.1 1.1h-2.996a1.1 1.1 0 0 1-1.1-1.1V37.872z" fill="#E08462"/><path d="M75.346 32.684L97.282 9.73c.879-.92.922-2.304.097-3.092-5.806-5.549-16.37-3.441-22.8 3.288-6.451 6.75-8.036 17.413-2.204 22.986.795.76 2.125.657 2.971-.228z" fill="#A34242"/><path d="M54.278 120.026c10.398 0 18.827-8.429 18.827-18.827 0-10.398-8.43-18.827-18.827-18.827-10.398 0-18.827 8.429-18.827 18.827 0 10.398 8.429 18.827 18.827 18.827z" fill="#3D3D3D"/><path d="M55.234 84.602c10.603 0 19.199-8.596 19.199-19.199 0-10.603-8.596-19.199-19.2-19.199-10.603 0-19.198 8.596-19.198 19.2 0 10.602 8.595 19.198 19.199 19.198z" fill="#3D3D3D"/><path d="M36.553 88.112c12.996 0 23.532-10.536 23.532-23.533 0-12.997-10.536-23.532-23.532-23.532-12.997 0-23.533 10.535-23.533 23.532s10.536 23.533 23.533 23.533z" fill="#3D3D3D"/><path d="M21.991 94.645a6.935 6.935 0 1 0 0-13.87 6.935 6.935 0 0 0 0 13.87z" fill="#A66640"/><path d="M23.652 73.098c0-10.06 8.156-18.216 18.217-18.216 10.06 0 18.216 8.156 18.216 18.216v21.749c0 10.061-8.156 18.216-18.216 18.216-10.061 0-18.217-8.155-18.217-18.216V73.098z" fill="#A66640"/><path fill-rule="evenodd" clip-rule="evenodd" d="M32.713 71.826a5.339 5.339 0 0 0-3.285 2.028 1.466 1.466 0 0 1-2.336-1.772 8.271 8.271 0 0 1 5.081-3.138 8.272 8.272 0 0 1 5.872 1.088 1.466 1.466 0 0 1-1.536 2.497 5.34 5.34 0 0 0-3.796-.703z" fill="#3D3D3D"/><path d="M39.55 78.969a1.1 1.1 0 0 1 1.1-1.1h2.996a1.1 1.1 0 0 1 1.1 1.1v13.673a1.1 1.1 0 0 1-1.1 1.1H40.65a1.1 1.1 0 0 1-1.1-1.1V78.969z" fill="#8E4D26"/><path fill-rule="evenodd" clip-rule="evenodd" d="M34.555 95.684c.562-.583 1.49-.6 2.073-.038a7.924 7.924 0 0 0 5.52 2.227 7.924 7.924 0 0 0 5.52-2.227 1.466 1.466 0 0 1 2.036 2.11 10.856 10.856 0 0 1-7.556 3.049 10.857 10.857 0 0 1-7.555-3.048 1.466 1.466 0 0 1-.038-2.073z" fill="#62361B"/><path d="M40.999 67.8c6.207.305 11.487-4.478 11.793-10.685.306-6.208-4.478-11.488-10.685-11.794C35.9 45.017 30.62 49.8 30.314 56.007c-.306 6.207 4.478 11.487 10.685 11.793z" fill="#3D3D3D"/><path d="M56.593 75.588c7.021.346 12.993-5.064 13.339-12.085.346-7.02-5.064-12.993-12.085-13.339-7.02-.346-12.993 5.065-13.339 12.085-.346 7.021 5.065 12.993 12.085 13.339z" fill="#3D3D3D"/><path d="M73.832 72.146c-1.117-1.85-3.501-2.455-5.326-1.353-1.036.625-2.297 2.49-3.785 5.596a1.29 1.29 0 0 0 1.115 1.846c3.441.13 5.68-.119 6.715-.744 1.825-1.102 2.398-3.495 1.281-5.345z" fill="#FF6464"/><path d="M72.154 84.327c1.713-1.317 2.047-3.755.748-5.445-.738-.958-2.733-2.003-5.986-3.133a1.29 1.29 0 0 0-1.71 1.315c.258 3.434.756 5.63 1.493 6.59 1.3 1.689 3.742 1.99 5.455.673zM57.209 71.493c-1.567 1.489-1.645 3.948-.176 5.493.833.877 2.926 1.707 6.279 2.492a1.29 1.29 0 0 0 1.563-1.486c-.614-3.388-1.338-5.52-2.171-6.397-1.47-1.545-3.93-1.59-5.495-.102z" fill="#FF6464"/><path d="M64.76 66.219c-2.153.17-3.763 2.032-3.594 4.157.096 1.206 1.199 3.169 3.31 5.889a1.29 1.29 0 0 0 2.15-.17c1.656-3.02 2.436-5.132 2.34-6.338-.168-2.125-2.051-3.71-4.205-3.538z" fill="#FF6464"/><path d="M62.158 94.645a6.935 6.935 0 1 0 0-13.869 6.935 6.935 0 0 0 0 13.869z" fill="#A66640"/><path d="M61.329 85.768c2.097.522 4.214-.732 4.729-2.801.291-1.174-.132-3.386-1.27-6.635a1.29 1.29 0 0 0-2.093-.521c-2.529 2.337-3.939 4.093-4.23 5.267-.516 2.069.767 4.169 2.864 4.69z" fill="#FF6464"/><path d="M38.482 81.682a5.232 5.232 0 1 0-10.464 0v4.02a5.232 5.232 0 1 0 10.464 0v-4.02zM45.815 85.703a5.232 5.232 0 1 0 10.463 0v-4.02a5.232 5.232 0 1 0-10.463 0v4.02z" fill="#fff"/><path fill-rule="evenodd" clip-rule="evenodd" d="M30.757 78.843a2.275 2.275 0 0 1 2.136-2.406 5.309 5.309 0 0 1 5.614 4.985 2.275 2.275 0 1 1-4.542.27.758.758 0 0 0-.802-.713 2.275 2.275 0 0 1-2.406-2.136z" fill="#3D3D3D"/><path fill-rule="evenodd" clip-rule="evenodd" d="M100.938 46.5a2.275 2.275 0 0 1-2.136 2.406 5.309 5.309 0 0 1-5.614-4.985 2.275 2.275 0 0 1 4.542-.27.758.758 0 0 0 .802.713 2.275 2.275 0 0 1 2.406 2.136z" fill="#62361B"/><path fill-rule="evenodd" clip-rule="evenodd" d="M48.555 78.843a2.275 2.275 0 0 1 2.136-2.406 5.309 5.309 0 0 1 5.614 4.985 2.275 2.275 0 0 1-4.542.27.758.758 0 0 0-.802-.713 2.275 2.275 0 0 1-2.406-2.136z" fill="#3D3D3D"/><path fill-rule="evenodd" clip-rule="evenodd" d="M81.595 46.5a2.275 2.275 0 0 1-2.136 2.406 5.309 5.309 0 0 1-5.614-4.985 2.275 2.275 0 1 1 4.542-.27.758.758 0 0 0 .802.713 2.275 2.275 0 0 1 2.406 2.136z" fill="#62361B"/><path fill-rule="evenodd" clip-rule="evenodd" d="M83.564 56.07a1.466 1.466 0 0 1 2.006-.523 7.925 7.925 0 0 0 5.889.87 7.924 7.924 0 0 0 4.844-3.46 1.466 1.466 0 0 1 2.473 1.576 10.856 10.856 0 0 1-6.63 4.735 10.856 10.856 0 0 1-8.06-1.191 1.466 1.466 0 0 1-.522-2.006z" fill="#C76D4C"/><path d="M99.846 90.632c-2.2-2.58-3.174-6.086-2.31-9.494 1.416-5.575 7.216-8.78 12.956-7.156a11.268 11.268 0 0 1 6.691 5.19c2.371-1.363 5.32-1.794 8.253-.965 5.74 1.623 9.246 7.458 7.831 13.033-.803 3.165-3.019 5.565-5.836 6.753l-13.615 6.786c-1.881.937-4.156.313-5.368-1.472l-8.602-12.675z" fill="#FF4B4B"/><path fill-rule="evenodd" clip-rule="evenodd" d="M105.449 77.516c.851.794.898 2.129.104 2.98-1.009 1.083-1.422 2.27-1.285 3.46a2.109 2.109 0 0 1-4.189.48c-.3-2.613.685-4.986 2.39-6.815a2.109 2.109 0 0 1 2.98-.105z" fill="#FF8BA7"/><path d="M74.237 110.858c-2.346-1.152-4.109-3.333-4.54-6.008-.707-4.377 2.414-8.419 6.97-9.029a8.684 8.684 0 0 1 6.322 1.622c1.26-1.69 3.213-2.898 5.541-3.21 4.557-.61 8.824 2.443 9.53 6.819.401 2.485-.431 4.861-2.06 6.563l-7.55 8.969c-1.044 1.239-2.844 1.495-4.248.603l-9.965-6.329z" fill="#FF4B4B"/><path fill-rule="evenodd" clip-rule="evenodd" d="M74.183 99.866c.846.3 1.287 1.23.986 2.075-.382 1.074-.31 2.041.151 2.841a1.625 1.625 0 1 1-2.816 1.622c-1.012-1.757-1.042-3.736-.396-5.552a1.624 1.624 0 0 1 2.075-.986z" fill="#FF8BA7"/><path d="M35.49 20.687c-2.69-1.32-4.711-3.82-5.207-6.888-.81-5.017 2.768-9.651 7.992-10.35a9.956 9.956 0 0 1 7.248 1.859c1.444-1.938 3.684-3.323 6.353-3.68 5.224-.7 10.116 2.8 10.926 7.817.46 2.849-.495 5.573-2.361 7.525l-8.658 10.283c-1.196 1.42-3.26 1.713-4.87.69L35.49 20.688z" fill="#FF4B4B"/><path fill-rule="evenodd" clip-rule="evenodd" d="M35.428 8.085a1.863 1.863 0 0 1 1.13 2.38c-.438 1.231-.356 2.339.173 3.257a1.863 1.863 0 1 1-3.228 1.86c-1.16-2.015-1.196-4.284-.455-6.366a1.863 1.863 0 0 1 2.38-1.131z" fill="#FF8BA7"/><path d="M12.053 33.442c-2.005-.984-3.511-2.847-3.88-5.133-.604-3.74 2.062-7.194 5.956-7.715a7.42 7.42 0 0 1 5.402 1.386c1.076-1.445 2.745-2.477 4.735-2.743 3.893-.521 7.54 2.088 8.143 5.827.343 2.123-.368 4.154-1.76 5.608l-6.452 7.664c-.892 1.059-2.43 1.277-3.63.515l-8.514-5.409z" fill="#FF4B4B"/><path fill-rule="evenodd" clip-rule="evenodd" d="M12.006 24.05c.723.257 1.1 1.05.843 1.773-.326.918-.265 1.744.129 2.428a1.388 1.388 0 1 1-2.406 1.386c-.865-1.501-.891-3.193-.339-4.744a1.388 1.388 0 0 1 1.773-.843z" fill="#FF8BA7"/></g><defs><clipPath id="clip0"><path fill="#fff" d="M0 0h135v124H0z"/></clipPath></defs></svg>