<svg id="Layer_3" data-name="Layer 3" xmlns="http://www.w3.org/2000/svg" viewBox="0 0 135 124"><defs><style>.cls-2{fill:#f34848}.cls-3{fill:#ff9881}.cls-4{fill:#cc7900}.cls-5{fill:#af5f00}.cls-6{fill:#ffb49e}.cls-7{fill:#fff}.cls-8{fill:#62361b}.cls-12{fill:#fc4d50}.cls-14{fill:#ffb5a1}</style></defs><path d="M124 28v79a17 17 0 0 1-17 17H28a17 17 0 0 1-17-17V28a17 17 0 0 1 17-17h79a17 17 0 0 1 17 17z" fill="#fed7d8"/><path class="cls-2" d="M123.06 112.6A17 17 0 0 1 107 124H57.67l6.68-5.37a27.31 27.31 0 0 1 17.11-6z"/><path class="cls-3" d="M119.7 112.7l-13.47 6.41a11.47 11.47 0 0 1-14.36-3.84l-1.78-2.57v-15h29.61z"/><circle class="cls-4" cx="96.68" cy="29.49" r="29.28"/><path class="cls-5" d="M59.22 88.88a4.46 4.46 0 0 1-3.16-5.47L62.93 58l10.36 1.5-8.6 26.23a4.47 4.47 0 0 1-5.47 3.15z"/><path class="cls-5" d="M67.17 101A4.46 4.46 0 0 1 63 96.2l1.78-26.27 10.45-.56-3.31 27.41a4.47 4.47 0 0 1-4.75 4.22z"/><circle class="cls-3" cx="75.31" cy="69.82" r="13.02"/><circle class="cls-3" cx="121.89" cy="69.82" r="13.02"/><path class="cls-6" d="M96.24 23.24V23a29.25 29.25 0 0 1 29.25 29.25v34.13a16 16 0 0 1-11.82 15.41l-20.36 5.45a11 11 0 0 1-7.13-.5l-9.46-4A16 16 0 0 1 67 88.05v-35.8a29 29 0 0 1 29.24-29.01z"/><path class="cls-7" d="M85.67 59.6v6.64a8.65 8.65 0 0 1-17.29 0V59.6a8.57 8.57 0 0 1 3.46-6.91l.1-.08A8.49 8.49 0 0 1 77 51a7.16 7.16 0 0 1 .8 0 6.44 6.44 0 0 1 1 .15 8.45 8.45 0 0 1 4.34 2.34 8.6 8.6 0 0 1 2.53 6.11z"/><path class="cls-8" d="M78.8 51.15v2.66a3.48 3.48 0 0 1-7 0v-1.12l.1-.08A8.49 8.49 0 0 1 77 51a7.16 7.16 0 0 1 .8 0 6.44 6.44 0 0 1 1 .15z"/><path class="cls-7" d="M111 59.6v6.64a8.65 8.65 0 0 1-17.29 0V59.6a8.54 8.54 0 0 1 1.83-5.32 9.45 9.45 0 0 1 .67-.75 8.59 8.59 0 0 1 5.33-2.53 7.92 7.92 0 0 1 .85 0h.14a8.66 8.66 0 0 1 8.47 8.6z"/><path class="cls-8" d="M102.53 51v2.86a3.47 3.47 0 0 1-6.92.43 9.45 9.45 0 0 1 .67-.75 8.59 8.59 0 0 1 5.26-2.54 7.92 7.92 0 0 1 .85 0z"/><path class="cls-6" d="M67 75.82h46.12V64l-5.65-.57A22.4 22.4 0 0 0 97 64.9l-8.06 3.21L81.25 65A22.25 22.25 0 0 0 69 63.66L67 64z"/><path class="cls-4" d="M64.8 6.27A4.47 4.47 0 0 1 69 1.56L95.3.14l.5 8.93-26.29 1.41a4.47 4.47 0 0 1-4.71-4.21z"/><path class="cls-4" d="M49.94 28.88a4.48 4.48 0 0 1 1.28-6.19l22-14.44 6.75 8-23.84 13.9a4.47 4.47 0 0 1-6.19-1.27z"/><path class="cls-4" d="M48.85 45.08a4.46 4.46 0 0 1-.41-6.3l22.41-24.43L74.48 25 55.16 44.67a4.47 4.47 0 0 1-6.31.41z"/><path class="cls-4" d="M47.09 60.15A4.48 4.48 0 0 1 46 53.93l15-21.65 9.26 4.88L53.3 59a4.47 4.47 0 0 1-6.21 1.15zM85.51 42.41a4.48 4.48 0 0 1-1.19-6.21l14.84-21.75 9.29 4.81-16.73 22a4.47 4.47 0 0 1-6.21 1.15z"/><path class="cls-4" d="M56.07 73.32c-3.18-.74-5-3.38-4.06-5.88l14.76-42.6 14.61 5.56-17.84 39.72c-.94 2.51-4.28 3.94-7.47 3.2z"/><path class="cls-4" d="M73.67 47.58c4.68-10.42 14.44-18.95 27.11-23.7l1.29-.49-19.27-8.56L70.9 33.6z"/><path d="M105.32 75.36l.12 1.24a13 13 0 0 1 0 2.25A11.36 11.36 0 0 1 95.28 89l-5.5.54a11.32 11.32 0 0 1-12.37-10.2l-.12-1.24a2.14 2.14 0 0 1 1.92-2.34L103 73.44a2.16 2.16 0 0 1 2.32 1.92z" fill="#a24242"/><path class="cls-7" d="M105.32 75.36l.12 1.24a13 13 0 0 1 0 2.25 2.67 2.67 0 0 1-.93.25l-20.25 2A2.94 2.94 0 0 1 81 78.43l-.27-2.82L103 73.44a2.16 2.16 0 0 1 2.32 1.92z"/><path d="M103.18 84.55a11.25 11.25 0 0 1-7.9 4.45l-1.4.14a11 11 0 0 1-2.63-.06 8 8 0 0 1 6.9-5.7 7.9 7.9 0 0 1 5.03 1.17z" fill="#f14848"/><rect x="125.54" y="74.31" width="4.61" height="15.85" rx="2.3" ry="2.3" fill="#777"/><rect class="cls-3" x="84.62" y="48.62" width="6.75" height="24.19" rx="3.38" ry="3.38"/><circle class="cls-12" cx="32.7" cy="45.33" r="9"/><circle class="cls-12" cx="16.55" cy="45.33" r="9"/><path class="cls-12" d="M41.7 45.79c0 8.35-9.91 16.7-14.63 20.2a4.16 4.16 0 0 1-4.92 0c-4.73-3.39-14.6-11.56-14.6-20.2"/><circle class="cls-12" cx="42.31" cy="6.41" r="6.52"/><circle class="cls-12" cx="30.6" cy="6.41" r="6.52"/><path class="cls-12" d="M48.83 6.75c0 6.05-7.18 12.1-10.6 14.64a3 3 0 0 1-3.57 0C31.23 18.93 24.08 13 24.08 6.75"/><path d="M47.39 90.54v.71a4.14 4.14 0 0 1-.88 2.44 4.4 4.4 0 0 1-6.18.84l-9.53-7.28-4.35-3.32a4.41 4.41 0 0 1-.82-6.17A4.36 4.36 0 0 1 29.14 76a4.28 4.28 0 0 1 2.66.9l13.54 10.35.35.27a4.5 4.5 0 0 1 1.7 3.02z" fill="#ff9d8a"/><path class="cls-14" d="M36.22 93.37a4.4 4.4 0 0 1-5.44 3L6.85 89.86a4.4 4.4 0 0 1-3-5.45 4.4 4.4 0 0 1 5.45-3l23.9 6.51a4.4 4.4 0 0 1 3.02 5.45z"/><path class="cls-14" d="M33.72 92a4.42 4.42 0 0 1-4.58 4.23l-24.79-.69A4.41 4.41 0 0 1 .12 91a4.4 4.4 0 0 1 4.58-4.26l24.79.68A4.41 4.41 0 0 1 33.72 92z"/><path class="cls-14" d="M36.65 105.45h-4.33l-3.53-2.81L20.44 96l-.21-.16L22 94.12l7.15-6.71.1-.1.07-.06h12.7a7.66 7.66 0 0 1 7.28 5.29l3.26 10 .74 2.3z"/><path class="cls-2" d="M62.37 124H32.6L27 106.85a2.86 2.86 0 0 1 1.09-3.24 2.79 2.79 0 0 1 1.64-.52h22.14a5 5 0 0 1 2 .41 5.09 5.09 0 0 1 2.86 3.12z"/><path class="cls-4" d="M119.87 28.89l-14.23-7.31-10.31 6.53A52.2 52.2 0 0 1 113.43 42a21.27 21.27 0 0 1 5 13.69v17.69a7.08 7.08 0 0 0 7.08 7.08v-4.25c.33-1.07 13.87-42.35-5.64-47.32z"/></svg>