<svg viewBox="0 0 135 124" fill="none" xmlns="http://www.w3.org/2000/svg"><g clip-path="url(#clip0)"><path d="M28 11h79c9.389 0 17 7.611 17 17v79c0 9.389-7.611 17-17 17H28c-9.389 0-17-7.611-17-17V28c0-9.389 7.611-17 17-17z" fill="#FFCA00"/><path d="M11 65.544V107c0 2.749.653 5.346 1.811 7.644L114.644 12.811A16.928 16.928 0 0 0 107 11H65.544L11 65.544zM76.456 124l33.272-33.272c7.029-7.03 7.029-18.427 0-25.456-7.03-7.03-18.426-7.03-25.456 0l-58.574 58.574c.753.101 1.521.154 2.302.154h48.456z" fill="#FFD900"/><path d="M7.123 29.418c.788-13.52 11.26-24.475 24.73-25.871 13.47-1.396 25.967 7.178 29.51 20.249l11.58 42.712a1.874 1.874 0 0 1-1.615 2.355L6.613 75.571a1.874 1.874 0 0 1-2.064-1.974l2.574-44.18z" fill="#FF9600"/><path d="M24.765 15.309l-.206.021a14.995 14.995 0 0 0-13.448 14.78l-.245 27.25a6.092 6.092 0 0 0 6.719 6.115l41.608-4.313a6.092 6.092 0 0 0 5.322-7.362L61.84 35.23a5.496 5.496 0 0 0-1.249-10.92l-18.639 1.932c-7.724.8-14.752-3.898-17.187-10.933z" fill="#FFD900"/><path d="M31.104 63.016a.937.937 0 0 1 .836-1.029l11.813-1.224a.937.937 0 0 1 1.03.835l.93 8.978a.937.937 0 0 1-.836 1.03L33.063 72.83a.937.937 0 0 1-1.028-.836l-.93-8.978z" fill="#F68B00"/><path d="M37.413 40.883l.023.213a3.538 3.538 0 0 0 3.883 3.154l3.456-.358a7.5 7.5 0 0 0 6.584-6.001l-13.946 2.992z" fill="#FFF1A2"/><path d="M39.643 37.713l.138 1.335a3.257 3.257 0 1 0 6.48-.671l-.139-1.336-6.48.672zM55.978 59.764a7.627 7.627 0 0 0-15.158-.89l15.158.89z" fill="#F68B00"/><path fill-rule="evenodd" clip-rule="evenodd" d="M58.294 60.126a2.343 2.343 0 0 1-2.452 1.976l-15.159-.89a2.343 2.343 0 0 1-2.203-2.247c-.207-5.215 3.672-9.76 8.935-10.305 5.477-.568 10.377 3.412 10.945 8.89.09.875.065 1.74-.066 2.576zm-2.313-2.71a7.746 7.746 0 0 1-.002 2.347l-15.158-.89a7.606 7.606 0 0 1 .269-2.332 7.63 7.63 0 0 1 14.891.876z" fill="#FFD900"/><path d="M56.028 57.79c.07.674.05 1.335-.05 1.973l-9.403-.552a6.592 6.592 0 0 1 7.79-5.44 7.592 7.592 0 0 1 1.663 4.02z" fill="#FF9600"/><path d="M56.03 57.79c.07.674.05 1.335-.05 1.973l-11.001-.646-.083-.8a.703.703 0 0 1 .627-.772l10.256-1.063c.12.421.204.858.251 1.309z" fill="#FFF1A2"/><path d="M36.598 41.04c.133-.013 1.504 1.733 2.905 3.569 1.395 1.827.238 4.46-2.048 4.696-2.286.237-3.959-2.102-2.968-4.176.995-2.084 1.978-4.075 2.111-4.088z" fill="#F68B00"/><path d="M63.473 72.063C67.007 54.24 84.32 42.658 102.141 46.19l.75.149c17.823 3.533 29.406 20.846 25.872 38.668l-.845 4.263c-3.534 17.822-20.846 29.406-38.668 25.872l-.75-.149c-17.822-3.533-29.406-20.846-25.872-38.668l.845-4.263z" fill="#FFF1A2"/><path d="M92.326 106.943a46.42 46.42 0 0 1-3.448.316c-6.891.381-13.4-.708-17.725-1.762a32.833 32.833 0 0 0 5.212 4.418c3.757.57 8.138.922 12.697.671 8.816-.487 18.495-3.251 25.479-11.299-5.647 5.705-13.783 8.746-22.215 7.656z" fill="#FFD900"/><path d="M121.68 85.818c-2.846 14.351-16.786 23.678-31.136 20.833-14.35-2.846-23.678-16.786-20.832-31.136 2.845-14.351 16.785-23.678 31.136-20.833 14.35 2.846 23.677 16.786 20.832 31.136z" fill="#FFBB31"/><path d="M95.368 82.32c.124.024.877 1.986 1.633 4.036.751 2.041-1.029 4.1-3.162 3.677-2.134-.423-2.994-3.005-1.52-4.605 1.48-1.607 2.925-3.133 3.05-3.108z" fill="#E27800"/><path d="M90.925 70.545c3.37 2.734 4.571 5.335 4.58 7.561a5.975 5.975 0 0 1-3.223 5.377 23.268 23.268 0 0 0-13.419-7.976l-.02-.004a5.988 5.988 0 0 1 4.707-6.99c2.946-.602 6.041 1.024 7.375 2.032zM113.244 82.323a5.987 5.987 0 0 0-1.684-8.257c-2.494-1.68-5.976-1.358-7.593-.935-4.158 1.242-6.26 3.187-7.119 5.241a6.011 6.011 0 0 0-.363 1.182 5.975 5.975 0 0 0 1.29 5.018 23.267 23.267 0 0 1 15.448-2.253l.021.004z" fill="#FFF1A2"/><path d="M75.91 70.49c19.028 4.451 31.578-3.724 38.593-8.519a26.37 26.37 0 0 0-13.61-7.28 26.383 26.383 0 0 0-17.86 2.741 2.237 2.237 0 0 0-.29.13c-.365.193-.732.401-1.105.613-2.642 1.499-5.567 3.158-10.172 1.03a14.94 14.94 0 0 0-.253-.115l-2.293-1.102c-.805-.398-1.536.016-1.663.906-.615 4.272 1.61 8.53 5.576 10.49.564.278 1.144.5 1.732.668.456.184.913.337 1.346.438zM113.223 82.32a23.476 23.476 0 0 0-4.47-.451 2.951 2.951 0 0 1-.151-1.667c.089-.451.073-.9-.032-1.32a2.197 2.197 0 1 0-2.496-3.587 2.953 2.953 0 0 1 .568-2.502c1.586-.02 3.428.27 4.917 1.273a5.988 5.988 0 0 1 1.685 8.257l-.021-.004z" fill="#E27800"/><path d="M95.39 79.338a5.958 5.958 0 0 1-1.452 2.874 2.964 2.964 0 0 1-3.8-2.832c-.003-.513-.13-1.193-.58-2.024a2.197 2.197 0 1 0-2.277-3.625 2.96 2.96 0 0 1 .884-2.507 2.96 2.96 0 0 1 2.631-.774l.13.095c3.369 2.734 4.57 5.335 4.58 7.56a6.01 6.01 0 0 1-.116 1.233z" fill="#E27800"/><path opacity=".25" d="M89.977 88.706a8.999 8.999 0 1 1-17.654-3.5 8.999 8.999 0 0 1 17.654 3.5zM116.355 93.937a8.999 8.999 0 1 1-17.653-3.5 8.999 8.999 0 0 1 17.653 3.5z" fill="#D74040"/><path d="M99.344 90.053l-1.577.875-.11 5.05 1.085.512 1.313-.36.283-1.428-.179-1.411.735-1.393.247-1.246-.733-.388-1.064-.211z" fill="#FFBB31"/><path d="M101.563 90.103a2.175 2.175 0 0 0-2.701-.646.679.679 0 1 0 .558 1.237c.306-.138.531-.11.69-.052a.8.8 0 0 1 .347.248c.215.304.233.53.213.674a.611.611 0 0 1-.152.332l-.022.022-1.176 1.292h-.002v.004l.596 1.643.011.03a.61.61 0 0 1 .014.363c-.036.14-.14.343-.454.542a.8.8 0 0 1-.415.097c-.17-.006-.388-.067-.618-.312a.679.679 0 1 0-.988.93 2.174 2.174 0 0 0 2.743.435l.002-.002c.587-.37.914-.852 1.043-1.347a1.96 1.96 0 0 0-.067-1.211l-.312-.862.618-.677c.231-.237.458-.617.524-1.094.069-.507-.05-1.077-.451-1.644l-.001-.002z" fill="#E27800"/><path fill-rule="evenodd" clip-rule="evenodd" d="M31.302 92.556l1.96-3.873-6.274-3.22-3.234 6.393-.018-.01a3.496 3.496 0 0 1-.152.347c-.846 1.672-2.862 2.345-4.503 1.503-1.641-.843-2.286-2.881-1.44-4.554.846-1.673 2.862-2.346 4.504-1.503.347.178.65.41.903.68l3.661-7.238a.744.744 0 0 1 1.002-.334l8.912 4.575c.366.188.51.641.321 1.013l-4.936 9.758-.018-.01a3.463 3.463 0 0 1-.152.347c-.846 1.672-2.862 2.345-4.503 1.503-1.641-.843-2.286-2.882-1.44-4.554.846-1.673 2.863-2.346 4.504-1.503.308.158.582.359.817.592l.086.088zM45.042 104.768l-2.845-8.455a.882.882 0 0 1 .53-1.115l5.244-1.849a.852.852 0 0 1 1.088.546l.977 2.904a.882.882 0 0 1-.53 1.115l-3.63 1.28 2.652 7.886-.006.002c.027.067.053.135.076.205.656 1.948-.35 4.069-2.244 4.737-1.895.668-3.962-.37-4.617-2.319-.656-1.948.349-4.069 2.244-4.736a3.544 3.544 0 0 1 1.06-.201zM87.546 26.758l-2.375-3.633-5.925 3.822 3.92 5.997-.017.012c.079.096.153.197.223.304 1.025 1.57.6 3.652-.95 4.652-1.55 1-3.638.539-4.663-1.03-1.026-1.57-.6-3.652.95-4.652.327-.211.68-.358 1.04-.442l-4.437-6.79a.744.744 0 0 1 .212-1.035l8.417-5.43a.755.755 0 0 1 1.038.228l5.983 9.154-.017.01c.079.097.154.199.223.305 1.026 1.57.6 3.652-.95 4.652-1.55 1-3.638.539-4.663-1.03-1.026-1.57-.6-3.652.95-4.652.291-.188.602-.324.921-.411l.12-.03zM105.148 33.898l1.764-8.745a.882.882 0 0 1 1.016-.701l5.466 1.021a.852.852 0 0 1 .669 1.017l-.606 3.003a.881.881 0 0 1-1.016.702l-3.784-.708-1.645 8.156-.007-.002c-.01.072-.022.144-.037.216-.406 2.015-2.337 3.35-4.312 2.98-1.974-.369-3.246-2.301-2.84-4.316.407-2.015 2.338-3.35 4.313-2.98.32.06.622.16.901.296l.118.06z" fill="#FFF1A2"/><path d="M51.36 37.89l-13.947 2.993-.473-4.572a7.497 7.497 0 0 1 6.684-8.23l6.043-.626a.937.937 0 0 1 1.029.835l.764 7.372c.08.764.04 1.513-.1 2.229z" fill="#FFB100"/><path d="M35.105 36.502l.496 4.784a3.538 3.538 0 0 1-3.155 3.884l-3.456.358a7.5 7.5 0 0 1-7.66-4.491l14.252.069-.477-4.604zM20.831 30.444a.948.948 0 0 0-.118.02z" fill="#FFF1A2"/><path d="M26.146 39.112l.138 1.335a3.257 3.257 0 1 0 6.48-.671l-.139-1.336-6.48.672z" fill="#F68B00"/><path d="M35.582 41.106l-.477-4.604a7.497 7.497 0 0 0-8.23-6.685l-6.044.627a.937.937 0 0 0-.835 1.028l.764 7.372c.08.776.276 1.512.57 2.193l14.252.069z" fill="#FFB100"/><path d="M30.175 68.015l-5.688-54.882-2.806.291a14.526 14.526 0 0 0-13.01 13.724l-2.164 43.32 23.668-2.453z" fill="#FF9600"/></g><defs><clipPath id="clip0"><path fill="#fff" d="M0 0h135v124H0z"/></clipPath></defs></svg>