<svg viewBox="0 0 136 125" fill="none" xmlns="http://www.w3.org/2000/svg"><g clip-path="url(#clip0_302_3241)"><path d="M107.868 11.927h-79c-9.389 0-17 7.61-17 17v79c0 9.388 7.611 17 17 17h79c9.389 0 17-7.612 17-17v-79c0-9.39-7.611-17-17-17z" fill="#FFCA00"/><path d="M123.308 21.687l-101.52 101.52a16.937 16.937 0 0 0 7.08 1.56h41.32l54.68-54.68v-41.32a16.938 16.938 0 0 0-1.56-7.08zm-72.12 48.14l58-58c-.43 0-.87-.07-1.31-.07h-48.59l-33.08 33.09c-6.904 6.904-6.904 18.096 0 25 6.903 6.904 18.096 6.904 25 0l-.02-.02z" fill="#FFD900"/><path fill-rule="evenodd" clip-rule="evenodd" d="M17.463 25.026a4.5 4.5 0 0 1 3.693 5.183l-.055.329c-.317 1.92-.825 4.985-2.588 8.341-1.895 3.608-5.074 7.284-10.433 10.736a4.5 4.5 0 1 1-4.874-7.567c4.222-2.718 6.255-5.289 7.34-7.354 1.077-2.051 1.382-3.872 1.703-5.79l.031-.185a4.5 4.5 0 0 1 5.183-3.693zM60.986 25.026a4.5 4.5 0 0 0-3.693 5.183l.054.329c.318 1.92.825 4.985 2.589 8.341 1.895 3.608 5.074 7.284 10.433 10.736a4.5 4.5 0 1 0 4.874-7.567c-4.222-2.718-6.255-5.289-7.34-7.354-1.077-2.051-1.382-3.872-1.703-5.79l-.031-.185a4.5 4.5 0 0 0-5.183-3.693z" fill="#FFB100"/><path fill-rule="evenodd" clip-rule="evenodd" d="M23.76 30.91a4.5 4.5 0 0 1 3.693 5.184l-.054.329c-.318 1.92-.825 4.985-2.588 8.341-1.895 3.608-5.075 7.284-10.434 10.736a4.5 4.5 0 1 1-4.873-7.566c4.221-2.72 6.254-5.29 7.339-7.355 1.078-2.051 1.382-3.872 1.704-5.79l.03-.185a4.5 4.5 0 0 1 5.183-3.693zM55.38 31.173a4.5 4.5 0 0 0-3.694 5.183l.055.329c.318 1.92.825 4.985 2.588 8.341 1.895 3.608 5.075 7.284 10.434 10.736a4.5 4.5 0 1 0 4.873-7.566c-4.222-2.72-6.254-5.29-7.34-7.355-1.077-2.051-1.382-3.872-1.703-5.79l-.03-.185a4.5 4.5 0 0 0-5.184-3.693z" fill="#FFB100"/><path d="M12.231 9.364h.002a8.003 8.003 0 0 1 8.001-7.83h37.707a8.003 8.003 0 0 1 8.001 7.83h.002V46.23c0 15.212-8.932 15.212-10.858 15.212H18.79c-.581 0-5.967-6.363-6.559-15.212V9.364z" fill="#FFB100"/><path d="M16.27 10.411h45.635v45.537H16.27V10.41z" fill="#FFBB31"/><path d="M14.095 30.88a5.036 5.036 0 1 0 0-10.072 5.036 5.036 0 0 0 0 10.072zM64.08 30.88a5.036 5.036 0 1 0 0-10.072 5.036 5.036 0 0 0 0 10.072z" fill="#FFBB31"/><path d="M14.032 56.76c0-.765.62-1.385 1.385-1.385h47.341c.765 0 1.385.62 1.385 1.385v4.691c0 .765-.62 1.385-1.385 1.385H15.417c-.765 0-1.385-.62-1.385-1.385V56.76z" fill="#E27903"/><path d="M12.25 21.159a5.036 5.036 0 0 1 6.324 2.373 5.613 5.613 0 0 0 2.001-4.302V8.554h-8.324v12.605zM59.608 23.539a5.036 5.036 0 0 1 6.316-2.385V12.18H57.6v7.051c0 1.73.78 3.277 2.008 4.309z" fill="#FFB100"/><path d="M36.596 56.14a.997.997 0 0 1 .97-.765h3.044c.46 0 .861.316.969.764l2.002 8.327a.997.997 0 0 1-.97 1.23h-7.047a.997.997 0 0 1-.97-1.23l2.002-8.327z" fill="#FFF1A2"/><path d="M39.088 26.265c.12 0 1.182 1.686 2.264 3.455 1.076 1.761-.2 4.005-2.264 4.005-2.064 0-3.341-2.244-2.265-4.005 1.082-1.769 2.144-3.455 2.265-3.455z" fill="#E27903"/><path fill-rule="evenodd" clip-rule="evenodd" d="M25.561 33.335a4.715 4.715 0 0 1 6.549 1.257c.459.676.851 1.138 1.332 1.493.443.327 1.151.703 2.41.88a4.715 4.715 0 1 1-1.305 9.339c-5.823-.814-8.646-4.065-10.242-6.42a4.715 4.715 0 0 1 1.256-6.549z" fill="#E27903"/><path d="M40.24 20.294a6.304 6.304 0 1 1 12.609 0v3.834a6.304 6.304 0 1 1-12.609 0v-3.834z" fill="#FFF1A2"/><path fill-rule="evenodd" clip-rule="evenodd" d="M30.17 14.097a6.564 6.564 0 0 1 4.076.438 6.565 6.565 0 0 1 3.027 2.765 2.708 2.708 0 1 1-4.718 2.66 1.15 1.15 0 0 0-.535-.489 1.15 1.15 0 0 0-.72-.078 2.708 2.708 0 1 1-1.13-5.296z" fill="#3D3D3D"/><path d="M35.797 36.956c-1.224-.179-1.918-.549-2.355-.87-.48-.356-.873-.818-1.332-1.494a4.715 4.715 0 0 0-8.551 1.858c.226.848 1 1.473 1.918 1.473h2.645c.696 0 1.309-.359 1.663-.901.354.542.967.9 1.663.9h2.644c.724 0 1.358-.387 1.705-.966z" fill="#FFF1A2"/><path d="M39.913 41.523a4.715 4.715 0 0 1-5.367 4.78 15.755 15.755 0 0 1-3.826-1.012 8.37 8.37 0 0 1 7.154-4.018c.704 0 1.387.087 2.04.25z" fill="#F68B00"/><path d="M31.703 13.99a6.304 6.304 0 0 0-6.304 6.304v3.834c0 1.337.416 2.577 1.126 3.597 2.598-.334 5.063.075 7.947 2.069a6.305 6.305 0 0 0 3.536-5.666v-3.834a6.304 6.304 0 0 0-6.305-6.305z" fill="#FFF1A2"/><path d="M38.008 24.16a2.708 2.708 0 0 0-5.405-.163c-.02.238-.113.47-.286.665-.172.197-.39.318-.623.37a2.709 2.709 0 0 0-2.128 2.696c1.56.23 3.15.855 4.895 2.058a6.287 6.287 0 0 0 3.268-3.82 6.307 6.307 0 0 0 .279-1.807zM52.848 24.165a6.306 6.306 0 0 1-5.55 6.214 2.708 2.708 0 0 1-.764-5.348c.234-.05.451-.172.624-.368.172-.197.265-.427.286-.666a2.708 2.708 0 0 1 5.404.168z" fill="#E27903"/><path d="M16.27 17.925a3.935 3.935 0 0 1 3.936-3.936h.128a3.935 3.935 0 0 1 3.936 3.936v8.466a3.935 3.935 0 0 1-3.936 3.935h-.128a3.935 3.935 0 0 1-3.935-3.935v-8.466z" fill="#FFB100"/><path d="M9.973 12.621c0-.765.63-1.385 1.406-1.385h54.749c.776 0 1.406.62 1.406 1.385v3.82c0 .766-.63 1.386-1.406 1.386H11.379c-.776 0-1.406-.62-1.406-1.385V12.62z" fill="#E27903"/><path d="M38.008 8.192a3.935 3.935 0 0 1 3.935-3.936h.129a3.935 3.935 0 0 1 3.935 3.936v8.466a3.935 3.935 0 0 1-3.935 3.935h-.129a3.935 3.935 0 0 1-3.935-3.935V8.192z" fill="#FFB100"/><path d="M46.007 9.53a3.935 3.935 0 0 1 3.935-3.935h.129a3.935 3.935 0 0 1 3.935 3.936v3.954a3.935 3.935 0 0 1-3.935 3.936h-.129a3.935 3.935 0 0 1-3.935-3.936V9.531z" fill="#FFB100"/><path d="M54.006 10.058a3.935 3.935 0 0 1 3.935-3.935h.128a3.935 3.935 0 0 1 3.936 3.935v15.478a3.935 3.935 0 0 1-3.936 3.936h-.128a3.935 3.935 0 0 1-3.935-3.936V10.058z" fill="#FFB100"/><path d="M64.112 45.904c.006-1.382 2.388-6.457 2.772-6.455.383.002 2.716 5.1 2.709 6.48-.007 1.382-1.24 2.496-2.753 2.489-1.514-.007-2.735-1.133-2.728-2.514z" fill="#FFF1A2"/><path d="M18.832 9.254h21.083v1.982H18.833V9.254z" fill="#FFB100"/><path d="M18.046 12.888c.007-1.381 2.388-6.457 2.772-6.455.384.002 2.716 5.1 2.71 6.48-.008 1.382-1.24 2.496-2.754 2.489-1.513-.007-2.735-1.133-2.728-2.514z" fill="#FFF1A2"/><path d="M46.007 37.604h5.304v7.332a2.652 2.652 0 0 1-5.304 0v-7.332z" fill="url(#paint0_linear_302_3241)"/><path d="M18.892 38.294h4.436v8.133a2.218 2.218 0 0 1-4.436 0v-8.133z" fill="url(#paint1_linear_302_3241)"/><path d="M51.31 39.391h6.695v9.255a3.347 3.347 0 0 1-6.694 0V39.39z" fill="url(#paint2_linear_302_3241)"/><path d="M89.477 63.087l-15.736 9.085a1.87 1.87 0 0 0-.684 2.555c3.025 5.24 9.725 7.035 14.965 4.01 5.24-3.025 7.036-9.725 4.01-14.965a1.87 1.87 0 0 0-2.555-.685zM117.579 63.087l15.736 9.085a1.87 1.87 0 0 1 .684 2.555c-3.025 5.24-9.725 7.035-14.965 4.01-5.24-3.025-7.036-9.725-4.01-14.965a1.87 1.87 0 0 1 2.555-.685z" fill="#E27903"/><path fill-rule="evenodd" clip-rule="evenodd" d="M98.934 69.072h8.74c11.265 0 20.397 9.132 20.397 20.397v25.633c0 .886-.718 1.604-1.604 1.604H80.141a1.604 1.604 0 0 1-1.604-1.604V89.469c0-11.265 9.132-20.397 20.397-20.397z" fill="#FFB100"/><path fill-rule="evenodd" clip-rule="evenodd" d="M128.071 89.469v8.013h-9.448c-8.465 0-15.328-6.862-15.328-15.327 0-5.42 2.814-10.183 7.06-12.908 9.998 1.312 17.716 9.866 17.716 20.222z" fill="#F79B24"/><path fill-rule="evenodd" clip-rule="evenodd" d="M112.902 73.442a8.264 8.264 0 0 1 8.263 8.1l.002.262a8.265 8.265 0 0 1-16.53 0v-.097a8.265 8.265 0 0 1 8.265-8.265zM93.332 73.442a8.265 8.265 0 0 1 8.263 8.1l.001.262a8.264 8.264 0 1 1-16.53 0v-.097c0-4.564 3.701-8.265 8.266-8.265z" fill="#FFF1A2"/><path fill-rule="evenodd" clip-rule="evenodd" d="M110.54 74.95a4.416 4.416 0 0 1 4.416 4.416v.71a4.416 4.416 0 1 1-8.833 0v-.71c0-.348.041-.687.117-1.013a2.078 2.078 0 0 0 2.744-3.122 4.404 4.404 0 0 1 1.556-.281zM91.707 74.95a4.416 4.416 0 0 1 4.416 4.416v.71a4.416 4.416 0 0 1-8.832 0v-.71c0-.37.045-.728.13-1.071a2.078 2.078 0 1 0 2.786-3.084c.468-.169.974-.261 1.5-.261z" fill="#E27903"/><path fill-rule="evenodd" clip-rule="evenodd" d="M100.189 92.806h5.726v4.136a2.863 2.863 0 0 1-5.726 0v-4.136z" fill="#F79B24"/><path fill-rule="evenodd" clip-rule="evenodd" d="M103.107 92.497a.78.78 0 0 1 .779.78v3.637a.78.78 0 1 1-1.559 0v-3.637c0-.43.349-.78.78-.78z" fill="#E27903"/><path fill-rule="evenodd" clip-rule="evenodd" d="M108.461 88.396l.251-.113a30.873 30.873 0 0 1 12.327-2.748l.412-.003v5.226l-.269.11-.524.211-.508.197-.49.183-.474.168-.456.155c-1.569.516-2.827.774-3.774.774-.947 0-2.205-.258-3.774-.774l-.456-.155-.474-.168-.49-.183-.508-.197-.524-.21-.269-.111v-2.362z" fill="#F79B24"/><path fill-rule="evenodd" clip-rule="evenodd" d="M98.202 88.426l-.25-.113a30.876 30.876 0 0 0-12.328-2.748l-.412-.003v5.226c1.686 1.178 3.691 1.768 6.016 1.768 2.324 0 4.649-.59 6.974-1.768v-2.362z" fill="#FFB100"/><path fill-rule="evenodd" clip-rule="evenodd" d="M109.184 89.175a4.416 4.416 0 0 1-4.416 4.416h-3.103a4.416 4.416 0 0 1 0-8.833h3.103a4.416 4.416 0 0 1 4.416 4.417z" fill="#F68B00"/><path fill-rule="evenodd" clip-rule="evenodd" d="M102.135 84.493h2.165a2.598 2.598 0 0 1 0 5.196h-2.165a2.598 2.598 0 1 1 0-5.196z" fill="#E27903"/><path fill-rule="evenodd" clip-rule="evenodd" d="M101.355 21.751c.687 0 1.244.533 1.244 1.19v32.901c0 1.09.922 1.972 2.059 1.972 1.138 0 2.06-.883 2.06-1.972 0-.657.557-1.19 1.244-1.19.686 0 1.243.533 1.243 1.19 0 2.404-2.035 4.352-4.547 4.352-2.511 0-4.546-1.949-4.546-4.352V22.941c0-.657.557-1.19 1.243-1.19z" fill="#FFF1A2"/><path fill-rule="evenodd" clip-rule="evenodd" d="M101.386 52.16c.91 0 1.648.738 1.648 1.649v2.017a1.64 1.64 0 0 0 1.636 1.645 1.64 1.64 0 0 0 1.635-1.645 1.648 1.648 0 0 1 3.297 0 4.937 4.937 0 0 1-4.932 4.941 4.937 4.937 0 0 1-4.932-4.941v-2.017c0-.91.738-1.649 1.648-1.649z" fill="#F68B00"/><path d="M102.616 51.298h-2.46a.412.412 0 0 0-.412.412v2.057c0 .228.185.412.412.412h2.46a.412.412 0 0 0 .412-.412V51.71a.412.412 0 0 0-.412-.412zM120.259 42.35l.006.01v2.377c-3.872-2.79-7.955-2.79-12.25 0-4.295-2.79-8.379-2.79-12.25 0-3.805-2.79-7.889-2.79-12.25 0 .038-.989-.04-1.908 0-2.774l.011-.108c.374-9.848 8.452-17.716 18.363-17.716 10.077 0 18.259 8.134 18.375 18.212h-.005zm-24.5 0l.006.01.006-.01h-.012z" fill="#F68B00"/><path d="M120.259 42.35l.006.01v2.377c-3.872-2.79-7.955-2.79-12.25 0-4.295-2.79-8.379-2.79-12.25 0-3.805-2.79-7.889-2.79-12.25 0 .038-.989-.04-1.908 0-2.774l.011-.108c.374-9.848 8.452-17.716 18.363-17.716 10.077 0 18.259 8.134 18.375 18.212h-.005zm-24.5 0l.006.01.006-.01h-.012z" fill="#F68B00"/><path d="M108.224 44.604c4.218-2.657 8.232-2.613 12.041.133V42.36l-.006-.008h.005c-.116-10.078-8.299-18.212-18.375-18.212h-.149l.15.09c5.116 3.026 7.227 9.817 6.334 20.375z" fill="#FFB100"/><path fill-rule="evenodd" clip-rule="evenodd" d="M58.793 104.499c1.443 2.091 2.164 3.57 2.164 4.438a2.566 2.566 0 0 1-5.133 0c0-.868.722-2.347 2.164-4.438a.488.488 0 0 1 .805 0zM33.375 100.833c1.443 2.091 2.164 3.57 2.164 4.438a2.566 2.566 0 0 1-5.132 0c0-.868.721-2.347 2.164-4.438a.488.488 0 0 1 .804 0zM43.885 109.143c1.442 2.091 2.163 3.57 2.163 4.437a2.566 2.566 0 1 1-5.132 0c0-.867.721-2.346 2.164-4.437a.49.49 0 0 1 .805 0zM49.017 96.923c1.443 2.09 2.164 3.57 2.164 4.437a2.566 2.566 0 1 1-5.132 0c0-.867.72-2.346 2.163-4.437a.489.489 0 0 1 .805 0z" fill="#FFF1A2"/><path d="M31.494 90.045a11.876 11.876 0 0 1-.758-4.189c0-6.574 5.33-11.904 11.905-11.904 4.536 0 8.48 2.538 10.49 6.271a8.623 8.623 0 0 1 12.1 9.821h1.88a4.054 4.054 0 1 1 0 8.108H25.027a4.054 4.054 0 1 1 0-8.107h6.466z" fill="#E27903"/></g><defs><linearGradient id="paint0_linear_302_3241" x1="54.658" y1="39.391" x2="54.658" y2="51.993" gradientUnits="userSpaceOnUse"><stop stop-color="#FFBB31"/><stop offset=".536" stop-color="#FFF1A2"/></linearGradient><linearGradient id="paint1_linear_302_3241" x1="54.658" y1="39.391" x2="54.658" y2="51.993" gradientUnits="userSpaceOnUse"><stop stop-color="#FFBB31"/><stop offset=".536" stop-color="#FFF1A2"/></linearGradient><linearGradient id="paint2_linear_302_3241" x1="54.658" y1="39.391" x2="54.658" y2="51.993" gradientUnits="userSpaceOnUse"><stop stop-color="#FFBB31"/><stop offset=".536" stop-color="#FFF1A2"/></linearGradient><clipPath id="clip0_302_3241"><path fill="#fff" transform="translate(.868 .927)" d="M0 0h135v124H0z"/></clipPath></defs></svg>