<svg viewBox="0 0 135 124" version="1.1" xmlns="http://www.w3.org/2000/svg" xmlns:xlink="http://www.w3.org/1999/xlink"><defs><path d="M10.11 0h26.745c5.583 0 10.11 4.526 10.11 10.11v43.764H0V10.11C0 4.526 4.526 0 10.11 0z" id="a"/><path d="M6.034 0a6.034 6.034 0 0 1 6.033 6.034v3.67A6.034 6.034 0 0 1 0 9.704v-3.67A6.034 6.034 0 0 1 6.034 0z" id="c"/><path d="M6.034 0a6.034 6.034 0 0 1 6.033 6.034v3.67A6.034 6.034 0 0 1 0 9.704v-3.67A6.034 6.034 0 0 1 6.034 0z" id="e"/><path d="M2.104 1.262a5.67 5.67 0 0 1 7.974.842c3.684 4.553 8.14 5.685 14.647 3.491a5.67 5.67 0 1 1 3.622 10.746C17.484 20.003 8.03 17.602 1.262 9.236a5.67 5.67 0 0 1 .842-7.974z" id="g"/><rect id="i" x="0" y="0" width="4.661" height="66.874" rx="1.498"/><path d="M0 0h45.144l-7.682 52.122a15.051 15.051 0 0 1-29.78 0L0 0z" id="k"/></defs><g stroke="none" stroke-width="1" fill="none" fill-rule="evenodd"><path d="M28 11h79c9.389 0 17 7.611 17 17v79c0 9.389-7.611 17-17 17H28c-9.389 0-17-7.611-17-17V28c0-9.389 7.611-17 17-17z" fill="#2B70C9"/><path d="M113.495 99.3l7.641 10.516a11.99 11.99 0 0 1 1.71 3.353C120.376 119.508 114.213 124 107 124H88.179l-3-4.128c-3.895-5.362-2.707-12.866 2.655-16.762l8.9-6.466c5.36-3.895 12.865-2.706 16.76 2.655z" fill="#FF4B4B"/><path d="M80.054 95.415c.426.683.775 1.41 1.04 2.17l8.822 25.242c.135.388.247.78.337 1.173H28c-.69 0-1.37-.041-2.038-.12a10.847 10.847 0 0 1 5.01-10.584l34.135-21.331c5.08-3.175 11.772-1.63 14.947 3.45z" fill="#FF4B4B"/><path fill="#EBE3E3" d="M50.679 103.466l2.954-.521 4.688 26.59-2.954.52z"/><g transform="rotate(34 -30.084 223.761)"><rect fill="#EBE3E3" x="6" y="11" width="3" height="24" rx="1.5"/><rect fill="#EBE3E3" x="0" y="0" width="14" height="17" rx="7"/><rect fill="#CFC1C1" x="2" y="2" width="9" height="13" rx="4.5"/></g><rect fill="#FFC6B7" x="96" y="83" width="20" height="20" rx="10"/><rect fill="#FFC6B7" x="101" y="80" width="8" height="8" rx="4"/><g transform="rotate(-31 87.785 56.803)"><path d="M72.447 64.14H-.465a11.04 11.04 0 0 0 3.227 8.403 11.035 11.035 0 0 0 7.828 3.242h50.803c3.056 0 5.824-1.239 7.827-3.242a11.04 11.04 0 0 0 3.227-8.403z" stroke="#FFB100" stroke-width="1.152" fill="#FFB100" stroke-linejoin="round"/><path d="M19.291 14.68h33.784c5.936 0 10.749 4.813 10.749 10.75v40.054H8.542V25.43c0-5.937 4.813-10.75 10.75-10.75z" fill="#FFB100"/><g transform="translate(12.253 22.103)"><mask id="b" fill="#fff"><use xlink:href="#a"/></mask><use fill="#FFC6B7" xlink:href="#a"/><g mask="url(#b)"><g><g transform="translate(10.977 6.595)"><mask id="d" fill="#fff"><use xlink:href="#c"/></mask><use fill="#FFF" xlink:href="#c"/><path d="M7.07 3.583a4.599 4.599 0 0 1 4.598 4.599v2.142a4.599 4.599 0 0 1-9.197 0V8.182A4.599 4.599 0 0 1 7.07 3.583z" fill="#3D3D3D" mask="url(#d)"/><circle fill="#FFF" mask="url(#d)" cx="5.574" cy="4.944" r="2.928"/><circle fill="#FFF" mask="url(#d)" cx="10.551" cy="11.055" r="1.983"/></g></g></g><g mask="url(#b)"><g transform="matrix(-1 0 0 1 37.248 6.595)"><mask id="f" fill="#fff"><use xlink:href="#e"/></mask><use stroke="none" fill="#FFF" fill-rule="evenodd" xlink:href="#e"/><path d="M7.064 3.583a4.599 4.599 0 0 1 4.598 4.599v2.142a4.599 4.599 0 0 1-9.197 0V8.182a4.599 4.599 0 0 1 4.599-4.599z" stroke="none" fill="#3D3D3D" fill-rule="evenodd" mask="url(#f)"/><circle stroke="none" fill="#FFF" fill-rule="evenodd" mask="url(#f)" cx="8.472" cy="4.944" r="2.928"/><circle stroke="none" fill="#FFF" fill-rule="evenodd" mask="url(#f)" cx="3.495" cy="10.047" r="1.983"/></g></g><rect fill="#FFC6B7" mask="url(#b)" x="20.412" y="16.506" width="26.46" height="26.46" rx="12.915"/><rect fill="#FFC6B7" mask="url(#b)" x="1.512" y="16.506" width="26.46" height="26.46" rx="12.915"/><g mask="url(#b)"><g transform="translate(4.379 18.721)"><mask id="h" fill="#fff"><use xlink:href="#g"/></mask><use stroke="none" fill="#702323" fill-rule="nonzero" xlink:href="#g"/><rect stroke="none" fill="#FFF" fill-rule="evenodd" mask="url(#h)" x="2.268" y="-7.103" width="6.398" height="12.222" rx="2.303"/><rect stroke="none" fill="#FFF" fill-rule="evenodd" mask="url(#h)" x="8.064" y="-7.103" width="6.398" height="12.222" rx="2.303"/><rect stroke="none" fill="#FFF" fill-rule="evenodd" mask="url(#h)" x="-3.528" y="-7.103" width="6.398" height="12.222" rx="2.303"/></g></g><path d="M16.748 38.852a5.796 5.796 0 0 1-11.592 0v-8.316a3.276 3.276 0 0 1 6.424-.91 3.276 3.276 0 0 1 5.168 2.674v6.552z" fill="#E64340" mask="url(#b)" transform="scale(-1 1) rotate(-48 0 60.553)"/><path d="M22.019 40.879c3 .81 6.203-.049 8.396-2.25" stroke="#F3A577" stroke-width="1.512" opacity=".416" stroke-linecap="round" mask="url(#b)"/><path d="M24.07 23.073a2.687 2.687 0 0 0 2.687-2.686c0-1.483-2.687-4.992-2.687-4.992s-2.688 3.509-2.688 4.992a2.687 2.687 0 0 0 2.688 2.686z" fill="#F3A577" mask="url(#b)"/><rect fill="#FFB100" mask="url(#b)" x="-5.759" y="-3.026" width="10.621" height="23.058" rx="5.311"/><rect fill="#FFB100" mask="url(#b)" x="42.613" y="-3.026" width="10.621" height="23.058" rx="5.311"/></g><circle fill="#FFC6B7" cx="10.142" cy="43.478" r="5.183"/><circle fill="#FFC6B7" cx="61.713" cy="43.478" r="5.183"/><rect fill="#FF4B4B" x="7.006" y="19.8" width="58.343" height="6.782" rx="1.664"/><rect fill="#FFB100" x="24.666" y="0" width="23.034" height="23.034" rx="11.517"/><path d="M24.1 3.04L35.11 15.036a1.274 1.274 0 0 1-.425 2.014c-3.784 1.687-8.298.737-11.144-2.432-2.847-3.17-3.318-7.769-1.248-11.364.43-.749 1.231-.857 1.809-.214z" fill="#FFB100" fill-rule="nonzero"/><rect fill="#FF4B4B" x="10.078" y="70.091" width="51.571" height="7.678" rx="1.408"/><path d="M34.914 68.586l2.952 1.016c.447.154.73.595.685 1.066l-.837 8.779a1.024 1.024 0 0 1-1.353.87l-6.859-2.361a1.024 1.024 0 0 1-.53-1.519l4.745-7.434a1.024 1.024 0 0 1 1.197-.417z" fill="#EBE3E3"/><path d="M8.542 59.891c0 1.016-.014 3.685-2.943 3.685 1.267 1.24 1.967 1.781 2.099 1.626l1.368-.724.372-3.072c-.597-1.686-.896-2.191-.896-1.515zM63.824 59.891c0 1.016.015 3.685 2.943 3.685-1.267 1.24-1.967 1.781-2.099 1.626l-1.368-.724-.372-3.072c.597-1.686.896-2.191.896-1.515z" fill="#FFB100"/></g><g transform="translate(50)"><g><g fill="#FED5D5" fill-rule="nonzero" transform="rotate(21 28.25 161.782)"><rect x="0" y="0" width="4.661" height="66.874" rx="1.498"/></g><g><g transform="rotate(21 28.25 161.782)"><mask id="j" fill="#fff"><use xlink:href="#i"/></mask><path d="M6.87 60.565l.833 1.442a1.498 1.498 0 0 1-.549 2.046l-7.356 4.248a1.498 1.498 0 0 1-2.047-.549l-.832-1.442a1.498 1.498 0 0 1 .548-2.046l7.357-4.247a1.498 1.498 0 0 1 2.046.548zm0-9.576l.833 1.442a1.498 1.498 0 0 1-.549 2.047l-7.356 4.247a1.498 1.498 0 0 1-2.047-.548l-.832-1.442a1.498 1.498 0 0 1 .548-2.047l7.357-4.247a1.498 1.498 0 0 1 2.046.548zm0-9.576l.833 1.442a1.498 1.498 0 0 1-.549 2.047l-7.356 4.247a1.498 1.498 0 0 1-2.047-.548l-.832-1.442a1.498 1.498 0 0 1 .548-2.047l7.357-4.247a1.498 1.498 0 0 1 2.046.548zm0-10.43l.833 1.442a1.498 1.498 0 0 1-.549 2.046L-.202 38.72a1.498 1.498 0 0 1-2.047-.549l-.832-1.442a1.498 1.498 0 0 1 .548-2.046l7.357-4.248a1.498 1.498 0 0 1 2.046.549zm0-9.576l.833 1.442a1.498 1.498 0 0 1-.549 2.046l-7.356 4.248a1.498 1.498 0 0 1-2.047-.549l-.832-1.442a1.498 1.498 0 0 1 .548-2.046l7.357-4.247a1.498 1.498 0 0 1 2.046.548zm0-9.576l.833 1.442a1.498 1.498 0 0 1-.549 2.047l-7.356 4.247a1.498 1.498 0 0 1-2.047-.548l-.832-1.442a1.498 1.498 0 0 1 .548-2.047l7.357-4.247a1.498 1.498 0 0 1 2.046.548zm0-9.576l.833 1.442a1.498 1.498 0 0 1-.549 2.047L-.202 9.99a1.498 1.498 0 0 1-2.047-.548L-3.08 8a1.498 1.498 0 0 1 .548-2.047l7.357-4.247a1.498 1.498 0 0 1 2.046.548z" fill="#FC4848" fill-rule="nonzero" mask="url(#j)"/></g></g></g><g transform="translate(12.744 21.06)" fill-rule="nonzero"><path d="M-1.272 2.627A2.14 2.14 0 0 1 .201-.017c4.365-1.24 7.926 1.511 10.532 7.364a2.14 2.14 0 1 1-3.91 1.741c-1.8-4.04-3.525-5.44-5.313-5.023l-.138.036a2.14 2.14 0 0 1-2.644-1.474z" fill="#BF1C24"/><rect fill="#FC4848" x="3.408" y="4.812" width="12.996" height="12.996" rx="6.498"/></g><rect fill="#D7FEB9" x="5.744" y="34.06" width="51" height="13" rx="6.5"/><rect fill="#D7FEB9" x="26.744" y="17.06" width="23" height="23" rx="11.5"/><rect fill="#D7FEB9" x="21" y="4" width="13" height="13" rx="6.5"/><path d="M57.798 39.02a3.762 3.762 0 0 1 3.762 3.762V57.83a3.762 3.762 0 0 1-3.762 3.762l-2.544-.001-5.804 41.88a18.835 18.835 0 0 1-8.888 13.525H20.998a18.834 18.834 0 0 1-8.888-13.525L6.305 61.59H3.762A3.762 3.762 0 0 1 0 57.83V42.782a3.762 3.762 0 0 1 3.762-3.762h54.036z" fill="#B5F1FF" fill-rule="nonzero"/><g><g transform="translate(8.208 45.86)"><mask id="l" fill="#fff"><use xlink:href="#k"/></mask><use fill="#89E219" xlink:href="#k"/><path d="M24.282-23.256a4.446 4.446 0 0 1 4.446 4.446v7.865h4.787v-1.025a4.446 4.446 0 1 1 8.893 0v1.025l4.435.001a8.561 8.561 0 0 1 8.56 8.561v17.078a8.561 8.561 0 0 1-8.56 8.56h-4.436v17.443a4.446 4.446 0 0 1-8.891 0V23.255h-4.789v10.603a4.446 4.446 0 1 1-8.891 0V23.255H12.31v9.235c0 6.233-5.052 11.286-11.285 11.286-6.233 0-11.286-5.053-11.286-11.286V-2.383a8.561 8.561 0 0 1 8.561-8.56l21.534-.002v-7.865a4.446 4.446 0 0 1 4.447-4.446z" fill="#58A700" fill-rule="nonzero" mask="url(#l)"/><path d="M31.122 19.152a2.394 2.394 0 0 1 2.394 2.394v22.572a2.394 2.394 0 0 1-4.788 0V21.546a2.394 2.394 0 0 1 2.394-2.394zm-15.048-4.788a3.762 3.762 0 0 1 3.762 3.762v19.836a3.762 3.762 0 0 1-7.524 0V18.126a3.762 3.762 0 0 1 3.762-3.762z" fill="#89E219" fill-rule="nonzero" mask="url(#l)"/></g></g><rect fill="#B5F1FF" x="12" y="116" width="38" height="8" rx="4"/></g></g></svg>