<svg viewBox="0 0 135 124" fill="none" xmlns="http://www.w3.org/2000/svg"><path d="M107 11H28c-9.389 0-17 7.611-17 17v79c0 9.389 7.611 17 17 17h79c9.389 0 17-7.611 17-17V28c0-9.389-7.611-17-17-17z" fill="#B2B2B2"/><path d="M68.656 119.252L19.46 103.437a1.638 1.638 0 0 1-1.056-2.055l6.25-19.439a1.638 1.638 0 0 1 2.055-1.055l49.195 15.815c.855.275 1.33 1.2 1.055 2.055l-6.25 19.439a1.639 1.639 0 0 1-2.054 1.055z" fill="#EAEAE9"/><path d="M40.85 85.434l-14.14-4.546c-.856-.275-1.78.2-2.056 1.055l-6.248 19.439c-.275.855.2 1.78 1.055 2.055l14.14 4.546 7.249-22.55z" fill="#979797"/><path d="M57.857 103.571l-16.955-5.45a.218.218 0 0 1-.14-.274l.25-.782a.218.218 0 0 1 .274-.14l16.955 5.45a.218.218 0 0 1 .141.274l-.251.782a.218.218 0 0 1-.274.14zM56.763 106.975l-16.955-5.451a.218.218 0 0 1-.14-.274l.25-.781a.217.217 0 0 1 .275-.141l16.955 5.45c.114.037.177.16.14.274l-.251.782a.217.217 0 0 1-.274.141zM55.669 110.378l-16.955-5.45a.218.218 0 0 1-.141-.274l.251-.782a.217.217 0 0 1 .274-.141l16.955 5.451a.218.218 0 0 1 .14.274l-.25.781a.218.218 0 0 1-.274.141z" fill="#D1D1D1"/><path d="M67.062 114.041l-8.087-2.6a.653.653 0 0 1-.422-.822l2.173-6.759a.652.652 0 0 1 .822-.422l8.087 2.6c.344.11.533.478.422.822l-2.173 6.759a.654.654 0 0 1-.822.422z" fill="#979797"/><path d="M70.407 103.703l-27.953-8.987a.653.653 0 0 1-.422-.822l.866-2.694a.653.653 0 0 1 .822-.422l27.953 8.986c.344.11.532.478.422.822l-.866 2.694a.654.654 0 0 1-.822.423z" fill="#D1D1D1"/><path d="M25.521 88.652a5.267 5.267 0 0 1 6.627-3.403l.187.06a5.267 5.267 0 0 1 3.402 6.627l-1.477 4.597a1.756 1.756 0 0 1-2.21 1.134l-6.873-2.21a1.756 1.756 0 0 1-1.134-2.208l1.478-4.597z" fill="#EAEAE9"/><path fill-rule="evenodd" clip-rule="evenodd" d="M25.497 96.981a.8.8 0 0 0-.893.292l-2.683 3.701a.8.8 0 0 0 1.295.939l.423-.584 6.24 2.007.004.72a.8.8 0 0 0 1.6-.008l-.024-4.571a.8.8 0 0 0-1.6.008v.213l-4.085-1.313.125-.173a.8.8 0 0 0-.402-1.23zm4.376 5.09l-.006-1.108-4.835-1.555-.65.897 5.49 1.766z" fill="#EAEAE9"/><path d="M27.658 88.36a.878.878 0 0 1 1.105-.567l4.84 1.556a.878.878 0 0 1 .566 1.104l-.47 1.463a.878.878 0 0 1-1.104.567l-4.84-1.556a.878.878 0 0 1-.567-1.105l.47-1.462zM28.578 93.63a1.244 1.244 0 1 1-2.37-.761 1.244 1.244 0 0 1 2.37.761zM31.154 95.766a1.244 1.244 0 1 0 .762-2.37 1.244 1.244 0 0 0-.762 2.37z" fill="#979797"/><path d="M94.208 110.492l-50.771-9.619a1.638 1.638 0 0 1-1.301-1.91l3.8-20.06a1.638 1.638 0 0 1 1.91-1.302l50.771 9.62a1.639 1.639 0 0 1 1.301 1.908l-3.8 20.062a1.64 1.64 0 0 1-1.91 1.301z" fill="#EAEAE9"/><path d="M62.44 80.366l-14.594-2.765a1.638 1.638 0 0 0-1.91 1.301l-3.8 20.062a1.64 1.64 0 0 0 1.3 1.909l14.594 2.764 4.41-23.27z" fill="#979797"/><path d="M81.556 96.264L64.057 92.95a.218.218 0 0 1-.173-.254l.153-.807a.218.218 0 0 1 .254-.173L81.79 95.03a.218.218 0 0 1 .173.254l-.153.807a.218.218 0 0 1-.254.174zM80.89 99.777l-17.498-3.315a.218.218 0 0 1-.174-.255l.153-.806a.218.218 0 0 1 .255-.174l17.498 3.315a.218.218 0 0 1 .173.255l-.152.807a.218.218 0 0 1-.255.173zM80.224 103.29l-17.498-3.316a.218.218 0 0 1-.173-.254l.153-.807a.218.218 0 0 1 .254-.173l17.498 3.315a.217.217 0 0 1 .174.254l-.153.807a.219.219 0 0 1-.255.174z" fill="#D1D1D1"/><path d="M91.983 105.517l-8.346-1.581a.653.653 0 0 1-.52-.764l1.322-6.975a.653.653 0 0 1 .763-.52l8.346 1.58a.653.653 0 0 1 .52.764l-1.321 6.976a.654.654 0 0 1-.764.52z" fill="#979797"/><path d="M94.026 94.845l-28.849-5.466a.653.653 0 0 1-.52-.763l.527-2.78a.653.653 0 0 1 .763-.521l28.849 5.465a.653.653 0 0 1 .52.764l-.527 2.78a.653.653 0 0 1-.763.52z" fill="#D1D1D1"/><path d="M47.625 85.452a5.267 5.267 0 0 1 6.155-4.194l.194.037a5.267 5.267 0 0 1 4.195 6.155l-.9 4.745a1.756 1.756 0 0 1-2.051 1.398l-7.094-1.344a1.756 1.756 0 0 1-1.398-2.052l.899-4.745z" fill="#EAEAE9"/><path fill-rule="evenodd" clip-rule="evenodd" d="M48.629 93.721a.8.8 0 0 0-.85.4l-2.206 4.004a.8.8 0 1 0 1.401.772l.348-.632 6.441 1.22.093.716a.8.8 0 1 0 1.587-.206l-.59-4.534a.8.8 0 0 0-1.586.206l.027.211-4.216-.799.102-.186a.8.8 0 0 0-.551-1.172zm4.971 4.51l-.143-1.099-4.99-.945-.535.97 5.668 1.075z" fill="#EAEAE9"/><path d="M49.71 84.899a.878.878 0 0 1 1.026-.7l4.994.947c.477.09.79.55.7 1.026l-.286 1.51a.878.878 0 0 1-1.026.698l-4.995-.946a.878.878 0 0 1-.7-1.026l.287-1.51zM51.273 90.015a1.245 1.245 0 1 1-2.445-.463 1.245 1.245 0 0 1 2.445.463zM54.094 91.816a1.244 1.244 0 1 0 .463-2.445 1.244 1.244 0 0 0-.463 2.445zM40.434 24.101c1.483-13.048 13.264-22.424 26.312-20.94l13.679 1.554c13.048 1.483 22.424 13.264 20.941 26.313l-.061.536c-1.484 13.048-13.264 22.424-26.313 20.94L61.314 50.95C48.265 49.467 38.89 37.686 40.373 24.638l.06-.537z" fill="#979797"/><path d="M37.512 54.382a7.116 7.116 0 0 0 2.43-.14c.397 11.05 8.824 20.447 20.144 21.733l35.28 4.01c11.358 1.292 21.71-6.026 24.536-16.763a7.13 7.13 0 1 0 1.115-13.011c-1.205-10.242-9.315-18.688-20.003-19.902l-35.281-4.011c-10.646-1.21-20.408 5.144-23.917 14.788a7.129 7.129 0 1 0-4.304 13.296z" fill="#D8D8D8"/><path d="M120.188 46.263l-11.892-1.352a8.454 8.454 0 0 1-7.445-9.355l.59-5.195c9.076 1.203 16.225 7.635 18.747 15.902z" fill="#BFBFBF"/><path d="M41.635 55.369a3.436 3.436 0 1 1-6.827-.776 3.436 3.436 0 0 1 6.827.776z" fill="#979797"/><path d="M83.266 43.755a7.926 7.926 0 0 1 8.77-6.98l.294.033a7.926 7.926 0 0 1 6.98 8.77l-.596 5.243a7.926 7.926 0 0 1-8.77 6.98l-.294-.033a7.926 7.926 0 0 1-6.98-8.77l.596-5.243zM64.263 41.595a7.926 7.926 0 0 1 8.77-6.98l.294.033a7.926 7.926 0 0 1 6.98 8.77l-.596 5.243a7.926 7.926 0 0 1-8.77 6.98l-.294-.033a7.926 7.926 0 0 1-6.98-8.77l.596-5.243z" fill="#fff"/><path d="M40.242 25.793c1.097-9.647 9.806-16.578 19.452-15.481L61 10.46c9.646 1.096 16.578 9.805 15.481 19.452l-.148 1.306c-1.097 9.646-9.806 16.577-19.453 15.481l-1.305-.148c-9.647-1.097-16.578-9.806-15.481-19.453l.148-1.305z" fill="#979797"/><path d="M71.37 44.078a2.835 2.835 0 0 0 3.086-3.44 3.636 3.636 0 0 1 3.008 3.996l-.402 3.536a3.636 3.636 0 1 1-7.226-.822l.401-3.535.014-.109c.333.196.71.327 1.119.373zM85.749 45.712a2.834 2.834 0 0 0 3.096-3.322A3.641 3.641 0 0 1 92.99 46.4l-.402 3.536a3.636 3.636 0 0 1-7.226-.822l.387-3.401z" fill="#979797"/><path fill-rule="evenodd" clip-rule="evenodd" d="M98.48 34.7zm-9.364-2.867l.001.001zm4.771.264l.493.15a18.418 18.418 0 0 1 4.54 2.086c1.053.675.334 1.911-.863 1.544l-9.248-2.831c-1.197-.367-1.102-1.794.15-1.763 1.596.04 3.26.303 4.928.814z" fill="#979797"/><path d="M100.407 62.549c-.383 3.373-5.09 5.607-10.514 4.99-5.423-.616-9.51-3.85-9.126-7.223.383-3.372 5.09-5.607 10.514-4.99 5.424.616 9.51 3.85 9.126 7.223z" fill="#D8D8D8"/><path d="M80.953 51.461c.16.019 1.317 2.42 2.487 4.934 1.164 2.503-.872 5.292-3.614 4.98-2.742-.311-4.1-3.487-2.404-5.664 1.705-2.187 3.371-4.268 3.53-4.25z" fill="#BFBFBF"/><path d="M91.36 65.138a3.436 3.436 0 1 1-6.827-.776 3.436 3.436 0 0 1 6.827.776z" fill="#979797"/><path fill-rule="evenodd" clip-rule="evenodd" d="M94.636 66.713c.404.17.593.634.423 1.038a7.69 7.69 0 0 1-2.306 3.038 7.767 7.767 0 0 1-1.11.738.793.793 0 1 1-.76-1.39c.305-.168.6-.363.883-.588a6.103 6.103 0 0 0 1.832-2.413.793.793 0 0 1 1.038-.423z" fill="#BFBFBF"/></svg>