<svg id="Cover" xmlns="http://www.w3.org/2000/svg" viewBox="0 0 135 124"><defs><style>.cls-1{fill:#e92b2b}.cls-2{fill:#aeaeae}.cls-5{fill:#515151}.cls-6{fill:#e5e5e5}.cls-9{fill:#212121}.cls-10,.cls-11{fill:none;stroke:#212121;stroke-linecap:round;stroke-miterlimit:10}.cls-10{stroke-width:2.86px}.cls-11{stroke-width:1.55px}</style></defs><path class="cls-1" d="M124 28v79a17 17 0 0 1-17 17H28a17 17 0 0 1-17-17V28a17 17 0 0 1 17-17h79a17 17 0 0 1 17 17z"/><path class="cls-2" d="M54.46 44.88l-4.2-.19.26-5.69a2.44 2.44 0 0 1 1.67-2.21l79.65-26.39.52 2.28-77.7 27.72z"/><circle class="cls-2" cx="132.08" cy="11.44" r="2.97"/><rect x="40.4" y="46.93" width="87.57" height="58.26" rx="5.32" transform="rotate(6.18 84.18 76.086)" fill="#b15836"/><rect x="24.39" y="45.19" width="87.57" height="58.26" rx="5.32" transform="rotate(6.18 68.202 74.347)" fill="#f1a752"/><rect class="cls-5" x="28.59" y="48.26" width="51.92" height="49.18" rx="2.65" transform="rotate(6.18 54.559 72.854)"/><circle class="cls-6" cx="97.2" cy="64.97" r="12.17"/><path d="M97.86 58.92l-4.43-.48-.21 1.94a6 6 0 0 0-.89 8.22l-.21 1.94 4.43.48a6.09 6.09 0 0 0 1.31-12.1z" fill="#a6a6a6"/><circle cx="92.77" cy="64.49" r="6.08" fill="#bfbfbf"/><rect class="cls-6" x="81.89" y="86.28" width="24.33" height="15.54" rx="2.22" transform="rotate(6.18 94.067 94.037)"/><path class="cls-9" d="M88.81 89.88l-2.55-.28-.12 1.12a3.48 3.48 0 0 0-.52 4.74l-.12 1.12 2.56.28a3.51 3.51 0 1 0 .75-7z"/><circle class="cls-5" cx="85.88" cy="93.09" r="3.51"/><path class="cls-9" d="M99.45 91l-2.55-.28-.13 1.12a3.51 3.51 0 0 0-1.19 2.27 3.48 3.48 0 0 0 .68 2.47l-.12 1.12 2.56.3a3.51 3.51 0 1 0 .75-7z"/><circle class="cls-5" cx="96.52" cy="94.24" r="3.51"/><path class="cls-10" d="M56.74 52.62l-4.38 40.45M61.47 53.71l-4.26 39.31M66.06 56.07L62.2 91.7M70.46 60.18l-3.07 28.44M74.42 68.45L73.01 81.4M51.89 52.67l-4.26 39.31M46.9 54l-3.86 35.62M41.72 57.06l-3.08 28.45M36.08 64.3l-1.4 12.95"/><path class="cls-11" d="M96.52 94.24l3.01-1.79M85.88 93.09l2.27 2.87M96.71 59.85l-3.94 4.64"/><circle class="cls-6" cx="24.43" cy="24.27" r="24.2"/><path class="cls-6" d="M40.83 48.75l-1-13.56-13.12 8.29 10.85 7.18a2.11 2.11 0 0 0 3.27-1.91z"/><rect class="cls-1" x="18.19" y="6.31" width="8.78" height="23.68" rx="2.47" transform="rotate(-11.94 22.558 18.165)"/><circle class="cls-1" cx="26.51" cy="36.77" r="4.99"/><rect x="33.77" y="111.94" width="73.88" height="6.1" rx="3.05" fill="#ff322e"/><rect x="25.18" y="110.17" width="87.67" height="7.87" rx="3.93" fill="#d81f1b"/></svg>