<svg viewBox="0 0 135 125" fill="none" xmlns="http://www.w3.org/2000/svg"><path d="M107 11.703H28c-9.389 0-17 7.611-17 17v79c0 9.389 7.611 17 17 17h79c9.389 0 17-7.611 17-17v-79c0-9.389-7.611-17-17-17z" fill="#78C800"/><path fill-rule="evenodd" clip-rule="evenodd" d="M57.687 5.703c12.626 0 23.231 8.653 26.208 20.353l-.035-.089c2.102 5.724 6.709 8.365 13.676 8.473l.448.003c.124 0 .244.002.359.006l.212-.005.396-.004c11.507 0 20.834 9.292 20.834 20.755 0 11.462-9.327 20.754-20.834 20.754-5.498 0-10.5-2.122-14.223-5.589v2.496c0 14.785-11.866 26.798-26.594 27.037l-.654.004c-14.139 0-25.743-10.852-26.94-24.68-8.833-2.406-15.326-10.46-15.326-20.023 0-9.526 6.443-17.553 15.225-19.993v-2.457c0-14.785 11.866-26.799 26.594-27.038l.654-.003z" fill="#3D3D3D"/><path d="M27.986 72.732a7.583 7.583 0 1 1-15.166 0 7.583 7.583 0 0 1 15.166 0zM122.18 72.732a7.583 7.583 0 1 1-15.166 0 7.583 7.583 0 0 1 15.166 0z" fill="#DA8E74"/><path d="M113.799 123.214a16.214 16.214 0 0 1-6.799 1.489H28c-2.264 0-4.424-.466-6.4-1.312V84.107c0-25.46 20.64-46.1 46.1-46.1s46.099 20.64 46.099 46.1v39.107z" fill="#DA8E74"/><path d="M36.568 50.107l-.068.063-11.75 4.265L25 66.7a45.758 45.758 0 0 0-2.164 6.76 11.32 11.32 0 0 0 2.457.27c6.227 0 11.275-5.049 11.275-11.276V50.107zM99.257 50.502l.001.001c3.534-.62 9.742 4.94 9.742 4.94s3.136 8.204 1.309 11.037a45.788 45.788 0 0 1 1.988 5.911 11.36 11.36 0 0 1-1.791.141c-6.227 0-11.275-5.048-11.275-11.275V51.28c0-.261.008-.52.026-.777z" fill="#3D3D3D"/><path d="M114.092 123.157a16.924 16.924 0 0 1-7.092 1.546H28c-2.385 0-4.655-.491-6.715-1.378l.311-4.02v-1.843h92.198v1.843l.298 3.852z" fill="#FFAADE"/><path fill-rule="evenodd" clip-rule="evenodd" d="M56.554 52.377a9.41 9.41 0 0 1 9.41 9.409v5.723a9.41 9.41 0 1 1-18.82 0v-5.723a9.41 9.41 0 0 1 9.41-9.41z" fill="#fff"/><path fill-rule="evenodd" clip-rule="evenodd" d="M59.152 57.964a4.224 4.224 0 0 1 4.224 4.225v5.305a4.224 4.224 0 0 1-8.448 0V62.19a4.224 4.224 0 0 1 4.224-4.225z" fill="#3D3D3D"/><path fill-rule="evenodd" clip-rule="evenodd" d="M79.104 52.377a9.41 9.41 0 0 1 9.41 9.409v5.723a9.41 9.41 0 1 1-18.82 0v-5.723a9.41 9.41 0 0 1 9.41-9.41z" fill="#fff"/><path fill-rule="evenodd" clip-rule="evenodd" d="M77.104 57.964a4.224 4.224 0 0 1 4.225 4.225v5.305a4.224 4.224 0 0 1-8.449 0V62.19a4.224 4.224 0 0 1 4.224-4.225z" fill="#3D3D3D"/><path fill-rule="evenodd" clip-rule="evenodd" d="M40 50.703h53v14H40v-14zM40.897 68.703H94.81v17.691H40.897V68.703z" fill="#DA8E74"/><path fill-rule="evenodd" clip-rule="evenodd" d="M72.063 82.796c-3.417-5.918-10.984-7.946-16.902-4.529l-9.332 5.388c-5.918 3.417-7.946 10.984-4.53 16.902 3.418 5.918 10.985 7.945 16.903 4.529l9.332-5.388c5.918-3.417 7.946-10.984 4.529-16.902z" fill="#3D3D3D"/><path fill-rule="evenodd" clip-rule="evenodd" d="M51.136 87.5h34.325v16.763H51.136V87.5z" fill="#3D3D3D"/><path fill-rule="evenodd" clip-rule="evenodd" d="M59.41 104.405c6.655-4.107 11.743-2.571 16.339 0 4.596 2.57-3.025 10.235-3.025 10.235h-10.14s-9.829-6.128-3.174-10.235z" fill="#DA8E74"/><path fill-rule="evenodd" clip-rule="evenodd" d="M62.725 82.796c3.417-5.918 10.984-7.946 16.902-4.529l9.333 5.388c5.918 3.417 7.945 10.984 4.528 16.902-3.416 5.918-10.984 7.945-16.901 4.529l-9.333-5.388c-5.918-3.417-7.946-10.984-4.529-16.902zM49.67 54.802l14.944 2.59a4.79 4.79 0 1 1-1.635 9.438l-14.944-2.59a4.79 4.79 0 1 1 1.635-9.438zM73.283 45.703H88.45a4.79 4.79 0 0 1 0 9.579H73.283a4.79 4.79 0 0 1 0-9.58z" fill="#3D3D3D"/><path d="M73.487 75.69a5.987 5.987 0 1 1-11.974 0 5.987 5.987 0 0 1 11.974 0z" fill="#DA8E74"/><path fill-rule="evenodd" clip-rule="evenodd" d="M24.157 65.947l1.938 1.7 10.473-16.514v-4.096l-12.411 18.91zM110.907 65.947l-1.937 1.7-9.679-15.918v-4.096l11.616 18.314z" fill="#3D3D3D"/><path d="M107.775 124.685c-.257.012-.515.018-.775.018H28c-.26 0-.518-.006-.774-.018v-33.02a6.964 6.964 0 0 1 6.966-6.963h66.616a6.964 6.964 0 0 1 6.967 6.962v33.021z" fill="#1899D6"/><path d="M47.808 95.192c7.125 0 12.9 5.777 12.9 12.902 0 7.125-5.775 12.901-12.9 12.901s-12.901-5.776-12.901-12.901 5.776-12.901 12.9-12.901z" fill="#C4C4C4"/><path d="M56.891 113.337c-2.896 5.016-9.31 6.735-14.327 3.839-5.016-2.896-6.735-9.311-3.839-14.327 2.896-5.016 9.31-6.735 14.327-3.839 5.016 2.896 6.735 9.311 3.839 14.327z" fill="#3D3D3D"/><path d="M54.744 105.894c-.97 1.682-3.66 1.946-6.008.591-2.347-1.355-3.463-3.817-2.493-5.499.971-1.681 3.661-1.946 6.009-.59 2.347 1.355 3.463 3.817 2.492 5.498z" fill="#fff"/><path d="M47.432 115.029c-.622 1.077-2.344 1.247-3.847.379-1.504-.868-2.218-2.444-1.596-3.521.621-1.077 2.344-1.246 3.847-.379 1.503.868 2.218 2.445 1.596 3.521z" fill="#C4C4C4"/></svg>