<svg viewBox="0 0 135 124" fill="none" xmlns="http://www.w3.org/2000/svg"><g clip-path="url(#clip0)"><path d="M11 28c0-9.389 7.611-17 17-17h79c9.389 0 17 7.611 17 17v79c0 9.389-7.611 17-17 17H28c-9.389 0-17-7.611-17-17V28z" fill="#FF7878"/><path d="M124 79.704V107c0 9.389-7.611 17-17 17H69.961l2.658-8.217-30.559-.043 24.697-17.997L42.06 79.746l30.559-.044-9.402-29.076 24.748 17.926 9.485-29.05 9.484 29.05L124 56.19v18.192l-1.72 5.32 1.72.002z" fill="#FF9898"/><path d="M2.425 36.959c0-19.233 15.591-34.824 34.824-34.824h.81c19.232 0 34.823 15.591 34.823 34.824v4.6c0 19.233-15.591 34.825-34.824 34.825h-.81c-19.232 0-34.823-15.592-34.823-34.824v-4.601z" fill="#FFB7E3"/><path d="M39.563 67.236a49.248 49.248 0 0 1-3.515 1.039c-7.078 1.814-14.061 2.023-18.768 1.819a34.755 34.755 0 0 0 6.321 3.514c4.018-.181 8.64-.717 13.322-1.917 9.054-2.32 18.536-7.183 24.13-16.977-4.689 7.086-12.51 11.918-21.49 12.522z" fill="#FF9BD8"/><path d="M65.694 39.26c0 15.486-12.555 28.04-28.041 28.04S9.613 54.746 9.613 39.26c0-15.487 12.553-28.041 28.04-28.041 15.486 0 28.04 12.554 28.04 28.04z" fill="#E18E70"/><path d="M50.228 47.406c4.062-2.145 5.845-4.598 6.313-6.907a6.337 6.337 0 0 0-9.62-6.64c-.555.328-.961.575-1.284.77-1.177.715-1.24.753-3.367 1.613l-.12.048-.084.034.001.001a6.338 6.338 0 0 0 .084 11.673c2.936 1.231 6.485.18 8.077-.592z" fill="#fff"/><path d="M25.078 47.406c-4.062-2.145-5.845-4.598-6.313-6.907a6.337 6.337 0 0 1 9.62-6.64c.555.328.961.575 1.284.77 1.177.715 1.239.753 3.367 1.613a6.294 6.294 0 0 1 .204.082l-.001.001a6.338 6.338 0 0 1-.085 11.673c-2.935 1.231-6.484.18-8.076-.592z" fill="#fff"/><path d="M37.653 45.328c.134 0 1.32 1.881 2.526 3.855 1.201 1.965-.224 4.469-2.526 4.469-2.302 0-3.727-2.504-2.526-4.469 1.207-1.974 2.392-3.855 2.526-3.855z" fill="#9E4D31"/><path fill-rule="evenodd" clip-rule="evenodd" d="M43.367 58.502c-1.442-.474-2.91-.19-3.404-.009a.882.882 0 1 1-.604-1.656c.765-.28 2.65-.638 4.559-.01a.882.882 0 0 1-.551 1.675z" fill="#9E4D31"/><path fill-rule="evenodd" clip-rule="evenodd" d="M34.816 42.226a2.42 2.42 0 0 1 0 3.423 6.266 6.266 0 0 1-8.861 0 2.42 2.42 0 0 1 3.422-3.423 1.425 1.425 0 0 0 2.016 0 2.42 2.42 0 0 1 3.422 0zm14.535 0a2.42 2.42 0 0 1 0 3.423 6.266 6.266 0 0 1-8.86 0 2.42 2.42 0 1 1 3.422-3.423 1.425 1.425 0 0 0 2.015 0 2.42 2.42 0 0 1 3.423 0z" fill="#3D3D3D"/><path d="M15.087 30.577h44.25v13.36h-44.25v-13.36z" fill="#E18E70"/><path fill-rule="evenodd" clip-rule="evenodd" d="M45.313 42.16c1.526.634 3.364 1.088 5.235.876 1.67-.184 3.22-.898 4.394-2.021a.897.897 0 0 0-1.24-1.296c-.88.842-2.06 1.393-3.352 1.535h-.003c-1.467.167-2.988-.185-4.347-.75-1.347-.56-2.472-1.301-3.13-1.841a20.12 20.12 0 0 1-1.94-1.942.896.896 0 1 0-1.357 1.17 21.915 21.915 0 0 0 2.146 2.147c.783.645 2.064 1.487 3.593 2.122zm-15.415 0c-1.527.634-3.365 1.088-5.236.876-1.67-.184-3.22-.898-4.394-2.021a.896.896 0 1 1 1.24-1.296c.88.842 2.06 1.393 3.352 1.535h.003c1.467.167 2.988-.185 4.347-.75 1.347-.56 2.472-1.301 3.13-1.841.758-.669 1.4-1.317 1.94-1.942a.896.896 0 1 1 1.357 1.17 21.938 21.938 0 0 1-2.146 2.147c-.783.645-2.064 1.487-3.593 2.122z" fill="#B9674B"/><path d="M30.349 36.503c-4.72 1.462-10.16 2.304-16.438 2.09a10.114 10.114 0 0 1-1.53-.183 11.16 11.16 0 0 1-1.992-.348c-4.652-1.252-7.93-5.33-8.179-10.024-.052-.977.642-1.574 1.585-1.32l2.684.692c.094.02.192.044.294.068 2.183.528 3.937.446 5.419.018 4.447-9.61 14.176-16.277 25.461-16.277 7.11 0 13.6 2.645 18.543 7.005-3.056 3.463-5.942 6.287-8.671 8.603a57.25 57.25 0 0 1-3.144 2.501c-5.25 3.896-9.888 5.938-14.032 7.175z" fill="#3D3D3D"/><path d="M107.191 69.37c-.565 5.832-5.75 10.101-11.582 9.536-5.831-.565-10.1-5.75-9.536-11.581.565-5.832 5.75-10.101 11.582-9.536 5.832.565 10.101 5.75 9.536 11.581z" fill="#FF9600"/><path d="M66.784 76.474c.642-6.629 6.536-11.482 13.164-10.84l36.384 3.525c6.628.642 11.481 6.536 10.839 13.165l-2.359 24.348c-.642 6.628-6.536 11.481-13.164 10.839l-36.384-3.525c-6.628-.642-11.481-6.536-10.839-13.165l2.359-24.347z" fill="#FFC6B7"/><path d="M66.784 76.474c.493-5.09 4.083-9.133 8.725-10.445l-1.283 13.237a7.238 7.238 0 0 1-5.424 6.317 5.42 5.42 0 0 0-2.655-2.532l.637-6.577zm60.387 5.85c.493-5.09-2.255-9.747-6.558-11.925l-1.282 13.236a7.236 7.236 0 0 0 4.11 7.242 5.422 5.422 0 0 1 3.093-1.976l.637-6.577z" fill="#FFB67A"/><path d="M63.444 93.378a5.406 5.406 0 1 0 1.043-10.76 5.406 5.406 0 0 0-1.043 10.76zm63.76 6.177a5.406 5.406 0 1 0 1.043-10.761 5.406 5.406 0 0 0-1.043 10.76z" fill="#FFC6B7"/><path d="M112.952 88.84l-.009-3.388-14.488.039.009 3.39a7.244 7.244 0 0 0 14.488-.04zm-33.426-3.274l.676-3.32L94.4 85.133l-.675 3.32a7.244 7.244 0 0 1-14.198-2.888z" fill="#fff"/><path d="M107.286 88.552l-.009-3.047-7.1.02.009 3.047a3.55 3.55 0 1 0 7.1-.02zm-14.47-1.402l-.009-3.047-7.1.02.008 3.047a3.55 3.55 0 0 0 7.1-.02z" fill="#3D3D3D"/><path d="M77.542 78.516l38.487 3.729-.68 7.022-38.487-3.729.68-7.022z" fill="#FFC6B7"/><path fill-rule="evenodd" clip-rule="evenodd" d="M114.727 88.284a1 1 0 0 1-.998 1.003l-12.852.035c-.986.002-1.938-.185-2.683-.766-.772-.602-1.155-1.495-1.26-2.544a1 1 0 1 1 1.99-.199c.069.682.281.996.5 1.166.246.192.68.345 1.448.343l12.852-.035a1 1 0 0 1 1.003.997zm-36.83-3.61a1 1 0 0 0 .78 1.18l12.595 2.562c.966.197 1.937.2 2.781-.223.876-.438 1.426-1.238 1.735-2.246a1 1 0 1 0-1.912-.587c-.2.655-.47.921-.719 1.045-.279.14-.734.204-1.487.051l-12.594-2.562a1 1 0 0 0-1.179.78z" fill="#F8B2A2"/><path d="M98.106 62.277c-.536 5.531-5.454 9.581-10.986 9.045-5.532-.536-9.581-5.454-9.045-10.986.535-5.532 5.454-9.581 10.986-9.045 5.531.536 9.581 5.454 9.045 10.986z" fill="#FF9600"/><path fill-rule="evenodd" clip-rule="evenodd" d="M109.123 104.177a3.918 3.918 0 0 1-5.288 1.657c-.591-.308-1.285-.543-2.02-.515-.639.025-1.686.257-3.074 1.55a3.919 3.919 0 0 1-5.345-5.732c2.644-2.465 5.445-3.547 8.117-3.65 2.577-.099 4.658.725 5.953 1.402a3.918 3.918 0 0 1 1.657 5.288z" fill="#fff"/><path fill-rule="evenodd" clip-rule="evenodd" d="M113.636 106.536c-2.191 4.191-7.217 5.94-11.496 4.125a9.01 9.01 0 0 1-12.216-13.249c3.459-3.224 7.398-4.859 11.393-5.013 3.774-.145 6.756 1.061 8.508 1.977a9.011 9.011 0 0 1 3.811 12.16l-4.513-2.359a3.918 3.918 0 0 0-1.657-5.288c-1.295-.677-3.376-1.5-5.953-1.402-2.672.103-5.473 1.185-8.117 3.65a3.918 3.918 0 1 0 5.345 5.732c1.388-1.293 2.435-1.525 3.074-1.55.735-.028 1.429.207 2.02.515a3.918 3.918 0 0 0 5.288-1.657l4.513 2.359zm-11.024 3.741l-.004.002a.01.01 0 0 0 .004-.002zm-1.16.058l-.002-.001z" fill="#FFC6B7"/><path d="M96.058 88.894c.137.014 1.162 2.055 2.2 4.193 1.034 2.128-.67 4.547-3.025 4.32-2.355-.229-3.563-2.93-2.14-4.82 1.429-1.9 2.827-3.706 2.965-3.693z" fill="#EE9583"/><path d="M22.934 111.233c8.054-2.158 12.831-10.446 10.67-18.512-2.162-8.066-12.099-19.037-20.152-16.879C5.398 78 2.278 92.47 4.439 100.536c2.161 8.066 10.442 12.855 18.495 10.697zm21.266 9.2c6.64 1.178 12.98-3.258 14.16-9.908 1.18-6.65-2.343-18.092-8.983-19.27-6.64-1.178-13.883 8.354-15.063 15.004-1.18 6.651 3.247 12.996 9.887 14.174z" fill="#EFE2BB"/><path d="M12.925 91.21a3.706 3.706 0 0 0 2.617-4.54 3.706 3.706 0 0 0-4.537-2.624 3.706 3.706 0 0 0-2.617 4.54 3.706 3.706 0 0 0 4.537 2.624zm30.801 11.124a2.997 2.997 0 0 0 3.473-2.43 2.997 2.997 0 0 0-2.425-3.477 2.997 2.997 0 0 0-3.473 2.43 2.998 2.998 0 0 0 2.425 3.477z" fill="#F7F0DD"/><path d="M77.216 19.363c0-8.238 6.678-14.916 14.916-14.916h23.54c8.238 0 14.916 6.678 14.916 14.916v9.195c0 8.238-6.678 14.917-14.916 14.917h-23.54c-8.238 0-14.916-6.678-14.916-14.917v-9.195z" fill="#E1ECFA"/><path d="M77.431 31.098c1.206 7.028 7.329 12.377 14.701 12.377h23.54c7.372 0 13.495-5.349 14.701-12.377H77.431z" fill="#BDC6D8"/><path d="M77.216 17.265c0-7.08 5.739-12.818 12.819-12.818 7.08 0 12.818 5.739 12.818 12.818v13.391c0 7.08-5.739 12.819-12.819 12.819-7.08 0-12.818-5.74-12.818-12.819v-13.39z" fill="#F0F7FF"/><path d="M86.303 22.012a3.732 3.732 0 1 1 7.463 0v3.898a3.732 3.732 0 0 1-7.463 0v-3.898z" fill="#535570"/><path d="M102.853 24.921h27.735v27.386c0 1.03-.835 1.864-1.865 1.864h-24.005a1.865 1.865 0 0 1-1.865-1.864V24.92z" fill="#E1ECFA"/><path opacity=".25" fill-rule="evenodd" clip-rule="evenodd" d="M104.586 25.33h-1.733v-1.865h1.733a.933.933 0 1 1 0 1.864zm2.535-.933c0-.515.417-.932.932-.932h3.467a.932.932 0 1 1 0 1.864h-3.467a.932.932 0 0 1-.932-.932zm6.934 0c0-.515.417-.932.932-.932h3.467a.932.932 0 1 1 0 1.864h-3.467a.932.932 0 0 1-.932-.932zm6.934 0c0-.515.417-.932.932-.932h3.467a.932.932 0 1 1 0 1.864h-3.467a.932.932 0 0 1-.932-.932zm6.933 0c0-.515.418-.932.933-.932h1.733v1.864h-1.733a.933.933 0 0 1-.933-.932z" fill="#535570"/></g><defs><clipPath id="clip0"><path fill="#fff" d="M0 0h135v124H0z"/></clipPath></defs></svg>