<svg viewBox="0 0 135 124" fill="none" xmlns="http://www.w3.org/2000/svg"><path d="M11 28c0-9.389 7.611-17 17-17h79c9.389 0 17 7.611 17 17v79c0 9.389-7.611 17-17 17H28c-9.389 0-17-7.611-17-17V28z" fill="#FF7878"/><path d="M15.943 38.794c0-17.817 14.444-32.26 32.26-32.26h.75c17.817 0 32.26 14.443 32.26 32.26v4.262c0 17.817-14.443 32.26-32.26 32.26h-.75c-17.816 0-32.26-14.443-32.26-32.26v-4.262z" fill="#FFB7E3"/><path d="M50.349 66.842a45.6 45.6 0 0 1-3.256.962c-6.556 1.68-13.026 1.874-17.386 1.685a32.205 32.205 0 0 0 5.856 3.256c3.722-.168 8.004-.665 12.341-1.776 8.387-2.15 17.17-6.654 22.354-15.727-4.344 6.564-11.59 11.04-19.91 11.6z" fill="#FF9BD8"/><path d="M74.554 40.925c0 14.346-11.63 25.976-25.976 25.976-14.347 0-25.976-11.63-25.976-25.976 0-14.346 11.63-25.976 25.976-25.976 14.346 0 25.976 11.63 25.976 25.976z" fill="#E18E70"/><path d="M48.58 42.578c.124 0 1.222 1.743 2.34 3.571 1.112 1.82-.207 4.14-2.34 4.14s-3.453-2.32-2.34-4.14c1.117-1.828 2.215-3.571 2.34-3.571z" fill="#9E4D31"/><path d="M55.097 32.1c-3.763 1.987-5.414 4.259-5.848 6.398a5.87 5.87 0 0 0 8.912 6.15c.514-.303.89-.531 1.189-.713 1.09-.662 1.148-.697 3.12-1.493a5.397 5.397 0 0 0 .188-.076v-.002a5.872 5.872 0 0 0-.079-10.813c-2.719-1.14-6.007-.167-7.482.549z" fill="#fff"/><path d="M52.735 38.394A2.618 2.618 0 0 0 55 34.46a3.905 3.905 0 0 1 3.707 3.9v1.81a3.905 3.905 0 1 1-7.81 0v-1.81c0-.227.02-.45.057-.667.467.435 1.094.7 1.782.7z" fill="#3D3D3D"/><path d="M42.06 32.1c3.762 1.987 5.413 4.259 5.847 6.398a5.87 5.87 0 0 1-8.912 6.15c-.514-.303-.89-.531-1.189-.713-1.09-.662-1.148-.697-3.12-1.493a5.405 5.405 0 0 1-.111-.045l-.077-.031.001-.002a5.872 5.872 0 0 1 .078-10.813c2.72-1.14 6.007-.167 7.482.549z" fill="#fff"/><path d="M40.29 38.394a2.618 2.618 0 0 0 2.263-3.934 3.905 3.905 0 0 1 3.708 3.9v1.81a3.905 3.905 0 1 1-7.81 0v-1.81c0-.227.02-.45.057-.667.467.435 1.093.7 1.782.7z" fill="#3D3D3D"/><path d="M67.047 26.984c.802 2.97-3.476 6.708-9.553 8.348-6.078 1.64-11.655.56-12.457-2.41-.801-2.97 3.476-6.709 9.554-8.348 6.078-1.64 11.655-.561 12.456 2.41z" fill="#E18E70"/><path d="M27.607 34.91c19.15.653 29.664-9.604 35.497-15.554a25.855 25.855 0 0 0-14.48-4.407 25.871 25.871 0 0 0-16.657 6.042c-.085.052-.17.111-.253.18-.315.256-.628.526-.946.8-2.256 1.946-4.753 4.1-9.589 2.93-.091-.022-.18-.042-.265-.061l-2.416-.623c-.85-.229-1.474.309-1.427 1.189.224 4.227 3.176 7.898 7.364 9.026.596.16 1.196.264 1.794.313a9.1 9.1 0 0 0 1.378.165z" fill="#3D3D3D"/><path d="M63.152 22.657l1.9 2.033c1.612 1.726.365 4.54-1.996 4.506-2.36-.034-3.525-2.885-1.863-4.562l1.959-1.977zM67.815 28.05l1.106 1.184c.938 1.004.212 2.642-1.162 2.622-1.373-.02-2.05-1.68-1.084-2.655l1.14-1.15z" fill="#BBF2FF"/><path d="M57.873 70.028c2.084-12.794 13.136-22.19 26.098-22.19s24.014 9.396 26.098 22.19l6.81 41.808a1.794 1.794 0 0 1-1.771 2.083H52.834a1.794 1.794 0 0 1-1.771-2.083l6.81-41.808z" fill="#A570FF"/><path d="M76.063 58.336h-.198a14.353 14.353 0 0 0-14.262 12.745L58.68 97a5.83 5.83 0 0 0 5.794 6.484h40.039a5.83 5.83 0 0 0 5.794-6.484l-.912-16.04a5.26 5.26 0 0 0-.111-10.52H91.348c-7.434 0-13.66-5.166-15.285-12.105z" fill="#FFC6B7"/><path d="M77.39 104.382c0-.495.402-.897.898-.897h11.368c.495 0 .897.402.897.897v8.64a.897.897 0 0 1-.897.897H78.288a.897.897 0 0 1-.897-.897v-8.64z" fill="#593F86"/><path d="M83.814 79.534a7.176 7.176 0 0 0-7.176-7.177h-5.815a.897.897 0 0 0-.897.898v7.093a7.176 7.176 0 0 0 7.176 7.176h3.326a3.386 3.386 0 0 0 3.386-3.386v-4.604z" fill="#fff"/><path d="M99.468 78.274H85.689a7.178 7.178 0 0 1 7.067-5.916h5.815c.495 0 .897.401.897.897v5.02z" fill="#A570FF"/><path d="M85.58 79.534a7.176 7.176 0 0 1 7.176-7.177h5.816c.495 0 .897.402.897.898v7.093a7.176 7.176 0 0 1-7.177 7.176h-3.326a3.386 3.386 0 0 1-3.386-3.386v-4.604z" fill="#fff"/><path d="M88.014 81.135v1.285a3.118 3.118 0 1 0 6.235 0v-1.285h-6.235zM75.03 81.135v1.285a3.118 3.118 0 1 0 6.234 0v-1.285H75.03z" fill="#3D3D3D"/><path d="M99.153 82.46L85.58 83.933v-4.4a7.176 7.176 0 0 1 7.176-7.175h5.816c.495 0 .897.401.897.897v7.093a7.17 7.17 0 0 1-.316 2.112zM83.814 83.964v-4.43a7.176 7.176 0 0 0-7.176-7.177h-5.815a.897.897 0 0 0-.897.898v7.093c0 .747.114 1.467.326 2.144l13.562 1.472z" fill="#A570FF"/><path d="M76.011 109.05V56.237h-2.7a13.904 13.904 0 0 0-13.74 11.783l-6.335 41.03h22.776z" fill="#A570FF"/><path d="M84.556 84.002c.129 0 1.261 1.798 2.414 3.684 1.148 1.877-.214 4.27-2.413 4.27-2.2 0-3.562-2.393-2.414-4.27 1.153-1.886 2.285-3.684 2.413-3.684z" fill="#EE9583"/><path fill-rule="evenodd" clip-rule="evenodd" d="M87.645 95.938c-2.182.726-3.92 1.846-4.825 2.624a.956.956 0 0 1-1.247-1.45c1.088-.936 3.043-2.182 5.468-2.989 2.432-.809 5.395-1.194 8.45-.313a.956.956 0 1 1-.529 1.838c-2.587-.745-5.142-.433-7.317.29z" fill="#EE9583"/><path d="M41.158 59.642a7.421 7.421 0 1 1 14.843 0v.126a1.708 1.708 0 0 1-2.293 1.605l-3.538-1.289a4.647 4.647 0 0 0-3.181 0l-3.538 1.29a1.708 1.708 0 0 1-2.293-1.606v-.126z" fill="#B23131"/><path d="M53.561 61.32l-3.391-1.236a4.648 4.648 0 0 0-3.181 0l-3.391 1.235a4.994 4.994 0 1 1 9.963 0z" fill="#E34545"/></svg>