<svg viewBox="0 0 135 124" fill="none" xmlns="http://www.w3.org/2000/svg"><path d="M107 11H28c-9.389 0-17 7.611-17 17v79c0 9.389 7.611 17 17 17h79c9.389 0 17-7.611 17-17V28c0-9.389-7.611-17-17-17z" fill="#E5E5E5"/><path fill-rule="evenodd" clip-rule="evenodd" d="M59.94 0c9.68 0 17.813 6.632 20.1 15.601l-.02-.056c1.605 4.387 5.12 6.414 10.436 6.5l.357.002c.098 0 .193.002.284.005l.138-.004.317-.003c8.793 0 15.922 7.128 15.922 15.921s-7.129 15.922-15.922 15.922a15.866 15.866 0 0 1-10.87-4.288v1.915c0 11.456-9.287 20.743-20.743 20.743-10.846 0-19.748-8.324-20.666-18.932-6.75-1.846-11.713-8.023-11.713-15.36 0-7.307 4.924-13.465 11.635-15.337v-1.885C39.195 9.287 48.483 0 59.94 0z" fill="#ABABAB"/><path d="M31.432 56.797a5.894 5.894 0 1 0 0-11.788 5.894 5.894 0 0 0 0 11.788zM103.384 56.797a5.894 5.894 0 1 0 0-11.788 5.894 5.894 0 0 0 0 11.788z" fill="#D4D4D4"/><path fill-rule="evenodd" clip-rule="evenodd" d="M67.332 24.494c19.53 0 35.363 15.833 35.363 35.364v54.701H31.968V59.858c0-19.53 15.833-35.364 35.364-35.364z" fill="#D4D4D4"/><path fill-rule="evenodd" clip-rule="evenodd" d="M101.555 50.917l-.181.024a8.5 8.5 0 0 1-9.509-8.44l.001-8.111a35.33 35.33 0 0 1 9.689 16.527zM42.865 34.5v9a8.5 8.5 0 0 1-9.99 8.37 35.307 35.307 0 0 1 9.987-17.543l.003.173z" fill="#ABABAB"/><path fill-rule="evenodd" clip-rule="evenodd" d="M31.965 85.445h70.727v21.127H31.965V85.445z" fill="#FFAADE"/><path fill-rule="evenodd" clip-rule="evenodd" d="M67.404 96.928L77.432 85.14H57.377l10.027 11.788z" fill="#DA8E74"/><path fill-rule="evenodd" clip-rule="evenodd" d="M31.968 106.551h70.727v7.96H31.968v-7.96z" fill="#A56644"/><path d="M49.42 106.551h-5.052v11.635h5.052v-11.635zM89.986 106.551h-5.052v11.635h5.052v-11.635z" fill="#2BE69C"/><path fill-rule="evenodd" clip-rule="evenodd" d="M58.628 35.823a7.218 7.218 0 0 1 7.219 7.218v4.391a7.218 7.218 0 0 1-14.437 0v-4.39a7.218 7.218 0 0 1 7.218-7.219z" fill="#fff"/><path fill-rule="evenodd" clip-rule="evenodd" d="M58.515 49.4h1.8a2.25 2.25 0 1 1 0 4.5h-1.8a2.25 2.25 0 0 1 0-4.5z" fill="#ABABAB"/><path fill-rule="evenodd" clip-rule="evenodd" d="M75.927 35.823a7.218 7.218 0 0 0-7.218 7.218v4.391a7.218 7.218 0 0 0 14.436 0v-4.39a7.218 7.218 0 0 0-7.218-7.219z" fill="#fff"/><path fill-rule="evenodd" clip-rule="evenodd" d="M75.715 49.4h-1.8a2.25 2.25 0 1 0 0 4.5h1.8a2.25 2.25 0 1 0 0-4.5zM76.54 55.273l7.16 4.134a9.492 9.492 0 1 1-9.492 16.44l-.829-.479H60.931l-.827.479a9.492 9.492 0 0 1-12.822-3.234l-.143-.24a9.492 9.492 0 0 1 3.233-12.823l.24-.143 7.16-4.134a9.487 9.487 0 0 1 9.384-.063 9.487 9.487 0 0 1 9.384.063z" fill="#ABABAB"/><path fill-rule="evenodd" clip-rule="evenodd" d="M49.113 36.517l18.002-2 22.108 2v6.3l-21.858-1H49.113v-5.3z" fill="#D4D4D4"/><path fill-rule="evenodd" clip-rule="evenodd" d="M119.605 70a4.26 4.26 0 0 1 4.26 4.26V107c0 9.389-7.611 17-17 17h-79c-9.389 0-17-7.611-17-17V74.26a4.26 4.26 0 0 1 4.26-4.26h104.48z" fill="#fff"/><path fill-rule="evenodd" clip-rule="evenodd" d="M119.605 77a4.26 4.26 0 0 1 4.26 4.26V107c0 9.389-7.611 17-17 17h-79c-9.389 0-17-7.611-17-17V81.26a4.26 4.26 0 0 1 4.26-4.26h104.48z" fill="#D8D8D8"/><path fill-rule="evenodd" clip-rule="evenodd" d="M117.865 80a3 3 0 0 1 3 3v33.646a17.076 17.076 0 0 1-5 4.778V85l-97-.001-.001 36.425a17.086 17.086 0 0 1-5-4.779V83a3 3 0 0 1 3-3h101.001z" fill="#ABABAB"/><path d="M67.305 57.88a4.44 4.44 0 1 0 0-8.88 4.44 4.44 0 0 0 0 8.88z" fill="#D4D4D4"/><path d="M65.95 38.879a4 4 0 0 1 7.59-1.593l.048.103 8.727-.01a4 4 0 1 1 .007 8l-9.857.013c-3.925.008-6.679-2.567-6.515-6.513z" fill="#ABABAB"/><path fill-rule="evenodd" clip-rule="evenodd" d="M33.865 32h9v12l-7 4-2-4V32zM100.865 32h-9v12l7 4 2-4V32z" fill="#ABABAB"/><path d="M62.776 27.227a4 4 0 0 1 1.019 7.932l-.198.025c-2.538.262-4.566 1.064-6.187 2.398a4 4 0 0 1-5.083-6.178c2.88-2.37 6.396-3.76 10.449-4.177z" fill="#ABABAB"/><path d="M63.865 104h-2v11h2v-11zM73.865 104h-2v11h2v-11z" fill="#000" fill-opacity=".143"/><path opacity=".591" d="M119.865 112v-8h-109v8h109z" fill="#ABABAB"/><path d="M71.865 82h-8v42h8V82z" fill="#ABABAB"/><path d="M119.865 115v-8h-109v8h109zM30.327 84.97v5h-6.5v5.499h-5v-10.5h11.5zM104.827 84.97v5h6.5v5.499h5v-10.5h-11.5z" fill="#ABABAB"/><path fill-rule="evenodd" clip-rule="evenodd" d="M126.435 91.135l-7.728 2.071a5.001 5.001 0 0 0-3.6 5.852 5 5 0 0 0 .758 9.942h.417a5 5 0 0 0 4.583 7h2a5 5 0 0 0 4.57-7.033 4.998 4.998 0 0 0 2.79-8.669 5 5 0 0 0-3.79-9.163zM9.295 91.135l7.728 2.071a5 5 0 0 1 3.6 5.852 5 5 0 0 1-.758 9.942h-.416a5 5 0 0 1-4.584 7h-2a5 5 0 0 1-4.57-7.033 4.998 4.998 0 0 1-2.79-8.669 5 5 0 0 1 3.79-9.163z" fill="#D4D4D4"/></svg>