<svg id="Layer_3" data-name="Layer 3" xmlns="http://www.w3.org/2000/svg" viewBox="0 0 135 124"><defs><style>.cls-2{fill:#f68f00}.cls-3{fill:#ffb099}.cls-5{fill:#ffd0bb}.cls-6{fill:#fff}.cls-7{fill:#a56640}</style></defs><path d="M124 28v79a17 17 0 0 1-17 17H28a17 17 0 0 1-17-17V28a17 17 0 0 1 17-17h79a17 17 0 0 1 17 17z" fill="#9069cd"/><circle class="cls-2" cx="67" cy="38.54" r="37.76"/><path class="cls-2" d="M67 103.83c-24.72 0-44.83-15.8-44.83-35.22S42.27 33.38 67 33.38s44.84 15.8 44.84 35.23S91.72 103.83 67 103.83z"/><path class="cls-3" d="M45.91 69.87A11.53 11.53 0 0 1 31.74 52.1a37.91 37.91 0 0 0 14.17 17.77zM105.88 59.77a11.54 11.54 0 0 1-17.48 9.88 37.87 37.87 0 0 0 14-18.08 11.47 11.47 0 0 1 3.48 8.2z"/><path fill="#ffb49e" d="M58.26 96.2h19.76v15.27H58.26z"/><path class="cls-5" d="M95 43.3v22.32a38.82 38.82 0 0 1-4 17.22l-2.92 5.88a23.18 23.18 0 0 1-20.77 12.9 23.18 23.18 0 0 1-20.78-12.9l-2.91-5.88a38.82 38.82 0 0 1-4-17.22V43.3A17.43 17.43 0 0 1 57 25.87h20.59A17.44 17.44 0 0 1 95 43.3z"/><rect class="cls-6" x="46.47" y="50.81" width="16.33" height="22.6" rx="8.16" ry="8.16"/><path class="cls-5" d="M43.34 42.29H64.7v16.86H43.34z"/><rect class="cls-7" x="53.21" y="60" width="6.56" height="10.72" rx="3.28" ry="3.28"/><rect class="cls-6" x="71.8" y="50.81" width="16.33" height="22.6" rx="8.16" ry="8.16" transform="rotate(-180 79.965 62.11)"/><rect class="cls-7" x="74.74" y="60" width="6.56" height="10.72" rx="3.28" ry="3.28" transform="rotate(-180 78.015 65.365)"/><path class="cls-2" d="M39.49 66.27s2.67-9 6.79-10.86l10.49-4.75a38.07 38.07 0 0 0 18-17.28l5-9.73H48.12L30.32 35.5z"/><path class="cls-2" d="M73.68 19.21l9.87 23.62a15.53 15.53 0 0 0 4.23 5.81l1.75 1.5A15.55 15.55 0 0 1 95 61.83l8.91-21.31-10.23-17.24z"/><rect class="cls-3" x="64.71" y="52.46" width="5.18" height="23.83" rx="2.59" ry="2.59"/><rect class="cls-5" x="116.04" y="82.38" width="8.49" height="19.73" rx="4.24" ry="4.24" transform="rotate(-60.55 120.282 92.243)"/><rect class="cls-5" x="10.56" y="82.38" width="8.49" height="19.73" rx="4.24" ry="4.24" transform="rotate(-119.45 14.806 92.244)"/><path class="cls-6" d="M109.49 72.24l4.45 37.08a15.83 15.83 0 0 1-9.38 3.06H30.44a15.85 15.85 0 0 1-9.38-3.06l4.45-37.08a3.5 3.5 0 0 1 4.22-2.9l37.77 8.5 37.77-8.5a3.49 3.49 0 0 1 4.22 2.9z"/><circle cx="67.5" cy="87.24" r="9.26" fill="#2d2d2d"/><path d="M117 80.06v40.68a16.87 16.87 0 0 1-10 3.26H28a16.87 16.87 0 0 1-10-3.26V80.06a2.74 2.74 0 0 1 3.33-2.67L67.5 87.65l46.18-10.26a2.73 2.73 0 0 1 3.32 2.67z" fill="#825035"/><path d="M78 87.72V124H57V87.72a4.07 4.07 0 0 1 4.07-4.07h12.86A4.07 4.07 0 0 1 78 87.72z" fill="#a46647"/><path class="cls-5" d="M129.74 94l3 11a5.05 5.05 0 0 1-2.81 6l-2.22 1-5.7 2.56a3.64 3.64 0 0 1-4.83-1.8l-1-2.25-4.14-9.07a3.65 3.65 0 0 1 1.81-4.83l10.88-4.9a3.65 3.65 0 0 1 5.01 2.29z"/><rect class="cls-5" x="108.68" y="97.74" width="8.49" height="19.73" rx="4.24" ry="4.24" transform="rotate(-114.52 112.92 107.606)"/><rect class="cls-5" x="116.65" y="99.53" width="8.49" height="25.14" rx="4.24" ry="4.24" transform="scale(-1) rotate(50.7 237.7 -256.628)"/><rect class="cls-5" x="109.98" y="86.42" width="8.49" height="25.14" rx="4.24" ry="4.24" transform="rotate(80.32 114.224 98.981)"/><path class="cls-5" d="M5.35 94l-3 11a5.06 5.06 0 0 0 2.8 6l2.23 1 5.7 2.56a3.64 3.64 0 0 0 4.83-1.8l1-2.25 4.09-9.1a3.64 3.64 0 0 0-1.8-4.83l-10.88-4.9A3.65 3.65 0 0 0 5.35 94z"/><rect class="cls-5" x="17.92" y="97.74" width="8.49" height="19.73" rx="4.24" ry="4.24" transform="rotate(-65.48 22.167 107.612)"/><rect class="cls-5" x="9.95" y="99.53" width="8.49" height="25.14" rx="4.24" ry="4.24" transform="rotate(-50.65 14.186 112.094)"/><rect class="cls-5" x="16.62" y="86.42" width="8.49" height="25.14" rx="4.24" ry="4.24" transform="rotate(99.68 20.857 98.995)"/></svg>