<svg viewBox="0 0 135 124" version="1.1" xmlns="http://www.w3.org/2000/svg" xmlns:xlink="http://www.w3.org/1999/xlink"><defs><rect id="a" x="0" y="0" width="41.406" height="64.642" rx="8.369"/></defs><g stroke="none" stroke-width="1" fill="none" fill-rule="evenodd"><path d="M28 11h79c9.389 0 17 7.611 17 17v79c0 9.389-7.611 17-17 17H28c-9.389 0-17-7.611-17-17V28c0-9.389 7.611-17 17-17z" fill="#303030"/><path d="M47.092 105h39.816a3 3 0 0 1 2.815 1.963l4.79 13A3 3 0 0 1 91.698 124H42.302a3 3 0 0 1-2.815-4.037l4.79-13A3 3 0 0 1 47.092 105z" fill="#FFD900"/><path d="M52 105l1 19H42.302a2.996 2.996 0 0 1-2.442-1.257L52 105zm10 0l5 19H53l9-19zm10 0l9 19H67l5-19zm10 0l12.14 17.742A3 3 0 0 1 91.697 124H81l1-19z" fill="#FFC800"/><path fill="#FF4B4B" d="M96.87 42.758l4.435 7.098L73.32 67.343l-4.435-7.097zM48.79 66.806l-.438 8.358L13.4 73.332l.438-8.358z"/><path d="M123.307 40.324L111.05 30.04a9.5 9.5 0 0 0-12.213 14.555l12.257 10.284a9.5 9.5 0 0 0 12.213-14.555zm-14.185-7.986l12.256 10.284a6.5 6.5 0 0 1-8.356 9.959l-12.257-10.285a6.5 6.5 0 0 1 8.357-9.958z" fill="#585858" fill-rule="nonzero"/><path d="M118.142 33.09l-5.362-4.5c-4.443-3.727-11.066-3.148-14.793 1.294-3.728 4.443-3.148 11.066 1.294 14.793l5.362 4.5c4.443 3.727 11.066 3.148 14.793-1.294 3.728-4.443 3.148-11.066-1.294-14.793zm-7.29-2.202l5.362 4.5a7.5 7.5 0 1 1-9.642 11.49l-5.363-4.499a7.5 7.5 0 1 1 9.642-11.49z" fill="#585858" fill-rule="nonzero"/><path d="M104.02 47.32a1.5 1.5 0 0 1 2.085.385c4.978 7.232 4.806 16.446-.363 27.473a8.426 8.426 0 0 0 4.002 11.182 1.5 1.5 0 1 1-1.291 2.708c-5.67-2.704-8.093-9.476-5.428-15.163 4.756-10.145 4.907-18.255.609-24.499a1.5 1.5 0 0 1 .385-2.086z" fill="#585858" fill-rule="nonzero"/><rect fill="#FFC6B7" x="95.803" y="38.349" width="12" height="12" rx="6"/><rect fill="#FFC6B7" x="6" y="64" width="12" height="12" rx="6"/><g transform="rotate(-17 143.25 -62.39)"><g transform="translate(5.489 .545)"><mask id="b" fill="#fff"><use xlink:href="#a"/></mask><use fill="#FFC6B7" xlink:href="#a"/><path d="M9.273 19.714h11v2.5a5.5 5.5 0 1 1-11 0v-2.5z" fill="#A54444" mask="url(#b)" transform="rotate(20 14.773 23.714)"/><path d="M12.239 20.237h9v1l-7.89.876a1 1 0 0 1-1.11-.993v-.883z" fill="#FFF" mask="url(#b)" transform="rotate(20 16.739 21.237)"/><rect fill="#FF9600" opacity=".332" mask="url(#b)" x="-26.649" y="-11.122" width="32.376" height="25.769" rx="4.955"/><rect fill="#FF9600" opacity=".332" mask="url(#b)" x="36.671" y="-11.122" width="32.376" height="25.769" rx="4.955"/><path fill="#585858" mask="url(#b)" d="M-10.131 44.811h59.025v21h-59.025z"/><path d="M-10.131 30.063h59.025v23H22.543a1 1 0 0 1-.839-.455L20.011 50l-1.715 2.612a1 1 0 0 1-.836.451H-10.13v-23z" fill="#FF4B4B" mask="url(#b)"/><path fill="#585858" mask="url(#b)" d="M1 30h38L20 41z"/><path fill="#FFF" mask="url(#b)" d="M11 30h18l-9 11z"/><path d="M16.514 26.909L20 29l3.486-2.091a1 1 0 0 1 1.514.857v4.116a1 1 0 0 1-1.447.894L20 31l-3.553 1.776A1 1 0 0 1 15 31.882v-4.116a1 1 0 0 1 1.514-.857z" fill="#FF4B4B" mask="url(#b)"/><rect fill="#FFD900" mask="url(#b)" x="13" y="46" width="4" height="4" rx="2"/><rect fill="#FFD900" mask="url(#b)" x="13" y="40" width="4" height="4" rx="2"/><rect fill="#FFD900" mask="url(#b)" x="23" y="46" width="4" height="4" rx="2"/><rect fill="#FFD900" mask="url(#b)" x="23" y="40" width="4" height="4" rx="2"/></g><circle fill="#FFC6B7" cx="47.941" cy="16.788" r="3.689"/><circle fill="#FFC6B7" cx="4.222" cy="16.788" r="3.689"/><g><path d="M20.041 4.73a5.192 5.192 0 0 1 5.193 5.192v3.158a5.192 5.192 0 0 1-10.385 0V9.922a5.192 5.192 0 0 1 5.192-5.192z" fill="#FFF"/><path d="M21.475 7.813a2.331 2.331 0 0 1 2.33 2.331v2.928a2.331 2.331 0 1 1-4.661 0l-.001-2.731.11.005c.986 0 1.793-.76 1.867-1.726l.006-.146a1.87 1.87 0 0 0-.104-.617c.146-.029.298-.044.453-.044z" fill="#3D3D3D"/><path d="M32.192 4.73a5.192 5.192 0 0 1 5.192 5.192v3.158a5.192 5.192 0 0 1-10.384 0V9.922a5.192 5.192 0 0 1 5.192-5.192z" fill="#FFF"/><path d="M30.823 7.813c-.154 0-.305.015-.45.044a1.872 1.872 0 0 1-1.766 2.49l-.115-.006v2.73a2.331 2.331 0 1 0 4.662 0v-2.927a2.331 2.331 0 0 0-2.33-2.331z" fill="#3D3D3D"/></g><path d="M11.87 15.577c5.526-.029 10.379 1.263 14.531 3.88l.427.275-1.273 1.93c-3.719-2.453-8.086-3.712-13.13-3.77l-.543-.002-.012-2.313z" fill="#FFC6B7" fill-rule="nonzero"/><path d="M26.026 20.477a2.04 2.04 0 0 0 2.038-2.042c0-1.127-2.038-3.794-2.038-3.794s-2.037 2.667-2.037 3.794a2.04 2.04 0 0 0 2.037 2.042z" fill="#EE9583"/></g><path d="M49.325 102.527a2.588 2.588 0 0 1 2.588-2.587h7.488a2.588 2.588 0 1 1 0 5.175h-7.488a2.588 2.588 0 0 1-2.588-2.588zM79.638 99.789a2.588 2.588 0 0 1 .885-3.551l6.419-3.857a2.588 2.588 0 1 1 2.666 4.436l-6.42 3.857a2.588 2.588 0 0 1-3.55-.885z" fill="#585858"/><g transform="rotate(-28 51.543 -2.054)"><path d="M12.16 0h36.68a2 2 0 0 1 1.994 2.154l-1.692 21.964a2 2 0 0 1-1.994 1.846H13.852a2 2 0 0 1-1.994-1.846L10.166 2.154A2 2 0 0 1 12.16 0z" fill="#585858"/><path d="M49.5 21l-.319 3.165a2 2 0 0 1-1.99 1.8H13.81a2 2 0 0 1-1.99-1.8L11.5 21h38z" fill="#727272"/><rect fill="#585858" x="0" y="24" width="61" height="4" rx="2"/><path d="M30.755 21.489c3.589 0 6.497 2.916 6.497 6.511H24.257c0-3.595 2.91-6.511 6.498-6.511z" fill="#FF9600"/><path d="M23.811 28c3.831 0 6.937-3.057 6.937-6.828 0-3.77-3.106-6.827-6.937-6.827-3.832 0-6.938 3.057-6.938 6.827 0 3.771 3.106 6.828 6.938 6.828z" fill="#FF9600" fill-rule="nonzero"/></g><path d="M84.783 30.024l-1.306 1.436a1.5 1.5 0 0 1-2.586-.741l-.346-1.91-1.77-.798a1.5 1.5 0 0 1-.094-2.689l1.71-.919.212-1.93a1.5 1.5 0 0 1 2.528-.92l1.403 1.342 1.9-.394a1.5 1.5 0 0 1 1.657 2.12l-.843 1.748.962 1.686a1.5 1.5 0 0 1-1.504 2.23l-1.923-.261zM8.61 41.28l-2.896.496a1.5 1.5 0 0 1-1.58-2.176L5.5 37l-1.367-2.6a1.5 1.5 0 0 1 1.581-2.176l2.895.496 2.05-2.103a1.5 1.5 0 0 1 2.56.831l.422 2.907 2.634 1.3a1.5 1.5 0 0 1 0 2.69l-2.634 1.3-.423 2.907a1.5 1.5 0 0 1-2.558.831L8.61 41.28zM98.14 16.226l-2.645 2.911a1.5 1.5 0 0 1-2.586-.741l-.7-3.87-3.587-1.617a1.5 1.5 0 0 1-.094-2.689l3.465-1.863.43-3.91a1.5 1.5 0 0 1 2.527-.92l2.842 2.72 3.851-.8a1.5 1.5 0 0 1 1.657 2.12l-1.708 3.543 1.95 3.415a1.5 1.5 0 0 1-1.504 2.23l-3.897-.529z" fill="#FFD900"/></g></svg>