<svg viewBox="0 0 136 124" fill="none" xmlns="http://www.w3.org/2000/svg"><path d="M11.046 28c0-9.389 7.611-17 17-17h79c9.389 0 17 7.611 17 17v79c0 9.389-7.611 17-17 17h-79c-9.389 0-17-7.611-17-17V28z" fill="#58CC02"/><path fill-rule="evenodd" clip-rule="evenodd" d="M40.05 32.343a1.5 1.5 0 0 1 1.337 1.648l-6.575 62.982a1.5 1.5 0 1 1-2.984-.312l6.575-62.982a1.5 1.5 0 0 1 1.648-1.336z" fill="#E5E5E5"/><path fill-rule="evenodd" clip-rule="evenodd" d="M25.708 61.877a1.5 1.5 0 0 1 1.738 1.217l7.077 40.145a1.5 1.5 0 1 1-2.954.521l-7.078-40.145a1.5 1.5 0 0 1 1.217-1.738z" fill="#E5E5E5"/><path fill-rule="evenodd" clip-rule="evenodd" d="M55.628 47.931a1.5 1.5 0 0 0-1.955.825l-22.016 54.179a1.5 1.5 0 0 0 2.78 1.13l22.016-54.18a1.5 1.5 0 0 0-.825-1.954z" fill="#E5E5E5"/><path d="M38.22 41.939c11.142 1.431 21.334-6.44 22.766-17.582 1.43-11.142-6.441-21.334-17.583-22.765C32.262.16 22.07 8.032 20.638 19.174c-1.431 11.141 6.44 21.334 17.582 22.765z" fill="#FF4B4B"/><path fill-rule="evenodd" clip-rule="evenodd" d="M41.115 40.768l1.775 5.086a1.743 1.743 0 0 1-1.868 2.304l-4.78-.614a1.743 1.743 0 0 1-1.224-2.701l3.003-4.473a1.743 1.743 0 0 1 3.094.398z" fill="#FF4B4B"/><path fill-rule="evenodd" clip-rule="evenodd" d="M34.268 10.358c.738 1.05.485 2.5-.566 3.239-2.123 1.491-3.044 3.35-2.96 5.795a2.325 2.325 0 0 1-4.646.16c-.14-4.069 1.57-7.396 4.933-9.76a2.325 2.325 0 0 1 3.239.566z" fill="#FF7878"/><path fill-rule="evenodd" clip-rule="evenodd" d="M43.089 36.468a2.325 2.325 0 0 1 1.128-3.088c4.886-2.27 7.658-5.954 8.484-11.267a2.325 2.325 0 0 1 4.594.714c-1.065 6.85-4.827 11.846-11.119 14.77a2.325 2.325 0 0 1-3.087-1.129z" fill="#EA2B2B"/><path d="M26.069 62.804c11.01-2.229 18.128-12.96 15.899-23.97-2.23-11.01-12.962-18.129-23.971-15.9-11.01 2.23-18.128 12.961-15.9 23.971 2.23 11.01 12.962 18.128 23.972 15.9z" fill="#FFC800"/><path fill-rule="evenodd" clip-rule="evenodd" d="M27.293 60.995l3.318 4.245a1.743 1.743 0 0 1-1.028 2.782l-4.723.956a1.743 1.743 0 0 1-2.028-2.163l1.405-5.201a1.743 1.743 0 0 1 3.056-.619z" fill="#FFC800"/><path fill-rule="evenodd" clip-rule="evenodd" d="M14.513 31.437a2.325 2.325 0 0 1-.345 3.27c-2.017 1.632-2.81 3.548-2.56 5.982a2.324 2.324 0 1 1-4.626.474c-.415-4.05 1.066-7.485 4.262-10.07a2.325 2.325 0 0 1 3.27.344z" fill="#FFD900"/><path fill-rule="evenodd" clip-rule="evenodd" d="M25.765 57.345a2.324 2.324 0 0 1 .917-3.157c4.721-2.596 7.238-6.459 7.702-11.816a2.324 2.324 0 1 1 4.632.401C38.417 49.68 35 54.92 28.922 58.261a2.324 2.324 0 0 1-3.157-.916z" fill="#FFB100"/><path d="M50.932 55.893c10.723 3.348 22.13-2.63 25.478-13.352 3.349-10.722-2.629-22.13-13.351-25.478-10.723-3.348-22.13 2.63-25.478 13.352-3.349 10.722 2.629 22.129 13.351 25.478z" fill="#CE82FF"/><path fill-rule="evenodd" clip-rule="evenodd" d="M53.986 55.243l.864 5.318a1.743 1.743 0 0 1-2.241 1.943l-4.6-1.436a1.743 1.743 0 0 1-.736-2.873l3.736-3.882a1.743 1.743 0 0 1 2.977.93z" fill="#CE82FF"/><path fill-rule="evenodd" clip-rule="evenodd" d="M47.136 28.287a2.325 2.325 0 0 1 .49 3.251c-1.541 2.088-1.827 4.142-.972 6.435a2.324 2.324 0 1 1-4.357 1.623c-1.421-3.815-.853-7.512 1.589-10.82a2.324 2.324 0 0 1 3.25-.489z" fill="#DAA2FF"/><path fill-rule="evenodd" clip-rule="evenodd" d="M63.773 50.259a2.325 2.325 0 0 1 .092-3.286c3.916-3.702 5.378-8.074 4.479-13.375a2.324 2.324 0 1 1 4.583-.778c1.16 6.834-.826 12.765-5.868 17.531a2.324 2.324 0 0 1-3.286-.092z" fill="#A570FF"/><path d="M79.493 49.104a11.881 11.881 0 0 0-.121-.562c-1.516-6.305-7.855-10.187-14.16-8.671-6.304 1.516-10.187 7.855-8.67 14.16 1.486 6.186 7.617 10.04 13.803 8.75.035.188.076.375.12.563 1.516 6.304 7.856 10.186 14.16 8.67 6.305-1.515 10.187-7.855 8.671-14.16-1.487-6.185-7.618-10.039-13.803-8.75z" fill="#FF9600"/><path d="M51.861 83.17c-2.025-8.424 3.162-16.894 11.585-18.919l38.726-9.31c8.423-2.025 16.893 3.162 18.918 11.585l5.993 24.928c2.025 8.423-3.162 16.893-11.585 18.918l-38.726 9.31c-8.423 2.025-16.893-3.162-18.918-11.585l-5.993-24.928z" fill="#FFC6B7"/><path d="M88.475 83.164c.157-.038 2.077 1.833 4.048 3.807 1.962 1.965.997 5.302-1.702 5.95-2.7.65-5.075-1.884-4.22-4.526.858-2.654 1.717-5.194 1.874-5.231z" fill="#EE9583"/><path d="M89.385 80.185l-.429-1.782c5.491-3.939 10.067-8.223 13.471-12.515a8.892 8.892 0 0 1 3.051 4.843l.829 3.449c-7.136 2.653-12.18 6.524-15.081 9.66a8.889 8.889 0 0 1-1.841-3.655zM67.679 79.818l-.022-.091c5.505.69 11.735.664 18.328-.158l.326 1.355a8.921 8.921 0 0 1-2.247 8.278 44.2 44.2 0 0 0-7.28-.425c-1.99.043-3.878.204-5.584.431a8.887 8.887 0 0 1-2.252-4.11l-1.269-5.28z" fill="#fff"/><path d="M92.32 79.462l-.729-3.03a71.739 71.739 0 0 0 6.352-5.565c.472.495.824 1.117.996 1.83l1.057 4.398c-2.546 1.43-4.681 2.974-6.4 4.463a3.989 3.989 0 0 1-1.276-2.096zM76.124 83.356l-.754-3.14a80.004 80.004 0 0 0 8.155-.376l.394 1.642a4.009 4.009 0 0 1-7.794 1.874z" fill="#3D3D3D"/><path fill-rule="evenodd" clip-rule="evenodd" d="M73.853 94.861a3.312 3.312 0 0 1 4.61.83c.594.856 1.468 1.807 2.711 2.397 1.172.556 2.97.935 5.738.18a3.312 3.312 0 0 1 1.743 6.39c-4.16 1.135-7.596.706-10.319-.585-2.65-1.256-4.333-3.191-5.313-4.602a3.312 3.312 0 0 1 .83-4.61z" fill="#fff"/><path d="M107.93 54.642c6.23.84 11.602 5.404 13.16 11.884l2.138 8.896-.061.014c-5.373 1.281-10.766-2.036-12.047-7.408l-3.19-13.386zM57.508 67.096L60.6 80.07c1.219 5.112-1.724 10.242-6.64 11.831l-2.099-8.732c-1.488-6.192.92-12.409 5.647-16.073z" fill="#FFB67A"/><path d="M54.274 101.708a6.344 6.344 0 1 0-2.966-12.336 6.344 6.344 0 0 0 2.966 12.336zM127.369 84.135a6.344 6.344 0 1 0-2.967-12.336 6.344 6.344 0 0 0 2.967 12.336z" fill="#FFC6B7"/><path fill-rule="evenodd" clip-rule="evenodd" d="M111.704 49.012l12.065-2.873-3.579-2.96-8.895 4.755a.581.581 0 0 0 .409 1.078z" fill="#9A9898"/><path d="M103.103 15.823c.522-.636 1.45-.738 2.074-.227l15.282 12.514c.33.27.523.675.528 1.107l.169 13.634a1.515 1.515 0 0 1-1.23 1.502l-13.4 2.523a1.45 1.45 0 0 1-1.189-.3l-3.962-3.244c-.625-.512-.707-1.444-.184-2.082l.283-.344-2.365.095c-.356.015-.702-.1-.975-.324l-19.37-15.862c-4.996-4.091-5.66-11.542-1.485-16.64 4.176-5.1 11.611-5.917 16.607-1.826l6.981 5.718c.297.243.485.595.522.982l.421 4.348 1.293-1.574z" fill="#AFAFAF"/><path d="M77.279 8.174l43.534 35.651c-.219.268-.529.46-.887.528l-13.401 2.523c-.424.08-.858-.03-1.188-.3l-3.962-3.244c-.625-.512-.707-1.444-.184-2.082l.283-.344-2.365.096c-.356.014-.702-.101-.975-.325l-19.37-15.862c-4.996-4.091-5.66-11.542-1.485-16.64z" fill="#9A9898"/><path d="M77.315 8.204L95.443 23.05a2.318 2.318 0 0 0 .55-1.744L94.548 6.81l-.587-.481C88.966 2.239 81.53 3.056 77.355 8.155l-.04.049zM100.597 27.27l8.772 7.183.082-.014-8.772-7.183-.082.014zM121.062 43.543c.111-.214.172-.457.169-.711l-.168-13.635a1.453 1.453 0 0 0-.529-1.106l-7.834-6.416.391 15.064 7.372 6.036-.068.228.667.54z" fill="silver"/><path d="M93.91 23.849l-14.468 1.44-.603-.494c-4.98-4.078-5.656-11.494-1.525-16.592l18.13 14.846a2.316 2.316 0 0 1-1.534.8zM109.625 34.39l-8.672-7.203-15.804 2.776 8.771 7.182 15.705-2.754z" fill="#AFAFAF"/><path fill-rule="evenodd" clip-rule="evenodd" d="M105.417 31.619a.929.929 0 0 1 1.292-.142l21.181 16.655a1.463 1.463 0 1 1-1.853 2.263l-20.504-17.482a.928.928 0 0 1-.116-1.294z" fill="#DADADA"/></svg>