<svg viewBox="0 0 135 124" fill="none" xmlns="http://www.w3.org/2000/svg"><path d="M11 28c0-9.389 7.611-17 17-17h79c9.389 0 17 7.611 17 17v79c0 9.389-7.611 17-17 17H28c-9.389 0-17-7.611-17-17V28z" fill="#FF7878"/><path d="M89.19 57.584l3.43.76a10.237 10.237 0 0 1 7.965 11.091l-.014.121-14.933-1.61a3.198 3.198 0 0 1-2.836-3.523l.263-2.44a5.06 5.06 0 0 1 6.125-4.399zM114.949 60.362a5.06 5.06 0 0 1 5.046 5.603l-.263 2.441a3.198 3.198 0 0 1-3.522 2.837l-14.934-1.611.013-.12a10.237 10.237 0 0 1 10.148-9.14l3.512-.01z" fill="#FFD300"/><path d="M98.319 63.628l6.824.736a2.422 2.422 0 0 1 2.148 2.668l-.519 4.817a2.423 2.423 0 0 1-2.669 2.149l-6.824-.736a2.423 2.423 0 0 1-2.148-2.668l.52-4.818a2.422 2.422 0 0 1 2.668-2.148z" fill="#FFA900"/><path d="M80.43 75.1l39.339 4.242a3.23 3.23 0 0 1 2.865 3.558l-3.117 28.902a3.23 3.23 0 0 1-3.558 2.865l-39.339-4.243a3.23 3.23 0 0 1-2.865-3.558l3.118-28.902A3.23 3.23 0 0 1 80.43 75.1z" fill="#AB72EC"/><path d="M76.093 85.19l.78-7.226a3.22 3.22 0 0 1 .363-1.179l45.295 4.886c.11.388.149.803.103 1.229l-.779 7.226-45.762-4.936z" fill="#9069CD"/><path d="M90.266 111.896l3.637-33.719a3.215 3.215 0 0 1 .603-1.56l11.585 1.25a3.22 3.22 0 0 1 .256 1.652l-3.637 33.719-12.444-1.342z" fill="#FFD300"/><path d="M93.862 78.578l12.444 1.342-.909 8.43-12.444-1.342.909-8.43z" fill="#FFA900"/><path d="M78.13 66.323l46.163 4.98a2.423 2.423 0 0 1 2.149 2.668l-1.039 9.634a2.423 2.423 0 0 1-2.669 2.148l-46.163-4.979a2.422 2.422 0 0 1-2.149-2.668l1.04-9.634a2.422 2.422 0 0 1 2.668-2.149z" fill="#AB72EC"/><path d="M92.226 82.463l1.559-14.451 14.852 1.602-1.558 14.45-14.853-1.601z" fill="#FFD300"/><path fill-rule="evenodd" clip-rule="evenodd" d="M5.136 37.416C3.757 20.069 16.701 4.889 34.048 3.51 51.394 2.13 66.574 15.075 67.954 32.42l.05.638c1.38 17.346-11.565 32.527-28.911 33.906C21.746 68.344 6.566 55.4 5.187 38.053l-.05-.637z" fill="#0084C2"/><path d="M51.669 7.273L22.55 35.933l2.132 2.166L54.335 8.912c-.86-.589-1.75-1.136-2.666-1.639z" fill="#006AAD"/><path fill-rule="evenodd" clip-rule="evenodd" d="M15.76 39.96l19.853-16.52 21.919 13.198 3.7 46.536-41.773 3.321-3.7-46.536z" fill="#C6775C"/><path fill-rule="evenodd" clip-rule="evenodd" d="M23.847 46.751a162.454 162.454 0 0 1-.754-1.523l.001-.001.004-.002.01-.004.026-.013a6.784 6.784 0 0 1 .35-.155 12.925 12.925 0 0 1 4.11-.933c2.605-.146 5.966.537 8.687 3.797a1.7 1.7 0 1 1-2.61 2.178c-1.87-2.24-4.073-2.683-5.886-2.582a9.531 9.531 0 0 0-2.996.68 5.344 5.344 0 0 0-.191.083l-.002.001c-.001 0 0 0 0 0a1.7 1.7 0 0 1-1.505-3.048l.756 1.522zm.75 1.525zM50.811 44.608c.505-1.623.505-1.623.504-1.624h-.002l-.004-.002-.01-.002-.027-.009a8.219 8.219 0 0 0-.371-.098 12.922 12.922 0 0 0-4.206-.272c-2.595.268-5.806 1.474-7.978 5.123a1.7 1.7 0 1 0 2.921 1.738c1.493-2.507 3.599-3.293 5.405-3.48a9.528 9.528 0 0 1 3.066.197c.078.019.135.034.169.044l.032.009h.003a1.7 1.7 0 0 0 1.003-3.247l-.505 1.623zm-.5 1.624h.001z" fill="#87401A"/><path fill-rule="evenodd" clip-rule="evenodd" d="M23.129 54.622l.06-.005-.284-3.558c.184-.015.492 0 .71.012.292.015.689.042 1.164.085.95.084 2.231.233 3.645.484 2.753.488 6.299 1.409 8.778 3.202l-2.091 2.892c-1.787-1.292-4.648-2.108-7.31-2.58a39.708 39.708 0 0 0-3.34-.443 29.3 29.3 0 0 0-1.036-.076c-.213-.011-.296-.012-.296-.013z" fill="#C6775C"/><path fill-rule="evenodd" clip-rule="evenodd" d="M7.647 77.086c-.794-9.994 6.663-18.74 16.657-19.535l27.423-2.18c9.994-.795 18.74 6.663 19.535 16.657.794 9.994-6.663 18.74-16.658 19.535l-27.422 2.18c-9.994.794-18.74-6.663-19.535-16.657z" fill="#3D3D3D"/><path d="M40.435 63.95l-.137.003c-4.113.112-6.862-.978-8.562-3.237l-.077-.105c-2.681-3.69-7.851-4.51-11.548-1.832a8.249 8.249 0 0 0-1.838 11.53c5.189 7.142 13.214 10.4 22.469 10.15 4.565-.123 8.166-3.918 8.043-8.476-.121-4.513-3.847-8.081-8.35-8.032z" fill="#000"/><path fill-rule="evenodd" clip-rule="evenodd" d="M40.376 60.042h.016c6.63-.072 12.122 5.18 12.3 11.835.182 6.722-5.127 12.308-11.844 12.49-10.278.278-19.647-3.377-25.737-11.76-3.953-5.44-2.737-13.05 2.707-16.994 5.436-3.939 13.04-2.739 16.993 2.686l.057.078c.67.882 1.958 1.76 5.324 1.668h.016l.168-.003zm-8.64.674l-.077-.105c-2.681-3.69-7.851-4.51-11.548-1.832a8.249 8.249 0 0 0-1.838 11.53c5.189 7.142 13.214 10.4 22.469 10.15 4.565-.123 8.166-3.918 8.043-8.476-.121-4.513-3.847-8.081-8.35-8.032l-.137.002c-4.113.112-6.862-.978-8.562-3.237z" fill="#3D3D3D"/><path d="M43.454 55.227a5.438 5.438 0 1 1-10.841.862 5.438 5.438 0 0 1 10.841-.862z" fill="#C6775C"/><path d="M42.916 64.303a8.262 8.262 0 0 0-2.484-.352l-.137.003c-4.113.111-6.862-.978-8.561-3.237l-.078-.105c-2.681-3.69-7.851-4.51-11.547-1.833a8.23 8.23 0 0 0-3.295 5.292 4.56 4.56 0 0 0 4.53 2.7l19.133-1.52a4.537 4.537 0 0 0 2.44-.948zM48.609 73.91a8.27 8.27 0 0 1-7.87 6.55c-6.367.172-12.151-1.316-16.83-4.587l24.7-1.964z" fill="#fff"/><path d="M77.427 25.383a6.091 6.091 0 0 0-1.038 8.552l8.314 10.61a1 1 0 0 0 1.404.171l10.61-8.314a6.092 6.092 0 1 0-7.514-9.59l-1.02.8a1 1 0 0 1-1.405-.171l-.799-1.02a6.092 6.092 0 0 0-8.552-1.038zM42.672 103.793a4.949 4.949 0 0 0 1.914 6.732l9.404 5.239a1 1 0 0 0 1.36-.386l5.238-9.404a4.949 4.949 0 1 0-8.647-4.817l-.421.756a1 1 0 0 1-1.36.386l-.756-.421a4.95 4.95 0 0 0-6.732 1.915z" fill="#FFBDBD"/><path d="M99.213 43.59a4.285 4.285 0 0 0-2.23 5.636l3.65 8.43a1 1 0 0 0 1.315.52l8.429-3.65a4.286 4.286 0 0 0-3.405-7.865l-.565.244a1 1 0 0 1-1.315-.52l-.244-.564a4.285 4.285 0 0 0-5.635-2.23z" fill="#FFBDBD" fill-opacity=".5"/></svg>