<svg viewBox="0 0 136 124" fill="none" xmlns="http://www.w3.org/2000/svg"><rect x="12.025" y="11" width="113" height="113" rx="17" fill="#1CB0F6"/><path d="M19.562 27.55c0-6.577 5.33-11.908 11.907-11.908h37.423c6.576 0 11.907 5.331 11.907 11.908v38.38c.011 1.19.183 3.662 2.897 3.862h6.034c.704 0 1.275.572 1.275 1.276 0 7.124-5.775 12.9-12.9 12.9H21.83c-7.124 0-12.9-5.776-12.9-12.9 0-.704.572-1.275 1.277-1.275h6.458c2.778-.206 2.893-2.79 2.898-3.945V27.55z" fill="#FFB100"/><path fill-rule="evenodd" clip-rule="evenodd" d="M23.672 35.063c0-6.185 5.014-11.199 11.198-11.199h29.627c6.185 0 11.199 5.014 11.199 11.199v48.48H23.672v-48.48z" fill="#FFC6B7"/><path fill-rule="evenodd" clip-rule="evenodd" d="M35.832 37.853a6.684 6.684 0 0 1 13.367 0v4.065a6.684 6.684 0 1 1-13.367 0v-4.065z" fill="#fff"/><path d="M41.715 38.367a2.197 2.197 0 0 0 2.117-2.789 3 3 0 0 1 3.53 2.954v3.769a3 3 0 1 1-6 0v-3.769c0-.065.001-.129.005-.192.114.018.23.027.348.027z" fill="#3D3D3D"/><path d="M52.644 34.212a6.652 6.652 0 0 0-1.078 3.64v4.066a6.684 6.684 0 0 0 13.368 0v-4.065c0-1.37-.412-2.644-1.12-3.705a14.267 14.267 0 0 1-5.317 1.021h-.698c-1.818 0-3.556-.338-5.155-.956z" fill="#fff"/><path d="M53.427 38.213a2.197 2.197 0 0 0 2.914-2.68l.07-.002a3 3 0 0 1 3 3.001v3.769a3 3 0 1 1-6 0v-3.769c0-.108.005-.214.016-.32z" fill="#3D3D3D"/><rect x="21.264" y="77.022" width="57.127" height="8.505" rx="1.559" fill="#FF4B4B"/><path fill-rule="evenodd" clip-rule="evenodd" d="M47.561 77.606c.123-.509.579-.868 1.103-.868h3.458c.524 0 .98.36 1.103.868l2.288 9.498c.172.713-.368 1.4-1.102 1.4h-8.036a1.134 1.134 0 0 1-1.102-1.4l2.288-9.498z" fill="#EBE3E3"/><path fill-rule="evenodd" clip-rule="evenodd" d="M50.338 52.34a2.976 2.976 0 0 0 2.977-2.975c0-1.643-2.977-5.53-2.977-5.53s-2.977 3.887-2.977 5.53a2.976 2.976 0 0 0 2.977 2.975zM58.779 55.598a2.893 2.893 0 0 0-3.88.287 4.568 4.568 0 0 1-5.274.98l-.106-.051a3.055 3.055 0 0 0-3.934 1.19l-.768 1.286a.837.837 0 1 1-1.438-.86l.769-1.285a4.73 4.73 0 0 1 6.09-1.844l.106.05a2.893 2.893 0 0 0 3.34-.62 4.568 4.568 0 0 1 6.127-.453l1.215.95a.838.838 0 0 1-1.032 1.32l-1.215-.95z" fill="#F3A577"/><path d="M28.995 25.528a11.192 11.192 0 0 0-5.323 9.535v10.97a5.883 5.883 0 0 0 5.386-5.862V26.394c0-.294-.021-.583-.063-.866zM70.898 25.873a11.186 11.186 0 0 1 4.798 9.19v10.895a5.885 5.885 0 0 1-4.82-5.787V26.394c0-.175.007-.35.022-.52z" fill="#FFB100"/><rect x="17.865" y="21.312" width="64.629" height="7.513" rx="1.843" fill="#FF4B4B"/><path d="M38.66 20.14a10.905 10.905 0 0 1-2.485-2.056c-3.153-3.51-3.676-8.605-1.383-12.588.478-.829 1.364-.948 2.004-.236l2.502 2.726A12.75 12.75 0 0 1 50.18 1.892c7.046 0 12.758 5.712 12.758 12.758 0 7.046-5.712 12.758-12.758 12.758-5.08 0-9.467-2.97-11.52-7.267z" fill="#FFB100"/><path d="M21.335 53.284a5.741 5.741 0 1 0 0-11.482 5.741 5.741 0 0 0 0 11.482zM78.462 53.284a5.741 5.741 0 1 0 0-11.483 5.741 5.741 0 0 0 0 11.483z" fill="#FFC6B7"/><path d="M107.944 113.238l-26.923-6.82a2.033 2.033 0 0 1-1.5-2.337l8.791-47.9 37.137 9.407-15.073 46.309a2.032 2.032 0 0 1-2.432 1.341z" fill="#EBE3E3"/><path d="M90.721 50.016l36.607 9.273a4.106 4.106 0 0 1-2.016 7.958l-36.607-9.273a4.105 4.105 0 0 1 2.016-7.958z" fill="#4B4B4B"/><path d="M125.726 62.27L90.711 53.4l2.353-7.679a3.649 3.649 0 0 1 4.386-2.468l27.208 6.902a3.65 3.65 0 0 1 2.677 4.27l-1.609 7.845z" fill="#4B4B4B"/><path d="M80.806 90.066l4.594-22.38a1.947 1.947 0 0 1 2.314-1.494l.069.016 33.757 8.552a1.947 1.947 0 0 1 1.435 2.254l-.034.146-6.687 21.89a1.824 1.824 0 0 1-2.193 1.236l-31.916-8.085a1.824 1.824 0 0 1-1.34-2.135z" fill="#CD7900"/><path d="M99.707 91.436a8.209 8.209 0 0 0 9.974-5.943 8.21 8.21 0 1 0-9.974 5.942z" fill="#fff"/></svg>