<svg viewBox="0 0 135 124" fill="none" xmlns="http://www.w3.org/2000/svg"><path d="M11 28c0-9.389 7.611-17 17-17h79c9.389 0 17 7.611 17 17v79c0 9.389-7.611 17-17 17H28c-9.389 0-17-7.611-17-17V28z" fill="#B2B2B2"/><path d="M37.057 13.208a10.79 10.79 0 0 0-.027-.518c-.452-5.836-5.55-10.2-11.386-9.75-5.836.453-10.2 5.55-9.749 11.386.444 5.727 5.36 10.036 11.057 9.77.005.172.014.345.027.518.452 5.836 5.55 10.201 11.386 9.75 5.836-.453 10.2-5.55 9.749-11.386-.443-5.727-5.359-10.036-11.056-9.77z" fill="#9F9F9F"/><path d="M7.462 38.252c-.544-7.035 4.716-13.178 11.75-13.723l38.613-2.99c7.034-.544 13.178 4.717 13.723 11.751l2 25.84c.545 7.033-4.716 13.177-11.75 13.722l-38.612 2.99c-7.035.544-13.178-4.717-13.723-11.751l-2-25.84z" fill="#E5E5E5"/><path fill-rule="evenodd" clip-rule="evenodd" d="M44.108 59.592a.798.798 0 0 1-1.128.017c-.496-.48-1.454-1.101-2.64-1.315-1.155-.208-2.554-.038-4.024 1.085a.798.798 0 0 1-.97-1.27c1.845-1.409 3.704-1.67 5.277-1.386 1.54.277 2.777 1.069 3.469 1.74a.798.798 0 0 1 .017 1.13z" fill="#B2B2B2"/><path d="M40.365 46.879c.145-.012 1.59 1.93 3.065 3.971 1.468 2.031.133 4.868-2.366 5.062-2.499.193-4.255-2.404-3.117-4.637 1.144-2.244 2.272-4.385 2.418-4.396z" fill="#CDCDCD"/><path d="M7.074 56.503a5.727 5.727 0 1 0-.884-11.42 5.727 5.727 0 0 0 .884 11.42zM74.739 51.264a5.727 5.727 0 1 0-.884-11.419 5.727 5.727 0 0 0 .884 11.42z" fill="#E5E5E5"/><path d="M14.653 25.754c-4.603 2.22-7.609 7.096-7.19 12.498l.76 9.82.467-.037a7.665 7.665 0 0 0 7.05-8.233l-1.087-14.048zM62.52 22.048c4.889 1.485 8.61 5.84 9.028 11.242l.76 9.82-.468.036a7.665 7.665 0 0 1-8.233-7.05l-1.088-14.048z" fill="#CECECE"/><path fill-rule="evenodd" clip-rule="evenodd" d="M48.675 31.327a8.06 8.06 0 0 1 8.659 7.414l.378 4.888a8.06 8.06 0 0 1-16.072 1.245l-.379-4.888a8.06 8.06 0 0 1 7.414-8.659z" fill="#fff"/><path d="M43.989 40.898a2.934 2.934 0 0 0 2.472-4.078 3.619 3.619 0 0 1 4.516 3.224l.35 4.528a3.619 3.619 0 1 1-7.215.559l-.327-4.224c.067 0 .135-.004.204-.01z" fill="#979797"/><path fill-rule="evenodd" clip-rule="evenodd" d="M30.01 32.772a8.06 8.06 0 0 0-7.413 8.659l.378 4.888a8.06 8.06 0 0 0 16.073-1.245l-.379-4.888a8.06 8.06 0 0 0-8.658-7.414z" fill="#fff"/><path d="M29.306 42.035a2.933 2.933 0 0 0 2.472-4.078 3.619 3.619 0 0 1 4.516 3.224l.351 4.528a3.619 3.619 0 1 1-7.216.559l-.327-4.225c.068 0 .136-.003.204-.008z" fill="#979797"/><path d="M19.798 33.04l38.759-3.002.985 12.732-38.759 3.001-.985-12.732z" fill="#E5E5E5"/><path fill-rule="evenodd" clip-rule="evenodd" d="M39.662 38.27a1.124 1.124 0 0 1 1.207 1.034l.113 1.457a3.821 3.821 0 0 1-3.515 4.105l-15.015 1.162a1.124 1.124 0 0 1-.174-2.241l15.016-1.163a1.573 1.573 0 0 0 1.447-1.69l-.113-1.456a1.124 1.124 0 0 1 1.034-1.208z" fill="#B2B2B2"/><path fill-rule="evenodd" clip-rule="evenodd" d="M39.734 38.265a1.124 1.124 0 0 0-1.034 1.207l.113 1.457a3.821 3.821 0 0 0 4.105 3.515l15.015-1.163a1.124 1.124 0 0 0-.173-2.241l-15.016 1.162a1.573 1.573 0 0 1-1.69-1.447l-.113-1.457a1.124 1.124 0 0 0-1.207-1.033z" fill="#B2B2B2"/><path fill-rule="evenodd" clip-rule="evenodd" d="M106.286 34.74a4.17 4.17 0 0 0 2.851-.649l22.382-14.74a4.168 4.168 0 0 0 1.189-5.773l-7.15-10.856a4.168 4.168 0 0 0-5.773-1.189l-22.383 14.74a4.169 4.169 0 0 0-1.722 2.362l-2.656 9.531a4.168 4.168 0 0 0 3.457 5.25l9.805 1.325zM97.9 25.878a2.372 2.372 0 1 1 2.61 3.963 2.372 2.372 0 0 1-2.61-3.963z" fill="#CECECE"/><path d="M56.023 87.192H11.911a2.24 2.24 0 0 0-2.24 2.24v18.87a2.24 2.24 0 0 0 2.24 2.24h44.112a2.24 2.24 0 0 0 2.24-2.24v-18.87a2.24 2.24 0 0 0-2.24-2.24z" fill="#9F9F9F"/><path d="M46.694 76.321L3.163 83.46a2.24 2.24 0 0 0-1.848 2.573l3.053 18.621a2.24 2.24 0 0 0 2.573 1.848l43.53-7.138a2.24 2.24 0 0 0 1.849-2.572l-3.054-18.622a2.24 2.24 0 0 0-2.572-1.848z" fill="#979797"/><path d="M47.023 78.577l-43.58 7.145 3.075 18.757 43.58-7.146-3.075-18.756z" fill="#B2B2B2"/><path d="M2.072 90.653a5.08 5.08 0 0 0 2.199.12 5.102 5.102 0 0 0 4.222-5.879 5.098 5.098 0 0 0-.92-2.158l-4.41.723a2.24 2.24 0 0 0-1.848 2.573l.757 4.621zm40.072-11.276a5.102 5.102 0 0 0 5.877 4.222c.722-.119 1.415-.407 2.01-.766l-.765-4.664a2.24 2.24 0 0 0-2.573-1.848l-4.366.716a5.098 5.098 0 0 0-.183 2.34zM5.669 99.302a5.085 5.085 0 0 0-2.045.814l.744 4.537a2.24 2.24 0 0 0 2.573 1.848l4.494-.737c.193-.685.28-1.484.154-2.248-.501-2.793-3.119-4.674-5.92-4.214zm45.9-7.09c-.685-.193-1.385-.21-2.15-.084a5.102 5.102 0 0 0-4.22 5.878c.124.764.42 1.5.863 2.081l4.41-.723a2.24 2.24 0 0 0 1.848-2.573l-.751-4.58zm-39.531-.578a2.79 2.79 0 0 0-2.306 3.21 2.79 2.79 0 0 0 3.21 2.306 2.79 2.79 0 0 0 2.306-3.21 2.79 2.79 0 0 0-3.21-2.306zM18.624 94.218c-.901-5.496 2.104-10.524 6.717-11.28 4.612-.756 9.066 3.049 9.967 8.544.571 3.484-.451 6.776-2.468 8.921l-9.029 1.48c-2.596-1.388-4.616-4.181-5.187-7.665zM41.12 92.53a2.795 2.795 0 1 0-.905-5.516 2.795 2.795 0 0 0 .904 5.517zM61.425 98.034a8.26 8.26 0 1 0 0-16.522 8.26 8.26 0 0 0 0 16.522z" fill="#979797"/><path d="M53.164 87.938h16.521v1.835H53.164v-1.835z" fill="#979797"/><path d="M53.164 87.938h5.777v1.835h-5.777v-1.835z" fill="#979797"/><path d="M61.425 95.892a8.26 8.26 0 1 0 0-16.521 8.26 8.26 0 0 0 0 16.52z" fill="#D3D3D3"/><path fill-rule="evenodd" clip-rule="evenodd" d="M61.425 92.253a4.622 4.622 0 1 0 0-9.244 4.622 4.622 0 0 0 0 9.244zm6.492-4.622a6.493 6.493 0 1 1-12.985 0 6.493 6.493 0 0 1 12.985 0z" fill="#B7B7B7"/><path d="M69.786 20.553a8.26 8.26 0 1 0 0-16.521 8.26 8.26 0 0 0 0 16.521z" fill="#9F9F9F"/><path d="M61.525 10.458h16.521v1.835H61.525v-1.835z" fill="#9F9F9F"/><path d="M61.525 10.458h5.777v1.835h-5.777v-1.835z" fill="#9F9F9F"/><path d="M69.786 18.412a8.26 8.26 0 1 0 0-16.522 8.26 8.26 0 0 0 0 16.522z" fill="#D3D3D3"/><path fill-rule="evenodd" clip-rule="evenodd" d="M69.786 14.773a4.622 4.622 0 1 0 0-9.244 4.622 4.622 0 0 0 0 9.244zm6.492-4.622a6.493 6.493 0 1 1-12.985 0 6.493 6.493 0 0 1 12.985 0z" fill="#B7B7B7"/><path d="M39.82 119.887a6.296 6.296 0 1 0 .001-12.593 6.296 6.296 0 0 0 0 12.593z" fill="#979797"/><path d="M33.524 112.192h12.593v1.399H33.524v-1.399z" fill="#979797"/><path d="M33.524 112.192h4.404v1.399h-4.404v-1.399z" fill="#979797"/><path d="M39.82 118.255a6.297 6.297 0 1 0 0-12.593 6.297 6.297 0 0 0 0 12.593z" fill="#D3D3D3"/><path fill-rule="evenodd" clip-rule="evenodd" d="M39.82 115.481a3.523 3.523 0 1 0 .001-7.045 3.523 3.523 0 0 0 0 7.045zm4.95-3.523a4.95 4.95 0 1 1-9.899 0 4.95 4.95 0 0 1 9.899 0z" fill="#B7B7B7"/><path d="M84.149 30.038a6.296 6.296 0 1 0 0-12.592 6.296 6.296 0 0 0 0 12.592z" fill="#9F9F9F"/><path d="M77.852 22.343h12.593v1.399H77.852v-1.399z" fill="#9F9F9F"/><path d="M77.852 22.343h4.404v1.399h-4.404v-1.399z" fill="#9F9F9F"/><path d="M84.149 28.406a6.296 6.296 0 1 0 0-12.593 6.296 6.296 0 0 0 0 12.593z" fill="#D3D3D3"/><path fill-rule="evenodd" clip-rule="evenodd" d="M84.149 25.632a3.523 3.523 0 1 0 0-7.045 3.523 3.523 0 0 0 0 7.045zm4.948-3.522a4.949 4.949 0 1 1-9.897 0 4.949 4.949 0 0 1 9.897 0z" fill="#B2B2B2"/><path d="M55.228 116.286a6.296 6.296 0 1 0 0-12.593 6.296 6.296 0 0 0 0 12.593z" fill="#979797"/><path d="M48.932 108.591h12.593v1.399H48.932v-1.399z" fill="#979797"/><path d="M48.932 108.591h4.404v1.399h-4.404v-1.399z" fill="#979797"/><path d="M55.228 114.654a6.297 6.297 0 1 0 0-12.593 6.297 6.297 0 0 0 0 12.593z" fill="#D3D3D3"/><path fill-rule="evenodd" clip-rule="evenodd" d="M55.228 111.88a3.523 3.523 0 1 0 0-7.045 3.523 3.523 0 0 0 0 7.045zm4.95-3.523a4.948 4.948 0 1 1-9.897.001 4.948 4.948 0 0 1 9.896-.001z" fill="#B7B7B7"/><path fill-rule="evenodd" clip-rule="evenodd" d="M99.914 27.086a1 1 0 0 1-.09 1.411c-3.116 2.742-9.317 10.893-8.915 21.236l-1.998.078c-.433-11.136 6.19-19.823 9.592-22.815a1 1 0 0 1 1.411.09z" fill="#fff"/><path fill-rule="evenodd" clip-rule="evenodd" d="M87.966 37.816l40.821 6.362a3.005 3.005 0 0 1 2.506 3.432l-3.066 19.668-46.758-7.288 3.066-19.668a3.005 3.005 0 0 1 3.431-2.506z" fill="#979797"/><path d="M121.464 42.878l-1.856-.29a1.127 1.127 0 0 0-1.287.94l-.867 5.567c-.096.615.325 1.19.94 1.287l1.855.289a1.127 1.127 0 0 0 1.287-.94l.868-5.566a1.127 1.127 0 0 0-.94-1.287zM98.05 39.3l-1.855-.29a1.127 1.127 0 0 0-1.287.94l-.868 5.566a1.127 1.127 0 0 0 .94 1.287l1.855.29a1.127 1.127 0 0 0 1.287-.94l.868-5.567a1.127 1.127 0 0 0-.94-1.287z" fill="#CDCDCD"/><path d="M103.096 58.582l-20.231-5.747-15.395 54.192 20.231 5.747 15.395-54.192z" fill="#979797"/><path fill-rule="evenodd" clip-rule="evenodd" d="M69.67 98.15l20.011 6.064a1.878 1.878 0 0 1 1.253 2.342l-1.667 5.501a1.878 1.878 0 0 1-2.342 1.252l-20.01-6.064a1.877 1.877 0 0 1-1.253-2.341l1.667-5.501a1.878 1.878 0 0 1 2.341-1.253z" fill="#CDCDCD"/><path d="M107.684 59.297l21.021.683-1.828 56.306-21.021-.682 1.828-56.307z" fill="#979797"/><path fill-rule="evenodd" clip-rule="evenodd" d="M127.482 107.161l-20.907-.314a1.88 1.88 0 0 0-1.906 1.85l-.086 5.747a1.88 1.88 0 0 0 1.85 1.906l20.907.313a1.878 1.878 0 0 0 1.906-1.849l.086-5.747a1.878 1.878 0 0 0-1.85-1.906zM103.181 40.188l10.762 1.677-2.776 17.813a1.503 1.503 0 0 1-1.716 1.253l-7.793-1.215A1.502 1.502 0 0 1 100.405 58l2.776-17.812z" fill="#CDCDCD"/><path d="M107.475 49.22a3.004 3.004 0 1 0 .925-5.938 3.004 3.004 0 1 0-.925 5.937z" fill="#B2B2B2"/></svg>