<svg id="Cover" xmlns="http://www.w3.org/2000/svg" viewBox="0 0 135 124"><defs><style>.cls-2{fill:#bebebe}.cls-3{fill:#9f9f9f}.cls-4{fill:#e4e4e4}.cls-5{fill:#4db000}.cls-6{fill:#fff}</style></defs><path d="M124 27.79v79.3a15.23 15.23 0 0 1-.12 1.92A17 17 0 0 1 107 124H28a16.94 16.94 0 0 1-12.67-5.67 18.51 18.51 0 0 1-1.18-1.47A17 17 0 0 1 11 107V28a17 17 0 0 1 17-17h79a17 17 0 0 1 17 16.79z" fill="#82e3ff"/><path class="cls-2" d="M67.31 14.44a1.16 1.16 0 0 1-1.16-1.17V1.71a1.17 1.17 0 1 1 2.33 0v11.56a1.17 1.17 0 0 1-1.17 1.17z"/><path class="cls-3" d="M37.54 116.14l2.31-2.66A36.47 36.47 0 0 1 67.31 101a36.47 36.47 0 0 1 27.47 12.49l2.31 2.66L88 94.93H43.54z"/><path class="cls-3" d="M37.06 116.82l-7.12-6 12.66-15a80.67 80.67 0 0 0 9.74-14.41 81.34 81.34 0 0 0 9.36-35.8l1-26.48 9.31.34L71 45.9a90.55 90.55 0 0 1-10.42 39.87 90.68 90.68 0 0 1-10.86 16.07z"/><path class="cls-3" d="M97.57 116.82l-12.66-15a90.2 90.2 0 0 1-21.3-56l-1-26.37 9.39-.31 1 26.43a80.84 80.84 0 0 0 19 50.26l12.66 15z"/><path class="cls-2" d="M40.19 87.14h54.24v4.63a4.63 4.63 0 0 1-4.63 4.63h-45a4.63 4.63 0 0 1-4.63-4.63v-4.63zM52.94 61.2h28.74v4.63a4.63 4.63 0 0 1-4.63 4.63H57.57a4.63 4.63 0 0 1-4.63-4.63V61.2z"/><rect class="cls-2" x="59.62" y="8.42" width="15.38" height="18.08" rx="5.59" ry="5.59"/><path class="cls-4" d="M94.43 88.31H40.19a1.17 1.17 0 0 1 0-2.33h54.24a1.17 1.17 0 1 1 0 2.33zM81.68 62.36H52.94a1.17 1.17 0 0 1 0-2.33h28.74a1.17 1.17 0 1 1 0 2.33zM75 18.63H59.62a1.17 1.17 0 0 1 0-2.33H75a1.17 1.17 0 0 1 0 2.33z"/><path class="cls-3" d="M93.31 116.86h10.47L88.47 98.74l4.84 18.12zM41.19 116.86H30.72l15.31-18.12-4.84 18.12z"/><path class="cls-5" d="M124 101.19v5.9a15.23 15.23 0 0 1-.12 1.92 16.87 16.87 0 0 1-3 7.85H85.37v-3.53a2.93 2.93 0 0 1 2.2-2.84zM11 101.19v5.9a15.23 15.23 0 0 0 .12 1.92 16.87 16.87 0 0 0 3 7.85h35.51v-3.53a2.93 2.93 0 0 0-2.2-2.84z"/><path class="cls-6" d="M124 32.85v12.83a7 7 0 0 1-.81 0h-20.53a6.47 6.47 0 1 1 0-12.93h20.53a7 7 0 0 1 .81.1z"/><rect class="cls-6" x="82.9" y="41.79" width="31.38" height="9.84" rx="4.92" ry="4.92" transform="rotate(-180 98.595 46.71)"/><path class="cls-6" d="M31.78 33.64a4.92 4.92 0 0 1-4.92 4.92H11v-9.84h15.86a4.92 4.92 0 0 1 4.92 4.92z"/><path d="M120.85 116.86A17 17 0 0 1 107 124H28a16.94 16.94 0 0 1-12.67-5.67 18.51 18.51 0 0 1-1.18-1.47z" fill="#75c900"/></svg>