<svg viewBox="0 0 135 124" fill="none" xmlns="http://www.w3.org/2000/svg"><g clip-path="url(#clip0)"><path d="M107 11H28c-9.389 0-17 7.611-17 17v79c0 9.389 7.611 17 17 17h79c9.389 0 17-7.611 17-17V28c0-9.389-7.611-17-17-17z" fill="#B2B2B2"/><path d="M16.598 10.404c-5.841.488-10.18 5.62-9.691 11.46l2.592 30.979a2.814 2.814 0 0 1-2.576 2.937l-5.506.46a1.172 1.172 0 0 0-1.07 1.267c.528 6.312 6.073 11 12.386 10.473l50.486-4.226c6.312-.528 11.001-6.073 10.473-12.386a1.172 1.172 0 0 0-1.266-1.07l-5.507.46a2.814 2.814 0 0 1-3.028-2.47l-2.593-30.975c-.489-5.841-5.62-10.18-11.46-9.691l-33.24 2.782z" fill="#BFBFBF"/><path d="M11.124 25.517L57.33 21.65l3.518 42.027-46.208 3.867-3.517-42.027z" fill="#D8D8D8"/><path d="M35.631 37.855c.122-.01 1.34 1.607 2.586 3.307 1.239 1.691.136 4.072-1.954 4.247-2.09.175-3.572-1.99-2.632-3.864.946-1.883 1.879-3.68 2-3.69z" fill="#BFBFBF"/><path d="M48.38 34.197l-11.872.993.072.87a5.945 5.945 0 0 0 2.52 4.383 12.704 12.704 0 0 1 5.162-1.575 12.781 12.781 0 0 1 3.129.121 5.933 5.933 0 0 0 1.062-3.923l-.072-.87z" fill="#fff"/><path fill-rule="evenodd" clip-rule="evenodd" d="M34.252 30.843a2.11 2.11 0 0 1-.753 2.888l-.323.194c-.501.304-1.14.691-1.902.988-.99.385-2.155.624-3.799.736a2.11 2.11 0 0 1-.287-4.211c1.375-.094 2.087-.277 2.555-.459.391-.152.651-.309 1.096-.576.15-.09.32-.193.524-.313a2.11 2.11 0 0 1 2.889.753zM36.048 29.919a2.11 2.11 0 0 1 2.779-1.09c.718.313 1.19.487 1.745.585.563.1 1.319.14 2.566.035a2.11 2.11 0 0 1 .352 4.206c-1.464.123-2.611.1-3.654-.084-1.053-.187-1.89-.521-2.698-.874a2.11 2.11 0 0 1-1.09-2.779z" fill="#BFBFBF"/><path d="M34.406 35.366l-11.873.994.072.87a5.933 5.933 0 0 0 1.64 3.628c.887-.28 1.82-.467 2.786-.548a12.7 12.7 0 0 1 5.576.778 5.947 5.947 0 0 0 1.871-4.852l-.072-.87z" fill="#fff"/><path d="M32.759 35.504a2.668 2.668 0 0 1-5.289.443l5.289-.443zM43.393 34.614a2.668 2.668 0 0 1-5.289.443l5.29-.443z" fill="#979797"/><path d="M7.03 23.388l8.365-.7.689 8.238a6.081 6.081 0 0 1-1.609 4.657 5.117 5.117 0 0 0-6.59-1.968l-.856-10.227zM61.425 18.836l-8.366.7.69 8.237a6.081 6.081 0 0 0 2.336 4.308 5.117 5.117 0 0 1 6.197-3.006l-.857-10.239z" fill="#BFBFBF"/><path d="M10.522 43.331a5.117 5.117 0 1 0-.854-10.198 5.117 5.117 0 0 0 .854 10.198zM61.262 39.085a5.117 5.117 0 1 0-.853-10.199 5.117 5.117 0 0 0 .853 10.199z" fill="#D8D8D8"/><path d="M5.852 24.64a1.642 1.642 0 0 1 1.5-1.774l54.13-4.53a1.642 1.642 0 0 1 1.774 1.5l.284 3.399a1.643 1.643 0 0 1-1.5 1.773l-54.13 4.53a1.643 1.643 0 0 1-1.773-1.5l-.285-3.399z" fill="#979797"/><path d="M34.815 25.115c6.25-.523 10.892-6.013 10.37-12.264C44.66 6.601 39.17 1.96 32.92 2.481a11.35 11.35 0 0 0-9.182 6.179l-2.335-2.176c-.643-.599-1.679-.468-2.02.342a9.865 9.865 0 0 0-.735 4.66 9.901 9.901 0 0 0 5.395 8.013 11.358 11.358 0 0 0 10.772 5.616z" fill="#BFBFBF"/><path d="M29.372 52.334a4.134 4.134 0 0 1 8.24-.69l.03.363a.5.5 0 0 1-.575.535l-1.839-.286a7.248 7.248 0 0 0-3.404.285l-1.766.588a.5.5 0 0 1-.656-.433l-.03-.362zM12.976 67.457a1.407 1.407 0 0 1 1.284-1.52l47.936-4.011a1.407 1.407 0 0 1 1.52 1.284l.397 4.75a1.407 1.407 0 0 1-1.285 1.52l-47.936 4.012a1.407 1.407 0 0 1-1.519-1.285l-.397-4.75z" fill="#979797"/><path d="M35.77 64.916c.071-.463.45-.817.917-.856l3.083-.258c.466-.039.899.247 1.046.692l2.732 8.261a1.013 1.013 0 0 1-.877 1.328l-7.136.597a1.013 1.013 0 0 1-1.086-1.163l1.321-8.601zM73.99 87.928h38.848a3.193 3.193 0 0 1 3.159 3.661l-3.376 22.785a3.193 3.193 0 0 1-3.159 2.725H77.367a3.193 3.193 0 0 1-3.159-2.725l-3.376-22.785a3.193 3.193 0 0 1 3.159-3.661z" fill="#BFBFBF"/><path fill-rule="evenodd" clip-rule="evenodd" d="M97.097 87.516c-1.408 1.4-12.043-.385-17.323-5.64-5.28-5.256-7.165-15.752-5.667-17.244 1.499-1.491 11.93.271 17.323 5.64 5.394 5.37 7.074 15.843 5.667 17.244z" fill="#979797"/><path fill-rule="evenodd" clip-rule="evenodd" d="M93.876 87.594c1.095 1.09 9.348-.28 13.438-4.351 4.09-4.072 5.537-12.215 4.371-13.376-1.166-1.16-9.259.192-13.438 4.351-4.178 4.16-5.466 12.286-4.37 13.376z" fill="#BFBFBF"/><path fill-rule="evenodd" clip-rule="evenodd" d="M93.872 58.781c-1.272 0-5.266-5.668-5.266-10.483 0-4.816 3.912-10.484 5.266-10.484s5.266 5.564 5.266 10.484-3.994 10.483-5.266 10.483z" fill="#D8D8D8"/><path fill-rule="evenodd" clip-rule="evenodd" d="M101.311 57.524c-.142 1.65 6.916 7.507 13.291 8.085 6.375.577 14.313-3.815 14.464-5.571.151-1.756-6.779-7.495-13.291-8.085-6.512-.59-14.322 3.922-14.464 5.571z" fill="#979797"/><path fill-rule="evenodd" clip-rule="evenodd" d="M94.682 65.717c-.9.895-7.75-.302-11.171-3.707-3.421-3.405-4.681-10.166-3.724-11.119.958-.953 7.676.228 11.171 3.706 3.495 3.48 4.623 10.225 3.724 11.12zM94.62 31.242c-.75 1.176-8.39 1.534-12.877-1.3-4.487-2.836-7.46-9.79-6.66-11.042.799-1.252 8.292-1.595 12.877 1.3 4.584 2.897 7.41 9.866 6.66 11.042z" fill="#BFBFBF"/><path fill-rule="evenodd" clip-rule="evenodd" d="M105.691 33.364c-1.672.161-7.68-6.813-8.323-13.17-.644-6.356 3.741-14.334 5.521-14.506 1.78-.172 7.665 6.675 8.323 13.17.658 6.493-3.849 14.344-5.521 14.506z" fill="#979797"/><path fill-rule="evenodd" clip-rule="evenodd" d="M132.302 85.39c-.899.896-7.75-.3-11.171-3.706-3.421-3.405-4.681-10.166-3.724-11.12.958-.952 7.677.229 11.171 3.707 3.495 3.479 4.623 10.224 3.724 11.12zM53.705 96.125c-1.13-.578-2.114-7.463.065-11.77 2.178-4.307 8.216-7.6 9.42-6.984 1.202.615 2.16 7.37-.066 11.77-2.225 4.4-8.29 7.561-9.42 6.984z" fill="#D8D8D8"/><path d="M72.586 103.425l-.946-6.38h43.548l-.945 6.38H72.586z" fill="#979797"/><path d="M116.548 85.193H70.281A2.28 2.28 0 0 0 68 87.474v9.112a2.28 2.28 0 0 0 2.28 2.281h46.268a2.28 2.28 0 0 0 2.281-2.28v-9.113a2.28 2.28 0 0 0-2.281-2.28z" fill="#BFBFBF"/><path d="M104.437 64.183a2.65 2.65 0 1 1-5.298 0 2.65 2.65 0 0 1 5.298 0zM118.299 36.65a2.65 2.65 0 1 1-5.299 0 2.65 2.65 0 0 1 5.299 0zM68.299 108.649a2.65 2.65 0 1 1-5.299.001 2.65 2.65 0 0 1 5.299-.001z" fill="#D8D8D8"/><path d="M106.049 49.289a2.13 2.13 0 1 1-4.261 0 2.13 2.13 0 0 1 4.261 0z" fill="#BFBFBF"/><path d="M117.319 80.861a2.13 2.13 0 1 1-4.261 0 2.13 2.13 0 0 1 4.261 0zM74.173 80.388a2.13 2.13 0 1 1-4.26 0 2.13 2.13 0 0 1 4.26 0zM61.261 101.131a2.13 2.13 0 1 1-4.26-.001 2.13 2.13 0 0 1 4.26.001z" fill="#979797"/></g><defs><clipPath id="clip0"><path fill="#fff" d="M0 0h135v124H0z"/></clipPath></defs></svg>