<svg viewBox="0 0 135 124" fill="none" xmlns="http://www.w3.org/2000/svg"><g clip-path="url(#clip0)"><rect x="11" y="11" width="113" height="113" rx="17" fill="#FFCA00"/><path d="M12.56 114.08L114.08 12.56A16.938 16.938 0 0 0 107 11H65.68L11 65.68V107c.003 2.445.535 4.86 1.56 7.08zm72.12-48.14l-58 58c.43 0 .87.07 1.31.07h48.59l33.08-33.09c6.904-6.904 6.904-18.096 0-25-6.903-6.904-18.096-6.904-25 0l.02.02z" fill="#FFD900"/><path d="M31.28 105.264c7.235 0 13.1-5.783 13.1-12.917 0-7.134-5.865-12.917-13.1-12.917-7.236 0-13.101 5.783-13.101 12.917 0 7.134 5.865 12.917 13.1 12.917z" fill="#FFF1A2"/><path d="M14.952 103.434c4.984 0 9.025-3.942 9.025-8.806 0-4.864-4.04-8.807-9.025-8.807-4.984 0-9.024 3.943-9.024 8.807 0 4.864 4.04 8.806 9.024 8.806z" fill="#FFF1A2"/><path fill-rule="evenodd" clip-rule="evenodd" d="M10.764 100.427H43.32a4.945 4.945 0 0 1 4.945 4.945v.03a4.945 4.945 0 0 1-4.945 4.944H10.764a4.945 4.945 0 0 1-4.944-4.944v-.03a4.945 4.945 0 0 1 4.944-4.945z" fill="#FFF1A2"/><path fill-rule="evenodd" clip-rule="evenodd" d="M17.097 100.427h32.555a4.945 4.945 0 0 1 4.945 4.945v.03a4.945 4.945 0 0 1-4.945 4.944H17.097a4.945 4.945 0 0 1-4.945-4.944v-.03a4.945 4.945 0 0 1 4.945-4.945z" fill="#FFF1A2"/><path d="M98.565 25.338c6.213 0 11.25-4.696 11.25-10.489 0-5.793-5.037-10.489-11.25-10.489-6.214 0-11.25 4.696-11.25 10.49 0 5.792 5.036 10.488 11.25 10.488z" fill="#FFF1A2"/><path d="M109.64 26.67c3.786 0 6.855-2.832 6.855-6.327 0-3.494-3.069-6.326-6.855-6.326-3.787 0-6.856 2.832-6.856 6.326 0 3.495 3.069 6.327 6.856 6.327z" fill="#FFF1A2"/><path fill-rule="evenodd" clip-rule="evenodd" d="M84.32 19.677h24.27c2.036 0 3.686 1.561 3.686 3.486v.021c0 1.925-1.65 3.486-3.686 3.486H84.32c-2.035 0-3.685-1.56-3.685-3.486v-.02c0-1.926 1.65-3.487 3.686-3.487zM12.203 45.376c0-5.649 29.258 6.163 27.711 8.135-1.546 1.97-5.219 8.45-9.279 8.45-4.06.001-10.157-.382-8.764 6.038 1.394 6.419-7.315 6.818-5.844 0 1.472-6.817-3.824-16.974-3.824-22.623zM70.334 35.275c5.662.795 3.724 2.891 4.104 4.255l-.988 2.28c-.532 1.063-2.713 1.477-5.622 2.811-1.824.836-3.653 2.28-6.459 2.28-1.442 11.625-4.101 17.704-8.376 15.227l.001 3.08a2.39 2.39 0 1 1-4.78.001l-.002-11.441a13.63 13.63 0 0 1 3.177-11.126c3.285-3.78 6.56-4.023 11.347-5.239 5.09-2.128 2.495-2.845 7.598-2.128z" fill="#FFF1A2"/><path d="M11.327 41.021c-7.235-8.55-6.17-21.347 2.38-28.583l8.964-7.585c8.55-7.235 21.347-6.17 28.583 2.38l.297.352c7.236 8.55 6.17 21.348-2.38 28.583l-8.963 7.585c-8.55 7.236-21.348 6.17-28.583-2.38l-.298-.352z" fill="#E27800"/><path d="M8.42 44.627a6.07 6.07 0 0 0 2.04-.385c1.55 9.303 9.709 16.325 19.425 16.17l30.281-.483c9.748-.155 17.7-7.482 18.912-16.874a6.08 6.08 0 1 0-.486-11.127c-2.144-8.53-9.931-14.783-19.105-14.637l-30.282.483c-9.137.146-16.696 6.592-18.605 15.134a6.08 6.08 0 1 0-2.18 11.719z" fill="#FFBB31"/><path fill-rule="evenodd" clip-rule="evenodd" d="M53.607 54.074c-1.208.86-1.765 2.054-1.91 2.82a1.24 1.24 0 0 1-2.436-.464c.253-1.324 1.125-3.105 2.908-4.375 1.82-1.296 4.455-1.967 8.05-1.268a1.24 1.24 0 1 1-.473 2.433c-3.051-.593-4.968.02-6.14.854z" fill="#F08904"/><path d="M77.457 28.68l-10.206.162a7.211 7.211 0 0 1-7.325-7.095l-.072-4.459c7.809.021 14.562 4.676 17.603 11.392z" fill="#FFB100"/><path d="M12.016 45.009a2.93 2.93 0 1 1-5.86.093 2.93 2.93 0 0 1 5.86-.093z" fill="#E27800"/><path d="M44.875 39.37c.137-.002 1.38 1.902 2.645 3.9 1.26 1.99-.156 4.572-2.51 4.61-2.353.037-3.85-2.5-2.655-4.527 1.202-2.038 2.383-3.98 2.52-3.983z" fill="#F08904"/><path d="M45.944 30.108a6.76 6.76 0 0 1 6.652-6.867l.251-.004a6.76 6.76 0 0 1 6.868 6.652l.111 6.99a6.76 6.76 0 0 1-6.652 6.867l-.251.004a6.76 6.76 0 0 1-6.868-6.652l-.111-6.99zM43.405 30.148a6.76 6.76 0 0 0-6.867-6.651l-.252.004a6.76 6.76 0 0 0-6.652 6.867l.112 6.99a6.76 6.76 0 0 0 6.867 6.652l.252-.004a6.76 6.76 0 0 0 6.651-6.868l-.111-6.99z" fill="#FFF1A2"/><path d="M48.297 33.866a3.101 3.101 0 0 1 6.202-.1l.048 3.035a3.101 3.101 0 1 1-6.202.1l-.048-3.035zM41.173 33.98a3.101 3.101 0 0 0-6.202.098l.048 3.035a3.101 3.101 0 1 0 6.202-.1l-.048-3.034z" fill="#E27800"/><path d="M59.826 36.9l-13.77.219v-.021l-.112-6.99a6.76 6.76 0 0 1 6.652-6.867l.251-.004a6.76 6.76 0 0 1 6.868 6.652l.111 6.99v.02zM29.746 37.379l13.77-.22v-.02l-.111-6.99a6.76 6.76 0 0 0-6.867-6.652l-.252.004a6.76 6.76 0 0 0-6.652 6.867l.112 6.99v.021z" fill="#F08904"/><path d="M13.13 37.241c-5.468-6.46-4.662-16.129 1.798-21.596l.874-.74c6.46-5.467 16.13-4.662 21.596 1.799l.74.874c5.467 6.46 4.662 16.13-1.798 21.596l-.875.74c-6.46 5.467-16.129 4.662-21.596-1.798l-.74-.875z" fill="#E27800"/><path fill-rule="evenodd" clip-rule="evenodd" d="M27.485 44.617l1.126 4.504a2.39 2.39 0 0 1-2.172 2.966l-.17.004a2.39 2.39 0 0 1-2.32-2.97l1.126-4.504a1.242 1.242 0 0 1 2.41 0zM35.247 74.906a4.533 4.533 0 0 0 4.533-4.533c0-2.504-3.091-6.181-4.534-6.181-1.442 0-4.532 3.678-4.532 6.181a4.533 4.533 0 0 0 4.533 4.533z" fill="#FFF1A2"/><path d="M11.457 66.285a2.885 2.885 0 1 0 0-5.77 2.885 2.885 0 0 0 0 5.77z" fill="#FFF1A2"/><path fill-rule="evenodd" clip-rule="evenodd" d="M33.576 41.04c.056 1.257-4.181 2.41-5.625 2.723-.415 2.863 1.155 7.635-1.435 7.623-4.141-.02-1.5-5.186-1.77-7.092l-.68-.053c-4.091-.321-9.863-3.38-9.962-5.641 4.242.332 7.132-3.48 12.586-3.053 3.49.273 7.648 2.58 6.886 5.493zM76.873 48.035L78 52.54a2.39 2.39 0 0 1-2.172 2.966l-.17.004a2.39 2.39 0 0 1-2.32-2.97l1.126-4.504a1.242 1.242 0 0 1 2.41 0zM19.532 26.67a2.39 2.39 0 0 1 2.391 2.39v4.533a2.39 2.39 0 1 1-4.78 0v-4.532a2.39 2.39 0 0 1 2.39-2.39zM65.448 23.629a2.39 2.39 0 0 1 2.391 2.39v4.532a2.39 2.39 0 1 1-4.78 0V26.02a2.39 2.39 0 0 1 2.39-2.39zM68.767 40.48l1.618 6.468a2.909 2.909 0 1 1-5.644 0l1.617-6.468a1.242 1.242 0 0 1 2.41 0z" fill="#FFF1A2"/><path d="M60.107 75.885c1.739-12.372 13.178-20.992 25.55-19.253l25.848 3.634c12.371 1.74 20.991 13.178 19.252 25.55-1.74 12.372-13.179 20.991-25.551 19.252l-25.847-3.633c-12.372-1.74-20.991-13.179-19.252-25.55z" fill="#E27800"/><path d="M130.13 88.81c-3.014 10.735-13.577 17.854-24.923 16.258l-25.848-3.633c-11.347-1.595-19.538-11.35-19.475-22.5l70.246 9.875z" fill="#FFF1A2"/><path d="M69.686 80.313l4.74.666a5.877 5.877 0 0 0 6.637-5.001l.898-6.388 29.523 4.15-.898 6.388a5.877 5.877 0 0 0 5.001 6.638l5.28.742a21.735 21.735 0 0 1 .826 9.71l-2.434 17.318a5 5 0 0 1-5.647 4.255l-45.578-6.407a5 5 0 0 1-4.255-5.647l2.435-17.318a21.742 21.742 0 0 1 3.472-9.106z" fill="#FFBB31"/><path d="M111.249 46.563c-.837 5.956-6.344 10.105-12.3 9.268-5.956-.837-10.106-6.344-9.269-12.3.838-5.956 6.345-10.106 12.301-9.268 5.956.837 10.105 6.344 9.268 12.3z" fill="#E27800"/><path d="M82.65 82.07a5.842 5.842 0 0 1 11.57 1.626l-.501 3.57a5.842 5.842 0 0 1-11.57-1.627l.502-3.57zM107.92 85.622a5.842 5.842 0 0 0-11.57-1.626l-.501 3.569a5.842 5.842 0 1 0 11.57 1.626l.501-3.569z" fill="#FFF1A2"/><path d="M89.31 83.073a1.917 1.917 0 0 0 2.156-2.222 2.631 2.631 0 0 1 2.734 2.995l-.459 3.27a2.631 2.631 0 0 1-5.21-.732l.459-3.27c.005-.037.01-.073.017-.109.098.03.199.053.303.068zM103.009 84.999a1.917 1.917 0 0 0 2.156-2.222 2.632 2.632 0 0 1 2.735 2.995l-.46 3.27a2.631 2.631 0 0 1-5.211-.733l.46-3.27.017-.108c.098.03.199.053.303.068z" fill="#E27800"/><path fill-rule="evenodd" clip-rule="evenodd" d="M75.713 82.732a.63.63 0 0 1 .864-.215l3.909 2.352a.63.63 0 0 1-.143 1.142l-4.427 1.338a.63.63 0 0 1-.364-1.205l3.068-.928-2.692-1.62a.63.63 0 0 1-.215-.864zM114.407 88.172a.63.63 0 0 0-.771-.445l-4.406 1.182a.631.631 0 0 0-.178 1.138l3.887 2.507a.63.63 0 1 0 .683-1.059l-2.694-1.737 3.034-.815a.63.63 0 0 0 .445-.771z" fill="#F08904"/><path d="M82.698 74.198l26.723 3.757-1.483 10.553-26.723-3.756 1.483-10.554z" fill="#FFBB31"/><path fill-rule="evenodd" clip-rule="evenodd" d="M80.14 82.848a1.889 1.889 0 0 1 2.133-1.608l12.055 1.695a1.889 1.889 0 0 1-.526 3.741l-12.055-1.695a1.889 1.889 0 0 1-1.608-2.133zM101.411 79.807a5.422 5.422 0 0 0-2.909 1.334 1.89 1.89 0 1 1-2.566-2.774 9.195 9.195 0 0 1 5.017-2.31c2.287-.28 4.886.328 7.421 2.49a1.889 1.889 0 1 1-2.451 2.875c-1.762-1.502-3.315-1.761-4.512-1.615z" fill="#E27800"/><path d="M115.293 91.999l-.088.58c-.828 5.441-5.91 9.182-11.352 8.354-5.442-.827-9.183-5.91-8.355-11.352l.088-.58L115.293 92zm-21.64-3.29l-.087.579c-.828 5.442-5.91 9.182-11.352 8.355-5.442-.828-9.183-5.91-8.355-11.352l.088-.58 19.707 2.997z" fill="#FF9600"/><path d="M88.96 87.994l-6.88-1.046-5.437 7.869a9.922 9.922 0 0 0 5.57 2.826l.072.01 6.675-9.659zM103.9 102.324l-.06-.009-.387-.059a11.091 11.091 0 0 1-1.625-.371l7.834-11.336.421.064 1.293.894-7.476 10.817z" fill="#FFBB31"/><path fill-rule="evenodd" clip-rule="evenodd" d="M94.32 88.216l22.413 3.409-.206 1.352c-.925 6.082-6.605 10.263-12.687 9.338l-.387-.059c-6.082-.924-10.263-6.605-9.338-12.687l.206-1.353zm2.404 3.133a8.406 8.406 0 0 0 7.141 8.203l.386.058a8.406 8.406 0 0 0 9.256-5.708l-16.783-2.553z" fill="#E27800"/><path fill-rule="evenodd" clip-rule="evenodd" d="M72.681 84.926l22.412 3.408-.205 1.353c-.925 6.082-6.606 10.263-12.688 9.338l-.386-.059c-6.082-.925-10.263-6.605-9.338-12.688l.205-1.352zm2.403 3.133a8.406 8.406 0 0 0 7.141 8.202l.387.059a8.406 8.406 0 0 0 9.256-5.709L75.084 88.06z" fill="#E27800"/><path d="M61.5 29.875L45 33.125V23l2.375-1.25 6.875-.875 5.125 3.625 2.125 5.375z" fill="#FFBB31"/><path fill-rule="evenodd" clip-rule="evenodd" d="M61.654 29.79a1.5 1.5 0 0 1-1.14 1.789L46.53 34.673a1.5 1.5 0 1 1-.648-2.93l13.984-3.093a1.5 1.5 0 0 1 1.788 1.14zM84.405 102.837c-1.285.009-2.05.779-2.374 1.493a1 1 0 1 1-1.82-.828c.576-1.267 1.957-2.65 4.18-2.665 2.159-.016 4.841 1.268 8.09 4.609a1 1 0 1 1-1.434 1.394c-3.104-3.193-5.293-4.013-6.642-4.003z" fill="#F08904"/><path d="M101.029 92.004l-2.795 4.045a8.39 8.39 0 0 0 4.035 3.098l4.349-6.293-5.589-.85zM96.586 98.433l.015-.021.065.077-.08-.056z" fill="#FFBB31"/><path fill-rule="evenodd" clip-rule="evenodd" d="M71.201 84.668l47.143 7.168a2.736 2.736 0 0 1-3.116 2.294l-41.733-6.346a2.736 2.736 0 0 1-2.294-3.116z" fill="#E27800"/><path d="M94.378 89.94c.126.018.995 1.95 1.871 3.971.872 2.012-.803 4.184-2.974 3.88-2.172-.306-3.183-2.856-1.79-4.55 1.4-1.701 2.766-3.318 2.893-3.3z" fill="#E27800"/></g><defs><clipPath id="clip0"><path fill="#fff" d="M0 0h135v124H0z"/></clipPath></defs></svg>