<svg viewBox="0 0 135 124" fill="none" xmlns="http://www.w3.org/2000/svg"><path d="M11 28c0-9.389 7.611-17 17-17h79c9.389 0 17 7.611 17 17v79c0 9.389-7.611 17-17 17H28c-9.389 0-17-7.611-17-17V28z" fill="#FEC701"/><path fill-rule="evenodd" clip-rule="evenodd" d="M70.244 107.584c-8.2-8.201-8.2-21.498 0-29.699l53.406-53.407c.229 1.112.349 2.263.349 3.443L124 83.527l-24.057 24.057c-8.201 8.201-21.498 8.201-29.699 0zM11 106.527V71.173l8.995-8.997c4.881-4.881 12.796-4.881 17.677 0 4.882 4.882 4.882 12.796 0 17.678L11 106.527z" fill="#FFD900"/><path d="M33.022 23.69a9.88 9.88 0 0 1-.61.019c-5.304 0-9.601-4.23-9.601-9.447 0-5.217 4.297-9.447 9.6-9.447 5.3 0 9.598 4.23 9.598 9.447 0 .205-.006.408-.02.61h.022c4.965 0 8.989 4.035 8.989 9.009v1.352H33.02V23.88c0-.064 0-.127.002-.19z" fill="#FF9600"/><path d="M59.532 23.557H25.4c-6.396 0-11.58 5.184-11.58 11.58V57.85c0 6.396 5.184 11.58 11.58 11.58h34.13c6.396 0 11.581-5.184 11.581-11.58V35.138c0-6.396-5.185-11.58-11.58-11.58z" fill="#FFD900"/><path fill-rule="evenodd" clip-rule="evenodd" d="M33.958 28.528a7.184 7.184 0 0 1 7.184 7.184v4.37a7.184 7.184 0 1 1-14.369 0v-4.37a7.184 7.184 0 0 1 7.185-7.184z" fill="#FFF1A2"/><path d="M32.715 36.385a2.59 2.59 0 0 0 2.568-3.524 3.225 3.225 0 0 1 3.883 3.158v4.051a3.225 3.225 0 1 1-6.451 0v-3.685z" fill="#F68B00"/><path fill-rule="evenodd" clip-rule="evenodd" d="M50.87 28.528a7.184 7.184 0 0 0-7.184 7.184v4.37a7.184 7.184 0 1 0 14.369 0v-4.37a7.184 7.184 0 0 0-7.185-7.184z" fill="#FFF1A2"/><path d="M46.12 36.293a2.59 2.59 0 0 0 2.603-3.44 3.225 3.225 0 0 1 3.848 3.165v4.052a3.225 3.225 0 1 1-6.452 0v-3.777z" fill="#F68B00"/><path fill-rule="evenodd" clip-rule="evenodd" d="M42.239 50.577a2.822 2.822 0 0 0 2.819-2.825c0-1.56-2.82-5.25-2.82-5.25s-2.818 3.69-2.818 5.25a2.822 2.822 0 0 0 2.819 2.825z" fill="#FFB100"/><path fill-rule="evenodd" clip-rule="evenodd" d="M62.35 35.172c-7.254-.45-13.488-2.977-18.565-7.63l3.577-3.903c4.113 3.768 9.171 5.867 15.316 6.248l-.328 5.285zM43.462 27.838c-5.612 4.618-11.895 7.021-18.78 7.081l-.046-5.294c5.577-.049 10.708-1.964 15.462-5.876l3.364 4.089z" fill="#FFD900"/><path d="M49.586 50.477c-5.1.63-8.86 4.904-8.99 9.89-.023.85.758 1.451 1.602 1.347l17.286-2.133c.843-.104 1.455-.878 1.226-1.697-1.338-4.804-6.024-8.036-11.124-7.407z" fill="#F68B00"/><path d="M59.46 55.098A6.833 6.833 0 0 0 49.45 60.82l10.058-1.24c.832-.103 1.434-.866 1.211-1.674a10.173 10.173 0 0 0-1.257-2.807z" fill="#FFB100"/><path fill-rule="evenodd" clip-rule="evenodd" d="M48.5 79.727c0-13.869 11.243-25.112 25.112-25.112h28.975c13.869 0 25.112 11.243 25.112 25.112 0 13.869-11.243 25.112-25.112 25.112H73.612c-13.87 0-25.112-11.243-25.112-25.112z" fill="#F68B00"/><path d="M127.501 82.9c-1.56 12.371-12.12 21.939-24.914 21.939H73.612c-12.793 0-23.353-9.568-24.913-21.939h78.802z" fill="#FFF1A2"/><path d="M57.307 75.258c0-6.075 4.924-11 11-11H108.5c6.075 0 11 4.925 11 11v31.367c0 6.627-5.373 12-12 12H69.307c-6.628 0-12-5.373-12-12V75.258z" fill="#FFB100"/><path fill-rule="evenodd" clip-rule="evenodd" d="M110.23 84.532a.707.707 0 0 1-.381.924l-3.516 1.465 3.531 1.57a.706.706 0 1 1-.573 1.29l-5.032-2.235a.706.706 0 0 1 .016-1.298l5.031-2.096c.36-.15.774.02.924.38zM66.298 84.532c-.15.36.02.774.38.924l3.517 1.465-3.532 1.57a.706.706 0 1 0 .574 1.29l5.031-2.235a.706.706 0 0 0-.015-1.298l-5.031-2.096a.706.706 0 0 0-.924.38z" fill="#FFA600"/><path d="M88.45 112.99c-7.977-.14-13.972-3.411-16.619-9.927-1.372-3.378.227-7.242 3.57-8.63 3.141-1.303 6.704.041 8.263 3.008.933 1.003 2.151 1.879 3.694 2.25.404.04.844.067 1.322.075l.108.003c3.563.12 6.383 3.108 6.32 6.723-.064 3.652-3.045 6.561-6.659 6.498z" fill="#F68B00"/><path d="M87.362 112.949c-6.578-.361-11.699-2.958-14.54-7.859a9.324 9.324 0 0 1 4.523-1.535 9.364 9.364 0 0 1 10.017 9.394z" fill="#FFBF2F"/><path d="M63.56 24.277c4.41 1.636 7.552 5.881 7.552 10.86v8.685h-.695a6.857 6.857 0 0 1-6.857-6.856V24.277zM21.744 24.146v12.82a6.857 6.857 0 0 1-6.856 6.856H13.82v-8.685c0-5.118 3.32-9.46 7.924-10.991z" fill="#FF9600"/><path d="M12.07 49.442a5.104 5.104 0 1 0 0-10.209 5.104 5.104 0 0 0 0 10.21zM72.561 49.3a5.104 5.104 0 1 0 0-10.208 5.104 5.104 0 0 0 0 10.209z" fill="#FFD900"/><path d="M86.973 83.598a1.43 1.43 0 0 1 .436 1.975c-1.561 2.447-3.829 3.526-5.954 3.873-2.083.34-4.076-.009-5.323-.451a1.43 1.43 0 1 1 .956-2.696c.868.308 2.371.575 3.907.324 1.493-.243 2.965-.961 4.003-2.589a1.43 1.43 0 0 1 1.975-.436zM88.822 94.539a3.15 3.15 0 0 0 3.144-3.154c0-1.742-3.144-5.861-3.144-5.861s-3.145 4.12-3.145 5.861a3.15 3.15 0 0 0 3.145 3.154zM90.623 85.573a1.43 1.43 0 0 1 2.411-1.539c1.039 1.628 2.51 2.346 4.004 2.59 1.535.25 3.039-.017 3.906-.325a1.43 1.43 0 1 1 .956 2.696c-1.247.442-3.24.791-5.323.451-2.125-.347-4.392-1.426-5.954-3.873zM100.349 39.591c0 6.677-5.443 12.09-12.159 12.09-6.715 0-12.159-5.413-12.159-12.09s5.444-12.089 12.16-12.089c6.715 0 12.158 5.412 12.158 12.09zM66.949 62.023h45.421v.948h4.72a6.711 6.711 0 0 1 6.711 6.711v13.21h-11.678a6.711 6.711 0 0 1-6.711-6.71v-6.5c0-.084.002-.169.005-.252H71.364c.038.288.058.582.058.881v5.866a6.71 6.71 0 0 1-6.711 6.71H52.135V70.312a6.71 6.71 0 0 1 6.71-6.71h5.866c.785 0 1.538.134 2.238.382v-1.96z" fill="#F68B00"/><path d="M79.778 74.912l.587 2.065-.586-2.065.005-.001.009-.003.027-.008.094-.025c.078-.02.19-.05.33-.085.284-.07.69-.165 1.198-.27a40.193 40.193 0 0 1 4.148-.623c3.369-.329 7.915-.346 12.326 1.031a2.147 2.147 0 0 1-1.28 4.098c-3.65-1.14-7.558-1.156-10.63-.856a35.888 35.888 0 0 0-3.7.556 26.465 26.465 0 0 0-1.345.313l-.01.003a2.146 2.146 0 0 1-1.173-4.13z" fill="#F68B00"/></svg>