<svg viewBox="0 0 135 124" fill="none" xmlns="http://www.w3.org/2000/svg"><path d="M11.84 28c0-9.389 7.61-17 17-17h78.999c9.389 0 17 7.611 17 17v79c0 9.389-7.611 17-17 17h-79c-9.388 0-17-7.611-17-17V28z" fill="#74DEFF"/><path fill-rule="evenodd" clip-rule="evenodd" d="M98.453 82.417a22.913 22.913 0 0 0-22.395 9.506 2.412 2.412 0 0 1-3.93.034 22.923 22.923 0 0 0-22.56-9.118 2.413 2.413 0 0 1-2.803-2.755 22.932 22.932 0 0 0-9.51-22.402 2.413 2.413 0 0 1-.033-3.93 22.923 22.923 0 0 0 9.111-22.563 2.412 2.412 0 0 1 2.755-2.803 22.913 22.913 0 0 0 22.395-9.506 2.412 2.412 0 0 1 3.93-.034 22.924 22.924 0 0 0 22.56 9.118 2.412 2.412 0 0 1 2.803 2.755 22.932 22.932 0 0 0 9.509 22.402 2.413 2.413 0 0 1 .035 3.93 22.922 22.922 0 0 0-9.112 22.563 2.413 2.413 0 0 1-2.755 2.803z" fill="#FFD900"/><path d="M97.195 55.925c0 13-10.536 23.539-23.533 23.539-12.996 0-23.532-10.54-23.532-23.54s10.536-23.538 23.532-23.538c12.997 0 23.532 10.538 23.532 23.538z" fill="#FFF400"/><path d="M124.839 67.796V107c0 9.389-7.611 17-17 17h-79c-9.388 0-17-7.611-17-17V67.796h113z" fill="#1CB0F6"/><g opacity=".408" fill="#fff"><path d="M103.542 75.863a3.156 3.156 0 0 0-3.156-3.157H78.71a3.156 3.156 0 1 0 0 6.313h21.676a3.156 3.156 0 0 0 3.156-3.156zM89.816 85.07a3.156 3.156 0 0 0-3.157-3.157h-20.2a3.156 3.156 0 1 0 0 6.313h20.2a3.156 3.156 0 0 0 3.157-3.157zM95.71 92.645a3.156 3.156 0 0 1 0 6.313H85.346a3.156 3.156 0 1 1 0-6.313H95.71z"/></g><path d="M5.92 63.414h.002a8.546 8.546 0 0 1 7.266-9.493l39.856-5.735a8.546 8.546 0 0 1 9.648 7.059h.002l5.607 38.966a2.957 2.957 0 0 0 3.349 2.506l5.747-.828a1.232 1.232 0 0 1 1.396 1.045c.948 6.589-3.625 12.699-10.215 13.648l-52.7 7.583c-6.59.948-12.7-3.625-13.649-10.214a1.232 1.232 0 0 1 1.045-1.395l5.747-.827a2.958 2.958 0 0 0 2.506-3.349L5.92 63.414z" fill="#FFB100"/><path d="M10.349 63.907l48.235-6.941 6.926 48.131-48.235 6.941-6.926-48.131z" fill="#FFC6B7"/><path d="M11.162 85.872A5.378 5.378 0 1 0 9.63 75.226a5.378 5.378 0 0 0 1.532 10.646zM63.997 78.27a5.378 5.378 0 1 0-1.532-10.646 5.378 5.378 0 0 0 1.532 10.645z" fill="#FFC6B7"/><path d="M15.033 113.237a1.479 1.479 0 0 1 1.253-1.674l50.039-7.201a1.48 1.48 0 0 1 1.674 1.253l.714 4.959a1.48 1.48 0 0 1-1.253 1.674l-50.04 7.2a1.478 1.478 0 0 1-1.674-1.253l-.713-4.958z" fill="#FF4B4B"/><path d="M7.735 75.878a5.378 5.378 0 0 1 7.046 1.547 5.994 5.994 0 0 0 1.46-4.852l-1.073-7.452-8.8 1.266 1.367 9.49zM58.152 71.19a5.378 5.378 0 0 1 6.314-3.48L63.1 58.222l-8.8 1.266 1.073 7.453a5.995 5.995 0 0 0 2.778 4.248z" fill="#FFB100"/><path d="M4.122 62.085a1.479 1.479 0 0 1 1.253-1.675L62.37 52.21a1.479 1.479 0 0 1 1.674 1.253l.581 4.038a1.479 1.479 0 0 1-1.253 1.675L6.378 67.376a1.479 1.479 0 0 1-1.675-1.253l-.58-4.038z" fill="#FF4B4B"/><path d="M36.563 61.66c6.524-.938 11.052-6.988 10.113-13.513-.939-6.524-6.989-11.052-13.513-10.113a11.927 11.927 0 0 0-9.247 7.054l-2.586-2.136c-.712-.589-1.79-.386-2.098.485a10.367 10.367 0 0 0-.48 4.935 10.406 10.406 0 0 0 6.16 8.07 11.936 11.936 0 0 0 11.65 5.218z" fill="#FFB100"/><path d="M38.788 109.149c.046-.49.422-.885.909-.955l3.217-.463c.487-.07.96.203 1.141.66l3.382 8.497a1.064 1.064 0 0 1-.837 1.447l-7.45 1.072a1.065 1.065 0 0 1-1.21-1.153l.848-9.105z" fill="#EBE3E3"/><path d="M36.878 77.193c.127-.019 1.506 1.602 2.918 3.308 1.406 1.697.398 4.264-1.784 4.578-2.18.314-3.872-1.864-3.002-3.89.874-2.034 1.74-3.978 1.868-3.996z" fill="#F3A577"/><path fill-rule="evenodd" clip-rule="evenodd" d="M23.656 86.724a5.035 5.035 0 0 1 7.113.332c.587.645 1.073 1.074 1.635 1.376.518.278 1.324.568 2.68.563a5.035 5.035 0 1 1 .042 10.07c-6.279.025-9.756-2.982-11.802-5.228a5.035 5.035 0 0 1 .332-7.113z" fill="#A41414"/><path d="M37.187 70.707a6.732 6.732 0 1 1 13.327-1.918l.583 4.053A6.732 6.732 0 1 1 37.77 74.76l-.583-4.053z" fill="#fff"/><path fill-rule="evenodd" clip-rule="evenodd" d="M25.601 65.688a7.01 7.01 0 0 1 4.375-.157 7.01 7.01 0 0 1 3.62 2.462 2.892 2.892 0 1 1-4.582 3.529 1.226 1.226 0 0 0-.64-.434 1.227 1.227 0 0 0-.773.026 2.892 2.892 0 1 1-2-5.426z" fill="#3D3D3D"/><path d="M35.025 88.994c-1.321-.003-2.11-.288-2.62-.563-.563-.302-1.048-.73-1.636-1.375a5.035 5.035 0 0 0-8.756 3.264 2.121 2.121 0 0 0 2.252 1.265l2.795-.402a2.118 2.118 0 0 0 1.62-1.205c.458.52 1.16.805 1.896.7l2.795-.403a2.12 2.12 0 0 0 1.654-1.28z" fill="#fff"/><path d="M40.071 93.195a5.035 5.035 0 0 1-4.946 5.87 16.823 16.823 0 0 1-4.198-.489 8.939 8.939 0 0 1 6.95-5.335 8.965 8.965 0 0 1 2.194-.046z" fill="#D22121"/><path fill-rule="evenodd" clip-rule="evenodd" d="M26.522 59.247a2.65 2.65 0 0 0-3.47-1.417c-2.4 1.01-4.629 2.729-5.817 3.886a2.65 2.65 0 1 0 3.698 3.797c.84-.82 2.53-2.106 4.173-2.797a2.65 2.65 0 0 0 1.416-3.47zM43.92 56.743a2.65 2.65 0 0 1 2.93-2.337c2.587.291 5.21 1.313 6.676 2.087a2.65 2.65 0 0 1-2.476 4.686c-1.038-.548-3.021-1.307-4.793-1.506a2.65 2.65 0 0 1-2.337-2.93z" fill="#FFB100"/><path fill-rule="evenodd" clip-rule="evenodd" d="M23.656 86.724a5.035 5.035 0 0 1 7.113.332c.587.645 1.073 1.074 1.635 1.376.518.278 1.324.568 2.68.563a5.035 5.035 0 1 1 .042 10.07c-6.279.025-9.756-2.982-11.802-5.228a5.035 5.035 0 0 1 .332-7.113z" fill="#A41414"/><path d="M27.205 65.341a6.732 6.732 0 0 0-5.704 7.623l.583 4.053a6.701 6.701 0 0 0 1.737 3.63c2.695-.748 5.363-.69 8.715.979A6.733 6.733 0 0 0 35.41 75.1l-.583-4.054a6.732 6.732 0 0 0-7.623-5.705z" fill="#fff"/><path d="M41.025 63.635a6.734 6.734 0 0 1 8.53 2.532 2.892 2.892 0 0 1-4.819 3.173 1.228 1.228 0 0 0-.64-.434 1.228 1.228 0 0 0-.772.026 2.892 2.892 0 0 1-2.3-5.297zM25.339 65.893a6.734 6.734 0 0 1 8.53 2.532 2.892 2.892 0 0 1-4.819 3.172 1.227 1.227 0 0 0-.64-.434 1.228 1.228 0 0 0-.772.026 2.892 2.892 0 0 1-2.3-5.296z" fill="#3D3D3D"/></svg>