<svg viewBox="0 0 135 124" fill="none" xmlns="http://www.w3.org/2000/svg"><path d="M107 11H28c-9.389 0-17 7.611-17 17v79c0 9.389 7.611 17 17 17h79c9.389 0 17-7.611 17-17V28c0-9.389-7.611-17-17-17z" fill="#FFAADE"/><path fill="#3D3D3D" d="M17.324 22.914h39.483v24.157H17.324z"/><path d="M27.256 41.075c-4.994 4.764-12.905 4.578-17.67-.417l-4.132-4.332C.69 31.331.877 23.421 5.871 18.656l4.845-4.62c4.994-4.765 12.905-4.578 17.67.416l4.132 4.333c4.764 4.994 4.577 12.905-.417 17.67l-4.845 4.62zM50.743 40.896c4.995 4.764 12.906 4.577 17.67-.417l4.132-4.333c4.764-4.994 4.578-12.905-.417-17.67l-4.844-4.62c-4.994-4.764-12.905-4.578-17.67.417l-4.132 4.332c-4.764 4.994-4.578 12.905.417 17.67l4.844 4.62z" fill="#3D3D3D"/><path d="M21.7 12.88C21.7 5.979 27.297.384 34.2.384h9.032c6.902 0 12.498 5.596 12.498 12.498v7.474c0 6.902-5.596 12.498-12.498 12.498h-9.032c-6.903 0-12.498-5.596-12.498-12.498V12.88z" fill="#3D3D3D"/><path d="M54.515 44.183a9.574 9.574 0 0 1 9.574 9.574V77.69c0 6.212-5.036 11.249-11.249 11.249H25.076c-6.213 0-11.249-5.037-11.249-11.25V53.758a9.574 9.574 0 0 1 9.574-9.574h31.114z" fill="#A46648"/><path d="M36.913 70.489a2.092 2.092 0 1 0 4.185 0c0-1.156-2.005-3.836-2.092-3.836-.087 0-2.093 2.68-2.093 3.836z" fill="#86401F"/><path d="M37.431 40.414c.455-5.328 5.144-9.278 10.472-8.823l-.232 2.721c-.456 5.329-5.144 9.279-10.472 8.824l.232-2.722z" fill="#FDB02A"/><path d="M30.302 34.217c.455 5.329 5.144 9.279 10.472 8.824l-.233-2.722c-.455-5.328-5.144-9.278-10.472-8.823l.233 2.721z" fill="#FDB02A"/><rect x="35.9" y="68.913" width="6.223" height="4.308" rx="2.154" fill="#86401F"/><path d="M10.717 41.788h29.2v2.863L13.616 58.542l-2.9-16.754z" fill="#FDB02A"/><path d="M66.963 41.788h-29.2v2.863l26.301 13.891 2.9-16.754z" fill="#FDB02A"/><circle cx="63.814" cy="63.874" r="5.708" fill="#A46648"/><circle cx="13.719" cy="64.108" r="5.708" fill="#A46648"/><path d="M28.43 87.56a4.9 4.9 0 0 1-1.46-9.68c1.922-.485 4.521-.313 7.17.62 2.65.933 4.784 2.427 5.978 4.01a4.9 4.9 0 1 1-7.203 6.629c-.597-.582-1.226-1.164-2.013-1.44-.786-.278-1.641-.219-2.471-.139z" fill="#881B1B"/><path fill-rule="evenodd" clip-rule="evenodd" d="M28.43 87.56a4.9 4.9 0 0 1-1.46-9.68c1.922-.485 4.52-.312 7.17.62 2.65.934 4.784 2.427 5.977 4.01a4.9 4.9 0 1 1-7.203 6.629c-.596-.582-1.226-1.163-2.012-1.44-.787-.277-1.642-.218-2.472-.139zm1.275 3.537a1.476 1.476 0 0 0-.108-.006 7.278 7.278 0 0 0-.823.049l-.327-3.407.327 3.407a8.497 8.497 0 0 1-2.615-16.763c2.757-.678 6.063-.364 9.176.732 3.113 1.096 5.886 2.923 7.61 5.179a8.497 8.497 0 1 1-12.541 11.426l2.51-2.575-2.51 2.575a7.246 7.246 0 0 0-.61-.554 1.44 1.44 0 0 0-.089-.063z" fill="#A56644"/><path d="M39.442 81.726H23.158a4.898 4.898 0 0 1 3.813-3.845c1.921-.486 4.52-.313 7.17.62 2.206.777 4.055 1.943 5.3 3.225zM24.402 62.317V64.1a6.4 6.4 0 1 0 12.798 0v-1.784H24.402zM40.823 62.317V64.1a6.4 6.4 0 1 0 12.799 0v-1.784H40.823z" fill="#fff"/><path d="M30.068 62.317V64.1a2.832 2.832 0 1 0 5.665 0v-1.783h-5.665zM42.29 62.317v1.782a2.832 2.832 0 1 0 5.666 0v-1.782H42.29z" fill="#3D3D3D"/><path fill-rule="evenodd" clip-rule="evenodd" d="M39.008 58.4c.815 0 1.476.66 1.476 1.476v.257a4.046 4.046 0 0 1-4.045 4.046H21.09a1.477 1.477 0 1 1 0-2.954h15.348c.603 0 1.092-.489 1.092-1.092v-.257c0-.816.66-1.477 1.477-1.477z" fill="#87401A"/><path fill-rule="evenodd" clip-rule="evenodd" d="M39.007 58.4c-.816 0-1.477.66-1.477 1.476v.257a4.046 4.046 0 0 0 4.046 4.046h15.348a1.477 1.477 0 1 0 0-2.954H41.576a1.092 1.092 0 0 1-1.092-1.092v-.257c0-.816-.661-1.477-1.477-1.477z" fill="#87401A"/><path fill-rule="evenodd" clip-rule="evenodd" d="M113 91v25H61V91h52z" fill="#E5A259"/><path d="M113 88.928H61c-.552 0-1 .415-1 .926v2.313c0 .511.448.926 1 .926h52c.552 0 1-.415 1-.926v-2.313c0-.511-.448-.925-1-.925z" fill="#E5A259"/><path fill-rule="evenodd" clip-rule="evenodd" d="M61 88.928h14v4.165H61c-.552 0-1-.415-1-.926v-2.313c0-.511.448-.925 1-.925z" fill="#CD7900"/><path d="M86.5 85.929h-14a1.5 1.5 0 0 0 0 3h14a1.5 1.5 0 1 0 0-3z" fill="#AFAFAF"/><path fill-rule="evenodd" clip-rule="evenodd" d="M76 74.429h9l-3 12.5h-9l3-12.5z" fill="#AFAFAF"/><path d="M77.5 93.093H61v22.836h16.5V93.093z" fill="#CD7900"/><path d="M115 93H81v23h34V93z" fill="#A56644"/><path d="M94.5 53.428H63a3 3 0 0 0-3 3v21.5a3 3 0 0 0 3 3h31.5a3 3 0 0 0 3-3v-21.5a3 3 0 0 0-3-3z" fill="#AFAFAF"/><path d="M97 53.428H65.5a3 3 0 0 0-3 3v21.5a3 3 0 0 0 3 3H97a3 3 0 0 0 3-3v-21.5a3 3 0 0 0-3-3z" fill="#DEDEDE"/><path d="M95 56.429H68a2 2 0 0 0-2 2v17.5a2 2 0 0 0 2 2h27a2 2 0 0 0 2-2v-17.5a2 2 0 0 0-2-2z" fill="#fff"/><path d="M73 57.928h-4.5a1 1 0 0 0-1 1v2.5a1 1 0 0 0 1 1H73a1 1 0 0 0 1-1v-2.5a1 1 0 0 0-1-1z" fill="#D2E4E8"/><path d="M94.5 57.928H77a1 1 0 0 0-1 1v15.5a1 1 0 0 0 1 1h17.5a1 1 0 0 0 1-1v-15.5a1 1 0 0 0-1-1z" fill="#E2F5F9"/><path d="M73 63.429h-4.5a1 1 0 0 0-1 1v2.5a1 1 0 0 0 1 1H73a1 1 0 0 0 1-1v-2.5a1 1 0 0 0-1-1zM73 68.928h-4.5a1 1 0 0 0-1 1v2.5a1 1 0 0 0 1 1H73a1 1 0 0 0 1-1v-2.5a1 1 0 0 0-1-1zM73.25 74.429h-5a.75.75 0 0 0 0 1.5h5a.75.75 0 0 0 0-1.5z" fill="#D2E4E8"/><path fill-rule="evenodd" clip-rule="evenodd" d="M91.543 60.681c.342.24.424.713.183 1.055l-4.87 6.92a.757.757 0 0 1-1.208.04l-1.496-1.846-2.489 4.516a.757.757 0 0 1-1.326-.73l3.032-5.501a.757.757 0 0 1 1.25-.112l1.575 1.942 4.294-6.1a.757.757 0 0 1 1.055-.184z" fill="#FF7878"/><path fill-rule="evenodd" clip-rule="evenodd" d="M92.775 59.85a.757.757 0 0 1-.671.835l-2.272.246a.757.757 0 1 1-.163-1.505l2.272-.246a.757.757 0 0 1 .834.67z" fill="#FF7878"/><path d="M79.5 60.679a.75.75 0 0 0-1.5 0v12.5a.75.75 0 0 0 1.5 0v-12.5z" fill="#BEDAE0"/><path d="M94 73.229v-.1a.7.7 0 0 0-.7-.7H79.2a.7.7 0 0 0-.7.7v.1a.7.7 0 0 0 .7.7h14.1a.7.7 0 0 0 .7-.7z" fill="#BEDAE0"/><path fill-rule="evenodd" clip-rule="evenodd" d="M91.898 59.283a.757.757 0 0 1 .911.562l.525 2.216a.757.757 0 0 1-1.473.349l-.525-2.216a.757.757 0 0 1 .562-.91z" fill="#FF7878"/><path d="M111.3 88.593H97.7a2.2 2.2 0 0 0-2.2 2.2v.1a2.2 2.2 0 0 0 2.2 2.2h13.6a2.2 2.2 0 0 0 2.2-2.2v-.1a2.2 2.2 0 0 0-2.2-2.2z" fill="#4B4B4B"/><path fill-rule="evenodd" clip-rule="evenodd" d="M109.5 65.843h18a2 2 0 0 1 2 2v32a2 2 0 0 1-2 2h-19.12a.88.88 0 0 1-.88-.88v-33.12a2 2 0 0 1 2-2z" fill="#4B4B4B"/><path d="M103 91.894c0-.995-1.007-1.801-2.25-1.801s-2.25.806-2.25 1.8v6.804c0 .995 1.007 1.801 2.25 1.801s2.25-.806 2.25-1.801v-6.803z" fill="#4B4B4B"/><path d="M118.615 101.764h-6.73v8.157h6.73v-8.157z" fill="#777"/><path d="M124.75 105.909h-19.5a2.25 2.25 0 1 0 0 4.5h19.5a2.25 2.25 0 0 0 0-4.5z" fill="#777"/><path d="M115.25 115.929a2.75 2.75 0 1 0 0-5.5 2.75 2.75 0 0 0 0 5.5zM105.75 115.929a2.75 2.75 0 1 0 0-5.5 2.75 2.75 0 0 0 0 5.5zM125.25 115.929a2.75 2.75 0 1 0 0-5.5 2.75 2.75 0 0 0 0 5.5z" fill="#AFAFAF"/><path d="M127.52 96.843H94.98a1.98 1.98 0 0 0-1.98 1.98v1.04a1.98 1.98 0 0 0 1.98 1.98h32.54a1.98 1.98 0 0 0 1.98-1.98v-1.04a1.98 1.98 0 0 0-1.98-1.98z" fill="#4B4B4B"/><path d="M125 99.593v-9h-4.5v9a2.25 2.25 0 0 0 4.5 0z" fill="#777"/><path d="M128.8 88.764h-13.6a2.2 2.2 0 0 0-2.2 2.2v.1a2.2 2.2 0 0 0 2.2 2.2h13.6a2.2 2.2 0 0 0 2.2-2.2v-.1a2.2 2.2 0 0 0-2.2-2.2z" fill="#777"/></svg>