<svg viewBox="0 0 135 124" fill="none" xmlns="http://www.w3.org/2000/svg"><g clip-path="url(#clip0)"><rect x="11" y="11.011" width="113" height="113" rx="17" fill="#E5E5E5"/><path d="M20.421 92.158l-4.223 3.564a1.81 1.81 0 0 1-2.94-1.016l-1.12-5.412a1.056 1.056 0 0 0-.477-.682l-4.695-2.916a1.81 1.81 0 0 1 .057-3.109l4.8-2.739c.252-.143.433-.383.502-.664l1.323-5.366a1.81 1.81 0 0 1 2.974-.906l4.088 3.72c.214.194.499.292.787.271l5.512-.4a1.81 1.81 0 0 1 1.781 2.549l-2.274 5.037a1.056 1.056 0 0 0-.015.832l2.084 5.119a1.81 1.81 0 0 1-1.874 2.48l-5.493-.605a1.056 1.056 0 0 0-.797.243z" fill="#BFBFBF"/><path opacity=".25" d="M27.849 76.642a1.81 1.81 0 0 1 .94 2.41l-2.273 5.037a1.056 1.056 0 0 0-.015.832l1.856 4.558a3.394 3.394 0 0 1-5.07-4.28l4.562-8.557zM14.18 95.937a1.804 1.804 0 0 1-.92-1.23l-1.122-5.412a1.056 1.056 0 0 0-.477-.683l-2.62-1.626 7.53-14.12.052.046 4.088 3.72c.214.194.498.292.787.271l2.946-.214L14.18 95.937z" fill="#F2F2F2"/><path d="M117.335 70.701l-5.385.779a1.782 1.782 0 0 1-1.926-2.38l1.881-5.105a1.04 1.04 0 0 0-.043-.818l-2.404-4.881a1.782 1.782 0 0 1 1.667-2.568l5.437.211a1.04 1.04 0 0 0 .765-.293l3.899-3.795a1.781 1.781 0 0 1 2.957.792l1.479 5.236c.078.274.264.504.516.637l4.814 2.536a1.78 1.78 0 0 1 .161 3.057l-4.523 3.025a1.041 1.041 0 0 0-.447.687l-.923 5.362a1.782 1.782 0 0 1-2.858 1.097l-4.275-3.367a1.04 1.04 0 0 0-.792-.212z" fill="#BFBFBF"/><path opacity=".25" d="M131.621 61.605a1.781 1.781 0 0 1-.469 2.504l-4.523 3.024a1.04 1.04 0 0 0-.446.688l-.823 4.775a3.34 3.34 0 0 1-2.007-6.218l8.268-4.773zM110.153 70.609a1.78 1.78 0 0 1-.13-1.508l1.881-5.106a1.04 1.04 0 0 0-.042-.818l-1.342-2.723 13.643-7.877.02.066 1.479 5.236c.077.274.264.504.516.637l2.573 1.355-18.598 10.738z" fill="#F2F2F2"/><path d="M20.343 37.809l-4.398 4.367a2.03 2.03 0 0 1-3.377-.869l-1.745-5.947a1.183 1.183 0 0 0-.595-.72l-5.512-2.832a2.03 2.03 0 0 1-.218-3.48l5.117-3.497c.268-.183.449-.468.5-.788l.991-6.118a2.03 2.03 0 0 1 3.243-1.282l4.907 3.785c.257.198.584.282.904.233l6.125-.949a2.03 2.03 0 0 1 2.221 2.688l-2.084 5.837c-.109.305-.088.642.059.931l2.794 5.532a2.03 2.03 0 0 1-1.87 2.944l-6.194-.179a1.184 1.184 0 0 0-.868.344z" fill="#BFBFBF"/><path opacity=".25" d="M27.236 19.792a2.029 2.029 0 0 1 1.27 2.608l-2.084 5.837c-.109.305-.088.642.058.932l2.489 4.925a3.806 3.806 0 0 1-6.056-4.324l4.323-9.978zM13.71 42.6a2.025 2.025 0 0 1-1.143-1.293l-1.744-5.946a1.184 1.184 0 0 0-.595-.72l-3.075-1.58 7.132-16.465c.022.015.043.03.063.047l4.907 3.785c.257.198.584.282.904.233l3.274-.507-9.723 22.445z" fill="#F2F2F2"/><path d="M108.542 26.251l-6.817.986a2.255 2.255 0 0 1-2.439-3.012l2.381-6.463a1.315 1.315 0 0 0-.054-1.037l-3.044-6.179a2.255 2.255 0 0 1 2.111-3.25l6.883.267c.36.014.71-.12.969-.372l4.936-4.804a2.255 2.255 0 0 1 3.743 1.003l1.873 6.629c.098.347.334.638.653.806l6.094 3.21a2.255 2.255 0 0 1 .203 3.87l-5.725 3.83c-.3.2-.504.515-.566.87l-1.169 6.788a2.255 2.255 0 0 1-3.618 1.389l-5.411-4.262a1.318 1.318 0 0 0-1.003-.269z" fill="#BFBFBF"/><path d="M84.047.943a.493.493 0 0 1 .895.247l2.519 36.429c.019.27.253.475.523.458l36.44-2.358c.464-.03.707.54.365.855L97.878 61.256a.493.493 0 0 0-.032.694l24.563 27.02a.493.493 0 0 1-.441.818l-36.076-5.65a.493.493 0 0 0-.562.408l-5.81 36.05a.493.493 0 0 1-.915.166L60.53 89.034a.493.493 0 0 0-.67-.186l-31.808 17.935a.493.493 0 0 1-.7-.612L40.89 72.257a.493.493 0 0 0-.273-.64L6.763 57.932a.493.493 0 0 1 .042-.928L41.76 46.44a.493.493 0 0 0 .33-.612L31.682 10.828a.493.493 0 0 1 .752-.546l30.051 20.744a.493.493 0 0 0 .684-.124L84.047.942z" fill="#F2F2F2"/><path d="M66.904 27.638c-3.133-6.944-10.45-11.431-18.444-10.61-9.993 1.028-17.26 9.962-16.233 19.955.045.436.105.867.18 1.292a20.36 20.36 0 0 0-5.179 15.794c1.153 11.213 11.179 19.37 22.393 18.216 9.122-.938 16.221-7.747 17.93-16.292 3.346 6.415 10.362 10.473 17.997 9.687 9.992-1.027 17.26-9.96 16.233-19.954-1.028-9.992-9.962-17.26-19.955-16.232A18.17 18.17 0 0 0 76.212 31c-5.15 1.422-8.194-1.402-9.307-3.362z" fill="#959595"/><path d="M34.16 74.276c-1.856-18.051 11.273-34.19 29.325-36.046l1.067-.11c18.052-1.856 34.19 11.273 36.047 29.324l1.548 15.057c.548 5.322-3.323 10.08-8.645 10.627l-47.166 4.85c-5.322.548-10.08-3.323-10.627-8.645L34.16 74.277z" fill="#BFBFBF"/><path d="M38.236 65.774a5.566 5.566 0 1 1-11.073 1.139 5.566 5.566 0 0 1 11.073-1.139zM105.663 58.84A5.565 5.565 0 1 1 94.59 59.98a5.566 5.566 0 0 1 11.073-1.139z" fill="#BFBFBF"/><path d="M50.501 53.472a6.472 6.472 0 0 1 5.777-7.1l.684-.07a6.472 6.472 0 0 1 7.1 5.775l.455 4.422a6.472 6.472 0 0 1-5.776 7.1l-.685.07a6.472 6.472 0 0 1-7.1-5.775l-.455-4.422z" fill="#fff"/><path d="M57.984 52.007a3.02 3.02 0 0 1 6.008-.618l.401 3.904a3.02 3.02 0 1 1-6.007.618l-.402-3.904z" fill="#959595"/><path d="M80.365 50.4a6.472 6.472 0 0 0-7.1-5.775l-.685.07a6.472 6.472 0 0 0-5.776 7.1l.455 4.422a6.472 6.472 0 0 0 7.1 5.776l.685-.07a6.472 6.472 0 0 0 5.776-7.1l-.455-4.422z" fill="#fff"/><path d="M80.294 49.712a3.02 3.02 0 1 0-6.007.618l.402 3.904a3.02 3.02 0 0 0 6.007-.617l-.402-3.905z" fill="#959595"/><path d="M82.353 53.179l-15.73-.885.956-7.73 14.851.85-.077 7.765z" fill="#DA8E74"/><path d="M87.243 40.678c5.22 3.92 9.663 13.23 11.815 19.637-.233.087-.48.146-.738.172l-1.021.105a7.966 7.966 0 0 1-8.74-7.109l-1.316-12.805zM34.216 66.983c.803-6.712 3.258-16.73 7.571-21.63l1.317 12.805a7.965 7.965 0 0 1-7.11 8.738l-1.02.105a2.99 2.99 0 0 1-.758-.018z" fill="#959595"/><path d="M46.17 46.765l37.142-3.82L84.511 54.6l-18.952-1.794-18.191 5.614-1.198-11.654z" fill="#BFBFBF"/><path fill-rule="evenodd" clip-rule="evenodd" d="M54.726 73.786a6.472 6.472 0 0 0-11.538 5.866c2.295 4.618 8.677 9.017 18.041 8.054a6.472 6.472 0 1 0-1.324-12.877c-3.965.408-5.175-1.127-5.206-1.104-.003.003.007.022.027.06z" fill="#fff"/><path d="M62.875 67.513a8.916 8.916 0 0 1 10.738-6.612l7.641 1.817a8.916 8.916 0 1 1-4.125 17.35l-7.642-1.817a8.916 8.916 0 0 1-6.612-10.738z" fill="#959595"/><path d="M47.502 72.531a8.916 8.916 0 0 1 7.027-10.47l7.707-1.516a8.916 8.916 0 1 1 3.443 17.497l-7.707 1.517a8.916 8.916 0 0 1-10.47-7.028z" fill="#959595"/><path d="M70.94 60.712a4.192 4.192 0 1 1-8.223 1.641 4.192 4.192 0 0 1 8.222-1.64z" fill="#BFBFBF"/><path fill-rule="evenodd" clip-rule="evenodd" d="M66.873 47.805a3.39 3.39 0 0 1 4.703-.933c.847.567 4.305 2.088 8.747 1.379a3.39 3.39 0 0 1 1.07 6.696c-6.299 1.006-11.466-1.019-13.588-2.439a3.39 3.39 0 0 1-.933-4.703zM64.38 40.71a3.39 3.39 0 0 0-4.751.652c-.616.812-3.39 3.377-7.82 4.154a3.39 3.39 0 0 0 1.17 6.679c6.283-1.102 10.508-4.7 12.052-6.734a3.39 3.39 0 0 0-.652-4.75z" fill="#959595"/><path fill-rule="evenodd" clip-rule="evenodd" d="M99.526 107.013c.33 3.213-1.93 6.078-5.05 6.399a5.54 5.54 0 0 1-1.61-.071l-4.453-.857c-5.946-1.146-10.985-5.016-13.787-10.377l-1.56-.102.135-3.357a20.455 20.455 0 0 1-.128-.43l-.619-2.16.861-.237c.337-7.04 5.045-13.025 11.65-14.826l.204-.054 5.006-1.292c.267-.069.54-.118.814-.146 3.071-.316 5.83 1.953 6.23 5.09l.016.147 2.29 22.273zM41.044 90.52c-.33-3.214 1.883-6.074 4.943-6.389.27-.027.54-.034.811-.02l5.068.255c6.795.343 12.624 5.285 14.385 12.181l.875.06-.159 2.24a21.8 21.8 0 0 1-.036.445l.806 3.262-1.478.414c-1.586 5.727-5.549 10.477-10.905 12.835l-.244.106-4.103 1.737a5.33 5.33 0 0 1-1.533.394c-3.013.31-5.724-1.963-6.123-5.1l-.017-.148-2.29-22.273z" fill="#ABABAB"/><path fill-rule="evenodd" clip-rule="evenodd" d="M84.021 96.342a15.174 15.174 0 0 0-10.18 3.37 1.461 1.461 0 0 1-1.839-2.27 18.095 18.095 0 0 1 12.14-4.019l.313.013a1.46 1.46 0 0 1-.122 2.92l-.312-.014zM54.968 96.423a18.095 18.095 0 0 1 12.704 1.464 1.46 1.46 0 0 1-1.338 2.597 15.174 15.174 0 0 0-10.653-1.227l-.303.076a1.46 1.46 0 1 1-.713-2.834l.303-.076z" fill="#959595"/><path d="M64.23 93.15a2.906 2.906 0 0 1 2.594-3.188l4.573-.47a2.906 2.906 0 0 1 3.188 2.594l1.287 12.508a2.906 2.906 0 0 1-2.594 3.188l-4.573.47a2.906 2.906 0 0 1-3.188-2.593L64.23 93.151z" fill="#ABABAB"/><path opacity=".25" d="M126.549 14.858a2.257 2.257 0 0 1-.594 3.17l-5.726 3.828c-.299.2-.504.515-.565.87l-1.041 6.045a4.23 4.23 0 0 1-2.541-7.87l10.467-6.043zM99.37 26.256a2.248 2.248 0 0 1-.163-1.91l2.381-6.463a1.315 1.315 0 0 0-.054-1.036L99.836 13.4l17.271-9.971.025.083 1.872 6.629c.098.347.334.638.653.806l3.258 1.716L99.37 26.256z" fill="#F2F2F2"/></g><defs><clipPath id="clip0"><path fill="#fff" d="M0 0h135v124H0z"/></clipPath></defs></svg>