<svg viewBox="0 0 135 124" fill="none" xmlns="http://www.w3.org/2000/svg"><path d="M11.84 28c0-9.389 7.61-17 17-17h78.999c9.389 0 17 7.611 17 17v79c0 9.389-7.611 17-17 17h-79c-9.388 0-17-7.611-17-17V28z" fill="#B2B2B2"/><path fill-rule="evenodd" clip-rule="evenodd" d="M43.291 77.837l-1.912-.88a1.236 1.236 0 0 1-.606-1.64l.002-.005 3.517-7.55a1.236 1.236 0 0 1 1.637-.601l1.913.88c.62.286.891 1.02.606 1.64l-.003.005-3.517 7.55a1.236 1.236 0 0 1-1.637.601z" fill="#929292"/><path fill-rule="evenodd" clip-rule="evenodd" d="M46.357 83.002l-4.839-3.686-6.086-1.302a2.472 2.472 0 0 1-1.725-3.458l.96-2.068a2.471 2.471 0 0 1 3.827-.856l4.72 3.941 5.989.972a2.472 2.472 0 0 1 1.846 3.48l-.953 2.051a2.472 2.472 0 0 1-3.739.926zM48.179 69.727l-3.52-1.621a1.92 1.92 0 0 1-.942-2.548l.004-.008a1.938 1.938 0 0 1 2.567-.942l3.52 1.62a1.92 1.92 0 0 1 .938 2.556 1.938 1.938 0 0 1-2.567.942z" fill="#A0A0A0"/><path d="M27.58 82.526c12.452-2.682 24.168 2.67 26.167 11.953l.34 1.576c.093.435-.304.89-.888 1.015l-42.982 9.256c-.584.126-1.133-.125-1.227-.561l-.34-1.575c-1.998-9.284 6.476-18.983 18.93-21.664z" fill="#BABABA"/><path d="M31.573 101.727l-4.129-19.172.135-.03c12.453-2.681 24.169 2.67 26.168 11.954l.34 1.576c.093.435-.304.89-.888 1.015l-21.626 4.657z" fill="#C8C8C8"/><path d="M28.898 94.23l-1.945-2.335 11.302-9.418 1.945 2.334-11.302 9.418z" fill="#BABABA"/><path fill-rule="evenodd" clip-rule="evenodd" d="M23.686 51.977l.916 4.255c.449 2.084.065 8.59-1.49 10.05L9.68 74.266a1.934 1.934 0 0 1-3.19-.913c-1.59-5.968-1.755-11.344-.495-16.13 1.273-4.833 5.668-7.663 13.186-8.492a4.143 4.143 0 0 1 4.505 3.246z" fill="#979797"/><path fill-rule="evenodd" clip-rule="evenodd" d="M.517 68.45a.563.563 0 0 1-.264-.647 7.749 7.749 0 0 1 11.317-4.592c.226.13.334.396.262.646A7.75 7.75 0 0 1 .518 68.45z" fill="#979797"/><path fill-rule="evenodd" clip-rule="evenodd" d="M1.646 79.514a.83.83 0 0 1-.811-.637c-.808-3.368-.095-7.055 2.26-9.935 2.27-2.776 5.578-4.205 8.913-4.195a.832.832 0 0 1 .806.638c.808 3.367.095 7.054-2.26 9.934-2.268 2.775-5.574 4.204-8.908 4.195z" fill="#979797"/><path fill-rule="evenodd" clip-rule="evenodd" d="M9.199 79.76a.43.43 0 0 1-.431-.315 5.915 5.915 0 0 1 5.506-7.515.43.43 0 0 1 .429.314 5.915 5.915 0 0 1-5.504 7.515z" fill="#979797"/><path fill-rule="evenodd" clip-rule="evenodd" d="M25.933 75.534l.27-.058a4.696 4.696 0 0 1 5.579 3.602l.814 3.78a4.696 4.696 0 0 1-3.602 5.58l-.27.058a4.696 4.696 0 0 1-5.58-3.602l-.814-3.781a4.696 4.696 0 0 1 3.603-5.58z" fill="#BABABA"/><path fill-rule="evenodd" clip-rule="evenodd" d="M19.39 54.338l4.051-.872A9.392 9.392 0 0 1 34.6 60.67l2.384 11.071A9.392 9.392 0 0 1 29.78 82.9l-4.05.872a9.392 9.392 0 0 1-11.159-7.205l-2.384-11.071a9.392 9.392 0 0 1 7.205-11.158z" fill="#D8D8D8"/><path fill-rule="evenodd" clip-rule="evenodd" d="M17.782 66.551l12.152-2.616a1.381 1.381 0 1 1 .581 2.7l-12.151 2.617a1.381 1.381 0 1 1-.582-2.7z" fill="#BABABA"/><path fill-rule="evenodd" clip-rule="evenodd" d="M16.173 80.743c.203-.684.894-1.1 1.594-.96l8.607 1.716a2.486 2.486 0 0 0 1.933-.416l7.137-5.107a1.381 1.381 0 0 1 1.848.22l3.347 3.87c.2.231.175.58-.055.779l-10.775 9.376c-.286.25-.68.334-1.043.225l-13.68-4.11a.552.552 0 0 1-.37-.687l1.457-4.906z" fill="#C8C8C8"/><path d="M23.26 94.345c-.846 5.432-5.68 9.189-10.8 8.392-5.118-.796-8.583-5.846-7.737-11.278.846-5.432 5.68-9.19 10.8-8.393 5.119.797 8.583 5.847 7.737 11.279zM35.842 91.635c3.007 4.603 8.96 6.037 13.297 3.204 4.337-2.833 5.416-8.86 2.41-13.463-3.006-4.603-8.96-6.037-13.297-3.204-4.337 2.833-5.416 8.86-2.41 13.463z" fill="#D8D8D8"/><path d="M20.818 92.458a2.21 2.21 0 1 1-4.32.93 2.21 2.21 0 0 1 4.32-.93zM42.304 87.267a2.21 2.21 0 1 1-4.32.93 2.21 2.21 0 0 1 4.32-.93z" fill="#C8C8C8"/><path fill-rule="evenodd" clip-rule="evenodd" d="M13.832 71.058l11.247-.144 10.31-4.498a2.21 2.21 0 0 1 3.044 1.56l1.152 5.349a2.21 2.21 0 0 1-.885 2.27l-10.08 7.128a2.486 2.486 0 0 1-1.908.41l-12.12-2.347a2.21 2.21 0 0 1-1.74-1.705l-1.153-5.349a2.21 2.21 0 0 1 2.133-2.674z" fill="#D8D8D8"/><path fill-rule="evenodd" clip-rule="evenodd" d="M25.137 71.184a1.52 1.52 0 0 1 1.805 1.166l.989 4.59a1.52 1.52 0 0 1-2.97.64l-.99-4.59a1.52 1.52 0 0 1 1.166-1.806zM19.197 72.463a1.52 1.52 0 0 1 1.805 1.166l.814 3.78a1.52 1.52 0 0 1-2.97.64l-.815-3.78a1.52 1.52 0 0 1 1.166-1.806zM31.078 69.905a1.52 1.52 0 0 1 1.805 1.165l.814 3.78a1.52 1.52 0 1 1-2.97.64l-.814-3.78a1.52 1.52 0 0 1 1.165-1.805z" fill="#BABABA"/><path opacity=".39" d="M25.393 57.867a1.381 1.381 0 0 1 .039-2.762c2.769.039 4.867 1.194 6.1 3.416a1.381 1.381 0 0 1-2.414 1.34c-.734-1.32-1.91-1.969-3.725-1.994zM12.242 90.558c-1.29.86-1.56 1.23-2.051 2.828a.967.967 0 1 1-1.848-.569c.62-2.016 1.159-2.757 2.827-3.868a.967.967 0 0 1 1.072 1.61z" fill="#fff"/><path d="M70.694 61.652h.002a7.421 7.421 0 0 1 8.491-5.972l34.511 5.625a7.42 7.42 0 0 1 6.155 8.36h.002l-5.499 33.74a2.569 2.569 0 0 0 2.121 2.948l4.977.811c.584.095.979.645.884 1.228-.93 5.706-6.309 9.577-12.015 8.648l-45.633-7.438c-5.706-.93-9.578-6.309-8.648-12.015a1.07 1.07 0 0 1 1.229-.884l4.977.812c1.4.228 2.72-.722 2.947-2.122l5.5-33.74z" fill="#BFBFBF"/><path d="M74.235 63.213l41.767 6.807-6.793 41.677-41.766-6.807 6.792-41.677z" fill="#E5E5E5"/><path d="M69.19 81.622a4.67 4.67 0 1 0 1.503-9.218 4.67 4.67 0 0 0-1.502 9.218zM114.94 89.079a4.67 4.67 0 1 0 1.502-9.22 4.67 4.67 0 0 0-1.502 9.22z" fill="#E5E5E5"/><path d="M65.273 105.299a1.284 1.284 0 0 1 1.474-1.06l43.329 7.061c.7.115 1.174.774 1.06 1.474l-.699 4.294a1.284 1.284 0 0 1-1.474 1.061l-43.329-7.062a1.284 1.284 0 0 1-1.06-1.474l.7-4.294z" fill="#979797"/><path d="M68.953 72.45a4.67 4.67 0 0 1 5.434 3.116 5.205 5.205 0 0 0 2.472-3.64l1.052-6.453-7.619-1.241-1.339 8.218zM111.941 81.692a4.669 4.669 0 0 1 6.136-1.24l1.339-8.214-7.619-1.242-1.051 6.454a5.204 5.204 0 0 0 1.195 4.242z" fill="#BFBFBF"/><path d="M78.758 66.343c5.65.92 16.31 3.847 17.23-1.803.3-1.84 15.943-3.516 10.294-4.437-3.678-.599-23.129-6.047-29.323-9.298-2.939-1.542-5.95-3.927-5.95-3.927-.437-.673-1.383-.786-1.864-.144a9.003 9.003 0 0 0-1.683 3.963 9.036 9.036 0 0 0 3.002 8.288 10.365 10.365 0 0 0 8.294 7.358z" fill="#BFBFBF"/><path d="M69.551 60.083c.114-.7.774-1.175 1.474-1.06l49.352 8.043a1.284 1.284 0 0 1 1.06 1.474l-.57 3.496a1.284 1.284 0 0 1-1.473 1.061l-49.352-8.043a1.284 1.284 0 0 1-1.06-1.474l.57-3.497z" fill="#979797"/><path d="M86.017 108.097a.926.926 0 0 1 1.001-.555l2.787.455a.923.923 0 0 1 .773.843l.59 7.92a.925.925 0 0 1-1.071.981l-6.45-1.051a.925.925 0 0 1-.704-1.271l3.074-7.322z" fill="#fff"/><path d="M72.153 82.676a5.33 5.33 0 0 1 6.118-4.403l29.363 4.785a5.33 5.33 0 0 1-1.715 10.522l-29.363-4.786a5.33 5.33 0 0 1-4.403-6.118z" fill="#D5D5D5"/><path fill-rule="evenodd" clip-rule="evenodd" d="M74.709 81.366a.867.867 0 0 1 1.156.406l1.794 3.741a.867.867 0 1 1-1.563.75l-1.794-3.741a.867.867 0 0 1 .407-1.156zM109.651 87.06a.867.867 0 0 0-1.226.019l-2.889 2.978a.867.867 0 0 0 1.244 1.207l2.889-2.978a.867.867 0 0 0-.018-1.225zM107.889 84.971a.867.867 0 0 0-1.226.019l-2.888 2.978a.867.867 0 1 0 1.244 1.207l2.889-2.978a.867.867 0 0 0-.019-1.226zM77.043 79.944a.867.867 0 0 1 1.156.407l1.794 3.74a.867.867 0 1 1-1.563.75l-1.794-3.74a.867.867 0 0 1 .407-1.157z" fill="#BFBFBF"/><path d="M79.318 77.465a7.486 7.486 0 1 1 14.776 2.409 7.486 7.486 0 0 1-14.776-2.409z" fill="#fff"/><path d="M91.945 79.523a7.486 7.486 0 1 1 14.776 2.408 7.486 7.486 0 0 1-14.776-2.408z" fill="#fff"/><path d="M91.188 79.415a1.878 1.878 0 1 1-3.707-.604 1.878 1.878 0 0 1 3.707.604zM94.825 80.008a1.878 1.878 0 1 0 3.707.604 1.878 1.878 0 0 0-3.707-.604z" fill="#979797"/><path d="M111.363 75.3a2.439 2.439 0 1 1-4.814-.783 2.439 2.439 0 0 1 4.814.783zM105.614 72.735a1.607 1.607 0 1 1-3.172-.518 1.607 1.607 0 0 1 3.172.518z" fill="#D4D4D4"/><path d="M87.545 96.01a4.95 4.95 0 0 0-5.394 1.514c-.643.77-.114 1.837.836 2.16l5.928 2.018c.95.324 2.02-.199 1.98-1.201a4.95 4.95 0 0 0-3.35-4.491z" fill="#fff"/><path d="M92.754 81.126c.11.018.83 1.72 1.556 3.5.723 1.773-.78 3.636-2.67 3.329-1.888-.308-2.722-2.553-1.474-4.004 1.254-1.458 2.478-2.843 2.588-2.825z" fill="#BFBFBF"/><path d="M75.647 49.636a1.574 1.574 0 0 1 1.976-1.027l43.031 13.604a1.575 1.575 0 1 1-.949 3.002L76.674 51.612a1.574 1.574 0 0 1-1.027-1.976z" fill="#EBE3E3"/><path fill-rule="evenodd" clip-rule="evenodd" d="M87.863 50.746l23.184 7.33a5.248 5.248 0 0 0-3.638-4.453l-14.01-4.43a5.249 5.249 0 0 0-5.536 1.553zm6.485-4.554a8.396 8.396 0 0 0-10.537 5.474 1.05 1.05 0 0 0 .685 1.318l28.02 8.858a1.05 1.05 0 0 0 1.317-.685 8.396 8.396 0 0 0-5.475-10.536l-14.01-4.43z" fill="#EBE3E3"/><path d="M80.283 48.9a2.624 2.624 0 1 1 5.004 1.582 1.574 1.574 0 0 1-1.976 1.026l-2.001-.632a1.574 1.574 0 0 1-1.027-1.976zM113.307 59.34a2.624 2.624 0 0 1 5.004 1.582 1.575 1.575 0 0 1-1.976 1.026l-2.002-.633a1.574 1.574 0 0 1-1.026-1.975zM97.773 42.321a4.723 4.723 0 0 1 9.007 2.847l-.633 2.002a4.723 4.723 0 0 1-9.007-2.848l.633-2z" fill="#EBE3E3"/><path d="M99.775 42.954a2.624 2.624 0 1 1 5.003 1.582l-.632 2.001a2.624 2.624 0 0 1-5.004-1.582l.633-2.001z" fill="#B2B2B2"/><path d="M100.933 42.77a1.05 1.05 0 1 1 2.003.635 1.05 1.05 0 0 1-2.003-.635z" fill="#BFBFBF"/><path fill-rule="evenodd" clip-rule="evenodd" d="M95.038 26.416l.599 4.266 2.588 1.743a.575.575 0 0 1-.168 1.031l-3.008.831-1.922 3.855a.575.575 0 0 1-1.084-.176l-.599-4.267-2.588-1.742a.575.575 0 0 1 .168-1.031l3.008-.831 1.922-3.856a.575.575 0 0 1 1.084.177z" fill="#fff"/><path d="M84.7 41.277a.525.525 0 0 1 .118-.733l1.704-1.226a.525.525 0 0 1 .733.12l1.226 1.703a.525.525 0 0 1-.12.733L86.659 43.1a.525.525 0 0 1-.733-.12L84.7 41.278zM112.408 41.137a.525.525 0 0 1 .119-.733l1.704-1.226a.524.524 0 0 1 .732.12L116.19 41a.525.525 0 0 1-.12.733l-1.703 1.226a.525.525 0 0 1-.733-.12l-1.226-1.703z" fill="#fff"/><path d="M39.086 6.844a7.633 7.633 0 1 0-4.813 9.555 7.633 7.633 0 1 0 4.813-9.555z" fill="#979797"/><path d="M23.62 30.092a9.2 9.2 0 0 1 5.385-11.845L55.12 8.452a9.2 9.2 0 0 1 11.845 5.384l6.119 16.314c2.025 5.4-.71 11.418-6.11 13.444l-23.791 8.922c-5.4 2.025-11.418-.71-13.444-6.11l-6.118-16.314z" fill="#E5E5E5"/><path d="M27.005 42.797a4.124 4.124 0 1 0-2.897-7.724 4.124 4.124 0 0 0 2.897 7.724zM72.77 25.633a4.124 4.124 0 1 0-2.896-7.724 4.124 4.124 0 0 0 2.896 7.724z" fill="#E5E5E5"/><path d="M26.095 20.007a9.204 9.204 0 0 0-2.474 10.085l2.49 6.642.317-.119a5.52 5.52 0 0 0 3.23-7.107l-3.563-9.501zM58.47 7.865a9.204 9.204 0 0 1 8.495 5.971l2.491 6.641-.316.119a5.52 5.52 0 0 1-7.107-3.23L58.47 7.865z" fill="#CECECE"/><path fill-rule="evenodd" clip-rule="evenodd" d="M49.82 14.527a5.82 5.82 0 0 0-3.405 7.494l1.243 3.316a5.82 5.82 0 0 0 10.9-4.088l-1.243-3.316a5.82 5.82 0 0 0-7.494-3.406zM36.99 19.34a5.82 5.82 0 0 1 7.494 3.405l1.244 3.316a5.82 5.82 0 1 1-10.9 4.088l-1.244-3.316a5.82 5.82 0 0 1 3.406-7.494z" fill="#fff"/><path d="M48.565 21.722a2.118 2.118 0 0 0 .897-3.325 2.613 2.613 0 0 1 3.78 1.33l1.151 3.072a2.613 2.613 0 1 1-4.894 1.835l-1.074-2.865c.047-.014.093-.03.14-.047zM38.05 25.665a2.118 2.118 0 0 0 .897-3.325 2.613 2.613 0 0 1 3.78 1.33l1.151 3.072a2.613 2.613 0 1 1-4.893 1.835l-1.075-2.865c.047-.014.094-.03.14-.047z" fill="#979797"/><path fill-rule="evenodd" clip-rule="evenodd" d="M36.778 35.373a6.212 6.212 0 0 0-.573 4.13l.512 2.543a12.06 12.06 0 0 0 13.391 9.577c6.8-.892 11.487-7.267 10.312-14.024l-.445-2.554c-.503-2.892-3.509-4.23-5.893-3.474-.882.28-2.043.575-3.402.754-.816.107-2.14.08-3.672-.028-5.155-1.97-9.207.409-10.655 1.943l.425 1.133zm1.901 2.762l8.582-3.218c1.477.09 2.82.106 3.757-.017a22.459 22.459 0 0 0 3.85-.853c1.094-.348 2.352.31 2.549 1.443l.444 2.554c.922 5.302-2.756 10.304-8.09 11.004a9.462 9.462 0 0 1-10.508-7.515l-.512-2.542a3.719 3.719 0 0 1-.072-.856z" fill="#E5E5E5"/><path d="M38.751 38.99c-.506-2.517 1.664-4.777 4.214-4.476 2.885.341 6.235.624 8.053.386a22.464 22.464 0 0 0 3.85-.854c1.094-.347 2.352.312 2.549 1.444l.444 2.554a9.462 9.462 0 1 1-18.598 3.489l-.512-2.542z" fill="#979797"/><path d="M54.339 47.145a9.415 9.415 0 0 1-4.569 1.903 9.452 9.452 0 0 1-7.912-2.68 6.905 6.905 0 0 1 12.48.777z" fill="#BFBFBF"/><path d="M46.794 37.41c.274-.153.519-.336.734-.543a3.454 3.454 0 0 0 5.562-2.338c-.631.144-1.325.273-2.072.371-1.818.239-5.168-.044-8.053-.385a3.835 3.835 0 0 0-1.428.098 3.544 3.544 0 0 0 5.257 2.797z" fill="#fff"/><path d="M47.286 27.28c.099-.038 1.487 1.017 2.916 2.134 1.422 1.111 1.066 3.341-.624 3.975-1.69.634-3.425-.812-3.084-2.585.342-1.78.694-3.488.792-3.525z" fill="#BFBFBF"/></svg>