<svg viewBox="0 0 136 125" fill="none" xmlns="http://www.w3.org/2000/svg"><rect x="12.158" y="11.027" width="113" height="113" rx="17" fill="#FEC701"/><path fill-rule="evenodd" clip-rule="evenodd" d="M65.914 27.364c8.2 8.201 8.2 21.498 0 29.699L12.508 110.47a17.074 17.074 0 0 1-.349-3.443V51.421l24.056-24.057c8.201-8.2 21.498-8.2 29.699 0zm59.245 1.057v35.354l-8.996 8.997c-4.881 4.881-12.796 4.881-17.677 0-4.882-4.882-4.882-12.796 0-17.678l26.673-26.673z" fill="#FFD900"/><path d="M10.31 29.956c2.595-15.93 16.355-27.63 32.494-27.63 16.14 0 29.9 11.7 32.494 27.63l8.48 52.054a2.234 2.234 0 0 1-2.205 2.593H4.035A2.234 2.234 0 0 1 1.83 82.01l8.48-52.055z" fill="#FF9600"/><path d="M32.957 15.398h-.246c-9.095 0-16.739 6.83-17.758 15.868L11.314 63.54c-.485 4.305 2.883 8.073 7.214 8.073h49.853c4.331 0 7.7-3.768 7.214-8.073L74.46 43.568a6.55 6.55 0 0 0-.139-13.098H51.99c-9.256 0-17.009-6.433-19.032-15.072z" fill="#FFD900"/><path d="M34.611 72.73c0-.617.5-1.117 1.117-1.117h14.155c.617 0 1.117.5 1.117 1.117v10.757c0 .617-.5 1.117-1.117 1.117H35.728c-.617 0-1.117-.5-1.117-1.117V72.73z" fill="#F68B00"/><path d="M42.611 41.79c0-4.934-4-8.934-8.935-8.934h-7.24c-.617 0-1.117.5-1.117 1.116v8.833c0 4.934 4 8.935 8.935 8.935h4.141a4.216 4.216 0 0 0 4.216-4.217v-5.732z" fill="#FFF1A2"/><path d="M62.1 40.223H44.946a8.938 8.938 0 0 1 8.798-7.367h7.24c.618 0 1.118.5 1.118 1.116v6.25z" fill="#F68B00"/><path d="M44.81 41.79c0-4.934 4.001-8.934 8.936-8.934h7.24c.617 0 1.117.5 1.117 1.116v8.833c0 4.934-4 8.935-8.935 8.935h-4.141a4.216 4.216 0 0 1-4.217-4.217v-5.732z" fill="#FFF1A2"/><path d="M47.84 43.784v1.6a3.882 3.882 0 1 0 7.763 0v-1.6H47.84zM31.672 43.784v1.6a3.882 3.882 0 1 0 7.763 0v-1.6h-7.763z" fill="#F68B00"/><path d="M61.71 45.434l-16.9 1.835V41.79c0-4.935 4.001-8.935 8.936-8.935h7.24c.617 0 1.117.5 1.117 1.116v8.833a8.93 8.93 0 0 1-.393 2.63zM42.61 47.307v-5.516c0-4.935-4-8.935-8.934-8.935h-7.24c-.617 0-1.118.5-1.118 1.116v8.833c0 .93.142 1.826.406 2.67l16.887 1.832z" fill="#FFB100"/><path d="M32.896 78.542V12.784h-3.36a17.312 17.312 0 0 0-17.11 14.671L4.539 78.542h28.357z" fill="#FF9600"/><path d="M43.533 47.355c.16 0 1.57 2.238 3.005 4.586 1.43 2.337-.266 5.316-3.005 5.316s-4.434-2.979-3.005-5.316c1.436-2.348 2.846-4.586 3.005-4.586z" fill="#F68B00"/><path fill-rule="evenodd" clip-rule="evenodd" d="M50.505 65.941c-5.943-2.792-11.796-1.148-13.894-.026a1.126 1.126 0 0 1-1.06-1.985c2.548-1.363 9.163-3.196 15.911-.026a1.125 1.125 0 1 1-.957 2.037z" fill="#F68B00"/><path d="M109.084 69.641h5.393v37.279h4.827c.563 0 1.02.456 1.02 1.02v3.058a1.02 1.02 0 0 1-1.02 1.02H104.35a1.02 1.02 0 0 1-1.02-1.02v-3.058c0-.564.457-1.02 1.02-1.02h4.734V69.641z" fill="#FFD900"/><path d="M101.145 45.86a7.34 7.34 0 0 1 6.841 7.809l-2.045 30.966a3.337 3.337 0 0 1-3.2 3.115l-.187 2.836a2.002 2.002 0 0 1-2.13 1.866l-4.661-.308a2.002 2.002 0 0 1-1.866-2.13l.187-2.833a3.337 3.337 0 0 1-2.793-3.513L93.336 52.7a7.341 7.341 0 0 1 7.809-6.841zM127.024 87.472a3.338 3.338 0 0 0 2.956-3.347l-.297-31.032a7.342 7.342 0 0 0-14.682.14l.297 31.032a3.337 3.337 0 0 0 3.05 3.293l.027 2.84a2.003 2.003 0 0 0 2.022 1.982l4.671-.044a2.002 2.002 0 0 0 1.983-2.022l-.027-2.841z" fill="#FF9600"/><path fill-rule="evenodd" clip-rule="evenodd" d="M96.076 49.587l26.804-3.397c1.306-.165 2.5.76 2.665 2.066l3.945 31.133a2.384 2.384 0 0 1-2.065 2.665L100.62 85.45a2.384 2.384 0 0 1-2.664-2.065L94.01 52.251a2.384 2.384 0 0 1 2.065-2.664z" fill="#FFF1A2"/><path fill-rule="evenodd" clip-rule="evenodd" d="M100.153 45.034l4.03-.51 5.36 42.3a1.855 1.855 0 0 1-1.607 2.072l-7.171.909a2.384 2.384 0 0 1-2.665-2.066v-.004l-4.31-34.509a7.341 7.341 0 0 1 6.363-8.192zM117.703 42.81l-4.017.509 5.36 42.3a1.855 1.855 0 0 0 2.073 1.607l7.095-.9a2.385 2.385 0 0 0 2.066-2.664l-4.371-34.492a7.34 7.34 0 0 0-8.206-6.36z" fill="#FFB100"/><path d="M116.331 40.556l.938.253a3.426 3.426 0 0 1 2.479 2.686c.048.171.068.353.055.538.01.391-.048.781-.169 1.152l-3.107 20.419-1.518-11.982c.085-.467.101-.956.038-1.452l-.666-5.253a4.768 4.768 0 0 0-5.329-4.13l-.433.054a4.768 4.768 0 0 0-4.131 5.33l.666 5.253c.056.446.173.87.34 1.264l1.546 12.197-8.306-19.66a1.586 1.586 0 0 1-.119-.476 3.382 3.382 0 0 1 1.661-3.718l1.22-.673a19.957 19.957 0 0 1 14.835-1.801z" fill="#FF9600"/><path d="M109.052 42.786l-.433.055a4.768 4.768 0 0 0-4.131 5.33l.666 5.253a4.768 4.768 0 0 0 5.329 4.13l.433-.055a4.768 4.768 0 0 0 4.131-5.329l-.666-5.253a4.768 4.768 0 0 0-5.329-4.13z" fill="#F68B00"/><path d="M90.75 61.488c6.127 1.188 10.753 6.582 10.753 13.056V77.5c0 6.474-4.626 11.868-10.753 13.056v16.364h4.83c.563 0 1.02.456 1.02 1.02v3.058a1.02 1.02 0 0 1-1.02 1.02H80.626a1.02 1.02 0 0 1-1.02-1.02v-3.058c0-.564.457-1.02 1.02-1.02h5.025V90.555c-6.124-1.19-10.747-6.583-10.747-13.055v-2.956c0-6.472 4.623-11.864 10.747-13.054v-.245h5.099v.243z" fill="#FFD900"/><path d="M80.457 56.506l-3.217 1.816a1.478 1.478 0 0 0 1.453 2.574l3.217-1.817a1.478 1.478 0 1 0-1.453-2.573z" fill="#FFB100"/><path d="M83.961 56.841l-8.3 4.688c-4.459 2.518-6.021 8.193-3.49 12.675l3.091 5.473a.648.648 0 0 0 .882.248l23.322-13.172c.31-.176.42-.571.243-.883l-3.091-5.474c-2.531-4.481-8.198-6.073-12.657-3.555z" fill="#F68B00"/><path fill-rule="evenodd" clip-rule="evenodd" d="M69.553 78.962L90.86 66.928a4.078 4.078 0 0 1 5.557 1.546L71.56 82.514a2.04 2.04 0 1 1-2.006-3.552z" fill="#FFB100"/><path d="M82.517 64.565l-5.326 3.009a1.02 1.02 0 0 0-.387 1.389l1.003 1.776c.277.49.899.663 1.39.386l5.326-3.009a1.02 1.02 0 0 0 .386-1.389l-1.002-1.775a1.02 1.02 0 0 0-1.39-.387z" fill="#FFF1A2"/></svg>