<svg viewBox="0 0 135 124" version="1.1" xmlns="http://www.w3.org/2000/svg"><g stroke="none" stroke-width="1" fill="none" fill-rule="evenodd"><g transform="translate(11 11)"><rect fill="#FFCA00" x="0" y="0" width="113" height="113" rx="17"/><path d="M111.44 9.93L9.92 111.45a16.94 16.94 0 0 0 7.08 1.56h41.32L113 58.33V17.01a16.94 16.94 0 0 0-1.56-7.08zM39.32 58.07l58-58c-.43 0-.87-.07-1.31-.07H47.42L14.34 33.09c-6.904 6.904-6.904 18.096 0 25s18.096 6.904 25 0l-.02-.02z" fill="#FFD900" fill-rule="nonzero"/></g><g transform="translate(-34.982 -9.55)"><path d="M104.977 110.028l5.63-.083a29.238 29.238 0 0 1 25.103 13.541l1.95 3.066" stroke="#FFF" stroke-width="4.85" stroke-linecap="round" stroke-linejoin="round"/><path d="M108.572 85.477l14.972 7.96a6.305 6.305 0 0 1-5.92 11.134L96.64 93.414l3.648-5.748a6.305 6.305 0 0 1 8.283-2.19z" fill="#F28703"/><path d="M74.115 90.696l24.61-8.958a1.94 1.94 0 0 1 2.487 1.16l.664 1.823a3.88 3.88 0 0 1-2.32 4.973L76.77 97.988a1.94 1.94 0 0 1-2.486-1.16l-1.327-3.646a1.94 1.94 0 0 1 1.16-2.486z" fill="#E27903"/><rect fill="#E27903" transform="rotate(28 48.8 104.491)" x="44.436" y="100.611" width="8.73" height="7.76" rx="2.91"/><rect fill="#E27903" transform="rotate(28 63.36 112.233)" x="58.995" y="108.353" width="8.73" height="7.76" rx="2.91"/><rect fill="#E27903" transform="rotate(28 77.92 119.974)" x="73.555" y="116.094" width="8.73" height="7.76" rx="2.91"/><rect fill="#E27903" transform="rotate(28 92.48 127.716)" x="88.115" y="123.836" width="8.73" height="7.76" rx="2.91"/><path d="M101.52 94.957l-.192 15.492c-.086 6.978-5.813 12.565-12.791 12.479a12.636 12.636 0 0 1-5.776-1.478l-37.064-19.707a9.542 9.542 0 0 1 5.587-17.903l45.091 5.264a5.82 5.82 0 0 1 5.145 5.853z" fill="#F89700"/><path d="M104.673 91.354l11.99 6.375a7.76 7.76 0 0 1 3.21 10.495l-8.653 16.273c-2.767 5.203-9.227 7.178-14.43 4.412L68.525 113.88l7.286-13.703c5.534-10.407 18.455-14.357 28.861-8.824z" fill="#F89700"/><path d="M64.578 83.202l1.938.101a1.94 1.94 0 0 1 1.836 2.04l-.407 7.749a1.94 1.94 0 0 1-2.038 1.835l-1.938-.101a1.94 1.94 0 0 1-1.836-2.04l.407-7.748a1.94 1.94 0 0 1 2.038-1.836zM72.796 84.275l1.938.102a1.94 1.94 0 0 1 1.835 2.039l-.406 7.75A1.94 1.94 0 0 1 74.124 96l-1.937-.101a1.94 1.94 0 0 1-1.836-2.04l.406-7.749a1.94 1.94 0 0 1 2.04-1.836zM81.47 84.493l1.937.101a1.94 1.94 0 0 1 1.836 2.04l-.406 7.748a1.94 1.94 0 0 1-2.04 1.836l-1.937-.101a1.94 1.94 0 0 1-1.835-2.04l.406-7.748a1.94 1.94 0 0 1 2.039-1.836z" fill="#FFF"/><path d="M96.516 94.635l10.2 1.233c7.278.88 14.5-2.022 19.147-7.692a25.342 25.342 0 0 1 19.229-9.276l4.866-.072" stroke="#FFF" stroke-width="4.85" stroke-linecap="round" stroke-linejoin="round"/><path d="M135.79 18.634l15.933-5.8a6.305 6.305 0 0 1 4.313 11.85l-22.332 8.128-1.83-6.558a6.305 6.305 0 0 1 3.915-7.62z" fill="#F28703"/><path d="M116.611 47.733l9.811-24.283a1.94 1.94 0 0 1 2.526-1.072l1.798.727a3.88 3.88 0 0 1 2.144 5.05l-9.084 22.485a1.94 1.94 0 0 1-2.525 1.072l-3.598-1.454a1.94 1.94 0 0 1-1.072-2.525z" fill="#E27903"/><rect fill="#E27903" transform="rotate(-20 109.925 75.776)" x="105.56" y="71.896" width="8.73" height="7.76" rx="2.91"/><rect fill="#E27903" transform="rotate(-20 125.42 70.136)" x="121.055" y="66.256" width="8.73" height="7.76" rx="2.91"/><rect fill="#E27903" transform="rotate(-20 140.916 64.496)" x="136.551" y="60.616" width="8.73" height="7.76" rx="2.91"/><rect fill="#E27903" transform="rotate(-20 156.411 58.856)" x="152.046" y="54.976" width="8.73" height="7.76" rx="2.91"/><path d="M138.115 30.218L149.5 40.727c5.128 4.733 5.448 12.728.714 17.856a12.636 12.636 0 0 1-4.963 3.303l-39.445 14.357a9.542 9.542 0 0 1-9.567-16.13l34.084-29.988a5.82 5.82 0 0 1 7.792.093z" fill="#F89700"/><path d="M137.548 25.464l12.76-4.644a7.76 7.76 0 0 1 9.947 4.638l6.303 17.318c2.016 5.538-.84 11.66-6.377 13.676L130.101 67.4l-5.307-14.584c-4.031-11.075 1.679-23.32 12.754-27.352z" fill="#F89700"/><path d="M104.661 49.805l1.372-1.371a1.94 1.94 0 0 1 2.743 0l5.488 5.487a1.94 1.94 0 0 1 0 2.743l-1.372 1.372a1.94 1.94 0 0 1-2.744 0l-5.487-5.487a1.94 1.94 0 0 1 0-2.744zM110.958 44.417l1.372-1.372a1.94 1.94 0 0 1 2.743 0l5.487 5.487a1.94 1.94 0 0 1 0 2.744l-1.372 1.372a1.94 1.94 0 0 1-2.743 0l-5.487-5.488a1.94 1.94 0 0 1 0-2.743zM116.923 38.117l1.371-1.372a1.94 1.94 0 0 1 2.744 0l5.487 5.487a1.94 1.94 0 0 1 0 2.744l-1.372 1.371a1.94 1.94 0 0 1-2.743 0l-5.487-5.487a1.94 1.94 0 0 1 0-2.743z" fill="#FFF"/><circle fill="#FFF1A2" transform="rotate(54 66.337 41.973)" cx="66.337" cy="41.973" r="29.445"/><path d="M67.378 33.303a1.56 1.56 0 0 1 .843 1.974l-.031.077-3.88 8.97a1.56 1.56 0 0 1-2.894-1.161l.03-.077 3.88-8.97a1.56 1.56 0 0 1 2.052-.813zM65.945 18.55a1.56 1.56 0 0 1-.902 1.947l-.078.029-9.263 3.119a1.56 1.56 0 0 1-1.073-2.928l.078-.029 9.262-3.119a1.56 1.56 0 0 1 1.976.98zM87.663 36.693a1.56 1.56 0 0 1-2.131-.256l-.051-.066-5.829-7.845a1.56 1.56 0 0 1 2.453-1.926l.051.065 5.83 7.846a1.56 1.56 0 0 1-.323 2.182zM48.158 41.811a1.56 1.56 0 0 1-2.826 1.32l-.033-.07-3.914-8.955a1.56 1.56 0 0 1 2.826-1.32l.033.07 3.914 8.955zM83.04 51.264a1.56 1.56 0 0 1 .151 3.116l-.083.004-5.632.122a1.56 1.56 0 0 1-.15-3.116l.083-.004 5.632-.122z" fill="#FFCA00" fill-rule="nonzero"/><path d="M95.701 44.16c-.513 6.839-3.4 13.463-8.45 18.546l-5.784-7.962a2.73 2.73 0 0 1 0-3.21l5.888-8.103a2.73 2.73 0 0 1 3.052-.992zM84.896 19.105l-1.681 8.653a2.73 2.73 0 0 1-2.347 2.188l-9.942 1.221a2.73 2.73 0 0 1-2.807-1.556l-4.233-9.078a2.73 2.73 0 0 1 .612-3.15L69.52 12.7a29.438 29.438 0 0 1 15.376 6.405zM48.825 25.857l-3.426 9.412a2.73 2.73 0 0 1-2.66 1.795l-5.403-.188a29.358 29.358 0 0 1 8.332-15.88l2.272 1.776a2.73 2.73 0 0 1 .885 3.085z" fill="#E27903"/><path d="M65.585 67.584l.03.071 1.487 3.756a29.572 29.572 0 0 1-3.4-.11l-.987-2.496a1.56 1.56 0 0 1 2.87-1.221zM52.28 57.733a1.56 1.56 0 0 1-.26 2.133l-.063.05-5.318 3.952a29.387 29.387 0 0 1-2.226-2.235l5.684-4.222a1.56 1.56 0 0 1 2.182.322z" fill="#FFCA00"/><path d="M64.688 44.043l5.456 8.4a2.73 2.73 0 0 1-.168 3.206l-6.304 7.784a2.73 2.73 0 0 1-3.1.83l-9.351-3.59a2.73 2.73 0 0 1-1.748-2.69l.524-10.003a2.73 2.73 0 0 1 2.02-2.495l9.675-2.592a2.73 2.73 0 0 1 2.996 1.15z" fill="#E27903"/><path d="M154.236 107.71l-15.322-8.846a1.146 1.146 0 0 0-1.569.408c-2.723 4.717-1.053 10.78 3.73 13.541 4.782 2.762 10.867 1.176 13.59-3.54a1.146 1.146 0 0 0-.43-1.563zM100.068 18.137l6.356 13.63c.229.49.792.712 1.258.495 4.039-1.883 5.705-6.86 3.72-11.114-1.983-4.254-6.865-6.177-10.904-4.293-.466.217-.659.791-.43 1.282zM150.063 98.707l13.023-7.52c.47-.27.641-.85.384-1.296-2.228-3.86-7.33-5.085-11.395-2.738-4.066 2.347-5.555 7.378-3.327 11.238.257.445.846.587 1.315.316z" fill="#F89700" fill-rule="nonzero"/><path d="M111.55 122.04l-.033 1.81-.624 1.125c-2.856 5.154-9.35 7.017-14.505 4.16l-24.447-13.551c2.907-4.543 8.92-5.974 13.572-3.179a9.994 9.994 0 0 1 2.37 1.977 12.988 12.988 0 0 1 10.895-5.567c7.18.125 12.897 6.046 12.772 13.224zM102.49 65.417c3.782 0 7.285 1.2 10.147 3.24a8.5 8.5 0 0 1 7.852-5.24 8.5 8.5 0 0 1 7.58 4.65L105.97 76.11a9.542 9.542 0 0 1-12.76-8.033 17.413 17.413 0 0 1 9.28-2.66z" fill="#E27903"/><rect fill="#E27903" x="134.825" y="45.55" width="11" height="11" rx="5.5"/><path d="M162.18 35.582c.612 0 1.206.074 1.775.213l2.552 7.013c2.015 5.537-.84 11.66-6.377 13.676l-17.75 6.46a12.49 12.49 0 0 1-.607-3.862v-2c0-6.904 5.596-12.5 12.5-12.5.167 0 .334.003.5.01v-1.603a7.407 7.407 0 0 1 7.407-7.407z" fill="#E27903"/></g></g></svg>