<svg viewBox="0 0 135 124" version="1.1" xmlns="http://www.w3.org/2000/svg"><g stroke="none" stroke-width="1" fill="none" fill-rule="evenodd"><g fill="#FFBFE6"><path d="M28 11h79c9.389 0 17 7.611 17 17v79c0 9.389-7.611 17-17 17H28c-9.389 0-17-7.611-17-17V28c0-9.389 7.611-17 17-17z"/></g><path d="M37.183 92l14.202.21C65.593 92.421 77 103.998 77 118.208V124H28c-9.389 0-17-7.611-17-17V92.59L37.183 92z" fill="#78C800"/><path d="M97.817 110l25.768.75C121.877 118.335 115.1 124 107 124H61.072c4.303-8.026 12.7-13.54 22.43-13.726L97.817 110z" fill="#4B4B4B"/><path d="M22 90h34v2c0 9.389-7.611 17-17 17s-17-7.611-17-17v-2z" fill="#58A700"/><g><g><g transform="translate(4 13)"><path d="M35.1.6h.7c18.943 0 34.3 15.357 34.3 34.3v19.6c0 8.505-6.895 15.4-15.4 15.4H16.2C7.695 69.9.8 63.005.8 54.5V34.9C.8 15.957 16.157.6 35.1.6z" fill="#4B4B4B"/><rect fill="#E3997F" x="9.9" y="11.8" width="51.1" height="71.4" rx="14"/><path d="M35.8 7.6h-14c-7.732 0-14 6.268-14 14v14h4.9c12.758 0 23.1-10.342 23.1-23.1V7.6z" fill="#4B4B4B"/><rect fill="#E3997F" x=".1" y="51.7" width="70.7" height="21.7" rx="10.85"/><circle fill="#E3997F" cx="35.45" cy="75.15" r="12.95"/><rect fill="#FFF" x="40" y="37.7" width="15.4" height="21.7" rx="7.7"/><rect fill="#FFF" x="15.5" y="37.7" width="15.4" height="21.7" rx="7.7"/><rect fill="#4B4B4B" x="7.8" y="32.1" width="4.2" height="31.5" rx="2.1"/><rect fill="#4B4B4B" x="58.9" y="32.1" width="4.2" height="31.5" rx="2.1"/><rect fill="#D67356" x="32.3" y="41.2" width="6.3" height="20.3" rx="3.15"/><rect fill="#4B4B4B" x="44.8" y="44.3" width="6.125" height="11.2" rx="3.062"/><rect fill="#4B4B4B" x="23.8" y="44.3" width="6.125" height="11.2" rx="3.062"/></g><path fill="#E3997F" d="M45.152 47.517l14.918 1.568-.628 5.967-14.917-1.567z"/><path d="M39.1 20.6h14c7.732 0 14 6.268 14 14v14h-4.9c-12.758 0-23.1-10.342-23.1-23.1v-4.9z" fill="#4B4B4B"/></g><g fill="#A22D25"><g><g><path d="M35.848 79.413l4.727.72a6.5 6.5 0 0 1 5.515 6.698l-.001.03a5.25 5.25 0 0 1-6.035 4.97l-7.714-1.174a4.828 4.828 0 0 1-3.794-6.467l.236-.631a6.5 6.5 0 0 1 7.066-4.146z"/></g></g></g><path d="M35.848 79.413l4.727.72a6.488 6.488 0 0 1 4.27 2.593H31.792a2 2 0 0 1-1.817-1.162 6.496 6.496 0 0 1 5.874-2.15z" fill="#FFF"/><path d="M36.738 85.726c3.54 0 6.615 1.714 8.174 4.233a5.24 5.24 0 0 1-4.858 1.873l-7.714-1.175a4.81 4.81 0 0 1-3.017-1.725c1.69-1.946 4.382-3.206 7.415-3.206z" fill="#FF4B4B"/></g><g><g transform="translate(58.317 31)"><path d="M38.5 0c18.943 0 34.3 15.357 34.3 34.3v26.6c0 12.371-10.029 22.4-22.4 22.4H26.6c-12.371 0-22.4-10.029-22.4-22.4V34.3C4.2 15.357 19.557 0 38.5 0z" fill="#FFD900"/><rect fill="#FFB49E" transform="rotate(-23 10.5 52.85)" x="4.2" y="42" width="12.6" height="21.7" rx="6.3"/><rect fill="#FFB49E" transform="scale(-1 1) rotate(-23 0 379.708)" x="60.2" y="42" width="12.6" height="21.7" rx="6.3"/><rect fill="#4B4B4B" transform="rotate(90 38.15 34.3)" x="10.5" y="5.6" width="55.3" height="57.4" rx="27.65"/><rect fill="#FFB49E" x="11.9" y="21.7" width="53.2" height="68.6" rx="26.6"/><path d="M64.752 43.985l.059.382c-9.61-4.201-16.793-12.142-19.166-21.696 9.872 2.746 17.431 11.042 19.107 21.314z" fill="#FFD900"/><rect fill="#FFF" x="17.5" y="42.7" width="16.039" height="21.7" rx="8.02"/><rect fill="#2B70C8" x="22.683" y="46.5" width="7" height="11" rx="3.5"/><rect fill="#FFF" transform="matrix(-1 0 0 1 102.84 0)" x="43.4" y="42.7" width="16.039" height="21.7" rx="8.02"/><rect fill="#2B70C8" transform="matrix(-1 0 0 1 96.365 0)" x="44.683" y="46.5" width="7" height="11" rx="3.5"/><path d="M65.601 99.017l-6.017 14.176-14.176-6.017c3.323-7.83 12.364-11.482 20.193-8.159zM11.603 99.017l6.018 14.176 14.176-6.017c-3.324-7.83-12.364-11.482-20.194-8.159z" fill="#D3D3D3"/></g><path d="M102.34 108.367l6.762-1.812c6.935-1.858 11.05-8.987 9.192-15.922L98.976 95.81l3.365 12.557zM92.664 66.265h-7c-7.18 0-13 5.82-13 13h20v-13z" fill="#FFB49E"/><path d="M96.817 52.7c2.564 0 5.043.363 7.388 1.04-3.57 13.893-16.18 24.16-31.188 24.16-.928 0-1.847-.04-2.756-.116C71.046 63.798 82.636 52.7 96.817 52.7z" fill="#FFD900"/></g><path d="M82.408 47c-3.214 0-5.751-2.297-5.751-6.008 0-2.827.676-5.478 3.721-9.012l4.567-5.39c2.538-2.915 3.383-4.947 3.383-7.156 0-3.446-2.199-5.832-5.582-5.832-3.13 0-4.82 1.68-5.92 4.33-1.184 2.65-3.214 3.887-5.413 3.887-3.214 0-5.413-2.12-5.413-5.39 0-.706.17-1.59.423-2.385C68.368 7.683 74.373 3 83 3c10.065 0 17 6.892 17 15.992 0 4.506-1.353 7.952-4.567 11.574l-5.244 6.097c-1.438 1.678-1.945 2.915-1.945 4.329 0 3.71-2.707 6.008-5.836 6.008z" fill="#1899D6"/><circle fill="#1899D6" cx="83" cy="57" r="7"/><path d="M103.848 106.745l.212-.08a17.13 17.13 0 0 0 8.727-7.41" stroke="#EF8A73" stroke-width="4" stroke-linecap="round" stroke-linejoin="round"/><rect fill="#EF8A73" x="93.317" y="73" width="7" height="27.3" rx="3.5"/></g></svg>