<svg viewBox="0 0 135 124" fill="none" xmlns="http://www.w3.org/2000/svg"><g clip-path="url(#clip0)"><path d="M107 11H28c-9.389 0-17 7.611-17 17v79c0 9.389 7.611 17 17 17h79c9.389 0 17-7.611 17-17V28c0-9.389-7.611-17-17-17z" fill="#FFA5DD"/><path fill-rule="evenodd" clip-rule="evenodd" d="M109.172 50.574L74.462 91.94a7.5 7.5 0 1 1-11.491-9.642l34.71-41.366a7.5 7.5 0 0 1 11.49 9.642z" fill="#2FE3FF"/><path fill-rule="evenodd" clip-rule="evenodd" d="M60.517 22.87c7.69-1.494 15.136 3.528 16.631 11.218l15.492 79.698A14.135 14.135 0 0 1 90.75 124l-12.437.07c-22.238.108-39.4.084-51.483-.07-.778-.01-2.01-.299-3.697-.866L8.26 47.479c-1.495-7.69 3.528-15.136 11.218-16.631l41.04-7.977z" fill="#FFC6B7"/><path d="M25.36 46.436l-3.135-16.123-2.747.535c-7.69 1.495-12.713 8.94-11.218 16.63l1.391 7.162a6.253 6.253 0 0 1 7.73 1.903l1.337-.26a8.399 8.399 0 0 0 6.642-9.847z" fill="#FFB67A"/><path fill-rule="evenodd" clip-rule="evenodd" d="M88.626 20.359l.044.076 3.732 6.11-1.692 1.06-2.047-3.353a1.865 1.865 0 0 0-2.48-.668 1.68 1.68 0 0 0-.678 2.276l.044.076 3.286 5.382c.06.214.144.423.255.625l.118.2 1.938 2.983a6.502 6.502 0 0 0 6.894 2.8l15.097 23.244a3 3 0 0 0 5.123-3.117l-.091-.15-15.051-23.176a6.398 6.398 0 0 0 .715-6.746 1.679 1.679 0 0 0-.198-.658l-.043-.076-5.417-8.869a1.865 1.865 0 0 0-2.479-.668 1.68 1.68 0 0 0-.678 2.276l.044.076 2.13 3.487-1.793 1.121-3.616-5.919a1.865 1.865 0 0 0-2.479-.668 1.68 1.68 0 0 0-.678 2.276z" fill="#F2F2F2"/><path d="M105.5 53a9.5 9.5 0 0 0 9.5-9.5 9.5 9.5 0 0 0-9.5-9.5 9.5 9.5 0 0 0-9.5 9.5 9.5 9.5 0 0 0 9.5 9.5z" fill="#FFC6B7"/><path d="M50.963 40.918a8.8 8.8 0 0 0-17.316 3.142A13.959 13.959 0 0 1 39 43c5.544 0 10.336 3.223 12.604 7.898.54-1.462.7-3.085.38-4.726l-1.02-5.254z" fill="#fff"/><path d="M45.752 64.89a12.501 12.501 0 0 0 3.806-6.084c.856.441 1.615.662 2.277.662 1.22 0 2.628-.167 4.227-.5l-1.43 7.363a4.5 4.5 0 0 1-8.88-1.441z" fill="#B00E0E"/><path d="M45.752 64.89a12.58 12.58 0 0 0 1.627-1.73 6.002 6.002 0 0 1 4.59 6.457 4.5 4.5 0 0 1-6.217-4.727z" fill="#E34545"/><path d="M46.811 41.792a3.95 3.95 0 0 0-5.37-2.904 3.174 3.174 0 0 1-.918 4.194 13.93 13.93 0 0 1 7.1 2.889l-.812-4.18z" fill="#3D3D3D"/><path d="M54.022 40.323A8.8 8.8 0 1 1 71.3 36.965l.344 1.767c-.413-.034-.83-.051-1.252-.051-6.512 0-12.056 4.142-14.14 9.934a8.774 8.774 0 0 1-1.207-3.037l-1.022-5.255z" fill="#fff"/><path d="M58.478 35.574a3.95 3.95 0 0 1 5.365 2.907l.302 1.555a15.088 15.088 0 0 0-6.68 6.004 3.952 3.952 0 0 1-.432-1.18l-.883-4.541.192-.032a3.173 3.173 0 0 0 2.136-4.713z" fill="#3D3D3D"/><path fill-rule="evenodd" clip-rule="evenodd" d="M57.73 55.167a3.457 3.457 0 0 0 2.44-4.236c-.495-1.846-5-5.319-5-5.319l-.211.537c-.532 1.386-1.857 5.084-1.46 6.57a3.457 3.457 0 0 0 4.232 2.448z" fill="#EE9583"/><path fill-rule="evenodd" clip-rule="evenodd" d="M13.557 66.413a6.253 6.253 0 1 0-2.386-12.275 6.253 6.253 0 0 0 2.386 12.275z" fill="#FFC6B7"/><path fill-rule="evenodd" clip-rule="evenodd" d="M88.794 93.863l3.846 19.786a14.135 14.135 0 0 1-1.889 10.214l-12.437.071c-22.238.107-39.4.084-51.483-.071-.778-.01-2.01-.299-3.697-.866l-5.728-29.134h71.388z" fill="#0084C2"/><path d="M89.043 95.145l-5.093-26.2-68.889 13.39a7.093 7.093 0 0 0-5.512 8.298l.106.55a7.092 7.092 0 0 0 8.22 5.626l2.279 11.726 68.889-13.39z" fill="#2FE3FF"/><path fill-rule="evenodd" clip-rule="evenodd" d="M67.705 77.807a1.96 1.96 0 0 1 2.298 1.55l2.172 11.176a1.96 1.96 0 0 1-3.847.748l-2.173-11.176a1.96 1.96 0 0 1 1.55-2.298zM76.316 76.133a1.96 1.96 0 0 1 2.298 1.55l2.172 11.176a1.96 1.96 0 0 1-3.847.748L74.766 78.43a1.96 1.96 0 0 1 1.55-2.298z" fill="#fff"/><path fill-rule="evenodd" clip-rule="evenodd" d="M27.997 67.867l.004.088.552 7.138-1.99.176-.301-3.916a1.865 1.865 0 0 0-1.906-1.721 1.68 1.68 0 0 0-1.637 1.72l.004.088.484 6.286a2.982 2.982 0 0 0-.056.673l.015.231.372 3.539a6.502 6.502 0 0 0 4.502 5.519l1.499 28.575a3 3 0 0 0 5.996-.124l-.004-.19-1.497-28.55a6.397 6.397 0 0 0 4.052-5.837c.084-.208.128-.437.123-.676l-.005-.088-.8-10.36a1.865 1.865 0 0 0-1.905-1.722 1.68 1.68 0 0 0-1.638 1.72l.005.089.314 4.073-2.106.185-.534-6.915a1.865 1.865 0 0 0-1.906-1.721 1.68 1.68 0 0 0-1.637 1.72z" fill="#F2F2F2"/><path d="M32.5 105.863a9.5 9.5 0 1 0 0-19 9.5 9.5 0 0 0 0 19z" fill="#FFC6B7"/><path d="M52.154 24.36c4.318-2.386 6.816-7.303 5.838-12.337-1.22-6.273-7.376-10.354-13.75-9.116-6.336 1.232-10.503 7.255-9.357 13.488-.45.03-.903.09-1.357.178-5.97 1.16-9.867 6.953-8.705 12.934l.031.16 27.3-5.307z" fill="#FF9600"/></g><defs><clipPath id="clip0"><path fill="#fff" d="M0 0h135v124H0z"/></clipPath></defs></svg>