<svg viewBox="0 0 135 124" fill="none" xmlns="http://www.w3.org/2000/svg"><path d="M134.3 74a17.254 17.254 0 0 1-15.39 17.32V56.74A17.23 17.23 0 0 1 134.3 74z" fill="#FFC800"/><path d="M124 28a17 17 0 0 0-17-17H28a17 17 0 0 0-17 17v79a17 17 0 0 0 17 17h79a17 17 0 0 0 17-17V28z" fill="#FFD900"/><path d="M46 81.69a8.89 8.89 0 0 0 8.9 8.9 8.91 8.91 0 0 0 8.9-8.9 8.73 8.73 0 0 0-.86-3.78 8.9 8.9 0 0 0-3-3.56V54.42h-10v19.93A8.88 8.88 0 0 0 46 81.69z" fill="#FFC800"/><path d="M14.26 73.18a14.63 14.63 0 1 0 29.25 0V61.94c0-2.65-.722-5.25-2.09-7.52H16.35a14.57 14.57 0 0 0-2.09 7.52v11.24zm12.07-8.89a5.88 5.88 0 0 1 11.76 0v7.45a5.88 5.88 0 0 1-11.76 0v-7.45z" fill="#FFE865"/><path d="M32.21 77.62a5.88 5.88 0 0 0 5.88-5.88v-7.45a5.88 5.88 0 1 0-11.76 0v7.45a5.88 5.88 0 0 0 5.88 5.88z" fill="#E27800"/><path d="M66.31 61.94v11.24c0 3.101.992 6.122 2.83 8.62l26.43-9.46v-10.4a14.264 14.264 0 0 0-.18-2.18 5.35 5.35 0 0 1-5.32-5.34H73.61a3 3 0 0 1-2.77-2.94v-.1a14.096 14.096 0 0 0-1.54 1.73 14.51 14.51 0 0 0-2.99 8.83zm5.76 2.35a5.88 5.88 0 1 1 11.76 0v7.45a5.88 5.88 0 1 1-11.76 0v-7.45z" fill="#FFE865"/><path d="M78 77.62a5.88 5.88 0 0 0 5.88-5.88v-7.45a5.88 5.88 0 1 0-11.76 0v7.45A5.88 5.88 0 0 0 78 77.62z" fill="#E27800"/><path d="M107 11H28c-.54 0-1.06 0-1.59.08h-.23c-.5.05-1 .13-1.47.22l-.28.06c-.48.1-.94.22-1.4.36l-.25.09c-.43.13-.85.29-1.26.46l-.21.08c-.38.173-.75.353-1.11.54l-.57.3c-.28.16-.55.33-.82.5l-.43.28a14.668 14.668 0 0 0-2.28 1.89l-.3.31c-.25.26-.49.52-.72.79l-.33.4c-.21.26-.4.53-.6.8l-.31.44c-.2.3-.38.61-.56.93l-.18.3c-.06.1-.1.21-.16.31-.17.32-.32.65-.47 1-.06.13-.12.26-.17.4-.182.428-.343.865-.48 1.31-.033.091-.06.185-.08.28-.13.42-.24.84-.33 1.28a14.7 14.7 0 0 0-.28 1.7v.32C11 27 11 27.48 11 28v26.42h51.15a3 3 0 0 0 2.78-2.94V34.82a3 3 0 1 1 5.91 0v16.66a3 3 0 0 0 2.77 2.94h16.46a9.998 9.998 0 0 1 .84-3.16 72.017 72.017 0 0 1 3.67-7.49l.83-1.48s.34.58.84 1.48c1.5 2.73 4.51 8.44 4.51 10.65h9.67v50.1A64.316 64.316 0 0 1 93.18 124H107c.52 0 1 0 1.55-.08h.36c.51-.054 1.018-.134 1.52-.24.49-.1 1-.23 1.46-.37l.31-.1c.48-.15.94-.32 1.4-.51h.1c.403-.17.797-.36 1.18-.57l.42-.22c.38-.21.74-.43 1.1-.67l.33-.23c.3-.21.59-.43.87-.65l.4-.36c.327-.28.66-.57 1-.87l.23-.24c.27-.28.52-.56.77-.85l.3-.36c.28-.35.55-.71.8-1.07l.14-.22c.23-.34.44-.69.64-1l.21-.39c.22-.41.42-.82.6-1.25 0 0 0-.11.07-.16.171-.405.321-.819.45-1.24 0-.13.09-.27.13-.4.14-.47.26-.94.36-1.42a.122.122 0 0 0 0-.06c.099-.479.173-.963.22-1.45v-.38c0-.51.08-1 .08-1.55V28a17 17 0 0 0-17-17z" fill="#E27800"/><path d="M89.85 90.72L90 97.9a1.859 1.859 0 0 1-.53 1.35l-2.08 1.63 2.14 1.33a1.945 1.945 0 0 1 .67 1.42l.07 10.56h5.3a3.146 3.146 0 0 0 2.206-.955A3.135 3.135 0 0 0 98.66 111v-3.74a19.888 19.888 0 0 0-8.81-16.54z" fill="#E27800"/><path d="M89.49 102.21l-2.14-1.33 2.08-1.63A1.86 1.86 0 0 0 90 97.9l-.11-7.18a19.672 19.672 0 0 0-5-2.42 20.8 20.8 0 0 0-2.36-.57A19.644 19.644 0 0 0 79 87.4h-1.2a19.56 19.56 0 0 0-5.8 1.28c-.51.19-1 .42-1.51.65a19.648 19.648 0 0 0-4.56 3l-8.72 7.76-9.58 8.53a3.161 3.161 0 0 0 2.08 5.52h40.52l-.07-10.56a1.944 1.944 0 0 0-.67-1.37z" fill="#FFE865"/><path d="M95.39 59.76a5.35 5.35 0 0 0 5.35-5.34c0-2.21-3-7.92-4.51-10.65-.5-.9-.84-1.48-.84-1.48l-.83 1.48a72.017 72.017 0 0 0-3.67 7.49c-.451 1-.735 2.068-.84 3.16a5.35 5.35 0 0 0 5.34 5.34zM96.39 86.91a5.35 5.35 0 1 0 10.69 0c0-3-5.35-12.13-5.35-12.13s-.42.72-1 1.81a68.091 68.091 0 0 0-3.54 7.29 9.942 9.942 0 0 0-.8 3.03zM16.35 101.15a5.349 5.349 0 1 1-10.7 0C5.65 98.19 11 89 11 89s5.35 9.19 5.35 12.15z" fill="#FFC800"/></svg>