<svg id="Layer_3" data-name="Layer 3" xmlns="http://www.w3.org/2000/svg" viewBox="0 0 135 124"><defs><style>.cls-1{fill:#ffc800}.cls-2{fill:#ffd900}.cls-3{fill:#f89700}.cls-4{fill:#ffb100}</style></defs><path class="cls-1" d="M123.74 27.91v79a17 17 0 0 1-17 17h-79a17 17 0 0 1-17-17v-79a17 17 0 0 1 17-17h79a16.8 16.8 0 0 1 7.46 1.73 17 17 0 0 1 9.54 15.27z"/><path class="cls-2" d="M120.69 18.19a17 17 0 0 0-6.49-5.55L12.46 114.38a17 17 0 0 0 15.28 9.53h29.92l66.08-66.09V27.91a16.94 16.94 0 0 0-3.05-9.72zm-85.76-7.28L18.12 27.72a19.35 19.35 0 0 0 27.37 27.36l44.16-44.17z"/><path class="cls-1" d="M33.22.46a4.54 4.54 0 0 1 2.51 3.18 4.66 4.66 0 0 1 0 2.1 5.89 5.89 0 0 1-.29.8 5.71 5.71 0 0 1-.43.72 4.39 4.39 0 0 1-1.6 1.37 4.56 4.56 0 0 1-6.51-5.22 3.6 3.6 0 0 1 .29-.79 4.28 4.28 0 0 1 .43-.72 4.56 4.56 0 0 1 5.6-1.44z"/><path class="cls-1" d="M79.25 16.34L73.43 28.6l-2.71 5.7-20.79-4.78-.83-1.39c-.88-1.46-1.79-2.89-2.76-4.3a90.87 90.87 0 0 0-6-7.84c-1.5-1.75-3.06-3.45-4.69-5.08-.76-.77-1.54-1.53-2.33-2.28A49.595 49.595 0 0 0 29 4.82l.14-.3.75-1.52.11-.3c1.89.37 3.79.69 5.7.93a89.88 89.88 0 0 0 16.3.7c2.92-.14 5.84-.42 8.74-.84l1.6-.23 9.87 7.65z"/><circle class="cls-3" cx="64.79" cy="20.49" r="5.16"/><path class="cls-3" d="M27.56 1.9l35.17 16.68L62 20.1 26.85 3.41a3.84 3.84 0 0 1 .28-.78 6.38 6.38 0 0 1 .43-.73z"/><path class="cls-4" d="M69.9 21.44h22.43a1.6 1.6 0 0 1 1.6 1.6V35H68.31V23a1.6 1.6 0 0 1 1.6-1.6z" transform="rotate(-64.62 81.117 28.234)"/><rect class="cls-2" x="74.1" y="30.27" width="29.06" height="3.06" rx="1.53" ry="1.53" transform="rotate(-64.62 88.638 31.795)"/><path class="cls-4" d="M134.74 38.91v26.63a4.73 4.73 0 0 1-6.74 4.28l-3.4-1.61-.85-.39L114 63.2l-3.63-1.71-3.22-1.49-3.63-1.71-3.17-1.5-3.64-1.72-3.17-1.49-3.64-1.73-2.27-1.07-.22-.11a5.7 5.7 0 0 1-2.49-7.48l10.19-21.48A5.69 5.69 0 0 1 102.7 19l2.3 1.08 3.63 1.72 3.17 1.51 2 1 1.6.76 3.17 1.5 3.63 1.72 1.53.72 1.64.78 3.63 1.69 1.47.7a7.46 7.46 0 0 1 4.27 6.73z"/><path class="cls-3" transform="rotate(-64.62 99.257 36.828)" d="M81.67 34.83h35.18v4.01H81.67z"/><path class="cls-3" transform="rotate(-64.62 106.06 40.056)" d="M88.47 38.05h35.18v4.01H88.47z"/><path class="cls-3" transform="rotate(-64.62 112.861 43.284)" d="M95.26 41.28h35.18v4.01H95.26z"/><path class="cls-3" d="M129.01 31.48l-5.27 11.11-9.78 20.61-.03.06-3.63-1.72.03-.05 13.41-28.27 1.64-3.46 3.63 1.72z"/><path class="cls-4" d="M73.43 28.6l-2.71 5.7-20.79-4.78-.83-1.39c-.88-1.46-1.79-2.89-2.76-4.3z"/><path class="cls-3" d="M94.93 92.86A11.48 11.48 0 0 0 90 85.31a9.74 9.74 0 0 0-7.71-1.55 2 2 0 1 0 .92 3.89 5.81 5.81 0 0 1 4.56 1A7.41 7.41 0 0 1 91 93.48c.57 3.63-1.55 7.7-5.17 9.9-3.25 2-7.64 2.62-12.37 1.8a25.85 25.85 0 0 1-8.36-2.94 50.2 50.2 0 0 1-5.79-4L59 98c7.47-6.65 19.09-19.75 18.89-36.62v-1.13c-.24-5.07-1.72-9.35-4.31-12.46a15.89 15.89 0 0 0-5.82-4.38A22.71 22.71 0 0 0 52 42.77c-5.33 1.7-9.53 4.89-11.83 9-2.76 4.94-2.41 11.17.85 15.14a2.62 2.62 0 0 0 .22.25 11.17 11.17 0 0 0 7.62 3.65A9.56 9.56 0 0 0 56 68.35a8 8 0 0 0 2.36-7.93 6.63 6.63 0 0 0-3.62-4.1 5.69 5.69 0 0 0-3.79-.4 2 2 0 0 0 .27 3.92 1.85 1.85 0 0 0 .7 0 2.47 2.47 0 0 1 2.6 1.75 4.1 4.1 0 0 1-1.28 3.9A5.56 5.56 0 0 1 49 66.83a7.23 7.23 0 0 1-4-1.48 6 6 0 0 1-1-.95c-2.22-2.7-2.41-7.18-.46-10.66 1.8-3.22 5.2-5.76 9.55-7.14a19.4 19.4 0 0 1 11.45-.08 12.41 12.41 0 0 1 5.85 3.84c2.75 3.31 3.38 7.85 3.42 11.07 0 1 0 2-.1 2.9C72.63 78.74 62.11 90 55.65 95.6c-.8-.54-1.61-1.06-2.45-1.54a30.17 30.17 0 0 0-12.6-3.8c-4.86-.34-8.63 1.19-10.35 4.18-1.89 3.29-.72 8 2.6 10.5l.17.11a13 13 0 0 0 9.9 1.88c5.07-.83 9.41-3.53 12.9-6.28l1 .8a55.93 55.93 0 0 0 6.25 4.28 30.26 30.26 0 0 0 9.64 3.4 27.9 27.9 0 0 0 4.58.4 21.73 21.73 0 0 0 7-1.11 17.28 17.28 0 0 0 3.51-1.62 15.24 15.24 0 0 0 6.63-8.52 12.33 12.33 0 0 0 .5-5.42zM42.27 103a10 10 0 0 1-6.37-.82 5 5 0 0 1-.64-.42c-1.51-1.15-2.52-3.61-1.54-5.31 1.1-1.92 4-2.22 5.67-2.22h.93a24.65 24.65 0 0 1 3.09.41 25.44 25.44 0 0 1 7.81 2.88c.39.22.78.46 1.17.7A24 24 0 0 1 42.27 103z"/><circle class="cls-3" cx="105.31" cy="106.07" r="4.25"/></svg>