<svg viewBox="0 0 136 125" fill="none" xmlns="http://www.w3.org/2000/svg"><g clip-path="url(#clip0_302_3138)"><path d="M107.293 11.76h-79c-9.39 0-17 7.61-17 17v79c0 9.389 7.61 17 17 17h79c9.389 0 17-7.611 17-17v-79c0-9.39-7.611-17-17-17z" fill="#BFBFBF"/><path fill-rule="evenodd" clip-rule="evenodd" d="M123.626 30.741c-4.306 7.534-13.904 10.151-21.438 5.846l-7.505-4.29c-7.535-4.306-10.152-13.904-5.846-21.438 4.306-7.534 13.904-10.151 21.438-5.845l7.506 4.29c7.534 4.305 10.151 13.903 5.845 21.437z" fill="#959595"/><path d="M123.103 29.688l-18.798-10.744c-6.165-3.522-13.694-2.466-18.655 2.097a4.664 4.664 0 1 0-4.912 7.906c-2.094 6.934.782 14.643 7.34 18.39l18.798 10.744c6.557 3.748 14.659 2.313 19.57-3.012l.126.075a4.665 4.665 0 1 0 4.193-8.32c1.414-6.59-1.498-13.613-7.662-17.136z" fill="#D1D1D1"/><path fill-rule="evenodd" clip-rule="evenodd" d="M103.023 43.005c1.068.61 2.427.24 3.037-.827.61-1.067.119-4.695.119-4.695l-.321.14c-.857.384-3.169 1.48-3.663 2.346a2.226 2.226 0 0 0 .828 3.036z" fill="#959595"/><path d="M78.508 30.568a2.226 2.226 0 1 0 2.21-3.865 2.226 2.226 0 0 0-2.21 3.865z" fill="#959595"/><path d="M123.936 30.198c4.908 3.214 7.501 8.754 7.149 14.312l-6.594-3.768a5.714 5.714 0 0 1-2.125-7.796l1.57-2.748z" fill="#A2A2A2"/><path fill-rule="evenodd" clip-rule="evenodd" d="M106.231 50.265c-1.114.094-1.935.654-2.324 1.095a.935.935 0 0 1-1.401-1.237c.673-.762 1.924-1.583 3.569-1.72 1.678-.141 3.647.437 5.71 2.273a.935.935 0 1 1-1.243 1.397c-1.751-1.559-3.23-1.898-4.311-1.808z" fill="#959595"/><path d="M110.477 31.77a5.098 5.098 0 0 1 6.956-1.896l.165.094a5.099 5.099 0 0 1 1.897 6.956l-2.616 4.578a5.1 5.1 0 0 1-6.957 1.896l-.165-.094a5.098 5.098 0 0 1-1.896-6.956l2.616-4.578zM108.814 30.82a5.099 5.099 0 0 0-1.897-6.956l-.164-.095a5.099 5.099 0 0 0-6.957 1.897l-2.616 4.578a5.098 5.098 0 0 0 1.897 6.956l.165.094a5.099 5.099 0 0 0 6.956-1.897l2.616-4.577z" fill="#fff"/><path fill-rule="evenodd" clip-rule="evenodd" d="M98.204 36.563a4.503 4.503 0 0 1-1.548-2.349 4.504 4.504 0 0 1 .141-2.809 1.858 1.858 0 1 1 3.468 1.336.79.79 0 0 0-.025.496.79.79 0 0 0 .273.415 1.858 1.858 0 0 1-2.31 2.91zM108.669 42.324a4.507 4.507 0 0 1-1.418-2.43 4.505 4.505 0 0 1 .295-2.797 1.858 1.858 0 1 1 3.389 1.522.788.788 0 0 0-.051.495c.038.175.127.32.25.429a1.858 1.858 0 0 1-2.465 2.78z" fill="#959595"/><path d="M117.539 40.609l-10.053-3.558c1.015-2.006 2.023-3.596 3.097-5.476a5.098 5.098 0 0 1 6.956-1.897l.165.094a5.099 5.099 0 0 1 1.897 6.957c-.875 1.53-1.187 2.35-2.062 3.88zM97.977 28.449l7.843 7.562c1.559-2.567 2.568-4.436 3.394-5.785a5.098 5.098 0 0 0-2.503-6.761l-.172-.08a5.098 5.098 0 0 0-6.762 2.503c-.736 1.602-1.064.959-1.8 2.56z" fill="#BFBFBF"/><path fill-rule="evenodd" clip-rule="evenodd" d="M108.36 23.265l-.526.92c-3.196 5.591-10.319 7.534-15.91 4.338-5.59-3.195-7.533-10.318-4.337-15.91l.525-.92c3.196-5.59 10.319-7.533 15.91-4.337 5.591 3.195 7.533 10.318 4.338 15.91z" fill="#959595"/><path d="M53.674 37.786a7.149 7.149 0 0 0-8.987-4.63l-22.13 7.079a7.15 7.15 0 0 0-4.63 8.987l1.056 3.303a4.263 4.263 0 0 0 2.598 8.12l1.9 5.938a8.045 8.045 0 0 0 10.113 5.211l20.423-6.534a8.045 8.045 0 0 0 5.21-10.113l-1.9-5.939a4.263 4.263 0 0 0-2.596-8.12l-1.057-3.302z" fill="#B0B0B0"/><path d="M37.798 9.18a9.326 9.326 0 0 1 9.04-.49l4.496 2.185a9.332 9.332 0 0 1 4.317 12.472l-1.953 4.021a9.326 9.326 0 0 1-7.433 5.207l.68 2.122-13.39 1.944-14.692 7.04-.594-1.856a9.295 9.295 0 0 1-6.368-.945l-3.925-2.14a9.333 9.333 0 0 1-3.724-12.662l2.394-4.389a9.322 9.322 0 0 1 7.203-4.812c-.656-4.44 1.977-8.829 6.392-10.24l6.424-2.056c4.402-1.408 9.081.623 11.133 4.598zM40.394 53.99c-.687-.678-1.618-1.327-1.66-1.314-.041.014-.423 1.083-.59 2.033a1.61 1.61 0 0 0 1.404 2.856l1.362-.435a1.609 1.609 0 0 0-.516-3.14z" fill="#959595"/><path d="M25.178 31.583a7.223 7.223 0 0 0 5.152 4.288l-17.255 5.52 5.888 11.14a4.118 4.118 0 0 1 .214-.066l14.68-15.032 20.682 3.72a4.623 4.623 0 0 1 .205-.068l-1.666-12.491-17.14 5.483a7.221 7.221 0 0 0 1.614-6.378l-.453-1.988a7.23 7.23 0 0 0-5.346 5.065 7.23 7.23 0 0 0-7.36-1.075l.785 1.882z" fill="#fff"/><path d="M26.901 51.411a4.763 4.763 0 0 1 .129-3.267l6.98-2.233a4.764 4.764 0 0 1 2.001 2.586l.908 2.838a4.76 4.76 0 0 1 .085 2.619c-1.28-.693-3.124-1.123-5.17-1.114-1.597.007-3.066.281-4.24.735l-.693-2.164zM38.594 47.67a4.782 4.782 0 0 1 9.11-2.914l.907 2.838a4.782 4.782 0 1 1-9.11 2.914l-.907-2.838z" fill="#fff"/><path d="M44.063 47.272a1.725 1.725 0 0 0 .527-3.009 2.117 2.117 0 0 1 3.29 1.046l.813 2.539a2.117 2.117 0 0 1-4.032 1.29l-.598-1.866zM37.014 51.672a4.753 4.753 0 0 1-.01 2.282c-1.041-.564-2.455-.954-4.047-1.075l-.586-1.867a1.725 1.725 0 0 0 .526-3.008 2.117 2.117 0 0 1 3.29 1.044v.001l.827 2.623zM31.95 65.623a4.973 4.973 0 1 1 9.938-.372l.02.534-9.939.371-.02-.533z" fill="#959595"/><path fill-rule="evenodd" clip-rule="evenodd" d="M32.273 63.522a4.798 4.798 0 0 0-.33 1.943l.026.691 7.306-.273a4.929 4.929 0 0 0-7.002-2.361z" fill="#BFBFBF"/><path fill-rule="evenodd" clip-rule="evenodd" d="M46.213 38.227c-4.027-1.158-7.615.446-8.965 1.435a.96.96 0 0 0 1.135 1.549c1.019-.747 4-2.088 7.3-1.139a.96.96 0 1 0 .53-1.845zM35.377 45.766c-3.59 2.843-7.937 3.049-9.734 2.786a.96.96 0 0 1 .277-1.9c1.429.209 5.197.038 8.265-2.391a.96.96 0 1 1 1.192 1.505z" fill="#959595"/><path d="M42.919 105.963h57.302V95.451c0-5.268-4.274-9.538-9.546-9.538H56.86a6.318 6.318 0 0 0-5.65 3.488l-8.291 16.562z" fill="#A2A2A2"/><path d="M70.262 102.199h-23.89l6.093-12.17c.838-1.674 2.522-2.714 4.676-2.714h21.041l-7.92 14.884zM80.575 87.687a.702.702 0 0 1 .62-.372h9.76c4.21 0 7.863 3.65 7.863 8.136v6.748H72.853l7.722-14.512z" fill="#fff"/><path d="M39.29 109.463h1.446c2.962 0 5.364 2.524 5.364 5.638 0 3.113-2.402 5.637-5.364 5.637H39.29c-2.962 0-5.364-2.524-5.364-5.637 0-3.114 2.402-5.638 5.364-5.638z" fill="#A2A2A2"/><path d="M40.736 120.738c2.962 0 5.364-2.524 5.364-5.637 0-3.114-2.402-5.638-5.364-5.638-2.962 0-5.363 2.524-5.363 5.638 0 3.113 2.4 5.637 5.363 5.637z" fill="#A2A2A2"/><path d="M25.627 115.221h81.655v-7.13a5.894 5.894 0 0 0-5.897-5.892h-72.81a2.947 2.947 0 0 0-2.948 2.946v10.076z" fill="#959595"/><path d="M88.335 105.963h2.948v-20.05h-2.948v20.05zM68.259 105.963h2.591l10.67-20.05h-1.748c-.519 0-.996.286-1.24.744L68.26 105.963z" fill="#A2A2A2"/><path d="M55.53 102.199h45.855a5.894 5.894 0 0 1 5.897 5.892v7.13h-54.7v-10.076a2.947 2.947 0 0 1 2.948-2.946z" fill="#A2A2A2"/><path d="M105.849 109.914h1.755c.581 0 1.053.471 1.053 1.052v3.203c0 .581-.472 1.052-1.053 1.052h-1.755a1.052 1.052 0 0 1-1.053-1.052v-3.203c0-.581.471-1.052 1.053-1.052z" fill="#fff"/><path d="M84.919 106.32h2.34a1.08 1.08 0 0 0 1.076-1.076c0-.591-.484-1.075-1.076-1.075h-2.34c-.592 0-1.076.484-1.076 1.075a1.08 1.08 0 0 0 1.076 1.076z" fill="#959595"/><path d="M47.34 109.248h2.863c.62 0 1.123-.503 1.123-1.122v-3.612c0-.62-.503-1.123-1.123-1.123h-2.864c-.62 0-1.123.503-1.123 1.123v3.612c0 .619.503 1.122 1.123 1.122zM28.006 109.248h2.864c.62 0 1.123-.503 1.123-1.122v-3.612c0-.62-.503-1.123-1.123-1.123h-2.864c-.62 0-1.123.503-1.123 1.123v3.612c0 .619.503 1.122 1.123 1.122z" fill="#fff"/><path d="M34.167 105.872h10.167c.515 0 .936-.42.936-.935a.938.938 0 0 0-.936-.935H34.167a.938.938 0 0 0-.936.935c0 .515.422.935.936.935zM34.167 108.814h10.167a.938.938 0 0 0 .936-.935.938.938 0 0 0-.936-.935H34.167a.938.938 0 0 0-.936.935c0 .514.422.935.936.935z" fill="#A2A2A2"/><path d="M25.253 115.221h27.329a.842.842 0 0 0 .842-.841v-3.367a.842.842 0 0 0-.842-.842h-27.33a.842.842 0 0 0-.842.842v3.367c0 .464.377.841.843.841z" fill="#fff"/><path d="M52.676 115.221h3.44a.842.842 0 0 0 .842-.841v-3.367a.842.842 0 0 0-.843-.842h-3.44a.842.842 0 0 0-.842.842v3.367c0 .464.378.841.843.841z" fill="#BFBFBF"/><path d="M88.717 115.221l-.003-.12c0-3.882 3.036-7.04 6.767-7.04h1.447c3.731 0 6.767 3.158 6.767 7.04l-.003.12H88.717z" fill="#959595"/><path d="M95.481 109.463h1.446c2.963 0 5.364 2.524 5.364 5.638 0 3.113-2.401 5.637-5.364 5.637h-1.446c-2.962 0-5.363-2.524-5.363-5.637 0-3.114 2.401-5.638 5.363-5.638z" fill="#A2A2A2"/><path d="M96.927 120.738c2.963 0 5.364-2.524 5.364-5.637 0-3.114-2.401-5.638-5.364-5.638-2.962 0-5.363 2.524-5.363 5.638 0 3.113 2.401 5.637 5.364 5.637z" fill="#A2A2A2"/><path d="M96.927 118.096c1.574 0 2.85-1.341 2.85-2.995 0-1.655-1.276-2.996-2.85-2.996-1.573 0-2.849 1.341-2.849 2.996 0 1.654 1.276 2.995 2.85 2.995z" fill="#fff"/><path d="M60.486 115.221l-.003-.12c0-3.882 3.036-7.04 6.767-7.04h1.447c3.731 0 6.767 3.158 6.767 7.04l-.003.12H60.486z" fill="#959595"/><path d="M67.25 109.463h1.447c2.962 0 5.363 2.524 5.363 5.638 0 3.113-2.401 5.637-5.363 5.637H67.25c-2.962 0-5.363-2.524-5.363-5.637 0-3.114 2.401-5.638 5.364-5.638z" fill="#A2A2A2"/><path d="M68.697 120.738c2.962 0 5.363-2.524 5.363-5.637 0-3.114-2.401-5.638-5.363-5.638-2.962 0-5.364 2.524-5.364 5.638 0 3.113 2.402 5.637 5.364 5.637z" fill="#A2A2A2"/><path d="M68.697 118.096c1.573 0 2.85-1.341 2.85-2.995 0-1.655-1.276-2.996-2.85-2.996s-2.85 1.341-2.85 2.996c0 1.654 1.276 2.995 2.85 2.995z" fill="#fff"/><path fill-rule="evenodd" clip-rule="evenodd" d="M65.727 67.178c-2.07-2.615-2.853-6.073-1.788-9.348 1.742-5.358 7.77-8.2 13.463-6.348 2.91.946 5.168 2.935 6.45 5.368 2.467-1.214 5.463-1.494 8.373-.547 5.693 1.851 8.895 7.695 7.153 13.053-.99 3.041-3.36 5.272-6.266 6.294l-14.107 5.956a4.305 4.305 0 0 1-5.327-1.687l-7.95-12.74z" fill="#959595"/><path fill-rule="evenodd" clip-rule="evenodd" d="M75.367 56.035a5.144 5.144 0 0 0-6.507 3.253 1 1 0 1 1-1.897-.632 7.144 7.144 0 0 1 9.036-4.519 1 1 0 1 1-.632 1.898z" fill="#BFBFBF"/><path d="M80.474 61.264l-15.419 14.9 13.521-8.406.76 3.993a.25.25 0 0 0 .361.175l21.018-10.98-3.815-3.92L82.018 67.05l-1.125-5.654a.25.25 0 0 0-.419-.13z" fill="#BFBFBF"/><path d="M61.728 18.926l1.564-7.203h13.624L63.36 32.426c-.314.48-1.058.139-.898-.413l4.104-14.136-4.168 1.621a.5.5 0 0 1-.67-.572zM22.788 82.64l-11.495 4.345v18.329l38.037-22.59c.351-.21.12-.749-.273-.639l-27.388 7.647 1.583-6.685a.35.35 0 0 0-.464-.408zM115.882 78.698l8.394 4.504v18.5l-23.427-20.884c-.2-.178-.018-.503.238-.425l14.427 4.364v-5.839a.25.25 0 0 1 .368-.22z" fill="#fff"/></g><defs><clipPath id="clip0_302_3138"><path fill="#fff" transform="translate(.293 .76)" d="M0 0h135v124H0z"/></clipPath></defs></svg>