<svg id="Layer_3" data-name="Layer 3" xmlns="http://www.w3.org/2000/svg" viewBox="0 0 135 124"><defs><style>.cls-1,.cls-5{fill:#e5e5e5}.cls-3{fill:#bfbfbf}.cls-4{fill:#d1d1d1}.cls-5{opacity:.8}</style></defs><path class="cls-1" d="M124 28v79a17 17 0 0 1-17 17H28a17 17 0 0 1-17-17V28a17 17 0 0 1 17-17h79a16.75 16.75 0 0 1 3.63.39A17 17 0 0 1 124 28z"/><path d="M118.55 38.74a51.09 51.09 0 1 1-94.31-27.22 17 17 0 0 1 3.8-.43h79a16.82 16.82 0 0 1 3.63.39 50.9 50.9 0 0 1 7.88 27.26z" fill="#efefef"/><rect class="cls-3" x="41.49" y="55.66" width="16.33" height="37" rx="8.17" ry="8.17" transform="rotate(7.69 49.673 74.158)"/><path class="cls-4" d="M94.76 41.08L70 72.59a3.56 3.56 0 0 1-5.6 0L39.71 41.08a6.32 6.32 0 0 1 0-7.86L64.44 1.7a3.55 3.55 0 0 1 5.6 0l24.72 31.52a6.37 6.37 0 0 1 0 7.86z"/><path class="cls-3" d="M72.34 12l11.93 13.91a3.86 3.86 0 0 1-.1 5.16l-20.45 22a3.88 3.88 0 0 1-5.74 0L47.67 41.48a3.87 3.87 0 0 1-.17-4.95l18.83-24.36a3.88 3.88 0 0 1 6.01-.17z"/><path class="cls-1" d="M65.64 13.5l7.48 20.24a2.52 2.52 0 0 1-2.37 3.4H47.22a2.52 2.52 0 0 1-2-4.09l16-20.25a2.53 2.53 0 0 1 4.42.7zM89.67 35.34a2.86 2.86 0 0 1 .17 3.76L71.28 62.29a2.85 2.85 0 0 1-4.34.14l-1.44-1.58a2.86 2.86 0 0 1 0-3.86l20-21.61a2.86 2.86 0 0 1 4.17-.04z"/><path class="cls-4" d="M63.16 68.8l-5.48 14.41-1 2.65-4.89 12.9-8.58-4.89a8.19 8.19 0 0 1-4-8.31l1.23-3.21 7.42-19.56a8.21 8.21 0 0 1 15.27 6z"/><path class="cls-4" d="M64.79 110.69L50.12 99.28l-7.8-6.07A8.21 8.21 0 0 1 41 81.68l.23-.26a8.22 8.22 0 0 1 11.3-1l5.62 4.37L67 91.58l11.77 9.16-.53 4.26a8.37 8.37 0 0 1-13.45 5.69z"/><path class="cls-4" d="M60.17 97.99l18.54 8.02 16.28-11.7-43.5-11.07 8.68 14.75z"/><rect class="cls-4" x="78.32" y="59.65" width="16.42" height="48.94" rx="8.21" ry="8.21" transform="rotate(-33.82 86.52 84.12)"/><path class="cls-4" d="M69.91 124h38.87l-5-26.01H64.91l5 26.01z"/><path class="cls-5" d="M81.2 23l-2.29 3.92a1.51 1.51 0 0 1-2.6 0L74 23a2.79 2.79 0 0 1 0-2.82l2.29-3.92a1.5 1.5 0 0 1 2.6 0l2.29 3.92A2.79 2.79 0 0 1 81.2 23zM58.08 49.35l-2.3 3.91a1.49 1.49 0 0 1-2.59 0l-2.29-3.91a2.81 2.81 0 0 1 0-2.83l2.29-3.92a1.5 1.5 0 0 1 2.59 0l2.3 3.92a2.81 2.81 0 0 1 0 2.83z"/></svg>