<svg viewBox="0 0 135 124" fill="none" xmlns="http://www.w3.org/2000/svg"><path d="M11.84 27.6c0-9.429 7.61-17.072 17-17.072h78.999c9.389 0 17 7.643 17 17.071v79.33c0 9.428-7.611 17.071-17 17.071h-79c-9.388 0-17-7.643-17-17.071v-79.33z" fill="#959595"/><path d="M13.67 114.644L81.463 10.528h26.376c9.15 0 16.611 7.258 16.986 16.353L88.605 124H28.839c-6.624 0-12.363-3.804-15.169-9.356z" fill="#A3A3A3"/><path d="M50.06 10.528H28.84c-9.25 0-16.773 7.417-16.995 16.65L46.754 124h61.084c9.389 0 17-7.643 17-17.071V87.867l-74.78-77.339z" fill="#BFBFBF"/><path fill-rule="evenodd" clip-rule="evenodd" d="M120.409 24.125c-2.928 7.8-11.598 11.74-19.365 8.8l-7.738-2.93c-7.767-2.939-11.69-11.645-8.763-19.445 2.928-7.8 11.598-11.739 19.365-8.8l7.738 2.93c7.767 2.94 11.69 11.645 8.763 19.445z" fill="#959595"/><path d="M119.756 23.204l-19.38-7.335c-6.355-2.405-13.307-.26-17.303 4.822a4.456 4.456 0 0 0-6.176 2.425 4.486 4.486 0 0 0 2.733 5.819c-.93 6.895 2.953 13.77 9.713 16.329l19.38 7.335c6.76 2.558 14.195-.032 18.029-5.829a4.456 4.456 0 0 0 5.878-2.56c.869-2.316-.295-4.9-2.601-5.773a4.514 4.514 0 0 0-.445-.142c.339-6.466-3.473-12.685-9.828-15.09z" fill="#D1D1D1"/><path fill-rule="evenodd" clip-rule="evenodd" d="M102.804 38.884a2.126 2.126 0 0 0 2.743-1.246c.414-1.104-.598-4.47-.598-4.47l-.281.181c-.752.495-2.77 1.886-3.106 2.781a2.14 2.14 0 0 0 1.242 2.754z" fill="#959595"/><path d="M77.768 30.811a2.127 2.127 0 0 0 2.744-1.246 2.14 2.14 0 0 0-1.242-2.755 2.127 2.127 0 0 0-2.743 1.247 2.141 2.141 0 0 0 1.241 2.755z" fill="#959595"/><path d="M120.62 23.562c5.121 2.303 8.408 7.163 8.916 12.488l-6.797-2.572c-2.825-1.07-4.252-4.235-3.187-7.071l1.068-2.845z" fill="#BFBFBF"/><path fill-rule="evenodd" clip-rule="evenodd" d="M107.61 43.1c1.038-.258 1.728-.915 2.029-1.392a.892.892 0 0 1 1.234-.278.9.9 0 0 1 .277 1.239c-.521.825-1.578 1.793-3.111 2.174-1.564.388-3.511.138-5.737-1.29a.901.901 0 0 1-.273-1.24.892.892 0 0 1 1.235-.273c1.89 1.212 3.339 1.31 4.346 1.06z" fill="#959595"/><path d="M108.145 27.097a4.87 4.87 0 0 1 6.283-2.855l.17.064c2.521.954 3.794 3.78 2.844 6.31l-1.779 4.739a4.871 4.871 0 0 1-6.284 2.855l-.169-.064c-2.521-.954-3.794-3.78-2.844-6.31l1.779-4.739zM106.431 26.448c.95-2.53-.324-5.356-2.844-6.31l-.17-.064a4.871 4.871 0 0 0-6.284 2.855l-1.778 4.739c-.95 2.53.323 5.356 2.843 6.31l.17.064a4.871 4.871 0 0 0 6.284-2.855l1.779-4.739z" fill="#fff"/><path d="M107.572 29.818a2.235 2.235 0 0 1 2.883-1.31 2.25 2.25 0 0 1 1.304 2.895l-.772 2.057a2.235 2.235 0 0 1-2.883 1.31 2.25 2.25 0 0 1-1.304-2.895l.772-2.057zM100.451 27.123a2.25 2.25 0 0 0-1.304-2.895 2.235 2.235 0 0 0-2.883 1.31l-.772 2.057a2.25 2.25 0 0 0 1.304 2.895 2.234 2.234 0 0 0 2.883-1.31l.772-2.057z" fill="#959595"/><path d="M115.658 35.369l-9.297-3.519.005-.014 1.779-4.739a4.87 4.87 0 0 1 6.283-2.855l.17.064c2.521.954 3.794 3.78 2.844 6.31l-1.779 4.739a.078.078 0 0 0-.005.014zM95.35 27.682l9.296 3.519.006-.014 1.778-4.739c.95-2.53-.323-5.356-2.843-6.31l-.17-.064a4.87 4.87 0 0 0-6.284 2.855l-1.778 4.739-.005.014z" fill="#BFBFBF"/><path fill-rule="evenodd" clip-rule="evenodd" d="M104.859 19.351l-.358.953c-2.172 5.788-8.606 8.712-14.37 6.53-5.764-2.181-8.676-8.642-6.503-14.43l.357-.953c2.173-5.788 8.607-8.712 14.371-6.53 5.764 2.181 8.676 8.642 6.503 14.43z" fill="#959595"/><path d="M24.468 16.89c4.515-1.555 6.92-6.492 5.37-11.026-1.55-4.534-6.466-6.948-10.98-5.392-4.516 1.556-6.92 6.493-5.37 11.027 1.55 4.534 6.465 6.948 10.98 5.392zM15.353 22.26C5.974 25.492.98 35.746 4.2 45.164c3.218 9.418 13.43 14.432 22.809 11.2l19.593-6.753c9.379-3.232 14.372-13.487 11.153-22.904-3.218-9.418-13.43-14.432-22.809-11.2L15.353 22.26z" fill="#959595"/><path d="M58.389 29.06c1.728 8.715-3.185 17.586-11.787 20.55L27.01 56.365c-8.602 2.964-17.904-1.008-21.87-8.953L58.39 29.06z" fill="#F2F2F2"/><path d="M12.365 44.921l3.593-1.238c2.437-.84 3.734-3.504 2.898-5.95l-1.662-4.863 22.379-7.713 1.662 4.863a4.66 4.66 0 0 0 5.926 2.91l4.002-1.38a17.339 17.339 0 0 1 4.077 6.6l2.73 7.989c1.692 4.95-.933 10.34-5.863 12.04l-24.204 8.34c-4.93 1.7-10.297-.936-11.99-5.886l-2.73-7.988a17.395 17.395 0 0 1-.818-7.724z" fill="#D1D1D1"/><path d="M36.224 32.986c2.61-.9 5.452.496 6.348 3.117l.119.348c-1.678.569-3.468 1.642-5.094 3.155-1.258 1.17-2.261 2.458-2.971 3.739a5.042 5.042 0 0 1-.505-1.057l-1-2.928c-.896-2.62.493-5.475 3.103-6.374zM25.033 36.843c-2.61.9-4 3.753-3.104 6.374l.12.349c1.68-.599 3.768-.862 5.998-.669 1.685.147 3.246.536 4.578 1.097-.038-.37-.119-.74-.244-1.106l-1-2.928a4.991 4.991 0 0 0-6.348-3.117z" fill="#fff"/><path fill-rule="evenodd" clip-rule="evenodd" d="M21.676 34.048a1.626 1.626 0 0 1 .464-2.246 28.31 28.31 0 0 1 13.284-4.577 1.618 1.618 0 0 1 1.74 1.486 1.62 1.62 0 0 1-1.48 1.748 25.088 25.088 0 0 0-11.77 4.055 1.611 1.611 0 0 1-2.238-.466z" fill="#959595"/><path d="M26.84 38.967a1.648 1.648 0 0 1-1.275 2.158l.028.09.556 1.626a16.467 16.467 0 0 1 4.728.554 2.26 2.26 0 0 0-.11-.965l-.917-2.683a2.248 2.248 0 0 0-3.245-1.228c.099.133.179.283.235.448zM35.445 36.002a1.648 1.648 0 0 1-1.275 2.157l.029.09.917 2.682c.112.33.294.618.523.851a16.226 16.226 0 0 1 1.958-2.176c.462-.43.937-.825 1.42-1.182l-.562-1.642a2.248 2.248 0 0 0-3.245-1.23c.099.134.179.284.235.45z" fill="#3D3D3D"/><path d="M46.4 51.711a2.523 2.523 0 0 1-1.56 3.202 2.507 2.507 0 0 1-3.189-1.566 2.523 2.523 0 0 1 1.56-3.202 2.507 2.507 0 0 1 3.188 1.566z" fill="#959595"/><path d="M17.443 42.842c.303-.256.57-.548.797-.867l1.997.693a.54.54 0 0 1 .083.986l-3.467 1.91a.537.537 0 0 1-.731-.213.542.542 0 0 1 .212-.734l2.404-1.325-1.295-.45zM44.586 33.062c.39.092.796.134 1.206.12l-.655 1.013 2.706-.437a.54.54 0 1 1 .17 1.068l-3.904.63a.538.538 0 0 1-.537-.24.543.543 0 0 1 0-.589l1.014-1.566z" fill="#F7B286"/><path fill-rule="evenodd" clip-rule="evenodd" d="M50.158 50.488a.54.54 0 0 1 .468.603c-.492 3.99-3.407 6.168-4.844 6.772a.542.542 0 0 1-.416-.998c1.19-.5 3.76-2.406 4.191-5.907a.539.539 0 0 1 .601-.47z" fill="#A2A2A2"/><path d="M32.605 40.696c.103-.035 1.513 1.105 2.965 2.312 1.444 1.2 1.009 3.516-.765 4.127-1.773.611-3.533-.947-3.127-2.786.408-1.847.823-3.617.927-3.653z" fill="#959595"/><path d="M11.5 38.66l36.59-12.246 2.345 7.182c1.405 4.302-1.006 8.919-5.329 10.205L39.5 45.469 32 38.696l-2 9.54-4.802 2.466c-4.36 2.24-9.683.054-11.232-4.612L11.5 38.66z" fill="#959595"/><path fill-rule="evenodd" clip-rule="evenodd" d="M12.486 37.757a2.272 2.272 0 0 0-1.404 2.883l1.834 5.366c1.823 5.334 7.608 8.175 12.92 6.344 5.312-1.831 8.14-7.64 6.317-12.974 1.824 5.334 7.608 8.175 12.92 6.344 5.312-1.831 8.14-7.64 6.318-12.974l-1.834-5.366a2.258 2.258 0 0 0-2.871-1.41l-34.2 11.787zm19.97-4.484l14.963-5.156.367 1.073-14.962 5.156-.367-1.073zm1.101 3.22l.734 2.146 14.962-5.156-.733-2.147-14.963 5.157zM37.1 42.47a7.89 7.89 0 0 1-1.765-1.791l14.343-4.943a7.94 7.94 0 0 1-.298 2.502L37.1 42.47zm3.018 1.359a7.844 7.844 0 0 0 4.223-.256 7.873 7.873 0 0 0 3.488-2.402l-7.71 2.658zM13.22 39.903l14.962-5.156.367 1.073-14.963 5.156-.366-1.073zm1.1 3.22l.734 2.146 14.962-5.156-.734-2.147-14.962 5.157zm3.542 5.977a7.895 7.895 0 0 1-1.765-1.791l14.343-4.943a7.942 7.942 0 0 1-.298 2.502L17.862 49.1zm3.018 1.359a7.843 7.843 0 0 0 4.222-.256 7.873 7.873 0 0 0 3.49-2.402L20.88 50.46z" fill="#B5B5B5"/><path opacity=".3" d="M1.287 67.989c-1.428-3.003-.162-6.6 2.828-8.034 2.99-1.434 6.572-.163 8 2.84l9.914 20.84c1.428 3.003.162 6.6-2.828 8.034-2.99 1.434-6.572.163-8-2.84L1.286 67.99z" fill="#BFBFBF"/><path d="M3.994 66.69a3.018 3.018 0 0 1 1.414-4.017 2.995 2.995 0 0 1 4 1.42l11.206 23.56a3.018 3.018 0 0 1-1.414 4.016 2.994 2.994 0 0 1-4-1.42L3.994 66.69z" fill="#BFBFBF"/><path d="M5.543 67.617a.503.503 0 0 1 .236-.67.5.5 0 0 1 .666.237l9.051 19.028a.5.5 0 1 1-.902.433L5.543 67.617z" fill="#F2F2F2"/><path d="M14.729 91.588c-.238-.5-.027-1.1.471-1.339l5.414-2.596a.998.998 0 0 1 1.334.473l1.724 3.624c.238.5.027 1.1-.471 1.34l-5.415 2.596a.998.998 0 0 1-1.333-.473l-1.724-3.625z" fill="#BFBFBF"/><path opacity=".3" d="M120.645 77.662a5.986 5.986 0 0 1 8.248-2.001c2.828 1.734 3.72 5.442 1.992 8.282l-11.468 18.853a5.987 5.987 0 0 1-8.248 2.001c-2.828-1.735-3.72-5.443-1.993-8.283l11.469-18.852z" fill="#A2A2A2"/><path d="M123.205 79.231a2.993 2.993 0 0 1 4.124-1 3.02 3.02 0 0 1 .996 4.14l-13.553 22.281a2.993 2.993 0 0 1-4.124 1.001 3.02 3.02 0 0 1-.997-4.141l13.554-22.28z" fill="#A2A2A2"/><path d="M123.277 81.04a.498.498 0 0 1 .687-.166c.236.144.31.453.166.69l-10.947 17.995a.5.5 0 0 1-.688.167.504.504 0 0 1-.166-.69l10.948-17.996z" fill="#F2F2F2"/><path d="M108.277 101.845a.998.998 0 0 1 1.375-.333l5.12 3.14c.471.29.62.908.332 1.381l-2.085 3.428a.998.998 0 0 1-1.375.333l-5.12-3.141a1.005 1.005 0 0 1-.332-1.38l2.085-3.428z" fill="#A2A2A2"/><path d="M93.348 95.5c0-4.26-3.439-7.713-7.68-7.713H60.702c-4.242 0-7.68 3.453-7.68 7.713v3.741c-2.499.037-4.513 2.082-4.513 4.599 0 2.517 2.014 4.562 4.512 4.598v6.728c0 4.794 3.87 8.68 8.644 8.68h23.039c4.773 0 8.643-3.886 8.643-8.68v-6.728c2.499-.036 4.513-2.081 4.513-4.598 0-2.518-2.014-4.563-4.513-4.599V95.5z" fill="#B0B0B0"/><path d="M86.467 60.884a9.991 9.991 0 0 1 9.411 2.47l3.887 3.722c4.007 3.838 4.157 10.212.334 14.236l-3.315 3.49a9.994 9.994 0 0 1-9.31 2.907v2.405l-14.34-2.405-17.339 2.405V88.01a9.971 9.971 0 0 1-6.208-3.064l-3.315-3.49c-3.823-4.024-3.673-10.398.334-14.236l3.887-3.723a9.988 9.988 0 0 1 8.946-2.577c.783-4.778 4.914-8.422 9.894-8.422h7.247c4.966 0 9.09 3.625 9.887 8.385zM74.455 107.785c-.482-.921-1.223-1.895-1.27-1.895-.047 0-.787.974-1.269 1.895a1.736 1.736 0 0 0-1.227 1.661c0 .959.774 1.736 1.728 1.736h1.537c.954 0 1.728-.777 1.728-1.736 0-.783-.517-1.445-1.227-1.661z" fill="#959595"/><path d="M66.218 79.758a7.795 7.795 0 0 0 3.87 6.1H50.621L53 99.242a4.487 4.487 0 0 1 .241.001l19.944-10.62 19.947 10.62a4.942 4.942 0 0 1 .232-.001l2.385-13.384H76.413a7.794 7.794 0 0 0 3.74-6.024l.186-2.192a7.756 7.756 0 0 0-7.129 3.448 7.757 7.757 0 0 0-7.178-3.525l.186 2.193z" fill="#D1D1D1"/><path d="M66.63 95.46c2.837 0 5.138 2.31 5.138 5.159v3.215a5.162 5.162 0 0 1-2.342 4.329c-1.124-.972-2.71-1.846-4.56-2.431a14.603 14.603 0 0 0-3.222-.642 5.184 5.184 0 0 1-.153-1.256v-3.215c0-2.85 2.3-5.16 5.138-5.16zM79.815 95.46c-2.837 0-5.138 2.31-5.138 5.159v3.215a5.16 5.16 0 0 0 2.31 4.307c1.12-.962 2.697-1.828 4.534-2.409a14.586 14.586 0 0 1 3.28-.647c.1-.4.153-.82.153-1.251v-3.215c0-2.85-2.3-5.16-5.139-5.16z" fill="#fff"/><path d="M79.216 101.718a1.856 1.856 0 0 0 1.851-1.86c0-.394-.121-.758-.328-1.058.235-.083.488-.128.75-.128a2.279 2.279 0 0 1 2.275 2.284v2.876a2.28 2.28 0 0 1-2.274 2.284 2.28 2.28 0 0 1-2.274-2.284v-2.114zM66.041 101.718a1.856 1.856 0 0 0 1.852-1.86c0-.394-.121-.758-.328-1.058.235-.083.488-.128.75-.128a2.28 2.28 0 0 1 2.275 2.284v2.876a2.28 2.28 0 0 1-2.274 2.284 2.28 2.28 0 0 1-2.275-2.284v-2.114z" fill="#959595"/><path fill-rule="evenodd" clip-rule="evenodd" d="M69.067 94.08c-2.377 3.196-6.004 3.591-7.59 3.38a1.035 1.035 0 0 1-.886-1.162 1.032 1.032 0 0 1 1.157-.891c1.095.145 3.87-.15 5.667-2.566.34-.459.987-.552 1.443-.21.457.342.55.991.21 1.45zM77.304 94.08c2.377 3.196 6.004 3.591 7.59 3.38.564-.075.961-.595.887-1.162a1.032 1.032 0 0 0-1.158-.891c-1.095.145-3.87-.15-5.666-2.566a1.029 1.029 0 0 0-1.444-.21c-.457.342-.55.991-.21 1.45z" fill="#959595"/><path d="M73.781 114.664c-.79.909.097 2.072 1.294 1.972l5.785-.482c1.198-.1 1.881-1.394.952-2.16a5.754 5.754 0 0 0-4.15-1.3 5.757 5.757 0 0 0-3.881 1.97z" fill="#fff"/></svg>