<svg viewBox="0 0 135 124" fill="none" xmlns="http://www.w3.org/2000/svg"><g clip-path="url(#clip0)"><path d="M107 11H28c-9.389 0-17 7.611-17 17v79c0 9.389 7.611 17 17 17h79c9.389 0 17-7.611 17-17V28c0-9.389-7.611-17-17-17z" fill="#9069CD"/><path d="M75.375 20.276c-2.042-9.308-9.84-16.688-19.836-17.745-12.495-1.321-23.695 7.737-25.016 20.233a23.063 23.063 0 0 0-.115 1.628c-5.658 4.101-9.62 10.496-10.412 17.993-1.483 14.022 8.683 26.591 22.705 28.074 11.407 1.205 21.852-5.297 26.15-15.313 2.438 8.715 9.978 15.49 19.525 16.5 12.495 1.321 23.695-7.737 25.016-20.233 1.321-12.495-7.737-23.695-20.232-25.016a22.727 22.727 0 0 0-7.262.395c-6.67.41-9.666-3.831-10.523-6.517z" fill="#3D3D3D"/><path d="M11.688 31.66c1.84.364 3.027 2.194 2.652 4.087-.375 1.892-2.17 3.131-4.01 2.767-1.839-.365-3.026-2.194-2.65-4.087.374-1.893 2.17-3.132 4.008-2.767zM94.688 16.66c1.84.364 3.027 2.194 2.652 4.087-.375 1.892-2.17 3.131-4.01 2.767-1.839-.365-3.026-2.194-2.65-4.087.374-1.893 2.17-3.132 4.008-2.767z" fill="#9ADCFB"/><path d="M23.934 62.57a41.24 41.24 0 0 1 1.951-8.912c.29.11.6.184.922.218l1.278.135c5.472.578 10.377-3.389 10.955-8.86l1.184-11.198c8.002-5.974 18.188-9.065 28.902-7.933l1.334.142c10.713 1.132 20.028 6.285 26.604 13.8L95.88 51.16c-.579 5.472 3.388 10.377 8.86 10.956l1.278.135c.323.034.64.026.947-.02l-.027-.23c.372 3.043.408 6.175.072 9.354l-1.94 18.353c-.731 6.916-6.931 11.931-13.848 11.199l-58.029-6.135c-6.916-.73-11.93-6.93-11.2-13.847l1.94-18.353z" fill="#DA8E74"/><path d="M48.92 44.512c.454-4.29 4.371-7.394 8.75-6.93l.842.088c4.379.463 7.56 4.317 7.107 8.607l-.564 5.336c-.454 4.29-4.371 7.393-8.75 6.93l-.842-.089c-4.379-.463-7.56-4.316-7.107-8.607l.564-5.335zM86.491 48.484c.454-4.29-2.728-8.144-7.106-8.607l-.843-.089c-4.378-.463-8.295 2.64-8.749 6.93l-.564 5.336c-.454 4.29 2.728 8.144 7.106 8.607l.843.089c4.379.463 8.296-2.64 8.75-6.93l.563-5.336z" fill="#fff"/><path fill-rule="evenodd" clip-rule="evenodd" d="M64.946 32.325a4.359 4.359 0 0 1-2.69 5.546l-11.983 4.155a4.359 4.359 0 1 1-2.856-8.237L59.4 29.634a4.359 4.359 0 0 1 5.546 2.69zM72.192 33.09a4.359 4.359 0 0 0 1.471 5.987l10.849 6.569a4.359 4.359 0 1 0 4.515-7.458L78.18 31.62a4.36 4.36 0 0 0-5.987 1.47z" fill="#3D3D3D"/><path d="M56.663 45.214c1.304.137 2.477-.85 2.62-2.204.033-.308.01-.609-.062-.891.335-.064.683-.08 1.038-.043 2.017.214 3.473 2.086 3.251 4.182l-.521 4.933c-.222 2.096-2.037 3.622-4.054 3.41-2.018-.214-3.474-2.086-3.252-4.182l.522-4.934c.012-.119.03-.236.053-.352.13.039.265.066.405.08zM72.317 46.868c1.304.138 2.477-.848 2.62-2.203.033-.308.01-.609-.061-.891.334-.064.683-.08 1.037-.043 2.018.214 3.473 2.086 3.252 4.182l-.522 4.933c-.221 2.096-2.036 3.622-4.054 3.41-2.017-.214-3.473-2.086-3.251-4.182l.521-4.934c.013-.119.03-.236.053-.351.13.038.266.065.405.08z" fill="#3D3D3D"/><path d="M43.31 47.672l46.964 4.965-1.435 13.567-46.963-4.965 1.434-13.567z" fill="#DA8E74"/><path d="M41.276 70.895c-2.488-5.564.081-12.036 5.739-14.457l9.024-3.86a11.375 11.375 0 0 1 11.232 1.316 11.374 11.374 0 0 1 10.907 1.48l7.865 5.867c4.93 3.679 5.905 10.572 2.177 15.397-3.727 4.825-10.746 5.755-15.676 2.077l-.946-.706-.001.002-.041-.033-1.001-.747c-4.48-3.076-9.028-2.736-11.83-1.8l-1.582.677c-.06.032-.117.064-.172.097l-.007-.021-.938.401c-5.658 2.421-12.261-.127-14.75-5.69z" fill="#3D3D3D"/><path d="M72.2 53.892a5.247 5.247 0 1 1-10.436-1.104 5.247 5.247 0 0 1 10.437 1.104z" fill="#DA8E74"/><path d="M17.894 13.189c-2.884-1.499-3.429-5.393-1.068-7.626 2.362-2.233 6.22-1.47 7.554 1.493l3.747 8.32a1.556 1.556 0 0 1-2.136 2.02l-8.097-4.207z" fill="#1CB0F6"/><path d="M12.007 25.816c-3.918.443-7.103-3.109-6.237-6.955.866-3.846 5.266-5.69 8.616-3.61l9.405 5.84a1.888 1.888 0 0 1-.784 3.48l-11 1.245z" fill="#9ADCFB"/><path d="M12.954 72.696c-2.307 2.417-6.308 1.837-7.835-1.135-1.526-2.972.335-6.562 3.643-7.029l9.29-1.31a1.6 1.6 0 0 1 1.38 2.688l-6.478 6.786zM114.863 104.321c3.511 1.804 4.194 6.531 1.338 9.256-2.855 2.724-7.545 1.82-9.182-1.772l-4.597-10.085a1.889 1.889 0 0 1 2.583-2.465l9.858 5.066z" fill="#1CB0F6"/><path d="M116.957 90.885c3.148.702 4.663 4.3 2.967 7.043-1.696 2.743-5.591 2.995-7.627.493l-5.715-7.027a1.544 1.544 0 0 1 1.535-2.482l8.84 1.973zM115.118 23.593c2.428-1.758 5.865-.596 6.729 2.274.864 2.87-1.361 5.736-4.356 5.61l-8.41-.351a1.436 1.436 0 0 1-.782-2.597l6.819-4.936z" fill="#9ADCFB"/><path d="M103.751 9.2c.664-4.99 6.051-7.836 10.548-5.571 4.496 2.264 5.417 8.287 1.803 11.792l-10.149 9.841a2.411 2.411 0 0 1-4.068-2.049L103.751 9.2z" fill="#1CB0F6"/><path d="M28.72 47.195a40.785 40.785 0 0 0-2.835 6.463c.29.11.6.184.922.218l1.278.135a9.964 9.964 0 0 0 2.926-.121 6.963 6.963 0 1 1-2.29-6.695zM101.548 61.226a6.962 6.962 0 1 0 3.938-6.101 40.83 40.83 0 0 1 1.479 7.105 3.747 3.747 0 0 1-.947.02l-1.278-.135a9.95 9.95 0 0 1-3.192-.89z" fill="#DA8E74"/><path d="M102.093 33.239c1.024 1.896-.185 4.534-2.7 5.89-2.515 1.358-5.383.92-6.407-.976-1.023-1.896.186-4.534 2.7-5.89 2.515-1.358 5.384-.921 6.407.976z" fill="#9ADCFB"/></g><defs><clipPath id="clip0"><path fill="#fff" d="M0 0h135v124H0z"/></clipPath></defs></svg>