<svg viewBox="0 0 135 124" fill="none" xmlns="http://www.w3.org/2000/svg"><g clip-path="url(#clip0_124_1658)"><path d="M11.84 28.204c0-9.389 7.61-17 17-17h78.999c9.389 0 17 7.611 17 17v79c0 9.389-7.611 17-17 17h-79c-9.388 0-17-7.611-17-17v-79z" fill="#FFCA00"/><path d="M123.44 20.93L21.92 122.45a16.937 16.937 0 0 0 7.08 1.56h41.32L125 69.33V28.01a16.938 16.938 0 0 0-1.56-7.08zM51.32 69.07l58-58c-.43 0-.87-.07-1.31-.07H59.42L26.34 44.09c-6.904 6.904-6.904 18.096 0 25 6.903 6.904 18.096 6.904 25 0l-.02-.02z" fill="#FFD900"/><path fill-rule="evenodd" clip-rule="evenodd" d="M98.453 82.622a22.913 22.913 0 0 0-22.395 9.506 2.412 2.412 0 0 1-3.93.033 22.923 22.923 0 0 0-22.56-9.118 2.413 2.413 0 0 1-2.803-2.755 22.932 22.932 0 0 0-9.51-22.402 2.413 2.413 0 0 1-.033-3.93 22.923 22.923 0 0 0 9.111-22.562 2.412 2.412 0 0 1 2.755-2.804 22.913 22.913 0 0 0 22.395-9.506 2.412 2.412 0 0 1 3.93-.034 22.923 22.923 0 0 0 22.56 9.118 2.413 2.413 0 0 1 2.803 2.755 22.932 22.932 0 0 0 9.509 22.402 2.413 2.413 0 0 1 .035 3.931 22.922 22.922 0 0 0-9.112 22.562 2.413 2.413 0 0 1-2.755 2.804z" fill="#FFF400"/><path d="M97.195 56.129c0 13-10.536 23.539-23.533 23.539-12.996 0-23.532-10.539-23.532-23.54 0-13 10.536-23.538 23.532-23.538 12.997 0 23.532 10.539 23.532 23.539z" fill="#FFD900"/><path d="M124.839 68v39.204c0 9.389-7.611 17-17 17h-79c-9.388 0-17-7.611-17-17V68h113z" fill="#FFC100"/><path fill-rule="evenodd" clip-rule="evenodd" d="M124.839 69.49V68h-48.47l-54.45 54.45a16.937 16.937 0 0 0 7.08 1.56h41.32l54.52-54.52zM25.336 68c.317.374.651.737 1.004 1.09 6.903 6.904 18.096 6.904 25 0l-.02-.02L52.39 68H25.336z" fill="#FFCA00"/><g opacity=".5" fill="#FFF400"><path d="M103.542 76.067a3.156 3.156 0 0 0-3.156-3.156H78.71a3.156 3.156 0 1 0 0 6.313h21.676a3.156 3.156 0 0 0 3.156-3.157zM89.816 85.274a3.156 3.156 0 0 0-3.157-3.157h-20.2a3.156 3.156 0 1 0 0 6.313h20.2a3.156 3.156 0 0 0 3.157-3.156zM95.71 92.85a3.156 3.156 0 0 1 0 6.312H85.346a3.156 3.156 0 0 1 0-6.313H95.71z"/></g><path d="M5.92 63.619h.002a8.546 8.546 0 0 1 7.266-9.494l39.856-5.735a8.546 8.546 0 0 1 9.648 7.06l.002-.001 5.607 38.966a2.957 2.957 0 0 0 3.349 2.506l5.747-.827a1.232 1.232 0 0 1 1.396 1.044c.948 6.589-3.625 12.7-10.215 13.648l-52.7 7.584c-6.59.948-12.7-3.625-13.649-10.214a1.233 1.233 0 0 1 1.045-1.396l5.747-.827a2.957 2.957 0 0 0 2.506-3.348L5.92 63.619z" fill="#FFB100"/><path d="M10.349 64.111l48.235-6.94 6.926 48.13-48.235 6.941-6.926-48.13z" fill="#FFBB31"/><path d="M11.162 86.077A5.378 5.378 0 1 0 9.631 75.43a5.378 5.378 0 0 0 1.531 10.646zM63.997 78.474a5.378 5.378 0 1 0-1.532-10.646 5.378 5.378 0 0 0 1.532 10.646z" fill="#FFBB31"/><path d="M15.033 113.441a1.479 1.479 0 0 1 1.253-1.674l50.039-7.201a1.48 1.48 0 0 1 1.674 1.253l.714 4.959a1.479 1.479 0 0 1-1.253 1.674l-50.04 7.201a1.48 1.48 0 0 1-1.674-1.253l-.713-4.959z" fill="#E27800"/><path d="M7.735 76.082a5.378 5.378 0 0 1 7.046 1.547 5.994 5.994 0 0 0 1.46-4.851l-1.073-7.453-8.8 1.266 1.367 9.491zM58.152 71.395a5.377 5.377 0 0 1 6.314-3.481L63.1 58.427l-8.8 1.266 1.073 7.453a5.995 5.995 0 0 0 2.778 4.249z" fill="#FFB100"/><path d="M4.122 62.289a1.479 1.479 0 0 1 1.253-1.674l56.995-8.202a1.479 1.479 0 0 1 1.674 1.253l.581 4.039a1.479 1.479 0 0 1-1.253 1.674L6.378 67.581a1.479 1.479 0 0 1-1.675-1.253l-.58-4.039z" fill="#E27800"/><path d="M36.563 61.865c6.524-.939 11.052-6.99 10.113-13.513-.939-6.525-6.989-11.053-13.513-10.114a11.927 11.927 0 0 0-9.247 7.055l-2.586-2.137c-.712-.588-1.79-.386-2.098.485a10.367 10.367 0 0 0-.48 4.935 10.406 10.406 0 0 0 6.16 8.07 11.936 11.936 0 0 0 11.65 5.219z" fill="#FFB100"/><path d="M38.788 109.353c.046-.49.422-.885.909-.955l3.217-.463c.487-.07.96.203 1.141.66l3.382 8.497a1.064 1.064 0 0 1-.837 1.447l-7.45 1.072a1.064 1.064 0 0 1-1.21-1.152l.848-9.106z" fill="#FFF1A2"/><path d="M36.878 77.397c.127-.018 1.506 1.603 2.918 3.308 1.406 1.698.398 4.264-1.784 4.578-2.18.314-3.872-1.864-3.002-3.889.874-2.035 1.74-3.979 1.868-3.997z" fill="#F08904"/><path fill-rule="evenodd" clip-rule="evenodd" d="M23.656 86.928a5.035 5.035 0 0 1 7.113.332c.587.645 1.073 1.074 1.635 1.376.518.278 1.324.568 2.68.563a5.035 5.035 0 1 1 .042 10.07c-6.279.025-9.756-2.982-11.802-5.228a5.035 5.035 0 0 1 .332-7.113z" fill="#A41414"/><path d="M37.187 70.911a6.732 6.732 0 1 1 13.327-1.918l.583 4.054a6.732 6.732 0 1 1-13.327 1.917l-.583-4.053z" fill="#FFF1A2"/><path fill-rule="evenodd" clip-rule="evenodd" d="M25.601 65.892a7.01 7.01 0 0 1 4.375-.157 7.01 7.01 0 0 1 3.62 2.463 2.892 2.892 0 1 1-4.582 3.528 1.227 1.227 0 0 0-.64-.434 1.226 1.226 0 0 0-.773.027 2.892 2.892 0 0 1-2-5.427z" fill="#3D3D3D"/><path d="M35.025 89.199c-1.321-.004-2.11-.29-2.62-.563-.563-.302-1.048-.731-1.636-1.376a5.035 5.035 0 0 0-8.756 3.265 2.121 2.121 0 0 0 2.252 1.265l2.795-.403a2.118 2.118 0 0 0 1.62-1.205c.458.52 1.16.805 1.896.7l2.795-.403a2.119 2.119 0 0 0 1.654-1.28z" fill="#fff"/><path d="M40.071 93.4a5.035 5.035 0 0 1-4.946 5.87 16.823 16.823 0 0 1-4.198-.49 8.939 8.939 0 0 1 6.95-5.335 8.96 8.96 0 0 1 2.194-.046z" fill="#D22121"/><path fill-rule="evenodd" clip-rule="evenodd" d="M26.522 59.451a2.65 2.65 0 0 0-3.47-1.416c-2.4 1.008-4.629 2.728-5.817 3.885a2.65 2.65 0 0 0 3.698 3.797c.84-.819 2.53-2.106 4.173-2.796a2.65 2.65 0 0 0 1.416-3.47zM43.92 56.948a2.65 2.65 0 0 1 2.93-2.338c2.587.291 5.21 1.313 6.676 2.088a2.65 2.65 0 0 1-2.476 4.686c-1.038-.55-3.021-1.307-4.793-1.507a2.65 2.65 0 0 1-2.337-2.93z" fill="#FFB100"/><path fill-rule="evenodd" clip-rule="evenodd" d="M23.656 86.928a5.035 5.035 0 0 1 7.113.332c.587.645 1.073 1.074 1.635 1.376.518.278 1.324.568 2.68.563a5.035 5.035 0 1 1 .042 10.07c-6.279.025-9.756-2.982-11.802-5.228a5.035 5.035 0 0 1 .332-7.113z" fill="#EB8502"/><path d="M27.205 65.546a6.732 6.732 0 0 0-5.704 7.622l.583 4.054a6.702 6.702 0 0 0 1.737 3.63c2.695-.749 5.363-.69 8.715.978a6.733 6.733 0 0 0 2.875-6.526l-.583-4.053a6.732 6.732 0 0 0-7.623-5.705z" fill="#FFF1A2"/><path d="M41.025 63.84a6.734 6.734 0 0 1 8.53 2.533 2.892 2.892 0 0 1-4.819 3.17 1.227 1.227 0 0 0-.64-.433 1.227 1.227 0 0 0-.772.026 2.892 2.892 0 0 1-2.3-5.296zM25.339 66.097a6.734 6.734 0 0 1 8.53 2.532 2.892 2.892 0 0 1-4.819 3.172 1.227 1.227 0 0 0-.64-.434 1.226 1.226 0 0 0-.772.027 2.892 2.892 0 0 1-2.3-5.297z" fill="#E27800"/></g><defs><clipPath id="clip0_124_1658"><path fill="#fff" d="M0 0h135v124H0z"/></clipPath></defs></svg>