<svg viewBox="0 0 135 124" fill="none" xmlns="http://www.w3.org/2000/svg"><rect x="11.234" y="11" width="113" height="113" rx="17" fill="#1CB0F6"/><rect x="66.316" y="3.315" width="46.842" height="59.723" rx="23.394" transform="rotate(85.395 66.316 3.315)" fill="#3D3D3D"/><rect x="11.178" y="30.33" width="79.586" height="48.692" rx="23.674" transform="rotate(-4.605 11.178 30.33)" fill="#FFCBA3"/><circle cx="94.009" cy="47.071" r="6.943" transform="rotate(-4.605 94.009 47.071)" fill="#FFCBA3"/><circle cx="10.966" cy="53.76" r="6.943" transform="rotate(-4.605 10.966 53.76)" fill="#FFCBA3"/><circle cx="12.315" cy="61.119" r="3.346" transform="rotate(-4.605 12.315 61.12)" fill="#C86902"/><path fill-rule="evenodd" clip-rule="evenodd" d="M53.808 59.456a3.34 3.34 0 0 0 3.067-3.594c-.148-1.836-3.833-5.91-3.833-5.91s-2.985 4.611-2.837 6.448a3.34 3.34 0 0 0 3.603 3.056z" fill="#E99B5F"/><circle cx="41.238" cy="63.273" r="10.06" transform="rotate(-4.605 41.238 63.273)" fill="#FFBFA3"/><circle cx="69.476" cy="58.91" r="10.06" transform="rotate(-4.605 69.476 58.91)" fill="#FFBFA3"/><path d="M49.998 64.722a2.026 2.026 0 0 1 1.165-2.618l15.17-5.83a2.026 2.026 0 0 1 2.618 1.163 6.079 6.079 0 0 1-3.493 7.856l-7.604 2.922a6.079 6.079 0 0 1-7.855-3.493z" fill="#fff"/><path fill-rule="evenodd" clip-rule="evenodd" d="M113.654 55.68l13.326 22.995-8.904 33.231a3.625 3.625 0 0 1-4.439 2.563l-37.516-10.052a3.625 3.625 0 0 1-2.563-4.44L86.38 52.124a3.625 3.625 0 0 1 4.44-2.563l22.834 6.118z" fill="#D2E4E8"/><path fill-rule="evenodd" clip-rule="evenodd" d="M126.753 78.285l-16.573-4.444a1.45 1.45 0 0 1-1.024-1.776l.003-.013 4.538-16.296 13.056 22.53z" fill="#B8CDD2"/><path fill="#B8CDD2" d="M90.2 57.033l12.52 3.355-1.998 7.456-12.52-3.355zM86.559 70.973l27.291 7.313-1.847 6.894-27.291-7.313zM81.063 91.1l27.291 7.312-1.847 6.894-27.291-7.313zM83.699 81.202l32.75 8.775-1.847 6.894-32.75-8.775z"/><path d="M89.225 37.442l-11.558.931a8.507 8.507 0 0 1-9.163-7.796l-.387-4.803c8.867-.267 16.844 4.424 21.108 11.668z" fill="#D6C6BA"/><path d="M42.29 33.194a7.863 7.863 0 0 0-7.206 8.47l.287 3.553c3.997-.268 11.078-.79 15.685-1.136l-.296-3.68a7.863 7.863 0 0 0-8.47-7.207z" fill="#E99B5F"/><path d="M42.52 36.029a7.863 7.863 0 0 0-7.207 8.469l.39 4.836c.02.261.054.518.1.771 1.317-.03 3.099.018 5.11.312 2.634.385 5.844 1.223 8.918 3.003a7.833 7.833 0 0 0 1.547-5.349l-.39-4.836a7.863 7.863 0 0 0-8.469-7.206z" fill="#fff"/><path d="M46.658 51.904a3.542 3.542 0 0 0 2.605-3.703l-.357-4.434a3.541 3.541 0 0 0-4.174-3.198 2.76 2.76 0 0 1-2.867 4l.339 4.2c.063.789.38 1.495.863 2.048 1.15.26 2.362.612 3.591 1.087z" fill="#3D3D3D"/><path d="M54.014 37.073c.057.059.113.102.165.125.563.25 3.063 1.25 4.063 1.5.587.147 6.18.123 11.066.067l.012.141.265 3.283-15.61 2.067-.33-4.087a7.837 7.837 0 0 1 .369-3.096z" fill="#E99B5F"/><path d="M55.487 37.568a7.834 7.834 0 0 0-1.614 5.436l.39 4.836a7.831 7.831 0 0 0 2.22 4.87c2.685-2.133 5.617-3.42 8.081-4.198a30.816 30.816 0 0 1 5.4-1.179 7.965 7.965 0 0 0-.026-.756l-.39-4.836a7.839 7.839 0 0 0-.865-3.01c-6.179 1.182-10.575.153-13.196-1.163z" fill="#fff"/><path d="M63.595 48.837a26.364 26.364 0 0 0-4.144 1.88 3.543 3.543 0 0 1-2.579-3.129l-.333-4.133a2.844 2.844 0 0 0 2.244-3.895 3.541 3.541 0 0 1 4.791 3.026l.358 4.434a3.525 3.525 0 0 1-.337 1.817z" fill="#3D3D3D"/><path fill-rule="evenodd" clip-rule="evenodd" d="M52.858 32.333a1.75 1.75 0 0 1 1.699 1.8c-.004.12.105 1.115 2.175 1.986 2.08.876 5.903 1.471 12.487.664a1.75 1.75 0 0 1 .427 3.474c-6.865.842-11.387.302-14.272-.912-2.896-1.218-4.375-3.267-4.316-5.313a1.75 1.75 0 0 1 1.8-1.7z" fill="#E99B5F"/><rect x="42.088" y="12.987" width="36.302" height="34.797" rx="17.398" transform="rotate(85.395 42.088 12.987)" fill="#3D3D3D"/></svg>