<svg viewBox="0 0 135 124" version="1.1" xmlns="http://www.w3.org/2000/svg"><g stroke="none" stroke-width="1" fill="none" fill-rule="evenodd"><g fill-rule="nonzero"><g><path d="M124 28c0-9.389-7.611-17-17-17H28c-9.389 0-17 7.611-17 17v79c0 9.389 7.611 17 17 17h79c9.389 0 17-7.611 17-17V28z" fill="#D1D1D1"/><path d="M124 28v79c0 .581-.03 1.162-.09 1.74a6.17 6.17 0 0 1-.08.62.91.91 0 0 1 0 .23c0 .23-.07.45-.11.68l-.15.69c-.04.193-.09.383-.15.57a16.81 16.81 0 0 1-.73 2.1c-.11.25-.22.5-.34.74a15.28 15.28 0 0 1-1.35 2.33c-.12.17-.24.35-.37.51a6.12 6.12 0 0 1-.39.5l-.41.48-.42.47a6.25 6.25 0 0 1-.44.45 16.89 16.89 0 0 1-11 4.87H28c-.827 0-1.652-.06-2.47-.18l-.66-.11c-.25 0-.49-.09-.74-.15l-.76-.2-.93-.29c-.13 0-.26-.09-.39-.15a8.18 8.18 0 0 1-.82-.32c-.34-.15-.67-.31-1-.48-.33-.17-.66-.36-1-.55a17.34 17.34 0 0 1-4.78-4.29c-.16-.2-.29-.43-.43-.64-.14-.21-.24-.35-.35-.53a14.69 14.69 0 0 1-.74-1.28 8.4 8.4 0 0 1-.26-.52c-.08-.18-.26-.48-.37-.74v-.08c-.13-.32-.25-.64-.37-1v-.08a20.117 20.117 0 0 1-.54-2.08c-.07-.37-.12-.62-.16-.93a13.12 13.12 0 0 1-.15-1.67.87.87 0 0 1 0-.28 4.1 4.1 0 0 1 0-.5V28c0-.878.07-1.754.21-2.62.08-.55.19-1.09.32-1.63.13-.54.32-1.09.51-1.62s.4-1 .64-1.5.5-1 .78-1.44A17 17 0 0 1 28 11h79a17 17 0 0 1 16.75 14.07l.09.57c.104.782.158 1.57.16 2.36z" fill="#E5E5E5"/><path d="M68.32 0C40.186.028 17.4 22.853 17.42 50.987c.02 28.133 22.84 50.926 50.973 50.913 28.134-.013 50.933-22.826 50.927-50.96A50.93 50.93 0 0 0 68.32 0zM30.18 73a12.81 12.81 0 1 1 22.147-12.88A12.81 12.81 0 0 1 30.18 73zm76.29-44a12.8 12.8 0 1 1-11.11-6.41 12.83 12.83 0 0 1 11.11 6.33V29zm-25.34-9.29c0 7.075-5.735 12.81-12.81 12.81s-12.81-5.735-12.81-12.81S61.245 6.9 68.32 6.9c7.07.011 12.799 5.74 12.81 12.81zm-33.46 4.52a12.79 12.79 0 1 1-12.812 22.14A12.79 12.79 0 0 1 47.67 24.23zm7.84 58A12.81 12.81 0 1 1 68.32 95c-7.076-.006-12.81-5.744-12.81-12.82v.05zM89 77.66c-6.128-3.535-8.23-11.367-4.696-17.495 3.534-6.129 11.366-8.232 17.495-4.699 6.128 3.533 8.233 11.365 4.701 17.494-3.537 6.127-11.37 8.23-17.5 4.7z" fill="#B2B2B2"/><path d="M115.13 50.94c-.002 23.787-17.839 43.792-41.47 46.51-1.773.2-3.556.3-5.34.3-1.54 0-3.07-.07-4.57-.22-25.137-2.466-43.785-24.43-42.14-49.635C23.253 22.691 44.597 3.337 69.842 4.158c25.245.822 45.285 21.524 45.287 46.782z" fill="#A6A6A6"/><path d="M111.85 44.65a2.56 2.56 0 0 1-2.54 2.82H66l.1-43.27c.74-.04 1.49-.06 2.25-.06A36.27 36.27 0 0 1 83.9 8a.73.73 0 0 1-.33 1.38h-9.68l-1.67 3.19h17.55a4.83 4.83 0 0 1 3.12 1.1A72.55 72.55 0 0 1 104 25.08a1.43 1.43 0 0 1-1.17 2.26H89.09v4.44h16.16a4.32 4.32 0 0 1 4 2.63 35.5 35.5 0 0 1 2.6 10.24z" fill="#B2B2B2"/><path d="M113.6 62.85a46.86 46.86 0 0 1-39.94 34.6c-1.773.2-3.556.3-5.34.3-1.54 0-3.07-.07-4.57-.22V62.85h49.85z" fill="#A6A6A6"/><circle fill="#A6A6A6" cx="50.94" cy="50.94" r="46.81"/><path d="M88.89 116.93a1.92 1.92 0 0 1-1.9-2.29c.83-4.2 3.55-12.68 12-12.68 7.6 0 18.5-3.4 18.5-16.66 0-11.83-19.87-15.18-19.87-34.36h17.47C115.13 70.12 135 70.42 135 85.3c.292 10.534-7.969 19.33-18.5 19.7-8.8 0-11.41 7.28-12.13 10.48a1.93 1.93 0 0 1-1.88 1.49l-13.6-.04z" fill="#A6A6A6"/><path d="M100.61 51.49h9.73a2 2 0 0 1 2 1.85 23 23 0 0 0 4.57 12.55.71.71 0 0 1-.57 1.14h-7.82c-.7 0-1.37-.29-1.85-.8-2.98-3.11-5.15-6.8-6.06-14.74zM109.44 103.6c-3.75 1.92-6.5 5.49-7.79 10.33H90.22c1.94-7.76 6.37-8.37 8.81-9 2.44-.63 7.24-1.43 10.23-1.92a.308.308 0 1 1 .18.59zM131.53 89.53c-.94 4.07-4.47 9.1-7.8 10.88a3.2 3.2 0 0 1-1.49.48h-7.68a.55.55 0 0 1-.42-.91c2.09-2.34 5.51-7.09 6.12-10.91a1.62 1.62 0 0 1 1.61-1.38H130a1.52 1.52 0 0 1 1.53 1.84zM113.11 70.49h7.26a2.58 2.58 0 0 1 1.67.62l2 1.71c3.71 3.21 6.77 5.85 7.68 9.89a1.28 1.28 0 0 1-1.26 1.52h-8.73a1.4 1.4 0 0 1-1.38-1.16c-.82-4.81-4.23-8.25-7.71-11.36a.7.7 0 0 1 .47-1.22z" fill="#B2B2B2"/><path d="M50.94 0C22.806.028.02 22.853.04 50.987.06 79.12 22.88 101.913 51.013 101.9c28.134-.013 50.933-22.826 50.927-50.96A50.93 50.93 0 0 0 50.94 0zM12.8 73a12.81 12.81 0 0 1 11.07-19.25A12.85 12.85 0 0 1 35 60.16a12.8 12.8 0 0 1-11.1 19.21A12.84 12.84 0 0 1 12.8 73zm76.29-44A12.8 12.8 0 1 1 78 22.51a12.83 12.83 0 0 1 11.09 6.41V29zm-25.34-9.29c0 7.075-5.735 12.81-12.81 12.81s-12.81-5.735-12.81-12.81S43.865 6.9 50.94 6.9c7.072.006 12.804 5.738 12.81 12.81zm-33.46 4.52a12.79 12.79 0 1 1-12.812 22.14A12.79 12.79 0 0 1 30.29 24.23zm7.84 58A12.81 12.81 0 1 1 50.94 95c-7.074-.011-12.804-5.746-12.81-12.82v.05zm33.46-4.52A12.82 12.82 0 1 1 78 79.37a12.76 12.76 0 0 1-6.41-1.71v.05z" fill="#BFBFBF"/><path d="M50.94 5.39a45.56 45.56 0 1 0 45.55 45.55A45.55 45.55 0 0 0 50.94 5.39zM71 25a12.46 12.46 0 1 1-4.57 17c-3.42-5.958-1.376-13.56 4.57-17zm-57.18 4.51a12.46 12.46 0 1 1 4.56 17c-5.914-3.465-7.946-11.04-4.56-17zm22.84 39.86a12.4 12.4 0 0 1-5.81 7.57c-5.957 3.425-13.563 1.38-17-4.57-3.41-5.957-1.373-13.549 4.56-17 5.957-3.425 13.563-1.38 17 4.57a12.38 12.38 0 0 1 1.25 9.43zm14.28 24.44a12.47 12.47 0 1 1 12.47-12.46c-.011 6.88-5.59 12.454-12.47 12.46zm0-60.8c-6.887 0-12.47-5.583-12.47-12.47 0-6.887 5.583-12.47 12.47-12.47 6.887 0 12.47 5.583 12.47 12.47-.017 6.879-5.591 12.449-12.47 12.46v.01zm26.32 45.6a12.46 12.46 0 1 1 .027-24.92 12.46 12.46 0 0 1-.027 24.92z" fill="#D1D1D1"/><circle fill="#BFBFBF" cx="50.94" cy="50.94" r="13.71"/><circle fill="#A6A6A6" cx="50.94" cy="50.94" r="4.11"/><path d="M43.09 57.14a1.68 1.68 0 0 1-1.44-.83 1.63 1.63 0 0 1-.16-1.26 1.6 1.6 0 0 1 .76-1 1.65 1.65 0 0 1 .83-.23 1.68 1.68 0 0 1 1.44.83c.222.381.28.836.16 1.26a1.58 1.58 0 0 1-.77 1 1.61 1.61 0 0 1-.82.23zM58.8 48.06a1.63 1.63 0 0 1-1.43-.83A1.65 1.65 0 0 1 58 45a1.72 1.72 0 0 1 .83-.22 1.66 1.66 0 0 1 1.6 2.08 1.67 1.67 0 0 1-.77 1 1.64 1.64 0 0 1-.86.2zM58.8 57.14a1.68 1.68 0 0 1-1.6-1.23 1.6 1.6 0 0 1 .17-1.26 1.64 1.64 0 0 1 2.26-.6 1.65 1.65 0 0 1 .6 2.26 1.65 1.65 0 0 1-1.43.83zM43.08 48.06a1.58 1.58 0 0 1-.82-.22 1.67 1.67 0 0 1-.61-2.26 1.66 1.66 0 1 1 1.43 2.48zM50.94 43.53a1.66 1.66 0 1 1 0-3.32 1.66 1.66 0 0 1 0 3.32zM50.94 61.67A1.66 1.66 0 1 1 52.6 60a1.65 1.65 0 0 1-1.66 1.67z" fill="#E5E5E5"/><path d="M36.86 52.33a1.39 1.39 0 0 1-1.39-1.39c.011-8.54 6.93-15.459 15.47-15.47a1.39 1.39 0 1 1 0 2.77c-7.01.011-12.689 5.69-12.7 12.7a1.38 1.38 0 0 1-1.38 1.39z" fill="#EFEFEF"/></g></g></g></svg>