<svg viewBox="0 0 135 124" fill="none" xmlns="http://www.w3.org/2000/svg"><path d="M11 28c0-9.389 7.611-17 17-17h79c9.389 0 17 7.611 17 17v79c0 9.389-7.611 17-17 17H28c-9.389 0-17-7.611-17-17V28z" fill="#FEC701"/><path fill-rule="evenodd" clip-rule="evenodd" d="M64.756 27.337c8.2 8.201 8.2 21.497 0 29.698l-53.407 53.407a17.071 17.071 0 0 1-.348-3.442L11 51.393l24.057-24.056c8.201-8.201 21.498-8.201 29.699 0zM124 28.393v35.355l-8.995 8.996c-4.881 4.882-12.796 4.882-17.677 0-4.882-4.881-4.882-12.796 0-17.677L124 28.393z" fill="#FFD900"/><path d="M45.299 4.54c12.87 0 23.304 10.46 23.304 23.331 0 12.871-10.433 23.331-23.304 23.331H32.414c-12.871 0-23.305-10.46-23.305-23.33C9.11 15 19.543 4.54 32.414 4.54h12.885z" fill="#F68B00"/><path d="M11.693 50.538c0-13.024 10.56-23.583 23.584-23.583h32.114c13.025 0 23.584 10.559 23.584 23.584v1.338c0 13.024-10.56 23.583-23.584 23.583H35.277c-13.025 0-23.584-10.558-23.584-23.583v-1.339z" fill="#FFB100"/><path fill-rule="evenodd" clip-rule="evenodd" d="M34.523 42.954a7.833 7.833 0 0 1 15.666 0v4.833a7.833 7.833 0 1 1-15.666 0v-4.833z" fill="#FFF1A2"/><path fill-rule="evenodd" clip-rule="evenodd" d="M41.023 43.315a3.528 3.528 0 0 1 7.056 0v4.431a3.528 3.528 0 0 1-7.056 0v-4.43z" fill="#F68B00"/><path fill-rule="evenodd" clip-rule="evenodd" d="M68.738 42.954a7.833 7.833 0 1 0-15.666 0v4.833a7.833 7.833 0 0 0 15.666 0v-4.833z" fill="#FFF1A2"/><path fill-rule="evenodd" clip-rule="evenodd" d="M62.738 43.315a3.528 3.528 0 0 0-7.055 0v4.431a3.528 3.528 0 0 0 7.055 0v-4.43z" fill="#F68B00"/><path d="M99.518 50.203a6.916 6.916 0 1 1-13.832 0 6.916 6.916 0 0 1 13.832 0zM16.525 50.203a6.916 6.916 0 1 1-13.832 0 6.916 6.916 0 0 1 13.832 0z" fill="#FFB100"/><path d="M13.691 57.618a3.333 3.333 0 1 1-6.666 0 3.333 3.333 0 0 1 6.666 0z" fill="#C86902"/><path fill-rule="evenodd" clip-rule="evenodd" d="M53.753 66.437s-.002 0 .309-1.318l-.31 1.318a1.417 1.417 0 0 1 .645-2.759l.004.001-.325 1.38.324-1.38h-.003.005l.04.009a8.904 8.904 0 0 0 .934.125c.64.051 1.5.057 2.406-.114 1.763-.331 3.678-1.302 4.629-4.042a1.417 1.417 0 1 1 2.676.93c-1.364 3.93-4.286 5.427-6.78 5.896-1.223.23-2.347.219-3.158.154a11.7 11.7 0 0 1-1.272-.173 5.129 5.129 0 0 1-.084-.018l-.026-.005-.01-.003h-.004zM51.692 59.285a3.328 3.328 0 0 0 3.333-3.323c0-1.835-3.333-6.176-3.333-6.176s-3.333 4.341-3.333 6.176a3.328 3.328 0 0 0 3.333 3.323z" fill="#F68B00"/><path fill-rule="evenodd" clip-rule="evenodd" d="M95.03 58.308c5.303 0 9.601 4.31 9.601 9.624v1.444H85.426v-1.444c0-5.313 4.3-9.624 9.603-9.624z" fill="#FF9600"/><path d="M84.776 67.748c5.662 0 10.252-4.518 10.252-10.09 0-5.573-4.59-10.091-10.252-10.091-5.664 0-10.254 4.518-10.254 10.09 0 5.573 4.59 10.091 10.254 10.091z" fill="#FF9600"/><path d="M113.746 67.585H77.289c-6.831 0-12.37 5.538-12.37 12.37v24.26c0 6.831 5.539 12.369 12.37 12.369h36.457c6.831 0 12.369-5.538 12.369-12.369v-24.26c0-6.832-5.538-12.37-12.369-12.37z" fill="#FFD900"/><path fill-rule="evenodd" clip-rule="evenodd" d="M86.527 69.126a7.674 7.674 0 0 1 7.674 7.674v4.668a7.674 7.674 0 1 1-15.347 0V76.8a7.674 7.674 0 0 1 7.673-7.674z" fill="#FFF1A2"/><path d="M85.203 77.421a2.767 2.767 0 0 0 2.775-3.674 3.445 3.445 0 0 1 4.115 3.38v4.328a3.445 3.445 0 0 1-6.89 0V77.42z" fill="#FF9600"/><path fill-rule="evenodd" clip-rule="evenodd" d="M104.594 69.126a7.674 7.674 0 0 0-7.674 7.673v4.668a7.674 7.674 0 0 0 15.348 0V76.8a7.674 7.674 0 0 0-7.674-7.673z" fill="#FFF1A2"/><path d="M99.518 77.42a2.766 2.766 0 0 0 2.781-3.674 3.445 3.445 0 0 1 4.109 3.381v4.328a3.445 3.445 0 0 1-6.89 0V77.42z" fill="#FF9600"/><path d="M82.923 99.58c5.995 0 10.855-4.86 10.855-10.854 0-5.995-4.86-10.855-10.855-10.855s-10.855 4.86-10.855 10.855 4.86 10.855 10.855 10.855zM107.951 99.731c5.995 0 10.855-4.86 10.855-10.855s-4.86-10.855-10.855-10.855-10.855 4.86-10.855 10.855 4.86 10.855 10.855 10.855z" fill="#FFD900"/><path fill-rule="evenodd" clip-rule="evenodd" d="M95.425 86.195a3.014 3.014 0 0 0 3.01-3.018c0-1.667-3.01-5.608-3.01-5.608s-3.01 3.941-3.01 5.608a3.014 3.014 0 0 0 3.01 3.017z" fill="#FFB100"/><path d="M95.668 103.952c8.033 0 13.936 0 13.936-17.716.065-1.075-.464-1.672-1.586-1.793-1.982-.212-2.174 2.85-12.5 2.85-10.327 0-11.233-3.52-13.437-2.85-.706.215-1.025.812-.957 1.793 0 17.716 6.512 17.716 14.544 17.716z" fill="#F68B00"/><path d="M108.276 97.41c-2.178 6.542-6.845 6.542-12.608 6.542-5.543 0-10.362 0-12.816-5.823a9.428 9.428 0 0 1 11.998-.678c.451.333.7.372.984.372h.011c.117.001.364.002.933-.434a9.43 9.43 0 0 1 11.498.02z" fill="#FFB100"/><path d="M109.443 90.888c.106-1.396.161-2.942.161-4.652.065-1.075-.464-1.672-1.586-1.793-.639-.068-1.092.203-1.758.603-1.4.84-3.744 2.247-10.743 2.247-6.517 0-9.282-1.403-10.99-2.269-.997-.505-1.633-.828-2.446-.58-.706.214-1.025.811-.957 1.792 0 1.696.06 3.23.175 4.617.3.087.618.133.947.133h26.383c.281 0 .553-.034.814-.098z" fill="#FFF1A2"/><path d="M73.384 68.215c-4.918 1.635-8.464 6.273-8.464 11.74v9.277h1.14a7.324 7.324 0 0 0 7.324-7.324V68.215zM126.115 89.232v-9.277c0-5.293-3.324-9.809-7.998-11.575v13.528a7.324 7.324 0 0 0 7.324 7.324h.674z" fill="#FF9600"/><path d="M127.661 97.044a5.452 5.452 0 1 0 0-10.905 5.452 5.452 0 0 0 0 10.905zM63.048 97.044a5.452 5.452 0 1 0 0-10.905 5.452 5.452 0 0 0 0 10.905z" fill="#FFD900"/><path d="M42.358 32.288a7.833 7.833 0 0 0-7.832 7.833v2.65c-.002.06-.003.122-.003.183V47H50.19v-3.38h.002v-3.5a7.833 7.833 0 0 0-7.833-7.832zM53.072 40.12a7.833 7.833 0 1 1 15.665 0v2.722l.001.112V47H53.072v-6.88z" fill="#FF9600"/><path d="M26.442 12.206c9.572 0 17.331 7.76 17.331 17.332v1.5c0 9.572-7.76 17.331-17.331 17.331-9.572 0-17.332-7.76-17.332-17.331v-1.5c0-9.572 7.76-17.332 17.332-17.332z" fill="#F68B00"/><path d="M88.577 40.167h-11.68a8.474 8.474 0 0 1-8.475-8.474v-4.716c8.864.382 16.46 5.656 20.155 13.19z" fill="#FF9600"/></svg>