<svg viewBox="0 0 135 124" version="1.1" xmlns="http://www.w3.org/2000/svg"><g stroke="none" stroke-width="1" fill="none" fill-rule="evenodd"><g fill="#1F5FB1"><path d="M28 11h79c9.389 0 17 7.611 17 17v79c0 9.389-7.611 17-17 17H28c-9.389 0-17-7.611-17-17V28c0-9.389 7.611-17 17-17z"/></g><g transform="translate(11 6)"><g transform="translate(4)"><path d="M1.9 0h46.2c1.05 0 1.9.85 1.9 1.9v61.2a1.9 1.9 0 0 1-1.9 1.9H1.9A1.9 1.9 0 0 1 0 63.1V1.9C0 .85.85 0 1.9 0z" fill="#1899D6"/><rect fill="#4B4B4B" x="4.231" y="5" width="41.538" height="59" rx="1.9"/></g><g fill="#FFC800" fill-rule="nonzero"><g><g><g><path d="M37.73 43.057c-6.744 1.418-13.459-2.707-15.256-9.416a13.05 13.05 0 0 1 2.069-11.104c.955-1.31-.395-3.055-1.9-2.458-7.289 2.896-11.3 10.845-9.248 18.503 2.227 8.313 10.752 13.253 19.042 11.031a15.438 15.438 0 0 0 6.746-3.81c1.167-1.126.133-3.08-1.454-2.746z"/></g></g></g></g><rect fill="#FFF" transform="rotate(45 41 17)" x="38" y="14" width="6" height="6" rx="1"/><rect fill="#FFD7D8" transform="rotate(45 30 11)" x="28" y="9" width="4" height="4" rx=".5"/><rect fill="#1899D6" x="0" y="61" width="51" height="10" rx=".95"/><path fill="#1899D6" d="M6 31h46v4H6z"/></g><path d="M107 124H28c-6.367 0-11.917-3.5-14.83-8.682h108.66C118.916 120.5 113.366 124 107 124z" fill="#1899D6"/><g><path d="M31.194 97h12.54a2 2 0 0 1 1.988 2.217l-1.66 15.21a1 1 0 0 1-.995.89H31.861a1 1 0 0 1-.994-.89l-1.66-15.21A2 2 0 0 1 31.193 97z" fill="#FAB046"/><path d="M28.13 97h18.668a1 1 0 0 1 .988 1.152l-.616 4a1 1 0 0 1-.989.848H28.747a1 1 0 0 1-.988-.848l-.617-4A1 1 0 0 1 28.13 97z" fill="#E7931B"/></g><path d="M28.143 84h-2.357a.786.786 0 0 0-.786.786v2.357A7.857 7.857 0 0 0 32.857 95h2.357a.786.786 0 0 0 .786-.786v-2.357A7.857 7.857 0 0 0 28.143 84zM45.857 84h2.357c.434 0 .786.352.786.786v2.357A7.857 7.857 0 0 1 41.143 95h-2.357a.786.786 0 0 1-.786-.786v-2.357A7.857 7.857 0 0 1 45.857 84z" fill="#A1E33F" fill-rule="nonzero"/><path d="M13.024 4H19a1 1 0 0 1 1 1v73.76a3 3 0 0 1-2.94 2.999l-8.748.175a3 3 0 0 1-3.05-3.236L11.03 5.842A2 2 0 0 1 13.024 4zM65.976 4H60a1 1 0 0 0-1 1v73.76a3 3 0 0 0 2.94 2.999l8.748.175a3 3 0 0 0 3.05-3.236L67.97 5.842A2 2 0 0 0 65.976 4z" fill="#47D7FF"/><path stroke="#33AFEA" stroke-width="2" stroke-linecap="round" stroke-linejoin="round" d="M11.5 74.5l2-34M67.5 74.5l-2-34"/><path d="M76.408 61.274H47.806a1 1 0 0 0-.847 1.53l10.318 16.478H89L77.239 61.717a1 1 0 0 0-.831-.443z" fill="#E7931B"/><g><g transform="rotate(16 -.795 329.762)"><path fill="#47D7FF" d="M13.068 25.047h5.227v19.166h-5.227z"/><rect fill="#23BEE9" x="8.712" y="63.38" width="13.068" height="5.445" rx=".871"/><rect fill="#47D7FF" x="11.661" y="0" width="8.015" height="7.623" rx="3.812"/><rect fill="#47D7FF" x="0" y="40.293" width="31.363" height="24.394" rx="9.583"/><rect fill="#8AFCFE" transform="rotate(90 11.435 46.283)" x="8.712" y="40.293" width="5.445" height="11.979" rx="2.723"/></g><path d="M92.485 19.477l23.339 5.388a1.742 1.742 0 0 1 1.347 1.602l1.541 28.073a1.742 1.742 0 0 1-2.131 1.794L78.01 47.429a1.742 1.742 0 0 1-1.13-2.546L90.57 20.326a1.742 1.742 0 0 1 1.914-.85z" fill="#FFF"/></g><g><g transform="translate(55.282 59.61)"><path d="M49.057.127h23.118a.983.983 0 0 1 .872 1.437l-8.691 16.713H37.808l9.53-17.139a1.966 1.966 0 0 1 1.72-1.01z" fill="#FAB046"/><path d="M24.197 17.698h40.312v36.38c0 1.086-.88 1.966-1.966 1.966H24.197V17.698z" fill="#E7931B"/><path d="M.599 17.698h37.363v38.346H2.565A1.966 1.966 0 0 1 .6 54.078v-36.38z" fill="#FAB046"/><rect fill="#CD7900" x="10.11" y="23.598" width="14.749" height="4.916" rx="2.458"/></g><path d="M73.504 94.35c.048.04.093.084.133.132l6.415 7.698a1.035 1.035 0 0 1-.795 1.698H77.5v4.577c0 .572-.463 1.035-1.035 1.035h-7.13a1.035 1.035 0 0 1-1.034-1.035l-.001-4.578h-1.875a1.035 1.035 0 0 1-.795-1.697l6.415-7.698a1.035 1.035 0 0 1 1.458-.133z" fill="#E7931B"/><path d="M105.362 104.982l2.471 1.482c.356.214.8.219 1.16.013l2.688-1.529a.575.575 0 0 1 .86.5v10.206h-8.05v-10.18a.575.575 0 0 1 .87-.492z" fill="#FFF"/></g><path d="M111.17 27.743a1.09 1.09 0 0 1 1.124.922l.012.118.896 20.324a1.089 1.089 0 0 1-2.164.215l-.012-.119-.896-20.324c-.026-.6.44-1.11 1.04-1.136zM94.345 24.636a1.089 1.089 0 0 1 1.965.933l-.051.107-9.715 17.875a1.089 1.089 0 0 1-1.965-.933l.051-.107 9.715-17.875zM103.382 26.463c.547.126.902.644.837 1.19l-.02.116-4.165 18.039a1.089 1.089 0 0 1-2.143-.373l.02-.117 4.165-18.039c.136-.586.72-.951 1.306-.816z" fill="#E5E5E5" fill-rule="nonzero"/></g></svg>