<svg xmlns="http://www.w3.org/2000/svg" viewBox="0 0 135 124"><defs><style>.cls-1{fill:#e5e5e5}.cls-2{fill:#bfbfbf}.cls-5{fill:#d1d1d1}</style></defs><g id="Layer_3" data-name="Layer 3"><rect class="cls-1" x="11" y="11" width="113" height="113" rx="17"/><path class="cls-2" d="M80.2 24.39V101a5.51 5.51 0 0 1-5.51 5.51H14.52a14.49 14.49 0 0 1-4.17-.6C4.08 104.07 0 98.09 0 91V24.39z"/><path class="cls-2" d="M80.2 5.51v76.62H0V15.52A15.52 15.52 0 0 1 10.35.89 15.3 15.3 0 0 1 15.52 0h59.17a5.51 5.51 0 0 1 5.51 5.51z"/><path d="M115.94 25.13v85.05a4.19 4.19 0 0 1-4.18 4.18H56.7a4.2 4.2 0 0 1-4.19-4.18V25.13A4.18 4.18 0 0 1 56.7 21h55.06a4.17 4.17 0 0 1 4.18 4.18z" fill="#f1f1f1"/><path class="cls-1" d="M89.35 47.84a10.32 10.32 0 0 1 1-.85l2.72-2.05 22.86-17.17v-2.64a4.17 4.17 0 0 0-.68-2.29L89 42.61 53.45 22.49a4.21 4.21 0 0 0-.94 2.64V27l32.94 18.63a15.75 15.75 0 0 0-4 10.42v23.29a15.71 15.71 0 0 0 4 10.42l-32.94 18.68v1.74a4.15 4.15 0 0 0 1 2.69L89 92.79l26.26 19.74a4.07 4.07 0 0 0 .73-2.35v-2.55L93.08 90.45l-2.72-2a10.41 10.41 0 0 1-1-.86 11.38 11.38 0 0 1-3.52-8.21V56.05a11.39 11.39 0 0 1 3.51-8.21z"/><path fill="#fff" d="M75.45 77.26v12.5H52.51v12.5H10.2v-25h65.25z"/><path class="cls-5" d="M10.35.89v74.32A16.74 16.74 0 0 0 0 90.68V15.52A15.52 15.52 0 0 1 10.35.89z"/><path d="M10.35 79v23.34a12.63 12.63 0 0 1 0-23.34z" fill="#a6a6a6"/><path class="cls-2" d="M15.22.14h59.47a5.51 5.51 0 0 1 5.51 5.5v68.11a5.51 5.51 0 0 1-5.51 5.51H6.45V8.91A8.77 8.77 0 0 1 15.22.14z"/><rect class="cls-5" x="15.32" y="9.9" width="55.25" height="12.59" rx="6.29"/><path class="cls-5" d="M24.57 94.4h6.25v20.38a3.12 3.12 0 0 1-3.12 3.12 3.12 3.12 0 0 1-3.12-3.12V94.4h-.01z"/></g></svg>