<svg viewBox="0 0 135 124" version="1.1" xmlns="http://www.w3.org/2000/svg"><g stroke="none" stroke-width="1" fill="none" fill-rule="evenodd"><path d="M28 11h79c9.389 0 17 7.611 17 17v79c0 9.389-7.611 17-17 17H28c-9.389 0-17-7.611-17-17V28c0-9.389 7.611-17 17-17z" fill="#BCF2FE"/><g transform="translate(1.293 -11)"><path d="M122.06 122.658a16.874 16.874 0 0 1-1.407 3.449l.098-.182-.153.282a17.016 17.016 0 0 1-1.799 2.637l.063-.075-.177.211.114-.136c-.079.096-.159.19-.24.284l.126-.148a17.115 17.115 0 0 1-1.762 1.794l.082-.07-.204.178a16.999 16.999 0 0 1-4.295 2.704l.055-.024-.26.112.205-.088-.354.15.148-.062-.3.123.152-.061c-.09.037-.18.073-.272.108l.12-.047c-.12.048-.24.094-.36.14l.24-.093a16.939 16.939 0 0 1-.984.349 16.94 16.94 0 0 1-.711.211l.14-.039a16.87 16.87 0 0 1-.352.095l.212-.056c-.105.029-.21.056-.316.083l.104-.027a16.88 16.88 0 0 1-.318.08l.214-.053-.306.074.092-.022-.33.075.238-.053a17.04 17.04 0 0 1-1.663.3l.16-.023c-.108.015-.217.03-.325.042l.166-.02-.319.038.153-.018c-.118.014-.236.027-.355.039l.202-.021-.36.036.158-.015c-.095.009-.19.018-.286.025l.127-.01c-.111.01-.223.018-.336.026l.209-.016a17.323 17.323 0 0 1-1.03.052l-.357.004h-79c-7.774 0-14.329-5.218-16.354-12.342H122.06z" fill="#B2B2B2"/><path d="M122.06 122.658a16.874 16.874 0 0 1-1.407 3.449l.098-.182-.153.282a17.016 17.016 0 0 1-1.799 2.637l.063-.075-.177.211.114-.136c-.079.096-.159.19-.24.284l.126-.148a17.115 17.115 0 0 1-1.762 1.794l.082-.07-.204.178a16.999 16.999 0 0 1-4.295 2.704l.055-.024-.26.112.205-.088-.354.15.148-.062-.3.123.152-.061c-.09.037-.18.073-.272.108l.12-.047c-.12.048-.24.094-.36.14l.24-.093a16.939 16.939 0 0 1-.984.349 16.94 16.94 0 0 1-.711.211l.14-.039a16.87 16.87 0 0 1-.352.095l.212-.056c-.105.029-.21.056-.316.083l.104-.027a16.88 16.88 0 0 1-.318.08l.214-.053-.306.074.092-.022-.33.075.238-.053a17.04 17.04 0 0 1-1.663.3l.16-.023c-.108.015-.217.03-.325.042l.166-.02-.319.038.153-.018c-.118.014-.236.027-.355.039l.202-.021-.36.036.158-.015c-.095.009-.19.018-.286.025l.127-.01c-.111.01-.223.018-.336.026l.209-.016a17.323 17.323 0 0 1-1.03.052l-.357.004h-79c-7.774 0-14.329-5.218-16.354-12.342H122.06z" fill="#78C800"/><path d="M52.972 19.492l20.552 14.144a7 7 0 0 1-.469 11.829L53.387 56.82a6 6 0 0 1-8.976-4.655L42.032 25.89a7 7 0 0 1 10.94-6.397z" stroke="#FF99D7" stroke-width="7" fill="#FF5BBF"/><rect fill="#F89700" x="64.707" y="75" width="33" height="24" rx="12"/><rect fill="#E27903" x="70.707" y="80" width="8" height="14" rx="4"/><rect fill="#E27903" x="83.707" y="80" width="8" height="14" rx="4"/><rect fill="#FFC4E8" x="42.528" y="32" width="76.358" height="93" rx="38.179"/><path d="M3.587 85.123l.893.408c1.894.89 3.696 1.91 5.402 3.044v-.03c9.18 6.173 15.736 15.505 18.282 26.242l2.095.042c8.985.2 16.77.622 23.354 1.267l-2.807-4.907-.049-.098c-.29-.69.466-1.4 1.409-1.32l.13.015.962.154.765.135c1.48.272 2.928.604 4.34.993l.843.24-.007-.022.557.17a31.749 31.749 0 0 1 10.996 5.952l-1.311-7.324c.016-1.053 1.251-1.636 2.112-.998l.792.587 1.024.698c4.773 3.27 9.426 6.765 12.047 10.849 2.764-12.02 10.57-22.378 21.598-28.502l.64-.349.872-.453c.899-.468 1.96.201 1.946 1.16l-.013.162-1.986 14.224c4.017-8.988 11.12-16.416 20.22-20.894l.619-.299.86-.395c.89-.409 1.877.293 1.807 1.22l-.02.149-4.942 25.377-.09.43c-.403 1.796-1.304 4.534-2.705 8.214a24.666 24.666 0 0 1-6.975 9.023 16.938 16.938 0 0 1-11.496 4.476H26.707c-6.288 0-11.779-3.414-14.72-8.49l-.008.006a43.287 43.287 0 0 1-5.116-13.534L1.731 86.537c-.202-1.032.883-1.858 1.856-1.414z" fill="#78C800" fill-rule="nonzero"/><path d="M26.535 57.372l3.553 8.369a14.398 14.398 0 0 0 10.421 8.49c3.113.625 5.304 2.433 6.574 5.424l13.864 32.662c1.498 3.529-.2 7.626-3.792 9.151l-22.407 9.511c-3.592 1.525-7.72-.1-9.217-3.629L11.666 94.688c-1.269-2.99-1.047-5.823.666-8.496a14.398 14.398 0 0 0 1.132-13.395L9.91 64.428l16.624-7.056z" fill="#47D7FF"/><rect fill="#1CB0F6" transform="rotate(-23 17.842 61.316)" x="6.3" y="59.178" width="23.085" height="4.275" rx="2.137"/><rect fill="#2B70C9" transform="rotate(-23 16.233 56.797)" x="4.69" y="53.804" width="23.085" height="5.985" rx="1.6"/><rect fill="#FFF" transform="rotate(-23 35.663 102.478)" x="20.701" y="81.103" width="29.925" height="42.75" rx="3.999"/><path fill="#2B70C9" d="M12.322 96.217l35.416-15.033 12.36 29.12-35.416 15.033z"/><rect fill="#C4F2FF" transform="rotate(-23 19.311 71.979)" x="16.746" y="65.994" width="5.13" height="11.97" rx="1.6"/><rect fill="#FFF" transform="rotate(-23 38.772 108.297)" x="30.272" y="103.595" width="17" height="9.405" rx="3.999"/><path d="M31.814 94.277l1.364-.578a4 4 0 0 1 5.244 2.118l1.909 4.497a.8.8 0 0 1-.424 1.049l-7.254 3.08a.8.8 0 0 1-1.049-.424l-1.909-4.497a4 4 0 0 1 2.119-5.245z" fill="#FFF"/><rect fill="#FFF" transform="rotate(-23 29.798 96.506)" x="28.943" y="92.658" width="1.71" height="7.695" rx=".855"/><rect fill="#FFF" transform="rotate(-23 36.242 93.77)" x="35.387" y="89.923" width="1.71" height="7.695" rx=".855"/><path d="M29.363 96.965l-1.675.235a3.947 3.947 0 0 0-3.36 4.458l.236 1.675a.564.564 0 0 0 .637.48l1.675-.235a3.947 3.947 0 0 0 3.36-4.458L30 97.445a.564.564 0 0 0-.637-.48zM36.789 93.813l1.333-1.041a3.947 3.947 0 0 1 5.54.68l1.041 1.333c.192.245.148.6-.097.791l-1.333 1.042a3.947 3.947 0 0 1-5.54-.68l-1.042-1.334a.564.564 0 0 1 .098-.791z" fill="#FFF" fill-rule="nonzero"/><rect fill="#2B70C9" transform="rotate(-23 33.432 99.892)" x="32.577" y="98.182" width="1.71" height="3.42" rx=".855"/><rect fill="#2B70C9" transform="rotate(-23 36.194 98.72)" x="35.339" y="97.01" width="1.71" height="3.42" rx=".855"/><rect fill="#FFF" x="83.707" y="58" width="20" height="26" rx="9.8"/><rect fill="#FFF" x="58.707" y="58" width="20" height="26" rx="9.8"/><rect fill="#4B4B4B" x="65.707" y="62" width="10" height="16" rx="5"/><rect fill="#4B4B4B" x="86.707" y="62" width="10" height="16" rx="5"/><path d="M112.563 75.974c-8.609-4.97-19.618-2.021-24.588 6.588l15.588 9 9-15.588zM49.707 75.974c8.61-4.97 19.618-2.021 24.588 6.588l-15.588 9-9-15.588z" fill="#FFC4E8"/><rect fill="#FF99D7" x="64.707" y="75" width="33" height="24" rx="12"/><rect fill="#FF5BBF" x="70.707" y="80" width="8" height="14" rx="4"/><rect fill="#FF5BBF" x="83.707" y="80" width="8" height="14" rx="4"/><path d="M107.657 33.95l17.1 17.1a7 7 0 0 1-4.95 11.95h-18.1a6 6 0 0 1-6-6V38.9a7 7 0 0 1 11.95-4.95z" fill="#FF99D7"/></g><rect fill="#1899D6" transform="rotate(-23 14.565 47.028)" x="12" y="45.028" width="5.13" height="4" rx="1.6"/></g></svg>