<svg viewBox="0 0 135 125" fill="none" xmlns="http://www.w3.org/2000/svg"><path d="M107 11.896H28c-9.389 0-17 7.611-17 17v79c0 9.389 7.611 17 17 17h79c9.389 0 17-7.611 17-17v-79c0-9.389-7.611-17-17-17z" fill="#E5E5E5"/><path d="M112.185 124.12L110.89 4.3c-.027-2.413-3.511-2.724-3.965-.354L83.788 124.863h6.109l15.436-80.671.858 80.671h1.01c1.734 0 3.407-.26 4.984-.743z" fill="#BFBFBF"/><path d="M81.47 12.495a4 4 0 0 1 4.34-3.63l44.136 3.938a4 4 0 0 1 3.629 4.34l-5.664 63.495-48.12-4.292a4 4 0 0 1-3.63-4.34l5.309-59.511z" fill="#E5E5E5"/><path d="M76.345 12.037a4 4 0 0 1 4.34-3.629l44.136 3.938a4 4 0 0 1 3.629 4.34l-5.664 63.495-52.105-4.648 5.664-63.496z" fill="#fff"/><path d="M67.036 76.67a2.573 2.573 0 0 1 2.79-2.334l58.512 5.22a2.573 2.573 0 1 1-.457 5.125L69.37 79.46a2.573 2.573 0 0 1-2.334-2.791zm34.943-25.318c.114-1.46-1.312-2.581-2.772-2.467a9.163 9.163 0 0 1-.052.004c-1.102.082-2.068.889-2.155 1.99a4 4 0 1 1-7.975-.625l.219-2.794c.096-1.227-.408-2.407-1.182-3.364a12.955 12.955 0 0 1-2.85-9.188c.562-7.157 6.82-12.505 13.977-11.944 7.158.562 12.505 6.819 11.944 13.977l-2.071 26.419c-.173 2.202-1.903 1.355-4.105 1.182-2.203-.172-3.965-.602-3.793-2.805l.815-10.385z" fill="#BFBFBF"/><path d="M22.127 77.146c.082-.66.615-1.156 1.225-1.422a4.014 4.014 0 1 0-5.071-1.66c.104.18.135.391.11.597l-.247 1.991a2.007 2.007 0 0 0 3.983.494z" fill="#78C800"/><path fill-rule="evenodd" clip-rule="evenodd" d="M36.58 27.848c7.135.008 8.263-1.154 9.938 5.46l-.02-.05c1.185 3.236 3.786 4.732 7.724 4.797l.253.002c.07 0 .137.002.203.004l.12-.003.223-.002c6.503.008 11.768 5.265 11.76 11.743-.007 6.477-5.284 11.723-11.787 11.715a11.757 11.757 0 0 1-8.034-3.168l-.002 1.41c-.01 8.356-6.723 15.138-15.046 15.263l-.37.002c-7.99-.01-14.541-6.15-15.208-13.966-4.99-1.365-8.655-5.92-8.649-11.324.007-5.384 3.653-9.916 8.617-11.29l.002-1.388c.01-8.356 14.51-1.855 22.834-1.98l-2.558-7.225z" fill="#B2B2B2"/><path d="M63 66.05c.017-14.428-11.601-26.137-25.949-26.154-14.347-.017-25.991 8.742-26.008 23.17L11 103.896c20.741-.152 42.374-.294 51.957-.309L63 66.05z" fill="#D1D1D1"/><path d="M67.43 59.498a4.286 4.286 0 1 1-8.572-.01 4.286 4.286 0 0 1 8.571.01z" fill="#D1D1D1"/><path fill-rule="evenodd" clip-rule="evenodd" d="M11.252 84.712l52.104.06-.018 15.563-52.104-.059.018-15.564z" fill="#BFBFBF"/><path fill-rule="evenodd" clip-rule="evenodd" d="M41.516 93.205l7.397-8.675-14.774-.017 7.377 8.692z" fill="#D1D1D1"/><path fill-rule="evenodd" clip-rule="evenodd" d="M42.636 53.284a5.318 5.318 0 0 1 10.635.012l-.004 3.234a5.318 5.318 0 0 1-10.635-.012l.004-3.234zm-13.193.258a5.318 5.318 0 0 1 10.635.012l-.004 3.235a5.318 5.318 0 0 1-10.635-.012l.004-3.235z" fill="#fff"/><path fill-rule="evenodd" clip-rule="evenodd" d="M35.791 54.32a2.387 2.387 0 1 1 4.77.21l-.132 2.997a2.387 2.387 0 1 1-4.77-.21l.132-2.997z" fill="#B2B2B2"/><path d="M47.295 39.991c2.985.127 5.416.805 7.271 2.147 1.461 1.058 1.806 3.146.77 4.663-1.004 1.472-2.938 1.868-4.386.926l-.135-.092c-.714-.517-1.986-.871-3.839-.95-1.788-.076-3.167-1.636-3.08-3.484.086-1.796 1.525-3.203 3.247-3.213l.152.003z" fill="#B2B2B2"/><path fill-rule="evenodd" clip-rule="evenodd" d="M12.42 55.582l1.018.864 8.76-11.645-.828-1.954-8.95 12.735z" fill="#3D3D3D"/><path d="M42.227 47.495l-14.278-1.77-.595 7.985 13.616 1.393 1.257-7.608z" fill="#D1D1D1"/><path d="M33.383 73.781a6.992 6.992 0 1 1-3.468-13.548l5.9-1.51a6.987 6.987 0 0 1 6.476 1.634 6.995 6.995 0 0 1 7.982 2.137l3.816 4.746a6.992 6.992 0 0 1-10.897 8.764l-.342-.426a7 7 0 0 0-7.23-2.383l-2.237.586z" fill="#B2B2B2"/><path d="M45.822 60.774a3.383 3.383 0 1 1-6.767-.008 3.383 3.383 0 0 1 6.767.008z" fill="#D1D1D1"/><path fill-rule="evenodd" clip-rule="evenodd" d="M29.585 48.47l10.093 1.251a3.212 3.212 0 0 1-.79 6.375l-10.093-1.251a3.212 3.212 0 1 1 .79-6.375z" fill="#B2B2B2"/><path d="M30.655 73.93a6.972 6.972 0 0 0 2.727-.149l2.222-.583a7.016 7.016 0 0 1 3.395-.041l-.673-3.466a4.17 4.17 0 1 0-8.185 1.59l.514 2.65z" fill="#E5E5E5"/><path fill-rule="evenodd" clip-rule="evenodd" d="M83.395 57.706a2.374 2.374 0 0 1 2.162 2.568l-.2 2.324a2.374 2.374 0 1 1-4.73-.406l.2-2.323a2.374 2.374 0 0 1 2.568-2.163zm-.375 10.582a5.337 5.337 0 0 1-2.991 6.93l-3.918 1.555a5.337 5.337 0 1 1-3.939-9.92l3.918-1.556a5.337 5.337 0 0 1 6.93 2.991z" fill="#D1D1D1"/><path fill-rule="evenodd" clip-rule="evenodd" d="M79.575 89.974a5.447 5.447 0 0 1-5.498 5.604l-13.259-.129a5.447 5.447 0 0 1 .106-10.893l13.26.129a5.447 5.447 0 0 1 5.39 5.289z" fill="#BFBFBF"/><path fill-rule="evenodd" clip-rule="evenodd" d="M70.084 70.13a2.374 2.374 0 0 1-.563-3.31l2.953-4.164a2.374 2.374 0 1 1 3.873 2.747l-2.954 4.163a2.374 2.374 0 0 1-3.31.563z" fill="#D1D1D1"/><path d="M79.794 90.966L84 69.251l-3.897-.566a7.44 7.44 0 0 0-8.381 5.992l-2.67 14.243a5.467 5.467 0 0 0 10.742 2.046z" fill="#D1D1D1"/><path d="M82.867 69.74c-8.689 1.025-23.05 1.292-23.255-.446-.205-1.738 13.824-4.822 22.513-5.847 8.688-1.026 8.747.396 8.952 2.133.205 1.738.48 3.134-8.21 4.16z" fill="#BFBFBF"/><path fill-rule="evenodd" clip-rule="evenodd" d="M77.454 60.713a2.374 2.374 0 0 1 3.33.43l1.424 1.846a2.374 2.374 0 0 1-3.76 2.9l-1.424-1.846a2.374 2.374 0 0 1 .43-3.33zm-.436 8.021a2.374 2.374 0 0 1-1.276 3.105l-2.153.898a2.374 2.374 0 0 1-1.829-4.382l2.153-.898c1.21-.505 2.6.067 3.105 1.277z" fill="#D1D1D1"/><path fill-rule="evenodd" clip-rule="evenodd" d="M78.29 66.868a2.374 2.374 0 0 1-3.328.447L73.108 65.9a2.374 2.374 0 0 1 2.88-3.775l1.854 1.415a2.374 2.374 0 0 1 .447 3.328z" fill="#D1D1D1"/><path d="M81.433 82.508l-1.639 8.458a5.467 5.467 0 0 1-10.741-2.046l1.43-7.637 10.95 1.225z" fill="#BFBFBF"/><path d="M97.963 70.533c-3.432.406-6.509-1.761-6.872-4.839-.363-3.078 2.125-5.901 5.557-6.306 3.432-.405 11.91 1.124 12.273 4.202.363 3.078-7.525 6.538-10.958 6.943zm-78.795.804c.082-.66.615-1.156 1.224-1.422a4.014 4.014 0 1 0-5.071-1.66c.105.18.136.391.11.597l-.246 1.991a2.007 2.007 0 0 0 3.983.494zm37.718 10.9a5.017 5.017 0 0 1 4.362 5.596l-.802 6.473a2.509 2.509 0 0 1-2.798 2.181l-.498-.061a2.007 2.007 0 0 1-1.745-2.24l.146-1.18c.056-.448-.28-.852-.713-.98-.565-.167-1.208.162-1.28.746l-.027.216a.959.959 0 0 1-1.07.834l-.541-.067a1.505 1.505 0 0 1-1.31-1.679l.68-5.477a5.017 5.017 0 0 1 5.596-4.362z" fill="#B2B2B2"/><path fill-rule="evenodd" clip-rule="evenodd" d="M16.17 39.816a6.372 6.372 0 0 1 6.364 6.379l-.008 7.443a6.372 6.372 0 1 1-12.744-.014l.008-7.444a6.372 6.372 0 0 1 6.38-6.364z" fill="#B2B2B2"/><path d="M30.818 16.997a1.514 1.514 0 0 1 1.71 1.29l1.463 10.5a1.514 1.514 0 0 1-3 .418l-1.463-10.5a1.514 1.514 0 0 1 1.29-1.708z" fill="#BFBFBF"/><path d="M14.197 59.437a4.286 4.286 0 1 1-8.57-.01 4.286 4.286 0 0 1 8.57.01z" fill="#D1D1D1"/><path d="M58.43 50.611a5.017 5.017 0 0 0 3.922 8.01 25.953 25.953 0 0 0-3.922-8.01zm-31.5-8.215c-.638.222-.85 1.007-.352 1.461a8.43 8.43 0 0 0 13.497-3.063c.16-.395-.152-.804-.579-.786-4.33.174-8.56.994-12.567 2.388z" fill="#B2B2B2"/><path d="M50.171 40.712L9.018 46.448a4.103 4.103 0 0 1-2.905-7.434l20.348-14.118a13 13 0 0 1 11.17-1.763l13.586 4.103c3.971 1.2 6.002 5.6 4.336 9.4a6.92 6.92 0 0 1-5.382 4.076z" fill="#BFBFBF"/><path d="M64.76 26.866c-.207 1.676-1.948 4.766-3.598 4.562-1.65-.205-2.584-3.626-2.376-5.302.207-1.677 1.713-2.87 3.363-2.665 1.65.205 2.82 1.729 2.612 3.405zm3.856 8.976c-1.262.534-4.139.564-4.664-.678-.526-1.242 1.499-3.287 2.76-3.82 1.263-.535 2.712.04 3.237 1.282.526 1.242-.07 2.682-1.333 3.216z" fill="#fff"/><path d="M56.623 124.863H28.2c-9.389 0-17-7.612-17-17v-7.455l52.1.059-.008 7.018a25.958 25.958 0 0 1-6.669 17.378z" fill="#D1D1D1"/><path fill-rule="evenodd" clip-rule="evenodd" d="M11.236 100.26l52.104.06-.007 5.864-52.104-.06.007-5.864z" fill="#B2B2B2"/><path fill-rule="evenodd" clip-rule="evenodd" d="M24.537 100.275l3.722.004-.01 8.572-3.721-.005.01-8.571z" fill="#2BE69C"/><path fill-rule="evenodd" clip-rule="evenodd" d="M54.422 100.31l3.721.004-.01 8.571-3.721-.004.01-8.571z" fill="#D1D1D1"/><path d="M42.684 106.174c-5.24 9.076-18.023 11.506-28.551 5.427-10.529-6.078-14.816-18.363-9.575-27.44 5.24-9.075 18.022-11.505 28.55-5.427 10.529 6.079 14.816 18.364 9.576 27.44z" fill="#E5E5E5"/><path d="M17.548 88.337a4.554 4.554 0 1 1-9.108 0 4.554 4.554 0 0 1 9.108 0zm10.627-5.314a4.554 4.554 0 1 1-9.109 0 4.554 4.554 0 0 1 9.109 0zm9.867 6.832a4.554 4.554 0 1 1-9.108 0 4.554 4.554 0 0 1 9.108 0zm3.795 11.385a4.554 4.554 0 1 1-9.108 0 4.554 4.554 0 0 1 9.108 0zm-10.659 4.042a4.554 4.554 0 1 1-9.109.001 4.554 4.554 0 0 1 9.11-.001z" fill="#B2B2B2"/><path fill-rule="evenodd" clip-rule="evenodd" d="M47.368 54.419a2.387 2.387 0 1 1 4.775.006l-.004 2.998a2.387 2.387 0 0 1-4.775-.006l.004-2.998z" fill="#B2B2B2"/><path d="M49.945 53.687a2.285 2.285 0 1 1-4.47-.95 2.285 2.285 0 0 1 4.47.95z" fill="#fff"/></svg>