<svg viewBox="0 0 136 125" fill="none" xmlns="http://www.w3.org/2000/svg"><g clip-path="url(#clip0_302_3267)"><path d="M107.042 11.918h-79c-9.39 0-17 7.61-17 17v79c0 9.389 7.61 17 17 17h79c9.388 0 17-7.611 17-17v-79c0-9.39-7.612-17-17-17z" fill="#FFCA00"/><path d="M122.47 21.838L20.95 123.358a16.937 16.937 0 0 0 7.08 1.56h41.32l54.68-54.68v-41.32a16.938 16.938 0 0 0-1.56-7.08zm-72.12 48.14l58-58c-.43 0-.87-.07-1.31-.07H58.45l-33.08 33.09c-6.904 6.904-6.904 18.096 0 25s18.097 6.904 25 0l-.02-.02z" fill="#FFD900"/><path fill-rule="evenodd" clip-rule="evenodd" d="M58.215 73.147a4.856 4.856 0 0 1 4.856-4.856h19.31a4.856 4.856 0 0 1 4.856 4.856v10.977a4.856 4.856 0 0 1-4.856 4.856H63.07a4.856 4.856 0 0 1-4.856-4.856V73.147zm5.23.373v10.23h18.562V73.52H63.445z" fill="#E27903"/><path d="M24.299 82.858a2.989 2.989 0 0 1 2.988-2.989h67.989a2.989 2.989 0 0 1 2.988 2.989v28.764a2.989 2.989 0 0 1-2.988 2.989H27.287a2.989 2.989 0 0 1-2.988-2.989V82.858z" fill="#E27903"/><path d="M38.867 82.858a2.989 2.989 0 0 1 2.989-2.989h71.588a2.988 2.988 0 0 1 2.988 2.989v28.764a2.989 2.989 0 0 1-2.988 2.989H41.856a2.989 2.989 0 0 1-2.989-2.989V82.858z" fill="#F68B00"/><path d="M62.74 97.44a9.525 9.525 0 0 1-9.526 9.526 9.525 9.525 0 0 1-9.526-9.525 9.526 9.526 0 1 1 19.052 0z" fill="#E27903"/><path fill-rule="evenodd" clip-rule="evenodd" d="M64.981 97.44c0 6.499-5.268 11.768-11.767 11.768-6.5 0-11.767-5.269-11.767-11.767 0-6.5 5.268-11.768 11.767-11.768S64.98 90.942 64.98 97.441zm-11.767 9.526a9.526 9.526 0 1 0 0-19.05 9.526 9.526 0 0 0 0 19.05z" fill="#FFB100"/><path fill-rule="evenodd" clip-rule="evenodd" d="M45.421 89.648a1.12 1.12 0 0 1 1.585 0l14 13.999a1.12 1.12 0 0 1-1.585 1.585l-14-14a1.12 1.12 0 0 1 0-1.584zM49.483 86.511a1.12 1.12 0 0 1 1.585 0l13.075 13.076a1.121 1.121 0 0 1-1.584 1.585L49.483 88.096a1.12 1.12 0 0 1 0-1.585zM42.285 93.71a1.12 1.12 0 0 1 1.585 0l13.075 13.075a1.12 1.12 0 0 1-1.585 1.585L42.285 95.295a1.12 1.12 0 0 1 0-1.585z" fill="#FFB100"/><path d="M101.922 87.915a9.526 9.526 0 1 1 0 19.052 9.526 9.526 0 0 1 0-19.052z" fill="#E27903"/><path fill-rule="evenodd" clip-rule="evenodd" d="M101.922 85.674c6.499 0 11.767 5.268 11.767 11.767s-5.268 11.767-11.767 11.767c-6.5 0-11.767-5.268-11.767-11.767 0-6.5 5.268-11.767 11.767-11.767zm9.526 11.767a9.526 9.526 0 0 0-9.526-9.526 9.526 9.526 0 0 0-9.526 9.526 9.526 9.526 0 1 0 19.052 0z" fill="#FFB100"/><path fill-rule="evenodd" clip-rule="evenodd" d="M94.129 105.234a1.12 1.12 0 0 1 0-1.585l13.999-14a1.12 1.12 0 0 1 1.585 1.585l-14 14a1.12 1.12 0 0 1-1.584 0zM90.993 101.172a1.121 1.121 0 0 1 0-1.585l13.075-13.076a1.12 1.12 0 0 1 1.585 1.585l-13.075 13.076a1.122 1.122 0 0 1-1.585 0zM98.191 108.37a1.12 1.12 0 0 1 0-1.585l13.075-13.076a1.12 1.12 0 0 1 1.585 1.585L99.776 108.37a1.122 1.122 0 0 1-1.585 0z" fill="#FFB100"/><path d="M69.166 94.28a2.241 2.241 0 0 1 2.242-2.24h12.711a2.241 2.241 0 0 1 2.241 2.24v6.69a2.241 2.241 0 0 1-2.241 2.241H71.408a2.241 2.241 0 0 1-2.242-2.241v-6.69z" fill="#FFD900"/><path fill-rule="evenodd" clip-rule="evenodd" d="M71.408 89.798h12.711a4.483 4.483 0 0 1 4.483 4.483v6.689a4.483 4.483 0 0 1-4.483 4.483H71.408a4.483 4.483 0 0 1-4.483-4.483v-6.69a4.483 4.483 0 0 1 4.483-4.482zm0 2.241a2.241 2.241 0 0 0-2.242 2.242v6.689a2.241 2.241 0 0 0 2.242 2.241h12.711a2.241 2.241 0 0 0 2.241-2.241v-6.69a2.241 2.241 0 0 0-2.241-2.24H71.408z" fill="#FFB100"/><path d="M81.784 103.211h2.335a2.241 2.241 0 0 0 2.242-2.241v-6.69a2.242 2.242 0 0 0-2.242-2.24h-2.335a2.242 2.242 0 0 1 2.242 2.24v6.69a2.241 2.241 0 0 1-2.242 2.241z" fill="#F68B00"/><path d="M75.026 97.625a1.927 1.927 0 1 1-3.854 0 1.927 1.927 0 0 1 3.854 0zM81.223 97.625a1.927 1.927 0 1 1-3.854 0 1.927 1.927 0 0 1 3.854 0z" fill="#E27903"/><path fill-rule="evenodd" clip-rule="evenodd" d="M94.657 66.92l-2.311 3.778a1.107 1.107 0 0 0 .366 1.522l3.778 2.311c.522.32 1.204.155 1.523-.366l2.311-3.778a1.107 1.107 0 0 0-.366-1.523l-3.778-2.311a1.107 1.107 0 0 0-1.523.367zM59.563 36.96l-1.667 2.725a.798.798 0 0 0 .265 1.098l2.724 1.666a.798.798 0 0 0 1.098-.264l1.666-2.724a.798.798 0 0 0-.264-1.098l-2.724-1.667a.798.798 0 0 0-1.098.265zM70.555 27.938l-1.184 1.935a.567.567 0 0 0 .188.78l1.936 1.184c.267.163.616.08.78-.188l1.183-1.935a.567.567 0 0 0-.188-.78l-1.935-1.184a.567.567 0 0 0-.78.188zM35.796 64.61l-1.872 3.06a.897.897 0 0 0 .297 1.232l3.06 1.872a.897.897 0 0 0 1.233-.297l1.871-3.06a.897.897 0 0 0-.297-1.232l-3.059-1.872a.897.897 0 0 0-1.233.297z" fill="#FFBB31"/><path fill-rule="evenodd" clip-rule="evenodd" d="M91.441 20.889l-2.311 3.778a1.107 1.107 0 0 0 .366 1.522l3.778 2.311c.522.32 1.204.155 1.523-.366l2.311-3.778a1.107 1.107 0 0 0-.367-1.523l-3.778-2.311a1.107 1.107 0 0 0-1.522.367z" fill="#ADE756"/><path d="M10.458 22.5C13.09 13.41 21.926 7.567 31.323 8.703 40.72 9.84 47.908 17.62 48.297 27.077l1.272 30.906a1.31 1.31 0 0 1-1.467 1.355l-45.146-5.46a1.31 1.31 0 0 1-1.101-1.666l8.603-29.711z" fill="#F68B00"/><rect x="21.673" y="48.467" width="9.612" height="7.619" rx=".5" transform="rotate(6.896 21.673 48.467)" fill="#E27903"/><path d="M12.218 24.759a11.347 11.347 0 0 1 12.241-9.161c.466 5.17 4.487 9.491 9.847 10.14l13.422 1.623a3.798 3.798 0 0 1-.718 7.56l-.539 10.438a5.674 5.674 0 0 1-6.347 5.34L14.03 47.543a5.673 5.673 0 0 1-4.891-6.7l3.078-16.084z" fill="#FFBB31"/><path d="M39.858 28.577l-9.975 1.33c-.31.566-.52 1.2-.601 1.88l-.403 3.328-.01.09 9.93-.028c.228-.49.384-1.022.453-1.588l.606-5.012zM23.25 25.792a5.226 5.226 0 0 1 4.56 5.816l-.402 3.33c-.005.04-.01.079-.017.118l-9.625-2.392a5.22 5.22 0 0 1-.068-1.681l.62-5.129a.653.653 0 0 1 .727-.57l4.205.508z" fill="#fff"/><path d="M35.008 31.126l-.113.93a2.27 2.27 0 0 0 4.344 1.161c.153-.359-.048-.748-.38-.952l-1.359-.837-2.492-.302zM23.458 29.734l-.113.93a2.27 2.27 0 0 0 4.398 1.023c.102-.293-.02-.606-.24-.823l-.742-.73-3.303-.4z" fill="#E27903"/><path d="M27.784 31.829l-10.041-1.215.576-4.76a.653.653 0 0 1 .727-.57l4.204.508a5.226 5.226 0 0 1 4.56 5.816l-.026.22zM39.296 33.221l-10.041-1.214.027-.22c.082-.68.291-1.314.6-1.88l9.976-1.33-.562 4.644z" fill="#F68B00"/><path d="M28.152 34.92c.093.011.756 1.414 1.427 2.882.667 1.461-.53 3.077-2.124 2.884-1.595-.193-2.372-2.047-1.375-3.307 1-1.266 1.98-2.47 2.072-2.459z" fill="#E27903"/><path d="M20.216 52.128l4.631-38.287-1.957-.236a10.153 10.153 0 0 0-10.995 7.337l-8.19 29.19 16.511 1.996z" fill="#F68B00"/><path fill-rule="evenodd" clip-rule="evenodd" d="M29.954 42.744c.992.096 1.648.61 1.91 1.194a.653.653 0 1 1-1.19.536c-.044-.097-.25-.372-.846-.43-.607-.058-1.623.118-3.163 1.012a.653.653 0 1 1-.656-1.13c1.669-.97 2.964-1.277 3.945-1.182z" fill="#E27903"/><path d="M116.54 13.42h-.001a6.187 6.187 0 0 0-7.542-4.245L80.839 16.72a6.187 6.187 0 0 0-4.408 7.448h-.001l7.376 27.53a2.141 2.141 0 0 1-1.514 2.622l-4.06 1.088a.892.892 0 0 0-.631 1.093 8.727 8.727 0 0 0 10.688 6.17l37.233-9.976a8.726 8.726 0 0 0 6.17-10.688.891.891 0 0 0-1.092-.631l-4.061 1.088a2.14 2.14 0 0 1-2.622-1.514l-7.377-27.53z" fill="#FFB100"/><path d="M113.733 15.011l-34.077 9.131 9.111 34.005 34.078-9.131-9.112-34.005z" fill="#FFBB31"/><path d="M119.454 29.86a3.893 3.893 0 1 1-2.015-7.52 3.893 3.893 0 0 1 2.015 7.52zM82.126 39.862a3.893 3.893 0 1 1-2.015-7.52 3.893 3.893 0 0 1 2.015 7.52z" fill="#FFBB31"/><path d="M124.679 49.174a1.07 1.07 0 0 0-1.311-.757L88.015 57.89a1.07 1.07 0 0 0-.757 1.311l.939 3.503c.153.571.74.91 1.311.757l35.353-9.472c.571-.153.91-.74.757-1.312l-.939-3.503z" fill="#E27903"/><path d="M118.886 22.232a3.893 3.893 0 0 0-4.248 3.038 4.338 4.338 0 0 1-2.354-2.812l-1.411-5.266 6.216-1.665 1.797 6.705zM83.998 33.485a3.893 3.893 0 0 0-5.194-.517l-1.796-6.702 6.216-1.665 1.411 5.265a4.34 4.34 0 0 1-.637 3.62z" fill="#FFB100"/><path d="M117.358 12.024a1.07 1.07 0 0 0-1.311-.757L75.78 22.057a1.07 1.07 0 0 0-.757 1.31l.765 2.853c.153.572.74.91 1.31.757l40.267-10.79c.572-.152.91-.74.757-1.31l-.764-2.853z" fill="#E27903"/><path d="M94.952 21.064a8.64 8.64 0 0 0 9.025-8.237 8.64 8.64 0 0 0-15.77-5.264l-1.549-1.87c-.427-.515-1.22-.518-1.557.06a7.506 7.506 0 0 0-1.012 3.444 7.533 7.533 0 0 0 3.285 6.574 8.641 8.641 0 0 0 7.578 5.293z" fill="#FFB100"/><path d="M107.705 53.225a.771.771 0 0 0-.877-.376l-2.273.61a.77.77 0 0 0-.571.764l.171 6.618a.77.77 0 0 0 .97.725l5.263-1.41a.771.771 0 0 0 .478-1.113l-3.161-5.818z" fill="#FFF1A2"/><path d="M99.867 31.415c-.09.024-.546 1.496-1 3.033-.451 1.53.951 2.951 2.492 2.538 1.542-.413 2.046-2.344.89-3.444-1.162-1.105-2.293-2.151-2.382-2.127z" fill="#E27903"/><path d="M102.959 20.776a4.873 4.873 0 0 1 5.969 3.447l.768 2.863c.162.608.203 1.22.136 1.81a3.913 3.913 0 0 0-2.433 1l-1.491 1.333a31.651 31.651 0 0 1-2.225 1.816 4.872 4.872 0 0 1-3.403-3.436l-.768-2.864a4.874 4.874 0 0 1 3.447-5.969zM97.846 27.192a4.874 4.874 0 1 0-9.416 2.523l.767 2.863a4.874 4.874 0 1 0 9.416-2.522l-.767-2.864z" fill="#FFF1A2"/><path d="M110.803 32.353a.914.914 0 0 0-1.386-.2l-1.49 1.333a34.768 34.768 0 0 1-10.294 6.377l-1.857.741a.914.914 0 0 0-.438 1.33l1.465 2.366a9.097 9.097 0 0 0 15.466-9.581l-1.466-2.366z" fill="#A41414"/><path d="M110.803 32.353a.914.914 0 0 0-1.386-.2l-1.49 1.333a34.768 34.768 0 0 1-10.294 6.377l-1.857.741a.914.914 0 0 0-.438 1.33l1.465 2.366a9.097 9.097 0 0 0 15.466-9.582l-1.466-2.365z" fill="#E27903"/><path d="M95.235 41.205a.91.91 0 0 1 .54-.6l1.858-.742a34.767 34.767 0 0 0 10.294-6.377l1.49-1.333a.914.914 0 0 1 1.386.2l1.466 2.365c.442.714.773 1.465.999 2.233-.192.349-.521.622-.936.734l-1.829.49a1.514 1.514 0 0 1-1.599-.548 1.516 1.516 0 0 1-1.111 1.274l-1.83.49a1.515 1.515 0 0 1-1.599-.548 1.513 1.513 0 0 1-1.111 1.274l-1.829.49a1.515 1.515 0 0 1-1.6-.547 1.515 1.515 0 0 1-1.11 1.274l-1.83.49a1.515 1.515 0 0 1-1.65-.619z" fill="#FFF1A2"/><path d="M103.525 48.55a9.059 9.059 0 0 0 5.802-1.308 9.076 9.076 0 0 0 4.2-6.347 8.718 8.718 0 0 0-10.002 7.655z" fill="#F79B24"/><path d="M103.854 32.917a4.295 4.295 0 0 1-3.62-4.408 1.845 1.845 0 0 1 3.641.137c.02.162.088.317.21.447s.273.207.433.236a1.846 1.846 0 0 1 1.512 1.791l-.122.11a31.789 31.789 0 0 1-2.054 1.687zM93.41 35.927a1.846 1.846 0 0 0 .078-3.642.784.784 0 0 1-.433-.237.784.784 0 0 1-.21-.447 1.845 1.845 0 0 0-3.64-.137 4.295 4.295 0 0 0 4.052 4.455l.152.008z" fill="#E27903"/><path d="M61.404 61.658l.037-.116c.034-.098.068-.198.095-.3l1.835-5.786 5.701 2.514a1.528 1.528 0 0 0 2.072-.933l1.149-3.594a1.528 1.528 0 0 0-.84-1.863l-6.395-2.821a1.834 1.834 0 0 0-2.487 1.119l-2.189 6.84c-.884-.908-2.122-1.414-3.431-1.272-2.337.253-4.012 2.475-3.742 4.96.27 2.486 2.383 4.296 4.72 4.042 1.617-.175 2.916-1.294 3.473-2.79h.002zM64.948 19.512l-.075-.116a4.773 4.773 0 0 0-.196-.3l-3.773-5.785 6.322-3.208a1.738 1.738 0 0 0 .672-2.496L65.56 4.006a1.738 1.738 0 0 0-2.245-.604L56.223 7a2.086 2.086 0 0 0-.806 2.995l4.446 6.857c-1.437.123-2.775.85-3.593 2.104-1.46 2.24-.712 5.315 1.671 6.869 2.383 1.553 5.5.996 6.96-1.244 1.01-1.55.962-3.5.047-5.068v-.002zM4.321 68.288l4.087 9.243a4.087 4.087 0 0 0-1.993.332c-2.193.97-3.129 3.66-2.09 6.007 1.037 2.348 3.657 3.466 5.85 2.496 2.193-.97 3.13-3.66 2.091-6.007L8.982 72.93a.612.612 0 0 1 .312-.808l9.138-4.04a.613.613 0 0 1 .809.312l1.608 3.637a4.088 4.088 0 0 0-1.992.331c-2.194.97-3.13 3.66-2.091 6.008 1.038 2.348 3.658 3.465 5.85 2.496 2.194-.97 3.13-3.66 2.091-6.008l-5.762-13.034a1.226 1.226 0 0 0-1.617-.626L4.947 66.672c-.62.273-.9.997-.626 1.616zM121.098 63.98L117 71.078a3.31 3.31 0 0 0-1.171-1.147c-1.684-.972-3.893-.299-4.934 1.504-1.041 1.803-.52 4.053 1.164 5.025 1.684.973 3.893.3 4.934-1.503l3.294-5.705a.497.497 0 0 1 .679-.182l7.017 4.052a.497.497 0 0 1 .182.68l-1.612 2.792a3.312 3.312 0 0 0-1.17-1.146c-1.684-.973-3.893-.3-4.935 1.504-1.041 1.803-.519 4.053 1.164 5.025 1.685.973 3.894.3 4.935-1.504l5.78-10.009a.995.995 0 0 0-.364-1.358l-9.507-5.49a.994.994 0 0 0-1.358.364z" fill="#F79B24"/></g><defs><clipPath id="clip0_302_3267"><path fill="#fff" transform="translate(.042 .918)" d="M0 0h135v124H0z"/></clipPath></defs></svg>