<svg viewBox="0 0 135 124" fill="none" xmlns="http://www.w3.org/2000/svg"><path d="M107 11H28c-9.389 0-17 7.611-17 17v79c0 9.389 7.611 17 17 17h79c9.389 0 17-7.611 17-17V28c0-9.389-7.611-17-17-17z" fill="#9069CD"/><path d="M66.805 48.277c2.377 17.814-10.136 34.182-27.95 36.56C21.04 87.213 4.672 74.7 2.295 56.886c-2.378-17.815 10.136-34.183 27.95-36.56 17.814-2.378 34.182 10.136 36.56 27.95z" fill="#0084C2"/><path d="M23.439 49.07l2.035 2.425 27.182-25.951a32.71 32.71 0 0 0-2.809-1.686L23.44 49.072z" fill="#006AAD"/><path d="M13.64 58.433l19.238-18.367 23.383 12.679 4.16 31.176-42.62 5.688-4.161-31.176z" fill="#C6775C"/><path d="M7.512 96.885c-1.361-10.198 5.802-19.567 16-20.928l27.818-3.713c10.197-1.361 19.566 5.802 20.927 16 1.361 10.197-5.802 19.566-15.999 20.927l-27.818 3.713c-10.198 1.361-19.567-5.802-20.928-16z" fill="#3D3D3D"/><path d="M42.841 72.536a5.58 5.58 0 1 1-11.062 1.476 5.58 5.58 0 0 1 11.062-1.476z" fill="#C6775C"/><path d="M18.77 61.669A7.53 7.53 0 0 1 33.7 59.677l.678 5.076a7.53 7.53 0 0 1-14.929 1.993l-.678-5.077zM52.159 57.213a7.53 7.53 0 0 0-14.929 1.992l.677 5.077a7.53 7.53 0 0 0 14.929-1.992l-.677-5.077z" fill="#fff"/><path fill-rule="evenodd" clip-rule="evenodd" d="M52.735 49.25c-5.647 2.243-10.036-1.306-11.551-3.467a2.053 2.053 0 1 0-3.361 2.358c2.05 2.924 8.25 8.172 16.427 4.925a2.053 2.053 0 1 0-1.515-3.815z" fill="#3D3D3D"/><path d="M39.551 60.62a2.709 2.709 0 0 1 5.37-.717l.267 2.003a2.709 2.709 0 0 1-5.37.717l-.267-2.002zM26.46 62.368a2.708 2.708 0 1 1 5.37-.717l.267 2.002a2.709 2.709 0 0 1-5.37.717l-.266-2.002z" fill="#3D3D3D"/><path fill-rule="evenodd" clip-rule="evenodd" d="M35.46 81.581a1.615 1.615 0 0 1 1.338.683l4.635 6.557a1.614 1.614 0 1 1-2.636 1.864l-3.284-4.645-1.586 2.36a1.614 1.614 0 1 1-2.68-1.8l2.892-4.305c.296-.44.79-.707 1.321-.714z" fill="#302F2F"/><path d="M23.367 83.239c-.664.838.107 1.883 1.175 1.88l22.647-.085c1.08-.004 1.84-1.072 1.152-1.904-.91-1.1-2.236-1.792-3.706-1.786l-17.594.065c-1.476.005-2.791.714-3.674 1.83z" fill="#fff"/><path d="M10.906 53.439l4.199 5.451c1.866 2.423.41 5.958-2.622 6.362-3.031.405-5.364-2.624-4.199-5.451l2.622-6.362zM17.068 37.51l5.67 7.363c2.52 3.272.553 8.046-3.54 8.592-4.095.546-7.245-3.544-5.671-7.363l3.54-8.592z" fill="#47D7FF"/><path d="M126.994 107.474c8.261-12.244 5.033-28.867-7.21-37.128-12.244-8.262-28.867-5.034-37.128 7.21-8.262 12.243-5.034 28.866 7.21 37.128 12.243 8.261 28.866 5.033 37.128-7.21z" fill="#F49000"/><path d="M83.58 76.269l15.056 10.16c2.809-5.238 2.889-11.887.172-19.973a26.9 26.9 0 0 1 2.799-.491c2.862 8.754 2.676 16.111-.626 22.046l3.563 2.404 14.053-20.827a27.403 27.403 0 0 1 2.333 1.575L106.877 91.99l4.222 2.85c4.184-5.18 10.759-8.095 19.676-8.793.228.916.408 1.844.538 2.779-8.21.588-14.151 3.136-17.869 7.596l14.397 9.714a27.541 27.541 0 0 1-1.559 2.344l-14.46-9.757c-3.046 5.162-3.327 11.754-.774 19.803a27.13 27.13 0 0 1-2.786.512c-2.698-8.719-2.314-16.025 1.222-21.892l-4.181-2.822-14.25 21.118a27.52 27.52 0 0 1-2.334-1.575l14.25-21.118-3.523-2.377c-4.196 5.58-11.005 8.684-20.371 9.369a26.915 26.915 0 0 1-.622-2.775c8.725-.563 14.925-3.306 18.656-8.171l-15.12-10.202a27.24 27.24 0 0 1 1.59-2.323z" fill="#E26E00"/><path d="M78.39 20.872a4.838 4.838 0 0 1 9.485-1.904l.762 3.794a4.838 4.838 0 0 1-9.486 1.905l-.761-3.795z" fill="#A71E6E"/><path fill-rule="evenodd" clip-rule="evenodd" d="M110.881 33.427L72.862 41.06l3.174 15.81 53.829-10.808c-1.753-8.731-10.252-14.388-18.984-12.635z" fill="#CC348D"/><path fill-rule="evenodd" clip-rule="evenodd" d="M88.888 20.738l-20.769 4.17 6.603 32.884 39.108-7.852-3.301-16.442-2.53.508c-8.731 1.753-17.23-3.904-18.983-12.636l-.128-.632z" fill="#CC348D"/><path d="M99.282 33.957a2.257 2.257 0 1 1 4.387 1.068l-1.775 6.766a2.258 2.258 0 0 1-4.387-1.067l1.775-6.767z" fill="#fff"/><path fill-rule="evenodd" clip-rule="evenodd" d="M96.987 29.815a2.257 2.257 0 0 0-3.166.407l-4.718 6.096a2.257 2.257 0 1 0 3.574 2.76l4.718-6.097a2.258 2.258 0 0 0-.408-3.166z" fill="#fff"/><path d="M90.947 25.399a2.257 2.257 0 1 1 .89 4.427l-6.957 1.396a2.257 2.257 0 1 1-.889-4.427l6.956-1.396z" fill="#fff"/><path fill-rule="evenodd" clip-rule="evenodd" d="M87.56 19.031L77.108 21.13l.889 4.426 10.45-2.098a2.258 2.258 0 0 0-.889-4.427z" fill="#CC348D"/><path d="M77.109 21.13l.888 4.426-8.52 1.71a2.257 2.257 0 1 1-.89-4.426l8.522-1.71z" fill="#4C4C4C"/><path fill-rule="evenodd" clip-rule="evenodd" d="M110.881 33.427l-2.529.508 3.174 15.81 18.339-3.683c-1.753-8.731-10.252-14.388-18.984-12.635z" fill="#A71E6E"/><path d="M74.53 56.514l55.949-11.233a2.58 2.58 0 0 1 3.037 2.022l.254 1.265a2.58 2.58 0 0 1-2.021 3.037L75.8 62.838a2.58 2.58 0 0 1-3.037-2.021l-.254-1.265a2.58 2.58 0 0 1 2.021-3.038z" fill="#4C4C4C"/><path fill-rule="evenodd" clip-rule="evenodd" d="M77.125 21.126l-9.018 3.716 2.57 12.799a9.573 9.573 0 0 0 7.5-11.27l-1.052-5.245z" fill="#4C4C4C"/></svg>