<svg viewBox="0 0 135 124" version="1.1" xmlns="http://www.w3.org/2000/svg" xmlns:xlink="http://www.w3.org/1999/xlink"><defs><path d="M17 0h79c9.389 0 17 7.611 17 17v79c0 9.389-7.611 17-17 17H17c-9.389 0-17-7.611-17-17V17C0 7.611 7.611 0 17 0z" id="a"/><path d="M204.75 69.358l-27.64-38.499a9 9 0 0 0-7.311-3.751h-63.632l3.25 42.25h95.333z" id="c"/><path d="M50.415.697l30.334 42.25H29.333L1.273 3.863A2 2 0 0 1 2.898.697h47.517z" id="e"/><path id="g" d="M35.857 62.868l21.842 31.94h41.913l9.112-.067V11.98L69.957 0 0 .938 31.7 56.19z"/><path d="M23.165 0c12.762 0 23.107 10.345 23.107 23.107v36.81c0 12.762-10.345 23.107-23.107 23.107C10.404 83.024.058 72.68.058 59.917v-36.81C.058 10.345 10.404 0 23.165 0z" id="i"/></defs><g stroke="none" stroke-width="1" fill="none" fill-rule="evenodd"><g><g transform="translate(11 11)"><mask id="b" fill="#fff"><use xlink:href="#a"/></mask><use fill="#EDEDED" xlink:href="#a"/><g mask="url(#b)"><g><g transform="translate(-129.5 12)"><g><path fill="#BFBFBF" d="M132.68 0h21.095l-2.325 27.111h-20.761L132.68 0"/><path d="M153.775 0h-4.077c-.925 0-1.708.687-1.832 1.607L144.186 29h15.102l-3.681-27.393A1.852 1.852 0 0 0 153.775 0" fill="#979797"/><path d="M132.68 0h-4.075a1.85 1.85 0 0 0-1.833 1.6l-3.682 27.28h15.103l-3.68-27.28A1.849 1.849 0 0 0 132.68 0" fill="#BFBFBF"/></g><mask id="d" fill="#fff"><use xlink:href="#c"/></mask><use fill="#BFBFBF" xlink:href="#c"/><g mask="url(#d)"><g><path d="M133.54 29.657l30.872 42.999h-55.37l-32.667-45.5h52.292a6 6 0 0 1 4.874 2.5z" fill="#A9A8A8"/><g stroke-width="1" fill="none" transform="translate(131.043 29.709)"><mask id="f" fill="#fff"><use xlink:href="#e"/></mask><use fill="#A9A8A8" xlink:href="#e"/><path fill="#979797" mask="url(#f)" d="M-.2-3.529l48.94 3.07 30.031 39.862L40.3 52.213z"/><path fill="#A9A8A8" opacity=".52" mask="url(#f)" d="M58.51-15.48L71.477-4.981 20.003 58.583l-12.965-10.5z"/></g><path d="M125.252 32.907l28.538 39.749h-51.415l-30.333-42.25h48.337a6 6 0 0 1 4.873 2.5z" fill="#979797"/></g></g><g><path d="M291.005 115.568H96.094V68.763h180.242c8.1 0 14.669 6.569 14.669 14.67v32.135" fill="#BFBFBF"/><path d="M194.911 115.568H0V68.763h180.243c8.1 0 14.668 6.569 14.668 14.67v32.135" fill="#A9A8A8"/><path d="M128.402 89.12h-13.301V77.93a2.548 2.548 0 0 1 2.547-2.547h8.206a2.548 2.548 0 0 1 2.548 2.548v11.188" fill="#3D3D3D"/><path fill="#979797" d="M128.402 102.857h13.301V89.12h-13.3zM155.006 89.12h-13.302V77.93a2.548 2.548 0 0 1 2.548-2.547h8.204c1.409 0 2.55 1.14 2.55 2.548v11.188M155.006 102.857h13.302V89.12h-13.302zM181.61 89.12h-13.302V77.93a2.548 2.548 0 0 1 2.549-2.547h8.204c1.407 0 2.549 1.14 2.549 2.548v11.188M181.61 102.857h13.301V89.12H181.61z"/><path d="M222.048 85.802c0 5.69-4.613 10.303-10.303 10.303s-10.304-4.613-10.304-10.303S206.054 75.5 211.745 75.5c5.69 0 10.303 4.612 10.303 10.303" fill="#F9F9F9"/></g></g></g></g></g></g><g transform="translate(27.5 -3.044)"><mask id="h" fill="#fff"><use xlink:href="#g"/></mask><g mask="url(#h)"><g><path d="M33.426 16.455l19.654 46.56a6.27 6.27 0 0 1-2.943 8.032 5.408 5.408 0 0 1-7.445-2.766L23.621 21.963l9.805-5.508z" fill="#BFBFBF"/><g stroke-width="1" fill="none"><g fill="#D8D8D8"><path d="M27.463 18.511a2.857 2.857 0 0 1-3.837-1.27l-4.022-8.005a2.857 2.857 0 1 1 5.108-2.565l4.02 8.005c.71 1.41.14 3.127-1.27 3.835"/><path d="M29.566 18.38a2.855 2.855 0 0 1-2.739-2.971l.366-8.95a2.857 2.857 0 0 1 5.71.233l-.365 8.951a2.857 2.857 0 0 1-2.972 2.738M27.05 21.667a2.856 2.856 0 0 1-4.02.41l-6.945-5.657a2.857 2.857 0 1 1 3.609-4.43l6.946 5.657a2.856 2.856 0 0 1 .41 4.02"/><path d="M28.887 22.22a2.86 2.86 0 0 1-.477-4.014l5.542-7.037a2.857 2.857 0 1 1 4.49 3.535l-5.543 7.037a2.857 2.857 0 0 1-4.012.479"/><path d="M34.137 14.59a6.541 6.541 0 0 1-2.91 8.782 6.539 6.539 0 0 1-8.782-2.909 6.54 6.54 0 0 1 2.908-8.782 6.544 6.544 0 0 1 8.784 2.91"/></g></g></g></g><g mask="url(#h)"><g transform="rotate(17 21.949 185.58)"><path d="M40.417 54.21l-8.685 3.584c-5.525 2.28-8.156 8.608-5.876 14.133.276.67.619 1.31 1.023 1.91l3.203 4.763a10.823 10.823 0 0 0 14.53 3.252l12.649-7.555a8.638 8.638 0 0 0 .195-14.711l-7.117-4.512a10.823 10.823 0 0 0-9.922-.863z" fill="#BFBFBF" fill-rule="evenodd"/><rect fill="#D8D8D8" fill-rule="evenodd" x="8.394" y="73.903" width="46.475" height="9.238" rx="4.619"/><path d="M22.638 0c6.329 0 11.644 4.337 13.136 10.202l-.017-.045c1.054 2.87 3.363 4.193 6.855 4.247l.224.002c.063 0 .123 0 .18.003l.107-.003.198-.002c5.768 0 10.443 4.658 10.443 10.403 0 5.746-4.675 10.403-10.443 10.403a10.428 10.428 0 0 1-7.129-2.801v1.25c0 7.412-5.948 13.433-13.33 13.553l-.328.002c-7.087 0-12.904-5.44-13.503-12.371C4.603 33.637 1.35 29.6 1.35 24.807c0-4.775 3.23-8.799 7.631-10.021v-1.232C8.98 6.144 14.928.122 22.31.002L22.638 0z" fill="#979797" fill-rule="evenodd"/><circle fill="#D8D8D8" fill-rule="evenodd" cx="3.95" cy="33.41" r="3.801"/><circle fill="#D8D8D8" fill-rule="evenodd" cx="51.163" cy="33.41" r="3.801"/><g stroke-width="1" fill="none" fill-rule="evenodd" transform="translate(4.491 15.389)"><mask id="j" fill="#fff"><use xlink:href="#i"/></mask><use fill="#D8D8D8" xlink:href="#i"/><path fill="#A9A8A8" mask="url(#j)" d="M-.742 55.316h48.114v29.008H-.742z"/><path fill="#D8D8D8" mask="url(#j)" d="M.058 53.616h46.214v5.201H.058z"/><path fill="#A9A8A8" mask="url(#j)" d="M8.161 53.616h3.301v7.602H8.161zM34.666 53.616h3.301v7.602h-3.301z"/><rect fill="#979797" mask="url(#j)" x="-3.743" y="-.616" width="11.303" height="17.905" rx="5.652"/><rect fill="#979797" mask="url(#j)" x="38.97" y=".384" width="11.303" height="16.305" rx="5.652"/></g><path fill="#BFBFBF" fill-rule="evenodd" d="M4.548 55.214H50.76v.629l.996 13.175H3.552l.996-13.175z"/><path fill="#D8D8D8" fill-rule="evenodd" d="M27.704 62.717l6.552-7.703H21.153z"/><path d="M22.07 22.59a4.716 4.716 0 0 1 4.716 4.717v2.87a4.716 4.716 0 0 1-9.432 0v-2.87a4.716 4.716 0 0 1 4.716-4.716z" fill="#FFF" fill-rule="evenodd"/><path d="M21.376 25.538c1.169 0 2.117.948 2.117 2.117v2.66a2.117 2.117 0 1 1-4.235 0v-2.66c0-1.169.948-2.117 2.118-2.117z" fill="#979797" fill-rule="evenodd"/><path d="M33.373 22.59a4.716 4.716 0 0 1 4.716 4.717v2.87a4.716 4.716 0 0 1-9.433 0v-2.87a4.716 4.716 0 0 1 4.717-4.716z" fill="#FFF" fill-rule="evenodd"/><path d="M31.82 25.386c1.17 0 2.118.948 2.118 2.117v2.66a2.117 2.117 0 0 1-4.235 0v-2.66c0-1.17.948-2.117 2.117-2.117z" fill="#979797" fill-rule="evenodd"/><rect fill="#D8D8D8" fill-rule="evenodd" x="22.841" y="30.785" width="24.019" height="24.019" rx="12.009"/><path d="M20.403 31.035c6.632 0 12.01 5.376 12.01 12.009H8.392c0-6.633 5.377-12.01 12.01-12.01z" fill="#D8D8D8" fill-rule="evenodd"/><g stroke-width="1" fill="none" fill-rule="evenodd"><g><path d="M36.35 38.608L26.213 44.7l1.384 2.305a5.914 5.914 0 1 0 10.138-6.092l-1.385-2.304z" fill="#BFBFBF"/><path d="M34.3 38.781l-8.295 4.984.554.922 7.833-3.597a1 1 0 0 0 .44-1.423l-.532-.886z" fill="#FFF"/></g><g fill="#979797"><path d="M32.907 40.715a6.202 6.202 0 0 0-5.869-6.518l-5.394-.283a6.202 6.202 0 1 0-.649 12.387l5.394.282a6.202 6.202 0 0 0 6.518-5.868z"/><path d="M28.51 42.434a6.202 6.202 0 0 1 1.673-8.61l4.478-3.02a6.202 6.202 0 0 1 6.936 10.283l-4.478 3.02a6.202 6.202 0 0 1-8.61-1.673z"/></g></g><path d="M33.382 18.279c2.407.36 4.322 1.104 5.718 2.32a2.64 2.64 0 0 1-3.365 4.068l-.102-.084c-.537-.468-1.54-.858-3.033-1.081a2.64 2.64 0 0 1 .659-5.239l.123.016zM17.81 16.704c2.178-1.085 4.174-1.574 6.015-1.38a2.64 2.64 0 0 1-.423 5.263l-.132-.01c-.708-.075-1.753.18-3.104.854a2.64 2.64 0 0 1-2.466-4.669l.11-.058z" fill="#979797" fill-rule="nonzero"/><circle fill="#D8D8D8" fill-rule="evenodd" cx="27.556" cy="34.394" r="3.001"/><path d="M28.557 103.614a3 3 0 0 1 3-3h7.203a3 3 0 0 1 0 6.001h-7.202a3 3 0 0 1-3.001-3zM12.152 103.614a3 3 0 0 1 3-3h7.203a3 3 0 1 1 0 6.001h-7.202a3 3 0 0 1-3.001-3z" fill="#1CB0F6" fill-rule="evenodd"/><path fill="#979797" fill-rule="evenodd" d="M5.725 29.965l1.07.951 5.247-8.97v-2.053zM49.685 29.566l-.97 1.151-5.248-8.473v-2.052z"/></g></g></g><path stroke="#F9F9F9" stroke-width="1.5" stroke-linecap="round" d="M58.647 53.691l26.228 37.156"/></g></svg>