<svg viewBox="0 0 135 124" fill="none" xmlns="http://www.w3.org/2000/svg"><g clip-path="url(#clip0)"><rect x="11" y="11.125" width="113" height="113" rx="17" fill="#FFCA00"/><path d="M122.278 20.93L20.758 122.45a16.937 16.937 0 0 0 7.08 1.56h41.32l54.68-54.68V28.01a16.938 16.938 0 0 0-1.56-7.08zm-72.12 48.14l58-58c-.43 0-.87-.07-1.31-.07h-48.59l-33.08 33.09c-6.904 6.904-6.904 18.096 0 25 6.903 6.904 18.096 6.904 25 0l-.02-.02z" fill="#FFD900"/><path fill="#E27903" d="M15.813 60.099l36.008-5.882 3.598 22.032-36.008 5.881z"/><path d="M27.576 75.183C23.731 80.272 16.49 81.28 11.4 77.435l-4.414-3.336C1.896 70.254.888 63.011 4.734 57.923l3.73-4.936c3.844-5.09 11.087-6.097 16.176-2.252l4.414 3.335c5.089 3.846 6.097 11.088 2.252 16.177l-3.73 4.936zM48.97 71.52c5.264 3.601 12.45 2.252 16.052-3.012l3.123-4.567c3.601-5.265 2.252-12.451-3.012-16.052l-5.106-3.493c-5.265-3.6-12.452-2.252-16.053 3.013l-3.123 4.566c-3.601 5.265-2.252 12.452 3.012 16.053l5.106 3.492z" fill="#E27903"/><path d="M18.31 50.297c-1.028-6.294 3.241-12.23 9.536-13.26l8.238-1.345c6.295-1.028 12.231 3.242 13.26 9.537l1.113 6.816c1.028 6.295-3.242 12.231-9.537 13.26l-8.237 1.345c-6.295 1.028-12.231-3.242-13.26-9.536l-1.113-6.816z" fill="#E27903"/><path d="M52.9 73.956a8.847 8.847 0 0 1 10.156 7.305l3.566 21.828c.925 5.666-2.918 11.009-8.584 11.935l-25.32 4.135c-5.666.926-11.009-2.917-11.935-8.583l-3.565-21.828a8.847 8.847 0 0 1 7.305-10.157L52.9 73.956z" fill="#F79B24"/><rect x="26.907" y="87.126" width="11.827" height="15.511" rx="5.913" transform="rotate(-9.277 26.907 87.126)" fill="#FFF1A2"/><rect x="41.884" y="84.68" width="11.827" height="15.511" rx="5.913" transform="rotate(-9.277 41.884 84.68)" fill="#FFF1A2"/><path fill-rule="evenodd" clip-rule="evenodd" d="M31.129 89.662a2.23 2.23 0 0 1 1.84-2.56 4.805 4.805 0 0 1 5.518 3.968 2.23 2.23 0 0 1-4.401.719.346.346 0 0 0-.397-.286 2.23 2.23 0 0 1-2.56-1.84zM45.926 87.245a2.23 2.23 0 0 1 1.842-2.56 4.805 4.805 0 0 1 5.517 3.968 2.23 2.23 0 0 1-4.401.719.346.346 0 0 0-.398-.286 2.23 2.23 0 0 1-2.56-1.84z" fill="#E27903"/><path d="M36.62 74.879a8.948 8.948 0 0 1-2.068-12.484l2.052 1.469a8.948 8.948 0 0 1 2.069 12.483L36.62 74.88z" fill="#FDB02A"/><path d="M26.18 74.775a8.948 8.948 0 0 0 12.632-.74l-1.886-1.677a8.948 8.948 0 0 0-12.633.74l1.886 1.677z" fill="#FDB02A"/><path d="M63.894 69.918l-26.63 4.35.427 2.61 26.055 8.752.148-15.712z" fill="#FDB02A"/><circle cx="64.313" cy="90.529" r="5.275" transform="rotate(-9.277 64.313 90.53)" fill="#F79B24"/><circle cx="18.661" cy="98.204" r="5.275" transform="rotate(-9.277 18.661 98.204)" fill="#F79B24"/><path d="M26.974 86.845a1.21 1.21 0 0 1 1.188-1.25l11.804-.202a1.21 1.21 0 1 1 .041 2.418l-11.804.201a1.21 1.21 0 0 1-1.23-1.167zM26.323 97.642l16.69.068.216 6.353-16.69-.068-.216-6.353z" fill="#F79B24"/><path d="M12.599 78.297l26.63-4.35.426 2.61L17.74 93.146l-5.14-14.848z" fill="#FDB02A"/><path d="M39.267 108.24c3.945-1.64 11.63-4.159 10.811-1.118" stroke="#E27903" stroke-width="1.968" stroke-linecap="round" stroke-linejoin="round"/><path d="M40.766 100.569a1.933 1.933 0 0 0 3.816-.623c-.172-1.054-2.4-3.2-2.48-3.187-.08.013-1.509 2.756-1.336 3.81z" fill="#E27903"/><rect x="39.607" y="99.283" width="5.75" height="3.981" rx="1.991" transform="rotate(-9.277 39.607 99.283)" fill="#E27903"/><path d="M131.473 13.474L99.52 5.494a1.978 1.978 0 0 0-2.4 1.44L83.698 60.676a1.978 1.978 0 0 0 1.44 2.4l31.954 7.98a1.979 1.979 0 0 0 2.399-1.44l13.423-53.744a1.978 1.978 0 0 0-1.44-2.399z" fill="#E27903"/><path d="M128.107 15.489L98.463 8.084a1.978 1.978 0 0 0-2.399 1.44l-12.08 48.37a1.978 1.978 0 0 0 1.44 2.399l29.643 7.404a1.979 1.979 0 0 0 2.399-1.44l12.081-48.37a1.978 1.978 0 0 0-1.44-2.399z" fill="#fff"/><path d="M126.085 12.129L94.132 4.148a1.978 1.978 0 0 0-2.4 1.44L78.31 59.33a1.978 1.978 0 0 0 1.44 2.4l31.954 7.98a1.979 1.979 0 0 0 2.399-1.44l13.423-53.744a1.978 1.978 0 0 0-1.44-2.398z" fill="#F79B24"/><path fill-rule="evenodd" clip-rule="evenodd" d="M95.524 27.994l5.546-1.588a.712.712 0 0 1 .881.489l1.089 3.803a3.562 3.562 0 0 1-2.443 4.403l-.069.02a3.56 3.56 0 0 1-4.403-2.443l-1.09-3.803a.712.712 0 0 1 .49-.881z" fill="#FDB02A"/><path fill-rule="evenodd" clip-rule="evenodd" d="M93.95 22.491l.035-.01c.37-.106.756.1.874.466l2.962 9.208a.712.712 0 0 1-.482.903l-.337.096a.712.712 0 0 1-.88-.489l-2.661-9.293a.712.712 0 0 1 .489-.881zM96.693 21.704l.057-.016c.37-.106.757.1.874.467l2.962 9.207a.712.712 0 0 1-.459.896l-.023.007-.66.189a.712.712 0 0 1-.886-.511l-2.36-9.38a.712.712 0 0 1 .495-.858zM99.459 20.913l.035-.01a.712.712 0 0 1 .881.488l2.661 9.294a.713.713 0 0 1-.489.88l-.337.097a.711.711 0 0 1-.88-.489l-.006-.022-2.36-9.38a.712.712 0 0 1 .495-.858zM99.971 33.047a1.116 1.116 0 0 1 1.369.73l5.716 17.703a1.739 1.739 0 1 1-3.342.956l-4.518-18.045a1.116 1.116 0 0 1 .775-1.344zM114.676 23.42l-8.567 8.864a3.057 3.057 0 1 0 4.396 4.249l4.319-4.468a6.115 6.115 0 0 0-.148-8.646z" fill="#FDB02A"/><path fill-rule="evenodd" clip-rule="evenodd" d="M107.799 35.002a1.115 1.115 0 0 0-1.551 0L92.88 47.939a1.739 1.739 0 1 0 2.5 2.416l12.472-13.801a1.116 1.116 0 0 0-.053-1.55z" fill="#FDB02A"/><path d="M99.386 39.247l1.879 7.415" stroke="#F79B24" stroke-width="1.916" stroke-linecap="square"/><circle cx="72.336" cy="42.047" r="5.946" fill="#FFF1A2"/><circle cx="69.82" cy="56.298" r="4.651" fill="#FFF1A2"/><circle cx="66.254" cy="67.625" r="3.566" fill="#FFF1A2"/><path d="M56.23 1c5.87 0 11.01 3.132 13.838 7.816.07-.002.142-.002.213-.002 6.182 0 11.194 5.011 11.194 11.194 0 6.02-4.753 10.931-10.712 11.184C69.696 35.115 66.109 38 61.848 38a9.21 9.21 0 0 1-6.723-2.903 9.876 9.876 0 0 1-5.127 1.425c-4.807 0-8.816-3.418-9.728-7.957a9.517 9.517 0 1 1 1.675-18.961C44.654 4.486 50.034 1 56.23 1z" fill="#FFF1A2"/><path d="M71.258 31.16c-.164.014-.33.025-.495.032C69.696 35.115 66.109 38 61.848 38a9.21 9.21 0 0 1-6.723-2.904 9.876 9.876 0 0 1-5.127 1.426 9.877 9.877 0 0 1-5.025-1.365 6.879 6.879 0 0 1-.988-3.563V13.298a6.91 6.91 0 0 1 6.91-6.91h7.52a6.913 6.913 0 0 1 6.345 4.168h.41a6.088 6.088 0 0 1 6.088 6.088V31.16z" fill="#E27903"/><path d="M62.023 37.998l-.175.002a9.21 9.21 0 0 1-6.723-2.903 9.871 9.871 0 0 1-1.95.906v-1.928c0-.752.609-1.361 1.36-1.361h6.127c.752 0 1.361.61 1.361 1.361v3.923z" fill="#FFB100"/><path d="M53.04 13.353h9.762a4.552 4.552 0 0 1 4.553 4.552v10.256a4.552 4.552 0 0 1-4.553 4.553H53.04a4.552 4.552 0 0 1-4.552-4.552V17.904a4.552 4.552 0 0 1 4.552-4.552z" fill="#F79B24"/><path d="M66.663 15.492a4.549 4.549 0 0 0-3.86-2.14H53.04a4.55 4.55 0 0 0-3.861 2.14h17.484z" fill="#FFB100"/><path fill-rule="evenodd" clip-rule="evenodd" d="M54.748 17.74a2.586 2.586 0 0 1 2.586 2.587V21.9a2.586 2.586 0 0 1-5.172 0v-1.573a2.586 2.586 0 0 1 2.586-2.586zM61.11 17.74a2.586 2.586 0 0 0-2.586 2.587V21.9a2.586 2.586 0 0 0 5.172 0v-1.573a2.586 2.586 0 0 0-2.586-2.586z" fill="#FFF1A2"/><path d="M59.4 20.536a.932.932 0 0 0 .836-1.214 1.161 1.161 0 0 1 1.486 1.115v1.458a1.161 1.161 0 0 1-2.322 0v-1.359zM54.301 20.422a.932.932 0 0 0 1.018-1.137 1.162 1.162 0 0 1 1.304 1.152v1.458a1.161 1.161 0 0 1-2.322 0v-1.458-.015z" fill="#E27903"/><path fill-rule="evenodd" clip-rule="evenodd" d="M51.065 10.556c1.726 0 3.126 1.4 3.126 3.126v2.687a3.126 3.126 0 0 1-6.253 0v-2.687c0-1.727 1.4-3.126 3.127-3.126z" fill="#E27903"/><path d="M58.579 24.377h-1.262a.987.987 0 0 0 0 1.975h1.262a.987.987 0 1 0 0-1.975z" fill="#E27903"/><path fill-rule="evenodd" clip-rule="evenodd" d="M57.921 23.28l1.261 2.03H56.66l1.262-2.03zM58.374 27.877a.548.548 0 0 0-.684-.366c-.715.216-1.288.204-1.75.026-.463-.177-.885-.546-1.253-1.174a.549.549 0 0 0-.947.554c.46.786 1.056 1.356 1.806 1.644.749.288 1.58.266 2.462 0a.548.548 0 0 0 .366-.684z" fill="#E27903"/><path fill-rule="evenodd" clip-rule="evenodd" d="M55.97 25.287c-1.103-.6-2.53-1.119-4.29-1.552l.197-.8c1.803.445 3.302.986 4.486 1.63l-.393.722z" fill="#F79B24"/><path d="M101.732 120.592c15.463 0 27.999-12.536 27.999-28 0-15.463-12.536-28-27.999-28-15.464 0-28 12.537-28 28 0 15.464 12.536 28 28 28z" fill="#F79B24"/><path d="M101.732 118c15.464 0 28-12.536 28-28s-12.536-28-28-28-28 12.536-28 28 12.536 28 28 28z" fill="#FFB100"/><path opacity=".4" d="M113.345 64.514l-11.848 11.848a5.444 5.444 0 1 1-7.7-7.7l6.634-6.632a27.896 27.896 0 0 1 12.914 2.485zM120.885 69.575l-13.23 13.23a5.445 5.445 0 0 0 7.7 7.699l11.942-11.942a28.073 28.073 0 0 0-6.412-8.987z" fill="#FFF1A2"/><path d="M101.991 109.185c10.452 0 18.926-8.473 18.926-18.926 0-10.452-8.474-18.926-18.926-18.926-10.453 0-18.926 8.474-18.926 18.926 0 10.453 8.474 18.926 18.926 18.926z" fill="#F79B24"/><path d="M101.991 106.592c9.02 0 16.333-7.312 16.333-16.333 0-9.02-7.313-16.333-16.333-16.333-9.021 0-16.334 7.313-16.334 16.333s7.313 16.333 16.334 16.333z" fill="#FDB02A"/><path opacity=".4" d="M107.041 74.722l-8.161 8.16a5.5 5.5 0 0 1-9.344-3.19 16.298 16.298 0 0 1 12.455-5.766c1.762 0 3.459.279 5.05.796zM102.665 106.579a16.27 16.27 0 0 1-11.482-4.074l23.054-23.054a16.274 16.274 0 0 1 4.073 11.482l-15.645 15.646z" fill="#FFF1A2"/><path fill-rule="evenodd" clip-rule="evenodd" d="M119.583 88.741c1.16.033 2.074 1 2.041 2.16-.291 10.256-8.875 18.749-19.052 18.895a2.101 2.101 0 1 1-.06-4.204c7.906-.113 14.682-6.787 14.91-14.81.033-1.16 1-2.074 2.161-2.04z" fill="#FFF1A2"/><path fill-rule="evenodd" clip-rule="evenodd" d="M84.335 91.647a2.102 2.102 0 0 1-2.042-2.16c.29-10.256 8.875-18.749 19.052-18.895a2.102 2.102 0 1 1 .061 4.204c-7.907.113-14.683 6.787-14.91 14.81a2.102 2.102 0 0 1-2.161 2.041z" fill="#E27903"/></g><defs><clipPath id="clip0"><path fill="#fff" d="M0 0h135v124H0z"/></clipPath></defs></svg>