<svg xmlns="http://www.w3.org/2000/svg" viewBox="0 0 135 124"><defs><style>.cls-2{fill:#fff}.cls-4{fill:#a6a6a6}.cls-5{fill:#b2b2b2}</style></defs><g id="Layer_3" data-name="Layer 3"><path d="M124 28v79a17 17 0 0 1-16.64 17H28a17 17 0 0 1-17-17V28a17 17 0 0 1 17-17h79a17 17 0 0 1 17 17z" fill="#efefef"/><rect class="cls-2" x="26.63" y="60.83" width="51.77" height="13.33" rx="6.67"/><path class="cls-2" d="M56.91 76.25a6.66 6.66 0 0 1-6.66 6.66H11.82a7.37 7.37 0 0 1-.82 0V69.63a7.37 7.37 0 0 1 .82 0h38.43a6.65 6.65 0 0 1 6.32 4.59 6.48 6.48 0 0 1 .34 2.03z"/><path d="M107.32 123.64l-.32.36H28a17 17 0 0 1-17-17v-8.09h5.25A51.53 51.53 0 0 1 42 105.82l6.65 3.85a51.41 51.41 0 0 0 18.5 6.4l39.13 5.59z" fill="#e5e5e5"/><path class="cls-4" d="M11 28.2V107a16.91 16.91 0 0 0 3.83 10.75V61.23a13.62 13.62 0 0 1 27.24 0V124h6.17V65.87a19.19 19.19 0 0 1 38.37 0V124h6.32V61.23a13.62 13.62 0 0 1 27.24 0v56.52A16.91 16.91 0 0 0 124 107V28.2z"/><path class="cls-5" d="M11 23.12V107a16.91 16.91 0 0 0 3.83 10.75V44.23a13.62 13.62 0 0 1 27.24 0V124h6.17V50.77a19.19 19.19 0 0 1 38.37 0V124h6.32V44.23a13.62 13.62 0 0 1 27.24 0v73.52A16.91 16.91 0 0 0 124 107V23.12z"/><circle class="cls-4" cx="89.57" cy="30.45" r="3.5"/><circle class="cls-4" cx="47.07" cy="30.45" r="3.5"/><path d="M124 98v9a17 17 0 0 1-17 17H78.07l8.66-2.33A28.47 28.47 0 0 0 102 111.48l1-1.33a28.47 28.47 0 0 1 13.72-9.74z" fill="#d1d1d1"/><path class="cls-5" d="M11 15.95h113v3.25H11z"/><path class="cls-5" d="M23.85 23.5H21a3.6 3.6 0 1 0-7.19 0H11a6.43 6.43 0 0 1 12.85 0z"/><path class="cls-5" d="M33.86 23.5H31a3.59 3.59 0 1 0-7.18 0H21a6.42 6.42 0 1 1 12.84 0z"/><path class="cls-5" d="M43.88 23.5h-2.83a3.6 3.6 0 1 0-7.19 0H31a6.43 6.43 0 0 1 12.85 0z"/><path class="cls-5" d="M53.89 23.5h-2.83a3.59 3.59 0 1 0-7.18 0h-2.83a6.42 6.42 0 0 1 12.84 0z"/><path class="cls-5" d="M63.91 23.5h-2.83a3.6 3.6 0 1 0-7.19 0h-2.83a6.43 6.43 0 0 1 12.85 0z"/><path class="cls-5" d="M73.92 23.5H71.1a3.6 3.6 0 1 0-7.19 0h-2.83a6.42 6.42 0 0 1 12.84 0z"/><path class="cls-5" d="M83.94 23.5h-2.83a3.6 3.6 0 1 0-7.19 0H71.1a6.42 6.42 0 1 1 12.84 0z"/><path class="cls-5" d="M94 23.5h-2.87a3.6 3.6 0 1 0-7.19 0h-2.83a6.42 6.42 0 0 1 12.89 0z"/><path class="cls-5" d="M104 23.5h-2.83a3.6 3.6 0 1 0-7.19 0h-2.85a6.42 6.42 0 1 1 12.84 0z"/><path class="cls-5" d="M114 23.5h-2.83a3.6 3.6 0 1 0-7.19 0h-2.83a6.43 6.43 0 0 1 12.85 0z"/><path class="cls-5" d="M124 23.5h-2.83a3.59 3.59 0 1 0-7.18 0h-2.83a6.42 6.42 0 1 1 12.84 0z"/></g></svg>