<svg viewBox="0 0 135 124" fill="none" xmlns="http://www.w3.org/2000/svg"><g clip-path="url(#clip0)"><path fill-rule="evenodd" clip-rule="evenodd" d="M28 11h79c9.389 0 17 7.611 17 17v79c0 9.389-7.611 17-17 17H28c-9.389 0-17-7.611-17-17V28c0-9.389 7.611-17 17-17z" fill="#FFCB2A"/><path d="M114 86c0-13.255-10.745-24-24-24S66 72.745 66 86s10.745 24 24 24 24-10.745 24-24z" fill="#F89700"/><path fill-rule="evenodd" clip-rule="evenodd" d="M109.222 71.627L87.124 86.654l-2.249-3.308 21.668-14.734a24.179 24.179 0 0 1 2.679 3.015z" fill="#E27800"/><path fill-rule="evenodd" clip-rule="evenodd" d="M76 89.268L90 80l14 9.268V117a1 1 0 0 1-1 1H77a1 1 0 0 1-1-1V89.268z" fill="#FFB100"/><path fill-rule="evenodd" clip-rule="evenodd" d="M80.5 101h12.305l2.496-1.255c6.422-3.228 14.245-.64 17.473 5.782.079.156.154.314.226.473 2.905 6.408.064 13.959-6.344 16.863a12.744 12.744 0 0 1-5.26 1.137H80.5c-6.351 0-11.5-5.149-11.5-11.5S74.149 101 80.5 101z" fill="#E27800"/><path d="M93 101.5a3.5 3.5 0 1 0-7 0 3.5 3.5 0 0 0 7 0z" fill="#FFB100"/><path d="M97.454 91.178a2 2 0 0 1 1.792 3.573l-.14.07-7.608 3.45a5 5 0 0 1-3.815.13l-.245-.1-7.972-3.468a2 2 0 0 1 1.45-3.724l.146.057 7.972 3.468a1 1 0 0 0 .7.037l.112-.043 7.608-3.45z" fill="#E27800"/><path d="M92.858 106.796c2.666-4.852 6.203-7.016 10.258-5.577a2.5 2.5 0 1 1-1.515 4.762l-.157-.05c-1.3-.461-2.584.324-4.204 3.273a2.5 2.5 0 1 1-4.382-2.408z" fill="#FFF1A2"/><path d="M46 77.5C46 70.596 40.404 65 33.5 65S21 70.596 21 77.5 26.596 90 33.5 90 46 84.404 46 77.5zM69 84.5a8.5 8.5 0 1 0-17 0 8.5 8.5 0 0 0 17 0z" fill="#E27800"/><path d="M36 93.5a8.5 8.5 0 1 0-17 0 8.5 8.5 0 0 0 17 0zM72 95.5a6.5 6.5 0 1 0-13 0 6.5 6.5 0 0 0 13 0z" fill="#E27800"/><path fill-rule="evenodd" clip-rule="evenodd" d="M42 68.603l2.775 2.914A15.775 15.775 0 0 0 59.79 76l.709 13.715L42 86V68.603z" fill="#E27800"/><path fill-rule="evenodd" clip-rule="evenodd" d="M47 78c10.493 0 19 8.507 19 19v21a1 1 0 0 1-1 1H29a1 1 0 0 1-1-1V97c0-10.493 8.507-19 19-19z" fill="#F89700"/><path d="M66 115H28v9h38v-9z" fill="#FFDF4A"/><path fill-rule="evenodd" clip-rule="evenodd" d="M42 114h12l-6 6-6-6z" fill="#F89700"/><path d="M30 105a4 4 0 1 0-8 0 4 4 0 0 0 8 0zM72 105a4 4 0 1 0-8 0 4 4 0 0 0 8 0z" fill="#F89700"/><mask id="a" mask-type="alpha" maskUnits="userSpaceOnUse" x="33" y="94" width="18" height="18"><path d="M42 94a9 9 0 0 1 9 9v9H33v-9a9 9 0 0 1 9-9z" fill="#fff"/></mask><g mask="url(#a)"><path d="M42 94a9 9 0 0 1 9 9v9H33v-9a9 9 0 0 1 9-9z" fill="#E27800"/><path d="M55 114.5a7.5 7.5 0 1 0-15 0 7.5 7.5 0 0 0 15 0z" fill="#ED8800"/><path d="M55 94H37a1 1 0 0 0-1 1v8a1 1 0 0 0 1 1h18a1 1 0 0 0 1-1v-8a1 1 0 0 0-1-1z" fill="#FFF1A2"/></g><path d="M42.114 89.551l.414-.169a9.642 9.642 0 0 1 10.459 1.873l.217.214.113.114a15.275 15.275 0 0 0 3.565 2.686l.441.231 1.21.61a5 5 0 0 1-4.292 9.029l-.207-.098-1.209-.609a25.275 25.275 0 0 1-6.209-4.412l-.362-.359-.272.114a22.333 22.333 0 0 1-6.8 1.558l-.54.03-3.016.132a5 5 0 0 1-.655-9.976l.216-.014 3.016-.132a12.304 12.304 0 0 0 3.911-.822z" fill="#E27800"/><path d="M52 90a4 4 0 1 0-8 0 4 4 0 0 0 8 0z" fill="#F89700"/><path d="M58.342 82.622a2.5 2.5 0 0 0-3.063-1.516l-.156.053-4 1.5a2.5 2.5 0 0 0 1.6 4.734l.156-.052 4-1.5a2.5 2.5 0 0 0 1.463-3.22zM37.66 82.622a2.5 2.5 0 0 1 3.063-1.516l.156.053 4 1.5a2.5 2.5 0 0 1-1.6 4.734l-.156-.052-4-1.5a2.5 2.5 0 0 1-1.463-3.22z" fill="#E27800"/><path fill-rule="evenodd" clip-rule="evenodd" d="M5.818 21.693H28.32a1 1 0 0 0 .93-.634l6.287-15.984a1 1 0 0 1 1.504-.453l23.714 16.61a1 1 0 0 0 .547.181l9.945.26a1 1 0 0 1 .943.75l5.73 22.258a1 1 0 0 0 .338.527l13.599 11.015a1 1 0 0 1-.63 1.777H70.619a1 1 0 0 0-.894.553L63.6 70.803a1 1 0 0 1-1.577.284L48.397 58.37a1 1 0 0 0-.922-.24l-15.58 3.849a1 1 0 0 1-1.225-1.142l1.127-6.484a1 1 0 0 0-.985-1.17H17.06a1 1 0 0 1-.785-1.62l7.168-9.104a1 1 0 0 0-.089-1.336L5.122 23.41a1 1 0 0 1 .696-1.717z" fill="#FFB100"/><path fill-rule="evenodd" clip-rule="evenodd" d="M67.293 4.788L82.63 15.403a1 1 0 0 0 1.01.075l19.196-9.433a1 1 0 0 1 1.421.699l3.058 15.07c.089.434.453.759.895.797l16.455 1.412a1 1 0 0 1 .62 1.705l-11.632 11.588a1 1 0 0 0-.057 1.355l13.098 15.464a1 1 0 0 1-.833 1.643l-19.215-1.346a1 1 0 0 0-.952.527l-7.407 13.876a1 1 0 0 1-1.575.25L74.614 47.848a1 1 0 0 0-1.035-.219l-16.674 6.065a1 1 0 0 1-1.296-1.24l4.647-14.735a1 1 0 0 0-.46-1.171L39.973 25.325a1 1 0 0 1 .183-1.82l23.267-7.58a1 1 0 0 0 .676-.785l1.638-9.696a1 1 0 0 1 1.555-.656z" fill="#FFDF4A"/><path fill-rule="evenodd" clip-rule="evenodd" d="M94.769 44.962a3.5 3.5 0 1 1-.731 6.962 3.5 3.5 0 0 1 .731-6.962zm4.461-20.647a2 2 0 0 1 1.747 2.405l-3.325 15.634a1 1 0 0 1-1.083.786l-3.182-.334a1 1 0 0 1-.895-.995l-.003-15.983a2 2 0 0 1 2.21-1.989l4.531.476z" fill="#FFB100"/><path fill-rule="evenodd" clip-rule="evenodd" d="M44.57 43.73a3.5 3.5 0 1 1-1.929 6.728 3.5 3.5 0 0 1 1.93-6.729zm7.98-19.56a2 2 0 0 1 1.302 2.673l-5.99 14.818a1 1 0 0 1-1.202.587l-3.076-.882a1 1 0 0 1-.71-1.135l2.774-15.74a2 2 0 0 1 2.52-1.576l4.381 1.256z" fill="#FFDF4A"/><path fill-rule="evenodd" clip-rule="evenodd" d="M83.664 40.658a3.5 3.5 0 1 1 2.163 6.657 3.5 3.5 0 0 1-2.163-6.657zm-4.322-20.676a2 2 0 0 1 2.574 1.486l3.32 15.635a1 1 0 0 1-.669 1.158l-3.042.99a1 1 0 0 1-1.223-.545l-6.503-14.6a2 2 0 0 1 1.209-2.716l4.334-1.408z" fill="#FFB100"/></g><defs><clipPath id="clip0"><path fill="#fff" d="M0 0h135v124H0z"/></clipPath></defs></svg>