<svg viewBox="0 0 135 124" fill="none" xmlns="http://www.w3.org/2000/svg"><g clip-path="url(#clip0)"><path fill-rule="evenodd" clip-rule="evenodd" d="M28 11h79c9.389 0 17 7.611 17 17v79c0 9.389-7.611 17-17 17H28c-9.389 0-17-7.611-17-17V28c0-9.389 7.611-17 17-17z" fill="#303030"/><path fill-rule="evenodd" clip-rule="evenodd" d="M47.092 105H86.91a3 3 0 0 1 2.814 1.963l4.79 13A3 3 0 0 1 91.698 124H42.303a3 3 0 0 1-2.815-4.037l4.79-13A3 3 0 0 1 47.091 105z" fill="#FFD900"/><path fill-rule="evenodd" clip-rule="evenodd" d="M52 105l1 19H42.304a2.996 2.996 0 0 1-2.442-1.257L52.001 105zm10 0l5 19H53l9-19zm10 0l9 19H67l5-19zm10 0l12.141 17.742A2.987 2.987 0 0 1 91.698 124H81.001l1-19z" fill="#FFC800"/><path d="M101.306 49.856l-4.435-7.097-27.986 17.487 4.435 7.098 27.986-17.488zM48.353 75.163l.438-8.357-34.952-1.832-.438 8.358 34.952 1.832z" fill="#FF4B4B"/><path d="M123.307 40.325L111.05 30.04a9.5 9.5 0 0 0-13.384 1.171 9.5 9.5 0 0 0 1.171 13.384l12.257 10.285c4.019 3.372 10.011 2.848 13.384-1.171 3.372-4.02 2.848-10.012-1.171-13.384zm-14.185-7.987l12.256 10.285a6.5 6.5 0 1 1-8.356 9.959l-12.257-10.285a6.5 6.5 0 0 1 8.357-9.959z" fill="#585858"/><path d="M118.143 33.09l-5.362-4.5c-4.443-3.727-11.065-3.148-14.793 1.295-3.728 4.442-3.148 11.065 1.294 14.793l5.363 4.499c4.442 3.727 11.065 3.148 14.792-1.294 3.728-4.443 3.148-11.065-1.294-14.793zm-7.291-2.201l5.363 4.5a7.5 7.5 0 0 1 .924 10.566 7.5 7.5 0 0 1-10.566.924l-5.362-4.5a7.5 7.5 0 1 1 9.641-11.49z" fill="#585858"/><path d="M104.02 47.32a1.5 1.5 0 0 1 2.086.385c4.978 7.232 4.806 16.446-.363 27.474a8.425 8.425 0 0 0 4.002 11.181 1.5 1.5 0 1 1-1.291 2.708c-5.669-2.704-8.094-9.476-5.428-15.163 4.755-10.145 4.907-18.254.609-24.499a1.5 1.5 0 0 1 .385-2.086z" fill="#585858"/><path d="M107.803 44.349a6 6 0 1 0-12 0 6 6 0 0 0 12 0zM18 70a6 6 0 1 0-12 0 6 6 0 0 0 12 0z" fill="#FFC6B7"/><mask id="a" mask-type="alpha" maskUnits="userSpaceOnUse" x="31" y="28" width="56" height="70"><path d="M61.501 28.413l-23.59 7.212a8.37 8.37 0 0 0-5.556 10.45l14.006 45.81a8.37 8.37 0 0 0 10.45 5.557l23.59-7.212a8.37 8.37 0 0 0 5.556-10.45L71.952 33.97a8.37 8.37 0 0 0-10.45-5.557z" fill="#fff"/></mask><g mask="url(#a)"><path d="M61.501 28.413l-23.59 7.212a8.37 8.37 0 0 0-5.556 10.45l14.006 45.81a8.37 8.37 0 0 0 10.45 5.557l23.59-7.212a8.37 8.37 0 0 0 5.556-10.45L71.952 33.97a8.37 8.37 0 0 0-10.45-5.557z" fill="#FFC6B7"/><path fill-rule="evenodd" clip-rule="evenodd" d="M45.685 52.148l10.985.576-.13 2.497a5.5 5.5 0 1 1-10.985-.576l.13-2.497z" fill="#A54444"/><path fill-rule="evenodd" clip-rule="evenodd" d="M47.684 52.253l8.987.471-.052.999-7.925.462a1 1 0 0 1-1.057-1.05l.047-.882z" fill="#fff"/><path opacity=".332" d="M27.394 27.21L5.911 33.78a4.955 4.955 0 0 0-3.29 6.188L7.257 55.13a4.955 4.955 0 0 0 6.188 3.29l21.483-6.568a4.956 4.956 0 0 0 3.29-6.188l-4.636-15.164a4.956 4.956 0 0 0-6.188-3.29zM87.947 8.698l-21.483 6.568a4.955 4.955 0 0 0-3.29 6.188l4.636 15.164a4.955 4.955 0 0 0 6.188 3.29L95.48 33.34a4.956 4.956 0 0 0 3.29-6.187l-4.636-15.165a4.955 4.955 0 0 0-6.188-3.29z" fill="#FF9600"/><path d="M89.766 66.63L33.32 83.886l6.14 20.082 56.446-17.257-6.14-20.083z" fill="#585858"/><path fill-rule="evenodd" clip-rule="evenodd" d="M29.01 69.784l56.446-17.257 6.724 21.995-25.2 7.704a1 1 0 0 1-.934-.19l-2.382-1.999-.876 3a1 1 0 0 1-.668.675L35.734 91.78 29.01 69.784z" fill="#FF4B4B"/><path fill-rule="evenodd" clip-rule="evenodd" d="M39.635 66.469l36.34-11.11L61.02 71.433l-21.386-4.964z" fill="#585858"/><path fill-rule="evenodd" clip-rule="evenodd" d="M49.2 63.545l17.213-5.263-5.391 13.15-11.823-7.887z" fill="#fff"/><path fill-rule="evenodd" clip-rule="evenodd" d="M53.568 58.977l3.945.98 2.722-3.018a1 1 0 0 1 1.699.377l1.203 3.936a1 1 0 0 1-1.123 1.278l-3.917-.66-2.878 2.738a1 1 0 0 1-1.645-.432L52.37 60.24a1 1 0 0 1 1.197-1.263z" fill="#FF4B4B"/><path d="M60.199 79.005a2 2 0 1 0-3.825 1.17 2 2 0 0 0 3.825-1.17zM58.445 73.267a2 2 0 1 0-3.825 1.169 2 2 0 0 0 3.825-1.17zM69.761 76.081a2 2 0 1 0-3.825 1.17 2 2 0 0 0 3.825-1.17zM68.008 70.343a2 2 0 1 0-3.825 1.169 2 2 0 0 0 3.825-1.17z" fill="#FFD900"/></g><path d="M76.334 44.722a3.69 3.69 0 1 0-2.158-7.056 3.69 3.69 0 0 0 2.157 7.056zM34.525 57.504a3.69 3.69 0 1 0-2.157-7.056 3.69 3.69 0 0 0 2.157 7.056z" fill="#FFC6B7"/><path fill-rule="evenodd" clip-rule="evenodd" d="M45.05 37.82a5.192 5.192 0 0 1 6.483 3.447l.923 3.02a5.192 5.192 0 1 1-9.93 3.037l-.924-3.02a5.192 5.192 0 0 1 3.447-6.484z" fill="#fff"/><path fill-rule="evenodd" clip-rule="evenodd" d="M47.322 40.35a2.331 2.331 0 0 1 2.91 1.547l.857 2.8a2.331 2.331 0 0 1-4.459 1.363l-.8-2.611.108-.028a1.872 1.872 0 0 0 1.28-2.196l-.037-.142a1.87 1.87 0 0 0-.28-.56c.132-.07.272-.128.42-.174z" fill="#3D3D3D"/><path fill-rule="evenodd" clip-rule="evenodd" d="M56.669 34.267a5.192 5.192 0 0 1 6.483 3.447l.923 3.02a5.192 5.192 0 1 1-9.93 3.037l-.924-3.02a5.192 5.192 0 0 1 3.448-6.484z" fill="#fff"/><path fill-rule="evenodd" clip-rule="evenodd" d="M56.262 37.616a2.345 2.345 0 0 0-.418.174 1.872 1.872 0 0 1-.96 2.897l-.112.028.799 2.612a2.331 2.331 0 0 0 4.458-1.363l-.856-2.8a2.331 2.331 0 0 0-2.91-1.548z" fill="#3D3D3D"/><path d="M40.406 50.583c5.277-1.644 10.295-1.827 15.031-.539l.49.139-.654 2.218c-4.274-1.26-8.819-1.186-13.66.232l-.519.157-.688-2.207z" fill="#FFC6B7"/><path fill-rule="evenodd" clip-rule="evenodd" d="M55.377 51.13a2.04 2.04 0 0 0 1.352-2.549c-.33-1.078-3.058-3.033-3.058-3.033s-1.169 3.146-.839 4.224a2.04 2.04 0 0 0 2.545 1.357z" fill="#EE9583"/><path fill-rule="evenodd" clip-rule="evenodd" d="M49.326 102.528a2.588 2.588 0 0 1 2.588-2.588h7.488a2.588 2.588 0 1 1 0 5.176h-7.488a2.587 2.587 0 0 1-2.588-2.588zM79.638 99.79a2.588 2.588 0 0 1 .885-3.552l6.419-3.856a2.588 2.588 0 1 1 2.666 4.436l-6.42 3.857a2.588 2.588 0 0 1-3.55-.885zM17.735 18.25L50.12 1.03a2 2 0 0 1 2.772.965l8.818 20.187a2 2 0 0 1-.894 2.567L31.418 40.38a2 2 0 0 1-2.627-.694L16.985 21.087a2 2 0 0 1 .75-2.837z" fill="#585858"/><path fill-rule="evenodd" clip-rule="evenodd" d="M60.564 19.26l1.204 2.945a2 2 0 0 1-.912 2.523L31.38 40.4a2 2 0 0 1-2.602-.655l-1.767-2.644 33.552-17.84z" fill="#727272"/><path d="M70.36 17.45L20.031 44.21a2 2 0 1 0 1.877 3.531l50.328-26.76a2 2 0 0 0-1.877-3.531z" fill="#585858"/><path fill-rule="evenodd" clip-rule="evenodd" d="M44.241 28.492c3.169-1.684 7.105-.474 8.793 2.7l-11.473 6.1c-1.688-3.174-.488-7.115 2.68-8.8z" fill="#FF9600"/><path d="M41.168 37.501c3.382-1.798 4.69-5.955 2.92-9.285-1.77-3.329-5.949-4.57-9.33-2.771-3.385 1.799-4.692 5.956-2.922 9.285 1.77 3.33 5.948 4.57 9.332 2.771z" fill="#FF9600"/><path fill-rule="evenodd" clip-rule="evenodd" d="M84.783 30.024l-1.306 1.437a1.5 1.5 0 0 1-2.586-.742l-.346-1.91-1.77-.797a1.5 1.5 0 0 1-.093-2.69l1.71-.918.211-1.93a1.5 1.5 0 0 1 2.528-.92l1.403 1.342 1.9-.395a1.5 1.5 0 0 1 1.657 2.12l-.843 1.749.963 1.685a1.5 1.5 0 0 1-1.504 2.23l-1.924-.26zM8.61 41.28l-2.894.497A1.5 1.5 0 0 1 4.134 39.6L5.502 37l-1.367-2.6a1.5 1.5 0 0 1 1.582-2.176l2.895.497 2.05-2.104a1.5 1.5 0 0 1 2.559.832l.422 2.906 2.634 1.3a1.5 1.5 0 0 1 0 2.69l-2.634 1.3-.422 2.907a1.5 1.5 0 0 1-2.559.831l-2.05-2.103zM98.142 16.226l-2.646 2.911a1.5 1.5 0 0 1-2.586-.741l-.7-3.87-3.587-1.617a1.5 1.5 0 0 1-.094-2.689l3.465-1.863.43-3.91a1.5 1.5 0 0 1 2.527-.92l2.842 2.72 3.851-.8a1.5 1.5 0 0 1 1.657 2.12l-1.708 3.543 1.951 3.415a1.5 1.5 0 0 1-1.505 2.23l-3.897-.529z" fill="#FFD900"/></g><defs><clipPath id="clip0"><path fill="#fff" d="M0 0h135v124H0z"/></clipPath></defs></svg>