<svg viewBox="0 0 135 124" fill="none" xmlns="http://www.w3.org/2000/svg"><g clip-path="url(#clip0)"><path d="M107 11H28c-9.389 0-17 7.611-17 17v79c0 9.389 7.611 17 17 17h79c9.389 0 17-7.611 17-17V28c0-9.389-7.611-17-17-17z" fill="#F3F2F2"/><path d="M115.6 104H78.36a1.38 1.38 0 0 0-1.38 1.38v6.9c0 .762.618 1.38 1.38 1.38h37.24a1.38 1.38 0 0 0 1.38-1.38v-6.9a1.38 1.38 0 0 0-1.38-1.38z" fill="#DEDDDD"/><path d="M103.87 50.5h-8.03v59.34h8.03V50.5z" fill="#DEDDDD"/><path d="M80.664 62.34l-6.827-1.327a2.98 2.98 0 0 0-3.495 2.357l-1.706 8.779a2.98 2.98 0 0 0 2.357 3.494l6.827 1.327a2.98 2.98 0 0 0 3.495-2.357l1.706-8.778a2.98 2.98 0 0 0-2.357-3.495z" fill="silver"/><path fill-rule="evenodd" clip-rule="evenodd" d="M87.604 8.29c5.926 1.152 9.795 6.89 8.644 12.815l-8.816 45.353a4.968 4.968 0 0 1-5.825 3.93l-11.704-2.276a4.968 4.968 0 0 1-3.929-5.825l8.816-45.353c1.152-5.926 6.889-9.795 12.814-8.643z" fill="silver"/><path d="M119.064 62.513l6.777-1.564a2.981 2.981 0 0 1 3.575 2.234l2.011 8.713a2.98 2.98 0 0 1-2.234 3.575l-6.777 1.564a2.98 2.98 0 0 1-3.574-2.233l-2.012-8.714a2.981 2.981 0 0 1 2.234-3.575z" fill="silver"/><path fill-rule="evenodd" clip-rule="evenodd" d="M110.575 8.515c-5.881 1.358-9.549 7.227-8.191 13.108l10.394 45.019a4.967 4.967 0 0 0 5.958 3.723l11.617-2.682a4.968 4.968 0 0 0 3.724-5.959l-10.394-45.018c-1.358-5.881-7.226-9.549-13.108-8.19z" fill="silver"/><path fill-rule="evenodd" clip-rule="evenodd" d="M113.265 10.831l-14.796 1.555a1.878 1.878 0 0 0-1.679 1.77l-.09 1.72a2.843 2.843 0 0 0 3.137 2.975l12.077-1.269a3.755 3.755 0 0 0 3.358-3.54l.065-1.246a1.878 1.878 0 0 0-2.072-1.965z" fill="#B2B2B2"/><path fill-rule="evenodd" clip-rule="evenodd" d="M79.42 12.847h40.226a3.55 3.55 0 0 1 3.549 3.549v46.721a3.55 3.55 0 0 1-3.549 3.55H79.421a3.55 3.55 0 0 1-3.55-3.55V16.396a3.55 3.55 0 0 1 3.55-3.55z" fill="#fff"/><path fill-rule="evenodd" clip-rule="evenodd" d="M86.293 6.885h6.048v63.48a2.76 2.76 0 0 1-2.76 2.76H78.82a3.55 3.55 0 0 1-3.55-3.55v-.006l.095-51.775c.01-6.028 4.9-10.91 10.93-10.91zM112.632 6.885h-6.027v63.48a2.76 2.76 0 0 0 2.76 2.76h10.648a3.55 3.55 0 0 0 3.549-3.55v-51.76c0-6.037-4.893-10.93-10.93-10.93z" fill="#D1D1D1"/><path fill-rule="evenodd" clip-rule="evenodd" d="M112.364 3.848l-1.338-.548a29.71 29.71 0 0 0-22.248-.117l-1.927.767a5.033 5.033 0 0 0-.604 9.065l7.47 4.193a7.59 7.59 0 0 0 3.715.972h4.31a7.593 7.593 0 0 0 3.716-.972l7.469-4.193a5.1 5.1 0 0 0-.563-9.167z" fill="silver"/><path d="M99.858 5.23h-.65a7.098 7.098 0 0 0-7.098 7.099v7.883a7.098 7.098 0 0 0 7.098 7.099h.65a7.098 7.098 0 0 0 7.098-7.099v-7.883a7.098 7.098 0 0 0-7.098-7.099z" fill="#B2B2B2"/><path fill-rule="evenodd" clip-rule="evenodd" d="M106.629 7.658V40.33l8.83-31.055a2.367 2.367 0 0 0-1.742-2.952l-4.187-.97a2.367 2.367 0 0 0-2.901 2.305zM92.377 7.705v32.741l-8.588-30.59a2.366 2.366 0 0 1 1.431-2.849l3.943-1.512a2.366 2.366 0 0 1 3.214 2.21z" fill="silver"/><path d="M111.779 15.887a1.38 1.38 0 0 0-2.76 0v19.32a1.38 1.38 0 1 0 2.76 0v-19.32zM89.61 16.23a1.38 1.38 0 0 0-2.76 0v19.32a1.38 1.38 0 1 0 2.76 0V16.23z" fill="#fff"/><path d="M6.85 49.838c0-10.935 8.865-19.8 19.8-19.8s19.8 8.865 19.8 19.8v8.4c0 10.935-8.865 19.8-19.8 19.8s-19.8-8.865-19.8-19.8v-8.4z" fill="#DEDDDD"/><path d="M22.745 37.585h7.59v72.6h-7.59v-72.6z" fill="#DEDDDD"/><path d="M15.597 105.896h22.264c.839 0 1.518.679 1.518 1.518v4.554c0 .838-.68 1.518-1.518 1.518H15.597c-.838 0-1.518-.68-1.518-1.518v-4.554c0-.839.68-1.518 1.518-1.518z" fill="#DEDDDD"/><path d="M23.733 28.216h5.5a2.2 2.2 0 0 1 0 4.4h-5.5a2.2 2.2 0 0 1 0-4.4z" fill="silver"/><path d="M19.72 30.898h14.191c7.624 0 13.805 6.212 13.805 13.875v9.359c0 .534-.43.966-.962.966H6.877a.964.964 0 0 1-.961-.966v-9.359c0-7.663 6.18-13.875 13.804-13.875z" fill="#B2B2B2"/><path fill-rule="evenodd" clip-rule="evenodd" d="M53.676 49.065H17.244a6.072 6.072 0 0 0-6.072 6.072h42.504a3.036 3.036 0 1 0 0-6.072z" fill="silver"/><path d="M26.33 39.956h9.108c.838 0 1.518.68 1.518 1.518v3.036c0 .838-.68 1.518-1.518 1.518H26.33c-.838 0-1.518-.68-1.518-1.518v-3.036c0-.838.68-1.518 1.518-1.518z" fill="#F3F2F2"/><path fill-rule="evenodd" clip-rule="evenodd" d="M107 124H28c-7.182 0-13.324-4.454-15.815-10.751h110.63C120.325 119.546 114.183 124 107 124z" fill="#B2B2B2"/><path d="M67 82c0-5.523-4.477-10-10-10s-10 4.477-10 10v13c0 5.523 4.477 10 10 10s10-4.477 10-10V82z" stroke="#B2B2B2" stroke-width="5"/><path fill-rule="evenodd" clip-rule="evenodd" d="M37.805 82H72.36c6.288 0 11.385 5.097 11.385 11.385v16.445c0 2.096-1.699 3.795-3.795 3.795H36.54a3.795 3.795 0 0 1-3.795-3.795V87.06a5.06 5.06 0 0 1 5.06-5.06z" fill="silver"/><path fill-rule="evenodd" clip-rule="evenodd" d="M85.01 100.975c0 2.096-2.054 3.795-4.588 3.795H46.404c-2.534 0-4.588-1.699-4.588-3.795v-5.06H37.4c-2.443 0-4.44-1.58-4.58-3.572l-.008-.223v-5.06a5.06 5.06 0 0 1 5.06-5.06h38.283a8.855 8.855 0 0 1 8.855 8.855v10.12z" fill="#B2B2B2"/><path fill-rule="evenodd" clip-rule="evenodd" d="M37.25 84.394a4.5 4.5 0 0 1 4.5 4.5v12a4.5 4.5 0 0 1-9 0v-12a4.5 4.5 0 0 1 4.5-4.5z" fill="silver"/><path d="M71 101H58a2 2 0 0 0-2 2v3a2 2 0 0 0 2 2h13a2 2 0 0 0 2-2v-3a2 2 0 0 0-2-2z" fill="#F3F2F2"/><path d="M66.743 32.278l-3.536-3.536a1 1 0 0 0-1.414 0l-3.536 3.536a1 1 0 0 0 0 1.414l3.536 3.535a1 1 0 0 0 1.414 0l3.536-3.535a1 1 0 0 0 0-1.414zM54.778 20.778l-7.07-7.07a1 1 0 0 0-1.415 0l-7.071 7.07a1 1 0 0 0 0 1.414l7.07 7.072a1 1 0 0 0 1.415 0l7.071-7.072a1 1 0 0 0 0-1.414zM118.036 90.085l-2.122-2.121a2 2 0 0 0-2.828 0l-2.122 2.121a2 2 0 0 0 0 2.829l2.122 2.121a2 2 0 0 0 2.828 0l2.122-2.121a2 2 0 0 0 0-2.829z" fill="#fff"/></g><defs><clipPath id="clip0"><path fill="#fff" d="M0 0h135v124H0z"/></clipPath></defs></svg>