<svg id="Layer_3" data-name="Layer 3" xmlns="http://www.w3.org/2000/svg" viewBox="0 0 135 124"><defs><style>.cls-2{fill:#61361e}.cls-5{fill:#ac5b00}.cls-6{fill:#afafaf}.cls-7{fill:#777}</style></defs><path d="M124 28v79a17.43 17.43 0 0 1-.33 3.34q-.11.52-.24 1A17 17 0 0 1 107 124H28a16.94 16.94 0 0 1-16.43-12.64q-.13-.49-.24-1A17.43 17.43 0 0 1 11 107V28a17 17 0 0 1 17-17h79a17 17 0 0 1 17 17z" fill="#fecd92"/><path class="cls-2" d="M13.13 25.66h112.55v65H13.13a3.81 3.81 0 0 1-3.81-3.76V29.47a3.81 3.81 0 0 1 3.81-3.81z" transform="rotate(90 67.5 58.18)"/><path fill="#cb791d" d="M40.99 6.02h53.02v104.33H40.99z"/><rect x="59.27" y="19.25" width="16.46" height="55.27" rx="8.23" ry="8.23" fill="#7ff0f1"/><path class="cls-5" d="M67.5 76.69a10.41 10.41 0 0 1-10.4-10.4V27.48a10.41 10.41 0 1 1 20.81 0v38.81a10.42 10.42 0 0 1-10.41 10.4zm0-55.26a6.06 6.06 0 0 0-6 6.05v38.81a6 6 0 0 0 12.1 0V27.48a6.05 6.05 0 0 0-6.1-6.05zM40.99 6.02h53.02v3.94H40.99z"/><path class="cls-2" d="M35.58 104.39v6H11.34A17.43 17.43 0 0 1 11 107v-2.61zM124 104.39V107a17.43 17.43 0 0 1-.33 3.34H99.42v-6z"/><path class="cls-6" d="M89 51.16V64a1.9 1.9 0 0 1-1.91 1.9h-3.35a1.91 1.91 0 0 1-1.9-1.9V51.16a1.91 1.91 0 0 1 1.9-1.9h3.37a1.9 1.9 0 0 1 1.89 1.9z"/><path class="cls-7" d="M87 55.5v2.07a1.53 1.53 0 0 1-1.52 1.53h-3.64v-3.05h3.62z"/><rect x="75.86" y="53.97" width="11.13" height="3.05" rx="1.52" ry="1.52" fill="#cdcdcd"/><path class="cls-6" d="M79.39 85.62v3.61a1.55 1.55 0 0 1-1.56 1.55H57.18a1.55 1.55 0 0 1-1.55-1.55v-3.61a1.55 1.55 0 0 1 1.55-1.55h20.65a1.55 1.55 0 0 1 1.56 1.55z"/><path class="cls-7" d="M79.39 85.62v1.81H55.63v-1.81a1.55 1.55 0 0 1 1.55-1.55h20.65a1.55 1.55 0 0 1 1.56 1.55z"/><path d="M123.68 110.34q-.11.52-.24 1A17 17 0 0 1 107 124H28a16.94 16.94 0 0 1-16.43-12.64q-.13-.49-.24-1z" fill="#825035"/></svg>