<svg viewBox="0 0 135 124" version="1.1" xmlns="http://www.w3.org/2000/svg"><g stroke="none" stroke-width="1" fill="none" fill-rule="evenodd"><g fill="#FFC1C1"><g><g transform="translate(11 10.29)"><rect x="0" y=".71" width="113" height="113" rx="17"/></g></g></g><g transform="translate(65 -7)"><rect fill="#F29595" x="11.98" y="111" width="40" height="9.66" rx="1.38"/><path fill="#F29595" d="M30.841 57.5h8.029v59.34h-8.029z"/><g><rect fill="#D21E1E" transform="rotate(11 10.828 75.992)" x="4.37" y="68.54" width="12.917" height="14.904" rx="2.981"/><path d="M22.604 15.29c5.926 1.152 9.795 6.89 8.644 12.815l-8.816 45.353a4.968 4.968 0 0 1-5.825 3.93L4.903 75.111a4.968 4.968 0 0 1-3.929-5.825L9.79 23.934c1.152-5.926 6.889-9.795 12.814-8.644z" fill="#D21E1E"/><rect fill="#D21E1E" transform="scale(-1 1) rotate(13 0 -442.971)" x="52.67" y="68.54" width="12.917" height="14.904" rx="2.981"/><path d="M45.575 15.516c-5.882 1.358-9.549 7.226-8.191 13.108l10.393 45.018a4.968 4.968 0 0 0 5.959 3.723l11.617-2.682a4.968 4.968 0 0 0 3.723-5.958L58.683 23.707c-1.358-5.882-7.227-9.55-13.108-8.191z" fill="#D21E1E"/><g transform="scale(-1 1) rotate(6 -32.032 -546.303)"><path d="M10.792 16.437H25.67c.924 0 1.71.673 1.855 1.585l.268 1.702a2.843 2.843 0 0 1-2.808 3.286H12.841a3.756 3.756 0 0 1-3.71-3.17l-.194-1.232a1.878 1.878 0 0 1 1.855-2.17z" fill="#B2B2B2"/><path d="M44.662 14.904L4.657 19.11a3.55 3.55 0 0 0-3.158 3.9l4.883 46.466a3.55 3.55 0 0 0 3.901 3.16l40.004-4.206a3.55 3.55 0 0 0 3.16-3.9l-4.885-46.466a3.55 3.55 0 0 0-3.9-3.159z" fill="#FFF"/><path d="M37.204 9.694l-6.015.632 6.636 63.132a2.76 2.76 0 0 0 3.033 2.457L51.56 74.79a3.55 3.55 0 0 0 3.158-3.908l-5.505-51.48c-.641-5.995-6.015-10.338-12.01-9.708zM11.009 12.447l5.995-.63 6.635 63.132a2.76 2.76 0 0 1-2.456 3.033l-10.59 1.114a3.55 3.55 0 0 1-3.9-3.16L1.281 24.46c-.631-6.003 3.724-11.381 9.727-12.012z" fill="#FF4B4B"/><path d="M10.958 9.399l1.274-.686a29.711 29.711 0 0 1 22.114-2.44l1.997.56a5.033 5.033 0 0 1 1.548 8.952l-6.99 4.952a7.59 7.59 0 0 1-3.594 1.354l-4.286.45a7.59 7.59 0 0 1-3.798-.577l-7.866-3.39a5.1 5.1 0 0 1-.399-9.175z" fill="#D21E1E"/><rect fill="#4B4B4B" transform="scale(-1 1) rotate(6 0 -456.948)" x="17.594" y="9.372" width="14.846" height="22.08" rx="7.098"/><path d="M17.06 12.588l3.416 32.494L8.448 15.12a2.366 2.366 0 0 1 1.424-3.118l4.063-1.403a2.366 2.366 0 0 1 3.125 1.99zM31.24 11.145l3.422 32.562 5.343-31.32a2.366 2.366 0 0 0-1.72-2.683l-4.08-1.092a2.366 2.366 0 0 0-2.965 2.533z" fill="#D21E1E"/></g></g><rect fill="#FFF" x="44.018" y="21.507" width="2.76" height="22.08" rx="1.38"/><rect fill="#FFF" x="21.85" y="21.85" width="2.76" height="22.08" rx="1.38"/></g><g transform="matrix(-1 0 0 1 57 28)"><path fill="#F29595" d="M27 10h7.59v72.6H27z"/><rect fill="#F29595" x="18" y="78" width="25.3" height="7.59" rx="1.518"/><rect fill="#F29595" fill-rule="nonzero" x="11" y="5" width="39.6" height="44" rx="19.8"/><rect fill="#1CB0F6" x="26.2" y="0" width="9.9" height="4.4" rx="2.2"/><path d="M38.196 3H24.004C16.38 3 10.2 9.212 10.2 16.875v9.359c0 .533.43.966.962.966h39.876a.964.964 0 0 0 .962-.966v-9.36C52 9.213 45.82 3 38.196 3z" fill="#2B70C9" fill-rule="nonzero"/><path d="M3.324 21.064h36.432a6.072 6.072 0 0 1 6.072 6.072H3.324a3.036 3.036 0 0 1 0-6.072z" fill="#1CB0F6"/><rect fill="#DDF4FF" x="20.044" y="11.956" width="12.144" height="6.072" rx="1.518"/></g><path d="M107 124H28c-7.182 0-13.325-4.454-15.815-10.751h110.63C120.325 119.546 114.182 124 107 124z" fill="#A56644"/><g transform="translate(32 72)"><g><rect stroke="#519900" stroke-width="5" x="15" y="0" width="20" height="33" rx="10"/><g><path d="M5.805 10H40.36c6.288 0 11.385 5.097 11.385 11.385V37.83c0 2.096-1.7 3.795-3.795 3.795H4.54A3.795 3.795 0 0 1 .745 37.83V15.06A5.06 5.06 0 0 1 5.805 10z" fill="#6BB300"/><path d="M53.01 28.975c0 2.096-2.054 3.795-4.588 3.795H14.404c-2.534 0-4.589-1.7-4.589-3.795v-5.06H5.4c-2.444 0-4.44-1.58-4.58-3.572l-.008-.223v-5.06A5.06 5.06 0 0 1 5.872 10h38.283a8.855 8.855 0 0 1 8.855 8.855v10.12z" fill="#519900"/><path d="M5.25 12.393a4.5 4.5 0 0 1 4.5 4.5v12a4.5 4.5 0 1 1-9 0v-12a4.5 4.5 0 0 1 4.5-4.5z" fill="#6BB300"/></g></g><rect fill="#D7FEB8" x="24" y="29" width="17" height="7" rx="2"/></g><rect fill="#FFF" transform="rotate(45 62.5 32.985)" x="59" y="29.485" width="7" height="7" rx="1"/><rect fill="#FFF" transform="rotate(45 47 21.485)" x="41" y="15.485" width="12" height="12" rx="1"/><rect fill="#FFF" transform="rotate(45 114.5 91.5)" x="111" y="88" width="7" height="7" rx="2"/></g></svg>