<svg viewBox="0 0 135 124" fill="none" xmlns="http://www.w3.org/2000/svg"><path fill-rule="evenodd" clip-rule="evenodd" d="M28 11h79c9.389 0 17 7.611 17 17v79c0 9.389-7.611 17-17 17H28c-9.389 0-17-7.611-17-17V28c0-9.389 7.611-17 17-17z" fill="#A2A2A2"/><path d="M104 39.5C104 19.342 87.658 3 67.5 3S31 19.342 31 39.5 47.342 76 67.5 76 104 59.658 104 39.5z" fill="#D8D8D8"/><path fill-rule="evenodd" clip-rule="evenodd" d="M102.716 29.868l-.222.026c-.655.07-1.32.107-1.994.107h-4.786l-6.1 4.744a1 1 0 0 1-1.614-.79V29.17C80.47 26.828 75 19.803 75 11.5c0-2.62.545-5.114 1.528-7.373 12.702 3.23 22.744 13.124 26.188 25.741z" fill="#ECECEC"/><path d="M89.68 52.414l-5.674-1.953a2 2 0 0 0-1.302 3.782l5.673 1.953a2 2 0 0 0 1.302-3.782z" fill="#B3B3B3"/><path d="M93.517 44.15a2 2 0 1 0-3.984-.348l-.698 7.97a2 2 0 1 0 3.985.348l.698-7.97z" fill="#B3B3B3"/><path d="M98.076 44.712a2 2 0 0 0-3.734-1.434l-3.584 9.336a2 2 0 1 0 3.735 1.434l3.583-9.336z" fill="#B3B3B3"/><path d="M100.732 47.69a2 2 0 0 0-3.464-2l-4.5 7.794a2 2 0 1 0 3.464 2l4.5-7.794z" fill="#B3B3B3"/><path fill-rule="evenodd" clip-rule="evenodd" d="M89.11 48.85l4.606.449.037.02a5 5 0 1 1-6.86 2.261l-.914-.44c2.198.952 3.043-1.286 3.131-2.29z" fill="#B3B3B3"/><path fill-rule="evenodd" clip-rule="evenodd" d="M97.514 53.23l1.517 4.668a36.677 36.677 0 0 1-8.376 9.818l-3.927-12.085 10.786-2.401zM84.81 68.565l.355 2.881A36.336 36.336 0 0 1 67.498 76a36.344 36.344 0 0 1-22.557-7.802 9.99 9.99 0 0 1 7.882-5.78l20.843-2.56c5.482-.672 10.472 3.226 11.145 8.708z" fill="#979797"/><path d="M69.37 27.318C68.162 19.68 60.99 14.47 53.354 15.68c-7.637 1.21-12.847 8.381-11.638 16.018 1.21 7.636 8.381 12.847 16.018 11.637 7.637-1.21 12.847-8.38 11.638-16.017z" fill="#979797"/><path d="M80.266 32.173A9.5 9.5 0 1 0 61.5 35.146a9.5 9.5 0 0 0 18.766-2.973zM52.091 39.672a6.5 6.5 0 1 0-12.84 2.034 6.5 6.5 0 0 0 12.84-2.034z" fill="#979797"/><path fill-rule="evenodd" clip-rule="evenodd" d="M57.544 26.153c8.455-1.339 16.394 4.43 17.733 12.885l2.112 13.334a7 7 0 0 1-5.819 8.008l-16.79 2.66a7 7 0 0 1-8.009-5.819l-2.112-13.334c-1.339-8.455 4.43-16.395 12.885-17.734z" fill="#B3B3B3"/><path d="M65.403 29.448l-4.999-.087a1.5 1.5 0 0 0-.052 3l4.999.087a1.5 1.5 0 1 0 .052-3zM56.135 31.17l-4.806 1.377a1.5 1.5 0 1 0 .827 2.884l4.806-1.378a1.5 1.5 0 0 0-.827-2.884z" fill="#979797"/><path fill-rule="evenodd" clip-rule="evenodd" d="M53.633 49.133l10.94 1.15-.157 1.491a5.5 5.5 0 0 1-10.94-1.15l.157-1.491z" fill="#979797"/><path d="M81.987 43.038a3.5 3.5 0 1 0-6.914 1.095 3.5 3.5 0 0 0 6.914-1.095zM46.43 48.67a3.5 3.5 0 1 0-6.914 1.094 3.5 3.5 0 0 0 6.914-1.095z" fill="#B3B3B3"/><path fill-rule="evenodd" clip-rule="evenodd" d="M60.047 41.957l2.153 2.088a2.25 2.25 0 1 1-3.556.564l1.403-2.652z" fill="#979797"/><path d="M51.674 42.483a3.954 3.954 0 0 1 7.61-1.205.875.875 0 1 1-1.623.655 2.204 2.204 0 0 0-4.242.672.875.875 0 1 1-1.745-.122zM60.562 41.075a3.954 3.954 0 0 1 7.61-1.205.875.875 0 0 1-1.622.655 2.204 2.204 0 0 0-4.242.672.875.875 0 0 1-1.746-.122z" fill="#979797"/><path d="M56 94.5C56 84.283 47.717 76 37.5 76S19 84.283 19 94.5 27.283 113 37.5 113 56 104.717 56 94.5z" fill="#CECECE"/><path d="M117 94.5c0-10.217-8.283-18.5-18.5-18.5S80 84.283 80 94.5 88.283 113 98.5 113s18.5-8.283 18.5-18.5z" fill="#BFBFBF"/><path fill-rule="evenodd" clip-rule="evenodd" d="M103.341 88c4.23 0 7.659 3.496 7.659 7.81 0 .379-.027.758-.081 1.133a2.447 2.447 0 0 1-.075.346 4.652 4.652 0 0 1-.122.65l-.541 2.061-8.58-2.344.542-2.062a4.383 4.383 0 0 1 1.86-2.573 2.71 2.71 0 0 0-.508-.077l-.154-.004H93.66a2.764 2.764 0 0 0-.62.07 4.388 4.388 0 0 1 1.866 2.543l.011.041.542 2.062-8.58 2.344-.541-2.061a4.532 4.532 0 0 1-.082-.372 2.487 2.487 0 0 1-.174-.624c-.614-4.267 2.281-8.234 6.466-8.86.276-.042.554-.067.833-.078L93.66 88h9.681zM29.094 98.139c-3.465-2.427-4.268-7.257-1.795-10.79.218-.311.457-.606.717-.883.082-.087.169-.167.26-.24.144-.163.301-.318.472-.463l1.626-1.377 5.684 6.841-1.626 1.378a4.388 4.388 0 0 1-3 1.041c.11.127.234.246.371.354l.124.092 7.93 5.553a2.755 2.755 0 0 0 .548.297 4.388 4.388 0 0 1-.055-3.193l.739-2 8.373 3.002-.739 2c-.044.12-.093.236-.147.35a2.486 2.486 0 0 1-.215.611c-1.945 3.848-6.591 5.437-10.379 3.549a7.494 7.494 0 0 1-.727-.414l-.23-.156-7.931-5.552z" fill="#fff"/></svg>