<svg viewBox="0 0 135 124" fill="none" xmlns="http://www.w3.org/2000/svg"><g clip-path="url(#clip0)"><path d="M107 11H28c-9.389 0-17 7.611-17 17v79c0 9.389 7.611 17 17 17h79c9.389 0 17-7.611 17-17V28c0-9.389-7.611-17-17-17z" fill="#FFC800"/><path d="M135.26 32.62c0-17.414-14.116-31.53-31.53-31.53-17.413 0-31.53 14.116-31.53 31.53v15.02c0 17.413 14.117 31.53 31.53 31.53 17.414 0 31.53-14.117 31.53-31.53V32.62z" fill="#FFB100"/><path d="M130.58 33.69v12.7a25.972 25.972 0 0 1-.28 3.86 26.63 26.63 0 0 1-.6 3 27.724 27.724 0 0 1-2.23 5.68 26.68 26.68 0 0 1-50.23-12.54v-12.7c0-1.45.116-2.898.35-4.33.14-.852.324-1.696.55-2.53a24.9 24.9 0 0 1 2-5.26c.062-.143.132-.284.21-.42a26.67 26.67 0 0 1 50.21 12.54h.02z" fill="#FFD900"/><path d="M78.14 26.83a25.907 25.907 0 0 1 2.23-5.68h24.13a4.327 4.327 0 0 1 4.008 2.676 4.327 4.327 0 0 1-.948 4.724 4.38 4.38 0 0 1-3.06 1.26h-25a4.35 4.35 0 0 1-1.93-.45l.57-2.53z" fill="#FFE865"/><path d="M95.89 17.24a4.34 4.34 0 0 1-4.33 4.33h-11.4c.062-.143.132-.284.21-.42a26.62 26.62 0 0 1 6.85-8.25h4.34a4.35 4.35 0 0 1 4.33 4.34zM51.66 85.27H19.5A18.631 18.631 0 0 1 1 64.41l3.57-29.64.2-1.66a31 31 0 0 1 61.61 0l3.74 31.3a18.61 18.61 0 0 1-18.46 20.86z" fill="#FFE865"/><path d="M41.81 0h-6.4a11.62 11.62 0 0 0-11.32 9l-.78 3.47 45.41 52.75-3.17-43.17A23.81 23.81 0 0 0 41.81 0z" fill="#FFE865"/><path d="M49 77.67A7.67 7.67 0 0 1 59.57 80l21 32.2a7.682 7.682 0 0 1-5.063 11.724 7.659 7.659 0 0 1-5.743-1.234 7.667 7.667 0 0 1-2.084-2.15l-21-32.21A7.671 7.671 0 0 1 49 77.67z" fill="#FFB100"/><path d="M27.98 124H70.8l-2.46-10.33-6.69-28.47a12.86 12.86 0 0 0-2.27-5.48 11.2 11.2 0 0 0-1.56-1.8l-.07-.06a12.83 12.83 0 0 0-8.88-3.54H22.73c-3.91 0-8.31 1-10.89 3.23-.293.206-.574.43-.84.67V107a16.998 16.998 0 0 0 16.98 17z" fill="#FFB100"/><path d="M85.36 86.21l12.81 8.44L81 120.5a7.679 7.679 0 0 1-13.924-2.687 7.67 7.67 0 0 1 1.104-5.763l17.18-25.84z" fill="#FFB100"/><path d="M27 63.85h18.63v10.82A9.33 9.33 0 0 1 36.3 84a9.33 9.33 0 0 1-9.3-9.33V63.85z" fill="#FFC800"/><path d="M15.4 51.83c0 12.68 10.28 22.96 22.96 22.96 12.68 0 22.96-10.28 22.96-22.96V33.5c0-12.68-10.28-22.96-22.96-22.96-12.68 0-22.96 10.28-22.96 22.96v18.33z" fill="#FFC800"/><path d="M39.17 36.79a6.98 6.98 0 1 0-13.96 0v5.37a6.98 6.98 0 0 0 13.96 0v-5.37z" fill="#FFE865"/><path d="M39.17 36.79a6.98 6.98 0 1 0-13.96 0v5.37a6.98 6.98 0 0 0 13.96 0v-5.37z" fill="#FFE75E"/><path d="M36.8 39.91a2.807 2.807 0 0 0-2.805-2.81 2.807 2.807 0 0 0-2.805 2.81v3.55a2.807 2.807 0 0 0 2.805 2.81 2.807 2.807 0 0 0 2.805-2.81v-3.55z" fill="#F89700"/><path d="M44.61 42.15a6.98 6.98 0 0 0 13.96 0v-5.37a6.98 6.98 0 1 0-13.96 0v5.37z" fill="#FFE865"/><path d="M50.58 43.46a2.807 2.807 0 0 0 2.805 2.81 2.807 2.807 0 0 0 2.805-2.81v-3.55a2.807 2.807 0 0 0-2.805-2.81 2.807 2.807 0 0 0-2.805 2.81v3.55z" fill="#F89700"/><path d="M41.11 47.52a2.08 2.08 0 0 0 4.16 0V34.31a2.08 2.08 0 0 0-4.16 0v13.21z" fill="#FFB100"/><path d="M43.21 52.14a3.73 3.73 0 1 0 0-7.46 3.73 3.73 0 0 0 0 7.46zM16.3 48.62a7.69 7.69 0 0 1 0-15.37v15.37z" fill="#FFB100"/><path d="M29.64 9.55h19.57A12.42 12.42 0 0 1 61.63 22v12h-9.7a22.29 22.29 0 0 1-22.29-22.3V9.55z" fill="#FFE865"/><path d="M29.88 10.53c0 13.55-10.49 24.55-23.43 24.55H5.38l.2-1.69a31.73 31.73 0 0 1 13-22.86h11.3z" fill="#FFE865"/><path d="M49.06 122.4l-5.31-7.68a1.78 1.78 0 0 0-.24-.3 11.825 11.825 0 0 0-11-6.74l-7.79.18v.45l.49 15.39.46.07c.782.113 1.57.169 2.36.17h10.08l4.49-.13.1.14h6.89a3.002 3.002 0 0 0-.53-1.55zM107.011 81.224l-12.85-8.434-8.856 13.493 12.849 8.434 8.857-13.493z" fill="#FFC800"/><path d="M92.17 66.54A3.43 3.43 0 0 1 95.6 70v11.51h-6.86V70a3.43 3.43 0 0 1 3.43-3.46z" fill="#FFC800"/><path d="M114.15 49.31H97.14a3.77 3.77 0 0 0-3.77 3.77v32.01a3.77 3.77 0 0 0 3.77 3.77h17.01a3.77 3.77 0 0 0 3.77-3.77V53.08a3.77 3.77 0 0 0-3.77-3.77z" fill="#F89700"/><path d="M112.41 52.74H98.54a1.57 1.57 0 0 0-1.57 1.57v25.25c0 .867.703 1.57 1.57 1.57h13.87a1.57 1.57 0 0 0 1.57-1.57V54.31a1.57 1.57 0 0 0-1.57-1.57z" fill="#FFB100"/><path d="M111.53 54.96h-10.27c-.9 0-1.63.73-1.63 1.63v3.27c0 .9.73 1.63 1.63 1.63h10.27c.9 0 1.63-.73 1.63-1.63v-3.27c0-.9-.73-1.63-1.63-1.63zM110 64H99.43a1.68 1.68 0 0 0-1.68 1.68v3.36c0 .928.752 1.68 1.68 1.68H110a1.68 1.68 0 0 0 1.68-1.68v-3.36A1.68 1.68 0 0 0 110 64zM111.71 73.76h-8.5a1.35 1.35 0 0 0-1.35 1.35v2.71c0 .745.604 1.35 1.35 1.35h8.5a1.35 1.35 0 0 0 1.35-1.35v-2.71a1.35 1.35 0 0 0-1.35-1.35z" fill="#FFE865"/><path d="M105.69 86.55a1.7 1.7 0 1 0 0-3.4 1.7 1.7 0 0 0 0 3.4z" fill="#FFB100"/><path d="M94.701 64.875l-4.145 1.923a3.12 3.12 0 0 0 2.626 5.66l4.146-1.923a3.12 3.12 0 0 0-2.627-5.66z" fill="#FFC800"/><path d="M42.15 60.59A11.9 11.9 0 0 1 34 56.94 1.42 1.42 0 0 1 36 55c.22.23 5.37 5.46 10.85.9a1.42 1.42 0 1 1 1.82 2.18 10.06 10.06 0 0 1-6.52 2.51z" fill="#FFB100"/></g><defs><clipPath id="clip0"><path fill="#fff" d="M0 0h135v124H0z"/></clipPath></defs></svg>