<svg viewBox="0 0 135 124" fill="none" xmlns="http://www.w3.org/2000/svg"><path d="M107 11H28c-9.389 0-17 7.611-17 17v79c0 9.389 7.611 17 17 17h79c9.389 0 17-7.611 17-17V28c0-9.389-7.611-17-17-17z" fill="#B2B2B2"/><path d="M42.519 13.751c-.008-.17-.02-.341-.037-.513-.56-5.776-5.696-10.006-11.473-9.447-5.777.56-10.006 5.696-9.447 11.473.549 5.668 5.504 9.846 11.147 9.474.008.17.02.341.037.513.56 5.776 5.696 10.006 11.472 9.447 5.777-.56 10.007-5.696 9.448-11.473-.55-5.668-5.504-9.847-11.147-9.474z" fill="#979797"/><path d="M13.657 39.142c-.674-6.962 4.424-13.153 11.387-13.828l38.219-3.7c6.963-.674 13.154 4.424 13.828 11.387l2.476 25.576c.674 6.963-4.424 13.154-11.386 13.828l-38.22 3.7c-6.963.675-13.154-4.423-13.828-11.386l-2.476-25.577z" fill="#E5E5E5"/><path d="M20.546 26.616c-4.52 2.288-7.407 7.18-6.89 12.527l.942 9.72.462-.046a7.6 7.6 0 0 0 6.832-8.296l-1.346-13.905zM67.926 22.029c4.876 1.378 8.647 5.625 9.165 10.972l.94 9.72-.462.044a7.6 7.6 0 0 1-8.297-6.832L67.926 22.03z" fill="#CECECE"/><path d="M13.621 57.243a5.678 5.678 0 1 0-1.094-11.304 5.678 5.678 0 0 0 1.094 11.304zM80.598 50.758a5.678 5.678 0 1 0-1.094-11.304 5.678 5.678 0 0 0 1.094 11.304z" fill="#E5E5E5"/><path fill-rule="evenodd" clip-rule="evenodd" d="M53.59 23.32a7.992 7.992 0 0 0-7.184 8.724l.468 4.839a7.992 7.992 0 1 0 15.91-1.54l-.469-4.84a7.992 7.992 0 0 0-8.725-7.184zM34.864 25.132a7.992 7.992 0 0 1 8.725 7.185l.468 4.838a7.992 7.992 0 1 1-15.909 1.54l-.468-4.838a7.992 7.992 0 0 1 7.184-8.725z" fill="#fff"/><path d="M45.077 33.002c.145-.014 1.613 1.883 3.115 3.878 1.494 1.986.224 4.824-2.249 5.063-2.473.24-4.264-2.302-3.178-4.537 1.09-2.246 2.168-4.39 2.312-4.404z" fill="#BFBFBF"/><path d="M32.185 62.951c-.837-8.64 5.49-16.323 14.13-17.16 8.64-.836 16.324 5.49 17.16 14.13l.217 2.237a5.349 5.349 0 0 1-5.432 5.863l-1.663-.034a69.539 69.539 0 0 0-16.114 1.56l-1.626.352a5.349 5.349 0 0 1-6.456-4.712l-.216-2.236z" fill="#979797"/><path d="M58.178 68.02l-1.581-.033a69.543 69.543 0 0 0-16.114 1.56l-1.545.335-.823-8.5 19.24-1.863.823 8.5z" fill="#AFAFAF"/><path fill-rule="evenodd" clip-rule="evenodd" d="M27.456 34.459a8.694 8.694 0 0 1 1.02-5.333 8.694 8.694 0 0 1 3.978-3.694 3.586 3.586 0 1 1 2.998 6.515c-.287.133-.534.351-.701.654a1.522 1.522 0 0 0-.182.941 3.586 3.586 0 1 1-7.113.917zM46.312 32.633a8.694 8.694 0 0 1 1.02-5.332 8.694 8.694 0 0 1 3.978-3.695 3.586 3.586 0 0 1 2.998 6.516c-.287.132-.534.35-.701.653a1.522 1.522 0 0 0-.182.942 3.586 3.586 0 0 1-7.113.916z" fill="#9F9F9F"/><path d="M94.723 60.42l5.51 8.992c.334.545.803.994 1.362 1.304l6.501 3.607c.62.344 1.128.859 1.465 1.483l19.61 36.422a3.705 3.705 0 0 1-3.262 5.461H64.626a3.705 3.705 0 0 1-3.456-5.039l6.327-16.387a3.705 3.705 0 0 1 1.195-1.6l4.763-3.67c.463-.357.836-.82 1.087-1.349L88.216 60.77a3.704 3.704 0 0 1 6.507-.35z" fill="#BFBFBF"/><path opacity=".75" d="M91.788 117.689l3.62-14.069a1.852 1.852 0 0 0-2.252-2.256l-6.677 1.704a1.851 1.851 0 0 1-2.275-2.151l8.267-42.155a3.72 3.72 0 0 1 2.252 1.657l5.51 8.993c.334.545.803.994 1.362 1.304l6.501 3.607c.62.344 1.128.859 1.465 1.483l19.61 36.422a3.705 3.705 0 0 1-3.262 5.461H91.788z" fill="#9F9F9F"/><path d="M110.469 41.03l.09.948a2.1 2.1 0 0 1-1.889 2.288 2.095 2.095 0 0 1-2.175-1.392c-1.073 1.073-2.963.628-3.447-.81a2.094 2.094 0 0 1-2.567.277 2.099 2.099 0 0 1-.672-2.89l.503-.809-.653-.153a5.506 5.506 0 0 1-4.1-6.62l.827-3.515a9.117 9.117 0 0 1 10.961-6.789l4.942 1.162a9.118 9.118 0 0 1 6.789 10.961l-.827 3.515a5.505 5.505 0 0 1-6.619 4.1l-1.163-.273zm-6.232-11.165a2.227 2.227 0 0 0-2.677 1.658l-.361 1.538a2.225 2.225 0 1 0 4.334 1.02l.361-1.539a2.225 2.225 0 0 0-1.657-2.677zm7.139 1.679a2.226 2.226 0 0 0-2.677 1.657l-.361 1.538a2.225 2.225 0 1 0 4.334 1.02l.361-1.539a2.225 2.225 0 0 0-1.657-2.676zm-4.506 5.115a.524.524 0 0 0-.879-.207l-1.067 1.115a.524.524 0 0 0 .258.873l1.527.359a.524.524 0 0 0 .621-.667l-.46-1.473z" fill="#CECECE"/><path fill-rule="evenodd" clip-rule="evenodd" d="M112.942 47.817a3.943 3.943 0 1 0-.584-3.177l-19.442 3.576a2.866 2.866 0 1 0 .584 3.176l19.442-3.575z" fill="#CECECE"/><path d="M96.71 39.123a3.43 3.43 0 0 1 1.288 3.497l13.753 10.318a2.492 2.492 0 1 1-1.686 2.247L96.313 44.867a3.43 3.43 0 1 1 .397-5.743z" fill="#CECECE"/><path d="M24.278 82.29l22.004-3.014a4.313 4.313 0 1 1 1.17 8.547L25.45 90.836a4.313 4.313 0 0 1-1.17-8.547z" fill="#BFBFBF"/><path d="M36.573 80.606l3.411-.468a3.935 3.935 0 0 1 4.433 3.365l.103.75a3.935 3.935 0 0 1-3.365 4.432l-3.411.468a3.935 3.935 0 0 1-4.433-3.365l-.102-.75a3.935 3.935 0 0 1 3.364-4.432z" fill="#979797"/><path d="M36.086 80.672l1.95-.267a3.935 3.935 0 0 1 4.432 3.365l.102.75a3.935 3.935 0 0 1-3.364 4.432l-1.95.267a3.935 3.935 0 0 1-4.432-3.364l-.103-.75a3.935 3.935 0 0 1 3.365-4.433z" fill="#BFBFBF"/><path d="M29.264 81.607l3.41-.468a3.935 3.935 0 0 1 4.433 3.365l.103.75a3.935 3.935 0 0 1-3.365 4.432l-3.411.467A3.935 3.935 0 0 1 26 86.79l-.102-.75a3.935 3.935 0 0 1 3.364-4.432z" fill="#979797"/><path d="M28.776 81.673l1.95-.267a3.935 3.935 0 0 1 4.432 3.365l.103.75a3.935 3.935 0 0 1-3.365 4.432l-1.95.267a3.935 3.935 0 0 1-4.432-3.364l-.102-.75a3.935 3.935 0 0 1 3.364-4.433z" fill="#BFBFBF"/><path d="M24.278 82.29l.853-.118a4.313 4.313 0 1 1 1.17 8.547l-.853.117a4.313 4.313 0 0 1-1.17-8.547z" fill="#979797"/><path d="M29.054 90.342l16.991-2.326a2.585 2.585 0 0 1 2.912 2.21l2.806 20.489a2.585 2.585 0 0 1-2.21 2.912l-16.991 2.327a2.586 2.586 0 0 1-2.912-2.211l-2.806-20.489a2.585 2.585 0 0 1 2.21-2.912z" fill="#D8D8D8"/><path d="M26.326 90.716l2.514-.344c.955-.131 1.841.582 1.98 1.592l3.005 21.953c.139 1.01-.523 1.935-1.478 2.066l-2.513.344c-.955.131-1.841-.582-1.98-1.592l-3.006-21.953c-.138-1.01.524-1.935 1.479-2.066z" fill="#BFBFBF"/><path d="M24.223 99.783l3.319-.454a1.846 1.846 0 0 1 2.08 1.578l1.826 13.336a1.846 1.846 0 0 1-1.58 2.079l-3.318.455a1.847 1.847 0 0 1-2.08-1.579l-1.826-13.335a1.846 1.846 0 0 1 1.58-2.08z" fill="#BFBFBF"/><path fill-rule="evenodd" clip-rule="evenodd" d="M55.085 98.399a3.693 3.693 0 0 0-4.16-3.158l-4.39.601a1.477 1.477 0 1 0 .4 2.927l4.391-.601a.739.739 0 0 1 .832.632l1.146 8.369a.738.738 0 0 1-.631.832l-4.39.601a1.478 1.478 0 0 0 .4 2.927l4.39-.601a3.693 3.693 0 0 0 3.158-4.16l-1.146-8.37zM43.37 100.003a3.693 3.693 0 0 0-4.16-3.158l-4.39.602a1.477 1.477 0 1 0 .401 2.926l4.39-.6a.739.739 0 0 1 .833.631l1.146 8.369a.738.738 0 0 1-.632.832l-4.39.601a1.478 1.478 0 0 0 .4 2.927l4.391-.601a3.693 3.693 0 0 0 3.158-4.16l-1.146-8.369z" fill="#979797"/><path d="M26.972 90.627l.874-.12 2.389 17.445-.874.12-2.389-17.445z" fill="#979797"/><path d="M29.244 108.197a.37.37 0 0 1 .32-.363l.413-.056a.369.369 0 0 1 .404.264l.65 2.264a.369.369 0 0 1-.305.467l-1.08.148a.369.369 0 0 1-.419-.368l.017-2.356z" fill="#EFECE9"/><path d="M35.009 61.683a4.792 4.792 0 0 1 4.307-5.231L55.23 54.91a4.792 4.792 0 0 1 .923 9.539l-7.956.77-7.956.77a4.792 4.792 0 0 1-5.231-4.307z" fill="#BFBFBF"/><path opacity=".75" d="M115.564 86.957l-2.587 2.407c-.7.65-1.779.662-2.493.027l-4.89-4.352a1.852 1.852 0 0 0-2.788.38l-4.397 6.818a1.852 1.852 0 0 1-3.264-.286l-4.552-10.835a1.852 1.852 0 0 0-3.058-.55l-4.087 4.355a1.852 1.852 0 0 1-2.901-.253l-2.116-3.236 9.785-20.663a3.705 3.705 0 0 1 6.507-.35l5.51 8.993c.334.545.803.994 1.362 1.304l6.501 3.607c.62.344 1.128.859 1.465 1.483l6.003 11.151z" fill="#FFFBF8"/></svg>