<svg viewBox="0 0 135 124" fill="none" xmlns="http://www.w3.org/2000/svg"><path d="M124 28v79c0 9.389-7.611 17-17 17H28c-9.389 0-17-7.611-17-17V28c0-9.389 7.611-17 17-17h79a17 17 0 0 1 17 17z" fill="#FC4D50"/><path d="M96.5 113.75H36.88l3.17-19.56a11.64 11.64 0 0 1 11.45-9.78h29a11.65 11.65 0 0 1 11.35 9l4.65 20.34z" fill="#FDB02A"/><path d="M106.39 110.72L90.15 89.56l-24.19 18-24.18-18-16.28 21.16a8.15 8.15 0 0 0 6.47 13.11H99.9a8.14 8.14 0 0 0 6.46-13.11h.03z" fill="#FDB02A"/><path d="M55.06 20.096l-12.853 3.003a2.94 2.94 0 0 1-3.532-2.194 2.94 2.94 0 0 1 2.218-3.517l12.835-2.999 1.333 5.707z" fill="#603621"/><path d="M55.863 23.03l-10.737-8.605a3.06 3.06 0 0 1 3.827-4.776l10.737 8.605-3.827 4.776z" fill="#603621"/><path d="M68.77 37.78c9.085 0 16.45-7.365 16.45-16.45 0-9.085-7.365-16.45-16.45-16.45-9.085 0-16.45 7.365-16.45 16.45 0 9.085 7.365 16.45 16.45 16.45z" fill="#603621"/><path d="M41.76 69.93a8.87 8.87 0 0 1-8.73-10.46l5.47-29.91c.8-5.38 4.95-10 11-13A35.941 35.941 0 0 1 65.37 13a35.001 35.001 0 0 1 18.13 4.75c4.47 2.77 7.62 6.56 8.59 10.88.07.31.12.61.17.93l5.8 29.8a8.88 8.88 0 0 1-8.71 10.57H41.76z" fill="#603621"/><path d="M89.4 79.12a3.71 3.71 0 0 1-3.53-4.84l3.53-11.12 3.54 11.12a3.72 3.72 0 0 1-3.54 4.84zM41.58 79.61a3.71 3.71 0 0 1-3.53-4.84l3.53-11.11 3.54 11.11a3.72 3.72 0 0 1-3.54 4.84z" fill="#FDB02A"/><path d="M75.52 86.87l-10.35 17.25-10.33-17.25V73.09h20.68v13.78z" fill="#DE8366"/><path d="M73.87 77.17H56.49a11.91 11.91 0 0 1-11.91-11.91v-25.1a20.6 20.6 0 0 1 20.6-20.6c11.377 0 20.6 9.223 20.6 20.6v25.1c0 6.578-5.332 11.91-11.91 11.91z" fill="#E59B80"/><path d="M62.71 43.1a6.26 6.26 0 0 0-12.52 0v4.81a6.26 6.26 0 0 0 12.52 0V43.1z" fill="#fff"/><path d="M60.39 44.105a2.515 2.515 0 1 0-5.03 0v3.19a2.515 2.515 0 1 0 5.03 0v-3.19z" fill="#4B4B4B"/><path d="M67.66 47.92a6.26 6.26 0 0 0 12.52 0v-4.81a6.26 6.26 0 0 0-12.52 0v4.81z" fill="#fff"/><path d="M69.99 47.295a2.515 2.515 0 1 0 5.03 0v-3.19a2.515 2.515 0 1 0-5.03 0v3.19z" fill="#4B4B4B"/><path d="M63.22 51.46a1.95 1.95 0 1 0 3.9 0V34.79a1.95 1.95 0 0 0-3.9 0v16.67z" fill="#DC7D5E"/><path d="M65.17 56.86a3.45 3.45 0 1 0 0-6.9 3.45 3.45 0 0 0 0 6.9z" fill="#DC7D5E"/><path d="M69.69 4.91h13.2a2.94 2.94 0 1 1 0 5.88h-13.2V4.91z" fill="#603621"/><path d="M70.5 6.86L59.97 14.8l-1-6.6 8-6a2.94 2.94 0 0 1 4.12.58 2.94 2.94 0 0 1-.59 4.08zM78.682 8.549L91.33 12.33a2.94 2.94 0 1 1-1.685 5.633l-12.646-3.782 1.684-5.633z" fill="#603621"/><path d="M85.386 14.712l10.3 8.255a2.94 2.94 0 0 1 .456 4.133 2.94 2.94 0 0 1-4.14.463l-10.3-8.255 3.684-4.596z" fill="#603621"/><path d="M88.046 21.28l7.577 10.81a2.94 2.94 0 0 1-4.815 3.374l-7.577-10.808 4.815-3.375zM47.913 25.387l-9.334 9.334a2.94 2.94 0 0 1-4.2-.042 2.94 2.94 0 0 1 0-4.158l9.334-9.334 4.2 4.2z" fill="#603621"/><path d="M43.904 35.107L37.29 46.564a2.94 2.94 0 0 1-4.016 1.076 2.94 2.94 0 0 1-1.067-4.01l6.615-11.458 5.084 2.935z" fill="#603621"/><path d="M41.926 47.072l-3.782 12.647a2.94 2.94 0 0 1-3.717 1.957 2.94 2.94 0 0 1-1.974-3.66l3.782-12.646 5.691 1.702zM72.743 16.606l10.3 8.255a2.94 2.94 0 0 1 .418 4.18 2.94 2.94 0 0 1-4.132.455l-10.3-8.255 3.714-4.635z" fill="#603621"/><path d="M61.945 15.354l11.431 6.6a2.94 2.94 0 0 1 1.052 3.98 2.94 2.94 0 0 1-4.016 1.075l-11.397-6.58 2.93-5.074z" fill="#603621"/><path d="M52.918 16.747l11.995 5.51a2.94 2.94 0 1 1-2.454 5.343l-11.995-5.51 2.454-5.343z" fill="#603621"/><path d="M54.07 18.55l-1.3 7.73a15.9 15.9 0 0 1-3.4 7.47l-1.22 1.48a15.85 15.85 0 0 0-3.65 10.1v4.16l-5.24.66 3.8-23.82 10.44-9.24" fill="#603621"/><path d="M76.19 58.26A10.654 10.654 0 0 1 75.6 60a8.893 8.893 0 0 1-.95 1.74 10.84 10.84 0 0 1-16.15 2.17 10.85 10.85 0 0 1-2.4-2.9 1 1 0 0 1 .75-1.53L75.05 57a1 1 0 0 1 1.14 1.26z" fill="#fff"/><path d="M79.9 62.64h-.21a.88.88 0 0 1-.64-1.06L80.44 56a.86.86 0 0 1 1-.63.88.88 0 0 1 .64 1L80.74 62a.86.86 0 0 1-.84.64zM53.01 66.28a.9.9 0 0 1-.75-.43l-2.64-4.47a.88.88 0 0 1 .31-1.19.87.87 0 0 1 1.19.31l2.64 4.5a.87.87 0 0 1-.26 1.15.78.78 0 0 1-.49.13zM92.96 56.17a8.5 8.5 0 0 1-3.56 6.94V49.26a8.46 8.46 0 0 1 3.56 6.91zM38.02 56.17a8.5 8.5 0 0 0 3.56 6.94V49.26a8.46 8.46 0 0 0-3.56 6.91z" fill="#DE8366"/><path d="M59.69 95l-6.9 11a1.33 1.33 0 0 1-2.46-.72l.24-20.82 4.14-3.75L59.69 95zM70.65 95l7.14 10.16a1.32 1.32 0 0 0 2.41-.8l-.61-19.93-4.09-3.77L70.65 95z" fill="#FEC72E"/><path d="M65.17 104.12l10.36-23.45L73.5 95.3l-8.33 8.82z" fill="#FEC72E"/><path d="M65.2 104.12L54.84 80.67l2.03 14.63 8.33 8.82z" fill="#FEC72E"/><path d="M106.17 103.8a1.3 1.3 0 0 0-1.31-1.3h-1.77a1.3 1.3 0 0 0-.22 2.59V108h2.21v-2.93a1.3 1.3 0 0 0 1.09-1.27z" fill="#EBE3E3"/><path d="M110.62 116.05H97.33v4.84h13.29v-4.84z" fill="#777"/><path d="M112.18 118.7H95.77a3 3 0 0 0-3 3v.13a2 2 0 0 0 2 2h12.32a16.867 16.867 0 0 0 8.21-2.12 3 3 0 0 0-3.12-3.01z" fill="#603621"/><path d="M94.72 117.06a1.379 1.379 0 0 1-1.37-1.59 10.75 10.75 0 0 1 21.26 0 1.389 1.389 0 0 1-1.37 1.59H94.72z" fill="#EBE3E3"/><path d="M66.85 108.81a2.128 2.128 0 0 0-2.35-.81l-7.23 2.19a6.75 6.75 0 0 0-4.79 6.5v7.11H65.5l-3.62-10.49 3.88-1.27a2.12 2.12 0 0 0 1.09-3.23z" fill="#DE8366"/><path d="M78.5 123.83v-8.4a5.45 5.45 0 0 0-7.14-5.18L60.5 113.8a5.14 5.14 0 0 0-3.54 4.89 5.14 5.14 0 0 0 5.14 5.14h16.4z" fill="#E59B80"/></svg>