<svg viewBox="0 0 135 124" fill="none" xmlns="http://www.w3.org/2000/svg"><g clip-path="url(#clip0)"><path d="M107 11H28c-9.389 0-17 7.611-17 17v79c0 9.389 7.611 17 17 17h79c9.389 0 17-7.611 17-17V28c0-9.389-7.611-17-17-17z" fill="#D3E4E8"/><path d="M134.76 32.62c0-17.414-14.117-31.53-31.53-31.53-17.414 0-31.53 14.116-31.53 31.53v15.02c0 17.413 14.116 31.53 31.53 31.53 17.413 0 31.53-14.117 31.53-31.53V32.62z" fill="#777"/><path d="M130.08 33.69v12.7a25.973 25.973 0 0 1-.28 3.86 26.63 26.63 0 0 1-.6 3 27.724 27.724 0 0 1-2.23 5.68c-5.755 10.81-18.131 16.313-30.012 13.347C85.076 69.31 76.739 58.637 76.74 46.39v-12.7c0-1.45.116-2.898.35-4.33.14-.852.324-1.696.55-2.53a24.9 24.9 0 0 1 2-5.26c.062-.144.132-.284.21-.42 5.754-10.805 18.125-16.305 30.002-13.339 11.877 2.966 20.21 13.637 20.208 25.879h.02z" fill="#BDF2FE"/><path d="M77.64 26.83a25.917 25.917 0 0 1 2.23-5.68H104a4.33 4.33 0 0 1 3.06 7.4 4.381 4.381 0 0 1-3.06 1.26H79a4.35 4.35 0 0 1-1.93-.45l.57-2.53z" fill="#fff"/><path d="M95.39 17.24a4.34 4.34 0 0 1-4.33 4.33h-11.4c.062-.143.132-.284.21-.42a26.62 26.62 0 0 1 6.85-8.25h4.34a4.35 4.35 0 0 1 4.33 4.34z" fill="#fff"/><path d="M51.16 85.27H19A18.63 18.63 0 0 1 .5 64.41l3.57-29.64.2-1.66C6.037 17.432 19.297 5.582 35.075 5.582c15.777 0 29.038 11.85 30.805 27.528l3.74 31.3a18.61 18.61 0 0 1-18.46 20.86z" fill="#FED731"/><path d="M41.31 0h-6.4a11.62 11.62 0 0 0-11.32 9l-.78 3.47 45.41 52.75-3.17-43.17C64.13 9.619 53.775.003 41.31 0z" fill="#FED731"/><path d="M48.5 77.67A7.67 7.67 0 0 1 59.07 80l21 32.2a7.68 7.68 0 0 1-8.057 11.679 7.672 7.672 0 0 1-4.833-3.339l-21-32.21a7.67 7.67 0 0 1 2.32-10.66z" fill="#2BB1F3"/><path d="M27.98 124H70.8l-2.46-10.33-6.69-28.47a12.86 12.86 0 0 0-2.27-5.48 11.194 11.194 0 0 0-1.56-1.8l-.07-.06a12.83 12.83 0 0 0-8.88-3.54H22.73c-3.91 0-8.31 1-10.89 3.23-.293.206-.574.43-.84.67V107c0 9.381 7.599 16.989 16.98 17z" fill="#2BB1F3"/><path d="M84.86 86.21l12.81 8.44L80.5 120.5a7.68 7.68 0 0 1-10.63 2.17 7.67 7.67 0 0 1-2.19-10.62l17.18-25.84z" fill="#2BB1F3"/><path d="M26.5 63.85h18.63v10.82A9.33 9.33 0 0 1 35.8 84a9.33 9.33 0 0 1-9.3-9.33V63.85z" fill="#FF9D8A"/><path d="M14.9 51.83c0 12.68 10.28 22.96 22.96 22.96 12.68 0 22.96-10.28 22.96-22.96V33.5c0-12.68-10.28-22.96-22.96-22.96-12.68 0-22.96 10.28-22.96 22.96v18.33z" fill="#FFB5A1"/><path d="M38.67 36.79a6.98 6.98 0 1 0-13.96 0v5.37a6.98 6.98 0 1 0 13.96 0v-5.37z" fill="#fff"/><path d="M36.3 39.905a2.805 2.805 0 0 0-5.61 0v3.56a2.805 2.805 0 0 0 5.61 0v-3.56z" fill="#2B70C8"/><path d="M44.11 42.15a6.98 6.98 0 0 0 13.96 0v-5.37a6.98 6.98 0 1 0-13.96 0v5.37z" fill="#fff"/><path d="M50.08 43.465a2.805 2.805 0 0 0 5.61 0v-3.56a2.805 2.805 0 0 0-5.61 0v3.56z" fill="#2B70C8"/><path d="M40.61 47.52a2.08 2.08 0 0 0 4.16 0V34.31a2.08 2.08 0 0 0-4.16 0v13.21z" fill="#FF9D8A"/><path d="M42.71 52.14a3.73 3.73 0 1 0 0-7.46 3.73 3.73 0 0 0 0 7.46zM15.8 48.62a7.69 7.69 0 0 1 0-15.37v15.37z" fill="#FF9D8A"/><path d="M29.14 9.55h19.57A12.42 12.42 0 0 1 61.13 22v12h-9.7a22.29 22.29 0 0 1-22.29-22.3V9.55z" fill="#FED731"/><path d="M29.38 10.53c0 13.55-10.49 24.55-23.43 24.55H4.88l.2-1.69a31.73 31.73 0 0 1 13-22.86h11.3z" fill="#FED731"/><path d="M48.56 122.4l-5.31-7.68a1.78 1.78 0 0 0-.24-.3 11.821 11.821 0 0 0-11-6.74l-7.79.18v.45l.49 15.39.46.07c.782.113 1.57.169 2.36.17h10.08l4.49-.13.1.14h6.89a3.002 3.002 0 0 0-.53-1.55z" fill="#FFB5A1"/><path d="M31.17 122.83v1.11H27.5a16.79 16.79 0 0 1-2.36-.17l-.46-.07v-.87a3.129 3.129 0 0 1 .39-1.53 3.248 3.248 0 0 1 2.85-1.7 3.239 3.239 0 0 1 3.22 3c.017.075.027.152.03.23z" fill="#FFB5A1"/><path d="M37.61 122.93v1h-6.47v-1c-.01-.099-.01-.2 0-.3a3.23 3.23 0 0 1 5.5-2c.215.212.397.455.54.72.28.48.428 1.025.43 1.58z" fill="#FFB5A1"/><path d="M43.82 123.94h-6.67l-.13-1a3.232 3.232 0 0 1 .18-1.58 3.323 3.323 0 0 1 1.88-1.92c.254-.101.52-.172.79-.21.147-.01.294-.01.44 0a3.31 3.31 0 0 1 3.27 2.87l.22 1.68.02.16zM106.511 81.224l-12.85-8.434-8.856 13.493 12.849 8.434 8.857-13.493z" fill="#FFB5A1"/><path d="M91.67 66.54A3.43 3.43 0 0 1 95.1 70v11.51h-6.86V70a3.43 3.43 0 0 1 3.43-3.46z" fill="#FFB5A1"/><path d="M113.65 49.31H96.64a3.77 3.77 0 0 0-3.77 3.77v32.01a3.77 3.77 0 0 0 3.77 3.77h17.01a3.77 3.77 0 0 0 3.77-3.77V53.08a3.77 3.77 0 0 0-3.77-3.77z" fill="#4B4B4B"/><path d="M111.91 52.74H98.04a1.57 1.57 0 0 0-1.57 1.57v25.25c0 .867.703 1.57 1.57 1.57h13.87a1.57 1.57 0 0 0 1.57-1.57V54.31a1.57 1.57 0 0 0-1.57-1.57z" fill="#2BB1F3"/><path d="M111.03 54.96h-10.27c-.9 0-1.63.73-1.63 1.63v3.27c0 .9.73 1.63 1.63 1.63h10.27c.9 0 1.63-.73 1.63-1.63v-3.27c0-.9-.73-1.63-1.63-1.63z" fill="#BDF2FE"/><path d="M109.5 64H98.93a1.68 1.68 0 0 0-1.68 1.68v3.36c0 .928.752 1.68 1.68 1.68h10.57a1.68 1.68 0 0 0 1.68-1.68v-3.36A1.68 1.68 0 0 0 109.5 64z" fill="#fff"/><path d="M111.21 73.76h-8.5a1.35 1.35 0 0 0-1.35 1.35v2.71c0 .745.604 1.35 1.35 1.35h8.5a1.35 1.35 0 0 0 1.35-1.35v-2.71a1.35 1.35 0 0 0-1.35-1.35z" fill="#BDF2FE"/><path d="M105.19 86.55a1.7 1.7 0 1 0 0-3.4 1.7 1.7 0 0 0 0 3.4z" fill="#EBE3E3"/><path d="M94.201 64.875l-4.145 1.923a3.12 3.12 0 1 0 2.626 5.66l4.146-1.923a3.12 3.12 0 0 0-2.627-5.66z" fill="#FFB5A1"/><path d="M41.65 60.59a11.9 11.9 0 0 1-8.15-3.65 1.42 1.42 0 0 1 2-1.94c.21.23 5.37 5.46 10.85.9a1.42 1.42 0 1 1 1.82 2.18 10.06 10.06 0 0 1-6.52 2.51z" fill="#B8725C"/><path d="M73.57 115.8H63.03v8.11h10.54v-8.11z" fill="#2BB1F3"/></g><defs><clipPath id="clip0"><path fill="#fff" d="M0 0h135v124H0z"/></clipPath></defs></svg>