<svg viewBox="0 0 135 124" fill="none" xmlns="http://www.w3.org/2000/svg"><path d="M11 28c0-9.389 7.611-17 17-17h79c9.389 0 17 7.611 17 17v79c0 9.389-7.611 17-17 17H28c-9.389 0-17-7.611-17-17V28z" fill="#CE82FF"/><path d="M34.46 27.469c-.243.037-.49.066-.738.088-6.423.57-12.082-4.092-12.643-10.412-.56-6.319 4.192-11.904 10.615-12.473 6.42-.57 12.08 4.092 12.64 10.412.022.248.036.495.041.74l.026-.002c6.014-.534 11.32 3.922 11.855 9.947l.145 1.637-21.778 1.931-.145-1.637a12.168 12.168 0 0 1-.018-.231z" fill="#FF9600"/><path d="M66.558 24.46l-41.342 3.666c-7.746.686-13.47 7.523-12.783 15.27l2.44 27.51c.686 7.747 7.523 13.47 15.27 12.783l41.34-3.665c7.747-.687 13.47-7.523 12.784-15.27l-2.44-27.51c-.686-7.747-7.523-13.47-15.27-12.783z" fill="#FFC6B7"/><path fill-rule="evenodd" clip-rule="evenodd" d="M36.112 33.228a8.736 8.736 0 0 1 9.473 7.93l.47 5.293a8.736 8.736 0 0 1-17.404 1.543l-.47-5.293a8.736 8.736 0 0 1 7.93-9.473z" fill="#fff"/><path d="M35.451 42.879a3.15 3.15 0 0 0 2.732-4.544 3.922 3.922 0 0 1 5.042 3.408l.435 4.907a3.922 3.922 0 0 1-7.813.693l-.396-4.464z" fill="#3D3D3D"/><path fill-rule="evenodd" clip-rule="evenodd" d="M56.598 31.411a8.736 8.736 0 0 0-7.93 9.474l.468 5.293a8.736 8.736 0 0 0 17.404-1.543l-.469-5.293a8.736 8.736 0 0 0-9.473-7.93z" fill="#fff"/><path d="M51.675 41.328a3.15 3.15 0 0 0 2.786-4.446 3.922 3.922 0 0 1 4.998 3.422l.435 4.906a3.922 3.922 0 0 1-7.813.693l-.406-4.575z" fill="#3D3D3D"/><path d="M35.216 68.286c6.61-.586 11.493-6.419 10.907-13.028-.586-6.61-6.42-11.493-13.029-10.907-6.61.586-11.492 6.42-10.906 13.029.586 6.61 6.419 11.492 13.028 10.906zM62.912 65.83c6.61-.585 11.493-6.418 10.907-13.028-.586-6.61-6.42-11.492-13.029-10.906-6.61.585-11.492 6.419-10.906 13.028.586 6.61 6.419 11.492 13.028 10.907z" fill="#FFC6B7"/><path fill-rule="evenodd" clip-rule="evenodd" d="M48.253 56.14a3.432 3.432 0 0 0 3.11-3.726c-.167-1.89-3.977-6.056-3.977-6.056s-3.018 4.772-2.85 6.662a3.432 3.432 0 0 0 3.717 3.12z" fill="#EE9583"/><path fill-rule="evenodd" clip-rule="evenodd" d="M36.867 55.965a4.552 4.552 0 0 1 6.287 1.388c.874 1.37 1.724 2.045 2.456 2.38.714.327 1.676.496 3.082.243a4.553 4.553 0 0 1 1.608 8.962c-2.907.522-5.8.3-8.478-.925-2.661-1.218-4.745-3.257-6.343-5.761a4.552 4.552 0 0 1 1.388-6.287z" fill="#fff"/><path d="M20.817 29.247c-5.393 2.357-8.932 7.963-8.383 14.148l.877 9.893 2.594-.23a7 7 0 0 0 6.353-7.593l-1.441-16.218zM70.693 24.702c5.91 1.237 10.574 6.214 11.135 12.541l.876 9.878-2.968.264a7 7 0 0 1-7.592-6.353l-1.451-16.33z" fill="#FFB67A"/><path d="M11.844 60.911a6.207 6.207 0 1 0-1.096-12.365 6.207 6.207 0 0 0 1.096 12.365zM85.1 54.244a6.207 6.207 0 1 0-1.096-12.365A6.207 6.207 0 0 0 85.1 54.244z" fill="#FFC6B7"/><path d="M85.109 66.551l.227-1.192a2.878 2.878 0 0 1 3.361-2.286l2.26.43a2.878 2.878 0 0 1 2.286 3.36l-.227 1.193-7.907-1.505zM103.107 69.976l.227-1.192a2.878 2.878 0 0 1 3.361-2.286l2.26.43a2.879 2.879 0 0 1 2.286 3.361l-.227 1.192-7.907-1.505z" fill="#FFCA07"/><path d="M106.309 66.477l-.694 4.012 3.013.573.693-4.012a5.366 5.366 0 0 0-4.268-6.274l-10.504-2a5.366 5.366 0 0 0-6.274 4.268l-.773 4.006 3.012.573.773-4.005a2.3 2.3 0 0 1 2.69-1.83l10.503 2a2.3 2.3 0 0 1 1.829 2.689z" fill="#5C3423"/><path d="M59.423 104.951l49.845 9.486a3.495 3.495 0 0 0 4.074-2.772l6.647-34.93a3.493 3.493 0 0 0-2.771-4.073l-49.845-9.486a3.494 3.494 0 0 0-4.074 2.771l-6.648 34.929a3.495 3.495 0 0 0 2.772 4.075z" fill="#5C3423"/><path d="M69.717 67.168l-6.648 34.93a3.494 3.494 0 0 0 2.772 4.074l-3.22-.613a4.772 4.772 0 0 1-.835-3.705l6.647-34.93a4.775 4.775 0 0 1 2.137-3.14l3.22.613a3.495 3.495 0 0 0-4.073 2.771zM70.955 107.146l49.845 9.486a3.495 3.495 0 0 0 4.074-2.772l6.647-34.93a3.494 3.494 0 0 0-2.771-4.074L78.905 65.37a3.495 3.495 0 0 0-4.074 2.772l-6.648 34.929a3.495 3.495 0 0 0 2.772 4.075z" fill="#975732"/><path d="M72.624 103.03l6.322-33.219 48.133 9.16-6.322 33.219-48.133-9.16z" fill="#A26644"/><path d="M82.041 65.967l-3.137-.597a3.495 3.495 0 0 0-4.074 2.772l-.597 3.137a6.678 6.678 0 0 0 7.808-5.312zM68.78 99.934l-.598 3.137a3.494 3.494 0 0 0 2.772 4.074l3.137.597a6.678 6.678 0 0 0-5.312-7.808zM131.521 78.93l-.597 3.138a6.679 6.679 0 0 1-5.312-7.809l3.138.597a3.494 3.494 0 0 1 2.771 4.075zM117.661 116.034l3.138.598a3.495 3.495 0 0 0 4.074-2.772l.597-3.137a6.678 6.678 0 0 0-7.809 5.311z" fill="#FFCA07"/></svg>