<svg id="Cover" xmlns="http://www.w3.org/2000/svg" viewBox="0 0 135 124"><defs><style>.cls-2{fill:#ffd900}.cls-3{fill:#f89700}.cls-4{fill:#ffe96b}.cls-5{fill:#ffb100}.cls-6{fill:#de8f1d}</style></defs><rect x="11" y="11" width="113" height="113" rx="17" ry="17" fill="#ffc800"/><path class="cls-2" d="M49.42 11L11 49.42v50L99.38 11zm70.33 5.78a190 190 0 0 0-19.9 17.74l-84.17 84.17A16.94 16.94 0 0 0 28 124h32.32L124 60.32V28a16.89 16.89 0 0 0-4.25-11.22z"/><path class="cls-3" d="M34.18 43.43h61.36v15.86l-50.76 5-10.6-20.86"/><circle class="cls-3" cx="95.54" cy="61.66" r="18.23"/><circle class="cls-3" cx="75.66" cy="61.66" r="18.23"/><path class="cls-3" d="M69.48 61.81h32.27L115 77.93 106.69 90l2.56 14.67a9.16 9.16 0 0 1-9 10.75H70.8a9 9 0 0 1-8.86-10.53z"/><path class="cls-4" d="M78.09 47.61L31.68 14.88c-4.79-3.31 4.76 8.08 1.45 12.87L32.3 29A10.53 10.53 0 0 0 35 43.61L64.68 65q6.43-8.9 13.41-17.39zM112.37 71.8l-18.44-13-14.16-10q-7 8.48-13.44 17.35L93.89 86l13.44 9.66a4.47 4.47 0 0 0 5 .14 4.56 4.56 0 0 0 1.26-1.22l2.32-3.35a13.94 13.94 0 0 0-3.54-19.43z"/><rect class="cls-5" x="13.53" y="-6.77" width="14.87" height="46.26" rx="7.43" ry="7.43" transform="rotate(-55.33 20.967 16.366)"/><circle class="cls-2" cx="9.87" cy="8.69" r="3.14"/><circle class="cls-2" cx="32.42" cy="24.29" r="3.14"/><path class="cls-3" d="M80.7 77.52a18.22 18.22 0 1 0-24.1-26 18.22 18.22 0 1 0-24.07 26l-4.79 27.39a9 9 0 0 0 8.85 10.53h39.83a9.18 9.18 0 0 0 9-10.76z"/><path class="cls-6" d="M34.18 43.43h7.28l-1.52 3.75-5.76-3.75M64.46 43.43h7.28l-1.68 9.47-5.6-9.47"/><path d="M100.28 90.55h-30a3.46 3.46 0 0 1-3.4-2.83l-1.18-6.36a2.45 2.45 0 0 1 2.42-2.9h15.33z" fill="#e27800"/><path class="cls-5" d="M73.43 77.52a18.23 18.23 0 1 0-24.11-26 18.22 18.22 0 1 0-24.07 26l-4.79 27.39a9 9 0 0 0 8.85 10.53h39.83a9.18 9.18 0 0 0 9-10.76z"/><path class="cls-2" d="M29.31 111.71a5.24 5.24 0 0 1-5.15-6.14l5.25-30-2.31-1.3A14.47 14.47 0 1 1 46.21 53.6l3.11 4.63 3.12-4.63a14.47 14.47 0 1 1 19.14 20.66l-2.31 1.3 5.21 29.79a5.43 5.43 0 0 1-5.34 6.36z"/></svg>