<svg viewBox="0 0 135 124" fill="none" xmlns="http://www.w3.org/2000/svg"><path d="M11.84 27.997c0-9.389 7.61-17 17-17h78.999c9.389 0 17 7.611 17 17v79c0 9.389-7.611 17-17 17h-79c-9.388 0-17-7.611-17-17v-79z" fill="#B2B2B2"/><path d="M4.069 55.491h.002a8.188 8.188 0 0 1 6.618-9.348l37.956-6.912c4.39-.8 8.6 2.063 9.489 6.414h.002l6.758 37.108a2.833 2.833 0 0 0 3.295 2.28l5.473-.997a1.18 1.18 0 0 1 1.373.95c1.143 6.275-3.017 12.289-9.293 13.431l-50.188 9.14c-6.275 1.143-12.288-3.018-13.43-9.293a1.18 1.18 0 0 1 .95-1.373l5.473-.997a2.833 2.833 0 0 0 2.28-3.295L4.069 55.491z" fill="#BFBFBF"/><path d="M8 56.158l45.935-8.365 8.347 45.836-45.935 8.365L8 56.158z" fill="#E5E5E5"/><path d="M9.889 76.807a5.152 5.152 0 1 0-1.847-10.138A5.152 5.152 0 0 0 9.89 76.807zM60.204 67.644a5.152 5.152 0 1 0-1.846-10.138 5.152 5.152 0 0 0 1.846 10.138z" fill="#E5E5E5"/><path d="M14.57 102.869c-.14-.77.37-1.508 1.14-1.648l47.653-8.678c.77-.14 1.507.37 1.647 1.14l.86 4.722c.14.77-.37 1.508-1.14 1.648l-47.653 8.678c-.77.14-1.507-.37-1.647-1.14l-.86-4.722z" fill="#979797"/><path d="M6.25 67.36a5.152 5.152 0 0 1 6.8 1.23 5.742 5.742 0 0 0 1.226-4.697l-1.292-7.098-8.38 1.526 1.647 9.039zM54.355 61.075a5.152 5.152 0 0 1 5.921-3.559l-1.645-9.034-8.38 1.526 1.293 7.098a5.743 5.743 0 0 0 2.812 3.968z" fill="#BFBFBF"/><path d="M2.3 54.282c-.14-.77.37-1.507 1.14-1.647l54.277-9.884c.77-.14 1.508.37 1.648 1.14l.7 3.846c.14.77-.37 1.507-1.14 1.647L4.648 59.27c-.77.14-1.507-.37-1.647-1.14l-.7-3.846z" fill="#979797"/><path d="M33.345 52.72c6.213-1.132 10.333-7.086 9.201-13.299-1.131-6.213-7.085-10.333-13.298-9.201a11.428 11.428 0 0 0-8.602 7.084l-2.553-1.954c-.702-.538-1.728-.306-1.99.54a9.935 9.935 0 0 0-.285 4.741 9.97 9.97 0 0 0 6.185 7.507 11.436 11.436 0 0 0 11.342 4.582z" fill="#BFBFBF"/><path d="M37.169 98.108a1.02 1.02 0 0 1 .835-.947l3.065-.558a1.02 1.02 0 0 1 1.115.591l3.541 8.015a1.02 1.02 0 0 1-.75 1.416l-7.094 1.291a1.02 1.02 0 0 1-1.2-1.06l.488-8.748zM34.226 61.35a6.45 6.45 0 0 1 12.692-2.311l.703 3.86a6.45 6.45 0 0 1-12.692 2.311l-.703-3.86zM19.288 64.07a6.45 6.45 0 1 1 12.692-2.31l.703 3.86a6.45 6.45 0 0 1-12.692 2.31l-.703-3.86z" fill="#fff"/><path d="M39.905 53.723a6.734 6.734 0 0 1 7.198 5.23 2.892 2.892 0 0 1-5.599 1.386 1.227 1.227 0 0 0-.459-.623 1.227 1.227 0 0 0-.737-.232 2.892 2.892 0 0 1-.403-5.76zM24.528 56.625a6.734 6.734 0 0 1 7.593 4.638 2.892 2.892 0 0 1-5.47 1.829 1.227 1.227 0 0 0-.508-.584c-.24-.144-.5-.197-.753-.173a2.891 2.891 0 0 1-.862-5.71z" fill="#979797"/><path d="M32.64 71.468c-5.86-3.282-12.55-2.425-16.882-.861L25.5 82.969c4.333-2.74 11.827-8.876 7.14-11.501z" fill="#E5E5E5"/><path d="M34.2 67.58c.121-.022 1.5 1.48 2.913 3.063 1.406 1.575.532 4.068-1.545 4.446-2.078.379-3.774-1.646-3.014-3.616.765-1.98 1.525-3.871 1.646-3.893z" fill="#BFBFBF"/><path fill-rule="evenodd" clip-rule="evenodd" d="M24.788 74.634a.939.939 0 0 1 1.298.277c3.214 4.959 9.84 6.372 14.798 3.158a.939.939 0 0 1 1.021 1.575c-5.828 3.778-13.616 2.116-17.395-3.712a.939.939 0 0 1 .277-1.298z" fill="#BFBFBF"/><path d="M20.355 5.558L76.38 40.935a2.438 2.438 0 1 1-2.603 4.122L17.751 9.68a2.438 2.438 0 1 1 2.604-4.122z" fill="#979797"/><path d="M27.381 9.994l-2.706 4.058L17.75 9.68a2.438 2.438 0 1 1 2.604-4.122l7.026 4.436zM68.624 36.037l7.757 4.898a2.438 2.438 0 1 1-2.604 4.122l-7.86-4.963 2.648-3.972.059-.085z" fill="#A4A4A4"/><path d="M85.327 62.862l34.324 6.847-5.543 46.502a4 4 0 0 1-4.755 3.449l-33.684-6.72a4 4 0 0 1-3.067-5.01l12.725-45.068z" fill="#979797"/><path d="M80.808 78.865l3.614-12.797 34.834 6.95-1.574 13.204-36.874-7.356z" fill="#A4A4A4"/><path d="M73.187 62.38a2.906 2.906 0 0 1 3.418-2.28l52.16 10.405a2.906 2.906 0 0 1-1.137 5.7L75.468 65.8a2.906 2.906 0 0 1-2.281-3.418z" fill="#979797"/><path fill-rule="evenodd" clip-rule="evenodd" d="M95.16 56.917l2.765 1.803a1.051 1.051 0 0 0 1.62-.768l.353-3.283 2.57-2.073a1.053 1.053 0 0 0-.231-1.778l-3.012-1.35-1.178-3.085a1.051 1.051 0 0 0-1.762-.33l-2.216 2.448-3.297.167a1.051 1.051 0 0 0-.859 1.574l1.644 2.863-.86 3.188a1.051 1.051 0 0 0 1.23 1.303l3.232-.679z" fill="#fff"/><path fill-rule="evenodd" clip-rule="evenodd" d="M105.074 25.154l2.313-.883a.789.789 0 0 0 .248-1.322l-1.836-1.661-.125-2.473a.789.789 0 0 0-1.18-.644l-2.148 1.232-2.39-.645a.788.788 0 0 0-.978.924l.509 2.423-1.352 2.075a.789.789 0 0 0 .576 1.214l2.462.265 1.555 1.927a.789.789 0 0 0 1.333-.172l1.013-2.26z" fill="#A4A4A4"/><path fill-rule="evenodd" clip-rule="evenodd" d="M119.571 36.63l-.642 5.366a4.934 4.934 0 0 1-4.087 4.281 6.564 6.564 0 0 0-5.475 6.813l.107 2.089 2.625-.135-.107-2.09a3.936 3.936 0 0 1 3.283-4.084 7.563 7.563 0 0 0 6.264-6.562l.642-5.365-2.61-.312z" fill="#BFBFBF"/><path fill-rule="evenodd" clip-rule="evenodd" d="M70.182 15.217l4.208.6a3.208 3.208 0 0 1 2.592 4.186 6.821 6.821 0 0 0 4.215 8.583l1.257.441a9.219 9.219 0 0 1 6.102 7.623l2.61-.307a11.847 11.847 0 0 0-7.841-9.796l-1.257-.441a4.193 4.193 0 0 1-2.59-5.276 5.836 5.836 0 0 0-4.717-7.615l-4.208-.6-.37 2.602z" fill="#E5E5E5"/><path d="M106.277 37.292l1.624-2.856a.657.657 0 0 1 .896-.246l2.856 1.624c.316.18.426.58.247.896l-1.624 2.856a.657.657 0 0 1-.896.246l-2.857-1.624a.658.658 0 0 1-.246-.896zM57.473 22.543l1.624-2.856a.657.657 0 0 1 .896-.247l2.856 1.624c.315.18.426.581.246.896l-1.624 2.857a.657.657 0 0 1-.896.246l-2.856-1.624a.657.657 0 0 1-.246-.896z" fill="#BFBFBF"/><path d="M119.899 19.916l1.624-2.856a.657.657 0 0 1 .896-.247l2.856 1.624c.315.18.426.58.246.896l-1.624 2.856a.657.657 0 0 1-.896.247l-2.856-1.624a.657.657 0 0 1-.246-.896z" fill="#E5E5E5"/><path d="M88.9 4.871L91.173.872a.657.657 0 0 1 .896-.246L96.068 2.9c.315.179.426.58.246.896l-2.273 3.998a.657.657 0 0 1-.896.247l-3.999-2.274a.657.657 0 0 1-.246-.896z" fill="#BFBFBF"/></svg>