<svg viewBox="0 0 135 124" fill="none" xmlns="http://www.w3.org/2000/svg"><path d="M107 11H28c-9.389 0-17 7.611-17 17v79c0 9.389 7.611 17 17 17h79c9.389 0 17-7.611 17-17V28c0-9.389-7.611-17-17-17z" fill="#B06CDB"/><path fill-rule="evenodd" clip-rule="evenodd" d="M38.19 75.522a3.097 3.097 0 0 0 3.541 2.577c3.006-.474 6.015-1.802 7.687-2.782a3.097 3.097 0 0 0-3.134-5.343c-1.184.695-3.46 1.683-5.517 2.007a3.097 3.097 0 0 0-2.577 3.54zM108.782 97.619a3.097 3.097 0 0 0-1.542 4.099c1.256 2.771 3.337 5.319 4.727 6.669a3.097 3.097 0 0 0 4.316-4.442c-.985-.957-2.542-2.887-3.402-4.784a3.097 3.097 0 0 0-4.099-1.542zM97.859 24.55a3.096 3.096 0 0 0 3.877 2.035c2.906-.905 5.69-2.656 7.201-3.869a3.097 3.097 0 0 0-3.875-4.83c-1.071.858-3.179 2.166-5.168 2.786a3.097 3.097 0 0 0-2.035 3.877zM70.874 23.192a3.097 3.097 0 0 0 .856-4.295c-1.69-2.53-4.157-4.706-5.747-5.813a3.097 3.097 0 1 0-3.537 5.084c1.126.784 2.977 2.436 4.133 4.168a3.097 3.097 0 0 0 4.295.856z" fill="#FFB100"/><path d="M48.507 27.693h.002c.688-5.785 5.88-9.984 11.705-9.417l50.362 4.905c5.826.567 10.109 5.69 9.668 11.498h.002l-4.795 49.238a3.716 3.716 0 0 0 3.338 4.059l7.263.707c.851.083 1.474.84 1.391 1.691-.811 8.327-8.218 14.419-16.544 13.608l-66.593-6.486c-8.326-.81-14.418-8.218-13.607-16.544a1.548 1.548 0 0 1 1.691-1.39l7.263.707a3.716 3.716 0 0 0 4.059-3.339l4.795-49.237z" fill="#FFB100"/><path d="M53.766 29.618l60.949 5.936-5.923 60.818-60.949-5.936 5.923-60.818z" fill="#FFC6B7"/><path d="M48.198 56.672a6.758 6.758 0 1 0 1.31-13.452 6.758 6.758 0 0 0-1.31 13.452zM114.959 63.174a6.758 6.758 0 1 0 1.31-13.452 6.758 6.758 0 0 0-1.31 13.452z" fill="#FFC6B7"/><path d="M44.748 91.23a1.858 1.858 0 0 1 2.03-1.67l63.228 6.158a1.857 1.857 0 0 1 1.669 2.03l-.61 6.265a1.857 1.857 0 0 1-2.029 1.669l-63.23-6.157a1.858 1.858 0 0 1-1.668-2.03l.61-6.266z" fill="#FF4B4B"/><path d="M47 43.449a6.74 6.74 0 0 1 2.515-.228 6.757 6.757 0 0 1 5.623 4.22 7.532 7.532 0 0 0 3.23-5.485l.918-9.418-11.118-1.082L47 43.449zM109.94 52.787a6.756 6.756 0 0 1 6.336-3.064 6.75 6.75 0 0 1 2.41.701l1.167-11.987-11.118-1.082-.917 9.417a7.531 7.531 0 0 0 2.122 6.015z" fill="#FFB100"/><path d="M75.492 92.579a1.367 1.367 0 0 1 1.324-1.054l4.173-.019a1.367 1.367 0 0 1 1.333 1.042l2.795 11.401a1.367 1.367 0 0 1-1.32 1.692l-9.66.043a1.366 1.366 0 0 1-1.337-1.68l2.692-11.425z" fill="#EBE3E3"/><path opacity=".25" d="M59.241 53.84l44.647 4.71" stroke="#FF4B4B" stroke-opacity=".75" stroke-width="9.356" stroke-linecap="round" stroke-linejoin="round"/><path d="M64.335 47.947a7.868 7.868 0 0 1 15.66 1.525l-.463 4.763a7.867 7.867 0 0 1-15.66-1.525l.464-4.763z" fill="#D99289"/><path d="M84.834 61.42a1.54 1.54 0 0 0-3.08.013l.028 6.159a1.54 1.54 0 1 0 3.08-.014l-.028-6.159z" fill="#ADE756"/><path d="M82.719 53.814c.16.016 1.36 2.406 2.574 4.91 1.208 2.49-.789 5.322-3.545 5.054-2.756-.269-4.17-3.432-2.503-5.644 1.675-2.222 3.313-4.336 3.474-4.32z" fill="#FF4B4B"/><path d="M65.814 45.09a7.867 7.867 0 1 1 15.66 1.525l-.463 4.763a7.867 7.867 0 1 1-15.66-1.525l.463-4.763z" fill="#fff"/><path d="M71.66 45.015a2.766 2.766 0 0 0 3.02-3.037 3.588 3.588 0 0 1 2.836 3.86l-.417 4.285a3.588 3.588 0 0 1-7.142-.696l.418-4.285c.017-.182.049-.36.092-.53.35.217.754.36 1.192.403z" fill="#3D3D3D"/><path d="M95.323 58.58l-8.816-4.893 9.947-3.531" stroke="#BA7258" stroke-width="2.807" stroke-linecap="round" stroke-linejoin="round"/><path d="M83.83 48.459l-22.102.1-.056-12.396 22.112 1.888.047 10.408z" fill="#FFC6B7"/><path d="M98.069 80.076c1.445.912.518 2.737-1.174 2.494l-1.152-.165a39.294 39.294 0 0 0-11.525.052l-1.151.175c-1.69.259-2.633-1.558-1.196-2.483a15.011 15.011 0 0 1 8.088-2.393 15.01 15.01 0 0 1 8.11 2.32z" fill="#702323"/><path d="M45.74 31.375a1.858 1.858 0 0 1 1.866-1.85l72.358.32a1.857 1.857 0 0 1 1.85 1.867l-.023 5.127a1.858 1.858 0 0 1-1.866 1.85l-72.358-.32a1.858 1.858 0 0 1-1.85-1.867l.023-5.127z" fill="#FF4B4B"/><path d="M86.433 34.706c8.244.803 15.578-5.23 16.381-13.473.803-8.244-5.23-15.578-13.473-16.381-5.368-.523-10.35 1.852-13.394 5.848l-2.519-3.38c-.693-.931-2.07-1.006-2.705-.034a13.029 13.029 0 0 0-2.06 5.88 13.076 13.076 0 0 0 5.108 11.689c1.902 5.28 6.705 9.271 12.662 9.851z" fill="#FFB100"/><path d="M90.88 40.548a18.597 18.597 0 0 0 9.669 4.99l.101.018M78.133 43.303A22.352 22.352 0 0 1 65.3 45.81l-.122-.013" stroke="#FFB100" stroke-width="6.736" stroke-linecap="round"/><path d="M62.026 24.732l3.388 3.49c2.873 2.96.789 7.92-3.336 7.938-4.125.019-6.255-4.922-3.408-7.908l3.356-3.52zM70.241 32.197l2.292 2.36c1.944 2.003.534 5.358-2.257 5.37-2.79.013-4.23-3.329-2.305-5.349l2.27-2.38z" fill="#BBF2FF"/><path d="M24.759 21.493l1.259 5.2a10.137 10.137 0 0 1-3.894 10.588 9.45 9.45 0 0 0-3.464 10.467l1.417 4.527M37.25 27.047l1.286 5.01a9.633 9.633 0 0 1-3.796 10.278 8.976 8.976 0 0 0-3.368 10.154l1.439 4.37" stroke="#6F4EA1" stroke-width="7" stroke-linecap="round" stroke-linejoin="round"/><path fill-rule="evenodd" clip-rule="evenodd" d="M30.452 83.624l19.842-6.066a3.276 3.276 0 0 1 4.09 2.175l7.663 25.062a3.276 3.276 0 0 1-2.175 4.091l-19.841 6.066a3.276 3.276 0 0 1-4.091-2.175l-7.663-25.063a3.276 3.276 0 0 1 2.175-4.09z" fill="#F6F6F6"/><path d="M28.098 101.418c5.19-1.587 8.112-7.081 6.525-12.272-1.587-5.19-7.081-8.112-12.272-6.525-5.19 1.587-8.112 7.081-6.525 12.272 1.587 5.191 7.081 8.112 12.272 6.525z" stroke="#F6F6F6" stroke-width="7.5"/><path fill-rule="evenodd" clip-rule="evenodd" d="M21.805 70.28l28.196-8.62a5.46 5.46 0 0 1 6.818 3.626l8.94 29.24a5.46 5.46 0 0 1-3.626 6.817l-28.195 8.621a5.461 5.461 0 0 1-6.818-3.625l-8.94-29.24a5.46 5.46 0 0 1 3.625-6.818z" fill="#F6F6F6"/><path d="M48.524 65.538l-23.468 7.175a2.73 2.73 0 1 0 1.597 5.22L50.12 70.76a2.73 2.73 0 1 0-1.597-5.221z" fill="#CD7900"/><path d="M18.826 87.402L10.08 92.25a6 6 0 1 0 5.817 10.495l8.747-4.848a6 6 0 1 0-5.818-10.495z" fill="#FFC6B7"/><path d="M10.16 92.37l-1.732 1c-4.783 2.762-6.422 8.878-3.66 13.661l6 10.392c2.76 4.783 8.877 6.422 13.66 3.661l1.732-1c4.782-2.762 6.421-8.878 3.66-13.661l-6-10.392c-2.762-4.783-8.877-6.422-13.66-3.66z" fill="#FFC6B7"/><path d="M31.968 81.182l-2.089.638a2.184 2.184 0 0 0-1.45 2.727l5.428 17.753a2.183 2.183 0 0 0 2.727 1.45l2.089-.638a2.184 2.184 0 0 0 1.45-2.727l-5.428-17.753a2.184 2.184 0 0 0-2.727-1.45z" fill="#fff"/></svg>