<svg viewBox="0 0 135 124" version="1.1" xmlns="http://www.w3.org/2000/svg"><g stroke="none" stroke-width="1" fill="none" fill-rule="evenodd"><g fill="#FFD7D8"><path d="M28 11h79c9.389 0 17 7.611 17 17v79c0 9.389-7.611 17-17 17H28c-9.389 0-17-7.611-17-17V28c0-9.389 7.611-17 17-17z"/></g><path d="M98.534 104.153c-2.085-2.446-3.008-5.77-2.188-9 1.34-5.284 6.838-8.32 12.278-6.782a10.68 10.68 0 0 1 6.342 4.92c2.247-1.293 5.042-1.701 7.822-.915 5.44 1.538 8.764 7.068 7.423 12.352-.762 3-2.862 5.275-5.532 6.4l-12.904 6.432c-1.783.889-3.94.298-5.088-1.395l-8.153-12.012zM80.211 116.289c-1.838-.582-3.365-1.979-3.975-3.883-.997-3.115.834-6.408 4.092-7.355a6.408 6.408 0 0 1 4.79.487c.733-1.373 2.025-2.47 3.69-2.953 3.257-.947 6.707.81 7.704 3.925.567 1.769.221 3.594-.78 5.016l-4.52 7.375c-.625 1.02-1.91 1.404-3.033.908l-7.968-3.52z" fill="#FF4B4B" fill-rule="nonzero"/><path d="M79.313 111.327a4.046 4.046 0 0 1 .732-2.732" stroke="#FF8BA7" stroke-width="2.745" stroke-linecap="round" stroke-linejoin="round" fill-rule="nonzero"/><path d="M24.428 23.656c-3.082-1.066-5.531-3.46-6.35-6.639-1.339-5.2 2.192-10.53 7.886-11.905 2.91-.703 5.822-.237 8.152 1.08 1.419-2.223 3.764-3.958 6.673-4.661C46.484.156 52.185 3.255 53.524 8.455c.76 2.952-.049 5.945-1.932 8.234l-8.625 11.914c-1.192 1.646-3.44 2.207-5.305 1.324l-13.234-6.27z" fill="#FF4B4B" fill-rule="nonzero"/><path d="M22.65 15.418c-.206-1.803.456-3.49 1.742-4.87M100.74 98.053c-.206-1.803.456-3.49 1.742-4.87" stroke="#FF8BA7" stroke-width="3.996" stroke-linecap="round" stroke-linejoin="round" fill-rule="nonzero"/><g><g transform="translate(55 3)"><g transform="matrix(-1 0 0 1 80 0)"><rect fill="#CD7900" x="17.67" y=".7" width="57.4" height="44.1" rx="22.05"/><rect fill="#CD7900" x="2.27" y=".7" width="57.4" height="17.5" rx="8.75"/><rect fill="#CD7900" transform="rotate(-30 25.63 20.125)" x="1.48" y="11.375" width="48.3" height="17.5" rx="8.75"/><path d="M45.32 9.1c15.224 0 27.565 12.341 27.565 27.565v27.856a12.6 12.6 0 0 1-8.725 11.99l-14.75 4.767a13.3 13.3 0 0 1-8.18 0l-14.75-4.767a12.6 12.6 0 0 1-8.725-11.99V36.665C17.755 21.441 30.096 9.1 45.32 9.1z" fill="#CD7900"/><path d="M45.32 18.2c13.338 0 24.15 10.812 24.15 24.15v27.792a12.6 12.6 0 0 1-8.46 11.9L49.69 85.98a13.3 13.3 0 0 1-8.74 0l-11.32-3.937a12.6 12.6 0 0 1-8.46-11.9V42.35c0-13.338 10.812-24.15 24.15-24.15z" fill="#FFB49E"/><path d="M19.07 50.932l4.198-1.125c5.788-1.55 11.737 1.884 13.288 7.672 1.551 5.788-1.884 11.738-7.672 13.289l-4.198 1.125c-5.788 1.55-11.738-1.884-13.289-7.672-1.55-5.788 1.884-11.738 7.672-13.289zM69.115 51.522l-4.198-1.125c-5.788-1.55-11.738 1.884-13.289 7.672-1.55 5.788 1.884 11.738 7.672 13.289l4.199 1.125c5.788 1.55 11.737-1.884 13.288-7.672 1.551-5.789-1.884-11.738-7.672-13.289z" fill="#FFB49E"/><path d="M57.22 42a7.35 7.35 0 0 1 7.35 7.35v4.9a7.35 7.35 0 0 1-14.7 0v-4.9A7.35 7.35 0 0 1 57.22 42z" fill="#FFF"/><rect fill="#62351B" x="52" y="48" width="6.3" height="11" rx="3.15"/><path d="M32.72 42a7.35 7.35 0 0 1 7.35 7.35v4.9a7.35 7.35 0 0 1-14.7 0v-4.9A7.35 7.35 0 0 1 32.72 42z" fill="#FFF"/><rect fill="#62351B" x="32" y="48" width="6.3" height="11" rx="3.15"/><rect fill="#CD7900" transform="rotate(-52 28 29.691)" x="0" y="20.941" width="56" height="17.5" rx="8.75"/><rect fill="#F58C75" x="42.17" y="42" width="5.6" height="21.7" rx="2.8"/></g><path d="M52.62 76.642l-18.178-8.477a23.462 23.462 0 0 1 23.056-10.067l.47.073-5.347 18.471zM15.955 76.642l18.178-8.477a23.462 23.462 0 0 0-23.056-10.067l-.47.073 5.348 18.471z" fill="#FFB49E"/><path d="M32.458 36.99L20.662 21.335a8.75 8.75 0 0 1 13.976-10.532l11.796 15.653A8.75 8.75 0 0 1 32.458 36.99z" fill="#CD7900"/><circle fill="#FF9881" opacity=".5" cx="50" cy="68" r="8"/><circle fill="#FF9881" opacity=".5" cx="17" cy="68" r="8"/><rect fill="#777" x="58" y="65" width="4" height="15" rx="2"/></g><path d="M88.04 73.995c2.814.73 6.601.164 8.86-2.26" stroke="#FFF" stroke-width="8" stroke-linecap="round" stroke-linejoin="round"/></g><g transform="translate(4 33)"><g><g transform="matrix(-1 0 0 1 74 0)"><rect fill="#4B4B4B" x="11.2" y="3.5" width="55.3" height="50.4" rx="25.2"/><rect fill="#A46640" transform="rotate(-21 9.519 66.75)" x="3.219" y="56.6" width="12.6" height="20.3" rx="6.3"/><rect fill="#A46640" transform="scale(-1 1) rotate(-21 0 408.928)" x="57.119" y="56.6" width="12.6" height="20.3" rx="6.3"/><rect fill="#4B4B4B" x="23.1" y="0" width="50.4" height="17.5" rx="8.75"/><rect fill="#4B4B4B" x="23.1" y="14.7" width="50.4" height="17.5" rx="8.75"/><path d="M31 0h5v48H9V22C9 9.85 18.85 0 31 0z" fill="#4B4B4B"/><rect fill="#F54642" x="8.389" y="18.1" width="56.517" height="57.4" rx="27.914"/><rect fill="#A46640" x="11.2" y="32.2" width="50.4" height="57.4" rx="24.5"/><rect fill="#4B4B4B" transform="rotate(35 38.06 19.364)" x="19.161" y="12.014" width="37.8" height="14.7" rx="7.35"/><rect fill="#4B4B4B" x="39.92" y="41" width="14.7" height="19.6" rx="7.35"/><rect fill="#FFF" x="39.92" y="43.8" width="14.7" height="19.6" rx="7.35"/><rect fill="#4B4B4B" x="41.02" y="46.467" width="6.3" height="10.267" rx="3.15"/><rect fill="#4B4B4B" x="18.92" y="41" width="14.7" height="19.6" rx="7.35"/><rect fill="#FFF" x="18.92" y="43.8" width="14.7" height="19.6" rx="7.35"/><rect fill="#4B4B4B" x="23.22" y="46" width="6.3" height="10.267" rx="3.15"/><rect fill="#8C481E" x="35.011" y="48.979" width="3.5" height="15.4" rx="1.75"/></g><path d="M20.313 57.047l-5.325.67a2 2 0 0 0-1.482 2.985L21.5 74.548l17.483-10.094-3.867-3.156a19.547 19.547 0 0 0-14.803-4.251z" fill="#A46640"/><path d="M54.653 57.047l5.325.67a2 2 0 0 1 1.482 2.985l-7.995 13.846-17.482-10.094 3.866-3.156a19.547 19.547 0 0 1 14.804-4.251z" fill="#A46640"/><path d="M35.606 58.198h3.159a2.8 2.8 0 0 1 2.544 1.631l1.93 4.2a2.8 2.8 0 0 1-2.546 3.969h-7.016a2.8 2.8 0 0 1-2.544-3.969l1.928-4.2a2.8 2.8 0 0 1 2.545-1.631z" fill="#8C481E"/><path d="M46.3 71.79c-1.348 3.338-5.32 6.693-9.14 6.693-3.815 0-7.782-3.348-9.135-6.677-.211-.522 4.869 1.01 9.135 1 4.383-.011 9.356-1.55 9.14-1.016z" fill="#F54642"/><path d="M28 71.671l9.1 2.456 9.355-2.456-4.518-1.21a4.036 4.036 0 0 0-3.31.558l-1.116.758a.7.7 0 0 1-.81-.017l-1.001-.74a3.61 3.61 0 0 0-3.082-.586L28 71.671z" fill="#9D302D"/></g><rect fill="#A04323" opacity=".504" x="48" y="60" width="13" height="9" rx="4.5"/><rect fill="#A04323" opacity=".504" x="14" y="60" width="13" height="9" rx="4.5"/></g></g></svg>