<svg viewBox="0 0 135 124" version="1.1" xmlns="http://www.w3.org/2000/svg"><g stroke="none" stroke-width="1" fill="none" fill-rule="evenodd"><g transform="translate(-1 -1)"><rect fill="#FFCA00" x="12" y="12" width="113" height="113" rx="17"/><path d="M123.44 21.93L21.92 123.45a16.94 16.94 0 0 0 7.08 1.56h41.32L125 70.33V29.01a16.94 16.94 0 0 0-1.56-7.08zM51.32 70.07l58-58c-.43 0-.87-.07-1.31-.07H59.42L26.34 45.09c-6.904 6.904-6.904 18.096 0 25s18.096 6.904 25 0l-.02-.02z" fill="#FFD900" fill-rule="nonzero"/><rect fill="#FFF1A2" transform="rotate(30 85.766 84)" x="63.266" y="52" width="45" height="64" rx="2"/><path d="M36.528 109.3c-3.441 1.604-7.556.065-9.19-3.439L3.25 54.201c-1.634-3.503-.168-7.645 3.274-9.25l39.171-18.266a8.703 8.703 0 0 1 5.69-.583 8.698 8.698 0 0 1 4.103-3.983L94.66 3.853c3.442-1.605 7.556-.066 9.19 3.438l24.09 51.66c1.633 3.503.168 7.645-3.274 9.25l-88.137 41.098z" fill="#E27903"/><rect fill="#F89700" transform="rotate(-25 36.54 44.79)" x="27.04" y="19.29" width="19" height="51" rx="2"/><path d="M34.943 103.138c-1.212.565-2.65.05-3.21-1.15L8.827 52.863c-.56-1.2-.03-2.632 1.183-3.197l39.633-18.482a5.78 5.78 0 0 1 5.438.282 5.775 5.775 0 0 1 3.277-4.345l37.89-17.67c1.213-.565 2.65-.05 3.21 1.15l22.908 49.126c.56 1.2.03 2.631-1.183 3.197l-86.239 40.214z" fill="#FFF1A2"/><g transform="translate(13.753 14.717)"><path d="M21.178 89.534c-.968.452-2.226-.197-2.81-1.448l-1.056-2.266 43.293-20.188c1.047-.488 2.265-.333 3.346.309.189-1.158.78-2.134 1.709-2.656l.204-.105 42.079-19.622 1.056 2.266c.557 1.195.298 2.507-.569 3.016l-.128.067-87.124 40.627z" fill="#FFCA00"/><rect fill="#FFCA00" transform="rotate(-25 18 32.744)" x="-1" y="31.244" width="38" height="3" rx="1.5"/><rect fill="#FFCA00" transform="rotate(-25 21.188 39.58)" x="2.188" y="38.081" width="38" height="3" rx="1.5"/><rect fill="#FFCA00" transform="rotate(-25 24.57 46.831)" x="5.569" y="45.331" width="38" height="3" rx="1.5"/><rect fill="#FFCA00" transform="rotate(-25 27.95 54.082)" x="8.95" y="52.582" width="38" height="3" rx="1.5"/><rect fill="#FFCA00" transform="rotate(-25 67.847 9.5)" x="48.847" y="8" width="38" height="3" rx="1.5"/><rect fill="#FFCA00" transform="rotate(-25 71.035 16.337)" x="52.035" y="14.837" width="38" height="3" rx="1.5"/><rect fill="#FFCA00" transform="rotate(-25 84.559 45.339)" x="65.559" y="43.839" width="38" height="3" rx="1.5"/><rect fill="#FFD7D8" transform="rotate(-25 65.806 27.602)" x="56.306" y="26.102" width="19" height="3" rx="1.5"/><rect fill="#FFCA00" transform="rotate(-25 81.178 38.088)" x="62.178" y="36.588" width="38" height="3" rx="1.5"/><rect fill="#FFCA00" transform="rotate(-25 24.08 64.713)" x="13.08" y="63.213" width="22" height="3" rx="1.5"/><rect fill="#FFCA00" transform="rotate(-25 27.461 71.964)" x="16.461" y="70.464" width="22" height="3" rx="1.5"/></g><rect fill="#E5E5E5" transform="rotate(-25 81.94 47.57)" x="72.44" y="46.07" width="19" height="3" rx="1.5"/><path d="M55.305 106.986l53.527-9.439a2.4 2.4 0 0 1 2.78 1.947l1.077 6.106a2.4 2.4 0 0 1-1.946 2.78l-53.545 9.442a1.2 1.2 0 0 1-.582-.042l-8.37-2.748a1.2 1.2 0 0 1-.392-2.063l6.893-5.725a1.2 1.2 0 0 1 .558-.258z" fill="#F89700"/><rect fill="#F89700" transform="rotate(-10 112.643 102.46)" x="106.143" y="96.96" width="13" height="11" rx="2.4"/><path fill="#E27903" d="M100.363 99.04l11.818-2.083 1.91 10.833-11.818 2.083z"/><path d="M55.063 107.031l1.909 10.828a1.2 1.2 0 0 1-.277-.055l-8.8-2.85a1.2 1.2 0 0 1-.368-2.088l7.294-5.688a1.2 1.2 0 0 1 .242-.147z" fill="#FFF1A2"/><path d="M51.234 110.629l1.01 5.733-4.35-1.408a1.2 1.2 0 0 1-.367-2.088l3.55-2.768c.07.167.124.344.157.53z" fill="#E27903"/><g transform="rotate(25 15.548 180.188)"><path d="M1.57 13.47c-.159-.819.209-1.662.94-2.153l1.087-.729C4.92 9.7 5.853 8.38 6.206 6.895l.22-.93c.2-.837.907-1.493 1.798-1.666l12.662-2.461c.86-.168 1.733.146 2.24.805l.647.838c.955 1.238 2.348 2.113 3.937 2.475l1.074.244c.845.192 1.484.83 1.641 1.636l7.21 37.09c.145.748-.15 1.518-.762 2.02l-.147.11-.905.63c-1.249.868-2.17 2.087-2.631 3.47l-.092.3-.285 1.018c-.208.744-.82 1.33-1.595 1.544l-.181.042-12.662 2.461c-.832.162-1.672-.126-2.185-.735l-.105-.136-.554-.78c-.828-1.167-2.073-2.008-3.512-2.379l-.29-.068-1.28-.269c-.805-.17-1.431-.741-1.64-1.483l-.039-.161-7.2-37.04z" fill="#FFB100"/><rect stroke="#E27903" stroke-width="2.016" stroke-linejoin="round" transform="rotate(79 19.466 28.498)" x="1.966" y="17.998" width="35" height="21" rx="2.016"/><path d="M17.13 25.918l-2.72.949a1.176 1.176 0 0 1-1.547-1.3l.461-2.842a.686.686 0 0 0-.13-.525l-1.743-2.294a1.176 1.176 0 0 1 .757-1.873l2.846-.44a.686.686 0 0 0 .46-.286l1.642-2.366a1.176 1.176 0 0 1 2.015.141l1.298 2.572a.686.686 0 0 0 .414.347l2.758.832a1.176 1.176 0 0 1 .489 1.96l-2.045 2.029a.686.686 0 0 0-.203.501l.062 2.88a1.176 1.176 0 0 1-1.713 1.07l-2.562-1.317a.686.686 0 0 0-.54-.038z" fill="#E27903" fill-rule="nonzero"/><path stroke="#E27903" stroke-width="2.016" stroke-linecap="round" stroke-linejoin="round" d="M25.831 30.113l2.158 10.991M21.708 30.915l2.158 10.99M18.273 31.583l2.157 10.99M14.15 32.384l2.157 10.99"/></g><g transform="translate(34.266 32.329)"><path d="M1.57 13.47c-.159-.819.209-1.662.94-2.153l1.087-.729C4.92 9.7 5.853 8.38 6.206 6.895l.22-.93c.2-.837.907-1.493 1.798-1.666l12.662-2.461c.86-.168 1.733.146 2.24.805l.647.838c.955 1.238 2.348 2.113 3.937 2.475l1.074.244c.845.192 1.484.83 1.641 1.636l7.21 37.09c.145.748-.15 1.518-.762 2.02l-.147.11-.905.63c-1.249.868-2.17 2.087-2.631 3.47l-.092.3-.285 1.018c-.208.744-.82 1.33-1.595 1.544l-.181.042-12.662 2.461c-.832.162-1.672-.126-2.185-.735l-.105-.136-.554-.78c-.828-1.167-2.073-2.008-3.512-2.379l-.29-.068-1.28-.269c-.805-.17-1.431-.741-1.64-1.483l-.039-.161-7.2-37.04z" fill="#FFB100"/><rect stroke="#E27903" stroke-width="2.016" stroke-linejoin="round" transform="rotate(79 19.466 28.498)" x="1.966" y="17.998" width="35" height="21" rx="2.016"/><path d="M17.13 25.918l-2.72.949a1.176 1.176 0 0 1-1.547-1.3l.461-2.842a.686.686 0 0 0-.13-.525l-1.743-2.294a1.176 1.176 0 0 1 .757-1.873l2.846-.44a.686.686 0 0 0 .46-.286l1.642-2.366a1.176 1.176 0 0 1 2.015.141l1.298 2.572a.686.686 0 0 0 .414.347l2.758.832a1.176 1.176 0 0 1 .489 1.96l-2.045 2.029a.686.686 0 0 0-.203.501l.062 2.88a1.176 1.176 0 0 1-1.713 1.07l-2.562-1.317a.686.686 0 0 0-.54-.038z" fill="#E27903" fill-rule="nonzero"/><path stroke="#E27903" stroke-width="2.016" stroke-linecap="round" stroke-linejoin="round" d="M25.831 30.113l2.158 10.991M21.708 30.915l2.158 10.99M18.273 31.583l2.157 10.99M14.15 32.384l2.157 10.99"/></g></g></g></svg>