<svg viewBox="0 0 135 124" fill="none" xmlns="http://www.w3.org/2000/svg"><g clip-path="url(#clip0)"><path d="M107 12H28c-9.389 0-17 7.611-17 17v79c0 9.389 7.611 17 17 17h79c9.389 0 17-7.611 17-17V29c0-9.389-7.611-17-17-17z" fill="#E5E5E5"/><path d="M105.783 87.457a6.442 6.442 0 1 0-.001-12.883 6.442 6.442 0 0 0 .001 12.883zM29.442 87.457a6.442 6.442 0 1 0 0-12.884 6.442 6.442 0 0 0 0 12.884z" fill="#D4D4D4"/><path fill-rule="evenodd" clip-rule="evenodd" d="M67.23 41.691c6.266 0 11.343 5.093 11.343 11.37v1.706h-22.69v-1.706c0-6.277 5.08-11.37 11.347-11.37z" fill="#BEBEBE"/><path d="M55.115 52.844c6.69 0 12.113-5.338 12.113-11.922C67.228 34.338 61.804 29 55.115 29 48.423 29 43 34.338 43 40.922c0 6.584 5.424 11.922 12.116 11.922z" fill="#BEBEBE"/><path fill-rule="evenodd" clip-rule="evenodd" d="M46.268 52.651H89.34c8.072 0 14.615 6.543 14.615 14.615v43.277H31.653V67.266c0-8.072 6.543-14.615 14.615-14.615z" fill="#D4D4D4"/><path fill-rule="evenodd" clip-rule="evenodd" d="M41.653 53.395v16.179a8.653 8.653 0 0 1-8.654 8.653h-1.346v-10.96c0-6.46 4.19-11.94 10-13.871zM103.956 67.266v10.952a8.654 8.654 0 0 1-8.269-8.645V54.098c4.894 2.362 8.269 7.37 8.269 13.168z" fill="#BEBEBE"/><path d="M80.001 81.37c6.395 0 11.579-5.184 11.579-11.579 0-6.394-5.184-11.578-11.579-11.578-6.394 0-11.578 5.184-11.578 11.578 0 6.395 5.184 11.579 11.578 11.579z" fill="#fff"/><path d="M79.912 79.588c5.362 0 9.708-4.346 9.708-9.708s-4.346-9.708-9.708-9.708-9.708 4.346-9.708 9.708 4.347 9.708 9.708 9.708z" fill="#ABABAB"/><path fill-rule="evenodd" clip-rule="evenodd" d="M79.783 69.83c3.356-1.222 6.145-1.876 5.115-4.705-1.03-2.83-4.586-4.134-7.942-2.912-3.356 1.221-5.242 4.506-4.212 7.336 1.03 2.83 3.683 1.503 7.04.281z" fill="#fff"/><path d="M83.742 75.67a2.494 2.494 0 1 0 0-4.988 2.494 2.494 0 0 0 0 4.987zM55.42 81.37C61.815 81.37 67 76.186 67 69.79c0-6.394-5.184-11.578-11.579-11.578-6.394 0-11.578 5.184-11.578 11.578 0 6.395 5.184 11.579 11.578 11.579z" fill="#fff"/><path d="M55.331 79.588c5.362 0 9.708-4.346 9.708-9.708s-4.346-9.708-9.708-9.708-9.708 4.346-9.708 9.708 4.346 9.708 9.708 9.708z" fill="#ABABAB"/><path fill-rule="evenodd" clip-rule="evenodd" d="M55.202 69.83c3.356-1.222 6.145-1.876 5.115-4.705-1.03-2.83-4.586-4.134-7.942-2.912-3.356 1.221-5.242 4.506-4.212 7.336 1.03 2.83 3.683 1.503 7.04.281z" fill="#fff"/><path d="M59.16 75.67a2.494 2.494 0 1 0 0-4.988 2.494 2.494 0 0 0 0 4.987z" fill="#fff"/><path fill-rule="evenodd" clip-rule="evenodd" d="M94.868 79.365c-9.97-5.765-17.123-3.475-21.458 6.872z" fill="#D4D4D4"/><path d="M94.868 79.365c-9.97-5.765-17.123-3.475-21.458 6.872M39.032 79.436c9.971-5.766 17.124-3.475 21.458 6.871" stroke="#D4D4D4" stroke-width="5.819"/><path d="M83.998 76.648c-1.989-.02-3.524.647-4.604 1.999" stroke="#E1E1E1" stroke-width="4.072" stroke-linecap="round" stroke-linejoin="round"/><path fill-rule="evenodd" clip-rule="evenodd" d="M67.516 80.67a3.561 3.561 0 0 0 3.558-3.565c0-1.97-3.558-6.627-3.558-6.627s-3.557 4.658-3.557 6.627a3.561 3.561 0 0 0 3.557 3.565z" fill="#ABABAB"/><path fill-rule="evenodd" clip-rule="evenodd" d="M30.384 110h75.232a7.384 7.384 0 0 1 7.384 7.384v.232a7.384 7.384 0 0 1-7.384 7.384H30.384A7.384 7.384 0 0 1 23 117.616v-.232A7.384 7.384 0 0 1 30.384 110z" fill="#BEBEBE"/><path fill-rule="evenodd" clip-rule="evenodd" d="M62 116a2 2 0 0 1 2 2v7h-4v-7a2 2 0 0 1 2-2zM74 116a2 2 0 0 1 2 2v7h-4v-7a2 2 0 0 1 2-2z" fill="#fff"/><path d="M45.646 78.587a7.13 7.13 0 0 1 10.027 1.059c4.632 5.725 10.235 7.148 18.418 4.39a7.13 7.13 0 1 1 4.554 13.512c-13.66 4.604-25.548 1.586-34.058-8.934a7.13 7.13 0 0 1 1.059-10.027z" fill="#ABABAB"/><path fill-rule="evenodd" clip-rule="evenodd" d="M61 100.712A7.288 7.288 0 0 1 53.712 108h-.424A7.288 7.288 0 0 1 46 100.712V91a4 4 0 0 1 7.956-.593A4 4 0 0 1 61 93v7.712z" fill="#BEBEBE"/><path d="M70.316 13.886L33.63 1.966a3.213 3.213 0 0 0-1.986 6.111l36.686 11.92a3.213 3.213 0 1 0 1.986-6.111z" fill="#BEBEBE"/><path fill-rule="evenodd" clip-rule="evenodd" d="M22.998 48.323c2.862-8.425 7.208-15.484 13.037-21.177 6.623-6.469 16.063-9.282 28.322-8.44A15941.345 15941.345 0 0 1 32.723 8.39c-5.05-1.662-19.537 1.592-18.774 15.084.45 7.96 2.58 16.281 6.39 24.963a1.428 1.428 0 0 0 2.66-.114z" fill="#D4D4D4"/><path fill-rule="evenodd" clip-rule="evenodd" d="M16.367 14.412a7 7 0 0 1-1.987 13.58 59.148 59.148 0 0 1-.431-4.518c-.206-3.632.694-6.523 2.218-8.775l.2-.287zM21.988 35.193a6.07 6.07 0 0 1 9.486-2.926c-2.417 3.126-4.486 6.57-6.209 10.335a6.07 6.07 0 0 1-3.277-7.409zM36.997 20.551a7.854 7.854 0 0 1 14.442-1.189c-5.606 1.098-10.34 3.324-14.205 6.68a7.823 7.823 0 0 1-.237-5.49z" fill="#BEBEBE"/><path d="M15.902 35.422a2 2 0 1 0 1.236-3.804 2 2 0 0 0-1.236 3.804z" stroke="#BEBEBE" stroke-width="2"/><path d="M73.172 30.097l32.362-10.515a2.57 2.57 0 0 1 1.589 4.89L74.761 34.987a2.57 2.57 0 0 1-1.589-4.89z" fill="#BEBEBE"/><path fill-rule="evenodd" clip-rule="evenodd" d="M113.964 58.334c-4.673-6.942-9.387-12.734-14.14-17.377-5.299-5.175-12.594-7.51-21.885-7.003 16.362-5.291 25.89-8.38 28.583-9.267 4.04-1.33 12.263 4.704 11.744 13.881-.306 5.428-1.049 11.863-2.226 19.306a1.143 1.143 0 0 1-2.076.46z" fill="#D4D4D4"/><path fill-rule="evenodd" clip-rule="evenodd" d="M118.101 35.42l-.12.108a5.426 5.426 0 1 1-5.449-9.187c2.563 1.865 4.901 5.05 5.569 9.08zM116.787 52.874l-.068.48c-.166 1.17-.344 2.368-.534 3.595l-.145.925a1.143 1.143 0 0 1-2.076.46 139.73 139.73 0 0 0-4.618-6.47 4.857 4.857 0 0 1 7.441 1.01zM101.564 36.43a6.27 6.27 0 0 1-.783 5.479c-.319-.324-.638-.64-.957-.952-2.708-2.645-5.937-4.548-9.687-5.709a6.283 6.283 0 0 1 11.427 1.181z" fill="#BEBEBE"/><path d="M118.139 45.422a2.001 2.001 0 1 1-1.236-3.806 2.001 2.001 0 0 1 1.236 3.806z" stroke="#BEBEBE" stroke-width="2"/><path d="M85.5 19a5.5 5.5 0 1 0 0-11 5.5 5.5 0 0 0 0 11z" fill="#BEBEBE"/><path d="M103.5 11a4.5 4.5 0 1 0 0-9 4.5 4.5 0 0 0 0 9zM12.5 75a5.5 5.5 0 1 0 0-11 5.5 5.5 0 0 0 0 11zM21.5 64a3.5 3.5 0 1 0 0-7 3.5 3.5 0 0 0 0 7z" fill="#D4D4D4"/><path d="M26.5 18a2.5 2.5 0 1 0 0-5 2.5 2.5 0 0 0 0 5z" stroke="#BEBEBE" stroke-width="2"/><path d="M119 106a8 8 0 1 0 0-16 8 8 0 0 0 0 16z" fill="#BEBEBE"/><path d="M103 27.5a3.5 3.5 0 1 0-7 0v1a3.5 3.5 0 1 0 7 0v-1zM111 19a3 3 0 1 0-6 0v7a3 3 0 1 0 6 0v-7z" fill="#D4D4D4"/><path d="M31 25c-1.255 1.672-3.255 2.296-6 1.87" stroke="#D4D4D4" stroke-width="3"/><path d="M32.32 10.912c1.531 1.422 1.943 3.476 1.233 6.162M104.32 32.912c1.531 1.422 1.943 3.477 1.233 6.163" stroke="#BEBEBE" stroke-width="3"/></g><defs><clipPath id="clip0"><path fill="#fff" d="M0 0h135v124H0z"/></clipPath></defs></svg>