<svg xmlns="http://www.w3.org/2000/svg" viewBox="0 0 135 124"><defs><style>.cls-1{fill:#e5e5e5}.cls-3{fill:#bfbfbf}.cls-4{fill:#afafaf}.cls-5{fill:#9b9b9b}.cls-6{fill:#efefef}.cls-7{fill:#b2b2b2}.cls-8{fill:#777}.cls-9{fill:#fff;opacity:.39}</style></defs><g id="Layer_3" data-name="Layer 3"><rect id="bg" class="cls-1" x="11" y="11" width="113" height="113" rx="17"/><path fill="#d1d1d1" d="M4.37 38.37h114.02v68.3H4.37z"/><path class="cls-3" d="M27.23 80.72v26h-19v-26a9.5 9.5 0 0 1 9.5-9.49 9.49 9.49 0 0 1 9.5 9.49z"/><path class="cls-3" d="M37.24 98.41v8.26H24.49v-8.26a6.38 6.38 0 0 1 12.75 0zM118.39 38.37v48.54L55.78 38.37h62.61z"/><path class="cls-3" d="M4.38 57.96h114v3.23h-114z"/><path class="cls-4" d="M63.88 78.52A6.89 6.89 0 0 1 57 71.63V52.47h13.77v19.16a6.89 6.89 0 0 1-6.89 6.89z"/><rect class="cls-5" x="54.99" y="52.47" width="17.79" height="3.25" rx="1.63"/><rect class="cls-4" x="51.38" y="46.22" width="25" height="6.25" rx="3.12"/><circle class="cls-4" cx="48.38" cy="49.35" r="4.7"/><circle class="cls-4" cx="79.38" cy="49.35" r="4.7"/><path class="cls-5" d="M84.07 49.35a4.69 4.69 0 0 1-8.76 2.34 3.15 3.15 0 0 1-1.42.72l-8-6.18h7.33a3.08 3.08 0 0 1 2.06.78 4.69 4.69 0 0 1 8.76 2.34z"/><path class="cls-6" d="M73.2 70.67a10.39 10.39 0 0 0-2.43-2.83A10.12 10.12 0 0 0 67 65.92c-.29-.08-.58-.14-.87-.19a10.31 10.31 0 0 0-9.11 3 10.15 10.15 0 0 0-2.52 4.47l-1.35 5.09-1.27 4.8 7.77 2 4.09 1.09 7.92 2.09 1.27-4.8 1.34-5.09a10.15 10.15 0 0 0-1.07-7.71zm-4.56 12.5L57 80.09l.2-.74 1-3.82.33-1.26a6 6 0 0 1 2.79-3.67 6 6 0 0 1 4.58-.6l.2.06a6 6 0 0 1 4.08 7.3l-1.35 5.09z"/><rect class="cls-1" x="46.22" y="80.54" width="28.15" height="21.25" rx="2.02" transform="rotate(14.83 60.271 91.159)"/><circle class="cls-6" cx="60.29" cy="90.86" r="5.77"/><rect class="cls-7" x="58.7" y="86.36" width="2.88" height="8.73" rx="1.44" transform="rotate(14.83 60.134 90.708)"/><rect class="cls-1" x="58.08" y="66.46" width="11.29" height="4.76" rx="2.38" transform="rotate(90 63.73 68.84)"/><path class="cls-7" d="M118.39 57.96v3.22H85.2l-4.15-3.22h37.34z"/><path class="cls-4" d="M3.38 39.6v15.25a.87.87 0 0 0 1.49.62l16.62-16.61a.87.87 0 0 0-.62-1.49H5.61a2.23 2.23 0 0 0-2.23 2.23zM3.38 105.54V90.29a.87.87 0 0 1 1.49-.62l16.62 16.61a.87.87 0 0 1-.62 1.49H5.61a2.23 2.23 0 0 1-2.23-2.23z"/><path class="cls-5" d="M119.38 39.6v15.25a.87.87 0 0 1-1.49.62l-16.62-16.61a.87.87 0 0 1 .61-1.49h15.27a2.23 2.23 0 0 1 2.23 2.23z"/><path class="cls-4" d="M119.38 105.54V90.29a.87.87 0 0 0-1.49-.62l-16.62 16.61a.87.87 0 0 0 .61 1.49h15.27a2.23 2.23 0 0 0 2.23-2.23z"/><circle class="cls-8" cx="112.45" cy="43.52" r="2.25"/><circle class="cls-8" cx="79.38" cy="49.35" r="2.25"/><circle class="cls-5" cx="112.45" cy="101.51" r="2.25"/><circle class="cls-5" cx="10.31" cy="43.52" r="2.25"/><circle class="cls-5" cx="48.38" cy="49.35" r="2.25"/><circle class="cls-5" cx="10.31" cy="101.51" r="2.25"/><circle class="cls-7" cx="37.29" cy="73.13" r="3.35"/><path class="cls-9" d="M59.36 39.25a1.5 1.5 0 0 1-.64-2.86A52.61 52.61 0 0 0 84.39 9.8a1.5 1.5 0 1 1 2.76 1.2A55.6 55.6 0 0 1 60 39.1a1.46 1.46 0 0 1-.64.15zM80.62 39.16a1.45 1.45 0 0 1-1.12-2.35 56.13 56.13 0 0 0 11.61-26.19 1.44 1.44 0 0 1 2.84.46 59.06 59.06 0 0 1-12.2 27.54 1.48 1.48 0 0 1-1.13.54z"/><path class="cls-9" d="M95.75 25.16a50.6 50.6 0 0 1-16.4-2.72 1.52 1.52 0 1 1 1-2.87 47.76 47.76 0 0 0 23.57 1.85 12.32 12.32 0 0 0 4.82-1.64 1.52 1.52 0 1 1 1.72 2.5 14.9 14.9 0 0 1-6 2.13 50.51 50.51 0 0 1-8.71.75zM93.56 34.27a68.45 68.45 0 0 1-21.46-3.44 1.5 1.5 0 1 1 1-2.84c12.83 4.29 27.71 4.39 38.84.27a1.5 1.5 0 0 1 1 2.82 56.51 56.51 0 0 1-19.38 3.19zM96.42 17.17a28.89 28.89 0 0 1-12.52-2.82 1.5 1.5 0 0 1 1.3-2.71 26.16 26.16 0 0 0 21.81.29 1.5 1.5 0 0 1 1.23 2.74 28.9 28.9 0 0 1-11.82 2.5z"/><path class="cls-9" d="M115.12 38.77a1.49 1.49 0 0 1-1.41-1 224.22 224.22 0 0 1-7.66-26.39 1.5 1.5 0 0 1 2.92-.66 223.49 223.49 0 0 0 7.56 26 1.49 1.49 0 0 1-.9 1.91 1.52 1.52 0 0 1-.51.14zM102.65 38.76a1.51 1.51 0 0 1-1.47-1.21 170.32 170.32 0 0 1-3.06-26.92 1.5 1.5 0 1 1 3-.1 167.78 167.78 0 0 0 3 26.44 1.5 1.5 0 0 1-1.18 1.76 1.43 1.43 0 0 1-.29.03z"/></g></svg>