<svg viewBox="0 0 135 124" version="1.1" xmlns="http://www.w3.org/2000/svg"><g stroke="none" stroke-width="1" fill="none" fill-rule="evenodd"><g transform="translate(11 11)"><rect fill="#FFCA00" x="0" y="0" width="113" height="113" rx="17"/><path d="M111.44 9.93L9.92 111.45a16.94 16.94 0 0 0 7.08 1.56h41.32L113 58.33V17.01a16.94 16.94 0 0 0-1.56-7.08zM39.32 58.07l58-58c-.43 0-.87-.07-1.31-.07H47.42L14.34 33.09c-6.904 6.904-6.904 18.096 0 25s18.096 6.904 25 0l-.02-.02z" fill="#FFD900" fill-rule="nonzero"/></g><g transform="translate(1 -11)"><path d="M122.354 122.859a16.874 16.874 0 0 1-1.408 3.449l.098-.182c-.05.094-.1.188-.153.282a17.017 17.017 0 0 1-1.798 2.637l.062-.075-.177.211.115-.136-.24.284.125-.148a17.115 17.115 0 0 1-1.762 1.794l.082-.071a17.075 17.075 0 0 1-1.835 1.422 17 17 0 0 1-2.664 1.46l.055-.023-.26.112.205-.088c-.117.051-.235.101-.354.15l.148-.062-.3.123.152-.061c-.09.037-.18.073-.272.108l.12-.047c-.12.048-.24.094-.36.14l.24-.093a16.94 16.94 0 0 1-.984.349c-.235.076-.472.146-.711.211l.14-.039c-.116.033-.234.065-.352.095l.212-.056c-.105.029-.21.056-.315.083l.103-.027-.317.08.214-.053-.306.074.092-.022c-.11.026-.22.051-.331.075l.239-.053a17.042 17.042 0 0 1-1.663.3l.159-.023c-.108.015-.217.03-.325.042l.166-.02-.319.038.153-.018c-.118.014-.236.027-.355.039l.202-.021c-.12.013-.24.025-.36.035l.158-.014-.286.025.127-.01c-.111.01-.223.018-.335.026l.208-.016a17.323 17.323 0 0 1-1.03.052l-.357.004H27c-7.774 0-14.329-5.218-16.354-12.342h111.708z" fill="#B2B2B2"/><path d="M122.354 122.859a16.874 16.874 0 0 1-1.408 3.449l.098-.182c-.05.094-.1.188-.153.282a17.017 17.017 0 0 1-1.798 2.637l.062-.075-.177.211.115-.136-.24.284.125-.148a17.115 17.115 0 0 1-1.762 1.794l.082-.071a17.075 17.075 0 0 1-1.835 1.422 17 17 0 0 1-2.664 1.46l.055-.023-.26.112.205-.088c-.117.051-.235.101-.354.15l.148-.062-.3.123.152-.061c-.09.037-.18.073-.272.108l.12-.047c-.12.048-.24.094-.36.14l.24-.093a16.94 16.94 0 0 1-.984.349c-.235.076-.472.146-.711.211l.14-.039c-.116.033-.234.065-.352.095l.212-.056c-.105.029-.21.056-.315.083l.103-.027-.317.08.214-.053-.306.074.092-.022c-.11.026-.22.051-.331.075l.239-.053a17.042 17.042 0 0 1-1.663.3l.159-.023c-.108.015-.217.03-.325.042l.166-.02-.319.038.153-.018c-.118.014-.236.027-.355.039l.202-.021c-.12.013-.24.025-.36.035l.158-.014-.286.025.127-.01c-.111.01-.223.018-.335.026l.208-.016a17.323 17.323 0 0 1-1.03.052l-.357.004H27c-7.774 0-14.329-5.218-16.354-12.342h111.708z" fill="#F08904"/><path d="M53.265 19.693l20.552 14.144a7 7 0 0 1-.469 11.829L53.68 57.02a6 6 0 0 1-8.976-4.655L42.325 26.09a7 7 0 0 1 10.94-6.397z" stroke="#FFA403" stroke-width="7" fill="#E27903"/><rect fill="#F89700" x="65" y="75.201" width="33" height="24" rx="12"/><rect fill="#E27903" x="71" y="80.201" width="8" height="14" rx="4"/><rect fill="#E27903" x="84" y="80.201" width="8" height="14" rx="4"/><rect fill="#FFBD29" x="42.821" y="32.201" width="76.358" height="93" rx="38.179"/><path d="M3.88 85.123l.894.408c1.893.89 3.695 1.91 5.4 3.044v-.03c9.182 6.173 15.737 15.505 18.283 26.242l2.095.042c8.985.2 16.77.622 23.354 1.267L51.1 111.19l-.049-.098c-.29-.69.466-1.4 1.409-1.32l.13.015.963.154.764.135c1.48.272 2.928.604 4.34.993l.843.24-.007-.022.557.17a31.749 31.749 0 0 1 10.996 5.952l-1.311-7.324c.016-1.053 1.251-1.636 2.112-.998l.792.587 1.024.698c4.773 3.27 9.426 6.765 12.047 10.849 2.764-12.02 10.57-22.378 21.598-28.502l.64-.349.872-.453c.899-.468 1.96.201 1.946 1.16l-.013.162-1.986 14.224c4.017-8.988 11.12-16.416 20.22-20.894l.619-.299.86-.395c.89-.409 1.878.293 1.807 1.22l-.02.149-4.942 25.377-.09.43c-.403 1.796-1.304 4.534-2.705 8.214a24.666 24.666 0 0 1-6.975 9.023 16.938 16.938 0 0 1-11.496 4.476H27c-6.288 0-11.779-3.414-14.72-8.49l-.008.006a43.287 43.287 0 0 1-5.116-13.534L2.025 86.537c-.202-1.032.882-1.858 1.855-1.414z" fill="#F08904" fill-rule="nonzero"/><path d="M26.828 57.573l3.553 8.369a14.398 14.398 0 0 0 10.421 8.49c3.113.625 5.304 2.433 6.574 5.424l13.864 32.662c1.498 3.529-.2 7.626-3.792 9.151L35.04 131.18c-3.592 1.525-7.72-.1-9.217-3.629L11.96 94.889c-1.27-2.99-1.048-5.823.665-8.496a14.398 14.398 0 0 0 1.132-13.395l-3.553-8.369 16.624-7.056z" fill="#FFA403"/><rect fill="#FFA403" transform="rotate(-23 18.135 61.517)" x="6.593" y="59.379" width="23.085" height="4.275" rx="2.137"/><rect fill="#E27903" transform="rotate(-23 16.526 56.998)" x="4.983" y="54.005" width="23.085" height="5.985" rx="1.6"/><rect fill="#FFF1A2" transform="rotate(-23 35.956 102.68)" x="20.994" y="81.304" width="29.925" height="42.75" rx="3.999"/><path fill="#E27903" d="M12.615 96.418L48.03 81.385l12.36 29.12-35.415 15.033z"/><rect fill="#FFBD29" transform="rotate(-23 19.604 72.18)" x="17.039" y="66.195" width="5.13" height="11.97" rx="1.6"/><rect fill="#FFF1A2" transform="rotate(-23 39.065 108.498)" x="30.565" y="103.796" width="17" height="9.405" rx="3.999"/><path d="M32.107 94.478l1.364-.579a4 4 0 0 1 5.244 2.12l1.909 4.496a.8.8 0 0 1-.424 1.049l-7.254 3.08a.8.8 0 0 1-1.049-.425l-1.909-4.496a4 4 0 0 1 2.12-5.245z" fill="#FFF1A2"/><rect fill="#FFF1A2" transform="rotate(-23 30.091 96.707)" x="29.236" y="92.859" width="1.71" height="7.695" rx=".855"/><rect fill="#FFF1A2" transform="rotate(-23 36.535 93.972)" x="35.68" y="90.124" width="1.71" height="7.695" rx=".855"/><path d="M29.656 97.166l-1.675.235a3.947 3.947 0 0 0-3.36 4.458l.236 1.675a.564.564 0 0 0 .637.48l1.675-.235a3.947 3.947 0 0 0 3.36-4.458l-.236-1.675a.564.564 0 0 0-.637-.48zM37.082 94.014l1.333-1.042a3.947 3.947 0 0 1 5.54.68l1.041 1.334c.192.245.148.6-.097.791l-1.333 1.042a3.947 3.947 0 0 1-5.54-.68l-1.041-1.334a.564.564 0 0 1 .097-.791z" fill="#FFF1A2" fill-rule="nonzero"/><rect fill="#E27903" transform="rotate(-23 33.725 100.093)" x="32.87" y="98.383" width="1.71" height="3.42" rx=".855"/><rect fill="#E27903" transform="rotate(-23 36.487 98.92)" x="35.632" y="97.21" width="1.71" height="3.42" rx=".855"/><rect fill="#FFF1A2" x="84" y="58.201" width="20" height="26" rx="9.8"/><rect fill="#FFF1A2" x="59" y="58.201" width="20" height="26" rx="9.8"/><rect fill="#E27903" x="66" y="62.201" width="10" height="16" rx="5"/><rect fill="#E27903" x="87" y="62.201" width="10" height="16" rx="5"/><path d="M112.856 76.175c-8.609-4.97-19.617-2.021-24.588 6.588l15.588 9 9-15.588zM50 76.175c8.61-4.97 19.618-2.021 24.588 6.588l-15.588 9-9-15.588z" fill="#FFBD29"/><rect fill="#F89700" x="65" y="75.201" width="33" height="24" rx="12"/><rect fill="#E27903" x="71" y="80.201" width="8" height="14" rx="4"/><rect fill="#E27903" x="84" y="80.201" width="8" height="14" rx="4"/><path d="M107.95 34.15l17.1 17.101a7 7 0 0 1-4.95 11.95H102a6 6 0 0 1-6-6v-18.1a7 7 0 0 1 11.95-4.95z" fill="#FFA403"/><rect fill="#FFA403" transform="rotate(-23 13.565 58.229)" x="11" y="56.229" width="5.13" height="4" rx="1.6"/></g></g></svg>