<svg viewBox="0 0 135 124" fill="none" xmlns="http://www.w3.org/2000/svg"><path d="M11 28c0-9.389 7.611-17 17-17h79c9.389 0 17 7.611 17 17v79c0 9.389-7.611 17-17 17H28c-9.389 0-17-7.611-17-17V28z" fill="#B2B2B2"/><path d="M65.54 49.505c1.084 17.249-12.02 32.11-29.27 33.194C19.021 83.783 4.16 70.68 3.075 53.43c-1.083-17.248 12.02-32.11 29.27-33.194 17.25-1.084 32.11 12.02 33.195 29.27z" fill="#9F9F9F"/><path d="M23.887 47.353l1.79 2.462 27.82-23.069a31.428 31.428 0 0 0-2.582-1.805L23.887 47.353z" fill="#979797"/><path d="M13.857 55.676l9.845-8.163 9.845-8.164 21.58 13.734 1.896 30.187-41.269 2.594-1.897-30.188z" fill="#BFBFBF"/><path d="M50.892 57.093a7.242 7.242 0 0 0-14.455.908l.308 4.917A7.242 7.242 0 0 0 51.2 62.01l-.308-4.917z" fill="#fff"/><path fill-rule="evenodd" clip-rule="evenodd" d="M47.224 45.222c-4.169-2.13-7.795.273-9.114 1.82a1.582 1.582 0 0 1-2.408-2.052c1.786-2.095 6.924-5.67 12.962-2.585a1.582 1.582 0 1 1-1.44 2.817z" fill="#979797"/><path d="M43.245 56.666a2.999 2.999 0 0 0 2.705-3.783 3.34 3.34 0 0 1 3.945 3.075l.263 4.188a3.34 3.34 0 0 1-6.669.42l-.244-3.9z" fill="#979797"/><path d="M53.661 62.982L35.48 68.634l.345 5.489 18.463-1.16-.627-9.98z" fill="#BFBFBF"/><path d="M7.26 94.99c-1.546-9.773 5.124-18.947 14.896-20.492l26.658-4.214c9.772-1.545 18.946 5.124 20.49 14.896 1.546 9.772-5.124 18.946-14.896 20.491l-26.658 4.215c-9.772 1.545-18.946-5.125-20.49-14.897z" fill="#9F9F9F"/><path d="M40.923 71.167a5.366 5.366 0 1 1-10.711.673 5.366 5.366 0 0 1 10.711-.673z" fill="#BFBFBF"/><path fill-rule="evenodd" clip-rule="evenodd" d="M51.913 79.613a5.616 5.616 0 0 0-7.926.498 1.5 1.5 0 0 1-2.25-1.984 8.616 8.616 0 0 1 12.16-.764 1.5 1.5 0 1 1-1.984 2.25z" fill="#979797"/><path d="M18.562 59.125a7.242 7.242 0 1 1 14.455-.908l.31 4.916a7.242 7.242 0 1 1-14.455.908l-.31-4.916z" fill="#fff"/><path d="M25.28 57.795a2.999 2.999 0 0 0 2.705-3.783 3.34 3.34 0 0 1 3.945 3.075l.264 4.188a3.34 3.34 0 1 1-6.669.42l-.245-3.9z" fill="#979797"/><path d="M34.894 55.655l-.523-5.817c-.263-2.913-3.46-4.569-5.991-3.102l-10.207 5.92 16.721 2.999z" fill="#BFBFBF"/><path fill-rule="evenodd" clip-rule="evenodd" d="M16.447 51.895a1.5 1.5 0 0 1 1.775-1.16l14.722 3.083a1.5 1.5 0 1 1-.614 2.936L17.607 53.67a1.5 1.5 0 0 1-1.16-1.776z" fill="#979797"/><path d="M102.135 60.27c15.538 0 28.135-12.597 28.135-28.135C130.27 16.596 117.673 4 102.135 4 86.596 4 74 16.596 74 32.135c0 15.538 12.596 28.135 28.135 28.135z" fill="#E5E5E5"/><path fill-rule="evenodd" clip-rule="evenodd" d="M102.135 6.515c-14.15 0-25.62 11.47-25.62 25.62s11.47 25.62 25.62 25.62c14.149 0 25.62-11.47 25.62-25.62s-11.471-25.62-25.62-25.62zm-30.65 25.62c0-16.928 13.722-30.65 30.65-30.65 16.927 0 30.65 13.722 30.65 30.65 0 16.927-13.723 30.65-30.65 30.65-16.928 0-30.65-13.723-30.65-30.65z" fill="#9F9F9F"/><path d="M103.748 9.735a1.434 1.434 0 0 0-2.868 0v2.867a1.434 1.434 0 0 0 2.868 0V9.735zM103.748 51.668a1.434 1.434 0 0 0-2.868 0v2.867a1.434 1.434 0 0 0 2.868 0v-2.867z" fill="#BFBFBF"/><path fill-rule="evenodd" clip-rule="evenodd" d="M126.148 32.135c0 .792-.642 1.434-1.434 1.434h-2.867a1.433 1.433 0 1 1 0-2.868h2.867c.792 0 1.434.642 1.434 1.434zM84.215 32.135c0 .792-.642 1.434-1.434 1.434h-2.867a1.434 1.434 0 0 1 0-2.868h2.867c.792 0 1.433.642 1.433 1.434zM122.526 44.765a1.433 1.433 0 0 1-1.975.456l-2.432-1.52a1.435 1.435 0 0 1 1.52-2.43l2.431 1.518c.672.42.876 1.304.456 1.976zM86.965 22.544a1.434 1.434 0 0 1-1.976.456l-2.431-1.52a1.434 1.434 0 1 1 1.52-2.431l2.43 1.52c.672.419.876 1.303.457 1.975zM113.869 52.98a1.434 1.434 0 0 1-1.949-.558l-1.39-2.508a1.433 1.433 0 1 1 2.508-1.39l1.39 2.508a1.433 1.433 0 0 1-.559 1.949zM93.54 16.305a1.434 1.434 0 0 1-1.95-.56l-1.39-2.507a1.434 1.434 0 1 1 2.508-1.39l1.39 2.508a1.434 1.434 0 0 1-.559 1.949zM91.494 53.371a1.434 1.434 0 0 1-.627-1.928l1.302-2.555a1.434 1.434 0 0 1 2.555 1.302l-1.302 2.555a1.434 1.434 0 0 1-1.928.626z" fill="#BFBFBF"/><path d="M105.993 30.316a4.122 4.122 0 1 0-6.02 5.439l.611 12.389a1.823 1.823 0 0 0 3.64 0l.605-12.255a4.14 4.14 0 0 0 .964-.925l6.214.658a1.859 1.859 0 0 0 .643-3.652l-6.657-1.654z" fill="#979797"/><path fill-rule="evenodd" clip-rule="evenodd" d="M110.531 16.008a1.433 1.433 0 0 1-.626-1.928l1.301-2.555a1.434 1.434 0 0 1 2.555 1.302l-1.302 2.555a1.433 1.433 0 0 1-1.928.626zM81.673 44.052a1.434 1.434 0 0 1 .525-1.959l2.483-1.433a1.433 1.433 0 1 1 1.434 2.483l-2.483 1.434a1.434 1.434 0 0 1-1.959-.525zM117.989 23.085a1.434 1.434 0 0 1 .524-1.958l2.484-1.434a1.433 1.433 0 1 1 1.433 2.483l-2.483 1.434a1.433 1.433 0 0 1-1.958-.525z" fill="#BFBFBF"/><path d="M80.603 62.71a1.239 1.239 0 0 1 1.499-.906l37.734 9.314c.665.164 1.07.836.906 1.5l-11.614 47.055a1.24 1.24 0 0 1-1.5.906l-37.734-9.314a1.239 1.239 0 0 1-.906-1.5L80.603 62.71z" fill="#fff"/><path d="M84.953 62.566l1.353.334-12.194 49.406-1.353-.334 12.194-49.406z" fill="#E5E5E5"/><path d="M115.112 95.43l-.334 1.353-40.14-9.908.334-1.353 40.14 9.908zM118.234 82.782l-.334 1.353-40.14-9.908.334-1.353 40.14 9.908zM116.674 89.106l-.334 1.353L76.2 80.55l.334-1.353 40.14 9.908zM113.551 101.754l-.333 1.353-40.14-9.908.334-1.353 40.139 9.908zM111.991 108.078l-.334 1.353-40.14-9.908.335-1.353 40.139 9.908zM110.429 114.402l-.334 1.353-40.14-9.908.335-1.353 40.139 9.908z" fill="#E5E5E5"/><path fill-rule="evenodd" clip-rule="evenodd" d="M88.572 82.052a2.782 2.782 0 1 0 1.333-5.402 2.782 2.782 0 0 0-1.333 5.402zm-.445 1.8a4.637 4.637 0 1 0 2.223-9.003 4.637 4.637 0 0 0-2.223 9.003zM82.338 107.303a2.782 2.782 0 1 0 1.333-5.403 2.782 2.782 0 0 0-1.333 5.403zm-.444 1.8a4.636 4.636 0 1 0 2.223-9.002 4.636 4.636 0 0 0-2.223 9.002zM85.457 94.677a2.782 2.782 0 1 0 1.333-5.402 2.782 2.782 0 0 0-1.333 5.402zm-.445 1.8a4.637 4.637 0 1 0 2.222-9.002 4.637 4.637 0 0 0-2.222 9.003z" fill="#BFBFBF"/><path fill-rule="evenodd" clip-rule="evenodd" d="M95.691 72.462c.38.344.408.93.064 1.31l-5.904 6.502a.928.928 0 0 1-1.375-.002l-3.874-4.3a.927.927 0 1 1 1.378-1.241l3.187 3.538 5.215-5.744a.927.927 0 0 1 1.31-.063zM92.604 84.966c.38.345.408.931.064 1.31l-5.904 6.503a.927.927 0 0 1-1.375-.002l-3.874-4.3a.927.927 0 1 1 1.378-1.241l3.187 3.537 5.215-5.743a.927.927 0 0 1 1.31-.064z" fill="#979797"/></svg>