<svg id="Layer_3" data-name="Layer 3" xmlns="http://www.w3.org/2000/svg" viewBox="0 0 135 124"><defs><style>.cls-1{fill:#ffc800}.cls-2{fill:#ffd900}.cls-3{fill:#f89700}.cls-4{fill:#ffb100}.cls-5{fill:#ffe75e}</style></defs><path class="cls-1" d="M124 28v79a17 17 0 0 1-17 17H28a17 17 0 0 1-17-17V28a17 17 0 0 1 14.5-16.81A15.82 15.82 0 0 1 28 11h79a17 17 0 0 1 17 17z"/><path class="cls-2" d="M107 11H69.38L11 69.38V107a17 17 0 0 0 7.13 13.82L120.82 18.13A17 17 0 0 0 107 11z"/><path class="cls-3" d="M134.89 70.82v25.33a22.5 22.5 0 0 1-14.21 20.95 22.27 22.27 0 0 1-8.34 1.6h-44.5a29.29 29.29 0 0 1-8.4-1.27 26.65 26.65 0 0 1-3.44-1.34 28.31 28.31 0 0 1-16.5-25.72V70.82z"/><path class="cls-3" d="M123.75 111.79v.88a18.59 18.59 0 0 1-.27 3.09 22.46 22.46 0 0 1-2.8 1.34A17 17 0 0 1 107 124H52.86l3.06-7.78v-.13l.14-.36 1.54-3.94z"/><circle class="cls-3" cx="87.21" cy="70.01" r="47.69"/><path class="cls-4" d="M104.38 112.32l-16.29 7.59-16.59-7.59V97.49h32.88v14.83z"/><path class="cls-1" d="M123.47 42.76v20.89a46.07 46.07 0 0 1-20.68 38.42l-4.55 3a20.12 20.12 0 0 1-22.44-.24l-3.76-2.6a44.7 44.7 0 0 1-10.7-10.27 45.54 45.54 0 0 1-9.15-27.36V43.34C52.16 36 58 16.62 65.28 16.55l44.72-.47c7.41-.08 13.46 19.28 13.47 26.68z"/><path class="cls-2" d="M123.52 63.65a46 46 0 0 1-20.68 38.41l-4.55 3a20.1 20.1 0 0 1-22.44-.24l-3.77-2.6A45 45 0 0 1 61.4 91.94a45.61 45.61 0 0 1-9.15-27.36V43.32v-.75V57.8a45.61 45.61 0 0 0 9.15 27.36 44.83 44.83 0 0 0 10.68 10.27L75.85 98a20.12 20.12 0 0 0 22.44.24l4.55-3a46 46 0 0 0 20.67-37.75z"/><path class="cls-4" d="M109.49 51h5.7a3 3 0 0 1 3 3v3.33a12.91 12.91 0 0 1-12.91 12.91h-5.7a3 3 0 0 1-3-3v-3.37A12.91 12.91 0 0 1 109.49 51z" transform="rotate(-180 107.405 60.6)"/><path class="cls-5" d="M106.47 52.91h5.7a3 3 0 0 1 3 3v3.33a12.91 12.91 0 0 1-12.87 12.94h-5.7a3 3 0 0 1-3-3v-3.36a12.91 12.91 0 0 1 12.91-12.91z" transform="rotate(-180 104.38 62.545)"/><rect class="cls-3" x="93.59" y="56.55" width="8.25" height="13.48" rx="4.13" ry="4.13" transform="rotate(-180 97.71 63.285)"/><path class="cls-4" d="M60.69 51h5.7A12.91 12.91 0 0 1 79.3 63.87v3.33a3 3 0 0 1-3 3h-5.7a12.91 12.91 0 0 1-12.95-12.87V54a3 3 0 0 1 3-3z"/><path class="cls-5" d="M82.33 65.82v3.32a3 3 0 0 1-3 3h-5.74a12.89 12.89 0 0 1-12.91-12.9v-3.3a3 3 0 0 1 3-3h5.69a12.91 12.91 0 0 1 12.96 12.88z"/><path class="cls-3" d="M68.5 60.68v5.22a4.12 4.12 0 0 1-2.5 3.8 12.88 12.88 0 0 1-5.3-10.43v-.41a4.12 4.12 0 0 1 7.82 1.82z"/><rect class="cls-4" x="84.25" y="50.2" width="7.65" height="26.75" rx="3.82" ry="3.82" transform="rotate(-.12 90.653 62.165)"/><path class="cls-2" d="M91.91 73.11a3.82 3.82 0 0 1-7.64 0v-3.4a3.82 3.82 0 0 0 7.63.11z"/><path class="cls-3" d="M129.1 106.51l-8.4.02-.14-67.4 8.4.89.14 66.49zM56.3 98.66l-7.46-2.55-.23-55.46 7.68-1.84.01 59.85z"/><path class="cls-3" d="M48.6 40.21a40.14 40.14 0 0 1 80.28 0l-2.36 6.86H104.4a23.4 23.4 0 0 1-16.55-6.86l-.13.13a23.43 23.43 0 0 1-16.43 6.73H48.6z"/><path class="cls-5" d="M103 2.69a42.17 42.17 0 0 0-12.76-1.55c-21.76.72-38.8 19.09-38.8 40.86a3.45 3.45 0 0 1-.62 2 47.48 47.48 0 0 0-8.46 27.19v20.23a28.34 28.34 0 0 0 17.77 26.3 28.32 28.32 0 0 1-20.94-27.35V70.82v-.71A47.52 47.52 0 0 1 48.28 42v-1C48.28 18.83 65.94.23 88.12.07A41.6 41.6 0 0 1 103 2.69z"/><path class="cls-4" d="M126.53 47.08H104.4a23.47 23.47 0 0 1-16.56-6.87l-.12.13a23.39 23.39 0 0 1-16.43 6.74H50.51l20.78-3.39a31.84 31.84 0 0 0 16.43-9l.12-.13c4.4 4.39 9.87 8 16.56 9.13z"/><path class="cls-3" d="M84.23 86.55a1.5 1.5 0 0 1-.38-3L104 78.4a1.5 1.5 0 0 1 .75 2.91l-20.15 5.2a1.55 1.55 0 0 1-.37.04zM63.92 111.63V124H52.87l3.04-7.78.06-.13.15-.36 1.54-3.94 6.26-.16z"/></svg>