<svg viewBox="0 0 135 124" fill="none" xmlns="http://www.w3.org/2000/svg"><path d="M106.635 11h-79c-9.39 0-17 7.611-17 17v79c0 9.389 7.61 17 17 17h79c9.389 0 17-7.611 17-17V28c0-9.389-7.611-17-17-17z" fill="#FEC701"/><path d="M24.366 18.388a7 7 0 1 0-11.327 8.23l24.1 33.17a7 7 0 1 0 11.326-8.23l-24.1-33.17z" fill="#F68B00"/><path fill-rule="evenodd" clip-rule="evenodd" d="M18.988 3.506l.069.184-.002.003 2.864 8.33.588-2.382a3.568 3.568 0 0 1 4.126-2.654l.252.057a3.57 3.57 0 0 1 2.593 4.315l-2.885 11.726c-.106.428-.285.82-.52 1.164a8.67 8.67 0 0 1-1.877 2.983l-.069.072a8.686 8.686 0 0 1-12.07.447l-.249-.232-3.019-2.933a8.804 8.804 0 0 1-.45-.47l-6.061-3.674a3.57 3.57 0 0 1-1.316-4.706l.124-.219a3.57 3.57 0 0 1 4.718-1.337l.198.111.894.542c.125-.284.267-.562.424-.834L4.205 9.991a3.571 3.571 0 0 1 .458-4.871l.182-.15a3.57 3.57 0 0 1 4.883.447l.14.17 3.256 4.187a8.73 8.73 0 0 1 .417-.076l-1.262-3.669a3.579 3.579 0 0 1 2.031-4.471l.208-.078a3.567 3.567 0 0 1 4.47 2.026z" fill="#FFB100"/><path fill-rule="evenodd" clip-rule="evenodd" d="M91.551 99.966c12.484 0 22.802 9.241 24.438 21.232a16.928 16.928 0 0 1-9.354 2.802H66.893c.287-13.323 11.217-24.034 24.658-24.034z" fill="#FFDA00"/><path fill-rule="evenodd" clip-rule="evenodd" d="M98.446 71.584l9.887 19.097a7.044 7.044 0 0 1-6.255 10.282H82.303a7.044 7.044 0 0 1-6.255-10.282l9.887-19.097a7.044 7.044 0 0 1 12.51 0z" fill="#F68B00"/><path d="M105.635 99.432h-29v5h29v-5z" fill="#FFB100"/><path d="M100.635 99.432h-4v8h4v-8z" fill="#FFDA00"/><path fill-rule="evenodd" clip-rule="evenodd" d="M102.122 81.852a6 6 0 0 1 7.665 3.238l.087.213 11.549 30.087a17.042 17.042 0 0 1-9.831 7.876L98.671 89.604a6 6 0 0 1 3.451-7.752z" fill="#F68B00"/><path d="M100.278 1.285c22.483 3.964 37.495 25.404 33.531 47.887l-.577 3.275c-2.127 12.059-9.28 21.968-18.925 27.954l11.248 11.91a3.15 3.15 0 0 1 .127 4.185l-3.942 4.718a3.094 3.094 0 0 1-.507.484 3.152 3.152 0 0 1-4.417-.593l-12.391-16.24a41.168 41.168 0 0 1-19.08 1.113C62.86 82.014 47.848 60.574 51.812 38.091l.577-3.275C56.355 12.333 77.795-2.68 100.278 1.285z" fill="#FFDA00"/><path fill-rule="evenodd" clip-rule="evenodd" d="M99.092 9.89c17.896 3.156 29.845 20.221 26.69 38.117-3.156 17.896-20.221 29.845-38.117 26.69C69.77 71.54 57.82 54.476 60.975 36.58 64.132 18.684 81.198 6.735 99.093 9.89z" fill="#FFB100"/><path fill-rule="evenodd" clip-rule="evenodd" d="M92.647 47.334c1.89.402 3.716-.651 4.078-2.352.361-1.701-2.207-6.451-2.207-6.451s-4.279 3.295-4.64 4.995c-.362 1.701.878 3.406 2.769 3.808z" fill="#F68B00"/><path d="M111.622 44.072a8.433 8.433 0 0 0-8.919 2.344c-.182.138-.337.32-.466.548l-.033.056a8.504 8.504 0 0 0-.661 1.03c-1.385 1.928-3.442 3.524-6.282 4.03l-.425.04a8.466 8.466 0 0 0-.517.07l-.254.046c-.137.021-.262.05-.375.084-3.986.978-6.773 4.757-6.403 8.99.409 4.676 4.514 8.136 9.169 7.728 10.275-.899 17.713-5.634 20.543-14.226 1.467-4.455-.94-9.263-5.377-10.74z" fill="#F68B00"/><path d="M92.695 57.153c5.912 0 10.749 4.603 11.121 10.421-2.244.745-4.708 1.232-7.36 1.464-4.655.408-8.76-3.052-9.17-7.728a8.534 8.534 0 0 1 .24-2.889 11.104 11.104 0 0 1 5.17-1.268z" fill="#F99900"/><path d="M98.557 9.548a32.778 32.778 0 0 1 13.312 5.548l-.599.383c-7.869 4.978-19.25 10.271-34.697 8.948a12.597 12.597 0 0 1-9.369-.54c-4.976-2.328-7.851-7.558-7.2-12.88.135-1.108 1.032-1.641 2.041-1.169l2.137.972c.525.019 1.4.295 2.624.83 4.41 1.925 8.074 1.732 11.176.953a32.756 32.756 0 0 1 20.575-3.045z" fill="#F68B00"/><path d="M73.43 31.565c3.791.534 7.649 1.809 11.475 4.088a32.479 32.479 0 0 1 6.67 5.291 7.545 7.545 0 0 0 1.816-9.31c-2.362-4.462-6.22-7.392-11.093-8.285a7.545 7.545 0 0 0-8.867 8.216zm42.487 6.21a7.545 7.545 0 0 0-8.243-10.515c-4.873.893-8.73 3.823-11.093 8.284a7.53 7.53 0 0 0-.223 6.607 31.762 31.762 0 0 1 4.659-2.324c5.204-2.079 10.208-2.58 14.9-2.052z" fill="#FFDA00"/><path d="M108.314 37.87l.171-.969a5.005 5.005 0 0 0-6.407-5.652c.499.652.733 1.504.579 2.377a3.034 3.034 0 0 1-4.16 2.276l-.289 1.634a4.984 4.984 0 0 0 .552 3.297 31.453 31.453 0 0 1 2.257-1.006 31.345 31.345 0 0 1 7.297-1.957zm-18.409 1.47a5.003 5.003 0 0 0 1.785-4.765l-.419-2.373a5.005 5.005 0 0 0-5.654-4.083 3.034 3.034 0 0 1-2.294 4.1 3.011 3.011 0 0 1-1.86-.265 4.986 4.986 0 0 0-.066 1.886 32.346 32.346 0 0 1 3.508 1.813 31.952 31.952 0 0 1 5 3.686z" fill="#F68B00"/><path fill-rule="evenodd" clip-rule="evenodd" d="M45.364 40.976c17.253.357 31.759 13.049 34.405 30.1l7.898 50.896a1.738 1.738 0 0 1-1.717 2.004L27.484 124c-10.494.004-19.004-8.499-19.008-18.992 0-.703.039-1.406.116-2.104l3.651-32.893c1.864-16.79 16.23-29.385 33.121-29.035z" fill="#F68B00"/><path d="M77.204 69.977h1.44a6.605 6.605 0 0 1 .142 13.21l1.417 12.547c.877 7.764-4.707 14.77-12.472 15.647-.527.059-1.057.089-1.587.089H37.05V55.051c2.556 8.63 10.544 14.926 20.003 14.926h20.15z" fill="#FFB100"/><path fill-rule="evenodd" clip-rule="evenodd" d="M65.881 72.12h-7.613a8.727 8.727 0 0 0-8.727 8.728v6.638a4.271 4.271 0 0 0 4.27 4.271h4.457a8.727 8.727 0 0 0 8.728-8.727v-9.795c0-.616-.5-1.115-1.115-1.115z" fill="#FFDA00"/><path fill-rule="evenodd" clip-rule="evenodd" d="M55.484 77.575a3.818 3.818 0 0 0-3.819 3.818v2.182a3.818 3.818 0 1 0 7.637 0v-2.182a3.818 3.818 0 0 0-3.818-3.818z" fill="#F68B00"/><path d="M52.485 107.593c2.527-4.872 5.405-6.853 8.51-5.302a1.147 1.147 0 0 1-1.025 2.053c-1.647-.823-3.422.4-5.449 4.306a1.147 1.147 0 1 1-2.036-1.057z" fill="#F68B00"/><path fill-rule="evenodd" clip-rule="evenodd" d="M47.816 96.543c1.949 0 3.528-1.57 3.528-3.508 0-1.937-3.528-6.52-3.528-6.52s-3.529 4.583-3.529 6.52c0 1.938 1.58 3.508 3.529 3.508z" fill="#F68B00"/><path d="M37.05 91.747V72.12h.433a8.727 8.727 0 0 1 8.728 8.728V87.3a4.457 4.457 0 0 1-4.457 4.457h-4.27c-.146 0-.29-.003-.434-.01z" fill="#FFDA00"/><path d="M37.05 85.719V79.25a3.818 3.818 0 0 1 6.979 2.143v2.182a3.818 3.818 0 0 1-6.979 2.144z" fill="#F68B00"/><path d="M55.244 123.993L38.716 124v-11.431c0-.615.5-1.114 1.115-1.114H54.13c.615 0 1.114.499 1.114 1.114v11.424z" fill="#F66C00"/></svg>