<svg viewBox="0 0 135 124" version="1.1" xmlns="http://www.w3.org/2000/svg" xmlns:xlink="http://www.w3.org/1999/xlink"><defs><path d="M11.554 0H42.12c6.38 0 11.553 5.173 11.553 11.554v36.562L0 46.562V11.554C0 5.173 5.173 0 11.554 0z" id="a"/><path d="M3.244 2.542L50.72 3.994a1.609 1.609 0 0 1 1.557 1.51v.178l-.803 11.497a1.609 1.609 0 0 1-1.717 1.493L3.915 15.466a1.609 1.609 0 0 1-1.49-1.467l-.833-9.712a1.609 1.609 0 0 1 1.652-1.745z" id="c"/><path d="M22.865 7.322c-2.33-3.224-5.753-5.327-9.642-6.219C9.798.318 6.15.521 3.124 1.655a4.809 4.809 0 0 0-2.81 6.208 4.845 4.845 0 0 0 5.938 2.92l.288-.099c1.215-.455 2.933-.55 4.542-.182 1.674.385 3.03 1.207 3.91 2.391l.041.058a4.84 4.84 0 0 0 6.745 1.101 4.812 4.812 0 0 0 1.087-6.73z" id="e"/></defs><g stroke="none" stroke-width="1" fill="none" fill-rule="evenodd"><path d="M28 11h79c9.389 0 17 7.611 17 17v79c0 9.389-7.611 17-17 17H28c-9.389 0-17-7.611-17-17V28c0-9.389 7.611-17 17-17z" fill="#FFDF4A"/><rect fill="#FFF1A2" x="65" y="30" width="46" height="45" rx="16.5"/><rect fill="#FFF1A2" x="91" y="70" width="25" height="13" rx="6.5"/><rect fill="#FFF1A2" x="35" y="8" width="34" height="21" rx="10.5"/><g transform="rotate(-20 47.47 -149.142)" fill-rule="nonzero"><path d="M44.088 67.247l-2.371 3.394a2.53 2.53 0 0 1-4.121.037l-2.432-3.355a12.285 12.285 0 0 0-12.091-4.886l-4.078.723a2.53 2.53 0 0 1-2.939-2.889l.652-4.09a12.29 12.29 0 0 0-5.097-12.008L8.215 41.8a2.53 2.53 0 0 1-.036-4.12l3.353-2.432a12.285 12.285 0 0 0 4.885-12.092l-.724-4.08a2.53 2.53 0 0 1 2.888-2.939l4.089.652a12.282 12.282 0 0 0 12.004-5.095l2.37-3.394a2.53 2.53 0 0 1 4.122-.036l2.432 3.355a12.285 12.285 0 0 0 12.091 4.886l4.078-.723a2.53 2.53 0 0 1 2.939 2.888l-.652 4.09a12.29 12.29 0 0 0 5.097 12.008l3.396 2.374a2.53 2.53 0 0 1 .035 4.12l-3.352 2.431a12.285 12.285 0 0 0-4.885 12.092l.724 4.08a2.53 2.53 0 0 1-2.888 2.94l-4.089-.653a12.282 12.282 0 0 0-12.004 5.095z" fill="#FFB100"/><ellipse fill="#FFD900" cx="39.834" cy="39.924" rx="20.409" ry="20.415"/></g><g><g transform="rotate(-4 327.363 84.136)"><path d="M73.986 70.477l-.012.178c-.077 1.213-.104 3.816 2.707 4.22l7.53.525c.726.051 1.273.68 1.222 1.405-.513 7.332-6.872 12.86-14.205 12.348l-57.919-4.05C5.977 84.59.45 78.23.961 70.898c.051-.725.68-1.272 1.405-1.22l5.635.394c1.997-.008 3.094-1.334 3.29-3.979l.9 1.799-.47 2.438L72.77 74.6c-.088-.701-.063-1.524.074-2.467.815-1.875 1.196-2.427 1.142-1.656z" fill="#FFB100" fill-rule="nonzero"/><path d="M25.547 16.778h38.61c6.785 0 12.285 5.5 12.285 12.285v.119L73.748 74.65H10.57l2.693-45.502v-.085c0-6.785 5.5-12.285 12.285-12.285z" fill="#FFB100"/><g transform="translate(17.504 25.26)"><mask id="b" fill="#fff"><use xlink:href="#a"/></mask><use fill="#FFDF4A" xlink:href="#a"/><rect fill="#FFB100" mask="url(#b)" x="-6.581" y="-2.194" width="12.139" height="20.767" rx="6.069"/><rect fill="#FFB100" mask="url(#b)" x="48.701" y="-2.194" width="12.139" height="20.767" rx="6.069"/></g><g><path d="M36.944 35.497a6.896 6.896 0 0 1 6.896 6.896v4.194a6.896 6.896 0 0 1-13.791 0v-4.194a6.896 6.896 0 0 1 6.895-6.896z" fill="#FFF1A2"/><path d="M38.848 41.392a3.096 3.096 0 0 1 3.096 3.096v3.888a3.096 3.096 0 1 1-6.192 0v-3.888c0-.067.002-.134.007-.2a2.267 2.267 0 0 0 2.543-2.847c.176-.032.36-.049.546-.049z" fill="#E27800"/></g><g><path d="M53.177 35.497a6.896 6.896 0 0 0-6.895 6.896v4.194a6.896 6.896 0 0 0 13.791 0v-4.194a6.896 6.896 0 0 0-6.896-6.896z" fill="#FFF1A2"/><path d="M51.28 41.392l-.072.001a2.267 2.267 0 0 1-3.007 2.765 3.218 3.218 0 0 0-.017.33v3.888a3.096 3.096 0 1 0 6.192 0v-3.888a3.096 3.096 0 0 0-3.096-3.096z" fill="#E27800"/></g><rect fill="#FFDF4A" x="18.613" y="46.568" width="30.6" height="30.6" rx="15.3"/><rect fill="#FFDF4A" x="39.492" y="49.03" width="30.6" height="30.6" rx="15.3"/><rect fill="#FFF1A2" x="60.565" y="32.81" width="4" height="4" rx="2"/><rect fill="#FFF1A2" x="25.581" y="31.366" width="5" height="5" rx="2.5"/><rect fill="#FFF1A2" x="24.095" y="38.279" width="3" height="3" rx="1.5"/><path d="M46.91 55.938a3.07 3.07 0 0 0 2.492-3.556c-.294-1.67-4.015-5.085-4.015-5.085s-2.328 4.482-2.034 6.151a3.07 3.07 0 0 0 3.558 2.49z" fill="#FFB100"/><circle fill="#FFDF4A" cx="15.09" cy="46.27" r="5.923"/><circle fill="#FFDF4A" cx="74.029" cy="46.27" r="5.923"/><rect fill="#E27800" x="11.507" y="21.908" width="66.678" height="7.751" rx="1.901"/><rect fill="#FFB100" x="31.69" y="0" width="26.325" height="26.325" rx="13.162"/><path d="M31.044 3.475l12.58 13.708c.66.735.414 1.9-.486 2.302-4.324 1.93-9.482.843-12.735-2.78-3.254-3.621-3.793-8.877-1.427-12.986.493-.856 1.408-.98 2.068-.244z" fill="#FFB100" fill-rule="nonzero"/><path d="M19.392 66.26l50.944 3.54a3 3 0 0 1 2.79 3.098l-.004.102a3 3 0 0 1-3.103 2.893l-50.97-1.78a3.965 3.965 0 0 1-3.822-4.135 3.898 3.898 0 0 1 4.165-3.719z" fill="#FFDF4A"/><g transform="translate(17.385 71)"><mask id="d" fill="#fff"><use xlink:href="#c"/></mask><use fill="#F89700" xlink:href="#c"/><rect fill="#E27800" mask="url(#d)" x="9.618" y="-1.07" width="2" height="14" rx="1"/><rect fill="#E27800" mask="url(#d)" x="20.591" y="-.302" width="2" height="14" rx="1"/><rect fill="#E27800" mask="url(#d)" x="31.564" y=".465" width="2" height="14" rx="1"/><rect fill="#E27800" mask="url(#d)" x="42.537" y="1.232" width="2" height="14" rx="1"/></g><path d="M39.898 28.675a2.52 2.52 0 1 1 3.323 3.79c-1.662 1.457-4.216 2.065-7.706 2.065a2.52 2.52 0 1 1 0-5.04c2.271 0 3.719-.32 4.305-.752l.078-.063zM50.79 27.298l-.078-.063a2.52 2.52 0 0 0-3.322 3.79c1.662 1.457 4.216 2.065 7.706 2.065a2.52 2.52 0 0 0 0-5.04c-2.272 0-3.719-.32-4.306-.752z" fill="#FFB100" fill-rule="nonzero"/></g><g><g transform="rotate(-4 1096.28 -316.48)"><mask id="f" fill="#fff"><use xlink:href="#e"/></mask><use fill="#E27800" fill-rule="nonzero" xlink:href="#e"/><circle fill="#F89700" mask="url(#f)" cx="17.665" cy="19.549" r="8.994"/><rect fill="#FFF1A2" mask="url(#f)" x="3.055" y="-1" width="23" height="6" rx="1"/></g></g></g><path d="M79.34 105.035a25.28 25.28 0 0 1 24.326 18.4l.103.375H25.454C17.273 122.583 11 115.524 11 107v-1.965h68.34z" fill="#F89700"/></g></svg>