<svg viewBox="0 0 135 124" fill="none" xmlns="http://www.w3.org/2000/svg"><g clip-path="url(#clip0)"><path d="M28.385 11.07h79c9.389 0 17 7.611 17 17v79c0 9.389-7.611 17-17 17h-79c-9.39 0-17-7.611-17-17v-79c0-9.389 7.61-17 17-17z" fill="#6F4DA0"/><path fill-rule="evenodd" clip-rule="evenodd" d="M67.294 58.735c5.949 0 10.77 4.835 10.77 10.795v1.62H56.521v-1.62c0-5.96 4.823-10.795 10.772-10.795z" fill="#FF9600"/><path d="M55.794 69.324c6.35 0 11.5-5.068 11.5-11.319 0-6.25-5.15-11.319-11.5-11.319-6.354 0-11.503 5.068-11.503 11.32 0 6.25 5.15 11.318 11.503 11.318z" fill="#FF9600"/><path d="M87.026 69.14h-38.37c-8.36 0-15.136 6.777-15.136 15.136v37.849h68.641V84.276c0-8.359-6.776-15.135-15.135-15.135z" fill="#FFC6B7"/><path opacity=".332" d="M43.012 70.228c-5.564 2.237-9.492 7.684-9.492 14.048v9.145h.53a8.962 8.962 0 0 0 8.962-8.962V70.228zM102.161 93.42v-9.144c0-6.289-3.835-11.682-9.294-13.967v14.15a8.962 8.962 0 0 0 8.962 8.961h.332z" fill="#FF9600"/><path d="M103.895 102.184a6.116 6.116 0 1 0 0-12.232 6.116 6.116 0 0 0 0 12.232zM31.42 102.184a6.116 6.116 0 1 0 0-12.232 6.116 6.116 0 0 0 0 12.232z" fill="#FFC6B7"/><path fill-rule="evenodd" clip-rule="evenodd" d="M57.645 76.078a8.608 8.608 0 0 1 8.607 8.608v5.235a8.608 8.608 0 0 1-17.215 0v-5.235a8.608 8.608 0 0 1 8.608-8.608z" fill="#fff"/><path fill-rule="evenodd" clip-rule="evenodd" d="M59.23 76.439a3.864 3.864 0 0 1 3.864 3.864v4.853a3.864 3.864 0 1 1-7.728 0v-4.524l.182.005a3.104 3.104 0 0 0 2.932-4.125c.242-.048.493-.073.75-.073z" fill="#3D3D3D"/><path fill-rule="evenodd" clip-rule="evenodd" d="M77.908 76.078a8.608 8.608 0 0 1 8.608 8.608v5.235a8.608 8.608 0 0 1-17.215 0v-5.235a8.608 8.608 0 0 1 8.607-8.608z" fill="#fff"/><path fill-rule="evenodd" clip-rule="evenodd" d="M76.902 76.23a3.864 3.864 0 0 1 3.864 3.865v4.853a3.864 3.864 0 1 1-7.728 0v-4.524l.182.005a3.103 3.103 0 0 0 2.932-4.125c.242-.048.493-.073.75-.073z" fill="#3D3D3D"/><path d="M43.393 91.024c9.256-.048 17.373 2.139 24.305 6.568l.493.32-2.112 3.2c-6.22-4.104-13.073-1.128-21.532-1.19l-1.134-5.064-.02-3.834z" fill="#FFC6B7"/><path d="M90.969 91.024c-9.257-.048-17.374 2.139-24.305 6.568l-.493.32 2.11 3.2c6.222-4.104 13.075-1.128 21.534-1.19l1.134-5.064.02-3.834z" fill="#FFC6B7"/><path fill-rule="evenodd" clip-rule="evenodd" d="M67.567 102.183a3.38 3.38 0 0 0 3.377-3.385c0-1.869-3.377-6.29-3.377-6.29s-3.377 4.421-3.377 6.29a3.38 3.38 0 0 0 3.377 3.385z" fill="#EE9583"/><path d="M69.883 103.34c-1.113.47-2.287.527-3.522.173-1.257-.36-2.247-1.053-2.968-2.078a.893.893 0 0 0-1.587.268l-2.164 7.547a4.834 4.834 0 0 0 9.293 2.665l2.153-7.507a.893.893 0 0 0-1.205-1.068z" fill="#881B1B"/><path d="M65.154 115.339a4.685 4.685 0 0 0-5.612-5.673 4.835 4.835 0 0 0 5.612 5.673z" fill="#B12E2E"/><path d="M58.926 42.523a7.258 7.258 0 0 1-7.41 1.741l-.31-.11-7.915-3.039a7.258 7.258 0 0 1-4.281-9.08l.106-.296 2.21-5.755A53.071 53.071 0 0 1 51.487 9.429 14.4 14.4 0 0 1 66.936 5.49l.398.147 25.814 9.909a14.4 14.4 0 0 1 9.24 13.42 53.08 53.08 0 0 1-3.525 19.104l-2.21 5.754A7.258 7.258 0 0 1 87.278 58l-7.915-3.038a7.258 7.258 0 0 1-4.646-6.378l-.563-10.247-7.953-3.052-7.274 7.238z" fill="#777"/><path d="M57.914 38.418a7.258 7.258 0 0 1-7.41 1.742l-.31-.11-7.915-3.04a7.258 7.258 0 0 1-4.281-9.08l.106-.296 2.21-5.755A53.073 53.073 0 0 1 50.476 5.325a14.4 14.4 0 0 1 15.447-3.937l.399.146 25.814 9.91a14.399 14.399 0 0 1 9.239 13.42 53.087 53.087 0 0 1-3.525 19.103l-2.209 5.755a7.258 7.258 0 0 1-9.377 4.175l-7.915-3.039a7.258 7.258 0 0 1-4.646-6.378l-.562-10.246-7.953-3.053-7.275 7.238z" fill="#C8C8C8"/><path d="M73.525 4.299l12.44 4.775-4.222 4.15a2.98 2.98 0 0 1-3.23.654l-3.005-1.254a2.968 2.968 0 0 1-1.855-2.69l-.128-5.635zM57.861 24.226c5.266 2.021 11.174-.61 13.195-5.875 2.021-5.266-.609-11.173-5.875-13.195-5.266-2.021-11.173.609-13.195 5.875-2.021 5.266.61 11.173 5.875 13.195zM83.892 34.068c5.266 2.02 11.174-.61 13.195-5.875 2.022-5.266-.609-11.174-5.874-13.195-5.266-2.021-11.174.609-13.195 5.875-2.022 5.266.608 11.173 5.874 13.195z" fill="#AFAFAF"/><path d="M82.126 30.384a4.005 4.005 0 1 0 2.871-7.478 4.005 4.005 0 0 0-2.87 7.478zM89.863 25.996a4.005 4.005 0 1 0 2.87-7.478 4.005 4.005 0 0 0-2.87 7.478z" fill="#EBE3E3"/><path d="M82.68 28.937a2.455 2.455 0 1 0 1.76-4.583 2.455 2.455 0 0 0-1.76 4.583z" fill="#FEC72E"/><path d="M90.42 24.55a2.455 2.455 0 1 0 1.759-4.584 2.455 2.455 0 0 0-1.76 4.584z" fill="#FC4D50"/><path d="M64.282 8.018l-.663-.254a2 2 0 0 0-2.584 1.15l-3.64 9.484a2 2 0 0 0 1.15 2.584l.663.255a2 2 0 0 0 2.584-1.15l3.64-9.485a2 2 0 0 0-1.15-2.584z" fill="#2D2D2D"/><path fill-rule="evenodd" clip-rule="evenodd" d="M68.15 16.705l-.254.663a2 2 0 0 1-2.584 1.15l-9.484-3.64a2 2 0 0 1-1.15-2.584l.254-.663a2 2 0 0 1 2.584-1.15L67 14.12a2 2 0 0 1 1.15 2.584z" fill="#2D2D2D"/><path fill-rule="evenodd" clip-rule="evenodd" d="M102.8 118.979H32.515a7.214 7.214 0 0 0-6.826 4.879c.703.113 1.419.181 2.147.205l.548.008h79c.767 0 1.523-.051 2.263-.149a7.214 7.214 0 0 0-6.575-4.937l-.272-.006z" fill="#2FE3FF"/><path d="M38.839 8.84l-3.992-3.992a2.258 2.258 0 0 0-3.194 0L27.661 8.84a2.258 2.258 0 0 0 0 3.193l3.992 3.992a2.258 2.258 0 0 0 3.194 0l3.992-3.992a2.258 2.258 0 0 0 0-3.193z" fill="#CE82FF"/><path d="M101.358 4.579l-2.481-2.481a1.403 1.403 0 0 0-1.985 0l-2.48 2.48a1.403 1.403 0 0 0 0 1.986l2.48 2.48a1.404 1.404 0 0 0 1.985 0l2.481-2.48a1.404 1.404 0 0 0 0-1.985zM27.66 37.373l-2.48-2.48a.701.701 0 0 0-.993 0l-2.481 2.48a.702.702 0 0 0 0 .993l2.48 2.48a.701.701 0 0 0 .993 0l2.481-2.48a.702.702 0 0 0 0-.993z" fill="#FFAADE"/><path d="M113.32 54.06l-4.962-4.962a1.404 1.404 0 0 0-1.985 0l-4.962 4.962a1.404 1.404 0 0 0 0 1.985l4.962 4.962a1.404 1.404 0 0 0 1.985 0l4.962-4.962a1.404 1.404 0 0 0 0-1.985zM36.417 43.187a1.132 1.132 0 0 0-1.11 1.034l-.354 3.866-2.965.38a1.132 1.132 0 0 0-.984 1.02L31 49.55v.076c.02.558.421 1.029.988 1.101l2.976.38.344 3.552c.05.522.448.95.984 1.02l.067.006.079.002a1.134 1.134 0 0 0 1.124-1.028l.342-3.552 2.978-.38c.535-.068.933-.498.983-1.02l.005-.063v-.076a1.134 1.134 0 0 0-.988-1.101l-2.967-.38-.353-3.866-.01-.078a1.131 1.131 0 0 0-.981-.948l-.092-.008h-.062z" fill="#CE82FF"/><path d="M112.494 18.186c-.751.01-1.364.617-1.432 1.395l-.457 5.209-3.83.511c-.691.092-1.205.671-1.27 1.374l-.005.085v.103c.025.752.544 1.386 1.276 1.483l3.843.512.444 4.786c.065.703.578 1.281 1.27 1.374l.087.008.102.003c.771-.009 1.379-.615 1.45-1.385l.443-4.786 3.844-.512c.692-.092 1.206-.67 1.27-1.373l.006-.085v-.104c-.025-.752-.544-1.385-1.276-1.483l-3.83-.511-.456-5.21-.013-.105c-.101-.661-.604-1.193-1.267-1.277l-.118-.01-.081-.002z" fill="#FFAADE"/></g><defs><clipPath id="clip0"><path fill="#fff" d="M0 0h135v124H0z"/></clipPath></defs></svg>