<svg viewBox="0 0 135 124" fill="none" xmlns="http://www.w3.org/2000/svg"><g clip-path="url(#clip0)"><rect x="11" y="10.869" width="113" height="113" rx="17" fill="#FFCA00"/><path d="M122.278 20.93L20.758 122.45a16.937 16.937 0 0 0 7.08 1.56h41.32l54.68-54.68V28.01a16.938 16.938 0 0 0-1.56-7.08zm-72.12 48.14l58-58c-.43 0-.87-.07-1.31-.07h-48.59l-33.08 33.09c-6.904 6.904-6.904 18.096 0 25 6.903 6.904 18.096 6.904 25 0l-.02-.02z" fill="#FFD900"/><path d="M13.371 5.049a.696.696 0 0 1 1.191-.53l1.938 1.97 1.561-2.022a.928.928 0 0 1 1.397-.083l1.947 1.98 1.698-2.197a.928.928 0 0 1 1.397-.084l1.947 1.98 1.698-2.197a.928.928 0 0 1 1.397-.084l1.947 1.98 1.698-2.197a.928.928 0 0 1 1.397-.083l1.947 1.98 1.698-2.198a.928.928 0 0 1 1.397-.083l1.947 1.98 1.698-2.198a.928.928 0 0 1 1.396-.083l1.948 1.98 1.698-2.197a.928.928 0 0 1 1.396-.084l1.948 1.98 1.698-2.197a.928.928 0 0 1 1.396-.084l1.948 1.98 1.698-2.197a.928.928 0 0 1 1.396-.083l1.948 1.98 1.698-2.198a.928.928 0 0 1 1.396-.083l1.791 1.82 1.689-2.185a.696.696 0 0 1 1.246.384l4.296 72.01a3.713 3.713 0 0 1-3.486 3.927l-48.776 2.91a3.713 3.713 0 0 1-3.928-3.485l-4.296-72.01z" fill="#FBBF36"/><path d="M31.487 5.76l4.41 73.93-14.302.853a3.713 3.713 0 0 1-3.928-3.485l-4.296-72.01a.696.696 0 0 1 1.191-.529l1.938 1.97 1.561-2.022a.928.928 0 0 1 1.397-.083l1.947 1.98 1.698-2.197a.928.928 0 0 1 1.397-.084l1.947 1.98 1.698-2.197a.928.928 0 0 1 1.397-.084l1.945 1.979z" fill="#F79B24"/><path fill-rule="evenodd" clip-rule="evenodd" d="M24.635 42.262a1.7 1.7 0 0 0-1.583 1.931l1.391 10a.905.905 0 0 0 1.801-.108l.193-10.093a1.7 1.7 0 0 0-1.802-1.73z" fill="#F68B00"/><path fill-rule="evenodd" clip-rule="evenodd" d="M40.896 50.628c-6.786-3.551-15.167-.93-18.72 5.857l-.008.017-3.727 7.145c-3.548 6.804-.916 15.197 5.883 18.755 6.786 3.552 15.167.93 18.719-5.857l.009-.017 3.727-7.145c3.548-6.804.916-15.196-5.883-18.755z" fill="#FFB100"/><path fill-rule="evenodd" clip-rule="evenodd" d="M9.47 52.503c6.317-4.333 14.95-2.726 19.283 3.59l.011.016 4.55 6.651c4.333 6.334 2.717 14.98-3.61 19.321-6.317 4.334-14.95 2.726-19.284-3.59l-.01-.016-4.55-6.651c-4.333-6.334-2.717-14.98 3.61-19.32z" fill="#FFB100"/><path d="M36.257 65.735a5.022 5.022 0 0 1-5.308-4.718 5.022 5.022 0 0 1 4.71-5.316 5.022 5.022 0 0 1 5.308 4.718 5.022 5.022 0 0 1-4.71 5.316z" fill="#FFD900"/><path fill-rule="evenodd" clip-rule="evenodd" d="M8.428 37.603c.556-.674 6.451-.47 9.588 2.197 3.138 2.667 4.55 8.514 4.06 9.106-.489.593-6.464.386-9.692-2.283-3.23-2.669-4.512-8.347-3.956-9.02z" fill="#FFB100"/><path d="M13.722 72.786a2.846 2.846 0 0 1-3.009-2.674 2.846 2.846 0 0 1 2.67-3.012 2.846 2.846 0 0 1 3.007 2.674 2.846 2.846 0 0 1-2.668 3.012zM18.175 77.22a2.009 2.009 0 0 1-2.123-1.888 2.009 2.009 0 0 1 1.884-2.126 2.009 2.009 0 0 1 2.123 1.887 2.009 2.009 0 0 1-1.884 2.126z" fill="#F68B00"/><mask id="a" maskUnits="userSpaceOnUse" x="42.961" y="90.661" width="91.995" height="23.568" fill="#000"><path fill="#fff" d="M42.961 90.661h91.995v23.568H42.961z"/><path d="M133.426 99.168l-87.38-6.367c-.548 7.517 5.102 14.055 12.619 14.603l60.159 4.383c7.517.548 14.054-5.102 14.602-12.619z"/></mask><path d="M133.426 99.168l-87.38-6.367c-.548 7.517 5.102 14.055 12.619 14.603l60.159 4.383c7.517.548 14.054-5.102 14.602-12.619z" fill="#FFB100"/><path d="M46.046 92.802l.08-1.09a1.092 1.092 0 0 0-1.169 1.01l1.089.08zm87.38 6.366l1.089.08a1.092 1.092 0 0 0-1.01-1.168l-.079 1.088zm-87.46-5.278l87.381 6.367.158-2.177-87.38-6.367-.158 2.177zm72.937 16.809l-60.159-4.384-.159 2.178 60.159 4.383.159-2.177zm-60.159-4.384c-6.916-.504-12.113-6.519-11.61-13.434l-2.177-.159c-.592 8.118 5.51 15.179 13.628 15.771l.16-2.178zm73.593-7.226c-.504 6.916-6.518 12.113-13.434 11.61l-.159 2.177c8.119.592 15.179-5.51 15.771-13.628l-2.178-.159z" fill="#FFB100" mask="url(#a)"/><path d="M61.96 47.166c.547-7.517 7.085-13.167 14.602-12.62l39.199 2.857c7.517.548 13.166 7.085 12.619 14.602l-4.305 59.07-66.42-4.839 4.305-59.07z" fill="#FFB100"/><path d="M129.623 97.797c-3.897-.284-4.435-3.392-4.29-4.965l-1.563-.114-.491 6.74 6.193.418.151-2.08z" fill="#FFB100"/><path d="M71.58 50.33a8.734 8.734 0 0 1 9.347-8.077l47.909 3.491-4.324 59.343-56.62-4.126L71.58 50.33z" fill="#FFD900"/><circle cx="70.57" cy="64.212" r="6.277" transform="rotate(4.168 70.57 64.212)" fill="#FFD900"/><circle cx="125.557" cy="68.219" r="6.277" transform="rotate(4.168 125.557 68.22)" fill="#FFD900"/><rect x="70.309" y="41.48" width="16.649" height="21.289" rx="8.324" transform="rotate(4.168 70.31 41.48)" fill="#FFB100"/><circle cx="97.894" cy="34.732" r="13.374" transform="rotate(4.168 97.894 34.732)" fill="#FFB100"/><path d="M84.714 23.77l12.112 15.483c.65.83.341 2.019-.61 2.348-4.564 1.582-9.853-.056-13.053-4.147-3.2-4.09-3.516-9.615-.877-13.66.55-.841 1.778-.853 2.428-.023z" fill="#FFB100"/><path d="M65.627 101.999a1.2 1.2 0 0 1 1.283-1.11l58.583 4.269a1.2 1.2 0 0 1 1.11 1.284l-.52 7.135a1.2 1.2 0 0 1-1.284 1.109l-58.583-4.268a1.2 1.2 0 0 1-1.11-1.284l.52-7.135z" fill="#F68B00"/><path d="M54.02 92.288c3.897.284 4.88-2.713 4.964-4.29l1.563.113-.49 6.74-6.189-.484.152-2.079z" fill="#FFB100"/><path d="M105.035 104.977a1.366 1.366 0 0 1 1.455-1.204l3.512.256c.546.04 1.015.402 1.192.92l3.552 10.384a1.365 1.365 0 0 1-1.39 1.803l-8.227-.6a1.365 1.365 0 0 1-1.256-1.518l1.162-10.041z" fill="#FFF1A2"/><path d="M84.977 24.214c1.766 2.044 3.197 1.19 4.355.317l.782.552-3.562 2.975-2.728-3.054c.083-.071.483-.212 1.153-.79zM114.128 37.284c-2.571-.188-2.836-2.396-2.892-3.495l-1.031-.075-.259 4.633 4.078.365.104-1.428z" fill="#FFB100"/><rect x="60.59" y="39.677" width="70.69" height="7.369" rx="1.911" transform="rotate(4.168 60.59 39.677)" fill="#F68B00"/><path d="M109.53 56.538a7.723 7.723 0 0 1 15.405 1.123l-.341 4.685a7.723 7.723 0 0 1-15.405-1.123l.341-4.685zM106.463 61.025l.342-4.685L91.4 55.217l-.341 4.686a7.723 7.723 0 1 0 15.404 1.122z" fill="#FFF1A2"/><path d="M110.39 57.075a2.716 2.716 0 0 0 2.892-3.053 3.523 3.523 0 0 1 2.876 3.72l-.307 4.216a3.523 3.523 0 0 1-7.026-.512l.308-4.215a3.58 3.58 0 0 1 .077-.523c.349.205.749.336 1.18.367zM92.234 55.752a2.716 2.716 0 0 0 2.891-3.053 3.522 3.522 0 0 1 2.876 3.72l-.307 4.216a3.522 3.522 0 0 1-7.025-.512l.307-4.216a3.54 3.54 0 0 1 .078-.523c.348.206.749.336 1.18.368z" fill="#F68B00"/><path d="M87.217 49.451l40.393 2.944-.678 9.308-40.393-2.943.678-9.309z" fill="#FFD900"/><path d="M124.627 56.852c-1.194-2.307-3.6-4.12-6.604-4.666a9.778 9.778 0 0 0-4.683.27" stroke="#FFB100" stroke-width="5.997" stroke-linecap="round" stroke-linejoin="round"/><path fill-rule="evenodd" clip-rule="evenodd" d="M122.218 82.953a.912.912 0 0 1 .12 1.284c-4.71 5.69-11.297 5.376-14.052 4.487a.911.911 0 1 1 .559-1.736c2.293.74 8.001 1.023 12.088-3.914a.913.913 0 0 1 1.285-.121z" fill="#FFB100"/><path d="M103.55 78.046c4.337-2.481 13.412-5.944 15.021.055" stroke="#F68B00" stroke-width="2.399" stroke-linecap="round" stroke-linejoin="round"/><path d="M85.514 65.69l40.054 3.067" stroke="#FFD900" stroke-width="8.396"/><path d="M107.666 63.333c.158.012 1.392 2.329 2.644 4.757 1.246 2.416-.647 5.242-3.358 5.045-2.711-.198-4.174-3.269-2.591-5.479 1.59-2.22 3.147-4.334 3.305-4.323z" fill="#FFB100"/><path d="M92.03 53.164l14.012 3.076" stroke="#FFB100" stroke-width="5.997" stroke-linecap="round" stroke-linejoin="round"/></g><defs><clipPath id="clip0"><path fill="#fff" d="M0 0h135v124H0z"/></clipPath></defs></svg>