<svg viewBox="0 0 135 124" fill="none" xmlns="http://www.w3.org/2000/svg"><path d="M11 28c0-9.389 7.611-17 17-17h79c9.389 0 17 7.611 17 17v79c0 9.389-7.611 17-17 17H28c-9.389 0-17-7.611-17-17V28z" fill="#FEC701"/><path fill-rule="evenodd" clip-rule="evenodd" d="M64.756 27.15c8.2 8.202 8.2 21.498 0 29.7l-53.407 53.406a17.078 17.078 0 0 1-.348-3.442L11 51.207l24.057-24.056c8.201-8.201 21.498-8.201 29.699 0zM124 28.208v35.354l-8.995 8.997c-4.881 4.882-12.796 4.882-17.677 0-4.882-4.881-4.882-12.796 0-17.678L124 28.207z" fill="#FFD900"/><path d="M8.603 48.53c0-23.273 18.867-42.14 42.14-42.14 23.274 0 42.141 18.867 42.141 42.14v4.536c0 23.273-18.867 42.14-42.14 42.14-23.274 0-42.141-18.867-42.141-42.14V48.53z" fill="#FFF1A2"/><path d="M31.82 90.729a42.152 42.152 0 0 1-6.463-4.025c.3-.142.64-.21.995-.184 16.103 1.197 27.563-2.097 35.743-7.195 8.195-5.106 13.256-12.121 16.378-18.618a1.984 1.984 0 1 1 3.577 1.719c-3.361 6.995-8.872 14.67-17.856 20.267-7.938 4.947-18.465 8.196-32.374 8.036z" fill="#FFB100"/><path fill-rule="evenodd" clip-rule="evenodd" d="M17.26 49.55c0-18.525 15.017-33.542 33.542-33.542 18.525 0 33.542 15.017 33.542 33.542 0 18.525-15.017 33.543-33.542 33.543-18.525 0-33.542-15.018-33.542-33.543z" fill="#FFD900"/><path d="M28.038 41.487a8.235 8.235 0 0 1 11.249-3.014l6.552 3.782a8.235 8.235 0 0 1-8.235 14.263l-6.552-3.783a8.235 8.235 0 0 1-3.014-11.248z" fill="#FFF1A2"/><path fill-rule="evenodd" clip-rule="evenodd" d="M47.628 47.774a5.102 5.102 0 0 0-10.205 0v2.456a5.102 5.102 0 1 0 10.205 0v-2.456z" fill="#F68B00"/><path d="M36.02 44.398a3.093 3.093 0 0 0 3.089 3.097 3.093 3.093 0 0 0 3.089-3.097 3.093 3.093 0 0 0-3.09-3.098 3.093 3.093 0 0 0-3.088 3.098zM74.008 41.487a8.235 8.235 0 0 0-11.248-3.014l-6.552 3.782a8.235 8.235 0 0 0 8.235 14.263l6.551-3.783a8.235 8.235 0 0 0 3.014-11.248z" fill="#FFF1A2"/><path d="M55.126 47.495a3.093 3.093 0 0 0 3.089-3.097 3.09 3.09 0 0 0-.358-1.449 5.102 5.102 0 0 1 6.766 4.825v2.456a5.102 5.102 0 1 1-10.205 0v-2.456c0-.12.005-.24.013-.357.223.051.456.078.695.078z" fill="#F68B00"/><path d="M18.613 37.218l2.505 2.222c10.089 8.947 25.985 5.301 31.167-7.147l-17.257-6.207-16.415 11.132z" fill="#FFD900"/><path d="M82.331 37.945l-2.725 1.945c-10.977 7.831-26.4 2.528-30.238-10.398l17.816-4.35 15.147 12.803z" fill="#FFD900"/><path d="M23.663 41.784c24.73.843 38.306-12.402 45.838-20.085a33.387 33.387 0 0 0-18.699-5.691 33.407 33.407 0 0 0-21.512 7.805c-.11.066-.218.143-.325.23-.406.33-.81.68-1.221 1.034-2.913 2.512-6.138 5.294-12.382 3.784-.127-.031-.25-.06-.368-.086l-3.094-.797c-1.097-.296-1.903.399-1.843 1.535.29 5.458 4.101 10.2 9.51 11.656.772.208 1.55.341 2.325.404.608.116 1.211.192 1.771.211z" fill="#F68B00"/><path d="M49.077 60.265c-6.2-8.2-19.084-10.292-24.75-10.313l-1.75 4.563 22.25 10.5 4.25-4.75zM52.139 60.265c6.2-8.2 19.083-10.292 24.75-10.313l1.75 4.563-22.25 10.5-4.25-4.75z" fill="#FFD900"/><path fill-rule="evenodd" clip-rule="evenodd" d="M50.973 61.628c1.749 0 3.166-1.43 3.166-3.193 0-1.763-3.166-5.933-3.166-5.933s-3.166 4.17-3.166 5.933c0 1.764 1.418 3.193 3.166 3.193z" fill="#F68B00"/><path d="M43.928 63.577c0 5.525-4.479 10.003-10.003 10.003-5.525 0-10.004-4.478-10.004-10.003S28.4 53.574 33.925 53.574c5.524 0 10.003 4.478 10.003 10.003zM78.025 63.577c0 5.525-4.479 10.003-10.004 10.003-5.524 0-10.003-4.478-10.003-10.003s4.479-10.003 10.003-10.003c5.525 0 10.004 4.478 10.004 10.003z" fill="#FEC701"/><path d="M50.973 62.477c-5.357 0-9.87 2.238-11.238 5.286-.452 1.008.47 1.94 1.575 1.94h19.326c1.104 0 2.027-.932 1.575-1.94-1.368-3.048-5.881-5.286-11.238-5.286z" fill="#FFF1A2"/><path d="M88.752 55.718a6.283 6.283 0 0 1 6.283-6.283h26.724a6.282 6.282 0 0 1 6.282 6.283v52.288a6.282 6.282 0 0 1-6.282 6.283H95.035a6.283 6.283 0 0 1-6.283-6.283V55.718z" fill="#FF9600"/><path fill-rule="evenodd" clip-rule="evenodd" d="M121.759 54.147H95.035a1.57 1.57 0 0 0-1.57 1.57v52.289a1.57 1.57 0 0 0 1.57 1.571h26.724a1.57 1.57 0 0 0 1.57-1.571V55.718a1.57 1.57 0 0 0-1.57-1.57zm-26.724-4.712a6.283 6.283 0 0 0-6.283 6.283v52.288a6.283 6.283 0 0 0 6.283 6.283h26.724a6.282 6.282 0 0 0 6.282-6.283V55.718a6.282 6.282 0 0 0-6.282-6.283H95.035z" fill="#F68B00"/><path d="M99.561 49.434h17.671v3.984a3.142 3.142 0 0 1-3.142 3.141h-11.387a3.142 3.142 0 0 1-3.142-3.141v-3.984z" fill="#F68B00"/><path d="M93.446 62.94h29.844V108a1.57 1.57 0 0 1-1.571 1.571H95.017a1.57 1.57 0 0 1-1.57-1.571V62.94z" fill="#FFF1A2"/><path fill-rule="evenodd" clip-rule="evenodd" d="M96.017 70.757a5.802 5.802 0 0 1 5.802-5.802H115.6a5.803 5.803 0 0 1 5.803 5.802v20.31c0 .4-.325.724-.726.724h-18.858a5.802 5.802 0 0 1-5.802-5.802V70.757z" fill="#FEC701"/><path d="M112.872 91.791h-11.053a5.802 5.802 0 0 1-5.802-5.802v-6.985l3.558-5.922c2.991-4.978 9.453-6.59 14.431-3.598 4.979 2.992 6.59 9.453 3.598 14.432l-4.732 7.876z" fill="#FFB100"/><path d="M96.017 84.89v-1.721c3.862 2.606 8.271 3.327 12.634 2.368a.725.725 0 1 1 .311 1.416c-4.44.976-8.943.346-12.945-2.064z" fill="#F68B00"/><path d="M101.44 74.203a8.341 8.341 0 0 1 14.299 8.592 8.341 8.341 0 0 1-14.299-8.592z" fill="#FFD900"/><path d="M113.317 71.626c.137 2.081-2.133 2.982-3.394 1.52-.66-.765-.018-1.764-.018-1.764s-.003.502.299.729c.598.448 1.607-.386.339-1.724a8.349 8.349 0 0 1 2.774 1.24z" fill="#F68B00"/><path d="M108.841 77.38a3.627 3.627 0 0 1 6.217 3.736 3.627 3.627 0 0 1-6.217-3.736z" fill="#FFF1A2"/><path d="M103.244 74.017a3.627 3.627 0 0 1 6.217 3.736 3.626 3.626 0 1 1-6.217-3.736z" fill="#FFF1A2"/><path d="M109.648 77.442A2.539 2.539 0 0 1 114 80.057a2.538 2.538 0 1 1-4.352-2.615z" fill="#F68B00"/><path fill-rule="evenodd" clip-rule="evenodd" d="M110.989 75.978a.725.725 0 0 1 .523-.013l.781.28.14.206a.725.725 0 0 1-.196 1.007l-.601.406a.725.725 0 0 1-1.007-.196l-.316-.468c-.256-.38-.1-.899.323-1.075l.353-.147z" fill="#FFF1A2"/><path d="M104.675 74.454a2.539 2.539 0 0 1 4.352 2.615 2.54 2.54 0 0 1-4.352-2.615z" fill="#F68B00"/><path d="M106.046 72.666a.725.725 0 0 1 1.007.196l.406.601a.725.725 0 0 1-.196 1.007l-.601.406a.725.725 0 0 1-1.007-.196l-.406-.601a.725.725 0 0 1 .196-1.007l.601-.406zM112.138 78.018a.725.725 0 1 1 .811 1.203.725.725 0 1 1-.811-1.203zM107.164 75.03a.725.725 0 1 1 .811 1.203.725.725 0 1 1-.811-1.203z" fill="#FFF1A2"/><path d="M114.571 84.314a8.343 8.343 0 0 1-13.925-8.366 5.798 5.798 0 0 1 5.52.248 5.775 5.775 0 0 1 2.281 2.542 5.775 5.775 0 0 1 3.314.82 5.795 5.795 0 0 1 2.81 4.756z" fill="#FFD900"/><path fill-rule="evenodd" clip-rule="evenodd" d="M107.369 78.874a.273.273 0 0 0-.544-.005l.272.002-.272-.002v.056c.001.034.002.081.006.139.007.115.021.272.052.441.03.167.078.355.156.526.077.169.195.345.378.456.184.11.395.13.58.12.187-.012.376-.058.538-.11a3.852 3.852 0 0 0 .539-.22l.036-.019.01-.005.002-.002h.001l-.129-.24.129.24a.272.272 0 1 0-.259-.479l-.001.001-.006.004-.028.014a3.367 3.367 0 0 1-.459.189 1.73 1.73 0 0 1-.406.084.472.472 0 0 1-.267-.044.48.48 0 0 1-.163-.215 1.746 1.746 0 0 1-.116-.397 3.155 3.155 0 0 1-.044-.377l-.005-.118v-.039z" fill="#F68B00"/><path fill-rule="evenodd" clip-rule="evenodd" d="M111.263 81.43a1.089 1.089 0 0 1 1.866 1.12 1.089 1.089 0 0 1-1.866-1.12zM103.183 76.573a1.088 1.088 0 0 1 1.865 1.12 1.087 1.087 0 1 1-1.865-1.12z" fill="#FEC701"/><path fill-rule="evenodd" clip-rule="evenodd" d="M108.046 79.442a.648.648 0 0 0 .891-.217c.184-.305.058-1.363.058-1.363l-.088.035c-.247.102-.939.406-1.089.656a.65.65 0 0 0 .228.889z" fill="#F68B00"/><path fill-rule="evenodd" clip-rule="evenodd" d="M116.617 84.765a.324.324 0 0 1 .615 0l.669 2.009 1.411.686a.324.324 0 0 1 0 .582l-1.411.686-.669 2.009a.324.324 0 0 1-.615 0l-.669-2.01-1.411-.685a.324.324 0 0 1 0-.582l1.411-.686.669-2.01zM100.791 67.597a.259.259 0 0 1 .491 0l.487 1.46 1.028.5a.259.259 0 0 1 0 .466l-1.028.5-.487 1.46a.259.259 0 0 1-.491 0l-.487-1.46-1.028-.5a.259.259 0 0 1 0-.465l1.028-.5.487-1.461z" fill="#FFF1A2"/><path d="M120.764 85.007a.431.431 0 0 1 .61 0l.367.366a.433.433 0 0 1 0 .61l-.367.367a.431.431 0 0 1-.61 0l-.367-.366a.433.433 0 0 1 0-.611l.367-.366z" fill="#FFF1A2"/><path d="M116.357 101.422a4.5 4.5 0 0 0-4.5-4.5h-8.5a8 8 0 0 0-8 8 1 1 0 0 0 1 1h15.5a4.5 4.5 0 0 0 4.5-4.5z" fill="#FFB100"/><path d="M100.357 101.422a1.5 1.5 0 1 1 3 0 1.5 1.5 0 1 1-3 0z" fill="#FFF1A2"/><path fill-rule="evenodd" clip-rule="evenodd" d="M104.357 101.422a1.5 1.5 0 1 1 3 0 1.5 1.5 0 1 1-3 0z" fill="#FFF1A2"/><path d="M108.357 101.422a1.5 1.5 0 1 1 3 0 1.5 1.5 0 1 1-3 0z" fill="#FFF1A2"/></svg>