<svg viewBox="0 0 135 124" fill="none" xmlns="http://www.w3.org/2000/svg"><path d="M11 28c0-9.389 7.611-17 17-17h79c9.389 0 17 7.611 17 17v79c0 9.389-7.611 17-17 17H28c-9.389 0-17-7.611-17-17V28z" fill="#FF7878"/><path d="M3.551 29.225C1.983 20.005 8.185 11.26 17.404 9.691l9.665-1.644c9.22-1.568 17.965 4.634 19.534 13.853l.064.38c1.569 9.219-4.634 17.964-13.853 19.533l-9.665 1.644C13.93 45.026 5.186 38.824 3.616 29.604l-.065-.379z" fill="#3D3D3D"/><path d="M7.547 50.517c.591-.1 1.14-.3 1.635-.577 2.459 7.48 10.083 12.24 18.081 10.879l24.928-4.242c8.025-1.365 13.657-8.42 13.465-16.324a5.076 5.076 0 1 0-1.813-9.12c-2.852-6.768-10.072-10.94-17.624-9.655l-24.928 4.241C13.77 27 8.35 33.278 7.86 40.57a5.077 5.077 0 1 0-.312 9.947z" fill="#FFCBA3"/><path d="M62.495 28.596l-8.403 1.43a6.02 6.02 0 0 1-6.945-4.926l-.624-3.67c6.446-.974 12.61 2.01 15.971 7.166z" fill="#D6C6BA"/><path d="M10.563 50.376a2.446 2.446 0 1 1-4.824.82 2.446 2.446 0 0 1 4.824-.82z" fill="#C86902"/><path d="M34.348 32.765a5.644 5.644 0 0 0-6.511-4.618l-.207.035a5.645 5.645 0 0 0-4.618 6.512l.98 5.754a5.644 5.644 0 0 0 6.51 4.617l.207-.035a5.644 5.644 0 0 0 4.618-6.511l-.979-5.754z" fill="#E99B5F"/><path d="M23.36 36.744a5.644 5.644 0 0 1 4.618-6.511l.207-.035a5.644 5.644 0 0 1 6.512 4.617l.63 3.704a5.644 5.644 0 0 1-4.618 6.511l-.207.036a5.644 5.644 0 0 1-6.511-4.618l-.63-3.704z" fill="#fff"/><path d="M3.801 30.692c-1.185-6.966 3.5-13.574 10.467-14.759l.942-.16c6.966-1.185 13.574 3.5 14.76 10.467l.16.942c1.185 6.966-3.501 13.574-10.467 14.759l-.943.16c-6.966 1.185-13.573-3.5-14.759-10.466l-.16-.943z" fill="#3D3D3D"/><path d="M28.713 37.035a2.018 2.018 0 0 0 1.43-2.964 2.59 2.59 0 0 1 2.849 2.139l.425 2.498a2.59 2.59 0 1 1-5.106.868l-.425-2.498a2.91 2.91 0 0 1-.012-.077 2 2 0 0 0 .839.034z" fill="#3D3D3D"/><path d="M36.73 40.189c.113-.02 1.38 1.394 2.678 2.883 1.292 1.48.452 3.792-1.486 4.122-1.938.33-3.495-1.574-2.765-3.399.732-1.834 1.46-3.587 1.573-3.606zm-.292-7.779c-.13-.76-.1-1.51.063-2.218l.2.316 2.339.842 3.74.247 5.038-.857.81 4.758c-4.577.614-8.082 3.102-10.114 5.171a5.62 5.62 0 0 1-1.097-2.505l-.98-5.754z" fill="#E99B5F"/><path d="M36.786 34.46a5.62 5.62 0 0 1 .634-3.694l1.62.584 3.74.247 4.743-.807c.287.53.493 1.114.6 1.741l.504 2.967c-4.576.613-8.08 3.102-10.113 5.17a5.62 5.62 0 0 1-1.097-2.504l-.63-3.704z" fill="#fff"/><path d="M40.514 32.98a2.018 2.018 0 0 1-1.64 2.327l.408 2.403c.104.609.412 1.131.842 1.51a18.36 18.36 0 0 1 4.236-2.542l-.398-2.335a2.59 2.59 0 0 0-3.629-1.922c.086.173.148.36.181.559z" fill="#3D3D3D"/><path fill-rule="evenodd" clip-rule="evenodd" d="M35.34 27.41a1.317 1.317 0 0 1 1.52 1.077c.06.352.357 1.062 1.873 1.51 1.585.469 4.365.59 9.005-.378a1.317 1.317 0 0 1 .537 2.578c-4.815 1.004-8.096.975-10.29.326-2.261-.67-3.459-2.046-3.722-3.595a1.317 1.317 0 0 1 1.077-1.519z" fill="#E99B5F"/><path d="M34.349 53.348a2.711 2.711 0 0 1 1.758-3.407l8.212-2.623a2.711 2.711 0 0 1 3.407 1.759c.628 1.966-1.083 3.884-3.108 3.484l-1.382-.273a3.658 3.658 0 0 0-3.366 1.075l-.969 1.024c-1.418 1.5-3.925.927-4.553-1.039z" fill="#fff"/><path d="M84.069 18.831l33.106 4.699-2.875 20.256-33.106-4.7 2.875-20.255z" fill="#3D3D3D"/><path d="M90.236 35.24c-4.755 3.401-11.366 2.303-14.766-2.452l-2.95-4.124c-3.4-4.755-2.302-11.366 2.453-14.766l4.611-3.298c4.755-3.4 11.366-2.303 14.767 2.452l2.95 4.125c3.4 4.754 2.302 11.366-2.453 14.766l-4.612 3.298zm19.715 2.646c3.621 4.589 10.276 5.374 14.865 1.753l3.981-3.141c4.589-3.62 5.374-10.276 1.753-14.866l-3.512-4.45c-3.621-4.59-10.276-5.375-14.865-1.754l-3.981 3.14c-4.589 3.622-5.374 10.277-1.753 14.866l3.512 4.452z" fill="#3D3D3D"/><path d="M88.933 10.94c.821-5.788 6.179-9.814 11.967-8.993l7.573 1.075c5.788.822 9.814 6.18 8.992 11.967l-.889 6.267c-.822 5.788-6.179 9.813-11.967 8.992l-7.574-1.075c-5.787-.821-9.813-6.18-8.992-11.967l.89-6.267z" fill="#3D3D3D"/><path d="M112.722 41.091a8.108 8.108 0 0 1 6.889 9.167l-2.849 20.069c-.739 5.209-5.562 8.832-10.771 8.093l-23.28-3.304a9.527 9.527 0 0 1-8.093-10.771l2.848-20.069a8.108 8.108 0 0 1 9.167-6.888l26.089 3.703z" fill="#A46648"/><path d="M99.393 52.826a5.42 5.42 0 1 1 10.732 1.524l-.475 3.342a5.42 5.42 0 1 1-10.731-1.523l.474-3.343z" fill="#fff"/><path d="M122.963 59.388a4.835 4.835 0 1 1-9.574-1.36 4.835 4.835 0 0 1 9.574 1.36zM80.93 53.622a4.834 4.834 0 1 1-9.573-1.358 4.834 4.834 0 0 1 9.573 1.358z" fill="#A46648"/><path d="M100.461 54.144a1.955 1.955 0 0 0 2.022-2.809 2.399 2.399 0 0 1 2.841 2.691l-.424 2.99a2.4 2.4 0 0 1-4.751-.673l.312-2.199z" fill="#3D3D3D"/><path d="M96.356 52.395a5.42 5.42 0 0 0-10.732-1.523l-.475 3.343a5.42 5.42 0 1 0 10.732 1.523l.475-3.343z" fill="#fff"/><path d="M90.213 52.69a1.955 1.955 0 0 0 2.021-2.81 2.399 2.399 0 0 1 2.84 2.69l-.423 2.992a2.399 2.399 0 1 1-4.75-.674l.312-2.198z" fill="#3D3D3D"/><path d="M98.846 35.898a8.2 8.2 0 0 1 9.831-6.152L108.158 32a8.2 8.2 0 0 1-9.83 6.152l.518-2.254z" fill="#FDB02A"/><path d="M93.606 29.853a8.2 8.2 0 0 0 7.73 8.645l.129-2.31a8.2 8.2 0 0 0-7.73-8.644l-.13 2.309z" fill="#FDB02A"/><path d="M76.283 33.871l24.484 3.475-.341 2.4-23.706 8.518-.437-14.393z" fill="#FDB02A"/><path d="M123.445 40.565L98.961 37.09l-.34 2.4 20.399 14.778 4.425-13.703z" fill="#FDB02A"/><path fill-rule="evenodd" clip-rule="evenodd" d="M94.314 45.01c-2.867 2.882-6.604 2.758-8.167 2.322a.825.825 0 0 1 .444-1.589c1.182.33 4.233.437 6.553-1.897a.825.825 0 0 1 1.17 1.163zm9.018 1.28c1.951 3.566 5.575 4.487 7.198 4.502a.824.824 0 1 0 .015-1.65c-1.227-.01-4.187-.757-5.767-3.644a.824.824 0 1 0-1.446.791z" fill="#884727"/><path d="M95.917 70.372c-.936.82-.194 2.136 1.049 2.208l6.209.361c1.242.072 2.131-1.148 1.297-2.072a6.083 6.083 0 0 0-4.175-2.002 6.085 6.085 0 0 0-4.38 1.505z" fill="#fff"/><path d="M112.285 53.776c.172-1.206 2.861-5.356 3.196-5.308.335.048 1.762 4.782 1.591 5.988-.171 1.206-1.382 2.032-2.704 1.844-1.321-.187-2.254-1.317-2.083-2.523z" fill="#A3FFFF"/><path d="M96.318 62.061c-5.426-4.14-11.427-5.076-13.75-5.026l-.903 6.363 14.177 2.012.476-3.349zm.344.049c6.363-2.468 12.388-1.696 14.605-1.002l-.903 6.363-14.178-2.012.476-3.349z" fill="#A46648"/><path d="M94.833 61.053a1.772 1.772 0 0 0 3.509.498c.137-.968-1.225-3.455-1.298-3.465-.073-.01-2.073 1.998-2.211 2.967z" fill="#86401F"/><path d="M93.915 61.418a1.824 1.824 0 0 1 2.062-1.55l1.606.228a1.824 1.824 0 1 1-.513 3.612l-1.605-.227a1.824 1.824 0 0 1-1.55-2.063z" fill="#86401F"/><path d="M43.025 75.974l-2.292-1.993a1.822 1.822 0 0 0-2.571.18l-4.384 5.043c-.66.76-.58 1.91.18 2.571l2.292 1.993c.76.66 1.91.58 2.57-.18l4.385-5.043c.66-.76.58-1.91-.18-2.571z" fill="#64DDFF"/><path d="M49.692 8.728l2.292-1.992c.76-.66 1.911-.58 2.571.18l4.384 5.043c.66.76.58 1.91-.18 2.57l-2.292 1.993c-.76.66-1.91.58-2.57-.18L49.511 11.3c-.66-.76-.58-1.91.18-2.57zm1.984 54.802l2.95-.726a1.822 1.822 0 0 1 2.205 1.334l1.596 6.489a1.822 1.822 0 0 1-1.334 2.205l-2.95.725a1.822 1.822 0 0 1-2.205-1.334l-1.596-6.489a1.822 1.822 0 0 1 1.334-2.205zm56.742 21.366l-2.293-1.993a1.822 1.822 0 0 0-2.571.18l-4.384 5.043c-.66.76-.58 1.911.18 2.571l2.293 1.993c.759.66 1.91.58 2.571-.18l4.383-5.043c.661-.76.58-1.91-.179-2.57z" fill="#FFDF28"/><path d="M61.276 55.966l2.292-1.993c.76-.66 1.91-.58 2.571.18l4.384 5.043c.66.76.58 1.91-.18 2.571l-2.292 1.993c-.76.66-1.91.58-2.571-.18l-4.384-5.043c-.66-.76-.58-1.91.18-2.571z" fill="#6DCE00"/><path d="M110.031 108.783l-1.827 2.202a1.718 1.718 0 0 0 .225 2.418l4.845 4.019c.73.606 1.812.505 2.418-.225l1.827-2.202a1.717 1.717 0 0 0-.225-2.418l-4.845-4.019a1.717 1.717 0 0 0-2.418.225z" fill="#CE82FF"/><path d="M71.507 7.288L68.65 6.257a1.822 1.822 0 0 0-2.333 1.095l-2.27 6.284a1.822 1.822 0 0 0 1.095 2.333L68 17.001a1.822 1.822 0 0 0 2.333-1.095l2.27-6.284a1.822 1.822 0 0 0-1.095-2.334z" fill="#1CB0F6"/><path fill-rule="evenodd" clip-rule="evenodd" d="M122.001 70.663l5.565 1.491c.43.115.715.522.676.965l-.23 2.62a.915.915 0 0 1-1.149.804l-6.447-1.727a.916.916 0 0 1-.593-1.272l1.11-2.383a.917.917 0 0 1 1.068-.498z" fill="#743D00"/><path d="M127.988 70.754l-5.625-1.507a.939.939 0 1 0-.486 1.815l5.624 1.507a.94.94 0 0 0 .487-1.815z" fill="#743D00"/><path fill-rule="evenodd" clip-rule="evenodd" d="M116.841 81.94l5.913-3.304 3.469 5.818a7.329 7.329 0 0 1 .785 5.65l-4.417 16.482a1.145 1.145 0 0 1-1.402.81l-11.459-3.071a1.144 1.144 0 0 1-.81-1.402l4.416-16.483a7.332 7.332 0 0 1 3.505-4.5z" fill="#743D00"/><path fill-rule="evenodd" clip-rule="evenodd" d="M121.438 70.792l6.598 1.768-4.79 23.153-9.236-2.475 7.428-22.446z" fill="#743D00"/><path d="M126.995 90.152l-13.672-3.663-3.619 13.508 13.671 3.663 3.62-13.508z" fill="#1899D6"/><path d="M119.225 83.749l-1.399-.375a1.462 1.462 0 0 0-.757 2.822l1.4.375a1.46 1.46 0 0 0 .756-2.822z" fill="#924D00"/><path fill-rule="evenodd" clip-rule="evenodd" d="M121.63 75.101c.408.11.65.529.541.936l-.011.037-1.688 5.233a.846.846 0 0 1-1.024.556.763.763 0 0 1-.529-.973l1.688-5.232a.845.845 0 0 1 1.023-.557zm.238-3.393l2.198.589a.417.417 0 0 1 .269.58l-.635 1.344a.416.416 0 0 1-.484.225l-2.198-.59a.417.417 0 0 1-.269-.58l.635-1.344a.416.416 0 0 1 .484-.224z" fill="#924D00"/><path d="M20.637 63.216l-4.592.97a1.04 1.04 0 0 0-.803 1.231l4.025 19.074c.119.562.67.921 1.232.803l4.592-.97a1.04 1.04 0 0 0 .803-1.231L21.87 64.019a1.04 1.04 0 0 0-1.232-.803z" fill="#4E4A4A"/><path fill-rule="evenodd" clip-rule="evenodd" d="M20.595 74.382a7.294 7.294 0 0 1 8.643 5.63l5.417 25.672a2.08 2.08 0 0 1-1.606 2.464l-10.204 2.153a2.08 2.08 0 0 1-2.464-1.605l-5.417-25.671a7.294 7.294 0 0 1 5.63-8.643z" fill="#4E4A4A"/><path d="M20.382 83.459l-1.788.377a.78.78 0 0 0-.602.924l4.938 23.398a.78.78 0 0 0 .924.602l1.787-.377a.78.78 0 0 0 .602-.924l-4.937-23.398a.78.78 0 0 0-.924-.602z" fill="#A09797"/><path d="M28.002 84.242l-9.944 2.098a.78.78 0 0 0-.602.924l3.327 15.768a.78.78 0 0 0 .924.602l9.944-2.098a.78.78 0 0 0 .602-.924l-3.327-15.768a.78.78 0 0 0-.924-.602zm-6.37-21.356l-6.63 1.4a.78.78 0 0 0-.603.923l.43 2.035a.78.78 0 0 0 .924.602l6.63-1.4a.78.78 0 0 0 .602-.923l-.43-2.035a.78.78 0 0 0-.923-.602z" fill="#D93C5E"/><path d="M19.113 81.867a1.952 1.952 0 0 0 1.509-2.31 1.952 1.952 0 0 0-2.314-1.505 1.952 1.952 0 0 0-1.51 2.311 1.951 1.951 0 0 0 2.315 1.504z" fill="#A09797"/><path d="M21.628 85.587l-3.314.7 3.65 17.293 3.313-.699-3.649-17.294zm-2.311-21.681l-3.57.753a.65.65 0 1 0 .268 1.272l3.57-.754a.65.65 0 0 0-.268-1.271z" fill="#EE476B"/><path d="M34.908 105.146h-.997v10.44h.997v-10.44z" fill="#A46644"/><path d="M34.41 110.586a2.623 2.623 0 0 1-2.616-2.615v-4.221a2.623 2.623 0 0 1 2.616-2.616 2.623 2.623 0 0 1 2.615 2.616v4.221a2.623 2.623 0 0 1-2.615 2.615zm8.584 7.314v-3.663c0-.822-.791-1.495-1.759-1.495H29.728c-.967 0-1.759.673-1.759 1.495v3.663h15.025z" fill="#7BC043"/><path d="M38.622 105.698h-.997v7.044h.997v-7.044z" fill="#A46644"/><path d="M38.123 110.472a2.623 2.623 0 0 1-2.615-2.616v-7.824a2.623 2.623 0 0 1 2.615-2.615 2.623 2.623 0 0 1 2.616 2.615v7.824a2.623 2.623 0 0 1-2.616 2.616z" fill="#7BC043"/><path d="M100.092 115.586h.997v-10.44h-.997v10.44z" fill="#A46644"/><path d="M100.59 110.586a2.623 2.623 0 0 0 2.616-2.615v-4.221a2.623 2.623 0 0 0-2.616-2.616 2.623 2.623 0 0 0-2.615 2.616v4.221a2.623 2.623 0 0 0 2.615 2.615zm-8.584 7.313v-3.663c0-.822.791-1.494 1.759-1.494h11.507c.967 0 1.759.672 1.759 1.494v3.663H92.006z" fill="#52AE48"/><path d="M96.378 112.742h.997v-7.044h-.997v7.044z" fill="#A46644"/><path d="M96.877 110.472a2.623 2.623 0 0 0 2.615-2.616v-7.824a2.623 2.623 0 0 0-2.615-2.616 2.623 2.623 0 0 0-2.616 2.616v7.824a2.624 2.624 0 0 0 2.616 2.616z" fill="#52AE48"/><path d="M40.963 87.284l7.549-7.498a7.006 7.006 0 0 1 4.937-2.036h14.04v12.33l-26.526-2.796z" fill="#4D4C4C"/><path d="M94.013 87.284l-7.548-7.498a7.006 7.006 0 0 0-4.938-2.036H67.488v12.33l26.525-2.796z" fill="#3D3D3D"/><path d="M67.818 89.396c.413 0 .696-.41.558-.799a2.428 2.428 0 0 0-1.112-1.313l-5.286-2.929a2.433 2.433 0 0 0-2.354 0l-5.33 2.953a.375.375 0 0 1-.361 0l-5.33-2.953a2.434 2.434 0 0 0-2.354 0l-5.285 2.929a2.428 2.428 0 0 0-1.113 1.313.596.596 0 0 0 .559.799h27.408z" fill="#3D3D3D"/><path d="M94.567 89.396c.413 0 .696-.41.558-.799a2.428 2.428 0 0 0-1.112-1.313l-5.286-2.929a2.434 2.434 0 0 0-2.354 0l-5.329 2.953a.376.376 0 0 1-.362 0l-5.33-2.953a2.435 2.435 0 0 0-2.353 0l-5.286 2.929a2.428 2.428 0 0 0-1.112 1.313.596.596 0 0 0 .558.799h27.408z" fill="#313030"/><path d="M67.488 99.693H40.74V117.9h26.75V99.693z" fill="#FFF0D8"/><path d="M94.238 99.693h-26.75V117.9h26.75V99.693zm-26.749-1.654H40.483a.827.827 0 1 0 0 1.654h27.006v-1.654z" fill="#F8DAB2"/><path d="M94.727 98.039H66.999a.827.827 0 1 0 0 1.654h27.728a.827.827 0 0 0 0-1.654z" fill="#E9BF8A"/><path d="M60.122 85.254l-5.33 2.952a1.402 1.402 0 0 1-1.357 0l-5.33-2.952a1.401 1.401 0 0 0-1.358 0l-5.286 2.928a1.401 1.401 0 0 0-.722 1.226v8.63h26.75v-8.63c0-.51-.277-.979-.723-1.225l-5.286-2.929a1.4 1.4 0 0 0-1.358 0z" fill="#FFF0D8"/><path d="M60.122 85.254l-5.33 2.952a1.402 1.402 0 0 1-1.357 0l-5.33-2.952a1.401 1.401 0 0 0-1.358 0l-5.286 2.928a1.401 1.401 0 0 0-.722 1.226v8.63h26.75v-8.63c0-.51-.277-.979-.723-1.225l-5.286-2.929a1.4 1.4 0 0 0-1.358 0z" fill="#FFF0D8"/><path d="M86.871 85.254l-5.329 2.952a1.402 1.402 0 0 1-1.358 0l-5.33-2.952a1.4 1.4 0 0 0-1.357 0l-5.287 2.928a1.401 1.401 0 0 0-.722 1.226v8.63h26.75v-8.63c0-.51-.277-.979-.723-1.225l-5.286-2.929a1.4 1.4 0 0 0-1.358 0z" fill="#F8DAB2"/><path d="M66.652 88.12l.836.481v1.48h-.836v-1.962z" fill="#FFF0D8"/><path d="M68.325 88.12l-.837.481v1.48h.837v-1.962z" fill="#F8DAB2"/><path d="M79.18 113.994H72.4a.567.567 0 0 1-.568-.567v-8.099c0-.261.212-.473.474-.473h6.875c.313 0 .567.254.567.568v8.004a.567.567 0 0 1-.567.567z" fill="#FFF0D8"/><path d="M78.613 112.859v-6.868h-5.645v6.868h5.645z" fill="#43ACE0"/><path d="M77.888 103.27h-4.195a.977.977 0 0 0-.977.977v.608h6.149v-.608a.977.977 0 0 0-.977-.977z" fill="#E9BF8A"/><path d="M76.9 104.855a1.577 1.577 0 1 0-2.277 0H76.9z" fill="#E9BF8A"/><path d="M79.354 109.887h-6.94v1.13h6.94v-1.13zm10.348 4.107h-6.78a.567.567 0 0 1-.568-.567v-8.099c0-.261.212-.473.473-.473h6.875c.313 0 .568.254.568.568v8.004a.567.567 0 0 1-.568.567z" fill="#FFF0D8"/><path d="M89.134 112.859v-6.868H83.49v6.868h5.645z" fill="#43ACE0"/><path d="M88.41 103.27h-4.196a.977.977 0 0 0-.977.977v.608h6.15v-.608a.977.977 0 0 0-.977-.977z" fill="#E9BF8A"/><path d="M87.421 104.855a1.577 1.577 0 1 0-2.277 0h2.277z" fill="#E9BF8A"/><path d="M89.875 109.887h-6.94v1.13h6.94v-1.13z" fill="#FFF0D8"/><path d="M58.862 117.9v-11.558c0-2.788-2.281-5.07-5.069-5.07s-5.07 2.282-5.07 5.07V117.9h10.14z" fill="#fff"/><path d="M50.549 117.9v-11.558a3.249 3.249 0 0 1 3.244-3.245 3.249 3.249 0 0 1 3.244 3.245V117.9H50.55z" fill="#A46644"/><path d="M52.374 116.48v-10.139a1.42 1.42 0 0 1 2.839 0v10.139h-2.84z" fill="#86D4EF"/><path d="M47.515 113.722l-1.473-6.84c-.107-.495-.812-.495-.92 0l-1.472 6.822c-.16.738.119 1.503.715 1.966l.022.018a1.967 1.967 0 0 0 3.128-1.966zm17.062 0l-1.472-6.84c-.107-.495-.813-.495-.92 0l-1.473 6.822c-.159.738.12 1.503.716 1.966l.022.018a1.967 1.967 0 0 0 3.127-1.966z" fill="#52AE48"/><path d="M45.582 117.903c1.088 0 1.99-.79 2.164-1.828a.314.314 0 0 0-.31-.366h-3.708a.314.314 0 0 0-.31.366 2.195 2.195 0 0 0 2.164 1.828zm17.063 0c1.087 0 1.99-.79 2.164-1.828a.314.314 0 0 0-.31-.366h-3.708a.314.314 0 0 0-.31.366 2.195 2.195 0 0 0 2.164 1.828z" fill="#43ACE0"/><path d="M42.078 99.693h-1.362v18.21h1.362v-18.21zm25.482 0h-1.362v18.21h1.362v-18.21z" fill="#F8DAB2"/><path d="M68.85 99.698h-1.362v18.21h1.363v-18.21zm25.387 0h-1.362V117.9h1.362V99.698z" fill="#E9BF8A"/><path d="M67.488 88.601l-1.362-.773v10.211h1.362v-9.438z" fill="#F8DAB2"/><path d="M67.488 88.601l1.363-.773v10.211h-1.363v-9.438z" fill="#E9BF8A"/><path d="M44.474 96.568h5.056a.58.58 0 0 0 .579-.579v-5.891a3.106 3.106 0 0 0-6.213 0v5.891c0 .32.259.579.578.579z" fill="#fff"/><path d="M49.183 95.642v-5.544c0-1.203-.978-2.18-2.181-2.18-1.202 0-2.18.977-2.18 2.18v5.544h4.36z" fill="#86D4EF"/><path d="M43.896 90.098v5.891c0 .32.259.579.578.579h5.056a.58.58 0 0 0 .579-.579v-5.891a3.106 3.106 0 0 0-6.213 0zm.925 0a2.181 2.181 0 0 1 4.361 0v5.544h-4.36v-5.544z" fill="#fff"/><path d="M46.706 96.46h.635v-8.938h-.635v8.938z" fill="#fff"/><path d="M49.876 92.102v-.636H44.17v.636h5.706z" fill="#fff"/><path d="M50.109 94.217h-7.081a.203.203 0 0 0-.204.203v1.334c0 .45.365.814.814.814h6.47v-2.351z" fill="#A46644"/><path d="M58.967 96.568h5.056c.32 0 .578-.26.578-.579v-5.891a3.106 3.106 0 0 0-6.212 0v5.891c0 .32.258.579.578.579z" fill="#fff"/><path d="M63.676 95.642v-5.544a2.181 2.181 0 0 0-4.361 0v5.544h4.36z" fill="#86D4EF"/><path d="M58.389 90.098v5.891c0 .32.259.579.578.579h5.056c.32 0 .578-.26.578-.579v-5.891a3.106 3.106 0 0 0-6.212 0zm.925 0c0-1.203.978-2.18 2.18-2.18 1.203 0 2.181.977 2.181 2.18v5.544h-4.36v-5.544z" fill="#fff"/><path d="M61.199 96.46h.635v-8.938h-.635v8.938z" fill="#fff"/><path d="M64.37 92.101v-.635h-5.707v.635h5.706z" fill="#fff"/><path d="M64.601 94.217h-7.08a.203.203 0 0 0-.204.203v1.334c0 .45.364.814.813.814h6.471v-2.351z" fill="#A46644"/><path d="M76.705 96.568h-5.056a.579.579 0 0 1-.579-.579v-5.891a3.106 3.106 0 0 1 6.213 0v5.891c0 .32-.259.579-.578.579z" fill="#fff"/><path d="M71.996 95.642v-5.544c0-1.203.978-2.18 2.18-2.18 1.203 0 2.181.977 2.181 2.18v5.544h-4.361z" fill="#43ACE0"/><path d="M74.177 86.993a3.106 3.106 0 0 0-3.107 3.106v5.891c0 .32.26.579.58.579h5.055c.32 0 .578-.26.578-.579V90.1a3.106 3.106 0 0 0-3.106-3.106zm2.18 8.65h-4.36v-5.544c0-1.203.978-2.18 2.18-2.18 1.202 0 2.18.977 2.18 2.18v5.544z" fill="#FFF0D8"/><path d="M74.473 87.522h-.635v8.938h.635v-8.938z" fill="#FFF0D8"/><path d="M77.008 92.102v-.636h-5.706v.636h5.706z" fill="#FFF0D8"/><path d="M71.07 94.217h7.081c.112 0 .204.091.204.203v1.334c0 .45-.365.814-.814.814h-6.47v-2.351z" fill="#8D4D2A"/><path d="M90.18 96.568h-5.056a.579.579 0 0 1-.578-.579v-5.891a3.106 3.106 0 0 1 6.213 0v5.891a.58.58 0 0 1-.579.579z" fill="#fff"/><path d="M85.471 95.642v-5.544c0-1.203.978-2.18 2.18-2.18 1.203 0 2.181.977 2.181 2.18v5.544h-4.361z" fill="#43ACE0"/><path d="M87.652 86.992a3.106 3.106 0 0 0-3.106 3.107v5.891c0 .32.259.579.578.579h5.056a.58.58 0 0 0 .579-.579v-5.891a3.106 3.106 0 0 0-3.107-3.107zm2.181 8.65h-4.361V90.1c0-1.203.978-2.181 2.18-2.181 1.203 0 2.181.978 2.181 2.18v5.545z" fill="#FFF0D8"/><path d="M87.948 87.522h-.635v8.938h.635v-8.938z" fill="#FFF0D8"/><path d="M90.483 92.101v-.635h-5.706v.635h5.706z" fill="#FFF0D8"/><path d="M84.546 94.217h7.081c.113 0 .204.09.204.203v1.334c0 .45-.365.814-.814.814h-6.47v-2.351z" fill="#8D4D2A"/><path d="M45.582 105.469c-.937 0-1.697-.76-1.697-1.697v-.803a1.697 1.697 0 0 1 3.394 0v.803c0 .937-.76 1.697-1.697 1.697z" fill="#fff"/><path d="M45.582 104.655a.884.884 0 0 1-.883-.883v-.803a.884.884 0 0 1 1.767 0v.803a.884.884 0 0 1-.884.883z" fill="#86D4EF"/><path d="M62.645 105.469c-.937 0-1.697-.76-1.697-1.697v-.803a1.697 1.697 0 0 1 3.394 0v.803c0 .937-.76 1.697-1.697 1.697z" fill="#fff"/><path d="M62.645 104.655a.884.884 0 0 1-.884-.883v-.803a.884.884 0 0 1 1.767 0v.803a.884.884 0 0 1-.883.883z" fill="#86D4EF"/><path d="M54.145 84.963c-.992 0-1.797.805-1.797 1.797v11.28h3.594V86.76c0-.992-.804-1.797-1.797-1.797z" fill="#F8DAB2"/><path d="M54.145 85.658a1.153 1.153 0 1 0 0-2.305 1.153 1.153 0 0 0 0 2.305z" fill="#F8DAB2"/><path d="M80.863 84.963c-.993 0-1.797.805-1.797 1.797v11.28h3.594V86.76c0-.992-.805-1.797-1.797-1.797z" fill="#E9BF8A"/><path d="M80.863 85.658a1.153 1.153 0 1 0 0-2.305 1.153 1.153 0 0 0 0 2.305zm12.652 2.525l-.64-.355v10.211h1.362v-8.63a1.4 1.4 0 0 0-.722-1.226z" fill="#E9BF8A"/><path d="M42.078 87.84l-.617.343a1.401 1.401 0 0 0-.722 1.225v8.63h1.34V87.842z" fill="#F8DAB2"/><path d="M92.875 117.9v-2.124c0-.98-.801-1.782-1.781-1.782H70.632v3.906h22.243z" fill="#52AE48"/><path d="M72.414 117.9v-2.124c0-.98-.802-1.782-1.782-1.782s-1.781.802-1.781 1.782v2.124h3.563z" fill="#52AE48"/><path d="M67.488 119.486H28.927c-.529 0-.958-.364-.958-.813v-.773h39.52v1.586z" fill="#F8DAB2"/><path d="M106.073 119.486H67.488V117.9h39.543v.772c0 .45-.429.814-.958.814z" fill="#E9BF8A"/><path d="M70.732 79.666l1.27-2.76c.42-.914.02-1.996-.895-2.416l-6.07-2.793a1.822 1.822 0 0 0-2.418.894l-1.27 2.76c-.42.914-.02 1.997.895 2.417l6.07 2.792c.915.42 1.997.02 2.418-.894zM40.473 64.99l-1.192-2.793a1.822 1.822 0 0 0-2.392-.96l-6.146 2.622a1.822 1.822 0 0 0-.96 2.391l1.191 2.794a1.822 1.822 0 0 0 2.392.96l6.146-2.622a1.822 1.822 0 0 0 .96-2.391z" fill="#CE82FF"/><path d="M23.908 73.683l-2.039-9.664a1.04 1.04 0 0 0-1.232-.803l-4.592.97a1.04 1.04 0 0 0-.803 1.231l2.04 9.664 6.626-1.398z" fill="#D93C5E"/></svg>