<svg viewBox="0 0 135 125" fill="none" xmlns="http://www.w3.org/2000/svg"><path d="M11 28c0-9.389 7.611-17 17-17h79c9.389 0 17 7.611 17 17v79c0 9.389-7.611 17-17 17H28c-9.389 0-17-7.611-17-17V28z" fill="#FFCA00"/><path d="M122.44 20.93L20.92 122.45a16.937 16.937 0 0 0 7.08 1.56h41.32L124 69.33V28.01a16.938 16.938 0 0 0-1.56-7.08zM50.32 69.07l58-58c-.43 0-.87-.07-1.31-.07H58.42L25.34 44.09c-6.904 6.904-6.904 18.096 0 25 6.903 6.904 18.096 6.904 25 0l-.02-.02z" fill="#FFD900"/><path d="M14.289 28.362h.002a8.297 8.297 0 0 1 7.902-8.5l39.046-1.844a8.297 8.297 0 0 1 8.669 7.717h.001l1.804 38.174a2.87 2.87 0 0 0 3.003 2.733l5.63-.266c.66-.032 1.221.478 1.252 1.138.305 6.456-4.68 11.936-11.136 12.24l-51.63 2.44c-6.456.305-11.937-4.681-12.242-11.137a1.196 1.196 0 0 1 1.139-1.251l5.63-.266a2.871 2.871 0 0 0 2.733-3.003l-1.803-38.175z" fill="#FFB100"/><path d="M18.523 29.249l47.255-2.232 2.227 47.153-47.255 2.232-2.227-47.153z" fill="#FFBB31"/><path d="M17.27 50.55a5.22 5.22 0 1 0-.492-10.43 5.22 5.22 0 0 0 .492 10.43zM69.032 48.106a5.22 5.22 0 1 0-.493-10.43 5.22 5.22 0 0 0 .493 10.43z" fill="#FFBB31"/><path d="M18.472 77.353a1.436 1.436 0 0 1 1.366-1.502l49.023-2.315a1.435 1.435 0 0 1 1.502 1.366l.229 4.858a1.435 1.435 0 0 1-1.366 1.501l-49.023 2.316a1.435 1.435 0 0 1-1.501-1.366l-.23-4.858z" fill="#E27800"/><path d="M41.807 75.606c.09-.469.489-.816.966-.838l3.152-.149c.478-.022.908.285 1.042.744l2.48 8.524a1.034 1.034 0 0 1-.944 1.321l-7.298.345a1.034 1.034 0 0 1-1.064-1.226l1.666-8.72z" fill="#FFF1A2"/><path d="M37.271 7.292l-.325-4.382c-.055-.869-.756-1.283-1.563-.96-3.882 1.55-6.38 5.48-6.108 9.763a10.094 10.094 0 0 0 .056.593 9.69 9.69 0 0 0-5.576 1.229c-.756.43-.869 1.236-.224 1.82l6.936 6.433c1.578 4.953 6.33 8.432 11.77 8.175 6.493-.307 11.508-5.819 11.201-12.312-.307-6.492-5.819-11.507-12.312-11.2a11.751 11.751 0 0 0-3.855.84zM14.886 40.574a5.22 5.22 0 0 1 6.665 2.148 5.819 5.819 0 0 0 1.861-4.552l-.345-7.302-8.62.408.44 9.298zM64.041 40.722a5.22 5.22 0 0 1 6.425-2.778l-.44-9.294-8.62.408.345 7.301a5.82 5.82 0 0 0 2.29 4.363z" fill="#FFB100"/><path d="M12.675 26.91a1.436 1.436 0 0 1 1.366-1.5l55.837-2.638a1.435 1.435 0 0 1 1.501 1.366l.187 3.956a1.435 1.435 0 0 1-1.366 1.502l-55.837 2.637a1.435 1.435 0 0 1-1.502-1.366l-.187-3.956z" fill="#E27800"/><path fill-rule="evenodd" clip-rule="evenodd" d="M28.669 47.468a22.98 22.98 0 0 1 10.426 1.19l1.268.454a2.913 2.913 0 0 1-1.965 5.485l-1.268-.454a17.155 17.155 0 0 0-7.783-.888l-1.337.157a2.913 2.913 0 1 1-.679-5.787l1.338-.157z" fill="#FFC6B7"/><rect x="20.981" y="44.147" width="44.011" height="11.611" rx="5.805" transform="rotate(-2.704 20.981 44.147)" fill="#FFB100"/><path d="M25.006 48.145a.944.944 0 1 0-1.496 1.151l1.496-1.151zm1.26 4.732a.944.944 0 1 0 1.496-1.151l-1.496 1.151zm-2.756-3.58l2.756 3.58 1.496-1.151-2.756-3.581-1.496 1.151zM60.895 46.45a.944.944 0 0 1 1.598 1.005l-1.598-1.005zm-.808 4.83a.944.944 0 0 1-1.598-1.006l1.598 1.006zm2.406-3.825l-2.406 3.825-1.598-1.006 2.406-3.824 1.598 1.005zM58.547 44.622a.944.944 0 1 1 1.598 1.005l-1.598-1.005zm-.808 4.83a.944.944 0 1 1-1.598-1.006l1.598 1.006zm2.406-3.825l-2.406 3.825-1.598-1.006 2.406-3.824 1.598 1.005zM27.172 46.103a.944.944 0 0 0-1.497 1.152l1.497-1.152zm1.26 4.733a.944.944 0 1 0 1.495-1.152l-1.496 1.152zm-2.756-3.581l2.755 3.58 1.496-1.15-2.755-3.582-1.497 1.152z" fill="#E64340" fill-opacity=".25"/><path d="M43.918 43.341a7.596 7.596 0 1 1-15.175.717 7.596 7.596 0 0 1 15.175-.717z" fill="#FFF1A2"/><path d="M41.823 43.44a7.596 7.596 0 1 0 15.175-.716 7.596 7.596 0 0 0-15.175.716z" fill="#FFF1A2"/><path d="M40.958 43.481a1.952 1.952 0 1 1-3.9.185 1.952 1.952 0 0 1 3.9-.185zM44.785 43.3a1.952 1.952 0 1 0 3.9-.184 1.952 1.952 0 0 0-3.9.184z" fill="#E27800"/><ellipse cx="51.928" cy="35.429" rx="8.672" ry="4.08" transform="rotate(15.568 51.928 35.429)" fill="#FFBB31"/><ellipse rx="9.248" ry="4.351" transform="scale(-1 1) rotate(20.977 -115.211 -71.78)" fill="#FFBB31"/><path d="M60.59 34.95a2.536 2.536 0 1 1-5.066.238 2.536 2.536 0 0 1 5.067-.239z" fill="#FFF1A2"/><path d="M42.925 44.549c.125-.006 1.308 1.688 2.514 3.467 1.2 1.771-.012 4.158-2.149 4.259-2.137.1-3.569-2.161-2.54-4.037 1.033-1.885 2.051-3.683 2.175-3.69z" fill="#F08904"/><path d="M54.19 33.58a1.67 1.67 0 1 1-3.336.157 1.67 1.67 0 0 1 3.336-.158zM40.829 61.144a5.146 5.146 0 0 0-5.16 2.702c-.488.922.28 1.894 1.315 2.018l6.465.775c1.035.124 2.011-.639 1.755-1.65a5.145 5.145 0 0 0-4.375-3.845z" fill="#FFF1A2"/><path d="M102.508 70.111a8.687 8.687 0 1 0-9.446 7.682 8.687 8.687 0 1 0 9.446-7.682z" fill="#FF9600"/><rect x="76.281" y="76.605" width="52.684" height="42.183" rx="10.471" transform="rotate(3.588 76.28 76.605)" fill="#FFB100"/><path d="M73.225 101.824a4.693 4.693 0 1 0 .587-9.369 4.694 4.694 0 0 0-.587 9.369zM128.742 105.305a4.694 4.694 0 1 0 .587-9.37 4.694 4.694 0 0 0-.587 9.37z" fill="#FFB100"/><path d="M82.89 77.734c-3.99 1.275-6.987 4.89-7.264 9.322l-.506 8.056.384.024a6.282 6.282 0 0 0 6.663-5.877l.723-11.525zM122.163 80.196c3.799 1.764 6.321 5.724 6.043 10.156l-.505 8.057-.383-.024a6.282 6.282 0 0 1-5.877-6.664l.722-11.525z" fill="#FAA401"/><path d="M90.735 113.415a7.134 7.134 0 0 1 7.567-6.674l4.704.295a7.133 7.133 0 0 1 6.673 7.566 1.553 1.553 0 0 1-2.033 1.38l-2.981-.975a17.988 17.988 0 0 0-9.005-.565l-3.08.595a1.553 1.553 0 0 1-1.845-1.622z" fill="#F68B00"/><path d="M107.032 115.781l-2.367-.774a17.988 17.988 0 0 0-9.005-.565l-2.446.473a7.127 7.127 0 0 1 13.818.866z" fill="#FF9600"/><path d="M82.505 96.692A5.527 5.527 0 0 0 86.75 106.9l-4.246-10.207zm31.942 11.943a5.528 5.528 0 0 0 5.488-9.596l-5.488 9.596zm-27.696-1.736c3.766-1.567 8.646-2.424 14.033-2.087l.692-11.032c-6.898-.433-13.488.631-18.971 2.912L86.75 106.9zm14.033-2.087c5.388.338 10.122 1.798 13.663 3.823l5.488-9.596c-5.156-2.948-11.562-4.827-18.459-5.26l-.692 11.033z" fill="#E64340" fill-opacity=".1"/><path fill-rule="evenodd" clip-rule="evenodd" d="M109.998 84.054a6.606 6.606 0 0 0-7.007 6.18l-.252 4.011a6.607 6.607 0 0 0 13.188.827l.251-4.01a6.607 6.607 0 0 0-6.18-7.008z" fill="#FFF1A2"/><path d="M101.448 96.153c.119.008 1.07 1.75 2.034 3.574.96 1.816-.449 3.966-2.499 3.838-2.05-.129-3.179-2.438-2-4.12 1.185-1.69 2.345-3.3 2.465-3.292z" fill="#F08904"/><rect x="104.359" y="91.454" width="3.506" height="3.506" rx="1.753" transform="rotate(3.588 104.359 91.454)" fill="#E27800"/><path fill-rule="evenodd" clip-rule="evenodd" d="M93.398 100.279a6.607 6.607 0 0 0 7.007-6.18l.251-4.01a6.607 6.607 0 0 0-13.187-.828l-.251 4.011a6.606 6.606 0 0 0 6.18 7.007z" fill="#FFF1A2"/><rect x="98.927" y="94.627" width="3.506" height="3.506" rx="1.753" transform="rotate(-176.412 98.927 94.627)" fill="#E27800"/><ellipse cx="112.719" cy="85.792" rx="7.219" ry="3.396" transform="rotate(30.864 112.719 85.792)" fill="#FFB100"/><path d="M82.725 100.085a.95.95 0 1 0-1.624.987l1.624-.987zm.709 4.825a.95.95 0 0 0 1.624-.987l-1.625.987zm-2.333-3.838l2.332 3.838 1.625-.987-2.333-3.838-1.624.987zM119.442 102.387a.95.95 0 1 1 1.488 1.182l-1.488-1.182zm-1.305 4.699a.951.951 0 0 1-1.488-1.183l1.488 1.183zm2.793-3.517l-2.793 3.517-1.488-1.183 2.793-3.516 1.488 1.182zM85.626 98.337a.95.95 0 0 0-1.624.987l1.624-.987zm.708 4.826a.95.95 0 0 0 1.624-.987l-1.624.987zm-2.332-3.839l2.332 3.839 1.624-.987-2.332-3.839-1.624.987zM116.767 100.29a.95.95 0 1 1 1.488 1.182l-1.488-1.182zm-1.306 4.699a.95.95 0 0 1-1.488-1.182l1.488 1.182zm2.794-3.517l-2.794 3.517-1.488-1.182 2.794-3.517 1.488 1.182z" fill="#E64340" fill-opacity=".25"/><path d="M116.276 86.48c.063-1 1.86-4.583 2.115-4.567.255.016 1.591 3.796 1.528 4.796a1.82 1.82 0 0 1-1.935 1.696 1.82 1.82 0 0 1-1.708-1.924z" fill="#FFF1A2"/><path d="M93.117 9.23l25.47 6.825-11.178 37.843a2.11 2.11 0 0 1-2.569 1.44l-19.46-5.214a2.11 2.11 0 0 1-1.504-2.532L93.117 9.23z" fill="#FF9600"/><path d="M101.267 11.414l11.971 3.207-9.293 32.877a2.11 2.11 0 0 1-2.576 1.463l-6.993-1.873a2.11 2.11 0 0 1-1.499-2.556l8.39-33.118z" fill="#FFB100"/><path d="M116.179 24.206l-25.053-6.712 1.991-8.264 25.47 6.825-2.408 8.151z" fill="#E27800"/><rect x="90.867" y="4.382" width="33.224" height="9.126" rx="2.109" transform="rotate(15 90.867 4.382)" fill="#FFF1A2"/><path d="M7.607 92.08a1.857 1.857 0 0 1 2.07-1.478l25.474 3.426a1.857 1.857 0 0 1 1.574 2.204L34.61 106.83a1.858 1.858 0 0 1-2.299 1.432l-24.84-6.609a1.857 1.857 0 0 1-1.344-2.158l1.48-7.416z" fill="#FFB100"/><path fill-rule="evenodd" clip-rule="evenodd" d="M9.108 92.861c.1-.503.59-.83 1.093-.73l11.326 2.26a.929.929 0 1 1-.363 1.821L9.838 93.953a.929.929 0 0 1-.73-1.092z" fill="#FF9600"/><path d="M8.907 98.62a.929.929 0 1 0-.364 1.822l.364-1.822zm10.963 4.081a.929.929 0 0 0 .363-1.822l-.363 1.822zm-11.327-2.259l11.327 2.259.363-1.822L8.907 98.62l-.364 1.822z" fill="#FF9600"/><path fill-rule="evenodd" clip-rule="evenodd" d="M8.461 96.105c.1-.503.59-.83 1.093-.729l11.326 2.26a.929.929 0 0 1-.363 1.82L9.19 97.199a.929.929 0 0 1-.729-1.093z" fill="#FF9600"/><path d="M14.673 92.26a4.643 4.643 0 0 1 5.462-3.646l43.826 8.741a1.857 1.857 0 0 1 1.458 2.185l-3.04 15.244a1.857 1.857 0 0 1-2.185 1.458l-43.826-8.741a4.642 4.642 0 0 1-3.645-5.461l1.95-9.78z" fill="#FF9600"/><path d="M64.485 104.226l-38.053 5.283-10.064-2.008a4.642 4.642 0 0 1-3.645-5.461l.398-1.997 37.922-5.265 12.918 2.577a1.857 1.857 0 0 1 1.458 2.185l-.934 4.686z" fill="#FFB100"/><path d="M56.552 115.516l3.767-18.888 3.642.727a1.857 1.857 0 0 1 1.459 2.185l-3.04 15.244a1.857 1.857 0 0 1-2.186 1.458l-3.642-.726z" fill="#F68B00"/></svg>