<svg viewBox="0 0 135 124" fill="none" xmlns="http://www.w3.org/2000/svg"><path d="M11 28c0-9.389 7.611-17 17-17h79c9.389 0 17 7.611 17 17v79c0 9.389-7.611 17-17 17H28c-9.389 0-17-7.611-17-17V28z" fill="#FEC701"/><path fill-rule="evenodd" clip-rule="evenodd" d="M64.756 27.337c8.2 8.201 8.2 21.498 0 29.699l-53.407 53.407a17.08 17.08 0 0 1-.348-3.443L11 51.394l24.057-24.057c8.201-8.2 21.498-8.2 29.699 0zM124 28.394v35.354l-8.995 8.997c-4.881 4.881-12.796 4.881-17.677 0-4.882-4.882-4.882-12.797 0-17.678L124 28.394z" fill="#FFD900"/><path d="M81.768 19.068c0 7.77-6.335 14.069-14.15 14.069-7.814 0-14.15-6.299-14.15-14.069C53.469 11.298 59.805 5 67.619 5c7.815 0 14.15 6.299 14.15 14.068z" fill="#F68B00"/><path fill-rule="evenodd" clip-rule="evenodd" d="M21.43 65.775c0-16.14 13.083-29.223 29.223-29.223H84.37c16.14 0 29.223 13.083 29.223 29.223 0 16.139-13.083 29.222-29.223 29.222H50.653c-16.14 0-29.223-13.083-29.223-29.222z" fill="#F68B00"/><path d="M113.362 69.468c-1.815 14.396-14.103 25.53-28.991 25.53H50.65c-14.888 0-27.175-11.134-28.99-25.53h91.701z" fill="#FFF1A2"/><path d="M31.678 50.51a2.736 2.736 0 0 1 2.735-2.736h66.904a2.736 2.736 0 0 1 2.736 2.736v48.531c0 6.628-5.373 12-12 12H43.677c-6.628 0-12-5.372-12-12v-48.53z" fill="#FFB100"/><path d="M42.898 45.172h52.858v8.62H42.898v-8.62z" fill="#F68B00"/><path fill-rule="evenodd" clip-rule="evenodd" d="M24.545 53.424a7.627 7.627 0 0 1 7.51-6.3h8.421a7.627 7.627 0 0 1 7.627 7.627v7.19a7.627 7.627 0 0 1-7.627 7.627h-9.69c-4.744 0-8.337-4.283-7.511-8.954l1.27-7.19zM87.625 53.937a7.627 7.627 0 0 1 7.627-7.627h7.165a7.628 7.628 0 0 1 7.56 6.619l1.068 8.003c.61 4.573-2.947 8.636-7.56 8.636h-8.233a7.627 7.627 0 0 1-7.627-7.627v-8.004z" fill="#F68B00"/><path fill-rule="evenodd" clip-rule="evenodd" d="M51.756 72.047a7.623 7.623 0 1 1 15.246 0v4.704a7.623 7.623 0 0 1-15.246 0v-4.704z" fill="#FFF1A2"/><path fill-rule="evenodd" clip-rule="evenodd" d="M58.031 72.322a3.433 3.433 0 0 1 6.867 0v4.312a3.433 3.433 0 0 1-6.867 0v-4.312z" fill="#F68B00"/><path d="M60.95 69.62a2.514 2.514 0 1 1-5.028 0 2.514 2.514 0 0 1 5.028 0z" fill="#FFF1A2"/><path fill-rule="evenodd" clip-rule="evenodd" d="M85.057 72.047a7.623 7.623 0 1 0-15.247 0v4.704a7.623 7.623 0 0 0 15.247 0v-4.704z" fill="#FFF1A2"/><path fill-rule="evenodd" clip-rule="evenodd" d="M79.166 72.322a3.433 3.433 0 1 0-6.867 0v4.312a3.433 3.433 0 0 0 6.867 0v-4.312z" fill="#F68B00"/><path d="M70.73 69.62a2.514 2.514 0 1 0 5.028 0 2.514 2.514 0 0 0-5.028 0z" fill="#FFF1A2"/><path fill-rule="evenodd" clip-rule="evenodd" d="M49.943 83.398c.002 0 .004 0 .172-5.501.169-5.502.171-5.502.173-5.502h.006l.01.001h.026l.067.004a20.275 20.275 0 0 1 .801.055c.499.044 1.182.122 2.003.255 1.63.266 3.868.765 6.307 1.71 4.868 1.888 10.934 5.734 14.093 13.364l-10.17 4.211c-1.634-3.946-4.769-6.097-7.902-7.311a20.694 20.694 0 0 0-4.097-1.11 17.031 17.031 0 0 0-1.483-.175 2.445 2.445 0 0 0-.029-.002h.023z" fill="#FFB100"/><path fill-rule="evenodd" clip-rule="evenodd" d="M87.101 83.809c-.002 0-.005 0-.186-5.912-.18-5.912-.183-5.912-.186-5.912h-.017l-.027.002-.07.003a20.21 20.21 0 0 0-.82.057c-.506.044-1.2.123-2.032.258a32.109 32.109 0 0 0-6.389 1.733c-4.933 1.913-11.108 5.822-14.324 13.59l10.93 4.525c1.576-3.809 4.602-5.896 7.67-7.086a20.276 20.276 0 0 1 4.015-1.086 16.572 16.572 0 0 1 1.44-.172l.032-.002h-.011l-.013.001h-.012z" fill="#FFB100"/><path fill-rule="evenodd" clip-rule="evenodd" d="M94.072 70.52a.811.811 0 0 1-.437 1.061l-4.175 1.74 4.193 1.864a.81.81 0 1 1-.66 1.482l-5.914-2.629a.811.811 0 0 1 .018-1.49l5.914-2.464a.81.81 0 0 1 1.06.437zM42.465 70.52a.811.811 0 0 0 .437 1.061l4.176 1.74-4.193 1.864a.81.81 0 1 0 .658 1.482l5.915-2.629a.811.811 0 0 0-.018-1.49l-5.914-2.464a.81.81 0 0 0-1.06.437z" fill="#FFA000"/><path fill-rule="evenodd" clip-rule="evenodd" d="M58.328 59.825l-.674-2.37a2.464 2.464 0 0 0 1.347 4.74l.012-.003.07-.019c.065-.017.167-.044.304-.078.273-.067.685-.164 1.212-.272a42.23 42.23 0 0 1 4.355-.655c3.615-.352 8.219-.333 12.52 1.01a2.464 2.464 0 1 0 1.468-4.706c-5.174-1.615-10.51-1.595-14.466-1.209a47.167 47.167 0 0 0-4.87.732 36.217 36.217 0 0 0-1.794.416 13.71 13.71 0 0 0-.108.03l-.032.008-.01.003-.006.002s-.002 0 .672 2.37zM68.433 82.898a3.702 3.702 0 0 0 3.696-3.707c0-2.048-3.696-6.89-3.696-6.89s-3.697 4.842-3.697 6.89a3.702 3.702 0 0 0 3.697 3.707z" fill="#F68B00"/><path fill-rule="evenodd" clip-rule="evenodd" d="M24.663 37.339a5.871 5.871 0 1 0 3.04-11.342 5.871 5.871 0 0 0-3.04 11.342zm-.776 2.898a8.871 8.871 0 1 0 4.592-17.138 8.871 8.871 0 0 0-4.592 17.137z" fill="#FFF1A2"/><path fill-rule="evenodd" clip-rule="evenodd" d="M31.617 32.153a5.871 5.871 0 1 0 3.039-11.342 5.871 5.871 0 0 0-3.04 11.342zm-.777 2.898a8.871 8.871 0 1 0 4.592-17.138 8.871 8.871 0 0 0-4.592 17.138zM118.511 37.74a1.5 1.5 0 0 1-1.5 1.5h-9.585a1.5 1.5 0 0 1 0-3h9.585a1.5 1.5 0 0 1 1.5 1.5zM101.064 20.19a1.5 1.5 0 0 0-1.5 1.5v9.585a1.5 1.5 0 1 0 3.001 0l-.001-9.585a1.5 1.5 0 0 0-1.5-1.5zM112.978 24.452a1.5 1.5 0 0 1 .186 2.113l-6.157 7.347a1.5 1.5 0 1 1-2.299-1.927l6.157-7.347a1.5 1.5 0 0 1 2.113-.186z" fill="#FFF1A2"/><path fill-rule="evenodd" clip-rule="evenodd" d="M61.589 104.404a.812.812 0 0 1 1.12-.246l-.437.683.437-.683-.001-.001v.001l.01.005.041.026.183.105c.164.091.41.22.726.364.633.29 1.539.637 2.624.869 2.165.462 5.012.457 7.865-1.369a.812.812 0 0 1 .874 1.366c-3.308 2.118-6.622 2.113-9.078 1.589a14.378 14.378 0 0 1-2.96-.98 11.945 11.945 0 0 1-1.067-.553l-.063-.038-.019-.012-.006-.003-.002-.002s-.001-.001.436-.684l-.437.683a.81.81 0 0 1-.246-1.12z" fill="#FFA000"/><path d="M62.926 100.201c9.143 2.089 16.906.045 21.763-6.646 2.518-3.469 1.783-8.328-1.642-10.854-3.217-2.373-7.662-1.843-10.277 1.104-1.348.881-2.985 1.537-4.85 1.526a18.445 18.445 0 0 1-1.53-.287l-.125-.027c-4.1-.866-8.16 1.749-9.107 5.892-.956 4.185 1.626 8.346 5.768 9.292z" fill="#F68B00"/><path d="M82.985 95.591a10.958 10.958 0 0 0-4.73-3.028c-5.785-1.865-11.988 1.313-13.854 7.099-.085.266-.16.533-.225.8 7.61 1.443 14.185-.078 18.81-4.87z" fill="#FF9600"/></svg>