<svg viewBox="0 0 136 124" fill="none" xmlns="http://www.w3.org/2000/svg"><rect x="124.93" y="124" width="113" height="113" rx="17" transform="rotate(-180 124.93 124)" fill="#E5E5E5"/><path d="M93.52 43.504H43.556c-9.362 0-16.951 7.59-16.951 16.951v6.449a7.472 7.472 0 1 0 0 14.04v12.758c0 9.362 7.59 16.952 16.951 16.952H93.52c9.362 0 16.952-7.59 16.952-16.952V80.884a7.472 7.472 0 1 0 0-14.335v-6.094c0-9.362-7.59-16.951-16.952-16.951z" fill="#BFBFBF"/><path d="M81.019 43.504H51.29c-6.556-1.171-11.527-6.818-11.527-13.606 0-7.637 6.291-13.83 14.053-13.83 7.76 0 14.05 6.193 14.05 13.83 0 .3-.01.597-.028.892h.03c7.11 0 12.9 5.652 13.15 12.714z" fill="#959595"/><path fill-rule="evenodd" clip-rule="evenodd" d="M68.316 83.056a4.13 4.13 0 0 0 4.126-4.135c0-2.284-4.126-7.686-4.126-7.686s-4.127 5.402-4.127 7.686a4.13 4.13 0 0 0 4.127 4.135z" fill="#959595"/><path d="M74.745 52.724c4.894 3.45 10.402 5.754 16.48 6.925.085.537.128 1.087.128 1.648v6.397c0 .396-.021.788-.064 1.173a14.523 14.523 0 0 0-3.027-.318c-5.695 0-10.621 3.292-12.98 8.076a10.51 10.51 0 0 1-4.962-8.931v-6.397c0-3.537 1.747-6.667 4.425-8.573zM45.65 59.943c-.056.443-.085.895-.085 1.354v6.397c0 1.727.416 3.356 1.153 4.794 1.628-.544 3.37-.84 5.182-.84 4.18 0 7.992 1.571 10.879 4.154a10.495 10.495 0 0 0 3.819-8.108v-6.397c0-2.781-1.08-5.31-2.843-7.19-5.64 3.349-11.684 5.312-18.104 5.836z" fill="#fff"/><path fill-rule="evenodd" clip-rule="evenodd" d="M45.389 54.653l-1.006-6.087a.932.932 0 0 0-1.124-.757c-.58.13-1.017.607-1.098 1.196l-.824 5.972a1.94 1.94 0 0 0 2.057 2.2 2.176 2.176 0 0 0 1.995-2.524zM112.151 35.789l-4.199 4.52a.932.932 0 0 0 .09 1.352 1.424 1.424 0 0 0 1.617.137l5.228-3.003a1.941 1.941 0 0 0 .481-2.974 2.176 2.176 0 0 0-3.217-.032zM24.064 35.789l4.198 4.52a.932.932 0 0 1-.089 1.352 1.425 1.425 0 0 1-1.617.137l-5.228-3.003a1.94 1.94 0 0 1-.481-2.974 2.176 2.176 0 0 1 3.217-.032zM106.821 28.367l-2.116 5.795a.932.932 0 0 0 .607 1.212 1.425 1.425 0 0 0 1.544-.502l3.653-4.796a1.941 1.941 0 0 0-.71-2.928 2.175 2.175 0 0 0-2.978 1.219zM29.394 28.367l2.116 5.795a.932.932 0 0 1-.607 1.212 1.425 1.425 0 0 1-1.544-.502l-3.653-4.796a1.94 1.94 0 0 1 .71-2.928 2.176 2.176 0 0 1 2.978 1.219z" fill="#fff"/><path d="M26.605 60.455c0-7.491 4.86-13.848 11.6-16.089v18.766c0 4.412-2.847 8.159-6.803 9.505a7.483 7.483 0 0 0-4.797-5.733v-6.449zM98.871 44.366c6.739 2.241 11.599 8.598 11.599 16.09v6.093a7.483 7.483 0 0 0-5.25 5.92 10.041 10.041 0 0 1-6.349-9.337V44.366z" fill="#A6A6A6"/><path fill-rule="evenodd" clip-rule="evenodd" d="M52.379 91.36a5.65 5.65 0 0 1 5.65-5.65h20.573a5.65 5.65 0 0 1 5.65 5.65.935.935 0 0 1-1.87 0 3.78 3.78 0 0 0-3.78-3.78H58.028a3.78 3.78 0 0 0-3.78 3.78.935.935 0 1 1-1.87 0z" fill="#959595"/><path d="M54.262 62.162a3.744 3.744 0 0 0 3.533-4.985 4.727 4.727 0 0 1 5.91 4.57v5.93a4.721 4.721 0 0 1-9.443 0v-5.515zM82.925 69.567a14.469 14.469 0 0 0-4.484 2.83 4.722 4.722 0 0 1-4.566-4.72v-5.515a3.744 3.744 0 0 0 3.533-4.985 4.727 4.727 0 0 1 5.91 4.57v5.93c0 .672-.14 1.311-.393 1.89z" fill="#959595"/></svg>