<svg viewBox="0 0 135 124" fill="none" xmlns="http://www.w3.org/2000/svg"><g clip-path="url(#clip0)"><path d="M11 28c0-9.389 7.611-17 17-17h79c9.389 0 17 7.611 17 17v79c0 9.389-7.611 17-17 17H28c-9.389 0-17-7.611-17-17V28z" fill="#B2B2B2"/><path d="M91.815 30.612c.029-.182.054-.365.074-.55.686-6.22-3.8-11.819-10.02-12.505-6.22-.686-11.82 3.8-12.505 10.02-.674 6.104 3.633 11.609 9.67 12.462-.028.181-.053.365-.074.55-.685 6.22 3.8 11.818 10.021 12.504 6.22.686 11.819-3.8 12.505-10.02.673-6.104-3.633-11.608-9.671-12.461z" fill="#9F9F9F"/><path d="M55.745 51.033c.827-7.497 7.575-12.905 15.072-12.078l41.153 4.538c7.497.827 12.905 7.575 12.078 15.072l-3.037 27.54c-.827 7.497-7.575 12.904-15.072 12.078l-41.153-4.539c-7.498-.826-12.905-7.574-12.078-15.072l3.037-27.54z" fill="#E5E5E5"/><path d="M65.784 39.336c-5.277 1.415-9.404 5.94-10.039 11.697L54.591 61.5l.498.055a8.194 8.194 0 0 0 9.043-7.247l1.652-14.971zM116.8 44.962c4.841 2.531 7.883 7.846 7.248 13.604l-1.154 10.465-.498-.055a8.195 8.195 0 0 1-7.247-9.043l1.651-14.971z" fill="#CECECE"/><path d="M51.71 70.127a6.122 6.122 0 1 0 1.342-12.17 6.122 6.122 0 0 0-1.343 12.17zM123.827 78.08a6.123 6.123 0 1 0 1.342-12.172 6.123 6.123 0 0 0-1.342 12.172z" fill="#E5E5E5"/><path d="M71.337 54.995a8.205 8.205 0 1 1 16.31 1.799l-.56 5.08a8.205 8.205 0 1 1-16.31-1.799l.56-5.08zM91.658 57.236a8.205 8.205 0 1 1 16.311 1.8l-.56 5.08a8.205 8.205 0 0 1-16.31-1.8l.56-5.08z" fill="#fff"/><path d="M91.68 66.846a3.228 3.228 0 0 1-6.417-.708c.196-1.772 3.724-5.543 3.858-5.528.134.014 2.755 4.464 2.56 6.236z" fill="#BFBFBF"/><path d="M86.195 70.728c-5.621-7.341-13.279-6.925-16.405-5.799l-.725 6.569 16.84 1.857.29-2.627z" fill="#E5E5E5"/><path d="M69.78 72.807c1.014-3.663 5.392-5.198 8.559-3.095 3.582 2.38 7.817 4.993 10.379 5.894a33.246 33.246 0 0 0 5.654 1.447c1.678.273 2.899 1.984 2.402 3.61l-1.121 3.672c-2.327 7.618-10.53 11.765-18.044 9.123-6.948-2.444-10.817-9.852-8.853-16.95l1.024-3.7z" fill="#979797"/><path fill-rule="evenodd" clip-rule="evenodd" d="M100.451 81.787l-1.121 3.67c-2.965 9.71-13.42 14.996-22.996 11.628-8.856-3.114-13.787-12.556-11.283-21.603l1.024-3.7c1.743-6.299 9.145-8.757 14.391-5.272 3.67 2.436 7.5 4.756 9.527 5.469a29.397 29.397 0 0 0 4.997 1.279c3.655.595 6.73 4.373 5.461 8.529zM78.339 69.712c-3.167-2.103-7.545-.569-8.559 3.095l-1.024 3.7c-1.964 7.1 1.905 14.507 8.853 16.95 7.515 2.643 15.717-1.504 18.044-9.122l1.121-3.672c.497-1.626-.724-3.337-2.402-3.61a33.246 33.246 0 0 1-5.654-1.447c-2.562-.9-6.797-3.514-10.38-5.894z" fill="#E5E5E5"/><path d="M81.461 76.095c.463-.018.91-.096 1.333-.226a5.113 5.113 0 0 0 8.908.632 33.464 33.464 0 0 1-2.985-.896c-2.561-.9-6.797-3.514-10.379-5.894a5.678 5.678 0 0 0-1.95-.825 5.246 5.246 0 0 0 5.074 7.21z" fill="#fff"/><path d="M69.94 82.808l6.572.725a9.612 9.612 0 0 1 8.5 10.608l-.217 1.97a8.112 8.112 0 0 1-16.126-1.78l1.27-11.523z" fill="#BFBFBF"/><path d="M82.691 94.248a13.972 13.972 0 0 1-5.081-.79 14.007 14.007 0 0 1-9.14-10.722 11.35 11.35 0 0 1 4.636-1.188c6.286-.251 11.586 4.641 11.838 10.927a11.5 11.5 0 0 1-.038 1.506c-.727.14-1.467.23-2.215.267z" fill="#BFBFBF"/><path d="M93.526 57.843a2.96 2.96 0 0 0 3.086-3.418 3.094 3.094 0 0 1 3.137 3.433l-.619 5.615a3.094 3.094 0 1 1-6.15-.678l.546-4.952zM79.543 56.302a2.96 2.96 0 0 0 3.086-3.419 3.094 3.094 0 0 1 3.137 3.433l-.619 5.615a3.094 3.094 0 0 1-6.15-.678l.546-4.951z" fill="#979797"/><path d="M45.478 3.442a3.415 3.415 0 1 1 6.188 2.882L35.844 37.755a8.65 8.65 0 0 1-.01 6.738l-.626 1.476a8.677 8.677 0 0 1-11.372 4.61l7.387-17.459a8.74 8.74 0 0 1 1.241.646L45.478 3.442z" fill="#E5E5E5"/><path d="M29.28 24.333A6.8 6.8 0 1 1 15.734 23.1a6.8 6.8 0 0 1 13.544 1.232z" fill="#979797"/><path d="M10.537 36.621c-.888-6.723 3.843-12.893 10.566-13.781 6.724-.888 12.894 3.843 13.782 10.566l1.331 10.083-24.348 3.215-1.331-10.083z" fill="#CECECE"/><path d="M43.009 43.477a7.314 7.314 0 1 1-14.503 1.915 7.314 7.314 0 0 1 14.503-1.916zM14.238 39.7A6.8 6.8 0 1 1 .694 38.47 6.8 6.8 0 0 1 14.238 39.7z" fill="#979797"/><path d="M.792 53.191C-.213 45.715 4.873 38.783 12.306 37.5c7.838-1.355 15.232 4.07 16.292 11.953l5.255 39.076-27.666 4.78L.792 53.191z" fill="#B2B2B2"/><path d="M11.722 62.85c-1.328-10.056 5.748-19.284 15.804-20.612 10.056-1.328 19.285 5.748 20.613 15.804l1.99 15.08-36.416 4.809-1.991-15.08z" fill="#BFBFBF"/><path d="M8.36 77.753C7.008 67.515 14.21 58.12 24.449 56.769c10.237-1.352 19.632 5.851 20.984 16.089L47.46 88.21l-37.073 4.895L8.36 77.753z" fill="#979797"/><path d="M2.386 85.192a8.36 8.36 0 0 1 16.578-2.19l1.462 11.074-16.578 2.19-1.462-11.074zM37.053 73.261c-.716-5.425 3.101-10.405 8.527-11.121 5.426-.717 10.405 3.101 11.122 8.527l1.074 8.136-19.649 2.595-1.074-8.137z" fill="#979797"/><path d="M61.439 77.972a8.771 8.771 0 1 1-17.391 2.296 8.771 8.771 0 0 1 17.39-2.296z" fill="#CECECE"/><path d="M3.462 96.839a2.344 2.344 0 0 1 2.017-2.631l57.517-7.595a2.344 2.344 0 0 1 .613 4.648L6.092 98.856a2.344 2.344 0 0 1-2.63-2.017z" fill="#BFBFBF"/><path d="M35.772 98.288l-.205.029c-.436.057-.87.095-1.301.112-1.101 5.506-5.509 9.936-11.28 10.698-7.295.963-14.005-4.295-14.988-11.744-.984-7.45 4.131-14.268 11.425-15.232l.277-.033c.929-6.071 5.762-11.056 12.157-11.9 6.398-.846 12.362 2.718 14.832 8.345 7.224-.65 13.74 4.511 14.698 11.77.984 7.449-4.258 14.285-11.707 15.269-5.873.775-11.365-2.319-13.908-7.314z" fill="#BFBFBF"/><path d="M18.83 86.582a1.984 1.984 0 1 1 3.149 2.415l-1.38 1.8a1.984 1.984 0 0 1-3.149-2.415l1.38-1.8zM43.387 91.267a1.984 1.984 0 1 1 3.149 2.414l-1.38 1.8a1.984 1.984 0 1 1-3.15-2.415l1.38-1.8z" fill="#B2B2B2"/><path d="M38.006 95.137a8.503 8.503 0 1 1-16.86 2.226 8.503 8.503 0 0 1 16.86-2.226z" fill="#979797"/><path d="M5.898 98.805l57.885-7.644c1.762 13.347-7.629 25.594-20.975 27.357l-9.553 1.261c-13.347 1.763-25.595-7.628-27.357-20.974z" fill="#E5E5E5"/><path d="M45.8 93.536l6.744-.89.445 3.371a3.401 3.401 0 1 1-6.744.89l-.445-3.371z" fill="#BFBFBF"/><path d="M41.304 94.13l6.744-.891 1.113 8.43a3.401 3.401 0 1 1-6.744.89l-1.113-8.43z" fill="#BFBFBF"/><path d="M14.29 40.664a1.984 1.984 0 0 1 2.54 3.049l-1.741 1.451a1.984 1.984 0 1 1-2.54-3.048l1.741-1.452z" fill="#979797"/><path d="M13.143 71.483a1.984 1.984 0 1 1 3.15 2.415l-1.38 1.799a1.984 1.984 0 1 1-3.15-2.414l1.38-1.8z" fill="#BFBFBF"/><path d="M38.277 51.396a1.984 1.984 0 1 1 3.15 2.414l-1.38 1.8a1.984 1.984 0 1 1-3.15-2.415l1.38-1.8zM33.139 81.834a1.984 1.984 0 1 0-2.414 3.15l1.799 1.379a1.984 1.984 0 1 0 2.414-3.15l-1.799-1.379zM31.179 45.558a1.984 1.984 0 1 0-2.414 3.15l1.799 1.379a1.984 1.984 0 1 0 2.414-3.15l-1.799-1.379zM28.444 30.969a1.984 1.984 0 1 0-2.415 3.149l1.8 1.38a1.984 1.984 0 1 0 2.414-3.15l-1.8-1.38z" fill="#B2B2B2"/><path d="M32.381 62.157a1.984 1.984 0 1 0-2.414 3.149l1.8 1.38a1.984 1.984 0 0 0 2.414-3.15l-1.8-1.38zM21.707 63.814a1.984 1.984 0 0 0-2.414 3.15l1.8 1.379a1.984 1.984 0 1 0 2.414-3.15l-1.8-1.379z" fill="#BFBFBF"/><path d="M23.343 28.862a1.984 1.984 0 0 0-3.198-2.35l-1.342 1.828A1.984 1.984 0 1 0 22 30.689l1.343-1.827z" fill="#B2B2B2"/><path d="M8.417 47.327a1.984 1.984 0 1 0-1.372 3.724l2.127.784a1.984 1.984 0 0 0 1.372-3.724l-2.127-.784z" fill="#979797"/><path d="M49.962 84.187a1.984 1.984 0 0 1 3.15 2.415l-1.38 1.8a1.984 1.984 0 1 1-3.15-2.415l1.38-1.8z" fill="#B2B2B2"/><path d="M4.814 57.878a1.984 1.984 0 1 1 3.94-.477l.272 2.252a1.984 1.984 0 1 1-3.94.476l-.272-2.25z" fill="#979797"/><path d="M19.346 50.919a1.984 1.984 0 0 1 3.149 2.414l-1.38 1.8a1.984 1.984 0 1 1-3.15-2.415l1.38-1.8zM31.951 72.842a1.984 1.984 0 1 0-2.414 3.149l1.8 1.38a1.984 1.984 0 1 0 2.414-3.15l-1.8-1.379z" fill="#B2B2B2"/><path d="M56.335 35.176c.356.528-.257 1.169-.8.837l-7.578-4.626a2.53 2.53 0 1 1 3.416-3.574l4.962 7.363z" fill="#fff"/><path d="M64.034 28.328c.06 1.014-1.265 1.447-1.815.593l-7.927-12.305c-1.712-2.657-.449-6.215 2.556-7.197 3.004-.982 6.126 1.142 6.314 4.297l.872 14.612z" fill="#E5E5E5"/><path d="M101.496 103.43c-.327-.518.248-1.132.787-.841l7.772 4.197a2.91 2.91 0 1 1-3.845 4.114l-4.714-7.47z" fill="#fff"/><path d="M93.91 103.291c-.044-.873 1.1-1.236 1.566-.497l6.73 10.642c1.454 2.299.341 5.35-2.25 6.173-2.592.823-5.262-1.027-5.401-3.742l-.644-12.576zM100.303 27.078c-.906.725-2.185-.225-1.751-1.302L104.8 10.26c1.349-3.35 5.503-4.52 8.402-2.365 2.899 2.155 2.977 6.469.157 8.727l-13.056 10.457z" fill="#E5E5E5"/><path d="M105.829 33.856c-.612.064-.91-.727-.408-1.083l7.235-5.13a2.923 2.923 0 1 1 1.994 5.292l-8.821.92z" fill="#fff"/></g><defs><clipPath id="clip0"><path fill="#fff" d="M0 0h135v124H0z"/></clipPath></defs></svg>