<svg xmlns="http://www.w3.org/2000/svg" viewBox="0 0 135 124"><defs><style>.cls-2{fill:#ffb100}.cls-3{fill:#f89700}.cls-4{fill:#e27800}.cls-5,.cls-9{fill:#ffe865}.cls-7,.cls-8{fill:#ffd900}.cls-8,.cls-9{opacity:.39}</style></defs><g id="Layer_3" data-name="Layer 3"><path d="M124 28v79a17 17 0 0 1-17 17H28a17 17 0 0 1-17-16.23V28a17 17 0 0 1 17-17h79a15.76 15.76 0 0 1 2.07.13A17 17 0 0 1 124 28z" fill="#ffc800"/><path class="cls-2" d="M4.37 38.37h114.02v68.3H4.37z"/><path class="cls-3" d="M27.23 80.72v26h-19v-26a9.5 9.5 0 0 1 9.5-9.49 9.49 9.49 0 0 1 9.5 9.49z"/><path class="cls-3" d="M37.24 98.41v8.26H24.49v-8.26a6.38 6.38 0 0 1 12.75 0zM118.39 38.37v48.54L55.78 38.37h62.61z"/><path class="cls-3" d="M4.38 57.96h114v3.23h-114z"/><path class="cls-3" d="M63.88 78.52A6.89 6.89 0 0 1 57 71.63V52.47h13.77v19.16a6.89 6.89 0 0 1-6.89 6.89z"/><rect class="cls-3" x="54.99" y="52.47" width="17.79" height="3.25" rx="1.63"/><rect class="cls-3" x="51.38" y="46.22" width="25" height="6.25" rx="3.12"/><circle class="cls-3" cx="48.38" cy="49.35" r="4.7"/><circle class="cls-3" cx="79.38" cy="49.35" r="4.7"/><path class="cls-4" d="M84.07 49.35a4.69 4.69 0 0 1-8.76 2.34 3.15 3.15 0 0 1-1.42.72l-8-6.18h7.33a3.08 3.08 0 0 1 2.06.78 4.69 4.69 0 0 1 8.76 2.34z"/><path class="cls-5" d="M73.21 70.67a10.39 10.39 0 0 0-2.43-2.83A10.12 10.12 0 0 0 67 65.92c-.29-.08-.58-.14-.87-.19a10.31 10.31 0 0 0-9.11 3 10.2 10.2 0 0 0-2.51 4.46l-1.35 5.09-1.27 4.8 7.77 2 4.07 1.09 7.92 2.09 1.27-4.8 1.34-5.09a10.15 10.15 0 0 0-1.05-7.7zm-4.56 12.5L57 80.09l.2-.74 1-3.81.33-1.26a6 6 0 0 1 2.79-3.67 6 6 0 0 1 4.56-.6l.2.06a6 6 0 0 1 4.08 7.3l-1.35 5.09z"/><path d="M73.21 70.67a10.39 10.39 0 0 0-2.43-2.83A10.12 10.12 0 0 0 67 65.92c-.29-.08-.58-.14-.87-.19a10.31 10.31 0 0 0-9.11 3 10.2 10.2 0 0 0-2.51 4.46l-1.35 5.09-1.27 4.8 7.77 2 4.07 1.09 7.92 2.09 1.27-4.8 1.34-5.09a10.15 10.15 0 0 0-1.05-7.7zm-4.56 12.5L57 80.09l.2-.74 1-3.81.33-1.26a6 6 0 0 1 2.79-3.67 6 6 0 0 1 4.56-.6l.2.06a6 6 0 0 1 4.08 7.3l-1.35 5.09z" fill="#ffe75e"/><rect class="cls-7" x="46.22" y="80.54" width="28.15" height="21.25" rx="2.02" transform="rotate(15 59.458 89.631)"/><circle class="cls-5" cx="60.29" cy="90.86" r="5.77"/><rect class="cls-3" x="58.7" y="86.36" width="2.88" height="8.73" rx="1.44" transform="rotate(14.83 60.134 90.708)"/><rect class="cls-7" x="58.08" y="66.46" width="11.29" height="4.76" rx="2.38" transform="rotate(90 63.73 68.84)"/><path class="cls-4" d="M118.39 57.96v3.22H85.2l-4.15-3.22h37.34zM3.38 39.6v15.25a.87.87 0 0 0 1.49.62l16.62-16.61a.87.87 0 0 0-.62-1.49H5.61a2.23 2.23 0 0 0-2.23 2.23zM3.38 105.54V90.29a.87.87 0 0 1 1.49-.62l16.62 16.61a.87.87 0 0 1-.62 1.49H5.61a2.23 2.23 0 0 1-2.23-2.23zM119.38 39.6v15.25a.87.87 0 0 1-1.49.62l-16.62-16.61a.87.87 0 0 1 .61-1.49h15.27a2.23 2.23 0 0 1 2.23 2.23zM119.38 105.54V90.29a.87.87 0 0 0-1.49-.62l-16.62 16.61a.87.87 0 0 0 .61 1.49h15.27a2.23 2.23 0 0 0 2.23-2.23z"/><circle class="cls-3" cx="112.45" cy="43.52" r="2.25"/><circle class="cls-3" cx="79.38" cy="49.35" r="2.25"/><circle class="cls-3" cx="112.45" cy="101.51" r="2.25"/><circle class="cls-3" cx="10.31" cy="43.52" r="2.25"/><circle class="cls-2" cx="48.38" cy="49.35" r="2.25"/><circle class="cls-3" cx="10.31" cy="101.51" r="2.25"/><circle class="cls-3" cx="37.29" cy="73.13" r="3.35"/><path class="cls-8" d="M83.9 14.35c.45.22.9.42 1.36.61a53.67 53.67 0 0 1-3.14 5.18 52.7 52.7 0 0 1-1.78-.57 1.52 1.52 0 0 0-1 2.87l.89.3A53.8 53.8 0 0 1 75 28.61c-.66-.2-1.32-.4-2-.62a1.5 1.5 0 1 0-1 2.84l.38.12A54.34 54.34 0 0 1 60 39.11a1.56 1.56 0 0 1-.63.14 1.5 1.5 0 0 1-.64-2.86 52.7 52.7 0 0 0 24.4-23.85 1.49 1.49 0 0 0 .77 1.81zM87.15 11c-.18.42-.36.85-.56 1.26-.47-.19-.93-.39-1.39-.61a1.5 1.5 0 0 0-1.88.49q.29-.57.54-1.14zM82.09 33.31c1 .18 2.11.33 3.16.45a59.16 59.16 0 0 1-3.5 4.86 1.46 1.46 0 0 1-1.13.54 1.42 1.42 0 0 1-.9-.32 1.43 1.43 0 0 1-.22-2q1.36-1.73 2.59-3.53zM87 24.41c1 .17 2 .31 3 .42A56 56 0 0 1 87 31c-1-.1-2.07-.23-3.11-.39a54.24 54.24 0 0 0 3.11-6.2zM89.86 16.43c1 .22 1.9.38 2.85.51-.45 1.67-1 3.33-1.56 4.95-1-.08-2-.21-2.94-.37a52.1 52.1 0 0 0 1.65-5.09zM94 11v.08c-.16 1-.34 1.95-.55 2.91a22.91 22.91 0 0 1-2.85-.48c.19-.83.35-1.67.48-2.51z"/><path class="cls-9" d="M91.15 21.89c-.36 1-.74 2-1.17 2.94-1-.11-2-.25-3-.42.42-.95.81-1.91 1.18-2.89 1.03.16 2.01.29 2.99.37zM82.12 20.14c-.59.88-1.22 1.75-1.88 2.6l-.89-.3a1.52 1.52 0 0 1 1-2.87c.58.2 1.17.43 1.77.57z"/><path class="cls-8" d="M88.21 21.52c-.37 1-.76 1.94-1.18 2.89a52.56 52.56 0 0 1-6.79-1.67c.66-.85 1.29-1.72 1.88-2.6a45.8 45.8 0 0 0 6.09 1.38zM99.22 25c-1.15.09-2.31.13-3.47.13a50.47 50.47 0 0 1-5.75-.3c.43-1 .81-1.95 1.17-2.94a45.47 45.47 0 0 0 7.74.12c.09.99.19 1.99.31 2.99zM109 23.1a18.26 18.26 0 0 1-4.6 1.31c-.73.13-1.47.24-2.21.34-.13-1-.24-2-.33-3 .67-.09 1.35-.19 2-.31a13.61 13.61 0 0 0 4.3-1.31c.31.98.58 1.98.84 2.97z"/><path class="cls-9" d="M75 28.61c-.82.81-1.67 1.59-2.54 2.34l-.38-.12a1.5 1.5 0 1 1 1-2.84c.62.22 1.28.42 1.92.62z"/><path class="cls-8" d="M83.84 30.56c-.55.94-1.14 1.85-1.75 2.75A65.12 65.12 0 0 1 72.48 31c.87-.75 1.72-1.53 2.54-2.34a65.72 65.72 0 0 0 8.82 1.9z"/><path class="cls-9" d="M87 31c-.53.95-1.1 1.89-1.7 2.81-1-.12-2.11-.27-3.16-.45.61-.9 1.2-1.81 1.75-2.75.99.11 2.02.24 3.11.39z"/><path class="cls-8" d="M100.51 33.9a63.64 63.64 0 0 1-7 .37 68.52 68.52 0 0 1-8.31-.51c.6-.92 1.17-1.86 1.7-2.81A63.33 63.33 0 0 0 100 31c.18.93.34 1.92.51 2.9zM111.59 31.55a51 51 0 0 1-8.1 1.95c-.17-1-.34-2-.49-2.95a47.34 47.34 0 0 0 7.68-1.85c.32.96.6 1.91.91 2.85z"/><path class="cls-9" d="M86.59 12.26c-.42.91-.86 1.81-1.33 2.7-.46-.19-.91-.39-1.36-.61a1.49 1.49 0 0 1-.77-1.81l.15-.32a1.5 1.5 0 0 1 1.88-.49c.5.14.96.34 1.43.53z"/><path class="cls-9" d="M83.2 12.35a1.18 1.18 0 0 1 .11-.19l-.15.32a.33.33 0 0 1 .04-.13zM93.41 14c-.2 1-.44 2-.7 3-.95-.13-1.9-.29-2.85-.51.27-1 .5-1.94.7-2.92a22.91 22.91 0 0 0 2.85.43z"/><path class="cls-8" d="M86.59 12.26a24.37 24.37 0 0 0 4 1.25c-.2 1-.43 2-.7 2.92A28.63 28.63 0 0 1 85.26 15c.47-.93.91-1.83 1.33-2.74zM98.28 14.1c0 1 .11 2 .18 3-.68.06-1.35.08-2 .08a30.7 30.7 0 0 1-3.72-.23c.26-1 .5-2 .7-3a24.78 24.78 0 0 0 4.84.15zM107 15.21a27.13 27.13 0 0 1-5.51 1.52c-.07-1-.13-2-.19-3a24.3 24.3 0 0 0 5-1.47c.17.98.41 1.97.7 2.95z"/><path class="cls-9" d="M112.93 31.08l-1.34.47c-.31-.94-.62-1.89-.91-2.85l1.21-.43a1.5 1.5 0 1 1 1 2.81zM110.45 22.29a10.68 10.68 0 0 1-1.43.81c-.28-1-.55-2-.82-3a5.84 5.84 0 0 0 .53-.33 1.52 1.52 0 0 1 1.72 2.51zM108.24 14.67q-.63.28-1.29.54c-.24-1-.48-2-.7-3l.76-.32a1.5 1.5 0 1 1 1.23 2.74z"/><path class="cls-8" d="M116.61 37.37a1.46 1.46 0 0 1-.46 1 1.38 1.38 0 0 1-.52.32 1.51 1.51 0 0 1-.51.08 1.54 1.54 0 0 1-1-.4 1.49 1.49 0 0 1-.39-.59c0-.14-.1-.27-.14-.41q-1-2.9-2-5.82l1.34-.47a1.5 1.5 0 1 0-1-2.81l-1.21.43c-.58-1.86-1.13-3.72-1.66-5.6a10.68 10.68 0 0 0 1.43-.81 1.52 1.52 0 0 0-1.72-2.51 5.84 5.84 0 0 1-.53.33c-.44-1.63-.85-3.26-1.25-4.9q.66-.26 1.29-.54a1.5 1.5 0 1 0-1.28-2.74l-.76.32c-.07-.29-.14-.57-.2-.86a1.72 1.72 0 0 1 0-.39h1a15.76 15.76 0 0 1 2.07.13 222.64 222.64 0 0 0 7.47 25.64 1.38 1.38 0 0 1 .03.6z"/><path class="cls-9" d="M103.49 33.5c-1 .16-2 .29-3 .4-.17-1-.33-2-.49-2.95 1-.1 2-.23 3-.4.15.98.32 1.97.49 2.95zM102.21 24.75c-1 .12-2 .22-3 .28-.12-1-.23-2-.33-3 1-.06 2-.15 3-.28.12.99.2 2 .33 3zM101.44 16.73a25 25 0 0 1-3 .36c-.07-1-.13-2-.18-3a22.75 22.75 0 0 0 3-.38c.05 1.01.11 2.02.18 3.02z"/><path class="cls-8" d="M101.25 13.72a22.75 22.75 0 0 1-3 .38c-.06-1-.11-2.06-.15-3.1h3c.06.91.11 1.82.15 2.72zM101.88 21.73c-1 .13-2 .22-3 .28-.17-1.64-.31-3.28-.43-4.92a25 25 0 0 0 3-.36c.11 1.67.25 3.34.43 5zM103 30.55c-1 .17-2 .3-3 .4q-.45-3-.8-5.92c1-.06 2-.16 3-.28.23 1.94.5 3.87.8 5.8zM102.94 38.73a1.36 1.36 0 0 1-.29 0 1.5 1.5 0 0 1-1.47-1.21c-.24-1.21-.46-2.43-.67-3.65 1-.11 2-.24 3-.4.2 1.16.41 2.32.64 3.47a1.49 1.49 0 0 1-1.21 1.79z"/></g></svg>