<svg viewBox="0 0 135 124" fill="none" xmlns="http://www.w3.org/2000/svg"><path d="M11 28c0-9.389 7.611-17 17-17h79c9.389 0 17 7.611 17 17v79c0 9.389-7.611 17-17 17H28c-9.389 0-17-7.611-17-17V28z" fill="#CE82FF"/><path d="M44.49 24.983c-8.243 0-14.925 6.682-14.925 14.924V87.751c0 1.182-.014 3.977-2.413 4.85h-9.311c-.883 0-1.6.716-1.6 1.6 0 8.929 7.24 16.167 16.169 16.167h70.533c8.929 0 16.168-7.238 16.168-16.167a1.6 1.6 0 0 0-1.599-1.6h-8.783c-2.221-.809-2.398-3.265-2.412-4.562V39.907c0-8.242-6.681-14.924-14.924-14.924H44.49z" fill="#FFB100"/><path fill-rule="evenodd" clip-rule="evenodd" d="M34.718 49.323c0-7.752 6.284-14.036 14.035-14.036h37.133c7.751 0 14.035 6.284 14.035 14.036v60.762H34.718V49.323z" fill="#FFC6B7"/><path d="M41.39 37.372c-4.004 2.472-6.672 6.9-6.672 11.95v13.752a7.374 7.374 0 0 0 6.752-7.347V38.46c0-.37-.027-.733-.08-1.088zM93.91 37.805a14.02 14.02 0 0 1 6.011 11.518V62.98a7.376 7.376 0 0 1-6.04-7.254V38.46c0-.22.01-.439.028-.655z" fill="#FFB100"/><path d="M38.983 64.965a7.196 7.196 0 1 1-14.391 0 7.196 7.196 0 0 1 14.39 0zM110.581 64.965a7.195 7.195 0 1 1-14.39 0 7.196 7.196 0 0 1 14.39 0z" fill="#FFC6B7"/><path d="M27.434 34.398a2.31 2.31 0 0 1 2.31-2.31h76.382a2.31 2.31 0 0 1 2.31 2.31v4.797a2.31 2.31 0 0 1-2.31 2.31H29.743a2.31 2.31 0 0 1-2.31-2.31v-4.797z" fill="#FF4B4B"/><path d="M51.951 21.99c0-8.831 7.16-15.99 15.99-15.99 8.831 0 15.99 7.159 15.99 15.99s-7.159 15.99-15.99 15.99c-8.83 0-15.99-7.159-15.99-15.99z" fill="#FFB100"/><path d="M51.165 10.22L66.45 26.875a1.768 1.768 0 0 1-.59 2.797c-5.254 2.343-11.52 1.023-15.472-3.377-3.953-4.4-4.607-10.785-1.733-15.777.598-1.039 1.71-1.189 2.511-.296z" fill="#FFB100"/><path d="M31.696 103.866c0-1.079.875-1.954 1.955-1.954h67.69c1.08 0 1.955.875 1.955 1.954v6.752a1.954 1.954 0 0 1-1.955 1.954h-67.69a1.954 1.954 0 0 1-1.955-1.954v-6.752z" fill="#FF4B4B"/><path fill-rule="evenodd" clip-rule="evenodd" d="M64.66 102.645a1.422 1.422 0 0 1 1.381-1.088h4.335c.656 0 1.227.45 1.381 1.088l2.869 11.904a1.421 1.421 0 0 1-1.382 1.754H63.173c-.92 0-1.598-.86-1.382-1.754l2.868-11.904z" fill="#fff"/><path fill-rule="evenodd" clip-rule="evenodd" d="M68.551 63.335a3.73 3.73 0 0 0 3.731-3.729c0-2.06-3.73-6.93-3.73-6.93s-3.732 4.87-3.732 6.93a3.73 3.73 0 0 0 3.731 3.73z" fill="#F3A577"/><path d="M49.898 67.584c2.023 6.109 7.334 9.477 14.67 10.118a6.04 6.04 0 0 0 1.153-12.025l-.1-.01c-1.668-.146-2.823-.487-3.506-.92-.382-.243-.582-.488-.73-.905l-.018-.056a6.04 6.04 0 0 0-11.47 3.798z" fill="#702323"/><path d="M60.493 62.128c1.013 1.656 2.708 3.371 5.351 3.603 2.643.23-2.323 4.964-2.323 4.964l-8.642-5.924s4.6-4.299 5.614-2.643z" fill="#702323"/><path d="M65.817 65.687a5.905 5.905 0 0 0-.095-.01l-.1-.01c-.215-.019-.421-.04-.62-.066-1.842-.41-3.16-1.57-4.067-2.814a6.042 6.042 0 0 0-11.124 1.287 3.2 3.2 0 0 0 3.092 2.38h2.488c1.31 0 2.436-.788 2.93-1.916a3.199 3.199 0 0 0 2.931 1.916h2.487c.794 0 1.52-.289 2.078-.767z" fill="#fff"/><path d="M59.216 76.628c1.628.547 3.42.906 5.352 1.075a6.04 6.04 0 0 0 6.567-6.152 10.96 10.96 0 0 0-2.51-.29 10.921 10.921 0 0 0-9.409 5.367z" fill="#B23232"/><path fill-rule="evenodd" clip-rule="evenodd" d="M64.964 48.236c-.58 0-1.05.47-1.05 1.05v.874a3.586 3.586 0 0 1-7.172 0v-.875a1.05 1.05 0 1 0-2.099 0v.875a5.685 5.685 0 1 0 11.37 0v-.875c0-.58-.47-1.05-1.05-1.05zM81.41 48.236c-.58 0-1.05.47-1.05 1.05v.874a3.586 3.586 0 0 1-7.172 0v-.875a1.05 1.05 0 1 0-2.1 0v.875a5.685 5.685 0 1 0 11.37 0v-.875c0-.58-.47-1.05-1.049-1.05z" fill="#B27F61"/><path fill-rule="evenodd" clip-rule="evenodd" d="M66.566 39.709a3.061 3.061 0 0 1-.284 4.32l-2.018-2.302c2.018 2.302 2.016 2.303 2.015 2.304l-.003.003-.007.005-.013.012-.029.024a4.175 4.175 0 0 1-.245.193c-.137.1-.312.22-.527.35-.431.261-1.019.564-1.783.85-1.535.575-3.737 1.07-6.751 1.07a3.061 3.061 0 0 1 0-6.123c2.333 0 3.803-.38 4.602-.68a4.6 4.6 0 0 0 .818-.39 3.061 3.061 0 0 1 4.225.364zM71.063 36.917a3.061 3.061 0 0 0 .284 4.32l2.018-2.302c-2.018 2.302-2.016 2.303-2.015 2.304l.003.003.007.006.013.01.029.025a4.2 4.2 0 0 0 .245.193c.137.1.312.22.527.35.43.261 1.019.564 1.783.85 1.535.575 3.737 1.07 6.751 1.07a3.061 3.061 0 0 0 0-6.123c-2.334 0-3.803-.38-4.602-.68a4.6 4.6 0 0 1-.818-.39 3.061 3.061 0 0 0-4.225.364z" fill="#FFB100"/><path d="M20.954 18.338a3.187 3.187 0 0 0 0 4.508l4.464 4.464a1 1 0 0 0 1.414 0l4.463-4.464a3.187 3.187 0 1 0-4.507-4.508.937.937 0 0 1-1.326 0 3.187 3.187 0 0 0-4.508 0zM100.767 17.629a3.421 3.421 0 0 0 0 4.838l4.843 4.843a1 1 0 0 0 1.414 0l4.843-4.843a3.422 3.422 0 0 0-4.838-4.838c-.391.39-1.033.39-1.424 0a3.42 3.42 0 0 0-4.838 0z" fill="#EACAFF"/><path d="M110.624 28.432a2.259 2.259 0 0 0 0 3.193l2.955 2.955c.391.39 1.024.39 1.415 0l2.955-2.955a2.259 2.259 0 0 0-3.193-3.193.664.664 0 0 1-.939 0 2.258 2.258 0 0 0-3.193 0z" fill="#DCA6FF"/></svg>