<svg viewBox="0 0 135 124" fill="none" xmlns="http://www.w3.org/2000/svg"><g clip-path="url(#clip0)"><path d="M11 28.013c0-9.389 7.611-17 17-17h79c9.389 0 17 7.611 17 17v79c0 9.389-7.611 17-17 17H28c-9.389 0-17-7.611-17-17v-79z" fill="#E5E5E5"/><path fill-rule="evenodd" clip-rule="evenodd" d="M41.892 11.548c5.57-.7 10.654 3.26 11.356 8.84l.19 1.516-20.173 2.537-.19-1.517c-.702-5.58 3.245-10.675 8.817-11.376z" fill="#959595"/><path d="M32.368 22.817c5.947-.748 10.172-6.1 9.436-11.953C41.068 5.011 35.65.872 29.702 1.62c-5.95.748-10.175 6.1-9.44 11.953.737 5.853 6.156 9.992 12.106 9.244z" fill="#959595"/><path d="M62.777 18.82l-38.296 4.815c-7.176.902-12.261 7.45-11.359 14.625l3.204 25.481c.903 7.175 7.451 12.26 14.627 11.358l38.296-4.815c7.176-.902 12.262-7.45 11.36-14.625l-3.205-25.48c-.902-7.176-7.45-12.26-14.627-11.359z" fill="#D1D1D1"/><path d="M14.347 48.005L13.12 38.26c-.722-5.742 2.39-11.082 7.34-13.449l1.81 14.382a7.753 7.753 0 0 1-6.727 8.66l-1.197.15zM78.628 39.915a7.754 7.754 0 0 1-8.317-6.76l-1.73-13.758c4.614 1.553 8.174 5.628 8.823 10.782l1.224 9.736z" fill="#A6A6A6"/><path d="M13.174 54.556a5.772 5.772 0 1 0-1.44-11.453 5.772 5.772 0 0 0 1.44 11.453zM81.026 45.865a5.772 5.772 0 1 0-1.44-11.454 5.772 5.772 0 1 0 1.44 11.454z" fill="#D1D1D1"/><path fill-rule="evenodd" clip-rule="evenodd" d="M53.758 25.619a8.124 8.124 0 0 0-7.047 9.074l.617 4.902a8.124 8.124 0 0 0 9.074 7.047 8.124 8.124 0 0 0 7.047-9.074l-.616-4.902a8.124 8.124 0 0 0-9.075-7.047z" fill="#fff"/><path d="M52.647 30.621a3.647 3.647 0 0 0-3.164 4.073l.572 4.545a3.647 3.647 0 0 0 7.237-.91l-.571-4.544a3.647 3.647 0 0 0-4.074-3.164z" fill="#959595"/><path d="M47.73 29.628a8.084 8.084 0 0 0-1.073 3.639 2.93 2.93 0 0 0 5.584-1.554 2.93 2.93 0 0 0-4.512-2.085z" fill="#fff"/><path fill-rule="evenodd" clip-rule="evenodd" d="M34.782 28.005a8.124 8.124 0 0 1 9.074 7.047l.617 4.902a8.124 8.124 0 0 1-7.048 9.074 8.124 8.124 0 0 1-9.074-7.047l-.617-4.902a8.124 8.124 0 0 1 7.048-9.074z" fill="#fff"/><path fill-rule="evenodd" clip-rule="evenodd" d="M37.61 32.511a3.647 3.647 0 0 1 4.073 3.164l.572 4.545a3.647 3.647 0 1 1-7.238.91l-.572-4.545a3.647 3.647 0 0 1 3.164-4.074z" fill="#959595"/><path d="M34.669 36.98a2.93 2.93 0 1 1-.731-5.813 2.93 2.93 0 0 1 .731 5.812z" fill="#fff"/><path d="M35.145 60.613c6.122-.77 10.461-6.356 9.691-12.478-.77-6.122-6.357-10.46-12.48-9.691-6.122.77-10.461 6.356-9.691 12.478.77 6.122 6.357 10.46 12.48 9.691zM60.8 57.388c6.123-.77 10.462-6.357 9.692-12.478-.77-6.122-6.357-10.461-12.48-9.691-6.122.77-10.462 6.356-9.692 12.478.77 6.122 6.357 10.46 12.48 9.69z" fill="#D1D1D1"/><path fill-rule="evenodd" clip-rule="evenodd" d="M46.846 48.881a3.191 3.191 0 0 0 2.764-3.567c-.22-1.75-3.904-5.493-3.904-5.493s-2.642 4.538-2.422 6.288a3.191 3.191 0 0 0 3.562 2.772z" fill="#A6A6A6"/><path fill-rule="evenodd" clip-rule="evenodd" d="M36.258 49.108a4.234 4.234 0 0 1 5.89 1.076c.86 1.243 1.672 1.841 2.364 2.127.675.28 1.574.404 2.872.121a4.234 4.234 0 0 1 1.8 8.273c-2.684.584-5.379.477-7.91-.57-2.515-1.041-4.521-2.866-6.092-5.138a4.233 4.233 0 0 1 1.076-5.89z" fill="#fff"/><path fill-rule="evenodd" clip-rule="evenodd" d="M75.102 55.347l43.549 5.742c5.731.756 9.764 6.014 9.009 11.745l-2.776 21.04c-.755 5.73-6.014 9.763-11.746 9.008L69.59 97.139c-5.731-.756-9.765-6.014-9.009-11.745l2.775-21.04c.756-5.73 6.015-9.763 11.746-9.007z" fill="#BFBFBF"/><path d="M85.737 72.412l18.219 2.403c8.582 1.132 14.622 9.006 13.49 17.587l-.954 7.237a8.375 8.375 0 0 1-9.397 7.207L74.4 102.534a8.373 8.373 0 0 1-7.208-9.396l.955-7.237c1.132-8.581 9.007-14.62 17.59-13.489z" fill="#D1D1D1"/><path d="M85.737 72.412l18.219 2.403c8.582 1.132 14.622 9.006 13.49 17.587l-.954 7.237a8.375 8.375 0 0 1-9.397 7.207L74.4 102.534a8.373 8.373 0 0 1-7.208-9.396l.955-7.237c1.132-8.581 9.007-14.62 17.59-13.489z" fill="#D1D1D1"/><path d="M102.308 74.743L87.346 72.77c-2.97-.392-5.71 1.8-6.118 4.894l-1.985 15.048c-.408 3.094 1.67 5.92 4.64 6.312l14.962 1.973c2.971.392 5.711-1.8 6.119-4.894l1.985-15.047c.408-3.095-1.67-5.921-4.641-6.313z" fill="#959595"/><path d="M95.568 74.107l-1.547-.204a7.327 7.327 0 0 0-8.223 6.306l-.795 6.026a7.326 7.326 0 0 0 6.307 8.222l1.547.204a7.327 7.327 0 0 0 8.222-6.306l.795-6.026a7.326 7.326 0 0 0-6.306-8.222z" fill="#BFBFBF"/><path d="M96.138 72.73a1.165 1.165 0 0 0-2.31-.305l-2.081 15.773a1.165 1.165 0 0 0 2.31.305l2.081-15.773z" fill="#959595"/><path d="M103.71 74.782l-17.728-2.337a5.652 5.652 0 0 0-6.343 4.864l-.006.045a5.652 5.652 0 0 0 4.865 6.342l17.728 2.338a5.652 5.652 0 0 0 6.343-4.864l.006-.045a5.652 5.652 0 0 0-4.865-6.343z" fill="#fff"/><path fill-rule="evenodd" clip-rule="evenodd" d="M89.995 62.479a2.387 2.387 0 0 1 2.054 2.678l-.542 4.113a2.387 2.387 0 0 1-4.733-.624l.542-4.113a2.387 2.387 0 0 1 2.679-2.054zM102.418 64.117a2.386 2.386 0 0 1 2.054 2.678l-.542 4.113a2.387 2.387 0 0 1-4.733-.624l.543-4.113a2.387 2.387 0 0 1 2.678-2.054zM93.73 70.607l2.972.392a3.33 3.33 0 1 1-.87 6.603l-2.972-.392a3.33 3.33 0 1 1 .87-6.603z" fill="#959595"/><path d="M82.4 88.217l-.106-.014a2.378 2.378 0 0 0-2.67 2.047l-.367 2.786a2.378 2.378 0 0 0 2.047 2.668l.107.015a2.378 2.378 0 0 0 2.67-2.047l.367-2.786a2.378 2.378 0 0 0-2.047-2.669zM103.299 90.973l-.107-.014a2.377 2.377 0 0 0-2.668 2.046l-.368 2.787a2.378 2.378 0 0 0 2.047 2.668l.107.014a2.379 2.379 0 0 0 2.669-2.047l.367-2.786a2.377 2.377 0 0 0-2.047-2.668z" fill="#fff"/><path fill-rule="evenodd" clip-rule="evenodd" d="M64.382 51.208l10.678 1.408a4.161 4.161 0 0 1 3.582 4.67l-1.085 8.228c-.69 5.227-5.486 8.905-10.714 8.216l-5.339-.704a4.162 4.162 0 0 1-3.582-4.67l1.79-13.567a4.162 4.162 0 0 1 4.67-3.581zM130.078 59.87L119.4 58.464a4.163 4.163 0 0 0-4.671 3.581l-1.085 8.228c-.689 5.227 2.99 10.024 8.217 10.713l5.339.704a4.163 4.163 0 0 0 4.671-3.582l1.789-13.566a4.161 4.161 0 0 0-3.582-4.67z" fill="#959595"/></g><defs><clipPath id="clip0"><path fill="#fff" d="M0 0h135v124H0z"/></clipPath></defs></svg>