<svg viewBox="0 0 135 124" fill="none" xmlns="http://www.w3.org/2000/svg"><g clip-path="url(#clip0)"><path d="M107 11H28c-9.389 0-17 7.611-17 17v79c0 9.389 7.611 17 17 17h79c9.389 0 17-7.611 17-17V28c0-9.389-7.611-17-17-17z" fill="#FFC800"/><path d="M49.42 11L11 49.42v50L99.38 11H49.42zm70.33 5.78a189.972 189.972 0 0 0-19.9 17.74l-84.17 84.17A16.949 16.949 0 0 0 28 124h32.32L124 60.32V28a16.891 16.891 0 0 0-4.25-11.22z" fill="#FFD900"/><path d="M34.18 43.43h61.36v15.86l-50.76 5-10.6-20.86z" fill="#F89700"/><path d="M95.54 79.89c10.068 0 18.23-8.162 18.23-18.23s-8.162-18.23-18.23-18.23-18.23 8.162-18.23 18.23 8.162 18.23 18.23 18.23z" fill="#F89700"/><path d="M75.66 79.89c10.068 0 18.23-8.162 18.23-18.23s-8.162-18.23-18.23-18.23-18.23 8.162-18.23 18.23 8.162 18.23 18.23 18.23z" fill="#F89700"/><path d="M69.48 61.81h32.27L115 77.93 106.69 90l2.56 14.67a9.158 9.158 0 0 1-5.136 9.885 9.148 9.148 0 0 1-3.864.865H70.8a8.991 8.991 0 0 1-6.878-3.206 8.994 8.994 0 0 1-1.982-7.324l7.54-43.08z" fill="#F89700"/><path d="M78.09 47.61L31.68 14.88c-4.79-3.31 4.76 8.08 1.45 12.87L32.3 29A10.53 10.53 0 0 0 35 43.61L64.68 65a351.674 351.674 0 0 1 13.41-17.39zM112.37 71.8l-18.44-13-14.16-10a353.462 353.462 0 0 0-13.44 17.35L93.89 86l13.44 9.66a4.472 4.472 0 0 0 5 .14 4.558 4.558 0 0 0 1.26-1.22l2.32-3.35a13.94 13.94 0 0 0-3.54-19.43z" fill="#FFE96B"/><path d="M1.94 3.202l-.005.008A7.43 7.43 0 0 0 3.82 13.548L29.644 31.41a7.43 7.43 0 0 0 10.337-1.885l.006-.008a7.43 7.43 0 0 0-1.884-10.337L12.278 1.318A7.43 7.43 0 0 0 1.941 3.202z" fill="#FFB100"/><path d="M9.87 11.83a3.14 3.14 0 1 0 0-6.28 3.14 3.14 0 0 0 0 6.28zM32.42 27.43a3.14 3.14 0 1 0 0-6.28 3.14 3.14 0 0 0 0 6.28z" fill="#FFD900"/><path d="M80.7 77.52a18.22 18.22 0 1 0-24.1-26 18.219 18.219 0 1 0-24.07 26l-4.79 27.39a9 9 0 0 0 8.85 10.53h39.83a9.18 9.18 0 0 0 9-10.76L80.7 77.52z" fill="#F89700"/><path d="M34.18 43.43h7.28l-1.52 3.75-5.76-3.75zM64.46 43.43h7.28l-1.68 9.47-5.6-9.47z" fill="#DE8F1D"/><path d="M100.28 90.55h-30a3.46 3.46 0 0 1-3.4-2.83l-1.18-6.36a2.449 2.449 0 0 1 2.42-2.9h15.33l16.83 12.09z" fill="#E27800"/><path d="M73.43 77.52a18.23 18.23 0 1 0-24.11-26 18.221 18.221 0 0 0-33.157 12.947A18.221 18.221 0 0 0 25.25 77.52l-4.79 27.39a9 9 0 0 0 8.85 10.53h39.83a9.18 9.18 0 0 0 9-10.76l-4.71-27.16z" fill="#FFB100"/><path d="M29.31 111.71a5.236 5.236 0 0 1-4.003-1.873 5.232 5.232 0 0 1-1.147-4.267l5.25-30-2.31-1.3A14.47 14.47 0 1 1 46.21 53.6l3.11 4.63 3.12-4.63a14.47 14.47 0 1 1 19.14 20.66l-2.31 1.3 5.21 29.79a5.432 5.432 0 0 1-5.34 6.36H29.31z" fill="#FFD900"/></g><defs><clipPath id="clip0"><path fill="#fff" d="M0 0h135v124H0z"/></clipPath></defs></svg>