<svg id="Layer_3" data-name="Layer 3" xmlns="http://www.w3.org/2000/svg" viewBox="0 0 135 124"><defs><style>.cls-1{fill:#ffb100}.cls-2{fill:#f89700}.cls-3{fill:#e27800}.cls-4{fill:#ffd900}.cls-5{fill:#ffe75e}.cls-7{fill:#ffc800}</style></defs><path class="cls-1" d="M124 28v79a17 17 0 0 1-17 17H28a17 17 0 0 1-17-17V28a17 17 0 0 1 17-17h79a17 17 0 0 1 17 17z"/><path class="cls-2" d="M54.32 83.59h26.26v8.8a7.31 7.31 0 0 1-7.31 7.31H61.63a7.31 7.31 0 0 1-7.31-7.31v-8.8zM61.98 11.02h10.94v45.22H61.98z"/><path class="cls-3" d="M61.98 11.02h10.94v18.35H61.98z"/><rect class="cls-3" y="35.22" width="134.9" height="53.99" rx="10.46" ry="10.46"/><path class="cls-4" d="M129.9 45.68v33.07a5.47 5.47 0 0 1-5.46 5.46h-114A5.46 5.46 0 0 1 5 78.75V45.68a5.46 5.46 0 0 1 5.45-5.46h114a5.47 5.47 0 0 1 5.45 5.46z"/><circle class="cls-2" cx="93.23" cy="62.36" r="19.22"/><path class="cls-1" d="M96.37 40.22v44H10.45A5.46 5.46 0 0 1 5 78.75V45.68a5.48 5.48 0 0 1 5.45-5.46z"/><path class="cls-2" d="M43.54-1.28h47.82a5 5 0 0 1 5 5v5.9a13.7 13.7 0 0 1-13.7 13.7H52.23a13.7 13.7 0 0 1-13.7-13.7V3.73a5 5 0 0 1 5.01-5.01zM54.22 44.17v31a6.31 6.31 0 0 1-12.62 0v-31a6.22 6.22 0 0 1 1.4-4h9.83a6.27 6.27 0 0 1 1.39 4z"/><path class="cls-5" d="M38.64 48.89v12.92a16.82 16.82 0 0 1-33.64 0V48.89a16.6 16.6 0 0 1 1.52-7 5.42 5.42 0 0 1 3.93-1.69h25.78a16.71 16.71 0 0 1 2.41 8.69z"/><rect class="cls-2" x="18.48" y="44.83" width="13.52" height="22.08" rx="6.76" ry="6.76"/><path class="cls-5" d="M90.82 48.89v12.92a16.82 16.82 0 1 1-33.63 0V48.89a16.79 16.79 0 0 1 2.4-8.67h28.82a16.71 16.71 0 0 1 2.41 8.67z"/><rect class="cls-2" x="63.25" y="44.83" width="13.52" height="22.08" rx="6.76" ry="6.76" transform="rotate(-180 70.01 55.87)"/><path class="cls-2" d="M67.08 81.59a3.21 3.21 0 0 1-.66-6.35l24.11-5a3.21 3.21 0 0 1 1.32 6.29l-24.11 5a3 3 0 0 1-.66.06zM33 79a3.22 3.22 0 0 1-3.15 2.55 3.09 3.09 0 0 1-.66-.07l-24.1-5H5v-6.27a3 3 0 0 1 1.37 0l24.11 5A3.21 3.21 0 0 1 33 79z"/><path d="M129.9 45.68v.68L69.67 84.21H22.43l70-44h32a5.47 5.47 0 0 1 5.47 5.47z" opacity=".4" fill="#ffe75e"/><path class="cls-4" d="M124 94.15V107a17 17 0 0 1-17 17h-3l-15.16-16 6.31-4.71a34.79 34.79 0 0 1 13.92-6.2zM11 94.15V107a17 17 0 0 0 17 17h3l13.16-16-3.56-3.16a34.63 34.63 0 0 0-16.19-8z"/><path class="cls-7" d="M113 122.9a17.08 17.08 0 0 1-6 1.1H28a17 17 0 0 1-6.6-1.32L44.33 108h44.51z"/><path class="cls-5" d="M72.42 124h-9.84l4-15.96h1.84l4 15.96z"/><path class="cls-7" d="M60.04 117.16h16.13v3.5H60.04zM60.04 110.29h16.13v1.9H60.04z"/></svg>