<svg viewBox="0 0 135 124" fill="none" xmlns="http://www.w3.org/2000/svg"><path d="M11 28c0-9.389 7.611-17 17-17h79c9.389 0 17 7.611 17 17v79c0 9.389-7.611 17-17 17H28c-9.389 0-17-7.611-17-17V28z" fill="#FFCB00"/><path fill-rule="evenodd" clip-rule="evenodd" d="M124 28v47.862L75.862 124 28 124l-.218-.003 96.217-96.215L124 28zM107 11c3.548 0 6.842 1.087 9.567 2.946L13.946 116.567A16.919 16.919 0 0 1 11 107V82.743L82.743 11H107z" fill="#FFDB00"/><path d="M2.8 43.81C-1.383 24.767 10.664 5.936 29.71 1.752l.802-.176C49.555-2.608 68.386 9.44 72.57 28.484l1 4.556c4.184 19.045-7.863 37.875-26.908 42.06l-.801.175C26.816 79.46 7.985 67.412 3.8 48.367l-1-4.556z" fill="#F08E0A"/><path d="M46.162 65.714a49.937 49.937 0 0 1-3.255 1.793c-6.613 3.336-13.483 5.062-18.188 5.884a35.241 35.241 0 0 0 7.023 2.105c3.94-1.054 8.4-2.59 12.775-4.797 8.46-4.267 16.793-11.145 20.202-22.06-3.102 8.037-9.796 14.523-18.557 17.075z" fill="#E98204"/><path d="M65.952 32.325c3.369 15.336-6.332 30.498-21.667 33.867-15.335 3.37-30.498-6.331-33.867-21.667C7.049 29.19 16.75 14.027 32.085 10.658 47.42 7.29 62.583 16.99 65.952 32.325z" fill="#FFAB19"/><path d="M37.132 49.737c-.815-.223-1.61.471-1.43 1.297l1.666 7.579a5.13 5.13 0 1 0 10.021-2.202l-1.665-7.579c-.181-.825-1.194-1.122-1.841-.578-.928.78-1.97 1.462-3.16 1.724-1.189.26-2.421.08-3.59-.24z" fill="#E47900"/><path d="M47.382 58.65a5.13 5.13 0 0 0-9.07 1.993 5.131 5.131 0 0 0 9.07-1.992z" fill="#F08E0A"/><path d="M14.354 36.92C34.98 33.121 43.81 19.688 48.646 11.958a28.297 28.297 0 0 0-16.513-1.31 28.315 28.315 0 0 0-16.386 10.37c-.08.076-.156.16-.229.252-.276.347-.547.71-.823 1.078-1.954 2.61-4.118 5.499-9.562 5.384a16.333 16.333 0 0 0-.297-.004l-2.73-.098c-.961-.045-1.502.676-1.246 1.605 1.232 4.466 5.25 7.698 9.992 7.92.675.031 1.34 0 1.99-.087a9.97 9.97 0 0 0 1.512-.148z" fill="#E47900"/><path d="M45.975 17.61c.59-1.844 3.198-1.856 3.804-.016l1.54 4.67a2 2 0 0 0 1.909 1.374l4.917-.022c1.937-.008 2.754 2.468 1.191 3.613l-3.965 2.908a2 2 0 0 0-.717 2.239l1.54 4.67c.607 1.84-1.496 3.381-3.068 2.25l-3.99-2.873a2 2 0 0 0-2.352.01L42.82 39.34c-1.563 1.146-3.678-.377-3.088-2.222l1.5-4.683a2 2 0 0 0-.737-2.233l-3.99-2.873c-1.573-1.132-.779-3.615 1.159-3.623l4.917-.022a2 2 0 0 0 1.896-1.39l1.5-4.683zM15.486 29.422c-.745-1.788 1.233-3.485 2.887-2.476l4.198 2.56a2 2 0 0 0 2.344-.19l3.732-3.2c1.471-1.262 3.697.095 3.248 1.98l-1.137 4.784a2 2 0 0 0 .904 2.17l4.198 2.56c1.654 1.01 1.05 3.545-.88 3.702l-4.902.396a2 2 0 0 0-1.784 1.53l-1.138 4.784c-.448 1.885-3.047 2.095-3.792.307l-1.891-4.54a2 2 0 0 0-2.008-1.223l-4.9.396c-1.932.156-2.935-2.25-1.464-3.512l3.732-3.201a2 2 0 0 0 .544-2.288l-1.891-4.538z" fill="#FFF29D"/><path d="M38.237 38.665c.133-.03 1.716 1.576 3.34 3.268 1.617 1.684.75 4.473-1.53 4.974-2.279.5-4.234-1.669-3.472-3.875.765-2.217 1.53-4.338 1.662-4.367z" fill="#F08E0A"/><path d="M68.378 80.83a1.84 1.84 0 0 1 2.056-1.595l36.794 4.654a4.6 4.6 0 0 1 3.986 5.14l-2.831 22.385a4.6 4.6 0 0 1-5.141 3.987l-34.055-4.308a4.599 4.599 0 0 1-3.987-5.14l3.178-25.123z" fill="#E47900"/><path d="M49.006 83.12l14.427 1.854-2.498 18.304-14.79-1.313 2.86-18.845z" fill="#DB6E00"/><path d="M109.283 72.149l-11.73 10.516 21.125 2.672 1.74-12.823-8.756-1.108a3 3 0 0 0-2.379.743z" fill="#E47900"/><path d="M81.76 82.522a1.84 1.84 0 0 1 2.057-1.594l38.621 4.885-3.409 26.948a4.599 4.599 0 0 1-5.14 3.986l-31.32-3.961a4.6 4.6 0 0 1-3.986-5.141l3.178-25.123z" fill="#FFAB19"/><path d="M71.707 88.882l4.105.52a3 3 0 0 1 2.6 3.352l-.871 6.886a3 3 0 0 1-3.353 2.6l-4.104-.519 1.623-12.839z" fill="#F08E0A"/><path d="M67.783 94.908a6.47 6.47 0 1 1-12.839-1.625 6.47 6.47 0 0 1 12.839 1.625z" fill="#FFCB00"/><path d="M63.53 83.08l9.733 6-1.623 12.837-10.35 3.167 2.563-10.817-.323-11.188zM77.383 65.885l14.768 1.867a2.76 2.76 0 0 1 2.392 3.085l-.436 3.447a2 2 0 0 1-2.235 1.733l-15.523-1.963 1.034-8.17z" fill="#FFAB19"/><path d="M125.086 73.104l5.453.69a3.68 3.68 0 0 1 3.189 4.112l-.7 5.537a3.68 3.68 0 0 1-4.113 3.189l-5.452-.69 1.623-12.838z" fill="#DB6E00"/><path d="M118.853 73.36l-11.73 10.516 18.207 2.302 1.624-12.838-5.722-.723a3 3 0 0 0-2.379.742z" fill="#F08E0A"/><path fill-rule="evenodd" clip-rule="evenodd" d="M62.826 90.344a1.229 1.229 0 0 1-1.29 1.165 3.076 3.076 0 0 0-2.725 1.381l-1.027-.675 1.027.675-.267.406a1.229 1.229 0 1 1-2.053-1.351l.267-.406a5.534 5.534 0 0 1 4.903-2.485c.678.035 1.2.612 1.165 1.29z" fill="#FFF29D"/><path d="M79.85 74.497l8.17 1.034-.738 5.835-8.17-1.033.739-5.836z" fill="#F08E0A"/><path fill-rule="evenodd" clip-rule="evenodd" d="M91.238 87.59a1.38 1.38 0 0 1 1.196 1.542l-1.476 11.671a1.38 1.38 0 1 1-2.738-.346l1.476-11.671a1.38 1.38 0 0 1 1.542-1.196zM94.018 92.115a4.14 4.14 0 0 1 4.627-3.588l12.03 1.521a4.14 4.14 0 0 1 3.588 4.627l-.784 6.195a4.14 4.14 0 0 1-4.626 3.588l-12.03-1.522a4.14 4.14 0 0 1-3.588-4.627l.783-6.194zm4.28-.85a1.38 1.38 0 0 0-1.541 1.196l-.784 6.195a1.38 1.38 0 0 0 1.196 1.542l12.03 1.521a1.379 1.379 0 0 0 1.542-1.195l.784-6.195a1.38 1.38 0 0 0-1.196-1.542l-12.03-1.522z" fill="#E47900"/><path fill-rule="evenodd" clip-rule="evenodd" d="M62.6 85.77L49.401 84.1l-2.112 16.699 13.197 1.669L62.6 85.769zm-12.852-4.408a2.76 2.76 0 0 0-3.084 2.392l-2.112 16.698a2.761 2.761 0 0 0 2.392 3.085l13.197 1.669a2.76 2.76 0 0 0 3.084-2.392l2.113-16.698a2.76 2.76 0 0 0-2.392-3.085l-13.198-1.67z" fill="#F08E0A"/><path d="M48.93 65.843a7.058 7.058 0 0 1 7.889-6.117l21.007 2.657a7.058 7.058 0 1 1-1.77 14.006l-21.009-2.657a7.058 7.058 0 0 1-6.117-7.889z" fill="#DB6E00"/><path fill-rule="evenodd" clip-rule="evenodd" d="M96.708 45.188l6.971 6.971a1.095 1.095 0 0 1 0 1.55l-6.97 6.97a1.095 1.095 0 0 1-1.55 0l-6.97-6.97a1.095 1.095 0 0 1 0-1.55l6.97-6.97a1.095 1.095 0 0 1 1.55 0zM28.84 84.32l6.972 6.972a1.095 1.095 0 0 1 0 1.549l-6.971 6.97a1.096 1.096 0 0 1-1.55 0l-6.97-6.97a1.096 1.096 0 0 1 0-1.55l6.97-6.97a1.096 1.096 0 0 1 1.55 0z" fill="#FFF29D"/><path fill-rule="evenodd" clip-rule="evenodd" d="M85.597 31.025l4.32 4.321a.679.679 0 0 1 0 .96l-4.32 4.322a.679.679 0 0 1-.96 0l-4.321-4.322a.679.679 0 0 1 0-.96l4.32-4.32a.679.679 0 0 1 .96 0zM39.48 104.199l4.321 4.321a.679.679 0 0 1 0 .96l-4.32 4.321a.68.68 0 0 1-.961 0l-4.321-4.321a.679.679 0 0 1 0-.96l4.32-4.321a.68.68 0 0 1 .961 0z" fill="#FFB100"/><path d="M112.292 6.916c-1.564-.17-2.849 1-2.996 2.444l-1.237 12.163-10.75 1.236c-1.309.15-2.261 1.2-2.393 2.427-.154 1.432.845 2.838 2.394 3.016l10.783 1.238 1.205 11.216c.132 1.225 1.084 2.276 2.394 2.426 1.563.18 2.855-.983 3.01-2.426l1.205-11.215 10.783-1.239a2.728 2.728 0 0 0 2.394-2.427c.154-1.432-.844-2.838-2.394-3.016l-10.75-1.236-1.236-12.163c-.126-1.237-1.089-2.3-2.412-2.444z" fill="#FFF29D"/></svg>