<svg viewBox="0 0 135 124" fill="none" xmlns="http://www.w3.org/2000/svg"><path fill-rule="evenodd" clip-rule="evenodd" d="M28 11h79c9.389 0 17 7.611 17 17v79c0 9.389-7.611 17-17 17H28c-9.389 0-17-7.611-17-17V28c0-9.389 7.611-17 17-17z" fill="#FFB100"/><path fill-rule="evenodd" clip-rule="evenodd" d="M68.062 1.328c18.944 2.662 33.132 18.718 33.442 37.846l.93 57.382a1.926 1.926 0 0 1-2.195 1.94l-85.91-12.074a1.927 1.927 0 0 1-1.598-2.388l14.163-55.148C31.6 10.559 49.324-1.306 68.062 1.328z" fill="#F89700"/><path fill-rule="evenodd" clip-rule="evenodd" d="M97.883 41.301l.826.113c1.953-11.05-1.364-20.728-9.95-29.033-8.587-8.304-18.54-10.753-29.857-7.345L97.882 41.3z" fill="#F89700"/><path d="M130.915 64.126a3 3 0 1 0-2.535-5.438l-14.501 6.762a2.989 2.989 0 0 0-.737.486 8.96 8.96 0 0 0-3.308 4.02c-.05.072-.098.147-.144.223l-18.244 30.31-.111.195a4.5 4.5 0 0 0 7.822 4.447l14.416-23.951a9 9 0 0 0 10.971-14.083l6.371-2.971zM98.824 39.977c.44-16.163-11.33-30.08-27.34-32.33C55.348 5.38 40 15.316 35.463 30.963L28.238 55.88a15.698 15.698 0 0 0-.468 2.186c-1.206 8.58 4.772 16.514 13.353 17.72l39.121 5.498c.582.082 1.17.131 1.757.147 8.662.236 15.874-6.595 16.11-15.257l.28-10.287a7.324 7.324 0 0 0 .5-14.56l-.104-.015.037-1.334z" fill="#FFCB2A"/><path d="M49.05 41.917l-.832 5.917a9.691 9.691 0 0 0 .12 3.39 26.886 26.886 0 0 1 9.05-.258 26.856 26.856 0 0 1 9.544 3.238l.764-5.438c.02-.137.036-.274.05-.411L49.05 41.917z" fill="#FFF1A2"/><path d="M59.898 45.653l-.184 1.314a2.876 2.876 0 1 0 5.696.8l.029-.206-5.54-1.908z" fill="#E27800"/><path d="M49.446 7.192l-.063.023a38.548 38.548 0 0 0-21.21 18.855L8.1 65.865l-.013.026a2.313 2.313 0 0 0 1.062 3.094l28.189 13.789a1.927 1.927 0 0 0 2.666-1.094l20.704-59.093c2.58 8.268 9.722 14.74 18.87 16.026l19.21 2.7.036-1.336c.44-16.163-11.329-30.08-27.34-32.33a32.797 32.797 0 0 0-7.572-.184A2.303 2.303 0 0 0 62.84 7.2l-13.394-.008z" fill="#F89700"/><path d="M61.37 124H34.045a17.08 17.08 0 0 1-3.438-.348c.018-.067.037-.134.058-.2L41.87 86.799a5.5 5.5 0 0 1 6.868-3.652l.38.117.157.05.665-4.885a1.235 1.235 0 0 1 1.39-1.058h.006l15.677 2.204c.676.095 1.147.72 1.052 1.395l-.003.019-.61 3.928a5.992 5.992 0 0 1 4.026.067l20.865 7.828 4.556-5.388a2 2 0 0 1 3.37.513l7.678 18.186a3 3 0 0 1-1.597 3.931l-.107.043-8.48 3.201a3.001 3.001 0 0 1-2.517-.185l-29.62-16.468L61.37 124zM64.027 59.726c6.066 1.971 9.386 8.487 7.415 14.554l-.17.523-21.97-7.138.17-.523c1.972-6.067 8.488-9.387 14.555-7.416z" fill="#E27800"/><path d="M69.252 63.222a11.496 11.496 0 0 0-5.225-3.496 11.53 11.53 0 0 0-9.988 1.382L66.33 65.1a2.2 2.2 0 0 0 2.772-1.413l.151-.466z" fill="#FFF1A2"/><path d="M60.168 71.195l-10.865-3.53.17-.523c.308-.95.728-1.83 1.24-2.635a7.701 7.701 0 0 1 9.456 6.689zM67.745 48.352L49.05 41.915l.596-4.245a1.235 1.235 0 0 1 1.396-1.052l8.39 1.18c5.173.727 8.818 5.404 8.313 10.554z" fill="#F89700"/><path d="M70.242 48.527l19.736-1.034-.856 6.09a9.788 9.788 0 0 1-.34 1.528 27.049 27.049 0 0 0-5.312-1.302 26.803 26.803 0 0 0-14.251 1.867l.923-6.566c.027-.196.06-.39.1-.583z" fill="#FFF1A2"/><path d="M84.441 47.783l-5.852.307-.041.297a2.876 2.876 0 0 0 5.696.8l.197-1.404z" fill="#E27800"/><path fill-rule="evenodd" clip-rule="evenodd" d="M72.45 60.933c2.097-.523 3.375-2.637 2.855-4.721-.52-2.085-5.545-6.069-5.545-6.069s-2.567 5.877-2.047 7.962c.52 2.084 2.64 3.35 4.737 2.828z" fill="#F89700"/><path d="M89.978 47.494l.572-4.072a1.235 1.235 0 0 0-1.052-1.395l-8.39-1.18c-5.114-.718-9.856 2.686-10.867 7.681l19.737-1.034z" fill="#F89700"/></svg>