<svg viewBox="0 0 135 124" fill="none" xmlns="http://www.w3.org/2000/svg"><g clip-path="url(#clip0)"><path d="M28.384 11h79c9.389 0 17 7.612 17 17v79.001c0 9.388-7.611 17-17 17h-79c-9.389 0-17-7.612-17-17v-79c0-9.39 7.611-17 17-17z" fill="#FFCA00"/><path d="M13.06 114.08L114.58 12.56A16.938 16.938 0 0 0 107.5 11H66.18L11.5 65.68V107c.003 2.445.535 4.86 1.56 7.08zm72.12-48.14l-58 58c.43 0 .87.07 1.31.07h48.59l33.08-33.09c6.904-6.904 6.904-18.096 0-25-6.903-6.904-18.096-6.904-25 0l.02.02z" fill="#FFD900"/><path d="M67.885 25.978c2.053 15.784-9.078 30.244-24.862 32.298-15.785 2.053-30.245-9.078-32.298-24.862C8.67 17.629 19.803 3.169 35.587 1.116 51.37-.938 65.832 10.193 67.885 25.978z" fill="#F08904"/><path d="M29.476 26.553l1.795 2.153L55.42 5.802a28.953 28.953 0 0 0-2.482-1.5L29.476 26.552z" fill="#E27903"/><path d="M20.77 34.817l8.546-8.106 8.546-8.105 20.672 11.298 3.594 27.624-37.765 4.913-3.594-27.624z" fill="#FFBB31"/><path d="M15.23 68.854c-1.176-9.036 5.195-17.313 14.23-18.489l24.65-3.206c9.035-1.175 17.312 5.196 18.488 14.232 1.175 9.035-5.197 17.313-14.232 18.488l-24.649 3.206c-9.035 1.176-17.313-5.196-18.488-14.231z" fill="#E27903"/><path d="M46.59 47.393a4.942 4.942 0 1 1-9.8 1.275 4.942 4.942 0 0 1 9.8-1.275z" fill="#FFBB31"/><path d="M25.304 37.697a6.67 6.67 0 0 1 13.228-1.72l.585 4.498a6.67 6.67 0 1 1-13.228 1.721l-.585-4.499zM54.888 33.849a6.67 6.67 0 0 0-13.228 1.72l.585 4.5a6.67 6.67 0 0 0 13.228-1.722l-.585-4.498z" fill="#FFF1A2"/><path d="M30.927 37.716a2.762 2.762 0 0 0 2.254-3.642 3.077 3.077 0 0 1 3.814 2.584l.498 3.832a3.077 3.077 0 1 1-6.102.794l-.464-3.568zM43.352 36.1a2.762 2.762 0 0 0 2.254-3.643 3.077 3.077 0 0 1 3.814 2.584l.498 3.833a3.077 3.077 0 0 1-6.102.794l-.464-3.568z" fill="#E27903"/><path d="M43.745 63.823c5.288-.688 9.317-4.261 9.861-8.4.137-1.041-.843-1.787-1.885-1.652l-18.259 2.376c-1.042.135-1.799 1.107-1.4 2.08 1.586 3.86 6.394 6.284 11.683 5.596z" fill="#F08904"/><path d="M51.854 53.755l.127.975a1.842 1.842 0 0 1-1.59 2.064l-14.87 1.935a1.842 1.842 0 0 1-2.065-1.589l-.127-.975.073-.01 18.38-2.392.072-.008z" fill="#FFF1A2"/><path d="M103.758 38.277a3.315 3.315 0 0 1 6.59.73l-8.173 73.758a3.315 3.315 0 1 1-6.59-.73l8.173-73.758z" fill="#E27903"/><path d="M107.528 112.267l-17.606-1.951a3.575 3.575 0 0 0-3.946 3.159l-.272 2.456c-.067.606.37 1.152.976 1.219l22.516 2.495a1.104 1.104 0 0 0 1.219-.976l.272-2.456a3.574 3.574 0 0 0-3.159-3.946z" fill="#E27903"/><path d="M85.268 69.694a1.381 1.381 0 0 1 2.746.304l-1.816 16.384a1.381 1.381 0 1 1-2.745-.304l1.815-16.384z" fill="#FFBB31"/><path d="M84.189 91.976a3.032 3.032 0 0 1-2.688-3.341 3.032 3.032 0 0 1 3.354-2.672 3.032 3.032 0 0 1 2.687 3.341 3.032 3.032 0 0 1-3.353 2.672z" fill="#FFBB31"/><path d="M124.439 42.213l-34.68-3.842a3.975 3.975 0 0 0-4.341 4.705l.785 4.066-13.874 29.815a1.988 1.988 0 0 0 1.584 2.814l57.022 6.319a1.988 1.988 0 0 0 2.159-2.41l-7.191-32.14 1.709-3.713a3.975 3.975 0 0 0-3.173-5.614z" fill="#FFA403"/><path d="M98.576 115.148c-7.582-.84-13.05-7.639-12.215-15.185.837-7.547 7.66-12.984 15.243-12.144 7.582.84 13.051 7.64 12.215 15.186-.836 7.546-7.661 12.983-15.243 12.143z" fill="#E27903"/></g><defs><clipPath id="clip0"><path fill="#fff" d="M0 0h135v124H0z"/></clipPath></defs></svg>