<svg viewBox="0 0 135 124" fill="none" xmlns="http://www.w3.org/2000/svg"><g clip-path="url(#clip0)"><path d="M106.59 11H28.41C18.795 11 11 18.795 11 28.41v78.18c0 9.615 7.795 17.41 17.41 17.41h78.18c9.615 0 17.41-7.795 17.41-17.41V28.41c0-9.615-7.795-17.41-17.41-17.41z" fill="#50D7FD"/><path d="M45.79 31.93a3.11 3.11 0 0 0-4.61 2.73c0 5.35.85 14.26 5.55 22.21C54 69.22 67.87 74.55 67.87 74.55s2-14.69-5.3-27c-4.7-7.99-12.1-13.03-16.78-15.62z" fill="#75C900"/><path d="M68.71 75.87a1.27 1.27 0 0 1-1.09-.6l-20.06-31.6a1.3 1.3 0 0 1 2.19-1.39l20.06 31.6a1.31 1.31 0 0 1-.4 1.79 1.382 1.382 0 0 1-.7.2zm12.45-59.05a3.12 3.12 0 0 0-5.87-1.27A65.208 65.208 0 0 0 69 32.27a66.611 66.611 0 0 0 0 26.57 66.56 66.56 0 0 0 11-24.21 65.433 65.433 0 0 0 1.16-17.81z" fill="#4DB000"/><path d="M65.76 54.36a1.071 1.071 0 0 1-.39-.07 1.12 1.12 0 0 1-.65-1.44l9.7-26.2a1.12 1.12 0 1 1 2.1.78l-9.71 26.2a1.12 1.12 0 0 1-1.05.73z" fill="#359E00"/><path d="M67.48 2.06a3.12 3.12 0 0 0-6 .41 64.911 64.911 0 0 0-1.35 17.8 66.55 66.55 0 0 0 7.38 25.53 66.612 66.612 0 0 0 3.78-26.31 65.439 65.439 0 0 0-3.81-17.43z" fill="#75C900"/><path d="M67.73 56.51a1.3 1.3 0 0 1-1.29-1.22l-2.72-42.83a1.28 1.28 0 0 1 1.21-1.37 1.3 1.3 0 0 1 1.38 1.21L69 55.13a1.3 1.3 0 0 1-1.21 1.37l-.06.01z" fill="#4DB000"/><path d="M57.82 23a3.12 3.12 0 0 0-5.7 1.87 65.117 65.117 0 0 0 3.05 17.59 66.508 66.508 0 0 0 13.41 22.93c.848-8.895-.1-17.87-2.79-26.39a65.165 65.165 0 0 0-7.97-16z" fill="#4DB000"/><path d="M70.46 64.55a1.12 1.12 0 0 1-.91-.46c-6.89-9.52-15-34.84-15.37-35.91a1.12 1.12 0 1 1 2.13-.68c.08.26 8.37 26.05 15 35.28a1.11 1.11 0 0 1-.25 1.56 1.1 1.1 0 0 1-.6.21z" fill="#359E00"/><path d="M91.52 32.24a3.11 3.11 0 0 1 4.29 2.63c.42 5.43.28 15.41-4.88 23.81-7.51 12.23-22.82 16.47-22.82 16.47S65 59.58 72.49 47.35c5.16-8.35 14-13.03 19.03-15.11z" fill="#75C900"/><path d="M67.43 77.92a1.26 1.26 0 0 1-.78-.26 1.29 1.29 0 0 1-.26-1.81A273.633 273.633 0 0 0 89.86 38a1.3 1.3 0 0 1 2.33 1.14 276.612 276.612 0 0 1-23.72 38.27 1.33 1.33 0 0 1-1.04.51z" fill="#4DB000"/><path d="M100.64 56.37a3.12 3.12 0 0 1 2.63 4.94A43.361 43.361 0 0 1 89 74.14c-11.47 6.1-24.26 4.48-24.26 4.48S70.56 67.12 82 61a43.29 43.29 0 0 1 18.64-4.63z" fill="#4DB000"/><path d="M37.24 50.84A3.12 3.12 0 0 0 34 54.76c1.29 4.83 4.33 13 11 18.49 10 8.28 24.3 7.46 24.3 7.46s-1.9-14.23-11.87-22.5c-6.64-5.51-15.21-7-20.19-7.37z" fill="#4DB000"/><path d="M73.41 79a1.3 1.3 0 0 1-.69-2.4L94.67 63a1.28 1.28 0 0 1 1.78.41 1.3 1.3 0 0 1-.45 1.74L74.09 78.77a1.31 1.31 0 0 1-.68.23zm-8.66.92a1.36 1.36 0 0 1-.64-.17c-9.18-5.24-23.83-20.07-24.45-20.7a1.29 1.29 0 0 1 0-1.83 1.32 1.32 0 0 1 1.84 0c.14.15 15 15.21 23.89 20.27a1.28 1.28 0 0 1 .48 1.76 1.31 1.31 0 0 1-1.12.67z" fill="#359E00"/><path d="M91.79 78.57v25.32a8.83 8.83 0 0 1-8.79 8.83H51.46a8.83 8.83 0 0 1-8.83-8.83V78.57a1.94 1.94 0 0 1 1.94-1.94h45.27a1.94 1.94 0 0 1 1.95 1.94z" fill="#fff"/><path d="M50.72 112.68h33a.41.41 0 0 1 .41.41v1a3.49 3.49 0 0 1-3.49 3.49H53.8a3.49 3.49 0 0 1-3.49-3.49v-1a.41.41 0 0 1 .41-.41z" fill="#E4E4E4"/><path d="M91.79 93.64v6.73a9.564 9.564 0 0 1-2.37.29c-4.08 0-6.18-2.28-7.73-4-1.34-1.45-1.94-2-3.34-2s-2 .59-3.33 2c-1.54 1.67-3.65 4-7.73 4s-6.18-2.28-7.73-4c-1.33-1.45-1.93-2-3.34-2s-2 .59-3.32 2c-1.55 1.67-3.65 4-7.74 4a9.015 9.015 0 0 1-2.53-.34v-6.85a3.2 3.2 0 0 0 2.53 1.2c1.41 0 2-.59 3.34-2 1.55-1.68 3.65-4 7.72-4s6.19 2.29 7.74 4c1.34 1.44 1.94 2 3.33 2 1.39 0 2-.59 3.34-2 1.54-1.68 3.65-4 7.72-4s6.19 2.29 7.74 4c1.34 1.44 1.93 2 3.33 2a3.07 3.07 0 0 0 2.37-1.03z" fill="#FF9500"/></g><defs><clipPath id="clip0"><path fill="#fff" d="M0 0h135v124H0z"/></clipPath></defs></svg>