<svg viewBox="0 0 135 124" fill="none" xmlns="http://www.w3.org/2000/svg"><path d="M107 11H28c-9.389 0-17 7.611-17 17v79c0 9.389 7.611 17 17 17h79c9.389 0 17-7.611 17-17V28c0-9.389-7.611-17-17-17z" fill="#E5E5E5"/><path fill-rule="evenodd" clip-rule="evenodd" d="M104.211 62.64L91.405 80.164a3 3 0 0 0 2.422 4.77h12.806a3 3 0 0 0 3-3V64.41a3 3 0 0 0-5.422-1.77z" fill="#A6A6A6"/><path fill-rule="evenodd" clip-rule="evenodd" d="M88.606 63.207l12.732 17.535a3 3 0 0 1-2.427 4.763H86.097a3 3 0 0 1-2.998-2.885l-.002-.129.081-17.535a3 3 0 0 1 5.428-1.749z" fill="#D1D1D1"/><path fill-rule="evenodd" clip-rule="evenodd" d="M89.055 81.746h14.478c4.422 0 8.447 2.551 10.334 6.55l10.925 23.141a2.4 2.4 0 0 1-2.403 3.414l-26.363-2.57-26.282 2.562a2.4 2.4 0 0 1-2.387-3.448L78.8 88.131a11.428 11.428 0 0 1 10.255-6.385z" fill="#D1D1D1"/><path d="M89.351 92.145a2 2 0 0 0-2.45 1.414l-4.524 16.887a19.93 19.93 0 0 0-11.284-.325l-3.581.945-.113.033a2.7 2.7 0 0 0 1.492 5.188l3.58-.945.28-.071a14.54 14.54 0 0 1 8.183.386l.374.127a17.432 17.432 0 0 0 11.222-.133l.114-.04.24-.082a11.345 11.345 0 0 1 7.408.115l.274.096a16.829 16.829 0 0 0 11.01-.028l.165-.058.271-.091a14.59 14.59 0 0 1 8.129-.275l3.966 1.006.114.026a2.7 2.7 0 0 0 1.214-5.26l-3.966-1.006-.317-.078a19.996 19.996 0 0 0-11.19.58l-.165.058-.241.081c-.083.027-.167.053-.251.078l-4.612-17.214a2 2 0 1 0-3.863 1.035l4.456 16.634a11.428 11.428 0 0 1-3.153-.661l-.274-.096a16.748 16.748 0 0 0-11.013.048l-.114.04-.249.085c-1.355.446-2.77.644-4.178.595l4.46-16.645a2 2 0 0 0-1.414-2.449z" fill="#A6A6A6"/><path d="M109.898 80.243H82.982a1.2 1.2 0 0 0-1.2 1.2v1.6a1.2 1.2 0 0 0 1.2 1.2h17.775l-3.45 22.348a.57.57 0 0 0 .958.501l3.832-3.638a.57.57 0 0 1 .787 0l3.896 3.704a.57.57 0 0 0 .957-.512l-3.058-17.62 7.532 15.854a.573.573 0 0 0 1.076-.129l1.041-5.027a.572.572 0 0 1 .662-.446l5.131.934a.572.572 0 0 0 .517-.956l-14.272-15.013h3.532a1.2 1.2 0 0 0 1.2-1.2v-1.6a1.2 1.2 0 0 0-1.2-1.2z" fill="#959595"/><path d="M92.09 23.18c4.204-7.282 13.516-9.777 20.798-5.572 7.282 4.204 9.777 13.516 5.573 20.798l-5.225 9.05-26.37-15.226 5.224-9.05z" fill="#D1D1D1"/><path d="M92.138 20.14a.983.983 0 0 1 1.343-.36l27.229 15.721c.47.272.631.873.36 1.343l-6.273 10.865a.984.984 0 0 1-1.343.36L86.225 32.348a.982.982 0 0 1-.36-1.342l6.273-10.866z" fill="#959595"/><path d="M97.663 43.979c14.983 8.65 29.167 12.54 33.029 9.263.414-.351.249-.97-.221-1.24l-56.16-32.425c-.47-.271-1.087-.105-1.185.43-.908 4.983 9.554 15.321 24.537 23.972z" fill="#D1D1D1"/><path fill-rule="evenodd" clip-rule="evenodd" d="M9.291 57.084c-1.87-12.476 6.729-24.106 19.205-25.976l26.066-3.906c12.476-1.87 24.106 6.729 25.975 19.205 1.87 12.477-6.728 24.106-19.205 25.976l-26.065 3.906C22.79 78.159 11.16 69.56 9.29 57.084z" fill="#959595"/><path d="M80.787 49.288c.264 11.34-7.945 21.37-19.455 23.095l-26.065 3.906c-11.51 1.725-22.299-5.459-25.37-16.378l70.89-10.623z" fill="#fff"/><path d="M50.525 14.36c.9 6.007-3.267 11.61-9.308 12.515-6.041.905-11.668-3.23-12.568-9.236-.9-6.006 3.267-11.61 9.308-12.515 6.041-.905 11.668 3.23 12.568 9.236z" fill="#959595"/><path d="M19.952 58.485a28.192 28.192 0 0 0-.633 11.47l1.907 12.728a8.298 8.298 0 0 0 9.436 6.977l39.536-5.925a8.297 8.297 0 0 0 6.977-9.436l-1.908-12.727A28.192 28.192 0 0 0 71.3 50.789l-4.502.675a5.962 5.962 0 0 1-6.78-5.012l-.927-6.187a6.206 6.206 0 0 1-.016-.113l-30.6 4.586c.067.238.12.483.157.734l.833 5.559a5.962 5.962 0 0 1-5.012 6.78l-4.501.674z" fill="#D1D1D1"/><path fill-rule="evenodd" clip-rule="evenodd" d="M44.608 81.444a.627.627 0 0 1 .83-.317l-.257.573.256-.573.007.003.035.015.152.06c.136.05.34.12.597.195a9.91 9.91 0 0 0 2.108.364c1.71.105 3.888-.225 5.862-1.95a.628.628 0 0 1 .825.946c-2.289 2-4.825 2.376-6.764 2.256a11.163 11.163 0 0 1-2.377-.41 9.393 9.393 0 0 1-.934-.323l-.015-.007-.005-.002h-.002s-.001-.001.255-.574l-.256.573a.627.627 0 0 1-.317-.83z" fill="#B6B6B6"/><path fill-rule="evenodd" clip-rule="evenodd" d="M65.66 52.742a.627.627 0 0 1-.213.862l-2.996 1.81 3.422.945a.628.628 0 0 1-.334 1.21l-4.828-1.333a.628.628 0 0 1-.157-1.142l4.243-2.565a.628.628 0 0 1 .862.213zM26.168 58.66a.628.628 0 0 0 .456.762l3.394.852-2.995 1.907a.628.628 0 0 0 .674 1.059l4.225-2.69a.628.628 0 0 0-.184-1.138l-4.809-1.208a.627.627 0 0 0-.761.456z" fill="silver"/><path d="M47.699 65.469c-5.861.878-8.983 5.015-9.674 10.344-.377 2.91 2.651 4.76 5.482 3.99 2.017-.548 4.269-1.093 6.134-1.372 1.865-.28 4.178-.419 6.267-.486 2.932-.093 5.284-2.75 4.07-5.422-2.221-4.892-6.419-7.933-12.28-7.054z" fill="#A6A6A6"/><path d="M57.343 77.686a7.773 7.773 0 0 0-15.284 2.29c.476.014.965-.041 1.448-.172 2.016-.549 4.269-1.094 6.134-1.373 1.865-.28 4.178-.419 6.266-.486.5-.016.984-.106 1.436-.259z" fill="#BFBFBF"/><path d="M33.436 57.799l.19 1.276a5.899 5.899 0 0 0 11.669-1.749l-.414-2.76-11.445 3.233zM46.987 53.971l.454 3.034a5.899 5.899 0 0 0 11.668-1.749l-.54-3.6a5.933 5.933 0 0 0-.206-.898L46.987 53.97z" fill="#fff"/><path fill-rule="evenodd" clip-rule="evenodd" d="M47.525 64.737a2.865 2.865 0 0 0 2.404-3.26c-.235-1.568-3.62-4.85-3.62-4.85s-2.273 4.13-2.038 5.697a2.865 2.865 0 0 0 3.254 2.413z" fill="#959595"/><path d="M58.835 52.23a1.908 1.908 0 0 0-1.638-3.446l-11.463 5.449-13.985-.035a1.908 1.908 0 0 0-.01 3.815l6.64.016.036.238a2.657 2.657 0 0 0 5.28-.225l2.462.007c.285 0 .567-.063.824-.185l2.37-1.127a2.657 2.657 0 0 0 5.238-.894l-.224-1.489 4.47-2.124z" fill="#959595"/></svg>