<svg viewBox="0 0 136 124" fill="none" xmlns="http://www.w3.org/2000/svg"><rect x="12.158" y="11" width="113" height="113" rx="17" fill="#FEC701"/><path fill-rule="evenodd" clip-rule="evenodd" d="M65.914 27.337c8.2 8.201 8.2 21.497 0 29.698l-53.406 53.407a17.064 17.064 0 0 1-.349-3.442V51.393l24.056-24.056c8.201-8.201 21.498-8.201 29.699 0zm59.245 1.056v35.355l-8.996 8.996c-4.881 4.882-12.796 4.882-17.677 0-4.882-4.881-4.882-12.796 0-17.677l26.673-26.674z" fill="#FFD900"/><path fill-rule="evenodd" clip-rule="evenodd" d="M10.653 29.91c1.65-14.704 14.084-25.82 28.88-25.82 14.308 0 26.488 10.415 28.708 24.55l6.902 43.927a1.474 1.474 0 0 1-1.457 1.703H7.324c-.88 0-1.563-.765-1.465-1.639l4.794-42.721z" fill="#FF9600"/><path fill-rule="evenodd" clip-rule="evenodd" d="M59.525 33.767a5.603 5.603 0 0 1 5.603-5.602h2.184a5.603 5.603 0 1 1 0 11.205h-2.184a5.603 5.603 0 0 1-5.603-5.603z" fill="#FFD900"/><path d="M41.9 8.513c-12.272 0-22.68 9.02-24.424 21.168l-3.753 26.135c-.572 3.98 2.516 7.543 6.537 7.543h42.679c3.839 0 6.824-3.34 6.393-7.155L66.42 30.42a24.895 24.895 0 0 0-.36-2.255H48.998c-9.629 0-17.461-7.692-17.687-17.267A24.601 24.601 0 0 1 41.9 8.513z" fill="#FFD900"/><path fill-rule="evenodd" clip-rule="evenodd" d="M57.117 30.552a.945.945 0 0 0-.945-.945h-6.179a7.73 7.73 0 0 0-7.73 7.73v4.869c0 2 1.622 3.623 3.623 3.623h3.502a7.73 7.73 0 0 0 7.73-7.73v-7.546z" fill="#FFF1A2"/><path fill-rule="evenodd" clip-rule="evenodd" d="M51.447 36.474a3.334 3.334 0 0 0-6.668 0v4.188a3.334 3.334 0 0 0 6.668 0v-4.188z" fill="#E47900"/><path d="M42.264 42.236l14.397-1.513c.295-.82.457-1.703.457-2.624v-7.546a.945.945 0 0 0-.946-.946h-6.179a7.73 7.73 0 0 0-7.73 7.73v4.899z" fill="#FFB100"/><path fill-rule="evenodd" clip-rule="evenodd" d="M25.52 30.552c0-.521.423-.945.945-.945h6.179a7.73 7.73 0 0 1 7.73 7.73v4.711a3.78 3.78 0 0 1-3.781 3.78h-3.344a7.73 7.73 0 0 1-7.73-7.73v-7.546z" fill="#FFF1A2"/><path fill-rule="evenodd" clip-rule="evenodd" d="M31.191 36.474a3.334 3.334 0 1 1 6.669 0v4.188a3.334 3.334 0 1 1-6.669 0v-4.188z" fill="#E47900"/><path d="M40.367 42.268L25.99 40.757a7.715 7.715 0 0 1-.47-2.658v-7.546c0-.522.424-.946.946-.946h6.179a7.73 7.73 0 0 1 7.73 7.73v4.711c0 .074-.003.147-.007.22z" fill="#FFB100"/><path fill-rule="evenodd" clip-rule="evenodd" d="M12.049 34.055c0-7.99 3.268-15.662 9.01-21.218l8.522-3.541a1.77 1.77 0 0 1 2.448 1.634v53.904c0 .814-.66 1.474-1.474 1.474H13.818a1.77 1.77 0 0 1-1.77-1.769V34.055z" fill="#FF9600"/><path fill-rule="evenodd" clip-rule="evenodd" d="M33.443 64.42c0-.523.424-.946.946-.946h12.128c.522 0 .945.423.945.945v8.864a.945.945 0 0 1-.945.945H34.388a.945.945 0 0 1-.945-.945v-8.864z" fill="#F68B00"/><path d="M44 61.082l14.933 2.365.144-.905a7.56 7.56 0 0 0-14.934-2.365l-.143.905z" fill="#E47900"/><path fill-rule="evenodd" clip-rule="evenodd" d="M41.737 60.724a2.29 2.29 0 0 0 1.904 2.62l14.934 2.366a2.29 2.29 0 0 0 2.62-1.904l.144-.905c.851-5.373-2.815-10.42-8.188-11.27-5.373-.852-10.42 2.815-11.27 8.188l-.144.905zm2.744-1.885c-.15.428-.264.875-.338 1.338l-.143.905 14.933 2.365.144-.905a7.562 7.562 0 0 0-14.595-3.703z" fill="#FFD900"/><path fill-rule="evenodd" clip-rule="evenodd" d="M41.112 50.785a2.984 2.984 0 0 0 2.993-2.976c0-1.644-2.993-5.53-2.993-5.53s-2.993 3.886-2.993 5.53a2.984 2.984 0 0 0 2.993 2.976z" fill="#F68B00"/><path d="M57.825 57.057a6.875 6.875 0 0 0-8.448 4.876l9.555 1.514.143-.905c.317-2-.182-3.941-1.25-5.485z" fill="#FFB100"/><path d="M59.052 60.026h-10.59a.687.687 0 0 0-.687.687v.967l11.157 1.767.143-.905a7.548 7.548 0 0 0-.023-2.516zM59.41 80.004c0-19.898 16.13-36.028 36.028-36.028s36.029 16.13 36.029 36.028v3.878c0 19.898-16.131 36.028-36.029 36.028-19.897 0-36.028-16.13-36.028-36.028v-3.878z" fill="#FFF1A2"/><path d="M79.26 116.082a36.034 36.034 0 0 1-5.526-3.441c.257-.121.547-.179.85-.157 13.766 1.023 23.565-1.793 30.558-6.151 7.006-4.366 11.333-10.363 14.003-15.918a1.695 1.695 0 1 1 3.058 1.47c-2.874 5.98-7.585 12.541-15.267 17.328-6.786 4.228-15.784 7.005-27.675 6.869z" fill="#FFB100"/><path fill-rule="evenodd" clip-rule="evenodd" d="M66.81 80.877c0-15.838 12.84-28.677 28.678-28.677 15.838 0 28.677 12.839 28.677 28.677s-12.839 28.677-28.677 28.677S66.81 96.714 66.81 80.877z" fill="#FFD900"/><path fill-rule="evenodd" clip-rule="evenodd" d="M108.834 96.033l-.6.573.601-.572a.86.86 0 0 1-1.245 1.188h-.001l.623-.595-.623.595-.006-.007-.036-.036a7.373 7.373 0 0 0-.774-.643c-.537-.387-1.265-.808-2.086-1.013-.807-.202-1.692-.196-2.606.249-.924.45-1.966 1.394-2.989 3.238a.86.86 0 1 1-1.505-.835c1.137-2.052 2.409-3.302 3.741-3.951 1.343-.654 2.655-.652 3.777-.371 1.107.277 2.036.826 2.676 1.288a9.154 9.154 0 0 1 1.028.865l.017.018.006.006.002.002zM95.633 92.224c1.495 0 2.707-1.222 2.707-2.73 0-1.507-2.707-5.072-2.707-5.072s-2.707 3.565-2.707 5.073c0 1.507 1.212 2.729 2.707 2.729z" fill="#F68B00"/><path d="M83.028 71.758a6.576 6.576 0 0 0-3.62 12.096l6.552 3.394a6.581 6.581 0 0 0 6.693-.829 6.573 6.573 0 0 0 1.15-9.229c-2.703-3.471-6.457-5.403-10.775-5.432z" fill="#FFF1A2"/><path d="M108.24 71.758a6.575 6.575 0 0 1 3.619 12.096l-6.552 3.394a6.58 6.58 0 0 1-6.692-.829 6.573 6.573 0 0 1-1.15-9.229c2.702-3.471 6.457-5.403 10.775-5.432z" fill="#FFF1A2"/><path d="M98.989 79.65a2.645 2.645 0 0 0 2.641-2.648c0-.476-.126-.923-.345-1.309a4.362 4.362 0 0 1 6.156 3.978v2.1a4.362 4.362 0 0 1-8.724 0v-2.1-.035c.09.01.18.014.272.014zM84.276 79.65a2.645 2.645 0 0 0 2.64-2.648c0-.476-.125-.923-.344-1.309a4.362 4.362 0 0 1 6.156 3.978v2.1a4.362 4.362 0 0 1-8.724 0v-2.1-.035c.09.01.18.014.272.014z" fill="#E47900"/><path fill-rule="evenodd" clip-rule="evenodd" d="M71.84 68.498h23.956l-.16 10.669v3.822l-23.954-3.822.159-10.669z" fill="#FFD900"/><path d="M111.473 57.065c-6.44 6.57-18.046 17.893-39.189 17.172a10.16 10.16 0 0 1-1.575-.192 11.09 11.09 0 0 1-1.86-.335c-4.624-1.245-7.882-5.299-8.13-9.965-.051-.971.638-1.565 1.576-1.312l3.233.833c5.116 1.111 7.808-1.211 10.245-3.313.351-.303.697-.601 1.044-.884.092-.075.186-.141.28-.198a28.561 28.561 0 0 1 18.39-6.671 28.546 28.546 0 0 1 15.986 4.865z" fill="#E47900"/></svg>