<svg viewBox="0 0 135 124" fill="none" xmlns="http://www.w3.org/2000/svg"><g clip-path="url(#clip0)"><path d="M107 11H28c-9.389 0-17 7.611-17 17v79c0 9.389 7.611 17 17 17h79c9.389 0 17-7.611 17-17V28c0-9.389-7.611-17-17-17z" fill="#E5E5E5"/><path d="M38.487 4.588L27.661 5.71a2.419 2.419 0 0 0-2.157 2.656l4.678 45.11a2.419 2.419 0 0 0 2.655 2.156l10.827-1.122a2.419 2.419 0 0 0 2.156-2.656l-4.678-45.11a2.419 2.419 0 0 0-2.655-2.156z" fill="#B2B2B2"/><path fill-rule="evenodd" clip-rule="evenodd" d="M27.66 5.71l10.827-1.122a2.419 2.419 0 0 1 2.655 2.156l2.35 22.662-15.638 1.622-2.35-22.662a2.419 2.419 0 0 1 2.157-2.656z" fill="#D1D1D1"/><path fill-rule="evenodd" clip-rule="evenodd" d="M35.564 30.424c9.3-.964 17.623 5.794 18.587 15.095l6.3 60.748a4.838 4.838 0 0 1-4.313 5.311l-24.059 2.495a4.838 4.838 0 0 1-5.31-4.313l-6.3-60.748c-.965-9.301 5.794-17.623 15.095-18.588z" fill="#B2B2B2"/><path fill-rule="evenodd" clip-rule="evenodd" d="M28.663 51.81l4.21-.437a1.814 1.814 0 0 1 1.992 1.618l5.738 55.335a1.814 1.814 0 0 1-1.618 1.991l-4.21.437a1.814 1.814 0 0 1-1.991-1.618l-5.738-55.334a1.814 1.814 0 0 1 1.617-1.992z" fill="#BFBFBF"/><path d="M50.275 55.04l-23.457 2.432a1.814 1.814 0 0 0-1.617 1.992l3.867 37.29c.103.997.995 1.721 1.991 1.618l23.457-2.433a1.814 1.814 0 0 0 1.618-1.991l-3.867-37.291a1.814 1.814 0 0 0-1.992-1.617z" fill="#D1D1D1"/><path fill-rule="evenodd" clip-rule="evenodd" d="M25.437 8.98l15.638-1.62a1.814 1.814 0 0 1 1.992 1.616l.499 4.812a1.814 1.814 0 0 1-1.617 1.992L26.31 17.4a1.814 1.814 0 0 1-1.991-1.617l-.5-4.812a1.814 1.814 0 0 1 1.618-1.991z" fill="#E5E5E5"/><path fill-rule="evenodd" clip-rule="evenodd" d="M30.331 47.381a4.535 4.535 0 1 0-.935-9.022 4.535 4.535 0 0 0 .935 9.022z" fill="#BFBFBF"/><path fill-rule="evenodd" clip-rule="evenodd" d="M27.42 57.41l7.819-.81 4.241 40.899-7.819.81L27.42 57.41zM27.066 10.028l8.42-.874a1.512 1.512 0 1 1 .313 3.008l-8.421.873a1.512 1.512 0 0 1-.312-3.007z" fill="#fff"/><path fill-rule="evenodd" clip-rule="evenodd" d="M34.01 74.226a3.13 3.13 0 0 0 .618 1.542 3.145 3.145 0 1 0 .71 6.188A3.145 3.145 0 0 0 39 86.284a3.145 3.145 0 1 0 5.377-.617 3.177 3.177 0 0 0 .44-.02 3.145 3.145 0 0 0 2.147-5.025 3.133 3.133 0 0 0 .44-.02 3.145 3.145 0 1 0-1.15-6.168 3.145 3.145 0 1 0-12.244-.208zm7.085 10.266l-.014.032a3.19 3.19 0 0 1 .871-.1l-.02-.028-.419.048-.418.048z" fill="#B2B2B2"/><path d="M39.9 70.385c1.761-1.15 2.817-3.043 2.587-5.045-.23-2.003-1.687-3.607-3.662-4.328-1.76 1.15-2.816 3.042-2.586 5.044.23 2.003 1.687 3.607 3.662 4.329z" fill="#BFBFBF"/><path d="M65.226 52.998l6.317-43.935 26.56 7.54 14.715 23.49-42.16 17.153a3.975 3.975 0 0 1-5.432-4.248z" fill="#D1D1D1"/><path d="M89.421 40.426a8.28 8.28 0 1 1 10.21-13.041 8.28 8.28 0 0 1-10.21 13.04zM67.668 36.015l2.047-14.242a8.28 8.28 0 1 1-1.904 14.352l-.143-.11zM89.666 49.511L74.68 55.61a8.28 8.28 0 0 1 14.987-6.098L74.68 55.61l14.986-6.098z" fill="#B2B2B2"/><path d="M115.308 34.964a4.968 4.968 0 0 1-8.87 4.48c-3.389-6.71-7.799-12.153-13.248-16.382-5.416-4.203-11.825-7.04-19.288-8.51a4.968 4.968 0 1 1 1.92-9.75c8.95 1.764 16.791 5.234 23.46 10.41 6.637 5.15 11.985 11.752 16.026 19.752z" fill="#BFBFBF"/><path d="M76.773 20.849a2.484 2.484 0 0 1-.424-3.488l4.083-5.216a2.484 2.484 0 1 1 3.913 3.063l-4.084 5.216a2.484 2.484 0 0 1-3.488.425z" fill="#D1D1D1"/><path d="M83.51 21.916a3.81 3.81 0 0 1-.652-5.348l2.45-3.13a3.81 3.81 0 1 1 6 4.697l-2.451 3.13a3.809 3.809 0 0 1-5.347.65zM69.037 80.159c1.932-12.677 13.776-21.387 26.453-19.455l1.123.172C109.29 62.808 118 74.652 116.067 87.329a2.51 2.51 0 0 1-2.86 2.103L71.14 83.019a2.51 2.51 0 0 1-2.103-2.86zM66.295 98.317a2.184 2.184 0 0 1 2.488-1.83L111.495 103a2.184 2.184 0 0 1 1.83 2.489 6.553 6.553 0 0 1-7.465 5.49l-34.075-5.195a6.553 6.553 0 0 1-5.49-7.466z" fill="#D1D1D1"/><rect x="63.52" y="87.276" width="56.388" height="8.312" rx="4" transform="rotate(8.668 63.52 87.276)" fill="#B2B2B2"/><rect x="67.314" y="82.436" width="50.291" height="1.746" rx=".873" transform="rotate(8.668 67.314 82.436)" fill="#E5E5E5"/><rect x="67.738" y="84.267" width="48.237" height="3.611" rx="1" transform="rotate(8.668 67.738 84.267)" fill="#BFBFBF"/><path d="M89.484 98.269a2 2 0 0 0 1.72.262l15.286-4.704-30.197-4.603 13.191 9.045z" fill="#E5E5E5"/><path d="M110.994 82.641a1.867 1.867 0 0 1-3.69-.562c.156-1.019 1.376-3.483 2.395-3.328 1.019.155 1.45 2.872 1.295 3.89zM101.518 81.196a1.866 1.866 0 1 1-3.69-.562c.156-1.02 1.377-3.484 2.396-3.328 1.018.155 1.449 2.871 1.294 3.89zM107.657 75.299a1.866 1.866 0 0 1-3.69-.563c.156-1.019 1.376-3.483 2.395-3.328 1.019.156 1.45 2.872 1.295 3.89z" fill="#BFBFBF"/><path fill-rule="evenodd" clip-rule="evenodd" d="M95.059 67.294a16.503 16.503 0 0 0-12.777 3.391 2 2 0 0 1-2.484-3.135 20.504 20.504 0 0 1 15.864-4.21 2 2 0 1 1-.603 3.954z" fill="#E5E5E5"/></g><defs><clipPath id="clip0"><path fill="#fff" d="M0 0h135v124H0z"/></clipPath></defs></svg>