<svg id="Layer_3" data-name="Layer 3" xmlns="http://www.w3.org/2000/svg" viewBox="0 0 135 124"><defs><style>.cls-1{fill:#e5e5e5}.cls-2{fill:#d1d1d1}.cls-3{fill:#bfbfbf}</style></defs><path class="cls-1" d="M124 28v79a17 17 0 0 1-17 17H28a17 17 0 0 1-17-17V28a17 17 0 0 1 17-17h79a17 17 0 0 1 17 17z"/><rect class="cls-2" x="9" y="25.72" width="117.14" height="77.42" rx="5.46" ry="5.46" transform="rotate(-23.56 67.573 64.429)"/><path class="cls-3" d="M108 10.54l6 13.63a20.34 20.34 0 0 1-26.86-10.51l13.63-5.95a5.46 5.46 0 0 1 7.23 2.83zM.59 57.37L6.54 71a20.34 20.34 0 0 0 10.51-26.77L3.42 50.17a5.48 5.48 0 0 0-2.83 7.2zM27.17 118.31l-5.94-13.63A20.34 20.34 0 0 1 48 115.19l-13.63 5.94a5.47 5.47 0 0 1-7.2-2.82zM134.54 71.48l-5.94-13.63a20.34 20.34 0 0 0-10.51 26.77l13.63-6a5.45 5.45 0 0 0 2.82-7.14z"/><rect class="cls-3" x="83" y="25.23" width="9.48" height="5.76" rx="2.88" ry="2.88" transform="rotate(-23.56 87.756 28.108)"/><rect class="cls-3" x="24.51" y="50.74" width="9.48" height="5.76" rx="2.88" ry="2.88" transform="rotate(-23.56 29.244 53.633)"/><rect class="cls-3" x="40.56" y="79.88" width="71.23" height="8.22" rx="4.11" ry="4.11" transform="rotate(-23.56 76.197 84.015)"/><path class="cls-3" d="M33 99.79l-3.45-1.33A2.72 2.72 0 0 1 28 94.84a70.94 70.94 0 0 1 88.4-38.91 2.72 2.72 0 0 1 1.64 3.57l-1.35 3.44a2.72 2.72 0 0 1-3.4 1.59 61.79 61.79 0 0 0-76.82 33.82A2.72 2.72 0 0 1 33 99.79z"/><path class="cls-3" d="M25.18 86.31l-3.35-1.54a2.72 2.72 0 0 1-1.28-3.72C28.3 66 41.77 53.94 59.66 46.14a80.51 80.51 0 0 1 50.89-4.73 2.71 2.71 0 0 1 2 3.34l-.91 3.58a2.73 2.73 0 0 1-3.25 2 71.54 71.54 0 0 0-45.09 4.22c-16.12 7-27.74 17.31-34.58 30.58a2.72 2.72 0 0 1-3.54 1.18z"/><circle class="cls-2" cx="101.07" cy="16.91" r="4.62"/><circle class="cls-2" cx="10.24" cy="56.53" r="4.62"/><circle class="cls-2" cx="125.35" cy="72.6" r="4.62"/><circle class="cls-2" cx="34.52" cy="112.21" r="4.62"/><path class="cls-3" d="M103.61 112.91a32.9 32.9 0 0 0-5.32-24.72 3.41 3.41 0 0 0-4.72-.86 32.94 32.94 0 0 0-13.73 21.24l-.11.63a1.33 1.33 0 0 0 0 .19 6.72 6.72 0 0 0 11.18 6.15 6.73 6.73 0 0 0 12.64-1.79v-.2z"/><circle class="cls-1" cx="92.55" cy="106.12" r="6.63"/><circle cx="90.82" cy="103.64" r="2.55" fill="#fff"/><path class="cls-2" d="M42.5 20.25l4.5-1.62a1.6 1.6 0 0 0 0-3l-4.8-1.75-1.51-5.53a1.59 1.59 0 0 0-3.08 0l-1.47 5.53-4.79 1.75a1.6 1.6 0 0 0 0 3l4.44 1.62 1.82 5.38a1.59 1.59 0 0 0 3.07 0zM29.61 31.57l3-1.11a1.1 1.1 0 0 0 0-2.06l-3.29-1.2-1-3.8a1.09 1.09 0 0 0-2.11 0l-1 3.8L22 28.4a1.1 1.1 0 0 0 0 2.06l3 1.11 1.25 3.69a1.09 1.09 0 0 0 2.11 0z"/></svg>