<svg xmlns="http://www.w3.org/2000/svg" viewBox="0 0 135 124"><defs><style>.cls-1{fill:#ffc800}.cls-2{fill:#ffd900}.cls-3{fill:#f89700}.cls-4{fill:#e27800}</style></defs><g id="GILDED"><path class="cls-1" d="M124 28a17 17 0 0 0-17-17H28a17 17 0 0 0-17 17v79a17 17 0 0 0 17 17h79a17 17 0 0 0 17-17z"/><path class="cls-1" d="M124 28v79a16.61 16.61 0 0 1-.09 1.74 6.17 6.17 0 0 1-.08.62.91.91 0 0 1 0 .23c0 .23-.07.45-.11.68l-.15.69q-.06.29-.15.57a16.81 16.81 0 0 1-.73 2.1c-.11.25-.22.5-.34.74a15.28 15.28 0 0 1-1 1.81c-.11.18-.23.35-.35.52s-.24.35-.37.51a6.12 6.12 0 0 1-.39.5l-.41.48-.42.47a6.25 6.25 0 0 1-.44.45 16.89 16.89 0 0 1-11 4.87H28a16.8 16.8 0 0 1-2.47-.18l-.66-.11c-.25 0-.49-.09-.74-.15l-.76-.2-.93-.29c-.13 0-.26-.09-.39-.15a8.18 8.18 0 0 1-.82-.32c-.34-.15-.67-.31-1-.48s-.66-.36-1-.55a17.34 17.34 0 0 1-4.78-4.29c-.16-.2-.29-.43-.43-.64s-.24-.35-.35-.53a14.69 14.69 0 0 1-.74-1.28c-.09-.17-.18-.34-.26-.52s-.26-.48-.37-.74v-.08c-.13-.32-.25-.64-.37-1v-.08a20.117 20.117 0 0 1-.54-2.08c-.07-.37-.12-.62-.16-.93a13.12 13.12 0 0 1-.15-1.67.87.87 0 0 1 0-.28 4.1 4.1 0 0 1 0-.5V28a16.25 16.25 0 0 1 .21-2.62c.08-.55.19-1.09.32-1.63s.32-1.09.51-1.62.4-1 .64-1.5.5-1 .78-1.44A17 17 0 0 1 28 11h79a17 17 0 0 1 16.75 14.07l.09.57A18.34 18.34 0 0 1 124 28z"/><path class="cls-2" d="M121.57 19.24L19.24 121.57A16.9 16.9 0 0 0 28 124h47.68L124 75.68V28a17 17 0 0 0-2.43-8.76zM42.68 11L23 30.73a20.81 20.81 0 0 0 29.38 29.43L101.55 11z"/><path class="cls-3" d="M68.32 0a50.95 50.95 0 1 0 51 50.94A50.93 50.93 0 0 0 68.32 0zM30.18 73a12.81 12.81 0 0 1 11.07-19.25A12.81 12.81 0 1 1 30.18 73zm76.29-44a12.8 12.8 0 1 1-11.11-6.41 12.83 12.83 0 0 1 11.11 6.33zm-25.34-9.29A12.81 12.81 0 1 1 68.32 6.9a12.83 12.83 0 0 1 12.81 12.81zm-33.46 4.52a12.79 12.79 0 1 1-6.39-1.72 12.82 12.82 0 0 1 6.39 1.72zm7.84 58A12.81 12.81 0 1 1 68.32 95a12.82 12.82 0 0 1-12.81-12.82zM89 77.66a12.81 12.81 0 1 1 17.5-4.7 12.82 12.82 0 0 1-17.5 4.7z"/><path class="cls-4" d="M115.13 50.94a46.82 46.82 0 0 1-41.47 46.51 47.39 47.39 0 0 1-5.34.3c-1.54 0-3.07-.07-4.57-.22a46.81 46.81 0 1 1 51.38-46.59z"/><path class="cls-3" d="M111.85 44.65a2.56 2.56 0 0 1-2.54 2.82H66l.1-43.27q1.11-.06 2.25-.06A36.27 36.27 0 0 1 83.9 8a.73.73 0 0 1-.33 1.38h-9.68l-1.67 3.19h17.55a4.83 4.83 0 0 1 3.12 1.1A72.55 72.55 0 0 1 104 25.08a1.43 1.43 0 0 1-1.17 2.26H89.09v4.44h16.16a4.32 4.32 0 0 1 4 2.63 35.5 35.5 0 0 1 2.6 10.24z"/><path class="cls-4" d="M113.6 62.85a46.86 46.86 0 0 1-39.94 34.6 47.39 47.39 0 0 1-5.34.3c-1.54 0-3.07-.07-4.57-.22V62.85z"/><circle class="cls-4" cx="50.94" cy="50.94" r="46.81"/><path class="cls-4" d="M88.89 116.93a1.92 1.92 0 0 1-1.9-2.29c.83-4.2 3.55-12.68 12-12.68 7.6 0 18.5-3.4 18.5-16.66 0-11.83-19.87-15.18-19.87-34.36h17.47C115.13 70.12 135 70.42 135 85.3a19.18 19.18 0 0 1-18.5 19.7c-8.8 0-11.41 7.28-12.13 10.48a1.93 1.93 0 0 1-1.88 1.49z"/><path class="cls-3" d="M100.61 51.49h9.73a2 2 0 0 1 2 1.85 23 23 0 0 0 4.57 12.55.71.71 0 0 1-.57 1.14h-7.82a2.54 2.54 0 0 1-1.85-.8c-2.98-3.11-5.15-6.8-6.06-14.74zM109.44 103.6c-3.75 1.92-6.5 5.49-7.79 10.33H90.22c1.94-7.76 6.37-8.37 8.81-9s7.24-1.43 10.23-1.92a.3.3 0 0 1 .18.59zM131.53 89.53c-.94 4.07-4.47 9.1-7.8 10.88a3.2 3.2 0 0 1-1.49.48h-7.68a.55.55 0 0 1-.42-.91c2.09-2.34 5.51-7.09 6.12-10.91a1.62 1.62 0 0 1 1.61-1.38H130a1.52 1.52 0 0 1 1.53 1.84zM113.11 70.49h7.26a2.58 2.58 0 0 1 1.67.62l2 1.71c3.71 3.21 6.77 5.85 7.68 9.89a1.28 1.28 0 0 1-1.26 1.52h-8.73a1.4 1.4 0 0 1-1.38-1.16c-.82-4.81-4.23-8.25-7.71-11.36a.7.7 0 0 1 .47-1.22z"/><path class="cls-1" d="M50.94 0a50.95 50.95 0 1 0 51 50.94A50.93 50.93 0 0 0 50.94 0zM12.8 73a12.81 12.81 0 0 1 11.07-19.25A12.85 12.85 0 0 1 35 60.16a12.8 12.8 0 0 1-11.1 19.21A12.84 12.84 0 0 1 12.8 73zm76.29-44A12.8 12.8 0 1 1 78 22.51a12.83 12.83 0 0 1 11.09 6.41zm-25.34-9.29A12.81 12.81 0 1 1 50.94 6.9a12.82 12.82 0 0 1 12.81 12.81zm-33.46 4.52a12.79 12.79 0 1 1-6.39-1.72 12.82 12.82 0 0 1 6.39 1.72zm7.84 58A12.81 12.81 0 1 1 50.94 95a12.83 12.83 0 0 1-12.81-12.82zm33.46-4.52A12.82 12.82 0 1 1 78 79.37a12.76 12.76 0 0 1-6.41-1.71z"/><path class="cls-2" d="M50.94 5.39a45.56 45.56 0 1 0 45.55 45.55A45.55 45.55 0 0 0 50.94 5.39zM71 25a12.46 12.46 0 1 1-4.57 17A12.47 12.47 0 0 1 71 25zm-57.18 4.51a12.46 12.46 0 1 1 4.56 17 12.53 12.53 0 0 1-4.56-17zm22.84 39.86a12.4 12.4 0 0 1-5.81 7.57 12.46 12.46 0 0 1-17-4.57 12.49 12.49 0 0 1 4.56-17 12.46 12.46 0 0 1 17 4.57 12.38 12.38 0 0 1 1.25 9.43zm14.28 24.44a12.47 12.47 0 1 1 12.47-12.46 12.48 12.48 0 0 1-12.47 12.46zm0-60.8a12.47 12.47 0 1 1 12.47-12.47A12.49 12.49 0 0 1 50.94 33zm26.32 45.6a12.46 12.46 0 1 1 10.81-6.24 12.47 12.47 0 0 1-10.81 6.24z"/><circle class="cls-1" cx="50.94" cy="50.94" r="13.71"/><circle class="cls-4" cx="50.94" cy="50.94" r="4.11"/><path class="cls-2" d="M43.09 57.14a1.68 1.68 0 0 1-1.44-.83 1.63 1.63 0 0 1-.16-1.26 1.6 1.6 0 0 1 .76-1 1.65 1.65 0 0 1 .83-.23 1.68 1.68 0 0 1 1.44.83 1.63 1.63 0 0 1 .16 1.26 1.58 1.58 0 0 1-.77 1 1.61 1.61 0 0 1-.82.23zM58.8 48.06a1.63 1.63 0 0 1-1.43-.83A1.65 1.65 0 0 1 58 45a1.72 1.72 0 0 1 .83-.22 1.66 1.66 0 0 1 1.6 2.08 1.67 1.67 0 0 1-.77 1 1.64 1.64 0 0 1-.86.2zM58.8 57.14a1.68 1.68 0 0 1-1.6-1.23 1.6 1.6 0 0 1 .17-1.26 1.64 1.64 0 0 1 2.26-.6 1.65 1.65 0 0 1 .6 2.26 1.65 1.65 0 0 1-1.43.83zM43.08 48.06a1.58 1.58 0 0 1-.82-.22 1.67 1.67 0 0 1-.61-2.26 1.66 1.66 0 1 1 1.43 2.48zM50.94 43.53a1.66 1.66 0 1 1 1.66-1.66 1.66 1.66 0 0 1-1.66 1.66zM50.94 61.67A1.66 1.66 0 1 1 52.6 60a1.65 1.65 0 0 1-1.66 1.67z"/><path d="M36.86 52.33a1.39 1.39 0 0 1-1.39-1.39 15.49 15.49 0 0 1 15.47-15.47 1.39 1.39 0 1 1 0 2.77 12.72 12.72 0 0 0-12.7 12.7 1.38 1.38 0 0 1-1.38 1.39z" fill="#ffe865"/></g></svg>