<svg viewBox="0 0 135 124" fill="none" xmlns="http://www.w3.org/2000/svg"><path d="M11 28c0-9.388 7.611-17 17-17h79c9.389 0 17 7.612 17 17v79c0 9.389-7.611 17-17 17H28c-9.389 0-17-7.611-17-17V28z" fill="#E5E5E5"/><path fill-rule="evenodd" clip-rule="evenodd" d="M44.4 15.822c6.014-.533 11.321 3.923 11.855 9.948l.145 1.637-21.778 1.93-.145-1.637c-.534-6.024 3.909-11.345 9.923-11.878z" fill="#959595"/><path d="M33.722 27.558c6.42-.57 11.172-6.154 10.611-12.474-.56-6.32-6.22-10.981-12.64-10.412-6.423.57-11.174 6.154-10.614 12.474.56 6.32 6.22 10.981 12.643 10.412z" fill="#959595"/><path d="M66.557 24.461l-41.341 3.665c-7.747.687-13.47 7.524-12.783 15.27l2.439 27.51c.687 7.747 7.523 13.47 15.27 12.783l41.341-3.665c7.747-.686 13.47-7.523 12.783-15.27l-2.439-27.51c-.686-7.747-7.523-13.47-15.27-12.783z" fill="#BFBFBF"/><path fill-rule="evenodd" clip-rule="evenodd" d="M56.597 31.412a8.736 8.736 0 0 0-7.93 9.474l.469 5.293a8.736 8.736 0 0 0 17.404-1.543l-.47-5.293a8.736 8.736 0 0 0-9.473-7.93z" fill="#fff"/><path d="M55.207 36.744a3.922 3.922 0 0 0-3.56 4.253l.434 4.907a3.922 3.922 0 0 0 7.814-.693l-.435-4.907a3.922 3.922 0 0 0-4.253-3.56z" fill="#fff"/><path d="M51.676 41.328a3.15 3.15 0 0 0 2.786-4.446 3.922 3.922 0 0 1 4.998 3.422l.435 4.907a3.922 3.922 0 1 1-7.814.693l-.405-4.576z" fill="#959595"/><path fill-rule="evenodd" clip-rule="evenodd" d="M36.112 33.228a8.736 8.736 0 0 1 9.474 7.931l.469 5.293a8.736 8.736 0 1 1-17.404 1.543l-.47-5.293a8.736 8.736 0 0 1 7.931-9.474z" fill="#fff"/><path d="M35.451 42.88a3.15 3.15 0 0 0 2.732-4.544 3.922 3.922 0 0 1 5.042 3.409l.435 4.906a3.922 3.922 0 1 1-7.813.692l-.396-4.463z" fill="#959595"/><path d="M35.216 68.287c6.61-.586 11.493-6.42 10.907-13.029-.586-6.61-6.42-11.492-13.029-10.906-6.609.586-11.492 6.419-10.906 13.028.586 6.61 6.419 11.493 13.028 10.907zM62.912 65.832c6.61-.586 11.492-6.42 10.906-13.029-.586-6.61-6.419-11.492-13.028-10.906-6.61.586-11.493 6.419-10.907 13.028.586 6.61 6.42 11.493 13.029 10.907z" fill="#BFBFBF"/><path fill-rule="evenodd" clip-rule="evenodd" d="M48.252 56.14a3.432 3.432 0 0 0 3.111-3.725c-.167-1.89-3.978-6.057-3.978-6.057s-3.018 4.772-2.85 6.662a3.432 3.432 0 0 0 3.717 3.12z" fill="#A6A6A6"/><path fill-rule="evenodd" clip-rule="evenodd" d="M36.866 55.966a4.552 4.552 0 0 1 6.287 1.388c.875 1.37 1.724 2.045 2.456 2.38.715.327 1.676.496 3.082.243A4.553 4.553 0 0 1 50.3 68.94c-2.907.522-5.799.3-8.477-.925-2.662-1.218-4.746-3.257-6.344-5.761a4.552 4.552 0 0 1 1.388-6.287z" fill="#fff"/><path d="M20.817 29.247c-5.393 2.358-8.931 7.963-8.383 14.149l.877 9.892 2.594-.23a7 7 0 0 0 6.353-7.593l-1.441-16.218zM70.693 24.702c5.911 1.238 10.574 6.215 11.135 12.542l.876 9.878-2.968.263a7 7 0 0 1-7.592-6.353l-1.451-16.33z" fill="#A6A6A6"/><path d="M11.843 60.911a6.207 6.207 0 1 0-1.096-12.365 6.207 6.207 0 0 0 1.096 12.365zM85.101 54.244a6.207 6.207 0 1 0-1.096-12.365 6.207 6.207 0 0 0 1.096 12.365z" fill="#BFBFBF"/><path d="M85.335 65.36l-.227 1.191 7.907 1.505.227-1.192a2.878 2.878 0 0 0-2.287-3.361l-2.259-.43a2.878 2.878 0 0 0-3.36 2.286zM103.333 68.784l-.227 1.192 7.907 1.505.227-1.192a2.879 2.879 0 0 0-2.286-3.361l-2.26-.43a2.878 2.878 0 0 0-3.361 2.286z" fill="#fff"/><path d="M106.31 66.477l-.694 4.012 3.012.573.694-4.012a5.366 5.366 0 0 0-4.268-6.274l-10.504-2a5.366 5.366 0 0 0-6.274 4.268l-.773 4.006 3.012.573.773-4.005a2.3 2.3 0 0 1 2.689-1.83l10.504 2a2.3 2.3 0 0 1 1.829 2.689z" fill="#959595"/><path d="M59.423 104.951l49.845 9.486a3.495 3.495 0 0 0 4.074-2.772l6.647-34.93a3.495 3.495 0 0 0-2.771-4.073l-49.845-9.486a3.494 3.494 0 0 0-4.074 2.771l-6.648 34.929a3.495 3.495 0 0 0 2.772 4.075z" fill="#959595"/><path d="M69.717 67.168l-6.648 34.93a3.494 3.494 0 0 0 2.772 4.074l-3.22-.613a4.772 4.772 0 0 1-.835-3.705l6.647-34.93a4.775 4.775 0 0 1 2.138-3.14l3.22.613a3.495 3.495 0 0 0-4.074 2.771z" fill="#BFBFBF"/><path d="M70.954 107.146l49.845 9.486a3.495 3.495 0 0 0 4.074-2.772l6.647-34.93a3.493 3.493 0 0 0-2.771-4.074L78.904 65.37a3.494 3.494 0 0 0-4.074 2.772l-6.647 34.929a3.495 3.495 0 0 0 2.77 4.075z" fill="#A6A6A6"/><path d="M72.624 103.03l6.321-33.219 48.134 9.16-6.322 33.219-48.133-9.16z" fill="#BFBFBF"/><path d="M68.183 103.071l.597-3.137a6.678 6.678 0 0 1 5.311 7.808l-3.137-.597a3.494 3.494 0 0 1-2.771-4.074zM78.904 65.37l3.137.597a6.678 6.678 0 0 1-7.809 5.312l.597-3.137a3.495 3.495 0 0 1 4.075-2.772zM131.52 78.93l-.597 3.138a6.677 6.677 0 0 1-5.311-7.809l3.137.597a3.493 3.493 0 0 1 2.771 4.075zM120.799 116.632l-3.137-.598a6.677 6.677 0 0 1 7.809-5.311l-.597 3.137a3.496 3.496 0 0 1-4.075 2.772z" fill="#BFBFBF"/></svg>