<svg viewBox="0 0 135 124" fill="none" xmlns="http://www.w3.org/2000/svg"><g clip-path="url(#clip0)"><path d="M11.066 28c0-9.389 7.611-17 17-17h79c9.389 0 17 7.611 17 17v79c0 9.389-7.611 17-17 17h-79c-9.389 0-17-7.611-17-17V28z" fill="#DDD"/><path fill-rule="evenodd" clip-rule="evenodd" d="M35.447 50.536l-1.44 3.116a2.114 2.114 0 0 1-3.385.635l-2.474-2.383a10.223 10.223 0 0 0-10.62-2.234l-3.223 1.184a2.114 2.114 0 0 1-2.842-1.944l-.065-3.434a10.228 10.228 0 0 0-5.932-9.091L2.35 34.943a2.114 2.114 0 0 1-.635-3.385l2.382-2.473a10.223 10.223 0 0 0 2.233-10.62l-1.186-3.224a2.114 2.114 0 0 1 1.945-2.843l3.432-.063a10.22 10.22 0 0 0 9.088-5.93l1.44-3.116a2.114 2.114 0 0 1 3.386-.635l2.474 2.383a10.223 10.223 0 0 0 10.62 2.234l3.222-1.184a2.114 2.114 0 0 1 2.843 1.944l.064 3.434a10.228 10.228 0 0 0 5.932 9.091l3.117 1.442a2.114 2.114 0 0 1 .635 3.385l-2.382 2.473a10.223 10.223 0 0 0-2.233 10.62l1.186 3.224a2.114 2.114 0 0 1-1.945 2.843l-3.432.063a10.22 10.22 0 0 0-9.088 5.93z" fill="#A6A6A6"/><path d="M30.952 45.499c9.234-1.649 15.382-10.473 13.733-19.71-1.65-9.236-10.472-15.386-19.706-13.738-9.233 1.65-15.382 10.474-13.732 19.71 1.65 9.236 10.471 15.387 19.705 13.738z" fill="#D1D1D1"/><path fill-rule="evenodd" clip-rule="evenodd" d="M50.308 75.229a2.536 2.536 0 0 1 .909-3.47l11.825-6.918a2.536 2.536 0 0 1 2.561 4.379l-11.825 6.917c-1.209.708-2.763.3-3.47-.908zM109.548 32.087a2.536 2.536 0 0 1-.312 3.573l-7.561 6.347a2.537 2.537 0 0 1-3.262-3.886l7.562-6.346a2.536 2.536 0 0 1 3.573.312z" fill="#959595"/><path d="M116.979 40.74c-6.555-.413-9.678-3.078-11.723-9.787l-1.572 3.191-.894 14.202 13.656.86.533-8.467z" fill="#959595"/><path d="M106.381 39.25c-.732 11.615-10.74 20.438-22.354 19.706-11.615-.73-20.438-10.739-19.707-22.353.731-11.615 10.74-20.438 22.354-19.707 11.615.731 20.438 10.74 19.707 22.354z" fill="#959595"/><path d="M132.311 58.568c-.584 9.277-8.578 16.324-17.854 15.74-9.277-.584-16.324-8.578-15.74-17.854.584-9.277 8.577-16.324 17.854-15.74 9.277.584 16.324 8.578 15.74 17.854zM84.326 54.184c-.57 9.05-8.369 15.925-17.419 15.356-9.05-.57-15.925-8.369-15.356-17.419.57-9.05 8.368-15.925 17.419-15.356 9.05.57 15.925 8.368 15.356 17.419z" fill="#959595"/><path d="M54.47 75.468c1.244-19.76 18.27-34.77 38.03-33.527 19.761 1.243 34.771 18.27 33.527 38.03l-1.05 16.695a9.131 9.131 0 0 1-9.687 8.539l-53.332-3.356a9.131 9.131 0 0 1-8.539-9.687l1.051-16.694z" fill="#BFBFBF"/><path opacity=".4" fill-rule="evenodd" clip-rule="evenodd" d="M92.636 39.791C75.392 38.706 60.534 51.805 59.449 69.05l-1.474 23.416a4.565 4.565 0 0 0 4.27 4.843l53.331 3.356a4.565 4.565 0 0 0 4.843-4.27l1.474-23.415c1.085-17.244-12.014-32.102-29.257-33.188zM98.89 54.02l-.969-.061a6.328 6.328 0 0 0-5.027 1.994c-.36.386-.81.717-1.338.7-.567-.018-1.015-.427-1.35-.885a6.327 6.327 0 0 0-4.724-2.592l-1.108-.07a10.506 10.506 0 0 0-3.237-.204l-8.614-.542a6.34 6.34 0 0 0-6.726 5.93l-.228 3.623c-.394 6.268 3.78 11.768 9.657 13.249a10.386 10.386 0 0 0 5.986 2.365 10.391 10.391 0 0 0 6.897-2.052c1.211-.906 3.182-.782 4.27.269a10.392 10.392 0 0 0 6.586 2.9 10.386 10.386 0 0 0 6.187-1.566c6.103-.651 11.03-5.621 11.429-11.954l.228-3.624a6.34 6.34 0 0 0-5.929-6.726l-8.753-.55a10.5 10.5 0 0 0-3.237-.204z" fill="#959595"/><path fill-rule="evenodd" clip-rule="evenodd" d="M121.125 38.144a2.537 2.537 0 0 1 1.581 3.22l-3.189 9.342a2.536 2.536 0 1 1-4.801-1.639l3.189-9.342a2.536 2.536 0 0 1 3.22-1.581z" fill="#959595"/><path fill-rule="evenodd" clip-rule="evenodd" d="M117.952 47.47a2.537 2.537 0 0 1 1.581 3.219l-3.189 9.342a2.536 2.536 0 1 1-4.801-1.638l3.189-9.343a2.536 2.536 0 0 1 3.22-1.58zM133.007 68.8a2.537 2.537 0 0 1-3.576-.286l-6.4-7.516a2.536 2.536 0 1 1 3.862-3.289l6.4 7.516a2.536 2.536 0 0 1-.286 3.575z" fill="#959595"/><path d="M132.893 71.081a5.747 5.747 0 1 1-11.47-.722 5.747 5.747 0 0 1 11.47.722zM59.97 66.492a5.747 5.747 0 1 1-11.47-.722 5.747 5.747 0 0 1 11.47.722z" fill="#BFBFBF"/><path d="M74.669 63.852l-.103 1.638a7.389 7.389 0 1 0 14.748.928l.103-1.638-14.748-.928zM92.422 64.97l-.103 1.638a7.389 7.389 0 0 0 14.749.928l.103-1.638-14.749-.928z" fill="#fff"/><path d="M80.993 63.565a3.147 3.147 0 0 1 6.282.395l-.07 1.092a3.147 3.147 0 0 1-6.282-.395l.07-1.092zM94.65 64.424a3.147 3.147 0 0 1 6.282.395l-.069 1.093a3.147 3.147 0 0 1-6.282-.395l.07-1.093z" fill="#959595"/><path d="M71.556 62.069a3.203 3.203 0 0 1 3.398-2.996l32.68 2.057a3.203 3.203 0 1 1-.403 6.394l-32.68-2.057a3.203 3.203 0 0 1-2.995-3.398zM104.927 75.818a9.254 9.254 0 0 1-1.163 18.47l-9.44-.593a6.047 6.047 0 0 0-4.945-3.165 6.03 6.03 0 0 0-4.267 1.402 9.254 9.254 0 0 1 5.606-17.008l14.209.894z" fill="#959595"/><path d="M76.51 74.029a9.254 9.254 0 1 0-1.163 18.47l8.73.55a6.046 6.046 0 0 1 5.302-2.519 6.034 6.034 0 0 1 4.286 2.186 9.254 9.254 0 0 0-2.947-17.793l-14.208-.894zM57.94 59.789c.04.552.105 1.462.14 2.085a35.584 35.584 0 0 0-1.94 4.778 8.073 8.073 0 0 0 11.113-6.968l.619-9.832.008-.148-.014.011.097-1.542-7.529 3.163-2.495 8.453zM124.086 65.853a35.633 35.633 0 0 1 1.388 5.162 8.073 8.073 0 0 1-10.151-8.306l.619-9.833.01-.146.097-1.53 7.006 4.078 1.398 8.697c-.1.494-.256 1.278-.367 1.878z" fill="#959595"/><path fill-rule="evenodd" clip-rule="evenodd" d="M52.965 41.104a2.537 2.537 0 0 1 3.575.294l6.033 7.114a2.536 2.536 0 0 1-3.87 3.281l-6.032-7.114a2.536 2.536 0 0 1 .294-3.575zM61.189 42.554a2.536 2.536 0 0 1 3.575.294l6.033 7.115a2.536 2.536 0 0 1-3.87 3.28l-6.032-7.114a2.536 2.536 0 0 1 .294-3.575z" fill="#959595"/><path d="M63.58 35.809a1.711 1.711 0 0 1 1.992-1.374l4.315.794a1.711 1.711 0 0 1-.62 3.366l-4.314-.794a1.711 1.711 0 0 1-1.373-1.992zM113.936 45.073a1.711 1.711 0 0 1 1.993-1.373l4.314.793a1.71 1.71 0 1 1-.619 3.366l-4.315-.793a1.711 1.711 0 0 1-1.373-1.993z" fill="#E5E5E5"/><path fill-rule="evenodd" clip-rule="evenodd" d="M92.88 41.87c-1.849-.34-3.35.771-3.602 2.138a1.63 1.63 0 1 1-3.206-.59c.625-3.396 4.049-5.37 7.398-4.754 3.35.617 5.847 3.68 5.222 7.076a1.63 1.63 0 0 1-3.206-.59c.252-1.366-.756-2.94-2.605-3.28z" fill="#E5E5E5"/><path d="M70.198 36.256a3.081 3.081 0 0 1 3.588-2.473l12.77 2.35a3.08 3.08 0 0 1 2.472 3.587l-.657 3.57a9.573 9.573 0 0 1-11.147 7.683 9.573 9.573 0 0 1-7.683-11.146l.657-3.571z" fill="#959595"/><path fill-rule="evenodd" clip-rule="evenodd" d="M74.375 30.577l12.77 2.35a6.34 6.34 0 0 1 5.089 7.383l-.657 3.57c-1.283 6.97-7.973 11.582-14.943 10.3-6.97-1.283-11.58-7.973-10.299-14.943l.657-3.571a6.34 6.34 0 0 1 7.383-5.089zm-.59 3.206a3.08 3.08 0 0 0-3.587 2.473l-.657 3.57a9.573 9.573 0 0 0 7.683 11.148A9.573 9.573 0 0 0 88.37 43.29l.657-3.571a3.08 3.08 0 0 0-2.473-3.587l-12.77-2.35z" fill="#E5E5E5"/><path d="M97.222 41.227a3.08 3.08 0 0 1 3.587-2.472l12.77 2.35a3.081 3.081 0 0 1 2.473 3.587l-.657 3.57c-.957 5.2-5.948 8.64-11.147 7.683-5.2-.956-8.64-5.947-7.683-11.147l.657-3.57z" fill="#959595"/><path fill-rule="evenodd" clip-rule="evenodd" d="M101.399 35.55l12.77 2.349a6.34 6.34 0 0 1 5.088 7.383l-.657 3.57c-1.282 6.97-7.972 11.582-14.942 10.3-6.97-1.283-11.581-7.973-10.299-14.943l.657-3.571a6.34 6.34 0 0 1 7.383-5.089zm-.59 3.205a3.08 3.08 0 0 0-3.587 2.473l-.657 3.57c-.957 5.2 2.483 10.19 7.683 11.147 5.199.957 10.19-2.483 11.147-7.682l.657-3.571a3.081 3.081 0 0 0-2.473-3.588l-12.77-2.349z" fill="#E5E5E5"/><path d="M105.687 56.1a9.64 9.64 0 0 1-1.439-.155 9.535 9.535 0 0 1-5.62-3.282l7.565-5.289a3.431 3.431 0 0 1 3.932 5.624l-4.438 3.102zM112.159 40.843l-6.563 4.588a3.431 3.431 0 0 1-3.932-5.623l1.015-.71 9.48 1.745zM85.07 35.86l-9.48-1.745-1.014.71a3.43 3.43 0 1 0 3.93 5.623l6.564-4.589zM78.585 51.126a9.665 9.665 0 0 1-1.361-.152 9.534 9.534 0 0 1-5.65-3.32l7.53-5.263a3.43 3.43 0 1 1 3.932 5.623l-4.451 3.112z" fill="#AEAEAE"/><path d="M95.184 73.368a4.652 4.652 0 1 1-9.286-.584 4.652 4.652 0 0 1 9.286.584z" fill="#BFBFBF"/><path d="M68.529 66.114c.223.449.04.994-.41 1.217l-3.83 1.901a.909.909 0 0 1-.808-1.627l3.83-1.901a.908.908 0 0 1 1.218.41zM71.757 68.23c.297.6.052 1.326-.547 1.624L64.43 73.22a1.211 1.211 0 0 1-1.077-2.17l6.78-3.366a1.211 1.211 0 0 1 1.624.546zM71.014 73.163a.908.908 0 1 0-.808-1.627l-3.83 1.9a.908.908 0 1 0 .808 1.628l3.83-1.9zM113.656 68.954a.909.909 0 0 0 .253 1.26l3.562 2.365a.908.908 0 1 0 1.006-1.513l-3.562-2.366a.908.908 0 0 0-1.259.254zM110.188 70.649a1.212 1.212 0 0 0 .338 1.68l6.306 4.19a1.212 1.212 0 0 0 1.341-2.019l-6.306-4.19a1.21 1.21 0 0 0-1.679.339zM110.306 75.636a.909.909 0 0 1 1.006-1.513l3.561 2.366a.908.908 0 1 1-1.005 1.513l-3.562-2.366z" fill="#959595"/><path d="M61.966 51.66a1.42 1.42 0 1 1-2.835-.179 1.42 1.42 0 0 1 2.835.179zM92.792 24.466a1.42 1.42 0 1 1-2.836-.178 1.42 1.42 0 0 1 2.836.178zM96.888 28.872a1.42 1.42 0 1 1-2.836-.178 1.42 1.42 0 0 1 2.836.178zM123.297 63.185a1.42 1.42 0 1 1-2.835-.178 1.42 1.42 0 0 1 2.835.178zM129.525 57.335a1.42 1.42 0 1 1-2.835-.178 1.42 1.42 0 0 1 2.835.178zM122.788 56.051a1.42 1.42 0 1 1-2.835-.178 1.42 1.42 0 0 1 2.835.178zM60.582 57.48a1.42 1.42 0 1 1-2.835-.178 1.42 1.42 0 0 1 2.835.179z" fill="#E5E5E5"/><path d="M20.618 114.947l-1.387-5.564a.551.551 0 0 1 .66-.663c2.398.542 4.306 2.361 4.904 4.761.046.184.084.369.113.555l-4.29.911z" fill="#D1D1D1"/><path d="M27.042 114.04H21.32a.78.78 0 0 0 0 1.561h5.722a.78.78 0 1 0 0-1.561z" fill="#D1D1D1"/><path d="M26.392 78.146c1.498 0 2.838.934 3.356 2.34 2.737 7.44 4.263 13.595 4.577 18.468a175.86 175.86 0 0 1 .26 16.647H23.788a1.334 1.334 0 0 1-1.304-1.617c.799-3.689 1.364-8.526 1.697-14.51.34-6.129.31-12.422-.091-18.88a2.306 2.306 0 0 1 2.302-2.448z" fill="#959595"/><path d="M19.553 77.515l21.29-21.29a.807.807 0 0 1 1.36.39 18.597 18.597 0 0 1-5.016 17.244 18.597 18.597 0 0 1-17.243 5.017.807.807 0 0 1-.391-1.36z" fill="#D1D1D1"/><path d="M50.863 79.371L21.78 71.58a.807.807 0 0 0-.983 1.018 18.598 18.598 0 0 0 12.966 12.425 18.598 18.598 0 0 0 17.442-4.277.807.807 0 0 0-.342-1.374z" fill="#A6A6A6"/><path d="M31.615 74.17L2.531 66.375a.807.807 0 0 0-.982 1.019A18.597 18.597 0 0 0 14.515 79.82a18.597 18.597 0 0 0 17.442-4.277.807.807 0 0 0-.342-1.374z" fill="#A6A6A6"/><path d="M5.506 91.561l21.291-21.29a.807.807 0 0 1 1.36.39 18.598 18.598 0 0 1-5.016 17.244A18.598 18.598 0 0 1 5.897 92.92a.807.807 0 0 1-.39-1.36zM34.319 115.601h2.752l3.44-5.1a.41.41 0 0 0-.29-.639 4.955 4.955 0 0 0-3.702 1.066l.091-2.602a.411.411 0 0 0-.585-.388 4.958 4.958 0 0 0-2.844 4.319 4.96 4.96 0 0 0 1.138 3.344z" fill="#D1D1D1"/></g><defs><clipPath id="clip0"><path fill="#fff" d="M0 0h135v124H0z"/></clipPath></defs></svg>