<svg viewBox="0 0 135 124" version="1.1" xmlns="http://www.w3.org/2000/svg"><g stroke="none" stroke-width="1" fill="none" fill-rule="evenodd"><g transform="translate(11 11)"><rect fill="#BFBFBF" x="0" y="0" width="113" height="113" rx="17"/><path d="M76 52h6c5.523 0 10 4.477 10 10v4h-6c-5.523 0-10-4.477-10-10v-4z" fill="#D0D0D0"/><path d="M107 52h-6c-5.523 0-10 4.477-10 10v4h6c5.523 0 10-4.477 10-10v-4z" fill="#D0D0D0"/><rect fill="#A8A8A8" x="10" y="81" width="15" height="15" rx="7.5"/><rect fill="#FFF" x="61" y="30" width="6" height="37" rx="3"/><path stroke="#D0D0D0" stroke-width="2" stroke-linecap="round" d="M61 33.779l6 3.913M61 43.779l6 3.913M61 53.779l6 3.913"/><path d="M64.707 12.636l3.536 3.536a6 6 0 1 1-8.486 0l3.536-3.536a1 1 0 0 1 1.414 0z" fill="#E5E5E5"/><path d="M66.121 19.05a3 3 0 1 1-4.242 4.243 3 3 0 0 1 4.242-4.243z" fill="#BFBFBF"/><g transform="rotate(-13 96.144 -115.888)"><rect fill="#FFF" x="8" y="20.586" width="6" height="37" rx="3"/><path stroke="#E5E5E5" stroke-width="2" stroke-linecap="round" d="M8 24.365l6 3.912M8 34.365l6 3.912M8 44.365l6 3.912"/><g><path d="M13.439 3.58l2.65 4.24A6 6 0 1 1 7.82 5.912l4.24-2.65a1 1 0 0 1 1.379.318z" fill="#E5E5E5"/><path d="M13.374 10.148a3 3 0 1 1-5.089 3.18 3 3 0 0 1 5.089-3.18z" fill="#BFBFBF"/></g></g><path d="M47 66h50c0 16.569-13.431 30-30 30H17c0-16.569 13.431-30 30-30z" fill="#E5E5E5"/><rect fill="#A8A8A8" x="85" y="81" width="15" height="15" rx="7.5"/><path d="M71.5 87a7.5 7.5 0 0 1 7.5 7.5H64a7.5 7.5 0 0 1 7.5-7.5z" fill="#A8A8A8"/><path d="M74 81l15.114 8.244A2 2 0 0 1 88.157 93H79a5 5 0 0 1-5-5v-7z" fill="#D0D0D0"/><rect fill="#FFF" x="29" y="73" width="17" height="17" rx="8.5"/><rect fill="#A8A8A8" x="34" y="78" width="7" height="7" rx="3.5"/><rect fill="#FFF" x="5" y="93" width="102" height="7" rx="3.5"/><path d="M53.079 74a3.132 3.132 0 0 1 0 6M53.079 80a3.132 3.132 0 0 1 0 6M61.079 77a3.132 3.132 0 0 1 0 6" stroke="#D0D0D0" stroke-width="2" stroke-linecap="round"/></g><rect fill="#FFF" transform="rotate(37 106 28)" x="102" y="24" width="8" height="8" rx="2"/><rect fill="#D1D1D1" transform="rotate(37 87 11)" x="83" y="7" width="8" height="8" rx="2"/><rect fill="#FFF" transform="rotate(151 30 72)" x="26" y="68" width="8" height="8" rx="2"/><rect fill="#A8A8A8" transform="rotate(151 17 15)" x="13" y="11" width="8" height="8" rx="2"/><rect fill="#D1D1D1" transform="rotate(-135 12 53)" x="8" y="49" width="8" height="8" rx="2"/><path d="M33.81 33.807c-4.72-5.065-4.82-9.681-.3-13.849 6.78-6.25 8.495-7.236 8.231-12.07M118 53.321c5.602-2.414 7.47-6.197 5.602-11.349-2.801-7.728-1.713-10.558 2.342-13.972" stroke="#E5E5E5" stroke-width="4" stroke-linecap="round"/></g></svg>