<svg viewBox="0 0 135 124" fill="none" xmlns="http://www.w3.org/2000/svg"><g clip-path="url(#clip0)"><path d="M107 11H28c-9.389 0-17 7.611-17 17v79c0 9.389 7.611 17 17 17h79c9.389 0 17-7.611 17-17V28c0-9.389-7.611-17-17-17z" fill="#C9C9C9"/><path fill="#979797" d="M18.425 22.702l39.71-.043.026 24.296-39.71.043z"/><path d="M28.435 40.957c-5.018 4.797-12.975 4.618-17.772-.4l-4.16-4.353c-4.798-5.018-4.619-12.975.4-17.772l4.867-4.652c5.018-4.797 12.974-4.618 17.771.4l4.161 4.352c4.797 5.018 4.618 12.975-.4 17.772l-4.867 4.653zM52.056 40.75c5.029 4.787 12.985 4.59 17.771-.438l4.152-4.361c4.786-5.029 4.59-12.985-.439-17.771l-4.877-4.642c-5.028-4.787-12.984-4.59-17.77.438l-4.152 4.362c-4.786 5.028-4.59 12.984.438 17.77l4.877 4.643z" fill="#959595"/><path d="M22.817 12.607C22.809 5.664 28.43.03 35.373.023l9.084-.01C51.4.007 57.033 5.629 57.04 12.57l.008 7.517c.008 6.942-5.614 12.575-12.556 12.583l-9.084.01c-6.942.007-12.576-5.614-12.583-12.557l-.008-7.517z" fill="#959595"/><path d="M55.853 44.053a9.629 9.629 0 0 1 9.64 9.618l.025 24.072c.007 6.248-5.053 11.32-11.301 11.326l-27.923.03c-6.249.007-11.32-5.053-11.326-11.302l-.026-24.072c-.006-5.317 4.3-9.633 9.618-9.639l31.293-.033z" fill="#B2B2B2"/><rect x="25.634" y="53.672" width="12.872" height="16.882" rx="6.436" transform="rotate(-.062 25.634 53.672)" fill="#fff"/><rect x="42.15" y="53.654" width="12.872" height="16.882" rx="6.436" transform="rotate(-.062 42.15 53.654)" fill="#fff"/><path d="M38.18 70.529a2.104 2.104 0 0 0 4.208-.004c-.002-1.163-2.021-3.856-2.109-3.856-.087 0-2.101 2.698-2.1 3.86z" fill="#979797"/><path d="M38.667 40.281c.452-5.36 5.163-9.337 10.523-8.885l-.231 2.737c-.452 5.36-5.164 9.337-10.523 8.885l.23-2.737z" fill="#DCDCDC"/><path d="M31.49 34.056c.464 5.359 5.184 9.327 10.542 8.863l-.236-2.737c-.464-5.358-5.184-9.326-10.543-8.862l.237 2.736z" fill="#DCDCDC"/><rect x="37.158" y="68.945" width="6.259" height="4.333" rx="2.166" transform="rotate(-.062 37.158 68.945)" fill="#979797"/><path d="M11.801 41.692l29.368-.032.003 2.88-26.437 14-2.934-16.848z" fill="#DCDCDC"/><path d="M68.37 41.631l-29.367.032.003 2.879 26.467 13.943L68.37 41.63z" fill="#DCDCDC"/><circle cx="14.844" cy="64.136" r="5.741" transform="rotate(-.062 14.844 64.136)" fill="#B2B2B2"/><path d="M43.635 61.46a2.321 2.321 0 0 0 1.904-3.642 2.849 2.849 0 0 1 3.792 2.686l.004 3.587a2.849 2.849 0 0 1-5.697.006l-.003-2.637zM31.824 61.473a2.321 2.321 0 0 0 1.827-3.75 2.849 2.849 0 0 1 3.387 2.795l.004 3.587a2.849 2.849 0 0 1-5.698.006l-.003-2.688c.156.033.318.05.483.05zM40.974 76.582a4.929 4.929 0 0 1 1.887 9.662c-1.91.573-4.529.512-7.232-.31-2.703-.823-4.911-2.232-6.179-3.77a4.929 4.929 0 1 1 6.95-6.973c.625.558 1.283 1.115 2.085 1.36.802.244 1.659.147 2.49.031z" fill="#979797"/><path d="M43.142 86.164c-.093.03-.187.057-.281.08-1.91.573-4.53.512-7.232-.31-2.703-.823-4.912-2.232-6.18-3.77a4.953 4.953 0 0 1-1.127-2.142c1.888-.63 4.496-.657 7.214.067 2.73.728 4.987 2.059 6.307 3.553a4.95 4.95 0 0 1 1.299 2.522zM132.571 60.415l-68.723-8.098-6.89 58.483 68.722 8.097 6.891-58.482z" fill="#E5E5E5"/><path fill-rule="evenodd" clip-rule="evenodd" d="M106.33 61c.767.09 1.631.744 1.926 1.453l3.203 7.682c.297.712.06 1.692-.529 2.19L96.814 84.243c-.589.497-1.68.773-2.438.615l-8.818-1.834c-.758-.158-.885.108-.286.594l6.203 5.019c.6.485 1.696 1.04 2.434 1.236l11.494 3.042c.744.197 1.672.889 2.075 1.551l12.118 19.892-56.583-6.667 6.016-51.058L106.33 61z" fill="#C8C8C8"/><path fill-rule="evenodd" clip-rule="evenodd" d="M67.046 56.313l33.854 4.036c.763.091 1.615.742 1.904 1.456l3.078 7.614c.288.713.023 1.669-.596 2.136l-10.48 7.928c-.618.467-1.742.77-2.5.68l-17.35-2.068c-.764-.091-.941.27-.391.81l12.779 12.57c.547.538 1.582 1.173 2.32 1.42l13.411 4.503c.733.246 1.618.993 1.982 1.68l7.771 14.656-51.75-6.17 5.968-51.251z" fill="#B2B2B2"/><path fill-rule="evenodd" clip-rule="evenodd" d="M79.113 61.863c.284.04.538.194.704.427l3.259 4.553a1.047 1.047 0 0 1-1.703 1.219l-2.62-3.662-3.748 2.948a1.047 1.047 0 1 1-1.295-1.645l4.608-3.627c.225-.176.512-.254.795-.213zM75.453 92.931c.283.04.537.195.703.428l3.259 4.553a1.047 1.047 0 1 1-1.703 1.219l-2.62-3.662-3.747 2.948a1.047 1.047 0 0 1-1.296-1.646l4.608-3.626c.225-.177.512-.254.796-.214z" fill="#979797"/><path fill-rule="evenodd" clip-rule="evenodd" d="M85.544 62.62c.276.045.524.198.688.426l3.258 4.553a1.047 1.047 0 0 1-1.703 1.218l-2.64-3.688-2.123 1.566a1.047 1.047 0 0 1-1.244-1.685l2.978-2.198c.226-.166.509-.235.786-.191z" fill="#979797"/><path d="M116.655 81.701l-8.314-.98a1.84 1.84 0 1 0-.43 3.656l8.314.98a1.84 1.84 0 1 0 .43-3.656zM119.75 74.654l-5.164-.608a1.84 1.84 0 0 0-.431 3.655l5.165.608a1.84 1.84 0 1 0 .43-3.655z" fill="#B7B7B7"/><path fill-rule="evenodd" clip-rule="evenodd" d="M63.848 52.317l68.723 8.098-6.891 58.482-68.723-8.097 6.891-58.483zm3.529 4.471l-5.949 50.483 60.724 7.155 5.948-50.483-60.723-7.155z" fill="#E5E5E5"/><path d="M109.664 57.716l-22.908-2.7-6.89 58.483 22.907 2.699 6.891-58.482z" fill="#000" fill-opacity=".239"/><path d="M89.48 29.897l1.142 13.046 12.693-1.111-1.141-13.046a1.104 1.104 0 0 0-1.196-1.002l-10.495.918a1.103 1.103 0 0 0-1.003 1.195z" fill="#E5E5E5"/><path d="M100.978 27.783l-10.495.918a1.103 1.103 0 0 0-1.003 1.195l.092 1.048 12.693-1.11-.091-1.048a1.105 1.105 0 0 0-1.196-1.003z" fill="#959595"/><path d="M85.707 30.76l1.874 6.994 12.308-3.297-1.875-6.995a1.103 1.103 0 0 0-1.35-.78l-10.177 2.726a1.103 1.103 0 0 0-.78 1.351z" fill="#fff"/><path d="M96.663 26.681l-10.176 2.727a1.103 1.103 0 0 0-.78 1.35l.272 1.017 12.307-3.298-.272-1.016a1.103 1.103 0 0 0-1.351-.78zM96.795 31.088c-1.017-.391-1.744.285-1.744.285l-1.603 1.344-2.675-.215a.437.437 0 0 0-.314.101l-.486.408a.055.055 0 0 0 .017.093l2.138.722-.952.798-1.61.091a.274.274 0 0 0-.16.064l-.42.353a.054.054 0 0 0 .012.092l2.094.94a.327.327 0 0 0 .345-.049l1.988-1.669.522 3.373c.006.042.056.061.089.034l.486-.408a.437.437 0 0 0 .153-.292l.395-4.087 1.804-1.513a.273.273 0 0 0-.08-.465z" fill="#959595"/><path d="M118.941 64.015l-23.605 6.324.888 3.315 23.605-6.324-.888-3.315z" fill="#E5E5E5"/><path d="M96.798 71.072l22.294-5.973a1.324 1.324 0 0 0 .936-1.622l-8.262-30.833a1.324 1.324 0 0 0-1.621-.936l-23.476 6.29a1.324 1.324 0 0 0-.937 1.622l8.898 33.207a2.537 2.537 0 0 0 3.108 1.794l22.943-6.148a.662.662 0 0 0-.342-1.278l-22.982 6.158a1.174 1.174 0 0 1-1.462-.943c-.102-.604.31-1.179.903-1.338z" fill="#9F9F9F"/><path fill-rule="evenodd" clip-rule="evenodd" d="M101.254 45.492a6.738 6.738 0 1 0 3.487 13.016 6.738 6.738 0 0 0-3.487-13.016zm-5.553 8.463a7.555 7.555 0 1 1 14.594-3.91 7.555 7.555 0 0 1-14.594 3.91z" fill="#E5E5E5"/><path fill-rule="evenodd" clip-rule="evenodd" d="M99.696 47.84c-.264 1.34-.188 3.103.31 4.962.498 1.859 1.314 3.423 2.213 4.452.917 1.051 1.821 1.442 2.522 1.254.702-.187 1.289-.978 1.558-2.347.264-1.34.189-3.103-.31-4.962-.498-1.86-1.314-3.424-2.212-4.453-.918-1.05-1.822-1.442-2.523-1.254-.701.188-1.289.979-1.558 2.348zm-.801-.158c.287-1.458.979-2.666 2.147-2.979 1.169-.313 2.373.387 3.35 1.506.997 1.141 1.863 2.825 2.386 4.778.524 1.953.615 3.845.323 5.331-.287 1.458-.979 2.666-2.148 2.98-1.169.313-2.373-.388-3.35-1.507-.996-1.141-1.863-2.825-2.386-4.778-.523-1.953-.615-3.844-.322-5.331z" fill="#E5E5E5"/><path fill-rule="evenodd" clip-rule="evenodd" d="M97.744 51.221c-1.051.918-1.442 1.822-1.255 2.523.188.701.979 1.288 2.348 1.558 1.34.263 3.103.188 4.962-.31 1.859-.498 3.424-1.314 4.453-2.213 1.051-.918 1.442-1.821 1.254-2.523-.188-.7-.979-1.288-2.348-1.557-1.34-.264-3.103-.189-4.962.31-1.859.498-3.424 1.314-4.452 2.212zm-.537-.615c1.14-.997 2.825-1.863 4.778-2.387 1.953-.523 3.844-.614 5.331-.322 1.457.287 2.666.979 2.979 2.148.313 1.169-.387 2.372-1.506 3.35-1.142.996-2.825 1.862-4.778 2.386-1.953.523-3.845.615-5.332.322-1.457-.287-2.665-.979-2.978-2.148-.314-1.169.387-2.372 1.506-3.35z" fill="#E5E5E5"/><path d="M106.965 39.794l-13.5 3.617a.408.408 0 0 1-.5-.288l-.376-1.403a.408.408 0 0 1 .29-.5l13.499-3.617a.409.409 0 0 1 .5.289l.375 1.402a.408.408 0 0 1-.288.5zM113.123 62.78l-13.499 3.617a.408.408 0 0 1-.5-.289l-.376-1.402a.408.408 0 0 1 .289-.5l13.499-3.617a.408.408 0 0 1 .5.288l.376 1.403a.409.409 0 0 1-.289.5z" fill="#959595"/></g><defs><clipPath id="clip0"><path fill="#fff" d="M0 0h135v124H0z"/></clipPath></defs></svg>