<svg viewBox="0 0 135 124" fill="none" xmlns="http://www.w3.org/2000/svg"><g clip-path="url(#clip0)"><rect x="11" y="11" width="113" height="113" rx="17" fill="#FF7878"/><path d="M8.909 39.207C6.237 22.702 17.45 7.155 33.957 4.483l.695-.112c16.505-2.672 32.052 8.542 34.724 25.048l.64 3.948c2.671 16.506-8.543 32.053-25.049 34.725l-.695.112C27.767 70.876 12.22 59.662 9.548 43.156l-.64-3.949z" fill="#FFB7E3"/><path d="M44.988 60.03a42.82 42.82 0 0 1-2.872 1.38c-5.822 2.54-11.786 3.69-15.854 4.169 1.88.91 3.86 1.63 5.913 2.138 3.423-.714 7.316-1.817 11.167-3.497 7.447-3.249 14.91-8.739 18.35-17.922-3.04 6.733-9.081 11.966-16.704 13.733z" fill="#FF9BD8"/><path d="M63.527 32.39c2.151 13.29-6.879 25.809-20.17 27.96-13.29 2.152-25.808-6.878-27.96-20.169-2.151-13.29 6.879-25.809 20.17-27.96 13.29-2.152 25.808 6.878 27.96 20.169z" fill="#E18E70"/><path d="M44.223 27.416c-3.187 2.405-4.377 4.758-4.457 6.805a5.509 5.509 0 0 0 9.179 4.361c.43-.358.744-.626.993-.84.911-.776.96-.817 2.667-1.85a4.944 4.944 0 0 0 .163-.1h-.001a5.51 5.51 0 0 0-1.694-10.007c-2.69-.648-5.59.746-6.85 1.63z" fill="#fff"/><path d="M43.355 33.452a2.457 2.457 0 0 0 1.506-3.984 3.665 3.665 0 0 1 4.02 3.057l.272 1.677a3.665 3.665 0 0 1-7.236 1.172l-.271-1.677c-.034-.21-.05-.42-.048-.626a2.448 2.448 0 0 0 1.757.381z" fill="#3D3D3D"/><path d="M59.78 32.848c-9.39.51-18.137-2.92-21.337-4.7l4.383-4.105 8.709-3.157 7.547 2.854 2.49 6.391-1.792 2.717z" fill="#E18E70"/><path d="M19.13 33.859c17.84-2.269 26.04-13.347 30.552-19.734a24.264 24.264 0 0 0-14.075-1.91 24.28 24.28 0 0 0-14.525 8.095 2.34 2.34 0 0 0-.208.204c-.253.285-.503.582-.756.884-1.798 2.141-3.789 4.511-8.444 4.153a13.947 13.947 0 0 0-.254-.017l-2.332-.215c-.822-.085-1.32.507-1.144 1.315.841 3.882 4.126 6.841 8.176 7.258.576.06 1.148.065 1.708.02.453.013.896-.002 1.302-.053z" fill="#3D3D3D"/><path d="M32.87 49.81a2.025 2.025 0 0 1 1.676-2.323l12.929-2.093a2.025 2.025 0 1 1 .11 4.013l-.678-.072a20.364 20.364 0 0 0-10.579 1.713l-.62.282a2.025 2.025 0 0 1-2.837-1.52zm4.169-9.289a1.57 1.57 0 0 0-.065-.025c-2.233-.812-4.78-1.368-7.498-1.587a30.545 30.545 0 0 0-4.97-.002 5.487 5.487 0 0 1-1.851-3.024c3.315-1.112 8.004-3.02 11.12-5.876 2.708 1.22 4.137 2.796 4.748 4.415.133.349.233.716.295 1.1a5.505 5.505 0 0 1-1.78 5z" fill="#fff"/><path d="M31.246 35.413a2.457 2.457 0 0 0 1.507-3.984 3.665 3.665 0 0 1 4.02 3.057l.271 1.677a3.666 3.666 0 0 1-1.806 3.772 29.422 29.422 0 0 0-4.693-.922 3.648 3.648 0 0 1-.736-1.68l-.271-1.676c-.034-.21-.05-.42-.048-.626a2.448 2.448 0 0 0 1.756.382z" fill="#3D3D3D"/><path d="M43.84 41.475a.78.78 0 0 1-.262-1.358c1.806-1.43 3.985-2.726 6.435-3.766a29.2 29.2 0 0 1 5.896-1.812.78.78 0 0 1 .763 1.243 6.916 6.916 0 0 1-2.202 1.861l-.073.038-.118.06c-1.908.972-1.96 1.009-2.926 1.713l-.053.04c-.29.21-.658.478-1.16.835a7.03 7.03 0 0 1-3.577 1.403 7.068 7.068 0 0 1-2.723-.257z" fill="#E18E70" stroke="#E18E70" stroke-width="1.559" stroke-linecap="round" stroke-linejoin="round"/><path d="M39.873 37.94c.116-.02 1.394 1.43 2.704 2.957 1.304 1.519.429 3.866-1.547 4.186-1.976.32-3.547-1.631-2.789-3.484.761-1.862 1.517-3.641 1.633-3.66z" fill="#9E4D31"/><path d="M51.63 17.035l2.18 3.977c.968 1.768-.34 3.92-2.356 3.875-2.015-.045-3.225-2.255-2.178-3.977l2.355-3.875zm5.532 5.144l2.711 4.95c1.205 2.2-.423 4.88-2.931 4.824-2.508-.056-4.015-2.807-2.712-4.95l2.932-4.824z" fill="#9ADCFB"/><path d="M82.775 5.66a1.82 1.82 0 0 1 2.182-1.363l45.945 10.598a1.82 1.82 0 0 1 1.364 2.182l-13.914 60.316a1.82 1.82 0 0 1-2.182 1.364L70.225 68.158a1.82 1.82 0 0 1-1.364-2.182L82.775 5.661z" fill="#F4FDFF"/><path d="M79.953 17.894l.562-2.438 49.492 11.417-.563 2.438-49.491-11.417zm-2.558 11.087l.563-2.438 49.491 11.417-.562 2.438L77.395 28.98zm-2.557 11.087l.562-2.438 49.492 11.417-.563 2.438-49.491-11.417zM72.28 51.155l.563-2.438 49.491 11.417-.562 2.438L72.28 51.155zm-2.557 11.087l.562-2.438 49.492 11.417-.563 2.438-49.491-11.417z" fill="#BBF2FF"/><path d="M75.591 69.396L90.323 5.534l2.438.563-14.732 63.861-2.438-.562z" fill="#FF7878"/><rect x="92.24" y="23.92" width="15.25" height="2.384" rx="1.192" transform="rotate(13.016 92.24 23.92)" fill="#C4C4C4"/><rect x="87.193" y="45.751" width="15.25" height="2.384" rx="1.192" transform="rotate(13.016 87.193 45.75)" fill="#C4C4C4"/><rect x="119.911" y="44.632" width="17.25" height="2.384" rx="1.192" transform="rotate(-166.984 119.911 44.632)" fill="#C4C4C4"/><rect x="114.864" y="66.462" width="17.25" height="2.384" rx="1.192" transform="rotate(-166.984 114.864 66.462)" fill="#C4C4C4"/><rect x="100.668" y="40.184" width="11.875" height="2.384" rx="1.192" transform="rotate(-166.984 100.668 40.184)" fill="#C4C4C4"/><rect x="95.621" y="62.014" width="11.875" height="2.384" rx="1.192" transform="rotate(-166.984 95.621 62.014)" fill="#C4C4C4"/><path fill-rule="evenodd" clip-rule="evenodd" d="M107.459 18.38l2.943 6.203-6.202 2.943a2.21 2.21 0 0 0 1.895 3.992l6.202-2.943 2.943 6.203a2.21 2.21 0 0 0 3.993-1.895l-2.944-6.202 6.202-2.944a2.209 2.209 0 1 0-1.894-3.992l-6.202 2.944-2.944-6.203a2.21 2.21 0 0 0-3.992 1.895z" fill="#FF6464"/><path d="M43.1 77.68c1.904-11.905 12.174-20.662 24.23-20.662 12.055 0 22.325 8.757 24.23 20.661l5.994 37.462a1.3 1.3 0 0 1-1.285 1.506H38.39a1.3 1.3 0 0 1-1.285-1.506L43.1 77.679z" fill="#A570FF"/><path d="M46.472 79.38c1.324-10.547 10.292-18.46 20.922-18.46 10.667 0 19.655 7.966 20.935 18.556l2.014 16.649c.734 6.069-4.004 11.415-10.118 11.415H54.486c-6.132 0-10.875-5.377-10.111-11.462l2.097-16.698z" fill="#FFC9B7"/><rect x="83.05" y="77.616" width="11.275" height="9.541" rx="4.77" fill="#FFC6B7"/><path d="M70.046 94.606c0 1.395-1.117 2.526-2.494 2.526-1.377 0-2.494-1.131-2.494-2.526 0-1.395 2.39-4.63 2.494-4.63.104 0 2.494 3.235 2.494 4.63z" fill="#EE9583"/><path d="M59.96 58.146a15.41 15.41 0 0 0-.545 4.075c0 8.503 6.893 15.395 15.396 15.395h16.74C89.62 65.744 79.364 57.017 67.33 57.017a24.51 24.51 0 0 0-7.37 1.13z" fill="#A570FF"/><path d="M61.909 108.309c0-.425.344-.769.77-.769h9.748a.77.77 0 0 1 .769.769v7.569a.769.769 0 0 1-.77.769h-9.748a.769.769 0 0 1-.77-.769v-7.569z" fill="#593F86"/><path d="M66.64 85.943a6.48 6.48 0 0 0-6.48-6.48h-5.25a.81.81 0 0 0-.81.81v6.405a6.48 6.48 0 0 0 6.48 6.48h3.003A3.058 3.058 0 0 0 66.64 90.1v-4.157z" fill="#fff"/><path fill-rule="evenodd" clip-rule="evenodd" d="M77.843 94.828c1.1-.564 2.128-.465 2.793-.031a.81.81 0 1 1-.884 1.357c-.111-.072-.51-.222-1.17.116-.673.344-1.618 1.207-2.629 3.17a.81.81 0 1 1-1.44-.741c1.096-2.128 2.243-3.315 3.33-3.871z" fill="#EE9583"/><path d="M68.235 85.943a6.48 6.48 0 0 1 6.48-6.48h5.25a.81.81 0 0 1 .81.81v6.405a6.48 6.48 0 0 1-6.48 6.48h-3.003a3.057 3.057 0 0 1-3.057-3.058v-4.157z" fill="#fff"/><path d="M70.432 87.388v1.16a2.815 2.815 0 1 0 5.63 0v-1.16h-5.63zm-11.724 0v1.16a2.815 2.815 0 1 0 5.63 0v-1.16h-5.63z" fill="#3D3D3D"/><path d="M80.49 88.585l-12.255 1.33v-3.972a6.48 6.48 0 0 1 6.48-6.48h5.25a.81.81 0 0 1 .81.81v6.405c0 .664-.1 1.304-.285 1.907zm-13.849 1.358v-4a6.48 6.48 0 0 0-6.48-6.48h-5.25a.81.81 0 0 0-.81.81v6.405c0 .675.103 1.325.294 1.936l12.246 1.33z" fill="#A570FF"/><path d="M44.237 83.867c0-4.624 1.478-9.127 4.219-12.851l4.238-5.76 3.903-3.035 3.903-.867v48.788H44.237V83.867z" fill="#A570FF"/></g><defs><clipPath id="clip0"><path fill="#fff" d="M0 0h135v124H0z"/></clipPath></defs></svg>