<svg viewBox="0 0 135 124" version="1.1" xmlns="http://www.w3.org/2000/svg"><g stroke="none" stroke-width="1" fill="none" fill-rule="evenodd"><g><g transform="translate(8 .313)"><rect fill="#47D7FF" x="3" y="10.416" width="113" height="113" rx="17"/><rect fill="#1899D6" transform="rotate(-63 31.5 101.687)" x="24" y="81.687" width="15" height="40" rx="7.5"/><rect fill="#1899D6" transform="rotate(-52 47.076 106.419)" x="39.576" y="83.919" width="15" height="45" rx="7.5"/><path d="M123.643 93.019a7.402 7.402 0 0 0-9.794-3.18l-16.413 8.035a6.939 6.939 0 0 0-3.079 9.482 7.402 7.402 0 0 0 9.794 3.18l16.413-8.035a6.939 6.939 0 0 0 3.079-9.482z" fill="#1899D6"/><path d="M110.364 78.715a8.678 8.678 0 0 0-12.273 0L77.636 99.169a8.678 8.678 0 1 0 12.273 12.273l20.455-20.455a8.678 8.678 0 0 0 0-12.272z" fill="#1899D6"/><rect fill="#1899D6" transform="scale(-1 1) rotate(50 0 38.73)" x="12" y="66.687" width="10" height="17" rx="5"/><path d="M115.999 102.416l.001 4c0 9.388-7.611 17-17 17H20c-9.389 0-17-7.612-17-17l-.001-4h113z" fill="#1899D6"/><rect fill="#2B70C9" transform="rotate(-63 65.218 30.78)" x="61.218" y="-28.221" width="8" height="118" rx="4"/><path d="M80.237 44.037l4.54-8.91a2 2 0 0 1 2.69-.874l34.75 17.706a7 7 0 0 1-6.357 12.474L81.11 46.727a2 2 0 0 1-.873-2.69z" fill="#2B70C9"/><rect fill="#1899D6" transform="rotate(-15 50.276 47.783)" x="45.276" y="39.783" width="10" height="16" rx="5"/><circle fill="#1899D6" cx="11" cy="55.687" r="4"/><circle fill="#1899D6" cx="5" cy="91.416" r="5"/><circle fill="#1899D6" cx="101.5" cy="25.187" r="4.5"/><path d="M34.672 72.798l-3.615-1.515a9.548 9.548 0 0 1-2.616-15.974c.71-.624 1.387-1.21 2.033-1.758a9.253 9.253 0 0 0-4.93-16.247c-1.693-.195-3.319-.39-4.879-.588-6.027-.762-10.295-6.266-9.533-12.293a11 11 0 0 1 .184-1.046l.493-2.178M13 12.687l62 32" stroke="#F7F7F7" stroke-width="4" stroke-linecap="round" stroke-linejoin="round"/><rect fill="#2B70C9" transform="rotate(30 23.232 15.612)" x="21.232" y="9.612" width="4" height="12" rx="2"/><rect fill="#2B70C9" transform="rotate(30 46.163 27.675)" x="44.163" y="21.675" width="4" height="12" rx="2"/><rect fill="#2B70C9" transform="rotate(30 69.913 39.108)" x="67.913" y="32.608" width="4" height="13" rx="2"/><path d="M41.674 70.584L36.382 80.97a4.468 4.468 0 0 0 7.962 4.057l5.292-10.387a4.468 4.468 0 0 0-7.962-4.056zM80.512 65.364l-14.017.785a3.88 3.88 0 0 0-3.66 4.064 3.826 3.826 0 0 0 4.036 3.633l14.017-.785a3.88 3.88 0 0 0 3.66-4.064 3.826 3.826 0 0 0-4.036-3.633z" fill="#FFD900"/><path d="M80.972 72.383l-13.144-4.77a3.868 3.868 0 0 0-4.953 2.31 3.853 3.853 0 0 0 2.305 4.944l13.144 4.769a3.868 3.868 0 0 0 4.953-2.31 3.853 3.853 0 0 0-2.305-4.943zM81.104 90.204l-3.42 6.713 6.581 3.354c5.16 2.628 11.473.577 14.102-4.582l3.42-6.713-6.582-3.353c-5.159-2.63-11.472-.578-14.101 4.581z" fill="#FFD900"/><path d="M74.848 102.483l3.42-6.713 6.582 3.354c5.159 2.629 7.21 8.942 4.581 14.101l-3.42 6.713-6.581-3.354c-5.16-2.628-7.211-8.942-4.582-14.101z" fill="#FFD900"/><path d="M101.803 87.54l-5.238-2.67c-4.645-2.366-10.352-.476-12.746 4.222L79.485 97.6l-3.94 7.734c-2.395 4.698-.57 10.425 4.075 12.792l5.238 2.669" stroke="#FFB100" stroke-width="4.766" stroke-linecap="round" stroke-linejoin="round"/><path d="M48.136 71.962l-6.841 13.425c-2.629 5.16-.577 11.473 4.582 14.102l11 5.604c8.867 4.518 19.717.993 24.234-7.874 4.518-8.866.993-19.717-7.874-24.234l-11-5.605c-5.16-2.629-11.473-.578-14.101 4.582z" fill="#FFB100"/><rect fill="#FFF" transform="scale(-1 1) rotate(63 0 -13.32)" x="48.796" y="72.116" width="14.157" height="11.489" rx="5.744"/><rect fill="#4B4B4B" transform="scale(-1 1) rotate(63 0 -13.32)" x="51.37" y="74.669" width="9.009" height="6.383" rx="3.191"/><path d="M70.066 79.533c2.512 1.28 3.503 4.372 2.212 6.905-1.29 2.533-4.374 3.549-6.887 2.269M65.188 89.106c2.513 1.28 3.503 4.372 2.212 6.905-1.29 2.533-4.374 3.549-6.886 2.269M73.416 87.017c2.512 1.28 3.503 4.372 2.212 6.905-1.29 2.534-4.374 3.55-6.887 2.27" stroke="#FF9600" stroke-width="3.217" stroke-linecap="round" stroke-linejoin="round"/><circle fill="#2B70C9" transform="rotate(9 100.5 58.187)" cx="100.5" cy="58.187" r="11.5"/></g></g></g></svg>