<svg viewBox="0 0 135 124" version="1.1" xmlns="http://www.w3.org/2000/svg" xmlns:xlink="http://www.w3.org/1999/xlink"><defs><rect id="a" x="0" y="0" width="52.407" height="32.063" rx="15.589"/><path d="M1.432.044c.791 0 1.432.64 1.432 1.432v1.762a1.432 1.432 0 0 1-2.864 0V1.476C0 .685.641.044 1.432.044z" id="c"/><path d="M-7.38.044c.79 0 1.431.64 1.431 1.432v1.762a1.432 1.432 0 0 1-2.864 0V1.476c0-.791.641-1.432 1.432-1.432z" id="d"/><path d="M9.143 0h19.609a9.143 9.143 0 0 1 9.143 9.143v20.6a9.143 9.143 0 0 1-9.143 9.143H9.143A9.143 9.143 0 0 1 0 29.743v-20.6A9.143 9.143 0 0 1 9.143 0z" id="f"/><path d="M7.968 7.417c.791 0 1.432.642 1.432 1.433v1.762a1.432 1.432 0 0 1-2.864 0V8.85c0-.791.641-1.433 1.432-1.433z" id="h"/><path d="M8.482 7.417c.791 0 1.432.642 1.432 1.433v1.762a1.432 1.432 0 0 1-2.864 0V8.85c0-.791.641-1.433 1.432-1.433z" id="i"/></defs><g stroke="none" stroke-width="1" fill="none" fill-rule="evenodd"><path d="M30 11h79c9.389 0 17 7.611 17 17v79c0 9.389-7.611 17-17 17H30c-9.389 0-17-7.611-17-17V28c0-9.389 7.611-17 17-17z" fill="#FF4B4B"/><g transform="translate(17)"><path d="M67.786 89.38l20.693 12.93c4.73 2.955 6.168 9.185 3.213 13.915l-8.605 13.77a10.098 10.098 0 0 1-10.182 4.616l-20.889-3.393c-5.504-.894-9.242-6.082-8.348-11.587.108-.665.282-1.317.52-1.947l8.8-23.308c1.97-5.217 7.796-7.85 13.014-5.88.622.235 1.22.53 1.784.883z" fill="#FFB100"/><rect fill="#FFB100" x="11.262" y="106.21" width="20.196" height="20.196" rx="10.098"/><path fill="#FFB100" d="M45.196 120.144h44l-10 23h-33z"/><path fill="#D97509" d="M22.196 120.144h37.212l4 23H31.196z"/><g transform="translate(0 51.479)"><rect fill="#3D3D3D" transform="rotate(90 24.24 29.762)" x="8.818" y="6.598" width="30.845" height="46.327" rx="15.405"/><path d="M26.688 10.085v21.292H6.775V10.085C6.775 4.586 11.233.13 16.73.13c5.5 0 9.957 4.457 9.957 9.956z" fill="#3D3D3D"/><path d="M33.688 12.585v12.792h-8.913V12.585a4.457 4.457 0 0 1 8.913 0z" fill="#3D3D3D"/><g transform="translate(5.949 29.156)"><mask id="b" fill="#fff"><use xlink:href="#a"/></mask><use fill="#FFCBA3" xlink:href="#a"/><rect fill="#C4C4C4" opacity=".689" mask="url(#b)" x="42.336" y="-13.113" width="26.294" height="21.847" rx="5.602"/><rect fill="#C4C4C4" opacity=".689" mask="url(#b)" x="-11.826" y="-10.359" width="26.294" height="21.847" rx="5.602"/></g><path d="M30.834 32.68a5.178 5.178 0 0 1 5.177 5.178v3.195a5.178 5.178 0 0 1-10.355 0v-3.195a5.178 5.178 0 0 1 5.178-5.177z" fill="#E99B5F"/><path d="M30.834 34.554a5.178 5.178 0 0 1 5.177 5.177v3.195a5.178 5.178 0 0 1-10.355 0V39.73a5.178 5.178 0 0 1 5.178-5.177z" fill="#FFF"/><path d="M43.282 32.68a5.178 5.178 0 0 0-5.178 5.178v3.195a5.178 5.178 0 0 0 10.355 0v-3.195a5.178 5.178 0 0 0-5.177-5.177z" fill="#E99B5F"/><path d="M43.282 34.554a5.178 5.178 0 0 0-5.178 5.177v3.195a5.178 5.178 0 0 0 10.355 0V39.73a5.178 5.178 0 0 0-5.177-5.177z" fill="#FFF"/><g transform="translate(40.197 40.906)"><mask fill="#fff"><use xlink:href="#c"/></mask><use fill="#3D3D3D" transform="matrix(-1 0 0 1 2.864 0)" xlink:href="#c"/><mask id="e" fill="#fff"><use xlink:href="#d"/></mask><use fill="#3D3D3D" transform="matrix(-1 0 0 1 -14.761 0)" xlink:href="#d"/><circle fill="#FFF" mask="url(#e)" cx="-.465" cy="-2.607" r="1.873"/></g><rect fill="#FFCBA3" x="20.883" y="43.844" width="18.36" height="18.36" rx="9.18"/><rect fill="#FFCBA3" x="34.653" y="43.844" width="18.36" height="18.36" rx="9.18"/><circle fill="#FFCBA3" cx="64.267" cy="44.523" r="4.572"/><circle fill="#FFCBA3" cx="4.572" cy="44.523" r="4.572"/><circle fill="#C86902" cx="5.067" cy="49.425" r="2.203"/><path d="M39.913 48.612a2.2 2.2 0 0 0 1.319-2.818c-.415-1.14-3.467-3.083-3.467-3.083s-1.09 3.45-.674 4.59a2.2 2.2 0 0 0 2.822 1.31z" fill="#E99B5F"/><path d="M35.47 51.2c-2.19-3.042-4.498-4.458-6.736-4.455-2.242.002-4.516 1.425-6.63 4.48a1.702 1.702 0 0 0-.276 1.278c.079.43.32.83.709 1.099.387.268.847.354 1.277.275.43-.078.83-.32 1.098-.708 1.348-1.947 2.603-3.01 3.831-3.01 1.217 0 2.489 1.037 3.959 3.041.271.378.676.612 1.107.683.431.07.89-.024 1.272-.3.383-.275.617-.68.688-1.111.07-.431-.024-.89-.3-1.272z" stroke="#FFCBA3" stroke-width="1.542" fill="#E99B5F" fill-rule="nonzero"/></g><rect fill="#D97509" transform="rotate(11 53.066 119.968)" x="17.566" y="114.001" width="71" height="11.934" rx="5.967"/><path d="M69.984 142.172l-31.206-18.017 6.467-11.201 31.206 18.017a5.967 5.967 0 0 1 2.184 8.15l-.5.867a5.967 5.967 0 0 1-8.151 2.184z" fill="#FFB100"/><rect fill="#FFCBA3" x="76.44" y="118.472" width="14.688" height="14.688" rx="7.344"/><rect fill="#A56644" x="13.852" y="117.39" width="16.688" height="16.688" rx="8.344"/><rect fill="#A56644" x="34" y="109" width="16.688" height="16.688" rx="8.344"/><rect fill="#A56644" transform="rotate(35 49.387 116.824)" x="46.387" y="110.324" width="6" height="13" rx="3"/><rect fill="#FFCBA3" transform="rotate(69 86.453 120.183)" x="83.453" y="113.683" width="6" height="13" rx="3"/><g><g fill="#3D3D3D"><path d="M82.098 1.685c6.363.222 11.342 5.561 11.12 11.925l-1.01 28.931c-.23 6.57-5.742 11.71-12.312 11.48a11.903 11.903 0 0 1-5.852-1.776l-4.995-3.093c-5.992-3.712-7.841-11.578-4.13-17.57.308-.497.649-.972 1.022-1.422l2.808-17.494A13.059 13.059 0 0 1 82.098 1.685z"/><path d="M60.228 43.302h13.348c7.666 0 13.88 6.214 13.88 13.88v20.24c0 7.665-6.214 13.88-13.88 13.88H59.108c-7.666 0-13.88-6.215-13.88-13.88v-19.12c0-8.285 6.716-15 15-15z"/><path d="M90.963 18.318c5.83 0 10.557 4.726 10.557 10.557V90.09c0 6.753-5.475 12.228-12.228 12.228h-8.886V28.875c0-5.83 4.726-10.557 10.557-10.557z"/><path d="M53.901 45.962a6.35 6.35 0 0 0 11.116-6.143 2.782 2.782 0 0 1 .43-3.274l.138-.134 1.634-1.478A18.263 18.263 0 0 0 71.136 12.9l-.185-.344-2.434-4.404a6.35 6.35 0 0 0-11.227 5.932l.111.21 2.434 4.405a5.563 5.563 0 0 1-.956 6.644l-.18.171-1.635 1.479a15.482 15.482 0 0 0-3.163 18.968zM94.696 88.782a6 6 0 0 1-5.468-6.277l.015-.224.425-4.841a31.911 31.911 0 0 1 7.866-18.331 4.381 4.381 0 0 0 .328-5.377l-.13-.18-1.225-1.605a18.661 18.661 0 0 1 .758-23.573l.255-.288 3.597-3.964a6 6 0 0 1 9.042 7.886l-.155.177-3.596 3.964a6.661 6.661 0 0 0-.52 8.302l.158.216 1.224 1.604a16.38 16.38 0 0 1-.501 20.502l-.24.277a19.911 19.911 0 0 0-4.862 10.985l-.045.453-.425 4.84a6 6 0 0 1-6.5 5.454z" fill-rule="nonzero"/></g><g transform="translate(52.94 68.792)"><circle fill="#A56644" cx="40.006" cy="24.547" r="4.572"/><mask id="g" fill="#fff"><use xlink:href="#f"/></mask><use fill="#A56644" xlink:href="#f"/><path fill="#FFB100" mask="url(#g)" d="M-3.084-2.203h40.649v6.499H-3.084z"/></g><g><g transform="translate(58.888 78.597)"><circle fill="#FFF" cx="6.114" cy="6.114" r="6.114"/><mask fill="#fff"><use xlink:href="#h"/></mask><use fill="#3D3D3D" transform="matrix(-1 0 0 1 15.936 0)" xlink:href="#h"/></g></g><g><g transform="matrix(-1 0 0 1 85.436 78.597)"><circle fill="#FFF" cx="6.114" cy="6.114" r="6.114"/><mask fill="#fff"><use xlink:href="#i"/></mask><use fill="#3D3D3D" transform="matrix(-1 0 0 1 16.965 0)" xlink:href="#i"/></g></g><path d="M81.397 87.152c2.57 0 4.963.754 6.971 2.053 3.54 2.29-18.032 19.522-19.435 13.944a12.879 12.879 0 0 1-.388-3.145c0-7.098 5.754-12.852 12.852-12.852z" fill="#A56644"/><path d="M61.22 88.07c-2.57 0-4.963.754-6.971 2.053-3.54 2.29 18.032 19.522 19.435 13.944.253-1.006.388-2.06.388-3.145 0-7.098-5.754-12.852-12.852-12.852z" fill="#A56644"/><g fill-rule="nonzero"><path d="M76.008 93.544l-4.737 1.361a7.215 7.215 0 0 0-5.223 6.935v1.781a7.215 7.215 0 0 0 7.216 7.216H78a7.215 7.215 0 0 0 7.215-7.216v-3.142a7.215 7.215 0 0 0-9.208-6.935z" fill="#881B1B"/><path d="M78 90.95a9.529 9.529 0 0 1 9.53 9.529v3.142a9.529 9.529 0 0 1-9.53 9.53h-4.736a9.529 9.529 0 0 1-9.53-9.53v-1.781a9.529 9.529 0 0 1 6.898-9.158l4.737-1.362a9.529 9.529 0 0 1 2.25-.363l.382-.007zm0 2.313c-.674 0-1.344.095-1.992.28l-4.737 1.362a7.215 7.215 0 0 0-5.223 6.935v1.781a7.215 7.215 0 0 0 7.216 7.216H78a7.215 7.215 0 0 0 7.215-7.216v-3.142a7.215 7.215 0 0 0-7.215-7.216z" fill="#A56644"/><path d="M78 93.263c-.674 0-1.344.095-1.992.28l-4.737 1.362a7.2 7.2 0 0 0-2.754 1.5h11.65c.76 0 1.377-.616 1.377-1.376l.002-.836a7.183 7.183 0 0 0-3.545-.93z" fill="#FFF"/><path d="M72.387 101.877a3.91 3.91 0 0 0 2.555 7.39l.102-.036.01.064c.047.341.075.75.081 1.224l.001.291.002.026H78a7.19 7.19 0 0 0 4.867-1.888c-.63-6.09-4.564-9.29-10.481-7.071z" fill="#B12E2E"/></g><g transform="translate(66.856 85.977)" fill="#87401A"><rect x="0" y="3.121" width="6.499" height="3.966" rx="1.983"/><path d="M4.467.949l1.787 4.454-4.99-.88z"/></g></g></g><path d="M53.991 48.392a4.08 4.08 0 0 1 3.31 4.726l-.048.269a4.08 4.08 0 1 1-8.035-1.417l.047-.269a4.08 4.08 0 0 1 4.726-3.31zm10.357-30.228a1.05 1.05 0 0 1 .827 1.325l-7.369 25.467a1.05 1.05 0 0 1-1.19.742l-4.17-.735a1.05 1.05 0 0 1-.865-1.104l1.787-26.452a1.05 1.05 0 0 1 1.23-.963l9.75 1.72zM41.207 38.355a4.08 4.08 0 0 1 4.783 3.226l.053.268a4.08 4.08 0 1 1-8.01 1.557l-.052-.268a4.08 4.08 0 0 1 3.226-4.783zM40.044 6.423a1.05 1.05 0 0 1 1.246.942l2.248 26.415a1.05 1.05 0 0 1-.846 1.12l-4.156.808a1.05 1.05 0 0 1-1.203-.721L29.52 9.652a1.05 1.05 0 0 1 .803-1.34l9.72-1.89z" fill="#FFF"/></g></svg>