<svg viewBox="0 0 135 124" fill="none" xmlns="http://www.w3.org/2000/svg"><g clip-path="url(#clip0)"><path fill-rule="evenodd" clip-rule="evenodd" d="M28 11h79c9.389 0 17 7.611 17 17v79c0 9.389-7.611 17-17 17H28c-9.389 0-17-7.611-17-17V28c0-9.389 7.611-17 17-17z" fill="#FFCA00"/><path d="M124 69.37V28c0-2.518-.548-4.908-1.53-7.058L20.92 122.403a16.938 16.938 0 0 0 7.08 1.56h41.32L124 69.369zM58.637 11H107c.521 0 1.036.023 1.545.07L50.32 69.022l.02.02C43.436 75.947 41.904 62.903 35 56c-6.904-6.904-16.564-5.053-9.66-11.957L58.637 11z" fill="#FFD900"/><path d="M78.77 29.75h.002a5.958 5.958 0 0 1 6.342-5.407l28.004 1.925a5.956 5.956 0 0 1 5.542 6.223h.002l-1.882 27.38a2.061 2.061 0 0 0 1.915 2.197l4.039.278a.86.86 0 0 1 .798.916 8.403 8.403 0 0 1-8.96 7.807l-37.029-2.546a8.403 8.403 0 0 1-7.807-8.959.859.859 0 0 1 .916-.798l4.038.278a2.062 2.062 0 0 0 2.199-1.916L78.77 29.75z" fill="#FF9600"/><path d="M81.717 30.733l33.891 2.33-2.324 33.818-33.892-2.33 2.325-33.818z" fill="#FFBB31"/><path d="M79.056 45.824a3.749 3.749 0 1 0 .515-7.48 3.749 3.749 0 0 0-.515 7.48zM116.179 48.375a3.75 3.75 0 1 0 .515-7.48 3.75 3.75 0 0 0-.515 7.48z" fill="#FFBB31"/><path d="M77.689 65.04a1.03 1.03 0 0 1 1.099-.957l35.159 2.417c.568.039.996.531.957 1.099l-.239 3.484a1.03 1.03 0 0 1-1.099.958l-35.16-2.417a1.03 1.03 0 0 1-.957-1.1l.24-3.483z" fill="#E27800"/><path d="M78.183 38.51a3.749 3.749 0 0 1 4.576 2.086 4.178 4.178 0 0 0 1.705-3.094l.36-5.236-6.183-.425-.458 6.669zM113.232 42.695a3.749 3.749 0 0 1 4.813-1.449l.458-6.665-6.182-.425-.36 5.236a4.177 4.177 0 0 0 1.271 3.303z" fill="#FF9600"/><path d="M94.478 65.732a.742.742 0 0 1 .759-.518l2.26.155a.742.742 0 0 1 .681.617l1.062 6.286a.742.742 0 0 1-.783.864l-5.234-.36a.742.742 0 0 1-.657-.962l1.912-6.082z" fill="#FFF1A2"/><path d="M97.853 43.672c.09.006.793 1.313 1.506 2.682.709 1.362-.354 2.964-1.886 2.859-1.533-.106-2.367-1.838-1.478-3.09.894-1.26 1.77-2.457 1.858-2.451z" fill="#FFA403"/><path d="M88.457 41.83a4.365 4.365 0 0 0 8.707.599l-8.707-.599zM98.706 42.535a4.364 4.364 0 0 0 8.707.598l-8.707-.598z" fill="#FFF1A2"/><path d="M91.999 42.074a1.99 1.99 0 0 0 3.965.272L92 42.074zM99.848 42.613a1.99 1.99 0 0 0 3.966.273l-3.966-.273z" fill="#E27800"/><path fill-rule="evenodd" clip-rule="evenodd" d="M109.491 48.611a.688.688 0 0 1-.244.941C99 55.581 89.318 50.985 85.741 47.921a.687.687 0 1 1 .894-1.044c3.308 2.833 12.349 7.119 21.915 1.49a.688.688 0 0 1 .941.244z" fill="#FF9600"/><path fill-rule="evenodd" clip-rule="evenodd" d="M102.868 53.398c.21.192.224.518.032.728-2.82 3.078-6.529 2.715-8.059 2.136a.515.515 0 1 1 .365-.965c1.273.482 4.487.804 6.934-1.868a.515.515 0 0 1 .728-.032z" fill="#FFAC03"/><path fill-rule="evenodd" clip-rule="evenodd" d="M78.16 23.165l42.008 2.888c.717.05 1.26.631 1.214 1.3l-.755 10.987c-.046.669-.664 1.17-1.38 1.122l-42.01-2.888c-.716-.05-1.26-.631-1.213-1.3l.755-10.988c.046-.668.664-1.17 1.38-1.12z" fill="#E27800"/><path d="M113.06 2.546L83.13 8.4a9.922 9.922 0 0 0-6.7 4.783 8.603 8.603 0 0 0-.181 17.174l44.999 3.093a8.602 8.602 0 0 0 2.725-16.915 9.9 9.9 0 0 0 .757-6.138c-1.054-5.39-6.279-8.906-11.67-7.851z" fill="#FFF1A2"/><path fill-rule="evenodd" clip-rule="evenodd" d="M109.625 37.896c-.683-1.908-2.31-3.469-4.418-4.154a7.221 7.221 0 0 0-3.455-.262 1.694 1.694 0 0 0 .575 3.34 3.833 3.833 0 0 1 1.832.145c1.174.382 1.967 1.215 2.274 2.072a1.694 1.694 0 1 0 3.192-1.14zM87.033 32.423c.937-1.797 2.762-3.12 4.944-3.511a7.22 7.22 0 0 1 3.458.214 1.695 1.695 0 0 1-1.026 3.23 3.832 3.832 0 0 0-1.835-.108c-1.215.218-2.115.934-2.536 1.742a1.695 1.695 0 0 1-3.005-1.567z" fill="#FFB100"/><path fill-rule="evenodd" clip-rule="evenodd" d="M11.133 33.523a6.911 6.911 0 0 1 8.537 4.76l2.346 8.255a6.911 6.911 0 0 1-13.297 3.778l-2.346-8.255a6.911 6.911 0 0 1 4.76-8.538z" fill="#FFBB31"/><path fill-rule="evenodd" clip-rule="evenodd" d="M12.376 29.321c.153-.044.396.04.474.312l3.39 11.933a1.728 1.728 0 0 0 3.325-.944l-3.391-11.933c-.574-2.02-2.666-3.282-4.742-2.692-2.076.59-3.193 2.763-2.619 4.783a1.728 1.728 0 1 0 3.324-.945c-.077-.272.086-.47.24-.514z" fill="#FF9600"/><path fill-rule="evenodd" clip-rule="evenodd" d="M19.443 31.162a6.911 6.911 0 0 1 8.537 4.76l2.346 8.255a6.911 6.911 0 0 1-13.296 3.778L14.684 39.7a6.911 6.911 0 0 1 4.759-8.537z" fill="#FFBB31"/><path d="M11.883 42.035a2.592 2.592 0 1 0-1.417-4.986 2.592 2.592 0 0 0 1.417 4.986z" fill="#FFD900"/><path fill-rule="evenodd" clip-rule="evenodd" d="M30.213 9.972l-.535 1.465a.682.682 0 0 1-1.17.196l-1.227-1.513-1.92.345a.682.682 0 0 1-.757-.915l.701-1.821-1.254-1.49a.682.682 0 0 1 .413-1.113l1.934-.312.672-1.841a.682.682 0 0 1 1.17-.196l1.227 1.513 1.92-.345a.682.682 0 0 1 .757.915l-.701 1.821 1.254 1.49a.682.682 0 0 1-.413 1.113l-1.54.248a.682.682 0 0 0-.531.44z" fill="#FFBB31"/><path d="M33.627 5.965l-.753.127a8.053 8.053 0 0 0-4.356 2.236 8.053 8.053 0 0 0-4.849-.684l-.752.126a8.09 8.09 0 0 0 2.689 15.956l10.924-1.842v-.003a8.09 8.09 0 0 0-2.904-15.916z" fill="#FF9600"/><path d="M22.796 17.117a2.988 2.988 0 0 0 2.458-3.436 2.988 2.988 0 0 0-3.448-2.442 2.988 2.988 0 0 0-2.459 3.437 2.988 2.988 0 0 0 3.45 2.441z" fill="#FFBB31"/><path fill-rule="evenodd" clip-rule="evenodd" d="M55.669 16.844c.114.584 3.536 2.905 6.398 2.348 2.862-.556 5.178-3.925 5.052-4.574-.126-.65-3.514-2.91-6.398-2.349-2.883.56-5.165 3.99-5.052 4.575z" fill="#FFBB31"/><path fill-rule="evenodd" clip-rule="evenodd" d="M56.45 17.301c-.486.303-4.35-.561-5.823-2.92-1.473-2.357-.61-6.175-.071-6.512.539-.337 4.338.544 5.822 2.92 1.484 2.375.556 6.209.071 6.512z" fill="#FFBB31"/><path fill-rule="evenodd" clip-rule="evenodd" d="M56.035 17.272c.607.27 4.945-1.436 6.297-4.472 1.351-3.035-.217-7.371-.89-7.671-.674-.3-4.935 1.414-6.297 4.472-1.361 3.058.284 7.4.89 7.67z" fill="#FFBB31"/><path d="M45.825 47.412l16.28-21.243a4.774 4.774 0 0 0-1.924-7.299l-8.26-3.506a4.774 4.774 0 0 0-6.577 3.626l-4.301 26.356a2.686 2.686 0 0 0 4.782 2.066z" fill="#FF9600"/><path d="M42.997 33.37l4.254 2.155a1.628 1.628 0 1 0 1.47-2.904L43.548 30l-.55 3.37zM43.842 28.193l6.587 3.092a1.627 1.627 0 1 0 1.383-2.946l-7.424-3.486-.546 3.34zM62.383 25.766l-8.665-4.068a1.628 1.628 0 0 0-1.383 2.946l8.044 3.777 1.726-2.252c.1-.13.193-.265.278-.403zM51.353 40.199l-3.491-1.716a1.628 1.628 0 0 0-1.436 2.922l2.908 1.428 2.019-2.634z" fill="#E27800"/><path fill-rule="evenodd" clip-rule="evenodd" d="M97.99 87.383l13.637-23.62a1.978 1.978 0 0 1 2.702-.725l.039.023a1.979 1.979 0 0 1 .724 2.702l-13.638 23.62a1.978 1.978 0 0 1-2.702.725l-.039-.022a1.978 1.978 0 0 1-.724-2.703z" fill="#F89700"/><path fill-rule="evenodd" clip-rule="evenodd" d="M66 51.05a7 7 0 1 0 0-14 7 7 0 0 0 0 14zM85 91.05a8 8 0 1 0 0-16 8 8 0 0 0 0 16zM70.5 80.05a5.5 5.5 0 1 0 0-11 5.5 5.5 0 0 0 0 11z" fill="#FFF1A2"/><path d="M64.003 60.051a3.002 3.002 0 1 0-3.003-3 3.002 3.002 0 0 0 3.003 3zM98.955 88.716a4.403 4.403 0 0 0 4.404-4.401 4.403 4.403 0 0 0-4.404-4.401 4.403 4.403 0 0 0-4.405 4.401 4.403 4.403 0 0 0 4.405 4.401z" fill="#FFF1A2"/><path fill-rule="evenodd" clip-rule="evenodd" d="M69.596 84.278h41.576c.542 0 .982.44.982.982v23.923a6.866 6.866 0 0 1-6.867 6.866H75.481a6.866 6.866 0 0 1-6.867-6.866V85.26c0-.542.44-.982.982-.982z" fill="#F89700"/><path d="M112.154 86.133h-43.54v3.98h43.54v-3.98z" fill="#E27800"/><path fill-rule="evenodd" clip-rule="evenodd" d="M69.08 83.798h42.884a1.989 1.989 0 0 1 0 3.98H69.08a1.99 1.99 0 1 1 0-3.98zM65.592 90.076h49.417a2.592 2.592 0 1 1 0 5.184H65.592a2.592 2.592 0 0 1 0-5.184z" fill="#F89700"/><path opacity=".152" fill-rule="evenodd" clip-rule="evenodd" d="M77.075 89.857h6.662c.632 0 1.145.512 1.145 1.144v14.933a2.747 2.747 0 0 1-2.747 2.746h-3.458a2.747 2.747 0 0 1-2.747-2.746V91.001c0-.632.512-1.144 1.145-1.144z" fill="#FFFCFC"/><path opacity=".152" d="M81.906 83.582h-4.99a1.981 1.981 0 1 0 0 3.963h4.99a1.981 1.981 0 0 0 0-3.963z" fill="#FFFCFC"/><path d="M58.706 72.951c1.413 11.972-7.147 22.823-19.118 24.236-11.972 1.412-22.823-7.147-24.235-19.12C13.94 66.097 22.5 55.246 34.47 53.834 46.444 52.42 57.294 60.98 58.707 72.95z" fill="#F08904"/><path d="M29.615 73.042l1.34 1.646L49.451 57.56a21.926 21.926 0 0 0-1.867-1.158l-17.969 16.64z" fill="#E27903"/><path d="M22.947 79.221l6.545-6.061 6.546-6.061L51.59 75.84l2.472 20.952-28.643 3.38-2.473-20.952z" fill="#FFBB31"/><path d="M18.445 104.947c-.808-6.853 4.091-13.064 10.944-13.873l18.696-2.206c6.853-.809 13.064 4.091 13.872 10.944.81 6.853-4.09 13.064-10.944 13.873l-18.695 2.206c-6.853.809-13.064-4.091-13.873-10.944z" fill="#F08904"/><path d="M42.483 89.78a3.743 3.743 0 1 1-7.434.878 3.743 3.743 0 0 1 7.434-.877z" fill="#FFBB31"/><path d="M26.45 82.247a5.051 5.051 0 1 1 10.033-1.184l.403 3.412a5.051 5.051 0 1 1-10.033 1.184l-.403-3.412zM48.889 79.599a5.051 5.051 0 1 0-10.033 1.184l.403 3.412a5.051 5.051 0 0 0 10.033-1.184l-.403-3.412z" fill="#FFF1A2"/><path d="M30.716 82.367a2.092 2.092 0 0 0 1.74-2.738 2.333 2.333 0 0 1 2.864 1.992l.343 2.906a2.33 2.33 0 0 1-4.628.546l-.32-2.706zM40.14 81.255a2.092 2.092 0 0 0 1.74-2.738 2.333 2.333 0 0 1 2.864 1.991l.343 2.907a2.33 2.33 0 0 1-4.628.546l-.32-2.706z" fill="#E27903"/><path d="M50.052 65.38l2.142 2.871c.952 1.276.166 3.103-1.415 3.29-1.58.187-2.77-1.408-2.142-2.87l1.415-3.29z" fill="#FFBB31"/><path fill-rule="evenodd" clip-rule="evenodd" d="M31.304 69.575c-3.263-.15-4.87 2.424-5.262 3.788a1.103 1.103 0 1 1-2.121-.609c.53-1.845 2.759-5.6 7.483-5.384a1.103 1.103 0 1 1-.1 2.205zM49.39 74.975c-3.1 1.031-5.347-1.007-6.095-2.213a1.103 1.103 0 1 0-1.876 1.163c1.012 1.632 4.18 4.637 8.667 3.143a1.103 1.103 0 0 0-.697-2.093zM49.333 105.581a3.917 3.917 0 0 0-5.502.649 1.046 1.046 0 1 1-1.642-1.296 6.009 6.009 0 0 1 8.44-.996 1.046 1.046 0 1 1-1.296 1.643z" fill="#E27903"/></g><defs><clipPath id="clip0"><path fill="#fff" d="M0 0h135v124H0z"/></clipPath></defs></svg>