<svg viewBox="0 0 135 124" fill="none" xmlns="http://www.w3.org/2000/svg"><g clip-path="url(#clip0)"><rect x="11" y="11" width="113" height="113" rx="17" fill="#FFCA00"/><path d="M122.278 20.93L20.758 122.45a16.937 16.937 0 0 0 7.08 1.56h41.32l54.68-54.68V28.01a16.938 16.938 0 0 0-1.56-7.08zm-72.12 48.14l58-58c-.43 0-.87-.07-1.31-.07h-48.59l-33.08 33.09c-6.904 6.904-6.904 18.096 0 25 6.903 6.904 18.096 6.904 25 0l-.02-.02z" fill="#FFD900"/><path d="M44.897 8.17l2.538 5.874c.837 1.938 2.917 2.985 4.916 2.617l7.886 21.363a2.374 2.374 0 0 0 3.168 1.355c1.253-.54 1.816-2.022 1.185-3.236L54.4 15.67a4.444 4.444 0 0 0 1.205-5.156l-2.538-5.875a4.436 4.436 0 0 0-5.85-2.32 4.436 4.436 0 0 0-2.32 5.85z" fill="#FFB100"/><path d="M53.246 16.274a4.436 4.436 0 0 1-5.85-2.32L44.884 8.14a4.436 4.436 0 0 1 2.32-5.85 4.436 4.436 0 0 1 5.85 2.32l2.512 5.815a4.436 4.436 0 0 1-2.32 5.85z" fill="#FFB100"/><path d="M47.565 3.124a3.584 3.584 0 0 0-1.863 4.697l1.327 3.072a3.584 3.584 0 0 1 1.863-4.698 3.584 3.584 0 0 1 4.697 1.863l-1.327-3.071a3.563 3.563 0 0 0-4.697-1.863z" fill="#F68B00"/><path d="M39.14 87.36c13.966-6.034 20.396-22.248 14.362-36.214-6.034-13.967-22.247-20.397-36.214-14.363C3.322 42.817-3.108 59.031 2.926 72.997 8.96 86.963 25.173 93.394 39.14 87.36z" fill="#FFF1A2"/><path d="M12.121 69.024c-3.837-8.882.278-19.258 9.16-23.095 8.882-3.838 19.258.277 23.095 9.16 3.838 8.882-.277 19.257-9.16 23.095-8.882 3.837-19.257-.278-23.095-9.16z" fill="#FFF1A2"/><path d="M22.902 49.776c8.255-3.567 17.741-.267 22.128 7.304-.201-.657-.437-1.3-.723-1.961-3.838-8.883-14.213-12.997-23.095-9.16-8.882 3.838-12.997 14.213-9.16 23.095.271.627.592 1.274.932 1.87-2.45-8.447 1.698-17.597 9.918-21.148zM16.978 26.067a9.61 9.61 0 0 0 11.782 6.802c5.12-1.372 8.175-6.662 6.803-11.782l-2.175-8.117a9.61 9.61 0 0 0-11.782-6.802c-5.12 1.372-8.175 6.662-6.803 11.782l2.175 8.117z" fill="#FFB100"/><path d="M33.714 21.013c1.118 4.172-1.381 8.5-5.553 9.618-4.172 1.118-8.5-1.38-9.618-5.553l-.813-3.034 15.17-4.065.814 3.034z" fill="#F68B00"/><path d="M21.596 6.13a9.61 9.61 0 0 0-6.803 11.782c1.373 5.12 6.663 8.174 11.783 6.802 5.12-1.372 8.174-6.662 6.802-11.782A9.61 9.61 0 0 0 21.596 6.13zm4.533 16.916c-4.21 1.128-8.5-1.381-9.619-5.553-1.117-4.172 1.343-8.49 5.553-9.619 4.21-1.128 8.5 1.381 9.619 5.553 1.118 4.172-1.343 8.49-5.553 9.619z" fill="#FFF1A2"/><path d="M31.913 16.414c-.396 3.074-2.599 5.778-5.785 6.632a7.818 7.818 0 0 1-8.287-2.861c.396-3.074 2.56-5.768 5.747-6.621a7.854 7.854 0 0 1 8.325 2.85z" fill="#FFD900"/><path d="M43.415 16.697L56.72 40.518l-2.172 3.706-4.032-8.017a2.176 2.176 0 0 1-2.96-.839l-8.935-15.994c-.364-.652-.457-1.419-.241-2.098a2.806 2.806 0 0 1 1.305-1.66 2.722 2.722 0 0 1 3.34.517c.139.183.278.365.389.564z" fill="#FFB100"/><path d="M52.563 36.404a2.142 2.142 0 0 1 2.917.826l6.494 11.628a2.502 2.502 0 0 1-4.367 2.439l-.159-.283a49.551 49.551 0 0 1-1.74-3.382l-4.007-8.44c-.526-1.008-.131-2.233.861-2.788z" fill="#F68B00"/><path d="M54.051 39.07a.747.747 0 1 0-.729-1.305.747.747 0 0 0 .73 1.305zM59.905 50.349a.747.747 0 1 0-.729-1.305.747.747 0 0 0 .729 1.305z" fill="#FFB100"/><path d="M43.415 16.697l3.897 6.976-1.815 8.009-4.277-7.657 1.79-7.92c.155.21.294.393.405.592z" fill="#FFF1A2"/><path d="M78.794 30.843c2.135 0 4.13.596 5.83 1.63a4.756 4.756 0 0 0 6.47-1.868c3.002-5.777 9.041-9.724 16.002-9.724 9.953 0 18.021 8.069 18.021 18.021 0 9.953-8.068 18.021-18.021 18.021l-28.302-3.622c-6.202 0-11.23-5.027-11.23-11.23 0-6.2 5.028-11.228 11.23-11.228z" fill="#FFB100"/><path d="M68.03 49.593h.003a8.436 8.436 0 0 1 8.434-8.254h39.749a8.436 8.436 0 0 1 8.434 8.254h.002v38.86a2.92 2.92 0 0 0 2.919 2.92h5.732c.672 0 1.217.545 1.217 1.216 0 6.572-5.328 11.899-11.899 11.899h-52.56c-6.57 0-11.898-5.327-11.898-11.898 0-.672.545-1.217 1.217-1.217h5.732a2.92 2.92 0 0 0 2.919-2.92v-38.86z" fill="#FFB100"/><path d="M120.808 98.598V49.771H71.875v48.827h48.933z" fill="#FFD900"/><path d="M69.542 71.719a5.4 5.4 0 1 0 0-10.8 5.4 5.4 0 0 0 0 10.8zM123.141 71.719a5.4 5.4 0 1 0 0-10.8 5.4 5.4 0 0 0 0 10.8z" fill="#FFD900"/><path d="M67.564 61.408a5.607 5.607 0 0 1 1.983-.36c2.089 0 3.9 1.134 4.799 2.792 1.312-1.057 2.145-2.64 2.145-4.408V48.473h-8.927v12.935zM118.344 63.847c.897-1.662 2.711-2.798 4.802-2.798.696 0 1.36.125 1.971.354v-12.93h-8.926v10.959c0 1.772.836 3.357 2.153 4.415z" fill="#FFB100"/><path d="M97.454 61.143a6.286 6.286 0 1 1 12.573 0v3.824a6.287 6.287 0 0 1-12.573 0v-3.824zM82.655 61.143a6.287 6.287 0 1 1 12.573 0v3.824a6.287 6.287 0 1 1-12.573 0v-3.824z" fill="#FFF1A2"/><path fill-rule="evenodd" clip-rule="evenodd" d="M105.46 54.952a6.542 6.542 0 0 1 3.332 2.368 6.54 6.54 0 0 1 1.285 3.88 2.7 2.7 0 0 1-5.4.014 1.149 1.149 0 0 0-.228-.685 1.146 1.146 0 0 0-.588-.42 2.7 2.7 0 1 1 1.599-5.157zM90.63 54.952c1.29.4 2.471 1.202 3.333 2.368a6.546 6.546 0 0 1 1.284 3.88 2.7 2.7 0 0 1-5.4.014c0-.239-.073-.475-.228-.685a1.146 1.146 0 0 0-.588-.42 2.7 2.7 0 1 1 1.6-5.157z" fill="#F68B00"/><path fill="#FFD900" d="M78.175 53.31h18.166v4.447H78.175z"/><path fill-rule="evenodd" clip-rule="evenodd" d="M110.923 83.944a.743.743 0 0 1 .118 1.043c-3.747 4.702-9.113 4.546-11.37 3.865a.742.742 0 1 1 .43-1.421c1.877.566 6.527.71 9.779-3.37a.742.742 0 0 1 1.043-.118z" fill="#FFB100"/><path fill="#FFAE00" d="M67.564 41.593h10.78v8.178h-10.78zM114.337 39.075h10.78v10.696h-10.78z"/><path d="M98.878 106.571c-1.127 1.953-3.946 1.953-5.073 0l-4.783-8.284h14.639l-4.783 8.284z" fill="#F68B00"/><path d="M94.519 106.715c.643-1.666 3-1.666 3.643 0L104.84 124h-17l6.679-17.285z" fill="#F68B00"/><path d="M69.475 99.938c0-1.08.874-1.953 1.952-1.953H96.34a8 8 0 0 1-8 7.999H71.428a1.952 1.952 0 0 1-1.953-1.952v-4.094zM123.207 99.938a1.952 1.952 0 0 0-1.952-1.953H96.341a8 8 0 0 0 8 7.999h16.914a1.952 1.952 0 0 0 1.952-1.952v-4.094z" fill="#FFF1A2"/><path d="M65.946 47.728c0-.82.665-1.485 1.485-1.485h57.819c.82 0 1.485.665 1.485 1.485v4.097c0 .82-.665 1.485-1.485 1.485H67.431c-.82 0-1.485-.665-1.485-1.485v-4.097z" fill="#F68B00"/><path d="M76.367 50.578l2.742 4.749c1.218 2.11-.305 4.748-2.742 4.748s-3.96-2.638-2.742-4.748l2.742-4.749z" fill="#FFF1A2"/><ellipse cx="107.118" cy="74.185" rx="11.889" ry="7.924" fill="#FFD900"/><path d="M96.341 66.77c.13 0 1.268 1.808 2.428 3.705 1.154 1.888-.215 4.295-2.428 4.295s-3.582-2.407-2.428-4.295c1.16-1.897 2.3-3.705 2.428-3.705z" fill="#FFB100"/><path d="M96.287 80.454a3.693 3.693 0 0 1 3.137-4.176l6.946-.988a3.693 3.693 0 0 1 4.177 3.136 2.043 2.043 0 0 1-1.735 2.31L98.598 82.19a2.043 2.043 0 0 1-2.31-1.735z" fill="#F68B00"/><path d="M40.38 93.334l-.01 4.531 2.281.005.01-4.532-2.281-.004z" fill="#FFD900"/><path fill-rule="evenodd" clip-rule="evenodd" d="M39.884 95.75h3.254a.764.764 0 1 1 0 1.53h-3.254a.764.764 0 0 1 0-1.53zM37.713 83.37h7.595c.346 0 .638.258.68.601l.555 4.557a4.602 4.602 0 0 1-4.568 5.16h-.929a4.602 4.602 0 0 1-4.568-5.16l.556-4.557a.684.684 0 0 1 .68-.601z" fill="#FFD900"/><path fill-rule="evenodd" clip-rule="evenodd" d="M44.694 86.996l.207 1.828a3.402 3.402 0 1 1-6.762 0l.207-1.828h6.348z" fill="#FFB100"/><path d="M28.485 78.882a5.466 5.466 0 0 1 5.465 5.465v11.85c0 .907-.735 1.642-1.642 1.642h-7.646a1.642 1.642 0 0 1-1.642-1.642v-11.85a5.466 5.466 0 0 1 5.465-5.465z" fill="#F68B00"/><path fill-rule="evenodd" clip-rule="evenodd" d="M26.864 84.822h5.09c.418 0 .757.339.757.757v8.115a.757.757 0 0 1-.757.757h-5.09a.757.757 0 0 1-.757-.757V85.58c0-.418.34-.757.757-.757z" fill="#FFD900"/><path d="M27.474 73.129h2.048c.378 0 .684.306.684.684v6.885a.684.684 0 0 1-.684.685h-2.048a.684.684 0 0 1-.684-.685v-6.885c0-.378.306-.684.684-.684z" fill="#F68B00"/><path d="M26.868 72.44h3.26a.761.761 0 0 1 0 1.523h-3.26a.761.761 0 1 1 0-1.522z" fill="#FFD900"/><path d="M37.339 106.287c-.095 3.159.132 5.479.626 6.894.184.529.38.859.549 1.018.061.058.084.068.166.072a2.464 2.464 0 0 1-.27 4.919c-4.603-.253-6.24-4.943-5.995-13.051a2.463 2.463 0 1 1 4.924.148z" fill="#FFB100"/><path d="M39.244 119.213a3.084 3.084 0 0 0 3.075-3.095c0-1.709-1.377-3.095-3.075-3.095-1.698 0-3.074 1.386-3.074 3.095a3.084 3.084 0 0 0 3.074 3.095zM30.363 119.213a3.084 3.084 0 0 0 3.074-3.095c0-1.709-1.376-3.095-3.074-3.095s-3.074 1.386-3.074 3.095a3.084 3.084 0 0 0 3.074 3.095z" fill="#FFB100"/><path d="M32.37 106.287c.095 3.159-.132 5.479-.626 6.894-.184.529-.38.859-.549 1.018-.061.058-.084.068-.166.072a2.464 2.464 0 0 0 .27 4.919c4.603-.253 6.24-4.943 5.995-13.051a2.463 2.463 0 1 0-4.924.148z" fill="#FFB100"/><path d="M37.258 108.459v-9.59h-4.927v9.59h4.927z" fill="#F68B00"/><path fill-rule="evenodd" clip-rule="evenodd" d="M15.947 97.84H54.19a2.44 2.44 0 1 1 0 4.88H15.948a2.44 2.44 0 1 1 0-4.88z" fill="#FFB100"/><path fill-rule="evenodd" clip-rule="evenodd" d="M20.837 97.28h28.215a.38.38 0 0 1 .18.714l-13.927 7.498a.761.761 0 0 1-.721 0l-13.927-7.498a.38.38 0 0 1 .18-.715z" fill="#FFF1A2"/></g><defs><clipPath id="clip0"><path fill="#fff" d="M0 0h135v124H0z"/></clipPath></defs></svg>