<svg viewBox="0 0 135 124" fill="none" xmlns="http://www.w3.org/2000/svg"><g clip-path="url(#clip0)"><path fill-rule="evenodd" clip-rule="evenodd" d="M28 11h79c9.389 0 17 7.611 17 17v79c0 9.389-7.611 17-17 17H28c-9.389 0-17-7.611-17-17V28c0-9.389 7.611-17 17-17z" fill="#E27800"/><path d="M44.524 23.364a5.84 5.84 0 0 0 8.678 3.537l.115-.07a5.288 5.288 0 0 1 7.97 3.768l.694 4.806" stroke="#E27800" stroke-width="2"/><path d="M106.106 94.348L53.38 111.48a2.97 2.97 0 0 0-1.907 3.742l.918 2.825a2.97 2.97 0 0 0 3.742 1.907l52.727-17.132a2.971 2.971 0 0 0 1.907-3.743l-.918-2.824a2.97 2.97 0 0 0-3.743-1.907zM124.646 48.335l-4.45 11.015a2.97 2.97 0 0 0 1.641 3.866l2.754 1.113a2.97 2.97 0 0 0 3.866-1.641l4.451-11.015a2.97 2.97 0 0 0-1.642-3.867l-2.753-1.112a2.97 2.97 0 0 0-3.867 1.64zM20.965 91.592L10.89 85.296a2.97 2.97 0 0 0-4.093.945l-1.574 2.52a2.97 2.97 0 0 0 .945 4.092l10.075 6.295a2.97 2.97 0 0 0 4.093-.945l1.574-2.519a2.97 2.97 0 0 0-.945-4.092z" fill="#FFCA00"/><path fill-rule="evenodd" clip-rule="evenodd" d="M76.061 19.578c.801.126 1.6.344 2.385.66A26.79 26.79 0 0 1 81.82 21.6l42.535 17.187a7.92 7.92 0 0 1 4.376 10.31l-4.821 11.933a7.92 7.92 0 0 1-10.31 4.376l-10.263-4.146 9.072 27.919a5.94 5.94 0 0 1-3.814 7.485l-56.493 18.355a5.94 5.94 0 0 1-7.484-3.813L35.589 83.42l-5.75 9.2a7.92 7.92 0 0 1-10.913 2.52L8.012 88.32a7.92 7.92 0 0 1-2.52-10.913l23.606-37.78a26.872 26.872 0 0 1 2.897-4.73c.762-.995 3.902-1.561 4.079-1.419 5.789 4.67 13.748 6.414 21.349 3.944 8.006-2.6 13.585-9.217 15.234-16.894.042-.195.278-.259.709-.193a1.98 1.98 0 0 0 1.633-.492c.298-.27.651-.358 1.062-.265z" fill="#FFB100"/><path fill-rule="evenodd" clip-rule="evenodd" d="M74.746 19.328c.53.087.968.17 1.315.25.801.125 1.601.343 2.385.66l.27.091c-1.69 9.817-8.63 18.39-18.761 21.682l-.942.306c-10.063 3.27-20.642.473-27.778-6.374.553-.8 1.443-1.879 2.672-3.234a.99.99 0 0 1 1.282-.159c7.433 4.955 15.057 6.163 22.87 3.624 7.524-2.445 12.342-7.58 14.454-15.408a1.98 1.98 0 0 1 2.233-1.438zM52.422 70.603l.296.046 16.98 3.017L81.66 61.245a7.5 7.5 0 0 1 6.419-2.228l.296.046 15.121 2.688 3.82 11.76a5.506 5.506 0 0 1-.768-.05l-.23-.036-18.031-3.205-11.962 12.422a7.5 7.5 0 0 1-6.419 2.228l-.296-.046-16.98-3.018-12.703 13.19a5.55 5.55 0 0 1-.444.414l-3.841-11.823.023-.022L46.004 72.83a7.5 7.5 0 0 1 6.418-2.228z" fill="#FFCA00"/><path fill-rule="evenodd" clip-rule="evenodd" d="M54.493 80.68l.26.04 18.291 3.25 12.89-13.382a5 5 0 0 1 4.217-1.494l.26.04 16.433 2.92 2.101 6.467-19.06-3.388-12.888 13.384a5 5 0 0 1-4.217 1.493l-.26-.039-18.293-3.252-13.135 13.64-2.101-6.467 11.285-11.718a5 5 0 0 1 4.217-1.494zM31.428 3.513l-6.524 7.246a3.125 3.125 0 0 0 .231 4.413l10.479 9.436a3.125 3.125 0 0 0 2.634.755l6.092-1.074a3.125 3.125 0 0 0 2.575-2.86l.431-6.171a3.125 3.125 0 0 0-1.026-2.54L35.841 3.281a3.125 3.125 0 0 0-4.413.231zM42.455 18a2 2 0 1 1 0 4 2 2 0 0 1 0-4z" fill="#FFDF4A"/></g><defs><clipPath id="clip0"><path fill="#fff" d="M0 0h135v124H0z"/></clipPath></defs></svg>