<svg viewBox="0 0 135 124" fill="none" xmlns="http://www.w3.org/2000/svg"><path d="M11 28c0-9.389 7.611-17 17-17h79c9.389 0 17 7.611 17 17v79c0 9.389-7.611 17-17 17H28c-9.389 0-17-7.611-17-17V28z" fill="#FEC701"/><path fill-rule="evenodd" clip-rule="evenodd" d="M64.756 27.365c8.2 8.2 8.2 21.497 0 29.698L11.349 110.47a17.078 17.078 0 0 1-.348-3.442L11 51.421l24.057-24.056c8.201-8.201 21.498-8.201 29.699 0zM124 28.42v35.354l-8.995 8.997c-4.881 4.882-12.796 4.882-17.677 0-4.882-4.882-4.882-12.796 0-17.678L124 28.421z" fill="#FFD900"/><path fill-rule="evenodd" clip-rule="evenodd" d="M28.451 18.387c-6.402 0-11.593 5.19-11.593 11.592V67.144c0 1.053-.014 3.753-2.82 3.962H7.75c-.686 0-1.242.556-1.242 1.242 0 6.936 5.622 12.558 12.558 12.558h54.79c6.935 0 12.558-5.623 12.558-12.559 0-.685-.556-1.241-1.242-1.241h-5.875c-2.71-.202-2.815-2.728-2.82-3.848V29.979c0-6.402-5.19-11.592-11.592-11.592H28.45z" fill="#FFB100"/><path fill-rule="evenodd" clip-rule="evenodd" d="M20.861 37.294c0-6.021 4.882-10.902 10.903-10.902h28.843c6.022 0 10.903 4.88 10.903 10.902v47.199H20.86V37.294z" fill="#FFD900"/><path d="M54.764 37.397c1.83 0 3.577-.352 5.178-.994a6.476 6.476 0 0 1 1.09 3.607v3.958c0 .684-.106 1.344-.302 1.963a13.965 13.965 0 0 0-3.248-.38h-.68c-2.784 0-5.378.817-7.554 2.225a6.478 6.478 0 0 1-1.23-3.808V40.01c0-1.307.385-2.525 1.048-3.544 1.557.601 3.25.931 5.019.931h.68z" fill="#FFF1A2"/><path d="M26.044 28.01a10.896 10.896 0 0 0-5.183 9.284v10.68a5.728 5.728 0 0 0 5.245-5.707V28.855c0-.287-.021-.569-.062-.844zM66.84 28.348a10.89 10.89 0 0 1 4.67 8.946v10.607a5.73 5.73 0 0 1-4.692-5.634V28.855c0-.171.007-.34.022-.507z" fill="#FFB100"/><path d="M50.618 41.486c-.279 0-.545-.053-.79-.15-.01.102-.016.206-.016.31v3.67c0 .67.226 1.288.606 1.78a13.843 13.843 0 0 1 5.224-1.498c.009-.093.013-.187.013-.282v-3.67a2.921 2.921 0 0 0-2.99-2.92 2.14 2.14 0 0 1-2.047 2.76z" fill="#F68B00"/><path d="M32.7 40.01c0-1.188.317-2.3.873-3.259 1.327.42 2.74.647 4.206.647h.68c2.12 0 4.13-.475 5.93-1.323a6.478 6.478 0 0 1 1.324 3.935v3.958c0 .58-.076 1.143-.218 1.679a13.867 13.867 0 0 0-8.396-2.814h-.679a13.94 13.94 0 0 0-3.72.503V40.01z" fill="#FFF1A2"/><path d="M40.566 39.347a2.14 2.14 0 0 1-2.478 2.113 2.97 2.97 0 0 0-.006.187v1.22c2.112.147 4.094.765 5.843 1.75v-2.97a2.921 2.921 0 0 0-3.438-2.876c.052.183.08.377.08.576z" fill="#F68B00"/><path fill-rule="evenodd" clip-rule="evenodd" d="M27.852 58.59a.815.815 0 0 1-.737-.886l.045-.494a10.281 10.281 0 0 1 7.17-8.873l.486 1.556a8.65 8.65 0 0 0-6.032 7.466l-.045.494a.815.815 0 0 1-.887.737z" fill="#FFC800"/><path fill-rule="evenodd" clip-rule="evenodd" d="M30.015 58.629c1.295-3.842 5.846-5.454 9.27-3.285l11.63 7.37c.23.146.127.502-.145.502H28.848a.272.272 0 0 1-.257-.359l1.424-4.228z" fill="#FFF1A2"/><path d="M34.308 63.216H32.95V59.37a.68.68 0 1 1 1.36 0v3.846zM38.385 63.216h-1.36v-2.488a.68.68 0 0 1 1.36 0v2.488z" fill="#FFB100"/><path d="M24.173 49.444a5.59 5.59 0 1 1-11.179 0 5.59 5.59 0 0 1 11.179 0zM79.79 49.444a5.59 5.59 0 1 1-11.179 0 5.59 5.59 0 0 1 11.179 0z" fill="#FFD900"/><path d="M16.997 23.907c-.99 0-1.794.803-1.794 1.794v3.726c0 .99.803 1.794 1.794 1.794H76.33c.99 0 1.794-.803 1.794-1.794v-3.726c0-.991-.804-1.794-1.794-1.794H16.997zM20.033 78.144c-.838 0-1.518.68-1.518 1.518v5.244c0 .838.68 1.518 1.518 1.518h52.581c.838 0 1.518-.68 1.518-1.518v-5.244c0-.839-.68-1.518-1.518-1.518h-52.58z" fill="#F68B00"/><path d="M35.453 22.767a10.619 10.619 0 0 1-2.42-2.003c-3.07-3.417-3.579-8.377-1.346-12.255.464-.807 1.328-.924 1.95-.23l2.437 2.655A12.413 12.413 0 0 1 46.668 5c6.86 0 12.42 5.56 12.42 12.42s-5.56 12.421-12.42 12.421c-4.946 0-9.216-2.89-11.215-7.074z" fill="#FFB100"/><path fill-rule="evenodd" clip-rule="evenodd" d="M44.119 78.713c.12-.496.563-.846 1.073-.846h3.367c.51 0 .954.35 1.073.846l2.228 9.246a1.104 1.104 0 0 1-1.073 1.363h-7.823c-.714 0-1.24-.668-1.073-1.363l2.228-9.246z" fill="#FFF1A2"/><path fill-rule="evenodd" clip-rule="evenodd" d="M46.822 54.114c1.6 0 2.898-1.296 2.898-2.896 0-1.6-2.898-5.384-2.898-5.384s-2.898 3.784-2.898 5.384c0 1.6 1.297 2.896 2.898 2.896z" fill="#FFB100"/><path d="M81.101 26.997a.108.108 0 0 1-.092-.164l3.64-6.169c1.66-2.814 5.743-2.775 7.35.07 1.607 2.843-.468 6.36-3.735 6.33l-7.163-.067zM85.764 29.8a.108.108 0 0 1 .094-.163h7.163c3.267 0 5.308 3.536 3.675 6.365-1.633 2.83-5.717 2.83-7.35 0L85.764 29.8z" fill="#FFD900"/><path fill-rule="evenodd" clip-rule="evenodd" d="M112.442 66.894l8.244 22.58-13.167 28.192a3.278 3.278 0 0 1-4.357 1.583l-31.827-14.865a3.278 3.278 0 0 1-1.583-4.357l18.96-40.598a3.278 3.278 0 0 1 4.358-1.583l19.372 9.048z" fill="#FFF1A2"/><path fill-rule="evenodd" clip-rule="evenodd" d="M73.107 105.21l21.735-46.538.848.396-21.735 46.538-.848-.396z" fill="#FFD900"/><path d="M85.967 65.315l27.029 12.624.396-.849-27.029-12.623-.396.848zM114.449 84.596L83.672 70.222l.397-.848 30.777 14.374-.397.848zM119.153 92.768L81.385 75.13l.397-.849 37.767 17.64-.396.848zM79.093 80.037l37.767 17.64.397-.85L79.489 79.19l-.396.848zM69.926 99.664l37.767 17.639.397-.849-37.768-17.64-.396.85zM72.217 94.756l37.767 17.639.397-.848-37.768-17.64-.396.85zM74.51 89.85l37.767 17.639.396-.849-37.767-17.639-.397.849zM114.57 102.582l-37.768-17.64.396-.848 37.768 17.639-.396.849z" fill="#FFB100"/><path fill-rule="evenodd" clip-rule="evenodd" d="M120.551 89.092l-14.059-6.57a1.311 1.311 0 0 1-.633-1.742l.005-.012 6.61-13.797 8.077 22.121z" fill="#FFB100"/><path d="M80.847 116.681l-7.937-3.503 2.315-7.845 7.86 2.264-1.312 8.576a.666.666 0 0 1-.926.508z" fill="#FFB100"/><path d="M72.912 113.179l-17-30.996 10.174-5.58 17 30.996-10.174 5.58z" fill="#FFB100"/><path d="M72.912 113.179l-17-30.996 5.087-2.79 17 30.996-5.087 2.79z" fill="#FFD900"/><path d="M56.346 81.942L55.11 79.69a2.975 2.975 0 0 1 1.19-4.034l4.07-2.232a2.975 2.975 0 0 1 4.042 1.164l1.236 2.253-9.302 5.102z" fill="#F68B00"/><path d="M55.396 83.31a1.894 1.894 0 0 1 .75-2.57l8.597-4.716a1.894 1.894 0 1 1 1.821 3.322l-8.596 4.715a1.894 1.894 0 0 1-2.572-.75zM77.522 115.214l4.801-2.633-.55 3.593a.667.667 0 0 1-.925.507l-3.326-1.467z" fill="#FF9600"/></svg>