<svg viewBox="0 0 135 124" fill="none" xmlns="http://www.w3.org/2000/svg"><path d="M11 28c0-9.389 7.611-17 17-17h79c9.389 0 17 7.611 17 17v79c0 9.389-7.611 17-17 17H28c-9.389 0-17-7.611-17-17V28z" fill="#FEC701"/><path fill-rule="evenodd" clip-rule="evenodd" d="M64.756 27.41c8.2 8.201 8.2 21.497 0 29.698l-53.407 53.407a17.071 17.071 0 0 1-.348-3.442L11 51.466 35.057 27.41c8.201-8.201 21.498-8.201 29.699 0zM124 28.466v35.355l-8.995 8.996c-4.881 4.882-12.796 4.882-17.677 0-4.882-4.881-4.882-12.796 0-17.677L124 28.466z" fill="#FFD900"/><path d="M4.21 46.102C1.603 25.855 15.903 7.328 36.15 4.721c20.247-2.607 38.774 11.693 41.382 31.94l.508 3.946C80.647 60.854 66.346 79.38 46.1 81.988 25.851 84.595 7.324 70.295 4.717 50.048l-.508-3.946z" fill="#FFF1A2"/><path d="M29.136 80.213a36.975 36.975 0 0 1-6.074-2.777c.245-.157.532-.255.844-.272 14.142-.762 23.744-4.912 30.29-10.263 6.556-5.36 10.174-12.03 12.162-18.032a1.74 1.74 0 1 1 3.304 1.095c-2.14 6.462-6.075 13.756-13.264 19.632-6.351 5.192-15.144 9.198-27.262 10.617z" fill="#FFB100"/><path fill-rule="evenodd" clip-rule="evenodd" d="M11.855 46.02C9.78 29.905 21.162 15.159 37.278 13.083c16.116-2.075 30.863 9.308 32.938 25.424 2.076 16.116-9.307 30.863-25.423 32.938-16.116 2.075-30.863-9.307-32.938-25.423z" fill="#FFD900"/><path d="M54.182 15.939c-5.692 7.528-16.019 20.57-37.627 22.607-1.46.138-3.308-.125-4.646-.49 1.835-12.755 11.965-23.247 25.37-24.973a29.285 29.285 0 0 1 16.903 2.856z" fill="#F68B00"/><path fill-rule="evenodd" clip-rule="evenodd" d="M37.535 55.364c-.105-.817 1.145-1.463 1.876-1.085.914.473 2.065.813 3.372.645 1.366-.176 2.443-.848 3.236-1.576.604-.554 1.931-.249 2.036.564l1.075 8.352a5.31 5.31 0 0 1-10.532 1.357l-1.063-8.257z" fill="#F68B00"/><path d="M18.236 23.554c-2.253 2.512-4.747 5.294-10.348 4.679-.11-.012-.217-.023-.32-.032l-2.792-.349c-.987-.134-1.61.56-1.43 1.542.862 4.716 4.71 8.414 9.578 9.075 4.868.66 9.547-1.88 11.614-6.198a1.472 1.472 0 0 0-1.129-2.092l-1.203-.15 4.348-4.2s-4.814-6.008-7.371-3.311c-.317.333-.63.682-.947 1.036z" fill="#F68B00"/><path d="M48.896 64.638a5.31 5.31 0 0 1-9.471 1.22 5.148 5.148 0 0 1 9.471-1.22z" fill="#FF9600"/><path d="M40.335 33.489a3.209 3.209 0 0 1 2.773-3.593l14.72-1.895a3.209 3.209 0 0 1 3.591 2.773l1.83 14.212a3.209 3.209 0 0 1-2.772 3.592l-14.72 1.895a3.209 3.209 0 0 1-3.592-2.772l-1.83-14.212zM18.73 36.27a3.209 3.209 0 0 1 2.773-3.592l14.72-1.895a3.209 3.209 0 0 1 3.592 2.773l1.83 14.212a3.209 3.209 0 0 1-2.773 3.592l-14.72 1.895a3.209 3.209 0 0 1-3.592-2.773L18.73 36.27z" fill="#FFB100"/><path fill-rule="evenodd" clip-rule="evenodd" d="M40.335 33.489a3.209 3.209 0 0 1 2.773-3.593l14.72-1.895a3.209 3.209 0 0 1 3.591 2.773l.435 3.374 7.185-.925c.383 1.19.693 2.416.925 3.674l-7.63.982.915 7.107a3.209 3.209 0 0 1-2.772 3.592l-14.72 1.895a3.209 3.209 0 0 1-3.592-2.772l-.316-2.454-.52.067.316 2.454a3.209 3.209 0 0 1-2.773 3.592l-14.72 1.895a3.209 3.209 0 0 1-3.592-2.773l-.915-7.106-7.955 1.025a29.485 29.485 0 0 1-.035-3.789l7.51-.967-.435-3.375a3.209 3.209 0 0 1 2.773-3.592l14.72-1.895a3.209 3.209 0 0 1 3.592 2.773l1.033 8.027.52-.067-1.033-8.027zm3.08-1.206l14.72-1.895a.802.802 0 0 1 .898.693l1.83 14.212a.802.802 0 0 1-.694.898L45.45 48.087a.802.802 0 0 1-.898-.694l-1.83-14.212a.802.802 0 0 1 .693-.898zm-21.604 2.782L36.53 33.17a.802.802 0 0 1 .898.693l1.83 14.212a.802.802 0 0 1-.693.898l-14.72 1.895a.802.802 0 0 1-.898-.693l-1.83-14.212a.802.802 0 0 1 .694-.898z" fill="#FFF1A2"/><path fill-rule="evenodd" clip-rule="evenodd" d="M31.259 49.575a7.647 7.647 0 1 0-1.954-15.168 7.647 7.647 0 0 0 1.954 15.169zm1.95-12.704c.814 1.574-.554 3.897-3.055 5.19-2.501 1.293-5.188 1.066-6.002-.507-.813-1.574.555-3.897 3.056-5.19 2.502-1.293 5.188-1.066 6.002.508zm2.393 7.17a1.973 1.973 0 1 1-3.914.505 1.973 1.973 0 0 1 3.915-.504zM52.767 46.806a7.647 7.647 0 1 0-1.954-15.169 7.647 7.647 0 0 0 1.953 15.169zm1.95-12.704c.814 1.573-.554 3.897-3.055 5.19-2.502 1.293-5.188 1.066-6.002-.508-.813-1.573.555-3.897 3.056-5.19 2.501-1.293 5.188-1.065 6.002.508zm2.393 7.17a1.974 1.974 0 1 1-3.914.504 1.974 1.974 0 0 1 3.914-.504zM42.465 52.168c1.522-.196 2.595-1.598 2.397-3.132-.197-1.534-3.419-4.807-3.419-4.807s-2.287 3.983-2.09 5.516c.198 1.534 1.591 2.62 3.112 2.423zM56.63 63.224c3.596-16.297 18.863-27.29 35.46-25.533 16.049 1.699 28.474 14.828 29.287 30.947l2.525 50.092a1.662 1.662 0 0 1-1.836 1.737l-74.439-7.88a1.662 1.662 0 0 1-1.448-2.012l10.45-47.351z" fill="#F68B00"/><path d="M82.008 44.369c-8.533 3.023-15.35 10.131-17.7 19.409l-7.313 28.87c-1.114 4.397 1.927 8.76 6.437 9.237l47.873 5.068c4.306.456 8.051-2.937 8.021-7.267l-.104-15.012a6.32 6.32 0 0 0 .735-12.604l-.824-.087-.011-1.564a27.841 27.841 0 0 0-.72-6.12l-18.201-1.927c-9.713-1.028-17.12-8.688-18.193-18.003z" fill="#FFD900"/><path fill-rule="evenodd" clip-rule="evenodd" d="M78.096 104.639a1.066 1.066 0 0 1 1.173-.948l13.605 1.441c.585.062 1.01.586.948 1.172l-1.053 9.942a1.067 1.067 0 0 1-1.172.948l-13.605-1.44a1.066 1.066 0 0 1-.948-1.173l1.052-9.942z" fill="#FF9600"/><path d="M86.64 89.663l19.161-.99.06 1.162c.273 5.29-3.795 9.801-9.086 10.075A9.593 9.593 0 0 1 86.7 90.824l-.06-1.16z" fill="#F68B00"/><path d="M105.529 92.89l-13.23-1.4a.872.872 0 0 1-.776-.96l.12-1.125 14.159-.731.06 1.161a9.606 9.606 0 0 1-.333 3.056z" fill="#FFF1A2"/><path d="M103.68 96.437a9.57 9.57 0 0 1-6.903 3.473 9.575 9.575 0 0 1-3.308-.406 8.718 8.718 0 0 1 8.009-3.593 8.742 8.742 0 0 1 2.202.526z" fill="#FF9600"/><path d="M91.229 65.231a3.209 3.209 0 0 1 3.528-2.853l14.759 1.563a3.209 3.209 0 0 1 2.853 3.528l-1.509 14.25a3.208 3.208 0 0 1-3.528 2.853L92.573 83.01a3.209 3.209 0 0 1-2.853-3.529l1.509-14.25zM69.566 62.938a3.209 3.209 0 0 1 3.53-2.853l14.757 1.562a3.209 3.209 0 0 1 2.854 3.529l-1.509 14.25a3.209 3.209 0 0 1-3.529 2.853l-14.758-1.562a3.209 3.209 0 0 1-2.853-3.53l1.508-14.249z" fill="#FFB100"/><path fill-rule="evenodd" clip-rule="evenodd" d="M69.566 62.938a3.209 3.209 0 0 1 3.53-2.853l14.757 1.562a3.209 3.209 0 0 1 2.854 3.529l-.852 8.049.522.055.852-8.049a3.209 3.209 0 0 1 3.528-2.853l14.759 1.563a3.209 3.209 0 0 1 2.853 3.528l-.002.015 6.652.704c.063.736.098 1.48.104 2.231l.011 1.564-7.163-.758-1.111 10.494a3.208 3.208 0 0 1-3.528 2.853L92.573 83.01a3.209 3.209 0 0 1-2.853-3.529l.26-2.46-.522-.055-.26 2.46a3.209 3.209 0 0 1-3.529 2.853l-14.758-1.562a3.209 3.209 0 0 1-2.853-3.53l1.508-14.249zm3.276-.46L87.6 64.04c.44.047.76.442.713.883l-1.508 14.25a.802.802 0 0 1-.882.713l-14.759-1.563a.802.802 0 0 1-.713-.882l1.509-14.25a.802.802 0 0 1 .882-.713zm36.42 3.856l-14.758-1.562a.802.802 0 0 0-.882.713l-1.508 14.25a.802.802 0 0 0 .713.882l14.758 1.562a.801.801 0 0 0 .882-.713l1.509-14.25a.803.803 0 0 0-.714-.882z" fill="#FFF1A2"/><path fill-rule="evenodd" clip-rule="evenodd" d="M106.949 72.065a3.245 3.245 0 1 0-1.406 6.114 6.834 6.834 0 1 1 1.406-6.114zm-6.213-3.798a2.222 2.222 0 0 1 .023 4.442c-.731.004-1.08.302-1.313.602a2.263 2.263 0 0 0-.342.643l-.003.01a2.221 2.221 0 0 1-4.308-1.08l.01-.044a5.693 5.693 0 0 1 .068-.232 6.707 6.707 0 0 1 1.061-2.013c.893-1.154 2.442-2.315 4.804-2.328zm-.514 8.006a1.453 1.453 0 1 1-.307 2.89 1.453 1.453 0 0 1 .307-2.89zM87.07 69.96a3.246 3.246 0 1 0-1.406 6.114 6.834 6.834 0 1 1 1.406-6.114zm-6.213-3.797a2.221 2.221 0 0 1 .023 4.442c-.731.004-1.08.301-1.313.602a2.26 2.26 0 0 0-.342.643l-.003.01a2.221 2.221 0 0 1-4.308-1.081l.01-.043a4.022 4.022 0 0 1 .068-.233 6.703 6.703 0 0 1 1.061-2.013c.892-1.154 2.441-2.315 4.804-2.327zm-.514 8.006a1.452 1.452 0 1 1-.306 2.888 1.452 1.452 0 0 1 .305-2.888zM88.855 85.16a3.366 3.366 0 0 0 3.71-2.982c.196-1.844-2.7-6.559-2.7-6.559s-3.818 4.005-4.013 5.848a3.366 3.366 0 0 0 3.003 3.693z" fill="#F68B00"/><path fill-rule="evenodd" clip-rule="evenodd" d="M57.703 68.039a33.352 33.352 0 0 1 12.625-22.73l9.98-2.96a1.996 1.996 0 0 1 2.552 2.123l-6.4 60.465a1.663 1.663 0 0 1-1.83 1.478l-18.773-1.987a1.995 1.995 0 0 1-1.774-2.194l3.62-34.195z" fill="#F68B00"/><g opacity=".75" fill="#fff"><path d="M107.993 20.392c.541-.7 1.658-.404 1.781.472l.52 3.703a1 1 0 0 0 .653.803l3.52 1.262c.833.299.896 1.452.101 1.84l-3.361 1.64a1 1 0 0 0-.561.868l-.113 3.738c-.027.884-1.105 1.3-1.719.664l-2.598-2.69a1 1 0 0 0-.999-.265l-3.59 1.048c-.85.248-1.579-.648-1.163-1.43l1.755-3.301a.999.999 0 0 0-.057-1.033l-2.105-3.09c-.498-.731.129-1.702 1-1.548l3.683.649a1 1 0 0 0 .964-.373l2.289-2.957zM27.41 91.046c.017-.884 1.09-1.313 1.711-.684l2.629 2.66a1 1 0 0 0 1.002.254l3.578-1.089c.846-.257 1.586.63 1.18 1.416l-1.718 3.322a1 1 0 0 0 .068 1.032l2.141 3.066c.507.725-.11 1.703-.982 1.559l-3.69-.607a1.001 1.001 0 0 0-.96.384l-2.255 2.984c-.533.705-1.653.422-1.786-.453l-.563-3.697a1 1 0 0 0-.662-.794l-3.534-1.222c-.836-.29-.913-1.442-.122-1.839l3.342-1.678a1 1 0 0 0 .551-.875l.07-3.739zM90.117 22.07c-.592-.656-1.683-.277-1.74.605l-.066 1.005a1 1 0 0 1-.59.848l-.92.41c-.808.36-.785 1.515.037 1.842l.935.373a1 1 0 0 1 .625.824l.105 1c.093.88 1.199 1.215 1.764.535l.643-.774a1 1 0 0 1 .977-.34l.984.21c.866.183 1.526-.765 1.053-1.513l-.537-.85a1 1 0 0 1-.021-1.035l.503-.871c.442-.767-.256-1.687-1.113-1.47l-.975.25a1 1 0 0 1-.99-.3l-.674-.748z"/></g></svg>