<svg viewBox="0 0 135 124" version="1.1" xmlns="http://www.w3.org/2000/svg"><g stroke="none" stroke-width="1" fill="none" fill-rule="evenodd"><rect fill="#2BE69C" x="10.865" y="11" width="113" height="113" rx="17"/><rect fill="#2BE69C" x="11" y="11" width="113" height="113" rx="17"/><path d="M59.939 0C69.62 0 77.753 6.632 80.04 15.601l-.02-.056c1.605 4.387 5.12 6.414 10.436 6.5l.357.003c.098 0 .193.001.284.004l.138-.004.317-.003c8.793 0 15.921 7.128 15.921 15.921s-7.128 15.922-15.92 15.922a15.866 15.866 0 0 1-10.87-4.288v1.915c0 11.456-9.288 20.743-20.744 20.743-10.846 0-19.748-8.324-20.666-18.933-6.75-1.845-11.712-8.022-11.712-15.359 0-7.307 4.923-13.465 11.634-15.337v-1.885C39.195 9.287 48.483 0 59.94 0z" fill="#3D3D3D"/><circle fill="#DA8E74" cx="31.432" cy="50.902" r="5.894"/><circle fill="#DA8E74" cx="103.384" cy="50.902" r="5.894"/><path d="M67.331 24.494c19.531 0 35.364 15.833 35.364 35.364v54.701H31.968v-54.7c0-19.532 15.833-35.365 35.363-35.365z" fill="#DA8E74"/><path d="M101.555 50.917l-.181.024a8.5 8.5 0 0 1-9.509-8.44v-8.112a35.334 35.334 0 0 1 9.69 16.528zM42.865 34.5v9a8.5 8.5 0 0 1-9.99 8.37 35.307 35.307 0 0 1 9.987-17.543l.003.173z" fill="#3D3D3D"/><path fill="#FFAADE" d="M31.964 85.446h70.728v21.126H31.964z"/><path fill="#DA8E74" d="M67.405 96.927L77.432 85.14H57.377z"/><path fill="#A56644" d="M31.968 106.55h70.727v7.961H31.968z"/><path fill="#2BE69C" d="M44.368 106.551h5.052v11.635h-5.052zM84.934 106.551h5.052v11.635h-5.052z"/><path d="M58.628 35.823a7.218 7.218 0 0 1 7.218 7.218v4.39a7.218 7.218 0 1 1-14.436 0v-4.39a7.218 7.218 0 0 1 7.218-7.218z" fill="#FFF"/><path d="M58.515 49.4h1.8a2.25 2.25 0 1 1 0 4.5h-1.8a2.25 2.25 0 1 1 0-4.5z" fill="#3D3D3D"/><path d="M75.927 35.823a7.218 7.218 0 0 0-7.218 7.218v4.39a7.218 7.218 0 1 0 14.436 0v-4.39a7.218 7.218 0 0 0-7.218-7.218z" fill="#FFF"/><path d="M75.715 49.4h-1.8a2.25 2.25 0 1 0 0 4.5h1.8a2.25 2.25 0 1 0 0-4.5zM76.54 55.273l7.16 4.134a9.492 9.492 0 0 1-9.492 16.44l-.83-.479H60.932l-.827.479a9.492 9.492 0 0 1-12.822-3.234l-.144-.24a9.492 9.492 0 0 1 3.234-12.823l.24-.143 7.16-4.134a9.487 9.487 0 0 1 9.384-.063 9.487 9.487 0 0 1 9.384.063z" fill="#3D3D3D"/><path fill="#DA8E74" d="M49.114 36.517l18-2 22.11 2v6.3l-21.86-1h-18.25z"/><path d="M119.605 70a4.26 4.26 0 0 1 4.26 4.26V107c0 9.389-7.611 17-17 17h-79c-9.389 0-17-7.611-17-17V74.26a4.26 4.26 0 0 1 4.26-4.26h104.48z" fill="#FFF"/><path d="M119.605 77a4.26 4.26 0 0 1 4.26 4.26V107c0 9.389-7.611 17-17 17h-79c-9.389 0-17-7.611-17-17V81.26a4.26 4.26 0 0 1 4.26-4.26h104.48z" fill="#C4D3CD"/><path d="M117.865 80a3 3 0 0 1 3 3v33.646a17.091 17.091 0 0 1-5 4.778V85l-97-.001v36.425a17.091 17.091 0 0 1-5.001-4.78V83a3 3 0 0 1 3-3h101z" fill="#CA9364"/><circle fill="#DA8E74" cx="67.305" cy="53.44" r="4.44"/><path d="M65.95 38.879a4 4 0 0 1 7.59-1.593l.047.103 8.728-.009a4 4 0 0 1 .006 8l-9.856.012c-3.925.009-6.68-2.567-6.515-6.513z" fill="#3D3D3D" fill-rule="nonzero"/><path fill="#3D3D3D" d="M33.865 32h9v12l-7 4-2-4zM100.865 32h-9v12l7 4 2-4z"/><path d="M62.776 27.226a4 4 0 0 1 1.019 7.933l-.198.025c-2.538.262-4.566 1.063-6.187 2.397a4 4 0 1 1-5.083-6.177c2.88-2.37 6.396-3.76 10.45-4.178z" fill="#3D3D3D" fill-rule="nonzero"/><path fill-opacity=".143" fill="#000" d="M61.865 104h2v11h-2zM71.865 104h2v11h-2z"/><path fill="#DDA371" d="M119.865 104v8h-109v-8z"/><path fill="#CA9364" d="M63.865 82h8v42h-8z"/><path fill="#CA9364" d="M119.865 107v8h-109v-8z"/><path fill="#AD7E55" fill-rule="nonzero" d="M30.327 84.97v5l-6.5-.001v5.5h-5v-10.5zM104.827 84.97v5l6.5-.001v5.5h5v-10.5z"/><path d="M126.435 91.135l-7.728 2.07a5 5 0 0 0-3.6 5.853 5 5 0 0 0 .758 9.942h.416a5 5 0 0 0 4.584 7h2a5 5 0 0 0 4.57-7.033 4.999 4.999 0 0 0 2.79-8.67 5 5 0 0 0-3.79-9.162zM9.295 91.135l7.728 2.07a5 5 0 0 1 3.6 5.853 5 5 0 0 1-.758 9.942h-.416a5 5 0 0 1-4.584 7h-2a5 5 0 0 1-4.57-7.033 4.999 4.999 0 0 1-2.79-8.67 5 5 0 0 1 3.79-9.162z" fill="#ECA48B"/></g></svg>