<svg viewBox="0 0 135 125" fill="none" xmlns="http://www.w3.org/2000/svg"><rect x="11" y="11" width="113" height="113" rx="17" fill="#FFCA00"/><path d="M122.278 20.93L20.758 122.45a16.937 16.937 0 0 0 7.08 1.56h41.32l54.68-54.68V28.01a16.938 16.938 0 0 0-1.56-7.08zm-72.12 48.14l58-58c-.43 0-.87-.07-1.31-.07h-48.59l-33.08 33.09c-6.904 6.904-6.904 18.096 0 25 6.903 6.904 18.096 6.904 25 0l-.02-.02z" fill="#FFD900"/><path d="M132.368 31.238l-69.62-3.107-3.122 69.936 69.62 3.107 3.122-69.936z" fill="#FFA423"/><path d="M131.759 31.179l-68.396-3.053-.157 3.51 68.397 3.053.156-3.51z" fill="#EC8500"/><path d="M57.703 99.822l3.138-70.304a3.3 3.3 0 0 1 3.458-3.162l66.678 2.976a3.3 3.3 0 0 1 3.163 3.458l-3.138 70.303-73.299-3.271zm3.842-3.514l65.943 2.943 2.957-66.257-65.942-2.944-2.958 66.258z" fill="#F68B00"/><path d="M96.8 102.674l-14.87-.664.246-5.517a1.998 1.998 0 0 1 2.086-1.908l10.876.486a1.998 1.998 0 0 1 1.908 2.085l-.246 5.518z" fill="#FFCA00"/><path d="M116.412 99.694l-6.492-.29c-.662-.03-1.267.524-1.296 1.185-.03.662.523 1.267 1.185 1.296l6.492.29c.662.03 1.267-.523 1.296-1.185.03-.662-.523-1.266-1.185-1.296z" fill="#FFF1A2"/><path d="M132.076 107.354l-75.557-3.373a2.222 2.222 0 0 1-2.109-2.305 2.222 2.222 0 0 1 2.306-2.109l75.557 3.373a2.223 2.223 0 0 1 2.109 2.305 2.223 2.223 0 0 1-2.306 2.109z" fill="#F68B00"/><path d="M5.993 28.529C6.762 14.666 17.466 3.405 31.272 1.934 45.077.464 57.914 9.218 61.585 22.607L73.58 66.363a1.922 1.922 0 0 1-1.65 2.419L5.606 75.847a1.922 1.922 0 0 1-2.122-2.018l2.51-45.3z" fill="#FF9600"/><path d="M24.038 14.013l-.21.023c-7.78.828-13.696 7.368-13.745 15.191l-.172 27.939a6.245 6.245 0 0 0 6.907 6.248l42.644-4.542a6.245 6.245 0 0 0 5.435-7.563l-2.79-16.981a5.634 5.634 0 0 0-1.313-11.19l-19.103 2.034c-7.917.843-15.135-3.953-17.653-11.159z" fill="#FFCA00"/><path d="M30.677 62.904a.96.96 0 0 1 .853-1.057l12.108-1.29a.96.96 0 0 1 1.057.854l.98 9.202a.96.96 0 0 1-.853 1.057l-12.108 1.29a.96.96 0 0 1-1.057-.854l-.98-9.202z" fill="#F68B00"/><path d="M34.7 35.71a7.686 7.686 0 0 0-8.457-6.829l-6.193.66a.96.96 0 0 0-.854 1.057l.805 7.555a7.686 7.686 0 0 0 8.457 6.83L32 44.604a3.627 3.627 0 0 0 3.223-3.99L34.7 35.71z" fill="#FFF1A2"/><path d="M51.231 32.594l-14.675 1.563a7.688 7.688 0 0 1 6.855-7.104l6.193-.66a.96.96 0 0 1 1.058.854l.57 5.347z" fill="#A570FF"/><path d="M36.582 35.51a7.686 7.686 0 0 1 6.829-8.458l6.193-.66a.96.96 0 0 1 1.057.854l.805 7.555a7.686 7.686 0 0 1-6.83 8.457l-3.541.378a3.627 3.627 0 0 1-3.991-3.223l-.522-4.903z" fill="#FFF1A2"/><path d="M40.751 31.347a2.788 2.788 0 0 0-2.477 3.068l.343 3.22a2.789 2.789 0 0 0 5.545-.59l-.343-3.22a2.789 2.789 0 0 0-3.068-2.478zM29.747 32.519a2.789 2.789 0 0 0-2.477 3.068l.343 3.22a2.789 2.789 0 1 0 5.546-.59l-.343-3.22a2.788 2.788 0 0 0-3.069-2.478zM36.245 40.36c.137-.015 1.547 1.771 2.989 3.65 1.435 1.868.256 4.57-2.087 4.82s-4.064-2.144-3.055-4.273c1.014-2.14 2.017-4.183 2.153-4.197z" fill="#F68B00"/><path d="M34.705 35.742l-.004-.032a7.687 7.687 0 0 0-8.457-6.829l-6.194.66a.96.96 0 0 0-.853 1.057l.105.983 15.403 4.16zM36.585 35.542l-.003-.032a7.686 7.686 0 0 1 6.829-8.457l6.193-.66a.96.96 0 0 1 1.057.854l.105.983-14.18 7.312z" fill="#FFB100"/><path d="M36.491 51.158a7.123 7.123 0 0 0-7.109 7.137 2.292 2.292 0 0 0 2.297 2.288l10.695-.022a2.292 2.292 0 0 0 2.287-2.296 7.123 7.123 0 0 0-7.137-7.109l-1.033.002z" fill="#F68B00" stroke="#FFCA00" stroke-width="2.698"/><path d="M29.739 68.033l-5.991-56.249-2.876.306A14.892 14.892 0 0 0 7.574 26.198L5.482 70.617l24.257-2.584zM41.962 59.214l-10.287.02a.943.943 0 0 1-.91-.688 5.763 5.763 0 0 1 4.267-2.651l1.027-.11a5.776 5.776 0 0 1 5.903 3.429z" fill="#FF9600"/><path d="M55.795 111.941l-7.92 2.015a1.21 1.21 0 0 0-.874 1.472l.597 2.346a1.21 1.21 0 0 0 1.472.875l7.92-2.015a1.21 1.21 0 0 0 .874-1.472l-.597-2.346a1.21 1.21 0 0 0-1.472-.875z" fill="#F68B00"/><path fill-rule="evenodd" clip-rule="evenodd" d="M20.443 83.46L65.32 72.042a2.421 2.421 0 0 1 2.943 1.75l8.657 34.023a2.42 2.42 0 0 1-1.75 2.943l-44.875 11.418a2.421 2.421 0 0 1-2.944-1.75l-8.656-34.023a2.421 2.421 0 0 1 1.75-2.943z" fill="#F68B00"/><path d="M54.243 109.526l-6.159 1.567a1.21 1.21 0 0 0-.875 1.472l.373 1.467a1.21 1.21 0 0 0 1.472.874l6.16-1.567a1.21 1.21 0 0 0 .874-1.472l-.373-1.466a1.21 1.21 0 0 0-1.472-.875z" fill="#F68B00"/><path fill-rule="evenodd" clip-rule="evenodd" d="M28.263 110.515l43.41-11.044 1.64 6.452a1.211 1.211 0 0 1-.874 1.472l-20.53 5.224-6.748 1.717-13.785 3.507a1.21 1.21 0 0 1-1.471-.875l-1.642-6.453z" fill="#F68B00"/><path fill-rule="evenodd" clip-rule="evenodd" d="M52.915 116.578l-1.008-3.96a4.237 4.237 0 0 0-5.15-3.061l-17.599 4.477 1.38 5.426-8.544-33.583a1.21 1.21 0 0 1 .875-1.472l16.425-4.179a4.237 4.237 0 0 1 5.15 3.062 4.237 4.237 0 0 1 3.062-5.151l16.425-4.18a1.21 1.21 0 0 1 1.472.875l9.925 39.01-2.76-10.853-17.6 4.478a4.237 4.237 0 0 0-3.06 5.151l1.007 3.96z" fill="#FFF1A2"/><path d="M40.334 83.084l-14.666 3.732a.908.908 0 0 0-.656 1.103l.224.88a.908.908 0 0 0 1.104.656l14.665-3.73a.908.908 0 0 0 .656-1.105l-.224-.88a.908.908 0 0 0-1.103-.656zM43.393 95.11l-14.666 3.731a.908.908 0 0 0-.655 1.104l.223.88a.908.908 0 0 0 1.104.656l14.665-3.731a.908.908 0 0 0 .656-1.104l-.224-.88a.908.908 0 0 0-1.103-.656zM38.675 90.065l-11.44 2.91a.908.908 0 0 0-.655 1.104l.224.88a.908.908 0 0 0 1.104.656l11.438-2.91a.908.908 0 0 0 .656-1.104l-.223-.88a.908.908 0 0 0-1.104-.656zM41.66 101.796l-11.439 2.911a.907.907 0 0 0-.656 1.103l.224.88a.908.908 0 0 0 1.104.656l11.439-2.91a.908.908 0 0 0 .656-1.104l-.224-.88a.908.908 0 0 0-1.104-.656zM62.919 77.338l-14.666 3.731a.908.908 0 0 0-.656 1.104l.224.88a.908.908 0 0 0 1.104.656l14.665-3.731a.908.908 0 0 0 .656-1.104l-.224-.88a.908.908 0 0 0-1.103-.656zM65.977 89.363l-14.665 3.731a.908.908 0 0 0-.656 1.104l.224.88a.908.908 0 0 0 1.104.656l14.665-3.731a.908.908 0 0 0 .656-1.104l-.224-.88a.908.908 0 0 0-1.104-.656zM61.258 84.318l-11.439 2.91a.908.908 0 0 0-.656 1.104l.224.88a.908.908 0 0 0 1.104.656l11.439-2.91a.908.908 0 0 0 .656-1.104l-.224-.88a.908.908 0 0 0-1.104-.656zM64.244 96.051l-11.44 2.91a.908.908 0 0 0-.655 1.104l.224.88a.908.908 0 0 0 1.103.656l11.44-2.91a.908.908 0 0 0 .655-1.104l-.224-.88a.908.908 0 0 0-1.103-.656z" fill="#FFA423"/><path d="M37.718 101.073l-2.913-6.43-6.365 1.947 1.906 6.376 6.966-1.136a.541.541 0 0 0 .406-.757z" fill="#FFB100"/><path d="M34.805 94.643L9.452 81.059l-4.46 8.322 25.355 13.584 4.458-8.322z" fill="#FFA423"/><path d="M34.805 94.643L9.452 81.059l-2.23 4.161 25.354 13.584 2.23-4.161z" fill="#FFCA00"/><path d="M9.26 81.416l-1.842-.987a2.42 2.42 0 0 0-3.273 1L2.36 84.76a2.42 2.42 0 0 0 .98 3.279l1.843.987 4.076-7.609z" fill="#FF9600"/><path d="M10.366 80.63a1.541 1.541 0 0 0-2.087.631l-3.767 7.032a1.541 1.541 0 1 0 2.717 1.456l3.767-7.032c.402-.75.12-1.684-.63-2.087zM36.498 98.38l-2.104 3.926 2.919-.476a.54.54 0 0 0 .405-.757l-1.22-2.694z" fill="#F68B00"/><path d="M110.623 71.973a4.768 4.768 0 1 0 .642-9.514M81.314 69.996a4.768 4.768 0 0 1 .642-9.514" stroke="#FFD900" stroke-width="2.688"/><path d="M114.148 52.352l-.437 6.474c-.116 1.768-.62 2.204-1.622 3.665L108.15 63.5c-1.299 1.904-4.28.873-4.125-1.427l1.164-17.258 2.611.176a6.867 6.867 0 0 1 6.385 6.413c.012.317 0 .635-.037.95z" fill="#FFD900"/><path d="M93.763 68.132a15.468 15.468 0 0 1-14.375-16.455l.106-1.573a15.45 15.45 0 1 1 30.83 2.08l-.106 1.574a15.46 15.46 0 0 1-16.455 14.374z" fill="#FFD900"/><path d="M107.273 51.08c.491-7.284-5.015-13.587-12.298-14.078-7.284-.492-13.587 5.014-14.079 12.298l-.106 1.574c-.492 7.283 5.015 13.587 12.298 14.078 7.284.492 13.587-5.015 14.079-12.298l.106-1.574z" fill="#FFD900"/><path d="M83.65 68.132l.923-13.689a12.465 12.465 0 0 1 2.077-6.147 12.671 12.671 0 0 1 19.143-2.301l.413.405.151.154c.125.143.251.268.367.411.389.432.739.898 1.047 1.391a12.542 12.542 0 0 1 2.053 7.782l-.913 13.537-25.261-1.543z" fill="#FFA423"/><path d="M108.806 77.426a.896.896 0 1 0 1.788.12l-1.788-.12zM80.828 75.53a.896.896 0 0 0 1.788.12l-1.788-.12zm29.275-17.337l-1.003 14.87 1.788.12 1.004-14.869-1.789-.12zm-1.003 14.87l-.294 4.363 1.788.12.294-4.363-1.788-.12zM82.616 75.65l1.297-19.224-1.788-.12-1.297 19.224 1.788.12z" fill="#fff"/><path d="M108.582 77.411a1.12 1.12 0 1 0 2.235.15l-2.235-.15zm-27.978-1.9a1.12 1.12 0 0 0 2.236.151l-2.236-.15zm29.803-25.147l-1.411 20.91 2.235.15 1.411-20.91-2.235-.15zm-1.411 20.91l-.414 6.137 2.235.15.414-6.136-2.235-.15zM82.84 75.662l1.824-27.035-2.235-.151-1.825 27.035 2.236.151z" fill="#FFD900"/><path d="M102.808 70.83a7.156 7.156 0 0 1-4.24-12.53 7.16 7.16 0 0 1 10.918 1.82 7.151 7.151 0 0 1-1.495 8.953 7.167 7.167 0 0 1-5.183 1.757zm.842-12.48a5.362 5.362 0 0 0-5.17 2.963 5.36 5.36 0 1 0 5.17-2.963z" fill="#FFD900"/><path d="M89.454 69.93a7.158 7.158 0 1 1 7.623-6.66 7.167 7.167 0 0 1-7.623 6.66zm.842-12.48a5.36 5.36 0 1 0-.722 10.694 5.36 5.36 0 0 0 .722-10.695z" fill="#FFD900"/><path d="M92.822 60.918h-.01a1.577 1.577 0 0 0-1.679 1.467l-.135 2.003a1.577 1.577 0 0 0 1.467 1.68h.01a1.577 1.577 0 0 0 1.68-1.467l.134-2.003a1.577 1.577 0 0 0-1.467-1.68zM100.226 66.592l.009.001a1.576 1.576 0 0 0 1.68-1.467l.135-2.003a1.577 1.577 0 0 0-1.467-1.68h-.009a1.577 1.577 0 0 0-1.68 1.467l-.135 2.003a1.577 1.577 0 0 0 1.467 1.68zM102.414 73.3a1.344 1.344 0 0 0 2.682.181l-2.682-.18zm-15.486-1.044a1.344 1.344 0 0 0 2.682.18l-2.682-.18zm3.904-.887l10.515.71.181-2.683-10.515-.71-.181 2.683zm10.515.71c.632.042 1.109.59 1.067 1.222l2.682.18a3.835 3.835 0 0 0-3.568-4.085l-.181 2.683zm-11.737.358c.043-.633.59-1.11 1.222-1.068l.18-2.682a3.836 3.836 0 0 0-4.084 3.569l2.682.18z" fill="#FFD900"/><path d="M92.052 75.31l7.557.51" stroke="#FFD900" stroke-width="1.792" stroke-linecap="round" stroke-linejoin="round"/><path d="M97.68 66.117l-2.522-.17a1.974 1.974 0 0 0-2.103 1.837l-.058.867a1.974 1.974 0 0 0 1.837 2.103l2.523.17a1.974 1.974 0 0 0 2.102-1.837l.059-.867a1.974 1.974 0 0 0-1.837-2.103z" fill="#FFA423" stroke="#FFD900" stroke-width="1.792"/><path d="M104.026 44.753s-3.219 10.561-21.172 9.35l1.643-10.64 13.819-5.131 6.625 5.37-.915 1.051z" fill="#FFD900"/><path d="M82.113 69.782l-.769 11.4M110.093 71.67l-.769 11.4M95.286 82.825l-.588 8.717M91.887 81.136l-.649 9.612M88.45 80.006l-.528 7.823M98.882 81.608l-.649 9.612M102.44 80.95l-.528 7.823M85.165 76.612l-.527 7.824M106.15 78.028l-.528 7.824" stroke="#FFD900" stroke-width="2.24" stroke-linecap="round" stroke-linejoin="round"/></svg>