<svg viewBox="0 0 135 124" fill="none" xmlns="http://www.w3.org/2000/svg"><path d="M11 28c0-9.389 7.611-17 17-17h79c9.389 0 17 7.611 17 17v79c0 9.389-7.611 17-17 17H28c-9.389 0-17-7.611-17-17V28z" fill="#B2B2B2"/><path d="M34.275 3.145c11.604-1.612 22.322 6.512 23.934 18.117 1.612 11.605-6.485 22.343-18.09 23.955L28.502 46.83C16.896 48.443 6.18 40.318 4.567 28.714 2.955 17.109 11.053 6.37 22.657 4.759l11.618-1.614z" fill="#979797"/><path d="M9.734 48.828C8.103 37.084 16.3 26.242 28.044 24.61l28.954-4.022c11.744-1.632 22.586 6.566 24.218 18.31l.167 1.206c1.632 11.743-6.566 22.586-18.31 24.217L34.12 68.344c-11.743 1.63-22.586-6.567-24.217-18.31l-.168-1.206z" fill="#D8D8D8"/><path d="M77.755 29.846L67.227 31.31a7.714 7.714 0 0 1-8.702-6.58l-.59-4.25c8.038-.766 15.547 3.038 19.822 9.367z" fill="#C1C1C1"/><path fill-rule="evenodd" clip-rule="evenodd" d="M59.867 32.288a7.13 7.13 0 0 0-14.125 1.962l.605 4.358a7.13 7.13 0 1 0 14.125-1.962l-.605-4.358z" fill="#C1C1C1"/><path fill-rule="evenodd" clip-rule="evenodd" d="M60.222 34.842a7.13 7.13 0 0 0-14.125 1.962l.605 4.358A7.13 7.13 0 0 0 60.827 39.2l-.605-4.358z" fill="#fff"/><path fill-rule="evenodd" clip-rule="evenodd" d="M54.856 35.92a3.211 3.211 0 0 0-6.361.884l.554 3.995a3.211 3.211 0 0 0 6.361-.884l-.554-3.995z" fill="#979797"/><path fill-rule="evenodd" clip-rule="evenodd" d="M29.016 36.574a7.13 7.13 0 0 1 14.125-1.962l.605 4.357a7.13 7.13 0 1 1-14.124 1.962l-.606-4.357z" fill="#C1C1C1"/><path fill-rule="evenodd" clip-rule="evenodd" d="M29.37 39.129a7.13 7.13 0 0 1 14.125-1.963l.605 4.358a7.13 7.13 0 1 1-14.125 1.962l-.605-4.357z" fill="#fff"/><path fill-rule="evenodd" clip-rule="evenodd" d="M35.276 38.64a3.211 3.211 0 1 1 6.361-.883l.556 3.995a3.211 3.211 0 0 1-6.362.883l-.555-3.995z" fill="#979797"/><path d="M88.878 37.524a6.295 6.295 0 1 1-12.471 1.733 6.295 6.295 0 0 1 12.47-1.733zM14.05 47.92a6.295 6.295 0 1 1-12.47 1.732 6.295 6.295 0 0 1 12.47-1.733z" fill="#D8D8D8"/><path d="M12.425 54.96a3.034 3.034 0 1 1-6.01.835 3.034 3.034 0 0 1 6.01-.835z" fill="#979797"/><path fill-rule="evenodd" clip-rule="evenodd" d="M29.181 37.777a7.13 7.13 0 0 1 14.124-1.962l.814 5.86-14.124 1.962-.814-5.86z" fill="#C1C1C1"/><path fill-rule="evenodd" clip-rule="evenodd" d="M49.745 56.875l-.859.959.86-.958a1.29 1.29 0 0 1-1.72 1.922l-.002-.003.86-.96-.86.961h.001l.001.002-.004-.004a9.13 9.13 0 0 0-.817-.604 9.52 9.52 0 0 0-2.23-1.086c-1.766-.576-3.995-.646-6.212 1.363a1.29 1.29 0 0 1-1.731-1.912c3.07-2.78 6.334-2.688 8.741-1.903a12.1 12.1 0 0 1 2.845 1.381 11.77 11.77 0 0 1 1.032.76l.065.056.02.017.006.006.003.002v.001z" fill="#B2B2B2"/><path fill-rule="evenodd" clip-rule="evenodd" d="M45.91 35.453a7.13 7.13 0 1 1 14.124-1.963l.814 5.86-14.124 1.963-.814-5.86z" fill="#C1C1C1"/><path fill-rule="evenodd" clip-rule="evenodd" d="M46.895 51.704a3.03 3.03 0 0 0 2.59-3.414c-.23-1.655-3.78-5.15-3.78-5.15s-2.46 4.33-2.231 5.985a3.03 3.03 0 0 0 3.421 2.579z" fill="#B2B2B2"/><path d="M36.071 27.247l-.188-1.352c-1.199-8.63-9.167-14.655-17.797-13.456-8.63 1.2-14.655 9.167-13.456 17.797l.188 1.353c1.199 8.63 9.167 14.654 17.797 13.456 8.63-1.2 14.655-9.168 13.456-17.798zM75.4 49.742l39.7 5.377-3.29 24.29-39.7-5.377z" fill="#979797"/><path d="M82.914 69.355c-5.67 4.11-13.6 2.846-17.71-2.825l-3.565-4.919c-4.11-5.67-2.846-13.6 2.825-17.71l5.5-3.987c5.67-4.11 13.6-2.845 17.71 2.826l3.566 4.919c4.11 5.67 2.845 13.6-2.826 17.71l-5.5 3.986zM106.554 72.373c4.373 5.47 12.353 6.36 17.824 1.987l4.745-3.793c5.471-4.373 6.36-12.353 1.987-17.824l-4.242-5.306c-4.373-5.47-12.353-6.36-17.823-1.987l-4.745 3.794c-5.471 4.373-6.36 12.353-1.987 17.823l4.241 5.306z" fill="#979797"/><path d="M81.167 40.25c.94-6.94 7.328-11.805 14.269-10.865l9.082 1.23c6.94.94 11.805 7.328 10.865 14.268l-1.018 7.515c-.94 6.94-7.328 11.805-14.269 10.865l-9.082-1.23c-6.94-.94-11.805-7.328-10.865-14.269l1.018-7.515z" fill="#979797"/><path d="M109.899 76.192c5.317.72 9.043 5.614 8.323 10.93l-3.259 24.066c-.847 6.247-6.596 10.625-12.843 9.779l-27.917-3.781c-6.247-.846-10.625-6.596-9.779-12.843l3.26-24.065c.72-5.317 5.613-9.043 10.93-8.323l31.285 4.237z" fill="#C1C1C1"/><path d="M93.234 70.076c1.184-5.295 6.436-8.629 11.732-7.445l-.604 2.704c-1.184 5.296-6.436 8.63-11.732 7.446l.604-2.705z" fill="#D8D8D8"/><path d="M86.91 62.874c-.268 5.42 3.909 10.03 9.328 10.298l.137-2.767c.268-5.42-3.909-10.03-9.328-10.298l-.137 2.767z" fill="#D8D8D8"/><path d="M66.186 67.82l29.36 3.977-.39 2.878L66.82 85.06l-.634-17.24z" fill="#D8D8D8"/><path d="M122.742 75.48l-29.36-3.977-.39 2.879 24.553 17.55 5.197-16.452z" fill="#D8D8D8"/><circle cx="116.567" cy="97.258" r="5.792" transform="rotate(7.713 116.567 97.258)" fill="#C1C1C1"/><circle cx="66.165" cy="90.671" r="5.792" transform="rotate(7.713 66.165 90.671)" fill="#C1C1C1"/><path d="M73.871 93.186a20.05 20.05 0 0 1 11.35 7.048 8.438 8.438 0 1 0-11.35-7.048zM96.008 101.695a20.051 20.051 0 0 1 12.816-3.776 8.438 8.438 0 1 0-12.816 3.776z" fill="#fff"/><path fill-rule="evenodd" clip-rule="evenodd" d="M84.268 99.13a7.089 7.089 0 0 0-1.048-13.825 7.087 7.087 0 0 0-7.934 8.245 20.036 20.036 0 0 1 8.982 5.58zm2.124-10.87c.407 1.66-1.325 3.511-3.868 4.135-2.543.623-4.934-.218-5.34-1.878-.408-1.66 1.324-3.511 3.867-4.135 2.543-.623 4.934.218 5.341 1.878zm-1.826 8.583a1.8 1.8 0 1 0 .483-3.568 1.8 1.8 0 0 0-.483 3.568zM107.366 97.895a7.088 7.088 0 1 0-10.142 2.989 20.149 20.149 0 0 1 4.864-2.174 1.8 1.8 0 1 1 3.151-.66c.7-.089 1.41-.141 2.127-.155zm-6.151-2.969c2.543-.623 4.275-2.474 3.868-4.135-.407-1.66-2.798-2.5-5.341-1.877s-4.275 2.474-3.868 4.135c.407 1.66 2.798 2.5 5.341 1.877z" fill="#979797"/><path d="M83.497 104.427l-1.008 7.445a6.59 6.59 0 0 0 13.057 1.768l1.008-7.444c.29-2.143-1.846-3.533-3.642-2.88-1.002.364-1.886.539-2.675.432-.788-.106-1.594-.51-2.463-1.128-1.558-1.107-3.987-.336-4.277 1.807z" fill="#979797" stroke="#C1C1C1" stroke-width="3.242"/><path d="M93.188 115.457a4.968 4.968 0 0 0-8.908-1.207 4.967 4.967 0 0 0 4.072 3.428 4.966 4.966 0 0 0 4.836-2.221z" fill="#D8D8D8"/><path d="M88.618 100.246a2.122 2.122 0 1 0 4.208.57c.157-1.162-1.494-4.13-1.582-4.142-.087-.012-2.468 2.41-2.626 3.572z" fill="#979797"/><rect x="87.814" y="98.523" width="6.314" height="4.371" rx="2.186" transform="rotate(7.713 87.814 98.523)" fill="#979797"/><path d="M43.788 75.498c.417-.83 1.64-.692 1.864.209l1.767 7.129a1 1 0 0 0 .52.653l6.563 3.299c.83.417.692 1.64-.209 1.864l-7.129 1.767a1 1 0 0 0-.653.521l-3.299 6.562c-.417.83-1.64.692-1.864-.209l-1.767-7.129a1 1 0 0 0-.521-.653l-6.562-3.299c-.83-.416-.692-1.64.209-1.864l7.129-1.766a1 1 0 0 0 .652-.522l3.3-6.562zM25.675 99.894c.125-.92 1.326-1.188 1.83-.409l2.088 3.227a.999.999 0 0 0 .705.447l3.808.516c.92.125 1.188 1.327.408 1.831l-3.226 2.087a.999.999 0 0 0-.448.705l-.515 3.807c-.125.92-1.327 1.189-1.83.409l-2.088-3.226a1.003 1.003 0 0 0-.705-.448l-3.808-.515c-.92-.125-1.188-1.327-.409-1.831l3.227-2.087a.999.999 0 0 0 .447-.705l.516-3.808zM52.758 102.283c.602-.706 1.758-.28 1.76.648l.003 1.86c0 .292.129.569.35.758l1.415 1.209c.706.603.28 1.758-.648 1.76l-1.86.003a1.002 1.002 0 0 0-.758.351l-1.209 1.414c-.603.706-1.758.28-1.76-.648l-.003-1.86a.998.998 0 0 0-.35-.758l-1.415-1.209c-.706-.603-.28-1.758.648-1.76l1.86-.003c.292-.001.569-.129.758-.351l1.209-1.414zM20.758 74.283c.602-.706 1.758-.28 1.76.648l.003 1.86a1 1 0 0 0 .35.758l1.415 1.209c.705.603.28 1.758-.648 1.76l-1.86.003a1 1 0 0 0-.758.35l-1.209 1.415c-.603.706-1.758.28-1.76-.648l-.003-1.86a1 1 0 0 0-.35-.758l-1.415-1.209c-.706-.603-.28-1.758.648-1.76l1.86-.003a1 1 0 0 0 .758-.35l1.209-1.415zM87.757 15.283c.603-.705 1.76-.28 1.76.648l.004 1.86a1 1 0 0 0 .35.758l1.415 1.209c.706.603.28 1.758-.648 1.76l-1.86.003a1 1 0 0 0-.759.35l-1.208 1.415c-.603.706-1.758.28-1.76-.648l-.003-1.86a1 1 0 0 0-.35-.758l-1.415-1.209c-.706-.603-.28-1.758.648-1.76l1.86-.003a1 1 0 0 0 .758-.35l1.208-1.415z" fill="#E5E5E5"/></svg>