<svg viewBox="0 0 135 125" fill="none" xmlns="http://www.w3.org/2000/svg"><g clip-path="url(#clip0)"><path d="M107 12H28c-9.389 0-17 7.611-17 17v79c0 9.389 7.611 17 17 17h79c9.389 0 17-7.611 17-17V29c0-9.389-7.611-17-17-17z" fill="#FFCA00"/><path d="M122.44 21.93L20.92 123.45a16.938 16.938 0 0 0 7.08 1.56h41.32L124 70.33V29.01a16.938 16.938 0 0 0-1.56-7.08zM50.32 70.07l58-58c-.43 0-.87-.07-1.31-.07H58.42L25.34 45.09c-6.904 6.904-6.904 18.096 0 25s18.097 6.904 25 0l-.02-.02z" fill="#FFD900"/><path fill-rule="evenodd" clip-rule="evenodd" d="M36.331 11.999l12.669 2 75 48.903V108c0 9.389-7.611 17-17 17H72.4L16 60.508l-3.636-38.19C14.96 16.25 20.983 12 28 12l8.331-.001z" fill="#FFE75E"/><path d="M98 57H85c-9.389 0-17 7.611-17 17s7.611 17 17 17h13c9.389 0 17-7.611 17-17s-7.611-17-17-17z" fill="#FFB100"/><path d="M80.683 71.252l-.811.173c-5.448 1.158-8.926 6.513-7.768 11.961l2.251 10.593c1.158 5.448 6.514 8.926 11.962 7.768l.811-.172c5.449-1.158 8.926-6.514 7.768-11.962L92.645 79.02c-1.158-5.448-6.514-8.926-11.962-7.768z" fill="#FFB100"/><path d="M101.317 71.252l.811.173c5.449 1.158 8.926 6.513 7.768 11.961l-2.251 10.593c-1.158 5.448-6.514 8.926-11.962 7.768l-.811-.172c-5.449-1.158-8.926-6.514-7.768-11.962l2.251-10.593c1.158-5.448 6.514-8.926 11.962-7.768z" fill="#FFB100"/><path d="M92 62v-.555A14.038 14.038 0 0 0 82 48" stroke="#E27903" stroke-width="5.763" stroke-linecap="round" stroke-linejoin="round"/><path d="M80.469 64.513c-4.088 1.95-6.703 6.32-6.203 11.081" stroke="#FFCA00" stroke-width="5" stroke-linecap="round" stroke-linejoin="round"/><path d="M52 108H38v17h14v-17z" fill="#FFB100"/><path fill-rule="evenodd" clip-rule="evenodd" d="M54 8a3 3 0 0 1 3 3v51h1a2 2 0 0 1 2 2v6a2 2 0 0 1-2 2H8a2 2 0 0 1-2-2v-6a2 2 0 0 1 2-2V11a3 3 0 0 1 3-3h43z" fill="#FFB100"/><path fill-rule="evenodd" clip-rule="evenodd" d="M19.019 14H49l8 5.218V62h1a2 2 0 0 1 2 2v6a2 2 0 0 1-2 2H26.037L16.3 61.083l-.28-44.064A3 3 0 0 1 19 14h.019z" fill="#FFCA00"/><path d="M47 14H18a2 2 0 0 0-2 2v18a2 2 0 0 0 2 2h29a2 2 0 0 0 2-2V16a2 2 0 0 0-2-2zm0 28H18a2 2 0 0 0-2 2v16a2 2 0 0 0 2 2h29a2 2 0 0 0 2-2V44a2 2 0 0 0-2-2z" fill="#FFF1A2"/><path fill-rule="evenodd" clip-rule="evenodd" d="M124 108c0 .466-.019.928-.056 1.384l-.042.448-.061.501-.08.522-.064.357-.125.595-.116.474-.041.158c-.08.295-.167.586-.262.874l-.085.253-.157.434a16.988 16.988 0 0 1-2.162 4L20 117.999a2 2 0 0 1-2-2V104a2 2 0 0 1 2-2h104v6z" fill="#FFB100"/><path d="M111.185 44.842c.75 0 1.357.607 1.357 1.357v2.714c0 8.245-6.684 14.929-14.928 14.929h-2.715c-.75 0-1.357-.608-1.357-1.357V59.77c0-8.245 6.684-14.928 14.929-14.928h2.714z" fill="#FFB100"/><path fill-rule="evenodd" clip-rule="evenodd" d="M124 102v6a16.92 16.92 0 0 1-3.251 10H66.265l-13.89-16H124zm-23.787-54.598l11.221 7.317c-2.256 5.382-7.573 9.163-13.774 9.163h-2.715c-.75 0-1.357-.608-1.357-1.357V59.81c0-5.171 2.63-9.729 6.625-12.408z" fill="#FFCA00"/></g><defs><clipPath id="clip0"><path fill="#fff" d="M0 0h135v125H0z"/></clipPath></defs></svg>