<svg viewBox="0 0 135 124" fill="none" xmlns="http://www.w3.org/2000/svg"><path d="M28.385 10.987h79c9.389 0 17 7.612 17 17v79c0 9.389-7.611 17-17 17h-79c-9.39 0-17-7.611-17-17v-79c0-9.388 7.61-17 17-17z" fill="#FFCA00"/><path d="M122.825 20.92L21.305 122.438a16.937 16.937 0 0 0 7.08 1.56h41.32l54.68-54.68V28a16.938 16.938 0 0 0-1.56-7.08zm-72.12 48.14l58-58c-.43 0-.87-.07-1.31-.07h-48.59l-33.08 33.09c-6.904 6.903-6.904 18.095 0 25 6.903 6.903 18.096 6.903 25 0l-.02-.02z" fill="#FFD900"/><path d="M66.5 29.114h-9a6 6 0 0 0-6 6v77a6 6 0 0 0 6 6h9a6 6 0 0 0 6-6v-77a6 6 0 0 0-6-6z" fill="#F08904"/><path d="M42.804 111.1h-8.816a2.936 2.936 0 1 0 0 5.872h8.816a2.936 2.936 0 0 0 0-5.872zM59.051 111.1h-8.816a2.936 2.936 0 1 0 0 5.872h8.816a2.936 2.936 0 0 0 0-5.872zM75.325 111.1h-8.817a2.936 2.936 0 1 0 0 5.872h8.817a2.936 2.936 0 0 0 0-5.872zM91.572 111.1h-8.817a2.936 2.936 0 1 0 0 5.872h8.817a2.936 2.936 0 0 0 0-5.872zM107.819 111.1h-8.817a2.936 2.936 0 1 0 0 5.872h8.817a2.936 2.936 0 0 0 0-5.872zM123.884 111.1a16.944 16.944 0 0 1-2.739 5.872h-5.895a2.937 2.937 0 1 1 0-5.872h8.634z" fill="#FFB100"/><path d="M122.683 114.409c-2.755 5.67-8.57 9.578-15.298 9.578h-79c-.435 0-.865-.016-1.291-.048a4.998 4.998 0 0 1 2.109-9.53h93.48zM106.012 21.344H11.397a6 6 0 0 0-6 6v64.462a6 6 0 0 0 6 6h94.615a6 6 0 0 0 6-6V27.344a6 6 0 0 0-6-6z" fill="#F08904"/><path d="M110.946 21.344H16.33a6 6 0 0 0-6 6v64.462a6 6 0 0 0 6 6h94.616a6 6 0 0 0 6-6V27.344a6 6 0 0 0-6-6z" fill="#FFB100"/><path d="M107.285 28.015H19.99a3 3 0 0 0-3 3v57.12a3 3 0 0 0 3 3h87.295a3 3 0 0 0 3-3v-57.12a3 3 0 0 0-3-3z" fill="#FFF1A2"/><path fill-rule="evenodd" clip-rule="evenodd" d="M36.552 48.197a3.93 3.93 0 0 1-3.93 3.93h-3.39a3.93 3.93 0 0 1 0-7.86h3.39a3.93 3.93 0 0 1 3.93 3.93z" fill="#F08904"/><path fill-rule="evenodd" clip-rule="evenodd" d="M36.552 56.056a3.93 3.93 0 0 1-3.93 3.93h-3.39a3.93 3.93 0 1 1 0-7.859h3.39a3.93 3.93 0 0 1 3.93 3.93z" fill="#F08904"/><path fill-rule="evenodd" clip-rule="evenodd" d="M36.552 63.916a3.93 3.93 0 0 1-3.93 3.93h-3.39a3.93 3.93 0 1 1 0-7.86h3.39a3.93 3.93 0 0 1 3.93 3.93z" fill="#F08904"/><path d="M56.906 47.468c0-7.648-6.2-13.849-13.849-13.849s-13.849 6.2-13.849 13.85v10.457c0 7.648 6.2 13.849 13.85 13.849 7.648 0 13.848-6.2 13.848-13.85V47.469z" fill="#F79B24"/><path d="M52.647 91.135c.41-1.449.63-2.978.63-4.558 0-9.224-7.478-16.701-16.701-16.701H16.99v18.26a3 3 0 0 0 3 3h32.657z" fill="#F79B24"/><path d="M110.26 30.623a14.372 14.372 0 0 0-5.65-.302c-3.715.545-7.057 2.54-9.515 5.576-2.458-3.035-5.8-5.03-9.516-5.576-4.878-.717-10.093 1.108-14.44 5.769a2 2 0 0 0 2.926 2.728c3.582-3.841 7.535-5.039 10.933-4.54 2.366.348 4.61 1.538 6.405 3.464-3.661-.383-7.236.459-10.166 2.484-4.056 2.803-6.626 7.694-6.626 14.067a2 2 0 0 0 4 0c0-5.252 2.074-8.824 4.9-10.776 2.845-1.967 6.707-2.47 10.636-1.072a3 3 0 0 0-1.81 2.755v45.935h6V45.2c0-1.321-.854-2.442-2.04-2.843 3.842-1.287 7.599-.764 10.383 1.16 1.466 1.012 2.729 2.46 3.605 4.352v-6.6a14.115 14.115 0 0 0-1.331-1.043c-2.931-2.025-6.506-2.867-10.167-2.484 1.794-1.925 4.038-3.116 6.405-3.464 1.606-.236 3.337-.093 5.093.53v-3.793c0-.133-.008-.264-.025-.392z" fill="#F08904"/><path d="M69.978 43.777H48.856c-10.851 0-19.648 8.797-19.648 19.648 0 10.852 8.797 19.648 19.648 19.648h21.122c10.85 0 19.648-8.796 19.648-19.648 0-10.851-8.797-19.648-19.648-19.648z" fill="#F79B24"/><path fill-rule="evenodd" clip-rule="evenodd" d="M45.25 43.457v.613a4.443 4.443 0 0 1-8.888 0v-.613c0-.564.105-1.103.297-1.6h8.294c.191.497.296 1.036.296 1.6z" fill="#FFF1A2"/><path fill-rule="evenodd" clip-rule="evenodd" d="M38.841 41.49a2.533 2.533 0 0 1 2.533 2.533v.049a2.533 2.533 0 0 1-5.065 0v-.049a2.533 2.533 0 0 1 2.532-2.533z" fill="#E27903"/><path fill-rule="evenodd" clip-rule="evenodd" d="M55.881 43.457v.613a4.443 4.443 0 0 1-8.887 0v-.613c0-.564.105-1.103.297-1.6h8.293c.192.497.297 1.036.297 1.6z" fill="#FFF1A2"/><path d="M52.006 43.33a2.533 2.533 0 1 0-5.066 0v.741a2.533 2.533 0 0 0 5.066 0v-.741z" fill="#E27903"/><path fill-rule="evenodd" clip-rule="evenodd" d="M35.593 40.525h20.65a1.72 1.72 0 1 1 0 3.439h-20.65a1.72 1.72 0 1 1 0-3.439z" fill="#E27903"/><path fill-rule="evenodd" clip-rule="evenodd" d="M79.787 54.525a1.272 1.272 0 0 1 1.781.25l.96 1.273a1.272 1.272 0 1 1-2.032 1.53l-.96-1.272a1.272 1.272 0 0 1 .251-1.781zM86.797 54.525a1.272 1.272 0 0 0-1.781.25l-.96 1.273a1.272 1.272 0 0 0 2.032 1.53l.96-1.272a1.272 1.272 0 0 0-.251-1.781z" fill="#F08904"/><path d="M48.32 73.147a2.885 2.885 0 0 1-5.526 0M37.593 73.147a2.885 2.885 0 0 1-5.526 0M42.794 79.726a2.885 2.885 0 0 1-5.526 0M31.443 79.726a2.885 2.885 0 0 1-5.526 0M37.593 59.99a2.885 2.885 0 0 1-5.526 0M42.794 66.568a2.884 2.884 0 0 1-5.526 0M37.593 86.304a2.885 2.885 0 0 1-5.526 0" stroke="#F28D0C" stroke-width="2" stroke-linecap="round"/><path fill-rule="evenodd" clip-rule="evenodd" d="M62.983 61.808l.367-.319a3.521 3.521 0 1 1 4.62 5.316l-.366.319c-.337.293-.714.51-1.11.654l-4.313-4.96c.197-.373.465-.717.803-1.01z" fill="#FFF1A2"/><path fill-rule="evenodd" clip-rule="evenodd" d="M61.228 58.64a1 1 0 0 1 1.207.737c.952 3.927 3.034 6.61 6.234 8.176 3.25 1.59 7.766 2.08 13.652 1.332a1 1 0 1 1 .252 1.984c-6.076.772-11.039.312-14.783-1.52-3.795-1.856-6.224-5.065-7.299-9.5a1 1 0 0 1 .737-1.208z" fill="#E27903"/></svg>