<svg viewBox="0 0 135 124" fill="none" xmlns="http://www.w3.org/2000/svg"><path d="M11 28c0-9.389 7.611-17 17-17h79c9.389 0 17 7.611 17 17v79c0 9.389-7.611 17-17 17H28c-9.389 0-17-7.611-17-17V28z" fill="#FEC701"/><path fill-rule="evenodd" clip-rule="evenodd" d="M64.756 27.337c8.2 8.201 8.2 21.497 0 29.698l-53.407 53.407a17.071 17.071 0 0 1-.348-3.442L11 51.393l24.057-24.056c8.201-8.201 21.498-8.201 29.699 0zM124 28.393v35.355l-8.995 8.996c-4.881 4.882-12.796 4.882-17.677 0-4.882-4.881-4.882-12.796 0-17.677L124 28.393z" fill="#FFD900"/><path fill-rule="evenodd" clip-rule="evenodd" d="M17.843 68.29c0 1.072-.015 3.825-2.877 4.034H8.568c-.699 0-1.265.566-1.265 1.265 0 7.063 5.726 12.79 12.79 12.79H75.89c7.064 0 12.79-5.727 12.79-12.79 0-.699-.566-1.265-1.265-1.265h-5.977c-2.863-.21-2.878-2.962-2.878-4.035 0-1.115-.984 1.664-.984 1.664l.287 2.37H18.54l.287-2.37s-.984-2.779-.984-1.664zm69.572 5.299z" fill="#FFB100"/><path fill-rule="evenodd" clip-rule="evenodd" d="M17.844 30.44c0-6.52 5.285-11.806 11.806-11.806h37.104c6.52 0 11.806 5.286 11.806 11.806v43.992H17.845V30.44z" fill="#FFB100"/><path fill-rule="evenodd" clip-rule="evenodd" d="M21.918 37.89c0-6.133 4.971-11.104 11.103-11.104h29.375c6.132 0 11.103 4.971 11.103 11.103v48.068H21.918V37.889z" fill="#FFD900"/><path d="M26.938 28.6a11.093 11.093 0 0 0-5.02 9.29v6.725a5.833 5.833 0 0 0 5.34-5.812v-8.292c0-.67-.112-1.313-.32-1.912zM68.94 28.918a11.088 11.088 0 0 1 4.56 8.971v6.652a5.834 5.834 0 0 1-4.78-5.738v-8.292c0-.552.076-1.087.22-1.593z" fill="#FFB100"/><path fill-rule="evenodd" clip-rule="evenodd" d="M33.975 40.656a6.627 6.627 0 1 1 13.253 0v4.03a6.627 6.627 0 0 1-13.253 0v-4.03z" fill="#FFF1A2"/><path fill-rule="evenodd" clip-rule="evenodd" d="M39.459 40.94a2.975 2.975 0 0 1 5.95 0v3.736a2.975 2.975 0 0 1-5.95 0V40.94z" fill="#F68B00"/><path fill-rule="evenodd" clip-rule="evenodd" d="M62.83 40.656a6.627 6.627 0 0 0-13.254 0v4.03a6.627 6.627 0 1 0 13.254 0v-4.03z" fill="#FFF1A2"/><path fill-rule="evenodd" clip-rule="evenodd" d="M57.355 40.94a2.975 2.975 0 0 0-5.95 0v3.736a2.975 2.975 0 0 0 5.95 0V40.94z" fill="#F68B00"/><path fill-rule="evenodd" clip-rule="evenodd" d="M34.222 50.185l.078-1.333.079-1.333h.01l.02.002a7.528 7.528 0 0 1 .264.024c.17.02.41.05.704.101a14.54 14.54 0 0 1 2.308.602c1.816.637 4.117 1.852 5.838 4.164l-2.142 1.594c-1.3-1.747-3.076-2.71-4.58-3.238-.747-.262-1.409-.409-1.88-.49a8.869 8.869 0 0 0-.672-.091l-.027-.002zm0 0h-.003.003z" fill="#FFD900"/><path d="M25.293 46.112a5.692 5.692 0 1 1-11.385 0 5.692 5.692 0 0 1 11.385 0zM81.933 46.112a5.692 5.692 0 1 1-11.384 0 5.692 5.692 0 0 1 11.384 0z" fill="#FFD900"/><path d="M16.158 26.083c0-1.01.818-1.827 1.827-1.827H78.41c1.01 0 1.827.818 1.827 1.827v3.795c0 1.009-.818 1.827-1.827 1.827H17.985a1.827 1.827 0 0 1-1.827-1.827v-3.795z" fill="#F68B00"/><path d="M35.553 17.65c0-6.986 5.663-12.649 12.65-12.649 6.985 0 12.648 5.663 12.648 12.65 0 6.985-5.663 12.649-12.649 12.649-6.986 0-12.65-5.664-12.65-12.65z" fill="#FFB100"/><path d="M34.932 8.34l12.09 13.175a1.399 1.399 0 0 1-.467 2.212c-4.155 1.853-9.113.81-12.24-2.672-3.126-3.48-3.644-8.532-1.37-12.48.473-.822 1.352-.941 1.987-.235z" fill="#FFB100"/><path d="M19.53 81.037c0-.853.691-1.546 1.545-1.546h53.55c.853 0 1.545.693 1.545 1.546v5.341c0 .854-.692 1.546-1.546 1.546H21.075a1.546 1.546 0 0 1-1.546-1.546v-5.34z" fill="#F68B00"/><path fill-rule="evenodd" clip-rule="evenodd" d="M45.606 80.071a1.124 1.124 0 0 1 1.093-.86h3.429c.52 0 .971.355 1.093.86l2.269 9.417a1.124 1.124 0 0 1-1.093 1.388H44.43c-.728 0-1.264-.68-1.093-1.388l2.269-9.417z" fill="#FFF1A2"/><path fill-rule="evenodd" clip-rule="evenodd" d="M48.358 55.02a2.95 2.95 0 0 0 2.951-2.95c0-1.63-2.951-5.483-2.951-5.483s-2.952 3.854-2.952 5.483a2.95 2.95 0 0 0 2.952 2.95z" fill="#FFB100"/><path fill-rule="evenodd" clip-rule="evenodd" d="M91.175 62.84c4.954 0 8.969 4.027 8.969 8.99v1.349h-17.94V71.83c0-4.963 4.016-8.99 8.97-8.99z" fill="#F68B00"/><path d="M81.595 71.659c5.29 0 9.578-4.221 9.578-9.427 0-5.206-4.289-9.426-9.578-9.426-5.29 0-9.58 4.22-9.58 9.426s4.29 9.427 9.58 9.427z" fill="#F68B00"/><path d="M108.657 71.507H74.6c-6.382 0-11.555 5.173-11.555 11.555v22.663c0 6.381 5.173 11.555 11.555 11.555h34.057c6.381 0 11.555-5.174 11.555-11.555V83.062c0-6.382-5.174-11.555-11.555-11.555z" fill="#FFD900"/><path fill-rule="evenodd" clip-rule="evenodd" d="M83.137 82.522c3.96 0 7.17 3.21 7.17 7.17v4.36a7.168 7.168 0 0 1-14.338 0v-4.36c0-3.96 3.21-7.17 7.168-7.17zM100.013 82.522a7.169 7.169 0 0 0-7.169 7.169v4.36a7.169 7.169 0 0 0 14.338 0v-4.36c0-3.96-3.21-7.169-7.169-7.169z" fill="#FFF1A2"/><path fill-rule="evenodd" clip-rule="evenodd" d="M98.333 106.397a.76.76 0 0 0-.355-1.015c-1.427-.689-2.824-.935-4.16-.654-1.334.282-2.511 1.072-3.536 2.279a.76.76 0 0 0 1.158.985c.866-1.019 1.766-1.58 2.693-1.776.927-.196 1.979-.046 3.185.535a.76.76 0 0 0 1.015-.354z" fill="#FFB100"/><path d="M82.05 90.368a2.585 2.585 0 1 1 0-5.17 2.585 2.585 0 0 1 0 5.17z" fill="#fff"/><path fill-rule="evenodd" clip-rule="evenodd" d="M91.4 104.265a2.816 2.816 0 0 0 2.813-2.819c0-1.557-2.812-5.24-2.812-5.24s-2.813 3.683-2.813 5.24a2.816 2.816 0 0 0 2.813 2.819z" fill="#FFB100"/><path fill-rule="evenodd" clip-rule="evenodd" d="M79.21 85.728a3.218 3.218 0 0 1 3.219 3.218v4.042a3.218 3.218 0 0 1-6.437 0v-4.042a3.218 3.218 0 0 1 3.218-3.218z" fill="#F68B00"/><path d="M96.063 85.728a3.218 3.218 0 0 0-3.218 3.218v4.042a3.218 3.218 0 0 0 6.436 0v-4.042a3.218 3.218 0 0 0-3.218-3.218z" fill="#F68B00"/><path fill-rule="evenodd" clip-rule="evenodd" d="M70.992 80.48h41.266v13.01H70.992V80.48z" fill="#FFD900"/><path d="M112.674 72.224c4.401 1.632 7.538 5.869 7.538 10.838v8.666h-.696a6.842 6.842 0 0 1-6.842-6.841V72.224zM70.952 72.095v12.791a6.842 6.842 0 0 1-6.842 6.842h-1.065v-8.666c0-5.107 3.313-9.44 7.907-10.967z" fill="#F68B00"/><path d="M121.656 97.195a5.093 5.093 0 1 0 0-10.186 5.093 5.093 0 0 0 0 10.186zM61.297 97.336a5.093 5.093 0 1 0 0-10.187 5.093 5.093 0 0 0 0 10.187z" fill="#FFD900"/><path d="M41.988 38.596a2.179 2.179 0 1 1-4.357 0 2.179 2.179 0 0 1 4.357 0zM50.047 38.596a2.179 2.179 0 1 0 4.357 0 2.179 2.179 0 0 0-4.357 0z" fill="#FFF1A2"/><path fill-rule="evenodd" clip-rule="evenodd" d="M43.109 65.754c-5.803-.508-10.006-3.172-11.606-8.005a4.779 4.779 0 0 1 8.727-3.801c.718.987 1.762 1.909 3.224 2.233.156.02.319.037.488.052l.078.007a4.779 4.779 0 0 1-.911 9.514z" fill="#FF9600"/><path fill-rule="evenodd" clip-rule="evenodd" d="M43.109 65.754c-5.803-.508-10.006-3.172-11.606-8.005a4.779 4.779 0 0 1 8.727-3.801c.718.987 1.762 1.909 3.224 2.233.156.02.319.037.488.052l.078.007a4.779 4.779 0 0 1-.911 9.514z" fill="#FF9600"/><path d="M38.873 64.903c1.288.433 2.706.717 4.235.85a4.779 4.779 0 0 0 5.194-4.866 8.669 8.669 0 0 0-1.986-.229 8.64 8.64 0 0 0-7.443 4.245z" fill="#F68B00"/><path d="M44.097 56.249a4.755 4.755 0 0 0-.077-.009l-.078-.007c-.17-.015-.332-.032-.488-.052-1.462-.324-2.506-1.246-3.224-2.233a4.78 4.78 0 0 0-8.796 1.024 2.53 2.53 0 0 0 2.446 1.883h1.968a2.53 2.53 0 0 0 2.319-1.518 2.53 2.53 0 0 0 2.32 1.518h1.967a2.52 2.52 0 0 0 1.643-.606z" fill="#FFF1A2"/></svg>