<svg viewBox="0 0 135 124" fill="none" xmlns="http://www.w3.org/2000/svg"><path d="M11 28c0-9.389 7.611-17 17-17h79c9.389 0 17 7.611 17 17v79c0 9.389-7.611 17-17 17H28c-9.389 0-17-7.611-17-17V28z" fill="#FEC701"/><path fill-rule="evenodd" clip-rule="evenodd" d="M64.756 27.15c8.2 8.202 8.2 21.498 0 29.7l-53.407 53.406a17.078 17.078 0 0 1-.348-3.442L11 51.207l24.057-24.056c8.201-8.201 21.498-8.201 29.699 0zM124 28.208v35.354l-8.995 8.997c-4.881 4.882-12.796 4.882-17.677 0-4.882-4.881-4.882-12.796 0-17.678L124 28.207z" fill="#FFD900"/><path fill-rule="evenodd" clip-rule="evenodd" d="M7.953 32.074C9.776 15.831 23.511 3.551 39.856 3.551c15.806 0 29.261 11.506 31.714 27.12l7.624 48.526a1.629 1.629 0 0 1-1.609 1.881H4.275a1.629 1.629 0 0 1-1.618-1.81l5.296-47.194z" fill="#F68B00"/><path d="M65.713 69.025H31.568v-29.5h9.219v-2.592a8.539 8.539 0 0 0-8.54-8.539h-.679V12.813c2.394 8.087 9.88 13.988 18.744 13.988h17.932a27.26 27.26 0 0 1 1.21 5.02h1.09a6.19 6.19 0 0 1 .32 12.37l1.911 16.93c.476 4.214-2.821 7.904-7.062 7.904z" fill="#FFD900"/><path fill-rule="evenodd" clip-rule="evenodd" d="M42.522 53.827c-2.222-1.278-4.676-1.315-5.562-1.183a.8.8 0 1 1-.234-1.583c1.156-.171 3.992-.118 6.594 1.379a.8.8 0 1 1-.798 1.387z" fill="#F68B00"/><path d="M31.568 39.525v-11.13h.68a8.539 8.539 0 0 1 8.539 8.538v2.592h-9.219zM59.284 39.525V29.438c0-.576-.468-1.044-1.044-1.044h-6.826a8.539 8.539 0 0 0-8.54 8.54v2.591h16.41z" fill="#FFB100"/><path fill-rule="evenodd" clip-rule="evenodd" d="M33.047 69.026h15.652v12.006H33.047V69.026z" fill="#FF9600"/><path fill-rule="evenodd" clip-rule="evenodd" d="M41.906 49.876a3.297 3.297 0 0 0 3.306-3.287c0-1.816-3.306-6.11-3.306-6.11S38.6 44.773 38.6 46.59a3.297 3.297 0 0 0 3.306 3.287z" fill="#F68B00"/><path fill-rule="evenodd" clip-rule="evenodd" d="M40.787 41.662h-9.219v-2.137h9.219v2.137zm2.088 0v-2.137h16.409a8.544 8.544 0 0 1-.29 2.137h-16.12z" fill="#FFF1A2"/><path d="M37.878 41.662h-6.31v-2.137h6.608v.683c0 .516-.106 1.008-.298 1.454zM45.82 39.525h7.366v.683c0 .516-.106 1.008-.298 1.454h-6.77a3.671 3.671 0 0 1-.299-1.454v-.683z" fill="#F68B00"/><path d="M56.379 77.695c0-20.908 16.95-37.857 37.857-37.857 20.908 0 37.857 16.95 37.857 37.857v4.075c0 20.907-16.949 37.857-37.857 37.857-20.908 0-37.857-16.95-37.857-37.858v-4.074z" fill="#FFF1A2"/><path d="M98.273 108.484c-6.662 2.694-15.143 4.143-25.952 3.34a1.76 1.76 0 0 0-.891.165 37.91 37.91 0 0 0 5.807 3.616c12.494.143 21.95-2.776 29.08-7.219 8.071-5.029 13.021-11.923 16.041-18.207.156-.326.205-.675.161-1.008-3.832 10.239-13.073 17.836-24.246 19.313z" fill="#FFB100"/><path fill-rule="evenodd" clip-rule="evenodd" d="M64.154 78.612c0-16.642 13.491-30.133 30.133-30.133S124.42 61.97 124.42 78.612s-13.491 30.133-30.133 30.133-30.133-13.491-30.133-30.133z" fill="#FFD900"/><path d="M74.654 77.987a6.92 6.92 0 0 0 1.952 3.012H93.74c.307-.97.397-2 .262-3.012H74.654zM95.085 77.987a6.942 6.942 0 0 0 .261 3.012h17.133a6.909 6.909 0 0 0 1.952-3.012H95.085z" fill="#fff"/><path d="M82.27 77.987v1.236c0 .63.126 1.23.356 1.776h8.454a4.57 4.57 0 0 0 .357-1.776v-1.236h-9.168zM97.89 77.987v1.236c0 .63.127 1.23.357 1.776h8.454c.23-.546.356-1.146.356-1.776v-1.236H97.89zM111.085 53.592c-6.766 6.902-18.962 18.8-41.177 18.043a10.66 10.66 0 0 1-1.653-.202 11.652 11.652 0 0 1-1.955-.352c-4.86-1.308-8.283-5.567-8.543-10.47-.054-1.021.67-1.645 1.655-1.38l3.392.875c5.38 1.17 8.21-1.27 10.771-3.48.37-.318.733-.632 1.097-.929.095-.077.19-.145.287-.204a30.012 30.012 0 0 1 19.328-7.014 29.99 29.99 0 0 1 16.798 5.113z" fill="#F68B00"/><path fill-rule="evenodd" clip-rule="evenodd" d="M92.266 102.582l-.248-.799a.838.838 0 0 0 .497 1.598l.005-.002.028-.008.119-.033c.105-.028.258-.066.442-.104.375-.077.856-.15 1.324-.15.468 0 .954.073 1.334.15a9.317 9.317 0 0 1 .57.138l.03.008.005.002a.837.837 0 0 0 .49-1.6l-.243.792.243-.792h-.001l-.002-.001-.004-.001-.013-.004-.044-.013-.156-.042c-.132-.035-.318-.08-.54-.126a8.534 8.534 0 0 0-1.67-.184c-.623 0-1.225.095-1.661.184-.22.046-.404.092-.535.126l-.154.043-.044.013-.013.004-.005.002h-.001l.247.799zM94.442 90.535c1.57 0 2.844-1.284 2.844-2.868 0-1.584-2.844-5.33-2.844-5.33s-2.844 3.746-2.844 5.33 1.273 2.868 2.844 2.868z" fill="#F68B00"/></svg>