<svg xmlns="http://www.w3.org/2000/svg" viewBox="0 0 135 124"><defs><style>.cls-1{fill:#f89700}.cls-2{fill:#ffc800}.cls-3{fill:#ffe865}.cls-4{fill:#ffb100}.cls-5{fill:#e27800}</style></defs><g id="Layer_3" data-name="Layer 3"><path class="cls-1" d="M124.06 87.6V28a17 17 0 0 0-17-17h-79a17 17 0 0 0-17 17v59.6z"/><path class="cls-2" d="M124.05 77.51V107a17 17 0 0 1-17 17h-79a17 17 0 0 1-17-17V77.43a110.6 110.6 0 0 1 113 .08z"/><path class="cls-3" d="M103.52 95.65L118 74.73a4.2 4.2 0 0 0-1.21-5.94L67.5 37.92v-.26l-.2.13-.21-.13v.26L18.34 68.79a4.2 4.2 0 0 0-1.21 5.94l14.45 20.92zM31.58 95.65A49.84 49.84 0 0 1 40.42 124h54.26a49.84 49.84 0 0 1 8.84-28.35"/><path class="cls-4" d="M32.13 14.92L48.59.7a2 2 0 0 1 2.63 0l16.25 14.22"/><path class="cls-4" d="M67.37 14.92L83.84.7a2 2 0 0 1 2.62 0l16.25 14.21"/><circle class="cls-4" cx="34.32" cy="60.57" r="12.29"/><circle class="cls-4" cx="100.78" cy="60.57" r="12.29"/><path class="cls-5" d="M104.82 62.83v42a8.76 8.76 0 0 1-6.51 8.49l-22.82 6.1-5.83 1.56a7.44 7.44 0 0 1-3.69 0l-6-1.58-23.08-6.08a8.82 8.82 0 0 1-6.56-8.51V62.83z"/><path class="cls-5" d="M91.52 81.45H43.58c-7.33 0-13.26-3.08-13.26-10.4V39.41C30.32 27.46 40 14.57 52 14.57h31.14c12 0 21.64 12.89 21.64 24.84v31.64c0 7.32-5.93 10.4-13.26 10.4z"/><path class="cls-2" d="M42.18 105.14a10.4 10.4 0 0 1-7.32-9.93V48.26a32.15 32.15 0 0 1 4.29-16.13c5.58-9.83 53.43-4.75 54.32-3.54a32.25 32.25 0 0 1 6.64 19.67v46.61a10.39 10.39 0 0 1-7.31 9.92L75 110.33a27.05 27.05 0 0 1-16 0z"/><path class="cls-4" d="M67.32 56.17a8.47 8.47 0 0 1-2.39-.34L46 50.41a2 2 0 1 1 1.13-3.91l18.89 5.42a4.55 4.55 0 0 0 2.56 0l18.66-5.42a2 2 0 1 1 1.13 3.91l-18.62 5.41a8.71 8.71 0 0 1-2.43.35zM93.15 104.61a2 2 0 0 1-2-2V85.24a2 2 0 0 1 4.07 0v17.34a2 2 0 0 1-2.07 2.03zM41.94 104.61a2 2 0 0 1-2-2V85.24a2 2 0 0 1 4.07 0v17.34a2 2 0 0 1-2.07 2.03zM38.44 61h24.7v13.9H45.36a6.93 6.93 0 0 1-6.92-6.9v-7z"/><path class="cls-4" d="M56.83 61.95h6.31v12.98h-6.31z"/><path class="cls-4" d="M78.74 61h17.78v13.9H71.81V68a6.93 6.93 0 0 1 6.93-7z" transform="rotate(-180 84.165 67.97)"/><path class="cls-4" d="M71.58 62.65h8.44V74.9h-8.44z"/><path class="cls-5" d="M88.28 113.74H46.39V84.93A6.74 6.74 0 0 1 52 78.29l15.46-2.57 15.19 2.56a6.73 6.73 0 0 1 5.61 6.64z"/><path class="cls-3" d="M53.93 85.22h26.82a1.67 1.67 0 0 1 1.67 1.67A6.08 6.08 0 0 1 76.33 93h-18a6.08 6.08 0 0 1-6.08-6.08 1.67 1.67 0 0 1 1.67-1.67z" transform="rotate(-180 67.335 89.095)"/><rect class="cls-1" x="63.14" y="58" width="8.68" height="24.22" rx="4.34"/><path class="cls-5" d="M88.28 85.81v7.09a3.32 3.32 0 0 0 4.67 3l3.68-1.64a5.88 5.88 0 0 0 3.48-5.36V78.29h3.18v27.95L85 113.74V85zM46.52 85.81v7.09a3.31 3.31 0 0 1-4.66 3l-3.69-1.64a5.88 5.88 0 0 1-3.47-5.36v-7.76h-3.18v25.1l18.28 7.5V85z"/><path class="cls-4" d="M44.2 79.7a2 2 0 0 1-2-1.54 2 2 0 0 1 1.47-2.47l16.83-4.28a2 2 0 0 1 1 4l-16.79 4.22a2.24 2.24 0 0 1-.51.07zM91.18 80.33a2.09 2.09 0 0 1-.55-.08l-17.2-4.91a2 2 0 1 1 1.12-3.91l17.19 4.9a2 2 0 0 1-.56 4z"/><path class="cls-4" d="M44.2 79.7a2 2 0 0 1-2-1.54 2 2 0 0 1 1.47-2.47l16.83-4.28a2 2 0 0 1 1 4l-16.79 4.22a2.24 2.24 0 0 1-.51.07zM91.18 80.33a2.09 2.09 0 0 1-.55-.08l-17.2-4.91a2 2 0 1 1 1.12-3.91l17.19 4.9a2 2 0 0 1-.56 4z"/><path class="cls-3" d="M61.27 58.64v7.12A9.27 9.27 0 0 1 52 75a9.27 9.27 0 0 1-9.26-9.27v-7.09z"/><rect class="cls-5" x="50.39" y="58.6" width="7.45" height="12.17" rx="3.72"/><path class="cls-3" d="M73.92 58.64v7.12A9.26 9.26 0 0 0 83.18 75a9.27 9.27 0 0 0 9.27-9.27v-7.09z"/><rect class="cls-5" x="77.25" y="58.6" width="7.45" height="12.17" rx="3.72" transform="rotate(-180 80.97 64.685)"/><path class="cls-5" d="M74.43 54.86h22.24a1.81 1.81 0 0 1 1.81 1.81v2.9a6.06 6.06 0 0 1-6.06 6.06H74.29a2.68 2.68 0 0 1-2.68-2.68v-5.27a2.82 2.82 0 0 1 2.82-2.82z" transform="rotate(-8.25 85.065 60.284)"/><path class="cls-5" d="M39 54.86h18.17a6.06 6.06 0 0 1 6.06 6.06v2.9a1.81 1.81 0 0 1-1.81 1.81H39.17a2.82 2.82 0 0 1-2.82-2.82v-5.26A2.68 2.68 0 0 1 39 54.86z" transform="rotate(-171.75 49.79 60.25)"/><path d="M32.29 1.94l17.42 13L66.17.69a2 2 0 0 1 2.62 0L85 14.92l17.69-13a2 2 0 0 1 3.17 1.6v42.74H29.11V3.53a2 2 0 0 1 3.18-1.59z" fill="#ffd900"/><rect class="cls-4" x="26.96" y="43.68" width="81.18" height="5.16" rx="2.58"/><path class="cls-4" d="M75.49 27.69a8 8 0 0 1-16 0A7.74 7.74 0 0 1 60 25a7.94 7.94 0 0 1 4.3-4.61 7.81 7.81 0 0 1 3.2-.68 8 8 0 0 1 7.99 7.98z"/><path class="cls-3" d="M67.5 27.69L60 25a7.94 7.94 0 0 1 4.3-4.61z"/></g></svg>