<svg viewBox="0 0 135 124" fill="none" xmlns="http://www.w3.org/2000/svg"><path fill-rule="evenodd" clip-rule="evenodd" d="M27.958 11h79c9.389 0 17 7.611 17 17v79c0 9.389-7.611 17-17 17h-79c-9.389 0-17-7.611-17-17V28c0-9.389 7.611-17 17-17z" fill="#DBDBDB"/><path d="M97.353 37.802l-14.5-33.288a2.1 2.1 0 0 0-3.863.03l-13.901 33.3a2.999 2.999 0 0 0 2.296 4.12l-6.778 15.223A2 2 0 0 0 62.434 60h2.957l-8.878 21.228A2 2 0 0 0 58.36 84h40.94a2 2 0 0 0 1.833-2.8L91.882 60h8.922a2.001 2.001 0 0 0 1.814-2.843L95.51 41.86a3 3 0 0 0 1.842-4.057z" fill="#CDCDCD"/><path d="M60.95 21.94l-3.535-3.536a1.5 1.5 0 0 0-2.121 0l-3.536 3.535a1.5 1.5 0 0 0 0 2.122l3.536 3.535a1.5 1.5 0 0 0 2.12 0l3.536-3.535a1.5 1.5 0 0 0 0-2.122zM48.718 36.793l-2.121-2.121a1 1 0 0 0-1.414 0l-2.122 2.12a1 1 0 0 0 0 1.415l2.122 2.121a1 1 0 0 0 1.414 0l2.121-2.12a1 1 0 0 0 0-1.415z" fill="#fff"/><path fill-rule="evenodd" clip-rule="evenodd" d="M107.066 124l-79.216-.001-.215-.002c-8.22-.153-15.014-6.142-16.413-13.997h112.472c-1.41 7.924-8.311 13.948-16.628 14z" fill="#B2B2B2"/><path d="M39.868 55.186L26.59 25.395a2.1 2.1 0 0 0-3.849.03l-12.725 29.79A2 2 0 0 0 11.855 58h1.897L5.575 73.608A3 3 0 0 0 8.233 78h2.58l-7.3 14.663A3 3 0 0 0 6.2 97h11.307v17.611h13.87V97h13.872a3 3 0 0 0 2.663-4.383L40.317 78h2.862a3 3 0 0 0 2.632-4.44L37.304 58h.737a2 2 0 0 0 1.827-2.814zM121.686 46.8l-13.648-31.292a2.1 2.1 0 0 0-3.862.03L91.092 46.843A3 3 0 0 0 93.86 51h2.014L87.53 67.656A3 3 0 0 0 90.212 72h1.121L81.52 91.66A3 3 0 0 0 84.204 96h15.15v19.412h16V96h13.112a3 3 0 0 0 2.661-4.386L120.912 72h2.482a2.999 2.999 0 0 0 2.658-4.39L117.37 51h1.566a3 3 0 0 0 2.75-4.2z" fill="#B2B2B2"/><path fill-rule="evenodd" clip-rule="evenodd" d="M81.92 53.475l26.867 54.189a1.692 1.692 0 0 1-1.517 2.445H54.184a1.693 1.693 0 0 1-1.692-1.743l1.642-56.302h25.51a2.54 2.54 0 0 1 2.276 1.411z" fill="#BFBDBD"/><path fill-rule="evenodd" clip-rule="evenodd" d="M56.433 53.542l25.351 54.156a1.693 1.693 0 0 1-1.533 2.411H28.016a1.693 1.693 0 0 1-1.533-2.411l25.35-54.155a2.54 2.54 0 0 1 4.6 0z" fill="#CDCDCD"/><path fill-rule="evenodd" clip-rule="evenodd" d="M53.777 82c9.252 0 16.896 7.22 17.423 16.457l.665 11.652H35.512l.739-11.659C36.837 89.201 44.51 82 53.777 82z" fill="#F3F3F3"/><path fill-rule="evenodd" clip-rule="evenodd" d="M53.243 80.604c10.284 0 18.622 8.338 18.622 18.622v11.004c-10.893-2.476-18.622-12.159-18.622-23.33v-6.296z" fill="#CDCDCD"/><path fill-rule="evenodd" clip-rule="evenodd" d="M54.133 80.604c-10.284 0-18.621 8.338-18.621 18.622v11.004c10.892-2.476 18.621-12.159 18.621-23.33v-6.296z" fill="#CDCDCD"/><path d="M53.866 61.783c.695 0 1.266.53 1.33 1.208l.007.129v26.06a1.336 1.336 0 0 1-2.667.13l-.006-.13V63.12c0-.738.598-1.337 1.336-1.337z" fill="#BFBDBD"/></svg>