<svg viewBox="0 0 136 124" fill="none" xmlns="http://www.w3.org/2000/svg"><path d="M12.043 28c0-9.389 7.611-17 17-17h79c9.389 0 17 7.611 17 17v79c0 9.389-7.611 17-17 17h-79c-9.389 0-17-7.611-17-17V28z" fill="#FEC701"/><path fill-rule="evenodd" clip-rule="evenodd" d="M65.799 27.337c8.2 8.201 8.2 21.497 0 29.698l-53.407 53.407a17.071 17.071 0 0 1-.348-3.442l-.001-55.607L36.1 27.337c8.201-8.201 21.498-8.201 29.699 0zm59.244 1.056v35.355l-8.995 8.996c-4.881 4.882-12.796 4.882-17.677 0-4.882-4.881-4.882-12.796 0-17.677l26.672-26.674z" fill="#FFD900"/><path d="M17.102 38.794c0-17.817 14.443-32.26 32.26-32.26h.75c17.816 0 32.26 14.443 32.26 32.26v4.262c0 17.817-14.444 32.26-32.26 32.26h-.75c-17.817 0-32.26-14.443-32.26-32.26v-4.262z" fill="#FFF1A2"/><path d="M51.505 66.842a45.615 45.615 0 0 1-3.256.962c-6.556 1.68-13.025 1.874-17.386 1.685a32.2 32.2 0 0 0 5.856 3.256c3.722-.168 8.004-.665 12.341-1.776 8.387-2.15 17.171-6.654 22.354-15.727-4.344 6.564-11.59 11.04-19.909 11.6z" fill="#FFB100"/><path d="M75.712 40.925c0 14.346-11.63 25.976-25.976 25.976-14.346 0-25.976-11.63-25.976-25.976 0-14.346 11.63-25.976 25.976-25.976 14.346 0 25.976 11.63 25.976 25.976z" fill="#FFD900"/><path d="M49.738 42.578c.124 0 1.222 1.743 2.34 3.571 1.112 1.82-.207 4.14-2.34 4.14s-3.453-2.32-2.34-4.14c1.118-1.828 2.216-3.571 2.34-3.571z" fill="#F68B00"/><path d="M56.255 32.1c-3.762 1.987-5.414 4.259-5.848 6.398a5.87 5.87 0 0 0 8.912 6.15c.514-.303.89-.531 1.19-.713 1.09-.662 1.147-.697 3.119-1.493a5.397 5.397 0 0 0 .188-.076v-.002a5.872 5.872 0 0 0-.079-10.813c-2.719-1.14-6.006-.167-7.482.549z" fill="#FFF1A2"/><path d="M53.894 38.394a2.618 2.618 0 0 0 2.263-3.934 3.905 3.905 0 0 1 3.707 3.9v1.81a3.905 3.905 0 1 1-7.81 0v-1.81c0-.227.02-.45.057-.667.468.435 1.094.7 1.783.7z" fill="#E27800"/><path d="M43.218 32.1c3.762 1.987 5.414 4.259 5.847 6.398a5.87 5.87 0 0 1-8.912 6.15c-.514-.303-.89-.531-1.188-.713-1.09-.662-1.149-.697-3.12-1.493a5.405 5.405 0 0 1-.112-.045l-.077-.031.001-.002a5.872 5.872 0 0 1 .078-10.813c2.72-1.14 6.007-.167 7.483.549z" fill="#FFF1A2"/><path d="M41.448 38.394a2.618 2.618 0 0 0 2.264-3.934 3.905 3.905 0 0 1 3.707 3.9v1.81a3.905 3.905 0 1 1-7.81 0v-1.81c0-.227.02-.45.057-.667.467.435 1.094.7 1.782.7zM42.316 59.642a7.421 7.421 0 0 1 14.843 0v.126a1.708 1.708 0 0 1-2.293 1.605l-3.538-1.289a4.647 4.647 0 0 0-3.18 0l-3.539 1.29a1.708 1.708 0 0 1-2.293-1.606v-.126z" fill="#E27800"/><path d="M54.72 61.32l-3.392-1.236a4.647 4.647 0 0 0-3.18 0l-3.392 1.236a4.994 4.994 0 1 1 9.963 0z" fill="#FFB100"/><path d="M68.205 26.984c.802 2.97-3.475 6.708-9.553 8.348-6.078 1.64-11.655.56-12.457-2.41-.801-2.97 3.476-6.709 9.554-8.348 6.078-1.64 11.655-.561 12.456 2.41z" fill="#FFD900"/><path d="M28.765 34.91c19.15.653 29.664-9.604 35.497-15.554a25.855 25.855 0 0 0-14.48-4.407 25.871 25.871 0 0 0-16.657 6.042c-.085.052-.17.111-.253.18-.315.256-.628.526-.946.8-2.256 1.946-4.753 4.1-9.589 2.93l-.264-.061-2.417-.623c-.85-.229-1.474.309-1.427 1.189.224 4.227 3.176 7.898 7.364 9.026.596.16 1.196.264 1.794.313a9.1 9.1 0 0 0 1.378.165z" fill="#E27800"/><path d="M64.31 22.657l1.9 2.033c1.612 1.726.365 4.54-1.996 4.506-2.36-.034-3.525-2.885-1.863-4.562l1.959-1.977zM68.973 28.05l1.106 1.184c.938 1.004.212 2.642-1.161 2.622-1.374-.02-2.052-1.68-1.085-2.655l1.14-1.15z" fill="#FFF1A2"/><path d="M59.03 70.028c2.084-12.794 13.135-22.19 26.097-22.19 12.963 0 24.014 9.396 26.098 22.19l6.81 41.808a1.794 1.794 0 0 1-1.77 2.083H53.99a1.794 1.794 0 0 1-1.77-2.083l6.81-41.808z" fill="#FF9600"/><path d="M77.22 58.336h-.197A14.353 14.353 0 0 0 62.76 71.081L59.838 97a5.83 5.83 0 0 0 5.794 6.484h40.039a5.83 5.83 0 0 0 5.794-6.484l-.911-16.04a5.26 5.26 0 0 0-.112-10.52H92.506c-7.434 0-13.66-5.166-15.285-12.105z" fill="#FFD900"/><path d="M78.549 104.382c0-.495.401-.897.897-.897h11.368c.496 0 .897.402.897.897v8.64a.897.897 0 0 1-.897.897H79.446a.897.897 0 0 1-.897-.897v-8.64z" fill="#F68B00"/><path d="M84.973 79.534a7.176 7.176 0 0 0-7.177-7.177h-5.815a.897.897 0 0 0-.897.898v7.093a7.176 7.176 0 0 0 7.176 7.176h3.326a3.386 3.386 0 0 0 3.387-3.386v-4.604z" fill="#FFF1A2"/><path d="M100.626 78.274H86.848a7.178 7.178 0 0 1 7.066-5.916h5.815c.495 0 .897.401.897.897v5.02z" fill="#F68B00"/><path d="M86.738 79.534a7.176 7.176 0 0 1 7.177-7.177h5.815c.495 0 .897.402.897.898v7.093a7.176 7.176 0 0 1-7.177 7.176h-3.325a3.386 3.386 0 0 1-3.387-3.386v-4.604z" fill="#FFF1A2"/><path d="M89.172 81.135v1.285a3.118 3.118 0 1 0 6.235 0v-1.285h-6.235zM76.188 81.135v1.285a3.118 3.118 0 1 0 6.235 0v-1.285h-6.236z" fill="#E27800"/><path d="M100.311 82.46l-13.573 1.473v-4.4a7.176 7.176 0 0 1 7.177-7.175h5.815c.495 0 .897.401.897.897v7.093c0 .735-.111 1.445-.316 2.112zM84.972 83.964v-4.43a7.176 7.176 0 0 0-7.176-7.177h-5.815a.897.897 0 0 0-.897.898v7.093c0 .747.114 1.467.326 2.144l13.562 1.472z" fill="#FFB100"/><path d="M77.17 109.05V56.237h-2.7A13.904 13.904 0 0 0 60.73 68.02l-6.334 41.03H77.17z" fill="#FF9600"/><path d="M85.713 84.002c.128 0 1.26 1.798 2.413 3.684 1.148 1.877-.213 4.27-2.413 4.27-2.2 0-3.561-2.393-2.414-4.27 1.153-1.886 2.286-3.684 2.414-3.684z" fill="#F68B00"/><path fill-rule="evenodd" clip-rule="evenodd" d="M88.803 95.938c-2.182.726-3.92 1.846-4.825 2.624a.956.956 0 0 1-1.247-1.45c1.088-.936 3.044-2.182 5.468-2.989 2.432-.809 5.395-1.194 8.45-.313a.956.956 0 1 1-.529 1.838c-2.586-.745-5.142-.433-7.317.29z" fill="#F68B00"/></svg>