<svg viewBox="0 0 135 124" fill="none" xmlns="http://www.w3.org/2000/svg"><g clip-path="url(#clip0)"><rect x="124" y="124.01" width="113" height="113" rx="17" transform="rotate(-180 124 124.01)" fill="#FFCA00"/><path d="M122.44 20.93L20.92 122.45a16.937 16.937 0 0 0 7.08 1.56h41.32L124 69.33V28.01a16.938 16.938 0 0 0-1.56-7.08zM50.32 69.07l58-58c-.43 0-.87-.07-1.31-.07H58.42L25.34 44.09c-6.904 6.904-6.904 18.096 0 25 6.903 6.904 18.096 6.904 25 0l-.02-.02z" fill="#FFD900"/><path d="M98.783 121.253c15.6 0 28.247-12.417 28.247-27.734 0-15.317-12.647-27.734-28.247-27.734S70.536 78.202 70.536 93.52c0 15.317 12.646 27.734 28.247 27.734z" fill="#FFF1A2"/><path fill-rule="evenodd" clip-rule="evenodd" d="M82.846 109.13c-8.741-8.74-8.752-22.907-.017-31.641 8.734-8.734 22.9-8.724 31.641.017a1.903 1.903 0 0 1-2.691 2.69c-7.257-7.257-19.014-7.261-26.26-.016-7.245 7.245-7.24 19.002.017 26.259a1.903 1.903 0 0 1-2.69 2.691z" fill="#FFE761"/><path d="M13.656 25.74l.002-.001a7.588 7.588 0 0 1 6.69-8.24l35.522-4.076a7.588 7.588 0 0 1 8.383 6.51h.002l3.984 34.728a2.626 2.626 0 0 0 2.908 2.31l5.123-.588c.6-.069 1.143.362 1.212.962.674 5.873-3.541 11.18-9.414 11.854L21.1 74.588c-5.873.674-11.18-3.54-11.854-9.413-.068-.6.362-1.143.963-1.212l5.122-.588a2.626 2.626 0 0 0 2.31-2.908l-3.985-34.728z" fill="#FFB100"/><path d="M17.574 26.289l42.989-4.932 4.921 42.895-42.988 4.933-4.922-42.896z" fill="#FFBB31"/><path d="M17.737 45.806a4.775 4.775 0 1 0-1.088-9.488 4.775 4.775 0 0 0 1.088 9.488zM64.825 40.403a4.775 4.775 0 1 0-1.089-9.488 4.775 4.775 0 0 0 1.089 9.488z" fill="#FFBB31"/><path d="M20.475 70.192a1.313 1.313 0 0 1 1.155-1.454l44.596-5.117a1.313 1.313 0 0 1 1.454 1.155l.507 4.42a1.313 1.313 0 0 1-1.154 1.453l-44.597 5.117a1.313 1.313 0 0 1-1.454-1.155l-.507-4.419z" fill="#E27800"/><path d="M14.95 36.847a4.775 4.775 0 0 1 6.214 1.552 5.322 5.322 0 0 0 1.419-4.268l-.762-6.642-7.842.9.97 8.458zM59.818 33.97a4.775 4.775 0 0 1 5.692-2.928l-.97-8.455-7.842.9.762 6.642a5.322 5.322 0 0 0 2.358 3.842z" fill="#FFB100"/><path d="M12.094 24.514a1.313 1.313 0 0 1 1.155-1.454l50.796-5.829a1.313 1.313 0 0 1 1.454 1.155l.413 3.6a1.313 1.313 0 0 1-1.155 1.453L13.96 29.268a1.313 1.313 0 0 1-1.454-1.155l-.413-3.6z" fill="#E27800"/><path d="M40.898 24.963c5.814-.667 9.987-5.922 9.32-11.737-.667-5.814-5.922-9.987-11.736-9.32a10.59 10.59 0 0 0-8.387 6.026l-2.241-1.963c-.617-.54-1.58-.388-1.874.378a9.207 9.207 0 0 0-.552 4.367 9.24 9.24 0 0 0 5.261 7.32 10.598 10.598 0 0 0 10.209 4.929z" fill="#FFB100"/><path d="M41.664 67.168a.945.945 0 0 1 .83-.824l2.868-.329a.945.945 0 0 1 .996.615l2.785 7.627a.945.945 0 0 1-.78 1.264l-6.639.762a.945.945 0 0 1-1.046-1.054l.986-8.06z" fill="#FFF1A2"/><path d="M40.782 38.757c.113-.013 1.296 1.46 2.507 3.01 1.204 1.542.243 3.795-1.7 4.018-1.945.223-3.39-1.753-2.566-3.528.827-1.784 1.646-3.487 1.76-3.5z" fill="#FFA403"/><path d="M41.192 33.701a5.56 5.56 0 0 1 11.046-1.267l.385 3.36a5.56 5.56 0 0 1-11.046 1.267l-.385-3.36zM28.192 35.193a5.56 5.56 0 0 1 11.045-1.267l.386 3.359a5.56 5.56 0 0 1-11.046 1.267l-.386-3.36z" fill="#FFF1A2"/><path d="M43.538 33.533a1.955 1.955 0 0 0 1.636-2.546 2.536 2.536 0 0 1 2.532 2.246l.347 3.023a2.535 2.535 0 0 1-5.037.578l-.347-3.023a2.548 2.548 0 0 1-.015-.38c.274.099.574.138.884.102zM33.582 34.675a1.955 1.955 0 0 0 1.636-2.546 2.535 2.535 0 0 1 2.532 2.247l.347 3.022a2.535 2.535 0 0 1-5.037.578l-.347-3.022a2.564 2.564 0 0 1-.015-.38c.274.098.574.137.884.101z" fill="#E27800"/><path d="M24.138 28.273l30.482-3.497 1.166 10.168-30.481 3.498-1.167-10.169z" fill="#FFBB31"/><path fill-rule="evenodd" clip-rule="evenodd" d="M49.315 49.777c.308.192.401.597.209.904-2.818 4.509-7.548 4.913-9.599 4.542a.657.657 0 0 1 .234-1.292c1.706.309 5.806-.033 8.252-3.946a.656.656 0 0 1 .904-.208z" fill="#FFB100"/><path fill-rule="evenodd" clip-rule="evenodd" d="M52.708 43.246a.9.9 0 0 1 .03 1.272c-7.58 7.946-16.502 5.92-20.07 3.855a.9.9 0 1 1 .902-1.558c3.066 1.774 11.016 3.641 17.866-3.54a.9.9 0 0 1 1.272-.03z" fill="#FFA403"/><circle cx="29.675" cy="48.123" r="6.266" transform="rotate(-6.545 29.675 48.123)" fill="#FFBB31"/><path fill-rule="evenodd" clip-rule="evenodd" d="M28.067 42a.9.9 0 0 1 .791-.996 7.166 7.166 0 0 1 1.634 14.238.9.9 0 1 1-.205-1.788 5.366 5.366 0 1 0-1.224-10.662.9.9 0 0 1-.996-.791z" fill="#FFA403"/><path fill-rule="evenodd" clip-rule="evenodd" d="M38.519 30.178a1.97 1.97 0 0 1-.62 2.716c-.092.057-.19.121-.295.19-.459.297-1.044.677-1.746.975-.913.388-1.992.645-3.522.796a1.97 1.97 0 1 1-.388-3.92c1.28-.126 1.938-.317 2.37-.5.36-.154.598-.307 1.005-.57.137-.088.294-.19.48-.306a1.97 1.97 0 0 1 2.716.62zM40.168 29.264a1.97 1.97 0 0 1 2.56-1.096c.679.272 1.125.42 1.645.496.528.077 1.234.092 2.394-.041a1.97 1.97 0 0 1 .449 3.913c-1.362.156-2.433.168-3.41.026-.987-.144-1.778-.431-2.542-.737a1.97 1.97 0 0 1-1.096-2.56z" fill="#FFB100"/><circle cx="53.89" cy="53.495" r="2.86" fill="#FF9600"/><circle cx="56.263" cy="45.898" r="1.822" fill="#E27800"/><circle cx="36.564" cy="57.183" r="1.822" fill="#FF9600"/><path d="M104.989 12.126a7.885 7.885 0 0 0-7.036-8.997 7.886 7.886 0 0 0-1.775 15.669 7.886 7.886 0 1 0 8.81-6.672z" fill="#FF9600"/><path d="M80.124 26.088a8.937 8.937 0 0 1 9.763-8.028l29.806 2.908a8.938 8.938 0 0 1 8.028 9.763l-1.983 20.32a8.937 8.937 0 0 1-9.763 8.027L86.17 56.17a8.938 8.938 0 0 1-8.028-9.763l1.982-20.32z" fill="#FFBB31"/><path fill-rule="evenodd" clip-rule="evenodd" d="M111.346 25.01a5.996 5.996 0 0 0-6.551 5.386l-.354 3.63a5.997 5.997 0 1 0 11.937 1.165l.354-3.63a5.997 5.997 0 0 0-5.386-6.55z" fill="#FFF1A2"/><path d="M105.961 32.094a2.182 2.182 0 0 0 2.338-2.669 2.692 2.692 0 0 1 2.892 2.946l-.328 3.363a2.692 2.692 0 1 1-5.359-.523l.306-3.137c.05.008.1.015.151.02z" fill="#E27800"/><path d="M97.295 23.64a5.997 5.997 0 0 0-6.55 5.386l-.355 3.63a5.969 5.969 0 0 0 .563 3.18c2.856.61 5.502 1.555 7.932 2.842a5.994 5.994 0 0 0 3.442-4.857l.354-3.63a5.997 5.997 0 0 0-5.386-6.551z" fill="#FFF1A2"/><path d="M94.827 31.008a2.183 2.183 0 0 0 2.338-2.669 2.693 2.693 0 0 1 2.893 2.946l-.328 3.363a2.692 2.692 0 0 1-5.36-.523l.307-3.137c.05.008.1.015.15.02z" fill="#E27800"/><path d="M86.953 18.234c-3.672.907-6.61 3.953-6.884 8.418l-.711 7.293.347.034a5.703 5.703 0 0 0 6.23-5.122l1.018-10.623zM122.484 21.703c3.813 1.703 5.719 5.438 5.182 9.593l-.712 7.292-.347-.034a5.702 5.702 0 0 1-5.122-6.229l.999-10.622z" fill="#FFB100"/><circle cx="94.966" cy="44.483" r="2.248" fill="#FF9600"/><circle cx="98.211" cy="49.249" r="1.635" fill="#FF9600"/><path d="M77.427 39.975a4.26 4.26 0 1 0 .828-8.481 4.26 4.26 0 0 0-.828 8.481zM127.682 44.877a4.26 4.26 0 1 0 .828-8.48 4.26 4.26 0 0 0-.828 8.48z" fill="#FFBB31"/><path d="M103.209 35.717c.108.01.916 1.62 1.733 3.306.813 1.678-.532 3.584-2.387 3.403-1.856-.18-2.808-2.31-1.685-3.8 1.128-1.496 2.231-2.92 2.339-2.909z" fill="#FFA403"/><path fill-rule="evenodd" clip-rule="evenodd" d="M108.457 45.976a.9.9 0 0 1-1.272.053c-.34-.312-1.01-.722-1.829-.846-.782-.12-1.732.015-2.732.823a.9.9 0 0 1-1.132-1.4c1.414-1.142 2.879-1.394 4.134-1.203 1.22.185 2.21.78 2.777 1.301a.9.9 0 0 1 .054 1.272z" fill="#FFA403"/><path d="M119.38 45.606a6.773 6.773 0 1 1-13.481-1.316 6.773 6.773 0 0 1 13.481 1.316z" fill="#FFBB31"/><path fill-rule="evenodd" clip-rule="evenodd" d="M108.909 40.412a5.873 5.873 0 0 0-.806 8.266.9.9 0 0 1-1.39 1.143 7.672 7.672 0 0 1 1.053-10.8.9.9 0 0 1 1.143 1.39z" fill="#FFA403"/><path fill="#FFBB31" d="M103.929 23.756l17.386-.114.027 4.207-17.385.114z"/><circle cx="90.376" cy="98.114" r="14.329" fill="#FFB100"/><path d="M81.7 86.71a14.265 14.265 0 0 1 8.676-2.924c7.914 0 14.329 6.415 14.329 14.328 0 2.623-.705 5.081-1.935 7.195-1.348.344-2.76.527-4.216.527-9.382 0-16.987-7.605-16.987-16.987 0-.725.045-1.438.133-2.138z" fill="#FF9600"/><circle cx="98.554" cy="86.189" r="14.329" fill="#FF9600"/><path d="M93.201 112.164c6.56-1.311 11.504-7.103 11.504-14.05 0-4.802-2.363-9.052-5.989-11.652-5.523 2.755-9.317 8.461-9.317 15.053a16.74 16.74 0 0 0 3.802 10.649z" fill="#FF9600"/><circle cx="107.189" cy="100.518" r="14.329" fill="#FFB100"/><path d="M93.008 102.583a14.463 14.463 0 0 1-.147-2.065c0-7.914 6.415-14.329 14.328-14.329 3.159 0 6.08 1.023 8.449 2.755-1.319 8.246-8.465 14.547-17.084 14.547-1.94 0-3.805-.32-5.546-.908z" fill="#FF9600"/><circle cx="98.554" cy="84.703" r="15.815" fill="#FFB100"/><circle cx="96.435" cy="91.237" r="3.575" fill="#FF9600"/><circle cx="94.51" cy="80.569" r="4.133" fill="#FF9600"/><circle cx="104.712" cy="82.915" r="3.546" fill="#FF9600"/><circle cx="105.456" cy="108.639" r="2.803" fill="#FF9600"/><circle cx="112.883" cy="102.434" r="3.402" fill="#FF9600"/><circle cx="85.183" cy="104.878" r="2.444" fill="#FF9600"/><circle cx="83.229" cy="97.919" r="2.444" fill="#FF9600"/><circle cx="60.035" cy="113.602" r="2.909" transform="rotate(85.522 60.035 113.602)" fill="#FF9600"/><circle cx="55.233" cy="84.217" r="3.749" transform="rotate(85.522 55.233 84.217)" fill="#FFB100"/><circle cx="59.859" cy="98.778" r="3.072" transform="rotate(85.522 59.859 98.778)" fill="#FFB100"/><circle cx="37.776" cy="92.466" r="3.519" transform="rotate(85.522 37.776 92.466)" fill="#FF9600"/><circle cx="33.004" cy="101.202" r="2.362" transform="rotate(85.522 33.004 101.202)" fill="#FF9600"/><circle cx="47.634" cy="106.559" r="5.215" transform="rotate(85.522 47.634 106.559)" fill="#FFB100"/><circle cx="85.566" cy="62.621" r="2.495" transform="rotate(85.522 85.566 62.62)" fill="#FFB100"/><circle cx="21.443" cy="96.096" r="2.495" transform="rotate(85.522 21.443 96.096)" fill="#FFB100"/></g><defs><clipPath id="clip0"><path fill="#fff" d="M0 0h135v124H0z"/></clipPath></defs></svg>