<svg id="Layer_3" data-name="Layer 3" xmlns="http://www.w3.org/2000/svg" viewBox="0 0 135 124"><defs><style>.cls-1{fill:#cb791d}.cls-3{fill:#fec72e}.cls-4{fill:#fc4d50}.cls-7{fill:#777}.cls-9{fill:#afafaf}.cls-11{fill:#ebe3e3}</style></defs><path class="cls-1" d="M124 28v79a17 17 0 0 1-17 17H28a17 17 0 0 1-14.76-8.59 14 14 0 0 1-.91-1.82A17 17 0 0 1 11 107V28a17 17 0 0 1 17-17h79a17 17 0 0 1 17 17z"/><path d="M135 100.12H44.48l14-19.44 23.43-6.89.58-26.56 7.48-10.42a13.46 13.46 0 0 1 2.4-5.81 16 16 0 0 1 3.46-3.47 3 3 0 0 1 3 .34l1 .71A90.38 90.38 0 0 1 135 100.12z" fill="#ffdcaf"/><path class="cls-3" d="M122.4 100.12H44.47l14.9-20.76A6.79 6.79 0 0 1 65 76.6a15.14 15.14 0 0 0 14.23-20.28 6.45 6.45 0 0 1 .93-5.92l9.75-13.59a77.88 77.88 0 0 1 32.49 63.31z"/><circle class="cls-4" cx="73.43" cy="87.22" r="8.44"/><circle class="cls-4" cx="105.66" cy="86.15" r="8.44"/><circle class="cls-4" cx="93.56" cy="60.87" r="8.44"/><path fill="#fdb02a" d="M44.47 100.12h77.93v6.36H44.47z"/><path d="M135 106.48h-12.6v-6.36a11.75 11.75 0 0 1 12.55 0z" fill="#ffc070"/><path class="cls-7" d="M80.49 14.93a22.48 22.48 0 0 1-22 36 9.7 9.7 0 0 0-8.29 2.4l-2 1.77a9.86 9.86 0 0 0-3.2 8.1A22.48 22.48 0 0 1 5.44 79.57C-2.49 70.23-1.21 56.17 7.91 48l39.91-35.87a22.49 22.49 0 0 1 32.67 2.8z"/><path class="cls-7" d="M79.03 30.38l6.25-1.79v-7.67h-6.25v9.46zM6.45 66.84L.2 65.05v-6.07l6.25-1.6v9.46z"/><path d="M80.49 8.93a22.48 22.48 0 0 1-22 36 9.7 9.7 0 0 0-8.29 2.4l-2 1.77a9.86 9.86 0 0 0-3.2 8.1A22.48 22.48 0 0 1 5.44 73.57C-2.49 64.23-1.21 50.17 7.91 42L47.82 6.13a22.49 22.49 0 0 1 32.67 2.8z" fill="#c8c8c8"/><circle class="cls-9" cx="62.84" cy="22.86" r="17.1"/><circle class="cls-9" cx="22.95" cy="58.68" r="17.1"/><path d="M21.56 51.44l-1.74-1.94a2.8 2.8 0 0 0-4-.21l-1.5 1.35a2.8 2.8 0 0 0-.21 4l1.74 1.93a3.08 3.08 0 0 0 2.15 1l2 .11a2 2 0 0 0 2.15-1.93l.11-2a3.09 3.09 0 0 0-.7-2.31zm2.79 14.49l1.74 1.94a2.8 2.8 0 0 0 3.95.21l1.5-1.35a2.81 2.81 0 0 0 .21-4L30 60.85a3.14 3.14 0 0 0-2.16-1l-2-.1a2 2 0 0 0-2.16 1.93l-.11 2a3.12 3.12 0 0 0 .78 2.25zm-8.64-5.85l-1.94 1.74a2.8 2.8 0 0 0-.21 3.95l1.35 1.5a2.8 2.8 0 0 0 3.95.21l1.93-1.74a3.08 3.08 0 0 0 1-2.16l.11-2a2 2 0 0 0-1.9-2.19l-2-.11a3.14 3.14 0 0 0-2.29.8zm8.37-6.29l-.11 2A2.06 2.06 0 0 0 25.91 58l2 .1a3.12 3.12 0 0 0 2.26-.79l1.93-1.74a2.8 2.8 0 0 0 .22-3.95L31 50.1a2.8 2.8 0 0 0-3.95-.21l-1.93 1.74a3.14 3.14 0 0 0-1.04 2.16z" fill="#2d2d2d"/><circle class="cls-11" cx="55.32" cy="29.61" r="5.58"/><circle class="cls-11" cx="70.36" cy="16.1" r="5.58"/><circle class="cls-11" cx="69.6" cy="30.38" r="5.58"/><circle class="cls-11" cx="56.09" cy="15.34" r="5.58"/><path class="cls-9" d="M37.24 15.64l4.33 12.93A5.07 5.07 0 0 1 40.16 34L36 37.66a5.05 5.05 0 0 1-5.5.83l-12.39-5.7z"/><circle class="cls-4" cx="70.36" cy="16.1" r="2.99"/><circle class="cls-7" cx="55.32" cy="29.61" r="2.99"/><circle class="cls-3" cx="69.6" cy="30.38" r="2.99"/><circle class="cls-1" cx="56.09" cy="15.34" r="2.99"/></svg>