<svg id="Layer_3" data-name="Layer 3" xmlns="http://www.w3.org/2000/svg" viewBox="0 0 135 124"><defs><style>.cls-6{fill:#ffb100}.cls-2{fill:#ffc800}.cls-3{fill:#ffd900}.cls-4{fill:#ffe75e}</style></defs><path d="M124 28v79a17 17 0 0 1-16.22 17H28a4.18 4.18 0 0 1-.5 0h-.07a16.53 16.53 0 0 1-2.65-.29 17 17 0 0 1-4.07-1.33 14.55 14.55 0 0 1-1.3-.68 17 17 0 0 1-8-10.94 11.27 11.27 0 0 1-.21-1.16 15.67 15.67 0 0 1-.2-2.6V28a17 17 0 0 1 17-17h79a17 17 0 0 1 17 17z" fill-rule="evenodd" fill="#ffb100"/><path class="cls-2" d="M3 72l5 10.25A12 12 0 0 0 18.71 89h73.5c9.82 0 18.15 8 18 17.85A17.51 17.51 0 0 1 92.67 124H26.5A26.51 26.51 0 0 1 0 97.5V72.68A1.56 1.56 0 0 1 3 72z"/><path class="cls-3" d="M135.11 62.86a18.23 18.23 0 0 1-18.27 18.5l-14.12-.06A31.71 31.71 0 0 1 73.88 62c-2.24-5.27-4.56-10.48-6.33-13.91C63.42 40.13 58.64 35 55.37 35c-2 0-2.48.51-3.09 1.35-1.53 2.12-2.45 6.08-2.45 10.57 0 9.66 4 20.51 10.53 28.31C67.94 84.3 78 88.93 90.29 89H108c9 0 16.2 8.28 16.2 17.44S117 124 107.87 124H90.44c-22.6 0-42.84-9.37-57-26.39A80.65 80.65 0 0 1 14.8 46.89c0-12.09 3.13-22.82 9.05-31A37.84 37.84 0 0 1 55.37-.07C67.7-.07 85.28 5.63 99 32.75a123.68 123.68 0 0 1 5.86 13.63h3.8l3.92 5h16.77a5.63 5.63 0 0 1 5.65 5.56z"/><circle class="cls-3" cx="106.2" cy="56.91" r="13.33"/><circle class="cls-4" cx="106.2" cy="56.91" r="8.06"/><rect x="104.12" y="51.99" width="4.17" height="9.84" rx="2.09" ry="2.09" fill="#f89700"/><path class="cls-4" d="M131.73 73.65a18.31 18.31 0 0 1-15 7.71h-14A31.7 31.7 0 0 1 73.89 62c-2.25-5.28-4.57-10.49-6.34-13.91C63.42 40.13 58.64 35 55.37 35c-2 0-2.48.51-3.09 1.34-1.53 2.14-2.45 6.08-2.45 10.57 0 9.67 4 20.52 10.53 28.32l.24.41c-8.79-10.56-23-39.38-8.7-49.28 4.6-3.19 12.84 1.8 18.43 12.62 2.4 4.64 1.13 1.4 4.17 8.53 6.68 15.68 13.77 26.1 39 26.1zM29.45 28.05a5.37 5.37 0 0 1-4.87-7.64C30.32 8 41.25 5.63 41.71 5.53A5.37 5.37 0 0 1 44 16c-.36.09-6.26 1.63-9.62 8.89a5.38 5.38 0 0 1-4.93 3.16z"/><path class="cls-6" d="M29.57 74.55a6.54 6.54 0 0 1-6-3.94l-.88-2a1.61 1.61 0 0 1 3-1.28l.88 2a3.32 3.32 0 0 0 4.36 1.72 3.31 3.31 0 0 0 1.73-4.36l-.88-2a1.61 1.61 0 1 1 3-1.29l.87 2a6.54 6.54 0 0 1-6 9.14z"/><path class="cls-6" d="M37.17 78.89a6.57 6.57 0 0 1-6-3.94l-.87-2a1.61 1.61 0 1 1 3-1.28l.87 2a3.33 3.33 0 0 0 4.37 1.73A3.32 3.32 0 0 0 40.2 71l-.87-2a1.61 1.61 0 1 1 3-1.28l.87 2a6.54 6.54 0 0 1-6 9.14z"/><path class="cls-2" d="M81.53 29.07a6.53 6.53 0 0 1-5.09-2.41L75.06 25a1.61 1.61 0 0 1 2.5-2l1.38 1.7a3.32 3.32 0 1 0 5.16-4.18l-1.39-1.7a1.62 1.62 0 0 1 2.51-2l1.38 1.71a6.53 6.53 0 0 1-5.07 10.66z"/><path class="cls-2" d="M81.87 37.81a6.53 6.53 0 0 1-5.08-2.42l-1.39-1.7a1.62 1.62 0 0 1 2.51-2l1.38 1.71a3.32 3.32 0 1 0 5.15-4.19l-1.38-1.7a1.61 1.61 0 1 1 2.5-2l1.38 1.7a6.55 6.55 0 0 1-5.07 10.67z"/><path class="cls-6" d="M91.29 111.6a1.61 1.61 0 0 1-.09-3.22l2.19-.14a3.32 3.32 0 1 0-.41-6.62l-2.19.13a1.61 1.61 0 0 1-.19-3.22l2.19-.13a6.55 6.55 0 0 1 6.93 6.13 6.57 6.57 0 0 1-1.63 4.74 6.48 6.48 0 0 1-4.51 2.19l-2.19.14z"/><path class="cls-6" d="M98.6 116.4a1.61 1.61 0 0 1-.1-3.22l2.19-.14a3.32 3.32 0 1 0-.41-6.62l-2.18.13a1.61 1.61 0 1 1-.2-3.21l2.19-.14a6.54 6.54 0 0 1 .8 13.06l-2.2.14z"/><circle class="cls-6" cx="128.53" cy="60.86" r="3.14"/></svg>