<svg viewBox="0 0 135 124" version="1.1" xmlns="http://www.w3.org/2000/svg" xmlns:xlink="http://www.w3.org/1999/xlink"><defs><path d="M21.561 0H46.44C58.348 0 68 9.653 68 21.561S58.348 43.123 46.44 43.123H21.56C9.653 43.123 0 33.469 0 21.56 0 9.653 9.653 0 21.561 0z" id="a"/><path d="M5.933 8.788a8.04 8.04 0 0 1 8.018 8.646C8.337 16.73 4.107 14.2 1.967 9.833a7.999 7.999 0 0 1 3.966-1.045z" id="c"/></defs><g stroke="none" stroke-width="1" fill="none" fill-rule="evenodd"><path d="M28 11h79c9.389 0 17 7.611 17 17v79c0 9.389-7.611 17-17 17H28c-9.389 0-17-7.611-17-17V28c0-9.389 7.611-17 17-17z" fill="#D12929"/><g transform="translate(0 -9.983)"><rect fill="#FFB100" transform="rotate(54 23.33 108.885)" x="10.382" y="90.885" width="25.898" height="36" rx="12.949"/><rect fill="#FFCBA3" transform="rotate(161 25.183 96.973)" x="19.183" y="86.703" width="12" height="20.54" rx="6"/><path d="M106.912 102.286l7.322 29.365c.055.223.091.446.11.668a16.925 16.925 0 0 1-7.344 1.664H31.878l-3.05-12.228c-4.596-18.437 6.624-37.11 25.06-41.706l11.318-2.822c18.437-4.597 37.11 6.623 41.706 25.06z" fill="#FFB100"/><path d="M32.755 95.176l10.716 42.977a3.146 3.146 0 0 1-2.291 3.814l-7.367 1.836-5.435-21.801c-2.378-9.54-.522-19.143 4.377-26.826zM107.384 102.633l5.04 20.21a3.145 3.145 0 0 1-2.284 2.26l-37.007 9.226a3.146 3.146 0 0 1-3.813-2.29L57.46 84.475l26.224-6.54c11.326 3.334 20.637 12.414 23.7 24.697z" fill="#FF9500"/><path d="M48.496 103.962a3.235 3.235 0 1 1 1.565 6.277 3.235 3.235 0 0 1-1.565-6.277zm8.651-19.635l1.147 4.597a7.012 7.012 0 0 1-11.522 6.884 7.012 7.012 0 0 1-13.404-.67l-.109-.433c4.532-7.108 11.668-12.573 20.466-14.826a6.996 6.996 0 0 1 3.422 4.448z" fill="#FFF"/><g transform="rotate(-17 71.045 -1.905)"><ellipse fill="#3D3D3D" cx="22.937" cy="10.465" rx="10.44" ry="10.38"/><g transform="translate(0 24.28)"><mask id="b" fill="#fff"><use xlink:href="#a"/></mask><use fill="#3D3D3D" xlink:href="#a"/><path fill="#D8D8D8" mask="url(#b)" d="M-16.112 24.286h98.803v19.31h-98.803z"/></g><path d="M34.26 32.56c7.697 0 15.803-.568 20.676 4.643 1.749 1.87 2.063 7.818 3.22 10.132A26.59 26.59 0 0 1 60.96 59.26v19.98H7.56V59.26c0-14.746 11.954-26.7 26.7-26.7z" fill="#FFCBA3"/><path fill="#3D3D3D" d="M15.84 30.64h39V37h-39z"/><path d="M37.62 59.8c1.491 0 2.7-1.222 2.7-2.729 0-1.507-2.7-5.071-2.7-5.071s-2.7 3.564-2.7 5.071c0 1.507 1.209 2.729 2.7 2.729z" fill="#E89665"/><path d="M55.212 49.653a.592.592 0 0 1 .542 1.05l-.086.044-3.051 1.27 3.064 1.362c.269.12.405.415.332.69l-.032.092a.593.593 0 0 1-.69.332l-.092-.032-4.32-1.92a.593.593 0 0 1-.077-1.042l.09-.046 4.32-1.8zM19.068 49.653a.592.592 0 0 0-.541 1.05l.085.044 3.051 1.27-3.063 1.362a.593.593 0 0 0-.333.69l.032.092c.12.269.415.405.69.332l.092-.032 4.32-1.92a.593.593 0 0 0 .077-1.042l-.09-.046-4.32-1.8z" fill="#F3A577" fill-rule="nonzero"/><path d="M11.747 32.08h5.306a5.627 5.627 0 0 1 5.627 5.627v5.306a5.627 5.627 0 0 1-5.627 5.627H6.12V37.707a5.627 5.627 0 0 1 5.627-5.627zM57.467 31.48h.586a5.627 5.627 0 0 1 5.627 5.627v5.906a5.627 5.627 0 0 1-5.627 5.627h-.586a5.627 5.627 0 0 1-5.627-5.627v-5.906a5.627 5.627 0 0 1 5.627-5.627z" fill="#3D3D3D"/><path d="M29.669 41.818c5.519-2.295 10.88-2.295 15.959.025a1.8 1.8 0 1 1-1.496 3.274c-4.147-1.894-8.467-1.894-13.08.025a1.8 1.8 0 1 1-1.383-3.324z" fill="#3D3D3D" fill-rule="nonzero"/><g transform="rotate(-4 840.324 -275.068)"><path d="M12.787 3.25a6.879 6.879 0 0 0-3.43-3.353 6.8 6.8 0 0 0-4.943-.234A6.89 6.89 0 0 0 .43 3.14a6.972 6.972 0 0 0-.388 5.288c1.014 3.1 2.844 5.511 5.33 7.242 2.502 1.743 5.685 2.795 9.397 3.12a6.828 6.828 0 0 0 5.028-1.605 6.946 6.946 0 0 0 2.43-4.708 6.78 6.78 0 0 0-1.653-5.094c-1.148-1.312-2.83-2.233-4.874-2.444a12.269 12.269 0 0 1-.654-.087c-.955-.32-1.693-.928-2.26-1.6z" stroke="#FFCBA3" stroke-width="2.52" fill="#B23131" fill-rule="nonzero"/><mask fill="#fff"><use xlink:href="#c"/></mask><use fill="#E34545" fill-rule="nonzero" xlink:href="#c"/></g><path d="M34.33 49.506a1.2 1.2 0 1 1 1.96 1.388c-2.395 3.38-5.716 4.332-9.617 2.768a1.2 1.2 0 0 1 .894-2.227c2.876 1.153 5.016.54 6.764-1.929zM41.162 49.506a1.2 1.2 0 1 0-1.958 1.388c2.394 3.38 5.715 4.332 9.616 2.768a1.2 1.2 0 0 0-.894-2.227c-2.876 1.153-5.016.54-6.764-1.929z" fill="#E89665" fill-rule="nonzero"/></g><rect fill="#FFB100" transform="rotate(20 77.949 98.983)" x="65" y="72.983" width="25.898" height="52" rx="12.949"/><rect fill="#FFCBA3" transform="rotate(144 30.276 90.15)" x="24.276" y="79.881" width="12" height="20.54" rx="6"/><rect fill="#FFB100" transform="rotate(-73 53.785 103.96)" x="40.837" y="77.96" width="25.898" height="52" rx="12.949"/><path d="M96.279 66.962c-3.31-1.18-5.94-3.83-6.817-7.35-1.436-5.757 2.36-11.661 8.478-13.187 3.127-.779 6.254-.264 8.757 1.193 1.526-2.462 4.045-4.384 7.172-5.164 6.118-1.525 12.241 1.905 13.677 7.663.815 3.268-.056 6.584-2.081 9.119l-9.273 13.197a4.534 4.534 0 0 1-5.7 1.468L96.28 66.962zM80.78 22.36c-1.141-1.788-1.407-3.983-.51-5.907 1.468-3.147 5.49-4.377 8.985-2.748 1.785.833 3.088 2.25 3.738 3.859 1.65-.535 3.574-.45 5.36.383 3.494 1.63 5.137 5.502 3.67 8.649-.834 1.787-2.49 2.955-4.406 3.334l-9.368 2.452a2.868 2.868 0 0 1-3.272-1.497l-4.198-8.525zM7.582 78.097c-1.767-.045-3.407-.885-4.318-2.401-1.49-2.48-.466-5.833 2.288-7.488 1.407-.845 2.994-1.084 4.408-.784.4-1.39 1.355-2.678 2.762-3.524 2.754-1.655 6.195-.985 7.685 1.495.847 1.408.882 3.097.251 4.597l-2.671 7.614a2.39 2.39 0 0 1-2.56 1.564l-7.845-1.073z" fill="#FF4B4B" fill-rule="nonzero"/></g></g></svg>