<svg viewBox="0 0 135 124" version="1.1" xmlns="http://www.w3.org/2000/svg" xmlns:xlink="http://www.w3.org/1999/xlink"><defs><circle id="a" cx="30.899" cy="30.899" r="30.899"/></defs><g stroke="none" stroke-width="1" fill="none" fill-rule="evenodd"><g transform="translate(11 11)" fill="#7CE655"><rect x="0" y="0" width="113" height="113" rx="17"/></g><path d="M118.5 105c1.973 0 3.84.457 5.5 1.272V107c0 9.389-7.611 17-17 17H53v-6.5c0-6.904 5.596-12.5 12.5-12.5h53z" fill="#303030"/><rect fill="#303030" x="85" y="95" width="28" height="25" rx="6"/><g><g transform="rotate(13 -34.934 333.472)"><path d="M63.954 29.37v17.49H5.23V29.354C5.245 14.872 15.803 2.556 30.113.33L31.35.165c.61 0 1.221-.099 1.831-.132h2.707c.577 0 1.154 0 1.65.132C52.532 1.681 63.946 14.299 63.954 29.37z" fill="#8B4824" fill-rule="nonzero"/><circle fill="#E59B80" fill-rule="nonzero" cx="9.075" cy="52.866" r="8.844"/><circle fill="#E59B80" fill-rule="nonzero" cx="60.142" cy="52.866" r="8.844"/><path d="M24.14 85.8c5.704 5.626 14.87 5.626 20.575 0l11.847-11.55c3.008-2.959 4.703-7 4.703-11.22V30.904A26.78 26.78 0 0 0 16.5 11.27l-.792.758a26.532 26.532 0 0 0-7.854 18.876v17.507a.924.924 0 0 0-.149.511V65.16a10.89 10.89 0 0 0 3.63 7.969L24.14 85.8z" fill="#E59B80" fill-rule="nonzero"/><path d="M31.47 61.518c1.304.488 2.64.732 4.005.732l.382-.009c2.138-.094 5.923-.94 11.355-2.54a1.65 1.65 0 0 1 2.096 1.838l-.899 5.732a9.09 9.09 0 0 1-9.258 7.678l-.622-.02a8.988 8.988 0 0 1-8.595-7.524l-.67-4.074a1.65 1.65 0 0 1 2.207-1.813z" fill="#9E332F"/><path d="M46.2 59.996V62.7a1.65 1.65 0 0 1-1.65 1.65H29.432l-.168-1.019a1.65 1.65 0 0 1 2.207-1.813c1.303.488 2.638.732 4.004.732l.381-.009c2.003-.088 5.451-.836 10.344-2.245z" fill="#FFF"/><path d="M34.83 69.235a8.253 8.253 0 0 1 7.663 5.187 9.065 9.065 0 0 1-3.342.527l-.622-.02a8.99 8.99 0 0 1-7.629-4.7 8.206 8.206 0 0 1 3.93-.994z" fill="#C6423D"/><path d="M22.325 35.392a7.409 7.409 0 0 1 7.375 7.392v5.677a7.408 7.408 0 0 1-7.392 7.392 7.425 7.425 0 0 1-7.392-7.392v-5.676a7.425 7.425 0 0 1 7.409-7.392z" fill="#FFF" fill-rule="nonzero"/><path d="M20.315 39.28a2.987 2.987 0 0 1 2.97 2.97v3.761a2.987 2.987 0 0 1-2.97 2.97 3.003 3.003 0 0 1-2.97-2.97V42.25a3.003 3.003 0 0 1 2.97-2.97z" fill="#4B4B4B" fill-rule="nonzero"/><rect fill="#FFF" fill-rule="nonzero" x="39.237" y="35.392" width="14.784" height="20.46" rx="7.392"/><rect fill="#4B4B4B" fill-rule="nonzero" x="40.626" y="39.488" width="5.94" height="9.702" rx="2.97"/><rect fill="#CE7455" fill-rule="nonzero" x="31.169" y="36.02" width="6.633" height="22.951" rx="3.217"/><path d="M31.915 53.46h3.66a2.573 2.573 0 0 1 1.887.822c.5.53.78 1.25.775 2 0 1.558-1.192 2.821-2.663 2.821h-3.659c-1.473 0-2.67-1.26-2.678-2.822 0-.75.283-1.47.785-2a2.588 2.588 0 0 1 1.893-.821z" fill="#CE7455" fill-rule="nonzero"/><path d="M5.841 58.526a1.832 1.832 0 0 1 1.832 1.831v4.835a1.832 1.832 0 0 1-1.832 1.831 1.799 1.799 0 0 1-1.815-1.798v-4.95a1.798 1.798 0 0 1 1.782-1.832l.033.083z" fill="#FED731" fill-rule="nonzero"/><path d="M5.23 38.858h2.624V52.8a1.32 1.32 0 0 1-1.32 1.32H6.6a1.32 1.32 0 0 1-1.32-1.32V38.858h-.05zM61.264 38.858h2.64V52.8a1.32 1.32 0 1 1-2.64 0V38.858z" fill="#8B4824" fill-rule="nonzero"/></g><path d="M128.277 41.406L81.895 30.698a29.304 29.304 0 0 1 21.491-7.197l1.243.117c.595.138 1.212.179 1.814.284l1.286.297 1.35.311c.563.13 1.126.26 1.579.5a29.32 29.32 0 0 1 17.62 16.396z" fill="#8B4824" fill-rule="nonzero"/><path d="M117.512 62.29l-.29-.067-12.123-3.968a3.313 3.313 0 1 1 2.048-6.3l12.127 3.95a3.303 3.303 0 1 1-1.774 6.365l.012.02zM83.423 48.357a3.301 3.301 0 1 1 1.308-6.472L97.259 44.1a3.305 3.305 0 1 1-1.148 6.51l-12.527-2.216-.161-.037z" fill="#61361E" fill-rule="nonzero"/><path fill="#E59B80" fill-rule="nonzero" d="M114.85 54.24l3.022.698-1.73 7.492-3.022-.698z"/><path d="M76.559 102.587l24.807 5.727-.427 1.849a5.247 5.247 0 0 1-6.293 3.932l-14.582-3.366a5.247 5.247 0 0 1-3.932-6.293l.427-1.85z" fill="#8B4824" fill-rule="nonzero"/><path d="M79.416 99.013a1.98 1.98 0 0 1 1.484 2.375l-1.05 4.55-3.859-.891 1.054-4.566a1.98 1.98 0 0 1 2.371-1.468zM100.3 103.835a1.98 1.98 0 0 1 1.484 2.374l-1.05 4.55-3.843-.887 1.054-4.566a1.98 1.98 0 0 1 2.355-1.471z" fill="#8B4824" fill-rule="nonzero"/><path d="M100.326 79.315c3.79-1.53 8.465-1.653 14.028-.369 5.562 1.285 3.072 3.107-7.47 5.466l-6.558-5.097z" fill="#E59B80"/></g><rect fill="#E59B80" x="31" y="82" width="15" height="48" rx="7.5"/><path fill="#303030" d="M31 104h15v22H31z"/><rect fill="#E59B80" x="31" y="63" width="9" height="29" rx="4.4"/><rect fill="#CE7455" transform="rotate(21 45.5 88.5)" x="41" y="74" width="9" height="29" rx="4.4"/><rect fill="#E59B80" x="31" y="79" width="25" height="25" rx="12.5"/><g transform="rotate(-25 37.01 25.234)"><mask id="b" fill="#fff"><use xlink:href="#a"/></mask><use fill="#F49000" fill-rule="nonzero" xlink:href="#a"/><path fill="#E26E00" fill-rule="nonzero" mask="url(#b)" d="M29.476-5.692h3.252v73.304h-3.252z"/><path fill="#E26E00" fill-rule="nonzero" mask="url(#b)" d="M66.27 29.272v3.253H-4.88v-3.253zM60.739-6.398l2.93 1.412c-9.39 19.475-20.356 29.38-32.974 29.38-12.618 0-23.584-9.905-32.973-29.38l2.93-1.412c8.905 18.471 18.945 27.54 30.043 27.54 11.098 0 21.138-9.069 30.044-27.54zM60.739 69.114c-8.906-18.471-18.946-27.54-30.044-27.54-11.098 0-21.138 9.069-30.043 27.54l-2.93-1.412c9.39-19.475 20.355-29.38 32.973-29.38 12.618 0 23.584 9.905 32.974 29.38l-2.93 1.412z"/></g></g></svg>