<svg viewBox="0 0 135 124" fill="none" xmlns="http://www.w3.org/2000/svg"><g clip-path="url(#clip0)"><path fill-rule="evenodd" clip-rule="evenodd" d="M28.105 11.006h79c9.389 0 17 7.61 17 17v79c0 9.389-7.611 17-17 17h-79c-9.388 0-17-7.611-17-17v-79c0-9.39 7.612-17 17-17z" fill="#FAA80E"/><path d="M60.41 124.006H40.36l-1.974-28.242c-.385-5.51 3.769-10.288 9.278-10.673 5.51-.385 10.288 3.769 10.673 9.278l2.073 29.637z" fill="#FFCB2A"/><path fill-rule="evenodd" clip-rule="evenodd" d="M103.861 86.073l20.228 21.692c-.397 9.036-7.849 16.241-16.984 16.241h-34.87l-4.21-4.515a4 4 0 0 1 .197-5.654l29.985-27.962a4 4 0 0 1 5.654.198z" fill="#FFCB2A"/><path fill-rule="evenodd" clip-rule="evenodd" d="M124.105 75.88v31.126c0 9.389-7.611 17-17 17h-19.94l-6.42-36.42a4 4 0 0 1 3.244-4.633l40.116-7.073z" fill="#FFDF4A"/><path fill-rule="evenodd" clip-rule="evenodd" d="M123.111 112.747l-27.913 5.095a1.5 1.5 0 0 1-.68-2.919l.141-.032 29.257-5.34a16.829 16.829 0 0 1-.805 3.196zm.994-11.5v3.049l-24.907 4.546a1.5 1.5 0 0 1-.68-2.919l.141-.032 25.446-4.644z" fill="#FFCB2A"/><path d="M105.325 4.766L3.922 49.914a4 4 0 0 0-2.027 5.281l18.71 42.023a4 4 0 0 0 5.28 2.027L127.29 54.098a4 4 0 0 0 2.027-5.282l-18.71-42.023a4 4 0 0 0-5.281-2.027zM52.373 22.205l-4.568 2.034a2.5 2.5 0 0 0 2.034 4.567l4.567-2.033a2.5 2.5 0 1 0-2.033-4.568z" fill="#E27800"/><path d="M82.193 31.485L14.59 61.584a4 4 0 0 0-2.028 5.28l10.169 22.84a4 4 0 0 0 5.28 2.027l67.603-30.099a4 4 0 0 0 2.028-5.281L87.474 33.512a4 4 0 0 0-5.281-2.027zM106.859 20.503l-14.617 6.508a4 4 0 0 0-2.027 5.281l10.168 22.839a4 4 0 0 0 5.281 2.027l14.617-6.508a4 4 0 0 0 2.027-5.281L112.14 22.53a4 4 0 0 0-5.281-2.027zM102.841 10.25L9.66 51.739a3.5 3.5 0 1 0 2.847 6.395l93.182-41.487a3.5 3.5 0 0 0-2.848-6.395z" fill="#EF8B00"/><path d="M60.36 76.338l.034-.418a5.5 5.5 0 1 1 10.97.81c-.769 10.388-5.87 18.45-14.954 23.649a5.5 5.5 0 1 1-5.464-9.547c5.794-3.316 8.822-7.98 9.413-14.494z" fill="#FFCB2A"/><path d="M56.652 58.883l.13-.32a5.5 5.5 0 1 0-10.142-4.259c-4.452 10.603-2.094 23.287 6.454 37.868a5.5 5.5 0 1 0 9.49-5.563c-6.857-11.696-8.636-20.88-5.932-27.726z" fill="#FFCB2A"/><path fill-rule="evenodd" clip-rule="evenodd" d="M40.762 63.732a5.5 5.5 0 0 0-6.073 4.86c-1.138 10.25 4.078 19.84 13.26 28.594a5.5 5.5 0 0 0 7.59-7.962c-8.005-7.632-10.514-14.046-9.918-19.418a5.5 5.5 0 0 0-4.859-6.074z" fill="#FFCB2A"/><path fill-rule="evenodd" clip-rule="evenodd" d="M27.084 63.756a5.5 5.5 0 0 0-4.842 6.087c1.4 12.3 8.205 23.24 19.422 32.85a5.5 5.5 0 0 0 7.157-8.353c-9.763-8.364-14.65-16.955-15.65-25.741a5.5 5.5 0 0 0-6.087-4.843z" fill="#FFCB2A"/><path d="M19.343 6.833a2 2 0 0 1 2.133 1.69l.017.148.527 6.732a5.91 5.91 0 0 0 9.83 3.946l.187-.175.62-.604a11.693 11.693 0 0 1 4.812-2.829c6.188-1.849 12.704 1.669 14.553 7.857a2 2 0 0 1-3.833 1.145 7.694 7.694 0 0 0-12.494-3.539l-.247.231-.62.604a9.91 9.91 0 1 1-16.762-5.979l-.034-.345-.526-6.732a2 2 0 0 1 1.837-2.15z" fill="#E27800"/><path d="M112.342 88.03a1.5 1.5 0 0 1 .668 2.92l-.141.032-20.708 3.7a1.5 1.5 0 0 1-.669-2.921l.141-.032 20.709-3.7z" fill="#FFCB2A"/></g><defs><clipPath id="clip0"><path fill="#fff" d="M0 0h135v124H0z"/></clipPath></defs></svg>