<svg viewBox="0 0 136 124" fill="none" xmlns="http://www.w3.org/2000/svg"><rect x="12.201" y="11" width="113" height="113" rx="17" fill="#FEC701"/><path fill-rule="evenodd" clip-rule="evenodd" d="M65.957 27.337c8.2 8.201 8.2 21.497 0 29.698L12.55 110.442a17.071 17.071 0 0 1-.349-3.442V51.393l24.056-24.056c8.201-8.201 21.498-8.201 29.699 0zm59.244 1.056v35.355l-8.995 8.996c-4.881 4.882-12.796 4.882-17.677 0-4.882-4.881-4.882-12.796 0-17.677L125.2 28.393z" fill="#FFD900"/><path d="M84.68 60.258l-11.446-17.07c-.486-.725-1.462-.965-2.14-.417-4.874 3.936-3.82 11.53-2.337 14.815.037.081.08.157.132.23 3.905 5.593 10.637 5.614 14.853 4.843 1.105-.202 1.563-1.468.938-2.401z" fill="#FFB100"/><path d="M10.045 37.693h.002c-.698-5.185 2.875-10.001 8.07-10.814l44.898-7.023c5.194-.812 10.068 2.683 10.986 7.833h.002l6.867 43.897a3.338 3.338 0 0 0 3.813 2.782l6.475-1.013a1.39 1.39 0 0 1 1.589 1.159c1.16 7.423-3.915 14.382-11.339 15.543l-59.37 9.287c-7.422 1.161-14.381-3.916-15.543-11.339a1.39 1.39 0 0 1 1.16-1.589l6.474-1.013a3.338 3.338 0 0 0 2.782-3.813l-6.866-43.897z" fill="#FFB100"/><path d="M15.049 38.188l54.338-8.5 8.481 54.221-54.338 8.5-8.481-54.222z" fill="#FFD900"/><path d="M16.27 62.965a6.07 6.07 0 1 0-1.876-11.992 6.07 6.07 0 0 0 1.876 11.992zM75.79 53.655a6.07 6.07 0 1 0-1.876-11.993 6.07 6.07 0 0 0 1.876 11.993z" fill="#FFD900"/><path d="M21.018 93.793a1.669 1.669 0 0 1 1.39-1.906l56.371-8.818c.911-.142 1.765.48 1.907 1.391l.874 5.586c.142.91-.48 1.764-1.39 1.907l-56.372 8.817a1.668 1.668 0 0 1-1.907-1.39l-.873-5.587z" fill="#F68B00"/><path d="M12.264 51.733c.64-.376 1.36-.64 2.137-.761a6.069 6.069 0 0 1 5.836 2.41 6.765 6.765 0 0 0 1.58-5.495l-1.313-8.396-9.912 1.55 1.672 10.692zM69.097 45.747a6.07 6.07 0 0 1 7.077-4.016l-1.672-10.687-9.912 1.55 1.313 8.397a6.765 6.765 0 0 0 3.194 4.756z" fill="#FFB100"/><path d="M7.996 36.218a1.669 1.669 0 0 1 1.391-1.907l64.207-10.043c.91-.142 1.764.48 1.907 1.391l.711 4.55c.143.91-.48 1.764-1.39 1.906L10.614 42.16a1.669 1.669 0 0 1-1.907-1.391l-.712-4.55z" fill="#F68B00"/><path d="M47.768 88.852a1.202 1.202 0 0 1 1.012-1.09l3.625-.567a1.202 1.202 0 0 1 1.296.729l3.935 9.542a1.201 1.201 0 0 1-.925 1.645l-8.392 1.312a1.201 1.201 0 0 1-1.383-1.284l.832-10.287z" fill="#FFF1A2"/><path fill-rule="evenodd" clip-rule="evenodd" d="M73.601 71.8a.89.89 0 0 1 .095 1.255c-3.17 3.69-7.93 4.096-9.942 3.847a.89.89 0 0 1 .218-1.767c1.672.207 5.733-.165 8.374-3.24a.89.89 0 0 1 1.255-.095zM42.418 60.66a.89.89 0 0 1 .133 1.251c-3.258 4.037-7.792 4.777-10.207 4.497a.89.89 0 0 1 .205-1.768c1.939.224 5.818-.379 8.617-3.847a.89.89 0 0 1 1.252-.133z" fill="#FFB100"/><path d="M45.082 51.464a8.831 8.831 0 1 1-17.45 2.73 8.831 8.831 0 0 1 17.45-2.73z" fill="#FFF1A2"/><path d="M44.843 51.502a8.831 8.831 0 1 0 17.45-2.73 8.831 8.831 0 0 0-17.45 2.73z" fill="#FFF1A2"/><path d="M42.763 51.827a2.27 2.27 0 1 1-4.484.702 2.27 2.27 0 0 1 4.484-.702zM47.163 51.139a2.27 2.27 0 1 0 4.485-.701 2.27 2.27 0 0 0-4.485.701z" fill="#E27800"/><path fill-rule="evenodd" clip-rule="evenodd" d="M60.868 67.556c-1.294 1.085-2.406 2.984-2.95 4.464a5.285 5.285 0 0 1-9.921-3.644c.937-2.552 2.916-6.267 6.083-8.921 1.64-1.374 3.76-2.595 6.339-3.041 2.645-.457 5.38-.03 8.041 1.298a5.285 5.285 0 0 1-4.717 9.458c-.82-.409-1.282-.383-1.524-.341-.306.053-.76.232-1.35.727z" fill="#E27800"/><path fill-rule="evenodd" clip-rule="evenodd" d="M63.879 73.629a5.44 5.44 0 0 0-.217.5c-2.17 5.912-8.723 8.945-14.636 6.774-5.912-2.171-8.944-8.724-6.773-14.636 1.165-3.172 3.645-7.94 7.897-11.502 2.244-1.88 5.33-3.707 9.227-4.38 4.038-.699 8.09-.007 11.814 1.85 5.636 2.812 7.927 9.659 5.116 15.295-2.347 4.706-7.508 7.08-12.428 6.099zm-5.96-1.61c.543-1.48 1.655-3.378 2.95-4.463.591-.495 1.044-.674 1.35-.727.242-.042.704-.068 1.524.341a5.285 5.285 0 0 0 4.717-9.458c-2.66-1.327-5.396-1.755-8.04-1.298-2.58.446-4.7 1.667-6.34 3.04-3.167 2.655-5.146 6.37-6.083 8.922a5.285 5.285 0 1 0 9.921 3.644z" fill="#FFD900"/><path d="M70.424 59.4a5.26 5.26 0 0 0-1.964-1.688c-2.661-1.327-5.397-1.755-8.042-1.298-2.579.446-4.7 1.667-6.338 3.04-1.177.986-2.19 2.119-3.045 3.283.44.282.982.41 1.54.322l2.713-.424a2.226 2.226 0 0 0 1.817-1.663 2.226 2.226 0 0 0 2.237 1.029l2.713-.425a2.226 2.226 0 0 0 1.816-1.662 2.226 2.226 0 0 0 2.238 1.028l2.713-.424c.705-.11 1.28-.54 1.602-1.119z" fill="#FFF1A2"/><path d="M47.673 70.055c.934-.443 1.946-.76 3.018-.927a10.98 10.98 0 0 1 7.757 1.678c-.21.419-.39.83-.53 1.213a5.285 5.285 0 0 1-10.245-1.964zM45.17 52.815c.144-.023 1.723 1.788 3.34 3.693 1.61 1.896.508 4.806-1.95 5.19-2.457.385-4.395-2.05-3.442-4.347.959-2.308 1.91-4.514 2.053-4.536zM33.968 10.46l-.925-5.023c-.172-.997-1.034-1.388-1.927-.914-4.291 2.278-6.687 7.134-5.836 12.05a11.781 11.781 0 0 0 .138.678 11.265 11.265 0 0 0-6.29 2.118c-.82.592-.85 1.538-.031 2.133l8.823 6.566c2.445 5.528 8.372 8.953 14.628 7.975 7.466-1.168 12.572-8.167 11.404-15.633-1.168-7.466-8.167-12.572-15.633-11.404a13.662 13.662 0 0 0-4.35 1.455z" fill="#FFB100"/><path d="M25.33 55.655a1.942 1.942 0 1 1-3.837.6 1.942 1.942 0 0 1 3.837-.6zM66.865 39.035a1.942 1.942 0 1 1-3.836.6 1.942 1.942 0 0 1 3.836-.6zM23.612 60.746l2.617 1.987c2.22 1.686 1.33 5.21-1.424 5.641-2.753.43-4.677-2.654-3.078-4.937l1.885-2.691z" fill="#FFF1A2"/><path fill-rule="evenodd" clip-rule="evenodd" d="M49.968 34.974a2.781 2.781 0 0 0 1.9 3.445c2.625.759 5.58.824 7.312.663a2.781 2.781 0 0 0-.515-5.539c-1.228.114-3.455.051-5.252-.468a2.781 2.781 0 0 0-3.445 1.9zM37.534 40.939a2.781 2.781 0 0 1-.757 3.86c-2.268 1.525-5.061 2.489-6.76 2.864a2.781 2.781 0 1 1-1.201-5.431c1.204-.266 3.305-1.006 4.858-2.05a2.781 2.781 0 0 1 3.86.757z" fill="#FFB100"/><path d="M129.527 67.886c4.338-5.952 2.782-14.326-3.404-18.323-6.187-3.997-14.461-1.972-18.103 4.43l-5.953 10.462a3.955 3.955 0 0 0 1.292 5.28l13.733 8.872a3.956 3.956 0 0 0 5.344-.993l7.091-9.728z" fill="#FFB100"/><path d="M113.085 81.694a1.978 1.978 0 0 0-.548-2.796l-7.573-4.892a1.978 1.978 0 0 0-2.773.65L81.07 110.175a1.978 1.978 0 0 0 .627 2.672l4.998 3.229a1.977 1.977 0 0 0 2.694-.527l23.696-33.855z" fill="#F68B00"/><path d="M117.204 80.135a.989.989 0 0 0-.143-1.549l-13.67-8.83a.99.99 0 0 0-1.471.505l-1.512 4.34a.988.988 0 0 0 .397 1.156l11.847 7.654c.384.247.886.2 1.217-.113l3.335-3.163z" fill="#F68B00"/><rect width="27.13" height="5.364" rx=".989" transform="scale(-1 1) rotate(-32.863 55.066 253.406)" fill="#FFF1A2"/><path d="M115.091 49.895a.522.522 0 0 0-.872.447l.102.855a.524.524 0 0 1-.134.415l-.582.634a.523.523 0 0 0 .447.872l.854-.102a.523.523 0 0 1 .416.134l.634.582c.357.328.93.034.872-.447l-.102-.855a.516.516 0 0 1 .134-.415l.581-.634a.522.522 0 0 0-.447-.872l-.854.102a.521.521 0 0 1-.415-.134l-.634-.582zM112.018 57.175a.522.522 0 0 0 .447.873l.854-.103a.522.522 0 0 1 .415.134l.634.582c.357.328.93.035.872-.447l-.102-.854a.523.523 0 0 1 .134-.416l.582-.633a.523.523 0 0 0-.447-.873l-.855.103a.521.521 0 0 1-.415-.134l-.634-.582a.522.522 0 0 0-.872.447l.102.854a.52.52 0 0 1-.134.416l-.581.633zM118.433 56.414a.523.523 0 0 0-.873.447l.103.854a.524.524 0 0 1-.134.416l-.582.633a.522.522 0 0 0 .447.872l.854-.102a.524.524 0 0 1 .416.134l.633.582c.358.328.93.035.873-.447l-.103-.854a.523.523 0 0 1 .134-.416l.582-.634a.522.522 0 0 0-.447-.872l-.854.102a.523.523 0 0 1-.416-.133l-.633-.582zM118.535 53.835a.523.523 0 0 0 .447.872l.854-.102a.522.522 0 0 1 .416.134l.634.581c.357.328.93.035.872-.447l-.102-.854a.52.52 0 0 1 .133-.415l.582-.634a.523.523 0 0 0-.447-.872l-.854.102a.521.521 0 0 1-.415-.134l-.634-.582a.522.522 0 0 0-.872.447l.102.854a.524.524 0 0 1-.134.416l-.582.634z" fill="#F68B00"/></svg>