<svg viewBox="0 0 136 125" fill="none" xmlns="http://www.w3.org/2000/svg"><rect x="12.315" y="12" width="113" height="113" rx="17" fill="#FEC701"/><path fill-rule="evenodd" clip-rule="evenodd" d="M65.914 26.487c8.2 8.201 8.2 21.498 0 29.699l-53.406 53.406a17.064 17.064 0 0 1-.349-3.442V50.543l24.056-24.056c8.201-8.2 21.498-8.2 29.699 0zm59.245 1.057v35.354l-8.996 8.997c-4.881 4.881-12.796 4.881-17.677 0-4.882-4.882-4.882-12.797 0-17.678l26.673-26.673z" fill="#FFD900"/><path d="M37.724 31.36c-.242 8.68 6.533 15.973 15.237 16.342 8.782.371 16.203-6.447 16.575-15.23.371-8.782-6.447-16.203-15.23-16.574a15.864 15.864 0 0 0-6.34 1.024l-.073-.044a6.734 6.734 0 0 1-8.48-4.276c-2.494-5.039-7.587-8.598-13.6-8.852C17.03 3.378 9.61 10.197 9.238 18.979c-.046 1.1.02 2.178.189 3.223A15.866 15.866 0 0 0 4.33 33.216c-.372 8.782 6.447 16.203 15.23 16.575 8.781.371 16.202-6.447 16.573-15.23.047-1.1-.02-2.177-.188-3.223.206-.19.407-.387.603-.588l1.176.61z" fill="#E47900"/><path fill-rule="evenodd" clip-rule="evenodd" d="M23.03 47.806a.65.65 0 0 1 .9.19c1.229 1.892 5.461 5.227 12.322 2.314a.65.65 0 0 1 .508 1.196c-7.508 3.189-12.389-.445-13.92-2.801a.65.65 0 0 1 .19-.9zM53.363 48.096a.65.65 0 0 0-.915.088c-1.436 1.739-6.02 4.572-12.505.899a.65.65 0 1 0-.64 1.13c7.097 4.021 12.358.965 14.147-1.202a.65.65 0 0 0-.087-.915z" fill="#AA5F45"/><path d="M10.108 47.703a29.127 29.127 0 0 0-.418 7.078l.883 14.11a7 7 0 0 0 7.423 6.55l44.11-2.758a6.933 6.933 0 0 0 6.486-7.352l-.887-14.177a29.097 29.097 0 0 0-1.515-7.637 7.109 7.109 0 0 1-8.572-6.51l-.338-5.4c-.02-.332-.018-.66.006-.982a28.964 28.964 0 0 0-20.402-6.665 28.959 28.959 0 0 0-19.122 8.848c.014.127.026.255.034.385l.44 7.032a7.109 7.109 0 0 1-8.128 7.478z" fill="#FFB100"/><circle cx="8.738" cy="46.617" r="4.844" transform="rotate(-3.578 8.738 46.617)" fill="#FFB100"/><circle cx="67.508" cy="42.942" r="4.844" transform="rotate(-3.578 67.508 42.942)" fill="#FFB100"/><path d="M24.91 42.15l.215 3.433a5.932 5.932 0 0 0 11.841-.74l-.214-3.433-11.842.74zM39.1 41.263l.214 3.432a5.932 5.932 0 0 0 11.841-.74l-.214-3.432-11.842.74z" fill="#FFF1A2"/><path d="M48.81 35.84a3.02 3.02 0 1 1 2.585 5.457l-4.802 2.275.04.656a2.663 2.663 0 0 1-4.879 1.636l-1.378.653c-.42.2-.863.293-1.3.291a3.012 3.012 0 0 1-2.41.256l-1.73-.549a2.663 2.663 0 0 1-4.915-1.248l-.02-.319-5.299-1.682a3.02 3.02 0 1 1 1.828-5.756l11.23 3.566.03-.016 11.02-5.22z" fill="#E47900"/><path d="M31.19 48.027a7.797 7.797 0 0 1 7.668.828 7.797 7.797 0 0 1 7.656.932l5.458 4.046a7.8 7.8 0 1 1-9.292 12.533l-1.384-1.026c-2.23-1.457-4.772-2.336-8.15-1.156l-1.982.86a7.8 7.8 0 1 1-6.207-14.314l6.233-2.703z" fill="#E47900"/><circle cx="38.518" cy="50.079" r="3.649" transform="rotate(-3.578 38.518 50.079)" fill="#FFB100"/><ellipse cx="92.943" cy="43.394" rx="11.131" ry="11.067" transform="rotate(3.162 92.943 43.394)" fill="#E47900"/><path fill-rule="evenodd" clip-rule="evenodd" d="M54.729 78.03c.7-12.677 11.545-22.386 24.222-21.686l26.486 1.464c12.677.7 22.386 11.545 21.686 24.222-.701 12.677-11.545 22.386-24.222 21.686l-26.486-1.463c-12.677-.701-22.386-11.545-21.686-24.222z" fill="#E47900"/><path d="M64.936 81.634c-1.719 3.401-2.817 7.125-3.04 11.173l-.168 3.043a22.95 22.95 0 0 1-6.974-14.857l10.182.64zM116.982 84.509c1.333 3.57 1.987 7.39 1.763 11.439l-.15 2.713a22.948 22.948 0 0 0 8.177-13.69l-9.79-.462z" fill="#FFF1A2"/><path d="M64.857 81.63a28.372 28.372 0 0 0-2.962 11.177l-.789 14.282a7 7 0 0 0 6.604 7.375l42.87 2.368a7 7 0 0 0 7.376-6.603l.789-14.281a28.378 28.378 0 0 0-1.713-11.435l-4.575-.253a6 6 0 0 1-5.66-6.322l.347-6.287a4.29 4.29 0 0 1 .008-.114L76.061 69.82c.017.248.02.5.005.755l-.312 5.649a6 6 0 0 1-6.321 5.66l-4.576-.253z" fill="#FFB100"/><path fill-rule="evenodd" clip-rule="evenodd" d="M97.167 97.168a.821.821 0 0 1-.368 1.101c-4.71 2.351-8.628 1.45-11.341-.057a14.337 14.337 0 0 1-3.907-3.216 9.127 9.127 0 0 1-.272-.34l-.017-.022-.005-.007-.001-.002-.001-.001.664-.483-.665.482a.821.821 0 0 1 1.33-.965v.001l.008.011.041.054a11.546 11.546 0 0 0 .887.986 12.694 12.694 0 0 0 2.735 2.066c2.33 1.294 5.67 2.09 9.811.024a.821.821 0 0 1 1.101.368z" fill="#F68B00"/><path fill-rule="evenodd" clip-rule="evenodd" d="M84.406 104.794a.632.632 0 0 1 .881-.143l-.369.513.369-.513c0-.001 0 0 0 0l.006.004.032.022c.03.02.076.051.138.09.124.078.31.188.549.314.48.252 1.169.562 2.002.788 1.664.452 3.878.571 6.175-.726a.632.632 0 1 1 .621 1.1c-2.663 1.504-5.24 1.358-7.127.845a11.223 11.223 0 0 1-2.26-.889 9.411 9.411 0 0 1-.853-.508l-.014-.01-.004-.003-.002-.001v-.001l.368-.512-.37.512a.632.632 0 0 1-.142-.882z" fill="#FFA600"/><path opacity=".626" fill-rule="evenodd" clip-rule="evenodd" d="M110.804 85.591a.632.632 0 0 1-.385.806l-3.322 1.173 3.181 1.63a.632.632 0 0 1-.576 1.124l-4.486-2.298a.633.633 0 0 1 .077-1.158l4.705-1.662a.632.632 0 0 1 .806.385zM70.675 83.374a.632.632 0 0 0 .294.844l3.172 1.532-3.34 1.269a.632.632 0 0 0 .448 1.18l4.712-1.79a.632.632 0 0 0 .05-1.159l-4.493-2.17a.632.632 0 0 0-.843.294z" fill="#FFA600"/><path fill-rule="evenodd" clip-rule="evenodd" d="M93.71 74.87l-.02-1.265a1.265 1.265 0 0 0 .038 2.53h.043a16.112 16.112 0 0 1 .799.027c.552.033 1.335.103 2.247.254 1.84.305 4.12.926 6.074 2.163a1.266 1.266 0 0 0 1.353-2.138c-2.351-1.488-5-2.187-7.013-2.52a24.22 24.22 0 0 0-2.513-.284 18.53 18.53 0 0 0-.944-.032H93.69l.018 1.265zM88.793 77.438l.159-1.255a1.265 1.265 0 0 1-.317 2.51h-.006l-.037-.005a15.89 15.89 0 0 0-.797-.06 21.703 21.703 0 0 0-2.261.004c-1.862.1-4.197.466-6.276 1.48a1.265 1.265 0 1 1-1.11-2.274c2.502-1.22 5.212-1.623 7.25-1.732a24.22 24.22 0 0 1 2.528-.006 18.677 18.677 0 0 1 .942.073l.058.006.017.002.005.001h.002s.002 0-.157 1.256z" fill="#E47900"/><path d="M90.088 85.352l-11.856-.655-.076 1.386c-.05.914.108 1.791.435 2.585 2.146.333 6.267 1.072 9.39 2.221a5.92 5.92 0 0 0 2.03-4.15l.077-1.387zM104.101 86.127l-11.832-.654-.076 1.386a5.928 5.928 0 0 0 2.112 4.877c2.755-.733 6.318-1.06 8.721-1.204a5.908 5.908 0 0 0 1.022-3.018l.077-1.386-.024-.001z" fill="#FFF1A2"/><path d="M84.749 85.057l5.336.295a2.674 2.674 0 0 1-5.336-.295zM98.786 85.833l5.314.294h.022a2.674 2.674 0 0 1-5.336-.294z" fill="#E47900"/><path fill-rule="evenodd" clip-rule="evenodd" d="M90.698 94.497a2.883 2.883 0 0 0 3.034-2.724c.088-1.592-2.578-5.516-2.578-5.516s-3.083 3.606-3.17 5.198a2.883 2.883 0 0 0 2.715 3.042z" fill="#F68B00"/></svg>