<svg viewBox="0 0 135 124" fill="none" xmlns="http://www.w3.org/2000/svg"><path d="M11.84 27.484c0-9.389 7.61-17 17-17h78.999c9.389 0 17 7.612 17 17v79c0 9.389-7.611 17-17 17h-79c-9.388 0-17-7.611-17-17v-79z" fill="#3D3D3D"/><path d="M13.67 114.167L81.463 10.484h26.376c9.15 0 16.611 7.228 16.986 16.285l-36.22 96.715H28.839c-6.624 0-12.363-3.788-15.169-9.317z" fill="#9069CD"/><path d="M50.06 10.484H28.84c-9.25 0-16.773 7.386-16.995 16.58l34.91 96.42h61.084c9.389 0 17-7.611 17-17V87.501l-74.78-77.017z" fill="#FF59BD"/><path fill-rule="evenodd" clip-rule="evenodd" d="M120.409 24.024c-2.928 7.768-11.598 11.69-19.365 8.763l-7.738-2.916c-7.767-2.928-11.69-11.598-8.763-19.365 2.928-7.767 11.598-11.69 19.365-8.763l7.738 2.917c7.767 2.927 11.69 11.597 8.763 19.364z" fill="#3D3D3D"/><path d="M119.756 23.108l-19.38-7.305c-6.355-2.395-13.307-.259-17.303 4.802a4.461 4.461 0 1 0-3.444 8.21c-.93 6.866 2.954 13.712 9.714 16.26l19.38 7.305c6.76 2.548 14.195-.032 18.029-5.805l.13.052a4.461 4.461 0 1 0 2.702-8.492c.339-6.438-3.473-12.632-9.828-15.027z" fill="#FFCBA3"/><path fill-rule="evenodd" clip-rule="evenodd" d="M102.804 38.723a2.13 2.13 0 0 0 2.743-1.24c.414-1.1-.598-4.453-.598-4.453l-.281.18c-.752.493-2.77 1.878-3.106 2.77a2.128 2.128 0 0 0 1.242 2.743z" fill="#E99B5F"/><path d="M77.768 30.683a2.13 2.13 0 1 0 1.502-3.985 2.13 2.13 0 0 0-1.502 3.985z" fill="#C86902"/><path d="M120.62 23.464c5.121 2.293 8.408 7.134 8.916 12.436l-6.797-2.562a5.465 5.465 0 0 1-3.187-7.041l1.068-2.833z" fill="#D6C5B9"/><path fill-rule="evenodd" clip-rule="evenodd" d="M107.61 42.92c1.038-.257 1.728-.91 2.029-1.386a.895.895 0 0 1 1.511.957c-.521.822-1.578 1.786-3.111 2.165-1.564.387-3.511.138-5.737-1.284a.895.895 0 0 1 .962-1.507c1.89 1.207 3.339 1.304 4.346 1.055z" fill="#E99B5F"/><path d="M108.145 26.984a4.876 4.876 0 0 1 6.283-2.843l.17.064a4.877 4.877 0 0 1 2.844 6.284l-1.779 4.719a4.877 4.877 0 0 1-6.284 2.843l-.169-.064a4.877 4.877 0 0 1-2.844-6.284l1.779-4.719zM106.431 26.338a4.878 4.878 0 0 0-2.844-6.284l-.17-.063a4.877 4.877 0 0 0-6.284 2.843l-1.778 4.719a4.877 4.877 0 0 0 2.843 6.284l.17.064a4.877 4.877 0 0 0 6.284-2.844l1.779-4.719z" fill="#fff"/><path d="M107.572 29.694a2.237 2.237 0 1 1 4.187 1.578l-.772 2.049a2.238 2.238 0 0 1-4.187-1.579l.772-2.049zM100.451 27.01a2.237 2.237 0 1 0-4.187-1.578l-.772 2.049a2.237 2.237 0 1 0 4.187 1.578l.772-2.049z" fill="#3D3D3D"/><path d="M115.658 35.222l-9.297-3.504.005-.015 1.779-4.719a4.876 4.876 0 0 1 6.283-2.843l.17.064a4.877 4.877 0 0 1 2.844 6.284l-1.779 4.719-.005.014zM95.35 27.567l9.296 3.504.006-.014 1.778-4.719a4.877 4.877 0 0 0-2.843-6.284l-.17-.063a4.877 4.877 0 0 0-6.284 2.843l-1.778 4.719-.005.014z" fill="#E99B5F"/><path fill-rule="evenodd" clip-rule="evenodd" d="M104.859 19.27l-.358.95c-2.172 5.764-8.606 8.675-14.37 6.503-5.764-2.173-8.676-8.607-6.503-14.371l.357-.949c2.173-5.764 8.607-8.676 14.371-6.503 5.764 2.173 8.676 8.607 6.503 14.37z" fill="#3D3D3D"/><path d="M24.468 16.82A8.643 8.643 0 1 0 18.857.47a8.643 8.643 0 0 0 5.611 16.35zM15.353 22.167C5.974 25.386.98 35.597 4.2 44.977c3.218 9.378 13.43 14.371 22.809 11.152l19.593-6.724c9.379-3.219 14.372-13.43 11.153-22.81-3.218-9.378-13.43-14.371-22.809-11.152l-19.593 6.724z" fill="#3D3D3D"/><path d="M58.389 28.939c1.728 8.679-3.185 17.514-11.787 20.466L27.01 56.129c-8.602 2.952-17.904-1.003-21.87-8.915L58.39 28.94z" fill="#D8D8D8"/><path d="M12.365 44.734l3.593-1.233a4.664 4.664 0 0 0 2.898-5.925l-1.662-4.843 22.379-7.68 1.662 4.842a4.664 4.664 0 0 0 5.926 2.898l4.002-1.374a17.256 17.256 0 0 1 4.077 6.573l2.73 7.955a9.437 9.437 0 0 1-5.863 11.99l-24.204 8.306a9.437 9.437 0 0 1-11.99-5.862l-2.73-7.955a17.255 17.255 0 0 1-.818-7.692z" fill="#FFCBA3"/><path d="M36.224 32.849a4.996 4.996 0 0 1 6.348 3.103l.119.347c-1.678.566-3.468 1.635-5.094 3.142-1.258 1.165-2.261 2.448-2.971 3.724a5.014 5.014 0 0 1-.505-1.053l-1-2.916a4.996 4.996 0 0 1 3.103-6.347zM25.033 36.69c-2.61.896-4 3.737-3.104 6.347l.12.348c1.68-.596 3.768-.859 5.998-.666 1.685.146 3.246.534 4.578 1.092a5.01 5.01 0 0 0-.244-1.102l-1-2.915a4.996 4.996 0 0 0-6.348-3.104z" fill="#fff"/><path fill-rule="evenodd" clip-rule="evenodd" d="M21.676 33.907a1.616 1.616 0 0 1 .464-2.237 28.386 28.386 0 0 1 13.284-4.559 1.616 1.616 0 1 1 .26 3.221 25.155 25.155 0 0 0-11.77 4.039 1.616 1.616 0 0 1-2.238-.464z" fill="#3D3D3D"/><path d="M26.84 38.806a1.64 1.64 0 0 1-1.275 2.148l.028.09.556 1.62c.617-.018 1.251 0 1.898.055.994.086 1.944.256 2.83.496a2.241 2.241 0 0 0-.11-.961l-.917-2.672a2.25 2.25 0 0 0-3.245-1.223c.099.132.179.282.235.447zM35.445 35.852A1.64 1.64 0 0 1 34.17 38l.029.09.917 2.671c.112.329.294.615.523.847a16.55 16.55 0 0 1 3.378-3.344l-.562-1.635a2.25 2.25 0 0 0-3.245-1.224c.099.133.179.282.235.447z" fill="#3D3D3D"/><path d="M46.4 51.496a2.51 2.51 0 1 1-4.749 1.63 2.51 2.51 0 0 1 4.748-1.63z" fill="#A41414"/><path d="M17.443 42.664c.303-.255.57-.546.797-.864l1.997.691a.539.539 0 0 1 .083.981l-3.467 1.904a.539.539 0 0 1-.519-.945l2.404-1.319-1.295-.448zM44.586 32.924a4.64 4.64 0 0 0 1.206.12l-.655 1.008 2.706-.434a.538.538 0 1 1 .171 1.063l-3.905.627a.539.539 0 0 1-.537-.825l1.014-1.56z" fill="#F7B286"/><path fill-rule="evenodd" clip-rule="evenodd" d="M50.158 50.278a.539.539 0 0 1 .468.6c-.492 3.975-3.407 6.142-4.844 6.744a.539.539 0 1 1-.416-.993c1.19-.498 3.76-2.396 4.191-5.883a.538.538 0 0 1 .601-.468z" fill="#F7B286"/><path d="M32.605 40.527c.103-.036 1.513 1.1 2.965 2.302 1.444 1.196 1.009 3.501-.765 4.11-1.773.608-3.533-.944-3.127-2.775.408-1.84.823-3.602.927-3.637z" fill="#E89665"/><path d="M11.5 38.499l36.59-12.195 2.345 7.152a8 8 0 0 1-5.329 10.163l-5.606 1.66-7.5-6.743-2 9.5-4.802 2.455c-4.36 2.23-9.683.054-11.232-4.593l-2.466-7.4z" fill="#3D3D3D"/><path fill-rule="evenodd" clip-rule="evenodd" d="M12.486 37.6a2.26 2.26 0 0 0-1.404 2.87l1.834 5.345c1.823 5.312 7.608 8.14 12.92 6.317 5.312-1.823 8.14-7.607 6.317-12.92 1.824 5.313 7.608 8.14 12.92 6.318 5.312-1.824 8.14-7.608 6.318-12.92l-1.834-5.344a2.26 2.26 0 0 0-2.871-1.404L12.486 37.6zm19.97-4.465L47.42 28l.367 1.069-14.962 5.135-.367-1.07zm1.101 3.206l.734 2.137 14.962-5.135-.733-2.137-14.963 5.135zm3.542 5.952a7.875 7.875 0 0 1-1.765-1.783l14.343-4.923a7.875 7.875 0 0 1-.298 2.492L37.1 42.293zm3.018 1.354a7.874 7.874 0 0 0 4.223-.255A7.873 7.873 0 0 0 47.828 41l-7.71 2.647zm-26.897-3.91l14.962-5.135.367 1.069-14.963 5.135-.366-1.069zm1.1 3.206l.734 2.138 14.962-5.135-.734-2.138-14.962 5.136zm3.542 5.953a7.879 7.879 0 0 1-1.765-1.784L30.44 42.19a7.878 7.878 0 0 1-.298 2.491l-12.28 4.215zm3.018 1.353a7.874 7.874 0 0 0 4.222-.254 7.874 7.874 0 0 0 3.49-2.392l-7.712 2.646z" fill="#58CC02"/><path d="M1.287 67.706a6 6 0 1 1 10.828-5.173l9.914 20.754A6 6 0 0 1 11.2 88.46L1.287 67.706z" fill="#49C5FF" fill-opacity=".3"/><path d="M3.994 66.413a3 3 0 1 1 5.414-2.586l11.206 23.46a3 3 0 1 1-5.414 2.587L3.994 66.413z" fill="#49C5FF"/><path d="M5.543 67.335a.5.5 0 0 1 .902-.43l9.051 18.948a.5.5 0 0 1-.902.431L5.543 67.335z" fill="#84D8FF"/><path d="M14.729 91.207a1 1 0 0 1 .471-1.333l5.414-2.586a1 1 0 0 1 1.334.471l1.724 3.61a1 1 0 0 1-.471 1.333l-5.415 2.586a1 1 0 0 1-1.333-.471l-1.724-3.61z" fill="#1CB0F6"/><path d="M120.645 77.338a6 6 0 1 1 10.24 6.256l-11.468 18.774a6 6 0 0 1-10.241-6.255l11.469-18.775z" fill="#A5ED6E" fill-opacity=".3"/><path d="M123.205 78.902a3 3 0 1 1 5.12 3.128l-13.553 22.187a3 3 0 0 1-5.121-3.127l13.554-22.188z" fill="#A5ED6E"/><path d="M123.277 80.703a.5.5 0 1 1 .853.522l-10.947 17.92a.5.5 0 0 1-.854-.52l10.948-17.922z" fill="#FFFBE3"/><path d="M108.277 101.422a1 1 0 0 1 1.375-.332l5.12 3.127a1 1 0 0 1 .332 1.375l-2.085 3.414a1 1 0 0 1-1.375.332l-5.12-3.128a1 1 0 0 1-.332-1.375l2.085-3.413z" fill="#58CC02"/><path d="M93.348 95.103a7.681 7.681 0 0 0-7.68-7.682H60.702a7.681 7.681 0 0 0-7.68 7.681v3.726a4.58 4.58 0 0 0 0 9.159v6.7a8.644 8.644 0 0 0 8.643 8.644h23.039a8.644 8.644 0 0 0 8.643-8.644v-6.7a4.58 4.58 0 0 0 0-9.159v-3.725z" fill="#A46648"/><path d="M86.467 60.63a10.02 10.02 0 0 1 9.411 2.46l3.887 3.707c4.007 3.823 4.157 10.17.334 14.177l-3.315 3.476a10.02 10.02 0 0 1-9.31 2.894v2.395l-14.34-2.395-17.339 2.395v-2.094a9.987 9.987 0 0 1-6.208-3.051l-3.315-3.476c-3.823-4.007-3.673-10.355.334-14.177l3.887-3.707a10.016 10.016 0 0 1 8.946-2.566c.783-4.758 4.914-8.388 9.894-8.388h7.247c4.966 0 9.09 3.611 9.887 8.35z" fill="#3D3D3D"/><path d="M74.455 107.337c-.482-.918-1.223-1.887-1.27-1.887-.047 0-.787.969-1.269 1.887a1.729 1.729 0 0 0 .501 3.383h1.537a1.729 1.729 0 0 0 .5-3.383z" fill="#86401F"/><path d="M66.218 79.426a7.76 7.76 0 0 0 3.87 6.075H50.621L53 98.829a4.486 4.486 0 0 1 .241.002l19.944-10.577L93.132 98.83a4.634 4.634 0 0 1 .232-.002l2.385-13.328H76.413a7.759 7.759 0 0 0 3.74-5.999l.186-2.183a7.767 7.767 0 0 0-7.129 3.434 7.768 7.768 0 0 0-7.178-3.51l.186 2.183z" fill="#FFCA00"/><path d="M66.63 95.063c2.837 0 5.138 2.3 5.138 5.138v3.201a5.134 5.134 0 0 1-2.342 4.311c-1.124-.967-2.71-1.838-4.56-2.42a14.594 14.594 0 0 0-3.222-.64 5.15 5.15 0 0 1-.153-1.251v-3.201c0-2.838 2.3-5.138 5.138-5.138zM79.815 95.063a5.138 5.138 0 0 0-5.138 5.138v3.201c0 1.792.918 3.37 2.31 4.29 1.12-.959 2.697-1.821 4.534-2.399a14.578 14.578 0 0 1 3.28-.645c.1-.399.153-.816.153-1.246v-3.201c0-2.838-2.3-5.138-5.139-5.138z" fill="#fff"/><path d="M79.216 101.295a1.852 1.852 0 0 0 1.523-2.906 2.274 2.274 0 0 1 3.025 2.148v2.864a2.274 2.274 0 0 1-4.548 0v-2.106zM66.041 101.295a1.852 1.852 0 0 0 1.524-2.906 2.275 2.275 0 0 1 3.025 2.148v2.864a2.274 2.274 0 0 1-4.549 0v-2.106z" fill="#3D3D3D"/><path fill-rule="evenodd" clip-rule="evenodd" d="M69.067 93.69c-2.377 3.182-6.004 3.575-7.59 3.365a1.031 1.031 0 1 1 .271-2.045c1.095.145 3.87-.15 5.667-2.555a1.031 1.031 0 1 1 1.652 1.234zM77.304 93.69c2.377 3.182 6.004 3.575 7.59 3.365a1.031 1.031 0 1 0-.271-2.045c-1.095.145-3.87-.15-5.666-2.555a1.031 1.031 0 1 0-1.653 1.234z" fill="#884727"/><path d="M73.781 114.187c-.79.905.097 2.063 1.294 1.964l5.785-.481c1.198-.099 1.881-1.388.952-2.151a5.772 5.772 0 0 0-4.15-1.294 5.77 5.77 0 0 0-3.881 1.962z" fill="#fff"/></svg>