<svg viewBox="0 0 135 124" fill="none" xmlns="http://www.w3.org/2000/svg"><path d="M11 28c0-9.389 7.61-17 17-17h79c9.389 0 17 7.611 17 17v79c0 9.389-7.611 17-17 17H28c-9.39 0-17-7.611-17-17V28z" fill="#FEC701"/><path fill-rule="evenodd" clip-rule="evenodd" d="M64.755 27.337c8.201 8.201 8.201 21.498 0 29.699L11.35 110.443a17.08 17.08 0 0 1-.348-3.443L11 51.394l24.057-24.057c8.201-8.2 21.497-8.2 29.698 0zM124 28.394v35.354l-8.995 8.997c-4.882 4.881-12.796 4.881-17.678 0-4.881-4.882-4.881-12.797 0-17.678L124 28.394z" fill="#FFD900"/><path d="M81.443 18.914c0 7.59-6.189 13.744-13.823 13.744-7.635 0-13.824-6.153-13.824-13.744S59.985 5.169 67.62 5.169c7.634 0 13.823 6.154 13.823 13.745z" fill="#F68B00"/><path fill-rule="evenodd" clip-rule="evenodd" d="M22.493 64.545c0-15.768 12.782-28.55 28.55-28.55h32.942c15.768 0 28.55 12.782 28.55 28.55s-12.782 28.55-28.55 28.55H51.043c-15.768 0-28.55-12.782-28.55-28.55z" fill="#F68B00"/><path d="M112.31 68.153c-1.774 14.065-13.78 24.942-28.325 24.942H51.043c-14.546 0-26.55-10.877-28.324-24.942h89.591z" fill="#FFF1A2"/><path d="M32.507 49.632a2.673 2.673 0 0 1 2.672-2.673h65.363a2.673 2.673 0 0 1 2.673 2.673v47.137c0 6.628-5.373 12-12 12H44.507c-6.628 0-12-5.372-12-12V49.632z" fill="#FFB100"/><path d="M43.468 44.416h51.64v8.422h-51.64v-8.422z" fill="#F68B00"/><path fill-rule="evenodd" clip-rule="evenodd" d="M52.207 68.313a7.373 7.373 0 1 1 14.746 0v4.549a7.373 7.373 0 1 1-14.746 0v-4.55z" fill="#FFF1A2"/><path fill-rule="evenodd" clip-rule="evenodd" d="M58.275 68.58a3.32 3.32 0 1 1 6.641 0v4.171a3.32 3.32 0 0 1-6.641 0v-4.17z" fill="#F68B00"/><path d="M61.099 65.965a2.431 2.431 0 1 1-4.863 0 2.431 2.431 0 0 1 4.863 0z" fill="#FFF1A2"/><path fill-rule="evenodd" clip-rule="evenodd" d="M84.41 68.313a7.373 7.373 0 1 0-14.746 0v4.549a7.373 7.373 0 1 0 14.746 0v-4.55z" fill="#FFF1A2"/><path fill-rule="evenodd" clip-rule="evenodd" d="M51.123 75.878s12.44.865 17.13 3.756c4.691 2.891-7.9 16.741-7.9 16.741l-14.025-12.04 4.795-8.457z" fill="#FFB100"/><path fill-rule="evenodd" clip-rule="evenodd" d="M86.66 76.355s-12.44.865-17.132 3.756c-4.69 2.892 7.9 16.742 7.9 16.742l14.026-12.04-4.795-8.458z" fill="#FFB100"/><path fill-rule="evenodd" clip-rule="evenodd" d="M61.239 103.898a.784.784 0 0 1 1.083-.238l-.423.66c.423-.66.423-.66.422-.661l.009.005.04.025a9.984 9.984 0 0 0 .879.454c.613.28 1.489.616 2.538.84 2.094.447 4.848.442 7.606-1.323a.784.784 0 1 1 .846 1.321c-3.2 2.048-6.404 2.043-8.78 1.536a13.9 13.9 0 0 1-2.862-.947 11.913 11.913 0 0 1-1.032-.535l-.062-.037-.017-.011-.006-.004-.002-.001-.001-.001.422-.661-.423.661a.784.784 0 0 1-.237-1.083zm1.082-.239z" fill="#FFA000"/><path opacity=".626" fill-rule="evenodd" clip-rule="evenodd" d="M92.654 70.015c.167.4-.022.86-.422 1.026l-4.039 1.682 4.056 1.803a.784.784 0 1 1-.638 1.433l-5.72-2.542a.784.784 0 0 1 .017-1.44l5.72-2.384c.4-.167.86.022 1.026.422zM42.745 70.015c-.167.4.023.86.422 1.026l4.039 1.682-4.056 1.803a.784.784 0 0 0 .638 1.433l5.72-2.542a.784.784 0 0 0-.017-1.44l-5.72-2.384a.784.784 0 0 0-1.026.422z" fill="#FFA000"/><path fill-rule="evenodd" clip-rule="evenodd" d="M25.539 52.478a7.451 7.451 0 0 1 7.338-6.155h8.226a7.451 7.451 0 0 1 7.451 7.452V60.8a7.451 7.451 0 0 1-7.451 7.45h-9.468c-4.634 0-8.144-4.184-7.337-8.747l1.241-7.025zM87.165 52.98a7.451 7.451 0 0 1 7.451-7.45h7a7.452 7.452 0 0 1 7.386 6.465l1.043 7.82c.596 4.467-2.879 8.436-7.386 8.436h-8.043a7.451 7.451 0 0 1-7.451-7.45v-7.82zM51.393 59.958a2.383 2.383 0 0 1 .6-3.317c3.182-2.208 6.475-2.42 8.89-2.103 1.204.157 2.212.447 2.926.7a12.231 12.231 0 0 1 1.11.455l.079.039.027.014.01.005.005.002.002.001c.001 0 .002.001-1.094 2.118l1.096-2.117a2.383 2.383 0 0 1-2.179 4.24l-.014-.007a7.455 7.455 0 0 0-.633-.257 9.703 9.703 0 0 0-1.954-.467c-1.6-.21-3.606-.058-5.554 1.293a2.383 2.383 0 0 1-3.317-.6zm11.46.03z" fill="#F68B00"/><path fill-rule="evenodd" clip-rule="evenodd" d="M69.209 60.783h16.684v8.103L69.209 65.17v-4.387z" fill="#FFB100"/><path fill-rule="evenodd" clip-rule="evenodd" d="M68.336 81.385A3.58 3.58 0 0 0 71.91 77.8c0-1.98-3.575-6.664-3.575-6.664S64.76 75.819 64.76 77.8a3.58 3.58 0 0 0 3.576 3.585z" fill="#F68B00"/><path d="M78.514 49.502l3.302 5.72c1.468 2.54-.367 5.718-3.302 5.718-2.934 0-4.769-3.177-3.301-5.719l3.301-5.719zM102.586 31.993l-1.709-6.378c-.76-2.835 1.835-5.43 4.669-4.67 2.835.76 3.785 4.303 1.71 6.379l-4.67 4.669zM32.653 31.993l1.709-6.378c.76-2.835-1.835-5.43-4.67-4.67-2.834.76-3.784 4.303-1.709 6.379l4.67 4.669zM105.452 37.813l5.719-3.302c2.541-1.467 5.718.367 5.718 3.302s-3.177 4.77-5.718 3.302l-5.719-3.302zM29.787 37.813l-5.719-3.302c-2.542-1.467-5.719.367-5.719 3.302s3.177 4.77 5.72 3.302l5.718-3.302z" fill="#FFF1A2"/><path d="M57.927 88.381a2.65 2.65 0 0 1 2.651-2.65h15.623a2.65 2.65 0 1 1-.786 5.182l-5.077-1.577a6.567 6.567 0 0 0-3.896 0l-5.078 1.577a2.65 2.65 0 0 1-3.437-2.532z" fill="#F68B00"/><path fill-rule="evenodd" clip-rule="evenodd" d="M78.73 68.58a3.32 3.32 0 1 0-6.641 0v4.17a3.32 3.32 0 0 0 6.641 0v-4.17z" fill="#F68B00"/><path fill-rule="evenodd" clip-rule="evenodd" d="M68.125 61.616a2.5 2.5 0 0 1 3.527.241c.86.987 5.053 4.018 12.866 4.018a2.5 2.5 0 0 1 0 5c-8.988 0-14.662-3.469-16.635-5.732a2.5 2.5 0 0 1 .242-3.527z" fill="#F68B00"/></svg>