<svg viewBox="0 0 135 124" version="1.1" xmlns="http://www.w3.org/2000/svg"><g stroke="none" stroke-width="1" fill="none" fill-rule="evenodd"><g transform="translate(3 3)"><g><rect fill="#C9C9C9" x="8" y="8" width="113" height="113" rx="17"/><g fill="#E5E5E5" fill-rule="nonzero"><path d="M67.246 13h1.613a1.344 1.344 0 0 1 .089 2.685l-.089.003h-.019c-4.52 1.71-7.74 6.12-7.74 11.29 0 5.17 3.22 9.58 7.742 11.29h.017a1.344 1.344 0 1 1 0 2.687h-1.613l-.08-.002-.11.002c-7.193 0-13.125-5.466-13.956-12.516a7.183 7.183 0 0 1-.1-1.22V27.1l.002-.13a14.671 14.671 0 0 1-.002-.234 7.2 7.2 0 0 1 .1-1.22C53.93 18.466 59.863 13 67.056 13l.11.003.08-.003h1.613-1.613z"/></g><path d="M94.94 17h8.12a1 1 0 0 1 .999.938l3.875 62a1 1 0 0 1-.998 1.062H91.064a1 1 0 0 1-.998-1.062l3.875-62A1 1 0 0 1 94.94 17zM97 87v34H25c-9.389 0-17-7.611-17-17V87h89z" fill="#A4A4A4"/><rect fill="#B2B2B2" x="16" y="97" width="9" height="16" rx="2"/><rect fill="#B2B2B2" x="32" y="97" width="9" height="16" rx="2"/><rect fill="#B2B2B2" x="48" y="97" width="9" height="16" rx="2"/><rect fill="#B2B2B2" x="64" y="97" width="9" height="16" rx="2"/><path d="M34 116h5a2 2 0 0 1 2 2v3h-9v-3a2 2 0 0 1 2-2zM50 116h5a2 2 0 0 1 2 2v3h-9v-3a2 2 0 0 1 2-2zM66 116h5a2 2 0 0 1 2 2v3h-9v-3a2 2 0 0 1 2-2zM23 116a2 2 0 0 1 2 2v3a16.92 16.92 0 0 1-9-2.576V118a2 2 0 0 1 2-2h5z" fill="#B2B2B2"/><rect fill="#FFF" transform="rotate(45 34 19.293)" x="30.5" y="15.793" width="7" height="7" rx="2"/><rect fill="#FFF" transform="rotate(45 114 39)" x="111" y="36" width="6" height="6" rx="2"/><rect fill="#FFF" transform="rotate(45 69 54)" x="67" y="52" width="4" height="4" rx="1"/><rect fill="#E5E5E5" x="17" y="35" width="26" height="25" rx="12.5"/><path d="M52.778 42.222a8 8 0 0 0-11.314 0l-4.242 4.242a8 8 0 0 0 11.314 11.314l4.242-4.242a8 8 0 0 0 0-11.314z" fill="#E5E5E5"/><rect fill="#E5E5E5" x="11" y="53" width="47" height="7.673" rx="3.837"/><path d="M80.962 0h8.076a1 1 0 0 1 .999.962l2.923 76a1 1 0 0 1-1 1.038H78.04a1 1 0 0 1-1-1.038l2.923-76a1 1 0 0 1 1-.962z" fill="#A4A4A4"/><path d="M100 66H27.637a2 2 0 0 0-1.332.508l-22.395 20A2 2 0 0 0 5.242 90H101V67a1 1 0 0 0-1-1z" fill="#A4A4A4"/><path d="M102.306 66.126l23.617 20.36A2 2 0 0 1 124.617 90H77.383a2 2 0 0 1-1.306-3.515l23.617-20.36a2 2 0 0 1 2.612 0z" fill="#B2B2B2"/></g><path d="M121 87v17c0 9.389-7.611 17-17 17H80V87h41z" fill="#B2B2B2"/><rect fill="#A4A4A4" x="89" y="97" width="9" height="16" rx="2"/><rect fill="#A4A4A4" x="105" y="97" width="9" height="16" rx="2"/><path d="M91 116h5a2 2 0 0 1 2 2v3h-9v-3a2 2 0 0 1 2-2zM112 116a2 2 0 0 1 1.986 1.76A16.909 16.909 0 0 1 105 120.97V118a2 2 0 0 1 2-2h5z" fill="#A4A4A4"/></g></g></svg>