<svg viewBox="0 0 135 124" fill="none" xmlns="http://www.w3.org/2000/svg"><g clip-path="url(#clip0)"><path d="M11 28c0-9.389 7.611-17 17-17h79c9.389 0 17 7.611 17 17v79c0 9.389-7.611 17-17 17H28c-9.389 0-17-7.611-17-17V28z" fill="#E5E5E5"/><path fill-rule="evenodd" clip-rule="evenodd" d="M91.17 66.917h-5.91c-.446 0-.806.388-.806.867v19.369c0 .479.36.867.805.867h5.91c.445 0 .806-.388.806-.867V67.784c0-.479-.36-.867-.806-.867z" fill="#D1D1D1"/><path fill-rule="evenodd" clip-rule="evenodd" d="M92.55 64.315h-8.672a.867.867 0 0 0-.867.868v2.601c0 .48.388.867.867.867h8.673a.867.867 0 0 0 .867-.867v-2.602a.867.867 0 0 0-.867-.867z" fill="#9F9F9F"/><path d="M127.727 81.323c0-.419-.218-.807-.576-1.024l-21.519-13.024a1.197 1.197 0 0 0-1.239 0L82.874 80.3a1.196 1.196 0 0 0-.577 1.023v31.917c0 .66.536 1.196 1.196 1.196h43.039c.66 0 1.195-.536 1.195-1.196V81.323z" fill="#D1D1D1"/><path d="M127.151 80.3c.358.216.576.604.576 1.022v3.969l-22.714-13.748L82.297 85.29v-3.969c0-.418.22-.806.577-1.023l21.519-13.024.026-.015a3.288 3.288 0 0 1 1.187 0l.026.015 21.519 13.024z" fill="#ADADAD"/><path fill-rule="evenodd" clip-rule="evenodd" d="M105.012 68.258l-23.43 14.18a2.093 2.093 0 1 1-2.166-3.58l23.893-14.462a3.29 3.29 0 0 1 3.406 0l23.894 14.462a2.093 2.093 0 0 1-2.167 3.58l-23.43-14.18z" fill="#9F9F9F"/><path d="M105.013 87.263a5.837 5.837 0 1 1 0-11.674 5.837 5.837 0 0 1 0 11.674z" fill="#D1D1D1"/><path fill-rule="evenodd" clip-rule="evenodd" d="M105.013 76.486a4.94 4.94 0 1 1 0 9.88 4.94 4.94 0 0 1 0-9.88zm6.734 4.94a6.734 6.734 0 1 0-13.468 0 6.734 6.734 0 0 0 13.468 0z" fill="#fff"/><path fill-rule="evenodd" clip-rule="evenodd" d="M104.179 76.257v10.34h1.668v-10.34h-1.668z" fill="#fff"/><path fill-rule="evenodd" clip-rule="evenodd" d="M99.842 82.26h10.34v-1.668h-10.34v1.668z" fill="#fff"/><path d="M119.415 90.312H108.15v16.738h11.265V90.312z" fill="#D1D1D1"/><path fill-rule="evenodd" clip-rule="evenodd" d="M109.345 91.508h8.874v14.346h-8.874V91.508zm10.07-1.196v16.738H108.15V90.312h11.265z" fill="#fff"/><path fill-rule="evenodd" clip-rule="evenodd" d="M113.028 90.896v15.57h1.509v-15.57h-1.509z" fill="#fff"/><path fill-rule="evenodd" clip-rule="evenodd" d="M108.793 99.435h9.978v-1.51h-9.978v1.51z" fill="#fff"/><path d="M124.565 90.91a.597.597 0 0 0-.598-.598h-4.552v16.738h4.552a.598.598 0 0 0 .598-.598V90.91zM108.149 90.312h-4.552a.598.598 0 0 0-.598.598v15.542c0 .33.268.598.598.598h4.552V90.312z" fill="#9F9F9F"/><path fill-rule="evenodd" clip-rule="evenodd" d="M99.477 90.91h-9.763c-.437 0-.791.406-.791.906v17.192c0 .499.354.904.791.904h9.763c.437 0 .792-.405.792-.904V91.816c0-.5-.355-.905-.792-.905z" fill="#9F9F9F"/><path fill-rule="evenodd" clip-rule="evenodd" d="M99.602 91.556a.394.394 0 0 1 .089.26v17.192c0 .114-.04.203-.09.259-.047.054-.092.067-.124.067h-9.763c-.032 0-.077-.013-.124-.067a.395.395 0 0 1-.09-.259V91.816c0-.114.041-.204.09-.26.047-.054.092-.067.124-.067h9.763c.032 0 .077.013.125.067zm1.245.26c0-.745-.543-1.484-1.37-1.484h-9.763c-.827 0-1.37.74-1.37 1.484v17.192c0 .744.543 1.483 1.37 1.483h9.763c.827 0 1.37-.739 1.37-1.483V91.816z" fill="#fff"/><path d="M97.58 101.701a1.395 1.395 0 1 1 .001-2.79 1.395 1.395 0 0 1 0 2.79z" fill="#D1D1D1"/><path d="M102.546 109.727c0-.661-.535-1.196-1.195-1.196H87.843c-.661 0-1.196.535-1.196 1.196v2.502c0 .661.535 1.196 1.195 1.196h13.509c.66 0 1.195-.535 1.195-1.196v-2.502z" fill="#AFAFAF"/><path d="M103.969 112.342c0-.661-.536-1.196-1.196-1.196H86.419c-.66 0-1.196.535-1.196 1.196v2.092h18.746v-2.092z" fill="#AFAFAF"/><path d="M79.646 92.332c0-.626-.508-1.134-1.135-1.134h-.122c-.627 0-1.135.508-1.135 1.134v20.963c0 .629.51 1.139 1.14 1.139h.112c.63 0 1.14-.51 1.14-1.139V92.332z" fill="#9F9F9F"/><path d="M86.565 95.033c0-.7-.567-1.267-1.266-1.267H71.6c-.7 0-1.266.567-1.266 1.267v8.804c0 .699.567 1.266 1.266 1.266H85.3c.7 0 1.266-.567 1.266-1.266v-8.804z" fill="#fff"/><path d="M66.008 56.882c.368 16.709-12.878 30.552-29.587 30.92C19.712 88.17 5.869 74.924 5.5 58.215c-.368-16.708 12.878-30.552 29.587-30.92 16.708-.368 30.552 12.878 30.92 29.587z" fill="#9F9F9F"/><path d="M25.848 53.163l1.631 2.45 27.788-21.194a30.393 30.393 0 0 0-2.423-1.846l-26.997 20.59z" fill="#979797"/><path d="M15.83 60.81l9.833-7.5 9.834-7.5 20.309 14.12.644 29.24-39.976.882-.645-29.242z" fill="#D1D1D1"/><path d="M8.133 97.063c-1.084-9.505 5.743-18.09 15.248-19.173l25.93-2.957c9.505-1.084 18.09 5.743 19.173 15.248 1.084 9.505-5.742 18.089-15.248 19.173l-25.93 2.957c-9.505 1.084-18.09-5.743-19.173-15.248z" fill="#9F9F9F"/><path fill-rule="evenodd" clip-rule="evenodd" d="M52.442 82.67a5.431 5.431 0 0 0-7.631.871 1.45 1.45 0 1 1-2.27-1.805A8.332 8.332 0 0 1 54.247 80.4a1.45 1.45 0 0 1-1.806 2.27z" fill="#979797"/><path d="M41.444 75.572a5.189 5.189 0 1 1-10.376.229 5.189 5.189 0 0 1 10.375-.229z" fill="#D1D1D1"/><path d="M20.24 64.328a7.003 7.003 0 0 1 14.002-.309l.105 4.762a7.003 7.003 0 1 1-14.002.309l-.105-4.763z" fill="#fff"/><path d="M20.28 66.142a3.088 3.088 0 1 1 6.175-.136l.046 2.1a3.088 3.088 0 1 1-6.175.136l-.046-2.1z" fill="#9F9F9F"/><path d="M51.556 63.637a7.003 7.003 0 1 0-14.002.309l.105 4.762c.085 3.866 3.27 6.076 7.137 5.99 3.866-.084 6.95-2.432 6.865-6.299l-.105-4.762z" fill="#fff"/><path d="M37.942 72.439l14.937-2.31.592 3.833-14.937 2.308-.592-3.831z" fill="#D1D1D1"/><path d="M37.565 64.446a3.088 3.088 0 1 1 6.175-.136l.046 2.1a3.088 3.088 0 0 1-6.175.136l-.046-2.1z" fill="#9F9F9F"/><path d="M20.004 60.654a3.868 3.868 0 0 1 3.42-2.889l23.223-1.957a3.868 3.868 0 0 1 3.413 1.525l5.033 6.672-37.15 4.649 2.06-8z" fill="#D1D1D1"/><path fill-rule="evenodd" clip-rule="evenodd" d="M31.795 61.196c-3.83-2.414-7.531-.413-8.936.963a1.53 1.53 0 0 1-2.141-2.186c1.902-1.862 7.16-4.861 12.708-1.366a1.53 1.53 0 0 1-1.631 2.589zM53.277 63.448a1.45 1.45 0 0 1-1.252 1.625L37.909 66.9a1.45 1.45 0 0 1-.373-2.877l14.116-1.828a1.45 1.45 0 0 1 1.625 1.252z" fill="#9F9F9F"/><path d="M128.115 31.33c0 16.75-13.578 30.327-30.328 30.327S67.46 48.08 67.46 31.33 81.038 1.001 97.788 1.001c16.749 0 30.327 13.579 30.327 30.328z" fill="#979797"/><path d="M67.255 69.603l8.33-20.774a1 1 0 0 1 1.598-.371l9.255 8.33a1 1 0 0 1-.091 1.56L68.761 70.792c-.814.575-1.877-.264-1.506-1.189z" fill="#979797"/><path fill-rule="evenodd" clip-rule="evenodd" d="M111.167 44.71c7.39-7.39 7.39-19.371 0-26.76-7.389-7.39-19.37-7.39-26.76 0-7.389 7.389-7.389 19.37 0 26.76 7.39 7.389 19.371 7.389 26.76 0zm3.536 3.535c9.342-9.342 9.342-24.489 0-33.831-9.342-9.342-24.489-9.342-33.83 0-9.343 9.342-9.343 24.489 0 33.83 9.341 9.343 24.488 9.343 33.83 0z" fill="#fff"/><path d="M81.524 43.854l28.674-28.674 3.74 3.739-28.675 28.674-3.739-3.739z" fill="#fff"/></g><defs><clipPath id="clip0"><path fill="#fff" d="M0 0h135v124H0z"/></clipPath></defs></svg>