<svg viewBox="0 0 135 124" fill="none" xmlns="http://www.w3.org/2000/svg"><path d="M124 28c0-9.389-7.611-17-17-17H28c-9.389 0-17 7.611-17 17v79c0 9.389 7.611 17 17 17h79c9.389 0 17-7.611 17-17V28z" fill="#BDF2FE"/><path d="M76.29 6.56V2.68H59.43C39.775 2.99 24.003 19.012 24 38.67v75.43h72V38.67A36 36 0 0 0 76.29 6.56z" fill="#252525"/><path d="M40.29 114.1V38.67c0-19.882 16.118-36 36-36s36 16.118 36 36v75.43h-72z" fill="#FF3A56"/><path d="M112.29 64h-72v50.1h72V64z" fill="#00AEF8"/><path d="M76.29 9.76c15.967 0 28.91 12.943 28.91 28.91v75.43H47.38V38.67c0-15.967 12.944-28.91 28.91-28.91z" fill="#88392C"/><path d="M78.38.64a19.088 19.088 0 0 0-2.16-.45V0h-2.46a17.47 17.47 0 0 0-4.44.62 1.19 1.19 0 0 0-.8 1.53L72 12.38a1.2 1.2 0 0 0 1.13.81H76v-2.43l3.19-8.56a1.19 1.19 0 0 0-.81-1.56z" fill="#006BFF"/><path d="M77.8 12.4l3.74-10.2a1.19 1.19 0 0 0-.81-1.56 17.94 17.94 0 0 0-4.5-.64 17.37 17.37 0 0 0-4.56.62 1.19 1.19 0 0 0-.8 1.53l3.45 10.23a1.2 1.2 0 0 0 1.13.81h1.23a1.18 1.18 0 0 0 1.12-.79z" fill="#00AEF8"/><path d="M76.29 108.5c-12.05 0-21.82-9.77-21.82-21.82V68.53h43.64v18.15c0 12.05-9.77 21.82-21.82 21.82z" fill="#FF3A56"/><path d="M92.3 68.53V86a15.94 15.94 0 0 1-2.56 8.69 14.607 14.607 0 0 1-1.35 1.78A15.94 15.94 0 0 1 77.06 102H75.38c-8.483-.478-15.113-7.503-15.1-16V68.53H92.3z" fill="#252525"/><path d="M89.74 94.73a14.607 14.607 0 0 1-1.35 1.78l-4.32-8.78L83 85.46l-6.77-13.71-6.68 13.71-1.12 2.29-4.26 8.74a15.82 15.82 0 0 1-1.35-1.79l4.5-9.24 1.11-2.28 7.14-14.65h1.31l7.2 14.67 1.11 2.26 4.55 9.27z" fill="#A6A6A6"/><path d="M92.3 68.53V71l-7.11 14.46-1.12 2.27-7 14.29H75.39l-6.96-14.27-1.11-2.29L60.28 71v-2.47h1l7.13 14.65 1.12 2.28 6.68 13.72L83 85.46l1.12-2.26 7.19-14.67h.99z" fill="#A6A6A6"/><path d="M59.93 63.46a2.59 2.59 0 1 0 0-5.18 2.59 2.59 0 0 0 0 5.18zM70.78 63.46a2.59 2.59 0 1 0 0-5.18 2.59 2.59 0 0 0 0 5.18zM81.64 63.46a2.59 2.59 0 1 0 0-5.18 2.59 2.59 0 0 0 0 5.18zM92.5 63.46a2.59 2.59 0 1 0 0-5.18 2.59 2.59 0 0 0 0 5.18z" fill="#FFD300"/><path d="M106 93.19h5.19a3.21 3.21 0 0 1 3.21 3.21v17.7h-11.6V96.4a3.21 3.21 0 0 1 3.2-3.21zM41.08 93.19h5.19a3.21 3.21 0 0 1 3.21 3.21v17.7h-11.6V96.4a3.21 3.21 0 0 1 3.2-3.21z" fill="#006BFF"/><path d="M54.22 37.74c0-12.338 10.002-22.34 22.34-22.34S98.9 25.402 98.9 37.74H54.22z" fill="#3F1114"/><path d="M52.21 37.74c0-12.338 10.002-22.34 22.34-22.34s22.34 10.002 22.34 22.34H52.21z" fill="#fff"/><path d="M53.19 37.74h23.48L91.36 23a22.32 22.32 0 0 0-15.85-7.62L53.19 37.74z" fill="#C9EEFE"/><path d="M52.21 37.74h44.68v13.31a3.25 3.25 0 0 1-3.25 3.25H55.47a3.25 3.25 0 0 1-3.25-3.25V37.74h-.01z" fill="#006BFF"/><path d="M54.22 37.74H98.9v13.31a3.25 3.25 0 0 1-3.25 3.25H57.47a3.25 3.25 0 0 1-3.25-3.25V37.74z" fill="#00AEF8"/><path d="M94.425 41.32h-8.69a1.595 1.595 0 1 0 0 3.19h8.69a1.595 1.595 0 1 0 0-3.19z" fill="#fff"/><path d="M80.16 44.56a1.72 1.72 0 1 0 0-3.44 1.72 1.72 0 0 0 0 3.44z" fill="#006BFF"/><path d="M94.425 47.6h-8.69a1.595 1.595 0 1 0 0 3.19h8.69a1.595 1.595 0 1 0 0-3.19z" fill="#fff"/><path d="M80.19 50.92a1.72 1.72 0 1 0 0-3.44 1.72 1.72 0 0 0 0 3.44z" fill="#006BFF"/><path d="M73.085 41.32h-8.69a1.595 1.595 0 1 0 0 3.19h8.69a1.595 1.595 0 1 0 0-3.19z" fill="#fff"/><path d="M58.82 44.56a1.72 1.72 0 1 0 0-3.44 1.72 1.72 0 0 0 0 3.44z" fill="#006BFF"/><path d="M73.085 47.6h-8.69a1.595 1.595 0 1 0 0 3.19h8.69a1.595 1.595 0 1 0 0-3.19z" fill="#fff"/><path d="M58.84 50.92a1.72 1.72 0 1 0 0-3.44 1.72 1.72 0 0 0 0 3.44z" fill="#006BFF"/><path d="M25 93.21h12.9v20.89H21.76V96.42A3.21 3.21 0 0 1 25 93.21zM121.14 39.08a4.93 4.93 0 1 0 0-9.86 4.93 4.93 0 0 0 0 9.86z" fill="#252525"/><path d="M126.06 34.58l.48-12.35 6.36.25a1.69 1.69 0 0 0 1.76-1.62l.14-3.76a1.7 1.7 0 0 0-1.62-1.76l-6.73-.26a1.74 1.74 0 0 0-1.79 1.66L124 34.5l2.06.08zM9.18 58.33a5.22 5.22 0 1 0 0-10.44 5.22 5.22 0 0 0 0 10.44z" fill="#252525"/><path d="M14.35 52.39L12 39.54l6.62-1.23A1.79 1.79 0 0 0 20 36.22l-.73-3.91a1.78 1.78 0 0 0-2.08-1.43l-7 1.3a1.83 1.83 0 0 0-1.46 2.13l3.44 18.49 2.18-.41z" fill="#252525"/><path d="M47.27 56.87h-6.93a2.46 2.46 0 0 0-2.46 2.46v4.08a2.46 2.46 0 0 0 2.46 2.46h6.93a2.46 2.46 0 0 0 2.46-2.46v-4.08a2.46 2.46 0 0 0-2.46-2.46zM112.05 56.87h-6.93a2.46 2.46 0 0 0-2.46 2.46v4.08a2.46 2.46 0 0 0 2.46 2.46h6.93a2.46 2.46 0 0 0 2.46-2.46v-4.08a2.46 2.46 0 0 0-2.46-2.46z" fill="#fff"/><path d="M47.27 56.87h-6.93a2.46 2.46 0 0 0-2.46 2.46v4.08a2.46 2.46 0 0 0 2.46 2.46h6.93a2.46 2.46 0 0 0 2.46-2.46v-4.08a2.46 2.46 0 0 0-2.46-2.46z" fill="#fff"/></svg>