<svg viewBox="0 0 135 124" fill="none" xmlns="http://www.w3.org/2000/svg"><g clip-path="url(#clip0)"><path fill-rule="evenodd" clip-rule="evenodd" d="M28 11h79c9.389 0 17 7.611 17 17v79c0 9.389-7.611 17-17 17H28c-9.389 0-17-7.611-17-17V28c0-9.389 7.611-17 17-17z" fill="#D12929"/><path d="M35.028 106.409c5.786-4.203 7.068-12.3 2.865-18.087-4.204-5.785-12.302-7.068-18.087-2.864l-8.173 5.938c-5.786 4.203-7.068 12.301-2.865 18.087 4.204 5.785 12.302 7.068 18.087 2.864l8.173-5.938z" fill="#FFB100"/><path d="M20.9 92.98a6 6 0 0 0 11.346-3.906L29.466 81a6 6 0 1 0-11.346 3.906l2.78 8.075z" fill="#FFCBA3"/><path fill-rule="evenodd" clip-rule="evenodd" d="M106.912 92.303l7.322 29.365c.055.223.091.446.11.668A16.93 16.93 0 0 1 107 124H31.878l-3.05-12.228c-4.596-18.437 6.624-37.11 25.06-41.706l11.318-2.822c18.437-4.597 37.109 6.623 41.706 25.06z" fill="#FFB100"/><path fill-rule="evenodd" clip-rule="evenodd" d="M32.755 85.193l10.716 42.978a3.146 3.146 0 0 1-2.291 3.813l-7.367 1.836-5.435-21.801c-2.379-9.539-.523-19.142 4.377-26.826zM107.384 92.65l5.039 20.212a3.145 3.145 0 0 1-2.283 2.258l-37.007 9.227a3.145 3.145 0 0 1-3.813-2.291L57.46 74.494l26.224-6.54c11.326 3.334 20.637 12.414 23.699 24.697z" fill="#FF9500"/><path fill-rule="evenodd" clip-rule="evenodd" d="M48.496 93.979a3.235 3.235 0 1 1 1.565 6.277 3.235 3.235 0 0 1-1.565-6.277zm8.651-19.635l1.146 4.597a7.012 7.012 0 0 1-11.521 6.885 7.012 7.012 0 0 1-13.404-.67l-.11-.434c4.533-7.107 11.67-12.572 20.466-14.825a6.996 6.996 0 0 1 3.423 4.447z" fill="#fff"/><path d="M31.69 23.933c5.515-1.685 8.626-7.496 6.95-12.979-1.676-5.482-7.505-8.56-13.019-6.874-5.514 1.686-8.625 7.497-6.949 12.98 1.676 5.482 7.505 8.56 13.019 6.873z" fill="#3D3D3D"/><mask id="a" mask-type="alpha" maskUnits="userSpaceOnUse" x="16" y="19" width="68" height="51"><path d="M31.38 27.62l23.791-7.273c11.388-3.482 23.442 2.928 26.923 14.315 3.482 11.388-2.927 23.442-14.315 26.924l-23.792 7.273C32.6 72.341 20.546 65.932 17.064 54.544c-3.481-11.388 2.928-23.442 14.316-26.923z" fill="#fff"/></mask><g mask="url(#a)"><path d="M31.38 27.62l23.791-7.273c11.388-3.482 23.442 2.928 26.923 14.315 3.482 11.388-2.927 23.442-14.315 26.924l-23.792 7.273C32.6 72.341 20.546 65.932 17.064 54.544c-3.481-11.388 2.928-23.442 14.316-26.923z" fill="#3D3D3D"/><path d="M96.94 32.973L2.452 61.86 8.1 80.327l94.486-28.887-5.646-18.467z" fill="#D8D8D8"/></g><path fill-rule="evenodd" clip-rule="evenodd" d="M45.944 31.826c7.36-2.25 14.947-5.163 21.13-1.605 2.22 1.278 4.258 6.874 6.041 8.748a26.59 26.59 0 0 1 6.169 10.584l5.841 19.107L34.06 84.273l-5.842-19.107c-4.311-14.102 3.625-29.028 17.727-33.34z" fill="#FFCBA3"/><path d="M65.064 23.974L27.768 35.376l1.86 6.082 37.295-11.402-1.86-6.082z" fill="#3D3D3D"/><path fill-rule="evenodd" clip-rule="evenodd" d="M57.121 56.894c1.426-.436 2.225-1.957 1.785-3.398-.441-1.442-4.065-4.06-4.065-4.06s-1.54 4.197-1.1 5.638c.441 1.442 1.954 2.256 3.38 1.82z" fill="#E89665"/><path d="M70.978 42.047a.592.592 0 0 1 .825.846l-.07.067-2.546 2.106 3.328.407a.592.592 0 0 1 .52.563l-.004.097a.592.592 0 0 1-.563.52l-.096-.004-4.693-.573a.593.593 0 0 1-.378-.974l.072-.07 3.605-2.985zM36.413 52.614a.592.592 0 0 0-.21 1.162l.094.017 3.29.323-2.532 2.198a.593.593 0 0 0-.116.758l.057.078a.593.593 0 0 0 .758.116l.077-.057 3.57-3.1a.593.593 0 0 0-.23-1.018l-.1-.018-4.658-.459z" fill="#F3A577"/><path fill-rule="evenodd" clip-rule="evenodd" d="M24.274 37.95l5.074-1.552a5.627 5.627 0 0 1 7.027 3.736l1.55 5.074a5.627 5.627 0 0 1-3.735 7.027L23.735 55.43l-3.197-10.455a5.627 5.627 0 0 1 3.736-7.026zM67.821 24.009l.56-.171a5.627 5.627 0 0 1 7.027 3.736l1.726 5.647a5.627 5.627 0 0 1-3.736 7.027l-.56.171a5.627 5.627 0 0 1-7.026-3.736l-1.727-5.647a5.627 5.627 0 0 1 3.736-7.027z" fill="#3D3D3D"/><path d="M44.26 42.023c4.607-3.808 9.733-5.376 15.269-4.643a1.8 1.8 0 1 1-.473 3.57c-4.52-.6-8.65.664-12.502 3.847a1.8 1.8 0 1 1-2.294-2.774z" fill="#3D3D3D"/><path d="M54.013 58.365a6.879 6.879 0 0 0-4.403-1.902 6.8 6.8 0 0 0-4.699 1.554 6.89 6.89 0 0 0-2.474 4.673 6.972 6.972 0 0 0 1.533 5.075c2.057 2.53 4.63 4.126 7.572 4.852 2.96.73 6.308.571 9.89-.456a6.828 6.828 0 0 0 4.12-3.3 6.946 6.946 0 0 0 .58-5.265 6.78 6.78 0 0 0-3.368-4.164c-1.542-.813-3.443-1.07-5.426-.535-.222.06-.436.11-.642.153-1.007.044-1.913-.26-2.683-.685z" fill="#B23131" stroke="#FFCBA3" stroke-width="2.52"/><mask id="b" mask-type="alpha" maskUnits="userSpaceOnUse" x="46" y="65" width="15" height="7"><path d="M49.599 65.99a8.04 8.04 0 0 1 10.583 5.2c-5.492 1.355-10.348.508-13.911-2.802a7.998 7.998 0 0 1 3.328-2.397z" fill="#fff"/></mask><g mask="url(#b)"><path d="M49.599 65.99a8.04 8.04 0 0 1 10.583 5.2c-5.492 1.355-10.348.508-13.911-2.802a7.998 7.998 0 0 1 3.328-2.397z" fill="#E34545"/></g><path d="M50.966 48.012a1.2 1.2 0 1 1 2.279.754c-1.302 3.933-4.2 5.814-8.386 5.46a1.2 1.2 0 0 1 .202-2.392c3.089.262 4.955-.95 5.905-3.822zM57.5 46.015a1.2 1.2 0 0 0-1.468 1.899c3.278 2.532 6.732 2.472 10.005-.164a1.2 1.2 0 0 0-1.505-1.87c-2.414 1.945-4.64 1.984-7.033.135z" fill="#E89665"/><path d="M94.58 81.165c2.446-6.72-1.019-14.15-7.739-16.597-6.72-2.445-14.15 1.02-16.596 7.74l-8.928 24.528c-2.446 6.72 1.02 14.15 7.74 16.596 6.72 2.446 14.15-1.019 16.596-7.739l8.927-24.528z" fill="#FFB100"/><path d="M27.931 87.148a6 6 0 1 0 9.708-7.053l-5.02-6.909a6 6 0 1 0-9.707 7.054l5.02 6.909z" fill="#FFCBA3"/><path d="M45.09 77.779c-6.839-2.091-14.078 1.758-16.169 8.597-2.09 6.839 1.758 14.078 8.597 16.169l24.962 7.631c6.839 2.091 14.078-1.758 16.169-8.597 2.09-6.839-1.758-14.078-8.597-16.169L45.09 77.78z" fill="#FFB100"/><path d="M96.279 56.98c-3.31-1.18-5.94-3.83-6.817-7.35-1.436-5.758 2.36-11.662 8.478-13.187 3.126-.78 6.254-.265 8.757 1.193 1.525-2.462 4.045-4.385 7.172-5.164 6.118-1.526 12.241 1.905 13.677 7.662.814 3.269-.057 6.584-2.081 9.12l-9.273 13.196a4.534 4.534 0 0 1-5.699 1.468L96.279 56.98zM80.78 12.378c-1.141-1.788-1.407-3.983-.51-5.907 1.468-3.147 5.49-4.378 8.985-2.748 1.785.832 3.087 2.25 3.738 3.858 1.65-.535 3.574-.449 5.36.384 3.493 1.63 5.136 5.502 3.669 8.649-.833 1.786-2.49 2.955-4.405 3.334L88.249 22.4a2.868 2.868 0 0 1-3.273-1.497l-4.197-8.525zM7.582 68.114c-1.767-.045-3.407-.885-4.318-2.401-1.49-2.48-.466-5.833 2.288-7.488 1.407-.845 2.994-1.084 4.408-.784.4-1.39 1.355-2.678 2.762-3.524 2.754-1.655 6.195-.985 7.685 1.495.846 1.408.882 3.097.25 4.597l-2.67 7.615a2.39 2.39 0 0 1-2.56 1.563l-7.845-1.073z" fill="#FF4B4B"/></g><defs><clipPath id="clip0"><path fill="#fff" d="M0 0h135v124H0z"/></clipPath></defs></svg>