<svg viewBox="0 0 135 124" fill="none" xmlns="http://www.w3.org/2000/svg"><path d="M11 28c0-9.389 7.611-17 17-17h79c9.389 0 17 7.611 17 17v79c0 9.389-7.611 17-17 17H28c-9.389 0-17-7.611-17-17V28z" fill="#2BE69C"/><path d="M123.448 100.507l-5.621 1.325a1.215 1.215 0 0 0-.904 1.461l2.972 12.609a1.215 1.215 0 0 0 1.461.904l5.622-1.325a1.214 1.214 0 0 0 .903-1.461l-2.972-12.609a1.215 1.215 0 0 0-1.461-.904zM76.697 97.454l5.401 2.045c.628.237.944.938.706 1.566l-4.587 12.115a1.215 1.215 0 0 1-1.566.706l-5.401-2.045a1.215 1.215 0 0 1-.706-1.566l4.587-12.116a1.215 1.215 0 0 1 1.566-.705z" fill="#4B4B4B"/><path fill-rule="evenodd" clip-rule="evenodd" d="M112.212 62.88a7.894 7.894 0 0 1 9.391 6.038l7.868 36.197a4.858 4.858 0 0 1-3.715 5.779l-5.934 1.29a4.859 4.859 0 0 1-5.78-3.715l-7.867-36.198a7.894 7.894 0 0 1 6.037-9.391zM92.26 61.577a7.894 7.894 0 0 0-10.096 4.764l-12.51 34.867a4.858 4.858 0 0 0 2.933 6.213l5.715 2.051a4.858 4.858 0 0 0 6.214-2.932l12.51-34.867a7.894 7.894 0 0 0-4.765-10.096z" fill="#1CB0F6"/><path fill-rule="evenodd" clip-rule="evenodd" d="M93.49 97.45l1.355 1.801c.12.16.105.384-.035.527l-1.578 1.609a.405.405 0 0 1-.612-.04l-1.356-1.8a.405.405 0 0 1 .035-.527l1.578-1.61a.405.405 0 0 1 .612.04zM115.065 83.903l1.356 1.8c.12.16.106.385-.035.528l-1.578 1.609a.404.404 0 0 1-.612-.04l-1.355-1.8a.404.404 0 0 1 .034-.528l1.578-1.608a.404.404 0 0 1 .612.04zM87.393 84.781c.094.018.164.11.166.22l.128 5.114 4.03.79c.109.022.181.143.16.271-.017.108-.097.19-.191.196l-4.105.259-.762 4.702c-.02.128-.127.214-.237.193-.093-.019-.161-.11-.164-.22l-.144-4.76-4.036-.791c-.11-.022-.182-.143-.162-.271.018-.109.098-.19.192-.196l4.097-.26.793-5.053c.02-.128.125-.215.235-.194z" fill="#fff"/><path fill-rule="evenodd" clip-rule="evenodd" d="M87.211 87.25l-.496 3.162-3.113.197 3.067.602.09 2.965.474-2.929 3.12-.197-3.062-.6-.08-3.2zm4.427 4.052l.032-.16-.032.16zm-5.218 4.966zm-4.126-5.576zm5.264-5.653zm-.8-.126c.046-.294.32-.603.71-.53.321.061.49.35.496.609l.12 4.788 3.71.728c.375.073.53.444.484.733-.042.254-.245.514-.567.535l-3.782.239-.71 4.383c-.047.294-.324.602-.714.525-.317-.062-.484-.347-.492-.604l-.133-4.438-3.72-.729c-.374-.073-.53-.444-.483-.733.041-.254.244-.515.566-.535l3.773-.239.742-4.732zm4.913 6.223l.039-.198-.039.198z" fill="#fff"/><path fill-rule="evenodd" clip-rule="evenodd" d="M102.097 66.255c7.24.473 12.726 6.726 12.253 13.966l-1.703 26.077-26.218-1.713 1.703-26.077c.473-7.24 6.725-12.726 13.965-12.253z" fill="#2B70C9"/><path fill-rule="evenodd" clip-rule="evenodd" d="M86.55 94.536l8.066 1.977c.84.206 1.41.984 1.354 1.846l-.478 7.323a1.78 1.78 0 0 1-2.137 1.629l-8.086-1.663a1.781 1.781 0 0 1-1.42-1.861l.5-7.637a1.781 1.781 0 0 1 2.201-1.614zM113.368 96.266l-8.255.912a1.78 1.78 0 0 0-1.582 1.654l-.478 7.323a1.781 1.781 0 0 0 1.906 1.893l8.234-.597a1.781 1.781 0 0 0 1.649-1.66l.499-7.638a1.781 1.781 0 0 0-1.973-1.887z" fill="#4B4B4B"/><path fill-rule="evenodd" clip-rule="evenodd" d="M106.027 60.733c6.443-.893 12.39 3.606 13.283 10.05.013.088.024.177.034.267L121.762 92a9.103 9.103 0 0 1-8.671 10.138l-9.345.382a.404.404 0 0 1-.421-.388c-.001-.014 0-.028.001-.042l2.701-41.358zM98.413 60.236c-6.076-1.704-12.384 1.84-14.088 7.917-.029.103-.056.207-.082.31l-5.231 20.895a8.978 8.978 0 0 0 7.163 11.024l9.063 1.583a.405.405 0 0 0 .474-.372l2.701-41.357z" fill="#39BEFE"/><path fill-rule="evenodd" clip-rule="evenodd" d="M102.496 57.356a7.66 7.66 0 0 1 2.261.496c.03.008.058.017.087.027l8.445 2.956c.846.296 1.297 1.245 1.007 2.12a1.71 1.71 0 0 1-.085.207L104.57 83.05l-.609-9.682a7.658 7.658 0 0 1-2.528.255 7.66 7.66 0 0 1-2.565-.62l-1.911 9.55-6.635-20.978a1.721 1.721 0 0 1-.047-.184c-.173-.875.352-1.734 1.182-1.958l.081-.02 8.516-1.831a1.46 1.46 0 0 1 .068-.013 7.673 7.673 0 0 1 2.374-.214z" fill="#4B4B4B"/><path fill-rule="evenodd" clip-rule="evenodd" d="M102.248 60.487a3.826 3.826 0 0 1 3.568 4.067l-.001.016-2.082 29.972a3.78 3.78 0 0 1-4.017 3.51 3.764 3.764 0 0 1-3.51-4.002l1.958-29.98a3.842 3.842 0 0 1 4.084-3.583z" fill="#2B70C9"/><path d="M60.124 50.402c-9.516.497-17.646-6.746-18.278-16.223l-1.343-.543a17.366 17.366 0 0 1-12.66 6.476c-9.602.502-17.792-6.876-18.293-16.478-.501-9.601 6.876-17.792 16.478-18.293 6.574-.343 12.487 3.007 15.723 8.237a7.366 7.366 0 0 0 9.675 3.782l.085.04a17.353 17.353 0 0 1 6.798-1.769c9.602-.501 17.792 6.876 18.293 16.478.501 9.602-6.876 17.792-16.478 18.293z" fill="#3D3D3D"/><path d="M40.444 37.83c.501 9.601-6.876 17.791-16.478 18.293-9.602.501-17.792-6.876-18.293-16.478-.502-9.602 6.876-17.792 16.477-18.294 9.602-.5 17.792 6.877 18.294 16.478z" fill="#3D3D3D"/><path d="M17.017 52.511A5.299 5.299 0 1 1 6.55 54.167a5.299 5.299 0 0 1 10.467-1.656zM80.635 42.448a5.299 5.299 0 1 1-10.467 1.656 5.299 5.299 0 0 1 10.466-1.656z" fill="#DA8E74"/><path fill-rule="evenodd" clip-rule="evenodd" d="M13.518 61.215c-2.743-17.341 9.091-33.624 26.434-36.367 17.341-2.743 33.624 9.092 36.367 26.434l2.137 13.512a9.44 9.44 0 0 1-7.849 10.8l-44.152 6.983a9.44 9.44 0 0 1-10.8-7.849l-2.137-13.512z" fill="#DA8E74"/><path fill-rule="evenodd" clip-rule="evenodd" d="M28.418 43.534a6.489 6.489 0 0 1 12.819-2.028l.616 3.899a6.489 6.489 0 0 1-12.818 2.027l-.617-3.898z" fill="#fff"/><path fill-rule="evenodd" clip-rule="evenodd" d="M33.762 42.97a2.913 2.913 0 1 1 5.755-.91l.571 3.614a2.913 2.913 0 0 1-5.755.91l-.571-3.614z" fill="#3D3D3D"/><path fill-rule="evenodd" clip-rule="evenodd" d="M56.594 39.077a6.489 6.489 0 0 0-12.819 2.027l.617 3.899a6.489 6.489 0 1 0 12.819-2.028l-.617-3.898z" fill="#fff"/><path fill-rule="evenodd" clip-rule="evenodd" d="M51.742 40.125a2.913 2.913 0 0 0-5.755.91l.572 3.615a2.913 2.913 0 1 0 5.755-.91l-.572-3.615z" fill="#3D3D3D"/><path fill-rule="evenodd" clip-rule="evenodd" d="M26.466 50.02a2.821 2.821 0 0 1 2.745-2.897l.075 2.82-.074-2.82h.039a10.238 10.238 0 0 1 .366-.003c.24 0 .582.005 1.01.02.857.03 2.067.104 3.52.276 2.89.34 6.81 1.076 10.832 2.674a2.821 2.821 0 1 1-2.083 5.244c-3.433-1.363-6.84-2.012-9.41-2.315a37.91 37.91 0 0 0-3.06-.24 24.716 24.716 0 0 0-1.021-.016l-.044.001h-.003a2.822 2.822 0 0 1-2.892-2.745z" fill="#DA8E74"/><path d="M42.391 67.078a8.533 8.533 0 0 0-6.112-15.933l-6.94 2.662a8.533 8.533 0 0 0 6.113 15.933l6.939-2.662z" fill="#3D3D3D"/><path d="M32.291 56.94l23.379 3.708-1.832 11.553-23.38-3.707 1.833-11.554z" fill="#3D3D3D"/><path d="M42.2 67.048a8.533 8.533 0 0 1 10.742-13.26l5.775 4.678a8.532 8.532 0 1 1-10.742 13.26L42.2 67.048z" fill="#3D3D3D"/><path fill-rule="evenodd" clip-rule="evenodd" d="M36.24 69.41c4.971-2.105 8.262-.5 11.106 1.761 2.844 2.262-3.171 6.707-3.171 6.707l-6.892-1.093s-6.014-5.27-1.043-7.375zM40.795 31.94l18.35-2.902 1.484 9.38-18.35 2.902-1.484-9.38z" fill="#DA8E74"/><path fill-rule="evenodd" clip-rule="evenodd" d="M41.492 37.999a3.303 3.303 0 0 1 3.416-3.185l10.316.362a3.303 3.303 0 1 1-.232 6.602l-10.316-.362a3.303 3.303 0 0 1-3.184-3.417zM25.54 36.183a3.303 3.303 0 0 1 1.52-4.416l7.918-3.86a3.303 3.303 0 0 1 2.895 5.938l-7.918 3.86c-1.64.799-3.616.117-4.416-1.522z" fill="#3D3D3D"/><path d="M48.023 50.324a3.991 3.991 0 1 1-7.884 1.247 3.991 3.991 0 0 1 7.884-1.247z" fill="#DA8E74"/><path d="M12.335 53.726l-3.5-22.13a7.776 7.776 0 0 1 11.343 5.647l1.203 7.612a7.776 7.776 0 0 1-9.046 8.871zM71.772 22.525l3.249 20.54a7.776 7.776 0 0 1-11.085-5.778l-.925-5.845a7.776 7.776 0 0 1 8.76-8.917z" fill="#3D3D3D"/><path d="M45.062 92.933c.322-.87 1.553-.87 1.875 0l1.334 3.604a1 1 0 0 0 .59.59l3.604 1.334c.87.322.87 1.553 0 1.876l-3.604 1.333a.999.999 0 0 0-.59.591l-1.334 3.603c-.322.871-1.553.871-1.875 0l-1.334-3.603a.999.999 0 0 0-.59-.591l-3.604-1.333c-.87-.323-.87-1.554 0-1.876l3.603-1.334a1 1 0 0 0 .591-.59l1.334-3.604zM91.061 18.534c.323-.87 1.554-.87 1.876 0l1.874 5.064a1 1 0 0 0 .59.59l5.064 1.874c.87.322.87 1.553 0 1.876l-5.063 1.873a1 1 0 0 0-.591.591l-1.874 5.063c-.322.87-1.553.87-1.876 0l-1.873-5.063a1 1 0 0 0-.59-.59l-5.064-1.874c-.87-.322-.87-1.554 0-1.876l5.063-1.874a1 1 0 0 0 .59-.59l1.874-5.064z" fill="#fff" fill-opacity=".5"/><path d="M103.561 39.534c.323-.87 1.554-.87 1.876 0l.388 1.05c.102.273.317.489.591.59l1.049.388c.87.322.87 1.553 0 1.876l-1.049.388a1.002 1.002 0 0 0-.591.59l-.388 1.05c-.322.87-1.553.87-1.876 0l-.388-1.05a1 1 0 0 0-.59-.59l-1.049-.388c-.871-.323-.871-1.554 0-1.876l1.049-.388a1 1 0 0 0 .59-.59l.388-1.05z" fill="#fff"/></svg>