<svg viewBox="0 0 135 124" fill="none" xmlns="http://www.w3.org/2000/svg"><g clip-path="url(#clip0)"><path d="M107 11H28c-9.389 0-17 7.611-17 17v79c0 9.389 7.611 17 17 17h79c9.389 0 17-7.611 17-17V28c0-9.389-7.611-17-17-17z" fill="#B2B2B2"/><path d="M90.34 68.447l19.186-25.035a5.627 5.627 0 0 0-2.267-8.6l-9.733-4.132a5.626 5.626 0 0 0-7.751 4.272l-5.07 31.06a3.165 3.165 0 0 0 5.635 2.435z" fill="#BFBFBF"/><path d="M110.602 25.085c1.127-3.515-.552-8.053-1.298-8.386-.785-.349-5.698 1.619-7.362 5.142-2.058-1.643-4.964-2.226-5.467-1.912-.635.397-1.652 4.896.084 7.675 1.508 2.413 5.141 3.499 6.445 3.508 1.202 1.032 4.331 2.686 7.036 2.16 3.374-.655 6.103-4.625 5.954-5.39-.118-.607-2.653-2.407-5.392-2.797z" fill="#979797"/><path d="M88.005 45.797l7.762 3.645a1.918 1.918 0 0 0 1.63-3.473l-8.75-4.108-.642 3.936zM109.854 42.937l-10.211-4.794a1.918 1.918 0 0 0-1.63 3.472l9.48 4.451 2.034-2.654c.118-.154.227-.313.327-.475zM87.009 51.899l5.013 2.538a1.918 1.918 0 1 0 1.733-3.422l-6.098-3.088-.648 3.972zM96.856 59.946l-4.115-2.022a1.918 1.918 0 1 0-1.692 3.443l3.427 1.684 2.38-3.105z" fill="#B2B2B2"/><path fill-rule="evenodd" clip-rule="evenodd" d="M102.952 74.014a9.26 9.26 0 0 1 6.776 11.207l-2.751 11.164a9.26 9.26 0 0 1-17.982-4.43l2.75-11.165a9.26 9.26 0 0 1 11.207-6.776z" fill="#BFBFBF"/><path fill-rule="evenodd" clip-rule="evenodd" d="M107.19 69.95c.207.05.434.309.344.677l-3.977 16.138a2.315 2.315 0 0 0 4.495 1.108l3.977-16.138c.673-2.732-.924-5.59-3.732-6.281-2.807-.692-5.549 1.096-6.222 3.828a2.314 2.314 0 1 0 4.495 1.108c.091-.369.412-.492.62-.44z" fill="#979797"/><path fill-rule="evenodd" clip-rule="evenodd" d="M114.191 76.784a9.26 9.26 0 0 1 6.775 11.206l-2.751 11.165a9.26 9.26 0 0 1-11.206 6.775c-4.966-1.223-8-6.24-6.776-11.206l2.751-11.165a9.26 9.26 0 0 1 11.207-6.775z" fill="#BFBFBF"/><path d="M98.175 84.418a3.472 3.472 0 1 0 1.661-6.744 3.472 3.472 0 0 0-1.661 6.744z" fill="#E5E5E5"/><path fill-rule="evenodd" clip-rule="evenodd" d="M64.297 96.223L63.002 98.5a1.145 1.145 0 0 1-1.992-.002l-1.612-2.85-3.277.037a1.145 1.145 0 0 1-.998-1.729l1.67-2.82-1.662-2.82a1.145 1.145 0 0 1 .994-1.727l3.292.022 1.627-2.862a1.145 1.145 0 0 1 1.993.002l1.61 2.85 3.278-.037a1.145 1.145 0 0 1 .999 1.729l-1.67 2.82 1.661 2.82a1.145 1.145 0 0 1-.994 1.727l-2.62-.018a1.145 1.145 0 0 0-1.004.58z" fill="#979797"/><path d="M71.071 90.538H69.79c-2.92 0-5.626.921-7.842 2.489a13.53 13.53 0 0 0-7.84-2.489h-1.283c-7.507 0-13.592 6.086-13.592 13.592 0 7.507 6.085 13.592 13.592 13.592h18.612v-.005c7.338-.193 13.227-6.202 13.227-13.587 0-7.506-6.085-13.592-13.592-13.592z" fill="#CECECE"/><path d="M50.015 105.99c2.779 0 5.032-2.242 5.032-5.007 0-2.766-2.253-5.008-5.032-5.008-2.78 0-5.032 2.242-5.032 5.008 0 2.765 2.253 5.007 5.032 5.007z" fill="#E5E5E5"/><path d="M6.247 28.544h.002a8.789 8.789 0 0 1 7.674-9.604l41.1-5.044a8.789 8.789 0 0 1 9.77 7.464h.001l4.931 40.183a3.041 3.041 0 0 0 3.39 2.648l5.927-.728a1.267 1.267 0 0 1 1.412 1.104c.834 6.795-3.999 12.98-10.794 13.813l-54.347 6.67c-6.795.833-12.98-4-13.813-10.794a1.267 1.267 0 0 1 1.103-1.412l5.928-.728a3.041 3.041 0 0 0 2.648-3.389L6.247 28.544z" fill="#BFBFBF"/><path d="M10.79 29.145l49.741-6.104 6.091 49.634-49.74 6.105-6.092-49.635z" fill="#D8D8D8"/><path d="M11.157 51.747A5.53 5.53 0 1 0 9.81 40.769a5.53 5.53 0 0 0 1.347 10.978zM65.641 45.06a5.53 5.53 0 1 0-1.347-10.977 5.53 5.53 0 0 0 1.347 10.978z" fill="#D8D8D8"/><path d="M14.55 79.964a1.52 1.52 0 0 1 1.324-1.694l51.602-6.333a1.52 1.52 0 0 1 1.694 1.324l.628 5.114a1.52 1.52 0 0 1-1.324 1.694l-51.602 6.333a1.52 1.52 0 0 1-1.694-1.324l-.628-5.114z" fill="#979797"/><path d="M7.847 41.397a5.53 5.53 0 0 1 7.21 1.741 6.164 6.164 0 0 0 1.605-4.956l-.943-7.686-9.073 1.114 1.2 9.787zM59.783 37.657a5.53 5.53 0 0 1 6.566-3.444l-1.2-9.783-9.074 1.114.943 7.686a6.164 6.164 0 0 0 2.765 4.427z" fill="#BFBFBF"/><path d="M4.428 27.14a1.52 1.52 0 0 1 1.324-1.695l58.774-7.213a1.52 1.52 0 0 1 1.695 1.324l.51 4.165a1.52 1.52 0 0 1-1.323 1.694L6.633 32.628a1.52 1.52 0 0 1-1.694-1.324l-.511-4.165z" fill="#979797"/><path d="M37.79 27.397c6.728-.826 11.513-6.95 10.687-13.677-.826-6.728-6.95-11.513-13.677-10.687a12.266 12.266 0 0 0-9.658 7.055l-2.614-2.253c-.719-.62-1.832-.435-2.166.455a10.662 10.662 0 0 0-.6 5.063c.47 3.824 2.9 6.928 6.16 8.428 2.46 3.88 7.006 6.213 11.868 5.616z" fill="#BFBFBF"/><path d="M39.061 76.27c.058-.503.453-.901.955-.963l3.318-.407c.502-.062.981.229 1.159.703l3.295 8.808a1.095 1.095 0 0 1-.892 1.47l-7.681.943a1.095 1.095 0 0 1-1.222-1.211l1.068-9.344z" fill="#EBE3E3"/><path fill-rule="evenodd" clip-rule="evenodd" d="M25.715 61.95a.75.75 0 0 1 1.034.242c.346.557 1.153 1.403 2.246 2.042 1.085.634 2.375 1.02 3.706.789a.75.75 0 1 1 .257 1.478c-1.783.309-3.433-.22-4.72-.972-1.278-.747-2.273-1.757-2.763-2.545a.75.75 0 0 1 .24-1.033zM53.656 58.088a.75.75 0 0 0-.945.484c-.201.624-.78 1.64-1.686 2.525-.899.877-2.058 1.563-3.405 1.661a.75.75 0 1 0 .108 1.496c1.804-.131 3.278-1.043 4.345-2.084 1.06-1.033 1.78-2.254 2.066-3.138a.75.75 0 0 0-.483-.944z" fill="#BFBFBF"/><path fill-rule="evenodd" clip-rule="evenodd" d="M39.778 59.29a4.666 4.666 0 0 0-3.03 1.645 5.486 5.486 0 0 1-8.41-7.049A15.64 15.64 0 0 1 38.443 48.4a15.64 15.64 0 0 1 11.13 2.882 5.486 5.486 0 1 1-6.456 8.872 4.667 4.667 0 0 0-3.338-.863z" fill="#979797"/><path d="M36.748 60.935a4.667 4.667 0 0 1 3.03-1.645 4.667 4.667 0 0 1 3.338.863 5.476 5.476 0 0 0 4.618.872 7.742 7.742 0 0 0-15.256 1.872 5.475 5.475 0 0 0 4.27-1.962z" fill="#BFBFBF"/><path d="M44.264 30.175a6.438 6.438 0 0 0-5.607 7.175l.477 3.887c.027.217.064.43.111.64a25.052 25.052 0 0 1 6.258-1.602 25.055 25.055 0 0 1 6.46.041 6.496 6.496 0 0 0-.048-.647l-.477-3.887a6.438 6.438 0 0 0-7.175-5.607zM28.569 32.101a6.438 6.438 0 0 0-5.607 7.175l.478 3.887c.026.217.063.43.11.64a25.053 25.053 0 0 1 6.258-1.602 25.055 25.055 0 0 1 6.46.041 6.528 6.528 0 0 0-.048-.647l-.477-3.887A6.438 6.438 0 0 0 28.57 32.1z" fill="#fff"/><path d="M30.03 34.735a3.905 3.905 0 0 0-3.4 4.352l.524 4.273 7.752-.95-.524-4.274a3.905 3.905 0 0 0-4.352-3.4z" fill="#979797"/><path d="M24.13 44.376l11.993-1.471c.614-.076.57-.98-.049-.995l-12.079-.29a1.384 1.384 0 1 0 .136 2.756zM23.624 46.532a1.792 1.792 0 1 1-3.557.436 1.792 1.792 0 0 1 3.557-.436zM57.648 41.488a2.348 2.348 0 1 1-4.662.572 2.348 2.348 0 0 1 4.662-.572zM21.314 42.418a1.31 1.31 0 1 1-2.601.32 1.31 1.31 0 0 1 2.6-.32zM55.935 36.808a1.31 1.31 0 1 1-2.601.32 1.31 1.31 0 0 1 2.6-.32zM48.557 40.238l3.118-.383.9 7.334a1.57 1.57 0 0 1-3.117.383l-.9-7.334z" fill="#BFBFBF"/><path d="M45.845 40.6l3.117-.383.337 2.744a1.57 1.57 0 0 1-3.117.383l-.337-2.744zM24.694 43.166l4.856-.595.625 5.099a2.446 2.446 0 0 1-4.856.596l-.626-5.1z" fill="#BFBFBF"/><path d="M30.196 36.09a2.547 2.547 0 1 1-5.056.62 2.547 2.547 0 0 1 5.056-.62z" fill="#fff"/><path d="M41.033 37.325a2.547 2.547 0 0 0 1.672-4.128 3.905 3.905 0 0 1 4.717 3.338l.524 4.274-7.752.951-.524-4.273a3.954 3.954 0 0 1-.029-.383c.42.197.898.282 1.392.221z" fill="#979797"/><path d="M51.239 41.05L39.246 42.52c-.614.076-.79-.813-.193-.977l11.65-3.202a1.384 1.384 0 1 1 .536 2.708z" fill="#BFBFBF"/><path fill-rule="evenodd" clip-rule="evenodd" d="M28.675 29.184a2.534 2.534 0 0 1-.806 3.493c-2.111 1.32-4.684 2.114-6.242 2.405a2.534 2.534 0 0 1-.93-4.983c1.104-.206 3.04-.817 4.485-1.72a2.534 2.534 0 0 1 3.493.805zM43.53 27.78a2.534 2.534 0 0 0 1.626 3.194c2.369.77 5.057.918 6.64.824a2.534 2.534 0 0 0-.303-5.06c-1.121.067-3.148-.057-4.769-.584a2.534 2.534 0 0 0-3.194 1.626z" fill="#BFBFBF"/><path d="M37.257 39.1c.13-.016 1.515 1.68 2.93 3.464 1.409 1.775.317 4.392-1.932 4.668-2.25.276-3.942-2-3.004-4.062.942-2.074 1.875-4.054 2.006-4.07z" fill="#BFBFBF"/></g><defs><clipPath id="clip0"><path fill="#fff" d="M0 0h135v124H0z"/></clipPath></defs></svg>