<svg viewBox="0 0 135 124" version="1.1" xmlns="http://www.w3.org/2000/svg"><g stroke="none" stroke-width="1" fill="none" fill-rule="evenodd"><path d="M28 11h79c9.389 0 17 7.611 17 17v79c0 9.389-7.611 17-17 17H28c-9.389 0-17-7.611-17-17V28c0-9.389 7.611-17 17-17z" fill="#C5C5C5"/><g transform="translate(-12.127 -.017)"><path d="M126.127 17.017c2.094 0 4.164.1 6.207.297a16.924 16.924 0 0 1 3.793 10.703v79c0 9.389-7.612 17-17 17l-40.402.001C68.41 112.656 62.127 97.57 62.127 81.017c0-35.346 28.653-64 64-64z" fill="#B2B2B2"/><path d="M119.106 124.017h-45.98c.421-8.144 6.997-14.66 15.165-14.987l.328-.01.315-.003h47.056c-.99 8.446-8.172 15-16.884 15z" fill="#DDD"/><path d="M135.78 52.017l.347.002v55.385c0 9.175-7.612 16.613-17 16.613h-30v-26.41c0-24.927 20.471-45.182 45.881-45.584l.772-.006z" fill="#DDD"/><rect fill="#FFF" transform="matrix(-1 0 0 1 229.373 0)" x="102.19" y="92.065" width="24.993" height="34.99" rx="12.496"/><rect fill="#B2B2B2" transform="matrix(-1 0 0 1 221.916 0)" x="105.127" y="95.422" width="11.663" height="18.328" rx="5.832"/><path d="M114.639 92.017c6.31 0 11.527 4.676 12.375 10.753h-24.75c.847-6.077 6.065-10.753 12.375-10.753zM111.152 34.871l.288.197 16.386 11.474a15.9 15.9 0 0 1 1.569-2.801 15.766 15.766 0 0 1 5.224-4.732 16.936 16.936 0 0 1 1.508 7.008v40.75a15.758 15.758 0 0 1-9.767-2.611l-.321-.22-32.757-22.935c-7.16-5.015-8.9-14.885-3.887-22.045 4.88-6.97 14.358-8.804 21.463-4.277l.294.192z" fill="#B2B2B2"/><path d="M51.994 116.892L31.88 96.789l-4.274-32.985-13.453-14.636a2.242 2.242 0 0 1 .529-3.458l54.483-31.487a2.242 2.242 0 0 1 2.772.424l14.128 15.371 4.275 32.985 19.264 19.254a2.242 2.242 0 0 1-.463 3.527L54.7 117.247a2.242 2.242 0 0 1-2.706-.355z" fill="#FFF"/><path d="M14.269 45.997c.121-.111.254-.21.397-.291l54.51-31.472a2.242 2.242 0 0 1 2.77.423l14.138 15.365.024.182-58.49 33.77-.023-.183-13.458-14.626a2.242 2.242 0 0 1 .132-3.168zM90.335 62.963l.005.04 19.264 19.254a2.242 2.242 0 0 1-.463 3.527L54.7 117.247a2.242 2.242 0 0 1-2.706-.355L31.88 96.789l-.005-.04 58.46-33.786z" fill="#EBEBEB"/><path d="M76.338 19.435l1.643 1.788-58.598 33.635-1.642-1.788 58.597-33.635zM82.135 25.742l1.642 1.787L25.18 61.164l-1.643-1.787 58.598-33.635z" fill="#D8D8D8"/><path d="M86.627 34.36l.33 2.542L28.47 70.473l-.33-2.541 58.487-33.571zM88.001 44.962l.33 2.54-58.487 33.573-.329-2.542 58.486-33.571zM89.292 54.924l.33 2.541-58.487 33.572-.33-2.542 58.487-33.571z" fill="#F4F4F4"/><path d="M93.44 66.102l1.735 1.735-58.604 33.64-1.735-1.735 58.604-33.64zM99.877 72.535l1.736 1.735-58.606 33.64-1.735-1.735 58.605-33.64zM106.75 79.405l1.735 1.734-58.606 33.639-1.734-1.734 58.605-33.64z" fill="#D8D8D8"/><path d="M23.373 40.687l15.425 15.684.071.077.086.106.107.161.074.138.064.155.042.129.042.193.016.13 2.93 33.183 22.818 20.623-3.234 1.87-22.482-20.32a1.793 1.793 0 0 1-.37-.47 1.763 1.763 0 0 1-.147-.358l-.037-.16-.024-.173-2.937-33.245-15.622-15.886 3.178-1.837z" fill="#D8D8D8"/><path d="M39.255 57.201l.03.13.015.129 2.93 33.183.265.238-3.232 1.867a1.781 1.781 0 0 1-.447-.76l-.038-.16-.024-.173-2.87-32.506 3.371-1.948z" fill="#F4F4F4"/><path d="M85.561 56.032c.618.386.83 1.174.512 1.813l-.066.118-1.815 2.904a4.563 4.563 0 0 1-5.586 1.81l-.197-.085-1.035-.478a.467.467 0 0 0-.54.108l-.052.069-1.496 2.393a7.868 7.868 0 0 1-8.716 3.429l-.223-.064-.097.164c-.238.391-.491.786-.76 1.185l-.274.4a6.795 6.795 0 0 1-9.178 1.879 1.974 1.974 0 0 0-2.936 1.103l-.038.15-.233 1.066a11.117 11.117 0 0 1-7.886 8.341 1.401 1.401 0 0 1-.75-2.7 8.315 8.315 0 0 0 5.83-5.949l.068-.29.233-1.066a4.776 4.776 0 0 1 6.96-3.17l.237.139a3.993 3.993 0 0 0 5.393-1.105c.252-.361.488-.717.71-1.067l.108-.177-.291-.16c-2.355-1.348-3.87-3.23-4.474-5.625l-.07-.302c-.758-3.5 1.025-6.281 3.944-6.784 2.883-.496 5.53 1.474 5.976 4.867.254 1.934-.088 4.008-1.006 6.225l-.136.319.172.031a5.067 5.067 0 0 0 4.937-2.134l.124-.19 1.496-2.393a3.27 3.27 0 0 1 3.975-1.307l.167.071 1.036.478c.758.35 1.65.118 2.144-.538l.087-.127 1.815-2.905a1.401 1.401 0 0 1 1.931-.446zm-19.52 3.28c-.24-1.82-1.414-2.695-2.722-2.47-1.318.228-2.108 1.46-1.682 3.431.378 1.75 1.457 3.13 3.321 4.16l.1.052.017-.035c.802-1.811 1.127-3.44.994-4.884l-.028-.253z" fill="#C5C5C5" fill-rule="nonzero"/><path d="M76.528 42.858a4.642 4.642 0 0 1 5.388.5 4.218 4.218 0 0 1 .989 5.112l-.1.183-1.002 1.736a3.113 3.113 0 0 0-.165 2.782l.089.19a1.401 1.401 0 1 1-2.495 1.275 5.915 5.915 0 0 1 .024-5.43l.12-.218 1.002-1.736a1.416 1.416 0 0 0-.298-1.778 1.84 1.84 0 0 0-1.998-.271l-.138.073-.066.039a2.529 2.529 0 0 0-1.25 2.134l.003.189.029.504a1.401 1.401 0 0 1-2.783.3l-.015-.143-.028-.505a5.33 5.33 0 0 1 2.416-4.767l.278-.169z" fill="#C5C5C5" fill-rule="nonzero"/><path d="M134.68 101.99c.509 0 .996.091 1.446.258v4.769c0 5.008-2.165 9.51-5.61 12.621v-13.483c0-2.3 1.864-4.165 4.165-4.165z" fill="#C5C5C5"/><path d="M100.812 2.081L119.9 3.39a2 2 0 0 1 1.743 2.68L110.02 37.935a2 2 0 0 1-3.83-.247L98.724 4.516a2 2 0 0 1 2.088-2.435z" fill="#DDD"/><ellipse fill="#DDD" transform="rotate(-11 107.767 48.84)" cx="107.767" cy="48.84" rx="6.479" ry="6.5"/><path d="M128.239 26.148l13.392 6.234a2 2 0 0 1 .668 3.122L125.04 55.44a2 2 0 0 1-3.49-1.601l3.866-26.17a2 2 0 0 1 2.823-1.52z" fill="#DDD"/><ellipse fill="#DDD" transform="rotate(10 119.322 63.982)" cx="119.322" cy="63.982" rx="5.322" ry="5.5"/><path d="M98.135 114.936c9.83 0 19.494 2.525 28.066 7.334l.203.115a16.934 16.934 0 0 1-7.277 1.632H100.15l-2.016-9.081z" fill="#DDD"/></g></g></svg>