<svg id="Cover" xmlns="http://www.w3.org/2000/svg" viewBox="0 0 135 124"><defs><style>.cls-2{fill:#ffb49e}.cls-3{fill:#4b4b4b}.cls-4{fill:#e4e4e4}.cls-5{fill:#2d2d2d}</style></defs><path d="M124 27.79v79.3A17 17 0 0 1 107 124H28a17 17 0 0 1-17-17V28a17 17 0 0 1 17-17h79a17 17 0 0 1 17 16.79z" fill="#e6a252"/><rect class="cls-2" x="10.21" y="44.07" width="11.81" height="27.45" rx="5.9" ry="5.9" transform="rotate(-135 16.114 57.797)"/><rect class="cls-2" x="112.23" y="44.07" width="11.81" height="27.45" rx="5.9" ry="5.9" transform="rotate(-45 118.143 57.804)"/><path class="cls-3" d="M111.54 50.22v50.27a4.81 4.81 0 0 1-4.81 4.82H79.29a4.82 4.82 0 0 1-4.82-4.82V36a2.19 2.19 0 0 1 2.18-2.18h18.44a16.45 16.45 0 0 1 16.45 16.4z"/><path class="cls-4" d="M79.29 105.31h25.49v4.2a3.21 3.21 0 0 1-3.21 3.21H82.5a3.21 3.21 0 0 1-3.21-3.21v-4.2z"/><path class="cls-3" d="M60.33 36v64.54a4.82 4.82 0 0 1-4.82 4.82H28.07a4.81 4.81 0 0 1-4.81-4.82V50.22a16.45 16.45 0 0 1 16.45-16.45h18.44A2.19 2.19 0 0 1 60.33 36z"/><path class="cls-5" d="M48.9 48.65h11.43v51.84a4.82 4.82 0 0 1-4.82 4.82H48.9zM85.87 48.65v56.66h-6.58a4.82 4.82 0 0 1-4.82-4.82V48.65z"/><path class="cls-4" d="M33.23 105.31h19.06a3.21 3.21 0 0 1 3.21 3.21v4.2H30v-4.2a3.21 3.21 0 0 1 3.21-3.21z" transform="rotate(-180 42.765 109.015)"/><rect x="48.89" y="40.72" width="36.98" height="25.02" rx="3.17" ry="3.17" fill="#bebebe"/><path class="cls-3" d="M65.88 40.72h3v25.02h-3z"/><rect class="cls-4" x="56.12" y="46.56" width="22.52" height="4.17" rx="1.85" ry="1.85"/><path class="cls-5" d="M76.42 23.07h16.13v10.7H76.42zM42.22 23.07h16.13v10.7H42.22z"/><path class="cls-4" d="M59.6 21.41v2.07a1.39 1.39 0 0 1-1.4 1.39H42a1.39 1.39 0 0 1-1.39-1.39v-2.07a.32.32 0 0 1 0-.14A1.37 1.37 0 0 1 42 20h16.2a1.38 1.38 0 0 1 1.39 1.26.61.61 0 0 1 .01.15zM94 21.41v2.07a1.4 1.4 0 0 1-1.4 1.39H76.36A1.4 1.4 0 0 1 75 23.48v-2.07a.32.32 0 0 1 0-.14A1.37 1.37 0 0 1 76.36 20h16.25A1.39 1.39 0 0 1 94 21.27a.61.61 0 0 1 0 .14z"/><path class="cls-3" d="M103.28 11h3v27.77h-3zM28.52 11h3v27.77h-3z"/><path class="cls-4" d="M59.59 21.27h-19A1.37 1.37 0 0 1 42 20h16.2a1.38 1.38 0 0 1 1.39 1.27zM94 21.27H75A1.37 1.37 0 0 1 76.36 20h16.25A1.39 1.39 0 0 1 94 21.27z"/><path class="cls-2" d="M130.15 63.72v15.82a7 7 0 0 1-6 7l-3.35.46-8.6 1.31a5.07 5.07 0 0 1-5.8-4.22l-.54-3.4L103.69 67a5.07 5.07 0 0 1 4.22-5.8l16.41-2.5a5.06 5.06 0 0 1 5.83 5.02z"/><rect class="cls-2" x="96.63" y="61.92" width="11.81" height="27.45" rx="5.9" ry="5.9" transform="rotate(-98.97 102.538 75.65)"/><rect class="cls-2" x="105.65" y="67.16" width="11.81" height="34.98" rx="5.9" ry="5.9" transform="rotate(-113.81 111.543 84.648)"/><rect class="cls-2" x="101.6" y="47.09" width="11.81" height="34.98" rx="5.9" ry="5.9" transform="rotate(95.86 107.504 64.588)"/><rect class="cls-2" x="25.81" y="61.92" width="11.81" height="27.45" rx="5.9" ry="5.9" transform="rotate(-81.03 31.716 75.646)"/><rect class="cls-2" x="16.8" y="67.16" width="11.81" height="34.98" rx="5.9" ry="5.9" transform="rotate(-66.19 22.71 84.646)"/><rect class="cls-2" x="20.85" y="47.09" width="11.81" height="34.98" rx="5.9" ry="5.9" transform="rotate(84.14 26.747 64.581)"/><circle class="cls-2" cx="15.36" cy="72.3" r="15.27"/><circle class="cls-2" cx="119.64" cy="72.3" r="15.27"/></svg>