<svg viewBox="0 0 135 124" fill="none" xmlns="http://www.w3.org/2000/svg"><g clip-path="url(#clip0)"><path fill-rule="evenodd" clip-rule="evenodd" d="M28 11h79c9.389 0 17 7.611 17 17v79c0 9.389-7.611 17-17 17H28c-9.389 0-17-7.611-17-17V28c0-9.389 7.611-17 17-17z" fill="#B2B2B2"/><path d="M54.324 27.248a12.337 12.337 0 0 1 11.802 2.026l5.157 4.139c5.318 4.267 6.17 12.037 1.903 17.354l-3.701 4.613a12.337 12.337 0 0 1-11.118 4.53l.252 2.938-38.857 3.334-.22-2.569a12.296 12.296 0 0 1-7.936-3.09L7.173 56.61c-5.11-4.513-5.594-12.315-1.081-17.425l4.377-4.956a12.33 12.33 0 0 1 10.705-4.09c.459-5.918 5.145-10.805 11.253-11.33l8.89-.762c6.092-.523 11.53 3.473 13.007 9.202z" fill="#979797"/><path fill-rule="evenodd" clip-rule="evenodd" d="M66.35 68.812a9.457 9.457 0 0 0-10.23-8.614l-30.621 2.628a9.456 9.456 0 0 0-8.614 10.23l2.021 23.555c.525 6.114 5.907 10.645 12.02 10.121l4.465-.383c1.558 2.314 4.532 3.505 7.424 2.574l1.656-.534c.23-.074.475-.095.715-.061l1.723.243c3.008.425 5.736-1.254 6.877-3.801l4.464-.383c6.115-.524 10.646-5.906 10.121-12.02l-2.02-23.555z" fill="#C1C1C1"/><path fill-rule="evenodd" clip-rule="evenodd" d="M112.091 23.25a2.537 2.537 0 0 1-.343.3l-8.426 6.131a4.796 4.796 0 0 1-1.977 3.941l-14.197 10.33a4.803 4.803 0 1 1-5.652-7.766l14.198-10.33a4.797 4.797 0 0 1 4.405-.653l8.402-6.114c.128-.093.262-.172.399-.238a2.771 2.771 0 0 1 .95-3.25l10.611-7.72a2.77 2.77 0 0 1 3.869.61l2.393 3.287a2.77 2.77 0 0 1-.61 3.87l-10.611 7.72a2.771 2.771 0 0 1-3.411-.118z" fill="#979797"/><path d="M123.489 7.336l2.392 3.288a2.77 2.77 0 0 1-.61 3.87l-10.611 7.72a2.77 2.77 0 0 1-3.378-.09l-8.802 6.404a4.796 4.796 0 0 1-1.977 3.94L86.2 42.875a4.803 4.803 0 0 1-5.651-7.767l14.303-10.407a4.797 4.797 0 0 1 4.405-.652l8.786-6.393a2.77 2.77 0 0 1 .966-3.209l10.611-7.72a2.77 2.77 0 0 1 3.869.61z" fill="#AAA"/><path fill-rule="evenodd" clip-rule="evenodd" d="M122.178 8.138l1.337 1.837c.66.907.459 2.177-.448 2.837l-8.753 6.369a2.03 2.03 0 0 1-2.837-.447l-1.337-1.837a2.031 2.031 0 0 1 .448-2.837l8.753-6.37a2.03 2.03 0 0 1 2.837.448z" fill="#E5E5E5"/><path fill-rule="evenodd" clip-rule="evenodd" d="M120.496 5.82l1.732 2.363c.494.675.524 1.583.076 2.289l-.565.89a3.062 3.062 0 0 1-1.946 1.353l-1.641.35c-.9.19-1.665.777-2.085 1.595l-.542 1.055a3.062 3.062 0 0 1-1.833 1.53l-1.321.402a2.03 2.03 0 0 1-2.232-.749l-1.682-2.31a2.031 2.031 0 0 1 .448-2.838l8.758-6.373a2.03 2.03 0 0 1 2.833.442z" fill="#fff"/><path fill-rule="evenodd" clip-rule="evenodd" d="M108.323 8.3a9.515 9.515 0 0 1 1.158-1.039c1.914-1.444 4.622-1.106 5.561-1.772.587-.416 1.551-1.338 2.892-2.765a.507.507 0 0 1 .775.042l1.487 1.97a4.356 4.356 0 0 1-.655 5.944c-.118.1-.239.197-.362.29-1.554 1.172-2.617.497-5.501 2.148-.604.345-1.742 1.307-3.414 2.885a.508.508 0 0 1-.754-.063l-1.509-2a4.368 4.368 0 0 1 .322-5.64z" fill="#C1C1C1"/><path fill-rule="evenodd" clip-rule="evenodd" d="M112.654 8.168a1.269 1.269 0 0 1 1.161-1.369c1.328-.108 2.088-.598 2.541-1.34a1.27 1.27 0 1 1 2.167 1.321c-.965 1.583-2.553 2.39-4.501 2.55a1.269 1.269 0 0 1-1.368-1.162z" fill="#E5E5E5"/><path d="M40.781 62.542l-23.7 15.242-4.267-16.244 24.005-2.06a9.564 9.564 0 0 1-3.884-9.156l.391-2.67a9.548 9.548 0 0 1 6.925 4.73 9.552 9.552 0 0 1 6.477-5.879l.7 2.605a9.565 9.565 0 0 1-2.982 9.716l23.723-2.035-1.439 16.733-25.949-10.982z" fill="#E5E5E5"/><path d="M72.552 78.311a5.639 5.639 0 1 1-11.236.964 5.639 5.639 0 0 1 11.236-.964zM23.27 82.77a5.639 5.639 0 1 1-11.235.964 5.639 5.639 0 0 1 11.236-.964z" fill="#C1C1C1"/><path d="M40.7 79.542a8.106 8.106 0 1 1-16.153 1.386 8.106 8.106 0 0 1 16.154-1.386z" fill="#fff"/><path d="M37.644 79.805a1.972 1.972 0 1 1-3.929.337 1.972 1.972 0 0 1 3.93-.337z" fill="#979797"/><path d="M60.142 77.875a8.106 8.106 0 1 0-16.153 1.385 8.106 8.106 0 0 0 16.153-1.385z" fill="#fff"/><path d="M47.047 78.998a1.972 1.972 0 1 1 3.93-.337 1.972 1.972 0 0 1-3.93.337zM44.508 85.8c-.688-1.073-1.697-2.183-1.754-2.178-.058.005-.865 1.273-1.36 2.45a2.129 2.129 0 0 0 .978 4.094l1.885-.161a2.128 2.128 0 0 0 .25-4.204z" fill="#979797"/><path fill-rule="evenodd" clip-rule="evenodd" d="M121.969 44.434a3.058 3.058 0 0 0-2.328-3.646l-14.195-3.13a3.06 3.06 0 0 0-3.646 2.329l-7.364 33.399a3.059 3.059 0 0 0 2.329 3.645l14.195 3.13a3.058 3.058 0 0 0 3.645-2.328l7.364-33.4zm-4.202.117l-6.925 31.408-12.204-2.69 6.925-31.408 12.204 2.69z" fill="#fff"/><path d="M120.3 52.006l-3.983-.879-1.042 4.728 3.983.878 1.042-4.727zM99.089 52.286l3.982.878 2.492-11.303 10.461 2.306.001-.007-14.443-3.184-2.493 11.31z" fill="#E5E5E5"/><path d="M87.53 112.572a5.143 5.143 0 1 1-5.538-8.669 5.143 5.143 0 0 1 5.537 8.669z" fill="#979797"/><path d="M79.12 106.994c-6.141-1.357-8.314-15.177-4.853-30.872 3.46-15.696 11.245-27.322 17.387-25.968l.084.02 25.657 5.657a3.055 3.055 0 0 1 2.325 3.641l-11.217 50.874a3.053 3.053 0 0 1-3.641 2.325l-25.743-5.676v-.001z" fill="#C1C1C1"/><path d="M79.573 60.841l24.216 5.34a.763.763 0 1 1-.329 1.491l-24.576-5.419c.226-.48.456-.953.689-1.412z" fill="#AAA"/><path d="M91.29 79.035l.82-3.714.38-1.726a1.833 1.833 0 0 0-.246-1.382l-.291-.456-6.085-9.528 10.76 2.373 3.411 5.34.021.039c.556.847.784 1.907.548 2.974l-1.71 7.758a3.896 3.896 0 0 1-7.608-1.678z" fill="#fff"/><path d="M98.02 67.636c.13-.083.264-.159.4-.228l1.618 2.534.022.039a3.88 3.88 0 0 1 .548 2.974l-.7 3.178a4.634 4.634 0 0 1-1.888-8.497z" fill="#E5E5E5"/><path d="M114.602 58.343l-11.217 50.874a3.054 3.054 0 0 0 2.325 3.641l9.758 2.152a3.055 3.055 0 0 0 3.641-2.326l11.217-50.873A3.055 3.055 0 0 0 128 58.168l-9.757-2.151a3.055 3.055 0 0 0-3.641 2.325z" fill="#AAA"/><path d="M122.377 56.927l1.492.329-12.533 56.84-1.492-.328 12.533-56.84z" fill="#979797"/><path d="M113.163 118.224a5.143 5.143 0 1 1-5.537-8.669 5.143 5.143 0 0 1 5.537 8.669z" fill="#979797"/><path d="M111.48 115.588a2.016 2.016 0 0 1-2.17-3.397 2.015 2.015 0 0 1 2.17 3.397z" fill="#E9E1E2"/><path d="M117.148 80.403l7.689 12.038c.56.876.244 2.045-.682 2.52l-11.519 5.907 4.512-20.465z" fill="#C1C1C1"/><path d="M37.372 102.026a6.888 6.888 0 0 1 13.726-1.178l.083.973a3.37 3.37 0 0 1-3.83 3.625l-1.723-.244a4.763 4.763 0 0 0-2.124.183l-1.657.533a3.37 3.37 0 0 1-4.391-2.92l-.084-.972z" fill="#979797"/><path d="M51.122 102.809a3.373 3.373 0 0 1-3.77 2.637l-1.724-.244a4.763 4.763 0 0 0-2.124.183l-1.657.533a3.372 3.372 0 0 1-4.165-1.956 9.504 9.504 0 0 1 6.481-3.361 9.506 9.506 0 0 1 6.959 2.208z" fill="#B2B2B2"/></g><defs><clipPath id="clip0"><path fill="#fff" d="M0 0h135v124H0z"/></clipPath></defs></svg>