<svg viewBox="0 0 135 124" fill="none" xmlns="http://www.w3.org/2000/svg"><path d="M11 28c0-9.389 7.611-17 17-17h79c9.389 0 17 7.611 17 17v79c0 9.389-7.611 17-17 17H28c-9.389 0-17-7.611-17-17V28z" fill="#FEC701"/><path fill-rule="evenodd" clip-rule="evenodd" d="M64.756 27.337c8.2 8.201 8.2 21.498 0 29.699l-53.407 53.407a17.08 17.08 0 0 1-.348-3.443L11 51.394l24.057-24.057c8.201-8.2 21.498-8.2 29.699 0zM124 28.394v35.354l-8.995 8.997c-4.881 4.881-12.796 4.881-17.677 0-4.882-4.882-4.882-12.797 0-17.678L124 28.394z" fill="#FFD900"/><path fill-rule="evenodd" clip-rule="evenodd" d="M17.997 73.043c0 1.128-.016 4.021-3.023 4.244H8.237a1.33 1.33 0 0 0-1.33 1.331c0 7.432 6.024 13.456 13.456 13.456h58.705c7.432 0 13.457-6.024 13.457-13.456a1.33 1.33 0 0 0-1.331-1.33H84.9c-3.007-.224-3.023-3.117-3.023-4.245 0-1.173-1.035 1.75-1.035 1.75l.302 2.494H18.73l.302-2.494s-1.035-2.923-1.035-1.75z" fill="#FFB100"/><path fill-rule="evenodd" clip-rule="evenodd" d="M17.998 33.221c0-6.86 5.561-12.421 12.421-12.421h39.039c6.86 0 12.421 5.561 12.421 12.421v46.284H17.998V33.221z" fill="#FFB100"/><path fill-rule="evenodd" clip-rule="evenodd" d="M22.285 41.058c0-6.452 5.23-11.682 11.682-11.682h30.906c6.451 0 11.681 5.23 11.681 11.682V91.63H22.286V41.058z" fill="#FFD900"/><path fill-rule="evenodd" clip-rule="evenodd" d="M57.322 63.274A10.885 10.885 0 0 1 46.773 66.1l.456-1.687a9.138 9.138 0 0 0 8.855-2.372l1.238 1.233z" fill="#FAC331"/><path fill-rule="evenodd" clip-rule="evenodd" d="M30.735 51.49a.874.874 0 0 1 1.227-.148l-.54.687.54-.688.001.002.013.01.056.042a21.164 21.164 0 0 0 1.189.808c.837.53 2.07 1.24 3.632 1.951 3.128 1.424 7.559 2.845 12.791 2.851 5.233.007 9.663-1.401 12.791-2.816a30.455 30.455 0 0 0 3.632-1.94 21.119 21.119 0 0 0 1.189-.803 4.73 4.73 0 0 0 .056-.043l.013-.01h.001a.874.874 0 0 1 1.075 1.377l-.537-.689.537.689H68.4l-.002.002-.006.005-.02.015a13.2 13.2 0 0 1-.344.252c-.237.167-.583.403-1.03.684a32.202 32.202 0 0 1-3.843 2.053c-3.288 1.487-7.967 2.978-13.513 2.971-5.546-.006-10.225-1.51-13.513-3.008a32.284 32.284 0 0 1-3.842-2.064 23.025 23.025 0 0 1-1.302-.886 7.74 7.74 0 0 1-.072-.055l-.02-.015-.006-.005-.002-.002h-.001l.538-.688-.539.687a.874.874 0 0 1-.148-1.226z" fill="#FFB100"/><path d="M27.838 31.111a11.675 11.675 0 0 0-5.553 9.947v11.445a6.137 6.137 0 0 0 5.619-6.115V32.017c0-.308-.023-.61-.066-.906zM71.55 31.471a11.668 11.668 0 0 1 5.005 9.587v11.367a6.139 6.139 0 0 1-5.029-6.037V32.017c0-.184.008-.366.024-.546z" fill="#FFB100"/><path fill-rule="evenodd" clip-rule="evenodd" d="M34.97 42.384h13.945v1.021a6.972 6.972 0 1 1-13.944 0v-1.021z" fill="#FFF1A2"/><path d="M46.999 42.384v.573a3.13 3.13 0 0 1-6.26 0v-.573h6.26z" fill="#F68B00"/><path fill-rule="evenodd" clip-rule="evenodd" d="M65.328 42.384H51.384v1.021a6.972 6.972 0 1 0 13.944 0v-1.021z" fill="#FFF1A2"/><path d="M53.309 42.384v.573a3.13 3.13 0 0 0 6.26 0v-.573h-6.26z" fill="#F68B00"/><path d="M25.835 54.077a5.989 5.989 0 1 1-11.978 0 5.989 5.989 0 0 1 11.978 0zM85.429 54.077a5.989 5.989 0 1 1-11.978 0 5.989 5.989 0 0 1 11.978 0z" fill="#FFD900"/><path d="M16.223 28.636c0-1.061.86-1.922 1.922-1.922h63.574c1.062 0 1.922.86 1.922 1.922v3.993c0 1.062-.86 1.922-1.922 1.922H18.145a1.922 1.922 0 0 1-1.922-1.922v-3.993z" fill="#F68B00"/><path d="M36.63 17.95c0-7.35 5.96-13.31 13.31-13.31 7.35 0 13.308 5.96 13.308 13.31 0 7.35-5.959 13.308-13.309 13.308s-13.308-5.959-13.308-13.309z" fill="#FFB100"/><path d="M35.976 8.154l12.72 13.86a1.472 1.472 0 0 1-.49 2.328c-4.373 1.95-9.589.852-12.878-2.81-3.29-3.662-3.834-8.977-1.442-13.132.498-.864 1.423-.99 2.09-.246z" fill="#FFB100"/><path d="M19.773 86.455c0-.899.729-1.627 1.627-1.627h56.34c.898 0 1.626.728 1.626 1.627v5.619c0 .898-.728 1.627-1.626 1.627H21.4a1.627 1.627 0 0 1-1.627-1.627v-5.62z" fill="#F68B00"/><path fill-rule="evenodd" clip-rule="evenodd" d="M47.206 85.439a1.183 1.183 0 0 1 1.15-.906h3.608c.546 0 1.022.374 1.15.906l2.387 9.907c.18.744-.384 1.46-1.15 1.46H45.97c-.766 0-1.33-.716-1.15-1.46l2.387-9.907z" fill="#FFF1A2"/><path fill-rule="evenodd" clip-rule="evenodd" d="M50.103 54.278a3.105 3.105 0 0 0 3.106-3.104c0-1.715-3.106-5.769-3.106-5.769s-3.105 4.054-3.105 5.769a3.105 3.105 0 0 0 3.105 3.104z" fill="#FFB100"/><path d="M97.566 61.194l15.315 2.046-4.833 36.175-15.314-2.046 4.832-36.175z" fill="#FFB100"/><path d="M96.476 79.547a1.924 1.924 0 0 1 2.162-1.653l8.829 1.18a1.925 1.925 0 0 1 1.653 2.162l-1.904 14.251a1.925 1.925 0 0 1-2.162 1.653l-8.83-1.18a1.924 1.924 0 0 1-1.652-2.162l1.904-14.251z" fill="#F68B00"/><path d="M99.033 77.947l2.971.397-2.046 15.319a.962.962 0 0 1-1.081.826l-1.064-.142a.962.962 0 0 1-.826-1.08l2.046-15.32z" fill="#FF9600"/><path d="M102.006 78.345l-2.971-.397 1.548-11.59a.963.963 0 0 1 1.081-.827l1.064.142c.527.07.897.554.826 1.081l-1.548 11.59z" fill="#FFF1A2"/><path d="M104.604 50.734l4.236.566-1.615 12.089-4.236-.566 1.615-12.09zM99.323 98.427a1.055 1.055 0 1 1 2.091.28l-2.428 18.175a1.055 1.055 0 0 1-2.09-.28l2.427-18.175z" fill="#F68B00"/><path d="M91.025 98.355a2.081 2.081 0 0 1 2.339-1.788l14.287 1.909a2.081 2.081 0 0 1-.551 4.126l-14.287-1.909a2.081 2.081 0 0 1-1.788-2.338zM91.424 60.373a2.081 2.081 0 0 1 2.338-1.787l23.477 3.136a2.082 2.082 0 0 1-.552 4.126l-23.476-3.136a2.082 2.082 0 0 1-1.787-2.339zM100.937 49.114a2.082 2.082 0 0 1 2.339-1.787l7.74 1.034a2.082 2.082 0 1 1-.551 4.126l-7.74-1.034a2.082 2.082 0 0 1-1.788-2.339z" fill="#FF9600"/></svg>