<svg viewBox="0 0 135 124" fill="none" xmlns="http://www.w3.org/2000/svg"><path d="M10.984 28c0-9.389 7.611-17 17-17h79c9.389 0 17 7.611 17 17v79c0 9.389-7.611 17-17 17h-79c-9.389 0-17-7.611-17-17V28z" fill="#E5E5E5"/><path d="M64.12 55.74c1.632 16.89-10.737 31.905-27.628 33.537-16.89 1.631-31.905-10.738-33.537-27.629-1.631-16.89 10.738-31.905 27.629-33.537 16.89-1.632 31.905 10.738 33.537 27.628z" fill="#9F9F9F"/><path d="M23.176 55l1.837 2.357 26.54-23.553a30.877 30.877 0 0 0-2.592-1.687L23.176 55z" fill="#979797"/><path d="M13.608 63.497L23 55.162l9.392-8.335L54.02 59.594l2.855 29.56-40.411 3.903-2.856-29.56z" fill="#D1D1D1"/><path d="M7.467 100.774c-1.334-9.622 5.384-18.503 15.005-19.837l26.248-3.64c9.621-1.334 18.503 5.384 19.837 15.006 1.334 9.621-5.384 18.503-15.006 19.837l-26.247 3.639c-9.622 1.334-18.503-5.384-19.837-15.005z" fill="#9F9F9F"/><path d="M40.788 78.94A5.269 5.269 0 1 1 30.3 79.955a5.269 5.269 0 0 1 10.488-1.013z" fill="#D1D1D1"/><path d="M18.448 67.86a7.11 7.11 0 0 1 14.155-1.367l.465 4.814a7.11 7.11 0 1 1-14.155 1.367l-.465-4.814z" fill="#fff"/><path d="M53.334 51.513l3.433 4.811c1.527 2.138.166 5.127-2.449 5.38-2.615.252-4.523-2.42-3.434-4.812l2.45-5.379z" fill="#E5E5E5"/><path fill-rule="evenodd" clip-rule="evenodd" d="M17.075 61.581c4.57.494 7.054-2.981 7.722-4.863a1.553 1.553 0 1 1 2.927 1.04c-.904 2.547-4.363 7.627-10.983 6.912a1.553 1.553 0 1 1 .334-3.089z" fill="#979797"/><path fill-rule="evenodd" clip-rule="evenodd" d="M25.359 59.569a7.98 7.98 0 0 1 4.68 1.712 7.98 7.98 0 0 1 2.76 4.15 3.292 3.292 0 0 1-6.346 1.754 1.397 1.397 0 0 0-.489-.733 1.397 1.397 0 0 0-.826-.303 3.292 3.292 0 1 1 .22-6.58zM47.262 62.615a1.243 1.243 0 0 0-1.727-.327l-7.789 5.309a1.242 1.242 0 0 0 .495 2.252l8.812 1.472a1.243 1.243 0 0 0 .41-2.451l-5.76-.962 5.232-3.567c.567-.386.713-1.16.327-1.726zM45.557 58.45c-4.597 0-6.693 3.721-7.155 5.664a1.553 1.553 0 1 1-3.022-.72c.625-2.628 3.519-8.05 10.177-8.051a1.553 1.553 0 1 1 0 3.106zM49.53 93.35c-2.014-.136-4.028.71-5.264 1.957a3.927 3.927 0 1 1-5.58-5.528c2.786-2.81 7.007-4.56 11.37-4.266a3.927 3.927 0 1 1-.527 7.836z" fill="#979797"/><path d="M89.362 31.113a3.283 3.283 0 0 1 3.76-2.722l18.805 3.01c.292.047.59.054.884.02l15.261-1.71a3.282 3.282 0 0 1 2.983 1.282l1.721 2.273a4.925 4.925 0 0 1 .936 3.75l-10.013 62.55a3.283 3.283 0 0 1-3.761 2.722l-38.32-6.134a4.924 4.924 0 0 1-3.698-2.813l-1.457-3.181a3.282 3.282 0 0 1-.146-2.353l7.994-25.367c.048-.154.085-.31.11-.468l2.711-16.931 2.23-13.928z" fill="#979797"/><path d="M85.905 25.365a3.283 3.283 0 0 1 3.76-2.723l38.491 6.162a3.284 3.284 0 0 1 2.723 3.76l-9.956 62.194a3.283 3.283 0 0 1-3.761 2.722l-38.49-6.162a3.283 3.283 0 0 1-2.723-3.76l9.956-62.193z" fill="#9F9F9F"/><path d="M89.567 28.444L80.39 85.776a1.641 1.641 0 0 0 1.36 1.88l33.63 5.383a1.641 1.641 0 0 0 1.88-1.36l9.178-57.332a1.641 1.641 0 0 0-1.362-1.88l-33.628-5.384a1.641 1.641 0 0 0-1.88 1.361z" fill="#D1D1D1"/><path d="M97.934 28.422a3.283 3.283 0 0 1 3.76-2.723l14.08 2.254a3.284 3.284 0 0 1 2.723 3.76l-.13.81a3.282 3.282 0 0 1-3.76 2.723l-14.081-2.254a3.283 3.283 0 0 1-2.722-3.76l.13-.81z" fill="#9F9F9F"/><path d="M100.653 41.619a2.462 2.462 0 0 1 2.82-2.042l6.068.971a2.462 2.462 0 0 1 2.042 2.82l-.764 4.772a2.462 2.462 0 0 1-2.82 2.041l-6.068-.97a2.462 2.462 0 0 1-2.042-2.821l.764-4.771z" fill="#fff"/><path fill-rule="evenodd" clip-rule="evenodd" d="M107.411 42.179l.469-2.935a1.226 1.226 0 1 0-2.422-.388l-.47 2.935a.306.306 0 0 0 .253.35l1.82.29a.306.306 0 0 0 .35-.252zm-.288-5.96a2.87 2.87 0 0 0-3.286 2.378l-.469 2.934a1.946 1.946 0 0 0 1.614 2.23l1.819.291a1.946 1.946 0 0 0 2.23-1.614l.47-2.934a2.869 2.869 0 0 0-2.378-3.286z" fill="#fff"/><path d="M88.279 55.171a5.44 5.44 0 0 1 6.31-4.522l19.174 3.295c3.008.517 5.059 3.38 4.582 6.394a5.44 5.44 0 0 1-6.311 4.522L92.86 61.565c-3.007-.517-5.059-3.38-4.581-6.394z" fill="#979797"/><path d="M106.309 56.095c.188-.471.885-.351.918.158.021.33.361.543.663.417.467-.196.881.383.546.761a.482.482 0 0 0 .182.763c.471.194.361.893-.146.92a.473.473 0 0 0-.407.66c.201.472-.37.88-.752.54a.473.473 0 0 0-.757.172c-.188.472-.885.352-.918-.157a.482.482 0 0 0-.663-.417c-.466.195-.881-.383-.546-.762a.482.482 0 0 0-.181-.762c-.472-.195-.361-.893.145-.92a.472.472 0 0 0 .407-.661c-.2-.471.371-.88.752-.54a.473.473 0 0 0 .757-.172zM100.067 55.023c.188-.472.885-.352.918.157.021.33.361.544.664.417.466-.195.881.383.546.762a.481.481 0 0 0 .181.762c.472.195.361.893-.146.92a.473.473 0 0 0-.407.661c.201.471-.37.88-.752.54a.472.472 0 0 0-.756.172c-.188.471-.885.351-.918-.158a.482.482 0 0 0-.664-.417c-.466.196-.88-.383-.546-.762a.482.482 0 0 0-.181-.762c-.472-.194-.361-.893.146-.92a.473.473 0 0 0 .406-.66c-.2-.472.371-.88.752-.54a.472.472 0 0 0 .757-.172zM93.826 53.95c.188-.471.885-.351.918.158.02.33.36.543.663.417.466-.196.881.383.546.762a.482.482 0 0 0 .181.762c.472.194.361.893-.145.92a.473.473 0 0 0-.407.66c.2.472-.37.88-.752.54a.473.473 0 0 0-.757.172c-.188.471-.885.352-.918-.157a.482.482 0 0 0-.663-.417c-.467.195-.881-.383-.546-.762a.482.482 0 0 0-.182-.762c-.471-.195-.36-.893.146-.92a.473.473 0 0 0 .407-.661c-.2-.471.37-.88.752-.54a.473.473 0 0 0 .757-.172zM112.551 57.168c.188-.472.885-.352.917.157.022.33.362.544.664.417.466-.195.881.383.546.762a.482.482 0 0 0 .181.762c.472.195.361.893-.145.92a.472.472 0 0 0-.407.661c.2.471-.371.88-.752.54a.473.473 0 0 0-.757.172c-.188.471-.885.351-.918-.158a.482.482 0 0 0-.663-.417c-.467.196-.881-.383-.546-.762a.482.482 0 0 0-.182-.762c-.471-.195-.361-.893.146-.92a.473.473 0 0 0 .407-.66c-.201-.472.37-.88.752-.54a.473.473 0 0 0 .757-.172z" fill="#fff"/><path fill-rule="evenodd" clip-rule="evenodd" d="M87.415 69.325a.805.805 0 0 0-.934.67l-.355 2.243c-.086.545.307 1.048.77 1.354a2.442 2.442 0 0 1 1.066 2.413 2.365 2.365 0 0 1-1.754 1.928c-.533.135-1.06.48-1.146 1.025l-.355 2.243a.83.83 0 0 0 .678.947l23.077 3.965a.804.804 0 0 0 .934-.67l.356-2.242c.086-.546-.307-1.048-.769-1.354a2.441 2.441 0 0 1-1.067-2.413 2.365 2.365 0 0 1 1.754-1.929c.533-.135 1.06-.48 1.146-1.025l.355-2.243a.83.83 0 0 0-.678-.946l-23.078-3.966z" fill="#9F9F9F"/><path fill-rule="evenodd" clip-rule="evenodd" d="M94.177 64.186a.805.805 0 0 0-1.027.515l-.695 2.158c-.168.525.144 1.08.555 1.454.686.623.986 1.612.686 2.544a2.361 2.361 0 0 1-2.031 1.631c-.548.052-1.123.31-1.292.835l-.695 2.157a.83.83 0 0 0 .527 1.038l22.241 7.471a.806.806 0 0 0 1.027-.516l.695-2.157c.169-.525-.143-1.08-.554-1.454a2.436 2.436 0 0 1-.687-2.544 2.363 2.363 0 0 1 2.032-1.631c.548-.052 1.122-.31 1.291-.835l.695-2.157a.83.83 0 0 0-.526-1.038l-22.242-7.471z" fill="#fff"/><path d="M52.967 28.709c3.214 11.203 14.902 17.68 26.105 14.465 11.203-3.215 17.68-14.902 14.465-26.105C90.323 5.865 78.635-.611 67.432 2.604c-11.203 3.214-17.68 14.902-14.465 26.105z" fill="#979797"/><path d="M96.706 46.506l-6.444-14.492a1 1 0 0 0-1.45-.437l-8.062 5.136a1 1 0 0 0-.005 1.684l14.505 9.356c.835.538 1.86-.339 1.456-1.247z" fill="#979797"/><path fill-rule="evenodd" clip-rule="evenodd" d="M87.723 22.934c0 7.992-6.48 14.471-14.471 14.471-7.992 0-14.471-6.479-14.471-14.47 0-7.993 6.479-14.472 14.47-14.472 7.993 0 14.472 6.48 14.472 14.471zm-4 0c0 5.783-4.688 10.471-10.471 10.471a10.44 10.44 0 0 1-7.523-3.187L83.323 20.06c.26.913.4 1.878.4 2.874zm-2.707-7.025L63.283 26.147a10.465 10.465 0 0 1-.502-3.213c0-5.783 4.688-10.47 10.47-10.47 3.08 0 5.85 1.329 7.765 3.445z" fill="#fff"/><g opacity=".15" fill="#fff"><path d="M122.176 60.964l4.262-26.617a1.643 1.643 0 0 0-1.054-1.8L86.535 47.386l-4.636 28.963 40.277-15.385zM120.437 71.832l-3.177 19.846a1.642 1.642 0 0 1-1.88 1.361l-33.63-5.383c-.44-.07-.812-.31-1.058-.643l39.745-15.181z"/></g></svg>