<svg viewBox="0 0 136 125" fill="none" xmlns="http://www.w3.org/2000/svg"><g clip-path="url(#clip0_302_3228)"><path d="M107.674 11.665h-79c-9.39 0-17 7.611-17 17v79c0 9.389 7.61 17 17 17h79c9.389 0 17-7.611 17-17v-79c0-9.389-7.611-17-17-17z" fill="#FFCA00"/><path d="M122.966 21.703L21.446 123.222a16.937 16.937 0 0 0 7.08 1.56h41.32l54.68-54.68v-41.32a16.938 16.938 0 0 0-1.56-7.08zm-72.12 48.14l58-58c-.43 0-.87-.07-1.31-.07h-48.59l-33.08 33.09c-6.903 6.904-6.903 18.096 0 25 6.904 6.903 18.097 6.903 25 0l-.02-.02z" fill="#FFD900"/><path d="M74.193 28.283h.002A7.547 7.547 0 0 1 81.74 20.9H117.3a7.547 7.547 0 0 1 7.545 7.384h.002v34.765a2.612 2.612 0 0 0 2.612 2.612h5.127c.602 0 1.089.487 1.089 1.088 0 5.879-4.766 10.644-10.645 10.644H76.01c-5.879 0-10.645-4.765-10.645-10.644 0-.601.488-1.088 1.089-1.088h5.128a2.612 2.612 0 0 0 2.611-2.612V28.283z" fill="#FFB100"/><path d="M78.003 29.27h43.034v42.942H78.003V29.27z" fill="#FFBB31"/><path d="M99.526 52.875c-7.845 0-15.228 2.136-21.525 5.859v12.939h42.977l.058-12.94a42.17 42.17 0 0 0-21.51-5.858z" fill="#F79B24"/><path fill-rule="evenodd" clip-rule="evenodd" d="M111.16 62.968a6.694 6.694 0 0 0-7.566-1.333l-.589.275a8.294 8.294 0 0 1-6.975.02l-.64-.295a6.695 6.695 0 0 0-7.608 1.424l-.147.153a.8.8 0 1 1-1.149-1.113l.147-.152a8.293 8.293 0 0 1 9.425-1.764l.64.294a6.695 6.695 0 0 0 5.631-.015l.588-.275a8.293 8.293 0 0 1 9.373 1.65l.254.253a.8.8 0 0 1-1.131 1.13l-.253-.252z" fill="#E27903"/><path fill-rule="evenodd" clip-rule="evenodd" d="M80.327 64.046a.75.75 0 0 1 1.055.099c1.157 1.395 4.579 3.951 8.873 2.964a.75.75 0 1 1 .336 1.46c-5.05 1.162-9-1.824-10.363-3.468a.75.75 0 0 1 .099-1.055zM118.711 64.046a.75.75 0 0 0-1.055.098c-1.156 1.396-4.579 3.952-8.872 2.964a.75.75 0 1 0-.336 1.461c5.049 1.161 9-1.825 10.362-3.468a.75.75 0 0 0-.099-1.055z" fill="#F68B00"/><path d="M75.95 48.573a4.749 4.749 0 1 0 0-9.498 4.749 4.749 0 0 0 0 9.498zM123.089 48.573a4.75 4.75 0 1 0-.001-9.5 4.75 4.75 0 0 0 .001 9.5z" fill="#FFBB31"/><path d="M75.892 72.979c0-.722.584-1.306 1.306-1.306h44.643c.722 0 1.306.584 1.306 1.306v4.424c0 .72-.584 1.305-1.306 1.305H77.198a1.306 1.306 0 0 1-1.306-1.305v-4.424z" fill="#E27903"/><path d="M74.212 39.406a4.749 4.749 0 0 1 5.964 2.238 5.293 5.293 0 0 0 1.886-4.057v-6.65h-7.85v8.469zM118.87 41.65a4.749 4.749 0 0 1 5.957-2.249v-8.463h-7.851v6.65c0 1.63.736 3.089 1.894 4.062z" fill="#FFB100"/><path d="M72.789 26.895c0-.721.585-1.306 1.306-1.306h50.849c.722 0 1.306.585 1.306 1.306v3.603c0 .721-.584 1.306-1.306 1.306h-50.85a1.306 1.306 0 0 1-1.305-1.306v-3.603z" fill="#E27903"/><path d="M97.17 72.393a.94.94 0 0 1 .914-.72h2.871a.94.94 0 0 1 .914.72l1.888 7.853a.94.94 0 0 1-.915 1.16h-6.645a.94.94 0 0 1-.915-1.16l1.888-7.853z" fill="#FFF1A2"/><path d="M99.52 44.22c.113 0 1.115 1.591 2.135 3.26 1.015 1.66-.189 3.776-2.136 3.776-1.946 0-3.15-2.116-2.135-3.777 1.02-1.668 2.022-3.258 2.135-3.258z" fill="#E27903"/><path d="M92.528 32.659a5.945 5.945 0 0 0-5.945 5.945v3.616a5.945 5.945 0 0 0 11.89 0v-3.616a5.945 5.945 0 0 0-5.945-5.945zM106.523 32.659a5.945 5.945 0 0 0-5.945 5.945v3.616a5.945 5.945 0 0 0 11.89 0v-3.616a5.945 5.945 0 0 0-5.945-5.945z" fill="#FFF1A2"/><path d="M101.535 38.588a2.09 2.09 0 0 0 2.049-2.506 2.712 2.712 0 0 1 2.417 2.695v3.254a2.711 2.711 0 0 1-5.423 0v-3.254c0-.138.01-.273.03-.406.279.139.594.217.927.217zM87.537 38.588a2.09 2.09 0 0 0 2.049-2.506 2.712 2.712 0 0 1 2.416 2.695v3.254a2.711 2.711 0 0 1-5.422 0v-3.254c0-.138.01-.273.03-.406.28.139.594.217.927.217z" fill="#E27903"/><path fill-rule="evenodd" clip-rule="evenodd" d="M84.875 46.343a.5.5 0 0 1 .694.134 7.423 7.423 0 0 0 7.8 3.079.5.5 0 0 1 .222.975 8.423 8.423 0 0 1-8.85-3.494.5.5 0 0 1 .134-.694zM114.176 46.343a.5.5 0 0 0-.694.134 7.424 7.424 0 0 1-7.8 3.079.5.5 0 0 0-.222.975 8.424 8.424 0 0 0 8.85-3.494.5.5 0 0 0-.134-.694z" fill="#F79B24"/><path d="M98.474 40.367v.055l-.135.008a16.448 16.448 0 0 1-6.923 1.517c-1.664 0-3.322-.246-4.836-.704v-2.168h.003v-.471a5.945 5.945 0 0 1 11.89 0l.001 1.763zM100.578 40.367v.055l.135.008a16.451 16.451 0 0 0 6.923 1.517c1.664 0 3.322-.246 4.836-.704v-2.168h-.003v-.471a5.945 5.945 0 0 0-11.891 0v1.763z" fill="#F68B00"/><path d="M82.85 22.188l-6.196 3.527 22.051-2.081 5.725 6.519c.609.693 1.751.262 1.751-.66v-3.778l8.616 3.877c.948.427 1.837-.697 1.203-1.521l-5.233-6.809 7.239-8.405c.657-.763-.097-1.908-1.057-1.607l-12.344 3.87 1.162-8.228c.134-.948-1.012-1.524-1.693-.851l-9.19 9.08-3.48-4.873a1 1 0 0 0-1.754.238l-3.937 10.776-2.668.84c-.068.022-.133.05-.194.086zM38.93 64.043c12.424-1.272 23.358-10.036 26.782-22.818C70.142 24.693 60.332 7.7 43.8 3.27S10.273 8.651 5.843 25.184C2.42 37.964 7.505 51.02 17.63 58.335a4.236 4.236 0 0 0 1.594 7.365l14.644 3.924a4.236 4.236 0 0 0 5.063-5.581z" fill="#FFB100"/><path d="M14.158 55.413c9.627 1.498 17.157 1.154 22.694.116 3.782-.709 6.628-1.74 8.579-2.724.977-.492 1.715-.966 2.229-1.37.546-.43.745-.707.78-.777l2.198 1.087c-.28.566-.826 1.118-1.462 1.618-.669.525-1.551 1.082-2.64 1.632-2.183 1.1-5.252 2.199-9.232 2.945-5.05.946-11.577 1.327-19.64.418a30.841 30.841 0 0 1-3.506-2.945z" fill="#F68B00"/><path d="M59.252 39.495c-3.474 12.964-16.8 20.657-29.764 17.184-12.964-3.474-20.658-16.8-17.184-29.764C15.778 13.95 29.104 6.257 42.068 9.73c12.964 3.474 20.658 16.8 17.184 29.764z" fill="#F79B24"/><path opacity=".9" d="M36.34 40.152c-.31 1.158-1.574 1.825-2.823 1.49-1.249-.334-2.01-1.544-1.7-2.702.31-1.158 3.28-3.568 3.373-3.543.095.026 1.46 3.597 1.15 4.755z" fill="#E27903"/><path d="M22.152 37.239a1.428 1.428 0 0 1 1.999-.32l14.023 10.197c.64.465.784 1.363.32 2.004l-.119.165a10.063 10.063 0 0 1-14.085 2.25c-4.513-3.282-5.523-9.608-2.257-14.131l.12-.165z" fill="#E27903"/><path d="M30.352 53.456c-2.102.033-4.23-.59-6.062-1.922a10.083 10.083 0 0 1-4.018-6.476 9.982 9.982 0 0 1 6.069 1.917 10.058 10.058 0 0 1 4.01 6.481z" fill="#FFB100"/><path d="M31.947 24.262c2.907 2.707 3.844 5.162 3.716 7.203-.021.373-.08.748-.18 1.123-.787 2.934-3.792 4.678-6.713 3.896a5.43 5.43 0 0 1-2.627-1.602c-.39-.4-.673-.697-.898-.933-.822-.863-.865-.909-2.448-2.105a4.995 4.995 0 0 1-.09-.068l-.061-.047a5.503 5.503 0 0 1-1.883-5.735 5.502 5.502 0 0 1 4.577-4.035c2.726-.375 5.451 1.299 6.607 2.303z" fill="#FFF1A2"/><path d="M35.66 30.679a5.875 5.875 0 0 1-.178 1.909 5.496 5.496 0 0 1-5.653 4.071 3.569 3.569 0 0 1-1.687-4.028l.577-2.153.012-.043a2.23 2.23 0 0 0 3.146-2.59 3.567 3.567 0 0 1 3.782 2.834z" fill="#E27903"/><path d="M43.567 27.375c-3.872.89-5.91 2.549-6.82 4.38a5.552 5.552 0 0 0-.405 1.063c-.786 2.934.944 5.948 3.865 6.73a5.43 5.43 0 0 0 3.076-.074c.537-.151.931-.267 1.245-.36 1.142-.335 1.203-.353 3.172-.598a5.83 5.83 0 0 0 .111-.014l.077-.01a5.503 5.503 0 0 0 4.498-4.025 5.503 5.503 0 0 0-1.946-5.782c-2.173-1.689-5.37-1.601-6.873-1.31z" fill="#FFF1A2"/><path d="M52.203 35.03a3.568 3.568 0 0 0-3.465-4.102 2.23 2.23 0 0 1-3.386 2.268l-.015.042-.786 2.086a3.567 3.567 0 0 0 .645 3.599c.61-.165 1-.22 2.504-.407l.111-.014.077-.01a5.503 5.503 0 0 0 4.315-3.461zM54.025 17.15c-9.148 6.662-21.118 9.284-32.9 6.127-3.155-.846-5.527-1.929-6.318-2.365-2.585-1.675-3.522-3.992-3.735-6.052-.21-2.03.281-3.81.456-4.444l.032-.116a1.003 1.003 0 0 1 1.657-.47c.504.476 1.492 1.126 2.617 1.73 1.117.601 2.25 1.092 3.003 1.294.756.202 1.488.302 2.488.108.589-.114 1.287-.333 2.148-.714a24.228 24.228 0 0 1 18.595-2.517 24.189 24.189 0 0 1 11.957 7.419z" fill="#E27903"/><path d="M106.192 113.957l-.011-.106a3.64 3.64 0 0 0-.03-.274l-.574-5.277h5.449c.794 0 1.413-.689 1.329-1.478l-.35-3.281a1.336 1.336 0 0 0-1.328-1.195h-6.114c-.952 0-1.695.826-1.594 1.773l.663 6.246c-1.028-.415-2.198-.383-3.195.193-1.78 1.027-2.337 3.396-1.244 5.289 1.094 1.894 3.423 2.596 5.203 1.568 1.232-.711 1.877-2.064 1.795-3.457l.001-.001z" fill="#FFF1A2"/><path d="M77.138 88.194l2.879 10.743a4.498 4.498 0 0 0-2.223.024c-2.55.683-4.023 3.449-3.291 6.178.73 2.729 3.39 4.388 5.94 3.705 2.548-.683 4.022-3.45 3.29-6.178l-2.313-8.635a.674.674 0 0 1 .477-.826l10.621-2.846c.36-.096.73.118.826.477l1.133 4.227a4.497 4.497 0 0 0-2.222.023c-2.55.683-4.023 3.45-3.292 6.178.731 2.729 3.391 4.388 5.94 3.705 2.55-.683 4.022-3.449 3.291-6.178l-4.06-15.15a1.35 1.35 0 0 0-1.651-.954l-14.39 3.856a1.348 1.348 0 0 0-.955 1.65z" fill="#FFB100"/><path d="M64.966 79.297a6.699 6.699 0 0 1-11.6-6.698l-5.372-3.101a2.391 2.391 0 0 0-3.267.875l-19.823 34.335a2.39 2.39 0 0 0 .876 3.267l5.37 3.101a6.699 6.699 0 0 1 11.602 6.698l5.37 3.101a2.391 2.391 0 0 0 3.268-.876l19.823-34.334a2.39 2.39 0 0 0-.876-3.266l-5.371-3.102z" fill="#FFF1A2"/><path d="M52.183 110.375l-19.34-11.167a.851.851 0 1 0-.852 1.475l19.341 11.166a.851.851 0 1 0 .851-1.474zM63.975 90.1L44.633 78.933a.851.851 0 1 0-.85 1.474l19.34 11.167a.851.851 0 0 0 .852-1.474zM41.396 92.781a1.435 1.435 0 0 1 1.249-2.162l2.74.02c.414.004.81-.172 1.084-.482l1.82-2.05a1.436 1.436 0 0 1 2.441.519l.827 2.613c.124.394.415.717.794.882l2.513 1.096a1.436 1.436 0 0 1 .26 2.483l-2.229 1.594c-.336.24-.553.615-.594 1.027l-.266 2.728a1.436 1.436 0 0 1-2.28 1.016l-2.204-1.628a1.434 1.434 0 0 0-1.162-.247l-2.677.59a1.435 1.435 0 0 1-1.67-1.856l.867-2.599a1.44 1.44 0 0 0-.124-1.18l-1.389-2.364z" fill="#FFB100"/></g><defs><clipPath id="clip0_302_3228"><path fill="#fff" transform="translate(.674 .665)" d="M0 0h135v124H0z"/></clipPath></defs></svg>