<svg viewBox="0 0 135 124" fill="none" xmlns="http://www.w3.org/2000/svg"><g clip-path="url(#clip0)"><path d="M107 11H28c-9.389 0-17 7.611-17 17v79c0 9.389 7.611 17 17 17h79c9.389 0 17-7.611 17-17V28c0-9.389-7.611-17-17-17z" fill="#FFCA00"/><path d="M122.44 20.93L20.92 122.45a16.937 16.937 0 0 0 7.08 1.56h41.32L124 69.33V28.01a16.938 16.938 0 0 0-1.56-7.08zM50.32 69.07l58-58c-.43 0-.87-.07-1.31-.07H58.42L25.34 44.09c-6.904 6.904-6.904 18.096 0 25 6.903 6.904 18.096 6.904 25 0l-.02-.02z" fill="#FFD900"/><path d="M86.439 59.189c-5.095 4.323-12.73 3.699-17.053-1.395l-3.75-4.419c-4.323-5.094-3.699-12.729 1.395-17.052l4.94-4.194c5.095-4.323 12.73-3.699 17.053 1.396l3.75 4.418c4.324 5.094 3.7 12.729-1.395 17.052l-4.94 4.194zM109.145 60.333c4.559 4.885 12.215 5.149 17.099.59l4.237-3.955c4.884-4.559 5.148-12.214.589-17.099l-4.422-4.737c-4.559-4.885-12.214-5.148-17.099-.59l-4.237 3.955c-4.884 4.56-5.148 12.215-.589 17.099l4.422 4.737z" fill="#E27903"/><path d="M82.653 31.63c.387-6.67 6.109-11.763 12.779-11.375l8.729.507c6.67.387 11.763 6.109 11.376 12.779l-.42 7.223c-.388 6.67-6.109 11.763-12.779 11.375l-8.73-.507c-6.67-.387-11.763-6.109-11.375-12.78l.42-7.222z" fill="#E27903"/><path d="M112.606 63.722a9.267 9.267 0 0 1 8.714 9.79l-1.344 23.129c-.348 6.003-5.498 10.588-11.502 10.239l-26.83-1.559c-6.004-.349-10.588-5.499-10.24-11.503L72.75 70.69a9.267 9.267 0 0 1 9.79-8.714l30.067 1.747z" fill="#F79B24"/><path d="M88.923 93.635a1.031 1.031 0 1 0 1.04 1.781l-1.04-1.78zm13.37 2.498a1.032 1.032 0 0 0 1.239-1.649l-1.239 1.649zm-5.955-3.982c-2.863-.166-5.54.39-7.415 1.484l1.04 1.781c1.44-.84 3.69-1.356 6.256-1.206l.12-2.059zm7.194 2.333c-1.735-1.304-4.33-2.167-7.194-2.333l-.12 2.059c2.567.149 4.742.92 6.075 1.923l1.239-1.649z" fill="#E27903"/><path d="M82.487 79.555l-.1 1.724a6.194 6.194 0 1 0 12.368.719l.1-1.725-12.368-.718zM98.357 80.477l-.1 1.724a6.194 6.194 0 1 0 12.368.719l.1-1.724-12.368-.72z" fill="#FFF1A2"/><path d="M87.963 79.873l-.1 1.724a2.742 2.742 0 0 0 5.474.318l.1-1.724-5.474-.318zM99.775 80.56l-.1 1.722a2.742 2.742 0 1 0 5.474.318l.1-1.722-5.474-.319z" fill="#E27903"/><path fill-rule="evenodd" clip-rule="evenodd" d="M97.047 77.776c.776.15 1.283.9 1.133 1.675l-.047.244a3.916 3.916 0 0 1-4.587 3.103l-14.588-2.816a1.43 1.43 0 1 1 .542-2.808l14.587 2.816a1.057 1.057 0 0 0 1.238-.837l.047-.244a1.43 1.43 0 0 1 1.675-1.133z" fill="#E27903"/><path d="M81.322 83.317l14.872 3.253 15.149-1.509-.287 4.938-30.02-1.745.286-4.937z" fill="#F79B24"/><path d="M94.156 87.512a2.025 2.025 0 0 0 4.044.235c.065-1.117-1.722-3.82-1.806-3.824-.085-.005-2.173 2.472-2.238 3.589z" fill="#E27903"/><rect x="93.266" y="85.932" width="6.024" height="4.17" rx="2.085" transform="rotate(3.325 93.266 85.932)" fill="#E27903"/><path d="M77.86 41.08l38.155 2.217-1.357 23.345-38.155-2.217 1.356-23.345z" fill="#E27903"/><path d="M88.225 57.025a9.373 9.373 0 0 0 9.625 9.115l-.072-2.643a9.373 9.373 0 0 0-9.625-9.115l.072 2.643z" fill="#FDB02A"/><path d="M106.844 58.107a9.374 9.374 0 0 1-10.616 7.939l.378-2.617a9.373 9.373 0 0 1 10.615-7.939l-.377 2.617z" fill="#FDB02A"/><path d="M70.415 58.949l27.978 5.757-.16 2.766-25.957 7.83-1.861-16.353z" fill="#FDB02A"/><path d="M124.77 62.107l-28.457 2.478-.16 2.766 24.875 10.784 3.742-16.028z" fill="#FDB02A"/><path d="M25.216 6.806a7.566 7.566 0 0 0-6.105 4.522l-3.167 7.34a1.68 1.68 0 0 0 .876 2.206l7.01 3.03a1.679 1.679 0 0 0 2.208-.876l7.4-17.143-8.222.92z" fill="#F79B24"/><path d="M40.462 8.936a7.566 7.566 0 0 0-6.955-3.06l-8.222.922 10.853 14.865-2.745 2.008 12.544 1.516 2.093-12.228-3.02 2.21-4.548-6.233z" fill="#FFB100"/><path d="M58.518 39.982a7.567 7.567 0 0 0-.864-7.548l-4.773-6.413a1.68 1.68 0 0 0-2.349-.345l-6.129 4.557a1.68 1.68 0 0 0-.345 2.35l11.147 14.98 3.313-7.581z" fill="#F79B24"/><path d="M49.051 52.12a7.566 7.566 0 0 0 6.126-4.493l3.313-7.582-18.299 1.967-.367-3.381-7.585 10.105 9.543 7.926-.404-3.72 7.673-.822z" fill="#FFB100"/><path d="M13.048 52.41a7.567 7.567 0 0 0 6.968 3.026l7.94-.928a1.68 1.68 0 0 0 1.473-1.861l-.881-7.586a1.679 1.679 0 0 0-1.863-1.474L8.14 45.75l4.909 6.66z" fill="#F79B24"/><path d="M7.27 38.142a7.566 7.566 0 0 0 .828 7.552l4.909 6.66 7.447-16.83 3.111 1.372-4.959-11.622L6.97 29.576l3.423 1.51-3.123 7.056z" fill="#FFB100"/><path d="M36.908 117.796c15.479-1.624 26.71-15.489 25.087-30.968-1.624-15.479-15.489-26.71-30.968-25.087C15.548 63.365 4.317 77.23 5.94 92.71c1.624 15.479 15.489 26.711 30.968 25.087z" fill="#FDB02A"/><path d="M5.915 92.461c-1.281-13.33 6.958-25.417 19.202-29.454a9.227 9.227 0 0 1-4.773 16.405l-.55.058a7.98 7.98 0 0 1-5.942 12.158l-7.937.833zM18.76 113.495c-5.964-3.827-10.443-9.863-12.185-17.091l8.437-.885a9.227 9.227 0 0 1 10.14 8.214c.465 4.438-2.296 8.47-6.393 9.762zM59.913 100.783a28.295 28.295 0 0 1-3.358 5.838c-.796.461-1.7.766-2.674.869l-3.472.364a6.734 6.734 0 0 1-7.437-6.743l-.785.083a9.227 9.227 0 0 1-10.14-8.215 9.227 9.227 0 0 1 8.215-10.14l8.433-.884a9.227 9.227 0 0 1 10.14 8.214 9.185 9.185 0 0 1-1.19 5.585 6.71 6.71 0 0 1 2.268 5.029zM57.658 74.495l-4.43.465-.091.009a5.488 5.488 0 0 1-4.898 5.028l-2.48.26a5.487 5.487 0 0 1-1.146-10.914l.14-.014a8.028 8.028 0 0 1-.295-1.474 7.944 7.944 0 0 1 .608-3.996 28.309 28.309 0 0 1 12.592 10.636z" fill="#F79B24"/><path d="M32.488 66.102l-4.465.468a3.74 3.74 0 0 0 .781 7.441l4.465-.468a3.74 3.74 0 1 0-.781-7.441zM22.156 77.216l1.452-.152a3.74 3.74 0 1 1 .78 7.44l-4.464.47a3.74 3.74 0 0 1-4.03-4.594l-6.412.673a3.74 3.74 0 0 1-.78-7.44l9.425-.99a3.74 3.74 0 0 1 4.029 4.593zM60.413 93.263l-4.464.469a3.74 3.74 0 0 0 .78 7.441l4.465-.469a3.74 3.74 0 1 0-.78-7.44zM51.533 104.225l-9.425.989a3.741 3.741 0 0 0 .78 7.441l9.426-.989a3.74 3.74 0 1 0-.781-7.441z" fill="#FFF1A2"/><circle cx="120.487" cy="83.273" r="5.526" transform="rotate(3.325 120.487 83.273)" fill="#F79B24"/><circle cx="72.063" cy="80.686" r="5.526" transform="rotate(3.325 72.063 80.686)" fill="#F79B24"/><path fill-rule="evenodd" clip-rule="evenodd" d="M96.632 77.752a1.43 1.43 0 0 0-1.319 1.532l.019.248a3.916 3.916 0 0 0 4.197 3.614l14.815-1.108a1.43 1.43 0 1 0-.213-2.851l-14.815 1.107a1.057 1.057 0 0 1-1.133-.975l-.018-.248a1.43 1.43 0 0 0-1.533-1.319z" fill="#E27903"/></g><defs><clipPath id="clip0"><path fill="#fff" d="M0 0h135v124H0z"/></clipPath></defs></svg>