<svg viewBox="0 0 135 124" fill="none" xmlns="http://www.w3.org/2000/svg"><g clip-path="url(#clip0)"><path d="M11 28c0-9.389 7.611-17 17-17h79c9.389 0 17 7.611 17 17v79c0 9.389-7.611 17-17 17H28c-9.389 0-17-7.611-17-17V28z" fill="#B2B2B2"/><path d="M65.918 42.283c.806-11.566 10.835-20.29 22.401-19.484l24.164 1.683c11.566.806 20.289 10.835 19.484 22.401-.806 11.566-10.835 20.29-22.401 19.483l-24.164-1.683c-11.566-.805-20.29-10.834-19.484-22.4z" fill="#959595"/><path d="M131.582 49.695c-2.092 10.134-11.407 17.41-22.015 16.672l-24.164-1.683c-10.608-.74-18.825-9.237-19.492-19.563l65.671 4.574z" fill="#D8D8D8"/><path d="M75.074 45.76l4.43.308a5.454 5.454 0 0 0 5.82-5.062l.416-5.971 27.6 1.922-.416 5.972a5.453 5.453 0 0 0 5.061 5.82l4.936.343a20.19 20.19 0 0 1 1.397 8.936l-.692 9.933c-.419 6.012-5.632 10.546-11.644 10.127l-30.095-2.096c-6.012-.419-10.546-5.632-10.127-11.644l.691-9.932a20.176 20.176 0 0 1 2.623-8.656z" fill="#D1D1D1"/><path d="M111.356 11.814c-.388 5.568-5.216 9.767-10.785 9.38-5.568-.389-9.767-5.217-9.38-10.785.389-5.568 5.217-9.767 10.785-9.38 5.568.388 9.767 5.217 9.38 10.785z" fill="#959595"/><path d="M87.157 47.002a5.421 5.421 0 1 1 10.817.753l-.233 3.337a5.421 5.421 0 1 1-10.816-.753l.232-3.337zm23.625 1.645a5.422 5.422 0 0 0-10.817-.753l-.232 3.337a5.421 5.421 0 0 0 10.816.753l.233-3.337z" fill="#fff"/><path d="M91.894 47.394a1.779 1.779 0 0 0 1.852-2.197 2.442 2.442 0 0 1 2.726 2.594l-.213 3.058a2.442 2.442 0 0 1-4.871-.34l.213-3.057c.002-.034.005-.068.009-.101.092.021.187.036.284.043zm9.848.686a1.779 1.779 0 0 0 1.852-2.197 2.441 2.441 0 0 1 2.726 2.594l-.213 3.057a2.44 2.44 0 1 1-4.871-.339l.213-3.057.009-.102c.092.022.187.036.284.043z" fill="#959595"/><path fill-rule="evenodd" clip-rule="evenodd" d="M80.64 49.153a.584.584 0 0 1 .787-.255l3.77 1.922a.584.584 0 0 1-.057 1.067l-4.011 1.526a.584.584 0 1 1-.416-1.092l2.78-1.058-2.597-1.324a.584.584 0 0 1-.255-.786zm36.236 2.523a.584.584 0 0 0-.743-.361l-4.001 1.38a.584.584 0 0 0-.091 1.065l3.761 2.068a.585.585 0 0 0 .563-1.024l-2.607-1.433 2.756-.952a.583.583 0 0 0 .362-.742zm-14.814 19.766a.585.585 0 0 1-.289.774c-3.953 1.805-7.614.344-8.988-.642a.584.584 0 1 1 .682-.95c1.137.817 4.352 2.113 7.82.53a.585.585 0 0 1 .775.288z" fill="silver"/><path d="M86.782 40.846l25.164 1.752-.591 8.482-25.163-1.753.59-8.481z" fill="#D1D1D1"/><path fill-rule="evenodd" clip-rule="evenodd" d="M98.509 69.534c-.84-.565-1.756-.326-2.055-.165a.974.974 0 1 1-.925-1.714c.715-.386 2.444-.829 4.066.262a.974.974 0 0 1-1.086 1.617zM83.985 48.519a1.753 1.753 0 0 1 1.87-1.627l26.232 1.827a1.752 1.752 0 1 1-.243 3.498l-26.232-1.828a1.753 1.753 0 0 1-1.627-1.87z" fill="#959595"/><path d="M98.774 50.645c.118.008 1.047 1.74 1.99 3.554.938 1.805-.472 3.925-2.501 3.784-2.03-.141-3.132-2.436-1.953-4.094 1.185-1.667 2.346-3.252 2.464-3.244z" fill="#959595"/><path d="M125.518 93.627c3.196 8.823-1.365 18.567-10.189 21.763-8.823 3.196-18.567-1.365-21.763-10.189-3.196-8.823 1.365-18.567 10.189-21.763 8.823-3.196 18.567 1.365 21.763 10.189z" fill="#D1D1D1"/><path d="M101.935 90.47a2.047 2.047 0 0 1 2.374-1.658l13.831 2.46a2.048 2.048 0 0 1 1.657 2.375l-2.841 15.973a2.048 2.048 0 0 1-2.375 1.657l-13.83-2.46a2.048 2.048 0 0 1-1.658-2.375l2.842-15.973z" fill="#BFBFBF"/><path fill="#D8D8D8" d="M103.72 91.477l14.051 2.5-3.08 17.32-14.052-2.5z"/><path fill="#979797" d="M101.094 106.24l14.051 2.5-.455 2.558-14.051-2.5z"/><rect x="100.128" y="95.964" width="19.776" height="3.664" rx="1.832" transform="rotate(10.087 100.128 95.964)" fill="#D8D8D8"/><path fill="#979797" d="M101.816 91.139l17.862 3.178-.455 2.558-17.862-3.178zm7.681 8.616c.041.008.3.645.56 1.311a.909.909 0 0 1-1.01 1.223.909.909 0 0 1-.527-1.497c.474-.535.936-1.044.977-1.037z"/><rect x="107.268" y="96.613" width="1.844" height="3.018" rx=".922" transform="rotate(10.087 107.268 96.613)" fill="#979797"/><rect x="110.857" y="97.251" width="1.844" height="3.018" rx=".922" transform="rotate(10.087 110.857 97.251)" fill="#979797"/><path d="M97.029 103.624l4.391.781-.781 4.392a4.46 4.46 0 0 1-3.61-5.173zm22.835 4.062l-4.392-.781-.781 4.392a4.46 4.46 0 0 0 5.173-3.611z" fill="#BFBFBF"/><circle cx="111.113" cy="90.663" r="3.913" transform="rotate(10.087 111.113 90.663)" fill="#BFBFBF"/><path fill-rule="evenodd" clip-rule="evenodd" d="M106.319 102.061a.578.578 0 0 1 .75.328 2.23 2.23 0 0 0 1.71 1.398 2.231 2.231 0 0 0 2.087-.722.578.578 0 1 1 .867.768 3.39 3.39 0 0 1-3.157 1.095 3.392 3.392 0 0 1-2.586-2.116.58.58 0 0 1 .329-.751z" fill="#979797"/><path d="M86.276 113.433l-29.766 7.314a1.48 1.48 0 0 1-1.79-1.084L44.706 78.9a1.48 1.48 0 0 1 1.084-1.79l29.765-7.314a1.48 1.48 0 0 1 1.79 1.084l10.016 40.764a1.479 1.479 0 0 1-1.084 1.789z" fill="#979797"/><path d="M88.142 112.971l-29.765 7.314a1.48 1.48 0 0 1-1.79-1.084L46.571 78.437a1.48 1.48 0 0 1 1.084-1.79l29.766-7.313a1.48 1.48 0 0 1 1.79 1.084l10.015 40.764a1.479 1.479 0 0 1-1.084 1.789z" fill="#BFBFBF"/><path d="M49.192 78.556a.296.296 0 0 0-.217.358l7.98 32.481.484 1.965a3.56 3.56 0 0 0 4.293 2.6l24.882-6.114-9.31-37.892a.296.296 0 0 0-.358-.217l-27.754 6.82z" fill="#fff"/><path d="M61.869 68.084l-1.15.282.953 3.88 1.15-.283-.953-3.879z" fill="#C4C3C3"/><path d="M62.32 74.88a3.354 3.354 0 1 0-1.6-6.514 3.354 3.354 0 0 0 1.6 6.514zm-8.25.193l2.85-.7-.376-1.527-1.777.437a1.104 1.104 0 0 0-.809 1.336l.111.454z" fill="#C4C3C3"/><path d="M68.594 77.1l-10.518 2.584a1.48 1.48 0 0 1-1.79-1.084l-1.142-4.649a.74.74 0 0 1 .541-.895L67.64 70.12a.74.74 0 0 1 .895.542l1.142 4.649a1.48 1.48 0 0 1-1.084 1.79z" fill="#C4C3C3"/><path d="M69.6 76.853l-10.518 2.584a1.48 1.48 0 0 1-1.79-1.084l-1.142-4.649a.74.74 0 0 1 .542-.895l11.955-2.937a.74.74 0 0 1 .895.542l1.142 4.649a1.48 1.48 0 0 1-1.084 1.79z" fill="#D1D1D1"/><path d="M59.979 76.357a.925.925 0 1 0-.441-1.796.925.925 0 0 0 .44 1.796zm7.398-1.819a.925.925 0 1 0-.441-1.796.925.925 0 0 0 .441 1.796z" fill="#fff"/><path d="M63.47 74.598a3.354 3.354 0 1 0-1.601-6.514 3.354 3.354 0 0 0 1.6 6.514z" fill="#D1D1D1"/><path d="M64.437 110.121a.452.452 0 0 0-.331.547l.24.977a3.577 3.577 0 0 1-2.614 4.315l26.607-6.537a3.101 3.101 0 0 0 2.265-3.741l-.353-1.438a.451.451 0 0 0-.548-.331l-25.266 6.208z" fill="#D8D8D8"/><path stroke="#B2B2B2" stroke-width="3.316" d="M60.097 88.313l13.404-3.294 3.294 13.405-13.404 3.293z"/><path d="M60.79 89.51l7.56 4.582 7.628-12.598" stroke="#959595" stroke-width="3.316"/><path d="M39.178 86.076c6.646 7.198 6.198 18.422-1 25.068-7.199 6.647-18.423 6.199-25.07-.999-6.646-7.199-6.198-18.423 1-25.07 7.2-6.646 18.423-6.198 25.07 1z" fill="#D8D8D8"/><path d="M15.248 92.854a2.413 2.413 0 0 1 1.823-2.885l13.77-3.107a2.413 2.413 0 0 1 2.884 1.822l3.608 15.987a2.413 2.413 0 0 1-1.823 2.885l-13.77 3.107a2.414 2.414 0 0 1-2.885-1.823l-3.607-15.986z" fill="#BFBFBF"/><path fill="#D8D8D8" d="M17.315 92.833l14.536-3.28 4.042 17.917-14.535 3.28z"/><path fill="#979797" d="M20.76 108.104l14.536-3.28.596 2.646-14.535 3.28z"/><rect x="15.671" y="98.605" width="20.648" height="3.826" rx="1.913" transform="rotate(-12.716 15.671 98.605)" fill="#D8D8D8"/><path fill="#979797" d="M15.345 93.277l18.477-4.17.597 2.646-18.477 4.17zm10.878 5.186c.043-.01.55.499 1.07 1.035a.949.949 0 0 1-.478 1.586.95.95 0 0 1-1.113-1.228c.24-.707.48-1.383.521-1.393z"/><rect x="22.807" y="96.34" width="1.925" height="3.151" rx=".962" transform="rotate(-12.716 22.807 96.34)" fill="#979797"/><rect x="26.52" y="95.502" width="1.925" height="3.151" rx=".962" transform="rotate(-12.716 26.52 95.502)" fill="#979797"/><path d="M15.79 107.231l4.543-1.025 1.025 4.543a4.657 4.657 0 0 1-5.568-3.518zm23.622-5.33l-4.543 1.025 1.025 4.543a4.657 4.657 0 0 0 3.518-5.568z" fill="#BFBFBF"/><circle cx="24.1" cy="89.059" r="4.085" transform="rotate(-12.716 24.1 89.059)" fill="#BFBFBF"/><path fill-rule="evenodd" clip-rule="evenodd" d="M24.098 101.968a.604.604 0 0 1 .855.012 2.328 2.328 0 0 0 2.211.653 2.329 2.329 0 0 0 1.716-1.539.606.606 0 0 1 1.146.388 3.537 3.537 0 0 1-2.595 2.331 3.539 3.539 0 0 1-3.345-.99.604.604 0 0 1 .012-.855z" fill="#979797"/><path d="M6.175 22.273h.001a7.602 7.602 0 0 1 6.613-8.327l35.535-4.468a7.602 7.602 0 0 1 8.469 6.431h.001l4.283 35.424a2.63 2.63 0 0 0 2.938 2.282l5.124-.644a1.096 1.096 0 0 1 1.225.95c.738 5.875-3.426 11.237-9.3 11.976l-46.989 5.907C8.2 72.543 2.838 68.38 2.1 62.504c-.076-.6.35-1.149.95-1.224l5.125-.645a2.63 2.63 0 0 0 2.282-2.938L6.175 22.273z" fill="#BFBFBF"/><path d="M10.02 23.464l43.006-5.407 5.396 42.913-43.006 5.407-5.396-42.913z" fill="#D8D8D8"/><path d="M10.395 43.01A4.783 4.783 0 1 0 9.2 33.52a4.783 4.783 0 0 0 1.194 9.492zm47.107-5.922a4.783 4.783 0 1 0-1.193-9.491 4.783 4.783 0 0 0 1.193 9.491z" fill="#D8D8D8"/><path d="M13.402 67.408c-.09-.72.42-1.379 1.14-1.47l44.616-5.608c.72-.09 1.378.42 1.469 1.14l.555 4.422c.091.72-.42 1.378-1.14 1.469L15.427 72.97c-.72.09-1.379-.42-1.47-1.141l-.555-4.421z" fill="#979797"/><path d="M7.506 34.068a4.783 4.783 0 0 1 6.241 1.487 5.331 5.331 0 0 0 1.375-4.29l-.835-6.646-7.845.986 1.064 8.463zM52.417 30.7a4.783 4.783 0 0 1 5.67-2.996l-1.063-8.458-7.845.986.835 6.645a5.331 5.331 0 0 0 2.403 3.823z" fill="#BFBFBF"/><path d="M4.51 21.744c-.09-.72.42-1.378 1.141-1.469l50.817-6.388c.72-.091 1.378.42 1.469 1.14l.453 3.601c.09.72-.42 1.379-1.141 1.47L6.432 26.485c-.72.09-1.378-.42-1.469-1.14l-.453-3.602z" fill="#979797"/><path d="M33.367 21.882c5.817-.731 9.94-6.04 9.209-11.857-.732-5.817-6.04-9.94-11.857-9.208a10.61 10.61 0 0 0-8.336 6.126l-2.266-1.94c-.623-.535-1.586-.372-1.873.397a9.22 9.22 0 0 0-.505 4.381 9.256 9.256 0 0 0 5.35 7.274 10.617 10.617 0 0 0 10.278 4.827z" fill="#BFBFBF"/><path d="M34.593 64.15a.947.947 0 0 1 .822-.835l2.87-.361a.947.947 0 0 1 1.004.605l2.872 7.61a.947.947 0 0 1-.767 1.274l-6.642.835a.947.947 0 0 1-1.06-1.044l.9-8.084z" fill="#fff"/><path d="M18.694 25.543c.87-1.66 2.613-2.956 4.781-3.339a7.051 7.051 0 0 1 3.376.213m17.516 3.961c-1.172-1.462-3.13-2.403-5.331-2.364a7.05 7.05 0 0 0-3.273.855" stroke="#BFBFBF" stroke-width="4.325" stroke-linecap="round" stroke-linejoin="round"/><path d="M32.89 32.103c.113-.014 1.314 1.45 2.543 2.988 1.223 1.532.286 3.798-1.66 4.043-1.944.245-3.413-1.72-2.607-3.506.81-1.796 1.61-3.51 1.724-3.525z" fill="#BFBFBF"/><path d="M22.268 33.86a4.613 4.613 0 0 0 4.165 1.675 4.613 4.613 0 0 0 3.62-2.654m5.893-.741a4.614 4.614 0 0 0 4.165 1.675 4.614 4.614 0 0 0 3.62-2.654" stroke="#BFBFBF" stroke-width="1.73" stroke-linecap="round" stroke-linejoin="round"/><path fill-rule="evenodd" clip-rule="evenodd" d="M48.674 35.428a.877.877 0 0 1-.074 1.238C37.25 46.73 24 43.354 18.769 40.396a.877.877 0 1 1 .863-1.526c4.837 2.735 17.21 5.88 27.804-3.516a.877.877 0 0 1 1.238.074zm-7.117 7.619a.66.66 0 0 1 .22.904c-2.775 4.546-7.508 5.003-9.566 4.653a.658.658 0 0 1 .22-1.296c1.712.29 5.815-.096 8.223-4.042a.658.658 0 0 1 .903-.219z" fill="#BFBFBF"/><path d="M125.746 94.253l-31.928 11.566a18.12 18.12 0 0 1-.237-.618c-3.196-8.823 1.365-18.567 10.189-21.763 8.823-3.196 18.566 1.366 21.762 10.189.076.208.147.417.214.626zm-86.11-7.661l-26.05 24.051a20.66 20.66 0 0 1-.477-.498c-6.647-7.199-6.2-18.423 1-25.07 7.198-6.646 18.422-6.198 25.068 1 .157.17.31.343.459.517z" fill="#fff" fill-opacity=".15"/></g><defs><clipPath id="clip0"><path fill="#fff" d="M0 0h135v124H0z"/></clipPath></defs></svg>