<svg id="Layer_3" data-name="Layer 3" xmlns="http://www.w3.org/2000/svg" viewBox="0 0 135 124"><defs><style>.cls-2{fill:#d1d1d1}.cls-3{fill:#b2b2b2}.cls-4{fill:#bfbfbf}</style></defs><rect x="11" y="11" width="113" height="113" rx="17" ry="17" fill="#e5e5e5"/><path class="cls-2" d="M33.48.54A4.55 4.55 0 0 1 36 3.73a4.66 4.66 0 0 1-.05 2.1 5.54 5.54 0 0 1-.29.8 4.72 4.72 0 0 1-.43.72 4.49 4.49 0 0 1-1.6 1.37 4.57 4.57 0 0 1-6.52-5.22 4.69 4.69 0 0 1 .29-.79 4.82 4.82 0 0 1 .43-.71A4.57 4.57 0 0 1 33.48.54z"/><path class="cls-2" d="M79.51 16.43l-5.82 12.26-2.69 5.7-20.81-4.78-.83-1.39c-.88-1.46-1.79-2.89-2.76-4.3a90.65 90.65 0 0 0-17.31-19l1-2.12A91.26 91.26 0 0 0 61 3.58l1.6-.23z"/><circle class="cls-3" cx="64.71" cy="20.57" r="5.16"/><path class="cls-3" d="M27.48 2l35.17 16.67-.72 1.51L26.76 3.5a3.88 3.88 0 0 1 .29-.78 4 4 0 0 1 .43-.72z"/><path class="cls-4" d="M70.17 21.53h22.42a1.6 1.6 0 0 1 1.6 1.6v12H68.57v-12a1.6 1.6 0 0 1 1.6-1.6z" transform="rotate(-64.62 81.386 28.315)"/><rect class="cls-2" x="74.36" y="30.35" width="29.06" height="3.06" rx="1.53" ry="1.53" transform="rotate(-64.62 88.894 31.88)"/><path class="cls-4" d="M135 39v26.63a4.73 4.73 0 0 1-6.74 4.28l-40.37-19a5.69 5.69 0 0 1-2.71-7.59L95.37 21.8a5.69 5.69 0 0 1 7.63-2.71l27.79 13.18A7.44 7.44 0 0 1 135 39z"/><path class="cls-3" transform="rotate(-64.62 99.176 36.92)" d="M81.58 34.91h35.18v4.01H81.58z"/><path class="cls-3" transform="rotate(-64.62 105.97 40.144)" d="M88.38 38.14h35.18v4.01H88.38z"/><path class="cls-3" transform="rotate(-64.62 112.772 43.372)" d="M95.18 41.37h35.18v4.01H95.18z"/><path class="cls-3" transform="rotate(-64.62 119.574 46.6)" d="M101.98 44.59h35.18v4.01h-35.18z"/><path class="cls-4" d="M73.69 28.69L71 34.39l-20.81-4.78-.83-1.39c-.88-1.46-1.79-2.89-2.76-4.3z"/><path class="cls-3" d="M77.6 109.61a26.84 26.84 0 0 1-4.58-.4 30 30 0 0 1-9.64-3.39 57.17 57.17 0 0 1-6.24-4.28l-1.06-.8c-3.48 2.75-7.83 5.44-12.9 6.28-3.92.65-7.5-.06-10.06-2-3.32-2.51-4.49-7.21-2.61-10.5 1.72-3 5.49-4.52 10.35-4.18a29.76 29.76 0 0 1 12.6 3.8c.84.48 1.66 1 2.45 1.54 6.89-6 18.39-18.37 18.2-34.17 0-3.22-.66-7.76-3.42-11.07-4.18-5-11.9-5.48-17.29-3.77-4.36 1.39-7.75 3.93-9.56 7.15-1.94 3.48-1.75 8 .46 10.65a7.05 7.05 0 0 0 5 2.44 5.58 5.58 0 0 0 4.26-1.39 4.12 4.12 0 0 0 1.28-3.89 2.48 2.48 0 0 0-2.61-1.75 2 2 0 1 1-1-3.88 6.41 6.41 0 0 1 7.4 4.49 8 8 0 0 1-2.36 7.94A9.51 9.51 0 0 1 49 70.91 11.12 11.12 0 0 1 41.21 67c-3.27-4-3.62-10.2-.86-15.14 2.3-4.12 6.51-7.31 11.84-9 6.85-2.18 16.18-1.47 21.58 5 2.77 3.33 4.27 8 4.34 13.59.2 16.87-11.42 30-18.89 36.62l.33.25a51.08 51.08 0 0 0 5.79 4 25.85 25.85 0 0 0 8.36 2.94c4.73.82 9.12.18 12.37-1.8 3.62-2.2 5.75-6.27 5.17-9.9A7.41 7.41 0 0 0 88 88.72a5.81 5.81 0 0 0-4.56-1 2 2 0 0 1-.92-3.89 9.74 9.74 0 0 1 7.71 1.55A11.45 11.45 0 0 1 95.19 93c.82 5.19-2.07 10.92-7 13.94a20.23 20.23 0 0 1-10.59 2.67zm-37.94-15.3c-1.69 0-4.58.3-5.68 2.21-1 1.71 0 4.17 1.55 5.31 2.27 1.72 5.36 1.52 7 1.25a24 24 0 0 0 10.12-4.75c-.38-.24-.77-.48-1.17-.7a25.66 25.66 0 0 0-10.89-3.29c-.23-.02-.59-.03-.93-.03z"/><circle class="cls-3" cx="105.57" cy="106.16" r="4.25"/></svg>