<svg viewBox="0 0 135 124" fill="none" xmlns="http://www.w3.org/2000/svg"><path d="M124 28v79a17.003 17.003 0 0 1-10.52 15.72A33.5 33.5 0 0 1 107 124H28a33.152 33.152 0 0 1-7.37-1.68 17.062 17.062 0 0 1-7.9-7.84c-.243-.485-.46-.982-.65-1.49-.19-.49-.35-.991-.48-1.5a17.008 17.008 0 0 1-.48-2.5c-.08-.664-.12-1.331-.12-2V28a17 17 0 0 1 17-17h79a17.001 17.001 0 0 1 17 17z" fill="#FB3CAF"/><path d="M124 72.62h-18.51v18.51H124V72.62z" fill="#825035"/><path d="M124 79.5V107a17.003 17.003 0 0 1-10.52 15.72A33.5 33.5 0 0 1 107 124H28a33.151 33.151 0 0 1-7.37-1.68 16.997 16.997 0 0 1-8.55-9.32 16.58 16.58 0 0 1-1-4V79.5H124z" fill="#61361E"/><path d="M19.06 95.81s7.87 26.72 8.41 26.74c.54.02 33-6.89 33-6.89L19.06 95.81z" fill="#E3A15F"/><path d="M29.77 104.36a69.173 69.173 0 0 0 27.335 5.871A69.18 69.18 0 0 0 84.53 104.8l1-.44H29.77zM48.93 18.36L40 10.7 29.08 1.37a5.3 5.3 0 0 0-8.44 2.26c-2.64 7.43-5.39 20.57-1 37.49L44 37.74l4.93-19.38zM97.9 39.3c-.13.6-.29 1.2-.45 1.81l-1.63-.22-5.16-.72-17.53-2.43-5-19.38L88 1.37a5.28 5.28 0 0 1 8.36 2.09.87.87 0 0 1 .07.17c2.57 7.16 5.22 19.63 1.47 35.67z" fill="#E3A15F"/><path d="M97.9 39.3l-2.08 1.59-2.26 1.72-2.9-2.44-2.18-1.83L72.83 25.2c.41-.13 10-9 18.15-16.69l5.4-5c.03.054.053.11.07.17 2.55 7.11 5.2 19.58 1.45 35.62z" fill="#FECD92"/><path d="M90.39 36.87l-1.91 1.47L72.83 25.2c.41-.13 10-9 18.15-16.69a65.493 65.493 0 0 1-.59 28.36z" fill="#938579"/><path d="M19.19 39.3l2.09 1.59 2.25 1.72 2.91-2.44 17.83-15C43.76 25 29.34 11.55 20.71 3.46a.87.87 0 0 0-.07.17c-2.54 7.16-5.19 19.63-1.45 35.67z" fill="#FECD92"/><path d="M26.7 36.87l1.92 1.47L44.27 25.2c-.41-.13-10-9-18.15-16.69a65.46 65.46 0 0 0 .58 28.36z" fill="#938579"/><path d="M108.88 74.59v1c.002 2.856-.368 5.7-1.1 8.46a1.537 1.537 0 0 0-.07.23 29.99 29.99 0 0 1-5.07 10.25c-.045.073-.098.14-.16.2a25.695 25.695 0 0 1-8 6.86c-.073.049-.15.092-.23.13a22.595 22.595 0 0 1-8.71 2.6c-.665.069-1.332.102-2 .1H31.8a19.647 19.647 0 0 1-2-.1 22.497 22.497 0 0 1-8.71-2.62l-.23-.12a25.904 25.904 0 0 1-8-6.87.721.721 0 0 1-.17-.22 29.83 29.83 0 0 1-5-10.24c0-.09-.05-.17-.07-.24a32.58 32.58 0 0 1-1.09-8.41v-1c0-1.64.06-3.28.18-4.88 0-.49.07-1 .12-1.44a63.65 63.65 0 0 1 6.5-22.76 59.531 59.531 0 0 1 5.33-8.6C28 24.28 42 16.28 57.68 16.28c14.14 0 26.94 6.53 36.2 17.08 1 1.14 2 2.32 2.86 3.55a58.317 58.317 0 0 1 5.61 9.18 63.6 63.6 0 0 1 6.24 22.24c0 .46.08.92.11 1.39.12 1.6.18 3.28.18 4.87z" fill="#CB791D"/><path d="M113.13 86.15a3.595 3.595 0 0 1-2.903.458 3.604 3.604 0 0 1-2.277-1.858l2.32 8.75a4.561 4.561 0 0 1-2.6 5.51 3.831 3.831 0 0 1-4.85-3l-.23-.87-.57 7.38a4.076 4.076 0 0 1-2.626 3.738 4.078 4.078 0 0 1-1.584.262 4.203 4.203 0 0 1-3.54-4.1l-1.21 4.19a3.8 3.8 0 0 1-4.9 2.83 4.548 4.548 0 0 1-2.59-5.15c-.664.069-1.332.102-2 .1H62V55.66c0-13.38 9.52-24.22 21.27-24.22A19.17 19.17 0 0 1 93 34.07a20.268 20.268 0 0 1 3.79 2.84 58.317 58.317 0 0 1 5.61 9.18l11 16.85a4.84 4.84 0 0 1-.66 6.21 3.546 3.546 0 0 1-3.21.84l5.12 10.12a4.772 4.772 0 0 1-1.52 6.04zM53.35 55.66v48.8l-22 5.06-1.61-5.15a4.512 4.512 0 0 1-2.58 5.14 3.805 3.805 0 0 1-3.082-.321 3.803 3.803 0 0 1-1.818-2.509l-1.2-4.19a4.22 4.22 0 0 1-3.55 4.1 4.078 4.078 0 0 1-2.944-1.117 4.066 4.066 0 0 1-1.266-2.883l-.57-7.39-.24.86a3.831 3.831 0 0 1-4.85 3 4.55 4.55 0 0 1-2.57-5.56l2.32-8.75a3.59 3.59 0 0 1-5.18 1.39 4.74 4.74 0 0 1-1.42-6L5.92 70a3.51 3.51 0 0 1-3.21-.84A4.85 4.85 0 0 1 2 62.94l11.3-17.43a58.877 58.877 0 0 1 5.33-8.59 19.67 19.67 0 0 1 13.46-5.46 19.998 19.998 0 0 1 15 7.08 24.869 24.869 0 0 1 4.1 6.57 27 27 0 0 1 2.16 10.55z" fill="#E3A15F"/><path d="M53.35 55.66v8.46l-3.6 6-2.32-2.81 1.5-21.13 2.29-1.06a27.002 27.002 0 0 1 2.13 10.54zM62.07 55.66v8.46l3.6 6L68 67.28l-1.5-21.13-2.28-1.06a26.78 26.78 0 0 0-2.15 10.57z" fill="#FECD92"/><path d="M69 75.47a11.28 11.28 0 1 1-22.56 0c0-3.14 2.87-8.29 5.71-12.63a6.66 6.66 0 0 1 11.14 0c2.8 4.34 5.71 9.49 5.71 12.63z" fill="#FECD92"/><path d="M38.66 69l2.06 3.15a12.75 12.75 0 0 0 12-12.74c.02-.49-14.06 9.59-14.06 9.59z" fill="#FECD92"/><path d="M52.31 50.2c0-6.865-5.565-12.43-12.43-12.43-6.865 0-12.43 5.565-12.43 12.43v9.54c0 6.865 5.565 12.43 12.43 12.43 6.865 0 12.43-5.565 12.43-12.43V50.2z" fill="#FECD92"/><path d="M51.95 54.62c0-5.766-4.674-10.44-10.44-10.44-5.766 0-10.44 4.674-10.44 10.44v4.42c0 5.766 4.674 10.44 10.44 10.44 5.766 0 10.44-4.674 10.44-10.44v-4.42z" fill="#fff"/><path d="M38.2 72c.59.088 1.184.132 1.78.13h.74a12.76 12.76 0 0 0 11.66-9.73c-1.66.87-8.77 5.82-14.18 9.6z" fill="#FECD92"/><path d="M48.08 54.5c0-2.32-1.878-4.2-4.195-4.2a4.198 4.198 0 0 0-4.195 4.2v5.31c0 2.32 1.878 4.2 4.195 4.2a4.197 4.197 0 0 0 4.195-4.2V54.5z" fill="#61361E"/><path d="M63.13 59.75c0 6.865 5.565 12.43 12.43 12.43 6.865 0 12.43-5.565 12.43-12.43v-9.54c0-6.865-5.565-12.43-12.43-12.43-6.865 0-12.43 5.565-12.43 12.43v9.54z" fill="#FECD92"/><path d="M84.38 54.62c0-5.766-4.674-10.44-10.44-10.44-5.766 0-10.44 4.674-10.44 10.44v4.42c0 5.766 4.674 10.44 10.44 10.44 5.766 0 10.44-4.674 10.44-10.44v-4.42z" fill="#fff"/><path d="M77.24 72c-.589.089-1.184.132-1.78.13h-.74a12.76 12.76 0 0 1-11.66-9.73c1.66.87 8.77 5.82 14.18 9.6z" fill="#FECD92"/><path d="M67.37 59.8c0 2.32 1.878 4.2 4.195 4.2a4.198 4.198 0 0 0 4.195-4.2v-5.31c0-2.32-1.878-4.2-4.195-4.2a4.198 4.198 0 0 0-4.195 4.2v5.31z" fill="#61361E"/><path d="M75.64 116.56H39.58l6.81-31.89h22.44l6.81 31.89z" fill="#CB791D"/><path d="M57.67 100.69a11.288 11.288 0 0 1-11.14-9.49 1.54 1.54 0 0 1 1.52-1.79h19.24a1.54 1.54 0 0 1 1.52 1.79 11.29 11.29 0 0 1-11.14 9.49z" fill="#FECD92"/><path d="M47.43 76.26h20.44V86.7a4.151 4.151 0 0 1-4.15 4.15H51.58a4.151 4.151 0 0 1-4.15-4.15V76.26z" fill="#62361B"/><path d="M63.72 91.94H51.58a5.24 5.24 0 0 1-5.23-5.24V76.26a1.08 1.08 0 0 1 1.08-1.08h20.44A1.092 1.092 0 0 1 69 76.26V86.7a5.241 5.241 0 0 1-5.28 5.24zM48.51 77.35v9.35a3.08 3.08 0 0 0 3.07 3.07h12.14a3.08 3.08 0 0 0 3.07-3.07v-9.35H48.51z" fill="#62361B"/><path d="M57.71 70.58v5.33a5.1 5.1 0 1 0 10.2 0v-.62" fill="#FECD92"/><path d="M62.81 82.09a6.19 6.19 0 0 1-6.18-6.18v-5.33a1.08 1.08 0 0 1 2.16 0v5.33a4 4 0 1 0 8 0v-.62a1.08 1.08 0 0 1 2.16 0v.62a6.19 6.19 0 0 1-6.14 6.18z" fill="#62361B"/><path d="M57.63 70.58v5.33a5.1 5.1 0 0 1-10.2 0v-.62" fill="#FECD92"/><path d="M52.53 82.09a6.19 6.19 0 0 1-6.18-6.18v-.62a1.08 1.08 0 0 1 2.16 0v.62a4 4 0 1 0 8 0v-5.33a1.08 1.08 0 1 1 2.16 0v5.33a6.19 6.19 0 0 1-6.14 6.18z" fill="#62361B"/><path d="M63 71.75l-1 .74a7.25 7.25 0 0 1-8.71 0l-1-.74a2.78 2.78 0 0 1-1.11-2.22v-1.67a2.78 2.78 0 0 1 2.78-2.78h7.32a2.77 2.77 0 0 1 2.77 2.78v1.67A2.8 2.8 0 0 1 63 71.75z" fill="#62361B"/><path d="M124 80.89V107a17.003 17.003 0 0 1-10.52 15.72A33.5 33.5 0 0 1 107 124H28a33.151 33.151 0 0 1-7.37-1.68 16.997 16.997 0 0 1-8.55-9.32C92.07 113 71.77 80.89 124 80.89z" fill="#825035"/><path d="M124 79.39v3c-22.77 0-31.23 6.09-41 13.14-12.21 8.78-26 18.71-70.23 19-.243-.485-.46-.982-.65-1.49-.19-.49-.35-.991-.48-1.5 44.14-.08 57.67-9.8 69.61-18.4C91 86.05 100.27 79.39 124 79.39z" fill="#EBE3E3"/><path d="M55.44 88.42a3.76 3.76 0 0 1 3.76 3.76v8.94h-.6a6.93 6.93 0 0 1-6.93-6.93v-2a3.76 3.76 0 0 1 3.77-3.77z" fill="#FB3CAF"/><path d="M62.34 88.42a3.76 3.76 0 0 1 3.76 3.76v2a6.93 6.93 0 0 1-6.93 6.93h-.6v-8.93a3.76 3.76 0 0 1 3.76-3.76h.01z" fill="#FB3CAF"/><path d="M123.53 100.85h-6.39a3.546 3.546 0 0 1-2.717-1.272 3.551 3.551 0 0 1-.773-2.898L115.9 84h8.87L127 96.68a3.56 3.56 0 0 1-.767 2.89 3.544 3.544 0 0 1-2.703 1.28z" fill="#AFAFAF"/><path d="M121.28 92.8h-1.86a2.49 2.49 0 0 0 0 4.98h1.86a2.49 2.49 0 0 0 0-4.98z" fill="#825035"/><path d="M123.43 77.83h-6.19a3.65 3.65 0 0 0-3.65 3.65v1.14a3.65 3.65 0 0 0 3.65 3.65h6.19a3.65 3.65 0 0 0 3.65-3.65v-1.14a3.65 3.65 0 0 0-3.65-3.65z" fill="#AFAFAF"/><path d="M120.58 82.06h-.41a1.8 1.8 0 0 0-1.8 1.8v3.7a1.8 1.8 0 0 0 1.8 1.8h.41a1.8 1.8 0 0 0 1.8-1.8v-3.7a1.8 1.8 0 0 0-1.8-1.8z" fill="#EBE3E3"/></svg>