<svg viewBox="0 0 136 125" fill="none" xmlns="http://www.w3.org/2000/svg"><g clip-path="url(#clip0_302_3193)"><path d="M107.859 11.918h-79c-9.389 0-17 7.61-17 17v79c0 9.388 7.611 17 17 17h79c9.389 0 17-7.612 17-17v-79c0-9.39-7.611-17-17-17z" fill="#BFBFBF"/><path fill-rule="evenodd" clip-rule="evenodd" d="M115.169 93.387l4.595 2.342a1.45 1.45 0 0 1 .393 2.29l-12.451 13.092-32.487-5.408 38.85-12.405a1.452 1.452 0 0 1 1.1.089z" fill="#A2A2A2"/><path d="M27.507 74.654c3.514-2.482 8.238-2.987 12.32-.906l73.206 37.3a1.384 1.384 0 1 1-.505 2.606c-13.801 1.292-27.747 1.417-41.836.376a27.37 27.37 0 0 1-10.417-2.91l-31.35-15.974a11.844 11.844 0 0 1-4.894-4.635 11.65 11.65 0 0 1-1.113-1.895l-3.808-8.158c-1.16-2.486-.096-5.447 2.377-6.614a4.923 4.923 0 0 1 4.114-.043l1.906.853z" fill="#fff"/><path fill-rule="evenodd" clip-rule="evenodd" d="M30.138 71.261l11.887 6.057c.235.12.433.301.572.525l2.021 3.246a1.176 1.176 0 0 1-1.532 1.67l-14.93-7.607a2.183 2.183 0 0 1 1.982-3.89z" fill="#BFBFBF"/><path fill-rule="evenodd" clip-rule="evenodd" d="M36.91 73.894l1.934.986-2.312 4.54-1.936-.987 2.313-4.539z" fill="#fff"/><path fill-rule="evenodd" clip-rule="evenodd" d="M65.877 89.425a2.534 2.534 0 0 1 1.107 3.408l-1.003 1.97a2.534 2.534 0 0 1-4.515-2.301l1.003-1.97a2.534 2.534 0 0 1 3.408-1.107zM72.326 92.726a2.534 2.534 0 0 1 1.108 3.408l-1.004 1.97a2.534 2.534 0 0 1-4.515-2.301l1.003-1.97a2.534 2.534 0 0 1 3.408-1.107z" fill="#BFBFBF"/><path d="M79.883 99.435a2.534 2.534 0 0 0-4.516-2.3l-1.003 1.969a2.535 2.535 0 0 0 4.515 2.3l1.004-1.969z" fill="#BFBFBF"/><path d="M40.818 94a2.904 2.904 0 0 0 3.902-1.278 2.903 2.903 0 0 0-1.259-3.909 2.903 2.903 0 0 0-3.901 1.28A2.903 2.903 0 0 0 40.818 94z" fill="#D1D1D1"/><path fill-rule="evenodd" clip-rule="evenodd" d="M47.056 88.705l7.297 4.064c.788.44 1.518.974 2.174 1.593l5.14 4.852a1.45 1.45 0 0 1 .31 1.686l-1.265 2.614a1.45 1.45 0 0 1-1.564.796l-6.861-1.244a10.903 10.903 0 0 1-3.015-1.021l-7.199-3.686a1.45 1.45 0 0 1-.63-1.948l3.615-7.097a1.45 1.45 0 0 1 1.998-.609z" fill="#A2A2A2"/><path fill-rule="evenodd" clip-rule="evenodd" d="M48.13 83.509a1.694 1.694 0 0 1 .56 2.409l-4.7 7.02a.715.715 0 0 1-.945.225.758.758 0 0 1-.331-.941l3.176-7.938a1.568 1.568 0 0 1 2.24-.775z" fill="#D1D1D1"/><path fill-rule="evenodd" clip-rule="evenodd" d="M38.198 101.128l.03.016a1.812 1.812 0 0 0 2.512-.875l3.072-7.035a.794.794 0 0 0-.35-1.016.854.854 0 0 0-1.084.231l-4.727 6.163a1.687 1.687 0 0 0 .547 2.516z" fill="#D1D1D1"/><path fill-rule="evenodd" clip-rule="evenodd" d="M56.952 96.84l19.05 11.419c.6.359.827 1.114.526 1.744-.297.62-1.03.894-1.66.621l-20.445-8.857a2.538 2.538 0 0 1-1.252-3.48l.215-.423a2.537 2.537 0 0 1 3.566-1.024zM102.999 105.748l16.615 8.799c.522.276.748.904.521 1.45a1.08 1.08 0 0 1-1.375.598l-17.657-6.586a2.344 2.344 0 0 1-1.322-3.15 2.329 2.329 0 0 1 3.218-1.111z" fill="#A2A2A2"/><path d="M34.333 27.737h10.369a3.19 3.19 0 0 1 3.19 3.19v3.59a3.19 3.19 0 0 1-3.19 3.19h-10.37a3.19 3.19 0 0 1-3.19-3.19v-3.59a3.19 3.19 0 0 1 3.19-3.19zm1.728 2.954a2.127 2.127 0 0 0-2.127 2.127v2.392c0 1.175.952 2.127 2.127 2.127h6.913A2.127 2.127 0 0 0 45.1 35.21v-2.392a2.127 2.127 0 0 0-2.127-2.127h-6.912z" fill="#959595"/><path d="M26.962 33.09h-3.323a.739.739 0 0 0-.739.74v3.138c0 .408.33.739.739.739h3.323c.408 0 .739-.331.739-.739V33.83a.739.739 0 0 0-.739-.738zM55.395 33.09h-3.323a.739.739 0 0 0-.739.74v3.138c0 .408.33.739.739.739h3.323c.408 0 .739-.331.739-.739V33.83a.739.739 0 0 0-.739-.738z" fill="#fff"/><path d="M57.98 34.753H21.054a3.693 3.693 0 0 0-3.693 3.692v22.156a3.693 3.693 0 0 0 3.693 3.693H57.98a3.693 3.693 0 0 0 3.693-3.693V38.445a3.693 3.693 0 0 0-3.693-3.692z" fill="#A2A2A2"/><path d="M31.277 34.753h-3.693v29.54h3.693v-29.54zM51.703 34.753H48.01v29.54h3.693v-29.54zM56.134 34.753h1.846a3.693 3.693 0 0 1 3.693 3.692v1.847a5.539 5.539 0 0 1-5.54-5.54zm5.539 24.002V60.6a3.693 3.693 0 0 1-3.693 3.693h-1.846a5.539 5.539 0 0 1 5.539-5.54zm-38.52-24.002a5.539 5.539 0 0 1-5.792 5.533v-1.84a3.693 3.693 0 0 1 3.693-3.693h2.099zm0 29.54h-2.1a3.693 3.693 0 0 1-3.692-3.692v-1.84a5.539 5.539 0 0 1 5.791 5.533z" fill="#959595"/><path d="M116.789 48.904a8.405 8.405 0 0 0-8.405-8.405H81.068a8.405 8.405 0 0 0-8.404 8.405v4.077a5.011 5.011 0 0 0 0 10.022v7.33a9.458 9.458 0 0 0 9.457 9.459h25.21a9.458 9.458 0 0 0 9.458-9.458v-7.331a5.011 5.011 0 0 0 0-10.022v-4.077z" fill="#B0B0B0"/><path d="M109.26 11.184a10.964 10.964 0 0 1 10.297 2.69l4.253 4.058c4.385 4.182 4.549 11.127.366 15.512l-3.628 3.803a10.965 10.965 0 0 1-10.188 3.168v2.62l-15.69-2.62-18.972 2.62v-2.291a10.929 10.929 0 0 1-6.793-3.34l-3.628-3.802c-4.183-4.385-4.02-11.33.366-15.513l4.252-4.057a10.96 10.96 0 0 1 9.79-2.807c.856-5.206 5.377-9.178 10.826-9.178h7.93c5.434 0 9.946 3.95 10.819 9.137zM96.115 62.29c-.527-1.003-1.337-2.064-1.389-2.064-.051 0-.862 1.06-1.389 2.065a1.892 1.892 0 0 0 .549 3.701h1.68a1.891 1.891 0 0 0 .55-3.701z" fill="#959595"/><path d="M87.103 31.75a8.49 8.49 0 0 0 4.233 6.648H70.037l2.602 14.584a5.362 5.362 0 0 1 .264.001L94.726 41.41l21.826 11.573a5.227 5.227 0 0 1 .254-.002l2.61-14.583H98.258a8.488 8.488 0 0 0 4.092-6.564l.204-2.389a8.499 8.499 0 0 0-7.8 3.757 8.5 8.5 0 0 0-7.856-3.84l.205 2.389zM96.379 57.909v.096a5.618 5.618 0 1 0 11.236 0v-.096H96.379zM81.964 57.909v.096c0 1.445.545 2.762 1.441 3.758 2.4-.196 4.717.278 6.482 1.368a5.62 5.62 0 0 0 3.313-5.126v-.096H81.964z" fill="#fff"/><path d="M96.164 53.409c0-.565.458-1.023 1.023-1.023h7.363a1.023 1.023 0 1 1 0 2.045h-7.363a1.023 1.023 0 0 1-1.023-1.022z" fill="#959595"/><path fill-rule="evenodd" clip-rule="evenodd" d="M84.282 49.197c4.13-1.775 7.912-.107 9.339.988a.993.993 0 0 1-1.21 1.576c-1.05-.806-4.072-2.146-7.345-.739a.993.993 0 1 1-.784-1.825z" fill="#959595"/><path d="M86.938 57.909v.096a2.487 2.487 0 1 0 4.974 0v-.096h-4.974zM97.67 57.909v.095a2.487 2.487 0 1 0 4.973 0v-.095H97.67zM78.214 68.86c-1.166.824-.6 2.461.783 2.812l10.132 2.574c1.383.35 2.661-.818 2.03-2.098a8.761 8.761 0 0 0-5.715-4.628 8.762 8.762 0 0 0-7.23 1.34z" fill="#959595"/><path d="M90.598 71.174a8.749 8.749 0 0 0-5.154-3.654 8.761 8.761 0 0 0-7.28 1.377l12.434 2.277z" fill="#fff"/></g><defs><clipPath id="clip0_302_3193"><path fill="#fff" transform="translate(.86 .917)" d="M0 0h135v124H0z"/></clipPath></defs></svg>