<svg viewBox="0 0 135 124" fill="none" xmlns="http://www.w3.org/2000/svg"><g clip-path="url(#clip0)"><path d="M11 27.871c0-9.388 7.611-17 17-17h79c9.389 0 17 7.612 17 17v79c0 9.389-7.611 17-17 17H28c-9.389 0-17-7.611-17-17v-79z" fill="#E5E5E5"/><path d="M65.032 38.136C62.804 19.924 75.762 3.355 93.973 1.127l.767-.093c18.211-2.228 34.78 10.73 37.008 28.94l.533 4.357c2.227 18.212-10.73 34.78-28.941 37.008l-.767.094c-18.211 2.228-34.78-10.73-37.008-28.94l-.533-4.357z" fill="#BFBFBF"/><path d="M103.706 62.503c-1.057.507-2.129.97-3.208 1.39-6.491 2.538-13.08 3.545-17.56 3.897a33.163 33.163 0 0 0 6.392 2.595c3.784-.636 8.099-1.68 12.393-3.358 8.304-3.246 16.719-8.948 20.883-18.87-3.62 7.253-10.466 12.734-18.9 14.346z" fill="#A9A8A8"/><path d="M125.208 32.985c1.794 14.664-8.639 28.005-23.303 29.8-14.665 1.793-28.006-8.64-29.8-23.305-1.794-14.664 8.64-28.005 23.304-29.8 14.664-1.793 28.006 8.64 29.799 23.305z" fill="#D8D8D8"/><path d="M90.89 28.027c4.095 1.561 6.067 3.677 6.778 5.81a6.033 6.033 0 0 1-1.397 6.175 23.497 23.497 0 0 0-15.389-3.423c-.007 0-.014.002-.02.003a6.047 6.047 0 0 1 2.313-8.19c2.636-1.506 6.118-.922 7.716-.375zM116.015 32.291a6.048 6.048 0 0 0-4.219-7.39c-2.922-.826-6.161.58-7.579 1.496-3.598 2.502-5.002 5.03-5.177 7.272a6.033 6.033 0 0 0 2.844 5.656 23.492 23.492 0 0 1 14.11-7.03l.021-.004z" fill="#fff"/><path fill-rule="evenodd" clip-rule="evenodd" d="M91.02 30.978a3.421 3.421 0 0 1 4.802-.588 6.704 6.704 0 0 1 1.15 9.412 3.421 3.421 0 0 1-5.47-4.107 3.421 3.421 0 0 1-.483-4.717zM109.081 26.311a3.42 3.42 0 0 1 4.802-.587 6.704 6.704 0 0 1 1.151 9.411 3.42 3.42 0 0 1-5.47-4.107 3.42 3.42 0 0 1-.483-4.717z" fill="#979797"/><path d="M102.879 51.257c-1.599 4.83-9.417 6.587-17.46 3.924-8.043-2.664-13.266-8.739-11.667-13.57 1.6-4.83 9.417-6.587 17.46-3.924 8.043 2.664 13.267 8.739 11.667 13.57z" fill="#D8D8D8"/><path d="M98.056 51.846c2.717 4.303 10.727 4.124 17.891-.4 7.164-4.523 10.769-11.678 8.053-15.981-2.717-4.303-10.727-4.124-17.891.4-7.164 4.524-10.77 11.679-8.053 15.981z" fill="#D8D8D8"/><path d="M98.865 37.923c.127-.016 1.467 1.628 2.838 3.358 1.365 1.72.306 4.257-1.874 4.523-2.18.267-3.82-1.94-2.91-3.938.914-2.01 1.819-3.928 1.946-3.943z" fill="#979797"/><path opacity=".5" fill-rule="evenodd" clip-rule="evenodd" d="M93.742 53.04a.797.797 0 0 1 .618.182l3.878 3.27a.797.797 0 1 1-1.027 1.219l-3.21-2.707-2.344 3.375a.797.797 0 1 1-1.308-.91l2.843-4.093a.797.797 0 0 1 .55-.335z" fill="#BFBFBF"/><path d="M102.709 53.013l-17.53 2.145-.454-3.713c-.498-4.075 3.616-7.15 7.383-5.519l7.841 3.396a4.637 4.637 0 0 1 2.76 3.691z" fill="#fff"/><path fill-rule="evenodd" clip-rule="evenodd" d="M110.375 27.219c-1.706-.014-3.726-.323-5.543-1.35-1.634-.919-2.925-2.334-3.651-4.025a2.137 2.137 0 1 1 3.928-1.689c.344.8.977 1.513 1.82 1.987l.006.003c.973.55 2.203.787 3.476.797 1.244.01 2.372-.197 3.042-.39.857-.286 1.6-.591 2.243-.908a2.139 2.139 0 0 1 1.889 3.836 22.157 22.157 0 0 1-2.889 1.163c-1.041.308-2.605.59-4.321.576z" fill="#D8D8D8"/><path d="M76.469 32.707c19.657-1.728 29.12-13.526 34.338-20.338a26.621 26.621 0 0 0-15.351-2.694 26.641 26.641 0 0 0-16.27 8.26c-.082.063-.16.134-.237.214-.29.302-.576.617-.867.937-2.063 2.271-4.346 4.785-9.435 4.194a15.796 15.796 0 0 0-.278-.03l-2.548-.334c-.897-.128-1.468.5-1.31 1.393.757 4.293 4.234 7.677 8.656 8.306.63.09 1.255.12 1.872.095.496.034.983.036 1.43-.003z" fill="#979797"/><path d="M115.412 12.13l3.846 5.109c1.709 2.27.32 5.54-2.501 5.884-2.821.345-4.957-2.492-3.846-5.108l2.501-5.884z" fill="#fff"/><path d="M54.079 27.788a3.127 3.127 0 0 0-.496-6.235L13.23 24.761a3.127 3.127 0 0 0 .496 6.235l40.354-3.208z" fill="silver"/><path fill-rule="evenodd" clip-rule="evenodd" d="M78.888 90.727l7-11.502c.036-.058.075-.112.118-.163.059-.087.12-.172.186-.256l.005-.006a4.784 4.784 0 0 1 6.706-.843l24.513 19.007 13.324 8.353a6.39 6.39 0 1 1-7.81 10.035l-10.711-10.234c-1.671-1.207-3.694.209-4.598 1.152a.787.787 0 0 1-.202.164l-3.614 3.684a1.644 1.644 0 0 1-2.183.146l-.146-.114a1.643 1.643 0 0 1-.288-2.307l5.521-7.095-1.077-.835-5.519 7.093a1.644 1.644 0 0 1-2.308.288l-.005-.004a1.645 1.645 0 0 1-.288-2.308l5.516-7.088-1.076-.834-5.514 7.086a1.645 1.645 0 0 1-2.308.288l-.005-.004a1.645 1.645 0 0 1-.288-2.308l5.51-7.082-1.075-.834-5.51 7.08a1.646 1.646 0 0 1-2.308.288l-.005-.004a1.645 1.645 0 0 1-.287-2.308l5.505-7.075-1.076-.835-5.504 7.073a1.644 1.644 0 0 1-2.308.288l-.005-.004a1.644 1.644 0 0 1-.288-2.308l5.501-7.068-1.076-.835-5.5 7.067a1.644 1.644 0 0 1-2.308.288l-.005-.004a1.644 1.644 0 0 1-.287-2.307l5.496-7.063-1.077-.835-5.494 7.061a1.645 1.645 0 0 1-2.308.288l-.146-.114a1.644 1.644 0 0 1-.394-2.152zm48.85 17.983c.798.62.94 1.773.317 2.573a1.834 1.834 0 0 1-2.573.326 1.834 1.834 0 0 1-.317-2.574 1.833 1.833 0 0 1 2.573-.325z" fill="#BFBFBF"/><path fill-rule="evenodd" clip-rule="evenodd" d="M14.743 24.64l-.01.001-3.031.241c-5.595.445-9.77 5.341-9.326 10.937.445 5.595 5.341 9.77 10.937 9.325l3.032-.24c5.595-.445 9.77-5.342 9.325-10.937-.11-1.381-.49-2.675-1.086-3.835l5.009-.398a3.324 3.324 0 0 0-.09-6.267l-14.76 1.173zm.487 6.238a3.907 3.907 0 1 1 .619 7.789l-3.032.24a3.907 3.907 0 0 1-.62-7.788l3.033-.241z" fill="#959595"/><path d="M51.058 38.713a3.127 3.127 0 1 1-3.628 5.095L14.455 20.326a3.127 3.127 0 1 1 3.628-5.094l32.975 23.481z" fill="#D3D3D3"/><path fill-rule="evenodd" clip-rule="evenodd" d="M27.274 21.777l3.775 2.689a3.324 3.324 0 0 1-3.295 5.33l-13.299-9.47-.03-.021-.9-.641c-4.573-3.256-5.64-9.602-2.384-14.174C14.397.918 20.743-.15 25.315 3.107l2.477 1.764c4.573 3.256 5.64 9.602 2.384 14.174a10.133 10.133 0 0 1-2.902 2.732zm-7.643-5.445a3.907 3.907 0 0 0 4.532-6.365l-2.477-1.764a3.907 3.907 0 0 0-4.532 6.364l2.477 1.765z" fill="#A6A6A6"/><path d="M13.177 69.516c3.397-14.197 16.603-23.823 31.158-22.712 14.555 1.11 26.147 12.63 27.35 27.178l3.784 45.78a1.576 1.576 0 0 1-1.69 1.701L3.9 116.129a1.576 1.576 0 0 1-1.412-1.938l10.689-44.675z" fill="#BFBFBF"/><path d="M17.093 71.88c2.57-12.613 14.128-21.339 26.962-20.36 12.878.984 22.994 11.43 23.565 24.333l.896 20.286c.327 7.395-5.886 13.412-13.267 12.849l-31.075-2.372c-7.404-.565-12.635-7.494-11.152-14.77l4.07-19.967z" fill="#D1D1D1"/><path d="M60.977 78.88a5.776 5.776 0 0 1 6.2-5.32l2.094.16a5.776 5.776 0 1 1-.88 11.519l-2.094-.16a5.776 5.776 0 0 1-5.32-6.199z" fill="#D1D1D1"/><path d="M35.334 47.486a18.662 18.662 0 0 0-1.033 4.87c-.784 10.265 6.903 19.222 17.168 20.006l20.21 1.542c-1.237-14.511-12.814-25.993-27.343-27.102a29.676 29.676 0 0 0-9.002.684z" fill="#BFBFBF"/><path d="M33.064 108.229a.932.932 0 0 1 1-.858l11.77.898a.932.932 0 0 1 .857 1l-.697 9.138a.932.932 0 0 1-1 .858l-11.77-.898a.932.932 0 0 1-.857-1l.697-9.138z" fill="#A6A6A6"/><path d="M43.818 78.939l14.872-2.656-.577 7.558a7.81 7.81 0 0 1-1.523 4.08 22.566 22.566 0 0 0-2.903-.411 22.276 22.276 0 0 0-10.389 1.685 3.687 3.687 0 0 1-.64-2.379l.383-5.019a7.825 7.825 0 0 1 .777-2.858z" fill="#fff"/><path d="M41.554 86.583c.14.01 1.224 2.065 2.324 4.216 1.095 2.142-.588 4.637-2.986 4.454-2.398-.183-3.683-2.905-2.276-4.855 1.414-1.96 2.798-3.825 2.938-3.815z" fill="#959595"/><path d="M41.117 81.65a7.846 7.846 0 0 0-7.225-8.42l-6.34-.484a.98.98 0 0 0-1.052.904l-.59 7.732a7.845 7.845 0 0 0 7.226 8.42l3.625.277a3.702 3.702 0 0 0 3.973-3.41l.383-5.019z" fill="#fff"/><path d="M40.437 77.804l-5.218-.398-.107 1.4a3.408 3.408 0 0 0 6.026 2.432 7.8 7.8 0 0 0-.701-3.434z" fill="#959595"/><path d="M26.082 79.121l15.02 1.147a7.848 7.848 0 0 0-7.21-7.038l-6.34-.484a.98.98 0 0 0-1.052.904l-.418 5.471z" fill="#BFBFBF"/><path d="M50.864 78.6l-.106 1.401a3.408 3.408 0 1 0 6.796.519l.107-1.401-6.797-.519z" fill="#959595"/><path d="M43.82 78.938l14.871-2.655-.404 5.297-15.02-1.147c.135-.522.32-1.022.552-1.495zM13.98 77.091a26.256 26.256 0 0 1 6.278-15.127l5.648-6.562 4.991-3.306 4.793-.687-4.496 58.902-19.635-1.498 2.422-31.722z" fill="#BFBFBF"/><path fill-rule="evenodd" clip-rule="evenodd" d="M54.556 92.2a1.056 1.056 0 0 1-.536 1.394l-15.247 6.776a1.056 1.056 0 1 1-.858-1.929l15.248-6.776a1.056 1.056 0 0 1 1.393.535z" fill="#959595"/></g><defs><clipPath id="clip0"><path fill="#fff" d="M0 0h135v124H0z"/></clipPath></defs></svg>