<svg viewBox="0 0 135 124" fill="none" xmlns="http://www.w3.org/2000/svg"><g clip-path="url(#clip0)"><path d="M107 11H28c-9.389 0-17 7.611-17 17v79c0 9.389 7.611 17 17 17h79c9.389 0 17-7.611 17-17V28c0-9.389-7.611-17-17-17z" fill="#FFCA00"/><path d="M122.44 20.93L20.92 122.45a16.937 16.937 0 0 0 7.08 1.56h41.32L124 69.33V28.01a16.938 16.938 0 0 0-1.56-7.08zM50.32 69.07l58-58c-.43 0-.87-.07-1.31-.07H58.42L25.34 44.09c-6.904 6.904-6.904 18.096 0 25 6.903 6.904 18.096 6.904 25 0l-.02-.02z" fill="#FFD900"/><path d="M6.306 47.262h.002a7.741 7.741 0 0 1 6.77-8.451l36.208-4.393a7.741 7.741 0 0 1 8.595 6.586h.002l4.295 35.399a2.679 2.679 0 0 0 2.982 2.336l5.222-.633a1.116 1.116 0 0 1 1.242.973c.726 5.986-3.538 11.428-9.524 12.154l-47.876 5.81c-5.986.726-11.428-3.538-12.154-9.524a1.116 1.116 0 0 1 .973-1.243l5.222-.633A2.679 2.679 0 0 0 10.6 82.66l-4.295-35.4z" fill="#FFB100"/><path d="M10.307 47.797l43.82-5.317 5.304 43.725-43.819 5.317-5.305-43.725z" fill="#FFBB31"/><path d="M10.602 67.704a4.871 4.871 0 1 0-1.174-9.67 4.871 4.871 0 0 0 1.174 9.67zM58.6 61.88a4.871 4.871 0 1 0-1.174-9.67 4.871 4.871 0 0 0 1.173 9.67z" fill="#FFBB31"/><path d="M13.557 92.563a1.34 1.34 0 0 1 1.168-1.491l45.458-5.516a1.34 1.34 0 0 1 1.491 1.168l.547 4.505a1.34 1.34 0 0 1-1.168 1.49l-45.459 5.517a1.34 1.34 0 0 1-1.49-1.169l-.547-4.504z" fill="#E27800"/><path d="M7.699 58.585a4.87 4.87 0 0 1 6.35 1.542 5.43 5.43 0 0 0 1.418-4.364l-.821-6.77-7.993.97 1.046 8.622zM53.45 55.352a4.871 4.871 0 0 1 5.787-3.025l-1.046-8.618-7.993.97.821 6.77a5.43 5.43 0 0 0 2.43 3.904z" fill="#FFB100"/><path d="M4.705 46.022a1.34 1.34 0 0 1 1.169-1.49l51.777-6.283a1.34 1.34 0 0 1 1.49 1.168l.446 3.669a1.34 1.34 0 0 1-1.168 1.49L6.64 50.86a1.34 1.34 0 0 1-1.49-1.168l-.446-3.669z" fill="#E27800"/><path d="M34.09 46.29c5.927-.72 10.15-6.108 9.43-12.035-.719-5.927-6.107-10.148-12.034-9.43a10.804 10.804 0 0 0-8.515 6.203l-2.3-1.987c-.632-.547-1.613-.385-1.908.398a9.39 9.39 0 0 0-.535 4.459 9.425 9.425 0 0 0 5.416 7.43A10.812 10.812 0 0 0 34.09 46.29z" fill="#FFB100"/><path d="M35.152 89.338a.964.964 0 0 1 .842-.847l2.923-.354a.964.964 0 0 1 1.02.62l2.892 7.763a.964.964 0 0 1-.788 1.294l-6.767.82a.964.964 0 0 1-1.074-1.067l.952-8.23z" fill="#FFF1A2"/><path d="M34.063 60.36c.116-.013 1.333 1.482 2.577 3.055 1.239 1.565.274 3.87-1.707 4.11-1.982.24-3.47-1.766-2.641-3.582.832-1.825 1.656-3.568 1.771-3.582z" fill="#FFA300"/><path d="M34.447 55.201a5.67 5.67 0 1 1 11.26-1.366l.415 3.425a5.67 5.67 0 0 1-11.26 1.366l-.415-3.425zM21.196 56.81a5.67 5.67 0 1 1 11.26-1.366l.415 3.423a5.67 5.67 0 0 1-11.26 1.366l-.415-3.424z" fill="#FFF1A2"/><path d="M36.84 55.014a1.994 1.994 0 0 0 1.653-2.608 2.587 2.587 0 0 1 2.597 2.275l.374 3.08a2.586 2.586 0 0 1-5.134.624l-.374-3.081a2.615 2.615 0 0 1-.018-.388c.28.099.587.136.902.098zM26.691 56.245a1.994 1.994 0 0 0 1.653-2.608 2.587 2.587 0 0 1 2.598 2.275l.374 3.081a2.586 2.586 0 0 1-5.135.623l-.374-3.08a2.615 2.615 0 0 1-.018-.389c.28.1.587.137.902.098z" fill="#E27800"/><path opacity=".8" fill-rule="evenodd" clip-rule="evenodd" d="M32.52 76.822a.82.82 0 0 1 .636.187l3.991 3.373a.82.82 0 1 1-1.06 1.253l-3.302-2.791-2.417 3.473a.82.82 0 1 1-1.347-.938l2.932-4.212a.82.82 0 0 1 .567-.345z" fill="#FFA300"/><path d="M41.754 76.803L23.7 78.993l-.465-3.823c-.509-4.197 3.732-7.36 7.61-5.676l8.071 3.505a4.774 4.774 0 0 1 2.838 3.804z" fill="#FFF1A2"/><path d="M19.84 51.012c1.872.365 4.013-.193 5.698-1.672a7.18 7.18 0 0 0 1.98-2.818M45.64 47.882c-1.732.802-3.944.772-5.933-.261a7.18 7.18 0 0 1-2.597-2.263" stroke="#FFB100" stroke-width="4.404" stroke-linecap="round" stroke-linejoin="round"/><path d="M13.91 54.404l2.972 3.955c1.32 1.757.243 4.285-1.94 4.55-2.182.265-3.832-1.932-2.97-3.955l1.939-4.55zM51.256 41.917l2.97 3.955c1.321 1.757.244 4.285-1.938 4.55-2.183.265-3.833-1.932-2.971-3.954l1.939-4.55z" fill="#FFF1A2"/><path d="M103.948 11.153a8.69 8.69 0 1 0-17.25-2.098 8.69 8.69 0 0 0 7.544 9.458 8.69 8.69 0 1 0 9.706-7.36z" fill="#FF9600"/><rect x="77.503" y="16.755" width="52.704" height="42.2" rx="10.475" transform="rotate(5.532 77.503 16.755)" fill="#FFBB31"/><path d="M84.073 18.108c-4.032 1.14-7.15 4.652-7.58 9.074l-.778 8.037.383.038a6.285 6.285 0 0 0 6.861-5.65l1.114-11.499zM123.256 21.904c3.738 1.892 6.125 5.937 5.696 10.359l-.778 8.038-.383-.037a6.285 6.285 0 0 1-5.649-6.862l1.114-11.498z" fill="#FFA800"/><path d="M73.593 41.866a4.696 4.696 0 1 0 .905-9.348 4.696 4.696 0 0 0-.905 9.348zM128.982 47.231a4.695 4.695 0 1 0 .905-9.347 4.695 4.695 0 0 0-.905 9.347z" fill="#FFBB31"/><rect x="89.354" y="24.143" width="12.586" height="16.506" rx="6.293" transform="rotate(5.532 89.354 24.143)" fill="#FFF1A2"/><rect x="104.962" y="25.654" width="12.586" height="16.506" rx="6.293" transform="rotate(5.532 104.962 25.654)" fill="#FFF1A2"/><path d="M97.766 29.31a2.27 2.27 0 0 1-2.558 2.031l-.408 4.212a2.58 2.58 0 0 0 5.134.497l.457-4.723a2.578 2.578 0 0 0-2.691-2.825c.069.256.094.529.066.808zM108.239 30.325a2.269 2.269 0 0 1-2.762 1.995l-.409 4.228a2.578 2.578 0 1 0 5.134.497l.457-4.723a2.578 2.578 0 0 0-2.492-2.827c.073.262.1.543.072.83z" fill="#E27800"/><circle cx="86.032" cy="38.331" r="4.745" transform="rotate(5.532 86.032 38.331)" fill="#FFBB31"/><path d="M94.32 44.99a3.301 3.301 0 0 0 5.157 3.352 2.889 2.889 0 0 0 5.39-1.145l-5.67-.549-4.878-1.658z" fill="#FFF1A2"/><path d="M89.856 41.309c2.867 3.655 11.329 8.732 23.292 3.581" stroke="#E27800" stroke-width="1.651" stroke-linecap="round" stroke-linejoin="round"/><circle cx="116.976" cy="43.091" r="5.055" transform="rotate(5.532 116.976 43.09)" fill="#FFBB31"/><path d="M114.652 47.284a.826.826 0 0 0 .365-1.61l-.365 1.61zm-1.486-4.542a.825.825 0 1 0-1.61-.364l1.61.364zm1.851 2.931a2.451 2.451 0 0 1-1.851-2.931l-1.61-.364a4.102 4.102 0 0 0 3.096 4.906l.365-1.61zM86.87 42.528a.826.826 0 0 1 .158-1.644l-.159 1.644zm2.834-3.847a.826.826 0 1 1 1.644.159l-1.644-.16zm-2.676 2.203a2.451 2.451 0 0 0 2.676-2.203l1.644.159a4.102 4.102 0 0 1-4.479 3.688l.16-1.644z" fill="#E27800"/><path d="M104.171 42.368a2.475 2.475 0 1 1-4.928-.477c.132-1.361 2.799-4.29 2.902-4.28.102.01 2.158 3.396 2.026 4.757z" fill="#FFA300"/><path d="M87.857 22.693l31.053 3.008-.891 9.196-15.644 1.887-7.072-3.463-8.336-1.432.89-9.196z" fill="#FFBB31"/><path d="M110.916 27.534c-1.188-.22-3.971-.095-5.598 2.152M87.338 31.261s3.577.527 6.903 1.498c2.708.79 7.502 2.8 7.502 2.8.988.51.815-1.994.815-1.994" stroke="#E27800" stroke-width="1.857" stroke-linecap="round"/><path d="M100.949 112.774l-10.67-.817a1.585 1.585 0 0 0-1.702 1.459l-.242 3.162a1.584 1.584 0 0 0 1.46 1.701l10.67.818a1.586 1.586 0 0 0 1.702-1.46l.242-3.161a1.586 1.586 0 0 0-1.46-1.702z" fill="#E27800"/><path fill-rule="evenodd" clip-rule="evenodd" d="M69.016 62.627l60.462 4.632a3.172 3.172 0 0 1 2.92 3.404l-3.512 45.841a3.17 3.17 0 0 1-3.404 2.919l-60.462-4.631a3.171 3.171 0 0 1-2.92-3.404l3.512-45.841a3.17 3.17 0 0 1 3.404-2.92z" fill="#E27800"/><path d="M100.036 109.126l-8.299-.635a1.585 1.585 0 0 0-1.702 1.459l-.151 1.976a1.586 1.586 0 0 0 1.46 1.702l8.298.636a1.586 1.586 0 0 0 1.702-1.46l.152-1.976a1.587 1.587 0 0 0-1.46-1.702z" fill="#FFB100"/><path fill-rule="evenodd" clip-rule="evenodd" d="M67.386 99.47l58.487 4.48-.666 8.694a1.586 1.586 0 0 1-1.702 1.46l-27.662-2.119-9.09-.696-18.573-1.423a1.586 1.586 0 0 1-1.46-1.702l.666-8.694z" fill="#FFB100"/><path fill-rule="evenodd" clip-rule="evenodd" d="M95.434 117.32l.409-5.335a5.549 5.549 0 0 0-5.11-5.956l-23.71-1.817-.56 7.311 3.466-45.248a1.585 1.585 0 0 1 1.702-1.46l22.13 1.696a5.549 5.549 0 0 1 5.109 5.956 5.549 5.549 0 0 1 5.956-5.109l22.13 1.695a1.586 1.586 0 0 1 1.46 1.702l-4.026 52.559 1.12-14.621-23.711-1.817a5.55 5.55 0 0 0-5.957 5.109l-.408 5.335z" fill="#FFF1A2"/><path d="M93.853 70.493l-19.76-1.514a1.189 1.189 0 0 0-1.276 1.095l-.09 1.185a1.19 1.19 0 0 0 1.094 1.277l19.76 1.513c.654.05 1.226-.44 1.276-1.094l.09-1.186a1.189 1.189 0 0 0-1.094-1.276zM92.612 86.695l-19.76-1.513a1.189 1.189 0 0 0-1.276 1.094l-.09 1.186c-.05.654.44 1.226 1.094 1.276l19.76 1.514c.654.05 1.225-.44 1.276-1.095l.09-1.186a1.189 1.189 0 0 0-1.094-1.276zM88.87 78.458l-15.412-1.18a1.19 1.19 0 0 0-1.276 1.095l-.091 1.185c-.05.655.44 1.226 1.095 1.276l15.412 1.181c.654.05 1.226-.44 1.276-1.095l.09-1.185a1.189 1.189 0 0 0-1.094-1.277zM87.66 94.266l-15.413-1.18a1.189 1.189 0 0 0-1.276 1.094l-.091 1.185c-.05.655.44 1.227 1.095 1.277l15.412 1.18a1.19 1.19 0 0 0 1.276-1.094l.091-1.186a1.189 1.189 0 0 0-1.095-1.276z" fill="#FF9600"/><path fill-rule="evenodd" clip-rule="evenodd" d="M79.806 61.864l9.09.696c.654.05 1.144.622 1.094 1.277l-2.177 28.427a1.189 1.189 0 0 1-1.874.88L82.6 90.774a1.19 1.19 0 0 0-1.252-.076l-3.24 1.747a1.189 1.189 0 0 1-1.75-1.137l2.172-28.35a1.19 1.19 0 0 1 1.276-1.095z" fill="#FFB100"/><rect x="103.878" y="71.563" width="21.247" height="31.8" rx="1.206" transform="rotate(4.38 103.878 71.563)" fill="#FF9600"/><path d="M123.905 88.31l-1.178 15.381a1.206 1.206 0 0 1-1.294 1.11l-18.782-1.439a1.207 1.207 0 0 1-1.11-1.294l.323-4.207 13.372 1.024a2.41 2.41 0 0 0 2.588-2.22l.672-8.77a1.506 1.506 0 0 0-1.387-1.617l-3.606-.276a2.713 2.713 0 0 1 .414-5.41l3.606.277a6.932 6.932 0 0 1 6.382 7.44zM110.428 76.577l-.042-.003a1.095 1.095 0 0 0-1.176 1.008l-.03.391a1.095 1.095 0 0 0 1.008 1.176l.042.003a1.095 1.095 0 0 0 1.176-1.008l.03-.391a1.095 1.095 0 0 0-1.008-1.176zM117.713 77.135l-.042-.003a1.094 1.094 0 0 0-1.175 1.008l-.03.391a1.094 1.094 0 0 0 1.008 1.176l.042.003a1.096 1.096 0 0 0 1.176-1.008l.03-.391a1.096 1.096 0 0 0-1.009-1.176z" fill="#FFBB31"/><path d="M118.361 79.376l-8.957-.686a1.12 1.12 0 0 0-.171 2.236l8.957.686a1.12 1.12 0 0 0 .171-2.236z" fill="#FFD900"/><path d="M118.299 75.087l-2.436 1.109-1.084-1.524a.597.597 0 0 0-.915-.07l-1.304 1.34-2.238-1.466a.597.597 0 0 0-.912.621l.952 4.594c.108.52.548.908 1.079.948l4.813.369a1.195 1.195 0 0 0 1.211-.773l1.641-4.395a.598.598 0 0 0-.807-.753z" fill="#FFD900"/><path d="M114.07 76.856l-.042-.003a1.095 1.095 0 0 0-1.175 1.008l-.03.391a1.095 1.095 0 0 0 1.008 1.176l.042.003a1.095 1.095 0 0 0 1.176-1.008l.03-.391a1.095 1.095 0 0 0-1.009-1.176z" fill="#FFBB31"/><path d="M109.873 84.355l6.791.52a2.022 2.022 0 1 1-.309 4.032l-6.79-.52a2.022 2.022 0 0 1 .308-4.032z" fill="#E27800"/><path d="M108.905 85.395c-1.99 1.08-2.637 2.573-1.942 4.482" stroke="#FFBB31" stroke-width="1.353" stroke-linecap="round" stroke-linejoin="round"/><path fill-rule="evenodd" clip-rule="evenodd" d="M114.715 81.346l-5.097-.39a2.864 2.864 0 0 0-3.075 2.637l-.077 1.001a1.861 1.861 0 0 0 1.713 1.997l6.098.467a1.86 1.86 0 0 0 1.997-1.713l.154-2.002a1.861 1.861 0 0 0-1.713-1.997z" fill="#FFBB31"/><path d="M112.618 84.227a2.366 2.366 0 0 1-2.187-2.533 2.366 2.366 0 0 1 2.547-2.17 2.367 2.367 0 0 1 2.188 2.533 2.368 2.368 0 0 1-2.548 2.17z" fill="#FFBB31"/><path d="M111.758 82.14a1.018 1.018 0 1 1 2.029.156l-.154 2.002a1.017 1.017 0 1 1-2.029-.155l.154-2.003z" fill="#E27800"/><path d="M106.504 88.584c-.465.424-.76.765-.884 1.024" stroke="#FFBB31" stroke-width="1.353" stroke-linecap="round" stroke-linejoin="round"/><path d="M108.299 82.884a1.126 1.126 0 0 1-1.039-1.207 1.125 1.125 0 0 1 1.211-1.034 1.126 1.126 0 0 1 1.039 1.207 1.125 1.125 0 0 1-1.211 1.034z" fill="#FF9600" stroke="#FFBB31" stroke-width=".751"/><path d="M123.408 94.802l.497-6.492c.006-.076.011-.152.014-.228a3.37 3.37 0 0 0-.511 6.72zM104.249 98.044l-.006.075a3.37 3.37 0 0 0 6.72.514l.005-.075-6.719-.514zM113.775 98.773l-.006.075a3.37 3.37 0 1 0 4.12-3.026l-.064.843a2.412 2.412 0 0 1-2.589 2.22l-1.461-.112z" fill="#E27800"/><path d="M66.867 4.916c.568-.663 1.655-.33 1.753.54l.689 6.111a1 1 0 0 0 .61.811l5.678 2.364c.806.335.825 1.472.029 1.833l-5.6 2.544a1 1 0 0 0-.583.83l-.493 6.131c-.07.872-1.145 1.24-1.735.595l-4.15-4.54a1 1 0 0 0-.97-.298l-5.983 1.426c-.85.203-1.533-.706-1.101-1.466l3.035-5.35a1 1 0 0 0-.017-1.014l-3.204-5.25c-.456-.746.197-1.676 1.054-1.5l6.025 1.232a1 1 0 0 0 .96-.328l4.003-4.67zM49.572 97.895c.57-.663 1.656-.33 1.753.539l.605 5.363c.04.361.274.672.61.812l4.983 2.074c.807.335.825 1.472.03 1.833l-4.915 2.233a1 1 0 0 0-.583.83l-.433 5.38c-.07.871-1.145 1.24-1.735.595l-3.642-3.984a1 1 0 0 0-.97-.298l-5.25 1.251c-.85.203-1.533-.706-1.102-1.466l2.664-4.695a1 1 0 0 0-.016-1.014l-2.813-4.607c-.455-.746.198-1.676 1.054-1.501l5.288 1.082a1 1 0 0 0 .96-.329l3.512-4.098z" fill="#FFF1A2"/><path d="M23.035 105.403c-.099-.869.885-1.437 1.588-.917l2.35 1.737a1 1 0 0 0 1.008.106l2.659-1.211c.795-.362 1.64.398 1.363 1.227l-.926 2.771a1 1 0 0 0 .21.993l1.974 2.154c.59.645.128 1.683-.746 1.676l-2.922-.025a1 1 0 0 0-.878.507l-1.44 2.543c-.43.76-1.56.641-1.823-.192l-.88-2.786a.998.998 0 0 0-.754-.679l-2.863-.583c-.856-.175-1.092-1.287-.38-1.794l2.377-1.698a.998.998 0 0 0 .413-.926l-.33-2.903zM42.55 15.802c.123-.865 1.218-1.169 1.768-.49l1.319 1.629a1 1 0 0 0 .95.355l2.064-.363c.86-.151 1.488.797 1.012 1.53l-1.141 1.757a1 1 0 0 0-.045 1.014l.983 1.85c.41.772-.297 1.662-1.142 1.436l-2.024-.543a1 1 0 0 0-.977.271l-1.457 1.507c-.607.628-1.672.23-1.718-.642l-.11-2.093a1 1 0 0 0-.56-.846l-1.882-.92c-.786-.383-.736-1.519.08-1.832l1.956-.751a1 1 0 0 0 .632-.794l.293-2.075z" fill="#FFE761"/></g><defs><clipPath id="clip0"><path fill="#fff" d="M0 0h135v124H0z"/></clipPath></defs></svg>