<svg viewBox="0 0 135 125" fill="none" xmlns="http://www.w3.org/2000/svg"><g clip-path="url(#clip0_302_3187)"><path d="M107 11.918H28c-9.389 0-17 7.61-17 17v79c0 9.388 7.611 17 17 17h79c9.389 0 17-7.612 17-17v-79c0-9.39-7.611-17-17-17z" fill="#1CB0F6"/><path fill-rule="evenodd" clip-rule="evenodd" d="M114.437 93.387l4.596 2.342a1.45 1.45 0 0 1 .392 2.29l-12.45 13.092-32.487-5.408 38.85-12.405a1.45 1.45 0 0 1 1.099.089z" fill="#FF4B4B"/><path d="M26.776 74.654c3.513-2.482 8.237-2.987 12.32-.906l73.206 37.3a1.384 1.384 0 1 1-.505 2.606c-13.802 1.292-27.747 1.417-41.836.376a27.37 27.37 0 0 1-10.417-2.91l-31.35-15.974a11.844 11.844 0 0 1-4.894-4.635 11.65 11.65 0 0 1-1.113-1.895l-3.808-8.158c-1.16-2.486-.096-5.447 2.377-6.614a4.923 4.923 0 0 1 4.113-.043l1.907.853z" fill="#E5E5E5"/><path fill-rule="evenodd" clip-rule="evenodd" d="M29.407 71.261l11.887 6.057c.235.12.433.301.572.525l2.021 3.246a1.176 1.176 0 0 1-1.532 1.67l-14.93-7.607a2.183 2.183 0 0 1 1.982-3.89z" fill="#1CB0F6"/><path fill-rule="evenodd" clip-rule="evenodd" d="M36.178 73.894l1.935.986-2.313 4.54-1.935-.987 2.313-4.539z" fill="#E5E5E5"/><path fill-rule="evenodd" clip-rule="evenodd" d="M65.146 89.425a2.534 2.534 0 0 1 1.107 3.408l-1.003 1.97a2.534 2.534 0 0 1-4.516-2.301l1.004-1.97a2.534 2.534 0 0 1 3.408-1.107zM71.595 92.726a2.534 2.534 0 0 1 1.107 3.408l-1.003 1.97a2.534 2.534 0 0 1-4.515-2.301l1.003-1.97a2.534 2.534 0 0 1 3.408-1.107z" fill="#1CB0F6"/><path d="M79.152 99.435a2.534 2.534 0 0 0-4.516-2.3l-1.003 1.969a2.535 2.535 0 0 0 4.515 2.3l1.004-1.969z" fill="#1CB0F6"/><path d="M40.087 94a2.904 2.904 0 0 0 3.902-1.278 2.904 2.904 0 0 0-1.259-3.909 2.903 2.903 0 0 0-3.902 1.28A2.903 2.903 0 0 0 40.087 94z" fill="#839EA5"/><path fill-rule="evenodd" clip-rule="evenodd" d="M46.325 88.705l7.297 4.064c.788.44 1.518.974 2.173 1.593l5.14 4.852a1.45 1.45 0 0 1 .31 1.686l-1.264 2.614a1.45 1.45 0 0 1-1.564.796l-6.861-1.244a10.903 10.903 0 0 1-3.016-1.021l-7.198-3.686a1.45 1.45 0 0 1-.63-1.948l3.615-7.097a1.45 1.45 0 0 1 1.998-.609z" fill="#FF4B4B"/><path fill-rule="evenodd" clip-rule="evenodd" d="M47.399 83.509a1.694 1.694 0 0 1 .56 2.409l-4.7 7.02a.715.715 0 0 1-.946.225.758.758 0 0 1-.33-.941l3.176-7.938a1.568 1.568 0 0 1 2.24-.775z" fill="#839EA5"/><path fill-rule="evenodd" clip-rule="evenodd" d="M37.467 101.128l.03.016a1.812 1.812 0 0 0 2.512-.875l3.072-7.035a.794.794 0 0 0-.35-1.016.854.854 0 0 0-1.085.231l-4.726 6.163a1.687 1.687 0 0 0 .547 2.516z" fill="#839EA5"/><path fill-rule="evenodd" clip-rule="evenodd" d="M56.22 96.84l19.051 11.419c.6.359.827 1.114.526 1.744-.297.62-1.03.894-1.661.621l-20.444-8.857a2.538 2.538 0 0 1-1.252-3.48l.215-.423a2.537 2.537 0 0 1 3.566-1.024zM102.268 105.748l16.614 8.799c.522.276.748.904.522 1.45a1.08 1.08 0 0 1-1.375.598l-17.657-6.586a2.343 2.343 0 0 1-1.322-3.15 2.33 2.33 0 0 1 3.218-1.111z" fill="#FF4B4B"/><path d="M33.602 27.737H43.97a3.19 3.19 0 0 1 3.19 3.19v3.59a3.19 3.19 0 0 1-3.19 3.19H33.602a3.19 3.19 0 0 1-3.19-3.19v-3.59a3.19 3.19 0 0 1 3.19-3.19zm1.728 2.954a2.127 2.127 0 0 0-2.127 2.127v2.392c0 1.175.952 2.127 2.127 2.127h6.912a2.127 2.127 0 0 0 2.127-2.127v-2.392a2.127 2.127 0 0 0-2.127-2.127H35.33z" fill="#784829"/><path d="M26.23 33.09h-3.323a.739.739 0 0 0-.738.74v3.138c0 .408.33.739.738.739h3.324c.408 0 .738-.331.738-.739V33.83a.739.739 0 0 0-.738-.738zM54.664 33.09H51.34a.739.739 0 0 0-.739.74v3.138c0 .408.33.739.739.739h3.323c.408 0 .739-.331.739-.739V33.83a.739.739 0 0 0-.74-.738z" fill="#F6B702"/><path d="M57.249 34.753H20.323a3.693 3.693 0 0 0-3.693 3.692v22.156a3.693 3.693 0 0 0 3.693 3.693h36.926a3.693 3.693 0 0 0 3.693-3.693V38.445a3.693 3.693 0 0 0-3.693-3.692z" fill="#996341"/><path d="M30.545 34.753h-3.692v29.54h3.692v-29.54zM50.971 34.753H47.28v29.54h3.692v-29.54zM55.403 34.753h1.846a3.693 3.693 0 0 1 3.693 3.692v1.847a5.539 5.539 0 0 1-5.54-5.54zm5.539 24.002V60.6a3.693 3.693 0 0 1-3.693 3.693h-1.846a5.539 5.539 0 0 1 5.539-5.54zm-38.52-24.002a5.539 5.539 0 0 1-5.792 5.533v-1.84a3.693 3.693 0 0 1 3.693-3.693h2.099zm0 29.54h-2.1a3.693 3.693 0 0 1-3.692-3.692v-1.84a5.539 5.539 0 0 1 5.791 5.533z" fill="#8E5835"/><path d="M116.31 49.495a8.501 8.501 0 0 0-8.501-8.502H80.181a8.501 8.501 0 0 0-8.501 8.502v4.123a5.069 5.069 0 0 0 0 10.137v7.415a9.566 9.566 0 0 0 9.566 9.566h25.498a9.566 9.566 0 0 0 9.566-9.566v-7.415a5.069 5.069 0 0 0 0-10.137v-4.123z" fill="#A46648"/><path d="M108.695 11.343a11.09 11.09 0 0 1 10.415 2.721l4.302 4.103c4.435 4.23 4.6 11.255.37 15.69l-3.669 3.847a11.091 11.091 0 0 1-10.305 3.204v2.65l-15.869-2.65-19.19 2.65v-2.317a11.054 11.054 0 0 1-6.871-3.377l-3.67-3.847c-4.23-4.435-4.064-11.46.37-15.69l4.302-4.103a11.085 11.085 0 0 1 9.901-2.84c.866-5.266 5.44-9.283 10.95-9.283h8.02c5.498 0 10.061 3.996 10.944 9.242z" fill="#3D3D3D"/><path d="M95.4 63.034c-.533-1.015-1.353-2.088-1.405-2.088-.052 0-.872 1.073-1.405 2.088a1.914 1.914 0 0 0 .555 3.744h1.7a1.913 1.913 0 0 0 .555-3.744z" fill="#86401F"/><path d="M86.284 32.145a8.588 8.588 0 0 0 4.282 6.723H69.023l2.632 14.75a4.727 4.727 0 0 1 .267.002l22.073-11.705 22.076 11.705a5.044 5.044 0 0 1 .257-.002l2.639-14.75h-21.4a8.586 8.586 0 0 0 4.139-6.639l.207-2.416a8.596 8.596 0 0 0-7.89 3.8 8.596 8.596 0 0 0-7.945-3.885l.206 2.417z" fill="#FDB02A"/><path d="M95.667 58.602v.098a5.682 5.682 0 1 0 11.365 0v-.098H95.667zM81.086 58.602v.098c0 1.461.552 2.794 1.458 3.8 2.428-.198 4.771.282 6.556 1.384a5.683 5.683 0 0 0 3.351-5.184v-.098H81.086z" fill="#fff"/><path d="M95.45 54.05c0-.57.462-1.034 1.034-1.034h7.448a1.034 1.034 0 0 1 0 2.07h-7.448a1.034 1.034 0 0 1-1.035-1.035z" fill="#884727"/><path fill-rule="evenodd" clip-rule="evenodd" d="M83.431 49.791c4.178-1.795 8.002-.109 9.446 1a1.005 1.005 0 1 1-1.224 1.593c-1.061-.815-4.118-2.17-7.429-.747a1.005 1.005 0 1 1-.793-1.846z" fill="#884727"/><path d="M86.118 58.602v.098a2.515 2.515 0 0 0 5.03 0v-.098h-5.03zM96.972 58.602v.097a2.515 2.515 0 0 0 5.03 0v-.097h-5.03z" fill="#3D3D3D"/><path d="M77.294 69.68c-1.18.832-.608 2.488.791 2.844l10.248 2.602c1.4.356 2.692-.827 2.053-2.122a8.862 8.862 0 0 0-5.78-4.68 8.862 8.862 0 0 0-7.312 1.355z" fill="#A41414"/><path d="M89.82 72.02a8.849 8.849 0 0 0-5.213-3.696 8.862 8.862 0 0 0-7.364 1.392L89.82 72.02z" fill="#fff"/></g><defs><clipPath id="clip0_302_3187"><path fill="#fff" transform="translate(0 .917)" d="M0 0h135v124H0z"/></clipPath></defs></svg>