<svg viewBox="0 0 135 124" fill="none" xmlns="http://www.w3.org/2000/svg"><path d="M11 28c0-9.389 7.611-17 17-17h79c9.389 0 17 7.611 17 17v79c0 9.389-7.611 17-17 17H28c-9.389 0-17-7.611-17-17V28z" fill="#FF7878"/><path fill-rule="evenodd" clip-rule="evenodd" d="M7.98 31.395C9.753 15.586 23.121 3.634 39.03 3.634c15.385 0 28.48 11.198 30.868 26.396l7.42 47.23a1.585 1.585 0 0 1-1.566 1.832H4.4c-.946 0-1.68-.822-1.575-1.762l5.154-45.935z" fill="#A570FF"/><path fill-rule="evenodd" clip-rule="evenodd" d="M60.527 37.172a6.024 6.024 0 0 1 6.024-6.024H68.9a6.024 6.024 0 0 1 0 12.048h-2.348a6.024 6.024 0 0 1-6.024-6.024z" fill="#FFC6B7"/><path d="M30.324 10.891c-7.876 3.694-13.702 11.16-15.008 20.259l-4.036 28.1c-.614 4.28 2.706 8.11 7.03 8.11h45.888c4.128 0 7.337-3.591 6.874-7.693l-3.13-27.723a26.584 26.584 0 0 0-1.28-5.68H49.216c-9.311 0-17.081-6.598-18.892-15.373z" fill="#FFC6B7"/><path fill-rule="evenodd" clip-rule="evenodd" d="M57.94 28.83c0-.561-.456-1.016-1.017-1.016H50.28a8.311 8.311 0 0 0-8.31 8.311v6.863a3.895 3.895 0 0 0 3.895 3.896h3.764a8.311 8.311 0 0 0 8.312-8.311V28.83z" fill="#fff"/><path d="M43.205 31.761H57.94v-2.93c0-.562-.455-1.017-1.017-1.017H50.28a8.306 8.306 0 0 0-7.074 3.947z" fill="#A570FF"/><path fill-rule="evenodd" clip-rule="evenodd" d="M23.967 28.83c0-.561.455-1.016 1.016-1.016h6.644a8.311 8.311 0 0 1 8.31 8.311v6.694a4.065 4.065 0 0 1-4.064 4.065h-3.595a8.311 8.311 0 0 1-8.311-8.311V28.83z" fill="#fff"/><path d="M38.701 31.761H23.967v-2.93c0-.562.455-1.017 1.016-1.017h6.644c2.99 0 5.61 1.578 7.074 3.947z" fill="#A570FF"/><path fill-rule="evenodd" clip-rule="evenodd" d="M40.79 48.722a3.209 3.209 0 0 0 3.218-3.2c0-1.766-3.218-5.945-3.218-5.945s-3.218 4.179-3.218 5.946c0 1.767 1.441 3.2 3.218 3.2zM36.977 55.467a.883.883 0 0 1 1.248-.063c.3.27.472.3.566.301.138.004.324-.045.681-.211.09-.042.188-.09.293-.143.669-.331 1.655-.82 2.975-.8.856.014 1.437.261 1.827.428.088.037.166.07.236.096.317.117.74.231 1.836-.04.672-.167 1.102-.515 1.645-.956l.076-.06c.56-.454 1.304-1.039 2.45-1.023 2.385.032 3.557-.493 4.07-1.564a.883.883 0 1 1 1.594.762c-.995 2.08-3.183 2.602-5.688 2.569-.46-.007-.767.186-1.316.63l-.111.09c-.52.425-1.229 1.002-2.295 1.266-1.383.343-2.172.242-2.873-.016-.163-.06-.297-.116-.417-.166-.348-.146-.576-.241-1.061-.249-.865-.013-1.453.273-2.12.598-.121.059-.245.12-.374.18-.39.18-.895.39-1.47.376-.618-.015-1.179-.279-1.709-.757a.883.883 0 0 1-.063-1.248z" fill="#EE9583"/><path d="M58.625 78.993c0-20.236 16.405-36.64 36.641-36.64 20.237 0 36.641 16.404 36.641 36.64v3.944c0 20.236-16.404 36.641-36.64 36.641-20.237 0-36.642-16.405-36.642-36.641v-3.944z" fill="#FFB7E3"/><path d="M99.177 108.792c-6.449 2.608-14.657 4.011-25.12 3.233a1.72 1.72 0 0 0-.864.16 36.606 36.606 0 0 0 5.62 3.499c12.094.139 21.246-2.685 28.148-6.986 7.812-4.868 12.603-11.54 15.526-17.623.152-.316.199-.655.155-.978-3.707 9.911-12.652 17.265-23.465 18.695z" fill="#FF9BD8"/><path fill-rule="evenodd" clip-rule="evenodd" d="M66.15 79.88c0-16.107 13.058-29.165 29.165-29.165 16.108 0 29.166 13.057 29.166 29.165 0 16.107-13.058 29.165-29.165 29.165-16.108 0-29.166-13.058-29.166-29.165z" fill="#E18E70"/><path fill-rule="evenodd" clip-rule="evenodd" d="M84.608 85.675a123.073 123.073 0 0 0-4.116-2.13 6.665 6.665 0 0 1-1.344-.643c-.071-.039-.133-.08-.186-.12a6.688 6.688 0 0 1 3.766-12.246c4.391.03 8.21 1.994 10.958 5.524a6.685 6.685 0 0 1-1.17 9.386 6.691 6.691 0 0 1-6.524.96l.009.03s-.061-.035-.173-.096a6.66 6.66 0 0 1-1.22-.665z" fill="#fff"/><path d="M104.203 76.318c4.435 0 8.262-.994 10.042-2.431a6.66 6.66 0 0 1 .89 3.292 6.666 6.666 0 0 1-.664 2.952 31.564 31.564 0 0 0-5.787.674c-3.146.67-6.845 1.992-10.175 4.56a6.685 6.685 0 0 1-1.068-9.305c.134-.172.27-.34.41-.505 1.8.481 3.989.763 6.352.763z" fill="#fff"/><path d="M111.576 55.663c-6.549 6.681-18.353 18.198-39.856 17.465a10.231 10.231 0 0 1-1.544-.185 11.285 11.285 0 0 1-2.016-.351c-4.703-1.266-8.017-5.39-8.269-10.135-.052-.988.649-1.591 1.603-1.334l2.702.696.307.072c5.43 1.313 8.233-1.106 10.766-3.29.357-.309.709-.612 1.062-.9.092-.075.185-.14.28-.197a29.048 29.048 0 0 1 18.706-6.79c6.02 0 11.613 1.825 16.259 4.95zM48.467 34.38a2.768 2.768 0 0 0 3.54 3.804v2.656a3.585 3.585 0 1 1-7.171 0v-2.875a3.585 3.585 0 0 1 3.63-3.585zM34.13 34.394a2.768 2.768 0 0 0 3.267 3.89v2.556a3.585 3.585 0 1 1-7.17 0v-2.875a3.585 3.585 0 0 1 3.902-3.571z" fill="#3D3D3D"/><path fill-rule="evenodd" clip-rule="evenodd" d="M9.482 35.853c0-8.59 3.514-16.84 9.688-22.813l9.163-3.808c1.253-.52 2.632.4 2.632 1.757v57.958c0 .875-.71 1.585-1.585 1.585H11.385a1.902 1.902 0 0 1-1.903-1.902V35.853z" fill="#A570FF"/><path d="M83.73 77.689c.412.257.897.405 1.418.405a2.69 2.69 0 0 0 2.686-2.694c0-.531-.154-1.027-.42-1.445a4.436 4.436 0 0 1 5.142 4.38v2.137a4.436 4.436 0 0 1-8.872 0v-2.136c0-.22.016-.436.046-.647zM99.078 78.094a2.688 2.688 0 0 0 2.564-1.89c.822.075 1.68.114 2.561.114 1.006 0 1.981-.05 2.908-.147.358.64.563 1.379.563 2.165v2.136c0 .196-.013.388-.038.577-2.256.567-4.729 1.48-7.113 2.933a4.43 4.43 0 0 1-1.722-3.51v-2.136c0-.086.002-.171.007-.256.089.009.179.014.27.014z" fill="#3D3D3D"/><path fill-rule="evenodd" clip-rule="evenodd" d="M95.466 91.42c1.52 0 2.753-1.243 2.753-2.776 0-1.533-2.753-5.159-2.753-5.159s-2.753 3.626-2.753 5.16c0 1.532 1.233 2.775 2.753 2.775z" fill="#9E4D31"/><path d="M100.604 91.428c-5.084 1.274-8.463 5.864-8.407 10.885.016 1.443 1.47 2.301 2.87 1.951l16.473-4.128c1.4-.351 2.277-1.794 1.611-3.074-2.319-4.453-7.463-6.908-12.547-5.634z" fill="#B23131"/><path d="M102.506 94.992c-3.674.92-5.87 4.787-4.906 8.637l13.306-3.335c-.965-3.849-4.725-6.223-8.4-5.302z" fill="#FF4B4B"/><path d="M32.484 67.36h15.047v11.72H32.484V67.36z" fill="#593F86"/><path d="M46.862 6.294a4.6 4.6 0 0 0 0 6.503l6.967 6.967 6.734-6.735a4.597 4.597 0 1 0-6.501-6.503l-.233.233-.464-.465a4.599 4.599 0 0 0-6.503 0z" fill="#FFB7E3"/></svg>