<svg viewBox="0 0 135 124" fill="none" xmlns="http://www.w3.org/2000/svg"><path d="M106.635 11h-79c-9.39 0-17 7.611-17 17v79c0 9.389 7.61 17 17 17h79c9.389 0 17-7.611 17-17V28c0-9.389-7.611-17-17-17z" fill="#47EEB5"/><path d="M24.366 18.388a7 7 0 1 0-11.327 8.23l24.1 33.169a7 7 0 1 0 11.326-8.23l-24.1-33.169z" fill="#00A5F3"/><path fill-rule="evenodd" clip-rule="evenodd" d="M18.988 3.506l.069.184s0 .002-.002.003l2.864 8.33.588-2.382a3.568 3.568 0 0 1 4.126-2.654l.252.057a3.57 3.57 0 0 1 2.593 4.316l-2.885 11.725a3.56 3.56 0 0 1-.52 1.164 8.67 8.67 0 0 1-1.877 2.983l-.069.072a8.686 8.686 0 0 1-12.07.447l-.249-.232-3.019-2.933a8.803 8.803 0 0 1-.45-.47l-6.061-3.673a3.571 3.571 0 0 1-1.316-4.707l.124-.219a3.57 3.57 0 0 1 4.718-1.337l.198.112.894.541c.125-.284.267-.562.424-.834L4.205 9.991a3.571 3.571 0 0 1 .458-4.871l.182-.15a3.57 3.57 0 0 1 4.883.447l.14.17 3.256 4.188c.138-.03.277-.055.417-.077l-1.262-3.669a3.579 3.579 0 0 1 2.031-4.471l.208-.078a3.567 3.567 0 0 1 4.47 2.026z" fill="#E18E70"/><path fill-rule="evenodd" clip-rule="evenodd" d="M91.551 99.965c12.485 0 22.803 9.241 24.439 21.232a16.933 16.933 0 0 1-9.355 2.802H66.893c.287-13.322 11.217-24.034 24.658-24.034z" fill="#FFB7E3"/><path fill-rule="evenodd" clip-rule="evenodd" d="M98.446 71.584l9.888 19.096a7.045 7.045 0 0 1-6.256 10.283H82.303a7.044 7.044 0 0 1-6.255-10.283l9.888-19.096a7.044 7.044 0 0 1 12.51 0z" fill="#1CB0F6"/><path d="M85.635 99.432h-4v8h4v-8z" fill="#FFB7E3"/><path d="M105.635 99.432h-29v5h29v-5z" fill="#FF86D0"/><path d="M100.635 99.432h-4v8h4v-8z" fill="#FFB7E3"/><path fill-rule="evenodd" clip-rule="evenodd" d="M102.122 81.852a6 6 0 0 1 7.665 3.238l.087.214 11.549 30.087a17.044 17.044 0 0 1-9.831 7.875L98.671 89.604a6 6 0 0 1 3.451-7.752z" fill="#1CB0F6"/><path d="M100.278 1.284c22.483 3.965 37.495 25.405 33.531 47.888l-.578 3.275c-2.126 12.058-9.279 21.968-18.925 27.953l11.249 11.912a3.152 3.152 0 0 1 .127 4.184l-3.942 4.718a3.355 3.355 0 0 1-.507.484 3.152 3.152 0 0 1-4.417-.593l-12.392-16.24a41.162 41.162 0 0 1-19.08 1.113C62.86 82.013 47.848 60.574 51.813 38.09l.577-3.275c3.965-22.483 25.404-37.495 47.888-33.53z" fill="#FFB7E3"/><path d="M68.514 78.932c12.347 2.251 23.036 1.331 32.155-2.34 8.617-3.468 15.454-9.224 20.702-16.537a1.946 1.946 0 1 0-3.162-2.27c-4.841 6.746-11.109 12.023-18.994 15.196-9.77 3.934-21.605 4.456-35.754.862a1.939 1.939 0 0 0-.839-.026 41.322 41.322 0 0 0 5.892 5.115z" fill="#FF9BD8"/><path fill-rule="evenodd" clip-rule="evenodd" d="M99.093 9.89c17.895 3.156 29.845 20.221 26.689 38.117-3.155 17.896-20.221 29.845-38.117 26.69C69.77 71.54 57.82 54.476 60.975 36.58 64.132 18.684 81.198 6.735 99.094 9.89z" fill="#E18E70"/><path fill-rule="evenodd" clip-rule="evenodd" d="M92.647 47.334c1.89.402 3.716-.651 4.078-2.352.361-1.701-2.207-6.452-2.207-6.452s-4.279 3.295-4.64 4.996c-.362 1.701.878 3.406 2.769 3.808z" fill="#9E4D31"/><path d="M111.622 44.072a8.433 8.433 0 0 0-8.919 2.344c-.182.138-.337.32-.466.548l-.033.056a8.504 8.504 0 0 0-.661 1.03c-1.385 1.928-3.442 3.524-6.282 4.03l-.425.04a8.466 8.466 0 0 0-.517.07l-.254.046c-.137.021-.262.05-.375.084-3.986.978-6.773 4.757-6.403 8.99.409 4.676 4.514 8.136 9.169 7.728 10.275-.899 17.713-5.634 20.543-14.226 1.467-4.455-.94-9.263-5.377-10.74z" fill="#B23131"/><path d="M92.695 57.152c5.912 0 10.749 4.604 11.121 10.422-2.244.744-4.708 1.232-7.36 1.464-4.655.407-8.76-3.053-9.17-7.728-.087-.999.002-1.972.24-2.89a11.104 11.104 0 0 1 5.17-1.268z" fill="#E34545"/><path d="M98.557 9.547a32.767 32.767 0 0 1 13.311 5.549l-.598.383c-7.869 4.978-19.25 10.27-34.698 8.947a12.597 12.597 0 0 1-9.368-.54c-4.977-2.328-7.851-7.558-7.2-12.88.135-1.107 1.031-1.64 2.041-1.168l2.137.972c.525.018 1.4.295 2.624.83 4.409 1.925 8.073 1.732 11.176.953a32.756 32.756 0 0 1 20.575-3.046z" fill="#3D3D3D"/><path d="M73.43 31.564c3.791.535 7.649 1.81 11.475 4.088a32.485 32.485 0 0 1 6.67 5.292 7.545 7.545 0 0 0 1.816-9.31c-2.363-4.462-6.22-7.392-11.093-8.285a7.545 7.545 0 0 0-8.867 8.215zM115.917 37.774a7.545 7.545 0 0 0-8.243-10.515c-4.873.893-8.73 3.823-11.093 8.285a7.53 7.53 0 0 0-.223 6.606 31.767 31.767 0 0 1 4.659-2.323c5.204-2.079 10.208-2.58 14.9-2.053z" fill="#fff"/><path d="M108.314 37.87l.171-.969a5.005 5.005 0 0 0-6.407-5.652c.499.652.733 1.504.579 2.377a3.034 3.034 0 0 1-4.16 2.276l-.289 1.634a4.984 4.984 0 0 0 .552 3.297 31.454 31.454 0 0 1 2.257-1.006 31.35 31.35 0 0 1 7.297-1.957zM89.905 39.339a5.004 5.004 0 0 0 1.785-4.765l-.419-2.373a5.005 5.005 0 0 0-5.654-4.083 3.034 3.034 0 0 1-2.294 4.1 3.01 3.01 0 0 1-1.86-.265 4.986 4.986 0 0 0-.066 1.886 32.363 32.363 0 0 1 3.508 1.813 31.96 31.96 0 0 1 5 3.687z" fill="#3D3D3D"/><path fill-rule="evenodd" clip-rule="evenodd" d="M45.364 40.975c17.253.358 31.759 13.05 34.405 30.101l7.898 50.895a1.738 1.738 0 0 1-1.717 2.005l-58.466.023c-10.494.005-19.004-8.499-19.008-18.992 0-.703.039-1.405.116-2.104l3.651-32.893c1.864-16.79 16.23-29.385 33.121-29.035z" fill="#A570FF"/><path d="M77.204 69.976h1.44a6.605 6.605 0 0 1 .143 13.21l1.416 12.547c.877 7.765-4.707 14.771-12.472 15.647-.527.06-1.057.09-1.587.09H37.05V55.05c2.556 8.63 10.544 14.927 20.003 14.927h20.15z" fill="#FFC6B7"/><path fill-rule="evenodd" clip-rule="evenodd" d="M65.881 72.12h-7.613a8.727 8.727 0 0 0-8.727 8.728v6.638a4.271 4.271 0 0 0 4.27 4.27h4.457a8.727 8.727 0 0 0 8.728-8.727v-9.795c0-.615-.5-1.114-1.115-1.114z" fill="#fff"/><path fill-rule="evenodd" clip-rule="evenodd" d="M55.483 77.575a3.818 3.818 0 0 0-3.818 3.819v2.181a3.818 3.818 0 1 0 7.637 0v-2.181a3.818 3.818 0 0 0-3.819-3.819z" fill="#3D3D3D"/><path d="M52.485 107.594c2.527-4.873 5.405-6.854 8.51-5.303a1.147 1.147 0 0 1-1.025 2.053c-1.647-.823-3.422.4-5.449 4.306a1.147 1.147 0 0 1-2.036-1.056z" fill="#EE9583"/><path fill-rule="evenodd" clip-rule="evenodd" d="M47.816 96.543c1.949 0 3.528-1.57 3.528-3.508s-3.528-6.52-3.528-6.52-3.528 4.582-3.528 6.52c0 1.937 1.58 3.508 3.528 3.508z" fill="#EE9583"/><path d="M37.05 91.746V72.12h.433a8.727 8.727 0 0 1 8.728 8.728V87.3a4.457 4.457 0 0 1-4.457 4.457h-4.27c-.146 0-.29-.004-.434-.01z" fill="#fff"/><path d="M37.05 85.719V79.25a3.818 3.818 0 0 1 6.979 2.143v2.182a3.818 3.818 0 0 1-6.979 2.144z" fill="#3D3D3D"/><path d="M55.244 123.993L38.716 124v-11.431c0-.615.5-1.114 1.115-1.114H54.13c.615 0 1.114.499 1.114 1.114v11.424z" fill="#593F86"/></svg>