<svg viewBox="0 0 135 124" version="1.1" xmlns="http://www.w3.org/2000/svg" xmlns:xlink="http://www.w3.org/1999/xlink"><defs><path d="M28.384 11.012h79c9.39 0 17 7.61 17 17v79c0 9.388-7.61 17-17 17h-79c-9.389 0-17-7.612-17-17v-79c0-9.39 7.611-17 17-17z" id="a"/><circle id="b" cx="34.935" cy="34.935" r="34.935"/><path d="M5.758 14.541c3.855.75 7.607-1.87 8.38-5.849C14.913 4.713 12.415.88 8.56.13 4.704-.62.952 2 .18 5.98c-.774 3.98 1.724 7.813 5.58 8.562z" id="d"/></defs><g stroke="none" stroke-width="1" fill="none" fill-rule="evenodd"><mask fill="#fff"><use xlink:href="#a"/></mask><use fill="#46D7FF" xlink:href="#a"/><g><g><g><g transform="translate(64 23.9)"><mask id="c" fill="#fff"><use xlink:href="#b"/></mask><use fill="#0084C2" xlink:href="#b"/><path fill="#006AAD" fill-rule="nonzero" mask="url(#c)" d="M61.043 4.582l2.013 2.556L27.17 35.397l-2.013-2.556z"/></g><path fill="#C6775C" d="M76.86 63.88l22.592-15.946 22.276 15.947v49.985H76.86z"/><path d="M89.37 61.062a8.074 8.074 0 0 1 8.075 8.074v4.911a8.074 8.074 0 1 1-16.149 0v-4.911a8.074 8.074 0 0 1 8.075-8.074zM109.064 61.062a8.074 8.074 0 0 1 8.075 8.074v4.911a8.074 8.074 0 0 1-16.15 0v-4.911a8.074 8.074 0 0 1 8.075-8.074z" fill="#FFF"/><path d="M91.6 69.066a3.625 3.625 0 0 1 3.625 3.625v4.553a3.625 3.625 0 0 1-7.25 0v-4.553l.006-.212a2.654 2.654 0 0 0 2.817-3.324c.258-.058.527-.089.802-.089zM106.735 69.097a3.625 3.625 0 0 1 3.625 3.625v4.553a3.625 3.625 0 1 1-7.25 0v-4.553l.006-.213a2.654 2.654 0 0 0 2.817-3.324c.258-.057.526-.088.802-.088z" fill="#3D3D3D"/><g fill="#C6775C" fill-rule="nonzero"><path d="M80.883 77.198c2.988 0 10.843 1.981 14.619 4.894l.29.232-2.302 2.764c-1.64-1.366-4.364-2.499-7.668-3.34l-.47-.117c-1.902-.456-3.998-.807-4.425-.835l-.044-.001v-3.597zM97.1 61.89c-2.589 1.494-10.382 3.706-15.108 3.071l-.367-.056.612-3.544c2.103.363 5.029-.018 8.31-.941l.466-.135c1.875-.555 3.866-1.3 4.249-1.489l.04-.02 1.797 3.114z"/></g><g fill="#C6775C" fill-rule="nonzero"><path d="M118.811 77.198c-2.988 0-10.843 1.981-14.619 4.894l-.29.232 2.303 2.764c1.64-1.366 4.364-2.499 7.668-3.34l.47-.117c1.901-.456 3.997-.807 4.424-.835l.044-.001v-3.597zM102.595 61.89c2.588 1.494 10.381 3.706 15.108 3.071l.366-.056-.612-3.544c-2.103.363-5.028-.018-8.31-.941l-.466-.135c-1.875-.555-3.865-1.3-4.248-1.489l-.04-.02-1.798 3.114z"/></g><path d="M82.752 83.838h34.079c9.884 0 17.896 8.012 17.896 17.896 0 9.883-8.012 17.895-17.896 17.895H82.752c-9.884 0-17.896-8.012-17.896-17.895 0-9.884 8.012-17.896 17.896-17.896z" fill="#3D3D3D"/><g fill-rule="nonzero"><path d="M101.116 95.011a4.564 4.564 0 0 1-7.108 5.724l-.139-.172a4.06 4.06 0 0 0-4-1.517l-.206.046a4.565 4.565 0 0 1-2.208-8.858 13.186 13.186 0 0 1 13.66 4.777z" fill="#A95137"/><path d="M101.116 95.011c.44.575.723 1.222.855 1.888a2.031 2.031 0 0 1-2.299.72l-12.467-4.294a2.028 2.028 0 0 1-1.319-2.364c.46-.332.987-.582 1.568-.726a13.185 13.185 0 0 1 13.662 4.776z" fill="#FFF"/><path d="M92.778 97.39a4.567 4.567 0 0 1 3.067 4.653 4.522 4.522 0 0 1-1.837-1.308l-.139-.172a4.06 4.06 0 0 0-4-1.517l-.206.046a4.56 4.56 0 0 1-2.127.02 4.564 4.564 0 0 1 5.242-1.722z" fill="#FF4B4B"/></g><path d="M99.168 87.545a4.71 4.71 0 1 0 0-9.42 4.71 4.71 0 0 0 0 9.42z" fill="#C6775C"/><path d="M119.114 41.915l-5.84 13.034a7.375 7.375 0 0 0-.491 2.644c0 4.23 3.577 7.66 7.99 7.66.941 0 1.875-.16 2.758-.47 4.142-1.46 6.265-5.863 4.742-9.834l-5.84-13.034a1.732 1.732 0 0 0-1.05-1.005c-.916-.323-1.932.127-2.27 1.005z" fill="#7AF0F2" fill-rule="nonzero"/><path d="M117.35 59.926a2.664 2.664 0 1 0 0-5.328 2.664 2.664 0 0 0 0 5.328z" fill="#FFF" fill-rule="nonzero"/></g><path d="M86.68 28.054L45.497 6.158a6.16 6.16 0 0 0-8.33 2.547L7.422 64.65a6.16 6.16 0 0 0 2.547 8.33l41.18 21.897a6.16 6.16 0 0 0 8.331-2.547l29.746-55.944a6.16 6.16 0 0 0-2.547-8.33z" fill="#FF4B4B" fill-rule="nonzero"/><path d="M82.765 32.854l-13.986-7.436a1.76 1.76 0 0 0-2.38.727L38.306 78.981a1.76 1.76 0 0 0 .727 2.38l13.986 7.437a1.76 1.76 0 0 0 2.38-.728l28.094-52.836a1.76 1.76 0 0 0-.728-2.38z" fill="#FFF" fill-rule="nonzero"/><path d="M38.264 2.178L76.337 22.42a6.16 6.16 0 0 1 2.547 8.331L49.138 86.696a6.16 6.16 0 0 1-8.33 2.547L2.734 68.999a4.4 4.4 0 0 1-1.82-5.95L32.314 3.996a4.4 4.4 0 0 1 5.95-1.82z" fill="#FF5656"/><path d="M71.114 26.62L39.257 9.683a2.64 2.64 0 0 0-2.479 4.662l31.857 16.939a2.64 2.64 0 1 0 2.479-4.662zM43.68 68.844L20.37 56.45a1.76 1.76 0 0 0-2.38.728l-4.544 8.547a1.76 1.76 0 0 0 .727 2.38l23.31 12.394a1.76 1.76 0 0 0 2.38-.728l4.545-8.547a1.76 1.76 0 0 0-.728-2.38z" fill="#FFD900" fill-rule="nonzero"/><g transform="translate(33 39.442)"><mask fill="#fff"><use xlink:href="#d"/></mask></g><path stroke="#FF5656" stroke-width="2.64" stroke-linecap="square" d="M13.775 60.418l29.526 15.699"/><g fill="#FFF"><path d="M54.235 120.494a6 6 0 1 0-5.26-10.786 6 6 0 0 0 5.26 10.786z" fill-rule="nonzero"/><path d="M28.546 84.838l13.363-6.482a1.6 1.6 0 0 1 2.21.914l8.478 24.388a1.6 1.6 0 0 1-.814 1.965l-7.735 3.752a1.6 1.6 0 0 1-2.04-.566L27.905 87.15a1.6 1.6 0 0 1 .642-2.312zM40.217 119.636a4.8 4.8 0 1 0-6.788-6.788 4.8 4.8 0 0 0 6.788 6.788zM17.377 102.717L23.7 96.31a1.6 1.6 0 0 1 2.424.17l8.333 11.239a1.6 1.6 0 0 1-.146 2.077l-3.565 3.613a1.6 1.6 0 0 1-2.108.149l-11.09-8.445a1.6 1.6 0 0 1-.17-2.397z"/></g></g></g><g fill="#FFD900" fill-rule="nonzero"><path d="M50.104 28.48c7.676 4.08 10.59 13.612 6.509 21.288-4.081 7.675-13.613 10.59-21.288 6.508-7.676-4.081-10.59-13.613-6.51-21.288 4.032-7.582 13.382-10.518 21.008-6.655l.281.146zm-3.087 17.884l-3.935-2.093-5.347 9.63c2.45.167 6.205-2.616 9.086-7.22l.196-.317zm-6.584-3.502l-3.429-1.822c-2.013 4.363-2.486 8.541-1.609 10.894l5.038-9.072zm-6.081-3.233l-3.514-1.867a12.746 12.746 0 0 0 1.14 11.48c-.018-2.735.72-5.93 2.153-9.133l.22-.48zm18.83 10.014l-3.512-1.869c-1.905 3.19-4.251 5.753-6.642 7.343a12.75 12.75 0 0 0 10.155-5.474zM42.4 29.639a12.749 12.749 0 0 0-10.153 5.473l3.513 1.869c1.905-3.189 4.25-5.752 6.64-7.342zm4.694 1.23c-1.76.193-4.023 1.656-6.145 4.055l-.244.28-.405.488a24.748 24.748 0 0 0-1.887 2.698l3.476 1.849 5.205-9.37zm6.358 4.647v.01c.016 2.869-.798 6.242-2.374 9.6l3.513 1.867a12.747 12.747 0 0 0-1.139-11.477zm-3.686-3.28l-5.227 9.412 3.886 2.067c2.193-4.753 2.559-9.286 1.341-11.48z"/></g></g></svg>