<svg viewBox="0 0 135 124" version="1.1" xmlns="http://www.w3.org/2000/svg"><g stroke="none" stroke-width="1" fill="none" fill-rule="evenodd"><g fill-rule="nonzero"><g transform="translate(11)"><path d="M113 27.999v79a17 17 0 0 1-11.11 16 15 15 0 0 1-2.5.72 18 18 0 0 1-3.39.28H17c-.89 0-1.78-.07-2.66-.21a15.16 15.16 0 0 1-2.52-.6A17 17 0 0 1 0 106.999v-79c0-9.39 7.611-17 17-17h79c9.389 0 17 7.61 17 17z" fill="#FFC800"/><path d="M101.89 123a15 15 0 0 1-2.5.72A18 18 0 0 1 96 124H17c-.89 0-1.78-.07-2.66-.21a15.16 15.16 0 0 1-2.52-.6l6.69-39.77A11.53 11.53 0 0 1 27.69 74a10.57 10.57 0 0 1 2.19-.22h55.08A11.5 11.5 0 0 1 95 82.49a9 9 0 0 1 .2.93l6.69 39.58z" fill="#F89700"/><path d="M22.1 107.26a9 9 0 1 1 18 0c0 5-9 15.81-9 15.81s-9-10.83-9-15.81z" fill="#F89700"/><path d="M36.12 83.12l3.75 21.53a3.13 3.13 0 0 0 4.62 2.2l9.72-5.44-18.09-18.29zm36.69 0l-3.74 21.53a3.14 3.14 0 0 1-4.63 2.2l-9.72-5.44 18.09-18.29z" fill="#E27800"/><path d="M83.86 35.43H28.25L31 11.52A12.84 12.84 0 0 1 43.7.13h24.71a12.83 12.83 0 0 1 12.75 11.39l2.7 23.91z" fill="#F89700"/><path d="M96.22 35.37a19.31 19.31 0 0 1-.74 5.26C92 53.37 75.79 63 56.4 63c-19.39 0-35.63-9.6-39.12-22.28a19.11 19.11 0 0 1-.72-5.34 26 26 0 0 1 5.67-15.1C29.21 11 42 3.82 56.4 3.9c14.4.08 27 7 34 16.08l.06.05c3.64 4.76 5.76 10.11 5.76 15.34z" fill="#FFB100"/><circle fill="#FFC800" cx="29.16" cy="61.56" r="9.45"/><circle fill="#FFD900" cx="29.16" cy="61.56" r="9.45"/><circle fill="#FFD900" cx="83.75" cy="61.56" r="9.45"/><path d="M83 27.65a28.54 28.54 0 0 0-26.58-18.1 28.52 28.52 0 0 0-19.33 7.54l-.85.82a28.54 28.54 0 0 0-7.48 13 28.23 28.23 0 0 0-.88 6.6V56.8a1.18 1.18 0 0 0-.16.38.76.76 0 0 0 0 .15V74.7A11.11 11.11 0 0 0 31 82.62l16.25 16c5.03 4.94 13.09 4.94 18.12 0l.39-.39.17-.16 5.07-5 10.42-10.24.21-.21a10.88 10.88 0 0 0 1.37-1.7 8.54 8.54 0 0 0 .5-.82 11 11 0 0 0 1.5-5.4V38.08a28.41 28.41 0 0 0-2-10.43z" fill="#FFD900"/><path d="M63.95 16.92h4.81v11.93a2.4 2.4 0 1 1-4.8 0V16.92h-.01zm-12.73 1.59H56v16.18a2.4 2.4 0 1 1-4.8 0V18.51h.02zm-6.62-1.59h4.81v11.93a2.4 2.4 0 1 1-4.8 0V16.92h-.01z" fill="#FFE865"/><path d="M85 68.62v6.08a11.06 11.06 0 0 1-3.32 7.92l-16.25 16c-5.027 4.939-13.083 4.939-18.11 0L31 82.62a11.1 11.1 0 0 1-3.3-7.92v-6.08l21.78-2.88c4.604-.6 9.266-.6 13.87 0L85 68.62z" fill="#FFC800"/><rect fill="#FFE865" x="38.48" y="43.5" width="13.38" height="18.51" rx="6.69"/><rect fill="#E27800" x="44" y="48.58" width="5.38" height="8.78" rx="2.69"/><rect fill="#FFE865" transform="rotate(180 67.67 52.765)" x="60.98" y="43.51" width="13.38" height="18.51" rx="6.69"/><rect fill="#E27800" transform="rotate(180 66.08 52.96)" x="63.39" y="48.57" width="5.38" height="8.78" rx="2.69"/><path d="M36.71 21.52v4.12a25.72 25.72 0 0 1-3.3 12.59 25.7 25.7 0 0 0-3.3 12.59v16.91H27.7V39.37c0-7.04 9.01-17.85 9.01-17.85zm39.29 0v4.12a25.62 25.62 0 0 0 3.3 12.59 25.7 25.7 0 0 1 3.3 12.59v16.91H85V39.37c0-7.04-9-17.85-9-17.85z" fill="#F89700"/><rect fill="#FFB100" transform="rotate(180 56.415 56.38)" x="54.18" y="44.61" width="4.47" height="23.54" rx="2.23"/><path d="M61 61.19l-4.54-3.84-4.54 3.84a3.37 3.37 0 0 0 2.18 5.95h4.72a3.37 3.37 0 0 0 3.37-3.37A3.36 3.36 0 0 0 61 61.19z" fill="#FFB100"/><circle fill="#FFB100" cx="56.42" cy="66.18" r="3.28"/><path d="M66.83 76.55H45.96a1.3 1.3 0 0 1-1.3-1.3 4.74 4.74 0 0 1 4.74-4.74h14a4.74 4.74 0 0 1 4.74 4.74 1.3 1.3 0 0 1-1.31 1.3z" fill="#FFE865"/><path d="M85 40.64c0-10.94-12.79-19.8-28.57-19.8-15.78 0-28.61 8.86-28.61 19.8l-4.15-2.54 8.76-18.24 14.26-10 11.74-1.3 17.17 4.59L92 32.63l-7 8.01z" fill="#FFB100"/><circle fill="#F89700" cx="83.75" cy="67.73" r="1.21"/><circle fill="#F89700" cx="28.9" cy="67.73" r="1.21"/><path d="M51.93 80.15h9v.95a4.49 4.49 0 0 1-8.98 0v-.95h-.02z" fill="#F89700"/><path fill="#FFD900" d="M75.95 57.35l-14.99 3.84 10.62 4.1z"/><path d="M77.6 44.88h-.2a60.51 60.51 0 0 1-15.92-3.74 2.83 2.83 0 1 1 2.1-5.25 55.83 55.83 0 0 0 14.22 3.33 2.832 2.832 0 0 1-.2 5.66zm-42.38 2.83a2.832 2.832 0 0 1-.2-5.66 56 56 0 0 0 14.23-3.34A2.844 2.844 0 1 1 51.34 44a60.44 60.44 0 0 1-15.92 3.7l-.2.01z" fill="#F89700"/><path d="M76.67 103.24H74a9.26 9.26 0 0 1-8.74-12.34l3.32-10h27l-3.94 11.73a15.88 15.88 0 0 1-14.97 10.61z" fill="#FFD900"/><path d="M71.08 93.66a4.88 4.88 0 0 1-4.71-6.16l1.74-6.5-3.39.36a4.87 4.87 0 0 1-1-9.68l10.4-1.09a4.86 4.86 0 0 1 5.21 6.07L75.78 90a4.86 4.86 0 0 1-4.7 3.66z" fill="#FFD900"/><path d="M79.85 93.66a4.88 4.88 0 0 1-4.71-6.16l1.27-4.81-1.94.62a4.867 4.867 0 1 1-3-9.26l10.4-3.34a4.87 4.87 0 0 1 6.19 5.87L84.55 90a4.86 4.86 0 0 1-4.7 3.66z" fill="#FFD900"/><path d="M85.76 96.82a4.86 4.86 0 0 1-4.49-6.75L83.4 85l-2.89.35a4.865 4.865 0 0 1-1.16-9.66l11.2-1.34a4.86 4.86 0 0 1 5.06 6.71l-5.37 12.77a4.86 4.86 0 0 1-4.48 2.99z" fill="#FFD900"/><path fill="#FFD900" d="M89.43 112.27H69.25L64.77 93.1h20.18z"/><path d="M95.34 124h-28l-3.06-12.94a4 4 0 0 1 3.56-4.93H88a4 4 0 0 1 3.85 3.1L95.34 124z" fill="#F89700"/><path d="M31.12 105.09a2 2 0 0 1 2 2v17h-3.96V107a2 2 0 0 1 2-2l-.04.09z" fill="#E27800"/></g></g></g></svg>