<svg id="Layer_3" data-name="Layer 3" xmlns="http://www.w3.org/2000/svg" viewBox="0 0 135 124"><defs><style>.cls-2{fill:#f58f00}.cls-3{fill:#2d2d2d}.cls-4{fill:#4b4b4b}.cls-5{fill:#666161}.cls-6{fill:#fff}.cls-8{fill:#cd7900}</style></defs><rect x="10.75" y="11" width="113" height="113" rx="17" ry="17" fill="#aee560"/><path class="cls-2" d="M43.74 26h-18a7.5 7.5 0 0 1 0-15h18a7.5 7.5 0 0 1 0 15z"/><path class="cls-3" d="M65 111.56h-1.17a3 3 0 0 1-3-3V87.49h10.9l.09 7.16a12.32 12.32 0 0 1-.54 3.72l-3.4 11.07a3 3 0 0 1-2.88 2.12z"/><path class="cls-4" d="M72.78 7.5l-.57 44.7-.18 14.11-.04 3.36-.22 16.77-.12 9.78h-31.1V7.5h32.23z"/><path class="cls-5" d="M76.67 37H34.84A3.89 3.89 0 0 1 31 32.47l3.19-19.31a7.26 7.26 0 0 1 7.16-6.08h28.8a7.26 7.26 0 0 1 7.16 6.08l3.19 19.31A3.89 3.89 0 0 1 76.67 37z"/><path class="cls-2" d="M49.76 72.49a7.5 7.5 0 0 1-10.35-2.3l-6.66-10.46a9.46 9.46 0 0 0-8-4.4A22.1 22.1 0 0 1 7.42 47a20.46 20.46 0 0 1-1.49-2.1A20.94 20.94 0 0 1 4.39 42a20.44 20.44 0 0 1-1-2.69A22.16 22.16 0 0 1 21 11.33a21.43 21.43 0 0 1 3.74-.33 7.5 7.5 0 1 1 0 15 7.16 7.16 0 0 0-1 14.25 5.37 5.37 0 0 0 1 .08c.55 0 1.09 0 1.63.05a25.88 25.88 0 0 1 4 .58q1.08.26 2.13.6a24.64 24.64 0 0 1 12.46 9.37l.49.75 4 6.25 2.68 4.21a5.39 5.39 0 0 1 .3.52 7.48 7.48 0 0 1-2.67 9.83z"/><path class="cls-4" d="M21.78 98.9l28.3-20.41 18.37 11.25-.66 6.7-6.68 8.65A20.47 20.47 0 0 1 46 111.73H18.86a2.4 2.4 0 0 1-2.41-2.41 12.83 12.83 0 0 1 5.33-10.42z"/><path class="cls-2" d="M49.25 92.32H35.77c-2.23 0-3.39-1.81-2.6-4l2-5.74a6.34 6.34 0 0 1 5.48-4h13.53c2.23 0 3.39 1.81 2.59 4l-2 5.74a6.34 6.34 0 0 1-5.52 4z"/><path class="cls-4" d="M49.54 88.79H38l2.41-6.76h11.54l-2.41 6.76z"/><path class="cls-3" d="M40.39 35.83h31.79v7.52H40.39z"/><circle class="cls-6" cx="39.2" cy="80.42" r="1.62"/><path class="cls-3" d="M62.78 63.23l9 4.21-.18 18.07L60 66.34a2.19 2.19 0 0 1 2.78-3.11zM72 48.61l-.18 15.21L62 48a2.18 2.18 0 0 1 2.84-3.1zM63.24 36.16L64.48 32a1.56 1.56 0 0 1 2.93-.14L69.5 37z"/><path class="cls-4" d="M71.48 96.06H71a6.13 6.13 0 0 0-4.76 2.26l-2.46 3-1.58-9.53 7.26 1.59zM100.7 112.06h-1.18a3 3 0 0 1-3-3V88h10.91l.08 7.16a12 12 0 0 1-.53 3.72l-3.4 11.07a3 3 0 0 1-2.88 2.11z"/><path class="cls-5" d="M107.43 97.05h-31.1V8.92h32.23l-1.13 88.13z"/><path d="M113.36 37H71.53a3.9 3.9 0 0 1-3.84-4.53l3.2-19.31a7.26 7.26 0 0 1 7.16-6.08h28.79a7.24 7.24 0 0 1 7.16 6.08l3.2 19.31a3.9 3.9 0 0 1-3.84 4.53z" fill="#938579"/><path class="cls-5" d="M58.06 99.23l28.29-20.4 18.37 11.24-.66 6.7-6.67 8.66a20.52 20.52 0 0 1-15.1 6.63H55.13a2.41 2.41 0 0 1-2.41-2.41 12.84 12.84 0 0 1 5.34-10.42z"/><path class="cls-2" d="M85.94 92.82H72.47c-2.23 0-3.4-1.81-2.6-4l2-5.74a6.34 6.34 0 0 1 5.49-4h13.51c2.23 0 3.4 1.81 2.6 4l-2 5.74a6.33 6.33 0 0 1-5.53 4z"/><path class="cls-5" d="M86.23 89.29H74.69l2.42-6.76h11.54l-2.42 6.76z"/><path class="cls-4" d="M76.33 37h31.79v7.52H76.33z"/><circle class="cls-6" cx="75.13" cy="81.42" r="1.62"/><path class="cls-4" d="M98.74 64.23l9 4.21-.22 18.07L96 67.34a2.19 2.19 0 0 1 2.74-3.11zM108 49.61l-.18 15.21L97.92 49a2.18 2.18 0 0 1 2.84-3.1zM99.66 37.32l1.24-4.12a1.56 1.56 0 0 1 2.93-.14l2.09 5.1z"/><path class="cls-5" d="M107.41 97.06H107a6.13 6.13 0 0 0-4.76 2.26l-2.46 3-1.58-9.53 7.26 1.59z"/><path class="cls-8" d="M27.24 11v.87L26.58 20a2.52 2.52 0 0 1-5 0l-.62-8.13a3.23 3.23 0 0 1 0-.54 21.43 21.43 0 0 1 3.78-.33zM15.34 27.47A2.52 2.52 0 0 1 12 28l-6.83-4.51a2.69 2.69 0 0 1-.27-.2 22 22 0 0 1 3.53-5.13 2.17 2.17 0 0 1 .6.4l6 5.5a2.51 2.51 0 0 1 .31 3.41zM13.74 40.65l-7.11 4a2.38 2.38 0 0 1-.7.26A20.94 20.94 0 0 1 4.39 42a20.44 20.44 0 0 1-1-2.69A2.24 2.24 0 0 1 4 39l7.64-2.85a2.51 2.51 0 0 1 2.1 4.55zM30.33 41a2.17 2.17 0 0 1-.1.62l-2.31 8.31a2.66 2.66 0 0 1-5.21-1l1-8.55a5.37 5.37 0 0 0 1 .08c.55 0 1.09 0 1.63.05a25.88 25.88 0 0 1 3.99.49zM44.92 50.93a2 2 0 0 1-.26.24l-6.36 5.11a2.52 2.52 0 0 1-3.43-3.66l5.52-6a2.24 2.24 0 0 1 .37-.32 24.29 24.29 0 0 1 4.16 4.63zM52.36 62.66a2.47 2.47 0 0 1-1.31 1.23l-7.57 3a2.52 2.52 0 0 1-2.21-4.51l7-4.14a2.61 2.61 0 0 1 1.09-.34l2.68 4.21a5.39 5.39 0 0 1 .32.55z"/></svg>