<svg viewBox="0 0 135 125" fill="none" xmlns="http://www.w3.org/2000/svg"><g clip-path="url(#clip0)"><path d="M107 12H28c-9.389 0-17 7.611-17 17v79c0 9.389 7.611 17 17 17h79c9.389 0 17-7.611 17-17V29c0-9.389-7.611-17-17-17z" fill="#FFCA00"/><path d="M122.44 21.93L20.92 123.45a16.938 16.938 0 0 0 7.08 1.56h41.32L124 70.33V29.01a16.938 16.938 0 0 0-1.56-7.08zM50.32 70.07l58-58c-.43 0-.87-.07-1.31-.07H58.42L25.34 45.09c-6.904 6.904-6.904 18.096 0 25s18.097 6.904 25 0l-.02-.02z" fill="#FFD900"/><path d="M118.52 66.537l-35.507-20.5a2 2 0 0 0-2.732.732l-30 51.962a2 2 0 0 0 .732 2.732l35.507 20.5a2 2 0 0 0 2.732-.732l30-51.962a2 2 0 0 0-.732-2.732z" fill="#FFF1A2"/><path fill-rule="evenodd" clip-rule="evenodd" d="M35.529 109.299c-3.442 1.605-7.557.066-9.19-3.438l-24.09-51.66c-1.634-3.503-.168-7.645 3.274-9.25l39.171-18.266a8.703 8.703 0 0 1 5.69-.583 8.698 8.698 0 0 1 4.103-3.983L93.66 3.853c3.442-1.605 7.556-.066 9.19 3.438l24.09 51.66c1.633 3.503.168 7.645-3.274 9.25l-88.137 41.098z" fill="#E27903"/><path d="M31.56 18.51l-13.594 6.34a2 2 0 0 0-.967 2.657l19.863 42.596a2 2 0 0 0 2.657.968l13.595-6.34a2 2 0 0 0 .968-2.657L34.218 19.477a2 2 0 0 0-2.657-.967z" fill="#F89700"/><path fill-rule="evenodd" clip-rule="evenodd" d="M33.944 103.139c-1.213.565-2.65.051-3.21-1.15L7.826 52.864c-.56-1.2-.03-2.632 1.183-3.198l39.634-18.481a5.78 5.78 0 0 1 5.437.282 5.775 5.775 0 0 1 3.277-4.346l37.89-17.668c1.214-.566 2.65-.051 3.21 1.149l22.908 49.125c.56 1.2.03 2.632-1.183 3.198l-86.239 40.214z" fill="#FFF1A2"/><path fill-rule="evenodd" clip-rule="evenodd" d="M33.93 104.251c-.968.452-2.226-.197-2.809-1.448l-1.056-2.266 43.292-20.188c1.048-.488 2.265-.333 3.347.309.188-1.158.779-2.134 1.709-2.656l.204-.105 42.078-19.622 1.057 2.266c.557 1.195.298 2.507-.569 3.016l-.128.067-87.124 40.627z" fill="#FFCA00"/><path d="M45.98 38.706L14.257 53.498a1.5 1.5 0 1 0 1.268 2.719l31.721-14.792a1.5 1.5 0 1 0-1.268-2.719zM49.167 45.543l-31.72 14.792a1.5 1.5 0 0 0 1.267 2.719l31.721-14.792a1.5 1.5 0 0 0-1.268-2.719zM52.548 52.793l-31.72 14.792a1.5 1.5 0 0 0 1.267 2.719l31.721-14.792a1.5 1.5 0 1 0-1.268-2.719zM55.93 60.044L24.207 74.836a1.5 1.5 0 0 0 1.268 2.719l31.721-14.792a1.5 1.5 0 0 0-1.268-2.719zM95.826 15.462l-31.72 14.792a1.5 1.5 0 1 0 1.267 2.719l31.72-14.792a1.5 1.5 0 1 0-1.267-2.719zM99.014 22.299l-31.72 14.792a1.5 1.5 0 0 0 1.267 2.719l31.721-14.792a1.5 1.5 0 1 0-1.268-2.719zM112.538 51.301l-31.72 14.792a1.5 1.5 0 0 0 1.267 2.719l31.721-14.792a1.5 1.5 0 0 0-1.268-2.719z" fill="#FFCA00"/><path d="M85.175 37.579l-14.5 6.762a1.5 1.5 0 0 0 1.267 2.719l14.501-6.762a1.5 1.5 0 0 0-1.268-2.72z" fill="#FFD7D8"/><path d="M109.157 44.05l-31.72 14.792a1.5 1.5 0 1 0 1.267 2.719l31.721-14.792a1.5 1.5 0 1 0-1.268-2.719zM44.81 74.056l-17.22 8.03a1.5 1.5 0 0 0 1.267 2.719l17.22-8.03a1.5 1.5 0 1 0-1.268-2.719zM48.19 81.307l-17.22 8.03a1.5 1.5 0 0 0 1.268 2.719l17.22-8.03a1.5 1.5 0 0 0-1.268-2.719z" fill="#FFCA00"/><path d="M87.556 42.83l-14.5 6.762a1.5 1.5 0 1 0 1.267 2.719l14.501-6.762a1.5 1.5 0 1 0-1.268-2.72z" fill="#E5E5E5"/><path fill-rule="evenodd" clip-rule="evenodd" d="M54.305 106.986l53.528-9.438a2.4 2.4 0 0 1 2.78 1.947l1.077 6.105a2.401 2.401 0 0 1-1.947 2.781l-53.544 9.441a1.2 1.2 0 0 1-.583-.042l-8.37-2.748a1.2 1.2 0 0 1-.392-2.063l6.893-5.724c.16-.134.353-.223.558-.259z" fill="#F89700"/><path d="M114.726 96.332l-8.075 1.424a2.4 2.4 0 0 0-1.947 2.78l1.077 6.106a2.4 2.4 0 0 0 2.78 1.947l8.075-1.424a2.4 2.4 0 0 0 1.947-2.78l-1.076-6.106a2.4 2.4 0 0 0-2.781-1.947z" fill="#F89700"/><path d="M111.181 96.957l-11.818 2.084 1.91 10.833 11.818-2.084-1.91-10.833z" fill="#E27903"/><path fill-rule="evenodd" clip-rule="evenodd" d="M54.063 107.032l1.909 10.827a1.148 1.148 0 0 1-.277-.055l-8.8-2.85a1.2 1.2 0 0 1-.368-2.088l7.294-5.688c.075-.058.156-.107.242-.146z" fill="#FFF1A2"/><path fill-rule="evenodd" clip-rule="evenodd" d="M50.234 110.629l1.01 5.733-4.349-1.408a1.2 1.2 0 0 1-.368-2.088l3.55-2.767c.071.166.125.344.157.53z" fill="#E27903"/><path fill-rule="evenodd" clip-rule="evenodd" d="M72.338 23.183c.202-.81.892-1.418 1.762-1.553l1.293-.202c1.576-.246 2.978-1.048 3.925-2.245l.594-.75c.533-.674 1.452-.97 2.332-.75l12.516 3.12c.85.212 1.509.866 1.69 1.677l.232 1.033c.343 1.526 1.235 2.908 2.522 3.907l.871.675c.684.531.995 1.379.796 2.176l-9.14 36.662c-.185.74-.778 1.313-1.545 1.509l-.18.038-1.086.188c-1.499.259-2.85.974-3.852 2.033l-.209.233-.69.803c-.502.586-1.304.858-2.097.724l-.182-.038-12.516-3.12c-.822-.205-1.462-.822-1.67-1.59l-.037-.167-.172-.942c-.258-1.408-1.031-2.696-2.178-3.64l-.234-.184-1.047-.785c-.658-.494-.983-1.276-.86-2.037l.034-.163 9.128-36.612z" fill="#FFB100"/><path d="M88.649 61.931l7.492-30.048a2.016 2.016 0 0 0-1.469-2.444l-16.464-4.105a2.016 2.016 0 0 0-2.444 1.468l-7.492 30.049a2.016 2.016 0 0 0 1.469 2.444l16.464 4.104a2.016 2.016 0 0 0 2.444-1.468z" stroke="#E27903" stroke-width="2.016" stroke-linejoin="round"/><path d="M81.18 41.041l-2.867-.29a1.176 1.176 0 0 1-.853-1.83l1.62-2.382a.686.686 0 0 0 .103-.531l-.61-2.815a1.176 1.176 0 0 1 1.478-1.378l2.765.805c.18.052.375.029.537-.066l2.489-1.45a1.176 1.176 0 0 1 1.767.98l.089 2.878a.686.686 0 0 0 .229.49l2.148 1.92a1.176 1.176 0 0 1-.386 1.983l-2.71.974a.686.686 0 0 0-.396.37l-1.161 2.635a1.176 1.176 0 0 1-2.005.246l-1.765-2.276a.686.686 0 0 0-.473-.263z" fill="#E27903"/><path d="M87.292 48.52l-2.69 10.873M83.217 47.505l-2.69 10.872M79.82 46.658l-2.689 10.873M75.746 45.642l-2.69 10.872" stroke="#E27903" stroke-width="2.016" stroke-linecap="round" stroke-linejoin="round"/><path fill-rule="evenodd" clip-rule="evenodd" d="M34.837 45.8c-.16-.82.208-1.662.94-2.153l1.087-.73c1.324-.888 2.255-2.207 2.608-3.693l.221-.93c.199-.837.907-1.493 1.797-1.666l12.662-2.46c.86-.168 1.733.145 2.241.804l.646.838c.956 1.239 2.348 2.114 3.937 2.475l1.075.244c.845.192 1.484.83 1.64 1.636l7.21 37.09c.146.749-.15 1.518-.762 2.02l-.147.111-.904.629c-1.25.868-2.171 2.087-2.632 3.47l-.091.3-.285 1.019c-.209.743-.82 1.33-1.595 1.543l-.182.043-12.662 2.46c-.831.162-1.672-.125-2.185-.735l-.105-.135-.553-.78c-.829-1.168-2.074-2.009-3.512-2.38l-.29-.067-1.281-.27c-.805-.169-1.43-.74-1.64-1.482l-.039-.162-7.2-37.039z" fill="#FFB100"/><path d="M65.995 74.023l-5.91-30.398a2.016 2.016 0 0 0-2.363-1.595l-16.656 3.238a2.016 2.016 0 0 0-1.595 2.364l5.91 30.399a2.016 2.016 0 0 0 2.363 1.594L64.4 76.387a2.016 2.016 0 0 0 1.595-2.364z" stroke="#E27903" stroke-width="2.016" stroke-linejoin="round"/><path d="M50.396 58.248l-2.72.948a1.176 1.176 0 0 1-1.547-1.299l.462-2.843a.686.686 0 0 0-.131-.525l-1.742-2.293a1.176 1.176 0 0 1 .756-1.873l2.847-.44a.685.685 0 0 0 .459-.286l1.642-2.366a1.176 1.176 0 0 1 2.016.14l1.297 2.572a.686.686 0 0 0 .415.348l2.758.831a1.176 1.176 0 0 1 .488 1.96l-2.044 2.03a.685.685 0 0 0-.203.5l.062 2.88a1.176 1.176 0 0 1-1.714 1.071l-2.561-1.318a.686.686 0 0 0-.54-.037z" fill="#E27903"/><path d="M59.098 62.443l2.157 10.99M54.975 63.244l2.157 10.99M51.54 63.912l2.157 10.99M47.416 64.714l2.158 10.99" stroke="#E27903" stroke-width="2.016" stroke-linecap="round" stroke-linejoin="round"/></g><defs><clipPath id="clip0"><path fill="#fff" d="M0 0h135v125H0z"/></clipPath></defs></svg>