<svg viewBox="0 0 135 124" fill="none" xmlns="http://www.w3.org/2000/svg"><path fill-rule="evenodd" clip-rule="evenodd" d="M28 11h79c9.389 0 17 7.611 17 17v79c0 9.389-7.611 17-17 17H28c-9.389 0-17-7.611-17-17V28c0-9.389 7.611-17 17-17z" fill="#4B4B4B"/><path d="M27.104 36.646a1.983 1.983 0 1 0-3.965 0v76.512a1.983 1.983 0 0 0 3.965 0V36.646z" fill="#986FD8"/><path d="M37.822 35.023a1.983 1.983 0 1 0-1.026-3.83l-32.88 8.81a1.983 1.983 0 0 0 1.026 3.83l32.88-8.81zM100.017 102.159a1.982 1.982 0 0 0-.439 2.769l6.848 9.425a1.983 1.983 0 1 0 3.208-2.331l-6.847-9.425a1.983 1.983 0 0 0-2.77-.438z" fill="#986FD8"/><path d="M101.198 102.159a1.983 1.983 0 0 1 .439 2.769l-6.848 9.425a1.984 1.984 0 0 1-3.208-2.331l6.847-9.425a1.983 1.983 0 0 1 2.77-.438z" fill="#986FD8"/><path d="M34.43 66.714H9.974A2.974 2.974 0 0 0 7 69.688V98.44a2.974 2.974 0 0 0 2.974 2.974H34.43a2.974 2.974 0 0 0 2.974-2.974V69.688a2.974 2.974 0 0 0-2.974-2.974z" fill="#CE82FF"/><path d="M37.568 66.714H6.338c-.913 0-1.652.74-1.652 1.652v2.066c0 .912.74 1.652 1.652 1.652h31.23c.913 0 1.653-.74 1.653-1.652v-2.066c0-.912-.74-1.652-1.653-1.652zM37.568 98.11H6.338c-.913 0-1.652.74-1.652 1.652v2.065c0 .913.74 1.653 1.652 1.653h31.23c.913 0 1.653-.74 1.653-1.653v-2.065c0-.913-.74-1.653-1.653-1.653z" fill="#986FD8"/><path d="M112.382 10.05L92.434 25.635a2.23 2.23 0 0 0-.385 3.132l13.174 16.862a2.232 2.232 0 0 0 3.132.384l19.948-15.585a2.231 2.231 0 0 0 .384-3.13l-13.174-16.863a2.23 2.23 0 0 0-3.131-.385z" fill="#CE82FF"/><path d="M113.099 7.707L89.986 25.764a1.24 1.24 0 0 0-.213 1.74l.915 1.172c.422.54 1.2.635 1.74.213l23.112-18.057c.54-.421.635-1.2.214-1.74l-.916-1.171a1.239 1.239 0 0 0-1.739-.214z" fill="#986FD8"/><path d="M97.437 40.355H69.016a2.23 2.23 0 0 0-2.23 2.231v11.32a2.23 2.23 0 0 0 2.23 2.23h28.421a2.23 2.23 0 0 0 2.23-2.23v-11.32a2.23 2.23 0 0 0-2.23-2.23z" fill="#CE82FF"/><path d="M98.593 50.021a1.983 1.983 0 1 0 0-3.965h-3.966a1.983 1.983 0 1 0 0 3.965h3.966zM99.502 40.19H66.95a1.24 1.24 0 0 0-1.24 1.239v1.487c0 .684.556 1.24 1.24 1.24h32.552a1.24 1.24 0 0 0 1.24-1.24v-1.487a1.24 1.24 0 0 0-1.24-1.24zM128.304 27.329l-23.113 18.057a1.239 1.239 0 0 0-.213 1.74l.915 1.172a1.24 1.24 0 0 0 1.74.213l23.112-18.057c.54-.421.635-1.2.214-1.74l-.916-1.171a1.239 1.239 0 0 0-1.739-.214zM99.502 53.08H66.95a1.24 1.24 0 0 0-1.24 1.238v1.488c0 .684.556 1.239 1.24 1.239h32.552a1.24 1.24 0 0 0 1.24-1.24v-1.487a1.24 1.24 0 0 0-1.24-1.239zM39.278 26.722a1.983 1.983 0 0 0-3.965 0v6.114a1.983 1.983 0 0 0 3.965 0v-6.114z" fill="#986FD8"/><path d="M102.56 33.124a1.983 1.983 0 0 0-3.966 0v80.035a1.983 1.983 0 0 0 3.966 0V33.124zM114.046 57.295c.821 0 1.487.707 1.487 1.58v54.841c0 .872-.666 1.579-1.487 1.579-.822 0-1.487-.707-1.487-1.579V58.874c0-.872.665-1.58 1.487-1.58z" fill="#986FD8"/><path d="M115.545 105.154a1.487 1.487 0 1 0-2.436 1.706l5.355 7.647a1.487 1.487 0 1 0 2.436-1.706l-5.355-7.647z" fill="#986FD8"/><path d="M112.466 105.154a1.488 1.488 0 0 1 2.437 1.706l-5.355 7.647a1.487 1.487 0 1 1-2.437-1.706l5.355-7.647z" fill="#986FD8"/><path d="M116.131 73.993l17.009-4.437a.743.743 0 0 0-.187-1.463H95.138a.744.744 0 0 0-.188 1.463l17.01 4.437a8.263 8.263 0 0 0 4.171 0z" fill="#FFC800"/><path d="M116.131 62.275l17.009 4.438a.743.743 0 0 1-.187 1.463H95.138a.744.744 0 0 1-.188-1.463l17.01-4.438a8.26 8.26 0 0 1 4.171 0z" fill="#FFD900"/><path d="M114.047 63.967v2.144c0 .32-.259.578-.578.578h-7.981a.744.744 0 0 1-.165-1.468l8.018-1.818a.579.579 0 0 1 .706.564z" fill="#FFEF92"/><path d="M84.676 97.677c3.752 0 7.135 1.847 8.014 4.791l.06.223.04.192 1.153 7.173a2.271 2.271 0 0 1-4.457.873l-.03-.152-1.131-7.039-.01-.03c-.264-.677-1.622-1.422-3.404-1.483l-.235-.004H38.14c-1.975 0-3.484.847-3.667 1.575l-1.83 7.299a2.272 2.272 0 1 1-4.407-1.105l1.83-7.299c.752-2.999 4.061-4.919 7.793-5.01l.281-.004h46.537z" fill="#986FD8"/><path d="M89.626 108.215l4.105-.092a1.364 1.364 0 0 1 1.349 1.015l1.217 4.61a1.363 1.363 0 0 1-1.295 1.711l-5.241.091a1.363 1.363 0 0 1-1.387-1.339l-.08-4.609a1.363 1.363 0 0 1 1.332-1.387zM32.776 108.215l-4.105-.092a1.364 1.364 0 0 0-1.348 1.015l-1.217 4.61a1.363 1.363 0 0 0 1.294 1.711l5.241.091a1.363 1.363 0 0 0 1.387-1.339l.08-4.609a1.363 1.363 0 0 0-1.332-1.387zM61.05 113.069c16.914 0 30.626-13.712 30.626-30.627S77.964 51.815 61.05 51.815 30.422 65.526 30.422 82.442s13.712 30.627 30.627 30.627z" fill="#6F4EA1"/><path d="M61.05 49.71c-18.078 0-32.732 14.655-32.732 32.732 0 18.077 14.654 32.731 32.731 32.731S93.78 100.519 93.78 82.442 79.126 49.71 61.05 49.71zm0 4.208c15.752 0 28.523 12.77 28.523 28.524 0 15.753-12.77 28.523-28.524 28.523-15.753 0-28.523-12.77-28.523-28.523s12.77-28.524 28.523-28.524z" fill="#986FD8"/><path d="M48.882 95.923l2.057 1.918a1.786 1.786 0 0 1-2.435 2.612l-2.057-1.919a1.785 1.785 0 0 1 2.435-2.611zM77.425 96.011a1.785 1.785 0 0 0-2.523-.088l-2.057 1.918a1.786 1.786 0 0 0 2.435 2.612l2.057-1.919c.721-.672.76-1.802.088-2.523zM81.77 75.138l-6.841 1.703v-5.848a4.642 4.642 0 0 0-6.46-4.27c-3.53 1.501-5.957 2.252-7.281 2.252-1.333 0-3.8-.76-7.399-2.283a4.641 4.641 0 0 0-6.45 4.275v5.847l-6.95-1.73a1.634 1.634 0 0 0-2.026 1.697c.365 5.224 4.049 9.71 9.221 11.114 1.21 6.384 6.814 11.213 13.55 11.213 6.727 0 12.326-4.816 13.545-11.187 5.118-1.436 8.755-5.897 9.117-11.086a1.634 1.634 0 0 0-2.026-1.697z" fill="#986FD8"/><path d="M40.344 17.544l23.74 8.852a1.023 1.023 0 0 1-.417 1.983l-52.858-2.77a1.03 1.03 0 0 1-.98-1.078c.023-.446.336-.825.772-.938l24.535-6.322a8.697 8.697 0 0 1 5.208.273z" fill="#FFD900"/><path d="M36.955 21.588l-.043 2.773c-.009.55-.476.986-1.044.976l-.037-.001-13.182-.691a.759.759 0 0 1-.731-.785.75.75 0 0 1 .597-.687l12.866-2.82c.692-.152 1.382.268 1.541.938.024.097.035.197.033.297z" fill="#FFEF92"/><path d="M15.33 103.614a2.372 2.372 0 0 0-4.58-1.228l-2.614 9.754a2.372 2.372 0 0 0 4.581 1.228l2.614-9.754z" fill="#986FD8"/><path fill-rule="evenodd" clip-rule="evenodd" d="M78.642 33.877a1.555 1.555 0 0 1-2.53-1.106l-.076-1.16a10.676 10.676 0 0 1-4.028-3.066L54.997 7.538a1.65 1.65 0 0 1 .244-2.321l.233-.189a1.65 1.65 0 0 1 2.32.244l17.012 21.007a10.678 10.678 0 0 1 2.162 4.578l1.119.316a1.555 1.555 0 0 1 .555 2.704zM84.41 36.191a1.555 1.555 0 0 1-1.932-1.972l.363-1.104a10.677 10.677 0 0 1-2.585-4.353l-7.903-25.85a1.65 1.65 0 0 1 1.095-2.06l.287-.088a1.65 1.65 0 0 1 2.06 1.096L83.7 27.71c.5 1.637.6 3.37.29 5.054l.919.712a1.555 1.555 0 0 1-.499 2.715z" fill="#E5A259"/></svg>