<svg viewBox="0 0 135 124" fill="none" xmlns="http://www.w3.org/2000/svg"><g clip-path="url(#clip0)"><path d="M107 11H28c-9.389 0-17 7.611-17 17v79c0 9.389 7.611 17 17 17h79c9.389 0 17-7.611 17-17V28c0-9.389-7.611-17-17-17z" fill="#FF7878"/><path d="M21.346 37.914c9.763 0 17.677-7.914 17.677-17.677S31.11 2.56 21.346 2.56c-9.762 0-17.677 7.914-17.677 17.677s7.915 17.677 17.677 17.677z" fill="#58CC02"/><path fill-rule="evenodd" clip-rule="evenodd" d="M23.712 36.584l2.094 4.188a1.515 1.515 0 0 1-1.355 2.193h-4.188a1.515 1.515 0 0 1-1.356-2.193l2.094-4.188a1.515 1.515 0 0 1 2.71 0zM17.418 9.202a2.02 2.02 0 0 1-.858 2.725c-2 1.043-3.006 2.538-3.213 4.655a2.02 2.02 0 1 1-4.021-.394c.345-3.522 2.198-6.192 5.367-7.844a2.02 2.02 0 0 1 2.725.858z" fill="#6AE510"/><path fill-rule="evenodd" clip-rule="evenodd" d="M22.03 32.706a2.02 2.02 0 0 1 1.325-2.531c4.47-1.397 7.28-4.253 8.599-8.737a2.02 2.02 0 0 1 3.876 1.141c-1.701 5.78-5.514 9.653-11.27 11.452a2.02 2.02 0 0 1-2.53-1.325z" fill="#4FB900"/><path d="M68.638 114.174c9.6-1.774 15.945-10.995 14.171-20.595-1.773-9.6-10.994-15.945-20.594-14.171-9.6 1.774-15.945 10.994-14.171 20.594 1.774 9.601 10.994 15.945 20.594 14.172z" fill="#CE82FF"/><path fill-rule="evenodd" clip-rule="evenodd" d="M70.723 112.436l2.82 3.737a1.516 1.516 0 0 1-.935 2.403l-4.118.761a1.515 1.515 0 0 1-1.73-1.91l1.297-4.499a1.515 1.515 0 0 1 2.666-.492zM59.559 86.653a2.02 2.02 0 0 1-.349 2.836c-1.777 1.388-2.495 3.042-2.314 5.16a2.02 2.02 0 1 1-4.026.344c-.3-3.526 1.037-6.489 3.853-8.688a2.02 2.02 0 0 1 2.836.348z" fill="#DAA2FF"/><path fill-rule="evenodd" clip-rule="evenodd" d="M68.364 108.928a2.02 2.02 0 0 1 .843-2.73c4.141-2.186 6.386-5.505 6.869-10.153a2.02 2.02 0 0 1 4.018.417c-.622 5.993-3.668 10.495-9 13.309a2.02 2.02 0 0 1-2.73-.843z" fill="#A570FF"/><path d="M44.155 65.58c9.677 1.288 18.567-5.513 19.855-15.19 1.288-9.678-5.512-18.567-15.19-19.855-9.677-1.289-18.566 5.512-19.855 15.19-1.288 9.677 5.513 18.566 15.19 19.855z" fill="#47D7FF"/><path fill-rule="evenodd" clip-rule="evenodd" d="M45.674 64.44l1.523 4.428a1.515 1.515 0 0 1-1.633 1.994l-4.151-.552a1.515 1.515 0 0 1-1.054-2.353l2.628-3.875a1.515 1.515 0 0 1 2.687.358z" fill="#64DDFF"/><path fill-rule="evenodd" clip-rule="evenodd" d="M43.549 36.534a2.02 2.02 0 0 1-1.21 2.588c-2.12.77-3.314 2.119-3.8 4.19a2.02 2.02 0 0 1-3.933-.921c.806-3.446 2.996-5.848 6.355-7.067a2.02 2.02 0 0 1 2.588 1.21z" fill="#C1F1FF"/><path fill-rule="evenodd" clip-rule="evenodd" d="M45.452 61.008a2.02 2.02 0 0 1 1.648-2.334c4.615-.795 7.777-3.256 9.677-7.526a2.02 2.02 0 0 1 3.691 1.643c-2.449 5.504-6.74 8.84-12.682 9.865a2.02 2.02 0 0 1-2.334-1.648z" fill="#1EC5F5"/><path d="M120.464 36.11c-1.68 14.64-14.91 25.147-29.55 23.468-14.64-1.68-25.147-14.91-23.467-29.55 1.68-14.64 14.91-25.147 29.55-23.467 14.64 1.68 25.147 14.91 23.467 29.55z" fill="#0084C2"/><path d="M85.827 28.051l1.132 2.335 26.814-15.185a26.798 26.798 0 0 0-1.896-1.903l-26.05 14.753z" fill="#006AAD"/><path d="M76.16 33.531l9.489-5.373 9.488-5.374 16.05 14.767-2.94 25.621-35.027-4.019 2.94-25.622z" fill="#C6775C"/><path d="M63.581 62.875c.962-8.38 8.535-14.394 16.915-13.433l22.862 2.624c8.381.961 14.395 8.534 13.433 16.915-.961 8.38-8.534 14.394-16.915 13.433L77.014 79.79c-8.38-.962-14.394-8.535-13.433-16.916z" fill="#3D3D3D"/><path d="M79.59 37.132a6.175 6.175 0 1 1 12.27 1.408l-.48 4.173a6.175 6.175 0 0 1-12.268-1.408l.478-4.173z" fill="#fff"/><path d="M84.64 38.405a2.557 2.557 0 0 0 2.838-2.77 2.848 2.848 0 0 1 2.85 3.174l-.408 3.554a2.849 2.849 0 1 1-5.66-.65l.38-3.308z" fill="#3D3D3D"/><path d="M94.398 50.35l-18.023-2.068.878-7.657c2.254.136 4.654.659 7.041 1.601 4.652 1.837 8.252 4.87 10.104 8.124z" fill="#C6775C"/><path d="M96.55 50.597a4.575 4.575 0 1 1-9.09-1.043 4.575 4.575 0 0 1 9.09 1.043z" fill="#C6775C"/><path d="M107.03 40.28a6.175 6.175 0 0 0-12.269-1.407l-.479 4.173a6.175 6.175 0 1 0 12.269 1.407l.479-4.172z" fill="#fff"/><path d="M96.163 39.727a2.557 2.557 0 0 0 2.839-2.77 2.848 2.848 0 0 1 2.85 3.173l-.408 3.556a2.85 2.85 0 0 1-5.66-.65l.38-3.31z" fill="#3D3D3D"/><path d="M75.257 62.781c-1.409-.99-1.674-2.283-1.568-3.252.075-.687.368-1.333.679-1.95.19-.38.394-.734.517-.937.675-.943 1.79-1.514 2.264-1.681 1.546-.648 4.335-.227 5.537.065 1.098.213 3.606.911 4.722 1.234 1.178.374 3.398.544 4.361.582.73.008 1.671.278 2.05.412 2.029.656 3.348 2.37 3.754 3.146 1.003 1.516.915 3.585.745 4.43-.463 1.76-2.147 2.41-2.931 2.515-1.349.258-2.504-.46-2.913-.85-1.92-1.416-3.306-2.263-3.759-2.51-.714-.446-1.509-.656-2.152-.743-.67-.09-1.352-.063-2.03-.074-2.19-.038-5.51.075-7.103.148-1.253-.003-1.97-.358-2.173-.535z" fill="#130000"/><path d="M98.248 62.023l-22.575-6.204a5.441 5.441 0 0 1 1.476-.858c1.546-.648 4.336-.227 5.538.065 1.098.213 3.605.911 4.722 1.234 1.177.374 3.398.544 4.36.582.73.008 1.672.278 2.051.412 2.029.656 3.348 2.37 3.754 3.146a4.97 4.97 0 0 1 .674 1.623z" fill="#fff"/><path d="M120.303 19.734c-1.1.18-1.888-1.037-1.271-1.966l3.1-4.675c1.483-2.235 4.772-2.216 6.228.037 1.457 2.252.125 5.26-2.522 5.694l-5.535.91zM72.73 12.21c.414 1.154-.746 2.248-1.873 1.767l-5.674-2.421c-2.713-1.158-3.348-4.72-1.202-6.744s5.664-1.183 6.662 1.594l2.087 5.804zM122.49 24.615a.849.849 0 0 1 .554-1.455l3.725-.176c1.782-.085 3.066 1.686 2.431 3.353-.635 1.667-2.771 2.136-4.046.888l-2.664-2.61z" fill="#47D7FF"/><path d="M25.557 93.587c9.244-3.14 14.192-13.18 11.05-22.424-3.14-9.244-13.18-14.191-22.423-11.05-9.244 3.14-14.192 13.18-11.05 22.424 3.14 9.243 13.18 14.19 22.423 11.05z" fill="#FFD900"/><path fill-rule="evenodd" clip-rule="evenodd" d="M24.212 89.077a2.02 2.02 0 0 1 .441-2.823c3.782-2.76 5.524-6.369 5.331-11.038a2.02 2.02 0 0 1 4.037-.167c.249 6.02-2.116 10.914-6.986 14.469a2.02 2.02 0 0 1-2.823-.44z" fill="#FFC800"/><path fill-rule="evenodd" clip-rule="evenodd" d="M12.61 69.263c.807.77.836 2.05.065 2.856-1.558 1.63-2.03 3.37-1.545 5.44a2.02 2.02 0 1 1-3.935.921c-.806-3.445.09-6.57 2.559-9.153a2.02 2.02 0 0 1 2.856-.064z" fill="#FFF19E"/><path fill-rule="evenodd" clip-rule="evenodd" d="M26.413 91.892l3.33 3.291a1.515 1.515 0 0 1-.578 2.513L25.2 99.043a1.515 1.515 0 0 1-1.989-1.64l.635-4.64a1.515 1.515 0 0 1 2.567-.871z" fill="#FFEC7F"/><path d="M56.358 19.601l-2.166-1.883a1.723 1.723 0 0 0-2.43.17l-4.144 4.766a1.722 1.722 0 0 0 .17 2.43l2.166 1.884a1.723 1.723 0 0 0 2.43-.17l4.144-4.767a1.723 1.723 0 0 0-.17-2.43zM33.731 106.103l2.167-1.884a1.723 1.723 0 0 1 2.43.17l4.144 4.767a1.722 1.722 0 0 1-.17 2.43l-2.167 1.884a1.723 1.723 0 0 1-2.43-.17l-4.144-4.767a1.722 1.722 0 0 1 .17-2.43z" fill="#FFD900"/><path d="M13.977 48.213l2.167-1.884a1.723 1.723 0 0 1 2.43.17l4.144 4.767a1.723 1.723 0 0 1-.17 2.43l-2.166 1.884a1.723 1.723 0 0 1-2.43-.17l-4.144-4.767a1.723 1.723 0 0 1 .17-2.43zM17.253 105.133l2.167-1.884a1.723 1.723 0 0 1 2.43.17l4.144 4.767a1.722 1.722 0 0 1-.17 2.43l-2.167 1.884a1.723 1.723 0 0 1-2.43-.17l-4.144-4.767a1.722 1.722 0 0 1 .17-2.43zM95.091 85.002l2.445 1.505c.81.499 1.062 1.56.563 2.37l-3.312 5.378a1.723 1.723 0 0 1-2.37.564l-2.444-1.505a1.723 1.723 0 0 1-.564-2.37l3.312-5.379a1.723 1.723 0 0 1 2.37-.563z" fill="#6DCE00"/><path d="M50.503 9.65l-2.167-1.884a1.723 1.723 0 0 0-2.43.17l-4.144 4.767a1.723 1.723 0 0 0 .17 2.43l2.167 1.884a1.723 1.723 0 0 0 2.43-.17l4.144-4.767a1.723 1.723 0 0 0-.17-2.43z" fill="#CE82FF"/><path d="M44.584 87.372l-2.722-.912a1.723 1.723 0 0 0-2.18 1.086l-2.008 5.989a1.723 1.723 0 0 0 1.086 2.18l2.722.913a1.723 1.723 0 0 0 2.181-1.086l2.007-5.989a1.723 1.723 0 0 0-1.086-2.18zM118.249 84.523l-2.167-1.884a1.722 1.722 0 0 0-2.43.17l-4.144 4.767a1.723 1.723 0 0 0 .17 2.43l2.167 1.884a1.722 1.722 0 0 0 2.43-.17l4.144-4.767a1.723 1.723 0 0 0-.17-2.43z" fill="#FFAADE"/><path d="M58.137 72.086l-2.167-1.884a1.723 1.723 0 0 0-2.43.17l-4.144 4.767a1.723 1.723 0 0 0 .17 2.43l2.167 1.884a1.723 1.723 0 0 0 2.43-.17l4.144-4.767a1.723 1.723 0 0 0-.17-2.43zM98.04 109.051l-2.167-1.883a1.723 1.723 0 0 0-2.43.17l-4.144 4.767a1.722 1.722 0 0 0 .17 2.43l2.167 1.883a1.722 1.722 0 0 0 2.43-.17l4.144-4.766a1.724 1.724 0 0 0-.17-2.431z" fill="#1CB0F6"/><path d="M102.63 98.736l2.167-1.884a1.722 1.722 0 0 1 2.43.17l4.144 4.767a1.723 1.723 0 0 1-.17 2.43l-2.167 1.884a1.723 1.723 0 0 1-2.43-.17l-4.144-4.767a1.723 1.723 0 0 1 .17-2.43z" fill="#FFDF28"/></g><defs><clipPath id="clip0"><path fill="#fff" d="M0 0h135v124H0z"/></clipPath></defs></svg>