<svg viewBox="0 0 135 124" version="1.1" xmlns="http://www.w3.org/2000/svg"><g stroke="none" stroke-width="1" fill="none" fill-rule="evenodd"><rect fill="#FFCA00" x="11" y="11" width="113" height="113" rx="17"/><path d="M122.44 20.93L20.92 122.45a16.94 16.94 0 0 0 7.08 1.56h41.32L124 69.33V28.01a16.94 16.94 0 0 0-1.56-7.08zM50.32 69.07l58-58c-.43 0-.87-.07-1.31-.07H58.42L25.34 44.09c-6.904 6.904-6.904 18.096 0 25s18.096 6.904 25 0l-.02-.02z" fill="#FFD900" fill-rule="nonzero"/><circle fill="#FF9600" fill-rule="nonzero" cx="50.155" cy="22.888" r="21.888"/><path d="M65.079 6.877a22.023 22.023 0 0 1 1.614 1.673c-5.026 6.462-10.582 9.73-16.682 9.73-6.045 0-11.555-3.21-16.546-9.554a22.142 22.142 0 0 1 1.599-1.692c4.626 5.986 9.614 8.942 14.947 8.942 5.312 0 10.282-2.933 14.892-8.871z" fill="#E27903" fill-rule="nonzero"/><path d="M50.155 1c.435 0 .867.013 1.296.038v43.7a22.231 22.231 0 0 1-2.306.015V1.023A22.26 22.26 0 0 1 50.155 1z" fill="#E27903" fill-rule="nonzero"/><path d="M72.013 21.736a22.245 22.245 0 0 1 0 2.304H28.297a22.245 22.245 0 0 1 0-2.304zM50.01 28.147c5.992 0 11.457 3.152 16.412 9.384a21.735 21.735 0 0 1-1.639 1.639c-4.577-5.837-9.506-8.72-14.772-8.72-5.22 0-10.11 2.833-14.652 8.566a21.724 21.724 0 0 1-1.623-1.654c4.918-6.12 10.338-9.215 16.275-9.215z" fill="#E27903" fill-rule="nonzero"/><circle fill="#FFF1A2" transform="rotate(-61 23.791 52.136)" cx="23.791" cy="52.136" r="22.65"/><path d="M17.408 54.23A1.2 1.2 0 0 1 18.51 53l.064-.004 7.515-.211a1.2 1.2 0 0 1 .131 2.396l-.064.003-7.515.211a1.2 1.2 0 0 1-1.233-1.166zM7.588 60.024a1.2 1.2 0 0 1 1.652-.004l.045.045 5.186 5.444a1.2 1.2 0 0 1-1.693 1.7l-.045-.045-5.186-5.443a1.2 1.2 0 0 1 .041-1.697zM13.177 38.985a1.2 1.2 0 0 1 .514 1.57l-.029.056-3.574 6.614a1.2 1.2 0 0 1-2.14-1.084l.028-.057 3.575-6.614a1.2 1.2 0 0 1 1.626-.485zM29.588 64.862a1.2 1.2 0 0 1 1.839 1.541l-.039.046-4.97 5.64a1.2 1.2 0 0 1-1.84-1.54l.04-.046 4.97-5.64zM24.838 37.47a1.2 1.2 0 0 1 2.123-1.117l.03.056 1.916 3.887a1.2 1.2 0 0 1-2.123 1.118l-.03-.057-1.916-3.886z" fill="#FFCA00" fill-rule="nonzero"/><path d="M15.77 30.954a22.622 22.622 0 0 1 15.675-.139l-3.67 6.622a2.1 2.1 0 0 1-2.237 1.043l-7.563-1.47a2.1 2.1 0 0 1-1.684-1.806zM1.814 46.632l6.58-1.64a2.1 2.1 0 0 1 2.289.924l4.083 6.534a2.1 2.1 0 0 1-.173 2.463l-4.952 5.902a2.1 2.1 0 0 1-2.396.597L2.35 59.434a22.645 22.645 0 0 1-.535-12.802zM18.248 69.584l7.676-.671a2.1 2.1 0 0 1 2.116 1.271l1.624 3.828a22.583 22.583 0 0 1-13.778-.646l.5-2.162a2.1 2.1 0 0 1 1.862-1.62z" fill="#E27903"/><path d="M41.89 44.334l.04-.044 2.135-2.258c.389.783.732 1.586 1.028 2.406l-1.419 1.5a1.2 1.2 0 0 1-1.784-1.604zM39.348 56.813a1.2 1.2 0 0 1 1.572-.513l.055.028 4.484 2.423a22.605 22.605 0 0 1-.835 2.278l-4.79-2.59a1.2 1.2 0 0 1-.486-1.626z" fill="#FFCA00"/><path d="M25.77 52.613l4.083-6.534a2.1 2.1 0 0 1 2.29-.925l7.475 1.864a2.1 2.1 0 0 1 1.587 1.89l.538 7.687a2.1 2.1 0 0 1-1.309 2.094l-7.144 2.886a2.1 2.1 0 0 1-2.395-.597l-4.953-5.903a2.1 2.1 0 0 1-.172-2.462zM75.357 50.004h40.23c8.837 0 16 7.163 16 16a16 16 0 0 1-.68 4.62l-8.492 28.155a20 20 0 0 1-19.148 14.225h-9.095a20 20 0 0 1-19.525-15.666l-8.076-36.384a9 9 0 0 1 8.786-10.95z" fill="#E27903"/><rect fill="#E27903" transform="rotate(-15 72.041 94.087)" x="66.541" y="84.087" width="11" height="20" rx="5.5"/><rect fill="#E27903" transform="scale(-1 1) rotate(-15 0 1055.897)" x="121.125" y="84.087" width="11" height="20" rx="5.5"/><path d="M88.125 56.004h22c8.284 0 15 6.716 15 15v28c0 11.046-8.955 20-20 20h-12c-11.046 0-20-8.954-20-20v-28c0-8.284 6.715-15 15-15z" fill="#F89700"/><rect fill="#E27903" x="95.125" y="78.004" width="8" height="20" rx="4"/><rect fill="#FFF1A2" x="104.125" y="76.004" width="16" height="22" rx="8"/><rect fill="#E27903" x="105.751" y="79.641" width="6" height="10" rx="3"/><rect fill="#FFF1A2" x="78.125" y="76.004" width="16" height="22" rx="8"/><rect fill="#E27903" x="84.751" y="79.641" width="6" height="10" rx="3"/><path d="M72.041 43.618a24.564 24.564 0 0 1 18.531-6.285l2.461.204a35.422 35.422 0 0 1 22.31 10.442l4.982 5.058a8.47 8.47 0 0 1-6.035 14.415H67.952l-1.433-6.269a18.227 18.227 0 0 1 5.522-17.565z" fill="#E27903"/><path d="M123.59 92.63l-9.08 17.82-17.82-9.08c5.015-9.842 17.059-13.755 26.9-8.74z" fill="#F89700"/><path d="M73.938 92.932l8.134 18.27 18.271-8.134c-4.492-10.09-16.315-14.629-26.405-10.136z" fill="#F89700"/><path d="M96.51 92.004h5.229a2 2 0 0 1 1.872 1.298l1.014 2.702a2.96 2.96 0 0 1-2.772 4h-5.456a2.96 2.96 0 0 1-2.772-4l1.013-2.702a2 2 0 0 1 1.873-1.298z" fill="#E27903"/><path d="M116.585 98.437a5 5 0 0 1 .976 7.003c-1.712 2.267-3.66 3.982-5.873 5.074l-.79.386c-.72.349-1.254.593-1.756.804l-.485.196-.742.28-.936.331a5 5 0 0 1-3.328-9.43l1.098-.392.34-.132.443-.186c.405-.179.921-.425 1.728-.823.658-.325 1.375-.936 2.132-1.89l.19-.244a5 5 0 0 1 7.003-.977z" fill="#E27903" fill-rule="nonzero"/><path d="M114.058 97.468l1.076 2.646a3 3 0 0 1-1.65 3.909l-.011.004-12.949 5.202a5 5 0 0 1 3.127-6.148l1.098-.392.34-.132.443-.186c.405-.179.921-.425 1.728-.823.658-.325 1.375-.936 2.132-1.89l.19-.244a4.98 4.98 0 0 1 1.724-1.445l.52-.186a5.498 5.498 0 0 1 2.232-.315z" fill="#FFF1A2" fill-rule="nonzero"/><path d="M29.497 78.312l.027.604-.585.148a17.907 17.907 0 0 0-11.864 9.815c-4.446 9.535-.4 20.874 9.077 25.44a189.22 189.22 0 0 0 5.424 2.51c9.569 4.249 20.777.052 25.201-9.436a17.905 17.905 0 0 0-.014-15.203l-.256-.547.483-.361a14.311 14.311 0 0 0 4.41-5.434c3.356-7.198.242-15.753-6.956-19.11l-4.502-2.099c-7.198-3.356-15.753-.242-19.11 6.955a14.313 14.313 0 0 0-1.335 6.718z" stroke="#E27903" stroke-width="3" fill="#FFB100"/><path d="M51.1 81.362l1.873 1.46a5.97 5.97 0 0 1 1.697 7.326l-2.77 5.678A5.97 5.97 0 0 1 45.084 99l-2.304-.578a2 2 0 0 1-1.31-2.817l6.604-13.542a2 2 0 0 1 3.027-.701z" fill="#E27903"/><path d="M41.275 79.95a7.498 7.498 0 1 0-1.046 14.96 7.498 7.498 0 0 0 1.046-14.96z" stroke="#F89700" stroke-width="2" fill="#E27903"/><path d="M63.293 36.675l3.986 1.944a1 1 0 0 1 .47 1.317L48.062 82.628a1 1 0 0 1-1.346.48l-5.822-2.84a1 1 0 0 1-.451-1.357l21.522-41.795a1 1 0 0 1 1.327-.441z" fill="#E27903"/><path stroke="#FFF1A2" stroke-width="1.5" stroke-linecap="square" d="M35.722 101.659l29.37-60.22M33.032 100.355l29.371-60.22"/><path d="M73.699 28.43l-6.226-3.038a3.073 3.073 0 0 0-.198-.087c-1.555-.628-3.316.11-3.933 1.648l-4.48 11.166c-.587 1.461.068 3.134 1.5 3.832l4.667 2.276c1.431.699 3.153.185 3.943-1.176l6.04-10.406c.036-.061.07-.124.1-.188.727-1.49.094-3.293-1.413-4.028z" fill="#E27903" fill-rule="nonzero"/><rect fill="#E27903" transform="rotate(26 33.723 102.36)" x="27.473" y="100.36" width="12.5" height="4" rx="1.5"/><path d="M108.917 3.669l8.019 4.63a2 2 0 0 1 .539 3.009L99.908 32.476a2 2 0 0 1-3.415-1.971l9.549-25.798a2 2 0 0 1 2.875-1.038zM125.186 15.443l4.531 7.848a2 2 0 0 1-1.113 2.902l-20.765 6.756a2 2 0 0 1-1.957-3.388l16.234-14.605a2 2 0 0 1 3.07.487zM86.962 5.954h6.228a2 2 0 0 1 1.97 2.349l-3.114 17.551a2 2 0 0 1-3.939 0L84.993 8.303a2 2 0 0 1 1.97-2.35z" fill="#F89700"/></g></svg>