<svg viewBox="0 0 135 124" fill="none" xmlns="http://www.w3.org/2000/svg"><g clip-path="url(#clip0)"><path d="M107 11H28c-9.389 0-17 7.611-17 17v79c0 9.389 7.611 17 17 17h79c9.389 0 17-7.611 17-17V28c0-9.389-7.611-17-17-17z" fill="#9069CD"/><path d="M6.842 22.086h.002a7.704 7.704 0 0 1 6.927-8.255l36.123-3.553a7.704 7.704 0 0 1 8.403 6.747h.002l3.473 35.317a2.666 2.666 0 0 0 2.914 2.392l5.21-.512a1.11 1.11 0 0 1 1.214.996c.587 5.973-3.778 11.29-9.75 11.877l-47.766 4.698c-5.972.587-11.29-3.778-11.877-9.75a1.11 1.11 0 0 1 .997-1.214l5.21-.513a2.666 2.666 0 0 0 2.391-2.913L6.842 22.086z" fill="#FFB100"/><path d="M10.81 22.709l43.718-4.3 4.29 43.623-43.717 4.3-4.29-43.623z" fill="#FFC6B7"/><path d="M10.654 42.522a4.848 4.848 0 1 0-.948-9.649 4.848 4.848 0 0 0 .948 9.649zM58.54 37.813a4.848 4.848 0 1 0-.948-9.65 4.848 4.848 0 0 0 .949 9.65z" fill="#FFC6B7"/><path d="M13.033 67.32a1.333 1.333 0 0 1 1.196-1.456l45.352-4.46a1.333 1.333 0 0 1 1.457 1.196l.442 4.494a1.333 1.333 0 0 1-1.196 1.457l-45.352 4.46a1.333 1.333 0 0 1-1.457-1.196l-.442-4.494z" fill="#FF4B4B"/><path d="M7.972 33.383a4.847 4.847 0 0 1 6.282 1.678 5.403 5.403 0 0 0 1.511-4.31l-.664-6.755-7.975.785.846 8.602zM53.564 31.201a4.847 4.847 0 0 1 5.826-2.88l-.846-8.597-7.974.784.664 6.755a5.403 5.403 0 0 0 2.33 3.938z" fill="#FFB100"/><path d="M5.277 20.816a1.333 1.333 0 0 1 1.196-1.457l51.657-5.08a1.333 1.333 0 0 1 1.457 1.196l.36 3.66a1.333 1.333 0 0 1-1.196 1.457l-51.657 5.08a1.333 1.333 0 0 1-1.457-1.196l-.36-3.66z" fill="#FF4B4B"/><path d="M34.145 22.187c6.135-.604 10.62-6.066 10.016-12.2C43.557 3.85 38.095-.634 31.96-.03a11.155 11.155 0 0 0-8.936 6.203l-2.327-2.105c-.64-.58-1.656-.435-1.98.366a9.696 9.696 0 0 0-.655 4.59 9.732 9.732 0 0 0 5.416 7.797 11.163 11.163 0 0 0 10.666 5.366z" fill="#FFB100"/><path d="M34.59 64.6a.96.96 0 0 1 .857-.823l2.916-.287a.96.96 0 0 1 1 .64l2.703 7.79a.96.96 0 0 1-.813 1.269l-6.751.664a.96.96 0 0 1-1.045-1.087L34.59 64.6z" fill="#EBE3E3"/><path d="M33.83 32.358c.114-.011 1.291 1.504 2.494 3.097 1.197 1.586.185 3.856-1.792 4.05-1.977.195-3.411-1.835-2.546-3.623.87-1.797 1.728-3.513 1.843-3.524z" fill="#F3A577"/><path fill-rule="evenodd" clip-rule="evenodd" d="M24.533 30.932a.657.657 0 0 1 .719.59 2.62 2.62 0 0 0 5.216-.513.657.657 0 0 1 1.309-.13 3.936 3.936 0 0 1-7.834.771.657.657 0 0 1 .59-.718zM35.718 29.832a.657.657 0 0 1 .718.59 2.62 2.62 0 0 0 5.217-.514.657.657 0 0 1 1.308-.128 3.936 3.936 0 0 1-7.833.77.657.657 0 0 1 .59-.718z" fill="#B27F61"/><path fill-rule="evenodd" clip-rule="evenodd" d="M22.097 28.715a2.222 2.222 0 0 1 .547-3.094c1.789-1.251 4.005-2.063 5.356-2.388a2.222 2.222 0 0 1 1.04 4.32c-.958.23-2.625.852-3.85 1.709a2.222 2.222 0 0 1-3.093-.547zM44.414 24.158a2.222 2.222 0 0 0-.89-3.013c-1.918-1.043-4.211-1.6-5.59-1.772a2.222 2.222 0 0 0-.549 4.41c.977.12 2.704.552 4.017 1.265a2.222 2.222 0 0 0 3.012-.89z" fill="#FFB100"/><path d="M27.907 50.03a7.623 7.623 0 1 1 15.173-1.492l.023.23a2.38 2.38 0 0 1-2.136 2.6l-10.436 1.027a2.38 2.38 0 0 1-2.602-2.135l-.022-.23z" fill="#702323"/><path d="M31.418 52.308a3.945 3.945 0 0 1 3.54-4.312l.81-.08a3.945 3.945 0 0 1 4.312 3.54l-8.662.852z" fill="#B23232"/><path d="M94.74 62.698a9.09 9.09 0 1 0-10.37 7.4 9.09 9.09 0 0 0 7.814 10.596 9.09 9.09 0 0 0 2.555-17.996z" fill="#FF9600"/><path d="M65.553 78.624c.757-6.003 6.237-10.256 12.24-9.498l32.951 4.156c6.003.758 10.255 6.238 9.498 12.24l-2.782 22.052c-.757 6.003-6.237 10.255-12.24 9.498l-32.951-4.157c-6.003-.757-10.255-6.238-9.498-12.24l2.782-22.051z" fill="#FFC6B7"/><path fill-rule="evenodd" clip-rule="evenodd" d="M96.474 105.494a.684.684 0 0 1-.963.105c-.461-.371-1.328-.823-2.359-.911-1.002-.085-2.184.172-3.349 1.248a.684.684 0 1 1-.929-1.005c1.462-1.351 3.029-1.723 4.394-1.607 1.337.113 2.457.69 3.101 1.208a.684.684 0 0 1 .105.962z" fill="#EE9583"/><path d="M91.288 94.834c.124.016 1.002 1.897 1.889 3.865.882 1.96-.73 4.113-2.862 3.844-2.132-.269-3.159-2.755-1.817-4.434 1.348-1.687 2.665-3.29 2.79-3.275z" fill="#EE9583"/><path d="M73.75 69.367c-4.249 1.07-7.616 4.647-8.197 9.257l-1.057 8.38.398.05a6.573 6.573 0 0 0 7.345-5.699l1.512-11.988zM114.6 74.52c3.851 2.092 6.224 6.393 5.642 11.003l-1.057 8.38-.399-.05a6.573 6.573 0 0 1-5.699-7.345l1.513-11.987z" fill="#FFB67A"/><path d="M82.64 98.378a6.912 6.912 0 0 1-5.993-7.723l13.716 1.73a6.912 6.912 0 0 1-7.724 5.993zM98.784 100.415a6.912 6.912 0 0 1-5.993-7.723l13.716 1.73a6.912 6.912 0 0 1-7.723 5.993z" fill="#fff"/><path d="M86.897 95.063a3.103 3.103 0 0 1-2.69-3.468l6.157.777a3.103 3.103 0 0 1-3.467 2.69zM103.042 97.1a3.104 3.104 0 0 1-2.691-3.468l6.158.777a3.103 3.103 0 0 1-3.467 2.69z" fill="#3D3D3D"/><path d="M62.075 93.888a4.911 4.911 0 1 0 1.23-9.745 4.911 4.911 0 0 0-1.23 9.745zM119.82 101.173a4.911 4.911 0 1 0 1.229-9.745 4.911 4.911 0 0 0-1.229 9.745z" fill="#FFC6B7"/><path d="M71 14.194c0-5.876 4.763-10.639 10.638-10.639h28.724c5.875 0 10.638 4.763 10.638 10.639v23.404c0 5.875-4.763 10.638-10.638 10.638H81.638C75.763 48.236 71 43.473 71 37.598V14.194z" fill="#BBF2FF"/><path fill-rule="evenodd" clip-rule="evenodd" d="M106.978 14.839c6.232 6.232 6.232 16.335 0 22.567-6.231 6.232-16.335 6.232-22.567 0-6.231-6.232-6.231-16.335 0-22.567 6.232-6.232 16.336-6.232 22.567 0zm-2.641 7.155a9.578 9.578 0 0 1-1.872 10.899 9.578 9.578 0 0 1-10.898 1.871l12.77-12.77zm-4.514-4.513l-12.77 12.77a9.578 9.578 0 0 1 12.77-12.77z" fill="#FF4B4B"/><path d="M64.496 46.85l9.064-8.761a1 1 0 0 1 1.522.156l4.079 5.995a1 1 0 0 1-.621 1.541l-13.143 2.767c-.982.207-1.623-1-.901-1.697z" fill="#BBF2FF"/></g><defs><clipPath id="clip0"><path fill="#fff" d="M0 0h135v124H0z"/></clipPath></defs></svg>