<svg viewBox="0 0 135 124" version="1.1" xmlns="http://www.w3.org/2000/svg"><g stroke="none" stroke-width="1" fill="none" fill-rule="evenodd"><path d="M28 11h79c9.389 0 17 7.611 17 17v79c0 9.389-7.611 17-17 17H28c-9.389 0-17-7.611-17-17V28c0-9.389 7.611-17 17-17z" fill="#4B4B4B"/><rect fill="#D8D8D8" x="31" y="3" width="73" height="73" rx="36.5"/><path d="M102.716 29.868l-.222.026c-.655.07-1.32.106-1.994.106h-4.786l-6.1 4.745a1 1 0 0 1-1.614-.79V29.17C80.47 26.827 75 19.802 75 11.5c0-2.62.545-5.114 1.528-7.374 12.702 3.231 22.745 13.125 26.188 25.742z" fill="#ECECEC"/><g transform="rotate(30 -23.275 184.38)" fill="#B3B3B3"><rect transform="rotate(-11 6 16.153)" x="1" y="14.153" width="10" height="4" rx="2"/><rect transform="rotate(-25 7.634 9.012)" x="5.634" y="3.012" width="4" height="12" rx="2"/><rect transform="rotate(-9 10.79 8)" x="8.79" y="1" width="4" height="14" rx="2"/><rect x="11.773" y="2" width="4" height="13" rx="2"/><path d="M6.289 10.815l4.213-1.914.042-.001a5 5 0 1 1-4.81 5.388l-1.012.076c2.38-.275 1.992-2.635 1.567-3.549z"/></g><path d="M97.514 53.23l1.517 4.668a36.679 36.679 0 0 1-8.376 9.819L86.728 55.63l10.786-2.401zM84.811 68.565l.355 2.882A36.335 36.335 0 0 1 67.5 76a36.344 36.344 0 0 1-22.557-7.802 9.99 9.99 0 0 1 7.882-5.78l20.843-2.56c5.482-.673 10.471 3.225 11.144 8.707z" fill="#979797"/><g transform="rotate(-9 135.797 -210.418)"><rect fill="#979797" x="5" y="0" width="28" height="28" rx="14"/><rect fill="#979797" x="24" y="11" width="19" height="19" rx="9.5"/><rect fill="#979797" x="1" y="17" width="13" height="13" rx="6.5"/><path d="M21.5 11C30.06 11 37 17.94 37 26.5V40a7 7 0 0 1-7 7H13a7 7 0 0 1-7-7V26.5C6 17.94 12.94 11 21.5 11z" fill="#B3B3B3"/><rect fill="#979797" transform="rotate(10 26.025 16.527)" x="22.025" y="15.027" width="8" height="3" rx="1.5"/><rect fill="#979797" transform="rotate(-7 17.025 17.527)" x="13.025" y="16.027" width="8" height="3" rx="1.5"/><path d="M14.042 33.084l10.625 2.847-.388 1.449a5.5 5.5 0 1 1-10.625-2.847l.388-1.449z" fill="#979797"/><rect fill="#B3B3B3" x="36" y="28" width="7" height="7" rx="3.5"/><rect fill="#B3B3B3" x="0" y="28" width="7" height="7" rx="3.5"/><path d="M21.5 27l1.8 2.4a2.25 2.25 0 1 1-3.6 0l1.8-2.4z" fill="#979797"/><path d="M13.147 26.21a3.954 3.954 0 0 1 7.706 0 .875.875 0 1 1-1.706.394 2.204 2.204 0 0 0-4.294 0 .875.875 0 1 1-1.706-.393zM22.147 26.21a3.954 3.954 0 0 1 7.706 0 .875.875 0 1 1-1.706.394 2.204 2.204 0 0 0-4.294 0 .875.875 0 1 1-1.706-.393z" fill="#979797" fill-rule="nonzero"/></g><rect fill="#58CC02" x="19" y="76" width="37" height="37" rx="18.5"/><rect fill="#FF4B4B" x="80" y="76" width="37" height="37" rx="18.5"/><path d="M103.341 88c4.23 0 7.659 3.496 7.659 7.81 0 .379-.027.758-.081 1.133a2.533 2.533 0 0 1-.075.346 4.652 4.652 0 0 1-.122.65l-.541 2.061-8.58-2.344.542-2.061a4.388 4.388 0 0 1 1.86-2.575 2.718 2.718 0 0 0-.508-.076l-.154-.004H93.66a2.76 2.76 0 0 0-.62.07 4.388 4.388 0 0 1 1.877 2.585l.542 2.06-8.58 2.345-.542-2.061a4.549 4.549 0 0 1-.08-.372 2.49 2.49 0 0 1-.175-.624c-.614-4.267 2.281-8.234 6.466-8.86.276-.042.554-.067.833-.078L93.66 88h9.681zM29.093 98.138c-3.465-2.426-4.268-7.257-1.795-10.79a7.96 7.96 0 0 1 .717-.882c.082-.087.169-.168.26-.24.144-.163.301-.318.472-.463l1.626-1.378 5.684 6.842-1.626 1.378a4.388 4.388 0 0 1-3 1.041c.11.127.234.246.372.353l.124.092 7.93 5.553a2.76 2.76 0 0 0 .547.298 4.388 4.388 0 0 1-.055-3.193l.739-2 8.373 3.002-.739 1.999c-.044.12-.093.237-.146.35a2.49 2.49 0 0 1-.216.612c-1.945 3.848-6.591 5.437-10.379 3.549a7.515 7.515 0 0 1-.726-.414l-.232-.156-7.93-5.553z" fill="#FFF"/></g></svg>