<svg id="Layer_3" data-name="Layer 3" xmlns="http://www.w3.org/2000/svg" viewBox="0 0 135 124"><defs><style>.cls-3{fill:#50d7fd}.cls-4{fill:#cf7451}.cls-5{fill:#825035}.cls-6{fill:#2d2d2d}.cls-7{fill:#dc8e70}.cls-9{fill:#fff}.cls-10{fill:#2c6602}.cls-13{fill:#afafaf}</style></defs><path d="M125.06 27.93v79a17 17 0 0 1-17 17h-79a17 17 0 0 1-17-17v-79a17 17 0 0 1 17-17h79a17 17 0 0 1 17 17z" fill="#7ac625"/><path d="M125.06 47.2v59.73a17 17 0 0 1-17 17h-79a17 17 0 0 1-5-.74 94.62 94.62 0 0 1 92.83-76.35c2.77 0 5.48.16 8.17.36z" fill="#5ba51c"/><path class="cls-3" d="M125.06 101.17v5.76a17 17 0 0 1-17 17H74.15l6.4-13.11A17.18 17.18 0 0 1 96 101.17z"/><path class="cls-3" d="M58.71 38.4l-.28 51.2-4.94-10 36.78 25.47L77.18 124 40.4 98.53l-.4-.26a10.71 10.71 0 0 1-4.57-9.72l4.43-51a1.86 1.86 0 0 1 2-1.71l15.08.69a1.88 1.88 0 0 1 1.77 1.87z"/><path class="cls-4" d="M90.46 91.06h23.45v14.2A11.72 11.72 0 0 1 102.19 117a11.72 11.72 0 0 1-11.72-11.72V91.06h-.01z"/><path class="cls-5" d="M99.08 40.6a2.06 2.06 0 0 1-1.89-1.26c-3.48-8.43 3.78-14.87 8.1-17.1a2 2 0 0 1 1.87 3.62c-.37.19-9.12 4.85-6.2 11.92a2 2 0 0 1-1.11 2.66 1.9 1.9 0 0 1-.77.16z"/><circle class="cls-5" cx="115.54" cy="45.26" r="19.81"/><circle class="cls-6" cx="107.08" cy="54.21" r="20.09"/><circle class="cls-4" cx="70.51" cy="75.23" r="8.87"/><circle class="cls-4" cx="114.56" cy="87.86" r="8.87"/><ellipse class="cls-5" cx="96.06" cy="65.67" rx="29.7" ry="32.75" transform="rotate(-73.7 96.51 65.653)"/><path class="cls-7" d="M119.74 75.34l-4 13.83a23.54 23.54 0 0 1-21.85 17.07 23.19 23.19 0 0 1-7.29-.9l-3.6-1a23.47 23.47 0 0 1-14.68-12.47 23.36 23.36 0 0 1-1.43-16.71l4-13.84a25.44 25.44 0 0 1 45.89-6.65l.24.38c.18.31.37.63.55 1a23.18 23.18 0 0 1 1.43 3.11 25.21 25.21 0 0 1 .74 16.18z"/><rect class="cls-6" x="74.72" y="58.22" width="13.11" height="18.14" rx="6.55" ry="6.55" transform="rotate(16.3 80.11 66.02)"/><path d="M89.2 91.8a26.46 26.46 0 0 1-5.53-.62 2 2 0 0 1 .86-4c5.45 1.18 8.43 0 8.46 0a2.05 2.05 0 0 1 2.66 1.09 2 2 0 0 1-1.06 2.65 14.15 14.15 0 0 1-5.39.88z" fill="#b8725c"/><rect class="cls-9" x="73.99" y="60.78" width="13.11" height="18.14" rx="6.55" ry="6.55" transform="rotate(16 80.524 69.84)"/><rect class="cls-10" x="75.59" y="62.13" width="5.27" height="8.61" rx="2.63" ry="2.63" transform="rotate(16 78.23 66.426)"/><path class="cls-5" d="M70.14 63.82L71.53 59a12.81 12.81 0 0 1 21.32-5.6l.18.18A12.82 12.82 0 0 0 104.77 57l.62-.14a12.82 12.82 0 0 1 15.06 16.06l-1.42 5L124.1 66l-6-15.36-15.07-9.82L83 42.06 71.09 53.4z"/><path class="cls-3" d="M75.87 83.37a3.76 3.76 0 0 1-.85 1.5l-6.7 7a23 23 0 0 1-2.25-8l3.75-3.92a3.62 3.62 0 0 1 5.09-.12 3.58 3.58 0 0 1 .96 3.54z"/><rect class="cls-3" x="106.12" y="63.42" width="14.62" height="6.26" rx="3.13" ry="3.13" transform="rotate(38.76 113.436 66.557)"/><path class="cls-3" d="M112.13 68h2.74v15.9a1.37 1.37 0 0 1-1.37 1.37 1.37 1.37 0 0 1-1.37-1.37V68z" transform="rotate(16 113.478 76.637)"/><path d="M107.79 101.14a23.8 23.8 0 0 1-13.86 5.1l1-3.38a5.22 5.22 0 0 1 6.44-3.58z" fill="#aee560"/><path class="cls-5" d="M78.58 58.94a18.4 18.4 0 0 1-11-3.33 2 2 0 1 1 2.42-3.3c9.67 7 25.39-2.6 25.54-2.69a2 2 0 1 1 2.15 3.46c-.58.33-9.64 5.86-19.11 5.86z"/><rect class="cls-6" x="94.81" y="63.98" width="13.11" height="18.14" rx="6.55" ry="6.55" transform="rotate(16 101.363 73.043)"/><rect class="cls-9" x="94.07" y="66.54" width="13.11" height="18.14" rx="6.55" ry="6.55" transform="rotate(16 100.636 75.612)"/><rect class="cls-10" x="95.48" y="67.93" width="5.27" height="8.61" rx="2.63" ry="2.63" transform="rotate(16 98.093 72.233)"/><rect class="cls-4" x="84.83" y="64.78" width="6.93" height="17.76" rx="3.47" ry="3.47" transform="rotate(16.3 87.04 72.28)"/><path class="cls-5" d="M67.74 41.74a1.43 1.43 0 0 1-.34-.14L48.13 30.9l-1.69-.9-5.38-3-20.63-11.49 3.14-5.23 18.61 11.94 4.53 2.9 1.42.92 20.66 13.25a1.49 1.49 0 0 1 .69 1.32 1.18 1.18 0 0 1 0 .2.8.8 0 0 1-.07.2v.16a1.38 1.38 0 0 1-1.67.57z"/><path class="cls-6" d="M8 1.09a14.66 14.66 0 0 1 5.15 6.43 14.85 14.85 0 0 1-8-2.12A13.83 13.83 0 0 1 .8.63a1 1 0 0 1 1-1.58A14 14 0 0 1 8 1.09z"/><path d="M23.21 16.34l2.4-4a1 1 0 0 0-.47-1.34l-4.42-2.07-8.54-4.1a.9.9 0 0 0-1.17.3L10 6.76a.9.9 0 0 0 .27 1.18l9.09 6.79 2.45 1.83a1 1 0 0 0 1.4-.22z" fill="#ebe3e3"/><rect class="cls-13" x="18.62" y="12.08" width="7.41" height="2.05" rx="1.03" ry="1.03" transform="rotate(120.92 22.322 13.112)"/><path class="cls-13" d="M10.27 7.73L12 4.94a.67.67 0 0 1 1 0 .65.65 0 0 1 .1.92l-1.78 2.75a.67.67 0 0 1-1 0 .65.65 0 0 1-.05-.88z"/><path class="cls-7" d="M57.67 36.61h-.32l-2.59-.05v-.12l-12.93-.6A1.68 1.68 0 0 0 41 36a1.44 1.44 0 0 1-.33-.28L34 28a3.3 3.3 0 0 1 4.59-4.7l9.8 8 1 .78z"/><path class="cls-4" d="M56.35 27.94a3.44 3.44 0 0 1-4.22-2.41l-3.34-11a3.44 3.44 0 0 1 2.41-4.22 3.44 3.44 0 0 1 4.23 2.41l3.33 11a3.44 3.44 0 0 1-2.41 4.22z"/><path class="cls-4" d="M53 30.1a3.45 3.45 0 0 1-1.35-4.68L56.9 15.2a3.43 3.43 0 0 1 4.67-1.34 3.43 3.43 0 0 1 1.34 4.67l-5.29 10.22A3.45 3.45 0 0 1 53 30.1z"/><path class="cls-7" d="M58.44 24.19l-.17 13a1.77 1.77 0 0 0-.92-.61l-2.59-.05v-.74c-1.9 0-6.41-1.67-6.37-3.57v-1l.16-7.3c0-1.9 4.61-3.34 6.51-3.3a3.44 3.44 0 0 1 3.38 3.57z"/><path class="cls-7" d="M58.27 24.78A3.43 3.43 0 0 1 54 27.09l-11.12-3a3.43 3.43 0 0 1-2.31-4.27 3.44 3.44 0 0 1 4.28-2.31L56 20.5a3.43 3.43 0 0 1 2.27 4.28z"/><path class="cls-3" d="M57.35 36.6l-2.59-.05v-.12l2.16.1a2 2 0 0 1 .43.07zM58.47 83.07l-.04 6.54-4.94-9.99 4.98 3.45z"/><path class="cls-5" d="M48.13 26l20.66 13.29a1.49 1.49 0 0 1 .69 1.32 1.18 1.18 0 0 1 0 .2.8.8 0 0 1-.07.2v.16a1.38 1.38 0 0 1-1.54.54 1.43 1.43 0 0 1-.34-.14L48.13 30.9"/></svg>