<svg viewBox="0 0 135 124" version="1.1" xmlns="http://www.w3.org/2000/svg" xmlns:xlink="http://www.w3.org/1999/xlink"><defs><path d="M.956 9.61l1.56 23.946a14.695 14.695 0 0 0 6.35 12.059l9.172 5.397a14.04 14.04 0 0 0 15.678.203l8.814-5.6a14.695 14.695 0 0 0 6.63-12.293L50.72 9.36A9.269 9.269 0 0 0 41.36 0l-31.2.375A9.36 9.36 0 0 0 .956 9.61z" id="a"/><path d="M14.789 2.06v.717a8.814 8.814 0 0 1-8.814 8.798h-3.9A2.075 2.075 0 0 1 0 9.5v-.702A8.814 8.814 0 0 1 8.549 0h4.15a2.09 2.09 0 0 1 2.09 2.06z" id="c"/><path d="M14.773 8.814v.702a2.075 2.075 0 0 1-2.075 2.075h-3.9A8.814 8.814 0 0 1 0 2.792v-.717C0 .929.929 0 2.075 0h4.15a8.798 8.798 0 0 1 8.548 8.798v.016z" id="e"/><path d="M6.5 0A6.5 6.5 0 0 1 13 6.5v5.173a1 1 0 0 1-1.276.961L6.96 11.268a6.263 6.263 0 0 0-4.71.513l-.774.42A1 1 0 0 1 0 11.32V6.5A6.5 6.5 0 0 1 6.5 0z" id="g"/></defs><g stroke="none" stroke-width="1" fill="none" fill-rule="evenodd"><rect fill="#9E2929" x="11" y="11" width="113" height="113" rx="17"/><path d="M39.466 83h58.068a13 13 0 0 1 12.372 9.009L117 114H20l7.094-21.991A13 13 0 0 1 39.466 83z" fill="#F34848"/><path d="M59 72h18a5 5 0 0 1 5 5v7H54v-7a5 5 0 0 1 5-5z" fill="#F34848"/><path d="M68.18 71.336c17.581 2.784 34.09-9.21 36.875-26.791 2.785-17.58-9.21-34.09-26.79-36.875-17.582-2.784-34.09 9.21-36.875 26.791-2.785 17.581 9.21 34.09 26.79 36.875z" fill="#2D2D2D" fill-rule="nonzero"/><path d="M92.862 66.601l-.17-.026 2.875-18.15.2.03a9.188 9.188 0 0 1 7.61 10.493 9.204 9.204 0 0 1-10.515 7.653zM46.797 59.316a9.188 9.188 0 0 1 2.872-18.135l-2.872 18.135z" fill="#E59B80" fill-rule="nonzero"/><path d="M51.953 35.54l53.542 8.481 2.18-13.76A22.964 22.964 0 0 0 88.59 3.959L68.561.786c-5.957-.944-11.55 3.12-12.494 9.077l-4.114 25.678z" fill="#2D2D2D" fill-rule="nonzero"/><g><g transform="rotate(9 -139.22 326.743)"><mask id="b" fill="#fff"><use xlink:href="#a"/></mask><use fill="#E59B80" fill-rule="nonzero" xlink:href="#a"/><g mask="url(#b)"><g transform="translate(29.691 14.274)"><mask id="d" fill="#fff"><use xlink:href="#c"/></mask><use stroke="none" fill="#FFF" fill-rule="nonzero" xlink:href="#c"/><rect stroke="none" fill="#6A3A21" fill-rule="evenodd" mask="url(#d)" x="2.309" y="5.02" width="6" height="10" rx="3"/></g></g><g mask="url(#b)"><g transform="translate(7.258 14.259)"><mask id="f" fill="#fff"><use xlink:href="#e"/></mask><use stroke="none" fill="#FFF" fill-rule="nonzero" xlink:href="#e"/><rect stroke="none" fill="#6A3A21" fill-rule="evenodd" mask="url(#f)" x="6.742" y="5.036" width="6" height="10" rx="3"/></g></g><path d="M44.73 18.221a1.56 1.56 0 0 1-1.56-1.56.437.437 0 0 0-.437-.437h-9.5a1.56 1.56 0 0 1 0-3.12h9.5a3.572 3.572 0 0 1 3.557 3.557 1.56 1.56 0 0 1-1.56 1.56z" fill="#2D2D2D" fill-rule="nonzero" mask="url(#b)"/><rect fill="#E59B80" mask="url(#b)" x="-3" y="23.295" width="31" height="31" rx="15.5"/><rect fill="#DE8366" fill-rule="nonzero" mask="url(#b)" x="23.28" y="11.17" width="5.148" height="18.002" rx="2.574"/><circle fill="#DE8366" fill-rule="nonzero" mask="url(#b)" cx="25.854" cy="27.644" r="3.884"/><g mask="url(#b)"><g transform="translate(16 33.295)"><mask id="h" fill="#fff"><use xlink:href="#g"/></mask><use stroke="none" fill="#A14344" fill-rule="evenodd" xlink:href="#g"/><rect stroke="none" fill="#FFF" fill-rule="evenodd" mask="url(#h)" x="-1" y="-2" width="15" height="5" rx="2.5"/><rect stroke="none" fill="#EF4A4D" fill-rule="evenodd" mask="url(#h)" x="3" y="8" width="12" height="15" rx="6"/></g></g><path d="M5.823 18.377a1.56 1.56 0 0 1-1.56-1.56A3.557 3.557 0 0 1 7.82 13.26h11.06a1.56 1.56 0 1 1 0 3.12H7.82a.437.437 0 0 0-.437.437 1.56 1.56 0 0 1-1.56 1.56z" fill="#2D2D2D" fill-rule="nonzero" mask="url(#b)"/></g><path d="M87.866 75.52a11.232 11.232 0 0 1-3.167-8.03l.49-27.076a10.358 10.358 0 0 0-9.942-10.518l.036-2.09 24.161.421-.857 48.086a2.668 2.668 0 0 1-2.791 2.62 11.232 11.232 0 0 1-7.93-3.413zM44.396 28.523l4.32.075-.644 36.889a2.168 2.168 0 0 1-2.19 2.115 2.168 2.168 0 0 1-2.13-2.206l.644-36.873z" fill="#2D2D2D" fill-rule="nonzero"/></g><path d="M38.597 93.811L68 103l29.403-9.189a2 2 0 0 1 2.597 1.91V120H36V95.72a2 2 0 0 1 2.597-1.909z" fill="#2D2D2D"/><g fill="#DBE3E5"><path d="M109.942 86.08a1.704 1.704 0 0 1 .965 2.158l-9.396 26.08a2.763 2.763 0 1 1-5.12-2.068l11.358-25.288a1.704 1.704 0 0 1 2.193-.882z"/><path d="M114.725 86.002l-.606 2.711a4.926 4.926 0 1 1-9.012-3.64l1.447-2.372 8.17 3.301z"/><path d="M111.401 76.12a.822.822 0 0 1 .281 1.127l-4.89 8.154a.819.819 0 0 1-1.124.28.822.822 0 0 1-.28-1.126l4.889-8.154a.819.819 0 0 1 1.124-.28zM114.118 75.743a.82.82 0 0 1 .454 1.068l-3.562 8.816a.82.82 0 0 1-1.521-.614l3.562-8.817a.82.82 0 0 1 1.067-.453zM115.763 77.883a.822.822 0 0 0-.984.615l-1.96 8.457a.819.819 0 0 0 .614.983.822.822 0 0 0 .984-.615l1.96-8.457a.819.819 0 0 0-.614-.983z"/><path d="M109.653 80.62c-.664 1.096.851 1.93 1.402.566.368-.909.492-.891.373.053l-1.292 4.036-3.145-1.743 2.48-3.626c.564-.254.625-.017.182.714zM113.83 82.307c-.284 1.25-1.953.798-1.402-.566.367-.91.265-.983-.305-.22l-1.874 3.8 3.473.93.734-4.33c-.228-.576-.437-.447-.626.386z"/></g><rect fill="#E59B80" transform="rotate(8 100 115)" x="94" y="106" width="12" height="18" rx="4"/><g transform="rotate(-15 283.181 -12.89)"><rect fill="#E59B80" x=".929" y="7.167" width="18" height="18" rx="9"/><path d="M3.84 16.567C2.077 7.288 4.107 2.008 9.93.727" stroke="#E59B80" stroke-width="6" stroke-linecap="round"/></g><rect fill="#E59B80" transform="rotate(8 23.844 102.988)" x="17.844" y="86.988" width="12" height="32" rx="4"/><rect fill="#FFD900" transform="rotate(-15 24.095 99.224)" x="15.095" y="97.724" width="18" height="3" rx="1.5"/><path d="M107 124H28c-7.276 0-13.485-4.571-15.91-10.999h110.82C120.485 119.43 114.276 124 107 124z" fill="#A56644"/><path d="M23.933 40.897c-2.247.73-4.525-.243-5.339-2.746-.62-1.908-.727-3.85.627-6.926l2.012-4.674c1.136-2.544 1.282-4.107.797-5.597-.755-2.325-2.816-3.435-5.182-2.666-2.188.71-3.003 2.228-3.19 4.266-.248 2.057-1.396 3.353-2.934 3.853-2.247.73-4.25-.201-4.967-2.407-.155-.477-.23-1.111-.227-1.705-.034-4.734 3.139-9.258 9.172-11.218 7.038-2.287 13.399.787 15.394 6.927.987 3.04.796 5.672-.657 8.846l-2.33 5.305c-.638 1.46-.722 2.409-.412 3.363.814 2.503-.575 4.668-2.764 5.38zm-2.487 8.849c-.871-2.683.6-5.6 3.262-6.464 2.661-.865 5.566.63 6.438 3.312.872 2.682-.6 5.599-3.262 6.464-2.661.865-5.566-.63-6.438-3.312zM113.495 58.732c-1.653-.702-2.48-2.381-1.709-4.199.588-1.384 1.487-2.535 3.788-3.6l3.47-1.643c1.91-.874 2.768-1.685 3.228-2.766.716-1.688.08-3.336-1.66-4.075-1.61-.683-2.828-.23-3.945.827-1.16 1.04-2.461 1.203-3.593.722-1.653-.701-2.343-2.22-1.664-3.821.147-.346.418-.742.714-1.076 2.323-2.69 6.385-3.673 10.823-1.79 5.177 2.198 7.312 7.088 5.42 11.545-.936 2.207-2.349 3.599-4.755 4.671l-3.965 1.84c-1.089.51-1.607 1.004-1.9 1.696-.772 1.818-2.642 2.352-4.252 1.669zm-5.808 3.764c.827-1.947 3.116-2.865 5.074-2.033 1.957.83 2.888 3.115 2.061 5.062-.826 1.947-3.116 2.865-5.074 2.034-1.957-.831-2.888-3.115-2.061-5.063z" fill="#F34848"/></g></svg>