<svg viewBox="0 0 135 124" fill="none" xmlns="http://www.w3.org/2000/svg"><g clip-path="url(#clip0)"><path d="M107 11H28c-9.389 0-17 7.611-17 17v79c0 9.389 7.611 17 17 17h79c9.389 0 17-7.611 17-17V28c0-9.389-7.611-17-17-17z" fill="#B2B2B2"/><path fill-rule="evenodd" clip-rule="evenodd" d="M7.578 63.843a.84.84 0 0 1 .771-.905l67.261-5.395a.84.84 0 0 1 .906.771c.5 6.25-4.159 11.721-10.408 12.223L19.801 74.25c-6.25.502-11.722-4.158-12.223-10.407z" fill="#BFBFBF"/><path d="M15.181 27.172c-.464-5.786 3.85-10.853 9.637-11.317l30.173-2.42c5.786-.464 10.853 3.85 11.317 9.637l3.646 45.469-51.126 4.1-3.647-45.469z" fill="#BFBFBF"/><path d="M72.623 57.783c-3 .24-3.775-2.062-3.849-3.277l-1.203.097.417 5.188 4.763-.407-.128-1.6z" fill="#BFBFBF"/><path d="M22.876 28.453a6.727 6.727 0 0 1 6.168-7.243l30.173-2.42a6.727 6.727 0 0 1 7.243 6.167l3.125 38.974-43.583 3.496-3.126-38.974z" fill="#D8D8D8"/><path d="M28.553 38.753a4.835 4.835 0 1 1-9.639.773 4.835 4.835 0 0 1 9.64-.773zM70.88 35.358a4.835 4.835 0 1 1-9.64.773 4.835 4.835 0 0 1 9.64-.773z" fill="#D8D8D8"/><path d="M21.384 28.256a6.411 6.411 0 1 1 12.782-1.025l.286 3.562a6.411 6.411 0 0 1-12.782 1.025l-.286-3.562zM51.345 12.673c.455 5.67-3.774 10.636-9.444 11.09-5.67.456-10.636-3.773-11.09-9.443-.456-5.67 3.773-10.636 9.443-11.09 5.67-.456 10.636 3.773 11.09 9.443z" fill="#BFBFBF"/><path d="M29.761 6.696l11.035 10.366c.592.555.496 1.497-.189 1.859-3.289 1.74-7.507 1.112-10.423-1.627C27.27 14.556 26.382 10.387 27.916 7c.32-.705 1.254-.858 1.845-.303z" fill="#BFBFBF"/><path d="M24.399 68.482a.924.924 0 0 1 .847-.995l45.095-3.616a.924.924 0 0 1 .994.847l.44 5.492a.924.924 0 0 1-.846.995l-45.095 3.617a.924.924 0 0 1-.995-.847l-.44-5.493z" fill="#979797"/><path d="M14.426 62.45c3-.24 3.397-2.637 3.277-3.848l1.203-.096.416 5.188-4.768.357-.128-1.6z" fill="#BFBFBF"/><path d="M54.746 66.131a1.051 1.051 0 0 1 .966-1.087l2.704-.217c.42-.034.82.187 1.015.56l3.921 7.489a1.051 1.051 0 0 1-.847 1.535l-6.333.508a1.051 1.051 0 0 1-1.134-1.008l-.292-7.78z" fill="#fff"/><path d="M30.013 7.003c1.584 1.35 2.573.532 3.353-.269l.66.329-2.364 2.682-2.434-2.005c.054-.064.343-.218.785-.737zM53.734 13.536c-1.98.159-2.44-1.491-2.612-2.321l-.793.063.346 3.558 3.147-.2-.088-1.1zM51.868 34.122c.122-.01 1.333 1.61 2.57 3.311 1.232 1.694.122 4.067-1.965 4.234-2.087.168-3.56-1.998-2.614-3.867.95-1.877 1.888-3.668 2.01-3.678z" fill="#BFBFBF"/><path d="M52.492 28.731a5.948 5.948 0 1 1 11.857-.95l.29 3.606a5.948 5.948 0 1 1-11.858.95l-.29-3.606zM50.682 32.506l-.289-3.606-11.858.95.29 3.607a5.948 5.948 0 0 0 11.857-.951z" fill="#fff"/><path d="M54.276 27.819a2.092 2.092 0 0 0 1.844-2.663 2.713 2.713 0 0 1 2.625 2.495l.26 3.245a2.713 2.713 0 0 1-5.408.434l-.26-3.245a2.73 2.73 0 0 1-.002-.407c.29.115.61.168.941.141zM40.3 28.94a2.092 2.092 0 0 0 1.843-2.663 2.713 2.713 0 0 1 2.625 2.495l.26 3.245a2.713 2.713 0 0 1-5.408.434l-.26-3.245a2.743 2.743 0 0 1-.002-.407c.29.115.61.168.941.141z" fill="#979797"/><path d="M34.511 23.898l31.093-2.494.739 9.22-31.092 2.493-.74-9.219z" fill="#D8D8D8"/><path d="M13.379 23.099a1.471 1.471 0 0 1 1.349-1.584l51.336-4.118c.81-.065 1.52.54 1.585 1.35l.218 2.723c.065.81-.539 1.52-1.349 1.585l-51.336 4.117c-.81.065-1.52-.54-1.585-1.35L13.38 23.1z" fill="#979797"/><path fill-rule="evenodd" clip-rule="evenodd" d="M36.252 22.21c1.392-2.384 3.962-4.068 6.958-4.458a9.84 9.84 0 0 1 4.693.515 2.31 2.31 0 0 1-1.606 4.33 5.222 5.222 0 0 0-2.49-.265c-1.668.218-2.94 1.135-3.565 2.207a2.31 2.31 0 0 1-3.99-2.328zM67.591 23.67c-1.53-2.3-4.195-3.829-7.208-4.042a9.84 9.84 0 0 0-4.655.79 2.31 2.31 0 0 0 1.859 4.229 5.22 5.22 0 0 1 2.47-.411c1.678.118 3.001.96 3.689 1.992a2.31 2.31 0 0 0 3.845-2.559zM64.33 45.256a.693.693 0 0 1 .972.123 5.8 5.8 0 0 1-5.406 9.298.693.693 0 1 1 .197-1.372 4.415 4.415 0 0 0 4.114-7.076.693.693 0 0 1 .123-.973z" fill="#BFBFBF"/><path fill-rule="evenodd" clip-rule="evenodd" d="M60.348 45.975a2.728 2.728 0 0 0-1.2.06.891.891 0 0 1-.508-1.709 4.503 4.503 0 0 1 2.046-.102c.807.156 1.69.607 2.192 1.618a.9.9 0 0 1 .02.041c.285.659.32 1.953-.825 3.036a.891.891 0 0 1-1.225-1.294c.29-.274.388-.526.42-.705a.834.834 0 0 0 .011-.238.5.5 0 0 0-.014-.08c-.193-.364-.51-.549-.917-.627z" fill="#979797"/><path fill-rule="evenodd" clip-rule="evenodd" d="M58.928 42.116a1.331 1.331 0 0 0-.717.084.891.891 0 1 1-.697-1.64 3.107 3.107 0 0 1 1.767-.191c.752.152 1.467.645 1.836 1.618.008.02.014.04.02.06.216.72.128 1.734-.561 2.687-.69.954-1.932 1.784-3.926 2.291a.891.891 0 1 1-.44-1.728c1.73-.44 2.549-1.093 2.921-1.608.356-.492.352-.915.306-1.103a.84.84 0 0 0-.232-.343.613.613 0 0 0-.277-.127z" fill="#979797"/><path d="M81.142 79.242c3.053.394 5.85-1.788 6.249-4.873.398-3.085-1.754-5.905-4.807-6.299-3.053-.393-5.85 1.788-6.249 4.873-.398 3.085 1.755 5.905 4.807 6.299zM101.191 81.829c3.053.393 5.85-1.788 6.248-4.873.399-3.085-1.754-5.905-4.806-6.299-3.053-.394-5.85 1.788-6.249 4.873-.398 3.085 1.754 5.905 4.807 6.299zM97.373 65.414c3.053.394 5.85-1.788 6.248-4.872.398-3.085-1.754-5.905-4.807-6.3-3.053-.393-5.85 1.788-6.248 4.873-.398 3.085 1.754 5.905 4.807 6.299z" fill="#979797"/><path d="M91.167 80.535c3.053.394 5.85-1.787 6.248-4.872.398-3.085-1.754-5.905-4.807-6.3-3.053-.393-5.85 1.788-6.248 4.873-.398 3.085 1.754 5.905 4.807 6.3z" fill="#979797"/><path d="M87.348 72.927c3.053.394 5.85-1.787 6.248-4.872.398-3.085-1.754-5.905-4.807-6.299-3.052-.394-5.85 1.788-6.248 4.873-.398 3.084 1.754 5.905 4.807 6.298zM80.097 56.453c3.052.394 5.85-1.787 6.248-4.872.398-3.085-1.754-5.905-4.807-6.299-3.053-.393-5.85 1.788-6.248 4.873-.399 3.085 1.754 5.905 4.806 6.298zM82.81 39.206c3.053.394 5.85-1.788 6.248-4.872.398-3.085-1.754-5.905-4.807-6.3-3.052-.393-5.85 1.788-6.248 4.873-.398 3.085 1.754 5.905 4.807 6.299zM87.216 18.663c3.053.394 5.85-1.787 6.248-4.872.398-3.085-1.754-5.905-4.806-6.299-3.053-.394-5.85 1.788-6.249 4.873-.398 3.084 1.754 5.905 4.807 6.298zM97.908 32.69c3.053.393 5.85-1.788 6.248-4.873.398-3.085-1.754-5.905-4.807-6.299-3.052-.394-5.85 1.788-6.248 4.872-.398 3.085 1.754 5.905 4.807 6.3zM100.125 50.526c3.072-.19 5.408-2.86 5.217-5.964-.191-3.104-2.836-5.468-5.909-5.279-3.072.19-5.408 2.86-5.217 5.964.191 3.104 2.837 5.468 5.909 5.279zM112.282 59.23c3.073-.19 5.408-2.86 5.217-5.964-.191-3.105-2.836-5.468-5.908-5.28-3.073.19-5.408 2.86-5.217 5.964.191 3.105 2.836 5.468 5.908 5.28z" fill="#979797"/><path fill-rule="evenodd" clip-rule="evenodd" d="M88.232 64.569a.758.758 0 0 1 .848-.655 2.296 2.296 0 0 1 1.975 2.578.758.758 0 1 1-1.504-.194.78.78 0 0 0-.665-.881.758.758 0 0 1-.654-.849zM80.98 48.094a.758.758 0 0 1 .848-.654 2.296 2.296 0 0 1 1.975 2.578.758.758 0 0 1-1.504-.194.78.78 0 0 0-.665-.881.758.758 0 0 1-.654-.849zM83.693 30.847a.758.758 0 0 1 .849-.655 2.296 2.296 0 0 1 1.974 2.578.758.758 0 1 1-1.503-.194.78.78 0 0 0-.665-.88.758.758 0 0 1-.655-.85zM88.1 10.304a.758.758 0 0 1 .848-.654 2.296 2.296 0 0 1 1.974 2.578.758.758 0 1 1-1.503-.194.78.78 0 0 0-.665-.881.758.758 0 0 1-.655-.849zM98.791 24.33a.758.758 0 0 1 .849-.654 2.296 2.296 0 0 1 1.974 2.578.757.757 0 1 1-1.503-.194.78.78 0 0 0-.665-.881.758.758 0 0 1-.655-.849zM99.416 42.15a.758.758 0 0 1 .71-.803 2.296 2.296 0 0 1 2.425 2.16.758.758 0 1 1-1.512.093.782.782 0 0 0-.82-.74.758.758 0 0 1-.803-.71zM111.573 50.854a.758.758 0 0 1 .71-.803 2.295 2.295 0 0 1 2.425 2.159.757.757 0 1 1-1.512.093.78.78 0 0 0-.82-.74.758.758 0 0 1-.803-.71zM98.924 57.141a.758.758 0 0 1 .848-.654 2.295 2.295 0 0 1 1.974 2.578.757.757 0 1 1-1.503-.194.78.78 0 0 0-.665-.881.758.758 0 0 1-.654-.849zM83.077 70.817a.758.758 0 0 1 .849-.654A2.296 2.296 0 0 1 85.9 72.74a.758.758 0 1 1-1.503-.194.78.78 0 0 0-.665-.881.758.758 0 0 1-.655-.849zM93.186 72.121a.758.758 0 0 1 .848-.654 2.296 2.296 0 0 1 1.975 2.578.758.758 0 1 1-1.503-.194.78.78 0 0 0-.666-.881.758.758 0 0 1-.654-.849z" fill="#D8D8D8"/><path d="M111.216 83.122c3.052.394 5.85-1.787 6.248-4.872.398-3.085-1.754-5.905-4.807-6.3-3.053-.393-5.85 1.788-6.248 4.873-.398 3.085 1.754 5.905 4.807 6.299z" fill="#979797"/><path d="M107.397 75.514c3.053.394 5.851-1.787 6.249-4.872.398-3.085-1.755-5.905-4.807-6.299-3.053-.394-5.851 1.788-6.249 4.873-.398 3.084 1.754 5.904 4.807 6.298z" fill="#979797"/><path fill-rule="evenodd" clip-rule="evenodd" d="M108.947 67.241a.759.759 0 0 1 .849-.654 2.296 2.296 0 0 1 1.974 2.578.757.757 0 1 1-1.503-.194.78.78 0 0 0-.665-.881.759.759 0 0 1-.655-.849zM102.257 73.292a.758.758 0 0 1 .849-.655 2.296 2.296 0 0 1 1.974 2.578.758.758 0 0 1-1.503-.194.78.78 0 0 0-.665-.88.758.758 0 0 1-.655-.85zM112.366 74.596a.757.757 0 0 1 .848-.654 2.296 2.296 0 0 1 1.975 2.578.758.758 0 0 1-1.503-.194.782.782 0 0 0-.666-.881.757.757 0 0 1-.654-.849z" fill="#D8D8D8"/><path d="M74.492 74.58l45.242 5.838-3.213 24.905a1.516 1.516 0 0 1-1.697 1.309l-42.237-5.45a1.515 1.515 0 0 1-1.309-1.697l3.214-24.904z" fill="#9069CD"/><path d="M74.492 74.58l45.242 5.838-3.213 24.905a1.516 1.516 0 0 1-1.697 1.309l-42.237-5.45a1.515 1.515 0 0 1-1.309-1.697l3.214-24.904z" fill="#BFBFBF"/><path d="M72.567 74.95c.108-.83.827-1.422 1.608-1.32l46.108 5.948c.78.101 1.326.856 1.219 1.686l-.131 1.02c-.107.83-.827 1.422-1.608 1.321l-46.108-5.95c-.78-.1-1.326-.854-1.22-1.684l.132-1.021z" fill="#D8D8D8"/><path fill-rule="evenodd" clip-rule="evenodd" d="M90.935 84.524c.21-1.623 1.704-2.767 3.34-2.556l2.96.382-.975 7.558-5.921-.764.596-4.62zM105.444 93.814a2.965 2.965 0 0 0 2.36-2.523l.596-4.62-2.96-.381c-1.636-.211-3.131.933-3.34 2.556l-1.152 8.924c-.209 1.623.946 3.109 2.582 3.32l2.96.382.597-4.62a2.967 2.967 0 0 0-1.643-3.038z" fill="#979797"/><path fill-rule="evenodd" clip-rule="evenodd" d="M86.28 96.463l2.594.334.574-4.453a1.62 1.62 0 0 0-1.399-1.814l-3.513-.453a7.303 7.303 0 0 1 8.087-5.765l2.654.342a7.302 7.302 0 0 1 6.308 8.178 7.303 7.303 0 0 1-8.177 6.308l-2.654-.343a7.274 7.274 0 0 1-4.474-2.334z" fill="#D8D8D8"/><path fill-rule="evenodd" clip-rule="evenodd" d="M95.897 101.182c.96-.735 1.116-2.135.346-3.125-.77-.99-3.708-1.525-3.867-1.404-.159.122-.383 3.079.387 4.069.77.99 2.172 1.196 3.133.46z" fill="#979797"/><path d="M93.039 92.693a2.076 2.076 0 0 0 2.316-1.805 2.077 2.077 0 0 0-1.782-2.335 2.077 2.077 0 0 0-2.316 1.806 2.077 2.077 0 0 0 1.782 2.334z" fill="#979797"/><path d="M78.698 93.459a2.076 2.076 0 0 0 2.316-1.806 2.077 2.077 0 0 0-1.781-2.335 2.076 2.076 0 0 0-2.316 1.806 2.076 2.076 0 0 0 1.781 2.335zM80.434 86.988c1.621.21 3.106-.949 3.318-2.587.211-1.637-.931-3.134-2.552-3.344-1.621-.209-3.106.95-3.318 2.587-.21 1.638.932 3.135 2.552 3.344z" fill="#D8D8D8"/><path fill-rule="evenodd" clip-rule="evenodd" d="M83.08 89.602a.972.972 0 0 1 1.088-.84l2.063.266c2.389.309 4.09 2.484 3.781 4.873l-.226 1.754c-.088.681-.318 1.382-.921 1.835-.597.447-1.327.476-1.98.392l-2.544-.329a.972.972 0 0 1 .248-1.927l2.545.328c.224.029.37.025.462.01a.393.393 0 0 0 .102-.03s.005-.003.012-.012a.361.361 0 0 0 .04-.07c.036-.08.078-.218.108-.446l.226-1.754a2.417 2.417 0 0 0-2.102-2.696l-2.062-.266a.972.972 0 0 1-.84-1.088zM58.331 87.21l7.1 1.612a3.302 3.302 0 0 1 2.49 3.951l-5.41 23.828a3.302 3.302 0 0 1-3.951 2.489l-7.1-1.612a3.301 3.301 0 0 1-2.49-3.951l5.41-23.828a3.302 3.302 0 0 1 3.951-2.489zM38.374 111.802a4.073 4.073 0 0 0-2.48 2.143l-4.005-.909a4.088 4.088 0 0 1 4.604-2.222c.73.165 1.37.515 1.881.988z" fill="#979797"/><path fill-rule="evenodd" clip-rule="evenodd" d="M31.888 113.036l-6.449-1.465a3.301 3.301 0 0 1-2.489-3.951l2.268-9.992c.358.244.768.427 1.216.529 1.905.432 3.796-.75 4.225-2.64.43-1.891-.766-3.774-2.67-4.207a3.548 3.548 0 0 0-1.325-.048l1.695-7.47a3.302 3.302 0 0 1 3.952-2.489l24.047 5.46a3.302 3.302 0 0 1 2.489 3.95l-5.41 23.828a3.302 3.302 0 0 1-3.951 2.489l-9.8-2.224a4.088 4.088 0 0 0-3.193-3.992 4.088 4.088 0 0 0-4.605 2.222zm13.464-13.521c2.63.597 5.244-1.036 5.837-3.648s-1.06-5.214-3.69-5.811c-2.631-.597-5.244 1.036-5.837 3.648s1.059 5.213 3.69 5.81z" fill="#D8D8D8"/><path fill-rule="evenodd" clip-rule="evenodd" d="M49.237 90.826a4.851 4.851 0 0 0-3.936 3.704 4.851 4.851 0 0 0 1.951 5.04 4.901 4.901 0 0 1-1.9-.055c-2.631-.598-4.283-3.2-3.69-5.811.593-2.612 3.206-4.245 5.837-3.648.644.146 1.23.413 1.738.77z" fill="#979797"/></g><defs><clipPath id="clip0"><path fill="#fff" d="M0 0h135v124H0z"/></clipPath></defs></svg>