<svg viewBox="0 0 135 124" fill="none" xmlns="http://www.w3.org/2000/svg"><path d="M11 28c0-9.389 7.611-17 17-17h79c9.389 0 17 7.611 17 17v79c0 9.389-7.611 17-17 17H28c-9.389 0-17-7.611-17-17V28z" fill="#2BE69C"/><path d="M57.209 50.084c-9.419-.155-16.946-7.848-16.927-17.237l-1.288-.626a17.166 17.166 0 0 1-12.923 5.529c-9.503-.157-17.08-7.987-16.923-17.49.156-9.503 7.986-17.08 17.489-16.923 6.507.107 12.11 3.811 14.947 9.188a7.281 7.281 0 0 0 9.286 4.385l.08.046a17.154 17.154 0 0 1 6.824-1.285c9.503.156 17.08 7.987 16.924 17.49-.156 9.502-7.986 17.08-17.49 16.923z" fill="#3D3D3D"/><path d="M38.652 36.352c-.156 9.503-7.986 17.08-17.49 16.924-9.502-.156-17.08-7.987-16.923-17.49.156-9.502 7.986-17.08 17.489-16.923 9.503.156 17.08 7.986 16.924 17.489z" fill="#3D3D3D"/><path d="M14.779 51.76a5.237 5.237 0 1 1-10.434.923 5.237 5.237 0 0 1 10.434-.924zM78.199 46.145a5.238 5.238 0 1 1-10.435.924 5.238 5.238 0 0 1 10.435-.924z" fill="#DA8E74"/><path fill-rule="evenodd" clip-rule="evenodd" d="M10.636 58.946C9.106 41.657 21.88 26.402 39.168 24.872c17.288-1.53 32.543 11.244 34.073 28.532l.957 10.812c.584 6.601-4.293 12.427-10.895 13.011l-38.698 3.426c-6.602.584-12.427-4.294-13.012-10.895l-.957-10.812z" fill="#DA8E74"/><path d="M9.976 51.48L8.024 29.418a7.686 7.686 0 0 1 10.804 6.336l.672 7.588a7.686 7.686 0 0 1-9.524 8.136zM70.704 24.737l1.813 20.476a7.686 7.686 0 0 1-10.54-6.449l-.516-5.827a7.686 7.686 0 0 1 9.243-8.2z" fill="#3D3D3D"/><path d="M36.537 62.588l-.096.006c-2.911.204-4.895-.501-6.174-2.084l-.058-.073c-2.021-2.588-5.712-3.026-8.243-.98-2.53 2.047-2.944 5.804-.923 8.392 3.911 5.007 9.705 7.123 16.255 6.665 3.23-.226 5.657-3.078 5.42-6.37-.234-3.258-2.991-5.726-6.18-5.556z" fill="#fff"/><path fill-rule="evenodd" clip-rule="evenodd" d="M27.498 43.033A6.424 6.424 0 1 1 40.295 41.9l.345 3.892a6.424 6.424 0 1 1-12.797 1.133l-.345-3.892z" fill="#fff"/><path fill-rule="evenodd" clip-rule="evenodd" d="M32.817 42.838a2.884 2.884 0 0 1 5.745-.509l.32 3.609a2.884 2.884 0 0 1-5.746.508l-.32-3.608z" fill="#3D3D3D"/><path fill-rule="evenodd" clip-rule="evenodd" d="M55.63 40.542a6.424 6.424 0 0 0-12.797 1.133l.345 3.892a6.424 6.424 0 1 0 12.797-1.133l-.344-3.892z" fill="#fff"/><path fill-rule="evenodd" clip-rule="evenodd" d="M50.77 41.249a2.884 2.884 0 1 0-5.745.508l.319 3.608a2.884 2.884 0 0 0 5.745-.508l-.32-3.608z" fill="#3D3D3D"/><path d="M41.898 66.334a8.447 8.447 0 0 0-1.49-16.828l-9.499.841a8.447 8.447 0 1 0 1.49 16.828l9.5-.84z" fill="#3D3D3D"/><path d="M43.374 67.193a8.447 8.447 0 1 1 5.484-15.979l6.959 2.388a8.447 8.447 0 1 1-5.484 15.98l-6.959-2.389z" fill="#3D3D3D"/><path fill-rule="evenodd" clip-rule="evenodd" d="M20.904 34.998l19.407-1.718.829 9.364-19.407 1.718-.829-9.364z" fill="#DA8E74"/><path fill-rule="evenodd" clip-rule="evenodd" d="M38.775 31.364l18.321-1.622.83 9.364-18.322 1.622-.829-9.364z" fill="#DA8E74"/><path fill-rule="evenodd" clip-rule="evenodd" d="M40.93 39.732a3.27 3.27 0 0 1 3.324-3.215l10.216.167a3.27 3.27 0 1 1-.107 6.54l-10.217-.169a3.27 3.27 0 0 1-3.215-3.323zM24.734 34.387a3.27 3.27 0 0 1 2.514-3.88l8.527-1.822a3.27 3.27 0 0 1 1.367 6.395l-8.527 1.822a3.27 3.27 0 0 1-3.881-2.515z" fill="#3D3D3D"/><path d="M46.304 49.983a3.951 3.951 0 1 1-7.872.697 3.951 3.951 0 0 1 7.872-.697z" fill="#DA8E74"/><path d="M105.935 102.931a3.893 3.893 0 0 1-3.561-4.2l2.2-26.775a3.895 3.895 0 0 1 7.761.638l-2.2 26.775a3.895 3.895 0 0 1-4.2 3.562z" fill="#777"/><path d="M76.536 81.567a3.115 3.115 0 0 1 3.36-2.85l34.536 2.84a3.115 3.115 0 0 1 2.849 3.359l-2.251 27.386a3.114 3.114 0 0 1-3.36 2.849l-34.536-2.838a3.115 3.115 0 0 1-2.85-3.36l2.252-27.386z" fill="#939393"/><path d="M96.907 83.241a3.115 3.115 0 0 1 3.359-2.85l26.582 2.186a3.115 3.115 0 0 1 2.849 3.36l-2.251 27.385a3.115 3.115 0 0 1-3.36 2.85l-26.58-2.185a3.115 3.115 0 0 1-2.85-3.36l2.25-27.386z" fill="#777"/><path d="M100.281 86.254a1.168 1.168 0 0 1 1.26-1.069l23.266 1.912a1.168 1.168 0 0 1 1.068 1.26l-1.307 15.904a1.169 1.169 0 0 1-1.26 1.069l-23.266-1.912a1.168 1.168 0 0 1-1.068-1.26l1.307-15.904zM98.68 105.759a1.17 1.17 0 0 1 1.26-1.069l5.331.439a1.167 1.167 0 0 1 1.068 1.259l-.23 2.808a1.17 1.17 0 0 1-1.26 1.069l-5.332-.439a1.167 1.167 0 0 1-1.068-1.259l.23-2.808zM107.647 106.496a1.167 1.167 0 0 1 1.259-1.069l5.332.438a1.168 1.168 0 0 1 1.068 1.26l-.231 2.808a1.167 1.167 0 0 1-1.259 1.068l-5.332-.438a1.168 1.168 0 0 1-1.068-1.26l.231-2.807zM116.613 107.233a1.169 1.169 0 0 1 1.26-1.069l5.331.438a1.169 1.169 0 0 1 1.069 1.26l-.231 2.808a1.168 1.168 0 0 1-1.26 1.068l-5.331-.438a1.168 1.168 0 0 1-1.068-1.26l.23-2.807z" fill="#646464"/><path d="M89.431 70.712a3.894 3.894 0 0 1 4.2-3.562l15.144 1.245a3.893 3.893 0 0 1-.638 7.76l-15.144-1.244a3.894 3.894 0 0 1-3.562-4.2z" fill="#777"/><path d="M87.298 70.536a3.894 3.894 0 0 1 4.2-3.562l7.58.623a3.893 3.893 0 1 1-.638 7.761l-7.58-.623a3.894 3.894 0 0 1-3.562-4.2z" fill="#AFAFAF"/><path d="M79.634 69.906a3.894 3.894 0 0 1 4.2-3.562l9.014.741a3.893 3.893 0 1 1-.638 7.761l-9.014-.74a3.894 3.894 0 0 1-3.562-4.2z" fill="#4B4B4B"/><path d="M73.647 91.51a4.672 4.672 0 0 1 5.039-4.274l8.634.71a4.672 4.672 0 0 1 4.274 5.04l-.589 7.16a4.672 4.672 0 0 1-5.04 4.274l-8.633-.709a4.673 4.673 0 0 1-4.274-5.04l.589-7.16z" fill="#3D3D3D"/><path d="M53.898 84.06a4.672 4.672 0 0 1 5.04-4.274l21.245 1.746a4.672 4.672 0 0 1 4.274 5.04l-1.54 18.737a4.672 4.672 0 0 1-5.04 4.274l-21.245-1.746a4.672 4.672 0 0 1-4.274-5.039l1.54-18.738z" fill="#4B4B4B"/><path d="M61.73 87.405a1.558 1.558 0 0 1 1.68-1.424l14.842 1.22c.858.07 1.496.822 1.425 1.68l-1.099 13.369a1.558 1.558 0 0 1-1.68 1.425l-14.842-1.22a1.558 1.558 0 0 1-1.425-1.68l1.099-13.37z" fill="#1CB0F6"/><path opacity=".6" d="M105.255 24.4a1 1 0 0 1 1.757.4l1.19 5.176a.998.998 0 0 0 .624.713l4.974 1.862a1 1 0 0 1 .164 1.794l-4.556 2.731a.997.997 0 0 0-.484.814l-.234 5.306a1 1 0 0 1-1.656.71l-4.006-3.488a.999.999 0 0 0-.923-.21l-5.12 1.418A1 1 0 0 1 95.8 40.27l2.08-4.887a1 1 0 0 0-.086-.943l-2.93-4.43a1 1 0 0 1 .922-1.548l5.291.467a1 1 0 0 0 .871-.373l3.308-4.155zM35.185 90.969a1 1 0 0 1 1.757.399l1.19 5.176a1 1 0 0 0 .623.712l4.975 1.863a1 1 0 0 1 .164 1.794l-4.556 2.731a1 1 0 0 0-.485.814l-.234 5.306a1 1 0 0 1-1.655.71l-4.006-3.488a1 1 0 0 0-.923-.21l-5.12 1.417a1 1 0 0 1-1.186-1.355l2.08-4.887a1 1 0 0 0-.086-.943l-2.93-4.43a1 1 0 0 1 .922-1.549l5.29.468a1 1 0 0 0 .871-.373l3.309-4.155zM87.307 45.397a1 1 0 0 1 1.713-.56l1.974 2.058a1 1 0 0 0 .901.291l2.805-.513a1 1 0 0 1 1.062 1.456l-1.346 2.514a1 1 0 0 0 .001.947l1.355 2.509a1 1 0 0 1-1.057 1.46l-2.806-.504a1 1 0 0 0-.9.294l-1.969 2.064a1 1 0 0 1-1.714-.554l-.388-2.825a1 1 0 0 0-.558-.765l-2.57-1.234a1 1 0 0 1-.004-1.802l2.567-1.242a1 1 0 0 0 .555-.767l.38-2.827z" fill="#fff"/></svg>