<svg viewBox="0 0 135 124" version="1.1" xmlns="http://www.w3.org/2000/svg"><g stroke="none" stroke-width="1" fill="none" fill-rule="evenodd"><path d="M28 11h79c9.389 0 17 7.611 17 17v79c0 9.389-7.611 17-17 17H28c-9.389 0-17-7.611-17-17V28c0-9.389 7.611-17 17-17z" fill="#6F4EA1"/><g><g transform="translate(-2.82 4.143)"><path d="M102.82 86.857c9.457 0 17.984 3.977 24 10.35v5.65c0 9.389-7.61 17-17 17h-44c0-18.226 14.775-33 33-33h4z" fill="#FFAADE"/><path d="M90.82 79.857h19v10.5a9.5 9.5 0 0 1-19 0v-10.5z" fill="#A46644"/><path d="M104.154 3c19.421 1.357 34.064 18.202 32.706 37.623l-2.93 41.897a6.75 6.75 0 0 1-7.204 6.263l-56.863-3.976a6.75 6.75 0 0 1-6.263-7.205l2.93-41.897C67.888 16.285 84.733 1.641 104.154 3z" fill="#4B4B4B"/><path d="M86.61 28.087l31.751 2.22c5.372.376 9.422 5.035 9.047 10.406l-1.735 24.802c-.988 14.14-13.252 24.8-27.392 23.811-14.14-.988-24.8-13.252-23.811-27.392l1.734-24.801c.376-5.372 5.035-9.422 10.406-9.046z" fill="#A46644"/><rect fill="#A46644" transform="rotate(4 100.42 61.757)" x="63.295" y="53.132" width="74.25" height="17.25" rx="8.625"/><rect fill="#8C4823" transform="rotate(4 100.656 58.39)" x="97.281" y="50.89" width="6.75" height="15" rx="2.25"/><path d="M113.194 45.734l10.474.733a7.5 7.5 0 0 1 6.959 8.004l-.262 3.741a7.5 7.5 0 0 1-8.004 6.959l-10.475-.733a7.5 7.5 0 0 1-6.958-8.004l.261-3.741a7.5 7.5 0 0 1 8.005-6.959zM79.526 43.38l10.475.732a7.5 7.5 0 0 1 6.958 8.005l-.261 3.741a7.5 7.5 0 0 1-8.005 6.959l-10.475-.733a7.5 7.5 0 0 1-6.958-8.005l.261-3.74a7.5 7.5 0 0 1 8.005-6.96z" fill="#FFF"/><path fill="#FFAADE" d="M97.169 49.125l8.23.575-.262 3.741-8.23-.575z"/><rect fill="#4B4B4B" transform="rotate(4 110.681 56.585)" x="107.681" y="52.085" width="6" height="9" rx="3"/><rect fill="#4B4B4B" transform="rotate(4 89.982 55.138)" x="86.982" y="50.638" width="6" height="9" rx="3"/><path d="M129.952 52.732l.046.886a25.68 25.68 0 0 1-20.993-5.634l-.885-.744a7.467 7.467 0 0 1 3.464-1.056l10.486-.55a7.5 7.5 0 0 1 7.882 7.098zM73.695 48.798l-.169.871a25.68 25.68 0 0 0 21.573-2.657l.98-.614a7.467 7.467 0 0 0-3.283-1.527l-10.308-2.004a7.5 7.5 0 0 0-8.793 5.931z" fill="#A46644"/><path d="M113.194 45.734l10.474.733a7.5 7.5 0 0 1 6.959 8.004l-.262 3.741a7.5 7.5 0 0 1-8.004 6.959l-10.475-.733a7.5 7.5 0 0 1-6.958-8.004l.261-3.741a7.5 7.5 0 0 1 8.005-6.959zM79.526 43.38l10.475.732a7.5 7.5 0 0 1 6.958 8.005l-.261 3.741a7.5 7.5 0 0 1-8.005 6.959l-10.475-.733a7.5 7.5 0 0 1-6.958-8.005l.261-3.74a7.5 7.5 0 0 1 8.005-6.96z" stroke="#FFAADE" stroke-width="3"/><path d="M73.746 18.521l55.92.64a50.782 50.782 0 0 1-36.515 27.146l-25.54 4.51 6.135-32.296z" fill="#4B4B4B"/><path d="M93.846 71.727a8.001 8.001 0 0 1 8.583.842" stroke="#8C4823" stroke-width="3" stroke-linecap="round" stroke-linejoin="round"/><path d="M40.32 99.857l21.716 2.386c8.871.974 15.614 8.387 15.781 17.276l.004.338h-47c-9.053 0-16.453-7.076-16.971-16a17.705 17.705 0 0 1 5.75-1.661l20.72-2.34z" fill="#CE82FF"/><path d="M29.268 94.857h22.105v8.947c0 6.104-4.948 11.053-11.052 11.053-6.105 0-11.053-4.949-11.053-11.053v-8.947z" stroke="#9069CD" stroke-width="4" fill="#FEB5A1" stroke-linejoin="round"/><rect fill="#FEB5A1" x="4.821" y="58.577" width="71.44" height="19" rx="9.5"/><rect fill="#FFE031" transform="rotate(7 20 19.5)" x="3" y="2" width="34" height="35" rx="17"/><rect fill="#CE82FF" transform="rotate(7 24.964 27.628)" x="15.581" y="18.128" width="18.765" height="19" rx="9.383"/><rect fill="#FFE031" x="9.821" y="20.857" width="62.32" height="63.08" rx="30.4"/><rect fill="#FEB5A1" x="13.821" y="25.857" width="54.72" height="77.52" rx="27.36"/><rect fill="#FFE031" x="9.381" y="52.457" width="5.32" height="35" rx="2.66"/><rect fill="#F18B77" x="37.43" y="64.824" width="6.08" height="19.76" rx="3.04"/><rect fill="#FFF" x="45.101" y="61.857" width="15.2" height="20.52" rx="7.22"/><rect fill="#FFF" x="20.781" y="61.857" width="15.2" height="20.52" rx="7.22"/><rect fill="#2B70C9" x="47.381" y="67.937" width="8" height="12" rx="4"/><rect fill="#2B70C9" x="26.461" y="67.937" width="8" height="12" rx="4"/><path d="M47.288 94.607a9.5 9.5 0 0 0-13.435 0" stroke="#F18B77" stroke-width="2" stroke-linecap="round" stroke-linejoin="round"/><path d="M58.82 55.857l4.36 10.753c-5.688 2.183-11.885.672-15.947-3.356-.428-.425 1.75-1.145 3.188-2.147 1.224-.854 4.024-2.604 8.4-5.25z" fill="#FEB5A1"/><circle fill="#FFF" cx="48.321" cy="69.357" r="2.5"/><circle fill="#FFF" cx="27.321" cy="69.357" r="2.5"/><rect fill="#FFE031" x="66.381" y="52.457" width="5.32" height="35" rx="2.66"/><path d="M57.166 77.098a3.25 3.25 0 0 1 5.288 3.78c-2.688 3.76-6.967 5.778-11.342 5.085a3.25 3.25 0 0 1 .834-6.444l.183.024c1.753.278 3.57-.535 4.877-2.229l.16-.216zM24.184 77.098a3.25 3.25 0 0 0-5.288 3.78c2.688 3.76 6.967 5.778 11.342 5.085a3.25 3.25 0 0 0-.834-6.444l-.183.024c-1.826.29-3.722-.605-5.037-2.445z" fill="#47D7FF" fill-rule="nonzero"/><path d="M25.795 89.03l3.606 6.998a5.37 5.37 0 0 1-4.772 7.829 5.195 5.195 0 0 1-4.547-7.709l3.949-7.143a1 1 0 0 1 1.764.026z" fill="#47D7FF"/><path d="M60.274 75.77l-.01.11a7.22 7.22 0 0 1-7.183 6.497h-.76c-1.332 0-2.58-.36-3.65-.99a3.252 3.252 0 0 1 3.275-1.868l.183.024c1.753.278 3.57-.535 4.877-2.229l.16-.216a3.25 3.25 0 0 1 3.108-1.327zM21.005 75.782a3.25 3.25 0 0 1 3.179 1.316c1.315 1.84 3.211 2.734 5.037 2.445l.183-.024a3.252 3.252 0 0 1 3.23 1.772 7.186 7.186 0 0 1-3.81 1.086h-.76a7.22 7.22 0 0 1-7.191-6.57z" fill="#94FDFF"/><path d="M37.858 24.617l22.621 4.338 3.392 7.553.005-.011.006.035.111.246.13-.03.158-.028a3.42 3.42 0 0 1 3.884 2.684l.03.159 2.377 15.013a3.42 3.42 0 0 1-2.684 3.884l-.056.01 2.93 16.267a39.363 39.363 0 0 1-9.698-25.442l-.003-.495c0-1.467-.199-.785 0-2.018-7.287 10.472-14.123 16.95-26.6 20.075-8.318 2.083-15.774 2.51-22.366 1.28l2.274-9.785-3.269-.517 3.448-21.769 3.728.59 2.789-7.38 16.793-4.66z" fill="#FFE031"/></g></g></g></svg>