<svg viewBox="0 0 135 124" version="1.1" xmlns="http://www.w3.org/2000/svg"><g stroke="none" stroke-width="1" fill="none" fill-rule="evenodd"><g transform="translate(11 11)"><rect fill="#FFCA00" x="0" y="0" width="113" height="113" rx="17"/><path d="M111.44 9.93L9.92 111.45a16.94 16.94 0 0 0 7.08 1.56h41.32L113 58.33V17.01a16.94 16.94 0 0 0-1.56-7.08zM39.32 58.07l58-58c-.43 0-.87-.07-1.31-.07H47.42L14.34 33.09c-6.904 6.904-6.904 18.096 0 25s18.096 6.904 25 0l-.02-.02z" fill="#FFD900" fill-rule="nonzero"/></g><g transform="translate(7 1.532)"><path d="M99.736 122.468h-79c-8.365 0-15.319-6.041-16.736-13.999h112.472c-1.417 7.958-8.371 14-16.736 14z" fill="#E27903"/><path d="M9.736 45.468h95a2 2 0 0 1 2 2v51h-99v-51a2 2 0 0 1 2-2z" fill="#FFAA32"/><path fill="#FFAA32" d="M57.236 7.468l49.5 39h-99z"/><path fill="#FF9600" d="M7.736 41.468h99v5h-99z"/><rect fill="#E27903" transform="rotate(51 31.125 25)" x="28.125" y="-11" width="6" height="72" rx="3"/><rect fill="#E27903" transform="scale(-1 1) rotate(51 0 -149.741)" x="80.347" y="-11" width="6" height="72" rx="3"/><rect fill="#FFD900" transform="rotate(90 68.736 79.968)" x="55.236" y="71.968" width="27" height="16" rx="2"/><path fill="#FFAA32" d="M7.213 60.468h42v48h-42z"/><path fill="#FFF1A2" d="M6.213 60.468h5v38h-5zM45.213 60.468h5v38h-5z"/><path fill="#FF9600" d="M28.213 45.68l20.05 17H8.162z"/><rect fill="#E27903" transform="rotate(51 16.224 52.853)" x="13.224" y="35.353" width="6" height="35" rx="3"/><rect fill="#E27903" transform="rotate(128 39.785 52.761)" x="36.785" y="34.761" width="6" height="36" rx="3"/><path d="M6.736 98.369h100a2 2 0 0 1 2 2v8.1h-104v-8.1a2 2 0 0 1 2-2z" fill="#FF9600"/><path d="M74.727 66.355l-12.491 12.98v12.02c0 .226.038.444.107.647l14.393-14.957v-9.203c0-.591-.257-1.122-.665-1.488l-1.344.001z" fill="#FFE760"/><rect stroke="#FFF1A2" stroke-width="3" transform="rotate(90 68.736 79.968)" x="55.236" y="71.968" width="27" height="16" rx="2"/><rect fill="#FFD900" transform="rotate(90 57.736 26.968)" x="50.236" y="18.968" width="15" height="16" rx="2"/><rect fill="#FFD900" transform="rotate(90 92.736 79.968)" x="79.236" y="71.968" width="27" height="16" rx="2"/><path d="M98.727 66.355l-12.491 12.98v12.02c0 .226.038.444.107.647l14.393-14.957v-9.203c0-.591-.257-1.122-.665-1.488l-1.344.001z" fill="#FFE760"/><rect stroke="#FFF1A2" stroke-width="3" transform="rotate(90 92.736 79.968)" x="79.236" y="71.968" width="27" height="16" rx="2"/><path d="M79.97 77.468H100.4c6.903 0 12.5 5.597 12.5 12.5v7.5a5 5 0 0 1-5 5H69.135a5 5 0 0 1-4.437-7.307l6.4-12.306a10 10 0 0 1 8.872-5.387z" fill="#EA810C"/><path d="M60.236 90.369h33.5a4 4 0 0 1 4 4v5a4 4 0 0 1-4 4h-36a4 4 0 0 1-4-4v-2.5a6.5 6.5 0 0 1 6.5-6.5z" fill="#EA810C"/><circle fill="#E27903" cx="67.736" cy="101.369" r="7"/><circle fill="#E27903" cx="103.736" cy="101.369" r="7"/><path d="M67.736 94.369a8 8 0 0 1 7.995 7.725l.005.275h-16a8 8 0 0 1 8-8zM103.736 94.369a8 8 0 0 1 7.995 7.725l.005.275h-16a8 8 0 0 1 8-8z" fill="#FF9600"/><rect fill="#FFF1A2" x="51.736" y="100.369" width="62" height="3" rx="1.5"/><path d="M54.336 94.468h2.8a1 1 0 0 1 1 1v2a1 1 0 0 1-1 1h-2.8a1 1 0 0 1-1-1v-2a1 1 0 0 1 1-1z" fill="#FFF1A2"/><path d="M72.831 80.466l4.905.002a2 2 0 0 1 2 2v6a2 2 0 0 1-2 2H67.139l3.959-7.613a9.99 9.99 0 0 1 1.733-2.39zM85.736 80.468h12a2 2 0 0 1 2 2v6a2 2 0 0 1-2 2h-12a2 2 0 0 1-2-2v-6a2 2 0 0 1 2-2zM112.899 89.968l-.001.5h-7.162a2 2 0 0 1-2-2v-6a2 2 0 0 1 2-2h2.786a12.472 12.472 0 0 1 4.377 9.5z" fill="#E27903"/><rect fill="#FFF1A2" transform="rotate(45 94.736 15.468)" x="87.736" y="8.468" width="14" height="14" rx="1"/><rect fill="#FFF1A2" transform="rotate(45 108.236 29.968)" x="104.736" y="26.468" width="7" height="7" rx="1"/><rect stroke="#FFF1A2" stroke-width="4" fill="#FF9600" x="19.661" y="69.468" width="17.103" height="31" rx="1"/><circle fill="#FFF1A2" cx="25.713" cy="85.968" r="2.5"/><rect fill="#FFE482" x="16.213" y="98.468" width="24" height="9" rx="2"/><path d="M63.486 19.473l-13.75 14.181c.364.494.95.814 1.61.814h5.937l8.064-8.316v-4.684a2 2 0 0 0-1.86-1.995z" fill="#FFE760"/><rect stroke="#FFF1A2" stroke-width="3" transform="rotate(90 57.736 26.968)" x="50.236" y="18.968" width="15" height="16" rx="2"/><path d="M12.736 103.468h30a2 2 0 0 1 2 2v3h-34v-3a2 2 0 0 1 2-2z" fill="#FFF1A2"/></g></g></svg>