<svg viewBox="0 0 135 125" fill="none" xmlns="http://www.w3.org/2000/svg"><rect x="11" y="11.761" width="113" height="113" rx="17" fill="#E5E5E5"/><ellipse cx="67.62" cy="19.675" rx="13.824" ry="13.744" fill="#959595"/><path fill-rule="evenodd" clip-rule="evenodd" d="M22.493 65.306c0-15.768 12.783-28.55 28.55-28.55h32.943c15.767 0 28.55 12.782 28.55 28.55s-12.783 28.55-28.55 28.55H51.043c-15.768 0-28.55-12.782-28.55-28.55z" fill="#959595"/><mask id="a" mask-type="alpha" maskUnits="userSpaceOnUse" x="22" y="36" width="91" height="58"><path fill-rule="evenodd" clip-rule="evenodd" d="M22.493 65.306c0-15.768 12.783-28.55 28.55-28.55h32.943c15.767 0 28.55 12.782 28.55 28.55s-12.783 28.55-28.55 28.55H51.043c-15.768 0-28.55-12.782-28.55-28.55z" fill="#fff"/></mask><g mask="url(#a)"><path fill="#fff" d="M1.16 68.914h130.828v25.57H1.16z"/></g><path d="M32.507 50.392a2.673 2.673 0 0 1 2.672-2.672h65.364a2.672 2.672 0 0 1 2.672 2.672V97.53c0 6.627-5.372 12-12 12H44.507c-6.628 0-12-5.373-12-12V50.392z" fill="#D1D1D1"/><path fill="#959595" d="M43.468 45.177h51.641v8.421H43.468z"/><path fill-rule="evenodd" clip-rule="evenodd" d="M52.207 69.073a7.373 7.373 0 0 1 14.746 0v4.55a7.373 7.373 0 1 1-14.746 0v-4.55z" fill="#fff"/><path fill-rule="evenodd" clip-rule="evenodd" d="M58.276 69.341a3.32 3.32 0 0 1 6.641 0v4.17a3.32 3.32 0 0 1-6.641 0v-4.17z" fill="#959595"/><circle cx="58.667" cy="66.726" r="2.431" fill="#fff"/><path fill-rule="evenodd" clip-rule="evenodd" d="M84.41 69.073a7.373 7.373 0 1 0-14.746 0v4.55a7.373 7.373 0 1 0 14.746 0v-4.55z" fill="#fff"/><path fill-rule="evenodd" clip-rule="evenodd" d="M78.713 69.34a3.32 3.32 0 0 0-6.641 0v4.17a3.32 3.32 0 1 0 6.641 0v-4.17z" fill="#959595"/><circle r="2.431" transform="matrix(-1 0 0 1 72.988 66.725)" fill="#fff"/><path fill-rule="evenodd" clip-rule="evenodd" d="M51.123 76.639s12.44.864 17.13 3.756c4.691 2.891-7.9 16.741-7.9 16.741l-14.025-12.04 4.795-8.457z" fill="#D1D1D1"/><path fill-rule="evenodd" clip-rule="evenodd" d="M86.66 77.116s-12.44.864-17.131 3.756c-4.691 2.891 7.9 16.741 7.9 16.741l14.025-12.04-4.795-8.457z" fill="#D1D1D1"/><path d="M61.9 105.081s5.958 3.814 11.917 0" stroke="silver" stroke-width="1.569" stroke-linecap="round" stroke-linejoin="round"/><path opacity=".626" d="M91.93 71.078l-5.72 2.383 5.72 2.542M43.47 71.078l5.72 2.383-5.72 2.542" stroke="silver" stroke-width="1.569" stroke-linecap="round" stroke-linejoin="round"/><path fill-rule="evenodd" clip-rule="evenodd" d="M25.54 53.239a7.451 7.451 0 0 1 7.337-6.155h8.226a7.451 7.451 0 0 1 7.451 7.451v7.025a7.451 7.451 0 0 1-7.45 7.451h-9.469c-4.634 0-8.144-4.184-7.337-8.747l1.241-7.025zM87.165 53.741a7.451 7.451 0 0 1 7.451-7.451h7a7.452 7.452 0 0 1 7.386 6.466l1.043 7.82c.596 4.466-2.879 8.436-7.385 8.436h-8.044a7.451 7.451 0 0 1-7.451-7.451v-7.82z" fill="#959595"/><path d="M63.948 58.632s-5.466-2.83-10.596.728" stroke="#959595" stroke-width="4.767" stroke-linecap="round" stroke-linejoin="round"/><path fill-rule="evenodd" clip-rule="evenodd" d="M69.209 61.544h16.684v8.103l-16.684-3.716v-4.387z" fill="#D1D1D1"/><path d="M84.247 69.11s-9.92.79-14.454-4.898" stroke="#959595" stroke-width="4.767" stroke-linecap="round" stroke-linejoin="round"/><path fill-rule="evenodd" clip-rule="evenodd" d="M68.336 82.146a3.58 3.58 0 0 0 3.575-3.586c0-1.98-3.575-6.663-3.575-6.663S64.76 76.58 64.76 78.56a3.58 3.58 0 0 0 3.575 3.586z" fill="#959595"/><path d="M78.515 50.263l3.301 5.719c1.468 2.542-.367 5.719-3.301 5.719-2.935 0-4.77-3.177-3.302-5.72l3.302-5.718zM102.586 32.754l-1.709-6.379c-.759-2.834 1.835-5.429 4.67-4.669 2.835.76 3.784 4.303 1.709 6.378l-4.67 4.67zM32.653 32.754l1.709-6.379c.76-2.834-1.834-5.429-4.67-4.669-2.834.76-3.784 4.303-1.709 6.378l4.67 4.67zM105.452 38.574l5.719-3.302c2.542-1.467 5.719.367 5.719 3.302s-3.177 4.769-5.719 3.302l-5.719-3.302zM29.787 38.574l-5.719-3.302c-2.541-1.467-5.718.367-5.718 3.302s3.177 4.769 5.718 3.302l5.72-3.302z" fill="#fff"/><path d="M57.928 89.142a2.65 2.65 0 0 1 2.65-2.65h15.623a2.65 2.65 0 1 1-.786 5.182l-5.077-1.578a6.567 6.567 0 0 0-3.896 0l-5.077 1.578a2.65 2.65 0 0 1-3.438-2.532z" fill="#959595"/></svg>