<svg id="Cover" xmlns="http://www.w3.org/2000/svg" viewBox="0 0 135 124"><defs><style>.cls-1{fill:#ffd300}.cls-3{fill:#e27800}.cls-4{fill:#f89700}.cls-7{fill:#ffe75e}</style></defs><path class="cls-1" d="M124 28v79a17 17 0 0 1-17 17H28a17 17 0 0 1-17-17V28a17 17 0 0 1 17-17h79a17 17 0 0 1 15.74 10.59 15.64 15.64 0 0 1 1 3.6A16.23 16.23 0 0 1 124 28z"/><path d="M40.32 78.06l67.05-67H57.42L15.34 53.08A17.72 17.72 0 0 0 11 60.25v10.64a17.64 17.64 0 0 0 29.32 7.17zm83.44-52.87a15.64 15.64 0 0 0-1-3.6c-.19-.46-.4-.9-.62-1.34L20.25 122.12A16.93 16.93 0 0 0 28 124h40.32L124 68.32V28a16.23 16.23 0 0 0-.24-2.81z" fill="#ffda29"/><rect class="cls-3" x="37.86" y="70.71" width="4.72" height="8.42" rx="2.36" ry="2.36"/><rect class="cls-3" x="34.26" y="67.41" width="4.72" height="8.42" rx="2.36" ry="2.36"/><path class="cls-4" d="M110.67 77.43L96.19 96.55H11V46.69l19.88 19.88a37 37 0 0 0 26.21 10.86z"/><rect class="cls-4" x="96.19" y="47.8" width="6.17" height="11" rx="3.08" ry="3.08"/><path d="M124 45.2V107a17 17 0 0 1-17 17H28a17 17 0 0 1-17-17V89h40.09A35.2 35.2 0 0 0 76 78.64l23.11-23.13A35.2 35.2 0 0 1 124 45.2z" fill="#ffb100"/><path class="cls-4" d="M26.19 96.23h81.65a5.85 5.85 0 0 1 5.85 5.85v3a2.81 2.81 0 0 1-2.81 2.81H26.19V96.23z"/><path d="M113.69 105a5.88 5.88 0 0 1-1.67 4.1 5.89 5.89 0 0 1-3.42 1.66 5.81 5.81 0 0 1-.72 0H29.19V99.13h78.65a5.84 5.84 0 0 1 5.85 5.87z" fill="#ffd900"/><path class="cls-1" d="M101.36 107.33v4.89a6.85 6.85 0 0 1-6.81 6.78H16.86v-11.7z"/><circle class="cls-7" cx="41.76" cy="34.61" r="15.57"/><path class="cls-7" d="M57.33 99.85a15.56 15.56 0 0 1-26.62 11 15.19 15.19 0 0 1-1.52-1.85v-9.87h28.12c.01.24.02.48.02.72z"/><path d="M94.69 124H28a17 17 0 0 1-17-17V83.59l23.87 18.35a25.48 25.48 0 0 0 15.54 5.28h9.86A25.48 25.48 0 0 1 73.65 111z" fill="#ffc800"/><rect class="cls-4" x="103.11" y="43.3" width="6.17" height="11" rx="3.08" ry="3.08"/><rect class="cls-4" x="92.1" y="52.76" width="6.17" height="11" rx="3.08" ry="3.08"/><rect class="cls-4" x="101.19" y="62" width="6.17" height="11" rx="3.08" ry="3.08"/><rect class="cls-3" x="43.26" y="70.67" width="4.72" height="8.42" rx="2.36" ry="2.36"/><rect class="cls-3" x="21.47" y="71.62" width="4.72" height="8.42" rx="2.36" ry="2.36"/><rect class="cls-3" x="27.59" y="63.2" width="4.72" height="8.42" rx="2.36" ry="2.36"/><rect class="cls-4" x="67.51" y="81.3" width="6.17" height="11" rx="3.08" ry="3.08"/><rect class="cls-7" x="92.67" y="6.35" width="37" height="14.3" rx="7.15" ry="7.15" transform="rotate(180 111.17 13.5)"/><rect class="cls-7" x="77.98" y="16.29" width="34.7" height="10.88" rx="5.44" ry="5.44" transform="rotate(-180 95.325 21.73)"/><path class="cls-7" d="M112 109.07a5.89 5.89 0 0 1-3.42 1.66 5.81 5.81 0 0 1-.72 0h-6.48v1.4a6.85 6.85 0 0 1-6.83 6.87H92.3a6.41 6.41 0 0 1-1-3.49 6.52 6.52 0 0 1 1.86-4.51l.16-.15a6.45 6.45 0 0 1 4.42-1.75z"/><path class="cls-7" d="M109.36 108.09a4.46 4.46 0 0 1-.1 1 4.64 4.64 0 0 1-.7 1.7 5.81 5.81 0 0 1-.72 0h-6.48v1.4a6.84 6.84 0 0 1 0 .79H82.9a4.9 4.9 0 0 1-4.09-2.19 4.83 4.83 0 0 1-.83-2.73 3.84 3.84 0 0 1 .07-.76 4.83 4.83 0 0 1 1.37-2.72 4.9 4.9 0 0 1 3.48-1.44h21.54a4.92 4.92 0 0 1 4.92 4.95z"/></svg>