<svg id="Cover" xmlns="http://www.w3.org/2000/svg" viewBox="0 0 135 124"><defs><style>.cls-2{fill:#ff9c86}.cls-3{fill:#ffb49e}.cls-4{fill:#ffb000}</style></defs><path d="M124 28v79a17 17 0 0 1-17 17H28a17 17 0 0 1-17-17V28a17 17 0 0 1 17-17h79a17 17 0 0 1 17 17z" fill="#75eff2"/><path class="cls-2" d="M79.87 95a7.33 7.33 0 0 0-10.15-2.1L52.4 104.25c.23.06.46.1.69.18 2.81.93 5.55 2.12 8.26 3.31 2.31 1 4.94 2.05 7.51 3.24l8.91-5.85A7.33 7.33 0 0 0 79.87 95z"/><path class="cls-3" d="M89.52 97.18a7.37 7.37 0 0 0-10.17-2.11l-7.08 4.65H58.64a13.28 13.28 0 0 0-.56-1.86l3.63-2.38a7.33 7.33 0 1 0-8.05-12.26l-8.42 5.54H32.61a15.71 15.71 0 0 0-10.88 4.61L11 104.1v2.9a17 17 0 0 0 17 17h7.82l1.5-1.49 6.68-6.35a6.38 6.38 0 0 1 4.42-1.77h26.14a10.12 10.12 0 0 0 6-2l6.4-4.75.43-.31a7.33 7.33 0 0 0 2.13-10.15z"/><path class="cls-2" d="M54.63 35.41a7.34 7.34 0 0 0 10.15 2.1L82.1 26.13c-.23-.05-.45-.1-.68-.17-2.81-.94-5.55-2.13-8.27-3.31-2.31-1-4.93-2-7.51-3.25l-8.9 5.85a7.34 7.34 0 0 0-2.11 10.16z"/><path class="cls-3" d="M125.74 40.26l-19.47-19.63A15.81 15.81 0 0 0 95.09 16H59.57a10.12 10.12 0 0 0-6 2l-6.39 4.75-.43.32a7.34 7.34 0 0 0 8.06 12.26l7.07-4.66h13.61a12.89 12.89 0 0 0 .56 1.86l-3.64 2.39a7.33 7.33 0 0 0 8 12.25l4.59-3 39.12 39.29a4.9 4.9 0 0 0 8.43-3.46V56.8a23.49 23.49 0 0 0-6.81-16.54z"/><circle class="cls-4" cx="71.18" cy="71.48" r="11.92"/><path class="cls-4" d="M59.26 71.48h23.85v2.56H59.26z"/><path d="M83.1 74a11.94 11.94 0 0 1-17.72 10.46 12 12 0 0 1-4.84-5.06 11.91 11.91 0 0 1 10.63-17.28 11.6 11.6 0 0 1 5.37 1.29A11.89 11.89 0 0 1 83.1 74z" fill="#ffd300"/><path class="cls-4" d="M71.18 83.94a9.91 9.91 0 1 1 9.9-9.94 9.92 9.92 0 0 1-9.9 9.94zm0-18A8.09 8.09 0 1 0 79.26 74a8.09 8.09 0 0 0-8.08-8z"/><rect x="52.6" y="49.54" width="24.01" height="4.85" rx="1.24" ry="1.24" transform="rotate(11.65 64.577 51.946)" fill="#ffc700"/><path class="cls-4" transform="rotate(-78.37 73.981 53.904)" d="M71.56 52.92h4.85v1.96h-4.85z"/><path class="cls-4" transform="rotate(-78.37 69.448 52.965)" d="M67.02 51.99h4.85v1.96h-4.85z"/><path class="cls-4" transform="rotate(-78.37 64.72 51.99)" d="M62.3 51.01h4.85v1.96H62.3z"/><path class="cls-4" transform="rotate(-78.37 59.997 51.02)" d="M57.57 50.04h4.85V52h-4.85z"/><path class="cls-4" transform="rotate(-78.37 55.464 50.08)" d="M53.04 49.1h4.85v1.96h-4.85z"/><path d="M81.59 68.24L65.38 84.46a12 12 0 0 1-4.84-5.06l16-16a11.77 11.77 0 0 1 5.05 4.84z" fill="#fff" opacity=".4"/></svg>