<svg viewBox="0 0 135 124" version="1.1" xmlns="http://www.w3.org/2000/svg"><g stroke="none" stroke-width="1" fill="none" fill-rule="evenodd"><path d="M28 11h79c9.389 0 17 7.611 17 17v79c0 9.389-7.611 17-17 17H28c-9.389 0-17-7.611-17-17V28c0-9.389 7.611-17 17-17z" fill="#1CB0F6"/><path d="M103.755 86.067l20.228 21.692C123.586 116.796 116.135 124 107 124H72.13l-4.211-4.515a4 4 0 0 1 .197-5.654L98.102 85.87a4 4 0 0 1 5.653.197z" fill="#E0D5D5"/><path d="M124 75.874V107c0 9.389-7.611 17-17 17H87.06l-6.42-36.419a4 4 0 0 1 3.244-4.634L124 75.874z" fill="#EBE3E3"/><path d="M123.006 112.742l-27.914 5.094a1.5 1.5 0 0 1-.68-2.919l.142-.032 29.257-5.34a16.885 16.885 0 0 1-.805 3.197zM124 101.24v3.049l-24.908 4.546a1.5 1.5 0 0 1-.68-2.919l.142-.032L124 101.24z" fill="#E0D5D5"/><rect fill="#4B4B4B" transform="rotate(-24 65.5 52)" x="6" y="25" width="119" height="54" rx="4"/><rect fill="#4B4B4B" transform="rotate(-24 51 25.5)" x="46" y="23" width="10" height="5" rx="2.5"/><rect fill="#5F5E5E" transform="rotate(-24 54.997 61.602)" x="13.997" y="45.102" width="82" height="33" rx="4"/><rect fill="#5F5E5E" transform="rotate(-24 106.156 38.825)" x="94.156" y="22.325" width="24" height="33" rx="4"/><rect fill="#5F5E5E" transform="rotate(-24 57.569 34.186)" x="3.069" y="30.686" width="109" height="7" rx="3.5"/><rect fill="#FFC6B7" transform="rotate(-4 50 120)" x="40" y="85" width="20" height="70" rx="10"/><path d="M60.254 76.332l.034-.418a5.5 5.5 0 0 1 10.97.811c-.768 10.387-5.87 18.449-14.953 23.648a5.5 5.5 0 0 1-5.464-9.547c5.794-3.316 8.822-7.98 9.413-14.494z" fill="#FFC6B7" fill-rule="nonzero"/><path d="M56.547 58.877l.13-.32A5.5 5.5 0 1 0 46.535 54.3c-4.452 10.6-2.095 23.285 6.453 37.866a5.5 5.5 0 1 0 9.49-5.563c-6.856-11.696-8.636-20.88-5.931-27.726z" fill="#FFC6B7" fill-rule="nonzero"/><path d="M51.638 93.2c-8.593-8.193-12.456-16.196-11.588-24.007m5.086 29.318c-10.49-8.987-16.334-18.752-17.535-29.296" stroke="#FFC6B7" stroke-width="11" stroke-linecap="round"/><path d="M19.238 6.827a2 2 0 0 1 2.133 1.69l.017.148.527 6.732a5.91 5.91 0 0 0 9.829 3.946l.187-.175.62-.603a11.694 11.694 0 0 1 4.813-2.83c6.188-1.849 12.703 1.669 14.552 7.857a2 2 0 0 1-3.832 1.145A7.694 7.694 0 0 0 35.59 21.2l-.248.23-.62.604c-3.92 3.82-10.193 3.739-14.013-.181a9.91 9.91 0 0 1-2.749-5.797l-.033-.346-.527-6.732a2 2 0 0 1 1.838-2.15z" fill="#4B4B4B" fill-rule="nonzero"/><path d="M112.236 88.023a1.5 1.5 0 0 1 .669 2.921l-.141.033-20.709 3.7a1.5 1.5 0 0 1-.668-2.922l.14-.032 20.71-3.7z" fill="#E0D5D5" fill-rule="nonzero"/></g></svg>