<svg viewBox="0 0 136 125" fill="none" xmlns="http://www.w3.org/2000/svg"><rect x="125.199" y="124.014" width="113" height="113" rx="17" transform="rotate(-180 125.199 124.014)" fill="#FEC701"/><path fill-rule="evenodd" clip-rule="evenodd" d="M65.955 27.166c8.2 8.2 8.2 21.497 0 29.698l-53.406 53.407a17.078 17.078 0 0 1-.349-3.442V51.222l24.056-24.056c8.201-8.201 21.498-8.201 29.699 0zm59.245 1.056v35.354l-8.996 8.997c-4.881 4.882-12.796 4.882-17.677 0-4.882-4.881-4.882-12.796 0-17.677L125.2 28.222z" fill="#FFD900"/><path d="M36.793 26.34c-.226.033-.454.06-.684.08-5.965.524-11.217-3.809-11.732-9.677-.515-5.868 3.9-11.05 9.865-11.574 5.962-.524 11.214 3.81 11.73 9.678.02.23.032.46.038.687l.023-.002c5.585-.49 10.509 3.651 11 9.246l.134 1.52-20.224 1.776-.133-1.52a10.426 10.426 0 0 1-.017-.215z" fill="#E47900"/><path d="M66.6 23.57l-38.391 3.372c-7.194.632-12.513 6.976-11.882 14.17l2.244 25.546c.631 7.194 6.975 12.513 14.169 11.882l38.39-3.372c7.194-.631 12.514-6.975 11.882-14.169l-2.243-25.547c-.632-7.193-6.976-12.513-14.17-11.881z" fill="#FFAB19"/><path fill-rule="evenodd" clip-rule="evenodd" d="M49.87 56.3a3.186 3.186 0 0 0 2.892-3.457c-.154-1.755-3.689-5.627-3.689-5.627s-2.806 4.429-2.652 6.184a3.187 3.187 0 0 0 3.45 2.9zM57.657 58.887a.86.86 0 0 0-.5-1.109c-1.678-.635-3.277-.775-4.754-.325-1.477.45-2.725 1.457-3.762 2.92a.86.86 0 0 0 1.404.994c.875-1.234 1.833-1.956 2.86-2.268 1.025-.313 2.225-.248 3.643.288a.86.86 0 0 0 1.109-.5z" fill="#F08E00"/><path d="M78.094 44.935a5.775 5.775 0 0 1 3.251-2.925l-.576-6.557c-.507-5.78-4.7-10.349-10.06-11.595l1.245 14.172a7.745 7.745 0 0 0 6.14 6.905zM16.924 47.892l-.596-6.78c-.505-5.757 2.8-10.969 7.826-13.145l1.266 14.418a7.745 7.745 0 0 1-5.127 7.977 5.783 5.783 0 0 0-3.37-2.47z" fill="#F5970F"/><path d="M83.79 53.18a5.763 5.763 0 1 0-1.007-11.483A5.763 5.763 0 0 0 83.79 53.18zM15.935 59.202a5.764 5.764 0 1 0-1.008-11.483 5.764 5.764 0 0 0 1.008 11.483z" fill="#FFAB19"/><path d="M66.061 40.208a67.33 67.33 0 0 1-1.17.484c-3.307 1.333-8.153 2.998-14.657 4.53a8.11 8.11 0 0 0 4.501 6.053c3.311-1.709 6.912-2.951 10.794-3.734a8.074 8.074 0 0 0 .8-4.288l-.267-3.045zM44.278 52.194c-3.559-1.106-7.321-1.702-11.28-1.796a8.075 8.075 0 0 1-1.535-4.084l-.268-3.045c.388.09.8.18 1.237.273 3.489.736 8.55 1.531 15.222 1.906a8.11 8.11 0 0 1-3.376 6.746z" fill="#FFF1A2"/><path d="M45.415 45.303a110.992 110.992 0 0 1-7.374-.784l.105 1.195a3.642 3.642 0 0 0 7.269-.411zM52.415 44.688c2.689-.683 5.06-1.382 7.125-2.056l.105 1.195a3.642 3.642 0 0 1-7.23.86z" fill="#E47900"/><path fill-rule="evenodd" clip-rule="evenodd" d="M112.693 89.77a9.13 9.13 0 1 1 8.65 9.586 9.13 9.13 0 0 1-8.65-9.586zM55.433 86.834a9.13 9.13 0 1 1 18.237.935 9.13 9.13 0 0 1-18.237-.935z" fill="#FFB100"/><path fill-rule="evenodd" clip-rule="evenodd" d="M66.759 84.556c.752-14.674 13.257-25.96 27.932-25.207 14.674.752 25.959 13.258 25.207 27.932-.753 14.674-13.258 25.96-27.932 25.207-14.674-.752-25.96-13.258-25.207-27.932z" fill="#FF9600"/><path d="M86.971 72.485l-.012.013c-6.958-.042-12.783 5.401-13.143 12.42-.37 7.22 5.183 13.375 12.404 13.745 2.34.12 4.569-.382 6.524-1.362a13.03 13.03 0 0 0 6.35 2.022c7.221.37 13.376-5.183 13.746-12.404.362-7.056-4.934-13.093-11.914-13.71l-.005-.009-13.95-.715z" fill="#FFB100"/><path fill-rule="evenodd" clip-rule="evenodd" d="M91.632 119.004c-6.76-.346-11.959-6.107-11.612-12.867l.77-15.006 24.479 1.255-.77 15.006c-.346 6.76-6.107 11.959-12.867 11.612z" fill="#FFB100"/><path fill-rule="evenodd" clip-rule="evenodd" d="M98.754 103.596l-6.019 1.172a4.94 4.94 0 0 1-5.793-3.905l-.05-.26a1.946 1.946 0 0 1 1.538-2.282l11.897-2.316a1.945 1.945 0 0 1 2.281 1.538l.051.26a4.94 4.94 0 0 1-3.905 5.793zM86.437 92.442a6.691 6.691 0 0 1-6.34-7.026l.168-3.283c.19-3.69 3.128-2.5 6.82-2.31 3.69.189 6.735-.695 6.546 2.995l-.169 3.284a6.69 6.69 0 0 1-7.025 6.34z" fill="#FFF1A2"/><path fill-rule="evenodd" clip-rule="evenodd" d="M88.15 79.54a3.72 3.72 0 0 1 3.525 3.905l-.147 2.854a3.72 3.72 0 0 1-7.43-.381l.147-2.854a3.72 3.72 0 0 1 3.906-3.524z" fill="#E47900"/><path fill-rule="evenodd" clip-rule="evenodd" d="M99.516 93.112a6.69 6.69 0 0 0 7.025-6.34l.168-3.284c.189-3.69-2.965-.67-6.655-.86-3.692-.19-6.52-3.515-6.71.175l-.168 3.284a6.691 6.691 0 0 0 6.34 7.025z" fill="#FFF1A2"/><path fill-rule="evenodd" clip-rule="evenodd" d="M99.133 80.103a3.72 3.72 0 0 0-3.905 3.524l-.147 2.854a3.72 3.72 0 0 0 7.43.381l.146-2.854a3.72 3.72 0 0 0-3.524-3.905z" fill="#E47900"/><path d="M77.703 77.993l31.556 1.618-.375 7.309-31.556-1.618.375-7.309z" fill="#FFB100"/><path d="M91.563 79.76c.85.638.267 1.796-.795 1.742l-8.228-.422c-1.062-.054-1.524-1.266-.612-1.814a8.618 8.618 0 0 1 4.892-1.218 8.618 8.618 0 0 1 4.743 1.712zM104.824 83.79c.851.637.268 1.796-.794 1.741l-8.228-.422c-1.062-.054-1.524-1.266-.612-1.813a8.618 8.618 0 0 1 4.892-1.218 8.619 8.619 0 0 1 4.742 1.712z" fill="#FF9600"/><path d="M92.736 104.768l6.019-1.172a4.94 4.94 0 0 0 3.99-4.6l-15.434 3.006a4.942 4.942 0 0 0 5.425 2.766z" fill="#E47900"/></svg>