<svg viewBox="0 0 135 124" fill="none" xmlns="http://www.w3.org/2000/svg"><g clip-path="url(#clip0)"><path d="M124 28v79a16.995 16.995 0 0 1-2.85 9.43A17.092 17.092 0 0 1 107 124H28a17 17 0 0 1-17-17V28a17 17 0 0 1 9.58-15.29 16.487 16.487 0 0 1 5.32-1.58A16.201 16.201 0 0 1 28 11h79.85c1.82.088 3.614.473 5.31 1.14.632.245 1.247.532 1.84.86a16.995 16.995 0 0 1 9 15z" fill="#BDF2FE"/><path d="M41.45 102.21H30.18v21.53h11.27v-21.53z" fill="#6A3A21"/><path d="M108.49 102.21v21.47l-1.05.06H97.22v-21.53h11.27z" fill="#7B482D"/><path d="M124 102.21v4.54a16.995 16.995 0 0 1-2.85 9.43 16.11 16.11 0 0 1-2.91 3.3 4.185 4.185 0 0 1-.32.29l-.08.06c-.539.45-1.107.864-1.7 1.24v-18.86H124z" fill="#6A3A21"/><path d="M22.4 102.21v20.42l-1.27-.33a16.991 16.991 0 0 1-6.68-5.3 16.737 16.737 0 0 1-3.32-8.2v-6.6l11.27.01z" fill="#7B482D"/><path d="M22.4 102.07v8H11.33c-.08-.41-.15-.83-.2-1.26 0-.14 0-.29-.05-.43v-6.31H22.4zM108.49 102.07H97.22v8h11.27v-8z" fill="#6A3A21"/><path d="M129.6 91.51H5.6a5.44 5.44 0 1 0 0 10.88h124a5.44 5.44 0 0 0 0-10.88z" fill="#7B482D"/><path d="M94.65 54.12H25.31a3.12 3.12 0 0 0-3.12 3.12v11.49a3.12 3.12 0 0 0 3.12 3.12h69.34a3.12 3.12 0 0 0 3.12-3.12V57.24a3.12 3.12 0 0 0-3.12-3.12z" fill="#00A0F5"/><path d="M33.51 54.12h-3.15v17.73h3.15V54.12zM43.14 54.12h-3.15v17.73h3.15V54.12z" fill="#7CCEFA"/><path d="M36.11 37.73h37V54h-37a2.91 2.91 0 0 1-2.91-2.91V40.64a2.91 2.91 0 0 1 2.91-2.91z" fill="#FAA519"/><path d="M62.71 51.13V40.64a2.92 2.92 0 0 1 2.91-2.91H59.5a2.91 2.91 0 0 0-2.91 2.91v10.49A2.91 2.91 0 0 0 59.5 54h6.12a2.92 2.92 0 0 1-2.91-2.87z" fill="#FBC01A"/><path d="M105.46 39.98H72.82v12.06h32.64V39.98z" fill="#fff"/><path d="M105.46 44.25H72.82v3.51h32.64v-3.51z" fill="#DEDEDE"/><path d="M106.38 54H73.1a2.6 2.6 0 0 1-2.59-2.6V40.33a2.59 2.59 0 0 1 2.59-2.6h33.28a.999.999 0 0 1 1 1v1.08a.998.998 0 0 1-1 1H73.53V51h32.85a.999.999 0 0 1 1 1v1.08a.997.997 0 0 1-1 .92z" fill="#FBC01A"/><path d="M66.07 71.84h37.64a9.81 9.81 0 0 1 0 19.62H66.07V71.84z" fill="#FF6464"/><path d="M98.14 71.84h-3.21a9.811 9.811 0 0 1 0 19.62h3.21a9.81 9.81 0 0 0 0-19.62z" fill="#FF9494"/><path d="M90.82 71.84h-3.21a9.81 9.81 0 0 1 0 19.62h3.21a9.81 9.81 0 1 0 0-19.62z" fill="#FF9494"/><path d="M67.65 88.13a6.43 6.43 0 1 0 0-12.86H33.5v12.86h34.15z" fill="#fff"/><path d="M67.65 88.13a6.43 6.43 0 0 0 6.4-7.07 6.62 6.62 0 0 0-6.68-5.79H31.72a1.14 1.14 0 0 1-1.14-1.14V73a1.14 1.14 0 0 1 1.14-1.14h35.57A10.1 10.1 0 0 1 77.48 81a9.88 9.88 0 0 1-9.83 10.56H31.72a1.14 1.14 0 0 1-1.14-1.14v-1.15a1.14 1.14 0 0 1 1.14-1.14h35.93z" fill="#EF4849"/><path d="M74.09 81.7a6.47 6.47 0 0 1-.35 2.07H33.5v-4.14h40.24a6.47 6.47 0 0 1 .35 2.07z" fill="#DEDEDE"/><path d="M52.36 19.65h34.53a9 9 0 0 1 0 18H52.36v-18z" fill="#51AF13"/><path d="M81.78 19.65h-3a9 9 0 1 1 0 18h3a9 9 0 1 0 0-18z" fill="#78C802"/><path d="M75.06 19.65h-3a9 9 0 0 1 0 18h3a9 9 0 0 0 0-18z" fill="#78C802"/><path d="M53.81 34.6a5.91 5.91 0 0 0 0-11.81H25.49V34.6h28.32z" fill="#fff"/><path d="M53.81 34.6a5.909 5.909 0 0 0 5.87-6.49 6.08 6.08 0 0 0-6.13-5.32H23.86a1 1 0 0 1-1-1V20.7a1 1 0 0 1 1-1.05h29.61a9.28 9.28 0 0 1 9.36 8.4 9.07 9.07 0 0 1-9 9.69H23.86a.999.999 0 0 1-1-1.05v-1a1 1 0 0 1 1-1l29.95-.09z" fill="#78C802"/><path d="M59.71 28.7a5.899 5.899 0 0 1-.32 1.89h-33.9V26.8h33.9a5.92 5.92 0 0 1 .32 1.9z" fill="#DEDEDE"/></g><defs><clipPath id="clip0"><path fill="#fff" d="M0 0h135v124H0z"/></clipPath></defs></svg>