<svg id="Layer_3" data-name="Layer 3" xmlns="http://www.w3.org/2000/svg" viewBox="0 0 135 124"><defs><style>.cls-1{fill:#ffc800}.cls-2{fill:#ffd900}.cls-3{fill:#ffb100}.cls-5{fill:#f89700}</style></defs><path class="cls-1" d="M124 28v79a17 17 0 0 1-9.6 15.3 15.59 15.59 0 0 1-2.83 1.08 17.56 17.56 0 0 1-3 .55c-.52 0-1 .07-1.56.07H28c-.45 0-.89 0-1.33-.06a16.6 16.6 0 0 1-4.9-1.12c-.4-.16-.8-.33-1.18-.52a16.63 16.63 0 0 1-2.26-1.3 17.14 17.14 0 0 1-3.11-2.78c-.07-.07-.13-.15-.2-.23a17.29 17.29 0 0 1-2.02-3.11 16.35 16.35 0 0 1-1.16-2.8A16.71 16.71 0 0 1 11 107V28a16.85 16.85 0 0 1 3.48-10.3 17.07 17.07 0 0 1 6.11-5A16.84 16.84 0 0 1 28 11h79a16.69 16.69 0 0 1 7.4 1.7 16.94 16.94 0 0 1 6.11 5 16.68 16.68 0 0 1 3.42 8.74c.07.56.07 1.03.07 1.56z"/><path class="cls-2" d="M91.56 11h-39L11 52.59v35.5a19.38 19.38 0 0 0 22.7-3.46l53.35-53.35A19.35 19.35 0 0 0 91.56 11zm32.38 15.43a17.15 17.15 0 0 0-1.1-4.66L21.78 122.82a16.6 16.6 0 0 0 4.9 1.12c.44 0 .88.06 1.33.06h47.32L124 75.32V28c0-.53 0-1-.06-1.57z"/><path class="cls-3" d="M33.23 17.93a6.37 6.37 0 0 0-.42-4.45 1.31 1.31 0 0 0-1.81-.65A6.42 6.42 0 0 0 27.86 16a6.36 6.36 0 0 0 .42 4.45 1.31 1.31 0 0 0 1.82.65 6.34 6.34 0 0 0 3.13-3.17zM34.58 25.46a6.42 6.42 0 0 0-2-4 1.31 1.31 0 0 0-1.93.06 6.4 6.4 0 0 0-1.77 4.11 6.37 6.37 0 0 0 2 4 1.3 1.3 0 0 0 1.93-.06 6.32 6.32 0 0 0 1.77-4.11zM33.19 9.82a6.37 6.37 0 0 0 1.58-4.18 1.29 1.29 0 0 0-1.34-1.38 6.35 6.35 0 0 0-4.23 1.48 6.39 6.39 0 0 0-1.59 4.18A1.32 1.32 0 0 0 29 11.31a6.41 6.41 0 0 0 4.19-1.49z"/><path class="cls-3" d="M29.6 17.08a6.39 6.39 0 0 0 1.59-4.18 1.31 1.31 0 0 0-1.35-1.39A6.41 6.41 0 0 0 25.62 13 6.37 6.37 0 0 0 24 17.18a1.3 1.3 0 0 0 1.35 1.38 6.39 6.39 0 0 0 4.25-1.48zM43.58 11.92a8.18 8.18 0 0 0 5.07-2.71 1.68 1.68 0 0 0-.13-2.47 8.2 8.2 0 0 0-5.34-2.14 8.25 8.25 0 0 0-5.08 2.7 1.68 1.68 0 0 0 .14 2.48 8.17 8.17 0 0 0 5.34 2.14z"/><path class="cls-3" d="M38.29 9.34a8.22 8.22 0 0 0 5.07-2.7 1.69 1.69 0 0 0-.13-2.48A8.2 8.2 0 0 0 37.89 2a8.21 8.21 0 0 0-5.08 2.71 1.68 1.68 0 0 0 .19 2.5 8.22 8.22 0 0 0 5.29 2.13z"/><path d="M102.42 18.56v89a12 12 0 0 1-1.34.06H33.17a10.94 10.94 0 0 1-1.15 0v-89z" fill="#ffe75e"/><path class="cls-3" d="M31.83 17H65v4.13H31.83a2.07 2.07 0 0 1-2.07-2.07A2.07 2.07 0 0 1 31.83 17z"/><path class="cls-3" d="M45.06 17h59.51v4.13H45.06A2.07 2.07 0 0 1 43 19.05 2.07 2.07 0 0 1 45.06 17z" transform="rotate(-180 73.785 19.05)"/><path class="cls-3" d="M31.83 106.62H65v4.13H31.83a2.07 2.07 0 0 1-2.07-2.07 2.07 2.07 0 0 1 2.07-2.07z"/><path class="cls-3" d="M45.06 106.62h59.51v4.13H45.06a2.07 2.07 0 0 1-2.06-2.06 2.07 2.07 0 0 1 2.06-2.07z" transform="rotate(180 73.785 108.685)"/><rect class="cls-1" x="38.52" y="23.63" width="20.26" height="35.26" rx="3.81" ry="3.81"/><path class="cls-3" d="M66.3 20.62h1.72v86.95H66.3z"/><rect class="cls-3" x="59.31" y="57.95" width="4.32" height="11.53" rx="2.16" ry="2.16"/><path class="cls-3" d="M33.87 20.62h1.72v86.95h-1.72zM98.72 20.62h1.72v86.95h-1.72z"/><rect class="cls-1" x="75.29" y="23.63" width="20.26" height="35.26" rx="3.81" ry="3.81"/><rect class="cls-1" x="38.52" y="69.99" width="20.26" height="34.15" rx="3.81" ry="3.81"/><rect class="cls-1" x="75.29" y="69.99" width="20.26" height="34.15" rx="3.81" ry="3.81"/><rect class="cls-3" x="70.45" y="57.95" width="4.32" height="11.53" rx="2.16" ry="2.16"/><path class="cls-3" d="M98.25 116.2h-5.49a1.34 1.34 0 0 1-1.29-1l-1.65-6.5h9.76v6.17a1.33 1.33 0 0 1-1.33 1.33zM35.21 116.2h5.48a1.34 1.34 0 0 0 1.3-1l1.65-6.5h-9.77v6.17a1.34 1.34 0 0 0 1.34 1.33zM49.16 7.79a6.38 6.38 0 0 1-3.68 2.55 1.31 1.31 0 0 1-1.67-1 6.42 6.42 0 0 1 .42-4.46 6.42 6.42 0 0 1 3.68-2.55 1.3 1.3 0 0 1 1.67 1 6.4 6.4 0 0 1-.42 4.46zM52.36 11.1a4.52 4.52 0 0 1-.49 3.14.93.93 0 0 1-1.32.38 4.52 4.52 0 0 1-2.09-2.4A4.52 4.52 0 0 1 49 9.08a.93.93 0 0 1 1.32-.38 4.52 4.52 0 0 1 2.04 2.4z"/><path class="cls-5" d="M33.28 7.78H49a1.5 1.5 0 0 1 1.5 1.5v3.48a4.74 4.74 0 0 1-4.74 4.74h-9.25a4.74 4.74 0 0 1-4.74-4.74V9.29a1.5 1.5 0 0 1 1.51-1.51z"/><path class="cls-2" d="M44.69 10.36A5 5 0 0 1 42.3 13a1 1 0 0 1-1.44-.47A5 5 0 0 1 40.42 9a5 5 0 0 1 2.39-2.58 1 1 0 0 1 1.45.46 5 5 0 0 1 .43 3.48zM32.69 22.32a6.36 6.36 0 0 1-1.89 4.06 1.3 1.3 0 0 1-1.93 0A6.36 6.36 0 0 1 27 22.32a6.39 6.39 0 0 1 1.89-4.06 1.3 1.3 0 0 1 1.93 0 6.39 6.39 0 0 1 1.87 4.06z"/><path class="cls-3" d="M30.31 37.9a3.16 3.16 0 0 1-.95 2 .65.65 0 0 1-1 0 3.2 3.2 0 0 1-.94-2 3.2 3.2 0 0 1 .94-2 .65.65 0 0 1 1 0 3.16 3.16 0 0 1 .95 2z"/><path class="cls-2" d="M32.28 13.67A5.22 5.22 0 0 1 29.47 16a1.07 1.07 0 0 1-1.47-.64 5.2 5.2 0 0 1 0-3.67 5.19 5.19 0 0 1 2.81-2.36 1.06 1.06 0 0 1 1.43.67 5.19 5.19 0 0 1 .04 3.67zM32.62 5.7a6.36 6.36 0 0 0 4.38 1 1.31 1.31 0 0 0 1.18-1.53 6.31 6.31 0 0 0-2-4 6.36 6.36 0 0 0-4.36-1 1.31 1.31 0 0 0-1.18 1.53 6.31 6.31 0 0 0 1.98 4zM38.28 18.46a6.39 6.39 0 0 0-.42-4.46 1.31 1.31 0 0 0-1.86-.64 6.37 6.37 0 0 0-3.14 3.19 6.45 6.45 0 0 0 .46 4.45 1.31 1.31 0 0 0 1.83.64 6.35 6.35 0 0 0 3.13-3.18z"/><path class="cls-5" d="M23.67 88.62l-5.6 9.53a5.27 5.27 0 0 1-7 2l-.86-.46a5.26 5.26 0 0 1 .11-9.33l10.16-5.14a2.45 2.45 0 0 1 3.19 3.4zM20.42 45.44l-9.78-5.16a5.25 5.25 0 0 1-2.3-6.91l.42-.88a5.26 5.26 0 0 1 9.32-.33l5.61 9.9a2.45 2.45 0 0 1-3.27 3.38zM20.22 69.41L7.71 71.72a6 6 0 0 1-7-4.61L.46 66a6 6 0 0 1 8.19-6.93l12.12 5a2.82 2.82 0 0 1-.55 5.34zM113.41 88.74l5.64 9.58a5.27 5.27 0 0 0 7 2l.86-.46a5.29 5.29 0 0 0-.1-9.38l-10.22-5.17a2.46 2.46 0 0 0-3.18 3.43zM116.08 45.44l9.78-5.16a5.25 5.25 0 0 0 2.3-6.91l-.42-.88a5.26 5.26 0 0 0-9.32-.33l-5.61 9.9a2.45 2.45 0 0 0 3.27 3.38zM114.89 69.44l12.58 2.32a6.08 6.08 0 0 0 7-4.64l.25-1.1a6.08 6.08 0 0 0-8.23-7l-12.18 5a2.83 2.83 0 0 0 .58 5.42z"/></svg>