<svg viewBox="0 0 135 124" version="1.1" xmlns="http://www.w3.org/2000/svg" xmlns:xlink="http://www.w3.org/1999/xlink"><defs><path d="M2.68.625L87.198.532a2.29 2.29 0 0 1 2.294 2.288v.005l-.01 9.394a2.29 2.29 0 0 1-2.289 2.288L2.675 14.6a2.29 2.29 0 0 1-2.293-2.289v-.005l.01-9.393A2.29 2.29 0 0 1 2.68.625z" id="a"/><path d="M2.68.625L87.198.532a2.29 2.29 0 0 1 2.294 2.288l.028 7.196a2.29 2.29 0 0 1-2.288 2.288l-84.518.094c-1.266.002-2.33 1.18-2.332-.086l.038-2.207-.028-7.191A2.29 2.29 0 0 1 2.68.625z" id="c"/></defs><g stroke="none" stroke-width="1" fill="none" fill-rule="evenodd"><path d="M28 11h79c9.389 0 17 7.611 17 17v79c0 9.389-7.611 17-17 17H28c-9.389 0-17-7.611-17-17V28c0-9.389 7.611-17 17-17z" fill="#FFAADE"/><path d="M36.18 68.448l.207.05 71.95 19.28a5.154 5.154 0 0 1 3.695 6.105l-.05.207-7.987 29.807-.209.103H35.035l-12.614-3.38a5.154 5.154 0 0 1-3.695-6.105l.05-.206 11.3-42.166a5.154 5.154 0 0 1 6.105-3.695z" fill="#4B4B4B"/><g><g transform="scale(-1 1) rotate(-15 131.34 523.472)"><g><g transform="rotate(-15 91.81 3.969)"><mask id="b" fill="#fff"><use xlink:href="#a"/></mask><use fill="#4B4B4B" fill-rule="nonzero" xlink:href="#a"/><path d="M10.352.617l9.974 13.964-17.65.02a2.29 2.29 0 0 1-2.294-2.289v-.005l.01-9.393A2.29 2.29 0 0 1 2.68.625l7.672-.008z" fill="#FFF" fill-rule="nonzero" mask="url(#b)"/></g></g><path d="M83.978 58.33a1.03 1.03 0 0 1 .113 2.055l-.113.006h-67.68a1.03 1.03 0 0 1-.112-2.055l.112-.007h67.68zM83.978 68.63a1.03 1.03 0 0 1 .113 2.055l-.113.006h-67.68a1.03 1.03 0 0 1-.112-2.056l.112-.006h67.68z" fill="#FFF" fill-rule="nonzero"/><g><g><g transform="rotate(-1 1994.262 -212.681)"><mask id="d" fill="#fff"><use xlink:href="#c"/></mask><use fill="#4B4B4B" fill-rule="nonzero" xlink:href="#c"/><path d="M10.352.617l9.974 13.964-17.65.02a2.29 2.29 0 0 1-2.294-2.289v-.005l.01-9.393A2.29 2.29 0 0 1 2.68.625l7.672-.008z" fill="silver" fill-rule="nonzero" mask="url(#d)"/></g></g><path fill="#FFF" fill-rule="nonzero" d="M32.858 34.757l19.803-.367 10.217 13.787-19.803.368zM73.986 34.04l17.424-.323a2.29 2.29 0 0 1 2.332 2.248v.005l.154 9.393a2.29 2.29 0 0 1-2.248 2.327l-7.446.138-10.216-13.787z"/></g><path d="M84.139 78.972l.112.006a1.03 1.03 0 0 1 .117 2.03l-.117.02-.112.006H65.794v7.795a1.03 1.03 0 0 1-2.055.113l-.006-.113v-7.796H40.144v4.439l-2.06-.552-.002-3.886H23.58l-7.469-2.002.115-.033.12-.02.113-.007h67.68z" fill="#FFF" fill-rule="nonzero"/><path d="M6.714 35.041h13.433a3.608 3.608 0 0 1 3.607 3.608v5.945a3.608 3.608 0 0 1-3.607 3.608H6.714a3.608 3.608 0 0 1-3.608-3.608V38.65a3.608 3.608 0 0 1 3.608-3.608z" fill="#777" fill-rule="nonzero"/><ellipse fill="#FFF" fill-rule="nonzero" cx="13.43" cy="41.336" rx="2.294" ry="2.289"/><path fill="#FFF" fill-rule="nonzero" d="M30.083 16.905l19.126-5.147 13.249 10.906-19.126 5.148zM69.816 6.26l16.828-4.529a2.29 2.29 0 0 1 2.807 1.617l.002.005 2.42 9.076a2.29 2.29 0 0 1-1.617 2.802l-7.191 1.936L69.816 6.26z"/></g></g><g fill="#FF4B4B" fill-rule="nonzero"><path d="M8.71 67.793c-2.368-.238-4.502-1.492-5.602-3.548-1.8-3.363-.151-7.6 3.682-9.462 1.958-.952 4.108-1.1 5.982-.568.65-1.758 2.038-3.33 3.996-4.281 3.833-1.863 8.399-.647 10.198 2.717 1.022 1.909.932 4.1-.038 5.977l-4.207 9.588c-.581 1.324-2.092 2.072-3.563 1.764L8.71 67.793z"/></g><g fill="#FF4B4B" fill-rule="nonzero"><path d="M101.584 29.03c3.802-1.47 6.761-4.567 7.652-8.566 1.457-6.542-3.17-13.023-10.335-14.477-3.66-.742-7.276-.028-10.13 1.72-1.863-2.705-4.861-4.76-8.522-5.503-7.165-1.453-14.154 2.672-15.61 9.214-.828 3.714.306 7.408 2.751 10.174l11.258 14.453c1.555 1.997 4.385 2.594 6.675 1.407l16.261-8.422z"/></g><path d="M16.659 5.94l-7.971 8.014c-.697.7-.572 1.893.251 2.413L27.553 28.13c1.294.817 2.796-.693 2.056-2.068L18.967 6.287a1.44 1.44 0 0 0-2.308-.347zM42.086 1.743l-11.77 1.299c-1.028.113-1.651 1.133-1.261 2.064l8.823 21.027c.613 1.461 2.832 1.217 3.036-.335l2.947-22.326c.13-.988-.747-1.843-1.775-1.73zM5.516 28.206L3.152 38.763c-.206.922.585 1.785 1.6 1.746l22.96-.884c1.597-.062 2.042-2.051.61-2.724L7.726 27.23c-.911-.428-2.004.055-2.21.977z" fill="#FF59BF" fill-rule="nonzero"/><path d="M104.802 48.502c-1.508-1.97-2.074-4.529-1.289-6.91 1.285-3.896 5.697-5.843 9.856-4.349 2.125.763 3.773 2.277 4.705 4.095 1.807-.834 3.998-.97 6.123-.206 4.16 1.494 6.49 5.863 5.205 9.758-.73 2.211-2.467 3.795-4.593 4.477l-10.327 4.046c-1.427.559-3.076-.02-3.892-1.364l-5.788-9.547z" fill="#FF4B4B" fill-rule="nonzero"/></g></svg>