<svg width="135" height="124" viewBox="0 0 135 124" version="1.1" xmlns="http://www.w3.org/2000/svg"><g stroke="none" stroke-width="1" fill="none" fill-rule="evenodd"><g fill-rule="nonzero"><g><rect fill="#FFE865" x="11" y="11" width="113" height="113" rx="17"/><path d="M124 89.72V107c0 9.389-7.611 17-17 17H28c-9.389 0-17-7.611-17-17V89.72h113z" fill="#FFC800"/><path d="M44.23 67.5h46.54c8.61 0 15.59 6.98 15.59 15.59V124H28.65V83.09c0-8.606 6.974-15.584 15.58-15.59zM93 10.5A35.54 35.54 0 0 0 79.35 2l-.83-.25a1.94 1.94 0 0 1-1.07 1.17c-1.47.66-3.92-.26-5.38-.56a22.07 22.07 0 0 0-9.66.47A2 2 0 0 1 60 .87l-.55.13C43.354 4.838 31.998 19.223 32 35.77v16.4a10.33 10.33 0 0 0 10.32 10.34h50.83a10.34 10.34 0 0 0 10.34-10.34v-16.4A35.54 35.54 0 0 0 93 10.5z" fill="#FFC800"/><path d="M101.61 44.53v7.64a10.33 10.33 0 0 1-10.33 10.34h-49c-5.71 0-8.46-4.62-8.46-10.34v-7.55A4.14 4.14 0 0 1 38 40.47l59.47-.08a4.15 4.15 0 0 1 4.14 4.14z" fill="#F89700"/><rect fill="#F89700" x="92.39" y="22.29" width="5.67" height="12.19" rx="2.835"/><rect fill="#F89700" x="36.42" y="22.29" width="5.67" height="12.19" rx="2.835"/><path d="M63.1 28.5l2.71-6.83h-8.68a2.35 2.35 0 0 1-2.28-2.94L59.45 1a35.54 35.54 0 0 1 19.9 1L72 13h5.6a2.35 2.35 0 0 1 1.75 3.93L66.81 30.81a2.22 2.22 0 0 1-3.71-2.31zM33.86 36.77h67.75v3.54H33.86z" fill="#FFC800"/><path d="M94 40.46V73a6.73 6.73 0 0 1-3 5.58L79.84 86a21.75 21.75 0 0 1-24.26 0l-11.13-7.45a6.73 6.73 0 0 1-3-5.58V40.46H94z" fill="#FFB100"/><path d="M63.55 42.42v6.12a8 8 0 1 1-15.95 0v-6.12a7.4 7.4 0 0 1 .22-1.83h15.52a7.9 7.9 0 0 1 .21 1.83z" fill="#FFE865"/><path d="M60.6 43.7v4a3.21 3.21 0 1 1-6.41 0v-4a3.21 3.21 0 0 1 2.42-3.11h1.57a3.21 3.21 0 0 1 2.42 3.11z" fill="#E27800"/><path d="M88 42.42v6.12a8 8 0 1 1-16 0v-6.12a7.9 7.9 0 0 1 .21-1.83H87.8a7.4 7.4 0 0 1 .2 1.83z" fill="#FFE865"/><path d="M81.43 43.7v4a3.21 3.21 0 1 1-6.41 0v-4a3.23 3.23 0 0 1 2.43-3.11H79a3.21 3.21 0 0 1 2.43 3.11zM54.34 76.81h26.75v7.53a7.23 7.23 0 0 1-7.23 7.23H61.57a7.23 7.23 0 0 1-7.23-7.23v-7.53z" fill="#E27800"/><path d="M79.28 72.6a1.8 1.8 0 0 1 1.8 1.8V85h-3.6V74.4a1.8 1.8 0 0 1 1.8-1.8zM56.14 72.6a1.8 1.8 0 0 1 1.8 1.8V85h-3.6V74.4a1.8 1.8 0 0 1 1.8-1.8z" fill="#E27800"/><path d="M72.15 72.77h5.33v6.71a2.66 2.66 0 0 1-5.32 0v-6.71h-.01zM57.94 72.77h5.33v6.71a2.66 2.66 0 0 1-5.32 0v-6.71h-.01z" fill="#FFB100"/><path d="M84.25 67.1a1.54 1.54 0 0 1-1.38-.86L81 62.5a1.53 1.53 0 1 1 2.74-1.35l1.84 3.74a1.52 1.52 0 0 1-.7 2 1.44 1.44 0 0 1-.63.21zM51.07 67.1a1.44 1.44 0 0 1-.67-.16 1.53 1.53 0 0 1-.7-2l1.84-3.74a1.532 1.532 0 1 1 2.75 1.35l-1.84 3.74a1.54 1.54 0 0 1-1.38.81zM71.21 40.43v15a3.32 3.32 0 0 1-3.31 3.32h-.21a3.31 3.31 0 0 1-3.32-3.32v-15h6.84z" fill="#F89700"/><path d="M68.9 73.73h-2.38A3.24 3.24 0 0 0 63.27 77v.48h8.88V77a3.24 3.24 0 0 0-3.25-3.27zM44.46 40.45h19.91v2.44a2.29 2.29 0 0 1-2.29 2.29H46.75a2.29 2.29 0 0 1-2.29-2.29v-2.44zM71.13 40.43H91v2.46a2.29 2.29 0 0 1-2.29 2.29H73.42a2.29 2.29 0 0 1-2.29-2.29v-2.46z" fill="#E27800"/><path d="M80 64.28v4.47a2.76 2.76 0 0 1-.39 1.43 2.81 2.81 0 0 1-2.41 1.37H59a2.83 2.83 0 0 1-2.81-2.8v-4.47a2.68 2.68 0 0 1 .45-1.51 2.78 2.78 0 0 1 2.36-1.3h18.24a2.78 2.78 0 0 1 2.35 1.29c.278.457.42.985.41 1.52z" fill="#F89700"/><path d="M79.59 62.76l-.1.5a3.77 3.77 0 0 1-3.2 3.06c-.17.01-.34.01-.51 0H60.41a4.07 4.07 0 0 1-.5 0 3.8 3.8 0 0 1-3.23-3.06l-.09-.49a2.78 2.78 0 0 1 2.41-1.3h18.24a2.78 2.78 0 0 1 2.35 1.29z" fill="#FFE865"/><path d="M79.65 70.18a2.81 2.81 0 0 1-2.41 1.37H59a2.75 2.75 0 0 1-2.41-1.38l.14-.8a3.79 3.79 0 0 1 3.23-3.05 2.74 2.74 0 0 1 .5 0h15.32c.17-.015.34-.015.51 0a3.76 3.76 0 0 1 3.2 3l.16.86z" fill="#FFE865"/><path d="M30.12 88.4H10l-2-8.35a3.63 3.63 0 0 1 3.53-4.46H22.3a7.82 7.82 0 0 1 7.82 7.82v4.99zM104.88 88.4H125l2-8.35a3.63 3.63 0 0 0-3.53-4.46H112.7a7.82 7.82 0 0 0-7.82 7.82v4.99zM113.5 98.9a4.54 4.54 0 0 1-4.49-4.54v-2.8h9v2.8a4.54 4.54 0 0 1-4.51 4.54z" fill="#FFB100"/><rect fill="#E27800" x="100.98" y="81.65" width="29.93" height="13.4" rx="4.96"/><path d="M78.73 116.61H63.41a4 4 0 1 1 0-8h15.32a6.38 6.38 0 0 0 6.27-4.92l2-8.28a14.35 14.35 0 0 1 14-11.06h3.79a4 4 0 1 1 0 8H101a6.36 6.36 0 0 0-6.22 4.91l-2 8.29a14.35 14.35 0 0 1-14.05 11.06z" fill="#FFE865"/><path d="M17 91.57h9v2.8a4.54 4.54 0 0 1-4.54 4.54A4.54 4.54 0 0 1 17 94.37v-2.8z" fill="#FFB100"/><rect fill="#E27800" transform="rotate(-180 18.075 88.34)" x="3.11" y="81.64" width="29.93" height="13.4" rx="4.96"/><path d="M70.61 116.61H55.28a14.35 14.35 0 0 1-14-11.06l-2-8.29a6.38 6.38 0 0 0-6.22-4.91h-3.77a4 4 0 1 1 0-8h3.79a14.36 14.36 0 0 1 14 11.06l2 8.28a6.37 6.37 0 0 0 6.22 4.92h15.31a4 4 0 1 1 0 8z" fill="#FFE865"/><circle fill="#FFB100" cx="17.94" cy="82.69" r="4"/><circle fill="#FFB100" cx="11.01" cy="82.69" r="4"/><circle fill="#FFB100" cx="4.07" cy="82.69" r="4"/><path d="M18.57 76.75a25.09 25.09 0 0 0-14.93 0l-.17.05a4.84 4.84 0 0 0-3.41 4.58v1.31H22v-1.33a4.83 4.83 0 0 0-3.43-4.61z" fill="#FFB100"/><path d="M25.62 81.65h-1.23a3.37 3.37 0 0 0-2.44 1h-2.33v-3.59H26l-.38 2.59z" fill="#FFB100"/><circle fill="#FFB100" cx="117.06" cy="82.69" r="4"/><circle fill="#FFB100" cx="123.99" cy="82.69" r="4"/><circle fill="#FFB100" cx="130.93" cy="82.69" r="4"/><path d="M116.43 76.75a25.09 25.09 0 0 1 14.93 0l.17.05a4.84 4.84 0 0 1 3.41 4.62v1.31h-21.89v-1.37a4.83 4.83 0 0 1 3.38-4.61z" fill="#FFB100"/><path d="M109.38 81.65h1.23a3.37 3.37 0 0 1 2.44 1h2.33v-3.59H109l.38 2.59zM97.39 123.86H36.9l-4.09-18a2.94 2.94 0 0 1 2.87-3.59h62.69a2.93 2.93 0 0 1 2.87 3.55l-3.85 18.04z" fill="#FFB100"/></g></g></g></svg>