<svg viewBox="0 0 135 124" version="1.1" xmlns="http://www.w3.org/2000/svg" xmlns:xlink="http://www.w3.org/1999/xlink"><defs><path d="M28.3 0h32.652c15.63 0 28.3 12.67 28.3 28.3 0 15.629-12.67 28.299-28.3 28.299H28.3c-15.63 0-28.3-12.67-28.3-28.3C0 12.67 12.67 0 28.3 0z" id="a"/><path d="M3.644 3.182h16.714L24.198 0h38.048a3.644 3.644 0 0 1 3.644 3.644v33.622a3.644 3.644 0 0 1-3.644 3.644H3.644A3.644 3.644 0 0 1 0 37.266V6.826a3.644 3.644 0 0 1 3.644-3.644z" id="c"/><path d="M3.644 3.182h16.714L24.198 0h38.048a3.644 3.644 0 0 1 3.644 3.644v33.622a3.644 3.644 0 0 1-3.644 3.644H3.644A3.644 3.644 0 0 1 0 37.266V6.826a3.644 3.644 0 0 1 3.644-3.644z" id="e"/></defs><g stroke="none" stroke-width="1" fill="none" fill-rule="evenodd"><path d="M28 11h79c9.389 0 17 7.611 17 17v79c0 9.389-7.611 17-17 17H28c-9.389 0-17-7.611-17-17V28c0-9.389 7.611-17 17-17z" fill="#9069CD"/><path d="M83 106c12.414 0 23.178 7.07 28.484 17.402-1.429.39-2.932.598-4.484.598H28c-1.868 0-3.666-.301-5.347-.858C28.004 112.95 38.69 106 51 106h32z" fill="#FF9500"/><g transform="rotate(15 7.734 233.702)"><ellipse fill="#3D3D3D" cx="45.045" cy="13.624" rx="13.703" ry="13.624"/><g transform="translate(.315 29.655)"><mask id="b" fill="#fff"><use xlink:href="#a"/></mask><use fill="#3D3D3D" xlink:href="#a"/><path fill="#D8D8D8" mask="url(#b)" d="M-21.147 31.876h129.679v25.345H-21.147z"/></g><path d="M45.281 36.523c19.354 0 35.044 15.69 35.044 35.043V99.73a16.937 16.937 0 0 1-4.238 2.062l-65.85-.001V71.566c0-19.354 15.69-35.044 35.044-35.044z" fill="#FFCBA3"/><path fill="#FFCBA3" d="M22.207 41.255h46.935v4.253H22.207z"/><path fill="#3D3D3D" d="M21.105 34.428h51.188v8.348H21.105z"/><g><g><g><g><g><g><path d="M34.601 52.38a9.308 9.308 0 0 1 9.308 9.309v2.509a9.308 9.308 0 1 1-18.616 0v-2.51a9.308 9.308 0 0 1 9.308-9.308z" fill="#FFF"/><path d="M35.244 66.653l-3.064 1.386a1.024 1.024 0 0 1-1.44-1.046l.372-3.342-2.265-2.486a1.024 1.024 0 0 1 .55-1.693l3.293-.68 1.664-2.921a1.024 1.024 0 0 1 1.78 0l1.664 2.922 3.294.68a1.024 1.024 0 0 1 .55 1.692l-2.265 2.486.371 3.342a1.024 1.024 0 0 1-1.44 1.046l-3.064-1.386z" fill="#FFB100"/></g></g><g><path d="M55.907 52.38a9.308 9.308 0 0 0-9.307 9.31v2.509a9.308 9.308 0 1 0 18.616 0v-2.51a9.308 9.308 0 0 0-9.308-9.308z" fill="#FFF"/><path d="M55.244 66.653l3.064 1.386a1.024 1.024 0 0 0 1.44-1.046l-.371-3.342 2.265-2.486a1.024 1.024 0 0 0-.55-1.693l-3.294-.68-1.664-2.921a1.024 1.024 0 0 0-1.78 0l-1.664 2.922-3.293.68a1.024 1.024 0 0 0-.55 1.692l2.265 2.486-.371 3.342a1.024 1.024 0 0 0 1.44 1.046l3.063-1.386z" fill="#FFB100"/></g></g></g></g></g><path d="M27.72 70.297c8.697.267 14.577 4.1 17.64 11.498" stroke="#FFCBA3" stroke-width="10.553" stroke-linecap="square"/><path d="M63 70.297c-8.697.267-14.577 4.1-17.64 11.498" stroke="#FFCBA3" stroke-width="11.34" stroke-linecap="square"/><path d="M45.281 73.653c1.957 0 3.544-1.604 3.544-3.582 0-1.978-3.544-6.656-3.544-6.656s-3.544 4.678-3.544 6.656c0 1.978 1.587 3.582 3.544 3.582z" fill="#E89665"/><path d="M39.375 93.127c3.937 2.52 7.875 2.52 11.813 0" stroke="#F7B286" stroke-width="1.555" stroke-linecap="round" stroke-linejoin="round"/><path stroke="#F3A577" stroke-width="1.555" opacity=".626" stroke-linecap="round" stroke-linejoin="round" d="M73.523 64.054l-5.994 1.342 5.147 3.467m-55.952-4.809l5.994 1.342-5.146 3.467"/><path d="M11.796 39.892h14.349v14.35a7.386 7.386 0 0 1-7.386 7.386h-6.963a7.386 7.386 0 0 1-7.386-7.386v-6.964a7.386 7.386 0 0 1 7.386-7.386zm52.622-.787h13.404a7.386 7.386 0 0 1 7.385 7.386v7.75a7.386 7.386 0 0 1-7.385 7.386h-6.019a7.386 7.386 0 0 1-7.385-7.385V39.105z" fill="#3D3D3D"/><path d="M26.886 72.624c13.54 9.777 26.406 8.652 38.598-3.377" stroke="#E89665" stroke-width="2.179" stroke-linecap="round" stroke-linejoin="round"/><path d="M35.595 47.972c6.65-1.89 13.002-1.89 19.058 0" stroke="#3D3D3D" stroke-width="4.725" stroke-linecap="round" stroke-linejoin="round"/></g><g><g transform="rotate(-26 68.76 -19.52)"><rect fill="silver" fill-rule="nonzero" x="5.033" y="0" width="13.27" height="6.364" rx="1.822"/><g><g fill="#666161" fill-rule="nonzero"><path d="M3.644 3.182h16.714L24.198 0h38.048a3.644 3.644 0 0 1 3.644 3.644v33.622a3.644 3.644 0 0 1-3.644 3.644H3.644A3.644 3.644 0 0 1 0 37.266V6.826a3.644 3.644 0 0 1 3.644-3.644z"/></g><g><mask id="d" fill="#fff"><use xlink:href="#c"/></mask><rect fill="#D8D8D8" fill-rule="nonzero" mask="url(#d)" x="-6.406" y="-5.909" width="78.702" height="17.273" rx="4.859"/></g><g><mask id="f" fill="#fff"><use xlink:href="#e"/></mask><rect fill="#D8D8D8" fill-rule="nonzero" mask="url(#f)" x="-6.406" y="36.819" width="78.702" height="4.546" rx="2.273"/></g></g><ellipse stroke="#D8D8D8" stroke-width="4.859" fill="#666161" fill-rule="nonzero" cx="36.377" cy="26.591" rx="14.871" ry="14.773"/><ellipse fill="#1CB0F6" fill-rule="nonzero" cx="36.377" cy="26.591" rx="10.753" ry="10.682"/><rect stroke="#666161" stroke-width="3.037" fill="#1CB0F6" fill-rule="nonzero" x="50.099" y="2.502" width="10.077" height="6.359" rx="1.822"/><rect fill="silver" fill-rule="nonzero" x="36.606" y="2.727" width="9.151" height="4.091" rx="1.822"/><path d="M35.288 19.27a6.383 6.383 0 0 0-5.252 3.552l-.317.646" stroke="#7AF0F2" stroke-width="4.859" stroke-linecap="round"/><path d="M37.498 33.923a6.383 6.383 0 0 0 5.251-3.553l.318-.646" stroke="#1CA2F6" stroke-width="4.859" stroke-linecap="round"/></g></g><path d="M30.03 56.666a16.02 16.02 0 0 1 .137 6.771L23.971 95.16l40.38 17.299L43.968 124H28c-9.389 0-17-7.611-17-17V44.72l.055-.011c8.504-1.844 16.957 3.452 18.976 11.957z" fill="#FF9500"/><g transform="rotate(1 -1071.092 317.972)" fill="#FFCBA3"><path d="M18.882 30.98l-.253.01-.206.008c-8.365.292-15.395-6.14-15.82-14.412l-.01-.251-.007-.205C2.293 7.737 8.905.693 17.355.398 20.17.3 22.534 2.488 22.63 5.286c.096 2.75-2.032 5.066-4.78 5.237l-.143.007c-2.768.096-4.945 2.367-4.926 5.102l.003.142.008.204c.096 2.75 2.38 4.912 5.134 4.891l.142-.003.206-.007c2.77-.097 8.936 9.695.607 10.12z" fill-rule="nonzero"/><rect x=".363" y="14.109" width="29.484" height="29.484" rx="14.742"/></g><path fill="#FFB100" d="M64.638 112.372l25.114 6.73-6.73 25.114-25.114-6.73z"/><path d="M64.637 112.372l25.114 6.73a6.582 6.582 0 0 1-12.287-2.04l-.117-.7-.456.56a6.903 6.903 0 0 1-12.254-4.55z" fill="#FFF"/></g></svg>