<svg viewBox="0 0 136 125" fill="none" xmlns="http://www.w3.org/2000/svg"><g clip-path="url(#clip0_302_3161)"><path d="M107.021 11.679h-79c-9.389 0-17 7.611-17 17v79c0 9.389 7.611 17 17 17h79c9.389 0 17-7.611 17-17v-79c0-9.389-7.611-17-17-17z" fill="#CE82FF"/><path fill-rule="evenodd" clip-rule="evenodd" d="M50.062 26.817c-3.44 7.714-12.481 11.178-20.194 7.738l-7.684-3.426c-7.713-3.44-11.177-12.481-7.738-20.195C17.886 3.221 26.927-.242 34.64 3.197l7.684 3.426c7.713 3.44 11.178 12.481 7.738 20.194z" fill="#3D3D3D"/><path d="M49.453 25.848l-19.245-8.582c-6.31-2.815-13.5-1.062-17.861 3.838a4.54 4.54 0 1 0-3.99 8.132c-1.358 6.918 2.175 14.104 8.888 17.098l19.245 8.582c6.713 2.994 14.42.82 18.66-4.813a4.54 4.54 0 1 0 3.383-8.402c.731-6.519-2.769-13.038-9.08-15.853z" fill="#FFCBA3"/><path fill-rule="evenodd" clip-rule="evenodd" d="M31.299 40.69a2.166 2.166 0 0 0 2.86-1.096c.487-1.092-.34-4.558-.34-4.558l-.296.167c-.793.455-2.926 1.74-3.321 2.627a2.166 2.166 0 0 0 1.097 2.86z" fill="#E99B5F"/><path d="M6.354 31.022a2.166 2.166 0 1 0 1.765-3.957 2.166 2.166 0 0 0-1.765 3.957z" fill="#C86902"/><path d="M50.31 26.262c5.064 2.636 8.111 7.75 8.31 13.166l-6.751-3.01a5.56 5.56 0 0 1-2.814-7.343l1.255-2.813z" fill="#D6C5B9"/><path d="M43.959 26.628a4.962 4.962 0 0 0-6.553 2.51l-2.09 4.687a4.96 4.96 0 0 0 .468 4.87c1.607.03 3.466.45 5.323 1.279.33.147.65.302.96.466a4.943 4.943 0 0 0 2.481-2.498l2.09-4.686a4.962 4.962 0 0 0-2.51-6.553l-.17-.075z" fill="#E99B5F"/><path d="M43.214 28.297a4.962 4.962 0 0 0-6.553 2.511l-1.345 3.016a4.96 4.96 0 0 0 .468 4.87c1.607.031 3.466.451 5.323 1.28.33.146.65.302.96.465a4.944 4.944 0 0 0 2.481-2.497l1.346-3.017a4.962 4.962 0 0 0-2.511-6.553l-.169-.075z" fill="#fff"/><path d="M35.704 28.38a4.962 4.962 0 0 0-2.51-6.553l-.17-.076a4.962 4.962 0 0 0-6.552 2.511l-2.09 4.686a4.962 4.962 0 0 0 2.51 6.553l.17.075a4.962 4.962 0 0 0 6.552-2.51l2.09-4.687z" fill="#E99B5F"/><path d="M25.727 25.931a4.962 4.962 0 0 1 6.552-2.51l.17.075a4.962 4.962 0 0 1 2.51 6.553l-1.345 3.016a4.962 4.962 0 0 1-6.553 2.511l-.169-.075a4.962 4.962 0 0 1-2.51-6.553l1.345-3.017z" fill="#fff"/><path d="M34.364 31.382l-.75 1.683a4.964 4.964 0 0 1-4.769 2.937 2.89 2.89 0 0 1-1.129-3.64l1.152-2.582a3.33 3.33 0 0 1 .036-.079 2.252 2.252 0 0 0 3.92-1.316 2.89 2.89 0 0 1 1.54 2.997zM45.45 35.92a2.89 2.89 0 0 0-2.402-3.258 2.252 2.252 0 0 1-3.141 1.774l-1.108 2.484a2.88 2.88 0 0 0-.058 2.213 15.8 15.8 0 0 1 2.366.84c.33.148.65.303.96.466a4.943 4.943 0 0 0 2.481-2.497l.902-2.023z" fill="#3D3D3D"/><path fill-rule="evenodd" clip-rule="evenodd" d="M37.535 47.051a2.33 2.33 0 1 0-2.54-3.908c-1.28.832-2.343.804-3.2.527a4.801 4.801 0 0 1-2.123-1.446 2.33 2.33 0 1 0-3.636 2.916 9.449 9.449 0 0 0 4.325 2.965c2.088.675 4.626.602 7.174-1.054z" fill="#A41414"/><path d="M37.546 47.044l-.01.007c-2.548 1.655-5.086 1.728-7.174 1.054a9.314 9.314 0 0 1-2.78-1.472 9.06 9.06 0 0 1 9.964.411z" fill="#E64340"/><path fill-rule="evenodd" clip-rule="evenodd" d="M34.554 21.057l-.42.942c-2.553 5.724-9.263 8.295-14.987 5.742s-8.295-9.262-5.742-14.986l.42-.943c2.553-5.724 9.263-8.294 14.987-5.742 5.724 2.553 8.294 9.262 5.742 14.987z" fill="#3D3D3D"/><path d="M51.59 86.45a7.07 7.07 0 0 0-9.136-4.06l-21.442 8.252a7.069 7.069 0 0 0-4.058 9.137l1.231 3.2a4.215 4.215 0 0 0 3.028 7.867l2.214 5.754a7.955 7.955 0 0 0 10.282 4.567l19.788-7.615a7.955 7.955 0 0 0 4.567-10.281l-2.215-5.755a4.215 4.215 0 0 0-3.027-7.867l-1.232-3.2z" fill="#A46648"/><path d="M34.286 59.115a9.222 9.222 0 0 1 8.895-.998l4.564 1.9a9.228 9.228 0 0 1 4.973 12.065l-1.698 4.081a9.222 9.222 0 0 1-7.04 5.564l.791 2.057-13.107 2.683-14.102 7.788-.692-1.798c-2.04.55-4.28.405-6.34-.57l-3.997-1.889a9.228 9.228 0 0 1-4.399-12.287l2.113-4.469a9.218 9.218 0 0 1 6.836-5.161c-.9-4.345 1.448-8.829 5.725-10.475l6.225-2.395c4.266-1.642 9 .097 11.253 3.904z" fill="#3D3D3D"/><path d="M39.406 103.202c-.717-.629-1.673-1.217-1.714-1.201-.04.015-.356 1.093-.466 2.04a1.592 1.592 0 0 0 1.548 2.74l1.32-.508a1.59 1.59 0 0 0-.688-3.071z" fill="#86401F"/><path d="M23.106 81.952a7.142 7.142 0 0 0 5.331 3.939l-16.719 6.434 6.448 10.662a3.325 3.325 0 0 1 .208-.079l13.634-15.677 20.628 2.492a4.186 4.186 0 0 1 .2-.079l-2.358-12.236L33.871 83.8a7.14 7.14 0 0 0 1.229-6.388l-.561-1.937a7.148 7.148 0 0 0-4.989 5.305 7.148 7.148 0 0 0-7.326-.642l.882 1.814z" fill="#FDB02A"/><path d="M27.056 104.598l-.473-1.23 8.827-3.397.473 1.23a4.71 4.71 0 0 1 .06 3.234l-7.932 1.691a4.713 4.713 0 0 1-.955-1.528zM38.381 100.24l-.474-1.23 8.827-3.398.474 1.23c.223.58.324 1.176.316 1.76l-7.032 4.07a4.71 4.71 0 0 1-2.111-2.432z" fill="#fff"/><path fill-rule="evenodd" clip-rule="evenodd" d="M35.495 111.13c.958-1.351 2.645-2.582 4.688-3.368 2.044-.786 4.12-1.004 5.737-.644a.787.787 0 1 1-.342 1.537c-1.243-.277-2.998-.129-4.83.576-1.83.705-3.233 1.771-3.97 2.81a.787.787 0 1 1-1.283-.911z" fill="#884727"/><path d="M31.585 101.864l.473 1.23a2.094 2.094 0 0 0 3.907-1.504l-.473-1.23-3.907 1.504zM42.565 96.397l.473 1.23a2.093 2.093 0 0 0 3.907-1.504l-.474-1.23-3.906 1.504z" fill="#3D3D3D"/><path d="M37.45 98.305a1.091 1.091 0 0 0-1.455-.713 1.092 1.092 0 0 0-.601 1.505.807.807 0 0 1-.607.919l-11.03 2.638a1.091 1.091 0 1 0 .507 2.123l11.03-2.638a2.98 2.98 0 0 0 1.902-1.427 2.985 2.985 0 0 0 2.368-.216l9.953-5.438a1.092 1.092 0 0 0-1.046-1.915l-9.953 5.437a.807.807 0 0 1-1.068-.275z" fill="#86401F"/><path fill-rule="evenodd" clip-rule="evenodd" d="M105.537 57.688a8.46 8.46 0 0 1-8.728 3.732l-1.862 2.897.418 1.922a1.535 1.535 0 0 1-1.173 1.825l-1.922.418.418 1.921a1.534 1.534 0 0 1-1.174 1.826l-1.922.418.374 1.718c.103.475-.026.942-.306 1.29l-.427.663a3.98 3.98 0 0 1-5.299 1.316h-.001l-.018-.01a3.987 3.987 0 0 1-.356-.23l-.96-.617c.088.047.163.089.231.127.127.072.231.13.352.182a3.98 3.98 0 0 1-.643-5.071l.742-1.155.005.003 8.25-12.833a8.462 8.462 0 0 1 10.767-12.432 9.321 9.321 0 0 0-.619-.44l1.139.732a7.726 7.726 0 0 1 .344.222l.031.02.002.002a8.458 8.458 0 0 1 2.337 11.554zm-7.22-4.41a2.943 2.943 0 1 0 3.183-4.951 2.943 2.943 0 0 0-3.183 4.95z" fill="#677479"/><path fill-rule="evenodd" clip-rule="evenodd" d="M104.364 56.935a8.46 8.46 0 0 1-8.728 3.731l-1.862 2.897.418 1.922a1.535 1.535 0 0 1-1.173 1.825l-1.922.418.417 1.922a1.534 1.534 0 0 1-1.173 1.825l-1.922.418.374 1.718c.103.475-.026.942-.306 1.29l-.427.663a3.98 3.98 0 0 1-6.694-4.303l.742-1.155.005.003 8.25-12.833a8.461 8.461 0 0 1 11.46-12.03 8.458 8.458 0 0 1 2.541 11.689zm-7.22-4.411a2.943 2.943 0 1 0 3.183-4.951 2.943 2.943 0 0 0-3.183 4.95z" fill="#BFBFBF"/><path fill-rule="evenodd" clip-rule="evenodd" d="M91.608 59.621a.58.58 0 0 1 .174.802l-7.324 11.393a.58.58 0 1 1-.976-.628l7.324-11.392a.58.58 0 0 1 .802-.175z" fill="#677479"/><path fill-rule="evenodd" clip-rule="evenodd" d="M94.855 54.735a8.461 8.461 0 0 1-9.424-1.133L82.37 55.18l-.6 1.873a1.534 1.534 0 0 1-1.928.994l-1.874-.6-.599 1.874a1.534 1.534 0 0 1-1.929.994l-1.873-.599-.535 1.675a1.529 1.529 0 0 1-.91.964l-.701.361a3.98 3.98 0 0 1-5.248-1.51h-.001l-.01-.018a3.944 3.944 0 0 1-.194-.377l-.522-1.014c.052.084.096.158.136.225.074.126.135.228.214.333a3.98 3.98 0 0 1 1.979-4.713l1.22-.629.002.006 13.562-6.99a8.461 8.461 0 0 1 15.54-5.383 9.151 9.151 0 0 0-.316-.69l.62 1.204a8.19 8.19 0 0 1 .188.364l.016.032v.003a8.459 8.459 0 0 1-3.752 11.176zm-4.047-7.43a2.943 2.943 0 1 0 5.231-2.696 2.943 2.943 0 0 0-5.231 2.696z" fill="#A46648"/><path fill-rule="evenodd" clip-rule="evenodd" d="M94.216 53.495a8.461 8.461 0 0 1-9.424-1.132L81.73 53.94l-.6 1.873a1.534 1.534 0 0 1-1.928.994l-1.873-.599-.6 1.874a1.535 1.535 0 0 1-1.928.994l-1.874-.6-.535 1.675a1.529 1.529 0 0 1-.91.964l-.701.362a3.98 3.98 0 0 1-3.646-7.074l1.22-.629.003.005 13.56-6.989a8.461 8.461 0 0 1 15.941-4.689 8.459 8.459 0 0 1-3.644 11.394zm-4.047-7.43A2.943 2.943 0 1 0 95.4 43.37a2.943 2.943 0 0 0-5.231 2.696z" fill="#FDB02A"/><path fill-rule="evenodd" clip-rule="evenodd" d="M81.825 49.444a.58.58 0 0 1-.25.781L69.536 56.43a.58.58 0 0 1-.531-1.032l12.039-6.204a.58.58 0 0 1 .781.25z" fill="#A46648"/><path d="M101.224 48.455a5.291 5.291 0 0 1-1.895-.064c-.123.715-.364 1.673-.765 2.558.943.235 1.931.297 2.913.17.229-.648.396-1.54-.253-2.664zM104.203 46.936a5.221 5.221 0 0 0 .889-6.008 5.205 5.205 0 0 0-9.43 4.391l.002.002a2.937 2.937 0 0 1-1.88 2.15 7.836 7.836 0 0 1-1.04-5.677 7.869 7.869 0 0 1 14.717-2.086c1.648 3.197.879 7.01-1.622 9.354-.629-1.151-1.261-1.746-1.636-2.126z" fill="#4E4A4A"/><path d="M88.622 87.058a3.202 3.202 0 1 0 0-6.403 3.202 3.202 0 0 0 0 6.403z" fill="#D8D8D8"/><path fill-rule="evenodd" clip-rule="evenodd" d="M88.774 86.144c12.631 0 22.869 10.238 22.869 22.869v3.659H65.905v-3.659c0-12.63 10.24-22.87 22.87-22.87z" fill="#D8D8D8"/><path d="M111.186 112.672H63.618a1.982 1.982 0 1 0 0 3.964h47.568a1.982 1.982 0 0 0 0-3.964z" fill="#C2C0C0"/><path d="M107.527 114.806H68.802a1.982 1.982 0 1 0 0 3.964h38.725a1.982 1.982 0 0 0 0-3.964z" fill="#C2C0C0"/><path d="M82.028 92.313l2.65 1.985a1.372 1.372 0 0 1-.263 2.49c-5.247 1.722-8.392 5.378-9.547 11.136a1.373 1.373 0 0 1-2.614.254 1.368 1.368 0 0 1-.249-.772c-.078-6.846 2.745-12.002 8.39-15.283a1.373 1.373 0 0 1 1.633.19z" fill="#fff"/><path opacity=".824" fill-rule="evenodd" clip-rule="evenodd" d="M98.368 74.073h18.621c.741 0 1.364.553 1.453 1.288l1.796 14.91c.836 6.936-4.11 13.237-11.046 14.073-.502.06-1.008.09-1.513.09-6.987 0-12.651-5.663-12.651-12.65 0-.506.03-1.011.09-1.513l1.797-14.91a1.463 1.463 0 0 1 1.453-1.288z" fill="#BBF2FF"/><path fill-rule="evenodd" clip-rule="evenodd" d="M97.589 92.729h20.368c-.547 5.14-4.898 9.145-10.184 9.145s-9.637-4.004-10.184-9.145z" fill="#D93C5E"/><path d="M108.928 104.069h-1.829v14.266h1.829v-14.266z" fill="#BEF3FF"/><path d="M114.964 116.506h-13.9a1.28 1.28 0 1 0 0 2.56h13.9a1.28 1.28 0 1 0 0-2.56z" fill="#BEF3FF"/><path opacity=".836" fill-rule="evenodd" clip-rule="evenodd" d="M102.142 75.536h1.112c.394 0 .717.312.731.706l.607 16.991a2.692 2.692 0 0 1-2.69 2.788 2.484 2.484 0 0 1-2.468-2.77l1.981-17.068a.732.732 0 0 1 .727-.647z" fill="#fff"/><path d="M101.66 31.5l7.412-.507a1.42 1.42 0 0 1 1.056.37l5.473 5.023a2.432 2.432 0 0 0 4.004-1.2l1.809-7.205c.094-.377.34-.7.678-.89l6.469-3.654a2.433 2.433 0 0 0 .922-3.314l-.002-.005a2.435 2.435 0 0 0-.824-.86l-6.294-3.946a1.42 1.42 0 0 1-.637-.92L120.25 7.11a.602.602 0 0 0-.014-.064v-.003a2.428 2.428 0 0 0-.504-1.01 2.432 2.432 0 0 0-3.426-.305l-5.699 4.766c-.298.25-.685.366-1.072.321l-7.38-.846a2.431 2.431 0 0 0-2.534 3.324l2.772 6.893c.145.36.136.765-.026 1.119l-3.086 6.757a2.432 2.432 0 0 0 2.379 3.438zM68.07 33.667l3.874-2.227a.853.853 0 0 1 .668-.078l4.282 1.274a1.464 1.464 0 0 0 1.849-1.704l-.92-4.371a.854.854 0 0 1 .132-.66l2.534-3.68a1.462 1.462 0 0 0-.374-2.034l-.003-.002a1.456 1.456 0 0 0-.672-.248l-4.442-.476a.853.853 0 0 1-.587-.33l-2.716-3.547-.015-.02-.01-.01v-.002l-.01-.012a1.462 1.462 0 0 0-2.461.336l-1.825 4.078a.853.853 0 0 1-.495.456l-4.213 1.487a1.463 1.463 0 0 0-.494 2.465l3.314 2.995a.853.853 0 0 1 .28.612l.113 4.466a1.463 1.463 0 0 0 2.191 1.232zM63.738 82.271l3.248-1.15a.658.658 0 0 1 .518.035l3.07 1.562a1.128 1.128 0 0 0 1.64-1.035l-.09-3.444a.659.659 0 0 1 .193-.482l2.435-2.438a1.128 1.128 0 0 0 0-1.595l-.002-.002-.016-.015a1.124 1.124 0 0 0-.46-.267l-3.303-.98a.658.658 0 0 1-.399-.33l-1.566-3.07-.009-.017-.005-.01v-.001l-.006-.01a1.128 1.128 0 0 0-1.914-.088l-1.953 2.839a.658.658 0 0 1-.439.277l-3.402.54a1.128 1.128 0 0 0-.718 1.801l2.096 2.734c.11.143.156.325.128.503l-.537 3.404a1.129 1.129 0 0 0 1.49 1.24z" fill="#FFDE00"/></g><defs><clipPath id="clip0_302_3161"><path fill="#fff" transform="translate(.021 .679)" d="M0 0h135v124H0z"/></clipPath></defs></svg>