<svg viewBox="0 0 135 124" fill="none" xmlns="http://www.w3.org/2000/svg"><g clip-path="url(#clip0)"><path d="M107 11H28c-9.389 0-17 7.611-17 17v79c0 9.389 7.611 17 17 17h79c9.389 0 17-7.611 17-17V28c0-9.389-7.611-17-17-17z" fill="#F6F5F5"/><path fill-rule="evenodd" clip-rule="evenodd" d="M113 70c6.075 0 11 4.925 11 11v26c0 2.495-.538 4.865-1.503 7L83 113.999V70h30z" fill="#E5E5E5"/><path fill-rule="evenodd" clip-rule="evenodd" d="M107 124H28c-8.011 0-14.728-5.541-16.527-13h112.054c-1.799 7.459-8.516 13-16.527 13z" fill="#D8D8D8"/><path fill-rule="evenodd" clip-rule="evenodd" d="M74.729 19.582l10.94 22.663A1.92 1.92 0 0 1 83.942 45H62.059a1.92 1.92 0 0 1-1.73-2.755l10.942-22.663a1.92 1.92 0 0 1 3.458 0z" fill="#E5E5E5"/><path fill-rule="evenodd" clip-rule="evenodd" d="M74.225 27.535l17.427 35.703A1.92 1.92 0 0 1 89.925 66H55.073a1.92 1.92 0 0 1-1.725-2.762l17.426-35.703a1.92 1.92 0 0 1 3.451 0z" fill="#E5E5E5"/><path fill-rule="evenodd" clip-rule="evenodd" d="M90.729 25.582l10.941 22.663A1.92 1.92 0 0 1 99.94 51H78.06a1.92 1.92 0 0 1-1.73-2.755l10.942-22.663a1.92 1.92 0 0 1 3.458 0z" fill="#E5E5E5"/><path fill-rule="evenodd" clip-rule="evenodd" d="M92.725 31.528l18.924 38.709A1.92 1.92 0 0 1 109.924 73H72.076a1.92 1.92 0 0 1-1.725-2.763l18.924-38.709a1.92 1.92 0 0 1 3.45 0z" fill="#E5E5E5"/><path fill-rule="evenodd" clip-rule="evenodd" d="M71.656 44.821L95.302 85.11A1.92 1.92 0 0 1 93.647 88H46.353a1.92 1.92 0 0 1-1.656-2.891L68.344 44.82a1.92 1.92 0 0 1 3.312 0zM110.11 35.387l10.875 22.45a2.9 2.9 0 0 1-2.61 4.163H96.627a2.9 2.9 0 0 1-2.61-4.163l10.875-22.45a2.9 2.9 0 0 1 5.218 0z" fill="#E5E5E5"/><path fill-rule="evenodd" clip-rule="evenodd" d="M48.215 42.75l16.903 46.807A1.824 1.824 0 0 1 63.402 92H29.598a1.824 1.824 0 0 1-1.716-2.443L44.784 42.75a1.824 1.824 0 0 1 3.431 0z" fill="#E5E5E5"/><path fill-rule="evenodd" clip-rule="evenodd" d="M26.728 60.572l11.938 24.671A1.92 1.92 0 0 1 36.938 88H13.062a1.92 1.92 0 0 1-1.729-2.757l11.938-24.671a1.92 1.92 0 0 1 3.457 0z" fill="#CDCDCD"/><path fill-rule="evenodd" clip-rule="evenodd" d="M26.226 68.54l16.428 33.698A1.92 1.92 0 0 1 40.928 105H8.072a1.92 1.92 0 0 1-1.726-2.762L22.774 68.54a1.92 1.92 0 0 1 3.452 0z" fill="#CDCDCD"/><path fill-rule="evenodd" clip-rule="evenodd" d="M106.311 41.285a2.746 2.746 0 0 1 3.696 1.285L124 71.56V106H90.001V85.789l1.877-3.935h-1.371c-.17 0-.34-.015-.507-.047l.001-8.076 15.041-31.16c.27-.56.717-1.012 1.269-1.286z" fill="#E5E5E5"/><path d="M100 99h10v12h-10V99z" fill="#CDCDCD"/><path fill-rule="evenodd" clip-rule="evenodd" d="M102.272 60.572L90.334 85.243A1.92 1.92 0 0 0 92.062 88h23.876a1.92 1.92 0 0 0 1.728-2.757l-11.938-24.671a1.92 1.92 0 0 0-3.456 0z" fill="#CDCDCD"/><path fill-rule="evenodd" clip-rule="evenodd" d="M102.773 73.553L88.341 103.24A1.92 1.92 0 0 0 90.068 106h28.864a1.92 1.92 0 0 0 1.726-2.759l-14.431-29.688a1.92 1.92 0 0 0-3.454 0z" fill="#CDCDCD"/><path d="M100.16 84.12h-28.8V111h28.8V84.12z" fill="#BFBFBF"/><path d="M86.72 59.16h-8.64a.96.96 0 0 0-.96.96v20.16c0 .53.43.96.96.96h8.64c.53 0 .96-.43.96-.96V60.12a.96.96 0 0 0-.96-.96z" fill="#B2B2B2"/><path fill-rule="evenodd" clip-rule="evenodd" d="M36.916 83.41l16.204-7.93 19.2 8.457v27.062H35.84V85.135a1.92 1.92 0 0 1 1.076-1.725z" fill="#BFBFBF"/><path d="M55.071 72.883a1.92 1.92 0 1 0-1.562 3.508l19.294 8.59a1.92 1.92 0 1 0 1.562-3.507l-19.294-8.59z" fill="#B2B2B2"/><path d="M53.346 72.883a1.92 1.92 0 1 1 1.562 3.508l-19.294 8.59a1.92 1.92 0 1 1-1.562-3.507l19.294-8.59z" fill="#B2B2B2"/><path fill-rule="evenodd" clip-rule="evenodd" d="M46.4 111V94.346c0-.876.798-1.586 1.783-1.586h8.914c.985 0 1.783.71 1.783 1.586V111" fill="#D8D8D8"/><path d="M83.84 90.84h-2.88a.96.96 0 0 0-.96.96v2.88c0 .53.43.96.96.96h2.88c.53 0 .96-.43.96-.96V91.8a.96.96 0 0 0-.96-.96zM90.56 90.84h-2.88a.96.96 0 0 0-.96.96v2.88c0 .53.43.96.96.96h2.88c.53 0 .96-.43.96-.96V91.8a.96.96 0 0 0-.96-.96zM90.56 97.56h-2.88a.96.96 0 0 0-.96.96v2.88c0 .53.43.96.96.96h2.88c.53 0 .96-.43.96-.96v-2.88a.96.96 0 0 0-.96-.96zM83.84 97.56h-2.88a.96.96 0 0 0-.96.96v2.88c0 .53.43.96.96.96h2.88c.53 0 .96-.43.96-.96v-2.88a.96.96 0 0 0-.96-.96z" fill="#B2B2B2"/><path d="M87.4 51.16h-7a4 4 0 1 0 0 8h7a4 4 0 0 0 0-8z" fill="#fff"/><path d="M81 46h-5a4 4 0 0 0 0 8h5a4 4 0 0 0 0-8zM91.5 38.76h-4a3.5 3.5 0 1 0 0 7h4a3.5 3.5 0 1 0 0-7z" fill="#fff"/><path d="M57 101.5a1.5 1.5 0 0 0-3 0v2a1.5 1.5 0 0 0 3 0v-2z" fill="#BFBFBF"/><path fill-rule="evenodd" clip-rule="evenodd" d="M54.388 72.6h26.768c.302 0 .601.071.871.209l20.73 10.56a1.92 1.92 0 0 1-.871 3.63H75.085a1.92 1.92 0 0 1-.873-.21L53.515 76.23a1.92 1.92 0 0 1 .873-3.63z" fill="#B2B2B2"/><path d="M24.026 5.423c.426.256.782.615 1.036 1.045l2.313 3.913 4.157-1.796a2.974 2.974 0 0 1 3.917 1.576c.195.46.274.96.229 1.459l-.412 4.536 4.41 1.008c1.607.367 2.614 1.976 2.25 3.594-.11.488-.339.94-.666 1.316L38.28 25.5l2.98 3.426a3.02 3.02 0 0 1-.277 4.24c-.374.33-.823.56-1.306.67l-4.411 1.007.412 4.537c.15 1.653-1.058 3.115-2.698 3.266a2.963 2.963 0 0 1-1.448-.231l-4.157-1.797-2.313 3.914a2.97 2.97 0 0 1-5.124 0l-2.314-3.914-4.156 1.797a2.974 2.974 0 0 1-3.917-1.576 3.024 3.024 0 0 1-.229-1.459l.411-4.537-4.41-1.007c-1.606-.367-2.613-1.976-2.249-3.594.11-.488.339-.94.666-1.316L6.72 25.5l-2.98-3.426a3.02 3.02 0 0 1 .278-4.24c.373-.33.822-.56 1.306-.67l4.41-1.008-.412-4.536c-.15-1.653 1.058-3.115 2.698-3.266.494-.045.992.034 1.448.231l4.156 1.796 2.314-3.913a2.97 2.97 0 0 1 4.088-1.045z" fill="#D8D8D8"/><path d="M22.5 38C29.404 38 35 32.404 35 25.5S29.404 13 22.5 13 10 18.596 10 25.5 15.596 38 22.5 38z" fill="#E5E5E5"/><path d="M30 99h-9v12h9V99z" fill="#CDCDCD"/></g><defs><clipPath id="clip0"><path fill="#fff" d="M0 0h135v124H0z"/></clipPath></defs></svg>