<svg viewBox="0 0 135 124" version="1.1" xmlns="http://www.w3.org/2000/svg"><g stroke="none" stroke-width="1" fill="none" fill-rule="evenodd"><g><rect fill="#EEE" x="10.857" y="10.955" width="113" height="113" rx="17"/><rect fill="#C2C2C2" transform="rotate(-24 44 36.698)" x="7" y="13.698" width="74" height="46" rx="2"/><rect fill="#B2B2B2" transform="rotate(-24 47.254 44.006)" x="31.254" y="42.006" width="32" height="4" rx="2"/><rect fill="#B2B2B2" transform="rotate(-24 44.407 37.611)" x="28.407" y="35.611" width="32" height="4" rx="2"/><rect fill="#B2B2B2" transform="rotate(-24 15.567 31.843)" x="7.567" y="29.843" width="16" height="4" rx="2"/><rect fill="#B2B2B2" transform="rotate(-24 18.008 37.324)" x="10.008" y="35.324" width="16" height="4" rx="2"/><rect fill="#B2B2B2" transform="rotate(-24 63.125 14.5)" x="57.625" y="9" width="11" height="11" rx="2"/><rect fill="#D5D5D5" transform="rotate(-23 45.902 66.584)" x="8.902" y="43.584" width="74" height="46" rx="2"/><path d="M10.724 63.048l30.34 4.537a9.27 9.27 0 0 0 8.919-3.786l17.812-24.976" stroke="#C2C2C2" stroke-width="4" stroke-linecap="round" stroke-linejoin="round"/><rect fill="#DFDFDF" x="53.857" y="73.787" width="74" height="46" rx="2"/><path d="M92.232 41.258l34.803 32.971a1 1 0 0 1-.688 1.726h-70.98a1 1 0 0 1-.688-1.726L89.48 41.26a2 2 0 0 1 2.751 0z" fill="#BEBEBE"/><path d="M98.422 102.788l28.613-27.107a1 1 0 0 0-.688-1.726h-70.98a1 1 0 0 0-.688 1.726l28.613 27.107a11 11 0 0 0 15.13 0z" fill="#BEBEBE"/><rect fill="#FFF" x="62.857" y="27.955" width="56" height="51" rx="3"/><rect fill="#EBEBEB" x="67.857" y="43.955" width="46" height="4" rx="2"/><rect fill="#EBEBEB" x="67.857" y="50.955" width="46" height="4" rx="2"/><rect fill="#EBEBEB" x="67.857" y="57.955" width="46" height="4" rx="2"/><rect fill="#EBEBEB" x="67.857" y="64.955" width="46" height="4" rx="2"/><path d="M118.856 73.955v9.473l-16.39 15.527h-23.22l-16.39-15.528v-9.472h56z" fill="#FFF"/><path stroke="#EBEBEB" stroke-width="3.1" stroke-linecap="round" stroke-linejoin="round" d="M84.107 90.622l5.5-5.333M93.107 90.622l5.5-5.333M102.107 90.622l5.5-5.333M89.857 84.955l3 6M98.857 84.955l3 6"/><rect fill="#EBEBEB" x="95.857" y="75.955" width="17" height="4" rx="2"/><rect fill="#EBEBEB" x="67.857" y="32.955" width="17" height="4" rx="2"/></g><circle fill="#B2B2B2" cx="46.5" cy="66.5" r="7.5"/></g></svg>