<svg viewBox="0 0 135 124" fill="none" xmlns="http://www.w3.org/2000/svg"><path d="M107 11H28c-9.389 0-17 7.611-17 17v79c0 9.389 7.611 17 17 17h79c9.389 0 17-7.611 17-17V28c0-9.389-7.611-17-17-17z" fill="#FFC800"/><path d="M62 65C51 49.43 40.31 43 29 36.1c-9.36-5.65-19-11.46-28.1-22a3.59 3.59 0 0 1 3.2-5.91L9.24 9l1.22-6.11a3.58 3.58 0 0 1 6.18-1.68C23.59 9 31.08 13.53 39.5 18.62c12.08 7.29 25.78 15.56 39.19 34.64L62 65z" fill="#F89700"/><path d="M73 65c10.94-15.57 21.67-22 33-28.9 9.36-5.65 19-11.46 28.1-22a3.594 3.594 0 0 0 .425-3.981A3.585 3.585 0 0 0 131 8.22l-5.24.78-1.22-6.11a3.582 3.582 0 0 0-6.18-1.68c-7 7.85-14.44 12.37-22.86 17.46-12.08 7.24-25.78 15.51-39.19 34.59L73 65z" fill="#F89700"/><path d="M88.72 43.71a6.58 6.58 0 0 0-4.06-11.85 6.58 6.58 0 0 0-10.24-7.2 6.57 6.57 0 0 0-12.51.19 6.57 6.57 0 0 0-10 7.51 6.57 6.57 0 0 0-3.69 12 6.56 6.56 0 0 0-2.37 7.16l.09.31a6.59 6.59 0 0 0 6.35 4.44 6.57 6.57 0 0 0 10.23 7.13 6.57 6.57 0 0 0 6.22 4.46h.12A6.59 6.59 0 0 0 75 63.19a6.57 6.57 0 0 0 10-7.52 6.57 6.57 0 0 0 3.68-12l.04.04z" fill="#FFB100"/><path d="M68.17 52.33h45.49v55.59a5.563 5.563 0 0 1-1.628 3.932 5.563 5.563 0 0 1-3.932 1.628H68.17V52.33z" fill="#FFE75E"/><path d="M23.1 52.33h45.49v61.15H28.66a5.567 5.567 0 0 1-3.931-1.628 5.574 5.574 0 0 1-1.629-3.932V52.33z" fill="#FFB100"/><path d="M68.16 41.22h43.69a5.561 5.561 0 1 1 0 11.12H68.16V41.22z" fill="#FFE75E"/><path d="M24.77 41.22h43.69v11.11H24.77a5.56 5.56 0 0 1-5.56-5.56 5.56 5.56 0 0 1 5.56-5.55z" fill="#FFB100"/><path d="M113.66 52.33h-45.2v4.11h45.2v-4.11z" fill="#FFD300"/><path d="M68.3 52.33H23.1v4.11h45.2v-4.11z" fill="#F89700"/><path d="M51.33 40.94H40.08v72.54h11.25V40.94z" fill="#F89700"/><path d="M96.54 40.94H85.29v72.54h11.25V40.94z" fill="#FFC800"/></svg>