<svg viewBox="0 0 135 124" fill="none" xmlns="http://www.w3.org/2000/svg"><g clip-path="url(#clip0)"><path d="M106.971 11h-79c-9.389 0-17 7.611-17 17v79c0 9.389 7.611 17 17 17h79c9.389 0 17-7.611 17-17V28c0-9.389-7.611-17-17-17z" fill="#FFCA00"/><path d="M12.56 114.08L114.08 12.56A16.938 16.938 0 0 0 107 11H65.68L11 65.68V107c.003 2.445.535 4.86 1.56 7.08zm72.12-48.14l-58 58c.43 0 .87.07 1.31.07h48.59l33.08-33.09c6.904-6.904 6.904-18.096 0-25-6.903-6.904-18.096-6.904-25 0l.02.02z" fill="#FFD900"/><path d="M107.281 73.657a7.778 7.778 0 1 0-8.977 6.185 7.778 7.778 0 0 0 6.536 9.177 7.778 7.778 0 0 0 2.441-15.362z" fill="#FF9600"/><path d="M82.084 86.87a9.375 9.375 0 0 1 10.608-7.953l28.134 4.023a9.374 9.374 0 0 1 7.953 10.608l-2.692 18.828a9.375 9.375 0 0 1-10.608 7.953l-28.134-4.023a9.375 9.375 0 0 1-7.954-10.608l2.693-18.828z" fill="#FFB100"/><path fill-rule="evenodd" clip-rule="evenodd" d="M108.159 110.299a.585.585 0 0 1-.825.076c-.389-.323-1.125-.723-2.006-.812-.856-.087-1.87.116-2.883 1.02a.585.585 0 1 1-.78-.874c1.27-1.135 2.615-1.431 3.782-1.312 1.142.116 2.092.625 2.636 1.077a.586.586 0 0 1 .076.825z" fill="#F08904"/><path d="M103.874 101.105c.106.015.83 1.637 1.561 3.334.728 1.689-.682 3.508-2.502 3.248-1.821-.26-2.664-2.402-1.493-3.819 1.178-1.425 2.328-2.778 2.434-2.763z" fill="#F08904"/><path d="M91.589 96.043l-.183 1.28a5.915 5.915 0 1 0 11.711 1.674l.183-1.279-11.711-1.675zM105.374 98.015l-.183 1.278a5.915 5.915 0 1 0 11.711 1.675l.183-1.279-11.711-1.674z" fill="#FFF1A2"/><path d="M96.433 96.736l-.182 1.267a2.655 2.655 0 1 0 5.258.752l.181-1.267-5.257-.752zM107.357 98.298l-.182 1.268a2.655 2.655 0 0 0 5.258.752l.181-1.268-5.257-.752z" fill="#E27800"/><path d="M89.23 79.067a9.378 9.378 0 0 0-7.147 7.804l-1.023 7.154.34.05a5.625 5.625 0 0 0 6.365-4.773l1.464-10.235zM124.107 84.055a9.377 9.377 0 0 1 4.672 9.494l-1.023 7.154-.341-.048a5.625 5.625 0 0 1-4.772-6.365l1.464-10.236z" fill="#FAA401"/><path d="M78.892 99.882a4.203 4.203 0 1 0 1.19-8.322 4.203 4.203 0 0 0-1.19 8.322zM128.196 106.933a4.203 4.203 0 1 0 1.19-8.32 4.203 4.203 0 0 0-1.19 8.32z" fill="#FFB100"/><path d="M37.825 109.456c-6.152-15.862-20.602-24.51-29.447-27.98-.983-.386-.862-1.847.193-1.914 13.8-.882 23.878 7.943 28.956 13.413.43.463 1.173.427 1.551-.08L83.976 32.83a1 1 0 0 1 1.427-.18l20.029 16.115a1 1 0 0 1 .043 1.521l-66.009 59.578c-.531.48-1.382.259-1.641-.408z" fill="#FFE761"/><path d="M129.684 43.289c5.87-14.826-1.39-31.602-16.216-37.472-14.825-5.87-31.602 1.39-37.472 16.216-5.87 14.825 1.391 31.602 16.217 37.472 14.825 5.87 31.602-1.39 37.471-16.216z" fill="#FFF1A2"/><path d="M130.272 23.64l-7.755 9.375-8.87-.557-6.023-9.49 3.271-8.263 11.794-3.029a28.792 28.792 0 0 0-9.216-5.864 28.794 28.794 0 0 0-10.732-2.033l6.525 10.28-3.272 8.264-10.887 2.795-6.848-5.665.764-12.144a28.752 28.752 0 0 0-13.666 16.52l11.784-3.026 6.848 5.665-.705 11.22-7.503 4.76-11.317-4.48c1.35 7.18 5.402 13.726 11.492 18.111l.764-12.151 7.503-4.762 10.452 4.137 2.211 8.608-7.76 9.382c7.44.972 14.874-1.028 20.774-5.337l-11.316-4.481-2.211-8.608 7.165-8.66 8.869.556 6.52 10.273a28.765 28.765 0 0 0 1.345-21.397z" fill="#FF9600"/><path d="M5.582 20.952h.001a6.656 6.656 0 0 1 5.784-7.295l31.11-3.938a6.656 6.656 0 0 1 7.419 5.624h.001l3.85 30.415a2.303 2.303 0 0 0 2.574 1.996l4.487-.568a.96.96 0 0 1 1.072.831 9.387 9.387 0 0 1-8.134 10.492L12.61 63.716a9.387 9.387 0 0 1-10.492-8.134.96.96 0 0 1 .832-1.072l4.486-.568a2.303 2.303 0 0 0 1.996-2.574l-3.85-30.416z" fill="#FFB100"/><path d="M9.024 21.395l37.65-4.766 4.756 37.569-37.65 4.766-4.756-37.57z" fill="#FFBB31"/><path d="M9.366 38.509a4.188 4.188 0 1 0-1.051-8.31 4.188 4.188 0 0 0 1.051 8.31zM50.607 33.289a4.188 4.188 0 1 0-1.052-8.31 4.188 4.188 0 0 0 1.052 8.31z" fill="#FFBB31"/><path d="M12.017 59.868c-.08-.631.367-1.208.998-1.287l39.059-4.944a1.152 1.152 0 0 1 1.287.997l.49 3.87a1.152 1.152 0 0 1-.998 1.288l-39.059 4.944a1.152 1.152 0 0 1-1.287-.998l-.49-3.87z" fill="#E27800"/><path d="M6.83 30.681a4.188 4.188 0 0 1 5.466 1.298 4.668 4.668 0 0 0 1.201-3.758l-.736-5.818-6.868.87.937 7.408zM46.15 27.699a4.188 4.188 0 0 1 4.962-2.627l-.937-7.405-6.868.87.736 5.817A4.668 4.668 0 0 0 46.15 27.7z" fill="#FFB100"/><path d="M4.2 19.893c-.08-.63.367-1.207.998-1.287l44.488-5.63a1.152 1.152 0 0 1 1.287.997l.399 3.152a1.152 1.152 0 0 1-.998 1.287L5.886 24.044a1.152 1.152 0 0 1-1.287-.998L4.2 19.893z" fill="#E27800"/><path d="M29.465 19.993A9.295 9.295 0 1 0 19.837 6.92L17.85 5.223c-.546-.467-1.389-.324-1.64.35a8.073 8.073 0 0 0-.439 3.836 8.103 8.103 0 0 0 4.69 6.365 9.296 9.296 0 0 0 9.003 4.219z" fill="#FFB100"/><path d="M30.57 56.999a.83.83 0 0 1 .72-.732l2.51-.317c.38-.049.745.17.88.529l2.521 6.66a.83.83 0 0 1-.671 1.116l-5.815.736a.83.83 0 0 1-.928-.913l.782-7.079zM29.76 27.23a4.876 4.876 0 1 1 9.674-1.224l.372 2.942a4.876 4.876 0 1 1-9.674 1.224l-.373-2.941zM18.373 28.672a4.876 4.876 0 0 1 9.674-1.225l.372 2.943a4.876 4.876 0 1 1-9.674 1.225l-.372-2.943z" fill="#FFF1A2"/><path d="M31.815 27.059a1.714 1.714 0 0 0 1.41-2.25c1.12-.02 2.099.807 2.243 1.944l.335 2.648a2.224 2.224 0 0 1-4.412.558l-.335-2.647a2.247 2.247 0 0 1-.018-.333c.242.083.506.114.777.08zM23.095 28.163a1.715 1.715 0 0 0 1.409-2.25c1.12-.02 2.1.807 2.243 1.944l.336 2.648a2.224 2.224 0 0 1-4.412.558l-.335-2.647a2.247 2.247 0 0 1-.018-.334c.242.084.506.115.777.08z" fill="#E27800"/><path d="M30.352 35.25c-3.66-4.821-9.34-4.313-12.777-3.813l2.652 6.75c6.193-2.394 12.833.63 10.125-2.937z" fill="#FFBB31"/><path d="M31.081 35.572c1.876-3.64 7.541-5.514 10.14-5.996l-.609 5.51c-5.956-1.176-11.406 4.127-9.53.486z" fill="#FFBB31"/><path d="M20.058 39.231c-.29-1.411.967-2.677 2.393-2.47 2.23.325 5.266.635 7.556.363 2.225-.264 4.91-1.25 6.897-2.095 1.345-.572 2.913.353 2.977 1.813l.074 1.684c.23 5.247-1.407 11.17-6.284 13.119a7.773 7.773 0 0 1-3.456.565c-5.453-.337-8.726-6.004-9.824-11.356l-.333-1.623z" fill="#E27800"/><path d="M29.271 30.245c.1-.013 1.152 1.268 2.229 2.614 1.072 1.34.253 3.326-1.45 3.541-1.702.216-2.99-1.503-2.286-3.068.707-1.572 1.408-3.075 1.507-3.087z" fill="#FFA403"/><path d="M37.685 48.277c-.974 1.486-2.292 2.68-4.014 3.368a7.775 7.775 0 0 1-3.456.565c-2.037-.126-3.773-1.007-5.205-2.342a7.817 7.817 0 0 1 6.9-4.139c2.287 0 4.345.982 5.775 2.548z" fill="#EE8917"/></g><defs><clipPath id="clip0"><path fill="#fff" d="M0 0h135v124H0z"/></clipPath></defs></svg>