<svg viewBox="0 0 135 124" version="1.1" xmlns="http://www.w3.org/2000/svg"><g stroke="none" stroke-width="1" fill="none" fill-rule="evenodd"><path d="M28 11h79c9.389 0 17 7.611 17 17v79c0 9.389-7.611 17-17 17H28c-9.389 0-17-7.611-17-17V28c0-9.389 7.611-17 17-17z" fill="#A5EBFF"/><path d="M46.64 13.852c.382.414.655.92.794 1.472l1.272 5.032 5.075-.686c1.849-.25 3.527 1.072 3.75 2.955a3.517 3.517 0 0 1-.212 1.678l-1.88 4.87 4.464 2.482c1.627.904 2.21 2.99 1.304 4.66-.273.504-.664.93-1.138 1.243l-4.314 2.849 2.15 4.703c.782 1.712.048 3.765-1.641 4.585a3.337 3.337 0 0 1-1.629.332l-5.101-.262-.987 5.128c-.36 1.868-2.131 3.103-3.958 2.76a3.295 3.295 0 0 1-1.497-.705l-3.94-3.273-3.745 3.594c-1.365 1.31-3.498 1.255-4.764-.12a3.405 3.405 0 0 1-.794-1.473l-1.273-5.033-5.074.687c-1.849.25-3.527-1.072-3.75-2.955a3.517 3.517 0 0 1 .212-1.678l1.88-4.872-4.464-2.48c-1.627-.904-2.21-2.99-1.304-4.66.273-.504.664-.93 1.138-1.243l4.314-2.85-2.15-4.702c-.782-1.712-.047-3.765 1.642-4.585a3.337 3.337 0 0 1 1.628-.332l5.1.26.988-5.126c.36-1.868 2.131-3.103 3.958-2.76.55.104 1.065.346 1.497.705l3.94 3.272 3.745-3.593c1.365-1.31 3.498-1.255 4.764.12z" fill="#FFB100" fill-rule="nonzero"/><ellipse fill="#FFD900" transform="rotate(16 38.984 36.118)" cx="38.984" cy="36.118" rx="14.5" ry="15"/><g transform="translate(42 8)"><path d="M57.685 6.294L82 24.964V48H0L54.315 6.294a2.767 2.767 0 0 1 3.37 0z" fill="#8DE10F"/><path d="M82 47v52c0 9.389-7.611 17-17 17H3V47.922c0-.509.413-.922.922-.922H82z" fill="#8DE10F"/><rect fill="#65C100" x="18" y="45" width="21" height="4" rx="2"/><path d="M54.944 1.417l-1.422 1.885a2.774 2.774 0 0 0 .386 3.756l.159.129 27.932 20.992L82 20c0-.397-.014-.79-.04-1.18l-.05-.583-4.677-3.516a2.766 2.766 0 0 0-.272-.272l-.161-.131L58.81.867a2.767 2.767 0 0 0-3.866.55z" fill="#58A700"/><path d="M82 50H67a2 2 0 1 0 0 4h15v-4zM3 54h26a2 2 0 1 1 0 4H3v-4z" fill="#65C100"/><rect fill="#65C100" transform="matrix(-1 0 0 1 55 0)" x="15" y="32" width="25" height="4" rx="2"/><path fill="#65C100" d="M82 31H71v4h11z"/><path d="M44.922 23H57v20H44.922a.922.922 0 0 1-.922-.922V23.922c0-.509.413-.922.922-.922zM70 23H57.922a.922.922 0 0 0-.922.922v18.156c0 .509.413.922.922.922H70V23z" fill="#7EE2FF"/></g><path d="M85 73c15.464 0 28 12.536 28 28v21.91a16.962 16.962 0 0 1-6 1.09H28c-2.113 0-4.135-.385-6.001-1.09L22 101c0-15.464 12.536-28 28-28h35z" fill="#E5A259"/><path d="M84.668 73a27.88 27.88 0 0 1 12.787 3.084A16.937 16.937 0 0 1 102 87.654c0 9.389-7.611 17-17 17s-17-7.611-17-17c0-6.242 3.365-11.699 8.38-14.655l8.288.002z" fill="#CD7900"/><rect fill="#FFF" x="70" y="78" width="17" height="22" rx="8.5"/><rect fill="#FFF" x="48" y="78" width="17" height="22" rx="8.5"/><rect fill="#4B4B4B" x="54" y="79" width="8" height="12" rx="4"/><rect fill="#4B4B4B" x="73" y="79" width="8" height="12" rx="4"/><path d="M109.41 68.59l-20.018-.388a4 4 0 0 0-2.817 6.914l19.377 18.203a6 6 0 0 0 9.548-1.842l3.5-7.521c2.518-5.412.172-11.841-5.24-14.36a10.808 10.808 0 0 0-4.35-1.006zM25.59 68.59l20.018-.388a4 4 0 0 1 2.817 6.914L29.048 93.32a6 6 0 0 1-9.548-1.842L16 83.956c-2.518-5.412-.172-11.841 5.24-14.36a10.808 10.808 0 0 1 4.35-1.006z" fill="#CD7900"/><path d="M52.917 115A6.002 6.002 0 0 1 41 114c0-1.537.578-2.938 1.528-4a6 6 0 1 1 9.67-7h30.605a6 6 0 1 1 9.669 7 6 6 0 1 1-10.388 5H52.916z" fill="#FFF"/><rect fill="#E5A259" x="51" y="93" width="33" height="17" rx="8.5"/><rect fill="#4B4B4B" x="60" y="89" width="14.667" height="11" rx="5.5"/><path d="M64 7.056h16a2 2 0 0 1 2 2v13.172a2 2 0 0 1-.81 1.607l-16 11.856A2 2 0 0 1 62 34.085V9.055a2 2 0 0 1 2-2z" fill="#DE9544"/><rect fill="#CD7900" x="66" y="12.056" width="10" height="6" rx="1"/><rect fill="#CD7900" x="61" y="20.056" width="9" height="6" rx="1"/><path d="M101.055 9.423l1.424 1.884a2.767 2.767 0 0 1-.546 3.88L40.815 61.121a2.767 2.767 0 0 1-3.87-.544l-1.424-1.884a2.767 2.767 0 0 1 .546-3.88L97.185 8.879a2.767 2.767 0 0 1 3.87.544z" fill="#58A700"/><path fill="#A5EBFF" d="M97.69 31L112 45.308V51H99.308L87 38.69V31z"/><path d="M86.922 31H99v20H86.922a.922.922 0 0 1-.922-.922V31.922c0-.509.413-.922.922-.922zM112 31H99.922a.922.922 0 0 0-.922.922v18.156c0 .509.413.922.922.922H112V31z" stroke="#FFF" stroke-width="2.306" stroke-linejoin="round"/></g></svg>