<svg viewBox="0 0 135 124" fill="none" xmlns="http://www.w3.org/2000/svg"><path d="M28 11h79c9.389 0 17 7.611 17 17v79c0 9.389-7.611 17-17 17H28c-9.389 0-17-7.611-17-17V28c0-9.389 7.611-17 17-17z" fill="#8F6ACD"/><path d="M124 68.558V107c0 9.389-7.611 17-17 17H28c-9.388 0-17-7.611-17-17V68.558h113z" fill="#704EA1"/><path d="M109.243 66.167c6.71 0 12.149-5.44 12.149-12.15 0-6.709-5.439-12.148-12.149-12.148-6.709 0-12.149 5.44-12.149 12.149 0 6.71 5.44 12.149 12.149 12.149z" fill="#CE82FF"/><path d="M102.252 103.184c0 19.123-15.503 15.732-34.626 15.732-19.123 0-34.626 3.391-34.626-15.732 0-19.124 15.503-34.626 34.626-34.626 19.123 0 34.626 15.502 34.626 34.626z" fill="#CC348D"/><path fill-rule="evenodd" clip-rule="evenodd" d="M50.726 83.463a1.41 1.41 0 0 1 1.995 0l2.85 2.85 2.85-2.85a1.41 1.41 0 0 1 1.995 1.995l-3.848 3.847a1.41 1.41 0 0 1-1.995 0l-3.847-3.848a1.41 1.41 0 0 1 0-1.994zM62.525 83.463a1.41 1.41 0 0 1 1.995 0l2.85 2.85 2.85-2.85a1.41 1.41 0 0 1 1.995 1.995l-3.848 3.847a1.41 1.41 0 0 1-1.995 0l-3.847-3.848a1.41 1.41 0 0 1 0-1.994zM74.836 83.463a1.41 1.41 0 0 1 1.995 0l2.85 2.85 2.85-2.85a1.41 1.41 0 0 1 1.995 1.995l-3.847 3.847a1.41 1.41 0 0 1-1.995 0l-3.848-3.848a1.41 1.41 0 0 1 0-1.994z" fill="#A71E6E"/><path d="M35.13 112a34.396 34.396 0 0 1-1.426-5h67.844a34.484 34.484 0 0 1-1.425 5H35.129z" fill="#00448E"/><path fill-rule="evenodd" clip-rule="evenodd" d="M107.782 58.654h2.982a1 1 0 0 1 1 1v9.717h-4.982v-9.717a1 1 0 0 1 1-1z" fill="#704EA1"/><path fill-rule="evenodd" clip-rule="evenodd" d="M110.101 49.013l2.092 3.488a3.468 3.468 0 0 1-.721 4.419 3.43 3.43 0 0 1-4.457 0 3.466 3.466 0 0 1-.721-4.419l2.092-3.488a1 1 0 0 1 1.715 0z" fill="#FFD900"/><path d="M67.89 124H28.384a16.954 16.954 0 0 1-12.593-5.58V77.692a2 2 0 0 1 2.537-1.926l49.56 13.826V124z" fill="#78C801"/><path d="M119.986 118.411A16.955 16.955 0 0 1 107.385 124H67.889V89.592l49.56-13.826a2.001 2.001 0 0 1 2.537 1.926v40.719z" fill="#ADE756"/><path d="M67.5 89.214a1 1 0 0 1 1 1V124h-2V90.214a1 1 0 0 1 1-1z" fill="#58A700"/><path fill-rule="evenodd" clip-rule="evenodd" d="M95.912 92.387c5.43-1.434 9.833 1.957 9.833 7.574 0 5.618-4.403 11.334-9.833 12.768-4.603 1.216-8.468-1.035-9.538-5.171-.89 1.974-2.626 3.637-4.64 4.256l-.234.066v-11.409c2.163-.57 4.034.222 4.938 1.858 1.153-4.595 4.958-8.75 9.474-9.942z" fill="#78C801"/><path d="M27.073 85.782a1 1 0 0 0-.535 1.927l30.095 8.363a1 1 0 0 0 .536-1.927l-30.096-8.363zM27.073 94.145a1 1 0 1 0-.535 1.927l30.095 8.362a1 1 0 0 0 .536-1.927l-30.096-8.362zM25.842 103.203a1 1 0 0 1 1.231-.696l30.096 8.363a1 1 0 1 1-.536 1.927l-30.095-8.363a1 1 0 0 1-.696-1.231zM27.073 110.87a1 1 0 1 0-.535 1.927l30.095 8.362a1 1 0 0 0 .536-1.927l-30.096-8.362z" fill="#58A700"/><path d="M6.051 111.162a8.983 8.983 0 1 0 17.955-.627 8.983 8.983 0 0 0-17.955.627zM109.151 111.162a8.982 8.982 0 1 0 17.954-.627 8.98 8.98 0 0 0-9.29-8.663 8.982 8.982 0 0 0-8.664 9.29z" fill="#C6775C"/><path d="M92.88 25.786c1.436 15.153-9.684 28.6-24.837 30.036s-28.6-9.685-30.036-24.838S47.692 2.384 62.845.948c15.153-1.435 28.6 9.685 30.036 24.838z" fill="#0084C2"/><path d="M56.156 25.055l1.644 2.117L81.645 6.089a27.676 27.676 0 0 0-2.323-1.517L56.156 25.055z" fill="#006AAD"/><path d="M47.56 32.66l8.438-7.46 8.439-7.46 19.378 11.486 2.512 26.52-36.255 3.434-2.512-26.52z" fill="#C6775C"/><path d="M41.13 65.004c-.822-8.674 5.543-16.372 14.217-17.194L79.01 45.57c8.674-.822 16.372 5.544 17.194 14.218.821 8.673-5.544 16.371-14.218 17.193l-23.663 2.242c-8.674.821-16.372-5.544-17.194-14.218z" fill="#3D3D3D"/><path d="M71.817 45.541a4.726 4.726 0 1 1-9.41.892 4.726 4.726 0 0 1 9.41-.892z" fill="#C6775C"/><path d="M51.797 35.565a6.378 6.378 0 1 1 12.7-1.203l.408 4.319a6.378 6.378 0 1 1-12.698 1.203l-.41-4.319z" fill="#fff"/><path d="M58.785 28.616a6.38 6.38 0 0 1 5.71 5.746l.355 3.745a2.229 2.229 0 0 1-4.163-.718c-.41-2.595-1.942-4.018-2.824-4.598a2.189 2.189 0 0 1-.193-.12l-.023-.014.003-.001a2.23 2.23 0 0 1 1.135-4.04z" fill="#3D3D3D"/><path d="M80.198 32.875A6.378 6.378 0 0 0 67.5 34.078l.409 4.318a6.378 6.378 0 0 0 12.698-1.203l-.409-4.318z" fill="#fff"/><path d="M74.488 27.129a6.38 6.38 0 0 1 5.71 5.745l.356 3.745a2.228 2.228 0 0 1-4.163-.717c-.41-2.595-1.943-4.018-2.824-4.599a2.19 2.19 0 0 1-.194-.12l-.023-.014h.003a2.23 2.23 0 0 1 1.135-4.04z" fill="#3D3D3D"/><path d="M60.24 63.178l-2.679-.975a7.721 7.721 0 0 1-4.657-9.776l.042-.12.405-1.214a1.226 1.226 0 0 1 1.925-.573c1.033.82 2.532 1.64 4.496 2.457 2.656 1.105 6.003 1.576 10.04 1.413a1.226 1.226 0 0 1 1.208 1.626l-.883 2.547a7.721 7.721 0 0 1-9.896 4.615z" fill="#B23232"/><path d="M71.078 55.772l-12.916.226a1.226 1.226 0 0 1-1.247-1.204l-.056-3.221c.819.468 1.79.936 2.913 1.404 2.656 1.105 6.003 1.576 10.04 1.412a1.226 1.226 0 0 1 1.266 1.383z" fill="#fff"/><path d="M68.95 60.7a7.73 7.73 0 0 1-7.78 2.752 8.556 8.556 0 0 1 6.248-2.862 8.632 8.632 0 0 1 1.532.11z" fill="#F14C4C"/></svg>