<svg viewBox="0 0 135 124" fill="none" xmlns="http://www.w3.org/2000/svg"><g clip-path="url(#clip0)"><path d="M124 27.79v79.3c.001.642-.04 1.283-.12 1.92a17 17 0 0 1-16.88 15H28a16.932 16.932 0 0 1-12.67-5.67c-.418-.47-.812-.96-1.18-1.47A16.999 16.999 0 0 1 11 107V28a17 17 0 0 1 17-17h79a16.999 16.999 0 0 1 17 16.79z" fill="#FFC800"/><path d="M124 27.79v7.52h-21.85a6.919 6.919 0 1 1 0-13.84h20.54a16.84 16.84 0 0 1 1.31 6.32z" fill="#FFE75E"/><path d="M86.27 41.63h23.06a5.267 5.267 0 0 0 5.27-5.265 5.267 5.267 0 0 0-5.27-5.265H86.27A5.267 5.267 0 0 0 81 36.365a5.267 5.267 0 0 0 5.27 5.265z" fill="#FFE75E"/><path d="M120.8 116.86a17.004 17.004 0 0 1-13.85 7.14h-79a16.931 16.931 0 0 1-12.67-5.67 18.33 18.33 0 0 1-1.18-1.47h106.7z" fill="#FFC800"/><path d="M123.98 101.19v5.9c0 .642-.04 1.284-.12 1.92a16.87 16.87 0 0 1-3 7.85H85.35v-3.53a2.928 2.928 0 0 1 2.2-2.84l36.43-9.3zM11 101.19v5.9c0 .642.04 1.284.12 1.92a16.866 16.866 0 0 0 3 7.85h35.51v-3.53a2.929 2.929 0 0 0-2.2-2.84L11 101.19z" fill="#FFB100"/><path d="M16.62 49h93.84a5.92 5.92 0 0 1 5.92 5.92V117H16.62V49z" fill="#F89700"/><path d="M67.22 70.72h.12a5.91 5.91 0 0 1 5.91 5.91v13.24h-12V76.64a5.908 5.908 0 0 1 5.97-5.92z" fill="#E27800"/><path d="M75.5 117H16.62V10H48.5l27 107z" fill="#FFD900"/><path d="M116.57 61.76H59.04a2.93 2.93 0 0 0-2.93 2.93v.02a2.93 2.93 0 0 0 2.93 2.93h57.53a2.93 2.93 0 0 0 2.93-2.93v-.02a2.93 2.93 0 0 0-2.93-2.93zM116.57 89.97H59.04a2.93 2.93 0 0 0-2.93 2.93v.02a2.93 2.93 0 0 0 2.93 2.93h57.53a2.93 2.93 0 0 0 2.93-2.93v-.02a2.93 2.93 0 0 0-2.93-2.93z" fill="#FFB100"/><path d="M55.56 33.56H16.44a2.94 2.94 0 0 0 0 5.88h39.12a2.94 2.94 0 0 0 0-5.88zM62.56 61.76H16.44a2.94 2.94 0 1 0 0 5.88h46.12a2.94 2.94 0 0 0 0-5.88zM69.56 89.97H16.44a2.94 2.94 0 0 0 0 5.88h53.12a2.94 2.94 0 0 0 0-5.88zM48.68 5H16.32a2.82 2.82 0 0 0-2.82 2.82v.24a2.82 2.82 0 0 0 2.82 2.82h32.36a2.82 2.82 0 0 0 2.82-2.82v-.24A2.82 2.82 0 0 0 48.68 5z" fill="#FFE75E"/><path d="M105.15 70.72h.12a5.91 5.91 0 0 1 5.91 5.91v13.24h-12V76.64a5.908 5.908 0 0 1 5.97-5.92zM86.18 70.72h.12a5.91 5.91 0 0 1 5.91 5.91v13.24h-12V76.64a5.91 5.91 0 0 1 5.97-5.92zM105.07 97.6h.13a6.003 6.003 0 0 1 6 6V117H99.08v-13.41a6.002 6.002 0 0 1 6-6l-.01.01zM86.1 97.6h.13a6 6 0 0 1 6 6V117H80.11v-13.41a6.001 6.001 0 0 1 5.99-5.99z" fill="#E27800"/><path d="M27.68 42.82h.12a5.86 5.86 0 0 1 5.86 5.86V61.8H21.81V48.68a5.86 5.86 0 0 1 5.86-5.86h.01zM46 42.82h.12A5.859 5.859 0 0 1 52 48.68V61.8H40.1V48.68a5.86 5.86 0 0 1 5.9-5.86zM22.39 17.96h-.04c-.85 0-1.54.69-1.54 1.54v2.8c0 .85.69 1.54 1.54 1.54h.04c.85 0 1.54-.69 1.54-1.54v-2.8c0-.85-.69-1.54-1.54-1.54zM30.03 17.96h-.04c-.85 0-1.54.69-1.54 1.54v2.8c0 .85.69 1.54 1.54 1.54h.04c.85 0 1.54-.69 1.54-1.54v-2.8c0-.85-.69-1.54-1.54-1.54zM37.66 17.96h-.04c-.85 0-1.54.69-1.54 1.54v2.8c0 .85.69 1.54 1.54 1.54h.04c.85 0 1.54-.69 1.54-1.54v-2.8c0-.85-.69-1.54-1.54-1.54zM45.3 17.96h-.04c-.85 0-1.54.69-1.54 1.54v2.8c0 .85.69 1.54 1.54 1.54h.04c.85 0 1.54-.69 1.54-1.54v-2.8c0-.85-.69-1.54-1.54-1.54z" fill="#FFB100"/><path d="M27.73 70.72h.12a5.91 5.91 0 0 1 5.91 5.91v13.24h-12V76.64a5.91 5.91 0 0 1 5.97-5.92zM45.65 70.72h.12a5.91 5.91 0 0 1 5.91 5.91v13.24h-12V76.64a5.908 5.908 0 0 1 5.97-5.92zM27.73 97.76h.12a5.91 5.91 0 0 1 5.91 5.91v13.23h-12v-13.23a5.913 5.913 0 0 1 5.97-5.91zM45.65 97.76h.12a5.91 5.91 0 0 1 5.91 5.91v13.23h-12v-13.23a5.914 5.914 0 0 1 3.69-5.477 5.91 5.91 0 0 1 2.28-.433zM62.65 97.76h.12a5.91 5.91 0 0 1 5.91 5.91v13.23h-12v-13.23a5.914 5.914 0 0 1 3.69-5.477 5.91 5.91 0 0 1 2.28-.433z" fill="#F89700"/><path d="M69.39 52.96h-.04c-.85 0-1.54.69-1.54 1.54v2.8c0 .85.69 1.54 1.54 1.54h.04c.85 0 1.54-.69 1.54-1.54v-2.8c0-.85-.69-1.54-1.54-1.54zM81.39 52.96h-.04c-.85 0-1.54.69-1.54 1.54v2.8c0 .85.69 1.54 1.54 1.54h.04c.85 0 1.54-.69 1.54-1.54v-2.8c0-.85-.69-1.54-1.54-1.54zM93.39 52.96h-.04c-.85 0-1.54.69-1.54 1.54v2.8c0 .85.69 1.54 1.54 1.54h.04c.85 0 1.54-.69 1.54-1.54v-2.8c0-.85-.69-1.54-1.54-1.54zM105.39 52.96h-.04c-.851 0-1.54.69-1.54 1.54v2.8c0 .85.689 1.54 1.54 1.54h.04c.851 0 1.54-.69 1.54-1.54v-2.8c0-.85-.689-1.54-1.54-1.54z" fill="#FFC800"/></g><defs><clipPath id="clip0"><path fill="#fff" d="M0 0h135v124H0z"/></clipPath></defs></svg>