<svg viewBox="0 0 135 124" fill="none" xmlns="http://www.w3.org/2000/svg"><rect x="11" y="11" width="113" height="113" rx="17" fill="#E5E5E5"/><path d="M26.157 25.364c6.31-2.246 10.842.789 13.19 3.718.552.69-.154 1.49-1.041 1.245l-2.508-.692c-.073.383-.433.743-.952.794l-3.574.346c.202.377.111.914-.335 1.222l-9.745 6.71c-.74.51-1.673-.163-1.379-1.035 1.12-3.319 3.061-5.247 5.181-6.288l-2.367.23c-.928.09-1.377-.916-.64-1.52 1.886-1.553 3.754-2.395 5.515-2.749l-1.166-.322c-.91-.25-1.051-1.348-.18-1.659zM69.792 12.166c-6.767.897-9.132 5.907-9.63 9.777-.116.91.935 1.326 1.586.673l1.839-1.845c.27.325.78.492 1.265.292l3.335-1.378c.024.45.393.911.951.987l12.19 1.657c.925.126 1.386-.95.659-1.629-2.768-2.583-5.513-3.468-7.94-3.435l2.21-.913c.865-.358.72-1.516-.252-1.733-2.496-.558-4.594-.459-6.336.049l.855-.859c.667-.67.203-1.767-.732-1.643z" fill="#BEBEBE"/><path d="M74.627 29.973c-1.843-.412-3.314 1.54-2.41 3.198l11.532 21.16a6.857 6.857 0 0 1-2.038 8.87L64.068 75.737l-21.586-1.588c-3.456-.255-6.18-3.063-6.337-6.534L35.09 44.289c-.084-1.85-2.277-2.774-3.66-1.542L12.505 59.61l-9-10.1 23.304-18.568a6.766 6.766 0 0 1 8.798.314l17.354 4.68 10.987-11.489.17-1.395a6.763 6.763 0 0 1 7.824-5.86l29.392 4.89-2.951 13.202-23.755-5.31z" fill="#BEBEBE"/><path d="M17.863 57.306a2.46 2.46 0 0 0 .2-3.473l-8.18-9.181a2.46 2.46 0 0 0-3.473-.2l-4.132 3.681a2.46 2.46 0 0 0-.2 3.473l8.181 9.181a2.46 2.46 0 0 0 3.473.2l4.131-3.681zM92.579 35.877a2.46 2.46 0 0 1-1.864-2.937l2.683-12a2.46 2.46 0 0 1 2.937-1.865l5.4 1.208a2.46 2.46 0 0 1 1.864 2.936l-2.683 12.002a2.46 2.46 0 0 1-2.937 1.863l-5.4-1.207z" fill="#D4D4D4"/><path d="M12.504 59.61a1.23 1.23 0 0 0 .1-1.736L5.24 49.61a1.23 1.23 0 1 0-1.836 1.636l7.362 8.264a1.23 1.23 0 0 0 1.737.1zM98.381 35.285a1.23 1.23 0 0 1-.932-1.469l2.415-10.801a1.23 1.23 0 0 1 2.4.537l-2.414 10.8a1.23 1.23 0 0 1-1.469.933z" fill="#ABABAB"/><path d="M67.423 16.258c-1.865-6.796-8.983-10.715-15.9-8.752l-11.926 3.385c-6.916 1.963-11.011 9.064-9.146 15.86l1.164 4.244c1.324 4.825 5.615 8.237 10.688 8.498 5.073.262 9.364 3.673 10.688 8.498l7.355 26.805c.444 1.618 2.14 2.55 3.786 2.083 1.647-.467 2.622-2.157 2.178-3.776L58.954 46.3c-1.324-4.825.61-10.003 4.817-12.899 4.207-2.895 6.14-8.073 4.817-12.898l-1.165-4.244z" fill="#D4D4D4"/><path d="M36.695 21.513c-.683-2.447.543-4.928 2.738-5.54l14.762-4.12c2.195-.613 4.528.875 5.211 3.322l1.832 6.565c.496 1.778-.008 3.65-1.281 4.754l-6.405 5.558a3.736 3.736 0 0 1-3.11.867l-8.357-1.438c-1.661-.286-3.062-1.625-3.558-3.403l-1.832-6.565z" fill="#ABABAB"/><path d="M55.235 34.343c-5.968-6.767-15.24-6.287-19.131-5.202l1.32 4.732L52.521 36.8l2.714-2.457z" fill="#D4D4D4"/><path d="M50.188 35.75c1.311-8.797 8.821-13 12.412-14.003l1.32 4.732-10.38 10.037-3.352-.765zM29.274 10.037c5.373-5.869 11.636-4.39 15.583-1.963.93.571.612 1.9-.433 2.039l-2.956.39c.123.506-.063 1.125-.575 1.443l-3.521 2.19c.404.362.588 1.065.285 1.662l-6.62 13.031c-.503.99-1.817.626-1.963-.587-.558-4.617.455-7.937 2.112-10.26l-2.334 1.452c-.914.568-1.898-.442-1.45-1.546 1.151-2.833 2.65-4.787 4.291-6.09l-1.375.182c-1.072.142-1.786-1.132-1.044-1.943z" fill="#D4D4D4"/><path d="M59.813 1.515c-7.635-2.24-12.228 2.268-14.348 6.39-.499.969.46 1.942 1.426 1.519l2.732-1.196c.156.495.636.93 1.239.936l4.146.05c-.159.519.048 1.215.617 1.57l12.41 7.72c.943.586 1.879-.405 1.376-1.519-1.913-4.239-4.499-6.554-7.119-7.683l2.748.033c1.076.013 1.395-1.36.44-2.073-2.452-1.828-4.746-2.723-6.825-2.989l1.27-.556c.992-.433.943-1.893-.112-2.202z" fill="#D4D4D4"/><path d="M42.5 55.996c.412-.238.834.162.712.622l-1.459 5.52c-.121.46-.686.6-.926.19a4.607 4.607 0 0 1-.454-3.508 4.607 4.607 0 0 1 2.128-2.824z" fill="#ABABAB"/><path d="M73.418 48.006c-.475.01-.628.57-.287.9l4.108 3.968c.341.33.896.157.89-.318A4.607 4.607 0 0 0 76.7 49.32a4.607 4.607 0 0 0-3.282-1.315z" fill="#8C5334"/><path d="M48.684 52.994c.412-.238.834.162.712.621l-1.459 5.521c-.121.46-.686.599-.926.188a4.607 4.607 0 0 1-.454-3.506 4.607 4.607 0 0 1 2.127-2.824zM65.486 47.028c-.475.01-.63.57-.287.9l4.107 3.968c.341.33.897.157.89-.318a4.607 4.607 0 0 0-1.428-3.235 4.607 4.607 0 0 0-3.282-1.315zM42.39 44.61c.43-.199.814.239.65.685l-1.965 5.361c-.164.447-.739.533-.94.102a4.607 4.607 0 0 1-.126-3.533 4.606 4.606 0 0 1 2.38-2.615zM66.696 37.188c-.472.054-.573.626-.203.923l4.458 3.57c.371.296.908.073.857-.4a4.607 4.607 0 0 0-1.722-3.089 4.607 4.607 0 0 0-3.39-1.004zM23.853 37.09c.475-.005.646.55.315.89l-3.985 4.092c-.33.34-.891.184-.898-.291a4.607 4.607 0 0 1 1.327-3.277 4.606 4.606 0 0 1 3.241-1.414zM76.755 21.71c-.417.226-.296.795.159.931l5.47 1.637c.456.136.87-.272.645-.691a4.607 4.607 0 0 0-2.754-2.218 4.606 4.606 0 0 0-3.52.34zM22.76 44.387c.476-.005.647.55.315.89l-3.984 4.092c-.331.34-.891.184-.899-.29A4.607 4.607 0 0 1 19.52 45.8a4.607 4.607 0 0 1 3.24-1.414zM81.258 27.554c-.417.227-.296.796.159.932l5.47 1.637c.456.136.87-.273.645-.692a4.607 4.607 0 0 0-2.754-2.218 4.607 4.607 0 0 0-3.52.341zM50.48 63.279c.393-.268.843.1.756.567l-1.049 5.613c-.087.467-.64.648-.91.257a4.607 4.607 0 0 1-.71-3.464 4.607 4.607 0 0 1 1.913-2.973z" fill="#ABABAB"/><path d="M68.762 58.815c-.474-.026-.67.522-.353.877l3.804 4.259c.317.354.883.222.91-.252a4.607 4.607 0 0 0-1.184-3.331 4.607 4.607 0 0 0-3.177-1.553z" fill="#8C5334"/><path d="M102.494 49.067c-1.822-6.891-7.883-12.16-15.388-12.632-9.381-.59-17.464 6.536-18.055 15.917-.026.41-.037.817-.033 1.22a19.051 19.051 0 0 0-7.211 13.78c-.663 10.526 7.334 19.598 17.862 20.26 8.563.539 16.163-4.653 19.057-12.275 2.099 6.436 7.95 11.26 15.118 11.712 9.38.59 17.464-6.536 18.054-15.917.59-9.381-6.536-17.464-15.917-18.055a17.003 17.003 0 0 0-5.415.526c-4.972.52-7.346-2.556-8.072-4.536z" fill="#ABABAB"/><path d="M65.094 87.069c1.066-16.946 15.669-29.82 32.615-28.753l1.002.063c16.946 1.066 29.819 15.668 28.753 32.615l-1.063 16.89a6.304 6.304 0 0 1-6.687 5.895l-49.788-3.133a6.304 6.304 0 0 1-5.895-6.687l1.063-16.89z" fill="#D4D4D4"/><path d="M70.164 79.85a5.208 5.208 0 1 1-10.395-.655 5.208 5.208 0 0 1 10.395.654zM133.463 83.832a5.208 5.208 0 1 1-10.396-.654 5.208 5.208 0 0 1 10.396.654z" fill="#D4D4D4"/><path d="M83.19 73.368a6.056 6.056 0 0 1 6.425-5.664l.643.04a6.056 6.056 0 0 1 5.663 6.425l-.26 4.15a6.056 6.056 0 0 1-6.425 5.664l-.643-.04a6.056 6.056 0 0 1-5.663-6.424l.26-4.151z" fill="#fff"/><path d="M88.423 74.255a2.825 2.825 0 1 1 5.64.355l-.231 3.665a2.825 2.825 0 0 1-5.64-.355l.231-3.665z" fill="#ABABAB"/><path d="M111.225 75.132a6.055 6.055 0 0 0-5.663-6.425l-.643-.04a6.055 6.055 0 0 0-6.424 5.664l-.261 4.15a6.055 6.055 0 0 0 5.663 6.425l.643.04a6.056 6.056 0 0 0 6.424-5.663l.261-4.151z" fill="#fff"/><path d="M105.923 75.356a2.825 2.825 0 0 0-5.639-.355l-.231 3.666a2.825 2.825 0 1 0 5.64.355l.23-3.666z" fill="#ABABAB"/><path d="M112.821 75.018L98.439 71.78l2.073-6.987 13.576 3.071-1.267 7.155z" fill="#DA8E74"/><path d="M119.375 65.313c4.214 4.422 6.765 12.618 7.764 18.864-.228.044-.465.06-.707.045l-.959-.06a7.454 7.454 0 0 1-6.971-7.907l.873-10.942zM66.268 80.346c1.774-6.07 5.497-13.237 10.232-17.096l-.67 10.32a7.453 7.453 0 0 1-7.907 6.97l-.959-.06a2.802 2.802 0 0 1-.696-.134z" fill="#ABABAB"/><path d="M80.43 63.256L115.3 65.45l-.747 11.868-34.868-2.194.747-11.868z" fill="#D4D4D4"/><path fill-rule="evenodd" clip-rule="evenodd" d="M97.09 64.793a3.26 3.26 0 0 1-2.872 3.608l-9.426 1.07a3.26 3.26 0 1 1-.736-6.48l9.426-1.07a3.26 3.26 0 0 1 3.608 2.872zM112.934 76.556a3.26 3.26 0 0 1-3.759 2.67l-9.354-1.585a3.26 3.26 0 0 1 1.089-6.43l9.354 1.585a3.26 3.26 0 0 1 2.67 3.76z" fill="#ABABAB"/><path fill-rule="evenodd" clip-rule="evenodd" d="M83.922 93.395a6.056 6.056 0 0 0-11.552 3.638c1.407 4.616 6.62 9.658 15.41 10.211a6.055 6.055 0 1 0 .761-12.088c-3.721-.234-4.602-1.837-4.634-1.82-.004.002.002.02.015.06z" fill="#fff"/><path d="M91.419 89.655a8.343 8.343 0 0 1 11.299-3.398l6.473 3.48a8.342 8.342 0 0 1 3.398 11.299 8.342 8.342 0 0 1-11.298 3.398l-6.474-3.48a8.343 8.343 0 0 1-3.398-11.299z" fill="#ABABAB"/><path d="M76.31 90.498a8.343 8.343 0 0 1 8.872-7.78l7.334.482a8.342 8.342 0 0 1 7.778 8.871 8.342 8.342 0 0 1-8.87 7.78l-7.335-.482a8.343 8.343 0 0 1-7.779-8.871z" fill="#ABABAB"/><path d="M100.493 84.514a3.922 3.922 0 1 1-7.83-.492 3.922 3.922 0 0 1 7.83.492z" fill="#D4D4D4"/><path fill-rule="evenodd" clip-rule="evenodd" d="M24.82 75.98L5.602 98.21a1.684 1.684 0 0 0 .173 2.375l19.171 16.575a1.684 1.684 0 0 0 2.375-.172l19.22-22.23a1.683 1.683 0 0 0-.173-2.375L27.195 75.808a1.683 1.683 0 0 0-2.374.172z" fill="#D4D4D4"/><path fill-rule="evenodd" clip-rule="evenodd" d="M25.082 74.52a.87.87 0 0 0 .09 1.227l21.643 18.712a.87.87 0 1 0 1.138-1.316L26.31 74.431a.87.87 0 0 0-1.227.089z" fill="#ADADAD"/><path fill-rule="evenodd" clip-rule="evenodd" d="M24.273 73.82a1.94 1.94 0 0 0 .198 2.737l21.643 18.712a1.94 1.94 0 0 0 2.54-2.936L27.01 73.621a1.94 1.94 0 0 0-2.738.199z" fill="#ABABAB"/><path fill-rule="evenodd" clip-rule="evenodd" d="M4.166 98.77a.87.87 0 0 0 .09 1.226l21.643 18.713a.87.87 0 0 0 1.138-1.317L6 98.769c-.363-.314-1.52-.363-1.834 0z" fill="#ADADAD"/><path fill-rule="evenodd" clip-rule="evenodd" d="M6.7 97.96a2.06 2.06 0 0 0-.824-.41 3.392 3.392 0 0 0-.794-.106c-.26-.004-.546.02-.82.092-.249.065-.623.206-.906.533a1.94 1.94 0 0 0 .2 2.737l21.642 18.713a1.94 1.94 0 0 0 2.545-2.932L6.7 97.959z" fill="#ABABAB"/><path fill-rule="evenodd" clip-rule="evenodd" d="M15.9 85.066l-4.94 5.715a.842.842 0 0 0 .086 1.187l.018.015 22.128 18.063a.842.842 0 0 0 1.169-.102l4.94-5.714a.841.841 0 0 0-.086-1.187l-.018-.016-22.128-18.062a.842.842 0 0 0-1.17.101z" fill="#BEBEBE"/><path d="M33.783 93.382c-1.971.685-4.128-.367-4.817-2.35-.688-1.981.352-4.144 2.324-4.829 1.971-.684 4.128.367 4.816 2.35.69 1.982-.351 4.145-2.323 4.83z" fill="#fff"/><path fill-rule="evenodd" clip-rule="evenodd" d="M10.023 89.139a2.31 2.31 0 0 0 2.235 2.382l20.173.648a2.31 2.31 0 1 0 .148-4.618l-20.173-.647a2.31 2.31 0 0 0-2.383 2.235z" fill="#ABABAB"/><path fill-rule="evenodd" clip-rule="evenodd" d="M56.499 88.215a2.948 2.948 0 0 1-3.45 2.34c-1.604-.304-3.519-2.89-3.35-3.788.17-.898 2.838-2.292 4.442-1.99a2.948 2.948 0 0 1 2.358 3.438zM52.884 72.625c-1.694-2.159-5.3-2.156-8.052.005-2.752 2.16-4.451 8.196-3.498 9.41.954 1.215 6.884.567 9.636-1.594 2.752-2.161 3.61-5.663 1.914-7.821zM28.04 55.356c-2.342-.254-4.502 1.959-4.827 4.943-.325 2.985 2.358 7.647 3.675 7.79 1.317.144 4.477-3.883 4.801-6.867.325-2.985-1.31-5.611-3.65-5.866z" fill="#fff"/></svg>