<svg xmlns="http://www.w3.org/2000/svg" viewBox="0 0 135 124"><defs><style>.cls-2{fill:#ffd900}.cls-3{fill:#ffb100}.cls-4{fill:#f89700}.cls-5{fill:#e27800}.cls-6{fill:#ffe865}</style></defs><g id="GILDED"><path d="M124 28v79a17 17 0 0 1-17 17H28a17 17 0 0 1-17-17V28a17 17 0 0 1 17-17h79a17 17 0 0 1 17 17z" fill="#ffc800"/><path class="cls-2" d="M121.57 19.24L19.24 121.57A16.9 16.9 0 0 0 28 124h47.68L124 75.68V28a17 17 0 0 0-2.43-8.76zM42.68 11L23 30.73a20.81 20.81 0 0 0 29.38 29.43L101.55 11z"/><path class="cls-3" d="M54.46 44.88l-4.2-.19.26-5.69a2.44 2.44 0 0 1 1.67-2.21l79.65-26.39.52 2.28-77.7 27.72z"/><circle class="cls-3" cx="132.08" cy="11.44" r="2.97"/><rect class="cls-4" x="40.4" y="46.93" width="87.57" height="58.26" rx="5.32" transform="rotate(6.18 84.18 76.086)"/><rect class="cls-3" x="24.39" y="45.19" width="87.57" height="58.26" rx="5.32" transform="rotate(6.18 68.202 74.347)"/><rect class="cls-4" x="28.59" y="48.26" width="51.92" height="49.18" rx="2.65" transform="rotate(6.18 54.559 72.854)"/><circle class="cls-2" cx="97.2" cy="64.97" r="12.17"/><path class="cls-5" d="M97.86 58.92l-4.43-.48-.21 1.94a6 6 0 0 0-.89 8.22l-.21 1.94 4.43.48a6.09 6.09 0 0 0 1.31-12.1z"/><circle class="cls-3" cx="92.77" cy="64.49" r="6.08"/><rect class="cls-2" x="81.89" y="86.28" width="24.33" height="15.54" rx="2.22" transform="rotate(6.18 94.067 94.037)"/><path class="cls-5" d="M88.81 89.88l-2.55-.28-.12 1.12a3.48 3.48 0 0 0-.52 4.74l-.12 1.12 2.56.28a3.51 3.51 0 1 0 .75-7z"/><circle class="cls-4" cx="85.88" cy="93.09" r="3.51"/><path class="cls-5" d="M99.45 91l-2.55-.28-.13 1.12a3.51 3.51 0 0 0-1.19 2.27 3.48 3.48 0 0 0 .68 2.47l-.12 1.12 2.56.3a3.51 3.51 0 1 0 .75-7z"/><circle class="cls-4" cx="96.52" cy="94.24" r="3.51"/><path class="cls-5" d="M52.36 94.5h-.15a1.42 1.42 0 0 1-1.27-1.57l4.38-40.45a1.43 1.43 0 1 1 2.84.31l-4.38 40.44a1.43 1.43 0 0 1-1.42 1.27zM57.21 94.45h-.15a1.43 1.43 0 0 1-1.27-1.57l4.26-39.31a1.43 1.43 0 1 1 2.84.31l-4.26 39.3a1.43 1.43 0 0 1-1.42 1.27zM62.21 93.13h-.16a1.43 1.43 0 0 1-1.27-1.57l3.86-35.63a1.44 1.44 0 0 1 1.57-1.27 1.42 1.42 0 0 1 1.27 1.57l-3.86 35.62a1.42 1.42 0 0 1-1.41 1.28zM67.39 90.05h-.16A1.43 1.43 0 0 1 66 88.47L69 60a1.43 1.43 0 0 1 2.85.31l-3.04 28.47a1.43 1.43 0 0 1-1.42 1.27zM73 82.83h-.16a1.44 1.44 0 0 1-1.27-1.58L73 68.29a1.43 1.43 0 0 1 2.84.31l-1.4 13A1.44 1.44 0 0 1 73 82.83zM47.63 93.41h-.15a1.42 1.42 0 0 1-1.27-1.57l4.25-39.31a1.43 1.43 0 0 1 2.85.31l-4.26 39.3a1.43 1.43 0 0 1-1.42 1.27zM43 91.05h-.16a1.43 1.43 0 0 1-1.26-1.58l3.85-35.63a1.43 1.43 0 0 1 2.85.31l-3.82 35.63A1.43 1.43 0 0 1 43 91.05zM38.64 86.94h-.16a1.44 1.44 0 0 1-1.27-1.57l3.08-28.45a1.43 1.43 0 0 1 2.85.31l-3.08 28.43a1.44 1.44 0 0 1-1.42 1.28zM34.68 78.68h-.15a1.44 1.44 0 0 1-1.27-1.58l1.4-12.94a1.43 1.43 0 0 1 1.58-1.27 1.42 1.42 0 0 1 1.26 1.57l-1.4 13a1.44 1.44 0 0 1-1.42 1.22zM96.52 95a.79.79 0 0 1-.67-.38.77.77 0 0 1 .27-1.06l3-1.79a.77.77 0 0 1 .79 1.33l-3 1.79a.79.79 0 0 1-.39.11zM88.16 96.74a.78.78 0 0 1-.61-.29l-2.28-2.88a.78.78 0 0 1 .13-1.09.79.79 0 0 1 1.09.13l2.27 2.87a.78.78 0 0 1-.12 1.09.83.83 0 0 1-.48.17zM92.77 65.26a.79.79 0 0 1-.5-.18.77.77 0 0 1-.09-1.08l3.94-4.64a.77.77 0 0 1 1.18 1L93.36 65a.76.76 0 0 1-.59.26z"/><circle class="cls-6" cx="24.43" cy="24.27" r="24.2"/><path class="cls-6" d="M40.83 48.75l-1-13.56-13.12 8.29 10.85 7.18a2.11 2.11 0 0 0 3.27-1.91z"/><rect class="cls-4" x="18.19" y="6.31" width="8.78" height="23.68" rx="2.47" transform="rotate(-11.94 22.558 18.165)"/><circle class="cls-4" cx="26.51" cy="36.77" r="4.99"/><rect x="33.77" y="111.94" width="73.88" height="6.1" rx="3.05" fill="#ff322e"/><rect class="cls-3" x="25.18" y="110.17" width="87.67" height="7.87" rx="3.93"/></g></svg>