<svg viewBox="0 0 135 124" fill="none" xmlns="http://www.w3.org/2000/svg"><g clip-path="url(#clip0)"><path d="M107 11H28c-9.389 0-17 7.611-17 17v79c0 9.389 7.611 17 17 17h79c9.389 0 17-7.611 17-17V28c0-9.389-7.611-17-17-17z" fill="#FFCA00"/><path d="M12.56 114.08L114.08 12.56A16.938 16.938 0 0 0 107 11H65.68L11 65.68V107c.003 2.445.535 4.86 1.56 7.08zm72.12-48.14l-58 58c.43 0 .87.07 1.31.07h48.59l33.08-33.09c6.904-6.904 6.904-18.096 0-25-6.903-6.904-18.096-6.904-25 0l.02.02z" fill="#FFD900"/><path d="M22.677 61.217h.002a7.63 7.63 0 0 1 8.793-6.047l35.414 6.16a7.63 7.63 0 0 1 6.235 8.66h.002L67.1 104.613a2.64 2.64 0 0 0 2.15 3.053l5.106.888c.599.105 1 .674.895 1.273-1.018 5.854-6.59 9.775-12.444 8.757L15.98 110.44c-5.855-1.018-9.776-6.59-8.758-12.445a1.1 1.1 0 0 1 1.272-.895l5.107.888a2.64 2.64 0 0 0 3.054-2.148l6.021-34.623z" fill="#FFB100"/><path d="M26.3 62.86l42.858 7.454-7.438 42.766-42.858-7.453L26.3 62.86z" fill="#FFBB31"/><path d="M20.814 82.299a4.8 4.8 0 1 0 1.645-9.46 4.8 4.8 0 0 0-1.645 9.46zM67.76 90.463a4.8 4.8 0 1 0 1.644-9.459 4.8 4.8 0 0 0-1.645 9.46z" fill="#FFBB31"/><path d="M16.627 106.024a1.32 1.32 0 0 1 1.526-1.075l44.462 7.733a1.32 1.32 0 0 1 1.074 1.526l-.766 4.406a1.32 1.32 0 0 1-1.527 1.075l-44.462-7.733a1.32 1.32 0 0 1-1.074-1.526l.767-4.406z" fill="#E27800"/><path d="M20.67 72.868a4.8 4.8 0 0 1 5.552 3.262 5.35 5.35 0 0 0 2.58-3.714l1.152-6.622-7.818-1.36-1.466 8.434zM64.757 82.838a4.8 4.8 0 0 1 6.322-1.208l1.466-8.429-7.819-1.36-1.151 6.623a5.351 5.351 0 0 0 1.182 4.374z" fill="#FFB100"/><path d="M21.52 59.591a1.32 1.32 0 0 1 1.526-1.074l50.642 8.807a1.32 1.32 0 0 1 1.074 1.527l-.624 3.588a1.32 1.32 0 0 1-1.527 1.075L21.97 64.706a1.32 1.32 0 0 1-1.074-1.526l.624-3.589z" fill="#E27800"/><path d="M49.169 68.206c5.797 1.008 11.314-2.874 12.322-8.671 1.008-5.797-2.874-11.314-8.671-12.322-3.775-.657-7.43.76-9.8 3.429l-1.604-2.53c-.441-.696-1.413-.822-1.914-.168A9.255 9.255 0 0 0 37.729 52a9.29 9.29 0 0 0 2.995 8.553 10.655 10.655 0 0 0 8.445 7.653z" fill="#FFB100"/><path d="M37.92 109.126a.95.95 0 0 1 1.035-.559l2.86.497a.952.952 0 0 1 .785.876l.52 8.147a.95.95 0 0 1-1.112.997l-6.619-1.151a.95.95 0 0 1-.709-1.314l3.24-7.493zM47.118 75.87a5.589 5.589 0 1 1 11.012 1.916l-.582 3.349a5.589 5.589 0 1 1-11.012-1.915l.582-3.35zM34.157 73.616a5.589 5.589 0 1 1 11.012 1.915l-.583 3.35a5.589 5.589 0 1 1-11.012-1.915l.583-3.35z" fill="#FFF1A2"/><path fill-rule="evenodd" clip-rule="evenodd" d="M39.265 68.928a5.82 5.82 0 0 1 3.494 1.002 5.82 5.82 0 0 1 2.223 2.875 2.4 2.4 0 0 1-4.524 1.606c-.071-.2-.202-.377-.394-.507a1.018 1.018 0 0 0-.617-.178 2.4 2.4 0 1 1-.182-4.798zM52.518 71.233a5.82 5.82 0 0 1 3.493 1.002 5.82 5.82 0 0 1 2.224 2.875 2.4 2.4 0 0 1-4.525 1.606c-.07-.2-.201-.377-.393-.507a1.018 1.018 0 0 0-.617-.178 2.4 2.4 0 0 1-.182-4.798zM32.317 85.031a4.18 4.18 0 0 1 5.529 2.092c.298.66.57 1.124.937 1.507.337.353.898.789 1.97 1.134a4.18 4.18 0 1 1-2.558 7.958c-4.962-1.595-6.933-4.863-7.97-7.162a4.18 4.18 0 0 1 2.092-5.529z" fill="#E27800"/><path fill-rule="evenodd" clip-rule="evenodd" d="M30.533 81.074a8.52 8.52 0 0 1 11.27 4.265l-3.957 1.784a4.18 4.18 0 0 0-7.62 3.437c1.036 2.299 3.007 5.567 7.97 7.162a4.18 4.18 0 0 0 2.558-7.958c-1.073-.345-1.634-.781-1.971-1.134m3.13-3.058c.044.017.1.037.17.06a8.52 8.52 0 1 1-5.216 16.222c-6.57-2.112-9.285-6.597-10.598-9.51a8.52 8.52 0 0 1 4.264-11.27m11.38 4.498a6.167 6.167 0 0 1-.11-.233l-3.957 1.784m3.932-1.613h.001-.001z" fill="#FFBB31"/><path d="M40.707 89.748c-1.042-.342-1.592-.77-1.924-1.118-.366-.383-.639-.846-.937-1.507a4.18 4.18 0 0 0-7.75.324 1.76 1.76 0 0 0 1.451 1.578l2.31.402a1.758 1.758 0 0 0 1.59-.535c.226.528.707.934 1.315 1.04l2.31.401a1.759 1.759 0 0 0 1.635-.585z" fill="#FFF1A2"/><path d="M43.608 94.362a4.18 4.18 0 0 1-5.414 3.36c-1.238-.398-2.29-.9-3.187-1.465a7.42 7.42 0 0 1 6.859-2.423 7.44 7.44 0 0 1 1.742.528z" fill="#EE8917"/><path fill-rule="evenodd" clip-rule="evenodd" d="M41.65 64.082a2.2 2.2 0 0 0-2.375-2.011c-2.154.178-4.356.962-5.591 1.57a2.2 2.2 0 0 0 1.941 3.948c.875-.43 2.539-1.011 4.014-1.133a2.2 2.2 0 0 0 2.01-2.374zM56.025 66.582a2.2 2.2 0 0 1 2.913-1.091c1.968.895 3.776 2.376 4.733 3.365a2.2 2.2 0 0 1-3.16 3.061c-.678-.7-2.048-1.809-3.395-2.422a2.2 2.2 0 0 1-1.091-2.913z" fill="#FFB100"/><path d="M45.287 80.63c.113.02.835 1.776 1.562 3.615.723 1.83-.843 3.728-2.781 3.391-1.938-.337-2.77-2.653-1.472-4.131 1.304-1.485 2.578-2.895 2.69-2.876z" fill="#EE8917"/><path fill-rule="evenodd" clip-rule="evenodd" d="M97.324 68.298v-44.64h-3.212v44.64h3.212z" fill="#FFC800"/><path d="M102.783 58.142a4.295 4.295 0 0 1-4.295 4.295h-5.54a4.295 4.295 0 1 1 0-8.591h5.54a4.295 4.295 0 0 1 4.295 4.296z" fill="#FF9600"/><path d="M96.5 57c-1.38 0-2.5-.953-2.5-2.128v-2.744C94 50.953 95.12 50 96.5 50s2.5.953 2.5 2.128v2.744C99 56.047 97.88 57 96.5 57zM95.718 60.887a4.296 4.296 0 0 1 4.296 4.296v1.083a4.296 4.296 0 0 1-8.591 0v-1.083a4.295 4.295 0 0 1 4.295-4.296z" fill="#FF9600"/><path fill-rule="evenodd" clip-rule="evenodd" d="M95.718 18.78c.887 0 1.606.719 1.606 1.605v18.287c0 5.853-4.745 10.598-10.598 10.598-5.853 0-10.598-4.745-10.598-10.599V27.914h3.211v10.759a7.387 7.387 0 0 0 14.773 0V20.385c0-.886.72-1.605 1.606-1.605z" fill="#E27800"/><path fill-rule="evenodd" clip-rule="evenodd" d="M97.324 38.672V17.957h-3.212v20.715c0 5.853 4.745 10.598 10.598 10.598 5.853 0 10.598-4.745 10.598-10.599V27.914h-3.211v10.759a7.387 7.387 0 0 1-14.773 0z" fill="#E27800"/><path fill-rule="evenodd" clip-rule="evenodd" d="M94.112 45.014v-28.42h3.212v28.42c0 8.824-7.154 15.978-15.978 15.978S65.37 53.838 65.37 45.014v-5.379h3.211v5.38c0 7.05 5.716 12.765 12.766 12.765s12.766-5.715 12.766-12.766z" fill="#E27800"/><path fill-rule="evenodd" clip-rule="evenodd" d="M97.324 45.014v-28.42h-3.211v28.42c0 8.824 7.153 15.978 15.977 15.978 8.824 0 15.978-7.154 15.978-15.978v-5.379h-3.212v5.38c0 7.05-5.715 12.765-12.766 12.765-7.05 0-12.766-5.715-12.766-12.766z" fill="#E27800"/><path d="M102.783 36.327a4.295 4.295 0 0 1-4.295 4.296h-5.54a4.296 4.296 0 0 1 0-8.591h5.54a4.295 4.295 0 0 1 4.295 4.295zM66.975 48.174a5.46 5.46 0 0 0 5.46-5.46h-10.92a5.46 5.46 0 0 0 5.46 5.46zM124.462 48.174a5.46 5.46 0 0 1-5.46-5.46h10.919a5.46 5.46 0 0 1-5.459 5.46zM77.734 36.451a5.46 5.46 0 0 0 5.46-5.46h-10.92a5.46 5.46 0 0 0 5.46 5.46zM113.703 36.451a5.46 5.46 0 0 1-5.459-5.46h10.919a5.46 5.46 0 0 1-5.46 5.46z" fill="#FF9600"/><path d="M103.586 25.577a7.868 7.868 0 1 1-15.736 0 7.868 7.868 0 0 1 15.736 0z" fill="#FF9600"/><path fill-rule="evenodd" clip-rule="evenodd" d="M94.997 20.226c0-.493.4-.892.892-.892a5.907 5.907 0 0 1 5.907 5.907.892.892 0 1 1-1.784 0 4.123 4.123 0 0 0-4.123-4.123.892.892 0 0 1-.892-.892zM94.863 62.851c0-.493.4-.892.893-.892a3.197 3.197 0 0 1 3.197 3.197.892.892 0 0 1-1.785 0c0-.78-.632-1.413-1.412-1.413a.892.892 0 0 1-.893-.892z" fill="#FFD900"/><path fill-rule="evenodd" clip-rule="evenodd" d="M95.454 30.315a.892.892 0 0 1-1.093.631 5.907 5.907 0 0 1-4.177-7.234.892.892 0 0 1 1.724.462c-.59 2.199.716 4.46 2.915 5.049a.892.892 0 0 1 .63 1.092zM96.02 68.483a.892.892 0 0 1-1.092.63 3.197 3.197 0 0 1-2.26-3.914.892.892 0 0 1 1.723.461 1.413 1.413 0 0 0 .999 1.73.892.892 0 0 1 .63 1.093zM95.718 15.067a4.657 4.657 0 1 0 0-9.314 4.657 4.657 0 0 0 0 9.314zm0 3.211a7.868 7.868 0 0 0 7.868-7.868 7.868 7.868 0 1 0-7.868 7.868z" fill="#E27800"/><path d="M66.383 31.27a.77.77 0 0 1 1.184 0l2.365 2.846c2.081 2.505.3 6.3-2.957 6.3-3.257 0-5.038-3.795-2.957-6.3l2.365-2.846z" fill="#FFCA00"/><path d="M123.87 31.27a.77.77 0 0 1 1.184 0l2.365 2.846c2.081 2.505.3 6.3-2.957 6.3-3.257 0-5.038-3.795-2.957-6.3l2.365-2.846z" fill="#FFD900"/><path d="M77.142 19.223a.77.77 0 0 1 1.184 0l2.364 2.846c2.082 2.505.3 6.301-2.956 6.301-3.257 0-5.039-3.796-2.957-6.301l2.365-2.846z" fill="#FFCA00"/><path d="M113.111 19.223a.77.77 0 0 1 1.184 0l2.365 2.846c2.081 2.505.3 6.301-2.957 6.301-3.257 0-5.038-3.796-2.957-6.301l2.365-2.846z" fill="#FFD900"/><path fill-rule="evenodd" clip-rule="evenodd" d="M95.941 34.326c0-.493.4-.892.892-.892h2.454a.892.892 0 1 1 0 1.784h-2.454a.892.892 0 0 1-.892-.892z" fill="#FFD900"/><path fill-rule="evenodd" clip-rule="evenodd" d="M91.648 38.508c0-.493.399-.892.892-.892h2.453a.892.892 0 1 1 0 1.784H92.54a.892.892 0 0 1-.892-.892z" fill="#E27800"/><path opacity=".5" d="M102.559 72.904l-.006.058-.523 3.395.073.052a38.17 38.17 0 0 0 10.876 5.336l.377.113.898.264a.753.753 0 0 1 .098-.016l.051-.003 4.076-3.224a.779.779 0 0 1 1.015 1.18l-.048.042-4.032 3.188-.015.046a.783.783 0 0 1-.173.27l.041 1.449a38.166 38.166 0 0 0 1.938 10.95l.129.379.924 2.683 1.509.3a.778.778 0 0 1-.246 1.536l-.057-.009-1.692-.336-1.878 1.79a38.13 38.13 0 0 0-7.077 9.168l-.193.353-1.153 2.138 2.386 5.156a.778.778 0 0 1-1.384.711l-.029-.056-2.268-4.9-1.822-.712a38.169 38.169 0 0 0-16.421-2.53l-.35.025-1.091.082-1.153 1.443a.778.778 0 0 1-1.253-.923l.036-.049 1.475-1.847-.824-3.413a25.619 25.619 0 0 0-3.251-7.687l-.174-.271-2.226-3.31-.033-.054-2.472-.12a.779.779 0 0 1 .017-1.556l.058.001 3.382.163.115-.19a38.159 38.159 0 0 0 4.568-11.514l.084-.393.102-.497-4.424-5.138a.779.779 0 0 1 1.137-1.063l.044.047 4.264 4.953.028-.004 1.731-.178c3.98-.408 7.87-1.439 11.529-3.055l.353-.158.755-.344a.792.792 0 0 1 .105-.339l.548-3.561a.779.779 0 0 1 1.546.179zm-9.59 32.102l-.187.049-.905.245a.778.778 0 0 1-.228.027l-3.831 4.794h.012c5.7-.38 11.416.474 16.757 2.505l.333.129.312.121-3.029-6.544a12.253 12.253 0 0 0-9.234-1.326zm-6.104-8.958l-5.839-.283 1.62 2.41a27.192 27.192 0 0 1 3.562 8.131l.08.322.539 2.238 3.73-4.67a.773.773 0 0 1-.048-.155l-.01-.057-.069-.537a13.038 13.038 0 0 0-3.435-7.271l-.011-.008a.78.78 0 0 1-.119-.12zm29.039 4.139l-6.73-1.335a22.479 22.479 0 0 0-4.932 6.403l-.138.273-.261.525a.576.576 0 0 1-.015.081l2.825 6.106.6-1.112a39.701 39.701 0 0 1 7.275-9.628l.292-.281 1.084-1.032zm-17.867-2.856l-4.81 6.019a13.805 13.805 0 0 1 7.936.735l-3.126-6.754zm-1.348-.809l-7.667-.37a14.595 14.595 0 0 1 2.847 6.404l4.82-6.034zm10.612 1.959l-7.725-1.532 3.405 7.356a24.04 24.04 0 0 1 4.32-5.824zm-25.466-4.236l5.47.265a12.05 12.05 0 0 0 2.276-6.645l.005-.22.01-.646.002-.027-3.377-3.923a39.715 39.715 0 0 1-4.186 10.846l-.2.35zm7.284.352l7.35.356-5.38-6.251a13.606 13.606 0 0 1-1.97 5.895zm17.061-4.003l-6.142 4.858 7.686 1.525a12.97 12.97 0 0 1-1.546-6.154l.002-.23zm7.517-5.946l-5.967 4.72a.772.772 0 0 1 .058.378 11.405 11.405 0 0 0 1.534 6.893l.106.178.35.567 6.712 1.331-.629-1.825a39.715 39.715 0 0 1-2.137-11.39l-.014-.401-.013-.451zm-21.068 3.458l5.108 5.931 1.106-7.193a16.266 16.266 0 0 1-6.214 1.262zm7.67-.488l-.986 6.422 5.453-4.313a14.213 14.213 0 0 1-4.467-2.109zm-1.173-2.615l1.009-6.565.114-.051a39.719 39.719 0 0 1-11.966 3.302l-.4.043-.681.07 4.035 4.686.184.016a14.708 14.708 0 0 0 7.705-1.501zm2.641-6.931l-1.105 7.196a.786.786 0 0 1-.085.608 12.644 12.644 0 0 0 5.761 2.607l6.512-5.151-.326-.098a39.712 39.712 0 0 1-10.757-5.162zM50.688 28.64l-.042.008-2.512.38-.02.064a28.21 28.21 0 0 0-1.366 8.851l.003.291.012.692a.585.585 0 0 1 .032.066l.014.035 3.174 2.166a.576.576 0 0 1-.609.976l-.04-.025-3.14-2.142h-.035a.572.572 0 0 1-.228-.063l-1.014.349a28.212 28.212 0 0 0-7.3 3.783l-.238.174-1.69 1.245.122 1.13a.576.576 0 0 1-1.14.166l-.005-.043-.136-1.267-1.678-.931a28.21 28.21 0 0 0-8.03-2.972l-.292-.058-1.763-.342-3.113 2.821a.576.576 0 0 1-.807-.82l.034-.033 2.957-2.68.1-1.444a28.213 28.213 0 0 0-1.836-12.146l-.095-.24-.299-.753-1.272-.496a.576.576 0 0 1 .375-1.088l.043.015 1.628.633 2.227-1.333a18.943 18.943 0 0 0 4.707-3.99l.153-.183 1.845-2.3.03-.036-.46-1.77a.576.576 0 0 1 1.101-.332l.013.041.63 2.422.16.04c2.987.724 6.072.955 9.133.684l.296-.028.373-.037 2.65-4.256a.576.576 0 0 1 1 .568l-.023.041-2.554 4.102.009.019.507 1.182a28.212 28.212 0 0 0 4.7 7.462l.189.214.409.457a.573.573 0 0 1 .262 0l2.634-.4a.576.576 0 0 1 .215 1.131zm-24.77.314l-.075-.121-.372-.585a.575.575 0 0 1-.07-.155l-4.228-1.646.003.009a29.362 29.362 0 0 1 1.928 12.377l-.017.264-.017.246 3.95-3.58a9.056 9.056 0 0 0-1.101-6.809zm4.976-6.283l-1.088-4.183-1.344 1.675a20.098 20.098 0 0 1-4.952 4.307l-.21.127-1.46.874 4.118 1.603a.577.577 0 0 1 .099-.07l.038-.019.364-.167a9.64 9.64 0 0 0 4.373-4.027l.003-.01a.58.58 0 0 1 .059-.11zm3.485 21.404l-.543-5.043a16.62 16.62 0 0 0-5.606-2.068l-.224-.037-.427-.069a.589.589 0 0 1-.06.008l-3.686 3.34.916.178c2.938.57 5.77 1.585 8.4 3.01l.262.144.968.537zm-1.926-13.238l-5.309-2.066a10.209 10.209 0 0 1 1.232 5.762l4.077-3.696zm.273-1.13l-1.43-5.492a10.791 10.791 0 0 1-3.891 3.422l5.321 2.07zm.96 7.921l-.624-5.789-4.44 4.026c1.768.328 3.476.923 5.063 1.763zm-2.63-18.905l1.02 3.919c1.676.56 3.483.61 5.191.14l.156-.044.46-.136.019-.005 2.023-3.248a29.366 29.366 0 0 1-8.577-.561l-.291-.065zm1.359 5.218l1.37 5.266 3.224-5.177c-1.52.326-3.093.294-4.594-.09zm6.589 11.157l-4.784-3.264.62 5.761a9.584 9.584 0 0 1 4-2.448l.164-.05zm5.854 3.992l-4.648-3.17a.573.573 0 0 1-.254.125 8.433 8.433 0 0 0-4.526 2.603l-.101.114-.324.372.541 5.03 1.15-.846a29.364 29.364 0 0 1 7.566-4.02l.28-.099.316-.109zM37.77 24.986L34.71 29.9l5.32-.806a12.026 12.026 0 0 1-2.26-4.107zm2.036 5.305l-4.75.72 4.247 2.897a10.51 10.51 0 0 1 .503-3.617zm1.587-1.405l4.855-.736.061.07a29.363 29.363 0 0 1-4.97-7.717l-.118-.273-.2-.465-2.416 3.882.029.133a10.873 10.873 0 0 0 2.759 5.106zm5.473.335l-5.322.808a.577.577 0 0 1-.447.074 9.35 9.35 0 0 0-.57 4.64l5.072 3.46-.003-.252c-.018-2.958.41-5.901 1.27-8.73z" fill="#fff" stroke="#fff"/><path d="M68.757 34.949a1.378 1.378 0 1 1-2.757 0 1.378 1.378 0 0 1 2.757 0zM126.244 34.949a1.378 1.378 0 1 1-2.757 0 1.378 1.378 0 0 1 2.757 0zM79.574 22.754a1.379 1.379 0 1 1-2.757 0 1.379 1.379 0 0 1 2.757 0zM115.544 22.754a1.378 1.378 0 1 1-2.757 0 1.378 1.378 0 0 1 2.757 0z" fill="#FFEC7C"/></g><defs><clipPath id="clip0"><path fill="#fff" d="M0 0h135v124H0z"/></clipPath></defs></svg>