<svg xmlns="http://www.w3.org/2000/svg" viewBox="0 0 135 124"><defs><style>.cls-2{fill:#4b4b4b}.cls-4{fill:#2d2d2d}.cls-5{fill:#666161}.cls-6{fill:#de8366}.cls-7{fill:#e59b80}.cls-8{fill:#edb9a6}.cls-10{fill:#fff}.cls-11{fill:#dc7d5f}</style></defs><g id="Layer_3" data-name="Layer 3"><path d="M124 28v79a17 17 0 0 1-11.11 16 15 15 0 0 1-2.5.72 18 18 0 0 1-3.39.28H28a16.75 16.75 0 0 1-2.66-.21 15.16 15.16 0 0 1-2.52-.6A17 17 0 0 1 11 107V28a17 17 0 0 1 17-17h79a17 17 0 0 1 17 17z" fill="#9069cd"/><path class="cls-2" d="M112.89 123a15 15 0 0 1-2.5.72 18 18 0 0 1-3.39.28H28a16.75 16.75 0 0 1-2.66-.21 15.16 15.16 0 0 1-2.52-.6l6.69-39.77A11.53 11.53 0 0 1 38.69 74a10.57 10.57 0 0 1 2.19-.22h55.08A11.5 11.5 0 0 1 106 82.49a9 9 0 0 1 .2.93z"/><path d="M33.1 107.26a9 9 0 1 1 18 0c0 5-9 15.81-9 15.81s-9-10.83-9-15.81z" fill="#3e3e3e"/><path class="cls-4" d="M47.12 83.12l3.75 21.53a3.13 3.13 0 0 0 4.62 2.2l9.72-5.44zM83.81 83.12l-3.74 21.53a3.14 3.14 0 0 1-4.63 2.2l-9.72-5.44z"/><path class="cls-5" d="M94.86 35.43H39.25L42 11.52A12.84 12.84 0 0 1 54.7.13h24.71a12.83 12.83 0 0 1 12.75 11.39z"/><path class="cls-2" d="M107.22 35.37a19.31 19.31 0 0 1-.74 5.26C103 53.37 86.79 63 67.4 63s-35.63-9.6-39.12-22.28a19.11 19.11 0 0 1-.72-5.34 26 26 0 0 1 5.67-15.1C40.21 11 53 3.82 67.4 3.9s27 7 34 16.08l.06.05c3.64 4.76 5.76 10.11 5.76 15.34z"/><circle class="cls-6" cx="40.16" cy="61.56" r="9.45"/><circle class="cls-6" cx="94.75" cy="61.56" r="9.45"/><path class="cls-7" d="M94 27.65a28.54 28.54 0 0 0-26.58-18.1 28.52 28.52 0 0 0-19.33 7.54l-.85.82a28.54 28.54 0 0 0-7.48 13 28.23 28.23 0 0 0-.88 6.6V56.8a1.18 1.18 0 0 0-.16.38.76.76 0 0 0 0 .15V74.7A11.11 11.11 0 0 0 42 82.62l16.25 16a12.93 12.93 0 0 0 18.12 0l.39-.39.17-.16 5.07-5 10.42-10.24.21-.21a10.88 10.88 0 0 0 1.37-1.7 8.54 8.54 0 0 0 .5-.82 11 11 0 0 0 1.5-5.4V38.08a28.41 28.41 0 0 0-2-10.43z"/><path class="cls-8" d="M74.95 16.92h4.81v11.93a2.4 2.4 0 0 1-2.4 2.4 2.4 2.4 0 0 1-2.4-2.4V16.92h-.01zM62.22 18.51H67v16.18a2.4 2.4 0 0 1-2.4 2.4 2.4 2.4 0 0 1-2.4-2.4V18.51zM55.6 16.92h4.81v11.93a2.4 2.4 0 0 1-2.4 2.4 2.4 2.4 0 0 1-2.4-2.4V16.92h-.01z"/><path d="M96 68.62v6.08a11.06 11.06 0 0 1-3.32 7.92l-16.25 16a12.92 12.92 0 0 1-18.11 0L42 82.62a11.1 11.1 0 0 1-3.3-7.92v-6.08l21.78-2.88a53.66 53.66 0 0 1 13.87 0z" fill="#b8725e"/><rect class="cls-10" x="49.48" y="43.5" width="13.38" height="18.51" rx="6.69"/><rect class="cls-2" x="55" y="48.58" width="5.38" height="8.78" rx="2.69"/><rect class="cls-10" x="71.98" y="43.5" width="13.38" height="18.51" rx="6.69" transform="rotate(180 78.67 52.76)"/><rect class="cls-2" x="74.38" y="48.58" width="5.38" height="8.78" rx="2.69" transform="rotate(180 77.075 52.965)"/><path class="cls-4" d="M47.71 21.52v4.12a25.72 25.72 0 0 1-3.3 12.59 25.7 25.7 0 0 0-3.3 12.59v16.91H38.7V39.37c0-7.04 9.01-17.85 9.01-17.85zM87 21.52v4.12a25.62 25.62 0 0 0 3.3 12.59 25.7 25.7 0 0 1 3.3 12.59v16.91H96V39.37c0-7.04-9-17.85-9-17.85z"/><rect class="cls-11" x="65.18" y="44.61" width="4.47" height="23.54" rx="2.23" transform="rotate(180 67.415 56.38)"/><path class="cls-11" d="M72 61.19l-4.54-3.84-4.54 3.84a3.37 3.37 0 0 0-1.2 2.58 3.37 3.37 0 0 0 3.38 3.37h4.72a3.37 3.37 0 0 0 3.37-3.37A3.36 3.36 0 0 0 72 61.19z"/><circle class="cls-11" cx="67.42" cy="66.18" r="3.28"/><path class="cls-10" d="M57 70.51h20.87a1.3 1.3 0 0 1 1.3 1.3 4.74 4.74 0 0 1-4.74 4.74h-14a4.74 4.74 0 0 1-4.74-4.74 1.3 1.3 0 0 1 1.3-1.3z" transform="rotate(180 67.415 73.53)"/><path class="cls-2" d="M96 40.64c0-10.94-12.79-19.8-28.57-19.8s-28.61 8.86-28.61 19.8l-4.15-2.54 8.76-18.24 14.26-10 11.74-1.3 17.17 4.59L103 32.63z"/><circle class="cls-4" cx="94.75" cy="67.73" r="1.21"/><circle class="cls-4" cx="39.9" cy="67.73" r="1.21"/><path class="cls-4" d="M62.93 80.15h9v.95a4.49 4.49 0 0 1-4.49 4.49 4.49 4.49 0 0 1-4.49-4.49v-.95z"/><path class="cls-7" d="M86.95 57.35l-14.99 3.84 10.62 4.1 4.37-7.94z"/><path class="cls-4" d="M88.6 44.88h-.2a60.51 60.51 0 0 1-15.92-3.74 2.83 2.83 0 1 1 2.1-5.25 55.83 55.83 0 0 0 14.22 3.33 2.83 2.83 0 0 1-.2 5.66zM46.22 47.71a2.83 2.83 0 0 1-.2-5.66 56 56 0 0 0 14.23-3.34A2.83 2.83 0 0 1 62.34 44a60.44 60.44 0 0 1-15.92 3.7z"/><path class="cls-7" d="M87.67 103.24H85a9.26 9.26 0 0 1-8.74-12.34l3.32-10h27l-3.94 11.73a15.88 15.88 0 0 1-14.97 10.61z"/><path class="cls-7" d="M82.08 93.66a4.8 4.8 0 0 1-1.24-.16 4.88 4.88 0 0 1-3.47-6l1.74-6.5-3.39.36a4.87 4.87 0 0 1-1-9.68l10.4-1.09a4.86 4.86 0 0 1 5.21 6.07L86.78 90a4.86 4.86 0 0 1-4.7 3.66z"/><path class="cls-7" d="M90.85 93.66a4.8 4.8 0 0 1-1.24-.16 4.86 4.86 0 0 1-3.46-6l1.26-4.81-1.94.62a4.86 4.86 0 0 1-3-9.26l10.4-3.34a4.87 4.87 0 0 1 6.19 5.87L95.55 90a4.86 4.86 0 0 1-4.7 3.66z"/><path class="cls-7" d="M96.76 96.82a4.86 4.86 0 0 1-4.49-6.75L94.4 85l-2.89.35a4.86 4.86 0 1 1-1.16-9.66l11.2-1.34a4.86 4.86 0 0 1 5.06 6.71l-5.37 12.77a4.86 4.86 0 0 1-4.48 2.99z"/><path class="cls-7" d="M100.43 112.27H80.25L75.77 93.1h20.18l4.48 19.17z"/><path class="cls-5" d="M106.34 124h-28l-3.06-12.94a4 4 0 0 1 3.56-4.93H99a4 4 0 0 1 3.85 3.1z"/><path class="cls-4" d="M42.12 105.09a2 2 0 0 1 2 2v17h-3.96V107a2 2 0 0 1 1.96-1.91z"/></g></svg>