<svg viewBox="0 0 136 125" fill="none" xmlns="http://www.w3.org/2000/svg"><path d="M107.5 11.891h-79c-9.389 0-17 7.611-17 17v79c0 9.389 7.611 17 17 17h79c9.389 0 17-7.611 17-17v-79c0-9.389-7.611-17-17-17z" fill="#E5E5E5"/><path d="M22.734 60.883l-7.906-14.75a1 1 0 0 1 .761-1.465l9.241-1.119a1 1 0 0 1 1.117 1.077l-1.335 15.868c-.084.992-1.408 1.266-1.878.389z" fill="#D1D1D1"/><path fill-rule="evenodd" clip-rule="evenodd" d="M80.44 3.874c14.886 0 26.954 12.114 26.954 27.057 0 14.943-12.068 27.057-26.955 27.057-14.886 0-26.954-12.114-26.954-27.057 0-14.943 12.068-27.057 26.954-27.057z" fill="#B2B2B2"/><path fill-rule="evenodd" clip-rule="evenodd" d="M101.404 9.887c7.719 0 13.976 6.281 13.976 14.03v6.012c0 7.748-6.257 14.03-13.976 14.03-7.72 0-13.977-6.282-13.977-14.03v-6.013c0-7.748 6.258-14.03 13.977-14.03z" fill="#B2B2B2"/><path d="M77.466 93.027l11.92 6.958a13.93 13.93 0 0 0 14.052 0l11.92-6.958a10.019 10.019 0 0 0 4.815-6.937l6.678-38.334C128.94 35.762 120.948 24.34 109 22.242c-1.25-.22-2.515-.33-3.783-.33h-17.61c-12.129 0-21.962 9.87-21.962 22.047 0 1.273.11 2.543.328 3.797l6.678 38.334a10.02 10.02 0 0 0 4.815 6.937z" fill="#BFBFBF"/><path d="M122.17 58.318l-5.785 1.557c-4.793 1.289-7.638 6.234-6.354 11.046 1.285 4.81 6.211 7.666 11.005 6.377l5.785-1.556c4.793-1.29 7.638-6.235 6.354-11.046-1.285-4.812-6.211-7.667-11.005-6.378zM69.708 58.318l5.786 1.557c4.793 1.289 7.638 6.234 6.353 11.046-1.284 4.81-6.21 7.666-11.004 6.377l-5.786-1.556c-4.793-1.29-7.637-6.235-6.353-11.046 1.284-4.812 6.211-7.667 11.004-6.378z" fill="#BFBFBF"/><path fill-rule="evenodd" clip-rule="evenodd" d="M98.43 59.727l1.825 16.493a3.434 3.434 0 0 1-3.402 3.815h-.719a3.43 3.43 0 0 1-3.401-3.815l1.825-16.493a1.95 1.95 0 0 1 1.936-1.739 1.95 1.95 0 0 1 1.935 1.74z" fill="#B2B2B2"/><path d="M74.948 45.967h7.488c4.962 0 8.984 3.916 8.984 8.746v5.83c0 .806-.67 1.458-1.497 1.458h-7.487c-4.963 0-8.985-3.915-8.985-8.745v-5.831c0-.805.67-1.458 1.497-1.458z" fill="#B2B2B2"/><path d="M74.713 50.628h7.594c5.033 0 9.113 3.355 9.113 7.493v8.537c0 .69-.68 1.249-1.519 1.249h-7.594c-5.032 0-9.112-3.355-9.112-7.493v-8.537c0-.69.68-1.249 1.518-1.249z" fill="#fff"/><path fill-rule="evenodd" clip-rule="evenodd" d="M123.453 74.022h3.821c.972 0 1.803.704 1.967 1.666l1.712 10.021a2.004 2.004 0 0 1-1.968 2.343h-7.244a2 2 0 0 1-1.968-2.343l1.712-10.021a1.998 1.998 0 0 1 1.968-1.666z" fill="#B2B2B2"/><path d="M105.217 21.912c1.268 0 2.533.11 3.783.33 11.351 1.992 19.132 12.402 18.09 23.722H65.736a22.138 22.138 0 0 1-.09-2.005c0-12.176 9.832-22.047 21.962-22.047h17.609z" fill="#B2B2B2"/><path fill-rule="evenodd" clip-rule="evenodd" d="M87.427 33.938h21.366c6.946 0 12.577 5.652 12.577 12.624H81.437V39.95c0-3.32 2.682-6.012 5.99-6.012z" fill="#BFBFBF"/><path d="M127.094 41.955a22.14 22.14 0 0 1-.243 5.801l-2.123 12.186a4.005 4.005 0 0 1-3.358-3.958v-14.03l5.724.001z" fill="#B2B2B2"/><path fill-rule="evenodd" clip-rule="evenodd" d="M101.404 11.891c7.719 0 13.976 6.281 13.976 14.03v6.012c0 7.749-6.257 14.03-13.976 14.03-7.72 0-13.977-6.281-13.977-14.03v-6.012c0-7.749 6.258-14.03 13.977-14.03z" fill="#B2B2B2"/><path d="M71.274 41.957v14.03a4.005 4.005 0 0 1-3.359 3.958l-2.122-12.186a22.131 22.131 0 0 1-.239-5.803h5.72z" fill="#BFBFBF"/><path fill-rule="evenodd" clip-rule="evenodd" d="M74.516 8.425c7.719 0 13.976 6.281 13.976 14.03v20.042c0 7.748-6.257 14.03-13.976 14.03-7.719 0-13.976-6.282-13.976-14.03V22.454c0-7.748 6.257-14.03 13.976-14.03z" fill="#B2B2B2"/><path fill-rule="evenodd" clip-rule="evenodd" d="M124.348 78.03h1.971a1.211 1.211 0 0 0 1.148-1.593l-.071-.216a1.997 1.997 0 0 0-1.896-1.377h-.392c-.893 0-1.677.595-1.921 1.457l-.038.136a1.252 1.252 0 0 0 1.199 1.594z" fill="#D1D1D1"/><path d="M76.534 57.748a3.743 3.743 0 1 1 7.486 0v4.666a3.743 3.743 0 0 1-7.486 0v-4.666zM104.597 90.27c0 4.886-3.91.585-8.733.585-4.824 0-8.734 4.301-8.734-.585 0-4.887 3.91-8.848 8.734-8.848 4.823 0 8.733 3.961 8.733 8.848z" fill="#B2B2B2"/><rect x=".5" y="8.425" width="46.32" height="39" rx="8" transform="rotate(-6.903 .5 8.425)" fill="#D1D1D1"/><path d="M96.027 106.401a1 1 0 0 1 .849-1.075l1.8-.269a1 1 0 0 1 1.125.779l2.685 12.535a1 1 0 0 1-.83 1.199l-3.381.506a1 1 0 0 1-1.145-.903l-1.103-12.772zM106.393 104.179a1 1 0 0 1-.16-1.36l1.082-1.463a1.001 1.001 0 0 1 1.347-.245l10.762 6.966a1 1 0 0 1 .261 1.434l-2.033 2.749a1 1 0 0 1-1.448.17l-9.811-8.251zM85.765 104.539a1 1 0 0 1 1.36-.161l1.463 1.082a1 1 0 0 1 .245 1.348l-6.965 10.762a1 1 0 0 1-1.434.26l-2.75-2.033a1 1 0 0 1-.17-1.447l8.251-9.811zM58.938 54.268a1 1 0 0 1-.043 1.37l-1.287 1.286a1 1 0 0 1-1.368.043l-9.613-8.482a1 1 0 0 1-.046-1.457L49 44.61a1 1 0 0 1 1.457.046l8.482 9.612z" fill="#fff"/><path fill-rule="evenodd" clip-rule="evenodd" d="M32.325 30.527c-1.435.072-2.618-.925-2.702-2.626-.064-1.295.178-2.525 1.456-4.212l1.916-2.571c1.066-1.393 1.398-2.343 1.348-3.355-.078-1.58-1.113-2.624-2.622-2.549-1.397.07-2.113.877-2.544 2.116-.468 1.24-1.346 1.853-2.327 1.901-1.434.071-2.463-.852-2.537-2.35-.016-.324.04-.732.135-1.102.724-2.959 3.297-5.238 7.146-5.43 4.49-.222 7.74 2.782 7.946 6.953.102 2.065-.424 3.674-1.776 5.405l-2.202 2.91c-.603.802-.802 1.38-.77 2.027.084 1.701-1.071 2.814-2.468 2.883zm-2.851 5.094c-.09-1.822 1.232-3.39 2.93-3.474 1.698-.085 3.168 1.344 3.258 3.166.09 1.822-1.232 3.39-2.93 3.474-1.698.085-3.168-1.344-3.258-3.166zM18.934 37.513c-.35-1.79.733-3.533 2.402-3.862 1.668-.329 3.328.872 3.678 2.662.35 1.79-.733 3.533-2.401 3.862-1.668.33-3.328-.872-3.679-2.662z" fill="#B2B2B2"/><path d="M14.195 13.71a1 1 0 0 1 .777-1.225l3.819-.75a1 1 0 0 1 1.183.84l2.4 16.854a1 1 0 0 1-.797 1.122l-2.064.405a1 1 0 0 1-1.162-.737l-4.156-16.508z" fill="#B2B2B2"/><path fill-rule="evenodd" clip-rule="evenodd" d="M47.483 59.9c5.309.47 9.228 5.164 8.758 10.482l-.127 1.444-19.222-1.699.128-1.445c.47-5.317 5.155-9.25 10.463-8.782z" fill="#B2B2B2"/><path d="M36.386 68.441c5.666.5 10.66-3.615 11.154-9.192.493-5.578-3.702-10.506-9.368-11.007-5.67-.5-10.664 3.615-11.157 9.192-.493 5.578 3.702 10.506 9.371 11.007z" fill="#B2B2B2"/><path d="M15.432 78.901c.605-6.837 6.637-11.89 13.475-11.285l36.488 3.225c6.837.605 11.89 6.637 11.285 13.475l-1.997 22.589c-.604 6.837-6.637 11.89-13.474 11.286l-36.488-3.226c-6.837-.604-11.89-6.637-11.286-13.474l1.997-22.59z" fill="#D1D1D1"/><path fill-rule="evenodd" clip-rule="evenodd" d="M29.248 81.625a7.71 7.71 0 1 1 15.36 1.358l-.412 4.671a7.71 7.71 0 0 1-15.36-1.358l.412-4.671z" fill="#fff"/><path fill-rule="evenodd" clip-rule="evenodd" d="M40.879 77.133a3.462 3.462 0 0 1 3.143 3.753l-.383 4.331a3.462 3.462 0 0 1-6.896-.61l.356-4.037.164.02a2.78 2.78 0 0 0 2.94-3.45c.22-.025.447-.027.676-.007z" fill="#B2B2B2"/><path fill-rule="evenodd" clip-rule="evenodd" d="M47.227 83.214a7.71 7.71 0 1 1 15.36 1.358l-.412 4.671a7.71 7.71 0 0 1-15.36-1.358l.412-4.671z" fill="#fff"/><path fill-rule="evenodd" clip-rule="evenodd" d="M57.069 77.843a3.462 3.462 0 0 1 3.143 3.753l-.383 4.33a3.462 3.462 0 0 1-6.896-.609l.357-4.037.163.019a2.78 2.78 0 0 0 2.94-3.45c.22-.024.447-.026.676-.006zM44.667 97.322a2.858 2.858 0 0 0 3.098-2.594c.14-1.572-2.38-5.54-2.38-5.54l-.298.335c-.794.908-2.903 3.428-3.016 4.702a2.858 2.858 0 0 0 2.596 3.097z" fill="#B2B2B2"/><path d="M24.001 68.163c-4.61 1.486-8.116 5.61-8.57 10.738l-.82 9.285 1.225.108a7.359 7.359 0 0 0 7.978-6.682l1.214-13.732c-.348.08-.69.174-1.027.283zM41.37 98.449c-4.216-1.965-9.126-.623-11.806 2.961-.662.884-.212 2.092.789 2.558l13.88 6.467c1 .466 2.214.033 2.466-1.042 1.02-4.357-1.112-8.979-5.328-10.944z" fill="#B2B2B2"/><path d="M41.842 109.321a5.793 5.793 0 0 0-9.098-4.238l9.098 4.238z" fill="#BFBFBF"/><path fill="#D1D1D1" d="M29.311 72.26l18.594 3.273-1.24 7.047-18.594-3.272zM28.148 85.205l14.88 6.932-2.447 5.252-14.88-6.932zM17.986 90.865A5.478 5.478 0 1 1 7.072 89.9a5.478 5.478 0 0 1 10.914.965z"/><path d="M117.875 45.967h-7.487c-4.962 0-8.985 3.916-8.985 8.746v5.83c0 .806.671 1.458 1.498 1.458h7.487c4.962 0 8.985-3.915 8.985-8.745v-5.831c0-.805-.671-1.458-1.498-1.458z" fill="#B2B2B2"/><path d="M118.11 50.628h-7.594c-5.032 0-9.112 3.355-9.112 7.493v8.537c0 .69.68 1.249 1.518 1.249h7.594c5.033 0 9.113-3.355 9.113-7.493v-8.537c0-.69-.68-1.249-1.519-1.249z" fill="#fff"/><path d="M109.155 57.748a3.743 3.743 0 0 0-7.486 0v4.666a3.743 3.743 0 0 0 7.486 0v-4.666zM75.859 93.6l-1.167-.103a7.359 7.359 0 0 1-6.682-7.978l1.212-13.713c4.791 2.065 7.942 7.029 7.458 12.51l-.821 9.284z" fill="#B2B2B2"/><path d="M82.654 96.581a5.479 5.479 0 1 1-10.915-.965 5.479 5.479 0 0 1 10.915.965z" fill="#D1D1D1"/></svg>