<svg viewBox="0 0 135 124" version="1.1" xmlns="http://www.w3.org/2000/svg"><g stroke="none" stroke-width="1" fill="none" fill-rule="evenodd"><g fill-rule="nonzero"><g transform="translate(0 -1)"><path d="M124 29v79c.002.591-.031 1.183-.1 1.77a6.18 6.18 0 0 1-.07.62 1.85 1.85 0 0 1 0 .23c0 .23-.07.45-.11.68l-.15.69c-.04.193-.09.383-.15.57a16.81 16.81 0 0 1-.73 2.1c-.11.25-.22.5-.34.74a15.28 15.28 0 0 1-1.35 2.33c-.12.17-.24.35-.37.51a6.12 6.12 0 0 1-.39.5l-.41.48-.42.47-.44.45a16.94 16.94 0 0 1-10.97 4.8H27c-.35 0-.83-.06-1.24-.11l-.76-.13a16.94 16.94 0 0 1-10.47-6.41 16.94 16.94 0 0 1-3.28-7.81c0-.34-.09-.69-.12-1v-.6a.87.87 0 0 1 0-.28V29c0-.867.068-1.733.2-2.59.08-.55.19-1.09.32-1.63.13-.54.32-1.09.51-1.62s.4-1 .64-1.5.5-1 .78-1.44A17 17 0 0 1 28 12h79a17 17 0 0 1 16.74 14.1l.09.57c.117.771.174 1.55.17 2.33z" fill="#D1D1D1"/><path d="M124 29v79c0 .581-.03 1.162-.09 1.74a6.17 6.17 0 0 1-.08.62.91.91 0 0 1 0 .23c0 .23-.07.45-.11.68l-.15.69c-.04.193-.09.383-.15.57a16.81 16.81 0 0 1-.73 2.1c-.11.25-.22.5-.34.74a15.28 15.28 0 0 1-1.35 2.33c-.12.17-.24.35-.37.51a6.12 6.12 0 0 1-.39.5l-.41.48-.42.47a6.25 6.25 0 0 1-.44.45 16.89 16.89 0 0 1-11 4.87H28c-.827 0-1.652-.06-2.47-.18l-.66-.11c-.25 0-.49-.09-.74-.15l-.76-.2-.93-.29c-.13 0-.26-.09-.39-.15a8.18 8.18 0 0 1-.82-.32c-.34-.15-.67-.31-1-.48-.33-.17-.66-.36-1-.55a17.34 17.34 0 0 1-4.78-4.29c-.16-.2-.29-.43-.43-.64-.14-.21-.24-.35-.35-.53a14.69 14.69 0 0 1-.74-1.28 8.4 8.4 0 0 1-.26-.52c-.08-.18-.26-.48-.37-.74v-.08c-.13-.32-.25-.64-.37-1v-.08a20.117 20.117 0 0 1-.54-2.08c-.07-.37-.12-.62-.16-.93a13.12 13.12 0 0 1-.15-1.67.87.87 0 0 1 0-.28 4.1 4.1 0 0 1 0-.5V29c0-.878.07-1.754.21-2.62.08-.55.19-1.09.32-1.63.13-.54.32-1.09.51-1.62s.4-1 .64-1.5.5-1 .78-1.44A17 17 0 0 1 28 12h79a17 17 0 0 1 16.75 14.07l.09.57c.104.782.158 1.57.16 2.36z" fill="#E5E5E5"/><path d="M123.85 110.36a1.85 1.85 0 0 1 0 .23c0 .23-.07.45-.11.68l-.15.69c-.04.193-.09.383-.15.57a16.81 16.81 0 0 1-.73 2.1c-.11.25-.22.5-.34.74a15.28 15.28 0 0 1-1 1.81c-.11.18-.23.35-.35.52-.12.17-.24.35-.37.51a6.12 6.12 0 0 1-.39.5l-.41.48-.42.47a6.25 6.25 0 0 1-.44.45 16.89 16.89 0 0 1-11 4.87H28c-.827 0-1.652-.06-2.47-.18l-.66-.11c-.25 0-.49-.09-.74-.15l-.76-.2-.93-.29c-.13 0-.26-.09-.39-.15a8.18 8.18 0 0 1-.82-.32c-.34-.15-.67-.31-1-.48-.33-.17-.66-.36-1-.55l-.27-.18c-.29-.18-.57-.37-.85-.57l-.48-.36c-.31-.24-.62-.48-.91-.74l-.34-.33c-.3-.28-.59-.55-.87-.85a16 16 0 0 1-1.06-1.26 16.32 16.32 0 0 1-2.15-3.71v-.08c-.13-.32-.25-.64-.37-1v-.08a20.117 20.117 0 0 1-.54-2.08c-.07-.37-.12-.62-.17-.93l25.1-12.28h62.56l25 12.26h-.03z" fill="#B2B2B2"/><circle fill="#B2B2B2" cx="67.5" cy="18.99" r="13.3"/><circle fill="#BFBFBF" cx="101.01" cy="70.23" r="12.28"/><circle fill="#BFBFBF" cx="33.99" cy="70.23" r="12.28"/><path d="M91.91 8.28A46.43 46.43 0 0 0 70.23.89L69 .83h-3l-1.15.05a46.43 46.43 0 0 0-21.72 7.4c-8 5.08-14.58 17.08-14.58 26.59v6.38l.5 22.69c-.002.48.021.962.07 1.44.73 7.11 6.24 12.66 13.55 12.66h49.7c7.3 0 12.81-5.55 13.54-12.66.052-.478.079-.959.08-1.44l.5-23.06v-6c0-9.52-6.49-21.52-14.58-26.6z" fill="#A6A6A6"/><path d="M106.49 40.88v23.75c0 7.798-6.322 14.12-14.12 14.12h-49.7a14.1 14.1 0 0 1-14.12-14.12V40.88h77.94z" fill="#B2B2B2"/><path d="M101.26 37v57a12.17 12.17 0 0 1-12.18 12.17H45.93A12.17 12.17 0 0 1 33.76 94V36.86A18.34 18.34 0 0 1 52.2 18.52l30.8.18c10.082.044 18.238 8.218 18.26 18.3z" fill="#BFBFBF"/><path d="M63.2 51.41v6.87a8.95 8.95 0 0 1-8.94 8.94 8.94 8.94 0 0 1-8.95-8.94v-6.87a8.95 8.95 0 1 1 17.89 0z" fill="#EFEFEF"/><rect fill="#A6A6A6" x="53.53" y="53.76" width="8.06" height="13.16" rx="4.03"/><path d="M88.73 51.41v6.87a8.95 8.95 0 0 1-17.89 0v-6.87a8.95 8.95 0 1 1 17.89 0z" fill="#EFEFEF"/><rect fill="#A6A6A6" x="72.53" y="53.76" width="8.06" height="13.16" rx="4.03"/><path d="M49 63.29h12.7a8.95 8.95 0 0 1-14.29.7l.06-.07a2.17 2.17 0 0 1 1.53-.63zM86.85 63.75a8.93 8.93 0 0 1-14.47-.46h13.13a2.15 2.15 0 0 1 1.34.46z" fill="#E5E5E5"/><path d="M52.94 66.51H81a9 9 0 0 1 9 9v2.12a1.77 1.77 0 0 1-1.77 1.77H45.71a1.77 1.77 0 0 1-1.77-1.77V75.5a9 9 0 0 1 9-8.99z" fill="#A6A6A6"/><path d="M71.34 70.59h-8.11A3.56 3.56 0 0 1 60 65.65l4-9.48A3.64 3.64 0 0 1 67.29 54a3.64 3.64 0 0 1 3.34 2.21l4 9.48a3.56 3.56 0 0 1-3.29 4.9z" fill="#BFBFBF"/><path d="M44.62 51.45a4.5 4.5 0 1 1 0-9c2.27 0 10.2-2.44 13.68-5.16a4.503 4.503 0 0 1 5.54 7.1c-4.84 3.8-14.65 7.06-19.22 7.06zM89.12 51.45c-4.27 0-13.23-2.17-18.27-6.1a4.503 4.503 0 1 1 5.54-7.1c3.29 2.57 10.21 4.2 12.73 4.2a4.5 4.5 0 1 1 0 9z" fill="#A6A6A6"/><path d="M44.87 124.86l-.23.11H31.78L11.5 103.23l-.48-.51-.07-.08L1.3 92.29a4.822 4.822 0 0 1 7.05-6.58L11 88.58 13.27 91l11.63 12.46 19.97 21.4z" fill="#B2B2B2"/><path d="M43.88 125a3.18 3.18 0 0 0 2.37-5.31l-6.61-7.37a28.82 28.82 0 0 0-14.73-8.85 28.63 28.63 0 0 0-6.8-.82H11l.07.08V108c0 .467.02.937.06 1.41 0 .35.07.7.12 1a16.91 16.91 0 0 0 3.28 7.83A16.94 16.94 0 0 0 25 124.7l.82.12c.41.05.82.09 1.24.11.42.02.84 0 1.26 0l15.56.07z" fill="#BFBFBF"/></g></g></g></svg>