<svg viewBox="0 0 135 124" fill="none" xmlns="http://www.w3.org/2000/svg"><g clip-path="url(#clip0)"><path d="M28.385 10.996h79c9.389 0 17 7.611 17 17v79c0 9.389-7.611 17-17 17h-79c-9.39 0-17-7.611-17-17v-79c0-9.389 7.61-17 17-17z" fill="#E5E5E5"/><path d="M21.64 42.387c-2.274-1.47-3.295-4.289-3.718-5.97a1.446 1.446 0 0 1 1.157-1.775c1.738-.304 4.707-.499 6.99.984 2.281 1.483 3.29 4.266 3.719 5.975a1.446 1.446 0 0 1-1.157 1.774c-1.735.3-4.712.5-6.99-.988z" fill="#E5E5E5"/><path d="M19.23 36.388a.59.59 0 0 1 .907-.597l8.066 5.441a.585.585 0 0 1 .014.998.587.587 0 0 1-.671-.029l-8.067-5.44a.587.587 0 0 1-.249-.373z" fill="#D1D1D1"/><path fill-rule="evenodd" clip-rule="evenodd" d="M132.317 77.904c2.509 5.91-.248 12.736-6.159 15.246l-32.109 13.629c-5.91 2.509-12.737-.249-15.246-6.16-2.509-5.911.249-12.737 6.16-15.246l32.108-13.63c5.911-2.508 12.737.25 15.246 6.16z" fill="#D1D1D1"/><path d="M84.499 53.09a5.796 5.796 0 1 0 0-11.592 5.796 5.796 0 0 0 0 11.592z" fill="#D1D1D1"/><path fill-rule="evenodd" clip-rule="evenodd" d="M83.142 74.544c.174 3.709-.992 7.084-2.945 9.482-1.874 2.3-4.468 3.704-7.322 3.704H26.592c-2.807 0-5.363-1.359-7.23-3.593-1.955-2.34-3.148-5.645-3.047-9.293l66.827-.3z" fill="#C2C1C1" stroke="#C2C1C1" stroke-width="1.448" stroke-linejoin="round"/><path fill-rule="evenodd" clip-rule="evenodd" d="M35.967 19.316h37.78c6.64 0 12.022 5.382 12.022 12.021V76.13H23.946V31.337c0-6.639 5.382-12.02 12.021-12.02z" fill="#C2C1C1"/><path d="M33.985 87.794H81.25c7.034 0 12.737 5.702 12.737 12.736 0 .945-.105 1.887-.314 2.809l-6.923 30.625a12.737 12.737 0 0 1-12.423 9.928H40.91a12.737 12.737 0 0 1-12.424-9.928l-6.923-30.625c-1.55-6.861 2.754-13.68 9.615-15.232a12.739 12.739 0 0 1 2.808-.313z" fill="#D1D1D1"/><path d="M44.568 27.616h29.91c6.243 0 11.305 5.062 11.305 11.306v48.942h-52.52V38.922c0-6.244 5.061-11.306 11.305-11.306z" fill="#D1D1D1"/><path fill-rule="evenodd" clip-rule="evenodd" d="M35.792 25.47c4.953 0 8.969 2.659 8.969 5.939v8.443c0 3.28-4.016 5.939-8.97 5.939-4.953 0-8.969-2.659-8.969-5.939v-8.443c0-3.28 4.016-5.94 8.97-5.94z" fill="#C2C1C1"/><path d="M85.783 44.907a5.935 5.935 0 0 1-2.82-5.055v-8.4a11.262 11.262 0 0 1 2.82 7.47v5.986z" fill="#C2C1C1"/><path fill-rule="evenodd" clip-rule="evenodd" d="M55.895 34.991a6.747 6.747 0 0 1 6.747 6.748v4.104a6.747 6.747 0 1 1-13.495 0v-4.104a6.747 6.747 0 0 1 6.748-6.748zM71.779 34.991a6.747 6.747 0 0 1 6.747 6.748v4.104a6.747 6.747 0 1 1-13.495 0v-4.104a6.748 6.748 0 0 1 6.748-6.748z" fill="#fff"/><path fill-rule="evenodd" clip-rule="evenodd" d="M55.864 39.001a3.03 3.03 0 0 1 3.03 3.03v3.804a3.03 3.03 0 0 1-6.059 0V42.03c0-.066.002-.131.006-.196a2.218 2.218 0 0 0 2.489-2.786c.173-.03.352-.047.534-.047zM69.923 38.96a3.03 3.03 0 0 1 3.03 3.03v3.804a3.03 3.03 0 1 1-6.06 0v-3.805c0-.066.003-.131.007-.196a2.218 2.218 0 0 0 2.489-2.786c.172-.03.351-.047.534-.047z" fill="#9F9F9F"/><path d="M47.29 50.237c4.273-1.361 8.352-.913 12.114 1.335l.375.231 1.065 6.47c-2.944-1.864-4.416.282-7.777 1.255l-3.123 1.199-2.655-10.49zM63.18 34.145H48.598v8.623H63.18v-8.623zM79.295 55.082c-4.274-1.362-8.353-.913-12.115 1.335l-.376.231-1.064 6.47c2.944-1.864 4.416.282 7.777 1.255l3.123 1.198 2.655-10.489z" fill="#D1D1D1"/><path fill-rule="evenodd" clip-rule="evenodd" d="M63.695 33.999l14.403-2.281 1.35 8.517-14.404 2.281L63.695 34z" fill="#D1D1D1"/><path fill-rule="evenodd" clip-rule="evenodd" d="M63.79 56.238a3.005 3.005 0 0 0 3.005-3.004c0-1.659-3.006-5.583-3.006-5.583l-.379.514c-.808 1.118-2.626 3.779-2.626 5.069a3.005 3.005 0 0 0 3.005 3.004z" fill="#B2B2B2"/><path fill-rule="evenodd" clip-rule="evenodd" d="M24.095 25.041H85.62a1.86 1.86 0 0 1 1.86 1.86v3.864a1.86 1.86 0 0 1-1.86 1.86H24.095a1.86 1.86 0 0 1-1.86-1.86v-3.864a1.86 1.86 0 0 1 1.86-1.86z" fill="#9F9F9F"/><path fill-rule="evenodd" clip-rule="evenodd" d="M29.113 69.876c0 1.135-.017 4.12-3.292 4.12 1.418 1.386 2.2 1.992 2.348 1.819l1.53-.81.415-3.435c-.667-1.886-1.001-2.451-1.001-1.694zM24.134 69.67l-.004.437c-.028 1.304-.318 3.76-3.288 3.76l.522.502c1.088 1.028 1.697 1.467 1.825 1.316l1.53-.81.416-3.435-.266-.727c-.47-1.24-.715-1.587-.735-1.043z" fill="#C2C1C1"/><path fill-rule="evenodd" clip-rule="evenodd" d="M84.8 79.762L35.57 106.634a11 11 0 0 0-5.672 10.787l5.043 48.759h66.132L89.209 81.976a3 3 0 0 0-4.408-2.214z" fill="#fff"/><path fill-rule="evenodd" clip-rule="evenodd" d="M86.101 87.408a.5.5 0 0 1 .068.704l-21.994 26.642a.5.5 0 1 1-.771-.637l21.993-26.641a.5.5 0 0 1 .704-.068zM87.33 94.99a.5.5 0 0 1 .438.556l-2.772 23.357a.5.5 0 0 1-.993-.118l2.772-23.357a.5.5 0 0 1 .555-.437z" fill="#E8E8E8"/><path fill-rule="evenodd" clip-rule="evenodd" d="M86.207 87.598a.5.5 0 0 1-.157.69L61.941 103.46a.5.5 0 1 1-.533-.846l24.11-15.173a.5.5 0 0 1 .689.157z" fill="#E8E8E8"/><path d="M32.989 123.996h-4.604c-9.39 0-17-7.611-17-17V94.583L35.845 79.3a9 9 0 1 1 9.538 15.265l-2.698 1.686a3.001 3.001 0 0 1 1.25 3.862l-10.946 23.884z" fill="#D1D1D1"/><path d="M38 30.453c1.984-1.86 4.938-2.182 6.698-2.19a1.442 1.442 0 0 1 1.443 1.542c-.122 1.75-.632 4.676-2.615 6.536-1.983 1.86-4.928 2.188-6.69 2.191a1.45 1.45 0 0 1-1.45-1.543c.113-1.745.636-4.679 2.615-6.536zM31.273 39.098c2.31 1.435 3.385 4.205 3.848 5.903a1.442 1.442 0 0 1-1.116 1.793c-1.721.335-4.68.6-6.99-.834-2.31-1.435-3.389-4.195-3.848-5.896a1.452 1.452 0 0 1 1.116-1.8c1.714-.342 4.684-.596 6.99.834z" fill="#E5E5E5"/><path d="M40.108 45.457c-2.476-1.096-3.925-3.72-4.606-5.315a1.446 1.446 0 0 1 .865-1.933c1.67-.572 4.571-1.23 7.057-.121 2.486 1.108 3.918 3.698 4.608 5.32a1.446 1.446 0 0 1-.864 1.932c-1.667.567-4.576 1.231-7.06.117z" fill="#E5E5E5"/><path d="M36.79 39.91a.591.591 0 0 1 .802-.73l8.818 4.111a.588.588 0 1 1-.498 1.06l-8.818-4.112a.587.587 0 0 1-.304-.328z" fill="#D1D1D1"/><path d="M30.869 36.541c-2.009 1.817-4.995 2.074-6.73 2.047a1.447 1.447 0 0 1-1.413-1.577c.155-1.758.736-4.676 2.76-6.496 2.022-1.82 4.971-2.076 6.733-2.046a1.445 1.445 0 0 1 1.414 1.576c-.16 1.753-.736 4.68-2.764 6.496z" fill="#E5E5E5"/><path d="M24.451 37.317a.59.59 0 0 1-.342-1.03l7.343-6.384a.588.588 0 1 1 .766.886l-7.343 6.383a.586.586 0 0 1-.424.145zM34.57 53.09a5.796 5.796 0 1 0 0-11.592 5.796 5.796 0 0 0 0 11.592z" fill="#D1D1D1"/><path fill-rule="evenodd" clip-rule="evenodd" d="M64.556 4.616c7.18 0 13 5.82 13 13s-5.82 13-13 13-13-5.82-13-13 5.82-13 13-13z" fill="#C2C1C1"/><path d="M50.917 8.048l12.425 13.54a1.438 1.438 0 0 1-.48 2.273c-4.27 1.905-9.365.832-12.578-2.745-3.213-3.578-3.746-8.77-1.41-12.827.487-.845 1.39-.967 2.043-.241z" fill="#C2C1C1"/><path d="M110.223 86.406c1.436 5.761 7.27 9.267 13.031 7.83 5.761-1.436 9.266-7.27 7.83-13.03l-7.742-31.05c-1.436-5.761-7.27-9.267-13.031-7.83-5.761 1.436-9.266 7.27-7.83 13.03l7.742 31.05z" fill="#D1D1D1"/><path fill-rule="evenodd" clip-rule="evenodd" d="M55.307 111.009l10.625 14.1a5.105 5.105 0 1 1-8.156 6.145l-10.624-14.099a5.106 5.106 0 0 1 8.155-6.146z" fill="#D1D1D1"/><path fill-rule="evenodd" clip-rule="evenodd" d="M69.982 110.576l5.517 9.364a10.472 10.472 0 0 1-2.72 13.679l-1.658 1.249c-4.618 3.48-11.184 2.558-14.664-2.061L51.9 126.76c-3.48-4.619-2.558-11.185 2.06-14.665l4.94-3.723a7.573 7.573 0 0 1 11.082 2.204zM111.78 65.542l-10.474-2.904A10.471 10.471 0 0 1 93.76 50.91l.325-2.05c.905-5.713 6.269-9.61 11.981-8.705l7.479 1.184c5.712.905 9.609 6.269 8.704 11.98l-.968 6.11a7.572 7.572 0 0 1-9.501 6.113z" fill="#D1D1D1"/><path fill-rule="evenodd" clip-rule="evenodd" d="M67.316 58.469a.75.75 0 0 1 .75-.75h2.587a2.292 2.292 0 1 1 0 4.584h-2.958c-2.958 0-5.83-1-8.15-2.838a.75.75 0 0 1 .933-1.176 11.62 11.62 0 0 0 7.217 2.514h2.958a.792.792 0 1 0 0-1.584h-2.588a.75.75 0 0 1-.75-.75z" fill="#B2B2B2"/><path fill-rule="evenodd" clip-rule="evenodd" d="M67.315 61.553a.75.75 0 0 1 .75-.75h2.588a2.292 2.292 0 0 1 0 4.584H67.79a.75.75 0 0 1 0-1.5h2.862a.792.792 0 0 0 0-1.584h-2.588a.75.75 0 0 1-.75-.75z" fill="#B2B2B2"/></g><defs><clipPath id="clip0"><path fill="#fff" d="M0 0h135v124H0z"/></clipPath></defs></svg>