<svg id="Cover" xmlns="http://www.w3.org/2000/svg" viewBox="0 0 135 124"><defs><style>.cls-4{fill:#ffd300}.cls-6,.cls-9{fill:#fff}.cls-7{fill:#f68f00}.cls-8{fill:#e92b2b}.cls-9{opacity:.4}</style></defs><path d="M124 30.45V28a17 17 0 0 0-17-17H28a17 17 0 0 0-17 17v2.17a.87.87 0 0 1 .9.92c-.05 6.15 0 12.16-.36 18.31a1 1 0 0 1-.54.84V107a17 17 0 0 0 17 17h79a17 17 0 0 0 17-17V48.62c-3.47-4.18-.8-12.55-.69-17.23a1 1 0 0 1 .69-.94z" fill="#ff4b4b"/><path d="M107 11H28a17 17 0 0 0-17 17v2.17a.87.87 0 0 1 .9.92c0 2.5 0 5-.05 7.46a57.79 57.79 0 0 0 110.9 1.75 29.89 29.89 0 0 0-.14-8.4 1.09 1.09 0 0 1 1.39-1.23V28a17 17 0 0 0-17-17z" fill="#ff6360"/><path d="M124 102.6v4.4a17 17 0 0 1-17 17H28a17 17 0 0 1-17-17v-4.4z" fill="#7b482d"/><path class="cls-4" d="M76.19 19.93a8.72 8.72 0 0 1-17.43 0C58.76 11.82 67.47 0 67.47 0s8.72 12 8.72 19.93z"/><path d="M67.55 37.45a.87.87 0 0 1-.86-.87V25.93a.86.86 0 1 1 1.72 0v10.65a.86.86 0 0 1-.86.87z" fill="#2d2d2d"/><path class="cls-6" d="M59.29 36.47h16.37v39.55H59.29z"/><rect class="cls-6" x="57.22" y="33.46" width="20.67" height="6.24" rx="3.11" ry="3.11"/><path class="cls-6" d="M57.22 36.57h4.09v18.64H60.2a3 3 0 0 1-3-3V36.57h.02z"/><path class="cls-7" d="M67.55 29.5a.87.87 0 0 1-.86-.86v-6.81a.86.86 0 1 1 1.72 0v6.81a.86.86 0 0 1-.86.86z"/><rect class="cls-4" x="54.78" y="76.02" width="25.55" height="4.65" rx="2.33" ry="2.33"/><path class="cls-7" d="M57.63 80.67h19.85v12.78H57.63z"/><path class="cls-4" d="M40.47 90.64h54.17a2.09 2.09 0 0 1 2.09 2.09 10 10 0 0 1-10 10h-38.4a10 10 0 0 1-10-10 2.09 2.09 0 0 1 2.09-2.09z"/><path class="cls-6" d="M11 75.93V30h16.33a3.11 3.11 0 0 1 3.08 2.68l2.21 16.38A23.73 23.73 0 0 1 11 75.93z"/><path class="cls-8" d="M11 45.85v27A20.67 20.67 0 0 0 29.56 49.5l-.51-3.65z"/><path class="cls-6" d="M11 96.4v6.29h13.38a1.93 1.93 0 0 0 .34-3.82z"/><path class="cls-9" d="M24.82 53.79A3.09 3.09 0 0 1 21.74 51l-.83-9.42a3.1 3.1 0 0 1 6.18-.58l.83 9.42a3.1 3.1 0 0 1-2.82 3.36z"/><path class="cls-6" d="M124 30v45.9a23.73 23.73 0 0 1-21.62-26.84l2.21-16.38a3.11 3.11 0 0 1 3.08-2.68z"/><path class="cls-8" d="M124 45.85v27a20.67 20.67 0 0 1-18.56-23.35l.51-3.65z"/><path class="cls-6" d="M124 96.4v6.29h-13.38a1.93 1.93 0 0 1-.34-3.82z"/><path class="cls-9" d="M110.18 53.79h-.28a3.1 3.1 0 0 1-2.82-3.36l.83-9.42a3.1 3.1 0 1 1 6.18.54l-.83 9.45a3.09 3.09 0 0 1-3.08 2.79z"/></svg>