<svg viewBox="0 0 135 124" fill="none" xmlns="http://www.w3.org/2000/svg"><g clip-path="url(#clip0)"><path d="M11 28c0-9.389 7.611-17 17-17h79c9.389 0 17 7.611 17 17v79c0 9.389-7.611 17-17 17H28c-9.389 0-17-7.611-17-17V28z" fill="#FFCA00"/><path d="M122.44 20.93L20.92 122.45a16.937 16.937 0 0 0 7.08 1.56h41.32L124 69.33V28.01a16.938 16.938 0 0 0-1.56-7.08zM50.32 69.07l58-58c-.43 0-.87-.07-1.31-.07H58.42L25.34 44.09c-6.904 6.904-6.904 18.096 0 25 6.903 6.904 18.096 6.904 25 0l-.02-.02z" fill="#FFD900"/><path d="M57.38 84.06a1.02 1.02 0 1 0-2.04 0v32.791a1.02 1.02 0 0 0 2.04 0v-32.79z" fill="#FFBB31"/><path d="M56.06 111.151a1.02 1.02 0 0 0-.225 1.425l3.523 4.849a1.02 1.02 0 1 0 1.65-1.199l-3.523-4.849a1.02 1.02 0 0 0-1.425-.226z" fill="#FFBB31"/><path d="M56.668 111.151c.456.331.557.969.225 1.425l-3.522 4.849a1.02 1.02 0 1 1-1.651-1.199l3.523-4.849a1.02 1.02 0 0 1 1.425-.226zm51.647.04a1.02 1.02 0 0 0-.226 1.425l3.523 4.849a1.02 1.02 0 1 0 1.651-1.199l-3.523-4.849a1.02 1.02 0 0 0-1.425-.226z" fill="#FFBB31"/><path d="M108.922 111.191c.456.332.557.97.226 1.425l-3.523 4.849a1.02 1.02 0 1 1-1.65-1.199l3.523-4.849a1.02 1.02 0 0 1 1.424-.226z" fill="#FFBB31"/><path d="M76.388 92.956H63.806a1.53 1.53 0 0 0-1.53 1.53v14.792c0 .845.685 1.53 1.53 1.53h12.582a1.53 1.53 0 0 0 1.53-1.53V94.486a1.53 1.53 0 0 0-1.53-1.53z" fill="#FAA401"/><path d="M78.003 92.956H61.936a.85.85 0 0 0-.85.85v1.063c0 .469.38.85.85.85h16.067a.85.85 0 0 0 .85-.85v-1.063a.85.85 0 0 0-.85-.85z" fill="#FFBB31"/><path d="M111.98 72.157l-10.263 8.019a1.148 1.148 0 0 0-.198 1.61l6.778 8.676c.39.5 1.112.588 1.611.198l10.263-8.019c.499-.39.588-1.111.198-1.61l-6.778-8.676a1.148 1.148 0 0 0-1.611-.198z" fill="#FAA401"/><path d="M112.349 70.952l-11.891 9.29a.638.638 0 0 0-.109.895l.471.603a.637.637 0 0 0 .895.11l11.89-9.29a.637.637 0 0 0 .11-.895l-.471-.603a.638.638 0 0 0-.895-.11z" fill="#FFBB31"/><path d="M106.988 84.54H92.366c-.634 0-1.148.513-1.148 1.147v5.823c0 .634.514 1.148 1.148 1.148h14.622c.634 0 1.148-.514 1.148-1.148v-5.823c0-.634-.514-1.147-1.148-1.147z" fill="#FAA401"/><path d="M108.05 84.454H91.303a.638.638 0 0 0-.638.638v.765c0 .352.286.638.638.638h16.747a.637.637 0 0 0 .638-.638v-.765a.637.637 0 0 0-.638-.638z" fill="#FFBB31"/><path d="M120.173 81.047l-11.891 9.29a.639.639 0 0 0-.11.895l.472.603a.637.637 0 0 0 .895.11l11.89-9.29a.637.637 0 0 0 .11-.895l-.471-.603a.638.638 0 0 0-.895-.11z" fill="#FF9600"/><path d="M108.05 91.085H91.303a.638.638 0 0 0-.638.638v.765c0 .352.286.638.638.638h16.747a.637.637 0 0 0 .638-.638v-.765a.637.637 0 0 0-.638-.638z" fill="#FF9600"/><path d="M62.922 80.096a1.02 1.02 0 1 0-2.026-.243l-.374 3.124a1.02 1.02 0 1 0 2.026.242l.373-3.123zm46.701 1.474a1.02 1.02 0 1 0-2.04 0v35.28a1.02 1.02 0 1 0 2.04 0V81.57z" fill="#FFBB31"/><path d="M41.588 10.895a10.77 10.77 0 0 0-.058-.52C40.732 4.538 35.352.45 29.513 1.249c-5.839.797-9.925 6.177-9.128 12.016.783 5.73 5.977 9.771 11.687 9.168.015.173.035.346.058.52.798 5.838 6.178 9.925 12.017 9.128 5.839-.798 9.926-6.178 9.128-12.017-.782-5.729-5.976-9.771-11.687-9.168z" fill="#FF9600"/><rect x="11.576" y="25.064" width="64.712" height="51.814" rx="12.861" transform="rotate(-7.778 11.576 25.064)" fill="#FFB100"/><path d="M14.001 56.173a5.765 5.765 0 1 0-1.56-11.425A5.765 5.765 0 0 0 14 56.173zm67.698-9.247a5.766 5.766 0 1 0-1.56-11.425 5.766 5.766 0 0 0 1.56 11.425z" fill="#FFB100"/><path d="M19.809 24.823c-4.496 2.501-7.23 7.58-6.492 12.984l1.342 9.824.468-.064a7.717 7.717 0 0 0 6.601-8.69l-1.92-14.054zm47.889-6.542c5.002 1.204 8.998 5.364 9.736 10.768l1.342 9.824-.468.064a7.717 7.717 0 0 1-8.69-6.602l-1.92-14.054z" fill="#FAA401"/><path d="M39.483 43.89c-5.158-1.829-10.823 1.821-10.96 7.42l-.101 4.16c-.222 9.075 6.623 16.771 15.662 17.61 9.774.908 18.337-6.508 18.836-16.312l.211-4.155c.166-3.271-2.815-5.59-5.732-5.344-1.58.133-3.626.187-5.957-.03-2.624-.243-7.514-1.773-11.96-3.35z" fill="#E27800" stroke="#FFB100" stroke-width="4.167"/><path d="M45.906 37.316c.145-.02 1.711 1.847 3.314 3.811 1.595 1.955.42 4.885-2.08 5.226-2.5.342-4.418-2.166-3.405-4.477 1.017-2.322 2.025-4.54 2.17-4.56z" fill="#F08904"/><path opacity=".6" d="M52.64 69.383a15.1 15.1 0 0 1-8.364 1.623 15.12 15.12 0 0 1-7.768-3.017l-.457-3.352a3.224 3.224 0 0 1 2.757-3.63l12.456-1.702 1.377 10.078z" fill="#FF9600"/><path d="M45.008 50.551a5.685 5.685 0 0 1-8.625-5.045 6.149 6.149 0 0 1 2.404.347c4.392 1.557 9.533 3.189 12.462 3.461 1.076.1 2.095.145 3.041.154a5.54 5.54 0 0 1-9.282 1.084z" fill="#FFF1A2"/><path d="M56.547 29.72l-6.695 7.862 14.134-3.836m-30.369-.894l8.558 5.779-14.645.095" stroke="#F08904" stroke-width="2.533" stroke-linecap="round" stroke-linejoin="round"/><path d="M106.008 14.077a1.042 1.042 0 0 1 2.039.392l-2.138 18.874-8.636 44.869a2.506 2.506 0 1 1-4.92-.947l8.635-44.87 5.02-18.318z" fill="#FAA401"/><path d="M106.598 16.514c-1.937-.372-2.9-2.407-2.465-4.331l.863-3.825c.32-1.419 1.895-2.294 3.552-1.976 1.657.32 2.794 1.717 2.564 3.153l-.618 3.874c-.311 1.948-1.959 3.478-3.896 3.105z" fill="#FFF1A2"/><path d="M96.227 57.136l2.024-10.517 6.71-8.347-2.024 10.517-6.71 8.347z" fill="#FF9600"/><path d="M120.206 18.445a1.041 1.041 0 0 1 1.619 1.3l-10.722 15.68-28.627 35.612a2.506 2.506 0 1 1-3.906-3.14l28.628-35.612 13.008-13.84z" fill="#FAA401"/><path d="M119.587 20.874c-1.537-1.236-1.436-3.484-.152-4.982l2.553-2.976c.946-1.104 2.748-1.141 4.063-.084 1.316 1.057 1.666 2.824.792 3.986l-2.36 3.135c-1.186 1.575-3.359 2.157-4.896.921z" fill="#FFF1A2"/><path fill-rule="evenodd" clip-rule="evenodd" d="M40.069 105.302l.949-6.667-11.137-1.544-1.567 11.003-.033-.005a5.29 5.29 0 0 1-.05.584c-.41 2.878-3.104 4.884-6.018 4.48-2.914-.404-4.943-3.065-4.533-5.944.41-2.878 3.104-4.884 6.018-4.48a5.36 5.36 0 0 1 1.716.541l1.774-12.457a1.184 1.184 0 0 1 1.34-.996L44.35 92.01c.649.09 1.1.682 1.01 1.322l-2.392 16.793-.032-.004a5.25 5.25 0 0 1-.05.583c-.41 2.879-3.105 4.885-6.018 4.48-2.914-.404-4.944-3.065-4.534-5.943.41-2.879 3.105-4.885 6.018-4.48a5.36 5.36 0 0 1 1.717.54zm48.108-82.555l-3.662-12.17c-.199-.66.202-1.35.895-1.539l8.134-2.223c.693-.19 1.416.193 1.614.853l1.258 4.18c.199.66-.202 1.349-.895 1.538l-5.632 1.54 3.415 11.35-.01.003c.036.097.07.195.1.296.843 2.804-.855 5.729-3.794 6.532-2.94.803-6.006-.82-6.85-3.623-.844-2.805.855-5.73 3.794-6.533a5.786 5.786 0 0 1 1.633-.204zm34.416 37.87l.847-5.947-9.935-1.378-1.398 9.816-.029-.004a4.62 4.62 0 0 1-.045.52c-.366 2.568-2.769 4.358-5.368 3.997-2.6-.36-4.41-2.734-4.045-5.302.366-2.568 2.77-4.357 5.369-3.997.55.076 1.065.243 1.531.482l1.583-11.112a1.055 1.055 0 0 1 1.195-.889l14.115 1.958c.579.08.982.608.9 1.179l-2.133 14.98-.029-.003a4.6 4.6 0 0 1-.045.52c-.365 2.568-2.769 4.358-5.368 3.997-2.599-.36-4.41-2.734-4.044-5.302.365-2.568 2.769-4.357 5.368-3.997a4.81 4.81 0 0 1 1.531.482z" fill="#E27800"/><path d="M62.724 81.743l-2.013-.35.184-1.54a1.02 1.02 0 0 1 2.026.243l-.197 1.647z" fill="#FF9600"/><path d="M63.8 75.683l11.099 5.76a.51.51 0 0 1-.323.955L48.86 77.944a.51.51 0 0 1 .018-1.008l12.39-1.692a4.251 4.251 0 0 1 2.533.439z" fill="#FFF1A2"/><path d="M57.38 86.011v-1.95a1.03 1.03 0 0 0-.012-.159l-2.028.544v2.112l2.04-.547z" fill="#FF9600"/><path d="M66.561 111.94a1.22 1.22 0 1 0-2.357-.631l-1.344 5.018a1.22 1.22 0 1 0 2.357.631l1.344-5.018zM61.67 84.248a1.02 1.02 0 1 0-.29-2.02l-17.335 2.49a1.02 1.02 0 1 0 .29 2.02l17.335-2.49z" fill="#FFBB31"/><path d="M66.132 113.543h-2.526l.598-2.234a1.22 1.22 0 0 1 2.358.631l-.43 1.603z" fill="#FF9600"/><path d="M78.003 109.108H61.936a.85.85 0 0 0-.85.85v1.063c0 .469.38.85.85.85h16.067a.85.85 0 0 0 .85-.85v-1.063a.85.85 0 0 0-.85-.85z" fill="#FF9600"/><path fill-rule="evenodd" clip-rule="evenodd" d="M75.886 112.588c-.167.697-.319 1.593-.456 2.451l-.064.404c-.106.672-.21 1.325-.3 1.7a1.42 1.42 0 1 1-2.76-.664c.062-.254.141-.754.249-1.43l.072-.458c.136-.852.304-1.853.5-2.673.222-.923.873-1.589 1.57-1.997.707-.413 1.564-.631 2.443-.631h20.865c.879 0 1.736.218 2.442.631.697.408 1.348 1.074 1.57 1.997.014.056.024.113.03.17l.517 4.502a1.42 1.42 0 0 1-2.82.323l-.5-4.349a.698.698 0 0 0-.23-.193c-.23-.135-.583-.243-1.009-.243H77.14c-.427 0-.78.108-1.009.243-.2.117-.242.21-.245.217z" fill="#FFBB31"/><path d="M74.798 109.864l-.1.057c-.698.408-1.348 1.074-1.57 1.997-.046.191-.09.392-.133.598.7 1.009 1.504 1.94 2.395 2.779l.04-.256c.137-.858.289-1.754.456-2.451 0-.001 0 0 0 0 .005-.011.049-.102.245-.217.102-.06.227-.114.372-.156a14.626 14.626 0 0 1-1.705-2.351zm23.575 2.292a14.68 14.68 0 0 0 1.726-2.418c.119.056.236.117.349.183.697.408 1.347 1.074 1.569 1.997.014.056.024.113.03.17l.011.09a17.605 17.605 0 0 1-2.512 3.01l-.301-2.624a.698.698 0 0 0-.231-.193 1.82 1.82 0 0 0-.641-.215z" fill="#FF9600"/><path d="M87.411 116.846c7.912 0 14.325-6.414 14.325-14.325s-6.413-14.325-14.325-14.325c-7.911 0-14.324 6.414-14.324 14.325s6.413 14.325 14.324 14.325z" fill="#FFF1A2"/><path fill-rule="evenodd" clip-rule="evenodd" d="M87.411 89.51c-7.185 0-13.01 5.826-13.01 13.011 0 7.186 5.825 13.011 13.01 13.011 7.186 0 13.011-5.825 13.011-13.011 0-7.185-5.825-13.01-13.01-13.01zm-15.638 13.011c0-8.637 7.001-15.638 15.638-15.638s15.639 7.001 15.639 15.638-7.002 15.639-15.639 15.639-15.638-7.002-15.638-15.639z" fill="#FFBB31"/><path d="M36.057 64.682a7.458 7.458 0 0 1 6.38-8.398l10.14-1.385a3.729 3.729 0 0 1 1.01 7.389l-17.53 2.394z" fill="#FF9600"/></g><defs><clipPath id="clip0"><path fill="#fff" d="M0 0h135v124H0z"/></clipPath></defs></svg>