<svg viewBox="0 0 135 124" fill="none" xmlns="http://www.w3.org/2000/svg"><g clip-path="url(#clip0)"><rect x="11" y="11" width="113" height="113" rx="17" fill="#9069CD"/><path d="M31.323 9.018a9.073 9.073 0 1 0-8.118 9.789 9.073 9.073 0 1 0 8.118-9.789z" fill="#FF9600"/><rect x="5.77" y="19.997" width="55.025" height="44.058" rx="10.936" transform="rotate(-7.626 5.77 19.997)" fill="#FFC6B7"/><path d="M12.77 19.811c-3.828 2.117-6.164 6.429-5.548 11.026l1.119 8.356.397-.053a6.562 6.562 0 0 0 5.633-7.374l-1.6-11.955zM53.506 14.357c4.25 1.036 7.638 4.581 8.254 9.178l1.119 8.357-.398.053a6.562 6.562 0 0 1-7.374-5.633l-1.6-11.955z" fill="#FFB67A"/><path d="M7.763 46.455a4.902 4.902 0 1 0-1.301-9.718 4.902 4.902 0 0 0 1.3 9.718zM65.347 38.745a4.902 4.902 0 1 0-1.301-9.718 4.902 4.902 0 0 0 1.3 9.718zM34.682 40.278c-5.783-4.623-11.655-2.824-13.867-1.346l.702 5.244 13.446-1.8-.281-2.098z" fill="#FFC6B7"/><path d="M24.942 21.156A9.505 9.505 0 1 0 34.992 34.2a9.505 9.505 0 1 0-1.263-9.433 9.501 9.501 0 0 0-8.787-3.612z" fill="#fff"/><path fill-rule="evenodd" clip-rule="evenodd" d="M39.605 24.104a3.014 3.014 0 0 1-5.722 1.668l-.015.034a7.53 7.53 0 0 0-6.926-2.813 7.501 7.501 0 0 0-3.412 1.359 3.014 3.014 0 0 1-3.047 5.037 7.534 7.534 0 0 0 14.401 4.004 7.534 7.534 0 1 0 3.027-11.611 3.011 3.011 0 0 1 1.694 2.322zm-11.77 1.943c-.116-.186-.419-.136-.474.076-.105.398-.269.89-.496 1.187-.216.284-.59.521-.909.687-.19.1-.186.403.016.479l.975.366a.464.464 0 0 1 .212.16l.753 1.035c.106.147.332.12.401-.048l.457-1.108a.465.465 0 0 1 .105-.155l.874-.851a.222.222 0 0 0-.07-.369l-.254-.093c-.272-.098-.486-.175-.716-.35-.347-.265-.6-.581-.874-1.016zm4.214 5.158a1.391 1.391 0 0 1 1.429 1.352c.024.867-.378 1.691-.906 2.29a3.836 3.836 0 0 1-2.352 1.273 1.391 1.391 0 0 1-.369-2.757c.232-.031.46-.16.637-.36a.843.843 0 0 0 .209-.369 1.39 1.39 0 0 1 1.352-1.429zm13.837-.31a1.391 1.391 0 1 0-2.781.076l-.002.006a.843.843 0 0 1-.207.365c-.176.2-.405.328-.637.36a1.39 1.39 0 1 0 .37 2.757 3.836 3.836 0 0 0 2.35-1.274c.53-.598.93-1.423.907-2.29zm-4.049-6.71c.055-.212.358-.262.474-.076.274.435.527.75.874 1.016.23.175.444.252.716.35l.253.093a.222.222 0 0 1 .07.369l-.873.851a.464.464 0 0 0-.105.155l-.457 1.108a.232.232 0 0 1-.401.048l-.753-1.034a.463.463 0 0 0-.212-.162l-.975-.365c-.202-.076-.207-.38-.016-.479.318-.166.692-.403.91-.687.226-.297.39-.789.495-1.187z" fill="#3D3D3D"/><path d="M46.88 48.569l.165-3.07c.158-2.946-2.5-4.977-5.056-4.769-1.13.093-2.596.128-4.266-.032-1.825-.174-5.343-1.277-8.644-2.457-4.278-1.53-9.015 1.481-9.142 6.166l-.083 3.073c-.192 7.11 5.155 13.154 12.235 13.83 7.656.731 14.38-5.06 14.792-12.741z" fill="#A41414" stroke="#FFC6B7" stroke-width="4.618"/><path d="M38.092 58.025a11.158 11.158 0 0 1-5.783.986 11.204 11.204 0 0 1-8.43-5.196 8.186 8.186 0 0 1 14.213 4.21z" fill="#E64340"/><path d="M31.959 44.776a4.21 4.21 0 0 0 .99-.433 4.094 4.094 0 0 0 7.047-1.225 26.777 26.777 0 0 1-2.492-.12c-2.164-.208-5.96-1.423-9.202-2.583a4.547 4.547 0 0 0-1.675-.265 4.2 4.2 0 0 0 5.332 4.626z" fill="#fff"/><path d="M37.947 36.787a2.585 2.585 0 0 1-5.125.686c-.189-1.415 1.827-5.026 1.934-5.04.106-.015 3.001 2.939 3.19 4.354z" fill="#EE9583"/><path d="M117.499 6.8l2.679 2.342c.883.772.974 2.114.202 2.997L106.901 27.56a2.124 2.124 0 0 1-2.997.202l-7.214-6.305a2.124 2.124 0 0 1 .258-3.392l18.013-11.458a2.124 2.124 0 0 1 2.538.193z" fill="#FF70E2"/><path d="M97.504 22.17l5.291 4.624-31.943 36.57a1.73 1.73 0 0 0 .999 2.84l.072.012L39.67 99.017l-5.29-4.624 23.408-30.87a5.764 5.764 0 0 0 5.235-1.901L97.504 22.17z" fill="#DC56C1"/><path d="M106.075 8.393a2.614 2.614 0 1 0 3.441-3.937 2.614 2.614 0 0 0-3.441 3.937zM98.176 13.208a2.614 2.614 0 1 0 3.441-3.936 2.614 2.614 0 0 0-3.44 3.936zM86.5 70.768a2.124 2.124 0 0 1-.761 1.292L56.854 95.312l-6.733 21.66a2.452 2.452 0 0 1-3.371 1.563L4.044 98.641a2.451 2.451 0 0 1-.244-4.337L37.826 73.69l8.492-10.946a2.778 2.778 0 0 1 2.7-1.03l35.751 6.598c1.156.2 1.931 1.3 1.73 2.456z" fill="#FF70E2"/><path d="M54.906 72.56l7.394 1.916 4.144-5.264c.266-.338.7-.498 1.121-.415l10.892 2.161a1.797 1.797 0 0 1 .777 3.164L59.269 90.183a1.144 1.144 0 0 1-1.392.033l-4.102-2.997a1.144 1.144 0 0 1-.248-1.599l.024-.033 2.896-3.677-6.063-2.153a1.798 1.798 0 0 1-.72-2.913l3.47-3.763a1.798 1.798 0 0 1 1.772-.521z" fill="#FFD7F6"/><path d="M43.797 110.437a2.615 2.615 0 1 0 3.441-3.938 2.615 2.615 0 0 0-3.44 3.938z" fill="#DC56C1"/><path d="M112.443 11.784a.653.653 0 0 1 1.001.84l-.02.023-76.827 87.287a.654.654 0 0 1-1.001-.84l.02-.024 76.827-87.286zM103.468 17.83a.654.654 0 0 1 1.002.84l-.02.024-70.356 79.977a.654.654 0 0 1-1.002-.84l.02-.024 70.356-79.976z" fill="#FAFAFA"/><path d="M31.661 93.102l9.228 8.065c.476.415.524 1.138.109 1.614l-1.828 2.091a1.143 1.143 0 0 1-1.614.109l-9.228-8.065a1.144 1.144 0 0 1-.109-1.614l1.828-2.092a1.144 1.144 0 0 1 1.614-.108z" fill="#DC56C1"/><path fill-rule="evenodd" clip-rule="evenodd" d="M86.2 18.953l1.19-5.611-9.21-1.964-1.963 9.261-.027-.006a4.557 4.557 0 0 1-.077.494c-.513 2.422-2.883 3.97-5.292 3.456-2.41-.513-3.947-2.894-3.433-5.316.513-2.423 2.883-3.97 5.292-3.457.51.108.98.3 1.401.56l2.223-10.485a.994.994 0 0 1 1.178-.768l13.085 2.789a.997.997 0 0 1 .765 1.182l-2.996 14.134-.027-.005a4.532 4.532 0 0 1-.077.493c-.513 2.422-2.883 3.97-5.292 3.456-2.41-.513-3.947-2.893-3.433-5.316.513-2.423 2.883-3.97 5.292-3.457.51.109.981.301 1.402.56z" fill="#FFD7F6"/><path fill-rule="evenodd" clip-rule="evenodd" d="M122.474 38.088l.771-4.842-7.948-1.275-1.273 7.991-.023-.004c-.006.14-.021.282-.044.425-.332 2.09-2.288 3.515-4.367 3.181-2.08-.333-3.496-2.299-3.163-4.39.333-2.09 2.289-3.514 4.368-3.18.44.07.85.214 1.221.416l1.44-9.047a.85.85 0 0 1 .973-.708l11.292 1.812a.852.852 0 0 1 .704.976l-1.942 12.197-.023-.004c-.007.14-.021.282-.044.424-.333 2.091-2.288 3.515-4.368 3.182-2.079-.334-3.495-2.299-3.162-4.39.333-2.09 2.288-3.515 4.368-3.181.44.07.85.214 1.22.417zM20.065 73.976l-.737-3.969-6.517 1.202 1.215 6.55-.018.004a3.143 3.143 0 0 1-2.429 4.013 3.152 3.152 0 0 1-3.663-2.533 3.143 3.143 0 0 1 2.511-3.672c.361-.067.719-.069 1.062-.014l-1.376-7.415a.7.7 0 0 1 .559-.817l9.26-1.708c.379-.07.744.182.815.564l1.855 9.997-.018.003a3.143 3.143 0 0 1-2.429 4.013 3.152 3.152 0 0 1-3.663-2.533 3.143 3.143 0 0 1 2.511-3.672c.36-.067.719-.068 1.062-.013z" fill="#FF70E2"/><path d="M77.2 63.563h.002a7.687 7.687 0 0 1 8.395-6.72l36.037 3.599a7.685 7.685 0 0 1 6.899 8.247h.002l-3.518 35.233a2.66 2.66 0 0 0 2.383 2.911l5.197.518c.609.061 1.053.604.992 1.213-.594 5.958-5.907 10.306-11.865 9.711l-47.651-4.758c-5.958-.595-10.306-5.907-9.711-11.865a1.109 1.109 0 0 1 1.213-.993l5.197.519a2.66 2.66 0 0 0 2.91-2.382l3.519-35.233z" fill="#FFB100"/><path d="M80.96 64.95l43.614 4.354-4.345 43.52-43.614-4.355 4.346-43.52z" fill="#FFC6B7"/><path d="M76.929 84.304a4.837 4.837 0 1 0 .961-9.626 4.837 4.837 0 0 0-.961 9.626zM124.701 89.074a4.838 4.838 0 1 0 .96-9.628 4.838 4.838 0 0 0-.96 9.628z" fill="#FFC6B7"/><path d="M74.398 109.032a1.33 1.33 0 0 1 1.456-1.191l45.245 4.517a1.33 1.33 0 0 1 1.191 1.456l-.448 4.483a1.33 1.33 0 0 1-1.455 1.192l-45.245-4.518a1.33 1.33 0 0 1-1.191-1.455l.448-4.484z" fill="#FF4B4B"/><path d="M76.094 74.837a4.837 4.837 0 0 1 5.818 2.872 5.39 5.39 0 0 0 2.322-3.92l.673-6.74-7.956-.794-.857 8.582zM121.127 81.63a4.835 4.835 0 0 1 6.264-1.675l.856-8.578-7.956-.794-.673 6.739a5.392 5.392 0 0 0 1.509 4.309z" fill="#FFB100"/><path d="M75.918 62.014a1.33 1.33 0 0 1 1.456-1.19l51.533 5.145a1.33 1.33 0 0 1 1.192 1.455l-.365 3.652a1.33 1.33 0 0 1-1.455 1.191l-51.534-5.145a1.33 1.33 0 0 1-1.192-1.456l.365-3.652z" fill="#FF4B4B"/><path d="M104.333 68.648c5.9.59 11.159-3.715 11.748-9.614.589-5.9-3.715-11.16-9.615-11.748a10.727 10.727 0 0 0-9.596 4.162l-1.797-2.424c-.495-.667-1.48-.723-1.936-.029a9.325 9.325 0 0 0-1.485 4.205 9.36 9.36 0 0 0 3.635 8.375 10.735 10.735 0 0 0 9.046 7.073z" fill="#FFB100"/><path d="M96.023 110.592a.958.958 0 0 1 1-.638l2.909.291c.44.044.793.384.853.822l1.118 8.149a.956.956 0 0 1-1.043 1.083l-6.736-.672a.958.958 0 0 1-.809-1.268l2.708-7.767z" fill="#EBE3E3"/><path d="M94.061 66.856c-5.515-.55-10.432 3.474-10.983 8.99-.55 5.514 3.474 10.431 8.99 10.982a10.03 10.03 0 0 0 9.143-4.123 10.032 10.032 0 0 0 8.149 5.85c5.515.55 10.432-3.474 10.983-8.989.551-5.515-3.474-10.432-8.989-10.983a10.03 10.03 0 0 0-9.144 4.123 10.032 10.032 0 0 0-8.149-5.85z" fill="#fff"/><path fill-rule="evenodd" clip-rule="evenodd" d="M108.408 73.455a3.183 3.183 0 0 1-6.285.32l-.023.031a7.952 7.952 0 0 0-6.43-4.575 7.92 7.92 0 0 0-3.838.565 3.182 3.182 0 0 1-4.357 4.434 7.955 7.955 0 0 0 13.822 7.619 7.956 7.956 0 1 0 5.935-11.193 3.18 3.18 0 0 1 1.176 2.799zm-12.565-.87c-.074-.218-.397-.24-.506-.036-.204.383-.492.848-.798 1.098-.292.24-.734.392-1.101.485-.22.056-.29.368-.1.495l.912.614a.49.49 0 0 1 .179.217l.521 1.246a.245.245 0 0 0 .425.049l.739-1.028a.49.49 0 0 1 .145-.133l1.105-.662a.234.234 0 0 0 .017-.396c-.084-.058-.163-.11-.237-.157-.256-.167-.457-.298-.65-.534-.293-.358-.475-.744-.65-1.258zm3.074 6.326a1.469 1.469 0 0 1 1.139 1.736c-.187.897-.8 1.646-1.488 2.132a4.05 4.05 0 0 1-2.726.736 1.469 1.469 0 0 1 .291-2.922c.247.024.513-.053.742-.215a.892.892 0 0 0 .302-.324c.003-.006.003-.007.003-.004a1.469 1.469 0 0 1 1.737-1.14zm14.291 3.05a1.469 1.469 0 0 0-2.876-.598v-.002l-.003.006c-.014.03-.086.172-.301.324-.23.162-.496.24-.742.215a1.47 1.47 0 0 0-.292 2.922 4.05 4.05 0 0 0 2.726-.736c.688-.485 1.302-1.235 1.488-2.131zm-2.526-7.88c.108-.204.431-.182.505.037.176.513.358.9.651 1.257.193.236.394.367.65.534.074.048.153.1.237.157a.234.234 0 0 1-.017.396l-1.104.662a.494.494 0 0 0-.146.134l-.739 1.027a.245.245 0 0 1-.425-.049l-.521-1.246a.487.487 0 0 0-.179-.217l-.912-.614c-.189-.126-.12-.44.1-.495.367-.093.809-.246 1.101-.484.306-.25.594-.716.799-1.1z" fill="#3D3D3D"/><path d="M101.255 82.278c.115.011.969 1.724 1.834 3.518.861 1.786-.574 3.809-2.546 3.612-1.972-.197-2.978-2.464-1.782-4.044 1.203-1.588 2.379-3.098 2.494-3.086z" fill="#F3A577"/><path d="M79.509 78.543l-1.043 10.44 21.715 2.169c-3.13-6.754-9.647-11.725-17.59-12.518a21.962 21.962 0 0 0-3.082-.09zM123.216 82.908l-1.043 10.44-21.714-2.168c4.404-6.001 11.775-9.586 19.717-8.793 1.04.104 2.054.28 3.04.52z" fill="#FFC6B7"/><path d="M97.276 89.595c-.68-.448-1.614-.05-1.695.759l-.742 7.429a4.935 4.935 0 0 0 4.422 5.402 4.935 4.935 0 0 0 5.402-4.421l.742-7.43c.081-.809-.757-1.383-1.511-1.078-1.082.436-2.24.748-3.405.632-1.166-.117-2.24-.651-3.213-1.293z" fill="#A41414"/><path d="M103.987 100.81a4.937 4.937 0 1 0-8.89-.887 4.94 4.94 0 0 0 8.89.887z" fill="#E34545"/></g><defs><clipPath id="clip0"><path fill="#fff" d="M0 0h135v124H0z"/></clipPath></defs></svg>