<svg viewBox="0 0 135 124" version="1.1" xmlns="http://www.w3.org/2000/svg"><g stroke="none" stroke-width="1" fill="none" fill-rule="evenodd"><path d="M28 11h79c9.389 0 17 7.611 17 17v79c0 9.389-7.611 17-17 17H28c-9.389 0-17-7.611-17-17V28c0-9.389 7.611-17 17-17z" fill="#E27800"/><path d="M44.524 23.364a5.84 5.84 0 0 0 8.678 3.536l.115-.07a5.288 5.288 0 0 1 7.97 3.769l.694 4.806" stroke="#E27800" stroke-width="2"/><g transform="rotate(-18 141.108 60.157)"><rect fill="#FFCA00" x="38.844" y="81.857" width="61.38" height="8.91" rx="2.97"/><rect fill="#FFCA00" transform="rotate(-50 128.7 51.24)" x="119.79" y="46.785" width="17.82" height="8.91" rx="2.97"/><rect fill="#FFCA00" transform="rotate(50 9.9 51.24)" x=".99" y="46.785" width="17.82" height="8.91" rx="2.97"/><path d="M91.785 1.462c.722.368 1.416.822 2.064 1.365a26.8 26.8 0 0 1 2.787 2.337l35.142 29.49a7.92 7.92 0 0 1 .976 11.157l-8.272 9.86a7.92 7.92 0 0 1-11.158.976l-8.48-7.115v29.355a5.94 5.94 0 0 1-5.94 5.94h-59.4a5.94 5.94 0 0 1-5.94-5.94V49.672l-8.31 6.975a7.92 7.92 0 0 1-11.158-.977l-8.273-9.859A7.92 7.92 0 0 1 6.8 34.653L40.924 6.018a26.871 26.871 0 0 1 4.218-3.604c1.031-.71 4.193-.279 4.317-.088 4.062 6.23 11.093 10.348 19.085 10.348 8.418 0 15.77-4.568 19.71-11.36.1-.172.344-.16.733.036a1.98 1.98 0 0 0 1.706.037c.366-.166.73-.14 1.092.075z" fill="#FFB100"/><path d="M90.61.82c.478.246.869.46 1.175.642.722.368 1.416.822 2.064 1.365l.228.171c-4.641 8.814-13.89 14.823-24.543 14.823h-.99c-10.581 0-19.778-5.93-24.45-14.646.774-.59 1.954-1.34 3.541-2.25a.99.99 0 0 1 1.269.246c5.538 7.008 12.415 10.513 20.63 10.513 7.912 0 14.082-3.396 18.51-10.187A1.98 1.98 0 0 1 90.61.819z" fill="#FFCA00"/><g><path d="M53.535 42.686l.267.135 15.216 8.116 15.216-8.116a7.5 7.5 0 0 1 6.793-.135l.267.135 13.551 7.229v12.364a5.515 5.515 0 0 1-.716-.284l-.207-.105-16.159-8.62-15.215 8.117a7.5 7.5 0 0 1-6.793.136l-.267-.136-15.217-8.117-16.157 8.62c-.18.096-.364.181-.55.255V49.85l.029-.015 13.149-7.014a7.5 7.5 0 0 1 6.793-.135z" fill="#FFCA00"/><path d="M52.39 52.91l.235.117 16.392 8.744 16.394-8.744a5 5 0 0 1 4.472-.117l.235.117 14.726 7.856v6.8l-17.08-9.112-16.393 8.746a5 5 0 0 1-4.472.117l-.234-.117L50.27 58.57l-16.707 8.914v-6.8l14.354-7.658a5 5 0 0 1 4.472-.117z" fill="#FFDF4A"/></g></g><path d="M31.428 3.513l-6.524 7.246a3.125 3.125 0 0 0 .231 4.413l10.479 9.435a3.125 3.125 0 0 0 2.634.756l6.092-1.075a3.125 3.125 0 0 0 2.575-2.86l.431-6.17a3.125 3.125 0 0 0-1.026-2.541L35.841 3.282a3.125 3.125 0 0 0-4.413.231zM42.455 18a2 2 0 1 1 0 4 2 2 0 0 1 0-4z" fill="#FFDF4A"/></g></svg>