<svg viewBox="0 0 135 124" fill="none" xmlns="http://www.w3.org/2000/svg"><g clip-path="url(#clip0)"><path fill-rule="evenodd" clip-rule="evenodd" d="M30 11h79c9.389 0 17 7.611 17 17v79c0 9.389-7.611 17-17 17H30c-9.389 0-17-7.611-17-17V28c0-9.389 7.611-17 17-17z" fill="#9069CD"/><path d="M113.957 110.105a2.461 2.461 0 0 0 .424-3.454l-11.083-14.185c-.404-2.497 2.875-3.825 4.398-1.052.442.803.816 1.345 1.123 1.624l4.763 8.575a2.466 2.466 0 0 0 3.349.96 2.457 2.457 0 0 0 .958-3.342l-10.671-19.21.005-.005-3.988-7.315c-3.36-6.161-10.466-8.978-16.947-7.164L45.701 9.287a8.29 8.29 0 1 0-13.054 10.2l44.758 52.989c-2.865 5.05-2.588 11.539 1.209 16.398a14.778 14.778 0 0 0 1.642 1.78l.822.756c.112.182.25.352.414.504l20.842 19.47a2.457 2.457 0 0 0 3.472-.118l.003-.003a2.465 2.465 0 0 0-.122-3.481l-8.904-8.317c-2.16-2.416.787-5.464 3.325-3.09l10.395 13.306a2.461 2.461 0 0 0 3.454.424z" fill="#FFB100"/><path d="M25.043 110.105a2.46 2.46 0 0 1-.424-3.454l11.083-14.185c.404-2.497-2.875-3.825-4.398-1.052-.442.803-.816 1.345-1.123 1.624l-4.763 8.575a2.465 2.465 0 0 1-3.349.96 2.457 2.457 0 0 1-.958-3.342l10.671-19.21-.006-.005 3.99-7.315c3.358-6.161 10.465-8.978 16.946-7.164l40.587-56.25a8.29 8.29 0 1 1 13.054 10.2L61.595 72.476c2.865 5.05 2.588 11.539-1.209 16.398a14.778 14.778 0 0 1-1.642 1.78l-.822.756c-.112.182-.25.352-.414.504l-20.842 19.47a2.457 2.457 0 0 1-3.472-.118l-.003-.003a2.465 2.465 0 0 1 .122-3.481l8.904-8.317c2.16-2.416-.787-5.464-3.325-3.09L28.497 109.68a2.461 2.461 0 0 1-3.454.424zM127.864 32.428l-4.95-4.95a2 2 0 0 0-2.828 0l-4.95 4.95a2 2 0 0 0 0 2.829l4.95 4.95a2 2 0 0 0 2.828 0l4.95-4.95a2 2 0 0 0 0-2.829zM113.743 50.307l-2.829-2.828a2 2 0 0 0-2.828 0l-2.829 2.828a2 2 0 0 0 0 2.828l2.829 2.829a2 2 0 0 0 2.828 0l2.829-2.828a2 2 0 0 0 0-2.829zM38.278 44.843l-6.364-6.364a2 2 0 0 0-2.828 0l-6.364 6.364a2 2 0 0 0 0 2.828l6.364 6.364a2 2 0 0 0 2.828 0l6.364-6.364a2 2 0 0 0 0-2.828z" fill="#FFD900"/></g><defs><clipPath id="clip0"><path fill="#fff" d="M0 0h135v124H0z"/></clipPath></defs></svg>