<svg viewBox="0 0 135 124" fill="none" xmlns="http://www.w3.org/2000/svg"><path d="M11 28c0-9.389 7.611-17 17-17h79c9.389 0 17 7.611 17 17v79c0 9.389-7.611 17-17 17H28c-9.389 0-17-7.611-17-17V28z" fill="#E5E5E5"/><path d="M123.386 100.507l-5.622 1.325a1.214 1.214 0 0 0-.903 1.461l2.972 12.609a1.214 1.214 0 0 0 1.46.904l5.622-1.325a1.215 1.215 0 0 0 .904-1.461l-2.972-12.609a1.215 1.215 0 0 0-1.461-.904zM76.632 97.454l5.402 2.045c.627.237.943.938.706 1.566l-4.587 12.115a1.215 1.215 0 0 1-1.566.706l-5.402-2.045a1.215 1.215 0 0 1-.706-1.566l4.588-12.116a1.214 1.214 0 0 1 1.566-.705z" fill="#959595"/><path fill-rule="evenodd" clip-rule="evenodd" d="M112.148 62.88a7.895 7.895 0 0 1 9.391 6.038l7.868 36.197a4.859 4.859 0 0 1-3.716 5.779l-5.934 1.29a4.857 4.857 0 0 1-5.779-3.715l-7.868-36.198a7.894 7.894 0 0 1 6.038-9.391zM92.196 61.577A7.894 7.894 0 0 0 82.1 66.34l-12.51 34.867a4.858 4.858 0 0 0 2.932 6.213l5.716 2.051a4.858 4.858 0 0 0 6.213-2.932l12.51-34.867a7.894 7.894 0 0 0-4.765-10.096z" fill="#BFBFBF"/><path fill-rule="evenodd" clip-rule="evenodd" d="M93.427 97.45l1.355 1.801c.12.16.106.384-.034.527l-1.578 1.609a.405.405 0 0 1-.613-.04l-1.355-1.8a.405.405 0 0 1 .034-.527l1.578-1.61a.405.405 0 0 1 .613.04zM115.001 83.903l1.355 1.8a.404.404 0 0 1-.034.528l-1.578 1.609a.405.405 0 0 1-.613-.04l-1.355-1.8a.405.405 0 0 1 .035-.528l1.578-1.608a.404.404 0 0 1 .612.04zM87.329 84.781c.094.018.163.11.166.22l.128 5.114 4.029.79c.11.022.182.143.161.271-.017.108-.097.19-.192.196l-4.105.259-.761 4.702c-.021.128-.127.214-.237.193-.093-.019-.162-.11-.165-.22l-.143-4.76-4.036-.791c-.11-.022-.183-.143-.162-.271.017-.109.097-.19.192-.196l4.097-.26.792-5.053c.02-.128.126-.215.236-.194z" fill="#fff"/><path fill-rule="evenodd" clip-rule="evenodd" d="M87.147 87.25l-.496 3.162-3.114.197 3.068.602.09 2.965.474-2.929 3.12-.197-3.062-.6-.08-3.2zm4.427 4.052l.031-.16-.031.16zm-5.219 4.966zm-4.125-5.576zm5.263-5.653zm-.8-.126c.047-.294.321-.603.712-.53.32.061.489.35.495.609l.12 4.788 3.71.728c.374.073.53.444.483.733-.041.254-.244.514-.566.535l-3.782.239-.71 4.383c-.048.294-.325.602-.715.525-.316-.062-.483-.347-.491-.604l-.134-4.438-3.72-.729c-.373-.073-.53-.444-.482-.733.04-.254.244-.515.566-.535l3.772-.239.743-4.732zm4.914 6.223l.038-.198-.038.198z" fill="#fff"/><path fill-rule="evenodd" clip-rule="evenodd" d="M102.033 66.255c7.24.473 12.726 6.726 12.253 13.966l-1.704 26.077-26.218-1.713 1.703-26.077c.473-7.24 6.726-12.726 13.966-12.253z" fill="#A6A6A6"/><path fill-rule="evenodd" clip-rule="evenodd" d="M86.486 94.536l8.066 1.977c.84.206 1.41.984 1.353 1.846l-.478 7.323a1.78 1.78 0 0 1-2.136 1.629l-8.087-1.663a1.781 1.781 0 0 1-1.419-1.861l.5-7.637a1.781 1.781 0 0 1 2.201-1.614zM113.303 96.266l-8.254.912a1.78 1.78 0 0 0-1.582 1.654l-.479 7.323a1.781 1.781 0 0 0 1.907 1.893l8.234-.597a1.781 1.781 0 0 0 1.649-1.66l.498-7.638a1.78 1.78 0 0 0-1.973-1.887z" fill="#959595"/><path fill-rule="evenodd" clip-rule="evenodd" d="M105.963 60.733c6.443-.893 12.39 3.606 13.283 10.05.012.088.024.177.034.267L121.697 92a9.102 9.102 0 0 1-8.671 10.138l-9.344.382a.403.403 0 0 1-.421-.43l2.702-41.358zM98.351 60.236c-6.077-1.704-12.384 1.84-14.088 7.917-.03.103-.057.207-.083.31l-5.23 20.895a8.978 8.978 0 0 0 7.163 11.024l9.063 1.583a.405.405 0 0 0 .474-.372l2.701-41.357z" fill="#D1D1D1"/><path fill-rule="evenodd" clip-rule="evenodd" d="M102.431 57.356a7.666 7.666 0 0 1 2.262.496c.029.008.058.017.086.027l8.446 2.956c.846.296 1.296 1.245 1.006 2.12-.023.07-.052.14-.084.207l-9.642 19.889-.608-9.682a7.66 7.66 0 0 1-2.528.255 7.663 7.663 0 0 1-2.565-.62l-1.912 9.55-6.634-20.978a1.698 1.698 0 0 1-.047-.184c-.174-.875.352-1.734 1.181-1.958l.082-.02 8.516-1.831c.022-.005.045-.01.068-.013a7.666 7.666 0 0 1 2.373-.214z" fill="#959595"/><path fill-rule="evenodd" clip-rule="evenodd" d="M102.183 60.487a3.825 3.825 0 0 1 3.568 4.067l-.001.016-2.081 29.972a3.78 3.78 0 0 1-4.017 3.51 3.764 3.764 0 0 1-3.511-4.002l1.958-29.98a3.842 3.842 0 0 1 4.084-3.583z" fill="#A6A6A6"/><path d="M44.999 92.933c.322-.87 1.553-.87 1.876 0l1.333 3.604a1 1 0 0 0 .59.59l3.604 1.334c.87.322.87 1.553 0 1.876L48.8 101.67a.999.999 0 0 0-.59.591l-1.334 3.603c-.322.871-1.554.871-1.876 0l-1.333-3.603a.999.999 0 0 0-.591-.591l-3.604-1.333c-.87-.323-.87-1.554 0-1.876l3.604-1.334a1 1 0 0 0 .59-.59L45 92.933zM90.999 18.534c.322-.87 1.553-.87 1.876 0l1.873 5.064a1 1 0 0 0 .591.59l5.063 1.874c.871.322.871 1.553 0 1.876l-5.063 1.873a1 1 0 0 0-.59.591l-1.874 5.063c-.323.87-1.554.87-1.876 0l-1.874-5.063a1 1 0 0 0-.59-.59l-5.064-1.874c-.87-.322-.87-1.554 0-1.876l5.064-1.874a1 1 0 0 0 .59-.59L91 18.534z" fill="#fff" fill-opacity=".5"/><path d="M103.499 39.534c.322-.87 1.554-.87 1.876 0l.388 1.05c.101.273.317.489.591.59l1.048.388c.871.322.871 1.553 0 1.876l-1.048.388a.999.999 0 0 0-.591.59l-.388 1.05c-.322.87-1.554.87-1.876 0l-.388-1.05a.999.999 0 0 0-.591-.59l-1.049-.388c-.87-.323-.87-1.554 0-1.876l1.049-.388a.999.999 0 0 0 .591-.59l.388-1.05z" fill="#fff"/><path d="M41.784 34.18c.631 9.476 8.761 16.719 18.278 16.222 9.602-.501 16.979-8.691 16.478-18.293-.502-9.602-8.692-16.98-18.294-16.478-2.44.127-4.737.752-6.797 1.77l-.085-.041a7.366 7.366 0 0 1-9.675-3.782c-3.236-5.23-9.15-8.58-15.724-8.237-9.602.501-16.979 8.692-16.478 18.293.063 1.202.246 2.37.538 3.49a17.354 17.354 0 0 0-4.415 12.52c.501 9.602 8.691 16.98 18.293 16.479 9.602-.502 16.98-8.692 16.478-18.294a17.495 17.495 0 0 0-.537-3.49c.205-.23.404-.463.596-.703l1.344.543z" fill="#959595"/><path d="M16.955 52.511a5.299 5.299 0 1 1-10.467 1.656 5.299 5.299 0 0 1 10.467-1.656zM80.572 42.448a5.299 5.299 0 1 1-10.467 1.655 5.299 5.299 0 0 1 10.467-1.655z" fill="#BFBFBF"/><path fill-rule="evenodd" clip-rule="evenodd" d="M13.454 61.215c-2.744-17.341 9.091-33.624 26.433-36.367 17.342-2.743 33.624 9.092 36.367 26.434l2.138 13.512a9.44 9.44 0 0 1-7.85 10.8L26.39 82.576a9.44 9.44 0 0 1-10.799-7.849l-2.137-13.512z" fill="#BFBFBF"/><path fill-rule="evenodd" clip-rule="evenodd" d="M28.354 43.534a6.489 6.489 0 1 1 12.818-2.028l.617 3.899a6.489 6.489 0 0 1-12.819 2.027l-.616-3.898z" fill="#fff"/><path fill-rule="evenodd" clip-rule="evenodd" d="M33.697 42.97a2.913 2.913 0 0 1 5.755-.91l.572 3.614a2.913 2.913 0 1 1-5.755.91l-.572-3.614z" fill="#959595"/><path fill-rule="evenodd" clip-rule="evenodd" d="M56.531 39.076a6.489 6.489 0 0 0-12.818 2.028l.617 3.898a6.489 6.489 0 1 0 12.818-2.027l-.617-3.899z" fill="#fff"/><path fill-rule="evenodd" clip-rule="evenodd" d="M51.68 40.125a2.913 2.913 0 0 0-5.755.91l.572 3.615a2.913 2.913 0 1 0 5.754-.91l-.571-3.615z" fill="#959595"/><path fill-rule="evenodd" clip-rule="evenodd" d="M26.404 50.02a2.821 2.821 0 0 1 2.744-2.897l.076 2.82c-.076-2.82-.075-2.82-.074-2.82h.039a10.238 10.238 0 0 1 .366-.003c.24 0 .581.005 1.01.02.857.03 2.067.104 3.519.276 2.891.34 6.81 1.076 10.832 2.674a2.821 2.821 0 1 1-2.083 5.244c-3.432-1.363-6.84-2.012-9.41-2.315a37.91 37.91 0 0 0-3.059-.24 24.716 24.716 0 0 0-1.022-.016l-.044.001h-.002a2.822 2.822 0 0 1-2.892-2.745z" fill="#BFBFBF"/><path d="M42.327 67.078a8.533 8.533 0 1 0-6.113-15.933l-6.938 2.662a8.532 8.532 0 1 0 6.112 15.933l6.939-2.662z" fill="#959595"/><path d="M32.227 56.94l23.379 3.708-1.833 11.553-23.379-3.707 1.833-11.554z" fill="#959595"/><path d="M42.136 67.048a8.533 8.533 0 1 1 10.742-13.26l5.775 4.678a8.533 8.533 0 0 1-10.743 13.26l-5.774-4.678z" fill="#959595"/><path fill-rule="evenodd" clip-rule="evenodd" d="M36.176 69.41c4.97-2.105 8.262-.5 11.106 1.761 2.844 2.262-3.172 6.707-3.172 6.707l-6.892-1.093s-6.013-5.27-1.042-7.375zM40.73 31.94l18.351-2.902 1.484 9.38-18.35 2.902-1.485-9.38z" fill="#BFBFBF"/><path fill-rule="evenodd" clip-rule="evenodd" d="M41.429 37.998a3.303 3.303 0 0 1 3.417-3.185l10.315.362a3.303 3.303 0 0 1-.232 6.602l-10.315-.362a3.303 3.303 0 0 1-3.185-3.417zM25.475 36.182a3.303 3.303 0 0 1 1.521-4.416l7.918-3.86a3.303 3.303 0 0 1 2.894 5.938l-7.917 3.86c-1.64.8-3.617.118-4.416-1.522z" fill="#959595"/><path d="M47.959 50.324a3.991 3.991 0 1 1-7.884 1.247 3.991 3.991 0 0 1 7.884-1.247z" fill="#BFBFBF"/><path d="M12.27 53.726l-3.5-22.13a7.776 7.776 0 0 1 11.343 5.647l1.204 7.612a7.776 7.776 0 0 1-9.047 8.871zM71.707 22.525l3.25 20.54a7.776 7.776 0 0 1-11.085-5.778l-.926-5.845a7.776 7.776 0 0 1 8.761-8.917z" fill="#959595"/></svg>