<svg viewBox="0 0 135 124" fill="none" xmlns="http://www.w3.org/2000/svg"><path d="M11 28c0-9.389 7.611-17 17-17h79c9.389 0 17 7.611 17 17v79c0 9.389-7.611 17-17 17H28c-9.389 0-17-7.611-17-17V28z" fill="#B2B2B2"/><path d="M75.12 70.98c.518-1.356 2.31-1.644 3.226-.517l5.315 6.535c3.279 4.03.965 10.1-4.165 10.923-5.13.824-9.229-4.215-7.377-9.07l3.002-7.87z" fill="#E5E5E5"/><path d="M76.695 75.926a.996.996 0 0 1 1.704-.274l2.808 3.453c1.733 2.13.51 5.335-2.2 5.77-2.71.436-4.876-2.226-3.898-4.79l1.586-4.16z" fill="#fff"/><path d="M75.173 93.049a2.4 2.4 0 0 1 1.924-3.04l5.33-.856a2.4 2.4 0 0 1 2.778 2.284l.809 22.889a2.267 2.267 0 0 1-4.44.713l-6.4-21.99z" fill="#C4C4C4"/><path d="M79.154 116.673a2.271 2.271 0 0 1 1.883-2.603l5.183-.833a2.272 2.272 0 1 1 .72 4.487l-5.182.832a2.272 2.272 0 0 1-2.604-1.883z" fill="#D5D5D5"/><path d="M75.302 90.966a2.012 2.012 0 0 0-.249 1.67l.845 2.902 9.399-1.51-.107-3.02a2.012 2.012 0 0 0-.759-1.508l-9.13 1.466z" fill="#A8A8A8"/><rect x="71.046" y="88.647" width="16.914" height="4.609" rx="2.304" transform="rotate(-9.124 71.046 88.647)" fill="#D5D5D5"/><path d="M15.91 24.807h.002a7.307 7.307 0 0 1 6.978-7.47l34.394-1.547a7.307 7.307 0 0 1 7.62 6.814h.001l1.512 33.626a2.529 2.529 0 0 0 2.64 2.413l4.96-.223a1.054 1.054 0 0 1 1.1 1.005c.255 5.686-4.147 10.503-9.834 10.759l-45.479 2.045c-5.686.256-10.503-4.147-10.759-9.833a1.053 1.053 0 0 1 1.005-1.1l4.96-.223a2.529 2.529 0 0 0 2.413-2.64L15.91 24.807z" fill="#BFBFBF"/><path d="M19.637 25.596l41.625-1.871L63.13 65.26l-41.626 1.872-1.867-41.536z" fill="#D8D8D8"/><path d="M18.494 44.356a4.598 4.598 0 1 0-.413-9.187 4.598 4.598 0 0 0 .413 9.187zM64.088 42.306a4.598 4.598 0 1 0-.412-9.187 4.598 4.598 0 0 0 .412 9.187z" fill="#D8D8D8"/><path d="M19.496 67.965a1.264 1.264 0 0 1 1.207-1.32l43.182-1.942a1.264 1.264 0 0 1 1.32 1.206l.192 4.28a1.264 1.264 0 0 1-1.206 1.32L21.008 73.45a1.264 1.264 0 0 1-1.32-1.206l-.192-4.28z" fill="#979797"/><path d="M16.413 35.564a4.598 4.598 0 0 1 5.866 1.905 5.125 5.125 0 0 0 1.648-4.005l-.29-6.432-7.593.342.369 8.19zM59.707 35.793a4.598 4.598 0 0 1 5.663-2.434l-.368-8.187-7.593.342.29 6.431a5.125 5.125 0 0 0 2.008 3.848z" fill="#BFBFBF"/><path d="M14.492 23.525a1.264 1.264 0 0 1 1.206-1.32l49.185-2.211a1.264 1.264 0 0 1 1.32 1.206l.156 3.485a1.264 1.264 0 0 1-1.206 1.32L15.97 28.217a1.264 1.264 0 0 1-1.32-1.206l-.157-3.486z" fill="#979797"/><path d="M42.131 25.878c5.63-.253 9.99-5.023 9.736-10.653-.253-5.63-5.022-9.99-10.653-9.736a10.198 10.198 0 0 0-8.458 5.23l-2.022-2.035c-.557-.56-1.492-.479-1.826.237a8.864 8.864 0 0 0-.821 4.159 8.897 8.897 0 0 0 4.566 7.382 10.206 10.206 0 0 0 9.478 5.416z" fill="#BFBFBF"/><path d="M40.053 66.473a.91.91 0 0 1 .853-.736l2.776-.125a.91.91 0 0 1 .916.657l2.167 7.513a.91.91 0 0 1-.834 1.162l-6.428.288a.91.91 0 0 1-.934-1.082l1.484-7.677zM41.83 34.292a5.353 5.353 0 0 1 10.696-.481l.146 3.253a5.353 5.353 0 1 1-10.695.48l-.146-3.252zM29.243 34.858a5.353 5.353 0 0 1 10.696-.481l.146 3.253a5.353 5.353 0 1 1-10.696.48l-.146-3.252z" fill="#fff"/><path d="M44.096 34.286a1.882 1.882 0 0 0 1.742-2.336 2.442 2.442 0 0 1 2.283 2.326l.131 2.927a2.441 2.441 0 0 1-4.877.22l-.132-2.927a2.46 2.46 0 0 1 .011-.367c.257.114.543.17.842.157zM34.456 34.72a1.882 1.882 0 0 0 1.742-2.337 2.442 2.442 0 0 1 2.282 2.327l.132 2.927a2.441 2.441 0 0 1-4.878.22l-.131-2.928a2.46 2.46 0 0 1 .01-.366c.257.113.543.17.843.157z" fill="#979797"/><path fill-rule="evenodd" clip-rule="evenodd" d="M35.188 24.852a2.107 2.107 0 0 0-2.515-1.599c-2.02.45-4.008 1.482-5.1 2.219a2.107 2.107 0 1 0 2.356 3.494c.774-.523 2.278-1.29 3.661-1.6a2.107 2.107 0 0 0 1.598-2.514z" fill="#BFBFBF"/><path d="M32.043 41.807a2.667 2.667 0 0 0-3.68 1.777l-.75 2.963c-1.579 6.24 2.199 12.578 8.438 14.157 6.24 1.58 12.578-2.198 14.157-8.438l.75-2.962a2.667 2.667 0 0 0-2.39-3.314l-2.191-.16a36.517 36.517 0 0 1-12.331-3.121l-2.003-.902z" fill="#979797" stroke="#D8D8D8" stroke-width="3.326"/><path d="M49.213 48.098a1 1 0 0 0-.766-.45l-2.19-.16a38.177 38.177 0 0 1-12.893-3.263l-2.003-.901a1.004 1.004 0 0 0-1.385.669l-.75 2.962c-.226.894-.324 1.79-.305 2.669.316.302.751.48 1.223.458l2.078-.093a1.664 1.664 0 0 0 1.492-1.104c.275.596.89.997 1.586.965l2.078-.093a1.663 1.663 0 0 0 1.493-1.104c.274.596.89.997 1.585.965l2.079-.093a1.664 1.664 0 0 0 1.492-1.104c.275.596.89.997 1.586.966l2.078-.094a1.664 1.664 0 0 0 1.522-1.195z" fill="#fff"/><path d="M42.968 58.538a9.948 9.948 0 0 1-6.508.555 9.969 9.969 0 0 1-6.503-5.254 9.538 9.538 0 0 1 3.827-.986 9.575 9.575 0 0 1 9.184 5.685z" fill="#B2B2B2"/><path d="M41.1 39.12c.11-.004 1.148 1.49 2.207 3.06 1.054 1.562-.018 3.662-1.9 3.746-1.883.085-3.14-1.91-2.23-3.56.914-1.658 1.814-3.24 1.923-3.245z" fill="#BFBFBF"/><path fill-rule="evenodd" clip-rule="evenodd" d="M54.796 24.421a2.107 2.107 0 0 0-.104-2.978c-1.515-1.412-3.489-2.468-4.715-2.953a2.107 2.107 0 1 0-1.548 3.92c.868.343 2.352 1.148 3.389 2.115a2.107 2.107 0 0 0 2.978-.104z" fill="#BFBFBF"/><path fill="#979797" d="M84.408 19.973l30.714 2.456-1.503 18.792-30.714-2.456z"/><path d="M91.005 34.719c-4.182 3.395-10.324 2.758-13.72-1.424l-2.944-3.627c-3.396-4.182-2.758-10.324 1.423-13.72l4.056-3.293c4.182-3.395 10.324-2.758 13.72 1.424l2.944 3.627c3.396 4.182 2.758 10.324-1.423 13.72l-4.056 3.293zM109.286 36.04c3.589 4.017 9.755 4.364 13.771.775l3.485-3.113c4.016-3.589 4.363-9.754.774-13.771l-3.48-3.896c-3.589-4.017-9.755-4.364-13.772-.775l-3.484 3.113c-4.017 3.589-4.364 9.754-.775 13.771l3.481 3.896z" fill="#979797"/><path d="M88.437 12.44c.43-5.369 5.13-9.374 10.5-8.944l7.026.562c5.369.43 9.374 5.13 8.945 10.5l-.465 5.814c-.43 5.369-5.131 9.373-10.5 8.944l-7.026-.562c-5.37-.43-9.374-5.13-8.945-10.5l.465-5.814z" fill="#979797"/><path d="M112.016 38.832a7.471 7.471 0 0 1 6.852 8.043l-1.489 18.618a8.78 8.78 0 0 1-9.451 8.051l-21.597-1.727a8.779 8.779 0 0 1-8.051-9.45l1.49-18.62a7.471 7.471 0 0 1 8.042-6.851l24.204 1.936z" fill="#C1C1C1"/><path d="M87.77 47.767c.22-2.75 2.37-1.579 5.12-1.359 2.749.22 5.057-.595 4.837 2.155l-.248 3.1a4.994 4.994 0 1 1-9.956-.795l.248-3.102zM100.545 48.788c.22-2.75 2.344-1.267 5.093-1.048l.042-.517c2.749.22 5.041-.388 4.821 2.361l-.248 3.101a4.994 4.994 0 0 1-9.956-.796l.248-3.101z" fill="#fff"/><rect x="91.537" y="46.014" width="4.421" height="7.204" rx="2.21" transform="rotate(4.573 91.537 46.014)" fill="#979797"/><rect x="102.654" y="46.903" width="4.421" height="7.204" rx="2.21" transform="rotate(4.573 102.654 46.903)" fill="#979797"/><path d="M98.961 34.838a7.556 7.556 0 0 1 8.695-6.212l-.35 2.102a7.556 7.556 0 0 1-8.695 6.212l.35-2.102z" fill="#E5E5E5"/><path d="M93.8 29.573a7.556 7.556 0 0 0 7.598 7.515l-.011-2.13a7.557 7.557 0 0 0-7.598-7.516l.012 2.131z" fill="#E5E5E5"/><path d="M78.095 34.244l22.714 1.817-.178 2.227-21.323 9.17-1.213-13.214z" fill="#E5E5E5"/><path d="M121.849 37.743l-22.715-1.816-.178 2.227 19.595 12.442 3.298-12.852z" fill="#E5E5E5"/><circle cx="118.024" cy="54.728" r="4.455" transform="rotate(4.573 118.024 54.728)" fill="#C1C1C1"/><circle cx="79.041" cy="51.793" r="4.455" transform="rotate(4.573 79.041 51.793)" fill="#C1C1C1"/><path d="M86.937 44.751l24.753 1.98-.374 4.678-12.483.338-12.376-.99.48-6.006z" fill="#C1C1C1"/><path d="M97.6 46.471c-1.436-.918-5.347-2.366-9.492-.815" stroke="#979797" stroke-width="1.662" stroke-linecap="round" stroke-linejoin="round"/><path d="M96.837 56.339a1.633 1.633 0 1 0 3.255.26c.072-.899-1.322-3.109-1.39-3.114-.067-.005-1.794 1.955-1.865 2.854z" fill="#979797"/><rect x="96.146" y="55.05" width="4.856" height="3.362" rx="1.681" transform="rotate(4.573 96.146 55.05)" fill="#979797"/><path fill-rule="evenodd" clip-rule="evenodd" d="M102.048 52.242a3.253 3.253 0 0 1-3.3-2.681c-.08-.452.333-.799.79-.762.458.037.78.46.977.874.261.549.828.927 1.483.907l8.688-.26a.832.832 0 0 1 .05 1.663l-8.688.259z" fill="#979797"/><path d="M100.609 67.561c.379.677-.281 1.348-1.042 1.196l-5.571-1.108c-.76-.151-1.114-1.024-.505-1.504a4.76 4.76 0 0 1 3.885-.932 4.762 4.762 0 0 1 3.233 2.349z" fill="#979797"/><path fill-rule="evenodd" clip-rule="evenodd" d="M55.366 90.811L41.86 87.982c-8.12-1.7-16.09 3.084-18.53 10.834l29.085 6.092a7.202 7.202 0 0 0 2.952-14.097zM17.046 97.5c3.182-11.21 14.545-18.204 26.125-15.779l13.507 2.83c7.35 1.539 12.06 8.746 10.521 16.096-1.54 7.351-8.746 12.061-16.097 10.522l-35.421-7.419.985-4.704c.11-.524.237-1.04.38-1.546z" fill="#9F9F9F"/><path d="M28.536 91.19a15.919 15.919 0 0 0-5.206 7.626l9.774 2.047a16.46 16.46 0 0 1-.56 6.419l-16.863-3.532.985-4.704a22.266 22.266 0 0 1 6.415-11.571 16.384 16.384 0 0 1 5.455 3.715z" fill="#979797"/><circle cx="16.722" cy="102.678" r="14.126" transform="rotate(11.83 16.722 102.678)" fill="#C1C1C1"/><circle cx="16.722" cy="102.678" r="9.587" transform="rotate(11.83 16.722 102.678)" stroke="#979797" stroke-width="2.698"/><path d="M30.216 98.492a14.179 14.179 0 0 0-5.744-7.628L3.48 97.754a14.241 14.241 0 0 0-.584 2.028c-.545 2.6-.337 5.182.475 7.52l26.845-8.81zM8.295 114.02a14.165 14.165 0 0 1-3.905-4.45l26.352-8.649a14.107 14.107 0 0 1-.515 5.901L8.295 114.02z" fill="#fff" fill-opacity=".2"/><path fill-rule="evenodd" clip-rule="evenodd" d="M107.418 82.733l11.741 2.24a9.108 9.108 0 0 1 7.398 9.184l-.044 1.665a6.284 6.284 0 0 1-8.837 5.578l-17.579-7.82a4.71 4.71 0 0 1-1.828-7.163l.206-.27a9.108 9.108 0 0 1 8.943-3.414z" fill="#979797"/><path fill-rule="evenodd" clip-rule="evenodd" d="M109.553 78.568l10.989 1.21a6.228 6.228 0 0 1 5.449 5.095l.388 2.171a2.761 2.761 0 0 1-4.343 2.718l-4.653-3.388a5.097 5.097 0 0 0-5.421-.364l-4.19 2.263a4.813 4.813 0 0 1-5.943-1.105l-.588-.688a3.835 3.835 0 0 1 1.117-5.882l1.934-1.025a9.107 9.107 0 0 1 5.261-1.005z" fill="#C1C1C1"/><path fill-rule="evenodd" clip-rule="evenodd" d="M126.181 101.104c-1.071.845-2.461 1.204-3.828.855-1.417-.361-2.493-1.404-3.007-2.726 1.07-.845 2.461-1.204 3.827-.855 1.417.361 2.493 1.404 3.008 2.726z" fill="#979797" stroke="#979797" stroke-width=".703" stroke-linecap="round" stroke-linejoin="round"/><path fill-rule="evenodd" clip-rule="evenodd" d="M106.195 83.394c-1.509.526-3.212.392-4.642-.512-1.483-.938-2.343-2.498-2.468-4.152 1.508-.526 3.211-.392 4.641.512 1.483.938 2.343 2.498 2.469 4.152z" fill="#C1C1C1" stroke="#C1C1C1" stroke-width=".837" stroke-linecap="round" stroke-linejoin="round"/><path fill-rule="evenodd" clip-rule="evenodd" d="M107.898 81.012c-1.257-.035-2.451-.603-3.208-1.657-.785-1.093-.925-2.465-.503-3.703 1.257.035 2.451.604 3.208 1.657.785 1.093.925 2.465.503 3.703z" fill="#C1C1C1" stroke="#C1C1C1" stroke-width=".643" stroke-linecap="round" stroke-linejoin="round"/><path d="M98.432 91.294l22.265 10.116a1.402 1.402 0 0 1 .113 2.494l-13.285 7.554a2.804 2.804 0 0 1-2.219.239l-2.29-.714a2.804 2.804 0 0 1-1.859-1.898l-4.651-16.126a1.401 1.401 0 0 1 1.926-1.665zm3.783 22.059l2.124.662c.564.176.957.686.983 1.275l.112 2.5a1.4 1.4 0 0 1-1.817 1.4l-3.748-1.168a1.401 1.401 0 0 1-.7-2.185l1.513-1.993c.357-.47.97-.667 1.533-.491z" fill="#E5E5E5"/><path d="M100.233 118.135l2.346-4.668.904.281-2.346 4.669-.904-.282zM104.199 111.352l-.938-.292-.225-17.674.94.427.223 17.539z" fill="#979797"/><path d="M128.779 85.278l.268.446c.872 1.446.479 3.32-.896 4.276l-.729.507a2.7 2.7 0 0 1-3.767-.7 2.958 2.958 0 0 1 .549-3.96l1.385-1.134a2.137 2.137 0 0 1 3.19.565z" fill="#E5E5E5"/><path fill-rule="evenodd" clip-rule="evenodd" d="M103.266 113.353l-3.823 1.618a1.868 1.868 0 0 1-2.274-2.77l.845-1.245-.352-1.469a1.868 1.868 0 0 1 3.103-1.79l3.29 3.127 4.483-.704a1.868 1.868 0 0 1 1.537 3.237l-1.125 1.008-.012 1.505a1.869 1.869 0 0 1-3.445.986l-2.227-3.503z" fill="#979797"/><path fill-rule="evenodd" clip-rule="evenodd" d="M103.283 109.979l1.885.587a.85.85 0 0 1 .558 1.064l-.76 2.437a.849.849 0 0 1-1.063.558l-1.885-.588a.848.848 0 0 1-.558-1.063l.759-2.437a.85.85 0 0 1 1.064-.558z" fill="#979797"/><path d="M128.96 88.234l1.095 2.203a1.637 1.637 0 0 1-.982 2.296l-2.038.61c-1.987.596-4.085-.546-4.686-2.551l-.145-.483c-.521-1.738.453-3.566 2.176-4.082a3.877 3.877 0 0 1 4.58 2.007z" fill="#C1C1C1"/><path d="M114.844 89.401l2.449.24a1.638 1.638 0 0 1 1.427 2.05l-.562 2.05c-.548 2.001-2.628 3.175-4.647 2.622l-.486-.133c-1.751-.479-2.784-2.273-2.31-4.008a3.878 3.878 0 0 1 4.129-2.82zM112.121 77.92l-2.945-.464c-1.083-.17-2.102.553-2.276 1.615-.018.11-.026.221-.025.332l.031 2.553c.03 2.489 2.111 4.482 4.647 4.451l.612-.007c2.199-.026 3.961-1.797 3.935-3.955-.027-2.258-1.707-4.168-3.979-4.526z" fill="#E5E5E5"/><path d="M116.092 82.74a2.433 2.433 0 0 0-1.379-.871c-1.545-.358-3.11.519-3.582 2.006l-.539 1.693a2.498 2.498 0 0 0-.116.728c.346.077.707.116 1.077.111l.612-.007c2.098-.025 3.798-1.638 3.927-3.66z" fill="#fff"/><path d="M113.424 86.185l-.558-3.59c-.276-1.771-1.963-2.988-3.769-2.716a3.308 3.308 0 0 0-2.2 1.333l.009.744c.03 2.489 2.111 4.482 4.647 4.451l.612-.007a4.05 4.05 0 0 0 1.259-.215zM122.094 88.918l2.98-.452c1.566-.237 3.032.85 3.275 2.428a2.888 2.888 0 0 1-.581 2.23l-.733.22c-1.987.595-4.085-.547-4.686-2.552l-.145-.483a3.295 3.295 0 0 1-.11-1.391z" fill="#979797"/><path d="M124.147 86.306a2.009 2.009 0 0 1 1.033.87 2.499 2.499 0 0 1-.713 3.319l-1.213.845c-.174.12-.359.211-.551.272a3.874 3.874 0 0 1-.354-.82l-.145-.483c-.497-1.658.367-3.398 1.943-4.003z" fill="#fff"/><path d="M118.322 93.143l-.164.599c-.548 2-2.628 3.174-4.647 2.621l-.486-.133a3.31 3.31 0 0 1-.96-.435l1.201-2.778c.593-1.371 2.196-2.001 3.581-1.406.708.304 1.221.869 1.475 1.532z" fill="#979797"/><path d="M114.395 96.498a3.832 3.832 0 0 1-.884-.135l-.486-.133c-1.67-.457-2.688-2.111-2.366-3.768a2.014 2.014 0 0 1 1.285-.416 2.5 2.5 0 0 1 2.438 2.364l.073 1.477c.011.21-.011.416-.06.611z" fill="#C1C1C1"/><path d="M98.787 82.344l-1.956.48a1.342 1.342 0 0 0-.9 1.85l.712 1.624c.694 1.583 2.528 2.308 4.097 1.62l.377-.166c1.36-.596 1.974-2.192 1.372-3.564a3.215 3.215 0 0 0-3.702-1.844z" fill="#E5E5E5"/><path d="M101.841 87.283l-1.321-2.147a2.237 2.237 0 0 0-3.08-.743 2.223 2.223 0 0 0-1.005 1.431l.207.474c.695 1.583 2.53 2.308 4.098 1.62l.377-.166c.273-.12.515-.279.724-.469z" fill="#979797"/><path d="M102.564 84.378a1.647 1.647 0 0 0-1.093-.193 2.038 2.038 0 0 0-1.682 2.226l.125 1.224c.018.175.061.341.126.496.236-.042.47-.112.7-.213l.377-.166a2.699 2.699 0 0 0 1.447-3.374z" fill="#C1C1C1"/></svg>