<svg viewBox="0 0 135 125" version="1.1" xmlns="http://www.w3.org/2000/svg"><g stroke="none" stroke-width="1" fill="none" fill-rule="evenodd"><g><path d="M28 11h79c9.389 0 17 7.611 17 17v79c0 9.389-7.611 17-17 17H28c-9.389 0-17-7.611-17-17V28c0-9.389 7.611-17 17-17z" fill="#FFCA00"/><path d="M122.278 20.93L20.758 122.45a16.94 16.94 0 0 0 7.08 1.56h41.32l54.68-54.68V28.01a16.94 16.94 0 0 0-1.56-7.08zm-72.12 48.14l58-58c-.43 0-.87-.07-1.31-.07h-48.59l-33.08 33.09c-6.904 6.904-6.904 18.096 0 25 6.903 6.904 18.096 6.904 25 0l-.02-.02z" fill="#FFD900" fill-rule="nonzero"/></g><path d="M84.597 16.98l18.667 40.177A2 2 0 0 1 101.45 60H63.08a2 2 0 0 1-1.827-2.814l17.883-40.162a3 3 0 0 1 5.46-.043z" fill="#FB8603"/><path d="M103 65h10a3 3 0 0 1 3 3v42h-16V68a3 3 0 0 1 3-3z" fill="#E27903"/><path d="M85.808 35.436l19.97 45.764a2 2 0 0 1-1.833 2.8h-40.94a2 2 0 0 1-1.846-2.772l19.132-45.75a3 3 0 0 1 5.517-.042z" fill="#FB8603"/><path d="M83.499 4.514l14.5 33.288A3 3 0 0 1 95.247 42H68.503a3 3 0 0 1-2.768-4.156l13.9-33.3a2.1 2.1 0 0 1 3.864-.03z" fill="#FB8603"/><path d="M58.06 18.404l3.536 3.535a1.5 1.5 0 0 1 0 2.122l-3.535 3.535a1.5 1.5 0 0 1-2.122 0l-3.535-3.535a1.5 1.5 0 0 1 0-2.122l3.535-3.535a1.5 1.5 0 0 1 2.122 0zM47.243 34.672l2.121 2.12a1 1 0 0 1 0 1.415l-2.121 2.121a1 1 0 0 1-1.415 0l-2.12-2.12a1 1 0 0 1 0-1.415l2.12-2.121a1 1 0 0 1 1.415 0z" fill="#FFF1A2"/><path d="M107.108 124l-79.216-.001-.215-.002c-8.22-.153-15.015-6.142-16.413-13.997h112.472c-1.41 7.924-8.31 13.948-16.628 14zM21.151 73h7.87a3 3 0 0 1 3 3v34H18.15V76a3 3 0 0 1 3-3z" fill="#E27903"/><path d="M28.616 54.234l19.94 38.383A3 3 0 0 1 45.894 97H6.844a3 3 0 0 1-2.685-4.337L23.27 54.28a3 3 0 0 1 5.347-.046z" fill="#E27903"/><path d="M28.612 40.918l17.845 32.643A3 3 0 0 1 43.825 78H8.879a3 3 0 0 1-2.658-4.392l17.101-32.643a3 3 0 0 1 5.29-.047z" fill="#E27903"/><path d="M27.235 25.395l13.279 29.79A2 2 0 0 1 38.687 58H12.5a2 2 0 0 1-1.84-2.786l12.726-29.789a2.1 2.1 0 0 1 3.849-.03zM108.684 15.508L122.33 46.8a3 3 0 0 1-2.75 4.199H94.505a3 3 0 0 1-2.768-4.157l13.084-31.305a2.1 2.1 0 0 1 3.863-.03z" fill="#E27903"/><path d="M109.171 48.218l22.602 43.396a3 3 0 0 1-2.66 4.386H84.85a3 3 0 0 1-2.684-4.34l21.66-43.396a3 3 0 0 1 5.345-.046z" fill="#E27903"/><path d="M109.755 35.195l16.943 32.415A3 3 0 0 1 124.04 72H90.86a3 3 0 0 1-2.683-4.344l16.238-32.415a3 3 0 0 1 5.34-.046z" fill="#E27903"/><path d="M82.565 53.475l26.868 54.189a1.693 1.693 0 0 1-1.517 2.445H54.83c-.885 0-1.612-.68-1.686-1.547l-.006-.17 1.642-56.328H80.29a2.54 2.54 0 0 1 2.275 1.411z" fill="#FF9600"/><path d="M57.08 53.543l25.35 54.155a1.693 1.693 0 0 1-1.533 2.41H28.662a1.693 1.693 0 0 1-1.534-2.41L52.48 53.543a2.54 2.54 0 0 1 4.6 0z" fill="#FFB100"/><path d="M54.423 82c9.252 0 16.895 7.22 17.422 16.457l.665 11.652H36.157l.74-11.659C37.482 89.201 45.154 82 54.422 82z" fill="#FFF1A2"/><path d="M53.888 80.604c10.285 0 18.622 8.338 18.622 18.622v11.004a23.924 23.924 0 0 1-18.622-23.329v-6.297z" fill="#FFB100"/><path d="M54.78 80.604c-10.285 0-18.623 8.338-18.623 18.622v11.004A23.924 23.924 0 0 0 54.78 86.901v-6.297z" fill="#FFB100"/><path d="M54.512 61.783c.695 0 1.266.53 1.33 1.208l.006.129v26.061a1.336 1.336 0 0 1-2.666.129l-.007-.129V63.12c0-.738.599-1.337 1.337-1.337z" fill="#FF9600" fill-rule="nonzero"/></g></svg>