<svg viewBox="0 0 135 124" fill="none" xmlns="http://www.w3.org/2000/svg"><path d="M11 28c0-9.389 7.611-17 17-17h79c9.389 0 17 7.611 17 17v79c0 9.389-7.611 17-17 17H28c-9.389 0-17-7.611-17-17V28z" fill="#E5E5E5"/><path fill-rule="evenodd" clip-rule="evenodd" d="M7.953 32.074C9.776 15.831 23.51 3.551 39.856 3.551c15.806 0 29.26 11.506 31.714 27.12l7.624 48.526a1.629 1.629 0 0 1-1.609 1.881H4.275a1.629 1.629 0 0 1-1.618-1.81l5.296-47.194z" fill="#BFBFBF"/><path d="M65.713 69.025H31.568v-29.5h9.218v-2.592a8.539 8.539 0 0 0-8.538-8.539h-.68V12.813c2.394 8.087 9.88 13.988 18.744 13.988h17.931a27.268 27.268 0 0 1 1.212 5.02h1.088a6.19 6.19 0 0 1 .32 12.37l1.912 16.93c.476 4.214-2.821 7.904-7.063 7.904z" fill="#D1D1D1"/><path fill-rule="evenodd" clip-rule="evenodd" d="M42.523 53.827c-2.222-1.278-4.676-1.315-5.562-1.183a.8.8 0 1 1-.234-1.583c1.156-.171 3.991-.118 6.594 1.379a.8.8 0 0 1-.798 1.387z" fill="#959595"/><path d="M31.568 39.525v-11.13h.68a8.539 8.539 0 0 1 8.538 8.538v2.592h-9.218zM59.283 39.525V29.438c0-.576-.467-1.044-1.043-1.044h-6.826a8.539 8.539 0 0 0-8.54 8.54v2.591h16.41z" fill="#BFBFBF"/><path fill-rule="evenodd" clip-rule="evenodd" d="M33.046 69.026H48.7v12.006H33.046V69.026z" fill="#A6A6A6"/><path fill-rule="evenodd" clip-rule="evenodd" d="M41.907 49.876a3.297 3.297 0 0 0 3.306-3.287c0-1.816-3.306-6.11-3.306-6.11S38.6 44.773 38.6 46.59a3.297 3.297 0 0 0 3.306 3.287z" fill="#959595"/><path fill-rule="evenodd" clip-rule="evenodd" d="M40.787 41.662h-9.219v-2.137h9.219v2.137zm2.088 0v-2.137h16.408a8.549 8.549 0 0 1-.289 2.137h-16.12z" fill="#fff"/><path d="M37.878 41.662h-6.31v-2.137h6.608v.683c0 .516-.106 1.008-.298 1.454zM45.82 39.525h7.366v.683c0 .516-.106 1.008-.298 1.454h-6.77a3.671 3.671 0 0 1-.299-1.454v-.683z" fill="#A6A6A6"/><path d="M56.378 77.695c0-20.908 16.95-37.857 37.857-37.857 20.908 0 37.858 16.95 37.858 37.857v4.075c0 20.907-16.95 37.857-37.858 37.857-20.907 0-37.857-16.95-37.857-37.858v-4.074z" fill="#D1D1D1"/><path d="M98.272 108.484c-6.662 2.694-15.143 4.143-25.951 3.34a1.76 1.76 0 0 0-.892.165 37.914 37.914 0 0 0 5.807 3.616c12.494.143 21.95-2.776 29.08-7.219 8.071-5.029 13.021-11.923 16.041-18.207.157-.326.205-.675.161-1.008-3.831 10.239-13.073 17.836-24.246 19.313z" fill="#BFBFBF"/><path fill-rule="evenodd" clip-rule="evenodd" d="M64.154 78.612c0-16.642 13.49-30.133 30.133-30.133 16.642 0 30.133 13.491 30.133 30.133s-13.491 30.133-30.133 30.133-30.133-13.491-30.133-30.133z" fill="#A6A6A6"/><path d="M74.655 77.987a6.92 6.92 0 0 0 1.952 3.012H93.74c.307-.97.397-2 .262-3.012H74.655zM95.085 77.987a6.944 6.944 0 0 0 .262 3.012h17.133a6.918 6.918 0 0 0 1.952-3.012H95.085z" fill="#fff"/><path d="M82.269 77.987v1.236c0 .63.127 1.23.356 1.776h8.455c.23-.546.356-1.146.356-1.776v-1.236H82.27zM97.89 77.987v1.236c0 .63.126 1.23.356 1.776h8.454c.23-.546.357-1.146.357-1.776v-1.236H97.89zM111.085 53.592c-6.766 6.902-18.962 18.8-41.177 18.043a10.658 10.658 0 0 1-1.654-.202 11.65 11.65 0 0 1-1.955-.352c-4.859-1.308-8.283-5.567-8.543-10.47-.054-1.021.67-1.645 1.656-1.38l3.392.875c5.38 1.17 8.21-1.27 10.77-3.48.37-.318.733-.632 1.098-.929a2.55 2.55 0 0 1 .287-.204 30.012 30.012 0 0 1 19.328-7.014c6.219 0 11.998 1.884 16.798 5.113z" fill="#959595"/><path fill-rule="evenodd" clip-rule="evenodd" d="M92.267 102.582l-.249-.799a.838.838 0 0 0 .498 1.598l.005-.002.028-.008.118-.033c.105-.028.258-.066.443-.104.375-.077.855-.15 1.323-.15.469 0 .954.073 1.334.15a9.317 9.317 0 0 1 .571.138l.029.008.005.002a.837.837 0 0 0 .49-1.6l-.242.792.242-.792-.002-.001-.004-.001-.013-.004-.045-.013-.156-.042c-.132-.035-.317-.08-.54-.126a8.534 8.534 0 0 0-1.669-.184c-.624 0-1.226.095-1.662.184a11.1 11.1 0 0 0-.534.126l-.155.043-.044.013-.013.004-.004.002h-.002l.248.799zM94.442 90.535c1.57 0 2.844-1.284 2.844-2.868 0-1.584-2.844-5.33-2.844-5.33s-2.845 3.746-2.845 5.33 1.274 2.868 2.845 2.868z" fill="#959595"/></svg>