<svg id="Layer_3" data-name="Layer 3" xmlns="http://www.w3.org/2000/svg" viewBox="0 0 135 124"><defs><style>.cls-1{fill:#ffc800}.cls-3{fill:#ffe75e}</style></defs><path class="cls-1" d="M124 28v79.35a16.73 16.73 0 0 1-2.78 9A16.94 16.94 0 0 1 107 124H28a17 17 0 0 1-17-17V28a17 17 0 0 1 17-17h79a17 17 0 0 1 17 17z"/><path d="M30.08 11L11 30.08v32.75a19.35 19.35 0 0 0 24.41-2.43L84.8 11zm93.86 15.58a14.05 14.05 0 0 0-.19-1.47 16.78 16.78 0 0 0-5.09-9.46c-.1-.1-.2-.2-.31-.29s-.49-.43-.74-.62a9.65 9.65 0 0 0-.9-.68 16.7 16.7 0 0 0-2.73-1.55 19.27 19.27 0 0 0-9.54 5.21l-93 93a14.1 14.1 0 0 0 .43 1.61 15.25 15.25 0 0 0 .59 1.51 15.9 15.9 0 0 0 1.06 2 15.3 15.3 0 0 0 1 1.41A17 17 0 0 0 28 124h24.81L124 52.8V28c0-.48 0-.95-.06-1.42z" fill="#ffd900"/><path class="cls-3" d="M34.73 63.59A9.54 9.54 0 0 0 28 60.78H10.87v31.11h7.43A7.29 7.29 0 0 0 23.93 80h4a9.6 9.6 0 0 0 6.78-16.37z"/><path d="M92.84 10.76a19.19 19.19 0 0 0-36.37 9.57 19.19 19.19 0 0 0-29.73 23c.12.23.25.44.37.67 9.51 19.28 35.67 22.49 47 23a10.25 10.25 0 0 0 8.73-4.22c6.64-9.18 20.1-31.55 10.33-51.35-.17-.2-.17-.43-.33-.67z" fill="#f89700"/><path class="cls-3" d="M92.36 87.2a10.74 10.74 0 0 1-4 8c-7.29 5.86-15.36 1-21.84-2.88a40.81 40.81 0 0 0-6.84-3.59c-4.09-1.4-7.94-.93-10.85 1.3s-4.58 6.25-4.28 10.79a35.31 35.31 0 0 0 1.35 6.63 2 2 0 0 1 .09.61 2.12 2.12 0 0 1-4.18.49h-.11a37.49 37.49 0 0 1-1.48-7.46c-.41-6 1.76-11.28 6-14.5 4-3.09 9.45-3.8 14.86-2a42.29 42.29 0 0 1 7.66 4C75.93 93 81 95.55 85.62 91.84A6.36 6.36 0 0 0 88.06 87c.25-4.56-3.06-10.49-6.33-13.82a2.24 2.24 0 0 1-.23-3 2.15 2.15 0 0 1 3.19-.18c3.93 4 8 11 7.67 17.2z"/><path d="M80.49 64.26l5 3a1.89 1.89 0 0 1 .06 3.22l-4.52 2.91a1.9 1.9 0 0 1-2.92-1.43L77.64 66a1.89 1.89 0 0 1 2.85-1.74z" fill="#ffb100"/><circle class="cls-1" cx="74.51" cy="10.15" r="6.05"/><circle class="cls-1" cx="85.63" cy="23.73" r="2.61"/><path class="cls-3" d="M109.24 87.65a9.86 9.86 0 0 0-9.07 13.7h-12a7.5 7.5 0 0 0 0 15H121a1.72 1.72 0 0 0 .32 0 16.73 16.73 0 0 0 2.78-9V87.65z"/></svg>