<svg viewBox="0 0 135 124" fill="none" xmlns="http://www.w3.org/2000/svg"><path d="M11 28c0-9.389 7.611-17 17-17h79c9.389 0 17 7.611 17 17v79c0 9.389-7.611 17-17 17H28c-9.389 0-17-7.611-17-17V28z" fill="#FEC701"/><path fill-rule="evenodd" clip-rule="evenodd" d="M64.756 27.15c8.2 8.202 8.2 21.498 0 29.7l-53.407 53.406a17.078 17.078 0 0 1-.348-3.442L11 51.207l24.057-24.056c8.201-8.201 21.498-8.201 29.699 0zM124 28.208v35.354l-8.995 8.997c-4.881 4.882-12.796 4.882-17.677 0-4.882-4.881-4.882-12.796 0-17.678L124 28.207z" fill="#FFD900"/><path d="M34.275 3.145c11.604-1.612 22.322 6.513 23.934 18.117 1.612 11.605-6.485 22.343-18.09 23.955L28.502 46.83C16.897 48.443 6.18 40.318 4.568 28.714 2.956 17.109 11.053 6.37 22.658 4.759l11.617-1.614z" fill="#E27903"/><path d="M9.735 48.827c-1.631-11.743 6.566-22.585 18.31-24.217l28.954-4.022c11.744-1.632 22.586 6.566 24.217 18.31l.168 1.206c1.631 11.743-6.566 22.586-18.31 24.217L34.12 68.343c-11.743 1.632-22.586-6.566-24.217-18.31l-.168-1.206z" fill="#FFB100"/><path d="M77.755 29.846L67.227 31.31a7.714 7.714 0 0 1-8.702-6.58l-.59-4.25c8.038-.766 15.547 3.038 19.822 9.367z" fill="#FF9600"/><path fill-rule="evenodd" clip-rule="evenodd" d="M59.866 32.288A7.13 7.13 0 0 0 45.74 34.25l.606 4.358a7.13 7.13 0 0 0 14.124-1.962l-.605-4.358z" fill="#F08904"/><path fill-rule="evenodd" clip-rule="evenodd" d="M60.221 34.842a7.13 7.13 0 0 0-14.124 1.962l.605 4.358A7.13 7.13 0 0 0 60.827 39.2l-.606-4.358z" fill="#FFF1A2"/><path fill-rule="evenodd" clip-rule="evenodd" d="M54.856 35.92a3.211 3.211 0 1 0-6.361.884l.555 3.995a3.211 3.211 0 1 0 6.36-.884l-.554-3.995z" fill="#E27903"/><path fill-rule="evenodd" clip-rule="evenodd" d="M29.016 36.574a7.13 7.13 0 0 1 14.125-1.962l.605 4.357a7.13 7.13 0 1 1-14.124 1.962l-.606-4.357z" fill="#F08904"/><path fill-rule="evenodd" clip-rule="evenodd" d="M29.37 39.129a7.13 7.13 0 1 1 14.124-1.963l.606 4.358a7.13 7.13 0 1 1-14.125 1.962l-.605-4.357z" fill="#FFF1A2"/><path fill-rule="evenodd" clip-rule="evenodd" d="M35.276 38.64a3.211 3.211 0 1 1 6.361-.883l.555 3.995a3.211 3.211 0 0 1-6.361.883l-.555-3.995z" fill="#E27903"/><path d="M88.878 37.524a6.295 6.295 0 1 1-12.47 1.733 6.295 6.295 0 0 1 12.47-1.733zM14.05 47.92a6.295 6.295 0 1 1-12.47 1.732 6.295 6.295 0 0 1 12.47-1.733z" fill="#FFB100"/><path d="M12.424 54.96a3.034 3.034 0 1 1-6.01.835 3.034 3.034 0 0 1 6.01-.835z" fill="#F68B00"/><path fill-rule="evenodd" clip-rule="evenodd" d="M29.18 37.777a7.13 7.13 0 1 1 14.124-1.962l.814 5.86-14.124 1.962-.814-5.86z" fill="#F08904"/><path fill-rule="evenodd" clip-rule="evenodd" d="M49.744 56.875s.001.001-.858.959l.86-.958a1.29 1.29 0 1 1-1.723 1.92l.861-.96-.86.96v.001h.002l-.005-.003a9.2 9.2 0 0 0-.817-.604 9.52 9.52 0 0 0-2.23-1.086c-1.765-.575-3.994-.645-6.212 1.363a1.29 1.29 0 1 1-1.73-1.912c3.069-2.78 6.334-2.688 8.74-1.903 1.182.385 2.164.934 2.846 1.381a11.69 11.69 0 0 1 1.032.76l.064.056.02.017.007.006.002.002.001.001z" fill="#FF9600"/><path fill-rule="evenodd" clip-rule="evenodd" d="M45.91 35.453a7.13 7.13 0 0 1 14.125-1.963l.814 5.86-14.124 1.963-.814-5.86z" fill="#F08904"/><path fill-rule="evenodd" clip-rule="evenodd" d="M46.896 51.704a3.03 3.03 0 0 0 2.589-3.414c-.23-1.655-3.779-5.15-3.779-5.15s-2.461 4.33-2.231 5.985a3.03 3.03 0 0 0 3.421 2.579z" fill="#FF9600"/><path d="M36.072 27.247l-.188-1.352c-1.2-8.63-9.167-14.655-17.798-13.456-8.63 1.2-14.654 9.167-13.455 17.797l.187 1.353c1.2 8.63 9.168 14.654 17.798 13.456 8.63-1.2 14.654-9.168 13.456-17.798zM75.4 49.742l39.7 5.377-3.29 24.29-39.7-5.377z" fill="#E27903"/><path d="M82.915 69.355c-5.671 4.11-13.6 2.846-17.71-2.825l-3.566-4.919c-4.11-5.67-2.845-13.6 2.826-17.71l5.5-3.987c5.67-4.11 13.6-2.845 17.71 2.826l3.566 4.919c4.11 5.67 2.845 13.6-2.826 17.71l-5.5 3.986zM106.555 72.373c4.373 5.47 12.353 6.36 17.824 1.987l4.745-3.793c5.471-4.373 6.36-12.353 1.987-17.824l-4.242-5.306c-4.373-5.47-12.353-6.36-17.823-1.987l-4.745 3.794c-5.471 4.373-6.36 12.353-1.987 17.823l4.241 5.306z" fill="#E27903"/><path d="M81.167 40.25c.94-6.94 7.328-11.805 14.269-10.865l9.082 1.23c6.94.94 11.805 7.328 10.865 14.268l-1.018 7.515c-.94 6.94-7.328 11.805-14.269 10.865l-9.082-1.23c-6.94-.94-11.805-7.328-10.865-14.269l1.018-7.515z" fill="#E27903"/><path d="M109.9 76.192c5.317.72 9.043 5.614 8.323 10.93l-3.26 24.066c-.846 6.247-6.596 10.625-12.842 9.779l-27.917-3.781c-6.247-.846-10.625-6.596-9.779-12.842l3.26-24.066c.72-5.317 5.613-9.043 10.93-8.323l31.285 4.237z" fill="#F79B24"/><path d="M93.234 70.077c1.184-5.296 6.436-8.63 11.732-7.446l-.604 2.704c-1.184 5.296-6.436 8.63-11.732 7.446l.604-2.704z" fill="#FDB02A"/><path d="M86.91 62.874c-.269 5.42 3.908 10.03 9.328 10.298l.136-2.767c.268-5.42-3.908-10.03-9.328-10.298l-.137 2.767z" fill="#FDB02A"/><path d="M66.186 67.82l29.36 3.977-.39 2.878L66.82 85.06l-.633-17.24z" fill="#FDB02A"/><path d="M122.741 75.48l-29.36-3.977-.39 2.879 24.554 17.55 5.196-16.452z" fill="#FDB02A"/><circle cx="116.568" cy="97.258" r="5.792" transform="rotate(7.713 116.568 97.258)" fill="#F79B24"/><circle cx="66.165" cy="90.671" r="5.792" transform="rotate(7.713 66.165 90.671)" fill="#F79B24"/><path d="M73.872 93.185a20.05 20.05 0 0 1 11.35 7.049 8.438 8.438 0 1 0-11.35-7.049zM96.009 101.695a20.048 20.048 0 0 1 12.815-3.776 8.437 8.437 0 1 0-16.227-4.192 8.437 8.437 0 0 0 3.412 7.968z" fill="#FFF1A2"/><path fill-rule="evenodd" clip-rule="evenodd" d="M84.268 99.13a7.088 7.088 0 0 0-1.048-13.825 7.087 7.087 0 0 0-7.934 8.245 20.035 20.035 0 0 1 8.982 5.58zm2.125-10.87c.406 1.66-1.325 3.511-3.868 4.135-2.543.623-4.934-.218-5.341-1.878-.407-1.66 1.324-3.511 3.867-4.135 2.543-.623 4.935.218 5.342 1.878zm-1.827 8.583a1.8 1.8 0 1 0 .483-3.568 1.8 1.8 0 0 0-.483 3.568zM107.366 97.895a7.087 7.087 0 1 0-10.142 2.989 20.135 20.135 0 0 1 4.865-2.174 1.801 1.801 0 1 1 3.151-.66c.7-.089 1.41-.141 2.126-.155zm-6.15-2.969c2.543-.623 4.274-2.474 3.867-4.135-.407-1.66-2.798-2.5-5.34-1.877-2.544.623-4.275 2.474-3.869 4.135.407 1.66 2.799 2.5 5.342 1.877z" fill="#E27903"/><path d="M87.774 102.62c-1.557-1.107-3.986-.336-4.277 1.807l-1.008 7.445a6.59 6.59 0 0 0 13.057 1.768l1.009-7.444c.29-2.143-1.847-3.533-3.642-2.88-1.002.364-1.887.539-2.675.432-.79-.106-1.595-.51-2.464-1.128z" fill="#E27903" stroke="#F79B24" stroke-width="3.242"/><path d="M93.188 115.457a4.968 4.968 0 0 0-8.909-1.207 4.967 4.967 0 0 0 4.072 3.428 4.966 4.966 0 0 0 4.837-2.221z" fill="#FDB02A"/><path d="M88.618 100.246a2.123 2.123 0 0 0 4.207.57c.158-1.162-1.493-4.13-1.581-4.142-.088-.012-2.469 2.41-2.626 3.572z" fill="#E27903"/><rect x="87.814" y="98.523" width="6.314" height="4.371" rx="2.186" transform="rotate(7.713 87.814 98.523)" fill="#E27903"/><path d="M43.788 75.498c.417-.83 1.641-.692 1.864.209l1.767 7.129a1 1 0 0 0 .522.653l6.561 3.299c.83.417.693 1.64-.208 1.864l-7.129 1.767a1 1 0 0 0-.653.521l-3.299 6.562c-.417.83-1.64.692-1.864-.209l-1.767-7.129a1 1 0 0 0-.521-.653l-6.562-3.299c-.83-.416-.693-1.64.209-1.864l7.128-1.766a1 1 0 0 0 .653-.522l3.3-6.562zM25.675 99.894c.124-.92 1.326-1.188 1.83-.409l2.087 3.227a.998.998 0 0 0 .706.447l3.807.516c.92.125 1.188 1.327.409 1.831l-3.226 2.087a.999.999 0 0 0-.448.705l-.516 3.807c-.124.92-1.326 1.189-1.83.409l-2.087-3.226a1.003 1.003 0 0 0-.706-.448l-3.807-.515c-.92-.125-1.188-1.327-.409-1.831l3.226-2.087a.998.998 0 0 0 .448-.705l.516-3.808zM52.758 102.283c.602-.706 1.758-.28 1.76.648l.003 1.86c0 .292.129.569.35.758l1.415 1.209c.706.603.28 1.758-.648 1.76l-1.86.003a1.002 1.002 0 0 0-.758.351l-1.209 1.414c-.603.706-1.758.28-1.76-.648l-.003-1.86a.998.998 0 0 0-.35-.758l-1.415-1.209c-.706-.603-.28-1.758.648-1.76l1.86-.003c.292-.001.569-.129.758-.351l1.209-1.414zM20.758 74.283c.602-.706 1.758-.28 1.76.648l.003 1.86a1 1 0 0 0 .35.758l1.415 1.209c.705.603.28 1.758-.648 1.76l-1.86.003a1 1 0 0 0-.758.35l-1.209 1.415c-.603.706-1.758.28-1.76-.648l-.003-1.86a1 1 0 0 0-.35-.758l-1.415-1.209c-.706-.603-.28-1.758.648-1.76l1.86-.003a1 1 0 0 0 .758-.35l1.209-1.415zM87.757 15.283c.603-.705 1.76-.28 1.76.648l.004 1.86a1 1 0 0 0 .35.758l1.415 1.209c.706.603.28 1.758-.648 1.76l-1.86.003a1 1 0 0 0-.759.35l-1.208 1.415c-.603.706-1.758.28-1.76-.648l-.003-1.86a1 1 0 0 0-.35-.758l-1.415-1.209c-.706-.603-.28-1.758.648-1.76l1.86-.003a1 1 0 0 0 .758-.35l1.208-1.415z" fill="#FFF1A2"/></svg>