<svg viewBox="0 0 136 124" fill="none" xmlns="http://www.w3.org/2000/svg"><path d="M12.326 28c0-9.389 7.611-17 17-17h79c9.389 0 17 7.611 17 17v79c0 9.389-7.611 17-17 17h-79c-9.389 0-17-7.611-17-17V28z" fill="#FEC701"/><path fill-rule="evenodd" clip-rule="evenodd" d="M66.082 27.144c8.2 8.201 8.2 21.498 0 29.699L12.676 110.25a17.08 17.08 0 0 1-.349-3.443V51.2l24.056-24.056c8.201-8.2 21.498-8.2 29.699 0zm59.244 1.057v35.354l-8.995 8.997c-4.881 4.881-12.796 4.881-17.677 0-4.882-4.882-4.882-12.796 0-17.678l26.672-26.673z" fill="#FFD900"/><path d="M28.543 42.502C31.76 22.754 48.818 8.25 68.826 8.25c20.009 0 37.067 14.504 40.284 34.252l10.512 64.533a2.77 2.77 0 0 1-2.733 3.215H20.764a2.77 2.77 0 0 1-2.733-3.215l10.512-64.533z" fill="#FF9600"/><path d="M56.314 23.805h.305c2.508 10.81 12.12 18.86 23.594 18.86l27.685 1.233.172 16.388 1.407 23.757c.602 5.386-3.573 10.102-8.943 10.102H38.731c-5.37 0-9.545-4.716-8.943-10.102L34.3 43.661c1.264-11.309 10.74-19.856 22.015-19.856z" fill="#FFD900"/><path d="M58.67 95.53c0-.765.62-1.385 1.384-1.385h17.548c.765 0 1.385.62 1.385 1.385v13.335c0 .765-.62 1.385-1.385 1.385H60.054c-.764 0-1.384-.62-1.384-1.385V95.53z" fill="#F68B00"/><path d="M68.588 51.697c0-6.118-4.96-11.078-11.077-11.078h-8.976c-.765 0-1.385.62-1.385 1.385v10.95c0 6.117 4.96 11.076 11.077 11.076h5.134a5.227 5.227 0 0 0 5.227-5.227v-7.106zM71.313 51.697c0-6.118 4.959-11.078 11.076-11.078h8.976c.765 0 1.385.62 1.385 1.385v10.95c0 6.117-4.96 11.076-11.077 11.076H76.54a5.227 5.227 0 0 1-5.227-5.227v-7.106z" fill="#FFF1A2"/><path d="M75.068 54.168v1.983a4.812 4.812 0 1 0 9.625 0v-1.983h-9.625zM55.025 54.168v1.983a4.812 4.812 0 1 0 9.625 0v-1.983h-9.625z" fill="#F68B00"/><path d="M92.263 56.214l-20.95 2.274v-6.791c0-6.118 4.959-11.078 11.076-11.078h8.977c.764 0 1.384.62 1.384 1.385v10.95c0 1.134-.17 2.229-.487 3.26zM68.588 58.535v-6.838c0-6.118-4.96-11.078-11.077-11.078h-8.976c-.765 0-1.385.62-1.385 1.385v10.95c0 1.152.177 2.264.503 3.309l20.935 2.272z" fill="#FFB100"/><path d="M56.543 102.735v-81.52h-4.166c-10.59 0-19.595 7.723-21.21 18.187l-9.778 63.333h35.154z" fill="#FF9600"/><path fill-rule="evenodd" clip-rule="evenodd" d="M77.698 78.998c-4.217.408-9.252 1.82-12.609 3.009a1.317 1.317 0 0 1-.88-2.483c3.46-1.225 8.72-2.711 13.235-3.148 2.239-.217 4.436-.191 6.166.348.879.273 1.706.7 2.347 1.361.66.68 1.059 1.543 1.157 2.553a1.317 1.317 0 0 1-2.621.255c-.043-.439-.198-.738-.426-.973-.246-.254-.641-.495-1.24-.682-1.224-.381-3.002-.446-5.13-.24z" fill="#F68B00"/><path d="M117.283 59.25a8.703 8.703 0 0 1-8.703 8.703 8.703 8.703 0 0 1-8.703-8.703 8.703 8.703 0 0 1 8.703-8.703 8.703 8.703 0 0 1 8.703 8.703z" fill="#FFD900"/><path d="M28.951 48.521a7.902 7.902 0 0 1 7.902-7.901h22.143c5.818 0 10.535 4.717 10.535 10.535v6.634c0 8.728-7.075 15.804-15.803 15.804h-8.973c-8.728 0-15.804-7.076-15.804-15.804v-9.268z" fill="#F68B00" fill-opacity=".5"/><path d="M24.934 50.196a3.971 3.971 0 0 1 3.97-3.97h2.932v7.942h-2.931a3.971 3.971 0 0 1-3.971-3.972z" fill="#FFF1A2"/><path d="M69.936 51.155c0-5.818 4.717-10.535 10.535-10.535h22.143a7.902 7.902 0 0 1 7.902 7.901v9.268c0 8.728-7.076 15.804-15.804 15.804h-8.973c-8.728 0-15.803-7.076-15.803-15.804v-6.634z" fill="#F68B00" fill-opacity=".5"/><path fill-rule="evenodd" clip-rule="evenodd" d="M36.853 40.62a7.902 7.902 0 0 0-7.902 7.901v9.268c0 8.728 7.076 15.804 15.804 15.804h8.973c7.787 0 14.26-5.633 15.564-13.046h.884c1.305 7.413 7.777 13.046 15.564 13.046h8.973c8.728 0 15.804-7.076 15.804-15.804V48.52a7.902 7.902 0 0 0-7.902-7.901H80.472c-5.818 0-10.535 4.717-10.535 10.535v4.124h-.406v-4.124c0-5.818-4.717-10.535-10.535-10.535H36.853zm22.143 4H36.853a3.902 3.902 0 0 0-3.902 3.901v9.268c0 6.519 5.285 11.804 11.804 11.804h8.973c6.519 0 11.803-5.285 11.803-11.804v-6.634a6.536 6.536 0 0 0-6.535-6.535zm21.476 0h22.143a3.902 3.902 0 0 1 3.902 3.901v9.268c0 6.519-5.285 11.804-11.804 11.804H85.74c-6.519 0-11.803-5.285-11.803-11.804v-6.634a6.536 6.536 0 0 1 6.535-6.535z" fill="#FFF1A2"/><path d="M114.219 50.196a3.971 3.971 0 0 1-3.972 3.972h-2.931v-7.943h2.931a3.971 3.971 0 0 1 3.972 3.971z" fill="#FFF1A2"/><path d="M69.731 58.535c.198 0 1.946 2.775 3.726 5.686 1.771 2.897-.33 6.59-3.725 6.59-3.396 0-5.497-3.693-3.726-6.59 1.78-2.911 3.528-5.686 3.725-5.686z" fill="#F68B00"/></svg>