<svg id="Cover" xmlns="http://www.w3.org/2000/svg" viewBox="0 0 135 124"><defs><style>.cls-1{fill:#ffc800}.cls-2{fill:#ffd900}.cls-3{fill:#f89700}.cls-4{fill:#e27800}.cls-5{fill:#ffe75e}</style></defs><rect id="bg" class="cls-1" x="11" y="11" width="113" height="113" rx="17" ry="17"/><path class="cls-2" d="M39.42 11L11 39.42v50L89.38 11zm84.5 15.45v-.44c0-.39-.1-.79-.18-1.18l-.06-.36c-.1-.47-.22-.93-.36-1.39l-.15-.45c-.1-.31-.22-.63-.34-.93s-.14-.36-.22-.53c-.14-.32-.29-.63-.45-.94s-.29-.53-.44-.79-.25-.43-.39-.64-.29-.44-.44-.65l-.33-.44a17.51 17.51 0 0 0-2-2.21l-.19-.16a16.45 16.45 0 0 0-3.74-2.54L12.8 114.57a16.45 16.45 0 0 0 2.54 3.74c.05.07.11.13.16.19a17.51 17.51 0 0 0 2.21 2l.44.33.65.44c.21.14.43.27.64.39s.52.3.79.44.62.31.94.45l.53.22c.3.12.62.24.93.34l.45.15c.46.14.92.26 1.39.36l.36.06c.39.08.79.14 1.18.18h.44c.51 0 1 .08 1.55.08h25.32L124 53.32V28c0-.52 0-1-.08-1.55z"/><path class="cls-3" d="M59.39 56.35V36.52a8.83 8.83 0 0 0-8.83-8.83h-1.42V26.5h27.19a9.24 9.24 0 0 0 9.23-9.24A9.23 9.23 0 0 0 76.33 8H57a6.46 6.46 0 0 0-6.46-6.46H23.89A9.91 9.91 0 0 0 14 11.48h-3.81A10.35 10.35 0 0 0-.15 21.83a10.34 10.34 0 0 0 10.34 10.34h9.88a6.76 6.76 0 0 0 6.76 6.76h22.68a4.31 4.31 0 0 1 4.31 4.31v13.11z"/><path class="cls-4" d="M39.52 63.8h82.5v37.75h-82.5z"/><circle class="cls-4" cx="83.15" cy="96.3" r="23.46"/><circle class="cls-1" cx="83.15" cy="96.3" r="14.9"/><circle class="cls-5" cx="83.15" cy="96.3" r="8.66"/><path d="M124 30.29V105h-3.4a8.43 8.43 0 0 1-6.78-3.41 8.1 8.1 0 0 1-1.6-4.92c0-.79 0-1.58-.07-2.38a28.72 28.72 0 0 0-57.37 2v.09a8.68 8.68 0 0 1-1.68 5.16 8.25 8.25 0 0 1-6.7 3.46H24.85a7 7 0 0 1-7-7V64.2a10.9 10.9 0 0 1 8.45-10.61z" fill="#ffb100"/><path class="cls-5" d="M26 55.09a1.5 1.5 0 0 1-.35-3l97.7-23.3a1.5 1.5 0 0 1 .7 2.92L26.3 55.05a1.39 1.39 0 0 1-.3.04z"/><rect class="cls-5" x="15.58" y="65.65" width="20.44" height="19.19" rx="3.83" ry="3.83"/><rect class="cls-3" x="2.74" y="36.08" width="12.64" height="5.38" rx="2.69" ry="2.69"/><rect class="cls-3" x="60.43" width="12.64" height="5.38" rx="2.69" ry="2.69"/><path class="cls-3" d="M123.65 97.8h-1.78a4.62 4.62 0 0 1-4.61-4.31 34.22 34.22 0 0 0-68.33 2.81h-3a37.22 37.22 0 0 1 74.32-3 1.65 1.65 0 0 0 1.62 1.55h1.78z"/><path class="cls-2" d="M32.19 65.65A3.83 3.83 0 0 1 36 69.48V81a3.82 3.82 0 0 1-3.83 3.83z"/><path class="cls-4" d="M19.1 95.64h26.27a4.15 4.15 0 0 1 4.15 4.15v3.61a4.15 4.15 0 0 1-4.15 4.15H19.1a4.83 4.83 0 0 1-4.83-4.83v-2.25a4.83 4.83 0 0 1 4.83-4.83z"/></svg>