<svg viewBox="0 0 136 124" fill="none" xmlns="http://www.w3.org/2000/svg"><path fill-rule="evenodd" clip-rule="evenodd" d="M28.5 11h79c9.389 0 17 7.611 17 17v79c0 9.389-7.611 17-17 17h-79c-9.389 0-17-7.611-17-17V28c0-9.389 7.611-17 17-17z" fill="#E27800"/><path d="M37.352 38.574l-28.958 17.4c-5.089 3.058-6.735 9.662-3.678 14.75l17.75 29.54c.502.836 1.78 2.99-.351 4.495l-5.479 3.292a.576.576 0 0 0-.211.765 11.617 11.617 0 0 0 7.463 5.828c2.89.72 6.058.338 8.815-1.318l43.546-26.165a11.61 11.61 0 0 0 5.302-7.165 11.616 11.616 0 0 0-1.642-9.325.576.576 0 0 0-.775-.173l-5.15 3.094c-2.292 1.157-3.59-.898-4.109-1.76a8.71 8.71 0 0 1-.024-.04l-17.749-29.54c-3.058-5.089-9.661-6.735-14.75-3.678z" fill="#FFB100"/><path d="M14.85 60.754L37.773 46.98c4.786-2.876 10.997-1.327 13.872 3.458l22.541 37.514-40.256 24.188-22.54-37.513c-2.876-4.786-1.328-10.997 3.458-13.873z" fill="#FFDF4A"/><path d="M34.272 63.817A6.034 6.034 0 1 1 44.616 57.6l1.89 3.146c.108.18.206.364.293.55a12.937 12.937 0 0 0-3.007 1.323l-.54.325a12.856 12.856 0 0 0-5.213 5.966 6.01 6.01 0 0 1-1.877-1.948l-1.89-3.146zM32.44 64.917a6.034 6.034 0 0 0-10.343 6.215l1.89 3.146c.116.192.24.376.373.55a12.927 12.927 0 0 1 2.691-2.149l.54-.324a12.856 12.856 0 0 1 7.57-1.813 6.01 6.01 0 0 0-.83-2.479l-1.89-3.146z" fill="#FFF1A2"/><path opacity=".416" fill-rule="evenodd" clip-rule="evenodd" d="M52.33 82.674c.406.1.654.51.553.916a9.42 9.42 0 0 1-6.565 6.798.756.756 0 1 1-.413-1.455 7.908 7.908 0 0 0 5.51-5.707c.1-.405.51-.652.916-.552z" fill="#FFB100"/><path fill-rule="evenodd" clip-rule="evenodd" d="M38.7 73.342a2.687 2.687 0 0 0 .92-3.686c-.765-1.272-4.875-2.895-4.875-2.895s-.497 4.391.267 5.663a2.687 2.687 0 0 0 3.687.918z" fill="#FFB100"/><path d="M18.052 89.814a5.183 5.183 0 1 0-5.338-8.885 5.183 5.183 0 0 0 5.338 8.885z" fill="#FFDF4A"/><path d="M38.3 63.542a2.93 2.93 0 0 1-3.22-.134c.048.7.26 1.399.645 2.041l1.104 1.837a4.581 4.581 0 0 0 1.308 1.402 12.84 12.84 0 0 1 3.828-4.861 1.983 1.983 0 0 1 1.732-2.968l-.088-.147a4.6 4.6 0 0 0-5.13-2.075 2.929 2.929 0 0 1-.179 4.905zM31.88 70.725a12.886 12.886 0 0 0-4.289 1.63l-.54.324c-.282.17-.556.349-.82.536l-.91-1.514a4.581 4.581 0 0 1-.638-1.94 2.929 2.929 0 0 0 3.294-4.845 4.6 4.6 0 0 1 5.228 2.048l.636 1.058a1.984 1.984 0 0 0-1.96 2.703zM22.032 79.751a5.67 5.67 0 0 1 7.27-3.385c5.502 2.006 9.904.68 14.352-4.551a5.67 5.67 0 0 1 8.64 7.345c-7.426 8.734-16.766 11.545-26.876 7.86a5.67 5.67 0 0 1-3.386-7.269z" fill="#E27800"/><path fill-rule="evenodd" clip-rule="evenodd" d="M27.699 92.216a5.796 5.796 0 0 0 11.085 3.389l2.432-7.953a3.276 3.276 0 0 0-5.877-2.748 3.276 3.276 0 0 0-5.724 1.046l-1.916 6.266z" fill="#FFB100"/><path d="M33.328 77.242c-1.283-.068-2.619-.363-4.027-.876a5.67 5.67 0 0 0-7.062 7.761l.463-.278a2.303 2.303 0 0 0 1.116-2.029c.698.392 1.581.408 2.316-.033l1.536-.923a2.302 2.302 0 0 0 1.117-2.029c.698.392 1.58.408 2.315-.033l1.536-.923c.28-.169.512-.387.69-.637z" fill="#FFF1A2"/><path d="M16.491 83.116l-5.1-8.49a10.103 10.103 0 0 1-.315-9.853c.164.2.315.414.452.642l6.406 10.66a5.311 5.311 0 0 1-1.443 7.04zM56.712 58.87a5.312 5.312 0 0 1-6.42-2.238l-6.405-10.66a5.365 5.365 0 0 1-.225-.414 10.098 10.098 0 0 1 7.984 4.88l5.066 8.431z" fill="#FFB100"/><path d="M49.084 37.497L1.926 65.832a1.664 1.664 0 0 0-.57 2.283l1.78 2.962a1.664 1.664 0 0 0 2.283.569L52.577 43.31a1.664 1.664 0 0 0 .57-2.282l-1.78-2.962a1.664 1.664 0 0 0-2.283-.57z" fill="#F89700"/><path d="M13.633 35.413c5.043-3.876 12.273-2.93 16.15 2.113 3.876 5.043 2.93 12.273-2.112 16.15a11.518 11.518 0 0 1-12.242 1.136c-.95.108-1.93.078-2.912-.104-4.188-.778-7.365-4.137-7.915-8.249-.114-.856.455-1.43 1.304-1.272l3.292.575a11.51 11.51 0 0 1 4.435-10.349z" fill="#FFB100"/><path d="M29.71 107.49L71.5 82.38a1.408 1.408 0 0 1 1.932.48l2.505 4.169c.4.666.184 1.531-.482 1.932l-2.467 1.482a10.822 10.822 0 0 1 7.547 4.972c.427.683.776 1.41 1.041 2.17l3.292 9.42a11.958 11.958 0 0 1 3.448-3.895l8.899-6.466c5.362-3.895 12.866-2.706 16.761 2.655l7.642 10.518a12 12 0 0 1 1.71 3.352c-2.47 6.339-8.633 10.831-15.846 10.831h-79c-.69 0-1.37-.041-2.038-.121a10.829 10.829 0 0 1 5.01-10.584l.073-.046-2.3-3.827a1.408 1.408 0 0 1 .482-1.932z" fill="#F89700"/><path d="M58.36 124h-3.047l-3.439-19.502-2.139.454a1.023 1.023 0 0 1-1.236-1.029l.238-8.816c.013-.472.348-.875.81-.973l3.055-.65c.462-.098.932.134 1.136.56l3.804 7.957a1.024 1.024 0 0 1-.711 1.443l-2.02.43L58.359 124zM126.8 58.992a7 7 0 0 1 1.889 9.718l-1.678 2.487a7.003 7.003 0 0 1-7.897 2.767l-9.389 13.919a1.5 1.5 0 0 1-2.487-1.678l9.266-13.737a7.003 7.003 0 0 1-1.1-9.1l1.678-2.487a7 7 0 0 1 9.718-1.89z" fill="#FFF1A2"/><path d="M126.481 66.617a4.5 4.5 0 1 0-7.461-5.032l-2.237 3.316a4.5 4.5 0 0 0 7.461 5.033l2.237-3.317zM109.976 83.446a4.001 4.001 0 0 0-7.949.884A9.996 9.996 0 0 0 97.014 93c0 5.523 4.477 10 10 10s10-4.477 10-10c0-4.492-2.962-8.292-7.038-9.554z" fill="#FFDF4A"/><path d="M114.927 1.755l-1.555-.597a1.499 1.499 0 0 0-1.936.862L88.545 61.655c-.297.773.09 1.64.862 1.936l1.554.596c.773.297 1.64-.089 1.936-.861L115.788 3.69a1.498 1.498 0 0 0-.861-1.936z" fill="#FFB100"/><path d="M115.68 3.973l-5.316.842-1.929 5.025 5.316-.842 1.929-5.025zM112.248 12.913l-5.316.842-1.929 5.025 5.316-.842 1.929-5.025zM108.817 21.853l-5.317.842-1.929 5.025 5.317-.842 1.929-5.025zM105.385 30.793l-5.316.842-1.93 5.025 5.317-.842 1.929-5.025zM101.647 40.53l-5.316.842-1.93 5.025 5.317-.842 1.929-5.025z" fill="#F89700"/><path fill-rule="evenodd" clip-rule="evenodd" d="M63.592 23.687a2.14 2.14 0 0 1 1.473-2.644c3.681-1.046 6.79.747 9.237 4.846a6.473 6.473 0 0 0-3.95 1.716c-1.33-2.083-2.636-2.793-3.979-2.48l-.138.036a2.14 2.14 0 0 1-2.643-1.474zm10.71 2.202a6.498 6.498 0 1 0 .936 12.963 6.498 6.498 0 0 0-.936-12.963z" fill="#F89700"/><path d="M90.364 17.06c6.35 0 11.5 5.149 11.5 11.5 0 1.992-.507 3.866-1.398 5.5h1.898a6.5 6.5 0 0 1 0 13h-38a6.5 6.5 0 0 1 0-13H80.26a11.449 11.449 0 0 1-1.397-5.5c0-6.351 5.148-11.5 11.5-11.5z" fill="#FFDF4A"/><path d="M113.679 42.782a3.762 3.762 0 0 0-3.762-3.762H55.882a3.762 3.762 0 0 0-3.762 3.762V57.83a3.762 3.762 0 0 0 3.762 3.762l2.543-.001 5.805 41.88A18.819 18.819 0 0 0 71.642 116H68.12a4 4 0 0 0 0 8h30a4 4 0 1 0 0-8h-3.963a18.82 18.82 0 0 0 7.412-12.529l5.805-41.88h2.543a3.762 3.762 0 0 0 3.762-3.761V42.782z" fill="#FFF1A2"/><path d="M86.12 10.5a6.5 6.5 0 1 0-13 0 6.5 6.5 0 0 0 13 0z" fill="#FFDF4A"/><path d="M60.328 45.86h45.143l-7.68 52.122a15.052 15.052 0 0 1-29.782 0L60.328 45.86z" fill="#FFB100"/><path d="M98.823 90.972l6.648-45.112H60.328l6.261 42.49a11.285 11.285 0 0 0 6.05-10V63.985a3.762 3.762 0 1 1 7.525 0v15.731a4.446 4.446 0 0 0 8.891 0V67.406a2.394 2.394 0 1 1 4.788 0v19.151a4.446 4.446 0 0 0 4.98 4.415z" fill="#F89700"/></svg>