<svg xmlns="http://www.w3.org/2000/svg" viewBox="0 0 135 124"><defs><style>.cls-2{fill:#bfbfbf}.cls-3{fill:#d1d1d1}</style></defs><g id="Layer_3" data-name="Layer 3"><path d="M124 28v79a17 17 0 0 1-17 17H28a17 17 0 0 1-16.61-13.37A16.75 16.75 0 0 1 11 107V28a17 17 0 0 1 17-17h79a17 17 0 0 1 17 17z" fill="#e5e5e5"/><path class="cls-2" d="M124 55.1A22.69 22.69 0 0 0 94.32 52l-83 58.43v.25A17 17 0 0 0 28 124h43l49.46-34.93a22.83 22.83 0 0 0 3.54-3.14z"/><rect class="cls-3" x="83.16" y="37.59" width="19.81" height="46.06" rx="9.91" transform="rotate(130.19 93.066 60.617)"/><path class="cls-3" d="M123.82 10v38.88a9.91 9.91 0 1 1-19.81 0V10a9.9 9.9 0 0 1 9-9.87 8.25 8.25 0 0 1 .86 0 9.88 9.88 0 0 1 7 2.9 10 10 0 0 1 2.78 5.45v.32a10.06 10.06 0 0 1 .17 1.2z"/><path class="cls-3" d="M110.45 18.87v38.87a9.91 9.91 0 1 1-19.82 0V18.87a9.92 9.92 0 0 1 8.44-9.8 10.17 10.17 0 0 1 1.47-.07 9.86 9.86 0 0 1 6.46 2.37 6.28 6.28 0 0 1 .54.49 10 10 0 0 1 2.36 3.79 9.8 9.8 0 0 1 .55 3.22z"/><rect class="cls-3" x="115.11" y="9.76" width="19.81" height="58.69" rx="9.91"/><path class="cls-3" d="M134.93 42.65v22.87A18.87 18.87 0 0 1 119 84.24c-.57.08-1.14.15-1.71.2a25.61 25.61 0 1 1 17.63-41.79z"/><rect class="cls-2" x="108.05" y="15.87" width="3" height="25.37" rx="1.5"/><path class="cls-2" d="M124.8 14.41v26.83h-3V14.41a1.5 1.5 0 0 1 1.5-1.5 1.5 1.5 0 0 1 1.5 1.5zM118.5 64.09v5a1.5 1.5 0 0 1-3 0v-5a13.82 13.82 0 0 0-13.81-13.8h-4.32a3.4 3.4 0 0 1-2.23-.85l-4.51-4v-3.51a1.49 1.49 0 0 1 1 .38l5.5 4.88a.37.37 0 0 0 .24.1h4.32a16.8 16.8 0 0 1 16.81 16.8z"/><path class="cls-2" d="M132.33 43.74a1.47 1.47 0 0 1-.36 0 63.77 63.77 0 0 0-31.06 0 1.5 1.5 0 0 1-.74-2.91 66.81 66.81 0 0 1 32.53 0 1.5 1.5 0 0 1-.37 3z"/><path d="M86.78 88.07l-1.2 7a4.73 4.73 0 0 1-5.46 3.85l-7-1.2a5.69 5.69 0 0 1-3.65-2.3L57.88 79A4.57 4.57 0 0 1 59 72.58l8.85-6.26a4.58 4.58 0 0 1 6.38 1.1l11.6 16.45a5.65 5.65 0 0 1 .95 4.2z" fill="#b2b2b2"/><circle class="cls-2" cx="77.45" cy="89.03" r="4.5"/><path class="cls-3" d="M19.27 91l55.55-54.71a10.2 10.2 0 0 0-.57-15A10.2 10.2 0 0 0 59 23.64L17.87 89.89a.9.9 0 0 0 1.4 1.11zM24 63.36L48.54 17.5A7.81 7.81 0 0 0 46.87 8a7.8 7.8 0 0 0-12.81 4L21.88 62.55a1.14 1.14 0 0 0 2.12.81zM90.3 119.84l39.58-13a6.4 6.4 0 0 0 4.38-6.58 6.41 6.41 0 0 0-9.87-4.89l-35 22.59a1.07 1.07 0 0 0 .91 1.88z"/></g></svg>