<svg viewBox="0 0 135 124" version="1.1" xmlns="http://www.w3.org/2000/svg"><g stroke="none" stroke-width="1" fill="none" fill-rule="evenodd"><g transform="translate(-1 -1)"><rect fill="#E5E5E5" x="12.266" y="12" width="113" height="113" rx="17"/><rect fill="#FFF" transform="rotate(30 85.766 84)" x="63.266" y="52" width="45" height="64" rx="2"/><path d="M36.64 109.247a7 7 0 0 1-9.302-3.386L3.25 54.201A7 7 0 0 1 6.635 44.9l39.877-18.595a8.961 8.961 0 0 1 5.778-.624 8.955 8.955 0 0 1 4.192-4.025L96.359 3.06a7 7 0 0 1 9.303 3.386l24.089 51.66a7 7 0 0 1-3.386 9.302l-89.724 41.84z" fill="#B2B2B2"/><rect fill="#B2B2B2" transform="rotate(-25 36.54 44.79)" x="27.04" y="19.29" width="19" height="51" rx="2"/><path d="M33.219 103.942a2.52 2.52 0 0 1-3.35-1.219L5.798 51.1a2.52 2.52 0 0 1 1.22-3.35l41.218-19.22a5.994 5.994 0 0 1 5.667.319 5.99 5.99 0 0 1 3.396-4.545L96.704 5.93a2.52 2.52 0 0 1 3.35 1.219l24.072 51.623a2.52 2.52 0 0 1-1.22 3.349L33.22 103.942z" fill="#FFF"/><path d="M33.295 105.29a2.01 2.01 0 0 1-2.675-.959l-.846-1.812 45.189-21.072a4.045 4.045 0 0 1 3.319-.053 4.035 4.035 0 0 1 1.957-2.4l.214-.107 43.921-20.481.845 1.812a2.008 2.008 0 0 1-.85 2.598l-.134.068-90.94 42.406z" fill="#D8D8D8"/><rect fill="#E5E5E5" transform="rotate(-25 30.753 45.461)" x="11.753" y="43.961" width="38" height="3" rx="1.5"/><rect fill="#E5E5E5" transform="rotate(-25 33.94 52.298)" x="14.941" y="50.798" width="38" height="3" rx="1.5"/><rect fill="#E5E5E5" transform="rotate(-25 37.322 59.549)" x="18.322" y="58.049" width="38" height="3" rx="1.5"/><rect fill="#E5E5E5" transform="rotate(-25 40.703 66.8)" x="21.703" y="65.299" width="38" height="3" rx="1.5"/><rect fill="#E5E5E5" transform="rotate(-25 80.6 22.217)" x="61.599" y="20.717" width="38" height="3" rx="1.5"/><rect fill="#E5E5E5" transform="rotate(-25 83.788 29.054)" x="64.788" y="27.554" width="38" height="3" rx="1.5"/><rect fill="#E5E5E5" transform="rotate(-25 97.311 58.056)" x="78.311" y="56.556" width="38" height="3" rx="1.5"/><rect fill="#E5E5E5" transform="rotate(-25 78.559 40.32)" x="69.059" y="38.82" width="19" height="3" rx="1.5"/><rect fill="#E5E5E5" transform="rotate(-25 81.94 47.57)" x="72.44" y="46.07" width="19" height="3" rx="1.5"/><rect fill="#E5E5E5" transform="rotate(-25 93.93 50.806)" x="74.93" y="49.306" width="38" height="3" rx="1.5"/><rect fill="#E5E5E5" transform="rotate(-25 36.833 77.43)" x="25.833" y="75.931" width="22" height="3" rx="1.5"/><rect fill="#E5E5E5" transform="rotate(-25 40.214 84.681)" x="29.214" y="83.181" width="22" height="3" rx="1.5"/><path d="M55.305 106.986l53.527-9.439a2.4 2.4 0 0 1 2.78 1.947l1.077 6.106a2.4 2.4 0 0 1-1.946 2.78l-53.545 9.442a1.2 1.2 0 0 1-.582-.042l-8.37-2.748a1.2 1.2 0 0 1-.392-2.063l6.893-5.725a1.2 1.2 0 0 1 .558-.258z" fill="#D1D1D1"/><rect fill="#B2B2B2" transform="rotate(-10 112.643 102.46)" x="106.143" y="96.96" width="13" height="11" rx="2.4"/><path fill="#BFBFBF" d="M100.363 99.04l11.818-2.083 1.91 10.833-11.818 2.083z"/><path d="M55.063 107.031l1.909 10.828a1.2 1.2 0 0 1-.277-.055l-8.8-2.85a1.2 1.2 0 0 1-.368-2.088l7.294-5.688a1.2 1.2 0 0 1 .242-.147z" fill="#FFF"/><path d="M51.234 110.629l1.01 5.733-4.35-1.408a1.2 1.2 0 0 1-.367-2.088l3.55-2.768a2.5 2.5 0 0 1 .157.53z" fill="#B2B2B2"/><g transform="rotate(25 17.048 186.954)"><path d="M1.57 13.47c-.159-.819.209-1.662.94-2.153l1.087-.729C4.92 9.7 5.853 8.38 6.206 6.895l.22-.93c.2-.837.907-1.493 1.798-1.666l12.662-2.461c.86-.168 1.733.146 2.24.805l.647.838c.955 1.238 2.348 2.113 3.937 2.475l1.074.244c.845.192 1.484.83 1.641 1.636l7.21 37.09c.145.748-.15 1.518-.762 2.02l-.147.11-.905.63c-1.249.868-2.17 2.087-2.631 3.47l-.092.3-.285 1.018c-.208.744-.82 1.33-1.595 1.544l-.181.042-12.662 2.461c-.832.162-1.672-.126-2.185-.735l-.105-.136-.554-.78c-.828-1.167-2.073-2.008-3.512-2.379l-.29-.068-1.28-.269c-.805-.17-1.431-.741-1.64-1.483l-.039-.161-7.2-37.04z" fill="#D1D1D1"/><rect stroke="#B2B2B2" stroke-width="2.016" stroke-linejoin="round" transform="rotate(79 19.466 28.498)" x="1.966" y="17.998" width="35" height="21" rx="2.016"/><path d="M17.13 25.918l-2.72.949a1.176 1.176 0 0 1-1.547-1.3l.461-2.842a.686.686 0 0 0-.13-.525l-1.743-2.294a1.176 1.176 0 0 1 .757-1.873l2.846-.44a.686.686 0 0 0 .46-.286l1.642-2.366a1.176 1.176 0 0 1 2.015.141l1.298 2.572a.686.686 0 0 0 .414.347l2.758.832a1.176 1.176 0 0 1 .489 1.96l-2.045 2.029a.686.686 0 0 0-.203.501l.062 2.88a1.176 1.176 0 0 1-1.713 1.07l-2.562-1.317a.686.686 0 0 0-.54-.038z" fill="#B2B2B2" fill-rule="nonzero"/><path stroke="#B2B2B2" stroke-width="2.016" stroke-linecap="round" stroke-linejoin="round" d="M25.831 30.113l2.158 10.991m-6.281-10.189l2.158 10.99m-5.593-10.322l2.157 10.99m-6.28-10.189l2.157 10.99"/></g><g transform="translate(36.266 29.329)"><path d="M1.57 13.47c-.159-.819.209-1.662.94-2.153l1.087-.729C4.92 9.7 5.853 8.38 6.206 6.895l.22-.93c.2-.837.907-1.493 1.798-1.666l12.662-2.461c.86-.168 1.733.146 2.24.805l.647.838c.955 1.238 2.348 2.113 3.937 2.475l1.074.244c.845.192 1.484.83 1.641 1.636l7.21 37.09c.145.748-.15 1.518-.762 2.02l-.147.11-.905.63c-1.249.868-2.17 2.087-2.631 3.47l-.092.3-.285 1.018c-.208.744-.82 1.33-1.595 1.544l-.181.042-12.662 2.461c-.832.162-1.672-.126-2.185-.735l-.105-.136-.554-.78c-.828-1.167-2.073-2.008-3.512-2.379l-.29-.068-1.28-.269c-.805-.17-1.431-.741-1.64-1.483l-.039-.161-7.2-37.04z" fill="#D1D1D1"/><rect stroke="#B2B2B2" stroke-width="2.016" stroke-linejoin="round" transform="rotate(79 19.466 28.498)" x="1.966" y="17.998" width="35" height="21" rx="2.016"/><path d="M17.13 25.918l-2.72.949a1.176 1.176 0 0 1-1.547-1.3l.461-2.842a.686.686 0 0 0-.13-.525l-1.743-2.294a1.176 1.176 0 0 1 .757-1.873l2.846-.44a.686.686 0 0 0 .46-.286l1.642-2.366a1.176 1.176 0 0 1 2.015.141l1.298 2.572a.686.686 0 0 0 .414.347l2.758.832a1.176 1.176 0 0 1 .489 1.96l-2.045 2.029a.686.686 0 0 0-.203.501l.062 2.88a1.176 1.176 0 0 1-1.713 1.07l-2.562-1.317a.686.686 0 0 0-.54-.038z" fill="#B2B2B2" fill-rule="nonzero"/><path stroke="#B2B2B2" stroke-width="2.016" stroke-linecap="round" stroke-linejoin="round" d="M25.831 30.113l2.158 10.991m-6.281-10.189l2.158 10.99m-5.593-10.322l2.157 10.99m-6.28-10.189l2.157 10.99"/></g></g></g></svg>