<svg viewBox="0 0 135 124" version="1.1" xmlns="http://www.w3.org/2000/svg"><g stroke="none" stroke-width="1" fill="none" fill-rule="evenodd"><path d="M28 11h79c9.389 0 17 7.611 17 17v79c0 9.389-7.611 17-17 17H28c-9.389 0-17-7.611-17-17V28c0-9.389 7.611-17 17-17z" fill="#FFCA00"/><path d="M122.278 20.93L20.758 122.45a16.94 16.94 0 0 0 7.08 1.56h41.32l54.68-54.68V28.01a16.94 16.94 0 0 0-1.56-7.08zm-72.12 48.14l58-58c-.43 0-.87-.07-1.31-.07h-48.59l-33.08 33.09c-6.904 6.904-6.904 18.096 0 25 6.903 6.904 18.096 6.904 25 0l-.02-.02z" fill="#FFD900" fill-rule="nonzero"/><path d="M16.9 6h46.2c1.05 0 1.9.85 1.9 1.9v61.2a1.9 1.9 0 0 1-1.9 1.9H16.9a1.9 1.9 0 0 1-1.9-1.9V7.9c0-1.05.85-1.9 1.9-1.9z" fill="#FB8603"/><rect fill="#E27903" x="19.231" y="11" width="41.538" height="59" rx="1.9"/><path d="M48.73 49.057c-6.744 1.418-13.459-2.707-15.256-9.416a13.05 13.05 0 0 1 2.069-11.104c.955-1.31-.395-3.055-1.9-2.458-7.289 2.896-11.3 10.845-9.248 18.503 2.227 8.313 10.752 13.253 19.042 11.031a15.438 15.438 0 0 0 6.746-3.81c1.167-1.126.133-3.08-1.454-2.746z" fill="#FFD900" fill-rule="nonzero"/><rect fill="#FFF1A2" transform="rotate(45 52 23)" x="49" y="20" width="6" height="6" rx="1"/><rect fill="#FFD900" transform="rotate(45 41 17)" x="39" y="15" width="4" height="4" rx=".5"/><rect fill="#FB8603" x="11" y="67" width="51" height="10" rx=".95"/><path fill="#FB8603" d="M17 37h46v4H17zM31.194 97h12.54a2 2 0 0 1 1.988 2.217l-1.66 15.21a1 1 0 0 1-.995.89H31.861a1 1 0 0 1-.994-.89l-1.66-15.21A2 2 0 0 1 31.193 97z"/><path d="M28.13 97h18.668a1 1 0 0 1 .988 1.152l-.616 4a1 1 0 0 1-.989.848H28.747a1 1 0 0 1-.988-.848l-.617-4A1 1 0 0 1 28.13 97zM107 124H28c-6.367 0-11.917-3.5-14.83-8.682h108.66C118.916 120.5 113.366 124 107 124z" fill="#E27903"/><path d="M28.143 84h-2.357a.786.786 0 0 0-.786.786v2.357A7.857 7.857 0 0 0 32.857 95h2.357a.786.786 0 0 0 .786-.786v-2.357A7.857 7.857 0 0 0 28.143 84zM45.857 84h2.357c.434 0 .786.352.786.786v2.357A7.857 7.857 0 0 1 41.143 95h-2.357a.786.786 0 0 1-.786-.786v-2.357A7.857 7.857 0 0 1 45.857 84z" fill="#FB8603" fill-rule="nonzero"/><path d="M13.024 4H19a1 1 0 0 1 1 1v73.76a3 3 0 0 1-2.94 2.999l-8.748.175a3 3 0 0 1-3.05-3.236L11.03 5.842A2 2 0 0 1 13.024 4zM65.976 4H60a1 1 0 0 0-1 1v73.76a3 3 0 0 0 2.94 2.999l8.748.175a3 3 0 0 0 3.05-3.236L67.97 5.842A2 2 0 0 0 65.976 4z" fill="#FB8603"/><path stroke="#E27903" stroke-width="2" stroke-linecap="round" stroke-linejoin="round" d="M11.5 74.5l2-34M67.5 74.5l-2-34"/><path d="M76.408 61.274H47.806a1 1 0 0 0-.847 1.53l10.318 16.478H89L77.239 61.717a1 1 0 0 0-.831-.443z" fill="#FF9600"/><path fill="#E27903" d="M96.522 40.672l5.024 1.44-5.282 18.424-5.025-1.44z"/><rect fill="#23BEE9" transform="rotate(16 87.299 80.738)" x="80.765" y="78.015" width="13.068" height="5.445" rx=".871"/><rect fill="#E27903" transform="rotate(16 104.875 20.976)" x="100.867" y="17.165" width="8.015" height="7.623" rx="3.812"/><rect fill="#E27903" transform="rotate(16 91.47 67.772)" x="75.788" y="55.576" width="31.363" height="24.394" rx="9.583"/><rect fill="#FF9600" transform="rotate(106 89.098 60.635)" x="86.376" y="54.645" width="5.445" height="11.979" rx="2.723"/><path d="M92.485 19.477l23.339 5.388a1.742 1.742 0 0 1 1.347 1.602l1.541 28.073a1.742 1.742 0 0 1-2.131 1.794L78.01 47.429a1.742 1.742 0 0 1-1.13-2.546L90.57 20.326a1.742 1.742 0 0 1 1.914-.85z" fill="#FFF1A2"/><path d="M104.339 59.737h23.117a.983.983 0 0 1 .873 1.437l-8.692 16.713H93.09l9.53-17.139a1.966 1.966 0 0 1 1.719-1.01z" fill="#FFB100"/><path d="M79.478 77.308h40.313v36.38c0 1.086-.88 1.966-1.967 1.966H79.478V77.308z" fill="#FF9600"/><path d="M55.88 77.308h37.363v38.346H57.847a1.966 1.966 0 0 1-1.967-1.966v-36.38z" fill="#FFB100"/><rect fill="#E27903" x="65.391" y="83.208" width="14.749" height="4.916" rx="2.458"/><path d="M73.504 94.35c.048.04.093.084.133.132l6.415 7.698a1.035 1.035 0 0 1-.795 1.698H77.5v4.577c0 .572-.463 1.035-1.035 1.035h-7.13a1.035 1.035 0 0 1-1.034-1.035l-.001-4.578h-1.875a1.035 1.035 0 0 1-.795-1.697l6.415-7.698a1.035 1.035 0 0 1 1.458-.133z" fill="#E27903"/><path d="M105.362 104.982l2.471 1.482c.356.214.8.219 1.16.013l2.688-1.529a.575.575 0 0 1 .86.5v10.206h-8.05v-10.18a.575.575 0 0 1 .87-.492z" fill="#FFF1A2"/><path d="M111.17 27.743a1.09 1.09 0 0 1 1.124.922l.012.118.896 20.324a1.089 1.089 0 0 1-2.164.215l-.012-.119-.896-20.324c-.026-.6.44-1.11 1.04-1.136zM94.345 24.636a1.089 1.089 0 0 1 1.965.933l-.051.107-9.715 17.875a1.089 1.089 0 0 1-1.965-.933l.051-.107 9.715-17.875zM103.382 26.463c.547.126.902.644.837 1.19l-.02.116-4.165 18.039a1.089 1.089 0 0 1-2.143-.373l.02-.117 4.165-18.039c.136-.586.72-.951 1.306-.816z" fill="#FFD900" fill-rule="nonzero"/></g></svg>