<svg viewBox="0 0 135 124" fill="none" xmlns="http://www.w3.org/2000/svg"><path d="M11 28c0-9.389 7.611-17 17-17h79c9.389 0 17 7.611 17 17v79c0 9.389-7.611 17-17 17H28c-9.389 0-17-7.611-17-17V28z" fill="#E5E5E5"/><path fill-rule="evenodd" clip-rule="evenodd" d="M66.651 32.545c7.166 0 12.972 5.824 12.972 13.002v1.95H53.676v-1.95c0-7.178 5.81-13.002 12.975-13.002z" fill="#959595"/><path d="M52.797 45.299c7.65 0 13.852-6.104 13.852-13.633 0-7.53-6.203-13.634-13.852-13.634-7.652 0-13.855 6.105-13.855 13.634s6.203 13.633 13.855 13.633z" fill="#959595"/><path d="M91.83 45.08H42.572c-9.23 0-16.712 7.481-16.712 16.711v32.777c0 9.23 7.482 16.712 16.712 16.712H91.83c9.23 0 16.712-7.482 16.712-16.712V61.791c0-9.23-7.482-16.712-16.712-16.712z" fill="#BFBFBF"/><path d="M81.147 77.918c7.313 0 13.24-5.928 13.24-13.24 0-7.313-5.927-13.24-13.24-13.24-7.312 0-13.24 5.927-13.24 13.24 0 7.312 5.928 13.24 13.24 13.24z" fill="#fff"/><path d="M81.045 75.881c6.131 0 11.101-4.97 11.101-11.101 0-6.132-4.97-11.102-11.101-11.102-6.131 0-11.102 4.97-11.102 11.102 0 6.13 4.97 11.101 11.102 11.101z" fill="#959595"/><path fill-rule="evenodd" clip-rule="evenodd" d="M80.896 64.723c3.838-1.397 7.027-2.145 5.85-5.38-1.178-3.237-5.245-4.727-9.083-3.33-3.838 1.397-5.994 5.152-4.817 8.388 1.178 3.236 4.212 1.719 8.05.322z" fill="#fff"/><path d="M85.424 71.4a2.852 2.852 0 1 0 0-5.703 2.852 2.852 0 0 0 0 5.703z" fill="#fff"/><path fill-rule="evenodd" clip-rule="evenodd" d="M66.87 81.416a4.073 4.073 0 0 0 4.067-4.077c0-2.251-4.068-7.577-4.068-7.577s-4.068 5.326-4.068 7.577a4.073 4.073 0 0 0 4.068 4.078z" fill="#A6A6A6"/><path d="M53.037 77.918c7.312 0 13.24-5.928 13.24-13.24 0-7.313-5.928-13.24-13.24-13.24s-13.24 5.927-13.24 13.24c0 7.312 5.928 13.24 13.24 13.24z" fill="#fff"/><path d="M52.934 75.881c6.13 0 11.101-4.97 11.101-11.101 0-6.132-4.97-11.102-11.101-11.102-6.131 0-11.102 4.97-11.102 11.102 0 6.13 4.97 11.101 11.102 11.101z" fill="#959595"/><path fill-rule="evenodd" clip-rule="evenodd" d="M52.788 64.723c3.838-1.397 7.027-2.145 5.849-5.38-1.178-3.237-5.244-4.727-9.082-3.33-3.838 1.397-5.995 5.152-4.817 8.388 1.178 3.236 4.211 1.719 8.05.322z" fill="#fff"/><path d="M57.315 71.4a2.852 2.852 0 1 0 0-5.703 2.852 2.852 0 0 0 0 5.703z" fill="#fff"/><path d="M82.253 11H95.8v20.726a6.774 6.774 0 0 1-13.548 0V11z" fill="#A6A6A6"/><path d="M93.929 11h13.548v12.1a6.774 6.774 0 0 1-13.548 0V11zM115.33 39.33a5.75 5.75 0 1 1-11.5 0 5.75 5.75 0 0 1 11.5 0zM73.615 23.092c6.678 0 12.092-5.414 12.092-12.092H61.523c0 6.678 5.413 12.092 12.092 12.092z" fill="#A6A6A6"/><path d="M60.912 77.238c0 6.584-5.337 11.921-11.921 11.921s-11.922-5.337-11.922-11.921 5.338-11.922 11.922-11.922c6.584 0 11.921 5.338 11.921 11.922zM96.715 77.238c0 6.584-5.337 11.921-11.921 11.921s-11.922-5.337-11.922-11.921 5.338-11.922 11.922-11.922c6.584 0 11.921 5.338 11.921 11.922z" fill="#BFBFBF"/><path fill-rule="evenodd" clip-rule="evenodd" d="M47.099 70.752a6 6 0 0 1 7.628 3.717 12.855 12.855 0 0 0 1.961 3.64 12.866 12.866 0 0 0 10.236 5.05c4.166 0 7.869-1.968 10.236-5.05a12.852 12.852 0 0 0 1.962-3.64 6 6 0 1 1 11.344 3.91 24.853 24.853 0 0 1-3.79 7.041l-4.758-3.655 4.758 3.655c-4.54 5.911-11.7 9.74-19.752 9.74-8.051 0-15.21-3.829-19.752-9.74l4.758-3.655-4.758 3.655a24.848 24.848 0 0 1-3.79-7.04 6 6 0 0 1 3.717-7.628z" fill="#A6A6A6"/><path d="M47.434 82.792h11.208v17.146a5.604 5.604 0 0 1-11.208 0V82.792z" fill="#A6A6A6"/><path d="M57.315 89.875h7.236v21.82a3.617 3.617 0 0 1-7.236 0v-21.82zM78.032 78.18h10.442v20.297a5.22 5.22 0 1 1-10.442 0V78.18z" fill="#A6A6A6"/><path d="M74.574 78.545c-2.732 2.623-2.719 7.07.03 9.933l9.894-9.5c-2.748-2.863-7.191-3.057-9.924-.433z" fill="#D1D1D1"/><path d="M37.835 45.741V59.97c0 6.856-5.307 12.472-12.038 12.965V61.79c0-7.608 5.083-14.028 12.038-16.05zM96.439 45.741V59.97c0 6.856 5.307 12.472 12.038 12.965V61.79c0-7.608-5.083-14.028-12.038-16.05z" fill="#959595"/><path d="M23.315 84.88a7.368 7.368 0 1 0 0-14.736 7.368 7.368 0 0 0 0 14.735zM110.628 84.88a7.367 7.367 0 0 0 7.367-7.368 7.367 7.367 0 1 0-14.735 0 7.367 7.367 0 0 0 7.368 7.367z" fill="#BFBFBF"/><path fill-rule="evenodd" clip-rule="evenodd" d="M48.693 75.376c.58-.2 1.21.108 1.41.687a17.743 17.743 0 0 0 2.707 5.026c3.253 4.235 8.365 6.961 14.114 6.961 5.75 0 10.861-2.726 14.115-6.96a17.746 17.746 0 0 0 2.706-5.027 1.11 1.11 0 1 1 2.097.723 19.96 19.96 0 0 1-3.044 5.655c-3.655 4.757-9.406 7.828-15.874 7.828-6.467 0-12.218-3.07-15.874-7.828a19.96 19.96 0 0 1-3.044-5.655c-.2-.58.108-1.21.687-1.41z" fill="#959595"/></svg>