<svg viewBox="0 0 135 124" fill="none" xmlns="http://www.w3.org/2000/svg"><g clip-path="url(#clip0)"><path d="M107 11H28c-9.389 0-17 7.611-17 17v79c0 9.389 7.611 17 17 17h79c9.389 0 17-7.611 17-17V28c0-9.389-7.611-17-17-17z" fill="#FFCA00"/><path d="M12.56 114.08L114.08 12.56A16.938 16.938 0 0 0 107 11H65.68L11 65.68V107c.003 2.445.535 4.86 1.56 7.08zm72.12-48.14l-58 58c.43 0 .87.07 1.31.07h48.59l33.08-33.09c6.904-6.904 6.904-18.096 0-25-6.903-6.904-18.096-6.904-25 0l.02.02z" fill="#FFD900"/><path fill="#E27903" d="M15.446 26.221l39.995-3.91 2.392 24.47-39.995 3.91z"/><path d="M27.306 43.635c-4.588 5.32-12.62 5.915-17.94 1.327l-4.616-3.98c-5.32-4.587-5.914-12.62-1.327-17.94l4.45-5.16c4.587-5.32 12.62-5.915 17.94-1.327l4.615 3.979c5.32 4.588 5.915 12.62 1.327 17.94l-4.45 5.16zM51.08 41.127c5.53 4.332 13.526 3.36 17.857-2.172l3.757-4.797c4.332-5.531 3.36-13.527-2.172-17.858l-5.364-4.201C59.627 7.767 51.632 8.739 47.3 14.27l-3.757 4.797c-4.332 5.531-3.36 13.527 2.172 17.858l5.364 4.201z" fill="#E27903"/><path d="M18.886 15.625C18.203 8.633 23.317 2.41 30.31 1.727l9.15-.894c6.992-.684 13.214 4.43 13.897 11.422l.74 7.571c.684 6.992-4.43 13.214-11.422 13.898l-9.15.894c-6.992.684-13.214-4.43-13.898-11.422l-.74-7.571z" fill="#E27903"/><path d="M55.226 44.084c5.356-.524 10.122 3.394 10.646 8.75l2.37 24.244c.615 6.294-3.988 11.894-10.282 12.51l-28.124 2.748c-6.293.615-11.893-3.988-12.508-10.28l-2.37-24.246c-.524-5.356 3.394-10.122 8.75-10.646l31.518-3.08z" fill="#F79B24"/><rect x="25.558" y="55.03" width="13.027" height="17.084" rx="6.513" transform="rotate(-5.583 25.558 55.03)" fill="#FFF1A2"/><rect x="42.193" y="53.404" width="13.027" height="17.084" rx="6.513" transform="rotate(-5.583 42.193 53.404)" fill="#FFF1A2"/><path d="M37.547 41.958c-.066-5.443 4.292-9.909 9.734-9.975l.034 2.78c.067 5.442-4.292 9.908-9.734 9.974l-.034-2.78z" fill="#FDB02A"/><path d="M29.711 36.386c.99 5.353 6.13 8.89 11.482 7.901l-.505-2.733c-.989-5.353-6.13-8.89-11.482-7.901l.505 2.733z" fill="#FDB02A"/><path d="M10.622 45.995l29.579-2.891.283 2.9-25.266 16.675-4.596-16.684z" fill="#FDB02A"/><path d="M67.599 40.426l-29.58 2.89.284 2.9L66.32 57.684 67.6 40.426z" fill="#FDB02A"/><circle cx="67.467" cy="62.898" r="5.81" transform="rotate(-5.583 67.467 62.898)" fill="#F79B24"/><circle cx="15.446" cy="68.435" r="5.81" transform="rotate(-5.583 15.446 68.435)" fill="#F79B24"/><path d="M44.448 61.122a2.35 2.35 0 0 0 1.563-3.855 2.883 2.883 0 0 1 4.081 2.336l.354 3.614a2.883 2.883 0 0 1-5.739.56l-.26-2.655zM32.553 62.285a2.35 2.35 0 0 0 1.475-3.956 2.883 2.883 0 0 1 3.684 2.486l.353 3.613a2.883 2.883 0 1 1-5.739.56l-.265-2.706c.16.017.325.019.492.003zM42.331 72.927c-4.189.413-7.53 2.96-8.51 6.137-.378 1.224.938 2.042 2.115 1.538l3.56-1.525c2.15-.92 4.53-1.155 6.819-.673l3.79.798c1.253.264 2.383-.795 1.773-1.922-1.583-2.924-5.358-4.767-9.547-4.353z" fill="#E27903"/><path d="M38.365 77.595a1.5 1.5 0 0 1 1.346-1.64l5.783-.571a1.5 1.5 0 0 1 1.64 1.345l.083.84a4.406 4.406 0 1 1-8.769.866l-.083-.84z" fill="#FFB100"/><ellipse cx="33.518" cy="69.511" rx="11.077" ry="3.003" transform="rotate(-5.583 33.518 69.511)" fill="#F79B24"/><path d="M41.326 58.51c.161 1.65-3.648 3.373-8.507 3.848-4.86.475-8.93-.478-9.092-2.129-.16-1.65 3.36-6.313 8.22-6.788 4.86-.475 9.217 3.418 9.379 5.068z" fill="#F79B24"/><ellipse cx="50.152" cy="67.885" rx="11.077" ry="3.003" transform="rotate(-5.583 50.152 67.885)" fill="#F79B24"/><path d="M39.651 68.9a2.13 2.13 0 1 0 4.239-.415c-.115-1.17-2.411-3.686-2.5-3.678-.088.009-1.853 2.922-1.739 4.093z" fill="#E27903"/><rect x="38.469" y="67.404" width="6.334" height="4.385" rx="2.192" transform="rotate(-5.583 38.469 67.404)" fill="#E27903"/><path d="M97.293 62.373a6.534 6.534 0 1 1-13.068 0 6.534 6.534 0 0 1 13.068 0z" fill="#FFB100"/><path d="M114.899 64.572c0 6.287-5.097 11.384-11.385 11.384-6.287 0-11.384-5.097-11.384-11.384 0-6.288 5.097-11.385 11.384-11.385 6.288 0 11.385 5.097 11.385 11.385z" fill="#FFB100"/><path d="M64.571 105.422c-5.94 0-10.756 4.816-10.756 10.757h21.513c0-5.941-4.816-10.757-10.757-10.757z" fill="#F79B24"/><path d="M52.851 109.327A6.852 6.852 0 0 0 46 116.179h13.703a6.852 6.852 0 0 0-6.852-6.852zM113.669 102.178h-29.56a5.99 5.99 0 0 1-4.19-1.695l-3.775-3.652h45.503l-3.789 3.652a6.039 6.039 0 0 1-4.189 1.695z" fill="#F79B24"/><path d="M124.28 98.485H73.498a1.65 1.65 0 0 1-1.654-1.654 1.65 1.65 0 0 1 1.654-1.654h50.795a1.65 1.65 0 0 1 1.654 1.654c0 .91-.744 1.654-1.667 1.654z" fill="#FFF1A2"/><path d="M113.669 74.176h-29.56a5.991 5.991 0 0 1-4.19-1.695l-3.775-3.652h45.503l-3.789 3.652a6.04 6.04 0 0 1-4.189 1.695z" fill="#F79B24"/><path d="M124.28 70.483H73.498a1.65 1.65 0 0 1-1.654-1.654 1.65 1.65 0 0 1 1.654-1.653h50.795a1.65 1.65 0 0 1 1.654 1.653c0 .91-.744 1.654-1.667 1.654z" fill="#FFF1A2"/><path d="M113.669 116.179h-29.56c-10.911 0-3.073-.606-4.19-1.695l-3.775-3.652h45.503l-3.789 3.652a6.039 6.039 0 0 1-4.189 1.695z" fill="#F79B24"/><path d="M124.28 112.486H73.498a1.65 1.65 0 0 1-1.654-1.654 1.65 1.65 0 0 1 1.654-1.654h50.795a1.65 1.65 0 0 1 1.654 1.654c0 .91-.744 1.654-1.667 1.654z" fill="#FFF1A2"/><path d="M113.669 88.177h-29.56a5.992 5.992 0 0 1-4.19-1.695l-3.775-3.652h45.503l-3.789 3.652a6.04 6.04 0 0 1-4.189 1.695z" fill="#F79B24"/><path d="M124.28 84.484H73.498a1.65 1.65 0 0 1-1.654-1.654 1.65 1.65 0 0 1 1.654-1.653h50.795a1.65 1.65 0 0 1 1.654 1.653c0 .91-.744 1.654-1.667 1.654z" fill="#FFF1A2"/><path d="M116.751 95.178H87.192a5.992 5.992 0 0 1-4.19-1.695l-3.775-3.652h45.503l-3.789 3.651a6.04 6.04 0 0 1-4.19 1.696z" fill="#F79B24"/><path d="M127.362 91.484H76.581a1.65 1.65 0 0 1-1.654-1.653 1.65 1.65 0 0 1 1.654-1.654h50.795a1.65 1.65 0 0 1 1.654 1.654c0 .91-.744 1.653-1.668 1.653z" fill="#FFF1A2"/><path d="M116.751 67.175H87.192a5.992 5.992 0 0 1-4.19-1.694l-3.775-3.652h45.503l-3.789 3.652a6.041 6.041 0 0 1-4.19 1.695z" fill="#F79B24"/><path d="M127.362 63.482H76.581a1.65 1.65 0 0 1-1.654-1.653 1.65 1.65 0 0 1 1.654-1.654h50.795a1.65 1.65 0 0 1 1.654 1.654c0 .91-.744 1.653-1.668 1.653z" fill="#FFF1A2"/><path d="M116.751 109.178H87.192a5.99 5.99 0 0 1-4.19-1.695l-3.775-3.651h45.503l-3.789 3.651a6.04 6.04 0 0 1-4.19 1.695z" fill="#F79B24"/><path d="M127.362 105.485H76.581a1.65 1.65 0 0 1-1.654-1.653 1.65 1.65 0 0 1 1.654-1.654h50.795a1.65 1.65 0 0 1 1.654 1.654c0 .909-.744 1.653-1.668 1.653z" fill="#FFF1A2"/><path d="M116.751 81.177H87.192a5.992 5.992 0 0 1-4.19-1.696l-3.775-3.651h45.503l-3.789 3.651a6.04 6.04 0 0 1-4.19 1.696z" fill="#F79B24"/><path d="M127.362 77.483H76.581a1.65 1.65 0 0 1-1.654-1.653 1.65 1.65 0 0 1 1.654-1.654h50.795a1.65 1.65 0 0 1 1.654 1.654c0 .91-.744 1.653-1.668 1.653z" fill="#FFF1A2"/><g style="mix-blend-mode:multiply"><path d="M103.169 60.175v2.029a2.74 2.74 0 0 0 5.481 0v2.71a1.941 1.941 0 1 0 3.882 0v-4.739h-9.363z" fill="#FBC25C"/></g><g style="mix-blend-mode:multiply"><path d="M96.07 81.177v8.818a3.55 3.55 0 0 0 7.099 0v-2.679a2.515 2.515 0 0 0 5.029 0v-6.14H96.069z" fill="#FFCC51"/></g><g style="mix-blend-mode:multiply"><path d="M89.3 60.175h5.03v1.882a2.515 2.515 0 0 1-5.03 0v-1.882z" fill="#FBC25C"/></g><g style="mix-blend-mode:multiply"><path d="M95.777 102.178h5.029v6.206a2.515 2.515 0 0 1-5.03 0v-6.206z" fill="#FFCC51"/></g><g style="mix-blend-mode:multiply"><path d="M103.514 95.194v3.03a2.515 2.515 0 0 0 4.339 1.73v3.663a2.514 2.514 0 0 0 5.029 0v-8.423h-9.368z" fill="#FBC25C"/></g><path d="M109.609 107.376a8.803 8.803 0 0 0-8.803 8.803h17.605a8.802 8.802 0 0 0-8.802-8.803z" fill="#FDB02A"/><path d="M121.647 110.255a5.924 5.924 0 0 0-5.924 5.924h11.849a5.925 5.925 0 0 0-5.925-5.924z" fill="#FDB02A"/><path d="M75.42 52.663a2.348 2.348 0 1 1 2.348-2.348v2.349H75.42zM81.876 52.663a2.348 2.348 0 1 0-2.348-2.348v2.349h2.348z" fill="#FFF1A2"/><path d="M80.918 52.663a2.27 2.27 0 1 1-4.54 0 2.27 2.27 0 0 1 4.54 0z" fill="#E27903"/><path d="M117.348 49.84a2.348 2.348 0 1 1 2.349-2.348v2.348h-2.349zM123.805 49.84a2.349 2.349 0 1 0-2.349-2.348v2.348h2.349z" fill="#FFF1A2"/><path d="M122.847 49.84a2.27 2.27 0 1 1-4.541 0 2.27 2.27 0 0 1 4.541 0z" fill="#E27903"/><path d="M85.684 41.639a2.348 2.348 0 1 1 2.349-2.349v2.349h-2.349zM101.378 30.697a2.348 2.348 0 1 1 2.348-2.349v2.349h-2.348zM82.378 23.697a2.348 2.348 0 1 1 2.348-2.349v2.349h-2.348zM92.14 41.639a2.348 2.348 0 1 0-2.348-2.349v2.349h2.349zM107.834 30.697a2.349 2.349 0 1 0-2.348-2.349v2.349h2.348zM88.834 23.697a2.348 2.348 0 1 0-2.348-2.349v2.349h2.348z" fill="#FFF1A2"/><path d="M91.183 41.639a2.27 2.27 0 1 1-4.541 0 2.27 2.27 0 0 1 4.54 0zM106.877 30.697a2.27 2.27 0 1 1-4.542-.001 2.27 2.27 0 0 1 4.542 0zM87.877 23.697a2.27 2.27 0 1 1-4.541 0 2.27 2.27 0 0 1 4.54 0z" fill="#E27903"/><path d="M75.662 116.607c13.62 0 24.662-11.041 24.662-24.662 0-13.62-11.042-24.661-24.662-24.661S51 78.325 51 91.945c0 13.621 11.041 24.662 24.662 24.662z" fill="#F79B24"/><path d="M75.662 114.324c13.62 0 24.662-11.042 24.662-24.662S89.282 65 75.662 65 51 76.042 51 89.662s11.041 24.662 24.662 24.662z" fill="#FFD900"/><path d="M75.89 106.56c9.207 0 16.67-7.463 16.67-16.67 0-9.206-7.463-16.67-16.67-16.67-9.206 0-16.67 7.464-16.67 16.67 0 9.207 7.464 16.67 16.67 16.67z" fill="#F8E787"/><path fill-rule="evenodd" clip-rule="evenodd" d="M60.357 90.472a1.21 1.21 0 0 1-1.175-1.244c.246-8.692 7.531-15.895 16.149-16.018a1.21 1.21 0 1 1 .034 2.42c-7.31.104-13.554 6.26-13.764 13.666a1.21 1.21 0 0 1-1.244 1.176z" fill="#FFCA00"/><path fill-rule="evenodd" clip-rule="evenodd" d="M91.367 89.194a1.21 1.21 0 0 1 1.175 1.244c-.246 8.692-7.532 15.895-16.149 16.019a1.21 1.21 0 0 1-.035-2.42c7.31-.105 13.555-6.26 13.765-13.667a1.21 1.21 0 0 1 1.244-1.176z" fill="#FFF1A2"/><g style="mix-blend-mode:multiply" fill="#F79B24"><path d="M88.573 68.646v17.617a3.996 3.996 0 0 1-3.996 3.996h-1.024a2.972 2.972 0 0 1-2.972-2.972v-1.83a1.142 1.142 0 0 0-2.283 0v5.33a6.472 6.472 0 0 1-6.472 6.472h-.835a7.307 7.307 0 0 1-7.308-7.307V68.1A24.55 24.55 0 0 1 75.662 65c4.734 0 9.156 1.334 12.911 3.646zM73.959 104.907a6.42 6.42 0 1 1-12.84 0 6.42 6.42 0 0 1 12.84 0z"/><path d="M82.58 98.946a3.007 3.007 0 1 0 0-6.013 3.007 3.007 0 0 0 0 6.013z"/></g></g><defs><clipPath id="clip0"><path fill="#fff" d="M0 0h135v124H0z"/></clipPath></defs></svg>