<svg viewBox="0 0 135 124" fill="none" xmlns="http://www.w3.org/2000/svg"><path d="M11 28c0-9.389 7.611-17 17-17h79c9.389 0 17 7.611 17 17v79c0 9.389-7.611 17-17 17H28c-9.389 0-17-7.611-17-17V28z" fill="#1CB0F6"/><path d="M82.623 3.864a2 2 0 0 1 2.274-1.682l21.842 3.268a2 2 0 0 1 1.682 2.274l-4.74 31.676a2 2 0 0 1-2.274 1.682l-21.843-3.268a2 2 0 0 1-1.681-2.274l4.74-31.676z" fill="#F0EAEA"/><path d="M108.421 7.724a2 2 0 0 1 2.274-1.682l21.843 3.27a2 2 0 0 1 1.682 2.273l-4.741 31.676a2 2 0 0 1-2.274 1.682l-21.842-3.269a2 2 0 0 1-1.682-2.274l4.74-31.676z" fill="#F0EAEA"/><path d="M84.593 6.045a1 1 0 0 1 1.137-.84l7.755 1.16a1 1 0 0 1 .841 1.137l-1 6.688a1 1 0 0 1-1.138.841l-7.755-1.16a1 1 0 0 1-.841-1.137l1-6.689zM127.386 40.588a1 1 0 0 1-1.137.84l-7.756-1.16a1 1 0 0 1-.841-1.137l1.001-6.688a1 1 0 0 1 1.137-.841l7.756 1.16a1 1 0 0 1 .841 1.138l-1.001 6.688z" fill="#FF4B4B"/><path d="M81.475 26.88a1 1 0 0 1 1.137-.842l19.135 2.864a1 1 0 0 1 .841 1.137l-1 6.688a1 1 0 0 1-1.137.841l-19.136-2.863a1 1 0 0 1-.84-1.137l1-6.689z" fill="#CE82FF"/><path d="M130.504 19.754a1 1 0 0 1-1.137.84l-19.136-2.863a1 1 0 0 1-.841-1.137l1.001-6.688a1 1 0 0 1 1.137-.841l19.136 2.864a1 1 0 0 1 .841 1.136l-1.001 6.689z" fill="#78C800"/><path d="M83.034 16.462a1 1 0 0 1 1.137-.84l7.755 1.16a1 1 0 0 1 .841 1.137l-1 6.688a1 1 0 0 1-1.138.841l-7.755-1.16a1 1 0 0 1-.841-1.137l1-6.689zM128.945 30.17a1 1 0 0 1-1.137.842l-7.756-1.16a1 1 0 0 1-.841-1.138l1.001-6.688a1 1 0 0 1 1.137-.841l7.756 1.16a1 1 0 0 1 .841 1.138l-1.001 6.688z" fill="#FFB100"/><path d="M95.973 7.748a1 1 0 0 1 1.137-.84l7.755 1.16a1 1 0 0 1 .841 1.137l-1.001 6.688a1 1 0 0 1-1.137.841l-7.755-1.16a1 1 0 0 1-.841-1.137l1-6.689z" fill="#1CB0F6"/><path d="M94.562 17.176l9.733 1.457-1.297 8.666-9.733-1.456 1.297-8.667z" fill="#78C800"/><path d="M116.006 38.885a1 1 0 0 1-1.137.841l-7.755-1.16a1 1 0 0 1-.841-1.138l2.559-17.105a1 1 0 0 1 1.137-.841l7.756 1.16a1 1 0 0 1 .841 1.138l-2.56 17.105z" fill="#1CB0F6"/><path fill-rule="evenodd" clip-rule="evenodd" d="M82.94 43.872l9.638-11.495a1.226 1.226 0 0 1 1.727-.152l3.141 2.634a5.325 5.325 0 0 1 .66 7.502l-4.37 5.213a5.325 5.325 0 0 1-7.502.66L83.093 45.6a1.226 1.226 0 0 1-.152-1.728z" fill="#4B4B4B"/><path fill-rule="evenodd" clip-rule="evenodd" d="M91.304 43.461l2.59-3.088a2.044 2.044 0 0 1 2.878-.253l16.483 13.818c.865.725.978 2.014.253 2.88l-2.589 3.087a2.043 2.043 0 0 1-2.879.254L91.557 46.34a2.044 2.044 0 0 1-.253-2.879z" fill="#4B4B4B"/><path d="M98.66 41.702l-5.216 6.22 1.57 1.316 5.215-6.22-1.57-1.316z" fill="#3D3D3D"/><path fill-rule="evenodd" clip-rule="evenodd" d="M99.606 46.114l.254-.302a.817.817 0 0 1 1.151-.101l6.281 5.266c.346.29.392.805.102 1.151l-.254.303a.817.817 0 0 1-1.151.1l-6.281-5.265a.818.818 0 0 1-.102-1.152zM92.542 38.159l2.083-2.484a.409.409 0 0 1 .576-.05l.942.79c.694.58.784 1.614.203 2.308l-.502.599a1.639 1.639 0 0 1-2.309.203l-.942-.79a.409.409 0 0 1-.05-.576z" fill="#6C6C6C"/><path fill-rule="evenodd" clip-rule="evenodd" d="M80.587 43.492l11.206-13.366a.817.817 0 0 1 1.151-.1l2.2 1.844c.346.29.392.805.102 1.151L84.04 46.387a.818.818 0 0 1-1.151.101l-2.2-1.844a.818.818 0 0 1-.102-1.152z" fill="#3D3D3D"/><path d="M90.28 32.567l-1.556 1.857a.818.818 0 0 0 .101 1.152l1.572 1.318a.818.818 0 0 0 1.152-.102l1.557-1.857a.818.818 0 0 0-.101-1.152l-1.572-1.318a.817.817 0 0 0-1.152.102z" fill="#6C6C6C"/><path d="M113.3 54.514l-4.686 5.59a.818.818 0 0 0 .101 1.151l1.259 1.055a.817.817 0 0 0 1.151-.101l4.687-5.59a.818.818 0 0 0-.102-1.152l-1.258-1.055a.818.818 0 0 0-1.152.102z" fill="#3D3D3D"/><path d="M34.26 11.678a10.659 10.659 0 0 0-.06-.504c-.823-5.663-6.08-9.587-11.743-8.765-5.663.823-9.587 6.08-8.765 11.743.807 5.557 5.884 9.439 11.424 8.807.016.167.036.335.06.503.823 5.663 6.08 9.587 11.744 8.765 5.663-.823 9.587-6.08 8.764-11.743-.807-5.557-5.883-9.439-11.423-8.807z" fill="#FF9600"/><path d="M7.03 38.04c-.992-6.825 3.738-13.162 10.564-14.153l37.466-5.441c6.826-.992 13.163 3.738 14.154 10.564l3.642 25.072c.99 6.826-3.739 13.163-10.564 14.154l-37.467 5.442c-6.826.99-13.163-3.739-14.154-10.564L7.03 38.04z" fill="#FFC6B7"/><path d="M13.226 25.38C8.88 27.847 6.269 32.8 7.03 38.043l1.384 9.527.453-.066a7.493 7.493 0 0 0 6.338-8.492l-1.98-13.63zM59.673 18.635c4.866 1.128 8.78 5.133 9.541 10.375l1.384 9.528-.454.066a7.493 7.493 0 0 1-8.492-6.338l-1.98-13.631z" fill="#FFB67A"/><path d="M7.846 55.869a5.599 5.599 0 1 0-1.61-11.081 5.599 5.599 0 0 0 1.61 11.08zM73.504 46.333a5.598 5.598 0 1 0-1.61-11.08 5.598 5.598 0 0 0 1.61 11.08z" fill="#FFC6B7"/><path fill-rule="evenodd" clip-rule="evenodd" d="M45.614 20.58a7.88 7.88 0 0 0-6.665 8.93l.689 4.744a7.88 7.88 0 0 0 15.596-2.265l-.69-4.744a7.88 7.88 0 0 0-8.93-6.665z" fill="#fff"/><path d="M39.24 30.117a2.868 2.868 0 0 0 2.143-4.139A3.538 3.538 0 0 1 46 28.828l.638 4.394a3.537 3.537 0 1 1-7.001 1.017l-.596-4.1a2.88 2.88 0 0 0 .2-.021z" fill="#3D3D3D"/><path fill-rule="evenodd" clip-rule="evenodd" d="M27.257 23.246a7.88 7.88 0 0 1 8.93 6.665l.69 4.743A7.88 7.88 0 1 1 21.28 36.92l-.69-4.743a7.88 7.88 0 0 1 6.666-8.93z" fill="#fff"/><path d="M20.882 32.784a2.868 2.868 0 0 0 2.144-4.14 3.537 3.537 0 0 1 4.616 2.85l.638 4.394a3.537 3.537 0 1 1-7.002 1.017l-.595-4.1a2.94 2.94 0 0 0 .199-.021z" fill="#3D3D3D"/><path fill-rule="evenodd" clip-rule="evenodd" d="M49.41 48.666a.904.904 0 0 1 .574-.418l-.574.418zm5.907-7.775l.927-1.494a5.274 5.274 0 0 1-5.559 8.964.904.904 0 0 0-.701-.113m-.574.418a5.274 5.274 0 1 1-9.013-5.48 11.451 11.451 0 0 1 7.134-5.196 11.451 11.451 0 0 1 8.713 1.407l-.927 1.494m-4.869 1.182l.11.005a7.074 7.074 0 0 1 3.37 1.054.879.879 0 1 1-.927 1.494 5.303 5.303 0 0 0-4.983-.332 5.303 5.303 0 0 0-2.363 2.09.879.879 0 0 1-1.502-.914 7.075 7.075 0 0 1 6.295-3.397z" fill="#FFC6B7"/><path d="M37.685 30.516c.142-.02 1.677 1.78 3.25 3.673 1.565 1.885.448 4.74-1.977 5.092-2.424.352-4.307-2.067-3.343-4.319.968-2.263 1.929-4.426 2.07-4.446z" fill="#EE9583"/><path fill-rule="evenodd" clip-rule="evenodd" d="M48.962 43.974a5.298 5.298 0 0 0-3.307 2.41.879.879 0 0 1-1.502-.914 7.056 7.056 0 0 1 4.4-3.206 7.056 7.056 0 0 1 5.375.868.879.879 0 1 1-.927 1.494 5.298 5.298 0 0 0-4.04-.652z" fill="#EE9583"/><path d="M128.352 119.242a2 2 0 0 1-2.172 1.812l-67.942-6.135a2 2 0 0 1-1.812-2.172l4.537-50.246a2 2 0 0 1 2.172-1.813l67.942 6.135a2 2 0 0 1 1.812 2.172l-4.537 50.247z" fill="#E28B0C"/><path d="M128.352 119.242a2 2 0 0 1-2.172 1.812l-34.523-3.117a2 2 0 0 1-1.812-2.172l4.537-50.247a2 2 0 0 1 2.171-1.812l34.524 3.117a2 2 0 0 1 1.812 2.172l-4.537 50.247z" fill="#CD7900"/><path fill-rule="evenodd" clip-rule="evenodd" d="M108.491 92.952l5.602.506c.973.088 1.682 1.048 1.583 2.144l-.32 3.54c-.099 1.097-.968 1.915-1.941 1.827l-5.602-.506c-.973-.088-1.682-1.048-1.583-2.145l.32-3.54c.099-1.096.968-1.914 1.941-1.826z" fill="#B36A00"/><path fill-rule="evenodd" clip-rule="evenodd" d="M113.117 84.725l5.407 9.784c.384.694.188 1.618-.438 2.064a1.233 1.233 0 0 1-.829.233l-12.479-1.127c-.729-.066-1.261-.786-1.186-1.608.029-.326.153-.635.352-.878l7.072-8.657c.501-.614 1.342-.665 1.877-.114.087.089.162.191.224.303z" fill="#B36A00"/><path d="M119.382 65.767c.308.028.538.269.514.538L119.021 76a.464.464 0 0 1-.215.344.619.619 0 0 1-.785-.103l-1.159-1.328a1.13 1.13 0 0 0-.066-.069c-.422-.404-1.13-.44-1.582-.08l-1.537 1.226a.895.895 0 0 1-.077.056c-.488.322-1.191.23-1.57-.205l-1.293-1.48a1.192 1.192 0 0 0-.066-.07c-.422-.404-1.13-.44-1.581-.08l-1.379 1.1a.6.6 0 0 1-.426.12c-.308-.027-.538-.268-.514-.537l.876-9.696c.024-.27.293-.465.601-.437l11.134 1.005z" fill="#FFCE8E"/><path d="M63.306 77.206a5 5 0 0 1 5.43-4.53l16.047 1.45a5 5 0 0 1 4.53 5.429l-.318 3.53a5 5 0 0 1-5.43 4.53l-16.048-1.45a5 5 0 0 1-4.53-5.429l.319-3.53z" fill="#3D3D3D"/><path fill-rule="evenodd" clip-rule="evenodd" d="M80.731 75.982a3.524 3.524 0 0 0-3.854 3.159l-.212 2.133a3.524 3.524 0 1 0 7.013.695l.212-2.133a3.524 3.524 0 0 0-3.159-3.854z" fill="#fff"/><path d="M77.894 79.522a1.283 1.283 0 0 0 1.376-1.566 1.582 1.582 0 0 1 1.697 1.734l-.196 1.976a1.582 1.582 0 0 1-3.148-.313l.182-1.843c.03.005.059.009.089.012z" fill="#3D3D3D"/><path fill-rule="evenodd" clip-rule="evenodd" d="M72.476 75.163a3.524 3.524 0 0 1 3.159 3.854l-.212 2.133a3.524 3.524 0 1 1-7.013-.695l.212-2.133a3.524 3.524 0 0 1 3.854-3.159z" fill="#fff"/><path d="M71.616 78.882a1.282 1.282 0 0 0 1.376-1.566 1.582 1.582 0 0 1 1.697 1.734l-.196 1.975a1.582 1.582 0 1 1-3.148-.312l.183-1.843c.029.005.058.009.088.012z" fill="#3D3D3D"/><path d="M7.735 83.381l7.281-1.98a2.2 2.2 0 0 1 2.701 1.547l.006.02.79 3.021a2.2 2.2 0 0 1-1.571 2.686l-7.3 1.91a2.2 2.2 0 0 1-2.685-1.57l-.773-2.953a2.2 2.2 0 0 1 1.551-2.68zM32.065 77.013l7.28-1.98a2.2 2.2 0 0 1 2.702 1.546l.005.02.79 3.022a2.2 2.2 0 0 1-1.57 2.686l-7.3 1.91a2.2 2.2 0 0 1-2.686-1.571l-.773-2.953a2.2 2.2 0 0 1 1.552-2.68z" fill="#F0EAEA"/><path d="M5.17 85.917l38.016-9.95a5.344 5.344 0 0 1 6.523 3.816l4.617 17.64a5.345 5.345 0 0 1-3.817 6.523l-38.015 9.951a5.345 5.345 0 0 1-6.523-3.817L1.353 92.44a5.344 5.344 0 0 1 3.817-6.523z" fill="#4B4B4B"/><path d="M44.662 92.153a2.043 2.043 0 0 1 2.494 1.46l.16.608a2.044 2.044 0 0 1-3.955 1.034l-.159-.608a2.043 2.043 0 0 1 1.46-2.494zM7.542 98.893L7.124 97.3a1.132 1.132 0 0 1 .809-1.382l.947-.248a1.132 1.132 0 0 1 1.382.809l.417 1.594 1.594-.417a1.132 1.132 0 0 1 1.382.808l.248.947a1.132 1.132 0 0 1-.809 1.382l-1.594.417.418 1.594a1.132 1.132 0 0 1-.809 1.382l-.947.248a1.132 1.132 0 0 1-1.382-.808l-.417-1.595-1.594.418a1.132 1.132 0 0 1-1.382-.809l-.248-.947a1.132 1.132 0 0 1 .808-1.382l1.595-.417zM46.878 85.724a2.043 2.043 0 0 1 2.494 1.459l.16.608a2.043 2.043 0 1 1-3.954 1.035l-.16-.608a2.043 2.043 0 0 1 1.46-2.494z" fill="#F0EAEA"/><path d="M15.453 84.74l17.943-4.697a3.93 3.93 0 0 1 4.797 2.806l4.538 17.335a3.93 3.93 0 0 1-2.807 4.797l-17.943 4.697a3.93 3.93 0 0 1-4.797-2.807l-4.537-17.335a3.93 3.93 0 0 1 2.806-4.796z" fill="#7AF0F2"/><path d="M15.453 84.74l17.943-4.697a3.93 3.93 0 0 1 4.797 2.806l4.538 17.335a3.93 3.93 0 0 1-2.807 4.797l-17.943 4.697a3.93 3.93 0 0 1-4.797-2.807l-4.537-17.335a3.93 3.93 0 0 1 2.806-4.796z" fill="#7AF0F2"/><path d="M39.894 89.459l-1.701-6.499a3.93 3.93 0 0 0-4.797-2.806l-.02.005-8.785 16.999a5.03 5.03 0 1 0 8.937 4.62l6.366-12.32zM17.3 107.352a4.018 4.018 0 0 1-.116-.37l-1.444-5.514 8.263-15.986a2.043 2.043 0 0 1 3.63 1.876L17.3 107.352z" fill="#B3FEFF"/></svg>