<svg viewBox="0 0 135 124" fill="none" xmlns="http://www.w3.org/2000/svg"><g clip-path="url(#clip0)"><path d="M107 11H28c-9.389 0-17 7.611-17 17v79c0 9.389 7.611 17 17 17h79c9.389 0 17-7.611 17-17V28c0-9.389-7.611-17-17-17z" fill="#F68F00"/><path d="M93.35 67.7a25.6 25.6 0 0 1-25.51 25.69 25 25 0 0 1-7.43-1.11A25.72 25.72 0 0 1 67.84 42a25 25 0 0 1 5.57.63A25.71 25.71 0 0 1 93.35 67.7z" fill="#62361B"/><path d="M121.38 66.43v2.25a3.997 3.997 0 0 1-4 4H99.52V62.43h17.87a4 4 0 0 1 3.99 4z" fill="#fff"/><path d="M110.45 62.43H99.52v10.25h10.93V62.43z" fill="#DCF3FF"/><path d="M67.84 103.24c19.479 0 35.27-15.907 35.27-35.53 0-19.622-15.791-35.53-35.27-35.53-19.48 0-35.27 15.907-35.27 35.53s15.79 35.53 35.27 35.53z" fill="#fff"/><path d="M67.84 97.93c16.569 0 30-13.53 30-30.22 0-16.69-13.431-30.22-30-30.22-16.569 0-30 13.53-30 30.22 0 16.69 13.431 30.22 30 30.22z" fill="#DCF3FF"/><path d="M93.35 67.7a25.6 25.6 0 0 1-25.51 25.69 25 25 0 0 1-7.43-1.11A25.72 25.72 0 0 1 67.84 42a25 25 0 0 1 5.57.63A25.71 25.71 0 0 1 93.35 67.7z" fill="#62361B"/><path d="M23.07 45.57c12.576 0 22.77-10.195 22.77-22.77C45.84 10.224 35.646.03 23.07.03 10.495.03.3 10.224.3 22.8c0 12.575 10.194 22.77 22.77 22.77z" fill="#A56640"/><path d="M33.32 28.712l-2.058 2.058a2.938 2.938 0 0 0-.003 4.155 2.937 2.937 0 0 0 4.154-.004l2.058-2.058a2.938 2.938 0 0 0 .003-4.154 2.938 2.938 0 0 0-4.154.003zM13.7 26.06h-2.91a2.937 2.937 0 0 0-2.94 2.935 2.938 2.938 0 0 0 2.94 2.935h2.91a2.938 2.938 0 0 0 2.94-2.935 2.937 2.937 0 0 0-2.94-2.935zM10.02 6.36H7.11a2.938 2.938 0 0 0-2.94 2.935 2.938 2.938 0 0 0 2.94 2.935h2.91a2.937 2.937 0 0 0 2.94-2.935 2.937 2.937 0 0 0-2.94-2.935zM25.69 5.36v2.91a2.938 2.938 0 0 0 2.935 2.94 2.938 2.938 0 0 0 2.935-2.94V5.36a2.937 2.937 0 0 0-2.935-2.94 2.938 2.938 0 0 0-2.935 2.94zM18.46 40.62v2.91a2.937 2.937 0 0 0 2.935 2.94 2.938 2.938 0 0 0 2.935-2.94v-2.91a2.938 2.938 0 0 0-2.935-2.94 2.937 2.937 0 0 0-2.935 2.94zM19.77 20.231l1.614-2.42a2.937 2.937 0 0 0-.81-4.075 2.937 2.937 0 0 0-4.073.817l-1.615 2.42a2.938 2.938 0 0 0 .81 4.075c1.348.9 3.172.534 4.073-.817zM38.395 21.06l1.615-2.421a2.937 2.937 0 0 0-.81-4.075 2.938 2.938 0 0 0-4.073.817l-1.615 2.42a2.938 2.938 0 0 0 .81 4.075c1.348.9 3.172.534 4.073-.817z" fill="#62361B"/><path d="M91.629 3.138c-3.792-3.792-9.94-3.792-13.732 0s-3.792 9.94 0 13.732l7.318 7.319c3.792 3.791 9.94 3.791 13.732 0 3.792-3.793 3.792-9.94 0-13.732l-7.318-7.32z" fill="#DCF3FF"/><path d="M92.633 14.305l-3.359 3.359 35.101 35.1 3.359-3.358-35.101-35.101z" fill="#DCF3FF"/><path d="M131.625 50.535a4.47 4.47 0 0 0-6.322 6.322l1.775 1.774a4.47 4.47 0 0 0 6.322-6.321l-1.775-1.775z" fill="#DCF3FF"/><path d="M90.7 4.75c.403.395.758.834 1.06 1.31A7.92 7.92 0 0 0 80.81 17a7.608 7.608 0 0 1-1.31-1.06A7.92 7.92 0 1 1 90.7 4.75z" fill="#C5EBFD"/><path d="M95.86 23a2.09 2.09 0 0 1-1.74-3.25C96 17 93.87 14.1 93.78 14a2.109 2.109 0 0 1 .38-3 2.081 2.081 0 0 1 2.92.36c.17.21 4.09 5.32.53 10.67a2.08 2.08 0 0 1-1.75.97zM37.94 99.52h-14.4a2.15 2.15 0 0 0-2.15 2.15v7.86a2.15 2.15 0 0 0 2.15 2.15h14.4a2.15 2.15 0 0 0 2.15-2.15v-7.86a2.15 2.15 0 0 0-2.15-2.15zM28.353 82.81l-13.696 4.447a2.15 2.15 0 0 0-1.38 2.71l2.427 7.475a2.15 2.15 0 0 0 2.71 1.38l13.695-4.447a2.15 2.15 0 0 0 1.38-2.709l-2.427-7.475a2.15 2.15 0 0 0-2.709-1.381z" fill="#fff"/></g><defs><clipPath id="clip0"><path fill="#fff" d="M0 0h135v124H0z"/></clipPath></defs></svg>