<svg viewBox="0 0 135 124" fill="none" xmlns="http://www.w3.org/2000/svg"><g clip-path="url(#clip0)"><path fill-rule="evenodd" clip-rule="evenodd" d="M28 11h79c9.389 0 17 7.611 17 17v79c0 9.389-7.611 17-17 17H28c-9.389 0-17-7.611-17-17V28c0-9.389 7.611-17 17-17z" fill="#916FCA"/><path fill-rule="evenodd" clip-rule="evenodd" d="M39.809 76.086a4.725 4.725 0 0 1 2.718 6.104l-16.025 41.745a16.91 16.91 0 0 1-8.81-3.416l16.013-41.716a4.725 4.725 0 0 1 6.104-2.717z" fill="#1CB0F6"/><path fill-rule="evenodd" clip-rule="evenodd" d="M44.948 93.433c11.77 0 21.31 9.505 21.31 21.231 0 3.532-.866 6.863-2.397 9.793H28.056c-.706 0-1.403-.043-2.087-.127a21.085 21.085 0 0 1-2.331-9.666c0-5.863 2.385-11.171 6.241-15.013l.47-.454a21.279 21.279 0 0 1 14.599-5.764z" fill="#FFB7E3"/><path fill-rule="evenodd" clip-rule="evenodd" d="M88.727 71.477c5.831-.82 11.213 3.17 12.02 8.908.031.226.055.45.072.675l.023-.004c5.462-.768 10.512 3.05 11.281 8.521l.209 1.487-19.779 2.78-.209-1.487-.027-.21c-.22.045-.443.083-.669.115-5.833.82-11.215-3.169-12.022-8.908-.806-5.74 3.268-11.057 9.101-11.877z" fill="#FF9600"/><path fill-rule="evenodd" clip-rule="evenodd" d="M116.277 49.42l7.78 19.257v21.885l-5.724 2.362-15.359-38.015 13.303-5.488z" fill="#2FE3FF"/><path fill-rule="evenodd" clip-rule="evenodd" d="M124.057 84.86v22.598c0 9.388-7.612 17-17 17l-31.74-.001-2.77-19.72c-.99-7.036 3.913-13.54 10.949-14.53l37.547-5.276c1.02-.144 2.03-.163 3.014-.07z" fill="#FFC6B7"/><path fill-rule="evenodd" clip-rule="evenodd" d="M79.564 91.42l1.796 12.784a7.617 7.617 0 0 1-6.483 8.603l-1.173.165-1.157-8.235c-.791-5.63 2.19-10.92 7.017-13.316z" fill="#FFB67A"/><path fill-rule="evenodd" clip-rule="evenodd" d="M104.742 38.322a3.678 3.678 0 0 0-2.032 4.788l.389.962a3.678 3.678 0 0 0-5.343 5.046l2.691 3.095a3.68 3.68 0 0 0 .835 7.306l3.3-.29 1.003 2.485 13.442-5.43-2.507-6.206c.063-.198.111-.404.141-.618l.647-4.6a3.678 3.678 0 0 0-6.875-2.267l-.904-2.239a3.677 3.677 0 0 0-4.787-2.032zM74.659 120.522a5.67 5.67 0 1 0-1.579-11.231 5.67 5.67 0 0 0 1.579 11.231z" fill="#FFC6B7"/><path fill-rule="evenodd" clip-rule="evenodd" d="M113.772 99.426a3.5 3.5 0 0 1 3.181 3.791l-.305 3.487c-1.295-1.528-2.339-2.327-3.133-2.397-.794-.069-2.074.526-3.84 1.787l.305-3.487a3.5 3.5 0 0 1 3.792-3.181z" fill="#FF7FB1"/><path fill-rule="evenodd" clip-rule="evenodd" d="M81.019 9.454a5.103 5.103 0 0 1 3.276 6.43l-6.383 19.431a.519.519 0 0 1-.653.333l-8.72-2.833a.519.519 0 0 1-.332-.654l6.382-19.43a5.103 5.103 0 0 1 6.43-3.277z" fill="#E18E70"/><path fill-rule="evenodd" clip-rule="evenodd" d="M71.827 21.23l9.706 3.154-21.281 65.374a.519.519 0 0 1-.654.334l-8.72-2.833a.52.52 0 0 1-.332-.654L71.827 21.23z" fill="#1CB0F6"/><path fill-rule="evenodd" clip-rule="evenodd" d="M92.207 21.654a7.56 7.56 0 0 1-13.22-7.332l.126-.228 3.78-6.547c.143-.248.299-.486.465-.711A8.644 8.644 0 0 1 91.533 1h19.44a8.637 8.637 0 0 1 7.615 4.556c.225.283.432.588.619.911l4.32 7.483a7.56 7.56 0 1 1-13.094 7.56l-1.864-3.23H94.155l-1.948 3.374z" fill="#3D3D3D"/><path fill-rule="evenodd" clip-rule="evenodd" d="M89.373 26.92a4.32 4.32 0 1 0 0-8.64 4.32 4.32 0 0 0 0 8.64z" fill="#E18E70"/><path fill-rule="evenodd" clip-rule="evenodd" d="M93.693 22.6a4.32 4.32 0 1 0 0-8.64 4.32 4.32 0 0 0 0 8.64z" fill="#E18E70"/><path fill-rule="evenodd" clip-rule="evenodd" d="M100.172 22.6a4.32 4.32 0 1 0 0-8.64 4.32 4.32 0 0 0 0 8.64zM79.653 16.12a4.32 4.32 0 1 0 0-8.64 4.32 4.32 0 0 0 0 8.64z" fill="#E18E70"/><path fill-rule="evenodd" clip-rule="evenodd" d="M112.592 9.64a2.7 2.7 0 1 0 0-5.4 2.7 2.7 0 0 0 0 5.4z" fill="#FF3636"/><path fill-rule="evenodd" clip-rule="evenodd" d="M90.452 5.32h1.08c.597 0 1.08.483 1.08 1.08v6.48a1.08 1.08 0 0 1-1.08 1.08h-1.08a1.08 1.08 0 0 1-1.08-1.08V6.4c0-.597.484-1.08 1.08-1.08z" fill="#AEAEAE"/><path fill-rule="evenodd" clip-rule="evenodd" d="M95.313 9.1v1.08a1.08 1.08 0 0 1-1.08 1.08h-6.48a1.08 1.08 0 0 1-1.08-1.08V9.1c0-.597.483-1.08 1.08-1.08h6.48c.596 0 1.08.483 1.08 1.08z" fill="#AEAEAE"/><path fill-rule="evenodd" clip-rule="evenodd" d="M107.193 13.96a2.7 2.7 0 1 0 0-5.4 2.7 2.7 0 0 0 0 5.4z" fill="#7CFF4A"/><path opacity=".432" fill-rule="evenodd" clip-rule="evenodd" d="M98.013 3.16h5.4a1.08 1.08 0 1 1 0 2.16h-5.4a1.08 1.08 0 1 1 0-2.16z" fill="#D8D8D8"/><path fill-rule="evenodd" clip-rule="evenodd" d="M50.962 67.446l8.774 17.846a6.086 6.086 0 0 1-5.462 8.772H36.727a6.086 6.086 0 0 1-5.462-8.772l8.774-17.846a6.086 6.086 0 0 1 10.923 0z" fill="#1CB0F6"/><path fill-rule="evenodd" clip-rule="evenodd" d="M32.32 93.117h25.256v4.104H32.319v-4.104z" fill="#FF86D0"/><path fill-rule="evenodd" clip-rule="evenodd" d="M54.89 70.249h-4.426a2.723 2.723 0 0 0-2.691 3.14l2.359 15.215a2.723 2.723 0 0 0 2.69 2.306h6.785a2.723 2.723 0 0 0 2.6-3.53L57.49 72.166a2.723 2.723 0 0 0-2.6-1.916z" fill="#FFB7E3"/><path fill-rule="evenodd" clip-rule="evenodd" d="M37.523 71.176H53.32a5.045 5.045 0 0 1 5.04 4.826l.005.231a5.045 5.045 0 0 1-5.045 5.045H37.523a5.045 5.045 0 0 1-5.04-4.826l-.005-.231a5.045 5.045 0 0 1 5.045-5.045zM37.056 92.959h3.315v6.63h-3.315v-6.63zM49.525 92.959h3.315v6.63h-3.315v-6.63z" fill="#FFB7E3"/><path fill-rule="evenodd" clip-rule="evenodd" d="M36.504 4.458c20.16 0 36.504 16.344 36.504 36.504v3.929c0 20.16-16.343 36.504-36.504 36.504C16.344 81.395 0 65.052 0 44.891v-3.929C0 20.802 16.343 4.458 36.504 4.458z" fill="#FFB7E3"/><path opacity=".573" fill-rule="evenodd" clip-rule="evenodd" d="M36.504 4.458c20.16 0 36.504 16.344 36.504 36.504v3.929c0 20.16-16.343 36.504-36.504 36.504C16.344 81.395 0 65.052 0 44.891v-3.929C0 20.802 16.343 4.458 36.504 4.458z" fill="#FFB7E3"/><path opacity=".573" fill-rule="evenodd" clip-rule="evenodd" d="M62.817 50.706A1.719 1.719 0 0 1 63.62 53c-7.378 15.353-21.367 24.805-43.498 24.52a36.4 36.4 0 0 1-5.61-3.49c.26-.122.553-.181.86-.159 23.59 1.753 37.825-7.117 45.15-22.36a1.719 1.719 0 0 1 2.294-.805z" fill="#FF86D0"/><path fill-rule="evenodd" clip-rule="evenodd" d="M36.478 12.847c16.047 0 29.056 13.008 29.056 29.056 0 16.047-13.009 29.056-29.056 29.056S7.422 57.949 7.422 41.903c0-16.047 13.009-29.056 29.056-29.056z" fill="#E18E70"/><path fill-rule="evenodd" clip-rule="evenodd" d="M36.478 12.847a28.92 28.92 0 0 1 16.197 4.93l-1.232 1.246-.887.878-.464.45-.722.688-.753.7-.52.473-.536.476-.55.478-.565.48-.58.48-.297.241-.603.481-.308.24-.628.48c-.318.238-.642.476-.972.713l-.669.471c-.225.157-.454.313-.685.467l-.702.462-.72.456c-6.672 4.15-15.531 7.44-27.313 7.038-1.448-.05-3.226-.541-4.49-1.067 3.407-12.262 14.652-21.261 27.999-21.261z" fill="#3D3D3D"/><path d="M46.249 48.434l.178-.097c.433-.181.85-.409 1.242-.683l.554-.299 1.067-.566c.52-.272 1.019-.529 1.497-.769l.93-.46a6.604 6.604 0 0 0 1.344-.636c.156-.08.28-.164.376-.251a6.663 6.663 0 0 0-3.926-12.079c-4.375.03-8.18 1.986-10.918 5.504a6.66 6.66 0 0 0 1.166 9.35 6.666 6.666 0 0 0 6.498.957l-.008.03z" fill="#fff"/><path d="M54.614 34.917l.134.162a6.632 6.632 0 0 1 1.472 4.134 6.656 6.656 0 0 1-2.783 5.46c-.096.087-.22.17-.377.252-.335.207-.69.386-1.062.533l-.281.103-.93.46-.486.245-.763.393a3.953 3.953 0 0 1-1.591-6.67c.392-.369.444-.471.353-.8l-.028-.096a3.953 3.953 0 0 1 6.342-4.176z" fill="#3D3D3D"/><path d="M34.854 38.098a6.66 6.66 0 0 1-1.166 9.35 6.666 6.666 0 0 1-6.499.957l.009.03-.178-.098a6.63 6.63 0 0 1-1.243-.682l-.553-.3-1.067-.566-1.012-.523-.957-.48-.459-.225a6.61 6.61 0 0 1-1.343-.637 1.762 1.762 0 0 1-.377-.25 6.657 6.657 0 0 1-2.783-5.461 6.636 6.636 0 0 1 .615-2.756h15.541c.52.5 1.01 1.049 1.472 1.64z" fill="#fff"/><path d="M34.854 38.098a6.66 6.66 0 0 1-1.526 9.613 3.954 3.954 0 0 1-3.182-6.879l.363-.3c.244-.215.276-.33.225-.605l-.02-.098a3.954 3.954 0 0 1 1.76-4.181 15.224 15.224 0 0 1 2.38 2.45z" fill="#3D3D3D"/><path fill-rule="evenodd" clip-rule="evenodd" d="M12.84 36.232h9.842l15.375-3 11.248-3 9.536 3v6.131c-.052.1-.19.194-.414.281l-.185.064-.216.062-.25.059-.28.056-.315.054-.346.052-.58.072-.652.067-.726.061-.524.038-.556.035-.895.048-1.307.055-1.065.035-1.138.03-1.63.03-2.22.023-1.922.007h-.5c-10.093 0-20.186-.376-30.28-1.129v-3.13z" fill="#E18E70"/><path d="M2.846 23.158l17.957 4.629a1.453 1.453 0 0 1 .842 2.192c-2.57 3.968-7.472 5.866-12.158 4.605C4.802 33.322 1.5 29.215 1.25 24.487c-.052-.984.646-1.585 1.596-1.33z" fill="#3D3D3D"/><path d="M5.776 23.923c6.172 1.493 8.938-1.855 11.784-4.173 1.896-1.546 4.164-.155 6.802 4.173l-7.443 5.542-10.222-1.932c-4.729-3.402-5.036-4.605-.921-3.61z" fill="#3D3D3D"/><path fill-rule="evenodd" clip-rule="evenodd" d="M36.624 53.343c1.514 0 2.742-1.238 2.742-2.766 0-.601-.425-1.527-.941-2.427l-.244-.413a24.18 24.18 0 0 0-.124-.202l-.249-.393-.243-.371-.44-.643-.501-.69-.318.433-.393.56-.351.522-.247.383-.25.401-.243.413c-.516.9-.941 1.826-.941 2.427 0 1.528 1.228 2.766 2.743 2.766z" fill="#9E4D31"/><path d="M22.547 56.949c4.686-2.594 8.02-1.368 10 3.679" stroke="#9E4D31" stroke-width="2" stroke-linecap="round" stroke-linejoin="round"/><path fill-rule="evenodd" clip-rule="evenodd" d="M86.721 95.852a35.775 35.775 0 0 1 6.572-.743 33.671 33.671 0 0 1 6.332.493 3.14 3.14 0 0 1 2.606 3.04 1.965 1.965 0 0 1-2.318 1.968 32.506 32.506 0 0 0-6.408-.503 36.58 36.58 0 0 0-6.859.775 2.002 2.002 0 0 1-2.412-1.925 3.113 3.113 0 0 1 2.487-3.105z" fill="#fff"/><path fill-rule="evenodd" clip-rule="evenodd" d="M99.625 95.602c.322.056.625.16.904.303a4 4 0 0 1-3.22 2.64l-.99.14A4 4 0 0 1 91.8 95.28l-.012-.111a33.672 33.672 0 0 1 7.836.433z" fill="#3D3D3D"/><path fill-rule="evenodd" clip-rule="evenodd" d="M104.449 104.904a3.135 3.135 0 0 0 2.664-3.543c-.101-.715-.797-1.762-1.575-2.74l-.314-.385-.316-.374-.46-.523-.287-.315-.384-.41-.577-.594-.301.557-.317.614-.276.561-.194.41-.196.43-.192.443c-.032.074-.063.15-.093.224l-.178.45-.083.224-.152.442c-.235.727-.372 1.393-.307 1.857a3.134 3.134 0 0 0 3.538 2.672z" fill="#EE9583"/><path d="M113.654 89.38a1 1 0 0 1 1.489 1.329l-.084.093-4.743 4.682.359-.064c5.013-.895 8.455-.905 10.423.027l.165.082a1 1 0 0 1-.928 1.772c-.733-.384-1.897-.571-3.478-.554l-.543.013a23.89 23.89 0 0 0-.282.012l-.589.036-.306.024-.635.059-.328.035-.681.082c-.116.015-.233.03-.351.047l-.726.105-.375.059-.771.129-.396.07-.816.152-.846.169-.876.184-.905.2c-.945.213-1.59-.894-.997-1.607l.074-.08 7.146-7.057zM103.724 110.167l.258-.276.51-.534.252-.259.501-.5.494-.477a30.809 30.809 0 0 1 1.912-1.68l.462-.362c5.039-3.855 8.851-3.491 10.996 1.49a1 1 0 0 1-1.837.791c-1.428-3.318-3.809-3.786-7.497-1.083l-.431.326c-.073.057-.146.114-.22.174l-.449.368c-.228.191-.46.393-.696.606l-.479.44-.491.468c-.083.08-.167.162-.25.245l-.51.512-.522.54-.535.57a1.001 1.001 0 0 1-1.468-1.359z" fill="#EE9583"/></g><defs><clipPath id="clip0"><path fill="#fff" d="M0 0h135v124H0z"/></clipPath></defs></svg>