<svg viewBox="0 0 135 124" fill="none" xmlns="http://www.w3.org/2000/svg"><g clip-path="url(#clip0)"><path d="M107 11H28c-9.389 0-17 7.611-17 17v79c0 9.389 7.611 17 17 17h79c9.389 0 17-7.611 17-17V28c0-9.389-7.611-17-17-17z" fill="#E5E5E5"/><path fill-rule="evenodd" clip-rule="evenodd" d="M73.918 74.311c2.642-13.159 14.748-22.233 28.12-21.076 12.931 1.12 23.123 11.485 24.025 24.433l2.801 40.238a1.338 1.338 0 0 1-1.45 1.426l-59.974-5.191a1.338 1.338 0 0 1-1.196-1.596l7.674-38.234z" fill="#A570FF"/><path fill-rule="evenodd" clip-rule="evenodd" d="M117.784 81.62a5.082 5.082 0 0 1 5.501-4.626l1.974.171a5.082 5.082 0 1 1-.876 10.127l-1.974-.17a5.082 5.082 0 0 1-4.625-5.502z" fill="#FFC6B7"/><path fill-rule="evenodd" clip-rule="evenodd" d="M80.1 74.638c2.527-10.843 12.639-18.18 23.73-17.22 11.349.982 20.149 10.33 20.447 21.716l.614 23.529a5.836 5.836 0 0 1-6.338 5.967l-38.57-3.338c-3.635-.314-6.146-3.776-5.319-7.328L80.1 74.638z" fill="#FFC6B7"/><path fill-rule="evenodd" clip-rule="evenodd" d="M115.857 78.526a.858.858 0 0 0-.78-.928l-5.585-.483a7.012 7.012 0 0 0-7.59 6.38l-.381 4.4a3.287 3.287 0 0 0 2.991 3.558l3.164.274a7.012 7.012 0 0 0 7.591-6.381l.59-6.82z" fill="#fff"/><path fill-rule="evenodd" clip-rule="evenodd" d="M110.27 83.434a3.025 3.025 0 0 0-6.027-.522l-.327 3.786a3.025 3.025 0 0 0 6.027.522l.327-3.786z" fill="#3D3D3D"/><path d="M101.519 87.922l13.13-.241a6.999 6.999 0 0 0 .618-2.335l.59-6.82a.857.857 0 0 0-.78-.928l-5.584-.483a7.012 7.012 0 0 0-7.591 6.38l-.381 4.4-.002.027z" fill="#A570FF"/><path fill-rule="evenodd" clip-rule="evenodd" d="M87.302 76.055a.857.857 0 0 1 .928-.78l5.585.483a7.012 7.012 0 0 1 6.381 7.59l-.368 4.258a3.43 3.43 0 0 1-3.713 3.12l-3.022-.261a7.012 7.012 0 0 1-6.38-7.59l.59-6.82z" fill="#fff"/><path fill-rule="evenodd" clip-rule="evenodd" d="M91.963 81.85a3.025 3.025 0 1 1 6.027.522l-.328 3.784a3.024 3.024 0 1 1-6.027-.522l.328-3.784z" fill="#3D3D3D"/><path d="M99.804 87.803l-12.876-2.49a7 7 0 0 1-.216-2.439l.59-6.82a.857.857 0 0 1 .928-.78l5.584.484a7.011 7.011 0 0 1 6.381 7.59l-.368 4.258a3.466 3.466 0 0 1-.023.197z" fill="#A570FF"/><path fill-rule="evenodd" clip-rule="evenodd" d="M74.857 78.166a26.822 26.822 0 0 1 9.802-18.47l7.979-2.535a1.605 1.605 0 0 1 2.084 1.668l-4.216 48.716a1.337 1.337 0 0 1-1.448 1.217l-15.125-1.309a1.604 1.604 0 0 1-1.46-1.737l2.384-27.55z" fill="#A570FF"/><path fill-rule="evenodd" clip-rule="evenodd" d="M91.897 106.329l12.669 1.096-.853 9.856-12.67-1.097.854-9.855z" fill="#593F86"/><path fill-rule="evenodd" clip-rule="evenodd" d="M99.81 95.558a2.708 2.708 0 0 0 2.937-2.455c.129-1.485-2.272-5.232-2.272-5.232s-3.009 3.279-3.138 4.764a2.707 2.707 0 0 0 2.472 2.923zM106.207 99.659c-4.966-3.089-9.601-.751-11.288.795a.724.724 0 0 1-.978-1.066c1.97-1.806 7.316-4.512 13.03-.958a.724.724 0 0 1-.764 1.229z" fill="#EE9583"/><path d="M124.574 77.106l-15.858-1.372c-8.95-.775-15.612-8.555-15.051-17.473a22.952 22.952 0 0 1 10.034-1.364c10.957.948 19.605 9.479 20.875 20.21z" fill="#A570FF"/><path d="M66.829 84.643c-2.446 3.663-1.199 8.811-1.199 8.811s5.285-.79 7.765-4.481c2.48-3.692 1.199-8.812 1.199-8.812s-5.286.81-7.765 4.482z" fill="#979797"/><path d="M67.447 78.272c-4.135.09-7.467 3.864-7.467 3.864s3.375 3.618 7.51 3.528c4.135-.09 7.472-3.872 7.472-3.872s-3.375-3.617-7.515-3.52z" fill="#979797"/><path fill-rule="evenodd" clip-rule="evenodd" d="M73.918 74.311c2.642-13.159 14.748-22.233 28.12-21.076 12.931 1.12 23.123 11.485 24.025 24.433l2.801 40.238a1.338 1.338 0 0 1-1.45 1.426l-59.974-5.191a1.338 1.338 0 0 1-1.196-1.596l7.674-38.234z" fill="#BFBFBF"/><path fill-rule="evenodd" clip-rule="evenodd" d="M117.783 81.62a5.082 5.082 0 0 1 5.502-4.626l1.973.171a5.083 5.083 0 0 1-.876 10.127l-1.974-.17a5.083 5.083 0 0 1-4.625-5.502z" fill="#D1D1D1"/><path fill-rule="evenodd" clip-rule="evenodd" d="M80.1 74.638c2.527-10.843 12.639-18.18 23.73-17.22 11.349.982 20.149 10.33 20.447 21.716l.614 23.529a5.836 5.836 0 0 1-6.338 5.967l-38.57-3.338c-3.635-.314-6.146-3.776-5.319-7.328L80.1 74.638z" fill="#D1D1D1"/><path fill-rule="evenodd" clip-rule="evenodd" d="M115.856 78.526a.857.857 0 0 0-.78-.928l-5.584-.483a7.012 7.012 0 0 0-7.59 6.38l-.381 4.4a3.286 3.286 0 0 0 2.991 3.558l3.164.274a7.012 7.012 0 0 0 7.59-6.381l.59-6.82z" fill="#fff"/><path fill-rule="evenodd" clip-rule="evenodd" d="M110.27 83.434a3.025 3.025 0 1 0-6.027-.522l-.328 3.786a3.025 3.025 0 1 0 6.027.522l.328-3.786z" fill="#A6A6A6"/><path d="M101.518 87.922l13.13-.241a6.999 6.999 0 0 0 .618-2.335l.59-6.82a.857.857 0 0 0-.78-.928l-5.584-.484a7.012 7.012 0 0 0-7.591 6.382l-.381 4.4a.24.24 0 0 1-.002.026z" fill="#BFBFBF"/><path fill-rule="evenodd" clip-rule="evenodd" d="M87.302 76.055a.857.857 0 0 1 .928-.78l5.584.483a7.011 7.011 0 0 1 6.381 7.59l-.368 4.258a3.43 3.43 0 0 1-3.712 3.12l-3.022-.261a7.012 7.012 0 0 1-6.381-7.59l.59-6.82z" fill="#fff"/><path fill-rule="evenodd" clip-rule="evenodd" d="M91.962 81.85a3.025 3.025 0 0 1 6.027.522l-.327 3.784a3.025 3.025 0 0 1-6.027-.522l.327-3.784z" fill="#A6A6A6"/><path d="M99.804 87.803l-12.876-2.49a7 7 0 0 1-.216-2.439l.59-6.82a.857.857 0 0 1 .928-.78l5.584.484a7.011 7.011 0 0 1 6.381 7.59l-.368 4.258a3.466 3.466 0 0 1-.023.197z" fill="#BFBFBF"/><path fill-rule="evenodd" clip-rule="evenodd" d="M74.856 78.166a26.822 26.822 0 0 1 9.802-18.47l7.979-2.535a1.605 1.605 0 0 1 2.085 1.668l-4.217 48.716a1.337 1.337 0 0 1-1.448 1.217l-15.125-1.309a1.604 1.604 0 0 1-1.46-1.737l2.384-27.55z" fill="#BFBFBF"/><path fill-rule="evenodd" clip-rule="evenodd" d="M91.897 106.329l12.67 1.096-.853 9.856-12.67-1.097.853-9.855z" fill="#A6A6A6"/><path fill-rule="evenodd" clip-rule="evenodd" d="M99.81 95.558c1.494.13 2.809-.97 2.937-2.455.129-1.485-2.272-5.232-2.272-5.232s-3.008 3.279-3.137 4.764a2.707 2.707 0 0 0 2.472 2.923zM106.207 99.659c-4.966-3.089-9.601-.751-11.287.795a.724.724 0 0 1-.978-1.066c1.97-1.806 7.316-4.512 13.03-.958a.724.724 0 0 1-.765 1.229z" fill="#959595"/><path d="M124.575 77.106l-15.859-1.372c-8.95-.775-15.611-8.555-15.05-17.473a22.951 22.951 0 0 1 10.033-1.364c10.957.948 19.605 9.479 20.876 20.21z" fill="#BFBFBF"/><path d="M125.096 72.185c-2.967-10.294-12.013-17.994-23.057-18.95-13.372-1.157-25.478 7.917-28.12 21.076l-2.04 10.164 53.217-12.29z" fill="#979797"/><path d="M89.335 7.399l-.81-.806a9.14 9.14 0 0 0-15.314 8.694l4.158.16c.452.679 1.226 2.154.71 2.615-.228.203-1.032.98-2.006 1.928l4.026-.127c2.068 2.057 3.654 3.086 5.311 2.898l4.014 9.14a8.454 8.454 0 0 0 11.955.174 8.455 8.455 0 0 0 .175-11.955L90.321 8.555a9.21 9.21 0 0 0-.986-1.156z" fill="#BFBFBF"/><path fill-rule="evenodd" clip-rule="evenodd" d="M95.311 14.142l.514 13.538 31.253-1.185a3.92 3.92 0 0 0 1.756-7.346L106.958 6.99a7.842 7.842 0 0 0-11.647 7.153z" fill="#BFBFBF"/><path d="M75.25 15.365a4.779 4.779 0 0 1 8.258-3.032l9.21 9.82a4.779 4.779 0 1 1-6.97 6.539l-8.883-9.47a63.776 63.776 0 0 1 1.213-1.16c.517-.461-.257-1.936-.709-2.616l-2.12-.081z" fill="#D8D8D8"/><path fill-rule="evenodd" clip-rule="evenodd" d="M108.508 37.554l-11.579 3.139a3.428 3.428 0 1 0 1.793 6.616l11.579-3.138a3.427 3.427 0 1 0-1.793-6.616z" fill="#979797"/><path fill-rule="evenodd" clip-rule="evenodd" d="M106.424 23.154l-9.849 9.905 29.116 17.595a3.001 3.001 0 0 0 3.669-4.697l-22.936-22.803z" fill="#BFBFBF"/><path d="M72.728 6.867a7.055 7.055 0 0 1 6.341 7.702 1.857 1.857 0 0 1-2.027 1.67l-10.348-1.003a1.857 1.857 0 0 1-1.669-2.027 7.055 7.055 0 0 1 7.703-6.342z" fill="#979797"/><path d="M77.155 22.68a4.877 4.877 0 0 0 .861-6.844 1.283 1.283 0 0 0-1.8-.226l-5.678 4.407a1.283 1.283 0 0 0-.227 1.801 4.877 4.877 0 0 0 6.844.861z" fill="#BFBFBF"/><path fill-rule="evenodd" clip-rule="evenodd" d="M85.648 17.188a5.347 5.347 0 1 1-6.897-8.172 5.347 5.347 0 0 1 6.897 8.172z" fill="#fff"/><path d="M80.313 7.04a6.35 6.35 0 1 1 3.774 12.125A6.35 6.35 0 0 1 80.313 7.04zm.596 1.914a4.344 4.344 0 1 0 2.582 8.296 4.344 4.344 0 0 0-2.582-8.296z" fill="#D8D8D8"/><path fill-rule="evenodd" clip-rule="evenodd" d="M80.625 15.521a3.008 3.008 0 1 1 2.61-5.42 3.008 3.008 0 0 1-2.61 5.42z" fill="#979797"/><path fill-rule="evenodd" clip-rule="evenodd" d="M85.083 12.994a1.84 1.84 0 0 1-1.032.006c-.924-.26-1.48-1.158-1.242-2.006.108-.384.36-.691.69-.889.06-.037.217.066.397.232l.1.096.102.106c.069.074.137.152.2.231l.094.12c.104.138.192.275.244.39l.049.114.025.063.05.133.05.142.048.148.046.15.044.15.04.146.05.205.014.064.023.117.017.1.009.082c.004.059-.001.095-.018.1z" fill="#fff"/><path fill-rule="evenodd" clip-rule="evenodd" d="M90.015 19.753l-3.799 3.821c-4.01 4.034-3.992 10.556.042 14.567a10.3 10.3 0 0 0 6.166 2.937l16.489 1.766a1.714 1.714 0 0 0 1.391-2.919L90.015 19.753z" fill="#D8D8D8"/><path d="M91.191 21.408c3.847-3.737 9.995-3.648 13.732.2l14.727 15.161a1.143 1.143 0 0 1-.024 1.616l-1.639 1.592c-6.337 6.155-16.463 6.007-22.618-.33l-4.378-4.507c-3.737-3.847-3.647-9.996.2-13.732z" fill="#BFBFBF"/><path d="M95.816 28.474l2.853-2.77a.455.455 0 0 1 .642.027c.99 1.018 1.011 2.602.048 3.537-.963.935-2.545.868-3.534-.15a.455.455 0 0 1-.01-.644zM96.025 34.122l2.853-2.771a.455.455 0 0 1 .643.027c.989 1.019 1.01 2.602.047 3.538-.962.935-2.545.867-3.534-.151a.455.455 0 0 1-.009-.643zM101.615 34.488l2.853-2.77a.456.456 0 0 1 .643.026c.989 1.019 1.01 2.603.047 3.538-.963.935-2.545.868-3.534-.15a.455.455 0 0 1-.009-.644z" fill="#979797"/><path d="M76.454 13.332l10.93-2.818c-1.675-1.477-3.85-2.345-4.727-2.594l-3.61.684-2.281 2.426-.312 2.302z" fill="#D8D8D8"/><path d="M4.143 38.71C2.269 21.122 15.007 5.346 32.595 3.472l.74-.08C50.923 1.52 66.7 14.259 68.573 31.846l.449 4.207C70.895 53.64 58.157 69.417 40.569 71.29l-.74.08C22.241 73.242 6.465 60.504 4.591 42.916l-.448-4.207z" fill="#BFBFBF"/><path d="M41.055 62.778a45.3 45.3 0 0 1-3.112 1.293c-6.296 2.348-12.661 3.22-16.986 3.492a31.969 31.969 0 0 0 6.123 2.597c3.657-.557 7.832-1.497 11.996-3.05 8.053-3.005 16.25-8.375 20.412-17.877-3.597 6.937-10.28 12.118-18.433 13.545z" fill="#A9A8A8"/><path d="M62.225 34.648c1.51 14.162-8.748 26.866-22.91 28.375-14.162 1.508-26.865-8.749-28.374-22.91-1.509-14.162 8.748-26.866 22.91-28.375 14.162-1.508 26.866 8.749 28.374 22.91z" fill="#D8D8D8"/><path d="M28.842 51.287a2.142 2.142 0 0 1 1.903-2.358l13.776-1.467a2.142 2.142 0 1 1-.114 4.245l-.712-.115a21.541 21.541 0 0 0-11.272 1.2l-.672.263a2.142 2.142 0 0 1-2.91-1.768z" fill="#fff"/><path d="M36.922 39.15c.122-.012 1.39 1.593 2.685 3.28 1.29 1.68.231 4.108-1.874 4.332-2.106.225-3.653-1.926-2.746-3.84.911-1.922 1.812-3.758 1.934-3.771z" fill="#959595"/><path d="M35.977 30.019a1.415 1.415 0 0 1 1.258-1.557l14.402-1.535a1.415 1.415 0 0 1 1.557 1.258l.582 5.465a8.657 8.657 0 1 1-17.217 1.834l-.582-5.465z" fill="#A6A6A6"/><path d="M69.118 41.835a31.823 31.823 0 0 1-.478 3.631L8.019 19.712a32.17 32.17 0 0 1 1.916-3.02l59.183 25.143z" fill="#A6A6A6"/><path d="M15.246 33.649c18.973-1.37 28.273-12.6 33.405-19.088a25.668 25.668 0 0 0-14.757-2.827 25.683 25.683 0 0 0-15.807 7.717c-.08.06-.157.127-.232.203-.283.286-.564.586-.85.89-2.021 2.158-4.26 4.547-9.157 3.901a14.586 14.586 0 0 0-.267-.033l-2.451-.36c-.863-.137-1.423.46-1.284 1.323.666 4.149 3.966 7.463 8.219 8.136a9.984 9.984 0 0 0 1.803.12c.477.04.946.049 1.378.018z" fill="#979797"/><path d="M63.24 106.103c1.261 1.539.384 3.865-1.579 4.188l-19.213 3.159c-1.963.323-3.539-1.6-2.837-3.461l6.87-18.22c.703-1.86 3.156-2.264 4.417-.725l12.342 15.059z" fill="#fff"/><path fill-rule="evenodd" clip-rule="evenodd" d="M51.897 90.225c-1.891-2.307-5.571-1.703-6.623 1.089l-3.8 10.074c-.464 1.232-.51 2.665-.045 3.856.49 1.254 1.596 2.29 3.267 2.29.38 0 .754-.033 1.118-.096v3.142a1.372 1.372 0 1 0 2.745 0v-4.306l.184-.139c.143-.113.42-.221.757-.228.093-.002.177.003.251.015v8.451a1.373 1.373 0 1 0 2.746 0v-6.899a8.454 8.454 0 0 0 3.113.591c1.098 0 2.15-.21 3.117-.593 1.642-.65 2.412-2.071 2.498-3.531.082-1.406-.45-2.883-1.38-4.019l-7.948-9.697z" fill="#BFBFBF"/><path d="M47.028 79.352a3.882 3.882 0 1 1-7.764 0 3.882 3.882 0 0 1 7.764 0zM32.497 108.878a3.882 3.882 0 1 1-7.764 0 3.882 3.882 0 0 1 7.764 0zM51.676 82.574a1.847 1.847 0 1 1-3.694 0 1.847 1.847 0 0 1 3.694 0z" fill="#BFBFBF"/><path d="M37.927 98.179c.206 1.978-1.807 3.438-3.623 2.627l-17.781-7.934c-1.817-.81-2.075-3.283-.465-4.45L31.82 76.988c1.61-1.168 3.88-.155 4.087 1.824l2.02 19.366z" fill="#fff"/><path fill-rule="evenodd" clip-rule="evenodd" d="M37.192 78.679l1.113 10.678c.117 1.116-.655 2.455-2.124 2.455-1.06 0-2.06-.271-2.931-.748a1.066 1.066 0 0 0-.276-.099v4.036a1.373 1.373 0 0 1-2.745 0v-2.609a7.765 7.765 0 0 1-11.075-3.614c-1.012-2.345.49-4.549 2.033-5.668l9.874-7.166c2.415-1.752 5.821-.233 6.13 2.735z" fill="#BFBFBF"/><path fill-rule="evenodd" clip-rule="evenodd" d="M48.603 91.613a1 1 0 0 1 1.41.115l7.374 8.687a1 1 0 0 1-1.524 1.295l-7.375-8.688a1 1 0 0 1 .115-1.41zM34.467 77.522a1 1 0 0 1 1.091.9l.938 9.795a1 1 0 0 1-1.991.19l-.938-9.794a1 1 0 0 1 .9-1.091z" fill="#D8D8D8"/><path d="M20.635 39.29a5.803 5.803 0 0 1-1.782-3.3c3.565-.984 8.628-2.73 12.083-5.568 2.79 1.444 4.21 3.191 4.761 4.936a5.823 5.823 0 0 1-1.918 6.357 1.842 1.842 0 0 0-.067-.03c-2.312-.986-4.97-1.72-7.828-2.107a32.318 32.318 0 0 0-5.25-.288z" fill="#fff"/><path d="M30.265 33.127a2.599 2.599 0 0 1-4.142 2.355c-.014.218-.01.44.014.664l.19 1.787a3.86 3.86 0 0 0 .682 1.817 31.13 31.13 0 0 1 4.902 1.243 3.878 3.878 0 0 0 2.126-3.881l-.19-1.787a3.877 3.877 0 0 0-4.07-3.46c.263.358.437.788.488 1.262z" fill="#979797"/></g><defs><clipPath id="clip0"><path fill="#fff" d="M0 0h135v124H0z"/></clipPath></defs></svg>