<svg viewBox="0 0 135 124" fill="none" xmlns="http://www.w3.org/2000/svg"><g clip-path="url(#clip0)"><path d="M11 28c0-9.389 7.611-17 17-17h79c9.389 0 17 7.611 17 17v79c0 9.389-7.611 17-17 17H28c-9.389 0-17-7.611-17-17V28z" fill="#9069CD"/><path d="M21.322 7.126c8.056-3.03 16.81-.73 22.385 5.144l.001-.02c4.551 5.204 8.436 6.337 14.495 4.058l.001.005c8.476-2.96 17.81 1.375 20.987 9.824 3.226 8.574-1.111 18.14-9.686 21.366-8.575 3.225-18.14-1.111-21.366-9.686-.3-.8-.536-1.608-.708-2.42a20.7 20.7 0 0 1-11.901 10.76c.916 7.26-3.214 14.47-10.364 17.16-8.366 3.146-17.699-1.085-20.845-9.45-2.593-6.893-.178-14.442 5.432-18.647a21.04 21.04 0 0 1-.559-1.343c-4.038-10.736 1.392-22.713 12.128-26.75z" fill="#3D3D3D"/><path d="M16.052 72.795c-6.87-18.265 2.367-38.641 20.632-45.511 18.265-6.87 38.642 2.367 45.512 20.632l5.805 15.432a9 9 0 0 1-5.256 11.592L33.448 93.482a9 9 0 0 1-11.592-5.255l-5.804-15.432z" fill="#DA8E74"/><path d="M84.774 37.149a5.664 5.664 0 1 1-10.604 3.988 5.664 5.664 0 0 1 10.604-3.988zM17.368 62.503a5.664 5.664 0 1 1-10.603 3.988 5.664 5.664 0 0 1 10.603-3.988z" fill="#DA8E74"/><path d="M27.866 48.393a7.283 7.283 0 0 1 13.386-5.74l1.489 3.47a7.283 7.283 0 1 1-13.387 5.74l-1.488-3.47zm16.114-6.91a7.283 7.283 0 0 1 13.386-5.74l1.488 3.47a7.283 7.283 0 1 1-13.386 5.74l-1.489-3.47z" fill="#fff"/><path d="M36.394 47.426a2.806 2.806 0 1 1 4.989-2.573l.321.624a2.806 2.806 0 0 1-4.989 2.572l-.321-.623zm15.501-7.993a2.806 2.806 0 0 1 4.99-2.572l.32.624a2.806 2.806 0 0 1-4.988 2.572l-.322-.624zM24.866 62.152a9.212 9.212 0 0 1 8.703-9.693l16.21-.872a9.212 9.212 0 1 1 .99 18.397l-16.21.871a9.212 9.212 0 0 1-9.693-8.703z" fill="#3D3D3D"/><path d="M43.552 66.962a9.212 9.212 0 0 0 13.011.645l12.011-10.875A9.212 9.212 0 1 0 56.21 43.075L44.198 53.95a9.212 9.212 0 0 0-.646 13.011z" fill="#3D3D3D"/><path d="M51.115 49.91a4.585 4.585 0 1 1-8.428 3.614 4.585 4.585 0 0 1 8.428-3.615zM19.6 44.85l28.426-14.657c5.309-2.737 11.831-.652 14.568 4.657L24.555 54.462l-4.956-9.612z" fill="#DA8E74"/><path fill-rule="evenodd" clip-rule="evenodd" d="M35.583 41.322c-1.887.93-2.797 1.842-3.912 3.881a3.455 3.455 0 1 1-6.063-3.316c1.71-3.126 3.602-5.127 6.919-6.762a3.455 3.455 0 0 1 3.056 6.197zm7.239-10.93c2.007-.737 3.318-.768 5.597-.162a3.455 3.455 0 0 0 1.777-6.677c-3.476-.925-6.254-.933-9.756.353a3.455 3.455 0 0 0 2.382 6.486z" fill="#3D3D3D"/><path d="M13.015 57.6c.206.4.54 1.04.787 1.507-.06 1.685 0 3.385.188 5.088a7.957 7.957 0 0 0 7.172-10.756l-2.837-7.543v-.008l-1.018-2.706-1.594 1.885-5.213 5.4 2.515 7.134zm61.859-21.453a35.057 35.057 0 0 1 3.204 3.941 7.957 7.957 0 0 1-12.483-3.363l-3.418-9.088a7.985 7.985 0 0 1-.05-.137l.002.001-.388-1.032 2.44.367 7.48.625 2.81 7.023c.108.44.281 1.148.403 1.663z" fill="#3D3D3D"/><path d="M63.454 90.611C61.526 77.27 71.874 65.32 85.355 65.32h8.872c13.481 0 23.829 11.95 21.902 25.293l-.972 6.725c-1.821 12.609-12.626 21.966-25.366 21.966s-23.545-9.357-25.366-21.966l-.971-6.726z" fill="#DFD7D7"/><path fill-rule="evenodd" clip-rule="evenodd" d="M67.332 104.861a6.448 6.448 0 1 0 0-12.896 6.448 6.448 0 0 0 0 12.896zm0 6.598c7.206 0 13.046-5.841 13.046-13.046 0-7.205-5.84-13.046-13.046-13.046-7.205 0-13.046 5.841-13.046 13.046 0 7.205 5.841 13.046 13.046 13.046z" fill="#DFD7D7"/><path d="M118.403 84.963c0 11.263-12.81 20.394-28.612 20.394-15.801 0-28.611-9.13-28.611-20.394 0-11.263 12.81-20.394 28.611-20.394 15.802 0 28.612 9.13 28.612 20.394z" fill="#CD7900"/><path fill-rule="evenodd" clip-rule="evenodd" d="M107.238 95.476c4.285-3.054 6.366-6.838 6.366-10.513s-2.081-7.459-6.366-10.513c-4.275-3.047-10.428-5.082-17.447-5.082-7.018 0-13.17 2.035-17.446 5.082-4.285 3.054-6.367 6.838-6.367 10.513s2.082 7.459 6.367 10.513c4.275 3.047 10.428 5.082 17.446 5.082 7.019 0 13.172-2.035 17.447-5.082zm-17.447 9.881c15.802 0 28.612-9.13 28.612-20.394 0-11.263-12.81-20.394-28.612-20.394-15.801 0-28.611 9.13-28.611 20.394 0 11.263 12.81 20.394 28.611 20.394z" fill="#EBE3E3"/><path d="M88.366 73.275c-2.516-2.01-6.596-2.01-9.112 0s-2.516 5.271 0 7.282l9.024 7.331a2.4 2.4 0 0 0 3.026 0l9.024-7.331c2.516-2.01 2.516-5.271 0-7.282-2.516-2.01-6.595-2.01-9.112 0l-1.425 1.139-1.425-1.139zM67.511 85.614c4.285-3.424 11.233-3.424 15.517 0l6.763 5.405c-4.284 3.424-11.232 3.424-15.517 0l-6.763-5.405zm44.561 0c-4.285-3.424-11.233-3.424-15.518 0l-6.763 5.405c4.285 3.424 11.233 3.424 15.518 0l6.763-5.405z" fill="#E5A259"/><path d="M88.014 82.26a1.777 1.777 0 1 1 3.555 0v12.75a1.777 1.777 0 1 1-3.555 0V82.26z" fill="#E5A259"/><path d="M115.062 44.82c.059-6.742-5.873-11.97-12.554-11.065l-4.397.595c-6.681.906-11.008 7.524-9.156 14.007l.933 3.268a12.819 12.819 0 0 0 25.144-3.407l.03-3.399z" fill="#DFD7D7"/><path fill-rule="evenodd" clip-rule="evenodd" d="M114.25 51.342a3.224 3.224 0 1 1-.866-6.392 3.225 3.225 0 1 1 .866 6.392zm.443 3.27a6.525 6.525 0 1 1-1.752-12.932 6.525 6.525 0 0 1 1.752 12.932z" fill="#DFD7D7"/><path d="M87.448 45.71c.757 5.582 7.719 9.247 15.55 8.186 7.832-1.06 13.568-6.447 12.811-12.029-.756-5.582-7.718-9.247-15.55-8.186-7.831 1.061-13.567 6.447-12.81 12.029z" fill="#CD7900"/><path fill-rule="evenodd" clip-rule="evenodd" d="M93.688 50.17c-2.329-1.225-3.615-2.96-3.862-4.782-.246-1.822.532-3.837 2.45-5.638 1.914-1.798 4.827-3.22 8.306-3.69 3.478-.472 6.664.123 8.988 1.346 2.328 1.227 3.614 2.962 3.861 4.784.247 1.821-.531 3.836-2.449 5.638-1.915 1.797-4.828 3.219-8.306 3.69-3.478.471-6.665-.124-8.988-1.347zm9.31 3.726c-7.831 1.061-14.793-2.604-15.55-8.186-.756-5.582 4.98-10.968 12.811-12.029 7.832-1.061 14.794 2.604 15.55 8.186.757 5.583-4.979 10.968-12.811 12.03z" fill="#EBE3E3"/><path d="M101.629 43.789l-.511-3.773a2.929 2.929 0 0 1 2.509-3.296l.511 3.772a2.929 2.929 0 0 1-2.509 3.297zm0 0l.511 3.772a2.93 2.93 0 0 1-2.51 3.296l-.511-3.772a2.93 2.93 0 0 1 2.51-3.296zm0 0l-6.586.892a2.225 2.225 0 0 1-2.504-1.906l6.587-.892a2.225 2.225 0 0 1 2.503 1.906z" fill="#E5A259"/><path d="M101.629 43.789l6.586-.893a2.225 2.225 0 0 1 2.503 1.906l-6.586.892a2.224 2.224 0 0 1-2.503-1.905z" fill="#E5A259"/><path d="M101.629 43.789l-4.592-2.598c-1.25-.707-1.44-2.103-.422-3.117l4.591 2.597c1.251.707 1.44 2.103.423 3.118z" fill="#E5A259"/><path d="M101.629 43.789l4.591 2.597c1.25.707 1.44 2.103.423 3.117l-4.592-2.597c-1.25-.707-1.439-2.103-.422-3.117z" fill="#E5A259"/><path d="M101.629 43.789l-3.735 3.725c-1.017 1.014-2.855 1.264-4.106.556l3.735-3.725c1.017-1.015 2.855-1.264 4.106-.556z" fill="#E5A259"/><path d="M101.629 43.789l3.734-3.726c1.017-1.014 2.856-1.263 4.106-.556l-3.735 3.725c-1.017 1.015-2.855 1.264-4.105.557z" fill="#E5A259"/><path d="M21.033 101.033c.206-6.982 6.553-12.16 13.433-10.959l4.529.791c6.88 1.201 11.098 8.223 8.925 14.861l-1.095 3.347a13.28 13.28 0 0 1-25.895-4.521l.103-3.519z" fill="#DFD7D7"/><path fill-rule="evenodd" clip-rule="evenodd" d="M21.539 107.981a3.341 3.341 0 1 0 1.148-6.583 3.341 3.341 0 0 0-1.148 6.583zm-.588 3.368a6.76 6.76 0 1 0 2.324-13.318 6.76 6.76 0 0 0-2.324 13.318z" fill="#DFD7D7"/><path d="M49.584 103.046c-1.003 5.749-8.355 9.268-16.42 7.86-8.066-1.408-13.791-7.21-12.788-12.959 1.004-5.749 8.356-9.268 16.422-7.86 8.065 1.408 13.79 7.21 12.786 12.959z" fill="#CD7900"/><path fill-rule="evenodd" clip-rule="evenodd" d="M42.949 107.417c2.459-1.177 3.859-2.923 4.186-4.799.328-1.875-.398-3.992-2.313-5.933-1.91-1.936-4.87-3.523-8.452-4.149-3.582-.625-6.904-.135-9.358 1.04-2.459 1.177-3.859 2.923-4.186 4.799-.328 1.875.398 3.992 2.313 5.933 1.91 1.936 4.87 3.523 8.452 4.149 3.582.625 6.904.135 9.358-1.04zm-9.786 3.489c8.066 1.408 15.418-2.111 16.422-7.86 1.003-5.749-4.722-11.55-12.787-12.959-8.066-1.408-15.418 2.111-16.422 7.86-1.003 5.749 4.722 11.551 12.787 12.959z" fill="#EBE3E3"/><path d="M34.867 101.15L30 100.3a3.761 3.761 0 0 1-3.058-4.352l4.866.85a3.762 3.762 0 0 1 3.059 4.352z" fill="#E5A259"/><path d="M34.114 105.461l-6.052-1.057a4.677 4.677 0 0 1-3.805-5.413l6.053 1.057a4.678 4.678 0 0 1 3.804 5.413zm1.399-8.017l-3.612-.63a2.792 2.792 0 0 1-2.271-3.232l3.613.631a2.792 2.792 0 0 1 2.27 3.231zm-.646 3.706l4.866.849a3.761 3.761 0 0 0 4.352-3.058l-4.866-.85a3.761 3.761 0 0 0-4.352 3.059z" fill="#E5A259"/><path d="M34.114 105.461l6.052 1.056a4.677 4.677 0 0 0 5.413-3.803l-6.052-1.057a4.679 4.679 0 0 0-5.413 3.804zm1.399-8.017l3.613.63a2.792 2.792 0 0 0 3.23-2.27l-3.612-.63a2.792 2.792 0 0 0-3.23 2.27z" fill="#E5A259"/><path d="M92.24 24.402a11.2 11.2 0 0 1 1.655 3.238.68.68 0 0 1-.865.865 11.205 11.205 0 0 1-3.237-1.656 11.194 11.194 0 0 1-3.238 1.656.68.68 0 0 1-.865-.865 11.193 11.193 0 0 1 1.656-3.238 11.203 11.203 0 0 1-1.656-3.237.68.68 0 0 1 .865-.865 11.2 11.2 0 0 1 3.237 1.656A11.192 11.192 0 0 1 93.03 20.3a.68.68 0 0 1 .865.865 11.193 11.193 0 0 1-1.656 3.237z" fill="#AE8BE5"/><path d="M110.575 20.521a14.855 14.855 0 0 1 2.191 4.284.901.901 0 0 1-1.145 1.145 14.832 14.832 0 0 1-4.284-2.191 14.806 14.806 0 0 1-4.283 2.19.9.9 0 0 1-1.145-1.144 14.8 14.8 0 0 1 2.191-4.284 14.804 14.804 0 0 1-2.191-4.283.9.9 0 0 1 1.145-1.145c1.502.48 2.952 1.21 4.283 2.19a14.812 14.812 0 0 1 4.284-2.19.901.901 0 0 1 1.145 1.145 14.826 14.826 0 0 1-2.191 4.283z" fill="#D5BBFF"/><path d="M56.477 114.399a10.032 10.032 0 0 1 1.483 2.9.61.61 0 0 1-.775.775 10.04 10.04 0 0 1-2.9-1.483 10.04 10.04 0 0 1-2.899 1.483.61.61 0 0 1-.774-.775 10.022 10.022 0 0 1 1.482-2.9 10.026 10.026 0 0 1-1.482-2.899.61.61 0 0 1 .775-.775 10.04 10.04 0 0 1 2.899 1.483 10.014 10.014 0 0 1 2.9-1.483.61.61 0 0 1 .774.775 10.019 10.019 0 0 1-1.483 2.899z" fill="#AE8BE5"/><path d="M118.739 67.029a8.16 8.16 0 0 1 1.204 2.354.495.495 0 0 1-.63.63 8.153 8.153 0 0 1-2.354-1.205 8.11 8.11 0 0 1-2.355 1.204.495.495 0 0 1-.629-.629 8.134 8.134 0 0 1 1.204-2.354 8.136 8.136 0 0 1-1.204-2.355.495.495 0 0 1 .629-.63 8.145 8.145 0 0 1 2.355 1.205 8.15 8.15 0 0 1 2.354-1.204.496.496 0 0 1 .63.629 8.16 8.16 0 0 1-1.204 2.355z" fill="#D5BBFF"/></g><defs><clipPath id="clip0"><path fill="#fff" d="M0 0h135v124H0z"/></clipPath></defs></svg>