<svg viewBox="0 0 135 124" fill="none" xmlns="http://www.w3.org/2000/svg"><path d="M124 28v79a17 17 0 0 1-17 17H28a17 17 0 0 1-17-17V28a17 17 0 0 1 17-17h79a17 17 0 0 1 17 17z" fill="#47D6FF"/><path d="M11 85.54V107a17 17 0 0 0 17 17h79a17 17 0 0 0 17-17V85.54H11z" fill="#A2E342"/><path d="M55.78 29.47h-4.19a9.83 9.83 0 0 0 .29-2.32 9.54 9.54 0 0 0-9.54-9.54h-6v-6.78h-8.52A17 17 0 0 0 11 25.74v.42c-.05.55-.09 1.1-.09 1.67v20.7h44.87A9.54 9.54 0 0 0 65.32 39a9.55 9.55 0 0 0-9.54-9.53z" fill="#fff"/><path d="M89.8 98.38V124h9.3V99c-3.1-.17-6.2-.43-9.3-.62z" fill="#2D2D2D"/><path d="M83.06 40.67a4.65 4.65 0 0 1 4.65 4.65v50.45h-9.3V45.32a4.65 4.65 0 0 1 4.65-4.65z" fill="#4B4B4B"/><path d="M87.71 75.19h-9.3v3.14h9.3v-3.14z" fill="#2D2D2D"/><path d="M101.46 39.48H11v35.91h90.46a5.866 5.866 0 0 0 5.432-3.62 5.863 5.863 0 0 0 .448-2.25V45.36a5.879 5.879 0 0 0-5.88-5.88zm8.44 55.85v6.61a2.064 2.064 0 0 1-.606 1.477 2.08 2.08 0 0 1-1.474.613H11V93.25h96.82a2.08 2.08 0 0 1 2.08 2.08z" fill="#A56640"/><path d="M83.26 54.05a3.8 3.8 0 1 0 0-7.6 3.8 3.8 0 0 0 0 7.6z" fill="#B37E5E"/><path d="M39.56 21l-12.62-4.37V6.37A6.301 6.301 0 0 1 33.25.06a6.3 6.3 0 0 1 6.31 6.31V21z" fill="#FFC600"/><path d="M32.23 7.76L7.93 26.85a16.291 16.291 0 0 0 30.134 1.328A16.29 16.29 0 0 0 32.23 7.76z" fill="#FFC600"/><path d="M19.648 20.574l-.13-.165a2.08 2.08 0 0 0-2.92-.348L2.21 31.387a2.08 2.08 0 0 0-.347 2.92l.13.165a2.08 2.08 0 0 0 2.92.348L19.3 23.495a2.08 2.08 0 0 0 .348-2.921z" fill="#FFC600"/><path d="M25.923 21.175l-.13-.165a2.08 2.08 0 0 0-2.92-.347L8.486 31.988a2.08 2.08 0 0 0-.348 2.921l.13.165a2.08 2.08 0 0 0 2.92.348l14.388-11.326a2.08 2.08 0 0 0 .347-2.92z" fill="#FFC600"/><path d="M41.06 4.94h-3.6a1.47 1.47 0 0 0-1.47 1.47v.01c0 .812.658 1.47 1.47 1.47h3.6a1.47 1.47 0 0 0 1.47-1.47v-.01a1.47 1.47 0 0 0-1.47-1.47zM27.13 37.39h-5.91a1.04 1.04 0 0 0 0 2.08h5.91a1.04 1.04 0 0 0 0-2.08z" fill="#FF7D00"/></svg>