<svg id="Cover" xmlns="http://www.w3.org/2000/svg" viewBox="0 0 135 124"><defs><style>.cls-1{fill:#d0d0d0}.cls-2{fill:#4b4b4b}.cls-6{fill:#fff}</style></defs><path class="cls-1" d="M124 27.79v79.3a15.23 15.23 0 0 1-.12 1.92A17 17 0 0 1 107 124H28a17 17 0 0 1-16.88-15 16.69 16.69 0 0 1-.12-2V28a17 17 0 0 1 17-17h79a17 17 0 0 1 17 16.79z"/><path class="cls-2" d="M59.39 56.35V36.52a8.83 8.83 0 0 0-8.83-8.83h-1.42V26.5h27.19a9.24 9.24 0 0 0 9.23-9.24A9.23 9.23 0 0 0 76.33 8H57a6.46 6.46 0 0 0-6.46-6.46H23.89A9.91 9.91 0 0 0 14 11.48h-3.81A10.35 10.35 0 0 0-.15 21.83a10.34 10.34 0 0 0 10.34 10.34h9.88a6.76 6.76 0 0 0 6.76 6.76h22.68a4.31 4.31 0 0 1 4.31 4.31v13.11z"/><path fill="#2d2d2d" d="M39.52 63.8h82.5v37.75h-82.5z"/><circle class="cls-2" cx="83.15" cy="96.3" r="23.46"/><circle cx="83.15" cy="96.3" r="14.9" fill="#bebebe"/><circle class="cls-1" cx="83.15" cy="96.3" r="8.66"/><path d="M124 30.29V105h-3.4a8.43 8.43 0 0 1-6.78-3.41 8.1 8.1 0 0 1-1.6-4.92c0-.79 0-1.58-.07-2.38a28.72 28.72 0 0 0-57.37 2v.09a8.68 8.68 0 0 1-1.68 5.16 8.25 8.25 0 0 1-6.7 3.46H24.85a7 7 0 0 1-7-7V64.2a10.9 10.9 0 0 1 8.45-10.61z" fill="#ff6360"/><path class="cls-6" d="M26 55.09a1.5 1.5 0 0 1-.35-3l97.7-23.3a1.5 1.5 0 0 1 .7 2.92L26.3 55.05a1.39 1.39 0 0 1-.3.04z"/><rect class="cls-6" x="15.58" y="65.65" width="20.44" height="19.19" rx="3.83" ry="3.83"/><rect class="cls-2" x="2.74" y="36.08" width="12.64" height="5.38" rx="2.69" ry="2.69"/><rect class="cls-2" x="60.43" width="12.64" height="5.38" rx="2.69" ry="2.69"/><path d="M123.65 97.8h-1.78a4.62 4.62 0 0 1-4.61-4.31 34.22 34.22 0 0 0-68.33 2.81h-3a37.22 37.22 0 0 1 74.32-3 1.65 1.65 0 0 0 1.62 1.55h1.78z" fill="#ff4a46"/><path d="M32.19 65.65A3.83 3.83 0 0 1 36 69.48V81a3.82 3.82 0 0 1-3.83 3.83z" fill="#ffc700"/><path class="cls-2" d="M19.1 95.64h26.27a4.15 4.15 0 0 1 4.15 4.15v3.61a4.15 4.15 0 0 1-4.15 4.15H19.1a4.83 4.83 0 0 1-4.83-4.83v-2.25a4.83 4.83 0 0 1 4.83-4.83z"/></svg>