<svg viewBox="0 0 135 124" fill="none" xmlns="http://www.w3.org/2000/svg"><g clip-path="url(#clip0)"><path d="M123.92 28v79c0 9.389-7.611 17-17 17h-79c-9.389 0-17-7.611-17-17V28c0-9.389 7.611-17 17-17h79a17 17 0 0 1 17 17z" fill="#D1D1D1"/><path d="M124 28v79c0 9.389-7.611 17-17 17H28c-9.389 0-17-7.611-17-17V28c0-9.389 7.611-17 17-17h79c9.389 0 17 7.611 17 17z" fill="#E5E5E5"/><path d="M11 85.54V107c0 9.389 7.611 17 17 17h79c9.389 0 17-7.611 17-17V85.54H11z" fill="#BFBFBF"/><path d="M55.78 29.47h-4.19a9.81 9.81 0 0 0 .29-2.32 9.54 9.54 0 0 0-9.54-9.54h-6v-6.78h-8.52c-8.561.026-15.768 6.414-16.82 14.91v.42c-.05.55-.09 1.1-.09 1.67v20.7h44.87A9.54 9.54 0 0 0 65.32 39a9.55 9.55 0 0 0-9.54-9.53z" fill="#EFEFEF"/><path d="M89.8 98.38V124h9.3V99c-3.1-.17-6.2-.43-9.3-.62z" fill="#A6A6A6"/><path d="M83.06 40.67a4.65 4.65 0 0 1 4.65 4.65v50.45h-9.3V45.32a4.65 4.65 0 0 1 4.65-4.65z" fill="#B2B2B2"/><path d="M87.71 75.19h-9.3v3.14h9.3v-3.14z" fill="#A6A6A6"/><path d="M101.46 39.48H11v35.91h90.46a5.869 5.869 0 0 0 5.88-5.87V45.36a5.879 5.879 0 0 0-5.88-5.88zm8.44 55.85v6.61a2.08 2.08 0 0 1-2.08 2.09H11V93.25h96.82a2.08 2.08 0 0 1 2.08 2.08z" fill="#A6A6A6"/><path d="M83.26 54.05a3.8 3.8 0 1 0 0-7.6 3.8 3.8 0 0 0 0 7.6z" fill="#B2B2B2"/><path d="M39.56 21l-12.62-4.37V6.37A6.3 6.3 0 0 1 33.25.06a6.3 6.3 0 0 1 6.31 6.31V21z" fill="#BFBFBF"/><path d="M32.23 7.76L7.93 26.85a16.29 16.29 0 1 0 24.3-19.09z" fill="#BFBFBF"/><path d="M19.648 20.574l-.13-.165a2.08 2.08 0 0 0-2.92-.348L2.21 31.387a2.08 2.08 0 0 0-.347 2.92l.13.165a2.08 2.08 0 0 0 2.92.348L19.3 23.495a2.08 2.08 0 0 0 .348-2.921z" fill="#BFBFBF"/><path d="M25.923 21.175l-.13-.165a2.08 2.08 0 0 0-2.92-.347L8.486 31.988a2.08 2.08 0 0 0-.348 2.921l.13.165a2.08 2.08 0 0 0 2.92.348l14.388-11.326a2.08 2.08 0 0 0 .347-2.92z" fill="#BFBFBF"/><path d="M41.06 4.94h-3.6a1.47 1.47 0 0 0-1.47 1.47v.01c0 .812.658 1.47 1.47 1.47h3.6a1.47 1.47 0 0 0 1.47-1.47v-.01a1.47 1.47 0 0 0-1.47-1.47zM27.13 37.39h-5.91a1.04 1.04 0 0 0 0 2.08h5.91a1.04 1.04 0 0 0 0-2.08z" fill="#B2B2B2"/></g><defs><clipPath id="clip0"><path fill="#fff" d="M0 0h135v124H0z"/></clipPath></defs></svg>