<svg viewBox="0 0 135 124" fill="none" xmlns="http://www.w3.org/2000/svg"><path d="M107 11.097H28c-9.389 0-17 7.611-17 17V107c0 9.389 7.611 17 17 17h79c9.389 0 17-7.611 17-17V28.097c0-9.389-7.611-17-17-17z" fill="#2BE69C"/><path fill-rule="evenodd" clip-rule="evenodd" d="M103.964 62.747L91.158 80.27a3 3 0 0 0 2.422 4.77h12.806a3 3 0 0 0 3-3V64.517a3 3 0 0 0-5.422-1.77z" fill="#EA2B2B"/><path fill-rule="evenodd" clip-rule="evenodd" d="M88.36 63.314l12.732 17.535a3 3 0 0 1-2.427 4.763H85.85a3 3 0 0 1-2.997-2.885l-.002-.13.081-17.534a3 3 0 0 1 5.427-1.749z" fill="#FF4B4B"/><path fill-rule="evenodd" clip-rule="evenodd" d="M88.808 81.853h14.478a11.43 11.43 0 0 1 10.335 6.55l10.924 23.141a2.4 2.4 0 0 1-2.403 3.414l-26.362-2.57-26.283 2.562a2.4 2.4 0 0 1-2.386-3.448l11.442-23.264a11.428 11.428 0 0 1 10.255-6.385z" fill="#FF4B4B"/><path d="M89.105 92.252a2 2 0 0 0-2.45 1.414l-4.524 16.887a19.931 19.931 0 0 0-11.285-.325l-3.58.945-.113.033a2.7 2.7 0 0 0 1.49 5.188l3.582-.946.28-.07a14.54 14.54 0 0 1 8.183.386l.374.127a17.439 17.439 0 0 0 11.221-.133l.114-.04.24-.082a11.354 11.354 0 0 1 7.409.114l.273.097a16.838 16.838 0 0 0 11.011-.028l.164-.058.271-.091a14.593 14.593 0 0 1 8.13-.275l3.965 1.006.114.026a2.7 2.7 0 0 0 1.214-5.26l-3.965-1.006-.317-.078a19.991 19.991 0 0 0-11.191.58l-.165.058-.241.081c-.083.027-.166.053-.25.078l-4.612-17.214a2 2 0 0 0-3.864 1.035l4.457 16.634a11.42 11.42 0 0 1-3.153-.661l-.274-.097a16.757 16.757 0 0 0-11.014.049l-.113.04-.25.085c-1.354.446-2.769.644-4.177.595l4.46-16.645a2 2 0 0 0-1.414-2.449z" fill="#D72828"/><path d="M109.652 80.35H82.736a1.2 1.2 0 0 0-1.2 1.2v1.6a1.2 1.2 0 0 0 1.2 1.2h17.774l-3.45 22.348a.57.57 0 0 0 .958.501l3.832-3.638a.572.572 0 0 1 .788 0l3.896 3.704a.571.571 0 0 0 .956-.512l-3.058-17.62 7.532 15.854a.572.572 0 0 0 1.076-.129l1.042-5.027a.571.571 0 0 1 .662-.446l5.131.934a.57.57 0 0 0 .516-.956L106.12 84.35h3.532a1.2 1.2 0 0 0 1.2-1.2v-1.6a1.2 1.2 0 0 0-1.2-1.2z" fill="#BF0000"/><path d="M91.843 23.288c4.205-7.283 13.516-9.778 20.799-5.573 7.282 4.204 9.777 13.516 5.572 20.798l-5.224 9.05-26.371-15.226 5.224-9.05z" fill="#FFB100"/><path d="M91.892 20.247a.983.983 0 0 1 1.342-.36l27.23 15.721c.47.272.631.873.359 1.343l-6.273 10.865a.982.982 0 0 1-1.342.36l-27.23-15.721a.983.983 0 0 1-.36-1.342l6.274-10.866z" fill="#FF9600"/><path d="M97.416 44.086c14.983 8.65 29.167 12.54 33.029 9.263.414-.351.25-.97-.22-1.24L74.064 19.683c-.47-.271-1.087-.105-1.184.43-.908 4.983 9.553 15.321 24.536 23.972z" fill="#FFB100"/><path d="M8.717 57.834C6.51 45.087 15.052 32.963 27.8 30.754L54.43 26.14c12.747-2.209 24.871 6.334 27.08 19.081 2.208 12.747-6.335 24.871-19.082 27.08l-26.631 4.614c-12.747 2.209-24.871-6.334-27.08-19.081z" fill="#3D3D3D"/><path d="M81.841 48.37C82.275 59.91 74.12 70.276 62.43 72.3l-26.632 4.615c-11.69 2.026-22.858-4.993-26.332-16.004l72.376-12.54z" fill="#D8D8D8"/><path d="M19.564 59.162l4.884-.847a6.085 6.085 0 0 0 4.957-7.035l-1.14-6.581 30.417-5.27 1.14 6.58a6.085 6.085 0 0 0 7.036 4.958l5.44-.942a22.517 22.517 0 0 1 3.894 9.31l2.61 15.061a8 8 0 0 1-6.517 9.249l-41.397 7.173a8 8 0 0 1-9.249-6.517l-2.61-15.062a22.515 22.515 0 0 1 .535-10.077z" fill="#FFCBA3"/><path d="M49.833 12.713c1.063 6.137-3.05 11.973-9.186 13.037-6.137 1.063-11.973-3.05-13.037-9.186-1.063-6.137 3.05-11.974 9.186-13.037 6.137-1.063 11.974 3.05 13.037 9.186z" fill="#3D3D3D"/><path fill-rule="evenodd" clip-rule="evenodd" d="M26.569 61.35a.652.652 0 0 1 .784-.487l4.598 1.078a.652.652 0 0 1 .222 1.172l-3.94 2.723a.652.652 0 1 1-.741-1.073l2.73-1.887-3.167-.743a.652.652 0 0 1-.486-.784zM66.437 54.441a.652.652 0 0 0-.901-.194l-3.968 2.563a.652.652 0 0 0 .185 1.177l4.627 1.24a.652.652 0 0 0 .337-1.26l-3.207-.86 2.733-1.764a.652.652 0 0 0 .194-.902z" fill="#F7B286"/><path fill-rule="evenodd" clip-rule="evenodd" d="M44.572 57.7c.669.266.995 1.024.729 1.693-.905 2.274-4.41 5.388-9.555 4.649a1.304 1.304 0 1 1 .37-2.582c3.904.56 6.284-1.83 6.762-3.031a1.304 1.304 0 0 1 1.694-.73zM48.66 56.991c-.54.476-.593 1.3-.117 1.84 1.617 1.838 5.965 3.59 10.562 1.163a1.304 1.304 0 0 0-1.218-2.306c-3.487 1.841-6.532.39-7.387-.58a1.304 1.304 0 0 0-1.84-.117z" fill="#E89665"/><path d="M46.812 60.745c.13-.023 1.6 1.605 3.104 3.32 1.497 1.707.535 4.38-1.702 4.767-2.237.388-4.043-1.805-3.207-3.916.84-2.121 1.675-4.149 1.805-4.171z" fill="#E89665"/><path fill-rule="evenodd" clip-rule="evenodd" d="M30.119 56.218a1.956 1.956 0 0 1 1.593-2.261l11.436-1.982a1.956 1.956 0 1 1 .667 3.855L32.38 57.812a1.956 1.956 0 0 1-2.261-1.594zM50.183 47.48a5.615 5.615 0 0 0-2.444 2.237 1.956 1.956 0 1 1-3.408-1.92 9.521 9.521 0 0 1 4.212-3.869c2.166-1 4.921-1.225 8.105.101a1.956 1.956 0 0 1-1.504 3.611c-2.213-.922-3.826-.684-4.96-.16z" fill="#3D3D3D"/><path fill-rule="evenodd" clip-rule="evenodd" d="M53.43 79.791a12.422 12.422 0 0 0-6.441 1.117l-.82.383a4.628 4.628 0 0 1-3.924-8.384l.82-.383a21.68 21.68 0 0 1 11.24-1.948l.9.086a4.628 4.628 0 0 1-.874 9.215l-.9-.085z" fill="#B23131"/><path d="M46.989 80.907a12.424 12.424 0 0 1 6.441-1.116l.9.086a4.609 4.609 0 0 0 2.921-.702 7.776 7.776 0 0 0-14.068 2.438c.97.22 2.016.132 2.986-.322l.82-.383z" fill="#FF4B4B"/></svg>