<svg id="Layer_3" data-name="Layer 3" xmlns="http://www.w3.org/2000/svg" viewBox="0 0 135 124"><defs><style>.cls-3{fill:#d1d1d1}.cls-4{fill:#efefef}</style></defs><path d="M124 28v79a17 17 0 0 1-17 17H28a16.92 16.92 0 0 1-12.79-5.81c-.07-.07-.13-.15-.2-.23a17.29 17.29 0 0 1-2.07-3.08 16.35 16.35 0 0 1-1.16-2.8A16.71 16.71 0 0 1 11 107V28a17 17 0 0 1 17-17h79a17 17 0 0 1 16.93 15.43c.07.57.07 1.04.07 1.57z" fill="#e5e5e5"/><path d="M132 22l-18.46 24.77-13.23 17.79a115.43 115.43 0 0 1-23.74 23.75l-5.63 4.19-10.2 7.89A25.85 25.85 0 0 1 40 104.94a21.52 21.52 0 0 1-17-22.88 25.81 25.81 0 0 1 10.33-18.53L47.2 52.91l42.54-31.63 14-10.44 9.75-7.25A13.17 13.17 0 0 1 132 22z" fill="#bfbfbf"/><path class="cls-3" d="M128.59 3.15L104.74 30.5l-1-19.66 9.75-7.25a13.15 13.15 0 0 1 15.07-.44zM86 50.27l22.98 2.64-5.81 7.81-24.01-1.82L86 50.27zM76.1 89l-15.36 11.39a25.46 25.46 0 0 1-3.45 2.16A25.83 25.83 0 0 1 40 104.94a21.52 21.52 0 0 1-17-22.88 25.81 25.81 0 0 1 10.33-18.53L35 62.29l26.15-19.75-3.78 29.83-9 8.61z"/><path class="cls-4" d="M26.93 100.4a1.5 1.5 0 0 1-1.49-1.4 6.65 6.65 0 0 0-2.54-4.16c-.61-.54-1.27-1-2-1.57a29.5 29.5 0 0 1-2.83-2.38 14.8 14.8 0 0 1-3.85-6.82 8.93 8.93 0 0 1 .11-5.3 5.56 5.56 0 0 1 4.5-3.72 1.5 1.5 0 1 1 .3 3 2.65 2.65 0 0 0-2 1.78 6 6 0 0 0 0 3.53 11.6 11.6 0 0 0 3.06 5.43 24.58 24.58 0 0 0 2.53 2.11c.7.54 1.43 1.1 2.12 1.72a9.48 9.48 0 0 1 3.54 6.13 1.5 1.5 0 0 1-1.36 1.63z"/><path class="cls-4" d="M41.94 112.11h-.23a19.53 19.53 0 0 1-13.47-9l-.59-1a7.45 7.45 0 0 0-2.54-3.12 1.5 1.5 0 1 1 1.38-2.67 9.93 9.93 0 0 1 3.76 4.3c.19.32.37.64.56.94a16.43 16.43 0 0 0 11.37 7.61 1.51 1.51 0 0 1-.24 3z"/><path class="cls-4" d="M28.57 111.58a1.55 1.55 0 0 1-.95-.33 10.4 10.4 0 0 1-3.44-5.36 18.88 18.88 0 0 1-.32-5.63c0-1 .08-1.9 0-2.81a1.5 1.5 0 0 1 3-.15 29 29 0 0 1 0 3.1 16.3 16.3 0 0 0 .24 4.73 7.2 7.2 0 0 0 2.43 3.79 1.5 1.5 0 0 1 .21 2.11 1.47 1.47 0 0 1-1.17.55z"/><path class="cls-4" d="M57.29 102.55A25.83 25.83 0 0 1 40 104.94a21.52 21.52 0 0 1-17-22.88 25.81 25.81 0 0 1 10.33-18.53L35 62.29l-4.14 32.65z"/><path class="cls-3" d="M132 22.14l-18.46 24.75-22.43-2.15s36.25-42.6 38.64-40.62a13.16 13.16 0 0 1 2.2 18z"/><path class="cls-4" d="M2.35 116.88a2 2 0 0 1-1.2-3.6L68 63.55a128.47 128.47 0 0 0 16.55-14.66l43.81-46.22a2 2 0 1 1 2.9 2.75L87.45 51.64a131.5 131.5 0 0 1-17 15.12L3.54 116.49a2 2 0 0 1-1.19.39z"/></svg>