<svg viewBox="0 0 135 124" fill="none" xmlns="http://www.w3.org/2000/svg"><rect x="11" y="11" width="113" height="113" rx="17" fill="#3072C6"/><path fill="#3D3D3D" d="M17.314 43.853l36.57-5.684 3.479 22.375-36.57 5.684z"/><path d="M29.13 59.244c-3.94 5.132-11.295 6.098-16.427 2.158L8.25 57.984c-5.13-3.94-6.097-11.294-2.156-16.426l3.821-4.978c3.94-5.131 11.295-6.098 16.427-2.157l4.451 3.417c5.132 3.94 6.098 11.295 2.158 16.427l-3.822 4.977zm21.728-3.547c5.312 3.693 12.612 2.381 16.306-2.93l3.204-4.608c3.694-5.312 2.382-12.613-2.93-16.307l-5.153-3.582c-5.311-3.694-12.612-2.382-16.306 2.93l-3.204 4.608c-3.694 5.312-2.382 12.612 2.93 16.306l5.153 3.583z" fill="#3D3D3D"/><path d="M19.924 33.93c-.994-6.393 3.383-12.382 9.777-13.376l8.366-1.3c6.393-.994 12.382 3.383 13.375 9.777l1.076 6.922c.994 6.394-3.383 12.382-9.776 13.376l-8.367 1.3c-6.393.994-12.381-3.383-13.375-9.776l-1.076-6.923z" fill="#3D3D3D"/><path d="M54.825 58.198a8.974 8.974 0 0 1 10.246 7.49l3.446 22.168c.894 5.755-3.046 11.145-8.8 12.04L34 103.892c-5.754.894-11.144-3.046-12.039-8.8l-3.446-22.17a8.974 8.974 0 0 1 7.49-10.245l28.819-4.48z" fill="#A46648"/><rect x="43.567" y="68.99" width="11.997" height="15.734" rx="5.999" transform="rotate(-8.835 43.567 68.99)" fill="#fff"/><circle cx="66.327" cy="75.447" r="5.351" transform="rotate(-8.835 66.327 75.447)" fill="#A46648"/><circle cx="19.927" cy="82.66" r="5.351" transform="rotate(-8.835 19.927 82.66)" fill="#A46648"/><rect width="11.997" height="15.734" rx="5.999" transform="scale(-1 1) rotate(8.835 -469.986 -225.493)" fill="#fff"/><path d="M38.458 57.167a9.076 9.076 0 0 1 8.43-9.68l.176 2.554a9.076 9.076 0 0 1-8.43 9.68l-.176-2.554z" fill="#FDB02A"/><path d="M30.963 52.454a9.076 9.076 0 0 0 10.97 6.664l-.607-2.486a9.076 9.076 0 0 0-10.97-6.665l.607 2.487z" fill="#FDB02A"/><path d="M14.145 62.25l26.813-4.168.413 2.652-22.152 16.62-5.074-15.104z" fill="#FDB02A"/><path d="M66.01 54.188l-27.046 4.204.412 2.652 26.36 9.08.274-15.936z" fill="#FDB02A"/><path d="M58.447 71.772c-.207-1.332 1.304-6.593 1.674-6.65.37-.058 3.406 4.496 3.613 5.828.207 1.333-.809 2.597-2.269 2.824-1.46.227-2.811-.67-3.018-2.002z" fill="#A3FFFF"/><path d="M43.787 83.06c-7.33-1.829-13.84-.147-16.177.923l1.873 6.862 15.29-4.174-.986-3.611zm.371-.102c5.384-5.299 11.845-7.157 14.402-7.424l1.873 6.862-15.29 4.174-.985-3.612z" fill="#A46648"/><path d="M42.272 83.403a1.961 1.961 0 0 0 3.872-.623c-.172-1.07-2.426-3.252-2.507-3.239-.08.013-1.537 2.792-1.365 3.862z" fill="#86401F"/><rect x="41.099" y="82.095" width="5.833" height="4.038" rx="2.019" transform="rotate(-9.133 41.1 82.095)" fill="#86401F"/><path fill-rule="evenodd" clip-rule="evenodd" d="M32.548 73.109a2.473 2.473 0 0 1 2.064-2.824 5.33 5.33 0 0 1 6.086 4.449 2.473 2.473 0 0 1-4.888.76.384.384 0 0 0-.438-.321 2.473 2.473 0 0 1-2.824-2.064z" fill="#3D3D3D"/><path d="M28.671 72.451c1.577-.035 5.208-1.006 7.115-4.603" stroke="#884727" stroke-width="1.86" stroke-linecap="round" stroke-linejoin="round"/><path fill-rule="evenodd" clip-rule="evenodd" d="M48.077 70.695a2.473 2.473 0 0 1 2.064-2.823 5.33 5.33 0 0 1 6.085 4.448 2.473 2.473 0 1 1-4.887.76.384.384 0 0 0-.439-.32 2.473 2.473 0 0 1-2.823-2.065z" fill="#3D3D3D"/><path d="M55.37 68.302c-1.514.444-5.268.622-8.177-2.227" stroke="#884727" stroke-width="1.86" stroke-linecap="round" stroke-linejoin="round"/><path fill-rule="evenodd" clip-rule="evenodd" d="M42.028 92.678a4.343 4.343 0 0 1 3.355-5.145 10.145 10.145 0 0 0 6.031-3.848 4.344 4.344 0 1 1 6.955 5.206l-.42.56a16.973 16.973 0 0 1-10.09 6.438l-.686.145a4.344 4.344 0 0 1-5.145-3.356z" fill="#fff"/><path d="M128.899 72.348h-2.098c2.667 0 4.675 2.457 4.135 5.064l-6.652 32.542H101.93c1.468.03 2.667 1.229 2.667 2.697a2.707 2.707 0 0 1-2.278 2.667h17.89a6.218 6.218 0 0 0 6.083-4.974l6.742-32.962c.539-2.577-1.468-5.034-4.135-5.034z" fill="#7CCEFA"/><path d="M68.398 109.984h55.885l6.653-32.572c.539-2.607-1.468-5.064-4.135-5.064H81.283a6.354 6.354 0 0 0-6.233 5.094l-6.652 32.542z" fill="#4B4B4B"/><path d="M74.45 104.68h44.889l6.113-28.407H80.564L74.45 104.68z" fill="#E4E4E4"/><path d="M49.22 115.348h51.121v-5.424h-51.12a2.686 2.686 0 0 0-2.697 2.697c-.03 1.528 1.198 2.727 2.696 2.727z" fill="#00A0F5"/><path d="M120.149 115.348h-19.747a2.685 2.685 0 0 1-2.697-2.697 2.686 2.686 0 0 1 2.697-2.697h24.361l-4.614 5.394z" fill="#7CCEFA"/><path d="M124.733 79.69l.719-3.417H80.564l-.749 3.416h44.918z" fill="#fff"/><path d="M123.834 78.191c.12-.54-.299-1.019-.839-1.019H91.442c-.39 0-.75.27-.84.66-.12.539.3 1.018.84 1.018h31.553c.42.03.749-.27.839-.659z" fill="#E4E4E4"/><path d="M82.272 78.76a.78.78 0 1 0 0-1.558.78.78 0 0 0 0 1.558z" fill="#FF6464"/><path d="M85.27 78.76a.78.78 0 1 0 0-1.558.78.78 0 0 0 0 1.558z" fill="#FFD201"/><path d="M88.236 78.76a.78.78 0 1 0 0-1.558.78.78 0 0 0 0 1.558z" fill="#78C802"/><path d="M114.335 113.041h-3.656a.269.269 0 0 1-.269-.27v-.659c0-.15.12-.27.269-.27h3.656c.15 0 .27.12.27.27v.659c.03.15-.09.27-.27.27zm6.203 0h-3.656a.269.269 0 0 1-.269-.27v-.659c0-.15.12-.27.269-.27h3.656c.15 0 .27.12.27.27v.659c.03.15-.09.27-.27.27z" fill="#4B4B4B"/><path d="M81.234 82.539c.143-.654.802-1.185 1.472-1.185h13.488c.67 0 1.096.53.953 1.185l-1.827 8.365c-.142.655-.801 1.185-1.47 1.185H80.36c-.67 0-1.097-.53-.954-1.184l1.828-8.366z" fill="#7CCEFA"/><rect width="4.514" height="5.356" rx="2.257" transform="matrix(1 0 -.21337 .97697 86.904 82.677)" fill="#00A0F5"/><path d="M83.24 90.363c.214-.981 1.202-1.777 2.206-1.777h4.848c1.005 0 1.645.796 1.431 1.777l-.377 1.726h-8.486l.377-1.726z" fill="#00A0F5"/><path d="M98.004 82.539c.143-.654.801-1.185 1.471-1.185h13.488c.67 0 1.097.53.954 1.185l-1.827 8.365c-.143.655-.801 1.185-1.471 1.185H97.131c-.67 0-1.097-.53-.954-1.184l1.827-8.366z" fill="#7CCEFA"/><rect width="4.514" height="5.356" rx="2.257" transform="matrix(1 0 -.21337 .97697 103.673 82.677)" fill="#00A0F5"/><path d="M100.009 90.363c.214-.981 1.202-1.777 2.207-1.777h4.848c1.004 0 1.645.796 1.431 1.777l-.377 1.726h-8.486l.377-1.726z" fill="#00A0F5"/><path d="M78.718 94.068c.143-.654.801-1.184 1.471-1.184h13.488c.67 0 1.097.53.954 1.184l-1.827 8.366c-.143.654-.802 1.184-1.471 1.184H77.844c-.67 0-1.096-.53-.953-1.184l1.827-8.366z" fill="#7CCEFA"/><rect width="4.514" height="5.356" rx="2.257" transform="matrix(1 0 -.21337 .97697 84.387 94.207)" fill="#00A0F5"/><path d="M80.723 101.892c.214-.981 1.202-1.777 2.206-1.777h4.849c1.004 0 1.645.796 1.43 1.777l-.377 1.726h-8.485l.377-1.726z" fill="#00A0F5"/><path d="M95.487 94.068c.143-.654.802-1.184 1.472-1.184h13.488c.669 0 1.096.53.953 1.184l-1.827 8.366c-.142.654-.801 1.184-1.471 1.184H94.614c-.67 0-1.097-.53-.954-1.184l1.827-8.366z" fill="#7CCEFA"/><rect width="4.514" height="5.356" rx="2.257" transform="matrix(1 0 -.21337 .97697 101.157 94.207)" fill="#00A0F5"/><path d="M97.492 101.892c.215-.981 1.203-1.777 2.207-1.777h4.848c1.005 0 1.645.796 1.431 1.777l-.377 1.726h-8.486l.377-1.726z" fill="#00A0F5"/><path d="M82.66 81.56h13.49c.553 0 .906.439.788.979l-1.827 8.365c-.118.54-.662.979-1.216.979H80.406c-.553 0-.906-.438-.788-.978l1.827-8.366c.118-.54.663-.978 1.216-.978zm16.77 0h13.488c.553 0 .906.439.788.979l-1.827 8.365c-.118.54-.662.979-1.215.979H97.176c-.553 0-.906-.438-.788-.978l1.827-8.366c.118-.54.662-.978 1.215-.978zM80.144 93.09h13.488c.553 0 .906.438.788.978l-1.827 8.366c-.118.54-.662.978-1.215.978H77.89c-.553 0-.906-.438-.788-.978l1.827-8.366c.118-.54.662-.978 1.215-.978zm16.769 0h13.489c.553 0 .906.438.788.978l-1.828 8.366c-.118.54-.662.978-1.215.978H94.659c-.553 0-.906-.438-.788-.978l1.827-8.366c.118-.54.662-.978 1.216-.978z" stroke="#E4E4E4" stroke-width=".422"/><path d="M114.851 82.537c.143-.653.802-1.183 1.47-1.183h5.802c.671 0 1.098.532.954 1.187l-4.355 19.803c-.144.654-.802 1.183-1.471 1.183h-5.802c-.67 0-1.097-.531-.953-1.186l4.355-19.804z" fill="#B1B1B1"/><path opacity=".2" d="M92.79 104.68h26.549l6.113-28.407h-4.255L92.79 104.68z" fill="#fff"/><path d="M101.776 61.639h-7.394a1.835 1.835 0 1 0 0 3.67h7.394a1.835 1.835 0 0 0 0-3.67zm12.293 0h-7.393a1.836 1.836 0 1 0 0 3.67h7.393a1.836 1.836 0 1 0 0-3.67z" fill="#FF9600"/><path d="M106.685 63.474V50.016m-4.918 13.458V50.016" stroke="#FF9600" stroke-width="3.677"/><path fill-rule="evenodd" clip-rule="evenodd" d="M80.197 4.749a2.402 2.402 0 0 1 2.402 2.402v4.983a2.402 2.402 0 1 1-4.804 0V7.151a2.402 2.402 0 0 1 2.402-2.402z" fill="#4C4C4C"/><path fill-rule="evenodd" clip-rule="evenodd" d="M79.638 31.053h44.257c0 11.487-9.312 20.798-20.798 20.798h-2.66c-11.487 0-20.799-9.311-20.799-20.798z" fill="#D7DFE3"/><path fill-rule="evenodd" clip-rule="evenodd" d="M85.924 1.69h8.942c2.186 0 2.979.228 3.778.655a4.453 4.453 0 0 1 1.853 1.853c.428.8.655 1.592.655 3.778v22.033c0 1.64-.171 2.233-.491 2.833-.321.6-.79 1.07-1.39 1.39-.6.32-1.194.491-2.833.491H84.353c-1.64 0-2.234-.17-2.833-.491-.6-.32-1.07-.79-1.39-1.39-.321-.6-.492-1.194-.492-2.833V7.976c0-2.186.228-2.979.655-3.778a4.455 4.455 0 0 1 1.854-1.853c.799-.427 1.591-.655 3.777-.655z" fill="#D7DFE3"/><path fill-rule="evenodd" clip-rule="evenodd" d="M95.564 4.749a2.402 2.402 0 0 1 2.402 2.402v4.983a2.402 2.402 0 0 1-4.804 0V7.151a2.402 2.402 0 0 1 2.401-2.402z" fill="#4C4C4C"/><path d="M101.767 27.994h29.505c.679 0 1.229.548 1.229 1.224 0 7.77-6.33 14.07-14.138 14.07h-3.688c-7.808 0-14.137-6.3-14.137-14.07 0-.676.55-1.224 1.229-1.224z" fill="#CBD4D9"/><path d="M126.159 40.956c3.822-2.518 6.342-6.835 6.342-11.738 0-.676-.55-1.224-1.229-1.224h-9.856a7.307 7.307 0 0 0-1.043 3.773v1.436c0 .606.491 1.096 1.096 1.096h3.514a7.35 7.35 0 0 0 1.176 6.657z" fill="#B0BCC3"/><path d="M81.305 14.979h7.953v10.9h-7.953v-10.9z" fill="#4C4C4C"/><path d="M70.713 8.696a6.285 6.285 0 0 0-6.2 5.255c-.093.563.378 1.028.948 1.028h23.797a6.283 6.283 0 0 0-6.283-6.283H70.713z" fill="#FFB100"/><path d="M75.952 22.3a3.741 3.741 0 0 1 3.74-3.741h9.566v3.74H75.952z" fill="#FFAADE"/><path d="M82.975 31.724a6.283 6.283 0 0 0 6.283-6.283H71.152c-.57 0-1.04.466-.948 1.028a6.285 6.285 0 0 0 6.2 5.255h6.571z" fill="#FF9600"/></svg>