<svg viewBox="0 0 135 124" fill="none" xmlns="http://www.w3.org/2000/svg"><g clip-path="url(#clip0)"><path fill-rule="evenodd" clip-rule="evenodd" d="M28 11h79c9.389 0 17 7.611 17 17v79c0 9.389-7.611 17-17 17H28c-9.389 0-17-7.611-17-17V28c0-9.389 7.611-17 17-17z" fill="#FFCA00"/><path d="M122.278 20.93L20.758 122.45a16.937 16.937 0 0 0 7.08 1.56h41.32l54.68-54.68V28.01a16.938 16.938 0 0 0-1.56-7.08zm-72.12 48.14l58-58c-.43 0-.87-.07-1.31-.07h-48.59l-33.08 33.09c-6.904 6.904-6.904 18.096 0 25 6.903 6.904 18.096 6.904 25 0l-.02-.02z" fill="#FFD900"/><path fill-rule="evenodd" clip-rule="evenodd" d="M36.181 68.447l.206.051 71.95 19.28a5.153 5.153 0 0 1 3.695 6.105l-.051.206-7.986 29.808-.209.102h-68.75L22.42 120.62a5.153 5.153 0 0 1-3.695-6.106l.051-.206 11.298-42.166a5.154 5.154 0 0 1 6.106-3.695z" fill="#E27903"/><mask id="a" mask-type="alpha" maskUnits="userSpaceOnUse" x="38" y="30" width="84" height="56"><path d="M120.161 73.57L47.013 31.23a2.29 2.29 0 0 0-3.13.835l-.003.005-4.687 8.14a2.29 2.29 0 0 0 .837 3.126l73.148 42.34a2.29 2.29 0 0 0 3.13-.835l.002-.004 4.688-8.14a2.29 2.29 0 0 0-.837-3.126z" fill="#fff"/></mask><g mask="url(#a)"><path d="M120.161 73.57L47.013 31.23a2.29 2.29 0 0 0-3.13.835l-.003.005-4.687 8.14a2.29 2.29 0 0 0 .837 3.126l73.148 42.34a2.29 2.29 0 0 0 3.13-.835l.002-.004 4.688-8.14a2.29 2.29 0 0 0-.837-3.126z" fill="#E27903"/><path d="M113.522 69.728l-15.62 7.106 15.276 8.843a2.29 2.29 0 0 0 3.13-.836l.003-.004 4.687-8.14a2.29 2.29 0 0 0-.837-3.126l-6.639-3.843z" fill="#FFF1A2"/></g><path d="M34.796 86.437a1.03 1.03 0 0 0-.64 1.956l.107.035 65.374 17.517a1.03 1.03 0 0 0 .64-1.956l-.107-.035-65.374-17.517zM32.13 96.385a1.03 1.03 0 0 0-.64 1.957l.107.034 65.374 17.517a1.03 1.03 0 0 0 .64-1.956l-.107-.035L32.13 96.385z" fill="#FFF1A2"/><mask id="b" mask-type="alpha" maskUnits="userSpaceOnUse" x="29" y="60" width="89" height="37"><path d="M115.382 84.24L34.164 60.855a2.29 2.29 0 0 0-2.835 1.568l-2.01 6.91a2.29 2.29 0 0 0 1.568 2.83l81.218 23.387c1.216.35 1.915 1.775 2.265.56l.571-2.133 2.01-6.905a2.291 2.291 0 0 0-1.569-2.83z" fill="#fff"/></mask><g mask="url(#b)"><path d="M115.382 84.24L34.164 60.855a2.29 2.29 0 0 0-2.835 1.568l-2.01 6.91a2.29 2.29 0 0 0 1.568 2.83l81.218 23.387c1.216.35 1.915 1.775 2.265.56l.571-2.133 2.01-6.905a2.291 2.291 0 0 0-1.569-2.83z" fill="#E27903"/><path d="M108.01 82.118L94.573 92.792l16.962 4.884a2.29 2.29 0 0 0 2.835-1.567l.001-.005 2.58-9.033a2.29 2.29 0 0 0-1.569-2.83l-7.372-2.123z" fill="silver"/></g><path d="M90.275 76.899l-19.033-5.48-13.437 10.673 19.033 5.48L90.275 76.9zM50.734 65.562L33.988 60.74a2.29 2.29 0 0 0-2.835 1.567l-.002.005-2.579 9.033a2.29 2.29 0 0 0 1.569 2.83l7.156 2.06 13.437-10.673zM29.298 106.335l-.11-.024a1.032 1.032 0 0 0-.639 1.931l.108.049.107.035 17.72 4.747-2.018 7.53a1.031 1.031 0 0 0 1.956.641l.035-.107 2.019-7.53 22.783 6.105-1.149 4.287h2.134l1.007-3.753 14.01 3.753h7.731l-.102-.062-.11-.051-.108-.035-65.374-17.516z" fill="#FFF1A2"/><path d="M115.455 83.94l-12.975-3.477a3.608 3.608 0 0 0-4.419 2.55l-1.538 5.744a3.608 3.608 0 0 0 2.55 4.418l12.976 3.477a3.607 3.607 0 0 0 4.418-2.551l1.539-5.743a3.607 3.607 0 0 0-2.551-4.419z" fill="#FB8603"/><path d="M106.746 90.492a2.292 2.292 0 0 1-1.624-2.805 2.292 2.292 0 0 1 2.809-1.617 2.292 2.292 0 0 1 1.624 2.805 2.293 2.293 0 0 1-2.809 1.617zM97.576 60.373L80.434 50.45l-15.62 7.106 17.142 9.923 15.62-7.106zM61.952 39.807l-15.082-8.73a2.29 2.29 0 0 0-3.13.835l-.003.004-4.688 8.14a2.29 2.29 0 0 0 .838 3.126l6.445 3.73 15.62-7.105z" fill="#FFF1A2"/><path d="M8.71 67.793c-2.368-.238-4.502-1.492-5.602-3.548-1.8-3.363-.15-7.6 3.682-9.462 1.958-.952 4.108-1.1 5.983-.568.649-1.758 2.037-3.33 3.996-4.282 3.832-1.862 8.398-.646 10.197 2.717 1.022 1.91.932 4.1-.038 5.978l-4.207 9.587c-.58 1.325-2.091 2.073-3.563 1.765L8.71 67.793zM101.585 29.03c3.802-1.471 6.76-4.567 7.651-8.567 1.457-6.542-3.17-13.023-10.335-14.476-3.66-.743-7.275-.029-10.13 1.72-1.863-2.705-4.861-4.76-8.522-5.503-7.164-1.454-14.153 2.672-15.61 9.213-.827 3.714.306 7.408 2.752 10.174l11.257 14.454c1.555 1.997 4.385 2.593 6.676 1.407l16.261-8.423z" fill="#FB8603"/><path d="M16.66 5.94l-7.972 8.013c-.696.7-.572 1.893.252 2.414l18.613 11.762c1.294.818 2.796-.693 2.056-2.067L18.967 6.286a1.44 1.44 0 0 0-2.308-.346zM42.086 1.742l-11.77 1.3c-1.028.113-1.651 1.133-1.261 2.064l8.823 21.026c.613 1.462 2.832 1.217 3.036-.335l2.947-22.325c.13-.988-.747-1.843-1.775-1.73zM5.516 28.206L3.152 38.762c-.206.922.585 1.785 1.6 1.746l22.96-.884c1.597-.062 2.042-2.051.61-2.723L7.726 27.228c-.911-.428-2.004.055-2.21.978z" fill="#E27903"/><path d="M104.802 48.501c-1.508-1.97-2.074-4.528-1.289-6.91 1.284-3.895 5.697-5.842 9.856-4.348 2.125.763 3.773 2.277 4.705 4.095 1.807-.834 3.998-.97 6.123-.206 4.159 1.494 6.489 5.862 5.205 9.758-.729 2.21-2.467 3.794-4.593 4.477l-10.327 4.046c-1.427.559-3.076-.02-3.892-1.365l-5.788-9.547z" fill="#FB8603"/></g><defs><clipPath id="clip0"><path fill="#fff" d="M0 0h135v124H0z"/></clipPath></defs></svg>