<svg viewBox="0 0 136 125" fill="none" xmlns="http://www.w3.org/2000/svg"><g clip-path="url(#clip0_302_3283)"><path d="M107.564 11.146h-79c-9.389 0-17 7.611-17 17v79c0 9.389 7.611 17 17 17h79c9.389 0 17-7.611 17-17v-79c0-9.389-7.611-17-17-17z" fill="#BFBFBF"/><path d="M58.304 78.796h-2.338a.762.762 0 0 0-.762.762v17.148c0 .421.34.763.762.763h2.338a.762.762 0 0 0 .763-.763V79.558a.762.762 0 0 0-.763-.762zM69.894 73.001h-2.338a.762.762 0 0 0-.763.763V90.91c0 .421.342.763.763.763h2.338a.762.762 0 0 0 .763-.763V73.764a.762.762 0 0 0-.763-.763zM81.484 78.796h-2.339a.762.762 0 0 0-.762.762v17.148c0 .421.341.763.762.763h2.339a.762.762 0 0 0 .762-.763V79.558a.762.762 0 0 0-.762-.762z" fill="#B0B0B0"/><path d="M91.786 89.742h-47.41a.762.762 0 0 0-.762.762v24.874c0 .422.341.763.762.763h47.41a.762.762 0 0 0 .763-.763V90.504a.762.762 0 0 0-.763-.762z" fill="#B0B0B0"/><path d="M92.549 98.112H43.614v5.151h48.935v-5.15z" fill="#fff"/><path d="M47.477 101.976h5.151v2.575a2.576 2.576 0 1 1-5.15 0v-2.575zm7.083-.644h5.15v5.795a2.575 2.575 0 0 1-5.15 0v-5.795zM83.534 88.454h5.151v5.795a2.576 2.576 0 0 1-5.15 0v-5.795z" fill="#fff"/><path d="M79.027 88.454h5.151v3.864a2.576 2.576 0 0 1-5.15 0v-3.864zM57.135 76.22c1.423 0 2.576-1.174 2.576-2.623 0-1.448-2.415-4.459-2.576-4.459-.16 0-2.575 3.01-2.575 4.46 0 1.448 1.153 2.623 2.575 2.623zm11.59-5.15c1.422 0 2.576-1.175 2.576-2.623 0-1.45-2.415-4.46-2.576-4.46-.161 0-2.575 3.01-2.575 4.46 0 1.448 1.153 2.623 2.575 2.623z" fill="#fff"/><path d="M49.73 90.386a4.185 4.185 0 1 0 0-8.37 4.185 4.185 0 0 0 0 8.37zM69.047 90.386a4.185 4.185 0 1 0 0-8.37 4.185 4.185 0 0 0 0 8.37zM87.72 90.386a4.185 4.185 0 1 0 0-8.37 4.185 4.185 0 0 0 0 8.37z" fill="#A2A2A2"/><path d="M80.315 76.22c1.422 0 2.575-1.174 2.575-2.623 0-1.448-2.414-4.46-2.575-4.46-.161 0-2.576 3.012-2.576 4.46 0 1.45 1.153 2.624 2.576 2.624zM91.904 85.879H44.258a3.22 3.22 0 0 0 0 6.439h47.646a3.22 3.22 0 0 0 0-6.44z" fill="#fff"/><path d="M92.548 110.99H43.614a2.575 2.575 0 1 0 0 5.151h48.934a2.576 2.576 0 0 0 0-5.151z" fill="#A2A2A2"/><path d="M47.824 14.299C46.681 8.429 42.14 3.523 35.92 2.215 27.629.472 19.496 5.78 17.753 14.07a15.55 15.55 0 0 0-.185 1.058c-5.162.394-9.661 4.139-10.78 9.461a11.92 11.92 0 0 0-.082 4.509c.484 2.774.533 7.174 3.289 7.754l46.979 9.876c2.05.43 3.36-2.635 4.732-4.218a12.195 12.195 0 0 0 2.724-5.498c1.371-6.524-2.724-12.926-9.178-14.444v-.004c-4.678-.984-6.648-3.23-7.42-8.277l-.008.012z" fill="#959595"/><path d="M18.761 24.282l-1.46 6.944a5.876 5.876 0 0 1-8.734 3.856 25.89 25.89 0 0 1 1.969-3.341l-.004-.013a4.183 4.183 0 1 0-3.221 7.003 26.407 26.407 0 0 0-.676 2.569l-2.22 10.558a8.033 8.033 0 0 0 6.209 9.515l35.351 7.431a8.033 8.033 0 0 0 9.514-6.209l2.22-10.558c.182-.867.319-1.732.412-2.593a4.183 4.183 0 1 0-.32-7.779l-.009.01c.246 1.26.4 2.547.456 3.851a5.876 5.876 0 0 1-6.442-7.046l1.476-7.018.022-.104A26 26 0 0 0 37.54 21.131a26.003 26.003 0 0 0-18.779 3.151z" fill="#B0B0B0"/><path d="M28.757 27.324a5.903 5.903 0 0 0-6.991 4.562l-.365 1.738c4.497.11 7.54 1.234 11.252 3.85l.037-.163.63-2.996a5.903 5.903 0 0 0-4.563-6.991zM42.664 30.247a5.903 5.903 0 0 0-6.991 4.563l-.63 2.995a6.099 6.099 0 0 0-.049.263c4.5-.94 7.745-.791 11.876.867l.357-1.696a5.903 5.903 0 0 0-4.563-6.992z" fill="#fff"/><path d="M29.771 32.229a2.514 2.514 0 0 0-2.978 1.943l-.052.247c1.576.483 3.055 1.199 4.614 2.185.079-.17.14-.35.18-.542l.18-.855a2.514 2.514 0 0 0-1.944-2.978zM46.294 38.712l.059-.278a2.514 2.514 0 0 0-4.922-1.035l-.032.154c1.6.14 3.176.516 4.895 1.159z" fill="#959595"/><path d="M31.916 51.27c-1.325 6.3-7.506 10.335-13.807 9.01-6.301-1.325-10.335-7.506-9.01-13.807 1.324-6.301 7.506-10.335 13.807-9.01 6.3 1.324 10.335 7.506 9.01 13.807z" fill="#fff"/><path d="M16.447 36.395a2.56 2.56 0 0 1 3.03-1.978l3.896.819a2.56 2.56 0 0 1-1.053 5.009l-3.896-.82a2.56 2.56 0 0 1-1.977-3.03z" fill="#D1D1D1"/><path fill-rule="evenodd" clip-rule="evenodd" d="M11.578 43.751a7.467 7.467 0 0 1 7.935-6.966l9.832.639a7.436 7.436 0 0 1 4.578 1.962c1.5.69 2.78 1.88 3.568 3.474l3.957 8.013a7.467 7.467 0 0 1-13.39 6.612l-.808-1.635c-1.7-3.107-2.309-3.581-5.63-3.964l-3.076-.2a7.467 7.467 0 0 1-6.966-7.935zM47.94 28.974c-2.029-.532-3.123-1.261-4.597-3.001a2.8 2.8 0 0 0-4.274 3.62c2.123 2.505 4.174 3.94 7.452 4.799a2.8 2.8 0 1 0 1.419-5.419zM25.134 19.937c2.052.43 3.357.265 5.453-.635a2.8 2.8 0 1 1 2.21 5.146c-3.018 1.296-5.494 1.665-8.81.971a2.8 2.8 0 1 1 1.147-5.482z" fill="#959595"/><path d="M7.783 30.617c.324-1.543 4.152-6.67 4.58-6.58.429.09 1.866 6.324 1.542 7.867-.325 1.543-1.958 2.505-3.649 2.15-1.69-.355-2.798-1.894-2.473-3.437z" fill="#fff"/><path d="M40.7 42.656a2.56 2.56 0 0 1 3.031-1.978l3.896.819a2.56 2.56 0 1 1-1.053 5.009l-3.896-.82a2.56 2.56 0 0 1-1.978-3.03z" fill="#D1D1D1"/><path d="M34.259 36.256a3.734 3.734 0 1 0-1.537 7.308 3.734 3.734 0 0 0 1.537-7.308z" fill="#B0B0B0"/><path d="M98.76 21.11A9.447 9.447 0 1 0 94.12 2.793a9.447 9.447 0 0 0 4.638 18.315zM88.348 26.11c-10.505 2.66-16.865 13.332-14.205 23.837 2.66 10.505 13.332 16.865 23.837 14.206l21.947-5.557c10.505-2.66 16.865-13.332 14.205-23.837-2.659-10.505-13.331-16.865-23.836-14.205L88.348 26.11z" fill="#959595"/><path d="M134.611 37.369c1.099 9.609-5.049 18.788-14.684 21.227L97.98 64.153c-9.635 2.44-19.41-2.709-23.016-11.683l59.647-15.101z" fill="#A2A2A2"/><path d="M83.058 50.42l4.025-1.018a5.098 5.098 0 0 0 3.69-6.193L89.4 37.785l25.068-6.347 1.373 5.424a5.098 5.098 0 0 0 6.193 3.69l4.482-1.134a18.859 18.859 0 0 1 3.848 7.527l2.256 8.91c1.398 5.522-1.945 11.132-7.467 12.53l-27.112 6.864c-5.522 1.398-11.131-1.945-12.53-7.467l-2.255-8.91a18.858 18.858 0 0 1-.198-8.452z" fill="#D1D1D1"/><path d="M110.06 39.398a5.46 5.46 0 0 1 6.633 3.953l.098.39c-1.878.464-3.925 1.467-5.832 2.962-1.474 1.155-2.683 2.462-3.571 3.787a5.447 5.447 0 0 1-.455-1.192l-.826-3.266a5.459 5.459 0 0 1 3.953-6.634zM97.524 42.572a5.46 5.46 0 0 0-3.953 6.634l.098.389c1.884-.497 4.181-.595 6.593-.184 1.823.31 3.488.874 4.889 1.603a5.5 5.5 0 0 0-.167-1.223l-.827-3.266a5.46 5.46 0 0 0-6.633-3.953z" fill="#fff"/><path fill-rule="evenodd" clip-rule="evenodd" d="M114.969 65.74a.589.589 0 0 1-.033.832c-3.215 2.97-7.177 2.723-8.802 2.211a.588.588 0 1 1 .354-1.123c1.344.424 4.828.653 7.649-1.953a.589.589 0 0 1 .832.033zM94.562 40.988a1.766 1.766 0 0 1 .707-2.395 31.024 31.024 0 0 1 14.88-3.767 1.765 1.765 0 1 1-.009 3.532 27.49 27.49 0 0 0-13.184 3.337 1.766 1.766 0 0 1-2.394-.707z" fill="#959595"/><path d="M107.701 43.844a1.792 1.792 0 0 1-1.583 2.225 3.5 3.5 0 0 0 .023.1l.758 2.992c.026.102.348 1.347.385 1.443.715-.834 2.003-2.48 2.433-2.85.541-.467 1.018-.934 1.575-1.279l-.383-1.513a2.459 2.459 0 0 0-3.424-1.626c.096.154.169.324.216.508z" fill="#959595"/><path fill-rule="evenodd" clip-rule="evenodd" d="M121.296 46.975c.373.22.496.702.276 1.075-3.949 6.682-9.48 9.754-14.785 10.855-5.275 1.094-10.316.24-13.376-.897a.785.785 0 1 1 .547-1.471c2.823 1.05 7.563 1.858 12.51.831 4.918-1.02 10.051-3.853 13.753-10.116a.785.785 0 0 1 1.075-.277z" fill="#959595"/><path d="M98.645 49.209l-.272-1.074a2.46 2.46 0 0 0-3.424-1.625 1.792 1.792 0 0 1-1.367 2.733l.023.1.064.251c1.457-.384 3.162-.53 4.976-.386zM120.353 40.697a5.094 5.094 0 0 0 1.61-.145l.441-.111a.59.59 0 0 1-.218.342l-2.339 1.777 2.945.552a.59.59 0 0 1-.216 1.157l-4.249-.797a.59.59 0 0 1-.248-1.047l2.274-1.728zM87.029 49.397a5.085 5.085 0 0 0 1.693-.787l3.056.474a.589.589 0 0 1 .28 1.04L88.7 52.844a.589.589 0 1 1-.742-.914l2.328-1.887-2.902-.45a.586.586 0 0 1-.355-.197zM105.424 47.434c.116-.03 1.55 1.335 3.022 2.775 1.465 1.432.783 3.904-1.204 4.407-1.986.503-3.763-1.346-3.156-3.304.61-1.966 1.222-3.849 1.338-3.878z" fill="#959595"/><path d="M21.204 73.786l4.29 2.478-3.77 6.532-4.292-2.477 3.772-6.533zM56.47 16.677l4.053-2.85 4.339 6.17-4.053 2.85-4.339-6.17zM27.818 88.493l4.29-2.478 3.772 6.533-4.29 2.477-3.772-6.532zM24.657 104.337l3.504 3.504-5.334 5.333-3.503-3.503 5.333-5.334zM74.433 19.997l3.504 3.503-5.334 5.334-3.504-3.503 5.334-5.334zM101.825 78.193l4.291-2.477 3.771 6.532-4.291 2.477-3.771-6.532zM114.998 92.132l4.291 2.477-3.771 6.533-4.291-2.477 3.771-6.533zM103.378 109.931l2.478-4.291 6.532 3.771-2.477 4.291-6.533-3.771z" fill="#D1D1D1"/></g><defs><clipPath id="clip0_302_3283"><path fill="#fff" transform="translate(.564 .146)" d="M0 0h135v124H0z"/></clipPath></defs></svg>