<svg viewBox="0 0 135 125" fill="none" xmlns="http://www.w3.org/2000/svg"><path d="M107 11H28c-9.389 0-17 7.611-17 17v79c0 9.389 7.611 17 17 17h79c9.389 0 17-7.611 17-17V28c0-9.389-7.611-17-17-17z" fill="#FF7878"/><circle cx="66.829" cy="29.973" r="13.245" fill="#FF9600"/><circle cx="53.082" cy="15.89" r="13.58" fill="#FF9600"/><path d="M26.425 45.9c0-9.26 7.506-16.766 16.765-16.766h48.284c9.26 0 16.766 7.506 16.766 16.766v75.35H26.425V45.9z" fill="#FFC6B7"/><path d="M108.24 88.483H26.425v31.184h81.815V88.483z" fill="#2FE3FF"/><path d="M62.729 97.11a2.28 2.28 0 0 0-4.56 0v13.248a2.28 2.28 0 0 0 4.56 0V97.109zM76.629 97.11a2.28 2.28 0 0 0-4.561 0v13.248a2.28 2.28 0 0 0 4.56 0V97.109zM56.626 36.435c-5.653 0-10.235 4.582-10.235 10.235v3.721a14.024 14.024 0 0 1 5.995-1.337c5.964 0 11.062 3.71 13.112 8.948a10.189 10.189 0 0 0 1.363-5.107V46.67c0-5.653-4.582-10.235-10.235-10.235z" fill="#fff"/><path d="M58.843 43.78a3.725 3.725 0 0 1-3.984 3.715v1.776a14.073 14.073 0 0 1 8.809 5.44 4.58 4.58 0 0 0 .38-1.835v-5.767a4.595 4.595 0 0 0-5.4-4.525c.126.375.195.777.195 1.195z" fill="#3D3D3D"/><path d="M70.486 46.67c0-5.653 4.582-10.235 10.235-10.235s10.235 4.582 10.235 10.235v3.721a14.022 14.022 0 0 0-5.994-1.336c-5.965 0-11.063 3.71-13.113 8.947a10.188 10.188 0 0 1-1.363-5.106V46.67z" fill="#fff"/><path d="M77.937 43.78a3.725 3.725 0 0 1-3.985 3.715v5.38c0 .44.062.865.177 1.267a14.055 14.055 0 0 1 9.013-4.971v-2.062a4.595 4.595 0 0 0-5.401-4.525c.127.375.196.777.196 1.195z" fill="#3D3D3D"/><path d="M68.674 52.923c.185 0 1.824 2.6 3.492 5.329 1.66 2.715-.31 6.176-3.492 6.176s-5.151-3.461-3.492-6.176c1.668-2.729 3.307-5.329 3.492-5.329z" fill="#EE9583"/><path fill-rule="evenodd" clip-rule="evenodd" d="M55.924 62.857a5.272 5.272 0 0 1 6.91 2.801c.348.825.869 1.663 1.656 2.262.685.52 1.971 1.176 4.519 1.019a5.272 5.272 0 0 1 .649 10.524c-4.854.3-8.688-.972-11.552-3.15-2.76-2.101-4.217-4.736-4.983-6.547a5.272 5.272 0 0 1 2.8-6.91z" fill="#fff"/><path d="M37.825 30.011c-6.628 2.237-11.4 8.506-11.4 15.889v12.07h1.341c5.556 0 10.06-4.503 10.06-10.059v-17.9zM96.84 30.011c6.627 2.237 11.4 8.506 11.4 15.889v12.07h-1.342c-5.555 0-10.059-4.503-10.059-10.059v-17.9z" fill="#FFB67A"/><path d="M24.515 68.333a7.276 7.276 0 1 0 0-14.551 7.276 7.276 0 0 0 0 14.551z" fill="#FFC6B7"/><circle cx="110.587" cy="60.988" r="7.377" fill="#FFC6B7"/><path d="M108.24 123.955v-4.288H26.425v4.261c.519.048 1.044.072 1.575.072h79c.417 0 .83-.015 1.24-.045z" fill="#0084C2"/><path d="M19 35.5l9.25 57.25" stroke="#2FE3FF" stroke-width="16" stroke-linecap="round" stroke-linejoin="round"/><path d="M131.709 95.41a5.063 5.063 0 1 0-10.125 0 5.063 5.063 0 0 0 10.125 0z" fill="#FFC6B7"/><path d="M132.721 106.546c0-6.15-4.986-11.137-11.137-11.137-6.151 0-11.137 4.987-11.137 11.137 0 6.151 4.986 11.137 11.137 11.137 6.151 0 11.137-4.986 11.137-11.137z" fill="#FFC6B7"/><path d="M123.609 93.89a6.58 6.58 0 1 0-13.161 0 6.58 6.58 0 0 0 13.161 0zM96.273 95.41a5.062 5.062 0 1 0-10.124 0 5.062 5.062 0 0 0 10.124 0z" fill="#CD7900"/><path d="M116.522 90.853c0-6.43-5.213-11.643-11.643-11.643-6.43 0-11.643 5.213-11.643 11.643 0 6.43 5.212 11.643 11.643 11.643 6.43 0 11.643-5.212 11.643-11.643z" fill="#CD7900"/><path d="M106.372 85.73l-1.432-1.432a1.518 1.518 0 0 0-2.147 0l-1.432 1.432a1.519 1.519 0 0 0 0 2.147l1.432 1.432a1.518 1.518 0 0 0 2.147 0l1.432-1.432a1.519 1.519 0 0 0 0-2.147zM113.756 90.076l-.716-.716a1.519 1.519 0 0 0-2.148 0l-.716.716a1.519 1.519 0 0 0 0 2.148l.716.716a1.519 1.519 0 0 0 2.148 0l.716-.716a1.519 1.519 0 0 0 0-2.148zM101.31 93.83l-1.432-1.433a1.519 1.519 0 0 0-2.148 0L96.3 93.83a1.519 1.519 0 0 0 0 2.148l1.431 1.432a1.519 1.519 0 0 0 2.148 0l1.432-1.432a1.519 1.519 0 0 0 0-2.148z" fill="#AD6600"/><path fill-rule="evenodd" clip-rule="evenodd" d="M126.646 95.41a2.024 2.024 0 1 1 0 4.05h-1.687l-3.695 11.084a3.037 3.037 0 0 1-2.881 2.077h-28.02a3.038 3.038 0 0 1-2.882-2.077l-3.694-11.085h-1.688a2.025 2.025 0 1 1 0-4.05h44.547z" fill="#D8D8D8"/><path d="M27.539 124.054V34l-.005-.176A3 3 0 0 0 21.54 34v88.789a16.946 16.946 0 0 0 6 1.265z" fill="#AD6600"/><path fill-rule="evenodd" clip-rule="evenodd" d="M115.062 99.46h2.15a1.012 1.012 0 0 1 .975 1.285l-2.268 8.099c-.122.437-.521.74-.975.74h-2.149a1.013 1.013 0 0 1-.975-1.286l2.268-8.099c.122-.438.52-.74.974-.74z" fill="#fff"/><path fill-rule="evenodd" clip-rule="evenodd" d="M20.354 27.783c2.42 5.551 2.964.027 1.633-16.572a9.435 9.435 0 0 0-14.33-7.294 7.273 7.273 0 0 0 .568 12.721c6.182 3.063 10.225 6.778 12.129 11.145z" stroke="#AD6600" stroke-width="5" stroke-linejoin="round"/><path d="M30.053 37.917c0-6.642-5.384-12.026-12.027-12.026C11.384 25.89 6 31.275 6 37.917c0 6.642 5.384 12.027 12.026 12.027 6.643 0 12.027-5.385 12.027-12.027z" fill="#FFC6B7"/><path d="M20.758 30.1l.782 1.84a4.5 4.5 0 0 0 8.284-3.516l-.781-1.841a4.5 4.5 0 0 0-8.285 3.517z" fill="#FFC6B7"/></svg>