<svg id="Layer_3" data-name="Layer 3" xmlns="http://www.w3.org/2000/svg" viewBox="0 0 135 124"><defs><style>.cls-1{fill:#ffb100}.cls-2{fill:#e27800}.cls-4{fill:#ffef70}.cls-5{fill:#f89700}.cls-6{fill:#ffc800}</style></defs><path class="cls-1" d="M124 28.6v79a17 17 0 0 1-17 17H28a17 17 0 0 1-17-17v-79a17 17 0 0 1 17-17h79a17 17 0 0 1 17 17z"/><circle class="cls-2" cx="67" cy="39.14" r="37.76"/><path class="cls-2" d="M67 104.43c-24.72 0-44.83-15.8-44.83-35.22S42.27 34 67 34s44.84 15.8 44.84 35.23-20.12 35.2-44.84 35.2z"/><path class="cls-1" d="M45.91 70.47A11.53 11.53 0 0 1 31.74 52.7a37.91 37.91 0 0 0 14.17 17.77zM105.88 60.37a11.54 11.54 0 0 1-17.48 9.88 37.87 37.87 0 0 0 14-18.08 11.47 11.47 0 0 1 3.48 8.2z"/><path fill="#ffb49e" d="M58.26 96.8h19.76v15.27H58.26z"/><path class="cls-1" d="M95 43.9v22.32a38.82 38.82 0 0 1-4 17.22l-2.92 5.88a23.18 23.18 0 0 1-20.77 12.9 23.18 23.18 0 0 1-20.78-12.9l-2.91-5.88a38.82 38.82 0 0 1-4-17.22V43.9A17.43 17.43 0 0 1 57 26.47h20.59A17.44 17.44 0 0 1 95 43.9z"/><rect class="cls-4" x="46.47" y="51.41" width="16.33" height="22.6" rx="8.16" ry="8.16"/><path class="cls-1" d="M43.34 42.89H64.7v16.86H43.34z"/><rect class="cls-5" x="53.21" y="60.6" width="6.56" height="10.72" rx="3.28" ry="3.28"/><rect class="cls-4" x="71.8" y="51.41" width="16.33" height="22.6" rx="8.16" ry="8.16" transform="rotate(-180 79.965 62.71)"/><rect class="cls-5" x="74.74" y="60.6" width="6.56" height="10.72" rx="3.28" ry="3.28" transform="rotate(180 78.015 65.965)"/><path class="cls-2" d="M39.49 66.87s2.67-9 6.79-10.86l10.49-4.75A38.07 38.07 0 0 0 74.8 34l5-9.73H48.12L30.32 36.1z"/><path class="cls-2" d="M73.68 19.81l9.87 23.62a15.53 15.53 0 0 0 4.23 5.81l1.75 1.5A15.55 15.55 0 0 1 95 62.43l8.91-21.31-10.23-17.24z"/><rect class="cls-5" x="64.71" y="53.06" width="5.18" height="23.83" rx="2.59" ry="2.59"/><rect class="cls-5" x="116.04" y="82.98" width="8.49" height="19.73" rx="4.24" ry="4.24" transform="rotate(-60.55 120.274 92.847)"/><rect class="cls-5" x="10.56" y="82.98" width="8.49" height="19.73" rx="4.24" ry="4.24" transform="rotate(-119.45 14.808 92.846)"/><path class="cls-4" d="M109.49 72.84l4.45 37.08a15.83 15.83 0 0 1-9.38 3.06H30.44a15.85 15.85 0 0 1-9.38-3.06l4.45-37.08a3.5 3.5 0 0 1 4.22-2.9l37.77 8.5 37.77-8.5a3.49 3.49 0 0 1 4.22 2.9z"/><circle class="cls-6" cx="67.5" cy="87.84" r="9.26"/><path class="cls-6" d="M117 80.66v40.68a16.87 16.87 0 0 1-10 3.26H28a16.87 16.87 0 0 1-10-3.26V80.66A2.74 2.74 0 0 1 21.33 78L67.5 88.25 113.68 78a2.73 2.73 0 0 1 3.32 2.66z"/><path d="M78 88.32v36.28H57V88.32a4.07 4.07 0 0 1 4.07-4.07h12.86A4.07 4.07 0 0 1 78 88.32z" fill="#ffd900"/><path class="cls-5" d="M129.74 94.63l3 11a5.05 5.05 0 0 1-2.81 6l-2.22 1-5.7 2.56a3.64 3.64 0 0 1-4.83-1.8l-1-2.25-4.13-9.14a3.65 3.65 0 0 1 1.81-4.83l10.88-4.9a3.65 3.65 0 0 1 5 2.36z"/><rect class="cls-5" x="108.68" y="98.34" width="8.49" height="19.73" rx="4.24" ry="4.24" transform="rotate(-114.52 112.918 108.208)"/><rect class="cls-5" x="116.65" y="100.13" width="8.49" height="25.14" rx="4.24" ry="4.24" transform="rotate(-129.35 120.901 112.7)"/><rect class="cls-5" x="109.98" y="87.02" width="8.49" height="25.14" rx="4.24" ry="4.24" transform="rotate(80.32 114.223 99.58)"/><path class="cls-5" d="M5.35 94.63l-3 11a5.06 5.06 0 0 0 2.8 6l2.23 1 5.7 2.56a3.64 3.64 0 0 0 4.83-1.8l1-2.25L23 102a3.64 3.64 0 0 0-1.8-4.83l-10.88-4.9a3.65 3.65 0 0 0-4.97 2.36z"/><rect class="cls-5" x="17.92" y="98.34" width="8.49" height="19.73" rx="4.24" ry="4.24" transform="rotate(-65.48 22.17 108.207)"/><rect class="cls-5" x="9.95" y="100.13" width="8.49" height="25.14" rx="4.24" ry="4.24" transform="rotate(-50.65 14.188 112.69)"/><rect class="cls-5" x="16.62" y="87.02" width="8.49" height="25.14" rx="4.24" ry="4.24" transform="rotate(99.68 20.857 99.594)"/></svg>