<svg width="135" height="124" viewBox="0 0 135 124" version="1.1" xmlns="http://www.w3.org/2000/svg"><g stroke="none" stroke-width="1" fill="none" fill-rule="evenodd"><g fill-rule="nonzero"><g transform="translate(-1 5)"><rect fill="#D3E4E8" x="12" y="6" width="113" height="113" rx="17"/><path d="M101 12.75L107 28l-6 76.15H36L30 28l6-15.22 8.11-2.67c1.593-.527 3.193-1 4.8-1.42a77.33 77.33 0 0 1 39.16 0c1.613.42 3.213.893 4.8 1.42l8.13 2.64z" fill="#FF4B4B"/><path d="M103.32 96.75l-.09 1.12a2.61 2.61 0 0 1-4.35 1.75L86.42 87.17a4.12 4.12 0 0 1 0-5.83l.21-.21a1.68 1.68 0 0 1 2.38 0l13.55 13.54a2.61 2.61 0 0 1 .76 2.08zM50.39 87.17L38 99.59a3.79 3.79 0 0 1-.54.45 2.32 2.32 0 0 1-3.64-1.72l-.16-1.86a2.35 2.35 0 0 1 .68-1.84l13.24-13.28a2 2 0 0 1 2.81 0 4.12 4.12 0 0 1 0 5.83z" fill="#FF7878"/><path d="M120.53 33v6.8l-52-17.21-40.29 13.27-4.95 1.64-6.84 2.26V33a19 19 0 0 1 13.06-18.1l14.6-4.83a77.62 77.62 0 0 1 48.77 0l14.61 4.83A19 19 0 0 1 120.53 33z" fill="#FF4B4B"/><path fill="#FF7878" d="M68.14 42.23l.16-.08.15.08zM84.68 21l6.18 5.51a2.59 2.59 0 0 1-.53 4.24L69.81 41.37l-1.51.78-.7-.37-21.33-11a2.59 2.59 0 0 1-.53-4.24L51.93 21l-13.2-4a2.6 2.6 0 0 1-1.53-3.73l1.87-3.45A12.47 12.47 0 0 1 46 4l1.33-.44a65.07 65.07 0 0 1 42.21.09l.91.31h.12a12.39 12.39 0 0 1 6.93 5.85l1.89 3.46a2.61 2.61 0 0 1-1.5 3.73l-13.21 4z"/><path d="M90.48 3.92L87.9 8.6l-3.07 5.56-15 27.21-1.2 2.19-1-1.78-15.8-27.65-3.16-5.54L46 4l1.33-.44a65.07 65.07 0 0 1 42.21.09l.94.27zM115.36 25.35a3.26 3.26 0 0 1 4.49 2.39l13.5 71.34a5.72 5.72 0 0 1-4.56 6.69l-7.9 1.51a5.78 5.78 0 0 1-1.43.08 5.72 5.72 0 0 1-5.26-4.65l-1.25-6.64-12.42-64.39 14.83-6.33z" fill="#FF4B4B"/><path d="M36 103.94h65v4.36a2.26 2.26 0 0 1-2.26 2.26H38.25a2.26 2.26 0 0 1-2.25-2.25v-4.37zM106.11 37.09l13.34 70.27a5.72 5.72 0 0 1-5.26-4.65l-12.31-64.82a2.12 2.12 0 0 1 0-.43c0-.425.129-.84.37-1.19a2.16 2.16 0 0 1 3.89.82h-.03zM87.8 8.66L68.54 43.57 48.64 8.66a77.33 77.33 0 0 1 39.16 0z" fill="#E92B2B"/><rect fill="#D0D0D0" x="63.85" y="11.01" width="8.73" height="8.73" rx="2.58"/><path fill="#BEBEBE" d="M66.82 104.12h3.36v6.45h-3.36z"/><path fill="#D0D0D0" d="M66.82 40.04h3.36v64.08h-3.36z"/><rect fill="#BEBEBE" x="65.89" y="40.04" width="5.24" height="7.81" rx="2.62"/><rect fill="#E4E4E4" transform="rotate(-90 68.495 39.32)" x="65.575" y="37.285" width="5.84" height="4.07" rx="2.03"/><path d="M88.55 47.78h2.36v18.46a1.18 1.18 0 0 1-2.36 0V47.78z" fill="#D0D0D0"/><rect fill="#BEBEBE" x="87.13" y="47.78" width="5.24" height="7.81" rx="2.62"/><rect fill="#E4E4E4" transform="rotate(-90 89.735 47.05)" x="86.815" y="45.015" width="5.84" height="4.07" rx="2.03"/><circle fill="#FFF" cx="95.66" cy="14.07" r="1.99"/><circle fill="#FFF" cx="87.75" cy="28.07" r="1.99"/><circle fill="#FFF" cx="40.91" cy="14.07" r="1.99"/><circle fill="#FFF" cx="48.82" cy="28.07" r="1.99"/><circle fill="#FFF" cx="41.64" cy="91.44" r="1.99"/><circle fill="#FFF" cx="95.17" cy="91.44" r="1.99"/><rect fill="#FF7878" transform="rotate(169.6 124.653 103.769)" x="113.958" y="99.049" width="21.39" height="9.44" rx="2.17"/><circle fill="#FFF" cx="132.32" cy="102.36" r="1.99"/><path d="M21.64 25.35a3.26 3.26 0 0 0-4.49 2.39L3.65 99.08a5.72 5.72 0 0 0 4.56 6.69l7.9 1.51a5.78 5.78 0 0 0 1.43.08 5.72 5.72 0 0 0 5.26-4.65l1.25-6.64 12.42-64.39-14.83-6.33z" fill="#FF4B4B"/><path d="M30.89 37.09l-13.34 70.27a5.72 5.72 0 0 0 5.26-4.65l12.31-64.82a2.12 2.12 0 0 0 0-.43c0-.425-.129-.84-.37-1.19a2.16 2.16 0 0 0-3.89.82h.03z" fill="#E92B2B"/><rect fill="#FF7878" transform="rotate(10.4 12.335 103.761)" x="1.64" y="99.041" width="21.39" height="9.44" rx="2.17"/><circle fill="#FFF" cx="4.68" cy="102.36" r="1.99"/></g></g></g></svg>