<svg id="Cover" xmlns="http://www.w3.org/2000/svg" viewBox="0 0 135 124"><defs><style>.cls-1{fill:#ff6360}.cls-2{fill:#2d2d2d}.cls-4{fill:#fff}.cls-9{fill:#666161}</style></defs><path class="cls-1" d="M124 27.79v79.3a15.23 15.23 0 0 1-.12 1.92A17 17 0 0 1 107 124H28a17 17 0 0 1-16.88-15 16.69 16.69 0 0 1-.12-2V28a17 17 0 0 1 17-17h79a17 17 0 0 1 17 16.79z"/><rect class="cls-2" x="13.04" y="33.17" width="113.2" height="62.64" rx="6.41" ry="6.41" transform="rotate(-45 69.64 64.484)"/><path d="M123 46.86L78.76 91.09 52 117.83a6.39 6.39 0 0 1-9.06 0L25.61 100.5l-10-10-7.89-7.89a6.42 6.42 0 0 1 0-9.07l27-27 44-44a6.41 6.41 0 0 1 9.06 0L123 37.78a6.42 6.42 0 0 1 0 9.08z" fill="#4b4b4b"/><path class="cls-4" transform="rotate(45 66.672 58.877)" d="M35.35 15.8h62.64v86.17H35.35z"/><rect class="cls-2" x="93.87" y="25.54" width="19.88" height="3.37" rx="1.68" ry="1.68" transform="rotate(45 103.806 27.218)"/><circle cx="91.66" cy="15.07" r="2.53" fill="#bebebe"/><circle cx="91.66" cy="15.07" r="1.16" fill="#ff4a46"/><rect class="cls-2" x="19.83" y="89.53" width="21.44" height="8.09" rx="2.29" ry="2.29" transform="rotate(45 30.554 93.566)"/><circle class="cls-1" cx="35.11" cy="66.44" r="8.25"/><circle cx="58.58" cy="89.91" r="8.25" fill="#75c900"/><path d="M89.42 70.73a24.47 24.47 0 1 1 0-34.61 24.35 24.35 0 0 1 0 34.61z" fill="#d0d0d0"/><path class="cls-9" d="M73.55 77.86a24.48 24.48 0 0 1-25.88-25.41L52 50.52a9.51 9.51 0 0 1 10.58 2l10.79 10.73a9.53 9.53 0 0 1 2 10.59z"/><rect class="cls-9" x="67.02" y="34.01" width="20.22" height="29.26" rx="10.11" ry="10.11" transform="rotate(45 77.124 48.636)"/><path class="cls-4" d="M74.6 52.77a1.58 1.58 0 0 1-1.14-.47 1.6 1.6 0 0 1 0-2.27l.62-.63a6 6 0 0 1 5.81-1.57 2.78 2.78 0 0 0 2.92-4.42 2.78 2.78 0 0 0-2-1.06 2.81 2.81 0 0 0-2.13.81 1.61 1.61 0 0 1-2.27-2.27A6 6 0 0 1 81 39.14a6 6 0 1 1-1.91 11.79 2.78 2.78 0 0 0-2.69.75l-.62.62a1.6 1.6 0 0 1-1.18.47z"/><circle class="cls-4" cx="71.13" cy="54.63" r="1.68"/><path d="M123 46.86L78.76 91.09l-53.15 9.41-10-10-7.89-7.89a6.42 6.42 0 0 1 0-9.07l27-27 81.63-15.39 6.65 6.63a6.42 6.42 0 0 1 0 9.08z" opacity=".3" fill="#fff"/></svg>