<svg viewBox="0 0 135 124" fill="none" xmlns="http://www.w3.org/2000/svg"><g clip-path="url(#clip0)"><path d="M124 28v79a17 17 0 0 1-17 17H28a17 17 0 0 1-17-17V28a17 17 0 0 1 17-17h79c.79 0 1.578.058 2.36.17A17 17 0 0 1 124 28z" fill="#D1D1D1"/><path d="M18.38 65.82H62.2v27a2 2 0 0 1-2 2H20.41a2 2 0 0 1-2-2v-27h-.03z" fill="#EFEFEF"/><path d="M59.98 66.1v26.73l-37.31-.01V66.1h37.31z" fill="#B2B2B2"/><path d="M22.68 66.1h-2.19v26.72h2.19V66.1z" fill="#D1D1D1"/><path opacity=".3" d="M55 73.92L37.15 92.78H20.49v-5.25l14.06-13.61H55z" fill="#fff"/><path d="M22.82 43.45A22.81 22.81 0 0 0 0 66.27h62.2V43.45H22.82z" fill="#E5E5E5"/><path d="M62.2 66.27H39.39A22.809 22.809 0 0 1 62.2 43.45v22.82z" fill="#BFBFBF"/><path d="M6.71 66.15a3.36 3.36 0 1 1-6.71 0h6.71z" fill="#E5E5E5"/><path d="M13.24 66.15a3.351 3.351 0 0 1-6.7 0h6.7z" fill="#E5E5E5"/><path d="M19.78 66.15a3.36 3.36 0 1 1-6.71 0h6.71z" fill="#E5E5E5"/><path d="M26.32 66.15a3.36 3.36 0 1 1-6.71 0h6.71z" fill="#E5E5E5"/><path d="M32.85 66.15a3.36 3.36 0 1 1-6.71 0h6.71z" fill="#E5E5E5"/><path d="M39.39 66.15a3.36 3.36 0 1 1-6.71 0h6.71zM57.51 92.78H14.13a1.81 1.81 0 0 0-1.8 1.8 1.81 1.81 0 0 0 1.8 1.81h43.38a.83.83 0 0 0 .83-.83v-2a.83.83 0 0 0-.83-.78z" fill="#E5E5E5"/><path d="M61.38 92.78h-7.33a1.81 1.81 0 0 0-1.81 1.8 1.81 1.81 0 0 0 1.81 1.81h7.33a.83.83 0 0 0 .82-.83v-2a.83.83 0 0 0-.82-.78z" fill="#BFBFBF"/><path d="M87.69 42.66a16.5 16.5 0 0 1 16.5 16.5v53.19h-33v-53.2a16.5 16.5 0 0 1 16.5-16.49z" fill="#EFEFEF"/><path d="M101.71 67.11H73.66v45.23h28.05V67.11zM101.71 59.29v4.84h-28v-4.84a14 14 0 0 1 28 0z" fill="#A6A6A6"/><path d="M75.65 67.11h-1.99v45.23h1.99V67.11zM88.69 45.31a14 14 0 0 0-13 14v4.84h-2v-4.86a14 14 0 0 1 14-14c.31-.02.67-.01 1 .02z" fill="#D1D1D1"/><path d="M123.13 112.34A17 17 0 0 1 106.99 124h-79a16.996 16.996 0 0 1-16.14-11.66h111.28zM99.37 108.64H67.74a1.85 1.85 0 0 0-1.85 1.85v1.85h33.48a.848.848 0 0 0 .84-.85v-2a.85.85 0 0 0-.84-.85z" fill="#E5E5E5"/><path d="M103.34 108.64h-7.53a1.852 1.852 0 0 0-1.81 1.85v1.85h10.22v-2.86a.838.838 0 0 0-.546-.788.845.845 0 0 0-.334-.052zM86.88.04H41.54a5.7 5.7 0 0 0-5.7 5.7v24.21a5.7 5.7 0 0 0 5.7 5.7h45.34a5.7 5.7 0 0 0 5.7-5.7V5.74a5.7 5.7 0 0 0-5.7-5.7z" fill="#BFBFBF"/><path d="M83.66.04H38.32a5.7 5.7 0 0 0-5.7 5.7v24.21a5.7 5.7 0 0 0 5.7 5.7h45.34a5.7 5.7 0 0 0 5.7-5.7V5.74a5.7 5.7 0 0 0-5.7-5.7zM123.94 28v79a16.823 16.823 0 0 1-.86 5.34H109.3V11.17A17 17 0 0 1 123.94 28z" fill="#BFBFBF"/><path d="M45.46 26.66h28.35v1.73a2.25 2.25 0 0 1-2.25 2.25H47.7a2.25 2.25 0 0 1-2.25-2.25v-1.73h.01z" fill="#E5E5E5"/><path d="M77.7 7.57A7.39 7.39 0 0 0 70.31 15a4.55 4.55 0 0 0 0 .53 7.36 7.36 0 0 0 6.8 6.82c.186.01.373.01.56 0a7.38 7.38 0 0 0 0-14.76l.03-.02zm0 11.3a3.444 3.444 0 0 1-.56 0 3.92 3.92 0 0 1-3.33-3.35 3.086 3.086 0 0 1 0-.53 3.93 3.93 0 1 1 3.93 3.92l-.04-.04z" fill="#EFEFEF"/><path d="M48.6 5.37h22.79a2.42 2.42 0 0 1 2.42 2.43v7.59a11.27 11.27 0 0 1-11.27 11.27h-5.09a11.27 11.27 0 0 1-11.27-11.27V7.8a2.42 2.42 0 0 1 2.42-2.43z" fill="#EFEFEF"/><path d="M77.45 24.76H42.54a1.9 1.9 0 0 0-1.9 1.9v.01c0 1.05.85 1.9 1.9 1.9h34.91a1.9 1.9 0 0 0 1.9-1.9v-.01a1.9 1.9 0 0 0-1.9-1.9z" fill="#EFEFEF"/><path d="M88.69 67.11H75.65v41.52h13.04V67.11z" fill="#BFBFBF"/><path d="M84.13 73.61a1.96 1.96 0 1 0-3.92 0v12.83a1.96 1.96 0 1 0 3.92 0V73.61z" fill="#A6A6A6"/><path d="M84.12 73.61v12.83a2 2 0 0 1-2 2 1.68 1.68 0 0 1-.5-.07 1.94 1.94 0 0 0 1.46-1.89V73.61a2 2 0 0 0-.57-1.39 1.88 1.88 0 0 0-.89-.5 1.68 1.68 0 0 1 .5-.07 1.949 1.949 0 0 1 2 2v-.04zM89.31 87.23a1.25 1.25 0 1 0-2.5 0v3.83a1.25 1.25 0 0 0 2.5 0v-3.83z" fill="#B2B2B2"/><path d="M49.59 100.57h-5.83a1.2 1.2 0 0 0-1.2 1.2v1.1a1.2 1.2 0 0 0 1.2 1.2h5.83a1.2 1.2 0 0 0 1.2-1.2v-1.1a1.2 1.2 0 0 0-1.2-1.2zM45.48 104.89h-5.83a1.2 1.2 0 0 0-1.2 1.2v1.1a1.2 1.2 0 0 0 1.2 1.2h5.83a1.2 1.2 0 0 0 1.2-1.2v-1.1a1.2 1.2 0 0 0-1.2-1.2zM23.35 20.85h-5.83a1.2 1.2 0 0 0-1.2 1.2v1.1a1.2 1.2 0 0 0 1.2 1.2h5.83a1.2 1.2 0 0 0 1.2-1.2v-1.1a1.2 1.2 0 0 0-1.2-1.2zM19.23 25.17H13.4a1.2 1.2 0 0 0-1.2 1.2v1.1a1.2 1.2 0 0 0 1.2 1.2h5.83a1.2 1.2 0 0 0 1.2-1.2v-1.1a1.2 1.2 0 0 0-1.2-1.2z" fill="#BFBFBF"/><path d="M120.18 35.65h-5.83a1.2 1.2 0 0 0-1.2 1.2v1.1a1.2 1.2 0 0 0 1.2 1.2h5.83a1.2 1.2 0 0 0 1.2-1.2v-1.1a1.2 1.2 0 0 0-1.2-1.2zM116.06 39.97h-5.83a1.2 1.2 0 0 0-1.2 1.2v1.1a1.2 1.2 0 0 0 1.2 1.2h5.83a1.2 1.2 0 0 0 1.2-1.2v-1.1a1.2 1.2 0 0 0-1.2-1.2z" fill="#D1D1D1"/><path opacity=".3" d="M100 52.59L89.09 64.13H75.83l18-17.44a14.1 14.1 0 0 1 6.17 5.9z" fill="#fff"/></g><defs><clipPath id="clip0"><path fill="#fff" d="M0 0h135v124H0z"/></clipPath></defs></svg>