<svg viewBox="0 0 135 124" version="1.1" xmlns="http://www.w3.org/2000/svg"><g stroke="none" stroke-width="1" fill="none" fill-rule="evenodd"><g transform="translate(11 11)"><rect fill="#FFCA00" x="0" y="0" width="113" height="113" rx="17"/><path d="M111.278 9.93L9.758 111.45a16.94 16.94 0 0 0 7.08 1.56h41.32l54.68-54.68V17.01a16.94 16.94 0 0 0-1.56-7.08zm-72.12 48.14l58-58c-.43 0-.87-.07-1.31-.07h-48.59l-33.08 33.09c-6.904 6.904-6.904 18.096 0 25 6.903 6.904 18.096 6.904 25 0l-.02-.02z" fill="#FFD900" fill-rule="nonzero"/></g><path d="M37.083 92l14.202.21c14.208.211 25.615 11.788 25.615 25.998V124h-49c-9.389 0-17-7.611-17-17V92.59L37.083 92z" fill="#FF9600"/><path d="M97.717 110l25.768.75C121.777 118.335 115 124 106.9 124H60.972c4.236-7.9 12.439-13.366 21.975-13.713l.455-.013L97.717 110zM21.9 90h34v2c0 9.389-7.611 17-17 17s-17-7.611-17-17v-2zM39 13.6h.7C58.643 13.6 74 28.957 74 47.9v19.6c0 8.505-6.895 15.4-15.4 15.4H20.1c-8.505 0-15.4-6.895-15.4-15.4V47.9c0-18.943 15.357-34.3 34.3-34.3z" fill="#E27903"/><rect fill="#FFB100" x="13.8" y="24.8" width="51.1" height="71.4" rx="14"/><path d="M39.7 20.6h-14c-7.732 0-14 6.268-14 14v14h4.9c12.758 0 23.1-10.342 23.1-23.1v-4.9z" fill="#E27903"/><rect fill="#FFB100" x="4" y="64.7" width="70.7" height="21.7" rx="10.85"/><circle fill="#FFB100" cx="39.35" cy="88.15" r="12.95"/><rect fill="#FFF1A2" x="43.9" y="50.7" width="15.4" height="21.7" rx="7.7"/><rect fill="#FFF1A2" x="19.4" y="50.7" width="15.4" height="21.7" rx="7.7"/><rect fill="#E27903" x="11.7" y="45.1" width="4.2" height="31.5" rx="2.1"/><rect fill="#E27903" x="62.8" y="45.1" width="4.2" height="31.5" rx="2.1"/><rect fill="#E27903" x="36.2" y="54.2" width="6.3" height="20.3" rx="3.15"/><rect fill="#E27903" x="48.7" y="57.3" width="6.125" height="11.2" rx="3.062"/><rect fill="#E27903" x="27.7" y="57.3" width="6.125" height="11.2" rx="3.062"/><path fill="#FFB100" d="M45.052 47.517l14.918 1.568-.628 5.967-14.917-1.567z"/><path d="M39 20.6h14c7.732 0 14 6.268 14 14v14h-4.9C49.342 48.6 39 38.258 39 25.5v-4.9zM35.748 79.413l4.727.72a6.5 6.5 0 0 1 5.515 6.698l-.001.03a5.25 5.25 0 0 1-6.035 4.97l-7.714-1.174a4.828 4.828 0 0 1-3.794-6.467l.236-.631a6.5 6.5 0 0 1 7.066-4.146z" fill="#E27903"/><path d="M35.748 79.413l4.727.72a6.488 6.488 0 0 1 4.27 2.593H31.692a2 2 0 0 1-1.817-1.162 6.496 6.496 0 0 1 5.874-2.15z" fill="#FFF1A2"/><path d="M36.638 85.726c3.54 0 6.615 1.714 8.174 4.233a5.24 5.24 0 0 1-4.858 1.873l-7.714-1.175a4.81 4.81 0 0 1-3.017-1.725c1.69-1.946 4.382-3.206 7.415-3.206z" fill="#FF9600"/><path d="M96.717 31c18.944 0 34.3 15.357 34.3 34.3v26.6c0 12.371-10.028 22.4-22.4 22.4h-23.8c-12.37 0-22.4-10.029-22.4-22.4V65.3c0-18.943 15.357-34.3 34.3-34.3z" fill="#FFCA00"/><rect fill="#FFB100" transform="rotate(-23 68.717 83.85)" x="62.417" y="73" width="12.6" height="21.7" rx="6.3"/><rect fill="#FFB100" transform="scale(-1 1) rotate(-23 0 696.856)" x="118.417" y="73" width="12.6" height="21.7" rx="6.3"/><rect fill="#E27903" transform="rotate(90 96.367 65.3)" x="68.717" y="36.6" width="55.3" height="57.4" rx="27.65"/><rect fill="#FFB100" x="70.117" y="52.7" width="53.2" height="68.6" rx="26.6"/><path d="M122.97 74.985l.058.382c-9.61-4.201-16.792-12.142-19.165-21.696 9.871 2.746 17.43 11.042 19.106 21.314z" fill="#FFCA00"/><rect fill="#FFF1A2" x="75.717" y="73.7" width="16.039" height="21.7" rx="8.02"/><rect fill="#E27903" x="80.9" y="77.5" width="7" height="11" rx="3.5"/><rect fill="#FFF1A2" transform="matrix(-1 0 0 1 219.274 0)" x="101.617" y="73.7" width="16.039" height="21.7" rx="8.02"/><rect fill="#E27903" transform="matrix(-1 0 0 1 212.8 0)" x="102.9" y="77.5" width="7" height="11" rx="3.5"/><path d="M102.24 108.367l6.762-1.812c6.935-1.858 11.05-8.987 9.192-15.922L98.876 95.81l3.365 12.557zM92.564 66.265h-7c-7.18 0-13 5.82-13 13h20v-13z" fill="#FFB100"/><path d="M96.717 52.7c2.564 0 5.043.363 7.388 1.04-3.57 13.893-16.18 24.16-31.188 24.16-.928 0-1.847-.04-2.756-.116C70.946 63.798 82.536 52.7 96.717 52.7z" fill="#FFCA00"/><path d="M82.308 47c-3.214 0-5.751-2.297-5.751-6.008 0-2.827.676-5.478 3.721-9.012l4.567-5.39c2.538-2.915 3.383-4.947 3.383-7.156 0-3.446-2.199-5.832-5.582-5.832-3.13 0-4.82 1.68-5.92 4.33-1.184 2.65-3.214 3.887-5.413 3.887-3.214 0-5.413-2.12-5.413-5.39 0-.706.17-1.59.423-2.385C68.268 7.683 74.273 3 82.9 3c10.065 0 17 6.892 17 15.992 0 4.506-1.353 7.952-4.567 11.574l-5.244 6.097c-1.438 1.678-1.945 2.915-1.945 4.329 0 3.71-2.707 6.008-5.836 6.008z" fill="#FF9600"/><circle fill="#FF9600" cx="82.9" cy="57" r="7"/><path d="M103.748 106.745l.212-.08a17.13 17.13 0 0 0 8.727-7.41" stroke="#E27903" stroke-width="4" stroke-linecap="round" stroke-linejoin="round"/><rect fill="#E27903" x="93.217" y="73" width="7" height="27.3" rx="3.5"/></g></svg>