<svg id="Layer_3" data-name="Layer 3" xmlns="http://www.w3.org/2000/svg" viewBox="0 0 135 124"><defs><style>.cls-2{fill:#f89700}.cls-3{fill:#e27800}.cls-4{fill:#ffb100}.cls-5{fill:#ffe75e}.cls-6{fill:#ffd900}</style></defs><path d="M124 28v79a17 17 0 0 1-9.84 15.42 16.75 16.75 0 0 1-6.6 1.56 5.15 5.15 0 0 1-.56 0H28a17 17 0 0 1-17-17V28a17 17 0 0 1 17-17h79a17 17 0 0 1 17 17z" fill="#ffc800"/><path class="cls-2" d="M44.21 105.51L33.53 124H28a17 17 0 0 1-17-17V95.11l3.8-6.58a5.72 5.72 0 0 1 7.8-2.09l19.52 11.27a5.72 5.72 0 0 1 2.09 7.8z"/><path class="cls-3" d="M110.17 103.34l-49.11 1.39c-14.17.4-26-10.11-26.35-23.47v-.5a90.29 90.29 0 0 1 4.76-31.52l8.3-24.51C52.61 10.42 66.52.53 82.43.08c11.39-.32 36.64 2.82 42.14 26.57l6.18 18.08c.33 1.05.71 2.09 1.09 3.12 3.59 9.79 3 20.11 3.3 30.57.38 13.36-10.8 24.52-24.97 24.92z"/><rect class="cls-4" x="28.61" y="50.16" width="9.94" height="25.49" rx="4.97" ry="4.97" transform="rotate(-22.38 33.572 62.899)"/><path class="cls-4" d="M30.61 108.38a13.29 13.29 0 0 1-13.28-13.29V78H43.9v17.09a13.29 13.29 0 0 1-13.29 13.29z"/><rect class="cls-3" x="30.64" y="44.33" width="33.95" height="63.3" rx="5.71" ry="5.71" transform="rotate(30 47.619 75.98)"/><path class="cls-5" d="M51.35 103.11L24.24 87.39l23.38-39.71 10.3 44.04-6.57 11.39z"/><circle class="cls-6" cx="49.24" cy="89.4" r="5.44"/><circle class="cls-6" cx="37.81" cy="82.08" r="5.57"/><path class="cls-4" d="M75.02 78.72h26.81v31.47H75.02z"/><path class="cls-2" d="M125.07 63.29a12.5 12.5 0 0 1-12.5 12.49 1.14 1.14 0 0 1-.26 0v-25a1.14 1.14 0 0 1 .26 0 12.5 12.5 0 0 1 12.5 12.51z"/><path class="cls-3" d="M112.83 44.29h4.89v45.23h-4.89z"/><path class="cls-4" d="M112.83 42.76v28.59a32.52 32.52 0 0 1-.84 7.37 32.93 32.93 0 0 1-65-7.37V42.76a18.28 18.28 0 0 1 18.26-18.27h29.3a18.27 18.27 0 0 1 18.28 18.27z"/><path class="cls-2" d="M50.93 45.46a2.07 2.07 0 0 1-.35 0A2 2 0 0 1 49 43.14c.74-4.23 2.7-7.28 5.8-9.06 6.15-3.51 14.48-.46 14.83-.33a2 2 0 1 1-1.38 3.7c-.07 0-7-2.53-11.5.07-2.06 1.18-3.32 3.24-3.86 6.31a2 2 0 0 1-1.96 1.63z"/><path class="cls-2" d="M112.83 42.76v28.59a32.52 32.52 0 0 1-.84 7.37L61.09 25a18.36 18.36 0 0 1 4.16-.48h29.3a18.27 18.27 0 0 1 18.28 18.24z"/><path class="cls-3" d="M65.24 23.9c14 14 48.22 10.18 47.66 47.7l1.32-39.43L94 14.53z"/><path class="cls-2" d="M71.38 57.53h9.16v12.23h-9.16z"/><path class="cls-5" d="M71.66 50v14.69a3.82 3.82 0 0 1-3.81 3.81H45.79A3.82 3.82 0 0 1 42 64.69V50a3.82 3.82 0 0 1 3.81-3.82h22.04A3.82 3.82 0 0 1 71.66 50z"/><path class="cls-6" d="M67.85 69.6H45.79a4.91 4.91 0 0 1-4.91-4.91V50a4.92 4.92 0 0 1 4.91-4.92h22.06A4.92 4.92 0 0 1 72.76 50v14.69a4.91 4.91 0 0 1-4.91 4.91zM45.79 47.32A2.71 2.71 0 0 0 43.08 50v14.69a2.71 2.71 0 0 0 2.71 2.72h22.06a2.72 2.72 0 0 0 2.72-2.72V50a2.72 2.72 0 0 0-2.72-2.72z"/><rect class="cls-5" x="80.13" y="46.23" width="29.68" height="22.27" rx="3.81" ry="3.81" transform="rotate(-180 94.965 57.365)"/><path class="cls-6" d="M106 69.6H84a4.91 4.91 0 0 1-5-4.91V50a4.91 4.91 0 0 1 4.91-4.91h22A4.91 4.91 0 0 1 110.9 50v14.69a4.91 4.91 0 0 1-4.9 4.91zM84 47.33A2.71 2.71 0 0 0 81.23 50v14.69a2.71 2.71 0 0 0 2.71 2.71h22a2.71 2.71 0 0 0 2.72-2.71V50a2.71 2.71 0 0 0-2.66-2.67z"/><rect class="cls-3" x="50.81" y="49.98" width="10.42" height="17.02" rx="5.21" ry="5.21"/><rect class="cls-3" x="82.53" y="49.98" width="10.42" height="17.02" rx="5.21" ry="5.21" transform="rotate(180 87.735 58.49)"/><path class="cls-2" d="M66.92 28.09a1.21 1.21 0 0 1-.74-.26l-1.71-1.36a21.27 21.27 0 0 1-5.77-7.08l-.32-.63a1.2 1.2 0 1 1 2.14-1.08l.31.63A18.91 18.91 0 0 0 66 24.6l1.66 1.4a1.2 1.2 0 0 1 .2 1.68 1.21 1.21 0 0 1-.94.41z"/><path class="cls-6" d="M69.38 55.14h9.16v4.78h-9.16zM114 51.08h-6.2a1.1 1.1 0 0 1 0-2.2h6.2a1.1 1.1 0 1 1 0 2.2z"/><path class="cls-6" d="M104 69.6H82a4.91 4.91 0 0 1-5-4.91V50a4.91 4.91 0 0 1 4.91-4.91h22A4.91 4.91 0 0 1 108.9 50v14.69a4.91 4.91 0 0 1-4.9 4.91zM82 47.33A2.71 2.71 0 0 0 79.23 50v14.69a2.71 2.71 0 0 0 2.71 2.71h22a2.71 2.71 0 0 0 2.72-2.71V50a2.71 2.71 0 0 0-2.66-2.67z"/><path class="cls-2" d="M70.77 83.55a2 2 0 0 1-.55-3.87L95 72.48a2 2 0 0 1 1.1 3.79l-24.8 7.2a1.81 1.81 0 0 1-.53.08z"/><path class="cls-6" d="M65.85 69.6H43.79a4.91 4.91 0 0 1-4.91-4.91V50a4.92 4.92 0 0 1 4.91-4.92h22.06A4.92 4.92 0 0 1 70.76 50v14.69a4.91 4.91 0 0 1-4.91 4.91zM43.79 47.32A2.71 2.71 0 0 0 41.08 50v14.69a2.71 2.71 0 0 0 2.71 2.72h22.06a2.72 2.72 0 0 0 2.72-2.72V50a2.72 2.72 0 0 0-2.72-2.72z"/><path class="cls-2" d="M107.56 112.15V124a5.15 5.15 0 0 1-.56 0H70.37v-11.85A4.13 4.13 0 0 1 74.5 108h28.93a4.13 4.13 0 0 1 4.13 4.15z"/><path class="cls-3" d="M102.14 45.27H81.31a2 2 0 0 1 0-4h20.83a2 2 0 0 1 0 4z"/><path class="cls-2" d="M120.58 117.23a17 17 0 0 1-6.42 5.19 16.75 16.75 0 0 1-6.6 1.56 5.15 5.15 0 0 1-.56 0H56.58a14.39 14.39 0 0 1 12.21-6.77z"/><rect class="cls-4" x="22.84" y="65.7" width="9.94" height="14.17" rx="4.97" ry="4.97" transform="rotate(-22.38 27.807 72.79)"/><rect class="cls-4" x="19.27" y="72.8" width="9.94" height="19.73" rx="4.97" ry="4.97" transform="rotate(-22.38 24.225 82.665)"/><rect class="cls-2" x="67.99" y="66.88" width="14.94" height="8.54" rx="4.27" ry="4.27"/></svg>