<svg id="Layer_3" data-name="Layer 3" xmlns="http://www.w3.org/2000/svg" viewBox="0 0 135 124"><defs><style>.cls-3{fill:#2b70c8}.cls-6{fill:#ff9780}.cls-9{fill:#fff}.cls-11{fill:#4b4b4b}.cls-12{fill:#f68f00}.cls-15{fill:#ff9c86}.cls-16{fill:#db8f73}.cls-17{fill:#825035}.cls-19{fill:#ce7455}.cls-20{fill:#61361e}</style></defs><path d="M124 28v79a17 17 0 0 1-17 17H28a17 17 0 0 1-17-17V28a17 17 0 0 1 17-17h79a16.75 16.75 0 0 1 3.63.39A17 17 0 0 1 124 28z" fill="#bdf2fe"/><path d="M63.6 84.31v.54L49 90.2H11v-27h32.9l15.45 12.29a11.24 11.24 0 0 1 4.25 8.82z" fill="#fec72e"/><path class="cls-3" d="M124 90.21V107a17 17 0 0 1-17 17H70.2v-22.8a11 11 0 0 1 11-11zM64.82 101.2V124H28a17 17 0 0 1-17-17V90.21h42.83a11 11 0 0 1 10.99 10.99z"/><path d="M124 106.7v.3a17 17 0 0 1-17 17H70.26l2.25-7.57a13.64 13.64 0 0 1 13.07-9.73z" fill="#f34848"/><path fill="#ff9982" d="M113.27 107.09l-10.82 9.48-10.87-9.48V96.1h21.69v10.99z"/><circle class="cls-6" cx="81.06" cy="79.5" r="8.88"/><circle class="cls-6" cx="126.1" cy="79.5" r="8.88"/><path d="M125.74 53.61v25.13a24 24 0 0 1-24 24 24 24 0 0 1-24-24V53.61a14 14 0 0 1 14-14h20.07a14 14 0 0 1 13.93 14z" fill="#ffb49e"/><path d="M89.37 85.77h18.71a1.43 1.43 0 0 1 1.43 1.43v.8a7.57 7.57 0 0 1-7.57 7.57h-6.43A7.57 7.57 0 0 1 87.94 88v-.8a1.43 1.43 0 0 1 1.43-1.43z" fill="#a24242"/><path class="cls-9" d="M90.42 85.77H107v1.9a2 2 0 0 1-2 2H92.39a2 2 0 0 1-2-2v-1.9h.03z"/><path d="M93.77 95.39a7.67 7.67 0 0 0 1.74.21H102a7.59 7.59 0 0 0 1.73-.21 5.34 5.34 0 0 0-9.91 0z" fill="#f14848"/><rect class="cls-9" x="83.18" y="65.38" width="12.19" height="16.87" rx="6.09" ry="6.09"/><rect class="cls-11" x="83.11" y="69" width="4.9" height="8" rx="2.45" ry="2.45"/><rect class="cls-9" x="102.09" y="65.38" width="12.19" height="16.87" rx="6.09" ry="6.09" transform="rotate(-180 108.185 73.815)"/><rect class="cls-11" x="102.08" y="69" width="4.9" height="8" rx="2.45" ry="2.45" transform="rotate(-180 104.53 73.005)"/><rect class="cls-6" x="95.15" y="64.32" width="5.15" height="19.07" rx="2.21" ry="2.21"/><path class="cls-12" d="M77.75 75.83L79.64 68a49.59 49.59 0 0 0 1.41-11.76v-8.17h40.13l.4 8.14a50.54 50.54 0 0 0 1.71 10.73l2.44 8.89a25.2 25.2 0 0 0 .78-4.88l.68-11.31a25.5 25.5 0 0 0-25.46-27 25.49 25.49 0 0 0-25.45 27L77 70.88a25 25 0 0 0 .79 5z"/><path d="M100.24 26.84h6.5a2.38 2.38 0 0 1 2.38 2.38v4.46H97.86v-4.46a2.38 2.38 0 0 1 2.38-2.38z" transform="rotate(4.96 103.437 30.218)" fill="#1caff5"/><path d="M128.44 46.86v15.32a1.64 1.64 0 0 1-.05.45h-6.09l-4.44-2.33a34.8 34.8 0 0 0-32.43.06l-4.3 2.27h-6a2.42 2.42 0 0 1 0-.47v-15.3a7.3 7.3 0 0 1 3.64-6.3L94 31.74a15.5 15.5 0 0 1 15.53 0l15.28 8.82a7.26 7.26 0 0 1 3.63 6.3z" fill="#1898d5"/><path class="cls-3" d="M71.48 63.52a5.44 5.44 0 0 1-4.6-2.52c-3.49-5.56 3.23-9.73 16.83-9.73h6.23c13.54.24 29.11 4.46 37.6 10 1.22.8 1.27 2.25.09 2.25z"/><circle class="cls-15" cx="114.91" cy="82.11" r="1.37"/><circle class="cls-15" cx="117.08" cy="85.22" r="1.37"/><circle class="cls-15" cx="113.06" cy="85.22" r="1.37"/><circle class="cls-15" cx="82.63" cy="82.11" r="1.37"/><circle class="cls-15" cx="84.8" cy="85.22" r="1.37"/><circle class="cls-15" cx="80.78" cy="85.22" r="1.37"/><rect class="cls-12" x="99.75" y="65.32" width="15.96" height="5.05" rx="2.52" ry="2.52"/><path class="cls-16" d="M39.07 68.54h.69a11.79 11.79 0 0 1 11.78 11.78v24.8a2.82 2.82 0 0 1-2.82 2.82h-9.65a2.82 2.82 0 0 1-2.82-2.82V71.36a2.82 2.82 0 0 1 2.82-2.82z" transform="rotate(90 43.895 88.245)"/><rect class="cls-16" x="18.42" y="88.08" width="6.58" height="15.3" rx="3.29" ry="3.29" transform="rotate(44.55 21.706 95.723)"/><rect class="cls-16" x="17.99" y="77.45" width="6.58" height="19.49" rx="3.29" ry="3.29" transform="rotate(59.38 21.276 87.188)"/><rect class="cls-16" x="26.73" y="86.29" width="6.58" height="19.49" rx="3.29" ry="3.29" transform="rotate(-150.29 30.02 96.033)"/><path class="cls-17" d="M21.24 42.45a21.23 21.23 0 1 1 21.22-21.23 21.25 21.25 0 0 1-21.22 21.23z"/><circle cx="23.38" cy="29.73" r="18.17" fill="#7af0f2"/><circle class="cls-16" cx="47.69" cy="56.79" r="8.03"/><circle class="cls-17" cx="27.33" cy="42.84" r="26.13"/><path class="cls-16" d="M50.11 47.07v12a19.64 19.64 0 0 1-19.64 19.65h-3.12A19.65 19.65 0 0 1 7.7 59.07v-12a20.83 20.83 0 0 1 1.72-8.33 18.71 18.71 0 0 1 1.07-2.15A21.21 21.21 0 0 1 43 31.19l.28.25.66.64a22.36 22.36 0 0 1 1.91 2.19 20 20 0 0 1 1.32 2 20.94 20.94 0 0 1 2.94 10.8z"/><rect class="cls-19" x="29.37" y="52.17" width="5.81" height="12.56" rx="1.91" ry="1.91"/><path class="cls-17" d="M47.13 36.25a10.7 10.7 0 0 0-9.56.35l-.47.25a10.81 10.81 0 0 1-10.31 0l-.19-.1a10.82 10.82 0 0 0-16 9.5v4.24S6.89 39.62 12.15 32c2.82-4.07 14-7.2 16.76-7.2s8.43.72 12.33 3.56c3.7 2.73 5.7 7.56 5.89 7.89z"/><rect class="cls-9" x="16.73" y="45.87" width="11.84" height="16.38" rx="5.92" ry="5.92"/><rect class="cls-20" x="23.14" y="51.65" width="5.08" height="8.3" rx="2.54" ry="2.54"/><rect class="cls-9" x="35.63" y="45.87" width="11.84" height="16.38" rx="5.92" ry="5.92"/><rect class="cls-20" x="42.04" y="51.65" width="5.08" height="8.3" rx="2.54" ry="2.54"/><circle class="cls-19" cx="22.52" cy="65.42" r=".87"/><circle class="cls-19" cx="18.92" cy="64.55" r=".87"/><circle class="cls-19" cx="20.26" cy="67.21" r=".87"/><circle class="cls-19" cx="40.2" cy="65.42" r=".87"/><circle class="cls-19" cx="43.8" cy="64.55" r=".87"/><circle class="cls-19" cx="42.46" cy="67.21" r=".87"/><path d="M31.77 70.79A6 6 0 0 1 26 66.54a.87.87 0 1 1 1.67-.54 4.27 4.27 0 0 0 4.1 3 4.32 4.32 0 0 0 4.13-3 .88.88 0 1 1 1.68.49 6.09 6.09 0 0 1-5.81 4.3z" fill="#b8725e"/><circle class="cls-9" cx="35.68" cy="14.85" r="4.67"/><circle cx="27.46" cy="15.66" r="4.67" fill="#1db0f6"/><path class="cls-17" d="M7 33.33h3.6v22.28a3.6 3.6 0 0 1-3.6 3.6V33.33z"/><path class="cls-16" d="M8.55 48.55v15.79a8 8 0 0 1 0-15.79z"/></svg>