<svg viewBox="0 0 135 124" version="1.1" xmlns="http://www.w3.org/2000/svg"><g stroke="none" stroke-width="1" fill="none" fill-rule="evenodd"><path d="M28 11h79c9.389 0 17 7.611 17 17v79c0 9.389-7.611 17-17 17H28c-9.389 0-17-7.611-17-17V28c0-9.389 7.611-17 17-17z" fill="#B2B2B2"/><g><g><g><g transform="translate(-1.92 1)"><path d="M32.492 31.158L10.508 43.851c-1.104.637-1.461 2.084-.798 3.232 4.307 7.461 13.616 10.152 20.79 6.01 7.174-4.142 9.498-13.549 5.19-21.01-.662-1.148-2.094-1.562-3.198-.925zM104.999 31.158l21.983 12.693c1.104.637 1.462 2.084.799 3.232-4.308 7.461-13.616 10.152-20.79 6.01-7.175-4.142-9.499-13.549-5.191-21.01.663-1.148 2.095-1.562 3.199-.925z" fill="#CBCBCB" fill-rule="nonzero"/><path d="M113 .5a4.5 4.5 0 0 1 4.495 4.288L117.5 5v11.299c0 2.359-.442 4.615-1.246 6.69a8.001 8.001 0 0 0 8.188-3.652l.136-.227 2.308-3.997a4 4 0 0 1 7.03 3.813l-.102.187-2.308 3.997c-4.061 7.035-12.658 9.819-19.965 6.79a18.435 18.435 0 0 1-12.205 4.896l-.336.003h-4a4.5 4.5 0 0 1-.212-8.995l.212-.005h4a9.5 9.5 0 0 0 9.496-9.23l.004-.27V5A4.5 4.5 0 0 1 113 .5zM25 .5a4.5 4.5 0 0 1 4.495 4.288L29.5 5v11.299l.004.27a9.5 9.5 0 0 0 9.226 9.226l.27.004h4l.212.005a4.5 4.5 0 0 1 0 8.99l-.212.005h-4l-.336-.003a18.427 18.427 0 0 1-11.905-4.626c-7.045 2.54-15.097-.168-19.093-6.768l-.172-.292-2.308-3.997a4 4 0 0 1 6.817-4.181l.111.181 2.308 3.997a8 8 0 0 0 7.368 3.99 18.442 18.442 0 0 1-1.283-6.288l-.007-.513V5l.005-.212A4.5 4.5 0 0 1 25 .5z" fill="#E5E5E5" fill-rule="nonzero"/><rect fill="#CBCBCB" x="39" y="34" width="60" height="80" rx="15"/><rect fill="#B2B2B2" x="46" y="56" width="46" height="48" rx="10"/><rect fill="#FFF" x="50" y="91" width="7" height="11" rx="3.5"/><rect fill="#FFF" x="81" y="91" width="7" height="11" rx="3.5"/><path d="M62 66h13v43.783a1 1 0 0 1-1.824.567l-3.852-5.598a1 1 0 0 0-1.648 0l-3.852 5.598a1 1 0 0 1-1.824-.567V66z" fill="#FFF"/><path d="M51.766 16h33.902a23 23 0 0 1 22.006 16.312l3.982 13.104c2.89 9.511-2.477 19.565-11.988 22.456a18 18 0 0 1-5.234.777H43c-9.941 0-18-8.058-18-18a18 18 0 0 1 .778-5.233l3.982-13.104A23 23 0 0 1 51.766 16z" fill="#D9D9D9" fill-rule="nonzero"/><rect fill="#B2B2B2" transform="rotate(90 65.5 30.799)" x="59" y="28.299" width="13" height="5" rx="2.5"/><rect fill="#B2B2B2" transform="rotate(90 73.5 32.299)" x="68.5" y="29.799" width="10" height="5" rx="2.5"/><rect fill="#D9D9D9" x="42" y="42" width="54" height="47" rx="11"/><rect fill="#B2B2B2" x="57" y="56" width="24" height="5" rx="2.5"/><rect fill="#B2B2B2" x="57" y="65" width="24" height="5" rx="2.5"/><rect fill="#B2B2B2" transform="rotate(-60 54 75.799)" x="52" y="68.299" width="4" height="15" rx="2"/><rect fill="#B2B2B2" transform="scale(-1 1) rotate(-60 0 223.023)" x="83" y="68.299" width="4" height="15" rx="2"/><path d="M95.45 29.595l-22.9 13.221c-1.09.63-1.457 2.035-.82 3.138 4.334 7.506 13.856 10.12 21.27 5.84 7.414-4.28 9.91-13.834 5.577-21.34-.637-1.103-2.037-1.488-3.128-.859zM41.55 29.595l22.9 13.221c1.09.63 1.457 2.035.82 3.138-4.334 7.506-13.856 10.12-21.27 5.84-7.414-4.28-9.91-13.834-5.577-21.34.637-1.103 2.037-1.488 3.128-.859z" fill="#FFF" fill-rule="nonzero"/><path d="M50.617 34.753l7 4.041v9.108a3.5 3.5 0 0 1-7 0V34.753zM86.617 34.664v13.238a3.5 3.5 0 0 1-7 0v-9.196l7-4.042z" fill="#B2B2B2" fill-rule="nonzero"/><path d="M111.818 82.4a11.293 11.293 0 0 1 4.097 6.532l10.213-5.66a1 1 0 0 1 1.36.39c5.086 9.177 1.77 20.741-7.407 25.828-9.178 5.088-20.742 1.772-25.83-7.406a1 1 0 0 1 .39-1.36l3.7-2.05 12.631-16.167a.603.603 0 0 1 .846-.108z" fill="#E5E5E5" fill-rule="nonzero"/><path d="M110.086 106.373c-4.467 2.18-9.767.505-11.837-3.74a.462.462 0 0 1 .229-.611l15.327-7.476a.462.462 0 0 1 .623.197c2.07 4.244.126 9.451-4.342 11.63z" fill="#FFF" fill-rule="nonzero"/><path d="M25.48 82.4a11.293 11.293 0 0 0-4.097 6.532l-10.213-5.66a1 1 0 0 0-1.36.39c-5.087 9.177-1.77 20.741 7.407 25.828 9.178 5.088 20.742 1.772 25.829-7.406a1 1 0 0 0-.39-1.36l-3.699-2.05-12.632-16.167a.603.603 0 0 0-.845-.108z" fill="#E5E5E5" fill-rule="nonzero"/><path d="M26.963 106.373c4.468 2.18 9.767.505 11.837-3.74a.462.462 0 0 0-.228-.611l-15.327-7.476a.462.462 0 0 0-.623.197c-2.07 4.244-.126 9.451 4.341 11.63z" fill="#FFF" fill-rule="nonzero"/></g></g></g></g></g></svg>