<svg viewBox="0 0 135 124" fill="none" xmlns="http://www.w3.org/2000/svg"><g clip-path="url(#clip0)"><path d="M107 11.033H28c-9.389 0-17 7.612-17 17v79c0 9.389 7.611 17 17 17h79c9.389 0 17-7.611 17-17v-79c0-9.389-7.611-17-17-17z" fill="#E5E5E5"/><path fill-rule="evenodd" clip-rule="evenodd" d="M67.754 2c20.384 0 36.908 16.524 36.908 36.907v3.972c0 20.383-16.524 36.907-36.908 36.907-20.383 0-36.907-16.524-36.907-36.907v-3.972C30.847 18.524 47.371 2 67.754 2z" fill="#BFBFBF"/><mask id="a" mask-type="alpha" maskUnits="userSpaceOnUse" x="30" y="2" width="75" height="78"><path fill-rule="evenodd" clip-rule="evenodd" d="M67.754 2c20.384 0 36.908 16.524 36.908 36.907v3.972c0 20.383-16.524 36.907-36.908 36.907-20.383 0-36.907-16.524-36.907-36.907v-3.972C30.847 18.524 47.371 2 67.754 2z" fill="#fff"/></mask><path fill-rule="evenodd" clip-rule="evenodd" d="M67.804 10.424c16.224 0 29.377 13.152 29.377 29.377 0 16.224-13.153 29.376-29.377 29.376-16.224 0-29.377-13.152-29.377-29.376 0-16.225 13.153-29.377 29.377-29.377z" fill="#D1D1D1"/><mask id="b" mask-type="alpha" maskUnits="userSpaceOnUse" x="38" y="10" width="60" height="60"><path fill-rule="evenodd" clip-rule="evenodd" d="M67.804 10.424c16.224 0 29.377 13.152 29.377 29.377 0 16.224-13.153 29.376-29.377 29.376-16.224 0-29.377-13.152-29.377-29.376 0-16.225 13.153-29.377 29.377-29.377z" fill="#fff"/></mask><g mask="url(#b)"><path d="M69.942 35.953a6.734 6.734 0 0 0 1.18 9.454 6.74 6.74 0 0 0 6.57.967l-.01.03.179-.099a6.65 6.65 0 0 0 1.258-.69l1.108-.595a93.015 93.015 0 0 1 2.99-1.524c.477-.163.93-.379 1.351-.64.16-.082.287-.168.384-.256a6.736 6.736 0 0 0-3.971-12.21c-4.424.029-8.27 2.007-11.039 5.563z" fill="#fff"/><path fill-rule="evenodd" clip-rule="evenodd" d="M75.781 33.776c2.468 0 4.469 2.001 4.469 4.47v2.15a4.469 4.469 0 1 1-8.938 0v-2.15c0-.088.003-.175.008-.26a2.71 2.71 0 0 0 2.977-2.697c0-.415-.093-.808-.258-1.159a4.433 4.433 0 0 1 1.742-.354z" fill="#B2B2B2"/><path d="M66.162 35.953a6.734 6.734 0 0 1-1.179 9.454 6.74 6.74 0 0 1-6.571.967l.01.03-.178-.099a6.65 6.65 0 0 1-1.259-.69l-1.108-.595a93.015 93.015 0 0 0-2.99-1.524 6.636 6.636 0 0 1-1.351-.64 1.791 1.791 0 0 1-.384-.256 6.736 6.736 0 0 1 3.971-12.21c4.424.029 8.27 2.007 11.039 5.563z" fill="#fff"/><path fill-rule="evenodd" clip-rule="evenodd" d="M60.555 33.776a4.469 4.469 0 0 1 4.464 4.259l.004.21v2.152a4.469 4.469 0 0 1-8.932.21l-.005-.21v-2.152c0-.222.016-.44.048-.654.414.26.903.41 1.427.41a2.71 2.71 0 0 0 2.706-2.713c0-.536-.155-1.035-.422-1.455.23-.037.468-.056.71-.056zM89.872 10.772c-4.286 0-15.442 23.263-45.836 22.227-2.177-.075-5.09-1.136-5.94-1.832-3.31-2.709 3.908-1.844 4.051-10.528.072-4.364 3.01-9.867 3.01-9.867s16.645-4.965 22.947-4.965c16.582 0 23.838 4.965 21.768 4.965z" fill="#B2B2B2"/><path d="M45.534 45.189l-.533-5.103.365-.032c.854-.065 2.102-.084 3.64.015 2.943.19 5.931.776 8.803 1.885 4.056 1.566 7.53 4.049 10.157 7.59l.288.398-4.187 2.965c-2.04-2.88-4.795-4.889-8.106-6.167-2.344-.905-4.83-1.392-7.286-1.55-.86-.056-1.65-.067-2.35-.045l-.558.025-.233.019zM91.316 45.189l.534-5.103-.366-.032c-.854-.065-2.102-.084-3.64.015-2.943.19-5.93.776-8.802 1.885-4.057 1.566-7.53 4.049-10.157 7.59l-.289.398 4.187 2.965c2.04-2.88 4.795-4.889 8.106-6.167 2.344-.905 4.83-1.392 7.286-1.55.86-.056 1.65-.067 2.35-.045l.558.025.233.019z" fill="#D1D1D1"/><path fill-rule="evenodd" clip-rule="evenodd" d="M68.002 51.32c1.554 0 2.814-1.245 2.814-2.78 0-1.534-2.814-5.164-2.814-5.164l-.245.325c-.685.925-2.568 3.584-2.568 4.84 0 1.535 1.26 2.779 2.814 2.779z" fill="#B2B2B2"/><path d="M71.483 51.908a1.001 1.001 0 0 1 1.645 1.14c-3.465 4.997-7.224 4.997-10.285-.05a1.001 1.001 0 1 1 1.713-1.039c2.291 3.78 4.27 3.78 6.927-.051z" fill="#9E4D31"/></g><path fill-rule="evenodd" clip-rule="evenodd" d="M36.81 21.726c6.237 1.507 9.032-1.873 11.907-4.215 2.875-2.34 6.873 4.215 6.873 4.215l-7.52 5.596L37.74 25.37s-7.166-5.152-.93-3.644z" fill="#B2B2B2"/><path d="M33.748 20.906l18.155 4.68a1.47 1.47 0 0 1 .851 2.217c-2.598 4.012-7.555 5.931-12.292 4.656-4.737-1.276-8.075-5.428-8.328-10.208-.053-.995.653-1.603 1.614-1.345zM20 59a8 8 0 0 1 8-8h79a8 8 0 0 1 8 8v49a8 8 0 0 1-8 8H28a8 8 0 0 1-8-8V59z" fill="#B2B2B2"/><path d="M20 59a8 8 0 0 1 8-8h31a8 8 0 0 1 8 8v57H28a8 8 0 0 1-8-8V59z" fill="#BFBFBF"/><path d="M46 50a2 2 0 0 1 2 2v64H38V52a2 2 0 0 1 2-2h6z" fill="#B2B2B2"/><path d="M93 52a2 2 0 0 1 2 2v62H85V54a2 2 0 0 1 2-2h6z" fill="#BFBFBF"/><path d="M98 91c0-6.075 4.925-11 11-11h5.261c3.17 0 5.739 2.57 5.739 5.74v10.52c0 3.17-2.569 5.74-5.739 5.74H109c-6.075 0-11-4.925-11-11zM37 91c0-6.075-4.924-11-11-11h-5.26A5.74 5.74 0 0 0 15 85.74v10.52a5.74 5.74 0 0 0 5.74 5.74H26c6.076 0 11-4.925 11-11z" fill="#D1D1D1"/><rect x="15.001" y="48" width="105" height="14" rx="2" fill="#B2B2B2"/><rect x="15.001" y="48" width="57" height="14" rx="2" fill="#D1D1D1"/><path d="M46 48v14H35V48h11z" fill="#E5E5E5"/><path d="M98 48v14H87V48h11z" fill="#D1D1D1"/><circle cx="52.001" cy="72" r="3" fill="#ADE756"/><path d="M111.063 17.535c.322-.871 1.553-.871 1.875 0l1.334 3.603c.101.274.317.49.591.59l3.603 1.334c.871.322.871 1.554 0 1.876l-3.603 1.333a.999.999 0 0 0-.591.591l-1.334 3.604c-.322.87-1.553.87-1.875 0l-1.334-3.604a.999.999 0 0 0-.591-.59l-3.603-1.334c-.871-.322-.871-1.554 0-1.876l3.603-1.333a.999.999 0 0 0 .591-.591l1.334-3.604zM21.063 28.535c.322-.871 1.553-.871 1.875 0l.794 2.143a1 1 0 0 0 .59.59l2.144.794c.87.322.87 1.554 0 1.876l-2.144.793a1 1 0 0 0-.59.59l-.794 2.145c-.322.87-1.553.87-1.875 0l-.794-2.144a1 1 0 0 0-.59-.59l-2.144-.794c-.87-.322-.87-1.554 0-1.876l2.144-.793a1 1 0 0 0 .59-.59l.794-2.144zM113.063 36.535c.322-.871 1.553-.871 1.875 0l.523 1.413c.102.274.318.49.591.591l1.414.523c.871.322.871 1.554 0 1.876l-1.414.523a1.004 1.004 0 0 0-.591.59l-.523 1.414c-.322.871-1.553.871-1.875 0l-.523-1.413a1.004 1.004 0 0 0-.591-.591l-1.414-.523c-.871-.322-.871-1.554 0-1.876l1.414-.523c.273-.101.489-.317.591-.59l.523-1.414z" fill="#fff"/><path fill="#B2B2B2" d="M20 62h47v4.25H20z"/><path fill="#B2B2B2" d="M38.001 62h10v4.25h-10z"/><path d="M41 75.415a2 2 0 0 1 .693-1.513l9-7.773a2 2 0 0 1 2.615 0l9 7.773A2 2 0 0 1 63 75.415V101a2 2 0 0 1-2 2H43a2 2 0 0 1-2-2V75.415z" fill="#fff"/><path d="M52 70V48" stroke="#E5E5E5" stroke-width="2" stroke-linecap="round" stroke-linejoin="round"/></g><defs><clipPath id="clip0"><path fill="#fff" d="M0 0h135v124H0z"/></clipPath></defs></svg>