<svg viewBox="0 0 135 124" fill="none" xmlns="http://www.w3.org/2000/svg"><path d="M11 28c0-9.389 7.611-17 17-17h79c9.389 0 17 7.611 17 17v79c0 9.389-7.611 17-17 17H28c-9.389 0-17-7.611-17-17V28z" fill="#E5E5E5"/><path d="M5.855 51.845C.29 31.133 12.57 9.831 33.282 4.266c20.713-5.565 42.015 6.715 47.58 27.428l1.084 4.036c5.564 20.713-6.715 42.015-27.428 47.58C33.806 88.873 12.504 76.593 6.94 55.88l-1.084-4.036z" fill="#D1D1D1"/><path d="M36.606 83.849a38.847 38.847 0 0 1-6.714-2.037c.233-.198.518-.34.84-.4 14.616-2.786 24.028-8.458 30.09-14.95 6.071-6.503 8.899-13.957 10.124-20.485a1.828 1.828 0 0 1 3.594.674c-1.32 7.03-4.388 15.176-11.046 22.307-5.881 6.3-14.472 11.707-26.888 14.89z" fill="#BFBFBF"/><path fill-rule="evenodd" clip-rule="evenodd" d="M13.8 50.683c-4.428-16.486 5.346-33.442 21.833-37.87 16.486-4.43 33.441 5.344 37.87 21.83 4.43 16.487-5.344 33.443-21.83 37.872C35.185 76.945 18.23 67.17 13.8 50.683z" fill="#A6A6A6"/><path d="M3.875 32.766l19.727-.2a1.546 1.546 0 0 1 1.47 2.018c-1.545 4.787-6.058 8.09-11.22 8.088-5.162-.003-9.687-3.311-11.25-8.1-.325-.996.226-1.807 1.273-1.806z" fill="#959595"/><path fill-rule="evenodd" clip-rule="evenodd" d="M7.168 32.724c6.753-.17 8.671-4.373 10.954-7.54 2.283-3.168 8.14 2.41 8.14 2.41l-6.117 7.748-11.035.836s-8.695-3.285-1.942-3.454zM46.98 54.434c1.556-.418 2.476-2.03 2.055-3.599-.422-1.569-4.237-4.523-4.237-4.523s-1.82 4.468-1.399 6.037c.422 1.57 2.025 2.503 3.581 2.085z" fill="#959595"/><path d="M41.08 55.904a5.678 5.678 0 0 0-5.678 5.678c0 3.029 2.158 9.086 10.79 9.086 8.63 0 10.788-6.057 10.788-9.086a5.678 5.678 0 0 0-8.41-4.979c-1.246.685-3.511.685-4.757 0a5.653 5.653 0 0 0-2.732-.7z" fill="#959595"/><path d="M53.523 68.498a9.604 9.604 0 0 0-7.331-3.388 9.604 9.604 0 0 0-7.33 3.388c1.65 1.274 4.011 2.17 7.33 2.17 3.32 0 5.68-.896 7.33-2.17z" fill="#BFBFBF"/><path opacity=".5" fill-rule="evenodd" clip-rule="evenodd" d="M114.03 36.46l1.384-6.608-10.718-2.312-2.285 10.905-.031-.007a5.335 5.335 0 0 1-.089.58c-.597 2.854-3.355 4.676-6.16 4.071-2.803-.605-4.592-3.408-3.994-6.26.597-2.853 3.355-4.676 6.159-4.07a5.125 5.125 0 0 1 1.63.658l2.587-12.346a1.157 1.157 0 0 1 1.371-.905l15.228 3.285c.624.134 1.022.758.889 1.392l-3.486 16.644-.031-.007a5.593 5.593 0 0 1-.089.58c-.598 2.854-3.355 4.676-6.159 4.071-2.805-.605-4.593-3.408-3.996-6.26.598-2.853 3.355-4.676 6.16-4.07a5.122 5.122 0 0 1 1.63.658zM68.741 104.992l1.127-5.38-8.728-1.882-1.86 8.879-.025-.005c-.015.157-.04.314-.073.472-.486 2.323-2.732 3.807-5.015 3.315-2.283-.493-3.74-2.775-3.253-5.098.487-2.323 2.732-3.807 5.015-3.314.483.104.93.288 1.328.536l2.106-10.052a.942.942 0 0 1 1.116-.737l12.4 2.674c.508.11.832.617.724 1.134l-2.839 13.552-.025-.005c-.015.157-.04.314-.073.472-.486 2.323-2.731 3.807-5.015 3.315-2.283-.493-3.74-2.775-3.253-5.098.487-2.323 2.732-3.807 5.015-3.314.484.104.93.288 1.328.536zM35.41 106.016l-4.938-12.963c-.269-.703.07-1.494.753-1.766l8.035-3.193c.685-.272 1.457.078 1.725.781l1.696 4.452c.268.704-.07 1.494-.754 1.766l-5.564 2.212 4.606 12.09-.01.003c.047.103.09.208.131.315 1.138 2.987-.293 6.344-3.196 7.498-2.903 1.153-6.18-.333-7.317-3.32-1.138-2.987.293-6.344 3.196-7.498.47-.187.951-.305 1.431-.358l.206-.019z" fill="#fff"/><path d="M67.082 62.37c-1.065-3.543 1.41-7.166 5.099-7.463l4.273-.343a39.703 39.703 0 0 0 13.852-3.712l3.872-1.84c3.343-1.587 7.298.313 8.148 3.915l4.754 20.15a12.91 12.91 0 0 1-.733 8.133c-4.865 11.145-18.821 14.884-28.606 7.665a12.916 12.916 0 0 1-4.702-6.677l-5.957-19.827z" fill="#fff"/><path d="M91.402 82.633c5.295-1.418 8.667-6.43 8.198-11.708-.095-1.065-1.176-1.68-2.209-1.404l-17.732 4.751c-1.033.277-1.661 1.35-1.21 2.32 2.232 4.807 7.659 7.46 12.953 6.041zM78.093 64.212a5.567 5.567 0 0 0-2.052 5.946c.265.967 1.483.962 2.04.129l.218-.326a9.983 9.983 0 0 1 5.715-4.094c.895-.24 1.244-1.31.472-1.822a5.567 5.567 0 0 0-6.393.167zM93.715 60.026a5.567 5.567 0 0 1 4.75 4.123c.254.97-.803 1.575-1.703 1.132l-.35-.173a9.983 9.983 0 0 0-6.997-.688c-.895.24-1.733-.513-1.32-1.342a5.567 5.567 0 0 1 5.62-3.052z" fill="#959595"/><path d="M94.377 77.18c.778-3.618 4.695-5.596 8.068-4.075l3.909 1.762a39.698 39.698 0 0 0 13.922 3.436l4.279.259c3.694.223 6.241 3.796 5.247 7.36l-5.563 19.943a12.92 12.92 0 0 1-4.569 6.768c-9.64 7.412-23.668 3.95-28.752-7.096a12.916 12.916 0 0 1-.895-8.117l4.354-20.24z" fill="#D1D1D1"/><path d="M109.059 93.83c-5.322-1.313-10.695 1.448-12.832 6.297-.431.979.218 2.04 1.257 2.296l17.823 4.398c1.038.257 2.107-.38 2.18-1.447.365-5.287-3.107-10.23-8.428-11.543zM105.362 90.195a5.433 5.433 0 0 0 3.908-4.811c.08-1.067-1.033-1.675-2.061-1.378l-6.714 1.943c-1.027.297-1.644 1.406-1.006 2.265a5.434 5.434 0 0 0 5.873 1.98zM114.024 92.333a5.435 5.435 0 0 0 6.121.979c.964-.464.934-1.733.163-2.474l-5.04-4.843c-.771-.741-2.04-.72-2.465.26a5.434 5.434 0 0 0 1.221 6.078z" fill="#959595"/><path d="M42.923 48.184c-4.844-2.28-9.907-2.14-13.884-1.355a32.199 32.199 0 0 0-4.422 1.213A7.088 7.088 0 0 1 28.2 36.56c4.503-1.177 8.952-.217 12.736 2.64a7.087 7.087 0 0 1 1.988 8.984z" fill="#fff"/><path d="M40.993 39.14c2.803 2.143 3.65 5.743 1.893 8.04-.197.258-.419.489-.661.692-2.972-1.254-6.002-1.636-8.792-1.55a7.02 7.02 0 0 1-1.226-2.064 2.85 2.85 0 0 0 2.67-3.593 2.852 2.852 0 0 0-1.572-1.858c1.903-1.69 5.16-1.602 7.688.333z" fill="#959595"/><path d="M48.649 47.494c2.835-4.585 6.893-7.5 10.427-9.306a33.287 33.287 0 0 1 4.373-1.847 7.088 7.088 0 0 0-8.977-6.84c-4.486 1.238-7.855 4.299-9.697 8.668a7.085 7.085 0 0 0 3.874 9.325z" fill="#fff"/><path d="M56.212 39.853c.97-.639 1.935-1.19 2.864-1.665a33.337 33.337 0 0 1 4.636-1.936c.201-2.069-.929-4.376-3.073-5.84-2.914-1.988-6.598-1.665-8.229.724-.27.395-.466.822-.593 1.268a2.854 2.854 0 0 1 2.738 2.116 2.854 2.854 0 0 1-1.316 3.207c.422.492.923.944 1.497 1.335a7.73 7.73 0 0 0 1.476.79zM53.635 13.406c-4.866 8.64-13.782 23.673-35.991 28.835-1.502.35-3.464.335-4.908.144.114-13.538 9.184-25.889 22.897-29.573a30.766 30.766 0 0 1 18.002.595z" fill="#959595"/></svg>