<svg viewBox="0 0 135 125" fill="none" xmlns="http://www.w3.org/2000/svg"><rect x="11.117" y="12" width="113" height="113" rx="17" fill="#1CB0F6"/><path d="M36.526 31.36c-.242 8.68 6.533 15.973 15.238 16.342 8.782.371 16.203-6.447 16.574-15.23.372-8.782-6.447-16.203-15.229-16.574a15.864 15.864 0 0 0-6.34 1.024l-.073-.044a6.734 6.734 0 0 1-8.48-4.276c-2.494-5.039-7.587-8.598-13.6-8.852-8.783-.372-16.203 6.447-16.575 15.229-.046 1.1.02 2.178.188 3.223a15.866 15.866 0 0 0-5.096 11.014C2.76 41.998 9.579 49.42 18.362 49.791c8.782.371 16.203-6.447 16.574-15.23.047-1.1-.02-2.177-.188-3.223.206-.19.407-.387.603-.588l1.175.61z" fill="#3D3D3D"/><path fill-rule="evenodd" clip-rule="evenodd" d="M21.833 47.806a.65.65 0 0 1 .9.19c1.228 1.892 5.461 5.227 12.321 2.314a.65.65 0 0 1 .508 1.196c-7.508 3.189-12.388-.445-13.92-2.801a.65.65 0 0 1 .191-.9zM52.167 48.096a.65.65 0 0 0-.915.088c-1.435 1.739-6.02 4.572-12.504.899a.65.65 0 1 0-.641 1.13c7.097 4.021 12.359.965 14.148-1.202a.65.65 0 0 0-.088-.915z" fill="#AA5F45"/><path d="M8.91 47.703a29.128 29.128 0 0 0-.417 7.078l.882 14.11a7 7 0 0 0 7.424 6.55l44.109-2.758a6.933 6.933 0 0 0 6.486-7.352l-.886-14.177a29.1 29.1 0 0 0-1.515-7.637 7.109 7.109 0 0 1-8.572-6.51l-.338-5.4c-.02-.332-.018-.66.006-.982a28.964 28.964 0 0 0-20.402-6.665 28.96 28.96 0 0 0-19.123 8.848c.015.127.027.255.035.385l.44 7.032a7.109 7.109 0 0 1-8.129 7.478z" fill="#DA8E74"/><circle cx="7.541" cy="46.617" r="4.844" transform="rotate(-3.578 7.541 46.617)" fill="#DA8E74"/><circle cx="66.311" cy="42.942" r="4.844" transform="rotate(-3.578 66.31 42.942)" fill="#DA8E74"/><path d="M23.713 42.15l.214 3.433a5.932 5.932 0 0 0 11.842-.74l-.215-3.433-11.841.74zM37.902 41.263l.215 3.432a5.932 5.932 0 0 0 11.841-.74l-.215-3.432-11.841.74z" fill="#fff"/><path d="M47.612 35.84a3.019 3.019 0 1 1 2.585 5.457l-4.801 2.275.04.656a2.663 2.663 0 0 1-4.879 1.636l-1.378.653c-.42.2-.864.293-1.3.291a3.012 3.012 0 0 1-2.411.256l-1.73-.549a2.663 2.663 0 0 1-4.915-1.248l-.02-.319-5.298-1.682a3.02 3.02 0 0 1 1.828-5.756l11.23 3.566.03-.016 11.02-5.22z" fill="#3D3D3D"/><path d="M29.993 48.027a7.797 7.797 0 0 1 7.667.828 7.797 7.797 0 0 1 7.657.932l5.457 4.046a7.8 7.8 0 0 1-9.291 12.533l-1.384-1.026c-2.23-1.457-4.772-2.336-8.15-1.156l-1.982.86A7.8 7.8 0 1 1 23.76 50.73l6.234-2.703z" fill="#3D3D3D"/><circle cx="37.321" cy="50.079" r="3.649" transform="rotate(-3.578 37.32 50.079)" fill="#DA8E74"/><ellipse cx="91.746" cy="43.394" rx="11.131" ry="11.067" transform="rotate(3.162 91.746 43.394)" fill="#3D3D3D"/><path fill-rule="evenodd" clip-rule="evenodd" d="M53.532 78.03c.7-12.677 11.545-22.386 24.222-21.686l26.485 1.464c12.678.7 22.387 11.545 21.686 24.222-.7 12.677-11.544 22.386-24.222 21.686l-26.485-1.463c-12.677-.701-22.387-11.545-21.686-24.222z" fill="#3D3D3D"/><path d="M63.738 81.634c-1.718 3.401-2.816 7.125-3.04 11.173l-.167 3.043a22.95 22.95 0 0 1-6.974-14.857l10.181.64zM115.785 84.509c1.333 3.57 1.986 7.39 1.763 11.439l-.15 2.713a22.941 22.941 0 0 0 8.176-13.69l-9.789-.462z" fill="#D8D8D8"/><path d="M63.66 81.63a28.372 28.372 0 0 0-2.962 11.177l-.789 14.282a7 7 0 0 0 6.604 7.375l42.87 2.368a7.001 7.001 0 0 0 7.376-6.603l.788-14.281c.222-4.018-.4-7.887-1.712-11.435l-4.575-.253a6 6 0 0 1-5.66-6.322l.347-6.287.007-.114-31.09-1.717c.017.248.02.5.005.755l-.312 5.649a6 6 0 0 1-6.322 5.66l-4.575-.253z" fill="#FFCBA3"/><path fill-rule="evenodd" clip-rule="evenodd" d="M95.97 97.168a.821.821 0 0 1-.368 1.101c-4.711 2.351-8.628 1.45-11.341-.057a14.336 14.336 0 0 1-3.907-3.216 9.127 9.127 0 0 1-.272-.34l-.017-.022-.005-.007-.002-.002v-.001l.664-.483-.665.482a.821.821 0 0 1 1.329-.965v.001l.01.011.04.054a11.552 11.552 0 0 0 .887.986 12.69 12.69 0 0 0 2.735 2.066c2.33 1.294 5.67 2.09 9.81.024a.821.821 0 0 1 1.102.368z" fill="#E89665"/><path fill-rule="evenodd" clip-rule="evenodd" d="M83.21 104.794a.632.632 0 0 1 .882-.143l-.37.513.37-.513c-.001-.001 0 0 0 0l.006.004.032.022.137.09a9.947 9.947 0 0 0 2.552 1.102c1.664.452 3.878.571 6.175-.726a.632.632 0 1 1 .62 1.1c-2.663 1.504-5.24 1.358-7.126.845a11.22 11.22 0 0 1-2.26-.889 9.386 9.386 0 0 1-.854-.508l-.013-.01-.005-.003-.001-.001-.001-.001.369-.512-.37.512a.632.632 0 0 1-.143-.882z" fill="#F7B286"/><path opacity=".626" fill-rule="evenodd" clip-rule="evenodd" d="M109.607 85.591a.632.632 0 0 1-.385.806L105.9 87.57l3.18 1.63a.631.631 0 1 1-.576 1.124l-4.486-2.298a.632.632 0 0 1 .078-1.158l4.705-1.662a.632.632 0 0 1 .806.385zM69.477 83.374a.631.631 0 0 0 .294.844l3.172 1.532-3.34 1.269a.632.632 0 1 0 .449 1.18l4.711-1.79a.631.631 0 0 0 .05-1.159l-4.492-2.17a.632.632 0 0 0-.844.294z" fill="#F3A577"/><path fill-rule="evenodd" clip-rule="evenodd" d="M92.512 74.87l-.02-1.265a1.265 1.265 0 0 0 .039 2.53h.043a16.112 16.112 0 0 1 .798.027c.552.033 1.336.103 2.248.254 1.839.305 4.12.926 6.074 2.163a1.266 1.266 0 0 0 1.353-2.138c-2.351-1.488-5-2.187-7.014-2.52a24.224 24.224 0 0 0-2.512-.284 18.53 18.53 0 0 0-.945-.032h-.082s-.002 0 .018 1.265zM87.596 77.438l.158-1.255a1.265 1.265 0 0 1-.316 2.51h-.007l-.036-.005a15.898 15.898 0 0 0-.797-.06 21.703 21.703 0 0 0-2.261.004c-1.862.1-4.197.466-6.276 1.48a1.265 1.265 0 1 1-1.11-2.274c2.502-1.22 5.212-1.623 7.25-1.732a24.22 24.22 0 0 1 2.528-.006 18.683 18.683 0 0 1 .942.073l.057.006.018.002.005.001h.002l-.157 1.256z" fill="#3D3D3D"/><path d="M88.89 85.352l-11.855-.655-.077 1.386c-.05.914.109 1.791.436 2.585 2.146.333 6.267 1.072 9.39 2.221a5.919 5.919 0 0 0 2.03-4.15l.076-1.387zM102.903 86.127l-11.83-.654-.077 1.386a5.928 5.928 0 0 0 2.112 4.877c2.755-.733 6.318-1.06 8.72-1.204a5.909 5.909 0 0 0 1.023-3.018l.077-1.386-.025-.001z" fill="#fff"/><path d="M83.551 85.057l5.337.295a2.674 2.674 0 0 1-5.337-.295zM97.588 85.833l5.314.294h.023a2.674 2.674 0 0 1-5.337-.294z" fill="#3D3D3D"/><path fill-rule="evenodd" clip-rule="evenodd" d="M89.501 94.497a2.883 2.883 0 0 0 3.034-2.724c.088-1.592-2.579-5.516-2.579-5.516s-3.082 3.606-3.17 5.198a2.883 2.883 0 0 0 2.715 3.042z" fill="#E89665"/></svg>