<svg viewBox="0 0 135 124" fill="none" xmlns="http://www.w3.org/2000/svg"><path fill-rule="evenodd" clip-rule="evenodd" d="M28.026 10.908h79c9.388 0 17 7.61 17 17v79c0 9.388-7.612 17-17 17h-79c-9.39 0-17-7.612-17-17v-79c0-9.39 7.61-17 17-17z" fill="#FFCA00"/><path d="M124 69.37V28c0-2.518-.548-4.908-1.53-7.058L20.92 122.403a16.938 16.938 0 0 0 7.08 1.56h41.32L124 69.369zM58.637 11H107c.521 0 1.036.023 1.545.07L50.32 69.022l.02.02C43.436 75.947 41.904 62.903 35 56c-6.904-6.904-16.564-5.053-9.66-11.957L58.637 11z" fill="#FFD900"/><path d="M6.26 27.387C5.092 15.182 14.04 4.34 26.246 3.173L39.04 1.948C51.245.78 62.087 9.728 63.255 21.934l.047.501c1.168 12.206-7.78 23.047-19.985 24.215l-12.794 1.224c-12.206 1.168-23.047-7.78-24.215-19.985l-.048-.502z" fill="#E27800"/><path d="M11.638 55.012a6.656 6.656 0 1 1-.833-12.379c1.341-9.487 9.03-17.178 18.987-18.13l33.002-3.158c9.998-.957 19.038 5.19 22.118 14.311a6.656 6.656 0 1 1 1.498 12.1c-.507 10.354-8.547 19.04-19.17 20.056l-4.467.427c-1.403 2.33-4.27 3.464-6.494 3.358l-2.544-.121a20.309 20.309 0 0 0-5.749.55l-2.474.601c-2.163.526-5.194-.043-7.013-2.065l-4.26.408c-10.589 1.013-20.102-5.94-22.601-15.958z" fill="#FFBB31"/><path d="M13.402 55.715a3.208 3.208 0 1 1-6.386.61 3.208 3.208 0 0 1 6.386-.61zm28.193 10.8c-.315-3.283 2.627-6.251 6.57-6.629l3.092-.295c3.944-.378 7.395 1.978 7.71 5.262.11 1.167-1.067 2.173-2.467 2.106l-2.543-.12a24.94 24.94 0 0 0-7.067.675l-2.474.602c-1.362.33-2.71-.434-2.821-1.6zm7.172-19.808c.149-.014 1.67 1.955 3.225 4.026 1.547 2.06.227 5.002-2.338 5.247-2.565.246-4.42-2.392-3.29-4.709 1.133-2.327 2.253-4.55 2.403-4.564z" fill="#E27800"/><path d="M44.031 38.406c-.389-4.068-.126-.415-4.194-.026l-.275.026c-4.068.39-5.67-2.412-5.28 1.657l-2.167 5.482a7.4 7.4 0 0 0 8.071 6.662l.274-.026a7.4 7.4 0 0 0 6.662-8.072l-.405-4.228-2.686-1.475z" fill="#FFF1A2"/><path d="M44.29 40.866a3.395 3.395 0 0 0-6.759.647l.316 3.307a3.395 3.395 0 1 0 6.76-.647l-.318-3.307z" fill="#E27800"/><path d="M83.392 32.21L72.27 33.276a7.894 7.894 0 0 1-8.61-7.106l-.465-4.859c8.522-.655 16.296 3.837 20.198 10.9z" fill="#F08904"/><path d="M72.697 28.47l4.07 5.712c1.809 2.54.19 6.084-2.912 6.38-3.104.298-5.365-2.876-4.07-5.712l2.912-6.38zm6.67 9.087l2.89 4.056c1.283 1.802.135 4.319-2.069 4.53-2.203.21-3.808-2.043-2.889-4.056l2.068-4.53zM24.535 49.72l2.89 4.055c1.284 1.803.135 4.32-2.068 4.53-2.203.211-3.809-2.042-2.89-4.056l2.068-4.53z" fill="#FFD900"/><path d="M99.86 44.423a4.889 4.889 0 0 1 6.528-2.277l21.232 10.253a4.889 4.889 0 0 1 2.276 6.528l-22.339 46.263a4.89 4.89 0 0 1-6.529 2.277L79.796 97.214a4.889 4.889 0 0 1-2.277-6.528l22.34-46.263z" fill="#E27800"/><path fill-rule="evenodd" clip-rule="evenodd" d="M107.663 39.505l21.232 10.252a7.822 7.822 0 0 1 3.643 10.446l-22.34 46.263a7.822 7.822 0 0 1-10.446 3.642L78.52 99.856a7.822 7.822 0 0 1-3.642-10.446l22.34-46.263a7.822 7.822 0 0 1 10.445-3.642zm-1.275 2.641a4.889 4.889 0 0 0-6.529 2.277L77.52 90.686a4.889 4.889 0 0 0 2.277 6.528l21.232 10.253a4.89 4.89 0 0 0 6.529-2.277l22.339-46.263a4.888 4.888 0 0 0-2.276-6.528l-21.232-10.253z" fill="#F08904"/><path fill-rule="evenodd" clip-rule="evenodd" d="M110.512 44.138a2.444 2.444 0 0 1 3.264-1.139l8.582 4.145a2.445 2.445 0 1 1-2.126 4.402l-8.582-4.144a2.445 2.445 0 0 1-1.138-3.264z" fill="#F08904"/><path d="M95.86 65.995l3.308 1.6-4.573 9.456-3.308-1.6 4.573-9.456z" fill="#FFBB31"/><path fill-rule="evenodd" clip-rule="evenodd" d="M113.249 75.258l-16.345-7.905a.978.978 0 0 0-1.306.455l-2.945 6.09a.978.978 0 0 0 .454 1.305l16.345 7.905a.978.978 0 0 0 1.306-.455l2.945-6.09a.978.978 0 0 0-.454-1.305zm-15.494-9.665a2.934 2.934 0 0 0-3.918 1.363l-2.945 6.09a2.934 2.934 0 0 0 1.364 3.918l16.345 7.904a2.934 2.934 0 0 0 3.918-1.363l2.945-6.09a2.934 2.934 0 0 0-1.364-3.918l-16.345-7.904z" fill="#FFF1A2"/><path d="M113.981 78.208a.978.978 0 0 1 1.306-.455l.813.394c.487.235.69.82.455 1.305l-1.762 3.643a.977.977 0 0 1-1.306.454l-.813-.393a.978.978 0 0 1-.454-1.306l1.761-3.642z" fill="#FFF1A2"/><path d="M35.772 102.555a1.869 1.869 0 0 1-1.999-1.717l-.826-10.885a1.868 1.868 0 0 1 1.716-1.999 1.868 1.868 0 0 1 1.999 1.717l.826 10.885a1.869 1.869 0 0 1-1.716 1.999zm9.706-2.888a1.869 1.869 0 0 1-1.999-1.717l-.826-10.885a1.868 1.868 0 0 1 1.717-1.999 1.868 1.868 0 0 1 1.998 1.717l.826 10.885a1.868 1.868 0 0 1-1.716 1.999zm10.2 1.377a1.869 1.869 0 0 1-1.999-1.717l-.826-10.885a1.868 1.868 0 0 1 1.716-1.999 1.868 1.868 0 0 1 1.999 1.717l.826 10.885a1.869 1.869 0 0 1-1.716 1.999z" fill="#F08904"/><path d="M25.872 96.142l37.693-2.86 1.597 21.048a1.923 1.923 0 0 1-1.772 2.063l-33.858 2.57a1.923 1.923 0 0 1-2.063-1.772l-1.597-21.049z" fill="#FFBB31"/><path d="M55.913 80.66l-1.358-1.647a.671.671 0 0 0-1.094.082l-1.133 1.891a2.237 2.237 0 0 0-.213 1.91 2.253 2.253 0 0 0 4.373-.908 2.228 2.228 0 0 0-.575-1.328zm-19.906 1.51l-1.358-1.646a.671.671 0 0 0-1.093.082l-1.134 1.891a2.236 2.236 0 0 0-.213 1.91 2.253 2.253 0 0 0 4.373-.908 2.227 2.227 0 0 0-.575-1.328zm9.697-3l-1.358-1.646a.671.671 0 0 0-1.093.082l-1.133 1.89a2.236 2.236 0 0 0-.213 1.91 2.253 2.253 0 0 0 4.373-.908 2.228 2.228 0 0 0-.576-1.327zm18.446 21.833l-37.692 2.861.329 4.331 2.633-.2.065.853a2.322 2.322 0 0 0 4.63-.352l-.064-.853 1.397-.106.243 3.201a2.322 2.322 0 1 0 4.63-.351l-.242-3.201 24.4-1.852-.328-4.331z" fill="#FFF1A2"/><path d="M25.841 94.276l37.472-2.844a2.673 2.673 0 1 1 .404 5.33l-2.96.224.235 3.096a3.457 3.457 0 0 1-6.894.523l-.146-1.922a3.458 3.458 0 0 1-6.089-.718l-21.617 1.64a2.673 2.673 0 1 1-.405-5.33z" fill="#E27800"/><path d="M49.436 33.396a7.38 7.38 0 0 0-.276 2.831l.729 7.618a7.4 7.4 0 0 0 8.071 6.661l.275-.026a7.4 7.4 0 0 0 6.661-8.071l-.574-6-3.965.38-7.545-1.173-3.376-2.22z" fill="#FFF1A2"/><path d="M43.324 29.998a1.727 1.727 0 1 1 3.438-.329c.127 1.325-.264 2.691-1.267 3.93.483.865.798 1.843.898 2.893l.35 3.655-14.626 5.421-.675-7.057a60 60 0 0 1-1.298.088 1.727 1.727 0 0 1-.201-3.447c6.203-.363 9.68-1.466 11.526-2.601 1.766-1.086 1.9-2.086 1.855-2.553z" fill="#F08904"/><path d="M51.686 40.123a3.395 3.395 0 0 1 6.759-.647l.316 3.307a3.395 3.395 0 1 1-6.76.647l-.315-3.307z" fill="#E27800"/><path d="M50.858 32.901a1.727 1.727 0 1 0-3.438.329c.12 1.247.697 2.444 1.782 3.436l.308 3.216 15.389 2.55-.333-3.476c.284-.034.571-.07.864-.11a1.727 1.727 0 1 0-.457-3.423c-6.16.82-9.783.397-11.81-.368-1.94-.731-2.26-1.687-2.305-2.154z" fill="#F08904"/><path d="M6.446 29.329c-.882-9.222 5.878-17.413 15.1-18.296l1.248-.119c9.222-.882 17.413 5.878 18.295 15.1l.12 1.248c.882 9.222-5.878 17.413-15.1 18.295l-1.248.12c-9.222.882-17.413-5.878-18.295-15.1l-.12-1.248z" fill="#E27800"/></svg>