<svg viewBox="0 0 135 124" fill="none" xmlns="http://www.w3.org/2000/svg"><rect x="11.111" y="11" width="113" height="113" rx="17" fill="#FF7878"/><path d="M77.868 38.538a1.657 1.657 0 0 1 2.029-1.172l50.209 13.454a1.656 1.656 0 0 1 1.171 2.029l-16.776 62.611a1.656 1.656 0 0 1-2.029 1.171l-50.21-13.453a1.657 1.657 0 0 1-1.17-2.029l16.776-62.611z" fill="#EDEEEE"/><path fill="#FF69E7" fill-opacity=".25" d="M83.69 38.46l1.8.482-17.615 65.74-1.8-.483z"/><path fill="#00E0FF" fill-opacity=".25" d="M123.145 83.202l-.482 1.8-53.41-14.31.483-1.8zM127.654 66.373l-.483 1.8-53.409-14.31.483-1.801zM125.4 74.787l-.483 1.801-53.409-14.31.483-1.801zM120.89 91.617l-.482 1.8L67 79.107l.483-1.801zM118.637 100.031l-.482 1.8-53.41-14.31.483-1.8zM116.381 108.446l-.482 1.8-53.41-14.31.483-1.8z"/><path fill-rule="evenodd" clip-rule="evenodd" d="M88.012 64.61a3.72 3.72 0 1 0 1.926-7.187 3.72 3.72 0 0 0-1.926 7.188zm-.642 2.397a6.201 6.201 0 1 0 3.21-11.98 6.201 6.201 0 0 0-3.21 11.98zM79.008 98.21a3.72 3.72 0 1 0 1.926-7.188 3.72 3.72 0 0 0-1.926 7.188zm-.642 2.395a6.2 6.2 0 1 0 3.21-11.98 6.201 6.201 0 0 0-3.21 11.98zM83.512 81.41a3.72 3.72 0 1 0 1.926-7.188 3.72 3.72 0 0 0-1.926 7.188zm-.642 2.396a6.201 6.201 0 1 0 3.21-11.98 6.201 6.201 0 0 0-3.21 11.98z" fill="#C4C4C4"/><path fill-rule="evenodd" clip-rule="evenodd" d="M97.785 51.976c.498.47.52 1.256.05 1.754l-8.065 8.538a1.24 1.24 0 0 1-1.84-.04l-5.066-5.851a1.24 1.24 0 1 1 1.876-1.624l4.168 4.815 7.124-7.542a1.24 1.24 0 0 1 1.753-.05zM93.326 68.615c.498.47.52 1.255.05 1.753l-8.065 8.539a1.24 1.24 0 0 1-1.84-.04l-5.066-5.851a1.24 1.24 0 1 1 1.876-1.624l4.168 4.815 7.124-7.542a1.24 1.24 0 0 1 1.753-.05z" fill="#15E041"/><path fill="#3D3D3D" d="M16.552 25.499l41.984-2.09 1.278 25.69-41.984 2.088z"/><path d="M28.075 44.286c-5.059 5.33-13.48 5.55-18.811.491L4.64 40.39C-.69 35.33-.91 26.91 4.15 21.58l4.906-5.17c5.06-5.331 13.481-5.551 18.811-.492l4.624 4.388c5.33 5.058 5.55 13.48.491 18.81l-4.906 5.17zM53.04 42.852c5.563 4.802 13.965 4.184 18.767-1.378l4.165-4.826c4.802-5.563 4.184-13.965-1.379-18.767l-5.395-4.657C63.635 8.422 55.233 9.04 50.43 14.602l-4.165 4.826c-4.802 5.563-4.185 13.965 1.378 18.767l5.396 4.657z" fill="#3D3D3D"/><path d="M20.675 14.6C20.31 7.26 25.965 1.013 33.304.647l9.604-.477c7.34-.366 13.586 5.288 13.951 12.628l.396 7.947c.365 7.34-5.289 13.586-12.629 13.951l-9.604.478c-7.34.365-13.586-5.289-13.951-12.628l-.396-7.948z" fill="#3D3D3D"/><path d="M57.225 46.148c5.622-.28 10.407 4.051 10.687 9.673l1.266 25.45c.329 6.607-4.76 12.229-11.366 12.558l-29.523 1.469c-6.606.328-12.228-4.76-12.557-11.367l-1.266-25.45c-.28-5.623 4.051-10.407 9.673-10.687l33.086-1.646z" fill="#A46648"/><rect x="25.768" y="57.874" width="13.626" height="17.871" rx="6.813" transform="rotate(-2.849 25.768 57.874)" fill="#fff"/><rect x="43.23" y="57.005" width="13.626" height="17.871" rx="6.813" transform="rotate(-2.849 43.23 57.005)" fill="#fff"/><path d="M39.9 75.05a2.227 2.227 0 0 0 4.45-.22c-.062-1.229-2.335-3.973-2.428-3.968-.093.005-2.083 2.96-2.021 4.189z" fill="#86401F"/><path d="M38.859 43.045c.202-5.69 4.979-10.139 10.669-9.937l-.104 2.906c-.202 5.69-4.978 10.139-10.668 9.936l.103-2.905z" fill="#FDB02A"/><path d="M30.95 36.832c.766 5.642 5.961 9.594 11.603 8.828l-.391-2.881c-.767-5.642-5.961-9.594-11.603-8.828l.391 2.881z" fill="#FDB02A"/><rect x="38.739" y="73.429" width="6.624" height="4.586" rx="2.293" transform="rotate(-2.849 38.74 73.43)" fill="#86401F"/><path d="M10.525 45.92l31.05-1.546.151 3.044L14.495 63.58l-3.97-17.662z" fill="#FDB02A"/><path d="M70.335 42.943l-31.05 1.545.152 3.044 28.701 13.38 2.197-17.969z" fill="#FDB02A"/><circle cx="68.154" cy="66.595" r="6.077" transform="rotate(-2.849 68.154 66.595)" fill="#A46648"/><circle cx="14.898" cy="69.493" r="6.077" transform="rotate(-2.849 14.898 69.493)" fill="#A46648"/><path d="M45.201 65.182a2.457 2.457 0 0 0 1.827-3.95 3.016 3.016 0 0 1 4.148 2.645l.188 3.793a3.016 3.016 0 1 1-6.024.3l-.139-2.788zM32.715 65.803a2.457 2.457 0 0 0 1.738-4.06 3.016 3.016 0 0 1 3.725 2.78l.189 3.794a3.016 3.016 0 0 1-6.024.3l-.141-2.841c.166.026.338.036.513.028z" fill="#3D3D3D"/><path fill-rule="evenodd" clip-rule="evenodd" d="M50.659 82.573a1.05 1.05 0 0 1 .876-1.198c2.187-.341 3.98.32 4.794 1.71.837 1.43.362 3.168-1.084 4.231a1.05 1.05 0 0 1-1.243-1.691c.73-.536.721-1.128.516-1.479-.229-.39-.987-.958-2.66-.698a1.05 1.05 0 0 1-1.199-.875z" fill="#884727"/><path fill-rule="evenodd" clip-rule="evenodd" d="M49.443 77.833a1.05 1.05 0 0 1 .74-1.287c1.908-.514 3.697.252 4.256 1.919.545 1.623-.287 3.478-2.208 4.815a1.05 1.05 0 1 1-1.2-1.722c1.476-1.027 1.56-2.007 1.419-2.425-.126-.375-.623-.856-1.721-.56a1.05 1.05 0 0 1-1.286-.74z" fill="#884727"/><path fill-rule="evenodd" clip-rule="evenodd" d="M52.706 81.634a1.05 1.05 0 0 1-.24 1.464l-.612-.852.613.852-.002.002-.002.001-.007.005-.022.015a8.201 8.201 0 0 1-.323.211c-.211.132-.512.307-.874.485-.708.348-1.73.746-2.821.8a1.05 1.05 0 1 1-.104-2.096c.681-.033 1.405-.296 2-.588a8.107 8.107 0 0 0 .922-.534l.008-.005a1.05 1.05 0 0 1 1.464.24zm-1.463-.24c0-.001 0 0 0 0z" fill="#884727"/><ellipse cx="28.895" cy="77.476" rx="10.153" ry="5.31" transform="rotate(14.47 28.895 77.476)" fill="#A46648"/></svg>