<svg id="Layer_3" data-name="Layer 3" xmlns="http://www.w3.org/2000/svg" viewBox="0 0 135 124"><defs><style>.cls-1{fill:#ffc800}.cls-2{fill:#f89700}.cls-3{fill:#ffb100}.cls-4{fill:#ffe75e}.cls-5{fill:#ffd900}</style></defs><path class="cls-1" d="M124 28v79a17 17 0 0 1-17 17H28a17 17 0 0 1-16.21-11.92A16.42 16.42 0 0 1 11 107V28a17 17 0 0 1 17-17h79a17 17 0 0 1 17 17z"/><path class="cls-1" d="M124 28v46a91.53 91.53 0 0 1-55.08 18.32A91.63 91.63 0 0 1 11 71.8V28a17 17 0 0 1 17-17h79a17 17 0 0 1 17 17z"/><path class="cls-2" d="M35.05 115.8c3 3.2 7.7 4 10.52 4.23a2.32 2.32 0 0 0 2.49-2.32c0-2.83-.52-7.59-3.5-10.79s-7.71-4-10.53-4.23a2.34 2.34 0 0 0-2.49 2.31c.01 2.85.52 7.6 3.51 10.8zM98.4 89.42c-3.31 2.87-8.08 3.21-10.91 3.11A2.31 2.31 0 0 1 85.26 90c.3-2.82 1.3-7.5 4.61-10.37s8.07-3.21 10.9-3.11a2.32 2.32 0 0 1 2.23 2.54c-.3 2.81-1.3 7.49-4.6 10.36z"/><path class="cls-3" d="M36.39 43.56c4.24-1.08 8.65.76 11.14 2.12a2.33 2.33 0 0 1 .84 3.3c-1.54 2.38-4.54 6.11-8.78 7.19S30.93 55.4 28.45 54a2.33 2.33 0 0 1-.84-3.3c1.53-2.33 4.53-6.06 8.78-7.14z"/><path class="cls-2" d="M36.62 60c1.25-4.19 5.1-7 7.54-8.47a2.33 2.33 0 0 1 3.26 1c1.26 2.54 2.92 7 1.67 11.22s-5.1 7-7.54 8.47a2.32 2.32 0 0 1-3.26-1C37 68.72 35.37 64.23 36.62 60zM24.82 62.49c1.88-2.27 5-3 6.89-3.27a1.57 1.57 0 0 1 1.76 1.46c.11 1.9 0 5.11-1.91 7.38s-5 3-6.88 3.26a1.55 1.55 0 0 1-1.76-1.45c-.12-1.87.08-5.11 1.9-7.38z"/><path class="cls-3" d="M29.63 76.51a7.18 7.18 0 0 1 3.57-3.61 1 1 0 0 1 1.43.51 7.27 7.27 0 0 1 .49 5 7.22 7.22 0 0 1-3.57 3.61 1 1 0 0 1-1.44-.51 7.21 7.21 0 0 1-.48-5zM64.34 8.91c2.55 3.56 2.44 8.35 2.08 11.15a2.33 2.33 0 0 1-2.77 2c-2.77-.57-7.34-2-9.89-5.56s-2.43-8.35-2.07-11.16a2.31 2.31 0 0 1 2.76-2c2.78.58 7.34 2.02 9.89 5.57z"/><path class="cls-2" d="M48.47 10c4.15 1.38 6.87 5.32 8.23 7.8a2.32 2.32 0 0 1-1.07 3.2c-2.57 1.18-7.11 2.7-11.27 1.32S37.49 17 36.13 14.5a2.32 2.32 0 0 1 1.07-3.23c2.58-1.17 7.11-2.7 11.27-1.27z"/><path class="cls-3" d="M44.14.81c2.23 1.19 3.39 3.72 3.91 5.27a1.35 1.35 0 0 1-.93 1.74c-1.59.41-4.33.82-6.56-.38s-3.39-3.72-3.91-5.27a1.35 1.35 0 0 1 .93-1.74c1.59-.43 4.33-.82 6.56.38z"/><path class="cls-2" d="M75.74 12.38c1.35 2.14 1.12 4.91.81 6.52a1.34 1.34 0 0 1-1.67 1c-1.58-.42-4.17-1.41-5.52-3.55s-1.12-4.91-.81-6.52a1.35 1.35 0 0 1 1.67-1c1.58.42 4.17 1.4 5.52 3.55z"/><path class="cls-4" d="M43.99 38.27h49.68V124H43.99z"/><path class="cls-1" d="M48.17 41.65h8.52V124h-8.52zM63.8 41.65h10.07V124H63.8zM80.98 41.65h8.52V124h-8.52z"/><path class="cls-5" d="M43.99 23.08h49.68v33.84H43.99z"/><path class="cls-3" d="M48.17 27.27h8.52v29.66h-8.52zM63.79 27.27h10.07v29.66H63.79zM80.99 27.27h8.52v29.66h-8.52z"/><path class="cls-4" d="M36.76 16.36h64.14v20.21H36.76z"/><circle class="cls-4" cx="36.76" cy="34.11" r="17.75"/><circle class="cls-4" cx="100.9" cy="34.11" r="17.75"/><path class="cls-1" d="M100.9 46.63a12.53 12.53 0 1 1 12.53-12.52 12.53 12.53 0 0 1-12.53 12.52zm0-22.05a9.53 9.53 0 1 0 9.53 9.53 9.54 9.54 0 0 0-9.53-9.53zM36.76 46.63a12.53 12.53 0 1 1 12.53-12.52 12.53 12.53 0 0 1-12.53 12.52zm0-22.05a9.53 9.53 0 1 0 9.53 9.53 9.54 9.54 0 0 0-9.53-9.53z"/><path class="cls-1" d="M36.76 21.58h64.14v3H36.76zM47.28 29.3h43.1v3h-43.1z"/><path class="cls-3" d="M100.07 66.23a26.19 26.19 0 0 1-13.71 23l-32 17.28A19.8 19.8 0 0 0 44 123.08v.91h-6.2a26 26 0 0 1 6.2-16.9 25.33 25.33 0 0 1 7.46-6.09l31.95-17.24A19.8 19.8 0 0 0 93.67 69a18.68 18.68 0 0 0 .2-2.81 11.72 11.72 0 0 0-.2-2.21V52.25l.65.62a18.48 18.48 0 0 1 5.75 13.36z"/><path class="cls-2" d="M36.21 99.28c0 4.37 2.94 8.18 4.88 10.24a2.32 2.32 0 0 0 3.4 0c1.91-2.08 4.76-5.93 4.73-10.31S46.29 91 44.34 88.94a2.32 2.32 0 0 0-3.4 0c-1.94 2.11-4.76 5.96-4.73 10.34z"/><path class="cls-2" d="M52.21 95.33c-3.74 2.27-5.52 6.72-6.29 9.44a2.32 2.32 0 0 0 1.77 2.91c2.77.57 7.53 1 11.27-1.23s5.52-6.72 6.29-9.44a2.32 2.32 0 0 0-1.77-2.91c-2.77-.57-7.48-1.04-11.27 1.23z"/><path class="cls-3" d="M51.6 83.3c-1.72 2.38-1.66 5.6-1.42 7.48A1.56 1.56 0 0 0 52 92.12c1.86-.37 4.93-1.33 6.65-3.72s1.65-5.6 1.41-7.48a1.56 1.56 0 0 0-1.85-1.34c-1.83.42-4.9 1.33-6.61 3.72zM66.38 84.39a7.24 7.24 0 0 0-2.59 4.37 1 1 0 0 0 .85 1.24 7.24 7.24 0 0 0 5-.81 7.26 7.26 0 0 0 2.59-4.37 1 1 0 0 0-.85-1.26 7.24 7.24 0 0 0-5 .83zM91.23 79.53c-1.17 4.21-5 7.13-7.38 8.61a2.32 2.32 0 0 1-3.28-.91c-1.3-2.51-3-7-1.88-11.19s5-7.13 7.38-8.61a2.32 2.32 0 0 1 3.28.91c1.3 2.51 3.05 6.97 1.88 11.19z"/><path class="cls-2" d="M104.64 67.13c-.66 2.87-3.11 4.94-4.69 6a1.55 1.55 0 0 1-2.22-.51c-1-1.64-2.27-4.58-1.61-7.44s3.11-4.95 4.68-6a1.57 1.57 0 0 1 2.23.51c.97 1.64 2.26 4.57 1.61 7.44zM91 111.82l-7 3.07a1.68 1.68 0 0 1-2.34-1.54v-7.78A1.67 1.67 0 0 1 84 104l7 3.07z"/><path class="cls-3" d="M110.66 112.08a4.59 4.59 0 0 1-.79.73 17.59 17.59 0 0 1-9.73 3.48 17.6 17.6 0 0 1-9.75-3.48 4.25 4.25 0 0 1-.79-.73 4.12 4.12 0 0 1 .79-6 17.52 17.52 0 0 1 9.75-3.47 17.51 17.51 0 0 1 9.73 3.47 4.1 4.1 0 0 1 .79 6z"/><path class="cls-5" d="M110.66 112.08a4.59 4.59 0 0 1-.79.73 17.59 17.59 0 0 1-9.73 3.48 17.6 17.6 0 0 1-9.75-3.48 4.25 4.25 0 0 1-.79-.73z"/><path class="cls-2" d="M117.46 97.89l-6 2.62a1.42 1.42 0 0 1-2-1.31v-6.62a1.42 1.42 0 0 1 2-1.3l6 2.61z"/><path class="cls-3" d="M134.2 98.12a3.69 3.69 0 0 1-.68.62 14.9 14.9 0 0 1-8.28 3 14.9 14.9 0 0 1-8.28-3 3.69 3.69 0 0 1-.68-.62A3.51 3.51 0 0 1 117 93a14.9 14.9 0 0 1 8.28-3 14.9 14.9 0 0 1 8.28 3 3.49 3.49 0 0 1 .64 5.12z"/><path class="cls-5" d="M134.2 98.12a3.69 3.69 0 0 1-.68.62 14.9 14.9 0 0 1-8.28 3 14.9 14.9 0 0 1-8.28-3 3.69 3.69 0 0 1-.68-.62z"/></svg>