<svg viewBox="0 0 135 124" fill="none" xmlns="http://www.w3.org/2000/svg"><g clip-path="url(#clip0)"><path d="M11 28.01c0-9.389 7.611-17 17-17h79c9.389 0 17 7.611 17 17v79c0 9.389-7.611 17-17 17H28c-9.389 0-17-7.611-17-17v-79z" fill="#B2B2B2"/><path d="M15.61 63.25a4.768 4.768 0 1 0 9.234 2.379 4.768 4.768 0 0 0-9.234-2.379z" fill="#BFBFBF"/><path d="M65.894 40.928L33.96 32.703l-5.032 19.539 31.934 8.225 5.032-19.539z" fill="#979797"/><path d="M54.196 53.737c2.982 4.79 9.281 6.255 14.07 3.273l4.624-2.88c4.79-2.981 6.254-9.281 3.272-14.07l-3.191-5.126c-2.982-4.789-9.282-6.254-14.07-3.272l-4.624 2.88c-4.79 2.981-6.255 9.281-3.273 14.07l3.192 5.125zM34.925 48.62c-4.924 2.752-11.148.992-13.9-3.933l-2.658-4.754c-2.753-4.925-.992-11.148 3.932-13.901l5.27-2.946c4.925-2.753 11.149-.992 13.901 3.932l2.658 4.754c2.753 4.925.992 11.148-3.932 13.901l-5.27 2.946z" fill="#979797"/><path d="M64.499 31.685c1.407-5.463-1.881-11.033-7.345-12.44l-7.737-1.993c-5.464-1.407-11.033 1.881-12.44 7.345l-1.668 6.476c-1.408 5.464 1.88 11.033 7.344 12.44l7.737 1.994c5.464 1.407 11.033-1.881 12.44-7.345l1.669-6.477z" fill="#979797"/><path d="M31.217 50.34a7.825 7.825 0 0 0-9.53 5.625L16.61 75.683a9.194 9.194 0 0 0 6.61 11.198l22.844 5.883a9.194 9.194 0 0 0 11.198-6.61l5.078-19.718a7.825 7.825 0 0 0-5.626-9.53L31.217 50.34z" fill="#BFBFBF"/><path d="M35.704 65.326a5.345 5.345 0 1 0-10.352-2.666l-.83 3.224a5.345 5.345 0 0 0 10.352 2.666l.83-3.224z" fill="#fff"/><path fill-rule="evenodd" clip-rule="evenodd" d="M34.545 66.168a1.928 1.928 0 0 1-.781-3.323 2.366 2.366 0 0 0-3.604 1.379l-.743 2.885a2.366 2.366 0 1 0 4.582 1.18l.546-2.121z" fill="#979797"/><path d="M37.16 74.362a1.747 1.747 0 1 1-3.385-.872c.241-.935 2.421-2.685 2.492-2.667.07.019 1.134 2.604.893 3.539z" fill="#979797"/><path d="M37.274 74.819a1.8 1.8 0 0 0-1.293-2.191l-2.02-.52a1.8 1.8 0 1 0-.897 3.484l2.02.52a1.8 1.8 0 0 0 2.19-1.293z" fill="#979797"/><path d="M55.769 73.83a4.768 4.768 0 1 0 9.234 2.379 4.768 4.768 0 0 0-9.234-2.379z" fill="#BFBFBF"/><path fill-rule="evenodd" clip-rule="evenodd" d="M47.767 71.276c-3.352-2.59-7.195-1.957-8.75-1.294a.857.857 0 0 0 .67 1.577c1.178-.502 4.317-1.025 7.032 1.074a.857.857 0 0 0 1.048-1.356z" fill="#979797"/><path fill-rule="evenodd" clip-rule="evenodd" d="M46.843 66.993c-4.194-.593-7.22 1.859-8.245 3.204a.857.857 0 0 0 1.364 1.038c.775-1.018 3.244-3.025 6.641-2.545a.857.857 0 0 0 .24-1.697z" fill="#979797"/><path d="M36.084 64.774a5.678 5.678 0 0 0-10.935-3.063l-.954 3.406A5.678 5.678 0 0 0 35.13 68.18l.954-3.406z" fill="#fff"/><path fill-rule="evenodd" clip-rule="evenodd" d="M34.504 65.588a2.048 2.048 0 0 1-.754-3.547 2.513 2.513 0 0 0-3.86 1.383l-.853 3.048a2.513 2.513 0 0 0 4.84 1.356l.627-2.24z" fill="#979797"/><path d="M37.207 76.522c2.765-2.611 7.686-2.487 11.72-.103l-1.822 2.876c-4.402-.313-12.1-.692-9.898-2.773zM43.965 65.338c2.524-.58 2.607-4.144.114-4.843L31.31 56.92a5.881 5.881 0 0 0-7.25 4.076l-1.034 3.694 13.935 3.903 7.003-3.254z" fill="#BFBFBF"/><path fill-rule="evenodd" clip-rule="evenodd" d="M36.467 63.658a.92.92 0 0 0-.637-1.134l-7.257-2.033a.92.92 0 0 0-.496 1.772l7.256 2.033a.92.92 0 0 0 1.134-.638z" fill="#979797"/><path d="M42.947 50.077a8.088 8.088 0 0 0-6.633-9.32l-.378 2.25a8.088 8.088 0 0 0 6.632 9.319l.379-2.25z" fill="#E5E5E5"/><path d="M50.005 46.549a8.088 8.088 0 0 1-10.309 4.955l.756-2.153a8.088 8.088 0 0 1 10.308-4.955l-.755 2.153z" fill="#E5E5E5"/><path d="M67.308 57.572l-26.362-6.79-.596 2.315 21.123 17.421 5.835-12.946z" fill="#E5E5E5"/><path d="M21.817 45.854l20.579 5.265-.596 2.315-21.128 6.575 1.145-14.155z" fill="#E5E5E5"/><path fill-rule="evenodd" clip-rule="evenodd" d="M43.55 76.863a2.916 2.916 0 0 0-4.121.147c-.27.288-.647.58-1.151.75-.48.161-1.235.27-2.375-.024a2.915 2.915 0 0 0-1.455 5.646c4.506 1.16 7.594-.623 9.248-2.399a2.915 2.915 0 0 0-.147-4.12z" fill="#fff"/><path d="M63.552 14.158l.034-.007.046-.009v.001a4.439 4.439 0 0 1 1.997.099c2.261.638 3.651 2.97 3.134 5.262a4.455 4.455 0 0 1-5.478 3.333l-19.188-5.039 19.455-3.64z" fill="#BFBFBF"/><path d="M44.203 8.625a4.44 4.44 0 0 1 2.738 1.726l.002.002c.108.147.207.3.296.457l2.292 3.542a3.95 3.95 0 0 0 4.067 1.732l.87-.168-8.49 2.376-3.749-.984a4.455 4.455 0 0 1-3.08-5.765 4.466 4.466 0 0 1 5.054-2.918z" fill="#BFBFBF"/><path d="M45.459 17.936l3.498-13.324c.483-1.837 2.493-2.975 4.592-2.53 1.355.288 2.418 1.149 2.942 2.214a.54.54 0 0 0 .766.2c.98-.669 2.328-.897 3.65-.482 2.046.644 3.238 2.622 2.756 4.46l-3.5 13.323-14.704-3.861z" fill="#BFBFBF"/><path d="M48.076 7.746l14.706 3.862-.76 2.895a2.76 2.76 0 0 1-3.371 1.969l-9.367-2.46a2.76 2.76 0 0 1-1.968-3.37l.76-2.896z" fill="#E5E5E5"/><path d="M92.042 29.094l-7.356 1.267a.968.968 0 0 0-.79 1.118l.436 2.535c.091.527.592.88 1.119.79l7.356-1.266a.968.968 0 0 0 .79-1.119l-.436-2.535a.968.968 0 0 0-1.119-.79z" fill="#BFBFBF"/><path d="M83.144 32.913l11.67-2.008 2.298-2.683 26.566-4.573a2.582 2.582 0 0 1 2.982 2.106l4.041 23.475a2.582 2.582 0 0 1-2.107 2.982l-40.915 7.043a2.582 2.582 0 0 1-2.983-2.106l-3.658-21.253a2.582 2.582 0 0 1 2.106-2.983z" fill="#fff"/><path d="M83.144 32.913l11.67-2.008 2.298-2.683 26.566-4.573a2.582 2.582 0 0 1 2.982 2.106l4.041 23.475a2.582 2.582 0 0 1-2.107 2.982l-40.915 7.043a2.582 2.582 0 0 1-2.983-2.106l-3.658-21.253a2.582 2.582 0 0 1 2.106-2.983z" fill="#fff"/><path d="M94.814 30.905l-11.67 2.008a2.582 2.582 0 0 0-2.106 2.983l3.658 21.253a2.582 2.582 0 0 0 2.983 2.106l40.915-7.043a2.582 2.582 0 0 0 2.107-2.982l-4.041-23.475a2.582 2.582 0 0 0-2.982-2.106l-26.566 4.573-2.298 2.683z" fill="#979797"/><path d="M127.588 31.145l-46.005 7.92-.545-3.17a2.582 2.582 0 0 1 2.106-2.982l11.67-2.008 2.298-2.683 26.566-4.573a2.582 2.582 0 0 1 2.982 2.106l.928 5.39zM130.647 48.918l-46.005 7.919.054.312a2.582 2.582 0 0 0 2.983 2.106l40.915-7.043a2.582 2.582 0 0 0 2.107-2.982l-.054-.312z" fill="#E5E5E5"/><path d="M110.587 55.639c5.735-.987 9.588-6.406 8.608-12.102-.981-5.697-6.424-9.514-12.159-8.527-5.734.987-9.588 6.405-8.607 12.101.98 5.697 6.424 9.515 12.158 8.528z" fill="#979797"/><path fill-rule="evenodd" clip-rule="evenodd" d="M107.255 36.282c-5.039.867-8.412 5.624-7.554 10.61.858 4.986 5.627 8.342 10.667 7.474 5.04-.867 8.413-5.624 7.555-10.61-.859-4.986-5.628-8.342-10.668-7.474zM97.156 47.33c-1.102-6.407 3.232-12.486 9.661-13.593 6.429-1.106 12.547 3.174 13.65 9.58 1.103 6.408-3.232 12.487-9.661 13.594-6.429 1.106-12.547-3.174-13.65-9.58z" fill="#E5E5E5"/><path d="M110.096 52.782c4.146-.713 6.932-4.631 6.223-8.75-.709-4.12-4.645-6.88-8.791-6.166-4.146.714-6.933 4.631-6.224 8.75.709 4.12 4.645 6.88 8.792 6.166zM121.579 25.81l-5.128.882a.967.967 0 0 0-.789 1.118l.435 2.532a.969.969 0 0 0 1.119.79l5.127-.883a.968.968 0 0 0 .79-1.118l-.436-2.532a.968.968 0 0 0-1.118-.79z" fill="#B2B2B2"/><path fill-rule="evenodd" clip-rule="evenodd" d="M116.588 27.487a.16.16 0 0 0-.131.186l.435 2.532a.162.162 0 0 0 .187.132l5.127-.883a.162.162 0 0 0 .132-.186l-.436-2.532a.16.16 0 0 0-.186-.132l-5.128.883zm-1.722.46a1.776 1.776 0 0 1 1.449-2.05l5.127-.883a1.775 1.775 0 0 1 2.05 1.448l.436 2.532a1.775 1.775 0 0 1-1.448 2.05l-5.127.883a1.775 1.775 0 0 1-2.051-1.448l-.436-2.532z" fill="#979797"/><path d="M111.539 27.7l-4.481.77a.968.968 0 0 0-.79 1.119l.163.948c.09.527.591.88 1.118.79l4.481-.772a.968.968 0 0 0 .79-1.118l-.163-.948a.968.968 0 0 0-1.118-.79z" fill="#BFBFBF"/><path fill-rule="evenodd" clip-rule="evenodd" d="M108.424 40.029a1.291 1.291 0 0 1-.939 1.566 3.231 3.231 0 0 0-2.315 2.223l-1.238-.364 1.238.364-.144.49a1.29 1.29 0 1 1-2.477-.728l.144-.49a5.813 5.813 0 0 1 4.165-4 1.292 1.292 0 0 1 1.566.939z" fill="#fff"/><path fill-rule="evenodd" clip-rule="evenodd" d="M109.223 50.622a1.291 1.291 0 0 1 .939-1.566 3.232 3.232 0 0 0 2.315-2.223l1.219.358-1.219-.358.143-.49a1.291 1.291 0 0 1 2.477.728l-.143.49-1.239-.364 1.239.364a5.814 5.814 0 0 1-4.165 4 1.29 1.29 0 0 1-1.566-.94z" fill="#979797"/><path fill-rule="evenodd" clip-rule="evenodd" d="M78.918 19.166l4.602 4.602a.723.723 0 0 1 0 1.022l-4.602 4.602a.723.723 0 0 1-1.022 0l-4.601-4.602a.723.723 0 0 1 0-1.022l4.601-4.602a.723.723 0 0 1 1.022 0zM89.97 15.769l3.58 3.579a.723.723 0 0 1 0 1.022l-3.58 3.58a.723.723 0 0 1-1.022 0l-3.579-3.58a.723.723 0 0 1 0-1.022l3.58-3.58a.723.723 0 0 1 1.022 0zM40.233 97.302l6.618 6.618a1.337 1.337 0 0 1 0 1.891l-6.618 6.619a1.337 1.337 0 0 1-1.891 0l-6.618-6.619a1.337 1.337 0 0 1 0-1.891l6.618-6.618a1.337 1.337 0 0 1 1.89 0zM115.207 60.723l5.596 5.862a.623.623 0 0 1-.02.88l-5.862 5.597a.623.623 0 0 1-.881-.02l-5.596-5.862a.623.623 0 0 1 .02-.88l5.862-5.597a.623.623 0 0 1 .881.02zM30.81 111.093l3.78 3.96a.42.42 0 0 1-.013.595l-3.96 3.781a.421.421 0 0 1-.595-.014l-3.78-3.96a.42.42 0 0 1 .013-.595l3.96-3.781a.422.422 0 0 1 .595.014zM55.05 106.689l4.829 4.363c.296.267.32.725.052 1.021l-4.363 4.828a.722.722 0 0 1-1.021.052l-4.829-4.362a.723.723 0 0 1-.051-1.021l4.362-4.829a.724.724 0 0 1 1.021-.052zM23.363 15.499l3.35 3.025a.501.501 0 0 1 .035.709l-3.025 3.348a.501.501 0 0 1-.709.036l-3.348-3.025a.502.502 0 0 1-.037-.708l3.026-3.35a.501.501 0 0 1 .708-.035z" fill="#fff"/><path d="M65.175 82.519c0-8.94 7.248-16.189 16.189-16.189h9.372c8.94 0 16.188 7.248 16.188 16.189v.367c0 8.94-7.248 16.188-16.188 16.188h-9.372c-8.94 0-16.189-7.248-16.189-16.188v-.367z" fill="#979797"/><path d="M65.527 103.226c.573 0 1.123-.1 1.633-.282 1.118 7.444 7.54 13.152 15.297 13.152h24.173c7.782 0 14.221-5.746 15.307-13.226a4.853 4.853 0 1 0-.246-8.887c-1.603-6.835-7.737-11.924-15.061-11.924H82.457c-7.294 0-13.41 5.049-15.041 11.842a4.853 4.853 0 1 0-1.889 9.325z" fill="#E5E5E5"/><path fill-rule="evenodd" clip-rule="evenodd" d="M101.47 111.34c-.975.671-1.434 1.617-1.56 2.227a.99.99 0 1 1-1.938-.402c.218-1.054.937-2.464 2.376-3.455 1.469-1.01 3.581-1.513 6.441-.909a.988.988 0 1 1-.408 1.936c-2.428-.512-3.965-.048-4.911.603z" fill="#BFBFBF"/><path d="M120.827 91.377h-8.147a5.756 5.756 0 0 1-5.756-5.756v-3.56c6.231.117 11.561 3.918 13.903 9.316z" fill="#CECECE"/><path d="M68.392 103.576a2.339 2.339 0 1 1-4.678 0 2.339 2.339 0 0 1 4.678 0zM94.688 99.494c.11 0 1.077 1.536 2.061 3.147.98 1.603-.182 3.646-2.061 3.646-1.88 0-3.042-2.043-2.062-3.646.985-1.611 1.952-3.147 2.062-3.147z" fill="#BFBFBF"/><path d="M95.659 92.116a5.396 5.396 0 0 1 5.396-5.396h.201a5.396 5.396 0 0 1 5.396 5.396v5.58a5.396 5.396 0 0 1-5.396 5.396h-.201a5.396 5.396 0 0 1-5.396-5.396v-5.58zM93.632 92.116a5.396 5.396 0 0 0-5.396-5.396h-.2a5.396 5.396 0 0 0-5.397 5.396v5.58a5.396 5.396 0 0 0 5.396 5.396h.201a5.396 5.396 0 0 0 5.396-5.396v-5.58z" fill="#fff"/><path d="M97.49 95.144a2.475 2.475 0 1 1 4.95 0v2.423a2.476 2.476 0 1 1-4.95 0v-2.422zM91.802 95.144a2.475 2.475 0 1 0-4.951 0v2.423a2.476 2.476 0 1 0 4.95 0v-2.422z" fill="#979797"/><path d="M106.652 97.712H95.659v-5.596a5.396 5.396 0 0 1 5.396-5.396h.201a5.396 5.396 0 0 1 5.396 5.396v5.596zM82.64 97.712h10.992v-5.596a5.396 5.396 0 0 0-5.396-5.396h-.2a5.396 5.396 0 0 0-5.397 5.396v5.596z" fill="#BFBFBF"/><path d="M65.175 83.941c0-6.755 5.477-12.231 12.231-12.231h.915c6.755 0 12.23 5.476 12.23 12.231v.914c0 6.755-5.475 12.231-12.23 12.231h-.915c-6.755 0-12.23-5.476-12.23-12.23v-.915z" fill="#979797"/></g><defs><clipPath id="clip0"><path fill="#fff" d="M0 0h135v124H0z"/></clipPath></defs></svg>