<svg viewBox="0 0 135 124" fill="none" xmlns="http://www.w3.org/2000/svg"><path d="M107 11H28c-9.389 0-17 7.611-17 17v79c0 9.389 7.611 17 17 17h79c9.389 0 17-7.611 17-17V28c0-9.389-7.611-17-17-17z" fill="#58CC02"/><path d="M85.107 34.66l8.833 11.062a5.895 5.895 0 1 0 9.215-7.358l-8.833-11.062a5.896 5.896 0 0 0-9.215 7.358z" fill="#AFAFAF"/><path fill-rule="evenodd" clip-rule="evenodd" d="M104.469 40.01L93.208 25.907a2.24 2.24 0 0 1 .196-3.01l20.271-19.531a2.24 2.24 0 0 1 3.304.215l14.523 18.188a2.24 2.24 0 0 1-.522 3.269l-23.533 15.446a2.239 2.239 0 0 1-2.978-.474z" fill="#BBF2FF"/><path fill-rule="evenodd" clip-rule="evenodd" d="M109.088 35.274L98.848 22.45a1.6 1.6 0 0 1 .157-2.166l15.121-14.14a1.6 1.6 0 0 1 2.343.17l12.255 15.348a1.6 1.6 0 0 1-.353 2.322L111.236 35.6a1.6 1.6 0 0 1-2.148-.326z" fill="#9E4D31"/><path d="M92.716 42.146l1.404 1.758a.797.797 0 0 0 1.245-.994l-1.404-1.759a.797.797 0 0 0-1.245.995zM87.12 35.137l1.403 1.759a.797.797 0 0 0 1.246-.995l-1.405-1.758a.797.797 0 0 0-1.245.994z" fill="#898989"/><path d="M90.142 26.153l13.208 16.541a2.39 2.39 0 1 0 3.735-2.983l-13.207-16.54a2.39 2.39 0 0 0-3.736 2.982z" fill="#AFAFAF"/><path opacity=".721" d="M99.639 37.026l3.405 4.264a1.116 1.116 0 0 0 1.743-1.392l-3.405-4.264a1.115 1.115 0 1 0-1.743 1.392z" fill="#fff"/><path d="M109.572 30.206l2.858.32a.863.863 0 0 0 .954-.761l.32-2.859a.863.863 0 0 0-.761-.953l-2.859-.32a.863.863 0 0 0-.954.76l-.32 2.86c-.053.473.288.9.762.953zM109.558 19.587l2.001.224a.863.863 0 0 0 .954-.761l.224-2.002a.863.863 0 0 0-.761-.953l-2.001-.224a.863.863 0 0 0-.954.761l-.224 2.001c-.053.474.288.9.761.954z" fill="#E27800"/><path d="M117.26 22.45l1.911.634a.863.863 0 0 0 1.091-.546l.635-1.91a.862.862 0 0 0-.546-1.092l-1.911-.635a.863.863 0 0 0-1.091.546l-.636 1.911c-.15.452.095.94.547 1.091z" fill="#673118"/><path d="M78.901 46.514l1.079 4.026a1.25 1.25 0 0 0 1.531.884l4.026-1.079a1.25 1.25 0 0 0 .885-1.531l-1.08-4.026a1.25 1.25 0 0 0-1.53-.885l-4.027 1.08a1.25 1.25 0 0 0-.884 1.53z" fill="#E27800"/><path d="M81.26 62.404l1.078 4.026a1.25 1.25 0 0 0 1.531.884l4.026-1.079a1.25 1.25 0 0 0 .885-1.531l-1.08-4.026a1.25 1.25 0 0 0-1.53-.885l-4.027 1.08a1.25 1.25 0 0 0-.884 1.53z" fill="#9E4D31"/><path d="M92.51 55.15l.91 3.396c.15.562.729.896 1.291.745l3.395-.91c.563-.15.897-.728.746-1.29l-.91-3.396a1.054 1.054 0 0 0-1.291-.745l-3.395.91c-.563.15-.896.728-.746 1.29z" fill="#673118"/><path d="M74.361 38.99c0 19.763-16.021 35.784-35.785 35.784-19.763 0-35.785-16.021-35.785-35.785 0-19.763 16.022-35.784 35.785-35.784 19.764 0 35.785 16.021 35.785 35.785z" fill="#0084C2"/><path d="M25.093 32.02l1.865 2.939 33.417-24.346c-.9-.794-2.031-1.444-3.054-2.13L25.093 32.02z" fill="#006AAD"/><path fill-rule="evenodd" clip-rule="evenodd" d="M15.95 38.2l23.14-16.334L61.909 38.2v51.201H15.95v-51.2z" fill="#C6775C"/><path fill-rule="evenodd" clip-rule="evenodd" d="M20.51 43.118a8.27 8.27 0 1 1 16.542 0v5.03a8.27 8.27 0 1 1-16.542 0v-5.03z" fill="#fff"/><path d="M40.682 43.118a8.27 8.27 0 1 1 16.542 0v5.03a8.27 8.27 0 1 1-16.542 0v-5.03z" fill="#fff"/><path fill-rule="evenodd" clip-rule="evenodd" d="M33.339 40.83a3.713 3.713 0 0 1 3.713 3.712v4.664a3.713 3.713 0 1 1-7.427 0v-4.664l.007-.218a2.719 2.719 0 0 0 2.885-3.404c.264-.06.54-.09.822-.09zM53.51 40.886a3.713 3.713 0 0 1 3.714 3.714v4.663a3.713 3.713 0 1 1-7.426 0V44.6l.006-.218a2.719 2.719 0 0 0 2.885-3.404c.264-.06.54-.092.822-.092z" fill="#3D3D3D"/><path d="M20.81 46.686c3.695-.324 12.83 1.17 17.43 4.368a4.518 4.518 0 0 1-4.955 7.552l-.2-.132c-1.395-.969-3.942-1.776-7.028-2.28a41.894 41.894 0 0 0-3.47-.418l-.46-.032-.41-.024-.356-.017.236-.016a4.518 4.518 0 1 1-.787-9.001z" fill="#C6775C"/><path d="M56.393 48.826c-3.695-.323-12.83 1.171-17.43 4.368a4.518 4.518 0 0 0 4.955 7.552l.2-.132c1.395-.968 3.942-1.775 7.029-2.28a41.811 41.811 0 0 1 3.47-.417l.46-.033.41-.024.356-.016-.237-.016a4.518 4.518 0 0 0 .787-9.002z" fill="#C6775C"/><path fill-rule="evenodd" clip-rule="evenodd" d="M3.67 75.974c0-11.602 9.405-21.007 21.007-21.007h29.556c11.602 0 21.007 9.405 21.007 21.007 0 11.601-9.405 21.006-21.007 21.006H24.677c-11.602 0-21.007-9.405-21.007-21.007z" fill="#3D3D3D"/><path d="M38.783 62.21l-.096-.006c-2.91-.167-4.792-1.122-5.871-2.862l-.05-.081c-1.695-2.837-5.3-3.743-8.053-2.024-2.752 1.718-3.61 5.41-1.914 8.247 3.28 5.49 8.771 8.335 15.318 8.711 3.23.186 5.974-2.348 6.131-5.66.156-3.278-2.283-6.089-5.465-6.324z" fill="#fff"/><path fill-rule="evenodd" clip-rule="evenodd" d="M39.14 57.119l.02.002c6.048.448 10.468 5.725 10.186 11.657-.286 6.025-5.34 10.868-11.522 10.512-7.935-.456-15.113-4.006-19.406-11.188-3.078-5.15-1.59-11.96 3.592-15.195 5.246-3.275 12.005-1.48 15.125 3.715l.031.05c.02.03.046.059.153.112.19.093.674.268 1.66.325H39l.14.01zm-6.324 2.223l-.05-.081c-1.695-2.837-5.3-3.743-8.053-2.025-2.752 1.719-3.61 5.411-1.914 8.248 3.28 5.489 8.771 8.335 15.318 8.711 3.229.186 5.974-2.348 6.131-5.66.156-3.278-2.283-6.089-5.465-6.325l-.097-.006c-2.909-.167-4.791-1.123-5.87-2.862z" fill="#3D3D3D"/><path d="M43.639 52.913a4.824 4.824 0 1 1-9.648 0 4.824 4.824 0 0 1 9.648 0z" fill="#C6775C"/><path d="M85.144 109.481a8.55 8.55 0 0 0-7.795-12.072 8.55 8.55 0 0 0-7.794 12.072H68.55a3.269 3.269 0 1 0 0 6.538h17.575a3.27 3.27 0 0 0 0-6.538h-.981z" fill="#A56644"/><path d="M89.066 86.626l18.86-26.066c2.024-2.797 6.25-2.604 8.01.366l17.085 28.832c2.201 3.714-.32 8.439-4.63 8.678l-9.377.506c.971 2.052-.233 4.416-2.503 4.416h-18.9c-8.609 0-13.592-9.757-8.545-16.732z" fill="#F8A83C"/><path d="M112.109 71.124a1.947 1.947 0 0 1 3.777-.942l7.123 28.482-3.985.26-6.915-27.8z" fill="#EF9325"/><path d="M74.626 109.462l1.066 1.068a1.005 1.005 0 0 1 0 1.421l-1.065 1.069a1.004 1.004 0 0 1-1.422 0l-1.066-1.069a1.005 1.005 0 0 1 0-1.421l1.066-1.068a1.005 1.005 0 0 1 1.421-.001v.001z" fill="#F49000"/><path d="M79.15 105.439l.71.712a1.005 1.005 0 0 1 0 1.421l-.71.713a1.004 1.004 0 0 1-1.421 0l-.711-.713a1.005 1.005 0 0 1 0-1.421l.71-.713a1.005 1.005 0 0 1 1.422-.001v.002z" fill="#78C800"/><path d="M72.815 96.219a5.451 5.451 0 0 1 3.603 7.269 5.45 5.45 0 0 1 4.18 9.834 5.444 5.444 0 0 1 2.373 4.498h13.765c2.27 0 3.768-2.364 2.797-4.417l9.083-.505c4.311-.239 6.832-4.964 4.631-8.678L96.161 75.388c-1.76-2.97-5.986-3.163-8.009-.366L72.815 96.219z" fill="#FAB94E"/><path d="M92.64 85.62a1.946 1.946 0 0 1 3.777-.941l7.123 28.481-3.984.26-6.915-27.8z" fill="#EF9325"/></svg>