<svg viewBox="0 0 136 124" fill="none" xmlns="http://www.w3.org/2000/svg"><rect x="12.279" y="11" width="113" height="113" rx="17" fill="#E5E5E5"/><path fill-rule="evenodd" clip-rule="evenodd" d="M29.692 16.003c-5.966 0-10.803 4.837-10.803 10.803v34.58l-.001.056c0 .98-.014 3.498-2.63 3.691H10.4c-.64 0-1.158.519-1.158 1.158 0 6.464 5.24 11.704 11.704 11.704h51.06c6.464 0 11.704-5.24 11.704-11.704 0-.64-.519-1.158-1.158-1.158H77.08c-2.46-.181-2.619-2.42-2.629-3.5V26.805c0-5.966-4.837-10.803-10.804-10.803H29.692z" fill="#BFBFBF"/><path fill-rule="evenodd" clip-rule="evenodd" d="M22.617 33.623c0-5.611 4.55-10.16 10.16-10.16h26.881c5.611 0 10.16 4.549 10.16 10.16V77.61h-47.2V33.623z" fill="#D1D1D1"/><path d="M20.432 73.107c0-.781.633-1.415 1.414-1.415h49.002c.782 0 1.415.634 1.415 1.415v4.888c0 .78-.633 1.414-1.415 1.414H21.846a1.415 1.415 0 0 1-1.414-1.414v-4.888z" fill="#959595"/><path fill-rule="evenodd" clip-rule="evenodd" d="M44.291 72.223a1.029 1.029 0 0 1 1-.788h3.138c.476 0 .89.326 1 .788l2.077 8.617a1.029 1.029 0 0 1-1 1.27h-7.291a1.029 1.029 0 0 1-1-1.27l2.076-8.617z" fill="#fff"/><path fill-rule="evenodd" clip-rule="evenodd" d="M46.812 49.299a2.7 2.7 0 0 0 2.701-2.7c0-1.49-2.7-5.017-2.7-5.017s-2.702 3.526-2.702 5.017a2.7 2.7 0 0 0 2.701 2.7z" fill="#959595"/><path fill-rule="evenodd" clip-rule="evenodd" d="M54.251 61.791a1 1 0 0 1-.212 1.398c-1.973 1.453-4.44 2.266-7.369 2.266-2.58 0-4.805-.631-6.651-1.78a1 1 0 0 1 1.056-1.698c1.5.933 3.351 1.478 5.595 1.478 2.542 0 4.585-.7 6.183-1.876a1 1 0 0 1 1.398.212z" fill="#BFBFBF"/><path d="M22.617 33.623c0-3.556 1.828-6.686 4.595-8.501a5.33 5.33 0 0 1 .293 1.75v7.587c0 1.83-.921 3.446-2.325 4.407a5.23 5.23 0 0 0-2.563-2.477v-2.766zM69.818 33.623c0-3.372-1.642-6.36-4.17-8.208a5.342 5.342 0 0 0-.202 1.456v7.588a5.33 5.33 0 0 0 2.23 4.34 5.232 5.232 0 0 1 2.142-2.218v-2.958z" fill="#BFBFBF"/><path d="M25.705 41.147a5.209 5.209 0 1 1-10.418 0 5.209 5.209 0 0 1 10.418 0zM77.535 41.147a5.209 5.209 0 1 1-10.418 0 5.209 5.209 0 0 1 10.418 0z" fill="#D1D1D1"/><path d="M17.344 22.819c0-.924.748-1.672 1.672-1.672H74.31c.923 0 1.672.748 1.672 1.672v3.473c0 .923-.749 1.671-1.672 1.671H19.016a1.672 1.672 0 0 1-1.672-1.672V22.82z" fill="#959595"/><path d="M36.216 20.084a9.9 9.9 0 0 1-2.255-1.866c-2.861-3.185-3.335-7.807-1.255-11.42.433-.753 1.238-.862 1.818-.215l2.27 2.473a11.568 11.568 0 0 1 9.873-5.529c6.393 0 11.575 5.183 11.575 11.575 0 6.393-5.182 11.576-11.575 11.576-4.61 0-8.59-2.695-10.451-6.594z" fill="#BFBFBF"/><path d="M46.672 61.695c6.98 0 10.833-4.923 11.734-11.498.201-1.472-1.32-2.502-2.724-2.015-2.522.874-6.189 1.947-9.01 1.947-2.822 0-6.49-1.073-9.01-1.947-1.404-.487-2.925.543-2.724 2.015.9 6.575 4.753 11.498 11.734 11.498z" fill="#959595"/><path d="M54.006 59.182c-1.866 1.586-4.306 2.513-7.334 2.513-3.029 0-5.469-.927-7.334-2.513a9.721 9.721 0 0 1 7.334-3.328 9.721 9.721 0 0 1 7.334 3.328z" fill="#BFBFBF"/><path d="M58.028 52.195c.158-.645.284-1.313.378-1.998.201-1.472-1.32-2.502-2.724-2.015-2.522.874-6.189 1.947-9.01 1.947-2.822 0-6.49-1.073-9.01-1.947-1.404-.487-2.925.543-2.724 2.015.094.685.22 1.352.378 1.998.285.113.596.175.921.175h1.953a2.51 2.51 0 0 0 2.176-1.258 2.51 2.51 0 0 0 2.176 1.258h1.953a2.51 2.51 0 0 0 2.177-1.258 2.51 2.51 0 0 0 2.176 1.258h1.953a2.51 2.51 0 0 0 2.176-1.258 2.51 2.51 0 0 0 2.177 1.258h1.952c.326 0 .636-.062.922-.175zM33.65 36.154a6.064 6.064 0 0 1 12.129 0v3.689c0 2.58-1.61 4.782-3.88 5.659a7.407 7.407 0 0 0-7.763-3.276 6.045 6.045 0 0 1-.486-2.383v-3.689zM60.054 36.154a6.064 6.064 0 0 0-12.128 0v3.689a6.067 6.067 0 0 0 3.972 5.693 7.408 7.408 0 0 1 7.679-3.331 6.045 6.045 0 0 0 .477-2.362v-3.689z" fill="#fff"/><path d="M41.35 33.593a2.943 2.943 0 0 1-5.608 1.251 4.603 4.603 0 0 0-.455 2.002V39c0 1.203.46 2.299 1.213 3.12a7.376 7.376 0 0 1 3.672 1.494 4.617 4.617 0 0 0 3.479-1.9 1.993 1.993 0 1 1 .88-3.627v-1.24a4.624 4.624 0 0 0-3.443-4.471c.168.37.262.783.262 1.217zM55.43 33.593a2.943 2.943 0 0 1-5.608 1.251 4.604 4.604 0 0 0-.455 2.002V39c0 2.439 1.89 4.437 4.285 4.61a7.376 7.376 0 0 1 3.755-1.499c.115-.126.223-.26.324-.398a1.994 1.994 0 1 1 .88-3.627v-1.24a4.624 4.624 0 0 0-3.443-4.47c.168.37.262.783.262 1.217z" fill="#959595"/><path d="M66.944 61.695c-5.661 0-10.25 4.59-10.25 10.25v5.126h15.803v.006c5.163.14 9.691 2.827 12.374 6.85H56.693v1.26c0 11.782 9.002 21.462 20.502 22.538v.099h15.377c1.831 0 3.55-.48 5.038-1.321 12.415-3.798 21.443-15.347 21.443-29.005v-.854h-10.512c-3.391 0-6.146-2.587-7.727-5.588-2.932-5.566-8.774-9.361-15.503-9.361H66.944z" fill="#BFBFBF"/><path d="M133.004 63.707c0-.944-.765-1.709-1.709-1.709h-2.989c-5.662 0-10.251 4.59-10.251 10.252v4.698h4.698c5.661 0 10.251-4.59 10.251-10.251v-2.99zM104.386 61.998c-.943 0-1.708.766-1.708 1.709v2.99c0 5.661 4.589 10.25 10.251 10.25h5.125V72.25c0-5.66-4.589-10.25-10.251-10.25h-3.417z" fill="#BFBFBF"/><path d="M88.729 117.376c.944 0 1.709-.765 1.709-1.709v-2.99c0-5.661-4.59-10.251-10.252-10.251h-4.698v4.699c0 5.661 4.59 10.251 10.251 10.251h2.99z" fill="#959595"/><path d="M100.688 117.376c.944 0 1.708-.765 1.708-1.709v-2.99c0-5.661-4.589-10.251-10.25-10.251h-4.699v4.699c0 5.661 4.59 10.251 10.251 10.251h2.99z" fill="#BFBFBF"/><path fill-rule="evenodd" clip-rule="evenodd" d="M69.193 68.263a2.123 2.123 0 0 0-4.246 0v2.667a2.123 2.123 0 1 0 4.246 0v-2.667zM75.797 68.263a2.123 2.123 0 0 0-4.246 0v2.667a2.123 2.123 0 1 0 4.246 0v-2.667z" fill="#959595"/><path d="M58.246 77.071h29.201c-2.683 4.022-7.21 6.709-12.374 6.85v.005H58.246v-6.855z" fill="#fff"/><path d="M56.693 83.926v8.949h.006c.223 8.153 6.79 14.721 14.944 14.943v.006h15.803V77.071c-2.683 4.022-7.21 6.709-12.374 6.85v.005H56.693z" fill="#D1D1D1"/></svg>