<svg viewBox="0 0 135 124" fill="none" xmlns="http://www.w3.org/2000/svg"><g clip-path="url(#clip0)"><path fill-rule="evenodd" clip-rule="evenodd" d="M28 11h79c9.389 0 17 7.611 17 17v79c0 9.389-7.611 17-17 17H28c-9.389 0-17-7.611-17-17V28c0-9.389 7.611-17 17-17z" fill="#FFAADE"/><path fill-rule="evenodd" clip-rule="evenodd" d="M40.213 3h57.572c7.18 0 13 5.82 13 13 0 .679-.053 1.357-.159 2.027l-10.894 69A13 13 0 0 1 86.89 98H51.108a13 13 0 0 1-12.841-10.972l-10.895-69c-1.12-7.092 3.721-13.75 10.813-14.869.671-.106 1.349-.159 2.028-.159z" fill="#2B70C9"/><path fill-rule="evenodd" clip-rule="evenodd" d="M46.133 0H93.95a2 2 0 0 1 1.834 2.797l-7.969 18.33a2 2 0 0 1-2.67 1.02L45.297 3.816A2 2 0 0 1 46.133 0z" fill="#1CB0F6"/><path d="M104 89H31a4 4 0 0 0-4 4v5a4 4 0 0 0 4 4h73a4 4 0 0 0 4-4v-5a4 4 0 0 0-4-4z" fill="#367CD6"/><path d="M85 75H50a9 9 0 0 0-9 9v3a9 9 0 0 0 9 9h35a9 9 0 0 0 9-9v-3a9 9 0 0 0-9-9z" fill="#367CD6"/><path fill-rule="evenodd" clip-rule="evenodd" d="M38 102h11l-8.458 17.856A2 2 0 0 1 38.734 121h-2.27a2 2 0 0 1-1.956-2.412L38 102zM98 102H87l8.458 17.856A2 2 0 0 0 97.266 121h2.27a2 2 0 0 0 1.956-2.412L98 102z" fill="#2B70C9"/><path fill-rule="evenodd" clip-rule="evenodd" d="M99.575 61.27l12.175 1.282a3 3 0 0 1 2.386 4.292L100.82 94.308A3 3 0 0 1 98.12 96h-6.25a3 3 0 0 1-2.906-3.747l7.391-28.745a3 3 0 0 1 3.22-2.236z" fill="#367CD6"/><path d="M122 66c0-7.18-5.82-13-13-13s-13 5.82-13 13 5.82 13 13 13 13-5.82 13-13z" fill="#367CD6"/><path fill-rule="evenodd" clip-rule="evenodd" d="M27 53c-7.18 0-13 5.82-13 13s5.82 13 13 13c.25 0 .5-.007.748-.021l7.432 15.33A3 3 0 0 0 37.88 96h6.25a3 3 0 0 0 2.906-3.747l-7.111-27.659C39.224 58.076 33.705 53 27 53z" fill="#367CD6"/><path d="M32 66a5 5 0 1 0-10 0 5 5 0 0 0 10 0zM114 66a5 5 0 1 0-10 0 5 5 0 0 0 10 0z" fill="#2B70C9"/><path d="M83 24a2 2 0 1 0-4 0v6a2 2 0 1 0 4 0v-6zM73 19a2 2 0 1 0-4 0v6a2 2 0 1 0 4 0v-6zM63 15a2 2 0 1 0-4 0v6a2 2 0 1 0 4 0v-6zM53 10a2 2 0 1 0-4 0v6a2 2 0 1 0 4 0v-6z" fill="#1CB0F6"/><path fill-rule="evenodd" clip-rule="evenodd" d="M39 3h4v6a2 2 0 1 1-4 0V3z" fill="#1CB0F6"/></g><defs><clipPath id="clip0"><path fill="#fff" d="M0 0h135v124H0z"/></clipPath></defs></svg>