<svg viewBox="0 0 135 124" fill="none" xmlns="http://www.w3.org/2000/svg"><rect x="10.963" y="11" width="113" height="113" rx="17" fill="#1CB0F6"/><path fill-rule="evenodd" clip-rule="evenodd" d="M45 20h44.557c9.94 0 18 8.059 18 18v58.62c0 9.941-8.06 18-18 18H45c-9.941 0-18-8.059-18-18V38c0-9.941 8.059-18 18-18z" fill="#2B70C9"/><path fill-rule="evenodd" clip-rule="evenodd" d="M45 16h44.557c12.15 0 22 9.85 22 22v58.62c0 12.15-9.85 22-22 22H45c-12.15 0-22-9.85-22-22V38c0-12.15 9.85-22 22-22zm44.557 4H45c-9.941 0-18 8.059-18 18v58.62c0 9.941 8.059 18 18 18h44.557c9.94 0 18-8.059 18-18V38c0-9.941-8.06-18-18-18z" fill="#1899D6"/><rect x="33" y="26" width="68.557" height="82.62" rx="12" fill="#6F4EA1"/><path fill-rule="evenodd" clip-rule="evenodd" d="M91.246 54.894c4.196 1.124 6.683 5.446 5.557 9.65l-.306 1.143L81.3 61.615l.306-1.143c1.127-4.204 5.443-6.703 9.64-5.578z" fill="#FF9600"/><path d="M81.13 60.19c4.48 1.2 9.07-1.402 10.252-5.812 1.182-4.41-1.493-8.958-5.973-10.158-4.482-1.2-9.072 1.4-10.254 5.81-1.181 4.41 1.493 8.958 5.975 10.16z" fill="#FF9600"/><path d="M101.556 65.524V96.62c0 6.628-5.373 12-12 12H51.313l11.516-42.981c1.449-5.406 7.005-8.614 12.41-7.165l26.317 7.051z" fill="#FFC6B7"/><path d="M72.016 58.144l-2.904 10.834a6 6 0 0 1-7.348 4.243l-.9-.242 1.966-7.34c1.16-4.326 4.948-7.244 9.186-7.495z" fill="#FFB67A"/><path d="M99.87 102.755a11.994 11.994 0 0 1-10.315 5.865h-39.3l4.79-17.876 44.826 12.011z" fill="#2FE3FF"/><path d="M63.196 75.605a4.466 4.466 0 1 1-8.628-2.312 4.466 4.466 0 0 1 8.628 2.312z" fill="#FFC6B7"/><path d="M74.225 108.62h-2.899l1.98-7.393a1.4 1.4 0 0 1 2.705.725l-1.786 6.668zM83.059 108.62H80.16l1.39-5.184a1.4 1.4 0 0 1 2.704.725l-1.195 4.459z" fill="#fff"/><path fill-rule="evenodd" clip-rule="evenodd" d="M73.542 69.771a6.286 6.286 0 0 1 12.144 3.254l-.99 3.694a6.286 6.286 0 1 1-12.144-3.254l.99-3.694z" fill="#fff"/><path fill-rule="evenodd" clip-rule="evenodd" d="M81.951 69.38a2.822 2.822 0 0 1 1.996 3.458l-.918 3.424a2.822 2.822 0 0 1-5.452-1.461l.855-3.192.128.038a2.267 2.267 0 0 0 2.848-2.356c.18.012.362.041.543.09z" fill="#3D3D3D"/><path fill-rule="evenodd" clip-rule="evenodd" d="M87.756 73.58A6.286 6.286 0 0 1 99.9 76.834l-.99 3.694a6.286 6.286 0 0 1-12.144-3.255l.99-3.693z" fill="#fff"/><path fill-rule="evenodd" clip-rule="evenodd" d="M93.195 72.406a2.822 2.822 0 0 1 1.996 3.457l-.918 3.424a2.822 2.822 0 0 1-5.452-1.461l.855-3.192.128.038a2.266 2.266 0 0 0 2.848-2.356c.18.012.362.042.543.09z" fill="#3D3D3D"/><path d="M78.78 84.892a.667.667 0 0 0-1.28.373c.803 2.753 2.713 4.144 5.576 4.062a.667.667 0 0 0-.038-1.333c-2.257.065-3.625-.932-4.258-3.102z" fill="#EE9583"/><path fill-rule="evenodd" clip-rule="evenodd" d="M83.712 84.55a2.33 2.33 0 0 0 2.854-1.648c.333-1.242-1.13-4.784-1.13-4.784l-.288.227c-.765.618-2.814 2.344-3.084 3.351a2.33 2.33 0 0 0 1.648 2.853z" fill="#EE9583"/><path d="M73.167 61.438l28.211 8.062v11.134l-31.12-8.339 2.909-10.858z" fill="#FFC6B7"/><rect width="10.16" height="20.332" rx="5.08" transform="scale(1 -1) rotate(27.752 217.2 50.278)" fill="#FFC5B7"/><path d="M54.309 106.876l2.068-1.821a9.958 9.958 0 0 0 2.232-12.11l-3.447-6.552a5.095 5.095 0 0 0-9.032 4.719l8.179 15.764z" fill="#2FE3FF"/><path d="M49.895 69.454c-1.112-.432-2.37.139-2.812 1.275l-1.772 4.074 4.024 1.565 1.771-4.074c.442-1.136-.1-2.408-1.212-2.84z" fill="#FFC5B7"/><path d="M38.093 69.257c-.704.961-.479 2.325.505 3.046l5.54 4.578 2.552-3.482-5.54-4.578c-.983-.72-2.352-.526-3.056.436z" fill="#FFC5B7"/><path d="M34.92 74.156c-.432 1.111.14 2.37 1.276 2.812l6.536 2.988 1.564-4.024-6.536-2.988c-1.136-.441-2.408.101-2.84 1.212z" fill="#FFC5B7"/><path d="M34.837 80.37c.013 1.192 1.013 2.147 2.232 2.133l7.179.333-.05-4.316-7.179-.334c-1.219.014-2.196.992-2.182 2.184z" fill="#FFC5B7"/><path d="M46.03 90.86a5.08 5.08 0 0 0 8.992-4.731l-3.044-5.787-8.992 4.731 3.045 5.787z" fill="#2FE3FF"/><path fill-rule="evenodd" clip-rule="evenodd" d="M71.22 29.55a2 2 0 0 1 0 2.83l-30.5 30.5a2 2 0 0 1-2.828-2.83l30.5-30.5a2 2 0 0 1 2.829 0zM71.22 40.05a2 2 0 0 1 0 2.83l-17 17a2 2 0 0 1-2.828-2.83l17-17a2 2 0 0 1 2.829 0z" fill="#CE82FF"/><path d="M102.023 28.619c1.028.597 2.393.428 3.198-.447A15.957 15.957 0 0 1 117 23c8.161 0 14.894 6.11 15.877 14.004C133.013 38.1 132.105 39 131 39H86c-1.105 0-2.017-.902-1.835-1.992C85.112 31.328 90.05 27 96 27c2.195 0 4.253.59 6.023 1.619zM26.898 99.364c1.007.637 2.377.466 3.158-.434 3.652-4.21 9.03-6.87 15.026-6.87 10.33 0 18.822 7.894 19.82 18.002.108 1.1-.797 1.998-1.902 1.998H6c-1.105 0-2.014-.901-1.869-1.996.972-7.341 7.231-13.004 14.808-13.004 2.925 0 5.655.844 7.959 2.303zM35.466 35c-6.24 0-11.764 3.294-15.145 8.35-.718 1.073-2.225 1.376-3.376.793A10.503 10.503 0 0 0 12.178 43c-5.541 0-10.14 4.328-11.025 10.007C.983 54.1 1.895 55 3 55h64c1.105 0 2.016-.901 1.847-1.993C67.962 47.328 63.363 43 57.822 43c-1.498 0-2.928.316-4.234.89-1.105.487-2.476.18-3.163-.813C47.03 38.176 41.593 35 35.465 35z" fill="#DDF4FF"/></svg>