<svg viewBox="0 0 135 124" fill="none" xmlns="http://www.w3.org/2000/svg"><path fill-rule="evenodd" clip-rule="evenodd" d="M28 11h79c9.389 0 17 7.611 17 17v79c0 9.389-7.611 17-17 17H28c-9.389 0-17-7.611-17-17V28c0-9.389 7.611-17 17-17z" fill="#BFBFBF"/><path d="M38.286 106.21c5.577 0 10.099 4.521 10.099 10.098 0 3.081-1.38 5.84-3.556 7.692H31.744a10.075 10.075 0 0 1-3.555-7.692c0-5.577 4.52-10.098 10.097-10.098z" fill="#CBC9C9"/><path d="M64.404 81.258v-.035c0-8.508-6.897-15.405-15.405-15.405H33.482c-8.508 0-15.405 6.897-15.405 15.405v.035c0 8.508 6.897 15.405 15.405 15.405h15.517c8.508 0 15.405-6.897 15.405-15.405z" fill="#A2A2A2"/><path fill-rule="evenodd" clip-rule="evenodd" d="M43.688 61.564v21.292H23.775V61.564c0-5.499 4.458-9.957 9.957-9.957 5.498 0 9.956 4.458 9.956 9.957z" fill="#A2A2A2"/><path fill-rule="evenodd" clip-rule="evenodd" d="M50.688 64.064v12.792h-8.913V64.064a4.457 4.457 0 0 1 8.913 0z" fill="#A2A2A2"/><path d="M105.48 102.31L84.786 89.38a10.097 10.097 0 0 0-1.784-.884c-5.218-1.97-11.044.663-13.014 5.88l-8.8 23.308c-.237.63-.412 1.282-.52 1.947a10.061 10.061 0 0 0 .249 4.369h42.916l4.859-7.775c2.955-4.73 1.517-10.96-3.212-13.915z" fill="#D1D1D1"/><path d="M76.408 120.144H39.196L40.705 124h36.374l-.671-3.856z" fill="#A2A2A2"/><path d="M59.766 80.635H38.538c-8.61 0-15.59 6.98-15.59 15.589v.884c0 8.61 6.98 15.59 15.59 15.59h21.228c8.61 0 15.59-6.98 15.59-15.59v-.884c0-8.61-6.98-15.59-15.59-15.59z" fill="#DFDFDF"/><path opacity=".689" d="M37.417 80.674c-6.692.476-12.216 5.175-13.923 11.448h8.321a5.602 5.602 0 0 0 5.602-5.602v-5.846z" fill="#C4C4C4"/><path fill-rule="evenodd" clip-rule="evenodd" d="M47.834 84.16a5.178 5.178 0 0 1 5.177 5.177v3.195a5.178 5.178 0 0 1-10.355 0v-3.195a5.178 5.178 0 0 1 5.178-5.177z" fill="#C9C9C9"/><path fill-rule="evenodd" clip-rule="evenodd" d="M47.834 86.032a5.178 5.178 0 0 1 5.177 5.178v3.195a5.178 5.178 0 0 1-10.355 0V91.21a5.178 5.178 0 0 1 5.178-5.178z" fill="#fff"/><path fill-rule="evenodd" clip-rule="evenodd" d="M60.282 84.16a5.178 5.178 0 0 0-5.178 5.177v3.195a5.178 5.178 0 0 0 10.356 0v-3.195a5.178 5.178 0 0 0-5.178-5.177z" fill="#C9C9C9"/><path fill-rule="evenodd" clip-rule="evenodd" d="M60.282 86.032a5.178 5.178 0 0 0-5.178 5.178v3.195a5.178 5.178 0 0 0 10.356 0V91.21a5.178 5.178 0 0 0-5.178-5.178z" fill="#fff"/><path d="M58.63 92.428c-.791 0-1.433.642-1.433 1.433v1.762a1.432 1.432 0 1 0 2.864 0v-1.762c0-.791-.64-1.433-1.432-1.433zM49.817 92.428c-.791 0-1.432.642-1.432 1.433v1.762a1.432 1.432 0 1 0 2.864 0v-1.762c0-.791-.641-1.433-1.432-1.433z" fill="#A2A2A2"/><path d="M56.243 104.503a9.18 9.18 0 1 0-18.36 0 9.18 9.18 0 0 0 18.36 0z" fill="#DFDFDF"/><path d="M70.013 104.503a9.18 9.18 0 1 0-9.18 9.18 9.18 9.18 0 0 0 9.18-9.18zM21.572 100.573a4.571 4.571 0 1 0 0-9.142 4.571 4.571 0 0 0 0 9.142z" fill="#DFDFDF"/><path d="M22.067 103.107a2.203 2.203 0 1 0 .001-4.406 2.203 2.203 0 0 0 0 4.406z" fill="#A2A2A2"/><path fill-rule="evenodd" clip-rule="evenodd" d="M56.913 100.09a2.2 2.2 0 0 0 1.319-2.817c-.415-1.14-3.467-3.083-3.467-3.083s-1.09 3.45-.674 4.59a2.199 2.199 0 0 0 2.822 1.31z" fill="#C9C9C9"/><path d="M52.47 102.679c-2.19-3.042-4.498-4.458-6.736-4.456-2.242.003-4.516 1.426-6.63 4.482a1.7 1.7 0 0 0-.276 1.277c.079.43.32.83.709 1.098a1.7 1.7 0 0 0 1.277.276 1.7 1.7 0 0 0 1.098-.708c1.348-1.948 2.602-3.01 3.831-3.01 1.217 0 2.489 1.036 3.959 3.041a1.703 1.703 0 0 0 2.379.383c.383-.275.617-.68.688-1.111a1.7 1.7 0 0 0-.3-1.272z" fill="#BFBFBF" stroke="#DFDFDF" stroke-width="1.542"/><path fill-rule="evenodd" clip-rule="evenodd" d="M53.991 48.392a4.08 4.08 0 0 1 3.31 4.726l-.048.269a4.08 4.08 0 1 1-8.035-1.417l.047-.269a4.08 4.08 0 0 1 4.726-3.31zm10.357-30.229a1.05 1.05 0 0 1 .827 1.326l-7.368 25.467a1.05 1.05 0 0 1-1.192.742l-4.168-.735a1.05 1.05 0 0 1-.866-1.104l1.787-26.452a1.05 1.05 0 0 1 1.23-.963l9.75 1.72zM41.207 38.355a4.08 4.08 0 0 1 4.783 3.226l.053.268a4.08 4.08 0 0 1-8.01 1.557l-.052-.268a4.08 4.08 0 0 1 3.226-4.783zM40.044 6.423a1.05 1.05 0 0 1 1.246.942l2.248 26.415a1.05 1.05 0 0 1-.846 1.12l-4.156.808a1.05 1.05 0 0 1-1.203-.721L29.52 9.652a1.05 1.05 0 0 1 .803-1.34l9.72-1.89z" fill="#fff"/><path d="M42.214 108.475l57.981 11.271a5.966 5.966 0 0 1 4.61 4.254H59.537l-19.6-3.81a5.967 5.967 0 0 1 2.277-11.715z" fill="#A2A2A2"/><path d="M73.77 89.368a15.643 15.643 0 0 0-8.485-7.728v2.126a5.602 5.602 0 0 0 5.602 5.602h2.884z" fill="#CCC"/><path fill="#A2A2A2" d="M83.692 46.185l32.033 6.117-3.742 19.598-32.033-6.116z"/><path d="M88.937 62.458c-4.79 3.092-11.18 1.715-14.27-3.075l-2.683-4.155c-3.091-4.79-1.714-11.18 3.076-14.271l4.646-2.999c4.79-3.091 11.18-1.714 14.271 3.076l2.682 4.155c3.091 4.79 1.714 11.18-3.076 14.27l-4.646 3zM108.02 65.95c3.314 4.64 9.761 5.714 14.4 2.4l4.024-2.875c4.639-3.314 5.713-9.76 2.399-14.4l-3.214-4.5c-3.314-4.638-9.762-5.712-14.401-2.398l-4.023 2.874c-4.639 3.314-5.713 9.762-2.399 14.4l3.214 4.5z" fill="#A2A2A2"/><path d="M88.798 38.723c1.07-5.6 6.476-9.272 12.076-8.203l7.328 1.399c5.6 1.07 9.272 6.476 8.203 12.076l-1.158 6.063c-1.069 5.6-6.475 9.273-12.075 8.204l-7.328-1.4c-5.6-1.069-9.273-6.475-8.204-12.075l1.158-6.064z" fill="#A2A2A2"/><path d="M110.571 69.202a7.907 7.907 0 0 1 6.284 9.25l-3.708 19.419a9.29 9.29 0 0 1-10.869 7.383l-22.525-4.301a9.29 9.29 0 0 1-7.384-10.869l3.708-19.418a7.908 7.908 0 0 1 9.25-6.284l25.244 4.82z" fill="#CBC9C9"/><path d="M97.538 63.79c.751-4.79 4.893-8.082 9.251-7.353l-.384 2.446c-.751 4.79-4.893 8.083-9.25 7.354l.383-2.446z" fill="#D1D1D1"/><path d="M93.194 53.66c-1.73 5.208.176 10.98 4.256 12.893l.883-2.659c1.729-5.207-.176-10.98-4.256-12.893l-.883 2.66z" fill="#D1D1D1"/><path d="M75.408 60.475l23.69 4.523-.444 2.322-23.49 7.196.244-14.041z" fill="#D1D1D1"/><path d="M121.041 69.188l-23.69-4.523-.443 2.322 19.185 15.345 4.948-13.144z" fill="#D1D1D1"/><circle cx="115.065" cy="86.619" r="4.715" transform="rotate(10.81 115.065 86.619)" fill="#CBC9C9"/><circle cx="74.386" cy="79.047" r="4.715" transform="rotate(10.81 74.386 79.047)" fill="#CBC9C9"/><path d="M99.725 87.261a9.529 9.529 0 0 1 7.573 11.147l-.589 3.087c-.987 5.169-5.978 8.56-11.147 7.573l-4.653-.889a9.529 9.529 0 0 1-7.573-11.147l.334-1.75a9.529 9.529 0 0 1 8.493-7.702l4.908-.448a9.525 9.525 0 0 1 2.279.065l.376.064zm-.433 2.273a7.22 7.22 0 0 0-2.01-.099l-4.909.449a7.216 7.216 0 0 0-6.43 5.832l-.334 1.75a7.216 7.216 0 0 0 5.734 8.441l4.653.888a7.215 7.215 0 0 0 8.44-5.734l.59-3.087a7.216 7.216 0 0 0-5.734-8.44z" fill="#CBC9C9"/><path d="M82.509 81.107c.423.038.848.097 1.273.178 2.458.47 4.618 1.61 6.325 3.195a6.114 6.114 0 1 0-7.599-3.373zM106.956 85.217a12.876 12.876 0 0 0-3.182-1.049 12.791 12.791 0 0 0-6.725.516 6.114 6.114 0 1 1 9.907.533z" fill="#fff"/><path d="M100.761 83.892a1.432 1.432 0 1 0-2.813-.537l-.211 1.105c.97-.286 1.98-.46 3.013-.508l.011-.06zM88.03 81.46a1.432 1.432 0 1 1 2.813.538l-.331 1.731a1.425 1.425 0 0 1-.403.753 12.793 12.793 0 0 0-2.329-1.717l.25-1.304zM97.281 89.435l-4.908.449a7.216 7.216 0 0 0-6.43 5.832l-.334 1.75a7.216 7.216 0 0 0 5.734 8.441l4.652.888a7.215 7.215 0 0 0 8.441-5.734l.59-3.087a7.216 7.216 0 0 0-7.745-8.539z" fill="#A2A2A2"/><path d="M99.291 89.534a7.22 7.22 0 0 0-2.01-.099l-4.908.449a7.2 7.2 0 0 0-2.986.957l11.443 2.186a1.377 1.377 0 0 0 1.611-1.095l.158-.82a7.18 7.18 0 0 0-3.308-1.578z" fill="#fff"/><path d="M92.162 96.941a3.91 3.91 0 0 0 1.124 7.738l.106-.016-.002.065a10.04 10.04 0 0 1-.15 1.217l-.053.287-.004.026 2.812.537a7.185 7.185 0 0 0 5.135-.942c.523-6.1-2.74-9.981-8.968-8.912z" fill="#AFAFAF"/><path d="M92.424 85.925a1.728 1.728 0 1 0 3.395.648c.179-.938-1.033-3.423-1.103-3.436-.071-.014-2.113 1.85-2.292 2.788z" fill="#A2A2A2"/><rect x="91.014" y="84.33" width="5.14" height="3.558" rx="1.779" transform="rotate(10.81 91.014 84.33)" fill="#A2A2A2"/><path d="M59.593 109a8.344 8.344 0 0 1 5.032 15H54.56a8.344 8.344 0 0 1 5.033-15z" fill="#CBC9C9"/><path d="M71.1 115.678a3 3 0 0 0-4.914-3.442l-4.016 5.735a3 3 0 1 0 4.915 3.441l4.015-5.734z" fill="#CBC9C9"/><path d="M81.378 124h-25.51l6.377-11.046L81.379 124zM47.36 124a8.347 8.347 0 0 0-16.328 0H47.36z" fill="#CBC9C9"/><path d="M107.902 124a7.348 7.348 0 0 0-14.236 0h14.236z" fill="#DFDFDF"/><path d="M109.522 117.853a3 3 0 0 1-1.726 3.876L101.88 124h-3.253a3 3 0 0 1 .484-5.364l6.535-2.508a3 3 0 0 1 3.876 1.725z" fill="#DFDFDF"/></svg>