<svg viewBox="0 0 135 124" version="1.1" xmlns="http://www.w3.org/2000/svg"><g stroke="none" stroke-width="1" fill="none" fill-rule="evenodd"><g transform="translate(6 7)"><rect fill="#6F4EA1" x="5" y="4" width="113" height="113" rx="17"/><path d="M30.332 4L43 6l75 48.902V100c0 9.389-7.611 17-17 17H66.4L10 52.508l-3.636-38.19C8.96 8.25 14.984 4 22 4h8.332z" fill="#CE82FF"/><rect fill="#EA2B2B" x="62" y="49" width="47" height="34" rx="17"/><rect fill="#EA2B2B" transform="rotate(-12 77.5 78.5)" x="67" y="63" width="21" height="31" rx="10.085"/><rect fill="#EA2B2B" transform="scale(-1 1) rotate(-12 0 958.579)" x="82" y="63" width="21" height="31" rx="10.085"/><path d="M86 54v-.555A14.038 14.038 0 0 0 76 40" stroke="#9D5026" stroke-width="5.763" stroke-linecap="round" stroke-linejoin="round"/><path d="M74.468 56.513c-4.087 1.95-6.702 6.32-6.202 11.08" stroke="#FF9393" stroke-width="5" stroke-linecap="round" stroke-linejoin="round"/><path fill="#E5A259" d="M32 100h14v17H32z"/><path d="M48 0a3 3 0 0 1 3 3v51h1a2 2 0 0 1 2 2v6a2 2 0 0 1-2 2H2a2 2 0 0 1-2-2v-6a2 2 0 0 1 2-2V3a3 3 0 0 1 3-3h43z" fill="#A56644"/><path d="M13.02 6H43l8 5.218V54h1a2 2 0 0 1 2 2v6a2 2 0 0 1-2 2H20.037L10.3 53.083l-.28-44.064a3 3 0 0 1 3-3.019z" fill="#E5A259"/><rect fill="#F7F7F7" x="10" y="6" width="33" height="22" rx="2"/><rect fill="#F7F7F7" x="10" y="34" width="33" height="20" rx="2"/><path d="M118 100c0 .466-.019.928-.056 1.384l-.042.448-.06.501-.08.522-.065.357-.125.595-.116.474-.041.158c-.08.295-.167.586-.262.874l-.085.253-.157.434a16.962 16.962 0 0 1-2.162 4H14a2 2 0 0 1-2-2V96a2 2 0 0 1 2-2h104v6z" fill="#E5A259"/><path d="M105.185 36.842c.75 0 1.357.607 1.357 1.357v2.714c0 8.245-6.683 14.929-14.928 14.929h-2.715c-.75 0-1.357-.608-1.357-1.358V51.77c0-8.245 6.684-14.928 14.929-14.928h2.714z" fill="#78C800" fill-rule="nonzero"/><path d="M118 94v6c0 3.738-1.206 7.194-3.25 10H60.264l-13.89-16H118z" fill="#FFCE8E"/><path d="M94.167 39.362l11.221 7.317c-2.255 5.382-7.573 9.163-13.774 9.163h-2.715c-.75 0-1.357-.608-1.357-1.358V51.77c0-5.171 2.63-9.729 6.625-12.408z" fill="#ADE756"/></g></g></svg>