<svg viewBox="0 0 136 125" fill="none" xmlns="http://www.w3.org/2000/svg"><g clip-path="url(#clip0_302_3231)"><path d="M107.566 11.665h-79c-9.389 0-17 7.611-17 17v79c0 9.389 7.611 17 17 17h79c9.389 0 17-7.611 17-17v-79c0-9.389-7.611-17-17-17z" fill="#BFBFBF"/><path d="M74.086 28.283h.001a7.547 7.547 0 0 1 7.546-7.384h35.558a7.547 7.547 0 0 1 7.546 7.384h.001v34.765a2.612 2.612 0 0 0 2.612 2.612h5.128c.601 0 1.088.487 1.088 1.088 0 5.879-4.766 10.644-10.645 10.644H75.902c-5.878 0-10.644-4.765-10.644-10.644 0-.601.487-1.088 1.088-1.088h5.128a2.612 2.612 0 0 0 2.612-2.612V28.283z" fill="#A2A2A2"/><path d="M77.895 29.27h43.034v42.942H77.895V29.27z" fill="#D1D1D1"/><path d="M99.418 52.875c-7.845 0-15.228 2.136-21.525 5.859v12.939h42.977l.058-12.94a42.17 42.17 0 0 0-21.51-5.858z" fill="#BFBFBF"/><path fill-rule="evenodd" clip-rule="evenodd" d="M111.052 62.968a6.694 6.694 0 0 0-7.566-1.333l-.589.275a8.293 8.293 0 0 1-6.975.02l-.64-.295a6.695 6.695 0 0 0-7.608 1.424l-.147.153a.8.8 0 1 1-1.148-1.113l.147-.152a8.293 8.293 0 0 1 9.424-1.764l.64.294a6.694 6.694 0 0 0 5.631-.015l.589-.275a8.294 8.294 0 0 1 9.373 1.65l.253.253a.8.8 0 0 1-1.13 1.13l-.254-.252z" fill="#959595"/><path fill-rule="evenodd" clip-rule="evenodd" d="M80.22 64.046a.75.75 0 0 1 1.055.099c1.156 1.395 4.578 3.951 8.872 2.964a.75.75 0 1 1 .336 1.46c-5.049 1.162-9-1.824-10.362-3.468a.75.75 0 0 1 .099-1.055zM118.604 64.046a.75.75 0 0 0-1.055.098c-1.157 1.396-4.579 3.952-8.873 2.964a.749.749 0 1 0-.336 1.461c5.049 1.161 9-1.825 10.363-3.468a.75.75 0 0 0-.099-1.055z" fill="#A2A2A2"/><path d="M75.843 48.573a4.749 4.749 0 1 0 0-9.498 4.749 4.749 0 0 0 0 9.498zM122.981 48.573a4.749 4.749 0 1 0 0-9.498 4.749 4.749 0 0 0 0 9.498z" fill="#D1D1D1"/><path d="M75.784 72.979c0-.722.585-1.306 1.306-1.306h44.644c.721 0 1.306.584 1.306 1.306v4.424c0 .72-.585 1.305-1.306 1.305H77.09a1.306 1.306 0 0 1-1.306-1.305v-4.424z" fill="#959595"/><path d="M74.104 39.406a4.749 4.749 0 0 1 5.964 2.238 5.293 5.293 0 0 0 1.886-4.057v-6.65h-7.85v8.469zM118.763 41.65a4.748 4.748 0 0 1 5.956-2.249v-8.463h-7.85v6.65c0 1.63.736 3.089 1.894 4.062z" fill="#A2A2A2"/><path d="M72.681 26.895c0-.721.585-1.306 1.306-1.306h50.85c.721 0 1.306.585 1.306 1.306v3.603c0 .721-.585 1.306-1.306 1.306h-50.85a1.306 1.306 0 0 1-1.306-1.306v-3.603z" fill="#959595"/><path d="M97.063 72.393a.94.94 0 0 1 .914-.72h2.87a.94.94 0 0 1 .914.72l1.888 7.853a.94.94 0 0 1-.914 1.16h-6.646a.94.94 0 0 1-.914-1.16l1.888-7.853z" fill="#fff"/><path d="M99.412 44.22c.113 0 1.115 1.591 2.135 3.26 1.015 1.66-.189 3.776-2.135 3.776-1.946 0-3.15-2.116-2.135-3.777 1.02-1.668 2.022-3.258 2.135-3.258z" fill="#959595"/><path d="M92.42 32.659a5.945 5.945 0 0 0-5.944 5.945v3.616a5.945 5.945 0 1 0 11.89 0v-3.616a5.945 5.945 0 0 0-5.945-5.945zM106.416 32.659a5.946 5.946 0 0 0-5.946 5.945v3.616a5.946 5.946 0 0 0 11.891 0v-3.616a5.945 5.945 0 0 0-5.945-5.945z" fill="#fff"/><path d="M101.427 38.588a2.09 2.09 0 0 0 2.05-2.506 2.712 2.712 0 0 1 2.416 2.695v3.254a2.711 2.711 0 0 1-5.423 0v-3.254c0-.138.011-.273.031-.406.279.139.594.217.926.217zM87.43 38.588a2.09 2.09 0 0 0 2.048-2.506 2.712 2.712 0 0 1 2.417 2.695v3.254a2.711 2.711 0 0 1-5.423 0v-3.254c0-.138.01-.273.03-.406.28.139.594.217.927.217z" fill="#959595"/><path fill-rule="evenodd" clip-rule="evenodd" d="M84.768 46.343a.5.5 0 0 1 .694.134 7.423 7.423 0 0 0 7.8 3.079.5.5 0 1 1 .222.975 8.423 8.423 0 0 1-8.85-3.494.5.5 0 0 1 .134-.694zM114.068 46.343a.5.5 0 0 0-.694.134 7.423 7.423 0 0 1-7.8 3.079.5.5 0 1 0-.222.975 8.422 8.422 0 0 0 8.85-3.494.5.5 0 0 0-.134-.694z" fill="#BFBFBF"/><path d="M98.366 40.367v.055l-.135.008a16.448 16.448 0 0 1-6.922 1.517c-1.665 0-3.322-.246-4.837-.704v-2.168h.004v-.471a5.945 5.945 0 0 1 11.89 0v1.763zM100.47 40.367l.001.055.135.008a16.443 16.443 0 0 0 6.922 1.517c1.664 0 3.322-.246 4.837-.704v-2.168h-.004v-.471a5.945 5.945 0 0 0-11.89 0l-.001 1.763zM82.743 22.188l-6.197 3.527 22.051-2.081 5.725 6.519c.609.693 1.752.262 1.752-.66v-3.778l8.616 3.877c.948.427 1.836-.697 1.203-1.521l-5.233-6.809 7.239-8.405c.656-.763-.097-1.908-1.057-1.607l-12.344 3.87 1.162-8.228c.133-.948-1.013-1.524-1.693-.851l-9.19 9.08-3.481-4.873a1 1 0 0 0-1.753.238l-3.938 10.776-2.668.84c-.067.022-.132.05-.194.086z" fill="#A2A2A2"/><path d="M38.822 64.043C51.246 62.77 62.18 54.007 65.605 41.225 70.035 24.693 60.224 7.7 43.69 3.27 27.16-1.16 10.166 8.651 5.736 25.184 2.31 37.964 7.398 51.02 17.522 58.335a4.236 4.236 0 0 0 1.594 7.365l14.644 3.924a4.236 4.236 0 0 0 5.062-5.581z" fill="#D1D1D1"/><path d="M14.05 55.413c9.628 1.498 17.157 1.154 22.695.116 3.782-.709 6.627-1.74 8.578-2.724.977-.492 1.715-.966 2.23-1.37.546-.43.745-.707.78-.777l2.198 1.087c-.28.566-.827 1.118-1.463 1.618-.668.525-1.55 1.082-2.64 1.632-2.182 1.1-5.252 2.199-9.231 2.945-5.05.946-11.577 1.327-19.64.418a30.832 30.832 0 0 1-3.506-2.945z" fill="#959595"/><path d="M59.144 39.495c-3.473 12.964-16.8 20.657-29.763 17.184-12.965-3.474-20.658-16.8-17.184-29.764C15.67 13.95 28.996 6.257 41.96 9.73c12.965 3.474 20.658 16.8 17.184 29.764z" fill="#B0B0B0"/><path opacity=".9" d="M36.232 40.152c-.31 1.158-1.574 1.825-2.823 1.49-1.248-.334-2.01-1.544-1.7-2.702.311-1.158 3.28-3.568 3.374-3.543.094.026 1.46 3.597 1.15 4.755z" fill="#959595"/><path d="M22.045 37.239a1.428 1.428 0 0 1 1.998-.32l14.023 10.197c.64.465.784 1.363.32 2.004l-.119.165a10.063 10.063 0 0 1-14.085 2.25c-4.513-3.282-5.523-9.608-2.256-14.131l.119-.165z" fill="#959595"/><path d="M30.244 53.456c-2.102.033-4.23-.59-6.062-1.922a10.083 10.083 0 0 1-4.017-6.476 9.981 9.981 0 0 1 6.068 1.917 10.058 10.058 0 0 1 4.011 6.481z" fill="#BFBFBF"/><path d="M31.84 24.262c2.907 2.707 3.844 5.162 3.715 7.203-.02.373-.08.748-.18 1.123-.787 2.934-3.792 4.678-6.712 3.896a5.43 5.43 0 0 1-2.628-1.602c-.389-.4-.672-.697-.898-.933-.821-.863-.865-.909-2.448-2.105a5.38 5.38 0 0 1-.09-.068l-.06-.047a5.503 5.503 0 0 1-1.883-5.735 5.503 5.503 0 0 1 4.576-4.035c2.726-.375 5.452 1.299 6.608 2.303z" fill="#fff"/><path d="M35.552 30.679a5.875 5.875 0 0 1-.177 1.909 5.496 5.496 0 0 1-5.653 4.071 3.569 3.569 0 0 1-1.687-4.028l.577-2.153.012-.043a2.23 2.23 0 0 0 3.146-2.59 3.567 3.567 0 0 1 3.782 2.834z" fill="#959595"/><path d="M43.46 27.375c-3.872.89-5.911 2.549-6.82 4.38a5.552 5.552 0 0 0-.405 1.063c-.786 2.934.944 5.948 3.864 6.73a5.43 5.43 0 0 0 3.077-.074c.537-.151.93-.267 1.244-.36 1.143-.335 1.203-.353 3.173-.598a5.83 5.83 0 0 0 .11-.014l.078-.01a5.503 5.503 0 0 0 4.497-4.025 5.503 5.503 0 0 0-1.945-5.782c-2.173-1.689-5.371-1.601-6.874-1.31z" fill="#fff"/><path d="M52.095 35.03a3.569 3.569 0 0 0-3.464-4.102 2.23 2.23 0 0 1-3.385 2.268l-.017.042-.786 2.086a3.567 3.567 0 0 0 .645 3.599c.61-.165 1-.22 2.505-.407l.11-.014.078-.01a5.503 5.503 0 0 0 4.314-3.461zM53.917 17.15c-9.148 6.662-21.117 9.284-32.9 6.127-3.155-.846-5.526-1.929-6.317-2.365-2.585-1.675-3.522-3.992-3.736-6.052-.21-2.03.282-3.81.457-4.444l.031-.116a1.003 1.003 0 0 1 1.658-.47c.504.476 1.491 1.126 2.616 1.73 1.118.601 2.25 1.092 3.004 1.294.755.202 1.487.302 2.488.108.588-.114 1.287-.333 2.147-.714A24.228 24.228 0 0 1 41.96 9.731a24.188 24.188 0 0 1 11.957 7.419z" fill="#959595"/><path d="M106.085 113.957l-.011-.106c-.008-.091-.016-.183-.031-.274l-.574-5.277h5.45c.794 0 1.412-.689 1.328-1.478l-.35-3.281a1.335 1.335 0 0 0-1.328-1.195h-6.113c-.953 0-1.695.826-1.595 1.773l.663 6.246c-1.028-.415-2.197-.383-3.195.193-1.78 1.027-2.336 3.396-1.243 5.289 1.093 1.894 3.423 2.596 5.203 1.568 1.231-.711 1.876-2.064 1.795-3.457l.001-.001z" fill="#fff"/><path d="M77.03 88.194l2.88 10.743a4.499 4.499 0 0 0-2.224.024c-2.549.683-4.022 3.449-3.291 6.178.731 2.729 3.391 4.388 5.94 3.705 2.549-.683 4.022-3.45 3.29-6.178l-2.313-8.635a.674.674 0 0 1 .477-.826l10.622-2.846c.36-.096.73.118.826.477l1.132 4.227a4.498 4.498 0 0 0-2.222.023c-2.55.683-4.023 3.45-3.291 6.178.73 2.729 3.39 4.388 5.94 3.705 2.549-.683 4.022-3.449 3.29-6.178l-4.059-15.15a1.35 1.35 0 0 0-1.652-.954l-14.39 3.856a1.348 1.348 0 0 0-.954 1.65z" fill="#A2A2A2"/><path d="M64.859 79.297a6.699 6.699 0 0 1-11.6-6.698l-5.373-3.101a2.391 2.391 0 0 0-3.267.875l-19.823 34.335a2.39 2.39 0 0 0 .876 3.267l5.371 3.101a6.699 6.699 0 0 1 11.601 6.698l5.371 3.101a2.391 2.391 0 0 0 3.268-.876l19.823-34.334a2.39 2.39 0 0 0-.876-3.266l-5.371-3.102z" fill="#fff"/><path d="M52.076 110.375L32.735 99.208a.851.851 0 1 0-.851 1.475l19.34 11.166a.851.851 0 1 0 .852-1.474zM63.867 90.1L44.526 78.933a.851.851 0 1 0-.851 1.474l19.341 11.167a.851.851 0 0 0 .851-1.474zM41.289 92.781a1.435 1.435 0 0 1 1.248-2.162l2.74.02c.414.004.81-.172 1.084-.482l1.82-2.05a1.436 1.436 0 0 1 2.441.519l.828 2.613c.124.394.415.717.793.882l2.513 1.096a1.436 1.436 0 0 1 .261 2.483l-2.23 1.594c-.336.24-.553.615-.594 1.027l-.265 2.728a1.436 1.436 0 0 1-2.28 1.016l-2.205-1.628c-.333-.247-.758-.336-1.162-.247l-2.676.59a1.435 1.435 0 0 1-1.67-1.856l.866-2.599a1.44 1.44 0 0 0-.124-1.18L41.29 92.78z" fill="#BFBFBF"/></g><defs><clipPath id="clip0_302_3231"><path fill="#fff" transform="translate(.566 .665)" d="M0 0h135v124H0z"/></clipPath></defs></svg>