<?xml version="1.0" encoding="UTF-8" standalone="no"?>
<svg
   xmlns="http://www.w3.org/2000/svg"
   height="70"
   width="0.85416669in"
   version="1.1"
   id="svg2227"
>
  <metadata
     id="metadata2233">
  </metadata>
  <defs
     id="defs2231" />
  <svg
     x="0"
     y="0"
     width="82"
     height="66"
     viewBox="0 0 82 66"
     version="1.1"
     id="svg1855">
    <title
       id="title1844">cs</title>
  </svg>
  <g
     id="g848"
     transform="translate(26.181094,-51.003186)"
     style="opacity:1">
    <g
       style="fill:none;fill-rule:evenodd;stroke:none;stroke-width:1"
       id="nl"
       transform="translate(-26.181094,51.003186)">
      <g
         style="fill-rule:nonzero"
         transform="translate(6,6)"
         id="g189">
        <path
           style="fill:#1cb0f6;fill-opacity:1;stroke:#ffffff;stroke-width:4"

           id="path183"
           d="M 57.436962,-2 H 12.563038 C 7.6282012,-2 5.8668192,-1.4154874 4.0702583,-0.45467615 2.119529,0.58858529 0.58858529,2.119529 -0.45467615,4.0702583 -1.4154874,5.8668192 -2,7.6282012 -2,12.563038 v 28.873924 c 0,4.934837 0.5845126,6.696219 1.54532385,8.49278 C 0.58858529,51.880471 2.119529,53.411415 4.0702583,54.454676 5.8668192,55.415487 7.6282012,56 12.563038,56 h 44.873924 c 4.934837,0 6.696219,-0.584513 8.49278,-1.545324 1.950729,-1.043261 3.481673,-2.574205 4.524934,-4.524934 C 71.415487,48.133181 72,46.371799 72,41.436962 V 12.563038 C 72,7.6282012 71.415487,5.8668192 70.454676,4.0702583 69.411415,2.119529 67.880471,0.58858529 65.929742,-0.45467615 64.133181,-1.4154874 62.371799,-2 57.436962,-2 Z" />
        <path
           style="fill:#eeeeee;fill-opacity:1"

           id="path185"
           d="m 70,36 v 5.436962 c 0,4.368442 -0.454846,5.952545 -1.30895,7.549582 -0.854105,1.597037 -2.107469,2.850401 -3.704506,3.704506 C 63.389507,53.545155 61.805404,54 57.436962,54 H 12.563038 C 8.1945956,54 6.6104931,53.545155 5.013456,52.69105 3.416419,51.836945 2.163055,50.583581 1.3089503,48.986544 0.45484549,47.389507 0,45.805404 0,41.436962 V 36 Z" />
        <path
           style="fill:#ff4b4b"

           id="path187"
           d="m 12.563038,0 h 44.873924 c 4.368442,0 5.952545,0.45484549 7.549582,1.3089503 C 66.583581,2.163055 67.836945,3.416419 68.69105,5.013456 69.545154,6.6104931 70,8.1945956 70,12.563038 V 18 H 0 V 12.563038 C 0,8.1945956 0.45484549,6.6104931 1.3089503,5.013456 2.163055,3.416419 3.416419,2.163055 5.013456,1.3089503 6.6104931,0.45484549 8.1945956,0 12.563038,0 Z" />
      </g>
    </g>
    <g
       transform="matrix(0.96754265,0,0,0.92935236,-65.299378,54.283746)"
       id="g5399"
       style="">
      <path
         style="opacity:1;fill:#ff4b4b;fill-opacity:1;fill-rule:evenodd;stroke:none;stroke-width:1px;stroke-linecap:butt;stroke-linejoin:miter;stroke-opacity:1"
         d="m 59.003717,22.52897 c 0,0 0.08922,14.156275 0.20393,17.74191 0.114707,3.585635 2.255699,9.952164 10.060541,9.78863 7.804842,-0.163534 10.473139,-6.871422 10.468401,-9.992564 -0.0047,-3.121142 0,-17.605948 0,-17.605948 z"
         id="path5358"
          />
      <path
         style="fill:#ffffff;fill-opacity:1;fill-rule:evenodd;stroke:none;stroke-width:0.69999999;stroke-linecap:butt;stroke-linejoin:miter;stroke-miterlimit:4;stroke-dasharray:none;stroke-opacity:1"
         d="m 62.734375,749.59766 c -4.676366,0.37074 -2.694223,13.18372 -2.363281,18.99023 2.333231,-0.7886 3.269667,-3.32691 4.664062,-5.28906 l -2.644531,6.15429 c 2.444618,-0.31672 3.280327,-1.12337 4.470703,-3.2207 1.578769,2.47541 -0.458395,5.69882 -1.203125,8.31446 1.28178,0.77691 2.703702,0.76953 4.039063,0.76953 1.335361,0 2.563923,0.007 3.845703,-0.76953 -0.74473,-2.61563 -2.781894,-5.83905 -1.203125,-8.31446 1.190376,2.09733 2.026085,2.90397 4.470703,3.2207 l -2.644531,-6.15429 c 1.394395,1.96215 2.330831,4.50045 4.664062,5.28906 0.341617,-5.99382 2.44371,-19.45312 -2.835937,-18.98633 1.218952,2.46005 -0.217825,4.06114 -2.308594,6.29688 -1.521046,-1.16167 -2.315883,-2.36486 -1.537109,-3.6543 l 2.210937,-0.76953 c 1.344271,-1.33038 0.833719,-1.28032 0.529297,-1.63281 -4.226208,-0.99605 -4.671722,1.52682 -5.28711,3.89258 -0.615388,-2.36576 -1.062854,-4.88863 -5.289062,-3.89258 -0.280389,0.47265 -0.814974,0.30243 0.529297,1.63281 l 2.210937,0.76953 c 0.778774,1.28944 -0.01606,2.49263 -1.537109,3.6543 -2.090769,-2.23574 -3.527546,-3.83682 -2.308594,-6.29688 -0.164989,-0.0146 -0.321805,-0.0159 -0.472656,-0.004 z"
         id="path5360"
         transform="translate(0,-726)" />
      <path
         style="fill:#ffc800;fill-opacity:1;fill-rule:evenodd;stroke:none;stroke-width:1px;stroke-linecap:butt;stroke-linejoin:miter;stroke-opacity:1"
         d="M 69.404297,735.24023 68.009786,744.43257 64,739.25 l 0.135973,5.16602 -3.671129,-3.43164 3.280666,7.5953 h 4.111328 3.194902 4.316816 l 3.246678,-7.39223 -3.858065,3.62053 0.322909,-5.35491 -3.805856,5.09956 z"
         transform="translate(0,-726)"
         id="path5378"
          />
    </g>
  </g>
</svg>

