<?xml version="1.0" encoding="UTF-8" standalone="no"?>
<svg
   xmlns:dc="http://purl.org/dc/elements/1.1/"
   xmlns:cc="http://creativecommons.org/ns#"
   xmlns:rdf="http://www.w3.org/1999/02/22-rdf-syntax-ns#"
   xmlns:svg="http://www.w3.org/2000/svg"
   xmlns="http://www.w3.org/2000/svg"
   xmlns:sodipodi="http://sodipodi.sourceforge.net/DTD/sodipodi-0.dtd"
   xmlns:inkscape="http://www.inkscape.org/namespaces/inkscape"
   height="70"
   width="0.85416669in"
   version="1.1"
   id="svg2227"
   sodipodi:docname="flag_sr.svg"
   inkscape:version="0.92.5 (2060ec1f9f, 2020-04-08)">
  <sodipodi:namedview
     pagecolor="#ffffff"
     bordercolor="#666666"
     borderopacity="1"
     objecttolerance="10"
     gridtolerance="10"
     guidetolerance="10"
     inkscape:pageopacity="0"
     inkscape:pageshadow="2"
     inkscape:window-width="1848"
     inkscape:window-height="1016"
     id="namedview17"
     showgrid="false"
     inkscape:zoom="9.53584"
     inkscape:cx="66.622451"
     inkscape:cy="34.431003"
     inkscape:window-x="72"
     inkscape:window-y="27"
     inkscape:window-maximized="1"
     inkscape:current-layer="g848" />
  <metadata
     id="metadata2233">
    <rdf:RDF>
      <cc:Work
         rdf:about="">
        <dc:format>image/svg+xml</dc:format>
        <dc:type
           rdf:resource="http://purl.org/dc/dcmitype/StillImage" />
        <dc:title></dc:title>
      </cc:Work>
    </rdf:RDF>
  </metadata>
  <defs
     id="defs2231" />
  <svg
     x="0"
     y="0"
     width="82"
     height="66"
     viewBox="0 0 82 66"
     version="1.1"
     id="svg1855">
    <title
       id="title1844">cs</title>
  </svg>
  <g
     id="g848"
     transform="translate(26.181094,-51.003186)"
     style="opacity:1">
    <g
       style="fill:none;fill-rule:evenodd;stroke:none;stroke-width:1"
       id="nl"
       transform="translate(-26.181094,51.003186)">
      <g
         style="fill-rule:nonzero"
         transform="translate(6,6)"
         id="g189">
        <path
           style="fill:#ffffff;fill-opacity:1;stroke:#ffffff;stroke-width:4"
           id="path183"
           d="M 57.436962,-2 H 12.563038 C 7.6282012,-2 5.8668192,-1.4154874 4.0702583,-0.45467615 2.119529,0.58858529 0.58858529,2.119529 -0.45467615,4.0702583 -1.4154874,5.8668192 -2,7.6282012 -2,12.563038 v 28.873924 c 0,4.934837 0.5845126,6.696219 1.54532385,8.49278 C 0.58858529,51.880471 2.119529,53.411415 4.0702583,54.454676 5.8668192,55.415487 7.6282012,56 12.563038,56 h 44.873924 c 4.934837,0 6.696219,-0.584513 8.49278,-1.545324 1.950729,-1.043261 3.481673,-2.574205 4.524934,-4.524934 C 71.415487,48.133181 72,46.371799 72,41.436962 V 12.563038 C 72,7.6282012 71.415487,5.8668192 70.454676,4.0702583 69.411415,2.119529 67.880471,0.58858529 65.929742,-0.45467615 64.133181,-1.4154874 62.371799,-2 57.436962,-2 Z" />
        <path
           style="fill:#78c800;fill-opacity:1"
           id="path185"
           d="m 70,36 v 5.436962 c 0,4.368442 -0.454846,5.952545 -1.30895,7.549582 -0.854105,1.597037 -2.107469,2.850401 -3.704506,3.704506 C 63.389507,53.545155 61.805404,54 57.436962,54 H 12.563038 C 8.1945956,54 6.6104931,53.545155 5.013456,52.69105 3.416419,51.836945 2.163055,50.583581 1.3089503,48.986544 0.45484549,47.389507 0,45.805404 0,41.436962 V 36 Z" />
        <path
           style="fill:#1cb0f6;fill-opacity:1"
           id="path187"
           d="m 12.563038,0 h 44.873924 c 4.368442,0 5.952545,0.45484549 7.549582,1.3089503 C 66.583581,2.163055 67.836945,3.416419 68.69105,5.013456 69.545154,6.6104931 70,8.1945956 70,12.563038 V 18 H 0 V 12.563038 C 0,8.1945956 0.45484549,6.6104931 1.3089503,5.013456 2.163055,3.416419 3.416419,2.163055 5.013456,1.3089503 6.6104931,0.45484549 8.1945956,0 12.563038,0 Z" />
        <rect
           style="opacity:1;fill:#ff4b4b;fill-opacity:1;stroke:none;stroke-width:1.33849466;stroke-linejoin:round;stroke-miterlimit:4;stroke-dasharray:none;stroke-dashoffset:17.5748024;stroke-opacity:1"
           id="rect5093"
           width="70"
           height="2.3474576"
           x="3.3306691e-16"
           y="18" />
        <rect
           style="opacity:1;fill:#ff4b4b;fill-opacity:1;fill-rule:nonzero;stroke:none;stroke-width:1.33849466;stroke-linejoin:round;stroke-miterlimit:4;stroke-dasharray:none;stroke-dashoffset:17.5748024;stroke-opacity:1"
           id="rect5093-5"
           width="70"
           height="2.3474576"
           x="0"
           y="36" />
      </g>
    </g>
    <path
       inkscape:connector-curvature="0"
       style="fill:#ffffff;fill-rule:nonzero;stroke-width:0.4423348"
       d="m -2.0082954,60.77062 c -0.3868515,-0.09853 -0.7277328,-0.147797 -1.0226432,-0.147797 -2.9315371,0 -5.3080176,2.376479 -5.3080176,5.308017 0,2.931536 2.3764805,5.308019 5.3080176,5.308019 0.2949008,0 0.6357686,-0.04927 1.0226038,-0.147789 l -6e-6,-2.1e-5 c 0.2367493,-0.0603 0.4775533,0.08274 0.5378523,0.319491 0.045309,0.177902 -0.023966,0.365303 -0.1741089,0.47095 -1.067476,0.751137 -2.4142592,1.126707 -4.04035,1.126707 -3.9087164,0 -7.0773576,-3.168641 -7.0773576,-7.077357 0,-3.908717 3.1686412,-7.077357 7.0773576,-7.077357 1.6261083,0 2.9729027,0.375577 4.0403843,1.126731 l 2.8e-6,-5e-6 c 0.199792,0.140588 0.2477871,0.41652 0.1071996,0.616312 -0.1056445,0.150132 -0.2930385,0.219411 -0.4709347,0.174099 z"
       id="path173" />
    <path
       inkscape:connector-curvature="0"
       style="fill:#ffffff;fill-rule:nonzero;stroke-width:0.4423348"
       d="M 4.8473376,71.729109 3.9462179,72.202136 C 3.6448128,72.360353 3.2722143,72.244277 3.1139978,71.942867 3.0507832,71.822435 3.0291717,71.684476 3.0525425,71.550482 L 3.2309493,70.52763 C 3.2558078,70.385121 3.2094054,70.239462 3.1067027,70.137584 L 2.375647,69.412419 C 2.1319806,69.170718 2.1303897,68.777248 2.3720907,68.533584 2.4674839,68.43741 2.5916819,68.37505 2.7257859,68.355979 l 1.0068445,-0.143196 c 0.1444866,-0.02056 0.2695338,-0.11104 0.3342228,-0.241858 l 0.4546645,-0.919448 c 0.1507544,-0.304865 0.5201082,-0.429796 0.8249749,-0.279041 0.1227283,0.06069 0.2217291,0.160557 0.2813659,0.283792 l 0.4467509,0.923319 c 0.063562,0.131373 0.1878314,0.22293 0.3321328,0.244718 l 1.0055763,0.151847 c 0.3393618,0.05124 0.5729303,0.367888 0.5216888,0.707254 -0.020222,0.133936 -0.083651,0.257594 -0.1806362,0.352154 L 7.016115,70.154378 C 6.9125481,70.255365 6.8648902,70.400623 6.8885214,70.54334 l 0.1696152,1.024348 c 0.055609,0.335836 -0.171547,0.653167 -0.5073973,0.708774 -0.1341851,0.02221 -0.2719604,-5.86e-4 -0.3918425,-0.06482 L 5.2618708,71.7309 c -0.12933,-0.06932 -0.2845836,-0.0701 -0.4145385,-0.0018 z"
       id="Star-2" />
    <path
       inkscape:connector-curvature="0"
       style="opacity:1;fill:#ffffff;fill-rule:nonzero;stroke-width:0.4423348"
       d="m 13.208856,71.849564 -0.900214,0.474749 c -0.301102,0.158795 -0.673921,0.04343 -0.832714,-0.257675 -0.06346,-0.120314 -0.08532,-0.25823 -0.06221,-0.392268 l 0.176445,-1.023192 c 0.0246,-0.142553 -0.0221,-0.288128 -0.124994,-0.389807 l -0.732436,-0.723762 c -0.244128,-0.241236 -0.246473,-0.634701 -0.0052,-0.878829 0.0952,-0.09636 0.219288,-0.158953 0.353356,-0.178282 l 1.006567,-0.145121 c 0.144443,-0.02084 0.269321,-0.111557 0.33376,-0.242497 l 0.452903,-0.920316 c 0.15017,-0.305153 0.519286,-0.430791 0.824439,-0.280621 0.12284,0.06045 0.222037,0.160134 0.28191,0.283255 l 0.448516,0.922461 c 0.06381,0.13125 0.188258,0.22257 0.332601,0.244084 l 1.005865,0.149921 c 0.33946,0.05059 0.573634,0.366792 0.523042,0.706254 -0.01998,0.133973 -0.08312,0.257763 -0.179968,0.352499 l -0.73588,0.720266 c -0.103377,0.101184 -0.150763,0.246531 -0.126849,0.389205 l 0.171575,1.024022 c 0.05625,0.335729 -0.170345,0.653481 -0.506039,0.709743 -0.134141,0.02246 -0.271961,-6.6e-5 -0.391966,-0.06407 L 13.623385,71.850557 C 13.493923,71.781486 13.33867,71.781 13.208848,71.849559 Z"
       id="Star-2-6" />
  </g>
</svg>
