<?xml version="1.0" encoding="UTF-8" standalone="no"?>
<svg
   xmlns="http://www.w3.org/2000/svg"
   height="70"
   width="0.85416669in"
   version="1.1"
   id="svg2227"
>
  <metadata
     id="metadata2233">
  </metadata>
  <defs
     id="defs2231" />
  <svg
     x="0"
     y="0"
     width="82"
     height="66"
     viewBox="0 0 82 66"
     version="1.1"
     id="svg1855">
    <title
       id="title1844">cs</title>
  </svg>
  <g
     transform="translate(-1e-6)"
     id="bn"
     style="opacity:1;fill:none;fill-rule:evenodd;stroke:none;stroke-width:1">
    <g
       id="g70"
       transform="translate(6,6)"
       style="">
      <path
         d="M 57.436963,-2 H 12.563037 C 7.6282011,-2 5.8668191,-1.4154874 4.0702582,-0.45467617 2.119529,0.58858525 0.58858525,2.119529 -0.45467617,4.0702582 -1.4154874,5.8668191 -2,7.6282011 -2,12.563037 v 28.873926 c 0,4.934836 0.5845126,6.696218 1.54532383,8.492779 C 0.58858525,51.880471 2.119529,53.411415 4.0702582,54.454676 5.8668191,55.415487 7.6282011,56 12.563037,56 h 44.873926 c 4.934836,0 6.696218,-0.584513 8.492779,-1.545324 1.950729,-1.043261 3.481673,-2.574205 4.524934,-4.524934 C 71.415487,48.133181 72,46.371799 72,41.436963 V 12.563037 C 72,7.6282011 71.415487,5.8668191 70.454676,4.0702582 69.411415,2.119529 67.880471,0.58858525 65.929742,-0.45467617 64.133181,-1.4154874 62.371799,-2 57.436963,-2 Z"
         id="path67"
         style="fill:#78c800;fill-opacity:1;stroke:#ffffff;stroke-width:4" />
      <circle
         id="Oval-19"
         cx="29"
         cy="27"
         r="14"
         style="fill:#ff4b4b;fill-rule:nonzero" />
    </g>
  </g>
</svg>
