<?xml version="1.0" encoding="UTF-8" standalone="no"?>
<svg
   xmlns="http://www.w3.org/2000/svg"
   height="70"
   width="0.85416669in"
   version="1.1"
   id="svg2227">
  <metadata
     id="metadata2233">

  </metadata>
  <defs
     id="defs2231" />

  <svg
     x="0"
     y="0"
     width="82"
     height="66"
     viewBox="0 0 82 66"
     version="1.1"
     id="svg1855"
     >
    <title
       id="title1844">cs</title>
    <g
       id="cs"
       style="fill:none;fill-rule:evenodd;stroke:none;stroke-width:1">
      <g
         id="g1852"
         transform="translate(6,6)"
         style="fill-rule:nonzero">
        <path
           d="M 57.436962,-2 H 12.563038 C 7.6282012,-2 5.8668192,-1.4154874 4.0702583,-0.45467615 2.119529,0.58858529 0.58858529,2.119529 -0.45467615,4.0702583 -1.4154874,5.8668192 -2,7.6282012 -2,12.563038 v 28.873924 c 0,4.934837 0.5845126,6.696219 1.54532385,8.49278 C 0.58858529,51.880471 2.119529,53.411415 4.0702583,54.454676 5.8668192,55.415487 7.6282012,56 12.563038,56 h 44.873924 c 4.934837,0 6.696219,-0.584513 8.49278,-1.545324 1.950729,-1.043261 3.481673,-2.574205 4.524934,-4.524934 C 71.415487,48.133181 72,46.371799 72,41.436962 V 12.563038 C 72,7.6282012 71.415487,5.8668192 70.454676,4.0702583 69.411415,2.119529 67.880471,0.58858529 65.929742,-0.45467615 64.133181,-1.4154874 62.371799,-2 57.436962,-2 Z"
           id="path1846"
           style="fill:#1cb0f6;fill-opacity:1;stroke:#ffffff;stroke-width:4" />
        <path
           d="m 70,27 v 14.436962 c 0,4.368442 -0.454846,5.952545 -1.30895,7.549582 -0.854105,1.597037 -2.107469,2.850401 -3.704506,3.704506 C 63.389507,53.545155 61.805404,54 57.436962,54 H 12.563038 C 8.1945956,54 6.6104931,53.545155 5.013456,52.69105 3.416419,51.836945 2.163055,50.583581 1.3089503,48.986544 0.45484549,47.389507 0,45.805404 0,41.436962 V 27 Z"
           id="path1848"
           style="fill:#ff4b4b" />
        <path
           d="M 3.2672439,51.479555 C 2.4785596,50.780474 1.8217841,49.94546 1.3089503,48.986544 0.45484549,47.389507 0,45.805404 0,41.436962 V 12.563038 C 0,8.1945956 0.45484549,6.6104931 1.3089503,5.013456 1.8217841,4.05454 2.4785596,3.2195255 3.2672439,2.5204453 L 35,27 Z"
           id="path1850"
           style="fill:#eeeeee;fill-opacity:1" />
        <g
           id="g2847"
           transform="translate(-6.2343539,-1854.6372)">
          <path

             id="path1538-0"
             d="m 10.163069,1865.5 -1.2819642,0.1969 c -0.402538,0.062 -0.778981,-0.2144 -0.84081,-0.6169 -0.02462,-0.1603 0.0043,-0.3242 0.08225,-0.4664 l 0.62349,-1.1373 c 0.05933,-0.1083 0.06161,-0.2388 0.0061,-0.349 l -0.583419,-1.1584 c -0.183194,-0.3637 -0.03684,-0.8071 0.326889,-0.9903 0.144839,-0.073 0.309686,-0.096 0.469022,-0.066 l 1.2743112,0.2415 c 0.121265,0.023 0.246075,-0.015 0.333756,-0.102 l 0.921391,-0.9128 c 0.289317,-0.2866 0.756212,-0.2845 1.042838,0 0.114136,0.1152 0.187111,0.2648 0.207626,0.4257 l 0.164077,1.2865 c 0.01561,0.1225 0.09047,0.2294 0.200182,0.2859 l 1.15287,0.5942 c 0.362002,0.1866 0.504206,0.6313 0.317621,0.9933 -0.0743,0.1442 -0.194046,0.2598 -0.340702,0.3291 l -1.172906,0.5536 c -0.111615,0.053 -0.19016,0.1569 -0.210037,0.2787 l -0.208878,1.2801 c -0.06559,0.4019 -0.444596,0.6746 -0.846537,0.609 -0.160056,-0.026 -0.307037,-0.1043 -0.418192,-0.2224 l -0.888973,-0.9444 c -0.0846,-0.09 -0.207998,-0.1323 -0.329991,-0.1136 z"
             style="fill:#ffc300;fill-rule:nonzero;stroke:none;stroke-width:1" />
          <path

             id="path1542-3"
             d="m 10.027125,1901.0954 -1.2819645,0.1969 c -0.402537,0.062 -0.77898,-0.2144 -0.840809,-0.6169 -0.02462,-0.1603 0.0043,-0.3243 0.08225,-0.4665 l 0.62349,-1.1373 c 0.05933,-0.1082 0.06161,-0.2387 0.0061,-0.3489 l -0.583419,-1.1584 c -0.183194,-0.3637 -0.03684,-0.8071 0.326889,-0.9903 0.144839,-0.073 0.309686,-0.096 0.469022,-0.066 l 1.2743105,0.2415 c 0.121266,0.023 0.246074,-0.015 0.333756,-0.102 l 0.921391,-0.9128 c 0.289317,-0.2867 0.756212,-0.2845 1.042838,0 0.114137,0.1152 0.187111,0.2649 0.207626,0.4257 l 0.164077,1.2866 c 0.01561,0.1224 0.09047,0.2293 0.200182,0.2859 l 1.15287,0.5942 c 0.362003,0.1866 0.504205,0.6313 0.317621,0.9933 -0.0743,0.1442 -0.194046,0.2598 -0.340702,0.329 l -1.172906,0.5536 c -0.111614,0.053 -0.19016,0.157 -0.210037,0.2788 l -0.208878,1.28 c -0.06559,0.402 -0.444595,0.6747 -0.846537,0.6091 -0.160058,-0.026 -0.307047,-0.1043 -0.418193,-0.2224 l -0.888972,-0.9444 c -0.0846,-0.09 -0.207999,-0.1324 -0.329991,-0.1136 z"
             style="fill:#ffc300;fill-rule:nonzero;stroke:none;stroke-width:1" />
          <path

             id="path1544-0"
             d="m 32.947495,1883.9413 -1.148014,0.6035 c -0.360476,0.1896 -0.806332,0.051 -0.995846,-0.3095 -0.07547,-0.1436 -0.101507,-0.308 -0.07409,-0.4678 l 0.219251,-1.2783 c 0.02086,-0.1217 -0.01947,-0.2458 -0.107849,-0.332 l -0.928763,-0.9053 c -0.291632,-0.2843 -0.297599,-0.7511 -0.01333,-1.0427 0.113198,-0.1162 0.261522,-0.1918 0.422009,-0.2151 l 1.283518,-0.1865 c 0.122141,-0.018 0.227729,-0.094 0.282352,-0.2051 l 0.574007,-1.1631 c 0.180238,-0.3652 0.622406,-0.5151 0.987609,-0.3349 0.145425,0.072 0.263136,0.1895 0.334907,0.3349 l 0.574007,1.1631 c 0.05462,0.1107 0.160211,0.1874 0.282352,0.2051 l 1.283519,0.1865 c 0.403025,0.059 0.682267,0.4328 0.623704,0.8358 -0.02332,0.1605 -0.0989,0.3088 -0.215024,0.422 l -0.928763,0.9053 c -0.08838,0.086 -0.128713,0.2103 -0.107849,0.332 l 0.219251,1.2783 c 0.06885,0.4014 -0.200741,0.7826 -0.602138,0.8514 -0.159838,0.027 -0.324256,0 -0.4678,-0.074 l -1.148014,-0.6035 c -0.109246,-0.057 -0.239759,-0.057 -0.349006,0 z"
             style="fill:#ffc300;fill-rule:nonzero;stroke:none;stroke-width:1" />
          <path

             d="m 23.813898,1887.8378 c -0.74121,0.7114 -4.467091,-3.1031 -5.409419,-2.6939 -0.910282,0.3953 -0.432056,5.6816 -1.424237,5.6612 -1.027111,-0.021 -0.96448,-5.353 -1.920134,-5.73 -0.923155,-0.3641 -4.323,3.712 -5.010153,2.996 -0.7113444,-0.7412 3.10311,-4.4671 2.693939,-5.4094 -0.395256,-0.9103 -5.6815888,-0.432 -5.6611887,-1.4242 0.021118,-1.0271 5.3529407,-0.9645 5.7299397,-1.9202 0.364178,-0.9231 -3.7119806,-4.323 -2.9959774,-5.0101 0.7412104,-0.7114 4.4670914,3.1031 5.4094194,2.6939 0.910281,-0.3952 0.432055,-5.6816 1.424237,-5.6612 1.027111,0.021 0.96448,5.353 1.920134,5.73 0.923155,0.3641 4.323,-3.712 5.010153,-2.996 0.711344,0.7412 -3.103111,4.4671 -2.693939,5.4094 0.395256,0.9103 5.681588,0.4321 5.661188,1.4243 -0.02112,1.0271 -5.35294,0.9644 -5.729939,1.9201 -0.364178,0.9231 3.71198,4.323 2.995977,5.0101 z"

             id="path2837"
             style="fill:#ffc300;fill-opacity:1;stroke:#ffc300;stroke-width:0.85968417;stroke-linecap:round;stroke-linejoin:round;stroke-miterlimit:4;stroke-dasharray:none;stroke-dashoffset:0;stroke-opacity:1"
              />
        </g>
      </g>
    </g>
  </svg>
</svg>
