<?xml version="1.0" encoding="UTF-8" standalone="no"?>
<svg
   xmlns:dc="http://purl.org/dc/elements/1.1/"
   xmlns:cc="http://creativecommons.org/ns#"
   xmlns:rdf="http://www.w3.org/1999/02/22-rdf-syntax-ns#"
   xmlns:svg="http://www.w3.org/2000/svg"
   xmlns="http://www.w3.org/2000/svg"
   xmlns:sodipodi="http://sodipodi.sourceforge.net/DTD/sodipodi-0.dtd"
   xmlns:inkscape="http://www.inkscape.org/namespaces/inkscape"
   height="70"
   width="0.85416669in"
   version="1.1"
   id="svg2227"
   sodipodi:docname="flag_fy.svg"
   inkscape:version="0.92.5 (2060ec1f9f, 2020-04-08)"
   inkscape:export-filename="D:\OneDrive - 1CLICK IT LLC\Pictures\flags\flag_ml.png"
   inkscape:export-xdpi="256.95001"
   inkscape:export-ydpi="256.95001">
  <sodipodi:namedview
     pagecolor="#ffffff"
     bordercolor="#666666"
     borderopacity="1"
     objecttolerance="10"
     gridtolerance="10"
     guidetolerance="10"
     inkscape:pageopacity="0"
     inkscape:pageshadow="2"
     inkscape:window-width="1848"
     inkscape:window-height="1016"
     id="namedview5298"
     showgrid="false"
     inkscape:zoom="4.3234529"
     inkscape:cx="45.464273"
     inkscape:cy="28.039287"
     inkscape:window-x="72"
     inkscape:window-y="27"
     inkscape:window-maximized="1"
     inkscape:current-layer="g1852"
     showguides="false"
     inkscape:pagecheckerboard="1"
     inkscape:document-units="in" />
  <metadata
     id="metadata2233">
    <rdf:RDF>
      <cc:Work
         rdf:about="">
        <dc:format>image/svg+xml</dc:format>
        <dc:type
           rdf:resource="http://purl.org/dc/dcmitype/StillImage" />
        <dc:title></dc:title>
      </cc:Work>
    </rdf:RDF>
  </metadata>
  <defs
     id="defs2231" />
  <svg
     x="0"
     y="0"
     width="82"
     height="66"
     viewBox="0 0 82 66"
     version="1.1"
     id="svg1855">
    <title
       id="title1844">cs</title>
    <g
       id="cs"
       style="fill:none;fill-rule:evenodd;stroke:none;stroke-width:1">
      <g
         id="g1852"
         transform="translate(6,6)"
         style="display:inline;fill-rule:nonzero">
        <g
           transform="matrix(0.81675954,0,0,0.81675954,-38.845028,-175.43867)"
           id="g4818">
          <rect
             ry="16.600447"
             y="210.07536"
             x="42.662529"
             height="75.735397"
             width="95.499344"
             id="rect262"
             style="fill:#ffffff;fill-rule:evenodd;stroke-width:0.21890099" />
          <rect
             ry="14.724696"
             y="214.23395"
             x="48.189087"
             height="67.17775"
             width="84.708"
             id="rect903"
             style="fill:#1cb0f6;fill-opacity:1;fill-rule:evenodd;stroke:#1cb0f6;stroke-width:0.194167;stroke-opacity:1" />
          <path
             inkscape:connector-curvature="0"
             id="path726"
             d="m 44.512646,256.62101 34.76314,26.94181 27.503924,1.72589 -62.8947,-46.74151 -0.892581,18.40552 z"
             style="fill:#ffffff;stroke:#ffffff;stroke-width:0.39366701px;stroke-linecap:butt;stroke-linejoin:miter;stroke-opacity:1" />
          <path
             inkscape:connector-curvature="0"
             id="path7489"
             d="m 136.41436,239.4289 -34.87666,-26.79491 -27.510976,-1.60983 63.091516,46.47574 0.81492,-18.40913 z"
             style="fill:#ffffff;stroke:#ffffff;stroke-width:0.39366701px;stroke-linecap:butt;stroke-linejoin:miter;stroke-opacity:1" />
          <path
             inkscape:connector-curvature="0"
             sodipodi:nodetypes="ccccc"
             id="path7604"
             d="m 46.877561,224.68142 76.533609,57.06474 c 6.46689,-1.92444 12.41813,-1.33751 10.65187,-10.61395 L 58.710259,214.67194 c -6.630726,1.68783 -12.063554,4.39248 -11.832692,10.00947 z"
             style="fill:#ffffff;stroke:#f7f7f7;stroke-width:0.23962399px;stroke-linecap:butt;stroke-linejoin:miter;stroke-opacity:1" />
          <ellipse
             inkscape:transform-center-y="-0.17710873"
             inkscape:transform-center-x="1.6589464"
             transform="rotate(-48.460186)"
             ry="2.6585476"
             rx="5.3171186"
             cy="229.14578"
             cx="-98.067169"
             id="path17100"
             style="fill:#ff4b4b;fill-opacity:1;stroke:#ff4b4b;stroke-width:0.176962;stroke-opacity:1" />
          <ellipse
             inkscape:transform-center-y="-4.6192573"
             inkscape:transform-center-x="7.314224"
             cx="-110.79519"
             cy="216.08928"
             rx="5.3170953"
             ry="2.6585476"
             transform="rotate(-51.677616)"
             id="ellipse17182"
             style="fill:#ff4b4b;fill-opacity:1;stroke:#ff4b4b;stroke-width:0.176962;stroke-opacity:1" />
          <path
             inkscape:transform-center-y="0.22223685"
             inkscape:transform-center-x="6.576798"
             d="m 220.32431,122.69419 a 5.3170953,3.4089723 0 0 1 -5.25597,3.40875 5.3170953,3.4089723 0 0 1 -5.37681,-3.33038 5.3170953,3.4089723 0 0 1 5.13235,-3.48531 5.3170953,3.4089723 0 0 1 5.49481,3.25024 l -5.31147,0.1567 z"
             sodipodi:arc-type="slice"
             sodipodi:end="6.237202"
             sodipodi:start="0"
             sodipodi:ry="3.4089723"
             sodipodi:rx="5.3170953"
             sodipodi:cy="122.69419"
             sodipodi:cx="215.00722"
             sodipodi:type="arc"
             transform="rotate(36.06659)"
             id="ellipse136"
             style="fill:#ff4b4b;fill-opacity:1;stroke:#ff4b4b;stroke-width:0.20132001;stroke-opacity:1" />
          <g
             id="g430">
            <ellipse
               inkscape:transform-center-y="-0.17710873"
               inkscape:transform-center-x="1.6589464"
               transform="rotate(-48.460186)"
               ry="2.6585476"
               rx="5.3171186"
               cy="229.14578"
               cx="-98.067169"
               id="ellipse421"
               style="fill:#ff4b4b;fill-opacity:1;stroke:#ff4b4b;stroke-width:0.176962;stroke-opacity:1" />
            <ellipse
               inkscape:transform-center-y="-4.6192573"
               inkscape:transform-center-x="7.314224"
               cx="-110.79519"
               cy="216.08928"
               rx="5.3170953"
               ry="2.6585476"
               transform="rotate(-51.677616)"
               id="ellipse423"
               style="fill:#ff4b4b;fill-opacity:1;stroke:#ff4b4b;stroke-width:0.176962;stroke-opacity:1" />
            <path
               inkscape:transform-center-y="0.22223685"
               inkscape:transform-center-x="6.576798"
               d="m 220.32431,122.69419 a 5.3170953,3.4089723 0 0 1 -5.25597,3.40875 5.3170953,3.4089723 0 0 1 -5.37681,-3.33038 5.3170953,3.4089723 0 0 1 5.13235,-3.48531 5.3170953,3.4089723 0 0 1 5.49481,3.25024 l -5.31147,0.1567 z"
               sodipodi:arc-type="slice"
               sodipodi:end="6.237202"
               sodipodi:start="0"
               sodipodi:ry="3.4089723"
               sodipodi:rx="5.3170953"
               sodipodi:cy="122.69419"
               sodipodi:cx="215.00722"
               sodipodi:type="arc"
               transform="rotate(36.06659)"
               id="path425"
               style="fill:#ff4b4b;fill-opacity:1;stroke:#ff4b4b;stroke-width:0.20132001;stroke-opacity:1" />
          </g>
          <g
             transform="translate(20.218731,14.681653)"
             id="g438">
            <ellipse
               inkscape:transform-center-y="-0.17710873"
               inkscape:transform-center-x="1.6589464"
               transform="rotate(-48.460186)"
               ry="2.6585476"
               rx="5.3171186"
               cy="229.14578"
               cx="-98.067169"
               id="ellipse432"
               style="fill:#ff4b4b;fill-opacity:1;stroke:#ff4b4b;stroke-width:0.176962;stroke-opacity:1" />
            <ellipse
               inkscape:transform-center-y="-4.6192573"
               inkscape:transform-center-x="7.314224"
               cx="-110.79519"
               cy="216.08928"
               rx="5.3170953"
               ry="2.6585476"
               transform="rotate(-51.677616)"
               id="ellipse434"
               style="fill:#ff4b4b;fill-opacity:1;stroke:#ff4b4b;stroke-width:0.176962;stroke-opacity:1" />
            <path
               inkscape:transform-center-y="0.22223685"
               inkscape:transform-center-x="6.576798"
               d="m 220.32431,122.69419 a 5.3170953,3.4089723 0 0 1 -5.25597,3.40875 5.3170953,3.4089723 0 0 1 -5.37681,-3.33038 5.3170953,3.4089723 0 0 1 5.13235,-3.48531 5.3170953,3.4089723 0 0 1 5.49481,3.25024 l -5.31147,0.1567 z"
               sodipodi:arc-type="slice"
               sodipodi:end="6.237202"
               sodipodi:start="0"
               sodipodi:ry="3.4089723"
               sodipodi:rx="5.3170953"
               sodipodi:cy="122.69419"
               sodipodi:cx="215.00722"
               sodipodi:type="arc"
               transform="rotate(36.06659)"
               id="path436"
               style="fill:#ff4b4b;fill-opacity:1;stroke:#ff4b4b;stroke-width:0.20132001;stroke-opacity:1" />
          </g>
          <g
             transform="translate(-42.782226,1.6633352)"
             id="g618">
            <ellipse
               inkscape:transform-center-y="-0.17710873"
               inkscape:transform-center-x="1.6589464"
               transform="rotate(-48.460186)"
               ry="2.6585476"
               rx="5.3171186"
               cy="229.14578"
               cx="-98.067169"
               id="ellipse612"
               style="fill:#ff4b4b;fill-opacity:1;stroke:#ff4b4b;stroke-width:0.176962;stroke-opacity:1" />
            <ellipse
               inkscape:transform-center-y="-4.6192573"
               inkscape:transform-center-x="7.314224"
               cx="-110.79519"
               cy="216.08928"
               rx="5.3170953"
               ry="2.6585476"
               transform="rotate(-51.677616)"
               id="ellipse614"
               style="fill:#ff4b4b;fill-opacity:1;stroke:#ff4b4b;stroke-width:0.176962;stroke-opacity:1" />
            <path
               inkscape:transform-center-y="0.22223685"
               inkscape:transform-center-x="6.576798"
               d="m 220.32431,122.69419 a 5.3170953,3.4089723 0 0 1 -5.25597,3.40875 5.3170953,3.4089723 0 0 1 -5.37681,-3.33038 5.3170953,3.4089723 0 0 1 5.13235,-3.48531 5.3170953,3.4089723 0 0 1 5.49481,3.25024 l -5.31147,0.1567 z"
               sodipodi:arc-type="slice"
               sodipodi:end="6.237202"
               sodipodi:start="0"
               sodipodi:ry="3.4089723"
               sodipodi:rx="5.3170953"
               sodipodi:cy="122.69419"
               sodipodi:cx="215.00722"
               sodipodi:type="arc"
               transform="rotate(36.06659)"
               id="path616"
               style="fill:#ff4b4b;fill-opacity:1;stroke:#ff4b4b;stroke-width:0.20132001;stroke-opacity:1" />
          </g>
          <g
             transform="translate(-12.795615,24.696971)"
             id="g626">
            <ellipse
               inkscape:transform-center-y="-0.17710873"
               inkscape:transform-center-x="1.6589464"
               transform="rotate(-48.460186)"
               ry="2.6585476"
               rx="5.3171186"
               cy="229.14578"
               cx="-98.067169"
               id="ellipse620"
               style="fill:#ff4b4b;fill-opacity:1;stroke:#ff4b4b;stroke-width:0.176962;stroke-opacity:1" />
            <ellipse
               inkscape:transform-center-y="-4.6192573"
               inkscape:transform-center-x="7.314224"
               cx="-110.79519"
               cy="216.08928"
               rx="5.3170953"
               ry="2.6585476"
               transform="rotate(-51.677616)"
               id="ellipse622"
               style="fill:#ff4b4b;fill-opacity:1;stroke:#ff4b4b;stroke-width:0.176962;stroke-opacity:1" />
            <path
               inkscape:transform-center-y="0.22223685"
               inkscape:transform-center-x="6.576798"
               d="m 220.32431,122.69419 a 5.3170953,3.4089723 0 0 1 -5.25597,3.40875 5.3170953,3.4089723 0 0 1 -5.37681,-3.33038 5.3170953,3.4089723 0 0 1 5.13235,-3.48531 5.3170953,3.4089723 0 0 1 5.49481,3.25024 l -5.31147,0.1567 z"
               sodipodi:arc-type="slice"
               sodipodi:end="6.237202"
               sodipodi:start="0"
               sodipodi:ry="3.4089723"
               sodipodi:rx="5.3170953"
               sodipodi:cy="122.69419"
               sodipodi:cx="215.00722"
               sodipodi:type="arc"
               transform="rotate(36.06659)"
               id="path624"
               style="fill:#ff4b4b;fill-opacity:1;stroke:#ff4b4b;stroke-width:0.20132001;stroke-opacity:1" />
          </g>
          <g
             transform="translate(15.606798,45.473145)"
             id="g794">
            <ellipse
               inkscape:transform-center-y="-0.17710873"
               inkscape:transform-center-x="1.6589464"
               transform="rotate(-48.460186)"
               ry="2.6585476"
               rx="5.3171186"
               cy="229.14578"
               cx="-98.067169"
               id="ellipse788"
               style="fill:#ff4b4b;fill-opacity:1;stroke:#ff4b4b;stroke-width:0.176962;stroke-opacity:1" />
            <ellipse
               inkscape:transform-center-y="-4.6192573"
               inkscape:transform-center-x="7.314224"
               cx="-110.79519"
               cy="216.08928"
               rx="5.3170953"
               ry="2.6585476"
               transform="rotate(-51.677616)"
               id="ellipse790"
               style="fill:#ff4b4b;fill-opacity:1;stroke:#ff4b4b;stroke-width:0.176962;stroke-opacity:1" />
            <path
               inkscape:transform-center-y="0.22223685"
               inkscape:transform-center-x="6.576798"
               d="m 220.32431,122.69419 a 5.3170953,3.4089723 0 0 1 -5.25597,3.40875 5.3170953,3.4089723 0 0 1 -5.37681,-3.33038 5.3170953,3.4089723 0 0 1 5.13235,-3.48531 5.3170953,3.4089723 0 0 1 5.49481,3.25024 l -5.31147,0.1567 z"
               sodipodi:arc-type="slice"
               sodipodi:end="6.237202"
               sodipodi:start="0"
               sodipodi:ry="3.4089723"
               sodipodi:rx="5.3170953"
               sodipodi:cy="122.69419"
               sodipodi:cx="215.00722"
               sodipodi:type="arc"
               transform="rotate(36.06659)"
               id="path792"
               style="fill:#ff4b4b;fill-opacity:1;stroke:#ff4b4b;stroke-width:0.20132001;stroke-opacity:1" />
          </g>
          <g
             transform="translate(-45.141833,34.137722)"
             id="g962">
            <ellipse
               inkscape:transform-center-y="-0.17710873"
               inkscape:transform-center-x="1.6589464"
               transform="rotate(-48.460186)"
               ry="2.6585476"
               rx="5.3171186"
               cy="229.14578"
               cx="-98.067169"
               id="ellipse956"
               style="fill:#ff4b4b;fill-opacity:1;stroke:#ff4b4b;stroke-width:0.176962;stroke-opacity:1" />
            <ellipse
               inkscape:transform-center-y="-4.6192573"
               inkscape:transform-center-x="7.314224"
               cx="-110.79519"
               cy="216.08928"
               rx="5.3170953"
               ry="2.6585476"
               transform="rotate(-51.677616)"
               id="ellipse958"
               style="fill:#ff4b4b;fill-opacity:1;stroke:#ff4b4b;stroke-width:0.176962;stroke-opacity:1" />
            <path
               inkscape:transform-center-y="0.22223685"
               inkscape:transform-center-x="6.576798"
               d="m 220.32431,122.69419 a 5.3170953,3.4089723 0 0 1 -5.25597,3.40875 5.3170953,3.4089723 0 0 1 -5.37681,-3.33038 5.3170953,3.4089723 0 0 1 5.13235,-3.48531 5.3170953,3.4089723 0 0 1 5.49481,3.25024 l -5.31147,0.1567 z"
               sodipodi:arc-type="slice"
               sodipodi:end="6.237202"
               sodipodi:start="0"
               sodipodi:ry="3.4089723"
               sodipodi:rx="5.3170953"
               sodipodi:cy="122.69419"
               sodipodi:cx="215.00722"
               sodipodi:type="arc"
               transform="rotate(36.06659)"
               id="path960"
               style="fill:#ff4b4b;fill-opacity:1;stroke:#ff4b4b;stroke-width:0.20132001;stroke-opacity:1" />
          </g>
          <g
             transform="translate(-25.452268,49.348542)"
             id="g970">
            <ellipse
               inkscape:transform-center-y="-0.17710873"
               inkscape:transform-center-x="1.6589464"
               transform="rotate(-48.460186)"
               ry="2.6585476"
               rx="5.3171186"
               cy="229.14578"
               cx="-98.067169"
               id="ellipse964"
               style="fill:#ff4b4b;fill-opacity:1;stroke:#ff4b4b;stroke-width:0.176962;stroke-opacity:1" />
            <ellipse
               inkscape:transform-center-y="-4.6192573"
               inkscape:transform-center-x="7.314224"
               cx="-110.79519"
               cy="216.08928"
               rx="5.3170953"
               ry="2.6585476"
               transform="rotate(-51.677616)"
               id="ellipse966"
               style="fill:#ff4b4b;fill-opacity:1;stroke:#ff4b4b;stroke-width:0.176962;stroke-opacity:1" />
            <path
               inkscape:transform-center-y="0.22223685"
               inkscape:transform-center-x="6.576798"
               d="m 220.32431,122.69419 a 5.3170953,3.4089723 0 0 1 -5.25597,3.40875 5.3170953,3.4089723 0 0 1 -5.37681,-3.33038 5.3170953,3.4089723 0 0 1 5.13235,-3.48531 5.3170953,3.4089723 0 0 1 5.49481,3.25024 l -5.31147,0.1567 z"
               sodipodi:arc-type="slice"
               sodipodi:end="6.237202"
               sodipodi:start="0"
               sodipodi:ry="3.4089723"
               sodipodi:rx="5.3170953"
               sodipodi:cy="122.69419"
               sodipodi:cx="215.00722"
               sodipodi:type="arc"
               transform="rotate(36.06659)"
               id="path968"
               style="fill:#ff4b4b;fill-opacity:1;stroke:#ff4b4b;stroke-width:0.20132001;stroke-opacity:1" />
          </g>
        </g>
        <path
           d="M 57.436962,-2 H 12.563038 C 7.6282012,-2 5.8668192,-1.4154874 4.0702583,-0.45467615 2.119529,0.58858529 0.58858529,2.119529 -0.45467615,4.0702583 -1.4154874,5.8668192 -2,7.6282012 -2,12.563038 v 28.873924 c 0,4.934837 0.5845126,6.696219 1.54532385,8.49278 C 0.58858529,51.880471 2.119529,53.411415 4.0702583,54.454676 5.8668192,55.415487 7.6282012,56 12.563038,56 h 44.873924 c 4.934837,0 6.696219,-0.584513 8.49278,-1.545324 1.950729,-1.043261 3.481673,-2.574205 4.524934,-4.524934 C 71.415487,48.133181 72,46.371799 72,41.436962 V 12.563038 C 72,7.6282012 71.415487,5.8668192 70.454676,4.0702583 69.411415,2.119529 67.880471,0.58858529 65.929742,-0.45467615 64.133181,-1.4154874 62.371799,-2 57.436962,-2 Z"
           id="path1846"
           style="fill:none;fill-opacity:1;stroke:#ffffff;stroke-width:4" />
      </g>
    </g>
  </svg>
</svg>
