<?xml version="1.0" encoding="UTF-8" standalone="no"?>
<svg
   height="70"
   width="0.85416669in"
   version="1.1"
   id="svg2227"
   sodipodi:docname="flag_ml.svg"
   inkscape:version="1.1.1 (3bf5ae0d25, 2021-09-20)"
   inkscape:export-filename="D:\OneDrive - 1CLICK IT LLC\Pictures\flags\flag_ml.png"
   inkscape:export-xdpi="256.95001"
   inkscape:export-ydpi="256.95001"
   xmlns:inkscape="http://www.inkscape.org/namespaces/inkscape"
   xmlns:sodipodi="http://sodipodi.sourceforge.net/DTD/sodipodi-0.dtd"
   xmlns="http://www.w3.org/2000/svg"
   xmlns:svg="http://www.w3.org/2000/svg"
   xmlns:rdf="http://www.w3.org/1999/02/22-rdf-syntax-ns#"
   xmlns:cc="http://creativecommons.org/ns#"
   xmlns:dc="http://purl.org/dc/elements/1.1/">
  <sodipodi:namedview
     pagecolor="#ffffff"
     bordercolor="#666666"
     borderopacity="1"
     objecttolerance="10"
     gridtolerance="10"
     guidetolerance="10"
     inkscape:pageopacity="0"
     inkscape:pageshadow="2"
     inkscape:window-width="1368"
     inkscape:window-height="890"
     id="namedview5298"
     showgrid="false"
     inkscape:zoom="4.3234529"
     inkscape:cx="19.544564"
     inkscape:cy="37.007458"
     inkscape:window-x="-6"
     inkscape:window-y="-6"
     inkscape:window-maximized="1"
     inkscape:current-layer="g1852"
     showguides="false"
     inkscape:pagecheckerboard="1"
     inkscape:document-units="in" />
  <metadata
     id="metadata2233">
    <rdf:RDF>
      <cc:Work
         rdf:about="">
        <dc:format>image/svg+xml</dc:format>
        <dc:type
           rdf:resource="http://purl.org/dc/dcmitype/StillImage" />
      </cc:Work>
    </rdf:RDF>
  </metadata>
  <defs
     id="defs2231" />
  <svg
     x="0"
     y="0"
     width="82"
     height="66"
     viewBox="0 0 82 66"
     version="1.1"
     id="svg1855">
    <title
       id="title1844">cs</title>
    <g
       id="cs"
       style="fill:none;fill-rule:evenodd;stroke:none;stroke-width:1">
      <g
         id="g1852"
         transform="translate(6,6)"
         style="display:inline;fill-rule:nonzero">
        <path
           d="M 57.436962,-2 H 12.563038 C 7.6282012,-2 5.8668192,-1.4154874 4.0702583,-0.45467615 2.119529,0.58858529 0.58858529,2.119529 -0.45467615,4.0702583 -1.4154874,5.8668192 -2,7.6282012 -2,12.563038 v 28.873924 c 0,4.934837 0.5845126,6.696219 1.54532385,8.49278 C 0.58858529,51.880471 2.119529,53.411415 4.0702583,54.454676 5.8668192,55.415487 7.6282012,56 12.563038,56 h 44.873924 c 4.934837,0 6.696219,-0.584513 8.49278,-1.545324 1.950729,-1.043261 3.481673,-2.574205 4.524934,-4.524934 C 71.415487,48.133181 72,46.371799 72,41.436962 V 12.563038 C 72,7.6282012 71.415487,5.8668192 70.454676,4.0702583 69.411415,2.119529 67.880471,0.58858529 65.929742,-0.45467615 64.133181,-1.4154874 62.371799,-2 57.436962,-2 Z"
           id="path1846"
           style="fill:#ff4b4b;fill-opacity:1;stroke:#ffffff;stroke-width:4" />
        <g
           id="g887"
           transform="matrix(0.23282261,0,0,0.23282261,30.365615,21.919597)"
           style="display:inline;fill:#eeeeee;fill-opacity:1;stroke:#4b4b4b;stroke-opacity:1">
          <rect
             style="fill:#eeeeee;fill-opacity:1;stroke:#4b4b4b;stroke-width:5.88051;stroke-linecap:round;stroke-linejoin:round;stroke-miterlimit:4;stroke-dasharray:none;stroke-opacity:1;paint-order:stroke fill markers;stop-color:#000000"
             id="rect9573-4"
             width="49.745144"
             height="11.619493"
             x="-14.982239"
             y="55.607903"
             ry="5.8097467" />
          <rect
             style="fill:#eeeeee;fill-opacity:1;stroke:#4b4b4b;stroke-width:6;stroke-linecap:round;stroke-linejoin:round;stroke-miterlimit:4;stroke-dasharray:none;stroke-opacity:1;paint-order:stroke fill markers;stop-color:#000000"
             id="rect9573-4-7"
             width="59.131901"
             height="12.131903"
             x="-9.5659189"
             y="32.275848"
             ry="6.0659523"
             transform="rotate(90)" />
          <rect
             style="fill:#eeeeee;fill-opacity:1;stroke:#4b4b4b;stroke-width:5.83751;stroke-linecap:round;stroke-linejoin:round;stroke-miterlimit:4;stroke-dasharray:none;stroke-opacity:1;paint-order:stroke markers fill;stop-color:#000000"
             id="rect9573-4-1"
             width="40.033516"
             height="11.662494"
             x="-10.126389"
             y="70.463722"
             ry="5.8312469" />
          <rect
             style="fill:#eeeeee;fill-opacity:1;stroke:#4b4b4b;stroke-width:5.83305;stroke-linecap:round;stroke-linejoin:round;stroke-miterlimit:4;stroke-dasharray:none;stroke-opacity:1;paint-order:stroke markers fill;stop-color:#000000"
             id="rect9573-4-4"
             width="35.070358"
             height="11.66695"
             x="-5.2829595"
             y="84.979149"
             ry="5.8334751" />
          <rect
             style="fill:#eeeeee;fill-opacity:1;stroke:#4b4b4b;stroke-width:6;stroke-linecap:round;stroke-linejoin:round;stroke-miterlimit:4;stroke-dasharray:none;stroke-opacity:1;paint-order:stroke fill markers;stop-color:#000000"
             id="rect11566"
             width="59.131901"
             height="12.131903"
             x="-8.1373529"
             y="-84.218201"
             ry="6.0659523"
             transform="rotate(90)" />
          <path
             id="path1191"
             style="color:#000000;fill:#eeeeee;fill-opacity:1;fill-rule:evenodd;stroke:#4b4b4b;stroke-width:6;stroke-linecap:round;stroke-linejoin:round;stroke-miterlimit:4;stroke-dasharray:none;stroke-opacity:1;paint-order:stroke markers fill"
             d="M 19.1091,-32.685225 C 10.15628,-32.886202 1.07634,-30.661554 -7.13309,-25.620772 -28.04016,-12.78333 -36.19852,15.40504 -22.71121,36.82454 -11.10813,55.25167 14.03522,62.39804 32.98801,50.06282 48.92725,39.68892 55.06247,17.56491 43.83957,1.08626 34.68617,-12.35369 15.54225,-17.47133 1.55246,-7.29069 -9.37179,0.65909 -13.47033,16.90777 -4.19168,28.37337 c 3.39449,4.19456 8.12896,6.87128 13.38281,7.67969 5.25386,0.80841 11.39479,-0.5839 15.80664,-4.94336 2.94925,-2.91423 4.56602,-6.50097 4.82227,-10.6875 C 30.0763,16.23566 28.07939,10.74928 23.44894,8.01985 19.49795,5.69092 17.37459,6.07416 14.04855,7.11946 12.38553,7.64212 10.13169,8.64813 8.54465,11.40267 7.05962,13.98015 7.38494,17.41494 8.33176,19.6429 8.04101,19.40262 7.68101,19.20091 7.46652,18.93587 4.14615,14.83289 5.86748,8.11911 10.37863,4.83626 16.9618,0.04556 26.77706,2.68043 31.44308,9.53157 c 6.16742,9.05565 2.5864,21.95816 -6.63671,27.96094 -11.5222,7.49909 -27.51017,2.95352 -34.82422,-8.66211 -8.8059,-13.98484 -3.28746,-33.05822 10.73437,-41.66797 16.44486,-10.097528 38.60493,-3.59767 48.5,12.83985 1.80366,2.9962 3.18861,6.26252 4.11524,9.64843 1.58486,8.35561 0.64951,17.28864 -2.64453,25.12696 -2.88279,6.8597 -7.60347,13.02314 -13.47657,17.59179 a 7.5,7.5 0 0 0 -0.23828,0.24219 7.5,7.5 0 0 0 -0.2793,0.19922 c -4.80862,4.49657 -8.84464,9.7842 -11.91211,15.60937 -3.4211,6.49673 -5.72979,13.85937 -5.89062,21.64649 -0.058,2.80593 0.0834,4.92359 -0.0547,6.33789 -0.12964,1.3273 -0.54717,2.05858 -0.5664,2.08008 -0.009,0.01 -0.52212,0.408 -1.47461,0.625 -1.02637,0.2339 -2.5959,0.31345 -4.66211,0.34375 -4.92047,0.072 -9.84029,0.11535 -14.75977,0.12695 a 7.5,7.5 0 0 0 -7.48241,7.51758 7.5,7.5 0 0 0 7.51758,7.48242 c 4.98254,-0.012 9.9648,-0.055 14.94531,-0.12695 2.10095,-0.031 4.73634,-0.0269 7.77344,-0.71875 3.11099,-0.7087 6.56297,-2.15982 9.33008,-5.25782 3.05165,-3.4166 3.9882,-7.35463 4.30664,-10.61523 0.30994,-3.1737 0.0858,-5.6815 0.12304,-7.48437 0.10289,-4.98141 1.63654,-10.16327 4.16602,-14.9668 2.24691,-4.26692 5.21885,-8.17594 8.72461,-11.48828 7.76511,-6.13931 13.90215,-14.20381 17.73828,-23.33203 4.51128,-10.73478 5.73386,-22.70015 3.48438,-34.125 A 7.5,7.5 0 0 0 67.96063,6.35188 7.5,7.5 0 0 0 67.88443,5.97493 C 66.59722,1.16615 64.64263,-3.45519 62.06802,-7.7321 55.03044,-19.42279 43.70148,-27.560664 31.14615,-30.943038 c -3.92354,-1.056991 -7.96764,-1.650834 -12.03711,-1.742187 z" />
          <rect
             style="fill:#eeeeee;fill-opacity:1;stroke:#4b4b4b;stroke-width:6;stroke-linejoin:round;stroke-miterlimit:4;stroke-dasharray:none;stroke-opacity:1;paint-order:stroke markers fill;stop-color:#000000"
             id="rect1064"
             width="48.546112"
             height="9.5430403"
             x="-44.384232"
             y="7.3088751"
             ry="4.7715201" />
          <rect
             style="fill:#eeeeee;fill-opacity:1;stroke:#4b4b4b;stroke-width:6;stroke-linejoin:round;stroke-miterlimit:4;stroke-dasharray:none;stroke-opacity:1;paint-order:stroke markers fill;stop-color:#000000"
             id="rect1064-8"
             width="52.000816"
             height="9.4946547"
             x="32.196228"
             y="7.3330603"
             ry="4.7473273" />
          <rect
             style="fill:#eeeeee;fill-opacity:1;stroke:#4b4b4b;stroke-width:6.14067;stroke-linejoin:round;stroke-miterlimit:4;stroke-dasharray:none;stroke-opacity:1;paint-order:stroke markers fill;stop-color:#000000"
             id="rect1064-8-6"
             width="75.035965"
             height="8.8593311"
             x="-19.331879"
             y="-38.849274"
             ry="4.4296656" />
          <rect
             style="fill:#eeeeee;fill-opacity:1;stroke:#4b4b4b;stroke-width:6.13812;stroke-linejoin:round;stroke-miterlimit:4;stroke-dasharray:none;stroke-opacity:1;paint-order:stroke markers fill;stop-color:#000000"
             id="rect1064-8-6-2"
             width="46.105782"
             height="8.8618813"
             x="-4.3826909"
             y="-50.850548"
             ry="4.4309406" />
          <rect
             style="fill:#eeeeee;fill-opacity:1;stroke:#4b4b4b;stroke-width:5.57449;stroke-linejoin:round;stroke-miterlimit:4;stroke-dasharray:none;stroke-opacity:1;paint-order:stroke markers fill;stop-color:#000000"
             id="rect11732"
             width="19.425508"
             height="19.42551"
             x="8.9574432"
             y="-73.132362"
             ry="9.7127552" />
        </g>
      </g>
    </g>
  </svg>
</svg>
