<?xml version="1.0" encoding="UTF-8" standalone="no"?>
<svg
   height="70"
   width="0.85416669in"
   version="1.1"
   id="svg2227"
   sodipodi:docname="flag_ta.svg"
   inkscape:version="1.1.2 (0a00cf5339, 2022-02-04)"
   xmlns:inkscape="http://www.inkscape.org/namespaces/inkscape"
   xmlns:sodipodi="http://sodipodi.sourceforge.net/DTD/sodipodi-0.dtd"
   xmlns="http://www.w3.org/2000/svg"
   xmlns:svg="http://www.w3.org/2000/svg"
   xmlns:rdf="http://www.w3.org/1999/02/22-rdf-syntax-ns#"
   xmlns:cc="http://creativecommons.org/ns#"
   xmlns:dc="http://purl.org/dc/elements/1.1/">
  <sodipodi:namedview
     pagecolor="#ffffff"
     bordercolor="#666666"
     borderopacity="1"
     objecttolerance="10"
     gridtolerance="10"
     guidetolerance="10"
     inkscape:pageopacity="0"
     inkscape:pageshadow="2"
     inkscape:window-width="1846"
     inkscape:window-height="1016"
     id="namedview5298"
     showgrid="false"
     inkscape:zoom="3.0571429"
     inkscape:cx="78.504673"
     inkscape:cy="-24.369159"
     inkscape:window-x="0"
     inkscape:window-y="0"
     inkscape:window-maximized="1"
     inkscape:current-layer="g1852"
     showguides="false"
     inkscape:pagecheckerboard="0"
     inkscape:document-units="in" />
  <metadata
     id="metadata2233">
    <rdf:RDF>
      <cc:Work
         rdf:about="">
        <dc:format>image/svg+xml</dc:format>
        <dc:type
           rdf:resource="http://purl.org/dc/dcmitype/StillImage" />
      </cc:Work>
    </rdf:RDF>
  </metadata>
  <defs
     id="defs2231" />
  <svg
     x="0"
     y="0"
     width="82"
     height="66"
     viewBox="0 0 82 66"
     version="1.1"
     id="svg1855">
    <title
       id="title1844">cs</title>
    <g
       id="cs"
       style="fill:none;fill-rule:evenodd;stroke:none;stroke-width:1">
      <g
         id="g1852"
         transform="translate(6,6)"
         style="fill-rule:nonzero">
        <path
           inkscape:connector-curvature="0"
           d="M 57.436962,-2 H 12.563038 C 7.628201,-2 5.866819,-1.415487 4.070258,-0.4546765 2.119529,0.58858548 0.58858502,2.1195285 -0.454676,4.0702585 -1.415487,5.8668195 -2,7.6282005 -2,12.563037 v 28.873925 c 0,4.934837 0.584513,6.696219 1.545324,8.49278 1.04326102,1.950729 2.574205,3.481673 4.524934,4.524934 C 5.866819,55.415487 7.628201,56 12.563038,56 h 44.873924 c 4.934837,0 6.696219,-0.584513 8.492778,-1.545324 1.95073,-1.043261 3.48168,-2.574205 4.52494,-4.524934 C 71.41549,48.133181 72,46.371799 72,41.436962 V 12.563037 C 72,7.6282005 71.41549,5.8668195 70.45468,4.0702585 69.41142,2.1195285 67.88047,0.58858548 65.92974,-0.4546765 64.133181,-1.415487 62.371799,-2 57.436962,-2 Z"
           id="path1846-3"
           style="fill:none;fill-opacity:1;fill-rule:nonzero;stroke:#ffffff;stroke-width:4" />
        <g
           id="g884"
           transform="matrix(0.81675954,0,0,0.81675954,-45.737609,-183.84948)">
          <g
             id="g1180" />
          <g
             id="g73098"
             transform="translate(5.0592961,8.9969116)">
            <g
               id="g929"
               transform="translate(2.7880948,105.03029)"
               style="fill:none;fill-rule:nonzero;stroke:none;stroke-width:1">
              <rect
                 style="fill:#ffffff;fill-rule:evenodd;stroke-width:0.218901"
                 id="rect262"
                 width="95.499344"
                 height="75.735397"
                 x="43.254074"
                 y="106.17161"
                 ry="16.600447" />
              <rect
                 style="fill:#ff4b4b;fill-opacity:1;fill-rule:evenodd;stroke-width:0.194167"
                 id="rect903"
                 width="84.708488"
                 height="67.17775"
                 x="48.780632"
                 y="110.33019"
                 ry="14.724696" />
            </g>
            <circle
               style="fill:#ffc300;fill-opacity:1;fill-rule:nonzero;stroke:#ffc300;stroke-width:0.264583;stroke-opacity:1"
               id="path1073"
               r="25.297501"
               cy="248.80872"
               cx="93.688705" />
            <circle
               style="fill:#ff4b4b;fill-opacity:1;fill-rule:nonzero;stroke:none;stroke-width:0.211971"
               id="circle1155"
               r="20.267084"
               cy="248.67514"
               cx="93.845261" />
            <rect
               style="fill:#ffc300;fill-opacity:1;stroke:#ffc300;stroke-width:0.139501;stroke-opacity:1"
               id="rect1226"
               width="20.039675"
               height="2.8924563"
               x="51.625748"
               y="243.50398" />
            <rect
               style="fill:#ffc300;fill-opacity:1;stroke-width:0.139501"
               id="rect1308"
               width="20.039675"
               height="2.8924563"
               x="51.625748"
               y="248.26642" />
            <rect
               style="fill:#ffc300;fill-opacity:1;stroke-width:0.139501"
               id="rect1310"
               width="20.039675"
               height="2.8924563"
               x="116.1841"
               y="243.50398" />
            <rect
               style="fill:#ffc300;fill-opacity:1;stroke-width:0.139501"
               id="rect1312"
               width="20.039675"
               height="2.8924563"
               x="116.1841"
               y="248.26642" />
            <g
               id="g17696"
               transform="matrix(1.2659631,0,0,1.2837547,-25.208608,-67.782935)"
               style="fill:#ffff00;stroke:#fffc00;stroke-opacity:1">
              <g
                 id="g54102"
                 style="fill:#ffc300;fill-opacity:1;stroke:#ffc300;stroke-opacity:1">
                <g
                   id="g3384"
                   transform="translate(99.14847,1.4841471)"
                   style="fill:#ffc300;fill-opacity:1;stroke:#ffc300;stroke-opacity:1">
                  <g
                     id="g3017"
                     transform="translate(-23.241311,5.8662408)"
                     style="fill:#ffc300;fill-opacity:1;stroke:#ffc300;stroke-opacity:1">
                    <path
                       style="fill:#ffc300;fill-opacity:1;stroke:#ffc300;stroke-width:0.201009px;stroke-linecap:butt;stroke-linejoin:miter;stroke-opacity:1"
                       d="m 7.1892689,235.63719 c 9.9246311,-7.12349 15.9657351,-3.63207 22.1993961,0 v 2.57143 c -6.620623,-5.26195 -13.707234,-7.38443 -22.2275821,0 z"
                       id="path2203"
                       sodipodi:nodetypes="ccccc" />
                    <path
                       style="fill:#ffc300;fill-opacity:1;stroke:#ffc300;stroke-width:0.302403;stroke-opacity:1"
                       d="m 27.545159,896.42312 c 0.01457,-1.46919 0.116632,-3.35027 0.226802,-4.18018 0.193521,-1.45779 0.272056,-1.5584 2.317131,-2.96854 16.062949,-11.07589 31.853446,-15.52942 46.295712,-13.05718 8.539441,1.46178 17.653321,5.20933 30.136626,12.39192 l 4.15804,2.39243 v 4.02118 c 0,2.21164 -0.0714,4.02117 -0.15876,4.02117 -0.0873,0 -1.41412,-0.94139 -2.94843,-2.09197 -4.50035,-3.37483 -9.724655,-6.58324 -14.583378,-8.95614 -9.679646,-4.72732 -17.246436,-6.46186 -26.573978,-6.09157 -13.030318,0.51728 -23.606909,5.12403 -38.193723,16.6357 l -0.702534,0.55442 z"
                       id="path2896"
                       transform="scale(0.26458333)" />
                  </g>
                  <path
                     style="fill:#ffc300;fill-opacity:1;stroke:#ffc300;stroke-width:0.0756007;stroke-opacity:1"
                     d="m -61.105718,921.39756 c 0.0096,-1.00542 0.03908,-3.39693 0.06549,-5.31445 l 0.04801,-3.48641 0.614922,-0.43795 c 6.592979,-4.69555 13.089247,-8.36189 19.288303,-10.88586 9.305702,-3.78885 18.185563,-5.15055 27.065063,-4.15033 6.7650031,0.76203 13.83091372,2.94692 21.4706082,6.63904 4.1917448,2.02579 8.2040248,4.20823 14.8744448,8.09079 l 1.266312,0.73707 v 5.2948 c 0,4.22451 -0.0191,5.28 -0.0945,5.22157 -0.05198,-0.0403 -0.570786,-0.44611 -1.152911,-0.90183 -10.603712,-8.30122 -20.224961,-13.44234 -29.6732881,-15.85594 -6.5117209,-1.66344 -12.9907089,-1.99093 -19.5049889,-0.98592 -10.806089,1.66715 -22.013386,7.36007 -32.995734,16.76069 -0.584318,0.50016 -1.113427,0.9529 -1.175798,1.00608 -0.100408,0.0856 -0.111399,-0.11276 -0.09593,-1.73135 z m 84.01274,-4.05176 v -4.37834 l -1.266312,-0.73691 c -9.530451,-5.54606 -14.9210515,-8.30701 -20.506699,-10.50308 -9.8177078,-3.85995 -18.829731,-5.0448 -28.123473,-3.69754 -9.791876,1.41949 -20.210389,5.88953 -31.071901,13.33136 -0.893979,0.61252 -1.764639,1.21288 -1.934801,1.33415 l -0.309384,0.22047 -0.04972,2.71546 c -0.06187,3.37922 -0.06394,6.01717 -0.0047,6.01717 0.02475,0 0.42449,-0.31699 0.888309,-0.70442 11.7535,-9.81785 23.273547,-15.29657 34.828719,-16.56391 2.824956,-0.30983 6.858334,-0.34596 9.485008,-0.085 9.6091571,0.95479 18.8113479,4.43754 28.928587,10.94858 2.427067,1.56196 5.309269,3.6067 7.85117,5.5699 0.644496,0.49776 1.197326,0.90624 1.228512,0.90772 0.03119,10e-4 0.0567,-1.96755 0.0567,-4.37564 z"
                     id="path3113"
                     transform="scale(0.26458333)" />
                </g>
                <rect
                   style="fill:#ffc300;fill-opacity:1;stroke:#ffc300;stroke-width:0.234048;stroke-opacity:1"
                   id="rect3408"
                   width="2.367182"
                   height="19.871655"
                   x="92.823402"
                   y="235.02028" />
                <g
                   id="g4085"
                   transform="matrix(1.2959967,0,0,1.174463,-12.873365,-61.660491)"
                   style="fill:#ffc300;fill-opacity:1;stroke:#ffc300;stroke-opacity:1">
                  <path
                     style="fill:#ffc300;fill-opacity:1;stroke:#ffc300;stroke-width:0.264583px;stroke-linecap:butt;stroke-linejoin:miter;stroke-opacity:1"
                     d="m 80.380114,252.90205 h 4.167963 l -1.960386,-3.39548 z"
                     id="path3726" />
                  <g
                     id="g4078"
                     style="fill:#ffc300;fill-opacity:1;stroke:#ffc300;stroke-opacity:1">
                    <path
                       style="fill:#ffc300;fill-opacity:1;stroke:#ffc300;stroke-width:0.0110485;stroke-opacity:1"
                       d="m 302.90913,956.31496 c 0.009,-0.0137 1.16077,-1.78613 2.56012,-3.9388 l 2.54429,-3.91395 h 0.58445 c 0.32145,0 0.58445,0.003 0.58445,0.006 0,0.004 -1.00233,1.54822 -2.22741,3.4326 -1.22507,1.88438 -2.22991,3.43268 -2.23298,3.44069 -0.005,0.012 1.20798,0.0145 6.98461,0.0145 h 6.9902 l -0.0333,-0.058 c -0.0183,-0.0319 -0.91318,-1.58188 -1.98859,-3.44438 l -1.95529,-3.38638 0.56462,-0.003 c 0.31055,-0.002 0.56859,10e-4 0.57344,0.006 0.005,0.005 0.89137,1.53746 1.97005,3.40582 l 1.96123,3.397 1e-5,0.53309 10e-6,0.53309 h -8.44788 -8.44788 z"
                       id="path3878"
                       transform="scale(0.26458333)" />
                    <path
                       style="fill:#ffc300;fill-opacity:1;stroke:#ffc300;stroke-width:0.0220971;stroke-opacity:1"
                       d="m 308.04777,948.42354 c 0.24199,-0.39356 4.10296,-6.30319 4.1181,-6.30319 0.0173,0 3.66779,6.29302 3.66779,6.32282 0,0.004 -0.25114,0.008 -0.55809,0.008 h -0.5581 l -1.29254,-2.24211 c -0.71089,-1.23316 -1.29834,-2.24245 -1.30544,-2.24285 -0.007,-4.1e-4 -0.66836,1.00827 -1.46946,2.24152 l -1.45654,2.24226 -0.58135,5.9e-4 c -0.45953,4.7e-4 -0.5778,-0.005 -0.56437,-0.027 z"
                       id="path3917"
                       transform="scale(0.26458333)" />
                    <path
                       style="fill:#ffc300;fill-opacity:1;stroke:#ffc300;stroke-width:0.0220971;stroke-opacity:1"
                       d="m 319.78904,955.81686 c 0,-0.28763 0.004,-0.51882 0.008,-0.51376 0.0174,0.0198 0.58854,1.01513 0.58854,1.02559 0,0.006 -0.13424,0.0111 -0.29831,0.0111 h -0.29831 z"
                       id="path3956"
                       transform="scale(0.26458333)" />
                  </g>
                </g>
              </g>
            </g>
            <g
               id="g11586"
               transform="matrix(1.1241773,0,0,1.1241773,-10.540562,-24.144938)"
               style="fill:#ffc300;fill-opacity:1;stroke:#ffc300;stroke-opacity:1">
              <g
                 id="g11406"
                 transform="translate(78.313106,48.237468)"
                 style="fill:#ffc300;fill-opacity:1;stroke:#ffc300;stroke-opacity:1">
                <path
                   style="fill:#ffc300;fill-opacity:1;stroke:#ffc300;stroke-width:0.264583px;stroke-linecap:butt;stroke-linejoin:miter;stroke-opacity:1"
                   d="m 1.1963094,194.06309 c 5.3570224,1.70956 4.6201651,11.5702 9.5717666,8.15247 -0.323712,-2.55477 -4.550585,0.5971 -1.9212003,-1.93347 0.2187872,-1.07471 -0.4893208,-4.26767 0.6557742,-1.09761 3.2182061,1.83621 2.8404501,1.78456 2.7845841,2.91416 -1.153195,3.23851 -7.2163766,3.25677 -10.2053198,0.24895 -0.1967261,0.51915 -0.8517839,0.7221 -1.31736139,0.66391 -0.64024768,-0.6416 -0.23708925,-2.13086 0.2054138,-3.65209 -1.06778872,-1.89065 -1.22044231,-3.16382 -1.27589104,-5.25446 0.78334251,1.98378 1.24769986,1.80859 1.50223383,-0.0419 z"
                   id="path7715"
                   sodipodi:nodetypes="ccccccccccc" />
                <path
                   style="fill:#ffc300;fill-opacity:1;stroke:#ffc300;stroke-width:0.264583px;stroke-linecap:butt;stroke-linejoin:miter;stroke-opacity:1"
                   d="m 4.7551361,197.32154 2.5017852,0.19316 c 1.1222535,1.3335 -0.623654,1.76411 -1.0424428,2.6125"
                   id="path10923"
                   sodipodi:nodetypes="ccc" />
              </g>
              <path
                 style="fill:#ffc300;fill-opacity:1;stroke:#ffc300;stroke-width:0.0883883;stroke-opacity:1"
                 d="m 322.97102,955.86577 c -4.84879,-0.42356 -9.49747,-1.78866 -13.34664,-3.91927 -1.70397,-0.94319 -3.70121,-2.35902 -5.21003,-3.69335 l -0.39286,-0.34743 -0.6236,0.62665 c -0.98557,0.99039 -2.08422,1.44486 -3.69704,1.52933 l -0.95211,0.0499 -0.3568,-0.38648 c -0.41285,-0.44719 -0.79497,-1.2055 -1.02053,-2.02522 -0.21397,-0.77756 -0.21718,-3.1945 -0.006,-4.49802 0.22864,-1.41116 0.71295,-3.49068 1.28329,-5.51017 l 0.51747,-1.83227 -0.44553,-0.81938 c -0.24504,-0.45066 -0.73134,-1.43589 -1.08066,-2.1894 -2.20852,-4.76391 -3.03346,-8.87289 -3.24187,-16.1475 l -0.0207,-0.72373 0.30936,-0.0544 c 0.17015,-0.0299 0.36902,-0.0716 0.44194,-0.0926 0.0908,-0.0262 0.18577,0.0937 0.30135,0.38036 1.08261,2.68507 2.28119,4.61702 2.86438,4.61702 0.42378,0 0.83687,-0.73861 1.20307,-2.1511 0.18331,-0.70708 0.28425,-1.24925 0.57039,-3.06381 0.0743,-0.4715 0.0447,-0.47078 1.248,-0.0303 1.98364,0.72615 4.31861,2.08493 5.96443,3.47086 0.8822,0.74289 2.47577,2.35777 3.27732,3.32115 0.81308,0.97723 2.2074,2.94573 2.97594,4.20144 0.59456,0.97145 0.66537,1.05289 0.95194,1.09483 0.17027,0.0249 2.29392,0.19413 4.71921,0.376 l 4.40962,0.33069 0.42646,0.53405 c 0.85473,1.0704 1.29344,2.27598 1.19844,3.29333 -0.11926,1.27704 -0.84286,2.2538 -3.19377,4.31109 -1.12794,0.98707 -1.77882,1.68459 -2.0626,2.21041 -0.0799,0.14803 0.0255,0.40916 0.64791,1.60536 2.94799,5.66573 5.29193,8.04198 8.33545,8.45036 1.78475,0.23948 4.10021,-0.44615 6.44545,-1.90857 0.8276,-0.51606 0.83714,-0.54029 0.54915,-1.39518 -0.33255,-0.98714 -0.92337,-1.6751 -1.77095,-2.06209 -1.24619,-0.56898 -2.92486,-0.54401 -6.03697,0.0898 -1.4606,0.29747 -1.8516,0.28777 -2.19382,-0.0545 -0.22559,-0.22559 -0.25972,-0.31423 -0.21266,-0.55243 0.0922,-0.46676 0.64381,-1.17592 2.00987,-2.58397 l 1.29394,-1.33371 0.0631,-1.01145 c 0.0347,-0.55629 0.0182,-1.84671 -0.0367,-2.8676 -0.25836,-4.80613 -0.23591,-5.25833 0.27325,-5.50236 0.63916,-0.30634 1.1884,0.58892 2.46753,4.02197 l 0.45278,1.21523 0.85258,0.4789 c 0.46893,0.26339 1.83045,1.06364 3.0256,1.77833 4.93827,2.95304 6.29738,4.09829 6.75826,5.69484 0.12718,0.44058 0.14207,0.72386 0.0904,1.72 -0.0817,1.57463 -0.15338,1.90766 -0.62529,2.90386 -2.10026,4.43369 -6.84054,7.36504 -13.40101,8.28708 -0.96202,0.1352 -5.04846,0.2465 -5.99972,0.1634 z m 4.28684,-0.9215 c 6.16765,-0.45407 10.96852,-2.75174 13.4814,-6.45213 0.20479,-0.30156 0.56309,-0.95122 0.79621,-1.44369 0.41253,-0.87142 0.42666,-0.92895 0.52826,-2.14983 0.15592,-1.87355 -0.0107,-2.42208 -1.03023,-3.39203 -1.16401,-1.10739 -3.60507,-2.69097 -8.16298,-5.29555 -0.7049,-0.40281 -1.29379,-0.74254 -1.30865,-0.75495 -0.0149,-0.0124 -0.29701,-0.733 -0.62701,-1.60129 -0.75329,-1.98209 -1.00947,-2.59489 -1.08483,-2.59505 -0.0327,-7e-5 -0.0421,0.28825 -0.0209,0.64069 0.23765,3.94349 0.27127,5.86971 0.12063,6.91202 l -0.0888,0.61434 -1.12716,1.15342 c -1.23526,1.26404 -2.01156,2.14992 -1.94358,2.21791 0.024,0.024 0.7638,-0.0955 1.64392,-0.26572 3.47096,-0.67116 5.09948,-0.59078 6.62794,0.32716 1.03521,0.62171 1.80224,1.9212 2.03508,3.44779 l 0.0774,0.50786 -0.80415,0.51955 c -1.63989,1.05953 -2.96756,1.68665 -4.46621,2.10957 -0.73872,0.20847 -1.00793,0.23903 -2.12738,0.24147 -1.10239,0.002 -1.37381,-0.0262 -1.94073,-0.20418 -2.8474,-0.89415 -5.05877,-3.23474 -7.69604,-8.14573 -0.40464,-0.75351 -1.46643,-2.88146 -2.35952,-4.72878 -2.90388,-6.0065 -4.21527,-8.43066 -5.95305,-11.00435 -2.63857,-3.90779 -5.49712,-6.60878 -8.73151,-8.25025 -0.99071,-0.50279 -2.12587,-0.97947 -2.18698,-0.91837 -0.0199,0.0199 -0.11332,0.45598 -0.20759,0.96904 -0.42926,2.33646 -0.99434,3.70084 -1.71466,4.14006 -0.98363,0.59978 -2.12553,-0.26992 -3.22875,-2.45912 -0.15311,-0.30383 -0.30311,-0.55242 -0.33333,-0.55242 -0.147,0 0.2254,4.09244 0.54548,5.99451 0.60836,3.61513 1.93079,7.26799 3.863,10.67052 l 0.30333,0.53415 -0.16346,0.5707 c -0.5335,1.86264 -1.07062,3.90693 -1.29949,4.94592 -0.81922,3.71892 -0.78606,6.15348 0.10192,7.48216 0.33649,0.50351 0.4858,0.5422 1.47968,0.3835 1.63593,-0.26121 2.75115,-1.06336 3.22453,-2.31929 0.087,-0.23091 0.17585,-0.41984 0.19738,-0.41984 0.0215,0 0.44371,0.37596 0.93817,0.83547 4.95695,4.60657 11.37363,7.23342 18.97444,7.76774 0.93745,0.0659 2.51809,0.0517 3.66812,-0.033 z m -6.74683,-18.24876 c 0.30957,-0.29168 1.02927,-0.93891 1.59933,-1.4383 1.67695,-1.46904 2.22493,-2.30404 2.21742,-3.37886 -0.005,-0.6885 -0.23124,-1.31984 -0.74517,-2.0777 l -0.36196,-0.53376 -4.4572,-0.34283 c -2.45146,-0.18856 -4.48047,-0.31956 -4.50891,-0.29112 -0.0362,0.0362 4.33494,8.56907 4.8892,9.54407 0.021,0.037 0.21064,-0.16186 0.42134,-0.44194 0.21071,-0.28007 0.63638,-0.74788 0.94595,-1.03956 z"
                 id="path11463"
                 transform="scale(0.26458333)" />
            </g>
            <g
               id="g17700"
               transform="matrix(1.2816354,0,0,1.2816354,-26.448956,-66.380959)"
               style="fill:#ffc300;fill-opacity:1">
              <path
                 style="fill:#ffc300;fill-opacity:1"
                 d="m 102.45077,245.86553 c -1.27435,1.01267 -2.513325,3.69894 -3.34303,3.7775 -3.713228,0.47605 -3.85529,3.61419 -2.2465,4.70722 -0.03111,0.817 3.22372,0.23091 4.86555,0.29319 0.12144,-0.34141 0.0402,-0.78941 -0.92011,-0.66473 0.96097,-0.0815 1.11214,-0.45118 0.66044,-0.76402 -1.657497,-0.10054 -2.44166,0.67172 -2.910815,0.69854 0.169684,-0.5873 1.772825,-1.43825 2.511485,-1.69517 0.40764,0.25211 0.81527,-0.10425 1.22291,1.09072 0.0905,0.0249 0.0349,0.96184 -0.0206,1.14873 -0.11366,0.382 1.79399,0.17 1.79446,0.16754 0.0809,-0.15532 0.27193,-0.22383 -0.0143,-0.66831 -0.32744,-0.46348 -1.11617,0.69283 -0.63878,-2.59678 0.25298,-0.19572 0.35215,-1.51726 0.39564,-3.2463 1.10178,0.25702 1.24145,-0.13839 1.73696,-0.95495 -0.13092,-0.79003 -0.7016,-1.69327 -2.32486,-1.79579 -0.78439,-0.42792 -0.75593,-0.42561 -0.76841,0.50261 z"
                 id="path11621"
                 sodipodi:nodetypes="cccccccccsccccccc" />
              <path
                 style="fill:#ffc300;fill-opacity:1;stroke-width:0.03125"
                 d="m 370.07812,963.34357 c -2.74432,-0.10482 -4.0699,-0.61703 -4.33115,-1.67357 -0.021,-0.0849 -0.0569,-0.16553 -0.0797,-0.17916 -0.16733,-0.0999 -0.78411,-0.6474 -1.12227,-0.99629 -1.31661,-1.35838 -2.14639,-3.08255 -2.44129,-5.07268 -0.079,-0.53321 -0.079,-1.96678 0,-2.5 0.26097,-1.76113 0.95494,-3.35276 2.07106,-4.75 0.36042,-0.4512 1.21348,-1.30007 1.6846,-1.67633 2.17433,-1.73652 5.00299,-2.8367 8.5423,-3.32245 0.39123,-0.0537 0.65711,-0.14606 0.97333,-0.33811 0.79746,-0.48435 1.94686,-1.72543 3.3125,-3.57676 l 0.32812,-0.44482 0.46279,-4.5e-4 c 0.36178,-3.5e-4 0.45775,0.008 0.43972,0.0386 -0.0127,0.0215 -0.21953,0.30625 -0.45965,0.63281 -1.75309,2.38411 -2.92007,3.60633 -3.9453,4.13206 -0.39029,0.20014 -0.52545,0.23819 -1.20068,0.33801 -2.48781,0.36779 -4.52876,1.00977 -6.2519,1.96654 -0.43217,0.23996 -1.31519,0.82939 -1.6856,1.12517 -1.67002,1.33354 -2.82973,3.07339 -3.31413,4.97202 -0.20219,0.79251 -0.25911,1.25496 -0.26121,2.12245 -0.002,0.78734 0.0239,1.07635 0.15335,1.71921 0.42013,2.08597 1.57548,3.89424 3.2423,5.07459 l 0.27344,0.19364 v 0.18697 c 0,0.22991 0.0518,0.35997 0.20114,0.50501 0.74349,0.72207 3.23026,0.92914 7.97073,0.6637 0.46407,-0.026 1.71563,-0.10286 2.78125,-0.17085 3.42235,-0.21833 4.77234,-0.28076 6.08369,-0.28133 l 0.70869,-3.1e-4 0.0217,-0.17367 c 0.0374,-0.29928 0.002,-0.66725 -0.0817,-0.84196 -0.31127,-0.65199 -1.23816,-0.89116 -2.89158,-0.74612 l -0.22175,0.0195 -0.0216,-0.26167 c -0.0119,-0.14392 -0.0296,-0.31282 -0.0395,-0.37534 l -0.0179,-0.11367 0.22999,-0.0217 c 1.43455,-0.13535 2.57272,-0.54223 2.78844,-0.99684 0.1246,-0.26255 0.028,-0.51869 -0.32733,-0.86805 l -0.24303,-0.23894 -0.40029,-0.0233 c -1.06197,-0.0619 -2.54319,0.0563 -3.76857,0.30078 -1.35979,0.27132 -2.50389,0.66786 -4.27235,1.48076 -1.46616,0.67395 -1.83224,0.80663 -2.37352,0.86024 -0.47105,0.0467 -0.59526,0.05 -0.59487,0.0159 0.001,-0.10067 0.2052,-0.69405 0.31173,-0.90648 0.6787,-1.35335 3.17621,-3.22785 6.5499,-4.91601 1.13261,-0.56674 1.94093,-0.92516 2.79394,-1.23886 l 0.37667,-0.13853 0.17901,0.10635 c 0.27117,0.16108 0.53338,0.24801 1.13302,0.37558 0.62015,0.13195 0.91551,0.22154 1.19519,0.36255 0.87851,0.44295 1.56622,1.35066 2.1513,2.83955 0.10469,0.2664 0.23721,0.58984 0.29448,0.71875 0.1576,0.35471 0.18148,0.62184 0.16201,1.8125 -0.0194,1.1864 -0.0758,1.8471 -0.23248,2.7215 -0.0129,0.0722 0.003,0.0883 0.147,0.15036 0.37822,0.16271 0.99063,0.24259 2.10193,0.27417 l 0.71094,0.0202 v 0.37461 0.37461 l -0.80469,-0.0186 c -0.85833,-0.0199 -1.2162,-0.0513 -1.70402,-0.14939 -0.72426,-0.14567 -1.12194,-0.41274 -1.20731,-0.81077 -0.0283,-0.13217 -0.0237,-0.2121 0.0268,-0.46228 0.14056,-0.69598 0.23558,-2.07154 0.21443,-3.10417 -0.0113,-0.55042 -0.0231,-0.69157 -0.0616,-0.7365 -0.0262,-0.0306 -0.0991,-0.20669 -0.16203,-0.39139 -0.44037,-1.29295 -1.05125,-2.31683 -1.62492,-2.72351 -0.3762,-0.26668 -0.57761,-0.34275 -1.33361,-0.50371 -0.56228,-0.11971 -0.82521,-0.19582 -1.10151,-0.31887 l -0.1803,-0.0803 -0.48721,0.19423 c -0.98621,0.39318 -2.43918,1.09272 -3.52719,1.69819 -2.06076,1.14681 -3.69118,2.32857 -4.45682,3.2304 -0.12292,0.14479 -0.21567,0.27106 -0.20612,0.28062 0.0195,0.0195 0.57838,-0.22162 1.69419,-0.73078 1.81384,-0.82768 3.1658,-1.26015 4.75,-1.51946 0.94594,-0.15484 1.443,-0.1898 2.70715,-0.19042 l 1.17589,-5.7e-4 0.1826,0.125 c 0.26933,0.18436 0.58281,0.49101 0.74465,0.72839 0.47482,0.69646 0.33156,1.42734 -0.37789,1.92786 -0.12181,0.0859 -0.26854,0.182 -0.32606,0.21347 l -0.10458,0.0572 0.25539,0.13298 c 0.48656,0.25335 0.79585,0.60515 0.9649,1.09753 0.0757,0.22046 0.0853,0.29332 0.0841,0.63944 -0.001,0.40352 -0.0463,0.64297 -0.19938,1.06279 l -0.0658,0.18045 -1.28611,7.4e-4 c -1.62675,9.3e-4 -2.41791,0.0357 -5.84861,0.25672 -4.1511,0.26749 -6.03371,0.33757 -7.53125,0.28037 z"
                 id="path16233"
                 transform="scale(0.26458333)" />
            </g>
          </g>
        </g>
      </g>
    </g>
  </svg>
</svg>
