<?xml version="1.0" encoding="UTF-8" standalone="no"?>
<svg
   xmlns:dc="http://purl.org/dc/elements/1.1/"
   xmlns:cc="http://creativecommons.org/ns#"
   xmlns:rdf="http://www.w3.org/1999/02/22-rdf-syntax-ns#"
   xmlns:svg="http://www.w3.org/2000/svg"
   xmlns="http://www.w3.org/2000/svg"
   xmlns:sodipodi="http://sodipodi.sourceforge.net/DTD/sodipodi-0.dtd"
   xmlns:inkscape="http://www.inkscape.org/namespaces/inkscape"
   height="70"
   width="0.85416669in"
   version="1.1"
   id="svg2227"
   sodipodi:docname="flag_ml.svg"
   inkscape:version="0.92.5 (2060ec1f9f, 2020-04-08)">
  <sodipodi:namedview
     pagecolor="#ffffff"
     bordercolor="#666666"
     borderopacity="1"
     objecttolerance="10"
     gridtolerance="10"
     guidetolerance="10"
     inkscape:pageopacity="0"
     inkscape:pageshadow="2"
     inkscape:window-width="1848"
     inkscape:window-height="1016"
     id="namedview5298"
     showgrid="false"
     inkscape:zoom="6.1142857"
     inkscape:cx="17.835412"
     inkscape:cy="19.093088"
     inkscape:window-x="72"
     inkscape:window-y="27"
     inkscape:window-maximized="1"
     inkscape:current-layer="g1852"
     showguides="false" />
  <metadata
     id="metadata2233">
    <rdf:RDF>
      <cc:Work
         rdf:about="">
        <dc:format>image/svg+xml</dc:format>
        <dc:type
           rdf:resource="http://purl.org/dc/dcmitype/StillImage" />
        <dc:title></dc:title>
      </cc:Work>
    </rdf:RDF>
  </metadata>
  <defs
     id="defs2231" />
  <svg
     x="0"
     y="0"
     width="82"
     height="66"
     viewBox="0 0 82 66"
     version="1.1"
     id="svg1855">
    <title
       id="title1844">cs</title>
    <g
       id="cs"
       style="fill:none;fill-rule:evenodd;stroke:none;stroke-width:1">
      <g
         id="g1852"
         transform="translate(6,6)"
         style="fill-rule:nonzero">
        <path
           d="M 57.436962,-2 H 12.563038 C 7.6282012,-2 5.8668192,-1.4154874 4.0702583,-0.45467615 2.119529,0.58858529 0.58858529,2.119529 -0.45467615,4.0702583 -1.4154874,5.8668192 -2,7.6282012 -2,12.563038 v 28.873924 c 0,4.934837 0.5845126,6.696219 1.54532385,8.49278 C 0.58858529,51.880471 2.119529,53.411415 4.0702583,54.454676 5.8668192,55.415487 7.6282012,56 12.563038,56 h 44.873924 c 4.934837,0 6.696219,-0.584513 8.49278,-1.545324 1.950729,-1.043261 3.481673,-2.574205 4.524934,-4.524934 C 71.415487,48.133181 72,46.371799 72,41.436962 V 12.563038 C 72,7.6282012 71.415487,5.8668192 70.454676,4.0702583 69.411415,2.119529 67.880471,0.58858529 65.929742,-0.45467615 64.133181,-1.4154874 62.371799,-2 57.436962,-2 Z"
           id="path1846"
           style="fill:#ff4b4b;fill-opacity:1;stroke:#ffffff;stroke-width:4" />
        <g
           id="g5419"
           transform="translate(-0.597467,1.1568044)">
          <path
             sodipodi:nodetypes="ccccccc"
             inkscape:connector-curvature="0"
             id="path5360"
             d="m 32.453059,10.772868 c 0.09633,-0.7999009 0.704682,-1.5998018 1.156484,-2.3997027 -0.550129,-2.2095855 0.347864,-3.5342073 2.573174,-4.0476909 2.750157,0.8181727 2.604571,2.4637006 2.168406,4.1922511 0.675514,0.6742783 1.473473,1.3026395 1.561252,2.1973185 l -7.632788,0.08674 z"
             style="fill:#eeeeee;fill-opacity:1;stroke:#444444;stroke-width:1.06666672;stroke-linecap:butt;stroke-linejoin:miter;stroke-miterlimit:4;stroke-dasharray:none;stroke-opacity:1" />
          <path
             sodipodi:nodetypes="sssssssss"
             inkscape:connector-curvature="0"
             id="path5328-3-6"
             d="m 29.810745,11.448979 c 0.135802,-0.347654 0.758041,-0.178145 1.130643,-0.288283 1.732338,-0.512068 3.315059,-1.7270276 5.129257,-1.7296998 1.80247,-0.0027 3.348841,1.3042778 5.101681,1.7034918 0.40582,0.09243 1.060827,-0.200501 1.240949,0.157245 0.259931,0.516259 -0.36452,1.29179 -0.937606,1.467623 -1.861932,0.571277 -5.146384,-0.801903 -5.477304,-0.801903 -0.330921,0 -3.449637,1.25308 -5.305167,0.723281 -0.500561,-0.142922 -1.064351,-0.766091 -0.882453,-1.231755 z"
             style="fill:#eeeeee;fill-opacity:1;fill-rule:nonzero;stroke:#444444;stroke-width:1.06666672;stroke-linecap:butt;stroke-linejoin:miter;stroke-miterlimit:4;stroke-dasharray:none;stroke-opacity:1" />
          <path
             sodipodi:nodetypes="sssssssss"
             inkscape:connector-curvature="0"
             id="path5328-3"
             d="m 27.960149,14.355154 c 0.173525,-0.450926 0.968609,-0.231063 1.444712,-0.373918 2.213546,-0.664178 4.293737,-2.529165 6.611882,-2.532631 2.303158,-0.0035 4.221255,1.980837 6.460997,2.498638 0.518548,0.119882 1.355502,-0.260061 1.585659,0.203955 0.332134,0.669614 -0.465776,1.675518 -1.198054,1.903583 -2.379137,0.740975 -6.714881,-1.375778 -7.137723,-1.375778 -0.422844,0 -4.268935,1.960978 -6.639893,1.273801 -0.639606,-0.185377 -1.360005,-0.99366 -1.12758,-1.59765 z"
             style="fill:#eeeeee;fill-opacity:1;fill-rule:nonzero;stroke:#444444;stroke-width:1.06666672;stroke-linecap:butt;stroke-linejoin:miter;stroke-miterlimit:4;stroke-dasharray:none;stroke-opacity:1" />
          <path
             sodipodi:nodetypes="cccscscccscccc"
             inkscape:connector-curvature="0"
             id="path5324"
             d="m 35.641811,14.753906 c -5.205394,-2.12e-4 -9.425429,3.640946 -9.425781,8.132813 0.002,3.228139 2.245067,5.8317 5.67149,7.127279 -0.04068,3.866034 2.035722,7.60583 3.162494,13.987955 0.06852,0.388099 -1.654879,0.623953 -2.371094,-0.126953 -0.71622,-0.750907 -0.120269,-2.216874 -0.794922,-2.417969 -0.674652,-0.201095 -1.368641,0.09749 -1.763671,0.607422 -0.395035,0.509936 -0.981841,2.211297 -0.462891,2.851563 0.76231,0.800408 1.080762,-0.311712 2.302734,0.259765 1.221972,0.571479 3.837542,1.846503 4.779297,0.552735 1.843432,-2.532476 1.840131,-7.549321 2.544922,-11.681641 3.23424,-4.723213 4.954459,-6.860469 5.330078,-8.681641 0.298041,-0.801062 0.450242,-1.637179 0.451172,-2.478515 -3.52e-4,-4.491209 -4.219197,-8.132094 -9.423828,-8.132813 z"
             style="fill:#eeeeee;fill-opacity:1;stroke:none;stroke-width:1px;stroke-linecap:butt;stroke-linejoin:miter;stroke-opacity:1" />
          <path
             sodipodi:nodetypes="csscsssssscc"
             inkscape:connector-curvature="0"
             id="path5376"
             d="m 24.456489,32.78962 c -1.008848,1.000847 -3.143706,2.049024 -3.883142,-1.240666 -0.606099,-2.696482 1.575583,-5.416147 2.901834,-7.79555 0.460664,-0.826469 1.042466,-1.43809 0.440666,-2.255847 -0.384325,-0.423235 -0.58784,-0.249366 -0.766346,0.01392 -0.14316,0.211152 -0.13504,0.799102 -0.737434,1.137957 -0.871074,0.489991 -2.137444,0.02524 -2.044393,-1.921729 0.08334,-1.743688 1.578706,-2.149982 3.157082,-2.122059 2.106471,0.03727 3.120134,2.621793 2.567217,4.166451 l -2.575935,7.196262 c -0.303322,0.847377 -0.381754,1.439036 0.940421,2.821262 z"
             style="fill:#eeeeee;fill-opacity:1;stroke:#444444;stroke-width:1.06666672;stroke-linecap:round;stroke-linejoin:miter;stroke-miterlimit:4;stroke-dasharray:none;stroke-opacity:1" />
          <path
             sodipodi:nodetypes="czzzzzzzzzscscccssccc"
             inkscape:connector-curvature="0"
             id="path5362"
             d="m 34.911802,23.244735 c 0.702567,0.07072 1.062227,0.56399 0.998245,1.115096 -0.06398,0.551106 -0.337084,1.276835 -1.729266,1.274539 -1.392182,-0.0023 -2.131261,-1.338599 -2.124414,-2.532993 0.0068,-1.194393 1.147658,-2.565973 2.892815,-2.60605 1.745157,-0.04008 3.821222,1.869503 3.823865,4.083825 0.0026,2.214322 -2.402059,5.017334 -6.215804,4.993278 -3.813745,-0.02406 -6.320644,-2.601528 -6.365678,-6.513144 -0.04503,-3.911616 3.637224,-8.667367 10.290912,-8.410922 6.653688,0.256445 8.533612,5.186794 8.509633,8.771046 -0.02398,3.584252 -3.196196,6.030437 -5.443044,9.996478 -1.92593,3.39957 -0.420719,9.947328 -2.630853,11.887239 -1.079041,1.15746 -3.099462,1.162005 -4.180594,0.779195 -1.081132,-0.38281 -1.222976,-1.009868 -2.142993,-1.238279 -0.270026,-0.01196 -0.652664,-0.26756 -1.103972,0.919976 -1.676577,-2.824512 1.526789,-5.473412 3.159855,-4.406645 -0.694326,0.649394 -0.66039,0.672053 -0.716346,1.220083 -0.05893,0.577124 0.290845,1.722637 1.992823,1.694155 1.025988,-0.01717 1.172241,-0.737411 1.165304,-1.655958 0.03281,-2.202951 -2.039537,-5.292006 -2.821262,-8.014019 -0.503912,-1.872469 -0.549064,-3.033287 0.327103,-4.824766"
             style="fill:none;stroke:#444444;stroke-width:1.06666672;stroke-linecap:round;stroke-linejoin:miter;stroke-miterlimit:4;stroke-dasharray:none;stroke-opacity:1" />
          <path
             sodipodi:nodetypes="csscsssssscc"
             inkscape:connector-curvature="0"
             id="path5376-7"
             d="m 46.738445,32.78962 c 1.008848,1.000847 3.143706,2.049024 3.883142,-1.240666 0.606099,-2.696482 -1.575583,-5.416147 -2.901834,-7.79555 -0.460664,-0.826469 -1.042466,-1.43809 -0.440666,-2.255847 0.384325,-0.423235 0.58784,-0.249366 0.766346,0.01392 0.14316,0.211152 0.13504,0.799102 0.737434,1.137957 0.871074,0.489991 2.137444,0.02524 2.044393,-1.921729 -0.08334,-1.743688 -1.578706,-2.149982 -3.157082,-2.122059 -2.106471,0.03727 -3.120134,2.621793 -2.567217,4.166451 l 2.575935,7.196262 c 0.303322,0.847377 0.381754,1.439036 -0.940421,2.821262 z"
             style="fill:#eeeeee;fill-opacity:1;fill-rule:nonzero;stroke:#444444;stroke-width:1.06666672;stroke-linecap:round;stroke-linejoin:miter;stroke-miterlimit:4;stroke-dasharray:none;stroke-opacity:1" />
        </g>
      </g>
    </g>
  </svg>
</svg>
