<?xml version="1.0" encoding="UTF-8" standalone="no"?>
<svg
   xmlns:dc="http://purl.org/dc/elements/1.1/"
   xmlns:cc="http://creativecommons.org/ns#"
   xmlns:rdf="http://www.w3.org/1999/02/22-rdf-syntax-ns#"
   xmlns:svg="http://www.w3.org/2000/svg"
   xmlns="http://www.w3.org/2000/svg"
   xmlns:sodipodi="http://sodipodi.sourceforge.net/DTD/sodipodi-0.dtd"
   xmlns:inkscape="http://www.inkscape.org/namespaces/inkscape"
   height="70"
   width="0.85416669in"
   version="1.1"
   id="svg2227"
   sodipodi:docname="flag_sr.svg"
   inkscape:version="0.92.5 (2060ec1f9f, 2020-04-08)">
  <sodipodi:namedview
     pagecolor="#ffffff"
     bordercolor="#666666"
     borderopacity="1"
     objecttolerance="10"
     gridtolerance="10"
     guidetolerance="10"
     inkscape:pageopacity="0"
     inkscape:pageshadow="2"
     inkscape:window-width="1848"
     inkscape:window-height="1016"
     id="namedview17"
     showgrid="false"
     inkscape:zoom="9.53584"
     inkscape:cx="27.526955"
     inkscape:cy="34.012225"
     inkscape:window-x="72"
     inkscape:window-y="27"
     inkscape:window-maximized="1"
     inkscape:current-layer="g5399" />
  <metadata
     id="metadata2233">
    <rdf:RDF>
      <cc:Work
         rdf:about="">
        <dc:format>image/svg+xml</dc:format>
        <dc:type
           rdf:resource="http://purl.org/dc/dcmitype/StillImage" />
        <dc:title></dc:title>
      </cc:Work>
    </rdf:RDF>
  </metadata>
  <defs
     id="defs2231" />
  <svg
     x="0"
     y="0"
     width="82"
     height="66"
     viewBox="0 0 82 66"
     version="1.1"
     id="svg1855">
    <title
       id="title1844">cs</title>
  </svg>
  <g
     id="g848"
     transform="translate(26.181094,-51.003186)"
     style="opacity:1">
    <g
       style="fill:none;fill-rule:evenodd;stroke:none;stroke-width:1"
       id="nl"
       transform="translate(-26.181094,51.003186)">
      <g
         style="fill-rule:nonzero"
         transform="translate(6,6)"
         id="g189">
        <path
           style="fill:#ff4b4b;fill-opacity:1;stroke:#ffffff;stroke-width:4"
           id="path183"
           d="M 57.436962,-2 H 12.563038 C 7.6282012,-2 5.8668192,-1.4154874 4.0702583,-0.45467615 2.119529,0.58858529 0.58858529,2.119529 -0.45467615,4.0702583 -1.4154874,5.8668192 -2,7.6282012 -2,12.563038 v 28.873924 c 0,4.934837 0.5845126,6.696219 1.54532385,8.49278 C 0.58858529,51.880471 2.119529,53.411415 4.0702583,54.454676 5.8668192,55.415487 7.6282012,56 12.563038,56 h 44.873924 c 4.934837,0 6.696219,-0.584513 8.49278,-1.545324 1.950729,-1.043261 3.481673,-2.574205 4.524934,-4.524934 C 71.415487,48.133181 72,46.371799 72,41.436962 V 12.563038 C 72,7.6282012 71.415487,5.8668192 70.454676,4.0702583 69.411415,2.119529 67.880471,0.58858529 65.929742,-0.45467615 64.133181,-1.4154874 62.371799,-2 57.436962,-2 Z" />
      </g>
    </g>
    <g
       transform="matrix(0.96754265,0,0,0.92935236,-46.94756,54.283746)"
       id="g5399">
      <path
         style="fill:#000000;fill-opacity:1;fill-rule:evenodd;stroke:none;stroke-width:1.15439451;stroke-linecap:butt;stroke-linejoin:miter;stroke-miterlimit:4;stroke-dasharray:none;stroke-opacity:1"
         d="m 52.514812,10.778511 c -7.71196,0.611401 -4.443138,21.741736 -3.897371,31.317456 3.847813,-1.300508 5.392123,-5.486524 7.691669,-8.722375 l -4.361188,10.149256 c 4.031504,-0.522314 5.409702,-1.85259 7.372792,-5.31137 2.603603,4.082285 -0.755955,9.398124 -1.984116,13.711669 2.113828,1.281229 4.458771,1.269058 6.660962,1.269058 2.202189,0 4.228254,0.01156 6.342083,-1.269058 -1.22816,-4.313529 -4.587719,-9.629384 -1.984116,-13.711669 1.963091,3.45878 3.341289,4.789039 7.372793,5.31137 L 71.367132,33.373592 c 2.299546,3.235851 3.843856,7.42185 7.691668,8.722375 0.563373,-9.884619 4.030008,-32.080824 -4.676843,-31.311024 2.010216,4.056956 -0.359223,6.697369 -3.807183,10.384406 -2.508411,-1.915751 -3.819205,-3.899973 -2.5349,-6.026434 l 3.646132,-1.26906 c 2.216885,-2.193976 1.374916,-2.11142 0.872883,-2.692724 -6.969587,-1.6426207 -7.704301,2.517933 -8.719158,6.41939 -1.014859,-3.901457 -1.752791,-8.0620107 -8.722379,-6.41939 -0.462399,0.779465 -1.344002,0.498748 0.872883,2.692724 l 3.646133,1.26906 c 1.284304,2.126461 -0.02648,4.110683 -2.5349,6.026434 -3.44796,-3.687037 -5.8174,-6.327434 -3.807184,-10.384406 -0.272089,-0.02408 -0.530699,-0.02623 -0.779472,-0.0065 z"
         id="path5360"
         inkscape:connector-curvature="0" />
    </g>
  </g>
</svg>
